*%FSLAX23Y23*%
*%MOIN*%
G01*
D28*
X13834Y8720D02*
X13836D01*
X13834D02*
X13835Y8709D01*
X13837Y8699D01*
X13839Y8688D01*
X13843Y8678D01*
X13847Y8668D01*
X13852Y8659D01*
X13859Y8650D01*
X13866Y8642D01*
X13873Y8635D01*
X13882Y8628D01*
X13891Y8623D01*
X13900Y8618D01*
X13910Y8614D01*
X13920Y8611D01*
X13931Y8609D01*
X13942Y8608D01*
X13952D01*
X13963Y8609D01*
X13974Y8611D01*
X13984Y8614D01*
X13994Y8618D01*
X14003Y8623D01*
X14012Y8628D01*
X14021Y8635D01*
X14028Y8642D01*
X14035Y8650D01*
X14042Y8659D01*
X14047Y8668D01*
X14051Y8678D01*
X14055Y8688D01*
X14057Y8699D01*
X14059Y8709D01*
X14060Y8720D01*
X14060D01*
X14060D02*
X14059Y8731D01*
X14057Y8741D01*
X14055Y8752D01*
X14051Y8762D01*
X14047Y8772D01*
X14042Y8781D01*
X14035Y8790D01*
X14028Y8798D01*
X14021Y8805D01*
X14012Y8812D01*
X14003Y8817D01*
X13994Y8822D01*
X13984Y8826D01*
X13974Y8829D01*
X13963Y8831D01*
X13952Y8832D01*
X13942D01*
X13931Y8831D01*
X13920Y8829D01*
X13910Y8826D01*
X13900Y8822D01*
X13891Y8817D01*
X13882Y8812D01*
X13873Y8805D01*
X13866Y8798D01*
X13859Y8790D01*
X13852Y8781D01*
X13847Y8772D01*
X13843Y8762D01*
X13839Y8752D01*
X13837Y8741D01*
X13835Y8731D01*
X13834Y8720D01*
X13882D02*
X13884D01*
X13882D02*
X13883Y8710D01*
X13885Y8701D01*
X13889Y8692D01*
X13894Y8684D01*
X13900Y8676D01*
X13907Y8670D01*
X13915Y8664D01*
X13923Y8660D01*
X13933Y8657D01*
X13942Y8656D01*
X13952D01*
X13961Y8657D01*
X13971Y8660D01*
X13979Y8664D01*
X13987Y8670D01*
X13994Y8676D01*
X14000Y8684D01*
X14005Y8692D01*
X14009Y8701D01*
X14011Y8710D01*
X14012Y8720D01*
X14012D01*
X14012D02*
X14011Y8730D01*
X14009Y8739D01*
X14005Y8748D01*
X14000Y8756D01*
X13994Y8764D01*
X13987Y8770D01*
X13979Y8776D01*
X13971Y8780D01*
X13961Y8783D01*
X13952Y8784D01*
X13942D01*
X13933Y8783D01*
X13923Y8780D01*
X13915Y8776D01*
X13907Y8770D01*
X13900Y8764D01*
X13894Y8756D01*
X13889Y8748D01*
X13885Y8739D01*
X13883Y8730D01*
X13882Y8720D01*
X13930D02*
X13932D01*
X13930D02*
X13931Y8714D01*
X13934Y8709D01*
X13939Y8706D01*
X13944Y8704D01*
X13950D01*
X13955Y8706D01*
X13960Y8709D01*
X13963Y8714D01*
X13964Y8720D01*
X13964D01*
X13964D02*
X13963Y8726D01*
X13960Y8731D01*
X13955Y8734D01*
X13950Y8736D01*
X13944D01*
X13939Y8734D01*
X13934Y8731D01*
X13931Y8726D01*
X13930Y8720D01*
X13834Y7303D02*
X13836D01*
X13834D02*
X13835Y7292D01*
X13837Y7282D01*
X13839Y7271D01*
X13843Y7261D01*
X13847Y7251D01*
X13852Y7242D01*
X13859Y7233D01*
X13866Y7225D01*
X13873Y7218D01*
X13882Y7211D01*
X13891Y7206D01*
X13900Y7201D01*
X13910Y7197D01*
X13920Y7194D01*
X13931Y7192D01*
X13942Y7191D01*
X13952D01*
X13963Y7192D01*
X13974Y7194D01*
X13984Y7197D01*
X13994Y7201D01*
X14003Y7206D01*
X14012Y7211D01*
X14021Y7218D01*
X14028Y7225D01*
X14035Y7233D01*
X14042Y7242D01*
X14047Y7251D01*
X14051Y7261D01*
X14055Y7271D01*
X14057Y7282D01*
X14059Y7292D01*
X14060Y7303D01*
X14060D01*
X14060D02*
X14059Y7314D01*
X14057Y7324D01*
X14055Y7335D01*
X14051Y7345D01*
X14047Y7355D01*
X14042Y7364D01*
X14035Y7373D01*
X14028Y7381D01*
X14021Y7388D01*
X14012Y7395D01*
X14003Y7400D01*
X13994Y7405D01*
X13984Y7409D01*
X13974Y7412D01*
X13963Y7414D01*
X13952Y7415D01*
X13942D01*
X13931Y7414D01*
X13920Y7412D01*
X13910Y7409D01*
X13900Y7405D01*
X13891Y7400D01*
X13882Y7395D01*
X13873Y7388D01*
X13866Y7381D01*
X13859Y7373D01*
X13852Y7364D01*
X13847Y7355D01*
X13843Y7345D01*
X13839Y7335D01*
X13837Y7324D01*
X13835Y7314D01*
X13834Y7303D01*
X13882D02*
X13884D01*
X13882D02*
X13883Y7293D01*
X13885Y7284D01*
X13889Y7275D01*
X13894Y7267D01*
X13900Y7259D01*
X13907Y7253D01*
X13915Y7247D01*
X13923Y7243D01*
X13933Y7240D01*
X13942Y7239D01*
X13952D01*
X13961Y7240D01*
X13971Y7243D01*
X13979Y7247D01*
X13987Y7253D01*
X13994Y7259D01*
X14000Y7267D01*
X14005Y7275D01*
X14009Y7284D01*
X14011Y7293D01*
X14012Y7303D01*
X14012D01*
X14012D02*
X14011Y7313D01*
X14009Y7322D01*
X14005Y7331D01*
X14000Y7339D01*
X13994Y7347D01*
X13987Y7353D01*
X13979Y7359D01*
X13971Y7363D01*
X13961Y7366D01*
X13952Y7367D01*
X13942D01*
X13933Y7366D01*
X13923Y7363D01*
X13915Y7359D01*
X13907Y7353D01*
X13900Y7347D01*
X13894Y7339D01*
X13889Y7331D01*
X13885Y7322D01*
X13883Y7313D01*
X13882Y7303D01*
X13930D02*
X13932D01*
X13930D02*
X13931Y7297D01*
X13934Y7292D01*
X13939Y7289D01*
X13944Y7287D01*
X13950D01*
X13955Y7289D01*
X13960Y7292D01*
X13963Y7297D01*
X13964Y7303D01*
X13964D01*
X13964D02*
X13963Y7309D01*
X13960Y7314D01*
X13955Y7317D01*
X13950Y7319D01*
X13944D01*
X13939Y7317D01*
X13934Y7314D01*
X13931Y7309D01*
X13930Y7303D01*
X9740Y8720D02*
X9742D01*
X9740D02*
X9741Y8709D01*
X9743Y8699D01*
X9745Y8688D01*
X9749Y8678D01*
X9753Y8668D01*
X9758Y8659D01*
X9765Y8650D01*
X9772Y8642D01*
X9779Y8635D01*
X9788Y8628D01*
X9797Y8623D01*
X9806Y8618D01*
X9816Y8614D01*
X9826Y8611D01*
X9837Y8609D01*
X9848Y8608D01*
X9858D01*
X9869Y8609D01*
X9880Y8611D01*
X9890Y8614D01*
X9900Y8618D01*
X9909Y8623D01*
X9918Y8628D01*
X9927Y8635D01*
X9934Y8642D01*
X9941Y8650D01*
X9948Y8659D01*
X9953Y8668D01*
X9957Y8678D01*
X9961Y8688D01*
X9963Y8699D01*
X9965Y8709D01*
X9966Y8720D01*
X9966D01*
X9966D02*
X9965Y8731D01*
X9963Y8741D01*
X9961Y8752D01*
X9957Y8762D01*
X9953Y8772D01*
X9948Y8781D01*
X9941Y8790D01*
X9934Y8798D01*
X9927Y8805D01*
X9918Y8812D01*
X9909Y8817D01*
X9900Y8822D01*
X9890Y8826D01*
X9880Y8829D01*
X9869Y8831D01*
X9858Y8832D01*
X9848D01*
X9837Y8831D01*
X9826Y8829D01*
X9816Y8826D01*
X9806Y8822D01*
X9797Y8817D01*
X9788Y8812D01*
X9779Y8805D01*
X9772Y8798D01*
X9765Y8790D01*
X9758Y8781D01*
X9753Y8772D01*
X9749Y8762D01*
X9745Y8752D01*
X9743Y8741D01*
X9741Y8731D01*
X9740Y8720D01*
X9788D02*
X9790D01*
X9788D02*
X9789Y8710D01*
X9791Y8701D01*
X9795Y8692D01*
X9800Y8684D01*
X9806Y8676D01*
X9813Y8670D01*
X9821Y8664D01*
X9829Y8660D01*
X9839Y8657D01*
X9848Y8656D01*
X9858D01*
X9867Y8657D01*
X9877Y8660D01*
X9885Y8664D01*
X9893Y8670D01*
X9900Y8676D01*
X9906Y8684D01*
X9911Y8692D01*
X9915Y8701D01*
X9917Y8710D01*
X9918Y8720D01*
X9918D01*
X9918D02*
X9917Y8730D01*
X9915Y8739D01*
X9911Y8748D01*
X9906Y8756D01*
X9900Y8764D01*
X9893Y8770D01*
X9885Y8776D01*
X9877Y8780D01*
X9867Y8783D01*
X9858Y8784D01*
X9848D01*
X9839Y8783D01*
X9829Y8780D01*
X9821Y8776D01*
X9813Y8770D01*
X9806Y8764D01*
X9800Y8756D01*
X9795Y8748D01*
X9791Y8739D01*
X9789Y8730D01*
X9788Y8720D01*
X9836D02*
X9838D01*
X9836D02*
X9837Y8714D01*
X9840Y8709D01*
X9845Y8706D01*
X9850Y8704D01*
X9856D01*
X9861Y8706D01*
X9866Y8709D01*
X9869Y8714D01*
X9870Y8720D01*
X9870D01*
X9870D02*
X9869Y8726D01*
X9866Y8731D01*
X9861Y8734D01*
X9856Y8736D01*
X9850D01*
X9845Y8734D01*
X9840Y8731D01*
X9837Y8726D01*
X9836Y8720D01*
X9740Y7303D02*
X9742D01*
X9740D02*
X9741Y7292D01*
X9743Y7282D01*
X9745Y7271D01*
X9749Y7261D01*
X9753Y7251D01*
X9758Y7242D01*
X9765Y7233D01*
X9772Y7225D01*
X9779Y7218D01*
X9788Y7211D01*
X9797Y7206D01*
X9806Y7201D01*
X9816Y7197D01*
X9826Y7194D01*
X9837Y7192D01*
X9848Y7191D01*
X9858D01*
X9869Y7192D01*
X9880Y7194D01*
X9890Y7197D01*
X9900Y7201D01*
X9909Y7206D01*
X9918Y7211D01*
X9927Y7218D01*
X9934Y7225D01*
X9941Y7233D01*
X9948Y7242D01*
X9953Y7251D01*
X9957Y7261D01*
X9961Y7271D01*
X9963Y7282D01*
X9965Y7292D01*
X9966Y7303D01*
X9966D01*
X9966D02*
X9965Y7314D01*
X9963Y7324D01*
X9961Y7335D01*
X9957Y7345D01*
X9953Y7355D01*
X9948Y7364D01*
X9941Y7373D01*
X9934Y7381D01*
X9927Y7388D01*
X9918Y7395D01*
X9909Y7400D01*
X9900Y7405D01*
X9890Y7409D01*
X9880Y7412D01*
X9869Y7414D01*
X9858Y7415D01*
X9848D01*
X9837Y7414D01*
X9826Y7412D01*
X9816Y7409D01*
X9806Y7405D01*
X9797Y7400D01*
X9788Y7395D01*
X9779Y7388D01*
X9772Y7381D01*
X9765Y7373D01*
X9758Y7364D01*
X9753Y7355D01*
X9749Y7345D01*
X9745Y7335D01*
X9743Y7324D01*
X9741Y7314D01*
X9740Y7303D01*
X9788D02*
X9790D01*
X9788D02*
X9789Y7293D01*
X9791Y7284D01*
X9795Y7275D01*
X9800Y7267D01*
X9806Y7259D01*
X9813Y7253D01*
X9821Y7247D01*
X9829Y7243D01*
X9839Y7240D01*
X9848Y7239D01*
X9858D01*
X9867Y7240D01*
X9877Y7243D01*
X9885Y7247D01*
X9893Y7253D01*
X9900Y7259D01*
X9906Y7267D01*
X9911Y7275D01*
X9915Y7284D01*
X9917Y7293D01*
X9918Y7303D01*
X9918D01*
X9918D02*
X9917Y7313D01*
X9915Y7322D01*
X9911Y7331D01*
X9906Y7339D01*
X9900Y7347D01*
X9893Y7353D01*
X9885Y7359D01*
X9877Y7363D01*
X9867Y7366D01*
X9858Y7367D01*
X9848D01*
X9839Y7366D01*
X9829Y7363D01*
X9821Y7359D01*
X9813Y7353D01*
X9806Y7347D01*
X9800Y7339D01*
X9795Y7331D01*
X9791Y7322D01*
X9789Y7313D01*
X9788Y7303D01*
X9836D02*
X9838D01*
X9836D02*
X9837Y7297D01*
X9840Y7292D01*
X9845Y7289D01*
X9850Y7287D01*
X9856D01*
X9861Y7289D01*
X9866Y7292D01*
X9869Y7297D01*
X9870Y7303D01*
X9870D01*
X9870D02*
X9869Y7309D01*
X9866Y7314D01*
X9861Y7317D01*
X9856Y7319D01*
X9850D01*
X9845Y7317D01*
X9840Y7314D01*
X9837Y7309D01*
X9836Y7303D01*
X7318Y8720D02*
X7320D01*
X7318D02*
X7319Y8709D01*
X7321Y8699D01*
X7323Y8688D01*
X7327Y8678D01*
X7331Y8668D01*
X7336Y8659D01*
X7343Y8650D01*
X7350Y8642D01*
X7357Y8635D01*
X7366Y8628D01*
X7375Y8623D01*
X7384Y8618D01*
X7394Y8614D01*
X7404Y8611D01*
X7415Y8609D01*
X7426Y8608D01*
X7436D01*
X7447Y8609D01*
X7458Y8611D01*
X7468Y8614D01*
X7478Y8618D01*
X7487Y8623D01*
X7496Y8628D01*
X7505Y8635D01*
X7512Y8642D01*
X7519Y8650D01*
X7526Y8659D01*
X7531Y8668D01*
X7535Y8678D01*
X7539Y8688D01*
X7541Y8699D01*
X7543Y8709D01*
X7544Y8720D01*
X7544D01*
X7544D02*
X7543Y8731D01*
X7541Y8741D01*
X7539Y8752D01*
X7535Y8762D01*
X7531Y8772D01*
X7526Y8781D01*
X7519Y8790D01*
X7512Y8798D01*
X7505Y8805D01*
X7496Y8812D01*
X7487Y8817D01*
X7478Y8822D01*
X7468Y8826D01*
X7458Y8829D01*
X7447Y8831D01*
X7436Y8832D01*
X7426D01*
X7415Y8831D01*
X7404Y8829D01*
X7394Y8826D01*
X7384Y8822D01*
X7375Y8817D01*
X7366Y8812D01*
X7357Y8805D01*
X7350Y8798D01*
X7343Y8790D01*
X7336Y8781D01*
X7331Y8772D01*
X7327Y8762D01*
X7323Y8752D01*
X7321Y8741D01*
X7319Y8731D01*
X7318Y8720D01*
X7366D02*
X7368D01*
X7366D02*
X7367Y8710D01*
X7369Y8701D01*
X7373Y8692D01*
X7378Y8684D01*
X7384Y8676D01*
X7391Y8670D01*
X7399Y8664D01*
X7407Y8660D01*
X7417Y8657D01*
X7426Y8656D01*
X7436D01*
X7445Y8657D01*
X7455Y8660D01*
X7463Y8664D01*
X7471Y8670D01*
X7478Y8676D01*
X7484Y8684D01*
X7489Y8692D01*
X7493Y8701D01*
X7495Y8710D01*
X7496Y8720D01*
X7496D01*
X7496D02*
X7495Y8730D01*
X7493Y8739D01*
X7489Y8748D01*
X7484Y8756D01*
X7478Y8764D01*
X7471Y8770D01*
X7463Y8776D01*
X7455Y8780D01*
X7445Y8783D01*
X7436Y8784D01*
X7426D01*
X7417Y8783D01*
X7407Y8780D01*
X7399Y8776D01*
X7391Y8770D01*
X7384Y8764D01*
X7378Y8756D01*
X7373Y8748D01*
X7369Y8739D01*
X7367Y8730D01*
X7366Y8720D01*
X7414D02*
X7416D01*
X7414D02*
X7415Y8714D01*
X7418Y8709D01*
X7423Y8706D01*
X7428Y8704D01*
X7434D01*
X7439Y8706D01*
X7444Y8709D01*
X7447Y8714D01*
X7448Y8720D01*
X7448D01*
X7448D02*
X7447Y8726D01*
X7444Y8731D01*
X7439Y8734D01*
X7434Y8736D01*
X7428D01*
X7423Y8734D01*
X7418Y8731D01*
X7415Y8726D01*
X7414Y8720D01*
X7318Y7303D02*
X7320D01*
X7318D02*
X7319Y7292D01*
X7321Y7282D01*
X7323Y7271D01*
X7327Y7261D01*
X7331Y7251D01*
X7336Y7242D01*
X7343Y7233D01*
X7350Y7225D01*
X7357Y7218D01*
X7366Y7211D01*
X7375Y7206D01*
X7384Y7201D01*
X7394Y7197D01*
X7404Y7194D01*
X7415Y7192D01*
X7426Y7191D01*
X7436D01*
X7447Y7192D01*
X7458Y7194D01*
X7468Y7197D01*
X7478Y7201D01*
X7487Y7206D01*
X7496Y7211D01*
X7505Y7218D01*
X7512Y7225D01*
X7519Y7233D01*
X7526Y7242D01*
X7531Y7251D01*
X7535Y7261D01*
X7539Y7271D01*
X7541Y7282D01*
X7543Y7292D01*
X7544Y7303D01*
X7544D01*
X7544D02*
X7543Y7314D01*
X7541Y7324D01*
X7539Y7335D01*
X7535Y7345D01*
X7531Y7355D01*
X7526Y7364D01*
X7519Y7373D01*
X7512Y7381D01*
X7505Y7388D01*
X7496Y7395D01*
X7487Y7400D01*
X7478Y7405D01*
X7468Y7409D01*
X7458Y7412D01*
X7447Y7414D01*
X7436Y7415D01*
X7426D01*
X7415Y7414D01*
X7404Y7412D01*
X7394Y7409D01*
X7384Y7405D01*
X7375Y7400D01*
X7366Y7395D01*
X7357Y7388D01*
X7350Y7381D01*
X7343Y7373D01*
X7336Y7364D01*
X7331Y7355D01*
X7327Y7345D01*
X7323Y7335D01*
X7321Y7324D01*
X7319Y7314D01*
X7318Y7303D01*
X7366D02*
X7368D01*
X7366D02*
X7367Y7293D01*
X7369Y7284D01*
X7373Y7275D01*
X7378Y7267D01*
X7384Y7259D01*
X7391Y7253D01*
X7399Y7247D01*
X7407Y7243D01*
X7417Y7240D01*
X7426Y7239D01*
X7436D01*
X7445Y7240D01*
X7455Y7243D01*
X7463Y7247D01*
X7471Y7253D01*
X7478Y7259D01*
X7484Y7267D01*
X7489Y7275D01*
X7493Y7284D01*
X7495Y7293D01*
X7496Y7303D01*
X7496D01*
X7496D02*
X7495Y7313D01*
X7493Y7322D01*
X7489Y7331D01*
X7484Y7339D01*
X7478Y7347D01*
X7471Y7353D01*
X7463Y7359D01*
X7455Y7363D01*
X7445Y7366D01*
X7436Y7367D01*
X7426D01*
X7417Y7366D01*
X7407Y7363D01*
X7399Y7359D01*
X7391Y7353D01*
X7384Y7347D01*
X7378Y7339D01*
X7373Y7331D01*
X7369Y7322D01*
X7367Y7313D01*
X7366Y7303D01*
X7414D02*
X7416D01*
X7414D02*
X7415Y7297D01*
X7418Y7292D01*
X7423Y7289D01*
X7428Y7287D01*
X7434D01*
X7439Y7289D01*
X7444Y7292D01*
X7447Y7297D01*
X7448Y7303D01*
X7448D01*
X7448D02*
X7447Y7309D01*
X7444Y7314D01*
X7439Y7317D01*
X7434Y7319D01*
X7428D01*
X7423Y7317D01*
X7418Y7314D01*
X7415Y7309D01*
X7414Y7303D01*
X4170Y8720D02*
X4170D01*
X4170D02*
X4170Y8709D01*
X4172Y8699D01*
X4174Y8688D01*
X4178Y8678D01*
X4182Y8668D01*
X4187Y8659D01*
X4194Y8650D01*
X4201Y8642D01*
X4208Y8635D01*
X4217Y8628D01*
X4226Y8623D01*
X4235Y8618D01*
X4245Y8614D01*
X4255Y8611D01*
X4266Y8609D01*
X4277Y8608D01*
X4287D01*
X4298Y8609D01*
X4309Y8611D01*
X4319Y8614D01*
X4329Y8618D01*
X4338Y8623D01*
X4347Y8628D01*
X4356Y8635D01*
X4363Y8642D01*
X4370Y8650D01*
X4377Y8659D01*
X4382Y8668D01*
X4386Y8678D01*
X4390Y8688D01*
X4392Y8699D01*
X4394Y8709D01*
X4394Y8720D01*
X4396D01*
X4394D02*
X4394Y8731D01*
X4392Y8741D01*
X4390Y8752D01*
X4386Y8762D01*
X4382Y8772D01*
X4377Y8781D01*
X4370Y8790D01*
X4363Y8798D01*
X4356Y8805D01*
X4347Y8812D01*
X4338Y8817D01*
X4329Y8822D01*
X4319Y8826D01*
X4309Y8829D01*
X4298Y8831D01*
X4287Y8832D01*
X4277D01*
X4266Y8831D01*
X4255Y8829D01*
X4245Y8826D01*
X4235Y8822D01*
X4226Y8817D01*
X4217Y8812D01*
X4208Y8805D01*
X4201Y8798D01*
X4194Y8790D01*
X4187Y8781D01*
X4182Y8772D01*
X4178Y8762D01*
X4174Y8752D01*
X4172Y8741D01*
X4170Y8731D01*
X4170Y8720D01*
X4218D02*
X4218D01*
X4218D02*
X4218Y8710D01*
X4220Y8701D01*
X4224Y8692D01*
X4229Y8684D01*
X4235Y8676D01*
X4242Y8670D01*
X4250Y8664D01*
X4258Y8660D01*
X4268Y8657D01*
X4277Y8656D01*
X4287D01*
X4296Y8657D01*
X4306Y8660D01*
X4314Y8664D01*
X4322Y8670D01*
X4329Y8676D01*
X4335Y8684D01*
X4340Y8692D01*
X4344Y8701D01*
X4346Y8710D01*
X4346Y8720D01*
X4348D01*
X4346D02*
X4346Y8730D01*
X4344Y8739D01*
X4340Y8748D01*
X4335Y8756D01*
X4329Y8764D01*
X4322Y8770D01*
X4314Y8776D01*
X4306Y8780D01*
X4296Y8783D01*
X4287Y8784D01*
X4277D01*
X4268Y8783D01*
X4258Y8780D01*
X4250Y8776D01*
X4242Y8770D01*
X4235Y8764D01*
X4229Y8756D01*
X4224Y8748D01*
X4220Y8739D01*
X4218Y8730D01*
X4218Y8720D01*
X4266D02*
X4266D01*
X4266D02*
X4266Y8714D01*
X4269Y8709D01*
X4274Y8706D01*
X4279Y8704D01*
X4285D01*
X4290Y8706D01*
X4295Y8709D01*
X4298Y8714D01*
X4298Y8720D01*
X4300D01*
X4298D02*
X4298Y8726D01*
X4295Y8731D01*
X4290Y8734D01*
X4285Y8736D01*
X4279D01*
X4274Y8734D01*
X4269Y8731D01*
X4266Y8726D01*
X4266Y8720D01*
X4170Y7303D02*
X4170D01*
X4170D02*
X4170Y7292D01*
X4172Y7282D01*
X4174Y7271D01*
X4178Y7261D01*
X4182Y7251D01*
X4187Y7242D01*
X4194Y7233D01*
X4201Y7225D01*
X4208Y7218D01*
X4217Y7211D01*
X4226Y7206D01*
X4235Y7201D01*
X4245Y7197D01*
X4255Y7194D01*
X4266Y7192D01*
X4277Y7191D01*
X4287D01*
X4298Y7192D01*
X4309Y7194D01*
X4319Y7197D01*
X4329Y7201D01*
X4338Y7206D01*
X4347Y7211D01*
X4356Y7218D01*
X4363Y7225D01*
X4370Y7233D01*
X4377Y7242D01*
X4382Y7251D01*
X4386Y7261D01*
X4390Y7271D01*
X4392Y7282D01*
X4394Y7292D01*
X4394Y7303D01*
X4396D01*
X4394D02*
X4394Y7314D01*
X4392Y7324D01*
X4390Y7335D01*
X4386Y7345D01*
X4382Y7355D01*
X4377Y7364D01*
X4370Y7373D01*
X4363Y7381D01*
X4356Y7388D01*
X4347Y7395D01*
X4338Y7400D01*
X4329Y7405D01*
X4319Y7409D01*
X4309Y7412D01*
X4298Y7414D01*
X4287Y7415D01*
X4277D01*
X4266Y7414D01*
X4255Y7412D01*
X4245Y7409D01*
X4235Y7405D01*
X4226Y7400D01*
X4217Y7395D01*
X4208Y7388D01*
X4201Y7381D01*
X4194Y7373D01*
X4187Y7364D01*
X4182Y7355D01*
X4178Y7345D01*
X4174Y7335D01*
X4172Y7324D01*
X4170Y7314D01*
X4170Y7303D01*
X4218D02*
X4218D01*
X4218D02*
X4218Y7293D01*
X4220Y7284D01*
X4224Y7275D01*
X4229Y7267D01*
X4235Y7259D01*
X4242Y7253D01*
X4250Y7247D01*
X4258Y7243D01*
X4268Y7240D01*
X4277Y7239D01*
X4287D01*
X4296Y7240D01*
X4306Y7243D01*
X4314Y7247D01*
X4322Y7253D01*
X4329Y7259D01*
X4335Y7267D01*
X4340Y7275D01*
X4344Y7284D01*
X4346Y7293D01*
X4346Y7303D01*
X4348D01*
X4346D02*
X4346Y7313D01*
X4344Y7322D01*
X4340Y7331D01*
X4335Y7339D01*
X4329Y7347D01*
X4322Y7353D01*
X4314Y7359D01*
X4306Y7363D01*
X4296Y7366D01*
X4287Y7367D01*
X4277D01*
X4268Y7366D01*
X4258Y7363D01*
X4250Y7359D01*
X4242Y7353D01*
X4235Y7347D01*
X4229Y7339D01*
X4224Y7331D01*
X4220Y7322D01*
X4218Y7313D01*
X4218Y7303D01*
X4266D02*
X4266D01*
X4266D02*
X4266Y7297D01*
X4269Y7292D01*
X4274Y7289D01*
X4279Y7287D01*
X4285D01*
X4290Y7289D01*
X4295Y7292D01*
X4298Y7297D01*
X4298Y7303D01*
X4300D01*
X4298D02*
X4298Y7309D01*
X4295Y7314D01*
X4290Y7317D01*
X4285Y7319D01*
X4279D01*
X4274Y7317D01*
X4269Y7314D01*
X4266Y7309D01*
X4266Y7303D01*
D32*
X11285Y9139D02*
D03*
X10885D02*
D03*
X11835Y9239D02*
D03*
X11785Y9139D02*
D03*
X11735Y9239D02*
D03*
X11685Y9139D02*
D03*
X11635Y9239D02*
D03*
X11585Y9139D02*
D03*
X11535Y9239D02*
D03*
X11485Y9139D02*
D03*
X11435Y9239D02*
D03*
X11385Y9139D02*
D03*
X11335Y9239D02*
D03*
X11235D02*
D03*
X11185Y9139D02*
D03*
X11135Y9239D02*
D03*
X11085Y9139D02*
D03*
X11035Y9239D02*
D03*
X10985Y9139D02*
D03*
X10935Y9239D02*
D03*
X10095Y9139D02*
D03*
X9695D02*
D03*
X10645Y9239D02*
D03*
X10595Y9139D02*
D03*
X10545Y9239D02*
D03*
X10495Y9139D02*
D03*
X10445Y9239D02*
D03*
X10395Y9139D02*
D03*
X10345Y9239D02*
D03*
X10295Y9139D02*
D03*
X10245Y9239D02*
D03*
X10195Y9139D02*
D03*
X10145Y9239D02*
D03*
X10045D02*
D03*
X9995Y9139D02*
D03*
X9945Y9239D02*
D03*
X9895Y9139D02*
D03*
X9845Y9239D02*
D03*
X9795Y9139D02*
D03*
X9745Y9239D02*
D03*
X8835Y7454D02*
D03*
X9035D02*
D03*
X4332Y7961D02*
D03*
Y7561D02*
D03*
X4232Y8511D02*
D03*
X4332Y8461D02*
D03*
X4232Y8411D02*
D03*
X4332Y8361D02*
D03*
X4232Y8311D02*
D03*
X4332Y8261D02*
D03*
X4232Y8211D02*
D03*
X4332Y8161D02*
D03*
X4232Y8111D02*
D03*
X4332Y8061D02*
D03*
X4232Y8011D02*
D03*
Y7911D02*
D03*
X4332Y7861D02*
D03*
X4232Y7811D02*
D03*
X4332Y7761D02*
D03*
X4232Y7711D02*
D03*
X4332Y7661D02*
D03*
X4232Y7611D02*
D03*
D33*
X10575Y7009D02*
D03*
X10665D02*
D03*
X10485D02*
D03*
D36*
X11396Y6784D02*
D03*
X11296D02*
D03*
X11196D02*
D03*
X11096D02*
D03*
X10996D02*
D03*
X10896D02*
D03*
X8670D02*
D03*
X8770D02*
D03*
X8870D02*
D03*
X8970D02*
D03*
X9070D02*
D03*
X9170D02*
D03*
D39*
X15389Y7758D02*
D03*
Y7658D02*
D03*
Y9175D02*
D03*
Y9075D02*
D03*
X15390Y8366D02*
D03*
Y8466D02*
D03*
X15388Y6947D02*
D03*
Y7047D02*
D03*
D42*
X15588Y6948D02*
D03*
X10829Y9211D02*
D03*
X9639D02*
D03*
X4260Y7505D02*
D03*
D45*
X15687Y7047D02*
D03*
X15489D02*
D03*
Y6849D02*
D03*
X15687D02*
D03*
D51*
X15589Y9275D02*
D03*
D53*
Y7458D02*
D03*
Y7858D02*
D03*
Y8875D02*
D03*
X15590Y8566D02*
D03*
Y8166D02*
D03*
X15588Y7147D02*
D03*
Y6747D02*
D03*
D88*
X11190Y7634D02*
D03*
X11280D02*
D03*
X11190Y7709D02*
D03*
X11280D02*
D03*
X4855Y8329D02*
D03*
X4945D02*
D03*
D98*
X11155Y8354D02*
D03*
Y8444D02*
D03*
X11230Y8354D02*
D03*
Y8444D02*
D03*
X10540Y7669D02*
D03*
Y7579D02*
D03*
X10465Y7669D02*
D03*
Y7579D02*
D03*
D102*
X10796Y6784D02*
D03*
X8570D02*
D03*
M02*
