*%FSLAX23Y23*%
*%MOIN*%
G01*
D15*
X11991Y6903D02*
D03*
X12542D02*
D03*
D21*
X15105Y8629D02*
D03*
Y7189D02*
D03*
D28*
X13834Y8720D02*
X13836D01*
X13834D02*
X13835Y8709D01*
X13837Y8699D01*
X13839Y8688D01*
X13843Y8678D01*
X13847Y8668D01*
X13852Y8659D01*
X13859Y8650D01*
X13866Y8642D01*
X13873Y8635D01*
X13882Y8628D01*
X13891Y8623D01*
X13900Y8618D01*
X13910Y8614D01*
X13920Y8611D01*
X13931Y8609D01*
X13942Y8608D01*
X13952D01*
X13963Y8609D01*
X13974Y8611D01*
X13984Y8614D01*
X13994Y8618D01*
X14003Y8623D01*
X14012Y8628D01*
X14021Y8635D01*
X14028Y8642D01*
X14035Y8650D01*
X14042Y8659D01*
X14047Y8668D01*
X14051Y8678D01*
X14055Y8688D01*
X14057Y8699D01*
X14059Y8709D01*
X14060Y8720D01*
X14060D01*
X14060D02*
X14059Y8731D01*
X14057Y8741D01*
X14055Y8752D01*
X14051Y8762D01*
X14047Y8772D01*
X14042Y8781D01*
X14035Y8790D01*
X14028Y8798D01*
X14021Y8805D01*
X14012Y8812D01*
X14003Y8817D01*
X13994Y8822D01*
X13984Y8826D01*
X13974Y8829D01*
X13963Y8831D01*
X13952Y8832D01*
X13942D01*
X13931Y8831D01*
X13920Y8829D01*
X13910Y8826D01*
X13900Y8822D01*
X13891Y8817D01*
X13882Y8812D01*
X13873Y8805D01*
X13866Y8798D01*
X13859Y8790D01*
X13852Y8781D01*
X13847Y8772D01*
X13843Y8762D01*
X13839Y8752D01*
X13837Y8741D01*
X13835Y8731D01*
X13834Y8720D01*
X13882D02*
X13884D01*
X13882D02*
X13883Y8710D01*
X13885Y8701D01*
X13889Y8692D01*
X13894Y8684D01*
X13900Y8676D01*
X13907Y8670D01*
X13915Y8664D01*
X13923Y8660D01*
X13933Y8657D01*
X13942Y8656D01*
X13952D01*
X13961Y8657D01*
X13971Y8660D01*
X13979Y8664D01*
X13987Y8670D01*
X13994Y8676D01*
X14000Y8684D01*
X14005Y8692D01*
X14009Y8701D01*
X14011Y8710D01*
X14012Y8720D01*
X14012D01*
X14012D02*
X14011Y8730D01*
X14009Y8739D01*
X14005Y8748D01*
X14000Y8756D01*
X13994Y8764D01*
X13987Y8770D01*
X13979Y8776D01*
X13971Y8780D01*
X13961Y8783D01*
X13952Y8784D01*
X13942D01*
X13933Y8783D01*
X13923Y8780D01*
X13915Y8776D01*
X13907Y8770D01*
X13900Y8764D01*
X13894Y8756D01*
X13889Y8748D01*
X13885Y8739D01*
X13883Y8730D01*
X13882Y8720D01*
X13930D02*
X13932D01*
X13930D02*
X13931Y8714D01*
X13934Y8709D01*
X13939Y8706D01*
X13944Y8704D01*
X13950D01*
X13955Y8706D01*
X13960Y8709D01*
X13963Y8714D01*
X13964Y8720D01*
X13964D01*
X13964D02*
X13963Y8726D01*
X13960Y8731D01*
X13955Y8734D01*
X13950Y8736D01*
X13944D01*
X13939Y8734D01*
X13934Y8731D01*
X13931Y8726D01*
X13930Y8720D01*
X13834Y7303D02*
X13836D01*
X13834D02*
X13835Y7292D01*
X13837Y7282D01*
X13839Y7271D01*
X13843Y7261D01*
X13847Y7251D01*
X13852Y7242D01*
X13859Y7233D01*
X13866Y7225D01*
X13873Y7218D01*
X13882Y7211D01*
X13891Y7206D01*
X13900Y7201D01*
X13910Y7197D01*
X13920Y7194D01*
X13931Y7192D01*
X13942Y7191D01*
X13952D01*
X13963Y7192D01*
X13974Y7194D01*
X13984Y7197D01*
X13994Y7201D01*
X14003Y7206D01*
X14012Y7211D01*
X14021Y7218D01*
X14028Y7225D01*
X14035Y7233D01*
X14042Y7242D01*
X14047Y7251D01*
X14051Y7261D01*
X14055Y7271D01*
X14057Y7282D01*
X14059Y7292D01*
X14060Y7303D01*
X14060D01*
X14060D02*
X14059Y7314D01*
X14057Y7324D01*
X14055Y7335D01*
X14051Y7345D01*
X14047Y7355D01*
X14042Y7364D01*
X14035Y7373D01*
X14028Y7381D01*
X14021Y7388D01*
X14012Y7395D01*
X14003Y7400D01*
X13994Y7405D01*
X13984Y7409D01*
X13974Y7412D01*
X13963Y7414D01*
X13952Y7415D01*
X13942D01*
X13931Y7414D01*
X13920Y7412D01*
X13910Y7409D01*
X13900Y7405D01*
X13891Y7400D01*
X13882Y7395D01*
X13873Y7388D01*
X13866Y7381D01*
X13859Y7373D01*
X13852Y7364D01*
X13847Y7355D01*
X13843Y7345D01*
X13839Y7335D01*
X13837Y7324D01*
X13835Y7314D01*
X13834Y7303D01*
X13882D02*
X13884D01*
X13882D02*
X13883Y7293D01*
X13885Y7284D01*
X13889Y7275D01*
X13894Y7267D01*
X13900Y7259D01*
X13907Y7253D01*
X13915Y7247D01*
X13923Y7243D01*
X13933Y7240D01*
X13942Y7239D01*
X13952D01*
X13961Y7240D01*
X13971Y7243D01*
X13979Y7247D01*
X13987Y7253D01*
X13994Y7259D01*
X14000Y7267D01*
X14005Y7275D01*
X14009Y7284D01*
X14011Y7293D01*
X14012Y7303D01*
X14012D01*
X14012D02*
X14011Y7313D01*
X14009Y7322D01*
X14005Y7331D01*
X14000Y7339D01*
X13994Y7347D01*
X13987Y7353D01*
X13979Y7359D01*
X13971Y7363D01*
X13961Y7366D01*
X13952Y7367D01*
X13942D01*
X13933Y7366D01*
X13923Y7363D01*
X13915Y7359D01*
X13907Y7353D01*
X13900Y7347D01*
X13894Y7339D01*
X13889Y7331D01*
X13885Y7322D01*
X13883Y7313D01*
X13882Y7303D01*
X13930D02*
X13932D01*
X13930D02*
X13931Y7297D01*
X13934Y7292D01*
X13939Y7289D01*
X13944Y7287D01*
X13950D01*
X13955Y7289D01*
X13960Y7292D01*
X13963Y7297D01*
X13964Y7303D01*
X13964D01*
X13964D02*
X13963Y7309D01*
X13960Y7314D01*
X13955Y7317D01*
X13950Y7319D01*
X13944D01*
X13939Y7317D01*
X13934Y7314D01*
X13931Y7309D01*
X13930Y7303D01*
X9740Y8720D02*
X9742D01*
X9740D02*
X9741Y8709D01*
X9743Y8699D01*
X9745Y8688D01*
X9749Y8678D01*
X9753Y8668D01*
X9758Y8659D01*
X9765Y8650D01*
X9772Y8642D01*
X9779Y8635D01*
X9788Y8628D01*
X9797Y8623D01*
X9806Y8618D01*
X9816Y8614D01*
X9826Y8611D01*
X9837Y8609D01*
X9848Y8608D01*
X9858D01*
X9869Y8609D01*
X9880Y8611D01*
X9890Y8614D01*
X9900Y8618D01*
X9909Y8623D01*
X9918Y8628D01*
X9927Y8635D01*
X9934Y8642D01*
X9941Y8650D01*
X9948Y8659D01*
X9953Y8668D01*
X9957Y8678D01*
X9961Y8688D01*
X9963Y8699D01*
X9965Y8709D01*
X9966Y8720D01*
X9966D01*
X9966D02*
X9965Y8731D01*
X9963Y8741D01*
X9961Y8752D01*
X9957Y8762D01*
X9953Y8772D01*
X9948Y8781D01*
X9941Y8790D01*
X9934Y8798D01*
X9927Y8805D01*
X9918Y8812D01*
X9909Y8817D01*
X9900Y8822D01*
X9890Y8826D01*
X9880Y8829D01*
X9869Y8831D01*
X9858Y8832D01*
X9848D01*
X9837Y8831D01*
X9826Y8829D01*
X9816Y8826D01*
X9806Y8822D01*
X9797Y8817D01*
X9788Y8812D01*
X9779Y8805D01*
X9772Y8798D01*
X9765Y8790D01*
X9758Y8781D01*
X9753Y8772D01*
X9749Y8762D01*
X9745Y8752D01*
X9743Y8741D01*
X9741Y8731D01*
X9740Y8720D01*
X9788D02*
X9790D01*
X9788D02*
X9789Y8710D01*
X9791Y8701D01*
X9795Y8692D01*
X9800Y8684D01*
X9806Y8676D01*
X9813Y8670D01*
X9821Y8664D01*
X9829Y8660D01*
X9839Y8657D01*
X9848Y8656D01*
X9858D01*
X9867Y8657D01*
X9877Y8660D01*
X9885Y8664D01*
X9893Y8670D01*
X9900Y8676D01*
X9906Y8684D01*
X9911Y8692D01*
X9915Y8701D01*
X9917Y8710D01*
X9918Y8720D01*
X9918D01*
X9918D02*
X9917Y8730D01*
X9915Y8739D01*
X9911Y8748D01*
X9906Y8756D01*
X9900Y8764D01*
X9893Y8770D01*
X9885Y8776D01*
X9877Y8780D01*
X9867Y8783D01*
X9858Y8784D01*
X9848D01*
X9839Y8783D01*
X9829Y8780D01*
X9821Y8776D01*
X9813Y8770D01*
X9806Y8764D01*
X9800Y8756D01*
X9795Y8748D01*
X9791Y8739D01*
X9789Y8730D01*
X9788Y8720D01*
X9836D02*
X9838D01*
X9836D02*
X9837Y8714D01*
X9840Y8709D01*
X9845Y8706D01*
X9850Y8704D01*
X9856D01*
X9861Y8706D01*
X9866Y8709D01*
X9869Y8714D01*
X9870Y8720D01*
X9870D01*
X9870D02*
X9869Y8726D01*
X9866Y8731D01*
X9861Y8734D01*
X9856Y8736D01*
X9850D01*
X9845Y8734D01*
X9840Y8731D01*
X9837Y8726D01*
X9836Y8720D01*
X9740Y7303D02*
X9742D01*
X9740D02*
X9741Y7292D01*
X9743Y7282D01*
X9745Y7271D01*
X9749Y7261D01*
X9753Y7251D01*
X9758Y7242D01*
X9765Y7233D01*
X9772Y7225D01*
X9779Y7218D01*
X9788Y7211D01*
X9797Y7206D01*
X9806Y7201D01*
X9816Y7197D01*
X9826Y7194D01*
X9837Y7192D01*
X9848Y7191D01*
X9858D01*
X9869Y7192D01*
X9880Y7194D01*
X9890Y7197D01*
X9900Y7201D01*
X9909Y7206D01*
X9918Y7211D01*
X9927Y7218D01*
X9934Y7225D01*
X9941Y7233D01*
X9948Y7242D01*
X9953Y7251D01*
X9957Y7261D01*
X9961Y7271D01*
X9963Y7282D01*
X9965Y7292D01*
X9966Y7303D01*
X9966D01*
X9966D02*
X9965Y7314D01*
X9963Y7324D01*
X9961Y7335D01*
X9957Y7345D01*
X9953Y7355D01*
X9948Y7364D01*
X9941Y7373D01*
X9934Y7381D01*
X9927Y7388D01*
X9918Y7395D01*
X9909Y7400D01*
X9900Y7405D01*
X9890Y7409D01*
X9880Y7412D01*
X9869Y7414D01*
X9858Y7415D01*
X9848D01*
X9837Y7414D01*
X9826Y7412D01*
X9816Y7409D01*
X9806Y7405D01*
X9797Y7400D01*
X9788Y7395D01*
X9779Y7388D01*
X9772Y7381D01*
X9765Y7373D01*
X9758Y7364D01*
X9753Y7355D01*
X9749Y7345D01*
X9745Y7335D01*
X9743Y7324D01*
X9741Y7314D01*
X9740Y7303D01*
X9788D02*
X9790D01*
X9788D02*
X9789Y7293D01*
X9791Y7284D01*
X9795Y7275D01*
X9800Y7267D01*
X9806Y7259D01*
X9813Y7253D01*
X9821Y7247D01*
X9829Y7243D01*
X9839Y7240D01*
X9848Y7239D01*
X9858D01*
X9867Y7240D01*
X9877Y7243D01*
X9885Y7247D01*
X9893Y7253D01*
X9900Y7259D01*
X9906Y7267D01*
X9911Y7275D01*
X9915Y7284D01*
X9917Y7293D01*
X9918Y7303D01*
X9918D01*
X9918D02*
X9917Y7313D01*
X9915Y7322D01*
X9911Y7331D01*
X9906Y7339D01*
X9900Y7347D01*
X9893Y7353D01*
X9885Y7359D01*
X9877Y7363D01*
X9867Y7366D01*
X9858Y7367D01*
X9848D01*
X9839Y7366D01*
X9829Y7363D01*
X9821Y7359D01*
X9813Y7353D01*
X9806Y7347D01*
X9800Y7339D01*
X9795Y7331D01*
X9791Y7322D01*
X9789Y7313D01*
X9788Y7303D01*
X9836D02*
X9838D01*
X9836D02*
X9837Y7297D01*
X9840Y7292D01*
X9845Y7289D01*
X9850Y7287D01*
X9856D01*
X9861Y7289D01*
X9866Y7292D01*
X9869Y7297D01*
X9870Y7303D01*
X9870D01*
X9870D02*
X9869Y7309D01*
X9866Y7314D01*
X9861Y7317D01*
X9856Y7319D01*
X9850D01*
X9845Y7317D01*
X9840Y7314D01*
X9837Y7309D01*
X9836Y7303D01*
X7318Y8720D02*
X7320D01*
X7318D02*
X7319Y8709D01*
X7321Y8699D01*
X7323Y8688D01*
X7327Y8678D01*
X7331Y8668D01*
X7336Y8659D01*
X7343Y8650D01*
X7350Y8642D01*
X7357Y8635D01*
X7366Y8628D01*
X7375Y8623D01*
X7384Y8618D01*
X7394Y8614D01*
X7404Y8611D01*
X7415Y8609D01*
X7426Y8608D01*
X7436D01*
X7447Y8609D01*
X7458Y8611D01*
X7468Y8614D01*
X7478Y8618D01*
X7487Y8623D01*
X7496Y8628D01*
X7505Y8635D01*
X7512Y8642D01*
X7519Y8650D01*
X7526Y8659D01*
X7531Y8668D01*
X7535Y8678D01*
X7539Y8688D01*
X7541Y8699D01*
X7543Y8709D01*
X7544Y8720D01*
X7544D01*
X7544D02*
X7543Y8731D01*
X7541Y8741D01*
X7539Y8752D01*
X7535Y8762D01*
X7531Y8772D01*
X7526Y8781D01*
X7519Y8790D01*
X7512Y8798D01*
X7505Y8805D01*
X7496Y8812D01*
X7487Y8817D01*
X7478Y8822D01*
X7468Y8826D01*
X7458Y8829D01*
X7447Y8831D01*
X7436Y8832D01*
X7426D01*
X7415Y8831D01*
X7404Y8829D01*
X7394Y8826D01*
X7384Y8822D01*
X7375Y8817D01*
X7366Y8812D01*
X7357Y8805D01*
X7350Y8798D01*
X7343Y8790D01*
X7336Y8781D01*
X7331Y8772D01*
X7327Y8762D01*
X7323Y8752D01*
X7321Y8741D01*
X7319Y8731D01*
X7318Y8720D01*
X7366D02*
X7368D01*
X7366D02*
X7367Y8710D01*
X7369Y8701D01*
X7373Y8692D01*
X7378Y8684D01*
X7384Y8676D01*
X7391Y8670D01*
X7399Y8664D01*
X7407Y8660D01*
X7417Y8657D01*
X7426Y8656D01*
X7436D01*
X7445Y8657D01*
X7455Y8660D01*
X7463Y8664D01*
X7471Y8670D01*
X7478Y8676D01*
X7484Y8684D01*
X7489Y8692D01*
X7493Y8701D01*
X7495Y8710D01*
X7496Y8720D01*
X7496D01*
X7496D02*
X7495Y8730D01*
X7493Y8739D01*
X7489Y8748D01*
X7484Y8756D01*
X7478Y8764D01*
X7471Y8770D01*
X7463Y8776D01*
X7455Y8780D01*
X7445Y8783D01*
X7436Y8784D01*
X7426D01*
X7417Y8783D01*
X7407Y8780D01*
X7399Y8776D01*
X7391Y8770D01*
X7384Y8764D01*
X7378Y8756D01*
X7373Y8748D01*
X7369Y8739D01*
X7367Y8730D01*
X7366Y8720D01*
X7414D02*
X7416D01*
X7414D02*
X7415Y8714D01*
X7418Y8709D01*
X7423Y8706D01*
X7428Y8704D01*
X7434D01*
X7439Y8706D01*
X7444Y8709D01*
X7447Y8714D01*
X7448Y8720D01*
X7448D01*
X7448D02*
X7447Y8726D01*
X7444Y8731D01*
X7439Y8734D01*
X7434Y8736D01*
X7428D01*
X7423Y8734D01*
X7418Y8731D01*
X7415Y8726D01*
X7414Y8720D01*
X7318Y7303D02*
X7320D01*
X7318D02*
X7319Y7292D01*
X7321Y7282D01*
X7323Y7271D01*
X7327Y7261D01*
X7331Y7251D01*
X7336Y7242D01*
X7343Y7233D01*
X7350Y7225D01*
X7357Y7218D01*
X7366Y7211D01*
X7375Y7206D01*
X7384Y7201D01*
X7394Y7197D01*
X7404Y7194D01*
X7415Y7192D01*
X7426Y7191D01*
X7436D01*
X7447Y7192D01*
X7458Y7194D01*
X7468Y7197D01*
X7478Y7201D01*
X7487Y7206D01*
X7496Y7211D01*
X7505Y7218D01*
X7512Y7225D01*
X7519Y7233D01*
X7526Y7242D01*
X7531Y7251D01*
X7535Y7261D01*
X7539Y7271D01*
X7541Y7282D01*
X7543Y7292D01*
X7544Y7303D01*
X7544D01*
X7544D02*
X7543Y7314D01*
X7541Y7324D01*
X7539Y7335D01*
X7535Y7345D01*
X7531Y7355D01*
X7526Y7364D01*
X7519Y7373D01*
X7512Y7381D01*
X7505Y7388D01*
X7496Y7395D01*
X7487Y7400D01*
X7478Y7405D01*
X7468Y7409D01*
X7458Y7412D01*
X7447Y7414D01*
X7436Y7415D01*
X7426D01*
X7415Y7414D01*
X7404Y7412D01*
X7394Y7409D01*
X7384Y7405D01*
X7375Y7400D01*
X7366Y7395D01*
X7357Y7388D01*
X7350Y7381D01*
X7343Y7373D01*
X7336Y7364D01*
X7331Y7355D01*
X7327Y7345D01*
X7323Y7335D01*
X7321Y7324D01*
X7319Y7314D01*
X7318Y7303D01*
X7366D02*
X7368D01*
X7366D02*
X7367Y7293D01*
X7369Y7284D01*
X7373Y7275D01*
X7378Y7267D01*
X7384Y7259D01*
X7391Y7253D01*
X7399Y7247D01*
X7407Y7243D01*
X7417Y7240D01*
X7426Y7239D01*
X7436D01*
X7445Y7240D01*
X7455Y7243D01*
X7463Y7247D01*
X7471Y7253D01*
X7478Y7259D01*
X7484Y7267D01*
X7489Y7275D01*
X7493Y7284D01*
X7495Y7293D01*
X7496Y7303D01*
X7496D01*
X7496D02*
X7495Y7313D01*
X7493Y7322D01*
X7489Y7331D01*
X7484Y7339D01*
X7478Y7347D01*
X7471Y7353D01*
X7463Y7359D01*
X7455Y7363D01*
X7445Y7366D01*
X7436Y7367D01*
X7426D01*
X7417Y7366D01*
X7407Y7363D01*
X7399Y7359D01*
X7391Y7353D01*
X7384Y7347D01*
X7378Y7339D01*
X7373Y7331D01*
X7369Y7322D01*
X7367Y7313D01*
X7366Y7303D01*
X7414D02*
X7416D01*
X7414D02*
X7415Y7297D01*
X7418Y7292D01*
X7423Y7289D01*
X7428Y7287D01*
X7434D01*
X7439Y7289D01*
X7444Y7292D01*
X7447Y7297D01*
X7448Y7303D01*
X7448D01*
X7448D02*
X7447Y7309D01*
X7444Y7314D01*
X7439Y7317D01*
X7434Y7319D01*
X7428D01*
X7423Y7317D01*
X7418Y7314D01*
X7415Y7309D01*
X7414Y7303D01*
X4170Y8720D02*
X4170D01*
X4170D02*
X4170Y8709D01*
X4172Y8699D01*
X4174Y8688D01*
X4178Y8678D01*
X4182Y8668D01*
X4187Y8659D01*
X4194Y8650D01*
X4201Y8642D01*
X4208Y8635D01*
X4217Y8628D01*
X4226Y8623D01*
X4235Y8618D01*
X4245Y8614D01*
X4255Y8611D01*
X4266Y8609D01*
X4277Y8608D01*
X4287D01*
X4298Y8609D01*
X4309Y8611D01*
X4319Y8614D01*
X4329Y8618D01*
X4338Y8623D01*
X4347Y8628D01*
X4356Y8635D01*
X4363Y8642D01*
X4370Y8650D01*
X4377Y8659D01*
X4382Y8668D01*
X4386Y8678D01*
X4390Y8688D01*
X4392Y8699D01*
X4394Y8709D01*
X4394Y8720D01*
X4396D01*
X4394D02*
X4394Y8731D01*
X4392Y8741D01*
X4390Y8752D01*
X4386Y8762D01*
X4382Y8772D01*
X4377Y8781D01*
X4370Y8790D01*
X4363Y8798D01*
X4356Y8805D01*
X4347Y8812D01*
X4338Y8817D01*
X4329Y8822D01*
X4319Y8826D01*
X4309Y8829D01*
X4298Y8831D01*
X4287Y8832D01*
X4277D01*
X4266Y8831D01*
X4255Y8829D01*
X4245Y8826D01*
X4235Y8822D01*
X4226Y8817D01*
X4217Y8812D01*
X4208Y8805D01*
X4201Y8798D01*
X4194Y8790D01*
X4187Y8781D01*
X4182Y8772D01*
X4178Y8762D01*
X4174Y8752D01*
X4172Y8741D01*
X4170Y8731D01*
X4170Y8720D01*
X4218D02*
X4218D01*
X4218D02*
X4218Y8710D01*
X4220Y8701D01*
X4224Y8692D01*
X4229Y8684D01*
X4235Y8676D01*
X4242Y8670D01*
X4250Y8664D01*
X4258Y8660D01*
X4268Y8657D01*
X4277Y8656D01*
X4287D01*
X4296Y8657D01*
X4306Y8660D01*
X4314Y8664D01*
X4322Y8670D01*
X4329Y8676D01*
X4335Y8684D01*
X4340Y8692D01*
X4344Y8701D01*
X4346Y8710D01*
X4346Y8720D01*
X4348D01*
X4346D02*
X4346Y8730D01*
X4344Y8739D01*
X4340Y8748D01*
X4335Y8756D01*
X4329Y8764D01*
X4322Y8770D01*
X4314Y8776D01*
X4306Y8780D01*
X4296Y8783D01*
X4287Y8784D01*
X4277D01*
X4268Y8783D01*
X4258Y8780D01*
X4250Y8776D01*
X4242Y8770D01*
X4235Y8764D01*
X4229Y8756D01*
X4224Y8748D01*
X4220Y8739D01*
X4218Y8730D01*
X4218Y8720D01*
X4266D02*
X4266D01*
X4266D02*
X4266Y8714D01*
X4269Y8709D01*
X4274Y8706D01*
X4279Y8704D01*
X4285D01*
X4290Y8706D01*
X4295Y8709D01*
X4298Y8714D01*
X4298Y8720D01*
X4300D01*
X4298D02*
X4298Y8726D01*
X4295Y8731D01*
X4290Y8734D01*
X4285Y8736D01*
X4279D01*
X4274Y8734D01*
X4269Y8731D01*
X4266Y8726D01*
X4266Y8720D01*
X4170Y7303D02*
X4170D01*
X4170D02*
X4170Y7292D01*
X4172Y7282D01*
X4174Y7271D01*
X4178Y7261D01*
X4182Y7251D01*
X4187Y7242D01*
X4194Y7233D01*
X4201Y7225D01*
X4208Y7218D01*
X4217Y7211D01*
X4226Y7206D01*
X4235Y7201D01*
X4245Y7197D01*
X4255Y7194D01*
X4266Y7192D01*
X4277Y7191D01*
X4287D01*
X4298Y7192D01*
X4309Y7194D01*
X4319Y7197D01*
X4329Y7201D01*
X4338Y7206D01*
X4347Y7211D01*
X4356Y7218D01*
X4363Y7225D01*
X4370Y7233D01*
X4377Y7242D01*
X4382Y7251D01*
X4386Y7261D01*
X4390Y7271D01*
X4392Y7282D01*
X4394Y7292D01*
X4394Y7303D01*
X4396D01*
X4394D02*
X4394Y7314D01*
X4392Y7324D01*
X4390Y7335D01*
X4386Y7345D01*
X4382Y7355D01*
X4377Y7364D01*
X4370Y7373D01*
X4363Y7381D01*
X4356Y7388D01*
X4347Y7395D01*
X4338Y7400D01*
X4329Y7405D01*
X4319Y7409D01*
X4309Y7412D01*
X4298Y7414D01*
X4287Y7415D01*
X4277D01*
X4266Y7414D01*
X4255Y7412D01*
X4245Y7409D01*
X4235Y7405D01*
X4226Y7400D01*
X4217Y7395D01*
X4208Y7388D01*
X4201Y7381D01*
X4194Y7373D01*
X4187Y7364D01*
X4182Y7355D01*
X4178Y7345D01*
X4174Y7335D01*
X4172Y7324D01*
X4170Y7314D01*
X4170Y7303D01*
X4218D02*
X4218D01*
X4218D02*
X4218Y7293D01*
X4220Y7284D01*
X4224Y7275D01*
X4229Y7267D01*
X4235Y7259D01*
X4242Y7253D01*
X4250Y7247D01*
X4258Y7243D01*
X4268Y7240D01*
X4277Y7239D01*
X4287D01*
X4296Y7240D01*
X4306Y7243D01*
X4314Y7247D01*
X4322Y7253D01*
X4329Y7259D01*
X4335Y7267D01*
X4340Y7275D01*
X4344Y7284D01*
X4346Y7293D01*
X4346Y7303D01*
X4348D01*
X4346D02*
X4346Y7313D01*
X4344Y7322D01*
X4340Y7331D01*
X4335Y7339D01*
X4329Y7347D01*
X4322Y7353D01*
X4314Y7359D01*
X4306Y7363D01*
X4296Y7366D01*
X4287Y7367D01*
X4277D01*
X4268Y7366D01*
X4258Y7363D01*
X4250Y7359D01*
X4242Y7353D01*
X4235Y7347D01*
X4229Y7339D01*
X4224Y7331D01*
X4220Y7322D01*
X4218Y7313D01*
X4218Y7303D01*
X4266D02*
X4266D01*
X4266D02*
X4266Y7297D01*
X4269Y7292D01*
X4274Y7289D01*
X4279Y7287D01*
X4285D01*
X4290Y7289D01*
X4295Y7292D01*
X4298Y7297D01*
X4298Y7303D01*
X4300D01*
X4298D02*
X4298Y7309D01*
X4295Y7314D01*
X4290Y7317D01*
X4285Y7319D01*
X4279D01*
X4274Y7317D01*
X4269Y7314D01*
X4266Y7309D01*
X4266Y7303D01*
D32*
X11285Y9139D02*
D03*
X10885D02*
D03*
X11835Y9239D02*
D03*
X11785Y9139D02*
D03*
X11735Y9239D02*
D03*
X11685Y9139D02*
D03*
X11635Y9239D02*
D03*
X11585Y9139D02*
D03*
X11535Y9239D02*
D03*
X11485Y9139D02*
D03*
X11435Y9239D02*
D03*
X11385Y9139D02*
D03*
X11335Y9239D02*
D03*
X11235D02*
D03*
X11185Y9139D02*
D03*
X11135Y9239D02*
D03*
X11085Y9139D02*
D03*
X11035Y9239D02*
D03*
X10985Y9139D02*
D03*
X10935Y9239D02*
D03*
X10095Y9139D02*
D03*
X9695D02*
D03*
X10645Y9239D02*
D03*
X10595Y9139D02*
D03*
X10545Y9239D02*
D03*
X10495Y9139D02*
D03*
X10445Y9239D02*
D03*
X10395Y9139D02*
D03*
X10345Y9239D02*
D03*
X10295Y9139D02*
D03*
X10245Y9239D02*
D03*
X10195Y9139D02*
D03*
X10145Y9239D02*
D03*
X10045D02*
D03*
X9995Y9139D02*
D03*
X9945Y9239D02*
D03*
X9895Y9139D02*
D03*
X9845Y9239D02*
D03*
X9795Y9139D02*
D03*
X9745Y9239D02*
D03*
X8835Y7454D02*
D03*
X9035D02*
D03*
X4332Y7961D02*
D03*
Y7561D02*
D03*
X4232Y8511D02*
D03*
X4332Y8461D02*
D03*
X4232Y8411D02*
D03*
X4332Y8361D02*
D03*
X4232Y8311D02*
D03*
X4332Y8261D02*
D03*
X4232Y8211D02*
D03*
X4332Y8161D02*
D03*
X4232Y8111D02*
D03*
X4332Y8061D02*
D03*
X4232Y8011D02*
D03*
Y7911D02*
D03*
X4332Y7861D02*
D03*
X4232Y7811D02*
D03*
X4332Y7761D02*
D03*
X4232Y7711D02*
D03*
X4332Y7661D02*
D03*
X4232Y7611D02*
D03*
D33*
X10575Y7009D02*
D03*
X10665D02*
D03*
X10485D02*
D03*
D36*
X11396Y6784D02*
D03*
X11296D02*
D03*
X11196D02*
D03*
X11096D02*
D03*
X10996D02*
D03*
X10896D02*
D03*
X8670D02*
D03*
X8770D02*
D03*
X8870D02*
D03*
X8970D02*
D03*
X9070D02*
D03*
X9170D02*
D03*
D37*
X14865Y8459D02*
D03*
Y9169D02*
D03*
Y7754D02*
D03*
Y7049D02*
D03*
X13405Y8304D02*
D03*
Y7819D02*
D03*
X13400Y8814D02*
D03*
X13405Y7309D02*
D03*
X9675Y7429D02*
D03*
D39*
X15389Y7758D02*
D03*
Y7658D02*
D03*
Y9175D02*
D03*
Y9075D02*
D03*
X15390Y8366D02*
D03*
Y8466D02*
D03*
X15388Y6947D02*
D03*
Y7047D02*
D03*
D42*
X15588Y6948D02*
D03*
X10829Y9211D02*
D03*
X9639D02*
D03*
X4260Y7505D02*
D03*
D45*
X15687Y7047D02*
D03*
X15489D02*
D03*
Y6849D02*
D03*
X15687D02*
D03*
D51*
X15589Y9275D02*
D03*
D53*
Y7458D02*
D03*
Y7858D02*
D03*
Y8875D02*
D03*
X15590Y8566D02*
D03*
Y8166D02*
D03*
X15588Y7147D02*
D03*
Y6747D02*
D03*
D58*
X11951Y6903D02*
D03*
Y6769D02*
D03*
X11931D02*
D03*
X11991D02*
D03*
X11971D02*
D03*
Y6903D02*
D03*
X11931D02*
D03*
X12483D02*
D03*
X12522D02*
D03*
Y6769D02*
D03*
X12542D02*
D03*
X12483D02*
D03*
X12502D02*
D03*
Y6903D02*
D03*
D59*
X12441Y8620D02*
D03*
X12421D02*
D03*
X12402D02*
D03*
X12382D02*
D03*
X12362D02*
D03*
X12343D02*
D03*
X12323D02*
D03*
X12303D02*
D03*
X12284D02*
D03*
X12264D02*
D03*
X12244D02*
D03*
X12224D02*
D03*
X12441Y8975D02*
D03*
X12224D02*
D03*
X12244D02*
D03*
X12264D02*
D03*
X12284D02*
D03*
X12303D02*
D03*
X12323D02*
D03*
X12343D02*
D03*
X12362D02*
D03*
X12382D02*
D03*
X12402D02*
D03*
X12421D02*
D03*
D60*
X11350Y8599D02*
D03*
X11330D02*
D03*
X11311D02*
D03*
X11291D02*
D03*
X11271D02*
D03*
X11252D02*
D03*
X11232D02*
D03*
X11212D02*
D03*
X11192D02*
D03*
X11173D02*
D03*
X11153D02*
D03*
X11134D02*
D03*
X11114D02*
D03*
X11094D02*
D03*
X11074D02*
D03*
X11055D02*
D03*
X11035D02*
D03*
X11015D02*
D03*
X10996D02*
D03*
X10976D02*
D03*
X10956D02*
D03*
X10937D02*
D03*
X10917D02*
D03*
X10897D02*
D03*
X10878D02*
D03*
X10858D02*
D03*
X10838D02*
D03*
X10818D02*
D03*
X10799D02*
D03*
X10779D02*
D03*
X10759D02*
D03*
X10740D02*
D03*
X10720D02*
D03*
X10700D02*
D03*
X10681D02*
D03*
X10661D02*
D03*
X10641D02*
D03*
X10622D02*
D03*
X10602D02*
D03*
X10582D02*
D03*
X10563D02*
D03*
X10543D02*
D03*
X10523D02*
D03*
X10504D02*
D03*
X10484D02*
D03*
X10464D02*
D03*
X10444D02*
D03*
X10425D02*
D03*
X10405D02*
D03*
X10385D02*
D03*
X10366D02*
D03*
X10346D02*
D03*
X11350Y7423D02*
D03*
X10346D02*
D03*
X10366D02*
D03*
X10385D02*
D03*
X10405D02*
D03*
X10425D02*
D03*
X10444D02*
D03*
X10464D02*
D03*
X10484D02*
D03*
X10504D02*
D03*
X10523D02*
D03*
X10543D02*
D03*
X10563D02*
D03*
X10582D02*
D03*
X10602D02*
D03*
X10622D02*
D03*
X10641D02*
D03*
X10661D02*
D03*
X10681D02*
D03*
X10700D02*
D03*
X10720D02*
D03*
X10740D02*
D03*
X10759D02*
D03*
X10779D02*
D03*
X10799D02*
D03*
X10818D02*
D03*
X10838D02*
D03*
X10858D02*
D03*
X10878D02*
D03*
X10897D02*
D03*
X10917D02*
D03*
X10937D02*
D03*
X10956D02*
D03*
X10976D02*
D03*
X10996D02*
D03*
X11015D02*
D03*
X11035D02*
D03*
X11055D02*
D03*
X11074D02*
D03*
X11094D02*
D03*
X11114D02*
D03*
X11134D02*
D03*
X11153D02*
D03*
X11173D02*
D03*
X11192D02*
D03*
X11212D02*
D03*
X11232D02*
D03*
X11252D02*
D03*
X11271D02*
D03*
X11291D02*
D03*
X11311D02*
D03*
X11330D02*
D03*
D63*
X9105Y7294D02*
D03*
X9073D02*
D03*
X9042D02*
D03*
X9010D02*
D03*
X8979D02*
D03*
X8947D02*
D03*
X8916D02*
D03*
X8884D02*
D03*
X8887Y6959D02*
D03*
X8919D02*
D03*
X8950D02*
D03*
X8982D02*
D03*
X9013D02*
D03*
X9045D02*
D03*
X9076D02*
D03*
X9108D02*
D03*
D65*
X8920Y8614D02*
D03*
X8946D02*
D03*
X8971D02*
D03*
X8997D02*
D03*
X9022D02*
D03*
X9048D02*
D03*
X9074D02*
D03*
X9099D02*
D03*
Y8866D02*
D03*
X9074D02*
D03*
X9048D02*
D03*
X9022D02*
D03*
X8997D02*
D03*
X8971D02*
D03*
X8946D02*
D03*
X8920D02*
D03*
Y8109D02*
D03*
X8946D02*
D03*
X8971D02*
D03*
X8997D02*
D03*
X9022D02*
D03*
X9048D02*
D03*
X9074D02*
D03*
X9099D02*
D03*
Y8361D02*
D03*
X9074D02*
D03*
X9048D02*
D03*
X9022D02*
D03*
X8997D02*
D03*
X8971D02*
D03*
X8946D02*
D03*
X8920D02*
D03*
D68*
X15105Y8853D02*
D03*
X15155Y8629D02*
D03*
X15205D02*
D03*
X15255D02*
D03*
Y8853D02*
D03*
X15205D02*
D03*
X15155D02*
D03*
X15105Y7413D02*
D03*
X15155Y7189D02*
D03*
X15205D02*
D03*
X15255D02*
D03*
Y7413D02*
D03*
X15205D02*
D03*
X15155D02*
D03*
D72*
X13890Y9224D02*
D03*
Y9299D02*
D03*
X13605Y9224D02*
D03*
Y9299D02*
D03*
X13560Y8519D02*
D03*
Y8444D02*
D03*
X13845Y8519D02*
D03*
Y8444D02*
D03*
X13835Y8074D02*
D03*
Y7999D02*
D03*
X13550Y8074D02*
D03*
Y7999D02*
D03*
X13560Y7594D02*
D03*
Y7519D02*
D03*
X13845Y7594D02*
D03*
Y7519D02*
D03*
X10420Y6944D02*
D03*
X10345D02*
D03*
X10720D02*
D03*
X10645D02*
D03*
X10575D02*
D03*
X10500D02*
D03*
D73*
X10382Y6864D02*
D03*
X10682D02*
D03*
X10537D02*
D03*
D77*
X7875Y8524D02*
D03*
X7695D02*
D03*
X7785D02*
D03*
X7165D02*
D03*
X6985D02*
D03*
X7075D02*
D03*
D78*
X11436Y8513D02*
D03*
Y8493D02*
D03*
Y8474D02*
D03*
Y8454D02*
D03*
Y8434D02*
D03*
Y8415D02*
D03*
Y8395D02*
D03*
Y8375D02*
D03*
Y8356D02*
D03*
Y8336D02*
D03*
Y8316D02*
D03*
Y8296D02*
D03*
Y8277D02*
D03*
Y8257D02*
D03*
Y8237D02*
D03*
Y8218D02*
D03*
Y8198D02*
D03*
Y8178D02*
D03*
Y8159D02*
D03*
Y8139D02*
D03*
Y8080D02*
D03*
Y8060D02*
D03*
Y8041D02*
D03*
Y8021D02*
D03*
Y8001D02*
D03*
Y7982D02*
D03*
Y7962D02*
D03*
Y7942D02*
D03*
Y7922D02*
D03*
Y7903D02*
D03*
Y7883D02*
D03*
Y7863D02*
D03*
Y7844D02*
D03*
Y7824D02*
D03*
Y7804D02*
D03*
Y7785D02*
D03*
Y7765D02*
D03*
Y7745D02*
D03*
Y7726D02*
D03*
Y7706D02*
D03*
Y7686D02*
D03*
Y7666D02*
D03*
Y7647D02*
D03*
Y7627D02*
D03*
Y7608D02*
D03*
Y7588D02*
D03*
Y7568D02*
D03*
Y7548D02*
D03*
Y7529D02*
D03*
Y7509D02*
D03*
X10260Y8513D02*
D03*
Y8493D02*
D03*
Y8474D02*
D03*
Y8454D02*
D03*
Y8434D02*
D03*
Y8415D02*
D03*
Y8395D02*
D03*
Y8375D02*
D03*
Y8356D02*
D03*
Y8336D02*
D03*
Y8316D02*
D03*
Y8296D02*
D03*
Y8277D02*
D03*
Y8257D02*
D03*
Y8237D02*
D03*
Y8218D02*
D03*
Y8198D02*
D03*
Y8159D02*
D03*
Y8139D02*
D03*
X11436Y8100D02*
D03*
Y8119D02*
D03*
X10260Y8178D02*
D03*
Y8119D02*
D03*
Y8100D02*
D03*
Y8080D02*
D03*
Y8060D02*
D03*
Y8041D02*
D03*
Y8021D02*
D03*
Y8001D02*
D03*
Y7982D02*
D03*
Y7962D02*
D03*
Y7942D02*
D03*
Y7922D02*
D03*
Y7903D02*
D03*
Y7883D02*
D03*
Y7863D02*
D03*
Y7844D02*
D03*
Y7824D02*
D03*
Y7804D02*
D03*
Y7785D02*
D03*
Y7765D02*
D03*
Y7745D02*
D03*
Y7726D02*
D03*
Y7706D02*
D03*
Y7686D02*
D03*
Y7666D02*
D03*
Y7647D02*
D03*
Y7627D02*
D03*
Y7608D02*
D03*
Y7588D02*
D03*
Y7568D02*
D03*
Y7548D02*
D03*
Y7529D02*
D03*
Y7509D02*
D03*
D80*
X8829Y7235D02*
D03*
Y7204D02*
D03*
Y7172D02*
D03*
Y7141D02*
D03*
Y7109D02*
D03*
Y7078D02*
D03*
Y7046D02*
D03*
Y7015D02*
D03*
X9164Y7017D02*
D03*
Y7048D02*
D03*
Y7080D02*
D03*
Y7111D02*
D03*
Y7143D02*
D03*
Y7174D02*
D03*
Y7206D02*
D03*
Y7237D02*
D03*
D83*
X11036Y7144D02*
D03*
Y7118D02*
D03*
Y7093D02*
D03*
Y7067D02*
D03*
Y7042D02*
D03*
Y7016D02*
D03*
Y6990D02*
D03*
Y6965D02*
D03*
Y6939D02*
D03*
Y6914D02*
D03*
X11241D02*
D03*
Y6939D02*
D03*
Y6965D02*
D03*
Y6990D02*
D03*
Y7016D02*
D03*
Y7042D02*
D03*
Y7067D02*
D03*
Y7093D02*
D03*
Y7118D02*
D03*
Y7144D02*
D03*
D84*
X13970Y9261D02*
D03*
X13685D02*
D03*
X13640Y8481D02*
D03*
X13925D02*
D03*
X13915Y8036D02*
D03*
X13630D02*
D03*
X13640Y7556D02*
D03*
X13925D02*
D03*
D88*
X15165Y8284D02*
D03*
X15255D02*
D03*
Y8359D02*
D03*
X15165D02*
D03*
Y8434D02*
D03*
X15255D02*
D03*
Y9069D02*
D03*
X15165D02*
D03*
X14955Y8949D02*
D03*
X14865D02*
D03*
X15165Y9144D02*
D03*
X15255D02*
D03*
X14950Y8239D02*
D03*
X14860D02*
D03*
X15165Y7729D02*
D03*
X15255D02*
D03*
X15165Y8994D02*
D03*
X15255D02*
D03*
X14865Y6829D02*
D03*
X14955D02*
D03*
X15255Y7654D02*
D03*
X15165D02*
D03*
X14955Y7534D02*
D03*
X14865D02*
D03*
X15255Y6949D02*
D03*
X15165D02*
D03*
Y7024D02*
D03*
X15255D02*
D03*
X15165Y7579D02*
D03*
X15255D02*
D03*
X15165Y6874D02*
D03*
X15255D02*
D03*
X14275Y8184D02*
D03*
X14185D02*
D03*
X13925Y8979D02*
D03*
X13835D02*
D03*
Y9054D02*
D03*
X13925D02*
D03*
X13790Y9129D02*
D03*
X13880D02*
D03*
X13700Y8889D02*
D03*
X13610D02*
D03*
X13075Y8849D02*
D03*
X13165D02*
D03*
X13075Y8774D02*
D03*
X13165D02*
D03*
X13075Y8699D02*
D03*
X13165D02*
D03*
X13075Y8624D02*
D03*
X13165D02*
D03*
X13075Y8549D02*
D03*
X13165D02*
D03*
X13075Y8474D02*
D03*
X13165D02*
D03*
X13075Y8399D02*
D03*
X13165D02*
D03*
X13075Y8324D02*
D03*
X13165D02*
D03*
X13075Y8249D02*
D03*
X13165D02*
D03*
X13075Y8174D02*
D03*
X13165D02*
D03*
X13075Y8099D02*
D03*
X13165D02*
D03*
X13075Y8024D02*
D03*
X13165D02*
D03*
X13075Y7949D02*
D03*
X13165D02*
D03*
X13075Y7874D02*
D03*
X13165D02*
D03*
X13075Y7799D02*
D03*
X13165D02*
D03*
X13405Y7089D02*
D03*
X13495D02*
D03*
X14270Y7264D02*
D03*
X14180D02*
D03*
X14270Y7534D02*
D03*
X14180D02*
D03*
X13075Y7724D02*
D03*
X13165D02*
D03*
X13075Y7649D02*
D03*
X13165D02*
D03*
X13075Y7574D02*
D03*
X13165D02*
D03*
X13075Y7499D02*
D03*
X13165D02*
D03*
X13075Y7424D02*
D03*
X13165D02*
D03*
X13075Y7349D02*
D03*
X13165D02*
D03*
X13075Y7274D02*
D03*
X13165D02*
D03*
X13075Y7199D02*
D03*
X13165D02*
D03*
X13075Y7124D02*
D03*
X13165D02*
D03*
X12920Y9324D02*
D03*
X13010D02*
D03*
X11570Y8584D02*
D03*
X11480D02*
D03*
X11800Y8239D02*
D03*
X11890D02*
D03*
X12355Y8274D02*
D03*
X12445D02*
D03*
X12605Y8274D02*
D03*
X12515D02*
D03*
X12555Y9209D02*
D03*
X12465D02*
D03*
X12920Y9249D02*
D03*
X13010D02*
D03*
X12920Y9174D02*
D03*
X13010D02*
D03*
X12920Y8849D02*
D03*
X13010D02*
D03*
X12920Y8774D02*
D03*
X13010D02*
D03*
X12920Y8624D02*
D03*
X13010D02*
D03*
X12920Y8474D02*
D03*
X13010D02*
D03*
X12920Y8399D02*
D03*
X13010D02*
D03*
Y8549D02*
D03*
X12920D02*
D03*
X13010Y8699D02*
D03*
X12920D02*
D03*
X13010Y8324D02*
D03*
X12920D02*
D03*
Y8249D02*
D03*
X13010D02*
D03*
X12920Y8174D02*
D03*
X13010D02*
D03*
Y8099D02*
D03*
X12920D02*
D03*
Y8024D02*
D03*
X13010D02*
D03*
X12920Y7949D02*
D03*
X13010D02*
D03*
Y7874D02*
D03*
X12920D02*
D03*
Y7799D02*
D03*
X13010D02*
D03*
X11880Y7264D02*
D03*
X11970D02*
D03*
Y7189D02*
D03*
X11880D02*
D03*
X11970Y7114D02*
D03*
X11880D02*
D03*
Y7039D02*
D03*
X11970D02*
D03*
X11800Y7559D02*
D03*
X11890D02*
D03*
X12605Y7694D02*
D03*
X12515D02*
D03*
X12360D02*
D03*
X12450D02*
D03*
X12920Y7724D02*
D03*
X13010D02*
D03*
Y7649D02*
D03*
X12920D02*
D03*
Y7574D02*
D03*
X13010D02*
D03*
X12920Y7499D02*
D03*
X13010D02*
D03*
Y7424D02*
D03*
X12920D02*
D03*
Y7349D02*
D03*
X13010D02*
D03*
X12920Y7274D02*
D03*
X13010D02*
D03*
Y7199D02*
D03*
X12920D02*
D03*
Y7124D02*
D03*
X13010D02*
D03*
X9975Y7554D02*
D03*
X10065D02*
D03*
X11110Y7209D02*
D03*
X11200D02*
D03*
X10930Y6889D02*
D03*
X10840D02*
D03*
X10930Y6964D02*
D03*
X10840D02*
D03*
X10930Y7039D02*
D03*
X10840D02*
D03*
X9340Y8509D02*
D03*
X9250D02*
D03*
X9045Y8964D02*
D03*
X8955D02*
D03*
X9040Y8459D02*
D03*
X8950D02*
D03*
X9258Y8002D02*
D03*
X9168D02*
D03*
X9584Y7985D02*
D03*
X9674D02*
D03*
X8580Y7089D02*
D03*
X8490D02*
D03*
Y7014D02*
D03*
X8580D02*
D03*
X9540Y7359D02*
D03*
X9450D02*
D03*
X8790Y7609D02*
D03*
X8880D02*
D03*
X9080D02*
D03*
X8990D02*
D03*
X7855Y9079D02*
D03*
X7765D02*
D03*
X7145D02*
D03*
X7055D02*
D03*
X5170Y8544D02*
D03*
X5260D02*
D03*
Y8469D02*
D03*
X5170D02*
D03*
Y8229D02*
D03*
X5260D02*
D03*
X5170Y7979D02*
D03*
X5260D02*
D03*
D90*
X12080Y6931D02*
D03*
X12240D02*
D03*
X12080Y6905D02*
D03*
X12240D02*
D03*
X12080Y6880D02*
D03*
X12240D02*
D03*
X12080Y6854D02*
D03*
X12240D02*
D03*
X12080Y6796D02*
D03*
X12240D02*
D03*
X12080Y6770D02*
D03*
X12240D02*
D03*
X12080Y6745D02*
D03*
X12240D02*
D03*
X12080Y6719D02*
D03*
X12240D02*
D03*
X12630Y6931D02*
D03*
X12790D02*
D03*
X12630Y6905D02*
D03*
X12790D02*
D03*
X12630Y6880D02*
D03*
X12790D02*
D03*
X12630Y6854D02*
D03*
X12790D02*
D03*
X12630Y6796D02*
D03*
X12790D02*
D03*
X12630Y6770D02*
D03*
X12790D02*
D03*
X12630Y6745D02*
D03*
X12790D02*
D03*
X12630Y6719D02*
D03*
X12790D02*
D03*
D91*
X8393Y8626D02*
D03*
Y8686D02*
D03*
Y8746D02*
D03*
Y8806D02*
D03*
X7815Y7034D02*
D03*
Y7214D02*
D03*
Y7124D02*
D03*
D93*
X12555Y9304D02*
D03*
X12420D02*
D03*
X9840Y8309D02*
D03*
X9705D02*
D03*
X9840Y8419D02*
D03*
X9705D02*
D03*
X9915Y8979D02*
D03*
X9780D02*
D03*
D95*
X12650Y9092D02*
D03*
Y8953D02*
D03*
X11745Y7353D02*
D03*
Y7214D02*
D03*
X10760Y7115D02*
D03*
Y7254D02*
D03*
X7680Y7193D02*
D03*
Y7054D02*
D03*
X8005Y7503D02*
D03*
Y7364D02*
D03*
D98*
X14786Y7809D02*
D03*
Y7719D02*
D03*
X14787Y8449D02*
D03*
Y8359D02*
D03*
Y8204D02*
D03*
Y8294D02*
D03*
Y8914D02*
D03*
Y9004D02*
D03*
Y9159D02*
D03*
Y9069D02*
D03*
X14970Y8784D02*
D03*
Y8694D02*
D03*
X14895Y8784D02*
D03*
Y8694D02*
D03*
X14786Y6794D02*
D03*
Y6884D02*
D03*
Y7039D02*
D03*
Y6949D02*
D03*
Y7564D02*
D03*
Y7654D02*
D03*
X14875Y7254D02*
D03*
Y7344D02*
D03*
X14950Y7254D02*
D03*
Y7344D02*
D03*
X14040Y9304D02*
D03*
Y9214D02*
D03*
X14225Y8889D02*
D03*
Y8799D02*
D03*
X13405Y8104D02*
D03*
Y8014D02*
D03*
X13830Y9214D02*
D03*
Y9304D02*
D03*
X13755Y9214D02*
D03*
Y9304D02*
D03*
X13710Y8434D02*
D03*
Y8524D02*
D03*
X13785Y8434D02*
D03*
Y8524D02*
D03*
X13995D02*
D03*
Y8434D02*
D03*
X13400Y8609D02*
D03*
Y8519D02*
D03*
X13240Y8704D02*
D03*
Y8614D02*
D03*
X13315D02*
D03*
Y8704D02*
D03*
Y8774D02*
D03*
Y8864D02*
D03*
X13240Y8774D02*
D03*
Y8864D02*
D03*
X13710Y8279D02*
D03*
Y8369D02*
D03*
X13325Y8104D02*
D03*
Y8194D02*
D03*
X13250D02*
D03*
Y8104D02*
D03*
Y8259D02*
D03*
Y8349D02*
D03*
X13325Y8259D02*
D03*
Y8349D02*
D03*
X13710Y7794D02*
D03*
Y7884D02*
D03*
X13325Y7779D02*
D03*
Y7869D02*
D03*
X13250Y7779D02*
D03*
Y7869D02*
D03*
X13985Y8079D02*
D03*
Y7989D02*
D03*
X13775D02*
D03*
Y8079D02*
D03*
X13700Y7989D02*
D03*
Y8079D02*
D03*
X13300Y6884D02*
D03*
Y6974D02*
D03*
X13810Y6984D02*
D03*
Y6894D02*
D03*
X13325Y7619D02*
D03*
Y7709D02*
D03*
X13250D02*
D03*
Y7619D02*
D03*
X13405D02*
D03*
Y7529D02*
D03*
X13325Y7109D02*
D03*
Y7199D02*
D03*
X13250D02*
D03*
Y7109D02*
D03*
Y7264D02*
D03*
Y7354D02*
D03*
X13710Y7284D02*
D03*
Y7374D02*
D03*
X13785Y7509D02*
D03*
Y7599D02*
D03*
X13995Y7509D02*
D03*
Y7599D02*
D03*
X13710Y7509D02*
D03*
Y7599D02*
D03*
X13325Y7264D02*
D03*
Y7354D02*
D03*
X12590Y8554D02*
D03*
Y8644D02*
D03*
X12860Y8934D02*
D03*
Y9024D02*
D03*
X12785Y8934D02*
D03*
Y9024D02*
D03*
X12685Y8774D02*
D03*
Y8864D02*
D03*
X11745Y7124D02*
D03*
Y7034D02*
D03*
X11500Y7304D02*
D03*
Y7394D02*
D03*
X12397Y6764D02*
D03*
Y6854D02*
D03*
X11846Y6758D02*
D03*
Y6848D02*
D03*
X9915Y8329D02*
D03*
Y8239D02*
D03*
Y8399D02*
D03*
Y8489D02*
D03*
X10190Y8279D02*
D03*
Y8189D02*
D03*
X9990Y8979D02*
D03*
Y8889D02*
D03*
X11015Y7279D02*
D03*
Y7189D02*
D03*
X10295Y6794D02*
D03*
Y6704D02*
D03*
X10595Y6794D02*
D03*
Y6704D02*
D03*
X10445Y6794D02*
D03*
Y6704D02*
D03*
X10370D02*
D03*
Y6794D02*
D03*
X10670Y6704D02*
D03*
Y6794D02*
D03*
X10520Y6704D02*
D03*
Y6794D02*
D03*
X9510Y8089D02*
D03*
Y8179D02*
D03*
X8470Y8589D02*
D03*
Y8679D02*
D03*
Y8749D02*
D03*
Y8839D02*
D03*
X8820Y8699D02*
D03*
Y8609D02*
D03*
Y8184D02*
D03*
Y8094D02*
D03*
X8550Y8749D02*
D03*
Y8839D02*
D03*
Y8589D02*
D03*
Y8679D02*
D03*
X9370Y7529D02*
D03*
Y7439D02*
D03*
X9295Y7574D02*
D03*
Y7484D02*
D03*
X8635Y7334D02*
D03*
Y7424D02*
D03*
X8140Y7364D02*
D03*
Y7454D02*
D03*
D102*
X10796Y6784D02*
D03*
X8570D02*
D03*
D103*
X15089Y8409D02*
D03*
Y8359D02*
D03*
Y8309D02*
D03*
X14865D02*
D03*
Y8359D02*
D03*
Y8409D02*
D03*
X15089Y8459D02*
D03*
Y9169D02*
D03*
X14865Y9119D02*
D03*
Y9069D02*
D03*
Y9019D02*
D03*
X15089D02*
D03*
Y9069D02*
D03*
Y9119D02*
D03*
Y7754D02*
D03*
X14865Y7704D02*
D03*
Y7654D02*
D03*
Y7604D02*
D03*
X15089D02*
D03*
Y7654D02*
D03*
Y7704D02*
D03*
Y6999D02*
D03*
Y6949D02*
D03*
Y6899D02*
D03*
X14865D02*
D03*
Y6949D02*
D03*
Y6999D02*
D03*
X15089Y7049D02*
D03*
X13629Y8304D02*
D03*
X13405Y8254D02*
D03*
Y8204D02*
D03*
Y8154D02*
D03*
X13629D02*
D03*
Y8204D02*
D03*
Y8254D02*
D03*
Y7819D02*
D03*
X13405Y7769D02*
D03*
Y7719D02*
D03*
Y7669D02*
D03*
X13629D02*
D03*
Y7719D02*
D03*
Y7769D02*
D03*
X13624Y8814D02*
D03*
X13400Y8764D02*
D03*
Y8714D02*
D03*
Y8664D02*
D03*
X13624D02*
D03*
Y8714D02*
D03*
Y8764D02*
D03*
X13629Y7309D02*
D03*
X13405Y7259D02*
D03*
Y7209D02*
D03*
Y7159D02*
D03*
X13629D02*
D03*
Y7209D02*
D03*
Y7259D02*
D03*
X9451Y7429D02*
D03*
X9675Y7479D02*
D03*
Y7529D02*
D03*
Y7579D02*
D03*
X9451D02*
D03*
Y7529D02*
D03*
Y7479D02*
D03*
D105*
X4713Y7527D02*
D03*
X4713Y7577D02*
D03*
Y7627D02*
D03*
Y7677D02*
D03*
Y7727D02*
D03*
Y7777D02*
D03*
Y7827D02*
D03*
Y7877D02*
D03*
Y7927D02*
D03*
Y7977D02*
D03*
X5088Y7527D02*
D03*
Y7577D02*
D03*
Y7627D02*
D03*
Y7677D02*
D03*
Y7727D02*
D03*
Y7777D02*
D03*
Y7827D02*
D03*
Y7877D02*
D03*
Y7927D02*
D03*
Y7977D02*
D03*
X4713Y8077D02*
D03*
Y8127D02*
D03*
Y8177D02*
D03*
Y8227D02*
D03*
Y8277D02*
D03*
Y8327D02*
D03*
Y8377D02*
D03*
Y8427D02*
D03*
Y8477D02*
D03*
Y8527D02*
D03*
X5088Y8077D02*
D03*
Y8127D02*
D03*
Y8177D02*
D03*
Y8227D02*
D03*
Y8277D02*
D03*
Y8327D02*
D03*
Y8377D02*
D03*
Y8427D02*
D03*
Y8477D02*
D03*
Y8527D02*
D03*
D107*
X4725Y7254D02*
D03*
X4575D02*
D03*
X4725Y7349D02*
D03*
X4575D02*
D03*
D108*
X12512Y8906D02*
D03*
Y8886D02*
D03*
Y8867D02*
D03*
Y8847D02*
D03*
Y8827D02*
D03*
Y8808D02*
D03*
Y8788D02*
D03*
Y8768D02*
D03*
Y8749D02*
D03*
Y8729D02*
D03*
Y8709D02*
D03*
Y8689D02*
D03*
X12155Y8688D02*
D03*
Y8708D02*
D03*
Y8728D02*
D03*
Y8748D02*
D03*
Y8767D02*
D03*
Y8787D02*
D03*
Y8807D02*
D03*
Y8826D02*
D03*
Y8846D02*
D03*
Y8866D02*
D03*
Y8885D02*
D03*
Y8905D02*
D03*
D109*
X9420Y8584D02*
D03*
Y8634D02*
D03*
Y8684D02*
D03*
Y8734D02*
D03*
Y8784D02*
D03*
Y8834D02*
D03*
Y8884D02*
D03*
Y8934D02*
D03*
X9176D02*
D03*
Y8884D02*
D03*
Y8834D02*
D03*
Y8784D02*
D03*
Y8734D02*
D03*
Y8684D02*
D03*
Y8634D02*
D03*
Y8584D02*
D03*
Y8084D02*
D03*
Y8134D02*
D03*
Y8184D02*
D03*
Y8234D02*
D03*
Y8284D02*
D03*
Y8334D02*
D03*
Y8384D02*
D03*
Y8434D02*
D03*
X9420D02*
D03*
Y8384D02*
D03*
Y8334D02*
D03*
Y8284D02*
D03*
Y8234D02*
D03*
Y8184D02*
D03*
Y8134D02*
D03*
Y8084D02*
D03*
D114*
X14374Y9309D02*
D03*
Y9259D02*
D03*
Y9209D02*
D03*
Y9159D02*
D03*
Y9109D02*
D03*
Y9059D02*
D03*
Y9009D02*
D03*
Y8959D02*
D03*
X14130D02*
D03*
Y9009D02*
D03*
Y9059D02*
D03*
Y9109D02*
D03*
Y9159D02*
D03*
Y9209D02*
D03*
Y9259D02*
D03*
Y9309D02*
D03*
X14374Y8604D02*
D03*
Y8554D02*
D03*
Y8504D02*
D03*
Y8454D02*
D03*
Y8404D02*
D03*
Y8354D02*
D03*
Y8304D02*
D03*
Y8254D02*
D03*
X14130D02*
D03*
Y8304D02*
D03*
Y8354D02*
D03*
Y8404D02*
D03*
Y8454D02*
D03*
Y8504D02*
D03*
Y8554D02*
D03*
Y8604D02*
D03*
Y7959D02*
D03*
Y7909D02*
D03*
Y7859D02*
D03*
Y7809D02*
D03*
Y7759D02*
D03*
Y7709D02*
D03*
Y7659D02*
D03*
Y7609D02*
D03*
X14374D02*
D03*
Y7659D02*
D03*
Y7709D02*
D03*
Y7759D02*
D03*
Y7809D02*
D03*
Y7859D02*
D03*
Y7909D02*
D03*
Y7959D02*
D03*
Y7189D02*
D03*
Y7139D02*
D03*
Y7089D02*
D03*
Y7039D02*
D03*
Y6989D02*
D03*
Y6939D02*
D03*
Y6889D02*
D03*
Y6839D02*
D03*
X14130D02*
D03*
Y6889D02*
D03*
Y6939D02*
D03*
Y6989D02*
D03*
Y7039D02*
D03*
Y7089D02*
D03*
Y7139D02*
D03*
Y7189D02*
D03*
D115*
X14475Y9174D02*
D03*
X14700D02*
D03*
X14475Y8619D02*
D03*
X14700D02*
D03*
X14475Y8464D02*
D03*
X14700D02*
D03*
X14475Y7979D02*
D03*
X14700D02*
D03*
X14475Y7824D02*
D03*
X14700D02*
D03*
X14475Y7039D02*
D03*
X14700D02*
D03*
D116*
X12349Y7935D02*
D03*
Y7955D02*
D03*
Y7974D02*
D03*
X12621Y7758D02*
D03*
Y7777D02*
D03*
Y7797D02*
D03*
Y7817D02*
D03*
Y7836D02*
D03*
Y7856D02*
D03*
Y7876D02*
D03*
Y7896D02*
D03*
Y7915D02*
D03*
Y7935D02*
D03*
Y7955D02*
D03*
Y7974D02*
D03*
Y7994D02*
D03*
Y8014D02*
D03*
Y8033D02*
D03*
Y8053D02*
D03*
Y8073D02*
D03*
Y8092D02*
D03*
Y8112D02*
D03*
Y8132D02*
D03*
Y8151D02*
D03*
Y8171D02*
D03*
Y8191D02*
D03*
Y8210D02*
D03*
X12349Y8132D02*
D03*
X12349Y8112D02*
D03*
X12349Y8092D02*
D03*
Y8073D02*
D03*
Y7994D02*
D03*
Y7915D02*
D03*
Y7896D02*
D03*
Y7876D02*
D03*
Y7856D02*
D03*
Y7836D02*
D03*
Y7817D02*
D03*
Y7797D02*
D03*
Y7777D02*
D03*
Y7758D02*
D03*
Y8014D02*
D03*
Y8033D02*
D03*
Y8053D02*
D03*
Y8191D02*
D03*
Y8210D02*
D03*
Y8171D02*
D03*
Y8151D02*
D03*
D120*
X8043Y8486D02*
D03*
X8343D02*
D03*
X8043Y8946D02*
D03*
X8343D02*
D03*
D121*
X12784Y9254D02*
D03*
X12645D02*
D03*
X7716Y8389D02*
D03*
X7855D02*
D03*
X7006D02*
D03*
X7145D02*
D03*
X7716Y8944D02*
D03*
X7855D02*
D03*
X7006D02*
D03*
X7145D02*
D03*
X4841Y7154D02*
D03*
X4980D02*
D03*
X4979Y7349D02*
D03*
X4840D02*
D03*
D123*
X13560Y6989D02*
D03*
Y6854D02*
D03*
X13670Y6989D02*
D03*
Y6854D02*
D03*
X13175Y6884D02*
D03*
Y7019D02*
D03*
X13010D02*
D03*
Y6884D02*
D03*
X10155Y8809D02*
D03*
Y8674D02*
D03*
X10030Y8399D02*
D03*
Y8534D02*
D03*
Y8329D02*
D03*
Y8194D02*
D03*
X10915Y7274D02*
D03*
Y7139D02*
D03*
X8725Y8769D02*
D03*
Y8904D02*
D03*
Y8254D02*
D03*
Y8389D02*
D03*
Y8699D02*
D03*
Y8564D02*
D03*
Y8184D02*
D03*
Y8049D02*
D03*
D124*
X14535Y8984D02*
D03*
X14685Y9034D02*
D03*
Y8934D02*
D03*
X14535Y8274D02*
D03*
X14685Y8324D02*
D03*
Y8224D02*
D03*
X14535Y6849D02*
D03*
X14685Y6899D02*
D03*
Y6799D02*
D03*
X14535Y7634D02*
D03*
X14685Y7684D02*
D03*
Y7584D02*
D03*
X13105Y9024D02*
D03*
X12955Y8974D02*
D03*
Y9074D02*
D03*
D129*
X8201Y8736D02*
Y8696D01*
D131*
X7735Y8709D02*
X7835D01*
Y8719D01*
X7735D01*
Y8709D01*
X7025D02*
X7125D01*
Y8719D01*
X7025D01*
Y8709D01*
X8000Y7074D02*
X8010D01*
Y7174D01*
X8000D01*
Y7074D01*
D02*
M02*
