G04 ================== begin FILE IDENTIFICATION RECORD ==================*
G04 Layout Name:  D:/Dokumenter/PT5300_NTP/PT8640/PCB/Gerber/PT8640.brd*
G04 Film Name:    BOT_ETCH*
G04 File Format:  Gerber RS274X*
G04 File Origin:  16.0-s007*
G04 Origin Date:  Tue May 11 14:34:46 2010*
G04 *
G04 Layer:  VIA CLASS/BOTTOM*
G04 Layer:  PIN/BOTTOM*
G04 Layer:  ETCH/BOTTOM*
G04 *
G04 Offset:    (0.0000 0.0000)*
G04 Mirror:    No*
G04 Mode:      Positive*
G04 Rotation:  0*
G04 FullContactRelief:  No*
G04 UndefLineWidth:     0.0000*
G04 ================== end FILE IDENTIFICATION RECORD ====================*
%FSLAX55Y55*MOMM*%
%IR0*IPPOS*OFA0.00000B0.00000*MIA0B0*SFA1.00000B1.00000*%
%ADD18R,.95X1.4*%
%ADD13C,.8*%
%ADD11C,.55*%
%ADD20R,1.5X1.6*%
%ADD10C,1.*%
%ADD24R,2.7X1.15*%
%ADD16C,1.1*%
%ADD21C,1.4*%
%ADD23C,1.6*%
%ADD22C,2.5*%
%ADD19C,5.2*%
%ADD17R,.9X.9*%
%ADD15C,0.0*%
%ADD14R,.9X.9*%
%ADD12C,3.8*%
%ADD25C,.1*%
%ADD26C,.15*%
%ADD27C,.7*%
G75*
%LPD*%
G75*
G54D10*
X300000Y1800000D03*
X8700000Y4800000D03*
G54D20*
X3665000Y3040000D03*
X3935000D03*
G54D11*
X260000Y4380000D03*
X632500Y1847500D03*
X400000Y2620000D03*
X950000Y2748500D03*
X1050000D03*
X1000000Y2797500D03*
X1100000D03*
X400000Y2780000D03*
X448500Y3650000D03*
X497500Y3800000D03*
X448500Y3750000D03*
X497500Y3700000D03*
X448500Y3850000D03*
X497500Y4300000D03*
X448500Y4250000D03*
X497500Y4200000D03*
X448500Y4150000D03*
X1350000Y2748500D03*
X1200000Y2797500D03*
X1150000Y2748500D03*
X1250000D03*
X1400000Y2797500D03*
X1800000Y4602500D03*
X1850000Y4651500D03*
X1300000Y4602500D03*
X1350000Y4651500D03*
X1750000D03*
X2230000Y1750000D03*
X2410000Y2550000D03*
X2018000Y2150000D03*
X2564550Y2813880D03*
X2510000Y2770000D03*
X2360000Y3050000D03*
X2302500Y3100000D03*
X2460000Y2720000D03*
X2410000Y2670000D03*
X2000000Y2797500D03*
X2626440Y3692930D03*
X2351500Y3750000D03*
X2302500Y3600000D03*
X2351500Y3650000D03*
X2302500Y3700000D03*
X2570710Y3746200D03*
X2450710D03*
X2510710Y3696200D03*
X1900000Y4602500D03*
X1950000Y4651500D03*
X2000000Y4602500D03*
X2620950Y4300000D03*
X2626440Y4200000D03*
X2570500Y4372440D03*
X2450500D03*
X2510500Y4422440D03*
X1960000Y4950000D03*
X2790000Y1750000D03*
X3010000Y2150000D03*
X2920000Y2900000D03*
X2980000Y2850000D03*
X3002230Y3746200D03*
X2950700Y3693170D03*
X2897130Y3743170D03*
X2845360Y3695290D03*
X2792350Y3741010D03*
X2737130Y3693170D03*
X2681300Y3743170D03*
X2678080Y4247270D03*
X3725000Y2273500D03*
X3625000D03*
X3575000Y2322500D03*
X3675000D03*
X3770000Y2900000D03*
X3769640Y2829640D03*
X3825000Y3427500D03*
X3775000Y3476500D03*
X4310000Y3380000D03*
X5580000Y3190000D03*
X5650000Y2880000D03*
X5500000Y3600000D03*
X5440000Y3660000D03*
X6330000Y3050000D03*
X5700000Y2830000D03*
X5770000Y4010000D03*
X6120000D03*
X6902500Y2480000D03*
X6832500D03*
X7050000Y2230000D03*
X7200000D03*
X6680000Y3220000D03*
X7030000D03*
X6787500D03*
X6470000D03*
X6640000Y4700000D03*
Y4450000D03*
X6707500Y4500000D03*
X6710000Y4760000D03*
X7355000Y3155000D03*
X7280000Y3350000D03*
X7950000Y3250000D03*
X7290000Y3700000D03*
Y3840000D03*
X7957500Y4647500D03*
X7632500D03*
X7762500Y4240000D03*
X7827500Y4290000D03*
X7697500Y4292500D03*
X8022500Y3600000D03*
X8087500Y3650000D03*
G54D12*
X435000Y5180000D03*
X2935000D03*
X6066000D03*
X8566000D03*
G54D21*
X4069000Y3790000D03*
X4196000Y4044000D03*
X4323000Y3790000D03*
X4577000D03*
X4831000D03*
X4450000Y4044000D03*
X4704000D03*
X4958000D03*
G54D22*
X3728000Y4374000D03*
X5301000Y4378000D03*
G54D13*
X950000Y3400000D03*
Y3200000D03*
X1200000Y2630000D03*
X1150000Y3400000D03*
Y3200000D03*
X1550000Y3400000D03*
X1350000D03*
X1550000Y3600000D03*
X1350000D03*
G54D14*
X620000Y3890000D03*
Y3750000D03*
X770000Y3890000D03*
Y3750000D03*
X620000Y3600000D03*
Y3460000D03*
X770000Y3600000D03*
Y3460000D03*
X2230000Y2150000D03*
Y2010000D03*
X2030000Y3650000D03*
Y3790000D03*
X2180000Y3650000D03*
Y3790000D03*
X2790000Y2150000D03*
Y2010000D03*
X3130000Y2800000D03*
Y2940000D03*
G54D23*
X4135000Y5169000D03*
X3881000Y5017000D03*
X4892000D03*
X5146000Y5169000D03*
G54D15*
X890000Y5180000D03*
X2480000D03*
X3630000Y1950000D03*
X3942000Y4679000D03*
X5085000D03*
X5830000Y1950000D03*
X6521000Y5180000D03*
X8550000Y1810000D03*
X8111000Y5180000D03*
G54D24*
X5700000Y3360000D03*
Y3685000D03*
X6050000Y3360000D03*
X6400000Y3890000D03*
Y3565000D03*
X6050000Y3685000D03*
X6750000Y3890000D03*
Y3565000D03*
X7100000Y3890000D03*
Y3565000D03*
G54D25*
G01X3468000Y4600000D02*
Y4680000D01*
X3505000Y4622670D01*
X3455000D01*
G54D16*
X1131000Y5400000D03*
X1269000D03*
X1546000D03*
X1823000D03*
X1408000D03*
X1685000D03*
X2100000D03*
X1962000D03*
X2239000D03*
X3995000Y1754000D03*
X3741000D03*
X4122000Y2008000D03*
X3868000D03*
X4757000Y1754000D03*
X4503000D03*
X4249000D03*
X4884000Y2008000D03*
X4630000D03*
X4376000D03*
X6449000Y1754000D03*
X6195000D03*
X5941000D03*
X6322000Y2008000D03*
X6068000D03*
X6957000Y1754000D03*
X6703000D03*
X7084000Y2008000D03*
X6830000D03*
X6576000D03*
X7177000Y5400000D03*
X6900000D03*
X7039000D03*
X6762000D03*
X7731000D03*
X7454000D03*
X7870000D03*
X7593000D03*
X7316000D03*
X8492000Y2556000D03*
X8746000Y2429000D03*
X8492000Y2302000D03*
X8746000Y2175000D03*
X8492000Y2048000D03*
X8746000Y1921000D03*
X8493000Y3326000D03*
X8746000Y3191000D03*
X8492000Y3064000D03*
X8746000Y2937000D03*
X8492000Y2810000D03*
X8746000Y2683000D03*
X8493000Y4088000D03*
X8746000Y3953000D03*
X8493000Y3834000D03*
X8746000Y3699000D03*
X8493000Y3580000D03*
X8746000Y3445000D03*
X8493000Y4342000D03*
X8746000Y4207000D03*
G54D26*
G01X6703000Y1754000D02*
Y2247000D01*
X6573010Y2376990D01*
X401160D01*
X229990Y2548160D01*
Y3029720D01*
X230000Y3029730D01*
Y4143660D01*
X386340Y4300000D01*
X497500D01*
G01X6830000Y2008000D02*
Y2162430D01*
X6585440Y2406990D01*
X413590D01*
X260000Y2560580D01*
Y4102940D01*
X407060Y4250000D01*
X448500D01*
G01X6957000Y1754000D02*
Y2083000D01*
X6603010Y2436990D01*
X426020D01*
X290000Y2573010D01*
Y4062220D01*
X427780Y4200000D01*
X497500D01*
G01X7084000Y2008000D02*
X7082000D01*
X6623010Y2466990D01*
X438450D01*
X320000Y2585440D01*
Y4021500D01*
X448500Y4150000D01*
G01X2410000Y2550000D02*
X1150000D01*
X951500Y2748500D01*
X950000D01*
G01X620000Y3460000D02*
X560000D01*
X448500Y3571500D01*
Y3650000D01*
G01X770000Y3460000D02*
X620000D01*
G01Y3750000D02*
X547500D01*
X497500Y3800000D01*
G01X770000Y3750000D02*
X620000D01*
G01Y3600000D02*
X560000D01*
X497500Y3662500D01*
Y3700000D01*
G01X770000Y3600000D02*
X620000D01*
G01X448500Y3850000D02*
X520000D01*
X560000Y3890000D01*
X620000D01*
G01X770000D02*
X620000D01*
G01X1300000Y2920000D02*
Y2870000D01*
X1350000Y2820000D01*
Y2748500D01*
G01X1300000Y3070000D02*
Y2920000D01*
G01X7377500Y2750000D02*
X7070000D01*
X7030000Y2710000D01*
X6947190D01*
Y2709890D01*
X6947080Y2710000D01*
X2872150D01*
X2872130Y2710020D01*
X2867270D01*
X2397290Y3180000D01*
X2370020D01*
X2370010Y3180010D01*
X2370000Y3180000D01*
X2047560D01*
X2030000Y3162440D01*
Y3162430D01*
X1880000Y3012430D01*
Y2860000D01*
X1710000Y2690000D01*
X1308500D01*
X1250000Y2748500D01*
G01X1440000Y2920000D02*
Y2850000D01*
X1400000Y2810000D01*
Y2797500D01*
G01X1440000Y3070000D02*
Y2920000D01*
G01X1260000Y3940000D02*
Y4562500D01*
X1300000Y4602500D01*
G01X1260000Y3790000D02*
Y3940000D01*
G01X1400000D02*
Y4531780D01*
X1350000Y4581780D01*
Y4651500D01*
G01X1400000Y3790000D02*
Y3940000D01*
G01X3002230Y3746200D02*
Y4224680D01*
X2857080Y4369830D01*
Y4369840D01*
X2456920Y4770000D01*
X1880000D01*
X1800000Y4690000D01*
Y4602500D01*
G01X2950700Y3693170D02*
Y4233780D01*
X2827080Y4357400D01*
Y4357410D01*
X2444490Y4740000D01*
X1920000D01*
X1850000Y4670000D01*
Y4651500D01*
G01X1685000Y5400000D02*
Y5295000D01*
X1980000Y5000000D01*
X1980720D01*
X2010000Y4970720D01*
Y4970000D01*
X2120000Y4860000D01*
X2452430D01*
X3112430Y4200000D01*
X5900000D01*
X5980000Y4120000D01*
Y3900000D01*
G01X2230000Y2010000D02*
Y1750000D01*
G01X2790000Y2150000D02*
X2602500D01*
G01X6832500Y2480000D02*
X6830000D01*
X6810000Y2500000D01*
X2720000D01*
X2719990Y2500010D01*
X2695130D01*
X2525140Y2670000D01*
X2410000D01*
G01X2018000Y2150000D02*
X2128000Y2260000D01*
X2980000D01*
X3060000Y2180000D01*
X3625000D01*
X3675000Y2230000D01*
Y2322500D01*
G01X2230000Y2150000D02*
X2417500D01*
G01X2230000D02*
X2018000D01*
G01X7377500Y2350000D02*
X7232430D01*
X6992550Y2589880D01*
X6897480D01*
X6897360Y2590000D01*
X2822430D01*
X2822420Y2590010D01*
X2732420D01*
X2563670Y2758760D01*
Y2813880D01*
X2564550D01*
G01X2510000Y2770000D02*
Y2769910D01*
X2510090D01*
X2719990Y2560010D01*
X2809990D01*
X2810000Y2560000D01*
X6884930D01*
X6885050Y2559880D01*
X6980120D01*
X7290000Y2250000D01*
X7727500D01*
G01Y2450000D02*
X7174860D01*
X7004980Y2619880D01*
X6909910D01*
X6909790Y2620000D01*
X2830000D01*
X2400000Y3050000D01*
X2360000D01*
G01X2302500Y3100000D02*
X2392430D01*
X2842430Y2650000D01*
X6922220D01*
X6922340Y2649880D01*
X7017410D01*
X7117290Y2550000D01*
X7377500D01*
G01X2460000Y2720000D02*
X2517570D01*
X2707560Y2530010D01*
X2749990D01*
X2750000Y2530000D01*
X6872500D01*
X6902500Y2500000D01*
Y2480000D01*
G01X2000000Y2797500D02*
Y3090000D01*
X2060000Y3150000D01*
X2384860D01*
X2854860Y2680000D01*
X6934650D01*
X6934760Y2679890D01*
Y2679880D01*
X7029840D01*
X7059720Y2650000D01*
X7727500D01*
G01X2626440Y4200000D02*
Y4196240D01*
X2627950D01*
X2626440Y4194730D01*
Y3692930D01*
G01X2180000Y3790000D02*
X2311500D01*
X2351500Y3750000D01*
G01X2030000Y3790000D02*
X2180000D01*
G01X5500000Y3600000D02*
X2302500D01*
G01X5440000Y3660000D02*
X5410000Y3630000D01*
X2371500D01*
X2351500Y3650000D01*
G01X2302500Y3700000D02*
X2300000D01*
X2250000Y3650000D01*
X2180000D01*
G01X2030000D02*
X2180000D01*
G01X2570710Y3746200D02*
X2570500Y3746410D01*
Y4372440D01*
G01X2450710Y3746200D02*
X2450500Y3746410D01*
Y4372440D01*
G01X2510710Y3696200D02*
X2510500Y3696410D01*
Y4422440D01*
G01X2897130Y3743170D02*
Y4244920D01*
X2797080Y4344970D01*
Y4344980D01*
X2432050Y4710000D01*
X1933870D01*
X1900000Y4676130D01*
Y4602500D01*
G01X2845360Y3695290D02*
Y4254260D01*
X2767080Y4332540D01*
Y4332550D01*
X2419620Y4680000D01*
X1978500D01*
X1950000Y4651500D01*
G01X2792350Y3741010D02*
X2793020D01*
Y4264170D01*
X2417190Y4640000D01*
X2037500D01*
X2000000Y4602500D01*
G01X2620950Y4300000D02*
X2696070D01*
X2699830Y4296240D01*
X2700670D01*
X2737510Y4259400D01*
Y3693550D01*
X2737130Y3693170D01*
G01X5630000Y3900000D02*
Y4090000D01*
X5550000Y4170000D01*
X3100000D01*
X2440000Y4830000D01*
X2080000D01*
X1960000Y4950000D01*
G01X2790000Y2010000D02*
Y1750000D01*
G01X3010000Y2150000D02*
X2790000D01*
G01X3010000D02*
X3660000D01*
X3725000Y2215000D01*
Y2273500D01*
G01X3130000Y2940000D02*
X2960000D01*
X2920000Y2900000D01*
G01X2980000Y2850000D02*
X3030000Y2800000D01*
X3130000D01*
G01X2678080Y4247270D02*
X2676950D01*
Y4246240D01*
X2681300Y4241890D01*
Y3743170D01*
G01X3870000Y3300000D02*
Y3382500D01*
X3825000Y3427500D01*
G01X3935000Y3040000D02*
Y3155000D01*
X3870000Y3220000D01*
Y3300000D01*
G01X3770000Y2900000D02*
X3680000D01*
X3630000Y2850000D01*
G01X3769640Y2829640D02*
X3696990Y2756990D01*
X3513010D01*
X3490000Y2780000D01*
Y2850000D01*
G01X3775000Y3476500D02*
X3730000Y3431500D01*
Y3300000D01*
G01D02*
Y3220000D01*
X3665000Y3155000D01*
Y3040000D01*
G01X5650000Y2880000D02*
X7917570D01*
X8150000Y3112430D01*
Y3852500D01*
X7762500Y4240000D01*
G01X5700000Y3685000D02*
Y3760000D01*
X5630000Y3830000D01*
Y3900000D01*
G01X6400000Y3565000D02*
Y3480000D01*
X6330000Y3410000D01*
Y3350000D01*
G01D02*
Y3050000D01*
G01X5700000Y2830000D02*
X5720000Y2850000D01*
X7930010D01*
X7947570Y2867560D01*
Y2867570D01*
X8162430Y3082430D01*
X8162440D01*
X8180000Y3099990D01*
Y3100000D01*
X8180010Y3100010D01*
Y3124850D01*
X8180000Y3124860D01*
Y3937500D01*
X7827500Y4290000D01*
G01X8022500Y3600000D02*
Y3069790D01*
X7892710Y2940000D01*
X6180000D01*
X6050000Y3070000D01*
Y3360000D01*
G01X8087500Y3650000D02*
Y3092360D01*
X7905140Y2910000D01*
X5820000D01*
X5700000Y3030000D01*
Y3360000D01*
G01X6762000Y5400000D02*
Y5168000D01*
X6980000Y4950000D01*
Y4450000D01*
X6650000Y4120000D01*
X6470000D01*
X6400000Y4050000D01*
Y3890000D01*
G01X5770000Y3900000D02*
Y4010000D01*
G01X6120000Y3900000D02*
Y4010000D01*
G01X6050000Y3685000D02*
Y3760000D01*
X5980000Y3830000D01*
Y3900000D01*
G01X6750000Y3565000D02*
Y3480000D01*
X6680000Y3410000D01*
Y3350000D01*
G01Y3220000D02*
Y3350000D01*
G01X7100000Y3565000D02*
Y3480000D01*
X7030000Y3410000D01*
Y3350000D01*
G01D02*
Y3220000D01*
G01X6787500D02*
Y3260000D01*
X6820000Y3292500D01*
Y3350000D01*
G01X7170000D02*
X7280000D01*
G01X6470000D02*
Y3220000D01*
G01X7316000Y5400000D02*
Y5166000D01*
X7100000Y4950000D01*
Y3890000D01*
G01X7039000Y5400000D02*
Y4409000D01*
X6750000Y4120000D01*
Y3890000D01*
G01X6640000Y4450000D02*
Y4700000D01*
G01X6710000Y4760000D02*
X6707500Y4757500D01*
Y4500000D01*
G01X8493000Y4088000D02*
X8368000D01*
X8270000Y3990000D01*
Y3162160D01*
X8270010Y3162150D01*
Y3062720D01*
X8270000Y3062710D01*
Y2620000D01*
X8200000Y2550000D01*
X7562500D01*
G01X8746000Y3953000D02*
X8363000D01*
X8300000Y3890000D01*
Y3174590D01*
X8300010Y3174580D01*
Y2690010D01*
X8300000Y2690000D01*
Y2530000D01*
X8220000Y2450000D01*
X7912500D01*
G01X8746000Y3699000D02*
X8370000D01*
X8330000Y3659000D01*
Y3187030D01*
X8330010Y3187020D01*
Y2677580D01*
X8330000Y2677570D01*
Y2450000D01*
X8230000Y2350000D01*
X7562500D01*
G01X8493000Y3580000D02*
X8400000D01*
X8360000Y3540000D01*
Y3199450D01*
X8360010Y3199440D01*
Y2640010D01*
X8360000Y2640000D01*
Y2350000D01*
X8260000Y2250000D01*
X7912500D01*
G01X7562500Y2750000D02*
X8150000D01*
X8210000Y2810000D01*
Y3087580D01*
X8210010Y3087590D01*
Y3137290D01*
X8210000Y3137300D01*
Y4190000D01*
X8362000Y4342000D01*
X8493000D01*
G01X8746000Y4207000D02*
X8367000D01*
X8240000Y4080000D01*
Y3149730D01*
X8240010Y3149720D01*
Y3075150D01*
X8240000Y3075140D01*
Y2710000D01*
X8180000Y2650000D01*
X7912500D01*
G54D17*
X1440000Y3070000D03*
X1300000D03*
X1440000Y2920000D03*
X1300000D03*
X1400000Y3940000D03*
X1260000D03*
X1400000Y3790000D03*
X1260000D03*
X3490000Y2850000D03*
X3630000D03*
X3730000Y3300000D03*
X3870000D03*
X5630000Y3900000D03*
X6330000Y3350000D03*
X6470000D03*
X5770000Y3900000D03*
X5980000D03*
X6120000D03*
X6680000Y3350000D03*
X6820000D03*
X7030000D03*
X7170000D03*
G54D27*
G01X7050000Y2230000D02*
X7205000Y2075000D01*
X8260000D01*
X8360000Y2175000D01*
X8746000D01*
G54D18*
X2417500Y2150000D03*
X2602500D03*
X7912500Y2650000D03*
X7727500D03*
X7562500Y2550000D03*
X7377500D03*
X7912500Y2450000D03*
X7727500D03*
X7562500Y2350000D03*
X7377500D03*
X7912500Y2250000D03*
X7727500D03*
X7562500Y2750000D03*
X7377500D03*
G54D19*
X3027000Y590000D03*
M02*
