G04 ================== begin FILE IDENTIFICATION RECORD ==================*
G04 Layout Name:  D:/Dokumenter/PT5300_NTP/PT8640/PCB/Gerber/PT8640.brd*
G04 Film Name:    TOP_ASSY*
G04 File Format:  Gerber RS274X*
G04 File Origin:  16.0-s007*
G04 Origin Date:  Tue May 11 14:34:46 2010*
G04 *
G04 Layer:  REF DES/ASSEMBLY_TOP*
G04 Layer:  PACKAGE GEOMETRY/ASSEMBLY_TOP*
G04 Layer:  BOARD GEOMETRY/OUTLINE*
G04 Layer:  BOARD GEOMETRY/ASSEMBLY_DETAIL*
G04 *
G04 Offset:    (0.0000 0.0000)*
G04 Mirror:    No*
G04 Mode:      Positive*
G04 Rotation:  0*
G04 FullContactRelief:  No*
G04 UndefLineWidth:     0.0000*
G04 ================== end FILE IDENTIFICATION RECORD ====================*
%FSLAX55Y55*MOMM*%
%IR0*IPPOS*OFA0.00000B0.00000*MIA0B0*SFA1.00000B1.00000*%
%ADD10C,.1*%
%ADD11C,.2*%
%ADD12C,.5*%
%ADD13C,.17*%
%ADD14C,.05*%
G75*
%LPD*%
G75*
G36*
G01X794700Y4330000D02*
G03I-24700J0D01*
G37*
G36*
G01X3869700Y2580000D02*
G03I-24700J0D01*
G37*
G36*
G01X6979720Y4075000D02*
G03I-44720J0D01*
G37*
G36*
G01X7570000Y2160000D02*
X7730000D01*
Y2210000D01*
X7570000D01*
Y2160000D01*
G37*
G36*
G01X7820000D02*
X7980000D01*
Y2210000D01*
X7820000D01*
Y2160000D01*
G37*
G54D10*
G01X0Y1500000D02*
X9000000D01*
G01X0D02*
X9000000D01*
G01X125000Y3797400D02*
X122000Y3793200D01*
X120000Y3788300D01*
Y3782700D01*
X123000Y3776400D01*
X128000Y3771500D01*
X134000Y3768000D01*
X144000Y3765200D01*
X153000Y3764500D01*
X162000Y3765900D01*
X168000Y3768000D01*
X174000Y3772200D01*
X178000Y3777100D01*
X180000Y3782000D01*
Y3786900D01*
X178000Y3791800D01*
X175000Y3796000D01*
X171000Y3799500D01*
G01X180000Y3830000D02*
X120000D01*
X132000Y3821600D01*
G01X180000D02*
Y3838400D01*
G01X173000Y3866100D02*
X178000Y3871000D01*
X180000Y3876600D01*
X178000Y3882200D01*
X172000Y3887100D01*
X163000Y3890600D01*
X154000Y3892000D01*
X143000D01*
X134000Y3890600D01*
X126000Y3887100D01*
X122000Y3882900D01*
X120000Y3878000D01*
X122000Y3872400D01*
X126000Y3868200D01*
X132000Y3865400D01*
X140000Y3864000D01*
X147000Y3865400D01*
X154000Y3868900D01*
X158000Y3873100D01*
X159000Y3878000D01*
X157000Y3883600D01*
X152000Y3887800D01*
X143000Y3892000D01*
G01X188000Y4820000D02*
Y4900000D01*
X208000D01*
X216000Y4896000D01*
X222000Y4890670D01*
X227000Y4882670D01*
X231000Y4873330D01*
X232000Y4860000D01*
X231000Y4846670D01*
X227000Y4837330D01*
X222000Y4829330D01*
X216000Y4824000D01*
X208000Y4820000D01*
X188000D01*
G01X258000D02*
Y4900000D01*
G01X296000D02*
X258000Y4850660D01*
G01X302000Y4820000D02*
X275000Y4873330D01*
G01X337000Y4846670D02*
X363000D01*
G01X420000Y4900000D02*
Y4820000D01*
G01X397000Y4900000D02*
X443000D01*
G01X475000Y4856000D02*
X507000D01*
X504000Y4865330D01*
X499000Y4870670D01*
X492000Y4873330D01*
X485000Y4872000D01*
X479000Y4868000D01*
X475000Y4858670D01*
X473000Y4850660D01*
Y4842670D01*
X475000Y4834670D01*
X480000Y4826670D01*
X486000Y4821330D01*
X493000Y4820000D01*
X500000Y4822670D01*
X507000Y4830660D01*
G01X576000Y4866670D02*
X569000Y4872000D01*
X563000Y4873330D01*
X555000Y4870670D01*
X549000Y4865330D01*
X545000Y4856000D01*
X544000Y4846670D01*
X545000Y4837330D01*
X549000Y4829330D01*
X555000Y4822670D01*
X563000Y4820000D01*
X570000Y4822670D01*
X576000Y4828000D01*
G01X613000Y4820000D02*
Y4900000D01*
G01Y4861330D02*
X618000Y4868000D01*
X623000Y4872000D01*
X631000Y4873330D01*
X637000Y4872000D01*
X644000Y4866670D01*
X647000Y4858670D01*
Y4820000D01*
G01X683000D02*
Y4873330D01*
G01Y4860000D02*
X687000Y4866670D01*
X693000Y4872000D01*
X701000Y4873330D01*
X708000Y4872000D01*
X714000Y4866670D01*
X717000Y4857330D01*
Y4820000D01*
G01X770000D02*
X764000Y4821330D01*
X758000Y4826670D01*
X754000Y4836000D01*
X752000Y4846670D01*
X754000Y4857330D01*
X758000Y4866670D01*
X764000Y4872000D01*
X770000Y4873330D01*
X776000Y4872000D01*
X782000Y4866670D01*
X786000Y4857330D01*
X787000Y4846670D01*
X786000Y4836000D01*
X782000Y4826670D01*
X776000Y4821330D01*
X770000Y4820000D01*
G01X840000D02*
Y4900000D01*
G01X910000Y4820000D02*
X904000Y4821330D01*
X898000Y4826670D01*
X894000Y4836000D01*
X892000Y4846670D01*
X894000Y4857330D01*
X898000Y4866670D01*
X904000Y4872000D01*
X910000Y4873330D01*
X916000Y4872000D01*
X922000Y4866670D01*
X926000Y4857330D01*
X927000Y4846670D01*
X926000Y4836000D01*
X922000Y4826670D01*
X916000Y4821330D01*
X910000Y4820000D01*
G01X966000Y4800000D02*
X973000Y4794670D01*
X981000Y4793330D01*
X988000Y4794670D01*
X994000Y4801330D01*
X998000Y4810670D01*
Y4873330D01*
G01Y4862670D02*
X994000Y4868000D01*
X988000Y4872000D01*
X981000Y4873330D01*
X973000Y4870670D01*
X968000Y4865330D01*
X964000Y4856000D01*
X962000Y4846670D01*
X963000Y4838670D01*
X967000Y4829330D01*
X973000Y4822670D01*
X981000Y4820000D01*
X987000Y4821330D01*
X994000Y4826670D01*
X998000Y4832000D01*
G01X1050000Y4873330D02*
Y4820000D01*
G01Y4894670D02*
X1048000Y4896000D01*
Y4898670D01*
X1050000Y4900000D01*
X1052000Y4898670D01*
Y4896000D01*
X1050000Y4894670D01*
G01X1105000Y4856000D02*
X1137000D01*
X1134000Y4865330D01*
X1129000Y4870670D01*
X1122000Y4873330D01*
X1115000Y4872000D01*
X1109000Y4868000D01*
X1105000Y4858670D01*
X1103000Y4850660D01*
Y4842670D01*
X1105000Y4834670D01*
X1110000Y4826670D01*
X1116000Y4821330D01*
X1123000Y4820000D01*
X1130000Y4822670D01*
X1137000Y4830660D01*
G01X1175000Y4829330D02*
X1180000Y4824000D01*
X1187000Y4820000D01*
X1193000D01*
X1199000Y4822670D01*
X1203000Y4826670D01*
X1205000Y4832000D01*
X1204000Y4840000D01*
X1200000Y4844000D01*
X1182000Y4852000D01*
X1178000Y4861330D01*
X1180000Y4868000D01*
X1184000Y4872000D01*
X1190000Y4873330D01*
X1196000Y4872000D01*
X1202000Y4868000D01*
G01X1305000Y4820000D02*
X1330000Y4900000D01*
X1355000Y4820000D01*
G01X1346000Y4848000D02*
X1314000D01*
G01X1382000Y4817330D02*
X1418000Y4900000D01*
G01X1449000Y4830660D02*
X1457000Y4824000D01*
X1466000Y4820000D01*
X1474000D01*
X1482000Y4824000D01*
X1488000Y4830660D01*
X1491000Y4840000D01*
X1489000Y4849330D01*
X1484000Y4857330D01*
X1475000Y4862670D01*
X1463000Y4865330D01*
X1456000Y4870670D01*
X1453000Y4880000D01*
X1455000Y4889330D01*
X1460000Y4896000D01*
X1467000Y4900000D01*
X1474000D01*
X1481000Y4897330D01*
X1487000Y4890670D01*
G01X190000Y4700000D02*
Y4780000D01*
X214000D01*
X222000Y4776000D01*
X228000Y4766670D01*
X230000Y4756000D01*
X228000Y4745330D01*
X223000Y4737330D01*
X214000Y4733330D01*
X190000D01*
G01X280000Y4780000D02*
Y4700000D01*
G01X257000Y4780000D02*
X303000D01*
G01X350000Y4700000D02*
X357000Y4701330D01*
X365000Y4705330D01*
X370000Y4712000D01*
X372000Y4721330D01*
X370000Y4730660D01*
X364000Y4738670D01*
X355000Y4742670D01*
X345000D01*
X339000Y4745330D01*
X334000Y4752000D01*
X332000Y4761330D01*
X335000Y4770670D01*
X342000Y4777330D01*
X350000Y4780000D01*
X358000Y4777330D01*
X365000Y4770670D01*
X368000Y4761330D01*
X366000Y4752000D01*
X361000Y4745330D01*
X355000Y4742670D01*
X345000D01*
X336000Y4738670D01*
X330000Y4730660D01*
X328000Y4721330D01*
X330000Y4712000D01*
X335000Y4705330D01*
X343000Y4701330D01*
X350000Y4700000D01*
G01X401000Y4733330D02*
X408000Y4742670D01*
X414000Y4748000D01*
X422000Y4750670D01*
X429000Y4748000D01*
X434000Y4742670D01*
X438000Y4734670D01*
X439000Y4725330D01*
X438000Y4717330D01*
X434000Y4709330D01*
X428000Y4702670D01*
X421000Y4700000D01*
X413000Y4702670D01*
X406000Y4710660D01*
X402000Y4722670D01*
X401000Y4736000D01*
X403000Y4753330D01*
X406000Y4762670D01*
X411000Y4772000D01*
X418000Y4778670D01*
X425000Y4780000D01*
X432000Y4777330D01*
X437000Y4770670D01*
G01X502000Y4700000D02*
Y4780000D01*
X465000Y4722670D01*
X515000D01*
G01X560000Y4780000D02*
X552000Y4777330D01*
X546000Y4770670D01*
X542000Y4762670D01*
X539000Y4752000D01*
X538000Y4740000D01*
X539000Y4728000D01*
X542000Y4717330D01*
X546000Y4709330D01*
X552000Y4702670D01*
X560000Y4700000D01*
X568000Y4702670D01*
X574000Y4709330D01*
X578000Y4717330D01*
X581000Y4728000D01*
X582000Y4740000D01*
X581000Y4752000D01*
X578000Y4762670D01*
X574000Y4770670D01*
X568000Y4777330D01*
X560000Y4780000D01*
G01X222000Y4590000D02*
Y4670000D01*
X185000Y4612670D01*
X235000D01*
G01X280000Y4670000D02*
X272000Y4667330D01*
X266000Y4660670D01*
X262000Y4652670D01*
X259000Y4642000D01*
X258000Y4630000D01*
X259000Y4618000D01*
X262000Y4607330D01*
X266000Y4599330D01*
X272000Y4592670D01*
X280000Y4590000D01*
X288000Y4592670D01*
X294000Y4599330D01*
X298000Y4607330D01*
X301000Y4618000D01*
X302000Y4630000D01*
X301000Y4642000D01*
X298000Y4652670D01*
X294000Y4660670D01*
X288000Y4667330D01*
X280000Y4670000D01*
G01X350000D02*
X342000Y4667330D01*
X336000Y4660670D01*
X332000Y4652670D01*
X329000Y4642000D01*
X328000Y4630000D01*
X329000Y4618000D01*
X332000Y4607330D01*
X336000Y4599330D01*
X342000Y4592670D01*
X350000Y4590000D01*
X358000Y4592670D01*
X364000Y4599330D01*
X368000Y4607330D01*
X371000Y4618000D01*
X372000Y4630000D01*
X371000Y4642000D01*
X368000Y4652670D01*
X364000Y4660670D01*
X358000Y4667330D01*
X350000Y4670000D01*
G01X420000Y4590000D02*
X427000Y4591330D01*
X435000Y4595330D01*
X440000Y4602000D01*
X442000Y4611330D01*
X440000Y4620660D01*
X434000Y4628670D01*
X425000Y4632670D01*
X415000D01*
X409000Y4635330D01*
X404000Y4642000D01*
X402000Y4651330D01*
X405000Y4660670D01*
X412000Y4667330D01*
X420000Y4670000D01*
X428000Y4667330D01*
X435000Y4660670D01*
X438000Y4651330D01*
X436000Y4642000D01*
X431000Y4635330D01*
X425000Y4632670D01*
X415000D01*
X406000Y4628670D01*
X400000Y4620660D01*
X398000Y4611330D01*
X400000Y4602000D01*
X405000Y4595330D01*
X413000Y4591330D01*
X420000Y4590000D01*
G01X560000D02*
Y4670000D01*
X548000Y4654000D01*
G01Y4590000D02*
X572000D01*
G01X630000D02*
Y4670000D01*
X618000Y4654000D01*
G01Y4590000D02*
X642000D01*
G01X698000D02*
X700000Y4607330D01*
X703000Y4622000D01*
X707000Y4635330D01*
X712000Y4650000D01*
X720000Y4670000D01*
X680000D01*
G01X840000D02*
X832000Y4667330D01*
X826000Y4660670D01*
X822000Y4652670D01*
X819000Y4642000D01*
X818000Y4630000D01*
X819000Y4618000D01*
X822000Y4607330D01*
X826000Y4599330D01*
X832000Y4592670D01*
X840000Y4590000D01*
X848000Y4592670D01*
X854000Y4599330D01*
X858000Y4607330D01*
X861000Y4618000D01*
X862000Y4630000D01*
X861000Y4642000D01*
X858000Y4652670D01*
X854000Y4660670D01*
X848000Y4667330D01*
X840000Y4670000D01*
G01X910000Y4590000D02*
X917000Y4591330D01*
X925000Y4595330D01*
X930000Y4602000D01*
X932000Y4611330D01*
X930000Y4620660D01*
X924000Y4628670D01*
X915000Y4632670D01*
X905000D01*
X899000Y4635330D01*
X894000Y4642000D01*
X892000Y4651330D01*
X895000Y4660670D01*
X902000Y4667330D01*
X910000Y4670000D01*
X918000Y4667330D01*
X925000Y4660670D01*
X928000Y4651330D01*
X926000Y4642000D01*
X921000Y4635330D01*
X915000Y4632670D01*
X905000D01*
X896000Y4628670D01*
X890000Y4620660D01*
X888000Y4611330D01*
X890000Y4602000D01*
X895000Y4595330D01*
X903000Y4591330D01*
X910000Y4590000D01*
G01X961000Y4623330D02*
X968000Y4632670D01*
X974000Y4638000D01*
X982000Y4640670D01*
X989000Y4638000D01*
X994000Y4632670D01*
X998000Y4624670D01*
X999000Y4615330D01*
X998000Y4607330D01*
X994000Y4599330D01*
X988000Y4592670D01*
X981000Y4590000D01*
X973000Y4592670D01*
X966000Y4600660D01*
X962000Y4612670D01*
X961000Y4626000D01*
X963000Y4643330D01*
X966000Y4652670D01*
X971000Y4662000D01*
X978000Y4668670D01*
X985000Y4670000D01*
X992000Y4667330D01*
X997000Y4660670D01*
G01X1050000Y4670000D02*
X1042000Y4667330D01*
X1036000Y4660670D01*
X1032000Y4652670D01*
X1029000Y4642000D01*
X1028000Y4630000D01*
X1029000Y4618000D01*
X1032000Y4607330D01*
X1036000Y4599330D01*
X1042000Y4592670D01*
X1050000Y4590000D01*
X1058000Y4592670D01*
X1064000Y4599330D01*
X1068000Y4607330D01*
X1071000Y4618000D01*
X1072000Y4630000D01*
X1071000Y4642000D01*
X1068000Y4652670D01*
X1064000Y4660670D01*
X1058000Y4667330D01*
X1050000Y4670000D01*
G01X1120000Y4590000D02*
Y4670000D01*
X1108000Y4654000D01*
G01Y4590000D02*
X1132000D01*
G01X170000Y4152000D02*
X110000D01*
Y4169500D01*
X113000Y4175100D01*
X117000Y4178600D01*
X125000Y4180000D01*
X133000Y4178600D01*
X138000Y4174400D01*
X141000Y4169500D01*
Y4152000D01*
G01Y4169500D02*
X170000Y4180000D01*
G01X145000Y4200700D02*
X138000Y4205600D01*
X134000Y4209800D01*
X132000Y4215400D01*
X134000Y4220300D01*
X138000Y4223800D01*
X144000Y4226600D01*
X151000Y4227300D01*
X157000Y4226600D01*
X163000Y4223800D01*
X168000Y4219600D01*
X170000Y4214700D01*
X168000Y4209100D01*
X162000Y4204200D01*
X153000Y4201400D01*
X143000Y4200700D01*
X130000Y4202100D01*
X123000Y4204200D01*
X116000Y4207700D01*
X111000Y4212600D01*
X110000Y4217500D01*
X112000Y4222400D01*
X117000Y4225900D01*
G01X152000Y4982000D02*
X155500Y4976000D01*
X159700Y4972000D01*
X164600Y4970000D01*
X170200Y4972000D01*
X174400Y4976000D01*
X178600Y4982000D01*
X180000Y4990000D01*
Y5030000D01*
G01X200700Y4995000D02*
X205600Y5002000D01*
X209800Y5006000D01*
X215400Y5008000D01*
X220300Y5006000D01*
X223800Y5002000D01*
X226600Y4996000D01*
X227300Y4989000D01*
X226600Y4983000D01*
X223800Y4977000D01*
X219600Y4972000D01*
X214700Y4970000D01*
X209100Y4972000D01*
X204200Y4978000D01*
X201400Y4987000D01*
X200700Y4997000D01*
X202100Y5010000D01*
X204200Y5017000D01*
X207700Y5024000D01*
X212600Y5029000D01*
X217500Y5030000D01*
X222400Y5028000D01*
X225900Y5023000D01*
G01X950600Y1720000D02*
Y1780000D01*
X964600D01*
X970200Y1777000D01*
X974400Y1773000D01*
X977900Y1767000D01*
X980700Y1760000D01*
X981400Y1750000D01*
X980700Y1740000D01*
X977900Y1733000D01*
X974400Y1727000D01*
X970200Y1723000D01*
X964600Y1720000D01*
X950600D01*
G01X998600Y1732000D02*
X1002800Y1725000D01*
X1008400Y1721000D01*
X1014700Y1720000D01*
X1020300Y1721000D01*
X1025900Y1726000D01*
X1029400Y1732000D01*
X1030100Y1738000D01*
X1028700Y1745000D01*
X1023800Y1750000D01*
X1018900Y1752000D01*
X1012600D01*
G01X1018900D02*
X1023100Y1755000D01*
X1026600Y1760000D01*
X1028000Y1766000D01*
X1026600Y1772000D01*
X1023100Y1777000D01*
X1016800Y1780000D01*
X1010500Y1779000D01*
X1004200Y1775000D01*
G01X1100000Y1830000D02*
Y1870000D01*
G01X730600Y1720000D02*
Y1780000D01*
X744600D01*
X750200Y1777000D01*
X754400Y1773000D01*
X757900Y1767000D01*
X760700Y1760000D01*
X761400Y1750000D01*
X760700Y1740000D01*
X757900Y1733000D01*
X754400Y1727000D01*
X750200Y1723000D01*
X744600Y1720000D01*
X730600D01*
G01X802400D02*
Y1780000D01*
X776500Y1737000D01*
X811500D01*
G01X880000Y1830000D02*
Y1870000D01*
G01X732000Y2590000D02*
Y2650000D01*
X749500D01*
X755100Y2647000D01*
X758600Y2643000D01*
X760000Y2635000D01*
X758600Y2627000D01*
X754400Y2622000D01*
X749500Y2619000D01*
X732000D01*
G01X749500D02*
X760000Y2590000D01*
G01X802400D02*
Y2650000D01*
X776500Y2607000D01*
X811500D01*
G01X1080000Y1850000D02*
X1120000D01*
G01X860000D02*
X900000D01*
G01X928000Y2460000D02*
Y2520000D01*
X945500D01*
X951100Y2517000D01*
X954600Y2513000D01*
X956000Y2505000D01*
X954600Y2497000D01*
X950400Y2492000D01*
X945500Y2489000D01*
X928000D01*
G01X945500D02*
X956000Y2460000D01*
G01X976700Y2510000D02*
X980900Y2516000D01*
X985800Y2519000D01*
X991400Y2520000D01*
X998400Y2518000D01*
X1003300Y2513000D01*
X1004700Y2507000D01*
X1004000Y2501000D01*
X1001200Y2496000D01*
X987200Y2486000D01*
X980900Y2479000D01*
X976700Y2469000D01*
X975300Y2460000D01*
X1004700D01*
G01X1036600D02*
X1038000Y2473000D01*
X1040100Y2484000D01*
X1042900Y2494000D01*
X1046400Y2505000D01*
X1052000Y2520000D01*
X1024000D01*
G01X708000Y2460000D02*
Y2520000D01*
X725500D01*
X731100Y2517000D01*
X734600Y2513000D01*
X736000Y2505000D01*
X734600Y2497000D01*
X730400Y2492000D01*
X725500Y2489000D01*
X708000D01*
G01X725500D02*
X736000Y2460000D01*
G01X756700Y2510000D02*
X760900Y2516000D01*
X765800Y2519000D01*
X771400Y2520000D01*
X778400Y2518000D01*
X783300Y2513000D01*
X784700Y2507000D01*
X784000Y2501000D01*
X781200Y2496000D01*
X767200Y2486000D01*
X760900Y2479000D01*
X756700Y2469000D01*
X755300Y2460000D01*
X784700D01*
G01X818000D02*
X822900Y2461000D01*
X828500Y2464000D01*
X832000Y2469000D01*
X833400Y2476000D01*
X832000Y2483000D01*
X827800Y2489000D01*
X821500Y2492000D01*
X814500D01*
X810300Y2494000D01*
X806800Y2499000D01*
X805400Y2506000D01*
X807500Y2513000D01*
X812400Y2518000D01*
X818000Y2520000D01*
X823600Y2518000D01*
X828500Y2513000D01*
X830600Y2506000D01*
X829200Y2499000D01*
X825700Y2494000D01*
X821500Y2492000D01*
X814500D01*
X808200Y2489000D01*
X804000Y2483000D01*
X802600Y2476000D01*
X804000Y2469000D01*
X807500Y2464000D01*
X813100Y2461000D01*
X818000Y2460000D01*
G01X682700Y2900000D02*
X686900Y2906000D01*
X691800Y2909000D01*
X697400Y2910000D01*
X704400Y2908000D01*
X709300Y2903000D01*
X710700Y2897000D01*
X710000Y2891000D01*
X707200Y2886000D01*
X693200Y2876000D01*
X686900Y2869000D01*
X682700Y2859000D01*
X681300Y2850000D01*
X710700D01*
G01X730700Y2875000D02*
X735600Y2882000D01*
X739800Y2886000D01*
X745400Y2888000D01*
X750300Y2886000D01*
X753800Y2882000D01*
X756600Y2876000D01*
X757300Y2869000D01*
X756600Y2863000D01*
X753800Y2857000D01*
X749600Y2852000D01*
X744700Y2850000D01*
X739100Y2852000D01*
X734200Y2858000D01*
X731400Y2867000D01*
X730700Y2877000D01*
X732100Y2890000D01*
X734200Y2897000D01*
X737700Y2904000D01*
X742600Y2909000D01*
X747500Y2910000D01*
X752400Y2908000D01*
X755900Y2903000D01*
G01X732000Y2750000D02*
Y2810000D01*
X749500D01*
X755100Y2807000D01*
X758600Y2803000D01*
X760000Y2795000D01*
X758600Y2787000D01*
X754400Y2782000D01*
X749500Y2779000D01*
X732000D01*
G01X749500D02*
X760000Y2750000D01*
G01X778600Y2759000D02*
X782800Y2754000D01*
X787700Y2751000D01*
X794000Y2750000D01*
X800300Y2752000D01*
X805200Y2756000D01*
X808700Y2763000D01*
X809400Y2771000D01*
X808000Y2779000D01*
X804500Y2784000D01*
X799600Y2788000D01*
X794700Y2789000D01*
X789800Y2788000D01*
X783500Y2784000D01*
X785600Y2810000D01*
X804500D01*
G01X646000Y4475000D02*
Y4535000D01*
X637600Y4523000D01*
G01Y4475000D02*
X654400D01*
G01X694000Y4535000D02*
X688400Y4533000D01*
X684200Y4528000D01*
X681400Y4522000D01*
X679300Y4514000D01*
X678600Y4505000D01*
X679300Y4496000D01*
X681400Y4488000D01*
X684200Y4482000D01*
X688400Y4477000D01*
X694000Y4475000D01*
X699600Y4477000D01*
X703800Y4482000D01*
X706600Y4488000D01*
X708700Y4496000D01*
X709400Y4505000D01*
X708700Y4514000D01*
X706600Y4522000D01*
X703800Y4528000D01*
X699600Y4533000D01*
X694000Y4535000D01*
G01X742000D02*
X736400Y4533000D01*
X732200Y4528000D01*
X729400Y4522000D01*
X727300Y4514000D01*
X726600Y4505000D01*
X727300Y4496000D01*
X729400Y4488000D01*
X732200Y4482000D01*
X736400Y4477000D01*
X742000Y4475000D01*
X747600Y4477000D01*
X751800Y4482000D01*
X754600Y4488000D01*
X756700Y4496000D01*
X757400Y4505000D01*
X756700Y4514000D01*
X754600Y4522000D01*
X751800Y4528000D01*
X747600Y4533000D01*
X742000Y4535000D01*
G01X621000Y4325000D02*
Y4385000D01*
X612600Y4373000D01*
G01Y4325000D02*
X629400D01*
G01X437600Y4535000D02*
X454400D01*
G01X446000D02*
Y4475000D01*
G01X437600D02*
X454400D01*
G01X509400Y4530000D02*
X505200Y4533000D01*
X500300Y4535000D01*
X494700D01*
X488400Y4532000D01*
X483500Y4527000D01*
X480000Y4521000D01*
X477200Y4511000D01*
X476500Y4502000D01*
X477900Y4493000D01*
X480000Y4487000D01*
X484200Y4481000D01*
X489100Y4477000D01*
X494000Y4475000D01*
X498900D01*
X503800Y4477000D01*
X508000Y4480000D01*
X511500Y4484000D01*
G01X542000Y4475000D02*
Y4535000D01*
X533600Y4523000D01*
G01Y4475000D02*
X550400D01*
G01X1390600Y1720000D02*
Y1780000D01*
X1404600D01*
X1410200Y1777000D01*
X1414400Y1773000D01*
X1417900Y1767000D01*
X1420700Y1760000D01*
X1421400Y1750000D01*
X1420700Y1740000D01*
X1417900Y1733000D01*
X1414400Y1727000D01*
X1410200Y1723000D01*
X1404600Y1720000D01*
X1390600D01*
G01X1454000D02*
Y1780000D01*
X1445600Y1768000D01*
G01Y1720000D02*
X1462400D01*
G01X1540000Y1830000D02*
Y1870000D01*
G01X1170600Y1720000D02*
Y1780000D01*
X1184600D01*
X1190200Y1777000D01*
X1194400Y1773000D01*
X1197900Y1767000D01*
X1200700Y1760000D01*
X1201400Y1750000D01*
X1200700Y1740000D01*
X1197900Y1733000D01*
X1194400Y1727000D01*
X1190200Y1723000D01*
X1184600Y1720000D01*
X1170600D01*
G01X1220700Y1770000D02*
X1224900Y1776000D01*
X1229800Y1779000D01*
X1235400Y1780000D01*
X1242400Y1778000D01*
X1247300Y1773000D01*
X1248700Y1767000D01*
X1248000Y1761000D01*
X1245200Y1756000D01*
X1231200Y1746000D01*
X1224900Y1739000D01*
X1220700Y1729000D01*
X1219300Y1720000D01*
X1248700D01*
G01X1320000Y1830000D02*
Y1870000D01*
G01X1332000Y2670000D02*
Y2610000D01*
G01X1315900Y2670000D02*
X1348100D01*
G01X1366000Y2610000D02*
Y2670000D01*
X1382800D01*
X1388400Y2667000D01*
X1392600Y2660000D01*
X1394000Y2652000D01*
X1392600Y2644000D01*
X1389100Y2638000D01*
X1382800Y2635000D01*
X1366000D01*
G01X1412600Y2619000D02*
X1416800Y2614000D01*
X1421700Y2611000D01*
X1428000Y2610000D01*
X1434300Y2612000D01*
X1439200Y2616000D01*
X1442700Y2623000D01*
X1443400Y2631000D01*
X1442000Y2639000D01*
X1438500Y2644000D01*
X1433600Y2648000D01*
X1428700Y2649000D01*
X1423800Y2648000D01*
X1417500Y2644000D01*
X1419600Y2670000D01*
X1438500D01*
G01X1826300Y2100000D02*
X1855700Y2160000D01*
G01X1826300D02*
X1855700Y2100000D01*
G01X1889000D02*
Y2160000D01*
X1880600Y2148000D01*
G01Y2100000D02*
X1897400D01*
G01X1520000Y1850000D02*
X1560000D01*
G01X1300000D02*
X1340000D01*
G01X1368000Y2460000D02*
Y2520000D01*
X1385500D01*
X1391100Y2517000D01*
X1394600Y2513000D01*
X1396000Y2505000D01*
X1394600Y2497000D01*
X1390400Y2492000D01*
X1385500Y2489000D01*
X1368000D01*
G01X1385500D02*
X1396000Y2460000D01*
G01X1416700Y2510000D02*
X1420900Y2516000D01*
X1425800Y2519000D01*
X1431400Y2520000D01*
X1438400Y2518000D01*
X1443300Y2513000D01*
X1444700Y2507000D01*
X1444000Y2501000D01*
X1441200Y2496000D01*
X1427200Y2486000D01*
X1420900Y2479000D01*
X1416700Y2469000D01*
X1415300Y2460000D01*
X1444700D01*
G01X1462600Y2469000D02*
X1466800Y2464000D01*
X1471700Y2461000D01*
X1478000Y2460000D01*
X1484300Y2462000D01*
X1489200Y2466000D01*
X1492700Y2473000D01*
X1493400Y2481000D01*
X1492000Y2489000D01*
X1488500Y2494000D01*
X1483600Y2498000D01*
X1478700Y2499000D01*
X1473800Y2498000D01*
X1467500Y2494000D01*
X1469600Y2520000D01*
X1488500D01*
G01X1148000Y2460000D02*
Y2520000D01*
X1165500D01*
X1171100Y2517000D01*
X1174600Y2513000D01*
X1176000Y2505000D01*
X1174600Y2497000D01*
X1170400Y2492000D01*
X1165500Y2489000D01*
X1148000D01*
G01X1165500D02*
X1176000Y2460000D01*
G01X1196700Y2510000D02*
X1200900Y2516000D01*
X1205800Y2519000D01*
X1211400Y2520000D01*
X1218400Y2518000D01*
X1223300Y2513000D01*
X1224700Y2507000D01*
X1224000Y2501000D01*
X1221200Y2496000D01*
X1207200Y2486000D01*
X1200900Y2479000D01*
X1196700Y2469000D01*
X1195300Y2460000D01*
X1224700D01*
G01X1244700Y2485000D02*
X1249600Y2492000D01*
X1253800Y2496000D01*
X1259400Y2498000D01*
X1264300Y2496000D01*
X1267800Y2492000D01*
X1270600Y2486000D01*
X1271300Y2479000D01*
X1270600Y2473000D01*
X1267800Y2467000D01*
X1263600Y2462000D01*
X1258700Y2460000D01*
X1253100Y2462000D01*
X1248200Y2468000D01*
X1245400Y2477000D01*
X1244700Y2487000D01*
X1246100Y2500000D01*
X1248200Y2507000D01*
X1251700Y2514000D01*
X1256600Y2519000D01*
X1261500Y2520000D01*
X1266400Y2518000D01*
X1269900Y2513000D01*
G01X1618000Y4810000D02*
Y4870000D01*
X1635500D01*
X1641100Y4867000D01*
X1644600Y4863000D01*
X1646000Y4855000D01*
X1644600Y4847000D01*
X1640400Y4842000D01*
X1635500Y4839000D01*
X1618000D01*
G01X1635500D02*
X1646000Y4810000D01*
G01X1680000D02*
Y4870000D01*
X1671600Y4858000D01*
G01Y4810000D02*
X1688400D01*
G01X1714700Y4835000D02*
X1719600Y4842000D01*
X1723800Y4846000D01*
X1729400Y4848000D01*
X1734300Y4846000D01*
X1737800Y4842000D01*
X1740600Y4836000D01*
X1741300Y4829000D01*
X1740600Y4823000D01*
X1737800Y4817000D01*
X1733600Y4812000D01*
X1728700Y4810000D01*
X1723100Y4812000D01*
X1718200Y4818000D01*
X1715400Y4827000D01*
X1714700Y4837000D01*
X1716100Y4850000D01*
X1718200Y4857000D01*
X1721700Y4864000D01*
X1726600Y4869000D01*
X1731500Y4870000D01*
X1736400Y4868000D01*
X1739900Y4863000D01*
G01X2180600Y3009000D02*
X2184800Y3004000D01*
X2189700Y3001000D01*
X2196000Y3000000D01*
X2202300Y3002000D01*
X2207200Y3006000D01*
X2210700Y3013000D01*
X2211400Y3021000D01*
X2210000Y3029000D01*
X2206500Y3034000D01*
X2201600Y3038000D01*
X2196700Y3039000D01*
X2191800Y3038000D01*
X2185500Y3034000D01*
X2187600Y3060000D01*
X2206500D01*
G01X2244000Y3000000D02*
Y3060000D01*
X2235600Y3048000D01*
G01Y3000000D02*
X2252400D01*
G01X2044600Y4500000D02*
X2046000Y4513000D01*
X2048100Y4524000D01*
X2050900Y4534000D01*
X2054400Y4545000D01*
X2060000Y4560000D01*
X2032000D01*
G01X2080700Y4525000D02*
X2085600Y4532000D01*
X2089800Y4536000D01*
X2095400Y4538000D01*
X2100300Y4536000D01*
X2103800Y4532000D01*
X2106600Y4526000D01*
X2107300Y4519000D01*
X2106600Y4513000D01*
X2103800Y4507000D01*
X2099600Y4502000D01*
X2094700Y4500000D01*
X2089100Y4502000D01*
X2084200Y4508000D01*
X2081400Y4517000D01*
X2080700Y4527000D01*
X2082100Y4540000D01*
X2084200Y4547000D01*
X2087700Y4554000D01*
X2092600Y4559000D01*
X2097500Y4560000D01*
X2102400Y4558000D01*
X2105900Y4553000D01*
G01X3408000Y1637000D02*
X3414000Y1640500D01*
X3418000Y1644700D01*
X3420000Y1649600D01*
X3418000Y1655200D01*
X3414000Y1659400D01*
X3408000Y1663600D01*
X3400000Y1665000D01*
X3360000D01*
G01X3370000Y1685700D02*
X3364000Y1689900D01*
X3361000Y1694800D01*
X3360000Y1700400D01*
X3362000Y1707400D01*
X3367000Y1712300D01*
X3373000Y1713700D01*
X3379000Y1713000D01*
X3384000Y1710200D01*
X3394000Y1696200D01*
X3401000Y1689900D01*
X3411000Y1685700D01*
X3420000Y1684300D01*
Y1713700D01*
G01X3155600Y2387000D02*
X3159800Y2380000D01*
X3165400Y2376000D01*
X3171700Y2375000D01*
X3177300Y2376000D01*
X3182900Y2381000D01*
X3186400Y2387000D01*
X3187100Y2393000D01*
X3185700Y2400000D01*
X3180800Y2405000D01*
X3175900Y2407000D01*
X3169600D01*
G01X3175900D02*
X3180100Y2410000D01*
X3183600Y2415000D01*
X3185000Y2421000D01*
X3183600Y2427000D01*
X3180100Y2432000D01*
X3173800Y2435000D01*
X3167500Y2434000D01*
X3161200Y2430000D01*
G01X3217600Y2375000D02*
X3219000Y2388000D01*
X3221100Y2399000D01*
X3223900Y2409000D01*
X3227400Y2420000D01*
X3233000Y2435000D01*
X3205000D01*
G01X3032700Y3250000D02*
X3036900Y3256000D01*
X3041800Y3259000D01*
X3047400Y3260000D01*
X3054400Y3258000D01*
X3059300Y3253000D01*
X3060700Y3247000D01*
X3060000Y3241000D01*
X3057200Y3236000D01*
X3043200Y3226000D01*
X3036900Y3219000D01*
X3032700Y3209000D01*
X3031300Y3200000D01*
X3060700D01*
G01X3078600Y3209000D02*
X3082800Y3204000D01*
X3087700Y3201000D01*
X3094000Y3200000D01*
X3100300Y3202000D01*
X3105200Y3206000D01*
X3108700Y3213000D01*
X3109400Y3221000D01*
X3108000Y3229000D01*
X3104500Y3234000D01*
X3099600Y3238000D01*
X3094700Y3239000D01*
X3089800Y3238000D01*
X3083500Y3234000D01*
X3085600Y3260000D01*
X3104500D01*
G01X3460000Y1630000D02*
Y2135000D01*
X5065000D01*
Y1630000D01*
X3460000D01*
G01X3879400Y2375000D02*
Y2435000D01*
X3853500Y2392000D01*
X3888500D01*
G01X3919000Y2375000D02*
X3923900Y2376000D01*
X3929500Y2379000D01*
X3933000Y2384000D01*
X3934400Y2391000D01*
X3933000Y2398000D01*
X3928800Y2404000D01*
X3922500Y2407000D01*
X3915500D01*
X3911300Y2409000D01*
X3907800Y2414000D01*
X3906400Y2421000D01*
X3908500Y2428000D01*
X3913400Y2433000D01*
X3919000Y2435000D01*
X3924600Y2433000D01*
X3929500Y2428000D01*
X3931600Y2421000D01*
X3930200Y2414000D01*
X3926700Y2409000D01*
X3922500Y2407000D01*
X3915500D01*
X3909200Y2404000D01*
X3905000Y2398000D01*
X3903600Y2391000D01*
X3905000Y2384000D01*
X3908500Y2379000D01*
X3914100Y2376000D01*
X3919000Y2375000D01*
G01X3996000Y2500000D02*
Y2560000D01*
X3987600Y2548000D01*
G01Y2500000D02*
X4004400D01*
G01X3987600Y2460000D02*
X4004400D01*
G01X3996000D02*
Y2400000D01*
G01X3987600D02*
X4004400D01*
G01X4059400Y2455000D02*
X4055200Y2458000D01*
X4050300Y2460000D01*
X4044700D01*
X4038400Y2457000D01*
X4033500Y2452000D01*
X4030000Y2446000D01*
X4027200Y2436000D01*
X4026500Y2427000D01*
X4027900Y2418000D01*
X4030000Y2412000D01*
X4034200Y2406000D01*
X4039100Y2402000D01*
X4044000Y2400000D01*
X4048900D01*
X4053800Y2402000D01*
X4058000Y2405000D01*
X4061500Y2409000D01*
G01X4078700Y2450000D02*
X4082900Y2456000D01*
X4087800Y2459000D01*
X4093400Y2460000D01*
X4100400Y2458000D01*
X4105300Y2453000D01*
X4106700Y2447000D01*
X4106000Y2441000D01*
X4103200Y2436000D01*
X4089200Y2426000D01*
X4082900Y2419000D01*
X4078700Y2409000D01*
X4077300Y2400000D01*
X4106700D01*
G01X3871000Y3300000D02*
Y3360000D01*
X3862600Y3348000D01*
G01Y3300000D02*
X3879400D01*
G01X3903600Y3312000D02*
X3907800Y3305000D01*
X3913400Y3301000D01*
X3919700Y3300000D01*
X3925300Y3301000D01*
X3930900Y3306000D01*
X3934400Y3312000D01*
X3935100Y3318000D01*
X3933700Y3325000D01*
X3928800Y3330000D01*
X3923900Y3332000D01*
X3917600D01*
G01X3923900D02*
X3928100Y3335000D01*
X3931600Y3340000D01*
X3933000Y3346000D01*
X3931600Y3352000D01*
X3928100Y3357000D01*
X3921800Y3360000D01*
X3915500Y3359000D01*
X3909200Y3355000D01*
G01X3697000Y3522000D02*
X3700500Y3516000D01*
X3704700Y3512000D01*
X3709600Y3510000D01*
X3715200Y3512000D01*
X3719400Y3516000D01*
X3723600Y3522000D01*
X3725000Y3530000D01*
Y3570000D01*
G01X3759000Y3510000D02*
Y3570000D01*
X3750600Y3558000D01*
G01Y3510000D02*
X3767400D01*
G01X4188000Y2310000D02*
Y2370000D01*
X4205500D01*
X4211100Y2367000D01*
X4214600Y2363000D01*
X4216000Y2355000D01*
X4214600Y2347000D01*
X4210400Y2342000D01*
X4205500Y2339000D01*
X4188000D01*
G01X4205500D02*
X4216000Y2310000D01*
G01X4250000D02*
Y2370000D01*
X4241600Y2358000D01*
G01Y2310000D02*
X4258400D01*
G01X4282600Y2319000D02*
X4286800Y2314000D01*
X4291700Y2311000D01*
X4298000Y2310000D01*
X4304300Y2312000D01*
X4309200Y2316000D01*
X4312700Y2323000D01*
X4313400Y2331000D01*
X4312000Y2339000D01*
X4308500Y2344000D01*
X4303600Y2348000D01*
X4298700Y2349000D01*
X4293800Y2348000D01*
X4287500Y2344000D01*
X4289600Y2370000D01*
X4308500D01*
G01X4687400Y3405000D02*
X4683200Y3408000D01*
X4678300Y3410000D01*
X4672700D01*
X4666400Y3407000D01*
X4661500Y3402000D01*
X4658000Y3396000D01*
X4655200Y3386000D01*
X4654500Y3377000D01*
X4655900Y3368000D01*
X4658000Y3362000D01*
X4662200Y3356000D01*
X4667100Y3352000D01*
X4672000Y3350000D01*
X4676900D01*
X4681800Y3352000D01*
X4686000Y3355000D01*
X4689500Y3359000D01*
G01X4704600Y3362000D02*
X4708800Y3355000D01*
X4714400Y3351000D01*
X4720700Y3350000D01*
X4726300Y3351000D01*
X4731900Y3356000D01*
X4735400Y3362000D01*
X4736100Y3368000D01*
X4734700Y3375000D01*
X4729800Y3380000D01*
X4724900Y3382000D01*
X4718600D01*
G01X4724900D02*
X4729100Y3385000D01*
X4732600Y3390000D01*
X4734000Y3396000D01*
X4732600Y3402000D01*
X4729100Y3407000D01*
X4722800Y3410000D01*
X4716500Y3409000D01*
X4710200Y3405000D01*
G01X4754700Y3400000D02*
X4758900Y3406000D01*
X4763800Y3409000D01*
X4769400Y3410000D01*
X4776400Y3408000D01*
X4781300Y3403000D01*
X4782700Y3397000D01*
X4782000Y3391000D01*
X4779200Y3386000D01*
X4765200Y3376000D01*
X4758900Y3369000D01*
X4754700Y3359000D01*
X4753300Y3350000D01*
X4782700D01*
G01X4250000Y3182000D02*
X4190000D01*
Y3199500D01*
X4193000Y3205100D01*
X4197000Y3208600D01*
X4205000Y3210000D01*
X4213000Y3208600D01*
X4218000Y3204400D01*
X4221000Y3199500D01*
Y3182000D01*
G01Y3199500D02*
X4250000Y3210000D01*
G01X4238000Y3228600D02*
X4245000Y3232800D01*
X4249000Y3238400D01*
X4250000Y3244700D01*
X4249000Y3250300D01*
X4244000Y3255900D01*
X4238000Y3259400D01*
X4232000Y3260100D01*
X4225000Y3258700D01*
X4220000Y3253800D01*
X4218000Y3248900D01*
Y3242600D01*
G01Y3248900D02*
X4215000Y3253100D01*
X4210000Y3256600D01*
X4204000Y3258000D01*
X4198000Y3256600D01*
X4193000Y3253100D01*
X4190000Y3246800D01*
X4191000Y3240500D01*
X4195000Y3234200D01*
G01X4250000Y2992000D02*
X4190000D01*
Y3009500D01*
X4193000Y3015100D01*
X4197000Y3018600D01*
X4205000Y3020000D01*
X4213000Y3018600D01*
X4218000Y3014400D01*
X4221000Y3009500D01*
Y2992000D01*
G01Y3009500D02*
X4250000Y3020000D01*
G01X4200000Y3040700D02*
X4194000Y3044900D01*
X4191000Y3049800D01*
X4190000Y3055400D01*
X4192000Y3062400D01*
X4197000Y3067300D01*
X4203000Y3068700D01*
X4209000Y3068000D01*
X4214000Y3065200D01*
X4224000Y3051200D01*
X4231000Y3044900D01*
X4241000Y3040700D01*
X4250000Y3039300D01*
Y3068700D01*
G01X4835000Y3121400D02*
X4832000Y3117200D01*
X4830000Y3112300D01*
Y3106700D01*
X4833000Y3100400D01*
X4838000Y3095500D01*
X4844000Y3092000D01*
X4854000Y3089200D01*
X4863000Y3088500D01*
X4872000Y3089900D01*
X4878000Y3092000D01*
X4884000Y3096200D01*
X4888000Y3101100D01*
X4890000Y3106000D01*
Y3110900D01*
X4888000Y3115800D01*
X4885000Y3120000D01*
X4881000Y3123500D01*
G01X4890000Y3154000D02*
X4830000D01*
X4842000Y3145600D01*
G01X4890000D02*
Y3162400D01*
G01X4567400Y3535000D02*
X4563200Y3538000D01*
X4558300Y3540000D01*
X4552700D01*
X4546400Y3537000D01*
X4541500Y3532000D01*
X4538000Y3526000D01*
X4535200Y3516000D01*
X4534500Y3507000D01*
X4535900Y3498000D01*
X4538000Y3492000D01*
X4542200Y3486000D01*
X4547100Y3482000D01*
X4552000Y3480000D01*
X4556900D01*
X4561800Y3482000D01*
X4566000Y3485000D01*
X4569500Y3489000D01*
G01X4584600Y3492000D02*
X4588800Y3485000D01*
X4594400Y3481000D01*
X4600700Y3480000D01*
X4606300Y3481000D01*
X4611900Y3486000D01*
X4615400Y3492000D01*
X4616100Y3498000D01*
X4614700Y3505000D01*
X4609800Y3510000D01*
X4604900Y3512000D01*
X4598600D01*
G01X4604900D02*
X4609100Y3515000D01*
X4612600Y3520000D01*
X4614000Y3526000D01*
X4612600Y3532000D01*
X4609100Y3537000D01*
X4602800Y3540000D01*
X4596500Y3539000D01*
X4590200Y3535000D01*
G01X4632600Y3492000D02*
X4636800Y3485000D01*
X4642400Y3481000D01*
X4648700Y3480000D01*
X4654300Y3481000D01*
X4659900Y3486000D01*
X4663400Y3492000D01*
X4664100Y3498000D01*
X4662700Y3505000D01*
X4657800Y3510000D01*
X4652900Y3512000D01*
X4646600D01*
G01X4652900D02*
X4657100Y3515000D01*
X4660600Y3520000D01*
X4662000Y3526000D01*
X4660600Y3532000D01*
X4657100Y3537000D01*
X4650800Y3540000D01*
X4644500Y3539000D01*
X4638200Y3535000D01*
G01X5608000Y1647000D02*
X5614000Y1650500D01*
X5618000Y1654700D01*
X5620000Y1659600D01*
X5618000Y1665200D01*
X5614000Y1669400D01*
X5608000Y1673600D01*
X5600000Y1675000D01*
X5560000D01*
G01X5620000Y1717400D02*
X5560000D01*
X5603000Y1691500D01*
Y1726500D01*
G01X5660000Y1630000D02*
Y2135000D01*
X7265000D01*
Y1630000D01*
X5660000D01*
G01X5670000Y3080000D02*
X5710000D01*
G01X5670000Y3280000D02*
X5710000D01*
G01X5132000Y3210000D02*
Y3270000D01*
X5149500D01*
X5155100Y3267000D01*
X5158600Y3263000D01*
X5160000Y3255000D01*
X5158600Y3247000D01*
X5154400Y3242000D01*
X5149500Y3239000D01*
X5132000D01*
G01X5149500D02*
X5160000Y3210000D01*
G01X5194000D02*
Y3270000D01*
X5185600Y3258000D01*
G01Y3210000D02*
X5202400D01*
G01X5588000Y4750000D02*
Y4810000D01*
X5605500D01*
X5611100Y4807000D01*
X5614600Y4803000D01*
X5616000Y4795000D01*
X5614600Y4787000D01*
X5610400Y4782000D01*
X5605500Y4779000D01*
X5588000D01*
G01X5605500D02*
X5616000Y4750000D01*
G01X5650000D02*
Y4810000D01*
X5641600Y4798000D01*
G01Y4750000D02*
X5658400D01*
G01X5682600Y4762000D02*
X5686800Y4755000D01*
X5692400Y4751000D01*
X5698700Y4750000D01*
X5704300Y4751000D01*
X5709900Y4756000D01*
X5713400Y4762000D01*
X5714100Y4768000D01*
X5712700Y4775000D01*
X5707800Y4780000D01*
X5702900Y4782000D01*
X5696600D01*
G01X5702900D02*
X5707100Y4785000D01*
X5710600Y4790000D01*
X5712000Y4796000D01*
X5710600Y4802000D01*
X5707100Y4807000D01*
X5700800Y4810000D01*
X5694500Y4809000D01*
X5688200Y4805000D01*
G01X6338000Y2310000D02*
Y2370000D01*
X6355500D01*
X6361100Y2367000D01*
X6364600Y2363000D01*
X6366000Y2355000D01*
X6364600Y2347000D01*
X6360400Y2342000D01*
X6355500Y2339000D01*
X6338000D01*
G01X6355500D02*
X6366000Y2310000D01*
G01X6400000D02*
Y2370000D01*
X6391600Y2358000D01*
G01Y2310000D02*
X6408400D01*
G01X6446600D02*
X6448000Y2323000D01*
X6450100Y2334000D01*
X6452900Y2344000D01*
X6456400Y2355000D01*
X6462000Y2370000D01*
X6434000D01*
G01X5740600Y3030000D02*
Y3090000D01*
X5754600D01*
X5760200Y3087000D01*
X5764400Y3083000D01*
X5767900Y3077000D01*
X5770700Y3070000D01*
X5771400Y3060000D01*
X5770700Y3050000D01*
X5767900Y3043000D01*
X5764400Y3037000D01*
X5760200Y3033000D01*
X5754600Y3030000D01*
X5740600D01*
G01X5788600Y3039000D02*
X5792800Y3034000D01*
X5797700Y3031000D01*
X5804000Y3030000D01*
X5810300Y3032000D01*
X5815200Y3036000D01*
X5818700Y3043000D01*
X5819400Y3051000D01*
X5818000Y3059000D01*
X5814500Y3064000D01*
X5809600Y3068000D01*
X5804700Y3069000D01*
X5799800Y3068000D01*
X5793500Y3064000D01*
X5795600Y3090000D01*
X5814500D01*
G01X5690000Y3100000D02*
Y3060000D01*
G01Y3300000D02*
Y3260000D01*
G01X6098000Y3030000D02*
Y3090000D01*
X6115500D01*
X6121100Y3087000D01*
X6124600Y3083000D01*
X6126000Y3075000D01*
X6124600Y3067000D01*
X6120400Y3062000D01*
X6115500Y3059000D01*
X6098000D01*
G01X6115500D02*
X6126000Y3030000D01*
G01X6146700Y3080000D02*
X6150900Y3086000D01*
X6155800Y3089000D01*
X6161400Y3090000D01*
X6168400Y3088000D01*
X6173300Y3083000D01*
X6174700Y3077000D01*
X6174000Y3071000D01*
X6171200Y3066000D01*
X6157200Y3056000D01*
X6150900Y3049000D01*
X6146700Y3039000D01*
X6145300Y3030000D01*
X6174700D01*
G01X6196100Y3037000D02*
X6201000Y3032000D01*
X6206600Y3030000D01*
X6212200Y3032000D01*
X6217100Y3038000D01*
X6220600Y3047000D01*
X6222000Y3056000D01*
Y3067000D01*
X6220600Y3076000D01*
X6217100Y3084000D01*
X6212900Y3088000D01*
X6208000Y3090000D01*
X6202400Y3088000D01*
X6198200Y3084000D01*
X6195400Y3078000D01*
X6194000Y3070000D01*
X6195400Y3063000D01*
X6198900Y3056000D01*
X6203100Y3052000D01*
X6208000Y3051000D01*
X6213600Y3053000D01*
X6217800Y3058000D01*
X6222000Y3067000D01*
G01X5740600Y3480000D02*
Y3540000D01*
X5754600D01*
X5760200Y3537000D01*
X5764400Y3533000D01*
X5767900Y3527000D01*
X5770700Y3520000D01*
X5771400Y3510000D01*
X5770700Y3500000D01*
X5767900Y3493000D01*
X5764400Y3487000D01*
X5760200Y3483000D01*
X5754600Y3480000D01*
X5740600D01*
G01X5790700Y3505000D02*
X5795600Y3512000D01*
X5799800Y3516000D01*
X5805400Y3518000D01*
X5810300Y3516000D01*
X5813800Y3512000D01*
X5816600Y3506000D01*
X5817300Y3499000D01*
X5816600Y3493000D01*
X5813800Y3487000D01*
X5809600Y3482000D01*
X5804700Y3480000D01*
X5799100Y3482000D01*
X5794200Y3488000D01*
X5791400Y3497000D01*
X5790700Y3507000D01*
X5792100Y3520000D01*
X5794200Y3527000D01*
X5797700Y3534000D01*
X5802600Y3539000D01*
X5807500Y3540000D01*
X5812400Y3538000D01*
X5815900Y3533000D01*
G01X6098000Y3480000D02*
Y3540000D01*
X6115500D01*
X6121100Y3537000D01*
X6124600Y3533000D01*
X6126000Y3525000D01*
X6124600Y3517000D01*
X6120400Y3512000D01*
X6115500Y3509000D01*
X6098000D01*
G01X6115500D02*
X6126000Y3480000D01*
G01X6144600Y3492000D02*
X6148800Y3485000D01*
X6154400Y3481000D01*
X6160700Y3480000D01*
X6166300Y3481000D01*
X6171900Y3486000D01*
X6175400Y3492000D01*
X6176100Y3498000D01*
X6174700Y3505000D01*
X6169800Y3510000D01*
X6164900Y3512000D01*
X6158600D01*
G01X6164900D02*
X6169100Y3515000D01*
X6172600Y3520000D01*
X6174000Y3526000D01*
X6172600Y3532000D01*
X6169100Y3537000D01*
X6162800Y3540000D01*
X6156500Y3539000D01*
X6150200Y3535000D01*
G01X6208000Y3540000D02*
X6202400Y3538000D01*
X6198200Y3533000D01*
X6195400Y3527000D01*
X6193300Y3519000D01*
X6192600Y3510000D01*
X6193300Y3501000D01*
X6195400Y3493000D01*
X6198200Y3487000D01*
X6202400Y3482000D01*
X6208000Y3480000D01*
X6213600Y3482000D01*
X6217800Y3487000D01*
X6220600Y3493000D01*
X6222700Y3501000D01*
X6223400Y3510000D01*
X6222700Y3519000D01*
X6220600Y3527000D01*
X6217800Y3533000D01*
X6213600Y3538000D01*
X6208000Y3540000D01*
G01X6075000Y4246000D02*
X6015000D01*
X6027000Y4237600D01*
G01X6075000D02*
Y4254400D01*
G01Y4302400D02*
X6015000D01*
X6058000Y4276500D01*
Y4311500D01*
G01X5838000Y4660000D02*
Y4720000D01*
X5855500D01*
X5861100Y4717000D01*
X5864600Y4713000D01*
X5866000Y4705000D01*
X5864600Y4697000D01*
X5860400Y4692000D01*
X5855500Y4689000D01*
X5838000D01*
G01X5855500D02*
X5866000Y4660000D01*
G01X5900000D02*
Y4720000D01*
X5891600Y4708000D01*
G01Y4660000D02*
X5908400D01*
G01X5934700Y4710000D02*
X5938900Y4716000D01*
X5943800Y4719000D01*
X5949400Y4720000D01*
X5956400Y4718000D01*
X5961300Y4713000D01*
X5962700Y4707000D01*
X5962000Y4701000D01*
X5959200Y4696000D01*
X5945200Y4686000D01*
X5938900Y4679000D01*
X5934700Y4669000D01*
X5933300Y4660000D01*
X5962700D01*
G01X5788000Y4992000D02*
X5791500Y4986000D01*
X5795700Y4982000D01*
X5800600Y4980000D01*
X5806200Y4982000D01*
X5810400Y4986000D01*
X5814600Y4992000D01*
X5816000Y5000000D01*
Y5040000D01*
G01X5834600Y4992000D02*
X5838800Y4985000D01*
X5844400Y4981000D01*
X5850700Y4980000D01*
X5856300Y4981000D01*
X5861900Y4986000D01*
X5865400Y4992000D01*
X5866100Y4998000D01*
X5864700Y5005000D01*
X5859800Y5010000D01*
X5854900Y5012000D01*
X5848600D01*
G01X5854900D02*
X5859100Y5015000D01*
X5862600Y5020000D01*
X5864000Y5026000D01*
X5862600Y5032000D01*
X5859100Y5037000D01*
X5852800Y5040000D01*
X5846500Y5039000D01*
X5840200Y5035000D01*
G01X7025000Y3657700D02*
X7019000Y3661900D01*
X7016000Y3666800D01*
X7015000Y3672400D01*
X7017000Y3679400D01*
X7022000Y3684300D01*
X7028000Y3685700D01*
X7034000Y3685000D01*
X7039000Y3682200D01*
X7049000Y3668200D01*
X7056000Y3661900D01*
X7066000Y3657700D01*
X7075000Y3656300D01*
Y3685700D01*
G01Y3719000D02*
X7074000Y3723900D01*
X7071000Y3729500D01*
X7066000Y3733000D01*
X7059000Y3734400D01*
X7052000Y3733000D01*
X7046000Y3728800D01*
X7043000Y3722500D01*
Y3715500D01*
X7041000Y3711300D01*
X7036000Y3707800D01*
X7029000Y3706400D01*
X7022000Y3708500D01*
X7017000Y3713400D01*
X7015000Y3719000D01*
X7017000Y3724600D01*
X7022000Y3729500D01*
X7029000Y3731600D01*
X7036000Y3730200D01*
X7041000Y3726700D01*
X7043000Y3722500D01*
Y3715500D01*
X7046000Y3709200D01*
X7052000Y3705000D01*
X7059000Y3703600D01*
X7066000Y3705000D01*
X7071000Y3708500D01*
X7074000Y3714100D01*
X7075000Y3719000D01*
G01X7127400Y3965000D02*
X7123200Y3968000D01*
X7118300Y3970000D01*
X7112700D01*
X7106400Y3967000D01*
X7101500Y3962000D01*
X7098000Y3956000D01*
X7095200Y3946000D01*
X7094500Y3937000D01*
X7095900Y3928000D01*
X7098000Y3922000D01*
X7102200Y3916000D01*
X7107100Y3912000D01*
X7112000Y3910000D01*
X7116900D01*
X7121800Y3912000D01*
X7126000Y3915000D01*
X7129500Y3919000D01*
G01X7144600Y3922000D02*
X7148800Y3915000D01*
X7154400Y3911000D01*
X7160700Y3910000D01*
X7166300Y3911000D01*
X7171900Y3916000D01*
X7175400Y3922000D01*
X7176100Y3928000D01*
X7174700Y3935000D01*
X7169800Y3940000D01*
X7164900Y3942000D01*
X7158600D01*
G01X7164900D02*
X7169100Y3945000D01*
X7172600Y3950000D01*
X7174000Y3956000D01*
X7172600Y3962000D01*
X7169100Y3967000D01*
X7162800Y3970000D01*
X7156500Y3969000D01*
X7150200Y3965000D01*
G01X7216400Y3910000D02*
Y3970000D01*
X7190500Y3927000D01*
X7225500D01*
G01X7022600Y4320000D02*
X7039400D01*
G01X7031000D02*
Y4260000D01*
G01X7022600D02*
X7039400D01*
G01X7094400Y4315000D02*
X7090200Y4318000D01*
X7085300Y4320000D01*
X7079700D01*
X7073400Y4317000D01*
X7068500Y4312000D01*
X7065000Y4306000D01*
X7062200Y4296000D01*
X7061500Y4287000D01*
X7062900Y4278000D01*
X7065000Y4272000D01*
X7069200Y4266000D01*
X7074100Y4262000D01*
X7079000Y4260000D01*
X7083900D01*
X7088800Y4262000D01*
X7093000Y4265000D01*
X7096500Y4269000D01*
G01X7111600D02*
X7115800Y4264000D01*
X7120700Y4261000D01*
X7127000Y4260000D01*
X7133300Y4262000D01*
X7138200Y4266000D01*
X7141700Y4273000D01*
X7142400Y4281000D01*
X7141000Y4289000D01*
X7137500Y4294000D01*
X7132600Y4298000D01*
X7127700Y4299000D01*
X7122800Y4298000D01*
X7116500Y4294000D01*
X7118600Y4320000D01*
X7137500D01*
G01X7397400Y2345000D02*
X7393200Y2348000D01*
X7388300Y2350000D01*
X7382700D01*
X7376400Y2347000D01*
X7371500Y2342000D01*
X7368000Y2336000D01*
X7365200Y2326000D01*
X7364500Y2317000D01*
X7365900Y2308000D01*
X7368000Y2302000D01*
X7372200Y2296000D01*
X7377100Y2292000D01*
X7382000Y2290000D01*
X7386900D01*
X7391800Y2292000D01*
X7396000Y2295000D01*
X7399500Y2299000D01*
G01X7430000Y2290000D02*
Y2350000D01*
X7421600Y2338000D01*
G01Y2290000D02*
X7438400D01*
G01X7462600Y2302000D02*
X7466800Y2295000D01*
X7472400Y2291000D01*
X7478700Y2290000D01*
X7484300Y2291000D01*
X7489900Y2296000D01*
X7493400Y2302000D01*
X7494100Y2308000D01*
X7492700Y2315000D01*
X7487800Y2320000D01*
X7482900Y2322000D01*
X7476600D01*
G01X7482900D02*
X7487100Y2325000D01*
X7490600Y2330000D01*
X7492000Y2336000D01*
X7490600Y2342000D01*
X7487100Y2347000D01*
X7480800Y2350000D01*
X7474500Y2349000D01*
X7468200Y2345000D01*
G01X7617400D02*
X7613200Y2348000D01*
X7608300Y2350000D01*
X7602700D01*
X7596400Y2347000D01*
X7591500Y2342000D01*
X7588000Y2336000D01*
X7585200Y2326000D01*
X7584500Y2317000D01*
X7585900Y2308000D01*
X7588000Y2302000D01*
X7592200Y2296000D01*
X7597100Y2292000D01*
X7602000Y2290000D01*
X7606900D01*
X7611800Y2292000D01*
X7616000Y2295000D01*
X7619500Y2299000D01*
G01X7650000Y2290000D02*
Y2350000D01*
X7641600Y2338000D01*
G01Y2290000D02*
X7658400D01*
G01X7684700Y2340000D02*
X7688900Y2346000D01*
X7693800Y2349000D01*
X7699400Y2350000D01*
X7706400Y2348000D01*
X7711300Y2343000D01*
X7712700Y2337000D01*
X7712000Y2331000D01*
X7709200Y2326000D01*
X7695200Y2316000D01*
X7688900Y2309000D01*
X7684700Y2299000D01*
X7683300Y2290000D01*
X7712700D01*
G01X7877400Y2345000D02*
X7873200Y2348000D01*
X7868300Y2350000D01*
X7862700D01*
X7856400Y2347000D01*
X7851500Y2342000D01*
X7848000Y2336000D01*
X7845200Y2326000D01*
X7844500Y2317000D01*
X7845900Y2308000D01*
X7848000Y2302000D01*
X7852200Y2296000D01*
X7857100Y2292000D01*
X7862000Y2290000D01*
X7866900D01*
X7871800Y2292000D01*
X7876000Y2295000D01*
X7879500Y2299000D01*
G01X7910000Y2290000D02*
Y2350000D01*
X7901600Y2338000D01*
G01Y2290000D02*
X7918400D01*
G01X7958000D02*
Y2350000D01*
X7949600Y2338000D01*
G01Y2290000D02*
X7966400D01*
G01X7283600Y3260000D02*
X7300400D01*
G01X7292000D02*
Y3200000D01*
G01X7283600D02*
X7300400D01*
G01X7355400Y3255000D02*
X7351200Y3258000D01*
X7346300Y3260000D01*
X7340700D01*
X7334400Y3257000D01*
X7329500Y3252000D01*
X7326000Y3246000D01*
X7323200Y3236000D01*
X7322500Y3227000D01*
X7323900Y3218000D01*
X7326000Y3212000D01*
X7330200Y3206000D01*
X7335100Y3202000D01*
X7340000Y3200000D01*
X7344900D01*
X7349800Y3202000D01*
X7354000Y3205000D01*
X7357500Y3209000D01*
G01X7372600Y3212000D02*
X7376800Y3205000D01*
X7382400Y3201000D01*
X7388700Y3200000D01*
X7394300Y3201000D01*
X7399900Y3206000D01*
X7403400Y3212000D01*
X7404100Y3218000D01*
X7402700Y3225000D01*
X7397800Y3230000D01*
X7392900Y3232000D01*
X7386600D01*
G01X7392900D02*
X7397100Y3235000D01*
X7400600Y3240000D01*
X7402000Y3246000D01*
X7400600Y3252000D01*
X7397100Y3257000D01*
X7390800Y3260000D01*
X7384500Y3259000D01*
X7378200Y3255000D01*
G01X7557400Y3695000D02*
X7553200Y3698000D01*
X7548300Y3700000D01*
X7542700D01*
X7536400Y3697000D01*
X7531500Y3692000D01*
X7528000Y3686000D01*
X7525200Y3676000D01*
X7524500Y3667000D01*
X7525900Y3658000D01*
X7528000Y3652000D01*
X7532200Y3646000D01*
X7537100Y3642000D01*
X7542000Y3640000D01*
X7546900D01*
X7551800Y3642000D01*
X7556000Y3645000D01*
X7559500Y3649000D01*
G01X7590000Y3640000D02*
Y3700000D01*
X7581600Y3688000D01*
G01Y3640000D02*
X7598400D01*
G01X7622600Y3649000D02*
X7626800Y3644000D01*
X7631700Y3641000D01*
X7638000Y3640000D01*
X7644300Y3642000D01*
X7649200Y3646000D01*
X7652700Y3653000D01*
X7653400Y3661000D01*
X7652000Y3669000D01*
X7648500Y3674000D01*
X7643600Y3678000D01*
X7638700Y3679000D01*
X7633800Y3678000D01*
X7627500Y3674000D01*
X7629600Y3700000D01*
X7648500D01*
G01X7787400Y3525000D02*
X7783200Y3528000D01*
X7778300Y3530000D01*
X7772700D01*
X7766400Y3527000D01*
X7761500Y3522000D01*
X7758000Y3516000D01*
X7755200Y3506000D01*
X7754500Y3497000D01*
X7755900Y3488000D01*
X7758000Y3482000D01*
X7762200Y3476000D01*
X7767100Y3472000D01*
X7772000Y3470000D01*
X7776900D01*
X7781800Y3472000D01*
X7786000Y3475000D01*
X7789500Y3479000D01*
G01X7820000Y3470000D02*
Y3530000D01*
X7811600Y3518000D01*
G01Y3470000D02*
X7828400D01*
G01X7854700Y3495000D02*
X7859600Y3502000D01*
X7863800Y3506000D01*
X7869400Y3508000D01*
X7874300Y3506000D01*
X7877800Y3502000D01*
X7880600Y3496000D01*
X7881300Y3489000D01*
X7880600Y3483000D01*
X7877800Y3477000D01*
X7873600Y3472000D01*
X7868700Y3470000D01*
X7863100Y3472000D01*
X7858200Y3478000D01*
X7855400Y3487000D01*
X7854700Y3497000D01*
X7856100Y3510000D01*
X7858200Y3517000D01*
X7861700Y3524000D01*
X7866600Y3529000D01*
X7871500Y3530000D01*
X7876400Y3528000D01*
X7879900Y3523000D01*
G01X7377400Y4105000D02*
X7373200Y4108000D01*
X7368300Y4110000D01*
X7362700D01*
X7356400Y4107000D01*
X7351500Y4102000D01*
X7348000Y4096000D01*
X7345200Y4086000D01*
X7344500Y4077000D01*
X7345900Y4068000D01*
X7348000Y4062000D01*
X7352200Y4056000D01*
X7357100Y4052000D01*
X7362000Y4050000D01*
X7366900D01*
X7371800Y4052000D01*
X7376000Y4055000D01*
X7379500Y4059000D01*
G01X7410000Y4050000D02*
Y4110000D01*
X7401600Y4098000D01*
G01Y4050000D02*
X7418400D01*
G01X7456600D02*
X7458000Y4063000D01*
X7460100Y4074000D01*
X7462900Y4084000D01*
X7466400Y4095000D01*
X7472000Y4110000D01*
X7444000D01*
G01X7590000Y3980000D02*
G03I-20000J0D01*
G01X8190000Y3940000D02*
X7530000D01*
Y4360000D01*
X8190000D01*
Y3940000D01*
G01X7475000Y4382700D02*
X7469000Y4386900D01*
X7466000Y4391800D01*
X7465000Y4397400D01*
X7467000Y4404400D01*
X7472000Y4409300D01*
X7478000Y4410700D01*
X7484000Y4410000D01*
X7489000Y4407200D01*
X7499000Y4393200D01*
X7506000Y4386900D01*
X7516000Y4382700D01*
X7525000Y4381300D01*
Y4410700D01*
G01X7465000Y4444000D02*
X7467000Y4438400D01*
X7472000Y4434200D01*
X7478000Y4431400D01*
X7486000Y4429300D01*
X7495000Y4428600D01*
X7504000Y4429300D01*
X7512000Y4431400D01*
X7518000Y4434200D01*
X7523000Y4438400D01*
X7525000Y4444000D01*
X7523000Y4449600D01*
X7518000Y4453800D01*
X7512000Y4456600D01*
X7504000Y4458700D01*
X7495000Y4459400D01*
X7486000Y4458700D01*
X7478000Y4456600D01*
X7472000Y4453800D01*
X7467000Y4449600D01*
X7465000Y4444000D01*
G01X7377400Y4585000D02*
X7373200Y4588000D01*
X7368300Y4590000D01*
X7362700D01*
X7356400Y4587000D01*
X7351500Y4582000D01*
X7348000Y4576000D01*
X7345200Y4566000D01*
X7344500Y4557000D01*
X7345900Y4548000D01*
X7348000Y4542000D01*
X7352200Y4536000D01*
X7357100Y4532000D01*
X7362000Y4530000D01*
X7366900D01*
X7371800Y4532000D01*
X7376000Y4535000D01*
X7379500Y4539000D01*
G01X7410000Y4530000D02*
Y4590000D01*
X7401600Y4578000D01*
G01Y4530000D02*
X7418400D01*
G01X7466400D02*
Y4590000D01*
X7440500Y4547000D01*
X7475500D01*
G01X7440000Y4137600D02*
Y4154400D01*
G01Y4146000D02*
X7500000D01*
G01Y4137600D02*
Y4154400D01*
G01X7445000Y4209400D02*
X7442000Y4205200D01*
X7440000Y4200300D01*
Y4194700D01*
X7443000Y4188400D01*
X7448000Y4183500D01*
X7454000Y4180000D01*
X7464000Y4177200D01*
X7473000Y4176500D01*
X7482000Y4177900D01*
X7488000Y4180000D01*
X7494000Y4184200D01*
X7498000Y4189100D01*
X7500000Y4194000D01*
Y4198900D01*
X7498000Y4203800D01*
X7495000Y4208000D01*
X7491000Y4211500D01*
G01X7500000Y4250400D02*
X7440000D01*
X7483000Y4224500D01*
Y4259500D01*
G01X8870000Y1640000D02*
X8365000D01*
Y4523000D01*
X8870000D01*
Y1640000D01*
G01X8250000Y3871000D02*
X8190000D01*
X8202000Y3862600D01*
G01X8250000D02*
Y3879400D01*
G01X8190000Y3919000D02*
X8192000Y3913400D01*
X8197000Y3909200D01*
X8203000Y3906400D01*
X8211000Y3904300D01*
X8220000Y3903600D01*
X8229000Y3904300D01*
X8237000Y3906400D01*
X8243000Y3909200D01*
X8248000Y3913400D01*
X8250000Y3919000D01*
X8248000Y3924600D01*
X8243000Y3928800D01*
X8237000Y3931600D01*
X8229000Y3933700D01*
X8220000Y3934400D01*
X8211000Y3933700D01*
X8203000Y3931600D01*
X8197000Y3928800D01*
X8192000Y3924600D01*
X8190000Y3919000D01*
G01X8037400Y3525000D02*
X8033200Y3528000D01*
X8028300Y3530000D01*
X8022700D01*
X8016400Y3527000D01*
X8011500Y3522000D01*
X8008000Y3516000D01*
X8005200Y3506000D01*
X8004500Y3497000D01*
X8005900Y3488000D01*
X8008000Y3482000D01*
X8012200Y3476000D01*
X8017100Y3472000D01*
X8022000Y3470000D01*
X8026900D01*
X8031800Y3472000D01*
X8036000Y3475000D01*
X8039500Y3479000D01*
G01X8070000Y3470000D02*
Y3530000D01*
X8061600Y3518000D01*
G01Y3470000D02*
X8078400D01*
G01X8118000D02*
X8122900Y3471000D01*
X8128500Y3474000D01*
X8132000Y3479000D01*
X8133400Y3486000D01*
X8132000Y3493000D01*
X8127800Y3499000D01*
X8121500Y3502000D01*
X8114500D01*
X8110300Y3504000D01*
X8106800Y3509000D01*
X8105400Y3516000D01*
X8107500Y3523000D01*
X8112400Y3528000D01*
X8118000Y3530000D01*
X8123600Y3528000D01*
X8128500Y3523000D01*
X8130600Y3516000D01*
X8129200Y3509000D01*
X8125700Y3504000D01*
X8121500Y3502000D01*
X8114500D01*
X8108200Y3499000D01*
X8104000Y3493000D01*
X8102600Y3486000D01*
X8104000Y3479000D01*
X8107500Y3474000D01*
X8113100Y3471000D01*
X8118000Y3470000D01*
G01X8357000Y4562000D02*
X8360500Y4556000D01*
X8364700Y4552000D01*
X8369600Y4550000D01*
X8375200Y4552000D01*
X8379400Y4556000D01*
X8383600Y4562000D01*
X8385000Y4570000D01*
Y4610000D01*
G01X8403600Y4559000D02*
X8407800Y4554000D01*
X8412700Y4551000D01*
X8419000Y4550000D01*
X8425300Y4552000D01*
X8430200Y4556000D01*
X8433700Y4563000D01*
X8434400Y4571000D01*
X8433000Y4579000D01*
X8429500Y4584000D01*
X8424600Y4588000D01*
X8419700Y4589000D01*
X8414800Y4588000D01*
X8408500Y4584000D01*
X8410600Y4610000D01*
X8429500D01*
G54D11*
G01X700000Y3000000D02*
Y4400000D01*
X2100000D01*
Y3000000D01*
X700000D01*
G01X2193000Y1700000D02*
X2192000D01*
G02X1950000Y1942000I0J242000D01*
G02X2193000Y2185000I243000J0D01*
G01X2833000D01*
G02X3075000Y1943000I0J-242000D01*
G02X2832000Y1700000I-243000J0D01*
G01X2192000D01*
G01X3200000Y2525000D02*
X3900000D01*
G01X3200000Y3225000D02*
Y2525000D01*
G01X3900000Y3225000D02*
X3200000D01*
G01X3900000Y2525000D02*
Y3225000D01*
G01X3700000Y3600000D02*
X5326000D01*
Y5759000D01*
X3700000D01*
Y3600000D01*
G01X7030000Y4200000D02*
X6060000D01*
Y3760000D01*
X7030000D01*
Y4200000D01*
G54D12*
G01X145000Y5520000D02*
X3225000D01*
G01X795000Y5537000D02*
Y6027000D01*
G02X905000Y6137000I110000J0D01*
G01X2465000D01*
G02X2575000Y6027000I0J-110000D01*
G01Y5537000D01*
X2571000D01*
G01X6426000D02*
Y6027000D01*
G02X6536000Y6137000I110000J0D01*
G01X8096000D01*
G02X8206000Y6027000I0J-110000D01*
G01Y5537000D01*
X8202000D01*
G01X5776000Y5520000D02*
X8856000D01*
G54D13*
G01X-3226900Y1750000D02*
Y1930000D01*
X-3147100D01*
G01X-3176500Y1843000D02*
X-3226900D01*
G01X-3068200Y1930000D02*
X-3017800D01*
G01X-3043000D02*
Y1750000D01*
G01X-3068200D02*
X-3017800D01*
G01X-2945200D02*
Y1930000D01*
X-2903200D01*
X-2886400Y1921000D01*
X-2873800Y1909000D01*
X-2863300Y1891000D01*
X-2854900Y1870000D01*
X-2852800Y1840000D01*
X-2854900Y1810000D01*
X-2863300Y1789000D01*
X-2873800Y1771000D01*
X-2886400Y1759000D01*
X-2903200Y1750000D01*
X-2945200D01*
G01X-2665600D02*
Y1930000D01*
X-2611000Y1780000D01*
X-2556400Y1930000D01*
Y1750000D01*
G01X-2519500D02*
X-2467000Y1930000D01*
X-2414500Y1750000D01*
G01X-2433400Y1813000D02*
X-2500600D01*
G01X-2365000Y1750000D02*
Y1930000D01*
X-2312500D01*
X-2295700Y1921000D01*
X-2285200Y1909000D01*
X-2281000Y1885000D01*
X-2285200Y1861000D01*
X-2297800Y1846000D01*
X-2312500Y1837000D01*
X-2365000D01*
G01X-2312500D02*
X-2281000Y1750000D01*
G01X-2225200D02*
Y1930000D01*
G01X-2145400D02*
X-2225200Y1819000D01*
G01X-2132800Y1750000D02*
X-2189500Y1870000D01*
G01X-1901500Y1690000D02*
X-1922500Y1720000D01*
X-1933000Y1750000D01*
Y1870000D01*
X-1922500Y1900000D01*
X-1901500Y1930000D01*
G01X-1793200Y1786000D02*
X-1780600Y1765000D01*
X-1763800Y1753000D01*
X-1744900Y1750000D01*
X-1728100Y1753000D01*
X-1711300Y1768000D01*
X-1700800Y1786000D01*
X-1698700Y1804000D01*
X-1702900Y1824990D01*
X-1717600Y1840000D01*
X-1732300Y1846000D01*
X-1751200D01*
G01X-1732300D02*
X-1719700Y1855000D01*
X-1709200Y1870000D01*
X-1705000Y1888000D01*
X-1709200Y1906000D01*
X-1719700Y1921000D01*
X-1738600Y1930000D01*
X-1757500Y1927000D01*
X-1776400Y1915000D01*
G01X-1603000Y1744000D02*
X-1607200Y1747000D01*
Y1753000D01*
X-1603000Y1756000D01*
X-1598800Y1753000D01*
Y1747000D01*
X-1603000Y1744000D01*
G01X-1459000Y1930000D02*
X-1475800Y1924000D01*
X-1488400Y1909000D01*
X-1496800Y1891000D01*
X-1503100Y1867000D01*
X-1505200Y1840000D01*
X-1503100Y1813000D01*
X-1496800Y1789000D01*
X-1488400Y1771000D01*
X-1475800Y1756000D01*
X-1459000Y1750000D01*
X-1442200Y1756000D01*
X-1429600Y1771000D01*
X-1421200Y1789000D01*
X-1414900Y1813000D01*
X-1412800Y1840000D01*
X-1414900Y1867000D01*
X-1421200Y1891000D01*
X-1429600Y1909000D01*
X-1442200Y1924000D01*
X-1459000Y1930000D01*
G01X-1315000D02*
X-1331800Y1924000D01*
X-1344400Y1909000D01*
X-1352800Y1891000D01*
X-1359100Y1867000D01*
X-1361200Y1840000D01*
X-1359100Y1813000D01*
X-1352800Y1789000D01*
X-1344400Y1771000D01*
X-1331800Y1756000D01*
X-1315000Y1750000D01*
X-1298200Y1756000D01*
X-1285600Y1771000D01*
X-1277200Y1789000D01*
X-1270900Y1813000D01*
X-1268800Y1840000D01*
X-1270900Y1867000D01*
X-1277200Y1891000D01*
X-1285600Y1909000D01*
X-1298200Y1924000D01*
X-1315000Y1930000D01*
G01X-1175200Y1717000D02*
X-1166800Y1756000D01*
G01X-883000Y1750000D02*
Y1930000D01*
X-908200Y1894000D01*
G01Y1750000D02*
X-857800D01*
G01X-739000D02*
X-724300Y1753000D01*
X-707500Y1762000D01*
X-697000Y1776990D01*
X-692800Y1798000D01*
X-697000Y1819000D01*
X-709600Y1837000D01*
X-728500Y1846000D01*
X-749500D01*
X-762100Y1852000D01*
X-772600Y1867000D01*
X-776800Y1888000D01*
X-770500Y1909000D01*
X-755800Y1924000D01*
X-739000Y1930000D01*
X-722200Y1924000D01*
X-707500Y1909000D01*
X-701200Y1888000D01*
X-705400Y1867000D01*
X-715900Y1852000D01*
X-728500Y1846000D01*
X-749500D01*
X-768400Y1837000D01*
X-781000Y1819000D01*
X-785200Y1798000D01*
X-781000Y1776990D01*
X-770500Y1762000D01*
X-753700Y1753000D01*
X-739000Y1750000D01*
G01X-595000Y1744000D02*
X-599200Y1747000D01*
Y1753000D01*
X-595000Y1756000D01*
X-590800Y1753000D01*
Y1747000D01*
X-595000Y1744000D01*
G01X-451000Y1930000D02*
X-467800Y1924000D01*
X-480400Y1909000D01*
X-488800Y1891000D01*
X-495100Y1867000D01*
X-497200Y1840000D01*
X-495100Y1813000D01*
X-488800Y1789000D01*
X-480400Y1771000D01*
X-467800Y1756000D01*
X-451000Y1750000D01*
X-434200Y1756000D01*
X-421600Y1771000D01*
X-413200Y1789000D01*
X-406900Y1813000D01*
X-404800Y1840000D01*
X-406900Y1867000D01*
X-413200Y1891000D01*
X-421600Y1909000D01*
X-434200Y1924000D01*
X-451000Y1930000D01*
G01X-307000D02*
X-323800Y1924000D01*
X-336400Y1909000D01*
X-344800Y1891000D01*
X-351100Y1867000D01*
X-353200Y1840000D01*
X-351100Y1813000D01*
X-344800Y1789000D01*
X-336400Y1771000D01*
X-323800Y1756000D01*
X-307000Y1750000D01*
X-290200Y1756000D01*
X-277600Y1771000D01*
X-269200Y1789000D01*
X-262900Y1813000D01*
X-260800Y1840000D01*
X-262900Y1867000D01*
X-269200Y1891000D01*
X-277600Y1909000D01*
X-290200Y1924000D01*
X-307000Y1930000D01*
G01X-152500Y1690000D02*
X-131500Y1720000D01*
X-121000Y1750000D01*
Y1870000D01*
X-131500Y1900000D01*
X-152500Y1930000D01*
G01X9173100Y4750000D02*
Y4930000D01*
X9252900D01*
G01X9223500Y4843000D02*
X9173100D01*
G01X9331800Y4930000D02*
X9382200D01*
G01X9357000D02*
Y4750000D01*
G01X9331800D02*
X9382200D01*
G01X9454800D02*
Y4930000D01*
X9496800D01*
X9513600Y4921000D01*
X9526200Y4909000D01*
X9536700Y4891000D01*
X9545100Y4870000D01*
X9547200Y4840000D01*
X9545100Y4810000D01*
X9536700Y4789000D01*
X9526200Y4771000D01*
X9513600Y4759000D01*
X9496800Y4750000D01*
X9454800D01*
G01X9734400D02*
Y4930000D01*
X9789000Y4780000D01*
X9843600Y4930000D01*
Y4750000D01*
G01X9880500D02*
X9933000Y4930000D01*
X9985500Y4750000D01*
G01X9966600Y4813000D02*
X9899400D01*
G01X10035000Y4750000D02*
Y4930000D01*
X10087500D01*
X10104300Y4921000D01*
X10114800Y4909000D01*
X10119000Y4885000D01*
X10114800Y4861000D01*
X10102200Y4846000D01*
X10087500Y4837000D01*
X10035000D01*
G01X10087500D02*
X10119000Y4750000D01*
G01X10174800D02*
Y4930000D01*
G01X10254600D02*
X10174800Y4819000D01*
G01X10267200Y4750000D02*
X10210500Y4870000D01*
G01X10498500Y4690000D02*
X10477500Y4720000D01*
X10467000Y4750000D01*
Y4870000D01*
X10477500Y4900000D01*
X10498500Y4930000D01*
G01X10653000Y4750000D02*
X10667700Y4753000D01*
X10684500Y4762000D01*
X10695000Y4776990D01*
X10699200Y4798000D01*
X10695000Y4819000D01*
X10682400Y4837000D01*
X10663500Y4846000D01*
X10642500D01*
X10629900Y4852000D01*
X10619400Y4867000D01*
X10615200Y4888000D01*
X10621500Y4909000D01*
X10636200Y4924000D01*
X10653000Y4930000D01*
X10669800Y4924000D01*
X10684500Y4909000D01*
X10690800Y4888000D01*
X10686600Y4867000D01*
X10676100Y4852000D01*
X10663500Y4846000D01*
X10642500D01*
X10623600Y4837000D01*
X10611000Y4819000D01*
X10606800Y4798000D01*
X10611000Y4776990D01*
X10621500Y4762000D01*
X10638300Y4753000D01*
X10653000Y4750000D01*
G01X10792800D02*
X10797000Y4789000D01*
X10803300Y4822000D01*
X10811700Y4852000D01*
X10822200Y4885000D01*
X10839000Y4930000D01*
X10755000D01*
G01X10941000Y4744000D02*
X10936800Y4747000D01*
Y4753000D01*
X10941000Y4756000D01*
X10945200Y4753000D01*
Y4747000D01*
X10941000Y4744000D01*
G01X11085000Y4930000D02*
X11068200Y4924000D01*
X11055600Y4909000D01*
X11047200Y4891000D01*
X11040900Y4867000D01*
X11038800Y4840000D01*
X11040900Y4813000D01*
X11047200Y4789000D01*
X11055600Y4771000D01*
X11068200Y4756000D01*
X11085000Y4750000D01*
X11101800Y4756000D01*
X11114400Y4771000D01*
X11122800Y4789000D01*
X11129100Y4813000D01*
X11131200Y4840000D01*
X11129100Y4867000D01*
X11122800Y4891000D01*
X11114400Y4909000D01*
X11101800Y4924000D01*
X11085000Y4930000D01*
G01X11229000D02*
X11212200Y4924000D01*
X11199600Y4909000D01*
X11191200Y4891000D01*
X11184900Y4867000D01*
X11182800Y4840000D01*
X11184900Y4813000D01*
X11191200Y4789000D01*
X11199600Y4771000D01*
X11212200Y4756000D01*
X11229000Y4750000D01*
X11245800Y4756000D01*
X11258400Y4771000D01*
X11266800Y4789000D01*
X11273100Y4813000D01*
X11275200Y4840000D01*
X11273100Y4867000D01*
X11266800Y4891000D01*
X11258400Y4909000D01*
X11245800Y4924000D01*
X11229000Y4930000D01*
G01X11368800Y4717000D02*
X11377200Y4756000D01*
G01X11686200Y4750000D02*
Y4930000D01*
X11608500Y4801000D01*
X11713500D01*
G01X11805000Y4750000D02*
X11819700Y4753000D01*
X11836500Y4762000D01*
X11847000Y4776990D01*
X11851200Y4798000D01*
X11847000Y4819000D01*
X11834400Y4837000D01*
X11815500Y4846000D01*
X11794500D01*
X11781900Y4852000D01*
X11771400Y4867000D01*
X11767200Y4888000D01*
X11773500Y4909000D01*
X11788200Y4924000D01*
X11805000Y4930000D01*
X11821800Y4924000D01*
X11836500Y4909000D01*
X11842800Y4888000D01*
X11838600Y4867000D01*
X11828100Y4852000D01*
X11815500Y4846000D01*
X11794500D01*
X11775600Y4837000D01*
X11763000Y4819000D01*
X11758800Y4798000D01*
X11763000Y4776990D01*
X11773500Y4762000D01*
X11790300Y4753000D01*
X11805000Y4750000D01*
G01X11949000Y4744000D02*
X11944800Y4747000D01*
Y4753000D01*
X11949000Y4756000D01*
X11953200Y4753000D01*
Y4747000D01*
X11949000Y4744000D01*
G01X12093000Y4930000D02*
X12076200Y4924000D01*
X12063600Y4909000D01*
X12055200Y4891000D01*
X12048900Y4867000D01*
X12046800Y4840000D01*
X12048900Y4813000D01*
X12055200Y4789000D01*
X12063600Y4771000D01*
X12076200Y4756000D01*
X12093000Y4750000D01*
X12109800Y4756000D01*
X12122400Y4771000D01*
X12130800Y4789000D01*
X12137100Y4813000D01*
X12139200Y4840000D01*
X12137100Y4867000D01*
X12130800Y4891000D01*
X12122400Y4909000D01*
X12109800Y4924000D01*
X12093000Y4930000D01*
G01X12237000D02*
X12220200Y4924000D01*
X12207600Y4909000D01*
X12199200Y4891000D01*
X12192900Y4867000D01*
X12190800Y4840000D01*
X12192900Y4813000D01*
X12199200Y4789000D01*
X12207600Y4771000D01*
X12220200Y4756000D01*
X12237000Y4750000D01*
X12253800Y4756000D01*
X12266400Y4771000D01*
X12274800Y4789000D01*
X12281100Y4813000D01*
X12283200Y4840000D01*
X12281100Y4867000D01*
X12274800Y4891000D01*
X12266400Y4909000D01*
X12253800Y4924000D01*
X12237000Y4930000D01*
G01X12391500Y4690000D02*
X12412500Y4720000D01*
X12423000Y4750000D01*
Y4870000D01*
X12412500Y4900000D01*
X12391500Y4930000D01*
G54D14*
G01X300000Y1950000D02*
G03I0J-150000D01*
G01Y1850000D02*
G03I0J-50000D01*
G01X310000Y3700000D02*
Y3940000D01*
X210000D01*
Y3700000D01*
X310000D01*
G01X195000Y4295000D02*
Y4085000D01*
X325000D01*
Y4295000D01*
X195000D01*
G01X1055000Y1835000D02*
Y2045000D01*
X925000D01*
Y1835000D01*
X1055000D01*
G01X835000D02*
Y2045000D01*
X705000D01*
Y1835000D01*
X835000D01*
G01X460000Y2570000D02*
X700000D01*
Y2670000D01*
X460000D01*
Y2570000D01*
G01X1055000Y2195000D02*
Y2405000D01*
X925000D01*
Y2195000D01*
X1055000D01*
G01X835000D02*
Y2405000D01*
X705000D01*
Y2195000D01*
X835000D01*
G01X460000Y2730000D02*
X700000D01*
Y2830000D01*
X460000D01*
Y2730000D01*
G01X1495000Y1835000D02*
Y2045000D01*
X1365000D01*
Y1835000D01*
X1495000D01*
G01X1275000D02*
Y2045000D01*
X1145000D01*
Y1835000D01*
X1275000D01*
G01X1200000Y2680000D02*
G02X1250000Y2630000I0J-50000D01*
G02X1200000Y2680000I-50000J0D01*
G01X1495000Y2195000D02*
Y2405000D01*
X1365000D01*
Y2195000D01*
X1495000D01*
G01X1275000D02*
Y2405000D01*
X1145000D01*
Y2195000D01*
X1275000D01*
G01X1800000Y4990000D02*
X1560000D01*
Y4890000D01*
X1800000D01*
Y4990000D01*
G01X3285970Y2524980D02*
Y2424980D01*
X3263970D01*
Y2524980D01*
G01X3285970Y2474980D02*
X3263970D01*
G01X3335970Y2524980D02*
Y2424980D01*
X3313970D01*
Y2524980D01*
G01X3335970Y2474980D02*
X3313970D01*
G01X3385970Y2524980D02*
Y2424980D01*
X3363970D01*
Y2524980D01*
G01X3385970Y2474980D02*
X3363970D01*
G01X3150000Y2589000D02*
Y2611000D01*
G01X3200000Y2589000D02*
X3100000D01*
Y2611000D01*
X3200000D01*
G01X3199990Y3138860D02*
X3099990D01*
Y3160860D01*
X3199990D01*
G01X3149990Y3138860D02*
Y3160860D01*
G01X3199990Y3088860D02*
X3099990D01*
Y3110860D01*
X3199990D01*
G01X3149990Y3088860D02*
Y3110860D01*
G01X3199990Y3038860D02*
X3099990D01*
Y3060860D01*
X3199990D01*
G01X3149990Y3038860D02*
Y3060860D01*
G01X3199990Y2988860D02*
X3099990D01*
Y3010860D01*
X3199990D01*
G01X3149990Y2988860D02*
Y3010860D01*
G01X3199990Y2938860D02*
X3099990D01*
Y2960860D01*
X3199990D01*
G01X3149990Y2938860D02*
Y2960860D01*
G01X3199990Y2888860D02*
X3099990D01*
Y2910860D01*
X3199990D01*
G01X3149990Y2888860D02*
Y2910860D01*
G01X3199990Y2838860D02*
X3099990D01*
Y2860860D01*
X3199990D01*
G01X3149990Y2838860D02*
Y2860860D01*
G01X3199990Y2788860D02*
X3099990D01*
Y2810860D01*
X3199990D01*
G01X3149990Y2788860D02*
Y2810860D01*
G01X3199990Y2738860D02*
X3099990D01*
Y2760860D01*
X3199990D01*
G01X3149990Y2738860D02*
Y2760860D01*
G01X3199990Y2688860D02*
X3099990D01*
Y2710860D01*
X3199990D01*
G01X3149990Y2688860D02*
Y2710860D01*
G01X3199990Y2638860D02*
X3099990D01*
Y2660860D01*
X3199990D01*
G01X3149990Y2638860D02*
Y2660860D01*
G01X3286040Y3224970D02*
Y3324970D01*
X3264040D01*
Y3224970D01*
G01X3286040Y3274970D02*
X3264040D01*
G01X3336040Y3224970D02*
Y3324970D01*
X3314040D01*
Y3224970D01*
G01X3336040Y3274970D02*
X3314040D01*
G01X3386040Y3224970D02*
Y3324970D01*
X3364040D01*
Y3224970D01*
G01X3386040Y3274970D02*
X3364040D01*
G01X3435970Y2524980D02*
Y2424980D01*
X3413970D01*
Y2524980D01*
G01X3435970Y2474980D02*
X3413970D01*
G01X3485970Y2524980D02*
Y2424980D01*
X3463970D01*
Y2524980D01*
G01X3485970Y2474980D02*
X3463970D01*
G01X3535970Y2524980D02*
Y2424980D01*
X3513970D01*
Y2524980D01*
G01X3535970Y2474980D02*
X3513970D01*
G01X3585970Y2524980D02*
Y2424980D01*
X3563970D01*
Y2524980D01*
G01X3585970Y2474980D02*
X3563970D01*
G01X3635970Y2524980D02*
Y2424980D01*
X3613970D01*
Y2524980D01*
G01X3635970Y2474980D02*
X3613970D01*
G01X3685970Y2524980D02*
Y2424980D01*
X3663970D01*
Y2524980D01*
G01X3685970Y2474980D02*
X3663970D01*
G01X3735970Y2524980D02*
Y2424980D01*
X3713970D01*
Y2524980D01*
G01X3735970Y2474980D02*
X3713970D01*
G01X3785970Y2524980D02*
Y2424980D01*
X3763970D01*
Y2524980D01*
G01X3785970Y2474980D02*
X3763970D01*
G01X3836000Y2475000D02*
X3814000D01*
G01X3836000Y2525000D02*
Y2425000D01*
X3814000D01*
Y2525000D01*
G01X3950000Y2589000D02*
Y2611000D01*
G01X3900000D02*
X4000000D01*
Y2589000D01*
X3900000D01*
G01X4370000Y2280000D02*
X4130000D01*
Y2180000D01*
X4370000D01*
Y2280000D01*
G01X3436040Y3224970D02*
Y3324970D01*
X3414040D01*
Y3224970D01*
G01X3436040Y3274970D02*
X3414040D01*
G01X3486040Y3224970D02*
Y3324970D01*
X3464040D01*
Y3224970D01*
G01X3486040Y3274970D02*
X3464040D01*
G01X3536040Y3224970D02*
Y3324970D01*
X3514040D01*
Y3224970D01*
G01X3536040Y3274970D02*
X3514040D01*
G01X3586040Y3224970D02*
Y3324970D01*
X3564040D01*
Y3224970D01*
G01X3586040Y3274970D02*
X3564040D01*
G01X3636040Y3224970D02*
Y3324970D01*
X3614040D01*
Y3224970D01*
G01X3636040Y3274970D02*
X3614040D01*
G01X3686040Y3224970D02*
Y3324970D01*
X3664040D01*
Y3224970D01*
G01X3686040Y3274970D02*
X3664040D01*
G01X3736040Y3224970D02*
Y3324970D01*
X3714040D01*
Y3224970D01*
G01X3736040Y3274970D02*
X3714040D01*
G01X3786040Y3224970D02*
Y3324970D01*
X3764040D01*
Y3224970D01*
G01X3786040Y3274970D02*
X3764040D01*
G01X3836000Y3275000D02*
X3814000D01*
G01X3836000Y3225000D02*
Y3325000D01*
X3814000D01*
Y3225000D01*
G01X3899980Y3160990D02*
X3999980D01*
Y3138990D01*
X3899980D01*
G01X3949980D02*
Y3160990D01*
G01X3899980Y3110990D02*
X3999980D01*
Y3088990D01*
X3899980D01*
G01X3949980D02*
Y3110990D01*
G01X3899980Y3060990D02*
X3999980D01*
Y3038990D01*
X3899980D01*
G01X3949980D02*
Y3060990D01*
G01X3899980Y3010990D02*
X3999980D01*
Y2988990D01*
X3899980D01*
G01X3949980D02*
Y3010990D01*
G01X3899980Y2960990D02*
X3999980D01*
Y2938990D01*
X3899980D01*
G01X3949980D02*
Y2960990D01*
G01X3899980Y2910990D02*
X3999980D01*
Y2888990D01*
X3899980D01*
G01X3949980D02*
Y2910990D01*
G01X3899980Y2860990D02*
X3999980D01*
Y2838990D01*
X3899980D01*
G01X3949980D02*
Y2860990D01*
G01X3899980Y2810990D02*
X3999980D01*
Y2788990D01*
X3899980D01*
G01X3949980D02*
Y2810990D01*
G01X3899980Y2760990D02*
X3999980D01*
Y2738990D01*
X3899980D01*
G01X3949980D02*
Y2760990D01*
G01X3899980Y2710990D02*
X3999980D01*
Y2688990D01*
X3899980D01*
G01X3949980D02*
Y2710990D01*
G01X3899980Y2660990D02*
X3999980D01*
Y2638990D01*
X3899980D01*
G01X3949980D02*
Y2660990D01*
G01X4630000Y3430000D02*
X4390000D01*
Y3330000D01*
X4630000D01*
Y3430000D01*
G01X4315000Y3155000D02*
X4525000D01*
Y3285000D01*
X4315000D01*
Y3155000D01*
G01Y2965000D02*
X4525000D01*
Y3095000D01*
X4315000D01*
Y2965000D01*
G01X4805000Y3015000D02*
Y3225000D01*
X4675000D01*
Y3015000D01*
X4805000D01*
G01X4500000Y3560000D02*
X4260000D01*
Y3460000D01*
X4500000D01*
Y3560000D01*
G01X5065000Y3045000D02*
X5275000D01*
Y3175000D01*
X5065000D01*
Y3045000D01*
G01X5585000Y4695000D02*
Y4485000D01*
X5715000D01*
Y4695000D01*
X5585000D01*
G01X6270000Y2180000D02*
X6510000D01*
Y2280000D01*
X6270000D01*
Y2180000D01*
G01X5675000Y3125000D02*
X5885000D01*
Y3255000D01*
X5675000D01*
Y3125000D01*
G01Y3325000D02*
X5885000D01*
Y3455000D01*
X5675000D01*
Y3325000D01*
G01X6055000D02*
X6265000D01*
Y3455000D01*
X6055000D01*
Y3325000D01*
G01Y3125000D02*
X6265000D01*
Y3255000D01*
X6055000D01*
Y3125000D01*
G01X6137480Y3720170D02*
X6107480D01*
G01X6137480Y3760170D02*
X6107480D01*
Y3660170D01*
X6137480D01*
Y3760170D01*
G01X6202480Y3720170D02*
X6172480D01*
G01X6202480Y3760170D02*
X6172480D01*
Y3660170D01*
X6202480D01*
Y3760170D01*
G01X6267500Y3720000D02*
X6237500D01*
G01X6332500D02*
X6302500D01*
G01X6397500D02*
X6367500D01*
G01X6267500Y3760000D02*
X6237500D01*
Y3660000D01*
X6267500D01*
Y3760000D01*
G01X6332500D02*
X6302500D01*
Y3660000D01*
X6332500D01*
Y3760000D01*
G01X6397500D02*
X6367500D01*
Y3660000D01*
X6397500D01*
Y3760000D01*
G01X6137480Y4240170D02*
X6107480D01*
G01X6202480D02*
X6172480D01*
G01X6137480Y4300170D02*
X6107480D01*
Y4200170D01*
X6137480D01*
Y4300170D01*
G01X6202480D02*
X6172480D01*
Y4200170D01*
X6202480D01*
Y4300170D01*
G01X6267500Y4240000D02*
X6237500D01*
G01X6332500D02*
X6302500D01*
G01X6397500D02*
X6367500D01*
G01X6397500Y4300000D02*
X6367500D01*
Y4200000D01*
X6397500D01*
Y4300000D01*
G01X6332500D02*
X6302500D01*
Y4200000D01*
X6332500D01*
Y4300000D01*
G01X6267500D02*
X6237500D01*
Y4200000D01*
X6267500D01*
Y4300000D01*
G01X5835000Y4605000D02*
Y4395000D01*
X5965000D01*
Y4605000D01*
X5835000D01*
G01X7110000Y3890000D02*
Y3650000D01*
X7210000D01*
Y3890000D01*
X7110000D01*
G01X6982500Y3720000D02*
X6952500D01*
G01X6982500Y3760000D02*
X6952500D01*
Y3660000D01*
X6982500D01*
Y3760000D01*
G01X6462500Y3720000D02*
X6432500D01*
G01X6527500D02*
X6497500D01*
G01X6592500D02*
X6562500D01*
G01X6657500D02*
X6627500D01*
G01X6722500D02*
X6692500D01*
G01X6787500D02*
X6757500D01*
G01X6852500D02*
X6822500D01*
G01X6462500Y3760000D02*
X6432500D01*
Y3660000D01*
X6462500D01*
Y3760000D01*
G01X6527500D02*
X6497500D01*
Y3660000D01*
X6527500D01*
Y3760000D01*
G01X6592500D02*
X6562500D01*
Y3660000D01*
X6592500D01*
Y3760000D01*
G01X6657500D02*
X6627500D01*
Y3660000D01*
X6657500D01*
Y3760000D01*
G01X6722500D02*
X6692500D01*
Y3660000D01*
X6722500D01*
Y3760000D01*
G01X6787500D02*
X6757500D01*
Y3660000D01*
X6787500D01*
Y3760000D01*
G01X6852500D02*
X6822500D01*
Y3660000D01*
X6852500D01*
Y3760000D01*
G01X6917500Y3720000D02*
X6887500D01*
G01X6917500Y3760000D02*
X6887500D01*
Y3660000D01*
X6917500D01*
Y3760000D01*
G01X6462500Y4240000D02*
X6432500D01*
G01X6527500D02*
X6497500D01*
G01X6592500D02*
X6562500D01*
G01X6657500D02*
X6627500D01*
G01X6722500D02*
X6692500D01*
G01X6787500D02*
X6757500D01*
G01X6852500D02*
X6822500D01*
G01X6917500D02*
X6887500D01*
G01X6982500D02*
X6952500D01*
G01X6982500Y4300000D02*
X6952500D01*
Y4200000D01*
X6982500D01*
Y4300000D01*
G01X6917500D02*
X6887500D01*
Y4200000D01*
X6917500D01*
Y4300000D01*
G01X6852500D02*
X6822500D01*
Y4200000D01*
X6852500D01*
Y4300000D01*
G01X6787500D02*
X6757500D01*
Y4200000D01*
X6787500D01*
Y4300000D01*
G01X6722500D02*
X6692500D01*
Y4200000D01*
X6722500D01*
Y4300000D01*
G01X6657500D02*
X6627500D01*
Y4200000D01*
X6657500D01*
Y4300000D01*
G01X6592500D02*
X6562500D01*
Y4200000D01*
X6592500D01*
Y4300000D01*
G01X6527500D02*
X6497500D01*
Y4200000D01*
X6527500D01*
Y4300000D01*
G01X6462500D02*
X6432500D01*
Y4200000D01*
X6462500D01*
Y4300000D01*
G01X7480000Y2020000D02*
Y2260000D01*
X7380000D01*
Y2020000D01*
X7480000D01*
G01X7930100Y2482900D02*
Y2657500D01*
G01X7850500Y2482900D02*
Y2657500D01*
G01X7699600Y2482900D02*
Y2657500D01*
G01X7620200Y2482900D02*
Y2657500D01*
G01X7469500Y2482900D02*
Y2657500D01*
G01X7389900Y2482900D02*
Y2657500D01*
G01X7850500Y2482900D02*
X7930100D01*
G01X7620200D02*
X7699600D01*
G01X7389900D02*
X7469500D01*
G01X7570000Y2210000D02*
Y1890000D01*
X7730000D01*
Y2210000D01*
X7570000D01*
G01X7590000D02*
Y2220000D01*
X7710000D01*
Y2210000D01*
G01Y1890000D02*
Y1880000D01*
X7590000D01*
Y1890000D01*
G01X7820000Y2210000D02*
Y1890000D01*
X7980000D01*
Y2210000D01*
X7820000D01*
G01X7840000D02*
Y2220000D01*
X7960000D01*
Y2210000D01*
G01Y1890000D02*
Y1880000D01*
X7840000D01*
Y1890000D01*
G01X7940000Y3440000D02*
X7700000D01*
Y3340000D01*
X7940000D01*
Y3440000D01*
G01X7779000Y3022600D02*
Y3197300D01*
G01X7540900Y3022600D02*
Y3197300D01*
G01X7326400Y2657500D02*
Y3022600D01*
G01X7540900Y3197300D02*
X7779000D01*
G01X7326400Y3022600D02*
X7993600D01*
G01X7326400Y2657500D02*
X7993600D01*
G01X7470000Y3510000D02*
X7710000D01*
Y3610000D01*
X7470000D01*
Y3510000D01*
G01X7460000Y3790000D02*
Y4030000D01*
X7360000D01*
Y3790000D01*
X7460000D01*
G01X7360000Y4510000D02*
Y4270000D01*
X7460000D01*
Y4510000D01*
X7360000D01*
G01X8120000Y3200000D02*
Y3440000D01*
X8020000D01*
Y3200000D01*
X8120000D01*
G01X7993600Y2657500D02*
Y3022600D01*
G01X8850000Y4800000D02*
G03I-150000J0D01*
G01X8750000D02*
G03I-50000J0D01*
M02*
