M71
M48
T1F00S00C0.012
T2F00S00C0.030
T3F00S00C0.032
T4F00S00C0.039
T5F00S00C0.125
%
T01
X01417Y00366
X02043Y0026
X01972Y00122
X02465Y00209
X02555Y00677
Y01161
X03232
Y00677
X0302Y00508
Y00457
X03028Y00213
X03701Y00457
Y00508
T02
X00177Y00406
X00256
Y00485
Y00564
Y00643
Y00721
Y008
Y00879
X00177
Y008
Y00721
Y00643
Y00564
Y00485
Y00958
X00256
T03
X06348Y00618
X06448
X07422Y0052
X07522
Y00756
X07422
Y00992
X07522
T04
X00063Y00567
X00071Y00799
X00658Y00843
Y00543
X01058
Y00843
X0115
Y01035
Y01335
X0155
Y01035
Y00843
X01643
Y00543
X0155
Y00351
Y00051
X0115
Y00351
Y00543
X02043
Y00843
X04111Y00489
Y00189
X04511
Y00489
X05292
Y00189
X05692
Y00489
X06473
Y00189
X06873
Y00489
T05
X00591Y00169
Y01217
X08386
Y00169
M30
