G04 ================== begin FILE IDENTIFICATION RECORD ==================*
G04 Layout Name:  F:/PT8620_LTC/PT8620_LTC_patch/allegro/PT8620_LTC_patch.brd*
G04 Film Name:    ASSEMBLY_BOT*
G04 File Format:  Gerber RS274X*
G04 File Origin:  Cadence Allegro 16.6-S050*
G04 Origin Date:  Wed Jun 17 16:19:32 2015*
G04 *
G04 Layer:  REF DES/ASSEMBLY_BOTTOM*
G04 Layer:  PACKAGE GEOMETRY/ASSEMBLY_BOTTOM*
G04 Layer:  BOARD GEOMETRY/OUTLINE*
G04 *
G04 Offset:    (0.0000 0.0000)*
G04 Mirror:    No*
G04 Mode:      Positive*
G04 Rotation:  0*
G04 FullContactRelief:  No*
G04 UndefLineWidth:     0.1000*
G04 ================== end FILE IDENTIFICATION RECORD ====================*
%FSAX35Y35*MOMM*%
%IR0*IPPOS*OFA0.00000B0.00000*MIA0B0*SFA1.00000B1.00000*%
%ADD10C,.05*%
%ADD11C,.1*%
G75*
%LPD*%
G75*
G36*
G01X01004000Y05137000D02*
G03X01004000Y05137000I-00048100J0D01*
G37*
G36*
G01X00810900Y04832000D02*
X00810900Y04932000D01*
X00880900Y04932000D01*
X00880900Y04832000D01*
X00810900Y04832000D01*
G37*
G36*
G01X04536400Y02793500D02*
X04636400Y02793500D01*
X04636400Y02723500D01*
X04536400Y02723500D01*
X04536400Y02793500D01*
G37*
G36*
G01X04889500Y02648500D02*
G03X04889500Y02648500I-00048100J0D01*
G37*
G54D10*
G01X00190000Y02220000D02*
G03X00190000Y02220000I-00040000J0D01*
G01X00235150Y02220000D02*
G03X00235150Y02220000I-00085150J0D01*
G01X00190000Y01900000D02*
G03X00190000Y01900000I-00040000J0D01*
G01X00235150Y01900000D02*
G03X00235150Y01900000I-00085150J0D01*
G01X00190000Y03050000D02*
G03X00190000Y03050000I-00040000J0D01*
G01X00235150Y03050000D02*
G03X00235150Y03050000I-00085150J0D01*
G01X01775150Y01120000D02*
G03X01775150Y01120000I-00085150J0D01*
G01X02250000Y01120000D02*
G03X02250000Y01120000I-00040000J0D01*
G01X02295150Y01120000D02*
G03X02295150Y01120000I-00085150J0D01*
G01X01730000Y01120000D02*
G03X01730000Y01120000I-00040000J0D01*
G01X02770000Y01120000D02*
G03X02770000Y01120000I-00040000J0D01*
G01X02815150Y01120000D02*
G03X02815150Y01120000I-00085150J0D01*
G01X02430000Y02940000D02*
G03X02430000Y02940000I-00040000J0D01*
G01X02475150Y02940000D02*
G03X02475150Y02940000I-00085150J0D01*
G54D11*
G01X0Y05260000D02*
X03790000Y05260000D01*
X03790000Y04220000D01*
X03790000Y03490000D01*
X03230000Y02930000D01*
X03230000Y01720000D01*
X03230000Y01690000D01*
X03450000Y01470000D01*
X03480000Y01470000D01*
X03920000Y01470000D01*
X04140000Y01690000D01*
X04140000Y02800000D01*
X04140000Y02870000D01*
X04140000Y02970000D01*
X05500000Y02970000D01*
X05500000Y02870000D01*
X05500000Y0D01*
X04030000Y0D01*
X03050000Y00980000D01*
X0Y00980000D01*
X0Y05260000D01*
G01X03510900Y04577000D02*
X00810900Y04577000D01*
G01X00810900Y04577000D02*
X00810900Y05077000D01*
G01X00811000Y04737000D02*
X00751000Y04737000D01*
X00751000Y04687000D01*
X00811000Y04687000D01*
G01X00811000Y04787000D02*
X00751000Y04787000D01*
X00751000Y04867000D01*
X00811000Y04867000D01*
G01X00811000Y04967000D02*
X00751000Y04967000D01*
X00751000Y04917000D01*
X00811000Y04917000D01*
G01X00810900Y05077000D02*
X03510900Y05077000D01*
G01X02218240Y04812750D02*
X02213370Y04804870D01*
X02207530Y04799620D01*
X02200720Y04797000D01*
X02192930Y04799620D01*
X02187090Y04804870D01*
X02181240Y04812750D01*
X02179300Y04823250D01*
X02179300Y04875740D01*
G01X02120030Y04797000D02*
X02120030Y04875740D01*
X02131710Y04859990D01*
G01X02131710Y04797000D02*
X02108350Y04797000D01*
G01X03510900Y05077000D02*
X03510900Y04577000D01*
G01X03510900Y04687000D02*
X03570900Y04687000D01*
X03570900Y04737000D01*
X03510900Y04737000D01*
G01X03510900Y04917000D02*
X03570900Y04917000D01*
X03570900Y04967000D01*
X03510900Y04967000D01*
G01X03510900Y04867000D02*
X03570900Y04867000D01*
X03570900Y04787000D01*
X03510900Y04787000D01*
G01X04391400Y00093500D02*
X04391400Y00033500D01*
X04441400Y00033500D01*
X04441400Y00093500D01*
G01X04621400Y00093500D02*
X04621400Y00033500D01*
X04671400Y00033500D01*
X04671400Y00093500D01*
G01X04571400Y00093500D02*
X04571400Y00033500D01*
X04491400Y00033500D01*
X04491400Y00093500D01*
G01X04281400Y00093500D02*
X04281400Y02793500D01*
G01X04781400Y00093500D02*
X04281400Y00093500D01*
G01X04517150Y01386160D02*
X04509270Y01391030D01*
X04504020Y01396870D01*
X04501400Y01403680D01*
X04504020Y01411470D01*
X04509270Y01417310D01*
X04517150Y01423160D01*
X04527650Y01425100D01*
X04580140Y01425100D01*
G01X04517150Y01462950D02*
X04507960Y01468790D01*
X04502710Y01476580D01*
X04501400Y01485340D01*
X04502710Y01493130D01*
X04509270Y01500920D01*
X04517150Y01505790D01*
X04525020Y01506760D01*
X04534210Y01504820D01*
X04540770Y01498000D01*
X04543400Y01491190D01*
X04543400Y01482420D01*
G01X04543400Y01491190D02*
X04547330Y01497030D01*
X04553890Y01501900D01*
X04561770Y01503840D01*
X04569640Y01501900D01*
X04576200Y01497030D01*
X04580140Y01488260D01*
X04578830Y01479500D01*
X04573580Y01470740D01*
G01X04441400Y02793400D02*
X04441400Y02853400D01*
X04391400Y02853400D01*
X04391400Y02793400D01*
G01X04491400Y02793400D02*
X04491400Y02853400D01*
X04571400Y02853400D01*
X04571400Y02793400D01*
G01X04671400Y02793400D02*
X04671400Y02853400D01*
X04621400Y02853400D01*
X04621400Y02793400D01*
G01X04281400Y02793500D02*
X04781400Y02793500D01*
G01X04781400Y02793500D02*
X04781400Y00093500D01*
M02*
