G04 ================== begin FILE IDENTIFICATION RECORD ==================*
G04 Layout Name:  F:/PT8620_LTC/PT8620_LTC_patch/allegro/PT8620_LTC_patch.brd*
G04 Film Name:    PASTEMASK_TOP*
G04 File Format:  Gerber RS274X*
G04 File Origin:  Cadence Allegro 16.6-S050*
G04 Origin Date:  Wed Jun 17 16:19:32 2015*
G04 *
G04 Layer:  VIA CLASS/PASTEMASK_TOP*
G04 Layer:  PIN/PASTEMASK_TOP*
G04 Layer:  PACKAGE GEOMETRY/PASTEMASK_TOP*
G04 *
G04 Offset:    (0.0000 0.0000)*
G04 Mirror:    No*
G04 Mode:      Positive*
G04 Rotation:  0*
G04 FullContactRelief:  No*
G04 UndefLineWidth:     0.0000*
G04 ================== end FILE IDENTIFICATION RECORD ====================*
%FSAX35Y35*MOMM*%
%IR0*IPPOS*OFA0.00000B0.00000*MIA0B0*SFA1.00000B1.00000*%
%ADD14R,1.8999X1.5999*%
%ADD17R,1.4X.95*%
%ADD22R,1.35X.65*%
%ADD11R,.8999X.8999*%
%ADD18R,.8999X.8999*%
%ADD16R,.5999X.5999*%
%ADD19R,.2499X1.5999*%
%ADD20R,1.5999X.2499*%
%ADD13R,1.X1.8001*%
%ADD23R,.6X.3*%
%ADD21R,2.7X1.4*%
%ADD10C,1.*%
%ADD12R,.76X.76*%
%ADD15R,1.8001X1.1999*%
%LPD*%
G75*
G54D10*
X00280000Y01470000D03*
X00470000Y04490000D03*
X03270000Y03470000D03*
G54D20*
X01370000Y01960000D03*
X01370000Y02010000D03*
X01370000Y02060000D03*
X01370000Y02110000D03*
X01370000Y02160000D03*
X01370000Y02210000D03*
X01370000Y02260000D03*
X01370000Y02310000D03*
X02050000Y02210000D03*
X02050000Y02160000D03*
X02050000Y02110000D03*
X02050000Y02060000D03*
X02050000Y02010000D03*
X02050000Y01960000D03*
X02050000Y02310000D03*
X02050000Y02260000D03*
G54D11*
X00360000Y02220000D03*
X00360000Y02730000D03*
X00500000Y02220000D03*
X00910000Y01830000D03*
X00500000Y02730000D03*
X01000000Y02410000D03*
X01570000Y01580000D03*
X01430000Y01580000D03*
X01050000Y01830000D03*
X01610000Y02750000D03*
X01140000Y02410000D03*
X01350000Y02750000D03*
X01490000Y02750000D03*
X01410000Y03780000D03*
X01550000Y03780000D03*
X01800000Y01590000D03*
X01940000Y01590000D03*
X01800000Y01470000D03*
X01940000Y01470000D03*
X01750000Y02750000D03*
X01880000Y02750000D03*
X02020000Y02750000D03*
X01690000Y03660000D03*
X01830000Y03660000D03*
X02820000Y02620000D03*
X02820000Y02770000D03*
X02600000Y03450000D03*
X02740000Y03450000D03*
X02610000Y02940000D03*
X02750000Y02940000D03*
X02480000Y03780000D03*
X02620000Y03780000D03*
X02960000Y02620000D03*
X02960000Y02770000D03*
X03710000Y01100000D03*
X03850000Y01100000D03*
G54D12*
X00320000Y02380000D03*
X00320000Y02570000D03*
X00550000Y02475000D03*
X02790000Y03195000D03*
X02560000Y03100000D03*
X02560000Y03290000D03*
G54D21*
X01750000Y03500000D03*
X01750000Y03210000D03*
G54D13*
X00440000Y03050000D03*
X00720000Y03050000D03*
G54D22*
X01470000Y03590000D03*
X01230000Y03590000D03*
G54D23*
X02820000Y02220000D03*
X02820000Y02170000D03*
X02820000Y02480000D03*
X02820000Y02430000D03*
X02820000Y02380000D03*
X02820000Y02270000D03*
X02970000Y02170000D03*
X02970000Y02220000D03*
X02970000Y02380000D03*
X02970000Y02430000D03*
X02970000Y02480000D03*
X02970000Y02270000D03*
G54D14*
X00270000Y03590000D03*
X00750000Y03590000D03*
G54D15*
X00740000Y01350000D03*
X00740000Y01590000D03*
X01140000Y01350000D03*
X01140000Y01590000D03*
G54D16*
X00810000Y01720000D03*
X00910000Y01720000D03*
X01020000Y02140000D03*
X00920000Y02140000D03*
X01140000Y01720000D03*
X01040000Y01720000D03*
X01370000Y02860000D03*
X01470000Y02860000D03*
G54D17*
X00980000Y03405000D03*
X00980000Y03590000D03*
G54D18*
X01140000Y02140000D03*
X01140000Y02280000D03*
X01610000Y02870000D03*
X01210000Y02800000D03*
X01610000Y03010000D03*
X01210000Y02940000D03*
X01510000Y03220000D03*
X01510000Y03360000D03*
X01380000Y03210000D03*
X01380000Y03070000D03*
X01210000Y03210000D03*
X01210000Y03070000D03*
X02260000Y02100000D03*
X02260000Y01960000D03*
X01750000Y02870000D03*
X01750000Y03010000D03*
G54D19*
X01585000Y01795000D03*
X01535000Y01795000D03*
X01535000Y02475000D03*
X01585000Y02475000D03*
X01885000Y01795000D03*
X01835000Y01795000D03*
X01785000Y01795000D03*
X01735000Y01795000D03*
X01685000Y01795000D03*
X01635000Y01795000D03*
X01635000Y02475000D03*
X01685000Y02475000D03*
X01735000Y02475000D03*
X01785000Y02475000D03*
X01835000Y02475000D03*
X01885000Y02475000D03*
M02*
