M48
METRIC
T01C.3
T02C.8001
T03C.8001
T04C1.8
T05C1.5999
;LEADER: 12 
;HEADER: 
;CODE  : ASCII 
;FILE  : PT8620_LTC_patch-1-4.drl for board #Taaaafb04892.tmp ... layers TOP and BOTTOM
;T01 Holesize 1. = 0.300000 Tolerance = +0.000000/-0.000000 PLATED MM Quantity = 78
;T02 Holesize 2. = 0.800100 Tolerance = +0.000000/-0.000000 PLATED MM Quantity = 7
;T03 Holesize 3. = 0.800100 Tolerance = +0.080000/-0.080000 PLATED MM Quantity = 80
;T04 Holesize 4. = 1.800000 Tolerance = +0.000000/-0.000000 PLATED MM Quantity = 1
%
G90
T01
X04790000Y00120000
X03960000Y01170000
X03590000Y01100000
X03470000Y01000000
X03260000Y01150000
X02920000Y01140000
X02640000Y01510000
X02030000Y01470000
X01370000Y01250000
X01360000Y01490000
X01190000Y01150000
X01140000Y01450000
X00930000Y01150000
X00740000Y01490000
X00700000Y01160000
X00520000Y01510000
X00510000Y01240000
X00560000Y01730000
X00600000Y02220000
X00720000Y01890000
X00810000Y01800000
X00840000Y02030000
X00920000Y02210000
X01040000Y02020000
X01140000Y01810000
X01230000Y02230000
X01240000Y01920000
X01360000Y01800000
X01430000Y01667700
X01430000Y01830000
X01570000Y01667700
X02000000Y01870000
X02030000Y01590000
X02178780Y01981220
X02180000Y02100000
X02330000Y01560000
X02600000Y01960000
X02740000Y02270000
X02770000Y01950000
X02891220Y02101220
X03070000Y02221450
X04850000Y01750000
X04300000Y02810000
X03040000Y02770000
X03040000Y02620000
X03040000Y02480000
X03020000Y02290000
X02900000Y02530000
X02830000Y02940000
X02740000Y02480000
X02730000Y02620000
X02720000Y02770000
X02700000Y02340000
X02130000Y02540000
X02130000Y02420000
X02020000Y02830000
X01570000Y02610000
X01470000Y02940000
X01440000Y02420000
X01360000Y02960000
X01130000Y02690000
X01110000Y03000000
X01000000Y02490000
X00720000Y02920000
X00600000Y02730000
X00720000Y03182710
X00875000Y03405000
X01085000Y03405000
X01210000Y03290000
X01230000Y03680000
X01510000Y03450000
X01610000Y03090000
X01750000Y03090000
X01910000Y03660000
X01980000Y03200000
X02510000Y03450000
X02840000Y03450000
X03550000Y04550000
T02
X00150000Y03050000
X00150000Y02220000
X00150000Y01900000
X01690000Y01120000
X02210000Y01120000
X02730000Y01120000
X02390000Y02940000
T03
X04404400Y00237000
X05312400Y00237000
X05312400Y00491000
X05058400Y00364000
X04658400Y00364000
X04404400Y00491000
X04404400Y00745000
X04658400Y00618000
X05058400Y00618000
X05312400Y00745000
X05312400Y00999000
X05058400Y00872000
X04658400Y00872000
X04404400Y00999000
X04404400Y01253000
X04658400Y01126000
X05058400Y01126000
X05312400Y01253000
X05312400Y01507000
X05058400Y01380000
X04658400Y01380000
X04404400Y01507000
X04404400Y01761000
X04658400Y01634000
X05058400Y01634000
X05312400Y01761000
X05312400Y02015000
X05058400Y01888000
X04658400Y01888000
X04404400Y02015000
X04404400Y02269000
X04658400Y02142000
X05058400Y02142000
X05312400Y02269000
X05312400Y02523000
X05058400Y02396000
X04658400Y02396000
X04404400Y02523000
X04658400Y02650000
X05058400Y02650000
X03240400Y04046000
X02986400Y04046000
X02732400Y04046000
X02478400Y04046000
X02224400Y04046000
X01970400Y04046000
X01716400Y04046000
X01462400Y04046000
X01208400Y04046000
X00954400Y04046000
X01081400Y04300000
X01335400Y04300000
X01589400Y04300000
X01843400Y04300000
X02097400Y04300000
X02351400Y04300000
X02605400Y04300000
X02859400Y04300000
X03113400Y04300000
X03367400Y04300000
X03367400Y04700000
X03113400Y04700000
X02859400Y04700000
X02605400Y04700000
X02351400Y04700000
X02097400Y04700000
X01843400Y04700000
X01589400Y04700000
X01335400Y04700000
X01081400Y04700000
X00954400Y04954000
X01208400Y04954000
X01462400Y04954000
X01716400Y04954000
X01970400Y04954000
X02224400Y04954000
X02478400Y04954000
X02732400Y04954000
X02986400Y04954000
X03240400Y04954000
T04
X00229200Y04091000
M30
