G04 ================== begin FILE IDENTIFICATION RECORD ==================*
G04 Layout Name:  F:/PT8620_LTC/PT8620_LTC_patch/allegro/PT8620_LTC_patch.brd*
G04 Film Name:    SILK_TOP*
G04 File Format:  Gerber RS274X*
G04 File Origin:  Cadence Allegro 16.6-S050*
G04 Origin Date:  Wed Jun 17 16:19:31 2015*
G04 *
G04 Layer:  REF DES/SILKSCREEN_TOP*
G04 Layer:  PACKAGE GEOMETRY/SILKSCREEN_TOP*
G04 Layer:  BOARD GEOMETRY/SILKSCREEN_TOP*
G04 *
G04 Offset:    (0.0000 0.0000)*
G04 Mirror:    No*
G04 Mode:      Positive*
G04 Rotation:  0*
G04 FullContactRelief:  No*
G04 UndefLineWidth:     0.1270*
G04 ================== end FILE IDENTIFICATION RECORD ====================*
%FSAX35Y35*MOMM*%
%IR0*IPPOS*OFA0.00000B0.00000*MIA0B0*SFA1.00000B1.00000*%
%ADD10C,.1*%
%ADD11C,.15*%
%ADD12C,.127*%
G75*
%LPD*%
G75*
G36*
G01X00804000Y03590000D02*
G03X00804000Y03590000I-00294000J0D01*
G37*
G36*
G01X00997800Y03863000D02*
G03X00997800Y03863000I-00036900J0D01*
G37*
G36*
G01X04912300Y02643500D02*
G03X04912300Y02643500I-00036900J0D01*
G37*
G54D10*
G01X00360000Y02625000D02*
X00360000Y02655000D01*
X00510000Y02655000D01*
X00510000Y02530000D01*
G01X00360000Y02325000D02*
X00360000Y02295000D01*
X00510000Y02295000D01*
X00510000Y02420000D01*
G01X00360000Y02515000D02*
X00360000Y02435000D01*
G01X02600000Y03345000D02*
X02600000Y03375000D01*
X02750000Y03375000D01*
X02750000Y03250000D01*
G01X02600000Y03045000D02*
X02600000Y03015000D01*
X02750000Y03015000D01*
X02750000Y03140000D01*
G01X02600000Y03235000D02*
X02600000Y03155000D01*
G54D11*
G01X00615000Y01335000D02*
G03X00615000Y01335000I-00025000J0D01*
G01X02790000Y02525000D02*
X02790000Y02530000D01*
X03000000Y02530000D01*
X03000000Y02525000D01*
G01X02790000Y02315000D02*
X02790000Y02320000D01*
X03000000Y02320000D01*
X03000000Y02315000D01*
G54D12*
G01X00018500Y02066250D02*
X00041870Y02066250D01*
G01X00029210Y02083310D02*
X00029210Y02049180D01*
G01X00107950Y02040000D02*
X00107950Y02118740D01*
X00096270Y02102990D01*
G01X00096270Y02040000D02*
X00119630Y02040000D01*
G01X00162350Y02118740D02*
X00186690Y02040000D01*
X00211030Y02118740D01*
G01X00265430Y02040000D02*
X00272250Y02041310D01*
X00280030Y02045250D01*
X00284900Y02051810D01*
X00286850Y02061000D01*
X00284900Y02070180D01*
X00279060Y02078060D01*
X00270300Y02082000D01*
X00260560Y02082000D01*
X00254720Y02084620D01*
X00249850Y02091180D01*
X00247900Y02100370D01*
X00250830Y02109550D01*
X00257640Y02116120D01*
X00265430Y02118740D01*
X00273220Y02116120D01*
X00280030Y02109550D01*
X00282960Y02100370D01*
X00281010Y02091180D01*
X00276140Y02084620D01*
X00270300Y02082000D01*
X00260560Y02082000D01*
X00251800Y02078060D01*
X00245960Y02070180D01*
X00244010Y02061000D01*
X00245960Y02051810D01*
X00250830Y02045250D01*
X00258610Y02041310D01*
X00265430Y02040000D01*
G01X00085050Y01739370D02*
X00104530Y01739370D01*
X00104530Y01715750D01*
X00098680Y01707870D01*
X00091870Y01702620D01*
X00082130Y01700000D01*
X00072390Y01702620D01*
X00065580Y01707870D01*
X00059740Y01715750D01*
X00055840Y01724930D01*
X00053890Y01735430D01*
X00053890Y01744620D01*
X00055840Y01752490D01*
X00059740Y01761680D01*
X00065580Y01769550D01*
X00071420Y01774800D01*
X00079210Y01778740D01*
X00086030Y01778740D01*
X00093810Y01776120D01*
X00099660Y01770870D01*
G01X00135560Y01700000D02*
X00135560Y01778740D01*
X00180340Y01700000D01*
X00180340Y01778740D01*
G01X00215270Y01700000D02*
X00215270Y01778740D01*
X00234740Y01778740D01*
X00242530Y01774800D01*
X00248370Y01769550D01*
X00253240Y01761680D01*
X00257140Y01752490D01*
X00258110Y01739370D01*
X00257140Y01726250D01*
X00253240Y01717060D01*
X00248370Y01709180D01*
X00242530Y01703940D01*
X00234740Y01700000D01*
X00215270Y01700000D01*
G01X00422050Y02142180D02*
X00416210Y02146120D01*
X00409390Y02148740D01*
X00401600Y02148740D01*
X00392840Y02144800D01*
X00386030Y02138240D01*
X00381160Y02130370D01*
X00377260Y02117240D01*
X00376290Y02105430D01*
X00378240Y02093620D01*
X00381160Y02085750D01*
X00387000Y02077870D01*
X00393810Y02072620D01*
X00400630Y02070000D01*
X00407450Y02070000D01*
X00414260Y02072620D01*
X00420100Y02076560D01*
X00424970Y02081810D01*
G01X00491050Y02070000D02*
X00491050Y02148740D01*
X00455030Y02092310D01*
X00503710Y02092310D01*
G01X00058500Y02886250D02*
X00081870Y02886250D01*
G01X00069210Y02903310D02*
X00069210Y02869180D01*
G01X00126530Y02871810D02*
X00132370Y02865250D01*
X00139190Y02861310D01*
X00147950Y02860000D01*
X00156710Y02862620D01*
X00163530Y02867870D01*
X00168400Y02877060D01*
X00169370Y02887560D01*
X00167420Y02898060D01*
X00162550Y02904620D01*
X00155740Y02909870D01*
X00148920Y02911180D01*
X00142110Y02909870D01*
X00133350Y02904620D01*
X00136270Y02938740D01*
X00162550Y02938740D01*
G01X00202350Y02938740D02*
X00226690Y02860000D01*
X00251030Y02938740D01*
G01X00422050Y02882180D02*
X00416210Y02886120D01*
X00409390Y02888740D01*
X00401600Y02888740D01*
X00392840Y02884800D01*
X00386030Y02878240D01*
X00381160Y02870370D01*
X00377260Y02857240D01*
X00376290Y02845430D01*
X00378240Y02833620D01*
X00381160Y02825750D01*
X00387000Y02817870D01*
X00393810Y02812620D01*
X00400630Y02810000D01*
X00407450Y02810000D01*
X00414260Y02812620D01*
X00420100Y02816560D01*
X00424970Y02821810D01*
G01X00457950Y02825750D02*
X00463790Y02816560D01*
X00471580Y02811310D01*
X00480340Y02810000D01*
X00488130Y02811310D01*
X00495920Y02817870D01*
X00500790Y02825750D01*
X00501760Y02833620D01*
X00499820Y02842810D01*
X00493000Y02849370D01*
X00486190Y02852000D01*
X00477420Y02852000D01*
G01X00486190Y02852000D02*
X00492030Y02855930D01*
X00496900Y02862490D01*
X00498840Y02870370D01*
X00496900Y02878240D01*
X00492030Y02884800D01*
X00483260Y02888740D01*
X00474500Y02887430D01*
X00465740Y02882180D01*
G01X00389300Y04091000D02*
G03X00389300Y04091000I-00160100J0D01*
G01X00099210Y05178740D02*
X00091420Y05176120D01*
X00085580Y05169550D01*
X00081680Y05161680D01*
X00078760Y05151180D01*
X00077790Y05139370D01*
X00078760Y05127560D01*
X00081680Y05117060D01*
X00085580Y05109180D01*
X00091420Y05102620D01*
X00099210Y05100000D01*
X00107000Y05102620D01*
X00112840Y05109180D01*
X00116740Y05117060D01*
X00119660Y05127560D01*
X00120630Y05139370D01*
X00119660Y05151180D01*
X00116740Y05161680D01*
X00112840Y05169550D01*
X00107000Y05176120D01*
X00099210Y05178740D01*
G01X00159450Y05132810D02*
X00166270Y05142000D01*
X00172110Y05147240D01*
X00179900Y05149870D01*
X00186710Y05147240D01*
X00191580Y05142000D01*
X00195480Y05134120D01*
X00196450Y05124930D01*
X00195480Y05117060D01*
X00191580Y05109180D01*
X00185740Y05102620D01*
X00178920Y05100000D01*
X00171130Y05102620D01*
X00164320Y05110500D01*
X00160420Y05122310D01*
X00159450Y05135430D01*
X00161400Y05152490D01*
X00164320Y05161680D01*
X00169190Y05170870D01*
X00176000Y05177430D01*
X00182820Y05178740D01*
X00189630Y05176120D01*
X00194500Y05169550D01*
G01X00239160Y05097380D02*
X00274220Y05178740D01*
G01X00335430Y05100000D02*
X00335430Y05178740D01*
X00323750Y05162990D01*
G01X00323750Y05100000D02*
X00347110Y05100000D01*
G01X00392750Y05111810D02*
X00398590Y05105250D01*
X00405410Y05101310D01*
X00414170Y05100000D01*
X00422930Y05102620D01*
X00429750Y05107870D01*
X00434620Y05117060D01*
X00435590Y05127560D01*
X00433640Y05138060D01*
X00428770Y05144620D01*
X00421960Y05149870D01*
X00415140Y05151180D01*
X00408330Y05149870D01*
X00399570Y05144620D01*
X00402490Y05178740D01*
X00428770Y05178740D01*
G01X00890180Y01200000D02*
X00931080Y01278740D01*
G01X00890180Y01278740D02*
X00931080Y01200000D01*
G01X00989370Y01200000D02*
X00989370Y01278740D01*
X00977690Y01262990D01*
G01X00977690Y01200000D02*
X01001050Y01200000D01*
G01X00912680Y02322180D02*
X00906840Y02326120D01*
X00900020Y02328740D01*
X00892230Y02328740D01*
X00883470Y02324800D01*
X00876660Y02318240D01*
X00871790Y02310370D01*
X00867890Y02297240D01*
X00866920Y02285430D01*
X00868870Y02273620D01*
X00871790Y02265750D01*
X00877630Y02257870D01*
X00884440Y02252620D01*
X00891260Y02250000D01*
X00898080Y02250000D01*
X00904890Y02252620D01*
X00910730Y02256560D01*
X00915600Y02261810D01*
G01X00970000Y02250000D02*
X00970000Y02328740D01*
X00958320Y02312990D01*
G01X00958320Y02250000D02*
X00981680Y02250000D01*
G01X01030240Y02282810D02*
X01037060Y02292000D01*
X01042900Y02297240D01*
X01050690Y02299870D01*
X01057500Y02297240D01*
X01062370Y02292000D01*
X01066270Y02284120D01*
X01067240Y02274930D01*
X01066270Y02267060D01*
X01062370Y02259180D01*
X01056530Y02252620D01*
X01049710Y02250000D01*
X01041920Y02252620D01*
X01035110Y02260500D01*
X01031210Y02272310D01*
X01030240Y02285430D01*
X01032190Y02302490D01*
X01035110Y02311680D01*
X01039980Y02320870D01*
X01046790Y02327430D01*
X01053610Y02328740D01*
X01060420Y02326120D01*
X01065290Y02319550D01*
G01X00602680Y01762180D02*
X00596840Y01766120D01*
X00590020Y01768740D01*
X00582230Y01768740D01*
X00573470Y01764800D01*
X00566660Y01758240D01*
X00561790Y01750370D01*
X00557890Y01737240D01*
X00556920Y01725430D01*
X00558870Y01713620D01*
X00561790Y01705750D01*
X00567630Y01697870D01*
X00574440Y01692620D01*
X00581260Y01690000D01*
X00588080Y01690000D01*
X00594890Y01692620D01*
X00600730Y01696560D01*
X00605600Y01701810D01*
G01X00660000Y01690000D02*
X00660000Y01768740D01*
X00648320Y01752990D01*
G01X00648320Y01690000D02*
X00671680Y01690000D01*
G01X00750420Y01690000D02*
X00750420Y01768740D01*
X00714400Y01712310D01*
X00763080Y01712310D01*
G01X00741160Y02178740D02*
X00741160Y02100000D01*
X00780100Y02100000D01*
G01X00851050Y02100000D02*
X00851050Y02178740D01*
X00815030Y02122310D01*
X00863710Y02122310D01*
G01X00931160Y01910000D02*
X00931160Y01988740D01*
X00955500Y01988740D01*
X00963290Y01984800D01*
X00968160Y01979550D01*
X00970100Y01969050D01*
X00968160Y01958560D01*
X00962310Y01952000D01*
X00955500Y01948060D01*
X00931160Y01948060D01*
G01X00955500Y01948060D02*
X00970100Y01910000D01*
G01X01027420Y01910000D02*
X01029370Y01927060D01*
X01032290Y01941490D01*
X01036190Y01954620D01*
X01041050Y01969050D01*
X01048840Y01988740D01*
X01009900Y01988740D01*
G01X00762680Y02442180D02*
X00756840Y02446120D01*
X00750020Y02448740D01*
X00742230Y02448740D01*
X00733470Y02444800D01*
X00726660Y02438240D01*
X00721790Y02430370D01*
X00717890Y02417240D01*
X00716920Y02405430D01*
X00718870Y02393620D01*
X00721790Y02385750D01*
X00727630Y02377870D01*
X00734440Y02372620D01*
X00741260Y02370000D01*
X00748080Y02370000D01*
X00754890Y02372620D01*
X00760730Y02376560D01*
X00765600Y02381810D01*
G01X00820000Y02370000D02*
X00820000Y02448740D01*
X00808320Y02432990D01*
G01X00808320Y02370000D02*
X00831680Y02370000D01*
G01X00877320Y02385750D02*
X00883160Y02376560D01*
X00890950Y02371310D01*
X00899710Y02370000D01*
X00907500Y02371310D01*
X00915290Y02377870D01*
X00920160Y02385750D01*
X00921130Y02393620D01*
X00919190Y02402810D01*
X00912370Y02409370D01*
X00905560Y02412000D01*
X00896790Y02412000D01*
G01X00905560Y02412000D02*
X00911400Y02415930D01*
X00916270Y02422490D01*
X00918210Y02430370D01*
X00916270Y02438240D01*
X00911400Y02444800D01*
X00902630Y02448740D01*
X00893870Y02447430D01*
X00885110Y02442180D01*
G01X00638740Y02622210D02*
X00582310Y02622210D01*
X00570500Y02618320D01*
X00562620Y02610530D01*
X00560000Y02600790D01*
X00562620Y02591050D01*
X00570500Y02583260D01*
X00582310Y02579370D01*
X00638740Y02579370D01*
G01X00625620Y02540550D02*
X00633490Y02534710D01*
X00637430Y02527890D01*
X00638740Y02520100D01*
X00636120Y02510370D01*
X00629550Y02503550D01*
X00621680Y02501600D01*
X00613800Y02502580D01*
X00607240Y02506470D01*
X00594120Y02525940D01*
X00584930Y02534710D01*
X00571810Y02540550D01*
X00560000Y02542500D01*
X00560000Y02501600D01*
G01X00562050Y03252180D02*
X00556210Y03256120D01*
X00549390Y03258740D01*
X00541600Y03258740D01*
X00532840Y03254800D01*
X00526030Y03248240D01*
X00521160Y03240370D01*
X00517260Y03227240D01*
X00516290Y03215430D01*
X00518240Y03203620D01*
X00521160Y03195750D01*
X00527000Y03187870D01*
X00533810Y03182620D01*
X00540630Y03180000D01*
X00547450Y03180000D01*
X00554260Y03182620D01*
X00560100Y03186560D01*
X00564970Y03191810D01*
G01X00597950Y03191810D02*
X00603790Y03185250D01*
X00610610Y03181310D01*
X00619370Y03180000D01*
X00628130Y03182620D01*
X00634950Y03187870D01*
X00639820Y03197060D01*
X00640790Y03207560D01*
X00638840Y03218060D01*
X00633970Y03224620D01*
X00627160Y03229870D01*
X00620340Y03231180D01*
X00613530Y03229870D01*
X00604770Y03224620D01*
X00607690Y03258740D01*
X00633970Y03258740D01*
G01X00952050Y03312180D02*
X00946210Y03316120D01*
X00939390Y03318740D01*
X00931600Y03318740D01*
X00922840Y03314800D01*
X00916030Y03308240D01*
X00911160Y03300370D01*
X00907260Y03287240D01*
X00906290Y03275430D01*
X00908240Y03263620D01*
X00911160Y03255750D01*
X00917000Y03247870D01*
X00923810Y03242620D01*
X00930630Y03240000D01*
X00937450Y03240000D01*
X00944260Y03242620D01*
X00950100Y03246560D01*
X00954970Y03251810D01*
G01X00990870Y03272810D02*
X00997690Y03282000D01*
X01003530Y03287240D01*
X01011320Y03289870D01*
X01018130Y03287240D01*
X01023000Y03282000D01*
X01026900Y03274120D01*
X01027870Y03264930D01*
X01026900Y03257060D01*
X01023000Y03249180D01*
X01017160Y03242620D01*
X01010340Y03240000D01*
X01002550Y03242620D01*
X00995740Y03250500D01*
X00991840Y03262310D01*
X00990870Y03275430D01*
X00992820Y03292490D01*
X00995740Y03301680D01*
X01000610Y03310870D01*
X01007420Y03317430D01*
X01014240Y03318740D01*
X01021050Y03316120D01*
X01025920Y03309550D01*
G01X00639740Y04015750D02*
X00644610Y04007870D01*
X00650450Y04002620D01*
X00657260Y04000000D01*
X00665050Y04002620D01*
X00670890Y04007870D01*
X00676740Y04015750D01*
X00678680Y04026250D01*
X00678680Y04078740D01*
G01X00719450Y04065620D02*
X00725290Y04073490D01*
X00732110Y04077430D01*
X00739900Y04078740D01*
X00749630Y04076120D01*
X00756450Y04069550D01*
X00758400Y04061680D01*
X00757420Y04053800D01*
X00753530Y04047240D01*
X00734060Y04034120D01*
X00725290Y04024930D01*
X00719450Y04011810D01*
X00717500Y04000000D01*
X00758400Y04000000D01*
G01X00873700Y04364300D02*
X00873700Y03979300D01*
G01X00873700Y03979300D02*
X03450700Y03979300D01*
G01X03450700Y04046800D02*
X03528700Y04046800D01*
X03528700Y03921800D01*
X00795700Y03921800D01*
X00795700Y04046800D01*
X00873700Y04046800D01*
G01X00449740Y04008740D02*
X00449740Y03930000D01*
X00488680Y03930000D01*
G01X00547950Y03930000D02*
X00547950Y04008740D01*
X00536270Y03992990D01*
G01X00536270Y03930000D02*
X00559630Y03930000D01*
G01X03450700Y04364300D02*
X00873700Y04364300D01*
G01X03449700Y04296800D02*
X03528700Y04296800D01*
X03528700Y04421800D01*
X00795700Y04421800D01*
X00795700Y04296800D01*
X00873700Y04296800D01*
G01X00607790Y05100000D02*
X00607790Y05178740D01*
X00627260Y05178740D01*
X00635050Y05174800D01*
X00640890Y05169550D01*
X00645760Y05161680D01*
X00649660Y05152490D01*
X00650630Y05139370D01*
X00649660Y05126250D01*
X00645760Y05117060D01*
X00640890Y05109180D01*
X00635050Y05103940D01*
X00627260Y05100000D01*
X00607790Y05100000D01*
G01X00686530Y05100000D02*
X00686530Y05178740D01*
G01X00723530Y05178740D02*
X00686530Y05130180D01*
G01X00729370Y05100000D02*
X00703080Y05152490D01*
G01X00774030Y05126250D02*
X00799350Y05126250D01*
G01X00865430Y05178740D02*
X00865430Y05100000D01*
G01X00843040Y05178740D02*
X00887820Y05178740D01*
G01X00929570Y05135430D02*
X00960720Y05135430D01*
X00957800Y05144620D01*
X00952930Y05149870D01*
X00946120Y05152490D01*
X00939300Y05151180D01*
X00933460Y05147240D01*
X00929570Y05138060D01*
X00927620Y05130180D01*
X00927620Y05122310D01*
X00929570Y05114430D01*
X00934430Y05106560D01*
X00940280Y05101310D01*
X00947090Y05100000D01*
X00953910Y05102620D01*
X00960720Y05110500D01*
G01X01038490Y05145930D02*
X01031670Y05151180D01*
X01025830Y05152490D01*
X01018040Y05149870D01*
X01012200Y05144620D01*
X01008310Y05135430D01*
X01007330Y05126250D01*
X01008310Y05117060D01*
X01012200Y05109180D01*
X01018040Y05102620D01*
X01025830Y05100000D01*
X01032650Y05102620D01*
X01038490Y05107870D01*
G01X01085100Y05100000D02*
X01085100Y05178740D01*
G01X01085100Y05140680D02*
X01089970Y05147240D01*
X01094830Y05151180D01*
X01102620Y05152490D01*
X01108470Y05151180D01*
X01115280Y05145930D01*
X01118200Y05138060D01*
X01118200Y05100000D01*
G01X01163840Y05100000D02*
X01163840Y05152490D01*
G01X01163840Y05139370D02*
X01167730Y05145930D01*
X01173570Y05151180D01*
X01181360Y05152490D01*
X01188180Y05151180D01*
X01194020Y05145930D01*
X01196940Y05136740D01*
X01196940Y05100000D01*
G01X01259130Y05100000D02*
X01253290Y05101310D01*
X01247450Y05106560D01*
X01243550Y05115750D01*
X01241600Y05126250D01*
X01243550Y05136740D01*
X01247450Y05145930D01*
X01253290Y05151180D01*
X01259130Y05152490D01*
X01264970Y05151180D01*
X01270810Y05145930D01*
X01274710Y05136740D01*
X01275680Y05126250D01*
X01274710Y05115750D01*
X01270810Y05106560D01*
X01264970Y05101310D01*
X01259130Y05100000D01*
G01X01337870Y05100000D02*
X01337870Y05178740D01*
G01X01416610Y05100000D02*
X01410770Y05101310D01*
X01404930Y05106560D01*
X01401030Y05115750D01*
X01399080Y05126250D01*
X01401030Y05136740D01*
X01404930Y05145930D01*
X01410770Y05151180D01*
X01416610Y05152490D01*
X01422450Y05151180D01*
X01428290Y05145930D01*
X01432190Y05136740D01*
X01433160Y05126250D01*
X01432190Y05115750D01*
X01428290Y05106560D01*
X01422450Y05101310D01*
X01416610Y05100000D01*
G01X01481720Y05080310D02*
X01488530Y05075070D01*
X01496320Y05073750D01*
X01503140Y05075070D01*
X01508980Y05081630D01*
X01512880Y05090810D01*
X01512880Y05152490D01*
G01X01512880Y05142000D02*
X01508980Y05147240D01*
X01503140Y05151180D01*
X01496320Y05152490D01*
X01488530Y05149870D01*
X01483670Y05144620D01*
X01479770Y05135430D01*
X01477820Y05126250D01*
X01478800Y05118370D01*
X01482690Y05109180D01*
X01488530Y05102620D01*
X01496320Y05100000D01*
X01502170Y05101310D01*
X01508980Y05106560D01*
X01512880Y05111810D01*
G01X01574090Y05152490D02*
X01574090Y05100000D01*
G01X01574090Y05173490D02*
X01572140Y05174800D01*
X01572140Y05177430D01*
X01574090Y05178740D01*
X01576040Y05177430D01*
X01576040Y05174800D01*
X01574090Y05173490D01*
G01X01638230Y05135430D02*
X01669380Y05135430D01*
X01666460Y05144620D01*
X01661590Y05149870D01*
X01654780Y05152490D01*
X01647960Y05151180D01*
X01642120Y05147240D01*
X01638230Y05138060D01*
X01636280Y05130180D01*
X01636280Y05122310D01*
X01638230Y05114430D01*
X01643090Y05106560D01*
X01648940Y05101310D01*
X01655750Y05100000D01*
X01662570Y05102620D01*
X01669380Y05110500D01*
G01X01716970Y05109180D02*
X01721830Y05103940D01*
X01728650Y05100000D01*
X01734490Y05100000D01*
X01740330Y05102620D01*
X01744230Y05106560D01*
X01746170Y05111810D01*
X01745200Y05119690D01*
X01741310Y05123620D01*
X01723780Y05131490D01*
X01719890Y05140680D01*
X01721830Y05147240D01*
X01725730Y05151180D01*
X01731570Y05152490D01*
X01737410Y05151180D01*
X01743250Y05147240D01*
G01X01462680Y01502180D02*
X01456840Y01506120D01*
X01450020Y01508740D01*
X01442230Y01508740D01*
X01433470Y01504800D01*
X01426660Y01498240D01*
X01421790Y01490370D01*
X01417890Y01477240D01*
X01416920Y01465430D01*
X01418870Y01453620D01*
X01421790Y01445750D01*
X01427630Y01437870D01*
X01434440Y01432620D01*
X01441260Y01430000D01*
X01448080Y01430000D01*
X01454890Y01432620D01*
X01460730Y01436560D01*
X01465600Y01441810D01*
G01X01520000Y01430000D02*
X01520000Y01508740D01*
X01508320Y01492990D01*
G01X01508320Y01430000D02*
X01531680Y01430000D01*
G01X01582190Y01439180D02*
X01589000Y01432620D01*
X01596790Y01430000D01*
X01604580Y01432620D01*
X01611400Y01440500D01*
X01616270Y01452310D01*
X01618210Y01464120D01*
X01618210Y01478560D01*
X01616270Y01490370D01*
X01611400Y01500870D01*
X01605560Y01506120D01*
X01598740Y01508740D01*
X01590950Y01506120D01*
X01585110Y01500870D01*
X01581210Y01492990D01*
X01579270Y01482490D01*
X01581210Y01473310D01*
X01586080Y01464120D01*
X01591920Y01458870D01*
X01598740Y01457560D01*
X01606530Y01460180D01*
X01612370Y01466740D01*
X01618210Y01478560D01*
G01X01232680Y01762180D02*
X01226840Y01766120D01*
X01220020Y01768740D01*
X01212230Y01768740D01*
X01203470Y01764800D01*
X01196660Y01758240D01*
X01191790Y01750370D01*
X01187890Y01737240D01*
X01186920Y01725430D01*
X01188870Y01713620D01*
X01191790Y01705750D01*
X01197630Y01697870D01*
X01204440Y01692620D01*
X01211260Y01690000D01*
X01218080Y01690000D01*
X01224890Y01692620D01*
X01230730Y01696560D01*
X01235600Y01701810D01*
G01X01290000Y01690000D02*
X01290000Y01768740D01*
X01278320Y01752990D01*
G01X01278320Y01690000D02*
X01301680Y01690000D01*
G01X01347320Y01701810D02*
X01353160Y01695250D01*
X01359980Y01691310D01*
X01368740Y01690000D01*
X01377500Y01692620D01*
X01384320Y01697870D01*
X01389190Y01707060D01*
X01390160Y01717560D01*
X01388210Y01728060D01*
X01383340Y01734620D01*
X01376530Y01739870D01*
X01369710Y01741180D01*
X01362900Y01739870D01*
X01354140Y01734620D01*
X01357060Y01768740D01*
X01383340Y01768740D01*
G01X01460000Y01885000D02*
X01960000Y01885000D01*
X01960000Y02385000D01*
X01460000Y02385000D01*
X01460000Y01885000D01*
G01X01652050Y02662180D02*
X01646210Y02666120D01*
X01639390Y02668740D01*
X01631600Y02668740D01*
X01622840Y02664800D01*
X01616030Y02658240D01*
X01611160Y02650370D01*
X01607260Y02637240D01*
X01606290Y02625430D01*
X01608240Y02613620D01*
X01611160Y02605750D01*
X01617000Y02597870D01*
X01623810Y02592620D01*
X01630630Y02590000D01*
X01637450Y02590000D01*
X01644260Y02592620D01*
X01650100Y02596560D01*
X01654970Y02601810D01*
G01X01692820Y02599180D02*
X01699630Y02592620D01*
X01707420Y02590000D01*
X01715210Y02592620D01*
X01722030Y02600500D01*
X01726900Y02612310D01*
X01728840Y02624120D01*
X01728840Y02638560D01*
X01726900Y02650370D01*
X01722030Y02660870D01*
X01716190Y02666120D01*
X01709370Y02668740D01*
X01701580Y02666120D01*
X01695740Y02660870D01*
X01691840Y02652990D01*
X01689900Y02642490D01*
X01691840Y02633310D01*
X01696710Y02624120D01*
X01702550Y02618870D01*
X01709370Y02617560D01*
X01717160Y02620180D01*
X01723000Y02626740D01*
X01728840Y02638560D01*
G01X01122180Y02917320D02*
X01126120Y02923160D01*
X01128740Y02929980D01*
X01128740Y02937770D01*
X01124800Y02946530D01*
X01118240Y02953340D01*
X01110370Y02958210D01*
X01097240Y02962110D01*
X01085430Y02963080D01*
X01073620Y02961130D01*
X01065750Y02958210D01*
X01057870Y02952370D01*
X01052620Y02945560D01*
X01050000Y02938740D01*
X01050000Y02931920D01*
X01052620Y02925110D01*
X01056560Y02919270D01*
X01061810Y02914400D01*
G01X01050000Y02860000D02*
X01128740Y02860000D01*
X01112990Y02871680D01*
G01X01050000Y02871680D02*
X01050000Y02848320D01*
G01X01128740Y02781260D02*
X01126120Y02789050D01*
X01119550Y02794890D01*
X01111680Y02798790D01*
X01101180Y02801710D01*
X01089370Y02802680D01*
X01077560Y02801710D01*
X01067060Y02798790D01*
X01059180Y02794890D01*
X01052620Y02789050D01*
X01050000Y02781260D01*
X01052620Y02773470D01*
X01059180Y02767630D01*
X01067060Y02763730D01*
X01077560Y02760810D01*
X01089370Y02759840D01*
X01101180Y02760810D01*
X01111680Y02763730D01*
X01119550Y02767630D01*
X01126120Y02773470D01*
X01128740Y02781260D01*
G01X01352680Y02662180D02*
X01346840Y02666120D01*
X01340020Y02668740D01*
X01332230Y02668740D01*
X01323470Y02664800D01*
X01316660Y02658240D01*
X01311790Y02650370D01*
X01307890Y02637240D01*
X01306920Y02625430D01*
X01308870Y02613620D01*
X01311790Y02605750D01*
X01317630Y02597870D01*
X01324440Y02592620D01*
X01331260Y02590000D01*
X01338080Y02590000D01*
X01344890Y02592620D01*
X01350730Y02596560D01*
X01355600Y02601810D01*
G01X01410000Y02590000D02*
X01410000Y02668740D01*
X01398320Y02652990D01*
G01X01398320Y02590000D02*
X01421680Y02590000D01*
G01X01486790Y02590000D02*
X01488740Y02607060D01*
X01491660Y02621490D01*
X01495560Y02634620D01*
X01500420Y02649050D01*
X01508210Y02668740D01*
X01469270Y02668740D01*
G01X01307790Y02518740D02*
X01307790Y02462310D01*
X01311680Y02450500D01*
X01319470Y02442620D01*
X01329210Y02440000D01*
X01338950Y02442620D01*
X01346740Y02450500D01*
X01350630Y02462310D01*
X01350630Y02518740D01*
G01X01386530Y02451810D02*
X01392370Y02445250D01*
X01399190Y02441310D01*
X01407950Y02440000D01*
X01416710Y02442620D01*
X01423530Y02447870D01*
X01428400Y02457060D01*
X01429370Y02467560D01*
X01427420Y02478060D01*
X01422550Y02484620D01*
X01415740Y02489870D01*
X01408920Y02491180D01*
X01402110Y02489870D01*
X01393350Y02484620D01*
X01396270Y02518740D01*
X01422550Y02518740D01*
G01X01502050Y03112180D02*
X01496210Y03116120D01*
X01489390Y03118740D01*
X01481600Y03118740D01*
X01472840Y03114800D01*
X01466030Y03108240D01*
X01461160Y03100370D01*
X01457260Y03087240D01*
X01456290Y03075430D01*
X01458240Y03063620D01*
X01461160Y03055750D01*
X01467000Y03047870D01*
X01473810Y03042620D01*
X01480630Y03040000D01*
X01487450Y03040000D01*
X01494260Y03042620D01*
X01500100Y03046560D01*
X01504970Y03051810D01*
G01X01557420Y03040000D02*
X01559370Y03057060D01*
X01562290Y03071490D01*
X01566190Y03084620D01*
X01571050Y03099050D01*
X01578840Y03118740D01*
X01539900Y03118740D01*
G01X01332680Y03512180D02*
X01326840Y03516120D01*
X01320020Y03518740D01*
X01312230Y03518740D01*
X01303470Y03514800D01*
X01296660Y03508240D01*
X01291790Y03500370D01*
X01287890Y03487240D01*
X01286920Y03475430D01*
X01288870Y03463620D01*
X01291790Y03455750D01*
X01297630Y03447870D01*
X01304440Y03442620D01*
X01311260Y03440000D01*
X01318080Y03440000D01*
X01324890Y03442620D01*
X01330730Y03446560D01*
X01335600Y03451810D01*
G01X01390000Y03440000D02*
X01390000Y03518740D01*
X01378320Y03502990D01*
G01X01378320Y03440000D02*
X01401680Y03440000D01*
G01X01450240Y03505620D02*
X01456080Y03513490D01*
X01462900Y03517430D01*
X01470690Y03518740D01*
X01480420Y03516120D01*
X01487240Y03509550D01*
X01489190Y03501680D01*
X01488210Y03493800D01*
X01484320Y03487240D01*
X01464850Y03474120D01*
X01456080Y03464930D01*
X01450240Y03451810D01*
X01448290Y03440000D01*
X01489190Y03440000D01*
G01X01137790Y03440000D02*
X01137790Y03518740D01*
X01157260Y03518740D01*
X01165050Y03514800D01*
X01170890Y03509550D01*
X01175760Y03501680D01*
X01179660Y03492490D01*
X01180630Y03479370D01*
X01179660Y03466250D01*
X01175760Y03457060D01*
X01170890Y03449180D01*
X01165050Y03443940D01*
X01157260Y03440000D01*
X01137790Y03440000D01*
G01X01237950Y03440000D02*
X01237950Y03518740D01*
X01226270Y03502990D01*
G01X01226270Y03440000D02*
X01249630Y03440000D01*
G01X01311160Y02998740D02*
X01311160Y02920000D01*
X01350100Y02920000D01*
G01X01387950Y02935750D02*
X01393790Y02926560D01*
X01401580Y02921310D01*
X01410340Y02920000D01*
X01418130Y02921310D01*
X01425920Y02927870D01*
X01430790Y02935750D01*
X01431760Y02943620D01*
X01429820Y02952810D01*
X01423000Y02959370D01*
X01416190Y02962000D01*
X01407420Y02962000D01*
G01X01416190Y02962000D02*
X01422030Y02965930D01*
X01426900Y02972490D01*
X01428840Y02980370D01*
X01426900Y02988240D01*
X01422030Y02994800D01*
X01413260Y02998740D01*
X01404500Y02997430D01*
X01395740Y02992180D01*
G01X01291160Y03290000D02*
X01291160Y03368740D01*
X01315500Y03368740D01*
X01323290Y03364800D01*
X01328160Y03359550D01*
X01330100Y03349050D01*
X01328160Y03338560D01*
X01322310Y03332000D01*
X01315500Y03328060D01*
X01291160Y03328060D01*
G01X01315500Y03328060D02*
X01330100Y03290000D01*
G01X01401050Y03290000D02*
X01401050Y03368740D01*
X01365030Y03312310D01*
X01413710Y03312310D01*
G01X01050000Y03188840D02*
X01128740Y03188840D01*
X01128740Y03164500D01*
X01124800Y03156710D01*
X01119550Y03151840D01*
X01109050Y03149900D01*
X01098560Y03151840D01*
X01092000Y03157690D01*
X01088060Y03164500D01*
X01088060Y03188840D01*
G01X01088060Y03164500D02*
X01050000Y03149900D01*
G01X01061810Y03112050D02*
X01055250Y03106210D01*
X01051310Y03099390D01*
X01050000Y03090630D01*
X01052620Y03081870D01*
X01057870Y03075050D01*
X01067060Y03070180D01*
X01077560Y03069210D01*
X01088060Y03071160D01*
X01094620Y03076030D01*
X01099870Y03082840D01*
X01101180Y03089660D01*
X01099870Y03096470D01*
X01094620Y03105230D01*
X01128740Y03102310D01*
X01128740Y03076030D01*
G01X01265000Y03525000D02*
X01435000Y03525000D01*
X01435000Y03655000D01*
X01265000Y03655000D01*
X01265000Y03525000D01*
G01X01191160Y03740000D02*
X01191160Y03818740D01*
X01215500Y03818740D01*
X01223290Y03814800D01*
X01228160Y03809550D01*
X01230100Y03799050D01*
X01228160Y03788560D01*
X01222310Y03782000D01*
X01215500Y03778060D01*
X01191160Y03778060D01*
G01X01215500Y03778060D02*
X01230100Y03740000D01*
G01X01289370Y03740000D02*
X01289370Y03818740D01*
X01277690Y03802990D01*
G01X01277690Y03740000D02*
X01301050Y03740000D01*
G01X01758760Y01200500D02*
X01766550Y01193940D01*
X01775320Y01190000D01*
X01783100Y01190000D01*
X01790890Y01193940D01*
X01796740Y01200500D01*
X01799660Y01209690D01*
X01797710Y01218870D01*
X01792840Y01226740D01*
X01784080Y01232000D01*
X01772390Y01234620D01*
X01765580Y01239870D01*
X01762660Y01249050D01*
X01764610Y01258240D01*
X01769470Y01264800D01*
X01776290Y01268740D01*
X01783100Y01268740D01*
X01789920Y01266120D01*
X01795760Y01259550D01*
G01X01879370Y01262180D02*
X01873530Y01266120D01*
X01866710Y01268740D01*
X01858920Y01268740D01*
X01850160Y01264800D01*
X01843350Y01258240D01*
X01838480Y01250370D01*
X01834580Y01237240D01*
X01833610Y01225430D01*
X01835560Y01213620D01*
X01838480Y01205750D01*
X01844320Y01197870D01*
X01851130Y01192620D01*
X01857950Y01190000D01*
X01864770Y01190000D01*
X01871580Y01192620D01*
X01877420Y01196560D01*
X01882290Y01201810D01*
G01X01917220Y01268740D02*
X01917220Y01190000D01*
X01956160Y01190000D01*
G01X02071160Y01550000D02*
X02071160Y01628740D01*
X02095500Y01628740D01*
X02103290Y01624800D01*
X02108160Y01619550D01*
X02110100Y01609050D01*
X02108160Y01598560D01*
X02102310Y01592000D01*
X02095500Y01588060D01*
X02071160Y01588060D01*
G01X02095500Y01588060D02*
X02110100Y01550000D01*
G01X02169370Y01550000D02*
X02176190Y01551310D01*
X02183970Y01555250D01*
X02188840Y01561810D01*
X02190790Y01571000D01*
X02188840Y01580180D01*
X02183000Y01588060D01*
X02174240Y01592000D01*
X02164500Y01592000D01*
X02158660Y01594620D01*
X02153790Y01601180D01*
X02151840Y01610370D01*
X02154770Y01619550D01*
X02161580Y01626120D01*
X02169370Y01628740D01*
X02177160Y01626120D01*
X02183970Y01619550D01*
X02186900Y01610370D01*
X02184950Y01601180D01*
X02180080Y01594620D01*
X02174240Y01592000D01*
X02164500Y01592000D01*
X02155740Y01588060D01*
X02149900Y01580180D01*
X02147950Y01571000D01*
X02149900Y01561810D01*
X02154770Y01555250D01*
X02162550Y01551310D01*
X02169370Y01550000D01*
G01X02071160Y01430000D02*
X02071160Y01508740D01*
X02095500Y01508740D01*
X02103290Y01504800D01*
X02108160Y01499550D01*
X02110100Y01489050D01*
X02108160Y01478560D01*
X02102310Y01472000D01*
X02095500Y01468060D01*
X02071160Y01468060D01*
G01X02095500Y01468060D02*
X02110100Y01430000D01*
G01X02152820Y01439180D02*
X02159630Y01432620D01*
X02167420Y01430000D01*
X02175210Y01432620D01*
X02182030Y01440500D01*
X02186900Y01452310D01*
X02188840Y01464120D01*
X02188840Y01478560D01*
X02186900Y01490370D01*
X02182030Y01500870D01*
X02176190Y01506120D01*
X02169370Y01508740D01*
X02161580Y01506120D01*
X02155740Y01500870D01*
X02151840Y01492990D01*
X02149900Y01482490D01*
X02151840Y01473310D01*
X02156710Y01464120D01*
X02162550Y01458870D01*
X02169370Y01457560D01*
X02177160Y01460180D01*
X02183000Y01466740D01*
X02188840Y01478560D01*
G01X02212680Y01882180D02*
X02206840Y01886120D01*
X02200020Y01888740D01*
X02192230Y01888740D01*
X02183470Y01884800D01*
X02176660Y01878240D01*
X02171790Y01870370D01*
X02167890Y01857240D01*
X02166920Y01845430D01*
X02168870Y01833620D01*
X02171790Y01825750D01*
X02177630Y01817870D01*
X02184440Y01812620D01*
X02191260Y01810000D01*
X02198080Y01810000D01*
X02204890Y01812620D01*
X02210730Y01816560D01*
X02215600Y01821810D01*
G01X02270000Y01810000D02*
X02270000Y01888740D01*
X02258320Y01872990D01*
G01X02258320Y01810000D02*
X02281680Y01810000D01*
G01X02348740Y01810000D02*
X02355560Y01811310D01*
X02363340Y01815250D01*
X02368210Y01821810D01*
X02370160Y01831000D01*
X02368210Y01840180D01*
X02362370Y01848060D01*
X02353610Y01852000D01*
X02343870Y01852000D01*
X02338030Y01854620D01*
X02333160Y01861180D01*
X02331210Y01870370D01*
X02334140Y01879550D01*
X02340950Y01886120D01*
X02348740Y01888740D01*
X02356530Y01886120D01*
X02363340Y01879550D01*
X02366270Y01870370D01*
X02364320Y01861180D01*
X02359450Y01854620D01*
X02353610Y01852000D01*
X02343870Y01852000D01*
X02335110Y01848060D01*
X02329270Y01840180D01*
X02327320Y01831000D01*
X02329270Y01821810D01*
X02334140Y01815250D01*
X02341920Y01811310D01*
X02348740Y01810000D01*
G01X02198500Y02796250D02*
X02221870Y02796250D01*
G01X02209210Y02813310D02*
X02209210Y02779180D01*
G01X02266530Y02785750D02*
X02272370Y02776560D01*
X02280160Y02771310D01*
X02288920Y02770000D01*
X02296710Y02771310D01*
X02304500Y02777870D01*
X02309370Y02785750D01*
X02310340Y02793620D01*
X02308400Y02802810D01*
X02301580Y02809370D01*
X02294770Y02812000D01*
X02286000Y02812000D01*
G01X02294770Y02812000D02*
X02300610Y02815930D01*
X02305480Y02822490D01*
X02307420Y02830370D01*
X02305480Y02838240D01*
X02300610Y02844800D01*
X02291840Y02848740D01*
X02283080Y02847430D01*
X02274320Y02842180D01*
G01X02342350Y02848740D02*
X02366690Y02770000D01*
X02391030Y02848740D01*
G01X02424010Y02785750D02*
X02429850Y02776560D01*
X02437640Y02771310D01*
X02446400Y02770000D01*
X02454190Y02771310D01*
X02461980Y02777870D01*
X02466850Y02785750D01*
X02467820Y02793620D01*
X02465880Y02802810D01*
X02459060Y02809370D01*
X02452250Y02812000D01*
X02443480Y02812000D01*
G01X02452250Y02812000D02*
X02458090Y02815930D01*
X02462960Y02822490D01*
X02464900Y02830370D01*
X02462960Y02838240D01*
X02458090Y02844800D01*
X02449320Y02848740D01*
X02440560Y02847430D01*
X02431800Y02842180D01*
G01X01951160Y02600000D02*
X01951160Y02678740D01*
X01975500Y02678740D01*
X01983290Y02674800D01*
X01988160Y02669550D01*
X01990100Y02659050D01*
X01988160Y02648560D01*
X01982310Y02642000D01*
X01975500Y02638060D01*
X01951160Y02638060D01*
G01X01975500Y02638060D02*
X01990100Y02600000D01*
G01X02027950Y02615750D02*
X02033790Y02606560D01*
X02041580Y02601310D01*
X02050340Y02600000D01*
X02058130Y02601310D01*
X02065920Y02607870D01*
X02070790Y02615750D01*
X02071760Y02623620D01*
X02069820Y02632810D01*
X02063000Y02639370D01*
X02056190Y02642000D01*
X02047420Y02642000D01*
G01X02056190Y02642000D02*
X02062030Y02645930D01*
X02066900Y02652490D01*
X02068840Y02660370D01*
X02066900Y02668240D01*
X02062030Y02674800D01*
X02053260Y02678740D01*
X02044500Y02677430D01*
X02035740Y02672180D01*
G01X01862050Y02992180D02*
X01856210Y02996120D01*
X01849390Y02998740D01*
X01841600Y02998740D01*
X01832840Y02994800D01*
X01826030Y02988240D01*
X01821160Y02980370D01*
X01817260Y02967240D01*
X01816290Y02955430D01*
X01818240Y02943620D01*
X01821160Y02935750D01*
X01827000Y02927870D01*
X01833810Y02922620D01*
X01840630Y02920000D01*
X01847450Y02920000D01*
X01854260Y02922620D01*
X01860100Y02926560D01*
X01864970Y02931810D01*
G01X01919370Y02920000D02*
X01926190Y02921310D01*
X01933970Y02925250D01*
X01938840Y02931810D01*
X01940790Y02941000D01*
X01938840Y02950180D01*
X01933000Y02958060D01*
X01924240Y02962000D01*
X01914500Y02962000D01*
X01908660Y02964620D01*
X01903790Y02971180D01*
X01901840Y02980370D01*
X01904770Y02989550D01*
X01911580Y02996120D01*
X01919370Y02998740D01*
X01927160Y02996120D01*
X01933970Y02989550D01*
X01936900Y02980370D01*
X01934950Y02971180D01*
X01930080Y02964620D01*
X01924240Y02962000D01*
X01914500Y02962000D01*
X01905740Y02958060D01*
X01899900Y02950180D01*
X01897950Y02941000D01*
X01899900Y02931810D01*
X01904770Y02925250D01*
X01912550Y02921310D01*
X01919370Y02920000D01*
G01X01911160Y03388740D02*
X01911160Y03310000D01*
X01950100Y03310000D01*
G01X01990870Y03375620D02*
X01996710Y03383490D01*
X02003530Y03387430D01*
X02011320Y03388740D01*
X02021050Y03386120D01*
X02027870Y03379550D01*
X02029820Y03371680D01*
X02028840Y03363800D01*
X02024950Y03357240D01*
X02005480Y03344120D01*
X01996710Y03334930D01*
X01990870Y03321810D01*
X01988920Y03310000D01*
X02029820Y03310000D01*
G01X01692680Y03812180D02*
X01686840Y03816120D01*
X01680020Y03818740D01*
X01672230Y03818740D01*
X01663470Y03814800D01*
X01656660Y03808240D01*
X01651790Y03800370D01*
X01647890Y03787240D01*
X01646920Y03775430D01*
X01648870Y03763620D01*
X01651790Y03755750D01*
X01657630Y03747870D01*
X01664440Y03742620D01*
X01671260Y03740000D01*
X01678080Y03740000D01*
X01684890Y03742620D01*
X01690730Y03746560D01*
X01695600Y03751810D01*
G01X01750000Y03740000D02*
X01750000Y03818740D01*
X01738320Y03802990D01*
G01X01738320Y03740000D02*
X01761680Y03740000D01*
G01X01828740Y03740000D02*
X01828740Y03818740D01*
X01817060Y03802990D01*
G01X01817060Y03740000D02*
X01840420Y03740000D01*
G01X02285050Y01229370D02*
X02304530Y01229370D01*
X02304530Y01205750D01*
X02298680Y01197870D01*
X02291870Y01192620D01*
X02282130Y01190000D01*
X02272390Y01192620D01*
X02265580Y01197870D01*
X02259740Y01205750D01*
X02255840Y01214930D01*
X02253890Y01225430D01*
X02253890Y01234620D01*
X02255840Y01242490D01*
X02259740Y01251680D01*
X02265580Y01259550D01*
X02271420Y01264800D01*
X02279210Y01268740D01*
X02286030Y01268740D01*
X02293810Y01266120D01*
X02299660Y01260870D01*
G01X02335560Y01190000D02*
X02335560Y01268740D01*
X02380340Y01190000D01*
X02380340Y01268740D01*
G01X02415270Y01190000D02*
X02415270Y01268740D01*
X02434740Y01268740D01*
X02442530Y01264800D01*
X02448370Y01259550D01*
X02453240Y01251680D01*
X02457140Y01242490D01*
X02458110Y01229370D01*
X02457140Y01216250D01*
X02453240Y01207060D01*
X02448370Y01199180D01*
X02442530Y01193940D01*
X02434740Y01190000D01*
X02415270Y01190000D01*
G01X02788760Y01190500D02*
X02796550Y01183940D01*
X02805320Y01180000D01*
X02813100Y01180000D01*
X02820890Y01183940D01*
X02826740Y01190500D01*
X02829660Y01199690D01*
X02827710Y01208870D01*
X02822840Y01216740D01*
X02814080Y01222000D01*
X02802390Y01224620D01*
X02795580Y01229870D01*
X02792660Y01239050D01*
X02794610Y01248240D01*
X02799470Y01254800D01*
X02806290Y01258740D01*
X02813100Y01258740D01*
X02819920Y01256120D01*
X02825760Y01249550D01*
G01X02866530Y01180000D02*
X02866530Y01258740D01*
X02886000Y01258740D01*
X02893790Y01254800D01*
X02899630Y01249550D01*
X02904500Y01241680D01*
X02908400Y01232490D01*
X02909370Y01219370D01*
X02908400Y01206250D01*
X02904500Y01197060D01*
X02899630Y01189180D01*
X02893790Y01183940D01*
X02886000Y01180000D01*
X02866530Y01180000D01*
G01X02942350Y01180000D02*
X02966690Y01258740D01*
X02991030Y01180000D01*
G01X02982270Y01207560D02*
X02951110Y01207560D01*
G01X02799740Y01505750D02*
X02804610Y01497870D01*
X02810450Y01492620D01*
X02817260Y01490000D01*
X02825050Y01492620D01*
X02830890Y01497870D01*
X02836740Y01505750D01*
X02838680Y01516250D01*
X02838680Y01568740D01*
G01X02897950Y01490000D02*
X02897950Y01568740D01*
X02886270Y01552990D01*
G01X02886270Y01490000D02*
X02909630Y01490000D01*
G01X02976690Y01568740D02*
X02968900Y01566120D01*
X02963060Y01559550D01*
X02959160Y01551680D01*
X02956240Y01541180D01*
X02955270Y01529370D01*
X02956240Y01517560D01*
X02959160Y01507060D01*
X02963060Y01499180D01*
X02968900Y01492620D01*
X02976690Y01490000D01*
X02984480Y01492620D01*
X02990320Y01499180D01*
X02994220Y01507060D01*
X02997140Y01517560D01*
X02998110Y01529370D01*
X02997140Y01541180D01*
X02994220Y01551680D01*
X02990320Y01559550D01*
X02984480Y01566120D01*
X02976690Y01568740D01*
G01X02559740Y01505750D02*
X02564610Y01497870D01*
X02570450Y01492620D01*
X02577260Y01490000D01*
X02585050Y01492620D01*
X02590890Y01497870D01*
X02596740Y01505750D01*
X02598680Y01516250D01*
X02598680Y01568740D01*
G01X02657950Y01490000D02*
X02657950Y01568740D01*
X02646270Y01552990D01*
G01X02646270Y01490000D02*
X02669630Y01490000D01*
G01X02736690Y01490000D02*
X02743510Y01491310D01*
X02751290Y01495250D01*
X02756160Y01501810D01*
X02758110Y01511000D01*
X02756160Y01520180D01*
X02750320Y01528060D01*
X02741560Y01532000D01*
X02731820Y01532000D01*
X02725980Y01534620D01*
X02721110Y01541180D01*
X02719160Y01550370D01*
X02722090Y01559550D01*
X02728900Y01566120D01*
X02736690Y01568740D01*
X02744480Y01566120D01*
X02751290Y01559550D01*
X02754220Y01550370D01*
X02752270Y01541180D01*
X02747400Y01534620D01*
X02741560Y01532000D01*
X02731820Y01532000D01*
X02723060Y01528060D01*
X02717220Y01520180D01*
X02715270Y01511000D01*
X02717220Y01501810D01*
X02722090Y01495250D01*
X02729870Y01491310D01*
X02736690Y01490000D01*
G01X02619740Y01855750D02*
X02624610Y01847870D01*
X02630450Y01842620D01*
X02637260Y01840000D01*
X02645050Y01842620D01*
X02650890Y01847870D01*
X02656740Y01855750D01*
X02658680Y01866250D01*
X02658680Y01918740D01*
G01X02717950Y01840000D02*
X02724770Y01841310D01*
X02732550Y01845250D01*
X02737420Y01851810D01*
X02739370Y01861000D01*
X02737420Y01870180D01*
X02731580Y01878060D01*
X02722820Y01882000D01*
X02713080Y01882000D01*
X02707240Y01884620D01*
X02702370Y01891180D01*
X02700420Y01900370D01*
X02703350Y01909550D01*
X02710160Y01916120D01*
X02717950Y01918740D01*
X02725740Y01916120D01*
X02732550Y01909550D01*
X02735480Y01900370D01*
X02733530Y01891180D01*
X02728660Y01884620D01*
X02722820Y01882000D01*
X02713080Y01882000D01*
X02704320Y01878060D01*
X02698480Y01870180D01*
X02696530Y01861000D01*
X02698480Y01851810D01*
X02703350Y01845250D01*
X02711130Y01841310D01*
X02717950Y01840000D01*
G01X02799740Y01845750D02*
X02804610Y01837870D01*
X02810450Y01832620D01*
X02817260Y01830000D01*
X02825050Y01832620D01*
X02830890Y01837870D01*
X02836740Y01845750D01*
X02838680Y01856250D01*
X02838680Y01908740D01*
G01X02881400Y01839180D02*
X02888210Y01832620D01*
X02896000Y01830000D01*
X02903790Y01832620D01*
X02910610Y01840500D01*
X02915480Y01852310D01*
X02917420Y01864120D01*
X02917420Y01878560D01*
X02915480Y01890370D01*
X02910610Y01900870D01*
X02904770Y01906120D01*
X02897950Y01908740D01*
X02890160Y01906120D01*
X02884320Y01900870D01*
X02880420Y01892990D01*
X02878480Y01882490D01*
X02880420Y01873310D01*
X02885290Y01864120D01*
X02891130Y01858870D01*
X02897950Y01857560D01*
X02905740Y01860180D01*
X02911580Y01866740D01*
X02917420Y01878560D01*
G01X02768740Y02220790D02*
X02712310Y02220790D01*
X02700500Y02216900D01*
X02692620Y02209110D01*
X02690000Y02199370D01*
X02692620Y02189630D01*
X02700500Y02181840D01*
X02712310Y02177950D01*
X02768740Y02177950D01*
G01X02690000Y02108950D02*
X02768740Y02108950D01*
X02712310Y02144970D01*
X02712310Y02096290D01*
G01X02532680Y02652180D02*
X02526840Y02656120D01*
X02520020Y02658740D01*
X02512230Y02658740D01*
X02503470Y02654800D01*
X02496660Y02648240D01*
X02491790Y02640370D01*
X02487890Y02627240D01*
X02486920Y02615430D01*
X02488870Y02603620D01*
X02491790Y02595750D01*
X02497630Y02587870D01*
X02504440Y02582620D01*
X02511260Y02580000D01*
X02518080Y02580000D01*
X02524890Y02582620D01*
X02530730Y02586560D01*
X02535600Y02591810D01*
G01X02571500Y02645620D02*
X02577340Y02653490D01*
X02584160Y02657430D01*
X02591950Y02658740D01*
X02601680Y02656120D01*
X02608500Y02649550D01*
X02610450Y02641680D01*
X02609470Y02633800D01*
X02605580Y02627240D01*
X02586110Y02614120D01*
X02577340Y02604930D01*
X02571500Y02591810D01*
X02569550Y02580000D01*
X02610450Y02580000D01*
G01X02668740Y02658740D02*
X02660950Y02656120D01*
X02655110Y02649550D01*
X02651210Y02641680D01*
X02648290Y02631180D01*
X02647320Y02619370D01*
X02648290Y02607560D01*
X02651210Y02597060D01*
X02655110Y02589180D01*
X02660950Y02582620D01*
X02668740Y02580000D01*
X02676530Y02582620D01*
X02682370Y02589180D01*
X02686270Y02597060D01*
X02689190Y02607560D01*
X02690160Y02619370D01*
X02689190Y02631180D01*
X02686270Y02641680D01*
X02682370Y02649550D01*
X02676530Y02656120D01*
X02668740Y02658740D01*
G01X02552680Y02802180D02*
X02546840Y02806120D01*
X02540020Y02808740D01*
X02532230Y02808740D01*
X02523470Y02804800D01*
X02516660Y02798240D01*
X02511790Y02790370D01*
X02507890Y02777240D01*
X02506920Y02765430D01*
X02508870Y02753620D01*
X02511790Y02745750D01*
X02517630Y02737870D01*
X02524440Y02732620D01*
X02531260Y02730000D01*
X02538080Y02730000D01*
X02544890Y02732620D01*
X02550730Y02736560D01*
X02555600Y02741810D01*
G01X02591500Y02795620D02*
X02597340Y02803490D01*
X02604160Y02807430D01*
X02611950Y02808740D01*
X02621680Y02806120D01*
X02628500Y02799550D01*
X02630450Y02791680D01*
X02629470Y02783800D01*
X02625580Y02777240D01*
X02606110Y02764120D01*
X02597340Y02754930D01*
X02591500Y02741810D01*
X02589550Y02730000D01*
X02630450Y02730000D01*
G01X02688740Y02730000D02*
X02688740Y02808740D01*
X02677060Y02792990D01*
G01X02677060Y02730000D02*
X02700420Y02730000D01*
G01X02688740Y02520790D02*
X02632310Y02520790D01*
X02620500Y02516900D01*
X02612620Y02509110D01*
X02610000Y02499370D01*
X02612620Y02489630D01*
X02620500Y02481840D01*
X02632310Y02477950D01*
X02688740Y02477950D01*
G01X02625750Y02442050D02*
X02616560Y02436210D01*
X02611310Y02428420D01*
X02610000Y02419660D01*
X02611310Y02411870D01*
X02617870Y02404080D01*
X02625750Y02399210D01*
X02633620Y02398240D01*
X02642810Y02400180D01*
X02649370Y02407000D01*
X02652000Y02413810D01*
X02652000Y02422580D01*
G01X02652000Y02413810D02*
X02655930Y02407970D01*
X02662490Y02403100D01*
X02670370Y02401160D01*
X02678240Y02403100D01*
X02684800Y02407970D01*
X02688740Y02416740D01*
X02687430Y02425500D01*
X02682180Y02434260D01*
G01X02898740Y03382210D02*
X02842310Y03382210D01*
X02830500Y03378320D01*
X02822620Y03370530D01*
X02820000Y03360790D01*
X02822620Y03351050D01*
X02830500Y03343260D01*
X02842310Y03339370D01*
X02898740Y03339370D01*
G01X02820000Y03282050D02*
X02898740Y03282050D01*
X02882990Y03293730D01*
G01X02820000Y03293730D02*
X02820000Y03270370D01*
G01X02672050Y03612180D02*
X02666210Y03616120D01*
X02659390Y03618740D01*
X02651600Y03618740D01*
X02642840Y03614800D01*
X02636030Y03608240D01*
X02631160Y03600370D01*
X02627260Y03587240D01*
X02626290Y03575430D01*
X02628240Y03563620D01*
X02631160Y03555750D01*
X02637000Y03547870D01*
X02643810Y03542620D01*
X02650630Y03540000D01*
X02657450Y03540000D01*
X02664260Y03542620D01*
X02670100Y03546560D01*
X02674970Y03551810D01*
G01X02729370Y03540000D02*
X02729370Y03618740D01*
X02717690Y03602990D01*
G01X02717690Y03540000D02*
X02741050Y03540000D01*
G01X02271160Y03740000D02*
X02271160Y03818740D01*
X02295500Y03818740D01*
X02303290Y03814800D01*
X02308160Y03809550D01*
X02310100Y03799050D01*
X02308160Y03788560D01*
X02302310Y03782000D01*
X02295500Y03778060D01*
X02271160Y03778060D01*
G01X02295500Y03778060D02*
X02310100Y03740000D01*
G01X02350870Y03805620D02*
X02356710Y03813490D01*
X02363530Y03817430D01*
X02371320Y03818740D01*
X02381050Y03816120D01*
X02387870Y03809550D01*
X02389820Y03801680D01*
X02388840Y03793800D01*
X02384950Y03787240D01*
X02365480Y03774120D01*
X02356710Y03764930D01*
X02350870Y03751810D01*
X02348920Y03740000D01*
X02389820Y03740000D01*
G01X02249740Y05100000D02*
X02249740Y05178740D01*
X02273100Y05178740D01*
X02280890Y05174800D01*
X02286740Y05165620D01*
X02288680Y05155120D01*
X02286740Y05144620D01*
X02281870Y05136740D01*
X02273100Y05132810D01*
X02249740Y05132810D01*
G01X02369370Y05172180D02*
X02363530Y05176120D01*
X02356710Y05178740D01*
X02348920Y05178740D01*
X02340160Y05174800D01*
X02333350Y05168240D01*
X02328480Y05160370D01*
X02324580Y05147240D01*
X02323610Y05135430D01*
X02325560Y05123620D01*
X02328480Y05115750D01*
X02334320Y05107870D01*
X02341130Y05102620D01*
X02347950Y05100000D01*
X02354770Y05100000D01*
X02361580Y05102620D01*
X02367420Y05106560D01*
X02372290Y05111810D01*
G01X02434480Y05142000D02*
X02438370Y05145930D01*
X02441290Y05152490D01*
X02443240Y05161680D01*
X02441290Y05169550D01*
X02437400Y05174800D01*
X02430580Y05178740D01*
X02404300Y05178740D01*
X02404300Y05100000D01*
X02436430Y05100000D01*
X02443240Y05105250D01*
X02447140Y05113120D01*
X02449080Y05122310D01*
X02447140Y05131490D01*
X02441290Y05139370D01*
X02434480Y05142000D01*
X02404300Y05142000D01*
G01X02485960Y05073750D02*
X02505430Y05178740D01*
G01X02524900Y05178740D02*
X02505430Y05073750D01*
G01X02476220Y05113120D02*
X02534640Y05113120D01*
G01X02534640Y05139370D02*
X02476220Y05139370D01*
G01X02674590Y05100000D02*
X02674590Y05178740D01*
X02638570Y05122310D01*
X02687250Y05122310D01*
G01X02741650Y05178740D02*
X02733860Y05176120D01*
X02728020Y05169550D01*
X02724120Y05161680D01*
X02721200Y05151180D01*
X02720230Y05139370D01*
X02721200Y05127560D01*
X02724120Y05117060D01*
X02728020Y05109180D01*
X02733860Y05102620D01*
X02741650Y05100000D01*
X02749440Y05102620D01*
X02755280Y05109180D01*
X02759180Y05117060D01*
X02762100Y05127560D01*
X02763070Y05139370D01*
X02762100Y05151180D01*
X02759180Y05161680D01*
X02755280Y05169550D01*
X02749440Y05176120D01*
X02741650Y05178740D01*
G01X02820390Y05178740D02*
X02812600Y05176120D01*
X02806760Y05169550D01*
X02802860Y05161680D01*
X02799940Y05151180D01*
X02798970Y05139370D01*
X02799940Y05127560D01*
X02802860Y05117060D01*
X02806760Y05109180D01*
X02812600Y05102620D01*
X02820390Y05100000D01*
X02828180Y05102620D01*
X02834020Y05109180D01*
X02837920Y05117060D01*
X02840840Y05127560D01*
X02841810Y05139370D01*
X02840840Y05151180D01*
X02837920Y05161680D01*
X02834020Y05169550D01*
X02828180Y05176120D01*
X02820390Y05178740D01*
G01X02899130Y05100000D02*
X02905950Y05101310D01*
X02913730Y05105250D01*
X02918600Y05111810D01*
X02920550Y05121000D01*
X02918600Y05130180D01*
X02912760Y05138060D01*
X02904000Y05142000D01*
X02894260Y05142000D01*
X02888420Y05144620D01*
X02883550Y05151180D01*
X02881600Y05160370D01*
X02884530Y05169550D01*
X02891340Y05176120D01*
X02899130Y05178740D01*
X02906920Y05176120D01*
X02913730Y05169550D01*
X02916660Y05160370D01*
X02914710Y05151180D01*
X02909840Y05144620D01*
X02904000Y05142000D01*
X02894260Y05142000D01*
X02885500Y05138060D01*
X02879660Y05130180D01*
X02877710Y05121000D01*
X02879660Y05111810D01*
X02884530Y05105250D01*
X02892310Y05101310D01*
X02899130Y05100000D01*
G01X03056610Y05100000D02*
X03056610Y05178740D01*
X03044930Y05162990D01*
G01X03044930Y05100000D02*
X03068290Y05100000D01*
G01X03135350Y05100000D02*
X03135350Y05178740D01*
X03123670Y05162990D01*
G01X03123670Y05100000D02*
X03147030Y05100000D01*
G01X03212140Y05100000D02*
X03214090Y05117060D01*
X03217010Y05131490D01*
X03220910Y05144620D01*
X03225770Y05159050D01*
X03233560Y05178740D01*
X03194620Y05178740D01*
G01X03371570Y05178740D02*
X03363780Y05176120D01*
X03357940Y05169550D01*
X03354040Y05161680D01*
X03351120Y05151180D01*
X03350150Y05139370D01*
X03351120Y05127560D01*
X03354040Y05117060D01*
X03357940Y05109180D01*
X03363780Y05102620D01*
X03371570Y05100000D01*
X03379360Y05102620D01*
X03385200Y05109180D01*
X03389100Y05117060D01*
X03392020Y05127560D01*
X03392990Y05139370D01*
X03392020Y05151180D01*
X03389100Y05161680D01*
X03385200Y05169550D01*
X03379360Y05176120D01*
X03371570Y05178740D01*
G01X03450310Y05100000D02*
X03457130Y05101310D01*
X03464910Y05105250D01*
X03469780Y05111810D01*
X03471730Y05121000D01*
X03469780Y05130180D01*
X03463940Y05138060D01*
X03455180Y05142000D01*
X03445440Y05142000D01*
X03439600Y05144620D01*
X03434730Y05151180D01*
X03432780Y05160370D01*
X03435710Y05169550D01*
X03442520Y05176120D01*
X03450310Y05178740D01*
X03458100Y05176120D01*
X03464910Y05169550D01*
X03467840Y05160370D01*
X03465890Y05151180D01*
X03461020Y05144620D01*
X03455180Y05142000D01*
X03445440Y05142000D01*
X03436680Y05138060D01*
X03430840Y05130180D01*
X03428890Y05121000D01*
X03430840Y05111810D01*
X03435710Y05105250D01*
X03443490Y05101310D01*
X03450310Y05100000D01*
G01X03527100Y05100000D02*
X03529050Y05117060D01*
X03531970Y05131490D01*
X03535870Y05144620D01*
X03540730Y05159050D01*
X03548520Y05178740D01*
X03509580Y05178740D01*
G01X03589290Y05132810D02*
X03596110Y05142000D01*
X03601950Y05147240D01*
X03609740Y05149870D01*
X03616550Y05147240D01*
X03621420Y05142000D01*
X03625320Y05134120D01*
X03626290Y05124930D01*
X03625320Y05117060D01*
X03621420Y05109180D01*
X03615580Y05102620D01*
X03608760Y05100000D01*
X03600970Y05102620D01*
X03594160Y05110500D01*
X03590260Y05122310D01*
X03589290Y05135430D01*
X03591240Y05152490D01*
X03594160Y05161680D01*
X03599030Y05170870D01*
X03605840Y05177430D01*
X03612660Y05178740D01*
X03619470Y05176120D01*
X03624340Y05169550D01*
G01X03686530Y05178740D02*
X03678740Y05176120D01*
X03672900Y05169550D01*
X03669000Y05161680D01*
X03666080Y05151180D01*
X03665110Y05139370D01*
X03666080Y05127560D01*
X03669000Y05117060D01*
X03672900Y05109180D01*
X03678740Y05102620D01*
X03686530Y05100000D01*
X03694320Y05102620D01*
X03700160Y05109180D01*
X03704060Y05117060D01*
X03706980Y05127560D01*
X03707950Y05139370D01*
X03706980Y05151180D01*
X03704060Y05161680D01*
X03700160Y05169550D01*
X03694320Y05176120D01*
X03686530Y05178740D01*
G01X03379740Y01095750D02*
X03384610Y01087870D01*
X03390450Y01082620D01*
X03397260Y01080000D01*
X03405050Y01082620D01*
X03410890Y01087870D01*
X03416740Y01095750D01*
X03418680Y01106250D01*
X03418680Y01158740D01*
G01X03489630Y01080000D02*
X03489630Y01158740D01*
X03453610Y01102310D01*
X03502290Y01102310D01*
G01X03159740Y01265750D02*
X03164610Y01257870D01*
X03170450Y01252620D01*
X03177260Y01250000D01*
X03185050Y01252620D01*
X03190890Y01257870D01*
X03196740Y01265750D01*
X03198680Y01276250D01*
X03198680Y01328740D01*
G01X03236530Y01261810D02*
X03242370Y01255250D01*
X03249190Y01251310D01*
X03257950Y01250000D01*
X03266710Y01252620D01*
X03273530Y01257870D01*
X03278400Y01267060D01*
X03279370Y01277560D01*
X03277420Y01288060D01*
X03272550Y01294620D01*
X03265740Y01299870D01*
X03258920Y01301180D01*
X03252110Y01299870D01*
X03243350Y01294620D01*
X03246270Y01328740D01*
X03272550Y01328740D01*
G01X02912050Y02972180D02*
X02906210Y02976120D01*
X02899390Y02978740D01*
X02891600Y02978740D01*
X02882840Y02974800D01*
X02876030Y02968240D01*
X02871160Y02960370D01*
X02867260Y02947240D01*
X02866290Y02935430D01*
X02868240Y02923620D01*
X02871160Y02915750D01*
X02877000Y02907870D01*
X02883810Y02902620D01*
X02890630Y02900000D01*
X02897450Y02900000D01*
X02904260Y02902620D01*
X02910100Y02906560D01*
X02914970Y02911810D01*
G01X02950870Y02965620D02*
X02956710Y02973490D01*
X02963530Y02977430D01*
X02971320Y02978740D01*
X02981050Y02976120D01*
X02987870Y02969550D01*
X02989820Y02961680D01*
X02988840Y02953800D01*
X02984950Y02947240D01*
X02965480Y02934120D01*
X02956710Y02924930D01*
X02950870Y02911810D01*
X02948920Y02900000D01*
X02989820Y02900000D01*
G01X03450700Y03979300D02*
X03450700Y04364300D01*
G01X03528700Y04046800D02*
X03450700Y04046800D01*
G01X03749740Y00705750D02*
X03754610Y00697870D01*
X03760450Y00692620D01*
X03767260Y00690000D01*
X03775050Y00692620D01*
X03780890Y00697870D01*
X03786740Y00705750D01*
X03788680Y00716250D01*
X03788680Y00768740D01*
G01X03829450Y00722810D02*
X03836270Y00732000D01*
X03842110Y00737240D01*
X03849900Y00739870D01*
X03856710Y00737240D01*
X03861580Y00732000D01*
X03865480Y00724120D01*
X03866450Y00714930D01*
X03865480Y00707060D01*
X03861580Y00699180D01*
X03855740Y00692620D01*
X03848920Y00690000D01*
X03841130Y00692620D01*
X03834320Y00700500D01*
X03830420Y00712310D01*
X03829450Y00725430D01*
X03831400Y00742490D01*
X03834320Y00751680D01*
X03839190Y00760870D01*
X03846000Y00767430D01*
X03852820Y00768740D01*
X03859630Y00766120D01*
X03864500Y00759550D01*
G01X03569740Y00895750D02*
X03574610Y00887870D01*
X03580450Y00882620D01*
X03587260Y00880000D01*
X03595050Y00882620D01*
X03600890Y00887870D01*
X03606740Y00895750D01*
X03608680Y00906250D01*
X03608680Y00958740D01*
G01X03666000Y00880000D02*
X03667950Y00897060D01*
X03670870Y00911490D01*
X03674770Y00924620D01*
X03679630Y00939050D01*
X03687420Y00958740D01*
X03648480Y00958740D01*
G01X03949740Y00515750D02*
X03954610Y00507870D01*
X03960450Y00502620D01*
X03967260Y00500000D01*
X03975050Y00502620D01*
X03980890Y00507870D01*
X03986740Y00515750D01*
X03988680Y00526250D01*
X03988680Y00578740D01*
G01X04047950Y00500000D02*
X04047950Y00578740D01*
X04036270Y00562990D01*
G01X04036270Y00500000D02*
X04059630Y00500000D01*
G01X04110140Y00509180D02*
X04116950Y00502620D01*
X04124740Y00500000D01*
X04132530Y00502620D01*
X04139350Y00510500D01*
X04144220Y00522310D01*
X04146160Y00534120D01*
X04146160Y00548560D01*
X04144220Y00560370D01*
X04139350Y00570870D01*
X04133510Y00576120D01*
X04126690Y00578740D01*
X04118900Y00576120D01*
X04113060Y00570870D01*
X04109160Y00562990D01*
X04107220Y00552490D01*
X04109160Y00543310D01*
X04114030Y00534120D01*
X04119870Y00528870D01*
X04126690Y00527560D01*
X04134480Y00530180D01*
X04140320Y00536740D01*
X04146160Y00548560D01*
G01X03731160Y01170000D02*
X03731160Y01248740D01*
X03755500Y01248740D01*
X03763290Y01244800D01*
X03768160Y01239550D01*
X03770100Y01229050D01*
X03768160Y01218560D01*
X03762310Y01212000D01*
X03755500Y01208060D01*
X03731160Y01208060D01*
G01X03755500Y01208060D02*
X03770100Y01170000D01*
G01X03810870Y01202810D02*
X03817690Y01212000D01*
X03823530Y01217240D01*
X03831320Y01219870D01*
X03838130Y01217240D01*
X03843000Y01212000D01*
X03846900Y01204120D01*
X03847870Y01194930D01*
X03846900Y01187060D01*
X03843000Y01179180D01*
X03837160Y01172620D01*
X03830340Y01170000D01*
X03822550Y01172620D01*
X03815740Y01180500D01*
X03811840Y01192310D01*
X03810870Y01205430D01*
X03812820Y01222490D01*
X03815740Y01231680D01*
X03820610Y01240870D01*
X03827420Y01247430D01*
X03834240Y01248740D01*
X03841050Y01246120D01*
X03845920Y01239550D01*
G01X04149740Y00315750D02*
X04154610Y00307870D01*
X04160450Y00302620D01*
X04167260Y00300000D01*
X04175050Y00302620D01*
X04180890Y00307870D01*
X04186740Y00315750D01*
X04188680Y00326250D01*
X04188680Y00378740D01*
G01X04229450Y00365620D02*
X04235290Y00373490D01*
X04242110Y00377430D01*
X04249900Y00378740D01*
X04259630Y00376120D01*
X04266450Y00369550D01*
X04268400Y00361680D01*
X04267420Y00353800D01*
X04263530Y00347240D01*
X04244060Y00334120D01*
X04235290Y00324930D01*
X04229450Y00311810D01*
X04227500Y00300000D01*
X04268400Y00300000D01*
G01X04326690Y00378740D02*
X04318900Y00376120D01*
X04313060Y00369550D01*
X04309160Y00361680D01*
X04306240Y00351180D01*
X04305270Y00339370D01*
X04306240Y00327560D01*
X04309160Y00317060D01*
X04313060Y00309180D01*
X04318900Y00302620D01*
X04326690Y00300000D01*
X04334480Y00302620D01*
X04340320Y00309180D01*
X04344220Y00317060D01*
X04347140Y00327560D01*
X04348110Y00339370D01*
X04347140Y00351180D01*
X04344220Y00361680D01*
X04340320Y00369550D01*
X04334480Y00376120D01*
X04326690Y00378740D01*
G01X04991700Y02730700D02*
X04991700Y00153700D01*
G01X04991700Y00153700D02*
X05376700Y00153700D01*
G01X05059200Y00075700D02*
X05059200Y00153700D01*
G01X05059200Y00153700D02*
X05059200Y00075700D01*
X04934200Y00075700D01*
X04934200Y02808700D01*
X05059200Y02808700D01*
X05059200Y02730700D01*
G01X04869740Y02835750D02*
X04874610Y02827870D01*
X04880450Y02822620D01*
X04887260Y02820000D01*
X04895050Y02822620D01*
X04900890Y02827870D01*
X04906740Y02835750D01*
X04908680Y02846250D01*
X04908680Y02898740D01*
G01X04967950Y02820000D02*
X04967950Y02898740D01*
X04956270Y02882990D01*
G01X04956270Y02820000D02*
X04979630Y02820000D01*
G01X05044740Y02820000D02*
X05046690Y02837060D01*
X05049610Y02851490D01*
X05053510Y02864620D01*
X05058370Y02879050D01*
X05066160Y02898740D01*
X05027220Y02898740D01*
G01X05376700Y02730700D02*
X04991700Y02730700D01*
G01X05376700Y00153700D02*
X05376700Y02730700D01*
G01X05309200Y00154700D02*
X05309200Y00075700D01*
X05434200Y00075700D01*
X05434200Y02808700D01*
X05309200Y02808700D01*
X05309200Y02730700D01*
M02*
