*%FSLAX23Y23*%
*%MOIN*%
G01*
D11*
X4105Y6604D02*
X15837D01*
Y9379D02*
X4105D01*
Y6604D01*
X15837D02*
Y9379D01*
D22*
X15125Y8629D02*
D03*
Y7189D02*
D03*
D38*
X14885Y7754D02*
D03*
X14880Y8459D02*
D03*
X14885Y9169D02*
D03*
Y7049D02*
D03*
X13420Y8814D02*
D03*
X13425Y7819D02*
D03*
Y8304D02*
D03*
Y7309D02*
D03*
D56*
X12461Y8620D02*
D03*
X12441D02*
D03*
X12422D02*
D03*
X12402D02*
D03*
X12382D02*
D03*
X12363D02*
D03*
X12343D02*
D03*
X12323D02*
D03*
X12304D02*
D03*
X12284D02*
D03*
X12264D02*
D03*
X12244D02*
D03*
X12461Y8975D02*
D03*
X12244D02*
D03*
X12264D02*
D03*
X12284D02*
D03*
X12304D02*
D03*
X12323D02*
D03*
X12343D02*
D03*
X12363D02*
D03*
X12382D02*
D03*
X12402D02*
D03*
X12422D02*
D03*
X12441D02*
D03*
D57*
X11370Y8599D02*
D03*
X11350D02*
D03*
X11331D02*
D03*
X11311D02*
D03*
X11291D02*
D03*
X11272D02*
D03*
X11252D02*
D03*
X11232D02*
D03*
X11212D02*
D03*
X11193D02*
D03*
X11173D02*
D03*
X11154D02*
D03*
X11134D02*
D03*
X11114D02*
D03*
X11094D02*
D03*
X11075D02*
D03*
X11055D02*
D03*
X11035D02*
D03*
X11016D02*
D03*
X10996D02*
D03*
X10976D02*
D03*
X10957D02*
D03*
X10937D02*
D03*
X10917D02*
D03*
X10898D02*
D03*
X10878D02*
D03*
X10858D02*
D03*
X10838D02*
D03*
X10819D02*
D03*
X10799D02*
D03*
X10779D02*
D03*
X10760D02*
D03*
X10740D02*
D03*
X10720D02*
D03*
X10701D02*
D03*
X10681D02*
D03*
X10661D02*
D03*
X10642D02*
D03*
X10622D02*
D03*
X10602D02*
D03*
X10583D02*
D03*
X10563D02*
D03*
X10543D02*
D03*
X10524D02*
D03*
X10504D02*
D03*
X10484D02*
D03*
X10464D02*
D03*
X10445D02*
D03*
X10425D02*
D03*
X10405D02*
D03*
X10386D02*
D03*
X10366D02*
D03*
X11370Y7423D02*
D03*
X10366D02*
D03*
X10386D02*
D03*
X10405D02*
D03*
X10425D02*
D03*
X10445D02*
D03*
X10464D02*
D03*
X10484D02*
D03*
X10504D02*
D03*
X10524D02*
D03*
X10543D02*
D03*
X10563D02*
D03*
X10583D02*
D03*
X10602D02*
D03*
X10622D02*
D03*
X10642D02*
D03*
X10661D02*
D03*
X10681D02*
D03*
X10701D02*
D03*
X10720D02*
D03*
X10740D02*
D03*
X10760D02*
D03*
X10779D02*
D03*
X10799D02*
D03*
X10819D02*
D03*
X10838D02*
D03*
X10858D02*
D03*
X10878D02*
D03*
X10898D02*
D03*
X10917D02*
D03*
X10937D02*
D03*
X10957D02*
D03*
X10976D02*
D03*
X10996D02*
D03*
X11016D02*
D03*
X11035D02*
D03*
X11055D02*
D03*
X11075D02*
D03*
X11094D02*
D03*
X11114D02*
D03*
X11134D02*
D03*
X11154D02*
D03*
X11173D02*
D03*
X11193D02*
D03*
X11212D02*
D03*
X11232D02*
D03*
X11252D02*
D03*
X11272D02*
D03*
X11291D02*
D03*
X11311D02*
D03*
X11331D02*
D03*
X11350D02*
D03*
D60*
X9425Y7294D02*
D03*
X9393D02*
D03*
X9362D02*
D03*
X9330D02*
D03*
X9299D02*
D03*
X9267D02*
D03*
X9236D02*
D03*
X9204D02*
D03*
X9207Y6959D02*
D03*
X9239D02*
D03*
X9270D02*
D03*
X9302D02*
D03*
X9333D02*
D03*
X9365D02*
D03*
X9396D02*
D03*
X9428D02*
D03*
D61*
X11933Y6885D02*
D03*
X12010D02*
D03*
X11984D02*
D03*
X12010Y6761D02*
D03*
X11984D02*
D03*
X11959D02*
D03*
X11933D02*
D03*
X11959Y6885D02*
D03*
X12483D02*
D03*
X12560D02*
D03*
X12534D02*
D03*
X12560Y6761D02*
D03*
X12534D02*
D03*
X12509D02*
D03*
X12483D02*
D03*
X12509Y6885D02*
D03*
D63*
X8940Y8109D02*
D03*
X8966D02*
D03*
X8991D02*
D03*
X9017D02*
D03*
X9042D02*
D03*
X9068D02*
D03*
X9094D02*
D03*
X9119D02*
D03*
Y8361D02*
D03*
X9094D02*
D03*
X9068D02*
D03*
X9042D02*
D03*
X9017D02*
D03*
X8991D02*
D03*
X8966D02*
D03*
X8940D02*
D03*
Y8614D02*
D03*
X8966D02*
D03*
X8991D02*
D03*
X9017D02*
D03*
X9042D02*
D03*
X9068D02*
D03*
X9094D02*
D03*
X9119D02*
D03*
Y8866D02*
D03*
X9094D02*
D03*
X9068D02*
D03*
X9042D02*
D03*
X9017D02*
D03*
X8991D02*
D03*
X8966D02*
D03*
X8940D02*
D03*
D69*
X15125Y8853D02*
D03*
X15175Y8629D02*
D03*
X15225D02*
D03*
X15275D02*
D03*
Y8853D02*
D03*
X15225D02*
D03*
X15175D02*
D03*
X15125Y7413D02*
D03*
X15175Y7189D02*
D03*
X15225D02*
D03*
X15275D02*
D03*
Y7413D02*
D03*
X15225D02*
D03*
X15175D02*
D03*
D77*
X13625Y9224D02*
D03*
Y9299D02*
D03*
X13910Y9224D02*
D03*
Y9299D02*
D03*
X13570Y8074D02*
D03*
Y7999D02*
D03*
X13855Y8074D02*
D03*
Y7999D02*
D03*
X13865Y8519D02*
D03*
Y8444D02*
D03*
X13580Y8519D02*
D03*
Y8444D02*
D03*
X13865Y7594D02*
D03*
Y7519D02*
D03*
X13580Y7594D02*
D03*
Y7519D02*
D03*
X10740Y6944D02*
D03*
X10665D02*
D03*
X10595D02*
D03*
X10520D02*
D03*
X10440D02*
D03*
X10365D02*
D03*
D78*
X10702Y6864D02*
D03*
X10557D02*
D03*
X10402D02*
D03*
D82*
X11456Y8513D02*
D03*
Y8493D02*
D03*
Y8474D02*
D03*
Y8454D02*
D03*
Y8434D02*
D03*
Y8415D02*
D03*
Y8395D02*
D03*
Y8375D02*
D03*
Y8356D02*
D03*
Y8336D02*
D03*
Y8316D02*
D03*
Y8296D02*
D03*
Y8277D02*
D03*
Y8257D02*
D03*
Y8237D02*
D03*
Y8218D02*
D03*
Y8198D02*
D03*
Y8178D02*
D03*
Y8159D02*
D03*
Y8139D02*
D03*
Y8080D02*
D03*
Y8060D02*
D03*
Y8041D02*
D03*
Y8021D02*
D03*
Y8001D02*
D03*
Y7982D02*
D03*
Y7962D02*
D03*
Y7942D02*
D03*
Y7922D02*
D03*
Y7903D02*
D03*
Y7883D02*
D03*
Y7863D02*
D03*
Y7844D02*
D03*
Y7824D02*
D03*
Y7804D02*
D03*
Y7785D02*
D03*
Y7765D02*
D03*
Y7745D02*
D03*
Y7726D02*
D03*
Y7706D02*
D03*
Y7686D02*
D03*
Y7666D02*
D03*
Y7647D02*
D03*
Y7627D02*
D03*
Y7608D02*
D03*
Y7588D02*
D03*
Y7568D02*
D03*
Y7548D02*
D03*
Y7529D02*
D03*
Y7509D02*
D03*
X10280Y8513D02*
D03*
Y8493D02*
D03*
Y8474D02*
D03*
Y8454D02*
D03*
Y8434D02*
D03*
Y8415D02*
D03*
Y8395D02*
D03*
Y8375D02*
D03*
Y8356D02*
D03*
Y8336D02*
D03*
Y8316D02*
D03*
Y8296D02*
D03*
Y8277D02*
D03*
Y8257D02*
D03*
Y8237D02*
D03*
Y8218D02*
D03*
Y8198D02*
D03*
Y8159D02*
D03*
Y8139D02*
D03*
X11456Y8100D02*
D03*
Y8119D02*
D03*
X10280Y8178D02*
D03*
Y8119D02*
D03*
Y8100D02*
D03*
Y8080D02*
D03*
Y8060D02*
D03*
Y8041D02*
D03*
Y8021D02*
D03*
Y8001D02*
D03*
Y7982D02*
D03*
Y7962D02*
D03*
Y7942D02*
D03*
Y7922D02*
D03*
Y7903D02*
D03*
Y7883D02*
D03*
Y7863D02*
D03*
Y7844D02*
D03*
Y7824D02*
D03*
Y7804D02*
D03*
Y7785D02*
D03*
Y7765D02*
D03*
Y7745D02*
D03*
Y7726D02*
D03*
Y7706D02*
D03*
Y7686D02*
D03*
Y7666D02*
D03*
Y7647D02*
D03*
Y7627D02*
D03*
Y7608D02*
D03*
Y7588D02*
D03*
Y7568D02*
D03*
Y7548D02*
D03*
Y7529D02*
D03*
Y7509D02*
D03*
D83*
X9149Y7235D02*
D03*
Y7204D02*
D03*
Y7172D02*
D03*
Y7141D02*
D03*
Y7109D02*
D03*
Y7078D02*
D03*
Y7046D02*
D03*
Y7015D02*
D03*
X9484Y7017D02*
D03*
Y7048D02*
D03*
Y7080D02*
D03*
Y7111D02*
D03*
Y7143D02*
D03*
Y7174D02*
D03*
Y7206D02*
D03*
Y7237D02*
D03*
D88*
X11261Y7144D02*
D03*
Y7118D02*
D03*
Y7093D02*
D03*
Y7067D02*
D03*
Y7042D02*
D03*
Y7016D02*
D03*
Y6990D02*
D03*
Y6965D02*
D03*
Y6939D02*
D03*
Y6914D02*
D03*
X11056D02*
D03*
Y6939D02*
D03*
Y6965D02*
D03*
Y6990D02*
D03*
Y7016D02*
D03*
Y7042D02*
D03*
Y7067D02*
D03*
Y7093D02*
D03*
Y7118D02*
D03*
Y7144D02*
D03*
D89*
X13705Y9261D02*
D03*
X13990D02*
D03*
X13650Y8036D02*
D03*
X13935D02*
D03*
X13945Y8481D02*
D03*
X13660D02*
D03*
X13945Y7556D02*
D03*
X13660D02*
D03*
D96*
X15180Y8434D02*
D03*
X15270D02*
D03*
X15185Y7729D02*
D03*
X15275D02*
D03*
X14970Y8239D02*
D03*
X14880D02*
D03*
X15185Y9144D02*
D03*
X15275D02*
D03*
X15270Y8359D02*
D03*
X15180D02*
D03*
X14975Y8949D02*
D03*
X14885D02*
D03*
X15275Y9069D02*
D03*
X15185D02*
D03*
Y7024D02*
D03*
X15275D02*
D03*
Y6949D02*
D03*
X15185D02*
D03*
X14975Y7534D02*
D03*
X14885D02*
D03*
X15275Y7654D02*
D03*
X15185D02*
D03*
X14885Y6829D02*
D03*
X14975D02*
D03*
X13095Y7799D02*
D03*
X13185D02*
D03*
X13095Y7874D02*
D03*
X13185D02*
D03*
X13095Y7949D02*
D03*
X13185D02*
D03*
X13095Y8024D02*
D03*
X13185D02*
D03*
X13095Y8099D02*
D03*
X13185D02*
D03*
X13095Y8174D02*
D03*
X13185D02*
D03*
X13095Y8249D02*
D03*
X13185D02*
D03*
X13095Y8324D02*
D03*
X13185D02*
D03*
X13095Y8399D02*
D03*
X13185D02*
D03*
X13095Y8474D02*
D03*
X13185D02*
D03*
X13095Y8549D02*
D03*
X13185D02*
D03*
X13095Y8624D02*
D03*
X13185D02*
D03*
X13095Y8699D02*
D03*
X13185D02*
D03*
X13095Y8774D02*
D03*
X13185D02*
D03*
X13095Y8849D02*
D03*
X13185D02*
D03*
X13720Y8889D02*
D03*
X13630D02*
D03*
X13810Y9129D02*
D03*
X13900D02*
D03*
X14295Y8184D02*
D03*
X14205D02*
D03*
X13855Y9054D02*
D03*
X13945D02*
D03*
Y8979D02*
D03*
X13855D02*
D03*
X13095Y7124D02*
D03*
X13185D02*
D03*
X13095Y7199D02*
D03*
X13185D02*
D03*
X13095Y7274D02*
D03*
X13185D02*
D03*
X13095Y7349D02*
D03*
X13185D02*
D03*
X13095Y7424D02*
D03*
X13185D02*
D03*
X13095Y7499D02*
D03*
X13185D02*
D03*
X13095Y7574D02*
D03*
X13185D02*
D03*
X13095Y7649D02*
D03*
X13185D02*
D03*
X13095Y7724D02*
D03*
X13185D02*
D03*
X13425Y7089D02*
D03*
X13515D02*
D03*
X14290Y7534D02*
D03*
X14200D02*
D03*
X14290Y7264D02*
D03*
X14200D02*
D03*
X12940Y9324D02*
D03*
X13030D02*
D03*
X12940Y7799D02*
D03*
X13030D02*
D03*
Y7874D02*
D03*
X12940D02*
D03*
Y7949D02*
D03*
X13030D02*
D03*
X12940Y8024D02*
D03*
X13030D02*
D03*
Y8099D02*
D03*
X12940D02*
D03*
Y8174D02*
D03*
X13030D02*
D03*
X12940Y8249D02*
D03*
X13030D02*
D03*
Y8324D02*
D03*
X12940D02*
D03*
X13030Y8699D02*
D03*
X12940D02*
D03*
X13030Y8549D02*
D03*
X12940D02*
D03*
Y8399D02*
D03*
X13030D02*
D03*
X12940Y8474D02*
D03*
X13030D02*
D03*
X12940Y8624D02*
D03*
X13030D02*
D03*
X12940Y8774D02*
D03*
X13030D02*
D03*
X12940Y8849D02*
D03*
X13030D02*
D03*
X12940Y9174D02*
D03*
X13030D02*
D03*
X12940Y9249D02*
D03*
X13030D02*
D03*
X12575Y9209D02*
D03*
X12485D02*
D03*
X12625Y8274D02*
D03*
X12535D02*
D03*
X12375Y8274D02*
D03*
X12465D02*
D03*
X11820Y8239D02*
D03*
X11910D02*
D03*
X11590Y8584D02*
D03*
X11500D02*
D03*
X12940Y7124D02*
D03*
X13030D02*
D03*
Y7199D02*
D03*
X12940D02*
D03*
Y7274D02*
D03*
X13030D02*
D03*
X12940Y7349D02*
D03*
X13030D02*
D03*
Y7424D02*
D03*
X12940D02*
D03*
Y7499D02*
D03*
X13030D02*
D03*
X12940Y7574D02*
D03*
X13030D02*
D03*
Y7649D02*
D03*
X12940D02*
D03*
Y7724D02*
D03*
X13030D02*
D03*
X12380Y7694D02*
D03*
X12470D02*
D03*
X12625D02*
D03*
X12535D02*
D03*
X11820Y7559D02*
D03*
X11910D02*
D03*
X11900Y7039D02*
D03*
X11990D02*
D03*
Y7114D02*
D03*
X11900D02*
D03*
X11990Y7189D02*
D03*
X11900D02*
D03*
Y7264D02*
D03*
X11990D02*
D03*
X10950Y7039D02*
D03*
X10860D02*
D03*
X10950Y6964D02*
D03*
X10860D02*
D03*
X10950Y6889D02*
D03*
X10860D02*
D03*
X11130Y7209D02*
D03*
X11220D02*
D03*
X9995Y7503D02*
D03*
X10085D02*
D03*
X9060Y8459D02*
D03*
X8970D02*
D03*
X9065Y8964D02*
D03*
X8975D02*
D03*
X9360Y8509D02*
D03*
X9270D02*
D03*
X9400Y7609D02*
D03*
X9310D02*
D03*
X9110D02*
D03*
X9200D02*
D03*
X8840Y7044D02*
D03*
X8930D02*
D03*
Y7119D02*
D03*
X8840D02*
D03*
X8610Y7254D02*
D03*
X8700D02*
D03*
X6570Y7439D02*
D03*
X6660D02*
D03*
X6730D02*
D03*
X6820D02*
D03*
X6660Y7364D02*
D03*
X6570D02*
D03*
X5190Y7979D02*
D03*
X5280D02*
D03*
X5190Y8529D02*
D03*
X5280D02*
D03*
X5190Y8229D02*
D03*
X5280D02*
D03*
D99*
X12650Y6796D02*
D03*
X12810D02*
D03*
X12650Y6770D02*
D03*
X12810D02*
D03*
X12650Y6745D02*
D03*
X12810D02*
D03*
X12650Y6719D02*
D03*
X12810D02*
D03*
X12650Y6931D02*
D03*
X12810D02*
D03*
X12650Y6905D02*
D03*
X12810D02*
D03*
X12650Y6880D02*
D03*
X12810D02*
D03*
X12650Y6854D02*
D03*
X12810D02*
D03*
X12100Y6796D02*
D03*
X12260D02*
D03*
X12100Y6770D02*
D03*
X12260D02*
D03*
X12100Y6745D02*
D03*
X12260D02*
D03*
X12100Y6719D02*
D03*
X12260D02*
D03*
X12100Y6931D02*
D03*
X12260D02*
D03*
X12100Y6905D02*
D03*
X12260D02*
D03*
X12100Y6880D02*
D03*
X12260D02*
D03*
X12100Y6854D02*
D03*
X12260D02*
D03*
D100*
X8163Y8661D02*
D03*
Y8721D02*
D03*
Y8781D02*
D03*
Y8841D02*
D03*
D101*
X12575Y9304D02*
D03*
X12440D02*
D03*
X8610Y8669D02*
D03*
X8475D02*
D03*
X8610Y8164D02*
D03*
X8475D02*
D03*
X9935Y8979D02*
D03*
X9800D02*
D03*
X9860Y8419D02*
D03*
X9725D02*
D03*
X9860Y8309D02*
D03*
X9725D02*
D03*
D102*
X13695Y6870D02*
D03*
Y7009D02*
D03*
X13185Y6998D02*
D03*
Y6859D02*
D03*
X12670Y9092D02*
D03*
Y8953D02*
D03*
X11765Y7353D02*
D03*
Y7214D02*
D03*
X10170Y8670D02*
D03*
Y8809D02*
D03*
X10070Y8558D02*
D03*
Y8419D02*
D03*
Y8170D02*
D03*
Y8309D02*
D03*
X10780Y7115D02*
D03*
Y7254D02*
D03*
X8745Y8808D02*
D03*
Y8669D02*
D03*
Y8303D02*
D03*
Y8164D02*
D03*
X7780Y7207D02*
D03*
Y7068D02*
D03*
X6415Y7213D02*
D03*
Y7074D02*
D03*
D105*
X14915Y8784D02*
D03*
Y8694D02*
D03*
X14990Y8784D02*
D03*
Y8694D02*
D03*
X14805Y7809D02*
D03*
Y7719D02*
D03*
X14800Y8204D02*
D03*
Y8294D02*
D03*
Y8449D02*
D03*
Y8359D02*
D03*
X14805Y8979D02*
D03*
Y9069D02*
D03*
Y9224D02*
D03*
Y9134D02*
D03*
Y6794D02*
D03*
Y6884D02*
D03*
Y7039D02*
D03*
Y6949D02*
D03*
Y7564D02*
D03*
Y7654D02*
D03*
X14970Y7254D02*
D03*
Y7344D02*
D03*
X14895Y7254D02*
D03*
Y7344D02*
D03*
X14060Y9304D02*
D03*
Y9214D02*
D03*
X13720Y7989D02*
D03*
Y8079D02*
D03*
X13795Y7989D02*
D03*
Y8079D02*
D03*
X14005D02*
D03*
Y7989D02*
D03*
X13270Y7779D02*
D03*
Y7869D02*
D03*
X13345Y7779D02*
D03*
Y7869D02*
D03*
X13730Y7794D02*
D03*
Y7884D02*
D03*
X13345Y8259D02*
D03*
Y8349D02*
D03*
X13270Y8259D02*
D03*
Y8349D02*
D03*
Y8194D02*
D03*
Y8104D02*
D03*
X13345D02*
D03*
Y8194D02*
D03*
X13730Y8279D02*
D03*
Y8369D02*
D03*
X13260Y8774D02*
D03*
Y8864D02*
D03*
X13335Y8774D02*
D03*
Y8864D02*
D03*
Y8614D02*
D03*
Y8704D02*
D03*
X13260D02*
D03*
Y8614D02*
D03*
X13420Y8609D02*
D03*
Y8519D02*
D03*
X14015Y8524D02*
D03*
Y8434D02*
D03*
X13805D02*
D03*
Y8524D02*
D03*
X13730Y8434D02*
D03*
Y8524D02*
D03*
X13775Y9214D02*
D03*
Y9304D02*
D03*
X13850Y9214D02*
D03*
Y9304D02*
D03*
X14245Y8909D02*
D03*
Y8819D02*
D03*
X13425Y8104D02*
D03*
Y8014D02*
D03*
X13730Y7509D02*
D03*
Y7599D02*
D03*
X14015Y7509D02*
D03*
Y7599D02*
D03*
X13805Y7509D02*
D03*
Y7599D02*
D03*
X13730Y7284D02*
D03*
Y7374D02*
D03*
X13270Y7264D02*
D03*
Y7354D02*
D03*
X13345Y7264D02*
D03*
Y7354D02*
D03*
X13270Y7199D02*
D03*
Y7109D02*
D03*
X13345D02*
D03*
Y7199D02*
D03*
X13425Y7619D02*
D03*
Y7529D02*
D03*
X13270Y7709D02*
D03*
Y7619D02*
D03*
X13345D02*
D03*
Y7709D02*
D03*
X13830Y6984D02*
D03*
Y6894D02*
D03*
X13320Y6884D02*
D03*
Y6974D02*
D03*
X12705Y8774D02*
D03*
Y8864D02*
D03*
X12805Y8934D02*
D03*
Y9024D02*
D03*
X12880Y8934D02*
D03*
Y9024D02*
D03*
X12610Y8554D02*
D03*
Y8644D02*
D03*
X12415Y6854D02*
D03*
Y6764D02*
D03*
X11865Y6849D02*
D03*
Y6759D02*
D03*
X11520Y7299D02*
D03*
Y7389D02*
D03*
X11765Y7124D02*
D03*
Y7034D02*
D03*
X10010Y8979D02*
D03*
Y8889D02*
D03*
X10210Y8279D02*
D03*
Y8189D02*
D03*
X9935Y8399D02*
D03*
Y8489D02*
D03*
Y8329D02*
D03*
Y8239D02*
D03*
X10540Y6704D02*
D03*
Y6794D02*
D03*
X10690Y6704D02*
D03*
Y6794D02*
D03*
X10390Y6704D02*
D03*
Y6794D02*
D03*
X10465D02*
D03*
Y6704D02*
D03*
X10615Y6794D02*
D03*
Y6704D02*
D03*
X10315Y6794D02*
D03*
Y6704D02*
D03*
X11035Y7279D02*
D03*
Y7189D02*
D03*
X8880Y8669D02*
D03*
Y8759D02*
D03*
Y8164D02*
D03*
Y8254D02*
D03*
X9530Y8089D02*
D03*
Y8179D02*
D03*
X8945Y7299D02*
D03*
Y7389D02*
D03*
X7235Y9124D02*
D03*
Y9034D02*
D03*
X8238Y8786D02*
D03*
Y8876D02*
D03*
Y8626D02*
D03*
Y8716D02*
D03*
X7235Y6859D02*
D03*
Y6949D02*
D03*
X6480Y9129D02*
D03*
Y9039D02*
D03*
D110*
X15109Y7754D02*
D03*
X14885Y7704D02*
D03*
Y7654D02*
D03*
Y7604D02*
D03*
X15109D02*
D03*
Y7654D02*
D03*
Y7704D02*
D03*
X15104Y8409D02*
D03*
Y8359D02*
D03*
Y8309D02*
D03*
X14880D02*
D03*
Y8359D02*
D03*
Y8409D02*
D03*
X15104Y8459D02*
D03*
X15109Y9169D02*
D03*
X14885Y9119D02*
D03*
Y9069D02*
D03*
Y9019D02*
D03*
X15109D02*
D03*
Y9069D02*
D03*
Y9119D02*
D03*
Y6999D02*
D03*
Y6949D02*
D03*
Y6899D02*
D03*
X14885D02*
D03*
Y6949D02*
D03*
Y6999D02*
D03*
X15109Y7049D02*
D03*
X13644Y8814D02*
D03*
X13420Y8764D02*
D03*
Y8714D02*
D03*
Y8664D02*
D03*
X13644D02*
D03*
Y8714D02*
D03*
Y8764D02*
D03*
X13649Y7819D02*
D03*
X13425Y7769D02*
D03*
Y7719D02*
D03*
Y7669D02*
D03*
X13649D02*
D03*
Y7719D02*
D03*
Y7769D02*
D03*
Y8304D02*
D03*
X13425Y8254D02*
D03*
Y8204D02*
D03*
Y8154D02*
D03*
X13649D02*
D03*
Y8204D02*
D03*
Y8254D02*
D03*
Y7309D02*
D03*
X13425Y7259D02*
D03*
Y7209D02*
D03*
Y7159D02*
D03*
X13649D02*
D03*
Y7209D02*
D03*
Y7259D02*
D03*
D112*
X4733Y8077D02*
D03*
Y8127D02*
D03*
Y8177D02*
D03*
Y8227D02*
D03*
Y8277D02*
D03*
Y8327D02*
D03*
Y8377D02*
D03*
Y8427D02*
D03*
Y8477D02*
D03*
Y8527D02*
D03*
X5108Y8077D02*
D03*
Y8127D02*
D03*
Y8177D02*
D03*
Y8227D02*
D03*
Y8277D02*
D03*
Y8327D02*
D03*
Y8377D02*
D03*
Y8427D02*
D03*
Y8477D02*
D03*
Y8527D02*
D03*
X4733Y7527D02*
D03*
X4733Y7577D02*
D03*
Y7627D02*
D03*
Y7677D02*
D03*
Y7727D02*
D03*
Y7777D02*
D03*
Y7827D02*
D03*
Y7877D02*
D03*
Y7927D02*
D03*
Y7977D02*
D03*
X5108Y7527D02*
D03*
Y7577D02*
D03*
Y7627D02*
D03*
Y7677D02*
D03*
Y7727D02*
D03*
Y7777D02*
D03*
Y7827D02*
D03*
Y7877D02*
D03*
Y7927D02*
D03*
Y7977D02*
D03*
D114*
X4740Y7334D02*
D03*
X4590D02*
D03*
X4740Y7234D02*
D03*
X4590D02*
D03*
Y7134D02*
D03*
X4740D02*
D03*
D115*
X12532Y8906D02*
D03*
Y8886D02*
D03*
Y8867D02*
D03*
Y8847D02*
D03*
Y8827D02*
D03*
Y8808D02*
D03*
Y8788D02*
D03*
Y8768D02*
D03*
Y8749D02*
D03*
Y8729D02*
D03*
Y8709D02*
D03*
Y8689D02*
D03*
X12175Y8688D02*
D03*
Y8708D02*
D03*
Y8728D02*
D03*
Y8748D02*
D03*
Y8767D02*
D03*
Y8787D02*
D03*
Y8807D02*
D03*
Y8826D02*
D03*
Y8846D02*
D03*
Y8866D02*
D03*
Y8885D02*
D03*
Y8905D02*
D03*
D116*
X9440Y8584D02*
D03*
Y8634D02*
D03*
Y8684D02*
D03*
Y8734D02*
D03*
Y8784D02*
D03*
Y8834D02*
D03*
Y8884D02*
D03*
Y8934D02*
D03*
X9196D02*
D03*
Y8884D02*
D03*
Y8834D02*
D03*
Y8784D02*
D03*
Y8734D02*
D03*
Y8684D02*
D03*
Y8634D02*
D03*
Y8584D02*
D03*
Y8084D02*
D03*
Y8134D02*
D03*
Y8184D02*
D03*
Y8234D02*
D03*
Y8284D02*
D03*
Y8334D02*
D03*
Y8384D02*
D03*
Y8434D02*
D03*
X9440D02*
D03*
Y8384D02*
D03*
Y8334D02*
D03*
Y8284D02*
D03*
Y8234D02*
D03*
Y8184D02*
D03*
Y8134D02*
D03*
Y8084D02*
D03*
D122*
X14414Y9329D02*
D03*
Y9279D02*
D03*
Y9229D02*
D03*
Y9179D02*
D03*
Y9129D02*
D03*
Y9079D02*
D03*
Y9029D02*
D03*
Y8979D02*
D03*
X14170D02*
D03*
Y9029D02*
D03*
Y9079D02*
D03*
Y9129D02*
D03*
Y9179D02*
D03*
Y9229D02*
D03*
Y9279D02*
D03*
Y9329D02*
D03*
Y7959D02*
D03*
Y7909D02*
D03*
Y7859D02*
D03*
Y7809D02*
D03*
Y7759D02*
D03*
Y7709D02*
D03*
Y7659D02*
D03*
Y7609D02*
D03*
X14414D02*
D03*
Y7659D02*
D03*
Y7709D02*
D03*
Y7759D02*
D03*
Y7809D02*
D03*
Y7859D02*
D03*
Y7909D02*
D03*
Y7959D02*
D03*
Y8604D02*
D03*
Y8554D02*
D03*
Y8504D02*
D03*
Y8454D02*
D03*
Y8404D02*
D03*
Y8354D02*
D03*
Y8304D02*
D03*
Y8254D02*
D03*
X14170D02*
D03*
Y8304D02*
D03*
Y8354D02*
D03*
Y8404D02*
D03*
Y8454D02*
D03*
Y8504D02*
D03*
Y8554D02*
D03*
Y8604D02*
D03*
X14414Y7189D02*
D03*
Y7139D02*
D03*
Y7089D02*
D03*
Y7039D02*
D03*
Y6989D02*
D03*
Y6939D02*
D03*
Y6889D02*
D03*
Y6839D02*
D03*
X14170D02*
D03*
Y6889D02*
D03*
Y6939D02*
D03*
Y6989D02*
D03*
Y7039D02*
D03*
Y7089D02*
D03*
Y7139D02*
D03*
Y7189D02*
D03*
D123*
X12369Y7935D02*
D03*
Y7955D02*
D03*
Y7974D02*
D03*
X12641Y7758D02*
D03*
Y7777D02*
D03*
Y7797D02*
D03*
Y7817D02*
D03*
Y7836D02*
D03*
Y7856D02*
D03*
Y7876D02*
D03*
Y7896D02*
D03*
Y7915D02*
D03*
Y7935D02*
D03*
Y7955D02*
D03*
Y7974D02*
D03*
Y7994D02*
D03*
Y8014D02*
D03*
Y8033D02*
D03*
Y8053D02*
D03*
Y8073D02*
D03*
Y8092D02*
D03*
Y8112D02*
D03*
Y8132D02*
D03*
Y8151D02*
D03*
Y8171D02*
D03*
Y8191D02*
D03*
Y8210D02*
D03*
X12369Y8132D02*
D03*
X12369Y8112D02*
D03*
X12369Y8092D02*
D03*
Y8073D02*
D03*
Y7994D02*
D03*
Y7915D02*
D03*
Y7896D02*
D03*
Y7876D02*
D03*
Y7856D02*
D03*
Y7836D02*
D03*
Y7817D02*
D03*
Y7797D02*
D03*
Y7777D02*
D03*
Y7758D02*
D03*
Y8014D02*
D03*
Y8033D02*
D03*
Y8053D02*
D03*
Y8191D02*
D03*
Y8210D02*
D03*
Y8171D02*
D03*
Y8151D02*
D03*
D126*
X7813Y8981D02*
D03*
X8113D02*
D03*
X7813Y8521D02*
D03*
X8113D02*
D03*
D127*
X14709Y8649D02*
D03*
X14570D02*
D03*
X14714Y8004D02*
D03*
X14575D02*
D03*
X14714Y7809D02*
D03*
X14575D02*
D03*
X14709Y8454D02*
D03*
X14570D02*
D03*
X14714Y9229D02*
D03*
X14575D02*
D03*
X14709Y7039D02*
D03*
X14570D02*
D03*
X12804Y9254D02*
D03*
X12665D02*
D03*
X8749Y7119D02*
D03*
X8610D02*
D03*
X7001Y9124D02*
D03*
X7140D02*
D03*
X7001Y6859D02*
D03*
X7140D02*
D03*
X6246Y9129D02*
D03*
X6385D02*
D03*
X6714Y8564D02*
D03*
X6575D02*
D03*
X5962Y8563D02*
D03*
X5823D02*
D03*
X4979Y7334D02*
D03*
X4840D02*
D03*
X5199Y7234D02*
D03*
X5060D02*
D03*
X4979Y7134D02*
D03*
X4840D02*
D03*
D129*
X13540Y6989D02*
D03*
Y6854D02*
D03*
X13030Y7019D02*
D03*
Y6884D02*
D03*
X10935Y7274D02*
D03*
Y7139D02*
D03*
D130*
X14555Y8249D02*
D03*
X14705Y8299D02*
D03*
Y8199D02*
D03*
X14560Y9024D02*
D03*
X14710Y9074D02*
D03*
Y8974D02*
D03*
X14560Y6834D02*
D03*
X14710Y6884D02*
D03*
Y6784D02*
D03*
X14560Y7599D02*
D03*
X14710Y7649D02*
D03*
Y7549D02*
D03*
X13125Y9024D02*
D03*
X12975Y8974D02*
D03*
Y9074D02*
D03*
D135*
X7975Y7168D02*
D03*
Y7068D02*
D03*
Y7268D02*
D03*
X6613Y8907D02*
D03*
Y8707D02*
D03*
Y8807D02*
D03*
X5863D02*
D03*
Y8707D02*
D03*
Y8907D02*
D03*
X6615Y7273D02*
D03*
Y7073D02*
D03*
Y7173D02*
D03*
D138*
X7971Y8731D02*
Y8771D01*
D141*
X8268Y7082D02*
X8424D01*
Y7258D01*
X8268D01*
Y7082D01*
X6906Y8722D02*
X7062D01*
Y8896D01*
X6906D01*
Y8722D01*
X6156D02*
X6312D01*
Y8896D01*
X6156D01*
Y8722D01*
X6908Y7088D02*
X7064D01*
Y7262D01*
X6908D01*
Y7088D01*
D02*
M02*
