  0
SECTION
  2
HEADER
  9
$ACADVER
  1
AC1015
  9
$ACADMAINTVER
 70
     6
  9
$DWGCODEPAGE
  3
ANSI_1252
  9
$INSBASE
 10
0.0
 20
0.0
 30
0.0
  9
$EXTMIN
 10
5.065741709508795
 20
10.0
 30
0.0
  9
$EXTMAX
 10
410.25
 20
287.0
 30
0.0
  9
$LIMMIN
 10
0.0
 20
0.0
  9
$LIMMAX
 10
420.0
 20
297.0
  9
$ORTHOMODE
 70
     0
  9
$REGENMODE
 70
     1
  9
$FILLMODE
 70
     1
  9
$QTEXTMODE
 70
     0
  9
$MIRRTEXT
 70
     1
  9
$LTSCALE
 40
1.0
  9
$ATTMODE
 70
     1
  9
$TEXTSIZE
 40
2.0
  9
$TRACEWID
 40
0.05
  9
$TEXTSTYLE
  7
UV
  9
$CLAYER
  8
readme
  9
$CELTYPE
  6
ByLayer
  9
$CECOLOR
 62
   256
  9
$CELTSCALE
 40
1.0
  9
$DISPSILH
 70
     0
  9
$DIMSCALE
 40
1.0
  9
$DIMASZ
 40
3.5
  9
$DIMEXO
 40
1.0
  9
$DIMDLI
 40
5.0
  9
$DIMRND
 40
0.0
  9
$DIMDLE
 40
0.0
  9
$DIMEXE
 40
1.0
  9
$DIMTP
 40
0.0
  9
$DIMTM
 40
0.2
  9
$DIMTXT
 40
2.5
  9
$DIMCEN
 40
0.09
  9
$DIMTSZ
 40
0.0
  9
$DIMTOL
 70
     0
  9
$DIMLIM
 70
     0
  9
$DIMTIH
 70
     1
  9
$DIMTOH
 70
     1
  9
$DIMSE1
 70
     0
  9
$DIMSE2
 70
     0
  9
$DIMTAD
 70
     0
  9
$DIMZIN
 70
     0
  9
$DIMBLK
  1

  9
$DIMASO
 70
     1
  9
$DIMSHO
 70
     0
  9
$DIMPOST
  1

  9
$DIMAPOST
  1

  9
$DIMALT
 70
     0
  9
$DIMALTD
 70
     2
  9
$DIMALTF
 40
25.4
  9
$DIMLFAC
 40
1.0
  9
$DIMTOFL
 70
     0
  9
$DIMTVP
 40
0.8
  9
$DIMTIX
 70
     0
  9
$DIMSOXD
 70
     0
  9
$DIMSAH
 70
     0
  9
$DIMBLK1
  1

  9
$DIMBLK2
  1

  9
$DIMSTYLE
  2
Standard
  9
$DIMCLRD
 70
     0
  9
$DIMCLRE
 70
     0
  9
$DIMCLRT
 70
     0
  9
$DIMTFAC
 40
1.0
  9
$DIMGAP
 40
0.09
  9
$DIMJUST
 70
     0
  9
$DIMSD1
 70
     0
  9
$DIMSD2
 70
     0
  9
$DIMTOLJ
 70
     1
  9
$DIMTZIN
 70
     0
  9
$DIMALTZ
 70
     0
  9
$DIMALTTZ
 70
     0
  9
$DIMUPT
 70
     0
  9
$DIMDEC
 70
     2
  9
$DIMTDEC
 70
     2
  9
$DIMALTU
 70
     2
  9
$DIMALTTD
 70
     2
  9
$DIMTXSTY
  7
STANDARD
  9
$DIMAUNIT
 70
     0
  9
$DIMADEC
 70
     0
  9
$DIMALTRND
 40
0.0
  9
$DIMAZIN
 70
     0
  9
$DIMDSEP
 70
    46
  9
$DIMATFIT
 70
     3
  9
$DIMFRAC
 70
     0
  9
$DIMLDRBLK
  1

  9
$DIMLUNIT
 70
     2
  9
$DIMLWD
 70
    -2
  9
$DIMLWE
 70
    -2
  9
$DIMTMOVE
 70
     2
  9
$LUNITS
 70
     2
  9
$LUPREC
 70
     2
  9
$SKETCHINC
 40
0.1
  9
$FILLETRAD
 40
1.5
  9
$AUNITS
 70
     0
  9
$AUPREC
 70
     0
  9
$MENU
  1
acad
  9
$ELEVATION
 40
0.0
  9
$PELEVATION
 40
0.0
  9
$THICKNESS
 40
0.0
  9
$LIMCHECK
 70
     1
  9
$CHAMFERA
 40
0.0
  9
$CHAMFERB
 40
0.0
  9
$CHAMFERC
 40
0.0
  9
$CHAMFERD
 40
0.0
  9
$SKPOLY
 70
     0
  9
$TDCREATE
 40
2450506.636798264
  9
$TDUCREATE
 40
2450506.553464930
  9
$TDUPDATE
 40
2451712.620825763
  9
$TDUUPDATE
 40
2451712.537492430
  9
$TDINDWG
 40
0.2732550694
  9
$TDUSRTIMER
 40
0.2732550694
  9
$USRTIMER
 70
     1
  9
$ANGBASE
 50
0.0
  9
$ANGDIR
 70
     0
  9
$PDMODE
 70
     0
  9
$PDSIZE
 40
0.0
  9
$PLINEWID
 40
0.0
  9
$SPLFRAME
 70
     0
  9
$SPLINETYPE
 70
     6
  9
$SPLINESEGS
 70
     8
  9
$HANDSEED
  5
7AD
  9
$SURFTAB1
 70
     6
  9
$SURFTAB2
 70
     6
  9
$SURFTYPE
 70
     6
  9
$SURFU
 70
     6
  9
$SURFV
 70
     6
  9
$UCSBASE
  2

  9
$UCSNAME
  2

  9
$UCSORG
 10
0.0
 20
0.0
 30
0.0
  9
$UCSXDIR
 10
1.0
 20
0.0
 30
0.0
  9
$UCSYDIR
 10
0.0
 20
1.0
 30
0.0
  9
$UCSORTHOREF
  2

  9
$UCSORTHOVIEW
 70
     0
  9
$UCSORGTOP
 10
0.0
 20
0.0
 30
0.0
  9
$UCSORGBOTTOM
 10
0.0
 20
0.0
 30
0.0
  9
$UCSORGLEFT
 10
0.0
 20
0.0
 30
0.0
  9
$UCSORGRIGHT
 10
0.0
 20
0.0
 30
0.0
  9
$UCSORGFRONT
 10
0.0
 20
0.0
 30
0.0
  9
$UCSORGBACK
 10
0.0
 20
0.0
 30
0.0
  9
$PUCSBASE
  2

  9
$PUCSNAME
  2

  9
$PUCSORG
 10
0.0
 20
0.0
 30
0.0
  9
$PUCSXDIR
 10
1.0
 20
0.0
 30
0.0
  9
$PUCSYDIR
 10
0.0
 20
1.0
 30
0.0
  9
$PUCSORTHOREF
  2

  9
$PUCSORTHOVIEW
 70
     0
  9
$PUCSORGTOP
 10
0.0
 20
0.0
 30
0.0
  9
$PUCSORGBOTTOM
 10
0.0
 20
0.0
 30
0.0
  9
$PUCSORGLEFT
 10
0.0
 20
0.0
 30
0.0
  9
$PUCSORGRIGHT
 10
0.0
 20
0.0
 30
0.0
  9
$PUCSORGFRONT
 10
0.0
 20
0.0
 30
0.0
  9
$PUCSORGBACK
 10
0.0
 20
0.0
 30
0.0
  9
$USERI1
 70
     0
  9
$USERI2
 70
     0
  9
$USERI3
 70
     0
  9
$USERI4
 70
     0
  9
$USERI5
 70
     0
  9
$USERR1
 40
0.0
  9
$USERR2
 40
0.0
  9
$USERR3
 40
0.0
  9
$USERR4
 40
0.0
  9
$USERR5
 40
0.0
  9
$WORLDVIEW
 70
     1
  9
$SHADEDGE
 70
     3
  9
$SHADEDIF
 70
    70
  9
$TILEMODE
 70
     1
  9
$MAXACTVP
 70
    16
  9
$PINSBASE
 10
0.0
 20
0.0
 30
0.0
  9
$PLIMCHECK
 70
     0
  9
$PEXTMIN
 10
1.000000000000000E+20
 20
1.000000000000000E+20
 30
1.000000000000000E+20
  9
$PEXTMAX
 10
-1.000000000000000E+20
 20
-1.000000000000000E+20
 30
-1.000000000000000E+20
  9
$PLIMMIN
 10
0.0
 20
0.0
  9
$PLIMMAX
 10
12.0
 20
9.0
  9
$UNITMODE
 70
     0
  9
$VISRETAIN
 70
     0
  9
$PLINEGEN
 70
     0
  9
$PSLTSCALE
 70
     0
  9
$TREEDEPTH
 70
  3020
  9
$CMLSTYLE
  2
Standard
  9
$CMLJUST
 70
     0
  9
$CMLSCALE
 40
1.0
  9
$PROXYGRAPHICS
 70
     1
  9
$MEASUREMENT
 70
     0
  9
$CELWEIGHT
370
    -1
  9
$ENDCAPS
280
     0
  9
$JOINSTYLE
280
     0
  9
$LWDISPLAY
290
     0
  9
$INSUNITS
 70
     0
  9
$HYPERLINKBASE
  1

  9
$STYLESHEET
  1
kabler.ctb
  9
$XEDIT
290
     1
  9
$CEPSNTYPE
380
     0
  9
$PSTYLEMODE
290
     1
  9
$FINGERPRINTGUID
  2
{E60073C0-CF43-11D3-9597-0050043D34BD}
  9
$VERSIONGUID
  2
{A178E1B9-437A-11D4-95F7-0050043D34BD}
  9
$EXTNAMES
290
     1
  9
$PSVPSCALE
 40
0.0
  9
$OLESTARTUP
290
     0
  0
ENDSEC
  0
SECTION
  2
CLASSES
  0
CLASS
  1
ACDBDICTIONARYWDFLT
  2
AcDbDictionaryWithDefault
  3
AutoCAD 2000
 90
        0
280
     0
281
     0
  0
CLASS
  1
ACDBPLACEHOLDER
  2
AcDbPlaceHolder
  3
AutoCAD 2000
 90
        0
280
     0
281
     0
  0
CLASS
  1
LAYOUT
  2
AcDbLayout
  3
AutoCAD 2000
 90
        0
280
     0
281
     0
  0
CLASS
  1
DICTIONARYVAR
  2
AcDbDictionaryVar
  3
AutoCAD 2000
 90
        0
280
     0
281
     0
  0
ENDSEC
  0
SECTION
  2
TABLES
  0
TABLE
  2
VPORT
  5
8
330
0
100
AcDbSymbolTable
 70
     2
  0
VPORT
  5
7AC
330
8
100
AcDbSymbolTableRecord
100
AcDbViewportTableRecord
  2
*Active
 70
     0
 10
0.0
 20
0.0
 11
1.0
 21
1.0
 12
115.4077157115188
 22
201.3301628013492
 13
0.0
 23
0.0
 14
1.0
 24
1.0
 15
0.0
 25
0.0
 16
0.0
 26
0.0
 36
1.0
 17
0.0
 27
0.0
 37
0.0
 40
96.64409509546711
 41
1.595348837209302
 42
50.0
 43
0.0
 44
0.0
 50
0.0
 51
0.0
 71
     0
 72
   100
 73
     1
 74
     1
 75
     0
 76
     0
 77
     0
 78
     0
281
     0
 65
     1
110
0.0
120
0.0
130
0.0
111
1.0
121
0.0
131
0.0
112
0.0
122
1.0
132
0.0
 79
     0
146
0.0
  0
ENDTAB
  0
TABLE
  2
LTYPE
  5
5
330
0
100
AcDbSymbolTable
 70
     2
  0
LTYPE
  5
13
330
5
100
AcDbSymbolTableRecord
100
AcDbLinetypeTableRecord
  2
ByBlock
 70
     0
  3

 72
    65
 73
     0
 40
0.0
  0
LTYPE
  5
14
330
5
100
AcDbSymbolTableRecord
100
AcDbLinetypeTableRecord
  2
ByLayer
 70
     0
  3

 72
    65
 73
     0
 40
0.0
  0
LTYPE
  5
15
330
5
100
AcDbSymbolTableRecord
100
AcDbLinetypeTableRecord
  2
CONTINUOUS
 70
     0
  3
Solid line
 72
    65
 73
     0
 40
0.0
  0
LTYPE
  5
2C
330
5
100
AcDbSymbolTableRecord
100
AcDbLinetypeTableRecord
  2
CENTER
 70
     0
  3
____ _ ____ _ ____ _ ____ _ ____ _ ____ _ ____
 72
    65
 73
     4
 40
2.0
 49
1.25
 74
     0
 49
-0.25
 74
     0
 49
0.25
 74
     0
 49
-0.25
 74
     0
  0
ENDTAB
  0
TABLE
  2
LAYER
  5
2
330
0
100
AcDbSymbolTable
 70
     6
  0
LAYER
  5
10
330
2
100
AcDbSymbolTableRecord
100
AcDbLayerTableRecord
  2
0
 70
     0
 62
     7
  6
CONTINUOUS
370
    -3
390
F
  0
LAYER
  5
30
330
2
100
AcDbSymbolTableRecord
100
AcDbLayerTableRecord
  2
115-1T
 70
     0
 62
     7
  6
CONTINUOUS
370
    -3
390
F
  0
LAYER
  5
32
330
2
100
AcDbSymbolTableRecord
100
AcDbLayerTableRecord
  2
110-1MEK
 70
     0
 62
     3
  6
CONTINUOUS
370
    -3
390
F
  0
LAYER
  5
33
330
2
100
AcDbSymbolTableRecord
100
AcDbLayerTableRecord
  2
110-1
 70
     1
 62
   -10
  6
CONTINUOUS
370
    -3
390
F
  0
LAYER
  5
4DE
330
2
100
AcDbSymbolTableRecord
100
AcDbLayerTableRecord
  2
115-1
 70
     1
 62
    -7
  6
CONTINUOUS
370
    -3
390
F
  0
LAYER
  5
799
330
2
100
AcDbSymbolTableRecord
100
AcDbLayerTableRecord
  2
readme
 70
     0
 62
     7
  6
CONTINUOUS
370
    -3
390
F
  0
ENDTAB
  0
TABLE
  2
STYLE
  5
3
330
0
100
AcDbSymbolTable
 70
     3
  0
STYLE
  5
11
330
3
100
AcDbSymbolTableRecord
100
AcDbTextStyleTableRecord
  2
STANDARD
 70
     0
 40
0.0
 41
1.0
 50
0.0
 71
     0
 42
3.0
  3

  4

1001
ACAD
1000
Arial
1071
       34
  0
STYLE
  5
29
330
3
100
AcDbSymbolTableRecord
100
AcDbTextStyleTableRecord
  2
ariab
 70
     0
 40
0.0
 41
1.0
 50
0.0
 71
     0
 42
2.0
  3
ARIAB___.TTF
  4

1001
ACAD
1000
Arial MT
1071
 33554466
  0
STYLE
  5
2A
330
3
100
AcDbSymbolTableRecord
100
AcDbTextStyleTableRecord
  2
UV
 70
     0
 40
0.0
 41
1.0
 50
0.0
 71
     0
 42
2.0
  3

  4

1001
ACAD
1000
Arial
1071
       34
  0
ENDTAB
  0
TABLE
  2
VIEW
  5
6
330
0
100
AcDbSymbolTable
 70
     0
  0
ENDTAB
  0
TABLE
  2
UCS
  5
7
330
0
100
AcDbSymbolTable
 70
     0
  0
ENDTAB
  0
TABLE
  2
APPID
  5
9
330
0
100
AcDbSymbolTable
 70
     1
  0
APPID
  5
12
330
9
100
AcDbSymbolTableRecord
100
AcDbRegAppTableRecord
  2
ACAD
 70
     0
  0
ENDTAB
  0
TABLE
  2
DIMSTYLE
  5
A
330
0
100
AcDbSymbolTable
 70
     1
100
AcDbDimStyleTable
 71
     0
  0
DIMSTYLE
105
4C5
330
A
100
AcDbSymbolTableRecord
100
AcDbDimStyleTableRecord
  2
Standard
 70
     0
340
11
  0
ENDTAB
  0
TABLE
  2
BLOCK_RECORD
  5
1
330
0
100
AcDbSymbolTable
 70
     6
  0
BLOCK_RECORD
  5
1E
330
1
100
AcDbSymbolTableRecord
100
AcDbBlockTableRecord
  2
*Model_Space
340
21
  0
BLOCK_RECORD
  5
1A
330
1
100
AcDbSymbolTableRecord
100
AcDbBlockTableRecord
  2
*Paper_Space
340
1D
  0
BLOCK_RECORD
  5
22
330
1
100
AcDbSymbolTableRecord
100
AcDbBlockTableRecord
  2
6
340
0
310
2800000020000000200000000100080000000000000400000000000000000000000000000000000000000000000080000080000000808000800000008000800080800000C0C0C000C0DCC000F0CAA6000020400000206000002080000020A0000020C0000020E00000400000004020000040400000406000004080000040A0
310
000040C0000040E00000600000006020000060400000606000006080000060A0000060C0000060E00000800000008020000080400000806000008080000080A0000080C0000080E00000A0000000A0200000A0400000A0600000A0800000A0A00000A0C00000A0E00000C0000000C0200000C0400000C0600000C0800000C0
310
A00000C0C00000C0E00000E0000000E0200000E0400000E0600000E0800000E0A00000E0C00000E0E00040000000400020004000400040006000400080004000A0004000C0004000E00040200000402020004020400040206000402080004020A0004020C0004020E000404000004040200040404000404060004040800040
310
40A0004040C0004040E00040600000406020004060400040606000406080004060A0004060C0004060E00040800000408020004080400040806000408080004080A0004080C0004080E00040A0000040A0200040A0400040A0600040A0800040A0A00040A0C00040A0E00040C0000040C0200040C0400040C0600040C08000
310
40C0A00040C0C00040C0E00040E0000040E0200040E0400040E0600040E0800040E0A00040E0C00040E0E00080000000800020008000400080006000800080008000A0008000C0008000E00080200000802020008020400080206000802080008020A0008020C0008020E00080400000804020008040400080406000804080
310
008040A0008040C0008040E00080600000806020008060400080606000806080008060A0008060C0008060E00080800000808020008080400080806000808080008080A0008080C0008080E00080A0000080A0200080A0400080A0600080A0800080A0A00080A0C00080A0E00080C0000080C0200080C0400080C0600080C0
310
800080C0A00080C0C00080C0E00080E0000080E0200080E0400080E0600080E0800080E0A00080E0C00080E0E000C0000000C0002000C0004000C0006000C0008000C000A000C000C000C000E000C0200000C0202000C0204000C0206000C0208000C020A000C020C000C020E000C0400000C0402000C0404000C0406000C0
310
408000C040A000C040C000C040E000C0600000C0602000C0604000C0606000C0608000C060A000C060C000C060E000C0800000C0802000C0804000C0806000C0808000C080A000C080C000C080E000C0A00000C0A02000C0A04000C0A06000C0A08000C0A0A000C0A0C000C0A0E000C0C00000C0C02000C0C04000C0C06000
310
C0C08000C0C0A000F0FBFF00A4A0A000808080000000FF0000FF000000FFFF00FF000000FF00FF00FFFF0000FFFFFF00FFFFFFFFFFFFFFFFFFFFFFFFFFFFFFFFFFFFFFFFFFFFFFFFFFFFFFFFFFFFFFFFFFFFFFFFFFFFFFFFFFFFFFFFFFFFFFFFFFFFFFFFFFFFFFFFFFFFFFFFFF0000FFFFFFFFFFFFFFFFFFFFFFFFFFFFFFFF
310
FFFFFFFFFFFFFFFFFFFFFFFFFFFF0000FFFFFFFFFFFFFFFFFFFFFFFFFFFFFFFFFFFFFFFFFFFFFFFFFFFFFFFFFFFF0000FFFFFFFFFFFFFFFFFFFFFFFFFFFFFFFFFFFFFFFFFFFFFFFFFFFFFFFFFFFF0000FFFFFFFFFFFFFFFFFFFFFFFFFFFFFFFFFFFFFFFFFFFFFFFFFFFFFFFFFFFF0000FFFFFFFFFFFFFFFFFFFFFFFFFFFFFF
310
FFFFFFFFFFFFFFFFFFFFFFFFFFFFFF0000FFFFFFFFFFFFFFFFFFFFFFFFFFFFFFFFFFFFFFFFFFFFFFFFFFFFFFFFFFFF0000FFFFFFFFFFFFFFFFFFFFFFFFFFFFFFFFFFFFFFFFFFFFFFFFFFFFFFFFFFFF0000FFFFFFFFFFFFFFFFFFFFFFFFFFFFFFFFFFFFFFFFFFFFFFFFFFFFFFFFFFFF0000FFFFFFFFFFFFFFFFFFFFFFFFFFFF
310
FFFFFFFFFFFFFFFFFFFFFFFFFFFFFFFF0000FFFFFFFFFFFFFFFFFFFFFFFFFFFFFFFFFFFFFFFFFFFFFFFFFFFFFFFFFFFF0000FFFFFFFFFFFFFFFFFFFFFFFFFFFFFFFFFFFFFFFFFFFFFFFFFFFFFFFFFFFF0000FFFFFFFFFFFFFFFFFFFFFFFFFFFFFFFFFFFFFFFFFFFFFFFFFFFFFFFFFFFF0000FFFFFFFFFFFFFFFFFFFFFFFFFF
310
FFFFFFFFFFFFFFFFFFFFFFFFFFFFFFFFFF0000FFFFFFFFFFFFFFFFFFFFFFFFFFFFFFFFFFFFFFFFFFFFFFFFFFFFFFFFFFFF0000FFFFFFFFFFFFFFFFFFFFFFFFFFFFFFFFFFFFFFFFFFFFFFFFFFFFFFFFFFFF0000FFFFFFFFFFFFFFFFFFFFFFFFFFFFFFFFFFFFFFFFFFFFFFFFFFFFFFFFFFFF0000FFFFFFFFFFFFFFFFFFFFFFFF
310
FFFFFFFFFFFFFFFFFFFFFFFFFFFFFFFFFFFF0000FFFFFFFFFFFFFFFFFFFFFFFFFFFFFFFFFFFFFFFFFFFFFFFFFFFFFFFFFFFF0000FFFFFFFFFFFFFFFFFFFFFFFFFFFFFFFFFFFFFFFFFFFFFFFFFFFFFFFFFFFF0000FFFFFFFFFFFFFFFFFFFFFFFFFFFFFFFFFFFFFFFFFFFFFFFFFFFFFFFFFFFF0000FFFFFFFFFFFFFFFFFFFFFF
310
FFFFFFFFFFFFFFFFFFFFFFFFFFFFFFFFFFFFFF0000FFFFFFFFFFFFFFFFFFFFFFFFFFFFFFFFFFFFFFFFFFFFFFFFFFFFFFFFFFFF0000FFFFFFFFFFFFFFFFFFFFFFFFFFFFFFFFFFFFFFFFFFFFFFFFFFFFFFFFFFFF0000FFFFFFFFFFFFFFFFFFFFFFFFFFFFFFFFFFFFFFFFFFFFFFFFFFFFFFFFFFFFFFFFFFFFFFFFFFFFFFFFFFFF
310
FFFFFFFFFFFFFFFFFFFFFFFFFFFFFFFFFFFFFFFFFFFFFFFFFFFFFFFFFFFFFFFFFFFFFFFFFFFFFFFFFFFFFFFFFFFFFFFFFFFFFFFFFFFFFFFFFFFFFFFFFFFFFFFFFFFFFFFFFFFFFFFFFFFFFFFFFFFFFFFFFFFFFFFFFFFFFFFF000000000000000000000000000000000000000000000000FFFFFFFFFFFFFFFF00000000000000
310
0000000000000000000000000000000000FFFFFFFFFFFFFFFFFFFFFFFFFFFFFFFFFFFFFFFFFFFFFFFFFFFFFFFFFFFFFFFFFFFFFFFFFFFFFF
102
{BLKREFS
331
613
331
615
331
65B
331
65F
102
}
  0
BLOCK_RECORD
  5
23
330
1
100
AcDbSymbolTableRecord
100
AcDbBlockTableRecord
  2
1
340
0
310
2800000020000000200000000100080000000000000400000000000000000000000000000000000000000000000080000080000000808000800000008000800080800000C0C0C000C0DCC000F0CAA6000020400000206000002080000020A0000020C0000020E00000400000004020000040400000406000004080000040A0
310
000040C0000040E00000600000006020000060400000606000006080000060A0000060C0000060E00000800000008020000080400000806000008080000080A0000080C0000080E00000A0000000A0200000A0400000A0600000A0800000A0A00000A0C00000A0E00000C0000000C0200000C0400000C0600000C0800000C0
310
A00000C0C00000C0E00000E0000000E0200000E0400000E0600000E0800000E0A00000E0C00000E0E00040000000400020004000400040006000400080004000A0004000C0004000E00040200000402020004020400040206000402080004020A0004020C0004020E000404000004040200040404000404060004040800040
310
40A0004040C0004040E00040600000406020004060400040606000406080004060A0004060C0004060E00040800000408020004080400040806000408080004080A0004080C0004080E00040A0000040A0200040A0400040A0600040A0800040A0A00040A0C00040A0E00040C0000040C0200040C0400040C0600040C08000
310
40C0A00040C0C00040C0E00040E0000040E0200040E0400040E0600040E0800040E0A00040E0C00040E0E00080000000800020008000400080006000800080008000A0008000C0008000E00080200000802020008020400080206000802080008020A0008020C0008020E00080400000804020008040400080406000804080
310
008040A0008040C0008040E00080600000806020008060400080606000806080008060A0008060C0008060E00080800000808020008080400080806000808080008080A0008080C0008080E00080A0000080A0200080A0400080A0600080A0800080A0A00080A0C00080A0E00080C0000080C0200080C0400080C0600080C0
310
800080C0A00080C0C00080C0E00080E0000080E0200080E0400080E0600080E0800080E0A00080E0C00080E0E000C0000000C0002000C0004000C0006000C0008000C000A000C000C000C000E000C0200000C0202000C0204000C0206000C0208000C020A000C020C000C020E000C0400000C0402000C0404000C0406000C0
310
408000C040A000C040C000C040E000C0600000C0602000C0604000C0606000C0608000C060A000C060C000C060E000C0800000C0802000C0804000C0806000C0808000C080A000C080C000C080E000C0A00000C0A02000C0A04000C0A06000C0A08000C0A0A000C0A0C000C0A0E000C0C00000C0C02000C0C04000C0C06000
310
C0C08000C0C0A000F0FBFF00A4A0A000808080000000FF0000FF000000FFFF00FF000000FF00FF00FFFF0000FFFFFF00FFFFFFFFFFFFFFFFFFFFFFFFFFFFFFFFFFFFFFFFFFFFFFFFFFFFFFFFFFFFFFFFFFFFFFFFFFFFFFFFFFFFFFFFFFFFFFFF00FFFFFFFFFFFFFFFFFFFFFFFFFFFFFFFFFFFFFFFFFFFFFFFFFFFFFFFF00FF
310
00FF00FFFFFFFFFFFFFFFFFFFFFFFFFFFFFFFFFFFFFFFFFFFFFFFFFFFF00FF00FF00FF00FFFFFFFFFFFFFFFFFFFFFFFFFFFFFFFFFFFFFFFFFFFFFFFF00FFFFFF00FF00FF00FFFFFFFFFFFFFFFFFFFFFFFFFFFFFFFFFFFFFFFFFFFF00FFFFFFFFFF00FF00FF00FFFFFFFFFFFFFFFFFFFFFFFFFFFFFFFFFFFFFFFF00FFFFFFFF
310
FFFFFF00FF00FF00FFFFFFFFFFFFFFFFFFFFFFFFFFFFFFFFFFFF00FFFFFFFFFFFFFFFFFF00FF00FF00FFFFFFFFFFFFFFFFFFFFFFFFFFFFFFFF00FFFFFFFFFFFFFFFFFF00FFFFFF00FF00FFFFFFFFFFFFFFFFFFFFFFFFFFFF00FFFFFFFFFFFFFFFFFF00FF00FFFFFF00FF00FFFFFFFFFFFFFFFFFFFFFFFF00FFFFFFFFFFFFFF
310
FFFF00FF00FF00FFFFFF00FF00FFFFFFFFFFFFFFFFFFFF00FFFFFFFFFFFFFFFFFF00FF00FFFFFF00FFFFFF00FF00FFFFFFFFFFFFFFFF00FFFFFFFFFFFFFFFFFF00FF00FFFFFFFFFF00FFFFFF00FF00FFFFFFFFFFFF00FFFFFFFFFFFFFFFFFF00FF00FFFFFFFFFFFFFF00FF00FF00FF00FFFFFFFFFFFF00FFFFFFFFFFFFFF00
310
FF00FF00FFFFFFFFFF00FF00FF00FF00FF00FFFFFFFF00FF00FFFFFFFFFF00FF00FF00FF00FFFFFF00FF00FFFFFF00FF00FF00FFFF00FF00FF00FFFFFF00FF00FFFFFF00FF00FF00FF00FFFFFFFFFF00FF00FFFFFFFF00FF00FF00FF00FF00FFFFFFFFFF00FF00FF00FFFFFFFFFFFFFF00FFFFFFFFFFFF00FF00FF00FF00FF
310
FFFFFFFFFFFF00FF00FFFFFFFFFFFFFFFFFF00FFFFFFFFFFFF00FF00FFFFFF00FFFFFFFFFF00FF00FFFFFFFFFFFFFFFFFF00FFFFFFFFFFFFFFFF00FF00FFFFFF00FFFFFF00FF00FFFFFFFFFFFFFFFFFF00FFFFFFFFFFFFFFFFFFFF00FF00FFFFFF00FF00FF00FFFFFFFFFFFFFFFFFF00FFFFFFFFFFFFFFFFFFFFFFFF00FF00
310
FFFFFF00FF00FFFFFFFFFFFFFFFFFF00FFFFFFFFFFFFFFFFFFFFFFFFFFFF00FF00FFFFFF00FFFFFFFFFFFFFFFFFF00FFFFFFFFFFFFFFFFFFFFFFFFFFFFFFFF00FF00FF00FFFFFFFFFFFFFFFFFF00FFFFFFFFFFFFFFFFFFFFFFFFFFFFFFFFFFFF00FF00FF00FFFFFFFFFFFFFF00FFFFFFFFFFFFFFFFFFFFFFFFFFFFFFFFFFFF
310
FFFF00FF00FF00FFFFFFFFFF00FFFFFFFFFFFFFFFFFFFFFFFFFFFFFFFFFFFFFFFFFFFF00FF00FF00FFFFFF00FFFFFFFFFFFFFFFFFFFFFFFFFFFFFFFFFFFFFFFFFFFFFFFF00FF00FF00FF00FFFFFFFFFFFFFFFFFFFFFFFFFFFFFFFFFFFFFFFFFFFFFFFFFFFF00FF00FF00FFFFFFFFFFFFFFFFFFFFFFFFFFFFFFFFFFFFFFFFFF
310
FFFFFFFFFFFFFF00FFFFFFFFFFFFFFFFFFFFFFFFFFFFFFFFFFFFFFFFFFFFFFFFFFFFFFFFFFFFFFFFFFFFFFFFFFFFFFFFFFFFFFFFFFFFFFFF
102
{BLKREFS
331
614
331
631
331
65E
102
}
  0
BLOCK_RECORD
  5
24
330
1
100
AcDbSymbolTableRecord
100
AcDbBlockTableRecord
  2
0
340
0
102
{BLKREFS
331
609
331
60E
331
64A
102
}
  0
BLOCK_RECORD
  5
25
330
1
100
AcDbSymbolTableRecord
100
AcDbBlockTableRecord
  2
110-1
340
0
310
2800000020000000200000000100080000000000000400000000000000000000000000000000000000000000000080000080000000808000800000008000800080800000C0C0C000C0DCC000F0CAA6000020400000206000002080000020A0000020C0000020E00000400000004020000040400000406000004080000040A0
310
000040C0000040E00000600000006020000060400000606000006080000060A0000060C0000060E00000800000008020000080400000806000008080000080A0000080C0000080E00000A0000000A0200000A0400000A0600000A0800000A0A00000A0C00000A0E00000C0000000C0200000C0400000C0600000C0800000C0
310
A00000C0C00000C0E00000E0000000E0200000E0400000E0600000E0800000E0A00000E0C00000E0E00040000000400020004000400040006000400080004000A0004000C0004000E00040200000402020004020400040206000402080004020A0004020C0004020E000404000004040200040404000404060004040800040
310
40A0004040C0004040E00040600000406020004060400040606000406080004060A0004060C0004060E00040800000408020004080400040806000408080004080A0004080C0004080E00040A0000040A0200040A0400040A0600040A0800040A0A00040A0C00040A0E00040C0000040C0200040C0400040C0600040C08000
310
40C0A00040C0C00040C0E00040E0000040E0200040E0400040E0600040E0800040E0A00040E0C00040E0E00080000000800020008000400080006000800080008000A0008000C0008000E00080200000802020008020400080206000802080008020A0008020C0008020E00080400000804020008040400080406000804080
310
008040A0008040C0008040E00080600000806020008060400080606000806080008060A0008060C0008060E00080800000808020008080400080806000808080008080A0008080C0008080E00080A0000080A0200080A0400080A0600080A0800080A0A00080A0C00080A0E00080C0000080C0200080C0400080C0600080C0
310
800080C0A00080C0C00080C0E00080E0000080E0200080E0400080E0600080E0800080E0A00080E0C00080E0E000C0000000C0002000C0004000C0006000C0008000C000A000C000C000C000E000C0200000C0202000C0204000C0206000C0208000C020A000C020C000C020E000C0400000C0402000C0404000C0406000C0
310
408000C040A000C040C000C040E000C0600000C0602000C0604000C0606000C0608000C060A000C060C000C060E000C0800000C0802000C0804000C0806000C0808000C080A000C080C000C080E000C0A00000C0A02000C0A04000C0A06000C0A08000C0A0A000C0A0C000C0A0E000C0C00000C0C02000C0C04000C0C06000
310
C0C08000C0C0A000F0FBFF00A4A0A000808080000000FF0000FF000000FFFF00FF000000FF00FF00FFFF0000FFFFFF00FFFFFFFFFFFFFFFFFFFFFFFFFFFFFFFFFFFFFFFFFFFFFFFFFFFFFFFFFFFFFFFFFFFFFFFFFFFFFFFFFFFFFFFFFFFFFFFFFFFFFFFFFFFFFFFFFFFFFFFFFFFFFFFFFFFFFFFFFFFFFFFFFFFFFFFFFFFFFF
310
FFFFFFFFFFFFFFFFFFFFFFFFFFFFFFFFFFFFFFFFFFFFFFFFFFFFFFFFFFFFFFFFFFFFFFFFFFFFFFFFFFFFFFFFFFFFFFFFFFFFFFFFFFFFFFFFFFFFFFFFFFFFFFFFFFFFFFFFFFFFFFFFFFFFFFFFFFFFFFFFFFFFFFFFFFFFFFFFFFFFFFFFFFFFFFFFFFFFFFFFFFFFFFFFFFFFFFFFFFFFFFFFFFFFFFFFFFFFFFFFFFFFFFFFFFFFFF
310
FFFFFFFFFFFFFFFFFFFFFFFFFFFFFFFFFFFFFFFFFFFFFFFFFFFFFFFFFFFFFFFFFFFFFFFFFFFFFFFFFFFFFFFFFFFFFFFFFFFFFFFFFFFFFFFFFFFFFFFFFFFFFFFFFFFFFFFFFFFFFFFFFFFFFFFFFFFFFFFFFFFFFFFFFFFFFFFFFFFFFFFFFFFFFFFFFFFFFFFFFFFFFFFFFFFFFFFFFFFFFFFFFFFFFFFFFFFFFFFFFFFFFFFFFFFFFF
310
FFFFFFFFFFFFFFFFFFFFFFFFFFFFFFFFFFFFFFFFFFFFFFFFFFFFFFFFFFFFFFFFFFFFFFFFFFFFFFFFFFFFFFFFFFFFFFFFFFFFFFFFFFFFFFFFFFFFFFFFFFFFFFFFFFFFFFFFFFFFFFFFFFFFFFFFFFFFFFFFFFFFFFFFFFFFFFFFFFFFFFFFFFFFFFFFFFFFFFFFFFFFFFFFFFFFFFFFFFFFFFFFFFFFFFFFFA00FAFAFAFAFAFAFAFAFA
310
FAFAFAFAFAFAFA00FAFAFAFA0000FAFAFA00FAFFFFFA00FFFFFFFFFFFFFA00000000000000000000000000000000FAFFFAFAFAFFFFFAFAFFFFFFFFFFFFFA00000000000000000000000000FAFAFA00FA00FAFAFFFFFAFAFFFFFFFFFFFFFAFAFA00FAFAFAFAFAFA00FAFAFAFAFA00000000FAFAFFFFFFFFFFFFFFFFFFFFFFFF
310
FFFFFFFFFFFFFFFFFFFFFFFFFFFFFFFFFFFFFFFFFFFFFFFFFFFFFFFFFFFFFFFFFFFFFFFFFFFFFFFFFFFFFFFFFFFFFFFFFFFFFFFFFFFFFFFFFFFFFFFFFFFFFFFFFFFFFFFFFFFFFFFFFFFFFFFFFFFFFFFFFFFFFFFFFFFFFFFFFFFFFFFFFFFFFFFFFFFFFFFFFFFFFFFFFFFFFFFFFFFFFFFFFFFFFFFFFFFFFFFFFFFFFFFFFFFFFF
310
FFFFFFFFFFFFFFFFFFFFFFFFFFFFFFFFFFFFFFFFFFFFFFFFFFFFFFFFFFFFFFFFFFFFFFFFFFFFFFFFFFFFFFFFFFFFFFFFFFFFFFFFFFFFFFFFFFFFFFFFFFFFFFFFFFFFFFFFFFFFFFFFFFFFFFFFFFFFFFFFFFFFFFFFFFFFFFFFFFFFFFFFFFFFFFFFFFFFFFFFFFFFFFFFFFFFFFFFFFFFFFFFFFFFFFFFFFFFFFFFFFFFFFFFFFFFFF
310
FFFFFFFFFFFFFFFFFFFFFFFFFFFFFFFFFFFFFFFFFFFFFFFFFFFFFFFFFFFFFFFFFFFFFFFFFFFFFFFFFFFFFFFFFFFFFFFFFFFFFFFFFFFFFFFFFFFFFFFFFFFFFFFFFFFFFFFFFFFFFFFFFFFFFFFFFFFFFFFFFFFFFFFFFFFFFFFFFFFFFFFFFFFFFFFFFFFFFFFFFFFFFFFFFFFFFFFFFFFFFFFFFFFFFFFFFFFFFFFFFFFFFFFFFFFFFF
310
FFFFFFFFFFFFFFFFFFFFFFFFFFFFFFFFFFFFFFFFFFFFFFFFFFFFFFFFFFFFFFFFFFFFFFFFFFFFFFFFFFFFFFFFFFFFFFFFFFFFFFFFFFFFFFFF
102
{BLKREFS
331
279
102
}
  0
BLOCK_RECORD
  5
28
330
1
100
AcDbSymbolTableRecord
100
AcDbBlockTableRecord
  2
115-1
340
0
310
2800000020000000200000000100080000000000000400000000000000000000000000000000000000000000000080000080000000808000800000008000800080800000C0C0C000C0DCC000F0CAA6000020400000206000002080000020A0000020C0000020E00000400000004020000040400000406000004080000040A0
310
000040C0000040E00000600000006020000060400000606000006080000060A0000060C0000060E00000800000008020000080400000806000008080000080A0000080C0000080E00000A0000000A0200000A0400000A0600000A0800000A0A00000A0C00000A0E00000C0000000C0200000C0400000C0600000C0800000C0
310
A00000C0C00000C0E00000E0000000E0200000E0400000E0600000E0800000E0A00000E0C00000E0E00040000000400020004000400040006000400080004000A0004000C0004000E00040200000402020004020400040206000402080004020A0004020C0004020E000404000004040200040404000404060004040800040
310
40A0004040C0004040E00040600000406020004060400040606000406080004060A0004060C0004060E00040800000408020004080400040806000408080004080A0004080C0004080E00040A0000040A0200040A0400040A0600040A0800040A0A00040A0C00040A0E00040C0000040C0200040C0400040C0600040C08000
310
40C0A00040C0C00040C0E00040E0000040E0200040E0400040E0600040E0800040E0A00040E0C00040E0E00080000000800020008000400080006000800080008000A0008000C0008000E00080200000802020008020400080206000802080008020A0008020C0008020E00080400000804020008040400080406000804080
310
008040A0008040C0008040E00080600000806020008060400080606000806080008060A0008060C0008060E00080800000808020008080400080806000808080008080A0008080C0008080E00080A0000080A0200080A0400080A0600080A0800080A0A00080A0C00080A0E00080C0000080C0200080C0400080C0600080C0
310
800080C0A00080C0C00080C0E00080E0000080E0200080E0400080E0600080E0800080E0A00080E0C00080E0E000C0000000C0002000C0004000C0006000C0008000C000A000C000C000C000E000C0200000C0202000C0204000C0206000C0208000C020A000C020C000C020E000C0400000C0402000C0404000C0406000C0
310
408000C040A000C040C000C040E000C0600000C0602000C0604000C0606000C0608000C060A000C060C000C060E000C0800000C0802000C0804000C0806000C0808000C080A000C080C000C080E000C0A00000C0A02000C0A04000C0A06000C0A08000C0A0A000C0A0C000C0A0E000C0C00000C0C02000C0C04000C0C06000
310
C0C08000C0C0A000F0FBFF00A4A0A000808080000000FF0000FF000000FFFF00FF000000FF00FF00FFFF0000FFFFFF00FFFFFFFFFFFFFFFFFFFFFFFFFFFFFFFFFFFFFFFFFFFFFFFFFFFFFFFFFFFFFFFFFFFFFFFFFFFFFFFFFFFFFFFFFFFFFFFFFFFFFFFFFFFFFFFFFFFFFFFFFFFFFFFFFFFFFFFFFFFFFFFFFFFFFFFFFFFFFF
310
FFFFFFFFFFFFFFFFFFFFFFFFFFFFFFFFFFFFFFFFFFFFFFFFFFFFFFFFFFFFFFFFFFFFFFFFFFFFFFFFFFFFFFFFFFFFFFFFFFFFFFFFFFFFFFFFFFFFFFFFFFFFFFFFFFFFFFFFFFFFFFFFFFFFFFFFFFFFFFFFFFFFFFFFFFFFFFFFFFFFFFFFFFFFFFFFFFFFFFFFFFFFFFFFFFFFFFFFFFFFFFFFFFFFFFFFFFFFFFFFFFFFFFFFFFFFFF
310
FFFFFFFFFFFFFFFFFFFFFFFFFFFFFFFFFFFFFFFFFFFFFFFFFFFFFFFFFFFFFFFFFFFFFFFFFFFFFFFFFFFFFFFFFFFFFFFFFFFFFFFFFFFFFFFFFFFFFFFFFFFFFFFFFFFFFFFFFFFFFFFFFFFFFFFFFFFFFFFFFFFFFFFFFFFFFFFFFFFFFFFFFFFFFFFFFFFFFFFFFFFFFFFFFFFFFFFFFFFFFFFFFFFFFFFFFFFFFFFFFFFFFFFFFFFFFF
310
FFFFFFFFFFFFFFFFFFFFFFFFFFFFFFFFFFFFFFFFFFFFFFFFFFFFFFFFFFFFFFFFFFFFFFFFFFFFFFFFFFFFFFFFFFFFFFFFFFFFFFFFFFFFFFFFFFFFFFFFFFFFFFFFFFFFFFFFFFFFFFFFFFFFFFFFFFFFFFFFFFFFFFFFFFFFFFFFFFFFFFFFFFFFFFFFFFFFFFFFFFFFFFFFFFFFFFFFFFFFFFFFFFFFFFFFFF00FFFFFFFFFFFFFFFFFF
310
00FFFFFF00FF000000FFFF000000FFFF0000FFFFFF0000FFFFFFFFFFFF0000000000000000000000000000000000FFFF000000FFFFFF00FFFFFFFFFFFF0000000000000000000000000000000000FF000000FFFFFFFF00FFFFFFFFFFFFFFFFFF00FFFF0000FFFF00FFFFFF0000000000FF00FFFFFFFFFFFFFFFFFFFFFFFFFF
310
FFFFFFFFFFFFFFFFFFFFFFFFFFFFFFFFFFFFFFFFFFFFFFFFFFFFFFFFFFFFFFFFFFFFFFFFFFFFFFFFFFFFFFFFFFFFFFFFFFFFFFFFFFFFFFFFFFFFFFFFFFFFFFFFFFFFFFFFFFFFFFFFFFFFFFFFFFFFFFFFFFFFFFFFFFFFFFFFFFFFFFFFFFFFFFFFFFFFFFFFFFFFFFFFFFFFFFFFFFFFFFFFFFFFFFFFFFFFFFFFFFFFFFFFFFFFFF
310
FFFFFFFFFFFFFFFFFFFFFFFFFFFFFFFFFFFFFFFFFFFFFFFFFFFFFFFFFFFFFFFFFFFFFFFFFFFFFFFFFFFFFFFFFFFFFFFFFFFFFFFFFFFFFFFFFFFFFFFFFFFFFFFFFFFFFFFFFFFFFFFFFFFFFFFFFFFFFFFFFFFFFFFFFFFFFFFFFFFFFFFFFFFFFFFFFFFFFFFFFFFFFFFFFFFFFFFFFFFFFFFFFFFFFFFFFFFFFFFFFFFFFFFFFFFFFF
310
FFFFFFFFFFFFFFFFFFFFFFFFFFFFFFFFFFFFFFFFFFFFFFFFFFFFFFFFFFFFFFFFFFFFFFFFFFFFFFFFFFFFFFFFFFFFFFFFFFFFFFFFFFFFFFFFFFFFFFFFFFFFFFFFFFFFFFFFFFFFFFFFFFFFFFFFFFFFFFFFFFFFFFFFFFFFFFFFFFFFFFFFFFFFFFFFFFFFFFFFFFFFFFFFFFFFFFFFFFFFFFFFFFFFFFFFFFFFFFFFFFFFFFFFFFFFFF
310
FFFFFFFFFFFFFFFFFFFFFFFFFFFFFFFFFFFFFFFFFFFFFFFFFFFFFFFFFFFFFFFFFFFFFFFFFFFFFFFFFFFFFFFFFFFFFFFFFFFFFFFFFFFFFFFF
102
{BLKREFS
331
5AC
102
}
  0
ENDTAB
  0
ENDSEC
  0
SECTION
  2
BLOCKS
  0
BLOCK
  5
36
330
1E
100
AcDbEntity
  8
0
100
AcDbBlockBegin
  2
*Model_Space
 70
     0
 10
0.0
 20
0.0
 30
0.0
  3
*Model_Space
  1

  0
ENDBLK
  5
37
330
1E
100
AcDbEntity
  8
0
100
AcDbBlockEnd
  0
BLOCK
  5
34
330
1A
100
AcDbEntity
 67
     1
  8
0
100
AcDbBlockBegin
  2
*Paper_Space
 70
     0
 10
0.0
 20
0.0
 30
0.0
  3
*Paper_Space
  1

  0
ENDBLK
  5
35
330
1A
100
AcDbEntity
 67
     1
  8
0
100
AcDbBlockEnd
  0
BLOCK
  5
38
330
22
100
AcDbEntity
  8
0
100
AcDbBlockBegin
  2
6
 70
     0
 10
0.0
 20
0.0
 30
0.0
  3
6
  1

  0
LWPOLYLINE
  5
553
330
22
100
AcDbEntity
  8
0
 62
     7
100
AcDbPolyline
 90
        2
 70
     0
 43
0.01
 10
-1.0
 20
0.0
 10
-0.2
 20
0.0
  0
LWPOLYLINE
  5
554
330
22
100
AcDbEntity
  8
0
 62
     7
100
AcDbPolyline
 90
        2
 70
     0
 43
0.01
 10
0.0
 20
-1.0
 10
0.0
 20
-0.2
  0
ENDBLK
  5
41
330
22
100
AcDbEntity
  8
0
100
AcDbBlockEnd
  0
BLOCK
  5
42
330
23
100
AcDbEntity
  8
0
100
AcDbBlockBegin
  2
1
 70
     0
 10
0.0
 20
0.0
 30
0.0
  3
1
  1

  0
LWPOLYLINE
  5
54A
330
23
100
AcDbEntity
  8
0
 62
     7
100
AcDbPolyline
 90
        2
 70
     0
 43
0.02
 10
0.0
 20
-0.4900000000000001
 42
0.4142135623730951
 10
0.4900000000000001
 20
-0.0000000000000001
 42
0.4142135623730951
  0
LWPOLYLINE
  5
54B
330
23
100
AcDbEntity
  8
0
 62
     7
100
AcDbPolyline
 90
        2
 70
     0
 43
0.25
 10
0.0
 20
-0.125
 42
0.4142135623730951
 10
0.125
 20
0.0
 42
0.4142135623730951
  0
LWPOLYLINE
  5
54C
330
23
100
AcDbEntity
  8
0
 62
     7
100
AcDbPolyline
 90
        2
 70
     0
 43
0.25
 10
0.375
 20
0.0
 42
0.4142135623730951
 10
0.0
 20
0.375
 42
0.4142135623730951
  0
LWPOLYLINE
  5
54D
330
23
100
AcDbEntity
  8
0
 62
     7
100
AcDbPolyline
 90
        2
 70
     0
 43
0.02
 10
0.0
 20
0.4900000000000001
 42
0.4142135623730951
 10
-0.4900000000000001
 20
0.0000000000000001
 42
0.4142135623730951
  0
LWPOLYLINE
  5
54E
330
23
100
AcDbEntity
  8
0
 62
     7
100
AcDbPolyline
 90
        2
 70
     0
 43
0.25
 10
0.0
 20
0.125
 42
0.4142135623730951
 10
-0.125
 20
0.0
 42
0.4142135623730951
  0
LWPOLYLINE
  5
54F
330
23
100
AcDbEntity
  8
0
 62
     7
100
AcDbPolyline
 90
        2
 70
     0
 43
0.25
 10
-0.375
 20
0.0
 42
0.4142135623730951
 10
-0.0000000000000001
 20
-0.375
 42
0.4142135623730951
  0
ENDBLK
  5
5B
330
23
100
AcDbEntity
  8
0
100
AcDbBlockEnd
  0
BLOCK
  5
5C
330
24
100
AcDbEntity
  8
0
100
AcDbBlockBegin
  2
0
 70
     2
 10
0.0
 20
0.0
 30
0.0
  3
0
  1

  0
ATTDEF
  5
5D
330
24
100
AcDbEntity
  8
0
100
AcDbText
 10
0.0
 20
0.0
 30
0.0
 40
1.0
  1

100
AcDbAttributeDefinition
  3
navn
  2
NAME
 70
     0
  0
ATTDEF
  5
5F
330
24
100
AcDbEntity
  8
0
100
AcDbText
 10
10.0
 20
0.0
 30
0.0
 40
1.0
  1

100
AcDbAttributeDefinition
  3
dato
  2
DATE
 70
     0
  0
ATTDEF
  5
60
330
24
100
AcDbEntity
  8
0
100
AcDbText
 10
20.0
 20
0.0
 30
0.0
 40
1.0
  1

100
AcDbAttributeDefinition
  3
lag
  2
LAYER
 70
     1
  0
ENDBLK
  5
61
330
24
100
AcDbEntity
  8
0
100
AcDbBlockEnd
  0
BLOCK
  5
62
330
25
100
AcDbEntity
  8
0
100
AcDbBlockBegin
  2
110-1
 70
     0
 10
0.0
 20
0.0
 30
0.0
  3
110-1
  1
110-1
  0
ARC
  5
6FB
330
25
100
AcDbEntity
  8
110-1MEK
100
AcDbCircle
 10
232.3732573966358
 20
214.39152314978
 30
0.0
 40
6.349999999999999
100
AcDbArc
 50
117.1564214758883
 51
62.84357852411165
  0
ARC
  5
6FC
330
25
100
AcDbEntity
  8
110-1MEK
100
AcDbCircle
 10
232.3732573966358
 20
190.37152314978
 30
0.0
 40
6.5
100
AcDbArc
 50
302.2143194751306
 51
237.7856805248693
  0
LINE
  5
6FD
330
25
100
AcDbEntity
  8
110-1MEK
100
AcDbLine
 10
464.7485496661212
 20
223.28152314978
 30
0.0
 11
151.3732573966358
 21
223.28152314978
 31
0.0
  0
LINE
  5
6FE
330
25
100
AcDbEntity
  8
110-1MEK
100
AcDbLine
 10
41.37325739663575
 20
181.28282314978
 30
0.0
 11
464.7485496661211
 21
181.28282314978
 31
0.0
  0
LWPOLYLINE
  5
6FF
330
25
100
AcDbEntity
  8
115-1T
100
AcDbPolyline
 90
        2
 70
     0
 43
0.4
 10
151.3732573966358
 20
202.2787020490377
 10
367.3684644385531
 20
202.2787020490377
  0
LINE
  5
700
330
25
100
AcDbEntity
  8
110-1MEK
100
AcDbLine
 10
43.37325739663575
 20
183.2828231497799
 30
0.0
 11
151.3732573966358
 21
183.28282314978
 31
0.0
  0
LINE
  5
701
330
25
100
AcDbEntity
  8
110-1MEK
100
AcDbLine
 10
43.37325739663575
 20
221.28282314978
 30
0.0
 11
43.37325739663575
 21
183.2828231497799
 31
0.0
  0
LINE
  5
702
330
25
100
AcDbEntity
  8
110-1MEK
100
AcDbLine
 10
41.37325739663575
 20
223.28282314978
 30
0.0
 11
41.37325739663575
 21
181.28282314978
 31
0.0
  0
POINT
  5
703
330
25
100
AcDbEntity
  8
110-1MEK
  6
ByBlock
 62
     0
100
AcDbPoint
 10
43.37325739663586
 20
183.2828231497798
 30
0.0
  0
POINT
  5
704
330
25
100
AcDbEntity
  8
110-1MEK
  6
ByBlock
 62
     0
100
AcDbPoint
 10
43.37325739663586
 20
183.2828231497798
 30
0.0
  0
POINT
  5
705
330
25
100
AcDbEntity
  8
110-1MEK
  6
ByBlock
 62
     0
100
AcDbPoint
 10
43.37325739663586
 20
183.2828231497798
 30
0.0
  0
POINT
  5
706
330
25
100
AcDbEntity
  8
110-1MEK
  6
ByBlock
 62
     0
100
AcDbPoint
 10
43.37325739663586
 20
183.2828231497798
 30
0.0
  0
POINT
  5
707
330
25
100
AcDbEntity
  8
110-1MEK
  6
ByBlock
 62
     0
100
AcDbPoint
 10
43.37325739663586
 20
186.2828231497798
 30
0.0
  0
POINT
  5
708
330
25
100
AcDbEntity
  8
110-1MEK
  6
ByBlock
 62
     0
100
AcDbPoint
 10
43.37325739663586
 20
191.1328231497799
 30
0.0
  0
POINT
  5
709
330
25
100
AcDbEntity
  8
110-1MEK
  6
ByBlock
 62
     0
100
AcDbPoint
 10
43.37325739663586
 20
189.88282314978
 30
0.0
  0
POINT
  5
70A
330
25
100
AcDbEntity
  8
110-1MEK
  6
ByBlock
 62
     0
100
AcDbPoint
 10
43.37325739663586
 20
189.5828231497798
 30
0.0
  0
LINE
  5
70B
330
25
100
AcDbEntity
  8
110-1MEK
100
AcDbLine
 10
41.37325739663575
 20
223.28282314978
 30
0.0
 11
51.37325739663575
 21
223.28282314978
 31
0.0
  0
LINE
  5
70C
330
25
100
AcDbEntity
  8
110-1MEK
100
AcDbLine
 10
51.37325739663575
 20
221.28282314978
 30
0.0
 11
43.37325739663575
 21
221.28282314978
 31
0.0
  0
LINE
  5
70D
330
25
100
AcDbEntity
  8
110-1MEK
100
AcDbLine
 10
43.37325739663578
 20
221.2800020490377
 30
0.0
 11
43.37325739663578
 21
223.2800020490377
 31
0.0
  0
LINE
  5
70E
330
25
100
AcDbEntity
  8
110-1MEK
100
AcDbLine
 10
51.37325739663575
 20
223.28282314978
 30
0.0
 11
51.37325739663575
 21
221.28282314978
 31
0.0
  0
LINE
  5
70F
330
25
100
AcDbEntity
  8
110-1MEK
100
AcDbLine
 10
157.4749820473979
 20
220.04152314978
 30
0.0
 11
163.2715327458736
 21
220.04152314978
 31
0.0
  0
TEXT
  5
710
330
25
100
AcDbEntity
  8
115-1T
100
AcDbText
 10
158.1945217373251
 20
199.3687006132596
 30
0.0
 40
2.0
  1
IN1
  7
ariab
 72
     1
 11
160.368464438553
 21
199.3687006132596
 31
0.0
100
AcDbText
  0
TEXT
  5
711
330
25
100
AcDbEntity
  8
115-1T
100
AcDbText
 10
158.1945217373251
 20
203.3887034848158
 30
0.0
 40
2.0
  1
IN1
  7
ariab
 72
     1
 11
160.368464438553
 21
203.3887034848158
 31
0.0
100
AcDbText
  0
ARC
  5
712
330
25
100
AcDbEntity
  8
110-1MEK
100
AcDbCircle
 10
160.3732573966358
 20
214.39152314978
 30
0.0
 40
6.349999999999999
100
AcDbArc
 50
117.1564214758883
 51
62.84357852411165
  0
LINE
  5
713
330
25
100
AcDbEntity
  8
110-1MEK
100
AcDbLine
 10
156.9081870755533
 20
184.872133395457
 30
0.0
 11
163.8383277177183
 21
184.872133395457
 31
0.0
  0
ARC
  5
714
330
25
100
AcDbEntity
  8
110-1MEK
100
AcDbCircle
 10
160.3732573966358
 20
190.37152314978
 30
0.0
 40
6.5
100
AcDbArc
 50
302.2143194751306
 51
237.7856805248693
  0
LINE
  5
715
330
25
100
AcDbEntity
  8
110-1MEK
100
AcDbLine
 10
151.3732573966358
 20
181.28152314978
 30
0.0
 11
151.3732573966358
 21
223.28152314978
 31
0.0
  0
ARC
  5
716
330
25
100
AcDbEntity
  8
110-1MEK
100
AcDbCircle
 10
178.3732573966358
 20
190.37152314978
 30
0.0
 40
6.5
100
AcDbArc
 50
302.2143194751306
 51
237.7856805248693
  0
ARC
  5
717
330
25
100
AcDbEntity
  8
110-1MEK
100
AcDbCircle
 10
196.3732573966358
 20
190.37152314978
 30
0.0
 40
6.5
100
AcDbArc
 50
302.2143194751306
 51
237.7856805248693
  0
LWPOLYLINE
  5
718
330
25
100
AcDbEntity
  8
115-1T
100
AcDbPolyline
 90
        2
 70
     0
 43
0.2
 10
205.368464438553
 20
201.2787020490377
 10
205.368464438553
 20
184.78282314978
  0
ARC
  5
719
330
25
100
AcDbEntity
  8
110-1MEK
100
AcDbCircle
 10
214.3732573966357
 20
190.37152314978
 30
0.0
 40
6.5
100
AcDbArc
 50
302.2143194751306
 51
237.7856805248693
  0
LINE
  5
71A
330
25
100
AcDbEntity
  8
110-1MEK
100
AcDbLine
 10
192.9081870755532
 20
184.872133395457
 30
0.0
 11
199.8383277177183
 21
184.872133395457
 31
0.0
  0
LINE
  5
71B
330
25
100
AcDbEntity
  8
110-1MEK
100
AcDbLine
 10
174.9081870755532
 20
184.872133395457
 30
0.0
 11
181.8383277177183
 21
184.872133395457
 31
0.0
  0
LINE
  5
71C
330
25
100
AcDbEntity
  8
110-1MEK
100
AcDbLine
 10
210.9081870755532
 20
184.872133395457
 30
0.0
 11
217.8383277177183
 21
184.872133395457
 31
0.0
  0
LINE
  5
71D
330
25
100
AcDbEntity
  8
110-1MEK
100
AcDbLine
 10
228.9081870755532
 20
184.872133395457
 30
0.0
 11
235.8383277177183
 21
184.872133395457
 31
0.0
  0
ARC
  5
71E
330
25
100
AcDbEntity
  8
110-1MEK
100
AcDbCircle
 10
196.3732573966358
 20
214.39152314978
 30
0.0
 40
6.349999999999999
100
AcDbArc
 50
117.1564214758883
 51
62.84357852411165
  0
ARC
  5
71F
330
25
100
AcDbEntity
  8
110-1MEK
100
AcDbCircle
 10
178.3732573966358
 20
214.39152314978
 30
0.0
 40
6.349999999999999
100
AcDbArc
 50
117.1564214758883
 51
62.84357852411165
  0
TEXT
  5
720
330
25
100
AcDbEntity
  8
115-1T
100
AcDbText
 10
175.4196240565612
 20
203.3887034848158
 30
0.0
 40
2.0
  1
OUT
  7
ariab
 72
     1
 11
178.368464438553
 21
203.3887034848158
 31
0.0
100
AcDbText
  0
TEXT
  5
721
330
25
100
AcDbEntity
  8
115-1T
100
AcDbText
 10
175.4196240565612
 20
199.3687006132596
 30
0.0
 40
2.0
  1
OUT
  7
ariab
 72
     1
 11
178.368464438553
 21
199.3687006132596
 31
0.0
100
AcDbText
  0
TEXT
  5
722
330
25
100
AcDbEntity
  8
115-1T
100
AcDbText
 10
168.0088123239555
 20
204.7791519767824
 30
0.0
 40
3.5
  1
8
  7
ariab
 72
     1
 11
169.368464438553
 21
204.7791519767824
 31
0.0
100
AcDbText
  0
TEXT
  5
723
330
25
100
AcDbEntity
  8
115-1T
100
AcDbText
 10
168.0088123239555
 20
196.3687020490377
 30
0.0
 40
3.5
  1
4
  7
ariab
 72
     1
 11
169.368464438553
 21
196.3687020490377
 31
0.0
100
AcDbText
  0
TEXT
  5
724
330
25
100
AcDbEntity
  8
115-1T
100
AcDbText
 10
194.1945217373252
 20
199.3687006132596
 30
0.0
 40
2.0
  1
IN2
  7
ariab
 72
     1
 11
196.368464438553
 21
199.3687006132596
 31
0.0
100
AcDbText
  0
TEXT
  5
725
330
25
100
AcDbEntity
  8
115-1T
100
AcDbText
 10
194.1945217373252
 20
203.3887034848158
 30
0.0
 40
2.0
  1
IN2
  7
ariab
 72
     1
 11
196.368464438553
 21
203.3887034848158
 31
0.0
100
AcDbText
  0
LINE
  5
726
330
25
100
AcDbEntity
  8
110-1MEK
100
AcDbLine
 10
175.4749820473979
 20
220.04152314978
 30
0.0
 11
181.2715327458736
 21
220.04152314978
 31
0.0
  0
LINE
  5
727
330
25
100
AcDbEntity
  8
110-1MEK
100
AcDbLine
 10
193.4749820473978
 20
220.04152314978
 30
0.0
 11
199.2715327458736
 21
220.04152314978
 31
0.0
  0
LWPOLYLINE
  5
728
330
25
100
AcDbEntity
  8
115-1T
100
AcDbPolyline
 90
        2
 70
     0
 43
0.2
 10
205.368464438553
 20
219.78152314978
 10
205.368464438553
 20
203.2787020490377
  0
ARC
  5
729
330
25
100
AcDbEntity
  8
110-1MEK
100
AcDbCircle
 10
214.3732573966357
 20
214.39152314978
 30
0.0
 40
6.349999999999999
100
AcDbArc
 50
117.1564214758883
 51
62.84357852411165
  0
TEXT
  5
72A
330
25
100
AcDbEntity
  8
115-1T
100
AcDbText
 10
212.1945217373252
 20
199.3687006132596
 30
0.0
 40
2.0
  1
IN1
  7
ariab
 72
     1
 11
214.368464438553
 21
199.3687006132596
 31
0.0
100
AcDbText
  0
TEXT
  5
72B
330
25
100
AcDbEntity
  8
115-1T
100
AcDbText
 10
212.1945217373252
 20
203.3887034848158
 30
0.0
 40
2.0
  1
IN1
  7
ariab
 72
     1
 11
214.368464438553
 21
203.3887034848158
 31
0.0
100
AcDbText
  0
TEXT
  5
72C
330
25
100
AcDbEntity
  8
115-1T
100
AcDbText
 10
222.0088123239555
 20
204.7791519767824
 30
0.0
 40
3.5
  1
7
  7
ariab
 72
     1
 11
223.368464438553
 21
204.7791519767824
 31
0.0
100
AcDbText
  0
TEXT
  5
72D
330
25
100
AcDbEntity
  8
115-1T
100
AcDbText
 10
222.0088123239555
 20
196.3687020490377
 30
0.0
 40
3.5
  1
3
  7
ariab
 72
     1
 11
223.368464438553
 21
196.3687020490377
 31
0.0
100
AcDbText
  0
TEXT
  5
72E
330
25
100
AcDbEntity
  8
115-1T
100
AcDbText
 10
229.4196240565612
 20
199.3687006132596
 30
0.0
 40
2.0
  1
OUT
  7
ariab
 72
     1
 11
232.368464438553
 21
199.3687006132596
 31
0.0
100
AcDbText
  0
TEXT
  5
72F
330
25
100
AcDbEntity
  8
115-1T
100
AcDbText
 10
229.4196240565612
 20
203.3887034848158
 30
0.0
 40
2.0
  1
OUT
  7
ariab
 72
     1
 11
232.368464438553
 21
203.3887034848158
 31
0.0
100
AcDbText
  0
LINE
  5
730
330
25
100
AcDbEntity
  8
110-1MEK
100
AcDbLine
 10
211.4749820473979
 20
220.04152314978
 30
0.0
 11
217.2715327458736
 21
220.04152314978
 31
0.0
  0
LINE
  5
731
330
25
100
AcDbEntity
  8
110-1MEK
100
AcDbLine
 10
229.4749820473978
 20
220.04152314978
 30
0.0
 11
235.2715327458736
 21
220.04152314978
 31
0.0
  0
TEXT
  5
732
330
25
100
AcDbEntity
  8
115-1T
100
AcDbText
 10
377.8852564266298
 20
218.9822611318948
 30
0.0
 40
2.0
  1
REMOTE
  7
ariab
 72
     1
 11
383.861381938226
 21
218.9822611318948
 31
0.0
100
AcDbText
  0
TEXT
  5
733
330
25
100
AcDbEntity
  8
115-1T
100
AcDbText
 10
376.1731145439559
 20
201.9822611318948
 30
0.0
 40
2.0
  1
PT 5210-1/2
  7
ariab
 72
     1
 11
383.861381938226
 21
201.9822611318948
 31
0.0
100
AcDbText
  0
LWPOLYLINE
  5
734
330
25
100
AcDbEntity
  8
110-1MEK
100
AcDbPolyline
 90
        8
 70
     0
 43
0.0
 10
375.1683140844517
 20
215.1867853705329
 10
374.3411897820075
 20
210.5867853705329
 42
0.4673354665998769
 10
377.6875240949306
 20
206.585082232637
 10
390.0352397815213
 20
206.5850822326369
 42
0.4688453271497682
 10
393.3785522175553
 20
210.6033555986009
 10
392.5278816512088
 20
215.2033555986009
 42
0.3616137540369309
 10
389.1845692151748
 20
217.9850822326369
 10
378.5146483973747
 20
217.9850822326369
  0
TEXT
  5
735
330
25
100
AcDbEntity
  8
115-1T
100
AcDbText
 10
375.5680400315699
 20
186.5933195035793
 30
0.0
 40
1.75
  1
90 - 250 
  7
ariab
100
AcDbText
  0
LWPOLYLINE
  5
736
330
25
100
AcDbEntity
  8
115-1T
100
AcDbPolyline
 90
        5
 70
     0
 43
0.175
 10
374.4295857701932
 20
183.2230777502724
 10
374.4295857701934
 20
188.079563016499
 42
-0.4142135623730944
 10
375.1295857701933
 20
188.779563016499
 10
392.5696318423564
 20
188.779563016499
 42
-0.4142135623730951
 10
393.2696318423564
 20
188.079563016499
  0
LWPOLYLINE
  5
737
330
25
100
AcDbEntity
  8
110-1MEK
100
AcDbPolyline
 90
        8
 70
     0
 43
0.0
 10
377.6875240949306
 20
189.585082232637
 10
390.0352397815213
 20
189.585082232637
 42
0.4688453271497682
 10
393.3785522175553
 20
193.6033555986009
 10
392.5278816512088
 20
198.2033555986009
 42
0.3616137540369309
 10
389.1845692151748
 20
200.985082232637
 10
378.5146483973747
 20
200.985082232637
 42
0.3630148289364383
 10
375.1683140844517
 20
198.1867853705329
 10
374.3411897820076
 20
193.586785370533
  0
ARC
  5
738
330
25
100
AcDbEntity
  8
110-1MEK
100
AcDbCircle
 10
304.3732573966358
 20
214.39152314978
 30
0.0
 40
6.349999999999999
100
AcDbArc
 50
117.1564214758883
 51
62.84357852411165
  0
ARC
  5
739
330
25
100
AcDbEntity
  8
110-1MEK
100
AcDbCircle
 10
304.3732573966358
 20
190.37152314978
 30
0.0
 40
6.5
100
AcDbArc
 50
302.2143194751306
 51
237.7856805248693
  0
ARC
  5
73A
330
25
100
AcDbEntity
  8
110-1MEK
100
AcDbCircle
 10
286.3732573966358
 20
190.37152314978
 30
0.0
 40
6.5
100
AcDbArc
 50
302.2143194751306
 51
237.7856805248693
  0
ARC
  5
73B
330
25
100
AcDbEntity
  8
110-1MEK
100
AcDbCircle
 10
268.3732573966358
 20
190.37152314978
 30
0.0
 40
6.5
100
AcDbArc
 50
302.2143194751306
 51
237.7856805248693
  0
ARC
  5
73C
330
25
100
AcDbEntity
  8
110-1MEK
100
AcDbCircle
 10
250.3732573966358
 20
190.37152314978
 30
0.0
 40
6.5
100
AcDbArc
 50
302.2143194751306
 51
237.7856805248693
  0
LWPOLYLINE
  5
73D
330
25
100
AcDbEntity
  8
115-1T
100
AcDbPolyline
 90
        2
 70
     0
 43
0.2
 10
259.368464438553
 20
201.2787020490377
 10
259.368464438553
 20
184.78282314978
  0
LINE
  5
73E
330
25
100
AcDbEntity
  8
110-1MEK
100
AcDbLine
 10
246.9081870755533
 20
184.872133395457
 30
0.0
 11
253.8383277177183
 21
184.872133395457
 31
0.0
  0
LINE
  5
73F
330
25
100
AcDbEntity
  8
110-1MEK
100
AcDbLine
 10
264.9081870755533
 20
184.872133395457
 30
0.0
 11
271.8383277177183
 21
184.872133395457
 31
0.0
  0
LINE
  5
740
330
25
100
AcDbEntity
  8
110-1MEK
100
AcDbLine
 10
282.9081870755533
 20
184.872133395457
 30
0.0
 11
289.8383277177183
 21
184.872133395457
 31
0.0
  0
POINT
  5
741
330
25
100
AcDbEntity
  8
115-1T
  6
ByBlock
 62
     0
100
AcDbPoint
 10
299.1781804642399
 20
181.2787020490377
 30
0.0
  0
LINE
  5
742
330
25
100
AcDbEntity
  8
110-1MEK
100
AcDbLine
 10
300.9081870755533
 20
184.872133395457
 30
0.0
 11
307.8383277177183
 21
184.872133395457
 31
0.0
  0
ARC
  5
743
330
25
100
AcDbEntity
  8
110-1MEK
100
AcDbCircle
 10
268.3732573966358
 20
214.39152314978
 30
0.0
 40
6.349999999999999
100
AcDbArc
 50
117.1564214758883
 51
62.84357852411165
  0
ARC
  5
744
330
25
100
AcDbEntity
  8
110-1MEK
100
AcDbCircle
 10
250.3732573966358
 20
214.39152314978
 30
0.0
 40
6.349999999999999
100
AcDbArc
 50
117.1564214758883
 51
62.84357852411165
  0
LWPOLYLINE
  5
745
330
25
100
AcDbEntity
  8
115-1T
100
AcDbPolyline
 90
        2
 70
     0
 43
0.4
 10
259.368464438553
 20
221.0029083214021
 10
259.368464438553
 20
202.2787020490377
  0
TEXT
  5
746
330
25
100
AcDbEntity
  8
115-1T
100
AcDbText
 10
248.1945217373251
 20
199.3687006132596
 30
0.0
 40
2.0
  1
IN2
  7
ariab
 72
     1
 11
250.368464438553
 21
199.3687006132596
 31
0.0
100
AcDbText
  0
TEXT
  5
747
330
25
100
AcDbEntity
  8
115-1T
100
AcDbText
 10
248.1945217373251
 20
203.3887034848158
 30
0.0
 40
2.0
  1
IN2
  7
ariab
 72
     1
 11
250.368464438553
 21
203.3887034848158
 31
0.0
100
AcDbText
  0
TEXT
  5
748
330
25
100
AcDbEntity
  8
115-1T
100
AcDbText
 10
266.1945217373253
 20
199.3687006132596
 30
0.0
 40
2.0
  1
IN1
  7
ariab
 72
     1
 11
268.3684644385531
 21
199.3687006132596
 31
0.0
100
AcDbText
  0
TEXT
  5
749
330
25
100
AcDbEntity
  8
115-1T
100
AcDbText
 10
266.1945217373253
 20
203.3887034848158
 30
0.0
 40
2.0
  1
IN1
  7
ariab
 72
     1
 11
268.3684644385531
 21
203.3887034848158
 31
0.0
100
AcDbText
  0
LINE
  5
74A
330
25
100
AcDbEntity
  8
110-1MEK
100
AcDbLine
 10
247.4749820473979
 20
220.04152314978
 30
0.0
 11
253.2715327458736
 21
220.04152314978
 31
0.0
  0
LINE
  5
74B
330
25
100
AcDbEntity
  8
110-1MEK
100
AcDbLine
 10
265.4749820473979
 20
220.04152314978
 30
0.0
 11
271.2715327458736
 21
220.04152314978
 31
0.0
  0
ARC
  5
74C
330
25
100
AcDbEntity
  8
110-1MEK
100
AcDbCircle
 10
286.3732573966358
 20
214.39152314978
 30
0.0
 40
6.349999999999999
100
AcDbArc
 50
117.1564214758883
 51
62.84357852411165
  0
TEXT
  5
74D
330
25
100
AcDbEntity
  8
115-1T
100
AcDbText
 10
276.0088123239554
 20
204.7791519767824
 30
0.0
 40
3.5
  1
6
  7
ariab
 72
     1
 11
277.368464438553
 21
204.7791519767824
 31
0.0
100
AcDbText
  0
TEXT
  5
74E
330
25
100
AcDbEntity
  8
115-1T
100
AcDbText
 10
276.0088123239554
 20
196.3687020490377
 30
0.0
 40
3.5
  1
2
  7
ariab
 72
     1
 11
277.368464438553
 21
196.3687020490377
 31
0.0
100
AcDbText
  0
TEXT
  5
74F
330
25
100
AcDbEntity
  8
115-1T
100
AcDbText
 10
283.4196240565613
 20
199.3687006132596
 30
0.0
 40
2.0
  1
OUT
  7
ariab
 72
     1
 11
286.3684644385531
 21
199.3687006132596
 31
0.0
100
AcDbText
  0
TEXT
  5
750
330
25
100
AcDbEntity
  8
115-1T
100
AcDbText
 10
283.4196240565613
 20
203.3887034848158
 30
0.0
 40
2.0
  1
OUT
  7
ariab
 72
     1
 11
286.3684644385531
 21
203.3887034848158
 31
0.0
100
AcDbText
  0
TEXT
  5
751
330
25
100
AcDbEntity
  8
115-1T
100
AcDbText
 10
302.1945217373253
 20
199.3687006132596
 30
0.0
 40
2.0
  1
IN2
  7
ariab
 72
     1
 11
304.3684644385531
 21
199.3687006132596
 31
0.0
100
AcDbText
  0
TEXT
  5
752
330
25
100
AcDbEntity
  8
115-1T
100
AcDbText
 10
302.1945217373253
 20
203.3887034848158
 30
0.0
 40
2.0
  1
IN2
  7
ariab
 72
     1
 11
304.3684644385531
 21
203.3887034848158
 31
0.0
100
AcDbText
  0
LINE
  5
753
330
25
100
AcDbEntity
  8
110-1MEK
100
AcDbLine
 10
283.4749820473979
 20
220.04152314978
 30
0.0
 11
289.2715327458736
 21
220.04152314978
 31
0.0
  0
LINE
  5
754
330
25
100
AcDbEntity
  8
110-1MEK
100
AcDbLine
 10
301.4749820473979
 20
220.04152314978
 30
0.0
 11
307.2715327458736
 21
220.04152314978
 31
0.0
  0
ARC
  5
755
330
25
100
AcDbEntity
  8
110-1MEK
100
AcDbCircle
 10
371.3716450175464
 20
195.285082232637
 30
0.0
 40
1.6
100
AcDbArc
 50
0.0205615941792328
 51
359.6908407815845
  0
ARC
  5
756
330
25
100
AcDbEntity
  8
110-1MEK
100
AcDbCircle
 10
358.3732573966358
 20
190.37152314978
 30
0.0
 40
6.5
100
AcDbArc
 50
302.2143194751306
 51
237.7856805248693
  0
LWPOLYLINE
  5
757
330
25
100
AcDbEntity
  8
115-1T
100
AcDbPolyline
 90
        2
 70
     0
 43
0.4
 10
367.3684644385531
 20
221.0029083214021
 10
367.3684644385531
 20
183.5544957766733
  0
ARC
  5
758
330
25
100
AcDbEntity
  8
110-1MEK
100
AcDbCircle
 10
322.3732573966358
 20
190.37152314978
 30
0.0
 40
6.5
100
AcDbArc
 50
302.2143194751306
 51
237.7856805248693
  0
LWPOLYLINE
  5
759
330
25
100
AcDbEntity
  8
115-1T
100
AcDbPolyline
 90
        2
 70
     0
 43
0.2
 10
313.3684644385531
 20
201.2787020490377
 10
313.3684644385531
 20
184.78282314978
  0
ARC
  5
75A
330
25
100
AcDbEntity
  8
110-1MEK
100
AcDbCircle
 10
340.3732573966358
 20
190.37152314978
 30
0.0
 40
6.5
100
AcDbArc
 50
302.2143194751306
 51
237.7856805248693
  0
POINT
  5
75B
330
25
100
AcDbEntity
  8
115-1T
  6
ByBlock
 62
     0
100
AcDbPoint
 10
317.17818046424
 20
181.2787020490377
 30
0.0
  0
LINE
  5
75C
330
25
100
AcDbEntity
  8
110-1MEK
100
AcDbLine
 10
318.9081870755533
 20
184.872133395457
 30
0.0
 11
325.8383277177183
 21
184.872133395457
 31
0.0
  0
LINE
  5
75D
330
25
100
AcDbEntity
  8
110-1MEK
100
AcDbLine
 10
336.9081870755533
 20
184.872133395457
 30
0.0
 11
343.8383277177183
 21
184.872133395457
 31
0.0
  0
LINE
  5
75E
330
25
100
AcDbEntity
  8
110-1MEK
100
AcDbLine
 10
354.9081870755533
 20
184.872133395457
 30
0.0
 11
361.8383277177183
 21
184.872133395457
 31
0.0
  0
ARC
  5
75F
330
25
100
AcDbEntity
  8
110-1MEK
100
AcDbCircle
 10
377.6875240949306
 20
192.9850822326369
 30
0.0
 40
3.399999999999999
100
AcDbArc
 50
169.8065916638803
 51
270.0
  0
TEXT
  5
760
330
25
100
AcDbEntity
  8
115-1T
100
AcDbText
 10
375.5680400315699
 20
184.3731620232644
 30
0.0
 40
1.75
  1
48 - 65 
  7
ariab
100
AcDbText
  0
ARC
  5
761
330
25
100
AcDbEntity
  8
110-1MEK
100
AcDbCircle
 10
322.3732573966358
 20
214.39152314978
 30
0.0
 40
6.349999999999999
100
AcDbArc
 50
117.1564214758883
 51
62.84357852411165
  0
LWPOLYLINE
  5
762
330
25
100
AcDbEntity
  8
115-1T
100
AcDbPolyline
 90
        2
 70
     0
 43
0.2
 10
313.368464438553
 20
219.78152314978
 10
313.3684644385531
 20
203.2787020490377
  0
ARC
  5
763
330
25
100
AcDbEntity
  8
110-1MEK
100
AcDbCircle
 10
340.3732573966358
 20
214.39152314978
 30
0.0
 40
6.349999999999999
100
AcDbArc
 50
117.1564214758883
 51
62.84357852411165
  0
TEXT
  5
764
330
25
100
AcDbEntity
  8
115-1T
100
AcDbText
 10
320.1945217373253
 20
199.3687006132596
 30
0.0
 40
2.0
  1
IN1
  7
ariab
 72
     1
 11
322.3684644385531
 21
199.3687006132596
 31
0.0
100
AcDbText
  0
TEXT
  5
765
330
25
100
AcDbEntity
  8
115-1T
100
AcDbText
 10
320.1945217373253
 20
203.3887034848158
 30
0.0
 40
2.0
  1
IN1
  7
ariab
 72
     1
 11
322.3684644385531
 21
203.3887034848158
 31
0.0
100
AcDbText
  0
TEXT
  5
766
330
25
100
AcDbEntity
  8
115-1T
100
AcDbText
 10
330.0088123239555
 20
204.7791519767824
 30
0.0
 40
3.5
  1
5
  7
ariab
 72
     1
 11
331.3684644385531
 21
204.7791519767824
 31
0.0
100
AcDbText
  0
TEXT
  5
767
330
25
100
AcDbEntity
  8
115-1T
100
AcDbText
 10
337.4196240565613
 20
203.3887034848158
 30
0.0
 40
2.0
  1
OUT
  7
ariab
 72
     1
 11
340.3684644385531
 21
203.3887034848158
 31
0.0
100
AcDbText
  0
TEXT
  5
768
330
25
100
AcDbEntity
  8
115-1T
100
AcDbText
 10
337.4196240565613
 20
199.3687006132596
 30
0.0
 40
2.0
  1
OUT
  7
ariab
 72
     1
 11
340.3684644385531
 21
199.3687006132596
 31
0.0
100
AcDbText
  0
TEXT
  5
769
330
25
100
AcDbEntity
  8
115-1T
100
AcDbText
 10
330.0088123239555
 20
196.3687020490377
 30
0.0
 40
3.5
  1
1
  7
ariab
 72
     1
 11
331.3684644385531
 21
196.3687020490377
 31
0.0
100
AcDbText
  0
LINE
  5
76A
330
25
100
AcDbEntity
  8
110-1MEK
100
AcDbLine
 10
319.4749820473979
 20
220.04152314978
 30
0.0
 11
325.2715327458736
 21
220.04152314978
 31
0.0
  0
LINE
  5
76B
330
25
100
AcDbEntity
  8
110-1MEK
100
AcDbLine
 10
337.4749820473979
 20
220.04152314978
 30
0.0
 11
343.2715327458736
 21
220.04152314978
 31
0.0
  0
ARC
  5
76C
330
25
100
AcDbEntity
  8
110-1MEK
100
AcDbCircle
 10
358.3732573966358
 20
214.39152314978
 30
0.0
 40
6.349999999999999
100
AcDbArc
 50
117.1564214758883
 51
62.84357852411165
  0
LWPOLYLINE
  5
76D
330
25
100
AcDbEntity
  8
110-1MEK
100
AcDbPolyline
 90
        2
 70
     0
 43
0.0
 10
378.5146483973747
 20
217.985082232637
 42
0.3630148289364383
 10
375.1683140844517
 20
215.1867853705329
 42
0.3630148289364383
  0
TEXT
  5
76E
330
25
100
AcDbEntity
  8
115-1T
100
AcDbText
 10
356.1945217373253
 20
199.3687006132596
 30
0.0
 40
2.0
  1
IN2
  7
ariab
 72
     1
 11
358.3684644385531
 21
199.3687006132596
 31
0.0
100
AcDbText
  0
TEXT
  5
76F
330
25
100
AcDbEntity
  8
115-1T
100
AcDbText
 10
356.1945217373253
 20
203.3887034848158
 30
0.0
 40
2.0
  1
IN2
  7
ariab
 72
     1
 11
358.3684644385531
 21
203.3887034848158
 31
0.0
100
AcDbText
  0
ARC
  5
770
330
25
100
AcDbEntity
  8
110-1MEK
100
AcDbCircle
 10
371.3716450175464
 20
212.285082232637
 30
0.0
 40
1.6
100
AcDbArc
 50
0.0205615941792328
 51
359.6908407815845
  0
LINE
  5
771
330
25
100
AcDbEntity
  8
110-1MEK
100
AcDbLine
 10
355.4749820473979
 20
220.04152314978
 30
0.0
 11
361.2715327458736
 21
220.04152314978
 31
0.0
  0
LINE
  5
772
330
25
100
AcDbEntity
  8
110-1MEK
100
AcDbLine
 10
445.8732573966358
 20
208.03152314978
 30
0.0
 11
458.8732573966358
 21
208.03152314978
 31
0.0
  0
LINE
  5
773
330
25
100
AcDbEntity
  8
110-1MEK
100
AcDbLine
 10
458.8732573966358
 20
188.53152314978
 30
0.0
 11
445.8732573966358
 21
188.53152314978
 31
0.0
  0
LWPOLYLINE
  5
774
330
25
100
AcDbEntity
  8
115-1T
100
AcDbPolyline
 90
        5
 70
     0
 43
0.175
 10
444.0196023757104
 20
183.2230777502724
 10
444.0196023757104
 20
186.0705776974267
 42
-0.4142135623730944
 10
444.7196023757105
 20
186.7705776974267
 10
459.9361957193479
 20
186.7705776974267
 42
-0.4142135623730951
 10
460.6361957193477
 20
186.0705776974267
  0
TEXT
  5
775
330
25
100
AcDbEntity
  8
115-1T
100
AcDbText
 10
444.6580566370871
 20
184.5253314151155
 30
0.0
 40
1.75
  1
30    VA max
  7
ariab
100
AcDbText
  0
LINE
  5
776
330
25
100
AcDbEntity
  8
110-1MEK
100
AcDbLine
 10
445.8732573966358
 20
188.53152314978
 30
0.0
 11
445.8732573966358
 21
208.03152314978
 31
0.0
  0
LINE
  5
777
330
25
100
AcDbEntity
  8
110-1MEK
100
AcDbLine
 10
436.8732573966358
 20
216.28152314978
 30
0.0
 11
436.8732573966358
 21
183.28152314978
 31
0.0
  0
LINE
  5
778
330
25
100
AcDbEntity
  8
110-1MEK
100
AcDbLine
 10
407.8732573966358
 20
183.28152314978
 30
0.0
 11
407.8732573966358
 21
216.28152314978
 31
0.0
  0
ARC
  5
779
330
25
100
AcDbEntity
  8
110-1MEK
100
AcDbCircle
 10
396.3716450175465
 20
195.285082232637
 30
0.0
 40
1.6
100
AcDbArc
 50
0.3514734686615057
 51
0.0206098287879946
  0
LINE
  5
77A
330
25
100
AcDbEntity
  8
110-1MEK
100
AcDbLine
 10
436.8732573966358
 20
183.28152314978
 30
0.0
 11
407.8732573966358
 21
183.28152314978
 31
0.0
  0
LWPOLYLINE
  5
77B
330
25
100
AcDbEntity
  8
115-1T
100
AcDbPolyline
 90
        2
 70
     0
 43
0.175
 10
393.2696318423564
 20
188.079563016499
 10
393.2696318423563
 20
183.2230777502724
 42
-0.4142135623730951
  0
TEXT
  5
77C
330
25
100
AcDbEntity
  8
115-1T
100
AcDbText
 10
385.0613451604638
 20
186.5583195035793
 30
0.0
 40
1.75
  1
 VAC
  7
ariab
100
AcDbText
  0
TEXT
  5
77D
330
25
100
AcDbEntity
  8
115-1T
100
AcDbText
 10
385.0613451604638
 20
184.3731620232644
 30
0.0
 40
1.75
  1
 Hz
  7
ariab
100
AcDbText
  0
TEXT
  5
77E
330
25
100
AcDbEntity
  8
115-1T
100
AcDbText
 10
414.6916895473413
 20
217.8121484533154
 30
0.0
 40
2.0
  1
FUSE 1,6 AT
  7
ariab
 72
     1
 11
422.9979651271503
 21
217.8121484533154
 31
0.0
100
AcDbText
  0
LINE
  5
77F
330
25
100
AcDbEntity
  8
110-1MEK
100
AcDbLine
 10
407.8732573966358
 20
216.28152314978
 30
0.0
 11
436.8732573966358
 21
216.28152314978
 31
0.0
  0
HATCH
  5
780
330
25
100
AcDbEntity
  8
115-1T
100
AcDbHatch
 10
0.0
 20
0.0
 30
0.0
210
0.0
220
0.0
230
1.0
  2
SOLID
 70
     1
 71
     1
 91
        2
 92
        1
 93
        4
 72
     2
 10
399.9790106900902
 20
218.5049974283789
 40
2.499999999999982
 50
84.26082952273317
 51
275.7391704772668
 73
     0
 72
     1
 10
400.2290106900901
 20
220.9924660211455
 11
400.2290106900901
 21
220.2370482359479
 72
     2
 10
399.9790106900902
 20
218.5049974283789
 40
1.750000000000018
 50
81.78678929826189
 51
278.2132107017381
 73
     1
 72
     1
 10
400.2290106900901
 20
216.7729466208101
 11
400.2290106900901
 21
216.0175288356124
 97
        1
330
782
 92
        1
 93
        4
 72
     2
 10
404.2290106900901
 20
218.5049974283789
 40
1.74999999999999
 50
81.78678929826178
 51
278.2132107017381
 73
     0
 72
     1
 10
404.4790106900902
 20
220.2370482359478
 11
404.4790106900902
 21
220.9924660211455
 72
     2
 10
404.2290106900901
 20
218.5049974283789
 40
2.499999999999982
 50
84.26082952273317
 51
275.7391704772668
 73
     1
 72
     1
 10
404.4790106900902
 20
216.0175288356124
 11
404.4790106900902
 21
216.7729466208101
 97
        1
330
781
 75
     0
 76
     1
 98
        1
 10
0.0
 20
0.0
  0
LWPOLYLINE
  5
781
102
{ACAD_REACTORS
330
780
102
}
330
25
100
AcDbEntity
  8
115-1T
 62
     7
100
AcDbPolyline
 90
        4
 70
     1
 43
0.0
 10
404.4790106900902
 20
216.7729466208101
 42
-1.154700538379252
 10
404.4790106900902
 20
220.2370482359478
 10
404.4790106900902
 20
220.9924660211455
 42
1.105541596785133
 10
404.4790106900902
 20
216.0175288356124
  0
LWPOLYLINE
  5
782
102
{ACAD_REACTORS
330
780
102
}
330
25
100
AcDbEntity
  8
115-1T
 62
     7
100
AcDbPolyline
 90
        4
 70
     1
 43
0.0
 10
400.2290106900901
 20
216.0175288356124
 42
-1.105541596785134
 10
400.2290106900901
 20
220.9924660211455
 10
400.2290106900901
 20
220.2370482359479
 42
1.154700538379251
 10
400.2290106900901
 20
216.7729466208101
  0
ARC
  5
783
330
25
100
AcDbEntity
  8
110-1MEK
100
AcDbCircle
 10
396.3716450175465
 20
212.285082232637
 30
0.0
 40
1.6
100
AcDbArc
 50
0.3514734686615057
 51
0.0206098287879946
  0
ARC
  5
784
330
25
100
AcDbEntity
  8
110-1MEK
  6
Continuous
100
AcDbCircle
 10
404.3765450678685
 20
199.7856442505222
 30
0.0
 40
1.5
100
AcDbArc
 50
0.2895622168912925
 51
359.9813821349111
  0
LWPOLYLINE
  5
785
330
25
100
AcDbEntity
  8
115-1T
 62
     7
100
AcDbPolyline
 90
        2
 70
     0
 43
0.7500000000000002
 10
402.1040106900902
 20
218.5049974283789
 10
403.9790106900902
 20
218.5049974283789
  0
LWPOLYLINE
  5
786
330
25
100
AcDbEntity
  8
115-1T
100
AcDbPolyline
 90
        2
 70
     0
 43
0.340859882388008
 10
447.1032983695756
 20
216.2762270120395
 42
738.7061684084105
 10
447.1032583925185
 20
216.261461389743
 42
738.7061684084105
  0
ARC
  5
787
330
25
100
AcDbEntity
  8
110-1MEK
  6
Continuous
100
AcDbCircle
 10
452.3764193104731
 20
216.2790481127831
 30
0.0
 40
2.1
100
AcDbArc
 50
357.1453315948613
 51
357.080681232691
  0
ARC
  5
788
330
25
100
AcDbEntity
  8
110-1MEK
  6
Continuous
100
AcDbCircle
 10
440.3765450678686
 20
199.7856442505222
 30
0.0
 40
1.5
100
AcDbArc
 50
357.1453315948613
 51
357.080681232691
  0
TEXT
  5
789
330
25
100
AcDbEntity
  8
115-1T
100
AcDbText
 10
447.838307923
 20
209.7841547239349
 30
0.0
 40
2.0
  1
MAINS
  7
ariab
 72
     1
 11
452.3396721794802
 21
209.7841547239349
 31
0.0
100
AcDbText
  0
LWPOLYLINE
  5
78A
330
25
100
AcDbEntity
  8
115-1T
100
AcDbPolyline
 90
        2
 70
     0
 43
0.340859882388008
 10
443.5182558573168
 20
214.7398474086628
 10
445.2345827636263
 20
214.7398474086628
  0
LWPOLYLINE
  5
78B
330
25
100
AcDbEntity
  8
115-1T
100
AcDbPolyline
 90
        2
 70
     0
 43
0.340859882388008
 10
442.9199593090239
 20
215.5919971146329
 10
445.8328793119193
 20
215.5919971146329
  0
LWPOLYLINE
  5
78C
330
25
100
AcDbEntity
  8
115-1T
100
AcDbPolyline
 90
        2
 70
     0
 43
0.340859882388008
 10
442.3312600161436
 20
216.4441468206029
 10
446.4215786047995
 20
216.4441468206029
  0
LWPOLYLINE
  5
78D
330
25
100
AcDbEntity
  8
115-1T
100
AcDbPolyline
 90
        2
 70
     0
 43
0.340859882388008
 10
444.3764193104716
 20
216.4441468206029
 10
444.3764193104716
 20
217.6425221897891
  0
LINE
  5
78E
330
25
100
AcDbEntity
  8
110-1MEK
100
AcDbLine
 10
458.8732573966358
 20
208.03152314978
 30
0.0
 11
458.8732573966358
 21
188.53152314978
 31
0.0
  0
LINE
  5
78F
330
25
100
AcDbEntity
  8
110-1MEK
100
AcDbLine
 10
463.3732573966357
 20
223.28282314978
 30
0.0
 11
463.3732573966357
 21
183.2828231497799
 31
0.0
  0
LINE
  5
790
330
25
100
AcDbEntity
  8
110-1MEK
100
AcDbLine
 10
465.3732573966357
 20
181.28282314978
 30
0.0
 11
465.3732573966357
 21
223.28282314978
 31
0.0
  0
LWPOLYLINE
  5
791
330
25
100
AcDbEntity
  8
115-1T
100
AcDbPolyline
 90
        2
 70
     0
 43
0.175
 10
460.6361957193477
 20
186.0705776974267
 10
460.6361957193479
 20
183.2230777502724
 42
-0.4142135623730951
  0
POINT
  5
792
330
25
100
AcDbEntity
  8
115-1T
  6
ByBlock
 62
     0
100
AcDbPoint
 10
462.3096376838171
 20
182.6722445780139
 30
0.0
  0
POINT
  5
793
330
25
100
AcDbEntity
  8
115-1T
  6
ByBlock
 62
     0
100
AcDbPoint
 10
462.3096376838171
 20
182.6722445780139
 30
0.0
  0
ENDBLK
  5
157
330
25
100
AcDbEntity
  8
0
100
AcDbBlockEnd
  0
BLOCK
  5
1CF
330
28
100
AcDbEntity
  8
0
100
AcDbBlockBegin
  2
115-1
 70
     0
 10
0.0
 20
0.0
 30
0.0
  3
115-1
  1
115-1
  0
LWPOLYLINE
  5
608
330
28
100
AcDbEntity
  8
115-1T
100
AcDbPolyline
 90
        2
 70
     0
 43
0.4
 10
151.3732573966358
 20
202.2787020490377
 10
367.3684644385531
 20
202.2787020490377
  0
INSERT
  5
609
330
28
100
AcDbEntity
  8
115-1T
100
AcDbBlockReference
 66
     1
  2
0
 10
188.0118148235475
 20
174.1952618156777
 30
0.0
 41
4.0
 42
4.0
 43
4.0
  0
ATTRIB
  5
60A
330
609
100
AcDbEntity
  8
0
100
AcDbText
 10
188.0118148235475
 20
174.1952618156777
 30
0.0
 40
4.0
  1
APPROVED
100
AcDbAttribute
  2
NAME
 70
     0
  0
ATTRIB
  5
60B
330
609
100
AcDbEntity
  8
0
100
AcDbText
 10
228.0118148235475
 20
174.1952618156777
 30
0.0
 40
4.0
  1
             DATE
100
AcDbAttribute
  2
DATE
 70
     0
  0
ATTRIB
  5
60C
330
609
100
AcDbEntity
  8
0
100
AcDbText
 10
268.0118148235475
 20
174.1952618156777
 30
0.0
 40
4.0
  1
115-1T
100
AcDbAttribute
  2
LAYER
 70
     1
  0
SEQEND
  5
60D
330
609
100
AcDbEntity
  8
115-1T
  0
INSERT
  5
60E
330
28
100
AcDbEntity
  8
115-1T
100
AcDbBlockReference
 66
     1
  2
0
 10
45.96635940497773
 20
174.1952618156777
 30
0.0
 41
4.0
 42
4.0
 43
4.0
  0
ATTRIB
  5
60F
330
60E
100
AcDbEntity
  8
0
100
AcDbText
 10
45.96635940497773
 20
174.1952618156777
 30
0.0
 40
4.0
  1
12703933
100
AcDbAttribute
  2
NAME
 70
     0
  0
ATTRIB
  5
610
330
60E
100
AcDbEntity
  8
0
100
AcDbText
 10
85.96635940497776
 20
174.1952618156777
 30
0.0
 40
4.0
  1
26/05/1997
100
AcDbAttribute
  2
DATE
 70
     0
  0
ATTRIB
  5
611
330
60E
100
AcDbEntity
  8
0
100
AcDbText
 10
125.9663594049777
 20
174.1952618156777
 30
0.0
 40
4.0
  1
115-1T
100
AcDbAttribute
  2
LAYER
 70
     1
  0
SEQEND
  5
612
330
60E
100
AcDbEntity
  8
115-1T
  0
INSERT
  5
613
330
28
100
AcDbEntity
  8
115-1T
100
AcDbBlockReference
  2
6
 10
41.37325739663575
 20
181.28282314978
 30
0.0
 41
4.0
 42
4.0
 43
4.0
  0
INSERT
  5
614
330
28
100
AcDbEntity
  8
115-1T
100
AcDbBlockReference
  2
1
 10
36.37325739663575
 20
200.53282314978
 30
0.0
 41
4.0
 42
4.0
 43
4.0
  0
INSERT
  5
615
330
28
100
AcDbEntity
  8
115-1T
100
AcDbBlockReference
  2
6
 10
41.37325739663575
 20
223.2800020490377
 30
0.0
 41
-4.0
 42
4.0
 43
4.0
 50
180.0
  0
TEXT
  5
616
330
28
100
AcDbEntity
  8
115-1T
100
AcDbText
 10
158.1945217373251
 20
203.3887034848158
 30
0.0
 40
2.0
  1
IN1
  7
ariab
 72
     1
 11
160.368464438553
 21
203.3887034848158
 31
0.0
100
AcDbText
  0
TEXT
  5
617
330
28
100
AcDbEntity
  8
115-1T
100
AcDbText
 10
158.1945217373251
 20
199.3687006132596
 30
0.0
 40
2.0
  1
IN1
  7
ariab
 72
     1
 11
160.368464438553
 21
199.3687006132596
 31
0.0
100
AcDbText
  0
LWPOLYLINE
  5
618
330
28
100
AcDbEntity
  8
115-1T
100
AcDbPolyline
 90
        2
 70
     0
 43
0.2
 10
205.368464438553
 20
201.2787020490377
 10
205.368464438553
 20
184.78282314978
  0
TEXT
  5
619
330
28
100
AcDbEntity
  8
115-1T
100
AcDbText
 10
175.4196240565612
 20
199.3687006132596
 30
0.0
 40
2.0
  1
OUT
  7
ariab
 72
     1
 11
178.368464438553
 21
199.3687006132596
 31
0.0
100
AcDbText
  0
TEXT
  5
61A
330
28
100
AcDbEntity
  8
115-1T
100
AcDbText
 10
175.4196240565612
 20
203.3887034848158
 30
0.0
 40
2.0
  1
OUT
  7
ariab
 72
     1
 11
178.368464438553
 21
203.3887034848158
 31
0.0
100
AcDbText
  0
TEXT
  5
61B
330
28
100
AcDbEntity
  8
115-1T
100
AcDbText
 10
168.0088123239555
 20
204.7791519767824
 30
0.0
 40
3.5
  1
8
  7
ariab
 72
     1
 11
169.368464438553
 21
204.7791519767824
 31
0.0
100
AcDbText
  0
TEXT
  5
61C
330
28
100
AcDbEntity
  8
115-1T
100
AcDbText
 10
168.0088123239555
 20
196.3687020490377
 30
0.0
 40
3.5
  1
4
  7
ariab
 72
     1
 11
169.368464438553
 21
196.3687020490377
 31
0.0
100
AcDbText
  0
TEXT
  5
61D
330
28
100
AcDbEntity
  8
115-1T
100
AcDbText
 10
194.1945217373252
 20
199.3687006132596
 30
0.0
 40
2.0
  1
IN2
  7
ariab
 72
     1
 11
196.368464438553
 21
199.3687006132596
 31
0.0
100
AcDbText
  0
TEXT
  5
61E
330
28
100
AcDbEntity
  8
115-1T
100
AcDbText
 10
194.1945217373252
 20
203.3887034848158
 30
0.0
 40
2.0
  1
IN2
  7
ariab
 72
     1
 11
196.368464438553
 21
203.3887034848158
 31
0.0
100
AcDbText
  0
LWPOLYLINE
  5
61F
330
28
100
AcDbEntity
  8
115-1T
100
AcDbPolyline
 90
        2
 70
     0
 43
0.2
 10
205.368464438553
 20
219.78152314978
 10
205.368464438553
 20
203.2787020490377
  0
TEXT
  5
620
330
28
100
AcDbEntity
  8
115-1T
100
AcDbText
 10
212.1945217373252
 20
199.3687006132596
 30
0.0
 40
2.0
  1
IN1
  7
ariab
 72
     1
 11
214.368464438553
 21
199.3687006132596
 31
0.0
100
AcDbText
  0
TEXT
  5
621
330
28
100
AcDbEntity
  8
115-1T
100
AcDbText
 10
212.1945217373252
 20
203.3887034848158
 30
0.0
 40
2.0
  1
IN1
  7
ariab
 72
     1
 11
214.368464438553
 21
203.3887034848158
 31
0.0
100
AcDbText
  0
TEXT
  5
622
330
28
100
AcDbEntity
  8
115-1T
100
AcDbText
 10
222.0088123239555
 20
204.7791519767824
 30
0.0
 40
3.5
  1
7
  7
ariab
 72
     1
 11
223.368464438553
 21
204.7791519767824
 31
0.0
100
AcDbText
  0
TEXT
  5
623
330
28
100
AcDbEntity
  8
115-1T
100
AcDbText
 10
222.0088123239555
 20
196.3687020490377
 30
0.0
 40
3.5
  1
3
  7
ariab
 72
     1
 11
223.368464438553
 21
196.3687020490377
 31
0.0
100
AcDbText
  0
TEXT
  5
624
330
28
100
AcDbEntity
  8
115-1T
100
AcDbText
 10
229.4196240565612
 20
199.3687006132596
 30
0.0
 40
2.0
  1
OUT
  7
ariab
 72
     1
 11
232.368464438553
 21
199.3687006132596
 31
0.0
100
AcDbText
  0
TEXT
  5
625
330
28
100
AcDbEntity
  8
115-1T
100
AcDbText
 10
229.4196240565612
 20
203.3887034848158
 30
0.0
 40
2.0
  1
OUT
  7
ariab
 72
     1
 11
232.368464438553
 21
203.3887034848158
 31
0.0
100
AcDbText
  0
LWPOLYLINE
  5
626
330
28
100
AcDbEntity
  8
115-1T
100
AcDbPolyline
 90
        5
 70
     0
 43
0.175
 10
374.4295857701932
 20
183.2230777502724
 10
374.4295857701934
 20
188.079563016499
 42
-0.4142135623730944
 10
375.1295857701933
 20
188.779563016499
 10
392.5696318423564
 20
188.779563016499
 42
-0.4142135623730951
 10
393.2696318423564
 20
188.079563016499
  0
TEXT
  5
627
330
28
100
AcDbEntity
  8
115-1T
100
AcDbText
 10
375.5680400315699
 20
186.5933195035793
 30
0.0
 40
1.75
  1
90 - 250 
  7
ariab
100
AcDbText
  0
TEXT
  5
628
330
28
100
AcDbEntity
  8
115-1T
100
AcDbText
 10
376.1731145439559
 20
201.9822611318948
 30
0.0
 40
2.0
  1
PT 5210-1/2
  7
ariab
 72
     1
 11
383.861381938226
 21
201.9822611318948
 31
0.0
100
AcDbText
  0
TEXT
  5
629
330
28
100
AcDbEntity
  8
115-1T
100
AcDbText
 10
377.8852564266298
 20
218.9822611318948
 30
0.0
 40
2.0
  1
REMOTE
  7
ariab
 72
     1
 11
383.861381938226
 21
218.9822611318948
 31
0.0
100
AcDbText
  0
LWPOLYLINE
  5
62A
330
28
100
AcDbEntity
  8
115-1T
100
AcDbPolyline
 90
        2
 70
     0
 43
0.2
 10
259.368464438553
 20
201.2787020490377
 10
259.368464438553
 20
184.78282314978
  0
POINT
  5
62B
330
28
100
AcDbEntity
  8
115-1T
  6
ByBlock
 62
     0
100
AcDbPoint
 10
299.1781804642399
 20
181.2787020490377
 30
0.0
  0
LWPOLYLINE
  5
62C
330
28
100
AcDbEntity
  8
115-1T
100
AcDbPolyline
 90
        2
 70
     0
 43
0.4
 10
259.368464438553
 20
221.0029083214021
 10
259.368464438553
 20
202.2787020490377
  0
TEXT
  5
62D
330
28
100
AcDbEntity
  8
115-1T
100
AcDbText
 10
248.1945217373251
 20
199.3687006132596
 30
0.0
 40
2.0
  1
IN2
  7
ariab
 72
     1
 11
250.368464438553
 21
199.3687006132596
 31
0.0
100
AcDbText
  0
TEXT
  5
62E
330
28
100
AcDbEntity
  8
115-1T
100
AcDbText
 10
248.1945217373251
 20
203.3887034848158
 30
0.0
 40
2.0
  1
IN2
  7
ariab
 72
     1
 11
250.368464438553
 21
203.3887034848158
 31
0.0
100
AcDbText
  0
TEXT
  5
62F
330
28
100
AcDbEntity
  8
115-1T
100
AcDbText
 10
266.1945217373253
 20
199.3687006132596
 30
0.0
 40
2.0
  1
IN1
  7
ariab
 72
     1
 11
268.3684644385531
 21
199.3687006132596
 31
0.0
100
AcDbText
  0
TEXT
  5
630
330
28
100
AcDbEntity
  8
115-1T
100
AcDbText
 10
266.1945217373253
 20
203.3887034848158
 30
0.0
 40
2.0
  1
IN1
  7
ariab
 72
     1
 11
268.3684644385531
 21
203.3887034848158
 31
0.0
100
AcDbText
  0
INSERT
  5
631
330
28
100
AcDbEntity
  8
115-1T
100
AcDbBlockReference
  2
1
 10
253.3732573966357
 20
228.2800020490377
 30
0.0
 41
4.0
 42
4.0
 43
4.0
  0
TEXT
  5
632
330
28
100
AcDbEntity
  8
115-1T
100
AcDbText
 10
276.0088123239554
 20
204.7791519767824
 30
0.0
 40
3.5
  1
6
  7
ariab
 72
     1
 11
277.368464438553
 21
204.7791519767824
 31
0.0
100
AcDbText
  0
TEXT
  5
633
330
28
100
AcDbEntity
  8
115-1T
100
AcDbText
 10
276.0088123239554
 20
196.3687020490377
 30
0.0
 40
3.5
  1
2
  7
ariab
 72
     1
 11
277.368464438553
 21
196.3687020490377
 31
0.0
100
AcDbText
  0
TEXT
  5
634
330
28
100
AcDbEntity
  8
115-1T
100
AcDbText
 10
283.4196240565613
 20
199.3687006132596
 30
0.0
 40
2.0
  1
OUT
  7
ariab
 72
     1
 11
286.3684644385531
 21
199.3687006132596
 31
0.0
100
AcDbText
  0
TEXT
  5
635
330
28
100
AcDbEntity
  8
115-1T
100
AcDbText
 10
283.4196240565613
 20
203.3887034848158
 30
0.0
 40
2.0
  1
OUT
  7
ariab
 72
     1
 11
286.3684644385531
 21
203.3887034848158
 31
0.0
100
AcDbText
  0
TEXT
  5
636
330
28
100
AcDbEntity
  8
115-1T
100
AcDbText
 10
302.1945217373253
 20
199.3687006132596
 30
0.0
 40
2.0
  1
IN2
  7
ariab
 72
     1
 11
304.3684644385531
 21
199.3687006132596
 31
0.0
100
AcDbText
  0
TEXT
  5
637
330
28
100
AcDbEntity
  8
115-1T
100
AcDbText
 10
302.1945217373253
 20
203.3887034848158
 30
0.0
 40
2.0
  1
IN2
  7
ariab
 72
     1
 11
304.3684644385531
 21
203.3887034848158
 31
0.0
100
AcDbText
  0
LWPOLYLINE
  5
638
330
28
100
AcDbEntity
  8
115-1T
100
AcDbPolyline
 90
        2
 70
     0
 43
0.2
 10
313.3684644385531
 20
201.2787020490377
 10
313.3684644385531
 20
184.78282314978
  0
LWPOLYLINE
  5
639
330
28
100
AcDbEntity
  8
115-1T
100
AcDbPolyline
 90
        2
 70
     0
 43
0.4
 10
367.3684644385531
 20
221.0029083214021
 10
367.3684644385531
 20
183.5544957766733
  0
POINT
  5
63A
330
28
100
AcDbEntity
  8
115-1T
  6
ByBlock
 62
     0
100
AcDbPoint
 10
317.17818046424
 20
181.2787020490377
 30
0.0
  0
TEXT
  5
63B
330
28
100
AcDbEntity
  8
115-1T
100
AcDbText
 10
375.5680400315699
 20
184.3731620232644
 30
0.0
 40
1.75
  1
48 - 65 
  7
ariab
100
AcDbText
  0
LWPOLYLINE
  5
63C
330
28
100
AcDbEntity
  8
115-1T
100
AcDbPolyline
 90
        2
 70
     0
 43
0.2
 10
313.368464438553
 20
219.78152314978
 10
313.3684644385531
 20
203.2787020490377
  0
TEXT
  5
63D
330
28
100
AcDbEntity
  8
115-1T
100
AcDbText
 10
320.1945217373253
 20
199.3687006132596
 30
0.0
 40
2.0
  1
IN1
  7
ariab
 72
     1
 11
322.3684644385531
 21
199.3687006132596
 31
0.0
100
AcDbText
  0
TEXT
  5
63E
330
28
100
AcDbEntity
  8
115-1T
100
AcDbText
 10
320.1945217373253
 20
203.3887034848158
 30
0.0
 40
2.0
  1
IN1
  7
ariab
 72
     1
 11
322.3684644385531
 21
203.3887034848158
 31
0.0
100
AcDbText
  0
TEXT
  5
63F
330
28
100
AcDbEntity
  8
115-1T
100
AcDbText
 10
330.0088123239555
 20
204.7791519767824
 30
0.0
 40
3.5
  1
5
  7
ariab
 72
     1
 11
331.3684644385531
 21
204.7791519767824
 31
0.0
100
AcDbText
  0
TEXT
  5
640
330
28
100
AcDbEntity
  8
115-1T
100
AcDbText
 10
337.4196240565613
 20
199.3687006132596
 30
0.0
 40
2.0
  1
OUT
  7
ariab
 72
     1
 11
340.3684644385531
 21
199.3687006132596
 31
0.0
100
AcDbText
  0
TEXT
  5
641
330
28
100
AcDbEntity
  8
115-1T
100
AcDbText
 10
337.4196240565613
 20
203.3887034848158
 30
0.0
 40
2.0
  1
OUT
  7
ariab
 72
     1
 11
340.3684644385531
 21
203.3887034848158
 31
0.0
100
AcDbText
  0
TEXT
  5
642
330
28
100
AcDbEntity
  8
115-1T
100
AcDbText
 10
330.0088123239555
 20
196.3687020490377
 30
0.0
 40
3.5
  1
1
  7
ariab
 72
     1
 11
331.3684644385531
 21
196.3687020490377
 31
0.0
100
AcDbText
  0
TEXT
  5
643
330
28
100
AcDbEntity
  8
115-1T
100
AcDbText
 10
356.1945217373253
 20
203.3887034848158
 30
0.0
 40
2.0
  1
IN2
  7
ariab
 72
     1
 11
358.3684644385531
 21
203.3887034848158
 31
0.0
100
AcDbText
  0
TEXT
  5
644
330
28
100
AcDbEntity
  8
115-1T
100
AcDbText
 10
356.1945217373253
 20
199.3687006132596
 30
0.0
 40
2.0
  1
IN2
  7
ariab
 72
     1
 11
358.3684644385531
 21
199.3687006132596
 31
0.0
100
AcDbText
  0
TEXT
  5
645
330
28
100
AcDbEntity
  8
115-1T
100
AcDbText
 10
444.6580566370871
 20
184.5253314151155
 30
0.0
 40
1.75
  1
30    VA max
  7
ariab
100
AcDbText
  0
LWPOLYLINE
  5
646
330
28
100
AcDbEntity
  8
115-1T
100
AcDbPolyline
 90
        5
 70
     0
 43
0.175
 10
444.0196023757104
 20
183.2230777502724
 10
444.0196023757104
 20
186.0705776974267
 42
-0.4142135623730944
 10
444.7196023757105
 20
186.7705776974267
 10
459.9361957193479
 20
186.7705776974267
 42
-0.4142135623730951
 10
460.6361957193477
 20
186.0705776974267
  0
LWPOLYLINE
  5
647
330
28
100
AcDbEntity
  8
115-1T
100
AcDbPolyline
 90
        2
 70
     0
 43
0.175
 10
393.2696318423564
 20
188.079563016499
 10
393.2696318423563
 20
183.2230777502724
 42
-0.4142135623730951
  0
TEXT
  5
648
330
28
100
AcDbEntity
  8
115-1T
100
AcDbText
 10
385.0613451604638
 20
186.5583195035793
 30
0.0
 40
1.75
  1
 VAC
  7
ariab
100
AcDbText
  0
TEXT
  5
649
330
28
100
AcDbEntity
  8
115-1T
100
AcDbText
 10
385.0613451604638
 20
184.3731620232644
 30
0.0
 40
1.75
  1
 Hz
  7
ariab
100
AcDbText
  0
INSERT
  5
64A
330
28
100
AcDbEntity
  8
115-1T
100
AcDbBlockReference
 66
     1
  2
0
 10
433.5926221476565
 20
174.1952618156777
 30
0.0
 41
4.0
 42
4.0
 43
4.0
  0
ATTRIB
  5
64B
330
64A
100
AcDbEntity
  8
0
100
AcDbText
 10
433.5926221476565
 20
174.1952618156777
 30
0.0
 40
4.0
  1
115-1T
100
AcDbAttribute
  2
NAME
 70
     0
  0
ATTRIB
  5
64C
330
64A
100
AcDbEntity
  8
0
100
AcDbText
 10
473.5926221476566
 20
174.1952618156777
 30
0.0
 40
4.0
  1

100
AcDbAttribute
  2
DATE
 70
     0
  0
ATTRIB
  5
64D
330
64A
100
AcDbEntity
  8
0
100
AcDbText
 10
513.5926221476567
 20
174.1952618156777
 30
0.0
 40
4.0
  1

100
AcDbAttribute
  2
LAYER
 70
     1
  0
SEQEND
  5
64E
330
64A
100
AcDbEntity
  8
115-1T
  0
TEXT
  5
64F
330
28
100
AcDbEntity
  8
115-1T
100
AcDbText
 10
414.6916895473413
 20
217.8121484533154
 30
0.0
 40
2.0
  1
FUSE 1,6 AT
  7
ariab
 72
     1
 11
422.9979651271503
 21
217.8121484533154
 31
0.0
100
AcDbText
  0
HATCH
  5
650
330
28
100
AcDbEntity
  8
115-1T
100
AcDbHatch
 10
0.0
 20
0.0
 30
0.0
210
0.0
220
0.0
230
1.0
  2
SOLID
 70
     1
 71
     1
 91
        2
 92
        1
 93
        4
 72
     2
 10
399.9790106900902
 20
218.5049974283789
 40
2.499999999999982
 50
84.26082952273317
 51
275.7391704772668
 73
     0
 72
     1
 10
400.2290106900901
 20
220.9924660211455
 11
400.2290106900901
 21
220.2370482359479
 72
     2
 10
399.9790106900902
 20
218.5049974283789
 40
1.750000000000018
 50
81.78678929826189
 51
278.2132107017381
 73
     1
 72
     1
 10
400.2290106900901
 20
216.7729466208101
 11
400.2290106900901
 21
216.0175288356124
 97
        1
330
651
 92
        1
 93
        4
 72
     2
 10
404.2290106900901
 20
218.5049974283789
 40
1.74999999999999
 50
81.78678929826178
 51
278.2132107017381
 73
     0
 72
     1
 10
404.4790106900902
 20
220.2370482359478
 11
404.4790106900902
 21
220.9924660211455
 72
     2
 10
404.2290106900901
 20
218.5049974283789
 40
2.499999999999982
 50
84.26082952273317
 51
275.7391704772668
 73
     1
 72
     1
 10
404.4790106900902
 20
216.0175288356124
 11
404.4790106900902
 21
216.7729466208101
 97
        1
330
652
 75
     0
 76
     1
 98
        1
 10
0.0
 20
0.0
  0
LWPOLYLINE
  5
651
102
{ACAD_REACTORS
330
650
102
}
330
28
100
AcDbEntity
  8
115-1T
 62
     7
100
AcDbPolyline
 90
        4
 70
     1
 43
0.0
 10
400.2290106900901
 20
216.0175288356124
 42
-1.105541596785134
 10
400.2290106900901
 20
220.9924660211455
 10
400.2290106900901
 20
220.2370482359479
 42
1.154700538379251
 10
400.2290106900901
 20
216.7729466208101
  0
LWPOLYLINE
  5
652
102
{ACAD_REACTORS
330
650
102
}
330
28
100
AcDbEntity
  8
115-1T
 62
     7
100
AcDbPolyline
 90
        4
 70
     1
 43
0.0
 10
404.4790106900902
 20
216.7729466208101
 42
-1.154700538379252
 10
404.4790106900902
 20
220.2370482359478
 10
404.4790106900902
 20
220.9924660211455
 42
1.105541596785133
 10
404.4790106900902
 20
216.0175288356124
  0
LWPOLYLINE
  5
653
330
28
100
AcDbEntity
  8
115-1T
 62
     7
100
AcDbPolyline
 90
        2
 70
     0
 43
0.7500000000000002
 10
402.1040106900902
 20
218.5049974283789
 10
403.9790106900902
 20
218.5049974283789
  0
LWPOLYLINE
  5
654
330
28
100
AcDbEntity
  8
115-1T
100
AcDbPolyline
 90
        2
 70
     0
 43
0.340859882388008
 10
447.1032983695756
 20
216.2762270120395
 42
738.7061684084105
 10
447.1032583925185
 20
216.261461389743
 42
738.7061684084105
  0
TEXT
  5
655
330
28
100
AcDbEntity
  8
115-1T
100
AcDbText
 10
447.838307923
 20
209.7841547239349
 30
0.0
 40
2.0
  1
MAINS
  7
ariab
 72
     1
 11
452.3396721794802
 21
209.7841547239349
 31
0.0
100
AcDbText
  0
LWPOLYLINE
  5
656
330
28
100
AcDbEntity
  8
115-1T
100
AcDbPolyline
 90
        2
 70
     0
 43
0.340859882388008
 10
442.3312600161436
 20
216.4441468206029
 10
446.4215786047995
 20
216.4441468206029
  0
LWPOLYLINE
  5
657
330
28
100
AcDbEntity
  8
115-1T
100
AcDbPolyline
 90
        2
 70
     0
 43
0.340859882388008
 10
442.9199593090239
 20
215.5919971146329
 10
445.8328793119193
 20
215.5919971146329
  0
LWPOLYLINE
  5
658
330
28
100
AcDbEntity
  8
115-1T
100
AcDbPolyline
 90
        2
 70
     0
 43
0.340859882388008
 10
443.5182558573168
 20
214.7398474086628
 10
445.2345827636263
 20
214.7398474086628
  0
LWPOLYLINE
  5
659
330
28
100
AcDbEntity
  8
115-1T
100
AcDbPolyline
 90
        2
 70
     0
 43
0.340859882388008
 10
444.3764193104716
 20
216.4441468206029
 10
444.3764193104716
 20
217.6425221897891
  0
LWPOLYLINE
  5
65A
330
28
100
AcDbEntity
  8
115-1T
100
AcDbPolyline
 90
        2
 70
     0
 43
0.175
 10
460.6361957193477
 20
186.0705776974267
 10
460.6361957193479
 20
183.2230777502724
 42
-0.4142135623730951
  0
INSERT
  5
65B
330
28
100
AcDbEntity
  8
115-1T
100
AcDbBlockReference
  2
6
 10
465.3732573966357
 20
181.28282314978
 30
0.0
 41
-4.0
 42
4.0
 43
4.0
  0
POINT
  5
65C
330
28
100
AcDbEntity
  8
115-1T
  6
ByBlock
 62
     0
100
AcDbPoint
 10
462.3096376838171
 20
182.6722445780139
 30
0.0
  0
POINT
  5
65D
330
28
100
AcDbEntity
  8
115-1T
  6
ByBlock
 62
     0
100
AcDbPoint
 10
462.3096376838171
 20
182.6722445780139
 30
0.0
  0
INSERT
  5
65E
330
28
100
AcDbEntity
  8
115-1T
100
AcDbBlockReference
  2
1
 10
470.3732573966357
 20
200.53282314978
 30
0.0
 41
-4.0
 42
4.0
 43
4.0
  0
INSERT
  5
65F
330
28
100
AcDbEntity
  8
115-1T
100
AcDbBlockReference
  2
6
 10
465.3732573966357
 20
223.2800020490377
 30
0.0
 41
4.0
 42
4.0
 43
4.0
 50
180.0
  0
ENDBLK
  5
26D
330
28
100
AcDbEntity
  8
0
100
AcDbBlockEnd
  0
ENDSEC
  0
SECTION
  2
ENTITIES
  0
INSERT
  5
279
330
1E
100
AcDbEntity
  8
110-1
100
AcDbBlockReference
  2
110-1
 10
0.0
 20
0.0
 30
0.0
 41
0.85
 42
0.85
 43
0.85
  0
LINE
  5
27A
330
1E
100
AcDbEntity
  8
110-1
100
AcDbLine
 10
410.0
 20
287.0
 30
0.0
 11
20.0
 21
287.0
 31
0.0
  0
LINE
  5
27B
330
1E
100
AcDbEntity
  8
110-1
100
AcDbLine
 10
20.0
 20
10.0
 30
0.0
 11
410.0
 21
10.0
 31
0.0
  0
LWPOLYLINE
  5
27C
330
1E
100
AcDbEntity
  8
110-1
100
AcDbPolyline
 90
        2
 70
     0
 43
0.0
 10
410.0
 20
18.0
 10
230.0
 20
18.0
  0
LWPOLYLINE
  5
280
330
1E
100
AcDbEntity
  8
110-1
100
AcDbPolyline
 90
        2
 70
     0
 43
0.0
 10
230.0
 20
53.0
 10
410.0
 20
53.0
  0
TEXT
  5
284
330
1E
100
AcDbEntity
  8
110-1
100
AcDbText
 10
231.00017053206
 20
35.37457366984993
 30
0.0
 40
1.25
  1
CLASS NO.       KLASSE NR.
 72
     4
 11
242.5
 21
36.0
 31
0.0
100
AcDbText
  0
TEXT
  5
286
330
1E
100
AcDbEntity
  8
110-1
100
AcDbText
 10
233.4336630286494
 20
48.86417322834645
 30
0.0
 40
1.25
  1
SKALA
 72
     1
 11
236.25
 21
48.86417322834645
 31
0.0
100
AcDbText
  0
TEXT
  5
287
330
1E
100
AcDbEntity
  8
110-1
100
AcDbText
 10
233.3867667121418
 20
51.0
 30
0.0
 40
1.25
  1
SCALE
 72
     1
 11
236.25
 21
51.0
 31
0.0
100
AcDbText
  0
TEXT
  5
288
330
1E
100
AcDbEntity
  8
110-1
100
AcDbText
 10
233.1454638472032
 20
63.86417322834645
 30
0.0
 40
1.25
  1
RUHED
 72
     1
 11
236.25
 21
63.86417322834645
 31
0.0
100
AcDbText
  0
TEXT
  5
289
330
1E
100
AcDbEntity
  8
110-1
100
AcDbText
 10
230.6224420190996
 20
66.0
 30
0.0
 40
1.25
  1
ROUGHNESS
 72
     1
 11
236.25
 21
66.0
 31
0.0
100
AcDbText
  0
LWPOLYLINE
  5
28A
330
1E
100
AcDbEntity
  8
110-1
100
AcDbPolyline
 90
        2
 70
     0
 43
0.0
 10
230.0
 20
14.0
 10
410.0
 20
14.0
  0
LWPOLYLINE
  5
28E
330
1E
100
AcDbEntity
  8
110-1
100
AcDbPolyline
 90
        5
 70
     0
 43
0.5
 10
230.0
 20
18.0
 10
255.0
 20
18.0
 10
255.0
 20
30.0
 10
230.0
 20
30.0
 10
230.0
 20
18.0
  0
LWPOLYLINE
  5
295
330
1E
100
AcDbEntity
  8
110-1
100
AcDbPolyline
 90
        2
 70
     0
 43
0.0
 10
230.0
 20
22.0
 10
255.0
 20
22.0
  0
LWPOLYLINE
  5
299
330
1E
100
AcDbEntity
  8
110-1
100
AcDbPolyline
 90
        2
 70
     0
 43
0.0
 10
230.0
 20
26.0
 10
255.0
 20
26.0
  0
LWPOLYLINE
  5
29D
330
1E
100
AcDbEntity
  8
110-1
100
AcDbPolyline
 90
        2
 70
     0
 43
0.0
 10
230.0
 20
80.0
 10
410.0
 20
80.0
  0
TEXT
  5
2A1
330
1E
100
AcDbEntity
  8
110-1
100
AcDbText
 10
232.0
 20
70.0
 30
0.0
 40
1.25
  1
. . R    IN MICROMETERS
100
AcDbText
  0
ARC
  5
2A2
330
1E
100
AcDbEntity
  8
110-1
100
AcDbCircle
 10
237.7499999999999
 20
74.0
 30
0.0
 40
3.605551275464018
100
AcDbArc
 50
59.83824471807211
 51
119.8382447180721
  0
LWPOLYLINE
  5
2A3
330
1E
100
AcDbEntity
  8
110-1
100
AcDbPolyline
 90
        3
 70
     0
 43
0.0
 10
236.1519237886466
 20
77.23205080756888
 10
237.7499999999999
 20
74.0
 10
240.8685888495278
 20
79.36650848224347
  0
LWPOLYLINE
  5
2A8
330
1E
100
AcDbEntity
  8
110-1
100
AcDbPolyline
 90
        2
 70
     0
 43
0.0
 10
230.0
 20
10.0
 10
410.0
 20
10.0
  0
LWPOLYLINE
  5
2AC
330
1E
100
AcDbEntity
  8
110-1
100
AcDbPolyline
 90
        2
 70
     0
 43
0.0
 10
230.0
 20
68.0
 10
410.0
 20
68.0
  0
LWPOLYLINE
  5
2B0
330
1E
100
AcDbEntity
  8
110-1
100
AcDbPolyline
 90
        2
 70
     0
 43
0.0
 10
230.0
 20
38.0
 10
410.0
 20
38.0
  0
TEXT
  5
2C4
330
1E
100
AcDbEntity
  8
110-1
100
AcDbText
 10
9.28571428571429
 20
112.7141882673942
 30
0.0
 40
2.0
  1
PROPERTY OF PROTELEVISION TECHNOLOGIES A/S
 50
90.0
 72
     1
 11
9.285714285714291
 21
148.5
 31
0.0
100
AcDbText
  0
LINE
  5
2C5
330
1E
100
AcDbEntity
  8
110-1
100
AcDbLine
 10
20.0
 20
287.0
 30
0.0
 11
20.0
 21
10.0
 31
0.0
  0
TEXT
  5
2CA
330
1E
100
AcDbEntity
  8
110-1
100
AcDbText
 10
12.7142857142857
 20
125.6009549795361
 30
0.0
 40
2.0
  1
ALL RIGHTS STRICLY RESERVED.
 50
90.0
 72
     1
 11
12.7142857142857
 21
148.5
 31
0.0
100
AcDbText
  0
TEXT
  5
2CB
330
1E
100
AcDbEntity
  8
110-1
100
AcDbText
 10
234.6336749910042
 20
69.24320691858551
 30
0.0
 40
1.25
  1
A
100
AcDbText
  0
LWPOLYLINE
  5
2CC
330
1E
100
AcDbEntity
  8
110-1
100
AcDbPolyline
 90
        2
 70
     0
 43
0.0
 10
230.0
 20
80.0
 10
230.0
 20
10.0
  0
TEXT
  5
2D0
330
1E
100
AcDbEntity
  8
110-1
100
AcDbText
 10
231.02805420544
 20
14.4370630058952
 30
0.0
 40
1.249999999999999
  1
NAVN
100
AcDbText
  0
TEXT
  5
2D1
330
1E
100
AcDbEntity
  8
110-1
100
AcDbText
 10
231.02805420544
 20
16.17553048701874
 30
0.0
 40
1.249999999999999
  1
NAME
100
AcDbText
  0
TEXT
  5
2D2
330
1E
100
AcDbEntity
  8
110-1
100
AcDbText
 10
235.0
 20
78.0
 30
0.0
 40
1.25
  1
. .
100
AcDbText
  0
LINE
  5
2FB
330
1E
100
AcDbEntity
  8
110-1
100
AcDbLine
 10
410.0
 20
10.0
 30
0.0
 11
410.0
 21
287.0
 31
0.0
  0
LWPOLYLINE
  5
2FC
330
1E
100
AcDbEntity
  8
110-1
100
AcDbPolyline
 90
        4
 70
     1
 43
0.5
 10
335.0
 20
14.0
 10
410.0
 20
14.0
 10
410.0
 20
38.0
 10
335.0
 20
38.0
  0
LWPOLYLINE
  5
302
330
1E
100
AcDbEntity
  8
110-1
100
AcDbPolyline
 90
        2
 70
     0
 43
0.0
 10
383.0
 20
22.0
 10
410.0
 20
22.0
  0
LWPOLYLINE
  5
306
330
1E
100
AcDbEntity
  8
110-1
100
AcDbPolyline
 90
        2
 70
     0
 43
0.0
 10
383.0
 20
26.0
 10
410.0
 20
26.0
  0
LWPOLYLINE
  5
30A
330
1E
100
AcDbEntity
  8
110-1
100
AcDbPolyline
 90
        2
 70
     0
 43
0.0
 10
383.0
 20
30.0
 10
410.0
 20
30.0
  0
LWPOLYLINE
  5
30E
330
1E
100
AcDbEntity
  8
110-1
100
AcDbPolyline
 90
        2
 70
     0
 43
0.0
 10
383.0
 20
34.0
 10
410.0
 20
34.0
  0
TEXT
  5
312
330
1E
100
AcDbEntity
  8
110-1
100
AcDbText
 10
367.2268076398363
 20
50.37457366984993
 30
0.0
 40
1.25
  1
ORDER NO.          ORDRE NR.
 72
     4
 11
379.4999999999999
 21
51.0
 31
0.0
100
AcDbText
  0
TEXT
  5
313
330
1E
100
AcDbEntity
  8
110-1
100
AcDbText
 10
325.6226125511596
 20
11.26873167116047
 30
0.0
 40
1.5
  1
ProTeleVision Technologies A/S - Skelmarksvej 4 - DK-2605 Brndby
 72
     4
 11
358.0
 21
11.81102362204724
 31
0.0
100
AcDbText
  0
LWPOLYLINE
  5
314
330
1E
100
AcDbEntity
  8
110-1
100
AcDbPolyline
 90
        2
 70
     0
 43
0.0
 10
351.0
 20
76.0
 10
410.0
 20
76.0
  0
LWPOLYLINE
  5
318
330
1E
100
AcDbEntity
  8
110-1
100
AcDbPolyline
 90
        2
 70
     0
 43
0.0
 10
361.0
 20
49.0
 10
410.0
 20
49.0
  0
LWPOLYLINE
  5
31C
330
1E
100
AcDbEntity
  8
110-1
100
AcDbPolyline
 90
        2
 70
     0
 43
0.0
 10
361.0905294119906
 20
64.00669696654226
 10
410.0905294119907
 20
64.00669696654226
  0
LWPOLYLINE
  5
320
330
1E
100
AcDbEntity
  8
110-1
100
AcDbPolyline
 90
        2
 70
     0
 43
0.0
 10
351.0
 20
72.0
 10
410.0
 20
72.0
  0
TEXT
  5
324
330
1E
100
AcDbEntity
  8
110-1
100
AcDbText
 10
364.5575545702592
 20
69.37457366984993
 30
0.0
 40
1.25
  1
ASSEMBLY NO.         SAMLINGS NR.
 72
     4
 11
379.4999999999999
 21
70.0
 31
0.0
100
AcDbText
  0
TEXT
  5
325
330
1E
100
AcDbEntity
  8
110-1
100
AcDbText
 10
372.8384208731241
 20
65.37949492969246
 30
0.0
 40
1.25
  1
PATTERN NO.        MODEL NR.
 72
     4
 11
385.5
 21
66.00492125984252
 31
0.0
100
AcDbText
  0
TEXT
  5
326
330
1E
100
AcDbEntity
  8
110-1
100
AcDbText
 10
340.1222111527
 20
69.04043114886028
 30
0.0
 40
1.25
  1
ISO 5459
100
AcDbText
  0
LWPOLYLINE
  5
327
330
1E
100
AcDbEntity
  8
110-1
100
AcDbPolyline
 90
        2
 70
     0
 43
0.0
 10
320.5
 20
80.0
 10
320.5
 20
68.0
  0
LWPOLYLINE
  5
32B
330
1E
100
AcDbEntity
  8
110-1
100
AcDbPolyline
 90
        2
 70
     0
 43
0.0
 10
273.4999999999999
 20
80.0
 10
273.4999999999999
 20
68.0
  0
LWPOLYLINE
  5
32F
330
1E
100
AcDbEntity
  8
110-1
100
AcDbPolyline
 90
        2
 70
     0
 43
0.0
 10
351.0
 20
80.0
 10
351.0
 20
68.0
  0
LWPOLYLINE
  5
333
330
1E
100
AcDbEntity
  8
110-1
100
AcDbPolyline
 90
        2
 70
     0
 43
0.0
 10
361.0
 20
80.0
 10
361.0
 20
38.0
  0
LWPOLYLINE
  5
337
330
1E
100
AcDbEntity
  8
110-1
100
AcDbPolyline
 90
        2
 70
     0
 43
0.0
 10
297.0
 20
74.0
 10
297.0
 20
68.0
  0
TEXT
  5
33B
330
1E
100
AcDbEntity
  8
110-1
 62
    14
100
AcDbText
 10
263.3103823457474
 20
59.77141777753788
 30
0.0
 40
3.5
  1
115-1 (film) + 4008 107 58580 sh.110-1
100
AcDbText
  0
TEXT
  5
33D
330
1E
100
AcDbEntity
  8
110-1
 62
    14
100
AcDbText
 10
262.0
 20
25.0
 30
0.0
 40
3.5
  1
printed      PT5211
100
AcDbText
  0
TEXT
  5
33E
330
1E
100
AcDbEntity
  8
110-1
 62
    14
100
AcDbText
 10
262.0
 20
30.0
 30
0.0
 40
3.5
  1
Text plate rear
100
AcDbText
  0
TEXT
  5
33F
330
1E
100
AcDbEntity
  8
110-1
100
AcDbText
 10
253.856761589515
 20
10.44573543866218
 30
0.0
 40
1.25
  1
KONTROL
100
AcDbText
  0
LWPOLYLINE
  5
340
330
1E
100
AcDbEntity
  8
110-1
100
AcDbPolyline
 90
        2
 70
     0
 43
0.0
 10
253.0
 20
14.0
 10
253.0
 20
10.0
  0
LWPOLYLINE
  5
344
330
1E
100
AcDbEntity
  8
110-1
100
AcDbPolyline
 90
        2
 70
     0
 43
0.0
 10
238.0
 20
14.0
 10
238.0
 20
10.0
  0
LWPOLYLINE
  5
348
330
1E
100
AcDbEntity
  8
110-1
100
AcDbPolyline
 90
        2
 70
     0
 43
0.0
 10
306.0
 20
10.0
 10
306.0
 20
14.0
  0
TEXT
  5
34C
330
1E
100
AcDbEntity
  8
110-1
100
AcDbText
 10
276.5045798919664
 20
11.37499999999999
 30
0.0
 40
1.25
  1
DAT
 72
     4
 11
278.2508281866458
 21
12.0
 31
0.0
100
AcDbText
  0
LWPOLYLINE
  5
34D
330
1E
100
AcDbEntity
  8
110-1
100
AcDbPolyline
 90
        2
 70
     0
 43
0.0
 10
275.0
 20
18.0
 10
275.0
 20
10.0
  0
LINE
  5
351
330
1E
100
AcDbEntity
  8
110-1
100
AcDbLine
 10
253.0
 20
14.0
 30
0.0
 11
253.0
 21
10.0
 31
0.0
  0
TEXT
  5
352
330
1E
100
AcDbEntity
  8
110-1
 62
    14
100
AcDbText
 10
282.0
 20
11.0
 30
0.0
 40
2.5
  1
97-02-26
100
AcDbText
  0
TEXT
  5
353
330
1E
100
AcDbEntity
  8
110-1
 62
    14
100
AcDbText
 10
240.0
 20
11.0
 30
0.0
 40
2.5
  1
DOC
100
AcDbText
  0
TEXT
  5
355
330
1E
100
AcDbEntity
  8
110-1
100
AcDbText
 10
259.8662853914407
 20
39.857561839089
 30
0.0
 40
1.25
  1
BEHANDLING
 50
90.0
 72
     4
 11
259.2412853914407
 21
45.53414778724726
 31
0.0
100
AcDbText
  0
TEXT
  5
356
330
1E
100
AcDbEntity
  8
110-1
100
AcDbText
 10
257.7304586197872
 20
40.19862595914358
 30
0.0
 40
1.25
  1
TREATMENT
 50
90.0
 72
     4
 11
257.1054586197872
 21
45.53414778724726
 31
0.0
100
AcDbText
  0
LWPOLYLINE
  5
357
330
1E
100
AcDbEntity
  8
110-1
  6
CENTER
 62
     2
100
AcDbPolyline
 90
        2
 70
     0
 43
0.02
 10
251.0
 20
46.0
 10
251.0
 20
40.0
  0
LWPOLYLINE
  5
35B
330
1E
100
AcDbEntity
  8
110-1
100
AcDbPolyline
 90
        5
 70
     0
 43
0.5
 10
244.0
 20
42.0
 10
248.0
 20
41.0
 10
248.0
 20
45.0
 10
244.0
 20
44.0
 10
244.0
 20
42.0
  0
LWPOLYLINE
  5
362
330
1E
100
AcDbEntity
  8
110-1
100
AcDbPolyline
 90
        2
 70
     0
 43
0.0
 10
242.5
 20
38.0
 10
242.5
 20
68.0
  0
LWPOLYLINE
  5
366
330
1E
100
AcDbEntity
  8
110-1
100
AcDbPolyline
 90
        2
 70
     0
 43
0.0
 10
255.0
 20
68.0
 10
255.0
 20
18.0
  0
TEXT
  5
36A
330
1E
100
AcDbEntity
  8
110-1
100
AcDbText
 10
253.856761589515
 20
12.22404764596113
 30
0.0
 40
1.25
  1
CHECK
100
AcDbText
  0
LWPOLYLINE
  5
36B
330
1E
100
AcDbEntity
  8
110-1
100
AcDbPolyline
 90
        2
 70
     0
 43
0.0
 10
250.0
 20
30.0
 10
250.0
 20
18.0
  0
TEXT
  5
36F
330
1E
100
AcDbEntity
  8
110-1
 62
    14
100
AcDbText
 10
239.0
 20
15.0
 30
0.0
 40
2.5
  1
G.K.
100
AcDbText
  0
LINE
  5
370
330
1E
100
AcDbEntity
  8
110-1
100
AcDbLine
 10
255.0
 20
67.0
 30
0.0
 11
255.0
 21
50.0
 31
0.0
  0
TEXT
  5
371
330
1E
100
AcDbEntity
  8
110-1
100
AcDbText
 10
247.2953615279672
 20
54.3740157480315
 30
0.0
 40
1.25
  1
MM
 72
     1
 11
248.75
 21
54.3740157480315
 31
0.0
100
AcDbText
  0
TEXT
  5
372
330
1E
100
AcDbEntity
  8
110-1
100
AcDbText
 10
245.6524556616643
 20
48.86417322834645
 30
0.0
 40
1.25
  1
EUROP.
 72
     1
 11
249.0
 21
48.86417322834645
 31
0.0
100
AcDbText
  0
LWPOLYLINE
  5
373
330
1E
100
AcDbEntity
  8
110-1
  6
CENTER
 62
     2
100
AcDbPolyline
 90
        2
 70
     0
 43
0.02
 10
243.0
 20
43.0
 10
254.0
 20
43.0
  0
LWPOLYLINE
  5
377
330
1E
100
AcDbEntity
  8
110-1
 62
    13
100
AcDbPolyline
 90
        2
 70
     1
 43
0.2999999999999999
 10
250.0
 20
43.0
 42
1.0
 10
252.0
 20
43.0
 42
1.0
  0
LWPOLYLINE
  5
37B
330
1E
100
AcDbEntity
  8
110-1
 62
    13
100
AcDbPolyline
 90
        2
 70
     1
 43
0.2999999999999998
 10
249.0
 20
43.0
 42
1.0
 10
253.0
 20
43.0
 42
1.0
  0
TEXT
  5
37F
330
1E
100
AcDbEntity
  8
110-1
100
AcDbText
 10
246.4288028649386
 20
51.0
 30
0.0
 40
1.25
  1
PROJ.
 72
     1
 11
249.0
 21
51.0
 31
0.0
100
AcDbText
  0
TEXT
  5
380
330
1E
100
AcDbEntity
  8
110-1
 62
    14
100
AcDbText
 10
246.5640457936739
 20
58.38905065563595
 30
0.0
 40
3.0
  1
mm
100
AcDbText
  0
TEXT
  5
381
330
1E
100
AcDbEntity
  8
110-1
100
AcDbText
 10
245.9436391541609
 20
63.86417322834645
 30
0.0
 40
1.25
  1
ENHED
 72
     1
 11
249.0
 21
63.86417322834645
 31
0.0
100
AcDbText
  0
TEXT
  5
382
330
1E
100
AcDbEntity
  8
110-1
100
AcDbText
 10
246.9629945429741
 20
66.0
 30
0.0
 40
1.25
  1
UNIT
 72
     1
 11
249.0
 21
66.0
 31
0.0
100
AcDbText
  0
TEXT
  5
383
330
1E
100
AcDbEntity
  8
110-1
100
AcDbText
 10
259.8662853914407
 20
56.16767439024862
 30
0.0
 40
1.25
  1
MATERIEL
 50
90.0
 72
     4
 11
259.2412853914407
 21
60.53414778724726
 31
0.0
100
AcDbText
  0
TEXT
  5
384
330
1E
100
AcDbEntity
  8
110-1
100
AcDbText
 10
257.7304586197872
 20
56.16767439024862
 30
0.0
 40
1.25
  1
MATERIAL
 50
90.0
 72
     4
 11
257.1054586197872
 21
60.53414778724726
 31
0.0
100
AcDbText
  0
TEXT
  5
385
330
1E
100
AcDbEntity
  8
110-1
100
AcDbText
 10
276.0
 20
16.19153286067387
 30
0.0
 40
1.25
  1
SUPERS.
100
AcDbText
  0
TEXT
  5
386
330
1E
100
AcDbEntity
  8
110-1
100
AcDbText
 10
276.0
 20
14.46198679032726
 30
0.0
 40
1.25
  1
ERST.
100
AcDbText
  0
LINE
  5
387
330
1E
100
AcDbEntity
  8
110-1
100
AcDbLine
 10
275.0
 20
18.0
 30
0.0
 11
275.0
 21
14.0
 31
0.0
  0
TEXT
  5
388
330
1E
100
AcDbEntity
  8
110-1
100
AcDbText
 10
274.9937374510446
 20
68.52234765310455
 30
0.0
 40
1.25
  1
ML
100
AcDbText
  0
TEXT
  5
389
330
1E
100
AcDbEntity
  8
110-1
100
AcDbText
 10
298.9650649737951
 20
68.52335771047627
 30
0.0
 40
1.25
  1
VINKEL
100
AcDbText
  0
TEXT
  5
38A
330
1E
100
AcDbEntity
  8
110-1
 62
    14
100
AcDbText
 10
341.0
 20
15.0
 30
0.0
 40
2.5
  1
110-1
100
AcDbText
  0
TEXT
  5
38B
330
1E
100
AcDbEntity
  8
110-1
 62
    14
100
AcDbText
 10
342.0
 20
24.0
 30
0.0
 40
3.5
  1
4008 127 0393
100
AcDbText
  0
LWPOLYLINE
  5
38C
330
1E
100
AcDbEntity
  8
110-1
100
AcDbPolyline
 90
        2
 70
     0
 43
0.0
 10
325.0
 20
18.0
 10
325.0
 20
14.0
  0
TEXT
  5
390
330
1E
100
AcDbEntity
  8
110-1
 62
    14
100
AcDbText
 10
328.0
 20
15.0
 30
0.0
 40
2.5
  1
1
100
AcDbText
  0
TEXT
  5
391
330
1E
100
AcDbEntity
  8
110-1
100
AcDbText
 10
336.8005735533708
 20
14.56373869770813
 30
0.0
 40
1.249999999999999
  1
BL
 72
     4
 11
337.8685305792917
 21
15.18873869770813
 31
0.0
100
AcDbText
  0
TEXT
  5
392
330
1E
100
AcDbEntity
  8
110-1
100
AcDbText
 10
336.6556213023476
 20
16.27998524823715
 30
0.0
 40
1.249999999999999
  1
SH
 72
     4
 11
337.8685305792917
 21
16.90498524823715
 31
0.0
100
AcDbText
  0
TEXT
  5
393
330
1E
100
AcDbEntity
  8
110-1
100
AcDbText
 10
331.4273438620436
 20
14.56373869770813
 30
0.0
 40
1.249999999999999
  1
BL
 72
     4
 11
332.4953008879645
 21
15.18873869770813
 31
0.0
100
AcDbText
  0
TEXT
  5
394
330
1E
100
AcDbEntity
  8
110-1
100
AcDbText
 10
331.2823916110204
 20
16.27998524823715
 30
0.0
 40
1.249999999999999
  1
SH
 72
     4
 11
332.4953008879645
 21
16.90498524823715
 31
0.0
100
AcDbText
  0
LWPOLYLINE
  5
395
330
1E
100
AcDbEntity
  8
110-1
100
AcDbPolyline
 90
        2
 70
     0
 43
0.0
 10
335.0
 20
18.0
 10
335.0
 20
14.0
  0
LWPOLYLINE
  5
399
330
1E
100
AcDbEntity
  8
110-1
100
AcDbPolyline
 90
        2
 70
     0
 43
0.0
 10
373.0
 20
18.0
 10
373.0
 20
14.0
  0
TEXT
  5
39D
330
1E
100
AcDbEntity
  8
110-1
 62
    14
100
AcDbText
 10
376.6680236079614
 20
14.84382203354864
 30
0.0
 40
2.5
  1
116
100
AcDbText
  0
TEXT
  5
39E
330
1E
100
AcDbEntity
  8
110-1
100
AcDbText
 10
354.1561221009549
 20
68.52024296118852
 30
0.0
 40
1.25
  1
POS
 72
     4
 11
356.0
 21
69.14566929133858
 31
0.0
100
AcDbText
  0
TEXT
  5
39F
330
1E
100
AcDbEntity
  8
110-1
100
AcDbText
 10
277.6507503410641
 20
76.00024422185551
 30
0.0
 40
1.25
  1
TOLERANCE HVOR INTET ANDET ER ANGIVET
 72
     1
 11
297.25
 21
76.00024422185551
 31
0.0
100
AcDbText
  0
TEXT
  5
3A0
330
1E
100
AcDbEntity
  8
110-1
100
AcDbText
 10
278.3776432469303
 20
77.74975577814448
 30
0.0
 40
1.25
  1
TOLERANCES UNLESS OTHERWISE STATED
 72
     1
 11
297.25
 21
77.74975577814448
 31
0.0
100
AcDbText
  0
LWPOLYLINE
  5
3A1
330
1E
100
AcDbEntity
  8
110-1
100
AcDbPolyline
 90
        3
 70
     0
 43
0.0
 10
248.0374851427603
 20
76.9698057258089
 10
249.75
 20
74.0
 10
252.8685888495278
 20
79.36650848224347
  0
TEXT
  5
3A6
330
1E
100
AcDbEntity
  8
110-1
100
AcDbText
 10
247.0
 20
78.0
 30
0.0
 40
1.25
  1
. .
100
AcDbText
  0
TEXT
  5
3A7
330
1E
100
AcDbEntity
  8
110-1
100
AcDbText
 10
263.4515377956597
 20
72.88825057449208
 30
0.0
 40
1.25
  1
ISO 1302 
100
AcDbText
  0
TEXT
  5
3A8
330
1E
100
AcDbEntity
  8
110-1
100
AcDbText
 10
263.4515377956597
 20
75.02407734614561
 30
0.0
 40
1.25
  1
UN - D 28
100
AcDbText
  0
ARC
  5
3A9
330
1E
100
AcDbEntity
  8
110-1
100
AcDbCircle
 10
260.7603144101785
 20
76.35859236105457
 30
0.0
 40
1.214781746034139
100
AcDbArc
 50
306.4847730898729
 51
299.2476703006309
  0
LWPOLYLINE
  5
3AA
330
1E
100
AcDbEntity
  8
110-1
100
AcDbPolyline
 90
        3
 70
     0
 43
0.0
 10
259.0374851427603
 20
76.9698057258089
 10
260.7499999999999
 20
74.0
 10
263.8685888495278
 20
79.36650848224347
  0
TEXT
  5
3AF
330
1E
100
AcDbEntity
  8
110-1
100
AcDbText
 10
258.0
 20
78.0
 30
0.0
 40
1.25
  1
. .
100
AcDbText
  0
TEXT
  5
3B0
330
1E
100
AcDbEntity
  8
110-1
100
AcDbText
 10
274.9937374510446
 20
70.28801997642457
 30
0.0
 40
1.25
  1
DIMENSION
100
AcDbText
  0
TEXT
  5
3B1
330
1E
100
AcDbEntity
  8
110-1
100
AcDbText
 10
298.9650649737951
 20
70.2320191277991
 30
0.0
 40
1.25
  1
ANGLE
100
AcDbText
  0
TEXT
  5
3B2
330
1E
100
AcDbEntity
  8
110-1
100
AcDbText
 10
340.1222111527
 20
71.17625792051382
 30
0.0
 40
1.25
  1
UN - D 1660
100
AcDbText
  0
TEXT
  5
3B3
330
1E
100
AcDbEntity
  8
110-1
100
AcDbText
 10
340.1222111527
 20
77.58373823547444
 30
0.0
 40
1.25
  1
UN - D 603
100
AcDbText
  0
LWPOLYLINE
  5
3B4
330
1E
100
AcDbEntity
  8
110-1
100
AcDbPolyline
 90
        4
 70
     1
 43
0.3
 10
324.0
 20
77.0
 10
326.0
 20
77.0
 10
326.0
 20
75.0
 10
324.0
 20
75.0
  0
LWPOLYLINE
  5
3BA
330
1E
100
AcDbEntity
  8
110-1
100
AcDbPolyline
 90
        3
 70
     1
 43
0.0
 10
324.0
 20
72.0
 10
326.0
 20
72.0
 10
325.0
 20
73.0
  0
TEXT
  5
3BF
330
1E
100
AcDbEntity
  8
110-1
100
AcDbText
 10
324.4176330150068
 20
75.375
 30
0.0
 40
1.25
  1
A
 72
     4
 11
325.0
 21
76.0
 31
0.0
100
AcDbText
  0
LWPOLYLINE
  5
3C0
330
1E
100
AcDbEntity
  8
110-1
100
AcDbPolyline
 90
        2
 70
     0
 43
0.4
 10
325.0
 20
75.0
 10
325.0
 20
72.0
  0
LWPOLYLINE
  5
3C4
330
1E
100
AcDbEntity
  8
110-1
100
AcDbPolyline
 90
        4
 70
     1
 43
0.3
 10
333.0
 20
75.0
 10
335.0
 20
75.0
 10
335.0
 20
77.0
 10
333.0
 20
77.0
  0
LWPOLYLINE
  5
3CA
330
1E
100
AcDbEntity
  8
110-1
100
AcDbPolyline
 90
        4
 70
     1
 43
0.3
 10
331.0
 20
75.0
 10
333.0
 20
75.0
 10
333.0
 20
77.0
 10
331.0
 20
77.0
  0
LWPOLYLINE
  5
3D0
330
1E
100
AcDbEntity
  8
110-1
100
AcDbPolyline
 90
        4
 70
     1
 43
0.3
 10
333.0
 20
71.0
 10
335.0
 20
71.0
 10
335.0
 20
73.0
 10
333.0
 20
73.0
  0
LWPOLYLINE
  5
3D6
330
1E
100
AcDbEntity
  8
110-1
100
AcDbPolyline
 90
        4
 70
     1
 43
0.3
 10
331.0
 20
71.0
 10
333.0
 20
71.0
 10
333.0
 20
73.0
 10
331.0
 20
73.0
  0
TEXT
  5
3DC
330
1E
100
AcDbEntity
  8
110-1
100
AcDbText
 10
335.4176330150067
 20
71.375
 30
0.0
 40
1.25
  1
A
 72
     4
 11
336.0
 21
72.0
 31
0.0
100
AcDbText
  0
LWPOLYLINE
  5
3DD
330
1E
100
AcDbEntity
  8
110-1
100
AcDbPolyline
 90
        4
 70
     1
 43
0.3
 10
335.0
 20
73.0
 10
337.0
 20
73.0
 10
337.0
 20
71.0
 10
335.0
 20
71.0
  0
TEXT
  5
3E3
330
1E
100
AcDbEntity
  8
110-1
100
AcDbText
 10
340.1222111527
 20
75.4479114638209
 30
0.0
 40
1.25
  1
ISO 1101
100
AcDbText
  0
TEXT
  5
3E4
330
1E
100
AcDbEntity
  8
110-1
100
AcDbText
 10
353.9143929058663
 20
70.22933070866141
 30
0.0
 40
1.25
  1
ITEM
 72
     4
 11
356.0
 21
70.85433070866141
 31
0.0
100
AcDbText
  0
LWPOLYLINE
  5
3E5
330
1E
100
AcDbEntity
  8
110-1
100
AcDbPolyline
 90
        2
 70
     0
 43
0.0
 10
410.0
 20
80.0
 10
410.0
 20
10.0
  0
LWPOLYLINE
  5
3E9
330
1E
100
AcDbEntity
  8
110-1
100
AcDbPolyline
 90
        2
 70
     0
 43
0.0
 10
398.0
 20
80.0
 10
398.0
 20
68.0
  0
LWPOLYLINE
  5
3ED
330
1E
100
AcDbEntity
  8
110-1
100
AcDbPolyline
 90
        2
 70
     0
 43
0.0
 10
398.0
 20
53.0
 10
398.0
 20
38.0
  0
TEXT
  5
3F1
330
1E
100
AcDbEntity
  8
110-1
100
AcDbText
 10
399.9296555252387
 20
15.37457366984993
 30
0.0
 40
1.25
  1
FORM
 72
     4
 11
402.5
 21
16.0
 31
0.0
100
AcDbText
  0
TEXT
  5
3F2
330
1E
100
AcDbEntity
  8
110-1
 62
    14
100
AcDbText
 10
385.1659741101235
 20
34.83837923969952
 30
0.0
 40
2.5
  1
1   -- -- --
100
AcDbText
  0
LWPOLYLINE
  5
3F3
330
1E
100
AcDbEntity
  8
110-1
100
AcDbPolyline
 90
        2
 70
     0
 43
0.0
 10
388.0
 20
38.0
 10
388.0
 20
14.0
  0
TEXT
  5
3F7
330
1E
100
AcDbEntity
  8
110-1
100
AcDbText
 10
392.0445088676671
 20
15.26278990450204
 30
0.0
 40
1.5
  1
KU
 72
     4
 11
393.5
 21
16.0
 31
0.0
100
AcDbText
  0
LWPOLYLINE
  5
3F8
330
1E
100
AcDbEntity
  8
110-1
100
AcDbPolyline
 90
        2
 70
     0
 43
0.0
 10
399.0
 20
18.0
 10
399.0
 20
14.0
  0
TEXT
  5
3FC
330
1E
100
AcDbEntity
  8
110-1
 62
    14
100
AcDbText
 10
405.5172989966748
 20
15.01942516083291
 30
0.0
 40
2.5
  1
A3
100
AcDbText
  0
TEXT
  5
3FD
330
1E
100
AcDbEntity
  8
110-1
100
AcDbText
 10
401.1870736698499
 20
49.48565689993039
 30
0.0
 40
1.249999999999999
  1
ANTAL
 72
     4
 11
404.0
 21
50.11065689993039
 31
0.0
100
AcDbText
  0
TEXT
  5
3FE
330
1E
100
AcDbEntity
  8
110-1
100
AcDbText
 10
400.7014836289222
 20
51.30678141311813
 30
0.0
 40
1.249999999999999
  1
QUANT.
 72
     4
 11
404.0
 21
51.89426435991213
 31
0.0
100
AcDbText
  0
TEXT
  5
3FF
330
1E
100
AcDbEntity
  8
110-1
100
AcDbText
 10
401.1870736698499
 20
68.48946115856328
 30
0.0
 40
1.25
  1
ANTAL
 72
     4
 11
404.0
 21
69.11446115856328
 31
0.0
100
AcDbText
  0
TEXT
  5
400
330
1E
100
AcDbEntity
  8
110-1
100
AcDbText
 10
400.7014836289222
 20
70.30297715448523
 30
0.0
 40
1.25
  1
QUANT.
 72
     4
 11
404.0
 21
70.89046010127923
 31
0.0
100
AcDbText
  0
TEXT
  5
4C0
330
1E
100
AcDbEntity
  8
110-1
 62
    14
100
AcDbText
 10
385.1659741101235
 20
30.48900734751295
 30
0.0
 40
2.5
  1
2   97-03-25
100
AcDbText
  0
TEXT
  5
4C1
330
1E
100
AcDbEntity
  8
110-1
 62
    14
100
AcDbText
 10
385.1659741101235
 20
26.75707383509363
 30
0.0
 40
2.5
  1
3   97-05-26
100
AcDbText
  0
LINE
  5
4C2
330
1E
100
AcDbEntity
  8
110-1
100
AcDbLine
 10
385.1971063702931
 20
31.98790467054653
 30
0.0
 11
408.122493123772
 21
31.98790467054653
 31
0.0
  0
TEXT
  5
4C3
330
1E
100
AcDbEntity
  8
110-1
100
AcDbText
 10
5.065741709508795
 20
282.3985354662558
 30
0.0
 40
3.0
  1
KUV40
 72
     2
 11
18.34473215971343
 21
282.3985354662558
 31
0.0
100
AcDbText
  0
TEXT
  5
4C4
330
1E
100
AcDbEntity
  8
110-1
100
AcDbText
 10
5.294936798185466
 20
277.3985354662558
 30
0.0
 40
3.0
  1
-10334
 72
     2
 11
18.34473215971343
 21
277.3985354662558
 31
0.0
100
AcDbText
  0
TEXT
  5
4CC
330
1E
100
AcDbEntity
  8
110-1
 62
    15
100
AcDbText
 10
266.815890872126
 20
44.32566527200578
 30
0.0
 40
3.0
  1
SE MALINGSPECIFICATION   4008 140 00000
100
AcDbText
  0
TEXT
  5
4CF
330
1E
100
AcDbEntity
  8
110-1
 62
    14
100
AcDbText
 10
385.1659741101235
 20
22.79470402443273
 30
0.0
 40
2.5
  1
4   00-01-20
100
AcDbText
  0
LINE
  5
4D6
330
1E
100
AcDbEntity
  8
110-1
100
AcDbLine
 10
384.8589173460353
 20
27.69172279592625
 30
0.0
 11
407.7843040995141
 21
27.69172279592625
 31
0.0
  0
INSERT
  5
5AC
330
1E
100
AcDbEntity
  8
115-1
100
AcDbBlockReference
  2
115-1
 10
0.0
 20
0.0
 30
0.0
  0
TEXT
  5
7A6
330
1E
100
AcDbEntity
  8
readme
100
AcDbText
 10
39.59098757288967
 20
232.1536383390632
 30
0.0
 40
4.0
  1
TEKSTPLADEN SKAL HAVE:
100
AcDbText
  0
TEXT
  5
7A7
330
1E
100
AcDbEntity
  8
readme
100
AcDbText
 10
38.76434291388801
 20
207.4440460013119
 30
0.0
 40
4.0
  1
SH.110-1 : LAYER 110-1, 110-1MEK, 115-1T (BLOCK 110-1)
100
AcDbText
  0
TEXT
  5
7A8
330
1E
100
AcDbEntity
  8
readme
100
AcDbText
 10
39.21319614400982
 20
215.8589682302842
 30
0.0
 40
4.0
  1
TEKSTEN SKAL BRUGES SAMMEN MED 4008 107 58580
100
AcDbText
  0
TEXT
  5
7A9
330
1E
100
AcDbEntity
  8
readme
100
AcDbText
 10
38.76434291388801
 20
199.3666394205185
 30
0.0
 40
4.0
  1
SH.115-1 : LAYER 115-1, 115-T (BLOCK 115-1) 
100
AcDbText
  0
TEXT
  5
7AA
330
1E
100
AcDbEntity
  8
readme
100
AcDbText
 10
39.28987855091929
 20
224.1592555528238
 30
0.0
 40
4.0
  1
SILKETRYK
100
AcDbText
  0
TEXT
  5
7AB
330
1E
100
AcDbEntity
  8
readme
100
AcDbText
 10
92.62321188425264
 20
224.1592555528238
 30
0.0
 40
4.0
  1
: BLACK 3C 2X
100
AcDbText
  0
ENDSEC
  0
SECTION
  2
OBJECTS
  0
DICTIONARY
  5
C
330
0
100
AcDbDictionary
281
     1
  3
ACAD_GROUP
350
D
  3
ACAD_LAYOUT
350
19
  3
ACAD_MLINESTYLE
350
16
  3
ACAD_PLOTSETTINGS
350
18
  3
ACAD_PLOTSTYLENAME
350
E
  3
AcDbVariableDictionary
350
605
  0
DICTIONARY
  5
D
102
{ACAD_REACTORS
330
C
102
}
330
C
100
AcDbDictionary
281
     1
  0
DICTIONARY
  5
19
102
{ACAD_REACTORS
330
C
102
}
330
C
100
AcDbDictionary
281
     1
  3
Layout1
350
1D
  3
Model
350
21
  0
DICTIONARY
  5
16
102
{ACAD_REACTORS
330
C
102
}
330
C
100
AcDbDictionary
281
     1
  3
Standard
350
17
  0
DICTIONARY
  5
18
102
{ACAD_REACTORS
330
C
102
}
330
C
100
AcDbDictionary
281
     1
  0
ACDBDICTIONARYWDFLT
  5
E
102
{ACAD_REACTORS
330
C
102
}
330
C
100
AcDbDictionary
281
     1
  3
Normal
350
F
100
AcDbDictionaryWithDefault
340
F
  0
DICTIONARY
  5
605
102
{ACAD_REACTORS
330
C
102
}
330
C
100
AcDbDictionary
281
     1
  3
SORTENTS
350
606
  0
LAYOUT
  5
1D
102
{ACAD_REACTORS
330
19
102
}
330
19
100
AcDbPlotSettings
  1

  2
C:\Programmer\AutoCAD LT 2000\plotters\DWF Classic.pc3
  4

  6

 40
0.0
 41
0.0
 42
0.0
 43
0.0
 44
0.0
 45
0.0
 46
0.0
 47
0.0
 48
0.0
 49
0.0
140
0.0
141
0.0
142
1.0
143
1.0
 70
   688
 72
     0
 73
     0
 74
     5
  7
C:\Programmer\AutoCAD LT 2000\Plot Styles\kabler.ctb
 75
    16
147
1.0
148
0.0
149
0.0
100
AcDbLayout
  1
Layout1
 70
     0
 71
     1
 10
0.0
 20
0.0
 11
12.0
 21
9.0
 12
0.0
 22
0.0
 32
0.0
 14
1.000000000000000E+20
 24
1.000000000000000E+20
 34
1.000000000000000E+20
 15
-1.000000000000000E+20
 25
-1.000000000000000E+20
 35
-1.000000000000000E+20
146
0.0
 13
0.0
 23
0.0
 33
0.0
 16
1.0
 26
0.0
 36
0.0
 17
0.0
 27
1.0
 37
0.0
 76
     0
330
1A
  0
LAYOUT
  5
21
102
{ACAD_REACTORS
330
19
102
}
330
19
100
AcDbPlotSettings
  1

  2
Acrobat PDFWriter
  4
A3
  6

 40
7.143749713897705
 41
7.143756389617919
 42
7.143768310546875
 43
7.14373779296875
 44
297.0530090332031
 45
420.0313415527343
 46
114.84
 47
0.0
 48
0.0
 49
0.0
140
0.0
141
0.0
142
1.0
143
1.07958274777874
 70
 11956
 72
     1
 73
     1
 74
     1
  7
kabler.ctb
 75
     0
147
0.9262837907122142
148
-34.36981302961919
149
-172.9947060930946
100
AcDbLayout
  1
Model
 70
     1
 71
     0
 10
0.0
 20
0.0
 11
12.0
 21
9.0
 12
0.0
 22
0.0
 32
0.0
 14
0.0
 24
0.0
 34
0.0
 15
0.0
 25
0.0
 35
0.0
146
0.0
 13
0.0
 23
0.0
 33
0.0
 16
1.0
 26
0.0
 36
0.0
 17
0.0
 27
1.0
 37
0.0
 76
     0
330
1E
  0
MLINESTYLE
  5
17
102
{ACAD_REACTORS
330
16
102
}
330
16
100
AcDbMlineStyle
  2
STANDARD
 70
     0
  3

 62
   256
 51
90.0
 52
90.0
 71
     2
 49
0.5
 62
   256
  6
BYLAYER
 49
-0.5
 62
   256
  6
BYLAYER
  0
ACDBPLACEHOLDER
  5
F
102
{ACAD_REACTORS
330
E
102
}
330
E
  0
DICTIONARYVAR
  5
606
102
{ACAD_REACTORS
330
605
102
}
330
605
100
DictionaryVariables
280
     0
  1
96
  0
ENDSEC
  0
EOF
