*%FSLAX53Y53*%
*%MOMM*%
G01*
%ADD11C,0.100*%
%ADD12C,0.150*%
%ADD13C,0.186*%
%ADD14C,0.200*%
%ADD15C,0.203*%
%ADD16C,0.250*%
%ADD17C,0.254*%
%ADD18O,0.270X1.300*%
%ADD19O,0.290X1.350*%
%ADD20C,0.305*%
%ADD21C,0.381*%
%ADD22C,0.508*%
%ADD23C,0.762*%
%ADD24C,0.800*%
%ADD25C,0.800*%
%ADD26C,1.000*%
%ADD27C,1.100*%
%ADD28C,1.250*%
%ADD29C,1.270*%
%ADD30O,1.300X0.270*%
%ADD31O,1.350X0.290*%
%ADD32C,1.500*%
%ADD33C,1.524*%
%ADD34C,1.600*%
%ADD35O,1.800X2.000*%
%ADD36C,1.816*%
%ADD37C,1.816*%
%ADD38C,1.905*%
%ADD39C,2.000*%
%ADD40O,2.032X0.610*%
%ADD41C,2.032*%
%ADD42C,2.116*%
%ADD43C,2.266*%
%ADD44C,2.540*%
%ADD45O,2.794X0.737*%
%ADD46C,3.800*%
%ADD47C,4.816*%
%ADD48C,6.350*%
%ADD49R,0.584X0.584*%
%ADD50R,0.600X1.250*%
%ADD51R,0.800X0.800*%
%ADD52R,0.889X0.889*%
%ADD53R,0.900X1.300*%
%ADD54R,0.900X2.000*%
%ADD55R,1.000X1.000*%
%ADD56R,1.000X1.250*%
%ADD57R,1.000X1.500*%
%ADD58R,1.250X1.000*%
%ADD59R,1.350X0.290*%
%ADD60R,1.400X1.600*%
%ADD61R,1.500X1.000*%
%ADD62R,1.500X1.100*%
%ADD63R,1.676X1.676*%
%ADD64R,2.286X0.737*%
%ADD65R,2.400X3.000*%
%ADD66R,2.540X1.270*%
%ADD67P,1.000X8X0*%
D14*
X196796Y157705D02*
X299796D01*
Y242705D01*
X196796D01*
Y157705D01*
X299796Y244705D02*
Y248705D01*
X196796D02*
Y244705D01*
X297796Y246039D02*
X299796Y246705D01*
X297796Y247372D01*
X198796Y246039D02*
X196796Y246705D01*
X198796Y247372D01*
X253248Y246705D02*
X299796D01*
X243343D02*
X196796D01*
X194796Y242705D02*
X190796D01*
Y157705D02*
X194796D01*
X193462Y240705D02*
X192796Y242705D01*
X192129Y240705D01*
X193462Y159705D02*
X192796Y157705D01*
X192129Y159705D01*
X192796Y204325D02*
Y242705D01*
Y196086D02*
Y157705D01*
X243597Y245506D02*
X244264D01*
X243930D01*
Y247505D01*
X243956D01*
X243930D02*
X243597Y247172D01*
X245263D02*
X245597Y247505D01*
X246263D01*
X246596Y247172D01*
Y245839D01*
X246263Y245506D01*
X245597D01*
X245263Y245839D01*
Y247172D01*
X247263D02*
X247596Y247505D01*
X248262D01*
X248596Y247172D01*
Y246839D01*
X248621D01*
X248596D02*
X248621D01*
X248596D02*
X248621D01*
X248596D02*
X248262Y246505D01*
X247929D01*
X248262D01*
X248596Y246172D01*
Y245839D01*
X248262Y245506D01*
X247596D01*
X247263Y245839D01*
X249262Y245506D02*
Y246839D01*
X249595D01*
X249929Y246505D01*
Y245506D01*
Y246505D01*
X250262Y246839D01*
X250595Y246505D01*
Y245506D01*
X251261D02*
Y246839D01*
X251595D01*
X251928Y246505D01*
Y245506D01*
Y246505D01*
X252261Y246839D01*
X252594Y246505D01*
Y245506D01*
X192329Y196340D02*
X191996Y196673D01*
Y197340D01*
X192329Y197673D01*
X192663D01*
X192996Y197340D01*
X193329Y197673D01*
X193662D01*
X193995Y197340D01*
Y196673D01*
X193662Y196340D01*
X193329D01*
X192996Y196673D01*
X192663Y196340D01*
X192329D01*
X192996Y196673D02*
Y197340D01*
X191996Y198339D02*
Y199672D01*
Y198339D02*
X192996D01*
X192663Y199006D01*
Y199339D01*
X192996Y199672D01*
X193662D01*
X193995Y199339D01*
Y198672D01*
X193662Y198339D01*
X193995Y200339D02*
X192663D01*
Y200672D01*
X192996Y201005D01*
X193995D01*
X192996D01*
X192663Y201338D01*
X192996Y201672D01*
X193995D01*
Y202338D02*
X192663D01*
Y202671D01*
X192996Y203004D01*
X193995D01*
X192996D01*
X192663Y203338D01*
X192996Y203671D01*
X193995D01*
X258646Y239005D02*
X258641Y238923D01*
X258628Y238841D01*
X258605Y238762D01*
X258574Y238685D01*
X258535Y238613D01*
X258488Y238545D01*
X258433Y238482D01*
X258373Y238426D01*
X258306Y238378D01*
X258234Y238336D01*
X258159Y238303D01*
X258080Y238278D01*
X257999Y238262D01*
X257916Y238256D01*
X257834Y238258D01*
X257752Y238269D01*
X257672Y238290D01*
X257595Y238319D01*
X257521Y238356D01*
X257452Y238401D01*
X257388Y238454D01*
X257330Y238513D01*
X257279Y238578D01*
X257236Y238648D01*
X257201Y238723D01*
X257174Y238801D01*
X257156Y238882D01*
X257147Y238964D01*
Y239047D01*
X257156Y239129D01*
X257174Y239209D01*
X257201Y239288D01*
X257236Y239362D01*
X257279Y239433D01*
X257330Y239498D01*
X257388Y239557D01*
X257452Y239610D01*
X257521Y239655D01*
X257595Y239692D01*
X257672Y239721D01*
X257752Y239741D01*
X257834Y239753D01*
X257916Y239755D01*
X257999Y239748D01*
X258080Y239732D01*
X258159Y239708D01*
X258234Y239675D01*
X258306Y239633D01*
X258373Y239584D01*
X258433Y239528D01*
X258488Y239466D01*
X258535Y239398D01*
X258574Y239325D01*
X258605Y239249D01*
X258628Y239169D01*
X258641Y239088D01*
X258646Y239005D01*
Y229005D02*
X258641Y228923D01*
X258628Y228841D01*
X258605Y228762D01*
X258574Y228685D01*
X258535Y228613D01*
X258488Y228545D01*
X258433Y228482D01*
X258373Y228426D01*
X258306Y228378D01*
X258234Y228336D01*
X258159Y228303D01*
X258080Y228278D01*
X257999Y228262D01*
X257916Y228256D01*
X257834Y228258D01*
X257752Y228269D01*
X257672Y228290D01*
X257595Y228319D01*
X257521Y228356D01*
X257452Y228401D01*
X257388Y228454D01*
X257330Y228513D01*
X257279Y228578D01*
X257236Y228648D01*
X257201Y228723D01*
X257174Y228801D01*
X257156Y228882D01*
X257147Y228964D01*
Y229047D01*
X257156Y229129D01*
X257174Y229209D01*
X257201Y229288D01*
X257236Y229362D01*
X257279Y229433D01*
X257330Y229498D01*
X257388Y229557D01*
X257452Y229610D01*
X257521Y229655D01*
X257595Y229692D01*
X257672Y229721D01*
X257752Y229741D01*
X257834Y229753D01*
X257916Y229755D01*
X257999Y229748D01*
X258080Y229732D01*
X258159Y229708D01*
X258234Y229675D01*
X258306Y229633D01*
X258373Y229584D01*
X258433Y229528D01*
X258488Y229466D01*
X258535Y229398D01*
X258574Y229325D01*
X258605Y229249D01*
X258628Y229169D01*
X258641Y229088D01*
X258646Y229005D01*
X296346Y208105D02*
X296341Y208023D01*
X296328Y207941D01*
X296305Y207862D01*
X296274Y207785D01*
X296235Y207713D01*
X296188Y207645D01*
X296133Y207582D01*
X296073Y207526D01*
X296006Y207478D01*
X295934Y207436D01*
X295859Y207403D01*
X295780Y207378D01*
X295699Y207363D01*
X295616Y207356D01*
X295534Y207358D01*
X295452Y207369D01*
X295372Y207390D01*
X295295Y207419D01*
X295221Y207456D01*
X295152Y207501D01*
X295088Y207554D01*
X295030Y207613D01*
X294979Y207678D01*
X294936Y207748D01*
X294901Y207823D01*
X294874Y207901D01*
X294856Y207982D01*
X294847Y208064D01*
Y208147D01*
X294856Y208229D01*
X294874Y208309D01*
X294901Y208388D01*
X294936Y208462D01*
X294979Y208533D01*
X295030Y208598D01*
X295088Y208657D01*
X295152Y208710D01*
X295221Y208755D01*
X295295Y208792D01*
X295372Y208821D01*
X295452Y208842D01*
X295534Y208853D01*
X295616Y208855D01*
X295699Y208848D01*
X295780Y208832D01*
X295859Y208808D01*
X295934Y208775D01*
X296006Y208733D01*
X296073Y208684D01*
X296133Y208628D01*
X296188Y208566D01*
X296235Y208498D01*
X296274Y208426D01*
X296305Y208349D01*
X296328Y208269D01*
X296341Y208188D01*
X296346Y208105D01*
D02*
M02*
