*%FSLAX53Y53*%
*%MOMM*%
G01*
%ADD11C,0.100*%
%ADD12C,0.150*%
%ADD13C,0.186*%
%ADD14C,0.200*%
%ADD15C,0.203*%
%ADD16C,0.250*%
%ADD17C,0.254*%
%ADD18O,0.270X1.300*%
%ADD19O,0.290X1.350*%
%ADD20C,0.305*%
%ADD21C,0.381*%
%ADD22C,0.508*%
%ADD23C,0.762*%
%ADD24C,0.800*%
%ADD25C,0.800*%
%ADD26C,1.000*%
%ADD27C,1.100*%
%ADD28C,1.250*%
%ADD29C,1.270*%
%ADD30O,1.300X0.270*%
%ADD31O,1.350X0.290*%
%ADD32C,1.500*%
%ADD33C,1.524*%
%ADD34C,1.600*%
%ADD35O,1.800X2.000*%
%ADD36C,1.816*%
%ADD37C,1.816*%
%ADD38C,1.905*%
%ADD39C,2.000*%
%ADD40O,2.032X0.610*%
%ADD41C,2.032*%
%ADD42C,2.116*%
%ADD43C,2.266*%
%ADD44C,2.540*%
%ADD45O,2.794X0.737*%
%ADD46C,3.800*%
%ADD47C,4.816*%
%ADD48C,6.350*%
%ADD49R,0.584X0.584*%
%ADD50R,0.600X1.250*%
%ADD51R,0.800X0.800*%
%ADD52R,0.889X0.889*%
%ADD53R,0.900X1.300*%
%ADD54R,0.900X2.000*%
%ADD55R,1.000X1.000*%
%ADD56R,1.000X1.250*%
%ADD57R,1.000X1.500*%
%ADD58R,1.250X1.000*%
%ADD59R,1.350X0.290*%
%ADD60R,1.400X1.600*%
%ADD61R,1.500X1.000*%
%ADD62R,1.500X1.100*%
%ADD63R,1.676X1.676*%
%ADD64R,2.286X0.737*%
%ADD65R,2.400X3.000*%
%ADD66R,2.540X1.270*%
%ADD67P,1.000X8X0*%
D14*
X196796Y157705D02*
X299796D01*
Y242705D01*
X196796D01*
Y157705D01*
X299796Y244705D02*
Y248705D01*
X196796D02*
Y244705D01*
X297796Y246039D02*
X299796Y246705D01*
X297796Y247372D01*
X198796Y246039D02*
X196796Y246705D01*
X198796Y247372D01*
X253248Y246705D02*
X299796D01*
X243343D02*
X196796D01*
X194796Y242705D02*
X190796D01*
Y157705D02*
X194796D01*
X193462Y240705D02*
X192796Y242705D01*
X192129Y240705D01*
X193462Y159705D02*
X192796Y157705D01*
X192129Y159705D01*
X192796Y204325D02*
Y242705D01*
Y196086D02*
Y157705D01*
X243597Y245506D02*
X244264D01*
X243930D01*
Y247505D01*
X243956D01*
X243930D02*
X243597Y247172D01*
X245263D02*
X245597Y247505D01*
X246263D01*
X246596Y247172D01*
Y245839D01*
X246263Y245506D01*
X245597D01*
X245263Y245839D01*
Y247172D01*
X247263D02*
X247596Y247505D01*
X248262D01*
X248596Y247172D01*
Y246839D01*
X248621D01*
X248596D02*
X248621D01*
X248596D02*
X248621D01*
X248596D02*
X248262Y246505D01*
X247929D01*
X248262D01*
X248596Y246172D01*
Y245839D01*
X248262Y245506D01*
X247596D01*
X247263Y245839D01*
X249262Y245506D02*
Y246839D01*
X249595D01*
X249929Y246505D01*
Y245506D01*
Y246505D01*
X250262Y246839D01*
X250595Y246505D01*
Y245506D01*
X251261D02*
Y246839D01*
X251595D01*
X251928Y246505D01*
Y245506D01*
Y246505D01*
X252261Y246839D01*
X252594Y246505D01*
Y245506D01*
X192329Y196340D02*
X191996Y196673D01*
Y197340D01*
X192329Y197673D01*
X192663D01*
X192996Y197340D01*
X193329Y197673D01*
X193662D01*
X193995Y197340D01*
Y196673D01*
X193662Y196340D01*
X193329D01*
X192996Y196673D01*
X192663Y196340D01*
X192329D01*
X192996Y196673D02*
Y197340D01*
X191996Y198339D02*
Y199672D01*
Y198339D02*
X192996D01*
X192663Y199006D01*
Y199339D01*
X192996Y199672D01*
X193662D01*
X193995Y199339D01*
Y198672D01*
X193662Y198339D01*
X193995Y200339D02*
X192663D01*
Y200672D01*
X192996Y201005D01*
X193995D01*
X192996D01*
X192663Y201338D01*
X192996Y201672D01*
X193995D01*
Y202338D02*
X192663D01*
Y202671D01*
X192996Y203004D01*
X193995D01*
X192996D01*
X192663Y203338D01*
X192996Y203671D01*
X193995D01*
X258646Y239005D02*
X258641Y238923D01*
X258628Y238841D01*
X258605Y238762D01*
X258574Y238685D01*
X258535Y238613D01*
X258488Y238545D01*
X258433Y238482D01*
X258373Y238426D01*
X258306Y238378D01*
X258234Y238336D01*
X258159Y238303D01*
X258080Y238278D01*
X257999Y238262D01*
X257916Y238256D01*
X257834Y238258D01*
X257752Y238269D01*
X257672Y238290D01*
X257595Y238319D01*
X257521Y238356D01*
X257452Y238401D01*
X257388Y238454D01*
X257330Y238513D01*
X257279Y238578D01*
X257236Y238648D01*
X257201Y238723D01*
X257174Y238801D01*
X257156Y238882D01*
X257147Y238964D01*
Y239047D01*
X257156Y239129D01*
X257174Y239209D01*
X257201Y239288D01*
X257236Y239362D01*
X257279Y239433D01*
X257330Y239498D01*
X257388Y239557D01*
X257452Y239610D01*
X257521Y239655D01*
X257595Y239692D01*
X257672Y239721D01*
X257752Y239741D01*
X257834Y239753D01*
X257916Y239755D01*
X257999Y239748D01*
X258080Y239732D01*
X258159Y239708D01*
X258234Y239675D01*
X258306Y239633D01*
X258373Y239584D01*
X258433Y239528D01*
X258488Y239466D01*
X258535Y239398D01*
X258574Y239325D01*
X258605Y239249D01*
X258628Y239169D01*
X258641Y239088D01*
X258646Y239005D01*
Y229005D02*
X258641Y228923D01*
X258628Y228841D01*
X258605Y228762D01*
X258574Y228685D01*
X258535Y228613D01*
X258488Y228545D01*
X258433Y228482D01*
X258373Y228426D01*
X258306Y228378D01*
X258234Y228336D01*
X258159Y228303D01*
X258080Y228278D01*
X257999Y228262D01*
X257916Y228256D01*
X257834Y228258D01*
X257752Y228269D01*
X257672Y228290D01*
X257595Y228319D01*
X257521Y228356D01*
X257452Y228401D01*
X257388Y228454D01*
X257330Y228513D01*
X257279Y228578D01*
X257236Y228648D01*
X257201Y228723D01*
X257174Y228801D01*
X257156Y228882D01*
X257147Y228964D01*
Y229047D01*
X257156Y229129D01*
X257174Y229209D01*
X257201Y229288D01*
X257236Y229362D01*
X257279Y229433D01*
X257330Y229498D01*
X257388Y229557D01*
X257452Y229610D01*
X257521Y229655D01*
X257595Y229692D01*
X257672Y229721D01*
X257752Y229741D01*
X257834Y229753D01*
X257916Y229755D01*
X257999Y229748D01*
X258080Y229732D01*
X258159Y229708D01*
X258234Y229675D01*
X258306Y229633D01*
X258373Y229584D01*
X258433Y229528D01*
X258488Y229466D01*
X258535Y229398D01*
X258574Y229325D01*
X258605Y229249D01*
X258628Y229169D01*
X258641Y229088D01*
X258646Y229005D01*
X296346Y208105D02*
X296341Y208023D01*
X296328Y207941D01*
X296305Y207862D01*
X296274Y207785D01*
X296235Y207713D01*
X296188Y207645D01*
X296133Y207582D01*
X296073Y207526D01*
X296006Y207478D01*
X295934Y207436D01*
X295859Y207403D01*
X295780Y207378D01*
X295699Y207363D01*
X295616Y207356D01*
X295534Y207358D01*
X295452Y207369D01*
X295372Y207390D01*
X295295Y207419D01*
X295221Y207456D01*
X295152Y207501D01*
X295088Y207554D01*
X295030Y207613D01*
X294979Y207678D01*
X294936Y207748D01*
X294901Y207823D01*
X294874Y207901D01*
X294856Y207982D01*
X294847Y208064D01*
Y208147D01*
X294856Y208229D01*
X294874Y208309D01*
X294901Y208388D01*
X294936Y208462D01*
X294979Y208533D01*
X295030Y208598D01*
X295088Y208657D01*
X295152Y208710D01*
X295221Y208755D01*
X295295Y208792D01*
X295372Y208821D01*
X295452Y208842D01*
X295534Y208853D01*
X295616Y208855D01*
X295699Y208848D01*
X295780Y208832D01*
X295859Y208808D01*
X295934Y208775D01*
X296006Y208733D01*
X296073Y208684D01*
X296133Y208628D01*
X296188Y208566D01*
X296235Y208498D01*
X296274Y208426D01*
X296305Y208349D01*
X296328Y208269D01*
X296341Y208188D01*
X296346Y208105D01*
D18*
X253536Y205335D02*
D03*
X254036D02*
D03*
X254536D02*
D03*
X255036D02*
D03*
X257036Y198335D02*
D03*
X256536D02*
D03*
X256036D02*
D03*
X255536D02*
D03*
X255036D02*
D03*
X254536D02*
D03*
X254036D02*
D03*
X253536D02*
D03*
X256036Y205335D02*
D03*
X256536D02*
D03*
X257036D02*
D03*
X255536D02*
D03*
D19*
X268521Y199980D02*
D03*
X276521D02*
D03*
X277021D02*
D03*
X274021D02*
D03*
X273521D02*
D03*
X268021D02*
D03*
X270021D02*
D03*
X272521D02*
D03*
X273021D02*
D03*
X274521D02*
D03*
X275021D02*
D03*
X275521D02*
D03*
X269021Y215430D02*
D03*
X268521D02*
D03*
X268021D02*
D03*
X266021Y199980D02*
D03*
X272021D02*
D03*
X272521Y215430D02*
D03*
X277521Y199980D02*
D03*
X265521Y215430D02*
D03*
Y199980D02*
D03*
X271021D02*
D03*
X271521Y215430D02*
D03*
X276021Y199980D02*
D03*
X275021Y215430D02*
D03*
X274521D02*
D03*
X271521Y199980D02*
D03*
X272021Y215430D02*
D03*
X269521D02*
D03*
X270021D02*
D03*
X270521D02*
D03*
X271021D02*
D03*
X266021D02*
D03*
X277521D02*
D03*
X277021D02*
D03*
X276521D02*
D03*
X276021D02*
D03*
X275521D02*
D03*
X274021D02*
D03*
X273521D02*
D03*
X273021D02*
D03*
X267521D02*
D03*
X267021D02*
D03*
X266521D02*
D03*
X267021Y199980D02*
D03*
X267521D02*
D03*
X266521D02*
D03*
X270521D02*
D03*
X269021D02*
D03*
X269521D02*
D03*
D22*
X198550Y162705D02*
X198575D01*
X198550D02*
X198552Y162580D01*
X198560Y162454D01*
X198572Y162329D01*
X198589Y162204D01*
X198611Y162080D01*
X198637Y161957D01*
X198669Y161835D01*
X198705Y161714D01*
X198746Y161595D01*
X198791Y161478D01*
X198841Y161362D01*
X198895Y161249D01*
X198954Y161137D01*
X199017Y161028D01*
X199084Y160922D01*
X199155Y160818D01*
X199230Y160717D01*
X199309Y160619D01*
X199392Y160524D01*
X199478Y160432D01*
X199568Y160344D01*
X199661Y160260D01*
X199758Y160179D01*
X199857Y160102D01*
X199960Y160028D01*
X200065Y159959D01*
X200173Y159894D01*
X200283Y159833D01*
X200396Y159777D01*
X200510Y159725D01*
X200627Y159677D01*
X200745Y159634D01*
X200865Y159596D01*
X200986Y159562D01*
X201109Y159533D01*
X201232Y159509D01*
X201357Y159489D01*
X201482Y159475D01*
X201607Y159465D01*
X201733Y159460D01*
X201859D01*
X201985Y159465D01*
X202110Y159475D01*
X202235Y159489D01*
X202359Y159509D01*
X202483Y159533D01*
X202605Y159562D01*
X202727Y159596D01*
X202847Y159634D01*
X202965Y159677D01*
X203081Y159725D01*
X203196Y159777D01*
X203309Y159833D01*
X203419Y159894D01*
X203527Y159959D01*
X203632Y160028D01*
X203734Y160102D01*
X203834Y160179D01*
X203930Y160260D01*
X204023Y160344D01*
X204113Y160432D01*
X204200Y160524D01*
X204282Y160619D01*
X204361Y160717D01*
X204437Y160818D01*
X204508Y160922D01*
X204575Y161028D01*
X204638Y161137D01*
X204697Y161249D01*
X204751Y161362D01*
X204801Y161478D01*
X204846Y161595D01*
X204887Y161714D01*
X204923Y161835D01*
X204954Y161957D01*
X204981Y162080D01*
X205003Y162204D01*
X205020Y162329D01*
X205032Y162454D01*
X205039Y162580D01*
X205042Y162705D01*
X205067D01*
X205042D02*
X205039Y162831D01*
X205032Y162957D01*
X205020Y163082D01*
X205003Y163207D01*
X204981Y163331D01*
X204954Y163454D01*
X204923Y163576D01*
X204887Y163696D01*
X204846Y163816D01*
X204801Y163933D01*
X204751Y164049D01*
X204697Y164162D01*
X204638Y164274D01*
X204575Y164383D01*
X204508Y164489D01*
X204437Y164593D01*
X204361Y164694D01*
X204282Y164792D01*
X204200Y164887D01*
X204113Y164978D01*
X204023Y165066D01*
X203930Y165151D01*
X203834Y165232D01*
X203734Y165309D01*
X203632Y165382D01*
X203527Y165451D01*
X203419Y165517D01*
X203309Y165577D01*
X203196Y165634D01*
X203081Y165686D01*
X202965Y165734D01*
X202847Y165777D01*
X202727Y165815D01*
X202605Y165849D01*
X202483Y165878D01*
X202359Y165902D01*
X202235Y165922D01*
X202110Y165936D01*
X201985Y165946D01*
X201859Y165951D01*
X201733D01*
X201607Y165946D01*
X201482Y165936D01*
X201357Y165922D01*
X201232Y165902D01*
X201109Y165878D01*
X200986Y165849D01*
X200865Y165815D01*
X200745Y165777D01*
X200627Y165734D01*
X200510Y165686D01*
X200396Y165634D01*
X200283Y165577D01*
X200173Y165517D01*
X200065Y165451D01*
X199960Y165382D01*
X199857Y165309D01*
X199758Y165232D01*
X199661Y165151D01*
X199568Y165066D01*
X199478Y164978D01*
X199392Y164887D01*
X199309Y164792D01*
X199230Y164694D01*
X199155Y164593D01*
X199084Y164489D01*
X199017Y164383D01*
X198954Y164274D01*
X198895Y164162D01*
X198841Y164049D01*
X198791Y163933D01*
X198746Y163816D01*
X198705Y163696D01*
X198669Y163576D01*
X198637Y163454D01*
X198611Y163331D01*
X198589Y163207D01*
X198572Y163082D01*
X198560Y162957D01*
X198552Y162831D01*
X198550Y162705D01*
X199007D02*
X199032D01*
X199007D02*
X199010Y162578D01*
X199019Y162452D01*
X199033Y162326D01*
X199053Y162200D01*
X199079Y162076D01*
X199110Y161953D01*
X199147Y161832D01*
X199190Y161712D01*
X199238Y161594D01*
X199291Y161479D01*
X199350Y161366D01*
X199413Y161256D01*
X199481Y161149D01*
X199555Y161046D01*
X199632Y160945D01*
X199715Y160849D01*
X199802Y160756D01*
X199892Y160667D01*
X199987Y160583D01*
X200086Y160503D01*
X200188Y160427D01*
X200293Y160356D01*
X200401Y160290D01*
X200513Y160229D01*
X200627Y160173D01*
X200743Y160123D01*
X200862Y160078D01*
X200982Y160038D01*
X201105Y160004D01*
X201228Y159975D01*
X201353Y159952D01*
X201479Y159935D01*
X201605Y159923D01*
X201732Y159917D01*
X201859D01*
X201986Y159923D01*
X202113Y159935D01*
X202238Y159952D01*
X202363Y159975D01*
X202487Y160004D01*
X202609Y160038D01*
X202730Y160078D01*
X202848Y160123D01*
X202965Y160173D01*
X203079Y160229D01*
X203190Y160290D01*
X203299Y160356D01*
X203404Y160427D01*
X203506Y160503D01*
X203605Y160583D01*
X203699Y160667D01*
X203790Y160756D01*
X203877Y160849D01*
X203959Y160945D01*
X204037Y161046D01*
X204110Y161149D01*
X204179Y161256D01*
X204242Y161366D01*
X204300Y161479D01*
X204354Y161594D01*
X204402Y161712D01*
X204444Y161832D01*
X204481Y161953D01*
X204513Y162076D01*
X204538Y162200D01*
X204559Y162326D01*
X204573Y162452D01*
X204582Y162578D01*
X204585Y162705D01*
X204610D01*
X204585D02*
X204582Y162832D01*
X204573Y162959D01*
X204559Y163085D01*
X204538Y163210D01*
X204513Y163335D01*
X204481Y163458D01*
X204444Y163579D01*
X204402Y163699D01*
X204354Y163816D01*
X204300Y163932D01*
X204242Y164044D01*
X204179Y164154D01*
X204110Y164261D01*
X204037Y164365D01*
X203959Y164465D01*
X203877Y164562D01*
X203790Y164655D01*
X203699Y164744D01*
X203605Y164828D01*
X203506Y164908D01*
X203404Y164984D01*
X203299Y165055D01*
X203190Y165121D01*
X203079Y165182D01*
X202965Y165237D01*
X202848Y165288D01*
X202730Y165333D01*
X202609Y165373D01*
X202487Y165407D01*
X202363Y165436D01*
X202238Y165459D01*
X202113Y165476D01*
X201986Y165488D01*
X201859Y165493D01*
X201732D01*
X201605Y165488D01*
X201479Y165476D01*
X201353Y165459D01*
X201228Y165436D01*
X201105Y165407D01*
X200982Y165373D01*
X200862Y165333D01*
X200743Y165288D01*
X200627Y165237D01*
X200513Y165182D01*
X200401Y165121D01*
X200293Y165055D01*
X200188Y164984D01*
X200086Y164908D01*
X199987Y164828D01*
X199892Y164744D01*
X199802Y164655D01*
X199715Y164562D01*
X199632Y164465D01*
X199555Y164365D01*
X199481Y164261D01*
X199413Y164154D01*
X199350Y164044D01*
X199291Y163932D01*
X199238Y163816D01*
X199190Y163699D01*
X199147Y163579D01*
X199110Y163458D01*
X199079Y163335D01*
X199053Y163210D01*
X199033Y163085D01*
X199019Y162959D01*
X199010Y162832D01*
X199007Y162705D01*
X199464D02*
X199490D01*
X199464D02*
X199467Y162589D01*
X199476Y162473D01*
X199490Y162358D01*
X199510Y162243D01*
X199536Y162130D01*
X199568Y162018D01*
X199605Y161908D01*
X199647Y161800D01*
X199695Y161694D01*
X199748Y161590D01*
X199806Y161490D01*
X199869Y161392D01*
X199937Y161298D01*
X200010Y161207D01*
X200087Y161120D01*
X200168Y161036D01*
X200253Y160957D01*
X200342Y160882D01*
X200435Y160812D01*
X200531Y160747D01*
X200630Y160686D01*
X200732Y160631D01*
X200837Y160580D01*
X200944Y160535D01*
X201053Y160495D01*
X201164Y160461D01*
X201277Y160432D01*
X201391Y160409D01*
X201506Y160392D01*
X201622Y160380D01*
X201738Y160375D01*
X201854D01*
X201970Y160380D01*
X202086Y160392D01*
X202201Y160409D01*
X202315Y160432D01*
X202427Y160461D01*
X202538Y160495D01*
X202648Y160535D01*
X202755Y160580D01*
X202860Y160631D01*
X202962Y160686D01*
X203061Y160747D01*
X203157Y160812D01*
X203250Y160882D01*
X203339Y160957D01*
X203424Y161036D01*
X203505Y161120D01*
X203582Y161207D01*
X203654Y161298D01*
X203722Y161392D01*
X203785Y161490D01*
X203843Y161590D01*
X203896Y161694D01*
X203944Y161800D01*
X203987Y161908D01*
X204024Y162018D01*
X204055Y162130D01*
X204081Y162243D01*
X204101Y162358D01*
X204116Y162473D01*
X204125Y162589D01*
X204127Y162705D01*
X204153D01*
X204127D02*
X204125Y162822D01*
X204116Y162938D01*
X204101Y163053D01*
X204081Y163167D01*
X204055Y163281D01*
X204024Y163393D01*
X203987Y163503D01*
X203944Y163611D01*
X203896Y163717D01*
X203843Y163820D01*
X203785Y163921D01*
X203722Y164019D01*
X203654Y164113D01*
X203582Y164204D01*
X203505Y164291D01*
X203424Y164375D01*
X203339Y164454D01*
X203250Y164528D01*
X203157Y164599D01*
X203061Y164664D01*
X202962Y164725D01*
X202860Y164780D01*
X202755Y164831D01*
X202648Y164876D01*
X202538Y164916D01*
X202427Y164950D01*
X202315Y164979D01*
X202201Y165002D01*
X202086Y165019D01*
X201970Y165030D01*
X201854Y165036D01*
X201738D01*
X201622Y165030D01*
X201506Y165019D01*
X201391Y165002D01*
X201277Y164979D01*
X201164Y164950D01*
X201053Y164916D01*
X200944Y164876D01*
X200837Y164831D01*
X200732Y164780D01*
X200630Y164725D01*
X200531Y164664D01*
X200435Y164599D01*
X200342Y164528D01*
X200253Y164454D01*
X200168Y164375D01*
X200087Y164291D01*
X200010Y164204D01*
X199937Y164113D01*
X199869Y164019D01*
X199806Y163921D01*
X199748Y163820D01*
X199695Y163717D01*
X199647Y163611D01*
X199605Y163503D01*
X199568Y163393D01*
X199536Y163281D01*
X199510Y163167D01*
X199490Y163053D01*
X199476Y162938D01*
X199467Y162822D01*
X199464Y162705D01*
X199921D02*
X199947D01*
X199921D02*
X199925Y162590D01*
X199936Y162475D01*
X199953Y162361D01*
X199978Y162248D01*
X200010Y162137D01*
X200048Y162028D01*
X200093Y161922D01*
X200144Y161819D01*
X200202Y161719D01*
X200266Y161622D01*
X200335Y161530D01*
X200411Y161443D01*
X200491Y161360D01*
X200576Y161282D01*
X200666Y161210D01*
X200760Y161143D01*
X200859Y161082D01*
X200960Y161028D01*
X201065Y160979D01*
X201173Y160938D01*
X201283Y160903D01*
X201395Y160874D01*
X201508Y160853D01*
X201623Y160839D01*
X201738Y160832D01*
X201854D01*
X201969Y160839D01*
X202083Y160853D01*
X202197Y160874D01*
X202309Y160903D01*
X202419Y160938D01*
X202526Y160979D01*
X202631Y161028D01*
X202733Y161082D01*
X202831Y161143D01*
X202925Y161210D01*
X203015Y161282D01*
X203101Y161360D01*
X203181Y161443D01*
X203256Y161530D01*
X203326Y161622D01*
X203389Y161719D01*
X203447Y161819D01*
X203499Y161922D01*
X203544Y162028D01*
X203582Y162137D01*
X203614Y162248D01*
X203638Y162361D01*
X203656Y162475D01*
X203667Y162590D01*
X203670Y162705D01*
X203696D01*
X203670D02*
X203667Y162821D01*
X203656Y162936D01*
X203638Y163050D01*
X203614Y163163D01*
X203582Y163274D01*
X203544Y163383D01*
X203499Y163489D01*
X203447Y163592D01*
X203389Y163692D01*
X203326Y163788D01*
X203256Y163881D01*
X203181Y163968D01*
X203101Y164051D01*
X203015Y164129D01*
X202925Y164201D01*
X202831Y164268D01*
X202733Y164329D01*
X202631Y164383D01*
X202526Y164432D01*
X202419Y164473D01*
X202309Y164508D01*
X202197Y164536D01*
X202083Y164558D01*
X201969Y164572D01*
X201854Y164579D01*
X201738D01*
X201623Y164572D01*
X201508Y164558D01*
X201395Y164536D01*
X201283Y164508D01*
X201173Y164473D01*
X201065Y164432D01*
X200960Y164383D01*
X200859Y164329D01*
X200760Y164268D01*
X200666Y164201D01*
X200576Y164129D01*
X200491Y164051D01*
X200411Y163968D01*
X200335Y163881D01*
X200266Y163788D01*
X200202Y163692D01*
X200144Y163592D01*
X200093Y163489D01*
X200048Y163383D01*
X200010Y163274D01*
X199978Y163163D01*
X199953Y163050D01*
X199936Y162936D01*
X199925Y162821D01*
X199921Y162705D01*
X200379D02*
X200404D01*
X200379D02*
X200383Y162591D01*
X200397Y162478D01*
X200420Y162366D01*
X200452Y162257D01*
X200492Y162150D01*
X200541Y162047D01*
X200598Y161948D01*
X200663Y161854D01*
X200735Y161766D01*
X200814Y161683D01*
X200900Y161608D01*
X200991Y161539D01*
X201087Y161478D01*
X201188Y161425D01*
X201293Y161380D01*
X201402Y161344D01*
X201512Y161317D01*
X201625Y161299D01*
X201739Y161289D01*
X201853D01*
X201967Y161299D01*
X202079Y161317D01*
X202190Y161344D01*
X202298Y161380D01*
X202403Y161425D01*
X202504Y161478D01*
X202601Y161539D01*
X202692Y161608D01*
X202778Y161683D01*
X202857Y161766D01*
X202929Y161854D01*
X202994Y161948D01*
X203051Y162047D01*
X203100Y162150D01*
X203140Y162257D01*
X203172Y162366D01*
X203195Y162478D01*
X203208Y162591D01*
X203213Y162705D01*
X203238D01*
X203213D02*
X203208Y162819D01*
X203195Y162933D01*
X203172Y163045D01*
X203140Y163154D01*
X203100Y163261D01*
X203051Y163364D01*
X202994Y163463D01*
X202929Y163557D01*
X202857Y163645D01*
X202778Y163727D01*
X202692Y163803D01*
X202601Y163872D01*
X202504Y163933D01*
X202403Y163986D01*
X202298Y164031D01*
X202190Y164067D01*
X202079Y164094D01*
X201967Y164112D01*
X201853Y164121D01*
X201739D01*
X201625Y164112D01*
X201512Y164094D01*
X201402Y164067D01*
X201293Y164031D01*
X201188Y163986D01*
X201087Y163933D01*
X200991Y163872D01*
X200900Y163803D01*
X200814Y163727D01*
X200735Y163645D01*
X200663Y163557D01*
X200598Y163463D01*
X200541Y163364D01*
X200492Y163261D01*
X200452Y163154D01*
X200420Y163045D01*
X200397Y162933D01*
X200383Y162819D01*
X200379Y162705D01*
X200836D02*
X200861D01*
X200836D02*
X200842Y162594D01*
X200862Y162484D01*
X200894Y162377D01*
X200938Y162275D01*
X200994Y162178D01*
X201060Y162088D01*
X201137Y162007D01*
X201223Y161935D01*
X201316Y161874D01*
X201416Y161824D01*
X201520Y161786D01*
X201629Y161760D01*
X201740Y161747D01*
X201852D01*
X201963Y161760D01*
X202071Y161786D01*
X202176Y161824D01*
X202276Y161874D01*
X202369Y161935D01*
X202455Y162007D01*
X202531Y162088D01*
X202598Y162178D01*
X202654Y162275D01*
X202698Y162377D01*
X202730Y162484D01*
X202749Y162594D01*
X202756Y162705D01*
X202781D01*
X202756D02*
X202749Y162817D01*
X202730Y162927D01*
X202698Y163034D01*
X202654Y163136D01*
X202598Y163233D01*
X202531Y163322D01*
X202455Y163404D01*
X202369Y163475D01*
X202276Y163537D01*
X202176Y163587D01*
X202071Y163625D01*
X201963Y163651D01*
X201852Y163664D01*
X201740D01*
X201629Y163651D01*
X201520Y163625D01*
X201416Y163587D01*
X201316Y163537D01*
X201223Y163475D01*
X201137Y163404D01*
X201060Y163322D01*
X200994Y163233D01*
X200938Y163136D01*
X200894Y163034D01*
X200862Y162927D01*
X200842Y162817D01*
X200836Y162705D01*
X201293D02*
X201318D01*
X201293D02*
X201304Y162601D01*
X201336Y162501D01*
X201389Y162410D01*
X201459Y162332D01*
X201544Y162270D01*
X201640Y162227D01*
X201743Y162205D01*
X201848D01*
X201951Y162227D01*
X202047Y162270D01*
X202132Y162332D01*
X202203Y162410D01*
X202255Y162501D01*
X202288Y162601D01*
X202299Y162705D01*
X202324D01*
X202299D02*
X202288Y162810D01*
X202255Y162910D01*
X202203Y163001D01*
X202132Y163079D01*
X202047Y163141D01*
X201951Y163184D01*
X201848Y163205D01*
X201743D01*
X201640Y163184D01*
X201544Y163141D01*
X201459Y163079D01*
X201389Y163001D01*
X201336Y162910D01*
X201304Y162810D01*
X201293Y162705D01*
X201750D02*
X201776D01*
X201750D02*
X201753Y162690D01*
X201761Y162676D01*
X201773Y162666D01*
X201788Y162660D01*
X201804D01*
X201819Y162666D01*
X201831Y162676D01*
X201839Y162690D01*
X201841Y162705D01*
X201867D01*
X201841D02*
X201839Y162721D01*
X201831Y162735D01*
X201819Y162745D01*
X201804Y162750D01*
X201788D01*
X201773Y162745D01*
X201761Y162735D01*
X201753Y162721D01*
X201750Y162705D01*
X291550D02*
X291575D01*
X291550D02*
X291552Y162580D01*
X291560Y162454D01*
X291572Y162329D01*
X291589Y162204D01*
X291611Y162080D01*
X291637Y161957D01*
X291669Y161835D01*
X291705Y161714D01*
X291746Y161595D01*
X291791Y161478D01*
X291841Y161362D01*
X291895Y161249D01*
X291954Y161137D01*
X292017Y161028D01*
X292084Y160922D01*
X292155Y160818D01*
X292230Y160717D01*
X292309Y160619D01*
X292392Y160524D01*
X292478Y160432D01*
X292568Y160344D01*
X292661Y160260D01*
X292758Y160179D01*
X292857Y160102D01*
X292960Y160028D01*
X293065Y159959D01*
X293173Y159894D01*
X293283Y159833D01*
X293396Y159777D01*
X293510Y159725D01*
X293627Y159677D01*
X293745Y159634D01*
X293865Y159596D01*
X293986Y159562D01*
X294109Y159533D01*
X294232Y159509D01*
X294357Y159489D01*
X294482Y159475D01*
X294607Y159465D01*
X294733Y159460D01*
X294859D01*
X294985Y159465D01*
X295110Y159475D01*
X295235Y159489D01*
X295359Y159509D01*
X295483Y159533D01*
X295605Y159562D01*
X295727Y159596D01*
X295847Y159634D01*
X295965Y159677D01*
X296081Y159725D01*
X296196Y159777D01*
X296309Y159833D01*
X296419Y159894D01*
X296527Y159959D01*
X296632Y160028D01*
X296734Y160102D01*
X296834Y160179D01*
X296930Y160260D01*
X297023Y160344D01*
X297113Y160432D01*
X297200Y160524D01*
X297282Y160619D01*
X297361Y160717D01*
X297437Y160818D01*
X297508Y160922D01*
X297575Y161028D01*
X297638Y161137D01*
X297697Y161249D01*
X297751Y161362D01*
X297801Y161478D01*
X297846Y161595D01*
X297887Y161714D01*
X297923Y161835D01*
X297954Y161957D01*
X297981Y162080D01*
X298003Y162204D01*
X298020Y162329D01*
X298032Y162454D01*
X298039Y162580D01*
X298042Y162705D01*
X298067D01*
X298042D02*
X298039Y162831D01*
X298032Y162957D01*
X298020Y163082D01*
X298003Y163207D01*
X297981Y163331D01*
X297954Y163454D01*
X297923Y163576D01*
X297887Y163696D01*
X297846Y163816D01*
X297801Y163933D01*
X297751Y164049D01*
X297697Y164162D01*
X297638Y164274D01*
X297575Y164383D01*
X297508Y164489D01*
X297437Y164593D01*
X297361Y164694D01*
X297282Y164792D01*
X297200Y164887D01*
X297113Y164978D01*
X297023Y165066D01*
X296930Y165151D01*
X296834Y165232D01*
X296734Y165309D01*
X296632Y165382D01*
X296527Y165451D01*
X296419Y165517D01*
X296309Y165577D01*
X296196Y165634D01*
X296081Y165686D01*
X295965Y165734D01*
X295847Y165777D01*
X295727Y165815D01*
X295605Y165849D01*
X295483Y165878D01*
X295359Y165902D01*
X295235Y165922D01*
X295110Y165936D01*
X294985Y165946D01*
X294859Y165951D01*
X294733D01*
X294607Y165946D01*
X294482Y165936D01*
X294357Y165922D01*
X294232Y165902D01*
X294109Y165878D01*
X293986Y165849D01*
X293865Y165815D01*
X293745Y165777D01*
X293627Y165734D01*
X293510Y165686D01*
X293396Y165634D01*
X293283Y165577D01*
X293173Y165517D01*
X293065Y165451D01*
X292960Y165382D01*
X292857Y165309D01*
X292758Y165232D01*
X292661Y165151D01*
X292568Y165066D01*
X292478Y164978D01*
X292392Y164887D01*
X292309Y164792D01*
X292230Y164694D01*
X292155Y164593D01*
X292084Y164489D01*
X292017Y164383D01*
X291954Y164274D01*
X291895Y164162D01*
X291841Y164049D01*
X291791Y163933D01*
X291746Y163816D01*
X291705Y163696D01*
X291669Y163576D01*
X291637Y163454D01*
X291611Y163331D01*
X291589Y163207D01*
X291572Y163082D01*
X291560Y162957D01*
X291552Y162831D01*
X291550Y162705D01*
X292007D02*
X292032D01*
X292007D02*
X292010Y162578D01*
X292019Y162452D01*
X292033Y162326D01*
X292053Y162200D01*
X292079Y162076D01*
X292110Y161953D01*
X292147Y161832D01*
X292190Y161712D01*
X292238Y161594D01*
X292291Y161479D01*
X292350Y161366D01*
X292413Y161256D01*
X292481Y161149D01*
X292555Y161046D01*
X292632Y160945D01*
X292715Y160849D01*
X292802Y160756D01*
X292892Y160667D01*
X292987Y160583D01*
X293086Y160503D01*
X293188Y160427D01*
X293293Y160356D01*
X293401Y160290D01*
X293513Y160229D01*
X293627Y160173D01*
X293743Y160123D01*
X293862Y160078D01*
X293982Y160038D01*
X294105Y160004D01*
X294228Y159975D01*
X294353Y159952D01*
X294479Y159935D01*
X294605Y159923D01*
X294732Y159917D01*
X294859D01*
X294986Y159923D01*
X295113Y159935D01*
X295238Y159952D01*
X295363Y159975D01*
X295487Y160004D01*
X295609Y160038D01*
X295730Y160078D01*
X295848Y160123D01*
X295965Y160173D01*
X296079Y160229D01*
X296190Y160290D01*
X296299Y160356D01*
X296404Y160427D01*
X296506Y160503D01*
X296605Y160583D01*
X296699Y160667D01*
X296790Y160756D01*
X296877Y160849D01*
X296959Y160945D01*
X297037Y161046D01*
X297110Y161149D01*
X297179Y161256D01*
X297242Y161366D01*
X297300Y161479D01*
X297354Y161594D01*
X297402Y161712D01*
X297444Y161832D01*
X297481Y161953D01*
X297513Y162076D01*
X297538Y162200D01*
X297559Y162326D01*
X297573Y162452D01*
X297582Y162578D01*
X297585Y162705D01*
X297610D01*
X297585D02*
X297582Y162832D01*
X297573Y162959D01*
X297559Y163085D01*
X297538Y163210D01*
X297513Y163335D01*
X297481Y163458D01*
X297444Y163579D01*
X297402Y163699D01*
X297354Y163816D01*
X297300Y163932D01*
X297242Y164044D01*
X297179Y164154D01*
X297110Y164261D01*
X297037Y164365D01*
X296959Y164465D01*
X296877Y164562D01*
X296790Y164655D01*
X296699Y164744D01*
X296605Y164828D01*
X296506Y164908D01*
X296404Y164984D01*
X296299Y165055D01*
X296190Y165121D01*
X296079Y165182D01*
X295965Y165237D01*
X295848Y165288D01*
X295730Y165333D01*
X295609Y165373D01*
X295487Y165407D01*
X295363Y165436D01*
X295238Y165459D01*
X295113Y165476D01*
X294986Y165488D01*
X294859Y165493D01*
X294732D01*
X294605Y165488D01*
X294479Y165476D01*
X294353Y165459D01*
X294228Y165436D01*
X294105Y165407D01*
X293982Y165373D01*
X293862Y165333D01*
X293743Y165288D01*
X293627Y165237D01*
X293513Y165182D01*
X293401Y165121D01*
X293293Y165055D01*
X293188Y164984D01*
X293086Y164908D01*
X292987Y164828D01*
X292892Y164744D01*
X292802Y164655D01*
X292715Y164562D01*
X292632Y164465D01*
X292555Y164365D01*
X292481Y164261D01*
X292413Y164154D01*
X292350Y164044D01*
X292291Y163932D01*
X292238Y163816D01*
X292190Y163699D01*
X292147Y163579D01*
X292110Y163458D01*
X292079Y163335D01*
X292053Y163210D01*
X292033Y163085D01*
X292019Y162959D01*
X292010Y162832D01*
X292007Y162705D01*
X292464D02*
X292490D01*
X292464D02*
X292467Y162589D01*
X292476Y162473D01*
X292490Y162358D01*
X292510Y162243D01*
X292536Y162130D01*
X292568Y162018D01*
X292605Y161908D01*
X292647Y161800D01*
X292695Y161694D01*
X292748Y161590D01*
X292806Y161490D01*
X292869Y161392D01*
X292937Y161298D01*
X293010Y161207D01*
X293087Y161120D01*
X293168Y161036D01*
X293253Y160957D01*
X293342Y160882D01*
X293435Y160812D01*
X293531Y160747D01*
X293630Y160686D01*
X293732Y160631D01*
X293837Y160580D01*
X293944Y160535D01*
X294053Y160495D01*
X294164Y160461D01*
X294277Y160432D01*
X294391Y160409D01*
X294506Y160392D01*
X294622Y160380D01*
X294738Y160375D01*
X294854D01*
X294970Y160380D01*
X295086Y160392D01*
X295201Y160409D01*
X295315Y160432D01*
X295427Y160461D01*
X295538Y160495D01*
X295648Y160535D01*
X295755Y160580D01*
X295860Y160631D01*
X295962Y160686D01*
X296061Y160747D01*
X296157Y160812D01*
X296250Y160882D01*
X296339Y160957D01*
X296424Y161036D01*
X296505Y161120D01*
X296582Y161207D01*
X296654Y161298D01*
X296722Y161392D01*
X296785Y161490D01*
X296843Y161590D01*
X296896Y161694D01*
X296944Y161800D01*
X296987Y161908D01*
X297024Y162018D01*
X297055Y162130D01*
X297081Y162243D01*
X297101Y162358D01*
X297116Y162473D01*
X297125Y162589D01*
X297127Y162705D01*
X297153D01*
X297127D02*
X297125Y162822D01*
X297116Y162938D01*
X297101Y163053D01*
X297081Y163167D01*
X297055Y163281D01*
X297024Y163393D01*
X296987Y163503D01*
X296944Y163611D01*
X296896Y163717D01*
X296843Y163820D01*
X296785Y163921D01*
X296722Y164019D01*
X296654Y164113D01*
X296582Y164204D01*
X296505Y164291D01*
X296424Y164375D01*
X296339Y164454D01*
X296250Y164528D01*
X296157Y164599D01*
X296061Y164664D01*
X295962Y164725D01*
X295860Y164780D01*
X295755Y164831D01*
X295648Y164876D01*
X295538Y164916D01*
X295427Y164950D01*
X295315Y164979D01*
X295201Y165002D01*
X295086Y165019D01*
X294970Y165030D01*
X294854Y165036D01*
X294738D01*
X294622Y165030D01*
X294506Y165019D01*
X294391Y165002D01*
X294277Y164979D01*
X294164Y164950D01*
X294053Y164916D01*
X293944Y164876D01*
X293837Y164831D01*
X293732Y164780D01*
X293630Y164725D01*
X293531Y164664D01*
X293435Y164599D01*
X293342Y164528D01*
X293253Y164454D01*
X293168Y164375D01*
X293087Y164291D01*
X293010Y164204D01*
X292937Y164113D01*
X292869Y164019D01*
X292806Y163921D01*
X292748Y163820D01*
X292695Y163717D01*
X292647Y163611D01*
X292605Y163503D01*
X292568Y163393D01*
X292536Y163281D01*
X292510Y163167D01*
X292490Y163053D01*
X292476Y162938D01*
X292467Y162822D01*
X292464Y162705D01*
X292921D02*
X292947D01*
X292921D02*
X292925Y162590D01*
X292936Y162475D01*
X292953Y162361D01*
X292978Y162248D01*
X293010Y162137D01*
X293048Y162028D01*
X293093Y161922D01*
X293144Y161819D01*
X293202Y161719D01*
X293266Y161622D01*
X293335Y161530D01*
X293411Y161443D01*
X293491Y161360D01*
X293576Y161282D01*
X293666Y161210D01*
X293760Y161143D01*
X293859Y161082D01*
X293960Y161028D01*
X294065Y160979D01*
X294173Y160938D01*
X294283Y160903D01*
X294395Y160874D01*
X294508Y160853D01*
X294623Y160839D01*
X294738Y160832D01*
X294854D01*
X294969Y160839D01*
X295083Y160853D01*
X295197Y160874D01*
X295309Y160903D01*
X295419Y160938D01*
X295526Y160979D01*
X295631Y161028D01*
X295733Y161082D01*
X295831Y161143D01*
X295925Y161210D01*
X296015Y161282D01*
X296101Y161360D01*
X296181Y161443D01*
X296256Y161530D01*
X296326Y161622D01*
X296389Y161719D01*
X296447Y161819D01*
X296499Y161922D01*
X296544Y162028D01*
X296582Y162137D01*
X296614Y162248D01*
X296638Y162361D01*
X296656Y162475D01*
X296667Y162590D01*
X296670Y162705D01*
X296696D01*
X296670D02*
X296667Y162821D01*
X296656Y162936D01*
X296638Y163050D01*
X296614Y163163D01*
X296582Y163274D01*
X296544Y163383D01*
X296499Y163489D01*
X296447Y163592D01*
X296389Y163692D01*
X296326Y163788D01*
X296256Y163881D01*
X296181Y163968D01*
X296101Y164051D01*
X296015Y164129D01*
X295925Y164201D01*
X295831Y164268D01*
X295733Y164329D01*
X295631Y164383D01*
X295526Y164432D01*
X295419Y164473D01*
X295309Y164508D01*
X295197Y164536D01*
X295083Y164558D01*
X294969Y164572D01*
X294854Y164579D01*
X294738D01*
X294623Y164572D01*
X294508Y164558D01*
X294395Y164536D01*
X294283Y164508D01*
X294173Y164473D01*
X294065Y164432D01*
X293960Y164383D01*
X293859Y164329D01*
X293760Y164268D01*
X293666Y164201D01*
X293576Y164129D01*
X293491Y164051D01*
X293411Y163968D01*
X293335Y163881D01*
X293266Y163788D01*
X293202Y163692D01*
X293144Y163592D01*
X293093Y163489D01*
X293048Y163383D01*
X293010Y163274D01*
X292978Y163163D01*
X292953Y163050D01*
X292936Y162936D01*
X292925Y162821D01*
X292921Y162705D01*
X293379D02*
X293404D01*
X293379D02*
X293383Y162591D01*
X293397Y162478D01*
X293420Y162366D01*
X293452Y162257D01*
X293492Y162150D01*
X293541Y162047D01*
X293598Y161948D01*
X293663Y161854D01*
X293735Y161766D01*
X293814Y161683D01*
X293900Y161608D01*
X293991Y161539D01*
X294087Y161478D01*
X294188Y161425D01*
X294293Y161380D01*
X294402Y161344D01*
X294512Y161317D01*
X294625Y161299D01*
X294739Y161289D01*
X294853D01*
X294967Y161299D01*
X295079Y161317D01*
X295190Y161344D01*
X295298Y161380D01*
X295403Y161425D01*
X295504Y161478D01*
X295601Y161539D01*
X295692Y161608D01*
X295778Y161683D01*
X295857Y161766D01*
X295929Y161854D01*
X295994Y161948D01*
X296051Y162047D01*
X296100Y162150D01*
X296140Y162257D01*
X296172Y162366D01*
X296195Y162478D01*
X296208Y162591D01*
X296213Y162705D01*
X296238D01*
X296213D02*
X296208Y162819D01*
X296195Y162933D01*
X296172Y163045D01*
X296140Y163154D01*
X296100Y163261D01*
X296051Y163364D01*
X295994Y163463D01*
X295929Y163557D01*
X295857Y163645D01*
X295778Y163727D01*
X295692Y163803D01*
X295601Y163872D01*
X295504Y163933D01*
X295403Y163986D01*
X295298Y164031D01*
X295190Y164067D01*
X295079Y164094D01*
X294967Y164112D01*
X294853Y164121D01*
X294739D01*
X294625Y164112D01*
X294512Y164094D01*
X294402Y164067D01*
X294293Y164031D01*
X294188Y163986D01*
X294087Y163933D01*
X293991Y163872D01*
X293900Y163803D01*
X293814Y163727D01*
X293735Y163645D01*
X293663Y163557D01*
X293598Y163463D01*
X293541Y163364D01*
X293492Y163261D01*
X293452Y163154D01*
X293420Y163045D01*
X293397Y162933D01*
X293383Y162819D01*
X293379Y162705D01*
X293836D02*
X293861D01*
X293836D02*
X293842Y162594D01*
X293862Y162484D01*
X293894Y162377D01*
X293938Y162275D01*
X293994Y162178D01*
X294060Y162088D01*
X294137Y162007D01*
X294223Y161935D01*
X294316Y161874D01*
X294416Y161824D01*
X294520Y161786D01*
X294629Y161760D01*
X294740Y161747D01*
X294852D01*
X294963Y161760D01*
X295071Y161786D01*
X295176Y161824D01*
X295276Y161874D01*
X295369Y161935D01*
X295455Y162007D01*
X295531Y162088D01*
X295598Y162178D01*
X295654Y162275D01*
X295698Y162377D01*
X295730Y162484D01*
X295749Y162594D01*
X295756Y162705D01*
X295781D01*
X295756D02*
X295749Y162817D01*
X295730Y162927D01*
X295698Y163034D01*
X295654Y163136D01*
X295598Y163233D01*
X295531Y163322D01*
X295455Y163404D01*
X295369Y163475D01*
X295276Y163537D01*
X295176Y163587D01*
X295071Y163625D01*
X294963Y163651D01*
X294852Y163664D01*
X294740D01*
X294629Y163651D01*
X294520Y163625D01*
X294416Y163587D01*
X294316Y163537D01*
X294223Y163475D01*
X294137Y163404D01*
X294060Y163322D01*
X293994Y163233D01*
X293938Y163136D01*
X293894Y163034D01*
X293862Y162927D01*
X293842Y162817D01*
X293836Y162705D01*
X294293D02*
X294318D01*
X294293D02*
X294304Y162601D01*
X294336Y162501D01*
X294389Y162410D01*
X294459Y162332D01*
X294544Y162270D01*
X294640Y162227D01*
X294743Y162205D01*
X294848D01*
X294951Y162227D01*
X295047Y162270D01*
X295132Y162332D01*
X295203Y162410D01*
X295255Y162501D01*
X295288Y162601D01*
X295299Y162705D01*
X295324D01*
X295299D02*
X295288Y162810D01*
X295255Y162910D01*
X295203Y163001D01*
X295132Y163079D01*
X295047Y163141D01*
X294951Y163184D01*
X294848Y163205D01*
X294743D01*
X294640Y163184D01*
X294544Y163141D01*
X294459Y163079D01*
X294389Y163001D01*
X294336Y162910D01*
X294304Y162810D01*
X294293Y162705D01*
X294750D02*
X294776D01*
X294750D02*
X294753Y162690D01*
X294761Y162676D01*
X294773Y162666D01*
X294788Y162660D01*
X294804D01*
X294819Y162666D01*
X294831Y162676D01*
X294839Y162690D01*
X294841Y162705D01*
X294867D01*
X294841D02*
X294839Y162721D01*
X294831Y162735D01*
X294819Y162745D01*
X294804Y162750D01*
X294788D01*
X294773Y162745D01*
X294761Y162735D01*
X294753Y162721D01*
X294750Y162705D01*
X291550Y237705D02*
X291575D01*
X291550D02*
X291552Y237580D01*
X291560Y237454D01*
X291572Y237329D01*
X291589Y237204D01*
X291611Y237080D01*
X291637Y236957D01*
X291669Y236835D01*
X291705Y236714D01*
X291746Y236595D01*
X291791Y236478D01*
X291841Y236362D01*
X291895Y236249D01*
X291954Y236137D01*
X292017Y236028D01*
X292084Y235922D01*
X292155Y235818D01*
X292230Y235717D01*
X292309Y235619D01*
X292392Y235524D01*
X292478Y235432D01*
X292568Y235344D01*
X292661Y235260D01*
X292758Y235179D01*
X292857Y235102D01*
X292960Y235028D01*
X293065Y234959D01*
X293173Y234894D01*
X293283Y234833D01*
X293396Y234777D01*
X293510Y234725D01*
X293627Y234677D01*
X293745Y234634D01*
X293865Y234596D01*
X293986Y234562D01*
X294109Y234533D01*
X294232Y234509D01*
X294357Y234489D01*
X294482Y234475D01*
X294607Y234465D01*
X294733Y234460D01*
X294859D01*
X294985Y234465D01*
X295110Y234475D01*
X295235Y234489D01*
X295359Y234509D01*
X295483Y234533D01*
X295605Y234562D01*
X295727Y234596D01*
X295847Y234634D01*
X295965Y234677D01*
X296081Y234725D01*
X296196Y234777D01*
X296309Y234833D01*
X296419Y234894D01*
X296527Y234959D01*
X296632Y235028D01*
X296734Y235102D01*
X296834Y235179D01*
X296930Y235260D01*
X297023Y235344D01*
X297113Y235432D01*
X297200Y235524D01*
X297282Y235619D01*
X297361Y235717D01*
X297437Y235818D01*
X297508Y235922D01*
X297575Y236028D01*
X297638Y236137D01*
X297697Y236249D01*
X297751Y236362D01*
X297801Y236478D01*
X297846Y236595D01*
X297887Y236714D01*
X297923Y236835D01*
X297954Y236957D01*
X297981Y237080D01*
X298003Y237204D01*
X298020Y237329D01*
X298032Y237454D01*
X298039Y237580D01*
X298042Y237705D01*
X298067D01*
X298042D02*
X298039Y237831D01*
X298032Y237957D01*
X298020Y238082D01*
X298003Y238207D01*
X297981Y238331D01*
X297954Y238454D01*
X297923Y238576D01*
X297887Y238696D01*
X297846Y238816D01*
X297801Y238933D01*
X297751Y239049D01*
X297697Y239162D01*
X297638Y239274D01*
X297575Y239383D01*
X297508Y239489D01*
X297437Y239593D01*
X297361Y239694D01*
X297282Y239792D01*
X297200Y239887D01*
X297113Y239978D01*
X297023Y240066D01*
X296930Y240151D01*
X296834Y240232D01*
X296734Y240309D01*
X296632Y240382D01*
X296527Y240451D01*
X296419Y240517D01*
X296309Y240577D01*
X296196Y240634D01*
X296081Y240686D01*
X295965Y240734D01*
X295847Y240777D01*
X295727Y240815D01*
X295605Y240849D01*
X295483Y240878D01*
X295359Y240902D01*
X295235Y240922D01*
X295110Y240936D01*
X294985Y240946D01*
X294859Y240951D01*
X294733D01*
X294607Y240946D01*
X294482Y240936D01*
X294357Y240922D01*
X294232Y240902D01*
X294109Y240878D01*
X293986Y240849D01*
X293865Y240815D01*
X293745Y240777D01*
X293627Y240734D01*
X293510Y240686D01*
X293396Y240634D01*
X293283Y240577D01*
X293173Y240517D01*
X293065Y240451D01*
X292960Y240382D01*
X292857Y240309D01*
X292758Y240232D01*
X292661Y240151D01*
X292568Y240066D01*
X292478Y239978D01*
X292392Y239887D01*
X292309Y239792D01*
X292230Y239694D01*
X292155Y239593D01*
X292084Y239489D01*
X292017Y239383D01*
X291954Y239274D01*
X291895Y239162D01*
X291841Y239049D01*
X291791Y238933D01*
X291746Y238816D01*
X291705Y238696D01*
X291669Y238576D01*
X291637Y238454D01*
X291611Y238331D01*
X291589Y238207D01*
X291572Y238082D01*
X291560Y237957D01*
X291552Y237831D01*
X291550Y237705D01*
X292007D02*
X292032D01*
X292007D02*
X292010Y237578D01*
X292019Y237452D01*
X292033Y237326D01*
X292053Y237200D01*
X292079Y237076D01*
X292110Y236953D01*
X292147Y236832D01*
X292190Y236712D01*
X292238Y236594D01*
X292291Y236479D01*
X292350Y236366D01*
X292413Y236256D01*
X292481Y236149D01*
X292555Y236046D01*
X292632Y235945D01*
X292715Y235849D01*
X292802Y235756D01*
X292892Y235667D01*
X292987Y235583D01*
X293086Y235503D01*
X293188Y235427D01*
X293293Y235356D01*
X293401Y235290D01*
X293513Y235229D01*
X293627Y235173D01*
X293743Y235123D01*
X293862Y235078D01*
X293982Y235038D01*
X294105Y235004D01*
X294228Y234975D01*
X294353Y234952D01*
X294479Y234935D01*
X294605Y234923D01*
X294732Y234917D01*
X294859D01*
X294986Y234923D01*
X295113Y234935D01*
X295238Y234952D01*
X295363Y234975D01*
X295487Y235004D01*
X295609Y235038D01*
X295730Y235078D01*
X295848Y235123D01*
X295965Y235173D01*
X296079Y235229D01*
X296190Y235290D01*
X296299Y235356D01*
X296404Y235427D01*
X296506Y235503D01*
X296605Y235583D01*
X296699Y235667D01*
X296790Y235756D01*
X296877Y235849D01*
X296959Y235945D01*
X297037Y236046D01*
X297110Y236149D01*
X297179Y236256D01*
X297242Y236366D01*
X297300Y236479D01*
X297354Y236594D01*
X297402Y236712D01*
X297444Y236832D01*
X297481Y236953D01*
X297513Y237076D01*
X297538Y237200D01*
X297559Y237326D01*
X297573Y237452D01*
X297582Y237578D01*
X297585Y237705D01*
X297610D01*
X297585D02*
X297582Y237832D01*
X297573Y237959D01*
X297559Y238085D01*
X297538Y238210D01*
X297513Y238335D01*
X297481Y238458D01*
X297444Y238579D01*
X297402Y238699D01*
X297354Y238816D01*
X297300Y238932D01*
X297242Y239044D01*
X297179Y239154D01*
X297110Y239261D01*
X297037Y239365D01*
X296959Y239465D01*
X296877Y239562D01*
X296790Y239655D01*
X296699Y239744D01*
X296605Y239828D01*
X296506Y239908D01*
X296404Y239984D01*
X296299Y240055D01*
X296190Y240121D01*
X296079Y240182D01*
X295965Y240237D01*
X295848Y240288D01*
X295730Y240333D01*
X295609Y240373D01*
X295487Y240407D01*
X295363Y240436D01*
X295238Y240459D01*
X295113Y240476D01*
X294986Y240488D01*
X294859Y240493D01*
X294732D01*
X294605Y240488D01*
X294479Y240476D01*
X294353Y240459D01*
X294228Y240436D01*
X294105Y240407D01*
X293982Y240373D01*
X293862Y240333D01*
X293743Y240288D01*
X293627Y240237D01*
X293513Y240182D01*
X293401Y240121D01*
X293293Y240055D01*
X293188Y239984D01*
X293086Y239908D01*
X292987Y239828D01*
X292892Y239744D01*
X292802Y239655D01*
X292715Y239562D01*
X292632Y239465D01*
X292555Y239365D01*
X292481Y239261D01*
X292413Y239154D01*
X292350Y239044D01*
X292291Y238932D01*
X292238Y238816D01*
X292190Y238699D01*
X292147Y238579D01*
X292110Y238458D01*
X292079Y238335D01*
X292053Y238210D01*
X292033Y238085D01*
X292019Y237959D01*
X292010Y237832D01*
X292007Y237705D01*
X292464D02*
X292490D01*
X292464D02*
X292467Y237589D01*
X292476Y237473D01*
X292490Y237358D01*
X292510Y237243D01*
X292536Y237130D01*
X292568Y237018D01*
X292605Y236908D01*
X292647Y236800D01*
X292695Y236694D01*
X292748Y236590D01*
X292806Y236490D01*
X292869Y236392D01*
X292937Y236298D01*
X293010Y236207D01*
X293087Y236120D01*
X293168Y236036D01*
X293253Y235957D01*
X293342Y235882D01*
X293435Y235812D01*
X293531Y235747D01*
X293630Y235686D01*
X293732Y235631D01*
X293837Y235580D01*
X293944Y235535D01*
X294053Y235495D01*
X294164Y235461D01*
X294277Y235432D01*
X294391Y235409D01*
X294506Y235392D01*
X294622Y235380D01*
X294738Y235375D01*
X294854D01*
X294970Y235380D01*
X295086Y235392D01*
X295201Y235409D01*
X295315Y235432D01*
X295427Y235461D01*
X295538Y235495D01*
X295648Y235535D01*
X295755Y235580D01*
X295860Y235631D01*
X295962Y235686D01*
X296061Y235747D01*
X296157Y235812D01*
X296250Y235882D01*
X296339Y235957D01*
X296424Y236036D01*
X296505Y236120D01*
X296582Y236207D01*
X296654Y236298D01*
X296722Y236392D01*
X296785Y236490D01*
X296843Y236590D01*
X296896Y236694D01*
X296944Y236800D01*
X296987Y236908D01*
X297024Y237018D01*
X297055Y237130D01*
X297081Y237243D01*
X297101Y237358D01*
X297116Y237473D01*
X297125Y237589D01*
X297127Y237705D01*
X297153D01*
X297127D02*
X297125Y237822D01*
X297116Y237938D01*
X297101Y238053D01*
X297081Y238167D01*
X297055Y238281D01*
X297024Y238393D01*
X296987Y238503D01*
X296944Y238611D01*
X296896Y238717D01*
X296843Y238820D01*
X296785Y238921D01*
X296722Y239019D01*
X296654Y239113D01*
X296582Y239204D01*
X296505Y239291D01*
X296424Y239375D01*
X296339Y239454D01*
X296250Y239528D01*
X296157Y239599D01*
X296061Y239664D01*
X295962Y239725D01*
X295860Y239780D01*
X295755Y239831D01*
X295648Y239876D01*
X295538Y239916D01*
X295427Y239950D01*
X295315Y239979D01*
X295201Y240002D01*
X295086Y240019D01*
X294970Y240030D01*
X294854Y240036D01*
X294738D01*
X294622Y240030D01*
X294506Y240019D01*
X294391Y240002D01*
X294277Y239979D01*
X294164Y239950D01*
X294053Y239916D01*
X293944Y239876D01*
X293837Y239831D01*
X293732Y239780D01*
X293630Y239725D01*
X293531Y239664D01*
X293435Y239599D01*
X293342Y239528D01*
X293253Y239454D01*
X293168Y239375D01*
X293087Y239291D01*
X293010Y239204D01*
X292937Y239113D01*
X292869Y239019D01*
X292806Y238921D01*
X292748Y238820D01*
X292695Y238717D01*
X292647Y238611D01*
X292605Y238503D01*
X292568Y238393D01*
X292536Y238281D01*
X292510Y238167D01*
X292490Y238053D01*
X292476Y237938D01*
X292467Y237822D01*
X292464Y237705D01*
X292921D02*
X292947D01*
X292921D02*
X292925Y237590D01*
X292936Y237475D01*
X292953Y237361D01*
X292978Y237248D01*
X293010Y237137D01*
X293048Y237028D01*
X293093Y236922D01*
X293144Y236819D01*
X293202Y236719D01*
X293266Y236622D01*
X293335Y236530D01*
X293411Y236443D01*
X293491Y236360D01*
X293576Y236282D01*
X293666Y236210D01*
X293760Y236143D01*
X293859Y236082D01*
X293960Y236028D01*
X294065Y235979D01*
X294173Y235938D01*
X294283Y235903D01*
X294395Y235874D01*
X294508Y235853D01*
X294623Y235839D01*
X294738Y235832D01*
X294854D01*
X294969Y235839D01*
X295083Y235853D01*
X295197Y235874D01*
X295309Y235903D01*
X295419Y235938D01*
X295526Y235979D01*
X295631Y236028D01*
X295733Y236082D01*
X295831Y236143D01*
X295925Y236210D01*
X296015Y236282D01*
X296101Y236360D01*
X296181Y236443D01*
X296256Y236530D01*
X296326Y236622D01*
X296389Y236719D01*
X296447Y236819D01*
X296499Y236922D01*
X296544Y237028D01*
X296582Y237137D01*
X296614Y237248D01*
X296638Y237361D01*
X296656Y237475D01*
X296667Y237590D01*
X296670Y237705D01*
X296696D01*
X296670D02*
X296667Y237821D01*
X296656Y237936D01*
X296638Y238050D01*
X296614Y238163D01*
X296582Y238274D01*
X296544Y238383D01*
X296499Y238489D01*
X296447Y238592D01*
X296389Y238692D01*
X296326Y238788D01*
X296256Y238881D01*
X296181Y238968D01*
X296101Y239051D01*
X296015Y239129D01*
X295925Y239201D01*
X295831Y239268D01*
X295733Y239329D01*
X295631Y239383D01*
X295526Y239432D01*
X295419Y239473D01*
X295309Y239508D01*
X295197Y239536D01*
X295083Y239558D01*
X294969Y239572D01*
X294854Y239579D01*
X294738D01*
X294623Y239572D01*
X294508Y239558D01*
X294395Y239536D01*
X294283Y239508D01*
X294173Y239473D01*
X294065Y239432D01*
X293960Y239383D01*
X293859Y239329D01*
X293760Y239268D01*
X293666Y239201D01*
X293576Y239129D01*
X293491Y239051D01*
X293411Y238968D01*
X293335Y238881D01*
X293266Y238788D01*
X293202Y238692D01*
X293144Y238592D01*
X293093Y238489D01*
X293048Y238383D01*
X293010Y238274D01*
X292978Y238163D01*
X292953Y238050D01*
X292936Y237936D01*
X292925Y237821D01*
X292921Y237705D01*
X293379D02*
X293404D01*
X293379D02*
X293383Y237591D01*
X293397Y237478D01*
X293420Y237366D01*
X293452Y237257D01*
X293492Y237150D01*
X293541Y237047D01*
X293598Y236948D01*
X293663Y236854D01*
X293735Y236766D01*
X293814Y236683D01*
X293900Y236608D01*
X293991Y236539D01*
X294087Y236478D01*
X294188Y236425D01*
X294293Y236380D01*
X294402Y236344D01*
X294512Y236317D01*
X294625Y236299D01*
X294739Y236289D01*
X294853D01*
X294967Y236299D01*
X295079Y236317D01*
X295190Y236344D01*
X295298Y236380D01*
X295403Y236425D01*
X295504Y236478D01*
X295601Y236539D01*
X295692Y236608D01*
X295778Y236683D01*
X295857Y236766D01*
X295929Y236854D01*
X295994Y236948D01*
X296051Y237047D01*
X296100Y237150D01*
X296140Y237257D01*
X296172Y237366D01*
X296195Y237478D01*
X296208Y237591D01*
X296213Y237705D01*
X296238D01*
X296213D02*
X296208Y237819D01*
X296195Y237933D01*
X296172Y238045D01*
X296140Y238154D01*
X296100Y238261D01*
X296051Y238364D01*
X295994Y238463D01*
X295929Y238557D01*
X295857Y238645D01*
X295778Y238727D01*
X295692Y238803D01*
X295601Y238872D01*
X295504Y238933D01*
X295403Y238986D01*
X295298Y239030D01*
X295190Y239067D01*
X295079Y239094D01*
X294967Y239112D01*
X294853Y239121D01*
X294739D01*
X294625Y239112D01*
X294512Y239094D01*
X294402Y239067D01*
X294293Y239030D01*
X294188Y238986D01*
X294087Y238933D01*
X293991Y238872D01*
X293900Y238803D01*
X293814Y238727D01*
X293735Y238645D01*
X293663Y238557D01*
X293598Y238463D01*
X293541Y238364D01*
X293492Y238261D01*
X293452Y238154D01*
X293420Y238045D01*
X293397Y237933D01*
X293383Y237819D01*
X293379Y237705D01*
X293836D02*
X293861D01*
X293836D02*
X293842Y237594D01*
X293862Y237484D01*
X293894Y237377D01*
X293938Y237275D01*
X293994Y237178D01*
X294060Y237088D01*
X294137Y237007D01*
X294223Y236935D01*
X294316Y236874D01*
X294416Y236824D01*
X294520Y236786D01*
X294629Y236760D01*
X294740Y236747D01*
X294852D01*
X294963Y236760D01*
X295071Y236786D01*
X295176Y236824D01*
X295276Y236874D01*
X295369Y236935D01*
X295455Y237007D01*
X295531Y237088D01*
X295598Y237178D01*
X295654Y237275D01*
X295698Y237377D01*
X295730Y237484D01*
X295749Y237594D01*
X295756Y237705D01*
X295781D01*
X295756D02*
X295749Y237817D01*
X295730Y237927D01*
X295698Y238034D01*
X295654Y238136D01*
X295598Y238233D01*
X295531Y238322D01*
X295455Y238404D01*
X295369Y238475D01*
X295276Y238537D01*
X295176Y238587D01*
X295071Y238625D01*
X294963Y238651D01*
X294852Y238664D01*
X294740D01*
X294629Y238651D01*
X294520Y238625D01*
X294416Y238587D01*
X294316Y238537D01*
X294223Y238475D01*
X294137Y238404D01*
X294060Y238322D01*
X293994Y238233D01*
X293938Y238136D01*
X293894Y238034D01*
X293862Y237927D01*
X293842Y237817D01*
X293836Y237705D01*
X294293D02*
X294318D01*
X294293D02*
X294304Y237601D01*
X294336Y237501D01*
X294389Y237410D01*
X294459Y237332D01*
X294544Y237270D01*
X294640Y237227D01*
X294743Y237205D01*
X294848D01*
X294951Y237227D01*
X295047Y237270D01*
X295132Y237332D01*
X295203Y237410D01*
X295255Y237501D01*
X295288Y237601D01*
X295299Y237705D01*
X295324D01*
X295299D02*
X295288Y237810D01*
X295255Y237910D01*
X295203Y238001D01*
X295132Y238079D01*
X295047Y238141D01*
X294951Y238184D01*
X294848Y238205D01*
X294743D01*
X294640Y238184D01*
X294544Y238141D01*
X294459Y238079D01*
X294389Y238001D01*
X294336Y237910D01*
X294304Y237810D01*
X294293Y237705D01*
X294750D02*
X294776D01*
X294750D02*
X294753Y237690D01*
X294761Y237676D01*
X294773Y237666D01*
X294788Y237660D01*
X294804D01*
X294819Y237666D01*
X294831Y237676D01*
X294839Y237690D01*
X294841Y237705D01*
X294867D01*
X294841D02*
X294839Y237721D01*
X294831Y237735D01*
X294819Y237745D01*
X294804Y237750D01*
X294788D01*
X294773Y237745D01*
X294761Y237735D01*
X294753Y237721D01*
X294750Y237705D01*
X198550D02*
X198575D01*
X198550D02*
X198552Y237580D01*
X198560Y237454D01*
X198572Y237329D01*
X198589Y237204D01*
X198611Y237080D01*
X198637Y236957D01*
X198669Y236835D01*
X198705Y236714D01*
X198746Y236595D01*
X198791Y236478D01*
X198841Y236362D01*
X198895Y236249D01*
X198954Y236137D01*
X199017Y236028D01*
X199084Y235922D01*
X199155Y235818D01*
X199230Y235717D01*
X199309Y235619D01*
X199392Y235524D01*
X199478Y235432D01*
X199568Y235344D01*
X199661Y235260D01*
X199758Y235179D01*
X199857Y235102D01*
X199960Y235028D01*
X200065Y234959D01*
X200173Y234894D01*
X200283Y234833D01*
X200396Y234777D01*
X200510Y234725D01*
X200627Y234677D01*
X200745Y234634D01*
X200865Y234596D01*
X200986Y234562D01*
X201109Y234533D01*
X201232Y234509D01*
X201357Y234489D01*
X201482Y234475D01*
X201607Y234465D01*
X201733Y234460D01*
X201859D01*
X201985Y234465D01*
X202110Y234475D01*
X202235Y234489D01*
X202359Y234509D01*
X202483Y234533D01*
X202605Y234562D01*
X202727Y234596D01*
X202847Y234634D01*
X202965Y234677D01*
X203081Y234725D01*
X203196Y234777D01*
X203309Y234833D01*
X203419Y234894D01*
X203527Y234959D01*
X203632Y235028D01*
X203734Y235102D01*
X203834Y235179D01*
X203930Y235260D01*
X204023Y235344D01*
X204113Y235432D01*
X204200Y235524D01*
X204282Y235619D01*
X204361Y235717D01*
X204437Y235818D01*
X204508Y235922D01*
X204575Y236028D01*
X204638Y236137D01*
X204697Y236249D01*
X204751Y236362D01*
X204801Y236478D01*
X204846Y236595D01*
X204887Y236714D01*
X204923Y236835D01*
X204954Y236957D01*
X204981Y237080D01*
X205003Y237204D01*
X205020Y237329D01*
X205032Y237454D01*
X205039Y237580D01*
X205042Y237705D01*
X205067D01*
X205042D02*
X205039Y237831D01*
X205032Y237957D01*
X205020Y238082D01*
X205003Y238207D01*
X204981Y238331D01*
X204954Y238454D01*
X204923Y238576D01*
X204887Y238696D01*
X204846Y238816D01*
X204801Y238933D01*
X204751Y239049D01*
X204697Y239162D01*
X204638Y239274D01*
X204575Y239383D01*
X204508Y239489D01*
X204437Y239593D01*
X204361Y239694D01*
X204282Y239792D01*
X204200Y239887D01*
X204113Y239978D01*
X204023Y240066D01*
X203930Y240151D01*
X203834Y240232D01*
X203734Y240309D01*
X203632Y240382D01*
X203527Y240451D01*
X203419Y240517D01*
X203309Y240577D01*
X203196Y240634D01*
X203081Y240686D01*
X202965Y240734D01*
X202847Y240777D01*
X202727Y240815D01*
X202605Y240849D01*
X202483Y240878D01*
X202359Y240902D01*
X202235Y240922D01*
X202110Y240936D01*
X201985Y240946D01*
X201859Y240951D01*
X201733D01*
X201607Y240946D01*
X201482Y240936D01*
X201357Y240922D01*
X201232Y240902D01*
X201109Y240878D01*
X200986Y240849D01*
X200865Y240815D01*
X200745Y240777D01*
X200627Y240734D01*
X200510Y240686D01*
X200396Y240634D01*
X200283Y240577D01*
X200173Y240517D01*
X200065Y240451D01*
X199960Y240382D01*
X199857Y240309D01*
X199758Y240232D01*
X199661Y240151D01*
X199568Y240066D01*
X199478Y239978D01*
X199392Y239887D01*
X199309Y239792D01*
X199230Y239694D01*
X199155Y239593D01*
X199084Y239489D01*
X199017Y239383D01*
X198954Y239274D01*
X198895Y239162D01*
X198841Y239049D01*
X198791Y238933D01*
X198746Y238816D01*
X198705Y238696D01*
X198669Y238576D01*
X198637Y238454D01*
X198611Y238331D01*
X198589Y238207D01*
X198572Y238082D01*
X198560Y237957D01*
X198552Y237831D01*
X198550Y237705D01*
X199007D02*
X199032D01*
X199007D02*
X199010Y237578D01*
X199019Y237452D01*
X199033Y237326D01*
X199053Y237200D01*
X199079Y237076D01*
X199110Y236953D01*
X199147Y236832D01*
X199190Y236712D01*
X199238Y236594D01*
X199291Y236479D01*
X199350Y236366D01*
X199413Y236256D01*
X199481Y236149D01*
X199555Y236046D01*
X199632Y235945D01*
X199715Y235849D01*
X199802Y235756D01*
X199892Y235667D01*
X199987Y235583D01*
X200086Y235503D01*
X200188Y235427D01*
X200293Y235356D01*
X200401Y235290D01*
X200513Y235229D01*
X200627Y235173D01*
X200743Y235123D01*
X200862Y235078D01*
X200982Y235038D01*
X201105Y235004D01*
X201228Y234975D01*
X201353Y234952D01*
X201479Y234935D01*
X201605Y234923D01*
X201732Y234917D01*
X201859D01*
X201986Y234923D01*
X202113Y234935D01*
X202238Y234952D01*
X202363Y234975D01*
X202487Y235004D01*
X202609Y235038D01*
X202730Y235078D01*
X202848Y235123D01*
X202965Y235173D01*
X203079Y235229D01*
X203190Y235290D01*
X203299Y235356D01*
X203404Y235427D01*
X203506Y235503D01*
X203605Y235583D01*
X203699Y235667D01*
X203790Y235756D01*
X203877Y235849D01*
X203959Y235945D01*
X204037Y236046D01*
X204110Y236149D01*
X204179Y236256D01*
X204242Y236366D01*
X204300Y236479D01*
X204354Y236594D01*
X204402Y236712D01*
X204444Y236832D01*
X204481Y236953D01*
X204513Y237076D01*
X204538Y237200D01*
X204559Y237326D01*
X204573Y237452D01*
X204582Y237578D01*
X204585Y237705D01*
X204610D01*
X204585D02*
X204582Y237832D01*
X204573Y237959D01*
X204559Y238085D01*
X204538Y238210D01*
X204513Y238335D01*
X204481Y238458D01*
X204444Y238579D01*
X204402Y238699D01*
X204354Y238816D01*
X204300Y238932D01*
X204242Y239044D01*
X204179Y239154D01*
X204110Y239261D01*
X204037Y239365D01*
X203959Y239465D01*
X203877Y239562D01*
X203790Y239655D01*
X203699Y239744D01*
X203605Y239828D01*
X203506Y239908D01*
X203404Y239984D01*
X203299Y240055D01*
X203190Y240121D01*
X203079Y240182D01*
X202965Y240237D01*
X202848Y240288D01*
X202730Y240333D01*
X202609Y240373D01*
X202487Y240407D01*
X202363Y240436D01*
X202238Y240459D01*
X202113Y240476D01*
X201986Y240488D01*
X201859Y240493D01*
X201732D01*
X201605Y240488D01*
X201479Y240476D01*
X201353Y240459D01*
X201228Y240436D01*
X201105Y240407D01*
X200982Y240373D01*
X200862Y240333D01*
X200743Y240288D01*
X200627Y240237D01*
X200513Y240182D01*
X200401Y240121D01*
X200293Y240055D01*
X200188Y239984D01*
X200086Y239908D01*
X199987Y239828D01*
X199892Y239744D01*
X199802Y239655D01*
X199715Y239562D01*
X199632Y239465D01*
X199555Y239365D01*
X199481Y239261D01*
X199413Y239154D01*
X199350Y239044D01*
X199291Y238932D01*
X199238Y238816D01*
X199190Y238699D01*
X199147Y238579D01*
X199110Y238458D01*
X199079Y238335D01*
X199053Y238210D01*
X199033Y238085D01*
X199019Y237959D01*
X199010Y237832D01*
X199007Y237705D01*
X199464D02*
X199490D01*
X199464D02*
X199467Y237589D01*
X199476Y237473D01*
X199490Y237358D01*
X199510Y237243D01*
X199536Y237130D01*
X199568Y237018D01*
X199605Y236908D01*
X199647Y236800D01*
X199695Y236694D01*
X199748Y236590D01*
X199806Y236490D01*
X199869Y236392D01*
X199937Y236298D01*
X200010Y236207D01*
X200087Y236120D01*
X200168Y236036D01*
X200253Y235957D01*
X200342Y235882D01*
X200435Y235812D01*
X200531Y235747D01*
X200630Y235686D01*
X200732Y235631D01*
X200837Y235580D01*
X200944Y235535D01*
X201053Y235495D01*
X201164Y235461D01*
X201277Y235432D01*
X201391Y235409D01*
X201506Y235392D01*
X201622Y235380D01*
X201738Y235375D01*
X201854D01*
X201970Y235380D01*
X202086Y235392D01*
X202201Y235409D01*
X202315Y235432D01*
X202427Y235461D01*
X202538Y235495D01*
X202648Y235535D01*
X202755Y235580D01*
X202860Y235631D01*
X202962Y235686D01*
X203061Y235747D01*
X203157Y235812D01*
X203250Y235882D01*
X203339Y235957D01*
X203424Y236036D01*
X203505Y236120D01*
X203582Y236207D01*
X203654Y236298D01*
X203722Y236392D01*
X203785Y236490D01*
X203843Y236590D01*
X203896Y236694D01*
X203944Y236800D01*
X203987Y236908D01*
X204024Y237018D01*
X204055Y237130D01*
X204081Y237243D01*
X204101Y237358D01*
X204116Y237473D01*
X204125Y237589D01*
X204127Y237705D01*
X204153D01*
X204127D02*
X204125Y237822D01*
X204116Y237938D01*
X204101Y238053D01*
X204081Y238167D01*
X204055Y238281D01*
X204024Y238393D01*
X203987Y238503D01*
X203944Y238611D01*
X203896Y238717D01*
X203843Y238820D01*
X203785Y238921D01*
X203722Y239019D01*
X203654Y239113D01*
X203582Y239204D01*
X203505Y239291D01*
X203424Y239375D01*
X203339Y239454D01*
X203250Y239528D01*
X203157Y239599D01*
X203061Y239664D01*
X202962Y239725D01*
X202860Y239780D01*
X202755Y239831D01*
X202648Y239876D01*
X202538Y239916D01*
X202427Y239950D01*
X202315Y239979D01*
X202201Y240002D01*
X202086Y240019D01*
X201970Y240030D01*
X201854Y240036D01*
X201738D01*
X201622Y240030D01*
X201506Y240019D01*
X201391Y240002D01*
X201277Y239979D01*
X201164Y239950D01*
X201053Y239916D01*
X200944Y239876D01*
X200837Y239831D01*
X200732Y239780D01*
X200630Y239725D01*
X200531Y239664D01*
X200435Y239599D01*
X200342Y239528D01*
X200253Y239454D01*
X200168Y239375D01*
X200087Y239291D01*
X200010Y239204D01*
X199937Y239113D01*
X199869Y239019D01*
X199806Y238921D01*
X199748Y238820D01*
X199695Y238717D01*
X199647Y238611D01*
X199605Y238503D01*
X199568Y238393D01*
X199536Y238281D01*
X199510Y238167D01*
X199490Y238053D01*
X199476Y237938D01*
X199467Y237822D01*
X199464Y237705D01*
X199921D02*
X199947D01*
X199921D02*
X199925Y237590D01*
X199936Y237475D01*
X199953Y237361D01*
X199978Y237248D01*
X200010Y237137D01*
X200048Y237028D01*
X200093Y236922D01*
X200144Y236819D01*
X200202Y236719D01*
X200266Y236622D01*
X200335Y236530D01*
X200411Y236443D01*
X200491Y236360D01*
X200576Y236282D01*
X200666Y236210D01*
X200760Y236143D01*
X200859Y236082D01*
X200960Y236028D01*
X201065Y235979D01*
X201173Y235938D01*
X201283Y235903D01*
X201395Y235874D01*
X201508Y235853D01*
X201623Y235839D01*
X201738Y235832D01*
X201854D01*
X201969Y235839D01*
X202083Y235853D01*
X202197Y235874D01*
X202309Y235903D01*
X202419Y235938D01*
X202526Y235979D01*
X202631Y236028D01*
X202733Y236082D01*
X202831Y236143D01*
X202925Y236210D01*
X203015Y236282D01*
X203101Y236360D01*
X203181Y236443D01*
X203256Y236530D01*
X203326Y236622D01*
X203389Y236719D01*
X203447Y236819D01*
X203499Y236922D01*
X203544Y237028D01*
X203582Y237137D01*
X203614Y237248D01*
X203638Y237361D01*
X203656Y237475D01*
X203667Y237590D01*
X203670Y237705D01*
X203696D01*
X203670D02*
X203667Y237821D01*
X203656Y237936D01*
X203638Y238050D01*
X203614Y238163D01*
X203582Y238274D01*
X203544Y238383D01*
X203499Y238489D01*
X203447Y238592D01*
X203389Y238692D01*
X203326Y238788D01*
X203256Y238881D01*
X203181Y238968D01*
X203101Y239051D01*
X203015Y239129D01*
X202925Y239201D01*
X202831Y239268D01*
X202733Y239329D01*
X202631Y239383D01*
X202526Y239432D01*
X202419Y239473D01*
X202309Y239508D01*
X202197Y239536D01*
X202083Y239558D01*
X201969Y239572D01*
X201854Y239579D01*
X201738D01*
X201623Y239572D01*
X201508Y239558D01*
X201395Y239536D01*
X201283Y239508D01*
X201173Y239473D01*
X201065Y239432D01*
X200960Y239383D01*
X200859Y239329D01*
X200760Y239268D01*
X200666Y239201D01*
X200576Y239129D01*
X200491Y239051D01*
X200411Y238968D01*
X200335Y238881D01*
X200266Y238788D01*
X200202Y238692D01*
X200144Y238592D01*
X200093Y238489D01*
X200048Y238383D01*
X200010Y238274D01*
X199978Y238163D01*
X199953Y238050D01*
X199936Y237936D01*
X199925Y237821D01*
X199921Y237705D01*
X200379D02*
X200404D01*
X200379D02*
X200383Y237591D01*
X200397Y237478D01*
X200420Y237366D01*
X200452Y237257D01*
X200492Y237150D01*
X200541Y237047D01*
X200598Y236948D01*
X200663Y236854D01*
X200735Y236766D01*
X200814Y236683D01*
X200900Y236608D01*
X200991Y236539D01*
X201087Y236478D01*
X201188Y236425D01*
X201293Y236380D01*
X201402Y236344D01*
X201512Y236317D01*
X201625Y236299D01*
X201739Y236289D01*
X201853D01*
X201967Y236299D01*
X202079Y236317D01*
X202190Y236344D01*
X202298Y236380D01*
X202403Y236425D01*
X202504Y236478D01*
X202601Y236539D01*
X202692Y236608D01*
X202778Y236683D01*
X202857Y236766D01*
X202929Y236854D01*
X202994Y236948D01*
X203051Y237047D01*
X203100Y237150D01*
X203140Y237257D01*
X203172Y237366D01*
X203195Y237478D01*
X203208Y237591D01*
X203213Y237705D01*
X203238D01*
X203213D02*
X203208Y237819D01*
X203195Y237933D01*
X203172Y238045D01*
X203140Y238154D01*
X203100Y238261D01*
X203051Y238364D01*
X202994Y238463D01*
X202929Y238557D01*
X202857Y238645D01*
X202778Y238727D01*
X202692Y238803D01*
X202601Y238872D01*
X202504Y238933D01*
X202403Y238986D01*
X202298Y239030D01*
X202190Y239067D01*
X202079Y239094D01*
X201967Y239112D01*
X201853Y239121D01*
X201739D01*
X201625Y239112D01*
X201512Y239094D01*
X201402Y239067D01*
X201293Y239030D01*
X201188Y238986D01*
X201087Y238933D01*
X200991Y238872D01*
X200900Y238803D01*
X200814Y238727D01*
X200735Y238645D01*
X200663Y238557D01*
X200598Y238463D01*
X200541Y238364D01*
X200492Y238261D01*
X200452Y238154D01*
X200420Y238045D01*
X200397Y237933D01*
X200383Y237819D01*
X200379Y237705D01*
X200836D02*
X200861D01*
X200836D02*
X200842Y237594D01*
X200862Y237484D01*
X200894Y237377D01*
X200938Y237275D01*
X200994Y237178D01*
X201060Y237088D01*
X201137Y237007D01*
X201223Y236935D01*
X201316Y236874D01*
X201416Y236824D01*
X201520Y236786D01*
X201629Y236760D01*
X201740Y236747D01*
X201852D01*
X201963Y236760D01*
X202071Y236786D01*
X202176Y236824D01*
X202276Y236874D01*
X202369Y236935D01*
X202455Y237007D01*
X202531Y237088D01*
X202598Y237178D01*
X202654Y237275D01*
X202698Y237377D01*
X202730Y237484D01*
X202749Y237594D01*
X202756Y237705D01*
X202781D01*
X202756D02*
X202749Y237817D01*
X202730Y237927D01*
X202698Y238034D01*
X202654Y238136D01*
X202598Y238233D01*
X202531Y238322D01*
X202455Y238404D01*
X202369Y238475D01*
X202276Y238537D01*
X202176Y238587D01*
X202071Y238625D01*
X201963Y238651D01*
X201852Y238664D01*
X201740D01*
X201629Y238651D01*
X201520Y238625D01*
X201416Y238587D01*
X201316Y238537D01*
X201223Y238475D01*
X201137Y238404D01*
X201060Y238322D01*
X200994Y238233D01*
X200938Y238136D01*
X200894Y238034D01*
X200862Y237927D01*
X200842Y237817D01*
X200836Y237705D01*
X201293D02*
X201318D01*
X201293D02*
X201304Y237601D01*
X201336Y237501D01*
X201389Y237410D01*
X201459Y237332D01*
X201544Y237270D01*
X201640Y237227D01*
X201743Y237205D01*
X201848D01*
X201951Y237227D01*
X202047Y237270D01*
X202132Y237332D01*
X202203Y237410D01*
X202255Y237501D01*
X202288Y237601D01*
X202299Y237705D01*
X202324D01*
X202299D02*
X202288Y237810D01*
X202255Y237910D01*
X202203Y238001D01*
X202132Y238079D01*
X202047Y238141D01*
X201951Y238184D01*
X201848Y238205D01*
X201743D01*
X201640Y238184D01*
X201544Y238141D01*
X201459Y238079D01*
X201389Y238001D01*
X201336Y237910D01*
X201304Y237810D01*
X201293Y237705D01*
X201750D02*
X201776D01*
X201750D02*
X201753Y237690D01*
X201761Y237676D01*
X201773Y237666D01*
X201788Y237660D01*
X201804D01*
X201819Y237666D01*
X201831Y237676D01*
X201839Y237690D01*
X201841Y237705D01*
X201867D01*
X201841D02*
X201839Y237721D01*
X201831Y237735D01*
X201819Y237745D01*
X201804Y237750D01*
X201788D01*
X201773Y237745D01*
X201761Y237735D01*
X201753Y237721D01*
X201750Y237705D01*
D23*
X273888Y192921D02*
D03*
X258394Y179459D02*
D03*
X275412Y192921D02*
D03*
X255346Y179205D02*
D03*
X246710Y205494D02*
D03*
X277698Y212987D02*
D03*
X281000Y187587D02*
D03*
X277952Y203335D02*
D03*
X275158Y212987D02*
D03*
X271348D02*
D03*
X270332Y201303D02*
D03*
X272364Y213622D02*
D03*
X271521Y201476D02*
D03*
X256362Y228735D02*
D03*
X256330Y233847D02*
D03*
X256362Y237879D02*
D03*
X268808Y209939D02*
D03*
X285572Y185555D02*
D03*
Y194953D02*
D03*
X246202Y209685D02*
D03*
X244170Y190635D02*
D03*
X291160Y200287D02*
D03*
X285318Y231783D02*
D03*
X290906Y224163D02*
D03*
X272110Y192667D02*
D03*
X277050Y189619D02*
D03*
Y202205D02*
D03*
X273253Y201303D02*
D03*
Y214130D02*
D03*
X255346Y203843D02*
D03*
X253520Y200335D02*
D03*
X254971Y202948D02*
D03*
X272110Y185555D02*
D03*
Y181745D02*
D03*
X265112Y202205D02*
D03*
X255346Y201303D02*
D03*
X266014D02*
D03*
X242138Y201049D02*
D03*
X253542Y202303D02*
D03*
X260934Y196985D02*
D03*
X229184Y235085D02*
D03*
X228676Y240165D02*
D03*
X220040Y225687D02*
D03*
X211658Y235085D02*
D03*
X234518Y221623D02*
D03*
X234330Y226261D02*
D03*
X234264Y237879D02*
D03*
X254076Y215273D02*
D03*
X277161Y208201D02*
D03*
X275663D02*
D03*
X276428Y209939D02*
D03*
X277187D02*
D03*
X286588Y206637D02*
D03*
X294716Y212479D02*
D03*
X280238Y214765D02*
D03*
X287858Y208923D02*
D03*
X282016Y203589D02*
D03*
X285572Y198509D02*
D03*
X282016Y189619D02*
D03*
X277698Y210955D02*
D03*
X268521Y201336D02*
D03*
X276425Y208201D02*
D03*
X275663Y209939D02*
D03*
X271316Y222861D02*
D03*
X264490D02*
D03*
X265506Y208205D02*
D03*
X265502Y211205D02*
D03*
X265760Y209685D02*
D03*
X267030Y214003D02*
D03*
X268808D02*
D03*
X270332D02*
D03*
X263728Y216289D02*
D03*
X268300Y218067D02*
D03*
X259664Y171585D02*
D03*
X265506Y193937D02*
D03*
X256616Y190635D02*
D03*
X252044Y184285D02*
D03*
X231470Y212987D02*
D03*
Y211463D02*
D03*
Y212225D02*
D03*
X256362Y200287D02*
D03*
X213436Y230005D02*
D03*
X254962Y219681D02*
D03*
X261058D02*
D03*
X260296Y214347D02*
D03*
X237246Y216315D02*
D03*
X236484D02*
D03*
X238007D02*
D03*
D26*
X210796Y226705D02*
D03*
X291796Y168705D02*
D03*
D30*
X258536Y201335D02*
D03*
Y200835D02*
D03*
Y200335D02*
D03*
Y199835D02*
D03*
X251536Y200335D02*
D03*
Y200835D02*
D03*
Y201335D02*
D03*
Y201835D02*
D03*
Y202335D02*
D03*
Y202835D02*
D03*
Y203335D02*
D03*
X258536D02*
D03*
Y201835D02*
D03*
Y202335D02*
D03*
Y202835D02*
D03*
X251536Y199835D02*
D03*
D31*
X279246Y201705D02*
D03*
Y202205D02*
D03*
Y203205D02*
D03*
Y202705D02*
D03*
X263796Y211705D02*
D03*
Y211205D02*
D03*
Y210705D02*
D03*
Y208705D02*
D03*
Y206205D02*
D03*
Y205705D02*
D03*
Y205205D02*
D03*
Y204705D02*
D03*
Y203205D02*
D03*
Y201705D02*
D03*
X279246Y203705D02*
D03*
Y204205D02*
D03*
Y209705D02*
D03*
X263796Y204205D02*
D03*
Y203705D02*
D03*
Y202705D02*
D03*
Y206705D02*
D03*
Y210205D02*
D03*
Y209705D02*
D03*
X279246Y207705D02*
D03*
Y208205D02*
D03*
Y208705D02*
D03*
Y210205D02*
D03*
Y210705D02*
D03*
Y211205D02*
D03*
Y211705D02*
D03*
Y212205D02*
D03*
Y212705D02*
D03*
Y213205D02*
D03*
X263796D02*
D03*
X279246Y213705D02*
D03*
X263796Y202205D02*
D03*
Y209205D02*
D03*
Y208205D02*
D03*
Y207705D02*
D03*
Y207205D02*
D03*
X279246Y209205D02*
D03*
X263796Y212205D02*
D03*
Y212705D02*
D03*
X279246Y206705D02*
D03*
Y206205D02*
D03*
Y205205D02*
D03*
Y204705D02*
D03*
Y205705D02*
D03*
Y207205D02*
D03*
D32*
X263106Y239745D02*
D03*
X265646D02*
D03*
X263106Y229745D02*
D03*
X265646D02*
D03*
X259296Y237205D02*
D03*
Y227205D02*
D03*
X260566Y239745D02*
D03*
Y229745D02*
D03*
X261836Y237205D02*
D03*
Y227205D02*
D03*
X266916Y237205D02*
D03*
Y227205D02*
D03*
X268186Y239745D02*
D03*
Y229745D02*
D03*
X269456Y237205D02*
D03*
Y227205D02*
D03*
X270726Y239745D02*
D03*
Y229745D02*
D03*
X271996Y237205D02*
D03*
Y227205D02*
D03*
X273266Y239745D02*
D03*
Y229745D02*
D03*
X274536Y237205D02*
D03*
Y227205D02*
D03*
X275806Y239745D02*
D03*
Y229745D02*
D03*
X277076Y237205D02*
D03*
Y227205D02*
D03*
X278346Y239745D02*
D03*
Y229745D02*
D03*
X279616Y237205D02*
D03*
Y227205D02*
D03*
X280886Y239745D02*
D03*
Y229745D02*
D03*
X282156Y237205D02*
D03*
Y227205D02*
D03*
X283426Y239745D02*
D03*
Y229745D02*
D03*
X264376Y237205D02*
D03*
Y227205D02*
D03*
X296336Y182575D02*
D03*
X293796Y183845D02*
D03*
X296336Y185115D02*
D03*
X293796Y186385D02*
D03*
X296336Y187655D02*
D03*
X293796Y188925D02*
D03*
X296336Y190195D02*
D03*
Y200355D02*
D03*
X293796Y201625D02*
D03*
Y204165D02*
D03*
X296336Y205435D02*
D03*
X293796Y206705D02*
D03*
X296336Y195275D02*
D03*
Y202895D02*
D03*
X293796Y199085D02*
D03*
X296336Y197815D02*
D03*
X293796Y196545D02*
D03*
Y191465D02*
D03*
Y194005D02*
D03*
X296336Y192735D02*
D03*
D33*
X225466Y185859D02*
D03*
Y183827D02*
D03*
Y181795D02*
D03*
Y179509D02*
D03*
Y177477D02*
D03*
Y175445D02*
D03*
D34*
X236042Y198255D02*
D03*
Y203335D02*
D03*
D35*
X251488Y227973D02*
D03*
X247218D02*
D03*
Y238895D02*
D03*
X251488Y238895D02*
D03*
Y233561D02*
D03*
X247218D02*
D03*
D38*
X249758Y181745D02*
D03*
X239776D02*
D03*
D39*
X206136Y203335D02*
D03*
X226136D02*
D03*
X293446Y227465D02*
D03*
Y229965D02*
D03*
Y232465D02*
D03*
D40*
X216576Y184335D02*
D03*
Y183065D02*
D03*
Y181795D02*
D03*
Y180525D02*
D03*
Y179255D02*
D03*
Y177985D02*
D03*
Y176715D02*
D03*
Y175445D02*
D03*
X222164D02*
D03*
Y176715D02*
D03*
Y177985D02*
D03*
Y179255D02*
D03*
Y180525D02*
D03*
Y181795D02*
D03*
Y183065D02*
D03*
Y184335D02*
D03*
X207686D02*
D03*
Y183065D02*
D03*
Y181795D02*
D03*
Y180525D02*
D03*
Y179255D02*
D03*
Y177985D02*
D03*
Y176715D02*
D03*
Y175445D02*
D03*
X213274D02*
D03*
Y176715D02*
D03*
Y177985D02*
D03*
Y179255D02*
D03*
Y180525D02*
D03*
Y181795D02*
D03*
Y183065D02*
D03*
Y184335D02*
D03*
X213436Y238895D02*
D03*
X219024Y232545D02*
D03*
Y238895D02*
D03*
X296748Y212479D02*
D03*
X266776Y183015D02*
D03*
X219024Y240165D02*
D03*
Y236355D02*
D03*
X213436Y240165D02*
D03*
X219024Y231275D02*
D03*
Y233815D02*
D03*
Y235085D02*
D03*
X213436Y232545D02*
D03*
Y233815D02*
D03*
Y236355D02*
D03*
X291160Y212479D02*
D03*
X296748Y216289D02*
D03*
X213436Y235085D02*
D03*
Y231275D02*
D03*
X277444Y179205D02*
D03*
Y180475D02*
D03*
Y181745D02*
D03*
Y185555D02*
D03*
X266776Y181745D02*
D03*
Y180475D02*
D03*
Y179205D02*
D03*
Y177935D02*
D03*
X277444D02*
D03*
Y183015D02*
D03*
X291160Y216289D02*
D03*
Y215019D02*
D03*
Y213749D02*
D03*
X296748D02*
D03*
Y215019D02*
D03*
X219024Y237625D02*
D03*
X213436D02*
D03*
X266776Y186825D02*
D03*
X277444D02*
D03*
X266776Y185555D02*
D03*
X277444Y184285D02*
D03*
X266776D02*
D03*
X287604Y223401D02*
D03*
Y224671D02*
D03*
X293192D02*
D03*
Y223401D02*
D03*
X287604Y220861D02*
D03*
X293192Y222131D02*
D03*
Y220861D02*
D03*
X287604Y222131D02*
D03*
X222196Y173199D02*
D03*
Y171929D02*
D03*
Y170659D02*
D03*
Y169389D02*
D03*
Y168119D02*
D03*
Y166849D02*
D03*
Y165579D02*
D03*
Y164309D02*
D03*
X216608D02*
D03*
Y165579D02*
D03*
Y166849D02*
D03*
Y168119D02*
D03*
Y169389D02*
D03*
Y170659D02*
D03*
Y171929D02*
D03*
Y173199D02*
D03*
X213306D02*
D03*
Y171929D02*
D03*
Y170659D02*
D03*
Y169389D02*
D03*
Y168119D02*
D03*
Y166849D02*
D03*
Y165579D02*
D03*
Y164309D02*
D03*
X207718D02*
D03*
Y165579D02*
D03*
Y166849D02*
D03*
Y168119D02*
D03*
Y169389D02*
D03*
Y170659D02*
D03*
Y171929D02*
D03*
Y173199D02*
D03*
D41*
X209972Y187383D02*
D03*
X220132D02*
D03*
D44*
X245440Y172855D02*
D03*
X211912Y221115D02*
D03*
X283540Y222639D02*
D03*
X260426Y193429D02*
D03*
X237312Y208669D02*
D03*
X201752Y230005D02*
D03*
X252044Y221115D02*
D03*
X231470D02*
D03*
X225628D02*
D03*
X220040D02*
D03*
X249758Y172855D02*
D03*
X254076D02*
D03*
D45*
X287858Y198509D02*
D03*
Y202319D02*
D03*
Y203589D02*
D03*
X283794Y198509D02*
D03*
Y199779D02*
D03*
Y201049D02*
D03*
Y202319D02*
D03*
X287858Y201049D02*
D03*
Y199779D02*
D03*
D50*
X236296Y212987D02*
D03*
X238196D02*
D03*
X237246Y215137D02*
D03*
X256804Y186435D02*
D03*
X257754Y184285D02*
D03*
X255854D02*
D03*
D51*
X257124Y177681D02*
D03*
X259664D02*
D03*
Y179331D02*
D03*
X257124D02*
D03*
D53*
X233832Y233651D02*
D03*
X230832D02*
D03*
D54*
X232332Y234001D02*
D03*
D55*
X256732Y221942D02*
D03*
X259432D02*
D03*
X207685Y237625D02*
D03*
X210385D02*
D03*
X259440Y219681D02*
D03*
X256740D02*
D03*
D56*
X203114Y219133D02*
D03*
X205114D02*
D03*
X203114Y216847D02*
D03*
X205114D02*
D03*
X203114Y223705D02*
D03*
X205114D02*
D03*
X198796D02*
D03*
X200796D02*
D03*
X198796Y221419D02*
D03*
X200796D02*
D03*
X198796Y219133D02*
D03*
X200796D02*
D03*
X198796Y216847D02*
D03*
X200796D02*
D03*
X203114Y221419D02*
D03*
X205114D02*
D03*
X198796Y214561D02*
D03*
X200796D02*
D03*
X198796Y212275D02*
D03*
X200796D02*
D03*
X198796Y209989D02*
D03*
X200796D02*
D03*
X198796Y207703D02*
D03*
X200796D02*
D03*
X198796Y205417D02*
D03*
X200796D02*
D03*
X198796Y203131D02*
D03*
X200796D02*
D03*
X198796Y200845D02*
D03*
X200796D02*
D03*
X198796Y198559D02*
D03*
X200796D02*
D03*
X198796Y196273D02*
D03*
X200796D02*
D03*
X198796Y193987D02*
D03*
X200796D02*
D03*
X198796Y191701D02*
D03*
X200796D02*
D03*
X198796Y189415D02*
D03*
X200796D02*
D03*
X198828Y187129D02*
D03*
X200828D02*
D03*
X198796Y184843D02*
D03*
X200796D02*
D03*
X198796Y182557D02*
D03*
X200796D02*
D03*
X203114Y191701D02*
D03*
X205114D02*
D03*
X203114Y189415D02*
D03*
X205114D02*
D03*
X203146Y187129D02*
D03*
X205146D02*
D03*
X203114Y184843D02*
D03*
X205114D02*
D03*
X203114Y182557D02*
D03*
X205114D02*
D03*
X293160Y218575D02*
D03*
X291160D02*
D03*
X251250Y212733D02*
D03*
X249228Y207705D02*
D03*
X208102Y232545D02*
D03*
X210102D02*
D03*
Y230005D02*
D03*
X208102D02*
D03*
X224358Y227465D02*
D03*
X222358D02*
D03*
X281794Y215781D02*
D03*
X283794D02*
D03*
X288334Y218067D02*
D03*
X286334D02*
D03*
X283762D02*
D03*
X288334Y213495D02*
D03*
X286334D02*
D03*
X254054Y193481D02*
D03*
X256054D02*
D03*
X249250Y212733D02*
D03*
X249282Y215273D02*
D03*
X224326Y230005D02*
D03*
X222326D02*
D03*
X224326Y232545D02*
D03*
X222326D02*
D03*
Y235085D02*
D03*
X224326D02*
D03*
X220008Y227465D02*
D03*
X218008D02*
D03*
X281762Y208923D02*
D03*
X283762D02*
D03*
X210134Y240165D02*
D03*
X208134D02*
D03*
X224326Y237625D02*
D03*
X222326D02*
D03*
X281762Y211209D02*
D03*
X283762D02*
D03*
X288906Y206637D02*
D03*
X290906D02*
D03*
X271316Y218067D02*
D03*
X269316D02*
D03*
X283762Y206637D02*
D03*
X281762D02*
D03*
X283762Y213495D02*
D03*
X281762D02*
D03*
X265521Y197508D02*
D03*
X263521D02*
D03*
X269316Y220607D02*
D03*
X271316D02*
D03*
X254562Y207705D02*
D03*
X256562D02*
D03*
X251228D02*
D03*
X256054Y196021D02*
D03*
X254054D02*
D03*
X251228Y210245D02*
D03*
X249228D02*
D03*
X288334Y215773D02*
D03*
X286334D02*
D03*
X286366Y211209D02*
D03*
X288366D02*
D03*
X295002Y210447D02*
D03*
X297002D02*
D03*
X292652D02*
D03*
X290652D02*
D03*
X264712Y188603D02*
D03*
X262712D02*
D03*
X278492Y189619D02*
D03*
X280492D02*
D03*
X224326Y240165D02*
D03*
X222326D02*
D03*
X251282Y215273D02*
D03*
X281762Y218067D02*
D03*
X256076Y188603D02*
D03*
X254076D02*
D03*
X260426D02*
D03*
X258426D02*
D03*
X200828Y180057D02*
D03*
X198828D02*
D03*
X200828Y177771D02*
D03*
X198828D02*
D03*
X200860Y175485D02*
D03*
X198860D02*
D03*
X200828Y173199D02*
D03*
X198828D02*
D03*
X200828Y170913D02*
D03*
X198828D02*
D03*
X205146Y180057D02*
D03*
X203146D02*
D03*
X205146Y177771D02*
D03*
X203146D02*
D03*
X205178Y175485D02*
D03*
X203178D02*
D03*
X205146Y173199D02*
D03*
X203146D02*
D03*
X205146Y170913D02*
D03*
X203146D02*
D03*
X287796Y191465D02*
D03*
X285796D02*
D03*
D57*
X263240Y174125D02*
D03*
Y176411D02*
D03*
X264490D02*
D03*
Y174125D02*
D03*
D58*
X260934Y200287D02*
D03*
Y198287D02*
D03*
X270840Y195493D02*
D03*
Y197493D02*
D03*
X258880Y212753D02*
D03*
X256340D02*
D03*
X249228Y205133D02*
D03*
X253800Y212753D02*
D03*
X257124Y173109D02*
D03*
Y175109D02*
D03*
X259664D02*
D03*
Y173109D02*
D03*
X229184Y212987D02*
D03*
Y214987D02*
D03*
X239830Y200117D02*
D03*
Y202117D02*
D03*
X274904Y221655D02*
D03*
X277190D02*
D03*
X273126Y197493D02*
D03*
Y195493D02*
D03*
X264490Y218067D02*
D03*
Y220067D02*
D03*
X278206Y197493D02*
D03*
Y195493D02*
D03*
X258880Y210753D02*
D03*
X256340D02*
D03*
X242138Y199493D02*
D03*
Y197493D02*
D03*
Y204605D02*
D03*
Y202605D02*
D03*
X249228Y203133D02*
D03*
X253800Y210753D02*
D03*
X277190Y223655D02*
D03*
X274904D02*
D03*
X296748Y220575D02*
D03*
Y218575D02*
D03*
Y222925D02*
D03*
Y224925D02*
D03*
X254584Y233847D02*
D03*
Y238419D02*
D03*
Y229275D02*
D03*
Y235847D02*
D03*
Y240419D02*
D03*
Y231275D02*
D03*
X233756Y214987D02*
D03*
Y212987D02*
D03*
X240868D02*
D03*
Y214987D02*
D03*
D59*
X263796Y213705D02*
D03*
D60*
X246748Y203171D02*
D03*
Y198971D02*
D03*
X244548D02*
D03*
Y203171D02*
D03*
D61*
X291160Y202827D02*
D03*
Y201577D02*
D03*
D62*
X264236Y183013D02*
D03*
Y179713D02*
D03*
D63*
X232320Y235340D02*
X232344D01*
Y236763D01*
X232320D01*
Y235340D01*
D64*
X283794Y203589D02*
D03*
D65*
X234330Y229243D02*
D03*
X228930D02*
D03*
D66*
X243916Y237879D02*
D03*
X237312Y229751D02*
D03*
Y237879D02*
D03*
X243916Y229751D02*
D03*
X237312Y221623D02*
D03*
X243916D02*
D03*
D67*
X271094Y189873D02*
D03*
X273888D02*
D03*
X261442Y210447D02*
D03*
Y208415D02*
D03*
M02*
