*%FSLAX23Y23*%
*%MOIN*%
G01*
D11*
X4162Y5727D02*
X15879D01*
Y8502D02*
X4162D01*
Y5727D01*
X15879D02*
Y8502D01*
D13*
X8406Y6361D02*
X8371D01*
Y6343D01*
X8377Y6338D01*
X8389D01*
X8395Y6343D01*
Y6361D01*
X8406Y6326D02*
X8371D01*
X8395Y6314D02*
X8406Y6326D01*
X8395Y6314D02*
X8406Y6303D01*
X8371D01*
Y6291D02*
X8406D01*
X8371D02*
Y6273D01*
X8377Y6268D01*
X8389D01*
X8395Y6273D01*
Y6291D01*
Y6279D02*
X8406Y6268D01*
X8476Y6338D02*
X8470Y6343D01*
Y6355D01*
X8476Y6361D01*
X8499D01*
X8505Y6355D01*
Y6343D01*
X8499Y6338D01*
X8487D01*
Y6349D01*
X8505Y6326D02*
X8470D01*
X8505Y6303D01*
X8470D01*
Y6291D02*
X8505D01*
Y6273D01*
X8499Y6268D01*
X8476D01*
X8470Y6273D01*
Y6291D01*
X8667Y6338D02*
Y6361D01*
Y6349D02*
Y6338D01*
Y6349D02*
X8702D01*
X8667Y6308D02*
X8673Y6303D01*
X8667Y6308D02*
Y6320D01*
X8673Y6326D01*
X8696D01*
X8702Y6320D01*
Y6308D01*
X8696Y6303D01*
X8702Y6291D02*
X8667D01*
X8690D02*
X8702D01*
X8690D02*
X8667Y6268D01*
X8684Y6285D01*
X8702Y6268D01*
X8769Y6338D02*
Y6361D01*
Y6349D02*
Y6338D01*
Y6349D02*
X8804D01*
Y6326D02*
X8769D01*
X8804D02*
Y6308D01*
X8798Y6303D01*
X8775D01*
X8769Y6308D01*
Y6326D01*
Y6285D02*
Y6273D01*
Y6285D02*
X8775Y6291D01*
X8798D01*
X8804Y6285D01*
Y6273D01*
X8798Y6268D01*
X8775D01*
X8769Y6273D01*
X8978Y6338D02*
Y6361D01*
Y6349D02*
Y6338D01*
Y6349D02*
X9013D01*
Y6326D02*
X8978D01*
X8989Y6314D01*
X8978Y6303D01*
X9013D01*
X8984Y6268D02*
X8978Y6273D01*
Y6285D01*
X8984Y6291D01*
X8989D01*
X8995Y6285D01*
Y6273D01*
X9001Y6268D01*
X9007D01*
X9013Y6273D01*
Y6285D01*
X9007Y6291D01*
X8871Y6338D02*
Y6361D01*
Y6349D02*
Y6338D01*
Y6349D02*
X8906D01*
Y6326D02*
X8871D01*
X8906D02*
Y6308D01*
X8901Y6303D01*
X8877D01*
X8871Y6308D01*
Y6326D01*
Y6291D02*
Y6279D01*
Y6285D01*
X8906D01*
Y6291D01*
Y6279D01*
X14771Y8000D02*
X14777Y8006D01*
X14788D01*
X14794Y8000D01*
Y7977D01*
X14788Y7971D01*
X14777D01*
X14771Y7977D01*
X14747Y8000D02*
X14736Y8006D01*
X14747Y8000D02*
X14759Y7988D01*
Y7977D01*
X14753Y7971D01*
X14742D01*
X14736Y7977D01*
Y7983D01*
X14742Y7988D01*
X14759D01*
X14918Y7973D02*
Y7938D01*
Y7973D02*
X14901D01*
X14895Y7967D01*
Y7955D01*
X14901Y7950D01*
X14918D01*
X14906D02*
X14895Y7938D01*
X14883Y7973D02*
X14860D01*
Y7967D01*
X14883Y7944D01*
Y7938D01*
X14914Y8116D02*
Y8151D01*
X14897D01*
X14891Y8145D01*
Y8133D01*
X14897Y8128D01*
X14914D01*
X14902D02*
X14891Y8116D01*
X14867Y8145D02*
X14856Y8151D01*
X14867Y8145D02*
X14879Y8133D01*
Y8122D01*
X14873Y8116D01*
X14862D01*
X14856Y8122D01*
Y8128D01*
X14862Y8133D01*
X14879D01*
X14924Y7432D02*
Y7397D01*
Y7432D02*
X14907D01*
X14901Y7426D01*
Y7414D01*
X14907Y7409D01*
X14924D01*
X14912D02*
X14901Y7397D01*
X14889D02*
X14877D01*
X14883D01*
Y7432D01*
X14884D01*
X14883D02*
X14889Y7426D01*
X14842Y7432D02*
Y7397D01*
X14860Y7414D02*
X14842Y7432D01*
X14837Y7414D02*
X14860D01*
X14937Y7263D02*
Y7228D01*
Y7263D02*
X14920D01*
X14914Y7257D01*
Y7245D01*
X14920Y7240D01*
X14937D01*
X14925D02*
X14914Y7228D01*
X14902D02*
X14890D01*
X14896D01*
Y7263D01*
X14897D01*
X14896D02*
X14902Y7257D01*
X14873Y7263D02*
X14850D01*
X14873D02*
Y7245D01*
X14861Y7251D01*
X14855D01*
X14850Y7245D01*
Y7234D01*
X14855Y7228D01*
X14867D01*
X14873Y7234D01*
X14805Y7293D02*
X14799Y7287D01*
X14805Y7293D02*
X14816D01*
X14822Y7287D01*
Y7264D01*
X14816Y7258D01*
X14805D01*
X14799Y7264D01*
X14787Y7258D02*
X14775D01*
X14781D01*
Y7293D01*
X14782D01*
X14781D02*
X14787Y7287D01*
X14758Y7258D02*
X14735D01*
X14758D02*
X14735Y7281D01*
Y7287D01*
X14740Y7293D01*
X14752D01*
X14758Y7287D01*
X14809Y5876D02*
X14803Y5870D01*
X14809Y5876D02*
X14820D01*
X14826Y5870D01*
Y5847D01*
X14820Y5841D01*
X14809D01*
X14803Y5847D01*
X14779Y5870D02*
X14768Y5876D01*
X14779Y5870D02*
X14791Y5858D01*
Y5847D01*
X14785Y5841D01*
X14774D01*
X14768Y5847D01*
Y5853D01*
X14774Y5858D01*
X14791D01*
X14756Y5870D02*
X14750Y5876D01*
X14739D01*
X14733Y5870D01*
Y5864D01*
X14734D01*
X14733D02*
X14734D01*
X14733D02*
X14734D01*
X14733D02*
X14739Y5858D01*
X14744D01*
X14739D01*
X14733Y5853D01*
Y5847D01*
X14739Y5841D01*
X14750D01*
X14756Y5847D01*
X14936Y5849D02*
Y5814D01*
Y5849D02*
X14919D01*
X14913Y5843D01*
Y5831D01*
X14919Y5826D01*
X14936D01*
X14924D02*
X14913Y5814D01*
X14889Y5843D02*
X14878Y5849D01*
X14889Y5843D02*
X14901Y5831D01*
Y5820D01*
X14895Y5814D01*
X14884D01*
X14878Y5820D01*
Y5826D01*
X14884Y5831D01*
X14901D01*
X14866Y5843D02*
X14860Y5849D01*
X14849D01*
X14843Y5843D01*
Y5820D01*
X14849Y5814D01*
X14860D01*
X14866Y5820D01*
Y5843D01*
X14936Y5982D02*
Y6017D01*
X14919D01*
X14913Y6011D01*
Y5999D01*
X14919Y5994D01*
X14936D01*
X14924D02*
X14913Y5982D01*
X14901Y6017D02*
X14878D01*
X14901D02*
Y5999D01*
X14889Y6005D01*
X14884D01*
X14878Y5999D01*
Y5988D01*
X14884Y5982D01*
X14895D01*
X14901Y5988D01*
X14866D02*
X14860Y5982D01*
X14849D01*
X14843Y5988D01*
Y6011D01*
X14849Y6017D01*
X14860D01*
X14866Y6011D01*
Y6005D01*
X14860Y5999D01*
X14843D01*
X14798Y6693D02*
X14804Y6699D01*
X14815D01*
X14821Y6693D01*
Y6670D01*
X14815Y6664D01*
X14804D01*
X14798Y6670D01*
X14786Y6664D02*
X14763D01*
X14786D02*
X14763Y6687D01*
Y6693D01*
X14769Y6699D01*
X14780D01*
X14786Y6693D01*
X14751D02*
X14745Y6699D01*
X14734D01*
X14728Y6693D01*
Y6687D01*
X14729D01*
X14728D02*
X14729D01*
X14728D02*
X14729D01*
X14728D02*
X14734Y6681D01*
X14739D01*
X14734D01*
X14728Y6676D01*
Y6670D01*
X14734Y6664D01*
X14745D01*
X14751Y6670D01*
X14934Y6551D02*
Y6516D01*
Y6551D02*
X14917D01*
X14911Y6545D01*
Y6533D01*
X14917Y6528D01*
X14934D01*
X14922D02*
X14911Y6516D01*
X14899D02*
X14876D01*
X14899D02*
X14876Y6539D01*
Y6545D01*
X14882Y6551D01*
X14893D01*
X14899Y6545D01*
X14864Y6516D02*
X14841D01*
X14864D02*
X14841Y6539D01*
Y6545D01*
X14847Y6551D01*
X14858D01*
X14864Y6545D01*
X14922Y6692D02*
Y6727D01*
X14905D01*
X14899Y6721D01*
Y6709D01*
X14905Y6704D01*
X14922D01*
X14910D02*
X14899Y6692D01*
X14887D02*
X14864D01*
X14887D02*
X14864Y6715D01*
Y6721D01*
X14870Y6727D01*
X14881D01*
X14887Y6721D01*
X14852Y6692D02*
X14840D01*
X14846D01*
Y6727D01*
X14847D01*
X14846D02*
X14852Y6721D01*
X13720Y8351D02*
Y8386D01*
Y8351D02*
X13697D01*
X13685D02*
X13662D01*
X13685D02*
X13662Y8374D01*
Y8380D01*
X13668Y8386D01*
X13679D01*
X13685Y8380D01*
X13650Y8357D02*
X13644Y8351D01*
X13633D01*
X13627Y8357D01*
Y8380D01*
X13633Y8386D01*
X13644D01*
X13650Y8380D01*
Y8374D01*
X13644Y8368D01*
X13627D01*
X13722Y8324D02*
Y8289D01*
X13699D01*
X13687D02*
X13664D01*
X13687D02*
X13664Y8312D01*
Y8318D01*
X13670Y8324D01*
X13681D01*
X13687Y8318D01*
X13652D02*
X13646Y8324D01*
X13635D01*
X13629Y8318D01*
Y8312D01*
X13635Y8306D01*
X13629Y8301D01*
Y8295D01*
X13635Y8289D01*
X13646D01*
X13652Y8295D01*
Y8301D01*
X13646Y8306D01*
X13652Y8312D01*
Y8318D01*
X13646Y8306D02*
X13635D01*
X13723Y8253D02*
Y8218D01*
X13700D01*
X13688D02*
X13665D01*
X13688D02*
X13665Y8241D01*
Y8247D01*
X13671Y8253D01*
X13682D01*
X13688Y8247D01*
X13653Y8253D02*
X13630D01*
Y8247D01*
X13653Y8224D01*
Y8218D01*
X13724Y8188D02*
Y8153D01*
X13701D01*
X13689D02*
X13666D01*
X13689D02*
X13666Y8176D01*
Y8182D01*
X13672Y8188D01*
X13683D01*
X13689Y8182D01*
X13642D02*
X13631Y8188D01*
X13642Y8182D02*
X13654Y8170D01*
Y8159D01*
X13648Y8153D01*
X13637D01*
X13631Y8159D01*
Y8165D01*
X13637Y8170D01*
X13654D01*
X13718Y8041D02*
Y8006D01*
X13695D01*
X13683D02*
X13660D01*
X13683D02*
X13660Y8029D01*
Y8035D01*
X13666Y8041D01*
X13677D01*
X13683Y8035D01*
X13631Y8041D02*
Y8006D01*
X13648Y8023D02*
X13631Y8041D01*
X13625Y8023D02*
X13648D01*
X13720Y8075D02*
Y8110D01*
Y8075D02*
X13697D01*
X13685D02*
X13662D01*
X13685D02*
X13662Y8098D01*
Y8104D01*
X13668Y8110D01*
X13679D01*
X13685Y8104D01*
X13650Y8110D02*
X13627D01*
X13650D02*
Y8092D01*
X13638Y8098D01*
X13633D01*
X13627Y8092D01*
Y8081D01*
X13633Y8075D01*
X13644D01*
X13650Y8081D01*
X13724Y7965D02*
Y7930D01*
X13701D01*
X13689D02*
X13666D01*
X13689D02*
X13666Y7953D01*
Y7959D01*
X13672Y7965D01*
X13683D01*
X13689Y7959D01*
X13654D02*
X13648Y7965D01*
X13637D01*
X13631Y7959D01*
Y7953D01*
X13632D01*
X13631D02*
X13632D01*
X13631D02*
X13632D01*
X13631D02*
X13637Y7947D01*
X13642D01*
X13637D01*
X13631Y7942D01*
Y7936D01*
X13637Y7930D01*
X13648D01*
X13654Y7936D01*
X13723Y7902D02*
Y7867D01*
X13700D01*
X13688D02*
X13665D01*
X13688D02*
X13665Y7890D01*
Y7896D01*
X13671Y7902D01*
X13682D01*
X13688Y7896D01*
X13653D02*
X13647Y7902D01*
X13636D01*
X13630Y7896D01*
Y7873D01*
X13636Y7867D01*
X13647D01*
X13653Y7873D01*
Y7896D01*
X13105Y6960D02*
X13099Y6954D01*
X13105Y6960D02*
X13116D01*
X13122Y6954D01*
Y6931D01*
X13116Y6925D01*
X13105D01*
X13099Y6931D01*
X13087D02*
X13081Y6925D01*
X13070D01*
X13064Y6931D01*
Y6954D01*
X13070Y6960D01*
X13081D01*
X13087Y6954D01*
Y6948D01*
X13081Y6942D01*
X13064D01*
X13035Y6925D02*
Y6960D01*
X13052Y6942D01*
X13029D01*
X13165Y7333D02*
X13171Y7339D01*
X13182D01*
X13188Y7333D01*
Y7310D01*
X13182Y7304D01*
X13171D01*
X13165Y7310D01*
X13153D02*
X13147Y7304D01*
X13136D01*
X13130Y7310D01*
Y7333D01*
X13136Y7339D01*
X13147D01*
X13153Y7333D01*
Y7327D01*
X13147Y7321D01*
X13130D01*
X13118Y7339D02*
X13095D01*
X13118D02*
Y7321D01*
X13106Y7327D01*
X13101D01*
X13095Y7321D01*
Y7310D01*
X13101Y7304D01*
X13112D01*
X13118Y7310D01*
X13314Y7205D02*
X13320Y7211D01*
X13331D01*
X13337Y7205D01*
Y7182D01*
X13331Y7176D01*
X13320D01*
X13314Y7182D01*
X13302Y7176D02*
X13290D01*
X13296D01*
Y7211D01*
X13297D01*
X13296D02*
X13302Y7205D01*
X13273D02*
X13267Y7211D01*
X13255D01*
X13250Y7205D01*
Y7182D01*
X13255Y7176D01*
X13267D01*
X13273Y7182D01*
Y7205D01*
X13238D02*
X13232Y7211D01*
X13220D01*
X13215Y7205D01*
Y7182D01*
X13220Y7176D01*
X13232D01*
X13238Y7182D01*
Y7205D01*
X13304Y7124D02*
X13298Y7118D01*
X13304Y7124D02*
X13315D01*
X13321Y7118D01*
Y7095D01*
X13315Y7089D01*
X13304D01*
X13298Y7095D01*
X13286Y7089D02*
X13274D01*
X13280D01*
Y7124D01*
X13281D01*
X13280D02*
X13286Y7118D01*
X13257D02*
X13251Y7124D01*
X13239D01*
X13234Y7118D01*
Y7095D01*
X13239Y7089D01*
X13251D01*
X13257Y7095D01*
Y7118D01*
X13222Y7089D02*
X13210D01*
X13216D01*
Y7124D01*
X13217D01*
X13216D02*
X13222Y7118D01*
X13725Y7057D02*
X13730Y7052D01*
Y7040D01*
X13725Y7034D01*
X13701D01*
X13695Y7040D01*
Y7052D01*
X13701Y7057D01*
X13695Y7069D02*
Y7081D01*
Y7075D01*
X13730D01*
X13731D01*
X13730D02*
X13725Y7069D01*
Y7098D02*
X13730Y7104D01*
Y7116D01*
X13725Y7122D01*
X13701D01*
X13695Y7116D01*
Y7104D01*
X13701Y7098D01*
X13725D01*
X13730Y7133D02*
Y7157D01*
X13725D01*
X13701Y7133D01*
X13695D01*
X13739Y7760D02*
X13745Y7766D01*
X13756D01*
X13762Y7760D01*
Y7737D01*
X13756Y7731D01*
X13745D01*
X13739Y7737D01*
X13727Y7731D02*
X13715D01*
X13721D01*
Y7766D01*
X13722D01*
X13721D02*
X13727Y7760D01*
X13698D02*
X13692Y7766D01*
X13680D01*
X13675Y7760D01*
Y7737D01*
X13680Y7731D01*
X13692D01*
X13698Y7737D01*
Y7760D01*
X13663Y7766D02*
X13640D01*
X13663D02*
Y7748D01*
X13651Y7754D01*
X13645D01*
X13640Y7748D01*
Y7737D01*
X13645Y7731D01*
X13657D01*
X13663Y7737D01*
X13356Y6901D02*
X13362Y6895D01*
X13356Y6901D02*
Y6912D01*
X13362Y6918D01*
X13385D01*
X13391Y6912D01*
Y6901D01*
X13385Y6895D01*
Y6883D02*
X13391Y6877D01*
Y6866D01*
X13385Y6860D01*
X13362D01*
X13356Y6866D01*
Y6877D01*
X13362Y6883D01*
X13368D01*
X13374Y6877D01*
Y6860D01*
X13391Y6848D02*
Y6836D01*
Y6842D01*
X13356D01*
X13357D01*
X13356D02*
X13362Y6848D01*
X13225Y7491D02*
X13231Y7497D01*
X13242D01*
X13248Y7491D01*
Y7468D01*
X13242Y7462D01*
X13231D01*
X13225Y7468D01*
X13213Y7491D02*
X13207Y7497D01*
X13196D01*
X13190Y7491D01*
Y7485D01*
X13196Y7479D01*
X13190Y7474D01*
Y7468D01*
X13196Y7462D01*
X13207D01*
X13213Y7468D01*
Y7474D01*
X13207Y7479D01*
X13213Y7485D01*
Y7491D01*
X13207Y7479D02*
X13196D01*
X13178Y7497D02*
X13155D01*
Y7491D01*
X13178Y7468D01*
Y7462D01*
X13342Y7343D02*
X13348Y7337D01*
X13342Y7343D02*
Y7354D01*
X13348Y7360D01*
X13371D01*
X13377Y7354D01*
Y7343D01*
X13371Y7337D01*
X13348Y7325D02*
X13342Y7319D01*
Y7308D01*
X13348Y7302D01*
X13354D01*
X13360Y7308D01*
X13365Y7302D01*
X13371D01*
X13377Y7308D01*
Y7319D01*
X13371Y7325D01*
X13365D01*
X13360Y7319D01*
X13354Y7325D01*
X13348D01*
X13360Y7319D02*
Y7308D01*
X13371Y7290D02*
X13377Y7284D01*
Y7273D01*
X13371Y7267D01*
X13348D01*
X13342Y7273D01*
Y7284D01*
X13348Y7290D01*
X13354D01*
X13360Y7284D01*
Y7267D01*
X13786Y5809D02*
Y5774D01*
X13763D01*
X13751Y5803D02*
X13745Y5809D01*
X13734D01*
X13728Y5803D01*
Y5797D01*
X13729D01*
X13728D02*
X13729D01*
X13728D02*
X13729D01*
X13728D02*
X13734Y5791D01*
X13739D01*
X13734D01*
X13728Y5786D01*
Y5780D01*
X13734Y5774D01*
X13745D01*
X13751Y5780D01*
X13716Y5803D02*
X13710Y5809D01*
X13699D01*
X13693Y5803D01*
Y5780D01*
X13699Y5774D01*
X13710D01*
X13716Y5780D01*
Y5803D01*
X13783Y5842D02*
Y5877D01*
Y5842D02*
X13760D01*
X13748Y5871D02*
X13742Y5877D01*
X13731D01*
X13725Y5871D01*
Y5865D01*
X13726D01*
X13725D02*
X13726D01*
X13725D02*
X13726D01*
X13725D02*
X13731Y5859D01*
X13736D01*
X13731D01*
X13725Y5854D01*
Y5848D01*
X13731Y5842D01*
X13742D01*
X13748Y5848D01*
X13713Y5842D02*
X13701D01*
X13707D01*
Y5877D01*
X13708D01*
X13707D02*
X13713Y5871D01*
X13788Y5910D02*
Y5945D01*
Y5910D02*
X13765D01*
X13753Y5939D02*
X13747Y5945D01*
X13736D01*
X13730Y5939D01*
Y5933D01*
X13731D01*
X13730D02*
X13731D01*
X13730D02*
X13731D01*
X13730D02*
X13736Y5927D01*
X13741D01*
X13736D01*
X13730Y5922D01*
Y5916D01*
X13736Y5910D01*
X13747D01*
X13753Y5916D01*
X13718Y5910D02*
X13695D01*
X13718D02*
X13695Y5933D01*
Y5939D01*
X13701Y5945D01*
X13712D01*
X13718Y5939D01*
X13787Y5974D02*
Y6009D01*
Y5974D02*
X13764D01*
X13752Y6003D02*
X13746Y6009D01*
X13735D01*
X13729Y6003D01*
Y5997D01*
X13730D01*
X13729D02*
X13730D01*
X13729D02*
X13730D01*
X13729D02*
X13735Y5991D01*
X13740D01*
X13735D01*
X13729Y5986D01*
Y5980D01*
X13735Y5974D01*
X13746D01*
X13752Y5980D01*
X13717Y6003D02*
X13711Y6009D01*
X13700D01*
X13694Y6003D01*
Y5997D01*
X13695D01*
X13694D02*
X13695D01*
X13694D02*
X13695D01*
X13694D02*
X13700Y5991D01*
X13705D01*
X13700D01*
X13694Y5986D01*
Y5980D01*
X13700Y5974D01*
X13711D01*
X13717Y5980D01*
X13788Y6051D02*
Y6086D01*
Y6051D02*
X13765D01*
X13753Y6080D02*
X13747Y6086D01*
X13736D01*
X13730Y6080D01*
Y6074D01*
X13731D01*
X13730D02*
X13731D01*
X13730D02*
X13731D01*
X13730D02*
X13736Y6068D01*
X13741D01*
X13736D01*
X13730Y6063D01*
Y6057D01*
X13736Y6051D01*
X13747D01*
X13753Y6057D01*
X13701Y6051D02*
Y6086D01*
X13718Y6068D01*
X13695D01*
X13791Y6121D02*
Y6156D01*
Y6121D02*
X13768D01*
X13756Y6150D02*
X13750Y6156D01*
X13739D01*
X13733Y6150D01*
Y6144D01*
X13734D01*
X13733D02*
X13734D01*
X13733D02*
X13734D01*
X13733D02*
X13739Y6138D01*
X13744D01*
X13739D01*
X13733Y6133D01*
Y6127D01*
X13739Y6121D01*
X13750D01*
X13756Y6127D01*
X13721Y6156D02*
X13698D01*
X13721D02*
Y6138D01*
X13709Y6144D01*
X13704D01*
X13698Y6138D01*
Y6127D01*
X13704Y6121D01*
X13715D01*
X13721Y6127D01*
X13794Y6198D02*
Y6233D01*
Y6198D02*
X13771D01*
X13759Y6227D02*
X13753Y6233D01*
X13742D01*
X13736Y6227D01*
Y6221D01*
X13737D01*
X13736D02*
X13737D01*
X13736D02*
X13737D01*
X13736D02*
X13742Y6215D01*
X13747D01*
X13742D01*
X13736Y6210D01*
Y6204D01*
X13742Y6198D01*
X13753D01*
X13759Y6204D01*
X13712Y6227D02*
X13701Y6233D01*
X13712Y6227D02*
X13724Y6215D01*
Y6204D01*
X13718Y6198D01*
X13707D01*
X13701Y6204D01*
Y6210D01*
X13707Y6215D01*
X13724D01*
X13789Y6271D02*
Y6306D01*
Y6271D02*
X13766D01*
X13754Y6300D02*
X13748Y6306D01*
X13737D01*
X13731Y6300D01*
Y6294D01*
X13732D01*
X13731D02*
X13732D01*
X13731D02*
X13732D01*
X13731D02*
X13737Y6288D01*
X13742D01*
X13737D01*
X13731Y6283D01*
Y6277D01*
X13737Y6271D01*
X13748D01*
X13754Y6277D01*
X13719Y6306D02*
X13696D01*
Y6300D01*
X13719Y6277D01*
Y6271D01*
X13734Y6481D02*
X13729Y6487D01*
X13734Y6481D02*
Y6469D01*
X13729Y6463D01*
X13705D01*
X13699Y6469D01*
Y6481D01*
X13705Y6487D01*
X13699Y6498D02*
Y6510D01*
Y6504D01*
X13734D01*
X13735D01*
X13734D02*
X13729Y6498D01*
Y6527D02*
X13734Y6533D01*
Y6545D01*
X13729Y6551D01*
X13705D01*
X13699Y6545D01*
Y6533D01*
X13705Y6527D01*
X13729D01*
Y6574D02*
X13734Y6586D01*
X13729Y6574D02*
X13717Y6562D01*
X13705D01*
X13699Y6568D01*
Y6580D01*
X13705Y6586D01*
X13711D01*
X13717Y6580D01*
Y6562D01*
X13139Y6833D02*
X13133Y6827D01*
X13139Y6833D02*
X13150D01*
X13156Y6827D01*
Y6804D01*
X13150Y6798D01*
X13139D01*
X13133Y6804D01*
X13121D02*
X13115Y6798D01*
X13104D01*
X13098Y6804D01*
Y6827D01*
X13104Y6833D01*
X13115D01*
X13121Y6827D01*
Y6821D01*
X13115Y6815D01*
X13098D01*
X13086Y6798D02*
X13063D01*
X13086D02*
X13063Y6821D01*
Y6827D01*
X13069Y6833D01*
X13080D01*
X13086Y6827D01*
X12268Y8426D02*
Y8461D01*
X12251D01*
X12245Y8455D01*
Y8443D01*
X12251Y8438D01*
X12268D01*
X12256D02*
X12245Y8426D01*
X12221Y8455D02*
X12210Y8461D01*
X12221Y8455D02*
X12233Y8443D01*
Y8432D01*
X12227Y8426D01*
X12216D01*
X12210Y8432D01*
Y8438D01*
X12216Y8443D01*
X12233D01*
X12198Y8461D02*
X12175D01*
X12198D02*
Y8443D01*
X12186Y8449D01*
X12181D01*
X12175Y8443D01*
Y8432D01*
X12181Y8426D01*
X12192D01*
X12198Y8432D01*
X12143Y8424D02*
Y8459D01*
X12126D01*
X12120Y8453D01*
Y8441D01*
X12126Y8436D01*
X12143D01*
X12131D02*
X12120Y8424D01*
X12096Y8453D02*
X12085Y8459D01*
X12096Y8453D02*
X12108Y8441D01*
Y8430D01*
X12102Y8424D01*
X12091D01*
X12085Y8430D01*
Y8436D01*
X12091Y8441D01*
X12108D01*
X12056Y8424D02*
Y8459D01*
X12073Y8441D01*
X12050D01*
X12297Y7352D02*
Y7317D01*
Y7352D02*
X12280D01*
X12274Y7346D01*
Y7334D01*
X12280Y7329D01*
X12297D01*
X12285D02*
X12274Y7317D01*
X12262Y7352D02*
X12239D01*
X12262D02*
Y7334D01*
X12250Y7340D01*
X12245D01*
X12239Y7334D01*
Y7323D01*
X12245Y7317D01*
X12256D01*
X12262Y7323D01*
X12227Y7317D02*
X12204D01*
X12227D02*
X12204Y7340D01*
Y7346D01*
X12210Y7352D01*
X12221D01*
X12227Y7346D01*
X12248Y7381D02*
Y7416D01*
X12231D01*
X12225Y7410D01*
Y7398D01*
X12231Y7393D01*
X12248D01*
X12236D02*
X12225Y7381D01*
X12213Y7416D02*
X12190D01*
X12213D02*
Y7398D01*
X12201Y7404D01*
X12196D01*
X12190Y7398D01*
Y7387D01*
X12196Y7381D01*
X12207D01*
X12213Y7387D01*
X12178Y7381D02*
X12166D01*
X12172D01*
Y7416D01*
X12173D01*
X12172D02*
X12178Y7410D01*
X12908Y7477D02*
X12914Y7483D01*
X12925D01*
X12931Y7477D01*
Y7454D01*
X12925Y7448D01*
X12914D01*
X12908Y7454D01*
X12896Y7477D02*
X12890Y7483D01*
X12879D01*
X12873Y7477D01*
Y7471D01*
X12879Y7465D01*
X12873Y7460D01*
Y7454D01*
X12879Y7448D01*
X12890D01*
X12896Y7454D01*
Y7460D01*
X12890Y7465D01*
X12896Y7471D01*
Y7477D01*
X12890Y7465D02*
X12879D01*
X12849Y7477D02*
X12838Y7483D01*
X12849Y7477D02*
X12861Y7465D01*
Y7454D01*
X12855Y7448D01*
X12844D01*
X12838Y7454D01*
Y7460D01*
X12844Y7465D01*
X12861D01*
X12811Y7306D02*
X12805Y7300D01*
X12794D01*
X12788Y7306D01*
Y7329D01*
X12794Y7335D01*
X12805D01*
X12811Y7329D01*
X12823D02*
X12829Y7335D01*
X12840D01*
X12846Y7329D01*
Y7306D01*
X12840Y7300D01*
X12829D01*
X12823Y7306D01*
Y7312D01*
X12829Y7318D01*
X12846D01*
X12870Y7306D02*
X12881Y7300D01*
X12870Y7306D02*
X12858Y7318D01*
Y7329D01*
X12864Y7335D01*
X12875D01*
X12881Y7329D01*
Y7323D01*
X12875Y7318D01*
X12858D01*
X12842Y7265D02*
X12836Y7259D01*
X12842Y7265D02*
X12853D01*
X12859Y7259D01*
Y7236D01*
X12853Y7230D01*
X12842D01*
X12836Y7236D01*
X12824D02*
X12818Y7230D01*
X12807D01*
X12801Y7236D01*
Y7259D01*
X12807Y7265D01*
X12818D01*
X12824Y7259D01*
Y7253D01*
X12818Y7247D01*
X12801D01*
X12789Y7265D02*
X12766D01*
Y7259D01*
X12789Y7236D01*
Y7230D01*
X12761Y7141D02*
X12755Y7135D01*
X12761Y7141D02*
X12772D01*
X12778Y7135D01*
Y7112D01*
X12772Y7106D01*
X12761D01*
X12755Y7112D01*
X12743D02*
X12737Y7106D01*
X12726D01*
X12720Y7112D01*
Y7135D01*
X12726Y7141D01*
X12737D01*
X12743Y7135D01*
Y7129D01*
X12737Y7123D01*
X12720D01*
X12708Y7112D02*
X12702Y7106D01*
X12691D01*
X12685Y7112D01*
Y7135D01*
X12691Y7141D01*
X12702D01*
X12708Y7135D01*
Y7129D01*
X12702Y7123D01*
X12685D01*
X12727Y7308D02*
X12721Y7314D01*
Y7325D01*
X12727Y7331D01*
X12750D01*
X12756Y7325D01*
Y7314D01*
X12750Y7308D01*
X12756Y7296D02*
Y7284D01*
Y7290D01*
X12721D01*
X12722D01*
X12721D02*
X12727Y7296D01*
Y7267D02*
X12721Y7261D01*
Y7249D01*
X12727Y7244D01*
X12750D01*
X12756Y7249D01*
Y7261D01*
X12750Y7267D01*
X12727D01*
X12756Y7232D02*
Y7209D01*
Y7232D02*
X12733Y7209D01*
X12727D01*
X12721Y7214D01*
Y7226D01*
X12727Y7232D01*
X12938Y6962D02*
X12932Y6956D01*
X12938Y6962D02*
X12949D01*
X12955Y6956D01*
Y6933D01*
X12949Y6927D01*
X12938D01*
X12932Y6933D01*
X12920D02*
X12914Y6927D01*
X12903D01*
X12897Y6933D01*
Y6956D01*
X12903Y6962D01*
X12914D01*
X12920Y6956D01*
Y6950D01*
X12914Y6944D01*
X12897D01*
X12885Y6956D02*
X12879Y6962D01*
X12868D01*
X12862Y6956D01*
Y6950D01*
X12863D01*
X12862D02*
X12863D01*
X12862D02*
X12863D01*
X12862D02*
X12868Y6944D01*
X12873D01*
X12868D01*
X12862Y6939D01*
Y6933D01*
X12868Y6927D01*
X12879D01*
X12885Y6933D01*
X12204Y7733D02*
X12210Y7739D01*
X12221D01*
X12227Y7733D01*
Y7710D01*
X12221Y7704D01*
X12210D01*
X12204Y7710D01*
X12192Y7704D02*
X12180D01*
X12186D01*
Y7739D01*
X12187D01*
X12186D02*
X12192Y7733D01*
X12163D02*
X12157Y7739D01*
X12145D01*
X12140Y7733D01*
Y7710D01*
X12145Y7704D01*
X12157D01*
X12163Y7710D01*
Y7733D01*
X12128D02*
X12122Y7739D01*
X12110D01*
X12105Y7733D01*
Y7727D01*
X12106D01*
X12105D02*
X12106D01*
X12105D02*
X12106D01*
X12105D02*
X12110Y7721D01*
X12116D01*
X12110D01*
X12105Y7716D01*
Y7710D01*
X12110Y7704D01*
X12122D01*
X12128Y7710D01*
X12733Y6845D02*
X12739Y6839D01*
Y6828D01*
X12733Y6822D01*
X12710D01*
X12704Y6828D01*
Y6839D01*
X12710Y6845D01*
X12704Y6857D02*
Y6869D01*
Y6863D01*
X12739D01*
X12740D01*
X12739D02*
X12733Y6857D01*
Y6886D02*
X12739Y6892D01*
Y6904D01*
X12733Y6909D01*
X12710D01*
X12704Y6904D01*
Y6892D01*
X12710Y6886D01*
X12733D01*
Y6921D02*
X12739Y6927D01*
Y6939D01*
X12733Y6944D01*
X12727D01*
X12721Y6939D01*
X12716Y6944D01*
X12710D01*
X12704Y6939D01*
Y6927D01*
X12710Y6921D01*
X12716D01*
X12721Y6927D01*
X12727Y6921D01*
X12733D01*
X12721Y6927D02*
Y6939D01*
X12858Y6863D02*
X12864Y6869D01*
X12875D01*
X12881Y6863D01*
Y6840D01*
X12875Y6834D01*
X12864D01*
X12858Y6840D01*
X12846Y6869D02*
X12823D01*
Y6863D01*
X12846Y6840D01*
Y6834D01*
X12811Y6863D02*
X12805Y6869D01*
X12794D01*
X12788Y6863D01*
Y6840D01*
X12794Y6834D01*
X12805D01*
X12811Y6840D01*
Y6863D01*
X13015D02*
X13021Y6869D01*
X13032D01*
X13038Y6863D01*
Y6840D01*
X13032Y6834D01*
X13021D01*
X13015Y6840D01*
X13003Y6834D02*
X12991D01*
X12997D01*
Y6869D01*
X12998D01*
X12997D02*
X13003Y6863D01*
X12974Y6834D02*
X12962D01*
X12968D01*
Y6869D01*
X12969D01*
X12968D02*
X12974Y6863D01*
X12945D02*
X12939Y6869D01*
X12927D01*
X12921Y6863D01*
Y6840D01*
X12927Y6834D01*
X12939D01*
X12945Y6840D01*
Y6863D01*
X4968Y6943D02*
Y6978D01*
X4951D01*
X4945Y6972D01*
Y6960D01*
X4951Y6955D01*
X4968D01*
X4956D02*
X4945Y6943D01*
X4933Y6972D02*
X4927Y6978D01*
X4916D01*
X4910Y6972D01*
Y6966D01*
X4911D01*
X4910D02*
X4911D01*
X4910D02*
X4911D01*
X4910D02*
X4916Y6960D01*
X4921D01*
X4916D01*
X4910Y6955D01*
Y6949D01*
X4916Y6943D01*
X4927D01*
X4933Y6949D01*
X4898Y6943D02*
X4886D01*
X4892D01*
Y6978D01*
X4893D01*
X4892D02*
X4898Y6972D01*
D15*
X11032Y6392D02*
Y6294D01*
X11733D02*
Y6392D01*
X11135D02*
Y6294D01*
X9044Y6235D02*
Y6133D01*
X8343D02*
Y6235D01*
X8446Y6231D02*
Y6136D01*
X11032Y6294D02*
X11733D01*
Y6392D02*
X11032D01*
X9044Y6235D02*
X8343D01*
Y6133D02*
X9044D01*
X14734Y8025D02*
Y8065D01*
X14795D02*
Y8025D01*
X14795Y8066D02*
X14734D01*
Y8026D02*
X14795D01*
X14856Y8034D02*
Y7994D01*
X14917D02*
Y8034D01*
X14917Y8034D02*
X14856D01*
Y7994D02*
X14917D01*
X14856Y8057D02*
Y8097D01*
X14917D02*
Y8057D01*
X14917Y8097D02*
X14856D01*
Y8057D02*
X14917D01*
X14917Y7380D02*
Y7340D01*
X14856D02*
Y7380D01*
X14856Y7341D02*
X14917D01*
Y7381D02*
X14856D01*
X14917Y7317D02*
Y7277D01*
X14856D02*
Y7317D01*
X14856Y7278D02*
X14917D01*
Y7318D02*
X14856D01*
X14795Y7309D02*
Y7349D01*
X14734D02*
Y7309D01*
X14734Y7309D02*
X14795D01*
Y7349D02*
X14734D01*
X14734Y5935D02*
Y5895D01*
X14795D02*
Y5935D01*
X14795Y5936D02*
X14734D01*
Y5896D02*
X14795D01*
X14856Y5904D02*
Y5864D01*
X14917D02*
Y5904D01*
X14917Y5904D02*
X14856D01*
Y5864D02*
X14917D01*
X14856Y5927D02*
Y5967D01*
X14917D02*
Y5927D01*
X14917Y5967D02*
X14856D01*
Y5927D02*
X14917D01*
X14795Y6600D02*
Y6640D01*
X14734D02*
Y6600D01*
X14734Y6601D02*
X14795D01*
Y6641D02*
X14734D01*
X14917Y6609D02*
Y6569D01*
X14856D02*
Y6609D01*
X14856Y6569D02*
X14917D01*
Y6609D02*
X14856D01*
X14917Y6632D02*
Y6672D01*
X14856D02*
Y6632D01*
X14856Y6632D02*
X14917D01*
Y6672D02*
X14856D01*
X13534Y8352D02*
Y8392D01*
X13595D02*
Y8352D01*
X13595Y8393D02*
X13534D01*
Y8353D02*
X13595D01*
X13534Y8325D02*
Y8285D01*
X13595D02*
Y8325D01*
X13595Y8326D02*
X13534D01*
Y8286D02*
X13595D01*
X13534Y8258D02*
Y8218D01*
X13595D02*
Y8258D01*
X13595Y8259D02*
X13534D01*
Y8219D02*
X13595D01*
X13534Y8187D02*
Y8147D01*
X13595D02*
Y8187D01*
X13595Y8188D02*
X13534D01*
Y8148D02*
X13595D01*
X13534Y8046D02*
Y8006D01*
X13595D02*
Y8046D01*
X13595Y8046D02*
X13534D01*
Y8006D02*
X13595D01*
X13534Y8077D02*
Y8117D01*
X13595D02*
Y8077D01*
X13595Y8117D02*
X13534D01*
Y8077D02*
X13595D01*
X13534Y7967D02*
Y7927D01*
X13595D02*
Y7967D01*
X13595Y7967D02*
X13534D01*
Y7927D02*
X13595D01*
X13534Y7896D02*
Y7856D01*
X13595D02*
Y7896D01*
X13595Y7897D02*
X13534D01*
Y7857D02*
X13595D01*
X13099Y6924D02*
Y6884D01*
X13038D02*
Y6924D01*
X13038Y6884D02*
X13099D01*
Y6924D02*
X13038D01*
X13084Y7248D02*
Y7309D01*
X13044D02*
Y7248D01*
X13044Y7309D02*
X13084D01*
Y7248D02*
X13044D01*
X13174Y7219D02*
Y7179D01*
X13113D02*
Y7219D01*
X13113Y7179D02*
X13174D01*
Y7219D02*
X13113D01*
X13174Y7140D02*
Y7100D01*
X13113D02*
Y7140D01*
X13113Y7101D02*
X13174D01*
Y7141D02*
X13113D01*
X13611Y7119D02*
Y7058D01*
X13651D02*
Y7119D01*
X13650Y7058D02*
X13610D01*
Y7119D02*
X13650D01*
X13579Y7731D02*
Y7792D01*
X13619D02*
Y7731D01*
X13619Y7731D02*
X13579D01*
Y7792D02*
X13619D01*
X13340Y6904D02*
Y6843D01*
X13300D02*
Y6904D01*
X13300Y6904D02*
X13340D01*
Y6843D02*
X13300D01*
X13217Y7395D02*
Y7435D01*
X13156D02*
Y7395D01*
X13156Y7396D02*
X13217D01*
Y7436D02*
X13156D01*
X13320Y7313D02*
Y7252D01*
X13280D02*
Y7313D01*
X13281Y7313D02*
X13321D01*
Y7252D02*
X13281D01*
X13596Y5810D02*
Y5770D01*
X13658D02*
Y5810D01*
X13658Y5770D02*
X13596D01*
Y5810D02*
X13658D01*
X13596Y5837D02*
Y5877D01*
X13658D02*
Y5837D01*
X13658Y5837D02*
X13596D01*
Y5877D02*
X13658D01*
X13596Y5904D02*
Y5944D01*
X13658D02*
Y5904D01*
X13658Y5904D02*
X13596D01*
Y5944D02*
X13658D01*
X13596Y5975D02*
Y6015D01*
X13658D02*
Y5975D01*
X13658Y5975D02*
X13596D01*
Y6015D02*
X13658D01*
X13596Y6046D02*
Y6086D01*
X13658D02*
Y6046D01*
X13658Y6046D02*
X13596D01*
Y6086D02*
X13658D01*
X13596Y6117D02*
Y6157D01*
X13658D02*
Y6117D01*
X13658Y6116D02*
X13596D01*
Y6156D02*
X13658D01*
X13596Y6196D02*
Y6236D01*
X13658D02*
Y6196D01*
X13658Y6195D02*
X13596D01*
Y6235D02*
X13658D01*
X13596Y6267D02*
Y6307D01*
X13658D02*
Y6267D01*
X13658Y6266D02*
X13596D01*
Y6306D02*
X13658D01*
X13615Y6487D02*
Y6548D01*
X13655D02*
Y6487D01*
X13654Y6487D02*
X13614D01*
Y6548D02*
X13654D01*
X13249Y6789D02*
Y6829D01*
X13188D02*
Y6789D01*
X13188Y6790D02*
X13249D01*
Y6830D02*
X13188D01*
X12178Y8325D02*
Y8388D01*
X12210D02*
Y8325D01*
X12210Y8389D02*
X12178D01*
Y8326D02*
X12210D01*
X12111Y8325D02*
Y8388D01*
X12143D02*
Y8325D01*
X12143Y8389D02*
X12111D01*
Y8326D02*
X12143D01*
X12109Y7353D02*
Y7313D01*
X12170D02*
Y7353D01*
X12170Y7353D02*
X12109D01*
Y7313D02*
X12170D01*
X12069Y7376D02*
Y7416D01*
X12130D02*
Y7376D01*
X12130Y7416D02*
X12069D01*
Y7376D02*
X12130D01*
X12835Y7403D02*
Y7443D01*
X12774D02*
Y7403D01*
X12774Y7404D02*
X12835D01*
Y7444D02*
X12774D01*
X12934Y7309D02*
Y7248D01*
X12894D02*
Y7309D01*
X12895Y7309D02*
X12935D01*
Y7248D02*
X12895D01*
X12867Y7219D02*
Y7179D01*
X12806D02*
Y7219D01*
X12806Y7179D02*
X12867D01*
Y7219D02*
X12806D01*
X12867Y7140D02*
Y7100D01*
X12806D02*
Y7140D01*
X12806Y7101D02*
X12867D01*
Y7141D02*
X12806D01*
X12714Y7252D02*
Y7313D01*
X12674D02*
Y7252D01*
X12674Y7313D02*
X12714D01*
Y7252D02*
X12674D01*
X12941Y6924D02*
Y6884D01*
X12880D02*
Y6924D01*
X12880Y6884D02*
X12941D01*
Y6924D02*
X12880D01*
X12327Y7699D02*
Y7739D01*
X12266D02*
Y7699D01*
X12266Y7699D02*
X12327D01*
Y7739D02*
X12266D01*
X12654Y6907D02*
Y6846D01*
X12694D02*
Y6907D01*
X12694Y6846D02*
X12654D01*
Y6907D02*
X12694D01*
X12823Y6829D02*
Y6789D01*
X12762D02*
Y6829D01*
X12762Y6790D02*
X12823D01*
Y6830D02*
X12762D01*
X13016Y6829D02*
Y6789D01*
X12955D02*
Y6829D01*
X12955Y6790D02*
X13016D01*
Y6830D02*
X12955D01*
X4896Y6880D02*
Y6920D01*
X4957D02*
Y6880D01*
X4957Y6920D02*
X4896D01*
Y6880D02*
X4957D01*
D17*
X5099Y8239D02*
X5139D01*
X5099Y8279D01*
Y8289D01*
X5109Y8299D01*
X5129D01*
X5139Y8289D01*
X5049Y8299D02*
Y8239D01*
X5079Y8269D02*
X5049Y8299D01*
X5039Y8269D02*
X5079D01*
X5019Y8239D02*
X4999D01*
X5009D01*
Y8299D01*
X5010D01*
X5009D02*
X5019Y8289D01*
X4969Y8239D02*
X4949D01*
X4959D01*
Y8299D01*
X4960D01*
X4959D02*
X4969Y8289D01*
X4919D02*
X4909Y8299D01*
X4889D01*
X4879Y8289D01*
Y8249D01*
X4889Y8239D01*
X4909D01*
X4919Y8249D01*
Y8289D01*
X4859Y8299D02*
X4819D01*
X4859D02*
Y8269D01*
X4839Y8279D01*
X4829D01*
X4819Y8269D01*
Y8249D01*
X4829Y8239D01*
X4849D01*
X4859Y8249D01*
X5639Y8238D02*
Y8298D01*
X5609D01*
X5599Y8288D01*
Y8268D01*
X5609Y8258D01*
X5639D01*
X5619D02*
X5599Y8238D01*
X5569D02*
X5549D01*
X5569D02*
X5579Y8248D01*
Y8268D01*
X5569Y8278D01*
X5549D01*
X5539Y8268D01*
Y8258D01*
X5579D01*
X5519Y8278D02*
X5499Y8238D01*
X5479Y8278D01*
X5399Y8238D02*
X5379D01*
X5389D01*
Y8298D01*
X5390D01*
X5389D02*
X5399Y8288D01*
X5349Y8248D02*
Y8238D01*
Y8248D02*
X5339D01*
Y8238D01*
X5349D01*
X5299D02*
X5279D01*
X5289D01*
Y8298D01*
X5290D01*
X5289D02*
X5299Y8288D01*
X5101Y8372D02*
Y8432D01*
X5131Y8402D01*
X5091D01*
X5071Y8422D02*
X5061Y8432D01*
X5041D01*
X5031Y8422D01*
Y8382D01*
X5041Y8372D01*
X5061D01*
X5071Y8382D01*
Y8422D01*
X5011D02*
X5001Y8432D01*
X4981D01*
X4971Y8422D01*
Y8382D01*
X4981Y8372D01*
X5001D01*
X5011Y8382D01*
Y8422D01*
X4951D02*
X4941Y8432D01*
X4921D01*
X4911Y8422D01*
Y8412D01*
X4921Y8402D01*
X4911Y8392D01*
Y8382D01*
X4921Y8372D01*
X4941D01*
X4951Y8382D01*
Y8392D01*
X4941Y8402D01*
X4951Y8412D01*
Y8422D01*
X4941Y8402D02*
X4921D01*
X4831Y8372D02*
X4811D01*
X4821D01*
Y8432D01*
X4822D01*
X4821D02*
X4831Y8422D01*
X4781Y8372D02*
X4761D01*
X4771D01*
Y8432D01*
X4772D01*
X4771D02*
X4781Y8422D01*
X4731Y8432D02*
X4691D01*
Y8422D01*
X4731Y8382D01*
Y8372D01*
X4611Y8422D02*
X4601Y8432D01*
X4581D01*
X4571Y8422D01*
Y8382D01*
X4581Y8372D01*
X4601D01*
X4611Y8382D01*
Y8422D01*
X4551D02*
X4541Y8432D01*
X4521D01*
X4511Y8422D01*
Y8412D01*
X4521Y8402D01*
X4511Y8392D01*
Y8382D01*
X4521Y8372D01*
X4541D01*
X4551Y8382D01*
Y8392D01*
X4541Y8402D01*
X4551Y8412D01*
Y8422D01*
X4541Y8402D02*
X4521D01*
X4491Y8422D02*
X4481Y8432D01*
X4461D01*
X4451Y8422D01*
Y8412D01*
X4452D01*
X4451D02*
X4452D01*
X4451D02*
X4452D01*
X4451D02*
X4461Y8402D01*
X4471D01*
X4461D01*
X4451Y8392D01*
Y8382D01*
X4461Y8372D01*
X4481D01*
X4491Y8382D01*
X4431Y8422D02*
X4421Y8432D01*
X4401D01*
X4391Y8422D01*
Y8412D01*
X4401Y8402D01*
X4391Y8392D01*
Y8382D01*
X4401Y8372D01*
X4421D01*
X4431Y8382D01*
Y8392D01*
X4421Y8402D01*
X4431Y8412D01*
Y8422D01*
X4421Y8402D02*
X4401D01*
X4371Y8422D02*
X4361Y8432D01*
X4341D01*
X4331Y8422D01*
Y8382D01*
X4341Y8372D01*
X4361D01*
X4371Y8382D01*
Y8422D01*
X5639Y8428D02*
Y8368D01*
Y8428D02*
X5609D01*
X5599Y8418D01*
Y8398D01*
X5609Y8388D01*
X5639D01*
X5579Y8428D02*
X5539D01*
X5559D01*
Y8368D01*
X5519Y8418D02*
X5509Y8428D01*
X5489D01*
X5479Y8418D01*
Y8408D01*
X5489Y8398D01*
X5479Y8388D01*
Y8378D01*
X5489Y8368D01*
X5509D01*
X5519Y8378D01*
Y8388D01*
X5509Y8398D01*
X5519Y8408D01*
Y8418D01*
X5509Y8398D02*
X5489D01*
X5439Y8418D02*
X5419Y8428D01*
X5439Y8418D02*
X5459Y8398D01*
Y8378D01*
X5449Y8368D01*
X5429D01*
X5419Y8378D01*
Y8388D01*
X5429Y8398D01*
X5459D01*
X5399Y8368D02*
X5379D01*
X5389D01*
Y8428D01*
X5390D01*
X5389D02*
X5399Y8418D01*
X5349Y8368D02*
X5309D01*
X5349D02*
X5309Y8408D01*
Y8418D01*
X5319Y8428D01*
X5339D01*
X5349Y8418D01*
X5640Y8194D02*
Y8134D01*
X5610D01*
X5600Y8144D01*
Y8184D01*
X5610Y8194D01*
X5640D01*
X5580D02*
Y8134D01*
Y8154D01*
X5540Y8194D01*
X5570Y8164D01*
X5540Y8134D01*
X5520Y8164D02*
X5480D01*
X5460Y8194D02*
X5420D01*
X5440D01*
Y8134D01*
X5390D02*
X5370D01*
X5390D02*
X5400Y8144D01*
Y8164D01*
X5390Y8174D01*
X5370D01*
X5360Y8164D01*
Y8154D01*
X5400D01*
X5330Y8174D02*
X5300D01*
X5330D02*
X5340Y8164D01*
Y8144D01*
X5330Y8134D01*
X5300D01*
X5280D02*
Y8194D01*
Y8164D02*
Y8134D01*
Y8164D02*
X5270Y8174D01*
X5250D01*
X5240Y8164D01*
Y8134D01*
X5220D02*
Y8174D01*
X5190D01*
X5180Y8164D01*
Y8134D01*
X5150D02*
X5130D01*
X5120Y8144D01*
Y8164D01*
X5130Y8174D01*
X5150D01*
X5160Y8164D01*
Y8144D01*
X5150Y8134D01*
X5100D02*
X5080D01*
X5090D01*
Y8194D01*
X5100D01*
X5040Y8134D02*
X5020D01*
X5010Y8144D01*
Y8164D01*
X5020Y8174D01*
X5040D01*
X5050Y8164D01*
Y8144D01*
X5040Y8134D01*
X4970Y8114D02*
X4960D01*
X4950Y8124D01*
Y8174D01*
X4980D01*
X4990Y8164D01*
Y8144D01*
X4980Y8134D01*
X4950D01*
X4930D02*
X4910D01*
X4920D01*
Y8174D01*
X4930D01*
X4920Y8194D02*
X4921D01*
X4870Y8134D02*
X4850D01*
X4870D02*
X4880Y8144D01*
Y8164D01*
X4870Y8174D01*
X4850D01*
X4840Y8164D01*
Y8154D01*
X4880D01*
X4820Y8134D02*
X4790D01*
X4780Y8144D01*
X4790Y8154D01*
X4810D01*
X4820Y8164D01*
X4810Y8174D01*
X4780D01*
X11780Y6395D02*
X11790D01*
X11785D01*
Y6370D01*
X11790Y6365D01*
X11795D01*
X11800Y6370D01*
X11770Y6365D02*
X11750D01*
X11770D02*
X11750Y6385D01*
Y6390D01*
X11755Y6395D01*
X11765D01*
X11770Y6390D01*
X11084Y6522D02*
X11054D01*
Y6507D01*
X11059Y6502D01*
X11069D01*
X11074Y6507D01*
Y6522D01*
X11084Y6492D02*
X11054D01*
X11074Y6482D02*
X11084Y6492D01*
X11074Y6482D02*
X11084Y6472D01*
X11054D01*
Y6462D02*
X11084D01*
X11054D02*
Y6447D01*
X11059Y6442D01*
X11069D01*
X11074Y6447D01*
Y6462D01*
Y6452D02*
X11084Y6442D01*
X11168Y6511D02*
X11173Y6506D01*
X11168Y6511D02*
Y6521D01*
X11173Y6526D01*
X11193D01*
X11198Y6521D01*
Y6511D01*
X11193Y6506D01*
X11183D01*
Y6516D01*
X11168Y6496D02*
X11198D01*
Y6476D02*
X11168Y6496D01*
Y6476D02*
X11198D01*
Y6466D02*
X11168D01*
X11198D02*
Y6451D01*
X11193Y6446D01*
X11173D01*
X11168Y6451D01*
Y6466D01*
X11365Y6502D02*
Y6522D01*
Y6512D02*
Y6502D01*
Y6512D02*
X11395D01*
X11365Y6477D02*
X11370Y6472D01*
X11365Y6477D02*
Y6487D01*
X11370Y6492D01*
X11390D01*
X11395Y6487D01*
Y6477D01*
X11390Y6472D01*
X11395Y6462D02*
X11365D01*
X11385D02*
X11395D01*
X11385D02*
X11365Y6442D01*
X11380Y6457D01*
X11395Y6442D01*
X11463Y6502D02*
Y6522D01*
Y6512D02*
Y6502D01*
Y6512D02*
X11493D01*
Y6492D02*
X11463D01*
X11493D02*
Y6477D01*
X11488Y6472D01*
X11468D01*
X11463Y6477D01*
Y6492D01*
Y6457D02*
Y6447D01*
Y6457D02*
X11468Y6462D01*
X11488D01*
X11493Y6457D01*
Y6447D01*
X11488Y6442D01*
X11468D01*
X11463Y6447D01*
X11664Y6498D02*
Y6518D01*
Y6508D02*
Y6498D01*
Y6508D02*
X11694D01*
Y6488D02*
X11664D01*
X11674Y6478D01*
X11664Y6468D01*
X11694D01*
X11669Y6438D02*
X11664Y6443D01*
Y6453D01*
X11669Y6458D01*
X11674D01*
X11679Y6453D01*
Y6443D01*
X11684Y6438D01*
X11689D01*
X11694Y6443D01*
Y6453D01*
X11689Y6458D01*
X11565Y6498D02*
Y6518D01*
Y6508D02*
Y6498D01*
Y6508D02*
X11595D01*
Y6488D02*
X11565D01*
X11595D02*
Y6473D01*
X11590Y6468D01*
X11570D01*
X11565Y6473D01*
Y6488D01*
Y6458D02*
Y6448D01*
Y6453D01*
X11595D01*
Y6458D01*
Y6448D01*
X8302Y6249D02*
X8292D01*
X8297D02*
X8302D01*
X8297D02*
Y6224D01*
X8302Y6219D01*
X8307D01*
X8312Y6224D01*
X8282Y6249D02*
X8262D01*
X8282D02*
Y6234D01*
X8272Y6239D01*
X8267D01*
X8262Y6234D01*
Y6224D01*
X8267Y6219D01*
X8277D01*
X8282Y6224D01*
D02*
M02*
