*%FSLAX23Y23*%
*%MOIN*%
G01*
D11*
X4162Y5727D02*
X15879D01*
Y8502D02*
X4162D01*
Y5727D01*
X15879D02*
Y8502D01*
D13*
X12060Y7144D02*
X11847Y6932D01*
X11753Y6199D02*
X11572Y6018D01*
X11564Y6152D02*
X11706Y6294D01*
X11745Y6215D02*
X11564Y6034D01*
X11595Y6089D02*
X11737Y6231D01*
X11729Y6247D02*
X11588Y6105D01*
X11580Y6121D02*
X11721Y6262D01*
X11714Y6278D02*
X11572Y6136D01*
X10619Y6428D02*
X10359Y6168D01*
X10351Y6184D02*
X10615Y6447D01*
X12469Y6199D02*
X12639Y6369D01*
X12631Y6384D02*
X12462Y6215D01*
X12454Y6231D02*
X12623Y6400D01*
X12615Y6416D02*
X12446Y6247D01*
X12438Y6262D02*
X12607Y6432D01*
X12599Y6447D02*
X12430Y6278D01*
X12422Y6294D02*
X12592Y6463D01*
X12584Y6479D02*
X12418Y6314D01*
X12414Y6333D02*
X12576Y6495D01*
X11773Y6180D02*
X11658Y6066D01*
X12489Y6168D02*
X12658Y6337D01*
X12662Y6321D02*
X12458Y6117D01*
X12446Y6081D02*
X12670Y6306D01*
X10607Y6487D02*
X10336Y6215D01*
X10343Y6199D02*
X10611Y6467D01*
X12280Y6566D02*
X12387Y6672D01*
X12391Y6711D02*
X12265Y6585D01*
X12249Y6605D02*
X12395Y6751D01*
X12399Y6790D02*
X12233Y6625D01*
X13060Y5971D02*
X13324Y6235D01*
X13481Y6227D02*
X13225Y5971D01*
X6800Y7660D02*
X6690Y7550D01*
X6627Y7432D02*
X6836Y7640D01*
X12076Y7916D02*
X12249Y7743D01*
X12245Y7747D02*
X12351Y7640D01*
X10174Y6546D02*
X9757Y6963D01*
X9717Y6963D02*
X10154Y6526D01*
X9434Y6136D02*
X9328Y6243D01*
Y6274D02*
X9450Y6152D01*
X11580Y7936D02*
X12300Y7215D01*
X9639Y6184D02*
X9458Y6365D01*
X11914Y7936D02*
X12025Y7825D01*
X12001Y7810D02*
X11875Y7936D01*
X11836Y7936D02*
X11977Y7794D01*
X11954Y7778D02*
X11796Y7936D01*
X11757Y7936D02*
X11930Y7762D01*
X11906Y7747D02*
X11717Y7936D01*
X11599D02*
X11997Y7538D01*
X11997Y7577D02*
X11639Y7936D01*
X11521D02*
X11997Y7459D01*
X10253Y6625D02*
X9914Y6963D01*
X9875D02*
X10233Y6605D01*
X10214Y6585D02*
X9836Y6963D01*
X9796D02*
X10194Y6566D01*
X10135Y6507D02*
X9741Y6900D01*
X11930Y7428D02*
X12064Y7294D01*
X12052Y7282D02*
X11918Y7416D01*
X12052Y7282D02*
X12206Y7129D01*
X12190Y7117D02*
X11895Y7412D01*
X12064Y7294D02*
X12221Y7136D01*
X11899Y7408D02*
X11666Y7640D01*
X11674Y7660D02*
X11922Y7412D01*
X11930Y7428D02*
X11678Y7680D01*
X9843Y6215D02*
X9717Y6341D01*
X11993Y7979D02*
X12395Y7577D01*
X12576Y7723D02*
X12462Y7837D01*
X12501Y7833D02*
X12615Y7719D01*
X12658Y7853D02*
X12773Y7739D01*
X12343Y7538D02*
X11954Y7928D01*
X12017Y7892D02*
X12351Y7558D01*
X12009Y7424D02*
X12347Y7085D01*
X12351Y7105D02*
X11989Y7467D01*
X11993Y7542D02*
X12351Y7184D01*
Y7223D02*
X11989Y7585D01*
X11981Y7633D02*
X12351Y7262D01*
X12351Y7302D02*
X11903Y7751D01*
X11922Y7770D02*
X12351Y7341D01*
X12332Y7400D02*
X11942Y7790D01*
X11969Y7802D02*
X12351Y7420D01*
Y7459D02*
X11989Y7821D01*
X11985Y7865D02*
X12351Y7499D01*
X11796Y7947D02*
X11796Y8302D01*
X11658Y7955D02*
X11997Y7617D01*
X12013Y7420D02*
X11481Y7951D01*
X12647Y6353D02*
X12477Y6184D01*
X9828Y6199D02*
X9717Y6310D01*
X6013Y7680D02*
X5536Y7203D01*
X13048Y6554D02*
X13048Y6388D01*
X13245Y6203D02*
X13052Y6010D01*
X13056Y5991D02*
X13284Y6219D01*
X13442Y6211D02*
X13265Y6034D01*
X13363Y6180D02*
X13028Y5845D01*
X13020Y5813D02*
X13403Y6196D01*
X13265Y6034D02*
X13025Y5794D01*
X13028Y5774D02*
X13225Y5971D01*
X13037Y5759D02*
X13521Y6243D01*
X12647Y5774D02*
X12631D01*
X15036Y5837D02*
X15154D01*
X13024Y5794D02*
X12823D01*
X12847Y5813D02*
X13019D01*
X13027Y5774D02*
X12633D01*
X12603Y5759D02*
X13035D01*
X13027Y5845D02*
X12903D01*
X12824Y5971D02*
X13060D01*
X13052Y6010D02*
X12824D01*
X12847Y5991D02*
X13056D01*
X11572Y6018D02*
X9497D01*
X9513Y6034D02*
X11564D01*
X12611Y5921D02*
X12726D01*
X12827D01*
X11666Y6066D02*
X11662D01*
X10670Y6050D02*
X9529D01*
X9540Y6070D02*
X10666D01*
X11753Y6199D02*
X11895D01*
X9828Y6168D02*
X9489D01*
X9328Y6207D02*
X9300D01*
X9812Y6152D02*
X11564D01*
X9780Y6184D02*
X9639D01*
X9780D02*
X9843D01*
X11895Y6199D02*
X12375D01*
X12367Y6215D02*
X11887D01*
X11879Y6231D02*
X12359D01*
X11887Y6215D02*
X11745D01*
X11737Y6231D02*
X11879D01*
X10351Y6184D02*
X9843D01*
X9812Y6152D02*
X9450D01*
X9434Y6136D02*
X9796D01*
X9717Y6121D02*
X9414D01*
X12312Y6117D02*
X12316D01*
X11595Y6089D02*
X10710D01*
X10702Y6105D02*
X11588D01*
X11580Y6121D02*
X9717D01*
X9796Y6136D02*
X11572D01*
X10359Y6168D02*
X9828D01*
X12351Y6199D02*
X12469D01*
X12462Y6215D02*
X12355D01*
Y6231D02*
X12454D01*
X11568Y6188D02*
X11048D01*
X11777Y6184D02*
X12477D01*
X12489Y6168D02*
X11871D01*
X12308Y6117D02*
X12458D01*
X12312D02*
X11938D01*
X11942D02*
X11863D01*
X10336Y6215D02*
X9843D01*
X9828Y6199D02*
X10343D01*
X9328Y6243D02*
X9312D01*
X11871Y6247D02*
X12351D01*
X12343Y6262D02*
X11863D01*
X11871Y6247D02*
X11729D01*
X11721Y6262D02*
X11863D01*
X12340Y6247D02*
X12446D01*
X12438Y6262D02*
X12336D01*
X12328Y6081D02*
X11914D01*
X12312D02*
X12446D01*
X11725Y6294D02*
X11706D01*
X12615Y6416D02*
X12910D01*
X12950Y6400D02*
X12623D01*
X12631Y6384D02*
X12989D01*
X11832Y6428D02*
X10619D01*
X12647Y6353D02*
X13068D01*
X13143Y6306D02*
X12670D01*
X9458Y6365D02*
X9217D01*
X11721Y6294D02*
X12316D01*
X12328D01*
X12666Y6321D02*
X13131D01*
X12666D02*
X12662D01*
X12658Y6337D02*
X13107D01*
X12422Y6294D02*
X12304D01*
X12257Y6314D02*
X12418D01*
X12414Y6333D02*
X12001D01*
X11950Y6384D02*
X11899D01*
X11824Y6404D02*
X11654D01*
X11879Y6349D02*
X11946D01*
X11981Y6314D02*
X12288D01*
X12639Y6369D02*
X13029D01*
X12485Y6428D02*
X11808D01*
X11824Y6447D02*
X10615D01*
X12607Y6432D02*
X12871D01*
X12836Y6447D02*
X12599D01*
X12592Y6463D02*
X12792D01*
X12485Y6447D02*
X11710D01*
X11855Y6278D02*
X12336D01*
X11855D02*
X11714D01*
X12320D02*
X12430D01*
X11784Y6546D02*
X10174D01*
X10154Y6526D02*
X11792D01*
X11753Y6625D02*
X10253D01*
X10214Y6585D02*
X11769D01*
X11761Y6605D02*
X10233D01*
X10320Y6507D02*
X10454D01*
X10320D02*
X10135D01*
X10194Y6566D02*
X11777D01*
X11800Y6507D02*
X10454D01*
X12658Y6495D02*
X12666D01*
X12473Y6487D02*
X11780D01*
X11796Y6507D02*
X12446D01*
X12253Y6585D02*
X11761D01*
X11753Y6605D02*
X12237D01*
X11808Y6487D02*
X10607D01*
X15056Y6542D02*
X15154D01*
X12611Y6530D02*
X12576D01*
X12572D01*
X12568D01*
Y6510D02*
X12627D01*
X12631D02*
X12615D01*
X12576Y6554D02*
X12572D01*
X12497Y6593D02*
X12395D01*
X12328Y6526D02*
X11784D01*
X12473Y6487D02*
X12481D01*
X12450Y6507D02*
X12446D01*
X12308Y6546D02*
X11777D01*
X11773Y6566D02*
X12280D01*
X12265Y6585D02*
X12253D01*
X12249Y6605D02*
X12237D01*
X12233Y6625D02*
X11737D01*
X12536Y6633D02*
X12576D01*
X12584Y6479D02*
X12706D01*
X12481Y6467D02*
X12473D01*
X11816D02*
X10611D01*
X11800D02*
X12473D01*
X12481D02*
X12485D01*
X12497Y6711D02*
X12391D01*
X12395Y6751D02*
X12536D01*
Y6790D02*
X12399D01*
X13206Y6711D02*
X13324D01*
X12497Y6829D02*
X12383D01*
X12399D02*
X12241D01*
X12387Y6672D02*
X12536D01*
X10981Y6932D02*
X10859D01*
X10958D02*
X11847D01*
X9741Y6900D02*
X9426D01*
X12245Y6908D02*
X12371D01*
X12363D02*
X12576D01*
X12536Y6869D02*
X12363D01*
X12375D02*
X12237D01*
X12355Y7164D02*
X12517D01*
X12536Y7144D02*
X12576D01*
X12426Y7085D02*
X12347D01*
X12351Y7105D02*
X12438D01*
X12505Y7184D02*
X12351D01*
X12399Y7184D02*
X12576D01*
X12615Y7105D02*
X12383D01*
X12355Y7085D02*
X12635D01*
X12355Y7164D02*
X12351D01*
X12127Y7144D02*
X12060D01*
X12351Y7223D02*
X12521D01*
X12536D02*
X12399D01*
X12351Y7302D02*
X12509D01*
X12477Y7341D02*
X12351D01*
X12332Y7400D02*
X12406D01*
X12458Y7381D02*
X12576D01*
X12438Y7400D02*
X12355D01*
X12383Y7341D02*
X12576D01*
X12536Y7302D02*
X12399D01*
X13127Y7381D02*
X13249D01*
X13284Y7341D02*
X13166D01*
X12536Y7420D02*
X12351D01*
X15080Y7251D02*
X15154D01*
X12481Y7262D02*
X12351D01*
X12544D02*
X12615D01*
X12584D02*
X12395D01*
X12391D02*
X12458D01*
X12395Y7538D02*
X12343D01*
X12351Y7558D02*
X12430D01*
X12395Y7577D02*
X12497D01*
X12694D02*
X12733D01*
X12450Y7459D02*
X12351D01*
X12351Y7499D02*
X12403D01*
X12379Y7459D02*
X12536D01*
X12611Y7499D02*
X12367D01*
X12395Y7597D02*
X12477D01*
Y7558D02*
X12367D01*
X12477Y7518D02*
X12556D01*
X12458Y7538D02*
X12355D01*
X12521Y7459D02*
X12576D01*
X12607Y7499D02*
X12733D01*
X12694Y7459D02*
X12556D01*
X13088Y7499D02*
X13324D01*
X11627Y7640D02*
X11229D01*
X11627D02*
X11666D01*
X11241D02*
X11143D01*
X9249D01*
X9253D02*
X8190D01*
X6851D01*
X6843D01*
X6836D01*
X11229Y7660D02*
X11631D01*
X11635Y7680D02*
X11229D01*
X6013D01*
X11631D02*
X11678D01*
X11674Y7660D02*
X11623D01*
X11233D02*
X11013D01*
X10355D01*
X8824D01*
X7714D01*
X6816D01*
X6808D01*
X6800D01*
X15111Y7967D02*
X15151D01*
X12462Y8062D02*
X12225D01*
Y8101D02*
X12501D01*
X12540Y8140D02*
X12265D01*
X12225Y8180D02*
X12580D01*
X12619Y8219D02*
X12265D01*
Y8258D02*
X12658D01*
X12698Y8298D02*
X12265D01*
Y8337D02*
X12737D01*
X13658Y8416D02*
X13958D01*
X14529D01*
X13662D02*
X13548D01*
X14521D02*
X14993D01*
X14505Y8440D02*
X13568D01*
X13662Y8459D02*
X14021D01*
X14005Y8479D02*
X13666D01*
X13576Y8440D02*
X13497D01*
X13434Y8459D02*
X13666D01*
X13698Y8479D02*
X13395D01*
X13698D02*
X14603D01*
X14536Y8440D02*
X14493D01*
X14536D02*
X14552D01*
X14572Y8459D02*
X14013D01*
X14544Y8440D02*
X14993D01*
X15021Y8459D02*
X14548D01*
X14595Y8479D02*
X15048D01*
X15001Y8440D02*
X14981D01*
X9367Y6168D02*
X9328Y6207D01*
X9426Y6900D02*
X9363Y6963D01*
X9450Y6207D02*
X9489Y6168D01*
X9509Y6070D02*
X9529Y6050D01*
X9497Y6018D02*
X9446Y6070D01*
X9477D02*
X9513Y6034D01*
X9414Y6121D02*
X9367Y6168D01*
X10670Y6050D02*
X10710Y6089D01*
X10702Y6105D02*
X10666Y6070D01*
X10859Y6932D02*
X10855Y6936D01*
X10800Y6991D01*
X11481Y7951D02*
Y8144D01*
X11501Y8164D01*
X11521Y8219D02*
X11501Y8239D01*
X11580Y8007D02*
Y7936D01*
X11639Y7947D02*
Y8262D01*
X11658Y7967D02*
Y7955D01*
X11639Y7947D02*
Y7936D01*
X11599Y7947D02*
Y8302D01*
X11599Y7947D02*
Y7936D01*
X11635Y6384D02*
Y6255D01*
X11521Y7947D02*
Y8219D01*
X11521Y7947D02*
Y7936D01*
X11635Y6255D02*
X11568Y6188D01*
X11635Y6384D02*
X11654Y6404D01*
X11599Y8302D02*
X11580Y8321D01*
X11619Y8282D02*
X11639Y8262D01*
X11836D02*
Y7947D01*
X11875D02*
Y8262D01*
X11875Y7947D02*
Y7936D01*
X11836Y7936D02*
Y7947D01*
X11757D02*
Y8262D01*
X11796Y7947D02*
Y7936D01*
X11757Y7936D02*
Y7947D01*
X11717D02*
Y8341D01*
X11717Y7947D02*
Y7936D01*
X11757Y8262D02*
X11777Y8282D01*
X11796Y8302D02*
X11816Y8321D01*
X11777Y6184D02*
X11773Y6180D01*
X11859Y6156D02*
X11871Y6168D01*
X11717Y8341D02*
X11737Y8361D01*
X11903Y6093D02*
X11914Y6081D01*
X11867Y6361D02*
X11824Y6404D01*
X11867Y6361D02*
X11879Y6349D01*
X11875Y8262D02*
X11895Y8282D01*
X11855D02*
X11836Y8262D01*
X12076Y7920D02*
Y7916D01*
X11954Y7928D02*
Y7932D01*
Y7944D01*
X11973Y7936D02*
Y8046D01*
X11993Y8007D02*
Y7987D01*
Y8007D02*
Y8066D01*
X12076Y7924D02*
Y7920D01*
Y7924D02*
Y7928D01*
Y7936D01*
Y8101D01*
X11954Y7987D02*
Y7940D01*
X11954Y7947D02*
Y7987D01*
X11993D02*
Y7979D01*
X11914Y7947D02*
Y8184D01*
X11914Y7947D02*
Y7936D01*
X11914Y8184D02*
X11934Y8203D01*
X11934Y8085D02*
X11973Y8046D01*
Y7936D02*
X12021Y7888D01*
X11993Y8066D02*
X11973Y8085D01*
X12013Y8164D02*
X12076Y8101D01*
X11954Y7987D02*
X11934Y8007D01*
X11950Y6384D02*
X12001Y6333D01*
X11981Y6314D02*
X11946Y6349D01*
X12190Y6881D02*
Y7117D01*
X12206Y7129D02*
Y6900D01*
X12221Y6932D02*
Y7136D01*
X12206Y8042D02*
X12225Y8062D01*
X12206Y8081D02*
X12225Y8101D01*
X12245Y8199D02*
X12265Y8219D01*
X12245Y8239D02*
X12265Y8258D01*
X12245Y8278D02*
X12265Y8298D01*
X12245Y8318D02*
X12265Y8337D01*
X12206Y8199D02*
X12225Y8180D01*
X12206Y6900D02*
X12214Y6892D01*
X12245Y6908D02*
X12221Y6932D01*
X12190Y6881D02*
X12241Y6829D01*
X12237Y6869D02*
X12214Y6892D01*
X12245Y8121D02*
X12265Y8140D01*
X12462Y8062D02*
Y7837D01*
X12395Y6593D02*
X12328Y6526D01*
X12418Y6633D02*
X12438Y6652D01*
X12568Y6510D02*
X12485Y6428D01*
Y6467D02*
X12544Y6526D01*
X12536Y6542D02*
X12481Y6487D01*
X12450Y6507D02*
X12517Y6573D01*
X12568Y6530D02*
X12485Y6447D01*
X12308Y6546D02*
X12395Y6633D01*
Y7597D02*
X12343Y7648D01*
X12458Y7538D02*
X12477Y7518D01*
X12438Y7400D02*
X12458Y7381D01*
X12300Y7215D02*
X12351Y7164D01*
X12395Y6633D02*
X12418Y6633D01*
X12540Y7857D02*
Y8140D01*
X12580Y8180D02*
Y7928D01*
X12619Y7825D02*
Y8219D01*
X12654Y6672D02*
Y6534D01*
X12615D02*
Y6790D01*
X12576Y7640D02*
Y7723D01*
X12654Y7715D02*
Y7743D01*
Y7719D02*
Y7577D01*
X12576Y7577D02*
Y7656D01*
X12615Y7719D02*
Y7538D01*
X12670Y7703D02*
Y7747D01*
X12595Y7203D02*
Y7199D01*
X12536Y6633D02*
Y6542D01*
Y6558D01*
X12603Y7814D02*
Y7904D01*
X12658Y7853D02*
Y8258D01*
X12520Y5819D02*
Y5794D01*
Y5819D02*
Y5830D01*
X12501Y7833D02*
Y8101D01*
X12635Y6810D02*
X12615Y6790D01*
X12595Y6573D02*
X12576Y6554D01*
X12576Y6633D02*
X12595Y6652D01*
X12615Y7262D02*
X12635Y7282D01*
X12635Y7558D02*
X12654Y7577D01*
X12595Y7400D02*
X12576Y7381D01*
X12595Y7361D02*
X12576Y7341D01*
X12556Y7321D02*
X12536Y7302D01*
X12556Y7243D02*
X12536Y7223D01*
X12576Y7184D02*
X12595Y7203D01*
X12595Y7164D02*
X12576Y7144D01*
X12615Y7105D02*
X12635Y7125D01*
X12654Y7105D02*
X12674Y7125D01*
X12654Y7105D02*
X12635Y7085D01*
X12595Y6928D02*
X12576Y6908D01*
X12556Y6888D02*
X12540Y6873D01*
X12536Y6869D01*
X12556Y6810D02*
X12536Y6790D01*
X12556Y6770D02*
X12536Y6751D01*
X12556Y6692D02*
X12536Y6672D01*
X12615Y6534D02*
X12611Y6530D01*
X12556Y6538D02*
X12544Y6526D01*
X12666Y6495D02*
X12694Y6522D01*
X12654Y6534D02*
X12631Y6510D01*
X12576Y6554D02*
X12595Y6573D01*
X12572Y6554D02*
X12556Y6538D01*
X12544Y6526D02*
X12540Y6522D01*
X12611Y5921D02*
X12520Y5830D01*
X12497Y6554D02*
X12517Y6573D01*
X12497Y6593D02*
X12517Y6613D01*
X12497Y6829D02*
X12517Y6849D01*
Y6731D02*
X12497Y6711D01*
X12572Y5833D02*
X12631Y5774D01*
X12603Y5758D02*
X12548Y5814D01*
X12603Y7904D02*
X12580Y7928D01*
X12635Y6692D02*
X12654Y6672D01*
X12694Y7420D02*
X12674Y7440D01*
X12654Y7743D02*
X12611Y7786D01*
X12603Y7814D02*
X12670Y7747D01*
X12635Y7810D02*
X12733Y7711D01*
X12615Y7538D02*
X12635Y7518D01*
X12694Y7680D02*
X12670Y7703D01*
X12536Y7420D02*
X12556Y7400D01*
X12611Y7786D02*
X12540Y7857D01*
X12619Y7825D02*
X12635Y7810D01*
X12517Y7164D02*
X12536Y7144D01*
X12517Y7558D02*
X12497Y7577D01*
X12576D02*
X12595Y7558D01*
X12576Y6495D02*
X12662Y6495D01*
X12773Y7727D02*
Y7739D01*
X12812Y7739D02*
Y7577D01*
X12851D02*
Y7656D01*
X12832Y7676D02*
Y7751D01*
X12733Y7711D02*
Y7617D01*
X12773Y7577D02*
Y7735D01*
X12733Y7341D02*
Y6692D01*
Y6711D02*
Y6507D01*
X12812Y6483D02*
Y6554D01*
Y6633D01*
X12851Y6593D02*
Y6463D01*
X12737Y7845D02*
Y8337D01*
X12694Y7420D02*
Y6888D01*
Y7636D02*
Y7680D01*
Y6892D02*
Y6522D01*
X12698Y7853D02*
Y8298D01*
X12812Y6483D02*
X12792Y6463D01*
X12836Y6447D02*
X12851Y6463D01*
X12871Y6432D02*
X12891Y6451D01*
X12733Y6507D02*
X12706Y6479D01*
X12753Y7558D02*
X12733Y7577D01*
X12773D02*
X12792Y7558D01*
X12812Y7739D02*
X12792Y7758D01*
X12851Y7577D02*
X12871Y7558D01*
X12851Y7656D02*
X12832Y7676D01*
Y7751D02*
X12737Y7845D01*
X12733Y7617D02*
X12753Y7597D01*
X12812Y7577D02*
X12832Y7558D01*
X12753Y7479D02*
X12733Y7499D01*
X12714Y7361D02*
X12733Y7341D01*
X12792Y6652D02*
X12812Y6633D01*
X12832Y6613D02*
X12851Y6593D01*
X12871Y6613D02*
X12891Y6593D01*
X12827Y5921D02*
X12903Y5845D01*
X12792Y7758D02*
X12698Y7853D01*
X12694Y7459D02*
X12714Y7440D01*
X12694Y7577D02*
X12694Y7648D01*
X13009Y6554D02*
Y6404D01*
X12930Y6436D02*
Y6554D01*
X12969D02*
Y6420D01*
X12930Y6546D02*
Y6633D01*
X12969Y6633D02*
Y6538D01*
X13009Y6522D02*
Y6633D01*
X13048Y6633D02*
Y6546D01*
X12891Y6593D02*
Y6451D01*
X13068Y6353D02*
X13088Y6373D01*
X12930Y6436D02*
X12910Y6416D01*
X12950Y6400D02*
X12969Y6420D01*
X12989Y6384D02*
X13009Y6404D01*
X12930Y6633D02*
X12910Y6652D01*
X12950Y6652D02*
X12969Y6633D01*
X12989Y6652D02*
X13009Y6633D01*
X13029Y6652D02*
X13048Y6633D01*
X13048Y6388D02*
X13029Y6369D01*
X13206D02*
Y6554D01*
X13245Y6573D02*
Y6203D01*
X13166Y6357D02*
Y6554D01*
X13127Y6550D02*
Y6357D01*
Y6538D02*
Y7381D01*
X13206Y6711D02*
Y6558D01*
Y6542D01*
X13245Y6554D02*
Y6633D01*
X13166Y6495D02*
Y7341D01*
X13088Y6554D02*
Y6373D01*
Y6510D02*
Y7381D01*
Y7341D02*
Y7499D01*
X13245Y7381D02*
X13265Y7400D01*
X13206Y6369D02*
X13143Y6306D01*
X13131Y6321D02*
X13166Y6357D01*
X13127D02*
X13107Y6337D01*
X13245Y6633D02*
X13225Y6652D01*
X13265D02*
X13284Y6633D01*
X13458Y8160D02*
Y8400D01*
X13324Y6633D02*
Y6235D01*
X13363Y6180D02*
Y6633D01*
X13403D02*
Y6196D01*
X13363Y6617D02*
Y6633D01*
X13442Y6672D02*
Y6211D01*
X13363Y7696D02*
Y7766D01*
X13403D02*
Y7696D01*
X13442D02*
Y7766D01*
X13403Y7758D02*
Y8412D01*
X13363Y8447D02*
Y7751D01*
X13403Y8412D02*
Y8428D01*
X13284Y6633D02*
Y6219D01*
Y7341D02*
Y7420D01*
X13458Y8400D02*
X13497Y8440D01*
X13430Y8455D02*
X13403Y8428D01*
X13430Y8455D02*
X13434Y8459D01*
X13343Y7518D02*
X13324Y7499D01*
X13343Y7676D02*
X13363Y7696D01*
X13383Y7676D02*
X13403Y7696D01*
X13422Y7676D02*
X13442Y7696D01*
X13462Y7676D02*
X13481Y7696D01*
X13442Y7766D02*
X13485Y7810D01*
X13363Y8447D02*
X13395Y8479D01*
X13304Y7440D02*
X13284Y7420D01*
X13485Y8133D02*
X13458Y8160D01*
X13328Y6707D02*
X13343Y6692D01*
X13328Y6707D02*
X13324Y6711D01*
X13304Y6652D02*
X13324Y6633D01*
X13343Y6652D02*
X13363Y6633D01*
X13383Y6652D02*
X13403Y6633D01*
X13442Y6672D02*
X13422Y6692D01*
X13462D02*
X13477Y6676D01*
X13481Y6672D02*
X13462Y6692D01*
X13521Y6633D02*
Y6243D01*
Y7806D02*
Y8392D01*
X13481Y7766D02*
Y7696D01*
Y6672D02*
Y6227D01*
X13485Y7810D02*
Y8133D01*
X13521Y8388D02*
X13548Y8416D01*
X13521Y7806D02*
X13481Y7766D01*
X13501Y6652D02*
X13521Y6633D01*
X15036Y7777D02*
Y8404D01*
X15024Y7765D02*
Y6573D01*
X15005Y5868D02*
Y8403D01*
X15036Y7777D02*
X15024Y7765D01*
X15017Y5857D02*
X15036Y5837D01*
X15056Y6542D02*
X15036Y6562D01*
X15060Y8420D02*
X15021Y8459D01*
X15001Y8440D02*
X15036Y8404D01*
X15024Y6574D02*
X15041Y6557D01*
X15004Y8404D02*
X14992Y8416D01*
X15004Y8404D02*
X15005Y8403D01*
Y5868D02*
X15017Y5856D01*
X15080Y7999D02*
Y8392D01*
X15080Y8388D02*
Y8447D01*
X15073Y7765D02*
Y7259D01*
Y7257D01*
X15060Y8377D02*
Y8420D01*
X15060Y8389D02*
Y8306D01*
Y7778D01*
X15111Y7967D02*
X15088Y7991D01*
X15080Y7999D01*
X15073Y7257D02*
X15079Y7251D01*
X15073Y7765D02*
X15060Y7778D01*
X15080Y8447D02*
X15048Y8479D01*
D15*
X7840Y6318D02*
X7308Y6849D01*
X7288Y6896D02*
X7847Y6337D01*
Y6365D02*
X7214Y6999D01*
Y7026D02*
X7851Y6388D01*
X9036Y6070D02*
X9351D01*
X9446Y6388D02*
X7851D01*
X7840Y6318D02*
X9343D01*
X9347Y6337D02*
X9178D01*
X7867D01*
X7847Y6365D02*
X9217D01*
X7867Y6337D02*
X7847D01*
X9387Y6274D02*
X9454D01*
X5351Y6849D02*
X5340D01*
X5351D02*
X7308D01*
X7288Y6896D02*
X5308D01*
X5371Y6999D02*
X7214D01*
Y7026D02*
X5473D01*
X6595Y7451D02*
X6599D01*
X8993Y6180D02*
Y6113D01*
X9032Y6073D02*
X9036Y6070D01*
X9032Y6073D02*
X8993Y6113D01*
X9343Y6318D02*
X9387Y6274D01*
D17*
X6251Y8914D02*
Y9064D01*
X6301Y9014D01*
X6351Y9064D01*
Y8914D01*
X6401Y9064D02*
X6451D01*
X6426D01*
Y8914D01*
X6401D01*
X6451D01*
X6526D02*
Y9064D01*
Y8914D02*
X6601D01*
X6626Y8939D01*
Y9039D01*
X6601Y9064D01*
X6526D01*
X6826D02*
Y8914D01*
X6926D01*
X6976D02*
Y9014D01*
X7026Y9064D01*
X7076Y9014D01*
Y8914D01*
Y8989D01*
X6976D01*
X7126Y9039D02*
Y9064D01*
Y9039D02*
X7176Y8989D01*
X7226Y9039D01*
Y9064D01*
X7176Y8989D02*
Y8914D01*
X7276Y9064D02*
X7376D01*
X7276D02*
Y8914D01*
X7376D01*
X7326Y8989D02*
X7276D01*
X7426Y9064D02*
Y8914D01*
Y9064D02*
X7501D01*
X7526Y9039D01*
Y8989D01*
X7501Y8964D01*
X7426D01*
X7476D02*
X7526Y8914D01*
X7626Y9039D02*
X7676Y9064D01*
X7626Y9039D02*
X7576Y8989D01*
Y8939D01*
X7601Y8914D01*
X7651D01*
X7676Y8939D01*
Y8964D01*
X7651Y8989D01*
X7576D01*
X7875Y9064D02*
Y8914D01*
X7975D01*
X8050Y9064D02*
X8100D01*
X8050D02*
X8025Y9039D01*
Y8939D01*
X8050Y8914D01*
X8100D01*
X8125Y8939D01*
Y9039D01*
X8100Y9064D01*
X8250D02*
X8275Y9039D01*
X8250Y9064D02*
X8200D01*
X8175Y9039D01*
Y8939D01*
X8200Y8914D01*
X8250D01*
X8275Y8939D01*
Y8989D01*
X8225D01*
X8325Y9064D02*
X8375D01*
X8350D01*
Y8914D01*
X8325D01*
X8375D01*
X8525Y9064D02*
X8550Y9039D01*
X8525Y9064D02*
X8475D01*
X8450Y9039D01*
Y8939D01*
X8475Y8914D01*
X8525D01*
X8550Y8939D01*
D22*
X15154Y7251D02*
D03*
X15154Y7967D02*
D03*
X15154Y6542D02*
D03*
Y5837D02*
D03*
X13501Y6652D02*
D03*
X13462Y7676D02*
D03*
X13422D02*
D03*
X13383D02*
D03*
X13343Y7676D02*
D03*
X13304Y7440D02*
D03*
X13343Y7518D02*
D03*
X13462Y6692D02*
D03*
X13422D02*
D03*
X13383Y6652D02*
D03*
X13343Y6652D02*
D03*
X13304Y6652D02*
D03*
X13343Y6692D02*
D03*
X13265Y7400D02*
D03*
Y6652D02*
D03*
X13225D02*
D03*
X13029Y6652D02*
D03*
X12989Y6652D02*
D03*
X12950D02*
D03*
X12910Y6652D02*
D03*
X12714Y7361D02*
D03*
Y7440D02*
D03*
X12753Y7479D02*
D03*
Y7597D02*
D03*
X12792Y7558D02*
D03*
X12832D02*
D03*
X12871D02*
D03*
X12753D02*
D03*
X12871Y6613D02*
D03*
X12832D02*
D03*
X12792Y6652D02*
D03*
X12847Y5814D02*
D03*
Y5991D02*
D03*
X12824Y5794D02*
D03*
Y6010D02*
D03*
Y5971D02*
D03*
X12635Y7518D02*
D03*
Y7558D02*
D03*
X12595D02*
D03*
X12517Y7558D02*
D03*
Y7558D02*
D03*
X12556Y6888D02*
D03*
X12595Y6928D02*
D03*
X12674Y7125D02*
D03*
X12635D02*
D03*
X12595Y7164D02*
D03*
X12595Y7203D02*
D03*
X12556Y7321D02*
D03*
X12595Y7361D02*
D03*
X12595Y7400D02*
D03*
X12556Y7400D02*
D03*
Y7518D02*
D03*
Y7518D02*
D03*
Y7243D02*
D03*
X12674Y7440D02*
D03*
X12635Y7282D02*
D03*
X12517Y6731D02*
D03*
Y6849D02*
D03*
Y6613D02*
D03*
Y6573D02*
D03*
X12556Y6692D02*
D03*
Y6770D02*
D03*
Y6810D02*
D03*
X12595Y6652D02*
D03*
X12595Y6573D02*
D03*
X12635Y6810D02*
D03*
X12635Y6692D02*
D03*
X12572Y5833D02*
D03*
X12548Y5814D02*
D03*
X12521Y5794D02*
D03*
X12477Y7597D02*
D03*
Y7558D02*
D03*
Y7558D02*
D03*
X12438Y6652D02*
D03*
X12127Y7144D02*
D03*
X12206Y8042D02*
D03*
Y8081D02*
D03*
X12245Y8278D02*
D03*
Y8239D02*
D03*
Y8121D02*
D03*
Y8318D02*
D03*
Y8199D02*
D03*
X12206D02*
D03*
X11934Y8203D02*
D03*
X11973Y8085D02*
D03*
X11934D02*
D03*
Y8007D02*
D03*
X12013Y8164D02*
D03*
X11777Y8282D02*
D03*
X11737Y8361D02*
D03*
X11816Y8321D02*
D03*
X11895Y8282D02*
D03*
X11855Y8282D02*
D03*
X11863Y6117D02*
D03*
X11899Y6384D02*
D03*
X11859Y6156D02*
D03*
X11903Y6093D02*
D03*
X11580Y8321D02*
D03*
Y8007D02*
D03*
X11619Y8282D02*
D03*
X11658Y7967D02*
D03*
X11662Y6066D02*
D03*
X11501Y8164D02*
D03*
X11501Y8243D02*
D03*
X11048Y6188D02*
D03*
X10800Y6991D02*
D03*
X9757Y6963D02*
D03*
X9836Y6963D02*
D03*
X9796D02*
D03*
X9914D02*
D03*
X9875D02*
D03*
X9717D02*
D03*
Y6310D02*
D03*
Y6341D02*
D03*
X9454Y6274D02*
D03*
X9446Y6388D02*
D03*
Y6070D02*
D03*
X9477D02*
D03*
X9509Y6070D02*
D03*
X9540Y6070D02*
D03*
X9450Y6207D02*
D03*
X9363Y6963D02*
D03*
X9217Y6365D02*
D03*
X9347Y6337D02*
D03*
X9351Y6070D02*
D03*
X9328Y6274D02*
D03*
X9312Y6243D02*
D03*
X9300Y6207D02*
D03*
X6690Y7550D02*
D03*
X6595Y7451D02*
D03*
X6623Y7428D02*
D03*
X5473Y7026D02*
D03*
X5536Y7203D02*
D03*
X5371Y6999D02*
D03*
X5308Y6896D02*
D03*
X5340Y6849D02*
D03*
D43*
X8995Y6184D02*
D03*
M02*
