M71
M48
T1F00S00C0.009
T2F00S00C0.020
T3F00S00C0.030
T4F00S00C0.032
T5F00S00C0.039
T6F00S00C0.040
T7F00S00C0.080
T8F00S00C0.150
%
T01
X12041Y01604
X12095Y01639
X12074Y01685
X12095Y01731
X12103Y01803
X12044Y01768
X12102Y01567
X1235Y0161
X12334Y01661
Y01709
X12323Y01858
X12425Y02098
X1235Y02315
X12334Y02366
Y02413
X12092Y02433
X12074Y0239
X12093Y02346
X12102Y02271
X12038Y0231
X12035Y0246
X12034Y02568
X12103Y02507
X12531Y02315
X12645Y02201
X12917Y02114
X12953Y02004
X12954Y01685
X12819Y01685
X12657Y01768
X12531Y0161
X13028Y01547
X12954Y02389
X12819Y0239
X11968Y02356
X11933Y02457
X11848Y02431
X11748Y02414
X11749Y02308
X11849Y02306
Y02188
X11749Y02187
Y02059
X11849Y02058
X11848Y01948
X1175Y0195
X11749Y01823
X11849
X11893Y01736
X11986
X11983Y01635
X1189
X11791Y01649
X11751Y01707
X11079Y01803
X10937Y01768
X10933Y01839
Y01909
Y01984
Y02055
X10972Y02256
X10917Y02346
X10878
Y02386
Y02425
Y02465
Y02504
X10839Y02543
X10917
Y02583
X10839Y02465
X10799
X1076Y02425
Y02386
X10799
Y02346
X1076
X1072
X10681
Y02386
Y02425
Y02465
X1072
Y02425
X1072Y02386
X10642Y02425
Y02465
Y02504
X10602
X10563
X10563Y02465
X10524Y02465
X10484
Y02504
Y02543
X10524
X10563Y02543
X10602Y02465
Y02425
X10563Y02386
X10445Y02465
X10681Y02543
X1076Y02504
X10839Y02425
Y02346
X10839Y02307
X10917Y02386
X11112Y02414
X1111Y02515
X11325
X11326Y02414
X11487
X11485Y02515
X11633
X11635Y02414
X11761Y02515
X11934Y02574
X10925Y01697
Y0163
Y01563
X1087Y01543
X10535Y01587
X10614Y01677
X1072Y01791
X10504Y02059
X10472
X10437
X10433Y0202
X10409Y02
X10386Y0198
X10362Y01961
X10339Y01941
X10315Y01921
X10291Y01902
X10268Y01882
X10248Y01827
X10224Y01803
Y01764
X10201Y01744
Y01783
X10067Y01823
Y01862
Y01902
Y01941
Y0198
X10063Y0202
X10039Y02
Y01961
Y01921
Y01882
Y01843
X10043Y01803
X1002Y01783
X09996Y01764
X09972Y01744
X09949Y01724
X09925Y01705
X09902Y01685
X09898Y01567
X09925Y01587
X09949Y01606
X09972Y01626
X09996Y01646
X1002Y01665
X10201Y01606
Y01567
X10224Y01587
Y01626
X10295Y01665
Y01705
X10323Y01685
Y01646
X10319Y0185
X10386
X10366Y02189
Y02343
X10327Y02386
Y02425
Y02465
Y02504
X10366Y02504
Y02465
X10406
Y02425
X10366Y02425
X10406Y02386
X10287
Y02425
Y02465
X10248
X10209Y02465
X10169
Y02425
Y02386
X10209
X10248
Y02346
X10209
X10169Y02346
X10091Y02346
Y02307
X10051Y02346
Y02386
Y02425
X10012
Y02465
X10012Y02504
X09972
X09933
X09933Y02543
X09894
X09894Y02504
Y02465
Y02425
X09858
X09854Y02465
Y02504
X09815
Y02425
X09776
X09815Y02386
X09854
X09854Y02346
X09894
Y02386
X09933
Y02346
X09972
X09972Y02386
X10012
X09972Y02425
X09933
X09933Y02465
X09972
X09972Y02543
Y02583
X09972Y02622
X10012
Y02583
X10051Y02583
X10012Y02543
X09933Y02583
Y02622
X09894
Y02583
X09854Y02583
Y02622
X09815Y02346
X0978Y02177
X09709
X09618Y02453
X09567Y02461
X09179Y02464
X09177Y02563
X09217Y02559
X09209Y02606
X0911Y02496
X08988Y02445
X08886Y02461
X08898Y02492
X08933Y02571
X08898Y02618
X08936Y01992
X09039Y01839
X09087Y01783
Y01669
X09089Y01587
X09209Y01622
Y0172
X09244Y01705
X09319Y01677
Y0176
X0928Y01866
X0924Y0189
X09236Y01929
X092Y01882
X09331Y01913
X09315Y02094
X09276Y02157
X09177Y02094
X08986Y01725
Y01674
X10059Y02059
X10087Y02039
X1013Y02504
X10209Y02543
X10406
X08642Y02547
X08614Y02571
X08591Y02547
X085
X08539Y02594
X08373Y02534
X08146Y02606
X08197Y02047
X08016
Y01992
X08106Y01839
X08264Y01839
X08433Y0184
X08425Y01961
X0846Y01992
X08311Y01674
X08321Y01606
X08862Y0176
X07496Y01732
X07028Y0187
X07
X06917Y01843
X06886Y01843
X06854Y01843
X06823
X06728
X06677Y0198
X06689Y02016
X06705Y02047
X06724Y0211
X06823Y02161
X06831Y02047
X06827Y0198
X07094Y01988
X07094Y0202
X07094Y02051
Y02083
Y02114
X07051Y02343
Y02417
X06746Y02475
X06508Y02307
X06437
X06594Y02185
Y02138
X06575Y01783
X02748Y02575
X02717Y02622
X0261Y02476
X02433Y02524
X0219Y02425
X01953Y02528
Y02622
X01913Y02657
X01949Y0272
X01878Y02756
X01843Y02795
X01945Y02823
Y03024
X01878Y03059
X0185Y03008
X01909Y03142
X01945Y03173
Y03276
X01941Y03374
X02031Y03492
X02185Y03425
X0222Y03528
X02346Y03634
Y03772
X01969Y03669
X02585Y03485
X02445Y03173
X02587Y02941
X02437Y0272
X02378Y02673
X02228
X02189Y02969
X027Y02903
X02748Y02772
X0285Y02799
X02913Y02976
X02685Y02669
X027Y0344
X02938Y03689
X04067Y03323
X04028Y03173
X04Y03201
X03972Y03224
X06465Y02878
X06583
X06543Y02748
X06504
X06622Y02736
X06661
X06701
X0674Y02736
X06819Y02736
X06858
X06898
X06937
X06976Y02736
X07016Y02736
X07094
X07134Y02736
X07173Y02736
X07213
X07252
X07291
X07055Y02878
X0678
X07331
X0737Y02736
X07409
X07449
X07488Y02736
X07528Y02736
X07567
X07606Y02878
X08185Y02839
X08177Y02764
X08181Y02701
X08409Y02638
X08512Y02681
X08539
X08614Y02669
X08685Y02756
X08819Y02677
X08488Y02815
X08496Y02874
X085Y03024
X08539Y03075
Y03157
X08512
X08614Y03126
Y03051
X08591Y03024
X08642Y0302
X08685Y0324
X08819Y03169
X08488Y03292
X08488Y03339
X08406Y03094
X08373Y02992
X08146Y03063
X08008Y03724
X07917Y03878
Y03933
X08098
X08205Y03839
X08339Y03858
X08487Y03817
X08638Y03724
X08638Y03528
X08709
X08799Y03819
Y03858
X08839
Y03898
X08799
X08839Y03937
X08839Y04016
X08799
Y04055
X08839
X08673Y03972
Y03902
X07815Y03839
X07709Y03933
X07528
X07528Y03878
X07618Y0372
X08878Y0378
X08957Y0378
X08996Y0374
X09035
X09075Y0378
X09075Y03819
X09075Y03898
X09114
Y03937
Y04016
X09075
X08996
X08957
X08917
X08917Y03976
Y03937
Y03898
X08917Y03858
X08996Y03898
X08957Y03937
X09035
X09193
Y03898
X09232Y03937
Y03976
X09193Y04016
X09154Y04055
X09193Y04094
X09232Y04055
X09272Y04055
X09272Y04016
X09311
Y03976
X0935Y03976
Y03937
X0939
X09311Y03898
X09272
Y03937
X09272Y03858
X09311Y03858
X0935
X09311Y0378
X09311Y0374
X09193Y0378
X09421Y03669
X0948Y0387
X09583Y03854
Y03894
X09622
Y03933
Y03972
X09583
X09543
Y04012
Y04051
X09622
Y04091
Y04012
X09661
Y04012
X09701Y04012
X0974
X0974Y04091
X0978Y04051
X09819Y04012
X09858
X09937
X09976Y03972
Y03933
X09937
Y03894
X09858
X09819
X0978Y03933
X09858
X0974Y03894
X09701Y03933
X09661Y03933
Y03972
Y04051
X09661Y03854
X09583Y03815
X09622Y03776
X09819Y03776
X09957Y03661
X09992Y03524
X09972Y03449
Y03409
X09933
X09894
X09894Y0337
X09933Y0337
X09933Y03331
X09972Y03331
X09972Y03291
X10012Y03291
Y03331
Y0337
X10012
X10051
Y03331
Y03331
Y03291
Y03291
X10091
Y03291
Y03252
X1013
X10169
X10209
Y03291
X10248
X10287
X10327
X10327
Y03331
Y03331
Y0337
X10287
Y03331
X10287
X10248
Y0337
X10209
X10209
Y03331
X10169
Y0337
X10169
X1013
Y03331
Y03291
X10091Y03331
Y0337
Y03409
X1013
Y03409
X10169Y03409
X10169Y03449
X10091Y03449
X10051Y03409
X10012
X09972Y0337
X09972
X09933Y03291
Y03291
X09972Y03252
X09972Y03213
X09933
X09933Y03173
X09972Y03173
X10012
X10012Y03134
X10051
X10091
Y03173
Y03213
X10051
X09972Y03134
X09933
Y03094
X09972
X10012
X10012Y03055
X09972
X09933
Y03016
X09972
Y02976
X09933
X09894
X09894Y03016
Y03055
Y03094
Y03134
X09894Y03173
X09894Y03213
X09894Y03252
X09854Y03252
X09815
X0974Y03213
X09764Y03154
X09854Y03173
X09854Y03134
X09854Y03094
X09815Y03055
Y02976
X09854
Y02898
X09894
X09933
Y02937
X09972
X10012
Y02976
X10051
X10091Y02937
X10091Y02898
X10051
X10012
X09972
Y0278
Y02701
X09933
Y02661
X09972
X09894
X09854
Y02701
X09815Y02661
Y02819
X09854
X09894Y0278
X1013
Y02819
Y02858
X10209
X10248
X10287
Y02819
Y0278
X10327
X10366
Y02819
X10327
Y02858
X10366
Y02898
X10327
Y02937
X10366
Y02976
X10327
Y03016
X10366
X10406
Y02976
Y02937
Y02898
Y02858
Y02819
Y0278
Y0274
X10366
X10327
X10287
X10248
X10209
Y0278
Y02819
X10248
Y0278
X10209Y02701
X10209Y02661
X10169
X1013
Y02701
Y0274
Y02937
Y02976
Y03016
Y03055
Y03094
Y03134
X10169
X10209
X10248
X10287
Y03173
Y03213
X10327
Y03173
Y03134
X10406
Y03055
X10366
X10327
X10287
X10248
Y03016
Y02976
X10287
Y02937
Y02898
X10248Y02937
X10209
Y02976
Y03016
Y03055
Y02898
X10012Y03016
X0974Y02898
X09528
X09504Y02917
X09299Y02945
X09236Y03008
X09138Y03083
Y03114
X09051Y03118
X08937Y03087
X08943Y03238
X08913Y03606
X08878Y03937
X08878Y03976
X08878Y04016
X08917Y04055
X08957Y04094
X08996Y04055
X09075Y04134
X09114Y04134
X0935Y04134
X0935Y04094
X09311
X0935Y04055
Y04016
X09469Y04004
X09819Y0413
X09858
X09898Y04091
X09937Y0413
X10055
X10094
X10134
Y04091
X10134Y03972
X10094
X10055
Y03933
X10094
X10094Y04012
X10016
Y03972
Y03854
X10138Y03772
X10256Y03894
Y03972
X09976Y04051
X10016Y04091
X10287Y03598
X10228Y03496
X10209Y03409
X10248
X10287
X10327
Y03252
X10287
X09894Y03331
Y03331
X09854
Y03331
Y0337
X09854Y03409
X09854Y03449
X09815
X09815Y03492
X09772Y03453
X09701Y03567
X09642
X09374Y03169
X09433Y03106
X09142Y02846
X09146Y02811
X0915Y02772
X09157Y02732
X09126Y02626
X08944Y02756
X10366Y02701
X10366Y02661
X10524
Y02701
Y0274
X10484
Y0278
Y02819
X10524
Y0278
Y02858
X10484
X10445
Y02819
Y0278
Y0274
X10602
Y02701
Y02661
X10563
X10602Y0278
Y02819
Y02858
Y02898
Y02937
Y02976
Y03016
Y03055
Y03094
Y03134
X10563
X10524
X10484
X10445
Y03055
X10484
X10524
Y03016
X10484
X10524Y02976
Y02937
X10484
X10445
Y02898
X10524
X10681
X1072
X1072Y02858
X1076
X10878Y02858
X10917Y02858
Y02819
X10878Y02819
X10839
X10839Y0278
X10917Y0278
X10878Y0274
X10917Y02661
X10799
X10961Y02819
X10957Y02898
X10878Y02976
X10839Y02976
Y03016
X10917
Y03055
Y03094
Y03134
X10839Y03173
Y03252
X10878
X10878Y03291
X10917Y03331
Y0337
X10878Y03409
X10917Y03449
X10839
X10799
X1076
X1072Y03449
X10681Y03449
X10563Y03409
X10528Y03559
X10535Y03642
X10602Y03807
X10693Y03909
X10874Y03941
X10862Y04012
Y04079
Y04146
X11016Y03906
X11028Y03783
X11134Y03689
X11016Y03571
X10831Y03634
X10839Y0337
X10799Y03331
X1076Y03291
X1072
X10681Y03213
X10642Y03213
X10642Y03173
X10524Y03252
X10445
Y02976
X1072Y03016
X11111Y03026
X11112Y02926
Y0279
Y0269
X11325Y02691
X11323Y0279
X11318Y02926
X1132Y03027
X11483
X11484Y02926
X11488Y0279
Y0269
X11628
X11627Y0279
X11625Y02926
X11624Y03027
X11764
X11772Y02926
X11888
Y03027
X11941Y03094
X11992Y0294
X11893Y0279
X11897Y02691
X11778Y0269
X11774Y0279
X11776Y03203
X11698Y03202
X11696Y03302
X11749Y03325
Y03418
Y03514
Y03598
Y0368
Y03767
X11775Y03838
X1184Y03865
X11926
X11941Y03765
X11849
Y03679
Y03597
Y03513
X1185Y03422
X11849Y03324
X11838Y03247
X11574Y03202
X11573Y03302
X11432
X11434Y03202
X11293
X11292Y03302
X11105
X11109Y03202
X11224Y03902
X11354Y03854
X11492Y03854
X12026Y03865
X12095Y0386
X12074Y03815
X12094Y0377
X12027Y03765
X12102Y03698
X12104Y03934
X12334Y03839
Y03791
X1235Y0374
X12531Y0374
X12645Y03626
X12425Y0352
X12334Y03122
Y03075
X1235Y03024
X12531Y03024
X12645Y02909
X12425Y02807
X12009Y02763
X12034Y02674
X12036Y03021
X12094Y0306
X12074Y03098
X12093Y03142
X12026Y0315
X12102Y03218
Y02981
X12819Y03098
X12954Y03098
X12917Y02823
X12953Y02709
Y03417
X12917Y03539
X12954Y03815
X12819Y03815
X12953Y04134
X0852Y04189
X0837
T02
X06348Y02902
X07722Y02902
T03
X0726Y01693
X07339
X07996Y04146
X08075
T04
X06646Y02365
X06846
X01747Y02408
Y02508
Y02608
Y02708
Y02808
Y02908
Y03008
Y03108
Y03208
Y03308
X01647Y03258
Y03158
Y03058
Y02958
Y02858
Y02758
Y02658
Y02558
Y02458
Y03358
T05
X07618Y02118
X0778Y02122
X07697Y02232
X07539
X10504Y04205
X1037
T06
X08461Y02118
X08561
X08661
X08761
X08861
X08961
X09061
X06372Y01957
X06272
X06172
X06072
X05972
X05872
X05772
T07
X01719Y03414
T08
X11362Y02199
X07268
X04846
X01697
Y03616
X04846
X07268
X11362
M30
