*%FSLAX23Y23*%
*%MOIN*%
G01*
D11*
X4162Y5727D02*
X15879D01*
Y8502D02*
X4162D01*
Y5727D01*
X15879D02*
Y8502D01*
D13*
X12599Y6530D02*
X12603Y6361D01*
X11832Y6554D02*
X11694Y6416D01*
X11895Y5767D02*
X10559D01*
X10554Y5772D02*
X11900D01*
X11905Y5777D02*
X10549D01*
X10544Y5782D02*
X11910D01*
X11915Y5787D02*
X10539D01*
X10534Y5792D02*
X11920D01*
X11692Y5797D02*
X10529D01*
X11692D02*
X11699D01*
X11724D02*
X11731D01*
X11925D01*
X11692Y5802D02*
X10524D01*
X11731D02*
X11930D01*
X11692Y5807D02*
X10519D01*
X11731D02*
X11935D01*
X11692Y5812D02*
X10514D01*
X11731D02*
X11940D01*
X10925Y5817D02*
X10509D01*
X10925D02*
X10931D01*
X10957D02*
X10963D01*
X11692D01*
X11731D02*
X11945D01*
X10925Y5822D02*
X10504D01*
X10963D02*
X11692D01*
X11731D02*
X11950D01*
X10925Y5827D02*
X10499D01*
X10963D02*
X11692D01*
X11731D02*
X11955D01*
X10925Y5832D02*
X10494D01*
X10963D02*
X11692D01*
X11701D01*
X11722D02*
X11731D01*
X11812D01*
X11820D01*
X11844D02*
X11851D01*
X11960D01*
X10925Y5837D02*
X10489D01*
X10963D02*
X11812D01*
X11851D02*
X11965D01*
X10925Y5842D02*
X10485D01*
X10963D02*
X11812D01*
X11851D02*
X11966D01*
X11841Y5830D02*
X11822D01*
X11721Y5794D02*
X11702D01*
Y5833D02*
X11721D01*
X10954Y5814D02*
X10934D01*
X10560Y5766D02*
X11895D01*
X10925Y5847D02*
X10485D01*
X10963D02*
X11812D01*
X11851D02*
X11966D01*
X10934Y5852D02*
X10485D01*
X10954D02*
X11812D01*
X11851D02*
X11966D01*
X11812Y5857D02*
X10485D01*
X11851D02*
X11966D01*
X11812Y5862D02*
X10485D01*
X11851D02*
X11966D01*
X11812Y5867D02*
X10485D01*
X11812D02*
X11821D01*
X11843D02*
X11851D01*
X11966D01*
Y5872D02*
X10485D01*
Y5877D02*
X11700D01*
X11719D02*
X11966D01*
X11841Y5868D02*
X11822D01*
X11719Y5877D02*
X11700D01*
X10954Y5853D02*
X10934D01*
X10924Y5882D02*
X10485D01*
X10944D02*
X11599D01*
X11619D02*
X11690D01*
X11729D02*
X11966D01*
X10915Y5887D02*
X10485D01*
X10953D02*
X11590D01*
X11629D02*
X11690D01*
X11729D02*
X11923D01*
X11930D01*
X11954D02*
X11961D01*
X10915Y5892D02*
X10485D01*
X10953D02*
X11590D01*
X11629D02*
X11690D01*
X11729D02*
X11923D01*
X11932Y5885D02*
X11952D01*
X11619Y5882D02*
X11600D01*
X10944D02*
X10924D01*
X10915Y5897D02*
X10485D01*
X10953D02*
X11590D01*
X11629D02*
X11690D01*
X11729D02*
X11923D01*
X10915Y5902D02*
X10485D01*
X10953D02*
X11590D01*
X11629D02*
X11690D01*
X11729D02*
X11923D01*
X10915Y5907D02*
X10485D01*
X10953D02*
X11590D01*
X11629D02*
X11690D01*
X11729D02*
X11923D01*
X10915Y5912D02*
X10485D01*
X10953D02*
X11590D01*
X11629D02*
X11690D01*
X11696D01*
X11723D02*
X11729D01*
X11923D01*
X10915Y5917D02*
X10485D01*
X10915D02*
X10921D01*
X10947D02*
X10953D01*
X11590D01*
X11596D01*
X11622D02*
X11629D01*
X11848D01*
X11886D02*
X11923D01*
X11848Y5922D02*
X10485D01*
X11886D02*
X11923D01*
X11931D01*
X11953D02*
X11961D01*
X11848Y5927D02*
X10485D01*
X11886D02*
X11966D01*
X11812Y5932D02*
X10485D01*
X11886D02*
X11966D01*
X11590Y5937D02*
X10485D01*
X11629D02*
X11812D01*
X11886D02*
X11966D01*
X11590Y5942D02*
X10485D01*
X11629D02*
X11812D01*
X11886D02*
X11966D01*
X11590Y5947D02*
X10485D01*
X11629D02*
X11812D01*
X11886D02*
X11966D01*
X11590Y5952D02*
X10485D01*
X11629D02*
X11812D01*
X11851D02*
X11966D01*
X11590Y5957D02*
X10485D01*
X11629D02*
X11812D01*
X11851D02*
X11966D01*
X11590Y5962D02*
X10485D01*
X11629D02*
X11812D01*
X11851D02*
X11966D01*
X11590Y5967D02*
X10485D01*
X11629D02*
X11966D01*
X11466Y5972D02*
X10485D01*
X11505D02*
X11966D01*
X11466Y5977D02*
X10485D01*
X11505D02*
X11966D01*
X11466Y5982D02*
X10485D01*
X11505D02*
X11966D01*
X11466Y5987D02*
X10485D01*
X11505D02*
X11966D01*
X11466Y5992D02*
X10485D01*
X11505D02*
X11690D01*
X11699D01*
X11720D02*
X11729D01*
X11966D01*
X11466Y5997D02*
X10485D01*
X11505D02*
X11690D01*
X11729D02*
X11966D01*
X11466Y6002D02*
X10485D01*
X11505D02*
X11690D01*
X11729D02*
X11966D01*
X11690Y6007D02*
X10485D01*
X11729D02*
X11966D01*
X11690Y6012D02*
X10485D01*
X11729D02*
X11966D01*
X11690Y6017D02*
X10485D01*
X11729D02*
X11966D01*
X11690Y6022D02*
X10485D01*
X11729D02*
X11966D01*
X11690Y6027D02*
X10485D01*
X11690D02*
X11697D01*
X11722D02*
X11729D01*
X11966D01*
Y6032D02*
X10485D01*
Y6037D02*
X11966D01*
X11952Y5923D02*
X11932D01*
X11877Y5912D02*
X11857D01*
Y5951D02*
X11877D01*
X11841Y5928D02*
X11822D01*
Y5967D02*
X11841D01*
X11719Y5916D02*
X11700D01*
Y5991D02*
X11719D01*
Y6030D02*
X11700D01*
X11619Y5921D02*
X11600D01*
Y5933D02*
X11619D01*
Y5972D02*
X11600D01*
X11495Y5968D02*
X11476D01*
Y6006D02*
X11495D01*
X10944Y5921D02*
X10924D01*
X10485Y6042D02*
X11966D01*
X10719Y6047D02*
X10485D01*
X10740D02*
X10876D01*
X10897D02*
X11652D01*
X11673D02*
X11966D01*
X10710Y6052D02*
X10485D01*
X10749D02*
X10867D01*
X10906D02*
X11037D01*
X11075D02*
X11643D01*
X11682D02*
X11966D01*
X10710Y6057D02*
X10485D01*
X10749D02*
X10867D01*
X10906D02*
X11037D01*
X11075D02*
X11643D01*
X11682D02*
X11966D01*
X10710Y6062D02*
X10485D01*
X10749D02*
X10867D01*
X10906D02*
X11037D01*
X11075D02*
X11643D01*
X11682D02*
X11966D01*
X10710Y6067D02*
X10485D01*
X10749D02*
X10867D01*
X10906D02*
X11037D01*
X11075D02*
X11643D01*
X11682D02*
X11966D01*
X10710Y6072D02*
X10485D01*
X10749D02*
X10867D01*
X10906D02*
X11037D01*
X11075D02*
X11643D01*
X11682D02*
X11966D01*
X11912Y6074D02*
X11893D01*
X11672Y6046D02*
X11653D01*
X11066Y6047D02*
X11046D01*
X10896Y6046D02*
X10877D01*
X10739Y6046D02*
X10720D01*
X10710Y6077D02*
X10485D01*
X10749D02*
X10867D01*
X10906D02*
X11037D01*
X11075D02*
X11643D01*
X11682D02*
X11883D01*
X11890D01*
X11915D02*
X11922D01*
X11966D01*
X10710Y6082D02*
X10485D01*
X10710D02*
X10717D01*
X10742D02*
X10749D01*
X10867D01*
X10874D01*
X10899D02*
X10906D01*
X11037D01*
X11075D02*
X11643D01*
X11650D01*
X11675D02*
X11682D01*
X11883D01*
X11922D02*
X11966D01*
X11883Y6087D02*
X10485D01*
X11922D02*
X11966D01*
X11672Y6085D02*
X11653D01*
X11066Y6086D02*
X11046D01*
X10896Y6085D02*
X10877D01*
X10739Y6085D02*
X10720D01*
X10485Y6092D02*
X11804D01*
X11811D01*
X11835D02*
X11842D01*
X11883D01*
X11922D02*
X11966D01*
X11804Y6097D02*
X10485D01*
X11842D02*
X11883D01*
X11922D02*
X11966D01*
X11804Y6102D02*
X10485D01*
X11922D02*
X11966D01*
X11804Y6107D02*
X10485D01*
X11922D02*
X11966D01*
X11804Y6112D02*
X10485D01*
X11882D02*
X11892D01*
X11913D02*
X11966D01*
X11804Y6117D02*
X10485D01*
X11882D02*
X11966D01*
X11804Y6122D02*
X10485D01*
X11882D02*
X11934D01*
X11943D01*
X11804Y6127D02*
X10485D01*
X11804D02*
X11812D01*
X11834D02*
X11842D01*
X11882D02*
X11934D01*
X11844Y6132D02*
X10485D01*
X11882D02*
X11934D01*
X11849Y6137D02*
X10485D01*
X11869D02*
X11934D01*
X11840Y6142D02*
X10485D01*
X11879D02*
X11934D01*
X11840Y6147D02*
X10485D01*
X11879D02*
X11934D01*
X11840Y6152D02*
X10485D01*
X11879D02*
X11934D01*
X11840Y6157D02*
X10485D01*
X11879D02*
X11934D01*
X11941D01*
X11840Y6162D02*
X10485D01*
X11879D02*
X11966D01*
X11840Y6167D02*
X10485D01*
X11879D02*
X11966D01*
X11029Y6172D02*
X10485D01*
X11067D02*
X11840D01*
X11846D01*
X11872D02*
X11879D01*
X11966D01*
X11029Y6177D02*
X10485D01*
X11067D02*
X11966D01*
X11029Y6182D02*
X10485D01*
X11067D02*
X11966D01*
X11029Y6187D02*
X10485D01*
X11067D02*
X11966D01*
X11029Y6192D02*
X10485D01*
X11067D02*
X11966D01*
X11029Y6197D02*
X10485D01*
X11067D02*
X11966D01*
X11029Y6202D02*
X10485D01*
X11067D02*
X11966D01*
Y6207D02*
X10485D01*
Y6212D02*
X11966D01*
Y6217D02*
X10485D01*
Y6222D02*
X11966D01*
Y6227D02*
X10485D01*
Y6232D02*
X11966D01*
X11963Y6121D02*
X11944D01*
X11963D02*
X11966D01*
X11963Y6160D02*
X11944D01*
X11963D02*
X11966D01*
X11912Y6112D02*
X11893D01*
X11869Y6137D02*
X11850D01*
Y6175D02*
X11869D01*
X11832Y6090D02*
X11813D01*
Y6128D02*
X11832D01*
X11854Y6097D02*
X11873D01*
Y6136D02*
X11854D01*
X11058Y6168D02*
X11039D01*
Y6207D02*
X11058D01*
X10485Y6237D02*
X11966D01*
Y6242D02*
X10485D01*
Y6247D02*
X11966D01*
Y6252D02*
X10485D01*
Y6257D02*
X10619D01*
X10627D01*
X10650D02*
X10658D01*
X10801D01*
X10808D01*
X10832D02*
X10839D01*
X11966D01*
X10619Y6262D02*
X10485D01*
X10658D02*
X10801D01*
X10839D02*
X11966D01*
X10619Y6267D02*
X10485D01*
X10658D02*
X10801D01*
X10839D02*
X11966D01*
X10830Y6255D02*
X10810D01*
X10648D02*
X10629D01*
X11879Y6367D02*
X11887D01*
X10619Y6272D02*
X10485D01*
X10658D02*
X10801D01*
X10839D02*
X11966D01*
X10619Y6277D02*
X10485D01*
X10658D02*
X10801D01*
X10839D02*
X11966D01*
X10619Y6282D02*
X10485D01*
X10658D02*
X10801D01*
X10839D02*
X11966D01*
X10619Y6287D02*
X10485D01*
X10658D02*
X10801D01*
X10839D02*
X11966D01*
X10619Y6292D02*
X10485D01*
X10619D02*
X10628D01*
X10650D02*
X10658D01*
X10801D01*
X10809D01*
X10831D02*
X10839D01*
X11966D01*
X11040Y6297D02*
X10485D01*
X11040D02*
X11127D01*
X11966D01*
X11040Y6302D02*
X10485D01*
X11127D02*
X11161D01*
X11206D02*
X11261D01*
X11306D02*
X11361D01*
X11406D02*
X11461D01*
X11506D02*
X11561D01*
X11606D02*
X11661D01*
X11706D02*
X11966D01*
X11040Y6307D02*
X10485D01*
X11127D02*
X11156D01*
X11211D02*
X11256D01*
X11311D02*
X11356D01*
X11411D02*
X11456D01*
X11511D02*
X11556D01*
X11611D02*
X11656D01*
X11711D02*
X11919D01*
X11957D02*
X11964D01*
X11040Y6312D02*
X10485D01*
X11127D02*
X11151D01*
X11216D02*
X11251D01*
X11316D02*
X11351D01*
X11416D02*
X11451D01*
X11516D02*
X11551D01*
X11616D02*
X11651D01*
X11716D02*
X11919D01*
X11040Y6317D02*
X10485D01*
X11127D02*
X11140D01*
X11146D01*
X11221D02*
X11227D01*
X11240D01*
X11246D01*
X11321D02*
X11327D01*
X11340D01*
X11346D01*
X11421D02*
X11427D01*
X11440D01*
X11446D01*
X11521D02*
X11527D01*
X11540D01*
X11546D01*
X11621D02*
X11627D01*
X11640D01*
X11646D01*
X11721D02*
X11727D01*
X11919D01*
X11040Y6322D02*
X10485D01*
X11127D02*
X11140D01*
X11227D02*
X11240D01*
X11327D02*
X11340D01*
X11427D02*
X11440D01*
X11527D02*
X11540D01*
X11627D02*
X11640D01*
X11727D02*
X11919D01*
X11040Y6327D02*
X10485D01*
X11127D02*
X11140D01*
X11227D02*
X11240D01*
X11327D02*
X11340D01*
X11427D02*
X11440D01*
X11527D02*
X11540D01*
X11627D02*
X11640D01*
X11727D02*
X11919D01*
X11040Y6332D02*
X10485D01*
X11127D02*
X11140D01*
X11227D02*
X11240D01*
X11327D02*
X11340D01*
X11427D02*
X11440D01*
X11527D02*
X11540D01*
X11627D02*
X11640D01*
X11727D02*
X11919D01*
X11040Y6337D02*
X10485D01*
X11127D02*
X11140D01*
X11227D02*
X11240D01*
X11327D02*
X11340D01*
X11427D02*
X11440D01*
X11527D02*
X11540D01*
X11627D02*
X11640D01*
X11727D02*
X11919D01*
X11040Y6342D02*
X10485D01*
X11127D02*
X11140D01*
X11227D02*
X11240D01*
X11327D02*
X11340D01*
X11427D02*
X11440D01*
X11527D02*
X11540D01*
X11627D02*
X11640D01*
X11727D02*
X11929D01*
X11040Y6347D02*
X10485D01*
X11127D02*
X11140D01*
X11227D02*
X11240D01*
X11327D02*
X11340D01*
X11427D02*
X11440D01*
X11527D02*
X11540D01*
X11627D02*
X11640D01*
X11727D02*
X11924D01*
X11040Y6352D02*
X10485D01*
X11127D02*
X11140D01*
X11227D02*
X11240D01*
X11327D02*
X11340D01*
X11427D02*
X11440D01*
X11527D02*
X11540D01*
X11627D02*
X11640D01*
X11727D02*
X11919D01*
X11040Y6357D02*
X10485D01*
X11127D02*
X11140D01*
X11227D02*
X11240D01*
X11327D02*
X11340D01*
X11427D02*
X11440D01*
X11527D02*
X11540D01*
X11627D02*
X11640D01*
X11727D02*
X11914D01*
X11040Y6362D02*
X10486D01*
X11127D02*
X11140D01*
X11227D02*
X11240D01*
X11327D02*
X11340D01*
X11427D02*
X11440D01*
X11527D02*
X11540D01*
X11627D02*
X11640D01*
X11727D02*
X11909D01*
X11040Y6367D02*
X10491D01*
X11127D02*
X11140D01*
X11227D02*
X11240D01*
X11327D02*
X11340D01*
X11427D02*
X11440D01*
X11527D02*
X11540D01*
X11627D02*
X11640D01*
X11727D02*
X11879D01*
X11040Y6372D02*
X10496D01*
X11127D02*
X11140D01*
X11227D02*
X11240D01*
X11327D02*
X11340D01*
X11427D02*
X11440D01*
X11527D02*
X11540D01*
X11627D02*
X11640D01*
X11727D02*
X11879D01*
X11040Y6377D02*
X10501D01*
X11127D02*
X11150D01*
X11217D02*
X11250D01*
X11317D02*
X11350D01*
X11417D02*
X11450D01*
X11517D02*
X11550D01*
X11617D02*
X11650D01*
X11717D02*
X11879D01*
X11040Y6382D02*
X10506D01*
X11127D02*
X11155D01*
X11212D02*
X11255D01*
X11312D02*
X11355D01*
X11412D02*
X11455D01*
X11512D02*
X11555D01*
X11612D02*
X11655D01*
X11712D02*
X11879D01*
X11040Y6387D02*
X10511D01*
X11127D02*
X11160D01*
X11207D02*
X11260D01*
X11307D02*
X11360D01*
X11407D02*
X11460D01*
X11507D02*
X11560D01*
X11607D02*
X11660D01*
X11707D02*
X11879D01*
X11040Y6392D02*
X10516D01*
X11040D02*
X11127D01*
X11879D01*
X11040Y6397D02*
X10521D01*
X11040D02*
X11127D01*
X11874D01*
X11869Y6402D02*
X10526D01*
X10531Y6407D02*
X11864D01*
X11859Y6412D02*
X10536D01*
X11040Y6389D02*
X11127D01*
Y6301D02*
X11040D01*
X11162D02*
X11206D01*
Y6389D02*
X11162D01*
X11262Y6301D02*
X11306D01*
Y6389D02*
X11262D01*
X11362Y6301D02*
X11406D01*
Y6389D02*
X11362D01*
X11462Y6301D02*
X11506D01*
Y6389D02*
X11462D01*
X11562Y6301D02*
X11606D01*
Y6389D02*
X11562D01*
X11662Y6301D02*
X11706D01*
Y6389D02*
X11662D01*
X11928Y6302D02*
X11948D01*
X11930Y6341D02*
X11928D01*
X11906Y6365D02*
X11889D01*
X10830Y6294D02*
X10810D01*
X10648D02*
X10629D01*
X10540Y6416D02*
X11855D01*
X11836Y6361D02*
X12603D01*
X11908Y6404D02*
X11889D01*
Y6365D02*
X11908D01*
X12393Y6423D02*
X12412D01*
Y6385D02*
X12393D01*
X12603Y6427D02*
X11836D01*
X12422Y6422D02*
X12603D01*
X12422D02*
X12414D01*
X12391D02*
X12383D01*
X11836D01*
X12422Y6417D02*
X12603D01*
X12383D02*
X11836D01*
X12422Y6412D02*
X12603D01*
X12383D02*
X11836D01*
X12422Y6407D02*
X12603D01*
X12383D02*
X11836D01*
X12422Y6402D02*
X12603D01*
X12383D02*
X11918D01*
X11910D01*
X11887D02*
X11879D01*
X11836D01*
X12422Y6397D02*
X12603D01*
X12383D02*
X11918D01*
X11879D02*
X11836D01*
X12422Y6392D02*
X12603D01*
X12383D02*
X11918D01*
X11879D02*
X11836D01*
X12422Y6387D02*
X12603D01*
X12422D02*
X12414D01*
X12391D02*
X12383D01*
X11918D01*
X11879D02*
X11836D01*
X11918Y6382D02*
X12603D01*
X11879D02*
X11836D01*
X11918Y6377D02*
X12603D01*
X11879D02*
X11836D01*
X11918Y6372D02*
X12603D01*
X11879D02*
X11836D01*
X11918Y6367D02*
X12603D01*
X11918D02*
X11910D01*
X11879D02*
X11836D01*
Y6362D02*
X12603D01*
X11836Y6416D02*
X11694D01*
X11705Y6427D02*
X11836D01*
Y6422D02*
X11700D01*
X11695Y6417D02*
X11836D01*
X12602Y6427D02*
X12669D01*
X12664Y6422D02*
X12602D01*
X12602Y6417D02*
X12659D01*
X12654Y6412D02*
X12602D01*
X12602Y6407D02*
X12649D01*
X12644Y6402D02*
X12602D01*
X12602Y6397D02*
X12639D01*
X12634Y6392D02*
X12603D01*
X12603Y6387D02*
X12629D01*
X12624Y6382D02*
X12603D01*
X12603Y6377D02*
X12619D01*
X12614Y6372D02*
X12603D01*
X12603Y6367D02*
X12609D01*
X12021Y6361D02*
X11910D01*
X11962Y6310D02*
X11969D01*
X11948Y6341D02*
X11930D01*
X11914Y6357D02*
X12017D01*
X12012Y6352D02*
X11919D01*
X11924Y6347D02*
X12007D01*
X12002Y6342D02*
X11929D01*
X11957Y6337D02*
X11997D01*
X11992Y6332D02*
X11957D01*
Y6327D02*
X11987D01*
X11982Y6322D02*
X11957D01*
Y6317D02*
X11977D01*
X11972Y6312D02*
X11959D01*
X11836Y6462D02*
X12603D01*
Y6457D02*
X11836D01*
Y6452D02*
X12603D01*
Y6447D02*
X11836D01*
Y6442D02*
X12603D01*
Y6437D02*
X11836D01*
Y6432D02*
X12603D01*
X11836Y6462D02*
X11740D01*
X11735Y6457D02*
X11836D01*
Y6452D02*
X11730D01*
X11725Y6447D02*
X11836D01*
Y6442D02*
X11720D01*
X11715Y6437D02*
X11836D01*
Y6432D02*
X11710D01*
X12601Y6462D02*
X12704D01*
X12699Y6457D02*
X12601D01*
X12601Y6452D02*
X12694D01*
X12689Y6447D02*
X12601D01*
X12601Y6442D02*
X12684D01*
X12679Y6437D02*
X12602D01*
X12602Y6432D02*
X12674D01*
X13553Y6597D02*
X13560D01*
X12603Y6477D02*
X11836D01*
Y6472D02*
X12603D01*
Y6467D02*
X11836D01*
Y6477D02*
X11755D01*
X11750Y6472D02*
X11836D01*
Y6467D02*
X11745D01*
X12601Y6477D02*
X12719D01*
X12714Y6472D02*
X12601D01*
X12601Y6467D02*
X12709D01*
X12733Y6530D02*
X13391D01*
X12694D02*
X12387D01*
X12468Y6593D02*
X12487D01*
Y6554D02*
X12468D01*
X12468Y6594D02*
X12487D01*
X12448D02*
X12428D01*
X12665D02*
X12684D01*
Y6593D02*
X12665D01*
Y6554D02*
X12684D01*
X12644Y6594D02*
X12625D01*
X12605Y6593D02*
X12586D01*
Y6554D02*
X12605D01*
X12605Y6594D02*
X12586D01*
X12566Y6593D02*
X12546D01*
Y6554D02*
X12566D01*
X12526Y6593D02*
X12507D01*
Y6554D02*
X12526D01*
X12546Y6594D02*
X12566D01*
X12526D02*
X12507D01*
X12783Y6594D02*
X12802D01*
X12723Y6593D02*
X12704D01*
Y6554D02*
X12723D01*
X12822Y6594D02*
X12841D01*
X12861D02*
X12881D01*
X12802Y6593D02*
X12783D01*
Y6554D02*
X12802D01*
X12822Y6593D02*
X12841D01*
Y6554D02*
X12822D01*
X12861Y6593D02*
X12881D01*
Y6554D02*
X12861D01*
X12723Y6553D02*
X12704D01*
X12901Y6594D02*
X12920D01*
X12940D02*
X12959D01*
X13019D02*
X13038D01*
X13176D02*
X13196D01*
X13294Y6593D02*
X13314D01*
Y6554D02*
X13294D01*
X13334Y6594D02*
X13353D01*
X13373D02*
X13391D01*
X13314D02*
X13294D01*
X13334Y6593D02*
X13353D01*
Y6554D02*
X13334D01*
X13373Y6593D02*
X13391D01*
Y6554D02*
X13373D01*
X13532Y6594D02*
X13550D01*
X13560Y6622D02*
X13603D01*
X13285D02*
X13205D01*
X13167D02*
X13048D01*
X13009D02*
X12969D01*
X12773D02*
X12693D01*
X12419D02*
X12332D01*
X13560Y6617D02*
X13603D01*
X13285D02*
X13205D01*
X13167D02*
X13048D01*
X13009D02*
X12969D01*
X12773D02*
X12693D01*
X12419D02*
X12332D01*
X13560Y6612D02*
X13603D01*
X13285D02*
X13205D01*
X13167D02*
X13048D01*
X13009D02*
X12969D01*
X12773D02*
X12693D01*
X12419D02*
X12332D01*
X13560Y6607D02*
X13601D01*
X13285D02*
X13205D01*
X13167D02*
X13048D01*
X13009D02*
X12969D01*
X12773D02*
X12693D01*
X12419D02*
X12332D01*
X13560Y6602D02*
X13596D01*
X13285D02*
X13205D01*
X13167D02*
X13048D01*
X13009D02*
X12969D01*
X12773D02*
X12693D01*
X12419D02*
X12332D01*
X13560Y6597D02*
X13591D01*
X13370D02*
X13364D01*
X13363D02*
X13357D01*
X13330D02*
X13324D01*
X13323D02*
X13317D01*
X13291D02*
X13285D01*
X13205D01*
X13199D01*
X13173D02*
X13167D01*
X13048D01*
X13042D01*
X13015D02*
X13009D01*
X12969D01*
X12963D01*
X12937D02*
X12930D01*
X12930D02*
X12924D01*
X12897D02*
X12891D01*
X12890D02*
X12884D01*
X12858D02*
X12852D01*
X12851D02*
X12845D01*
X12819D02*
X12812D01*
X12812D02*
X12805D01*
X12779D02*
X12773D01*
X12693D01*
X12687D01*
X12661D02*
X12655D01*
X12654D02*
X12648D01*
X12622D02*
X12616D01*
X12615D02*
X12609D01*
X12582D02*
X12576D01*
X12575D02*
X12569D01*
X12543D02*
X12537D01*
X12536D02*
X12530D01*
X12504D02*
X12497D01*
X12497D02*
X12490D01*
X12464D02*
X12458D01*
X12457D02*
X12451D01*
X12425D02*
X12419D01*
X12332D01*
X13532Y6592D02*
X13586D01*
X13372D02*
X13364D01*
X13363D02*
X13354D01*
X13333D02*
X13324D01*
X13323D02*
X13315D01*
X13294D02*
X13285D01*
X12890D01*
X12881D01*
X12861D02*
X12852D01*
X12851D02*
X12842D01*
X12821D02*
X12812D01*
X12812D02*
X12803D01*
X12782D02*
X12773D01*
X12733D01*
X12724D01*
X12703D02*
X12694D01*
X12693D02*
X12685D01*
X12664D02*
X12655D01*
X12615D01*
X12606D01*
X12585D02*
X12576D01*
X12575D02*
X12566D01*
X12546D02*
X12537D01*
X12536D02*
X12527D01*
X12506D02*
X12497D01*
X12497D02*
X12488D01*
X12467D02*
X12458D01*
X12332D01*
X13532Y6587D02*
X13581D01*
X13285D02*
X12890D01*
X12773D02*
X12733D01*
X12655D02*
X12615D01*
X12458D02*
X12332D01*
X13532Y6582D02*
X13576D01*
X13285D02*
X12890D01*
X12773D02*
X12733D01*
X12655D02*
X12615D01*
X12458D02*
X12335D01*
X13532Y6577D02*
X13571D01*
X13285D02*
X12890D01*
X12773D02*
X12733D01*
X12655D02*
X12615D01*
X12458D02*
X12340D01*
X13532Y6572D02*
X13566D01*
X13285D02*
X12890D01*
X12773D02*
X12733D01*
X12655D02*
X12615D01*
X12458D02*
X12345D01*
X13532Y6567D02*
X13561D01*
X13285D02*
X12890D01*
X12773D02*
X12733D01*
X12655D02*
X12615D01*
X12458D02*
X12350D01*
X13532Y6562D02*
X13556D01*
X13285D02*
X12890D01*
X12773D02*
X12733D01*
X12655D02*
X12615D01*
X12458D02*
X12355D01*
X13532Y6557D02*
X13551D01*
X13370D02*
X13364D01*
X13363D02*
X13356D01*
X13331D02*
X13324D01*
X13323D02*
X13317D01*
X13292D02*
X13285D01*
X12890D01*
X12884D01*
X12859D02*
X12852D01*
X12851D02*
X12844D01*
X12819D02*
X12812D01*
X12812D02*
X12805D01*
X12780D02*
X12773D01*
X12733D01*
X12726D01*
X12701D02*
X12694D01*
X12693D02*
X12687D01*
X12662D02*
X12655D01*
X12615D01*
X12608D01*
X12583D02*
X12576D01*
X12575D02*
X12569D01*
X12544D02*
X12537D01*
X12536D02*
X12529D01*
X12504D02*
X12497D01*
X12497D02*
X12490D01*
X12465D02*
X12458D01*
X12360D01*
X13532Y6552D02*
X13546D01*
X13391D02*
X12733D01*
X12725D01*
X12703D02*
X12694D01*
X12365D01*
X13532Y6547D02*
X13541D01*
X13391D02*
X12733D01*
X12694D02*
X12370D01*
X12733Y6542D02*
X13391D01*
X12694D02*
X12375D01*
X12733Y6537D02*
X13391D01*
X12694D02*
X12380D01*
X12733Y6532D02*
X13391D01*
X12694D02*
X12385D01*
X12603Y6550D02*
X11840D01*
X11836D01*
Y6547D02*
X12603D01*
Y6542D02*
X11836D01*
Y6537D02*
X12603D01*
Y6532D02*
X11836D01*
Y6527D02*
X12603D01*
Y6522D02*
X11836D01*
Y6517D02*
X12603D01*
Y6512D02*
X11836D01*
Y6507D02*
X12603D01*
Y6502D02*
X11836D01*
Y6497D02*
X12603D01*
Y6492D02*
X11836D01*
Y6487D02*
X12603D01*
Y6482D02*
X11836D01*
Y6547D02*
X11825D01*
X11820Y6542D02*
X11836D01*
Y6537D02*
X11815D01*
X11810Y6532D02*
X11836D01*
Y6527D02*
X11805D01*
X11800Y6522D02*
X11836D01*
Y6517D02*
X11795D01*
X11790Y6512D02*
X11836D01*
Y6507D02*
X11785D01*
X11780Y6502D02*
X11836D01*
Y6497D02*
X11775D01*
X11770Y6492D02*
X11836D01*
Y6487D02*
X11765D01*
X11760Y6482D02*
X11836D01*
X12733Y6530D02*
X12773D01*
X12694D02*
X12599D01*
X12704Y6515D02*
X12723D01*
X12733Y6527D02*
X12769D01*
X12694D02*
X12599D01*
X12733Y6522D02*
X12764D01*
X12694D02*
X12600D01*
X12733Y6517D02*
X12759D01*
X12733D02*
X12725D01*
X12702D02*
X12694D01*
X12600D01*
X12600Y6512D02*
X12754D01*
X12749Y6507D02*
X12600D01*
X12600Y6502D02*
X12744D01*
X12739Y6497D02*
X12600D01*
X12600Y6492D02*
X12734D01*
X12729Y6487D02*
X12600D01*
X12600Y6482D02*
X12724D01*
X12371Y6550D02*
X12296D01*
X12328Y6582D02*
X12336D01*
Y6577D02*
X12344D01*
X12336D02*
X12323D01*
X12318Y6572D02*
X12349D01*
X12354Y6567D02*
X12313D01*
X12308Y6562D02*
X12359D01*
X12364Y6557D02*
X12303D01*
X12298Y6552D02*
X12369D01*
X13532Y6534D02*
X13595D01*
X13550Y6594D02*
X13532D01*
X13560Y6622D02*
X13639D01*
Y6617D02*
X13560D01*
Y6612D02*
X13639D01*
Y6607D02*
X13560D01*
Y6602D02*
X13639D01*
Y6597D02*
X13560D01*
X13532Y6592D02*
X13639D01*
Y6587D02*
X13532D01*
Y6582D02*
X13639D01*
X13638Y6577D02*
X13532D01*
Y6572D02*
X13633D01*
X13628Y6567D02*
X13532D01*
Y6562D02*
X13623D01*
X13618Y6557D02*
X13532D01*
Y6552D02*
X13613D01*
X13608Y6547D02*
X13532D01*
Y6542D02*
X13603D01*
X13598Y6537D02*
X13532D01*
X12448Y6633D02*
X12428D01*
X12408D02*
X12389D01*
X12468Y6632D02*
X12487D01*
X12448D02*
X12428D01*
X12472Y6633D02*
X12491D01*
X12665D02*
X12684D01*
Y6632D02*
X12665D01*
X12644Y6633D02*
X12625D01*
Y6632D02*
X12644D01*
X12605Y6633D02*
X12586D01*
X12566D02*
X12546D01*
X12526D02*
X12507D01*
X12586Y6632D02*
X12605D01*
X12566Y6632D02*
X12546D01*
X12526D02*
X12507D01*
X12783Y6632D02*
X12802D01*
Y6633D02*
X12783D01*
X12822Y6632D02*
X12841D01*
X12861D02*
X12881D01*
X12901Y6633D02*
X12920D01*
X12940Y6633D02*
X12959D01*
X12979D02*
X12999D01*
X13019Y6633D02*
X13038D01*
X12920Y6632D02*
X12901D01*
X12940D02*
X12959D01*
X13019D02*
X13038D01*
X13216Y6633D02*
X13235D01*
X13255D02*
X13274D01*
X13196Y6632D02*
X13176D01*
X13294Y6633D02*
X13314D01*
X13334Y6633D02*
X13353D01*
X13373Y6633D02*
X13391D01*
X13353Y6632D02*
X13334D01*
X13373D02*
X13391D01*
X13314D02*
X13294D01*
X13532D02*
X13550D01*
X13532Y6662D02*
X13603D01*
X13206D02*
X13048D01*
X12891D02*
X12812D01*
X12773D02*
X12693D01*
X12379D02*
X12332D01*
X13532Y6657D02*
X13603D01*
X13206D02*
X13048D01*
X12891D02*
X12812D01*
X12773D02*
X12693D01*
X12379D02*
X12332D01*
X13532Y6652D02*
X13603D01*
X13206D02*
X13048D01*
X12891D02*
X12812D01*
X12773D02*
X12693D01*
X12379D02*
X12332D01*
X13532Y6647D02*
X13603D01*
X13206D02*
X13048D01*
X12891D02*
X12812D01*
X12773D02*
X12693D01*
X12379D02*
X12332D01*
X13532Y6642D02*
X13603D01*
X13206D02*
X13048D01*
X12891D02*
X12812D01*
X12773D02*
X12693D01*
X12379D02*
X12332D01*
X13532Y6637D02*
X13603D01*
X13206D02*
X13048D01*
X12891D02*
X12812D01*
X12773D02*
X12693D01*
X12379D02*
X12332D01*
X13550Y6632D02*
X13603D01*
X13373D02*
X13353D01*
X13334D02*
X13314D01*
X13294D02*
X13196D01*
X13176D02*
X13038D01*
X13019D02*
X12960D01*
X12940D02*
X12920D01*
X12901D02*
X12881D01*
X12861D02*
X12841D01*
X12822D02*
X12802D01*
X12783D02*
X12684D01*
X12664D02*
X12645D01*
X12625D02*
X12605D01*
X12586D02*
X12566D01*
X12546D02*
X12526D01*
X12507D02*
X12487D01*
X12468D02*
X12448D01*
X12428D02*
X12332D01*
X13560Y6627D02*
X13603D01*
X13285D02*
X13205D01*
X13167D02*
X13048D01*
X13009D02*
X12969D01*
X12773D02*
X12693D01*
X12419D02*
X12332D01*
X13532Y6632D02*
X13550D01*
X13532Y6662D02*
X13639D01*
Y6657D02*
X13532D01*
Y6652D02*
X13639D01*
Y6647D02*
X13532D01*
Y6642D02*
X13639D01*
Y6637D02*
X13532D01*
X13550Y6632D02*
X13639D01*
Y6627D02*
X13560D01*
X13560Y6827D02*
X13552D01*
X13552Y6792D02*
X13560D01*
Y6787D02*
X13553D01*
X13551Y6752D02*
X13560D01*
X12448Y6671D02*
X12428D01*
X12408D02*
X12389D01*
X12468Y6672D02*
X12487D01*
X12491Y6671D02*
X12472D01*
X12665D02*
X12684D01*
X12644Y6672D02*
X12625D01*
Y6671D02*
X12644D01*
X12605D02*
X12586D01*
X12566D02*
X12546D01*
X12526D02*
X12507D01*
X12586Y6672D02*
X12605D01*
X12566D02*
X12546D01*
X12526D02*
X12507D01*
X12783Y6671D02*
X12802D01*
X12822Y6672D02*
X12841D01*
X12802D02*
X12783D01*
X12861Y6672D02*
X12881D01*
X12901Y6671D02*
X12920D01*
X12940Y6671D02*
X12959D01*
X12979D02*
X12999D01*
X13019Y6671D02*
X13038D01*
X12920Y6672D02*
X12901D01*
X12940D02*
X12959D01*
X12979Y6672D02*
X12999D01*
X13019D02*
X13038D01*
X13058D02*
X13078D01*
X13216Y6671D02*
X13235D01*
X13255D02*
X13274D01*
X13117Y6672D02*
X13098D01*
X13137D02*
X13156D01*
X13176Y6672D02*
X13196D01*
X13216D02*
X13235D01*
X13255Y6672D02*
X13274D01*
X13334D02*
X13353D01*
X13314Y6671D02*
X13294D01*
X13334Y6671D02*
X13353D01*
X13373Y6671D02*
X13391D01*
X13314Y6672D02*
X13294D01*
X13532Y6672D02*
X13603D01*
X13391D02*
X12332D01*
X13532Y6667D02*
X13603D01*
X13206D02*
X13048D01*
X12891D02*
X12812D01*
X12773D02*
X12693D01*
X12379D02*
X12332D01*
X13532Y6672D02*
X13639D01*
Y6667D02*
X13532D01*
X12487Y6750D02*
X12468D01*
Y6712D02*
X12487D01*
Y6711D02*
X12468D01*
X12665Y6790D02*
X12684D01*
X12526Y6790D02*
X12507D01*
Y6751D02*
X12526D01*
X12546Y6750D02*
X12566D01*
Y6712D02*
X12546D01*
X12625Y6711D02*
X12644D01*
X12644Y6750D02*
X12625D01*
Y6712D02*
X12644D01*
Y6790D02*
X12625D01*
X12526Y6790D02*
X12507D01*
X12546D02*
X12566D01*
X12586Y6790D02*
X12605D01*
X12566Y6790D02*
X12546D01*
Y6751D02*
X12566D01*
X12625Y6790D02*
X12644D01*
Y6751D02*
X12625D01*
X12526Y6750D02*
X12507D01*
Y6712D02*
X12526D01*
X12586Y6750D02*
X12605D01*
Y6712D02*
X12586D01*
Y6711D02*
X12605D01*
X12605Y6790D02*
X12586D01*
Y6751D02*
X12605D01*
X12566Y6711D02*
X12546D01*
X12526D02*
X12507D01*
X12822Y6790D02*
X12841D01*
Y6751D02*
X12822D01*
Y6711D02*
X12841D01*
X12763Y6750D02*
X12743D01*
Y6712D02*
X12763D01*
X12783Y6711D02*
X12802D01*
X12861Y6711D02*
X12881D01*
X12940Y6750D02*
X12959D01*
Y6712D02*
X12940D01*
X12979Y6750D02*
X12999D01*
Y6712D02*
X12979D01*
X12920Y6711D02*
X12901D01*
X12940D02*
X12959D01*
X12979Y6711D02*
X12999D01*
X13019D02*
X13038D01*
X13058D02*
X13078D01*
X13038Y6790D02*
X13019D01*
Y6751D02*
X13038D01*
X13098Y6790D02*
X13117D01*
Y6751D02*
X13098D01*
Y6750D02*
X13117D01*
Y6712D02*
X13098D01*
X13137Y6790D02*
X13156D01*
Y6751D02*
X13137D01*
X13176Y6750D02*
X13196D01*
Y6712D02*
X13176D01*
X13255Y6750D02*
X13274D01*
Y6712D02*
X13255D01*
X13117Y6711D02*
X13098D01*
X13137D02*
X13156D01*
X13176Y6711D02*
X13196D01*
X13216D02*
X13235D01*
X13255Y6711D02*
X13274D01*
X13235Y6750D02*
X13216D01*
Y6712D02*
X13235D01*
X13196Y6790D02*
X13176D01*
Y6751D02*
X13196D01*
X13294Y6790D02*
X13314D01*
Y6751D02*
X13294D01*
X13334Y6711D02*
X13353D01*
X13314D02*
X13294D01*
X13373Y6750D02*
X13391D01*
Y6712D02*
X13373D01*
X13532Y6790D02*
X13550D01*
Y6790D02*
X13532D01*
Y6751D02*
X13550D01*
X13560Y6822D02*
X13603D01*
X13391D02*
X12693D01*
X12497D02*
X12332D01*
X13560Y6817D02*
X13603D01*
X13391D02*
X12693D01*
X12497D02*
X12332D01*
X13560Y6812D02*
X13603D01*
X13391D02*
X12693D01*
X12497D02*
X12332D01*
X13560Y6807D02*
X13603D01*
X13391D02*
X12693D01*
X12497D02*
X12332D01*
X13560Y6802D02*
X13603D01*
X13391D02*
X12693D01*
X12497D02*
X12332D01*
X13560Y6797D02*
X13603D01*
X13391D02*
X12693D01*
X13560Y6792D02*
X13603D01*
X13391D02*
X12693D01*
X12685D01*
X12663D02*
X12655D01*
X12654D02*
X12646D01*
X12624D02*
X12616D01*
X12615D02*
X12607D01*
X12584D02*
X12576D01*
X12575D02*
X12567D01*
X12545D02*
X12537D01*
X12536D02*
X12528D01*
X12505D02*
X12497D01*
X12332D01*
X13560Y6787D02*
X13603D01*
X13391D02*
X13323D01*
X13316D01*
X13292D02*
X13285D01*
X13205D01*
X13198D01*
X13174D02*
X13167D01*
X13166D02*
X13159D01*
X13134D02*
X13127D01*
X13127D02*
X13120D01*
X13095D02*
X13088D01*
X13048D01*
X13041D01*
X13016D02*
X13009D01*
X12851D01*
X12844D01*
X12819D02*
X12812D01*
X12654D01*
X12647D01*
X12623D02*
X12616D01*
X12615D02*
X12608D01*
X12583D02*
X12576D01*
X12575D02*
X12568D01*
X12544D02*
X12537D01*
X12536D02*
X12529D01*
X12504D02*
X12497D01*
X12332D01*
X13560Y6782D02*
X13603D01*
X13391D02*
X13323D01*
X13285D02*
X13205D01*
X13088D02*
X13048D01*
X13009D02*
X12851D01*
X12812D02*
X12654D01*
X12497D02*
X12332D01*
X13560Y6777D02*
X13603D01*
X13391D02*
X13323D01*
X13285D02*
X13205D01*
X13088D02*
X13048D01*
X13009D02*
X12851D01*
X12812D02*
X12654D01*
X12497D02*
X12332D01*
X13560Y6772D02*
X13603D01*
X13391D02*
X13323D01*
X13285D02*
X13205D01*
X13088D02*
X13048D01*
X13009D02*
X12851D01*
X12812D02*
X12654D01*
X12497D02*
X12332D01*
X13560Y6767D02*
X13603D01*
X13391D02*
X13323D01*
X13285D02*
X13205D01*
X13088D02*
X13048D01*
X13009D02*
X12851D01*
X12812D02*
X12654D01*
X12497D02*
X12332D01*
X13560Y6762D02*
X13603D01*
X13391D02*
X13323D01*
X13285D02*
X13205D01*
X13088D02*
X13048D01*
X13009D02*
X12851D01*
X12812D02*
X12654D01*
X12497D02*
X12332D01*
X13560Y6757D02*
X13603D01*
X13391D02*
X13323D01*
X13285D02*
X13205D01*
X13088D02*
X13048D01*
X13009D02*
X12851D01*
X12812D02*
X12654D01*
X12497D02*
X12332D01*
X13560Y6752D02*
X13603D01*
X13391D02*
X13323D01*
X13315D01*
X13293D02*
X13285D01*
X13205D01*
X13197D01*
X13175D02*
X13167D01*
X13166D02*
X13157D01*
X13136D02*
X13127D01*
X13127D02*
X13118D01*
X13097D02*
X13088D01*
X13048D01*
X13039D01*
X13018D02*
X13009D01*
X12851D01*
X12842D01*
X12821D02*
X12812D01*
X12654D01*
X12645D01*
X12624D02*
X12616D01*
X12615D02*
X12606D01*
X12585D02*
X12576D01*
X12575D02*
X12567D01*
X12545D02*
X12537D01*
X12536D02*
X12527D01*
X12506D02*
X12497D01*
X12332D01*
X13532Y6747D02*
X13603D01*
X13370D02*
X13364D01*
X13284D01*
X13278D01*
X13252D02*
X13245D01*
X13245D02*
X13238D01*
X13212D02*
X13206D01*
X13205D02*
X13199D01*
X13173D02*
X13167D01*
X13127D01*
X13120D01*
X13094D02*
X13088D01*
X13008D01*
X13002D01*
X12976D02*
X12970D01*
X12969D02*
X12963D01*
X12937D02*
X12930D01*
X12772D01*
X12766D01*
X12740D02*
X12734D01*
X12654D01*
X12648D01*
X12622D02*
X12616D01*
X12615D02*
X12608D01*
X12583D02*
X12576D01*
X12575D02*
X12569D01*
X12543D02*
X12537D01*
X12536D02*
X12530D01*
X12504D02*
X12497D01*
X12497D02*
X12490D01*
X12464D02*
X12458D01*
X12332D01*
X13532Y6742D02*
X13603D01*
X13364D02*
X13284D01*
X13167D02*
X13127D01*
X13088D02*
X13008D01*
X12930D02*
X12772D01*
X12734D02*
X12654D01*
X12458D02*
X12332D01*
X13532Y6737D02*
X13603D01*
X13364D02*
X13284D01*
X13167D02*
X13127D01*
X13088D02*
X13008D01*
X12930D02*
X12772D01*
X12734D02*
X12654D01*
X12458D02*
X12332D01*
X13532Y6732D02*
X13603D01*
X13364D02*
X13284D01*
X13167D02*
X13127D01*
X13088D02*
X13008D01*
X12930D02*
X12772D01*
X12734D02*
X12654D01*
X12458D02*
X12332D01*
X13532Y6727D02*
X13603D01*
X13364D02*
X13284D01*
X13167D02*
X13127D01*
X13088D02*
X13008D01*
X12930D02*
X12772D01*
X12734D02*
X12654D01*
X12458D02*
X12332D01*
X13532Y6722D02*
X13603D01*
X13364D02*
X13284D01*
X13167D02*
X13127D01*
X13088D02*
X13008D01*
X12930D02*
X12772D01*
X12734D02*
X12654D01*
X12458D02*
X12332D01*
X13532Y6717D02*
X13603D01*
X13364D02*
X13284D01*
X13167D02*
X13127D01*
X13088D02*
X13008D01*
X12930D02*
X12772D01*
X12734D02*
X12654D01*
X12458D02*
X12332D01*
X13532Y6712D02*
X13603D01*
X13373D02*
X13275D01*
X13255D02*
X13235D01*
X13215D02*
X13196D01*
X13176D02*
X13117D01*
X13097D02*
X12999D01*
X12979D02*
X12960D01*
X12940D02*
X12763D01*
X12743D02*
X12645D01*
X12625D02*
X12605D01*
X12585D02*
X12566D01*
X12546D02*
X12527D01*
X12507D02*
X12487D01*
X12467D02*
X12332D01*
X13532Y6707D02*
X13603D01*
X13391D02*
X13363D01*
X12773D02*
X12654D01*
X12458D02*
X12332D01*
X13532Y6702D02*
X13603D01*
X13391D02*
X13363D01*
X12773D02*
X12654D01*
X12458D02*
X12332D01*
X13532Y6697D02*
X13603D01*
X13391D02*
X13363D01*
X12773D02*
X12654D01*
X12458D02*
X12332D01*
X13532Y6692D02*
X13603D01*
X13391D02*
X13363D01*
X12773D02*
X12654D01*
X12458D02*
X12332D01*
X13532Y6687D02*
X13603D01*
X13391D02*
X13363D01*
X12773D02*
X12654D01*
X12458D02*
X12332D01*
X13532Y6682D02*
X13603D01*
X13391D02*
X13363D01*
X12773D02*
X12654D01*
X12458D02*
X12332D01*
X13532Y6677D02*
X13603D01*
X13391D02*
X13363D01*
X12773D02*
X12654D01*
X12458D02*
X12332D01*
X13532Y6790D02*
X13550D01*
Y6790D02*
X13532D01*
Y6751D02*
X13550D01*
X13560Y6822D02*
X13639D01*
Y6817D02*
X13560D01*
Y6812D02*
X13639D01*
Y6807D02*
X13560D01*
Y6802D02*
X13639D01*
Y6797D02*
X13560D01*
Y6792D02*
X13639D01*
Y6787D02*
X13560D01*
Y6782D02*
X13639D01*
Y6777D02*
X13560D01*
Y6772D02*
X13639D01*
Y6767D02*
X13560D01*
Y6762D02*
X13639D01*
Y6757D02*
X13560D01*
Y6752D02*
X13639D01*
Y6747D02*
X13532D01*
Y6742D02*
X13639D01*
Y6737D02*
X13532D01*
Y6732D02*
X13639D01*
Y6727D02*
X13532D01*
Y6722D02*
X13639D01*
Y6717D02*
X13532D01*
Y6712D02*
X13639D01*
Y6707D02*
X13532D01*
Y6702D02*
X13639D01*
Y6697D02*
X13532D01*
Y6692D02*
X13639D01*
Y6687D02*
X13532D01*
Y6682D02*
X13639D01*
Y6677D02*
X13532D01*
X12497Y6797D02*
X12332D01*
X12468Y6830D02*
X12487D01*
X12665Y6829D02*
X12684D01*
X12644Y6830D02*
X12625D01*
Y6829D02*
X12644D01*
X12605Y6830D02*
X12586D01*
X12566D02*
X12546D01*
X12526D02*
X12507D01*
Y6829D02*
X12526D01*
X12546D02*
X12566D01*
X12586Y6829D02*
X12605D01*
X13532Y6829D02*
X13550D01*
X13532Y6857D02*
X13603D01*
X13391D02*
X12654D01*
X12458D02*
X12332D01*
X13532Y6852D02*
X13603D01*
X13391D02*
X12654D01*
X12458D02*
X12332D01*
X13532Y6847D02*
X13603D01*
X13391D02*
X12654D01*
X12458D02*
X12332D01*
X13532Y6842D02*
X13603D01*
X13391D02*
X12654D01*
X12458D02*
X12332D01*
X13532Y6837D02*
X13603D01*
X13391D02*
X12654D01*
X12458D02*
X12332D01*
X13532Y6832D02*
X13603D01*
X13391D02*
X12654D01*
X12647D01*
X12623D02*
X12616D01*
X12615D02*
X12607D01*
X12584D02*
X12576D01*
X12575D02*
X12568D01*
X12544D02*
X12537D01*
X12536D02*
X12529D01*
X12505D02*
X12497D01*
X12497D02*
X12489D01*
X12465D02*
X12458D01*
X12332D01*
X13560Y6827D02*
X13603D01*
X13391D02*
X12693D01*
X12686D01*
X12663D02*
X12655D01*
X12654D02*
X12646D01*
X12623D02*
X12616D01*
X12615D02*
X12607D01*
X12584D02*
X12576D01*
X12575D02*
X12568D01*
X12544D02*
X12537D01*
X12536D02*
X12528D01*
X12505D02*
X12497D01*
X12332D01*
X13532Y6829D02*
X13550D01*
X13532Y6857D02*
X13639D01*
Y6852D02*
X13532D01*
Y6847D02*
X13639D01*
Y6842D02*
X13532D01*
Y6837D02*
X13639D01*
Y6832D02*
X13532D01*
X13560Y6827D02*
X13639D01*
X13284Y6862D02*
X13177D01*
Y6867D02*
X13284D01*
X13205Y6872D02*
X13199D01*
X13206D02*
X13213D01*
X13238D02*
X13245D01*
X13284D01*
Y6877D02*
X13245D01*
Y6882D02*
X13284D01*
Y6887D02*
X13245D01*
Y6892D02*
X13284D01*
Y6897D02*
X13245D01*
Y6902D02*
X13284D01*
X13215Y6907D02*
X13196D01*
X13236D02*
X13284D01*
Y6912D02*
X13177D01*
Y6917D02*
X13284D01*
Y6922D02*
X13177D01*
Y6927D02*
X13284D01*
Y6932D02*
X13177D01*
Y6937D02*
X13284D01*
Y6942D02*
X13177D01*
Y6947D02*
X13284D01*
Y6952D02*
X13177D01*
Y6957D02*
X13284D01*
Y6962D02*
X13177D01*
Y6967D02*
X13284D01*
Y6972D02*
X13177D01*
Y6977D02*
X13284D01*
Y6982D02*
X13177D01*
Y6987D02*
X13284D01*
Y6992D02*
X13177D01*
Y6997D02*
X13284D01*
Y7002D02*
X13177D01*
Y7007D02*
X13284D01*
Y7012D02*
X13177D01*
Y7017D02*
X13284D01*
Y7022D02*
X13177D01*
Y7027D02*
X13284D01*
Y7032D02*
X13177D01*
Y7037D02*
X13284D01*
Y7042D02*
X13177D01*
Y7047D02*
X13284D01*
Y7052D02*
X13177D01*
Y6869D02*
X13196D01*
Y6908D02*
X13177D01*
X13216Y6869D02*
X13235D01*
Y6908D02*
X13216D01*
X13177Y6860D02*
X13284D01*
X13538Y7027D02*
X13550D01*
Y7026D02*
X13537D01*
X13538Y6987D02*
X13550D01*
X13574Y7027D02*
X13593D01*
X13574Y7027D02*
X13550D01*
X13553Y6872D02*
X13560D01*
X12487Y6869D02*
X12468D01*
Y6868D02*
X12487D01*
X12448Y6869D02*
X12428D01*
X12625Y6868D02*
X12644D01*
X12605D02*
X12586D01*
X12566Y6869D02*
X12546D01*
X12586D02*
X12605D01*
X12566Y6868D02*
X12546D01*
X12526D02*
X12507D01*
Y6869D02*
X12526D01*
X12743D02*
X12763D01*
X12783D02*
X12802D01*
X12822D02*
X12841D01*
X12979D02*
X12999D01*
X13137D02*
X13156D01*
X13176D02*
X13196D01*
X13532D02*
X13550D01*
X13532Y6867D02*
X13603D01*
X13391D02*
X12654D01*
X12646D01*
X12624D02*
X12616D01*
X12615D02*
X12606D01*
X12584D02*
X12576D01*
X12575D02*
X12567D01*
X12545D02*
X12537D01*
X12536D02*
X12528D01*
X12506D02*
X12497D01*
X12497D02*
X12488D01*
X12466D02*
X12458D01*
X12332D01*
X13532Y6862D02*
X13603D01*
X13391D02*
X12654D01*
X12458D02*
X12332D01*
X13532Y6869D02*
X13550D01*
X13532Y6867D02*
X13639D01*
Y6862D02*
X13532D01*
X12487Y6908D02*
X12468D01*
Y6947D02*
X12487D01*
Y6908D02*
X12468D01*
X12448Y6908D02*
X12428D01*
X12586Y6987D02*
X12605D01*
Y6947D02*
X12586D01*
Y6908D02*
X12605D01*
X12566Y6947D02*
X12546D01*
Y6908D02*
X12566D01*
Y6908D02*
X12546D01*
X12586D02*
X12605D01*
X12526Y6987D02*
X12507D01*
Y6908D02*
X12526D01*
X12822Y6986D02*
X12841D01*
Y6948D02*
X12822D01*
X12861Y6987D02*
X12881D01*
Y6986D02*
X12861D01*
Y6948D02*
X12881D01*
X12763Y6987D02*
X12743D01*
Y6986D02*
X12763D01*
Y6948D02*
X12743D01*
Y6947D02*
X12763D01*
Y6908D02*
X12743D01*
Y6908D02*
X12763D01*
X12783D02*
X12802D01*
X12822D02*
X12841D01*
Y6987D02*
X12822D01*
X12822Y6947D02*
X12841D01*
Y6908D02*
X12822D01*
X13058Y6987D02*
X13078D01*
X12999D02*
X12979D01*
X13019D02*
X13038D01*
X12959D02*
X12940D01*
X12920D02*
X12901D01*
X12979Y6986D02*
X12999D01*
Y6948D02*
X12979D01*
X13058Y6986D02*
X13078D01*
Y6948D02*
X13058D01*
X12959Y6986D02*
X12940D01*
Y6948D02*
X12959D01*
X12920Y6986D02*
X12901D01*
Y6948D02*
X12920D01*
X13019Y6986D02*
X13038D01*
Y6948D02*
X13019D01*
X12999Y6908D02*
X12979D01*
X12979Y6947D02*
X12999D01*
Y6908D02*
X12979D01*
X13098Y6987D02*
X13117D01*
X13137Y6986D02*
X13156D01*
Y6948D02*
X13137D01*
Y6908D02*
X13156D01*
X13176D02*
X13196D01*
X13216Y6947D02*
X13235D01*
Y6908D02*
X13216D01*
Y6986D02*
X13235D01*
Y6948D02*
X13216D01*
Y6987D02*
X13235D01*
X13117Y6986D02*
X13098D01*
Y6948D02*
X13117D01*
X13137Y6987D02*
X13156D01*
Y6947D02*
X13137D01*
Y6908D02*
X13156D01*
X13532Y6908D02*
X13550D01*
X13560Y7017D02*
X13603D01*
X13391D02*
X13245D01*
X13206D02*
X13166D01*
X12812D02*
X12772D01*
X12734D02*
X12615D01*
X12576D02*
X12536D01*
X12497D02*
X12332D01*
X13560Y7012D02*
X13603D01*
X13391D02*
X13245D01*
X13206D02*
X13166D01*
X12812D02*
X12772D01*
X12734D02*
X12615D01*
X12576D02*
X12536D01*
X12497D02*
X12332D01*
X13560Y7007D02*
X13603D01*
X13391D02*
X13245D01*
X13206D02*
X13166D01*
X12812D02*
X12772D01*
X12734D02*
X12615D01*
X12576D02*
X12536D01*
X12497D02*
X12332D01*
X13560Y7002D02*
X13603D01*
X13391D02*
X13245D01*
X13206D02*
X13166D01*
X12812D02*
X12772D01*
X12734D02*
X12615D01*
X12576D02*
X12536D01*
X12497D02*
X12332D01*
X13560Y6997D02*
X13603D01*
X13391D02*
X13245D01*
X13206D02*
X13166D01*
X12812D02*
X12772D01*
X12734D02*
X12615D01*
X12576D02*
X12536D01*
X12497D02*
X12332D01*
X13560Y6992D02*
X13603D01*
X13391D02*
X13245D01*
X13206D02*
X13166D01*
X12812D02*
X12772D01*
X12734D02*
X12615D01*
X12576D02*
X12536D01*
X12497D02*
X12332D01*
X13537Y6987D02*
X13603D01*
X13391D02*
X12332D01*
X13532Y6982D02*
X13603D01*
X13391D02*
X13245D01*
X13206D02*
X13166D01*
X12812D02*
X12772D01*
X12734D02*
X12332D01*
X13532Y6977D02*
X13603D01*
X13391D02*
X13245D01*
X13206D02*
X13166D01*
X12812D02*
X12772D01*
X12734D02*
X12332D01*
X13532Y6972D02*
X13603D01*
X13391D02*
X13245D01*
X13206D02*
X13166D01*
X12812D02*
X12772D01*
X12734D02*
X12332D01*
X13532Y6967D02*
X13603D01*
X13391D02*
X13245D01*
X13206D02*
X13166D01*
X12812D02*
X12772D01*
X12734D02*
X12332D01*
X13532Y6962D02*
X13603D01*
X13391D02*
X13245D01*
X13206D02*
X13166D01*
X12812D02*
X12772D01*
X12734D02*
X12332D01*
X13532Y6957D02*
X13603D01*
X13391D02*
X13245D01*
X13206D02*
X13166D01*
X12812D02*
X12772D01*
X12734D02*
X12332D01*
X13532Y6952D02*
X13603D01*
X13391D02*
X13245D01*
X13206D02*
X13166D01*
X12812D02*
X12772D01*
X12734D02*
X12332D01*
X13532Y6947D02*
X13603D01*
X13391D02*
X13235D01*
X13216D02*
X13156D01*
X13137D02*
X12999D01*
X12979D02*
X12841D01*
X12822D02*
X12763D01*
X12743D02*
X12605D01*
X12586D02*
X12566D01*
X12546D02*
X12487D01*
X12468D02*
X12332D01*
X13532Y6942D02*
X13603D01*
X13391D02*
X13245D01*
X13206D02*
X13166D01*
X13127D02*
X13008D01*
X12970D02*
X12851D01*
X12812D02*
X12772D01*
X12734D02*
X12615D01*
X12537D02*
X12497D01*
X12458D02*
X12332D01*
X13532Y6937D02*
X13603D01*
X13391D02*
X13245D01*
X13206D02*
X13166D01*
X13127D02*
X13008D01*
X12970D02*
X12851D01*
X12812D02*
X12772D01*
X12734D02*
X12615D01*
X12537D02*
X12497D01*
X12458D02*
X12332D01*
X13532Y6932D02*
X13603D01*
X13391D02*
X13245D01*
X13206D02*
X13166D01*
X13127D02*
X13008D01*
X12970D02*
X12851D01*
X12812D02*
X12772D01*
X12734D02*
X12615D01*
X12537D02*
X12497D01*
X12458D02*
X12332D01*
X13532Y6927D02*
X13603D01*
X13391D02*
X13245D01*
X13206D02*
X13166D01*
X13127D02*
X13008D01*
X12970D02*
X12851D01*
X12812D02*
X12772D01*
X12734D02*
X12615D01*
X12537D02*
X12497D01*
X12458D02*
X12332D01*
X13532Y6922D02*
X13603D01*
X13391D02*
X13245D01*
X13206D02*
X13166D01*
X13127D02*
X13008D01*
X12970D02*
X12851D01*
X12812D02*
X12772D01*
X12734D02*
X12615D01*
X12537D02*
X12497D01*
X12458D02*
X12332D01*
X13532Y6917D02*
X13603D01*
X13391D02*
X13245D01*
X13206D02*
X13166D01*
X13127D02*
X13008D01*
X12970D02*
X12851D01*
X12812D02*
X12772D01*
X12734D02*
X12615D01*
X12537D02*
X12497D01*
X12458D02*
X12332D01*
X13532Y6912D02*
X13603D01*
X13391D02*
X13245D01*
X13239D01*
X13212D02*
X13206D01*
X13166D01*
X13160D01*
X13133D02*
X13127D01*
X13008D01*
X13002D01*
X12976D02*
X12970D01*
X12851D01*
X12845D01*
X12818D02*
X12812D01*
X12772D01*
X12766D01*
X12740D02*
X12734D01*
X12615D01*
X12609D01*
X12582D02*
X12576D01*
X12575D02*
X12569D01*
X12543D02*
X12537D01*
X12497D01*
X12490D01*
X12464D02*
X12458D01*
X12332D01*
X13551Y6907D02*
X13603D01*
X13391D02*
X13236D01*
X13176D02*
X13157D01*
X13136D02*
X13000D01*
X12979D02*
X12842D01*
X12821D02*
X12803D01*
X12782D02*
X12763D01*
X12743D02*
X12606D01*
X12585D02*
X12566D01*
X12546D02*
X12527D01*
X12506D02*
X12488D01*
X12467D02*
X12448D01*
X12428D02*
X12332D01*
X13560Y6902D02*
X13603D01*
X13391D02*
X13245D01*
X13127D02*
X13008D01*
X12970D02*
X12851D01*
X12734D02*
X12615D01*
X12419D02*
X12332D01*
X13560Y6897D02*
X13603D01*
X13391D02*
X13245D01*
X13127D02*
X13008D01*
X12970D02*
X12851D01*
X12734D02*
X12615D01*
X12419D02*
X12332D01*
X13560Y6892D02*
X13603D01*
X13391D02*
X13245D01*
X13127D02*
X13008D01*
X12970D02*
X12851D01*
X12734D02*
X12615D01*
X12419D02*
X12332D01*
X13560Y6887D02*
X13603D01*
X13391D02*
X13245D01*
X13127D02*
X13008D01*
X12970D02*
X12851D01*
X12734D02*
X12615D01*
X12419D02*
X12332D01*
X13560Y6882D02*
X13603D01*
X13391D02*
X13245D01*
X13127D02*
X13008D01*
X12970D02*
X12851D01*
X12734D02*
X12615D01*
X12419D02*
X12332D01*
X13560Y6877D02*
X13603D01*
X13391D02*
X13245D01*
X13127D02*
X13008D01*
X12970D02*
X12851D01*
X12734D02*
X12615D01*
X12419D02*
X12332D01*
X13560Y6872D02*
X13603D01*
X13391D02*
X13245D01*
X13173D02*
X13167D01*
X13166D02*
X13159D01*
X13134D02*
X13127D01*
X13008D01*
X13002D01*
X12977D02*
X12970D01*
X12851D01*
X12844D01*
X12819D02*
X12812D01*
X12812D02*
X12805D01*
X12780D02*
X12773D01*
X12772D02*
X12765D01*
X12740D02*
X12734D01*
X12615D01*
X12608D01*
X12583D02*
X12576D01*
X12575D02*
X12569D01*
X12544D02*
X12537D01*
X12536D02*
X12529D01*
X12504D02*
X12497D01*
X12497D02*
X12490D01*
X12465D02*
X12458D01*
X12457D02*
X12450D01*
X12425D02*
X12419D01*
X12332D01*
X13532Y6908D02*
X13550D01*
X13560Y7017D02*
X13639D01*
Y7012D02*
X13560D01*
Y7007D02*
X13639D01*
Y7002D02*
X13560D01*
Y6997D02*
X13639D01*
Y6992D02*
X13560D01*
X13537Y6987D02*
X13639D01*
Y6982D02*
X13532D01*
X13532Y6977D02*
X13639D01*
Y6972D02*
X13532D01*
Y6967D02*
X13639D01*
Y6962D02*
X13532D01*
Y6957D02*
X13639D01*
Y6952D02*
X13532D01*
Y6947D02*
X13639D01*
Y6942D02*
X13532D01*
Y6937D02*
X13639D01*
Y6932D02*
X13532D01*
Y6927D02*
X13639D01*
Y6922D02*
X13532D01*
Y6917D02*
X13639D01*
Y6912D02*
X13532D01*
X13551Y6907D02*
X13639D01*
Y6902D02*
X13560D01*
Y6897D02*
X13639D01*
Y6892D02*
X13560D01*
Y6887D02*
X13639D01*
Y6882D02*
X13560D01*
Y6877D02*
X13639D01*
Y6872D02*
X13560D01*
X13521Y7026D02*
X13481D01*
X13442D01*
X12487Y7027D02*
X12468D01*
X12586Y7026D02*
X12605D01*
X12526Y7026D02*
X12507D01*
X12861D02*
X12881D01*
Y7027D02*
X12861D01*
X12841D02*
X12822D01*
X12763Y7026D02*
X12743D01*
X12822D02*
X12841D01*
X12763Y7027D02*
X12743D01*
X13058D02*
X13078D01*
X12920D02*
X12901D01*
X13058Y7026D02*
X13078D01*
X13038Y7027D02*
X13019D01*
X12999D02*
X12979D01*
Y7026D02*
X12999D01*
X13019D02*
X13038D01*
X12959D02*
X12940D01*
X12920D02*
X12901D01*
X12940Y7027D02*
X12959D01*
X13098Y7026D02*
X13117D01*
Y7027D02*
X13098D01*
X13216Y7026D02*
X13235D01*
X13156D02*
X13137D01*
Y7027D02*
X13156D01*
X13216D02*
X13235D01*
X13245Y7052D02*
X13391D01*
X13206D02*
X13166D01*
X12812D02*
X12772D01*
X12734D02*
X12497D01*
X12458D02*
X12332D01*
X13245Y7047D02*
X13391D01*
X13206D02*
X13166D01*
X12812D02*
X12772D01*
X12734D02*
X12497D01*
X12458D02*
X12332D01*
X13245Y7042D02*
X13391D01*
X13206D02*
X13166D01*
X12812D02*
X12772D01*
X12734D02*
X12497D01*
X12458D02*
X12332D01*
X13245Y7037D02*
X13391D01*
X13206D02*
X13166D01*
X12812D02*
X12772D01*
X12734D02*
X12497D01*
X12458D02*
X12332D01*
X13245Y7032D02*
X13391D01*
X13206D02*
X13166D01*
X12812D02*
X12772D01*
X12734D02*
X12497D01*
X12458D02*
X12332D01*
X13594Y7027D02*
X13603D01*
X13391D02*
X13235D01*
X13215D02*
X13157D01*
X13137D02*
X13117D01*
X13097D02*
X13078D01*
X13058D02*
X13039D01*
X13018D02*
X12999D01*
X12979D02*
X12960D01*
X12940D02*
X12920D01*
X12900D02*
X12881D01*
X12861D02*
X12842D01*
X12822D02*
X12763D01*
X12743D02*
X12487D01*
X12467D02*
X12332D01*
X13560Y7022D02*
X13603D01*
X13391D02*
X13245D01*
X13206D02*
X13166D01*
X12812D02*
X12772D01*
X12734D02*
X12615D01*
X12576D02*
X12536D01*
X12497D02*
X12332D01*
X13603Y7052D02*
X13639D01*
Y7047D02*
X13603D01*
Y7042D02*
X13639D01*
Y7037D02*
X13603D01*
Y7032D02*
X13639D01*
Y7027D02*
X13594D01*
X13560Y7022D02*
X13639D01*
X13284Y7057D02*
X13177D01*
Y7062D02*
X13284D01*
Y7067D02*
X13177D01*
Y7072D02*
X13284D01*
Y7077D02*
X13177D01*
Y7082D02*
X13284D01*
Y7087D02*
X13177D01*
Y7092D02*
X13284D01*
Y7097D02*
X13177D01*
Y7102D02*
X13284D01*
Y7107D02*
X13177D01*
Y7112D02*
X13284D01*
Y7117D02*
X13177D01*
Y7122D02*
X13284D01*
Y7127D02*
X13177D01*
Y7132D02*
X13284D01*
Y7137D02*
X13177D01*
Y7142D02*
X13284D01*
Y7147D02*
X13177D01*
Y7152D02*
X13284D01*
Y7157D02*
X13177D01*
Y7162D02*
X13284D01*
Y7167D02*
X13177D01*
Y7172D02*
X13284D01*
Y7177D02*
X13177D01*
Y7182D02*
X13284D01*
Y7187D02*
X13177D01*
Y7192D02*
X13284D01*
Y7197D02*
X13177D01*
Y7202D02*
X13284D01*
Y7207D02*
X13177D01*
Y7212D02*
X13284D01*
Y7217D02*
X13177D01*
Y7222D02*
X13284D01*
Y7227D02*
X13177D01*
Y7232D02*
X13284D01*
Y7237D02*
X13177D01*
Y7242D02*
X13284D01*
Y7247D02*
X13177D01*
X13574Y7065D02*
X13593D01*
X13560Y7067D02*
X13551D01*
X13596Y7062D02*
X13603D01*
X13571D02*
X13564D01*
X13560D02*
X13553D01*
X13414Y7077D02*
X13402D01*
X13554Y7227D02*
X13560D01*
Y7102D02*
X13553D01*
X13481Y7066D02*
X13403D01*
X12487Y7065D02*
X12468D01*
X12861D02*
X12881D01*
Y7066D02*
X12861D01*
X12841Y7065D02*
X12822D01*
Y7066D02*
X12841D01*
X12763D02*
X12743D01*
Y7065D02*
X12763D01*
X13019Y7066D02*
X13038D01*
X13058Y7065D02*
X13078D01*
Y7066D02*
X13058D01*
X12920Y7065D02*
X12901D01*
X12940Y7066D02*
X12959D01*
X13019Y7065D02*
X13038D01*
X12999Y7066D02*
X12979D01*
Y7065D02*
X12999D01*
X12959D02*
X12940D01*
X12920Y7066D02*
X12901D01*
X13098Y7065D02*
X13117D01*
Y7066D02*
X13098D01*
X13137D02*
X13156D01*
Y7065D02*
X13137D01*
X13216D02*
X13235D01*
Y7066D02*
X13216D01*
X13373Y7066D02*
X13391D01*
X13353D02*
X13334D01*
X13531D02*
X13550D01*
X13511Y7066D02*
X13498D01*
X13531Y7065D02*
X13550D01*
X13511Y7065D02*
X13498D01*
X13560Y7067D02*
X13603D01*
X13530D02*
X13521D01*
X13520D02*
X13512D01*
X13372D02*
X13364D01*
X13363D02*
X13354D01*
X13333D02*
X13324D01*
X13245D01*
X13236D01*
X13215D02*
X13206D01*
X13166D01*
X13157D01*
X13136D02*
X13127D01*
X13127D02*
X13118D01*
X13097D02*
X13088D01*
X13087D02*
X13079D01*
X13057D02*
X13049D01*
X13048D02*
X13039D01*
X13018D02*
X13009D01*
X13008D02*
X13000D01*
X12978D02*
X12970D01*
X12969D02*
X12960D01*
X12939D02*
X12930D01*
X12930D02*
X12921D01*
X12900D02*
X12891D01*
X12890D02*
X12882D01*
X12860D02*
X12852D01*
X12851D02*
X12842D01*
X12821D02*
X12812D01*
X12772D01*
X12764D01*
X12742D02*
X12734D01*
X12332D01*
X13521Y7062D02*
X13527D01*
X13520D02*
X13514D01*
X13391D02*
X13245D01*
X13238D01*
X13213D02*
X13206D01*
X13166D01*
X13159D01*
X13134D02*
X13127D01*
X13127D02*
X13120D01*
X13094D02*
X13088D01*
X13087D02*
X13081D01*
X13055D02*
X13049D01*
X13048D02*
X13041D01*
X13016D02*
X13009D01*
X13008D02*
X13002D01*
X12976D02*
X12970D01*
X12969D02*
X12963D01*
X12937D02*
X12930D01*
X12930D02*
X12923D01*
X12898D02*
X12891D01*
X12890D02*
X12884D01*
X12858D02*
X12852D01*
X12851D02*
X12845D01*
X12819D02*
X12812D01*
X12772D01*
X12766D01*
X12740D02*
X12734D01*
X12497D01*
X12490D01*
X12464D02*
X12458D01*
X12332D01*
X13245Y7057D02*
X13391D01*
X13206D02*
X13166D01*
X12812D02*
X12772D01*
X12734D02*
X12497D01*
X12458D02*
X12332D01*
X13532Y7066D02*
X13550D01*
Y7065D02*
X13532D01*
X13560Y7067D02*
X13639D01*
Y7062D02*
X13603D01*
Y7057D02*
X13639D01*
X13482Y7077D02*
X13476D01*
X13414D01*
X12487Y7144D02*
X12468D01*
Y7105D02*
X12487D01*
Y7184D02*
X12468D01*
X12546Y7184D02*
X12566D01*
X12586D02*
X12605D01*
X12625D02*
X12644D01*
X12566Y7183D02*
X12546D01*
Y7145D02*
X12566D01*
X12586Y7183D02*
X12605D01*
Y7145D02*
X12586D01*
X12625Y7183D02*
X12644D01*
Y7145D02*
X12625D01*
X12526Y7144D02*
X12507D01*
Y7105D02*
X12526D01*
X12546Y7144D02*
X12566D01*
Y7105D02*
X12546D01*
X12586Y7144D02*
X12605D01*
Y7105D02*
X12586D01*
X12625Y7144D02*
X12644D01*
Y7105D02*
X12625D01*
X12665Y7144D02*
X12684D01*
Y7105D02*
X12665D01*
Y7184D02*
X12684D01*
X12526D02*
X12507D01*
X12861Y7105D02*
X12881D01*
Y7183D02*
X12861D01*
Y7145D02*
X12881D01*
Y7184D02*
X12861D01*
X12841Y7105D02*
X12822D01*
X12763D02*
X12743D01*
X12723Y7144D02*
X12704D01*
Y7105D02*
X12723D01*
X12723Y7183D02*
X12704D01*
Y7145D02*
X12723D01*
X12822Y7184D02*
X12841D01*
Y7183D02*
X12822D01*
Y7145D02*
X12841D01*
Y7144D02*
X12822D01*
Y7105D02*
X12841D01*
X12763Y7183D02*
X12743D01*
Y7145D02*
X12763D01*
Y7184D02*
X12743D01*
X12901D02*
X12920D01*
X12940Y7183D02*
X12959D01*
Y7145D02*
X12940D01*
X12979Y7144D02*
X12999D01*
Y7105D02*
X12979D01*
X13019Y7105D02*
X13038D01*
X13058D02*
X13078D01*
X13038Y7144D02*
X13019D01*
Y7105D02*
X13038D01*
X12999Y7183D02*
X12979D01*
Y7145D02*
X12999D01*
X12959Y7184D02*
X12940D01*
X12979D02*
X12999D01*
X13019Y7183D02*
X13038D01*
Y7145D02*
X13019D01*
X13058Y7144D02*
X13078D01*
Y7105D02*
X13058D01*
Y7183D02*
X13078D01*
Y7145D02*
X13058D01*
X13038Y7184D02*
X13019D01*
X13058D02*
X13078D01*
X12959Y7105D02*
X12940D01*
X12979D02*
X12999D01*
X12920Y7144D02*
X12901D01*
Y7105D02*
X12920D01*
X12940Y7144D02*
X12959D01*
Y7105D02*
X12940D01*
X12920Y7183D02*
X12901D01*
Y7145D02*
X12920D01*
Y7105D02*
X12901D01*
X13098D02*
X13117D01*
Y7183D02*
X13098D01*
Y7145D02*
X13117D01*
X13137Y7105D02*
X13156D01*
Y7183D02*
X13137D01*
Y7145D02*
X13156D01*
X13216Y7144D02*
X13235D01*
Y7105D02*
X13216D01*
X13156Y7144D02*
X13137D01*
Y7105D02*
X13156D01*
Y7184D02*
X13137D01*
X13216Y7105D02*
X13235D01*
Y7183D02*
X13216D01*
Y7145D02*
X13235D01*
Y7184D02*
X13216D01*
X13452D02*
X13471D01*
X13392Y7105D02*
X13373D01*
X13353D02*
X13334D01*
X13334Y7144D02*
X13353D01*
Y7105D02*
X13334D01*
X13314Y7144D02*
X13294D01*
Y7105D02*
X13314D01*
X13531Y7105D02*
X13550D01*
X13511Y7184D02*
X13491D01*
Y7105D02*
X13511D01*
X13520Y7212D02*
X13603D01*
X13442D02*
X13245D01*
X13206D02*
X13166D01*
X13127D02*
X13087D01*
X12812D02*
X12772D01*
X12734D02*
X12693D01*
X12458D02*
X12332D01*
X13520Y7207D02*
X13603D01*
X13442D02*
X13245D01*
X13206D02*
X13166D01*
X13127D02*
X13087D01*
X12812D02*
X12772D01*
X12734D02*
X12693D01*
X12458D02*
X12332D01*
X13520Y7202D02*
X13603D01*
X13442D02*
X13245D01*
X13206D02*
X13166D01*
X13127D02*
X13087D01*
X12812D02*
X12772D01*
X12734D02*
X12693D01*
X12458D02*
X12332D01*
X13520Y7197D02*
X13603D01*
X13442D02*
X13245D01*
X13206D02*
X13166D01*
X13127D02*
X13087D01*
X12812D02*
X12772D01*
X12734D02*
X12693D01*
X12458D02*
X12332D01*
X13520Y7192D02*
X13603D01*
X13442D02*
X13245D01*
X13206D02*
X13166D01*
X13127D02*
X13087D01*
X12812D02*
X12772D01*
X12734D02*
X12693D01*
X12458D02*
X12332D01*
X13520Y7187D02*
X13603D01*
X13520D02*
X13514D01*
X13488D02*
X13482D01*
X13481D02*
X13474D01*
X13449D02*
X13442D01*
X13245D01*
X13238D01*
X13213D02*
X13206D01*
X13166D01*
X13159D01*
X13134D02*
X13127D01*
X13087D01*
X13080D01*
X13055D02*
X13049D01*
X13048D02*
X13041D01*
X13016D02*
X13009D01*
X13008D02*
X13002D01*
X12977D02*
X12970D01*
X12969D02*
X12962D01*
X12937D02*
X12930D01*
X12930D02*
X12923D01*
X12898D02*
X12891D01*
X12890D02*
X12884D01*
X12858D02*
X12852D01*
X12851D02*
X12844D01*
X12819D02*
X12812D01*
X12772D01*
X12765D01*
X12740D02*
X12734D01*
X12693D01*
X12687D01*
X12662D02*
X12655D01*
X12654D02*
X12647D01*
X12622D02*
X12616D01*
X12615D02*
X12608D01*
X12583D02*
X12576D01*
X12575D02*
X12569D01*
X12543D02*
X12537D01*
X12536D02*
X12529D01*
X12504D02*
X12497D01*
X12497D02*
X12490D01*
X12465D02*
X12458D01*
X12332D01*
X13245Y7182D02*
X13603D01*
X13245D02*
X13236D01*
X13214D02*
X13206D01*
X13166D01*
X13158D01*
X13136D02*
X13127D01*
X13127D02*
X13118D01*
X13096D02*
X13088D01*
X13087D02*
X13079D01*
X13057D02*
X13049D01*
X13048D02*
X13039D01*
X13018D02*
X13009D01*
X13008D02*
X13000D01*
X12978D02*
X12970D01*
X12969D02*
X12961D01*
X12939D02*
X12930D01*
X12930D02*
X12921D01*
X12899D02*
X12891D01*
X12890D02*
X12882D01*
X12860D02*
X12852D01*
X12851D02*
X12843D01*
X12821D02*
X12812D01*
X12772D01*
X12764D01*
X12742D02*
X12734D01*
X12733D02*
X12725D01*
X12703D02*
X12694D01*
X12654D01*
X12646D01*
X12624D02*
X12616D01*
X12615D02*
X12606D01*
X12584D02*
X12576D01*
X12575D02*
X12567D01*
X12545D02*
X12537D01*
X12332D01*
X13245Y7177D02*
X13603D01*
X13206D02*
X13166D01*
X12812D02*
X12772D01*
X12694D02*
X12654D01*
X12537D02*
X12332D01*
X13245Y7172D02*
X13603D01*
X13206D02*
X13166D01*
X12812D02*
X12772D01*
X12694D02*
X12654D01*
X12537D02*
X12332D01*
X13245Y7167D02*
X13603D01*
X13206D02*
X13166D01*
X12812D02*
X12772D01*
X12694D02*
X12654D01*
X12537D02*
X12332D01*
X13245Y7162D02*
X13603D01*
X13206D02*
X13166D01*
X12812D02*
X12772D01*
X12694D02*
X12654D01*
X12537D02*
X12332D01*
X13245Y7157D02*
X13603D01*
X13206D02*
X13166D01*
X12812D02*
X12772D01*
X12694D02*
X12654D01*
X12537D02*
X12332D01*
X13245Y7152D02*
X13603D01*
X13206D02*
X13166D01*
X12812D02*
X12772D01*
X12694D02*
X12654D01*
X12537D02*
X12332D01*
X13245Y7147D02*
X13603D01*
X13245D02*
X13237D01*
X13213D02*
X13206D01*
X13166D01*
X13159D01*
X13135D02*
X13127D01*
X13127D02*
X13119D01*
X13095D02*
X13088D01*
X13087D02*
X13080D01*
X13056D02*
X13049D01*
X13048D02*
X13040D01*
X13017D02*
X13009D01*
X13008D02*
X13001D01*
X12977D02*
X12970D01*
X12969D02*
X12962D01*
X12938D02*
X12930D01*
X12930D02*
X12922D01*
X12898D02*
X12891D01*
X12890D02*
X12883D01*
X12859D02*
X12852D01*
X12851D02*
X12844D01*
X12820D02*
X12812D01*
X12772D01*
X12765D01*
X12741D02*
X12734D01*
X12733D02*
X12725D01*
X12702D02*
X12694D01*
X12654D01*
X12647D01*
X12623D02*
X12616D01*
X12615D02*
X12607D01*
X12583D02*
X12576D01*
X12575D02*
X12568D01*
X12544D02*
X12537D01*
X12332D01*
X13363Y7142D02*
X13603D01*
X13363D02*
X13355D01*
X13332D02*
X13324D01*
X13323D02*
X13316D01*
X13293D02*
X13285D01*
X13245D01*
X13237D01*
X13214D02*
X13206D01*
X13166D01*
X13158D01*
X13135D02*
X13127D01*
X13087D01*
X13079D01*
X13056D02*
X13049D01*
X13048D02*
X13040D01*
X13017D02*
X13009D01*
X13008D02*
X13001D01*
X12978D02*
X12970D01*
X12969D02*
X12961D01*
X12938D02*
X12930D01*
X12930D02*
X12922D01*
X12899D02*
X12891D01*
X12851D01*
X12843D01*
X12820D02*
X12812D01*
X12733D01*
X12725D01*
X12702D02*
X12694D01*
X12693D02*
X12686D01*
X12663D02*
X12655D01*
X12654D02*
X12646D01*
X12623D02*
X12616D01*
X12615D02*
X12607D01*
X12584D02*
X12576D01*
X12575D02*
X12568D01*
X12544D02*
X12537D01*
X12536D02*
X12528D01*
X12505D02*
X12497D01*
X12497D02*
X12489D01*
X12466D02*
X12458D01*
X12332D01*
X13363Y7137D02*
X13603D01*
X13285D02*
X13245D01*
X13206D02*
X13166D01*
X13127D02*
X13087D01*
X12891D02*
X12851D01*
X12812D02*
X12733D01*
X12458D02*
X12332D01*
X13363Y7132D02*
X13603D01*
X13285D02*
X13245D01*
X13206D02*
X13166D01*
X13127D02*
X13087D01*
X12891D02*
X12851D01*
X12812D02*
X12733D01*
X12458D02*
X12332D01*
X13363Y7127D02*
X13603D01*
X13285D02*
X13245D01*
X13206D02*
X13166D01*
X13127D02*
X13087D01*
X12891D02*
X12851D01*
X12812D02*
X12733D01*
X12458D02*
X12332D01*
X13363Y7122D02*
X13603D01*
X13285D02*
X13245D01*
X13206D02*
X13166D01*
X13127D02*
X13087D01*
X12891D02*
X12851D01*
X12812D02*
X12733D01*
X12458D02*
X12332D01*
X13363Y7117D02*
X13603D01*
X13285D02*
X13245D01*
X13206D02*
X13166D01*
X13127D02*
X13087D01*
X12891D02*
X12851D01*
X12812D02*
X12733D01*
X12458D02*
X12332D01*
X13363Y7112D02*
X13603D01*
X13285D02*
X13245D01*
X13206D02*
X13166D01*
X13127D02*
X13087D01*
X12891D02*
X12851D01*
X12812D02*
X12733D01*
X12458D02*
X12332D01*
X13363Y7107D02*
X13603D01*
X13363D02*
X13355D01*
X13332D02*
X13324D01*
X13323D02*
X13315D01*
X13293D02*
X13285D01*
X13245D01*
X13237D01*
X13214D02*
X13206D01*
X13166D01*
X13158D01*
X13135D02*
X13127D01*
X13087D01*
X13079D01*
X13057D02*
X13049D01*
X13048D02*
X13040D01*
X13017D02*
X13009D01*
X13008D02*
X13000D01*
X12978D02*
X12970D01*
X12969D02*
X12961D01*
X12938D02*
X12930D01*
X12930D02*
X12922D01*
X12899D02*
X12891D01*
X12851D01*
X12843D01*
X12820D02*
X12812D01*
X12733D01*
X12725D01*
X12702D02*
X12694D01*
X12693D02*
X12685D01*
X12663D02*
X12655D01*
X12654D02*
X12646D01*
X12623D02*
X12616D01*
X12615D02*
X12607D01*
X12584D02*
X12576D01*
X12575D02*
X12567D01*
X12545D02*
X12537D01*
X12536D02*
X12528D01*
X12505D02*
X12497D01*
X12497D02*
X12489D01*
X12466D02*
X12458D01*
X12332D01*
X13560Y7102D02*
X13603D01*
X13528D02*
X13521D01*
X13520D02*
X13513D01*
X13489D02*
X13482D01*
X13402D01*
X13395D01*
X13371D02*
X13364D01*
X13363D02*
X13356D01*
X13331D02*
X13324D01*
X13245D01*
X13238D01*
X13213D02*
X13206D01*
X13166D01*
X13159D01*
X13134D02*
X13127D01*
X13127D02*
X13119D01*
X13095D02*
X13088D01*
X13087D02*
X13080D01*
X13056D02*
X13049D01*
X13048D02*
X13041D01*
X13016D02*
X13009D01*
X13008D02*
X13001D01*
X12977D02*
X12970D01*
X12969D02*
X12962D01*
X12938D02*
X12930D01*
X12930D02*
X12923D01*
X12898D02*
X12891D01*
X12890D02*
X12883D01*
X12859D02*
X12852D01*
X12851D02*
X12844D01*
X12819D02*
X12812D01*
X12772D01*
X12765D01*
X12741D02*
X12734D01*
X12332D01*
X13560Y7097D02*
X13603D01*
X13482D02*
X13402D01*
X13324D02*
X13245D01*
X13206D02*
X13166D01*
X12812D02*
X12772D01*
X12734D02*
X12332D01*
X13560Y7092D02*
X13603D01*
X13482D02*
X13402D01*
X13324D02*
X13245D01*
X13206D02*
X13166D01*
X12812D02*
X12772D01*
X12734D02*
X12332D01*
X13560Y7087D02*
X13603D01*
X13482D02*
X13402D01*
X13324D02*
X13245D01*
X13206D02*
X13166D01*
X12812D02*
X12772D01*
X12734D02*
X12332D01*
X13560Y7082D02*
X13603D01*
X13481D02*
X13414D01*
X13402D01*
X13324D02*
X13245D01*
X13206D02*
X13166D01*
X12812D02*
X12772D01*
X12734D02*
X12332D01*
X13560Y7077D02*
X13603D01*
X13324D02*
X13245D01*
X13206D02*
X13166D01*
X12812D02*
X12772D01*
X12734D02*
X12332D01*
X13560Y7072D02*
X13603D01*
X13324D02*
X13245D01*
X13206D02*
X13166D01*
X12812D02*
X12772D01*
X12734D02*
X12332D01*
X13532Y7105D02*
X13550D01*
X13532Y7212D02*
X13639D01*
Y7207D02*
X13532D01*
Y7202D02*
X13639D01*
Y7197D02*
X13532D01*
Y7192D02*
X13639D01*
Y7187D02*
X13532D01*
Y7182D02*
X13639D01*
Y7177D02*
X13532D01*
Y7172D02*
X13639D01*
Y7167D02*
X13532D01*
Y7162D02*
X13639D01*
Y7157D02*
X13532D01*
Y7152D02*
X13639D01*
Y7147D02*
X13532D01*
Y7142D02*
X13639D01*
Y7137D02*
X13532D01*
Y7132D02*
X13639D01*
Y7127D02*
X13532D01*
Y7122D02*
X13639D01*
Y7117D02*
X13532D01*
Y7112D02*
X13639D01*
Y7107D02*
X13532D01*
X13560Y7102D02*
X13639D01*
Y7097D02*
X13560D01*
Y7092D02*
X13639D01*
Y7087D02*
X13560D01*
Y7082D02*
X13639D01*
Y7077D02*
X13560D01*
Y7072D02*
X13639D01*
X12487Y7223D02*
X12468D01*
X12546Y7223D02*
X12566D01*
X12526Y7223D02*
X12507D01*
X12546Y7223D02*
X12566D01*
X12586D02*
X12605D01*
X12625D02*
X12644D01*
X12665D02*
X12684D01*
X12605Y7223D02*
X12586D01*
X12625D02*
X12644D01*
X12526Y7223D02*
X12507D01*
X12861Y7223D02*
X12881D01*
Y7223D02*
X12861D01*
X12841Y7223D02*
X12822D01*
X12763D02*
X12743D01*
X12822Y7223D02*
X12841D01*
X12763D02*
X12743D01*
X12901D02*
X12920D01*
X12940D02*
X12959D01*
Y7223D02*
X12940D01*
X12979Y7223D02*
X12999D01*
X13019D02*
X13038D01*
X12999Y7223D02*
X12979D01*
X13058Y7223D02*
X13078D01*
X13038Y7223D02*
X13019D01*
X13098D02*
X13117D01*
X13216D02*
X13235D01*
X13156Y7223D02*
X13137D01*
Y7223D02*
X13156D01*
X13216Y7223D02*
X13235D01*
X13452D02*
X13471D01*
Y7223D02*
X13452D01*
X13353D02*
X13334D01*
X13531D02*
X13550D01*
X13511Y7223D02*
X13491D01*
X13560Y7247D02*
X13603D01*
X13521D02*
X13481D01*
X13442D02*
X13363D01*
X13324D02*
X13245D01*
X13206D02*
X13166D01*
X13088D02*
X13048D01*
X12930D02*
X12890D01*
X12812D02*
X12772D01*
X12734D02*
X12654D01*
X12497D02*
X12332D01*
X13560Y7242D02*
X13603D01*
X13521D02*
X13481D01*
X13442D02*
X13363D01*
X13324D02*
X13245D01*
X13206D02*
X13166D01*
X13088D02*
X13048D01*
X12930D02*
X12890D01*
X12812D02*
X12772D01*
X12734D02*
X12654D01*
X12497D02*
X12332D01*
X13560Y7237D02*
X13603D01*
X13521D02*
X13481D01*
X13442D02*
X13363D01*
X13324D02*
X13245D01*
X13206D02*
X13166D01*
X13088D02*
X13048D01*
X12930D02*
X12890D01*
X12812D02*
X12772D01*
X12734D02*
X12654D01*
X12497D02*
X12332D01*
X13560Y7232D02*
X13603D01*
X13521D02*
X13481D01*
X13442D02*
X13363D01*
X13324D02*
X13245D01*
X13206D02*
X13166D01*
X13088D02*
X13048D01*
X12930D02*
X12890D01*
X12812D02*
X12772D01*
X12734D02*
X12654D01*
X12497D02*
X12332D01*
X13560Y7227D02*
X13603D01*
X13527D02*
X13521D01*
X13481D01*
X13475D01*
X13448D02*
X13442D01*
X13363D01*
X13357D01*
X13330D02*
X13324D01*
X13245D01*
X13239D01*
X13212D02*
X13206D01*
X13166D01*
X13160D01*
X13133D02*
X13127D01*
X13127D02*
X13120D01*
X13094D02*
X13088D01*
X13048D01*
X13042D01*
X13015D02*
X13009D01*
X13008D02*
X13002D01*
X12976D02*
X12970D01*
X12969D02*
X12963D01*
X12937D02*
X12930D01*
X12890D01*
X12884D01*
X12858D02*
X12852D01*
X12851D02*
X12845D01*
X12818D02*
X12812D01*
X12772D01*
X12766D01*
X12740D02*
X12734D01*
X12654D01*
X12648D01*
X12622D02*
X12616D01*
X12615D02*
X12609D01*
X12582D02*
X12576D01*
X12575D02*
X12569D01*
X12543D02*
X12537D01*
X12536D02*
X12530D01*
X12503D02*
X12497D01*
X12332D01*
X13511Y7222D02*
X13603D01*
X13491D02*
X13472D01*
X13451D02*
X13236D01*
X13215D02*
X13157D01*
X13136D02*
X13078D01*
X13058D02*
X13039D01*
X13018D02*
X12999D01*
X12979D02*
X12960D01*
X12939D02*
X12921D01*
X12900D02*
X12881D01*
X12861D02*
X12842D01*
X12821D02*
X12763D01*
X12743D02*
X12685D01*
X12664D02*
X12645D01*
X12624D02*
X12606D01*
X12585D02*
X12566D01*
X12546D02*
X12527D01*
X12506D02*
X12488D01*
X12467D02*
X12332D01*
X13520Y7217D02*
X13603D01*
X13442D02*
X13245D01*
X13206D02*
X13166D01*
X13127D02*
X13087D01*
X12812D02*
X12772D01*
X12734D02*
X12693D01*
X12458D02*
X12332D01*
X13532Y7223D02*
X13550D01*
X13560Y7247D02*
X13639D01*
Y7242D02*
X13560D01*
Y7237D02*
X13639D01*
Y7232D02*
X13560D01*
Y7227D02*
X13639D01*
Y7222D02*
X13532D01*
Y7217D02*
X13639D01*
X13284Y7252D02*
X13177D01*
Y7257D02*
X13284D01*
Y7262D02*
X13177D01*
Y7267D02*
X13284D01*
Y7272D02*
X13177D01*
Y7277D02*
X13284D01*
Y7282D02*
X13177D01*
Y7287D02*
X13284D01*
Y7292D02*
X13177D01*
Y7297D02*
X13284D01*
Y7302D02*
X13177D01*
Y7307D02*
X13284D01*
Y7312D02*
X13177D01*
Y7317D02*
X13284D01*
Y7322D02*
X13177D01*
Y7327D02*
X13284D01*
Y7332D02*
X13177D01*
Y7337D02*
X13284D01*
X13215Y7342D02*
X13196D01*
X13235D02*
X13284D01*
Y7347D02*
X13245D01*
Y7352D02*
X13284D01*
Y7357D02*
X13245D01*
Y7362D02*
X13284D01*
Y7367D02*
X13245D01*
Y7372D02*
X13284D01*
X13205Y7377D02*
X13199D01*
X13206D02*
X13213D01*
X13238D02*
X13245D01*
X13284D01*
X13245Y7382D02*
X13178D01*
X13245D02*
X13254D01*
X13275D02*
X13284D01*
X13245Y7387D02*
X13178D01*
Y7392D02*
X13245D01*
Y7397D02*
X13178D01*
Y7402D02*
X13245D01*
X13255Y7381D02*
X13274D01*
X13196Y7342D02*
X13177D01*
Y7380D02*
X13178D01*
X13178D02*
X13196D01*
X13216Y7342D02*
X13235D01*
Y7380D02*
X13216D01*
X13245Y7405D02*
X13178D01*
X13284D02*
X13284D01*
X12959Y7420D02*
X12940D01*
Y7381D02*
X12959D01*
X12920Y7420D02*
X12901D01*
Y7381D02*
X12920D01*
Y7420D02*
X12901D01*
X12940D02*
X12959D01*
X13553Y7377D02*
X13560D01*
X12644Y7263D02*
X12625D01*
X12566Y7262D02*
X12546D01*
X12526Y7262D02*
X12507D01*
Y7263D02*
X12526D01*
X12546D02*
X12566D01*
X12586D02*
X12605D01*
X12605Y7262D02*
X12586D01*
X12625D02*
X12644D01*
X12861D02*
X12881D01*
X12841Y7263D02*
X12822D01*
Y7262D02*
X12841D01*
X12763D02*
X12743D01*
Y7263D02*
X12763D01*
X12861D02*
X12881D01*
X12940Y7262D02*
X12959D01*
X12979D02*
X12999D01*
X13019D02*
X13038D01*
X12920Y7263D02*
X12901D01*
X12940D02*
X12959D01*
X12979D02*
X12999D01*
X13019D02*
X13038D01*
X13058D02*
X13078D01*
X13098Y7262D02*
X13117D01*
X13137Y7263D02*
X13156D01*
X13117D02*
X13098D01*
X13216Y7262D02*
X13235D01*
Y7263D02*
X13216D01*
X13156Y7262D02*
X13137D01*
X13452D02*
X13471D01*
X13353D02*
X13334D01*
X13531Y7263D02*
X13550D01*
Y7262D02*
X13531D01*
X13550Y7262D02*
X13603D01*
X13531D02*
X13471D01*
X13452D02*
X13353D01*
X13334D02*
X13235D01*
X13216D02*
X13156D01*
X13137D02*
X13117D01*
X13098D02*
X13038D01*
X13019D02*
X12999D01*
X12979D02*
X12959D01*
X12940D02*
X12881D01*
X12861D02*
X12841D01*
X12822D02*
X12763D01*
X12743D02*
X12645D01*
X12625D02*
X12605D01*
X12586D02*
X12566D01*
X12546D02*
X12526D01*
X12507D02*
X12332D01*
X13560Y7257D02*
X13603D01*
X13521D02*
X13481D01*
X13442D02*
X13363D01*
X13324D02*
X13245D01*
X13206D02*
X13166D01*
X13088D02*
X13048D01*
X12930D02*
X12890D01*
X12812D02*
X12772D01*
X12734D02*
X12654D01*
X12497D02*
X12332D01*
X13560Y7252D02*
X13603D01*
X13521D02*
X13481D01*
X13442D02*
X13363D01*
X13324D02*
X13245D01*
X13206D02*
X13166D01*
X13088D02*
X13048D01*
X12930D02*
X12890D01*
X12812D02*
X12772D01*
X12734D02*
X12654D01*
X12497D02*
X12332D01*
X13532Y7263D02*
X13550D01*
Y7262D02*
X13532D01*
X13550Y7262D02*
X13639D01*
Y7257D02*
X13560D01*
Y7252D02*
X13639D01*
X12396Y7400D02*
X12377D01*
Y7361D02*
X12396D01*
X12468Y7381D02*
X12487D01*
Y7341D02*
X12468D01*
Y7302D02*
X12487D01*
X12487Y7380D02*
X12468D01*
Y7342D02*
X12487D01*
X12507Y7380D02*
X12526D01*
Y7342D02*
X12507D01*
X12507Y7381D02*
X12526D01*
X12625Y7301D02*
X12644D01*
X12566Y7381D02*
X12546D01*
X12586Y7381D02*
X12605D01*
X12625D02*
X12644D01*
X12566Y7380D02*
X12546D01*
Y7342D02*
X12566D01*
X12586Y7380D02*
X12605D01*
Y7342D02*
X12586D01*
X12625Y7380D02*
X12644D01*
Y7342D02*
X12625D01*
X12526Y7341D02*
X12507D01*
Y7302D02*
X12526D01*
X12546Y7341D02*
X12566D01*
Y7302D02*
X12546D01*
X12586Y7341D02*
X12605D01*
Y7302D02*
X12586D01*
X12526Y7301D02*
X12507D01*
X12546D02*
X12566D01*
X12586D02*
X12605D01*
X12665Y7380D02*
X12684D01*
Y7342D02*
X12665D01*
X12644Y7341D02*
X12625D01*
Y7302D02*
X12644D01*
X12822Y7301D02*
X12841D01*
X12763Y7380D02*
X12743D01*
Y7342D02*
X12763D01*
X12783Y7380D02*
X12802D01*
Y7342D02*
X12783D01*
X12822Y7380D02*
X12841D01*
Y7342D02*
X12822D01*
X12763Y7301D02*
X12743D01*
Y7341D02*
X12763D01*
Y7302D02*
X12743D01*
X12861Y7380D02*
X12881D01*
Y7342D02*
X12861D01*
X12723Y7381D02*
X12704D01*
Y7380D02*
X12723D01*
Y7342D02*
X12704D01*
X12861Y7301D02*
X12881D01*
X12901D02*
X12920D01*
X12940D02*
X12959D01*
X12979D02*
X12999D01*
X13019D02*
X13038D01*
X13058D02*
X13078D01*
X12959Y7380D02*
X12940D01*
Y7342D02*
X12959D01*
X13019Y7380D02*
X13038D01*
Y7342D02*
X13019D01*
X13058Y7380D02*
X13078D01*
Y7342D02*
X13058D01*
X12920Y7380D02*
X12901D01*
Y7342D02*
X12920D01*
X13137Y7301D02*
X13156D01*
X13117D02*
X13098D01*
X13216D02*
X13235D01*
Y7341D02*
X13216D01*
Y7302D02*
X13235D01*
X13196Y7380D02*
X13176D01*
Y7342D02*
X13196D01*
X13156Y7380D02*
X13137D01*
Y7342D02*
X13156D01*
X13117Y7380D02*
X13098D01*
Y7342D02*
X13117D01*
X13452Y7381D02*
X13471D01*
X13531Y7341D02*
X13550D01*
Y7302D02*
X13531D01*
Y7380D02*
X13550D01*
Y7342D02*
X13531D01*
Y7301D02*
X13550D01*
X13603Y7407D02*
X13481D01*
X13442D02*
X13284D01*
X13245D02*
X12969D01*
X12891D02*
X12733D01*
X12694D02*
X12654D01*
X12458D02*
X12332D01*
X13481Y7402D02*
X13603D01*
X13442D02*
X13284D01*
X13245D02*
X12969D01*
X12891D02*
X12733D01*
X12694D02*
X12654D01*
X12458D02*
X12332D01*
X13481Y7397D02*
X13603D01*
X13442D02*
X13284D01*
X13245D02*
X12969D01*
X12891D02*
X12733D01*
X12694D02*
X12654D01*
X12458D02*
X12406D01*
X12399D01*
X12374D02*
X12367D01*
X12332D01*
X13481Y7392D02*
X13603D01*
X13442D02*
X13284D01*
X13245D02*
X12969D01*
X12891D02*
X12733D01*
X12694D02*
X12654D01*
X12458D02*
X12406D01*
X12367D02*
X12332D01*
X13481Y7387D02*
X13603D01*
X13442D02*
X13284D01*
X13245D02*
X12969D01*
X12891D02*
X12733D01*
X12694D02*
X12654D01*
X12458D02*
X12406D01*
X12367D02*
X12332D01*
X13481Y7382D02*
X13603D01*
X13481D02*
X13472D01*
X13451D02*
X13442D01*
X13284D01*
X13245D02*
X12969D01*
X12960D01*
X12939D02*
X12930D01*
X12930D02*
X12921D01*
X12900D02*
X12891D01*
X12733D01*
X12724D01*
X12703D02*
X12694D01*
X12654D01*
X12646D01*
X12624D02*
X12616D01*
X12615D02*
X12606D01*
X12585D02*
X12576D01*
X12575D02*
X12567D01*
X12545D02*
X12537D01*
X12536D02*
X12527D01*
X12506D02*
X12497D01*
X12497D02*
X12488D01*
X12467D02*
X12458D01*
X12406D01*
X12367D02*
X12332D01*
X13560Y7377D02*
X13603D01*
X13528D02*
X13521D01*
X13245D01*
X13173D02*
X13167D01*
X13166D02*
X13159D01*
X13134D02*
X13127D01*
X13127D02*
X13120D01*
X13094D02*
X13088D01*
X13087D02*
X13081D01*
X13055D02*
X13049D01*
X13048D02*
X13041D01*
X13016D02*
X13009D01*
X12969D01*
X12963D01*
X12937D02*
X12930D01*
X12930D02*
X12923D01*
X12898D02*
X12891D01*
X12890D02*
X12884D01*
X12858D02*
X12852D01*
X12851D02*
X12844D01*
X12819D02*
X12812D01*
X12812D02*
X12805D01*
X12779D02*
X12773D01*
X12772D02*
X12766D01*
X12740D02*
X12734D01*
X12733D02*
X12726D01*
X12701D02*
X12694D01*
X12693D02*
X12687D01*
X12661D02*
X12655D01*
X12654D02*
X12648D01*
X12622D02*
X12616D01*
X12615D02*
X12608D01*
X12583D02*
X12576D01*
X12575D02*
X12569D01*
X12543D02*
X12537D01*
X12536D02*
X12530D01*
X12504D02*
X12497D01*
X12497D02*
X12490D01*
X12465D02*
X12458D01*
X12406D01*
X12367D02*
X12332D01*
X13560Y7372D02*
X13603D01*
X13521D02*
X13245D01*
X13009D02*
X12969D01*
X12458D02*
X12406D01*
X12367D02*
X12332D01*
X13560Y7367D02*
X13603D01*
X13521D02*
X13245D01*
X13009D02*
X12969D01*
X12458D02*
X12406D01*
X12367D02*
X12332D01*
X13560Y7362D02*
X13603D01*
X13521D02*
X13245D01*
X13009D02*
X12969D01*
X12458D02*
X12406D01*
X12397D01*
X12376D02*
X12367D01*
X12332D01*
X13560Y7357D02*
X13603D01*
X13521D02*
X13245D01*
X13009D02*
X12969D01*
X12458D02*
X12332D01*
X13560Y7352D02*
X13603D01*
X13521D02*
X13245D01*
X13009D02*
X12969D01*
X12458D02*
X12332D01*
X13560Y7347D02*
X13603D01*
X13521D02*
X13245D01*
X13009D02*
X12969D01*
X12458D02*
X12332D01*
X13550Y7342D02*
X13603D01*
X13530D02*
X13235D01*
X13176D02*
X13157D01*
X13137D02*
X13117D01*
X13097D02*
X13078D01*
X13058D02*
X13039D01*
X13018D02*
X12960D01*
X12940D02*
X12920D01*
X12900D02*
X12881D01*
X12861D02*
X12842D01*
X12822D02*
X12802D01*
X12782D02*
X12763D01*
X12743D02*
X12724D01*
X12703D02*
X12684D01*
X12664D02*
X12645D01*
X12625D02*
X12606D01*
X12585D02*
X12566D01*
X12546D02*
X12527D01*
X12507D02*
X12487D01*
X12467D02*
X12332D01*
X13560Y7337D02*
X13603D01*
X13521D02*
X13245D01*
X13206D02*
X12772D01*
X12734D02*
X12654D01*
X12458D02*
X12332D01*
X13560Y7332D02*
X13603D01*
X13521D02*
X13245D01*
X13206D02*
X12772D01*
X12734D02*
X12654D01*
X12458D02*
X12332D01*
X13560Y7327D02*
X13603D01*
X13521D02*
X13245D01*
X13206D02*
X12772D01*
X12734D02*
X12654D01*
X12458D02*
X12332D01*
X13560Y7322D02*
X13603D01*
X13521D02*
X13245D01*
X13206D02*
X12772D01*
X12734D02*
X12654D01*
X12458D02*
X12332D01*
X13560Y7317D02*
X13603D01*
X13521D02*
X13245D01*
X13206D02*
X12772D01*
X12734D02*
X12654D01*
X12458D02*
X12332D01*
X13560Y7312D02*
X13603D01*
X13521D02*
X13245D01*
X13206D02*
X12772D01*
X12734D02*
X12654D01*
X12458D02*
X12332D01*
X13560Y7307D02*
X13603D01*
X13521D02*
X13245D01*
X13206D02*
X12772D01*
X12734D02*
X12654D01*
X12458D02*
X12332D01*
Y7302D02*
X13603D01*
Y7297D02*
X13560D01*
X13521D02*
X13245D01*
X13206D02*
X13166D01*
X12812D02*
X12772D01*
X12734D02*
X12654D01*
X12497D02*
X12332D01*
X13560Y7292D02*
X13603D01*
X13521D02*
X13245D01*
X13206D02*
X13166D01*
X12812D02*
X12772D01*
X12734D02*
X12654D01*
X12497D02*
X12332D01*
X13560Y7287D02*
X13603D01*
X13521D02*
X13245D01*
X13206D02*
X13166D01*
X12812D02*
X12772D01*
X12734D02*
X12654D01*
X12497D02*
X12332D01*
X13560Y7282D02*
X13603D01*
X13521D02*
X13245D01*
X13206D02*
X13166D01*
X12812D02*
X12772D01*
X12734D02*
X12654D01*
X12497D02*
X12332D01*
X13560Y7277D02*
X13603D01*
X13521D02*
X13245D01*
X13206D02*
X13166D01*
X12812D02*
X12772D01*
X12734D02*
X12654D01*
X12497D02*
X12332D01*
X13560Y7272D02*
X13603D01*
X13521D02*
X13245D01*
X13206D02*
X13166D01*
X12812D02*
X12772D01*
X12734D02*
X12654D01*
X12497D02*
X12332D01*
X13560Y7267D02*
X13603D01*
X13521D02*
X13245D01*
X13206D02*
X13166D01*
X12812D02*
X12772D01*
X12734D02*
X12654D01*
X12497D02*
X12332D01*
X13532Y7341D02*
X13550D01*
Y7302D02*
X13532D01*
Y7380D02*
X13550D01*
Y7342D02*
X13532D01*
Y7301D02*
X13550D01*
X13532Y7407D02*
X13639D01*
Y7402D02*
X13532D01*
Y7397D02*
X13639D01*
Y7392D02*
X13532D01*
Y7387D02*
X13639D01*
Y7382D02*
X13532D01*
X13560Y7377D02*
X13639D01*
Y7372D02*
X13560D01*
Y7367D02*
X13639D01*
Y7362D02*
X13560D01*
Y7357D02*
X13639D01*
Y7352D02*
X13560D01*
Y7347D02*
X13639D01*
Y7342D02*
X13550D01*
X13560Y7337D02*
X13639D01*
Y7332D02*
X13560D01*
Y7327D02*
X13639D01*
Y7322D02*
X13560D01*
Y7317D02*
X13639D01*
Y7312D02*
X13560D01*
Y7307D02*
X13639D01*
Y7302D02*
X13532D01*
X13560Y7297D02*
X13639D01*
Y7292D02*
X13560D01*
Y7287D02*
X13639D01*
Y7282D02*
X13560D01*
Y7277D02*
X13639D01*
Y7272D02*
X13560D01*
Y7267D02*
X13639D01*
X12487Y7420D02*
X12468D01*
X12373Y7420D02*
X12354D01*
X12507Y7420D02*
X12526D01*
X12665Y7420D02*
X12684D01*
X12526D02*
X12507D01*
X12546D02*
X12566D01*
X12566Y7420D02*
X12546D01*
X12586Y7420D02*
X12605D01*
X12625D02*
X12644D01*
X12605Y7420D02*
X12586D01*
X12704D02*
X12723D01*
Y7420D02*
X12704D01*
X13255Y7420D02*
X13274D01*
X13274Y7420D02*
X13255D01*
X13452Y7420D02*
X13471D01*
X13314Y7420D02*
X13294D01*
X13323Y7442D02*
X13603D01*
X13245D02*
X12969D01*
X12891D02*
X12733D01*
X12655D02*
X12615D01*
X12497D02*
X12382D01*
X12344D02*
X12332D01*
X13323Y7437D02*
X13603D01*
X13245D02*
X12969D01*
X12891D02*
X12733D01*
X12655D02*
X12615D01*
X12497D02*
X12382D01*
X12344D02*
X12332D01*
X13323Y7432D02*
X13603D01*
X13245D02*
X12969D01*
X12891D02*
X12733D01*
X12655D02*
X12615D01*
X12497D02*
X12382D01*
X12344D02*
X12332D01*
X13323Y7427D02*
X13603D01*
X13245D02*
X12969D01*
X12891D02*
X12733D01*
X12655D02*
X12615D01*
X12497D02*
X12382D01*
X12344D02*
X12332D01*
X13323Y7422D02*
X13603D01*
X13323D02*
X13315D01*
X13293D02*
X13285D01*
X13284D02*
X13276D01*
X13253D02*
X13245D01*
X12969D01*
X12961D01*
X12938D02*
X12930D01*
X12930D02*
X12922D01*
X12899D02*
X12891D01*
X12733D01*
X12725D01*
X12702D02*
X12694D01*
X12693D02*
X12686D01*
X12663D02*
X12655D01*
X12615D01*
X12607D01*
X12584D02*
X12576D01*
X12575D02*
X12567D01*
X12545D02*
X12537D01*
X12536D02*
X12528D01*
X12505D02*
X12497D01*
X12382D01*
X12375D01*
X12352D02*
X12344D01*
X12332D01*
X13481Y7417D02*
X13603D01*
X13481D02*
X13474D01*
X13449D02*
X13442D01*
X13284D01*
X13277D01*
X13253D02*
X13245D01*
X12969D01*
X12962D01*
X12938D02*
X12930D01*
X12930D02*
X12923D01*
X12898D02*
X12891D01*
X12733D01*
X12726D01*
X12701D02*
X12694D01*
X12654D01*
X12647D01*
X12623D02*
X12616D01*
X12615D02*
X12608D01*
X12583D02*
X12576D01*
X12575D02*
X12568D01*
X12544D02*
X12537D01*
X12536D02*
X12529D01*
X12505D02*
X12497D01*
X12497D02*
X12490D01*
X12465D02*
X12458D01*
X12332D01*
X13481Y7412D02*
X13603D01*
X13442D02*
X13284D01*
X13245D02*
X12969D01*
X12891D02*
X12733D01*
X12694D02*
X12654D01*
X12458D02*
X12332D01*
X13532Y7442D02*
X13639D01*
Y7437D02*
X13532D01*
Y7432D02*
X13639D01*
Y7427D02*
X13532D01*
Y7422D02*
X13639D01*
Y7417D02*
X13532D01*
Y7412D02*
X13639D01*
X12487Y7616D02*
X12468D01*
Y7578D02*
X12487D01*
X12586Y7577D02*
X12605D01*
Y7538D02*
X12586D01*
X12526Y7617D02*
X12507D01*
X12546Y7616D02*
X12566D01*
Y7578D02*
X12546D01*
Y7617D02*
X12566D01*
X12605Y7616D02*
X12605D01*
X12605D02*
X12586D01*
X12586D01*
X12605Y7578D02*
X12605D01*
X12605D02*
X12586D01*
X12586D01*
X12644Y7616D02*
X12644D01*
X12644D02*
X12625D01*
X12625D01*
X12644Y7578D02*
X12644D01*
X12644D02*
X12625D01*
X12625D01*
Y7538D02*
X12644D01*
Y7499D02*
X12625D01*
Y7577D02*
X12644D01*
Y7538D02*
X12625D01*
X12665Y7617D02*
X12684D01*
Y7616D02*
X12665D01*
Y7578D02*
X12684D01*
X12704Y7498D02*
X12723D01*
Y7460D02*
X12704D01*
X12861Y7617D02*
X12881D01*
Y7616D02*
X12861D01*
Y7578D02*
X12881D01*
X12841Y7616D02*
X12841D01*
X12822D01*
X12822D01*
X12841Y7578D02*
X12841D01*
X12841D02*
X12822D01*
X12822D01*
X12802Y7616D02*
X12802D01*
X12783D01*
X12783D01*
X12802Y7578D02*
X12802D01*
X12802D02*
X12783D01*
X12783D01*
X12822Y7498D02*
X12841D01*
Y7460D02*
X12822D01*
X12940Y7498D02*
X12959D01*
Y7460D02*
X12940D01*
X12920Y7459D02*
X12901D01*
Y7498D02*
X12920D01*
Y7460D02*
X12901D01*
X12959Y7538D02*
X12959D01*
X12959D02*
X12940D01*
X12940D01*
X12959Y7499D02*
X12959D01*
X12959D02*
X12940D01*
X12940D01*
X12920Y7577D02*
X12920D01*
X12901D01*
X12901D01*
X12920Y7538D02*
X12920D01*
X12920D02*
X12901D01*
X12901D01*
X12940Y7616D02*
X12959D01*
Y7578D02*
X12940D01*
X12920Y7616D02*
X12901D01*
Y7578D02*
X12920D01*
X12940Y7617D02*
X12959D01*
X12920D02*
X12901D01*
X12940Y7459D02*
X12959D01*
X13554Y7542D02*
X13560D01*
X13603Y7457D02*
X13323D01*
X13316D01*
X13293D02*
X13285D01*
X13284D02*
X13276D01*
X13253D02*
X13245D01*
X12969D01*
X12961D01*
X12938D02*
X12930D01*
X12930D02*
X12922D01*
X12899D02*
X12891D01*
X12733D01*
X12725D01*
X12702D02*
X12694D01*
X12693D02*
X12686D01*
X12663D02*
X12655D01*
X12615D01*
X12607D01*
X12584D02*
X12576D01*
X12575D02*
X12568D01*
X12545D02*
X12537D01*
X12536D02*
X12528D01*
X12505D02*
X12497D01*
X12382D01*
X12375D01*
X12352D02*
X12344D01*
X12332D01*
X13323Y7452D02*
X13603D01*
X13245D02*
X12969D01*
X12891D02*
X12733D01*
X12655D02*
X12615D01*
X12497D02*
X12382D01*
X12344D02*
X12332D01*
X13323Y7447D02*
X13603D01*
X13245D02*
X12969D01*
X12891D02*
X12733D01*
X12655D02*
X12615D01*
X12497D02*
X12382D01*
X12344D02*
X12332D01*
X13532Y7457D02*
X13639D01*
Y7452D02*
X13532D01*
Y7447D02*
X13639D01*
X12487Y7498D02*
X12468D01*
Y7460D02*
X12487D01*
X12487Y7577D02*
X12468D01*
X12487Y7538D02*
X12487D01*
X12487D02*
X12468D01*
X12468D01*
X12487Y7577D02*
X12487D01*
X12487D02*
X12468D01*
X12468D01*
X12468Y7538D02*
X12487D01*
X12373Y7459D02*
X12354D01*
X12622Y7578D02*
X12625D01*
X12665Y7577D02*
X12684D01*
Y7538D02*
X12684D01*
X12684D02*
X12665D01*
X12665D01*
X12665Y7538D02*
X12684D01*
Y7499D02*
X12684D01*
X12684D02*
X12665D01*
X12665D01*
X12586Y7578D02*
X12583D01*
X12526Y7578D02*
X12507D01*
X12546Y7577D02*
X12566D01*
Y7538D02*
X12546D01*
X12586Y7538D02*
X12605D01*
Y7499D02*
X12586D01*
X12684Y7538D02*
X12684D01*
X12684D02*
X12665D01*
X12665D01*
X12665Y7499D02*
X12684D01*
Y7459D02*
X12665D01*
X12605Y7498D02*
X12586D01*
Y7460D02*
X12605D01*
X12526Y7459D02*
X12507D01*
X12507Y7498D02*
X12526D01*
Y7460D02*
X12507D01*
X12546Y7538D02*
X12566D01*
Y7499D02*
X12566D01*
X12566D02*
X12546D01*
X12546D01*
X12526Y7577D02*
X12507D01*
X12526Y7538D02*
X12526D01*
X12526D02*
X12507D01*
X12507D01*
X12566Y7538D02*
X12566D01*
X12566D02*
X12546D01*
X12546D01*
X12546Y7499D02*
X12566D01*
X12526Y7577D02*
X12526D01*
X12507D01*
X12507D01*
X12507Y7538D02*
X12526D01*
X12583Y7578D02*
X12586D01*
X12622D02*
X12625D01*
X12684Y7577D02*
X12684D01*
X12684D02*
X12665D01*
X12665D01*
X12665Y7538D02*
X12684D01*
X12566Y7459D02*
X12546D01*
X12586D02*
X12605D01*
X12819Y7578D02*
X12822D01*
X12783D02*
X12780D01*
X12783Y7498D02*
X12802D01*
Y7460D02*
X12783D01*
X12723Y7538D02*
X12704D01*
X12723Y7499D02*
X12723D01*
X12723D02*
X12704D01*
X12704D01*
X12743Y7577D02*
X12763D01*
Y7538D02*
X12743D01*
X12723Y7538D02*
X12723D01*
X12704D01*
X12704D01*
X12704Y7499D02*
X12723D01*
X12861Y7577D02*
X12881D01*
Y7538D02*
X12861D01*
Y7538D02*
X12881D01*
Y7499D02*
X12861D01*
X12841Y7577D02*
X12822D01*
Y7538D02*
X12841D01*
Y7538D02*
X12822D01*
Y7499D02*
X12841D01*
X12802Y7577D02*
X12783D01*
Y7538D02*
X12802D01*
X12763Y7578D02*
X12743D01*
X12723D02*
X12704D01*
X12743Y7538D02*
X12763D01*
Y7499D02*
X12743D01*
X12723Y7577D02*
X12704D01*
Y7538D02*
X12723D01*
X12743Y7498D02*
X12763D01*
Y7460D02*
X12743D01*
X12723Y7459D02*
X12704D01*
X12819Y7578D02*
X12822D01*
X12783D02*
X12780D01*
X12901Y7538D02*
X12920D01*
Y7499D02*
X12901D01*
X12940Y7577D02*
X12959D01*
Y7538D02*
X12959D01*
X12959D02*
X12940D01*
X12940D01*
Y7538D02*
X12937D01*
Y7499D02*
X12940D01*
X12901Y7577D02*
X12898D01*
Y7538D02*
X12901D01*
X12937Y7538D02*
X12940D01*
Y7499D02*
X12937D01*
X12959Y7577D02*
X12959D01*
X12959D02*
X12940D01*
X12940D01*
X12940Y7538D02*
X12959D01*
X12901Y7577D02*
X12898D01*
Y7538D02*
X12901D01*
X13058Y7498D02*
X13078D01*
Y7460D02*
X13058D01*
X13137Y7498D02*
X13156D01*
Y7460D02*
X13137D01*
X13255Y7459D02*
X13274D01*
X13413Y7577D02*
X13432D01*
Y7538D02*
X13413D01*
X13392Y7538D02*
X13373D01*
Y7499D02*
X13392D01*
X13452Y7578D02*
X13471D01*
Y7498D02*
X13452D01*
Y7460D02*
X13471D01*
X13353Y7538D02*
X13334D01*
Y7499D02*
X13353D01*
X13314Y7459D02*
X13294D01*
X13531Y7578D02*
X13550D01*
Y7577D02*
X13531D01*
Y7538D02*
X13550D01*
X13511Y7538D02*
X13491D01*
Y7499D02*
X13511D01*
X13511Y7498D02*
X13491D01*
Y7460D02*
X13511D01*
X13560Y7602D02*
X13603D01*
X13521D02*
X13481D01*
X13442D02*
X12969D01*
X12458D02*
X12332D01*
X13560Y7597D02*
X13603D01*
X13521D02*
X13481D01*
X13442D02*
X12969D01*
X12458D02*
X12332D01*
X13560Y7592D02*
X13603D01*
X13521D02*
X13481D01*
X13442D02*
X12969D01*
X12458D02*
X12332D01*
X13560Y7587D02*
X13603D01*
X13521D02*
X13481D01*
X13442D02*
X12969D01*
X12458D02*
X12332D01*
X13560Y7582D02*
X13603D01*
X13521D02*
X13481D01*
X13442D02*
X12969D01*
X12458D02*
X12332D01*
X13550Y7577D02*
X13603D01*
X13531D02*
X13432D01*
X13413D02*
X12959D01*
X12940D02*
X12920D01*
X12901D02*
X12881D01*
X12861D02*
X12841D01*
X12822D02*
X12802D01*
X12783D02*
X12763D01*
X12743D02*
X12723D01*
X12704D02*
X12684D01*
X12665D02*
X12644D01*
X12625D02*
X12605D01*
X12586D02*
X12566D01*
X12546D02*
X12526D01*
X12507D02*
X12487D01*
X12468D02*
X12332D01*
X13560Y7572D02*
X13603D01*
X13521D02*
X13442D01*
X13403D02*
X12969D01*
X12458D02*
X12332D01*
X13560Y7567D02*
X13603D01*
X13521D02*
X13442D01*
X13403D02*
X12969D01*
X12458D02*
X12332D01*
X13560Y7562D02*
X13603D01*
X13521D02*
X13442D01*
X13403D02*
X12969D01*
X12458D02*
X12332D01*
X13560Y7557D02*
X13603D01*
X13521D02*
X13442D01*
X13403D02*
X12969D01*
X12458D02*
X12332D01*
X13560Y7552D02*
X13603D01*
X13521D02*
X13442D01*
X13403D02*
X12969D01*
X12458D02*
X12332D01*
X13560Y7547D02*
X13603D01*
X13521D02*
X13442D01*
X13403D02*
X12969D01*
X12458D02*
X12332D01*
X13560Y7542D02*
X13603D01*
X13527D02*
X13521D01*
X13442D01*
X13435D01*
X13409D02*
X13403D01*
X12969D01*
X12963D01*
X12937D02*
X12930D01*
X12930D02*
X12924D01*
X12897D02*
X12891D01*
X12890D02*
X12884D01*
X12858D02*
X12852D01*
X12851D02*
X12845D01*
X12818D02*
X12812D01*
X12812D02*
X12806D01*
X12779D02*
X12773D01*
X12772D02*
X12766D01*
X12740D02*
X12734D01*
X12733D02*
X12727D01*
X12700D02*
X12694D01*
X12693D02*
X12687D01*
X12661D02*
X12655D01*
X12654D02*
X12648D01*
X12622D02*
X12616D01*
X12615D02*
X12609D01*
X12582D02*
X12576D01*
X12575D02*
X12569D01*
X12543D02*
X12537D01*
X12536D02*
X12530D01*
X12503D02*
X12497D01*
X12497D02*
X12491D01*
X12464D02*
X12458D01*
X12332D01*
X13511Y7537D02*
X13603D01*
X13491D02*
X13393D01*
X13373D02*
X13354D01*
X13333D02*
X12960D01*
X12939D02*
X12921D01*
X12900D02*
X12881D01*
X12861D02*
X12842D01*
X12821D02*
X12763D01*
X12743D02*
X12724D01*
X12703D02*
X12684D01*
X12664D02*
X12645D01*
X12625D02*
X12606D01*
X12585D02*
X12566D01*
X12546D02*
X12332D01*
X13520Y7532D02*
X13603D01*
X13482D02*
X13402D01*
X13324D02*
X12969D01*
X12812D02*
X12772D01*
X12537D02*
X12332D01*
X13520Y7527D02*
X13603D01*
X13482D02*
X13402D01*
X13324D02*
X12969D01*
X12812D02*
X12772D01*
X12537D02*
X12332D01*
X13520Y7522D02*
X13603D01*
X13482D02*
X13402D01*
X13324D02*
X12969D01*
X12812D02*
X12772D01*
X12537D02*
X12332D01*
X13520Y7517D02*
X13603D01*
X13482D02*
X13402D01*
X13324D02*
X12969D01*
X12812D02*
X12772D01*
X12537D02*
X12332D01*
X13520Y7512D02*
X13603D01*
X13482D02*
X13402D01*
X13324D02*
X12969D01*
X12812D02*
X12772D01*
X12537D02*
X12332D01*
X13520Y7507D02*
X13603D01*
X13482D02*
X13402D01*
X13324D02*
X12969D01*
X12812D02*
X12772D01*
X12537D02*
X12332D01*
X13520Y7502D02*
X13603D01*
X13520D02*
X13514D01*
X13488D02*
X13482D01*
X13402D01*
X13395D01*
X13370D02*
X13364D01*
X13363D02*
X13356D01*
X13331D02*
X13324D01*
X12969D01*
X12969D02*
X12962D01*
X12937D02*
X12930D01*
X12930D02*
X12923D01*
X12898D02*
X12891D01*
X12890D02*
X12884D01*
X12858D02*
X12852D01*
X12851D02*
X12844D01*
X12819D02*
X12812D01*
X12772D01*
X12766D01*
X12740D02*
X12734D01*
X12733D02*
X12726D01*
X12701D02*
X12694D01*
X12693D02*
X12687D01*
X12662D02*
X12655D01*
X12654D02*
X12647D01*
X12622D02*
X12616D01*
X12615D02*
X12608D01*
X12583D02*
X12576D01*
X12575D02*
X12569D01*
X12543D02*
X12537D01*
X12332D01*
X13520Y7497D02*
X13603D01*
X13520D02*
X13512D01*
X13490D02*
X13482D01*
X13481D02*
X13473D01*
X13451D02*
X13442D01*
X13166D01*
X13158D01*
X13136D02*
X13127D01*
X13087D01*
X13079D01*
X13057D02*
X13049D01*
X12969D01*
X12961D01*
X12939D02*
X12930D01*
X12930D02*
X12921D01*
X12899D02*
X12891D01*
X12851D01*
X12843D01*
X12821D02*
X12812D01*
X12812D02*
X12803D01*
X12781D02*
X12773D01*
X12772D02*
X12764D01*
X12742D02*
X12734D01*
X12733D02*
X12724D01*
X12703D02*
X12694D01*
X12615D01*
X12606D01*
X12585D02*
X12576D01*
X12536D01*
X12528D01*
X12506D02*
X12497D01*
X12497D02*
X12488D01*
X12466D02*
X12458D01*
X12332D01*
X13520Y7492D02*
X13603D01*
X13442D02*
X13166D01*
X13127D02*
X13087D01*
X13049D02*
X12969D01*
X12891D02*
X12851D01*
X12694D02*
X12615D01*
X12576D02*
X12536D01*
X12458D02*
X12332D01*
X13520Y7487D02*
X13603D01*
X13442D02*
X13166D01*
X13127D02*
X13087D01*
X13049D02*
X12969D01*
X12891D02*
X12851D01*
X12694D02*
X12615D01*
X12576D02*
X12536D01*
X12458D02*
X12332D01*
X13520Y7482D02*
X13603D01*
X13442D02*
X13166D01*
X13127D02*
X13087D01*
X13049D02*
X12969D01*
X12891D02*
X12851D01*
X12694D02*
X12615D01*
X12576D02*
X12536D01*
X12458D02*
X12332D01*
X13520Y7477D02*
X13603D01*
X13442D02*
X13166D01*
X13127D02*
X13087D01*
X13049D02*
X12969D01*
X12891D02*
X12851D01*
X12694D02*
X12615D01*
X12576D02*
X12536D01*
X12458D02*
X12332D01*
X13520Y7472D02*
X13603D01*
X13442D02*
X13166D01*
X13127D02*
X13087D01*
X13049D02*
X12969D01*
X12891D02*
X12851D01*
X12694D02*
X12615D01*
X12576D02*
X12536D01*
X12458D02*
X12332D01*
X13520Y7467D02*
X13603D01*
X13442D02*
X13166D01*
X13127D02*
X13087D01*
X13049D02*
X12969D01*
X12891D02*
X12851D01*
X12694D02*
X12615D01*
X12576D02*
X12536D01*
X12458D02*
X12332D01*
X13520Y7462D02*
X13603D01*
X13520D02*
X13513D01*
X13489D02*
X13482D01*
X13481D02*
X13474D01*
X13450D02*
X13442D01*
X13166D01*
X13159D01*
X13135D02*
X13127D01*
X13087D01*
X13080D01*
X13056D02*
X13049D01*
X12969D01*
X12962D01*
X12938D02*
X12930D01*
X12930D02*
X12922D01*
X12898D02*
X12891D01*
X12851D01*
X12844D01*
X12820D02*
X12812D01*
X12812D02*
X12804D01*
X12780D02*
X12773D01*
X12772D02*
X12765D01*
X12741D02*
X12734D01*
X12733D02*
X12726D01*
X12702D02*
X12694D01*
X12615D01*
X12607D01*
X12583D02*
X12576D01*
X12536D01*
X12529D01*
X12505D02*
X12497D01*
X12497D02*
X12489D01*
X12465D02*
X12458D01*
X12332D01*
X13532Y7578D02*
X13550D01*
Y7577D02*
X13532D01*
Y7538D02*
X13550D01*
X13560Y7602D02*
X13639D01*
Y7597D02*
X13560D01*
Y7592D02*
X13639D01*
Y7587D02*
X13560D01*
Y7582D02*
X13639D01*
Y7577D02*
X13550D01*
X13532D01*
X13560Y7572D02*
X13639D01*
Y7567D02*
X13560D01*
Y7562D02*
X13639D01*
Y7557D02*
X13560D01*
Y7552D02*
X13639D01*
Y7547D02*
X13560D01*
Y7542D02*
X13639D01*
Y7537D02*
X13532D01*
Y7532D02*
X13639D01*
Y7527D02*
X13532D01*
Y7522D02*
X13639D01*
Y7517D02*
X13532D01*
Y7512D02*
X13639D01*
Y7507D02*
X13532D01*
Y7502D02*
X13639D01*
Y7497D02*
X13532D01*
Y7492D02*
X13639D01*
Y7487D02*
X13532D01*
Y7482D02*
X13639D01*
Y7477D02*
X13532D01*
Y7472D02*
X13639D01*
Y7467D02*
X13532D01*
Y7462D02*
X13639D01*
X12487Y7617D02*
X12468D01*
X12622Y7616D02*
X12625D01*
X12586D02*
X12583D01*
X12526Y7616D02*
X12507D01*
X12625Y7617D02*
X12644D01*
X12586Y7616D02*
X12583D01*
X12622D02*
X12625D01*
X12605Y7617D02*
X12586D01*
X12819Y7616D02*
X12822D01*
X12783D02*
X12780D01*
X12783Y7617D02*
X12802D01*
X12763Y7617D02*
X12743D01*
Y7616D02*
X12763D01*
X12723D02*
X12704D01*
X12822Y7617D02*
X12841D01*
X12822Y7616D02*
X12819D01*
X12783D02*
X12780D01*
X12763Y7617D02*
X12763D01*
X12743D01*
X12743D01*
X12723Y7617D02*
X12704D01*
X13176Y7617D02*
X13196D01*
X13452Y7616D02*
X13471D01*
X13491Y7617D02*
X13511D01*
X13531Y7616D02*
X13550D01*
X13520Y7637D02*
X13603D01*
X13482D02*
X13205D01*
X13167D02*
X12969D01*
X12458D02*
X12332D01*
X13520Y7632D02*
X13603D01*
X13482D02*
X13205D01*
X13167D02*
X12969D01*
X12458D02*
X12332D01*
X13520Y7627D02*
X13603D01*
X13482D02*
X13205D01*
X13167D02*
X12969D01*
X12458D02*
X12332D01*
X13520Y7622D02*
X13603D01*
X13482D02*
X13205D01*
X13167D02*
X12969D01*
X12458D02*
X12332D01*
Y7617D02*
X13603D01*
Y7612D02*
X13560D01*
X13521D02*
X13481D01*
X13442D02*
X12969D01*
X12458D02*
X12332D01*
X13560Y7607D02*
X13603D01*
X13521D02*
X13481D01*
X13442D02*
X12969D01*
X12458D02*
X12332D01*
X13532Y7616D02*
X13550D01*
X13532Y7637D02*
X13639D01*
Y7632D02*
X13532D01*
Y7627D02*
X13639D01*
Y7622D02*
X13532D01*
Y7617D02*
X13639D01*
Y7612D02*
X13560D01*
Y7607D02*
X13639D01*
X12526Y7656D02*
X12507D01*
X12546D02*
X12566D01*
X12665D02*
X12684D01*
X12861D02*
X12881D01*
X12940D02*
X12959D01*
X12920D02*
X12901D01*
X13520Y7652D02*
X13603D01*
X13482D02*
X13205D01*
X13167D02*
X12969D01*
X12458D02*
X12332D01*
X13520Y7647D02*
X13603D01*
X13482D02*
X13205D01*
X13167D02*
X12969D01*
X12458D02*
X12332D01*
X13520Y7642D02*
X13603D01*
X13482D02*
X13205D01*
X13167D02*
X12969D01*
X12458D02*
X12332D01*
X13532Y7652D02*
X13639D01*
Y7647D02*
X13532D01*
Y7642D02*
X13639D01*
X12459Y7693D02*
X12458D01*
X12457D01*
X12450D01*
X12426D02*
X12425D01*
X12428Y7657D02*
X12448D01*
X12468Y7656D02*
X12487D01*
X12487Y7695D02*
X12468D01*
Y7657D02*
X12487D01*
X12625Y7656D02*
X12644D01*
X12605Y7695D02*
X12586D01*
Y7657D02*
X12605D01*
Y7656D02*
X12586D01*
X12704Y7695D02*
X12723D01*
Y7657D02*
X12704D01*
X12783Y7656D02*
X12802D01*
X12763Y7656D02*
X12763D01*
X12743D01*
X12743D01*
X12822D02*
X12841D01*
X12763Y7656D02*
X12743D01*
X12783Y7695D02*
X12802D01*
Y7657D02*
X12783D01*
X12842Y7704D02*
X12861D01*
X12723Y7656D02*
X12704D01*
X13176Y7656D02*
X13196D01*
X13294Y7695D02*
X13314D01*
Y7657D02*
X13294D01*
X13334Y7695D02*
X13353D01*
Y7657D02*
X13334D01*
X13373Y7695D02*
X13392D01*
Y7657D02*
X13373D01*
X13413Y7695D02*
X13432D01*
Y7657D02*
X13413D01*
X13452Y7695D02*
X13471D01*
Y7657D02*
X13452D01*
X13491Y7656D02*
X13511D01*
X13572Y7707D02*
X12871D01*
X12864D01*
X12838D02*
X12832D01*
X12473D01*
X12411D02*
X12367D01*
X12468Y7702D02*
X13577D01*
X12416D02*
X12362D01*
X12463Y7697D02*
X13582D01*
X12421D02*
X12357D01*
X13481Y7692D02*
X13587D01*
X13481D02*
X13474D01*
X13449D02*
X13442D01*
X13442D02*
X13435D01*
X13409D02*
X13403D01*
X13402D02*
X13396D01*
X13370D02*
X13364D01*
X13363D02*
X13356D01*
X13331D02*
X13324D01*
X13323D02*
X13317D01*
X13291D02*
X13285D01*
X12812D01*
X12805D01*
X12780D02*
X12773D01*
X12733D01*
X12726D01*
X12701D02*
X12694D01*
X12615D01*
X12608D01*
X12583D02*
X12576D01*
X12497D01*
X12490D01*
X12465D02*
X12458D01*
X12457D02*
X12451D01*
X12425D02*
X12419D01*
X12352D01*
X13481Y7687D02*
X13592D01*
X13285D02*
X12812D01*
X12773D02*
X12733D01*
X12694D02*
X12615D01*
X12576D02*
X12497D01*
X12419D02*
X12347D01*
X13481Y7682D02*
X13597D01*
X13285D02*
X12812D01*
X12773D02*
X12733D01*
X12694D02*
X12615D01*
X12576D02*
X12497D01*
X12419D02*
X12342D01*
X13481Y7677D02*
X13602D01*
X13285D02*
X12812D01*
X12773D02*
X12733D01*
X12694D02*
X12615D01*
X12576D02*
X12497D01*
X12419D02*
X12337D01*
X13481Y7672D02*
X13603D01*
X13285D02*
X12812D01*
X12773D02*
X12733D01*
X12694D02*
X12615D01*
X12576D02*
X12497D01*
X12419D02*
X12332D01*
X13481Y7667D02*
X13603D01*
X13285D02*
X12812D01*
X12773D02*
X12733D01*
X12694D02*
X12615D01*
X12576D02*
X12497D01*
X12419D02*
X12332D01*
X13481Y7662D02*
X13603D01*
X13285D02*
X12812D01*
X12773D02*
X12733D01*
X12694D02*
X12615D01*
X12576D02*
X12497D01*
X12419D02*
X12332D01*
X13472Y7657D02*
X13603D01*
X13451D02*
X13432D01*
X13412D02*
X13393D01*
X13373D02*
X13354D01*
X13333D02*
X13314D01*
X13294D02*
X12802D01*
X12782D02*
X12724D01*
X12703D02*
X12606D01*
X12585D02*
X12487D01*
X12467D02*
X12448D01*
X12428D02*
X12332D01*
X13572Y7707D02*
X13611D01*
X13572D02*
X13532D01*
Y7707D02*
X13612D01*
X13617Y7702D02*
X13532D01*
Y7697D02*
X13622D01*
X13627Y7692D02*
X13532D01*
Y7687D02*
X13632D01*
X13637Y7682D02*
X13532D01*
Y7677D02*
X13639D01*
Y7672D02*
X13532D01*
Y7667D02*
X13639D01*
Y7662D02*
X13532D01*
Y7657D02*
X13639D01*
X11706Y7975D02*
X11686D01*
X11688Y7987D02*
X11707D01*
X11717Y7987D02*
X11674D01*
X11679Y7982D02*
X11713D01*
X11708Y7977D02*
X11684D01*
X12434Y7971D02*
X12450D01*
X12462Y7992D02*
X12422D01*
Y7987D02*
X12462D01*
X12461Y7982D02*
X12423D01*
X12428Y7977D02*
X12456D01*
X12451Y7972D02*
X12433D01*
X11707Y8026D02*
X11688D01*
X11674Y8032D02*
X11717D01*
Y8027D02*
X11674D01*
X12422Y8032D02*
X12462D01*
Y8027D02*
X12422D01*
Y8022D02*
X12462D01*
Y8017D02*
X12422D01*
Y8012D02*
X12462D01*
Y8007D02*
X12422D01*
Y8002D02*
X12462D01*
Y7997D02*
X12422D01*
X11717Y8042D02*
X11674D01*
Y8037D02*
X11717D01*
X12422Y8042D02*
X12462D01*
Y8037D02*
X12422D01*
X11707Y8144D02*
X11688D01*
Y8105D02*
X11707D01*
X11717Y8192D02*
X11674D01*
Y8187D02*
X11717D01*
Y8182D02*
X11678D01*
Y8177D02*
X11717D01*
Y8172D02*
X11678D01*
Y8167D02*
X11717D01*
Y8162D02*
X11678D01*
Y8157D02*
X11717D01*
Y8152D02*
X11678D01*
Y8147D02*
X11717D01*
X11717Y8142D02*
X11709D01*
X11686D02*
X11679D01*
X11709Y8107D02*
X11717D01*
X11686D02*
X11679D01*
X11674Y8102D02*
X11717D01*
Y8097D02*
X11674D01*
Y8092D02*
X11717D01*
Y8087D02*
X11674D01*
Y8082D02*
X11717D01*
Y8077D02*
X11674D01*
Y8072D02*
X11717D01*
Y8067D02*
X11674D01*
Y8062D02*
X11717D01*
Y8057D02*
X11674D01*
Y8052D02*
X11717D01*
Y8047D02*
X11674D01*
X12432Y8140D02*
X12452D01*
Y8101D02*
X12432D01*
X12422Y8192D02*
X12462D01*
Y8187D02*
X12422D01*
Y8182D02*
X12462D01*
Y8177D02*
X12422D01*
Y8172D02*
X12462D01*
Y8167D02*
X12422D01*
Y8162D02*
X12462D01*
Y8157D02*
X12422D01*
Y8152D02*
X12462D01*
Y8147D02*
X12422D01*
Y8142D02*
X12462D01*
X12461Y8137D02*
X12455D01*
X12429D02*
X12423D01*
X12452Y8102D02*
X12462D01*
X12432D02*
X12422D01*
Y8097D02*
X12462D01*
Y8092D02*
X12422D01*
Y8087D02*
X12462D01*
Y8082D02*
X12422D01*
Y8077D02*
X12462D01*
Y8072D02*
X12422D01*
Y8067D02*
X12462D01*
Y8062D02*
X12422D01*
Y8057D02*
X12462D01*
Y8052D02*
X12422D01*
Y8047D02*
X12462D01*
X11707Y8223D02*
X11688D01*
X11711Y8227D02*
X11717D01*
X11685D02*
X11679D01*
X11674Y8222D02*
X11717D01*
Y8217D02*
X11674D01*
Y8212D02*
X11717D01*
Y8207D02*
X11674D01*
Y8202D02*
X11717D01*
Y8197D02*
X11674D01*
X12432Y8220D02*
X12452D01*
X12454Y8222D02*
X12461D01*
X12430D02*
X12423D01*
X12422Y8217D02*
X12462D01*
Y8212D02*
X12422D01*
Y8207D02*
X12462D01*
Y8202D02*
X12422D01*
Y8197D02*
X12462D01*
X11707Y8262D02*
X11688D01*
X11685Y8387D02*
X11711D01*
X11716Y8382D02*
X11680D01*
X11675Y8377D02*
X11717D01*
Y8372D02*
X11674D01*
Y8367D02*
X11717D01*
Y8362D02*
X11674D01*
Y8357D02*
X11717D01*
Y8352D02*
X11674D01*
Y8347D02*
X11717D01*
Y8342D02*
X11674D01*
Y8337D02*
X11717D01*
Y8332D02*
X11674D01*
Y8327D02*
X11717D01*
Y8322D02*
X11674D01*
Y8317D02*
X11717D01*
Y8312D02*
X11674D01*
Y8307D02*
X11717D01*
Y8302D02*
X11674D01*
Y8297D02*
X11717D01*
Y8292D02*
X11674D01*
Y8287D02*
X11717D01*
Y8282D02*
X11674D01*
Y8277D02*
X11717D01*
Y8272D02*
X11674D01*
Y8267D02*
X11717D01*
Y8262D02*
X11708D01*
X11688D02*
X11674D01*
X12432Y8258D02*
X12452D01*
X12451Y8387D02*
X12429D01*
X12424Y8382D02*
X12456D01*
X12461Y8377D02*
X12422D01*
Y8372D02*
X12462D01*
Y8367D02*
X12422D01*
Y8362D02*
X12462D01*
Y8357D02*
X12422D01*
Y8352D02*
X12462D01*
Y8347D02*
X12422D01*
Y8342D02*
X12462D01*
Y8337D02*
X12422D01*
Y8332D02*
X12462D01*
Y8327D02*
X12422D01*
Y8322D02*
X12462D01*
Y8317D02*
X12422D01*
Y8312D02*
X12462D01*
Y8307D02*
X12422D01*
Y8302D02*
X12462D01*
Y8297D02*
X12422D01*
Y8292D02*
X12462D01*
Y8287D02*
X12422D01*
Y8282D02*
X12462D01*
Y8277D02*
X12422D01*
Y8272D02*
X12462D01*
Y8267D02*
X12422D01*
Y8262D02*
X12462D01*
X12461Y8257D02*
X12453D01*
X12431D02*
X12423D01*
X11706Y8392D02*
X11690D01*
X11690Y8392D02*
X11706D01*
X12430Y8388D02*
X12450D01*
X10485Y6361D02*
Y5841D01*
X10560Y5766D01*
X10536Y6412D02*
X10540Y6416D01*
X10536Y6412D02*
X10485Y6361D01*
X10658Y6284D02*
Y6265D01*
X10619D02*
Y6284D01*
X10710Y6075D02*
Y6056D01*
X10658Y6284D02*
X10648Y6294D01*
X10619Y6265D02*
X10629Y6255D01*
X10710Y6056D02*
X10720Y6046D01*
X10648Y6255D02*
X10658Y6265D01*
X10629Y6294D02*
X10619Y6284D01*
X10720Y6085D02*
X10710Y6075D01*
X10749D02*
Y6056D01*
X10925Y5843D02*
Y5824D01*
X10915Y5892D02*
Y5911D01*
X10906Y6056D02*
Y6075D01*
X10867D02*
Y6056D01*
X10839Y6265D02*
Y6284D01*
X10801D02*
Y6265D01*
X10739Y6085D02*
X10749Y6075D01*
X10925Y5824D02*
X10934Y5814D01*
X10924Y5882D02*
X10915Y5892D01*
X10906Y6075D02*
X10896Y6085D01*
X10867Y6056D02*
X10877Y6046D01*
X10839Y6284D02*
X10830Y6294D01*
X10801Y6265D02*
X10810Y6255D01*
X10749Y6056D02*
X10739Y6046D01*
X10934Y5853D02*
X10925Y5843D01*
X10915Y5911D02*
X10924Y5921D01*
X10896Y6046D02*
X10906Y6056D01*
X10877Y6085D02*
X10867Y6075D01*
X10830Y6255D02*
X10839Y6265D01*
X10810Y6294D02*
X10801Y6284D01*
X11040Y6301D02*
Y6389D01*
X11075Y6076D02*
Y6057D01*
X11037D02*
Y6076D01*
X10963Y5843D02*
Y5824D01*
X11067Y6178D02*
Y6197D01*
X11029D02*
Y6178D01*
X10953Y5911D02*
Y5892D01*
Y5911D02*
X10944Y5921D01*
X11075Y6076D02*
X11066Y6086D01*
X11037Y6057D02*
X11046Y6047D01*
X10954Y5853D02*
X10963Y5843D01*
X11067Y6197D02*
X11058Y6207D01*
X11029Y6178D02*
X11039Y6168D01*
X10953Y5892D02*
X10944Y5882D01*
X11066Y6047D02*
X11075Y6057D01*
X11046Y6086D02*
X11037Y6076D01*
X10963Y5824D02*
X10954Y5814D01*
X11058Y6168D02*
X11067Y6178D01*
X11039Y6207D02*
X11029Y6197D01*
X11127Y6301D02*
Y6389D01*
X11140Y6367D02*
Y6323D01*
X11227D02*
Y6367D01*
X11240D02*
Y6323D01*
X11162Y6301D02*
X11140Y6323D01*
X11206Y6389D02*
X11227Y6367D01*
X11306Y6389D02*
X11327Y6367D01*
X11262Y6301D02*
X11240Y6323D01*
X11162Y6389D02*
X11140Y6367D01*
X11206Y6301D02*
X11227Y6323D01*
X11306Y6301D02*
X11327Y6323D01*
X11262Y6389D02*
X11240Y6367D01*
X11327D02*
Y6323D01*
X11340D02*
Y6367D01*
X11427D02*
Y6323D01*
X11440D02*
Y6367D01*
X11505Y5996D02*
Y5977D01*
X11466D02*
Y5996D01*
X11362Y6301D02*
X11340Y6323D01*
X11406Y6389D02*
X11427Y6367D01*
X11506Y6389D02*
X11527Y6367D01*
X11462Y6301D02*
X11440Y6323D01*
X11495Y6006D02*
X11505Y5996D01*
X11476Y5968D02*
X11466Y5977D01*
X11340Y6367D02*
X11362Y6389D01*
X11427Y6323D02*
X11406Y6301D01*
X11506D02*
X11527Y6323D01*
X11462Y6389D02*
X11440Y6367D01*
X11505Y5977D02*
X11495Y5968D01*
X11466Y5996D02*
X11476Y6006D01*
X11527Y6323D02*
Y6367D01*
X11627D02*
Y6323D01*
X11540D02*
Y6367D01*
X11640D02*
Y6323D01*
X11690Y5906D02*
Y5887D01*
Y6001D02*
Y6020D01*
X11692Y5823D02*
Y5804D01*
X11682Y6056D02*
Y6075D01*
X11643D02*
Y6056D01*
X11629Y5911D02*
Y5892D01*
X11590D02*
Y5911D01*
X11629Y5943D02*
Y5962D01*
X11590D02*
Y5943D01*
X11674Y8183D02*
Y8377D01*
Y8183D02*
Y8177D01*
Y8151D02*
Y8145D01*
Y7987D01*
X11679Y7997D02*
Y8016D01*
X11679Y8115D02*
Y8134D01*
X11678Y8154D02*
Y8174D01*
X11679Y8233D02*
Y8252D01*
X11606Y6389D02*
X11627Y6367D01*
X11562Y6301D02*
X11540Y6323D01*
X11706Y6389D02*
X11727Y6367D01*
X11662Y6301D02*
X11640Y6323D01*
X11690Y5887D02*
X11700Y5877D01*
Y5991D02*
X11690Y6001D01*
X11692Y5804D02*
X11702Y5794D01*
X11682Y6075D02*
X11672Y6085D01*
X11643Y6056D02*
X11653Y6046D01*
X11619Y5921D02*
X11629Y5911D01*
X11600Y5882D02*
X11590Y5892D01*
X11629Y5962D02*
X11619Y5972D01*
X11590Y5943D02*
X11600Y5933D01*
X11717Y8381D02*
X11706Y8392D01*
X11674Y7987D02*
X11686Y7975D01*
X11688Y7987D02*
X11679Y7997D01*
X11707Y8026D02*
X11717Y8016D01*
X11688Y8105D02*
X11679Y8115D01*
X11707Y8144D02*
X11717Y8134D01*
X11678Y8174D02*
X11674Y8177D01*
X11688Y8223D02*
X11679Y8233D01*
X11707Y8262D02*
X11717Y8252D01*
X11627Y6323D02*
X11606Y6301D01*
X11540Y6367D02*
X11562Y6389D01*
X11706Y6301D02*
X11727Y6323D01*
X11662Y6389D02*
X11640Y6367D01*
X11700Y5916D02*
X11690Y5906D01*
Y6020D02*
X11700Y6030D01*
X11702Y5833D02*
X11692Y5823D01*
X11672Y6046D02*
X11682Y6056D01*
X11653Y6085D02*
X11643Y6075D01*
X11629Y5892D02*
X11619Y5882D01*
X11590Y5911D02*
X11600Y5921D01*
X11619Y5933D02*
X11629Y5943D01*
X11600Y5972D02*
X11590Y5962D01*
X11678Y8381D02*
X11690Y8392D01*
X11717Y7987D02*
X11706Y7975D01*
X11674Y8377D02*
X11678Y8381D01*
X11688Y8026D02*
X11679Y8016D01*
X11707Y7987D02*
X11717Y7997D01*
X11679Y8134D02*
X11688Y8144D01*
X11717Y8115D02*
X11707Y8105D01*
X11674Y8151D02*
X11678Y8154D01*
X11679Y8252D02*
X11688Y8262D01*
X11717Y8233D02*
X11707Y8223D01*
X11727Y6367D02*
Y6323D01*
X11729Y5906D02*
Y5887D01*
Y6001D02*
Y6020D01*
X11731Y5823D02*
Y5804D01*
X11717Y7987D02*
Y8381D01*
X11717Y8016D02*
Y7997D01*
X11717Y8115D02*
Y8134D01*
Y8233D02*
Y8252D01*
X11886Y5941D02*
Y5922D01*
X11848D02*
Y5928D01*
Y5935D01*
X11883Y6083D02*
Y6103D01*
X11879Y6146D02*
Y6166D01*
X11840D02*
Y6146D01*
X11851Y5951D02*
Y5945D01*
Y5951D02*
Y5957D01*
X11812D02*
Y5938D01*
X11851Y5859D02*
Y5839D01*
X11812D02*
Y5859D01*
X11842Y6099D02*
Y6119D01*
X11804D02*
Y6099D01*
X11879Y6375D02*
Y6392D01*
X11882Y6126D02*
Y6107D01*
X11844D02*
Y6126D01*
X11836Y6361D02*
Y6550D01*
X11879Y6394D02*
Y6375D01*
X11836Y6416D02*
Y6550D01*
X11832Y6554D01*
X11879Y6375D02*
X11889Y6365D01*
X11719Y5916D02*
X11729Y5906D01*
Y6020D02*
X11719Y6030D01*
X11721Y5833D02*
X11731Y5823D01*
X11877Y5951D02*
X11886Y5941D01*
X11857Y5912D02*
X11848Y5922D01*
X11893Y6074D02*
X11883Y6083D01*
X11879Y6166D02*
X11869Y6175D01*
X11840Y6146D02*
X11850Y6137D01*
X11841Y5967D02*
X11851Y5957D01*
X11822Y5928D02*
X11812Y5938D01*
X11841Y5868D02*
X11851Y5859D01*
X11822Y5830D02*
X11812Y5839D01*
X11842Y6119D02*
X11832Y6128D01*
X11804Y6099D02*
X11813Y6090D01*
X11873Y6136D02*
X11882Y6126D01*
X11854Y6097D02*
X11844Y6107D01*
X11879Y6392D02*
X11867Y6404D01*
X11855Y6416D01*
X11906Y6365D02*
X11918Y6353D01*
X11729Y5887D02*
X11719Y5877D01*
Y5991D02*
X11729Y6001D01*
X11731Y5804D02*
X11721Y5794D01*
X11877Y5912D02*
X11886Y5922D01*
X11857Y5951D02*
X11851Y5945D01*
X11883Y6103D02*
X11893Y6112D01*
X11869Y6137D02*
X11879Y6146D01*
X11850Y6175D02*
X11840Y6166D01*
X11848Y5935D02*
X11841Y5928D01*
X11812Y5957D02*
X11822Y5967D01*
X11851Y5839D02*
X11841Y5830D01*
X11812Y5859D02*
X11822Y5868D01*
X11832Y6090D02*
X11842Y6099D01*
X11813Y6128D02*
X11804Y6119D01*
X11873Y6097D02*
X11882Y6107D01*
X11854Y6136D02*
X11844Y6126D01*
X11966Y5837D02*
X11895Y5766D01*
X11879Y6394D02*
X11889Y6404D01*
X11923Y5914D02*
Y5895D01*
X11919Y6312D02*
Y6331D01*
X11922Y6103D02*
Y6083D01*
X11918Y6375D02*
Y6394D01*
X11961Y5914D02*
Y5895D01*
X11957Y6312D02*
Y6314D01*
X11934Y6150D02*
Y6131D01*
X11966Y6121D02*
Y5837D01*
Y6121D02*
Y6123D01*
Y6158D02*
Y6160D01*
Y6306D01*
X11957Y6314D02*
Y6331D01*
X11930Y6341D02*
X11919Y6353D01*
X11923Y5895D02*
X11932Y5885D01*
X11928Y6302D02*
X11919Y6312D01*
X11912Y6112D02*
X11922Y6103D01*
X11919Y6353D02*
X11918Y6353D01*
Y6394D02*
X11908Y6404D01*
X11910Y6361D02*
X11919Y6353D01*
X11952Y5923D02*
X11961Y5914D01*
X11966Y6158D02*
X11963Y6160D01*
X11934Y6131D02*
X11944Y6121D01*
X11966Y6306D02*
X11957Y6314D01*
X11962Y6310D01*
X11957Y6331D02*
X11948Y6341D01*
X11932Y5923D02*
X11923Y5914D01*
X11919Y6331D02*
X11928Y6341D01*
X11922Y6083D02*
X11912Y6074D01*
X11908Y6365D02*
X11918Y6375D01*
X11961Y5895D02*
X11952Y5885D01*
X11948Y6302D02*
X11957Y6312D01*
X11966Y6123D02*
X11963Y6121D01*
X11934Y6150D02*
X11944Y6160D01*
X11969Y6310D02*
X12021Y6361D01*
X12296Y6550D02*
X12304Y6558D01*
X12458Y7567D02*
Y7567D01*
Y7567D02*
Y7548D01*
Y7548D01*
Y7587D02*
Y7607D01*
X12462Y7983D02*
Y8377D01*
X12422Y8381D02*
Y7983D01*
X12423Y8229D02*
Y8248D01*
X12461D02*
Y8229D01*
X12423Y8130D02*
Y8111D01*
X12461D02*
Y8130D01*
X12332Y7672D02*
Y6585D01*
X12419Y7666D02*
Y7685D01*
X12457D02*
Y7666D01*
X12458Y7646D02*
Y7627D01*
X12367Y7390D02*
Y7371D01*
X12406D02*
Y7390D01*
X12458Y7469D02*
Y7489D01*
X12458Y7056D02*
Y7036D01*
X12419Y6662D02*
Y6643D01*
X12457D02*
Y6662D01*
X12379D02*
Y6643D01*
X12418D02*
Y6662D01*
X12458Y6583D02*
Y6564D01*
Y7115D02*
Y7134D01*
Y7666D02*
Y7685D01*
Y7213D02*
Y7194D01*
Y7545D02*
Y7548D01*
Y7545D01*
Y7410D02*
Y7391D01*
Y7331D02*
Y7312D01*
Y6898D02*
Y6879D01*
Y6918D02*
Y6937D01*
Y6859D02*
Y6839D01*
Y6741D02*
Y6721D01*
Y6701D02*
Y6682D01*
X12458Y6622D02*
Y6603D01*
X12419D02*
Y6622D01*
X12457D02*
Y6603D01*
X12462Y6643D02*
Y6662D01*
X12419Y6879D02*
Y6898D01*
X12457D02*
Y6879D01*
X12344Y7430D02*
Y7449D01*
X12382D02*
Y7430D01*
X12458Y7371D02*
Y7351D01*
X12383Y6414D02*
Y6395D01*
X12422D02*
Y6414D01*
X12336Y6585D02*
Y6589D01*
X12468Y7578D02*
X12458Y7587D01*
X12487Y7616D02*
X12497Y7607D01*
X12434Y7971D02*
X12422Y7983D01*
X12462Y8377D02*
X12450Y8388D01*
X12423Y8229D02*
X12432Y8220D01*
X12461Y8248D02*
X12452Y8258D01*
X12423Y8111D02*
X12432Y8101D01*
X12461Y8130D02*
X12452Y8140D01*
X12332Y6585D02*
X12387Y6530D01*
X12418Y7700D02*
X12408Y7710D01*
X12418Y7700D02*
X12419Y7700D01*
X12419Y7700D01*
X12423Y7695D01*
X12425Y7693D01*
X12419Y7666D02*
X12428Y7657D01*
X12458Y7627D02*
X12468Y7617D01*
X12497Y7646D02*
X12487Y7656D01*
X12367Y7371D02*
X12377Y7361D01*
X12406Y7390D02*
X12396Y7400D01*
X12458Y7469D02*
X12468Y7460D01*
X12497Y7489D02*
X12487Y7498D01*
X12458Y7036D02*
X12468Y7027D01*
X12497Y7056D02*
X12487Y7065D01*
X12419Y6643D02*
X12428Y6633D01*
X12457Y6662D02*
X12448Y6671D01*
X12389Y6633D02*
X12379Y6643D01*
X12408Y6671D02*
X12418Y6662D01*
X12458Y6564D02*
X12468Y6554D01*
X12497Y6583D02*
X12487Y6593D01*
X12468Y7105D02*
X12458Y7115D01*
X12487Y7144D02*
X12497Y7134D01*
X12468Y7657D02*
X12458Y7666D01*
X12487Y7695D02*
X12497Y7685D01*
X12458Y7194D02*
X12468Y7184D01*
X12497Y7213D02*
X12487Y7223D01*
X12468Y7538D02*
X12458Y7548D01*
X12487Y7577D02*
X12497Y7567D01*
X12468Y7538D02*
X12458Y7548D01*
X12468Y7538D02*
X12468Y7538D01*
X12497Y7567D02*
X12487Y7577D01*
X12458Y7391D02*
X12468Y7381D01*
X12497Y7410D02*
X12487Y7420D01*
X12458Y7312D02*
X12468Y7302D01*
X12497Y7331D02*
X12487Y7341D01*
X12458Y6879D02*
X12468Y6869D01*
X12497Y6898D02*
X12487Y6908D01*
X12468Y6908D02*
X12458Y6918D01*
X12487Y6947D02*
X12497Y6937D01*
X12458Y6839D02*
X12468Y6830D01*
X12497Y6859D02*
X12487Y6868D01*
X12458Y6721D02*
X12468Y6712D01*
X12497Y6741D02*
X12487Y6750D01*
X12458Y6682D02*
X12468Y6672D01*
X12497Y6701D02*
X12487Y6711D01*
X12458Y6603D02*
X12468Y6594D01*
X12497Y6622D02*
X12487Y6632D01*
X12428Y6594D02*
X12419Y6603D01*
X12448Y6632D02*
X12457Y6622D01*
X12472Y6633D02*
X12462Y6643D01*
X12491Y6671D02*
X12497Y6665D01*
X12428Y6869D02*
X12419Y6879D01*
X12448Y6908D02*
X12457Y6898D01*
X12354Y7420D02*
X12344Y7430D01*
X12373Y7459D02*
X12382Y7449D01*
X12458Y7351D02*
X12468Y7342D01*
X12497Y7371D02*
X12487Y7380D01*
X12383Y6395D02*
X12393Y6385D01*
X12422Y6414D02*
X12412Y6423D01*
X12371Y6550D02*
X12336Y6585D01*
X12458Y7607D02*
X12468Y7616D01*
X12497Y7587D02*
X12487Y7578D01*
X12336Y6589D02*
X12304Y6558D01*
X12450Y7971D02*
X12462Y7983D01*
X12422Y8381D02*
X12430Y8388D01*
X12432Y8258D02*
X12423Y8248D01*
X12452Y8220D02*
X12461Y8229D01*
X12432Y8140D02*
X12423Y8130D01*
X12452Y8101D02*
X12461Y8111D01*
X12367Y7707D02*
X12332Y7672D01*
X12461Y7695D02*
X12476Y7710D01*
X12461Y7695D02*
X12459Y7693D01*
X12428Y7695D02*
X12419Y7685D01*
X12448Y7657D02*
X12457Y7666D01*
X12468Y7656D02*
X12458Y7646D01*
X12487Y7617D02*
X12497Y7627D01*
X12377Y7400D02*
X12367Y7390D01*
X12396Y7361D02*
X12406Y7371D01*
X12458Y7489D02*
X12468Y7498D01*
X12497Y7469D02*
X12487Y7460D01*
X12468Y7065D02*
X12458Y7056D01*
X12487Y7027D02*
X12497Y7036D01*
X12428Y6671D02*
X12419Y6662D01*
X12448Y6633D02*
X12457Y6643D01*
X12389Y6671D02*
X12379Y6662D01*
X12408Y6633D02*
X12418Y6643D01*
X12468Y6593D02*
X12458Y6583D01*
X12487Y6554D02*
X12497Y6564D01*
X12458Y7134D02*
X12468Y7144D01*
X12497Y7115D02*
X12487Y7105D01*
X12458Y7685D02*
X12468Y7695D01*
X12497Y7666D02*
X12487Y7657D01*
X12468Y7223D02*
X12458Y7213D01*
X12487Y7184D02*
X12497Y7194D01*
X12458Y7567D02*
X12468Y7577D01*
X12497Y7548D02*
X12487Y7538D01*
X12458Y7567D02*
X12468Y7577D01*
X12497Y7548D02*
X12487Y7538D01*
X12487Y7538D01*
X12468Y7420D02*
X12458Y7410D01*
X12487Y7381D02*
X12497Y7391D01*
X12468Y7341D02*
X12458Y7331D01*
X12487Y7302D02*
X12497Y7312D01*
X12468Y6908D02*
X12458Y6898D01*
X12487Y6869D02*
X12497Y6879D01*
X12458Y6937D02*
X12468Y6947D01*
X12497Y6918D02*
X12487Y6908D01*
X12468Y6868D02*
X12458Y6859D01*
X12487Y6830D02*
X12497Y6839D01*
X12468Y6750D02*
X12458Y6741D01*
X12487Y6712D02*
X12497Y6721D01*
X12468Y6711D02*
X12458Y6701D01*
X12487Y6672D02*
X12497Y6682D01*
X12468Y6632D02*
X12458Y6622D01*
X12487Y6594D02*
X12497Y6603D01*
X12428Y6632D02*
X12419Y6622D01*
X12448Y6594D02*
X12457Y6603D01*
X12462Y6662D02*
X12472Y6671D01*
X12497Y6639D02*
X12491Y6633D01*
X12419Y6898D02*
X12428Y6908D01*
X12457Y6879D02*
X12448Y6869D01*
X12344Y7449D02*
X12354Y7459D01*
X12382Y7430D02*
X12373Y7420D01*
X12458Y7371D02*
X12468Y7380D01*
X12497Y7351D02*
X12487Y7342D01*
X12393Y6423D02*
X12383Y6414D01*
X12412Y6385D02*
X12422Y6395D01*
X12497Y7567D02*
Y7567D01*
Y7567D02*
Y7548D01*
Y7548D01*
Y7587D02*
Y7607D01*
X12497Y7567D02*
Y7567D01*
Y7548D01*
Y7548D01*
Y7627D02*
Y7646D01*
X12655Y7528D02*
Y7528D01*
Y7509D01*
Y7509D01*
X12576Y7548D02*
Y7567D01*
X12615D02*
Y7548D01*
X12537Y7528D02*
Y7528D01*
Y7509D01*
Y7509D01*
X12575Y7528D02*
Y7528D01*
Y7528D02*
Y7509D01*
Y7509D01*
X12536Y7567D02*
Y7567D01*
Y7567D02*
Y7548D01*
Y7548D01*
Y7627D02*
Y7646D01*
X12537Y7607D02*
Y7587D01*
X12575D02*
Y7607D01*
X12537Y7627D02*
Y7646D01*
X12575D02*
Y7627D01*
X12616Y7528D02*
Y7509D01*
X12654D02*
Y7528D01*
X12616Y7548D02*
Y7567D01*
X12654D02*
Y7548D01*
X12655Y7627D02*
Y7646D01*
Y7607D02*
Y7587D01*
Y7567D02*
Y7567D01*
Y7548D01*
Y7548D01*
X12497Y7627D02*
Y7646D01*
Y7489D02*
Y7469D01*
X12497Y7056D02*
Y7036D01*
Y6583D02*
Y6564D01*
Y7115D02*
Y7134D01*
Y7666D02*
Y7685D01*
Y7213D02*
Y7194D01*
Y7545D02*
Y7548D01*
Y7545D01*
Y7410D02*
Y7391D01*
Y7331D02*
Y7312D01*
Y6898D02*
Y6879D01*
Y6918D02*
Y6937D01*
Y6859D02*
Y6839D01*
Y6741D02*
Y6721D01*
Y6701D02*
Y6682D01*
X12497Y6622D02*
Y6603D01*
X12497Y7351D02*
Y7371D01*
X12497Y7371D02*
Y7351D01*
X12497Y7587D02*
Y7607D01*
Y7410D02*
Y7391D01*
Y6780D02*
Y6761D01*
X12497Y6583D02*
Y6564D01*
Y6603D02*
Y6622D01*
X12497Y7430D02*
Y7449D01*
X12497Y7252D02*
Y7233D01*
Y7469D02*
Y7489D01*
Y7545D02*
Y7548D01*
Y7545D01*
Y7331D02*
Y7312D01*
Y7292D02*
Y7272D01*
Y7134D02*
Y7115D01*
Y6859D02*
Y6839D01*
Y6819D02*
Y6800D01*
Y6741D02*
Y6721D01*
Y6997D02*
Y7016D01*
Y6898D02*
Y6879D01*
Y6701D02*
Y6682D01*
X12497Y7194D02*
Y7213D01*
X12536Y7351D02*
Y7371D01*
X12616Y7587D02*
Y7607D01*
X12654D02*
Y7607D01*
Y7607D02*
Y7587D01*
Y7587D01*
X12655Y7548D02*
Y7545D01*
Y7509D02*
Y7506D01*
X12576Y7587D02*
Y7607D01*
X12615D02*
Y7607D01*
Y7607D02*
Y7587D01*
Y7587D01*
X12536Y7587D02*
Y7607D01*
X12537Y7567D02*
Y7548D01*
X12575D02*
Y7567D01*
X12576Y7528D02*
Y7509D01*
X12615D02*
Y7528D01*
X12536Y7410D02*
Y7391D01*
X12576Y7016D02*
Y6997D01*
X12615D02*
Y7016D01*
X12655Y6819D02*
Y6800D01*
X12536Y6780D02*
Y6761D01*
X12537Y6741D02*
Y6721D01*
X12575D02*
Y6741D01*
X12616Y6839D02*
Y6859D01*
X12654D02*
Y6839D01*
X12655Y6662D02*
Y6643D01*
X12616Y6682D02*
Y6701D01*
X12654D02*
Y6682D01*
X12616Y6721D02*
Y6741D01*
X12654D02*
Y6721D01*
X12655Y6622D02*
Y6603D01*
X12616Y6643D02*
Y6662D01*
X12654D02*
Y6643D01*
X12655Y6583D02*
Y6564D01*
X12616Y6603D02*
Y6622D01*
X12654D02*
Y6603D01*
X12616Y6800D02*
Y6819D01*
X12654D02*
Y6800D01*
X12576Y6839D02*
Y6859D01*
X12615D02*
Y6839D01*
X12576Y6583D02*
Y6564D01*
X12615D02*
Y6583D01*
X12576Y6643D02*
Y6662D01*
X12615D02*
Y6643D01*
X12537D02*
Y6662D01*
X12575D02*
Y6643D01*
X12536D02*
Y6662D01*
X12576Y6622D02*
Y6603D01*
X12615D02*
Y6622D01*
X12537Y6583D02*
Y6564D01*
X12575D02*
Y6583D01*
X12536D02*
Y6564D01*
X12537Y6603D02*
Y6622D01*
X12575D02*
Y6603D01*
X12536D02*
Y6622D01*
X12616Y7272D02*
Y7292D01*
X12654D02*
Y7272D01*
X12655Y7506D02*
Y7509D01*
Y7449D02*
Y7430D01*
X12576Y7469D02*
Y7489D01*
X12615D02*
Y7469D01*
X12536Y7449D02*
Y7430D01*
X12537Y7252D02*
Y7233D01*
X12575D02*
Y7252D01*
X12536Y7252D02*
Y7233D01*
Y7469D02*
Y7489D01*
X12616Y7627D02*
Y7646D01*
X12654D02*
Y7627D01*
X12537Y7509D02*
Y7506D01*
X12575D02*
Y7509D01*
X12536Y7545D02*
Y7548D01*
X12537Y7509D02*
Y7506D01*
X12575D02*
Y7509D01*
X12536Y7545D02*
Y7548D01*
X12576Y7607D02*
Y7607D01*
Y7607D02*
Y7587D01*
Y7587D01*
X12615Y7587D02*
Y7607D01*
X12616D02*
Y7607D01*
Y7607D02*
Y7587D01*
Y7587D01*
X12654Y7587D02*
Y7607D01*
X12576Y7666D02*
Y7685D01*
X12615D02*
Y7666D01*
X12655Y7548D02*
Y7545D01*
X12537Y7449D02*
Y7430D01*
X12575D02*
Y7449D01*
X12537Y7410D02*
Y7391D01*
X12575D02*
Y7410D01*
X12576Y7410D02*
Y7391D01*
X12615D02*
Y7410D01*
X12616D02*
Y7391D01*
X12654D02*
Y7410D01*
X12537Y7371D02*
Y7351D01*
X12575D02*
Y7371D01*
X12576D02*
Y7351D01*
X12615D02*
Y7371D01*
X12616D02*
Y7351D01*
X12654D02*
Y7371D01*
X12536Y7331D02*
Y7312D01*
X12537D02*
Y7331D01*
X12575D02*
Y7312D01*
X12576D02*
Y7331D01*
X12615D02*
Y7312D01*
X12536Y7292D02*
Y7272D01*
X12537D02*
Y7292D01*
X12575D02*
Y7272D01*
X12576D02*
Y7292D01*
X12615D02*
Y7272D01*
X12537Y7213D02*
Y7194D01*
X12575D02*
Y7213D01*
X12576D02*
Y7194D01*
X12615D02*
Y7213D01*
X12616D02*
Y7194D01*
X12654D02*
Y7213D01*
X12537Y7174D02*
Y7154D01*
X12575D02*
Y7174D01*
X12576D02*
Y7154D01*
X12615D02*
Y7174D01*
X12616D02*
Y7154D01*
X12654D02*
Y7174D01*
X12536Y7134D02*
Y7115D01*
X12537D02*
Y7134D01*
X12575D02*
Y7115D01*
X12576D02*
Y7134D01*
X12615D02*
Y7115D01*
X12616D02*
Y7134D01*
X12654D02*
Y7115D01*
X12655D02*
Y7134D01*
Y7194D02*
Y7213D01*
X12655Y7351D02*
Y7371D01*
X12576Y7430D02*
Y7449D01*
X12615D02*
Y7430D01*
X12576Y6937D02*
Y6918D01*
X12615D02*
Y6937D01*
X12537D02*
Y6918D01*
X12575D02*
Y6937D01*
X12537Y6898D02*
Y6879D01*
X12575D02*
Y6898D01*
X12576D02*
Y6879D01*
X12615D02*
Y6898D01*
X12537Y6859D02*
Y6839D01*
X12575D02*
Y6859D01*
X12536D02*
Y6839D01*
Y6819D02*
Y6800D01*
X12537D02*
Y6819D01*
X12575D02*
Y6800D01*
X12576Y6800D02*
Y6819D01*
X12615D02*
Y6800D01*
X12537Y6780D02*
Y6761D01*
X12575D02*
Y6780D01*
X12616Y6780D02*
Y6761D01*
X12654D02*
Y6780D01*
X12536Y6741D02*
Y6721D01*
X12576D02*
Y6741D01*
X12615D02*
Y6721D01*
X12576Y6701D02*
Y6682D01*
X12615D02*
Y6701D01*
X12576Y6761D02*
Y6780D01*
X12615D02*
Y6761D01*
X12537Y6701D02*
Y6682D01*
X12575D02*
Y6701D01*
X12536Y6997D02*
Y7016D01*
Y6898D02*
Y6879D01*
Y6701D02*
Y6682D01*
X12576Y7233D02*
Y7252D01*
X12615D02*
Y7233D01*
X12616D02*
Y7252D01*
X12654D02*
Y7233D01*
X12616Y7312D02*
Y7331D01*
X12654D02*
Y7312D01*
X12536Y7213D02*
Y7194D01*
X12576Y7627D02*
Y7646D01*
X12615D02*
Y7627D01*
X12603Y6550D02*
Y6361D01*
X12501Y6639D02*
X12499Y6641D01*
Y6663D02*
X12501Y6665D01*
X12507Y7617D02*
X12497Y7627D01*
X12576Y7548D02*
X12586Y7538D01*
X12615Y7567D02*
X12605Y7577D01*
X12536Y7646D02*
X12526Y7656D01*
X12537Y7587D02*
X12546Y7578D01*
X12575Y7607D02*
X12566Y7616D01*
X12546Y7617D02*
X12537Y7627D01*
X12566Y7656D02*
X12575Y7646D01*
X12616Y7509D02*
X12625Y7499D01*
X12654Y7528D02*
X12644Y7538D01*
X12625Y7538D02*
X12616Y7548D01*
X12644Y7577D02*
X12654Y7567D01*
X12665Y7617D02*
X12655Y7627D01*
X12684Y7656D02*
X12693Y7646D01*
X12655Y7587D02*
X12665Y7578D01*
X12693Y7607D02*
X12684Y7616D01*
X12497Y6665D02*
X12499Y6663D01*
X12507Y7342D02*
X12497Y7351D01*
X12507Y7578D02*
X12497Y7587D01*
Y7391D02*
X12507Y7381D01*
X12497Y6761D02*
X12507Y6751D01*
X12501Y6639D02*
X12507Y6633D01*
X12497Y6564D02*
X12507Y6554D01*
Y6594D02*
X12497Y6603D01*
X12507Y7420D02*
X12497Y7430D01*
X12497Y7233D02*
X12507Y7223D01*
Y7460D02*
X12497Y7469D01*
X12507Y7538D02*
X12497Y7548D01*
Y7548D02*
X12507Y7538D01*
X12507Y7538D01*
X12497Y7312D02*
X12507Y7302D01*
X12497Y7272D02*
X12507Y7263D01*
X12497Y7115D02*
X12507Y7105D01*
X12497Y6839D02*
X12507Y6830D01*
X12497Y6800D02*
X12507Y6790D01*
X12497Y6721D02*
X12507Y6712D01*
Y6987D02*
X12497Y6997D01*
Y6879D02*
X12507Y6869D01*
X12497Y6682D02*
X12507Y6672D01*
X12507Y7184D02*
X12497Y7194D01*
X12536Y7371D02*
X12526Y7380D01*
X12625Y7578D02*
X12616Y7587D01*
X12644Y7616D02*
X12654Y7607D01*
X12655Y7548D02*
X12665Y7538D01*
X12693Y7567D02*
X12684Y7577D01*
X12655Y7509D02*
X12665Y7499D01*
X12693Y7528D02*
X12684Y7538D01*
X12586Y7578D02*
X12576Y7587D01*
X12605Y7616D02*
X12615Y7607D01*
X12536Y7607D02*
X12526Y7616D01*
X12537Y7548D02*
X12546Y7538D01*
X12575Y7567D02*
X12566Y7577D01*
X12576Y7509D02*
X12586Y7499D01*
X12615Y7528D02*
X12605Y7538D01*
X12526Y7420D02*
X12536Y7410D01*
X12576Y6997D02*
X12586Y6987D01*
X12615Y7016D02*
X12605Y7026D01*
X12655Y6800D02*
X12665Y6790D01*
X12693Y6819D02*
X12684Y6829D01*
X12536Y6780D02*
X12526Y6790D01*
X12537Y6721D02*
X12546Y6712D01*
X12575Y6741D02*
X12566Y6750D01*
X12625Y6830D02*
X12616Y6839D01*
X12644Y6868D02*
X12654Y6859D01*
X12655Y6643D02*
X12665Y6633D01*
X12693Y6662D02*
X12684Y6671D01*
X12625Y6672D02*
X12616Y6682D01*
X12644Y6711D02*
X12654Y6701D01*
X12625Y6712D02*
X12616Y6721D01*
X12644Y6750D02*
X12654Y6741D01*
X12655Y6603D02*
X12665Y6594D01*
X12693Y6622D02*
X12684Y6632D01*
X12625Y6633D02*
X12616Y6643D01*
X12644Y6671D02*
X12654Y6662D01*
X12655Y6564D02*
X12665Y6554D01*
X12693Y6583D02*
X12684Y6593D01*
X12625Y6594D02*
X12616Y6603D01*
X12644Y6632D02*
X12654Y6622D01*
X12625Y6790D02*
X12616Y6800D01*
X12644Y6829D02*
X12654Y6819D01*
X12586Y6830D02*
X12576Y6839D01*
X12605Y6868D02*
X12615Y6859D01*
X12576Y6564D02*
X12586Y6554D01*
X12615Y6583D02*
X12605Y6593D01*
X12586Y6633D02*
X12576Y6643D01*
X12605Y6671D02*
X12615Y6662D01*
X12546Y6633D02*
X12537Y6643D01*
X12566Y6671D02*
X12575Y6662D01*
X12536D02*
X12526Y6671D01*
X12576Y6603D02*
X12586Y6594D01*
X12615Y6622D02*
X12605Y6632D01*
X12537Y6564D02*
X12546Y6554D01*
X12575Y6583D02*
X12566Y6593D01*
X12536Y6583D02*
X12526Y6593D01*
X12537Y6603D02*
X12546Y6594D01*
X12575Y6622D02*
X12566Y6632D01*
X12536Y6622D02*
X12526Y6632D01*
X12625Y7263D02*
X12616Y7272D01*
X12644Y7301D02*
X12654Y7292D01*
X12665Y7499D02*
X12655Y7509D01*
X12665Y7499D02*
X12665Y7499D01*
X12693Y7528D02*
X12684Y7538D01*
X12655Y7430D02*
X12665Y7420D01*
X12693Y7449D02*
X12684Y7459D01*
X12586Y7460D02*
X12576Y7469D01*
X12605Y7498D02*
X12615Y7489D01*
X12536Y7449D02*
X12526Y7459D01*
X12537Y7233D02*
X12546Y7223D01*
X12575Y7252D02*
X12566Y7262D01*
X12536Y7252D02*
X12526Y7262D01*
X12536Y7489D02*
X12526Y7498D01*
X12625Y7617D02*
X12616Y7627D01*
X12644Y7656D02*
X12654Y7646D01*
X12537Y7509D02*
X12546Y7499D01*
X12575Y7528D02*
X12566Y7538D01*
X12536Y7567D02*
X12526Y7577D01*
X12537Y7509D02*
X12546Y7499D01*
X12546Y7499D01*
X12575Y7528D02*
X12566Y7538D01*
X12536Y7567D02*
X12526Y7577D01*
X12576Y7587D02*
X12586Y7578D01*
X12615Y7607D02*
X12605Y7616D01*
X12615Y7607D02*
X12615Y7607D01*
X12616Y7587D02*
X12625Y7578D01*
X12654Y7607D02*
X12644Y7616D01*
X12654Y7607D02*
X12654Y7607D01*
X12586Y7657D02*
X12576Y7666D01*
X12605Y7695D02*
X12615Y7685D01*
X12655Y7548D02*
X12665Y7538D01*
X12665Y7538D01*
X12693Y7567D02*
X12684Y7577D01*
X12537Y7430D02*
X12546Y7420D01*
X12575Y7449D02*
X12566Y7459D01*
X12537Y7391D02*
X12546Y7381D01*
X12575Y7410D02*
X12566Y7420D01*
X12576Y7391D02*
X12586Y7381D01*
X12615Y7410D02*
X12605Y7420D01*
X12616Y7391D02*
X12625Y7381D01*
X12654Y7410D02*
X12644Y7420D01*
X12546Y7342D02*
X12537Y7351D01*
X12566Y7380D02*
X12575Y7371D01*
X12576Y7351D02*
X12586Y7342D01*
X12615Y7371D02*
X12605Y7380D01*
X12616Y7351D02*
X12625Y7342D01*
X12654Y7371D02*
X12644Y7380D01*
X12536Y7331D02*
X12526Y7341D01*
X12537Y7312D02*
X12546Y7302D01*
X12575Y7331D02*
X12566Y7341D01*
X12576Y7312D02*
X12586Y7302D01*
X12615Y7331D02*
X12605Y7341D01*
X12536Y7292D02*
X12526Y7301D01*
X12537Y7272D02*
X12546Y7263D01*
X12575Y7292D02*
X12566Y7301D01*
X12576Y7272D02*
X12586Y7263D01*
X12615Y7292D02*
X12605Y7301D01*
X12537Y7194D02*
X12546Y7184D01*
X12575Y7213D02*
X12566Y7223D01*
X12576Y7194D02*
X12586Y7184D01*
X12615Y7213D02*
X12605Y7223D01*
X12616Y7194D02*
X12625Y7184D01*
X12654Y7213D02*
X12644Y7223D01*
X12546Y7145D02*
X12537Y7154D01*
X12566Y7183D02*
X12575Y7174D01*
X12576Y7154D02*
X12586Y7145D01*
X12615Y7174D02*
X12605Y7183D01*
X12616Y7154D02*
X12625Y7145D01*
X12654Y7174D02*
X12644Y7183D01*
X12536Y7134D02*
X12526Y7144D01*
X12537Y7115D02*
X12546Y7105D01*
X12575Y7134D02*
X12566Y7144D01*
X12576Y7115D02*
X12586Y7105D01*
X12615Y7134D02*
X12605Y7144D01*
X12616Y7115D02*
X12625Y7105D01*
X12654Y7134D02*
X12644Y7144D01*
X12655Y7115D02*
X12665Y7105D01*
X12693Y7134D02*
X12684Y7144D01*
X12665Y7184D02*
X12655Y7194D01*
X12684Y7223D02*
X12693Y7213D01*
X12665Y7342D02*
X12655Y7351D01*
X12684Y7380D02*
X12693Y7371D01*
X12586Y7420D02*
X12576Y7430D01*
X12605Y7459D02*
X12615Y7449D01*
X12576Y6918D02*
X12586Y6908D01*
X12615Y6937D02*
X12605Y6947D01*
X12546Y6908D02*
X12537Y6918D01*
X12566Y6947D02*
X12575Y6937D01*
X12537Y6879D02*
X12546Y6869D01*
X12575Y6898D02*
X12566Y6908D01*
X12576Y6879D02*
X12586Y6869D01*
X12615Y6898D02*
X12605Y6908D01*
X12537Y6839D02*
X12546Y6830D01*
X12575Y6859D02*
X12566Y6868D01*
X12536Y6859D02*
X12526Y6868D01*
Y6829D02*
X12536Y6819D01*
X12537Y6800D02*
X12546Y6790D01*
X12575Y6819D02*
X12566Y6829D01*
X12576Y6800D02*
X12586Y6790D01*
X12615Y6819D02*
X12605Y6829D01*
X12537Y6761D02*
X12546Y6751D01*
X12575Y6780D02*
X12566Y6790D01*
X12616Y6761D02*
X12625Y6751D01*
X12654Y6780D02*
X12644Y6790D01*
X12536Y6741D02*
X12526Y6750D01*
X12576Y6721D02*
X12586Y6712D01*
X12615Y6741D02*
X12605Y6750D01*
X12576Y6682D02*
X12586Y6672D01*
X12615Y6701D02*
X12605Y6711D01*
X12586Y6751D02*
X12576Y6761D01*
X12605Y6790D02*
X12615Y6780D01*
X12537Y6682D02*
X12546Y6672D01*
X12575Y6701D02*
X12566Y6711D01*
X12536Y7016D02*
X12526Y7026D01*
Y6908D02*
X12536Y6898D01*
X12526Y6711D02*
X12536Y6701D01*
X12586Y7223D02*
X12576Y7233D01*
X12605Y7262D02*
X12615Y7252D01*
X12616Y7233D02*
X12625Y7223D01*
X12654Y7252D02*
X12644Y7262D01*
X12625Y7302D02*
X12616Y7312D01*
X12644Y7341D02*
X12654Y7331D01*
X12536Y7213D02*
X12526Y7223D01*
X12586Y7617D02*
X12576Y7627D01*
X12605Y7656D02*
X12615Y7646D01*
X12507Y7656D02*
X12497Y7646D01*
X12576Y7567D02*
X12586Y7577D01*
X12615Y7548D02*
X12605Y7538D01*
X12526Y7617D02*
X12536Y7627D01*
X12546Y7616D02*
X12537Y7607D01*
X12566Y7578D02*
X12575Y7587D01*
X12537Y7646D02*
X12546Y7656D01*
X12575Y7627D02*
X12566Y7617D01*
X12625Y7538D02*
X12616Y7528D01*
X12644Y7499D02*
X12654Y7509D01*
X12616Y7567D02*
X12625Y7577D01*
X12654Y7548D02*
X12644Y7538D01*
X12655Y7646D02*
X12665Y7656D01*
X12693Y7627D02*
X12684Y7617D01*
X12665Y7616D02*
X12655Y7607D01*
X12684Y7578D02*
X12693Y7587D01*
X12499Y6641D02*
X12497Y6639D01*
Y7371D02*
X12507Y7380D01*
X12497Y7607D02*
X12507Y7616D01*
Y7420D02*
X12497Y7410D01*
X12507Y6790D02*
X12497Y6780D01*
X12507Y6671D02*
X12501Y6665D01*
X12507Y6593D02*
X12497Y6583D01*
Y6622D02*
X12507Y6632D01*
X12497Y7449D02*
X12507Y7459D01*
X12507Y7262D02*
X12497Y7252D01*
Y7489D02*
X12507Y7498D01*
X12497Y7567D02*
X12507Y7577D01*
Y7577D02*
X12497Y7567D01*
X12507Y7341D02*
X12497Y7331D01*
X12507Y7301D02*
X12497Y7292D01*
X12507Y7144D02*
X12497Y7134D01*
X12507Y6868D02*
X12497Y6859D01*
X12507Y6829D02*
X12497Y6819D01*
X12507Y6750D02*
X12497Y6741D01*
Y7016D02*
X12507Y7026D01*
Y6908D02*
X12497Y6898D01*
X12507Y6711D02*
X12497Y6701D01*
X12497Y7213D02*
X12507Y7223D01*
X12526Y7342D02*
X12536Y7351D01*
X12616Y7607D02*
X12625Y7616D01*
X12654Y7587D02*
X12644Y7578D01*
X12655Y7567D02*
X12665Y7577D01*
X12693Y7548D02*
X12684Y7538D01*
X12665Y7538D02*
X12655Y7528D01*
X12684Y7499D02*
X12693Y7509D01*
X12586Y7616D02*
X12576Y7607D01*
X12605Y7578D02*
X12615Y7587D01*
X12536Y7587D02*
X12526Y7578D01*
X12537Y7567D02*
X12546Y7577D01*
X12575Y7548D02*
X12566Y7538D01*
X12576Y7528D02*
X12586Y7538D01*
X12615Y7509D02*
X12605Y7499D01*
X12536Y7391D02*
X12526Y7381D01*
X12586Y7026D02*
X12576Y7016D01*
X12605Y6987D02*
X12615Y6997D01*
X12665Y6829D02*
X12655Y6819D01*
X12684Y6790D02*
X12693Y6800D01*
X12536Y6761D02*
X12526Y6751D01*
X12537Y6741D02*
X12546Y6750D01*
X12575Y6721D02*
X12566Y6712D01*
X12616Y6859D02*
X12625Y6868D01*
X12654Y6839D02*
X12644Y6830D01*
X12665Y6671D02*
X12655Y6662D01*
X12684Y6633D02*
X12693Y6643D01*
X12625Y6711D02*
X12616Y6701D01*
X12644Y6672D02*
X12654Y6682D01*
X12616Y6741D02*
X12625Y6750D01*
X12654Y6721D02*
X12644Y6712D01*
X12665Y6632D02*
X12655Y6622D01*
X12684Y6594D02*
X12693Y6603D01*
X12625Y6671D02*
X12616Y6662D01*
X12644Y6633D02*
X12654Y6643D01*
X12665Y6593D02*
X12655Y6583D01*
X12684Y6554D02*
X12693Y6564D01*
X12625Y6632D02*
X12616Y6622D01*
X12644Y6594D02*
X12654Y6603D01*
X12616Y6819D02*
X12625Y6829D01*
X12654Y6800D02*
X12644Y6790D01*
X12576Y6859D02*
X12586Y6868D01*
X12615Y6839D02*
X12605Y6830D01*
X12586Y6593D02*
X12576Y6583D01*
X12605Y6554D02*
X12615Y6564D01*
X12576Y6662D02*
X12586Y6671D01*
X12615Y6643D02*
X12605Y6633D01*
X12546Y6671D02*
X12537Y6662D01*
X12566Y6633D02*
X12575Y6643D01*
X12536D02*
X12526Y6633D01*
X12576Y6622D02*
X12586Y6632D01*
X12615Y6603D02*
X12605Y6594D01*
X12546Y6593D02*
X12537Y6583D01*
X12566Y6554D02*
X12575Y6564D01*
X12536D02*
X12526Y6554D01*
X12537Y6622D02*
X12546Y6632D01*
X12575Y6603D02*
X12566Y6594D01*
X12536Y6603D02*
X12526Y6594D01*
X12616Y7292D02*
X12625Y7301D01*
X12654Y7272D02*
X12644Y7263D01*
X12655Y7528D02*
X12665Y7538D01*
X12693Y7509D02*
X12684Y7499D01*
X12684Y7499D01*
X12665Y7459D02*
X12655Y7449D01*
X12684Y7420D02*
X12693Y7430D01*
X12586Y7498D02*
X12576Y7489D01*
X12605Y7460D02*
X12615Y7469D01*
X12536Y7430D02*
X12526Y7420D01*
X12546Y7262D02*
X12537Y7252D01*
X12566Y7223D02*
X12575Y7233D01*
X12536Y7233D02*
X12526Y7223D01*
Y7460D02*
X12536Y7469D01*
X12616Y7646D02*
X12625Y7656D01*
X12654Y7627D02*
X12644Y7617D01*
X12546Y7538D02*
X12537Y7528D01*
X12566Y7499D02*
X12575Y7509D01*
X12536Y7548D02*
X12526Y7538D01*
X12537Y7528D02*
X12546Y7538D01*
X12575Y7509D02*
X12566Y7499D01*
X12566Y7499D01*
X12526Y7538D02*
X12536Y7548D01*
X12526Y7538D02*
X12526Y7538D01*
X12576Y7607D02*
X12586Y7616D01*
X12615Y7587D02*
X12615Y7587D01*
X12605Y7578D01*
X12616Y7607D02*
X12625Y7616D01*
X12654Y7587D02*
X12654Y7587D01*
X12644Y7578D01*
X12576Y7685D02*
X12586Y7695D01*
X12615Y7666D02*
X12605Y7657D01*
X12665Y7577D02*
X12655Y7567D01*
X12684Y7538D02*
X12693Y7548D01*
X12684Y7538D02*
X12684Y7538D01*
X12546Y7459D02*
X12537Y7449D01*
X12566Y7420D02*
X12575Y7430D01*
X12546Y7420D02*
X12537Y7410D01*
X12566Y7381D02*
X12575Y7391D01*
X12576Y7410D02*
X12586Y7420D01*
X12615Y7391D02*
X12605Y7381D01*
X12616Y7410D02*
X12625Y7420D01*
X12654Y7391D02*
X12644Y7381D01*
X12546Y7380D02*
X12537Y7371D01*
X12566Y7342D02*
X12575Y7351D01*
X12576Y7371D02*
X12586Y7380D01*
X12615Y7351D02*
X12605Y7342D01*
X12616Y7371D02*
X12625Y7380D01*
X12654Y7351D02*
X12644Y7342D01*
X12536Y7312D02*
X12526Y7302D01*
X12537Y7331D02*
X12546Y7341D01*
X12575Y7312D02*
X12566Y7302D01*
X12576Y7331D02*
X12586Y7341D01*
X12615Y7312D02*
X12605Y7302D01*
X12536Y7272D02*
X12526Y7263D01*
X12537Y7292D02*
X12546Y7301D01*
X12575Y7272D02*
X12566Y7263D01*
X12576Y7292D02*
X12586Y7301D01*
X12615Y7272D02*
X12605Y7263D01*
X12546Y7223D02*
X12537Y7213D01*
X12566Y7184D02*
X12575Y7194D01*
X12576Y7213D02*
X12586Y7223D01*
X12615Y7194D02*
X12605Y7184D01*
X12616Y7213D02*
X12625Y7223D01*
X12654Y7194D02*
X12644Y7184D01*
X12546Y7183D02*
X12537Y7174D01*
X12566Y7145D02*
X12575Y7154D01*
X12576Y7174D02*
X12586Y7183D01*
X12615Y7154D02*
X12605Y7145D01*
X12616Y7174D02*
X12625Y7183D01*
X12654Y7154D02*
X12644Y7145D01*
X12536Y7115D02*
X12526Y7105D01*
X12537Y7134D02*
X12546Y7144D01*
X12575Y7115D02*
X12566Y7105D01*
X12576Y7134D02*
X12586Y7144D01*
X12615Y7115D02*
X12605Y7105D01*
X12616Y7134D02*
X12625Y7144D01*
X12654Y7115D02*
X12644Y7105D01*
X12655Y7134D02*
X12665Y7144D01*
X12693Y7115D02*
X12684Y7105D01*
X12655Y7213D02*
X12665Y7223D01*
X12693Y7194D02*
X12684Y7184D01*
X12655Y7371D02*
X12665Y7380D01*
X12693Y7351D02*
X12684Y7342D01*
X12576Y7449D02*
X12586Y7459D01*
X12615Y7430D02*
X12605Y7420D01*
X12586Y6947D02*
X12576Y6937D01*
X12605Y6908D02*
X12615Y6918D01*
X12546Y6947D02*
X12537Y6937D01*
X12566Y6908D02*
X12575Y6918D01*
X12546Y6908D02*
X12537Y6898D01*
X12566Y6869D02*
X12575Y6879D01*
X12576Y6898D02*
X12586Y6908D01*
X12615Y6879D02*
X12605Y6869D01*
X12546Y6868D02*
X12537Y6859D01*
X12566Y6830D02*
X12575Y6839D01*
X12536D02*
X12526Y6830D01*
X12536Y6800D02*
X12526Y6790D01*
X12537Y6819D02*
X12546Y6829D01*
X12575Y6800D02*
X12566Y6790D01*
X12576Y6819D02*
X12586Y6829D01*
X12615Y6800D02*
X12605Y6790D01*
X12546Y6790D02*
X12537Y6780D01*
X12566Y6751D02*
X12575Y6761D01*
X12616Y6780D02*
X12625Y6790D01*
X12654Y6761D02*
X12644Y6751D01*
X12536Y6721D02*
X12526Y6712D01*
X12576Y6741D02*
X12586Y6750D01*
X12615Y6721D02*
X12605Y6712D01*
X12586Y6711D02*
X12576Y6701D01*
X12605Y6672D02*
X12615Y6682D01*
X12576Y6780D02*
X12586Y6790D01*
X12615Y6761D02*
X12605Y6751D01*
X12546Y6711D02*
X12537Y6701D01*
X12566Y6672D02*
X12575Y6682D01*
X12526Y6987D02*
X12536Y6997D01*
Y6879D02*
X12526Y6869D01*
X12536Y6682D02*
X12526Y6672D01*
X12576Y7252D02*
X12586Y7262D01*
X12615Y7233D02*
X12605Y7223D01*
X12616Y7252D02*
X12625Y7262D01*
X12654Y7233D02*
X12644Y7223D01*
X12616Y7331D02*
X12625Y7341D01*
X12654Y7312D02*
X12644Y7302D01*
X12536Y7194D02*
X12526Y7184D01*
X12576Y7646D02*
X12586Y7656D01*
X12615Y7627D02*
X12605Y7617D01*
X12694Y6452D02*
X12603Y6361D01*
X12693Y7528D02*
Y7528D01*
Y7528D02*
Y7509D01*
Y7509D01*
Y7627D02*
Y7646D01*
Y7607D02*
Y7587D01*
Y7567D02*
Y7567D01*
Y7548D01*
Y7548D01*
X12694Y7528D02*
Y7528D01*
Y7509D01*
Y7509D01*
Y7489D02*
Y7469D01*
X12733Y7528D02*
Y7528D01*
Y7528D02*
Y7509D01*
Y7509D01*
Y7489D02*
Y7469D01*
X12852Y7627D02*
Y7646D01*
Y7607D02*
Y7587D01*
X12734Y7646D02*
Y7646D01*
Y7646D02*
Y7627D01*
Y7627D01*
X12772Y7646D02*
Y7646D01*
Y7646D02*
Y7627D01*
Y7627D01*
X12812Y7489D02*
Y7469D01*
X12851D02*
Y7489D01*
X12693Y7545D02*
Y7548D01*
Y7509D02*
Y7506D01*
X12693Y6819D02*
Y6800D01*
X12693Y6662D02*
Y6643D01*
Y6622D02*
Y6603D01*
Y6583D02*
Y6564D01*
Y7506D02*
Y7509D01*
Y7449D02*
Y7430D01*
Y7545D02*
Y7548D01*
Y7134D02*
Y7115D01*
Y7194D02*
Y7213D01*
X12693Y7351D02*
Y7371D01*
X12694Y7506D02*
Y7509D01*
Y6583D02*
Y6564D01*
X12694Y7666D02*
Y7685D01*
X12694Y7509D02*
Y7506D01*
Y7587D02*
Y7607D01*
Y7567D02*
Y7548D01*
Y7449D02*
Y7430D01*
Y7134D02*
Y7115D01*
X12694Y7154D02*
Y7174D01*
X12694Y7391D02*
Y7410D01*
Y7371D02*
Y7351D01*
Y6544D02*
Y6530D01*
Y7627D02*
Y7646D01*
Y6530D02*
Y6524D01*
X12812Y7587D02*
Y7607D01*
X12851D02*
Y7607D01*
Y7607D02*
Y7587D01*
Y7587D01*
X12773Y7587D02*
Y7607D01*
X12812D02*
Y7607D01*
Y7607D02*
Y7587D01*
Y7587D01*
X12773Y7489D02*
Y7469D01*
X12812D02*
Y7489D01*
X12733Y7506D02*
Y7509D01*
X12812Y6780D02*
Y6761D01*
X12851D02*
Y6780D01*
X12773Y6622D02*
Y6603D01*
X12812D02*
Y6622D01*
X12733Y6583D02*
Y6564D01*
X12733Y7666D02*
Y7685D01*
X12773Y7646D02*
Y7627D01*
X12812D02*
Y7646D01*
X12852Y7252D02*
Y7233D01*
X12812Y7272D02*
Y7292D01*
X12851D02*
Y7272D01*
X12812Y6977D02*
Y6958D01*
X12851D02*
Y6977D01*
X12852Y6997D02*
Y7016D01*
Y7036D02*
Y7056D01*
Y7076D02*
Y7095D01*
Y7154D02*
Y7174D01*
Y7194D02*
Y7213D01*
Y6977D02*
Y6958D01*
X12812Y7233D02*
Y7252D01*
X12851D02*
Y7233D01*
X12812Y7056D02*
Y7036D01*
X12851D02*
Y7056D01*
X12812Y7076D02*
Y7095D01*
X12851D02*
Y7076D01*
X12734Y7351D02*
Y7371D01*
X12772D02*
Y7351D01*
X12773D02*
Y7371D01*
X12812D02*
Y7351D01*
X12812D02*
Y7371D01*
X12851D02*
Y7351D01*
X12734Y7252D02*
Y7233D01*
X12772D02*
Y7252D01*
X12734Y7272D02*
Y7292D01*
X12772D02*
Y7272D01*
X12734Y7312D02*
Y7331D01*
X12772D02*
Y7312D01*
X12852Y7351D02*
Y7371D01*
X12734Y7095D02*
Y7076D01*
X12772D02*
Y7095D01*
X12734Y7016D02*
Y6997D01*
X12772D02*
Y7016D01*
X12734Y6977D02*
Y6958D01*
X12772D02*
Y6977D01*
X12734Y6937D02*
Y6918D01*
X12772D02*
Y6937D01*
X12734Y6898D02*
Y6879D01*
X12772D02*
Y6898D01*
X12773D02*
Y6879D01*
X12812D02*
Y6898D01*
X12812D02*
Y6879D01*
X12851D02*
Y6898D01*
X12734Y7548D02*
Y7567D01*
X12772D02*
Y7548D01*
X12733Y7509D02*
Y7506D01*
X12852Y7548D02*
Y7567D01*
Y7528D02*
Y7509D01*
X12812Y7548D02*
Y7567D01*
X12851D02*
Y7548D01*
X12812Y7528D02*
Y7509D01*
X12851D02*
Y7528D01*
X12773Y7548D02*
Y7567D01*
X12812D02*
Y7548D01*
X12734Y7624D02*
Y7627D01*
X12772D02*
Y7624D01*
X12734Y7607D02*
Y7587D01*
X12772D02*
Y7607D01*
X12733D02*
Y7587D01*
X12734Y7528D02*
Y7509D01*
X12772D02*
Y7528D01*
X12733Y7548D02*
Y7567D01*
X12734Y7489D02*
Y7469D01*
X12772D02*
Y7489D01*
X12733Y7449D02*
Y7430D01*
X12812Y7627D02*
Y7646D01*
X12851D02*
Y7627D01*
X12812Y7607D02*
Y7607D01*
Y7587D01*
Y7587D01*
X12851Y7587D02*
Y7607D01*
X12773D02*
Y7607D01*
Y7607D02*
Y7587D01*
Y7587D01*
X12812Y7587D02*
Y7607D01*
X12733Y7134D02*
Y7115D01*
X12733Y7154D02*
Y7174D01*
X12734Y7624D02*
Y7627D01*
X12772D02*
Y7624D01*
X12733Y7410D02*
Y7391D01*
Y7371D02*
Y7351D01*
X12773Y6662D02*
Y6643D01*
X12812D02*
Y6662D01*
X12812Y6622D02*
Y6603D01*
X12851D02*
Y6622D01*
X12852D02*
Y6603D01*
X12773Y6583D02*
Y6564D01*
X12812D02*
Y6583D01*
X12812Y6583D02*
Y6564D01*
X12851D02*
Y6583D01*
X12852D02*
Y6564D01*
X12733Y6544D02*
Y6530D01*
X12812Y6682D02*
Y6701D01*
X12851D02*
Y6682D01*
X12734Y6721D02*
Y6741D01*
X12772D02*
Y6721D01*
X12773Y6701D02*
Y6682D01*
X12812D02*
Y6701D01*
X12852Y6701D02*
Y6682D01*
X12812Y6997D02*
Y7016D01*
X12851D02*
Y6997D01*
X12812Y7194D02*
Y7213D01*
X12851D02*
Y7194D01*
X12812Y7174D02*
Y7154D01*
X12851D02*
Y7174D01*
X12812Y7134D02*
Y7115D01*
X12851D02*
Y7134D01*
X12734Y7154D02*
Y7174D01*
X12772D02*
Y7154D01*
X12734Y7194D02*
Y7213D01*
X12772D02*
Y7194D01*
X12734Y7056D02*
Y7036D01*
X12772D02*
Y7056D01*
X12852Y7272D02*
Y7292D01*
X12812Y6937D02*
Y6918D01*
X12851D02*
Y6937D01*
X12773Y7666D02*
Y7685D01*
X12812D02*
Y7666D01*
X12733Y7646D02*
Y7627D01*
Y6530D02*
Y6524D01*
X12704Y7460D02*
X12694Y7469D01*
X12723Y7498D02*
X12733Y7489D01*
X12861Y7617D02*
X12852Y7627D01*
X12881Y7656D02*
X12890Y7646D01*
X12852Y7587D02*
X12861Y7578D01*
X12890Y7607D02*
X12881Y7616D01*
X12812Y7469D02*
X12822Y7460D01*
X12851Y7489D02*
X12841Y7498D01*
X12704Y7499D02*
X12694Y7509D01*
Y6564D02*
X12704Y6554D01*
X12704Y7657D02*
X12694Y7666D01*
X12694Y7509D02*
X12704Y7499D01*
X12704Y7499D01*
Y7578D02*
X12694Y7587D01*
Y7548D02*
X12704Y7538D01*
X12694Y7430D02*
X12704Y7420D01*
X12694Y7115D02*
X12704Y7105D01*
X12704Y7145D02*
X12694Y7154D01*
X12704Y7381D02*
X12694Y7391D01*
Y7351D02*
X12704Y7342D01*
Y7617D02*
X12694Y7627D01*
Y6524D02*
X12704Y6515D01*
X12822Y7578D02*
X12812Y7587D01*
X12841Y7616D02*
X12851Y7607D01*
X12783Y7578D02*
X12773Y7587D01*
X12802Y7616D02*
X12812Y7607D01*
X12773Y7469D02*
X12783Y7460D01*
X12812Y7489D02*
X12802Y7498D01*
X12733Y7528D02*
X12723Y7538D01*
X12812Y6761D02*
X12822Y6751D01*
X12851Y6780D02*
X12841Y6790D01*
X12773Y6603D02*
X12783Y6594D01*
X12812Y6622D02*
X12802Y6632D01*
X12733Y6583D02*
X12723Y6593D01*
X12733Y7685D02*
X12723Y7695D01*
X12773Y7627D02*
X12783Y7617D01*
X12812Y7646D02*
X12802Y7656D01*
X12852Y7233D02*
X12861Y7223D01*
X12890Y7252D02*
X12881Y7262D01*
X12822Y7263D02*
X12812Y7272D01*
X12841Y7301D02*
X12851Y7292D01*
X12812Y6958D02*
X12822Y6948D01*
X12851Y6977D02*
X12841Y6986D01*
X12852Y6997D02*
X12861Y6987D01*
X12890Y7016D02*
X12881Y7026D01*
X12861Y7027D02*
X12852Y7036D01*
X12881Y7065D02*
X12890Y7056D01*
X12861Y7066D02*
X12852Y7076D01*
X12881Y7105D02*
X12890Y7095D01*
X12861Y7145D02*
X12852Y7154D01*
X12881Y7183D02*
X12890Y7174D01*
X12861Y7184D02*
X12852Y7194D01*
X12881Y7223D02*
X12890Y7213D01*
X12852Y6958D02*
X12861Y6948D01*
X12890Y6977D02*
X12881Y6986D01*
X12822Y7223D02*
X12812Y7233D01*
X12841Y7262D02*
X12851Y7252D01*
X12812Y7036D02*
X12822Y7027D01*
X12851Y7056D02*
X12841Y7065D01*
X12822Y7066D02*
X12812Y7076D01*
X12841Y7105D02*
X12851Y7095D01*
X12743Y7342D02*
X12734Y7351D01*
X12763Y7380D02*
X12772Y7371D01*
X12773Y7351D02*
X12783Y7342D01*
X12812Y7371D02*
X12802Y7380D01*
X12812Y7351D02*
X12822Y7342D01*
X12851Y7371D02*
X12841Y7380D01*
X12734Y7233D02*
X12743Y7223D01*
X12772Y7252D02*
X12763Y7262D01*
X12743Y7263D02*
X12734Y7272D01*
X12763Y7301D02*
X12772Y7292D01*
X12743Y7302D02*
X12734Y7312D01*
X12763Y7341D02*
X12772Y7331D01*
X12852Y7351D02*
X12861Y7342D01*
X12890Y7371D02*
X12881Y7380D01*
X12734Y7076D02*
X12743Y7066D01*
X12772Y7095D02*
X12763Y7105D01*
X12734Y6997D02*
X12743Y6987D01*
X12772Y7016D02*
X12763Y7026D01*
X12734Y6958D02*
X12743Y6948D01*
X12772Y6977D02*
X12763Y6986D01*
X12734Y6918D02*
X12743Y6908D01*
X12772Y6937D02*
X12763Y6947D01*
X12734Y6879D02*
X12743Y6869D01*
X12772Y6898D02*
X12763Y6908D01*
X12773Y6879D02*
X12783Y6869D01*
X12812Y6898D02*
X12802Y6908D01*
X12812Y6879D02*
X12822Y6869D01*
X12851Y6898D02*
X12841Y6908D01*
X12743Y7538D02*
X12734Y7548D01*
X12763Y7577D02*
X12772Y7567D01*
X12733Y7528D02*
X12723Y7538D01*
X12852Y7548D02*
X12861Y7538D01*
X12890Y7567D02*
X12881Y7577D01*
X12852Y7509D02*
X12861Y7499D01*
X12890Y7528D02*
X12881Y7538D01*
X12822Y7538D02*
X12812Y7548D01*
X12841Y7577D02*
X12851Y7567D01*
X12812Y7509D02*
X12822Y7499D01*
X12851Y7528D02*
X12841Y7538D01*
X12783Y7538D02*
X12773Y7548D01*
X12802Y7577D02*
X12812Y7567D01*
X12743Y7617D02*
X12734Y7627D01*
X12743Y7617D02*
X12743Y7617D01*
X12772Y7646D02*
X12763Y7656D01*
X12734Y7587D02*
X12743Y7578D01*
X12772Y7607D02*
X12763Y7616D01*
X12733Y7607D02*
X12723Y7616D01*
X12734Y7509D02*
X12743Y7499D01*
X12772Y7528D02*
X12763Y7538D01*
X12733Y7567D02*
X12723Y7577D01*
X12734Y7469D02*
X12743Y7460D01*
X12772Y7489D02*
X12763Y7498D01*
X12723Y7459D02*
X12733Y7449D01*
X12822Y7617D02*
X12812Y7627D01*
X12841Y7656D02*
X12851Y7646D01*
X12812Y7587D02*
X12822Y7578D01*
X12851Y7607D02*
X12841Y7616D01*
X12851Y7607D02*
X12851Y7607D01*
X12783Y7578D02*
X12773Y7587D01*
X12802Y7616D02*
X12812Y7607D01*
X12812Y7607D01*
X12723Y7144D02*
X12733Y7134D01*
X12733Y7174D02*
X12723Y7183D01*
X12743Y7617D02*
X12734Y7627D01*
X12763Y7656D02*
X12772Y7646D01*
X12723Y7420D02*
X12733Y7410D01*
X12723Y7380D02*
X12733Y7371D01*
X12773Y6643D02*
X12783Y6633D01*
X12812Y6662D02*
X12802Y6671D01*
X12812Y6603D02*
X12822Y6594D01*
X12851Y6622D02*
X12841Y6632D01*
X12852Y6603D02*
X12861Y6594D01*
X12890Y6622D02*
X12881Y6632D01*
X12783Y6554D02*
X12773Y6564D01*
X12802Y6593D02*
X12812Y6583D01*
X12812Y6564D02*
X12822Y6554D01*
X12851Y6583D02*
X12841Y6593D01*
X12852Y6564D02*
X12861Y6554D01*
X12890Y6583D02*
X12881Y6593D01*
X12733Y6544D02*
X12723Y6553D01*
X12822Y6672D02*
X12812Y6682D01*
X12841Y6711D02*
X12851Y6701D01*
X12743Y6712D02*
X12734Y6721D01*
X12763Y6750D02*
X12772Y6741D01*
X12773Y6682D02*
X12783Y6672D01*
X12812Y6701D02*
X12802Y6711D01*
X12852Y6682D02*
X12861Y6672D01*
X12890Y6701D02*
X12881Y6711D01*
X12822Y6987D02*
X12812Y6997D01*
X12841Y7026D02*
X12851Y7016D01*
X12822Y7184D02*
X12812Y7194D01*
X12841Y7223D02*
X12851Y7213D01*
X12812Y7154D02*
X12822Y7145D01*
X12851Y7174D02*
X12841Y7183D01*
X12812Y7115D02*
X12822Y7105D01*
X12851Y7134D02*
X12841Y7144D01*
X12743Y7145D02*
X12734Y7154D01*
X12763Y7183D02*
X12772Y7174D01*
X12743Y7184D02*
X12734Y7194D01*
X12763Y7223D02*
X12772Y7213D01*
X12734Y7036D02*
X12743Y7027D01*
X12772Y7056D02*
X12763Y7065D01*
X12861Y7263D02*
X12852Y7272D01*
X12881Y7301D02*
X12890Y7292D01*
X12812Y6918D02*
X12822Y6908D01*
X12851Y6937D02*
X12841Y6947D01*
X12783Y7657D02*
X12773Y7666D01*
X12802Y7695D02*
X12812Y7685D01*
X12733Y7646D02*
X12723Y7656D01*
X12704Y7498D02*
X12694Y7489D01*
X12723Y7460D02*
X12733Y7469D01*
X12852Y7646D02*
X12861Y7656D01*
X12890Y7627D02*
X12881Y7617D01*
X12861Y7616D02*
X12852Y7607D01*
X12881Y7578D02*
X12890Y7587D01*
X12822Y7498D02*
X12812Y7489D01*
X12841Y7460D02*
X12851Y7469D01*
X12704Y7538D02*
X12694Y7528D01*
X12704Y6593D02*
X12694Y6583D01*
X12694Y7685D02*
X12704Y7695D01*
X12704Y7538D02*
X12694Y7528D01*
Y7607D02*
X12704Y7616D01*
Y7577D02*
X12694Y7567D01*
X12704Y7459D02*
X12694Y7449D01*
X12704Y7144D02*
X12694Y7134D01*
X12694Y7174D02*
X12704Y7183D01*
X12694Y7410D02*
X12704Y7420D01*
Y7380D02*
X12694Y7371D01*
X12704Y6553D02*
X12694Y6544D01*
Y7646D02*
X12704Y7656D01*
X12733Y6490D02*
X12694Y6452D01*
X12812Y7607D02*
X12822Y7616D01*
X12851Y7587D02*
X12841Y7578D01*
X12783Y7616D02*
X12773Y7607D01*
X12802Y7578D02*
X12812Y7587D01*
X12783Y7498D02*
X12773Y7489D01*
X12802Y7460D02*
X12812Y7469D01*
X12733Y7509D02*
X12723Y7499D01*
X12822Y6790D02*
X12812Y6780D01*
X12841Y6751D02*
X12851Y6761D01*
X12783Y6632D02*
X12773Y6622D01*
X12802Y6594D02*
X12812Y6603D01*
X12733Y6564D02*
X12723Y6554D01*
X12723Y7657D02*
X12733Y7666D01*
X12773Y7646D02*
X12783Y7656D01*
X12812Y7627D02*
X12802Y7617D01*
X12861Y7262D02*
X12852Y7252D01*
X12881Y7223D02*
X12890Y7233D01*
X12822Y7301D02*
X12812Y7292D01*
X12841Y7263D02*
X12851Y7272D01*
X12822Y6986D02*
X12812Y6977D01*
X12841Y6948D02*
X12851Y6958D01*
X12852Y7016D02*
X12861Y7026D01*
X12890Y6997D02*
X12881Y6987D01*
X12852Y7056D02*
X12861Y7065D01*
X12890Y7036D02*
X12881Y7027D01*
X12852Y7095D02*
X12861Y7105D01*
X12890Y7076D02*
X12881Y7066D01*
X12852Y7174D02*
X12861Y7183D01*
X12890Y7154D02*
X12881Y7145D01*
X12852Y7213D02*
X12861Y7223D01*
X12890Y7194D02*
X12881Y7184D01*
X12861Y6986D02*
X12852Y6977D01*
X12881Y6948D02*
X12890Y6958D01*
X12812Y7252D02*
X12822Y7262D01*
X12851Y7233D02*
X12841Y7223D01*
X12822Y7065D02*
X12812Y7056D01*
X12841Y7027D02*
X12851Y7036D01*
X12812Y7095D02*
X12822Y7105D01*
X12851Y7076D02*
X12841Y7066D01*
X12734Y7371D02*
X12743Y7380D01*
X12772Y7351D02*
X12763Y7342D01*
X12773Y7371D02*
X12783Y7380D01*
X12812Y7351D02*
X12802Y7342D01*
X12812Y7371D02*
X12822Y7380D01*
X12851Y7351D02*
X12841Y7342D01*
X12743Y7262D02*
X12734Y7252D01*
X12763Y7223D02*
X12772Y7233D01*
X12734Y7292D02*
X12743Y7301D01*
X12772Y7272D02*
X12763Y7263D01*
X12734Y7331D02*
X12743Y7341D01*
X12772Y7312D02*
X12763Y7302D01*
X12852Y7371D02*
X12861Y7380D01*
X12890Y7351D02*
X12881Y7342D01*
X12743Y7105D02*
X12734Y7095D01*
X12763Y7066D02*
X12772Y7076D01*
X12743Y7026D02*
X12734Y7016D01*
X12763Y6987D02*
X12772Y6997D01*
X12743Y6986D02*
X12734Y6977D01*
X12763Y6948D02*
X12772Y6958D01*
X12743Y6947D02*
X12734Y6937D01*
X12763Y6908D02*
X12772Y6918D01*
X12743Y6908D02*
X12734Y6898D01*
X12763Y6869D02*
X12772Y6879D01*
X12773Y6898D02*
X12783Y6908D01*
X12812Y6879D02*
X12802Y6869D01*
X12812Y6898D02*
X12822Y6908D01*
X12851Y6879D02*
X12841Y6869D01*
X12734Y7567D02*
X12743Y7577D01*
X12772Y7548D02*
X12763Y7538D01*
X12733Y7509D02*
X12723Y7499D01*
X12723Y7499D01*
X12852Y7567D02*
X12861Y7577D01*
X12890Y7548D02*
X12881Y7538D01*
X12861Y7538D02*
X12852Y7528D01*
X12881Y7499D02*
X12890Y7509D01*
X12822Y7577D02*
X12812Y7567D01*
X12841Y7538D02*
X12851Y7548D01*
X12822Y7538D02*
X12812Y7528D01*
X12841Y7499D02*
X12851Y7509D01*
X12783Y7577D02*
X12773Y7567D01*
X12802Y7538D02*
X12812Y7548D01*
X12734Y7646D02*
X12743Y7656D01*
X12772Y7627D02*
X12763Y7617D01*
X12763Y7617D01*
X12743Y7616D02*
X12734Y7607D01*
X12763Y7578D02*
X12772Y7587D01*
X12733D02*
X12723Y7578D01*
X12743Y7538D02*
X12734Y7528D01*
X12763Y7499D02*
X12772Y7509D01*
X12733Y7548D02*
X12723Y7538D01*
X12743Y7498D02*
X12734Y7489D01*
X12763Y7460D02*
X12772Y7469D01*
X12733Y7430D02*
X12723Y7420D01*
X12812Y7646D02*
X12822Y7656D01*
X12851Y7627D02*
X12841Y7617D01*
X12822Y7616D02*
X12812Y7607D01*
X12851Y7587D02*
X12851Y7587D01*
X12851Y7587D02*
X12841Y7578D01*
X12783Y7616D02*
X12773Y7607D01*
X12812Y7587D02*
X12812Y7587D01*
X12812Y7587D02*
X12802Y7578D01*
X12733Y7115D02*
X12723Y7105D01*
X12723Y7145D02*
X12733Y7154D01*
X12734Y7646D02*
X12743Y7656D01*
X12772Y7627D02*
X12763Y7617D01*
X12733Y7391D02*
X12723Y7381D01*
X12733Y7351D02*
X12723Y7342D01*
X12783Y6671D02*
X12773Y6662D01*
X12802Y6633D02*
X12812Y6643D01*
X12822Y6632D02*
X12812Y6622D01*
X12841Y6594D02*
X12851Y6603D01*
X12852Y6622D02*
X12861Y6632D01*
X12890Y6603D02*
X12881Y6594D01*
X12783Y6593D02*
X12773Y6583D01*
X12802Y6554D02*
X12812Y6564D01*
X12812Y6583D02*
X12822Y6593D01*
X12851Y6564D02*
X12841Y6554D01*
X12852Y6583D02*
X12861Y6593D01*
X12890Y6564D02*
X12881Y6554D01*
X12812Y6701D02*
X12822Y6711D01*
X12851Y6682D02*
X12841Y6672D01*
X12743Y6750D02*
X12734Y6741D01*
X12763Y6712D02*
X12772Y6721D01*
X12783Y6711D02*
X12773Y6701D01*
X12802Y6672D02*
X12812Y6682D01*
X12852Y6701D02*
X12861Y6711D01*
X12890Y6682D02*
X12881Y6672D01*
X12812Y7016D02*
X12822Y7026D01*
X12851Y6997D02*
X12841Y6987D01*
X12812Y7213D02*
X12822Y7223D01*
X12851Y7194D02*
X12841Y7184D01*
X12822Y7183D02*
X12812Y7174D01*
X12841Y7145D02*
X12851Y7154D01*
X12822Y7144D02*
X12812Y7134D01*
X12841Y7105D02*
X12851Y7115D01*
X12743Y7183D02*
X12734Y7174D01*
X12763Y7145D02*
X12772Y7154D01*
X12734Y7213D02*
X12743Y7223D01*
X12772Y7194D02*
X12763Y7184D01*
X12743Y7065D02*
X12734Y7056D01*
X12763Y7027D02*
X12772Y7036D01*
X12852Y7292D02*
X12861Y7301D01*
X12890Y7272D02*
X12881Y7263D01*
X12822Y6947D02*
X12812Y6937D01*
X12841Y6908D02*
X12851Y6918D01*
X12773Y7685D02*
X12783Y7695D01*
X12812Y7666D02*
X12802Y7657D01*
X12733Y7627D02*
X12723Y7617D01*
X12773Y6530D02*
X12757Y6515D01*
X12733Y6490D01*
X12723Y6515D02*
X12733Y6524D01*
X12890Y7627D02*
Y7646D01*
Y7607D02*
Y7587D01*
X12891Y7410D02*
Y7391D01*
Y7430D02*
Y7449D01*
Y7469D02*
Y7489D01*
Y7587D02*
Y7607D01*
Y7627D02*
Y7646D01*
X12930Y7410D02*
Y7391D01*
X12969D02*
Y7410D01*
X12930Y7469D02*
Y7489D01*
X12969D02*
Y7469D01*
X12930Y7410D02*
Y7391D01*
Y7430D02*
Y7449D01*
Y7469D02*
Y7489D01*
X12930Y7567D02*
Y7567D01*
Y7567D02*
Y7548D01*
Y7548D01*
X12969Y7567D02*
Y7567D01*
Y7567D02*
Y7548D01*
Y7548D01*
X12930Y7587D02*
Y7607D01*
X12969D02*
Y7587D01*
X12930D02*
Y7607D01*
X12930Y7627D02*
Y7646D01*
X12969D02*
Y7627D01*
X12930D02*
Y7646D01*
X12930Y7449D02*
Y7430D01*
X12969D02*
Y7449D01*
X12890Y7252D02*
Y7233D01*
Y7016D02*
Y6997D01*
Y7036D02*
Y7056D01*
Y7076D02*
Y7095D01*
Y7154D02*
Y7174D01*
Y7194D02*
Y7213D01*
Y6977D02*
Y6958D01*
Y7351D02*
Y7371D01*
Y7548D02*
Y7567D01*
Y7528D02*
Y7509D01*
Y6622D02*
Y6603D01*
Y6583D02*
Y6564D01*
X12890Y6682D02*
Y6701D01*
X12890Y7272D02*
Y7292D01*
X12891Y7509D02*
Y7528D01*
Y7213D02*
Y7194D01*
Y7056D02*
Y7036D01*
Y7016D02*
Y6997D01*
Y7115D02*
Y7134D01*
Y7154D02*
Y7174D01*
Y7095D02*
Y7076D01*
Y7272D02*
Y7292D01*
Y7567D02*
Y7567D01*
Y7567D02*
Y7548D01*
Y7548D01*
X12891Y7548D02*
Y7567D01*
X12891Y6662D02*
Y6643D01*
Y6622D02*
Y6603D01*
Y6682D02*
Y6701D01*
Y6958D02*
Y6977D01*
Y7351D02*
Y7371D01*
X12930Y6741D02*
Y6721D01*
X12969D02*
Y6741D01*
X12930Y7509D02*
Y7528D01*
Y7213D02*
Y7194D01*
X12930Y7174D02*
Y7154D01*
X12969D02*
Y7174D01*
X12970Y7134D02*
Y7115D01*
X13008D02*
Y7134D01*
X13009Y7095D02*
Y7076D01*
X13048D02*
Y7095D01*
X13049Y7056D02*
Y7036D01*
Y7076D02*
Y7095D01*
X13009Y7115D02*
Y7134D01*
X13048D02*
Y7115D01*
X12970Y7154D02*
Y7174D01*
X13008D02*
Y7154D01*
X12930Y7194D02*
Y7213D01*
X12969D02*
Y7194D01*
X12930Y7233D02*
Y7252D01*
X12969D02*
Y7233D01*
X12970Y7213D02*
Y7194D01*
X13008D02*
Y7213D01*
X13009Y7174D02*
Y7154D01*
X13048D02*
Y7174D01*
X13049Y7134D02*
Y7115D01*
Y7154D02*
Y7174D01*
X13009Y7194D02*
Y7213D01*
X13048D02*
Y7194D01*
X12970Y7233D02*
Y7252D01*
X13008D02*
Y7233D01*
X13049Y7213D02*
Y7194D01*
X13009Y7233D02*
Y7252D01*
X13048D02*
Y7233D01*
X12930Y7056D02*
Y7036D01*
X12930Y7076D02*
Y7095D01*
X12969D02*
Y7076D01*
X13049Y7016D02*
Y6997D01*
X13009Y7036D02*
Y7056D01*
X13048D02*
Y7036D01*
X12970Y7076D02*
Y7095D01*
X13008D02*
Y7076D01*
X12970Y7056D02*
Y7036D01*
X13008D02*
Y7056D01*
X12970Y7016D02*
Y6997D01*
X13008D02*
Y7016D01*
X13009D02*
Y6997D01*
X13048D02*
Y7016D01*
X12930D02*
Y6997D01*
X12969D02*
Y7016D01*
X12930D02*
Y6997D01*
X12930Y7036D02*
Y7056D01*
X12969D02*
Y7036D01*
X12930Y7115D02*
Y7134D01*
X12930D02*
Y7115D01*
X12969D02*
Y7134D01*
X12930Y7154D02*
Y7174D01*
Y7095D02*
Y7076D01*
X12970Y6977D02*
Y6958D01*
X13008D02*
Y6977D01*
X13049D02*
Y6958D01*
X12930D02*
Y6977D01*
X12969D02*
Y6958D01*
X12930Y7272D02*
Y7292D01*
X12930D02*
Y7272D01*
X12969D02*
Y7292D01*
X12970D02*
Y7272D01*
X13008D02*
Y7292D01*
X13009D02*
Y7272D01*
X13048D02*
Y7292D01*
X13049D02*
Y7272D01*
X12930Y7351D02*
Y7371D01*
X12969D02*
Y7351D01*
X13009D02*
Y7371D01*
X13048D02*
Y7351D01*
X12930Y7545D02*
Y7548D01*
X12969D02*
Y7545D01*
X12930Y7528D02*
Y7528D01*
Y7509D01*
Y7509D01*
X12969Y7509D02*
Y7528D01*
X12930Y7548D02*
Y7567D01*
X12930Y7528D02*
Y7509D01*
X12969Y7528D02*
Y7528D01*
Y7528D02*
Y7509D01*
Y7509D01*
X12930Y7545D02*
Y7548D01*
X12969D02*
Y7545D01*
X12930Y7567D02*
Y7567D01*
Y7567D02*
Y7548D01*
Y7548D01*
X12930Y6662D02*
Y6643D01*
X12930Y6643D02*
Y6662D01*
X12969D02*
Y6643D01*
X12970D02*
Y6662D01*
X13008D02*
Y6643D01*
X13009Y6643D02*
Y6662D01*
X13048D02*
Y6643D01*
X12930Y6622D02*
Y6603D01*
X12930D02*
Y6622D01*
X12969D02*
Y6603D01*
X12970Y6721D02*
Y6741D01*
X13008D02*
Y6721D01*
X12930Y6701D02*
Y6682D01*
X12930D02*
Y6701D01*
X12969D02*
Y6682D01*
X12970Y6682D02*
Y6701D01*
X13008D02*
Y6682D01*
X13009D02*
Y6701D01*
X13048D02*
Y6682D01*
X13049D02*
Y6701D01*
Y7469D02*
Y7489D01*
X12930Y6977D02*
Y6958D01*
X13009D02*
Y6977D01*
X13048D02*
Y6958D01*
X12970Y6898D02*
Y6879D01*
X13008D02*
Y6898D01*
X13049Y7351D02*
Y7371D01*
X12930D02*
Y7351D01*
X13009Y6622D02*
Y6603D01*
X13048D02*
Y6622D01*
X12970Y6918D02*
Y6937D01*
X13008D02*
Y6918D01*
X13009Y6780D02*
Y6761D01*
X13048D02*
Y6780D01*
X12901Y7381D02*
X12891Y7391D01*
X12901Y7420D02*
X12891Y7430D01*
X12901Y7460D02*
X12891Y7469D01*
X12901Y7578D02*
X12891Y7587D01*
X12901Y7617D02*
X12891Y7627D01*
X12930Y7391D02*
X12940Y7381D01*
X12969Y7410D02*
X12959Y7420D01*
X12940Y7460D02*
X12930Y7469D01*
X12959Y7498D02*
X12969Y7489D01*
X12920Y7420D02*
X12930Y7410D01*
Y7449D02*
X12920Y7459D01*
X12930Y7489D02*
X12920Y7498D01*
X12940Y7578D02*
X12930Y7587D01*
X12959Y7616D02*
X12969Y7607D01*
X12930D02*
X12920Y7616D01*
X12930Y7627D02*
X12940Y7617D01*
X12969Y7646D02*
X12959Y7656D01*
X12930Y7646D02*
X12920Y7656D01*
X12930Y7430D02*
X12940Y7420D01*
X12969Y7449D02*
X12959Y7459D01*
X12901Y7499D02*
X12891Y7509D01*
Y7194D02*
X12901Y7184D01*
X12891Y7036D02*
X12901Y7027D01*
X12891Y6997D02*
X12901Y6987D01*
Y7105D02*
X12891Y7115D01*
X12901Y7145D02*
X12891Y7154D01*
Y7076D02*
X12901Y7066D01*
Y7263D02*
X12891Y7272D01*
X12901Y7538D02*
X12891Y7548D01*
X12891D02*
X12901Y7538D01*
X12891Y6643D02*
X12901Y6633D01*
X12891Y6603D02*
X12901Y6594D01*
Y6672D02*
X12891Y6682D01*
X12901Y6948D02*
X12891Y6958D01*
X12901Y7342D02*
X12891Y7351D01*
X12930Y6721D02*
X12940Y6712D01*
X12969Y6741D02*
X12959Y6750D01*
X12930Y7528D02*
X12920Y7538D01*
Y7223D02*
X12930Y7213D01*
X12930Y7154D02*
X12940Y7145D01*
X12969Y7174D02*
X12959Y7183D01*
X12970Y7115D02*
X12979Y7105D01*
X13008Y7134D02*
X12999Y7144D01*
X13009Y7076D02*
X13019Y7066D01*
X13048Y7095D02*
X13038Y7105D01*
X13049Y7036D02*
X13058Y7027D01*
X13087Y7056D02*
X13078Y7065D01*
X13058Y7066D02*
X13049Y7076D01*
X13078Y7105D02*
X13087Y7095D01*
X13019Y7105D02*
X13009Y7115D01*
X13038Y7144D02*
X13048Y7134D01*
X12979Y7145D02*
X12970Y7154D01*
X12999Y7183D02*
X13008Y7174D01*
X12940Y7184D02*
X12930Y7194D01*
X12959Y7223D02*
X12969Y7213D01*
X12940Y7223D02*
X12930Y7233D01*
X12959Y7262D02*
X12969Y7252D01*
X12970Y7194D02*
X12979Y7184D01*
X13008Y7213D02*
X12999Y7223D01*
X13009Y7154D02*
X13019Y7145D01*
X13048Y7174D02*
X13038Y7183D01*
X13049Y7115D02*
X13058Y7105D01*
X13087Y7134D02*
X13078Y7144D01*
X13058Y7145D02*
X13049Y7154D01*
X13078Y7183D02*
X13087Y7174D01*
X13019Y7184D02*
X13009Y7194D01*
X13038Y7223D02*
X13048Y7213D01*
X12979Y7223D02*
X12970Y7233D01*
X12999Y7262D02*
X13008Y7252D01*
X13049Y7194D02*
X13058Y7184D01*
X13087Y7213D02*
X13078Y7223D01*
X13019Y7223D02*
X13009Y7233D01*
X13038Y7262D02*
X13048Y7252D01*
X12920Y7065D02*
X12930Y7056D01*
X12940Y7066D02*
X12930Y7076D01*
X12959Y7105D02*
X12969Y7095D01*
X13049Y6997D02*
X13058Y6987D01*
X13087Y7016D02*
X13078Y7026D01*
X13019Y7027D02*
X13009Y7036D01*
X13038Y7065D02*
X13048Y7056D01*
X12979Y7066D02*
X12970Y7076D01*
X12999Y7105D02*
X13008Y7095D01*
X12970Y7036D02*
X12979Y7027D01*
X13008Y7056D02*
X12999Y7065D01*
X12970Y6997D02*
X12979Y6987D01*
X13008Y7016D02*
X12999Y7026D01*
X13009Y6997D02*
X13019Y6987D01*
X13048Y7016D02*
X13038Y7026D01*
X12940Y6987D02*
X12930Y6997D01*
X12959Y7026D02*
X12969Y7016D01*
X12930D02*
X12920Y7026D01*
X12930Y7036D02*
X12940Y7027D01*
X12969Y7056D02*
X12959Y7065D01*
X12930Y7134D02*
X12920Y7144D01*
X12930Y7115D02*
X12940Y7105D01*
X12969Y7134D02*
X12959Y7144D01*
X12930Y7174D02*
X12920Y7183D01*
Y7105D02*
X12930Y7095D01*
X12970Y6958D02*
X12979Y6948D01*
X13008Y6977D02*
X12999Y6986D01*
X13049Y6958D02*
X13058Y6948D01*
X13087Y6977D02*
X13078Y6986D01*
X12940Y6948D02*
X12930Y6958D01*
X12959Y6986D02*
X12969Y6977D01*
X12930Y7292D02*
X12920Y7301D01*
X12930Y7272D02*
X12940Y7263D01*
X12969Y7292D02*
X12959Y7301D01*
X12970Y7272D02*
X12979Y7263D01*
X13008Y7292D02*
X12999Y7301D01*
X13009Y7272D02*
X13019Y7263D01*
X13048Y7292D02*
X13038Y7301D01*
X13049Y7272D02*
X13058Y7263D01*
X13087Y7292D02*
X13078Y7301D01*
X12940Y7342D02*
X12930Y7351D01*
X12959Y7380D02*
X12969Y7371D01*
X13009Y7351D02*
X13019Y7342D01*
X13048Y7371D02*
X13038Y7380D01*
X12940Y7538D02*
X12930Y7548D01*
X12959Y7577D02*
X12969Y7567D01*
X12930Y7509D02*
X12940Y7499D01*
X12969Y7528D02*
X12959Y7538D01*
X12969Y7528D02*
X12969Y7528D01*
X12930Y7567D02*
X12920Y7577D01*
X12930Y7567D02*
X12930Y7567D01*
X12930Y7509D02*
X12940Y7499D01*
X12969Y7528D02*
X12959Y7538D01*
X12940Y7538D02*
X12930Y7548D01*
X12940Y7538D02*
X12940Y7538D01*
X12969Y7567D02*
X12959Y7577D01*
X12930Y7567D02*
X12920Y7577D01*
X12920Y6671D02*
X12930Y6662D01*
X12930Y6643D02*
X12940Y6633D01*
X12969Y6662D02*
X12959Y6671D01*
X12970Y6643D02*
X12979Y6633D01*
X13008Y6662D02*
X12999Y6671D01*
X13009Y6643D02*
X13019Y6633D01*
X13048Y6662D02*
X13038Y6671D01*
X12930Y6622D02*
X12920Y6632D01*
X12930Y6603D02*
X12940Y6594D01*
X12969Y6622D02*
X12959Y6632D01*
X12979Y6712D02*
X12970Y6721D01*
X12999Y6750D02*
X13008Y6741D01*
X12930Y6701D02*
X12920Y6711D01*
X12930Y6682D02*
X12940Y6672D01*
X12969Y6701D02*
X12959Y6711D01*
X12970Y6682D02*
X12979Y6672D01*
X13008Y6701D02*
X12999Y6711D01*
X13009Y6682D02*
X13019Y6672D01*
X13048Y6701D02*
X13038Y6711D01*
X13049Y6682D02*
X13058Y6672D01*
X13087Y6701D02*
X13078Y6711D01*
X13058Y7460D02*
X13049Y7469D01*
X13078Y7498D02*
X13087Y7489D01*
X12920Y6986D02*
X12930Y6977D01*
X13009Y6958D02*
X13019Y6948D01*
X13048Y6977D02*
X13038Y6986D01*
X12970Y6879D02*
X12979Y6869D01*
X13008Y6898D02*
X12999Y6908D01*
X13058Y7342D02*
X13049Y7351D01*
X13078Y7380D02*
X13087Y7371D01*
X12930D02*
X12920Y7380D01*
X13009Y6603D02*
X13019Y6594D01*
X13048Y6622D02*
X13038Y6632D01*
X12979Y6908D02*
X12970Y6918D01*
X12999Y6947D02*
X13008Y6937D01*
X13009Y6761D02*
X13019Y6751D01*
X13048Y6780D02*
X13038Y6790D01*
X12891Y7410D02*
X12901Y7420D01*
X12891Y7449D02*
X12901Y7459D01*
X12891Y7489D02*
X12901Y7498D01*
X12891Y7607D02*
X12901Y7616D01*
X12891Y7646D02*
X12901Y7656D01*
X12940Y7420D02*
X12930Y7410D01*
X12959Y7381D02*
X12969Y7391D01*
X12930Y7489D02*
X12940Y7498D01*
X12969Y7469D02*
X12959Y7460D01*
X12930Y7391D02*
X12920Y7381D01*
Y7420D02*
X12930Y7430D01*
X12920Y7460D02*
X12930Y7469D01*
X12930Y7607D02*
X12940Y7616D01*
X12969Y7587D02*
X12959Y7578D01*
X12930Y7587D02*
X12920Y7578D01*
X12930Y7646D02*
X12940Y7656D01*
X12969Y7627D02*
X12959Y7617D01*
X12930Y7627D02*
X12920Y7617D01*
X12940Y7459D02*
X12930Y7449D01*
X12959Y7420D02*
X12969Y7430D01*
X12891Y7528D02*
X12901Y7538D01*
Y7223D02*
X12891Y7213D01*
X12901Y7065D02*
X12891Y7056D01*
X12901Y7026D02*
X12891Y7016D01*
Y7134D02*
X12901Y7144D01*
X12891Y7174D02*
X12901Y7183D01*
Y7105D02*
X12891Y7095D01*
Y7292D02*
X12901Y7301D01*
X12891Y7567D02*
X12901Y7577D01*
X12901D02*
X12891Y7567D01*
X12901Y6671D02*
X12891Y6662D01*
X12901Y6632D02*
X12891Y6622D01*
Y6701D02*
X12901Y6711D01*
X12891Y6977D02*
X12901Y6986D01*
X12891Y7371D02*
X12901Y7380D01*
X12940Y6750D02*
X12930Y6741D01*
X12959Y6712D02*
X12969Y6721D01*
X12920Y7499D02*
X12930Y7509D01*
Y7194D02*
X12920Y7184D01*
X12930Y7174D02*
X12940Y7183D01*
X12969Y7154D02*
X12959Y7145D01*
X12970Y7134D02*
X12979Y7144D01*
X13008Y7115D02*
X12999Y7105D01*
X13009Y7095D02*
X13019Y7105D01*
X13048Y7076D02*
X13038Y7066D01*
X13049Y7056D02*
X13058Y7065D01*
X13087Y7036D02*
X13078Y7027D01*
X13049Y7095D02*
X13058Y7105D01*
X13087Y7076D02*
X13078Y7066D01*
X13009Y7134D02*
X13019Y7144D01*
X13048Y7115D02*
X13038Y7105D01*
X12970Y7174D02*
X12979Y7183D01*
X13008Y7154D02*
X12999Y7145D01*
X12930Y7213D02*
X12940Y7223D01*
X12969Y7194D02*
X12959Y7184D01*
X12930Y7252D02*
X12940Y7262D01*
X12969Y7233D02*
X12959Y7223D01*
X12970Y7213D02*
X12979Y7223D01*
X13008Y7194D02*
X12999Y7184D01*
X13009Y7174D02*
X13019Y7183D01*
X13048Y7154D02*
X13038Y7145D01*
X13049Y7134D02*
X13058Y7144D01*
X13087Y7115D02*
X13078Y7105D01*
X13049Y7174D02*
X13058Y7183D01*
X13087Y7154D02*
X13078Y7145D01*
X13009Y7213D02*
X13019Y7223D01*
X13048Y7194D02*
X13038Y7184D01*
X12970Y7252D02*
X12979Y7262D01*
X13008Y7233D02*
X12999Y7223D01*
X13049Y7213D02*
X13058Y7223D01*
X13087Y7194D02*
X13078Y7184D01*
X13009Y7252D02*
X13019Y7262D01*
X13048Y7233D02*
X13038Y7223D01*
X12930Y7036D02*
X12920Y7027D01*
X12930Y7095D02*
X12940Y7105D01*
X12969Y7076D02*
X12959Y7066D01*
X13049Y7016D02*
X13058Y7026D01*
X13087Y6997D02*
X13078Y6987D01*
X13009Y7056D02*
X13019Y7065D01*
X13048Y7036D02*
X13038Y7027D01*
X12970Y7095D02*
X12979Y7105D01*
X13008Y7076D02*
X12999Y7066D01*
X12979Y7065D02*
X12970Y7056D01*
X12999Y7027D02*
X13008Y7036D01*
X12979Y7026D02*
X12970Y7016D01*
X12999Y6987D02*
X13008Y6997D01*
X13009Y7016D02*
X13019Y7026D01*
X13048Y6997D02*
X13038Y6987D01*
X12940Y7026D02*
X12930Y7016D01*
X12959Y6987D02*
X12969Y6997D01*
X12930D02*
X12920Y6987D01*
X12930Y7056D02*
X12940Y7065D01*
X12969Y7036D02*
X12959Y7027D01*
X12920Y7105D02*
X12930Y7115D01*
X12930Y7134D02*
X12940Y7144D01*
X12969Y7115D02*
X12959Y7105D01*
X12920Y7145D02*
X12930Y7154D01*
Y7076D02*
X12920Y7066D01*
X12979Y6986D02*
X12970Y6977D01*
X12999Y6948D02*
X13008Y6958D01*
X13049Y6977D02*
X13058Y6986D01*
X13087Y6958D02*
X13078Y6948D01*
X12940Y6986D02*
X12930Y6977D01*
X12959Y6948D02*
X12969Y6958D01*
X12920Y7263D02*
X12930Y7272D01*
X12930Y7292D02*
X12940Y7301D01*
X12969Y7272D02*
X12959Y7263D01*
X12970Y7292D02*
X12979Y7301D01*
X13008Y7272D02*
X12999Y7263D01*
X13009Y7292D02*
X13019Y7301D01*
X13048Y7272D02*
X13038Y7263D01*
X13049Y7292D02*
X13058Y7301D01*
X13087Y7272D02*
X13078Y7263D01*
X12940Y7380D02*
X12930Y7371D01*
X12959Y7342D02*
X12969Y7351D01*
X13009Y7371D02*
X13019Y7380D01*
X13048Y7351D02*
X13038Y7342D01*
X12930Y7567D02*
X12940Y7577D01*
X12969Y7548D02*
X12959Y7538D01*
X12940Y7538D02*
X12930Y7528D01*
X12969Y7509D02*
X12969Y7509D01*
X12969Y7509D02*
X12959Y7499D01*
X12930Y7548D02*
X12930Y7548D01*
X12930Y7548D02*
X12920Y7538D01*
X12930Y7528D02*
X12940Y7538D01*
X12969Y7509D02*
X12959Y7499D01*
X12930Y7567D02*
X12940Y7577D01*
X12969Y7548D02*
X12959Y7538D01*
X12959Y7538D01*
X12930Y7548D02*
X12920Y7538D01*
X12930Y6643D02*
X12920Y6633D01*
X12930Y6662D02*
X12940Y6671D01*
X12969Y6643D02*
X12959Y6633D01*
X12970Y6662D02*
X12979Y6671D01*
X13008Y6643D02*
X12999Y6633D01*
X13009Y6662D02*
X13019Y6671D01*
X13048Y6643D02*
X13038Y6633D01*
X12930Y6603D02*
X12920Y6594D01*
X12930Y6622D02*
X12940Y6632D01*
X12969Y6603D02*
X12959Y6594D01*
X12970Y6741D02*
X12979Y6750D01*
X13008Y6721D02*
X12999Y6712D01*
X12930Y6682D02*
X12920Y6672D01*
X12930Y6701D02*
X12940Y6711D01*
X12969Y6682D02*
X12959Y6672D01*
X12970Y6701D02*
X12979Y6711D01*
X13008Y6682D02*
X12999Y6672D01*
X13009Y6701D02*
X13019Y6711D01*
X13048Y6682D02*
X13038Y6672D01*
X13049Y6701D02*
X13058Y6711D01*
X13087Y6682D02*
X13078Y6672D01*
X13049Y7489D02*
X13058Y7498D01*
X13087Y7469D02*
X13078Y7460D01*
X12930Y6958D02*
X12920Y6948D01*
X13009Y6977D02*
X13019Y6986D01*
X13048Y6958D02*
X13038Y6948D01*
X12979Y6908D02*
X12970Y6898D01*
X12999Y6869D02*
X13008Y6879D01*
X13049Y7371D02*
X13058Y7380D01*
X13087Y7351D02*
X13078Y7342D01*
X12930Y7351D02*
X12920Y7342D01*
X13019Y6632D02*
X13009Y6622D01*
X13038Y6594D02*
X13048Y6603D01*
X12970Y6937D02*
X12979Y6947D01*
X13008Y6918D02*
X12999Y6908D01*
X13019Y6790D02*
X13009Y6780D01*
X13038Y6751D02*
X13048Y6761D01*
X13205Y6879D02*
Y6898D01*
X13245Y7391D02*
Y7405D01*
X13205Y7371D02*
Y7351D01*
X13245D02*
Y7371D01*
X13206D02*
Y7351D01*
X13245Y6898D02*
Y6879D01*
X13206D02*
Y6898D01*
X13178Y7380D02*
Y7405D01*
X13177Y6869D02*
Y6860D01*
Y6908D02*
Y7342D01*
Y7380D02*
Y7396D01*
X13087Y7056D02*
Y7036D01*
Y7076D02*
Y7095D01*
Y7115D02*
Y7134D01*
Y7154D02*
Y7174D01*
Y7194D02*
Y7213D01*
Y7016D02*
Y6997D01*
Y6977D02*
Y6958D01*
Y7272D02*
Y7292D01*
Y6701D02*
Y6682D01*
Y7469D02*
Y7489D01*
Y7371D02*
Y7351D01*
X13088Y7016D02*
Y6997D01*
Y7036D02*
Y7056D01*
Y7076D02*
Y7095D01*
Y7154D02*
Y7174D01*
Y7233D02*
Y7252D01*
Y7272D02*
Y7292D01*
Y6780D02*
Y6761D01*
Y6741D02*
Y6721D01*
Y6701D02*
Y6682D01*
Y6958D02*
Y6977D01*
Y7351D02*
Y7371D01*
X13127Y7469D02*
Y7489D01*
X13166D02*
Y7469D01*
X13167Y7627D02*
Y7646D01*
X13205D02*
Y7627D01*
X13127Y7016D02*
Y6997D01*
X13127Y6977D02*
Y6958D01*
X13166D02*
Y6977D01*
X13127Y7036D02*
Y7056D01*
Y7076D02*
Y7095D01*
Y7154D02*
Y7174D01*
Y7233D02*
Y7252D01*
X13127Y7272D02*
Y7292D01*
X13166D02*
Y7272D01*
X13127D02*
Y7292D01*
X13127Y7095D02*
Y7076D01*
X13166D02*
Y7095D01*
X13127Y7154D02*
Y7174D01*
X13166D02*
Y7154D01*
X13127Y6898D02*
Y6879D01*
X13166D02*
Y6898D01*
X13167D02*
Y6879D01*
X13206Y6918D02*
Y6937D01*
X13245D02*
Y6918D01*
X13206Y6958D02*
Y6977D01*
X13245D02*
Y6958D01*
X13206Y6997D02*
Y7016D01*
X13245D02*
Y6997D01*
X13206Y7115D02*
Y7134D01*
X13245D02*
Y7115D01*
X13206Y7233D02*
Y7252D01*
X13245D02*
Y7233D01*
X13206Y7272D02*
Y7292D01*
X13245D02*
Y7272D01*
X13206Y7312D02*
Y7331D01*
X13245D02*
Y7312D01*
X13245Y7391D02*
Y7410D01*
X13206Y6662D02*
Y6643D01*
X13245D02*
Y6662D01*
X13245D02*
Y6643D01*
X13127Y6761D02*
Y6780D01*
Y6741D02*
Y6721D01*
X13127Y6761D02*
Y6780D01*
X13166D02*
Y6761D01*
X13167Y6741D02*
Y6721D01*
X13205D02*
Y6741D01*
X13245D02*
Y6721D01*
X13127Y6701D02*
Y6682D01*
X13127D02*
Y6701D01*
X13166D02*
Y6682D01*
X13167Y6682D02*
Y6701D01*
X13205D02*
Y6682D01*
X13206D02*
Y6701D01*
X13245D02*
Y6682D01*
X13245Y6682D02*
Y6701D01*
X13167Y6622D02*
Y6603D01*
X13205D02*
Y6622D01*
X13127Y6958D02*
Y6977D01*
X13127Y6997D02*
Y7016D01*
X13166D02*
Y6997D01*
X13127Y7036D02*
Y7056D01*
X13166D02*
Y7036D01*
X13127Y7115D02*
Y7134D01*
X13166D02*
Y7115D01*
X13127Y7194D02*
Y7213D01*
X13166D02*
Y7194D01*
X13127Y7233D02*
Y7252D01*
X13166D02*
Y7233D01*
X13206Y7056D02*
Y7036D01*
X13245D02*
Y7056D01*
X13206Y7076D02*
Y7095D01*
X13245D02*
Y7076D01*
X13206Y7154D02*
Y7174D01*
X13245D02*
Y7154D01*
X13206Y7194D02*
Y7213D01*
X13245D02*
Y7194D01*
X13167Y7351D02*
Y7371D01*
X13127D02*
Y7351D01*
X13166D02*
Y7371D01*
X13127D02*
Y7351D01*
X13206Y6741D02*
Y6721D01*
X13245D02*
Y6741D01*
X13127Y6918D02*
Y6937D01*
X13166D02*
Y6918D01*
X13245Y7430D02*
Y7449D01*
X13167Y6780D02*
Y6761D01*
X13205D02*
Y6780D01*
X13178Y7380D02*
X13177Y7396D01*
X13196Y6908D02*
X13205Y6898D01*
X13255Y7381D02*
X13245Y7391D01*
X13205Y7371D02*
X13196Y7380D01*
X13235D02*
X13245Y7371D01*
X13216Y7342D02*
X13206Y7351D01*
X13235Y6908D02*
X13245Y6898D01*
X13216Y6869D02*
X13206Y6879D01*
X13098Y6987D02*
X13088Y6997D01*
X13098Y7027D02*
X13088Y7036D01*
X13098Y7066D02*
X13088Y7076D01*
X13098Y7145D02*
X13088Y7154D01*
X13098Y7223D02*
X13088Y7233D01*
X13098Y7263D02*
X13088Y7272D01*
Y6761D02*
X13098Y6751D01*
X13088Y6721D02*
X13098Y6712D01*
X13088Y6682D02*
X13098Y6672D01*
Y6948D02*
X13088Y6958D01*
X13098Y7342D02*
X13088Y7351D01*
X13137Y7460D02*
X13127Y7469D01*
X13156Y7498D02*
X13166Y7489D01*
X13176Y7617D02*
X13167Y7627D01*
X13196Y7656D02*
X13205Y7646D01*
X13117Y7026D02*
X13127Y7016D01*
X13127Y6958D02*
X13137Y6948D01*
X13166Y6977D02*
X13156Y6986D01*
X13127Y7056D02*
X13117Y7065D01*
X13127Y7095D02*
X13117Y7105D01*
X13127Y7174D02*
X13117Y7183D01*
X13127Y7252D02*
X13117Y7262D01*
X13127Y7272D02*
X13137Y7263D01*
X13166Y7292D02*
X13156Y7301D01*
X13127Y7292D02*
X13117Y7301D01*
X13127Y7076D02*
X13137Y7066D01*
X13166Y7095D02*
X13156Y7105D01*
X13137Y7145D02*
X13127Y7154D01*
X13156Y7183D02*
X13166Y7174D01*
X13127Y6879D02*
X13137Y6869D01*
X13166Y6898D02*
X13156Y6908D01*
X13167Y6879D02*
X13176Y6869D01*
X13216Y6908D02*
X13206Y6918D01*
X13235Y6947D02*
X13245Y6937D01*
X13216Y6948D02*
X13206Y6958D01*
X13235Y6986D02*
X13245Y6977D01*
X13216Y6987D02*
X13206Y6997D01*
X13235Y7026D02*
X13245Y7016D01*
X13216Y7105D02*
X13206Y7115D01*
X13235Y7144D02*
X13245Y7134D01*
X13216Y7223D02*
X13206Y7233D01*
X13235Y7262D02*
X13245Y7252D01*
X13216Y7263D02*
X13206Y7272D01*
X13235Y7301D02*
X13245Y7292D01*
X13216Y7302D02*
X13206Y7312D01*
X13235Y7341D02*
X13245Y7331D01*
X13284Y7410D02*
X13274Y7420D01*
X13206Y6643D02*
X13216Y6633D01*
X13245Y6662D02*
X13235Y6671D01*
X13245Y6643D02*
X13255Y6633D01*
X13284Y6662D02*
X13274Y6671D01*
X13127Y6780D02*
X13117Y6790D01*
Y6750D02*
X13127Y6741D01*
X13137Y6751D02*
X13127Y6761D01*
X13156Y6790D02*
X13166Y6780D01*
X13167Y6721D02*
X13176Y6712D01*
X13205Y6741D02*
X13196Y6750D01*
X13245Y6721D02*
X13255Y6712D01*
X13284Y6741D02*
X13274Y6750D01*
X13127Y6701D02*
X13117Y6711D01*
X13127Y6682D02*
X13137Y6672D01*
X13166Y6701D02*
X13156Y6711D01*
X13167Y6682D02*
X13176Y6672D01*
X13205Y6701D02*
X13196Y6711D01*
X13206Y6682D02*
X13216Y6672D01*
X13245Y6701D02*
X13235Y6711D01*
X13245Y6682D02*
X13255Y6672D01*
X13284Y6701D02*
X13274Y6711D01*
X13167Y6603D02*
X13176Y6594D01*
X13205Y6622D02*
X13196Y6632D01*
X13127Y6977D02*
X13117Y6986D01*
X13127Y6997D02*
X13137Y6987D01*
X13166Y7016D02*
X13156Y7026D01*
X13137Y7027D02*
X13127Y7036D01*
X13156Y7065D02*
X13166Y7056D01*
X13137Y7105D02*
X13127Y7115D01*
X13156Y7144D02*
X13166Y7134D01*
X13137Y7184D02*
X13127Y7194D01*
X13156Y7223D02*
X13166Y7213D01*
X13137Y7223D02*
X13127Y7233D01*
X13156Y7262D02*
X13166Y7252D01*
X13206Y7036D02*
X13216Y7027D01*
X13245Y7056D02*
X13235Y7065D01*
X13216Y7066D02*
X13206Y7076D01*
X13235Y7105D02*
X13245Y7095D01*
X13216Y7145D02*
X13206Y7154D01*
X13235Y7183D02*
X13245Y7174D01*
X13216Y7184D02*
X13206Y7194D01*
X13235Y7223D02*
X13245Y7213D01*
X13176Y7342D02*
X13167Y7351D01*
X13137Y7342D02*
X13127Y7351D01*
X13156Y7380D02*
X13166Y7371D01*
X13127D02*
X13117Y7380D01*
X13206Y6721D02*
X13216Y6712D01*
X13245Y6741D02*
X13235Y6750D01*
X13137Y6908D02*
X13127Y6918D01*
X13156Y6947D02*
X13166Y6937D01*
X13255Y7420D02*
X13245Y7430D01*
X13274Y7459D02*
X13284Y7449D01*
X13167Y6761D02*
X13176Y6751D01*
X13205Y6780D02*
X13196Y6790D01*
Y6869D02*
X13205Y6879D01*
X13274Y7381D02*
X13284Y7391D01*
X13205Y7351D02*
X13196Y7342D01*
X13235D02*
X13245Y7351D01*
X13216Y7380D02*
X13206Y7371D01*
X13245Y6879D02*
X13235Y6869D01*
X13206Y6898D02*
X13216Y6908D01*
X13098Y7026D02*
X13088Y7016D01*
Y7056D02*
X13098Y7065D01*
X13088Y7095D02*
X13098Y7105D01*
X13088Y7174D02*
X13098Y7183D01*
X13088Y7252D02*
X13098Y7262D01*
X13088Y7292D02*
X13098Y7301D01*
Y6790D02*
X13088Y6780D01*
X13098Y6750D02*
X13088Y6741D01*
X13098Y6711D02*
X13088Y6701D01*
Y6977D02*
X13098Y6986D01*
X13088Y7371D02*
X13098Y7380D01*
X13127Y7489D02*
X13137Y7498D01*
X13166Y7469D02*
X13156Y7460D01*
X13167Y7646D02*
X13176Y7656D01*
X13205Y7627D02*
X13196Y7617D01*
X13127Y6997D02*
X13117Y6987D01*
X13127Y6977D02*
X13137Y6986D01*
X13166Y6958D02*
X13156Y6948D01*
X13117Y7027D02*
X13127Y7036D01*
X13117Y7066D02*
X13127Y7076D01*
X13117Y7145D02*
X13127Y7154D01*
X13117Y7223D02*
X13127Y7233D01*
X13127Y7292D02*
X13137Y7301D01*
X13166Y7272D02*
X13156Y7263D01*
X13127Y7272D02*
X13117Y7263D01*
X13137Y7105D02*
X13127Y7095D01*
X13156Y7066D02*
X13166Y7076D01*
X13127Y7174D02*
X13137Y7183D01*
X13166Y7154D02*
X13156Y7145D01*
X13137Y6908D02*
X13127Y6898D01*
X13156Y6869D02*
X13166Y6879D01*
X13167Y6898D02*
X13176Y6908D01*
X13206Y6937D02*
X13216Y6947D01*
X13245Y6918D02*
X13235Y6908D01*
X13206Y6977D02*
X13216Y6986D01*
X13245Y6958D02*
X13235Y6948D01*
X13206Y7016D02*
X13216Y7026D01*
X13245Y6997D02*
X13235Y6987D01*
X13206Y7134D02*
X13216Y7144D01*
X13245Y7115D02*
X13235Y7105D01*
X13206Y7252D02*
X13216Y7262D01*
X13245Y7233D02*
X13235Y7223D01*
X13206Y7292D02*
X13216Y7301D01*
X13245Y7272D02*
X13235Y7263D01*
X13206Y7331D02*
X13216Y7341D01*
X13245Y7312D02*
X13235Y7302D01*
X13245Y7410D02*
X13255Y7420D01*
X13216Y6671D02*
X13206Y6662D01*
X13235Y6633D02*
X13245Y6643D01*
X13245Y6662D02*
X13255Y6671D01*
X13284Y6643D02*
X13274Y6633D01*
X13127Y6761D02*
X13117Y6751D01*
X13127Y6721D02*
X13117Y6712D01*
X13127Y6780D02*
X13137Y6790D01*
X13166Y6761D02*
X13156Y6751D01*
X13167Y6741D02*
X13176Y6750D01*
X13205Y6721D02*
X13196Y6712D01*
X13245Y6741D02*
X13255Y6750D01*
X13284Y6721D02*
X13274Y6712D01*
X13127Y6682D02*
X13117Y6672D01*
X13127Y6701D02*
X13137Y6711D01*
X13166Y6682D02*
X13156Y6672D01*
X13167Y6701D02*
X13176Y6711D01*
X13205Y6682D02*
X13196Y6672D01*
X13206Y6701D02*
X13216Y6711D01*
X13245Y6682D02*
X13235Y6672D01*
X13245Y6701D02*
X13255Y6711D01*
X13284Y6682D02*
X13274Y6672D01*
X13176Y6632D02*
X13167Y6622D01*
X13196Y6594D02*
X13205Y6603D01*
X13117Y6948D02*
X13127Y6958D01*
X13127Y7016D02*
X13137Y7026D01*
X13166Y6997D02*
X13156Y6987D01*
X13127Y7056D02*
X13137Y7065D01*
X13166Y7036D02*
X13156Y7027D01*
X13127Y7134D02*
X13137Y7144D01*
X13166Y7115D02*
X13156Y7105D01*
X13127Y7213D02*
X13137Y7223D01*
X13166Y7194D02*
X13156Y7184D01*
X13127Y7252D02*
X13137Y7262D01*
X13166Y7233D02*
X13156Y7223D01*
X13216Y7065D02*
X13206Y7056D01*
X13235Y7027D02*
X13245Y7036D01*
X13206Y7095D02*
X13216Y7105D01*
X13245Y7076D02*
X13235Y7066D01*
X13206Y7174D02*
X13216Y7183D01*
X13245Y7154D02*
X13235Y7145D01*
X13206Y7213D02*
X13216Y7223D01*
X13245Y7194D02*
X13235Y7184D01*
X13167Y7371D02*
X13176Y7380D01*
X13137D02*
X13127Y7371D01*
X13156Y7342D02*
X13166Y7351D01*
X13127D02*
X13117Y7342D01*
X13216Y6750D02*
X13206Y6741D01*
X13235Y6712D02*
X13245Y6721D01*
X13127Y6937D02*
X13137Y6947D01*
X13166Y6918D02*
X13156Y6908D01*
X13245Y7449D02*
X13255Y7459D01*
X13284Y7430D02*
X13274Y7420D01*
X13176Y6790D02*
X13167Y6780D01*
X13196Y6751D02*
X13205Y6761D01*
X13284Y7391D02*
Y7405D01*
X13284D02*
Y6860D01*
X13391Y7054D02*
Y7066D01*
X13284Y7391D02*
Y7410D01*
Y6662D02*
Y6643D01*
Y6721D02*
Y6741D01*
Y6701D02*
Y6682D01*
X13284Y7430D02*
Y7449D01*
X13285Y6583D02*
Y6564D01*
Y7666D02*
Y7685D01*
X13285Y7134D02*
Y7115D01*
Y7430D02*
Y7449D01*
X13285Y6780D02*
Y6761D01*
Y6662D02*
Y6643D01*
Y6682D02*
Y6701D01*
Y6622D02*
Y6603D01*
X13403Y6510D02*
Y7066D01*
X13442Y7026D02*
Y6507D01*
X13391Y6750D02*
Y7054D01*
Y6712D02*
Y6671D01*
Y6633D02*
Y6632D01*
Y6594D02*
Y6593D01*
Y6554D02*
Y6530D01*
X13323Y6564D02*
Y6583D01*
X13442Y7391D02*
Y7410D01*
X13403Y7548D02*
Y7567D01*
X13442D02*
Y7548D01*
X13364Y7528D02*
Y7509D01*
X13402D02*
Y7528D01*
X13442Y7587D02*
Y7607D01*
X13323Y7666D02*
Y7685D01*
X13442Y7213D02*
Y7194D01*
Y7469D02*
Y7489D01*
X13364Y7095D02*
Y7076D01*
X13402Y7077D02*
Y7095D01*
X13324D02*
Y7076D01*
X13363D02*
Y7095D01*
X13324Y7115D02*
Y7134D01*
X13363D02*
Y7115D01*
X13323D02*
Y7134D01*
X13324Y7509D02*
Y7528D01*
X13363D02*
Y7509D01*
X13323Y7449D02*
Y7430D01*
X13323Y6780D02*
Y6761D01*
X13324Y6701D02*
Y6682D01*
X13363D02*
Y6701D01*
X13323Y6662D02*
Y6643D01*
X13324Y6643D02*
Y6662D01*
X13363D02*
Y6643D01*
X13364Y6643D02*
Y6662D01*
X13324Y6622D02*
Y6603D01*
X13363D02*
Y6622D01*
X13364D02*
Y6603D01*
X13323Y6682D02*
Y6701D01*
Y6622D02*
Y6603D01*
X13324Y6583D02*
Y6564D01*
X13363D02*
Y6583D01*
X13364D02*
Y6564D01*
X13364Y6721D02*
Y6741D01*
X13442Y7233D02*
Y7252D01*
X13324Y7666D02*
Y7685D01*
X13363D02*
Y7666D01*
X13364Y7666D02*
Y7685D01*
X13402D02*
Y7666D01*
X13403D02*
Y7685D01*
X13442D02*
Y7666D01*
X13442D02*
Y7685D01*
X13324Y7252D02*
Y7233D01*
X13363D02*
Y7252D01*
X13285Y6564D02*
X13294Y6554D01*
Y7657D02*
X13285Y7666D01*
X13285Y7115D02*
X13294Y7105D01*
Y7420D02*
X13285Y7430D01*
X13285Y6761D02*
X13294Y6751D01*
X13285Y6643D02*
X13294Y6633D01*
Y6672D02*
X13285Y6682D01*
Y6603D02*
X13294Y6594D01*
X13314Y6593D02*
X13323Y6583D01*
X13452Y7381D02*
X13442Y7391D01*
X13471Y7420D02*
X13481Y7410D01*
X13413Y7538D02*
X13403Y7548D01*
X13432Y7577D02*
X13442Y7567D01*
X13373Y7499D02*
X13364Y7509D01*
X13392Y7538D02*
X13402Y7528D01*
X13452Y7578D02*
X13442Y7587D01*
X13471Y7616D02*
X13481Y7607D01*
X13323Y7685D02*
X13314Y7695D01*
X13442Y7194D02*
X13452Y7184D01*
X13481Y7213D02*
X13471Y7223D01*
X13452Y7460D02*
X13442Y7469D01*
X13471Y7498D02*
X13481Y7489D01*
X13364Y7076D02*
X13373Y7066D01*
X13402Y7095D02*
X13392Y7105D01*
X13334Y7066D02*
X13324Y7076D01*
X13353Y7105D02*
X13363Y7095D01*
X13334Y7105D02*
X13324Y7115D01*
X13353Y7144D02*
X13363Y7134D01*
X13323D02*
X13314Y7144D01*
X13334Y7499D02*
X13324Y7509D01*
X13353Y7538D02*
X13363Y7528D01*
X13314Y7459D02*
X13323Y7449D01*
X13314Y6790D02*
X13323Y6780D01*
X13324Y6682D02*
X13334Y6672D01*
X13363Y6701D02*
X13353Y6711D01*
X13314Y6671D02*
X13323Y6662D01*
X13324Y6643D02*
X13334Y6633D01*
X13363Y6662D02*
X13353Y6671D01*
X13364Y6643D02*
X13373Y6633D01*
X13334Y6594D02*
X13324Y6603D01*
X13353Y6632D02*
X13363Y6622D01*
X13364Y6603D02*
X13373Y6594D01*
X13323Y6701D02*
X13314Y6711D01*
Y6632D02*
X13323Y6622D01*
X13324Y6564D02*
X13334Y6554D01*
X13363Y6583D02*
X13353Y6593D01*
X13364Y6564D02*
X13373Y6554D01*
X13373Y6712D02*
X13364Y6721D01*
X13452Y7223D02*
X13442Y7233D01*
X13471Y7262D02*
X13481Y7252D01*
X13334Y7657D02*
X13324Y7666D01*
X13353Y7695D02*
X13363Y7685D01*
X13364Y7666D02*
X13373Y7657D01*
X13402Y7685D02*
X13392Y7695D01*
X13403Y7666D02*
X13413Y7657D01*
X13442Y7685D02*
X13432Y7695D01*
X13442Y7666D02*
X13452Y7657D01*
X13481Y7685D02*
X13471Y7695D01*
X13324Y7233D02*
X13334Y7223D01*
X13363Y7252D02*
X13353Y7262D01*
X13294Y6593D02*
X13285Y6583D01*
Y7685D02*
X13294Y7695D01*
X13294Y7144D02*
X13285Y7134D01*
Y7449D02*
X13294Y7459D01*
X13294Y6790D02*
X13285Y6780D01*
X13294Y6671D02*
X13285Y6662D01*
Y6701D02*
X13294Y6711D01*
Y6632D02*
X13285Y6622D01*
X13323Y6564D02*
X13314Y6554D01*
X13442Y7410D02*
X13452Y7420D01*
X13481Y7391D02*
X13471Y7381D01*
X13403Y7567D02*
X13413Y7577D01*
X13442Y7548D02*
X13432Y7538D01*
X13373Y7538D02*
X13364Y7528D01*
X13392Y7499D02*
X13402Y7509D01*
X13442Y7607D02*
X13452Y7616D01*
X13481Y7587D02*
X13471Y7578D01*
X13323Y7666D02*
X13314Y7657D01*
X13452Y7223D02*
X13442Y7213D01*
X13471Y7184D02*
X13481Y7194D01*
X13442Y7489D02*
X13452Y7498D01*
X13481Y7469D02*
X13471Y7460D01*
X13373Y7105D02*
X13364Y7095D01*
X13334Y7105D02*
X13324Y7095D01*
X13353Y7066D02*
X13363Y7076D01*
X13324Y7134D02*
X13334Y7144D01*
X13363Y7115D02*
X13353Y7105D01*
X13323Y7115D02*
X13314Y7105D01*
X13324Y7528D02*
X13334Y7538D01*
X13363Y7509D02*
X13353Y7499D01*
X13323Y7430D02*
X13314Y7420D01*
X13323Y6761D02*
X13314Y6751D01*
X13334Y6711D02*
X13324Y6701D01*
X13353Y6672D02*
X13363Y6682D01*
X13323Y6643D02*
X13314Y6633D01*
X13324Y6662D02*
X13334Y6671D01*
X13363Y6643D02*
X13353Y6633D01*
X13364Y6662D02*
X13373Y6671D01*
X13334Y6632D02*
X13324Y6622D01*
X13353Y6594D02*
X13363Y6603D01*
X13364Y6622D02*
X13373Y6632D01*
X13323Y6682D02*
X13314Y6672D01*
X13323Y6603D02*
X13314Y6594D01*
X13324Y6583D02*
X13334Y6593D01*
X13363Y6564D02*
X13353Y6554D01*
X13364Y6583D02*
X13373Y6593D01*
X13364Y6741D02*
X13373Y6750D01*
X13442Y7252D02*
X13452Y7262D01*
X13481Y7233D02*
X13471Y7223D01*
X13324Y7685D02*
X13334Y7695D01*
X13363Y7666D02*
X13353Y7657D01*
X13364Y7685D02*
X13373Y7695D01*
X13402Y7666D02*
X13392Y7657D01*
X13403Y7685D02*
X13413Y7695D01*
X13442Y7666D02*
X13432Y7657D01*
X13442Y7685D02*
X13452Y7695D01*
X13481Y7666D02*
X13471Y7657D01*
X13334Y7262D02*
X13324Y7252D01*
X13353Y7223D02*
X13363Y7233D01*
X13560Y7312D02*
Y7331D01*
Y7351D02*
Y7371D01*
X13560Y6622D02*
Y6603D01*
X13560Y7076D02*
Y7095D01*
Y7587D02*
Y7607D01*
Y7567D02*
Y7548D01*
Y7292D02*
Y7272D01*
Y7252D02*
Y7233D01*
Y7056D02*
Y7036D01*
Y7016D02*
Y6997D01*
Y6819D02*
Y6800D01*
Y6780D02*
Y6761D01*
Y6879D02*
Y6898D01*
X13564Y7036D02*
Y7056D01*
X13603D02*
Y7036D01*
X13481Y6947D02*
Y6507D01*
X13481Y7391D02*
Y7410D01*
Y7587D02*
Y7607D01*
Y7213D02*
Y7194D01*
Y7469D02*
Y7489D01*
Y7252D02*
Y7233D01*
Y7666D02*
Y7685D01*
X13482Y7646D02*
Y7627D01*
X13482Y7528D02*
Y7509D01*
X13482Y7489D02*
Y7469D01*
Y7213D02*
Y7194D01*
Y7095D02*
Y7082D01*
Y7077D01*
X13521Y6987D02*
Y6499D01*
X13603Y6609D02*
Y7676D01*
X13532Y6982D02*
Y6908D01*
Y6869D02*
Y6829D01*
Y6790D02*
Y6790D01*
Y6751D02*
Y6632D01*
Y6594D02*
Y6538D01*
X13521Y7312D02*
Y7331D01*
Y7351D02*
Y7371D01*
X13520Y7627D02*
Y7646D01*
X13521Y7095D02*
Y7076D01*
Y7587D02*
Y7607D01*
Y7567D02*
Y7548D01*
X13520Y7528D02*
Y7509D01*
X13520Y7489D02*
Y7469D01*
X13521Y7292D02*
Y7272D01*
Y7252D02*
Y7233D01*
X13520Y7213D02*
Y7194D01*
Y7095D02*
Y7076D01*
X13521Y7056D02*
Y7043D01*
X13520Y7043D02*
Y7056D01*
X13639Y6577D02*
Y7680D01*
X13532Y7707D02*
Y7616D01*
Y7578D02*
Y7577D01*
Y7538D02*
Y7380D01*
Y7342D02*
Y7341D01*
Y7302D02*
Y7301D01*
Y7263D02*
Y7262D01*
Y7223D02*
Y7105D01*
Y7066D02*
Y7065D01*
Y6982D02*
Y6908D01*
Y6869D02*
Y6829D01*
Y6790D02*
Y6790D01*
Y6751D02*
Y6632D01*
Y6594D02*
Y6534D01*
X13560Y7331D02*
X13550Y7341D01*
X13560Y7371D02*
X13550Y7380D01*
X13550Y6632D02*
X13560Y6622D01*
X13560Y7095D02*
X13550Y7105D01*
X13560Y7607D02*
X13550Y7616D01*
Y7577D02*
X13560Y7567D01*
X13550Y7301D02*
X13560Y7292D01*
X13550Y7262D02*
X13560Y7252D01*
X13550Y7065D02*
X13560Y7056D01*
X13550Y7026D02*
X13560Y7016D01*
X13550Y6829D02*
X13560Y6819D01*
X13550Y6790D02*
X13560Y6780D01*
Y6898D02*
X13550Y6908D01*
X13574Y7027D02*
X13564Y7036D01*
X13593Y7065D02*
X13603Y7056D01*
X13501Y7046D02*
X13481Y7066D01*
X13491Y7617D02*
X13482Y7627D01*
X13482Y7509D02*
X13491Y7499D01*
X13482Y7469D02*
X13491Y7460D01*
X13482Y7194D02*
X13491Y7184D01*
X13498Y7066D02*
X13498Y7065D01*
X13531Y7302D02*
X13521Y7312D01*
X13531Y7342D02*
X13521Y7351D01*
X13520Y7646D02*
X13511Y7656D01*
X13521Y7076D02*
X13531Y7066D01*
Y7578D02*
X13521Y7587D01*
Y7548D02*
X13531Y7538D01*
X13520Y7528D02*
X13511Y7538D01*
X13511Y7498D02*
X13520Y7489D01*
X13521Y7272D02*
X13531Y7263D01*
X13521Y7233D02*
X13531Y7223D01*
X13520Y7213D02*
X13511Y7223D01*
Y7105D02*
X13520Y7095D01*
X13511Y7065D02*
X13520Y7056D01*
X13639Y7680D02*
X13611Y7707D01*
X13538Y7027D02*
X13537Y7026D01*
X13550Y7302D02*
X13560Y7312D01*
X13550Y7342D02*
X13560Y7351D01*
X13560Y6603D02*
X13550Y6594D01*
X13550Y7066D02*
X13560Y7076D01*
X13550Y7578D02*
X13560Y7587D01*
Y7548D02*
X13550Y7538D01*
X13560Y7272D02*
X13550Y7263D01*
X13560Y7233D02*
X13550Y7223D01*
X13560Y7036D02*
X13550Y7027D01*
X13560Y6997D02*
X13550Y6987D01*
X13560Y6800D02*
X13550Y6790D01*
X13560Y6761D02*
X13550Y6751D01*
Y6869D02*
X13560Y6879D01*
X13564Y7056D02*
X13574Y7065D01*
X13603Y7036D02*
X13593Y7027D01*
X13501Y6967D02*
X13481Y6947D01*
X13476Y7077D02*
X13481Y7082D01*
X13482Y7646D02*
X13491Y7656D01*
X13491Y7538D02*
X13482Y7528D01*
X13491Y7498D02*
X13482Y7489D01*
X13491Y7223D02*
X13482Y7213D01*
X13491Y7105D02*
X13482Y7095D01*
X13540Y7007D02*
X13521Y6987D01*
Y7026D02*
X13540Y7046D01*
X13603Y6609D02*
X13588Y6594D01*
X13560Y6565D01*
X13532Y6538D01*
X13520Y7043D02*
X13521Y7043D01*
X13538Y6987D02*
X13532Y6982D01*
X13521Y7331D02*
X13531Y7341D01*
X13521Y7371D02*
X13531Y7380D01*
X13511Y7617D02*
X13520Y7627D01*
X13531Y7105D02*
X13521Y7095D01*
Y7607D02*
X13531Y7616D01*
Y7577D02*
X13521Y7567D01*
X13520Y7509D02*
X13511Y7499D01*
X13520Y7469D02*
X13511Y7460D01*
X13531Y7301D02*
X13521Y7292D01*
X13531Y7262D02*
X13521Y7252D01*
X13520Y7194D02*
X13511Y7184D01*
X13520Y7076D02*
X13511Y7066D01*
X13521Y7056D02*
X13531Y7065D01*
X13639Y6577D02*
X13595Y6534D01*
X13532Y6982D02*
X13538Y6987D01*
D17*
X6245Y9515D02*
Y9665D01*
X6295Y9615D01*
X6345Y9665D01*
Y9515D01*
X6395Y9665D02*
X6445D01*
X6420D01*
Y9515D01*
X6395D01*
X6445D01*
X6520D02*
Y9665D01*
Y9515D02*
X6595D01*
X6620Y9540D01*
Y9640D01*
X6595Y9665D01*
X6520D01*
X6820D02*
Y9515D01*
X6920D01*
X6970D02*
Y9615D01*
X7020Y9665D01*
X7070Y9615D01*
Y9515D01*
Y9590D01*
X6970D01*
X7120Y9640D02*
Y9665D01*
Y9640D02*
X7170Y9590D01*
X7220Y9640D01*
Y9665D01*
X7170Y9590D02*
Y9515D01*
X7270Y9665D02*
X7370D01*
X7270D02*
Y9515D01*
X7370D01*
X7320Y9590D02*
X7270D01*
X7420Y9665D02*
Y9515D01*
Y9665D02*
X7495D01*
X7520Y9640D01*
Y9590D01*
X7495Y9565D01*
X7420D01*
X7470D02*
X7520Y9515D01*
X7570Y9640D02*
X7595Y9665D01*
X7645D01*
X7670Y9640D01*
Y9615D01*
X7671D01*
X7670D02*
X7671D01*
X7670D02*
X7671D01*
X7670D02*
X7645Y9590D01*
X7620D01*
X7645D01*
X7670Y9565D01*
Y9540D01*
X7645Y9515D01*
X7595D01*
X7570Y9540D01*
X7869Y9565D02*
Y9665D01*
Y9565D02*
X7919Y9515D01*
X7969Y9565D01*
Y9665D01*
X8094D02*
X8119Y9640D01*
X8094Y9665D02*
X8044D01*
X8019Y9640D01*
Y9540D01*
X8044Y9515D01*
X8094D01*
X8119Y9540D01*
X8244Y9665D02*
X8269Y9640D01*
X8244Y9665D02*
X8194D01*
X8169Y9640D01*
Y9540D01*
X8194Y9515D01*
X8244D01*
X8269Y9540D01*
X8319Y9515D02*
Y9615D01*
X8369Y9665D01*
X8419Y9615D01*
Y9515D01*
Y9590D01*
X8319D01*
X8469Y9540D02*
Y9665D01*
Y9540D02*
X8494Y9515D01*
X8544D01*
X8569Y9540D01*
Y9665D01*
X8619D02*
X8719Y9515D01*
X8619D02*
X8719Y9665D01*
X8769Y9515D02*
X8869D01*
X8769D02*
X8869Y9615D01*
Y9640D01*
X8844Y9665D01*
X8794D01*
X8769Y9640D01*
X8919Y9540D02*
Y9515D01*
Y9540D02*
X8944D01*
Y9515D01*
X8919D01*
X9044Y9665D02*
X9144D01*
X9044D02*
Y9590D01*
X9094Y9615D01*
X9119D01*
X9144Y9590D01*
Y9540D01*
X9119Y9515D01*
X9069D01*
X9044Y9540D01*
X9494Y9565D02*
Y9665D01*
Y9565D02*
X9544Y9515D01*
X9594Y9565D01*
Y9665D01*
X9644D02*
Y9515D01*
Y9665D02*
X9719D01*
X9744Y9640D01*
Y9590D01*
X9719Y9565D01*
X9644D01*
X9694D02*
X9744Y9515D01*
X9794Y9665D02*
X9894D01*
X9794D02*
Y9515D01*
X9894D01*
X9844Y9590D02*
X9794D01*
X9944Y9665D02*
X10044D01*
X9944D02*
Y9590D01*
X9994D01*
X9944D01*
Y9515D01*
D21*
X13477Y6066D02*
X13560D01*
X13552Y6136D02*
X13501D01*
Y6211D02*
X13556D01*
Y6282D02*
X13521D01*
X13403Y6203D02*
Y6510D01*
Y6203D02*
Y6140D01*
X13442Y6196D02*
Y6507D01*
X13403Y6140D02*
X13477Y6066D01*
X13501Y6136D02*
X13442Y6196D01*
X13481Y6231D02*
Y6507D01*
X13521D02*
Y6282D01*
X13481Y6231D02*
X13501Y6211D01*
D22*
X13501Y6967D02*
D03*
X13540Y7007D02*
D03*
X13501Y7046D02*
D03*
X13540Y7046D02*
D03*
Y7676D02*
D03*
X13580Y7125D02*
D03*
X13540Y6573D02*
D03*
X13556Y6066D02*
D03*
Y6136D02*
D03*
Y6211D02*
D03*
Y6282D02*
D03*
X13225Y7321D02*
D03*
Y7282D02*
D03*
Y7243D02*
D03*
Y7203D02*
D03*
Y7164D02*
D03*
Y7125D02*
D03*
Y7085D02*
D03*
Y7046D02*
D03*
Y7007D02*
D03*
Y6967D02*
D03*
Y6928D02*
D03*
X12989Y6570D02*
D03*
X12442Y8003D02*
D03*
X12438Y7719D02*
D03*
X12438Y7046D02*
D03*
X12363Y7125D02*
D03*
X12438Y7203D02*
D03*
Y7479D02*
D03*
X12395Y7680D02*
D03*
X12438Y7282D02*
D03*
X12442Y8357D02*
D03*
X12332Y6404D02*
D03*
X12438Y6731D02*
D03*
X12477Y6810D02*
D03*
X12438Y6573D02*
D03*
X11942Y5987D02*
D03*
X11800Y6321D02*
D03*
X11698Y8046D02*
D03*
Y8361D02*
D03*
X11559Y6219D02*
D03*
X11143Y8416D02*
D03*
X11083Y6219D02*
D03*
X10639D02*
D03*
D35*
X11143Y8416D02*
X12442D01*
X11698Y8412D02*
Y8388D01*
X12442Y8369D02*
Y8416D01*
Y7991D02*
Y7727D01*
D02*
M02*
