M71
M48
T1F00S00C0.012
T2F00S00C0.050
T3F00S00C0.056
T4F00S00C0.150
%
T01
X00457Y-00457
Y-00505
X00507
Y-00457
X00557
Y-00505
X00607
X00608Y-00457
X00658
X00657Y-00505
X00707
Y-00457
X00757
Y-00505
X00807
Y-00457
X00857
Y-00505
X00907
Y-00457
X00957
Y-00505
X01007
Y-00457
X01057
Y-00505
X01107
Y-00457
X01157
Y-00505
X01207
Y-00457
X01257
Y-00505
X01307
Y-00457
X01357
Y-00505
X01407
Y-00457
X01457
Y-00505
X01507
Y-00457
X01557
Y-00505
X01607
Y-00457
X01657
Y-00505
X01707
Y-00457
X01757
Y-00505
X01807
Y-00457
X01857
Y-00505
X01907
Y-00457
X01957
Y-00505
X02007
Y-00457
X02057
Y-00505
X02107
Y-00457
X02157
Y-00505
X02207
Y-00457
X02257
Y-00505
X02307
Y-00457
X02357
Y-00505
X02407
Y-00457
X02457
Y-00505
X02507
Y-00457
X02557
Y-00505
X02607
Y-00457
X02657
Y-00505
X01553Y-00209
X01548Y00226
X01588
X01628
X01668
X01708
X01748
X01919Y00267
X01949Y00297
X01978Y00327
X02009Y00357
X02039Y00387
X01775Y00705
X01779Y00887
X01749Y01076
X01709
X01669
X01629
X01589
X01549
X01469Y01046
X01419
X01359Y01076
X01319
X01279
X01239
X01199
X01159
X01428Y00536
X01478
X01468Y00196
X01418
X01358Y00226
X01318
X01278
X01238
X01198
X01158
X0207Y00417
X021Y00447
X0213Y00477
X0216Y00507
X0219Y00537
X02071Y01267
X02101Y01297
X0213Y01327
X02161Y01357
X02191Y01387
X02071Y02119
X02101Y02149
X02131Y02179
X02161Y02209
X02191Y02239
X02041Y02089
X02011Y02059
X01981Y02029
X01951Y01999
X01921Y01969
X0175Y01928
X0171
X0167
X0163
X0159
X0155
X0147Y01898
X0142
X0136Y01928
X0132
X0128
X0124
X012
X0116
X01119Y0181
Y0177
Y0173
Y0169
Y01626
Y01586
Y01546
Y01506
X01429Y01386
X01479
X01781Y01556
X01785Y01739
X01747Y02407
X0148Y02238
X0143
X0112Y02358
Y02398
Y02438
Y02478
X0198Y01178
X0201Y01207
X0204Y01237
X0195Y01147
X0192Y01117
T02
X00395Y-00481
X0272
T03
X0272Y-00481
X00395
T04
X00004Y-00003
X04098
X00004Y0232
M30
