*
G04 Mass Parameters ***
*
G04 Image ***
*
%INF:\PT8616\PCB\REV3_PCB\GENLOCK-63.SST*%
%ICAS*%
%MOIN*%
%IPPOS*%
%ASAXBY*%
G74*%FSLAN2X34Y34*%
*
G04 Aperture Definitions ***
*
%ADD10R,0.0780X0.0600*%
%ADD11R,0.0600X0.0780*%
%ADD12R,0.0780X0.0780*%
%ADD13R,0.0630X0.0980*%
%ADD14R,0.0980X0.0630*%
%ADD15R,0.1500X0.1000*%
%ADD16R,0.2677X0.1200*%
%ADD17C,0.0630*%
%ADD18R,0.0374X0.0256*%
%ADD19R,0.0374X0.0433*%
%ADD20C,0.2750*%
%ADD21O,0.0110X0.0700*%
%ADD22R,0.0110X0.0700*%
%ADD23O,0.0700X0.0110*%
%ADD24R,0.0700X0.0110*%
%ADD25R,0.0147X0.0453*%
%ADD26R,0.0453X0.0147*%
%ADD27O,0.0740X0.0240*%
%ADD28R,0.0740X0.0240*%
%ADD29R,0.0787X0.0315*%
%ADD30R,0.0500X0.0138*%
%ADD31R,0.0600X0.0160*%
%ADD32O,0.0600X0.0160*%
%ADD33R,0.0138X0.0500*%
%ADD34R,0.0500X0.0800*%
%ADD35R,0.0800X0.0500*%
%ADD36R,0.0750X0.0500*%
%ADD37O,0.0240X0.0740*%
%ADD38R,0.0240X0.0740*%
%ADD39C,0.0620*%
%ADD40C,0.0800*%
%ADD41C,0.0700*%
%ADD42R,0.0700X0.0700*%
%ADD43R,0.0450X0.0650*%
%ADD44R,0.0620X0.0620*%
%ADD45R,0.0492X0.0394*%
%ADD46R,0.2756X0.1575*%
%ADD47R,0.0394X0.0492*%
%ADD48R,0.2600X0.3500*%
%ADD49R,0.0600X0.0400*%
%ADD50R,0.3500X0.2600*%
%ADD51R,0.0400X0.0600*%
%ADD52C,0.0787*%
%ADD53R,0.0650X0.0780*%
%ADD54C,0.0580*%
%ADD55C,0.0280*%
%ADD56C,0.0079*%
%ADD57C,0.0100*%
%ADD58C,0.0080*%
%ADD59C,0.0280*%
%ADD60C,0.0160*%
%ADD61C,0.0200*%
%ADD62C,0.0150*%
%ADD63C,0.0280*%
%ADD64R,0.1299X0.0197*%
%ADD65R,0.0780X0.0600*%
%ADD66R,0.0600X0.0780*%
%ADD67R,0.0980X0.0630*%
%ADD68R,0.2677X0.1200*%
%ADD69C,0.0630*%
%ADD70C,0.2750*%
%ADD71C,0.0620*%
%ADD72C,0.0800*%
%ADD73C,0.0700*%
%ADD74R,0.0700X0.0700*%
%ADD75R,0.0450X0.0650*%
%ADD76R,0.0620X0.0620*%
%ADD77R,0.0394X0.0492*%
%ADD78R,0.0492X0.0394*%
%ADD79C,0.0787*%
%ADD80C,0.0580*%
%ADD81C,0.0280*%
%ADD82C,0.0610*%
%ADD83C,0.2850*%
%ADD84C,0.0720*%
%ADD85C,0.0900*%
%ADD86C,0.0820*%
%ADD87R,0.0820X0.0820*%
%ADD88C,0.0618*%
%ADD89C,0.0579*%
%ADD90C,0.0020*%
%ADD91C,0.0280*%
%ADD92C,0.0157*%
%ADD93R,0.0800X0.0620*%
%ADD94R,0.0620X0.0800*%
%ADD95R,0.0800X0.0800*%
%ADD96R,0.0650X0.1000*%
%ADD97R,0.1000X0.0650*%
%ADD98R,0.1500X0.1000*%
%ADD99R,0.0413X0.0295*%
%ADD100R,0.0413X0.0472*%
%ADD101C,0.2770*%
%ADD102O,0.0110X0.0700*%
%ADD103R,0.0110X0.0700*%
%ADD104O,0.0700X0.0110*%
%ADD105R,0.0700X0.0110*%
%ADD106R,0.0167X0.0473*%
%ADD107R,0.0473X0.0167*%
%ADD108O,0.0760X0.0260*%
%ADD109R,0.0760X0.0260*%
%ADD110R,0.0827X0.0354*%
%ADD111R,0.0520X0.0158*%
%ADD112R,0.0620X0.0180*%
%ADD113O,0.0620X0.0180*%
%ADD114R,0.0158X0.0520*%
%ADD115R,0.0500X0.0800*%
%ADD116R,0.0800X0.0500*%
%ADD117R,0.0750X0.0500*%
%ADD118O,0.0260X0.0760*%
%ADD119R,0.0260X0.0760*%
%ADD120C,0.0640*%
%ADD121R,0.0720X0.0720*%
%ADD122R,0.0470X0.0670*%
%ADD123C,0.0670*%
%ADD124R,0.0512X0.0414*%
%ADD125R,0.2756X0.1575*%
%ADD126R,0.0414X0.0512*%
%ADD127R,0.2620X0.3520*%
%ADD128R,0.0620X0.0420*%
%ADD129R,0.3520X0.2620*%
%ADD130R,0.0420X0.0620*%
%ADD131C,0.0866*%
%ADD132R,0.0670X0.0800*%
%ADD133C,0.0320*%
%ADD134C,0.0320*%
%ADD135C,0.0320*%
%ADD136R,0.0780X0.0780*%
%ADD137R,0.0630X0.0980*%
%ADD138R,0.0374X0.0433*%
%ADD139R,0.0147X0.0453*%
%ADD140R,0.0453X0.0147*%
%ADD141O,0.0740X0.0240*%
%ADD142R,0.0740X0.0240*%
%ADD143R,0.0787X0.0315*%
%ADD144R,0.0500X0.0138*%
%ADD145R,0.0600X0.0160*%
%ADD146O,0.0600X0.0160*%
%ADD147R,0.0138X0.0500*%
%ADD148O,0.0240X0.0740*%
%ADD149R,0.0240X0.0740*%
%ADD150R,0.2600X0.3500*%
%ADD151R,0.0600X0.0400*%
%ADD152R,0.3500X0.2600*%
%ADD153R,0.0400X0.0600*%
%ADD154C,0.0010*%
%ADD155R,0.0468X0.0669*%
%ADD156C,0.0120*%
%ADD157C,0.0060*%
%ADD158C,0.0118*%
%ADD159C,0.0059*%
*
G04 Plot Data ***
*
G54D56*
G01X0059450Y-0014961D02*
X0060828Y-0016142D01*
X0059450Y-0014961D01*
G54D57*
G01X0092891Y-0013913D02*
Y-0013647D01*
X0092758Y-0013780D02*
X0093024D01*
X0087410Y-0001201D02*
X0087660D01*
X0087702Y-0001285D01*
Y-0001368D01*
X0087660Y-0001451D01*
X0087410D01*
X0087368Y-0001368D01*
Y-0001285D01*
X0087535Y-0000951D01*
X0087127Y-0001368D02*
X0087085Y-0001451D01*
X0086835D01*
X0086793Y-0001368D01*
Y-0001035D01*
X0086835Y-0000951D01*
X0087085D01*
X0087127Y-0001035D01*
X0086552Y-0001451D02*
X0086385D01*
X0086468D02*
Y-0000951D01*
X0086552D02*
X0086385D01*
X0073981Y-0002210D02*
Y-0002099D01*
Y-0002154D02*
X0074315D01*
X0074259Y-0002099D01*
X0074501Y-0006655D02*
X0074668D01*
X0074696Y-0006710D01*
Y-0006766D01*
X0074668Y-0006822D01*
X0074501D01*
X0074474Y-0006766D01*
Y-0006710D01*
X0074585Y-0006488D01*
X0074246Y-0006822D02*
X0074024D01*
X0074246Y-0006599D01*
Y-0006544D01*
X0074218Y-0006488D01*
X0074051D01*
X0074024Y-0006544D01*
X0050922Y-0010457D02*
X0050655D01*
X0050789Y-0010591D02*
Y-0010324D01*
X0078566Y-0006163D02*
Y-0006274D01*
Y-0006218D02*
X0078233D01*
X0078288Y-0006274D01*
X0078511Y-0006779D02*
X0078566Y-0006751D01*
Y-0006585D01*
X0078511Y-0006557D01*
X0078399D01*
X0078344Y-0006613D01*
Y-0006779D01*
X0078233D01*
Y-0006557D01*
X0078046Y-0002403D02*
X0077879D01*
X0077851Y-0002348D01*
Y-0002292D01*
X0077879Y-0002237D01*
X0078046D01*
X0078074Y-0002292D01*
Y-0002348D01*
X0077963Y-0002570D01*
X0078468Y-0002237D02*
X0078301Y-0002570D01*
X0078524D01*
X0099387Y-0000527D02*
Y-0000260D01*
X0099254Y-0000394D02*
X0099521D01*
X0023008Y-0009386D02*
Y-0009119D01*
X0022874Y-0009252D02*
X0023141D01*
X0025567Y-0002102D02*
Y-0001835D01*
X0025433Y-0001969D02*
X0025700D01*
X0027535Y-0002102D02*
Y-0001835D01*
X0027402Y-0001969D02*
X0027669D01*
X0055685Y-0013913D02*
Y-0013647D01*
X0055552Y-0013780D02*
X0055819D01*
X0088954Y-0013913D02*
Y-0013647D01*
X0088821Y-0013780D02*
X0089087D01*
X0027977Y-0004000D02*
Y-0004267D01*
X0028111Y-0004133D02*
X0027844D01*
X0090922Y-0013913D02*
Y-0013647D01*
X0090789Y-0013780D02*
X0091056D01*
X0027338Y-0006433D02*
Y-0006166D01*
X0027205Y-0006300D02*
X0027472D01*
X0029504Y-0006433D02*
Y-0006166D01*
X0029371Y-0006300D02*
X0029637D01*
X0025173Y-0006433D02*
Y-0006166D01*
X0025040Y-0006300D02*
X0025306D01*
X0094331Y-0011868D02*
Y-0003010D01*
X0087639D01*
Y-0011868D01*
X0094331D01*
X0079024Y-0001842D02*
Y-0001779D01*
X0078962D01*
Y-0007279D02*
X0079024D01*
Y-0007217D01*
X0073524D02*
Y-0007279D01*
X0073587D01*
X0072962Y-0001967D02*
X0073462D01*
X0073649Y-0001780D01*
Y-0001779D01*
X0092008Y-0015474D02*
Y-0015714D01*
X0091918Y-0015474D02*
Y-0015714D01*
X0091828Y-0015474D02*
Y-0015714D01*
X0091738Y-0015474D02*
Y-0015714D01*
X0091648Y-0015474D02*
Y-0015714D01*
X0091558Y-0015474D02*
Y-0015714D01*
X0091468Y-0015474D02*
Y-0015714D01*
X0091378Y-0015474D02*
Y-0015714D01*
X0091288Y-0015474D02*
Y-0015714D01*
X0092958Y-0015494D02*
X0091248D01*
X0092958Y-0015584D02*
X0091248D01*
X0092908Y-0015474D02*
Y-0015714D01*
X0092818Y-0015474D02*
Y-0015714D01*
X0092728Y-0015474D02*
Y-0015714D01*
X0092638Y-0015474D02*
Y-0015714D01*
X0092548Y-0015474D02*
Y-0015714D01*
X0092458Y-0015474D02*
Y-0015714D01*
X0092368Y-0015474D02*
Y-0015714D01*
X0092278Y-0015474D02*
Y-0015714D01*
X0092188Y-0015474D02*
Y-0015714D01*
X0092098Y-0015474D02*
Y-0015714D01*
X0092958Y-0015674D02*
X0091248D01*
X0092958Y-0015474D02*
Y-0015714D01*
X0091248D01*
Y-0015474D02*
Y-0015714D01*
X0092958Y-0015474D02*
X0091248D01*
X0052722Y-0011071D02*
X0052482D01*
X0052722Y-0011161D02*
X0052482D01*
X0052722Y-0011251D02*
X0052482D01*
X0052722Y-0011341D02*
X0052482D01*
X0052722Y-0011431D02*
X0052482D01*
X0052722Y-0011521D02*
X0052482D01*
X0052722Y-0011611D02*
X0052482D01*
X0052722Y-0011701D02*
X0052482D01*
X0052722Y-0011791D02*
X0052482D01*
X0052722Y-0011881D02*
X0052482D01*
X0052722Y-0011971D02*
X0052482D01*
X0052702Y-0010391D02*
Y-0012101D01*
X0052612Y-0010391D02*
Y-0012101D01*
X0052522Y-0010391D02*
Y-0012101D01*
X0052722Y-0010441D02*
X0052482D01*
X0052722Y-0010531D02*
X0052482D01*
X0052722Y-0010621D02*
X0052482D01*
X0052722Y-0010711D02*
X0052482D01*
X0052722Y-0010801D02*
X0052482D01*
X0052722Y-0010891D02*
X0052482D01*
X0052722Y-0010981D02*
X0052482D01*
X0052722Y-0012061D02*
X0052482D01*
X0052722Y-0010391D02*
X0052482D01*
X0052722D02*
Y-0012101D01*
X0052482D01*
Y-0010391D02*
Y-0012101D01*
X0098504Y-0002087D02*
Y-0002327D01*
X0098414Y-0002087D02*
Y-0002327D01*
X0098324Y-0002087D02*
Y-0002327D01*
X0098234Y-0002087D02*
Y-0002327D01*
X0098144Y-0002087D02*
Y-0002327D01*
X0098054Y-0002087D02*
Y-0002327D01*
X0097964Y-0002087D02*
Y-0002327D01*
X0097874Y-0002087D02*
Y-0002327D01*
X0097784Y-0002087D02*
Y-0002327D01*
X0099454Y-0002107D02*
X0097744D01*
X0099454Y-0002197D02*
X0097744D01*
X0099404Y-0002087D02*
Y-0002327D01*
X0099314Y-0002087D02*
Y-0002327D01*
X0099224Y-0002087D02*
Y-0002327D01*
X0099134Y-0002087D02*
Y-0002327D01*
X0099044Y-0002087D02*
Y-0002327D01*
X0098954Y-0002087D02*
Y-0002327D01*
X0098864Y-0002087D02*
Y-0002327D01*
X0098774Y-0002087D02*
Y-0002327D01*
X0098684Y-0002087D02*
Y-0002327D01*
X0098594Y-0002087D02*
Y-0002327D01*
X0099454Y-0002287D02*
X0097744D01*
X0099454Y-0002087D02*
Y-0002327D01*
X0097744D01*
Y-0002087D02*
Y-0002327D01*
X0099454Y-0002087D02*
X0097744D01*
X0022124Y-0010946D02*
Y-0011186D01*
X0022034Y-0010946D02*
Y-0011186D01*
X0021944Y-0010946D02*
Y-0011186D01*
X0021854Y-0010946D02*
Y-0011186D01*
X0021764Y-0010946D02*
Y-0011186D01*
X0021674Y-0010946D02*
Y-0011186D01*
X0021584Y-0010946D02*
Y-0011186D01*
X0021494Y-0010946D02*
Y-0011186D01*
X0021404Y-0010946D02*
Y-0011186D01*
X0023074Y-0010966D02*
X0021364D01*
X0023074Y-0011056D02*
X0021364D01*
X0023024Y-0010946D02*
Y-0011186D01*
X0022934Y-0010946D02*
Y-0011186D01*
X0022844Y-0010946D02*
Y-0011186D01*
X0022754Y-0010946D02*
Y-0011186D01*
X0022664Y-0010946D02*
Y-0011186D01*
X0022574Y-0010946D02*
Y-0011186D01*
X0022484Y-0010946D02*
Y-0011186D01*
X0022394Y-0010946D02*
Y-0011186D01*
X0022304Y-0010946D02*
Y-0011186D01*
X0022214Y-0010946D02*
Y-0011186D01*
X0023074Y-0011146D02*
X0021364D01*
X0023074Y-0010946D02*
Y-0011186D01*
X0021364D01*
Y-0010946D02*
Y-0011186D01*
X0023074Y-0010946D02*
X0021364D01*
X0024683Y-0003662D02*
Y-0003902D01*
X0024593Y-0003662D02*
Y-0003902D01*
X0024503Y-0003662D02*
Y-0003902D01*
X0024413Y-0003662D02*
Y-0003902D01*
X0024323Y-0003662D02*
Y-0003902D01*
X0024233Y-0003662D02*
Y-0003902D01*
X0024143Y-0003662D02*
Y-0003902D01*
X0024053Y-0003662D02*
Y-0003902D01*
X0023963Y-0003662D02*
Y-0003902D01*
X0025633Y-0003682D02*
X0023923D01*
X0025633Y-0003772D02*
X0023923D01*
X0025583Y-0003662D02*
Y-0003902D01*
X0025493Y-0003662D02*
Y-0003902D01*
X0025403Y-0003662D02*
Y-0003902D01*
X0025313Y-0003662D02*
Y-0003902D01*
X0025223Y-0003662D02*
Y-0003902D01*
X0025133Y-0003662D02*
Y-0003902D01*
X0025043Y-0003662D02*
Y-0003902D01*
X0024953Y-0003662D02*
Y-0003902D01*
X0024863Y-0003662D02*
Y-0003902D01*
X0024773Y-0003662D02*
Y-0003902D01*
X0025633Y-0003862D02*
X0023923D01*
X0025633Y-0003662D02*
Y-0003902D01*
X0023923D01*
Y-0003662D02*
Y-0003902D01*
X0025633Y-0003662D02*
X0023923D01*
X0026652D02*
Y-0003902D01*
X0026562Y-0003662D02*
Y-0003902D01*
X0026472Y-0003662D02*
Y-0003902D01*
X0026382Y-0003662D02*
Y-0003902D01*
X0026292Y-0003662D02*
Y-0003902D01*
X0026202Y-0003662D02*
Y-0003902D01*
X0026112Y-0003662D02*
Y-0003902D01*
X0026022Y-0003662D02*
Y-0003902D01*
X0025932Y-0003662D02*
Y-0003902D01*
X0027602Y-0003682D02*
X0025892D01*
X0027602Y-0003772D02*
X0025892D01*
X0027552Y-0003662D02*
Y-0003902D01*
X0027462Y-0003662D02*
Y-0003902D01*
X0027372Y-0003662D02*
Y-0003902D01*
X0027282Y-0003662D02*
Y-0003902D01*
X0027192Y-0003662D02*
Y-0003902D01*
X0027102Y-0003662D02*
Y-0003902D01*
X0027012Y-0003662D02*
Y-0003902D01*
X0026922Y-0003662D02*
Y-0003902D01*
X0026832Y-0003662D02*
Y-0003902D01*
X0026742Y-0003662D02*
Y-0003902D01*
X0027602Y-0003862D02*
X0025892D01*
X0027602Y-0003662D02*
Y-0003902D01*
X0025892D01*
Y-0003662D02*
Y-0003902D01*
X0027602Y-0003662D02*
X0025892D01*
X0054802Y-0015474D02*
Y-0015714D01*
X0054712Y-0015474D02*
Y-0015714D01*
X0054622Y-0015474D02*
Y-0015714D01*
X0054532Y-0015474D02*
Y-0015714D01*
X0054442Y-0015474D02*
Y-0015714D01*
X0054352Y-0015474D02*
Y-0015714D01*
X0054262Y-0015474D02*
Y-0015714D01*
X0054172Y-0015474D02*
Y-0015714D01*
X0054082Y-0015474D02*
Y-0015714D01*
X0055752Y-0015494D02*
X0054042D01*
X0055752Y-0015584D02*
X0054042D01*
X0055702Y-0015474D02*
Y-0015714D01*
X0055612Y-0015474D02*
Y-0015714D01*
X0055522Y-0015474D02*
Y-0015714D01*
X0055432Y-0015474D02*
Y-0015714D01*
X0055342Y-0015474D02*
Y-0015714D01*
X0055252Y-0015474D02*
Y-0015714D01*
X0055162Y-0015474D02*
Y-0015714D01*
X0055072Y-0015474D02*
Y-0015714D01*
X0054982Y-0015474D02*
Y-0015714D01*
X0054892Y-0015474D02*
Y-0015714D01*
X0055752Y-0015674D02*
X0054042D01*
X0055752Y-0015474D02*
Y-0015714D01*
X0054042D01*
Y-0015474D02*
Y-0015714D01*
X0055752Y-0015474D02*
X0054042D01*
X0088071D02*
Y-0015714D01*
X0087981Y-0015474D02*
Y-0015714D01*
X0087891Y-0015474D02*
Y-0015714D01*
X0087801Y-0015474D02*
Y-0015714D01*
X0087711Y-0015474D02*
Y-0015714D01*
X0087621Y-0015474D02*
Y-0015714D01*
X0087531Y-0015474D02*
Y-0015714D01*
X0087441Y-0015474D02*
Y-0015714D01*
X0087351Y-0015474D02*
Y-0015714D01*
X0089021Y-0015494D02*
X0087311D01*
X0089021Y-0015584D02*
X0087311D01*
X0088971Y-0015474D02*
Y-0015714D01*
X0088881Y-0015474D02*
Y-0015714D01*
X0088791Y-0015474D02*
Y-0015714D01*
X0088701Y-0015474D02*
Y-0015714D01*
X0088611Y-0015474D02*
Y-0015714D01*
X0088521Y-0015474D02*
Y-0015714D01*
X0088431Y-0015474D02*
Y-0015714D01*
X0088341Y-0015474D02*
Y-0015714D01*
X0088251Y-0015474D02*
Y-0015714D01*
X0088161Y-0015474D02*
Y-0015714D01*
X0089021Y-0015674D02*
X0087311D01*
X0089021Y-0015474D02*
Y-0015714D01*
X0087311D01*
Y-0015474D02*
Y-0015714D01*
X0089021Y-0015474D02*
X0087311D01*
X0028671Y-0002200D02*
Y-0002440D01*
X0028581Y-0002200D02*
Y-0002440D01*
X0028491Y-0002200D02*
Y-0002440D01*
X0028401Y-0002200D02*
Y-0002440D01*
X0028311Y-0002200D02*
Y-0002440D01*
X0028221Y-0002200D02*
Y-0002440D01*
X0028131Y-0002200D02*
Y-0002440D01*
X0028041Y-0002200D02*
Y-0002440D01*
X0027951Y-0002200D02*
Y-0002440D01*
X0029621Y-0002220D02*
X0027911D01*
X0029621Y-0002310D02*
X0027911D01*
X0029571Y-0002200D02*
Y-0002440D01*
X0029481Y-0002200D02*
Y-0002440D01*
X0029391Y-0002200D02*
Y-0002440D01*
X0029301Y-0002200D02*
Y-0002440D01*
X0029211Y-0002200D02*
Y-0002440D01*
X0029121Y-0002200D02*
Y-0002440D01*
X0029031Y-0002200D02*
Y-0002440D01*
X0028941Y-0002200D02*
Y-0002440D01*
X0028851Y-0002200D02*
Y-0002440D01*
X0028761Y-0002200D02*
Y-0002440D01*
X0029621Y-0002400D02*
X0027911D01*
Y-0002200D02*
Y-0002440D01*
X0029621Y-0002200D02*
X0027911D01*
X0029621D02*
Y-0002440D01*
X0027911D01*
X0090039Y-0015474D02*
Y-0015714D01*
X0089949Y-0015474D02*
Y-0015714D01*
X0089859Y-0015474D02*
Y-0015714D01*
X0089769Y-0015474D02*
Y-0015714D01*
X0089679Y-0015474D02*
Y-0015714D01*
X0089589Y-0015474D02*
Y-0015714D01*
X0089499Y-0015474D02*
Y-0015714D01*
X0089409Y-0015474D02*
Y-0015714D01*
X0089319Y-0015474D02*
Y-0015714D01*
X0090989Y-0015494D02*
X0089279D01*
X0090989Y-0015584D02*
X0089279D01*
X0090939Y-0015474D02*
Y-0015714D01*
X0090849Y-0015474D02*
Y-0015714D01*
X0090759Y-0015474D02*
Y-0015714D01*
X0090669Y-0015474D02*
Y-0015714D01*
X0090579Y-0015474D02*
Y-0015714D01*
X0090489Y-0015474D02*
Y-0015714D01*
X0090399Y-0015474D02*
Y-0015714D01*
X0090309Y-0015474D02*
Y-0015714D01*
X0090219Y-0015474D02*
Y-0015714D01*
X0090129Y-0015474D02*
Y-0015714D01*
X0090989Y-0015674D02*
X0089279D01*
X0090989Y-0015474D02*
Y-0015714D01*
X0089279D01*
Y-0015474D02*
Y-0015714D01*
X0090989Y-0015474D02*
X0089279D01*
X0055316Y-0005709D02*
Y-0009646D01*
X0049804D01*
Y-0004921D01*
X0055316D01*
Y-0005709D01*
X0026455Y-0007993D02*
Y-0008233D01*
X0026365Y-0007993D02*
Y-0008233D01*
X0026275Y-0007993D02*
Y-0008233D01*
X0026185Y-0007993D02*
Y-0008233D01*
X0026095Y-0007993D02*
Y-0008233D01*
X0026005Y-0007993D02*
Y-0008233D01*
X0025915Y-0007993D02*
Y-0008233D01*
X0025825Y-0007993D02*
Y-0008233D01*
X0025735Y-0007993D02*
Y-0008233D01*
X0027405Y-0008013D02*
X0025695D01*
X0027405Y-0008103D02*
X0025695D01*
X0027355Y-0007993D02*
Y-0008233D01*
X0027265Y-0007993D02*
Y-0008233D01*
X0027175Y-0007993D02*
Y-0008233D01*
X0027085Y-0007993D02*
Y-0008233D01*
X0026995Y-0007993D02*
Y-0008233D01*
X0026905Y-0007993D02*
Y-0008233D01*
X0026815Y-0007993D02*
Y-0008233D01*
X0026725Y-0007993D02*
Y-0008233D01*
X0026635Y-0007993D02*
Y-0008233D01*
X0026545Y-0007993D02*
Y-0008233D01*
X0027405Y-0008193D02*
X0025695D01*
X0027405Y-0007993D02*
Y-0008233D01*
X0025695D01*
Y-0007993D02*
Y-0008233D01*
X0027405Y-0007993D02*
X0025695D01*
X0028621D02*
Y-0008233D01*
X0028531Y-0007993D02*
Y-0008233D01*
X0028441Y-0007993D02*
Y-0008233D01*
X0028351Y-0007993D02*
Y-0008233D01*
X0028261Y-0007993D02*
Y-0008233D01*
X0028171Y-0007993D02*
Y-0008233D01*
X0028081Y-0007993D02*
Y-0008233D01*
X0027991Y-0007993D02*
Y-0008233D01*
X0027901Y-0007993D02*
Y-0008233D01*
X0029571Y-0008013D02*
X0027861D01*
X0029571Y-0008103D02*
X0027861D01*
X0029521Y-0007993D02*
Y-0008233D01*
X0029431Y-0007993D02*
Y-0008233D01*
X0029341Y-0007993D02*
Y-0008233D01*
X0029251Y-0007993D02*
Y-0008233D01*
X0029161Y-0007993D02*
Y-0008233D01*
X0029071Y-0007993D02*
Y-0008233D01*
X0028981Y-0007993D02*
Y-0008233D01*
X0028891Y-0007993D02*
Y-0008233D01*
X0028801Y-0007993D02*
Y-0008233D01*
X0028711Y-0007993D02*
Y-0008233D01*
X0029571Y-0008193D02*
X0027861D01*
X0029571Y-0007993D02*
Y-0008233D01*
X0027861D01*
Y-0007993D02*
Y-0008233D01*
X0029571Y-0007993D02*
X0027861D01*
X0024290D02*
Y-0008233D01*
X0024200Y-0007993D02*
Y-0008233D01*
X0024110Y-0007993D02*
Y-0008233D01*
X0024020Y-0007993D02*
Y-0008233D01*
X0023930Y-0007993D02*
Y-0008233D01*
X0023840Y-0007993D02*
Y-0008233D01*
X0023750Y-0007993D02*
Y-0008233D01*
X0023660Y-0007993D02*
Y-0008233D01*
X0023570Y-0007993D02*
Y-0008233D01*
X0025240Y-0008013D02*
X0023530D01*
X0025240Y-0008103D02*
X0023530D01*
X0025190Y-0007993D02*
Y-0008233D01*
X0025100Y-0007993D02*
Y-0008233D01*
X0025010Y-0007993D02*
Y-0008233D01*
X0024920Y-0007993D02*
Y-0008233D01*
X0024830Y-0007993D02*
Y-0008233D01*
X0024740Y-0007993D02*
Y-0008233D01*
X0024650Y-0007993D02*
Y-0008233D01*
X0024560Y-0007993D02*
Y-0008233D01*
X0024470Y-0007993D02*
Y-0008233D01*
X0024380Y-0007993D02*
Y-0008233D01*
X0025240Y-0008193D02*
X0023530D01*
X0025240Y-0007993D02*
Y-0008233D01*
X0023530D01*
Y-0007993D02*
Y-0008233D01*
X0025240Y-0007993D02*
X0023530D01*
G54D58*
G01X0073705Y-0001123D02*
X0073593D01*
X0073649D02*
Y-0000789D01*
X0073593Y-0000845D01*
X0073350Y-0001067D02*
X0073322Y-0001123D01*
X0073156D01*
X0073128Y-0001067D01*
Y-0000845D01*
X0073156Y-0000789D01*
X0073322D01*
X0073350Y-0000845D01*
X0072940Y-0001123D02*
X0072829D01*
X0072885D02*
Y-0000789D01*
X0072940D02*
X0072829D01*
X0108757Y-0002119D02*
X0109357D01*
Y-0003319D02*
Y-0002119D01*
X0108757Y-0003319D02*
X0109357D01*
X0108757D02*
Y-0002119D01*
X0109938D02*
X0110538D01*
Y-0003319D02*
Y-0002119D01*
X0109938Y-0003319D02*
X0110538D01*
X0109938D02*
Y-0002119D01*
X0017198Y-0008765D02*
X0018498D01*
X0017198Y-0008465D02*
Y-0008765D01*
Y-0006365D02*
Y-0006665D01*
Y-0006365D02*
X0018498D01*
X0010384Y-0009114D02*
X0011722D01*
Y-0005906D01*
X0010384Y-0009114D02*
Y-0006457D01*
Y-0006452D02*
X0010935Y-0005906D01*
X0011722D01*
X0011683D02*
X0011722D01*
X0053057Y-0014495D02*
Y-0013195D01*
X0052757Y-0014495D02*
X0053057D01*
X0050657D02*
X0050957D01*
X0050657D02*
Y-0013195D01*
X0016661Y-0001865D02*
X0015361D01*
X0016661Y-0002165D02*
Y-0001865D01*
Y-0004265D02*
Y-0003965D01*
Y-0004265D02*
X0015361D01*
X0040454Y-0006798D02*
Y-0009553D01*
X0043210Y-0006798D02*
Y-0009553D01*
Y-0006798D02*
X0040454D01*
X0043210Y-0009553D02*
X0040454D01*
X0010384Y-0013248D02*
X0011722D01*
Y-0010040D01*
X0010384Y-0013248D02*
Y-0010591D01*
Y-0010586D02*
X0010935Y-0010040D01*
X0011722D01*
X0011683D02*
X0011722D01*
X0074884Y-0013740D02*
X0077009D01*
X0074884D02*
Y-0015079D01*
X0077560D01*
Y-0015040D02*
Y-0015079D01*
Y-0014292D02*
Y-0015079D01*
X0077014Y-0013740D02*
X0077560Y-0014292D01*
X0059506Y-0010711D02*
X0067756D01*
Y-0016211D01*
X0059506D01*
Y-0010711D01*
X0059562Y-0009789D02*
X0058762D01*
X0059562Y-0010289D02*
Y-0009789D01*
Y-0010289D02*
X0058762D01*
Y-0009789D01*
X0018648Y-0011714D02*
X0019148D01*
Y-0012514D02*
Y-0011714D01*
X0018648Y-0012514D02*
X0019148D01*
X0018648D02*
Y-0011714D01*
X0048085Y-0005609D02*
X0047585D01*
Y-0004809D02*
Y-0005609D01*
X0048085Y-0004809D02*
X0047585D01*
X0048085D02*
Y-0005609D01*
X0009108Y-0011514D02*
X0008608D01*
Y-0010714D02*
Y-0011514D01*
X0009108Y-0010714D02*
X0008608D01*
X0009108D02*
Y-0011514D01*
X0046995Y-0010927D02*
X0047495D01*
Y-0011727D02*
Y-0010927D01*
X0046995Y-0011727D02*
X0047495D01*
X0046995D02*
Y-0010927D01*
X0064665Y-0009789D02*
Y-0010289D01*
X0063865D02*
X0064665D01*
X0063865Y-0009789D02*
Y-0010289D01*
Y-0009789D02*
X0064665D01*
X0037743Y-0011124D02*
X0038243D01*
Y-0011924D02*
Y-0011124D01*
X0037743Y-0011924D02*
X0038243D01*
X0037743D02*
Y-0011124D01*
X0046404Y-0004824D02*
X0046904D01*
Y-0005624D02*
Y-0004824D01*
X0046404Y-0005624D02*
X0046904D01*
X0046404D02*
Y-0004824D01*
X0013136Y-0006399D02*
X0013636D01*
Y-0007199D02*
Y-0006399D01*
X0013136Y-0007199D02*
X0013636D01*
X0013136D02*
Y-0006399D01*
X0022782Y-0002856D02*
X0023282D01*
Y-0003656D02*
Y-0002856D01*
X0022782Y-0003656D02*
X0023282D01*
X0022782D02*
Y-0002856D01*
X0100299Y-0001037D02*
Y-0000537D01*
X0101099D02*
X0100299D01*
X0101099Y-0001037D02*
Y-0000537D01*
Y-0001037D02*
X0100299D01*
X0044389Y-0004278D02*
Y-0004778D01*
X0043589D02*
X0044389D01*
X0043589Y-0004278D02*
Y-0004778D01*
Y-0004278D02*
X0044389D01*
X0024660Y-0010530D02*
X0024160D01*
Y-0009730D02*
Y-0010530D01*
X0024660Y-0009730D02*
X0024160D01*
X0024660D02*
Y-0010530D01*
X0100299Y-0002218D02*
Y-0001718D01*
X0101099D02*
X0100299D01*
X0101099Y-0002218D02*
Y-0001718D01*
Y-0002218D02*
X0100299D01*
X0026771Y-0009491D02*
Y-0009806D01*
X0027402D02*
X0026772D01*
X0027402Y-0009486D02*
X0026772D01*
X0027401Y-0009491D02*
Y-0009806D01*
X0101280Y-0006837D02*
Y-0007337D01*
X0100480D02*
X0101280D01*
X0100480Y-0006837D02*
Y-0007337D01*
Y-0006837D02*
X0101280D01*
X0044389Y-0003096D02*
Y-0003596D01*
X0043589D02*
X0044389D01*
X0043589Y-0003096D02*
Y-0003596D01*
Y-0003096D02*
X0044389D01*
X0039424Y-0011908D02*
X0038924D01*
Y-0011108D02*
Y-0011908D01*
X0039424Y-0011108D02*
X0038924D01*
X0039424D02*
Y-0011908D01*
X0049267Y-0005609D02*
X0048767D01*
Y-0004809D02*
Y-0005609D01*
X0049267Y-0004809D02*
X0048767D01*
X0049267D02*
Y-0005609D01*
X0093660Y-0014172D02*
X0093345D01*
X0093346Y-0014803D02*
Y-0014173D01*
X0093666Y-0014803D02*
Y-0014173D01*
X0093660Y-0014802D02*
X0093345D01*
X0084791Y-0011517D02*
X0085291D01*
Y-0012317D02*
Y-0011517D01*
X0084791Y-0012317D02*
X0085291D01*
X0084791D02*
Y-0011517D01*
X0103842Y-0007337D02*
Y-0006837D01*
X0104642D02*
X0103842D01*
X0104642Y-0007337D02*
Y-0006837D01*
Y-0007337D02*
X0103842D01*
X0025841Y-0010530D02*
X0025341D01*
Y-0009730D02*
Y-0010530D01*
X0025841Y-0009730D02*
X0025341D01*
X0025841D02*
Y-0010530D01*
X0013136Y-0010533D02*
X0013636D01*
Y-0011333D02*
Y-0010533D01*
X0013136Y-0011333D02*
X0013636D01*
X0013136D02*
Y-0010533D01*
X0086967Y-0014172D02*
X0086652D01*
X0086653Y-0014803D02*
Y-0014173D01*
X0086973Y-0014803D02*
Y-0014173D01*
X0086967Y-0014802D02*
X0086652D01*
X0061321Y-0010289D02*
Y-0009789D01*
X0062121D02*
X0061321D01*
X0062121Y-0010289D02*
Y-0009789D01*
Y-0010289D02*
X0061321D01*
X0008608Y-0006399D02*
X0009108D01*
Y-0007199D02*
Y-0006399D01*
X0008608Y-0007199D02*
X0009108D01*
X0008608D02*
Y-0006399D01*
X0039227Y-0004624D02*
X0038727D01*
Y-0003824D02*
Y-0004624D01*
X0039227Y-0003824D02*
X0038727D01*
X0039227D02*
Y-0004624D01*
X0083019Y-0011517D02*
X0083519D01*
Y-0012317D02*
Y-0011517D01*
X0083019Y-0012317D02*
X0083519D01*
X0083019D02*
Y-0011517D01*
X0062456Y-0001868D02*
X0061956D01*
Y-0001068D02*
Y-0001868D01*
X0062456Y-0001068D02*
X0061956D01*
X0062456D02*
Y-0001868D01*
X0035880Y-0011908D02*
X0035380D01*
Y-0011108D02*
Y-0011908D01*
X0035880Y-0011108D02*
X0035380D01*
X0035880D02*
Y-0011908D01*
X0020723Y-0007577D02*
X0020223D01*
Y-0006777D02*
Y-0007577D01*
X0020723Y-0006777D02*
X0020223D01*
X0020723D02*
Y-0007577D01*
X0038046Y-0004624D02*
X0037546D01*
Y-0003824D02*
Y-0004624D01*
X0038046Y-0003824D02*
X0037546D01*
X0038046D02*
Y-0004624D01*
X0064031Y-0008955D02*
X0063531D01*
Y-0008155D02*
Y-0008955D01*
X0064031Y-0008155D02*
X0063531D01*
X0064031D02*
Y-0008955D01*
X0107626Y-0002659D02*
X0108126D01*
Y-0003459D02*
Y-0002659D01*
X0107626Y-0003459D02*
X0108126D01*
X0107626D02*
Y-0002659D01*
X0066440Y-0001825D02*
Y-0001325D01*
X0067240D02*
X0066440D01*
X0067240Y-0001825D02*
Y-0001325D01*
Y-0001825D02*
X0066440D01*
X0106445Y-0002659D02*
X0106945D01*
Y-0003459D02*
Y-0002659D01*
X0106445Y-0003459D02*
X0106945D01*
X0106445D02*
Y-0002659D01*
X0095618Y-0014077D02*
X0096118D01*
Y-0014877D02*
Y-0014077D01*
X0095618Y-0014877D02*
X0096118D01*
X0095618D02*
Y-0014077D01*
X0036562Y-0011124D02*
X0037062D01*
Y-0011924D02*
Y-0011124D01*
X0036562Y-0011924D02*
X0037062D01*
X0036562D02*
Y-0011124D01*
X0066440Y-0003006D02*
Y-0002506D01*
X0067240D02*
X0066440D01*
X0067240Y-0003006D02*
Y-0002506D01*
Y-0003006D02*
X0066440D01*
X0037062Y-0009939D02*
X0036562D01*
Y-0009139D02*
Y-0009939D01*
X0037062Y-0009139D02*
X0036562D01*
X0037062D02*
Y-0009939D01*
X0070420Y-0014470D02*
X0070920D01*
Y-0015270D02*
Y-0014470D01*
X0070420Y-0015270D02*
X0070920D01*
X0070420D02*
Y-0014470D01*
X0094437Y-0014077D02*
X0094937D01*
Y-0014877D02*
Y-0014077D01*
X0094437Y-0014877D02*
X0094937D01*
X0094437D02*
Y-0014077D01*
X0068255Y-0011911D02*
X0068755D01*
Y-0012711D02*
Y-0011911D01*
X0068255Y-0012711D02*
X0068755D01*
X0068255D02*
Y-0011911D01*
X0071995Y-0014470D02*
X0072495D01*
Y-0015270D02*
Y-0014470D01*
X0071995Y-0015270D02*
X0072495D01*
X0071995D02*
Y-0014470D01*
X0061275Y-0001868D02*
X0060775D01*
Y-0001068D02*
Y-0001868D01*
X0061275Y-0001068D02*
X0060775D01*
X0061275D02*
Y-0001868D01*
X0045026Y-0010911D02*
X0045526D01*
Y-0011711D02*
Y-0010911D01*
X0045026Y-0011711D02*
X0045526D01*
X0045026D02*
Y-0010911D01*
X0040258Y-0003990D02*
Y-0003490D01*
X0041058D02*
X0040258D01*
X0041058Y-0003990D02*
Y-0003490D01*
Y-0003990D02*
X0040258D01*
X0096996Y-0000887D02*
X0097496D01*
Y-0001687D02*
Y-0000887D01*
X0096996Y-0001687D02*
X0097496D01*
X0096996D02*
Y-0000887D01*
X0067027Y-0009789D02*
Y-0010289D01*
X0066227D02*
X0067027D01*
X0066227Y-0009789D02*
Y-0010289D01*
Y-0009789D02*
X0067027D01*
X0096416Y-0000589D02*
X0096101D01*
X0096102Y-0001220D02*
Y-0000590D01*
X0096422Y-0001220D02*
Y-0000590D01*
X0096416Y-0001219D02*
X0096101D01*
G01X0040788Y-0007231D02*
G03X0040879Y-0007140I0000000J0000091D01*
G01X0040697D02*
G03X0040788Y-0007231I0000091J0000000D01*
Y-0007050D02*
G03X0040698Y-0007140I0000000J0000090D01*
G01X0040878D02*
G03X0040788Y-0007050I0000090J0000000D01*
G54D154*
G01X0040450Y-0002041D02*
X0040522Y-0002113D01*
X0040666D01*
X0040739Y-0002041D01*
Y-0001968D01*
X0040594Y-0001824D01*
X0040739Y-0001680D01*
X0040450D01*
X0040394Y-0002113D02*
X0040177Y-0001680D01*
X0040394D02*
X0040177Y-0002113D01*
G54D156*
G01X0092618Y-0014033D02*
X0092968Y-0014403D01*
X0091628Y-0014033D02*
X0092618D01*
X0091268Y-0015723D02*
Y-0014403D01*
X0091628Y-0014033D01*
X0092968Y-0015723D02*
Y-0014403D01*
X0091268Y-0015723D02*
X0092968D01*
X0051042Y-0010731D02*
X0051412Y-0010381D01*
X0051042Y-0011721D02*
Y-0010731D01*
X0052732Y-0012081D02*
X0051412D01*
X0051042Y-0011721D01*
X0052732Y-0010381D02*
X0051412D01*
X0052732Y-0012081D02*
Y-0010381D01*
X0099114Y-0000647D02*
X0099464Y-0001017D01*
X0098124Y-0000647D02*
X0099114D01*
X0097764Y-0002337D02*
Y-0001017D01*
X0098124Y-0000647D01*
X0099464Y-0002337D02*
Y-0001017D01*
X0097764Y-0002337D02*
X0099464D01*
X0022734Y-0009506D02*
X0023084Y-0009876D01*
X0021744Y-0009506D02*
X0022734D01*
X0021384Y-0011196D02*
Y-0009876D01*
X0021744Y-0009506D01*
X0023084Y-0011196D02*
Y-0009876D01*
X0021384Y-0011196D02*
X0023084D01*
X0025293Y-0002222D02*
X0025643Y-0002592D01*
X0024303Y-0002222D02*
X0025293D01*
X0023943Y-0003912D02*
Y-0002592D01*
X0024303Y-0002222D01*
X0025643Y-0003912D02*
Y-0002592D01*
X0023943Y-0003912D02*
X0025643D01*
X0027262Y-0002222D02*
X0027612Y-0002592D01*
X0026272Y-0002222D02*
X0027262D01*
X0025912Y-0003912D02*
Y-0002592D01*
X0026272Y-0002222D01*
X0027612Y-0003912D02*
Y-0002592D01*
X0025912Y-0003912D02*
X0027612D01*
X0055412Y-0014033D02*
X0055762Y-0014403D01*
X0054422Y-0014033D02*
X0055412D01*
X0054062Y-0015723D02*
Y-0014403D01*
X0054422Y-0014033D01*
X0055762Y-0015723D02*
Y-0014403D01*
X0054062Y-0015723D02*
X0055762D01*
X0088681Y-0014033D02*
X0089031Y-0014403D01*
X0087691Y-0014033D02*
X0088681D01*
X0087331Y-0015723D02*
Y-0014403D01*
X0087691Y-0014033D01*
X0089031Y-0015723D02*
Y-0014403D01*
X0087331Y-0015723D02*
X0089031D01*
X0028251Y-0003880D02*
X0027901Y-0003510D01*
X0029241Y-0003880D02*
X0028251D01*
X0029601Y-0002190D02*
Y-0003510D01*
X0029241Y-0003880D01*
X0027901Y-0002190D02*
Y-0003510D01*
X0029601Y-0002190D02*
X0027901D01*
X0090649Y-0014033D02*
X0090999Y-0014403D01*
X0089659Y-0014033D02*
X0090649D01*
X0089299Y-0015723D02*
Y-0014403D01*
X0089659Y-0014033D01*
X0090999Y-0015723D02*
Y-0014403D01*
X0089299Y-0015723D02*
X0090999D01*
X0027065Y-0006553D02*
X0027415Y-0006923D01*
X0026075Y-0006553D02*
X0027065D01*
X0025715Y-0008243D02*
Y-0006923D01*
X0026075Y-0006553D01*
X0027415Y-0008243D02*
Y-0006923D01*
X0025715Y-0008243D02*
X0027415D01*
X0029231Y-0006553D02*
X0029581Y-0006923D01*
X0028241Y-0006553D02*
X0029231D01*
X0027881Y-0008243D02*
Y-0006923D01*
X0028241Y-0006553D01*
X0029581Y-0008243D02*
Y-0006923D01*
X0027881Y-0008243D02*
X0029581D01*
X0024900Y-0006553D02*
X0025250Y-0006923D01*
X0023910Y-0006553D02*
X0024900D01*
X0023550Y-0008243D02*
Y-0006923D01*
X0023910Y-0006553D01*
X0025250Y-0008243D02*
Y-0006923D01*
X0023550Y-0008243D02*
X0025250D01*
G54D157*
G01X0019194Y-0011072D02*
X0019038D01*
X0019116Y-0010917D01*
X0019155D01*
Y-0011150D01*
X0018743Y-0011111D02*
X0018782Y-0011150D01*
X0018860D01*
X0018899Y-0011111D01*
Y-0011072D01*
X0018821Y-0010994D01*
X0018899Y-0010917D01*
X0018743D01*
X0018546Y-0011033D02*
X0018604Y-0011150D01*
X0018448Y-0011033D02*
X0018565D01*
X0018604Y-0010994D01*
Y-0010955D01*
X0018565Y-0010917D01*
X0018448D01*
Y-0011150D01*
X0048046Y-0004207D02*
X0047968D01*
X0048007D02*
Y-0003973D01*
X0047968Y-0004012D01*
X0047790Y-0004207D02*
X0047635D01*
X0047790Y-0004051D01*
Y-0004012D01*
X0047771Y-0003973D01*
X0047654D01*
X0047635Y-0004012D01*
X0047437Y-0004090D02*
X0047495Y-0004207D01*
X0047340Y-0004090D02*
X0047456D01*
X0047495Y-0004051D01*
Y-0004012D01*
X0047456Y-0003973D01*
X0047340D01*
Y-0004207D01*
X0102107Y-0003101D02*
X0102146Y-0003140D01*
X0102223D01*
X0102262Y-0003101D01*
Y-0003062D01*
X0102184Y-0002984D01*
X0102262Y-0002906D01*
X0102107D01*
X0101967Y-0003140D02*
X0101889D01*
X0101928D02*
Y-0002906D01*
X0101889Y-0002945D01*
X0101711Y-0003101D02*
X0101692Y-0003140D01*
X0101575D01*
X0101556Y-0003101D01*
Y-0002945D01*
X0101575Y-0002906D01*
X0101692D01*
X0101711Y-0002945D01*
X0101416Y-0003140D02*
X0101338D01*
X0101377D02*
Y-0002906D01*
X0101416D02*
X0101338D01*
X0009088Y-0009996D02*
X0009108Y-0009957D01*
Y-0009918D01*
X0009088Y-0009879D01*
X0008972D01*
X0008952Y-0009918D01*
Y-0009957D01*
X0008972Y-0009996D01*
X0009088D01*
X0009108Y-0010034D01*
Y-0010073D01*
X0009088Y-0010112D01*
X0008972D01*
X0008952Y-0010073D01*
Y-0010034D01*
X0008972Y-0009996D01*
X0008813Y-0010112D02*
X0008657D01*
X0008813Y-0009957D01*
Y-0009918D01*
X0008793Y-0009879D01*
X0008677D01*
X0008657Y-0009918D01*
X0008518Y-0010073D02*
X0008498Y-0010112D01*
X0008382D01*
X0008362Y-0010073D01*
Y-0009918D01*
X0008382Y-0009879D01*
X0008498D01*
X0008518Y-0009918D01*
X0047502Y-0010285D02*
X0047347D01*
X0047424Y-0010129D01*
X0047463D01*
Y-0010363D01*
X0047207D02*
X0047129D01*
X0047168D02*
Y-0010129D01*
X0047129Y-0010168D01*
X0046893Y-0010246D02*
X0046951Y-0010363D01*
X0046795Y-0010246D02*
X0046912D01*
X0046951Y-0010207D01*
Y-0010168D01*
X0046912Y-0010129D01*
X0046795D01*
Y-0010363D01*
X0065229Y-0010219D02*
X0065463Y-0010335D01*
Y-0010180D01*
X0065229Y-0010040D02*
Y-0009885D01*
X0065385Y-0010040D01*
X0065424D01*
X0065463Y-0010021D01*
Y-0009904D01*
X0065424Y-0009885D01*
X0065346Y-0009687D02*
X0065229Y-0009745D01*
X0065346Y-0009590D02*
Y-0009707D01*
X0065385Y-0009745D01*
X0065424D01*
X0065463Y-0009707D01*
Y-0009590D01*
X0065229D01*
X0038289Y-0012922D02*
X0038133D01*
X0038289Y-0012766D01*
Y-0012727D01*
X0038269Y-0012688D01*
X0038153D01*
X0038133Y-0012727D01*
X0037994Y-0012922D02*
X0037838D01*
X0037994Y-0012766D01*
Y-0012727D01*
X0037974Y-0012688D01*
X0037858D01*
X0037838Y-0012727D01*
X0037640Y-0012805D02*
X0037699Y-0012922D01*
X0037543Y-0012805D02*
X0037660D01*
X0037699Y-0012766D01*
Y-0012727D01*
X0037660Y-0012688D01*
X0037543D01*
Y-0012922D01*
X0092374Y-0013600D02*
X0092490Y-0013367D01*
X0092335D01*
X0092040Y-0013561D02*
X0092079Y-0013600D01*
X0092156D01*
X0092195Y-0013561D01*
Y-0013522D01*
X0092118Y-0013445D01*
X0092195Y-0013367D01*
X0092040D01*
X0091900Y-0013561D02*
X0091881Y-0013600D01*
X0091764D01*
X0091745Y-0013561D01*
Y-0013406D01*
X0091764Y-0013367D01*
X0091881D01*
X0091900Y-0013406D01*
X0046892Y-0004143D02*
X0046911Y-0004105D01*
Y-0004066D01*
X0046892Y-0004027D01*
X0046775D01*
X0046756Y-0004066D01*
Y-0004105D01*
X0046775Y-0004143D01*
X0046892D01*
X0046911Y-0004182D01*
Y-0004221D01*
X0046892Y-0004260D01*
X0046775D01*
X0046756Y-0004221D01*
Y-0004182D01*
X0046775Y-0004143D01*
X0046616Y-0004260D02*
X0046538D01*
X0046577D02*
Y-0004027D01*
X0046538Y-0004066D01*
X0046302Y-0004143D02*
X0046360Y-0004260D01*
X0046205Y-0004143D02*
X0046321D01*
X0046360Y-0004105D01*
Y-0004066D01*
X0046321Y-0004027D01*
X0046205D01*
Y-0004260D01*
X0013565Y-0005835D02*
X0013682Y-0005602D01*
X0013526D01*
X0013387Y-0005835D02*
X0013231D01*
X0013387Y-0005679D01*
Y-0005640D01*
X0013368Y-0005602D01*
X0013251D01*
X0013231Y-0005640D01*
X0013092Y-0005796D02*
X0013073Y-0005835D01*
X0012956D01*
X0012936Y-0005796D01*
Y-0005640D01*
X0012956Y-0005602D01*
X0013073D01*
X0013092Y-0005640D01*
X0111665Y-0007796D02*
X0111509D01*
X0111587Y-0007641D01*
X0111626D01*
Y-0007874D01*
X0111370Y-0007835D02*
X0111350Y-0007874D01*
X0111233D01*
X0111214Y-0007835D01*
Y-0007680D01*
X0111233Y-0007641D01*
X0111350D01*
X0111370Y-0007680D01*
X0111075Y-0007874D02*
X0110997D01*
X0111036D02*
Y-0007641D01*
X0111075D02*
X0110997D01*
X0016752Y-0005500D02*
X0016596D01*
X0016752Y-0005345D01*
Y-0005306D01*
X0016732Y-0005267D01*
X0016616D01*
X0016596Y-0005306D01*
X0016379Y-0005384D02*
X0016457D01*
Y-0005461D01*
X0016437Y-0005500D01*
X0016321D01*
X0016301Y-0005461D01*
Y-0005306D01*
X0016321Y-0005267D01*
X0016437D01*
X0016457Y-0005306D01*
X0016123Y-0005384D02*
X0016006D01*
X0016162Y-0005500D02*
X0016006D01*
Y-0005267D01*
X0016162D01*
X0015808Y-0005384D02*
X0015867Y-0005500D01*
X0015711Y-0005384D02*
X0015828D01*
X0015867Y-0005345D01*
Y-0005306D01*
X0015828Y-0005267D01*
X0015711D01*
Y-0005500D01*
X0045759Y-0006264D02*
X0045798Y-0006303D01*
X0045876D01*
X0045915Y-0006264D01*
Y-0006225D01*
X0045837Y-0006148D01*
X0045915Y-0006070D01*
X0045759D01*
X0045620Y-0006264D02*
X0045600Y-0006303D01*
X0045484D01*
X0045464Y-0006264D01*
Y-0006109D01*
X0045484Y-0006070D01*
X0045600D01*
X0045620Y-0006109D01*
X0045325Y-0006303D02*
X0045247D01*
X0045286D02*
Y-0006070D01*
X0045325D02*
X0045247D01*
X0011421Y-0005600D02*
X0011441Y-0005561D01*
Y-0005522D01*
X0011421Y-0005483D01*
X0011304D01*
X0011285Y-0005522D01*
Y-0005561D01*
X0011304Y-0005600D01*
X0011421D01*
X0011441Y-0005639D01*
Y-0005678D01*
X0011421Y-0005717D01*
X0011304D01*
X0011285Y-0005678D01*
Y-0005639D01*
X0011304Y-0005600D01*
X0011146Y-0005678D02*
X0011126Y-0005717D01*
X0011009D01*
X0010990Y-0005678D01*
Y-0005522D01*
X0011009Y-0005483D01*
X0011126D01*
X0011146Y-0005522D01*
X0010851Y-0005717D02*
X0010773D01*
X0010812D02*
Y-0005483D01*
X0010851D02*
X0010773D01*
X0062561Y-0002826D02*
X0062522Y-0002787D01*
X0062503Y-0002748D01*
Y-0002671D01*
X0062522Y-0002632D01*
X0062561Y-0002593D01*
X0062600D01*
X0062639Y-0002632D01*
X0062659Y-0002671D01*
Y-0002748D01*
X0062639Y-0002787D01*
X0062600Y-0002826D01*
X0062561D01*
X0062364D02*
X0062286D01*
X0062325D02*
Y-0002593D01*
X0062286Y-0002632D01*
X0062107Y-0002787D02*
X0062088Y-0002826D01*
X0061971D01*
X0061952Y-0002787D01*
Y-0002632D01*
X0061971Y-0002593D01*
X0062088D01*
X0062107Y-0002632D01*
X0061812Y-0002826D02*
X0061735D01*
X0061774D02*
Y-0002593D01*
X0061812D02*
X0061735D01*
X0023289Y-0002095D02*
X0023211D01*
X0023250D02*
Y-0001862D01*
X0023211Y-0001900D01*
X0022897Y-0001978D02*
X0023013D01*
X0023033Y-0002017D01*
Y-0002056D01*
X0023013Y-0002095D01*
X0022897D01*
X0022877Y-0002056D01*
Y-0002017D01*
X0022955Y-0001862D01*
X0022738Y-0002056D02*
X0022718Y-0002095D01*
X0022602D01*
X0022582Y-0002056D01*
Y-0001900D01*
X0022602Y-0001862D01*
X0022718D01*
X0022738Y-0001900D01*
X0016770Y-0010730D02*
X0016692D01*
X0016731D02*
Y-0010496D01*
X0016692Y-0010535D01*
X0016378Y-0010730D02*
Y-0010496D01*
X0016358Y-0010730D02*
X0016475D01*
X0016514Y-0010652D01*
Y-0010574D01*
X0016475Y-0010496D01*
X0016358D01*
X0049714Y-0013367D02*
Y-0013523D01*
X0049559Y-0013445D01*
Y-0013406D01*
X0049792D01*
X0049676Y-0013740D02*
Y-0013662D01*
X0049753D01*
X0049792Y-0013681D01*
Y-0013798D01*
X0049753Y-0013818D01*
X0049598D01*
X0049559Y-0013798D01*
Y-0013681D01*
X0049598Y-0013662D01*
X0049676Y-0013996D02*
Y-0014113D01*
X0049792Y-0013957D02*
Y-0014113D01*
X0049559D01*
Y-0013957D01*
X0049676Y-0014310D02*
X0049792Y-0014252D01*
X0049676Y-0014408D02*
Y-0014291D01*
X0049637Y-0014252D01*
X0049598D01*
X0049559Y-0014291D01*
Y-0014408D01*
X0049792D01*
X0101701Y-0000900D02*
Y-0000822D01*
Y-0000861D02*
X0101934D01*
X0101895Y-0000822D01*
X0101817Y-0000585D02*
X0101701Y-0000644D01*
X0101817Y-0000488D02*
Y-0000605D01*
X0101856Y-0000644D01*
X0101895D01*
X0101934Y-0000605D01*
Y-0000488D01*
X0101701D01*
X0016826Y-0000998D02*
X0016748D01*
X0016787D02*
Y-0000765D01*
X0016748Y-0000804D01*
X0016492Y-0000881D02*
X0016570D01*
Y-0000959D01*
X0016550Y-0000998D01*
X0016434D01*
X0016414Y-0000959D01*
Y-0000804D01*
X0016434Y-0000765D01*
X0016550D01*
X0016570Y-0000804D01*
X0016236Y-0000881D02*
X0016119D01*
X0016275Y-0000998D02*
X0016119D01*
Y-0000765D01*
X0016275D01*
X0015921Y-0000881D02*
X0015980Y-0000998D01*
X0015824Y-0000881D02*
X0015941D01*
X0015980Y-0000843D01*
Y-0000804D01*
X0015941Y-0000765D01*
X0015824D01*
Y-0000998D01*
X0044953Y-0004668D02*
X0045187Y-0004785D01*
Y-0004629D01*
X0044953Y-0004490D02*
Y-0004412D01*
Y-0004451D02*
X0045187D01*
X0045148Y-0004412D01*
X0045070Y-0004175D02*
X0044953Y-0004234D01*
X0045070Y-0004078D02*
Y-0004195D01*
X0045109Y-0004234D01*
X0045148D01*
X0045187Y-0004195D01*
Y-0004078D01*
X0044953D01*
X0040521Y-0005976D02*
X0040366D01*
X0040521Y-0005820D01*
Y-0005781D01*
X0040502Y-0005742D01*
X0040385D01*
X0040366Y-0005781D01*
X0040226Y-0005937D02*
X0040207Y-0005976D01*
X0040090D01*
X0040071Y-0005937D01*
Y-0005781D01*
X0040090Y-0005742D01*
X0040207D01*
X0040226Y-0005781D01*
X0039931Y-0005976D02*
X0039854D01*
X0039893D02*
Y-0005742D01*
X0039931D02*
X0039854D01*
X0011324Y-0009851D02*
X0011441Y-0009617D01*
X0011285D01*
X0011146Y-0009812D02*
X0011126Y-0009851D01*
X0011009D01*
X0010990Y-0009812D01*
Y-0009656D01*
X0011009Y-0009617D01*
X0011126D01*
X0011146Y-0009656D01*
X0010851Y-0009851D02*
X0010773D01*
X0010812D02*
Y-0009617D01*
X0010851D02*
X0010773D01*
X0107769Y-0007835D02*
X0107788Y-0007874D01*
X0107905D01*
X0107924Y-0007835D01*
Y-0007757D01*
X0107886Y-0007718D01*
X0107769D01*
Y-0007641D01*
X0107924D01*
X0107629Y-0007835D02*
X0107610Y-0007874D01*
X0107493D01*
X0107474Y-0007835D01*
Y-0007679D01*
X0107493Y-0007641D01*
X0107610D01*
X0107629Y-0007679D01*
X0107334Y-0007874D02*
X0107257D01*
X0107296D02*
Y-0007641D01*
X0107334D02*
X0107257D01*
X0076371Y-0012793D02*
X0076294D01*
X0076332D02*
Y-0012559D01*
X0076294Y-0012598D01*
X0076115Y-0012793D02*
X0076037D01*
X0076076D02*
Y-0012559D01*
X0076037Y-0012598D01*
X0075859Y-0012754D02*
X0075840Y-0012793D01*
X0075723D01*
X0075704Y-0012754D01*
Y-0012598D01*
X0075723Y-0012559D01*
X0075840D01*
X0075859Y-0012598D01*
X0075564Y-0012793D02*
X0075486D01*
X0075525D02*
Y-0012559D01*
X0075564D02*
X0075486D01*
X0024659Y-0009128D02*
X0024504D01*
X0024659Y-0008973D01*
Y-0008934D01*
X0024640Y-0008895D01*
X0024523D01*
X0024504Y-0008934D01*
X0024209Y-0009089D02*
X0024248Y-0009128D01*
X0024325D01*
X0024364Y-0009089D01*
Y-0009050D01*
X0024287Y-0008973D01*
X0024364Y-0008895D01*
X0024209D01*
X0024011Y-0009012D02*
X0024069Y-0009128D01*
X0023914Y-0009012D02*
X0024030D01*
X0024069Y-0008973D01*
Y-0008934D01*
X0024030Y-0008895D01*
X0023914D01*
Y-0009128D01*
X0025992Y-0013743D02*
X0026031Y-0013782D01*
X0026108D01*
X0026147Y-0013743D01*
Y-0013704D01*
X0026070Y-0013626D01*
X0026147Y-0013549D01*
X0025992D01*
X0025775Y-0013665D02*
X0025852D01*
Y-0013743D01*
X0025833Y-0013782D01*
X0025716D01*
X0025697Y-0013743D01*
Y-0013587D01*
X0025716Y-0013549D01*
X0025833D01*
X0025852Y-0013587D01*
X0025518Y-0013665D02*
X0025402D01*
X0025557Y-0013782D02*
X0025402D01*
Y-0013549D01*
X0025557D01*
X0025204Y-0013665D02*
X0025262Y-0013782D01*
X0025107Y-0013665D02*
X0025223D01*
X0025262Y-0013626D01*
Y-0013587D01*
X0025223Y-0013549D01*
X0025107D01*
Y-0013782D01*
X0070060Y-0009205D02*
X0069944D01*
X0069924Y-0009167D01*
Y-0009128D01*
X0069944Y-0009089D01*
X0070060D01*
X0070080Y-0009128D01*
Y-0009167D01*
X0070002Y-0009322D01*
X0069785Y-0009283D02*
X0069765Y-0009322D01*
X0069649D01*
X0069629Y-0009283D01*
Y-0009128D01*
X0069649Y-0009089D01*
X0069765D01*
X0069785Y-0009128D01*
X0069490Y-0009322D02*
X0069412D01*
X0069451D02*
Y-0009089D01*
X0069490D02*
X0069412D01*
X0101778Y-0002120D02*
Y-0001964D01*
X0101934Y-0002042D01*
Y-0002081D01*
X0101701D01*
X0101817Y-0001767D02*
X0101701Y-0001825D01*
X0101817Y-0001669D02*
Y-0001786D01*
X0101856Y-0001825D01*
X0101895D01*
X0101934Y-0001786D01*
Y-0001669D01*
X0101701D01*
X0050412Y-0010897D02*
Y-0010974D01*
Y-0010936D02*
X0050179D01*
X0050217Y-0010974D01*
X0050334Y-0011153D02*
Y-0011308D01*
X0050179Y-0011231D01*
Y-0011192D01*
X0050412D01*
X0050373Y-0011448D02*
X0050412Y-0011467D01*
Y-0011584D01*
X0050373Y-0011603D01*
X0050217D01*
X0050179Y-0011584D01*
Y-0011467D01*
X0050217Y-0011448D01*
X0098831Y-0000175D02*
X0098851Y-0000214D01*
X0098967D01*
X0098987Y-0000175D01*
Y-0000097D01*
X0098948Y-0000058D01*
X0098831D01*
Y0000020D01*
X0098987D01*
X0098536Y-0000175D02*
X0098575Y-0000214D01*
X0098653D01*
X0098692Y-0000175D01*
Y-0000136D01*
X0098614Y-0000058D01*
X0098692Y0000020D01*
X0098536D01*
X0098397Y-0000175D02*
X0098377Y-0000214D01*
X0098261D01*
X0098241Y-0000175D01*
Y-0000019D01*
X0098261Y0000020D01*
X0098377D01*
X0098397Y-0000019D01*
X0022607Y-0009072D02*
X0022452D01*
X0022607Y-0008917D01*
Y-0008878D01*
X0022588Y-0008839D01*
X0022471D01*
X0022452Y-0008878D01*
X0022195Y-0009072D02*
X0022312Y-0008839D01*
X0022157D01*
X0022017Y-0009033D02*
X0021998Y-0009072D01*
X0021881D01*
X0021862Y-0009033D01*
Y-0008878D01*
X0021881Y-0008839D01*
X0021998D01*
X0022017Y-0008878D01*
X0025166Y-0001592D02*
X0025011D01*
X0025166Y-0001436D01*
Y-0001397D01*
X0025147Y-0001359D01*
X0025030D01*
X0025011Y-0001397D01*
X0024735Y-0001475D02*
X0024852D01*
X0024871Y-0001514D01*
Y-0001553D01*
X0024852Y-0001592D01*
X0024735D01*
X0024716Y-0001553D01*
Y-0001514D01*
X0024793Y-0001359D01*
X0024576Y-0001553D02*
X0024557Y-0001592D01*
X0024440D01*
X0024421Y-0001553D01*
Y-0001397D01*
X0024440Y-0001359D01*
X0024557D01*
X0024576Y-0001397D01*
X0027059Y-0009075D02*
X0026903D01*
X0026981Y-0008919D01*
X0027020D01*
Y-0009152D01*
X0026764D02*
X0026627D01*
Y-0008919D01*
X0060164Y-0010172D02*
X0060398Y-0010289D01*
Y-0010134D01*
X0060164Y-0009877D02*
X0060398Y-0009994D01*
Y-0009839D01*
X0060203Y-0009699D02*
X0060164Y-0009680D01*
Y-0009563D01*
X0060203Y-0009544D01*
X0060359D01*
X0060398Y-0009563D01*
Y-0009680D01*
X0060359Y-0009699D01*
X0101883Y-0007326D02*
X0101844Y-0007345D01*
Y-0007462D01*
X0101883Y-0007481D01*
X0101961D01*
X0102000Y-0007443D01*
Y-0007326D01*
X0102078D01*
Y-0007481D01*
X0101883Y-0007186D02*
X0101844Y-0007167D01*
Y-0007050D01*
X0101883Y-0007031D01*
X0102039D01*
X0102078Y-0007050D01*
Y-0007167D01*
X0102039Y-0007186D01*
X0045070Y-0003467D02*
Y-0003584D01*
X0045031Y-0003604D01*
X0044992D01*
X0044953Y-0003584D01*
Y-0003467D01*
X0044992Y-0003448D01*
X0045031D01*
X0045187Y-0003526D01*
X0044953Y-0003309D02*
Y-0003231D01*
Y-0003270D02*
X0045187D01*
X0045148Y-0003231D01*
X0045070Y-0002994D02*
X0044953Y-0003052D01*
X0045070Y-0002897D02*
Y-0003014D01*
X0045109Y-0003052D01*
X0045148D01*
X0045187Y-0003014D01*
Y-0002897D01*
X0044953D01*
X0039423Y-0012791D02*
X0039268D01*
X0039346Y-0012635D01*
X0039384D01*
Y-0012868D01*
X0038973Y-0012830D02*
X0039012Y-0012868D01*
X0039089D01*
X0039128Y-0012830D01*
Y-0012791D01*
X0039051Y-0012713D01*
X0039128Y-0012635D01*
X0038973D01*
X0038833Y-0012830D02*
X0038814Y-0012868D01*
X0038697D01*
X0038678Y-0012830D01*
Y-0012674D01*
X0038697Y-0012635D01*
X0038814D01*
X0038833Y-0012674D01*
X0049111Y-0004168D02*
X0049150Y-0004207D01*
X0049227D01*
X0049266Y-0004168D01*
Y-0004129D01*
X0049189Y-0004051D01*
X0049266Y-0003973D01*
X0049111D01*
X0048816Y-0004168D02*
X0048855Y-0004207D01*
X0048932D01*
X0048971Y-0004168D01*
Y-0004129D01*
X0048894Y-0004051D01*
X0048971Y-0003973D01*
X0048816D01*
X0048676Y-0004168D02*
X0048657Y-0004207D01*
X0048540D01*
X0048521Y-0004168D01*
Y-0004012D01*
X0048540Y-0003973D01*
X0048657D01*
X0048676Y-0004012D01*
X0093762Y-0013715D02*
X0093606D01*
X0093762Y-0013560D01*
Y-0013521D01*
X0093742Y-0013482D01*
X0093626D01*
X0093606Y-0013521D01*
X0093467Y-0013715D02*
X0093331D01*
Y-0013482D01*
X0027115Y-0001475D02*
X0026999D01*
X0026979Y-0001436D01*
Y-0001397D01*
X0026999Y-0001359D01*
X0027115D01*
X0027135Y-0001397D01*
Y-0001436D01*
X0027057Y-0001592D01*
X0026684Y-0001553D02*
X0026704Y-0001592D01*
X0026820D01*
X0026840Y-0001553D01*
Y-0001475D01*
X0026801Y-0001436D01*
X0026684D01*
Y-0001359D01*
X0026840D01*
X0026545Y-0001553D02*
X0026525Y-0001592D01*
X0026409D01*
X0026389Y-0001553D01*
Y-0001397D01*
X0026409Y-0001359D01*
X0026525D01*
X0026545Y-0001397D01*
X0085378Y-0010914D02*
X0085398Y-0010953D01*
X0085515D01*
X0085534Y-0010914D01*
Y-0010837D01*
X0085495Y-0010798D01*
X0085378D01*
Y-0010720D01*
X0085534D01*
X0085239Y-0010953D02*
X0085083D01*
X0085239Y-0010798D01*
Y-0010759D01*
X0085220Y-0010720D01*
X0085103D01*
X0085083Y-0010759D01*
X0084886Y-0010837D02*
X0084944Y-0010953D01*
X0084788Y-0010837D02*
X0084905D01*
X0084944Y-0010798D01*
Y-0010759D01*
X0084905Y-0010720D01*
X0084788D01*
Y-0010953D01*
X0103161Y-0007105D02*
Y-0007222D01*
X0103122Y-0007241D01*
X0103083D01*
X0103044Y-0007222D01*
Y-0007105D01*
X0103083Y-0007086D01*
X0103122D01*
X0103278Y-0007163D01*
X0103239Y-0007381D02*
X0103278Y-0007400D01*
Y-0007517D01*
X0103239Y-0007536D01*
X0103083D01*
X0103044Y-0007517D01*
Y-0007400D01*
X0103083Y-0007381D01*
X0025724Y-0009128D02*
X0025841Y-0008895D01*
X0025685D01*
X0025410Y-0009012D02*
X0025526D01*
X0025546Y-0009050D01*
Y-0009089D01*
X0025526Y-0009128D01*
X0025410D01*
X0025390Y-0009089D01*
Y-0009050D01*
X0025468Y-0008895D01*
X0025251Y-0009089D02*
X0025231Y-0009128D01*
X0025115D01*
X0025095Y-0009089D01*
Y-0008934D01*
X0025115Y-0008895D01*
X0025231D01*
X0025251Y-0008934D01*
X0013663Y-0009852D02*
X0013546D01*
X0013526Y-0009813D01*
Y-0009774D01*
X0013546Y-0009736D01*
X0013663D01*
X0013682Y-0009774D01*
Y-0009813D01*
X0013604Y-0009969D01*
X0013387D02*
X0013231D01*
X0013387Y-0009813D01*
Y-0009774D01*
X0013368Y-0009736D01*
X0013251D01*
X0013231Y-0009774D01*
X0013092Y-0009930D02*
X0013073Y-0009969D01*
X0012956D01*
X0012936Y-0009930D01*
Y-0009774D01*
X0012956Y-0009736D01*
X0013073D01*
X0013092Y-0009774D01*
X0055285Y-0013403D02*
X0055129D01*
X0055285Y-0013248D01*
Y-0013209D01*
X0055265Y-0013170D01*
X0055149D01*
X0055129Y-0013209D01*
X0054990Y-0013326D02*
X0054834D01*
X0054912Y-0013170D01*
X0054951D01*
Y-0013403D01*
X0054695Y-0013365D02*
X0054675Y-0013403D01*
X0054559D01*
X0054539Y-0013365D01*
Y-0013209D01*
X0054559Y-0013170D01*
X0054675D01*
X0054695Y-0013209D01*
X0086913Y-0013676D02*
X0086933Y-0013715D01*
X0087049D01*
X0087069Y-0013676D01*
Y-0013599D01*
X0087030Y-0013560D01*
X0086913D01*
Y-0013482D01*
X0087069D01*
X0086774Y-0013715D02*
X0086638D01*
Y-0013482D01*
X0062840Y-0010153D02*
Y-0010270D01*
X0062801Y-0010289D01*
X0062762D01*
X0062723Y-0010270D01*
Y-0010153D01*
X0062762Y-0010134D01*
X0062801D01*
X0062957Y-0010211D01*
X0062801Y-0009994D02*
Y-0009839D01*
X0062957Y-0009916D01*
Y-0009955D01*
X0062723D01*
X0062762Y-0009699D02*
X0062723Y-0009680D01*
Y-0009563D01*
X0062762Y-0009544D01*
X0062918D01*
X0062957Y-0009563D01*
Y-0009680D01*
X0062918Y-0009699D01*
X0109140Y-0001510D02*
X0109160Y-0001549D01*
X0109277D01*
X0109296Y-0001510D01*
Y-0001432D01*
X0109257Y-0001394D01*
X0109140D01*
Y-0001316D01*
X0109296D01*
X0109001Y-0001549D02*
X0108923D01*
X0108962D02*
Y-0001316D01*
X0108923Y-0001355D01*
X0108745Y-0001510D02*
X0108725Y-0001549D01*
X0108609D01*
X0108589Y-0001510D01*
Y-0001355D01*
X0108609Y-0001316D01*
X0108725D01*
X0108745Y-0001355D01*
X0009018Y-0005718D02*
X0009135D01*
X0009154Y-0005757D01*
Y-0005796D01*
X0009135Y-0005835D01*
X0009018D01*
X0008999Y-0005796D01*
Y-0005757D01*
X0009076Y-0005602D01*
X0008859Y-0005835D02*
X0008704D01*
X0008859Y-0005679D01*
Y-0005640D01*
X0008840Y-0005602D01*
X0008723D01*
X0008704Y-0005640D01*
X0008564Y-0005796D02*
X0008545Y-0005835D01*
X0008428D01*
X0008409Y-0005796D01*
Y-0005640D01*
X0008428Y-0005602D01*
X0008545D01*
X0008564Y-0005640D01*
X0039227Y-0003223D02*
X0039071D01*
X0039227Y-0003067D01*
Y-0003028D01*
X0039207Y-0002989D01*
X0039091D01*
X0039071Y-0003028D01*
X0038776Y-0003184D02*
X0038815Y-0003223D01*
X0038893D01*
X0038932Y-0003184D01*
Y-0003145D01*
X0038854Y-0003067D01*
X0038932Y-0002989D01*
X0038776D01*
X0038637Y-0003184D02*
X0038617Y-0003223D01*
X0038501D01*
X0038481Y-0003184D01*
Y-0003028D01*
X0038501Y-0002989D01*
X0038617D01*
X0038637Y-0003028D01*
X0083429Y-0010837D02*
X0083546D01*
X0083565Y-0010875D01*
Y-0010914D01*
X0083546Y-0010953D01*
X0083429D01*
X0083410Y-0010914D01*
Y-0010875D01*
X0083487Y-0010720D01*
X0083270Y-0010953D02*
X0083115D01*
X0083270Y-0010798D01*
Y-0010759D01*
X0083251Y-0010720D01*
X0083134D01*
X0083115Y-0010759D01*
X0082917Y-0010837D02*
X0082975Y-0010953D01*
X0082820Y-0010837D02*
X0082936D01*
X0082975Y-0010798D01*
Y-0010759D01*
X0082936Y-0010720D01*
X0082820D01*
Y-0010953D01*
X0062300Y-0000428D02*
X0062319Y-0000467D01*
X0062436D01*
X0062455Y-0000428D01*
Y-0000350D01*
X0062416Y-0000311D01*
X0062300D01*
Y-0000233D01*
X0062455D01*
X0062044Y-0000467D02*
X0062160Y-0000233D01*
X0062005D01*
X0061865Y-0000428D02*
X0061846Y-0000467D01*
X0061729D01*
X0061710Y-0000428D01*
Y-0000272D01*
X0061729Y-0000233D01*
X0061846D01*
X0061865Y-0000272D01*
X0088534Y-0013483D02*
X0088553Y-0013445D01*
Y-0013406D01*
X0088534Y-0013367D01*
X0088417D01*
X0088398Y-0013406D01*
Y-0013445D01*
X0088417Y-0013483D01*
X0088534D01*
X0088553Y-0013522D01*
Y-0013561D01*
X0088534Y-0013600D01*
X0088417D01*
X0088398Y-0013561D01*
Y-0013522D01*
X0088417Y-0013483D01*
X0088122D02*
X0088239D01*
X0088258Y-0013522D01*
Y-0013561D01*
X0088239Y-0013600D01*
X0088122D01*
X0088103Y-0013561D01*
Y-0013522D01*
X0088181Y-0013367D01*
X0087963Y-0013561D02*
X0087944Y-0013600D01*
X0087827D01*
X0087808Y-0013561D01*
Y-0013406D01*
X0087827Y-0013367D01*
X0087944D01*
X0087963Y-0013406D01*
X0035880Y-0012791D02*
X0035725D01*
X0035802Y-0012635D01*
X0035841D01*
Y-0012869D01*
X0035585D02*
X0035430D01*
X0035585Y-0012713D01*
Y-0012674D01*
X0035566Y-0012635D01*
X0035449D01*
X0035430Y-0012674D01*
X0035232Y-0012752D02*
X0035290Y-0012869D01*
X0035135Y-0012752D02*
X0035251D01*
X0035290Y-0012713D01*
Y-0012674D01*
X0035251Y-0012635D01*
X0035135D01*
Y-0012869D01*
X0020722Y-0006097D02*
X0020567D01*
X0020645Y-0005942D01*
X0020683D01*
Y-0006175D01*
X0020291Y-0006059D02*
X0020408D01*
X0020427Y-0006097D01*
Y-0006136D01*
X0020408Y-0006175D01*
X0020291D01*
X0020272Y-0006136D01*
Y-0006097D01*
X0020350Y-0005942D01*
X0020132Y-0006136D02*
X0020113Y-0006175D01*
X0019996D01*
X0019977Y-0006136D01*
Y-0005981D01*
X0019996Y-0005942D01*
X0020113D01*
X0020132Y-0005981D01*
X0028826Y-0001560D02*
X0028788Y-0001521D01*
X0028768Y-0001482D01*
Y-0001405D01*
X0028788Y-0001366D01*
X0028826Y-0001327D01*
X0028865D01*
X0028904Y-0001366D01*
X0028924Y-0001405D01*
Y-0001482D01*
X0028904Y-0001521D01*
X0028865Y-0001560D01*
X0028826D01*
X0028493Y-0001443D02*
X0028609D01*
X0028629Y-0001482D01*
Y-0001521D01*
X0028609Y-0001560D01*
X0028493D01*
X0028473Y-0001521D01*
Y-0001482D01*
X0028551Y-0001327D01*
X0028334Y-0001521D02*
X0028314Y-0001560D01*
X0028198D01*
X0028178Y-0001521D01*
Y-0001366D01*
X0028198Y-0001327D01*
X0028314D01*
X0028334Y-0001366D01*
X0090502Y-0013483D02*
X0090386D01*
X0090366Y-0013445D01*
Y-0013406D01*
X0090386Y-0013367D01*
X0090502D01*
X0090522Y-0013406D01*
Y-0013445D01*
X0090444Y-0013600D01*
X0090071Y-0013561D02*
X0090110Y-0013600D01*
X0090188D01*
X0090227Y-0013561D01*
Y-0013522D01*
X0090149Y-0013445D01*
X0090227Y-0013367D01*
X0090071D01*
X0089932Y-0013561D02*
X0089912Y-0013600D01*
X0089796D01*
X0089776Y-0013561D01*
Y-0013406D01*
X0089796Y-0013367D01*
X0089912D01*
X0089932Y-0013406D01*
X0050301Y-0004191D02*
X0050341Y-0004231D01*
X0050421D01*
X0050461Y-0004191D01*
Y-0004151D01*
X0050381Y-0004071D01*
X0050461Y-0003991D01*
X0050301D01*
X0050161Y-0004231D02*
X0050021D01*
Y-0003991D01*
X0037948Y-0003223D02*
X0037910Y-0003184D01*
X0037890Y-0003145D01*
Y-0003067D01*
X0037910Y-0003028D01*
X0037948Y-0002989D01*
X0037987D01*
X0038026Y-0003028D01*
X0038046Y-0003067D01*
Y-0003145D01*
X0038026Y-0003184D01*
X0037987Y-0003223D01*
X0037948D01*
X0037595Y-0003184D02*
X0037634Y-0003223D01*
X0037712D01*
X0037751Y-0003184D01*
Y-0003145D01*
X0037673Y-0003067D01*
X0037751Y-0002989D01*
X0037595D01*
X0037456Y-0003184D02*
X0037436Y-0003223D01*
X0037320D01*
X0037300Y-0003184D01*
Y-0003028D01*
X0037320Y-0002989D01*
X0037436D01*
X0037456Y-0003028D01*
X0064011Y-0007437D02*
X0064030Y-0007398D01*
Y-0007359D01*
X0064011Y-0007320D01*
X0063894D01*
X0063875Y-0007359D01*
Y-0007398D01*
X0063894Y-0007437D01*
X0064011D01*
X0064030Y-0007475D01*
Y-0007514D01*
X0064011Y-0007553D01*
X0063894D01*
X0063875Y-0007514D01*
Y-0007475D01*
X0063894Y-0007437D01*
X0063735Y-0007553D02*
X0063580D01*
X0063735Y-0007398D01*
Y-0007359D01*
X0063716Y-0007320D01*
X0063599D01*
X0063580Y-0007359D01*
X0063382Y-0007437D02*
X0063440Y-0007553D01*
X0063285Y-0007437D02*
X0063401D01*
X0063440Y-0007398D01*
Y-0007359D01*
X0063401Y-0007320D01*
X0063285D01*
Y-0007553D01*
X0108468Y-0002095D02*
X0108312D01*
X0108468Y-0001939D01*
Y-0001900D01*
X0108448Y-0001861D01*
X0108332D01*
X0108312Y-0001900D01*
X0108173Y-0002056D02*
X0108153Y-0002095D01*
X0108037D01*
X0108017Y-0002056D01*
Y-0001900D01*
X0108037Y-0001861D01*
X0108153D01*
X0108173Y-0001900D01*
X0067880Y-0001669D02*
X0067842Y-0001688D01*
Y-0001805D01*
X0067880Y-0001824D01*
X0067958D01*
X0067997Y-0001785D01*
Y-0001669D01*
X0068075D01*
Y-0001824D01*
X0067880Y-0001374D02*
X0067842Y-0001413D01*
Y-0001490D01*
X0067880Y-0001529D01*
X0067919D01*
X0067997Y-0001452D01*
X0068075Y-0001529D01*
Y-0001374D01*
X0067958Y-0001176D02*
X0067842Y-0001234D01*
X0067958Y-0001079D02*
Y-0001195D01*
X0067997Y-0001234D01*
X0068036D01*
X0068075Y-0001195D01*
Y-0001079D01*
X0067842D01*
X0110477Y-0001471D02*
X0110322D01*
X0110399Y-0001316D01*
X0110438D01*
Y-0001549D01*
X0110182D02*
X0110104D01*
X0110143D02*
Y-0001316D01*
X0110104Y-0001355D01*
X0109926Y-0001510D02*
X0109907Y-0001549D01*
X0109790D01*
X0109770Y-0001510D01*
Y-0001355D01*
X0109790Y-0001316D01*
X0109907D01*
X0109926Y-0001355D01*
X0107150Y-0001978D02*
X0107267D01*
X0107286Y-0002017D01*
Y-0002056D01*
X0107267Y-0002095D01*
X0107150D01*
X0107131Y-0002056D01*
Y-0002017D01*
X0107209Y-0001861D01*
X0106933Y-0001978D02*
X0106991Y-0002095D01*
X0106836Y-0001978D02*
X0106952D01*
X0106991Y-0001939D01*
Y-0001900D01*
X0106952Y-0001861D01*
X0106836D01*
Y-0002095D01*
X0040458Y-0001238D02*
X0040498Y-0001278D01*
X0040578D01*
X0040618Y-0001238D01*
Y-0001198D01*
X0040538Y-0001118D01*
X0040618Y-0001038D01*
X0040458D01*
X0040318Y-0001278D02*
X0040198Y-0001038D01*
X0040318D02*
X0040198Y-0001278D01*
X0096067Y-0013512D02*
X0096028Y-0013474D01*
X0096008Y-0013435D01*
Y-0013357D01*
X0096028Y-0013318D01*
X0096067Y-0013279D01*
X0096106D01*
X0096145Y-0013318D01*
X0096164Y-0013357D01*
Y-0013435D01*
X0096145Y-0013474D01*
X0096106Y-0013512D01*
X0096067D01*
X0095869Y-0013435D02*
X0095713D01*
X0095791Y-0013279D01*
X0095830D01*
Y-0013512D01*
X0095574Y-0013474D02*
X0095555Y-0013512D01*
X0095438D01*
X0095418Y-0013474D01*
Y-0013318D01*
X0095438Y-0013279D01*
X0095555D01*
X0095574Y-0013318D01*
X0036952Y-0012883D02*
X0036991Y-0012922D01*
X0037069D01*
X0037108Y-0012883D01*
Y-0012844D01*
X0037030Y-0012766D01*
X0037108Y-0012688D01*
X0036952D01*
X0036813Y-0012922D02*
X0036657D01*
X0036813Y-0012766D01*
Y-0012727D01*
X0036793Y-0012688D01*
X0036677D01*
X0036657Y-0012727D01*
X0036459Y-0012805D02*
X0036518Y-0012922D01*
X0036362Y-0012805D02*
X0036479D01*
X0036518Y-0012766D01*
Y-0012727D01*
X0036479Y-0012688D01*
X0036362D01*
Y-0012922D01*
X0026802Y-0005806D02*
X0026918D01*
X0026938Y-0005845D01*
Y-0005884D01*
X0026918Y-0005923D01*
X0026802D01*
X0026782Y-0005884D01*
Y-0005845D01*
X0026860Y-0005689D01*
X0026507Y-0005806D02*
X0026623D01*
X0026643Y-0005845D01*
Y-0005884D01*
X0026623Y-0005923D01*
X0026507D01*
X0026487Y-0005884D01*
Y-0005845D01*
X0026565Y-0005689D01*
X0026348Y-0005884D02*
X0026328Y-0005923D01*
X0026212D01*
X0026192Y-0005884D01*
Y-0005728D01*
X0026212Y-0005689D01*
X0026328D01*
X0026348Y-0005728D01*
X0067958Y-0002870D02*
Y-0002986D01*
X0067919Y-0003006D01*
X0067880D01*
X0067842Y-0002986D01*
Y-0002870D01*
X0067880Y-0002850D01*
X0067919D01*
X0068075Y-0002928D01*
X0067880Y-0002555D02*
X0067842Y-0002594D01*
Y-0002672D01*
X0067880Y-0002711D01*
X0067919D01*
X0067997Y-0002633D01*
X0068075Y-0002711D01*
Y-0002555D01*
X0067958Y-0002357D02*
X0067842Y-0002416D01*
X0067958Y-0002260D02*
Y-0002377D01*
X0067997Y-0002416D01*
X0068036D01*
X0068075Y-0002377D01*
Y-0002260D01*
X0067842D01*
X0028948Y-0005884D02*
X0028967Y-0005923D01*
X0029084D01*
X0029103Y-0005884D01*
Y-0005806D01*
X0029064Y-0005767D01*
X0028948D01*
Y-0005689D01*
X0029103D01*
X0028672Y-0005806D02*
X0028789D01*
X0028808Y-0005845D01*
Y-0005884D01*
X0028789Y-0005923D01*
X0028672D01*
X0028653Y-0005884D01*
Y-0005845D01*
X0028731Y-0005689D01*
X0028513Y-0005884D02*
X0028494Y-0005923D01*
X0028377D01*
X0028358Y-0005884D01*
Y-0005728D01*
X0028377Y-0005689D01*
X0028494D01*
X0028513Y-0005728D01*
X0037022Y-0008538D02*
X0036945D01*
X0036984D02*
Y-0008304D01*
X0036945Y-0008343D01*
X0036611Y-0008499D02*
X0036650Y-0008538D01*
X0036727D01*
X0036766Y-0008499D01*
Y-0008460D01*
X0036689Y-0008382D01*
X0036766Y-0008304D01*
X0036611D01*
X0036471Y-0008499D02*
X0036452Y-0008538D01*
X0036335D01*
X0036316Y-0008499D01*
Y-0008343D01*
X0036335Y-0008304D01*
X0036452D01*
X0036471Y-0008343D01*
X0070652Y-0013592D02*
X0070671Y-0013553D01*
Y-0013514D01*
X0070652Y-0013476D01*
X0070535D01*
X0070516Y-0013514D01*
Y-0013553D01*
X0070535Y-0013592D01*
X0070652D01*
X0070671Y-0013631D01*
Y-0013670D01*
X0070652Y-0013709D01*
X0070535D01*
X0070516Y-0013670D01*
Y-0013631D01*
X0070535Y-0013592D01*
X0070318D02*
X0070376Y-0013709D01*
X0070221Y-0013592D02*
X0070338D01*
X0070376Y-0013553D01*
Y-0013514D01*
X0070338Y-0013476D01*
X0070221D01*
Y-0013709D01*
X0094963Y-0013396D02*
X0094983Y-0013357D01*
Y-0013318D01*
X0094963Y-0013279D01*
X0094847D01*
X0094827Y-0013318D01*
Y-0013357D01*
X0094847Y-0013396D01*
X0094963D01*
X0094983Y-0013435D01*
Y-0013474D01*
X0094963Y-0013512D01*
X0094847D01*
X0094827Y-0013474D01*
Y-0013435D01*
X0094847Y-0013396D01*
X0094532Y-0013474D02*
X0094571Y-0013512D01*
X0094649D01*
X0094688Y-0013474D01*
Y-0013435D01*
X0094610Y-0013357D01*
X0094688Y-0013279D01*
X0094532D01*
X0094393Y-0013474D02*
X0094373Y-0013512D01*
X0094257D01*
X0094237Y-0013474D01*
Y-0013318D01*
X0094257Y-0013279D01*
X0094373D01*
X0094393Y-0013318D01*
X0068684Y-0011150D02*
X0068801Y-0010917D01*
X0068646D01*
X0068506Y-0011072D02*
X0068351D01*
X0068428Y-0010917D01*
X0068467D01*
Y-0011150D01*
X0068211Y-0011111D02*
X0068192Y-0011150D01*
X0068075D01*
X0068056Y-0011111D01*
Y-0010956D01*
X0068075Y-0010917D01*
X0068192D01*
X0068211Y-0010956D01*
X0072227Y-0013592D02*
X0072110D01*
X0072091Y-0013553D01*
Y-0013514D01*
X0072110Y-0013476D01*
X0072227D01*
X0072246Y-0013514D01*
Y-0013553D01*
X0072168Y-0013709D01*
X0071893Y-0013592D02*
X0071951Y-0013709D01*
X0071796Y-0013592D02*
X0071912D01*
X0071951Y-0013553D01*
Y-0013514D01*
X0071912Y-0013476D01*
X0071796D01*
Y-0013709D01*
X0061158Y-0000467D02*
X0061274Y-0000233D01*
X0061119D01*
X0060824Y-0000428D02*
X0060863Y-0000467D01*
X0060940D01*
X0060979Y-0000428D01*
Y-0000389D01*
X0060902Y-0000311D01*
X0060979Y-0000233D01*
X0060824D01*
X0060626Y-0000350D02*
X0060684Y-0000467D01*
X0060529Y-0000350D02*
X0060645D01*
X0060684Y-0000311D01*
Y-0000272D01*
X0060645Y-0000233D01*
X0060529D01*
Y-0000467D01*
X0045533Y-0010347D02*
X0045377D01*
X0045533Y-0010191D01*
Y-0010152D01*
X0045513Y-0010113D01*
X0045397D01*
X0045377Y-0010152D01*
X0045238Y-0010347D02*
X0045160D01*
X0045199D02*
Y-0010113D01*
X0045160Y-0010152D01*
X0044923Y-0010230D02*
X0044982Y-0010347D01*
X0044826Y-0010230D02*
X0044943D01*
X0044982Y-0010191D01*
Y-0010152D01*
X0044943Y-0010113D01*
X0044826D01*
Y-0010347D01*
X0041699Y-0003795D02*
X0041660Y-0003815D01*
Y-0003931D01*
X0041699Y-0003951D01*
X0041777D01*
X0041816Y-0003912D01*
Y-0003795D01*
X0041893D01*
Y-0003951D01*
X0041660Y-0003656D02*
Y-0003578D01*
Y-0003617D02*
X0041893D01*
X0041854Y-0003578D01*
X0041777Y-0003341D02*
X0041660Y-0003400D01*
X0041777Y-0003244D02*
Y-0003361D01*
X0041816Y-0003400D01*
X0041854D01*
X0041893Y-0003361D01*
Y-0003244D01*
X0041660D01*
X0024617Y-0005884D02*
X0024656Y-0005923D01*
X0024733D01*
X0024772Y-0005884D01*
Y-0005845D01*
X0024695Y-0005767D01*
X0024772Y-0005689D01*
X0024617D01*
X0024341Y-0005806D02*
X0024458D01*
X0024477Y-0005845D01*
Y-0005884D01*
X0024458Y-0005923D01*
X0024341D01*
X0024322Y-0005884D01*
Y-0005845D01*
X0024400Y-0005689D01*
X0024182Y-0005884D02*
X0024163Y-0005923D01*
X0024046D01*
X0024027Y-0005884D01*
Y-0005728D01*
X0024046Y-0005689D01*
X0024163D01*
X0024182Y-0005728D01*
X0097406Y-0000009D02*
X0097523D01*
X0097542Y-0000048D01*
Y-0000087D01*
X0097523Y-0000126D01*
X0097406D01*
X0097386Y-0000087D01*
Y-0000048D01*
X0097464Y0000107D01*
X0097091Y-0000087D02*
X0097130Y-0000126D01*
X0097208D01*
X0097247Y-0000087D01*
Y-0000048D01*
X0097169Y0000029D01*
X0097247Y0000107D01*
X0097091D01*
X0096952Y-0000087D02*
X0096933Y-0000126D01*
X0096816D01*
X0096796Y-0000087D01*
Y0000068D01*
X0096816Y0000107D01*
X0096933D01*
X0096952Y0000068D01*
X0067630Y-0010180D02*
X0067591Y-0010199D01*
Y-0010316D01*
X0067630Y-0010335D01*
X0067708D01*
X0067747Y-0010297D01*
Y-0010180D01*
X0067825D01*
Y-0010335D01*
X0067669Y-0010040D02*
Y-0009885D01*
X0067825Y-0009963D01*
Y-0010002D01*
X0067591D01*
X0067630Y-0009745D02*
X0067591Y-0009726D01*
Y-0009609D01*
X0067630Y-0009590D01*
X0067786D01*
X0067825Y-0009609D01*
Y-0009726D01*
X0067786Y-0009745D01*
X0096479Y-0000132D02*
X0096401D01*
X0096440D02*
Y0000101D01*
X0096401Y0000062D01*
X0096223Y-0000132D02*
X0096087D01*
Y0000101D01*
X0102417Y-0004610D02*
Y-0004360D01*
Y-0005360D02*
Y-0005110D01*
X0100417Y-0004360D02*
X0102417D01*
X0100417Y-0005360D02*
Y-0004360D01*
Y-0005360D02*
X0102417D01*
X0110980Y-0007533D02*
X0111230D01*
X0111980Y-0005533D02*
Y-0007533D01*
X0110980Y-0005533D02*
X0111980D01*
X0110980D02*
Y-0007533D01*
X0111730D02*
X0111980D01*
X0046018Y-0008522D02*
X0046268D01*
X0047018Y-0006522D02*
Y-0008522D01*
X0046018Y-0006522D02*
X0047018D01*
X0046018D02*
Y-0008522D01*
X0046768D02*
X0047018D01*
X0062415Y-0002960D02*
X0062265D01*
X0062415D02*
Y-0004110D01*
X0061815Y-0002960D02*
Y-0004110D01*
X0062415D02*
X0061815D01*
X0061965Y-0002960D02*
X0061815D01*
X0107240Y-0007533D02*
X0107490D01*
X0108240Y-0005533D02*
Y-0007533D01*
X0107240Y-0005533D02*
X0108240D01*
X0107240D02*
Y-0007533D01*
X0107990D02*
X0108240D01*
X0026030Y-0011364D02*
X0025780D01*
X0025030Y-0013364D02*
Y-0011364D01*
X0026030Y-0013364D02*
X0025030D01*
X0026030D02*
Y-0011364D01*
X0025280D02*
X0025030D01*
X0070093Y-0009456D02*
X0069943D01*
X0070093D02*
Y-0010606D01*
X0069493Y-0009456D02*
Y-0010606D01*
X0070093D02*
X0069493D01*
X0069643Y-0009456D02*
X0069493D01*
G01X0102167Y-0004860D02*
G03X0102417Y-0005110I0000250J0000000D01*
Y-0004610D02*
G03X0102167Y-0004860I0000000J0000250D01*
G01X0111480Y-0007283D02*
G03X0111230Y-0007533I0000000J0000250D01*
G01X0111730D02*
G03X0111480Y-0007283I0000250J0000000D01*
G01X0046518Y-0008272D02*
G03X0046268Y-0008522I0000000J0000250D01*
G01X0046768D02*
G03X0046518Y-0008272I0000250J0000000D01*
G01X0062115Y-0003110D02*
G03X0062265Y-0002960I0000000J0000150D01*
G01X0061965D02*
G03X0062115Y-0003110I0000150J0000000D01*
G01X0107740Y-0007283D02*
G03X0107490Y-0007533I0000000J0000250D01*
G01X0107990D02*
G03X0107740Y-0007283I0000250J0000000D01*
G01X0025530Y-0011614D02*
G03X0025780Y-0011364I0000000J0000250D01*
G01X0025280D02*
G03X0025530Y-0011614I0000250J0000000D01*
G01X0069793Y-0009606D02*
G03X0069943Y-0009456I0000000J0000150D01*
G01X0069643D02*
G03X0069793Y-0009606I0000150J0000000D01*
G54D158*
G01X0068103Y-0015990D02*
Y-0015640D01*
X0068452Y-0015990D01*
X0068540D01*
X0068627Y-0015946D01*
Y-0015684D01*
X0068540Y-0015640D01*
X0068103Y-0015360D02*
X0068627Y-0015098D01*
Y-0015360D02*
X0068103Y-0015098D01*
X0064692Y-0003798D02*
X0064552D01*
X0064622D02*
Y-0003378D01*
X0064552Y-0003448D01*
X0064210Y-0003798D02*
X0064000Y-0003378D01*
X0064210D02*
X0064000Y-0003798D01*
G54D159*
G01X0104795Y-0006610D02*
X0104639D01*
X0104795Y-0006454D01*
Y-0006415D01*
X0104776Y-0006376D01*
X0104659D01*
X0104639Y-0006415D01*
X0104502Y-0006376D02*
Y-0006610D01*
X0104463Y-0006571D01*
X0104385Y-0006415D01*
X0104346Y-0006376D01*
Y-0006610D01*
X0104072D02*
X0104053Y-0006571D01*
Y-0006415D01*
X0104072Y-0006376D01*
X0104189D01*
X0104209Y-0006415D01*
Y-0006571D01*
X0104189Y-0006610D01*
X0104072D01*
X0103915Y-0006571D02*
X0103896Y-0006610D01*
X0103779D01*
X0103760Y-0006571D01*
Y-0006415D01*
X0103779Y-0006376D01*
X0103896D01*
X0103915Y-0006415D01*
X0104639Y-0003421D02*
X0104678Y-0003460D01*
X0104756D01*
X0104795Y-0003421D01*
Y-0003382D01*
X0104717Y-0003304D01*
X0104795Y-0003226D01*
X0104639D01*
X0104502D02*
Y-0003460D01*
X0104463Y-0003421D01*
X0104385Y-0003265D01*
X0104346Y-0003226D01*
Y-0003460D01*
X0104072D02*
X0104053Y-0003421D01*
Y-0003265D01*
X0104072Y-0003226D01*
X0104189D01*
X0104209Y-0003265D01*
Y-0003421D01*
X0104189Y-0003460D01*
X0104072D01*
X0103915Y-0003421D02*
X0103896Y-0003460D01*
X0103779D01*
X0103760Y-0003421D01*
Y-0003265D01*
X0103779Y-0003226D01*
X0103896D01*
X0103915Y-0003265D01*
G54D155*
X0081104Y-0014764D03*
Y-0015554D03*
X0081894Y-0014764D03*
Y-0015554D03*
X0082684Y-0014764D03*
Y-0015554D03*
X0083474Y-0014764D03*
Y-0015554D03*
X0084254Y-0014764D03*
Y-0015554D03*
X0085044Y-0014764D03*
Y-0015554D03*
X0085834Y-0014764D03*
Y-0015554D03*
M02*
