  0
SECTION
  2
HEADER
  9
$ACADVER
  1
AC1009
  9
$INSBASE
 10
0.0
 20
0.0
 30
0.0
  9
$EXTMIN
 10
27.285714
 20
20.0
 30
0.0
  9
$EXTMAX
 10
430.25
 20
297.0
 30
0.0
  9
$LIMMIN
 10
0.0
 20
0.0
  9
$LIMMAX
 10
440.0
 20
310.0
  9
$ORTHOMODE
 70
     0
  9
$REGENMODE
 70
     1
  9
$FILLMODE
 70
     1
  9
$QTEXTMODE
 70
     0
  9
$MIRRTEXT
 70
     1
  9
$DRAGMODE
 70
     2
  9
$LTSCALE
 40
1.0
  9
$OSMODE
 70
     0
  9
$ATTMODE
 70
     1
  9
$TEXTSIZE
 40
3.0
  9
$TRACEWID
 40
0.05
  9
$TEXTSTYLE
  7
STANDARD
  9
$CLAYER
  8
0
  9
$CELTYPE
  6
BYLAYER
  9
$CECOLOR
 62
   256
  9
$DIMSCALE
 40
1.0
  9
$DIMASZ
 40
3.5
  9
$DIMEXO
 40
1.0
  9
$DIMDLI
 40
5.0
  9
$DIMRND
 40
0.0
  9
$DIMDLE
 40
0.0
  9
$DIMEXE
 40
1.0
  9
$DIMTP
 40
0.0
  9
$DIMTM
 40
0.0
  9
$DIMTXT
 40
2.5
  9
$DIMCEN
 40
0.09
  9
$DIMTSZ
 40
0.0
  9
$DIMTOL
 70
     0
  9
$DIMLIM
 70
     0
  9
$DIMTIH
 70
     0
  9
$DIMTOH
 70
     0
  9
$DIMSE1
 70
     0
  9
$DIMSE2
 70
     0
  9
$DIMTAD
 70
     1
  9
$DIMZIN
 70
     0
  9
$DIMBLK
  1

  9
$DIMASO
 70
     1
  9
$DIMSHO
 70
     0
  9
$DIMPOST
  1

  9
$DIMAPOST
  1

  9
$DIMALT
 70
     0
  9
$DIMALTD
 70
     2
  9
$DIMALTF
 40
25.4
  9
$DIMLFAC
 40
1.0
  9
$DIMTOFL
 70
     0
  9
$DIMTVP
 40
0.0
  9
$DIMTIX
 70
     1
  9
$DIMSOXD
 70
     0
  9
$DIMSAH
 70
     0
  9
$DIMBLK1
  1

  9
$DIMBLK2
  1

  9
$DIMSTYLE
  2
*UNNAMED
  9
$DIMCLRD
 70
     0
  9
$DIMCLRE
 70
     0
  9
$DIMCLRT
 70
     0
  9
$DIMTFAC
 40
1.0
  9
$DIMGAP
 40
0.09
  9
$LUNITS
 70
     2
  9
$LUPREC
 70
     2
  9
$SKETCHINC
 40
0.1
  9
$FILLETRAD
 40
1.5
  9
$AUNITS
 70
     0
  9
$AUPREC
 70
     0
  9
$MENU
  1
acad
  9
$ELEVATION
 40
0.0
  9
$PELEVATION
 40
0.0
  9
$THICKNESS
 40
0.0
  9
$LIMCHECK
 70
     0
  9
$BLIPMODE
 70
     1
  9
$CHAMFERA
 40
0.0
  9
$CHAMFERB
 40
0.0
  9
$SKPOLY
 70
     0
  9
$TDCREATE
 40
2449881.561614351
  9
$TDUPDATE
 40
2450952.374453240
  9
$TDINDWG
 40
0.2221495370
  9
$TDUSRTIMER
 40
0.2221495370
  9
$USRTIMER
 70
     1
  9
$ANGBASE
 50
0.0
  9
$ANGDIR
 70
     0
  9
$PDMODE
 70
     0
  9
$PDSIZE
 40
0.0
  9
$PLINEWID
 40
0.0
  9
$COORDS
 70
     2
  9
$SPLFRAME
 70
     0
  9
$SPLINETYPE
 70
     6
  9
$SPLINESEGS
 70
     8
  9
$ATTDIA
 70
     0
  9
$ATTREQ
 70
     1
  9
$HANDLING
 70
     0
  9
$HANDSEED
  5
0
  9
$SURFTAB1
 70
     6
  9
$SURFTAB2
 70
     6
  9
$SURFTYPE
 70
     6
  9
$SURFU
 70
     6
  9
$SURFV
 70
     6
  9
$UCSNAME
  2

  9
$UCSORG
 10
71.64522287856527
 20
138.0199999999999
 30
0.0
  9
$UCSXDIR
 10
1.0
 20
0.0
 30
0.0
  9
$UCSYDIR
 10
0.0
 20
1.0
 30
0.0
  9
$PUCSNAME
  2

  9
$PUCSORG
 10
0.0
 20
0.0
 30
0.0
  9
$PUCSXDIR
 10
1.0
 20
0.0
 30
0.0
  9
$PUCSYDIR
 10
0.0
 20
1.0
 30
0.0
  9
$USERI1
 70
     0
  9
$USERI2
 70
     0
  9
$USERI3
 70
     0
  9
$USERI4
 70
     0
  9
$USERI5
 70
     0
  9
$USERR1
 40
0.0
  9
$USERR2
 40
0.0
  9
$USERR3
 40
0.0
  9
$USERR4
 40
0.0
  9
$USERR5
 40
0.0
  9
$WORLDVIEW
 70
     1
  9
$SHADEDGE
 70
     3
  9
$SHADEDIF
 70
    70
  9
$TILEMODE
 70
     1
  9
$MAXACTVP
 70
    16
  9
$PINSBASE
 10
0.0
 20
0.0
 30
0.0
  9
$PLIMCHECK
 70
     0
  9
$PEXTMIN
 10
1.000000E+20
 20
1.000000E+20
 30
1.000000E+20
  9
$PEXTMAX
 10
-1.000000E+20
 20
-1.000000E+20
 30
-1.000000E+20
  9
$PLIMMIN
 10
0.0
 20
0.0
  9
$PLIMMAX
 10
12.0
 20
9.0
  9
$UNITMODE
 70
     0
  9
$VISRETAIN
 70
     0
  9
$PLINEGEN
 70
     0
  9
$PSLTSCALE
 70
     0
  9
$TREEDEPTH
 70
  3020
  9
$DWGCODEPAGE
  3
undefined
  0
ENDSEC
  0
SECTION
  2
TABLES
  0
TABLE
  2
VPORT
 70
     2
  0
VPORT
  2
*ACTIVE
 70
     0
 10
0.0
 20
0.0
 11
1.0
 21
1.0
 12
220.0
 22
161.656184
 13
0.0
 23
0.0
 14
0.25
 24
0.25
 15
0.0
 25
0.0
 16
0.0
 26
0.0
 36
1.0
 17
0.0
 27
0.0
 37
0.0
 40
323.312369
 41
1.360913
 42
50.0
 43
0.0
 44
0.0
 50
0.0
 51
0.0
 71
     0
 72
   100
 73
     1
 74
     1
 75
     1
 76
     0
 77
     0
 78
     0
  0
ENDTAB
  0
TABLE
  2
LTYPE
 70
     4
  0
LTYPE
  2
CONTINUOUS
 70
    64
  3
Solid line
 72
    65
 73
     0
 40
0.0
  0
LTYPE
  2
CENTER
 70
    64
  3
____ _ ____ _ ____ _ ____ _ ____ _ ____ _ ____
 72
    65
 73
     4
 40
2.0
 49
1.25
 49
-0.25
 49
0.25
 49
-0.25
  0
LTYPE
  2
SKJUL
 70
    64
  3
-  -  -  -  -  -  -  -  -  -  -  -  -  -  -  - 
 72
    65
 73
     4
 40
6.0
 49
2.0
 49
-1.0
 49
2.0
 49
-1.0
  0
LTYPE
  2
CENT
 70
     0
  3
_____  __  _____  __ _____  __  _____  __  ____
 72
    65
 73
     4
 40
11.0
 49
5.0
 49
-2.0
 49
2.0
 49
-2.0
  0
ENDTAB
  0
TABLE
  2
LAYER
 70
     5
  0
LAYER
  2
0
 70
    64
 62
     7
  6
CONTINUOUS
  0
LAYER
  2
DIM
 70
    64
 62
     1
  6
CONTINUOUS
  0
LAYER
  2
HOVED
 70
    64
 62
     7
  6
CONTINUOUS
  0
LAYER
  2
SKJUL
 70
     0
 62
    10
  6
CONTINUOUS
  0
LAYER
  2
DEFPOINTS
 70
     1
 62
    -7
  6
CONTINUOUS
  0
ENDTAB
  0
TABLE
  2
STYLE
 70
     3
  0
STYLE
  2
STANDARD
 70
    64
 40
0.0
 41
1.0
 50
0.0
 71
     0
 42
3.0
  3
txt
  4

  0
STYLE
  2
UV
 70
    64
 40
0.0
 41
1.0
 50
0.0
 71
     0
 42
2.0
  3
UV
  4

  0
STYLE
  2
TXT
 70
    64
 40
0.0
 41
1.0
 50
0.0
 71
     0
 42
3.0
  3
txt
  4

  0
ENDTAB
  0
TABLE
  2
VIEW
 70
     0
  0
ENDTAB
  0
TABLE
  2
UCS
 70
     0
  0
ENDTAB
  0
TABLE
  2
APPID
 70
     1
  0
APPID
  2
ACAD
 70
    64
  0
ENDTAB
  0
TABLE
  2
DIMSTYLE
 70
     0
  0
ENDTAB
  0
ENDSEC
  0
SECTION
  2
BLOCKS
  0
BLOCK
  8
0
  2
A4MEK2
 70
     0
 10
0.0
 20
0.0
 30
0.0
  3
A4MEK2
  0
TEXT
  8
HOVED
 10
110.122211
 20
59.040431
 30
0.0
 40
1.25
  1
ISO 5459
  0
TEXT
  8
HOVED
 10
110.122211
 20
61.176258
 30
0.0
 40
1.25
  1
UN-D 1660
  0
TEXT
  8
HOVED
 10
110.122211
 20
65.447911
 30
0.0
 40
1.25
  1
ISO 1101
  0
TEXT
  8
HOVED
 10
110.122211
 20
67.583738
 30
0.0
 40
1.25
  1
UN-D 603
  0
TEXT
  8
HOVED
 10
33.451538
 20
62.888251
 30
0.0
 40
1.25
  1
ISO 1302 
  0
TEXT
  8
HOVED
 10
33.451538
 20
65.024077
 30
0.0
 40
1.25
  1
UN-D 28
  0
POLYLINE
  8
HOVED
 66
     1
 10
0.0
 20
0.0
 30
0.0
  0
VERTEX
  8
HOVED
 10
0.0
 20
43.0
 30
0.0
  0
VERTEX
  8
HOVED
 10
180.0
 20
43.0
 30
0.0
  0
SEQEND
  8
HOVED
  0
POLYLINE
  8
HOVED
 66
     1
 10
0.0
 20
0.0
 30
0.0
 70
     1
 40
0.5
 41
0.5
  0
VERTEX
  8
HOVED
 10
105.0
 20
4.0
 30
0.0
  0
VERTEX
  8
HOVED
 10
180.0
 20
4.0
 30
0.0
  0
VERTEX
  8
HOVED
 10
180.0
 20
28.0
 30
0.0
  0
VERTEX
  8
HOVED
 10
105.0
 20
28.0
 30
0.0
  0
SEQEND
  8
HOVED
  0
POLYLINE
  8
HOVED
 66
     1
 10
0.0
 20
0.0
 30
0.0
  0
VERTEX
  8
HOVED
 10
169.0
 20
8.0
 30
0.0
  0
VERTEX
  8
HOVED
 10
169.0
 20
4.0
 30
0.0
  0
SEQEND
  8
HOVED
  0
POLYLINE
  8
HOVED
 66
     1
 10
0.0
 20
0.0
 30
0.0
  0
VERTEX
  8
HOVED
 10
143.0
 20
8.0
 30
0.0
  0
VERTEX
  8
HOVED
 10
143.0
 20
4.0
 30
0.0
  0
SEQEND
  8
HOVED
  0
POLYLINE
  8
HOVED
 66
     1
 10
0.0
 20
0.0
 30
0.0
  0
VERTEX
  8
HOVED
 10
153.0
 20
12.0
 30
0.0
  0
VERTEX
  8
HOVED
 10
180.0
 20
12.0
 30
0.0
  0
SEQEND
  8
HOVED
  0
POLYLINE
  8
HOVED
 66
     1
 10
0.0
 20
0.0
 30
0.0
  0
VERTEX
  8
HOVED
 10
153.0
 20
16.0
 30
0.0
  0
VERTEX
  8
HOVED
 10
180.0
 20
16.0
 30
0.0
  0
SEQEND
  8
HOVED
  0
POLYLINE
  8
HOVED
 66
     1
 10
0.0
 20
0.0
 30
0.0
  0
VERTEX
  8
HOVED
 10
153.0
 20
20.0
 30
0.0
  0
VERTEX
  8
HOVED
 10
180.0
 20
20.0
 30
0.0
  0
SEQEND
  8
HOVED
  0
POLYLINE
  8
HOVED
 66
     1
 10
0.0
 20
0.0
 30
0.0
  0
VERTEX
  8
HOVED
 10
153.0
 20
24.0
 30
0.0
  0
VERTEX
  8
HOVED
 10
180.0
 20
24.0
 30
0.0
  0
SEQEND
  8
HOVED
  0
POLYLINE
  8
HOVED
 66
     1
 10
0.0
 20
0.0
 30
0.0
  0
VERTEX
  8
HOVED
 10
95.0
 20
8.0
 30
0.0
  0
VERTEX
  8
HOVED
 10
95.0
 20
4.0
 30
0.0
  0
SEQEND
  8
HOVED
  0
TEXT
  8
HOVED
 10
23.856762
 20
0.445735
 30
0.0
 40
1.25
  1
KONTROL
  0
TEXT
  8
HOVED
 10
23.856762
 20
2.224048
 30
0.0
 40
1.25
  1
CHECK
  0
POLYLINE
  8
HOVED
 66
     1
 10
0.0
 20
0.0
 30
0.0
  0
VERTEX
  8
HOVED
 10
23.0
 20
4.0
 30
0.0
  0
VERTEX
  8
HOVED
 10
23.0
 20
0.0
 30
0.0
  0
SEQEND
  8
HOVED
  0
POLYLINE
  8
HOVED
 66
     1
 10
0.0
 20
0.0
 30
0.0
  0
VERTEX
  8
HOVED
 10
8.0
 20
4.0
 30
0.0
  0
VERTEX
  8
HOVED
 10
8.0
 20
0.0
 30
0.0
  0
SEQEND
  8
HOVED
  0
POLYLINE
  8
HOVED
 62
    13
 66
     1
 10
0.0
 20
0.0
 30
0.0
 70
     1
 40
0.3
 41
0.3
  0
VERTEX
  8
HOVED
 62
    13
 10
20.0
 20
33.0
 30
0.0
 42
1.0
  0
VERTEX
  8
HOVED
 62
    13
 10
22.0
 20
33.0
 30
0.0
 42
1.0
  0
SEQEND
  8
HOVED
  0
POLYLINE
  8
HOVED
 62
    13
 66
     1
 10
0.0
 20
0.0
 30
0.0
 70
     1
 40
0.3
 41
0.3
  0
VERTEX
  8
HOVED
 62
    13
 10
19.0
 20
33.0
 30
0.0
 42
1.0
  0
VERTEX
  8
HOVED
 62
    13
 10
23.0
 20
33.0
 30
0.0
 42
1.0
  0
SEQEND
  8
HOVED
  0
POLYLINE
  8
HOVED
 66
     1
 10
0.0
 20
0.0
 30
0.0
  0
VERTEX
  8
HOVED
 10
105.0
 20
8.0
 30
0.0
  0
VERTEX
  8
HOVED
 10
105.0
 20
4.0
 30
0.0
  0
SEQEND
  8
HOVED
  0
TEXT
  8
HOVED
 10
44.333333
 20
66.000244
 30
0.0
 40
1.25
  1
TOLERANCE HVOR INTET ANDET ER ANGIVET
 72
     1
 11
67.25
 21
66.000244
 31
0.0
  0
TEXT
  8
HOVED
 10
46.208333
 20
67.749756
 30
0.0
 40
1.25
  1
TOLERANCES UNLESS OTHERWISE STATED
 72
     1
 11
67.25
 21
67.749756
 31
0.0
  0
TEXT
  8
HOVED
 10
171.083333
 20
39.485657
 30
0.0
 40
1.25
  1
ANTAL
 72
     4
 11
174.0
 21
40.110657
 31
0.0
  0
TEXT
  8
HOVED
 10
170.875
 20
41.269264
 30
0.0
 40
1.25
  1
QUANT.
 72
     4
 11
174.0
 21
41.894264
 31
0.0
  0
TEXT
  8
HOVED
 10
133.041667
 20
40.375
 30
0.0
 40
1.25
  1
ORDER NO.          ORDRE NR.
 72
     4
 11
149.5
 21
41.0
 31
0.0
  0
TEXT
  8
HOVED
 10
82.0
 20
1.311024
 30
0.0
 40
1.5
  1
Philips TV Test Equipment A/S - Kornmarksvej 21 - DK-2605 Brõndby
 72
     4
 11
128.0
 21
1.811024
 31
0.0
  0
TEXT
  8
HOVED
 10
170.208333
 20
5.375
 30
0.0
 40
1.25
  1
FORM
 72
     4
 11
172.5
 21
6.0
 31
0.0
  0
TEXT
  8
HOVED
 10
162.25
 20
5.25
 30
0.0
 40
1.5
  1
KU
 72
     4
 11
163.5
 21
6.0
 31
0.0
  0
TEXT
  8
HOVED
 10
106.826864
 20
4.563739
 30
0.0
 40
1.25
  1
BL
 72
     4
 11
107.868531
 21
5.188739
 31
0.0
  0
TEXT
  8
HOVED
 10
106.826864
 20
6.279985
 30
0.0
 40
1.25
  1
SH
 72
     4
 11
107.868531
 21
6.904985
 31
0.0
  0
TEXT
  8
HOVED
 10
101.453634
 20
4.563739
 30
0.0
 40
1.25
  1
BL
 72
     4
 11
102.495301
 21
5.188739
 31
0.0
  0
TEXT
  8
HOVED
 10
101.453634
 20
6.279985
 30
0.0
 40
1.25
  1
SH
 72
     4
 11
102.495301
 21
6.904985
 31
0.0
  0
TEXT
  8
HOVED
 10
46.0
 20
4.461987
 30
0.0
 40
1.25
  1
ERST.
  0
TEXT
  8
HOVED
 10
46.0
 20
6.191533
 30
0.0
 40
1.25
  1
SUPERS.
  0
TEXT
  8
HOVED
 10
1.028054
 20
4.437063
 30
0.0
 40
1.25
  1
NAVN
  0
TEXT
  8
HOVED
 10
1.028054
 20
6.17553
 30
0.0
 40
1.25
  1
NAME
  0
TEXT
  8
HOVED
 10
0.416667
 20
25.375
 30
0.0
 40
1.25
  1
CLASS NO.  KLASSE NR.
 72
     4
 11
12.5
 21
26.0
 31
0.0
  0
TEXT
  8
HOVED
 10
44.993737
 20
58.522348
 30
0.0
 40
1.25
  1
MèL
  0
TEXT
  8
HOVED
 10
44.993737
 20
60.28802
 30
0.0
 40
1.25
  1
DIMENSION
  0
TEXT
  8
HOVED
 10
15.875
 20
38.864173
 30
0.0
 40
1.25
  1
EUROP.
 72
     1
 11
19.0
 21
38.864173
 31
0.0
  0
TEXT
  8
HOVED
 10
16.5
 20
41.0
 30
0.0
 40
1.25
  1
PROJ.
 72
     1
 11
19.0
 21
41.0
 31
0.0
  0
TEXT
  8
HOVED
 10
3.333333
 20
38.864173
 30
0.0
 40
1.25
  1
SKALA
 72
     1
 11
6.25
 21
38.864173
 31
0.0
  0
TEXT
  8
HOVED
 10
3.333333
 20
41.0
 30
0.0
 40
1.25
  1
SCALE
 72
     1
 11
6.25
 21
41.0
 31
0.0
  0
TEXT
  8
HOVED
 10
3.333333
 20
53.864173
 30
0.0
 40
1.25
  1
RUHED
 72
     1
 11
6.25
 21
53.864173
 31
0.0
  0
TEXT
  8
HOVED
 10
0.833333
 20
56.0
 30
0.0
 40
1.25
  1
ROUGHNESS
 72
     1
 11
6.25
 21
56.0
 31
0.0
  0
TEXT
  8
HOVED
 10
16.083333
 20
53.864173
 30
0.0
 40
1.25
  1
ENHED
 72
     1
 11
19.0
 21
53.864173
 31
0.0
  0
TEXT
  8
HOVED
 10
16.916667
 20
56.0
 30
0.0
 40
1.25
  1
UNIT
 72
     1
 11
19.0
 21
56.0
 31
0.0
  0
TEXT
  8
HOVED
 10
29.866285
 20
29.700814
 30
0.0
 40
1.25
  1
BEHANDLING
 50
90.0
 72
     4
 11
29.241285
 21
35.534148
 31
0.0
  0
TEXT
  8
HOVED
 10
27.730459
 20
30.117481
 30
0.0
 40
1.25
  1
TREATMENT
 50
90.0
 72
     4
 11
27.105459
 21
35.534148
 31
0.0
  0
TEXT
  8
HOVED
 10
29.866285
 20
45.950814
 30
0.0
 40
1.25
  1
MATERIEL
 50
90.0
 72
     4
 11
29.241285
 21
50.534148
 31
0.0
  0
TEXT
  8
HOVED
 10
27.730459
 20
45.950814
 30
0.0
 40
1.25
  1
MATERIAL
 50
90.0
 72
     4
 11
27.105459
 21
50.534148
 31
0.0
  0
POLYLINE
  8
HOVED
 66
     1
 10
0.0
 20
0.0
 30
0.0
  0
VERTEX
  8
HOVED
 10
76.0
 20
0.0
 30
0.0
  0
VERTEX
  8
HOVED
 10
76.0
 20
4.0
 30
0.0
  0
SEQEND
  8
HOVED
  0
TEXT
  8
HOVED
 10
46.584162
 20
1.375
 30
0.0
 40
1.25
  1
DAT
 72
     4
 11
48.250828
 21
2.0
 31
0.0
  0
POLYLINE
  8
HOVED
 66
     1
 10
0.0
 20
0.0
 30
0.0
  0
VERTEX
  8
HOVED
 10
45.0
 20
8.0
 30
0.0
  0
VERTEX
  8
HOVED
 10
45.0
 20
0.0
 30
0.0
  0
SEQEND
  8
HOVED
  0
POLYLINE
  8
HOVED
 66
     1
 10
0.0
 20
0.0
 30
0.0
  0
VERTEX
  8
HOVED
 10
0.0
 20
4.0
 30
0.0
  0
VERTEX
  8
HOVED
 10
180.0
 20
4.0
 30
0.0
  0
SEQEND
  8
HOVED
  0
POLYLINE
  8
HOVED
  6
CENTER
 62
     2
 66
     1
 10
0.0
 20
0.0
 30
0.0
 40
0.02
 41
0.02
  0
VERTEX
  8
HOVED
  6
CENTER
 62
     2
 10
21.0
 20
36.0
 30
0.0
  0
VERTEX
  8
HOVED
  6
CENTER
 62
     2
 10
21.0
 20
30.0
 30
0.0
  0
SEQEND
  8
HOVED
  0
POLYLINE
  8
HOVED
  6
CENTER
 62
     2
 66
     1
 10
0.0
 20
0.0
 30
0.0
 40
0.02
 41
0.02
  0
VERTEX
  8
HOVED
  6
CENTER
 62
     2
 10
13.0
 20
33.0
 30
0.0
  0
VERTEX
  8
HOVED
  6
CENTER
 62
     2
 10
24.0
 20
33.0
 30
0.0
  0
SEQEND
  8
HOVED
  0
POLYLINE
  8
HOVED
 66
     1
 10
0.0
 20
0.0
 30
0.0
 40
0.5
 41
0.5
  0
VERTEX
  8
HOVED
 10
14.0
 20
32.0
 30
0.0
  0
VERTEX
  8
HOVED
 10
18.0
 20
31.0
 30
0.0
  0
VERTEX
  8
HOVED
 10
18.0
 20
35.0
 30
0.0
  0
VERTEX
  8
HOVED
 10
14.0
 20
34.0
 30
0.0
  0
VERTEX
  8
HOVED
 10
14.0
 20
32.0
 30
0.0
  0
SEQEND
  8
HOVED
  0
POLYLINE
  8
HOVED
 66
     1
 10
0.0
 20
0.0
 30
0.0
 40
0.5
 41
0.5
  0
VERTEX
  8
HOVED
 10
0.0
 20
8.0
 30
0.0
  0
VERTEX
  8
HOVED
 10
25.0
 20
8.0
 30
0.0
  0
VERTEX
  8
HOVED
 10
25.0
 20
20.0
 30
0.0
  0
VERTEX
  8
HOVED
 10
0.0
 20
20.0
 30
0.0
  0
VERTEX
  8
HOVED
 10
0.0
 20
8.0
 30
0.0
  0
SEQEND
  8
HOVED
  0
POLYLINE
  8
HOVED
 66
     1
 10
0.0
 20
0.0
 30
0.0
  0
VERTEX
  8
HOVED
 10
0.0
 20
12.0
 30
0.0
  0
VERTEX
  8
HOVED
 10
25.0
 20
12.0
 30
0.0
  0
SEQEND
  8
HOVED
  0
POLYLINE
  8
HOVED
 66
     1
 10
0.0
 20
0.0
 30
0.0
  0
VERTEX
  8
HOVED
 10
0.0
 20
16.0
 30
0.0
  0
VERTEX
  8
HOVED
 10
25.0
 20
16.0
 30
0.0
  0
SEQEND
  8
HOVED
  0
TEXT
  8
HOVED
 10
4.633675
 20
59.243207
 30
0.0
 40
1.25
  1
A
  0
POLYLINE
  8
HOVED
 66
     1
 10
0.0
 20
0.0
 30
0.0
  0
VERTEX
  8
HOVED
 10
90.5
 20
70.0
 30
0.0
  0
VERTEX
  8
HOVED
 10
90.5
 20
58.0
 30
0.0
  0
SEQEND
  8
HOVED
  0
POLYLINE
  8
HOVED
 66
     1
 10
0.0
 20
0.0
 30
0.0
  0
VERTEX
  8
HOVED
 10
43.5
 20
70.0
 30
0.0
  0
VERTEX
  8
HOVED
 10
43.5
 20
58.0
 30
0.0
  0
SEQEND
  8
HOVED
  0
POLYLINE
  8
HOVED
 66
     1
 10
0.0
 20
0.0
 30
0.0
  0
VERTEX
  8
HOVED
 10
121.0
 20
66.0
 30
0.0
  0
VERTEX
  8
HOVED
 10
180.0
 20
66.0
 30
0.0
  0
SEQEND
  8
HOVED
  0
POLYLINE
  8
HOVED
 66
     1
 10
0.0
 20
0.0
 30
0.0
  0
VERTEX
  8
HOVED
 10
121.0
 20
70.0
 30
0.0
  0
VERTEX
  8
HOVED
 10
121.0
 20
58.0
 30
0.0
  0
SEQEND
  8
HOVED
  0
POLYLINE
  8
HOVED
 66
     1
 10
0.0
 20
0.0
 30
0.0
  0
VERTEX
  8
HOVED
 10
12.5
 20
28.0
 30
0.0
  0
VERTEX
  8
HOVED
 10
12.5
 20
58.0
 30
0.0
  0
SEQEND
  8
HOVED
  0
POLYLINE
  8
HOVED
 66
     1
 10
0.0
 20
0.0
 30
0.0
  0
VERTEX
  8
HOVED
 10
131.0
 20
39.0
 30
0.0
  0
VERTEX
  8
HOVED
 10
180.0
 20
39.0
 30
0.0
  0
SEQEND
  8
HOVED
  0
POLYLINE
  8
HOVED
 66
     1
 10
0.0
 20
0.0
 30
0.0
  0
VERTEX
  8
HOVED
 10
131.090529
 20
54.006697
 30
0.0
  0
VERTEX
  8
HOVED
 10
180.090529
 20
54.006697
 30
0.0
  0
SEQEND
  8
HOVED
  0
POLYLINE
  8
HOVED
 66
     1
 10
0.0
 20
0.0
 30
0.0
  0
VERTEX
  8
HOVED
 10
121.0
 20
62.0
 30
0.0
  0
VERTEX
  8
HOVED
 10
180.0
 20
62.0
 30
0.0
  0
SEQEND
  8
HOVED
  0
POLYLINE
  8
HOVED
 66
     1
 10
0.0
 20
0.0
 30
0.0
  0
VERTEX
  8
HOVED
 10
180.0
 20
70.0
 30
0.0
  0
VERTEX
  8
HOVED
 10
180.0
 20
0.0
 30
0.0
  0
SEQEND
  8
HOVED
  0
POLYLINE
  8
HOVED
 66
     1
 10
0.0
 20
0.0
 30
0.0
  0
VERTEX
  8
HOVED
 10
0.0
 20
70.0
 30
0.0
  0
VERTEX
  8
HOVED
 10
0.0
 20
0.0
 30
0.0
  0
SEQEND
  8
HOVED
  0
POLYLINE
  8
HOVED
 66
     1
 10
0.0
 20
0.0
 30
0.0
  0
VERTEX
  8
HOVED
 10
168.0
 20
43.0
 30
0.0
  0
VERTEX
  8
HOVED
 10
168.0
 20
28.0
 30
0.0
  0
SEQEND
  8
HOVED
  0
POLYLINE
  8
HOVED
 66
     1
 10
0.0
 20
0.0
 30
0.0
  0
VERTEX
  8
HOVED
 10
168.0
 20
70.0
 30
0.0
  0
VERTEX
  8
HOVED
 10
168.0
 20
58.0
 30
0.0
  0
SEQEND
  8
HOVED
  0
POLYLINE
  8
HOVED
 66
     1
 10
0.0
 20
0.0
 30
0.0
  0
VERTEX
  8
HOVED
 10
131.0
 20
70.0
 30
0.0
  0
VERTEX
  8
HOVED
 10
131.0
 20
28.0
 30
0.0
  0
SEQEND
  8
HOVED
  0
TEXT
  8
HOVED
 10
132.625
 20
59.375
 30
0.0
 40
1.25
  1
ASSEMBLY NO.     SAMLINGS NR.
 72
     4
 11
149.5
 21
60.0
 31
0.0
  0
TEXT
  8
HOVED
 10
124.333333
 20
58.520669
 30
0.0
 40
1.25
  1
POS
 72
     4
 11
126.0
 21
59.145669
 31
0.0
  0
TEXT
  8
HOVED
 10
123.916667
 20
60.229331
 30
0.0
 40
1.25
  1
ITEM
 72
     4
 11
126.0
 21
60.854331
 31
0.0
  0
POLYLINE
  8
HOVED
 66
     1
 10
0.0
 20
0.0
 30
0.0
 70
     1
  0
VERTEX
  8
HOVED
 10
94.0
 20
62.0
 30
0.0
  0
VERTEX
  8
HOVED
 10
96.0
 20
62.0
 30
0.0
  0
VERTEX
  8
HOVED
 10
95.0
 20
63.0
 30
0.0
  0
SEQEND
  8
HOVED
  0
POLYLINE
  8
HOVED
 66
     1
 10
0.0
 20
0.0
 30
0.0
 40
0.4
 41
0.4
  0
VERTEX
  8
HOVED
 10
95.0
 20
65.0
 30
0.0
  0
VERTEX
  8
HOVED
 10
95.0
 20
62.0
 30
0.0
  0
SEQEND
  8
HOVED
  0
TEXT
  8
HOVED
 10
105.583333
 20
61.375
 30
0.0
 40
1.25
  1
A
 72
     4
 11
106.0
 21
62.0
 31
0.0
  0
TEXT
  8
HOVED
 10
94.583333
 20
65.375
 30
0.0
 40
1.25
  1
A
 72
     4
 11
95.0
 21
66.0
 31
0.0
  0
POLYLINE
  8
HOVED
 66
     1
 10
0.0
 20
0.0
 30
0.0
 70
     1
 40
0.3
 41
0.3
  0
VERTEX
  8
HOVED
 10
105.0
 20
63.0
 30
0.0
  0
VERTEX
  8
HOVED
 10
107.0
 20
63.0
 30
0.0
  0
VERTEX
  8
HOVED
 10
107.0
 20
61.0
 30
0.0
  0
VERTEX
  8
HOVED
 10
105.0
 20
61.0
 30
0.0
  0
SEQEND
  8
HOVED
  0
POLYLINE
  8
HOVED
 66
     1
 10
0.0
 20
0.0
 30
0.0
 70
     1
 40
0.3
 41
0.3
  0
VERTEX
  8
HOVED
 10
101.0
 20
61.0
 30
0.0
  0
VERTEX
  8
HOVED
 10
103.0
 20
61.0
 30
0.0
  0
VERTEX
  8
HOVED
 10
103.0
 20
63.0
 30
0.0
  0
VERTEX
  8
HOVED
 10
101.0
 20
63.0
 30
0.0
  0
SEQEND
  8
HOVED
  0
POLYLINE
  8
HOVED
 66
     1
 10
0.0
 20
0.0
 30
0.0
 70
     1
 40
0.3
 41
0.3
  0
VERTEX
  8
HOVED
 10
103.0
 20
61.0
 30
0.0
  0
VERTEX
  8
HOVED
 10
105.0
 20
61.0
 30
0.0
  0
VERTEX
  8
HOVED
 10
105.0
 20
63.0
 30
0.0
  0
VERTEX
  8
HOVED
 10
103.0
 20
63.0
 30
0.0
  0
SEQEND
  8
HOVED
  0
POLYLINE
  8
HOVED
 66
     1
 10
0.0
 20
0.0
 30
0.0
 70
     1
 40
0.3
 41
0.3
  0
VERTEX
  8
HOVED
 10
103.0
 20
65.0
 30
0.0
  0
VERTEX
  8
HOVED
 10
105.0
 20
65.0
 30
0.0
  0
VERTEX
  8
HOVED
 10
105.0
 20
67.0
 30
0.0
  0
VERTEX
  8
HOVED
 10
103.0
 20
67.0
 30
0.0
  0
SEQEND
  8
HOVED
  0
POLYLINE
  8
HOVED
 66
     1
 10
0.0
 20
0.0
 30
0.0
 70
     1
 40
0.3
 41
0.3
  0
VERTEX
  8
HOVED
 10
101.0
 20
65.0
 30
0.0
  0
VERTEX
  8
HOVED
 10
103.0
 20
65.0
 30
0.0
  0
VERTEX
  8
HOVED
 10
103.0
 20
67.0
 30
0.0
  0
VERTEX
  8
HOVED
 10
101.0
 20
67.0
 30
0.0
  0
SEQEND
  8
HOVED
  0
POLYLINE
  8
HOVED
 66
     1
 10
0.0
 20
0.0
 30
0.0
 70
     1
 40
0.3
 41
0.3
  0
VERTEX
  8
HOVED
 10
94.0
 20
67.0
 30
0.0
  0
VERTEX
  8
HOVED
 10
96.0
 20
67.0
 30
0.0
  0
VERTEX
  8
HOVED
 10
96.0
 20
65.0
 30
0.0
  0
VERTEX
  8
HOVED
 10
94.0
 20
65.0
 30
0.0
  0
SEQEND
  8
HOVED
  0
TEXT
  8
HOVED
 10
68.965065
 20
58.523358
 30
0.0
 40
1.25
  1
VINKEL
  0
TEXT
  8
HOVED
 10
68.965065
 20
60.232019
 30
0.0
 40
1.25
  1
ANGLE
  0
POLYLINE
  8
HOVED
 66
     1
 10
0.0
 20
0.0
 30
0.0
  0
VERTEX
  8
HOVED
 10
67.0
 20
64.0
 30
0.0
  0
VERTEX
  8
HOVED
 10
67.0
 20
58.0
 30
0.0
  0
SEQEND
  8
HOVED
  0
ARC
  8
HOVED
 10
30.760314
 20
66.358592
 30
0.0
 40
1.214782
 50
306.484773
 51
299.24767
  0
TEXT
  8
HOVED
 10
28.0
 20
68.0
 30
0.0
 40
1.25
  1
. .
  0
TEXT
  8
HOVED
 10
17.0
 20
68.0
 30
0.0
 40
1.25
  1
. .
  0
TEXT
  8
HOVED
 10
5.0
 20
68.0
 30
0.0
 40
1.25
  1
. .
  0
TEXT
  8
HOVED
 10
2.0
 20
60.0
 30
0.0
 40
1.25
  1
. . R    IN MICROMETERS
  0
POLYLINE
  8
HOVED
 66
     1
 10
0.0
 20
0.0
 30
0.0
  0
VERTEX
  8
HOVED
 10
29.037485
 20
66.969806
 30
0.0
  0
VERTEX
  8
HOVED
 10
30.75
 20
64.0
 30
0.0
  0
VERTEX
  8
HOVED
 10
33.868589
 20
69.366508
 30
0.0
  0
SEQEND
  8
HOVED
  0
POLYLINE
  8
HOVED
 66
     1
 10
0.0
 20
0.0
 30
0.0
  0
VERTEX
  8
HOVED
 10
18.037485
 20
66.969806
 30
0.0
  0
VERTEX
  8
HOVED
 10
19.75
 20
64.0
 30
0.0
  0
VERTEX
  8
HOVED
 10
22.868589
 20
69.366508
 30
0.0
  0
SEQEND
  8
HOVED
  0
ARC
  8
HOVED
 10
7.75
 20
64.0
 30
0.0
 40
3.605551
 50
59.838245
 51
119.838245
  0
POLYLINE
  8
HOVED
 66
     1
 10
0.0
 20
0.0
 30
0.0
  0
VERTEX
  8
HOVED
 10
6.151924
 20
67.232051
 30
0.0
  0
VERTEX
  8
HOVED
 10
7.75
 20
64.0
 30
0.0
  0
VERTEX
  8
HOVED
 10
10.868589
 20
69.366508
 30
0.0
  0
SEQEND
  8
HOVED
  0
TEXT
  8
HOVED
 10
171.083333
 20
58.489461
 30
0.0
 40
1.25
  1
ANTAL
 72
     4
 11
174.0
 21
59.114461
 31
0.0
  0
TEXT
  8
HOVED
 10
170.875
 20
60.26546
 30
0.0
 40
1.25
  1
QUANT.
 72
     4
 11
174.0
 21
60.89046
 31
0.0
  0
POLYLINE
  8
HOVED
 66
     1
 10
0.0
 20
0.0
 30
0.0
  0
VERTEX
  8
HOVED
 10
0.0
 20
0.0
 30
0.0
  0
VERTEX
  8
HOVED
 10
180.0
 20
0.0
 30
0.0
  0
SEQEND
  8
HOVED
  0
POLYLINE
  8
HOVED
 66
     1
 10
0.0
 20
0.0
 30
0.0
  0
VERTEX
  8
HOVED
 10
25.0
 20
58.0
 30
0.0
  0
VERTEX
  8
HOVED
 10
25.0
 20
8.0
 30
0.0
  0
SEQEND
  8
HOVED
  0
POLYLINE
  8
HOVED
 66
     1
 10
0.0
 20
0.0
 30
0.0
  0
VERTEX
  8
HOVED
 10
0.0
 20
58.0
 30
0.0
  0
VERTEX
  8
HOVED
 10
180.0
 20
58.0
 30
0.0
  0
SEQEND
  8
HOVED
  0
POLYLINE
  8
HOVED
 66
     1
 10
0.0
 20
0.0
 30
0.0
  0
VERTEX
  8
HOVED
 10
158.0
 20
28.0
 30
0.0
  0
VERTEX
  8
HOVED
 10
158.0
 20
4.0
 30
0.0
  0
SEQEND
  8
HOVED
  0
POLYLINE
  8
HOVED
 66
     1
 10
0.0
 20
0.0
 30
0.0
  0
VERTEX
  8
HOVED
 10
20.0
 20
20.0
 30
0.0
  0
VERTEX
  8
HOVED
 10
20.0
 20
8.0
 30
0.0
  0
SEQEND
  8
HOVED
  0
POLYLINE
  8
HOVED
 66
     1
 10
0.0
 20
0.0
 30
0.0
  0
VERTEX
  8
HOVED
 10
0.0
 20
8.0
 30
0.0
  0
VERTEX
  8
HOVED
 10
180.0
 20
8.0
 30
0.0
  0
SEQEND
  8
HOVED
  0
LINE
  8
HOVED
 10
23.0
 20
4.0
 30
0.0
 11
23.0
 21
0.0
 31
0.0
  0
POLYLINE
  8
HOVED
 66
     1
 10
0.0
 20
0.0
 30
0.0
  0
VERTEX
  8
HOVED
 10
0.0
 20
28.0
 30
0.0
  0
VERTEX
  8
HOVED
 10
180.0
 20
28.0
 30
0.0
  0
SEQEND
  8
HOVED
  0
TEXT
  8
HOVED
 10
139.041667
 20
55.379921
 30
0.0
 40
1.25
  1
PATTERN NO.        MODEL NR.
 72
     4
 11
155.5
 21
56.004921
 31
0.0
  0
LINE
  8
HOVED
 10
45.0
 20
8.0
 30
0.0
 11
45.0
 21
4.0
 31
0.0
  0
LINE
  8
HOVED
 10
25.0
 20
57.0
 30
0.0
 11
25.0
 21
40.0
 31
0.0
  0
TEXT
  8
HOVED
 10
17.708333
 20
44.374016
 30
0.0
 40
1.25
  1
MM
 72
     1
 11
18.75
 21
44.374016
 31
0.0
  0
LINE
  8
HOVED
 10
0.0
 20
70.0
 30
0.0
 11
180.0
 21
70.0
 31
0.0
  0
ENDBLK
  8
0
  0
BLOCK
  8
0
  2
A2RAMME
 70
     0
 10
0.0
 20
0.0
 30
0.0
  3
A2RAMME
  0
LINE
  8
0
 10
0.0
 20
0.0
 30
0.0
 11
0.0
 21
410.0
 31
0.0
  0
LINE
  8
0
 10
0.0
 20
410.0
 30
0.0
 11
558.0
 21
410.0
 31
0.0
  0
LINE
  8
0
 10
558.0
 20
410.0
 30
0.0
 11
558.0
 21
0.0
 31
0.0
  0
LINE
  8
0
 10
558.0
 20
0.0
 30
0.0
 11
0.0
 21
0.0
 31
0.0
  0
ENDBLK
  8
0
  0
BLOCK
  8
0
  2
A3MEK
 70
    64
 10
0.0
 20
0.0
 30
0.0
  3
A3MEK
  0
TEXT
  8
HOVED
 62
    14
 10
405.517299
 20
15.019425
 30
0.0
 40
2.5
  1
A3
  7
TXT
  0
TEXT
  8
HOVED
 10
247.116142
 20
54.374016
 30
0.0
 40
1.25
  1
MM
  7
UV
 72
     1
 11
248.75
 21
54.374016
 31
0.0
  0
LINE
  8
HOVED
 10
255.0
 20
67.0
 30
0.0
 11
255.0
 21
50.0
 31
0.0
  0
LINE
  8
HOVED
 10
275.0
 20
18.0
 30
0.0
 11
275.0
 21
14.0
 31
0.0
  0
TEXT
  8
HOVED
 10
372.896654
 20
65.375
 30
0.0
 40
1.25
  1
PATTERN NO.        MODEL NR.
  7
UV
 72
     4
 11
385.5
 21
66.004921
 31
0.0
  0
POLYLINE
  8
HOVED
 66
     1
 10
0.0
 20
0.0
 30
0.0
  0
VERTEX
  8
HOVED
 10
230.0
 20
38.0
 30
0.0
  0
VERTEX
  8
HOVED
 10
410.0
 20
38.0
 30
0.0
  0
SEQEND
  8
HOVED
  0
LINE
  8
HOVED
 10
253.0
 20
14.0
 30
0.0
 11
253.0
 21
10.0
 31
0.0
  0
POLYLINE
  8
HOVED
 66
     1
 10
0.0
 20
0.0
 30
0.0
  0
VERTEX
  8
HOVED
 10
250.0
 20
30.0
 30
0.0
  0
VERTEX
  8
HOVED
 10
250.0
 20
18.0
 30
0.0
  0
SEQEND
  8
HOVED
  0
POLYLINE
  8
HOVED
 66
     1
 10
0.0
 20
0.0
 30
0.0
  0
VERTEX
  8
HOVED
 10
388.0
 20
38.0
 30
0.0
  0
VERTEX
  8
HOVED
 10
388.0
 20
14.0
 30
0.0
  0
SEQEND
  8
HOVED
  0
POLYLINE
  8
HOVED
 66
     1
 10
0.0
 20
0.0
 30
0.0
  0
VERTEX
  8
HOVED
 10
230.0
 20
68.0
 30
0.0
  0
VERTEX
  8
HOVED
 10
410.0
 20
68.0
 30
0.0
  0
SEQEND
  8
HOVED
  0
POLYLINE
  8
HOVED
 66
     1
 10
0.0
 20
0.0
 30
0.0
  0
VERTEX
  8
HOVED
 10
255.0
 20
68.0
 30
0.0
  0
VERTEX
  8
HOVED
 10
255.0
 20
18.0
 30
0.0
  0
SEQEND
  8
HOVED
  0
POLYLINE
  8
HOVED
 66
     1
 10
0.0
 20
0.0
 30
0.0
  0
VERTEX
  8
HOVED
 10
230.0
 20
10.0
 30
0.0
  0
VERTEX
  8
HOVED
 10
410.0
 20
10.0
 30
0.0
  0
SEQEND
  8
HOVED
  0
TEXT
  8
HOVED
 10
400.594488
 20
70.260539
 30
0.0
 40
1.25
  1
QUANT.
  7
UV
 72
     4
 11
404.0
 21
70.89046
 31
0.0
  0
TEXT
  8
HOVED
 10
401.081693
 20
68.489461
 30
0.0
 40
1.25
  1
ANTAL
  7
UV
 72
     4
 11
404.0
 21
69.114461
 31
0.0
  0
POLYLINE
  8
HOVED
 66
     1
 10
0.0
 20
0.0
 30
0.0
  0
VERTEX
  8
HOVED
 10
236.151924
 20
77.232051
 30
0.0
  0
VERTEX
  8
HOVED
 10
237.75
 20
74.0
 30
0.0
  0
VERTEX
  8
HOVED
 10
240.868589
 20
79.366508
 30
0.0
  0
SEQEND
  8
HOVED
  0
ARC
  8
HOVED
 10
237.75
 20
74.0
 30
0.0
 40
3.605551
 50
59.838245
 51
119.838245
  0
POLYLINE
  8
HOVED
 66
     1
 10
0.0
 20
0.0
 30
0.0
  0
VERTEX
  8
HOVED
 10
248.037485
 20
76.969806
 30
0.0
  0
VERTEX
  8
HOVED
 10
249.75
 20
74.0
 30
0.0
  0
VERTEX
  8
HOVED
 10
252.868589
 20
79.366508
 30
0.0
  0
SEQEND
  8
HOVED
  0
POLYLINE
  8
HOVED
 66
     1
 10
0.0
 20
0.0
 30
0.0
  0
VERTEX
  8
HOVED
 10
259.037485
 20
76.969806
 30
0.0
  0
VERTEX
  8
HOVED
 10
260.75
 20
74.0
 30
0.0
  0
VERTEX
  8
HOVED
 10
263.868589
 20
79.366508
 30
0.0
  0
SEQEND
  8
HOVED
  0
TEXT
  8
HOVED
 10
232.0
 20
70.0
 30
0.0
 40
1.25
  1
. . R    IN MICROMETERS
  7
UV
  0
TEXT
  8
HOVED
 10
235.0
 20
78.0
 30
0.0
 40
1.25
  1
. .
  7
UV
  0
TEXT
  8
HOVED
 10
247.0
 20
78.0
 30
0.0
 40
1.25
  1
. .
  7
UV
  0
TEXT
  8
HOVED
 10
258.0
 20
78.0
 30
0.0
 40
1.25
  1
. .
  7
UV
  0
ARC
  8
HOVED
 10
260.760314
 20
76.358592
 30
0.0
 40
1.214782
 50
306.484773
 51
299.24767
  0
POLYLINE
  8
HOVED
 66
     1
 10
0.0
 20
0.0
 30
0.0
  0
VERTEX
  8
HOVED
 10
297.0
 20
74.0
 30
0.0
  0
VERTEX
  8
HOVED
 10
297.0
 20
68.0
 30
0.0
  0
SEQEND
  8
HOVED
  0
TEXT
  8
HOVED
 10
298.965065
 20
70.232019
 30
0.0
 40
1.25
  1
ANGLE
  7
UV
  0
TEXT
  8
HOVED
 10
298.965065
 20
68.523358
 30
0.0
 40
1.25
  1
VINKEL
  7
UV
  0
POLYLINE
  8
HOVED
 66
     1
 10
0.0
 20
0.0
 30
0.0
 70
     1
 40
0.3
 41
0.3
  0
VERTEX
  8
HOVED
 10
324.0
 20
77.0
 30
0.0
  0
VERTEX
  8
HOVED
 10
326.0
 20
77.0
 30
0.0
  0
VERTEX
  8
HOVED
 10
326.0
 20
75.0
 30
0.0
  0
VERTEX
  8
HOVED
 10
324.0
 20
75.0
 30
0.0
  0
SEQEND
  8
HOVED
  0
POLYLINE
  8
HOVED
 66
     1
 10
0.0
 20
0.0
 30
0.0
 70
     1
 40
0.3
 41
0.3
  0
VERTEX
  8
HOVED
 10
331.0
 20
75.0
 30
0.0
  0
VERTEX
  8
HOVED
 10
333.0
 20
75.0
 30
0.0
  0
VERTEX
  8
HOVED
 10
333.0
 20
77.0
 30
0.0
  0
VERTEX
  8
HOVED
 10
331.0
 20
77.0
 30
0.0
  0
SEQEND
  8
HOVED
  0
POLYLINE
  8
HOVED
 66
     1
 10
0.0
 20
0.0
 30
0.0
 70
     1
 40
0.3
 41
0.3
  0
VERTEX
  8
HOVED
 10
333.0
 20
75.0
 30
0.0
  0
VERTEX
  8
HOVED
 10
335.0
 20
75.0
 30
0.0
  0
VERTEX
  8
HOVED
 10
335.0
 20
77.0
 30
0.0
  0
VERTEX
  8
HOVED
 10
333.0
 20
77.0
 30
0.0
  0
SEQEND
  8
HOVED
  0
POLYLINE
  8
HOVED
 66
     1
 10
0.0
 20
0.0
 30
0.0
 70
     1
 40
0.3
 41
0.3
  0
VERTEX
  8
HOVED
 10
333.0
 20
71.0
 30
0.0
  0
VERTEX
  8
HOVED
 10
335.0
 20
71.0
 30
0.0
  0
VERTEX
  8
HOVED
 10
335.0
 20
73.0
 30
0.0
  0
VERTEX
  8
HOVED
 10
333.0
 20
73.0
 30
0.0
  0
SEQEND
  8
HOVED
  0
POLYLINE
  8
HOVED
 66
     1
 10
0.0
 20
0.0
 30
0.0
 70
     1
 40
0.3
 41
0.3
  0
VERTEX
  8
HOVED
 10
331.0
 20
71.0
 30
0.0
  0
VERTEX
  8
HOVED
 10
333.0
 20
71.0
 30
0.0
  0
VERTEX
  8
HOVED
 10
333.0
 20
73.0
 30
0.0
  0
VERTEX
  8
HOVED
 10
331.0
 20
73.0
 30
0.0
  0
SEQEND
  8
HOVED
  0
POLYLINE
  8
HOVED
 66
     1
 10
0.0
 20
0.0
 30
0.0
 70
     1
 40
0.3
 41
0.3
  0
VERTEX
  8
HOVED
 10
335.0
 20
73.0
 30
0.0
  0
VERTEX
  8
HOVED
 10
337.0
 20
73.0
 30
0.0
  0
VERTEX
  8
HOVED
 10
337.0
 20
71.0
 30
0.0
  0
VERTEX
  8
HOVED
 10
335.0
 20
71.0
 30
0.0
  0
SEQEND
  8
HOVED
  0
TEXT
  8
HOVED
 10
324.375
 20
75.375
 30
0.0
 40
1.25
  1
A
  7
UV
 72
     4
 11
325.0
 21
76.0
 31
0.0
  0
TEXT
  8
HOVED
 10
335.375
 20
71.375
 30
0.0
 40
1.25
  1
A
  7
UV
 72
     4
 11
336.0
 21
72.0
 31
0.0
  0
POLYLINE
  8
HOVED
 66
     1
 10
0.0
 20
0.0
 30
0.0
 40
0.4
 41
0.4
  0
VERTEX
  8
HOVED
 10
325.0
 20
75.0
 30
0.0
  0
VERTEX
  8
HOVED
 10
325.0
 20
72.0
 30
0.0
  0
SEQEND
  8
HOVED
  0
POLYLINE
  8
HOVED
 66
     1
 10
0.0
 20
0.0
 30
0.0
 70
     1
  0
VERTEX
  8
HOVED
 10
324.0
 20
72.0
 30
0.0
  0
VERTEX
  8
HOVED
 10
326.0
 20
72.0
 30
0.0
  0
VERTEX
  8
HOVED
 10
325.0
 20
73.0
 30
0.0
  0
SEQEND
  8
HOVED
  0
TEXT
  8
HOVED
 10
353.88878
 20
70.229331
 30
0.0
 40
1.25
  1
ITEM
  7
UV
 72
     4
 11
356.0
 21
70.854331
 31
0.0
  0
TEXT
  8
HOVED
 10
354.20374
 20
68.520669
 30
0.0
 40
1.25
  1
POS
  7
UV
 72
     4
 11
356.0
 21
69.145669
 31
0.0
  0
TEXT
  8
HOVED
 10
364.406496
 20
69.375
 30
0.0
 40
1.25
  1
ASSEMBLY NO.         SAMLINGS NR.
  7
UV
 72
     4
 11
379.5
 21
70.0
 31
0.0
  0
POLYLINE
  8
HOVED
 66
     1
 10
0.0
 20
0.0
 30
0.0
  0
VERTEX
  8
HOVED
 10
230.0
 20
80.0
 30
0.0
  0
VERTEX
  8
HOVED
 10
410.0
 20
80.0
 30
0.0
  0
SEQEND
  8
HOVED
  0
POLYLINE
  8
HOVED
 66
     1
 10
0.0
 20
0.0
 30
0.0
  0
VERTEX
  8
HOVED
 10
361.0
 20
80.0
 30
0.0
  0
VERTEX
  8
HOVED
 10
361.0
 20
38.0
 30
0.0
  0
SEQEND
  8
HOVED
  0
POLYLINE
  8
HOVED
 66
     1
 10
0.0
 20
0.0
 30
0.0
  0
VERTEX
  8
HOVED
 10
398.0
 20
80.0
 30
0.0
  0
VERTEX
  8
HOVED
 10
398.0
 20
68.0
 30
0.0
  0
SEQEND
  8
HOVED
  0
POLYLINE
  8
HOVED
 66
     1
 10
0.0
 20
0.0
 30
0.0
  0
VERTEX
  8
HOVED
 10
398.0
 20
53.0
 30
0.0
  0
VERTEX
  8
HOVED
 10
398.0
 20
38.0
 30
0.0
  0
SEQEND
  8
HOVED
  0
POLYLINE
  8
HOVED
 66
     1
 10
0.0
 20
0.0
 30
0.0
  0
VERTEX
  8
HOVED
 10
230.0
 20
80.0
 30
0.0
  0
VERTEX
  8
HOVED
 10
230.0
 20
10.0
 30
0.0
  0
SEQEND
  8
HOVED
  0
POLYLINE
  8
HOVED
 66
     1
 10
0.0
 20
0.0
 30
0.0
  0
VERTEX
  8
HOVED
 10
410.0
 20
80.0
 30
0.0
  0
VERTEX
  8
HOVED
 10
410.0
 20
10.0
 30
0.0
  0
SEQEND
  8
HOVED
  0
POLYLINE
  8
HOVED
 66
     1
 10
0.0
 20
0.0
 30
0.0
  0
VERTEX
  8
HOVED
 10
351.0
 20
72.0
 30
0.0
  0
VERTEX
  8
HOVED
 10
410.0
 20
72.0
 30
0.0
  0
SEQEND
  8
HOVED
  0
POLYLINE
  8
HOVED
 66
     1
 10
0.0
 20
0.0
 30
0.0
  0
VERTEX
  8
HOVED
 10
361.090529
 20
64.006697
 30
0.0
  0
VERTEX
  8
HOVED
 10
410.090529
 20
64.006697
 30
0.0
  0
SEQEND
  8
HOVED
  0
POLYLINE
  8
HOVED
 66
     1
 10
0.0
 20
0.0
 30
0.0
  0
VERTEX
  8
HOVED
 10
361.0
 20
49.0
 30
0.0
  0
VERTEX
  8
HOVED
 10
410.0
 20
49.0
 30
0.0
  0
SEQEND
  8
HOVED
  0
POLYLINE
  8
HOVED
 66
     1
 10
0.0
 20
0.0
 30
0.0
  0
VERTEX
  8
HOVED
 10
242.5
 20
38.0
 30
0.0
  0
VERTEX
  8
HOVED
 10
242.5
 20
68.0
 30
0.0
  0
SEQEND
  8
HOVED
  0
POLYLINE
  8
HOVED
 66
     1
 10
0.0
 20
0.0
 30
0.0
  0
VERTEX
  8
HOVED
 10
351.0
 20
80.0
 30
0.0
  0
VERTEX
  8
HOVED
 10
351.0
 20
68.0
 30
0.0
  0
SEQEND
  8
HOVED
  0
POLYLINE
  8
HOVED
 66
     1
 10
0.0
 20
0.0
 30
0.0
  0
VERTEX
  8
HOVED
 10
351.0
 20
76.0
 30
0.0
  0
VERTEX
  8
HOVED
 10
410.0
 20
76.0
 30
0.0
  0
SEQEND
  8
HOVED
  0
POLYLINE
  8
HOVED
 66
     1
 10
0.0
 20
0.0
 30
0.0
  0
VERTEX
  8
HOVED
 10
273.5
 20
80.0
 30
0.0
  0
VERTEX
  8
HOVED
 10
273.5
 20
68.0
 30
0.0
  0
SEQEND
  8
HOVED
  0
POLYLINE
  8
HOVED
 66
     1
 10
0.0
 20
0.0
 30
0.0
  0
VERTEX
  8
HOVED
 10
320.5
 20
80.0
 30
0.0
  0
VERTEX
  8
HOVED
 10
320.5
 20
68.0
 30
0.0
  0
SEQEND
  8
HOVED
  0
TEXT
  8
HOVED
 10
234.633675
 20
69.243207
 30
0.0
 40
1.25
  1
A
  7
UV
  0
POLYLINE
  8
HOVED
 66
     1
 10
0.0
 20
0.0
 30
0.0
  0
VERTEX
  8
HOVED
 10
230.0
 20
26.0
 30
0.0
  0
VERTEX
  8
HOVED
 10
255.0
 20
26.0
 30
0.0
  0
SEQEND
  8
HOVED
  0
POLYLINE
  8
HOVED
 66
     1
 10
0.0
 20
0.0
 30
0.0
  0
VERTEX
  8
HOVED
 10
230.0
 20
22.0
 30
0.0
  0
VERTEX
  8
HOVED
 10
255.0
 20
22.0
 30
0.0
  0
SEQEND
  8
HOVED
  0
POLYLINE
  8
HOVED
 66
     1
 10
0.0
 20
0.0
 30
0.0
 40
0.5
 41
0.5
  0
VERTEX
  8
HOVED
 10
230.0
 20
18.0
 30
0.0
  0
VERTEX
  8
HOVED
 10
255.0
 20
18.0
 30
0.0
  0
VERTEX
  8
HOVED
 10
255.0
 20
30.0
 30
0.0
  0
VERTEX
  8
HOVED
 10
230.0
 20
30.0
 30
0.0
  0
VERTEX
  8
HOVED
 10
230.0
 20
18.0
 30
0.0
  0
SEQEND
  8
HOVED
  0
POLYLINE
  8
HOVED
 66
     1
 10
0.0
 20
0.0
 30
0.0
 40
0.5
 41
0.5
  0
VERTEX
  8
HOVED
 10
244.0
 20
42.0
 30
0.0
  0
VERTEX
  8
HOVED
 10
248.0
 20
41.0
 30
0.0
  0
VERTEX
  8
HOVED
 10
248.0
 20
45.0
 30
0.0
  0
VERTEX
  8
HOVED
 10
244.0
 20
44.0
 30
0.0
  0
VERTEX
  8
HOVED
 10
244.0
 20
42.0
 30
0.0
  0
SEQEND
  8
HOVED
  0
POLYLINE
  8
HOVED
  6
CENTER
 62
     2
 66
     1
 10
0.0
 20
0.0
 30
0.0
 40
0.02
 41
0.02
  0
VERTEX
  8
HOVED
  6
CENTER
 62
     2
 10
243.0
 20
43.0
 30
0.0
  0
VERTEX
  8
HOVED
  6
CENTER
 62
     2
 10
254.0
 20
43.0
 30
0.0
  0
SEQEND
  8
HOVED
  0
POLYLINE
  8
HOVED
  6
CENTER
 62
     2
 66
     1
 10
0.0
 20
0.0
 30
0.0
 40
0.02
 41
0.02
  0
VERTEX
  8
HOVED
  6
CENTER
 62
     2
 10
251.0
 20
46.0
 30
0.0
  0
VERTEX
  8
HOVED
  6
CENTER
 62
     2
 10
251.0
 20
40.0
 30
0.0
  0
SEQEND
  8
HOVED
  0
POLYLINE
  8
HOVED
 66
     1
 10
0.0
 20
0.0
 30
0.0
  0
VERTEX
  8
HOVED
 10
230.0
 20
14.0
 30
0.0
  0
VERTEX
  8
HOVED
 10
410.0
 20
14.0
 30
0.0
  0
SEQEND
  8
HOVED
  0
POLYLINE
  8
HOVED
 66
     1
 10
0.0
 20
0.0
 30
0.0
  0
VERTEX
  8
HOVED
 10
275.0
 20
18.0
 30
0.0
  0
VERTEX
  8
HOVED
 10
275.0
 20
10.0
 30
0.0
  0
SEQEND
  8
HOVED
  0
TEXT
  8
HOVED
 10
276.410277
 20
11.375
 30
0.0
 40
1.25
  1
DAT
  7
UV
 72
     4
 11
278.250828
 21
12.0
 31
0.0
  0
POLYLINE
  8
HOVED
 66
     1
 10
0.0
 20
0.0
 30
0.0
  0
VERTEX
  8
HOVED
 10
306.0
 20
10.0
 30
0.0
  0
VERTEX
  8
HOVED
 10
306.0
 20
14.0
 30
0.0
  0
SEQEND
  8
HOVED
  0
TEXT
  8
HOVED
 10
257.730459
 20
56.060723
 30
0.0
 40
1.25
  1
MATERIAL
 50
90.0
  7
UV
 72
     4
 11
257.105459
 21
60.534148
 31
0.0
  0
TEXT
  8
HOVED
 10
259.866285
 20
56.159148
 30
0.0
 40
1.25
  1
MATERIEL
 50
90.0
  7
UV
 72
     4
 11
259.241285
 21
60.534148
 31
0.0
  0
TEXT
  8
HOVED
 10
257.730459
 20
40.204423
 30
0.0
 40
1.25
  1
TREATMENT
 50
90.0
  7
UV
 72
     4
 11
257.105459
 21
45.534148
 31
0.0
  0
TEXT
  8
HOVED
 10
259.866285
 20
39.805801
 30
0.0
 40
1.25
  1
BEHANDLING
 50
90.0
  7
UV
 72
     4
 11
259.241285
 21
45.534148
 31
0.0
  0
TEXT
  8
HOVED
 10
246.810039
 20
66.0
 30
0.0
 40
1.25
  1
UNIT
  7
UV
 72
     1
 11
249.0
 21
66.0
 31
0.0
  0
TEXT
  8
HOVED
 10
245.998031
 20
63.864173
 30
0.0
 40
1.25
  1
ENHED
  7
UV
 72
     1
 11
249.0
 21
63.864173
 31
0.0
  0
TEXT
  8
HOVED
 10
230.654528
 20
66.0
 30
0.0
 40
1.25
  1
ROUGHNESS
  7
UV
 72
     1
 11
236.25
 21
66.0
 31
0.0
  0
TEXT
  8
HOVED
 10
233.188976
 20
63.864173
 30
0.0
 40
1.25
  1
RUHED
  7
UV
 72
     1
 11
236.25
 21
63.864173
 31
0.0
  0
TEXT
  8
HOVED
 10
233.479331
 20
51.0
 30
0.0
 40
1.25
  1
SCALE
  7
UV
 72
     1
 11
236.25
 21
51.0
 31
0.0
  0
TEXT
  8
HOVED
 10
233.326772
 20
48.864173
 30
0.0
 40
1.25
  1
SKALA
  7
UV
 72
     1
 11
236.25
 21
48.864173
 31
0.0
  0
TEXT
  8
HOVED
 10
246.495079
 20
51.0
 30
0.0
 40
1.25
  1
PROJ.
  7
UV
 72
     1
 11
249.0
 21
51.0
 31
0.0
  0
TEXT
  8
HOVED
 10
245.786417
 20
48.864173
 30
0.0
 40
1.25
  1
EUROP.
  7
UV
 72
     1
 11
249.0
 21
48.864173
 31
0.0
  0
TEXT
  8
HOVED
 10
274.993737
 20
70.28802
 30
0.0
 40
1.25
  1
DIMENSION
  7
UV
  0
TEXT
  8
HOVED
 10
274.993737
 20
68.522348
 30
0.0
 40
1.25
  1
MèL
  7
UV
  0
TEXT
  8
HOVED
 10
231.072835
 20
35.375
 30
0.0
 40
1.25
  1
CLASS NO.       KLASSE NR.
  7
UV
 72
     4
 11
242.5
 21
36.0
 31
0.0
  0
TEXT
  8
HOVED
 10
231.028054
 20
16.17553
 30
0.0
 40
1.25
  1
NAME
  7
UV
  0
TEXT
  8
HOVED
 10
231.028054
 20
14.437063
 30
0.0
 40
1.25
  1
NAVN
  7
UV
  0
TEXT
  8
HOVED
 10
276.0
 20
16.191533
 30
0.0
 40
1.25
  1
SUPERS.
  7
UV
  0
TEXT
  8
HOVED
 10
276.0
 20
14.461987
 30
0.0
 40
1.25
  1
ERST.
  7
UV
  0
TEXT
  8
HOVED
 10
331.324041
 20
16.279985
 30
0.0
 40
1.25
  1
SH
  7
UV
 72
     4
 11
332.495301
 21
16.904985
 31
0.0
  0
TEXT
  8
HOVED
 10
331.378175
 20
14.563739
 30
0.0
 40
1.25
  1
BL
  7
UV
 72
     4
 11
332.495301
 21
15.188739
 31
0.0
  0
TEXT
  8
HOVED
 10
336.697271
 20
16.279985
 30
0.0
 40
1.25
  1
SH
  7
UV
 72
     4
 11
337.868531
 21
16.904985
 31
0.0
  0
TEXT
  8
HOVED
 10
336.751405
 20
14.563739
 30
0.0
 40
1.25
  1
BL
  7
UV
 72
     4
 11
337.868531
 21
15.188739
 31
0.0
  0
TEXT
  8
HOVED
 10
392.005906
 20
15.261811
 30
0.0
 40
1.5
  1
KU
  7
UV
 72
     4
 11
393.5
 21
16.0
 31
0.0
  0
TEXT
  8
HOVED
 10
399.96063
 20
15.370079
 30
0.0
 40
1.25
  1
FORM
  7
UV
 72
     4
 11
402.5
 21
16.0
 31
0.0
  0
TEXT
  8
HOVED
 10
324.30315
 20
11.25
 30
0.0
 40
1.5
  1
Philips TV Test Equipment A/S - Kornmarksvej 21 - DK-2605 Brõndby
  7
UV
 72
     4
 11
358.0
 21
11.811024
 31
0.0
  0
TEXT
  8
HOVED
 10
367.590551
 20
50.370079
 30
0.0
 40
1.25
  1
ORDER NO.          ORDRE NR.
  7
UV
 72
     4
 11
379.5
 21
51.0
 31
0.0
  0
TEXT
  8
HOVED
 10
400.594488
 20
51.264343
 30
0.0
 40
1.25
  1
QUANT.
  7
UV
 72
     4
 11
404.0
 21
51.894264
 31
0.0
  0
TEXT
  8
HOVED
 10
401.081693
 20
49.485657
 30
0.0
 40
1.25
  1
ANTAL
  7
UV
 72
     4
 11
404.0
 21
50.110657
 31
0.0
  0
TEXT
  8
HOVED
 10
278.73622
 20
77.749756
 30
0.0
 40
1.25
  1
TOLERANCES UNLESS OTHERWISE STATED
  7
UV
 72
     1
 11
297.25
 21
77.749756
 31
0.0
  0
TEXT
  8
HOVED
 10
277.983268
 20
76.000244
 30
0.0
 40
1.25
  1
TOLERANCE HVOR INTET ANDET ER ANGIVET
  7
UV
 72
     1
 11
297.25
 21
76.000244
 31
0.0
  0
POLYLINE
  8
HOVED
 66
     1
 10
0.0
 20
0.0
 30
0.0
  0
VERTEX
  8
HOVED
 10
335.0
 20
18.0
 30
0.0
  0
VERTEX
  8
HOVED
 10
335.0
 20
14.0
 30
0.0
  0
SEQEND
  8
HOVED
  0
POLYLINE
  8
HOVED
 62
    13
 66
     1
 10
0.0
 20
0.0
 30
0.0
 70
     1
 40
0.3
 41
0.3
  0
VERTEX
  8
HOVED
 62
    13
 10
249.0
 20
43.0
 30
0.0
 42
1.0
  0
VERTEX
  8
HOVED
 62
    13
 10
253.0
 20
43.0
 30
0.0
 42
1.0
  0
SEQEND
  8
HOVED
  0
POLYLINE
  8
HOVED
 62
    13
 66
     1
 10
0.0
 20
0.0
 30
0.0
 70
     1
 40
0.3
 41
0.3
  0
VERTEX
  8
HOVED
 62
    13
 10
250.0
 20
43.0
 30
0.0
 42
1.0
  0
VERTEX
  8
HOVED
 62
    13
 10
252.0
 20
43.0
 30
0.0
 42
1.0
  0
SEQEND
  8
HOVED
  0
POLYLINE
  8
HOVED
 66
     1
 10
0.0
 20
0.0
 30
0.0
  0
VERTEX
  8
HOVED
 10
238.0
 20
14.0
 30
0.0
  0
VERTEX
  8
HOVED
 10
238.0
 20
10.0
 30
0.0
  0
SEQEND
  8
HOVED
  0
POLYLINE
  8
HOVED
 66
     1
 10
0.0
 20
0.0
 30
0.0
  0
VERTEX
  8
HOVED
 10
253.0
 20
14.0
 30
0.0
  0
VERTEX
  8
HOVED
 10
253.0
 20
10.0
 30
0.0
  0
SEQEND
  8
HOVED
  0
TEXT
  8
HOVED
 10
253.856762
 20
12.224048
 30
0.0
 40
1.25
  1
CHECK
  7
UV
  0
TEXT
  8
HOVED
 10
253.856762
 20
10.445735
 30
0.0
 40
1.25
  1
KONTROL
  7
UV
  0
POLYLINE
  8
HOVED
 66
     1
 10
0.0
 20
0.0
 30
0.0
  0
VERTEX
  8
HOVED
 10
325.0
 20
18.0
 30
0.0
  0
VERTEX
  8
HOVED
 10
325.0
 20
14.0
 30
0.0
  0
SEQEND
  8
HOVED
  0
POLYLINE
  8
HOVED
 66
     1
 10
0.0
 20
0.0
 30
0.0
  0
VERTEX
  8
HOVED
 10
383.0
 20
34.0
 30
0.0
  0
VERTEX
  8
HOVED
 10
410.0
 20
34.0
 30
0.0
  0
SEQEND
  8
HOVED
  0
POLYLINE
  8
HOVED
 66
     1
 10
0.0
 20
0.0
 30
0.0
  0
VERTEX
  8
HOVED
 10
383.0
 20
30.0
 30
0.0
  0
VERTEX
  8
HOVED
 10
410.0
 20
30.0
 30
0.0
  0
SEQEND
  8
HOVED
  0
POLYLINE
  8
HOVED
 66
     1
 10
0.0
 20
0.0
 30
0.0
  0
VERTEX
  8
HOVED
 10
383.0
 20
26.0
 30
0.0
  0
VERTEX
  8
HOVED
 10
410.0
 20
26.0
 30
0.0
  0
SEQEND
  8
HOVED
  0
POLYLINE
  8
HOVED
 66
     1
 10
0.0
 20
0.0
 30
0.0
  0
VERTEX
  8
HOVED
 10
383.0
 20
22.0
 30
0.0
  0
VERTEX
  8
HOVED
 10
410.0
 20
22.0
 30
0.0
  0
SEQEND
  8
HOVED
  0
POLYLINE
  8
HOVED
 66
     1
 10
0.0
 20
0.0
 30
0.0
  0
VERTEX
  8
HOVED
 10
373.0
 20
18.0
 30
0.0
  0
VERTEX
  8
HOVED
 10
373.0
 20
14.0
 30
0.0
  0
SEQEND
  8
HOVED
  0
POLYLINE
  8
HOVED
 66
     1
 10
0.0
 20
0.0
 30
0.0
  0
VERTEX
  8
HOVED
 10
399.0
 20
18.0
 30
0.0
  0
VERTEX
  8
HOVED
 10
399.0
 20
14.0
 30
0.0
  0
SEQEND
  8
HOVED
  0
POLYLINE
  8
HOVED
 66
     1
 10
0.0
 20
0.0
 30
0.0
 70
     1
 40
0.5
 41
0.5
  0
VERTEX
  8
HOVED
 10
335.0
 20
14.0
 30
0.0
  0
VERTEX
  8
HOVED
 10
410.0
 20
14.0
 30
0.0
  0
VERTEX
  8
HOVED
 10
410.0
 20
38.0
 30
0.0
  0
VERTEX
  8
HOVED
 10
335.0
 20
38.0
 30
0.0
  0
SEQEND
  8
HOVED
  0
POLYLINE
  8
HOVED
 66
     1
 10
0.0
 20
0.0
 30
0.0
  0
VERTEX
  8
HOVED
 10
230.0
 20
53.0
 30
0.0
  0
VERTEX
  8
HOVED
 10
410.0
 20
53.0
 30
0.0
  0
SEQEND
  8
HOVED
  0
TEXT
  8
HOVED
 10
263.451538
 20
75.024077
 30
0.0
 40
1.25
  1
UN - D 28
  7
UV
  0
TEXT
  8
HOVED
 10
263.451538
 20
72.888251
 30
0.0
 40
1.25
  1
ISO 1302 
  7
UV
  0
TEXT
  8
HOVED
 10
340.122211
 20
77.583738
 30
0.0
 40
1.25
  1
UN - D 603
  7
UV
  0
TEXT
  8
HOVED
 10
340.122211
 20
75.447911
 30
0.0
 40
1.25
  1
ISO 1101
  7
UV
  0
TEXT
  8
HOVED
 10
340.122211
 20
71.176258
 30
0.0
 40
1.25
  1
UN - D 1660
  7
UV
  0
TEXT
  8
HOVED
 10
340.122211
 20
69.040431
 30
0.0
 40
1.25
  1
ISO 5459
  7
UV
  0
POLYLINE
  8
HOVED
 66
     1
 10
0.0
 20
0.0
 30
0.0
  0
VERTEX
  8
HOVED
 10
410.0
 20
18.0
 30
0.0
  0
VERTEX
  8
HOVED
 10
230.0
 20
18.0
 30
0.0
  0
SEQEND
  8
HOVED
  0
LINE
  8
HOVED
 10
20.0
 20
10.0
 30
0.0
 11
410.0
 21
10.0
 31
0.0
  0
LINE
  8
HOVED
 10
410.0
 20
10.0
 30
0.0
 11
410.0
 21
287.0
 31
0.0
  0
LINE
  8
HOVED
 10
410.0
 20
287.0
 30
0.0
 11
20.0
 21
287.0
 31
0.0
  0
LINE
  8
HOVED
 10
20.0
 20
287.0
 30
0.0
 11
20.0
 21
10.0
 31
0.0
  0
TEXT
  8
HOVED
 10
9.285714
 20
108.5
 30
0.0
 40
2.0
  1
PROPERTY OF PHILIPS TV TEST EQUIPMENT A/S
 50
90.0
 72
     1
 11
9.285714
 21
148.5
 31
0.0
  0
TEXT
  8
HOVED
 10
12.714286
 20
121.833333
 30
0.0
 40
2.0
  1
ALL RIGHTS STRICLY RESERVED.
 50
90.0
 72
     1
 11
12.714286
 21
148.5
 31
0.0
  0
ENDBLK
  8
0
  0
ENDSEC
  0
SECTION
  2
ENTITIES
  0
LINE
  8
DIM
 10
76.645223
 20
135.27
 30
0.0
 11
76.645223
 21
145.27
 31
0.0
  0
LINE
  8
DIM
 10
71.645223
 20
140.27
 30
0.0
 11
81.645223
 21
140.27
 31
0.0
  0
INSERT
  8
0
  2
A3MEK
 10
20.0
 20
10.0
 30
0.0
  0
LINE
  8
DIM
 10
71.65
 20
136.02
 30
0.0
 11
71.65
 21
129.02
 31
0.0
  0
LINE
  8
DIM
 10
76.65
 20
136.02
 30
0.0
 11
76.65
 21
129.02
 31
0.0
  0
LINE
  8
DIM
 10
69.645223
 20
138.02
 30
0.0
 11
62.645223
 21
138.02
 31
0.0
  0
TEXT
  8
DIM
 10
59.895223
 20
136.436667
 30
0.0
 40
2.5
  1
0
  0
TEXT
  8
DIM
 10
72.645223
 20
125.02
 30
0.0
 40
2.5
  1
0
 50
90.0
  0
TEXT
  8
DIM
 10
77.56189
 20
124.77
 30
0.0
 40
2.5
  1
5
 50
90.0
  0
TEXT
  8
DIM
 10
405.145223
 20
44.77
 30
0.0
 40
2.5
  1
1
  0
TEXT
  8
DIM
 10
347.895223
 20
24.77
 30
0.0
 40
2.5
  1
1
  0
TEXT
  8
DIM
 10
257.645223
 20
24.27
 30
0.0
 40
2.5
  1
J. OLESEN.
  0
LINE
  8
DIM
 10
428.395223
 20
46.02
 30
0.0
 11
409.895223
 21
46.02
 31
0.0
  0
CIRCLE
  8
0
 10
76.645223
 20
140.27
 30
0.0
 40
1.4
  0
LINE
  8
DIM
 10
71.645223
 20
175.27
 30
0.0
 11
81.645223
 21
175.27
 31
0.0
  0
LINE
  8
DIM
 10
76.645223
 20
170.27
 30
0.0
 11
76.645223
 21
180.27
 31
0.0
  0
CIRCLE
  8
0
 10
76.645223
 20
175.27
 30
0.0
 40
1.4
  0
LINE
  8
DIM
 10
236.645223
 20
170.27
 30
0.0
 11
236.645223
 21
180.27
 31
0.0
  0
CIRCLE
  8
0
 10
236.645223
 20
175.27
 30
0.0
 40
1.4
  0
LINE
  8
DIM
 10
231.645223
 20
175.27
 30
0.0
 11
241.645223
 21
175.27
 31
0.0
  0
LINE
  8
DIM
 10
236.645223
 20
135.27
 30
0.0
 11
236.645223
 21
145.27
 31
0.0
  0
CIRCLE
  8
0
 10
236.645223
 20
140.27
 30
0.0
 40
1.4
  0
LINE
  8
DIM
 10
231.645223
 20
140.27
 30
0.0
 11
241.645223
 21
140.27
 31
0.0
  0
LINE
  8
DIM
 10
353.645223
 20
135.27
 30
0.0
 11
353.645223
 21
145.27
 31
0.0
  0
LINE
  8
DIM
 10
348.645223
 20
140.27
 30
0.0
 11
358.645223
 21
140.27
 31
0.0
  0
CIRCLE
  8
0
 10
353.645223
 20
140.27
 30
0.0
 40
1.4
  0
LINE
  8
DIM
 10
353.645223
 20
170.27
 30
0.0
 11
353.645223
 21
180.27
 31
0.0
  0
LINE
  8
DIM
 10
348.645223
 20
175.27
 30
0.0
 11
358.645223
 21
175.27
 31
0.0
  0
CIRCLE
  8
0
 10
353.645223
 20
175.27
 30
0.0
 40
1.4
  0
LINE
  8
DIM
 10
421.65
 20
136.02
 30
0.0
 11
421.65
 21
129.02
 31
0.0
  0
LINE
  8
DIM
 10
69.645223
 20
140.27
 30
0.0
 11
62.645223
 21
140.27
 31
0.0
  0
LINE
  8
DIM
 10
69.645223
 20
150.15
 30
0.0
 11
62.645223
 21
150.15
 31
0.0
  0
LINE
  8
DIM
 10
69.645223
 20
157.77
 30
0.0
 11
62.645223
 21
157.77
 31
0.0
  0
LINE
  8
DIM
 10
69.645223
 20
175.27
 30
0.0
 11
62.645223
 21
175.27
 31
0.0
  0
LINE
  8
DIM
 10
69.645223
 20
177.52
 30
0.0
 11
62.645223
 21
177.52
 31
0.0
  0
LINE
  8
DIM
 10
236.65
 20
136.02
 30
0.0
 11
236.65
 21
129.02
 31
0.0
  0
LINE
  8
DIM
 10
65.645223
 20
138.02
 30
0.0
 11
65.645223
 21
177.52
 31
0.0
  0
LINE
  8
DIM
 10
71.645223
 20
132.02
 30
0.0
 11
421.645223
 21
132.02
 31
0.0
  0
LINE
  8
DIM
 10
76.645223
 20
145.15
 30
0.0
 11
76.645223
 21
155.15
 31
0.0
  0
LINE
  8
DIM
 10
71.645223
 20
150.15
 30
0.0
 11
81.645223
 21
150.15
 31
0.0
  0
LINE
  8
DIM
 10
71.645223
 20
157.77
 30
0.0
 11
81.645223
 21
157.77
 31
0.0
  0
LINE
  8
DIM
 10
76.645223
 20
152.77
 30
0.0
 11
76.645223
 21
162.77
 31
0.0
  0
LINE
  8
DIM
 10
118.645223
 20
145.15
 30
0.0
 11
118.645223
 21
155.15
 31
0.0
  0
LINE
  8
DIM
 10
113.645223
 20
150.15
 30
0.0
 11
123.645223
 21
150.15
 31
0.0
  0
LINE
  8
DIM
 10
160.645223
 20
150.15
 30
0.0
 11
170.645223
 21
150.15
 31
0.0
  0
LINE
  8
DIM
 10
165.645223
 20
145.15
 30
0.0
 11
165.645223
 21
155.15
 31
0.0
  0
LINE
  8
DIM
 10
353.645223
 20
152.77
 30
0.0
 11
353.645223
 21
162.77
 31
0.0
  0
LINE
  8
DIM
 10
348.645223
 20
157.77
 30
0.0
 11
358.645223
 21
157.77
 31
0.0
  0
LINE
  8
DIM
 10
400.645223
 20
152.77
 30
0.0
 11
400.645223
 21
162.77
 31
0.0
  0
LINE
  8
DIM
 10
395.645223
 20
157.77
 30
0.0
 11
405.645223
 21
157.77
 31
0.0
  0
LINE
  8
DIM
 10
235.895223
 20
176.27
 30
0.0
 11
227.395223
 21
186.27
 31
0.0
  0
LINE
  8
DIM
 10
227.395223
 20
186.27
 30
0.0
 11
198.145223
 21
186.27
 31
0.0
  0
TEXT
  8
DIM
 10
199.895223
 20
187.52
 30
0.0
 40
3.0
  1
ù 2.8 (6x)
  0
TEXT
  8
DIM
 10
51.645223
 20
176.52
 30
0.0
 40
3.0
  1
39.5
  0
TEXT
  8
DIM
 10
49.145223
 20
172.02
 30
0.0
 40
3.0
  1
37.25
  0
TEXT
  8
DIM
 10
49.895223
 20
156.27
 30
0.0
 40
3.0
  1
19.75
  0
TEXT
  8
DIM
 10
51.895223
 20
140.02
 30
0.0
 40
3.0
  1
2.25
  0
TEXT
  8
DIM
 10
238.395223
 20
118.77
 30
0.0
 40
3.0
  1
165
 50
90.0
  0
TEXT
  8
DIM
 10
423.395223
 20
119.27
 30
0.0
 40
3.0
  1
350
 50
90.0
  0
TEXT
  8
DIM
 10
362.395223
 20
24.52
 30
0.0
 40
3.0
  1
112-1
  0
LINE
  8
0
  6
SKJUL
 10
421.645223
 20
142.77
 30
0.0
 11
71.645223
 21
142.77
 31
0.0
  0
LINE
  8
0
  6
SKJUL
 10
71.645223
 20
172.77
 30
0.0
 11
421.645223
 21
172.77
 31
0.0
  0
TEXT
  8
DIM
 10
48.895223
 20
162.77
 30
0.0
 40
3.0
  1
27.37
  0
TEXT
  8
DIM
 10
50.145223
 20
149.77
 30
0.0
 40
3.0
  1
12.13
  0
LINE
  8
DIM
 10
69.645223
 20
165.39
 30
0.0
 11
62.645223
 21
165.39
 31
0.0
  0
LINE
  8
DIM
 10
160.645223
 20
157.77
 30
0.0
 11
170.645223
 21
157.77
 31
0.0
  0
LINE
  8
DIM
 10
165.645223
 20
152.77
 30
0.0
 11
165.645223
 21
162.77
 31
0.0
  0
LINE
  8
DIM
 10
212.645223
 20
152.77
 30
0.0
 11
212.645223
 21
162.77
 31
0.0
  0
LINE
  8
DIM
 10
207.645223
 20
157.77
 30
0.0
 11
217.645223
 21
157.77
 31
0.0
  0
LINE
  8
DIM
 10
207.645223
 20
150.15
 30
0.0
 11
217.645223
 21
150.15
 31
0.0
  0
LINE
  8
DIM
 10
212.645223
 20
145.15
 30
0.0
 11
212.645223
 21
155.15
 31
0.0
  0
LINE
  8
DIM
 10
395.645223
 20
165.39
 30
0.0
 11
405.645223
 21
165.39
 31
0.0
  0
LINE
  8
DIM
 10
400.645223
 20
160.39
 30
0.0
 11
400.645223
 21
170.39
 31
0.0
  0
LINE
  8
DIM
 10
395.645223
 20
150.15
 30
0.0
 11
405.645223
 21
150.15
 31
0.0
  0
LINE
  8
DIM
 10
400.645223
 20
145.15
 30
0.0
 11
400.645223
 21
155.15
 31
0.0
  0
LINE
  8
DIM
 10
118.65
 20
136.02
 30
0.0
 11
118.65
 21
129.02
 31
0.0
  0
LINE
  8
DIM
 10
165.65
 20
136.02
 30
0.0
 11
165.65
 21
129.02
 31
0.0
  0
LINE
  8
DIM
 10
212.65
 20
136.02
 30
0.0
 11
212.65
 21
129.02
 31
0.0
  0
LINE
  8
DIM
 10
353.65
 20
136.02
 30
0.0
 11
353.65
 21
129.02
 31
0.0
  0
LINE
  8
DIM
 10
400.65
 20
136.02
 30
0.0
 11
400.65
 21
129.02
 31
0.0
  0
TEXT
  8
DIM
 10
120.395223
 20
122.02
 30
0.0
 40
3.0
  1
47
 50
90.0
  0
TEXT
  8
DIM
 10
166.895223
 20
121.77
 30
0.0
 40
3.0
  1
94
 50
90.0
  0
TEXT
  8
DIM
 10
213.895223
 20
121.52
 30
0.0
 40
3.0
  1
141
 50
90.0
  0
TEXT
  8
DIM
 10
355.395223
 20
118.77
 30
0.0
 40
3.0
  1
282
 50
90.0
  0
TEXT
  8
DIM
 10
402.395223
 20
119.02
 30
0.0
 40
3.0
  1
329
 50
90.0
  0
LINE
  8
0
 10
253.645223
 20
150.77
 30
0.0
 11
253.645223
 21
164.77
 31
0.0
  0
LINE
  8
0
 10
255.145223
 20
166.27
 30
0.0
 11
264.145223
 21
166.27
 31
0.0
  0
LINE
  8
0
 10
265.645223
 20
164.77
 30
0.0
 11
265.645223
 21
150.77
 31
0.0
  0
LINE
  8
0
 10
264.145223
 20
149.27
 30
0.0
 11
255.145223
 21
149.27
 31
0.0
  0
LINE
  8
0
 10
300.645223
 20
150.77
 30
0.0
 11
300.645223
 21
164.77
 31
0.0
  0
LINE
  8
0
 10
302.145223
 20
166.27
 30
0.0
 11
311.145223
 21
166.27
 31
0.0
  0
LINE
  8
0
 10
312.645223
 20
164.77
 30
0.0
 11
312.645223
 21
150.77
 31
0.0
  0
LINE
  8
0
 10
311.145223
 20
149.27
 30
0.0
 11
302.145223
 21
149.27
 31
0.0
  0
ARC
  8
0
 10
255.145223
 20
164.77
 30
0.0
 40
1.5
 50
90.0
 51
180.0
  0
ARC
  8
0
 10
264.145223
 20
164.77
 30
0.0
 40
1.5
 50
0.0
 51
90.0
  0
ARC
  8
0
 10
264.145223
 20
150.77
 30
0.0
 40
1.5
 50
270.0
 51
0.0
  0
ARC
  8
0
 10
255.145223
 20
150.77
 30
0.0
 40
1.5
 50
180.0
 51
270.0
  0
ARC
  8
0
 10
302.145223
 20
164.77
 30
0.0
 40
1.5
 50
90.0
 51
180.0
  0
ARC
  8
0
 10
311.145223
 20
164.77
 30
0.0
 40
1.5
 50
0.0
 51
90.0
  0
ARC
  8
0
 10
311.145223
 20
150.77
 30
0.0
 40
1.5
 50
270.0
 51
0.0
  0
ARC
  8
0
 10
302.145223
 20
150.77
 30
0.0
 40
1.5
 50
180.0
 51
270.0
  0
LINE
  8
DIM
 10
253.65
 20
136.02
 30
0.0
 11
253.65
 21
129.02
 31
0.0
  0
LINE
  8
DIM
 10
300.65
 20
136.02
 30
0.0
 11
300.65
 21
129.02
 31
0.0
  0
LINE
  8
DIM
 10
312.65
 20
136.02
 30
0.0
 11
312.65
 21
129.02
 31
0.0
  0
LINE
  8
DIM
 10
265.65
 20
136.02
 30
0.0
 11
265.65
 21
129.02
 31
0.0
  0
TEXT
  8
DIM
 10
254.645223
 20
120.27
 30
0.0
 40
3.0
  1
182
 50
90.0
  0
TEXT
  8
DIM
 10
267.395223
 20
120.02
 30
0.0
 40
3.0
  1
194
 50
90.0
  0
TEXT
  8
DIM
 10
302.145223
 20
118.77
 30
0.0
 40
3.0
  1
229
 50
90.0
  0
TEXT
  8
DIM
 10
314.395223
 20
119.52
 30
0.0
 40
3.0
  1
241
 50
90.0
  0
LINE
  8
DIM
 10
69.645223
 20
149.27
 30
0.0
 11
62.645223
 21
149.27
 31
0.0
  0
LINE
  8
DIM
 10
69.645223
 20
166.27
 30
0.0
 11
62.645223
 21
166.27
 31
0.0
  0
TEXT
  8
DIM
 10
50.395223
 20
146.27
 30
0.0
 40
3.0
  1
11.25
  0
TEXT
  8
DIM
 10
48.895223
 20
166.27
 30
0.0
 40
3.0
  1
28.25
  0
LINE
  8
DIM
 10
62.645223
 20
166.27
 30
0.0
 11
62.645223
 21
167.77
 31
0.0
  0
LINE
  8
DIM
 10
62.645223
 20
167.77
 30
0.0
 11
61.895223
 21
167.77
 31
0.0
  0
LINE
  8
DIM
 10
62.645223
 20
165.39
 30
0.0
 11
62.645223
 21
164.02
 31
0.0
  0
LINE
  8
DIM
 10
62.645223
 20
164.02
 30
0.0
 11
61.895223
 21
164.02
 31
0.0
  0
LINE
  8
DIM
 10
62.645223
 20
150.15
 30
0.0
 11
62.645223
 21
151.27
 31
0.0
  0
LINE
  8
DIM
 10
62.645223
 20
151.27
 30
0.0
 11
61.645223
 21
151.27
 31
0.0
  0
LINE
  8
DIM
 10
62.645223
 20
149.27
 30
0.0
 11
62.645223
 21
147.52
 31
0.0
  0
LINE
  8
DIM
 10
62.645223
 20
147.52
 30
0.0
 11
61.645223
 21
147.52
 31
0.0
  0
TEXT
  8
DIM
 10
127.395223
 20
195.02
 30
0.0
 40
3.0
  1
INGEN KOMPONENTER
  0
TEXT
  8
DIM
 10
127.395223
 20
106.27
 30
0.0
 40
3.0
  1
INGEN KOMPONENTER
  0
LINE
  8
DIM
 10
124.645223
 20
194.02
 30
0.0
 11
178.145223
 21
194.02
 31
0.0
  0
LINE
  8
DIM
 10
178.145223
 20
194.02
 30
0.0
 11
193.395223
 21
175.27
 31
0.0
  0
LINE
  8
DIM
 10
124.645223
 20
104.27
 30
0.0
 11
178.895223
 21
104.27
 31
0.0
  0
LINE
  8
DIM
 10
178.895223
 20
104.27
 30
0.0
 11
196.145223
 21
141.27
 31
0.0
  0
POLYLINE
  8
0
 66
     1
 10
0.0
 20
0.0
 30
0.0
  0
VERTEX
  8
0
 10
71.645223
 20
138.02
 30
0.0
  0
VERTEX
  8
0
 10
71.645223
 20
177.52
 30
0.0
  0
VERTEX
  8
0
 10
421.645223
 20
177.52
 30
0.0
  0
VERTEX
  8
0
 10
421.645223
 20
138.02
 30
0.0
  0
VERTEX
  8
0
 10
71.645223
 20
138.02
 30
0.0
  0
SEQEND
  8
0
  0
ENDSEC
  0
EOF
