*
G04 Mass Parameters ***
*
G04 Image ***
*
%INF:\PT8619\PCB\PT8619_REMOTE-6.TOP*%
%ICAS*%
%MOIN*%
%IPPOS*%
%ASAXBY*%
G74*%FSLAN2X34Y34*%
*
G04 Aperture Definitions ***
*
%ADD10C,0.0620*%
%ADD11C,0.2360*%
%ADD12C,0.0700*%
%ADD13R,0.0700X0.0700*%
%ADD14C,0.0800*%
%ADD15C,0.1000*%
%ADD16C,0.0550*%
%ADD17C,0.0580*%
%ADD18R,0.0580X0.0580*%
%ADD19C,0.0400*%
%ADD20C,0.0400*%
%ADD21C,0.0080*%
%ADD22C,0.0400*%
*
G04 Plot Data ***
*
G54D21*
G01X0024950Y0011613D02*
X0023450D01*
X0071059Y0008807D02*
X0070526Y0008274D01*
X0069522D01*
X0068939Y0008857D01*
X0090346Y0008661D02*
X0092718Y0011032D01*
X0107678D01*
X0108192Y0011546D01*
X0011219Y0008661D02*
X0011820Y0009262D01*
Y0011613D01*
X0011623Y0011810D01*
X0011172D01*
X0118378Y0008807D02*
Y0008884D01*
X0116230Y0011032D01*
X0108706D01*
X0108192Y0011546D01*
X0071059Y0008807D02*
X0071592Y0008274D01*
X0080365D01*
X0080898Y0008807D01*
X0080638Y0008548D01*
X0080912Y0008274D01*
X0087873D01*
X0088259Y0008661D01*
X0090346D01*
X0011219D02*
X0011820Y0008060D01*
Y0005713D01*
X0007092D01*
X0006889Y0005510D01*
Y0004968D01*
X0025833Y0004724D02*
X0025237Y0005319D01*
X0019307D01*
X0018818Y0004830D01*
X0018321D01*
X0011219Y0008661D02*
X0011820Y0008060D01*
Y0005224D01*
X0012214Y0004830D01*
X0018321D01*
X0027835Y0008807D02*
X0028367Y0008274D01*
X0038965D01*
X0038972Y0008267D01*
X0042145D01*
X0042335Y0008077D01*
Y0007676D01*
X0038972Y0008267D02*
X0042145D01*
X0042335Y0008077D01*
Y0007676D01*
X0056024Y0008799D02*
X0056548Y0008274D01*
X0061663D01*
X0062057Y0008668D01*
X0064618D01*
X0065012Y0008274D01*
X0068356D01*
X0068939Y0008857D01*
X0071059Y0003598D02*
X0071505Y0003152D01*
X0074405D01*
X0075583Y0004330D01*
X0054539Y0007676D02*
Y0008077D01*
X0054342Y0008274D01*
X0050002D01*
X0049995Y0008267D01*
X0060230Y0006692D02*
X0059299D01*
X0059108Y0006501D01*
X0032266D01*
X0032112Y0006655D01*
X0018321Y0006830D02*
X0018853Y0006298D01*
X0019289D01*
X0060230Y0006692D02*
X0061466D01*
X0061854Y0006304D01*
X0071711D01*
X0072302Y0006895D01*
X0098307D01*
X0100104Y0005098D01*
X0106858D01*
X0014219Y0010629D02*
X0029157D01*
X0030921Y0008865D01*
X0053586D01*
X0054374Y0009653D01*
X0066734D01*
X0066922Y0009841D01*
X0071253Y0007873D02*
X0073221D01*
X0091724Y0003346D02*
X0091018D01*
X0090522Y0003841D01*
X0082969D01*
X0080308Y0001181D01*
X0064561Y0009842D02*
X0064570Y0009850D01*
X0065406D01*
Y0009653D01*
X0054374D01*
X0053586Y0008865D01*
X0030921D01*
X0029157Y0010629D01*
X0014219D01*
X0074009Y0005511D02*
X0073817Y0005319D01*
X0065012D01*
X0064224Y0004531D01*
X0056935D01*
X0055753Y0005713D01*
X0027778D01*
X0026202Y0004137D01*
X0022853D01*
Y0004704D01*
X0022833Y0004724D01*
X0074008Y0003936D02*
X0073907Y0004037D01*
X0070529D01*
X0069840Y0003349D01*
X0058511D01*
X0058314Y0003152D01*
X0034082D01*
X0032506Y0001576D01*
X0022853D01*
X0022785Y0001644D01*
Y0002165D01*
X0021258Y0009448D02*
Y0009456D01*
X0014416D01*
X0014219Y0009259D01*
Y0008661D01*
X0081881Y0010235D02*
X0081281Y0010835D01*
X0049152D01*
X0048758Y0010441D01*
X0037351D01*
X0036957Y0010835D01*
Y0012480D01*
X0023423Y0008251D02*
Y0007102D01*
X0023531Y0006993D01*
X0024034D01*
X0035279Y0002098D02*
Y0002758D01*
X0035476Y0002955D01*
X0055556D01*
X0056935Y0001576D01*
X0072826D01*
X0072827Y0001575D01*
X0022923Y0008751D02*
Y0009189D01*
X0022656Y0009456D01*
X0014416D01*
X0014219Y0009259D01*
Y0008661D01*
X0052161Y0007480D02*
X0052196Y0007515D01*
X0053377D01*
X0053539Y0007676D01*
X0077158Y0005905D02*
Y0006304D01*
X0076763Y0006698D01*
X0075060D01*
X0074272Y0005910D01*
X0070471D01*
X0070465Y0005905D01*
X0022785Y0003543D02*
X0022853Y0003611D01*
Y0004704D01*
X0022833Y0004724D01*
Y0000984D02*
X0022853Y0001004D01*
Y0001576D01*
X0022785Y0001644D01*
Y0002165D01*
X0109438Y0007873D02*
X0108945D01*
Y0004925D01*
X0108551Y0004531D01*
X0076563D01*
X0075977Y0005117D01*
X0010889Y0001968D02*
Y0002561D01*
X0011283Y0002955D01*
X0029748D01*
X0030142Y0003349D01*
Y0004728D01*
X0030512Y0005098D01*
X0031279D01*
X0068939Y0003857D02*
X0068516Y0004281D01*
X0032453D01*
X0030930Y0002758D01*
X0025590D01*
X0024801Y0001969D01*
X0079519Y0003543D02*
Y0001504D01*
X0079197Y0001182D01*
X0048028D01*
X0048027Y0001181D01*
X0039957Y0007480D02*
X0039992Y0007515D01*
X0041173D01*
X0041335Y0007676D01*
X0063773Y0008267D02*
X0063584Y0008077D01*
X0058708D01*
X0057329Y0006698D01*
X0035888D01*
X0035279Y0007307D01*
X0041835Y0011507D02*
X0042309Y0011032D01*
X0042899D01*
X0042909Y0011022D01*
X0068939Y0003857D02*
Y0004281D01*
X0068992Y0004334D01*
X0074469D01*
X0075651Y0005516D01*
X0076759D01*
X0076764Y0005511D01*
X0065939Y0006857D02*
X0066371Y0007289D01*
X0083659D01*
X0083850Y0007479D01*
Y0005511D02*
X0083658Y0005319D01*
X0077743D01*
X0077551Y0005511D01*
X0076764Y0001968D02*
X0076634Y0002098D01*
X0063716D01*
X0036957Y0012480D02*
X0013790D01*
X0013396Y0012086D01*
Y0007289D01*
X0013790Y0006895D01*
X0016886D01*
X0017321Y0007330D01*
X0061411Y0007479D02*
Y0007538D01*
X0061269Y0007679D01*
X0061447Y0007857D01*
X0065939D01*
X0086605Y0009841D02*
X0086417Y0009653D01*
X0083531D01*
X0082152Y0011032D01*
X0049555D01*
X0049161Y0011426D01*
Y0012480D01*
X0075584Y0008661D02*
Y0009447D01*
X0075574Y0009456D01*
X0055753D01*
X0055359Y0009062D01*
Y0008077D01*
X0055753Y0007683D01*
X0056497D01*
X0056687Y0007873D01*
X0065939Y0008857D02*
X0065931Y0008865D01*
X0059238D01*
X0059049Y0009054D01*
X0062592Y0006692D02*
X0062598Y0006698D01*
X0064853D01*
X0065012Y0006857D01*
X0065939D01*
X0014172Y0007480D02*
X0014184Y0007492D01*
Y0008626D01*
X0014219Y0008661D01*
X0097039Y0000787D02*
Y0002253D01*
X0096435Y0002856D01*
X0090127D01*
X0089339Y0003644D01*
X0083232D01*
X0080179Y0000591D01*
X0047676D01*
X0047282Y0000985D01*
Y0002364D01*
X0046888Y0002758D01*
X0043539D01*
X0041175Y0000394D01*
X0019683D01*
X0019289Y0000787D01*
X0102341Y0002364D02*
X0100667Y0004038D01*
X0078307D01*
X0077126Y0002857D01*
X0068939D01*
X0118378Y0003598D02*
X0115764Y0000985D01*
X0100371D01*
X0099682Y0000295D01*
X0088650D01*
X0085498Y0003447D01*
X0083331D01*
X0081952Y0002068D01*
Y0001576D01*
X0075189Y0007873D02*
X0075196Y0007880D01*
X0075648D01*
X0075845Y0008077D01*
X0101656D01*
X0103626Y0010047D01*
X0106693D01*
X0107192Y0010546D01*
X0065939Y0005857D02*
X0060725D01*
X0060284Y0006298D01*
X0030312D01*
X0014219Y0010629D02*
X0014184Y0010664D01*
Y0011797D01*
X0014172Y0011810D01*
X0108192Y0008546D02*
Y0008707D01*
X0108350Y0008865D01*
X0108744D01*
X0108945Y0008664D01*
Y0007873D01*
X0109438D01*
G54D10*
X0052161Y0007480D03*
Y0009480D03*
Y0012480D03*
X0049161Y0007480D03*
Y0009480D03*
Y0012480D03*
X0039957Y0007480D03*
Y0009480D03*
Y0012480D03*
X0036957Y0007480D03*
Y0009480D03*
Y0012480D03*
X0098023Y0003543D03*
Y0009443D03*
X0097039Y0000787D03*
X0098039D03*
X0018321Y0004830D03*
X0017321Y0005330D03*
X0018321Y0005830D03*
X0017321Y0006330D03*
X0018321Y0006830D03*
X0017321Y0004330D03*
Y0007330D03*
X0018321Y0007830D03*
X0017321Y0008330D03*
X0018321Y0008830D03*
X0118378Y0003598D03*
X0119378D03*
X0014172Y0007480D03*
X0011172D03*
X0011219Y0008661D03*
X0014219D03*
X0090346D03*
Y0011661D03*
X0091724Y0008661D03*
Y0011661D03*
X0090346Y0006299D03*
Y0003299D03*
X0091724Y0003346D03*
Y0006346D03*
X0025833Y0004724D03*
X0022833D03*
X0022785Y0003543D03*
X0025785D03*
Y0002165D03*
X0022785D03*
X0022833Y0000984D03*
X0025833D03*
X0011172Y0011810D03*
X0014172D03*
X0014219Y0010629D03*
X0011219D03*
X0118378Y0008807D03*
X0119378D03*
X0051964Y0004724D03*
Y0001724D03*
X0053145Y0004724D03*
Y0001724D03*
X0040548Y0004724D03*
Y0001724D03*
X0041729Y0004724D03*
Y0001724D03*
X0103449Y0003598D03*
X0104449D03*
X0071059D03*
X0072059D03*
X0071059Y0008807D03*
X0072059D03*
X0027835D03*
X0028835D03*
X0027858Y0003598D03*
X0028858D03*
X0056024D03*
X0057024D03*
X0056024Y0008799D03*
X0057024D03*
X0080898Y0008807D03*
X0081898D03*
X0080898Y0003598D03*
X0081898D03*
G54D11*
X0121260Y0011811D03*
Y0001378D03*
X0084642Y0011811D03*
Y0001378D03*
X0045275Y0011811D03*
Y0001378D03*
X0001968Y0011811D03*
Y0001378D03*
G54D12*
X0110858Y0005098D03*
Y0002098D03*
X0106858Y0005098D03*
Y0002098D03*
X0035279Y0010307D03*
Y0007307D03*
X0031279Y0010307D03*
Y0007307D03*
X0035279Y0005098D03*
Y0002098D03*
X0031279Y0005098D03*
Y0002098D03*
X0063716Y0005098D03*
Y0002098D03*
X0059716Y0005098D03*
Y0002098D03*
X0063716Y0010307D03*
Y0007307D03*
X0059716Y0010307D03*
Y0007307D03*
X0010889Y0004968D03*
Y0001968D03*
X0006889Y0004968D03*
Y0001968D03*
X0107192Y0011546D03*
X0108192Y0010546D03*
X0107192Y0007546D03*
X0108192D03*
Y0008546D03*
X0107192D03*
Y0009546D03*
X0108192D03*
X0107192Y0010546D03*
G54D13*
X0108192Y0011546D03*
G54D14*
X0018041Y0003770D03*
G54D15*
X0027950Y0011613D03*
X0026450D03*
X0024950D03*
X0023450D03*
G54D16*
X0023423Y0009251D03*
X0022923Y0008751D03*
X0023423Y0008251D03*
X0053539Y0012007D03*
X0054039Y0011507D03*
X0054539Y0012007D03*
X0053539Y0007676D03*
X0054039Y0007176D03*
X0054539Y0007676D03*
X0041335Y0012007D03*
X0041835Y0011507D03*
X0042335Y0012007D03*
X0041335Y0007676D03*
X0041835Y0007176D03*
X0042335Y0007676D03*
G54D17*
X0065939Y0007857D03*
Y0006857D03*
Y0005857D03*
Y0004857D03*
Y0003857D03*
Y0002857D03*
X0068939D03*
Y0003857D03*
Y0004857D03*
Y0005857D03*
Y0006857D03*
Y0007857D03*
Y0008857D03*
G54D18*
X0065939D03*
G54D19*
X0019289Y0006298D03*
G54D22*
X0038972Y0008267D03*
X0075583Y0004330D03*
X0049995Y0008267D03*
X0032112Y0006655D03*
X0060230Y0006692D03*
X0066922Y0009841D03*
X0071253Y0007873D03*
X0073221D03*
X0080308Y0001181D03*
X0064561Y0009842D03*
X0074009Y0005511D03*
X0074008Y0003936D03*
X0021258Y0009448D03*
X0081881Y0010235D03*
X0024034Y0006993D03*
X0072827Y0001575D03*
X0077158Y0005905D03*
X0070465D03*
X0109438Y0007873D03*
X0075977Y0005117D03*
X0024801Y0001969D03*
X0079519Y0003543D03*
X0048027Y0001181D03*
X0063773Y0008267D03*
X0042909Y0011022D03*
X0076764Y0005511D03*
X0083850Y0007479D03*
Y0005511D03*
X0077551D03*
X0076764Y0001968D03*
X0061411Y0007479D03*
X0086605Y0009841D03*
X0075584Y0008661D03*
X0056687Y0007873D03*
X0059049Y0009054D03*
X0062592Y0006692D03*
X0019289Y0000787D03*
X0102341Y0002364D03*
X0081952Y0001576D03*
X0075189Y0007873D03*
X0030312Y0006298D03*
M02*
