  0
SECTION
  2
HEADER
  9
$ACADVER
  1
AC1015
  9
$ACADMAINTVER
 70
     6
  9
$DWGCODEPAGE
  3
ANSI_1252
  9
$INSBASE
 10
0.0
 20
0.0
 30
0.0
  9
$EXTMIN
 10
37.1895201353891
 20
26.32104564402379
 30
-0.0000061030499708
  9
$EXTMAX
 10
190.0338350942394
 20
96.31562850963746
 30
0.0000091555062788
  9
$LIMMIN
 10
0.0
 20
0.0
  9
$LIMMAX
 10
420.0
 20
297.0
  9
$ORTHOMODE
 70
     0
  9
$REGENMODE
 70
     1
  9
$FILLMODE
 70
     1
  9
$QTEXTMODE
 70
     0
  9
$MIRRTEXT
 70
     1
  9
$LTSCALE
 40
1.0
  9
$ATTMODE
 70
     2
  9
$TEXTSIZE
 40
2.0
  9
$TRACEWID
 40
0.05
  9
$TEXTSTYLE
  7
ariab
  9
$CLAYER
  8
README
  9
$CELTYPE
  6
ByLayer
  9
$CECOLOR
 62
   256
  9
$CELTSCALE
 40
1.0
  9
$DISPSILH
 70
     0
  9
$DIMSCALE
 40
1.0
  9
$DIMASZ
 40
3.5
  9
$DIMEXO
 40
1.0
  9
$DIMDLI
 40
5.0
  9
$DIMRND
 40
0.0
  9
$DIMDLE
 40
0.0
  9
$DIMEXE
 40
1.0
  9
$DIMTP
 40
0.0
  9
$DIMTM
 40
0.0
  9
$DIMTXT
 40
3.0
  9
$DIMCEN
 40
0.09
  9
$DIMTSZ
 40
0.0
  9
$DIMTOL
 70
     0
  9
$DIMLIM
 70
     0
  9
$DIMTIH
 70
     0
  9
$DIMTOH
 70
     0
  9
$DIMSE1
 70
     0
  9
$DIMSE2
 70
     0
  9
$DIMTAD
 70
     1
  9
$DIMZIN
 70
     0
  9
$DIMBLK
  1

  9
$DIMASO
 70
     1
  9
$DIMSHO
 70
     0
  9
$DIMPOST
  1

  9
$DIMAPOST
  1

  9
$DIMALT
 70
     0
  9
$DIMALTD
 70
     2
  9
$DIMALTF
 40
25.4
  9
$DIMLFAC
 40
1.0
  9
$DIMTOFL
 70
     0
  9
$DIMTVP
 40
0.0
  9
$DIMTIX
 70
     1
  9
$DIMSOXD
 70
     0
  9
$DIMSAH
 70
     0
  9
$DIMBLK1
  1

  9
$DIMBLK2
  1

  9
$DIMSTYLE
  2
Standard
  9
$DIMCLRD
 70
     0
  9
$DIMCLRE
 70
     0
  9
$DIMCLRT
 70
     0
  9
$DIMTFAC
 40
1.0
  9
$DIMGAP
 40
0.09
  9
$DIMJUST
 70
     0
  9
$DIMSD1
 70
     0
  9
$DIMSD2
 70
     0
  9
$DIMTOLJ
 70
     1
  9
$DIMTZIN
 70
     0
  9
$DIMALTZ
 70
     0
  9
$DIMALTTZ
 70
     0
  9
$DIMUPT
 70
     0
  9
$DIMDEC
 70
     2
  9
$DIMTDEC
 70
     2
  9
$DIMALTU
 70
     2
  9
$DIMALTTD
 70
     2
  9
$DIMTXSTY
  7
STANDARD
  9
$DIMAUNIT
 70
     0
  9
$DIMADEC
 70
     0
  9
$DIMALTRND
 40
0.0
  9
$DIMAZIN
 70
     0
  9
$DIMDSEP
 70
    46
  9
$DIMATFIT
 70
     3
  9
$DIMFRAC
 70
     0
  9
$DIMLDRBLK
  1

  9
$DIMLUNIT
 70
     2
  9
$DIMLWD
 70
    -2
  9
$DIMLWE
 70
    -2
  9
$DIMTMOVE
 70
     2
  9
$LUNITS
 70
     2
  9
$LUPREC
 70
     2
  9
$SKETCHINC
 40
0.1
  9
$FILLETRAD
 40
1.0
  9
$AUNITS
 70
     0
  9
$AUPREC
 70
     0
  9
$MENU
  1
acad
  9
$ELEVATION
 40
0.0
  9
$PELEVATION
 40
0.0
  9
$THICKNESS
 40
0.0
  9
$LIMCHECK
 70
     0
  9
$CHAMFERA
 40
5.5
  9
$CHAMFERB
 40
5.5
  9
$CHAMFERC
 40
0.0
  9
$CHAMFERD
 40
0.0
  9
$SKPOLY
 70
     0
  9
$TDCREATE
 40
2451009.525530323
  9
$TDUCREATE
 40
2451009.442196991
  9
$TDUPDATE
 40
2451711.591862639
  9
$TDUUPDATE
 40
2451711.508529305
  9
$TDINDWG
 40
0.3364094329
  9
$TDUSRTIMER
 40
0.3364092014
  9
$USRTIMER
 70
     1
  9
$ANGBASE
 50
0.0
  9
$ANGDIR
 70
     0
  9
$PDMODE
 70
     0
  9
$PDSIZE
 40
0.0
  9
$PLINEWID
 40
0.0
  9
$SPLFRAME
 70
     0
  9
$SPLINETYPE
 70
     6
  9
$SPLINESEGS
 70
     8
  9
$HANDSEED
  5
E54
  9
$SURFTAB1
 70
     6
  9
$SURFTAB2
 70
     6
  9
$SURFTYPE
 70
     6
  9
$SURFU
 70
     6
  9
$SURFV
 70
     6
  9
$UCSBASE
  2

  9
$UCSNAME
  2

  9
$UCSORG
 10
0.0
 20
0.0
 30
0.0
  9
$UCSXDIR
 10
1.0
 20
0.0
 30
0.0
  9
$UCSYDIR
 10
0.0
 20
1.0
 30
0.0
  9
$UCSORTHOREF
  2

  9
$UCSORTHOVIEW
 70
     0
  9
$UCSORGTOP
 10
0.0
 20
0.0
 30
0.0
  9
$UCSORGBOTTOM
 10
0.0
 20
0.0
 30
0.0
  9
$UCSORGLEFT
 10
0.0
 20
0.0
 30
0.0
  9
$UCSORGRIGHT
 10
0.0
 20
0.0
 30
0.0
  9
$UCSORGFRONT
 10
0.0
 20
0.0
 30
0.0
  9
$UCSORGBACK
 10
0.0
 20
0.0
 30
0.0
  9
$PUCSBASE
  2

  9
$PUCSNAME
  2

  9
$PUCSORG
 10
0.0
 20
0.0
 30
0.0
  9
$PUCSXDIR
 10
1.0
 20
0.0
 30
0.0
  9
$PUCSYDIR
 10
0.0
 20
1.0
 30
0.0
  9
$PUCSORTHOREF
  2

  9
$PUCSORTHOVIEW
 70
     0
  9
$PUCSORGTOP
 10
0.0
 20
0.0
 30
0.0
  9
$PUCSORGBOTTOM
 10
0.0
 20
0.0
 30
0.0
  9
$PUCSORGLEFT
 10
0.0
 20
0.0
 30
0.0
  9
$PUCSORGRIGHT
 10
0.0
 20
0.0
 30
0.0
  9
$PUCSORGFRONT
 10
0.0
 20
0.0
 30
0.0
  9
$PUCSORGBACK
 10
0.0
 20
0.0
 30
0.0
  9
$USERI1
 70
     0
  9
$USERI2
 70
     0
  9
$USERI3
 70
     0
  9
$USERI4
 70
     0
  9
$USERI5
 70
     0
  9
$USERR1
 40
0.0
  9
$USERR2
 40
0.0
  9
$USERR3
 40
0.0
  9
$USERR4
 40
0.0
  9
$USERR5
 40
0.0
  9
$WORLDVIEW
 70
     1
  9
$SHADEDGE
 70
     3
  9
$SHADEDIF
 70
    70
  9
$TILEMODE
 70
     1
  9
$MAXACTVP
 70
    16
  9
$PINSBASE
 10
0.0
 20
0.0
 30
0.0
  9
$PLIMCHECK
 70
     0
  9
$PEXTMIN
 10
1.000000000000000E+20
 20
1.000000000000000E+20
 30
1.000000000000000E+20
  9
$PEXTMAX
 10
-1.000000000000000E+20
 20
-1.000000000000000E+20
 30
-1.000000000000000E+20
  9
$PLIMMIN
 10
0.0
 20
0.0
  9
$PLIMMAX
 10
12.0
 20
9.0
  9
$UNITMODE
 70
     0
  9
$VISRETAIN
 70
     0
  9
$PLINEGEN
 70
     0
  9
$PSLTSCALE
 70
     0
  9
$TREEDEPTH
 70
  3020
  9
$CMLSTYLE
  2
Standard
  9
$CMLJUST
 70
     0
  9
$CMLSCALE
 40
1.0
  9
$PROXYGRAPHICS
 70
     1
  9
$MEASUREMENT
 70
     0
  9
$CELWEIGHT
370
    -1
  9
$ENDCAPS
280
     0
  9
$JOINSTYLE
280
     0
  9
$LWDISPLAY
290
     0
  9
$INSUNITS
 70
     0
  9
$HYPERLINKBASE
  1

  9
$STYLESHEET
  1
kabler.ctb
  9
$XEDIT
290
     1
  9
$CEPSNTYPE
380
     0
  9
$PSTYLEMODE
290
     1
  9
$FINGERPRINTGUID
  2
{CFE13F40-D26A-11D3-9599-0050043D34BD}
  9
$VERSIONGUID
  2
{E2830BE3-42B4-11D4-95F6-0050043D34BD}
  9
$EXTNAMES
290
     1
  9
$PSVPSCALE
 40
0.0
  9
$OLESTARTUP
290
     0
  0
ENDSEC
  0
SECTION
  2
CLASSES
  0
CLASS
  1
ACDBDICTIONARYWDFLT
  2
AcDbDictionaryWithDefault
  3
AutoCAD 2000
 90
        0
280
     0
281
     0
  0
CLASS
  1
ACDBPLACEHOLDER
  2
AcDbPlaceHolder
  3
AutoCAD 2000
 90
        0
280
     0
281
     0
  0
CLASS
  1
LAYOUT
  2
AcDbLayout
  3
AutoCAD 2000
 90
        0
280
     0
281
     0
  0
CLASS
  1
DICTIONARYVAR
  2
AcDbDictionaryVar
  3
AutoCAD 2000
 90
        0
280
     0
281
     0
  0
ENDSEC
  0
SECTION
  2
TABLES
  0
TABLE
  2
VPORT
  5
8
330
0
100
AcDbSymbolTable
 70
     2
  0
VPORT
  5
E53
330
8
100
AcDbSymbolTableRecord
100
AcDbViewportTableRecord
  2
*Active
 70
     0
 10
0.0
 20
0.0
 11
1.0
 21
1.0
 12
113.6116776148142
 22
61.31833707683062
 13
0.0
 23
0.0
 14
1.0
 24
1.0
 15
0.0
 25
0.0
 16
0.0
 26
0.0
 36
1.0
 17
0.0
 27
0.0
 37
0.0
 40
96.34932268227412
 41
1.6
 42
50.0
 43
0.0
 44
0.0
 50
0.0
 51
0.0
 71
     0
 72
   100
 73
     1
 74
     1
 75
     0
 76
     0
 77
     0
 78
     1
281
     0
 65
     1
110
0.0
120
0.0
130
0.0
111
1.0
121
0.0
131
0.0
112
0.0
122
1.0
132
0.0
 79
     0
146
0.0
  0
ENDTAB
  0
TABLE
  2
LTYPE
  5
5
330
0
100
AcDbSymbolTable
 70
     2
  0
LTYPE
  5
13
330
5
100
AcDbSymbolTableRecord
100
AcDbLinetypeTableRecord
  2
ByBlock
 70
     0
  3

 72
    65
 73
     0
 40
0.0
  0
LTYPE
  5
14
330
5
100
AcDbSymbolTableRecord
100
AcDbLinetypeTableRecord
  2
ByLayer
 70
     0
  3

 72
    65
 73
     0
 40
0.0
  0
LTYPE
  5
15
330
5
100
AcDbSymbolTableRecord
100
AcDbLinetypeTableRecord
  2
CONTINUOUS
 70
     0
  3
Solid line
 72
    65
 73
     0
 40
0.0
  0
LTYPE
  5
2F
330
5
100
AcDbSymbolTableRecord
100
AcDbLinetypeTableRecord
  2
CENTER
 70
     0
  3
____ _ ____ _ ____ _ ____ _ ____ _ ____ _ ____
 72
    65
 73
     4
 40
2.0
 49
1.25
 74
     0
 49
-0.25
 74
     0
 49
0.25
 74
     0
 49
-0.25
 74
     0
  0
ENDTAB
  0
TABLE
  2
LAYER
  5
2
330
0
100
AcDbSymbolTable
 70
     6
  0
LAYER
  5
10
330
2
100
AcDbSymbolTableRecord
100
AcDbLayerTableRecord
  2
0
 70
     0
 62
     7
  6
CONTINUOUS
370
    -3
390
F
  0
LAYER
  5
34
330
2
100
AcDbSymbolTableRecord
100
AcDbLayerTableRecord
  2
115-1T
 70
     0
 62
     7
  6
CONTINUOUS
370
    -3
390
F
  0
LAYER
  5
35
330
2
100
AcDbSymbolTableRecord
100
AcDbLayerTableRecord
  2
110-1MEK
 70
     0
 62
     3
  6
CONTINUOUS
370
    -3
390
F
  0
LAYER
  5
37
330
2
100
AcDbSymbolTableRecord
100
AcDbLayerTableRecord
  2
110-1
 70
     1
 62
   -10
  6
CONTINUOUS
370
    -3
390
F
  0
LAYER
  5
38
330
2
100
AcDbSymbolTableRecord
100
AcDbLayerTableRecord
  2
115
 70
     1
 62
    -7
  6
CONTINUOUS
370
    -3
390
F
  0
LAYER
  5
39
330
2
100
AcDbSymbolTableRecord
100
AcDbLayerTableRecord
  2
README
 70
     0
 62
    10
  6
CONTINUOUS
370
    -3
390
F
  0
ENDTAB
  0
TABLE
  2
STYLE
  5
3
330
0
100
AcDbSymbolTable
 70
     2
  0
STYLE
  5
11
330
3
100
AcDbSymbolTableRecord
100
AcDbTextStyleTableRecord
  2
STANDARD
 70
     0
 40
0.0
 41
1.0
 50
0.0
 71
     0
 42
2.0
  3
ARIAL.TTF
  4

1001
ACAD
1000
Arial
1071
       34
  0
STYLE
  5
2C
330
3
100
AcDbSymbolTableRecord
100
AcDbTextStyleTableRecord
  2
ariab
 70
     0
 40
0.0
 41
1.0
 50
0.0
 71
     0
 42
2.0
  3
ARIAB___.TTF
  4

1001
ACAD
1000
Arial MT
1071
 33554466
  0
ENDTAB
  0
TABLE
  2
VIEW
  5
6
330
0
100
AcDbSymbolTable
 70
     1
  0
VIEW
  5
30
330
6
100
AcDbSymbolTableRecord
100
AcDbViewTableRecord
  2
OLE1
 70
     0
 40
297.0
 10
246.254716981132
 20
148.5
 41
492.509433962264
 11
0.0
 21
0.0
 31
1.0
 12
0.0
 22
0.0
 32
0.0
 42
50.0
 43
0.0
 44
0.0
 50
0.0
 71
     0
281
     0
 72
     0
  0
ENDTAB
  0
TABLE
  2
UCS
  5
7
330
0
100
AcDbSymbolTable
 70
     0
  0
ENDTAB
  0
TABLE
  2
APPID
  5
9
330
0
100
AcDbSymbolTable
 70
     1
  0
APPID
  5
12
330
9
100
AcDbSymbolTableRecord
100
AcDbRegAppTableRecord
  2
ACAD
 70
     0
  0
ENDTAB
  0
TABLE
  2
DIMSTYLE
  5
A
330
0
100
AcDbSymbolTable
 70
     1
100
AcDbDimStyleTable
 71
     0
  0
DIMSTYLE
105
87D
330
A
100
AcDbSymbolTableRecord
100
AcDbDimStyleTableRecord
  2
Standard
 70
     0
340
11
  0
ENDTAB
  0
TABLE
  2
BLOCK_RECORD
  5
1
330
0
100
AcDbSymbolTable
 70
     5
  0
BLOCK_RECORD
  5
1E
330
1
100
AcDbSymbolTableRecord
100
AcDbBlockTableRecord
  2
*Model_Space
340
21
  0
BLOCK_RECORD
  5
1A
330
1
100
AcDbSymbolTableRecord
100
AcDbBlockTableRecord
  2
*Paper_Space
340
1D
  0
BLOCK_RECORD
  5
26
330
1
100
AcDbSymbolTableRecord
100
AcDbBlockTableRecord
  2
6
340
0
310
2800000020000000200000000100080000000000000400000000000000000000000000000000000000000000000080000080000000808000800000008000800080800000C0C0C000C0DCC000F0CAA6000020400000206000002080000020A0000020C0000020E00000400000004020000040400000406000004080000040A0
310
000040C0000040E00000600000006020000060400000606000006080000060A0000060C0000060E00000800000008020000080400000806000008080000080A0000080C0000080E00000A0000000A0200000A0400000A0600000A0800000A0A00000A0C00000A0E00000C0000000C0200000C0400000C0600000C0800000C0
310
A00000C0C00000C0E00000E0000000E0200000E0400000E0600000E0800000E0A00000E0C00000E0E00040000000400020004000400040006000400080004000A0004000C0004000E00040200000402020004020400040206000402080004020A0004020C0004020E000404000004040200040404000404060004040800040
310
40A0004040C0004040E00040600000406020004060400040606000406080004060A0004060C0004060E00040800000408020004080400040806000408080004080A0004080C0004080E00040A0000040A0200040A0400040A0600040A0800040A0A00040A0C00040A0E00040C0000040C0200040C0400040C0600040C08000
310
40C0A00040C0C00040C0E00040E0000040E0200040E0400040E0600040E0800040E0A00040E0C00040E0E00080000000800020008000400080006000800080008000A0008000C0008000E00080200000802020008020400080206000802080008020A0008020C0008020E00080400000804020008040400080406000804080
310
008040A0008040C0008040E00080600000806020008060400080606000806080008060A0008060C0008060E00080800000808020008080400080806000808080008080A0008080C0008080E00080A0000080A0200080A0400080A0600080A0800080A0A00080A0C00080A0E00080C0000080C0200080C0400080C0600080C0
310
800080C0A00080C0C00080C0E00080E0000080E0200080E0400080E0600080E0800080E0A00080E0C00080E0E000C0000000C0002000C0004000C0006000C0008000C000A000C000C000C000E000C0200000C0202000C0204000C0206000C0208000C020A000C020C000C020E000C0400000C0402000C0404000C0406000C0
310
408000C040A000C040C000C040E000C0600000C0602000C0604000C0606000C0608000C060A000C060C000C060E000C0800000C0802000C0804000C0806000C0808000C080A000C080C000C080E000C0A00000C0A02000C0A04000C0A06000C0A08000C0A0A000C0A0C000C0A0E000C0C00000C0C02000C0C04000C0C06000
310
C0C08000C0C0A000F0FBFF00A4A0A000808080000000FF0000FF000000FFFF00FF000000FF00FF00FFFF0000FFFFFF00FFFFFFFFFFFFFFFFFFFFFFFFFFFFFFFFFFFFFFFFFFFFFFFFFFFFFFFFFFFFFFFFFFFFFFFFFFFFFFFFFFFFFFFFFFFFFFFFFFFFFFFFFFFFFFFFFFFFFFFFFF0000FFFFFFFFFFFFFFFFFFFFFFFFFFFFFFFF
310
FFFFFFFFFFFFFFFFFFFFFFFFFFFF0000FFFFFFFFFFFFFFFFFFFFFFFFFFFFFFFFFFFFFFFFFFFFFFFFFFFFFFFFFFFF0000FFFFFFFFFFFFFFFFFFFFFFFFFFFFFFFFFFFFFFFFFFFFFFFFFFFFFFFFFFFF0000FFFFFFFFFFFFFFFFFFFFFFFFFFFFFFFFFFFFFFFFFFFFFFFFFFFFFFFFFFFF0000FFFFFFFFFFFFFFFFFFFFFFFFFFFFFF
310
FFFFFFFFFFFFFFFFFFFFFFFFFFFFFF0000FFFFFFFFFFFFFFFFFFFFFFFFFFFFFFFFFFFFFFFFFFFFFFFFFFFFFFFFFFFF0000FFFFFFFFFFFFFFFFFFFFFFFFFFFFFFFFFFFFFFFFFFFFFFFFFFFFFFFFFFFF0000FFFFFFFFFFFFFFFFFFFFFFFFFFFFFFFFFFFFFFFFFFFFFFFFFFFFFFFFFFFF0000FFFFFFFFFFFFFFFFFFFFFFFFFFFF
310
FFFFFFFFFFFFFFFFFFFFFFFFFFFFFFFF0000FFFFFFFFFFFFFFFFFFFFFFFFFFFFFFFFFFFFFFFFFFFFFFFFFFFFFFFFFFFF0000FFFFFFFFFFFFFFFFFFFFFFFFFFFFFFFFFFFFFFFFFFFFFFFFFFFFFFFFFFFF0000FFFFFFFFFFFFFFFFFFFFFFFFFFFFFFFFFFFFFFFFFFFFFFFFFFFFFFFFFFFF0000FFFFFFFFFFFFFFFFFFFFFFFFFF
310
FFFFFFFFFFFFFFFFFFFFFFFFFFFFFFFFFF0000FFFFFFFFFFFFFFFFFFFFFFFFFFFFFFFFFFFFFFFFFFFFFFFFFFFFFFFFFFFF0000FFFFFFFFFFFFFFFFFFFFFFFFFFFFFFFFFFFFFFFFFFFFFFFFFFFFFFFFFFFF0000FFFFFFFFFFFFFFFFFFFFFFFFFFFFFFFFFFFFFFFFFFFFFFFFFFFFFFFFFFFF0000FFFFFFFFFFFFFFFFFFFFFFFF
310
FFFFFFFFFFFFFFFFFFFFFFFFFFFFFFFFFFFF0000FFFFFFFFFFFFFFFFFFFFFFFFFFFFFFFFFFFFFFFFFFFFFFFFFFFFFFFFFFFF0000FFFFFFFFFFFFFFFFFFFFFFFFFFFFFFFFFFFFFFFFFFFFFFFFFFFFFFFFFFFF0000FFFFFFFFFFFFFFFFFFFFFFFFFFFFFFFFFFFFFFFFFFFFFFFFFFFFFFFFFFFF0000FFFFFFFFFFFFFFFFFFFFFF
310
FFFFFFFFFFFFFFFFFFFFFFFFFFFFFFFFFFFFFF0000FFFFFFFFFFFFFFFFFFFFFFFFFFFFFFFFFFFFFFFFFFFFFFFFFFFFFFFFFFFF0000FFFFFFFFFFFFFFFFFFFFFFFFFFFFFFFFFFFFFFFFFFFFFFFFFFFFFFFFFFFF0000FFFFFFFFFFFFFFFFFFFFFFFFFFFFFFFFFFFFFFFFFFFFFFFFFFFFFFFFFFFFFFFFFFFFFFFFFFFFFFFFFFFF
310
FFFFFFFFFFFFFFFFFFFFFFFFFFFFFFFFFFFFFFFFFFFFFFFFFFFFFFFFFFFFFFFFFFFFFFFFFFFFFFFFFFFFFFFFFFFFFFFFFFFFFFFFFFFFFFFFFFFFFFFFFFFFFFFFFFFFFFFFFFFFFFFFFFFFFFFFFFFFFFFFFFFFFFFFFFFFFFFF000000000000000000000000000000000000000000000000FFFFFFFFFFFFFFFF00000000000000
310
0000000000000000000000000000000000FFFFFFFFFFFFFFFFFFFFFFFFFFFFFFFFFFFFFFFFFFFFFFFFFFFFFFFFFFFFFFFFFFFFFFFFFFFFFF
102
{BLKREFS
331
1CC
331
1CD
331
1CE
331
27B
331
27D
331
8F6
331
912
331
913
331
914
331
95C
331
95E
331
978
331
977
331
976
331
9C2
331
9C4
331
DEA
331
DEC
331
DA0
331
D9E
331
D9F
331
E04
331
E03
331
E02
331
E4E
331
E50
102
}
  0
BLOCK_RECORD
  5
27
330
1
100
AcDbSymbolTableRecord
100
AcDbBlockTableRecord
  2
1
340
0
310
2800000020000000200000000100080000000000000400000000000000000000000000000000000000000000000080000080000000808000800000008000800080800000C0C0C000C0DCC000F0CAA6000020400000206000002080000020A0000020C0000020E00000400000004020000040400000406000004080000040A0
310
000040C0000040E00000600000006020000060400000606000006080000060A0000060C0000060E00000800000008020000080400000806000008080000080A0000080C0000080E00000A0000000A0200000A0400000A0600000A0800000A0A00000A0C00000A0E00000C0000000C0200000C0400000C0600000C0800000C0
310
A00000C0C00000C0E00000E0000000E0200000E0400000E0600000E0800000E0A00000E0C00000E0E00040000000400020004000400040006000400080004000A0004000C0004000E00040200000402020004020400040206000402080004020A0004020C0004020E000404000004040200040404000404060004040800040
310
40A0004040C0004040E00040600000406020004060400040606000406080004060A0004060C0004060E00040800000408020004080400040806000408080004080A0004080C0004080E00040A0000040A0200040A0400040A0600040A0800040A0A00040A0C00040A0E00040C0000040C0200040C0400040C0600040C08000
310
40C0A00040C0C00040C0E00040E0000040E0200040E0400040E0600040E0800040E0A00040E0C00040E0E00080000000800020008000400080006000800080008000A0008000C0008000E00080200000802020008020400080206000802080008020A0008020C0008020E00080400000804020008040400080406000804080
310
008040A0008040C0008040E00080600000806020008060400080606000806080008060A0008060C0008060E00080800000808020008080400080806000808080008080A0008080C0008080E00080A0000080A0200080A0400080A0600080A0800080A0A00080A0C00080A0E00080C0000080C0200080C0400080C0600080C0
310
800080C0A00080C0C00080C0E00080E0000080E0200080E0400080E0600080E0800080E0A00080E0C00080E0E000C0000000C0002000C0004000C0006000C0008000C000A000C000C000C000E000C0200000C0202000C0204000C0206000C0208000C020A000C020C000C020E000C0400000C0402000C0404000C0406000C0
310
408000C040A000C040C000C040E000C0600000C0602000C0604000C0606000C0608000C060A000C060C000C060E000C0800000C0802000C0804000C0806000C0808000C080A000C080C000C080E000C0A00000C0A02000C0A04000C0A06000C0A08000C0A0A000C0A0C000C0A0E000C0C00000C0C02000C0C04000C0C06000
310
C0C08000C0C0A000F0FBFF00A4A0A000808080000000FF0000FF000000FFFF00FF000000FF00FF00FFFF0000FFFFFF00FFFFFFFFFFFFFFFFFFFFFFFFFFFFFFFFFFFFFFFFFFFFFFFFFFFFFFFFFFFFFFFFFFFFFFFFFFFFFFFFFFFFFFFFFFFFFFFF00FFFFFFFFFFFFFFFFFFFFFFFFFFFFFFFFFFFFFFFFFFFFFFFFFFFFFFFF00FF
310
00FF00FFFFFFFFFFFFFFFFFFFFFFFFFFFFFFFFFFFFFFFFFFFFFFFFFFFF00FF00FF00FF00FFFFFFFFFFFFFFFFFFFFFFFFFFFFFFFFFFFFFFFFFFFFFFFF00FFFFFF00FF00FF00FFFFFFFFFFFFFFFFFFFFFFFFFFFFFFFFFFFFFFFFFFFF00FFFFFFFFFF00FF00FF00FFFFFFFFFFFFFFFFFFFFFFFFFFFFFFFFFFFFFFFF00FFFFFFFF
310
FFFFFF00FF00FF00FFFFFFFFFFFFFFFFFFFFFFFFFFFFFFFFFFFF00FFFFFFFFFFFFFFFFFF00FF00FF00FFFFFFFFFFFFFFFFFFFFFFFFFFFFFFFF00FFFFFFFFFFFFFFFFFF00FFFFFF00FF00FFFFFFFFFFFFFFFFFFFFFFFFFFFF00FFFFFFFFFFFFFFFFFF00FF00FFFFFF00FF00FFFFFFFFFFFFFFFFFFFFFFFF00FFFFFFFFFFFFFF
310
FFFF00FF00FF00FFFFFF00FF00FFFFFFFFFFFFFFFFFFFF00FFFFFFFFFFFFFFFFFF00FF00FFFFFF00FFFFFF00FF00FFFFFFFFFFFFFFFF00FFFFFFFFFFFFFFFFFF00FF00FFFFFFFFFF00FFFFFF00FF00FFFFFFFFFFFF00FFFFFFFFFFFFFFFFFF00FF00FFFFFFFFFFFFFF00FF00FF00FF00FFFFFFFFFFFF00FFFFFFFFFFFFFF00
310
FF00FF00FFFFFFFFFF00FF00FF00FF00FF00FFFFFFFF00FF00FFFFFFFFFF00FF00FF00FF00FFFFFF00FF00FFFFFF00FF00FF00FFFF00FF00FF00FFFFFF00FF00FFFFFF00FF00FF00FF00FFFFFFFFFF00FF00FFFFFFFF00FF00FF00FF00FF00FFFFFFFFFF00FF00FF00FFFFFFFFFFFFFF00FFFFFFFFFFFF00FF00FF00FF00FF
310
FFFFFFFFFFFF00FF00FFFFFFFFFFFFFFFFFF00FFFFFFFFFFFF00FF00FFFFFF00FFFFFFFFFF00FF00FFFFFFFFFFFFFFFFFF00FFFFFFFFFFFFFFFF00FF00FFFFFF00FFFFFF00FF00FFFFFFFFFFFFFFFFFF00FFFFFFFFFFFFFFFFFFFF00FF00FFFFFF00FF00FF00FFFFFFFFFFFFFFFFFF00FFFFFFFFFFFFFFFFFFFFFFFF00FF00
310
FFFFFF00FF00FFFFFFFFFFFFFFFFFF00FFFFFFFFFFFFFFFFFFFFFFFFFFFF00FF00FFFFFF00FFFFFFFFFFFFFFFFFF00FFFFFFFFFFFFFFFFFFFFFFFFFFFFFFFF00FF00FF00FFFFFFFFFFFFFFFFFF00FFFFFFFFFFFFFFFFFFFFFFFFFFFFFFFFFFFF00FF00FF00FFFFFFFFFFFFFF00FFFFFFFFFFFFFFFFFFFFFFFFFFFFFFFFFFFF
310
FFFF00FF00FF00FFFFFFFFFF00FFFFFFFFFFFFFFFFFFFFFFFFFFFFFFFFFFFFFFFFFFFF00FF00FF00FFFFFF00FFFFFFFFFFFFFFFFFFFFFFFFFFFFFFFFFFFFFFFFFFFFFFFF00FF00FF00FF00FFFFFFFFFFFFFFFFFFFFFFFFFFFFFFFFFFFFFFFFFFFFFFFFFFFF00FF00FF00FFFFFFFFFFFFFFFFFFFFFFFFFFFFFFFFFFFFFFFFFF
310
FFFFFFFFFFFFFF00FFFFFFFFFFFFFFFFFFFFFFFFFFFFFFFFFFFFFFFFFFFFFFFFFFFFFFFFFFFFFFFFFFFFFFFFFFFFFFFFFFFFFFFFFFFFFFFF
102
{BLKREFS
331
1CF
331
239
331
27C
331
8E9
331
915
331
945
331
95D
331
979
331
9A9
331
9C3
331
DEB
331
DD1
331
DA1
331
E05
331
E35
331
E4F
102
}
  0
BLOCK_RECORD
  5
28
330
1
100
AcDbSymbolTableRecord
100
AcDbBlockTableRecord
  2
0
340
0
102
{BLKREFS
331
1A5
331
1AA
331
901
331
906
331
966
331
961
331
D89
331
D8E
331
DF2
331
DED
102
}
  0
BLOCK_RECORD
  5
29
330
1
100
AcDbSymbolTableRecord
100
AcDbBlockTableRecord
  2
115-1
340
0
310
2800000020000000200000000100080000000000000400000000000000000000000000000000000000000000000080000080000000808000800000008000800080800000C0C0C000C0DCC000F0CAA6000020400000206000002080000020A0000020C0000020E00000400000004020000040400000406000004080000040A0
310
000040C0000040E00000600000006020000060400000606000006080000060A0000060C0000060E00000800000008020000080400000806000008080000080A0000080C0000080E00000A0000000A0200000A0400000A0600000A0800000A0A00000A0C00000A0E00000C0000000C0200000C0400000C0600000C0800000C0
310
A00000C0C00000C0E00000E0000000E0200000E0400000E0600000E0800000E0A00000E0C00000E0E00040000000400020004000400040006000400080004000A0004000C0004000E00040200000402020004020400040206000402080004020A0004020C0004020E000404000004040200040404000404060004040800040
310
40A0004040C0004040E00040600000406020004060400040606000406080004060A0004060C0004060E00040800000408020004080400040806000408080004080A0004080C0004080E00040A0000040A0200040A0400040A0600040A0800040A0A00040A0C00040A0E00040C0000040C0200040C0400040C0600040C08000
310
40C0A00040C0C00040C0E00040E0000040E0200040E0400040E0600040E0800040E0A00040E0C00040E0E00080000000800020008000400080006000800080008000A0008000C0008000E00080200000802020008020400080206000802080008020A0008020C0008020E00080400000804020008040400080406000804080
310
008040A0008040C0008040E00080600000806020008060400080606000806080008060A0008060C0008060E00080800000808020008080400080806000808080008080A0008080C0008080E00080A0000080A0200080A0400080A0600080A0800080A0A00080A0C00080A0E00080C0000080C0200080C0400080C0600080C0
310
800080C0A00080C0C00080C0E00080E0000080E0200080E0400080E0600080E0800080E0A00080E0C00080E0E000C0000000C0002000C0004000C0006000C0008000C000A000C000C000C000E000C0200000C0202000C0204000C0206000C0208000C020A000C020C000C020E000C0400000C0402000C0404000C0406000C0
310
408000C040A000C040C000C040E000C0600000C0602000C0604000C0606000C0608000C060A000C060C000C060E000C0800000C0802000C0804000C0806000C0808000C080A000C080C000C080E000C0A00000C0A02000C0A04000C0A06000C0A08000C0A0A000C0A0C000C0A0E000C0C00000C0C02000C0C04000C0C06000
310
C0C08000C0C0A000F0FBFF00A4A0A000808080000000FF0000FF000000FFFF00FF000000FF00FF00FFFF0000FFFFFF00FFFFFFFFFFFFFFFFFFFFFFFFFFFFFFFFFFFFFFFFFFFFFFFFFFFFFFFFFFFFFFFFFFFFFFFFFFFFFFFFFFFFFFFFFFFFFFFFFFFFFFFFFFFFFFFFFFFFFFFFFFFFFFFFFFFFFFFFFFFFFFFFFFFFFFFFFFFFFF
310
FFFFFFFFFFFFFFFFFFFFFFFFFFFFFFFFFFFFFFFFFFFFFFFFFFFFFFFFFFFFFFFFFFFFFFFFFFFFFFFFFFFFFFFFFFFFFFFFFFFFFFFFFFFFFFFFFFFFFFFFFFFFFFFFFFFFFFFFFFFFFFFFFFFFFFFFFFFFFFFFFFFFFFFFFFFFFFFFFFFFFFFFFFFFFFFFFFFFFFFFFFFFFFFFFFFFFFFFFFFFFFFFFFFFFFFFFFFFFFFFFFFFFFFFFFFFFF
310
FFFFFFFFFFFFFFFFFFFFFFFFFFFFFFFFFFFFFFFFFFFFFFFFFFFFFFFFFFFFFFFFFFFFFFFFFFFFFFFFFFFFFFFFFFFFFFFFFFFFFFFFFFFFFFFFFFFFFFFFFFFFFFFFFFFFFFFFFFFFFFFFFFFFFFFFFFFFFFFFFFFFFFFFFFFFFFFFFFFFFFFFFFFFFFFFFFFFFFFFFFFFFFFFFFFFFFFFFFFFFFFFFFFFFFFFFFFFFFFFFFFFFFFFFFFFFF
310
FFFFFFFFFFFFFFFFFFFFFFFFFFFFFFFFFFFFFFFFFFFFFFFFFFFFFFFFFFFFFFFFFFFFFFFFFFFFFFFFFFFFFFFFFFFFFFFFFFFFFFFFFFFFFFFFFFFFFFFFFFFFFFFFFFFFFFFFFFFFFFFFFFFFFFFFFFFFFFFFFFFFFFFFFFFFFFFFFFFFFFFFFFFFFFFFFFFFFFFFFFFFFFFFFFFFFFFFFFFFFFFFFFFFFFFFFF00000000000000000000
310
0000000000000000000000FFFFFFFFFFFF0000FFFF000000000000000000000000000000000000000000000000FFFFFFFF0000FFFFFF000000000000FF0000000000000000000000FF00000000000000000000FFFFFF00FF00000000FF0000FFFF0000000000FFFFFFFFFFFFFFFF0000FF0000FFFFFFFFFFFFFFFFFFFFFFFF
310
FFFFFFFFFFFFFFFFFFFFFFFFFFFFFFFFFFFFFFFFFFFFFFFFFFFFFFFFFFFFFFFFFFFFFFFFFFFFFFFFFFFFFFFFFFFFFFFFFFFFFFFFFFFFFFFFFFFFFFFFFFFFFFFFFFFFFFFFFFFFFFFFFFFFFFFFFFFFFFFFFFFFFFFFFFFFFFFFFFFFFFFFFFFFFFFFFFFFFFFFFFFFFFFFFFFFFFFFFFFFFFFFFFFFFFFFFFFFFFFFFFFFFFFFFFFFFF
310
FFFFFFFFFFFFFFFFFFFFFFFFFFFFFFFFFFFFFFFFFFFFFFFFFFFFFFFFFFFFFFFFFFFFFFFFFFFFFFFFFFFFFFFFFFFFFFFFFFFFFFFFFFFFFFFFFFFFFFFFFFFFFFFFFFFFFFFFFFFFFFFFFFFFFFFFFFFFFFFFFFFFFFFFFFFFFFFFFFFFFFFFFFFFFFFFFFFFFFFFFFFFFFFFFFFFFFFFFFFFFFFFFFFFFFFFFFFFFFFFFFFFFFFFFFFFFF
310
FFFFFFFFFFFFFFFFFFFFFFFFFFFFFFFFFFFFFFFFFFFFFFFFFFFFFFFFFFFFFFFFFFFFFFFFFFFFFFFFFFFFFFFFFFFFFFFFFFFFFFFFFFFFFFFFFFFFFFFFFFFFFFFFFFFFFFFFFFFFFFFFFFFFFFFFFFFFFFFFFFFFFFFFFFFFFFFFFFFFFFFFFFFFFFFFFFFFFFFFFFFFFFFFFFFFFFFFFFFFFFFFFFFFFFFFFFFFFFFFFFFFFFFFFFFFFF
310
FFFFFFFFFFFFFFFFFFFFFFFFFFFFFFFFFFFFFFFFFFFFFFFFFFFFFFFFFFFFFFFFFFFFFFFFFFFFFFFFFFFFFFFFFFFFFFFFFFFFFFFFFFFFFFFF
102
{BLKREFS
331
826
331
D80
331
E51
331
E52
102
}
  0
BLOCK_RECORD
  5
2A
330
1
100
AcDbSymbolTableRecord
100
AcDbBlockTableRecord
  2
110-1
340
0
310
2800000020000000200000000100080000000000000400000000000000000000000000000000000000000000000080000080000000808000800000008000800080800000C0C0C000C0DCC000F0CAA6000020400000206000002080000020A0000020C0000020E00000400000004020000040400000406000004080000040A0
310
000040C0000040E00000600000006020000060400000606000006080000060A0000060C0000060E00000800000008020000080400000806000008080000080A0000080C0000080E00000A0000000A0200000A0400000A0600000A0800000A0A00000A0C00000A0E00000C0000000C0200000C0400000C0600000C0800000C0
310
A00000C0C00000C0E00000E0000000E0200000E0400000E0600000E0800000E0A00000E0C00000E0E00040000000400020004000400040006000400080004000A0004000C0004000E00040200000402020004020400040206000402080004020A0004020C0004020E000404000004040200040404000404060004040800040
310
40A0004040C0004040E00040600000406020004060400040606000406080004060A0004060C0004060E00040800000408020004080400040806000408080004080A0004080C0004080E00040A0000040A0200040A0400040A0600040A0800040A0A00040A0C00040A0E00040C0000040C0200040C0400040C0600040C08000
310
40C0A00040C0C00040C0E00040E0000040E0200040E0400040E0600040E0800040E0A00040E0C00040E0E00080000000800020008000400080006000800080008000A0008000C0008000E00080200000802020008020400080206000802080008020A0008020C0008020E00080400000804020008040400080406000804080
310
008040A0008040C0008040E00080600000806020008060400080606000806080008060A0008060C0008060E00080800000808020008080400080806000808080008080A0008080C0008080E00080A0000080A0200080A0400080A0600080A0800080A0A00080A0C00080A0E00080C0000080C0200080C0400080C0600080C0
310
800080C0A00080C0C00080C0E00080E0000080E0200080E0400080E0600080E0800080E0A00080E0C00080E0E000C0000000C0002000C0004000C0006000C0008000C000A000C000C000C000E000C0200000C0202000C0204000C0206000C0208000C020A000C020C000C020E000C0400000C0402000C0404000C0406000C0
310
408000C040A000C040C000C040E000C0600000C0602000C0604000C0606000C0608000C060A000C060C000C060E000C0800000C0802000C0804000C0806000C0808000C080A000C080C000C080E000C0A00000C0A02000C0A04000C0A06000C0A08000C0A0A000C0A0C000C0A0E000C0C00000C0C02000C0C04000C0C06000
310
C0C08000C0C0A000F0FBFF00A4A0A000808080000000FF0000FF000000FFFF00FF000000FF00FF00FFFF0000FFFFFF00FFFFFFFFFFFFFFFFFFFFFFFFFFFFFFFFFFFFFFFFFFFFFFFFFFFFFFFFFFFFFFFFFFFFFFFFFFFFFFFFFFFFFFFFFFFFFFFFFFFFFFFFFFFFFFFFFFFFFFFFFFFFFFFFFFFFFFFFFFFFFFFFFFFFFFFFFFFFFF
310
FFFFFFFFFFFFFFFFFFFFFFFFFFFFFFFFFFFFFFFFFFFFFFFFFFFFFFFFFFFFFFFFFFFFFFFFFFFFFFFFFFFFFFFFFFFFFFFFFFFFFFFFFFFFFFFFFFFFFFFFFFFFFFFFFFFFFFFFFFFFFFFFFFFFFFFFFFFFFFFFFFFFFFFFFFFFFFFFFFFFFFFFFFFFFFFFFFFFFFFFFFFFFFFFFFFFFFFFFFFFFFFFFFFFFFFFFFFFFFFFFFFFFFFFFFFFFF
310
FFFFFFFFFFFFFFFFFFFFFFFFFFFFFFFFFFFFFFFFFFFFFFFFFFFFFFFFFFFFFFFFFFFFFFFFFFFFFFFFFFFFFFFFFFFFFFFFFFFFFFFFFFFFFFFFFFFFFFFFFFFFFFFFFFFFFFFFFFFFFFFFFFFFFFFFFFFFFFFFFFFFFFFFFFFFFFFFFFFFFFFFFFFFFFFFFFFFFFFFFFFFFFFFFFFFFFFFFFFFFFFFFFFFFFFFFFFFFFFFFFFFFFFFFFFFFF
310
FFFFFFFFFFFFFFFFFFFFFFFFFFFFFFFFFFFFFFFFFFFFFFFFFFFFFFFFFFFFFFFFFFFFFFFFFFFFFFFFFFFFFFFFFFFFFFFFFFFFFFFFFFFFFFFFFFFFFFFFFFFFFFFFFFFFFFFFFFFFFFFFFFFFFFFFFFFFFFFFFFFFFFFFFFFFFFFFFFFFFFFFFFFFFFFFFFFFFFFFFFFFFFFFFFFFFFFFFFFFFFFFFFFFFFFFFA00000000000000000000
310
0000000000000000000000FAFAFAFAFAFAFAFAFFFFFA00FA00000000FAFA00000000000000000000FA00FAFA00FAFAFFFAFAFAFFFFFAFAFA0000000000000000000000000000FAFAFAFA000000FAFAFA00FAFAFFFFFAFAFA00000000000000FA000000FA0000FAFAFAFAFAFA00FA000000FAFAFFFFFFFFFFFFFFFFFFFFFFFF
310
FFFFFFFFFFFFFFFFFFFFFFFFFFFFFFFFFFFFFFFFFFFFFFFFFFFFFFFFFFFFFFFFFFFFFFFFFFFFFFFFFFFFFFFFFFFFFFFFFFFFFFFFFFFFFFFFFFFFFFFFFFFFFFFFFFFFFFFFFFFFFFFFFFFFFFFFFFFFFFFFFFFFFFFFFFFFFFFFFFFFFFFFFFFFFFFFFFFFFFFFFFFFFFFFFFFFFFFFFFFFFFFFFFFFFFFFFFFFFFFFFFFFFFFFFFFFFF
310
FFFFFFFFFFFFFFFFFFFFFFFFFFFFFFFFFFFFFFFFFFFFFFFFFFFFFFFFFFFFFFFFFFFFFFFFFFFFFFFFFFFFFFFFFFFFFFFFFFFFFFFFFFFFFFFFFFFFFFFFFFFFFFFFFFFFFFFFFFFFFFFFFFFFFFFFFFFFFFFFFFFFFFFFFFFFFFFFFFFFFFFFFFFFFFFFFFFFFFFFFFFFFFFFFFFFFFFFFFFFFFFFFFFFFFFFFFFFFFFFFFFFFFFFFFFFFF
310
FFFFFFFFFFFFFFFFFFFFFFFFFFFFFFFFFFFFFFFFFFFFFFFFFFFFFFFFFFFFFFFFFFFFFFFFFFFFFFFFFFFFFFFFFFFFFFFFFFFFFFFFFFFFFFFFFFFFFFFFFFFFFFFFFFFFFFFFFFFFFFFFFFFFFFFFFFFFFFFFFFFFFFFFFFFFFFFFFFFFFFFFFFFFFFFFFFFFFFFFFFFFFFFFFFFFFFFFFFFFFFFFFFFFFFFFFFFFFFFFFFFFFFFFFFFFFF
310
FFFFFFFFFFFFFFFFFFFFFFFFFFFFFFFFFFFFFFFFFFFFFFFFFFFFFFFFFFFFFFFFFFFFFFFFFFFFFFFFFFFFFFFFFFFFFFFFFFFFFFFFFFFFFFFF
102
{BLKREFS
331
505
331
9C5
102
}
  0
ENDTAB
  0
ENDSEC
  0
SECTION
  2
BLOCKS
  0
BLOCK
  5
3C
330
1E
100
AcDbEntity
  8
0
100
AcDbBlockBegin
  2
*Model_Space
 70
     0
 10
0.0
 20
0.0
 30
0.0
  3
*Model_Space
  1

  0
ENDBLK
  5
3D
330
1E
100
AcDbEntity
  8
0
100
AcDbBlockEnd
  0
BLOCK
  5
3A
330
1A
100
AcDbEntity
 67
     1
  8
0
100
AcDbBlockBegin
  2
*Paper_Space
 70
     0
 10
0.0
 20
0.0
 30
0.0
  3
*Paper_Space
  1

  0
ENDBLK
  5
3B
330
1A
100
AcDbEntity
 67
     1
  8
0
100
AcDbBlockEnd
  0
BLOCK
  5
166
330
26
100
AcDbEntity
  8
0
100
AcDbBlockBegin
  2
6
 70
     0
 10
0.0
 20
0.0
 30
0.0
  3
6
  1

  0
LWPOLYLINE
  5
8F9
330
26
100
AcDbEntity
  8
0
100
AcDbPolyline
 90
        2
 70
     0
 43
0.01
 10
-1.0
 20
0.0
 10
-0.2
 20
0.0
  0
LWPOLYLINE
  5
8FA
330
26
100
AcDbEntity
  8
0
100
AcDbPolyline
 90
        2
 70
     0
 43
0.01
 10
0.0
 20
-1.0
 10
0.0
 20
-0.2
  0
ENDBLK
  5
16F
330
26
100
AcDbEntity
  8
0
100
AcDbBlockEnd
  0
BLOCK
  5
170
330
27
100
AcDbEntity
  8
0
100
AcDbBlockBegin
  2
1
 70
     0
 10
0.0
 20
0.0
 30
0.0
  3
1
  1

  0
LWPOLYLINE
  5
8F0
330
27
100
AcDbEntity
  8
0
100
AcDbPolyline
 90
        2
 70
     0
 43
0.02
 10
0.0
 20
-0.4900000000000002
 42
0.4142135623730951
 10
0.4900000000000002
 20
-0.0000000000000001
 42
0.4142135623730951
  0
LWPOLYLINE
  5
8F1
330
27
100
AcDbEntity
  8
0
100
AcDbPolyline
 90
        2
 70
     0
 43
0.25
 10
0.0
 20
-0.125
 42
0.4142135623730951
 10
0.125
 20
0.0
 42
0.4142135623730951
  0
LWPOLYLINE
  5
8F2
330
27
100
AcDbEntity
  8
0
100
AcDbPolyline
 90
        2
 70
     0
 43
0.25
 10
0.375
 20
0.0
 42
0.4142135623730951
 10
0.0
 20
0.375
 42
0.4142135623730951
  0
LWPOLYLINE
  5
8F3
330
27
100
AcDbEntity
  8
0
100
AcDbPolyline
 90
        2
 70
     0
 43
0.02
 10
0.0
 20
0.4900000000000002
 42
0.4142135623730951
 10
-0.4900000000000002
 20
0.0000000000000001
 42
0.4142135623730951
  0
LWPOLYLINE
  5
8F4
330
27
100
AcDbEntity
  8
0
100
AcDbPolyline
 90
        2
 70
     0
 43
0.25
 10
0.0
 20
0.125
 42
0.4142135623730951
 10
-0.125
 20
0.0
 42
0.4142135623730951
  0
LWPOLYLINE
  5
8F5
330
27
100
AcDbEntity
  8
0
100
AcDbPolyline
 90
        2
 70
     0
 43
0.25
 10
-0.375
 20
0.0
 42
0.4142135623730951
 10
-0.0000000000000001
 20
-0.375
 42
0.4142135623730951
  0
ENDBLK
  5
189
330
27
100
AcDbEntity
  8
0
100
AcDbBlockEnd
  0
BLOCK
  5
18A
330
28
100
AcDbEntity
  8
0
100
AcDbBlockBegin
  2
0
 70
     2
 10
0.0
 20
0.0
 30
0.0
  3
0
  1

  0
ATTDEF
  5
18B
330
28
100
AcDbEntity
  8
0
100
AcDbText
 10
0.0
 20
0.0
 30
0.0
 40
1.0
  1

100
AcDbAttributeDefinition
  3
navn
  2
NAME
 70
     0
  0
ATTDEF
  5
18D
330
28
100
AcDbEntity
  8
0
100
AcDbText
 10
10.0
 20
0.0
 30
0.0
 40
1.0
  1

100
AcDbAttributeDefinition
  3
dato
  2
DATE
 70
     0
  0
ATTDEF
  5
18E
330
28
100
AcDbEntity
  8
0
100
AcDbText
 10
20.0
 20
0.0
 30
0.0
 40
1.0
  1

100
AcDbAttributeDefinition
  3
lag
  2
LAYER
 70
     1
  0
ENDBLK
  5
18F
330
28
100
AcDbEntity
  8
0
100
AcDbBlockEnd
  0
BLOCK
  5
190
330
29
100
AcDbEntity
  8
0
100
AcDbBlockBegin
  2
115-1
 70
     0
 10
0.0
 20
0.0
 30
0.0
  3
115-1
  1
115-1
  0
INSERT
  5
DED
330
29
100
AcDbEntity
  8
115-1T
100
AcDbBlockReference
 66
     1
  2
0
 10
159.7369854768881
 20
71.52671232876706
 30
0.0
 41
4.0
 42
4.0
 43
4.0
  0
ATTRIB
  5
DEE
330
DED
100
AcDbEntity
  8
0
100
AcDbText
 10
159.7369854768881
 20
71.52671232876706
 30
0.0
 40
4.0
  1
APPROVED
100
AcDbAttribute
  2
NAME
 70
     0
  0
ATTRIB
  5
DEF
330
DED
100
AcDbEntity
  8
0
100
AcDbText
 10
199.7369854768882
 20
71.52671232876706
 30
0.0
 40
4.0
  1
             DATE
100
AcDbAttribute
  2
DATE
 70
     0
  0
ATTRIB
  5
DF0
330
DED
100
AcDbEntity
  8
0
100
AcDbText
 10
239.7369854768882
 20
71.52671232876706
 30
0.0
 40
4.0
  1

100
AcDbAttribute
  2
LAYER
 70
     1
  0
SEQEND
  5
DF1
330
DED
100
AcDbEntity
  8
115-1T
  0
INSERT
  5
DF2
330
29
100
AcDbEntity
  8
115-1T
100
AcDbBlockReference
 66
     1
  2
0
 10
17.69153005831842
 20
71.52671232876706
 30
0.0
 41
4.0
 42
4.0
 43
4.0
  0
ATTRIB
  5
DF3
330
DF2
100
AcDbEntity
  8
0
100
AcDbText
 10
17.69153005831842
 20
71.52671232876706
 30
0.0
 40
4.0
  1
12704091
100
AcDbAttribute
  2
NAME
 70
     0
  0
ATTRIB
  5
DF4
330
DF2
100
AcDbEntity
  8
0
100
AcDbText
 10
57.69153005831843
 20
71.52671232876706
 30
0.0
 40
4.0
  1
22/07/1998
100
AcDbAttribute
  2
DATE
 70
     0
  0
ATTRIB
  5
DF5
330
DF2
100
AcDbEntity
  8
0
100
AcDbText
 10
97.69153005831846
 20
71.52671232876706
 30
0.0
 40
4.0
  1
                                                                                115-1T
100
AcDbAttribute
  2
LAYER
 70
     1
  0
SEQEND
  5
DF6
330
DF2
100
AcDbEntity
  8
115-1T
  0
TEXT
  5
DF7
330
29
100
AcDbEntity
  8
115-1T
100
AcDbText
 10
215.6125437615748
 20
87.61358449417095
 30
0.0
 40
2.0
  1
90 - 250 
  7
ariab
100
AcDbText
  0
TEXT
  5
DF8
330
29
100
AcDbEntity
  8
115-1T
100
AcDbText
 10
215.6125437615748
 20
84.1962616595253
 30
0.0
 40
2.0
  1
48 - 65 
  7
ariab
100
AcDbText
  0
LWPOLYLINE
  5
DF9
330
29
100
AcDbEntity
  8
115-1T
100
AcDbPolyline
 90
        9
 70
     0
 43
0.2
 10
238.4915320959608
 20
89.62214850893623
 10
238.4915320959608
 20
80.77417793117033
 42
-0.4142135623730951
 10
237.6915320959608
 20
79.97417793117033
 10
215.6828817485731
 20
79.97417793117033
 42
-0.4142135623730965
 10
214.8828817485731
 20
80.77417793117033
 10
214.8828817485731
 20
89.62214850893623
 42
-0.4142135623730944
 10
215.6828817485731
 20
90.42214850893623
 10
237.6915320959608
 20
90.42214850893623
 42
-0.4142135623730951
 10
238.4915320959608
 20
89.62214850893623
  0
LWPOLYLINE
  5
DFA
330
29
100
AcDbEntity
  8
115-1T
100
AcDbPolyline
 90
        4
 70
     0
 43
0.1
 39
0.2
 10
209.3561331029968
 20
116.0254123287669
 10
209.3561331029968
 20
101.3341411532425
 10
253.3766336250816
 20
101.3341411532425
 10
253.3766336250816
 20
116.0254123287669
  0
LWPOLYLINE
  5
DFB
330
29
100
AcDbEntity
  8
115-1T
100
AcDbPolyline
 90
        4
 70
     0
 43
0.2
 39
0.2
 10
101.022136722637
 20
116.0254123287669
 10
101.022136722637
 20
101.3341411532425
 10
64.68729999999995
 20
101.3341411532425
 10
64.68729999999995
 20
116.0254123287669
  0
LWPOLYLINE
  5
DFC
330
29
100
AcDbEntity
  8
115-1T
100
AcDbPolyline
 90
        2
 70
     0
 43
0.2
 39
0.2
 10
172.5701572297881
 20
79.02671232876706
 10
172.5701572297881
 20
93.7179835042915
  0
LWPOLYLINE
  5
DFD
330
29
100
AcDbEntity
  8
115-1T
100
AcDbPolyline
 90
        2
 70
     0
 43
0.2
 39
0.2
 10
136.8885839615383
 20
79.02671232876706
 10
136.8885839615383
 20
93.7179835042915
  0
LWPOLYLINE
  5
DFE
330
29
100
AcDbEntity
  8
115-1T
100
AcDbPolyline
 90
        2
 70
     0
 43
0.2
 39
0.2
 10
100.4859229607284
 20
79.02671232876706
 10
100.4859229607284
 20
93.7179835042915
  0
LWPOLYLINE
  5
DFF
330
29
100
AcDbEntity
  8
115-1T
100
AcDbPolyline
 90
        2
 70
     0
 43
0.2
 39
0.2
 10
208.8043496924788
 20
79.02671232876706
 10
208.8043496924788
 20
93.7179835042915
  0
LWPOLYLINE
  5
E00
330
29
100
AcDbEntity
  8
115-1T
100
AcDbPolyline
 90
        4
 70
     0
 43
0.1
 39
0.2
 10
137.4676021026121
 20
116.0254123287669
 10
137.4676021026121
 20
101.3341411532425
 10
191.3091911784904
 20
101.3341411532425
 10
191.3091911784904
 20
116.0254123287669
  0
TEXT
  5
E01
330
29
100
AcDbEntity
  8
115-1T
100
AcDbText
 10
79.36204826849077
 20
115.0311339214762
 30
0.0
 40
2.0
  1
OUT
  7
ariab
100
AcDbText
  0
INSERT
  5
E02
330
29
100
AcDbEntity
  8
115-1T
100
AcDbBlockReference
  2
6
 10
14.69153005831844
 20
118.5254123287669
 30
0.0
 41
-4.0
 42
4.0
 43
4.0
 50
180.0
  0
INSERT
  5
E03
330
29
100
AcDbEntity
  8
115-1T
100
AcDbBlockReference
  2
6
 10
14.69153005831844
 20
118.5254123287669
 30
0.0
 41
-4.0
 42
4.0
 43
4.0
 50
180.0
  0
INSERT
  5
E04
330
29
100
AcDbEntity
  8
115-1T
100
AcDbBlockReference
  2
6
 10
14.69153005831842
 20
76.52671232876706
 30
0.0
 41
4.0
 42
4.0
 43
4.0
  0
INSERT
  5
E05
330
29
100
AcDbEntity
  8
115-1T
100
AcDbBlockReference
  2
1
 10
9.691530058318432
 20
97.52671232876707
 30
0.0
 41
4.0
 42
4.0
 43
4.0
  0
LWPOLYLINE
  5
E06
330
29
100
AcDbEntity
  8
115-1T
100
AcDbPolyline
 90
        2
 70
     0
 43
0.0
 10
30.83978056583855
 20
90.52442314413861
 10
26.54985489326428
 20
106.5346437148799
  0
LWPOLYLINE
  5
E07
330
29
100
AcDbEntity
  8
115-1T
100
AcDbPolyline
 90
        2
 70
     0
 43
0.0
 10
28.69481772955142
 20
90.24203342950924
 10
28.69481772955142
 20
106.8170334295093
  0
LWPOLYLINE
  5
E08
330
29
100
AcDbEntity
  8
115-1T
100
AcDbPolyline
 90
        2
 70
     0
 43
0.0
 10
55.43978056583853
 20
92.12442314413861
 10
51.14985489326425
 20
108.1346437148799
  0
LWPOLYLINE
  5
E09
330
29
100
AcDbEntity
  8
115-1T
100
AcDbPolyline
 90
        2
 70
     0
 43
0.0
 10
53.29481772955138
 20
91.84203342950921
 10
53.29481772955138
 20
108.4170334295092
  0
LWPOLYLINE
  5
E0A
330
29
100
AcDbEntity
  8
115-1T
100
AcDbPolyline
 90
        2
 70
     0
 43
0.0
 10
45.28970744418066
 20
97.98457059322217
 10
61.29992801492207
 20
102.2744962657964
  0
TEXT
  5
E0B
330
29
100
AcDbEntity
  8
115-1T
100
AcDbText
 10
47.62837843896478
 20
79.64377667984017
 30
0.0
 40
2.0
  1
AUDIO 1
  7
ariab
 72
     1
 11
53.29481772955141
 21
79.64377667984017
 31
0.0
100
AcDbText
  0
TEXT
  5
E0C
330
29
100
AcDbEntity
  8
115-1T
100
AcDbText
 10
47.08472223159779
 20
82.44377653820455
 30
0.0
 40
2.0
  1
AES/EBU
  7
ariab
 72
     1
 11
53.29481772955141
 21
82.44377653820455
 31
0.0
100
AcDbText
  0
LWPOLYLINE
  5
E0D
330
29
100
AcDbEntity
  8
115-1T
100
AcDbPolyline
 90
        2
 70
     0
 43
0.0
 10
45.0073177295513
 20
100.1295334295092
 10
61.58231772955136
 20
100.1295334295092
  0
LWPOLYLINE
  5
E0E
330
29
100
AcDbEntity
  8
115-1T
100
AcDbPolyline
 90
        2
 70
     0
 43
0.0
 10
20.40731772955132
 20
98.52953342950932
 10
36.98231772955138
 20
98.52953342950932
  0
LWPOLYLINE
  5
E0F
330
29
100
AcDbEntity
  8
115-1T
100
AcDbPolyline
 90
        2
 70
     0
 43
0.0
 10
20.68970744418071
 20
96.38457059322218
 10
36.69992801492209
 20
100.6744962657964
  0
TEXT
  5
E10
330
29
100
AcDbEntity
  8
115-1T
100
AcDbText
 10
20.93356261358957
 20
79.6437766799858
 30
0.0
 40
2.0
  1
TIME CODE
  7
ariab
 72
     1
 11
28.69481772955138
 21
79.6437766799858
 31
0.0
100
AcDbText
  0
TEXT
  5
E11
330
29
100
AcDbEntity
  8
115-1T
100
AcDbText
 10
68.02081417054683
 20
79.64377667998578
 30
0.0
 40
2.0
  1
AUDIO 1
  7
ariab
 72
     1
 11
73.68725346113347
 21
79.64377667998578
 31
0.0
100
AcDbText
  0
TEXT
  5
E12
330
29
100
AcDbEntity
  8
115-1T
100
AcDbText
 10
67.47715796317985
 20
82.44377653820455
 30
0.0
 40
2.0
  1
AES/EBU
  7
ariab
 72
     1
 11
73.68725346113347
 21
82.44377653820455
 31
0.0
100
AcDbText
  0
TEXT
  5
E13
330
29
100
AcDbEntity
  8
115-1T
100
AcDbText
 10
48.44637724889729
 20
113.118866348283
 30
0.0
 40
2.0
  1
SDI GENL
  7
ariab
100
AcDbText
  0
LWPOLYLINE
  5
E14
102
{ACAD_REACTORS
330
E15
102
}
330
29
100
AcDbEntity
  8
115-1T
100
AcDbPolyline
 90
        3
 70
     1
 43
0.0
 10
62.27446059300604
 20
115.1317923854334
 10
64.01041065038967
 20
114.1295411525032
 10
62.27446059300604
 20
113.1272899195731
  0
HATCH
  5
E15
330
29
100
AcDbEntity
  8
115-1T
100
AcDbHatch
 10
0.0
 20
0.0
 30
0.0
210
0.0
220
0.0
230
1.0
  2
SOLID
 70
     1
 71
     1
 91
        1
 92
        1
 93
        3
 72
     1
 10
62.27446059300604
 20
115.1317923854334
 11
64.01041065038967
 21
114.1295411525032
 72
     1
 10
64.01041065038967
 20
114.1295411525032
 11
62.27446059300604
 21
113.1272899195731
 72
     1
 10
62.27446059300604
 20
113.1272899195731
 11
62.27446059300604
 21
115.1317923854334
 97
        1
330
E14
 75
     0
 76
     1
 98
        1
 10
0.0
 20
0.0
  0
TEXT
  5
E16
330
29
100
AcDbEntity
  8
115-1T
100
AcDbText
 10
145.6047159440803
 20
82.44377653820455
 30
0.0
 40
2.0
  1
  SDI     TPG 5
  7
ariab
 72
     1
 11
154.6872534611335
 21
82.44377653820455
 31
0.0
100
AcDbText
  0
TEXT
  5
E17
330
29
100
AcDbEntity
  8
115-1T
100
AcDbText
 10
145.4505549618156
 20
79.64049009443908
 30
0.0
 40
2.0
  1
  ANL    TPG 5
  7
ariab
 72
     1
 11
154.6872534611335
 21
79.64049009443908
 31
0.0
100
AcDbText
  0
TEXT
  5
E18
330
29
100
AcDbEntity
  8
115-1T
100
AcDbText
 10
109.6047159440802
 20
82.44377653820455
 30
0.0
 40
2.0
  1
  SDI     TSG 4
  7
ariab
 72
     1
 11
118.6872534611334
 21
82.44377653820455
 31
0.0
100
AcDbText
  0
LWPOLYLINE
  5
E19
330
29
100
AcDbEntity
  8
115-1T
100
AcDbPolyline
 90
        2
 70
     0
 43
0.225
 10
117.3437634207265
 20
83.17564965402706
 10
119.2580836195537
 20
83.17564965402706
  0
TEXT
  5
E1A
330
29
100
AcDbEntity
  8
115-1T
100
AcDbText
 10
86.02081417054685
 20
79.64377667998578
 30
0.0
 40
2.0
  1
AUDIO 2
  7
ariab
 72
     1
 11
91.68725346113347
 21
79.64377667998578
 31
0.0
100
AcDbText
  0
TEXT
  5
E1B
330
29
100
AcDbEntity
  8
115-1T
100
AcDbText
 10
85.47715796317985
 20
82.44377653820455
 30
0.0
 40
2.0
  1
AES/EBU
  7
ariab
 72
     1
 11
91.68725346113347
 21
82.44377653820455
 31
0.0
100
AcDbText
  0
TEXT
  5
E1C
330
29
100
AcDbEntity
  8
115-1T
100
AcDbText
 10
97.67778545313246
 20
115.0075056090252
 30
0.0
 40
2.0
  1
IN
  7
ariab
100
AcDbText
  0
TEXT
  5
E1D
330
29
100
AcDbEntity
  8
115-1T
100
AcDbText
 10
125.8821324775328
 20
107.6302478651925
 30
0.0
 40
2.0
  1
SDI BLK
  7
ariab
100
AcDbText
  0
TEXT
  5
E1E
330
29
100
AcDbEntity
  8
115-1T
100
AcDbText
 10
125.8821324775328
 20
104.8285965858674
 30
0.0
 40
2.0
  1
ANL BB
  7
ariab
100
AcDbText
  0
TEXT
  5
E1F
330
29
100
AcDbEntity
  8
115-1T
100
AcDbText
 10
118.3928348825259
 20
113.224288184808
 30
0.0
 40
2.0
  1
WORD
  7
ariab
100
AcDbText
  0
TEXT
  5
E20
330
29
100
AcDbEntity
  8
115-1T
100
AcDbText
 10
118.3928348825259
 20
110.4267124596424
 30
0.0
 40
2.0
  1
CLOCK
  7
ariab
100
AcDbText
  0
TEXT
  5
E21
330
29
100
AcDbEntity
  8
115-1T
100
AcDbText
 10
181.6047159440803
 20
82.44377653820455
 30
0.0
 40
2.0
  1
  SDI     TSG 3
  7
ariab
 72
     1
 11
190.6872534611335
 21
82.44377653820455
 31
0.0
100
AcDbText
  0
LWPOLYLINE
  5
E22
330
29
100
AcDbEntity
  8
115-1T
100
AcDbPolyline
 90
        2
 70
     0
 43
0.225
 10
153.3437634207265
 20
80.36626615251924
 10
155.2580836195536
 20
80.36626615251924
  0
LWPOLYLINE
  5
E23
330
29
100
AcDbEntity
  8
115-1T
100
AcDbPolyline
 90
        2
 70
     0
 43
0.225
 10
153.3437634207265
 20
83.17564965402706
 10
155.2580836195536
 20
83.17564965402706
  0
LWPOLYLINE
  5
E24
330
29
100
AcDbEntity
  8
115-1T
100
AcDbPolyline
 90
        2
 70
     0
 43
0.225
 10
189.3437634207264
 20
83.17564965402706
 10
191.2580836195536
 20
83.17564965402706
  0
TEXT
  5
E25
330
29
100
AcDbEntity
  8
115-1T
100
AcDbText
 10
215.6125437615748
 20
80.77893882487963
 30
0.0
 40
2.0
  1
90 
  7
ariab
100
AcDbText
  0
TEXT
  5
E26
330
29
100
AcDbEntity
  8
115-1T
100
AcDbText
 10
171.5821079016227
 20
111.4368838750717
 30
0.0
 40
2.0
  1
  SDI     TSG 2
  7
ariab
 72
     1
 11
180.6646454186759
 21
111.4368838750717
 31
0.0
100
AcDbText
  0
TEXT
  5
E27
330
29
100
AcDbEntity
  8
115-1T
100
AcDbText
 10
171.3879884353424
 20
105.8321324680139
 30
0.0
 40
2.0
  1
  ANL    TPG 2
  7
ariab
 72
     1
 11
180.6246869346603
 21
105.8321324680139
 31
0.0
100
AcDbText
  0
TEXT
  5
E28
330
29
100
AcDbEntity
  8
115-1T
100
AcDbText
 10
171.5821079016227
 20
108.63352634978
 30
0.0
 40
2.0
  1
  SDI     TPG 2
  7
ariab
 72
     1
 11
180.6646454186759
 21
108.63352634978
 31
0.0
100
AcDbText
  0
LWPOLYLINE
  5
E29
330
29
100
AcDbEntity
  8
115-1T
100
AcDbPolyline
 90
        2
 70
     0
 43
0.225
 10
179.2811968942533
 20
106.5579085260942
 10
181.1955170930804
 20
106.5579085260942
  0
LWPOLYLINE
  5
E2A
330
29
100
AcDbEntity
  8
115-1T
100
AcDbPolyline
 90
        2
 70
     0
 43
0.225
 10
179.321155378269
 20
112.1687569908943
 10
181.2354755770961
 20
112.1687569908943
  0
LWPOLYLINE
  5
E2B
330
29
100
AcDbEntity
  8
115-1T
100
AcDbPolyline
 90
        2
 70
     0
 43
0.225
 10
179.321155378269
 20
109.3653994656024
 10
181.2354755770961
 20
109.3653994656024
  0
LWPOLYLINE
  5
E2C
330
29
100
AcDbEntity
  8
115-1T
100
AcDbPolyline
 90
        2
 70
     0
 43
0.0
 10
339.3948177295516
 20
98.52953342950932
 10
369.9948177295512
 20
98.52953342950932
  0
LWPOLYLINE
  5
E2D
330
29
100
AcDbEntity
  8
115-1T
100
AcDbPolyline
 90
        2
 70
     0
 43
0.0
 10
339.9161525873289
 20
94.56960203944083
 10
369.4734828717738
 20
102.4894648195777
  0
TEXT
  5
E2E
330
29
100
AcDbEntity
  8
115-1T
100
AcDbText
 10
283.0910733792803
 20
79.64377667998589
 30
0.0
 40
2.0
  1
MONITOR
  7
ariab
 72
     1
 11
289.6872534611357
 21
79.64377667998589
 31
0.0
100
AcDbText
  0
TEXT
  5
E2F
330
29
100
AcDbEntity
  8
115-1T
100
AcDbText
 10
282.7022602824157
 20
82.44377653820455
 30
0.0
 40
2.0
  1
GENLOCK
  7
ariab
 72
     1
 11
289.6872534611333
 21
82.44377653820455
 31
0.0
100
AcDbText
  0
TEXT
  5
E30
330
29
100
AcDbEntity
  8
115-1T
100
AcDbText
 10
250.504443092784
 20
82.44377653820455
 30
0.0
 40
2.0
  1
BB 2
  7
ariab
 72
     1
 11
253.6872534611333
 21
82.44377653820455
 31
0.0
100
AcDbText
  0
TEXT
  5
E31
330
29
100
AcDbEntity
  8
115-1T
100
AcDbText
 10
226.4620353374535
 20
80.77893882487963
 30
0.0
 40
2.0
  1
 VA max
  7
ariab
100
AcDbText
  0
TEXT
  5
E32
330
29
100
AcDbEntity
  8
115-1T
100
AcDbText
 10
226.4620353374535
 20
84.1962616595253
 30
0.0
 40
2.0
  1
 Hz
  7
ariab
100
AcDbText
  0
TEXT
  5
E33
330
29
100
AcDbEntity
  8
115-1T
100
AcDbText
 10
226.4620353374535
 20
87.61358449417095
 30
0.0
 40
2.0
  1
 VAC
  7
ariab
100
AcDbText
  0
TEXT
  5
E34
330
29
100
AcDbEntity
  8
115-1T
100
AcDbText
 10
268.504443092784
 20
82.44377653820455
 30
0.0
 40
2.0
  1
BB 1
  7
ariab
 72
     1
 11
271.6872534611332
 21
82.44377653820455
 31
0.0
100
AcDbText
  0
INSERT
  5
E35
330
29
100
AcDbEntity
  8
115-1T
100
AcDbBlockReference
  2
1
 10
226.6915300583185
 20
123.5254123287669
 30
0.0
 41
4.0
 42
4.0
 43
4.0
  0
LWPOLYLINE
  5
E36
330
29
100
AcDbEntity
  8
115-1T
100
AcDbPolyline
 90
        2
 70
     0
 43
0.0
 10
229.8372534611333
 20
109.6341205766889
 10
241.5372534611333
 20
109.6341205766889
  0
LWPOLYLINE
  5
E37
330
29
100
AcDbEntity
  8
115-1T
100
AcDbPolyline
 90
        2
 70
     0
 43
0.0
 10
230.0365873773421
 20
108.120029162839
 10
241.3379195449243
 20
111.1482119905385
  0
LWPOLYLINE
  5
E38
330
29
100
AcDbEntity
  8
115-1T
100
AcDbPolyline
 90
        2
 70
     0
 43
0.0
 10
237.201344874983
 20
103.9834544928977
 10
234.1731620472835
 20
115.2847866604799
  0
LWPOLYLINE
  5
E39
330
29
100
AcDbEntity
  8
115-1T
100
AcDbPolyline
 90
        2
 70
     0
 43
0.0
 10
235.6872534611333
 20
103.7841205766889
 10
235.6872534611333
 20
115.4841205766888
  0
TEXT
  5
E3A
330
29
100
AcDbEntity
  8
115-1T
100
AcDbText
 10
244.5701572297881
 20
111.4368826959124
 30
0.0
 40
2.0
  1
SDI
  7
ariab
100
AcDbText
  0
TEXT
  5
E3B
330
29
100
AcDbEntity
  8
115-1T
100
AcDbText
 10
244.4859229607284
 20
108.6341205766889
 30
0.0
 40
2.0
  1
TPG 1
  7
ariab
100
AcDbText
  0
TEXT
  5
E3C
330
29
100
AcDbEntity
  8
115-1T
100
AcDbText
 10
262.7785631947245
 20
102.7289397431095
 30
0.0
 40
2.0
  1
CHANGE OVER
  7
ariab
 72
     1
 11
273.1796545999086
 21
102.7289397431095
 31
0.0
100
AcDbText
  0
LWPOLYLINE
  5
E3D
330
29
100
AcDbEntity
  8
115-1T
100
AcDbPolyline
 90
        2
 70
     0
 43
0.0
 10
358.6547491196198
 20
83.75086828728681
 10
350.7348863394827
 20
113.3081985717316
  0
LWPOLYLINE
  5
E3E
330
29
100
AcDbEntity
  8
115-1T
100
AcDbPolyline
 90
        2
 70
     0
 43
0.0
 10
354.6948177295512
 20
83.22953342950961
 10
354.6948177295512
 20
113.8295334295089
  0
TEXT
  5
E3F
330
29
100
AcDbEntity
  8
115-1T
100
AcDbText
 10
303.2609233110651
 20
79.64377667998467
 30
0.0
 40
2.0
  1
ANALOG GENLOCK
  7
ariab
 72
     1
 11
316.6872534611333
 21
79.64377667998467
 31
0.0
100
AcDbText
  0
TEXT
  5
E40
330
29
100
AcDbEntity
  8
115-1T
100
AcDbText
 10
324.6783857940119
 20
82.44377653820455
 30
0.0
 40
2.0
  1
A
  7
ariab
 72
     1
 11
325.6872534611333
 21
82.44377653820455
 31
0.0
100
AcDbText
  0
TEXT
  5
E41
330
29
100
AcDbEntity
  8
115-1T
100
AcDbText
 10
306.678385794012
 20
82.44377653820455
 30
0.0
 40
2.0
  1
B
  7
ariab
 72
     1
 11
307.6872534611335
 21
82.44377653820455
 31
0.0
100
AcDbText
  0
TEXT
  5
E42
330
29
100
AcDbEntity
  8
115-1T
100
AcDbText
 10
307.2035290883125
 20
102.7289397431095
 30
0.0
 40
2.0
  1
REMOTE
  7
ariab
 72
     1
 11
313.1796545999087
 21
102.7289397431095
 31
0.0
100
AcDbText
  0
LWPOLYLINE
  5
E43
102
{ACAD_REACTORS
330
E45
102
}
330
29
100
AcDbEntity
  8
115-1T
100
AcDbPolyline
 90
        4
 70
     1
 43
0.0
 10
335.8592156547113
 20
105.0377672692468
 42
-1.154700538379251
 10
335.8592156547113
 20
108.5018688843845
 10
335.8592156547113
 20
109.2572866695822
 42
1.105541596785132
 10
335.8592156547113
 20
104.2823494840491
  0
LWPOLYLINE
  5
E44
330
29
100
AcDbEntity
  8
115-1T
100
AcDbPolyline
 90
        2
 70
     0
 43
0.7500000000000002
 10
333.4842156547113
 20
106.7698180768158
 10
335.3592156547113
 20
106.7698180768158
  0
HATCH
  5
E45
330
29
100
AcDbEntity
  8
115-1T
100
AcDbHatch
 10
0.0
 20
0.0
 30
0.0
210
0.0
220
0.0
230
1.0
  2
SOLID
 70
     1
 71
     1
 91
        2
 92
        1
 93
        4
 72
     2
 10
331.3592156547113
 20
106.7698180768157
 40
2.499999999999982
 50
84.26082952273317
 51
275.7391704772667
 73
     0
 72
     1
 10
331.6092156547113
 20
109.2572866695822
 11
331.6092156547113
 21
108.5018688843847
 72
     2
 10
331.3592156547113
 20
106.7698180768158
 40
1.750000000000032
 50
81.78678929826197
 51
278.2132107017381
 73
     1
 72
     1
 10
331.6092156547113
 20
105.0377672692468
 11
331.6092156547113
 21
104.2823494840491
 97
        1
330
E46
 92
        1
 93
        4
 72
     2
 10
335.6092156547113
 20
106.7698180768157
 40
1.749999999999962
 50
81.78678929826164
 51
278.2132107017383
 73
     0
 72
     1
 10
335.8592156547113
 20
108.5018688843845
 11
335.8592156547113
 21
109.2572866695822
 72
     2
 10
335.6092156547113
 20
106.7698180768157
 40
2.499999999999996
 50
84.2608295227332
 51
275.7391704772668
 73
     1
 72
     1
 10
335.8592156547113
 20
104.2823494840491
 11
335.8592156547113
 21
105.0377672692468
 97
        1
330
E43
 75
     0
 76
     1
 98
        1
 10
0.0
 20
0.0
  0
LWPOLYLINE
  5
E46
102
{ACAD_REACTORS
330
E45
102
}
330
29
100
AcDbEntity
  8
115-1T
100
AcDbPolyline
 90
        4
 70
     1
 43
0.0
 10
331.6092156547113
 20
104.2823494840491
 42
-1.105541596785134
 10
331.6092156547113
 20
109.2572866695822
 10
331.6092156547113
 20
108.5018688843847
 42
1.154700538379251
 10
331.6092156547113
 20
105.0377672692468
  0
TEXT
  5
E47
330
29
100
AcDbEntity
  8
115-1T
100
AcDbText
 10
421.1901658018407
 20
105.0300379713319
 30
0.0
 40
2.0
  1
MAINS
  7
ariab
 72
     1
 11
425.691530058321
 21
105.0300379713319
 31
0.0
100
AcDbText
  0
TEXT
  5
E48
330
29
100
AcDbEntity
  8
115-1T
100
AcDbText
 10
387.3852544785094
 20
113.0560376323023
 30
0.0
 40
2.0
  1
FUSE 1,6 AT
  7
ariab
 72
     1
 11
395.6915300583183
 21
113.0560376323023
 31
0.0
100
AcDbText
  0
LWPOLYLINE
  5
E49
330
29
100
AcDbEntity
  8
115-1T
100
AcDbPolyline
 90
        2
 70
     0
 43
0.340859882388008
 10
420.418409117421
 20
111.5267123287656
 42
738.7061684084105
 10
420.4183691403638
 20
111.5119467064692
 42
738.7061684084105
  0
LWPOLYLINE
  5
E4A
330
29
100
AcDbEntity
  8
115-1T
100
AcDbPolyline
 90
        2
 70
     0
 43
0.340859882388008
 10
416.2350700568691
 20
110.8424824313591
 10
419.1479900597646
 20
110.8424824313591
  0
LWPOLYLINE
  5
E4B
330
29
100
AcDbEntity
  8
115-1T
100
AcDbPolyline
 90
        2
 70
     0
 43
0.340859882388008
 10
415.6463707639887
 20
111.6946321373291
 10
419.7366893526448
 20
111.6946321373291
  0
LWPOLYLINE
  5
E4C
330
29
100
AcDbEntity
  8
115-1T
100
AcDbPolyline
 90
        2
 70
     0
 43
0.340859882388008
 10
417.6915300583168
 20
111.6946321373291
 10
417.6915300583168
 20
112.8930075065152
  0
LWPOLYLINE
  5
E4D
330
29
100
AcDbEntity
  8
115-1T
100
AcDbPolyline
 90
        2
 70
     0
 43
0.340859882388008
 10
416.8333666051621
 20
109.990332725389
 10
418.5496935114715
 20
109.990332725389
  0
INSERT
  5
E4E
330
29
100
AcDbEntity
  8
115-1T
100
AcDbBlockReference
  2
6
 10
438.6915300583185
 20
76.52671232876706
 30
0.0
 41
-4.0
 42
4.0
 43
4.0
  0
INSERT
  5
E4F
330
29
100
AcDbEntity
  8
115-1T
100
AcDbBlockReference
  2
1
 10
441.6915300583185
 20
98.52671232876708
 30
0.0
 41
-4.0
 42
4.0
 43
4.0
  0
INSERT
  5
E50
330
29
100
AcDbEntity
  8
115-1T
100
AcDbBlockReference
  2
6
 10
438.6915300583185
 20
118.5254123287669
 30
0.0
 41
4.0
 42
4.0
 43
4.0
 50
180.0
  0
ENDBLK
  5
27E
330
29
100
AcDbEntity
  8
0
100
AcDbBlockEnd
  0
BLOCK
  5
27F
330
2A
100
AcDbEntity
  8
0
100
AcDbBlockBegin
  2
110-1
 70
     0
 10
0.0
 20
0.0
 30
0.0
  3
110-1
  1
110-1
  0
LWPOLYLINE
  5
A59
330
2A
100
AcDbEntity
  8
115-1T
100
AcDbPolyline
 90
        4
 70
     0
 43
0.1
 39
0.2
 10
209.3561331029968
 20
116.0254123287669
 10
209.3561331029968
 20
101.3341411532425
 10
253.3766336250816
 20
101.3341411532425
 10
253.3766336250816
 20
116.0254123287669
  0
LINE
  5
A5A
330
2A
100
AcDbEntity
  8
110-1MEK
100
AcDbLine
 10
14.69153005831843
 20
76.52671232876706
 30
0.0
 11
438.6915300583185
 21
76.52671232876706
 31
0.0
  0
LINE
  5
A5B
330
2A
100
AcDbEntity
  8
110-1MEK
100
AcDbLine
 10
438.6915300583185
 20
118.5254123287669
 30
0.0
 11
14.69153005831856
 21
118.5254123287669
 31
0.0
  0
LWPOLYLINE
  5
A5C
330
2A
100
AcDbEntity
  8
115-1T
100
AcDbPolyline
 90
        9
 70
     0
 43
0.2
 10
238.4915320959608
 20
89.62214850893623
 10
238.4915320959608
 20
80.77417793117033
 42
-0.4142135623730951
 10
237.6915320959608
 20
79.97417793117033
 10
215.6828817485731
 20
79.97417793117033
 42
-0.4142135623730965
 10
214.8828817485731
 20
80.77417793117033
 10
214.8828817485731
 20
89.62214850893623
 42
-0.4142135623730944
 10
215.6828817485731
 20
90.42214850893623
 10
237.6915320959608
 20
90.42214850893623
 42
-0.4142135623730951
 10
238.4915320959608
 20
89.62214850893623
  0
TEXT
  5
A5D
330
2A
100
AcDbEntity
  8
115-1T
100
AcDbText
 10
215.6125437615748
 20
84.1962616595253
 30
0.0
 40
2.0
  1
48 - 65 
  7
ariab
100
AcDbText
  0
TEXT
  5
A5E
330
2A
100
AcDbEntity
  8
115-1T
100
AcDbText
 10
215.6125437615748
 20
87.61358449417095
 30
0.0
 40
2.0
  1
90 - 250 
  7
ariab
100
AcDbText
  0
ARC
  5
A5F
330
2A
100
AcDbEntity
  8
110-1MEK
  6
Continuous
100
AcDbCircle
 10
217.6872534611333
 20
109.6341205766889
 30
0.0
 40
6.5
100
AcDbArc
 50
90.00000000000023
 51
89.99990169586066
  0
LWPOLYLINE
  5
A60
330
2A
100
AcDbEntity
  8
115-1T
100
AcDbPolyline
 90
        4
 70
     0
 43
0.2
 39
0.2
 10
101.022136722637
 20
116.0254123287669
 10
101.022136722637
 20
101.3341411532425
 10
64.68729999999995
 20
101.3341411532425
 10
64.68729999999995
 20
116.0254123287669
  0
LWPOLYLINE
  5
A61
330
2A
100
AcDbEntity
  8
115-1T
100
AcDbPolyline
 90
        4
 70
     0
 43
0.1
 39
0.2
 10
137.4676021026121
 20
116.0254123287669
 10
137.4676021026121
 20
101.3341411532425
 10
191.3091911784904
 20
101.3341411532425
 10
191.3091911784904
 20
116.0254123287669
  0
LWPOLYLINE
  5
A62
330
2A
100
AcDbEntity
  8
115-1T
100
AcDbPolyline
 90
        2
 70
     0
 43
0.2
 39
0.2
 10
208.8043496924788
 20
79.02671232876706
 10
208.8043496924788
 20
93.7179835042915
  0
LWPOLYLINE
  5
A63
330
2A
100
AcDbEntity
  8
115-1T
100
AcDbPolyline
 90
        2
 70
     0
 43
0.2
 39
0.2
 10
100.4859229607284
 20
79.02671232876706
 10
100.4859229607284
 20
93.7179835042915
  0
LWPOLYLINE
  5
A64
330
2A
100
AcDbEntity
  8
115-1T
100
AcDbPolyline
 90
        2
 70
     0
 43
0.2
 39
0.2
 10
136.8885839615383
 20
79.02671232876706
 10
136.8885839615383
 20
93.7179835042915
  0
LWPOLYLINE
  5
A65
330
2A
100
AcDbEntity
  8
115-1T
100
AcDbPolyline
 90
        2
 70
     0
 43
0.2
 39
0.2
 10
172.5701572297881
 20
79.02671232876706
 10
172.5701572297881
 20
93.7179835042915
  0
TEXT
  5
A66
330
2A
100
AcDbEntity
  8
115-1T
100
AcDbText
 10
79.36204826849077
 20
115.0311339214762
 30
0.0
 40
2.0
  1
OUT
  7
ariab
100
AcDbText
  0
LWPOLYLINE
  5
A67
330
2A
100
AcDbEntity
  8
115-1T
100
AcDbPolyline
 90
        2
 70
     0
 43
0.0
 10
45.28970744418066
 20
97.98457059322217
 10
61.29992801492207
 20
102.2744962657964
  0
LWPOLYLINE
  5
A68
330
2A
100
AcDbEntity
  8
115-1T
100
AcDbPolyline
 90
        2
 70
     0
 43
0.0
 10
53.29481772955138
 20
91.84203342950921
 10
53.29481772955138
 20
108.4170334295092
  0
LWPOLYLINE
  5
A69
330
2A
100
AcDbEntity
  8
115-1T
100
AcDbPolyline
 90
        2
 70
     0
 43
0.0
 10
55.43978056583853
 20
92.12442314413861
 10
51.14985489326425
 20
108.1346437148799
  0
ARC
  5
A6A
330
2A
100
AcDbEntity
  8
110-1MEK
100
AcDbCircle
 10
53.29481772955141
 20
100.1295334295092
 30
0.0
 40
11.1
100
AcDbArc
 50
270.0217223615691
 51
270.0
  0
LINE
  5
A6B
330
2A
100
AcDbEntity
  8
110-1MEK
100
AcDbLine
 10
14.69153005831843
 20
118.5267123287669
 30
0.0
 11
14.69153005831843
 21
76.52671232876706
 31
0.0
  0
LINE
  5
A6C
330
2A
100
AcDbEntity
  8
110-1MEK
100
AcDbLine
 10
16.69153005831847
 20
118.5267123287669
 30
0.0
 11
16.69153005831847
 21
78.52671232876708
 31
0.0
  0
LWPOLYLINE
  5
A6D
330
2A
100
AcDbEntity
  8
115-1T
100
AcDbPolyline
 90
        2
 70
     0
 43
0.0
 10
31.33477198959711
 20
88.67709000136073
 10
26.05486346950571
 20
108.3819768576578
  0
LWPOLYLINE
  5
A6E
330
2A
100
AcDbEntity
  8
115-1T
100
AcDbPolyline
 90
        2
 70
     0
 43
0.0
 10
28.69481772955142
 20
88.3295334295092
 10
28.69481772955142
 20
108.7295334295093
  0
ARC
  5
A6F
330
2A
100
AcDbEntity
  8
110-1MEK
100
AcDbCircle
 10
28.69481772955139
 20
98.52953342950932
 30
0.0
 40
12.0
100
AcDbArc
 50
90.0
 51
89.99994040607615
  0
LWPOLYLINE
  5
A70
330
2A
100
AcDbEntity
  8
115-1T
100
AcDbPolyline
 90
        2
 70
     0
 43
0.0
 10
45.0073177295513
 20
100.1295334295092
 10
61.58231772955136
 20
100.1295334295092
  0
TEXT
  5
A71
330
2A
100
AcDbEntity
  8
115-1T
100
AcDbText
 10
47.62837843896478
 20
79.64377667984017
 30
0.0
 40
2.0
  1
AUDIO 1
  7
ariab
 72
     1
 11
53.29481772955141
 21
79.64377667984017
 31
0.0
100
AcDbText
  0
TEXT
  5
A72
330
2A
100
AcDbEntity
  8
115-1T
100
AcDbText
 10
47.08472223159779
 20
82.44377653820455
 30
0.0
 40
2.0
  1
AES/EBU
  7
ariab
 72
     1
 11
53.29481772955141
 21
82.44377653820455
 31
0.0
100
AcDbText
  0
TEXT
  5
A73
330
2A
100
AcDbEntity
  8
115-1T
100
AcDbText
 10
20.93356261358957
 20
79.6437766799858
 30
0.0
 40
2.0
  1
TIME CODE
  7
ariab
 72
     1
 11
28.69481772955138
 21
79.6437766799858
 31
0.0
100
AcDbText
  0
LWPOLYLINE
  5
A74
330
2A
100
AcDbEntity
  8
115-1T
100
AcDbPolyline
 90
        2
 70
     0
 43
0.0
 10
18.49481772955131
 20
98.52953342950932
 10
38.89481772955138
 20
98.52953342950932
  0
LWPOLYLINE
  5
A75
330
2A
100
AcDbEntity
  8
115-1T
100
AcDbPolyline
 90
        2
 70
     0
 43
0.0
 10
18.84237430140285
 20
95.88957916946361
 10
38.54726115769995
 20
101.169487689555
  0
POINT
  5
A76
330
2A
100
AcDbEntity
  8
110-1MEK
  6
ByBlock
 62
     0
100
AcDbPoint
 10
16.69153005831858
 20
79.52671232876693
 30
0.0
  0
POINT
  5
A77
330
2A
100
AcDbEntity
  8
110-1MEK
  6
ByBlock
 62
     0
100
AcDbPoint
 10
16.69153005831858
 20
79.52671232876693
 30
0.0
  0
POINT
  5
A78
330
2A
100
AcDbEntity
  8
110-1MEK
  6
ByBlock
 62
     0
100
AcDbPoint
 10
16.69153005831858
 20
79.52671232876693
 30
0.0
  0
POINT
  5
A79
330
2A
100
AcDbEntity
  8
110-1MEK
  6
ByBlock
 62
     0
100
AcDbPoint
 10
16.69153005831858
 20
79.52671232876693
 30
0.0
  0
POINT
  5
A7A
330
2A
100
AcDbEntity
  8
110-1MEK
  6
ByBlock
 62
     0
100
AcDbPoint
 10
16.69153005831858
 20
82.52671232876693
 30
0.0
  0
POINT
  5
A7B
330
2A
100
AcDbEntity
  8
110-1MEK
  6
ByBlock
 62
     0
100
AcDbPoint
 10
16.69153005831858
 20
87.37671232876706
 30
0.0
  0
POINT
  5
A7C
330
2A
100
AcDbEntity
  8
110-1MEK
  6
ByBlock
 62
     0
100
AcDbPoint
 10
16.69153005831858
 20
86.12671232876706
 30
0.0
  0
POINT
  5
A7D
330
2A
100
AcDbEntity
  8
110-1MEK
  6
ByBlock
 62
     0
100
AcDbPoint
 10
16.69153005831858
 20
85.82671232876689
 30
0.0
  0
ARC
  5
A7E
330
2A
100
AcDbEntity
  8
110-1MEK
100
AcDbCircle
 10
38.19481772955139
 20
86.52953342950931
 30
0.0
 40
1.0
100
AcDbArc
 50
78.18019582229445
 51
78.15893328970211
  0
ARC
  5
A7F
330
2A
100
AcDbEntity
  8
110-1MEK
100
AcDbCircle
 10
38.19481772955139
 20
86.52953342950931
 30
0.0
 40
1.25
100
AcDbArc
 50
349.292495052947
 51
268.9155903193845
  0
ARC
  5
A80
330
2A
100
AcDbEntity
  8
110-1MEK
100
AcDbCircle
 10
61.6948177295514
 20
88.9295334295093
 30
0.0
 40
1.7
100
AcDbArc
 50
82.83624577137214
 51
82.83192700216664
  0
ARC
  5
A81
330
2A
100
AcDbEntity
  8
110-1MEK
  6
Continuous
100
AcDbCircle
 10
73.68725346113349
 20
93.03412057668884
 30
0.0
 40
6.5
100
AcDbArc
 50
90.00000000000023
 51
89.99990169586066
  0
TEXT
  5
A82
330
2A
100
AcDbEntity
  8
115-1T
100
AcDbText
 10
68.02081417054683
 20
79.64377667998578
 30
0.0
 40
2.0
  1
AUDIO 1
  7
ariab
 72
     1
 11
73.68725346113347
 21
79.64377667998578
 31
0.0
100
AcDbText
  0
TEXT
  5
A83
330
2A
100
AcDbEntity
  8
115-1T
100
AcDbText
 10
67.47715796317985
 20
82.44377653820455
 30
0.0
 40
2.0
  1
AES/EBU
  7
ariab
 72
     1
 11
73.68725346113347
 21
82.44377653820455
 31
0.0
100
AcDbText
  0
TEXT
  5
A84
330
2A
100
AcDbEntity
  8
115-1T
100
AcDbText
 10
48.44637724889729
 20
113.118866348283
 30
0.0
 40
2.0
  1
SDI GENL
  7
ariab
100
AcDbText
  0
ARC
  5
A85
330
2A
100
AcDbEntity
  8
110-1MEK
100
AcDbCircle
 10
19.1948177295514
 20
110.5295334295093
 30
0.0
 40
1.0
100
AcDbArc
 50
78.18019582229445
 51
78.15893328970211
  0
ARC
  5
A86
330
2A
100
AcDbEntity
  8
110-1MEK
100
AcDbCircle
 10
19.1948177295514
 20
110.5295334295093
 30
0.0
 40
1.25
100
AcDbArc
 50
5.710635610225794
 51
240.7011812490242
  0
ARC
  5
A87
330
2A
100
AcDbEntity
  8
110-1MEK
100
AcDbCircle
 10
44.89481772955139
 20
111.3295334295093
 30
0.0
 40
1.7
100
AcDbArc
 50
272.7202676712737
 51
272.7175071860072
  0
HATCH
  5
A88
330
2A
100
AcDbEntity
  8
115-1T
100
AcDbHatch
 10
0.0
 20
0.0
 30
0.0
210
0.0
220
0.0
230
1.0
  2
SOLID
 70
     1
 71
     1
 91
        1
 92
        1
 93
        3
 72
     1
 10
62.27446059300604
 20
115.1317923854334
 11
64.01041065038967
 21
114.1295411525032
 72
     1
 10
64.01041065038967
 20
114.1295411525032
 11
62.27446059300604
 21
113.1272899195731
 72
     1
 10
62.27446059300604
 20
113.1272899195731
 11
62.27446059300604
 21
115.1317923854334
 97
        1
330
A89
 75
     0
 76
     1
 98
        1
 10
0.0
 20
0.0
  0
LWPOLYLINE
  5
A89
102
{ACAD_REACTORS
330
A88
102
}
330
2A
100
AcDbEntity
  8
115-1T
100
AcDbPolyline
 90
        3
 70
     1
 43
0.0
 10
62.27446059300604
 20
115.1317923854334
 10
64.01041065038967
 20
114.1295411525032
 10
62.27446059300604
 20
113.1272899195731
  0
ARC
  5
A8A
330
2A
100
AcDbEntity
  8
110-1MEK
  6
Continuous
100
AcDbCircle
 10
73.68725346113349
 20
109.6341205766889
 30
0.0
 40
6.5
100
AcDbArc
 50
90.00009830413931
 51
89.99999999999976
  0
TEXT
  5
A8B
330
2A
100
AcDbEntity
  8
115-1T
100
AcDbText
 10
145.4505549618156
 20
79.64049009443908
 30
0.0
 40
2.0
  1
  ANL    TPG 5
  7
ariab
 72
     1
 11
154.6872534611335
 21
79.64049009443908
 31
0.0
100
AcDbText
  0
TEXT
  5
A8C
330
2A
100
AcDbEntity
  8
115-1T
100
AcDbText
 10
145.6047159440803
 20
82.44377653820455
 30
0.0
 40
2.0
  1
  SDI     TPG 5
  7
ariab
 72
     1
 11
154.6872534611335
 21
82.44377653820455
 31
0.0
100
AcDbText
  0
LWPOLYLINE
  5
A8D
330
2A
100
AcDbEntity
  8
115-1T
100
AcDbPolyline
 90
        2
 70
     0
 43
0.225
 10
117.3437634207265
 20
83.17564965402706
 10
119.2580836195537
 20
83.17564965402706
  0
TEXT
  5
A8E
330
2A
100
AcDbEntity
  8
115-1T
100
AcDbText
 10
109.6047159440802
 20
82.44377653820455
 30
0.0
 40
2.0
  1
  SDI     TSG 4
  7
ariab
 72
     1
 11
118.6872534611334
 21
82.44377653820455
 31
0.0
100
AcDbText
  0
ARC
  5
A8F
330
2A
100
AcDbEntity
  8
110-1MEK
  6
Continuous
100
AcDbCircle
 10
91.68725346113347
 20
93.03412057668884
 30
0.0
 40
6.5
100
AcDbArc
 50
90.00000000000023
 51
89.99990169586066
  0
TEXT
  5
A90
330
2A
100
AcDbEntity
  8
115-1T
100
AcDbText
 10
86.02081417054685
 20
79.64377667998578
 30
0.0
 40
2.0
  1
AUDIO 2
  7
ariab
 72
     1
 11
91.68725346113347
 21
79.64377667998578
 31
0.0
100
AcDbText
  0
TEXT
  5
A91
330
2A
100
AcDbEntity
  8
115-1T
100
AcDbText
 10
85.47715796317985
 20
82.44377653820455
 30
0.0
 40
2.0
  1
AES/EBU
  7
ariab
 72
     1
 11
91.68725346113347
 21
82.44377653820455
 31
0.0
100
AcDbText
  0
ARC
  5
A92
330
2A
100
AcDbEntity
  8
110-1MEK
  6
Continuous
100
AcDbCircle
 10
109.6872534611335
 20
93.03412057668884
 30
0.0
 40
6.5
100
AcDbArc
 50
90.00000000000023
 51
89.99990169586066
  0
ARC
  5
A93
330
2A
100
AcDbEntity
  8
110-1MEK
  6
Continuous
100
AcDbCircle
 10
127.6872534611334
 20
93.03412057668884
 30
0.0
 40
6.5
100
AcDbArc
 50
90.00000000000023
 51
89.99990169586066
  0
ARC
  5
A94
330
2A
100
AcDbEntity
  8
110-1MEK
  6
Continuous
100
AcDbCircle
 10
145.6872534611334
 20
93.03412057668884
 30
0.0
 40
6.5
100
AcDbArc
 50
90.00000000000023
 51
89.99990169586066
  0
ARC
  5
A95
330
2A
100
AcDbEntity
  8
110-1MEK
  6
Continuous
100
AcDbCircle
 10
91.68725346113347
 20
109.6341205766889
 30
0.0
 40
6.5
100
AcDbArc
 50
90.00009830413931
 51
89.99999999999976
  0
TEXT
  5
A96
330
2A
100
AcDbEntity
  8
115-1T
100
AcDbText
 10
97.67778545313246
 20
115.0075056090252
 30
0.0
 40
2.0
  1
IN
  7
ariab
100
AcDbText
  0
ARC
  5
A97
330
2A
100
AcDbEntity
  8
110-1MEK
  6
Continuous
100
AcDbCircle
 10
109.6872534611335
 20
109.6341205766889
 30
0.0
 40
6.5
100
AcDbArc
 50
90.00000000000023
 51
89.99990169586066
  0
TEXT
  5
A98
330
2A
100
AcDbEntity
  8
115-1T
100
AcDbText
 10
125.8821324775328
 20
107.6302478651925
 30
0.0
 40
2.0
  1
SDI BLK
  7
ariab
100
AcDbText
  0
TEXT
  5
A99
330
2A
100
AcDbEntity
  8
115-1T
100
AcDbText
 10
125.8821324775328
 20
104.8285965858674
 30
0.0
 40
2.0
  1
ANL BB
  7
ariab
100
AcDbText
  0
TEXT
  5
A9A
330
2A
100
AcDbEntity
  8
115-1T
100
AcDbText
 10
118.3928348825259
 20
113.224288184808
 30
0.0
 40
2.0
  1
WORD
  7
ariab
100
AcDbText
  0
TEXT
  5
A9B
330
2A
100
AcDbEntity
  8
115-1T
100
AcDbText
 10
118.3928348825259
 20
110.4267124596424
 30
0.0
 40
2.0
  1
CLOCK
  7
ariab
100
AcDbText
  0
ARC
  5
A9C
330
2A
100
AcDbEntity
  8
110-1MEK
  6
Continuous
100
AcDbCircle
 10
145.6872534611334
 20
109.6341205766887
 30
0.0
 40
6.5
100
AcDbArc
 50
90.00000000000023
 51
89.99990169586066
  0
ARC
  5
A9D
330
2A
100
AcDbEntity
  8
110-1MEK
  6
Continuous
100
AcDbCircle
 10
181.6872534611333
 20
93.03412057668884
 30
0.0
 40
6.5
100
AcDbArc
 50
90.00000000000023
 51
89.99990169586066
  0
TEXT
  5
A9E
330
2A
100
AcDbEntity
  8
115-1T
100
AcDbText
 10
181.6047159440803
 20
82.44377653820455
 30
0.0
 40
2.0
  1
  SDI     TSG 3
  7
ariab
 72
     1
 11
190.6872534611335
 21
82.44377653820455
 31
0.0
100
AcDbText
  0
ARC
  5
A9F
330
2A
100
AcDbEntity
  8
110-1MEK
  6
Continuous
100
AcDbCircle
 10
163.6872534611334
 20
93.03412057668884
 30
0.0
 40
6.5
100
AcDbArc
 50
90.00000000000023
 51
89.99990169586066
  0
LWPOLYLINE
  5
AA0
330
2A
100
AcDbEntity
  8
115-1T
100
AcDbPolyline
 90
        2
 70
     0
 43
0.225
 10
153.3437634207265
 20
83.17564965402706
 10
155.2580836195536
 20
83.17564965402706
  0
LWPOLYLINE
  5
AA1
330
2A
100
AcDbEntity
  8
115-1T
100
AcDbPolyline
 90
        2
 70
     0
 43
0.225
 10
153.3437634207265
 20
80.36626615251924
 10
155.2580836195536
 20
80.36626615251924
  0
ARC
  5
AA2
330
2A
100
AcDbEntity
  8
110-1MEK
  6
Continuous
100
AcDbCircle
 10
199.6872534611333
 20
93.03412057668884
 30
0.0
 40
6.5
100
AcDbArc
 50
90.00000000000023
 51
89.99990169586066
  0
LWPOLYLINE
  5
AA3
330
2A
100
AcDbEntity
  8
115-1T
100
AcDbPolyline
 90
        2
 70
     0
 43
0.225
 10
189.3437634207264
 20
83.17564965402706
 10
191.2580836195536
 20
83.17564965402706
  0
TEXT
  5
AA4
330
2A
100
AcDbEntity
  8
115-1T
100
AcDbText
 10
215.6125437615748
 20
80.77893882487963
 30
0.0
 40
2.0
  1
90 
  7
ariab
100
AcDbText
  0
TEXT
  5
AA5
330
2A
100
AcDbEntity
  8
115-1T
100
AcDbText
 10
171.5821079016227
 20
108.63352634978
 30
0.0
 40
2.0
  1
  SDI     TPG 2
  7
ariab
 72
     1
 11
180.6646454186759
 21
108.63352634978
 31
0.0
100
AcDbText
  0
TEXT
  5
AA6
330
2A
100
AcDbEntity
  8
115-1T
100
AcDbText
 10
171.3879884353424
 20
105.8321324680139
 30
0.0
 40
2.0
  1
  ANL    TPG 2
  7
ariab
 72
     1
 11
180.6246869346603
 21
105.8321324680139
 31
0.0
100
AcDbText
  0
TEXT
  5
AA7
330
2A
100
AcDbEntity
  8
115-1T
100
AcDbText
 10
171.5821079016227
 20
111.4368838750717
 30
0.0
 40
2.0
  1
  SDI     TSG 2
  7
ariab
 72
     1
 11
180.6646454186759
 21
111.4368838750717
 31
0.0
100
AcDbText
  0
ARC
  5
AA8
330
2A
100
AcDbEntity
  8
110-1MEK
  6
Continuous
100
AcDbCircle
 10
163.6872534611334
 20
109.6341205766887
 30
0.0
 40
6.5
100
AcDbArc
 50
90.00000000000023
 51
89.99990169586066
  0
LWPOLYLINE
  5
AA9
330
2A
100
AcDbEntity
  8
115-1T
100
AcDbPolyline
 90
        2
 70
     0
 43
0.225
 10
179.2811968942533
 20
106.5579085260942
 10
181.1955170930804
 20
106.5579085260942
  0
LWPOLYLINE
  5
AAA
330
2A
100
AcDbEntity
  8
115-1T
100
AcDbPolyline
 90
        2
 70
     0
 43
0.225
 10
179.321155378269
 20
109.3653994656024
 10
181.2354755770961
 20
109.3653994656024
  0
LWPOLYLINE
  5
AAB
330
2A
100
AcDbEntity
  8
115-1T
100
AcDbPolyline
 90
        2
 70
     0
 43
0.225
 10
179.321155378269
 20
112.1687569908943
 10
181.2354755770961
 20
112.1687569908943
  0
LWPOLYLINE
  5
AAC
330
2A
100
AcDbEntity
  8
115-1T
100
AcDbPolyline
 90
        2
 70
     0
 43
0.0
 10
339.9161525873289
 20
94.56960203944083
 10
369.4734828717738
 20
102.4894648195777
  0
LWPOLYLINE
  5
AAD
330
2A
100
AcDbEntity
  8
115-1T
100
AcDbPolyline
 90
        2
 70
     0
 43
0.0
 10
339.3948177295516
 20
98.52953342950932
 10
369.9948177295512
 20
98.52953342950932
  0
ARC
  5
AAE
330
2A
100
AcDbEntity
  8
110-1MEK
100
AcDbCircle
 10
354.6948177295514
 20
98.52953342950932
 30
0.0
 40
18.0
100
AcDbArc
 50
270.0001067631045
 51
269.999999999999
  0
TEXT
  5
AAF
330
2A
100
AcDbEntity
  8
115-1T
100
AcDbText
 10
282.7022602824157
 20
82.44377653820455
 30
0.0
 40
2.0
  1
GENLOCK
  7
ariab
 72
     1
 11
289.6872534611333
 21
82.44377653820455
 31
0.0
100
AcDbText
  0
TEXT
  5
AB0
330
2A
100
AcDbEntity
  8
115-1T
100
AcDbText
 10
283.0910733792803
 20
79.64377667998589
 30
0.0
 40
2.0
  1
MONITOR
  7
ariab
 72
     1
 11
289.6872534611357
 21
79.64377667998589
 31
0.0
100
AcDbText
  0
ARC
  5
AB1
330
2A
100
AcDbEntity
  8
110-1MEK
  6
Continuous
100
AcDbCircle
 10
289.6872534611332
 20
93.03412057668884
 30
0.0
 40
6.5
100
AcDbArc
 50
90.00000000000023
 51
89.99990169586066
  0
ARC
  5
AB2
330
2A
100
AcDbEntity
  8
110-1MEK
  6
Continuous
100
AcDbCircle
 10
253.6872534611331
 20
93.03412057668884
 30
0.0
 40
6.5
100
AcDbArc
 50
90.00000000000023
 51
89.99990169586066
  0
TEXT
  5
AB3
330
2A
100
AcDbEntity
  8
115-1T
100
AcDbText
 10
250.504443092784
 20
82.44377653820455
 30
0.0
 40
2.0
  1
BB 2
  7
ariab
 72
     1
 11
253.6872534611333
 21
82.44377653820455
 31
0.0
100
AcDbText
  0
TEXT
  5
AB4
330
2A
100
AcDbEntity
  8
115-1T
100
AcDbText
 10
226.4620353374535
 20
87.61358449417095
 30
0.0
 40
2.0
  1
 VAC
  7
ariab
100
AcDbText
  0
TEXT
  5
AB5
330
2A
100
AcDbEntity
  8
115-1T
100
AcDbText
 10
226.4620353374535
 20
80.77893882487963
 30
0.0
 40
2.0
  1
 VA max
  7
ariab
100
AcDbText
  0
TEXT
  5
AB6
330
2A
100
AcDbEntity
  8
115-1T
100
AcDbText
 10
226.4620353374535
 20
84.1962616595253
 30
0.0
 40
2.0
  1
 Hz
  7
ariab
100
AcDbText
  0
ARC
  5
AB7
330
2A
100
AcDbEntity
  8
110-1MEK
  6
Continuous
100
AcDbCircle
 10
271.6872534611332
 20
93.03412057668884
 30
0.0
 40
6.5
100
AcDbArc
 50
90.00000000000023
 51
89.99990169586066
  0
TEXT
  5
AB8
330
2A
100
AcDbEntity
  8
115-1T
100
AcDbText
 10
268.504443092784
 20
82.44377653820455
 30
0.0
 40
2.0
  1
BB 1
  7
ariab
 72
     1
 11
271.6872534611332
 21
82.44377653820455
 31
0.0
100
AcDbText
  0
ARC
  5
AB9
330
2A
100
AcDbEntity
  8
110-1MEK
  6
Continuous
100
AcDbCircle
 10
235.6872534611333
 20
109.6341205766889
 30
0.0
 40
6.5
100
AcDbArc
 50
90.00000000000023
 51
89.99990169586066
  0
LWPOLYLINE
  5
ABA
330
2A
100
AcDbEntity
  8
115-1T
100
AcDbPolyline
 90
        2
 70
     0
 43
0.0
 10
230.0365873773421
 20
108.120029162839
 10
241.3379195449243
 20
111.1482119905385
  0
LWPOLYLINE
  5
ABB
330
2A
100
AcDbEntity
  8
115-1T
100
AcDbPolyline
 90
        2
 70
     0
 43
0.0
 10
229.8372534611333
 20
109.6341205766889
 10
241.5372534611333
 20
109.6341205766889
  0
LWPOLYLINE
  5
ABC
330
2A
100
AcDbEntity
  8
115-1T
100
AcDbPolyline
 90
        2
 70
     0
 43
0.0
 10
235.6872534611333
 20
103.7841205766889
 10
235.6872534611333
 20
115.4841205766888
  0
LWPOLYLINE
  5
ABD
330
2A
100
AcDbEntity
  8
115-1T
100
AcDbPolyline
 90
        2
 70
     0
 43
0.0
 10
237.201344874983
 20
103.9834544928977
 10
234.1731620472835
 20
115.2847866604799
  0
TEXT
  5
ABE
330
2A
100
AcDbEntity
  8
115-1T
100
AcDbText
 10
244.5701572297881
 20
111.4368826959124
 30
0.0
 40
2.0
  1
SDI
  7
ariab
100
AcDbText
  0
TEXT
  5
ABF
330
2A
100
AcDbEntity
  8
115-1T
100
AcDbText
 10
244.4859229607284
 20
108.6341205766889
 30
0.0
 40
2.0
  1
TPG 1
  7
ariab
100
AcDbText
  0
TEXT
  5
AC0
330
2A
100
AcDbEntity
  8
115-1T
100
AcDbText
 10
262.7785631947245
 20
102.7289397431095
 30
0.0
 40
2.0
  1
CHANGE OVER
  7
ariab
 72
     1
 11
273.1796545999086
 21
102.7289397431095
 31
0.0
100
AcDbText
  0
LWPOLYLINE
  5
AC1
330
2A
100
AcDbEntity
  8
110-1MEK
100
AcDbPolyline
 90
        9
 70
     0
 43
0.0
 10
263.6594624436903
 20
112.927268273728
 42
-0.4673354665998769
 10
267.0057967566133
 20
116.928971411624
 10
279.353512443204
 20
116.928971411624
 42
-0.4688453271497682
 10
282.6968248792381
 20
112.9106980456602
 10
281.8461543128916
 20
108.31069804566
 42
-0.3616137540369309
 10
278.5028418768575
 20
105.528971411624
 10
267.8329210590575
 20
105.528971411624
 42
-0.3630148289364383
 10
264.4865867461344
 20
108.327268273728
 10
263.6588031126728
 20
112.9309351018844
 42
-0.4673354665998769
  0
ARC
  5
AC2
330
2A
100
AcDbEntity
  8
110-1MEK
100
AcDbCircle
 10
260.6899176792292
 20
111.228971411624
 30
0.0
 40
1.6
100
AcDbArc
 50
28.05757954221024
 51
27.96068303716584
  0
ARC
  5
AC3
330
2A
100
AcDbEntity
  8
110-1MEK
100
AcDbCircle
 10
285.6693915205882
 20
111.228971411624
 30
0.0
 40
1.6
100
AcDbArc
 50
152.039316962834
 51
151.9424204577896
  0
LWPOLYLINE
  5
AC4
330
2A
100
AcDbEntity
  8
115-1T
100
AcDbPolyline
 90
        2
 70
     0
 43
0.0
 10
354.6948177295512
 20
83.22953342950961
 10
354.6948177295512
 20
113.8295334295089
  0
LWPOLYLINE
  5
AC5
330
2A
100
AcDbEntity
  8
115-1T
100
AcDbPolyline
 90
        2
 70
     0
 43
0.0
 10
358.6547491196198
 20
83.75086828728681
 10
350.7348863394827
 20
113.3081985717316
  0
TEXT
  5
AC6
330
2A
100
AcDbEntity
  8
115-1T
100
AcDbText
 10
324.6783857940119
 20
82.44377653820455
 30
0.0
 40
2.0
  1
A
  7
ariab
 72
     1
 11
325.6872534611333
 21
82.44377653820455
 31
0.0
100
AcDbText
  0
TEXT
  5
AC7
330
2A
100
AcDbEntity
  8
115-1T
100
AcDbText
 10
303.2609233110651
 20
79.64377667998467
 30
0.0
 40
2.0
  1
ANALOG GENLOCK
  7
ariab
 72
     1
 11
316.6872534611333
 21
79.64377667998467
 31
0.0
100
AcDbText
  0
ARC
  5
AC8
330
2A
100
AcDbEntity
  8
110-1MEK
  6
Continuous
100
AcDbCircle
 10
325.6872534611332
 20
93.03412057668884
 30
0.0
 40
6.5
100
AcDbArc
 50
90.00000000000023
 51
89.99990169586066
  0
ARC
  5
AC9
330
2A
100
AcDbEntity
  8
110-1MEK
  6
Continuous
100
AcDbCircle
 10
307.6872534611331
 20
93.03412057668884
 30
0.0
 40
6.5
100
AcDbArc
 50
90.00000000000023
 51
89.99990169586066
  0
TEXT
  5
ACA
330
2A
100
AcDbEntity
  8
115-1T
100
AcDbText
 10
306.678385794012
 20
82.44377653820455
 30
0.0
 40
2.0
  1
B
  7
ariab
 72
     1
 11
307.6872534611335
 21
82.44377653820455
 31
0.0
100
AcDbText
  0
ARC
  5
ACB
330
2A
100
AcDbEntity
  8
110-1MEK
100
AcDbCircle
 10
338.6948177295514
 20
82.52953342950931
 30
0.0
 40
1.75
100
AcDbArc
 50
274.0923671433289
 51
274.0914588667952
  0
ARC
  5
ACC
330
2A
100
AcDbEntity
  8
110-1MEK
100
AcDbCircle
 10
325.6693915205882
 20
111.228971411624
 30
0.0
 40
1.6
100
AcDbArc
 50
152.039316962834
 51
151.9424204577896
  0
TEXT
  5
ACD
330
2A
100
AcDbEntity
  8
115-1T
100
AcDbText
 10
307.2035290883125
 20
102.7289397431095
 30
0.0
 40
2.0
  1
REMOTE
  7
ariab
 72
     1
 11
313.1796545999087
 21
102.7289397431095
 31
0.0
100
AcDbText
  0
LWPOLYLINE
  5
ACE
330
2A
100
AcDbEntity
  8
110-1MEK
100
AcDbPolyline
 90
        9
 70
     0
 43
0.0
 10
303.6594624436903
 20
112.9272682737282
 42
-0.4673354665998769
 10
307.0057967566134
 20
116.928971411624
 10
319.3535124432041
 20
116.928971411624
 42
-0.4688453271497682
 10
322.6968248792381
 20
112.9106980456602
 10
321.8461543128916
 20
108.31069804566
 42
-0.3616137540369309
 10
318.5028418768576
 20
105.528971411624
 10
307.8329210590575
 20
105.528971411624
 42
-0.3630148289364383
 10
304.4865867461345
 20
108.327268273728
 10
303.6588031126727
 20
112.9309351018844
  0
ARC
  5
ACF
330
2A
100
AcDbEntity
  8
110-1MEK
100
AcDbCircle
 10
300.6899176792292
 20
111.228971411624
 30
0.0
 40
1.6
100
AcDbArc
 50
28.05757954221024
 51
27.96068303716584
  0
ARC
  5
AD0
330
2A
100
AcDbEntity
  8
110-1MEK
100
AcDbCircle
 10
338.6948177295514
 20
114.5295334295093
 30
0.0
 40
1.75
100
AcDbArc
 50
85.9085411332048
 51
85.90763285667096
  0
HATCH
  5
AD1
330
2A
100
AcDbEntity
  8
115-1T
100
AcDbHatch
 10
0.0
 20
0.0
 30
0.0
210
0.0
220
0.0
230
1.0
  2
SOLID
 70
     1
 71
     1
 91
        2
 92
        1
 93
        4
 72
     2
 10
331.3592156547113
 20
106.7698180768158
 40
2.499999999999981
 50
84.26082952273317
 51
275.7391704772667
 73
     0
 72
     1
 10
331.6092156547113
 20
109.2572866695822
 11
331.6092156547113
 21
108.5018688843847
 72
     2
 10
331.3592156547113
 20
106.7698180768158
 40
1.750000000000004
 50
81.78678929826181
 51
278.2132107017381
 73
     1
 72
     1
 10
331.6092156547113
 20
105.0377672692468
 11
331.6092156547113
 21
104.2823494840491
 97
        1
330
AD4
 92
        1
 93
        4
 72
     2
 10
335.6092156547113
 20
106.7698180768158
 40
1.749999999999989
 50
81.78678929826178
 51
278.2132107017381
 73
     0
 72
     1
 10
335.8592156547113
 20
108.5018688843845
 11
335.8592156547113
 21
109.2572866695822
 72
     2
 10
335.6092156547113
 20
106.7698180768158
 40
2.499999999999981
 50
84.26082952273317
 51
275.7391704772667
 73
     1
 72
     1
 10
335.8592156547113
 20
104.2823494840491
 11
335.8592156547113
 21
105.0377672692468
 97
        1
330
AD3
 75
     0
 76
     1
 98
        1
 10
0.0
 20
0.0
  0
LWPOLYLINE
  5
AD2
330
2A
100
AcDbEntity
  8
115-1T
100
AcDbPolyline
 90
        2
 70
     0
 43
0.7500000000000002
 10
333.4842156547113
 20
106.7698180768158
 10
335.3592156547113
 20
106.7698180768158
  0
LWPOLYLINE
  5
AD3
102
{ACAD_REACTORS
330
AD1
102
}
330
2A
100
AcDbEntity
  8
115-1T
100
AcDbPolyline
 90
        4
 70
     1
 43
0.0
 10
335.8592156547113
 20
105.0377672692468
 42
-1.154700538379251
 10
335.8592156547113
 20
108.5018688843845
 10
335.8592156547113
 20
109.2572866695822
 42
1.105541596785132
 10
335.8592156547113
 20
104.2823494840491
  0
LWPOLYLINE
  5
AD4
102
{ACAD_REACTORS
330
AD1
102
}
330
2A
100
AcDbEntity
  8
115-1T
100
AcDbPolyline
 90
        4
 70
     1
 43
0.0
 10
331.6092156547113
 20
104.2823494840491
 42
-1.105541596785134
 10
331.6092156547113
 20
109.2572866695822
 10
331.6092156547113
 20
108.5018688843847
 42
1.154700538379251
 10
331.6092156547113
 20
105.0377672692468
  0
LINE
  5
AD5
330
2A
100
AcDbEntity
  8
110-1MEK
100
AcDbLine
 10
432.1915300583183
 20
83.77671232876705
 30
0.0
 11
419.1915300583183
 21
83.77671232876705
 31
0.0
  0
LINE
  5
AD6
330
2A
100
AcDbEntity
  8
110-1MEK
100
AcDbLine
 10
432.1915300583183
 20
103.2767123287669
 30
0.0
 11
419.1915300583183
 21
103.2767123287669
 31
0.0
  0
LINE
  5
AD7
330
2A
100
AcDbEntity
  8
110-1MEK
100
AcDbLine
 10
381.1915300583184
 20
78.52671232876708
 30
0.0
 11
381.1915300583184
 21
111.5267123287669
 31
0.0
  0
LINE
  5
AD8
330
2A
100
AcDbEntity
  8
110-1MEK
100
AcDbLine
 10
419.1915300583183
 20
103.2767123287669
 30
0.0
 11
419.1915300583183
 21
83.77671232876705
 31
0.0
  0
LINE
  5
AD9
330
2A
100
AcDbEntity
  8
110-1MEK
100
AcDbLine
 10
410.1915300583184
 20
111.5267123287669
 30
0.0
 11
410.1915300583184
 21
78.52671232876708
 31
0.0
  0
LINE
  5
ADA
330
2A
100
AcDbEntity
  8
110-1MEK
100
AcDbLine
 10
410.1915300583184
 20
78.52671232876708
 30
0.0
 11
381.1915300583184
 21
78.52671232876708
 31
0.0
  0
ARC
  5
ADB
330
2A
100
AcDbEntity
  8
110-1MEK
  6
Continuous
100
AcDbCircle
 10
377.6915300583183
 20
95.02671232876707
 30
0.0
 40
1.5
100
AcDbArc
 50
89.87443602826642
 51
89.87412619232875
  0
ARC
  5
ADC
330
2A
100
AcDbEntity
  8
110-1MEK
100
AcDbCircle
 10
370.6948177295513
 20
82.52953342950931
 30
0.0
 40
1.75
100
AcDbArc
 50
265.9085411332046
 51
265.9076328566708
  0
ARC
  5
ADD
330
2A
100
AcDbEntity
  8
110-1MEK
  6
Continuous
100
AcDbCircle
 10
413.6915300583184
 20
95.02671232876707
 30
0.0
 40
1.5
100
AcDbArc
 50
90.12587380767122
 51
90.1255639717336
  0
LINE
  5
ADE
330
2A
100
AcDbEntity
  8
110-1MEK
100
AcDbLine
 10
381.1915300583184
 20
111.5267123287669
 30
0.0
 11
410.1915300583184
 21
111.5267123287669
 31
0.0
  0
TEXT
  5
ADF
330
2A
100
AcDbEntity
  8
115-1T
100
AcDbText
 10
387.3852544785094
 20
113.0560376323023
 30
0.0
 40
2.0
  1
FUSE 1,6 AT
  7
ariab
 72
     1
 11
395.6915300583183
 21
113.0560376323023
 31
0.0
100
AcDbText
  0
ARC
  5
AE0
330
2A
100
AcDbEntity
  8
110-1MEK
100
AcDbCircle
 10
370.6948177295513
 20
114.5295334295093
 30
0.0
 40
1.75
100
AcDbArc
 50
94.09236714332903
 51
94.09145886679519
  0
LWPOLYLINE
  5
AE1
330
2A
100
AcDbEntity
  8
115-1T
100
AcDbPolyline
 90
        2
 70
     0
 43
0.340859882388008
 10
420.418409117421
 20
111.5267123287656
 42
738.7061684084105
 10
420.4183691403638
 20
111.5119467064692
 42
738.7061684084105
  0
TEXT
  5
AE2
330
2A
100
AcDbEntity
  8
115-1T
100
AcDbText
 10
421.1901658018407
 20
105.0300379713319
 30
0.0
 40
2.0
  1
MAINS
  7
ariab
 72
     1
 11
425.691530058321
 21
105.0300379713319
 31
0.0
100
AcDbText
  0
LWPOLYLINE
  5
AE3
330
2A
100
AcDbEntity
  8
115-1T
100
AcDbPolyline
 90
        2
 70
     0
 43
0.340859882388008
 10
416.8333666051621
 20
109.990332725389
 10
418.5496935114715
 20
109.990332725389
  0
LWPOLYLINE
  5
AE4
330
2A
100
AcDbEntity
  8
115-1T
100
AcDbPolyline
 90
        2
 70
     0
 43
0.340859882388008
 10
415.6463707639887
 20
111.6946321373291
 10
419.7366893526448
 20
111.6946321373291
  0
LWPOLYLINE
  5
AE5
330
2A
100
AcDbEntity
  8
115-1T
100
AcDbPolyline
 90
        2
 70
     0
 43
0.340859882388008
 10
416.2350700568691
 20
110.8424824313591
 10
419.1479900597646
 20
110.8424824313591
  0
LWPOLYLINE
  5
AE6
330
2A
100
AcDbEntity
  8
115-1T
100
AcDbPolyline
 90
        2
 70
     0
 43
0.340859882388008
 10
417.6915300583168
 20
111.6946321373291
 10
417.6915300583168
 20
112.8930075065152
  0
ARC
  5
AE7
330
2A
100
AcDbEntity
  8
110-1MEK
100
AcDbCircle
 10
425.6915300583184
 20
111.5267123287669
 30
0.0
 40
2.1
100
AcDbArc
 50
272.9642037559218
 51
272.9624398059805
  0
LINE
  5
AE8
330
2A
100
AcDbEntity
  8
110-1MEK
100
AcDbLine
 10
432.1915300583183
 20
103.2767123287669
 30
0.0
 11
432.1915300583183
 21
83.77671232876705
 31
0.0
  0
LINE
  5
AE9
330
2A
100
AcDbEntity
  8
110-1MEK
100
AcDbLine
 10
438.6915300583185
 20
76.52671232876706
 30
0.0
 11
438.6915300583185
 21
118.5267123287669
 31
0.0
  0
LINE
  5
AEA
330
2A
100
AcDbEntity
  8
110-1MEK
100
AcDbLine
 10
436.6915300583185
 20
118.5267123287669
 30
0.0
 11
436.6915300583185
 21
78.52671232876708
 31
0.0
  0
ENDBLK
  5
3AE
330
2A
100
AcDbEntity
  8
0
100
AcDbBlockEnd
  0
ENDSEC
  0
SECTION
  2
ENTITIES
  0
TEXT
  5
450
330
1E
100
AcDbEntity
  8
110-1
100
AcDbText
 10
247.2953615279672
 20
54.3740157480315
 30
0.0
 40
1.25
  1
MM
 72
     1
 11
248.75
 21
54.3740157480315
 31
0.0
100
AcDbText
  0
LINE
  5
452
330
1E
100
AcDbEntity
  8
110-1
100
AcDbLine
 10
255.0
 20
67.0
 30
0.0
 11
255.0
 21
50.0
 31
0.0
  0
TEXT
  5
453
330
1E
100
AcDbEntity
  8
110-1
100
AcDbText
 10
372.8384208731241
 20
65.37949492969246
 30
0.0
 40
1.25
  1
PATTERN NO.        MODEL NR.
 72
     4
 11
385.5
 21
66.00492125984252
 31
0.0
100
AcDbText
  0
LWPOLYLINE
  5
454
330
1E
100
AcDbEntity
  8
110-1
100
AcDbPolyline
 90
        2
 70
     0
 43
0.0
 10
230.0
 20
68.0
 10
410.0
 20
68.0
  0
TEXT
  5
458
330
1E
100
AcDbEntity
  8
110-1
100
AcDbText
 10
400.7014836289222
 20
70.30297715448523
 30
0.0
 40
1.25
  1
QUANT.
 72
     4
 11
404.0
 21
70.89046010127923
 31
0.0
100
AcDbText
  0
TEXT
  5
459
330
1E
100
AcDbEntity
  8
110-1
100
AcDbText
 10
401.1870736698499
 20
68.48946115856327
 30
0.0
 40
1.25
  1
ANTAL
 72
     4
 11
404.0
 21
69.11446115856327
 31
0.0
100
AcDbText
  0
LWPOLYLINE
  5
45A
330
1E
100
AcDbEntity
  8
110-1
100
AcDbPolyline
 90
        3
 70
     0
 43
0.0
 10
236.1519237886465
 20
77.23205080756887
 10
237.7499999999999
 20
74.0
 10
240.8685888495277
 20
79.36650848224347
  0
ARC
  5
45F
330
1E
100
AcDbEntity
  8
110-1
100
AcDbCircle
 10
237.7499999999999
 20
74.0
 30
0.0
 40
3.605551275464017
100
AcDbArc
 50
59.83824471807211
 51
119.8382447180721
  0
LWPOLYLINE
  5
460
330
1E
100
AcDbEntity
  8
110-1
100
AcDbPolyline
 90
        3
 70
     0
 43
0.0
 10
248.0374851427603
 20
76.96980572580891
 10
249.75
 20
74.0
 10
252.8685888495278
 20
79.36650848224347
  0
LWPOLYLINE
  5
465
330
1E
100
AcDbEntity
  8
110-1
100
AcDbPolyline
 90
        3
 70
     0
 43
0.0
 10
259.0374851427603
 20
76.96980572580891
 10
260.7499999999999
 20
74.0
 10
263.8685888495278
 20
79.36650848224347
  0
TEXT
  5
46A
330
1E
100
AcDbEntity
  8
110-1
100
AcDbText
 10
232.0
 20
70.0
 30
0.0
 40
1.25
  1
. . R    IN MICROMETERS
100
AcDbText
  0
TEXT
  5
46B
330
1E
100
AcDbEntity
  8
110-1
100
AcDbText
 10
235.0
 20
78.0
 30
0.0
 40
1.25
  1
. .
100
AcDbText
  0
TEXT
  5
46C
330
1E
100
AcDbEntity
  8
110-1
100
AcDbText
 10
247.0
 20
78.0
 30
0.0
 40
1.25
  1
. .
100
AcDbText
  0
TEXT
  5
46D
330
1E
100
AcDbEntity
  8
110-1
100
AcDbText
 10
258.0
 20
78.0
 30
0.0
 40
1.25
  1
. .
100
AcDbText
  0
ARC
  5
46E
330
1E
100
AcDbEntity
  8
110-1
100
AcDbCircle
 10
260.7603144101784
 20
76.35859236105456
 30
0.0
 40
1.214781746034139
100
AcDbArc
 50
306.4847730898728
 51
299.2476703006309
  0
LWPOLYLINE
  5
46F
330
1E
100
AcDbEntity
  8
110-1
100
AcDbPolyline
 90
        2
 70
     0
 43
0.0
 10
297.0
 20
74.0
 10
297.0
 20
68.0
  0
TEXT
  5
473
330
1E
100
AcDbEntity
  8
110-1
100
AcDbText
 10
298.9650649737951
 20
70.2320191277991
 30
0.0
 40
1.25
  1
ANGLE
100
AcDbText
  0
TEXT
  5
474
330
1E
100
AcDbEntity
  8
110-1
100
AcDbText
 10
298.9650649737951
 20
68.52335771047627
 30
0.0
 40
1.25
  1
VINKEL
100
AcDbText
  0
LWPOLYLINE
  5
475
330
1E
100
AcDbEntity
  8
110-1
100
AcDbPolyline
 90
        4
 70
     1
 43
0.3
 10
324.0
 20
77.0
 10
326.0
 20
77.0
 10
326.0
 20
75.0
 10
324.0
 20
75.0
  0
LWPOLYLINE
  5
47B
330
1E
100
AcDbEntity
  8
110-1
100
AcDbPolyline
 90
        4
 70
     1
 43
0.3
 10
331.0
 20
75.0
 10
333.0
 20
75.0
 10
333.0
 20
77.0
 10
331.0
 20
77.0
  0
LWPOLYLINE
  5
481
330
1E
100
AcDbEntity
  8
110-1
100
AcDbPolyline
 90
        4
 70
     1
 43
0.3
 10
333.0
 20
75.0
 10
335.0
 20
75.0
 10
335.0
 20
77.0
 10
333.0
 20
77.0
  0
LWPOLYLINE
  5
487
330
1E
100
AcDbEntity
  8
110-1
100
AcDbPolyline
 90
        4
 70
     1
 43
0.3
 10
333.0
 20
71.0
 10
335.0
 20
71.0
 10
335.0
 20
73.0
 10
333.0
 20
73.0
  0
LWPOLYLINE
  5
48D
330
1E
100
AcDbEntity
  8
110-1
100
AcDbPolyline
 90
        4
 70
     1
 43
0.3
 10
331.0
 20
71.0
 10
333.0
 20
71.0
 10
333.0
 20
73.0
 10
331.0
 20
73.0
  0
LWPOLYLINE
  5
493
330
1E
100
AcDbEntity
  8
110-1
100
AcDbPolyline
 90
        4
 70
     1
 43
0.3
 10
335.0
 20
73.0
 10
337.0
 20
73.0
 10
337.0
 20
71.0
 10
335.0
 20
71.0
  0
TEXT
  5
499
330
1E
100
AcDbEntity
  8
110-1
100
AcDbText
 10
324.4176330150068
 20
75.375
 30
0.0
 40
1.25
  1
A
 72
     4
 11
325.0
 21
76.0
 31
0.0
100
AcDbText
  0
TEXT
  5
49A
330
1E
100
AcDbEntity
  8
110-1
100
AcDbText
 10
335.4176330150067
 20
71.375
 30
0.0
 40
1.25
  1
A
 72
     4
 11
336.0
 21
72.0
 31
0.0
100
AcDbText
  0
LWPOLYLINE
  5
49B
330
1E
100
AcDbEntity
  8
110-1
100
AcDbPolyline
 90
        2
 70
     0
 43
0.4
 10
325.0
 20
75.0
 10
325.0
 20
72.0
  0
LWPOLYLINE
  5
49F
330
1E
100
AcDbEntity
  8
110-1
100
AcDbPolyline
 90
        3
 70
     1
 43
0.0
 10
324.0
 20
72.0
 10
326.0
 20
72.0
 10
325.0
 20
73.0
  0
TEXT
  5
4A4
330
1E
100
AcDbEntity
  8
110-1
100
AcDbText
 10
353.9143929058663
 20
70.22933070866141
 30
0.0
 40
1.25
  1
ITEM
 72
     4
 11
356.0
 21
70.85433070866141
 31
0.0
100
AcDbText
  0
TEXT
  5
4A5
330
1E
100
AcDbEntity
  8
110-1
100
AcDbText
 10
354.1561221009549
 20
68.52024296118852
 30
0.0
 40
1.25
  1
POS
 72
     4
 11
356.0
 21
69.14566929133858
 31
0.0
100
AcDbText
  0
TEXT
  5
4A6
330
1E
100
AcDbEntity
  8
110-1
100
AcDbText
 10
364.557554570259
 20
69.37457366984993
 30
0.0
 40
1.25
  1
ASSEMBLY NO.         SAMLINGS NR.
 72
     4
 11
379.4999999999998
 21
70.0
 31
0.0
100
AcDbText
  0
LWPOLYLINE
  5
4A7
330
1E
100
AcDbEntity
  8
110-1
100
AcDbPolyline
 90
        2
 70
     0
 43
0.0
 10
230.0
 20
80.0
 10
410.0
 20
80.0
  0
LWPOLYLINE
  5
4AB
330
1E
100
AcDbEntity
  8
110-1
100
AcDbPolyline
 90
        2
 70
     0
 43
0.0
 10
398.0
 20
80.0
 10
398.0
 20
68.0
  0
LWPOLYLINE
  5
4AF
330
1E
100
AcDbEntity
  8
110-1
100
AcDbPolyline
 90
        2
 70
     0
 43
0.0
 10
351.0
 20
72.0
 10
410.0
 20
72.0
  0
LWPOLYLINE
  5
4B3
330
1E
100
AcDbEntity
  8
110-1
100
AcDbPolyline
 90
        2
 70
     0
 43
0.0
 10
361.0905294119906
 20
64.00669696654225
 10
410.0905294119906
 20
64.00669696654225
  0
LWPOLYLINE
  5
4B7
330
1E
100
AcDbEntity
  8
110-1
100
AcDbPolyline
 90
        2
 70
     0
 43
0.0
 10
361.0
 20
49.0
 10
410.0
 20
49.0
  0
LWPOLYLINE
  5
4BB
330
1E
100
AcDbEntity
  8
110-1
100
AcDbPolyline
 90
        2
 70
     0
 43
0.0
 10
351.0
 20
80.0
 10
351.0
 20
68.0
  0
LWPOLYLINE
  5
4BF
330
1E
100
AcDbEntity
  8
110-1
100
AcDbPolyline
 90
        2
 70
     0
 43
0.0
 10
351.0
 20
76.0
 10
410.0
 20
76.0
  0
LWPOLYLINE
  5
4C3
330
1E
100
AcDbEntity
  8
110-1
100
AcDbPolyline
 90
        2
 70
     0
 43
0.0
 10
273.4999999999999
 20
80.0
 10
273.4999999999999
 20
68.0
  0
LWPOLYLINE
  5
4C7
330
1E
100
AcDbEntity
  8
110-1
100
AcDbPolyline
 90
        2
 70
     0
 43
0.0
 10
320.5
 20
80.0
 10
320.5
 20
68.0
  0
TEXT
  5
4CB
330
1E
100
AcDbEntity
  8
110-1
100
AcDbText
 10
234.6336749910041
 20
69.24320691858551
 30
0.0
 40
1.25
  1
A
100
AcDbText
  0
LWPOLYLINE
  5
4CC
330
1E
100
AcDbEntity
  8
110-1
100
AcDbPolyline
 90
        5
 70
     0
 43
0.5
 10
244.0
 20
42.0
 10
248.0
 20
41.0
 10
248.0
 20
45.0
 10
244.0
 20
44.0
 10
244.0
 20
42.0
  0
LWPOLYLINE
  5
4D3
330
1E
100
AcDbEntity
  8
110-1
  6
CENTER
 62
     2
100
AcDbPolyline
 90
        2
 70
     0
 43
0.02
 10
243.0
 20
43.0
 10
254.0
 20
43.0
  0
LWPOLYLINE
  5
4D7
330
1E
100
AcDbEntity
  8
110-1
  6
CENTER
 62
     2
100
AcDbPolyline
 90
        2
 70
     0
 43
0.02
 10
251.0
 20
46.0
 10
251.0
 20
40.0
  0
TEXT
  5
4DB
330
1E
100
AcDbEntity
  8
110-1
100
AcDbText
 10
257.7304586197871
 20
56.16767439024862
 30
0.0
 40
1.25
  1
MATERIAL
 50
90.0
 72
     4
 11
257.1054586197871
 21
60.53414778724725
 31
0.0
100
AcDbText
  0
TEXT
  5
4DC
330
1E
100
AcDbEntity
  8
110-1
100
AcDbText
 10
259.8662853914406
 20
56.16767439024862
 30
0.0
 40
1.25
  1
MATERIEL
 50
90.0
 72
     4
 11
259.2412853914406
 21
60.53414778724725
 31
0.0
100
AcDbText
  0
TEXT
  5
4DD
330
1E
100
AcDbEntity
  8
110-1
100
AcDbText
 10
257.7304586197871
 20
40.19862595914356
 30
0.0
 40
1.25
  1
TREATMENT
 50
90.0
 72
     4
 11
257.1054586197871
 21
45.53414778724725
 31
0.0
100
AcDbText
  0
TEXT
  5
4DE
330
1E
100
AcDbEntity
  8
110-1
100
AcDbText
 10
259.8662853914406
 20
39.857561839089
 30
0.0
 40
1.25
  1
BEHANDLING
 50
90.0
 72
     4
 11
259.2412853914406
 21
45.53414778724725
 31
0.0
100
AcDbText
  0
TEXT
  5
4DF
330
1E
100
AcDbEntity
  8
110-1
100
AcDbText
 10
246.9629945429741
 20
66.0
 30
0.0
 40
1.25
  1
UNIT
 72
     1
 11
249.0
 21
66.0
 31
0.0
100
AcDbText
  0
TEXT
  5
4E0
330
1E
100
AcDbEntity
  8
110-1
100
AcDbText
 10
245.9436391541609
 20
63.86417322834645
 30
0.0
 40
1.25
  1
ENHED
 72
     1
 11
249.0
 21
63.86417322834645
 31
0.0
100
AcDbText
  0
TEXT
  5
4E1
330
1E
100
AcDbEntity
  8
110-1
100
AcDbText
 10
230.6224420190996
 20
66.0
 30
0.0
 40
1.25
  1
ROUGHNESS
 72
     1
 11
236.25
 21
66.0
 31
0.0
100
AcDbText
  0
TEXT
  5
4E2
330
1E
100
AcDbEntity
  8
110-1
100
AcDbText
 10
233.1454638472032
 20
63.86417322834645
 30
0.0
 40
1.25
  1
RUHED
 72
     1
 11
236.25
 21
63.86417322834645
 31
0.0
100
AcDbText
  0
TEXT
  5
4E3
330
1E
100
AcDbEntity
  8
110-1
100
AcDbText
 10
233.3867667121418
 20
51.0
 30
0.0
 40
1.25
  1
SCALE
 72
     1
 11
236.25
 21
51.0
 31
0.0
100
AcDbText
  0
TEXT
  5
4E4
330
1E
100
AcDbEntity
  8
110-1
100
AcDbText
 10
233.4336630286494
 20
48.86417322834645
 30
0.0
 40
1.25
  1
SKALA
 72
     1
 11
236.25
 21
48.86417322834645
 31
0.0
100
AcDbText
  0
TEXT
  5
4E5
330
1E
100
AcDbEntity
  8
110-1
100
AcDbText
 10
246.4288028649386
 20
51.0
 30
0.0
 40
1.25
  1
PROJ.
 72
     1
 11
249.0
 21
51.0
 31
0.0
100
AcDbText
  0
TEXT
  5
4E6
330
1E
100
AcDbEntity
  8
110-1
100
AcDbText
 10
245.6524556616643
 20
48.86417322834645
 30
0.0
 40
1.25
  1
EUROP.
 72
     1
 11
249.0
 21
48.86417322834645
 31
0.0
100
AcDbText
  0
TEXT
  5
4E7
330
1E
100
AcDbEntity
  8
110-1
100
AcDbText
 10
274.9937374510445
 20
70.28801997642457
 30
0.0
 40
1.25
  1
DIMENSION
100
AcDbText
  0
TEXT
  5
4E8
330
1E
100
AcDbEntity
  8
110-1
100
AcDbText
 10
274.9937374510445
 20
68.52234765310455
 30
0.0
 40
1.25
  1
ML
100
AcDbText
  0
TEXT
  5
4E9
330
1E
100
AcDbEntity
  8
110-1
100
AcDbText
 10
367.2268076398361
 20
50.37457366984993
 30
0.0
 40
1.25
  1
ORDER NO.          ORDRE NR.
 72
     4
 11
379.4999999999998
 21
51.0
 31
0.0
100
AcDbText
  0
TEXT
  5
4EA
330
1E
100
AcDbEntity
  8
110-1
100
AcDbText
 10
400.7014836289222
 20
51.30678141311813
 30
0.0
 40
1.249999999999998
  1
QUANT.
 72
     4
 11
404.0
 21
51.89426435991213
 31
0.0
100
AcDbText
  0
TEXT
  5
4EB
330
1E
100
AcDbEntity
  8
110-1
100
AcDbText
 10
401.1870736698499
 20
49.48565689993039
 30
0.0
 40
1.249999999999998
  1
ANTAL
 72
     4
 11
404.0
 21
50.11065689993039
 31
0.0
100
AcDbText
  0
TEXT
  5
4EC
330
1E
100
AcDbEntity
  8
110-1
100
AcDbText
 10
278.3776432469303
 20
77.74975577814449
 30
0.0
 40
1.25
  1
TOLERANCES UNLESS OTHERWISE STATED
 72
     1
 11
297.25
 21
77.74975577814449
 31
0.0
100
AcDbText
  0
TEXT
  5
4ED
330
1E
100
AcDbEntity
  8
110-1
100
AcDbText
 10
277.6507503410641
 20
76.00024422185551
 30
0.0
 40
1.25
  1
TOLERANCE HVOR INTET ANDET ER ANGIVET
 72
     1
 11
297.25
 21
76.00024422185551
 31
0.0
100
AcDbText
  0
LWPOLYLINE
  5
4EE
330
1E
100
AcDbEntity
  8
110-1
 62
    13
100
AcDbPolyline
 90
        2
 70
     1
 43
0.2999999999999998
 10
249.0
 20
43.0
 42
1.0
 10
253.0
 20
43.0
 42
1.0
  0
LWPOLYLINE
  5
4F2
330
1E
100
AcDbEntity
  8
110-1
 62
    13
100
AcDbPolyline
 90
        2
 70
     1
 43
0.2999999999999999
 10
250.0
 20
43.0
 42
1.0
 10
252.0
 20
43.0
 42
1.0
  0
LWPOLYLINE
  5
4F6
330
1E
100
AcDbEntity
  8
110-1
100
AcDbPolyline
 90
        2
 70
     0
 43
0.0
 10
230.0
 20
53.0
 10
410.0
 20
53.0
  0
TEXT
  5
4FA
330
1E
100
AcDbEntity
  8
110-1
100
AcDbText
 10
263.4515377956597
 20
75.02407734614561
 30
0.0
 40
1.25
  1
UN - D 28
100
AcDbText
  0
TEXT
  5
4FB
330
1E
100
AcDbEntity
  8
110-1
100
AcDbText
 10
263.4515377956597
 20
72.88825057449208
 30
0.0
 40
1.25
  1
ISO 1302 
100
AcDbText
  0
TEXT
  5
4FC
330
1E
100
AcDbEntity
  8
110-1
100
AcDbText
 10
340.1222111527
 20
77.58373823547443
 30
0.0
 40
1.25
  1
UN - D 603
100
AcDbText
  0
TEXT
  5
4FD
330
1E
100
AcDbEntity
  8
110-1
100
AcDbText
 10
340.1222111527
 20
75.4479114638209
 30
0.0
 40
1.25
  1
ISO 1101
100
AcDbText
  0
TEXT
  5
4FE
330
1E
100
AcDbEntity
  8
110-1
100
AcDbText
 10
340.1222111527
 20
71.17625792051381
 30
0.0
 40
1.25
  1
UN - D 1660
100
AcDbText
  0
TEXT
  5
4FF
330
1E
100
AcDbEntity
  8
110-1
100
AcDbText
 10
340.1222111527
 20
69.04043114886028
 30
0.0
 40
1.25
  1
ISO 5459
100
AcDbText
  0
TEXT
  5
500
330
1E
100
AcDbEntity
  8
110-1
 62
    14
100
AcDbText
 10
261.3184743881025
 20
44.21303847525439
 30
0.0
 40
3.0
  1
SE MALINGSPECIFIKATION 4008 140 00000
100
AcDbText
  0
INSERT
  5
505
330
1E
100
AcDbEntity
  8
110-1
100
AcDbBlockReference
  2
110-1
 10
19.58844319555119
 20
85.43410068301737
 30
0.0
 41
0.85
 42
0.85
 43
0.85
  0
LINE
  5
506
330
1E
100
AcDbEntity
  8
110-1
100
AcDbLine
 10
410.0
 20
287.0
 30
0.0
 11
20.0
 21
287.0
 31
0.0
  0
LINE
  5
507
330
1E
100
AcDbEntity
  8
110-1
100
AcDbLine
 10
20.0
 20
10.0
 30
0.0
 11
410.0
 21
10.0
 31
0.0
  0
TEXT
  5
508
330
1E
100
AcDbEntity
  8
110-1
100
AcDbText
 10
12.7142857142857
 20
125.6009549795361
 30
0.0
 40
2.0
  1
ALL RIGHTS STRICLY RESERVED.
 50
90.0
 72
     1
 11
12.7142857142857
 21
148.5
 31
0.0
100
AcDbText
  0
TEXT
  5
509
330
1E
100
AcDbEntity
  8
110-1
100
AcDbText
 10
9.28571428571429
 20
112.7141882673942
 30
0.0
 40
2.0
  1
PROPERTY OF PROTELEVISION TECHNOLOGIES A/S
 50
90.0
 72
     1
 11
9.285714285714291
 21
148.5
 31
0.0
100
AcDbText
  0
LINE
  5
50A
330
1E
100
AcDbEntity
  8
110-1
100
AcDbLine
 10
20.0
 20
287.0
 30
0.0
 11
20.0
 21
10.0
 31
0.0
  0
LINE
  5
50B
330
1E
100
AcDbEntity
  8
110-1
100
AcDbLine
 10
410.0
 20
10.0
 30
0.0
 11
410.0
 21
287.0
 31
0.0
  0
LWPOLYLINE
  5
50C
330
1E
100
AcDbEntity
  8
110-1
100
AcDbPolyline
 90
        2
 70
     0
 43
0.0
 10
410.0
 20
18.0
 10
230.0
 20
18.0
  0
LWPOLYLINE
  5
510
330
1E
100
AcDbEntity
  8
110-1
100
AcDbPolyline
 90
        4
 70
     1
 43
0.5
 10
335.0
 20
14.0
 10
410.0
 20
14.0
 10
410.0
 20
38.0
 10
335.0
 20
38.0
  0
TEXT
  5
516
330
1E
100
AcDbEntity
  8
110-1
100
AcDbText
 10
321.1430763983628
 20
11.26822007498039
 30
0.0
 40
1.5
  1
PROTELEVISION TECHNOLOGIES A/S - Kornmarksvej 21 - DK-2605 Brndby
 72
     4
 11
358.0
 21
11.81102362204724
 31
0.0
100
AcDbText
  0
LWPOLYLINE
  5
517
330
1E
100
AcDbEntity
  8
110-1
100
AcDbPolyline
 90
        2
 70
     0
 43
0.0
 10
230.0
 20
14.0
 10
410.0
 20
14.0
  0
LWPOLYLINE
  5
51B
330
1E
100
AcDbEntity
  8
110-1
100
AcDbPolyline
 90
        2
 70
     0
 43
0.0
 10
230.0
 20
10.0
 10
410.0
 20
10.0
  0
LWPOLYLINE
  5
51F
330
1E
100
AcDbEntity
  8
110-1
100
AcDbPolyline
 90
        2
 70
     0
 43
0.0
 10
230.0
 20
38.0
 10
410.0
 20
38.0
  0
TEXT
  5
523
330
1E
100
AcDbEntity
  8
110-1
 62
    14
100
AcDbText
 10
341.0
 20
15.0
 30
0.0
 40
2.5
  1
110-1
100
AcDbText
  0
LWPOLYLINE
  5
524
330
1E
100
AcDbEntity
  8
110-1
100
AcDbPolyline
 90
        2
 70
     0
 43
0.0
 10
242.5
 20
38.0
 10
242.5
 20
68.0
  0
LWPOLYLINE
  5
528
330
1E
100
AcDbEntity
  8
110-1
100
AcDbPolyline
 90
        2
 70
     0
 43
0.0
 10
230.0
 20
80.0
 10
230.0
 20
10.0
  0
LWPOLYLINE
  5
52C
330
1E
100
AcDbEntity
  8
110-1
100
AcDbPolyline
 90
        2
 70
     0
 43
0.0
 10
255.0
 20
68.0
 10
255.0
 20
18.0
  0
TEXT
  5
530
330
1E
100
AcDbEntity
  8
110-1
 62
    14
100
AcDbText
 10
262.0
 20
25.0
 30
0.0
 40
3.0
  1
printed     PT 5230
100
AcDbText
  0
TEXT
  5
531
330
1E
100
AcDbEntity
  8
110-1
 62
    14
100
AcDbText
 10
262.0
 20
30.0
 30
0.0
 40
3.0
  1
Text plate rear
100
AcDbText
  0
TEXT
  5
532
330
1E
100
AcDbEntity
  8
110-1
100
AcDbText
 10
231.00017053206
 20
35.37457366984993
 30
0.0
 40
1.25
  1
CLASS NO.       KLASSE NR.
 72
     4
 11
242.5
 21
36.0
 31
0.0
100
AcDbText
  0
LWPOLYLINE
  5
533
330
1E
100
AcDbEntity
  8
110-1
100
AcDbPolyline
 90
        5
 70
     0
 43
0.5
 10
230.0
 20
18.0
 10
255.0
 20
18.0
 10
255.0
 20
30.0
 10
230.0
 20
30.0
 10
230.0
 20
18.0
  0
LWPOLYLINE
  5
53A
330
1E
100
AcDbEntity
  8
110-1
100
AcDbPolyline
 90
        2
 70
     0
 43
0.0
 10
230.0
 20
22.0
 10
255.0
 20
22.0
  0
LWPOLYLINE
  5
53E
330
1E
100
AcDbEntity
  8
110-1
100
AcDbPolyline
 90
        2
 70
     0
 43
0.0
 10
230.0
 20
26.0
 10
255.0
 20
26.0
  0
TEXT
  5
542
330
1E
100
AcDbEntity
  8
110-1
 62
    14
100
AcDbText
 10
240.0
 20
11.0
 30
0.0
 40
2.5
  1
DOC
100
AcDbText
  0
TEXT
  5
543
330
1E
100
AcDbEntity
  8
110-1
 62
    14
100
AcDbText
 10
239.0
 20
15.0
 30
0.0
 40
2.5
  1
G.K.
100
AcDbText
  0
TEXT
  5
544
330
1E
100
AcDbEntity
  8
110-1
100
AcDbText
 10
231.0280542054399
 20
14.4370630058952
 30
0.0
 40
1.249999999999998
  1
NAVN
100
AcDbText
  0
TEXT
  5
545
330
1E
100
AcDbEntity
  8
110-1
100
AcDbText
 10
231.0280542054399
 20
16.17553048701874
 30
0.0
 40
1.249999999999998
  1
NAME
100
AcDbText
  0
LWPOLYLINE
  5
546
330
1E
100
AcDbEntity
  8
110-1
100
AcDbPolyline
 90
        2
 70
     0
 43
0.0
 10
238.0
 20
14.0
 10
238.0
 20
10.0
  0
TEXT
  5
54A
330
1E
100
AcDbEntity
  8
110-1
100
AcDbText
 10
253.856761589515
 20
10.44573543866218
 30
0.0
 40
1.25
  1
KONTROL
100
AcDbText
  0
TEXT
  5
54B
330
1E
100
AcDbEntity
  8
110-1
100
AcDbText
 10
253.856761589515
 20
12.22404764596113
 30
0.0
 40
1.25
  1
CHECK
100
AcDbText
  0
LWPOLYLINE
  5
54C
330
1E
100
AcDbEntity
  8
110-1
100
AcDbPolyline
 90
        2
 70
     0
 43
0.0
 10
250.0
 20
30.0
 10
250.0
 20
18.0
  0
LWPOLYLINE
  5
550
330
1E
100
AcDbEntity
  8
110-1
100
AcDbPolyline
 90
        2
 70
     0
 43
0.0
 10
253.0
 20
14.0
 10
253.0
 20
10.0
  0
LINE
  5
554
330
1E
100
AcDbEntity
  8
110-1
100
AcDbLine
 10
253.0
 20
14.0
 30
0.0
 11
253.0
 21
10.0
 31
0.0
  0
LWPOLYLINE
  5
555
330
1E
100
AcDbEntity
  8
110-1
100
AcDbPolyline
 90
        2
 70
     0
 43
0.0
 10
275.0
 20
18.0
 10
275.0
 20
10.0
  0
LINE
  5
559
330
1E
100
AcDbEntity
  8
110-1
100
AcDbLine
 10
275.0
 20
18.0
 30
0.0
 11
275.0
 21
14.0
 31
0.0
  0
TEXT
  5
55A
330
1E
100
AcDbEntity
  8
110-1
 62
    14
100
AcDbText
 10
282.0
 20
11.0
 30
0.0
 40
2.5
  1
98-07-22
100
AcDbText
  0
TEXT
  5
55B
330
1E
100
AcDbEntity
  8
110-1
100
AcDbText
 10
276.0
 20
14.46198679032726
 30
0.0
 40
1.25
  1
ERST.
100
AcDbText
  0
TEXT
  5
55C
330
1E
100
AcDbEntity
  8
110-1
100
AcDbText
 10
276.5045798919664
 20
11.37499999999999
 30
0.0
 40
1.25
  1
DAT
 72
     4
 11
278.2508281866458
 21
12.0
 31
0.0
100
AcDbText
  0
TEXT
  5
55D
330
1E
100
AcDbEntity
  8
110-1
100
AcDbText
 10
276.0
 20
16.19153286067387
 30
0.0
 40
1.25
  1
SUPERS.
100
AcDbText
  0
LWPOLYLINE
  5
55E
330
1E
100
AcDbEntity
  8
110-1
100
AcDbPolyline
 90
        2
 70
     0
 43
0.0
 10
306.0
 20
10.0
 10
306.0
 20
14.0
  0
TEXT
  5
562
330
1E
100
AcDbEntity
  8
110-1
100
AcDbText
 10
331.4273438620436
 20
14.56373869770813
 30
0.0
 40
1.249999999999998
  1
BL
 72
     4
 11
332.4953008879645
 21
15.18873869770813
 31
0.0
100
AcDbText
  0
TEXT
  5
563
330
1E
100
AcDbEntity
  8
110-1
100
AcDbText
 10
331.2823916110204
 20
16.27998524823714
 30
0.0
 40
1.249999999999998
  1
SH
 72
     4
 11
332.4953008879645
 21
16.90498524823714
 31
0.0
100
AcDbText
  0
LWPOLYLINE
  5
564
330
1E
100
AcDbEntity
  8
110-1
100
AcDbPolyline
 90
        2
 70
     0
 43
0.0
 10
325.0
 20
18.0
 10
325.0
 20
14.0
  0
TEXT
  5
568
330
1E
100
AcDbEntity
  8
110-1
 62
    14
100
AcDbText
 10
328.0
 20
15.0
 30
0.0
 40
2.5
  1
1
100
AcDbText
  0
LWPOLYLINE
  5
569
330
1E
100
AcDbEntity
  8
110-1
100
AcDbPolyline
 90
        2
 70
     0
 43
0.0
 10
335.0
 20
18.0
 10
335.0
 20
14.0
  0
TEXT
  5
56D
330
1E
100
AcDbEntity
  8
110-1
100
AcDbText
 10
336.8005735533708
 20
14.56373869770813
 30
0.0
 40
1.249999999999998
  1
BL
 72
     4
 11
337.8685305792917
 21
15.18873869770813
 31
0.0
100
AcDbText
  0
TEXT
  5
56E
330
1E
100
AcDbEntity
  8
110-1
100
AcDbText
 10
336.6556213023476
 20
16.27998524823714
 30
0.0
 40
1.249999999999998
  1
SH
 72
     4
 11
337.8685305792917
 21
16.90498524823714
 31
0.0
100
AcDbText
  0
LWPOLYLINE
  5
56F
330
1E
100
AcDbEntity
  8
110-1
100
AcDbPolyline
 90
        2
 70
     0
 43
0.0
 10
410.0
 20
80.0
 10
410.0
 20
10.0
  0
LWPOLYLINE
  5
573
330
1E
100
AcDbEntity
  8
110-1
100
AcDbPolyline
 90
        2
 70
     0
 43
0.0
 10
361.0
 20
80.0
 10
361.0
 20
38.0
  0
LWPOLYLINE
  5
577
330
1E
100
AcDbEntity
  8
110-1
100
AcDbPolyline
 90
        2
 70
     0
 43
0.0
 10
383.0
 20
22.0
 10
410.0
 20
22.0
  0
LWPOLYLINE
  5
57B
330
1E
100
AcDbEntity
  8
110-1
100
AcDbPolyline
 90
        2
 70
     0
 43
0.0
 10
383.0
 20
26.0
 10
410.0
 20
26.0
  0
LWPOLYLINE
  5
57F
330
1E
100
AcDbEntity
  8
110-1
100
AcDbPolyline
 90
        2
 70
     0
 43
0.0
 10
383.0
 20
30.0
 10
410.0
 20
30.0
  0
LWPOLYLINE
  5
583
330
1E
100
AcDbEntity
  8
110-1
100
AcDbPolyline
 90
        2
 70
     0
 43
0.0
 10
383.0
 20
34.0
 10
410.0
 20
34.0
  0
TEXT
  5
587
330
1E
100
AcDbEntity
  8
110-1
 62
    14
100
AcDbText
 10
405.5172989966748
 20
15.01942516083291
 30
0.0
 40
2.5
  1
A3
100
AcDbText
  0
TEXT
  5
588
330
1E
100
AcDbEntity
  8
110-1
 62
    14
100
AcDbText
 10
385.1659741101235
 20
34.83837923969952
 30
0.0
 40
2.5
  1
1   -- -- --
100
AcDbText
  0
TEXT
  5
589
330
1E
100
AcDbEntity
  8
110-1
 62
    14
100
AcDbText
 10
342.0
 20
24.0
 30
0.0
 40
3.0
  1
4008 127 0409
100
AcDbText
  0
LWPOLYLINE
  5
58A
330
1E
100
AcDbEntity
  8
110-1
100
AcDbPolyline
 90
        2
 70
     0
 43
0.0
 10
373.0
 20
18.0
 10
373.0
 20
14.0
  0
LWPOLYLINE
  5
58E
330
1E
100
AcDbEntity
  8
110-1
100
AcDbPolyline
 90
        2
 70
     0
 43
0.0
 10
388.0
 20
38.0
 10
388.0
 20
14.0
  0
TEXT
  5
592
330
1E
100
AcDbEntity
  8
110-1
 62
    14
100
AcDbText
 10
376.6680236079613
 20
14.84382203354864
 30
0.0
 40
2.5
  1
116
100
AcDbText
  0
TEXT
  5
593
330
1E
100
AcDbEntity
  8
110-1
100
AcDbText
 10
392.0445088676671
 20
15.26278990450204
 30
0.0
 40
1.5
  1
KU
 72
     4
 11
393.5
 21
16.0
 31
0.0
100
AcDbText
  0
LWPOLYLINE
  5
594
330
1E
100
AcDbEntity
  8
110-1
100
AcDbPolyline
 90
        2
 70
     0
 43
0.0
 10
399.0
 20
18.0
 10
399.0
 20
14.0
  0
TEXT
  5
598
330
1E
100
AcDbEntity
  8
110-1
100
AcDbText
 10
399.9296555252387
 20
15.37457366984993
 30
0.0
 40
1.25
  1
FORM
 72
     4
 11
402.5
 21
16.0
 31
0.0
100
AcDbText
  0
LWPOLYLINE
  5
599
330
1E
100
AcDbEntity
  8
110-1
100
AcDbPolyline
 90
        2
 70
     0
 43
0.0
 10
398.0
 20
53.0
 10
398.0
 20
38.0
  0
TEXT
  5
59E
330
1E
100
AcDbEntity
  8
110-1
100
AcDbText
 10
5.065741709508792
 20
283.6412133135538
 30
0.0
 40
3.0
  1
KUV40
 72
     2
 11
18.34473215971343
 21
283.6412133135538
 31
0.0
100
AcDbText
  0
TEXT
  5
59F
330
1E
100
AcDbEntity
  8
110-1
 62
    14
100
AcDbText
 10
264.5031277091338
 20
58.95571599938789
 30
0.0
 40
3.0
  1
115-1 (film) + 4008 107 58440
100
AcDbText
  0
TEXT
  5
828
330
1E
100
AcDbEntity
  8
README
100
AcDbText
 10
37.80335087853845
 20
91.2468116343428
 30
0.0
 40
4.0
  1
TEKSTPLADEN SKAL HAVE:
100
AcDbText
  0
TEXT
  5
829
330
1E
100
AcDbEntity
  8
README
100
AcDbText
 10
90.83557518990144
 20
83.25242884810336
 30
0.0
 40
4.0
  1
: BLACK 3C 2X
100
AcDbText
  0
TEXT
  5
82B
330
1E
100
AcDbEntity
  8
README
100
AcDbText
 10
37.50224185656807
 20
83.25242884810336
 30
0.0
 40
4.0
  1
SILKETRYK
100
AcDbText
  0
TEXT
  5
82D
330
1E
100
AcDbEntity
  8
README
100
AcDbText
 10
37.2011328345977
 20
66.87978004081454
 30
0.0
 40
4.0
  1
TEKSTEN SKAL BRUGES SAMMEN MED 4008 107 58440
100
AcDbText
  0
TEXT
  5
82E
330
1E
100
AcDbEntity
  8
README
100
AcDbText
 10
37.2011328345977
 20
27.51576319113012
 30
0.0
 40
4.0
  1
SH.115-1 : LAYER 115 (BLOCK 115-1) 
100
AcDbText
  0
TEXT
  5
82F
330
1E
100
AcDbEntity
  8
README
100
AcDbText
 10
37.2011328345977
 20
35.5931697719236
 30
0.0
 40
4.0
  1
SH.110-1 : LAYER 110-1, 110-1MEK, 115-1T (BLOCK 110-1)
100
AcDbText
  0
TEXT
  5
830
330
1E
100
AcDbEntity
  8
README
100
AcDbText
 10
37.2011328345977
 20
19.78354546824387
 30
0.0
 40
4.0
  1

100
AcDbText
  0
TEXT
  5
831
330
1E
100
AcDbEntity
  8
110-1
100
AcDbText
 10
5.294936798185462
 20
278.0491635740691
 30
0.0
 40
3.0
  1
-10334
 72
     2
 11
18.34473215971343
 21
278.0491635740691
 31
0.0
100
AcDbText
  0
TEXT
  5
87F
330
1E
100
AcDbEntity
  8
110-1
 62
    14
100
AcDbText
 10
385.1659741101235
 20
30.59450687417541
 30
0.0
 40
2.5
  1
2   00-01-24
100
AcDbText
  0
INSERT
  5
E52
330
1E
100
AcDbEntity
  8
115
100
AcDbBlockReference
  2
115-1
 10
0.0
 20
0.0
 30
0.0
  0
ENDSEC
  0
SECTION
  2
OBJECTS
  0
DICTIONARY
  5
C
330
0
100
AcDbDictionary
281
     1
  3
ACAD_GROUP
350
D
  3
ACAD_LAYOUT
350
19
  3
ACAD_MLINESTYLE
350
16
  3
ACAD_PLOTSETTINGS
350
18
  3
ACAD_PLOTSTYLENAME
350
E
  3
AcDbVariableDictionary
350
8FB
  0
DICTIONARY
  5
D
102
{ACAD_REACTORS
330
C
102
}
330
C
100
AcDbDictionary
281
     1
  0
DICTIONARY
  5
19
102
{ACAD_REACTORS
330
C
102
}
330
C
100
AcDbDictionary
281
     1
  3
Layout1
350
1D
  3
Model
350
21
  0
DICTIONARY
  5
16
102
{ACAD_REACTORS
330
C
102
}
330
C
100
AcDbDictionary
281
     1
  3
Standard
350
17
  0
DICTIONARY
  5
18
102
{ACAD_REACTORS
330
C
102
}
330
C
100
AcDbDictionary
281
     1
  0
ACDBDICTIONARYWDFLT
  5
E
102
{ACAD_REACTORS
330
C
102
}
330
C
100
AcDbDictionary
281
     1
  3
Normal
350
F
100
AcDbDictionaryWithDefault
340
F
  0
DICTIONARY
  5
8FB
102
{ACAD_REACTORS
330
C
102
}
330
C
100
AcDbDictionary
281
     1
  3
SORTENTS
350
8FC
  0
LAYOUT
  5
1D
102
{ACAD_REACTORS
330
19
102
}
330
19
100
AcDbPlotSettings
  1

  2
C:\Programmer\AutoCAD LT 2000\plotters\DWF Classic.pc3
  4

  6

 40
0.0
 41
0.0
 42
0.0
 43
0.0
 44
0.0
 45
0.0
 46
0.0
 47
0.0
 48
0.0
 49
0.0
140
0.0
141
0.0
142
1.0
143
1.0
 70
   688
 72
     0
 73
     0
 74
     5
  7
C:\Programmer\AutoCAD LT 2000\Plot Styles\kabler.ctb
 75
    16
147
1.0
148
0.0
149
0.0
100
AcDbLayout
  1
Layout1
 70
     0
 71
     1
 10
0.0
 20
0.0
 11
12.0
 21
9.0
 12
0.0
 22
0.0
 32
0.0
 14
1.000000000000000E+20
 24
1.000000000000000E+20
 34
1.000000000000000E+20
 15
-1.000000000000000E+20
 25
-1.000000000000000E+20
 35
-1.000000000000000E+20
146
0.0
 13
0.0
 23
0.0
 33
0.0
 16
1.0
 26
0.0
 36
0.0
 17
0.0
 27
1.0
 37
0.0
 76
     0
330
1A
  0
LAYOUT
  5
21
102
{ACAD_REACTORS
330
19
102
}
330
19
100
AcDbPlotSettings
  1

  2
Acrobat PDFWriter
  4
A3
  6
OLE1
 40
7.143749713897705
 41
7.143756389617919
 42
7.143768310546875
 43
7.14373779296875
 44
297.0530090332031
 45
420.0313415527343
 46
115.69
 47
0.0
 48
0.0
 49
0.0
140
0.0
141
0.0
142
1.0
143
1.074654469324836
 70
 11956
 72
     1
 73
     1
 74
     1
  7
kabler.ctb
 75
     0
147
0.9305316532375849
148
-7.670632504932314
149
-70.32540970892341
100
AcDbLayout
  1
Model
 70
     1
 71
     0
 10
0.0
 20
0.0
 11
12.0
 21
9.0
 12
0.0
 22
0.0
 32
0.0
 14
0.0
 24
0.0
 34
0.0
 15
0.0
 25
0.0
 35
0.0
146
0.0
 13
0.0
 23
0.0
 33
0.0
 16
1.0
 26
0.0
 36
0.0
 17
0.0
 27
1.0
 37
0.0
 76
     0
330
1E
  0
MLINESTYLE
  5
17
102
{ACAD_REACTORS
330
16
102
}
330
16
100
AcDbMlineStyle
  2
STANDARD
 70
     0
  3

 62
   256
 51
90.0
 52
90.0
 71
     2
 49
0.5
 62
   256
  6
BYLAYER
 49
-0.5
 62
   256
  6
BYLAYER
  0
ACDBPLACEHOLDER
  5
F
102
{ACAD_REACTORS
330
E
102
}
330
E
  0
DICTIONARYVAR
  5
8FC
102
{ACAD_REACTORS
330
8FB
102
}
330
8FB
100
DictionaryVariables
280
     0
  1
96
  0
ENDSEC
  0
EOF
