  0
SECTION
  2
HEADER
  9
$ACADVER
  1
AC1015
  9
$ACADMAINTVER
 70
     6
  9
$DWGCODEPAGE
  3
ANSI_1252
  9
$INSBASE
 10
0.0
 20
0.0
 30
0.0
  9
$EXTMIN
 10
38.98278812925207
 20
166.3328713685424
 30
-0.0000061030499708
  9
$EXTMAX
 10
191.8199565423491
 20
236.3274542341561
 30
0.0000091555062788
  9
$LIMMIN
 10
0.0
 20
0.0
  9
$LIMMAX
 10
420.0
 20
297.0
  9
$ORTHOMODE
 70
     0
  9
$REGENMODE
 70
     1
  9
$FILLMODE
 70
     1
  9
$QTEXTMODE
 70
     0
  9
$MIRRTEXT
 70
     1
  9
$LTSCALE
 40
1.0
  9
$ATTMODE
 70
     1
  9
$TEXTSIZE
 40
2.0
  9
$TRACEWID
 40
0.05
  9
$TEXTSTYLE
  7
UV
  9
$CLAYER
  8
115-1T
  9
$CELTYPE
  6
ByLayer
  9
$CECOLOR
 62
   256
  9
$CELTSCALE
 40
1.0
  9
$DISPSILH
 70
     0
  9
$DIMSCALE
 40
1.0
  9
$DIMASZ
 40
3.5
  9
$DIMEXO
 40
1.0
  9
$DIMDLI
 40
5.0
  9
$DIMRND
 40
0.0
  9
$DIMDLE
 40
0.0
  9
$DIMEXE
 40
1.0
  9
$DIMTP
 40
0.0
  9
$DIMTM
 40
0.0
  9
$DIMTXT
 40
3.0
  9
$DIMCEN
 40
0.09
  9
$DIMTSZ
 40
0.0
  9
$DIMTOL
 70
     0
  9
$DIMLIM
 70
     0
  9
$DIMTIH
 70
     0
  9
$DIMTOH
 70
     0
  9
$DIMSE1
 70
     0
  9
$DIMSE2
 70
     0
  9
$DIMTAD
 70
     1
  9
$DIMZIN
 70
     0
  9
$DIMBLK
  1

  9
$DIMASO
 70
     1
  9
$DIMSHO
 70
     0
  9
$DIMPOST
  1

  9
$DIMAPOST
  1

  9
$DIMALT
 70
     0
  9
$DIMALTD
 70
     2
  9
$DIMALTF
 40
25.4
  9
$DIMLFAC
 40
1.0
  9
$DIMTOFL
 70
     0
  9
$DIMTVP
 40
0.0
  9
$DIMTIX
 70
     1
  9
$DIMSOXD
 70
     0
  9
$DIMSAH
 70
     0
  9
$DIMBLK1
  1

  9
$DIMBLK2
  1

  9
$DIMSTYLE
  2
Standard
  9
$DIMCLRD
 70
     0
  9
$DIMCLRE
 70
     0
  9
$DIMCLRT
 70
     0
  9
$DIMTFAC
 40
1.0
  9
$DIMGAP
 40
0.09
  9
$DIMJUST
 70
     0
  9
$DIMSD1
 70
     0
  9
$DIMSD2
 70
     0
  9
$DIMTOLJ
 70
     1
  9
$DIMTZIN
 70
     0
  9
$DIMALTZ
 70
     0
  9
$DIMALTTZ
 70
     0
  9
$DIMUPT
 70
     0
  9
$DIMDEC
 70
     2
  9
$DIMTDEC
 70
     2
  9
$DIMALTU
 70
     2
  9
$DIMALTTD
 70
     2
  9
$DIMTXSTY
  7
STANDARD
  9
$DIMAUNIT
 70
     0
  9
$DIMADEC
 70
     0
  9
$DIMALTRND
 40
0.0
  9
$DIMAZIN
 70
     0
  9
$DIMDSEP
 70
    46
  9
$DIMATFIT
 70
     3
  9
$DIMFRAC
 70
     0
  9
$DIMLDRBLK
  1

  9
$DIMLUNIT
 70
     2
  9
$DIMLWD
 70
    -2
  9
$DIMLWE
 70
    -2
  9
$DIMTMOVE
 70
     2
  9
$LUNITS
 70
     2
  9
$LUPREC
 70
     2
  9
$SKETCHINC
 40
0.1
  9
$FILLETRAD
 40
1.0
  9
$AUNITS
 70
     0
  9
$AUPREC
 70
     0
  9
$MENU
  1
acad
  9
$ELEVATION
 40
0.0
  9
$PELEVATION
 40
0.0
  9
$THICKNESS
 40
0.0
  9
$LIMCHECK
 70
     0
  9
$CHAMFERA
 40
5.5
  9
$CHAMFERB
 40
5.5
  9
$CHAMFERC
 40
0.0
  9
$CHAMFERD
 40
0.0
  9
$SKPOLY
 70
     0
  9
$TDCREATE
 40
2450595.751410185
  9
$TDUCREATE
 40
2450595.668076851
  9
$TDUPDATE
 40
2451711.647685960
  9
$TDUUPDATE
 40
2451711.564352627
  9
$TDINDWG
 40
0.6707819329
  9
$TDUSRTIMER
 40
0.6707815856
  9
$USRTIMER
 70
     1
  9
$ANGBASE
 50
0.0
  9
$ANGDIR
 70
     0
  9
$PDMODE
 70
     0
  9
$PDSIZE
 40
0.0
  9
$PLINEWID
 40
0.0
  9
$SPLFRAME
 70
     0
  9
$SPLINETYPE
 70
     6
  9
$SPLINESEGS
 70
     8
  9
$HANDSEED
  5
C56
  9
$SURFTAB1
 70
     6
  9
$SURFTAB2
 70
     6
  9
$SURFTYPE
 70
     6
  9
$SURFU
 70
     6
  9
$SURFV
 70
     6
  9
$UCSBASE
  2

  9
$UCSNAME
  2

  9
$UCSORG
 10
0.0
 20
0.0
 30
0.0
  9
$UCSXDIR
 10
1.0
 20
0.0
 30
0.0
  9
$UCSYDIR
 10
0.0
 20
1.0
 30
0.0
  9
$UCSORTHOREF
  2

  9
$UCSORTHOVIEW
 70
     0
  9
$UCSORGTOP
 10
0.0
 20
0.0
 30
0.0
  9
$UCSORGBOTTOM
 10
0.0
 20
0.0
 30
0.0
  9
$UCSORGLEFT
 10
0.0
 20
0.0
 30
0.0
  9
$UCSORGRIGHT
 10
0.0
 20
0.0
 30
0.0
  9
$UCSORGFRONT
 10
0.0
 20
0.0
 30
0.0
  9
$UCSORGBACK
 10
0.0
 20
0.0
 30
0.0
  9
$PUCSBASE
  2

  9
$PUCSNAME
  2

  9
$PUCSORG
 10
0.0
 20
0.0
 30
0.0
  9
$PUCSXDIR
 10
1.0
 20
0.0
 30
0.0
  9
$PUCSYDIR
 10
0.0
 20
1.0
 30
0.0
  9
$PUCSORTHOREF
  2

  9
$PUCSORTHOVIEW
 70
     0
  9
$PUCSORGTOP
 10
0.0
 20
0.0
 30
0.0
  9
$PUCSORGBOTTOM
 10
0.0
 20
0.0
 30
0.0
  9
$PUCSORGLEFT
 10
0.0
 20
0.0
 30
0.0
  9
$PUCSORGRIGHT
 10
0.0
 20
0.0
 30
0.0
  9
$PUCSORGFRONT
 10
0.0
 20
0.0
 30
0.0
  9
$PUCSORGBACK
 10
0.0
 20
0.0
 30
0.0
  9
$USERI1
 70
     0
  9
$USERI2
 70
     0
  9
$USERI3
 70
     0
  9
$USERI4
 70
     0
  9
$USERI5
 70
     0
  9
$USERR1
 40
0.0
  9
$USERR2
 40
0.0
  9
$USERR3
 40
0.0
  9
$USERR4
 40
0.0
  9
$USERR5
 40
0.0
  9
$WORLDVIEW
 70
     1
  9
$SHADEDGE
 70
     3
  9
$SHADEDIF
 70
    70
  9
$TILEMODE
 70
     1
  9
$MAXACTVP
 70
    16
  9
$PINSBASE
 10
0.0
 20
0.0
 30
0.0
  9
$PLIMCHECK
 70
     0
  9
$PEXTMIN
 10
1.000000000000000E+20
 20
1.000000000000000E+20
 30
1.000000000000000E+20
  9
$PEXTMAX
 10
-1.000000000000000E+20
 20
-1.000000000000000E+20
 30
-1.000000000000000E+20
  9
$PLIMMIN
 10
0.0
 20
0.0
  9
$PLIMMAX
 10
12.0
 20
9.0
  9
$UNITMODE
 70
     0
  9
$VISRETAIN
 70
     0
  9
$PLINEGEN
 70
     0
  9
$PSLTSCALE
 70
     0
  9
$TREEDEPTH
 70
  3020
  9
$CMLSTYLE
  2
Standard
  9
$CMLJUST
 70
     0
  9
$CMLSCALE
 40
1.0
  9
$PROXYGRAPHICS
 70
     1
  9
$MEASUREMENT
 70
     0
  9
$CELWEIGHT
370
    -1
  9
$ENDCAPS
280
     0
  9
$JOINSTYLE
280
     0
  9
$LWDISPLAY
290
     0
  9
$INSUNITS
 70
     0
  9
$HYPERLINKBASE
  1

  9
$STYLESHEET
  1
kabler.ctb
  9
$XEDIT
290
     1
  9
$CEPSNTYPE
380
     0
  9
$PSTYLEMODE
290
     1
  9
$FINGERPRINTGUID
  2
{E60073C3-CF43-11D3-9597-0050043D34BD}
  9
$VERSIONGUID
  2
{D26EABC4-42B6-11D4-95F6-0050043D34BD}
  9
$EXTNAMES
290
     1
  9
$PSVPSCALE
 40
0.0
  9
$OLESTARTUP
290
     0
  0
ENDSEC
  0
SECTION
  2
CLASSES
  0
CLASS
  1
ACDBDICTIONARYWDFLT
  2
AcDbDictionaryWithDefault
  3
AutoCAD 2000
 90
        0
280
     0
281
     0
  0
CLASS
  1
ACDBPLACEHOLDER
  2
AcDbPlaceHolder
  3
AutoCAD 2000
 90
        0
280
     0
281
     0
  0
CLASS
  1
LAYOUT
  2
AcDbLayout
  3
AutoCAD 2000
 90
        0
280
     0
281
     0
  0
CLASS
  1
DICTIONARYVAR
  2
AcDbDictionaryVar
  3
AutoCAD 2000
 90
        0
280
     0
281
     0
  0
ENDSEC
  0
SECTION
  2
TABLES
  0
TABLE
  2
VPORT
  5
8
330
0
100
AcDbSymbolTable
 70
     5
  0
VPORT
  5
C55
330
8
100
AcDbSymbolTableRecord
100
AcDbViewportTableRecord
  2
*Active
 70
     0
 10
0.0
 20
0.0
 11
1.0
 21
1.0
 12
115.4013723358006
 22
201.3301628013492
 13
0.0
 23
0.0
 14
1.0
 24
1.0
 15
0.0
 25
0.0
 16
0.0
 26
0.0
 36
1.0
 17
0.0
 27
0.0
 37
0.0
 40
96.34481767439712
 41
1.6
 42
50.0
 43
0.0
 44
0.0
 50
0.0
 51
0.0
 71
     0
 72
   100
 73
     1
 74
     1
 75
     0
 76
     0
 77
     0
 78
     1
281
     0
 65
     1
110
0.0
120
0.0
130
0.0
111
1.0
121
0.0
131
0.0
112
0.0
122
1.0
132
0.0
 79
     0
146
0.0
  0
ENDTAB
  0
TABLE
  2
LTYPE
  5
5
330
0
100
AcDbSymbolTable
 70
     2
  0
LTYPE
  5
13
330
5
100
AcDbSymbolTableRecord
100
AcDbLinetypeTableRecord
  2
ByBlock
 70
     0
  3

 72
    65
 73
     0
 40
0.0
  0
LTYPE
  5
14
330
5
100
AcDbSymbolTableRecord
100
AcDbLinetypeTableRecord
  2
ByLayer
 70
     0
  3

 72
    65
 73
     0
 40
0.0
  0
LTYPE
  5
15
330
5
100
AcDbSymbolTableRecord
100
AcDbLinetypeTableRecord
  2
CONTINUOUS
 70
     0
  3
Solid line
 72
    65
 73
     0
 40
0.0
  0
LTYPE
  5
2D
330
5
100
AcDbSymbolTableRecord
100
AcDbLinetypeTableRecord
  2
CENTER
 70
     0
  3
____ _ ____ _ ____ _ ____ _ ____ _ ____ _ ____
 72
    65
 73
     4
 40
2.0
 49
1.25
 74
     0
 49
-0.25
 74
     0
 49
0.25
 74
     0
 49
-0.25
 74
     0
  0
ENDTAB
  0
TABLE
  2
LAYER
  5
2
330
0
100
AcDbSymbolTable
 70
    10
  0
LAYER
  5
10
330
2
100
AcDbSymbolTableRecord
100
AcDbLayerTableRecord
  2
0
 70
     0
 62
     7
  6
CONTINUOUS
370
    -3
390
F
  0
LAYER
  5
32
330
2
100
AcDbSymbolTableRecord
100
AcDbLayerTableRecord
  2
115-1T
 70
     0
 62
     7
  6
CONTINUOUS
370
    -3
390
F
  0
LAYER
  5
33
330
2
100
AcDbSymbolTableRecord
100
AcDbLayerTableRecord
  2
110-1MEK
 70
     0
 62
     3
  6
CONTINUOUS
370
    -3
390
F
  0
LAYER
  5
35
330
2
100
AcDbSymbolTableRecord
100
AcDbLayerTableRecord
  2
110-1
 70
     1
 62
   -10
  6
CONTINUOUS
370
    -3
390
F
  0
LAYER
  5
36
330
2
100
AcDbSymbolTableRecord
100
AcDbLayerTableRecord
  2
115
 70
     1
 62
   -10
  6
CONTINUOUS
370
    -3
390
F
  0
LAYER
  5
37
330
2
100
AcDbSymbolTableRecord
100
AcDbLayerTableRecord
  2
README
 70
     0
 62
    10
  6
CONTINUOUS
370
    -3
390
F
  0
ENDTAB
  0
TABLE
  2
STYLE
  5
3
330
0
100
AcDbSymbolTable
 70
     4
  0
STYLE
  5
11
330
3
100
AcDbSymbolTableRecord
100
AcDbTextStyleTableRecord
  2
STANDARD
 70
     0
 40
0.0
 41
1.0
 50
0.0
 71
     0
 42
2.0
  3

  4

1001
ACAD
1000
Arial
1071
       34
  0
STYLE
  5
2A
330
3
100
AcDbSymbolTableRecord
100
AcDbTextStyleTableRecord
  2
ariab
 70
     0
 40
0.0
 41
1.0
 50
0.0
 71
     0
 42
3.0
  3
ARIAB___.TTF
  4

1001
ACAD
1000
Arial MT
1071
 33554466
  0
STYLE
  5
2B
330
3
100
AcDbSymbolTableRecord
100
AcDbTextStyleTableRecord
  2
UV
 70
     0
 40
0.0
 41
1.0
 50
0.0
 71
     0
 42
2.0
  3

  4

1001
ACAD
1000
Arial
1071
       34
  0
ENDTAB
  0
TABLE
  2
VIEW
  5
6
330
0
100
AcDbSymbolTable
 70
     1
  0
VIEW
  5
2E
330
6
100
AcDbSymbolTableRecord
100
AcDbViewTableRecord
  2
OLE1
 70
     0
 40
297.0
 10
246.254716981132
 20
148.5
 41
492.509433962264
 11
0.0
 21
0.0
 31
1.0
 12
0.0
 22
0.0
 32
0.0
 42
50.0
 43
0.0
 44
0.0
 50
0.0
 71
     0
281
     0
 72
     0
  0
ENDTAB
  0
TABLE
  2
UCS
  5
7
330
0
100
AcDbSymbolTable
 70
     0
  0
ENDTAB
  0
TABLE
  2
APPID
  5
9
330
0
100
AcDbSymbolTable
 70
     1
  0
APPID
  5
12
330
9
100
AcDbSymbolTableRecord
100
AcDbRegAppTableRecord
  2
ACAD
 70
     0
  0
ENDTAB
  0
TABLE
  2
DIMSTYLE
  5
A
330
0
100
AcDbSymbolTable
 70
     1
100
AcDbDimStyleTable
 71
     0
  0
DIMSTYLE
105
717
330
A
100
AcDbSymbolTableRecord
100
AcDbDimStyleTableRecord
  2
Standard
 70
     0
340
11
  0
ENDTAB
  0
TABLE
  2
BLOCK_RECORD
  5
1
330
0
100
AcDbSymbolTable
 70
     8
  0
BLOCK_RECORD
  5
1E
330
1
100
AcDbSymbolTableRecord
100
AcDbBlockTableRecord
  2
*Model_Space
340
21
  0
BLOCK_RECORD
  5
1A
330
1
100
AcDbSymbolTableRecord
100
AcDbBlockTableRecord
  2
*Paper_Space
340
1D
  0
BLOCK_RECORD
  5
25
330
1
100
AcDbSymbolTableRecord
100
AcDbBlockTableRecord
  2
6
340
0
310
2800000020000000200000000100080000000000000400000000000000000000000000000000000000000000000080000080000000808000800000008000800080800000C0C0C000C0DCC000F0CAA6000020400000206000002080000020A0000020C0000020E00000400000004020000040400000406000004080000040A0
310
000040C0000040E00000600000006020000060400000606000006080000060A0000060C0000060E00000800000008020000080400000806000008080000080A0000080C0000080E00000A0000000A0200000A0400000A0600000A0800000A0A00000A0C00000A0E00000C0000000C0200000C0400000C0600000C0800000C0
310
A00000C0C00000C0E00000E0000000E0200000E0400000E0600000E0800000E0A00000E0C00000E0E00040000000400020004000400040006000400080004000A0004000C0004000E00040200000402020004020400040206000402080004020A0004020C0004020E000404000004040200040404000404060004040800040
310
40A0004040C0004040E00040600000406020004060400040606000406080004060A0004060C0004060E00040800000408020004080400040806000408080004080A0004080C0004080E00040A0000040A0200040A0400040A0600040A0800040A0A00040A0C00040A0E00040C0000040C0200040C0400040C0600040C08000
310
40C0A00040C0C00040C0E00040E0000040E0200040E0400040E0600040E0800040E0A00040E0C00040E0E00080000000800020008000400080006000800080008000A0008000C0008000E00080200000802020008020400080206000802080008020A0008020C0008020E00080400000804020008040400080406000804080
310
008040A0008040C0008040E00080600000806020008060400080606000806080008060A0008060C0008060E00080800000808020008080400080806000808080008080A0008080C0008080E00080A0000080A0200080A0400080A0600080A0800080A0A00080A0C00080A0E00080C0000080C0200080C0400080C0600080C0
310
800080C0A00080C0C00080C0E00080E0000080E0200080E0400080E0600080E0800080E0A00080E0C00080E0E000C0000000C0002000C0004000C0006000C0008000C000A000C000C000C000E000C0200000C0202000C0204000C0206000C0208000C020A000C020C000C020E000C0400000C0402000C0404000C0406000C0
310
408000C040A000C040C000C040E000C0600000C0602000C0604000C0606000C0608000C060A000C060C000C060E000C0800000C0802000C0804000C0806000C0808000C080A000C080C000C080E000C0A00000C0A02000C0A04000C0A06000C0A08000C0A0A000C0A0C000C0A0E000C0C00000C0C02000C0C04000C0C06000
310
C0C08000C0C0A000F0FBFF00A4A0A000808080000000FF0000FF000000FFFF00FF000000FF00FF00FFFF0000FFFFFF00FFFFFFFFFFFFFFFFFFFFFFFFFFFFFFFFFFFFFFFFFFFFFFFFFFFFFFFFFFFFFFFFFFFFFFFFFFFFFFFFFFFFFFFFFFFFFFFFFFFFFFFFFFFFFFFFFFFFFFFFFF0000FFFFFFFFFFFFFFFFFFFFFFFFFFFFFFFF
310
FFFFFFFFFFFFFFFFFFFFFFFFFFFF0000FFFFFFFFFFFFFFFFFFFFFFFFFFFFFFFFFFFFFFFFFFFFFFFFFFFFFFFFFFFF0000FFFFFFFFFFFFFFFFFFFFFFFFFFFFFFFFFFFFFFFFFFFFFFFFFFFFFFFFFFFF0000FFFFFFFFFFFFFFFFFFFFFFFFFFFFFFFFFFFFFFFFFFFFFFFFFFFFFFFFFFFF0000FFFFFFFFFFFFFFFFFFFFFFFFFFFFFF
310
FFFFFFFFFFFFFFFFFFFFFFFFFFFFFF0000FFFFFFFFFFFFFFFFFFFFFFFFFFFFFFFFFFFFFFFFFFFFFFFFFFFFFFFFFFFF0000FFFFFFFFFFFFFFFFFFFFFFFFFFFFFFFFFFFFFFFFFFFFFFFFFFFFFFFFFFFF0000FFFFFFFFFFFFFFFFFFFFFFFFFFFFFFFFFFFFFFFFFFFFFFFFFFFFFFFFFFFF0000FFFFFFFFFFFFFFFFFFFFFFFFFFFF
310
FFFFFFFFFFFFFFFFFFFFFFFFFFFFFFFF0000FFFFFFFFFFFFFFFFFFFFFFFFFFFFFFFFFFFFFFFFFFFFFFFFFFFFFFFFFFFF0000FFFFFFFFFFFFFFFFFFFFFFFFFFFFFFFFFFFFFFFFFFFFFFFFFFFFFFFFFFFF0000FFFFFFFFFFFFFFFFFFFFFFFFFFFFFFFFFFFFFFFFFFFFFFFFFFFFFFFFFFFF0000FFFFFFFFFFFFFFFFFFFFFFFFFF
310
FFFFFFFFFFFFFFFFFFFFFFFFFFFFFFFFFF0000FFFFFFFFFFFFFFFFFFFFFFFFFFFFFFFFFFFFFFFFFFFFFFFFFFFFFFFFFFFF0000FFFFFFFFFFFFFFFFFFFFFFFFFFFFFFFFFFFFFFFFFFFFFFFFFFFFFFFFFFFF0000FFFFFFFFFFFFFFFFFFFFFFFFFFFFFFFFFFFFFFFFFFFFFFFFFFFFFFFFFFFF0000FFFFFFFFFFFFFFFFFFFFFFFF
310
FFFFFFFFFFFFFFFFFFFFFFFFFFFFFFFFFFFF0000FFFFFFFFFFFFFFFFFFFFFFFFFFFFFFFFFFFFFFFFFFFFFFFFFFFFFFFFFFFF0000FFFFFFFFFFFFFFFFFFFFFFFFFFFFFFFFFFFFFFFFFFFFFFFFFFFFFFFFFFFF0000FFFFFFFFFFFFFFFFFFFFFFFFFFFFFFFFFFFFFFFFFFFFFFFFFFFFFFFFFFFF0000FFFFFFFFFFFFFFFFFFFFFF
310
FFFFFFFFFFFFFFFFFFFFFFFFFFFFFFFFFFFFFF0000FFFFFFFFFFFFFFFFFFFFFFFFFFFFFFFFFFFFFFFFFFFFFFFFFFFFFFFFFFFF0000FFFFFFFFFFFFFFFFFFFFFFFFFFFFFFFFFFFFFFFFFFFFFFFFFFFFFFFFFFFF0000FFFFFFFFFFFFFFFFFFFFFFFFFFFFFFFFFFFFFFFFFFFFFFFFFFFFFFFFFFFFFFFFFFFFFFFFFFFFFFFFFFFF
310
FFFFFFFFFFFFFFFFFFFFFFFFFFFFFFFFFFFFFFFFFFFFFFFFFFFFFFFFFFFFFFFFFFFFFFFFFFFFFFFFFFFFFFFFFFFFFFFFFFFFFFFFFFFFFFFFFFFFFFFFFFFFFFFFFFFFFFFFFFFFFFFFFFFFFFFFFFFFFFFFFFFFFFFFFFFFFFFF000000000000000000000000000000000000000000000000FFFFFFFFFFFFFFFF00000000000000
310
0000000000000000000000000000000000FFFFFFFFFFFFFFFFFFFFFFFFFFFFFFFFFFFFFFFFFFFFFFFFFFFFFFFFFFFFFFFFFFFFFFFFFFFFFF
102
{BLKREFS
331
8FC
331
8FB
331
8FA
331
950
331
952
331
A91
331
A92
331
A93
331
AE7
331
AE9
331
AFE
331
AFD
331
AFC
331
B53
331
B55
102
}
  0
BLOCK_RECORD
  5
26
330
1
100
AcDbSymbolTableRecord
100
AcDbBlockTableRecord
  2
1
340
0
310
2800000020000000200000000100080000000000000400000000000000000000000000000000000000000000000080000080000000808000800000008000800080800000C0C0C000C0DCC000F0CAA6000020400000206000002080000020A0000020C0000020E00000400000004020000040400000406000004080000040A0
310
000040C0000040E00000600000006020000060400000606000006080000060A0000060C0000060E00000800000008020000080400000806000008080000080A0000080C0000080E00000A0000000A0200000A0400000A0600000A0800000A0A00000A0C00000A0E00000C0000000C0200000C0400000C0600000C0800000C0
310
A00000C0C00000C0E00000E0000000E0200000E0400000E0600000E0800000E0A00000E0C00000E0E00040000000400020004000400040006000400080004000A0004000C0004000E00040200000402020004020400040206000402080004020A0004020C0004020E000404000004040200040404000404060004040800040
310
40A0004040C0004040E00040600000406020004060400040606000406080004060A0004060C0004060E00040800000408020004080400040806000408080004080A0004080C0004080E00040A0000040A0200040A0400040A0600040A0800040A0A00040A0C00040A0E00040C0000040C0200040C0400040C0600040C08000
310
40C0A00040C0C00040C0E00040E0000040E0200040E0400040E0600040E0800040E0A00040E0C00040E0E00080000000800020008000400080006000800080008000A0008000C0008000E00080200000802020008020400080206000802080008020A0008020C0008020E00080400000804020008040400080406000804080
310
008040A0008040C0008040E00080600000806020008060400080606000806080008060A0008060C0008060E00080800000808020008080400080806000808080008080A0008080C0008080E00080A0000080A0200080A0400080A0600080A0800080A0A00080A0C00080A0E00080C0000080C0200080C0400080C0600080C0
310
800080C0A00080C0C00080C0E00080E0000080E0200080E0400080E0600080E0800080E0A00080E0C00080E0E000C0000000C0002000C0004000C0006000C0008000C000A000C000C000C000E000C0200000C0202000C0204000C0206000C0208000C020A000C020C000C020E000C0400000C0402000C0404000C0406000C0
310
408000C040A000C040C000C040E000C0600000C0602000C0604000C0606000C0608000C060A000C060C000C060E000C0800000C0802000C0804000C0806000C0808000C080A000C080C000C080E000C0A00000C0A02000C0A04000C0A06000C0A08000C0A0A000C0A0C000C0A0E000C0C00000C0C02000C0C04000C0C06000
310
C0C08000C0C0A000F0FBFF00A4A0A000808080000000FF0000FF000000FFFF00FF000000FF00FF00FFFF0000FFFFFF00FFFFFFFFFFFFFFFFFFFFFFFFFFFFFFFFFFFFFFFFFFFFFFFFFFFFFFFFFFFFFFFFFFFFFFFFFFFFFFFFFFFFFFFFFFFFFFFF00FFFFFFFFFFFFFFFFFFFFFFFFFFFFFFFFFFFFFFFFFFFFFFFFFFFFFFFF00FF
310
00FF00FFFFFFFFFFFFFFFFFFFFFFFFFFFFFFFFFFFFFFFFFFFFFFFFFFFF00FF00FF00FF00FFFFFFFFFFFFFFFFFFFFFFFFFFFFFFFFFFFFFFFFFFFFFFFF00FFFFFF00FF00FF00FFFFFFFFFFFFFFFFFFFFFFFFFFFFFFFFFFFFFFFFFFFF00FFFFFFFFFF00FF00FF00FFFFFFFFFFFFFFFFFFFFFFFFFFFFFFFFFFFFFFFF00FFFFFFFF
310
FFFFFF00FF00FF00FFFFFFFFFFFFFFFFFFFFFFFFFFFFFFFFFFFF00FFFFFFFFFFFFFFFFFF00FF00FF00FFFFFFFFFFFFFFFFFFFFFFFFFFFFFFFF00FFFFFFFFFFFFFFFFFF00FFFFFF00FF00FFFFFFFFFFFFFFFFFFFFFFFFFFFF00FFFFFFFFFFFFFFFFFF00FF00FFFFFF00FF00FFFFFFFFFFFFFFFFFFFFFFFF00FFFFFFFFFFFFFF
310
FFFF00FF00FF00FFFFFF00FF00FFFFFFFFFFFFFFFFFFFF00FFFFFFFFFFFFFFFFFF00FF00FFFFFF00FFFFFF00FF00FFFFFFFFFFFFFFFF00FFFFFFFFFFFFFFFFFF00FF00FFFFFFFFFF00FFFFFF00FF00FFFFFFFFFFFF00FFFFFFFFFFFFFFFFFF00FF00FFFFFFFFFFFFFF00FF00FF00FF00FFFFFFFFFFFF00FFFFFFFFFFFFFF00
310
FF00FF00FFFFFFFFFF00FF00FF00FF00FF00FFFFFFFF00FF00FFFFFFFFFF00FF00FF00FF00FFFFFF00FF00FFFFFF00FF00FF00FFFF00FF00FF00FFFFFF00FF00FFFFFF00FF00FF00FF00FFFFFFFFFF00FF00FFFFFFFF00FF00FF00FF00FF00FFFFFFFFFF00FF00FF00FFFFFFFFFFFFFF00FFFFFFFFFFFF00FF00FF00FF00FF
310
FFFFFFFFFFFF00FF00FFFFFFFFFFFFFFFFFF00FFFFFFFFFFFF00FF00FFFFFF00FFFFFFFFFF00FF00FFFFFFFFFFFFFFFFFF00FFFFFFFFFFFFFFFF00FF00FFFFFF00FFFFFF00FF00FFFFFFFFFFFFFFFFFF00FFFFFFFFFFFFFFFFFFFF00FF00FFFFFF00FF00FF00FFFFFFFFFFFFFFFFFF00FFFFFFFFFFFFFFFFFFFFFFFF00FF00
310
FFFFFF00FF00FFFFFFFFFFFFFFFFFF00FFFFFFFFFFFFFFFFFFFFFFFFFFFF00FF00FFFFFF00FFFFFFFFFFFFFFFFFF00FFFFFFFFFFFFFFFFFFFFFFFFFFFFFFFF00FF00FF00FFFFFFFFFFFFFFFFFF00FFFFFFFFFFFFFFFFFFFFFFFFFFFFFFFFFFFF00FF00FF00FFFFFFFFFFFFFF00FFFFFFFFFFFFFFFFFFFFFFFFFFFFFFFFFFFF
310
FFFF00FF00FF00FFFFFFFFFF00FFFFFFFFFFFFFFFFFFFFFFFFFFFFFFFFFFFFFFFFFFFF00FF00FF00FFFFFF00FFFFFFFFFFFFFFFFFFFFFFFFFFFFFFFFFFFFFFFFFFFFFFFF00FF00FF00FF00FFFFFFFFFFFFFFFFFFFFFFFFFFFFFFFFFFFFFFFFFFFFFFFFFFFF00FF00FF00FFFFFFFFFFFFFFFFFFFFFFFFFFFFFFFFFFFFFFFFFF
310
FFFFFFFFFFFFFF00FFFFFFFFFFFFFFFFFFFFFFFFFFFFFFFFFFFFFFFFFFFFFFFFFFFFFFFFFFFFFFFFFFFFFFFFFFFFFFFFFFFFFFFFFFFFFFFF
102
{BLKREFS
331
8FD
331
934
331
951
331
A94
331
AE8
331
ACB
331
AFF
331
B38
331
B54
102
}
  0
BLOCK_RECORD
  5
27
330
1
100
AcDbSymbolTableRecord
100
AcDbBlockTableRecord
  2
0
340
0
102
{BLKREFS
331
8EE
331
8F5
331
944
331
A85
331
A8C
331
ADB
331
AED
331
AF6
331
B48
102
}
  0
BLOCK_RECORD
  5
28
330
1
100
AcDbSymbolTableRecord
100
AcDbBlockTableRecord
  2
115-1
340
0
310
2800000020000000200000000100080000000000000400000000000000000000000000000000000000000000000080000080000000808000800000008000800080800000C0C0C000C0DCC000F0CAA6000020400000206000002080000020A0000020C0000020E00000400000004020000040400000406000004080000040A0
310
000040C0000040E00000600000006020000060400000606000006080000060A0000060C0000060E00000800000008020000080400000806000008080000080A0000080C0000080E00000A0000000A0200000A0400000A0600000A0800000A0A00000A0C00000A0E00000C0000000C0200000C0400000C0600000C0800000C0
310
A00000C0C00000C0E00000E0000000E0200000E0400000E0600000E0800000E0A00000E0C00000E0E00040000000400020004000400040006000400080004000A0004000C0004000E00040200000402020004020400040206000402080004020A0004020C0004020E000404000004040200040404000404060004040800040
310
40A0004040C0004040E00040600000406020004060400040606000406080004060A0004060C0004060E00040800000408020004080400040806000408080004080A0004080C0004080E00040A0000040A0200040A0400040A0600040A0800040A0A00040A0C00040A0E00040C0000040C0200040C0400040C0600040C08000
310
40C0A00040C0C00040C0E00040E0000040E0200040E0400040E0600040E0800040E0A00040E0C00040E0E00080000000800020008000400080006000800080008000A0008000C0008000E00080200000802020008020400080206000802080008020A0008020C0008020E00080400000804020008040400080406000804080
310
008040A0008040C0008040E00080600000806020008060400080606000806080008060A0008060C0008060E00080800000808020008080400080806000808080008080A0008080C0008080E00080A0000080A0200080A0400080A0600080A0800080A0A00080A0C00080A0E00080C0000080C0200080C0400080C0600080C0
310
800080C0A00080C0C00080C0E00080E0000080E0200080E0400080E0600080E0800080E0A00080E0C00080E0E000C0000000C0002000C0004000C0006000C0008000C000A000C000C000C000E000C0200000C0202000C0204000C0206000C0208000C020A000C020C000C020E000C0400000C0402000C0404000C0406000C0
310
408000C040A000C040C000C040E000C0600000C0602000C0604000C0606000C0608000C060A000C060C000C060E000C0800000C0802000C0804000C0806000C0808000C080A000C080C000C080E000C0A00000C0A02000C0A04000C0A06000C0A08000C0A0A000C0A0C000C0A0E000C0C00000C0C02000C0C04000C0C06000
310
C0C08000C0C0A000F0FBFF00A4A0A000808080000000FF0000FF000000FFFF00FF000000FF00FF00FFFF0000FFFFFF00FFFFFFFFFFFFFFFFFFFFFFFFFFFFFFFFFFFFFFFFFFFFFFFFFFFFFFFFFFFFFFFFFFFFFFFFFFFFFFFFFFFFFFFFFFFFFFFFFFFFFFFFFFFFFFFFFFFFFFFFFFFFFFFFFFFFFFFFFFFFFFFFFFFFFFFFFFFFFF
310
FFFFFFFFFFFFFFFFFFFFFFFFFFFFFFFFFFFFFFFFFFFFFFFFFFFFFFFFFFFFFFFFFFFFFFFFFFFFFFFFFFFFFFFFFFFFFFFFFFFFFFFFFFFFFFFFFFFFFFFFFFFFFFFFFFFFFFFFFFFFFFFFFFFFFFFFFFFFFFFFFFFFFFFFFFFFFFFFFFFFFFFFFFFFFFFFFFFFFFFFFFFFFFFFFFFFFFFFFFFFFFFFFFFFFFFFFFFFFFFFFFFFFFFFFFFFFF
310
FFFFFFFFFFFFFFFFFFFFFFFFFFFFFFFFFFFFFFFFFFFFFFFFFFFFFFFFFFFFFFFFFFFFFFFFFFFFFFFFFFFFFFFFFFFFFFFFFFFFFFFFFFFFFFFFFFFFFFFFFFFFFFFFFFFFFFFFFFFFFFFFFFFFFFFFFFFFFFFFFFFFFFFFFFFFFFFFFFFFFFFFFFFFFFFFFFFFFFFFFFFFFFFFFFFFFFFFFFFFFFFFFFFFFFFFFFFFFFFFFFFFFFFFFFFFFF
310
FFFFFFFFFFFFFFFFFFFFFFFFFFFFFFFFFFFFFFFFFFFFFFFFFFFFFFFFFFFFFFFFFFFFFFFFFFFFFFFFFFFFFFFFFFFFFFFFFFFFFFFFFFFFFFFFFFFFFFFFFFFFFFFFFFFFFFFFFFFFFFFFFFFFFFFFFFFFFFFFFFFFFFFFFFFFFFFFFFFFFFFFFFFFFFFFFFFFFFFFFFFFFFFFFFFFFFFFFFFFFFFFFFFFFFFFFF000000000000000000FF
310
0000000000000000000000FFFFFFFFFFFF0000FFFF000000000000000000000000000000000000000000000000FFFFFFFF0000FFFFFF00000000000000000000000000FF00000000FF00000000000000000000FFFFFF00FF00000000FF00FF0000FFFF0000FFFFFFFFFFFFFFFFFF0000FF0000FFFFFFFFFFFFFFFFFFFFFFFF
310
FFFFFFFFFFFFFFFFFFFFFFFFFFFFFFFFFFFFFFFFFFFFFFFFFFFFFFFFFFFFFFFFFFFFFFFFFFFFFFFFFFFFFFFFFFFFFFFFFFFFFFFFFFFFFFFFFFFFFFFFFFFFFFFFFFFFFFFFFFFFFFFFFFFFFFFFFFFFFFFFFFFFFFFFFFFFFFFFFFFFFFFFFFFFFFFFFFFFFFFFFFFFFFFFFFFFFFFFFFFFFFFFFFFFFFFFFFFFFFFFFFFFFFFFFFFFFF
310
FFFFFFFFFFFFFFFFFFFFFFFFFFFFFFFFFFFFFFFFFFFFFFFFFFFFFFFFFFFFFFFFFFFFFFFFFFFFFFFFFFFFFFFFFFFFFFFFFFFFFFFFFFFFFFFFFFFFFFFFFFFFFFFFFFFFFFFFFFFFFFFFFFFFFFFFFFFFFFFFFFFFFFFFFFFFFFFFFFFFFFFFFFFFFFFFFFFFFFFFFFFFFFFFFFFFFFFFFFFFFFFFFFFFFFFFFFFFFFFFFFFFFFFFFFFFFF
310
FFFFFFFFFFFFFFFFFFFFFFFFFFFFFFFFFFFFFFFFFFFFFFFFFFFFFFFFFFFFFFFFFFFFFFFFFFFFFFFFFFFFFFFFFFFFFFFFFFFFFFFFFFFFFFFFFFFFFFFFFFFFFFFFFFFFFFFFFFFFFFFFFFFFFFFFFFFFFFFFFFFFFFFFFFFFFFFFFFFFFFFFFFFFFFFFFFFFFFFFFFFFFFFFFFFFFFFFFFFFFFFFFFFFFFFFFFFFFFFFFFFFFFFFFFFFFF
310
FFFFFFFFFFFFFFFFFFFFFFFFFFFFFFFFFFFFFFFFFFFFFFFFFFFFFFFFFFFFFFFFFFFFFFFFFFFFFFFFFFFFFFFFFFFFFFFFFFFFFFFFFFFFFFFF
102
{BLKREFS
331
87C
331
A81
102
}
  0
BLOCK_RECORD
  5
29
330
1
100
AcDbSymbolTableRecord
100
AcDbBlockTableRecord
  2
110-1
340
0
310
2800000020000000200000000100080000000000000400000000000000000000000000000000000000000000000080000080000000808000800000008000800080800000C0C0C000C0DCC000F0CAA6000020400000206000002080000020A0000020C0000020E00000400000004020000040400000406000004080000040A0
310
000040C0000040E00000600000006020000060400000606000006080000060A0000060C0000060E00000800000008020000080400000806000008080000080A0000080C0000080E00000A0000000A0200000A0400000A0600000A0800000A0A00000A0C00000A0E00000C0000000C0200000C0400000C0600000C0800000C0
310
A00000C0C00000C0E00000E0000000E0200000E0400000E0600000E0800000E0A00000E0C00000E0E00040000000400020004000400040006000400080004000A0004000C0004000E00040200000402020004020400040206000402080004020A0004020C0004020E000404000004040200040404000404060004040800040
310
40A0004040C0004040E00040600000406020004060400040606000406080004060A0004060C0004060E00040800000408020004080400040806000408080004080A0004080C0004080E00040A0000040A0200040A0400040A0600040A0800040A0A00040A0C00040A0E00040C0000040C0200040C0400040C0600040C08000
310
40C0A00040C0C00040C0E00040E0000040E0200040E0400040E0600040E0800040E0A00040E0C00040E0E00080000000800020008000400080006000800080008000A0008000C0008000E00080200000802020008020400080206000802080008020A0008020C0008020E00080400000804020008040400080406000804080
310
008040A0008040C0008040E00080600000806020008060400080606000806080008060A0008060C0008060E00080800000808020008080400080806000808080008080A0008080C0008080E00080A0000080A0200080A0400080A0600080A0800080A0A00080A0C00080A0E00080C0000080C0200080C0400080C0600080C0
310
800080C0A00080C0C00080C0E00080E0000080E0200080E0400080E0600080E0800080E0A00080E0C00080E0E000C0000000C0002000C0004000C0006000C0008000C000A000C000C000C000E000C0200000C0202000C0204000C0206000C0208000C020A000C020C000C020E000C0400000C0402000C0404000C0406000C0
310
408000C040A000C040C000C040E000C0600000C0602000C0604000C0606000C0608000C060A000C060C000C060E000C0800000C0802000C0804000C0806000C0808000C080A000C080C000C080E000C0A00000C0A02000C0A04000C0A06000C0A08000C0A0A000C0A0C000C0A0E000C0C00000C0C02000C0C04000C0C06000
310
C0C08000C0C0A000F0FBFF00A4A0A000808080000000FF0000FF000000FFFF00FF000000FF00FF00FFFF0000FFFFFF00FFFFFFFFFFFFFFFFFFFFFFFFFFFFFFFFFFFFFFFFFFFFFFFFFFFFFFFFFFFFFFFFFFFFFFFFFFFFFFFFFFFFFFFFFFFFFFFFFFFFFFFFFFFFFFFFFFFFFFFFFFFFFFFFFFFFFFFFFFFFFFFFFFFFFFFFFFFFFF
310
FFFFFFFFFFFFFFFFFFFFFFFFFFFFFFFFFFFFFFFFFFFFFFFFFFFFFFFFFFFFFFFFFFFFFFFFFFFFFFFFFFFFFFFFFFFFFFFFFFFFFFFFFFFFFFFFFFFFFFFFFFFFFFFFFFFFFFFFFFFFFFFFFFFFFFFFFFFFFFFFFFFFFFFFFFFFFFFFFFFFFFFFFFFFFFFFFFFFFFFFFFFFFFFFFFFFFFFFFFFFFFFFFFFFFFFFFFFFFFFFFFFFFFFFFFFFFF
310
FFFFFFFFFFFFFFFFFFFFFFFFFFFFFFFFFFFFFFFFFFFFFFFFFFFFFFFFFFFFFFFFFFFFFFFFFFFFFFFFFFFFFFFFFFFFFFFFFFFFFFFFFFFFFFFFFFFFFFFFFFFFFFFFFFFFFFFFFFFFFFFFFFFFFFFFFFFFFFFFFFFFFFFFFFFFFFFFFFFFFFFFFFFFFFFFFFFFFFFFFFFFFFFFFFFFFFFFFFFFFFFFFFFFFFFFFFFFFFFFFFFFFFFFFFFFFF
310
FFFFFFFFFFFFFFFFFFFFFFFFFFFFFFFFFFFFFFFFFFFFFFFFFFFFFFFFFFFFFFFFFFFFFFFFFFFFFFFFFFFFFFFFFFFFFFFFFFFFFFFFFFFFFFFFFFFFFFFFFFFFFFFFFFFFFFFFFFFFFFFFFFFFFFFFFFFFFFFFFFFFFFFFFFFFFFFFFFFFFFFFFFFFFFFFFFFFFFFFFFFFFFFFFFFFFFFFFFFFFFFFFFFFFFFFFA0000000000000000FAFA
310
0000000000000000000000FAFAFAFAFAFAFAFAFFFFFA00FA000000000000FA000000000000000000FA0000FA00FAFAFFFAFAFAFFFFFAFAFA00000000000000FA000000FA0000FAFAFA00FA0000FAFAFA00FAFAFFFFFAFAFA000000000000FAFA0000FAFA00FAFAFAFAFAFAFA00FA000000FAFAFFFFFFFFFFFFFFFFFFFFFFFF
310
FFFFFFFFFFFFFFFFFFFFFFFFFFFFFFFFFFFFFFFFFFFFFFFFFFFFFFFFFFFFFFFFFFFFFFFFFFFFFFFFFFFFFFFFFFFFFFFFFFFFFFFFFFFFFFFFFFFFFFFFFFFFFFFFFFFFFFFFFFFFFFFFFFFFFFFFFFFFFFFFFFFFFFFFFFFFFFFFFFFFFFFFFFFFFFFFFFFFFFFFFFFFFFFFFFFFFFFFFFFFFFFFFFFFFFFFFFFFFFFFFFFFFFFFFFFFFF
310
FFFFFFFFFFFFFFFFFFFFFFFFFFFFFFFFFFFFFFFFFFFFFFFFFFFFFFFFFFFFFFFFFFFFFFFFFFFFFFFFFFFFFFFFFFFFFFFFFFFFFFFFFFFFFFFFFFFFFFFFFFFFFFFFFFFFFFFFFFFFFFFFFFFFFFFFFFFFFFFFFFFFFFFFFFFFFFFFFFFFFFFFFFFFFFFFFFFFFFFFFFFFFFFFFFFFFFFFFFFFFFFFFFFFFFFFFFFFFFFFFFFFFFFFFFFFFF
310
FFFFFFFFFFFFFFFFFFFFFFFFFFFFFFFFFFFFFFFFFFFFFFFFFFFFFFFFFFFFFFFFFFFFFFFFFFFFFFFFFFFFFFFFFFFFFFFFFFFFFFFFFFFFFFFFFFFFFFFFFFFFFFFFFFFFFFFFFFFFFFFFFFFFFFFFFFFFFFFFFFFFFFFFFFFFFFFFFFFFFFFFFFFFFFFFFFFFFFFFFFFFFFFFFFFFFFFFFFFFFFFFFFFFFFFFFFFFFFFFFFFFFFFFFFFFFF
310
FFFFFFFFFFFFFFFFFFFFFFFFFFFFFFFFFFFFFFFFFFFFFFFFFFFFFFFFFFFFFFFFFFFFFFFFFFFFFFFFFFFFFFFFFFFFFFFFFFFFFFFFFFFFFFFF
102
{BLKREFS
331
490
331
95E
102
}
  0
ENDTAB
  0
ENDSEC
  0
SECTION
  2
BLOCKS
  0
BLOCK
  5
3B
330
1E
100
AcDbEntity
  8
0
100
AcDbBlockBegin
  2
*Model_Space
 70
     0
 10
0.0
 20
0.0
 30
0.0
  3
*Model_Space
  1

  0
ENDBLK
  5
3C
330
1E
100
AcDbEntity
  8
0
100
AcDbBlockEnd
  0
BLOCK
  5
39
330
1A
100
AcDbEntity
 67
     1
  8
0
100
AcDbBlockBegin
  2
*Paper_Space
 70
     0
 10
0.0
 20
0.0
 30
0.0
  3
*Paper_Space
  1

  0
ENDBLK
  5
3A
330
1A
100
AcDbEntity
 67
     1
  8
0
100
AcDbBlockEnd
  0
BLOCK
  5
E7
330
25
100
AcDbEntity
  8
0
100
AcDbBlockBegin
  2
6
 70
     0
 10
0.0
 20
0.0
 30
0.0
  3
6
  1

  0
LWPOLYLINE
  5
8E9
330
25
100
AcDbEntity
  8
0
100
AcDbPolyline
 90
        2
 70
     0
 43
0.01
 10
0.0
 20
-1.0
 10
0.0
 20
-0.2
  0
LWPOLYLINE
  5
8EA
330
25
100
AcDbEntity
  8
0
100
AcDbPolyline
 90
        2
 70
     0
 43
0.01
 10
-1.0
 20
0.0
 10
-0.2
 20
0.0
  0
ENDBLK
  5
F0
330
25
100
AcDbEntity
  8
0
100
AcDbBlockEnd
  0
BLOCK
  5
F1
330
26
100
AcDbEntity
  8
0
100
AcDbBlockBegin
  2
1
 70
     0
 10
0.0
 20
0.0
 30
0.0
  3
1
  1

  0
LWPOLYLINE
  5
739
330
26
100
AcDbEntity
  8
0
 62
     7
100
AcDbPolyline
 90
        2
 70
     0
 43
0.02
 10
0.0
 20
0.4900000000000002
 42
0.4142135623730951
 10
-0.4900000000000002
 20
0.0000000000000001
 42
0.4142135623730951
  0
LWPOLYLINE
  5
73A
330
26
100
AcDbEntity
  8
0
 62
     7
100
AcDbPolyline
 90
        2
 70
     0
 43
0.02
 10
0.0
 20
-0.4900000000000002
 42
0.4142135623730951
 10
0.4900000000000002
 20
-0.0000000000000001
 42
0.4142135623730951
  0
LWPOLYLINE
  5
73B
330
26
100
AcDbEntity
  8
0
 62
     7
100
AcDbPolyline
 90
        2
 70
     0
 43
0.25
 10
0.0
 20
0.125
 42
0.4142135623730951
 10
-0.125
 20
0.0
 42
0.4142135623730951
  0
LWPOLYLINE
  5
73C
330
26
100
AcDbEntity
  8
0
 62
     7
100
AcDbPolyline
 90
        2
 70
     0
 43
0.25
 10
0.0
 20
-0.125
 42
0.4142135623730951
 10
0.125
 20
0.0
 42
0.4142135623730951
  0
LWPOLYLINE
  5
73D
330
26
100
AcDbEntity
  8
0
 62
     7
100
AcDbPolyline
 90
        2
 70
     0
 43
0.25
 10
0.375
 20
0.0
 42
0.4142135623730951
 10
0.0
 20
0.375
 42
0.4142135623730951
  0
LWPOLYLINE
  5
73E
330
26
100
AcDbEntity
  8
0
 62
     7
100
AcDbPolyline
 90
        2
 70
     0
 43
0.25
 10
-0.375
 20
0.0
 42
0.4142135623730951
 10
-0.0000000000000001
 20
-0.375
 42
0.4142135623730951
  0
ENDBLK
  5
10A
330
26
100
AcDbEntity
  8
0
100
AcDbBlockEnd
  0
BLOCK
  5
10B
330
27
100
AcDbEntity
  8
0
100
AcDbBlockBegin
  2
0
 70
     2
 10
0.0
 20
0.0
 30
0.0
  3
0
  1

  0
ATTDEF
  5
10C
330
27
100
AcDbEntity
  8
0
100
AcDbText
 10
0.0
 20
0.0
 30
0.0
 40
1.0
  1

100
AcDbAttributeDefinition
  3
navn
  2
NAME
 70
     0
  0
ATTDEF
  5
10E
330
27
100
AcDbEntity
  8
0
100
AcDbText
 10
10.0
 20
0.0
 30
0.0
 40
1.0
  1

100
AcDbAttributeDefinition
  3
dato
  2
DATE
 70
     0
  0
ATTDEF
  5
10F
330
27
100
AcDbEntity
  8
0
100
AcDbText
 10
20.0
 20
0.0
 30
0.0
 40
1.0
  1

100
AcDbAttributeDefinition
  3
lag
  2
LAYER
 70
     1
  0
ENDBLK
  5
110
330
27
100
AcDbEntity
  8
0
100
AcDbBlockEnd
  0
BLOCK
  5
111
330
28
100
AcDbEntity
  8
0
100
AcDbBlockBegin
  2
115-1
 70
     0
 10
0.0
 20
0.0
 30
0.0
  3
115-1
  1
115-1
  0
TEXT
  5
AEC
330
28
100
AcDbEntity
  8
115-1T
100
AcDbText
 10
215.6125614911263
 20
80.77894654787369
 30
0.0
 40
2.0
  1
90 
  7
ariab
100
AcDbText
  0
INSERT
  5
AED
330
28
100
AcDbEntity
  8
115-1T
100
AcDbBlockReference
 66
     1
  2
0
 10
159.7370032064396
 20
71.52672005176114
 30
0.0
 41
4.0
 42
4.0
 43
4.0
  0
ATTRIB
  5
AEE
330
AED
100
AcDbEntity
  8
0
100
AcDbText
 10
159.7370032064396
 20
71.52672005176114
 30
0.0
 40
4.0
  1
APPROVED
100
AcDbAttribute
  2
NAME
 70
     0
  0
ATTRIB
  5
AEF
330
AED
100
AcDbEntity
  8
0
100
AcDbText
 10
199.7370032064395
 20
71.52672005176114
 30
0.0
 40
4.0
  1
             DATE
100
AcDbAttribute
  2
DATE
 70
     0
  0
ATTRIB
  5
AF0
330
AED
100
AcDbEntity
  8
0
100
AcDbText
 10
239.7370032064396
 20
71.52672005176114
 30
0.0
 40
4.0
  1
115-1T
100
AcDbAttribute
  2
LAYER
 70
     1
  0
SEQEND
  5
AF1
330
AED
100
AcDbEntity
  8
115-1T
  0
TEXT
  5
AF2
330
28
100
AcDbEntity
  8
115-1T
100
AcDbText
 10
215.6125614911263
 20
87.61359221716503
 30
0.0
 40
2.0
  1
90 - 250 
  7
ariab
100
AcDbText
  0
LWPOLYLINE
  5
AF3
330
28
100
AcDbEntity
  8
115-1T
100
AcDbPolyline
 90
        9
 70
     0
 43
0.2
 10
238.4915498255121
 20
89.6221562319303
 10
238.4915498255121
 20
80.77418565416442
 42
-0.4142135623730951
 10
237.6915498255121
 20
79.97418565416442
 10
215.6828994781245
 20
79.97418565416442
 42
-0.4142135623730965
 10
214.8828994781244
 20
80.77418565416442
 10
214.8828994781244
 20
89.6221562319303
 42
-0.4142135623730944
 10
215.6828994781245
 20
90.42215623193028
 10
237.6915498255121
 20
90.42215623193028
 42
-0.4142135623730951
 10
238.4915498255121
 20
89.6221562319303
  0
TEXT
  5
AF4
330
28
100
AcDbEntity
  8
115-1T
100
AcDbText
 10
215.6125614911263
 20
84.19626938251937
 30
0.0
 40
2.0
  1
48 - 65 
  7
ariab
100
AcDbText
  0
LWPOLYLINE
  5
AF5
330
28
100
AcDbEntity
  8
115-1T
100
AcDbPolyline
 90
        4
 70
     0
 43
0.2
 39
0.2
 10
101.022136722637
 20
116.0254123287669
 10
101.022136722637
 20
101.3341411532425
 10
64.68729999999997
 20
101.3341411532425
 10
64.68729999999997
 20
116.0254123287669
  0
INSERT
  5
AF6
330
28
100
AcDbEntity
  8
115-1T
100
AcDbBlockReference
 66
     1
  2
0
 10
17.69154778786985
 20
71.52672005176114
 30
0.0
 41
4.0
 42
4.0
 43
4.0
  0
ATTRIB
  5
AF7
330
AF6
100
AcDbEntity
  8
0
100
AcDbText
 10
17.69154778786985
 20
71.52672005176114
 30
0.0
 40
4.0
  1
12704101
100
AcDbAttribute
  2
NAME
 70
     0
  0
ATTRIB
  5
AF8
330
AF6
100
AcDbEntity
  8
0
100
AcDbText
 10
57.69154778786987
 20
71.52672005176114
 30
0.0
 40
4.0
  1
03/08/1998
100
AcDbAttribute
  2
DATE
 70
     0
  0
ATTRIB
  5
AF9
330
AF6
100
AcDbEntity
  8
0
100
AcDbText
 10
97.69154778786989
 20
71.52672005176114
 30
0.0
 40
4.0
  1
115-1T
100
AcDbAttribute
  2
LAYER
 70
     1
  0
SEQEND
  5
AFA
330
AF6
100
AcDbEntity
  8
115-1T
  0
TEXT
  5
AFB
330
28
100
AcDbEntity
  8
115-1T
100
AcDbText
 10
79.36204826849077
 20
115.0311339214762
 30
0.0
 40
2.0
  1
OUT
  7
ariab
100
AcDbText
  0
INSERT
  5
AFC
330
28
100
AcDbEntity
  8
115-1T
100
AcDbBlockReference
  2
6
 10
14.69154778786984
 20
76.52672005176114
 30
0.0
 41
4.0
 42
4.0
 43
4.0
  0
INSERT
  5
AFD
330
28
100
AcDbEntity
  8
115-1T
100
AcDbBlockReference
  2
6
 10
14.69154778786988
 20
118.525420051761
 30
0.0
 41
-4.0
 42
4.0
 43
4.0
 50
180.0
  0
INSERT
  5
AFE
330
28
100
AcDbEntity
  8
115-1T
100
AcDbBlockReference
  2
6
 10
14.69154778786988
 20
118.525420051761
 30
0.0
 41
-4.0
 42
4.0
 43
4.0
 50
180.0
  0
INSERT
  5
AFF
330
28
100
AcDbEntity
  8
115-1T
100
AcDbBlockReference
  2
1
 10
9.691547787869858
 20
97.52672005176115
 30
0.0
 41
4.0
 42
4.0
 43
4.0
  0
LWPOLYLINE
  5
B00
330
28
100
AcDbEntity
  8
115-1T
100
AcDbPolyline
 90
        2
 70
     0
 43
0.0
 10
31.1079009203744
 20
89.52378435846727
 10
26.28173453872835
 20
107.5352825005513
  0
LWPOLYLINE
  5
B01
330
28
100
AcDbEntity
  8
115-1T
100
AcDbPolyline
 90
        2
 70
     0
 43
0.0
 10
28.69481772955138
 20
89.20609592950922
 10
28.69481772955138
 20
107.8529709295092
  0
LWPOLYLINE
  5
B02
330
28
100
AcDbEntity
  8
115-1T
100
AcDbPolyline
 90
        2
 70
     0
 43
0.0
 10
55.43979829538994
 20
92.12443086713269
 10
51.14987262281568
 20
108.1346514378739
  0
LWPOLYLINE
  5
B03
330
28
100
AcDbEntity
  8
115-1T
100
AcDbPolyline
 90
        2
 70
     0
 43
0.0
 10
53.29483545910282
 20
91.84204115250329
 10
53.29483545910282
 20
108.4170411525033
  0
LWPOLYLINE
  5
B04
330
28
100
AcDbEntity
  8
115-1T
100
AcDbPolyline
 90
        2
 70
     0
 43
0.0
 10
45.2897251737321
 20
97.98457831621622
 10
61.29994574447348
 20
102.2745039887904
  0
LWPOLYLINE
  5
B05
330
28
100
AcDbEntity
  8
115-1T
100
AcDbPolyline
 90
        2
 70
     0
 43
0.0
 10
45.00733545910271
 20
100.1295411525032
 10
61.58233545910277
 20
100.1295411525032
  0
TEXT
  5
B06
330
28
100
AcDbEntity
  8
115-1T
100
AcDbText
 10
47.0847399611492
 20
82.44378426119864
 30
0.0
 40
2.0
  1
AES/EBU
  7
ariab
 72
     1
 11
53.29483545910282
 21
82.44378426119864
 31
0.0
100
AcDbText
  0
LWPOLYLINE
  5
B07
330
28
100
AcDbEntity
  8
115-1T
100
AcDbPolyline
 90
        2
 70
     0
 43
0.0
 10
19.37138022955128
 20
98.52953342950932
 10
38.01825522955134
 20
98.52953342950932
  0
LWPOLYLINE
  5
B08
330
28
100
AcDbEntity
  8
115-1T
100
AcDbPolyline
 90
        2
 70
     0
 43
0.0
 10
19.68906865850932
 20
96.11645023868627
 10
37.70056680059339
 20
100.9426166203323
  0
TEXT
  5
B09
330
28
100
AcDbEntity
  8
115-1T
100
AcDbText
 10
20.933580343141
 20
79.64378440297989
 30
0.0
 40
2.0
  1
TIME CODE
  7
ariab
 72
     1
 11
28.69483545910281
 21
79.64378440297989
 31
0.0
100
AcDbText
  0
TEXT
  5
B0A
330
28
100
AcDbEntity
  8
115-1T
100
AcDbText
 10
48.79347120262261
 20
79.64378440283425
 30
0.0
 40
2.0
  1
AUDIO
  7
ariab
 72
     1
 11
53.29483545910282
 21
79.64378440283425
 31
0.0
100
AcDbText
  0
TEXT
  5
B0B
330
28
100
AcDbEntity
  8
115-1T
100
AcDbText
 10
67.47717569273127
 20
82.44378426119864
 30
0.0
 40
2.0
  1
AES/EBU
  7
ariab
 72
     1
 11
73.68727119068489
 21
82.44378426119864
 31
0.0
100
AcDbText
  0
TEXT
  5
B0C
330
28
100
AcDbEntity
  8
115-1T
100
AcDbText
 10
69.18590693420468
 20
79.64378440297983
 30
0.0
 40
2.0
  1
AUDIO
  7
ariab
 72
     1
 11
73.68727119068489
 21
79.64378440297983
 31
0.0
100
AcDbText
  0
HATCH
  5
B0D
330
28
100
AcDbEntity
  8
115-1T
100
AcDbHatch
 10
0.0
 20
0.0
 30
0.0
210
0.0
220
0.0
230
1.0
  2
SOLID
 70
     1
 71
     1
 91
        1
 92
        1
 93
        3
 72
     1
 10
62.27446059300604
 20
115.1317923854334
 11
64.01041065038967
 21
114.1295411525032
 72
     1
 10
64.01041065038967
 20
114.1295411525032
 11
62.27446059300604
 21
113.1272899195731
 72
     1
 10
62.27446059300604
 20
113.1272899195731
 11
62.27446059300604
 21
115.1317923854334
 97
        1
330
B0E
 75
     0
 76
     1
 98
        1
 10
0.0
 20
0.0
  0
LWPOLYLINE
  5
B0E
102
{ACAD_REACTORS
330
B0D
102
}
330
28
100
AcDbEntity
  8
115-1T
100
AcDbPolyline
 90
        3
 70
     1
 43
0.0
 10
62.27446059300604
 20
115.1317923854334
 10
64.01041065038967
 20
114.1295411525032
 10
62.27446059300604
 20
113.1272899195731
  0
TEXT
  5
B0F
330
28
100
AcDbEntity
  8
115-1T
100
AcDbText
 10
48.44637724889729
 20
113.118866348283
 30
0.0
 40
2.0
  1
SDI GENL
  7
ariab
100
AcDbText
  0
TEXT
  5
B10
330
28
100
AcDbEntity
  8
115-1T
100
AcDbText
 10
85.63270093147613
 20
79.64378440297983
 30
0.0
 40
2.0
  1
SILENCE
  7
ariab
 72
     1
 11
91.68727119068487
 21
79.64378440297983
 31
0.0
100
AcDbText
  0
TEXT
  5
B11
330
28
100
AcDbEntity
  8
115-1T
100
AcDbText
 10
85.47717569273125
 20
82.44378426119864
 30
0.0
 40
2.0
  1
AES/EBU
  7
ariab
 72
     1
 11
91.68727119068487
 21
82.44378426119864
 31
0.0
100
AcDbText
  0
TEXT
  5
B12
330
28
100
AcDbEntity
  8
115-1T
100
AcDbText
 10
104.4103273377061
 20
79.64378440298013
 30
0.0
 40
2.0
  1
ANL BB
  7
ariab
 72
     1
 11
109.6872714031905
 21
79.64378440298013
 31
0.0
100
AcDbText
  0
TEXT
  5
B13
330
28
100
AcDbEntity
  8
115-1T
100
AcDbText
 10
104.0992766477108
 20
82.44378426119864
 30
0.0
 40
2.0
  1
SDI BLK
  7
ariab
 72
     1
 11
109.6872711906849
 21
82.44378426119864
 31
0.0
100
AcDbText
  0
TEXT
  5
B14
330
28
100
AcDbEntity
  8
115-1T
100
AcDbText
 10
122.4103271252005
 20
79.64378440307484
 30
0.0
 40
2.0
  1
ANL BB
  7
ariab
 72
     1
 11
127.6872711906849
 21
79.64378440307484
 31
0.0
100
AcDbText
  0
TEXT
  5
B15
330
28
100
AcDbEntity
  8
115-1T
100
AcDbText
 10
122.0992766477108
 20
82.44378426119864
 30
0.0
 40
2.0
  1
SDI BLK
  7
ariab
 72
     1
 11
127.6872711906849
 21
82.44378426119864
 31
0.0
100
AcDbText
  0
TEXT
  5
B16
330
28
100
AcDbEntity
  8
115-1T
100
AcDbText
 10
116.742199237357
 20
97.50401069892198
 30
0.0
 40
2.0
  1
6
  7
ariab
100
AcDbText
  0
TEXT
  5
B17
330
28
100
AcDbEntity
  8
115-1T
100
AcDbText
 10
134.7421992373571
 20
97.50401069892198
 30
0.0
 40
2.0
  1
5
  7
ariab
100
AcDbText
  0
TEXT
  5
B18
330
28
100
AcDbEntity
  8
115-1T
100
AcDbText
 10
97.71711729028352
 20
115.0075056090252
 30
0.0
 40
2.0
  1
IN
  7
ariab
100
AcDbText
  0
TEXT
  5
B19
330
28
100
AcDbEntity
  8
115-1T
100
AcDbText
 10
125.8821324775328
 20
107.6302478651925
 30
0.0
 40
2.0
  1
SDI BLK
  7
ariab
100
AcDbText
  0
TEXT
  5
B1A
330
28
100
AcDbEntity
  8
115-1T
100
AcDbText
 10
125.8821324775328
 20
104.8285965858674
 30
0.0
 40
2.0
  1
ANL BB
  7
ariab
100
AcDbText
  0
TEXT
  5
B1B
330
28
100
AcDbEntity
  8
115-1T
100
AcDbText
 10
118.3928348825259
 20
113.224288184808
 30
0.0
 40
2.0
  1
WORD
  7
ariab
100
AcDbText
  0
TEXT
  5
B1C
330
28
100
AcDbEntity
  8
115-1T
100
AcDbText
 10
118.3928348825259
 20
110.4267124596422
 30
0.0
 40
2.0
  1
CLOCK
  7
ariab
100
AcDbText
  0
TEXT
  5
B1D
330
28
100
AcDbEntity
  8
115-1T
100
AcDbText
 10
176.4103271252005
 20
79.64378440285995
 30
0.0
 40
2.0
  1
ANL BB
  7
ariab
 72
     1
 11
181.6872711906849
 21
79.64378440285995
 31
0.0
100
AcDbText
  0
TEXT
  5
B1E
330
28
100
AcDbEntity
  8
115-1T
100
AcDbText
 10
176.0992766477108
 20
82.44378426119864
 30
0.0
 40
2.0
  1
SDI BLK
  7
ariab
 72
     1
 11
181.6872711906849
 21
82.44378426119864
 31
0.0
100
AcDbText
  0
TEXT
  5
B1F
330
28
100
AcDbEntity
  8
115-1T
100
AcDbText
 10
152.7421992373571
 20
97.50401069892198
 30
0.0
 40
2.0
  1
10
  7
ariab
100
AcDbText
  0
TEXT
  5
B20
330
28
100
AcDbEntity
  8
115-1T
100
AcDbText
 10
170.7421992373571
 20
97.50401069892198
 30
0.0
 40
2.0
  1
9
  7
ariab
100
AcDbText
  0
TEXT
  5
B21
330
28
100
AcDbEntity
  8
115-1T
100
AcDbText
 10
194.0992766477107
 20
82.44378426119864
 30
0.0
 40
2.0
  1
SDI BLK
  7
ariab
 72
     1
 11
199.6872711906848
 21
82.44378426119864
 31
0.0
100
AcDbText
  0
TEXT
  5
B22
330
28
100
AcDbEntity
  8
115-1T
100
AcDbText
 10
194.4103271252004
 20
79.64049781743316
 30
0.0
 40
2.0
  1
ANL BB
  7
ariab
 72
     1
 11
199.6872711906848
 21
79.64049781743316
 31
0.0
100
AcDbText
  0
TEXT
  5
B23
330
28
100
AcDbEntity
  8
115-1T
100
AcDbText
 10
188.7421992373571
 20
97.50401069892198
 30
0.0
 40
2.0
  1
4
  7
ariab
100
AcDbText
  0
TEXT
  5
B24
330
28
100
AcDbEntity
  8
115-1T
100
AcDbText
 10
206.7421992373571
 20
97.50401069892198
 30
0.0
 40
2.0
  1
3
  7
ariab
100
AcDbText
  0
TEXT
  5
B25
330
28
100
AcDbEntity
  8
115-1T
100
AcDbText
 10
153.0028551175742
 20
113.5221431798443
 30
0.0
 40
2.0
  1
8
  7
ariab
100
AcDbText
  0
TEXT
  5
B26
330
28
100
AcDbEntity
  8
115-1T
100
AcDbText
 10
172.5701749593395
 20
111.4368904189066
 30
0.0
 40
2.0
  1
SDI BLK
  7
ariab
100
AcDbText
  0
TEXT
  5
B27
330
28
100
AcDbEntity
  8
115-1T
100
AcDbText
 10
171.0028551175741
 20
113.5221431798443
 30
0.0
 40
2.0
  1
7
  7
ariab
100
AcDbText
  0
TEXT
  5
B28
330
28
100
AcDbEntity
  8
115-1T
100
AcDbText
 10
172.5701749593395
 20
108.6335340728191
 30
0.0
 40
2.0
  1
ANL BB
  7
ariab
100
AcDbText
  0
TEXT
  5
B29
330
28
100
AcDbEntity
  8
115-1T
100
AcDbText
 10
172.5701749593395
 20
105.8321401910067
 30
0.0
 40
2.0
  1
ANL SIG
  7
ariab
100
AcDbText
  0
TEXT
  5
B2A
330
28
100
AcDbEntity
  8
115-1T
100
AcDbText
 10
198.5574369991103
 20
108.6341282996829
 30
0.0
 40
2.0
  1
SDI SIG
  7
ariab
 72
     2
 11
208.8043674220299
 21
108.6341282996829
 31
0.0
100
AcDbText
  0
LWPOLYLINE
  5
B2B
330
28
100
AcDbEntity
  8
115-1T
100
AcDbPolyline
 90
        2
 70
     0
 43
0.0
 10
358.6547668491712
 20
83.7508760102809
 10
350.7349040690343
 20
113.3082062947257
  0
LWPOLYLINE
  5
B2C
330
28
100
AcDbEntity
  8
115-1T
100
AcDbPolyline
 90
        2
 70
     0
 43
0.0
 10
339.3948354591031
 20
98.52954115250341
 10
369.9948354591025
 20
98.52954115250341
  0
LWPOLYLINE
  5
B2D
330
28
100
AcDbEntity
  8
115-1T
100
AcDbPolyline
 90
        2
 70
     0
 43
0.0
 10
339.9161703168803
 20
94.56960976243491
 10
369.4735006013251
 20
102.4894725425717
  0
TEXT
  5
B2E
330
28
100
AcDbEntity
  8
115-1T
100
AcDbText
 10
283.0910911088317
 20
79.64378440297996
 30
0.0
 40
2.0
  1
MONITOR
  7
ariab
 72
     1
 11
289.6872711906871
 21
79.64378440297996
 31
0.0
100
AcDbText
  0
TEXT
  5
B2F
330
28
100
AcDbEntity
  8
115-1T
100
AcDbText
 10
282.7022780119672
 20
82.44378426119864
 30
0.0
 40
2.0
  1
GENLOCK
  7
ariab
 72
     1
 11
289.6872711906849
 21
82.44378426119864
 31
0.0
100
AcDbText
  0
TEXT
  5
B30
330
28
100
AcDbEntity
  8
115-1T
100
AcDbText
 10
248.4103271252003
 20
82.44378426119864
 30
0.0
 40
2.0
  1
ANL BB
  7
ariab
 72
     1
 11
253.6872711906847
 21
82.44378426119864
 31
0.0
100
AcDbText
  0
TEXT
  5
B31
330
28
100
AcDbEntity
  8
115-1T
100
AcDbText
 10
226.4620530670049
 20
80.77894654787369
 30
0.0
 40
2.0
  1
 VA max
  7
ariab
100
AcDbText
  0
TEXT
  5
B32
330
28
100
AcDbEntity
  8
115-1T
100
AcDbText
 10
226.4620530670049
 20
84.19626938251937
 30
0.0
 40
2.0
  1
 Hz
  7
ariab
100
AcDbText
  0
TEXT
  5
B33
330
28
100
AcDbEntity
  8
115-1T
100
AcDbText
 10
226.4620530670049
 20
87.61359221716503
 30
0.0
 40
2.0
  1
 VAC
  7
ariab
100
AcDbText
  0
TEXT
  5
B34
330
28
100
AcDbEntity
  8
115-1T
100
AcDbText
 10
266.4103271252005
 20
82.44378426119864
 30
0.0
 40
2.0
  1
ANL BB
  7
ariab
 72
     1
 11
271.6872711906848
 21
82.44378426119864
 31
0.0
100
AcDbText
  0
TEXT
  5
B35
330
28
100
AcDbEntity
  8
115-1T
100
AcDbText
 10
260.242199237357
 20
98.53412829968291
 30
0.0
 40
2.0
  1
2
  7
ariab
100
AcDbText
  0
TEXT
  5
B36
330
28
100
AcDbEntity
  8
115-1T
100
AcDbText
 10
278.2421992373571
 20
98.53412829968291
 30
0.0
 40
2.0
  1
1
  7
ariab
100
AcDbText
  0
TEXT
  5
B37
330
28
100
AcDbEntity
  8
115-1T
100
AcDbText
 10
244.4859406902798
 20
108.6341282996829
 30
0.0
 40
2.0
  1
SDI SIG
  7
ariab
100
AcDbText
  0
INSERT
  5
B38
330
28
100
AcDbEntity
  8
115-1T
100
AcDbBlockReference
  2
1
 10
226.6915477878699
 20
123.525420051761
 30
0.0
 41
4.0
 42
4.0
 43
4.0
  0
LWPOLYLINE
  5
B39
330
28
100
AcDbEntity
  8
115-1T
100
AcDbPolyline
 90
        2
 70
     0
 43
0.0
 10
237.2013626045343
 20
103.9834622158919
 10
234.3245889182199
 20
114.719727775095
  0
LWPOLYLINE
  5
B3A
330
28
100
AcDbEntity
  8
115-1T
100
AcDbPolyline
 90
        2
 70
     0
 43
0.0
 10
229.8372711906845
 20
109.6341282996829
 10
241.5372711906846
 20
109.6341282996829
  0
LWPOLYLINE
  5
B3B
330
28
100
AcDbEntity
  8
115-1T
100
AcDbPolyline
 90
        2
 70
     0
 43
0.0
 10
230.0366051068935
 20
108.1200368858332
 10
241.3379372744758
 20
111.1482197135327
  0
LWPOLYLINE
  5
B3C
330
28
100
AcDbEntity
  8
115-1T
100
AcDbPolyline
 90
        2
 70
     0
 43
0.0
 10
235.6872711906846
 20
103.7841282996829
 10
235.6872711906845
 20
114.719727775095
  0
TEXT
  5
B3D
330
28
100
AcDbEntity
  8
115-1T
100
AcDbText
 10
262.7785809242759
 20
102.7289474661035
 30
0.0
 40
2.0
  1
CHANGE OVER
  7
ariab
 72
     1
 11
273.1796723294601
 21
102.7289474661035
 31
0.0
100
AcDbText
  0
LWPOLYLINE
  5
B3E
330
28
100
AcDbEntity
  8
115-1T
100
AcDbPolyline
 90
        2
 70
     0
 43
0.0
 10
354.6948354591027
 20
83.22954115250368
 10
354.6948354591027
 20
113.829541152503
  0
TEXT
  5
B3F
330
28
100
AcDbEntity
  8
115-1T
100
AcDbText
 10
303.2609410406166
 20
79.64378440297875
 30
0.0
 40
2.0
  1
ANALOG GENLOCK
  7
ariab
 72
     1
 11
316.6872711906849
 21
79.64378440297875
 31
0.0
100
AcDbText
  0
TEXT
  5
B40
330
28
100
AcDbEntity
  8
115-1T
100
AcDbText
 10
306.6784035235634
 20
82.44378426119864
 30
0.0
 40
2.0
  1
B
  7
ariab
 72
     1
 11
307.6872711906848
 21
82.44378426119864
 31
0.0
100
AcDbText
  0
TEXT
  5
B41
330
28
100
AcDbEntity
  8
115-1T
100
AcDbText
 10
324.6784035235634
 20
82.44378426119864
 30
0.0
 40
2.0
  1
A
  7
ariab
 72
     1
 11
325.6872711906849
 21
82.44378426119864
 31
0.0
100
AcDbText
  0
TEXT
  5
B42
330
28
100
AcDbEntity
  8
115-1T
100
AcDbText
 10
307.2035468178639
 20
102.7289474661035
 30
0.0
 40
2.0
  1
REMOTE
  7
ariab
 72
     1
 11
313.1796723294602
 21
102.7289474661035
 31
0.0
100
AcDbText
  0
HATCH
  5
B43
330
28
100
AcDbEntity
  8
115-1T
100
AcDbHatch
 10
0.0
 20
0.0
 30
0.0
210
0.0
220
0.0
230
1.0
  2
SOLID
 70
     1
 71
     1
 91
        2
 92
        1
 93
        4
 72
     2
 10
331.3592333842628
 20
106.7698257998098
 40
2.500000000000011
 50
84.26082952273322
 51
275.7391704772667
 73
     0
 72
     1
 10
331.6092333842628
 20
109.2572943925764
 11
331.6092333842628
 21
108.5018766073788
 72
     2
 10
331.3592333842628
 20
106.7698257998098
 40
1.750000000000018
 50
81.78678929826189
 51
278.2132107017381
 73
     1
 72
     1
 10
331.6092333842628
 20
105.037774992241
 11
331.6092333842628
 21
104.2823572070433
 97
        1
330
B44
 92
        1
 93
        4
 72
     2
 10
335.6092333842628
 20
106.7698257998098
 40
1.749999999999976
 50
81.78678929826167
 51
278.2132107017383
 73
     0
 72
     1
 10
335.8592333842628
 20
108.5018766073787
 11
335.8592333842628
 21
109.2572943925764
 72
     2
 10
335.6092333842628
 20
106.7698257998098
 40
2.499999999999996
 50
84.2608295227332
 51
275.7391704772667
 73
     1
 72
     1
 10
335.8592333842628
 20
104.2823572070433
 11
335.8592333842628
 21
105.037774992241
 97
        1
330
B45
 75
     0
 76
     1
 98
        1
 10
0.0
 20
0.0
  0
LWPOLYLINE
  5
B44
102
{ACAD_REACTORS
330
B43
102
}
330
28
100
AcDbEntity
  8
115-1T
100
AcDbPolyline
 90
        4
 70
     1
 43
0.0
 10
331.6092333842628
 20
104.2823572070433
 42
-1.105541596785134
 10
331.6092333842628
 20
109.2572943925764
 10
331.6092333842628
 20
108.5018766073788
 42
1.154700538379251
 10
331.6092333842628
 20
105.037774992241
  0
LWPOLYLINE
  5
B45
102
{ACAD_REACTORS
330
B43
102
}
330
28
100
AcDbEntity
  8
115-1T
100
AcDbPolyline
 90
        4
 70
     1
 43
0.0
 10
335.8592333842628
 20
105.037774992241
 42
-1.154700538379251
 10
335.8592333842628
 20
108.5018766073787
 10
335.8592333842628
 20
109.2572943925764
 42
1.105541596785132
 10
335.8592333842628
 20
104.2823572070433
  0
LWPOLYLINE
  5
B46
330
28
100
AcDbEntity
  8
115-1T
100
AcDbPolyline
 90
        2
 70
     0
 43
0.7500000000000002
 10
333.4842333842628
 20
106.7698257998098
 10
335.3592333842628
 20
106.7698257998098
  0
TEXT
  5
B47
330
28
100
AcDbEntity
  8
115-1T
100
AcDbText
 10
421.1901835313923
 20
105.0300456943261
 30
0.0
 40
2.0
  1
MAINS
  7
ariab
 72
     1
 11
425.6915477878725
 21
105.0300456943261
 31
0.0
100
AcDbText
  0
INSERT
  5
B48
330
28
100
AcDbEntity
  8
115-1T
100
AcDbBlockReference
 66
     1
  2
0
 10
405.3178105305486
 20
71.52672005176114
 30
0.0
 41
4.0
 42
4.0
 43
4.0
  0
ATTRIB
  5
B49
330
B48
100
AcDbEntity
  8
0
100
AcDbText
 10
405.3178105305486
 20
71.52672005176114
 30
0.0
 40
4.0
  1
115-1T
100
AcDbAttribute
  2
NAME
 70
     0
  0
ATTRIB
  5
B4A
330
B48
100
AcDbEntity
  8
0
100
AcDbText
 10
445.3178105305488
 20
71.52672005176114
 30
0.0
 40
4.0
  1

100
AcDbAttribute
  2
DATE
 70
     0
  0
ATTRIB
  5
B4B
330
B48
100
AcDbEntity
  8
0
100
AcDbText
 10
485.3178105305486
 20
71.52672005176114
 30
0.0
 40
4.0
  1

100
AcDbAttribute
  2
LAYER
 70
     1
  0
SEQEND
  5
B4C
330
B48
100
AcDbEntity
  8
115-1T
  0
TEXT
  5
B4D
330
28
100
AcDbEntity
  8
115-1T
100
AcDbText
 10
387.3852722080608
 20
113.0560453552964
 30
0.0
 40
2.0
  1
FUSE 1,6 AT
  7
ariab
 72
     1
 11
395.6915477878698
 21
113.0560453552964
 31
0.0
100
AcDbText
  0
LWPOLYLINE
  5
B4E
330
28
100
AcDbEntity
  8
115-1T
100
AcDbPolyline
 90
        2
 70
     0
 43
0.340859882388008
 10
420.4184268469723
 20
111.5267200517596
 42
738.7061684084105
 10
420.4183868699151
 20
111.5119544294632
 42
738.7061684084105
  0
LWPOLYLINE
  5
B4F
330
28
100
AcDbEntity
  8
115-1T
100
AcDbPolyline
 90
        2
 70
     0
 43
0.340859882388008
 10
415.6463884935401
 20
111.6946398603232
 10
419.7367070821963
 20
111.6946398603232
  0
LWPOLYLINE
  5
B50
330
28
100
AcDbEntity
  8
115-1T
100
AcDbPolyline
 90
        2
 70
     0
 43
0.340859882388008
 10
416.2350877864206
 20
110.8424901543532
 10
419.1480077893158
 20
110.8424901543532
  0
LWPOLYLINE
  5
B51
330
28
100
AcDbEntity
  8
115-1T
100
AcDbPolyline
 90
        2
 70
     0
 43
0.340859882388008
 10
417.6915477878683
 20
111.6946398603232
 10
417.6915477878683
 20
112.8930152295094
  0
LWPOLYLINE
  5
B52
330
28
100
AcDbEntity
  8
115-1T
100
AcDbPolyline
 90
        2
 70
     0
 43
0.340859882388008
 10
416.8333843347134
 20
109.9903404483832
 10
418.5497112410231
 20
109.9903404483832
  0
INSERT
  5
B53
330
28
100
AcDbEntity
  8
115-1T
100
AcDbBlockReference
  2
6
 10
438.6915477878698
 20
76.52672005176114
 30
0.0
 41
-4.0
 42
4.0
 43
4.0
  0
INSERT
  5
B54
330
28
100
AcDbEntity
  8
115-1T
100
AcDbBlockReference
  2
1
 10
441.6915477878698
 20
98.52672005176115
 30
0.0
 41
-4.0
 42
4.0
 43
4.0
  0
INSERT
  5
B55
330
28
100
AcDbEntity
  8
115-1T
100
AcDbBlockReference
  2
6
 10
438.6915477878698
 20
118.525420051761
 30
0.0
 41
4.0
 42
4.0
 43
4.0
 50
180.0
  0
ENDBLK
  5
1DA
330
28
100
AcDbEntity
  8
0
100
AcDbBlockEnd
  0
BLOCK
  5
1DB
330
29
100
AcDbEntity
  8
0
100
AcDbBlockBegin
  2
110-1
 70
     0
 10
0.0
 20
0.0
 30
0.0
  3
110-1
  1
110-1
  0
TEXT
  5
9F1
330
29
100
AcDbEntity
  8
115-1T
100
AcDbText
 10
215.6125437615748
 20
80.77893882487963
 30
0.0
 40
2.0
  1
90 
  7
ariab
100
AcDbText
  0
LINE
  5
9F2
330
29
100
AcDbEntity
  8
110-1MEK
100
AcDbLine
 10
438.6915300583185
 20
118.5254123287669
 30
0.0
 11
14.69153005831856
 21
118.5254123287669
 31
0.0
  0
LINE
  5
9F3
330
29
100
AcDbEntity
  8
110-1MEK
100
AcDbLine
 10
14.69153005831843
 20
76.52671232876706
 30
0.0
 11
438.6915300583185
 21
76.52671232876706
 31
0.0
  0
LWPOLYLINE
  5
9F4
330
29
100
AcDbEntity
  8
115-1T
100
AcDbPolyline
 90
        9
 70
     0
 43
0.2
 10
238.4915320959608
 20
89.62214850893623
 10
238.4915320959608
 20
80.77417793117033
 42
-0.4142135623730951
 10
237.6915320959608
 20
79.97417793117033
 10
215.6828817485731
 20
79.97417793117033
 42
-0.4142135623730965
 10
214.8828817485731
 20
80.77417793117033
 10
214.8828817485731
 20
89.62214850893623
 42
-0.4142135623730944
 10
215.6828817485731
 20
90.42214850893623
 10
237.6915320959608
 20
90.42214850893623
 42
-0.4142135623730951
 10
238.4915320959608
 20
89.62214850893623
  0
TEXT
  5
9F5
330
29
100
AcDbEntity
  8
115-1T
100
AcDbText
 10
215.6125437615748
 20
87.61358449417095
 30
0.0
 40
2.0
  1
90 - 250 
  7
ariab
100
AcDbText
  0
TEXT
  5
9F6
330
29
100
AcDbEntity
  8
115-1T
100
AcDbText
 10
215.6125437615748
 20
84.1962616595253
 30
0.0
 40
2.0
  1
48 - 65 
  7
ariab
100
AcDbText
  0
ARC
  5
9F7
330
29
100
AcDbEntity
  8
110-1MEK
  6
Continuous
100
AcDbCircle
 10
217.6872534611333
 20
109.6341205766889
 30
0.0
 40
6.349999999999998
100
AcDbArc
 50
117.1564214758886
 51
62.84357852411139
  0
LWPOLYLINE
  5
9F8
330
29
100
AcDbEntity
  8
110-1MEK
100
AcDbPolyline
 90
        2
 70
     0
 43
0.0
 10
214.7889781118954
 20
115.2841205766889
 10
220.5855288103711
 20
115.2841205766889
  0
LWPOLYLINE
  5
9F9
330
29
100
AcDbEntity
  8
115-1T
100
AcDbPolyline
 90
        4
 70
     0
 43
0.2
 39
0.2
 10
101.022136722637
 20
116.0254123287669
 10
101.022136722637
 20
101.3341411532425
 10
64.68729999999995
 20
101.3341411532425
 10
64.68729999999995
 20
116.0254123287669
  0
TEXT
  5
9FA
330
29
100
AcDbEntity
  8
115-1T
100
AcDbText
 10
79.36203053893937
 20
115.0311261984823
 30
0.0
 40
2.0
  1
OUT
  7
ariab
100
AcDbText
  0
LWPOLYLINE
  5
9FB
330
29
100
AcDbEntity
  8
115-1T
100
AcDbPolyline
 90
        2
 70
     0
 43
0.0
 10
28.69481772955142
 20
89.24203342950923
 10
28.69481772955142
 20
105.8170334295091
  0
LWPOLYLINE
  5
9FC
330
29
100
AcDbEntity
  8
115-1T
100
AcDbPolyline
 90
        2
 70
     0
 43
0.0
 10
31.3347719895971
 20
88.67709000136073
 10
26.0548634695057
 20
108.3819768576578
  0
LWPOLYLINE
  5
9FD
330
29
100
AcDbEntity
  8
115-1T
100
AcDbPolyline
 90
        2
 70
     0
 43
0.0
 10
28.69481772955139
 20
88.3295334295092
 10
28.69481772955139
 20
108.7295334295093
  0
LINE
  5
9FE
330
29
100
AcDbEntity
  8
110-1MEK
100
AcDbLine
 10
16.69153005831847
 20
118.5267123287669
 30
0.0
 11
16.69153005831847
 21
78.52671232876708
 31
0.0
  0
LINE
  5
9FF
330
29
100
AcDbEntity
  8
110-1MEK
100
AcDbLine
 10
14.69153005831843
 20
118.5267123287669
 30
0.0
 11
14.69153005831843
 21
76.52671232876706
 31
0.0
  0
ARC
  5
A00
330
29
100
AcDbEntity
  8
110-1MEK
100
AcDbCircle
 10
53.29481772955141
 20
100.1295334295092
 30
0.0
 40
11.1
100
AcDbArc
 50
270.0217223615691
 51
270.0
  0
ARC
  5
A01
330
29
100
AcDbEntity
  8
110-1MEK
100
AcDbCircle
 10
28.69481772955138
 20
98.52953342950932
 30
0.0
 40
12.0
100
AcDbArc
 50
90.0
 51
89.99994040607615
  0
LWPOLYLINE
  5
A02
330
29
100
AcDbEntity
  8
115-1T
100
AcDbPolyline
 90
        2
 70
     0
 43
0.0
 10
55.43978056583853
 20
92.12442314413861
 10
51.14985489326425
 20
108.1346437148799
  0
LWPOLYLINE
  5
A03
330
29
100
AcDbEntity
  8
115-1T
100
AcDbPolyline
 90
        2
 70
     0
 43
0.0
 10
45.28970744418066
 20
97.98457059322217
 10
61.29992801492207
 20
102.2744962657964
  0
LWPOLYLINE
  5
A04
330
29
100
AcDbEntity
  8
115-1T
100
AcDbPolyline
 90
        2
 70
     0
 43
0.0
 10
53.29481772955138
 20
91.84203342950921
 10
53.29481772955138
 20
108.4170334295092
  0
LWPOLYLINE
  5
A05
330
29
100
AcDbEntity
  8
115-1T
100
AcDbPolyline
 90
        2
 70
     0
 43
0.0
 10
45.0073177295513
 20
100.1295334295092
 10
61.58231772955136
 20
100.1295334295092
  0
TEXT
  5
A06
330
29
100
AcDbEntity
  8
115-1T
100
AcDbText
 10
47.08472223159779
 20
82.44377653820455
 30
0.0
 40
2.0
  1
AES/EBU
  7
ariab
 72
     1
 11
53.29481772955141
 21
82.44377653820455
 31
0.0
100
AcDbText
  0
LWPOLYLINE
  5
A07
330
29
100
AcDbEntity
  8
115-1T
100
AcDbPolyline
 90
        2
 70
     0
 43
0.0
 10
18.4948177295513
 20
98.52953342950932
 10
38.89481772955135
 20
98.52953342950932
  0
LWPOLYLINE
  5
A08
330
29
100
AcDbEntity
  8
115-1T
100
AcDbPolyline
 90
        2
 70
     0
 43
0.0
 10
18.84237430140282
 20
95.88957916946361
 10
38.54726115769993
 20
101.169487689555
  0
TEXT
  5
A09
330
29
100
AcDbEntity
  8
115-1T
100
AcDbText
 10
20.93356261358957
 20
79.6437766799858
 30
0.0
 40
2.0
  1
TIME CODE
  7
ariab
 72
     1
 11
28.69481772955138
 21
79.6437766799858
 31
0.0
100
AcDbText
  0
ARC
  5
A0A
330
29
100
AcDbEntity
  8
110-1MEK
100
AcDbCircle
 10
38.19481772955138
 20
86.52953342950931
 30
0.0
 40
1.25
100
AcDbArc
 50
349.292495052947
 51
268.9155903193845
  0
ARC
  5
A0B
330
29
100
AcDbEntity
  8
110-1MEK
100
AcDbCircle
 10
38.19481772955138
 20
86.52953342950931
 30
0.0
 40
1.0
100
AcDbArc
 50
78.18019582229445
 51
78.15893328970211
  0
ARC
  5
A0C
330
29
100
AcDbEntity
  8
110-1MEK
100
AcDbCircle
 10
61.6948177295514
 20
88.9295334295093
 30
0.0
 40
1.7
100
AcDbArc
 50
82.83624577137214
 51
82.83192700216664
  0
TEXT
  5
A0D
330
29
100
AcDbEntity
  8
115-1T
100
AcDbText
 10
48.79345347307119
 20
79.64377667984017
 30
0.0
 40
2.0
  1
AUDIO
  7
ariab
 72
     1
 11
53.29481772955141
 21
79.64377667984017
 31
0.0
100
AcDbText
  0
ARC
  5
A0E
330
29
100
AcDbEntity
  8
110-1MEK
  6
Continuous
100
AcDbCircle
 10
73.68725346113349
 20
93.03412057668884
 30
0.0
 40
6.5
100
AcDbArc
 50
90.00000000000026
 51
89.99990169586066
  0
TEXT
  5
A0F
330
29
100
AcDbEntity
  8
115-1T
100
AcDbText
 10
67.47715796317985
 20
82.44377653820455
 30
0.0
 40
2.0
  1
AES/EBU
  7
ariab
 72
     1
 11
73.68725346113347
 21
82.44377653820455
 31
0.0
100
AcDbText
  0
TEXT
  5
A10
330
29
100
AcDbEntity
  8
115-1T
100
AcDbText
 10
69.18588920465325
 20
79.64377667998578
 30
0.0
 40
2.0
  1
AUDIO
  7
ariab
 72
     1
 11
73.68725346113347
 21
79.64377667998578
 31
0.0
100
AcDbText
  0
ARC
  5
A11
330
29
100
AcDbEntity
  8
110-1MEK
100
AcDbCircle
 10
19.19481772955137
 20
110.5295334295093
 30
0.0
 40
1.25
100
AcDbArc
 50
5.710635610225794
 51
240.7011812490242
  0
ARC
  5
A12
330
29
100
AcDbEntity
  8
110-1MEK
100
AcDbCircle
 10
19.19481772955137
 20
110.5295334295093
 30
0.0
 40
1.0
100
AcDbArc
 50
78.18019582229445
 51
78.15893328970211
  0
ARC
  5
A13
330
29
100
AcDbEntity
  8
110-1MEK
100
AcDbCircle
 10
44.89481772955139
 20
111.3295334295093
 30
0.0
 40
1.7
100
AcDbArc
 50
272.7202676712737
 51
272.7175071860072
  0
HATCH
  5
A14
330
29
100
AcDbEntity
  8
115-1T
100
AcDbHatch
 10
0.0
 20
0.0
 30
0.0
210
0.0
220
0.0
230
1.0
  2
SOLID
 70
     1
 71
     1
 91
        1
 92
        1
 93
        3
 72
     1
 10
62.27446059300604
 20
115.1317923854334
 11
64.01041065038967
 21
114.1295411525032
 72
     1
 10
64.01041065038967
 20
114.1295411525032
 11
62.27446059300604
 21
113.1272899195731
 72
     1
 10
62.27446059300604
 20
113.1272899195731
 11
62.27446059300604
 21
115.1317923854334
 97
        1
330
A15
 75
     0
 76
     1
 98
        1
 10
0.0
 20
0.0
  0
LWPOLYLINE
  5
A15
102
{ACAD_REACTORS
330
A14
102
}
330
29
100
AcDbEntity
  8
115-1T
100
AcDbPolyline
 90
        3
 70
     1
 43
0.0
 10
62.27446059300604
 20
115.1317923854334
 10
64.01041065038967
 20
114.1295411525032
 10
62.27446059300604
 20
113.1272899195731
  0
TEXT
  5
A16
330
29
100
AcDbEntity
  8
115-1T
100
AcDbText
 10
48.44637724889729
 20
113.118866348283
 30
0.0
 40
2.0
  1
SDI GENL
  7
ariab
100
AcDbText
  0
ARC
  5
A17
330
29
100
AcDbEntity
  8
110-1MEK
  6
Continuous
100
AcDbCircle
 10
73.68725346113349
 20
109.6341205766889
 30
0.0
 40
6.5
100
AcDbArc
 50
90.00009830413931
 51
89.99999999999976
  0
ARC
  5
A18
330
29
100
AcDbEntity
  8
110-1MEK
  6
Continuous
100
AcDbCircle
 10
145.6872534611334
 20
93.03412057668884
 30
0.0
 40
6.5
100
AcDbArc
 50
90.00000000000026
 51
89.99990169586066
  0
ARC
  5
A19
330
29
100
AcDbEntity
  8
110-1MEK
  6
Continuous
100
AcDbCircle
 10
145.6872534611334
 20
109.6341205766887
 30
0.0
 40
6.349999999999998
100
AcDbArc
 50
117.1564214758878
 51
62.84357852411223
  0
ARC
  5
A1A
330
29
100
AcDbEntity
  8
110-1MEK
  6
Continuous
100
AcDbCircle
 10
91.68725346113347
 20
93.03412057668884
 30
0.0
 40
6.5
100
AcDbArc
 50
90.00000000000026
 51
89.99990169586066
  0
TEXT
  5
A1B
330
29
100
AcDbEntity
  8
115-1T
100
AcDbText
 10
85.6326832019247
 20
79.64377667998578
 30
0.0
 40
2.0
  1
SILENCE
  7
ariab
 72
     1
 11
91.68725346113344
 21
79.64377667998578
 31
0.0
100
AcDbText
  0
TEXT
  5
A1C
330
29
100
AcDbEntity
  8
115-1T
100
AcDbText
 10
85.47715796317982
 20
82.44377653820455
 30
0.0
 40
2.0
  1
AES/EBU
  7
ariab
 72
     1
 11
91.68725346113344
 21
82.44377653820455
 31
0.0
100
AcDbText
  0
ARC
  5
A1D
330
29
100
AcDbEntity
  8
110-1MEK
  6
Continuous
100
AcDbCircle
 10
109.6872534611335
 20
93.03412057668884
 30
0.0
 40
6.5
100
AcDbArc
 50
90.00000000000026
 51
89.99990169586066
  0
TEXT
  5
A1E
330
29
100
AcDbEntity
  8
115-1T
100
AcDbText
 10
104.4103096081546
 20
79.64377667998603
 30
0.0
 40
2.0
  1
ANL BB
  7
ariab
 72
     1
 11
109.6872536736389
 21
79.64377667998603
 31
0.0
100
AcDbText
  0
TEXT
  5
A1F
330
29
100
AcDbEntity
  8
115-1T
100
AcDbText
 10
104.0992589181594
 20
82.44377653820455
 30
0.0
 40
2.0
  1
SDI BLK
  7
ariab
 72
     1
 11
109.6872534611335
 21
82.44377653820455
 31
0.0
100
AcDbText
  0
ARC
  5
A20
330
29
100
AcDbEntity
  8
110-1MEK
  6
Continuous
100
AcDbCircle
 10
127.6872534611334
 20
93.03412057668884
 30
0.0
 40
6.5
100
AcDbArc
 50
90.00000000000026
 51
89.99990169586066
  0
TEXT
  5
A21
330
29
100
AcDbEntity
  8
115-1T
100
AcDbText
 10
122.410309395649
 20
79.64377668008079
 30
0.0
 40
2.0
  1
ANL BB
  7
ariab
 72
     1
 11
127.6872534611334
 21
79.64377668008079
 31
0.0
100
AcDbText
  0
TEXT
  5
A22
330
29
100
AcDbEntity
  8
115-1T
100
AcDbText
 10
122.0992589181593
 20
82.44377653820455
 30
0.0
 40
2.0
  1
SDI BLK
  7
ariab
 72
     1
 11
127.6872534611334
 21
82.44377653820455
 31
0.0
100
AcDbText
  0
TEXT
  5
A23
330
29
100
AcDbEntity
  8
115-1T
100
AcDbText
 10
116.7421815078057
 20
97.5040029759279
 30
0.0
 40
2.0
  1
6
  7
ariab
100
AcDbText
  0
TEXT
  5
A24
330
29
100
AcDbEntity
  8
115-1T
100
AcDbText
 10
134.7421815078057
 20
97.5040029759279
 30
0.0
 40
2.0
  1
5
  7
ariab
100
AcDbText
  0
TEXT
  5
A25
330
29
100
AcDbEntity
  8
115-1T
100
AcDbText
 10
97.71709956073213
 20
115.0074978860311
 30
0.0
 40
2.0
  1
IN
  7
ariab
100
AcDbText
  0
ARC
  5
A26
330
29
100
AcDbEntity
  8
110-1MEK
  6
Continuous
100
AcDbCircle
 10
91.68725346113347
 20
109.6341205766889
 30
0.0
 40
6.5
100
AcDbArc
 50
90.00009830413931
 51
89.99999999999976
  0
ARC
  5
A27
330
29
100
AcDbEntity
  8
110-1MEK
  6
Continuous
100
AcDbCircle
 10
109.6872534611335
 20
109.6341205766889
 30
0.0
 40
6.5
100
AcDbArc
 50
90.00000000000026
 51
89.99990169586066
  0
TEXT
  5
A28
330
29
100
AcDbEntity
  8
115-1T
100
AcDbText
 10
125.8821324775328
 20
104.8285965858674
 30
0.0
 40
2.0
  1
ANL BB
  7
ariab
100
AcDbText
  0
TEXT
  5
A29
330
29
100
AcDbEntity
  8
115-1T
100
AcDbText
 10
125.8821324775328
 20
107.6302478651925
 30
0.0
 40
2.0
  1
SDI BLK
  7
ariab
100
AcDbText
  0
TEXT
  5
A2A
330
29
100
AcDbEntity
  8
115-1T
100
AcDbText
 10
118.3928348825259
 20
113.224288184808
 30
0.0
 40
2.0
  1
WORD
  7
ariab
100
AcDbText
  0
TEXT
  5
A2B
330
29
100
AcDbEntity
  8
115-1T
100
AcDbText
 10
118.3928348825259
 20
110.4267124596424
 30
0.0
 40
2.0
  1
CLOCK
  7
ariab
100
AcDbText
  0
LWPOLYLINE
  5
A2C
330
29
100
AcDbEntity
  8
110-1MEK
100
AcDbPolyline
 90
        2
 70
     0
 43
0.0
 10
142.7889781118956
 20
115.2841205766889
 10
148.5855288103713
 20
115.2841205766889
  0
ARC
  5
A2D
330
29
100
AcDbEntity
  8
110-1MEK
  6
Continuous
100
AcDbCircle
 10
181.6872534611333
 20
93.03412057668884
 30
0.0
 40
6.5
100
AcDbArc
 50
90.00000000000026
 51
89.99990169586066
  0
TEXT
  5
A2E
330
29
100
AcDbEntity
  8
115-1T
100
AcDbText
 10
176.4103093956491
 20
79.64377667986588
 30
0.0
 40
2.0
  1
ANL BB
  7
ariab
 72
     1
 11
181.6872534611334
 21
79.64377667986588
 31
0.0
100
AcDbText
  0
TEXT
  5
A2F
330
29
100
AcDbEntity
  8
115-1T
100
AcDbText
 10
176.0992589181593
 20
82.44377653820455
 30
0.0
 40
2.0
  1
SDI BLK
  7
ariab
 72
     1
 11
181.6872534611334
 21
82.44377653820455
 31
0.0
100
AcDbText
  0
ARC
  5
A30
330
29
100
AcDbEntity
  8
110-1MEK
  6
Continuous
100
AcDbCircle
 10
163.6872534611334
 20
93.03412057668884
 30
0.0
 40
6.5
100
AcDbArc
 50
90.00000000000026
 51
89.99990169586066
  0
TEXT
  5
A31
330
29
100
AcDbEntity
  8
115-1T
100
AcDbText
 10
152.7421815078056
 20
97.5040029759279
 30
0.0
 40
2.0
  1
10
  7
ariab
100
AcDbText
  0
TEXT
  5
A32
330
29
100
AcDbEntity
  8
115-1T
100
AcDbText
 10
170.7421815078056
 20
97.5040029759279
 30
0.0
 40
2.0
  1
9
  7
ariab
100
AcDbText
  0
ARC
  5
A33
330
29
100
AcDbEntity
  8
110-1MEK
  6
Continuous
100
AcDbCircle
 10
199.6872534611333
 20
93.03412057668884
 30
0.0
 40
6.5
100
AcDbArc
 50
90.00000000000026
 51
89.99990169586066
  0
TEXT
  5
A34
330
29
100
AcDbEntity
  8
115-1T
100
AcDbText
 10
194.0992589181593
 20
82.44377653820455
 30
0.0
 40
2.0
  1
SDI BLK
  7
ariab
 72
     1
 11
199.6872534611334
 21
82.44377653820455
 31
0.0
100
AcDbText
  0
TEXT
  5
A35
330
29
100
AcDbEntity
  8
115-1T
100
AcDbText
 10
194.4103093956491
 20
79.64049009443908
 30
0.0
 40
2.0
  1
ANL BB
  7
ariab
 72
     1
 11
199.6872534611334
 21
79.64049009443908
 31
0.0
100
AcDbText
  0
TEXT
  5
A36
330
29
100
AcDbEntity
  8
115-1T
100
AcDbText
 10
188.7421815078056
 20
97.5040029759279
 30
0.0
 40
2.0
  1
4
  7
ariab
100
AcDbText
  0
TEXT
  5
A37
330
29
100
AcDbEntity
  8
115-1T
100
AcDbText
 10
206.7421815078056
 20
97.5040029759279
 30
0.0
 40
2.0
  1
3
  7
ariab
100
AcDbText
  0
ARC
  5
A38
330
29
100
AcDbEntity
  8
110-1MEK
  6
Continuous
100
AcDbCircle
 10
163.6872534611334
 20
109.6341205766887
 30
0.0
 40
6.349999999999998
100
AcDbArc
 50
117.1564214758877
 51
62.84357852411223
  0
TEXT
  5
A39
330
29
100
AcDbEntity
  8
115-1T
100
AcDbText
 10
153.0028373880228
 20
113.5221354568503
 30
0.0
 40
2.0
  1
8
  7
ariab
100
AcDbText
  0
LWPOLYLINE
  5
A3A
330
29
100
AcDbEntity
  8
110-1MEK
100
AcDbPolyline
 90
        2
 70
     0
 43
0.0
 10
160.7889781118955
 20
115.2841205766889
 10
166.5855288103711
 20
115.2841205766888
  0
TEXT
  5
A3B
330
29
100
AcDbEntity
  8
115-1T
100
AcDbText
 10
172.5701572297881
 20
111.4368826959124
 30
0.0
 40
2.0
  1
SDI BLK
  7
ariab
100
AcDbText
  0
TEXT
  5
A3C
330
29
100
AcDbEntity
  8
115-1T
100
AcDbText
 10
171.0028373880228
 20
113.5221354568503
 30
0.0
 40
2.0
  1
7
  7
ariab
100
AcDbText
  0
TEXT
  5
A3D
330
29
100
AcDbEntity
  8
115-1T
100
AcDbText
 10
172.5701572297881
 20
105.8321324680127
 30
0.0
 40
2.0
  1
ANL SIG
  7
ariab
100
AcDbText
  0
TEXT
  5
A3E
330
29
100
AcDbEntity
  8
115-1T
100
AcDbText
 10
172.5701572297881
 20
108.633526349825
 30
0.0
 40
2.0
  1
ANL BB
  7
ariab
100
AcDbText
  0
TEXT
  5
A3F
330
29
100
AcDbEntity
  8
115-1T
100
AcDbText
 10
198.5574192695589
 20
108.6341205766889
 30
0.0
 40
2.0
  1
SDI SIG
  7
ariab
 72
     2
 11
208.8043496924785
 21
108.6341205766889
 31
0.0
100
AcDbText
  0
LWPOLYLINE
  5
A40
330
29
100
AcDbEntity
  8
115-1T
100
AcDbPolyline
 90
        2
 70
     0
 43
0.0
 10
339.3948177295516
 20
98.52953342950932
 10
369.9948177295512
 20
98.52953342950932
  0
LWPOLYLINE
  5
A41
330
29
100
AcDbEntity
  8
115-1T
100
AcDbPolyline
 90
        2
 70
     0
 43
0.0
 10
339.9161525873289
 20
94.56960203944083
 10
369.4734828717738
 20
102.4894648195777
  0
LWPOLYLINE
  5
A42
330
29
100
AcDbEntity
  8
115-1T
100
AcDbPolyline
 90
        2
 70
     0
 43
0.0
 10
358.6547491196198
 20
83.75086828728681
 10
350.7348863394827
 20
113.3081985717316
  0
ARC
  5
A43
330
29
100
AcDbEntity
  8
110-1MEK
100
AcDbCircle
 10
354.6948177295514
 20
98.52953342950932
 30
0.0
 40
18.0
100
AcDbArc
 50
270.0001067631045
 51
269.999999999999
  0
TEXT
  5
A44
330
29
100
AcDbEntity
  8
115-1T
100
AcDbText
 10
283.0910733792803
 20
79.64377667998589
 30
0.0
 40
2.0
  1
MONITOR
  7
ariab
 72
     1
 11
289.6872534611357
 21
79.64377667998589
 31
0.0
100
AcDbText
  0
TEXT
  5
A45
330
29
100
AcDbEntity
  8
115-1T
100
AcDbText
 10
282.7022602824157
 20
82.44377653820455
 30
0.0
 40
2.0
  1
GENLOCK
  7
ariab
 72
     1
 11
289.6872534611333
 21
82.44377653820455
 31
0.0
100
AcDbText
  0
ARC
  5
A46
330
29
100
AcDbEntity
  8
110-1MEK
  6
Continuous
100
AcDbCircle
 10
289.6872534611332
 20
93.03412057668884
 30
0.0
 40
6.5
100
AcDbArc
 50
90.00000000000026
 51
89.99990169586066
  0
ARC
  5
A47
330
29
100
AcDbEntity
  8
110-1MEK
  6
Continuous
100
AcDbCircle
 10
253.6872534611331
 20
93.03412057668884
 30
0.0
 40
6.5
100
AcDbArc
 50
90.00000000000026
 51
89.99990169586066
  0
TEXT
  5
A48
330
29
100
AcDbEntity
  8
115-1T
100
AcDbText
 10
248.4103093956489
 20
82.44377653820455
 30
0.0
 40
2.0
  1
ANL BB
  7
ariab
 72
     1
 11
253.6872534611333
 21
82.44377653820455
 31
0.0
100
AcDbText
  0
TEXT
  5
A49
330
29
100
AcDbEntity
  8
115-1T
100
AcDbText
 10
226.4620353374535
 20
80.77893882487963
 30
0.0
 40
2.0
  1
 VA max
  7
ariab
100
AcDbText
  0
TEXT
  5
A4A
330
29
100
AcDbEntity
  8
115-1T
100
AcDbText
 10
226.4620353374535
 20
84.1962616595253
 30
0.0
 40
2.0
  1
 Hz
  7
ariab
100
AcDbText
  0
TEXT
  5
A4B
330
29
100
AcDbEntity
  8
115-1T
100
AcDbText
 10
226.4620353374535
 20
87.61358449417095
 30
0.0
 40
2.0
  1
 VAC
  7
ariab
100
AcDbText
  0
ARC
  5
A4C
330
29
100
AcDbEntity
  8
110-1MEK
  6
Continuous
100
AcDbCircle
 10
271.6872534611332
 20
93.03412057668884
 30
0.0
 40
6.5
100
AcDbArc
 50
90.00000000000026
 51
89.99990169586066
  0
TEXT
  5
A4D
330
29
100
AcDbEntity
  8
115-1T
100
AcDbText
 10
266.410309395649
 20
82.44377653820455
 30
0.0
 40
2.0
  1
ANL BB
  7
ariab
 72
     1
 11
271.6872534611332
 21
82.44377653820455
 31
0.0
100
AcDbText
  0
TEXT
  5
A4E
330
29
100
AcDbEntity
  8
115-1T
100
AcDbText
 10
260.2421815078057
 20
98.53412057668885
 30
0.0
 40
2.0
  1
2
  7
ariab
100
AcDbText
  0
TEXT
  5
A4F
330
29
100
AcDbEntity
  8
115-1T
100
AcDbText
 10
278.2421815078056
 20
98.53412057668885
 30
0.0
 40
2.0
  1
1
  7
ariab
100
AcDbText
  0
TEXT
  5
A50
330
29
100
AcDbEntity
  8
115-1T
100
AcDbText
 10
244.4859229607284
 20
108.6341205766889
 30
0.0
 40
2.0
  1
SDI SIG
  7
ariab
100
AcDbText
  0
ARC
  5
A51
330
29
100
AcDbEntity
  8
110-1MEK
  6
Continuous
100
AcDbCircle
 10
235.6872534611333
 20
109.6341205766889
 30
0.0
 40
6.349999999999998
100
AcDbArc
 50
117.1564214758882
 51
62.84357852411139
  0
LWPOLYLINE
  5
A52
330
29
100
AcDbEntity
  8
115-1T
100
AcDbPolyline
 90
        2
 70
     0
 43
0.0
 10
237.0499357335979
 20
104.5485211012769
 10
234.3245711886685
 20
114.7197200521008
  0
LWPOLYLINE
  5
A53
330
29
100
AcDbEntity
  8
115-1T
100
AcDbPolyline
 90
        2
 70
     0
 43
0.0
 10
230.6016539857213
 20
108.271438304224
 10
240.7728529365452
 20
110.9968028491536
  0
LWPOLYLINE
  5
A54
330
29
100
AcDbEntity
  8
115-1T
100
AcDbPolyline
 90
        2
 70
     0
 43
0.0
 10
230.4222534611333
 20
109.6341205766889
 10
240.9522534611332
 20
109.6341205766889
  0
LWPOLYLINE
  5
A55
330
29
100
AcDbEntity
  8
110-1MEK
100
AcDbPolyline
 90
        2
 70
     0
 43
0.0
 10
232.7889781118951
 20
115.2841205766889
 10
238.585528810371
 20
115.2841205766889
  0
LWPOLYLINE
  5
A56
330
29
100
AcDbEntity
  8
115-1T
100
AcDbPolyline
 90
        2
 70
     0
 43
0.0
 10
235.6872534611333
 20
104.3691205766889
 10
235.6872534611333
 20
114.8991205766888
  0
LWPOLYLINE
  5
A57
330
29
100
AcDbEntity
  8
110-1MEK
100
AcDbPolyline
 90
        9
 70
     0
 43
0.0
 10
263.6594624436903
 20
112.927268273728
 42
-0.4673354665998769
 10
267.0057967566133
 20
116.928971411624
 10
279.353512443204
 20
116.928971411624
 42
-0.4688453271497682
 10
282.6968248792381
 20
112.9106980456602
 10
281.8461543128916
 20
108.31069804566
 42
-0.3616137540369309
 10
278.5028418768575
 20
105.528971411624
 10
267.8329210590575
 20
105.528971411624
 42
-0.3630148289364383
 10
264.4865867461344
 20
108.327268273728
 10
263.6588031126728
 20
112.9309351018844
 42
-0.4673354665998769
  0
TEXT
  5
A58
330
29
100
AcDbEntity
  8
115-1T
100
AcDbText
 10
262.7785631947245
 20
102.7289397431095
 30
0.0
 40
2.0
  1
CHANGE OVER
  7
ariab
 72
     1
 11
273.1796545999086
 21
102.7289397431095
 31
0.0
100
AcDbText
  0
ARC
  5
A59
330
29
100
AcDbEntity
  8
110-1MEK
100
AcDbCircle
 10
260.6899176792292
 20
111.228971411624
 30
0.0
 40
1.6
100
AcDbArc
 50
28.05757954221024
 51
27.96068303716584
  0
ARC
  5
A5A
330
29
100
AcDbEntity
  8
110-1MEK
100
AcDbCircle
 10
285.6693915205882
 20
111.228971411624
 30
0.0
 40
1.6
100
AcDbArc
 50
152.039316962834
 51
151.9424204577896
  0
LWPOLYLINE
  5
A5B
330
29
100
AcDbEntity
  8
115-1T
100
AcDbPolyline
 90
        2
 70
     0
 43
0.0
 10
354.6948177295512
 20
83.22953342950961
 10
354.6948177295512
 20
113.8295334295089
  0
TEXT
  5
A5C
330
29
100
AcDbEntity
  8
115-1T
100
AcDbText
 10
303.2609233110651
 20
79.64377667998467
 30
0.0
 40
2.0
  1
ANALOG GENLOCK
  7
ariab
 72
     1
 11
316.6872534611333
 21
79.64377667998467
 31
0.0
100
AcDbText
  0
ARC
  5
A5D
330
29
100
AcDbEntity
  8
110-1MEK
  6
Continuous
100
AcDbCircle
 10
325.6872534611332
 20
93.03412057668884
 30
0.0
 40
6.5
100
AcDbArc
 50
90.00000000000026
 51
89.99990169586066
  0
ARC
  5
A5E
330
29
100
AcDbEntity
  8
110-1MEK
  6
Continuous
100
AcDbCircle
 10
307.6872534611331
 20
93.03412057668884
 30
0.0
 40
6.5
100
AcDbArc
 50
90.00000000000026
 51
89.99990169586066
  0
TEXT
  5
A5F
330
29
100
AcDbEntity
  8
115-1T
100
AcDbText
 10
306.678385794012
 20
82.44377653820455
 30
0.0
 40
2.0
  1
B
  7
ariab
 72
     1
 11
307.6872534611335
 21
82.44377653820455
 31
0.0
100
AcDbText
  0
ARC
  5
A60
330
29
100
AcDbEntity
  8
110-1MEK
100
AcDbCircle
 10
338.6948177295514
 20
82.52953342950931
 30
0.0
 40
1.75
100
AcDbArc
 50
274.0923671433289
 51
274.0914588667952
  0
TEXT
  5
A61
330
29
100
AcDbEntity
  8
115-1T
100
AcDbText
 10
324.6783857940119
 20
82.44377653820455
 30
0.0
 40
2.0
  1
A
  7
ariab
 72
     1
 11
325.6872534611333
 21
82.44377653820455
 31
0.0
100
AcDbText
  0
LWPOLYLINE
  5
A62
330
29
100
AcDbEntity
  8
110-1MEK
100
AcDbPolyline
 90
        9
 70
     0
 43
0.0
 10
303.6594624436903
 20
112.9272682737282
 42
-0.4673354665998769
 10
307.0057967566134
 20
116.928971411624
 10
319.3535124432041
 20
116.928971411624
 42
-0.4688453271497682
 10
322.6968248792381
 20
112.9106980456602
 10
321.8461543128916
 20
108.31069804566
 42
-0.3616137540369309
 10
318.5028418768576
 20
105.528971411624
 10
307.8329210590575
 20
105.528971411624
 42
-0.3630148289364383
 10
304.4865867461345
 20
108.327268273728
 10
303.6588031126727
 20
112.9309351018844
  0
ARC
  5
A63
330
29
100
AcDbEntity
  8
110-1MEK
100
AcDbCircle
 10
300.6899176792292
 20
111.228971411624
 30
0.0
 40
1.6
100
AcDbArc
 50
28.05757954221024
 51
27.96068303716584
  0
TEXT
  5
A64
330
29
100
AcDbEntity
  8
115-1T
100
AcDbText
 10
307.2035290883125
 20
102.7289397431095
 30
0.0
 40
2.0
  1
REMOTE
  7
ariab
 72
     1
 11
313.1796545999087
 21
102.7289397431095
 31
0.0
100
AcDbText
  0
ARC
  5
A65
330
29
100
AcDbEntity
  8
110-1MEK
100
AcDbCircle
 10
338.6948177295514
 20
114.5295334295093
 30
0.0
 40
1.75
100
AcDbArc
 50
85.9085411332048
 51
85.90763285667096
  0
HATCH
  5
A66
330
29
100
AcDbEntity
  8
115-1T
100
AcDbHatch
 10
0.0
 20
0.0
 30
0.0
210
0.0
220
0.0
230
1.0
  2
SOLID
 70
     1
 71
     1
 91
        2
 92
        1
 93
        4
 72
     2
 10
331.3592156547113
 20
106.7698180768157
 40
2.499999999999982
 50
84.26082952273317
 51
275.7391704772667
 73
     0
 72
     1
 10
331.6092156547113
 20
109.2572866695822
 11
331.6092156547113
 21
108.5018688843847
 72
     2
 10
331.3592156547113
 20
106.7698180768158
 40
1.750000000000032
 50
81.78678929826197
 51
278.2132107017381
 73
     1
 72
     1
 10
331.6092156547113
 20
105.0377672692468
 11
331.6092156547113
 21
104.2823494840491
 97
        1
330
A67
 92
        1
 93
        4
 72
     2
 10
335.6092156547113
 20
106.7698180768157
 40
1.749999999999962
 50
81.78678929826164
 51
278.2132107017383
 73
     0
 72
     1
 10
335.8592156547113
 20
108.5018688843845
 11
335.8592156547113
 21
109.2572866695822
 72
     2
 10
335.6092156547113
 20
106.7698180768157
 40
2.499999999999996
 50
84.2608295227332
 51
275.7391704772668
 73
     1
 72
     1
 10
335.8592156547113
 20
104.2823494840491
 11
335.8592156547113
 21
105.0377672692468
 97
        1
330
A69
 75
     0
 76
     1
 98
        1
 10
0.0
 20
0.0
  0
LWPOLYLINE
  5
A67
102
{ACAD_REACTORS
330
A66
102
}
330
29
100
AcDbEntity
  8
115-1T
100
AcDbPolyline
 90
        4
 70
     1
 43
0.0
 10
331.6092156547113
 20
104.2823494840491
 42
-1.105541596785134
 10
331.6092156547113
 20
109.2572866695822
 10
331.6092156547113
 20
108.5018688843847
 42
1.154700538379251
 10
331.6092156547113
 20
105.0377672692468
  0
ARC
  5
A68
330
29
100
AcDbEntity
  8
110-1MEK
100
AcDbCircle
 10
325.6693915205882
 20
111.228971411624
 30
0.0
 40
1.6
100
AcDbArc
 50
152.039316962834
 51
151.9424204577896
  0
LWPOLYLINE
  5
A69
102
{ACAD_REACTORS
330
A66
102
}
330
29
100
AcDbEntity
  8
115-1T
100
AcDbPolyline
 90
        4
 70
     1
 43
0.0
 10
335.8592156547113
 20
105.0377672692468
 42
-1.154700538379251
 10
335.8592156547113
 20
108.5018688843845
 10
335.8592156547113
 20
109.2572866695822
 42
1.105541596785132
 10
335.8592156547113
 20
104.2823494840491
  0
LWPOLYLINE
  5
A6A
330
29
100
AcDbEntity
  8
115-1T
100
AcDbPolyline
 90
        2
 70
     0
 43
0.7500000000000002
 10
333.4842156547113
 20
106.7698180768158
 10
335.3592156547113
 20
106.7698180768158
  0
LINE
  5
A6B
330
29
100
AcDbEntity
  8
110-1MEK
100
AcDbLine
 10
432.1915300583183
 20
83.77671232876705
 30
0.0
 11
419.1915300583183
 21
83.77671232876705
 31
0.0
  0
LINE
  5
A6C
330
29
100
AcDbEntity
  8
110-1MEK
100
AcDbLine
 10
432.1915300583183
 20
103.2767123287669
 30
0.0
 11
419.1915300583183
 21
103.2767123287669
 31
0.0
  0
TEXT
  5
A6D
330
29
100
AcDbEntity
  8
115-1T
100
AcDbText
 10
421.1901658018407
 20
105.0300379713319
 30
0.0
 40
2.0
  1
MAINS
  7
ariab
 72
     1
 11
425.691530058321
 21
105.0300379713319
 31
0.0
100
AcDbText
  0
ARC
  5
A6E
330
29
100
AcDbEntity
  8
110-1MEK
100
AcDbCircle
 10
425.6915300583184
 20
111.5267123287669
 30
0.0
 40
2.1
100
AcDbArc
 50
272.9642037559218
 51
272.9624398059805
  0
LINE
  5
A6F
330
29
100
AcDbEntity
  8
110-1MEK
100
AcDbLine
 10
381.1915300583184
 20
78.52671232876708
 30
0.0
 11
381.1915300583184
 21
111.5267123287669
 31
0.0
  0
LINE
  5
A70
330
29
100
AcDbEntity
  8
110-1MEK
100
AcDbLine
 10
410.1915300583184
 20
111.5267123287669
 30
0.0
 11
410.1915300583184
 21
78.52671232876708
 31
0.0
  0
LINE
  5
A71
330
29
100
AcDbEntity
  8
110-1MEK
100
AcDbLine
 10
419.1915300583183
 20
103.2767123287669
 30
0.0
 11
419.1915300583183
 21
83.77671232876705
 31
0.0
  0
LINE
  5
A72
330
29
100
AcDbEntity
  8
110-1MEK
100
AcDbLine
 10
410.1915300583184
 20
78.52671232876708
 30
0.0
 11
381.1915300583184
 21
78.52671232876708
 31
0.0
  0
ARC
  5
A73
330
29
100
AcDbEntity
  8
110-1MEK
100
AcDbCircle
 10
370.6948177295513
 20
82.52953342950931
 30
0.0
 40
1.75
100
AcDbArc
 50
265.9085411332046
 51
265.9076328566708
  0
ARC
  5
A74
330
29
100
AcDbEntity
  8
110-1MEK
  6
Continuous
100
AcDbCircle
 10
377.6915300583183
 20
95.02671232876707
 30
0.0
 40
1.5
100
AcDbArc
 50
89.87443602826642
 51
89.87412619232875
  0
ARC
  5
A75
330
29
100
AcDbEntity
  8
110-1MEK
  6
Continuous
100
AcDbCircle
 10
413.6915300583184
 20
95.02671232876707
 30
0.0
 40
1.5
100
AcDbArc
 50
90.12587380767124
 51
90.12556397173359
  0
LINE
  5
A76
330
29
100
AcDbEntity
  8
110-1MEK
100
AcDbLine
 10
381.1915300583184
 20
111.5267123287669
 30
0.0
 11
410.1915300583184
 21
111.5267123287669
 31
0.0
  0
TEXT
  5
A77
330
29
100
AcDbEntity
  8
115-1T
100
AcDbText
 10
387.3852544785094
 20
113.0560376323023
 30
0.0
 40
2.0
  1
FUSE 1,6 AT
  7
ariab
 72
     1
 11
395.6915300583183
 21
113.0560376323023
 31
0.0
100
AcDbText
  0
ARC
  5
A78
330
29
100
AcDbEntity
  8
110-1MEK
100
AcDbCircle
 10
370.6948177295513
 20
114.5295334295093
 30
0.0
 40
1.75
100
AcDbArc
 50
94.09236714332903
 51
94.09145886679517
  0
LWPOLYLINE
  5
A79
330
29
100
AcDbEntity
  8
115-1T
100
AcDbPolyline
 90
        2
 70
     0
 43
0.340859882388008
 10
420.418409117421
 20
111.5267123287656
 42
738.7061684084105
 10
420.4183691403638
 20
111.5119467064692
 42
738.7061684084105
  0
LWPOLYLINE
  5
A7A
330
29
100
AcDbEntity
  8
115-1T
100
AcDbPolyline
 90
        2
 70
     0
 43
0.340859882388008
 10
415.6463707639887
 20
111.6946321373291
 10
419.7366893526448
 20
111.6946321373291
  0
LWPOLYLINE
  5
A7B
330
29
100
AcDbEntity
  8
115-1T
100
AcDbPolyline
 90
        2
 70
     0
 43
0.340859882388008
 10
416.2350700568691
 20
110.8424824313591
 10
419.1479900597646
 20
110.8424824313591
  0
LWPOLYLINE
  5
A7C
330
29
100
AcDbEntity
  8
115-1T
100
AcDbPolyline
 90
        2
 70
     0
 43
0.340859882388008
 10
416.8333666051621
 20
109.990332725389
 10
418.5496935114715
 20
109.990332725389
  0
LWPOLYLINE
  5
A7D
330
29
100
AcDbEntity
  8
115-1T
100
AcDbPolyline
 90
        2
 70
     0
 43
0.340859882388008
 10
417.6915300583168
 20
111.6946321373291
 10
417.6915300583168
 20
112.8930075065152
  0
LINE
  5
A7E
330
29
100
AcDbEntity
  8
110-1MEK
100
AcDbLine
 10
432.1915300583183
 20
103.2767123287669
 30
0.0
 11
432.1915300583183
 21
83.77671232876705
 31
0.0
  0
LINE
  5
A7F
330
29
100
AcDbEntity
  8
110-1MEK
100
AcDbLine
 10
436.6915300583185
 20
118.5267123287669
 30
0.0
 11
436.6915300583185
 21
78.52671232876708
 31
0.0
  0
LINE
  5
A80
330
29
100
AcDbEntity
  8
110-1MEK
100
AcDbLine
 10
438.6915300583185
 20
76.52671232876706
 30
0.0
 11
438.6915300583185
 21
118.5267123287669
 31
0.0
  0
ENDBLK
  5
2EC
330
29
100
AcDbEntity
  8
0
100
AcDbBlockEnd
  0
ENDSEC
  0
SECTION
  2
ENTITIES
  0
TEXT
  5
3DB
330
1E
100
AcDbEntity
  8
110-1
100
AcDbText
 10
247.2953615279672
 20
54.3740157480315
 30
0.0
 40
1.25
  1
MM
 72
     1
 11
248.75
 21
54.3740157480315
 31
0.0
100
AcDbText
  0
LINE
  5
3DD
330
1E
100
AcDbEntity
  8
110-1
100
AcDbLine
 10
255.0
 20
67.0
 30
0.0
 11
255.0
 21
50.0
 31
0.0
  0
TEXT
  5
3DE
330
1E
100
AcDbEntity
  8
110-1
100
AcDbText
 10
372.8384208731241
 20
65.37949492969246
 30
0.0
 40
1.25
  1
PATTERN NO.        MODEL NR.
 72
     4
 11
385.5
 21
66.00492125984252
 31
0.0
100
AcDbText
  0
LWPOLYLINE
  5
3DF
330
1E
100
AcDbEntity
  8
110-1
100
AcDbPolyline
 90
        2
 70
     0
 43
0.0
 10
230.0
 20
68.0
 10
410.0
 20
68.0
  0
TEXT
  5
3E3
330
1E
100
AcDbEntity
  8
110-1
100
AcDbText
 10
400.7014836289222
 20
70.30297715448523
 30
0.0
 40
1.25
  1
QUANT.
 72
     4
 11
404.0
 21
70.89046010127923
 31
0.0
100
AcDbText
  0
TEXT
  5
3E4
330
1E
100
AcDbEntity
  8
110-1
100
AcDbText
 10
401.1870736698499
 20
68.48946115856327
 30
0.0
 40
1.25
  1
ANTAL
 72
     4
 11
404.0
 21
69.11446115856327
 31
0.0
100
AcDbText
  0
LWPOLYLINE
  5
3E5
330
1E
100
AcDbEntity
  8
110-1
100
AcDbPolyline
 90
        3
 70
     0
 43
0.0
 10
236.1519237886465
 20
77.23205080756887
 10
237.7499999999999
 20
74.0
 10
240.8685888495277
 20
79.36650848224347
  0
ARC
  5
3EA
330
1E
100
AcDbEntity
  8
110-1
100
AcDbCircle
 10
237.7499999999999
 20
74.0
 30
0.0
 40
3.605551275464017
100
AcDbArc
 50
59.83824471807211
 51
119.8382447180721
  0
LWPOLYLINE
  5
3EB
330
1E
100
AcDbEntity
  8
110-1
100
AcDbPolyline
 90
        3
 70
     0
 43
0.0
 10
248.0374851427603
 20
76.96980572580891
 10
249.75
 20
74.0
 10
252.8685888495278
 20
79.36650848224347
  0
LWPOLYLINE
  5
3F0
330
1E
100
AcDbEntity
  8
110-1
100
AcDbPolyline
 90
        3
 70
     0
 43
0.0
 10
259.0374851427603
 20
76.96980572580891
 10
260.7499999999999
 20
74.0
 10
263.8685888495278
 20
79.36650848224347
  0
TEXT
  5
3F5
330
1E
100
AcDbEntity
  8
110-1
100
AcDbText
 10
232.0
 20
70.0
 30
0.0
 40
1.25
  1
. . R    IN MICROMETERS
100
AcDbText
  0
TEXT
  5
3F6
330
1E
100
AcDbEntity
  8
110-1
100
AcDbText
 10
235.0
 20
78.0
 30
0.0
 40
1.25
  1
. .
100
AcDbText
  0
TEXT
  5
3F7
330
1E
100
AcDbEntity
  8
110-1
100
AcDbText
 10
247.0
 20
78.0
 30
0.0
 40
1.25
  1
. .
100
AcDbText
  0
TEXT
  5
3F8
330
1E
100
AcDbEntity
  8
110-1
100
AcDbText
 10
258.0
 20
78.0
 30
0.0
 40
1.25
  1
. .
100
AcDbText
  0
ARC
  5
3F9
330
1E
100
AcDbEntity
  8
110-1
100
AcDbCircle
 10
260.7603144101784
 20
76.35859236105456
 30
0.0
 40
1.214781746034139
100
AcDbArc
 50
306.4847730898728
 51
299.2476703006309
  0
LWPOLYLINE
  5
3FA
330
1E
100
AcDbEntity
  8
110-1
100
AcDbPolyline
 90
        2
 70
     0
 43
0.0
 10
297.0
 20
74.0
 10
297.0
 20
68.0
  0
TEXT
  5
3FE
330
1E
100
AcDbEntity
  8
110-1
100
AcDbText
 10
298.9650649737951
 20
70.2320191277991
 30
0.0
 40
1.25
  1
ANGLE
100
AcDbText
  0
TEXT
  5
3FF
330
1E
100
AcDbEntity
  8
110-1
100
AcDbText
 10
298.9650649737951
 20
68.52335771047627
 30
0.0
 40
1.25
  1
VINKEL
100
AcDbText
  0
LWPOLYLINE
  5
400
330
1E
100
AcDbEntity
  8
110-1
100
AcDbPolyline
 90
        4
 70
     1
 43
0.3
 10
324.0
 20
77.0
 10
326.0
 20
77.0
 10
326.0
 20
75.0
 10
324.0
 20
75.0
  0
LWPOLYLINE
  5
406
330
1E
100
AcDbEntity
  8
110-1
100
AcDbPolyline
 90
        4
 70
     1
 43
0.3
 10
331.0
 20
75.0
 10
333.0
 20
75.0
 10
333.0
 20
77.0
 10
331.0
 20
77.0
  0
LWPOLYLINE
  5
40C
330
1E
100
AcDbEntity
  8
110-1
100
AcDbPolyline
 90
        4
 70
     1
 43
0.3
 10
333.0
 20
75.0
 10
335.0
 20
75.0
 10
335.0
 20
77.0
 10
333.0
 20
77.0
  0
LWPOLYLINE
  5
412
330
1E
100
AcDbEntity
  8
110-1
100
AcDbPolyline
 90
        4
 70
     1
 43
0.3
 10
333.0
 20
71.0
 10
335.0
 20
71.0
 10
335.0
 20
73.0
 10
333.0
 20
73.0
  0
LWPOLYLINE
  5
418
330
1E
100
AcDbEntity
  8
110-1
100
AcDbPolyline
 90
        4
 70
     1
 43
0.3
 10
331.0
 20
71.0
 10
333.0
 20
71.0
 10
333.0
 20
73.0
 10
331.0
 20
73.0
  0
LWPOLYLINE
  5
41E
330
1E
100
AcDbEntity
  8
110-1
100
AcDbPolyline
 90
        4
 70
     1
 43
0.3
 10
335.0
 20
73.0
 10
337.0
 20
73.0
 10
337.0
 20
71.0
 10
335.0
 20
71.0
  0
TEXT
  5
424
330
1E
100
AcDbEntity
  8
110-1
100
AcDbText
 10
324.4176330150068
 20
75.375
 30
0.0
 40
1.25
  1
A
 72
     4
 11
325.0
 21
76.0
 31
0.0
100
AcDbText
  0
TEXT
  5
425
330
1E
100
AcDbEntity
  8
110-1
100
AcDbText
 10
335.4176330150067
 20
71.375
 30
0.0
 40
1.25
  1
A
 72
     4
 11
336.0
 21
72.0
 31
0.0
100
AcDbText
  0
LWPOLYLINE
  5
426
330
1E
100
AcDbEntity
  8
110-1
100
AcDbPolyline
 90
        2
 70
     0
 43
0.4
 10
325.0
 20
75.0
 10
325.0
 20
72.0
  0
LWPOLYLINE
  5
42A
330
1E
100
AcDbEntity
  8
110-1
100
AcDbPolyline
 90
        3
 70
     1
 43
0.0
 10
324.0
 20
72.0
 10
326.0
 20
72.0
 10
325.0
 20
73.0
  0
TEXT
  5
42F
330
1E
100
AcDbEntity
  8
110-1
100
AcDbText
 10
353.9143929058663
 20
70.22933070866141
 30
0.0
 40
1.25
  1
ITEM
 72
     4
 11
356.0
 21
70.85433070866141
 31
0.0
100
AcDbText
  0
TEXT
  5
430
330
1E
100
AcDbEntity
  8
110-1
100
AcDbText
 10
354.1561221009549
 20
68.52024296118852
 30
0.0
 40
1.25
  1
POS
 72
     4
 11
356.0
 21
69.14566929133858
 31
0.0
100
AcDbText
  0
TEXT
  5
431
330
1E
100
AcDbEntity
  8
110-1
100
AcDbText
 10
364.557554570259
 20
69.37457366984993
 30
0.0
 40
1.25
  1
ASSEMBLY NO.         SAMLINGS NR.
 72
     4
 11
379.4999999999998
 21
70.0
 31
0.0
100
AcDbText
  0
LWPOLYLINE
  5
432
330
1E
100
AcDbEntity
  8
110-1
100
AcDbPolyline
 90
        2
 70
     0
 43
0.0
 10
230.0
 20
80.0
 10
410.0
 20
80.0
  0
LWPOLYLINE
  5
436
330
1E
100
AcDbEntity
  8
110-1
100
AcDbPolyline
 90
        2
 70
     0
 43
0.0
 10
398.0
 20
80.0
 10
398.0
 20
68.0
  0
LWPOLYLINE
  5
43A
330
1E
100
AcDbEntity
  8
110-1
100
AcDbPolyline
 90
        2
 70
     0
 43
0.0
 10
351.0
 20
72.0
 10
410.0
 20
72.0
  0
LWPOLYLINE
  5
43E
330
1E
100
AcDbEntity
  8
110-1
100
AcDbPolyline
 90
        2
 70
     0
 43
0.0
 10
361.0905294119906
 20
64.00669696654225
 10
410.0905294119906
 20
64.00669696654225
  0
LWPOLYLINE
  5
442
330
1E
100
AcDbEntity
  8
110-1
100
AcDbPolyline
 90
        2
 70
     0
 43
0.0
 10
361.0
 20
49.0
 10
410.0
 20
49.0
  0
LWPOLYLINE
  5
446
330
1E
100
AcDbEntity
  8
110-1
100
AcDbPolyline
 90
        2
 70
     0
 43
0.0
 10
351.0
 20
80.0
 10
351.0
 20
68.0
  0
LWPOLYLINE
  5
44A
330
1E
100
AcDbEntity
  8
110-1
100
AcDbPolyline
 90
        2
 70
     0
 43
0.0
 10
351.0
 20
76.0
 10
410.0
 20
76.0
  0
LWPOLYLINE
  5
44E
330
1E
100
AcDbEntity
  8
110-1
100
AcDbPolyline
 90
        2
 70
     0
 43
0.0
 10
273.4999999999999
 20
80.0
 10
273.4999999999999
 20
68.0
  0
LWPOLYLINE
  5
452
330
1E
100
AcDbEntity
  8
110-1
100
AcDbPolyline
 90
        2
 70
     0
 43
0.0
 10
320.5
 20
80.0
 10
320.5
 20
68.0
  0
TEXT
  5
456
330
1E
100
AcDbEntity
  8
110-1
100
AcDbText
 10
234.6336749910041
 20
69.24320691858551
 30
0.0
 40
1.25
  1
A
100
AcDbText
  0
LWPOLYLINE
  5
457
330
1E
100
AcDbEntity
  8
110-1
100
AcDbPolyline
 90
        5
 70
     0
 43
0.5
 10
244.0
 20
42.0
 10
248.0
 20
41.0
 10
248.0
 20
45.0
 10
244.0
 20
44.0
 10
244.0
 20
42.0
  0
LWPOLYLINE
  5
45E
330
1E
100
AcDbEntity
  8
110-1
  6
CENTER
 62
     2
100
AcDbPolyline
 90
        2
 70
     0
 43
0.02
 10
243.0
 20
43.0
 10
254.0
 20
43.0
  0
LWPOLYLINE
  5
462
330
1E
100
AcDbEntity
  8
110-1
  6
CENTER
 62
     2
100
AcDbPolyline
 90
        2
 70
     0
 43
0.02
 10
251.0
 20
46.0
 10
251.0
 20
40.0
  0
TEXT
  5
466
330
1E
100
AcDbEntity
  8
110-1
100
AcDbText
 10
257.7304586197871
 20
56.16767439024862
 30
0.0
 40
1.25
  1
MATERIAL
 50
90.0
 72
     4
 11
257.1054586197871
 21
60.53414778724725
 31
0.0
100
AcDbText
  0
TEXT
  5
467
330
1E
100
AcDbEntity
  8
110-1
100
AcDbText
 10
259.8662853914406
 20
56.16767439024862
 30
0.0
 40
1.25
  1
MATERIEL
 50
90.0
 72
     4
 11
259.2412853914406
 21
60.53414778724725
 31
0.0
100
AcDbText
  0
TEXT
  5
468
330
1E
100
AcDbEntity
  8
110-1
100
AcDbText
 10
257.7304586197871
 20
40.19862595914356
 30
0.0
 40
1.25
  1
TREATMENT
 50
90.0
 72
     4
 11
257.1054586197871
 21
45.53414778724725
 31
0.0
100
AcDbText
  0
TEXT
  5
469
330
1E
100
AcDbEntity
  8
110-1
100
AcDbText
 10
259.8662853914406
 20
39.857561839089
 30
0.0
 40
1.25
  1
BEHANDLING
 50
90.0
 72
     4
 11
259.2412853914406
 21
45.53414778724725
 31
0.0
100
AcDbText
  0
TEXT
  5
46A
330
1E
100
AcDbEntity
  8
110-1
100
AcDbText
 10
246.9629945429741
 20
66.0
 30
0.0
 40
1.25
  1
UNIT
 72
     1
 11
249.0
 21
66.0
 31
0.0
100
AcDbText
  0
TEXT
  5
46B
330
1E
100
AcDbEntity
  8
110-1
100
AcDbText
 10
245.9436391541609
 20
63.86417322834645
 30
0.0
 40
1.25
  1
ENHED
 72
     1
 11
249.0
 21
63.86417322834645
 31
0.0
100
AcDbText
  0
TEXT
  5
46C
330
1E
100
AcDbEntity
  8
110-1
100
AcDbText
 10
230.6224420190996
 20
66.0
 30
0.0
 40
1.25
  1
ROUGHNESS
 72
     1
 11
236.25
 21
66.0
 31
0.0
100
AcDbText
  0
TEXT
  5
46D
330
1E
100
AcDbEntity
  8
110-1
100
AcDbText
 10
233.1454638472032
 20
63.86417322834645
 30
0.0
 40
1.25
  1
RUHED
 72
     1
 11
236.25
 21
63.86417322834645
 31
0.0
100
AcDbText
  0
TEXT
  5
46E
330
1E
100
AcDbEntity
  8
110-1
100
AcDbText
 10
233.3867667121418
 20
51.0
 30
0.0
 40
1.25
  1
SCALE
 72
     1
 11
236.25
 21
51.0
 31
0.0
100
AcDbText
  0
TEXT
  5
46F
330
1E
100
AcDbEntity
  8
110-1
100
AcDbText
 10
233.4336630286494
 20
48.86417322834645
 30
0.0
 40
1.25
  1
SKALA
 72
     1
 11
236.25
 21
48.86417322834645
 31
0.0
100
AcDbText
  0
TEXT
  5
470
330
1E
100
AcDbEntity
  8
110-1
100
AcDbText
 10
246.4288028649386
 20
51.0
 30
0.0
 40
1.25
  1
PROJ.
 72
     1
 11
249.0
 21
51.0
 31
0.0
100
AcDbText
  0
TEXT
  5
471
330
1E
100
AcDbEntity
  8
110-1
100
AcDbText
 10
245.6524556616643
 20
48.86417322834645
 30
0.0
 40
1.25
  1
EUROP.
 72
     1
 11
249.0
 21
48.86417322834645
 31
0.0
100
AcDbText
  0
TEXT
  5
472
330
1E
100
AcDbEntity
  8
110-1
100
AcDbText
 10
274.9937374510445
 20
70.28801997642457
 30
0.0
 40
1.25
  1
DIMENSION
100
AcDbText
  0
TEXT
  5
473
330
1E
100
AcDbEntity
  8
110-1
100
AcDbText
 10
274.9937374510445
 20
68.52234765310455
 30
0.0
 40
1.25
  1
ML
100
AcDbText
  0
TEXT
  5
474
330
1E
100
AcDbEntity
  8
110-1
100
AcDbText
 10
367.2268076398361
 20
50.37457366984993
 30
0.0
 40
1.25
  1
ORDER NO.          ORDRE NR.
 72
     4
 11
379.4999999999998
 21
51.0
 31
0.0
100
AcDbText
  0
TEXT
  5
475
330
1E
100
AcDbEntity
  8
110-1
100
AcDbText
 10
400.7014836289222
 20
51.30678141311813
 30
0.0
 40
1.249999999999998
  1
QUANT.
 72
     4
 11
404.0
 21
51.89426435991213
 31
0.0
100
AcDbText
  0
TEXT
  5
476
330
1E
100
AcDbEntity
  8
110-1
100
AcDbText
 10
401.1870736698499
 20
49.48565689993039
 30
0.0
 40
1.249999999999998
  1
ANTAL
 72
     4
 11
404.0
 21
50.11065689993039
 31
0.0
100
AcDbText
  0
TEXT
  5
477
330
1E
100
AcDbEntity
  8
110-1
100
AcDbText
 10
278.3776432469303
 20
77.74975577814449
 30
0.0
 40
1.25
  1
TOLERANCES UNLESS OTHERWISE STATED
 72
     1
 11
297.25
 21
77.74975577814449
 31
0.0
100
AcDbText
  0
TEXT
  5
478
330
1E
100
AcDbEntity
  8
110-1
100
AcDbText
 10
277.6507503410641
 20
76.00024422185551
 30
0.0
 40
1.25
  1
TOLERANCE HVOR INTET ANDET ER ANGIVET
 72
     1
 11
297.25
 21
76.00024422185551
 31
0.0
100
AcDbText
  0
LWPOLYLINE
  5
479
330
1E
100
AcDbEntity
  8
110-1
 62
    13
100
AcDbPolyline
 90
        2
 70
     1
 43
0.2999999999999998
 10
249.0
 20
43.0
 42
1.0
 10
253.0
 20
43.0
 42
1.0
  0
LWPOLYLINE
  5
47D
330
1E
100
AcDbEntity
  8
110-1
 62
    13
100
AcDbPolyline
 90
        2
 70
     1
 43
0.2999999999999999
 10
250.0
 20
43.0
 42
1.0
 10
252.0
 20
43.0
 42
1.0
  0
LWPOLYLINE
  5
481
330
1E
100
AcDbEntity
  8
110-1
100
AcDbPolyline
 90
        2
 70
     0
 43
0.0
 10
230.0
 20
53.0
 10
410.0
 20
53.0
  0
TEXT
  5
485
330
1E
100
AcDbEntity
  8
110-1
100
AcDbText
 10
263.4515377956597
 20
75.02407734614561
 30
0.0
 40
1.25
  1
UN - D 28
100
AcDbText
  0
TEXT
  5
486
330
1E
100
AcDbEntity
  8
110-1
100
AcDbText
 10
263.4515377956597
 20
72.88825057449208
 30
0.0
 40
1.25
  1
ISO 1302 
100
AcDbText
  0
TEXT
  5
487
330
1E
100
AcDbEntity
  8
110-1
100
AcDbText
 10
340.1222111527
 20
77.58373823547443
 30
0.0
 40
1.25
  1
UN - D 603
100
AcDbText
  0
TEXT
  5
488
330
1E
100
AcDbEntity
  8
110-1
100
AcDbText
 10
340.1222111527
 20
75.4479114638209
 30
0.0
 40
1.25
  1
ISO 1101
100
AcDbText
  0
TEXT
  5
489
330
1E
100
AcDbEntity
  8
110-1
100
AcDbText
 10
340.1222111527
 20
71.17625792051381
 30
0.0
 40
1.25
  1
UN - D 1660
100
AcDbText
  0
TEXT
  5
48A
330
1E
100
AcDbEntity
  8
110-1
100
AcDbText
 10
340.1222111527
 20
69.04043114886028
 30
0.0
 40
1.25
  1
ISO 5459
100
AcDbText
  0
INSERT
  5
490
330
1E
100
AcDbEntity
  8
110-1
100
AcDbBlockReference
  2
110-1
 10
19.58844319555119
 20
85.43410068301737
 30
0.0
 41
0.85
 42
0.85
 43
0.85
  0
LINE
  5
49B
330
1E
100
AcDbEntity
  8
110-1
100
AcDbLine
 10
410.0
 20
287.0
 30
0.0
 11
20.0
 21
287.0
 31
0.0
  0
LINE
  5
49C
330
1E
100
AcDbEntity
  8
110-1
100
AcDbLine
 10
20.0
 20
10.0
 30
0.0
 11
410.0
 21
10.0
 31
0.0
  0
TEXT
  5
49D
330
1E
100
AcDbEntity
  8
110-1
100
AcDbText
 10
12.7142857142857
 20
125.6009549795361
 30
0.0
 40
2.0
  1
ALL RIGHTS STRICLY RESERVED.
 50
90.0
 72
     1
 11
12.7142857142857
 21
148.5
 31
0.0
100
AcDbText
  0
TEXT
  5
49E
330
1E
100
AcDbEntity
  8
110-1
100
AcDbText
 10
9.28571428571429
 20
112.7141882673942
 30
0.0
 40
2.0
  1
PROPERTY OF PROTELEVISION TECHNOLOGIES A/S
 50
90.0
 72
     1
 11
9.285714285714291
 21
148.5
 31
0.0
100
AcDbText
  0
LINE
  5
49F
330
1E
100
AcDbEntity
  8
110-1
100
AcDbLine
 10
20.0
 20
287.0
 30
0.0
 11
20.0
 21
10.0
 31
0.0
  0
LINE
  5
4A0
330
1E
100
AcDbEntity
  8
110-1
100
AcDbLine
 10
410.0
 20
10.0
 30
0.0
 11
410.0
 21
287.0
 31
0.0
  0
LWPOLYLINE
  5
4A1
330
1E
100
AcDbEntity
  8
110-1
100
AcDbPolyline
 90
        2
 70
     0
 43
0.0
 10
410.0
 20
18.0
 10
230.0
 20
18.0
  0
LWPOLYLINE
  5
4A5
330
1E
100
AcDbEntity
  8
110-1
100
AcDbPolyline
 90
        4
 70
     1
 43
0.5
 10
335.0
 20
14.0
 10
410.0
 20
14.0
 10
410.0
 20
38.0
 10
335.0
 20
38.0
  0
TEXT
  5
4AB
330
1E
100
AcDbEntity
  8
110-1
100
AcDbText
 10
321.3185538881309
 20
11.26822007498039
 30
0.0
 40
1.5
  1
PROTELEVISION TECHNOLOGIES  A/S - Skelmarksvej 4 - DK-2605 Brndby
 72
     4
 11
358.0
 21
11.81102362204724
 31
0.0
100
AcDbText
  0
LWPOLYLINE
  5
4AC
330
1E
100
AcDbEntity
  8
110-1
100
AcDbPolyline
 90
        2
 70
     0
 43
0.0
 10
230.0
 20
14.0
 10
410.0
 20
14.0
  0
LWPOLYLINE
  5
4B0
330
1E
100
AcDbEntity
  8
110-1
100
AcDbPolyline
 90
        2
 70
     0
 43
0.0
 10
230.0
 20
10.0
 10
410.0
 20
10.0
  0
LWPOLYLINE
  5
4B4
330
1E
100
AcDbEntity
  8
110-1
100
AcDbPolyline
 90
        2
 70
     0
 43
0.0
 10
230.0
 20
38.0
 10
410.0
 20
38.0
  0
TEXT
  5
4B8
330
1E
100
AcDbEntity
  8
110-1
 62
    14
100
AcDbText
 10
341.0
 20
15.0
 30
0.0
 40
2.5
  1
110-1
100
AcDbText
  0
LWPOLYLINE
  5
4B9
330
1E
100
AcDbEntity
  8
110-1
100
AcDbPolyline
 90
        2
 70
     0
 43
0.0
 10
242.5
 20
38.0
 10
242.5
 20
68.0
  0
LWPOLYLINE
  5
4BD
330
1E
100
AcDbEntity
  8
110-1
100
AcDbPolyline
 90
        2
 70
     0
 43
0.0
 10
230.0
 20
80.0
 10
230.0
 20
10.0
  0
LWPOLYLINE
  5
4C1
330
1E
100
AcDbEntity
  8
110-1
100
AcDbPolyline
 90
        2
 70
     0
 43
0.0
 10
255.0
 20
68.0
 10
255.0
 20
18.0
  0
TEXT
  5
4C5
330
1E
100
AcDbEntity
  8
110-1
 62
    14
100
AcDbText
 10
262.0
 20
25.0
 30
0.0
 40
3.0
  1
printed     PT5210
100
AcDbText
  0
TEXT
  5
4C6
330
1E
100
AcDbEntity
  8
110-1
 62
    14
100
AcDbText
 10
262.0
 20
30.0
 30
0.0
 40
3.0
  1
Text plate rear
100
AcDbText
  0
TEXT
  5
4C7
330
1E
100
AcDbEntity
  8
110-1
100
AcDbText
 10
231.00017053206
 20
35.37457366984993
 30
0.0
 40
1.25
  1
CLASS NO.       KLASSE NR.
 72
     4
 11
242.5
 21
36.0
 31
0.0
100
AcDbText
  0
LWPOLYLINE
  5
4C8
330
1E
100
AcDbEntity
  8
110-1
100
AcDbPolyline
 90
        5
 70
     0
 43
0.5
 10
230.0
 20
18.0
 10
255.0
 20
18.0
 10
255.0
 20
30.0
 10
230.0
 20
30.0
 10
230.0
 20
18.0
  0
LWPOLYLINE
  5
4CF
330
1E
100
AcDbEntity
  8
110-1
100
AcDbPolyline
 90
        2
 70
     0
 43
0.0
 10
230.0
 20
22.0
 10
255.0
 20
22.0
  0
LWPOLYLINE
  5
4D3
330
1E
100
AcDbEntity
  8
110-1
100
AcDbPolyline
 90
        2
 70
     0
 43
0.0
 10
230.0
 20
26.0
 10
255.0
 20
26.0
  0
TEXT
  5
4D7
330
1E
100
AcDbEntity
  8
110-1
 62
    14
100
AcDbText
 10
240.0
 20
11.0
 30
0.0
 40
2.5
  1
DOC
100
AcDbText
  0
TEXT
  5
4D8
330
1E
100
AcDbEntity
  8
110-1
 62
    14
100
AcDbText
 10
239.0
 20
15.0
 30
0.0
 40
2.5
  1
G.K.
100
AcDbText
  0
TEXT
  5
4D9
330
1E
100
AcDbEntity
  8
110-1
100
AcDbText
 10
231.0280542054399
 20
14.4370630058952
 30
0.0
 40
1.249999999999998
  1
NAVN
100
AcDbText
  0
TEXT
  5
4DA
330
1E
100
AcDbEntity
  8
110-1
100
AcDbText
 10
231.0280542054399
 20
16.17553048701874
 30
0.0
 40
1.249999999999998
  1
NAME
100
AcDbText
  0
LWPOLYLINE
  5
4DB
330
1E
100
AcDbEntity
  8
110-1
100
AcDbPolyline
 90
        2
 70
     0
 43
0.0
 10
238.0
 20
14.0
 10
238.0
 20
10.0
  0
TEXT
  5
4DF
330
1E
100
AcDbEntity
  8
110-1
100
AcDbText
 10
253.856761589515
 20
10.44573543866218
 30
0.0
 40
1.25
  1
KONTROL
100
AcDbText
  0
TEXT
  5
4E0
330
1E
100
AcDbEntity
  8
110-1
100
AcDbText
 10
253.856761589515
 20
12.22404764596113
 30
0.0
 40
1.25
  1
CHECK
100
AcDbText
  0
LWPOLYLINE
  5
4E1
330
1E
100
AcDbEntity
  8
110-1
100
AcDbPolyline
 90
        2
 70
     0
 43
0.0
 10
250.0
 20
30.0
 10
250.0
 20
18.0
  0
LWPOLYLINE
  5
4E5
330
1E
100
AcDbEntity
  8
110-1
100
AcDbPolyline
 90
        2
 70
     0
 43
0.0
 10
253.0
 20
14.0
 10
253.0
 20
10.0
  0
LINE
  5
4E9
330
1E
100
AcDbEntity
  8
110-1
100
AcDbLine
 10
253.0
 20
14.0
 30
0.0
 11
253.0
 21
10.0
 31
0.0
  0
LWPOLYLINE
  5
4EA
330
1E
100
AcDbEntity
  8
110-1
100
AcDbPolyline
 90
        2
 70
     0
 43
0.0
 10
275.0
 20
18.0
 10
275.0
 20
10.0
  0
LINE
  5
4EE
330
1E
100
AcDbEntity
  8
110-1
100
AcDbLine
 10
275.0
 20
18.0
 30
0.0
 11
275.0
 21
14.0
 31
0.0
  0
TEXT
  5
4EF
330
1E
100
AcDbEntity
  8
110-1
 62
    14
100
AcDbText
 10
282.0
 20
11.0
 30
0.0
 40
2.5
  1
98-08-03
100
AcDbText
  0
TEXT
  5
4F0
330
1E
100
AcDbEntity
  8
110-1
100
AcDbText
 10
276.0
 20
14.46198679032726
 30
0.0
 40
1.25
  1
ERST.
100
AcDbText
  0
TEXT
  5
4F1
330
1E
100
AcDbEntity
  8
110-1
100
AcDbText
 10
276.5045798919664
 20
11.37499999999999
 30
0.0
 40
1.25
  1
DAT
 72
     4
 11
278.2508281866458
 21
12.0
 31
0.0
100
AcDbText
  0
TEXT
  5
4F2
330
1E
100
AcDbEntity
  8
110-1
100
AcDbText
 10
276.0
 20
16.19153286067387
 30
0.0
 40
1.25
  1
SUPERS.
100
AcDbText
  0
LWPOLYLINE
  5
4F3
330
1E
100
AcDbEntity
  8
110-1
100
AcDbPolyline
 90
        2
 70
     0
 43
0.0
 10
306.0
 20
10.0
 10
306.0
 20
14.0
  0
TEXT
  5
4F7
330
1E
100
AcDbEntity
  8
110-1
100
AcDbText
 10
331.4273438620436
 20
14.56373869770813
 30
0.0
 40
1.249999999999998
  1
BL
 72
     4
 11
332.4953008879645
 21
15.18873869770813
 31
0.0
100
AcDbText
  0
TEXT
  5
4F8
330
1E
100
AcDbEntity
  8
110-1
100
AcDbText
 10
331.2823916110204
 20
16.27998524823714
 30
0.0
 40
1.249999999999998
  1
SH
 72
     4
 11
332.4953008879645
 21
16.90498524823714
 31
0.0
100
AcDbText
  0
LWPOLYLINE
  5
4F9
330
1E
100
AcDbEntity
  8
110-1
100
AcDbPolyline
 90
        2
 70
     0
 43
0.0
 10
325.0
 20
18.0
 10
325.0
 20
14.0
  0
TEXT
  5
4FD
330
1E
100
AcDbEntity
  8
110-1
 62
    14
100
AcDbText
 10
328.0
 20
15.0
 30
0.0
 40
2.5
  1
1
100
AcDbText
  0
LWPOLYLINE
  5
4FE
330
1E
100
AcDbEntity
  8
110-1
100
AcDbPolyline
 90
        2
 70
     0
 43
0.0
 10
335.0
 20
18.0
 10
335.0
 20
14.0
  0
TEXT
  5
502
330
1E
100
AcDbEntity
  8
110-1
100
AcDbText
 10
336.8005735533708
 20
14.56373869770813
 30
0.0
 40
1.249999999999998
  1
BL
 72
     4
 11
337.8685305792917
 21
15.18873869770813
 31
0.0
100
AcDbText
  0
TEXT
  5
503
330
1E
100
AcDbEntity
  8
110-1
100
AcDbText
 10
336.6556213023476
 20
16.27998524823714
 30
0.0
 40
1.249999999999998
  1
SH
 72
     4
 11
337.8685305792917
 21
16.90498524823714
 31
0.0
100
AcDbText
  0
LWPOLYLINE
  5
504
330
1E
100
AcDbEntity
  8
110-1
100
AcDbPolyline
 90
        2
 70
     0
 43
0.0
 10
410.0
 20
80.0
 10
410.0
 20
10.0
  0
LWPOLYLINE
  5
508
330
1E
100
AcDbEntity
  8
110-1
100
AcDbPolyline
 90
        2
 70
     0
 43
0.0
 10
361.0
 20
80.0
 10
361.0
 20
38.0
  0
LWPOLYLINE
  5
50C
330
1E
100
AcDbEntity
  8
110-1
100
AcDbPolyline
 90
        2
 70
     0
 43
0.0
 10
383.0
 20
22.0
 10
410.0
 20
22.0
  0
LWPOLYLINE
  5
510
330
1E
100
AcDbEntity
  8
110-1
100
AcDbPolyline
 90
        2
 70
     0
 43
0.0
 10
383.0
 20
26.0
 10
410.0
 20
26.0
  0
LWPOLYLINE
  5
514
330
1E
100
AcDbEntity
  8
110-1
100
AcDbPolyline
 90
        2
 70
     0
 43
0.0
 10
383.0
 20
30.0
 10
410.0
 20
30.0
  0
LWPOLYLINE
  5
518
330
1E
100
AcDbEntity
  8
110-1
100
AcDbPolyline
 90
        2
 70
     0
 43
0.0
 10
383.0
 20
34.0
 10
410.0
 20
34.0
  0
TEXT
  5
51C
330
1E
100
AcDbEntity
  8
110-1
 62
    14
100
AcDbText
 10
405.5172989966748
 20
15.01942516083291
 30
0.0
 40
2.5
  1
A3
100
AcDbText
  0
TEXT
  5
51D
330
1E
100
AcDbEntity
  8
110-1
 62
    14
100
AcDbText
 10
385.1659741101235
 20
34.83837923969952
 30
0.0
 40
2.5
  1
1   -- -- --
100
AcDbText
  0
TEXT
  5
51E
330
1E
100
AcDbEntity
  8
110-1
 62
    14
100
AcDbText
 10
342.0
 20
24.0
 30
0.0
 40
3.0
  1
4008 127 0410
100
AcDbText
  0
LWPOLYLINE
  5
51F
330
1E
100
AcDbEntity
  8
110-1
100
AcDbPolyline
 90
        2
 70
     0
 43
0.0
 10
373.0
 20
18.0
 10
373.0
 20
14.0
  0
LWPOLYLINE
  5
523
330
1E
100
AcDbEntity
  8
110-1
100
AcDbPolyline
 90
        2
 70
     0
 43
0.0
 10
388.0
 20
38.0
 10
388.0
 20
14.0
  0
TEXT
  5
527
330
1E
100
AcDbEntity
  8
110-1
 62
    14
100
AcDbText
 10
376.6680236079613
 20
14.84382203354864
 30
0.0
 40
2.5
  1
116
100
AcDbText
  0
TEXT
  5
528
330
1E
100
AcDbEntity
  8
110-1
100
AcDbText
 10
392.0445088676671
 20
15.26278990450204
 30
0.0
 40
1.5
  1
KU
 72
     4
 11
393.5
 21
16.0
 31
0.0
100
AcDbText
  0
LWPOLYLINE
  5
529
330
1E
100
AcDbEntity
  8
110-1
100
AcDbPolyline
 90
        2
 70
     0
 43
0.0
 10
399.0
 20
18.0
 10
399.0
 20
14.0
  0
TEXT
  5
52D
330
1E
100
AcDbEntity
  8
110-1
100
AcDbText
 10
399.9296555252387
 20
15.37457366984993
 30
0.0
 40
1.25
  1
FORM
 72
     4
 11
402.5
 21
16.0
 31
0.0
100
AcDbText
  0
LWPOLYLINE
  5
52E
330
1E
100
AcDbEntity
  8
110-1
100
AcDbPolyline
 90
        2
 70
     0
 43
0.0
 10
398.0
 20
53.0
 10
398.0
 20
38.0
  0
TEXT
  5
646
330
1E
100
AcDbEntity
  8
110-1
100
AcDbText
 10
5.065741709508792
 20
283.6412133135538
 30
0.0
 40
3.0
  1
KUV40
 72
     2
 11
18.34473215971343
 21
283.6412133135538
 31
0.0
100
AcDbText
  0
TEXT
  5
648
330
1E
100
AcDbEntity
  8
110-1
 62
    14
100
AcDbText
 10
264.5031277091338
 20
58.95571599938789
 30
0.0
 40
3.0
  1
4008 107 58440
100
AcDbText
  0
TEXT
  5
6C6
330
1E
100
AcDbEntity
  8
README
100
AcDbText
 10
38.98876952894892
 20
167.5256615685376
 30
0.0
 40
4.0
  1
SH.115-1 : LAYER 115, 115-1 (BLOCK 115-1) 
100
AcDbText
  0
TEXT
  5
6C7
330
1E
100
AcDbEntity
  8
README
100
AcDbText
 10
38.98876952894892
 20
206.889678418222
 30
0.0
 40
4.0
  1
TEKSTEN SKAL BRUGES SAMMEN MED 4008 107 58440
100
AcDbText
  0
TEXT
  5
6C8
330
1E
100
AcDbEntity
  8
README
100
AcDbText
 10
38.98876952894892
 20
175.603068149331
 30
0.0
 40
4.0
  1
SH.110-1 : LAYER 110-1, 110-1MEK, 115-1T (BLOCK 110-1)
100
AcDbText
  0
TEXT
  5
6CB
330
1E
100
AcDbEntity
  8
README
100
AcDbText
 10
39.59098757288967
 20
231.2567100117501
 30
0.0
 40
4.0
  1
TEKSTPLADEN SKAL HAVE:
100
AcDbText
  0
TEXT
  5
6CC
330
1E
100
AcDbEntity
  8
README
100
AcDbText
 10
38.98876952894892
 20
214.9670849990153
 30
0.0
 40
4.0
  1
SE VRIGT TEGN. 4008 127 04100 SH.110-1
100
AcDbText
  0
TEXT
  5
6CD
330
1E
100
AcDbEntity
  8
README
100
AcDbText
 10
39.28987855091929
 20
223.2623272255108
 30
0.0
 40
4.0
  1
SILKETRYK
100
AcDbText
  0
TEXT
  5
6CE
330
1E
100
AcDbEntity
  8
README
100
AcDbText
 10
92.62321188425264
 20
223.2623272255108
 30
0.0
 40
4.0
  1
: BLACK 3C 2X
100
AcDbText
  0
TEXT
  5
723
330
1E
100
AcDbEntity
  8
110-1
 62
    15
100
AcDbText
 10
266.9404684832739
 20
44.05248839280903
 30
0.0
 40
2.5
  1
SE MALINGSPECIFICATION   4008 140 00000
100
AcDbText
  0
TEXT
  5
724
330
1E
100
AcDbEntity
  8
110-1
 62
    15
100
AcDbText
 10
289.5088309138232
 20
42.56829085462647
 30
0.0
 40
2.5
  1

  7
UV
100
AcDbText
  0
TEXT
  5
729
330
1E
100
AcDbEntity
  8
110-1
 62
    14
100
AcDbText
 10
385.1659741101235
 20
30.82966559785234
 30
0.0
 40
2.5
  1
2   00-01-20
100
AcDbText
  0
TEXT
  5
72A
330
1E
100
AcDbEntity
  8
110-1
100
AcDbText
 10
5.294936798185462
 20
279.3677268910434
 30
0.0
 40
3.0
  1
-10334
 72
     2
 11
18.34473215971343
 21
279.3677268910434
 31
0.0
100
AcDbText
  0
INSERT
  5
87C
330
1E
100
AcDbEntity
  8
115
100
AcDbBlockReference
  2
115-1
 10
0.0
 20
0.0
 30
0.0
  0
ENDSEC
  0
SECTION
  2
OBJECTS
  0
DICTIONARY
  5
C
330
0
100
AcDbDictionary
281
     1
  3
ACAD_GROUP
350
D
  3
ACAD_LAYOUT
350
19
  3
ACAD_MLINESTYLE
350
16
  3
ACAD_PLOTSETTINGS
350
18
  3
ACAD_PLOTSTYLENAME
350
E
  3
AcDbVariableDictionary
350
9ED
  0
DICTIONARY
  5
D
102
{ACAD_REACTORS
330
C
102
}
330
C
100
AcDbDictionary
281
     1
  0
DICTIONARY
  5
19
102
{ACAD_REACTORS
330
C
102
}
330
C
100
AcDbDictionary
281
     1
  3
Layout1
350
1D
  3
Model
350
21
  0
DICTIONARY
  5
16
102
{ACAD_REACTORS
330
C
102
}
330
C
100
AcDbDictionary
281
     1
  3
Standard
350
17
  0
DICTIONARY
  5
18
102
{ACAD_REACTORS
330
C
102
}
330
C
100
AcDbDictionary
281
     1
  0
ACDBDICTIONARYWDFLT
  5
E
102
{ACAD_REACTORS
330
C
102
}
330
C
100
AcDbDictionary
281
     1
  3
Normal
350
F
100
AcDbDictionaryWithDefault
340
F
  0
DICTIONARY
  5
9ED
102
{ACAD_REACTORS
330
C
102
}
330
C
100
AcDbDictionary
281
     1
  3
SORTENTS
350
9EE
  0
LAYOUT
  5
1D
102
{ACAD_REACTORS
330
19
102
}
330
19
100
AcDbPlotSettings
  1

  2
C:\Programmer\AutoCAD LT 2000\plotters\DWF Classic.pc3
  4

  6

 40
0.0
 41
0.0
 42
0.0
 43
0.0
 44
0.0
 45
0.0
 46
0.0
 47
0.0
 48
0.0
 49
0.0
140
0.0
141
0.0
142
1.0
143
1.0
 70
   688
 72
     0
 73
     0
 74
     5
  7
C:\Programmer\AutoCAD LT 2000\Plot Styles\kabler.ctb
 75
    16
147
1.0
148
0.0
149
0.0
100
AcDbLayout
  1
Layout1
 70
     0
 71
     1
 10
0.0
 20
0.0
 11
12.0
 21
9.0
 12
0.0
 22
0.0
 32
0.0
 14
1.000000000000000E+20
 24
1.000000000000000E+20
 34
1.000000000000000E+20
 15
-1.000000000000000E+20
 25
-1.000000000000000E+20
 35
-1.000000000000000E+20
146
0.0
 13
0.0
 23
0.0
 33
0.0
 16
1.0
 26
0.0
 36
0.0
 17
0.0
 27
1.0
 37
0.0
 76
     0
330
1A
  0
LAYOUT
  5
21
102
{ACAD_REACTORS
330
19
102
}
330
19
100
AcDbPlotSettings
  1

  2
Acrobat PDFWriter
  4
A3
  6
OLE1
 40
7.143749713897705
 41
7.143756389617919
 42
7.143768310546875
 43
7.14373779296875
 44
297.0530090332031
 45
420.0313415527343
 46
2.459999999999999
 47
0.0
 48
0.0
 49
0.0
140
0.0
141
0.0
142
1.0
143
0.9986502997188166
 70
 11956
 72
     1
 73
     1
 74
     1
  7
kabler.ctb
 75
     0
147
1.001351524434092
148
-5.064107449854191
149
-9.983689057621745
100
AcDbLayout
  1
Model
 70
     1
 71
     0
 10
0.0
 20
0.0
 11
12.0
 21
9.0
 12
0.0
 22
0.0
 32
0.0
 14
0.0
 24
0.0
 34
0.0
 15
0.0
 25
0.0
 35
0.0
146
0.0
 13
0.0
 23
0.0
 33
0.0
 16
1.0
 26
0.0
 36
0.0
 17
0.0
 27
1.0
 37
0.0
 76
     0
330
1E
  0
MLINESTYLE
  5
17
102
{ACAD_REACTORS
330
16
102
}
330
16
100
AcDbMlineStyle
  2
STANDARD
 70
     0
  3

 62
   256
 51
90.0
 52
90.0
 71
     2
 49
0.5
 62
   256
  6
BYLAYER
 49
-0.5
 62
   256
  6
BYLAYER
  0
ACDBPLACEHOLDER
  5
F
102
{ACAD_REACTORS
330
E
102
}
330
E
  0
DICTIONARYVAR
  5
9EE
102
{ACAD_REACTORS
330
9ED
102
}
330
9ED
100
DictionaryVariables
280
     0
  1
96
  0
ENDSEC
  0
EOF
