*%FSLAX23Y23*%
*%MOIN*%
G01*
D11*
X4105Y9426D02*
X15837D01*
Y6651D02*
X4105D01*
X15837D02*
Y9426D01*
X4105D02*
Y6651D01*
D12*
X4940Y8421D02*
Y8456D01*
X4923D01*
X4917Y8450D01*
Y8438D01*
X4923Y8433D01*
X4940D01*
X4928D02*
X4917Y8421D01*
X4905Y8427D02*
X4899Y8421D01*
X4888D01*
X4882Y8427D01*
Y8450D01*
X4888Y8456D01*
X4899D01*
X4905Y8450D01*
Y8444D01*
X4899Y8438D01*
X4882D01*
X4853Y8421D02*
Y8456D01*
X4870Y8438D01*
X4847D01*
X10681Y7687D02*
X10687Y7693D01*
X10699D01*
X10704Y7687D01*
Y7664D01*
X10699Y7658D01*
X10687D01*
X10681Y7664D01*
X10652Y7658D02*
Y7693D01*
X10669Y7675D01*
X10646D01*
X10623Y7687D02*
X10611Y7693D01*
X10623Y7687D02*
X10634Y7675D01*
Y7664D01*
X10629Y7658D01*
X10617D01*
X10611Y7664D01*
Y7670D01*
X10617Y7675D01*
X10634D01*
X10412Y7693D02*
X10406Y7687D01*
X10412Y7693D02*
X10424D01*
X10429Y7687D01*
Y7664D01*
X10424Y7658D01*
X10412D01*
X10406Y7664D01*
X10394Y7693D02*
X10371D01*
X10394D02*
Y7675D01*
X10383Y7681D01*
X10377D01*
X10371Y7675D01*
Y7664D01*
X10377Y7658D01*
X10389D01*
X10394Y7664D01*
X11256Y7607D02*
X11262Y7613D01*
X11274D01*
X11279Y7607D01*
Y7584D01*
X11274Y7578D01*
X11262D01*
X11256Y7584D01*
X11244Y7613D02*
X11221D01*
Y7607D01*
X11244Y7584D01*
Y7578D01*
X11276Y7842D02*
X11282Y7848D01*
X11294D01*
X11299Y7842D01*
Y7819D01*
X11294Y7813D01*
X11282D01*
X11276Y7819D01*
X11264Y7848D02*
X11241D01*
X11264D02*
Y7830D01*
X11253Y7836D01*
X11247D01*
X11241Y7830D01*
Y7819D01*
X11247Y7813D01*
X11259D01*
X11264Y7819D01*
X11229Y7848D02*
X11206D01*
X11229D02*
Y7830D01*
X11218Y7836D01*
X11212D01*
X11206Y7830D01*
Y7819D01*
X11212Y7813D01*
X11224D01*
X11229Y7819D01*
X11096Y8457D02*
X11102Y8463D01*
X11114D01*
X11119Y8457D01*
Y8434D01*
X11114Y8428D01*
X11102D01*
X11096Y8434D01*
X11084Y8463D02*
X11061D01*
X11084D02*
Y8445D01*
X11073Y8451D01*
X11067D01*
X11061Y8445D01*
Y8434D01*
X11067Y8428D01*
X11079D01*
X11084Y8434D01*
X11038Y8457D02*
X11026Y8463D01*
X11038Y8457D02*
X11049Y8445D01*
Y8434D01*
X11044Y8428D01*
X11032D01*
X11026Y8434D01*
Y8440D01*
X11032Y8445D01*
X11049D01*
X11356Y8457D02*
X11362Y8463D01*
X11374D01*
X11379Y8457D01*
Y8434D01*
X11374Y8428D01*
X11362D01*
X11356Y8434D01*
X11333Y8457D02*
X11321Y8463D01*
X11333Y8457D02*
X11344Y8445D01*
Y8434D01*
X11339Y8428D01*
X11327D01*
X11321Y8434D01*
Y8440D01*
X11327Y8445D01*
X11344D01*
D14*
X4881Y8400D02*
Y8352D01*
X4960D02*
Y8400D01*
X4960Y8352D02*
X4881D01*
Y8400D02*
X4960D01*
X10536Y7711D02*
Y7632D01*
X10584D02*
Y7711D01*
X10584Y7711D02*
X10536D01*
Y7632D02*
X10584D01*
X10461Y7632D02*
Y7711D01*
X10509D02*
Y7632D01*
X10509Y7711D02*
X10461D01*
Y7632D02*
X10509D01*
X11215Y7657D02*
Y7705D01*
X11294D02*
Y7657D01*
X11294Y7657D02*
X11215D01*
Y7705D02*
X11294D01*
X11215Y7732D02*
Y7780D01*
X11294D02*
Y7732D01*
X11294Y7732D02*
X11215D01*
Y7780D02*
X11294D01*
X11199Y8406D02*
Y8485D01*
X11151D02*
Y8406D01*
X11151Y8406D02*
X11199D01*
Y8485D02*
X11151D01*
X11274Y8485D02*
Y8406D01*
X11226D02*
Y8485D01*
X11226Y8406D02*
X11274D01*
Y8485D02*
X11226D01*
D02*
M02*
