*%FSLAX23Y23*%
*%MOIN*%
G01*
D11*
X13952Y8767D02*
X13982D01*
X13967Y8752D02*
Y8782D01*
X13952Y7350D02*
X13982D01*
X13967Y7335D02*
Y7365D01*
X9888Y8767D02*
X9858D01*
X9873Y8752D02*
Y8782D01*
X9858Y7350D02*
X9888D01*
X9873Y7335D02*
Y7365D01*
X7466Y8767D02*
X7436D01*
X7451Y8752D02*
Y8782D01*
X7436Y7350D02*
X7466D01*
X7451Y7335D02*
Y7365D01*
X4317Y8767D02*
X4287D01*
X4302Y8752D02*
Y8782D01*
X4287Y7350D02*
X4317D01*
X4302Y7335D02*
Y7365D01*
X15265Y7131D02*
X15285D01*
X15275Y7121D02*
Y7141D01*
X15265Y8536D02*
X15285D01*
X15275Y8526D02*
Y8546D01*
X15265Y7831D02*
X15285D01*
X15275Y7821D02*
Y7841D01*
X15265Y9246D02*
X15285D01*
X15275Y9236D02*
Y9256D01*
X15195Y7131D02*
X15175D01*
X15185Y7121D02*
Y7141D01*
X15175Y6781D02*
X15195D01*
X15185Y6771D02*
Y6791D01*
X15165Y6806D02*
X15145D01*
X15155Y6796D02*
Y6816D01*
X15135Y6831D02*
X15115D01*
X15125Y6821D02*
Y6841D01*
X15105Y6856D02*
X15085D01*
X15095Y6846D02*
Y6866D01*
X15175Y7181D02*
X15195D01*
X15185Y7171D02*
Y7191D01*
X15165Y7396D02*
X15145D01*
X15155Y7386D02*
Y7406D01*
X15145Y7536D02*
X15165D01*
X15155Y7526D02*
Y7546D01*
X15035Y6876D02*
X15015D01*
X15025Y6866D02*
Y6886D01*
X15015Y7581D02*
X15035D01*
X15025Y7571D02*
Y7591D01*
X15175Y8536D02*
X15195D01*
X15185Y8526D02*
Y8546D01*
X15175Y9246D02*
X15195D01*
X15185Y9236D02*
Y9256D01*
Y8836D02*
X15165D01*
X15175Y8826D02*
Y8846D01*
X15135Y8966D02*
X15115D01*
X15125Y8956D02*
Y8976D01*
X15115Y8616D02*
X15135D01*
X15125Y8606D02*
Y8626D01*
X15175Y7831D02*
X15195D01*
X15185Y7821D02*
Y7841D01*
X14850Y7331D02*
X14830D01*
X14840Y7321D02*
Y7341D01*
X14875Y7446D02*
X14895D01*
X14885Y7436D02*
Y7456D01*
X14875Y6816D02*
X14895D01*
X14885Y6806D02*
Y6826D01*
X14920Y7226D02*
X14940D01*
X14930Y7216D02*
Y7236D01*
X14895Y8226D02*
X14875D01*
X14885Y8216D02*
Y8236D01*
X14905Y8686D02*
X14925D01*
X14915Y8676D02*
Y8696D01*
X14895Y8941D02*
X14875D01*
X14885Y8931D02*
Y8951D01*
X14980Y8886D02*
X15000D01*
X14990Y8876D02*
Y8896D01*
X15010Y8286D02*
X15030D01*
X15020Y8276D02*
Y8296D01*
X14985Y8941D02*
X14965D01*
X14975Y8931D02*
Y8951D01*
X14640Y7731D02*
X14620D01*
X14630Y7721D02*
Y7741D01*
X14620Y6946D02*
X14640D01*
X14630Y6936D02*
Y6956D01*
X14620Y8371D02*
X14640D01*
X14630Y8361D02*
Y8381D01*
X14620Y9081D02*
X14640D01*
X14630Y9071D02*
Y9091D01*
X14495Y9106D02*
X14475D01*
X14485Y9096D02*
Y9116D01*
X14465Y8961D02*
X14445D01*
X14455Y8951D02*
Y8971D01*
X14475Y8816D02*
X14495D01*
X14485Y8806D02*
Y8826D01*
X14465Y8116D02*
X14445D01*
X14455Y8106D02*
Y8126D01*
X14330Y7136D02*
X14310D01*
X14320Y7126D02*
Y7146D01*
X14335Y7311D02*
X14355D01*
X14345Y7301D02*
Y7321D01*
X14335Y7581D02*
X14355D01*
X14345Y7571D02*
Y7591D01*
X14285Y9256D02*
X14265D01*
X14275Y9246D02*
Y9266D01*
X14280Y8551D02*
X14260D01*
X14270Y8541D02*
Y8561D01*
X14260Y7906D02*
X14280D01*
X14270Y7896D02*
Y7916D01*
X14255Y8796D02*
X14235D01*
X14245Y8786D02*
Y8806D01*
X14340Y8231D02*
X14360D01*
X14350Y8221D02*
Y8241D01*
X14090Y7136D02*
X14070D01*
X14080Y7126D02*
Y7146D01*
X14135Y7601D02*
X14155D01*
X14145Y7591D02*
Y7611D01*
X14175Y8936D02*
X14195D01*
X14185Y8926D02*
Y8946D01*
X14165Y8231D02*
X14145D01*
X14155Y8221D02*
Y8241D01*
X14090Y9106D02*
X14070D01*
X14080Y9096D02*
Y9116D01*
X13910Y7036D02*
X13890D01*
X13900Y7026D02*
Y7046D01*
X14028Y7709D02*
X14048D01*
X14038Y7699D02*
Y7719D01*
X13965Y9256D02*
X13945D01*
X13955Y9246D02*
Y9266D01*
X13815Y7501D02*
X13795D01*
X13805Y7491D02*
Y7511D01*
X13800Y7331D02*
X13780D01*
X13790Y7321D02*
Y7341D01*
X13785Y6941D02*
X13765D01*
X13775Y6931D02*
Y6951D01*
X13780Y7421D02*
X13800D01*
X13790Y7411D02*
Y7431D01*
X13780Y8936D02*
X13760D01*
X13770Y8926D02*
Y8946D01*
X13795Y8426D02*
X13815D01*
X13805Y8416D02*
Y8436D01*
X13800Y7841D02*
X13780D01*
X13790Y7831D02*
Y7851D01*
X13780Y8326D02*
X13800D01*
X13790Y8316D02*
Y8336D01*
X13785Y7981D02*
X13805D01*
X13795Y7971D02*
Y7991D01*
X13740Y7981D02*
X13720D01*
X13730Y7971D02*
Y7991D01*
X13680Y8415D02*
X13660D01*
X13670Y8405D02*
Y8425D01*
X13710Y9351D02*
X13730D01*
X13720Y9341D02*
Y9361D01*
X13550Y6841D02*
X13530D01*
X13540Y6831D02*
Y6851D01*
X13495Y7666D02*
X13475D01*
X13485Y7656D02*
Y7676D01*
X13568Y7091D02*
X13588D01*
X13578Y7081D02*
Y7101D01*
X13495Y7576D02*
X13475D01*
X13485Y7566D02*
Y7586D01*
X13475Y8151D02*
X13495D01*
X13485Y8141D02*
Y8161D01*
Y8656D02*
X13465D01*
X13475Y8646D02*
Y8666D01*
Y8061D02*
X13495D01*
X13485Y8051D02*
Y8071D01*
Y8566D02*
X13465D01*
X13475Y8556D02*
Y8576D01*
X13570Y8936D02*
X13590D01*
X13580Y8926D02*
Y8946D01*
X13440Y6991D02*
X13420D01*
X13430Y6981D02*
Y7001D01*
X13420Y7481D02*
X13400D01*
X13410Y7471D02*
Y7491D01*
X13280Y7106D02*
X13260D01*
X13270Y7096D02*
Y7116D01*
X13400Y7521D02*
X13420D01*
X13410Y7511D02*
Y7531D01*
X13415Y7066D02*
X13435D01*
X13425Y7056D02*
Y7076D01*
X13380Y8481D02*
X13360D01*
X13370Y8471D02*
Y8491D01*
X13375Y8011D02*
X13395D01*
X13385Y8001D02*
Y8021D01*
X13373Y8568D02*
X13353D01*
X13363Y8558D02*
Y8578D01*
X13400Y7966D02*
X13420D01*
X13410Y7956D02*
Y7976D01*
X13280Y8071D02*
X13260D01*
X13270Y8061D02*
Y8081D01*
Y8521D02*
X13250D01*
X13260Y8511D02*
Y8531D01*
X13325Y9346D02*
X13345D01*
X13335Y9336D02*
Y9356D01*
X13130Y7044D02*
X13110D01*
X13120Y7034D02*
Y7054D01*
X13245Y7586D02*
X13265D01*
X13255Y7576D02*
Y7596D01*
X13195Y8956D02*
X13175D01*
X13185Y8946D02*
Y8966D01*
X12900Y7696D02*
X12880D01*
X12890Y7686D02*
Y7706D01*
X12920Y7066D02*
X12940D01*
X12930Y7056D02*
Y7076D01*
X12900Y7471D02*
X12880D01*
X12890Y7461D02*
Y7481D01*
X12880Y7246D02*
X12900D01*
X12890Y7236D02*
Y7256D01*
X12895Y8746D02*
X12875D01*
X12885Y8736D02*
Y8756D01*
X12875Y9296D02*
X12895D01*
X12885Y9286D02*
Y9306D01*
X12880Y7921D02*
X12900D01*
X12890Y7911D02*
Y7931D01*
X12880Y8146D02*
X12900D01*
X12890Y8136D02*
Y8156D01*
X12895Y8596D02*
X12875D01*
X12885Y8586D02*
Y8606D01*
X12875Y8371D02*
X12895D01*
X12885Y8361D02*
Y8381D01*
X12760Y6901D02*
X12740D01*
X12750Y6891D02*
Y6911D01*
X12855Y6901D02*
X12875D01*
X12865Y6891D02*
Y6911D01*
X12855Y7006D02*
X12875D01*
X12865Y6996D02*
Y7016D01*
X12760Y7036D02*
X12740D01*
X12750Y7026D02*
Y7046D01*
X12685Y7741D02*
X12665D01*
X12675Y7731D02*
Y7751D01*
X12700Y6961D02*
X12720D01*
X12710Y6951D02*
Y6971D01*
X12726Y9026D02*
X12746D01*
X12736Y9016D02*
Y9036D01*
X12795Y9121D02*
X12815D01*
X12805Y9111D02*
Y9131D01*
X12795Y9236D02*
X12815D01*
X12805Y9226D02*
Y9246D01*
X12685Y8321D02*
X12665D01*
X12675Y8311D02*
Y8331D01*
X12847Y9371D02*
X12867D01*
X12857Y9361D02*
Y9381D01*
X12603Y6843D02*
X12583D01*
X12593Y6833D02*
Y6853D01*
X12585Y9181D02*
X12565D01*
X12575Y9171D02*
Y9191D01*
X12515Y9199D02*
X12495D01*
X12505Y9189D02*
Y9209D01*
X12515Y8556D02*
X12535D01*
X12525Y8546D02*
Y8566D01*
X12505Y8526D02*
X12485D01*
X12495Y8516D02*
Y8536D01*
X12613Y8855D02*
X12633D01*
X12623Y8845D02*
Y8865D01*
X12611Y8825D02*
X12591D01*
X12601Y8815D02*
Y8835D01*
X12580Y7864D02*
X12560D01*
X12570Y7854D02*
Y7874D01*
X12560Y8198D02*
X12580D01*
X12570Y8188D02*
Y8208D01*
X12565Y8386D02*
X12545D01*
X12555Y8376D02*
Y8396D01*
X12545Y8431D02*
X12565D01*
X12555Y8421D02*
Y8441D01*
X12515Y7981D02*
X12495D01*
X12505Y7971D02*
Y7991D01*
X12550Y8081D02*
X12570D01*
X12560Y8071D02*
Y8091D01*
X12600Y8546D02*
X12620D01*
X12610Y8536D02*
Y8556D01*
X12325Y6901D02*
X12305D01*
X12315Y6891D02*
Y6911D01*
X12305Y7056D02*
X12325D01*
X12315Y7046D02*
Y7066D01*
X12405Y7116D02*
X12425D01*
X12415Y7106D02*
Y7126D01*
X12405Y6996D02*
X12425D01*
X12415Y6986D02*
Y7006D01*
X12340Y7741D02*
X12320D01*
X12330Y7731D02*
Y7751D01*
X12440Y6956D02*
X12460D01*
X12450Y6946D02*
Y6966D01*
X12371Y6811D02*
X12351D01*
X12361Y6801D02*
Y6821D01*
X12460Y7682D02*
X12480D01*
X12470Y7672D02*
Y7692D01*
X12450Y7864D02*
X12430D01*
X12440Y7854D02*
Y7874D01*
X12455Y8835D02*
X12475D01*
X12465Y8825D02*
Y8845D01*
X12353Y8410D02*
X12333D01*
X12343Y8400D02*
Y8420D01*
X12393Y8411D02*
X12413D01*
X12403Y8401D02*
Y8421D01*
X12383Y8441D02*
X12363D01*
X12373Y8431D02*
Y8451D01*
X12323Y8441D02*
X12303D01*
X12313Y8431D02*
Y8451D01*
X12425Y8466D02*
X12445D01*
X12435Y8456D02*
Y8476D01*
X12455Y8496D02*
X12475D01*
X12465Y8486D02*
Y8506D01*
X12295Y7801D02*
X12275D01*
X12285Y7791D02*
Y7811D01*
X12294Y8956D02*
X12274D01*
X12284Y8946D02*
Y8966D01*
X12430Y8198D02*
X12450D01*
X12440Y8188D02*
Y8208D01*
X12210Y6901D02*
X12190D01*
X12200Y6891D02*
Y6911D01*
X12190Y7086D02*
X12210D01*
X12200Y7076D02*
Y7096D01*
X12175Y6921D02*
X12155D01*
X12165Y6911D02*
Y6931D01*
X12234Y8956D02*
X12254D01*
X12244Y8946D02*
Y8966D01*
X12248Y8441D02*
X12268D01*
X12258Y8431D02*
Y8451D01*
X12238Y8466D02*
X12218D01*
X12228Y8456D02*
Y8476D01*
X12208Y8496D02*
X12188D01*
X12198Y8486D02*
Y8506D01*
X12178Y8526D02*
X12158D01*
X12168Y8516D02*
Y8536D01*
X12123Y8451D02*
X12103D01*
X12113Y8441D02*
Y8461D01*
X12110Y7916D02*
X12090D01*
X12100Y7906D02*
Y7926D01*
X12120Y7886D02*
X12140D01*
X12130Y7876D02*
Y7896D01*
X12245Y7831D02*
X12265D01*
X12255Y7821D02*
Y7841D01*
X12235Y7861D02*
X12215D01*
X12225Y7851D02*
Y7871D01*
X12205Y7891D02*
X12185D01*
X12195Y7881D02*
Y7901D01*
X11975Y7606D02*
X11955D01*
X11965Y7596D02*
Y7616D01*
X12035Y6843D02*
X12055D01*
X12045Y6833D02*
Y6853D01*
X11915Y6956D02*
X11895D01*
X11905Y6946D02*
Y6966D01*
X11911Y7366D02*
X11891D01*
X11901Y7356D02*
Y7376D01*
X11900Y8341D02*
X11920D01*
X11910Y8331D02*
Y8351D01*
X12043Y8511D02*
X12063D01*
X12053Y8501D02*
Y8521D01*
X12073Y8481D02*
X12093D01*
X12083Y8471D02*
Y8491D01*
X12080Y7946D02*
X12060D01*
X12070Y7936D02*
Y7956D01*
X12050Y7976D02*
X12030D01*
X12040Y7966D02*
Y7986D01*
X11980D02*
X11960D01*
X11970Y7976D02*
Y7996D01*
X11950Y8016D02*
X11930D01*
X11940Y8006D02*
Y8026D01*
X11920Y8046D02*
X11900D01*
X11910Y8036D02*
Y8056D01*
X11715Y7261D02*
X11695D01*
X11705Y7251D02*
Y7271D01*
X11710Y6751D02*
X11730D01*
X11720Y6741D02*
Y6761D01*
X11740Y6781D02*
X11760D01*
X11750Y6771D02*
Y6791D01*
X11755Y7606D02*
X11775D01*
X11765Y7596D02*
Y7616D01*
X11855Y6956D02*
X11875D01*
X11865Y6946D02*
Y6966D01*
X11820Y6806D02*
X11800D01*
X11810Y6796D02*
Y6816D01*
X11825Y7086D02*
X11845D01*
X11835Y7076D02*
Y7096D01*
X11825Y7276D02*
X11845D01*
X11835Y7266D02*
Y7286D01*
X11870Y8076D02*
X11890D01*
X11880Y8066D02*
Y8086D01*
X11870Y8136D02*
X11890D01*
X11880Y8126D02*
Y8146D01*
X11860Y8166D02*
X11840D01*
X11850Y8156D02*
Y8176D01*
X11830Y8196D02*
X11810D01*
X11820Y8186D02*
Y8206D01*
X11775Y8286D02*
X11755D01*
X11765Y8276D02*
Y8296D01*
X11635Y7461D02*
X11615D01*
X11625Y7451D02*
Y7471D01*
X11605Y7531D02*
X11585D01*
X11595Y7521D02*
Y7541D01*
X11575Y7606D02*
X11555D01*
X11565Y7596D02*
Y7616D01*
X11545Y6871D02*
X11525D01*
X11535Y6861D02*
Y6881D01*
X11650Y6696D02*
X11670D01*
X11660Y6686D02*
Y6706D01*
X11680Y6721D02*
X11700D01*
X11690Y6711D02*
Y6731D01*
X11580Y8571D02*
X11560D01*
X11570Y8561D02*
Y8581D01*
X11545Y8541D02*
X11525D01*
X11535Y8531D02*
Y8551D01*
X11515Y8571D02*
X11495D01*
X11505Y8561D02*
Y8581D01*
X11395Y7726D02*
X11375D01*
X11385Y7716D02*
Y7736D01*
X11455Y7441D02*
X11475D01*
X11465Y7431D02*
Y7451D01*
X11455Y7351D02*
X11475D01*
X11465Y7341D02*
Y7361D01*
X11420Y7694D02*
X11400D01*
X11410Y7684D02*
Y7704D01*
X11365Y7116D02*
X11345D01*
X11355Y7106D02*
Y7126D01*
X11333Y7425D02*
X11313D01*
X11323Y7415D02*
Y7435D01*
X11321Y6961D02*
X11301D01*
X11311Y6951D02*
Y6971D01*
X11375Y8061D02*
X11395D01*
X11385Y8051D02*
Y8071D01*
X11435Y8631D02*
X11455D01*
X11445Y8621D02*
Y8641D01*
X11420Y8422D02*
X11400D01*
X11410Y8412D02*
Y8432D01*
X11400Y8167D02*
X11420D01*
X11410Y8157D02*
Y8177D01*
X11400Y7950D02*
X11420D01*
X11410Y7940D02*
Y7960D01*
X11317Y8691D02*
X11297D01*
X11307Y8681D02*
Y8701D01*
X11375Y8371D02*
X11395D01*
X11385Y8361D02*
Y8381D01*
X11210Y7141D02*
X11190D01*
X11200Y7131D02*
Y7151D01*
X11220Y7546D02*
X11240D01*
X11230Y7536D02*
Y7556D01*
X11165Y7191D02*
X11145D01*
X11155Y7181D02*
Y7201D01*
X11120Y7191D02*
X11100D01*
X11110Y7181D02*
Y7201D01*
X11100Y7141D02*
X11120D01*
X11110Y7131D02*
Y7151D01*
X11140Y7756D02*
X11160D01*
X11150Y7746D02*
Y7766D01*
X11140Y7681D02*
X11160D01*
X11150Y7671D02*
Y7691D01*
X11155Y7351D02*
X11175D01*
X11165Y7341D02*
Y7361D01*
X11210Y8576D02*
X11230D01*
X11220Y8566D02*
Y8586D01*
X11185Y8351D02*
X11165D01*
X11175Y8341D02*
Y8361D01*
X11290Y8265D02*
X11310D01*
X11300Y8255D02*
Y8275D01*
X11290Y7871D02*
X11310D01*
X11300Y7861D02*
Y7881D01*
X11260Y8351D02*
X11240D01*
X11250Y8341D02*
Y8361D01*
X10945Y7246D02*
X10925D01*
X10935Y7236D02*
Y7256D01*
X10966Y7246D02*
X10986D01*
X10976Y7236D02*
Y7256D01*
X11025Y7381D02*
X11045D01*
X11035Y7371D02*
Y7391D01*
X11015Y6936D02*
X10995D01*
X11005Y6926D02*
Y6946D01*
X10995Y7011D02*
X11015D01*
X11005Y7001D02*
Y7021D01*
X11085Y7626D02*
X11105D01*
X11095Y7616D02*
Y7636D01*
X10986Y7421D02*
X10966D01*
X10976Y7411D02*
Y7431D01*
X11045Y8491D02*
X11065D01*
X11055Y8481D02*
Y8501D01*
X10947Y8691D02*
X10927D01*
X10937Y8681D02*
Y8701D01*
X10790Y7086D02*
X10770D01*
X10780Y7076D02*
Y7096D01*
X10785Y6906D02*
X10805D01*
X10795Y6896D02*
Y6916D01*
X10880Y7546D02*
X10900D01*
X10890Y7536D02*
Y7556D01*
X10755Y6706D02*
X10735D01*
X10745Y6696D02*
Y6716D01*
X10750Y8691D02*
X10770D01*
X10760Y8681D02*
Y8701D01*
X10835Y8576D02*
X10855D01*
X10845Y8566D02*
Y8586D01*
X10570Y7771D02*
X10550D01*
X10560Y7761D02*
Y7781D01*
X10671Y7626D02*
X10691D01*
X10681Y7616D02*
Y7636D01*
X10651Y8491D02*
X10631D01*
X10641Y8481D02*
Y8501D01*
X10360Y7721D02*
X10340D01*
X10350Y7711D02*
Y7731D01*
X10500Y7546D02*
X10520D01*
X10510Y7536D02*
Y7556D01*
X10474Y7520D02*
X10454D01*
X10464Y7510D02*
Y7530D01*
X10475Y7771D02*
X10495D01*
X10485Y7761D02*
Y7781D01*
X10340Y7674D02*
X10320D01*
X10330Y7664D02*
Y7684D01*
X10480Y8571D02*
X10500D01*
X10490Y8561D02*
Y8581D01*
X10340Y7950D02*
X10320D01*
X10330Y7940D02*
Y7960D01*
X10335Y8304D02*
X10355D01*
X10345Y8294D02*
Y8314D01*
X10430Y8245D02*
X10450D01*
X10440Y8235D02*
Y8255D01*
X10430Y7851D02*
X10450D01*
X10440Y7841D02*
Y7861D01*
X10425Y8711D02*
X10405D01*
X10415Y8701D02*
Y8721D01*
X10470Y8446D02*
X10490D01*
X10480Y8436D02*
Y8456D01*
X10470Y8376D02*
X10490D01*
X10480Y8366D02*
Y8386D01*
X10360Y8026D02*
X10340D01*
X10350Y8016D02*
Y8036D01*
X10150Y7600D02*
X10130D01*
X10140Y7590D02*
Y7610D01*
X10245Y6796D02*
X10265D01*
X10255Y6786D02*
Y6806D01*
X10215Y7486D02*
X10195D01*
X10205Y7476D02*
Y7496D01*
X10225Y7536D02*
X10245D01*
X10235Y7526D02*
Y7546D01*
X10180Y7694D02*
X10160D01*
X10170Y7684D02*
Y7704D01*
X10150Y8446D02*
X10130D01*
X10140Y8436D02*
Y8456D01*
X10130Y8326D02*
X10150D01*
X10140Y8316D02*
Y8336D01*
X10130Y8376D02*
X10150D01*
X10140Y8366D02*
Y8386D01*
X10218Y7801D02*
X10238D01*
X10228Y7791D02*
Y7811D01*
X10210Y7971D02*
X10190D01*
X10200Y7961D02*
Y7981D01*
X10155Y8946D02*
X10135D01*
X10145Y8936D02*
Y8956D01*
X10200Y8186D02*
X10220D01*
X10210Y8176D02*
Y8196D01*
X10220Y8487D02*
X10240D01*
X10230Y8477D02*
Y8497D01*
X9955Y7601D02*
X9935D01*
X9945Y7591D02*
Y7611D01*
Y8606D02*
X9925D01*
X9935Y8596D02*
Y8616D01*
X10090Y8716D02*
X10110D01*
X10100Y8706D02*
Y8726D01*
X9945Y8217D02*
X9925D01*
X9935Y8207D02*
Y8227D01*
X9570Y7351D02*
X9550D01*
X9560Y7341D02*
Y7361D01*
X9575Y8226D02*
X9595D01*
X9585Y8216D02*
Y8236D01*
X9480Y6996D02*
X9460D01*
X9470Y6986D02*
Y7006D01*
X9460Y7351D02*
X9480D01*
X9470Y7341D02*
Y7361D01*
X9370Y8631D02*
X9350D01*
X9360Y8621D02*
Y8641D01*
X9520Y8081D02*
X9540D01*
X9530Y8071D02*
Y8091D01*
X9380Y8231D02*
X9360D01*
X9370Y8221D02*
Y8241D01*
X9265Y7556D02*
X9245D01*
X9255Y7546D02*
Y7566D01*
X9245Y7601D02*
X9265D01*
X9255Y7591D02*
Y7611D01*
X9305Y8331D02*
X9325D01*
X9315Y8321D02*
Y8341D01*
X9305Y8431D02*
X9325D01*
X9315Y8421D02*
Y8441D01*
X9310Y8931D02*
X9330D01*
X9320Y8921D02*
Y8941D01*
X9310Y8831D02*
X9330D01*
X9320Y8821D02*
Y8841D01*
X9270Y8681D02*
X9250D01*
X9260Y8671D02*
Y8691D01*
X9225Y8536D02*
X9205D01*
X9215Y8526D02*
Y8546D01*
X9256Y8181D02*
X9276D01*
X9266Y8171D02*
Y8191D01*
X9040Y7221D02*
X9020D01*
X9030Y7211D02*
Y7231D01*
X8965Y7656D02*
X8945D01*
X8955Y7646D02*
Y7666D01*
X8980Y8226D02*
X9000D01*
X8990Y8216D02*
Y8236D01*
X8980Y8741D02*
X9000D01*
X8990Y8731D02*
Y8751D01*
X9100Y8506D02*
X9120D01*
X9110Y8496D02*
Y8516D01*
Y9011D02*
X9130D01*
X9120Y9001D02*
Y9021D01*
X9078Y8226D02*
X9058D01*
X9068Y8216D02*
Y8236D01*
X9027Y8341D02*
X9007D01*
X9017Y8331D02*
Y8351D01*
X8980Y8561D02*
X8960D01*
X8970Y8551D02*
Y8571D01*
X9084Y8726D02*
X9104D01*
X9094Y8716D02*
Y8736D01*
X9027Y8846D02*
X9007D01*
X9017Y8836D02*
Y8856D01*
X8940Y7221D02*
X8920D01*
X8930Y7211D02*
Y7231D01*
X8770Y7221D02*
X8750D01*
X8760Y7211D02*
Y7231D01*
X8790Y7281D02*
X8810D01*
X8800Y7271D02*
Y7291D01*
X8885Y8746D02*
X8905D01*
X8895Y8736D02*
Y8756D01*
X8885Y8231D02*
X8905D01*
X8895Y8221D02*
Y8241D01*
X8885Y8141D02*
X8905D01*
X8895Y8131D02*
Y8151D01*
Y9011D02*
X8875D01*
X8885Y9001D02*
Y9021D01*
X8850Y8536D02*
X8830D01*
X8840Y8526D02*
Y8546D01*
X8740Y7191D02*
X8720D01*
X8730Y7181D02*
Y7201D01*
X8600Y7381D02*
X8580D01*
X8590Y7371D02*
Y7391D01*
X8640Y7136D02*
X8660D01*
X8650Y7126D02*
Y7146D01*
X8600Y7471D02*
X8580D01*
X8590Y7461D02*
Y7481D01*
X8660Y8096D02*
X8680D01*
X8670Y8086D02*
Y8106D01*
X8660Y8611D02*
X8680D01*
X8670Y8601D02*
Y8621D01*
X8580Y8586D02*
X8560D01*
X8570Y8576D02*
Y8596D01*
X8230Y7411D02*
X8210D01*
X8220Y7401D02*
Y7421D01*
X8205Y7641D02*
X8185D01*
X8195Y7631D02*
Y7651D01*
X8185Y7996D02*
X8205D01*
X8195Y7986D02*
Y8006D01*
X8350Y8421D02*
X8370D01*
X8360Y8411D02*
Y8431D01*
X8110Y7546D02*
X8090D01*
X8100Y7536D02*
Y7556D01*
X8085Y8761D02*
X8065D01*
X8075Y8751D02*
Y8771D01*
X7885Y8381D02*
X7865D01*
X7875Y8371D02*
Y8391D01*
X7780Y7261D02*
X7760D01*
X7770Y7251D02*
Y7271D01*
X7710Y6991D02*
X7690D01*
X7700Y6981D02*
Y7001D01*
X7725Y9061D02*
X7745D01*
X7735Y9051D02*
Y9071D01*
X7725Y8506D02*
X7705D01*
X7715Y8496D02*
Y8516D01*
X7035Y9061D02*
X7015D01*
X7025Y9051D02*
Y9071D01*
X7015Y8506D02*
X6995D01*
X7005Y8496D02*
Y8516D01*
X7155Y8381D02*
X7175D01*
X7165Y8371D02*
Y8391D01*
X5340Y8026D02*
X5320D01*
X5330Y8016D02*
Y8036D01*
X5320Y8591D02*
X5340D01*
X5330Y8581D02*
Y8601D01*
X5075Y7201D02*
X5055D01*
X5065Y7191D02*
Y7211D01*
X5180Y7436D02*
X5200D01*
X5190Y7426D02*
Y7446D01*
X5085Y7396D02*
X5065D01*
X5075Y7386D02*
Y7406D01*
X5180Y8646D02*
X5200D01*
X5190Y8636D02*
Y8656D01*
X5180Y7971D02*
X5200D01*
X5190Y7961D02*
Y7981D01*
X5055Y8426D02*
X5035D01*
X5045Y8416D02*
Y8436D01*
X4870Y7441D02*
X4850D01*
X4860Y7431D02*
Y7451D01*
X4850Y7141D02*
X4870D01*
X4860Y7131D02*
Y7151D01*
X4995Y8301D02*
X5015D01*
X5005Y8291D02*
Y8311D01*
X5030Y7974D02*
X5050D01*
X5040Y7964D02*
Y7984D01*
X4805Y7576D02*
X4785D01*
X4795Y7566D02*
Y7586D01*
X4785Y8121D02*
X4805D01*
X4795Y8111D02*
Y8131D01*
X4800Y8376D02*
X4820D01*
X4810Y8366D02*
Y8386D01*
X4367Y8008D02*
X4337D01*
X4352Y7993D02*
Y8023D01*
X4337Y7608D02*
X4367D01*
X4352Y7593D02*
Y7623D01*
X4267Y8558D02*
X4237D01*
X4252Y8543D02*
Y8573D01*
X4337Y8508D02*
X4367D01*
X4352Y8493D02*
Y8523D01*
X4267Y8458D02*
X4237D01*
X4252Y8443D02*
Y8473D01*
X4337Y8408D02*
X4367D01*
X4352Y8393D02*
Y8423D01*
X4267Y8358D02*
X4237D01*
X4252Y8343D02*
Y8373D01*
X4337Y8308D02*
X4367D01*
X4352Y8293D02*
Y8323D01*
X4267Y8258D02*
X4237D01*
X4252Y8243D02*
Y8273D01*
X4337Y8208D02*
X4367D01*
X4352Y8193D02*
Y8223D01*
X4267Y8158D02*
X4237D01*
X4252Y8143D02*
Y8173D01*
X4337Y8108D02*
X4367D01*
X4352Y8093D02*
Y8123D01*
X4267Y8058D02*
X4237D01*
X4252Y8043D02*
Y8073D01*
X4237Y7958D02*
X4267D01*
X4252Y7943D02*
Y7973D01*
X4337Y7908D02*
X4367D01*
X4352Y7893D02*
Y7923D01*
X4267Y7858D02*
X4237D01*
X4252Y7843D02*
Y7873D01*
X4337Y7808D02*
X4367D01*
X4352Y7793D02*
Y7823D01*
X4267Y7758D02*
X4237D01*
X4252Y7743D02*
Y7773D01*
X4337Y7708D02*
X4367D01*
X4352Y7693D02*
Y7723D01*
X4267Y7658D02*
X4237D01*
X4252Y7643D02*
Y7673D01*
X4265Y7552D02*
X4295D01*
X4280Y7537D02*
Y7567D01*
X8575Y6831D02*
X8605D01*
X8590Y6816D02*
Y6846D01*
X8675Y6831D02*
X8705D01*
X8690Y6816D02*
Y6846D01*
X8775Y6831D02*
X8805D01*
X8790Y6816D02*
Y6846D01*
X8875Y6831D02*
X8905D01*
X8890Y6816D02*
Y6846D01*
X8975Y6831D02*
X9005D01*
X8990Y6816D02*
Y6846D01*
X9075Y6831D02*
X9105D01*
X9090Y6816D02*
Y6846D01*
X9175Y6831D02*
X9205D01*
X9190Y6816D02*
Y6846D01*
X8870Y7501D02*
X8840D01*
X8855Y7486D02*
Y7516D01*
X9040Y7501D02*
X9070D01*
X9055Y7486D02*
Y7516D01*
X10100Y9186D02*
X10130D01*
X10115Y9171D02*
Y9201D01*
X9730Y9186D02*
X9700D01*
X9715Y9171D02*
Y9201D01*
X10650Y9286D02*
X10680D01*
X10665Y9271D02*
Y9301D01*
X10630Y9186D02*
X10600D01*
X10615Y9171D02*
Y9201D01*
X10580Y9286D02*
X10550D01*
X10565Y9271D02*
Y9301D01*
X10530Y9186D02*
X10500D01*
X10515Y9171D02*
Y9201D01*
X10480Y9286D02*
X10450D01*
X10465Y9271D02*
Y9301D01*
X10430Y9186D02*
X10400D01*
X10415Y9171D02*
Y9201D01*
X10380Y9286D02*
X10350D01*
X10365Y9271D02*
Y9301D01*
X10330Y9186D02*
X10300D01*
X10315Y9171D02*
Y9201D01*
X10280Y9286D02*
X10250D01*
X10265Y9271D02*
Y9301D01*
X10230Y9186D02*
X10200D01*
X10215Y9171D02*
Y9201D01*
X10180Y9286D02*
X10150D01*
X10165Y9271D02*
Y9301D01*
X10080Y9286D02*
X10050D01*
X10065Y9271D02*
Y9301D01*
X10030Y9186D02*
X10000D01*
X10015Y9171D02*
Y9201D01*
X9980Y9286D02*
X9950D01*
X9965Y9271D02*
Y9301D01*
X9930Y9186D02*
X9900D01*
X9915Y9171D02*
Y9201D01*
X9880Y9286D02*
X9850D01*
X9865Y9271D02*
Y9301D01*
X9830Y9186D02*
X9800D01*
X9815Y9171D02*
Y9201D01*
X9780Y9286D02*
X9750D01*
X9765Y9271D02*
Y9301D01*
X9674Y9258D02*
X9644D01*
X9659Y9243D02*
Y9273D01*
X11401Y6831D02*
X11431D01*
X11416Y6816D02*
Y6846D01*
X11331Y6831D02*
X11301D01*
X11316Y6816D02*
Y6846D01*
X11231Y6831D02*
X11201D01*
X11216Y6816D02*
Y6846D01*
X11131Y6831D02*
X11101D01*
X11116Y6816D02*
Y6846D01*
X11031Y6831D02*
X11001D01*
X11016Y6816D02*
Y6846D01*
X10931Y6831D02*
X10901D01*
X10916Y6816D02*
Y6846D01*
X10831Y6831D02*
X10801D01*
X10816Y6816D02*
Y6846D01*
X10520Y7056D02*
X10490D01*
X10505Y7041D02*
Y7071D01*
X10670Y7056D02*
X10700D01*
X10685Y7041D02*
Y7071D01*
X10610Y7056D02*
X10580D01*
X10595Y7041D02*
Y7071D01*
X11290Y9186D02*
X11320D01*
X11305Y9171D02*
Y9201D01*
X10920Y9186D02*
X10890D01*
X10905Y9171D02*
Y9201D01*
X11840Y9286D02*
X11870D01*
X11855Y9271D02*
Y9301D01*
X11820Y9186D02*
X11790D01*
X11805Y9171D02*
Y9201D01*
X11770Y9286D02*
X11740D01*
X11755Y9271D02*
Y9301D01*
X11720Y9186D02*
X11690D01*
X11705Y9171D02*
Y9201D01*
X11670Y9286D02*
X11640D01*
X11655Y9271D02*
Y9301D01*
X11620Y9186D02*
X11590D01*
X11605Y9171D02*
Y9201D01*
X11570Y9286D02*
X11540D01*
X11555Y9271D02*
Y9301D01*
X11520Y9186D02*
X11490D01*
X11505Y9171D02*
Y9201D01*
X11470Y9286D02*
X11440D01*
X11455Y9271D02*
Y9301D01*
X11420Y9186D02*
X11390D01*
X11405Y9171D02*
Y9201D01*
X11370Y9286D02*
X11340D01*
X11355Y9271D02*
Y9301D01*
X11270Y9286D02*
X11240D01*
X11255Y9271D02*
Y9301D01*
X11220Y9186D02*
X11190D01*
X11205Y9171D02*
Y9201D01*
X11170Y9286D02*
X11140D01*
X11155Y9271D02*
Y9301D01*
X11120Y9186D02*
X11090D01*
X11105Y9171D02*
Y9201D01*
X11070Y9286D02*
X11040D01*
X11055Y9271D02*
Y9301D01*
X11020Y9186D02*
X10990D01*
X11005Y9171D02*
Y9201D01*
X10970Y9286D02*
X10940D01*
X10955Y9271D02*
Y9301D01*
X10864Y9258D02*
X10834D01*
X10849Y9243D02*
Y9273D01*
X15556Y6995D02*
X15586D01*
X15571Y6980D02*
Y7010D01*
X15655Y7094D02*
X15685D01*
X15670Y7079D02*
Y7109D01*
X15487Y7094D02*
X15457D01*
X15472Y7079D02*
Y7109D01*
X15457Y6896D02*
X15487D01*
X15472Y6881D02*
Y6911D01*
X15655Y6896D02*
X15685D01*
X15670Y6881D02*
Y6911D01*
X15386Y6995D02*
X15356D01*
X15371Y6980D02*
Y7010D01*
X15356Y7095D02*
X15386D01*
X15371Y7080D02*
Y7110D01*
X15556Y7195D02*
X15586D01*
X15571Y7180D02*
Y7210D01*
X15556Y6795D02*
X15586D01*
X15571Y6780D02*
Y6810D01*
X15556Y7504D02*
X15586D01*
X15571Y7489D02*
Y7519D01*
X15556Y7904D02*
X15586D01*
X15571Y7889D02*
Y7919D01*
X15386Y7804D02*
X15356D01*
X15371Y7789D02*
Y7819D01*
X15356Y7704D02*
X15386D01*
X15371Y7689D02*
Y7719D01*
X15356Y8413D02*
X15386D01*
X15371Y8398D02*
Y8428D01*
X15356Y8513D02*
X15386D01*
X15371Y8498D02*
Y8528D01*
X15556Y8613D02*
X15586D01*
X15571Y8598D02*
Y8628D01*
X15556Y8213D02*
X15586D01*
X15571Y8198D02*
Y8228D01*
X15556Y8922D02*
X15586D01*
X15571Y8907D02*
Y8937D01*
X15556Y9322D02*
X15586D01*
X15571Y9307D02*
Y9337D01*
X15386Y9222D02*
X15356D01*
X15371Y9207D02*
Y9237D01*
X15356Y9122D02*
X15386D01*
X15371Y9107D02*
Y9137D01*
X15837Y9426D02*
X4105D01*
Y6651D02*
X15837D01*
Y9426D01*
X4105D02*
Y6651D01*
D02*
M02*
