  0
SECTION
  2
HEADER
  9
$ACADVER
  1
AC1015
  9
$ACADMAINTVER
 70
         6
  9
$DWGCODEPAGE
  3
ANSI_1252
  9
$INSBASE
 10
0.0
 20
0.0
 30
0.0
  9
$EXTMIN
 10
0.0
 20
0.0
 30
0.0
  9
$EXTMAX
 10
210.0
 20
297.0
 30
0.0
  9
$LIMMIN
 10
0.0
 20
0.0
  9
$LIMMAX
 10
210.0
 20
297.0
  9
$ORTHOMODE
 70
         0
  9
$REGENMODE
 70
         1
  9
$FILLMODE
 70
         1
  9
$QTEXTMODE
 70
         0
  9
$MIRRTEXT
 70
         1
  9
$LTSCALE
 40
25.4
  9
$ATTMODE
 70
         1
  9
$TEXTSIZE
 40
0.2
  9
$TRACEWID
 40
0.05
  9
$TEXTSTYLE
  7
Standard
  9
$CLAYER
  8
0
  9
$CELTYPE
  6
CONTINUOUS
  9
$CECOLOR
 62
       256
  9
$CELTSCALE
 40
1.0
  9
$DISPSILH
 70
         0
  9
$DIMSCALE
 40
1.0
  9
$DIMASZ
 40
0.18
  9
$DIMEXO
 40
0.0625
  9
$DIMDLI
 40
0.38
  9
$DIMRND
 40
0.0
  9
$DIMDLE
 40
0.0
  9
$DIMEXE
 40
0.18
  9
$DIMTP
 40
0.0
  9
$DIMTM
 40
0.0
  9
$DIMTXT
 40
0.18
  9
$DIMCEN
 40
0.09
  9
$DIMTSZ
 40
0.0
  9
$DIMTOL
 70
         0
  9
$DIMLIM
 70
         0
  9
$DIMTIH
 70
         1
  9
$DIMTOH
 70
         1
  9
$DIMSE1
 70
         0
  9
$DIMSE2
 70
         0
  9
$DIMTAD
 70
         0
  9
$DIMZIN
 70
         0
  9
$DIMBLK
  1

  9
$DIMASO
 70
         1
  9
$DIMSHO
 70
         1
  9
$DIMPOST
  1

  9
$DIMAPOST
  1

  9
$DIMALT
 70
         0
  9
$DIMALTD
 70
         2
  9
$DIMALTF
 40
25.4
  9
$DIMLFAC
 40
1.0
  9
$DIMTOFL
 70
         0
  9
$DIMTVP
 40
0.0
  9
$DIMTIX
 70
         0
  9
$DIMSOXD
 70
         0
  9
$DIMSAH
 70
         0
  9
$DIMBLK1
  1

  9
$DIMBLK2
  1

  9
$DIMSTYLE
  2
Standard
  9
$DIMCLRD
 70
         0
  9
$DIMCLRE
 70
         0
  9
$DIMCLRT
 70
         0
  9
$DIMTFAC
 40
1.0
  9
$DIMGAP
 40
0.09
  9
$DIMJUST
 70
         0
  9
$DIMSD1
 70
         0
  9
$DIMSD2
 70
         0
  9
$DIMTOLJ
 70
         1
  9
$DIMTZIN
 70
         0
  9
$DIMALTZ
 70
         0
  9
$DIMALTTZ
 70
         0
  9
$DIMUPT
 70
         0
  9
$DIMDEC
 70
         4
  9
$DIMTDEC
 70
         4
  9
$DIMALTU
 70
         2
  9
$DIMALTTD
 70
         2
  9
$DIMTXSTY
  7
Standard
  9
$DIMAUNIT
 70
         0
  9
$DIMADEC
 70
         0
  9
$DIMALTRND
 40
0.0
  9
$DIMAZIN
 70
         0
  9
$DIMDSEP
 70
         0
  9
$DIMATFIT
 70
         3
  9
$DIMFRAC
 70
         0
  9
$DIMLDRBLK
  1

  9
$DIMLUNIT
 70
         2
  9
$DIMLWD
 70
         0
  9
$DIMLWE
 70
         0
  9
$DIMTMOVE
 70
         0
  9
$LUNITS
 70
         2
  9
$LUPREC
 70
         4
  9
$SKETCHINC
 40
0.1
  9
$FILLETRAD
 40
0.0
  9
$AUNITS
 70
         0
  9
$AUPREC
 70
         0
  9
$MENU
  1
acad
  9
$ELEVATION
 40
0.0
  9
$PELEVATION
 40
0.0
  9
$THICKNESS
 40
0.0
  9
$LIMCHECK
 70
         0
  9
$CHAMFERA
 40
0.0
  9
$CHAMFERB
 40
0.0
  9
$CHAMFERC
 40
0.0
  9
$CHAMFERD
 40
0.0
  9
$SKPOLY
 70
         0
  9
$TDCREATE
 40
0.000000000
  9
$TDUCREATE
 40
0.000000000
  9
$TDUPDATE
 40
0.000000000
  9
$TDUUPDATE
 40
0.000000000
  9
$TDINDWG
 40
0.0000000000
  9
$TDUSRTIMER
 40
0.0000000000
  9
$USRTIMER
 70
         1
  9
$ANGBASE
 50
0.0
  9
$ANGDIR
 70
         0
  9
$PDMODE
 70
         0
  9
$PDSIZE
 40
0.0
  9
$PLINEWID
 40
0.0
  9
$SPLFRAME
 70
         0
  9
$SPLINETYPE
 70
         6
  9
$SPLINESEGS
 70
         8
  9
$HANDSEED
  5
D9
  9
$SURFTAB1
 70
         6
  9
$SURFTAB2
 70
         6
  9
$SURFTYPE
 70
         6
  9
$SURFU
 70
         6
  9
$SURFV
 70
         6
  9
$UCSBASE
  2

  9
$UCSNAME
  2

  9
$UCSORG
 10
0.0
 20
0.0
 30
0.0
  9
$UCSXDIR
 10
1.0
 20
0.0
 30
0.0
  9
$UCSYDIR
 10
0.0
 20
1.0
 30
0.0
  9
$UCSORTHOREF
  2

  9
$UCSORTHOVIEW
 70
         0
  9
$UCSORGTOP
 10
0.0
 20
0.0
 30
0.0
  9
$UCSORGBOTTOM
 10
0.0
 20
0.0
 30
0.0
  9
$UCSORGLEFT
 10
0.0
 20
0.0
 30
0.0
  9
$UCSORGRIGHT
 10
0.0
 20
0.0
 30
0.0
  9
$UCSORGFRONT
 10
0.0
 20
0.0
 30
0.0
  9
$UCSORGBACK
 10
0.0
 20
0.0
 30
0.0
  9
$PUCSBASE
  2

  9
$PUCSNAME
  2

  9
$PUCSORG
 10
0.0
 20
0.0
 30
0.0
  9
$PUCSXDIR
 10
1.0
 20
0.0
 30
0.0
  9
$PUCSYDIR
 10
0.0
 20
1.0
 30
0.0
  9
$PUCSORTHOREF
  2

  9
$PUCSORTHOVIEW
 70
         0
  9
$PUCSORGTOP
 10
0.0
 20
0.0
 30
0.0
  9
$PUCSORGBOTTOM
 10
0.0
 20
0.0
 30
0.0
  9
$PUCSORGLEFT
 10
0.0
 20
0.0
 30
0.0
  9
$PUCSORGRIGHT
 10
0.0
 20
0.0
 30
0.0
  9
$PUCSORGFRONT
 10
0.0
 20
0.0
 30
0.0
  9
$PUCSORGBACK
 10
0.0
 20
0.0
 30
0.0
  9
$USERI1
 70
         0
  9
$USERI2
 70
         0
  9
$USERI3
 70
         0
  9
$USERI4
 70
         0
  9
$USERI5
 70
         0
  9
$USERR1
 40
0.0
  9
$USERR2
 40
0.0
  9
$USERR3
 40
0.0
  9
$USERR4
 40
0.0
  9
$USERR5
 40
0.0
  9
$WORLDVIEW
 70
         1
  9
$SHADEDGE
 70
         3
  9
$SHADEDIF
 70
        70
  9
$TILEMODE
 70
         1
  9
$MAXACTVP
 70
        16
  9
$PINSBASE
 10
0.0
 20
0.0
 30
0.0
  9
$PLIMCHECK
 70
         0
  9
$PEXTMIN
 10
1.0000000000E+20
 20
1.0000000000E+20
 30
1.0000000000E+20
  9
$PEXTMAX
 10
-1.0000000000E+20
 20
-1.0000000000E+20
 30
-1.0000000000E+20
  9
$PLIMMIN
 10
0.0
 20
0.0
  9
$PLIMMAX
 10
12.0
 20
9.0
  9
$UNITMODE
 70
         0
  9
$VISRETAIN
 70
         0
  9
$PLINEGEN
 70
         1
  9
$PSLTSCALE
 70
         0
  9
$TREEDEPTH
 70
      3020
  9
$CMLSTYLE
  2
Standard
  9
$CMLJUST
 70
         0
  9
$CMLSCALE
 40
1.0
  9
$PROXYGRAPHICS
 70
         0
  9
$MEASUREMENT
 70
         0
  9
$CELWEIGHT
370
         0
  9
$ENDCAPS
280
         0
  9
$JOINSTYLE
280
         0
  9
$LWDISPLAY
290
         0
  9
$INSUNITS
 70
         0
  9
$HYPERLINKBASE
  1

  9
$STYLESHEET
  1

  9
$XEDIT
290
         1
  9
$CEPSNTYPE
380
         0
  9
$PSTYLEMODE
290
         1
  9
$FINGERPRINTGUID
  2

  9
$VERSIONGUID
  2

  9
$EXTNAMES
290
         1
  9
$PSVPSCALE
 40
0.0
  0
ENDSEC
  0
SECTION
  2
CLASSES
  0
CLASS
  1
LWPOLYLINE
  2
AcDbPolyline
  3
AutoCAD 2000
 90
        0
280
         0
281
         1
  0
CLASS
  1
IMAGE
  2
AcDbRasterImage
  3
ISM
 90
      127
280
         0
281
         1
  0
CLASS
  1
OLE2FRAME
  2
AcDbOle2Frame
  3
AutoCAD 2000
 90
        0
280
         0
281
         1
  0
CLASS
  1
HATCH
  2
AcDbHatch
  3
AutoCAD 2000
 90
        0
280
         0
281
         1
  0
CLASS
  1
DICTIONARYVAR
  2
AcDbDictionaryVar
  3
AutoCAD 2000
 90
        0
280
         0
281
         0
  0
CLASS
  1
RASTERVARIABLES
  2
AcDbRasterVariables
  3
ISM
 90
        0
280
         0
281
         0
  0
CLASS
  1
IMAGEDEF
  2
AcDbRasterImageDef
  3
ISM
 90
        0
280
         0
281
         0
  0
CLASS
  1
IMAGEDEF_REACTOR
  2
AcDbRasterImageDefReactor
  3
ISM
 90
        1
280
         0
281
         0
  0
CLASS
  1
IDBUFFER
  2
AcDbIdBuffer
  3
AutoCAD 2000
 90
        0
280
         0
281
         0
  0
CLASS
  1
SPATIAL_FILTER
  2
AcDbSpatialFilter
  3
AutoCAD 2000
 90
        0
280
         0
281
         0
  0
CLASS
  1
XRECORD
  2
AcDbXrecord
  3
AutoCAD 2000
 90
        0
280
         0
281
         0
  0
CLASS
  1
SORTENTSTABLE
  2
AcDbSortentsTable
  3
AutoCAD 2000
 90
        0
280
         0
281
         0
  0
CLASS
  1
LAYER_INDEX
  2
AcDbLayerIndex
  3
AutoCAD 2000
 90
        0
280
         0
281
         0
  0
CLASS
  1
SPATIAL_INDEX
  2
AcDbSpatialIndex
  3
AutoCAD 2000
 90
        0
280
         0
281
         0
  0
CLASS
  1
OBJECT_PTR
  2
CAseDLPNTableRecord
  3
"ASE-LPNTableRecord"
 90
        1
280
         0
281
         0
  0
CLASS
  1
LAYOUT
  2
AcDbLayout
  3
AutoCAD 2000
 90
        0
280
         0
281
         0
  0
CLASS
  1
PLOTSETTINGS
  2
AcDbPlotSettings
  3
AutoCAD 2000
 90
        0
280
         0
281
         0
  0
CLASS
  1
ACDBDICTIONARYWDFLT
  2
AcDbDictionaryWithDefault
  3
AutoCAD 2000
 90
        0
280
         0
281
         0
  0
CLASS
  1
ACDBPLACEHOLDER
  2
AcDbPlaceHolder
  3
AutoCAD 2000
 90
        0
280
         0
281
         0
  0
CLASS
  1
VBA_PROJECT
  2
AcDbVbaProject
  3
acadvba
 90
        0
280
         0
281
         0
  0
CLASS
  1
WIPEOUT
  2
AcDbWipeout
  3
WipeOut|AutoCAD Express Tool|expresstools@autodesk.com
 90
      127
280
         0
281
         1
  0
CLASS
  1
WIPEOUTVARIABLES
  2
AcDbWipeoutVariables
  3
WipeOut|AutoCAD Express Tool|expresstools@autodesk.com
 90
        0
280
         0
281
         0
  0
CLASS
  1
RTEXT
  2
RText
  3
RText|AutoCAD Express Tool|expresstools@autodesk.com
 90
        0
280
         0
281
         1
  0
CLASS
  1
ARCALIGNEDTEXT
  2
AcDbArcAlignedText
  3
ATEXT|AutoCAD Express Tool|expresstools@autodesk.com
 90
        0
280
         0
281
         1
  0
ENDSEC
  0
SECTION
  2
TABLES
  0
TABLE
  2
VPORT
  5
7
100
AcDbSymbolTable
 70
         1
  0
VPORT
  5
15
100
AcDbSymbolTableRecord
100
AcDbViewportTableRecord
  2
*ACTIVE
 70
         0
 10
0.0
 20
0.0
 11
1.0
 21
1.0
 12
105.0
 22
148.5
 13
0.0
 23
0.0
 14
1.0
 24
1.0
 15
0.0
 25
0.0
 16
0.0
 26
0.0
 36
1.0
 17
0.0
 27
0.0
 37
0.0
 40
297.0
 41
1.604229
 42
50.0
 43
0.0
 44
0.0
 50
0.0
 51
0.0
 71
         0
 72
       100
 73
         1
 74
         1
 75
         0
 76
         0
 77
         0
 78
         0
281
         0
 65
         0
110
0.0
120
0.0
130
0.0
111
1.0
121
0.0
131
0.0
112
0.0
122
1.0
132
0.0
345
0
346
0
 79
         0
146
0.0
  0
ENDTAB
  0
TABLE
  2
LTYPE
  5
4
100
AcDbSymbolTable
 70
         7
  0
LTYPE
  5
11
100
AcDbSymbolTableRecord
100
AcDbLinetypeTableRecord
  2
ByBlock
 70
        64
  3

 72
        65
 73
         0
 40
0.0
  0
LTYPE
  5
12
100
AcDbSymbolTableRecord
100
AcDbLinetypeTableRecord
  2
ByLayer
 70
        64
  3

 72
        65
 73
         0
 40
0.0
  0
LTYPE
  5
13
100
AcDbSymbolTableRecord
100
AcDbLinetypeTableRecord
  2
CONTINUOUS
 70
         0
  3
Solid line
 72
        65
 73
         0
 40
0.0
  0
LTYPE
  5
28
100
AcDbSymbolTableRecord
100
AcDbLinetypeTableRecord
  2
HIDDEN2
 70
        64
  3
_ _ _ _ _ _ _ _ _ _ _ _ _ _ _ _ _ _ _ _ _ _ _ _
 72
        65
 73
         2
 40
0.1875
 49
0.125
 74
         0
 49
-0.0625
 74
         0
  0
LTYPE
  5
29
100
AcDbSymbolTableRecord
100
AcDbLinetypeTableRecord
  2
CENTER2
 70
        64
  3
___ _ ___ _ ___ _ ___ _ ___ _ ___ _ ___ _ ___ _
 72
        65
 73
         4
 40
1.125
 49
0.75
 74
         0
 49
-0.125
 74
         0
 49
0.125
 74
         0
 49
-0.125
 74
         0
  0
LTYPE
  5
2A
100
AcDbSymbolTableRecord
100
AcDbLinetypeTableRecord
  2
PHANTOM2
 70
        64
  3
___ _ _ ___ _ _ ___ _ _ ___ _ _ ___ _ _ ___ _ _
 72
        65
 73
         6
 40
1.25
 49
0.625
 74
         0
 49
-0.125
 74
         0
 49
0.125
 74
         0
 49
-0.125
 74
         0
 49
0.125
 74
         0
 49
-0.125
 74
         0
  0
LTYPE
  5
2B
100
AcDbSymbolTableRecord
100
AcDbLinetypeTableRecord
  2
DOT2
 70
        64
  3
...............................................
 72
        65
 73
         2
 40
0.125
 49
0.0
 74
         0
 49
-0.125
 74
         0
  0
ENDTAB
  0
TABLE
  2
LAYER
  5
2
100
AcDbSymbolTable
 70
        10
  0
LAYER
  5
14
100
AcDbSymbolTableRecord
100
AcDbLayerTableRecord
  2
0
 70
         0
 62
         7
  6
CONTINUOUS
290
         1
370
        -3
390
1D
  0
LAYER
  5
2D
100
AcDbSymbolTableRecord
100
AcDbLayerTableRecord
  2
DEFAULT
 70
         0
 62
         7
  6
CONTINUOUS
290
         1
370
        -3
390
0
  0
LAYER
  5
2F
100
AcDbSymbolTableRecord
100
AcDbLayerTableRecord
  2
DOGSV_0
 70
         0
 62
         7
  6
CONTINUOUS
290
         1
370
        -3
390
0
  0
LAYER
  5
31
100
AcDbSymbolTableRecord
100
AcDbLayerTableRecord
  2
GRAFIK
 70
         0
 62
        -1
  6
CONTINUOUS
290
         1
370
        -3
390
0
  0
LAYER
  5
33
100
AcDbSymbolTableRecord
100
AcDbLayerTableRecord
  2
HJAELPEGEOMETRI
 70
         0
 62
         7
  6
CONTINUOUS
290
         1
370
        -3
390
0
  0
LAYER
  5
35
100
AcDbSymbolTableRecord
100
AcDbLayerTableRecord
  2
KONTURER
 70
         0
 62
        -1
  6
CONTINUOUS
290
         1
370
        -3
390
0
  0
LAYER
  5
37
100
AcDbSymbolTableRecord
100
AcDbLayerTableRecord
  2
MAERKER_FOR_GRAFIK
 70
         0
 62
        -1
  6
CONTINUOUS
290
         1
370
        -3
390
0
  0
LAYER
  5
39
100
AcDbSymbolTableRecord
100
AcDbLayerTableRecord
  2
AUTO_-_HIDE
 70
         0
 62
         7
  6
CONTINUOUS
290
         1
370
        -3
390
0
  0
LAYER
  5
50
100
AcDbSymbolTableRecord
100
AcDbLayerTableRecord
  2
SKILT__DK-TECNOL
 70
         0
 62
         7
  6
CONTINUOUS
290
         1
370
        -3
390
0
  0
LAYER
  5
67
100
AcDbSymbolTableRecord
100
AcDbLayerTableRecord
  2
DV1_DEFAULT
 70
         0
 62
         7
  6
CONTINUOUS
290
         1
370
        -3
390
1D
  0
ENDTAB
  0
TABLE
  2
STYLE
  5
3
100
AcDbSymbolTable
 70
         6
  0
STYLE
  5
17
100
AcDbSymbolTableRecord
100
AcDbTextStyleTableRecord
  2
Standard
 70
         0
 40
0.0
 41
1.0
 50
0.0
 71
         0
 42
0.2
  3
txt
  4

  0
STYLE
  5
51
100
AcDbSymbolTableRecord
100
AcDbTextStyleTableRecord
  2
seiso_ttfB
 70
         0
 40
0.0
 41
1.0
 50
0.0
 71
         0
 42
0.2
  3
seiso.ttf
  4

1001
ACAD
1000
Solid Edge ISO
1071
 33554434
  0
STYLE
  5
55
100
AcDbSymbolTableRecord
100
AcDbTextStyleTableRecord
  2
seiso_ttf
 70
         0
 40
0.0
 41
1.0
 50
0.0
 71
         0
 42
0.2
  3
seiso.ttf
  4

1001
ACAD
1000
Solid Edge ISO
1071
        2
  0
STYLE
  5
56
100
AcDbSymbolTableRecord
100
AcDbTextStyleTableRecord
  2
arial_ttfB
 70
         0
 40
0.0
 41
1.0
 50
0.0
 71
         0
 42
0.2
  3
arial.ttf
  4

1001
ACAD
1000
Arial
1071
 33554434
  0
STYLE
  5
63
100
AcDbSymbolTableRecord
100
AcDbTextStyleTableRecord
  2
arial_ttf
 70
         0
 40
0.0
 41
1.0
 50
0.0
 71
         0
 42
0.2
  3
arial.ttf
  4

1001
ACAD
1000
Arial
1071
        2
  0
STYLE
  5
AA
100
AcDbSymbolTableRecord
100
AcDbTextStyleTableRecord
  2
times_ttfBI
 70
         0
 40
0.0
 41
1.0
 50
0.0
 71
         0
 42
0.2
  3
times.ttf
  4

1001
ACAD
1000
Times New Roman
1071
 50331650
  0
ENDTAB
  0
TABLE
  2
VIEW
  5
5
100
AcDbSymbolTable
 70
         0
  0
ENDTAB
  0
TABLE
  2
UCS
  5
6
100
AcDbSymbolTable
 70
         0
  0
ENDTAB
  0
TABLE
  2
APPID
  5
8
100
AcDbSymbolTable
 70
         1
  0
APPID
  5
16
100
AcDbSymbolTableRecord
100
AcDbRegAppTableRecord
  2
ACAD
 70
         0
  0
ENDTAB
  0
TABLE
  2
DIMSTYLE
  5
9
100
AcDbSymbolTable
 70
         1
100
AcDbDimStyleTable
 71
         0
  0
DIMSTYLE
105
18
100
AcDbSymbolTableRecord
100
AcDbDimStyleTableRecord
  2
Standard
 70
         0
  3

  4

 40
1.0
 41
0.18
 42
0.0625
 43
0.38
 44
0.18
 45
0.0
 46
0.0
 47
0.0
 48
0.0
 71
         0
 72
         0
 73
         1
 74
         1
 75
         0
 76
         0
 77
         0
 78
         0
 79
         0
140
0.18
141
0.09
142
0.0
143
25.4
144
1.0
145
0.0
146
1.0
147
0.09
148
0.0
170
         0
171
         2
172
         0
173
         0
174
         0
175
         0
176
         0
177
         0
178
         0
179
         0
271
         4
272
         4
273
         2
274
         2
275
         0
276
         0
277
         2
278
        46
279
         0
280
         0
281
         0
282
         0
283
         1
284
         0
285
         0
286
         0
288
         0
289
         0
340
17
341
0
342
0
343
0
344
0
371
        -2
372
        -2
  0
ENDTAB
  0
TABLE
  2
BLOCK_RECORD
  5
1
100
AcDbSymbolTable
 70
         5
  0
BLOCK_RECORD
  5
A
100
AcDbSymbolTableRecord
100
AcDbBlockTableRecord
  2
*MODEL_SPACE
340
20
  0
BLOCK_RECORD
  5
B
100
AcDbSymbolTableRecord
100
AcDbBlockTableRecord
  2
*PAPER_SPACE
340
21
  0
BLOCK_RECORD
  5
65
100
AcDbSymbolTableRecord
100
AcDbBlockTableRecord
  2
SE0
340
0
102
{BLKREFS
331
6C
102
}
  0
BLOCK_RECORD
  5
66
100
AcDbSymbolTableRecord
100
AcDbBlockTableRecord
  2
SE1
340
0
102
{BLKREFS
331
68
102
}
  0
BLOCK_RECORD
  5
6D
100
AcDbSymbolTableRecord
100
AcDbBlockTableRecord
  2
SE2
340
0
102
{BLKREFS
331
70
102
}
  0
BLOCK_RECORD
  5
71
100
AcDbSymbolTableRecord
100
AcDbBlockTableRecord
  2
SE3
340
0
102
{BLKREFS
331
74
102
}
  0
BLOCK_RECORD
  5
75
100
AcDbSymbolTableRecord
100
AcDbBlockTableRecord
  2
SE4
340
0
102
{BLKREFS
331
77
102
}
  0
ENDTAB
  0
ENDSEC
  0
SECTION
  2
BLOCKS
  0
BLOCK
  5
D
100
AcDbEntity
  8
0
390
0
100
AcDbBlockBegin
  2
*MODEL_SPACE
 70
         0
 10
0.0
 20
0.0
 30
0.0
  3
*MODEL_SPACE
  1

  0
ENDBLK
  5
E
100
AcDbEntity
  8
0
390
0
100
AcDbBlockEnd
  0
BLOCK
  5
F
100
AcDbEntity
 67
         1
  8
0
390
0
100
AcDbBlockBegin
  2
*PAPER_SPACE
 70
         0
 10
0.0
 20
0.0
 30
0.0
  3
*PAPER_SPACE
  1

  0
ENDBLK
  5
10
100
AcDbEntity
 67
         1
  8
0
390
0
100
AcDbBlockEnd
  0
BLOCK
  5
BE
100
AcDbEntity
  8
DEFAULT
370
         0
390
0
 62
         1
 48
0.0
100
AcDbBlockBegin
  2
SE0
 70
         0
 10
0.0
 20
0.0
 30
0.0
  3
SE0
  1

  0
ENDBLK
  5
BF
100
AcDbEntity
  8
DEFAULT
370
         0
390
0
 62
         1
 48
0.0
100
AcDbBlockEnd
  0
BLOCK
  5
AE
100
AcDbEntity
  8
DEFAULT
370
         0
390
0
 62
         1
 48
0.0
100
AcDbBlockBegin
  2
SE1
 70
         0
 10
0.0
 20
0.0
 30
0.0
  3
SE1
  1

  0
LINE
  5
AF
100
AcDbEntity
  8
SKILT__DK-TECNOL
370
         0
390
0
  6
CONTINUOUS
 62
         7
100
AcDbLine
 10
66.5020030319
 20
234.6528214254
 30
0.0
 11
66.5020030319
 21
176.1528214254
 31
0.0
  0
ARC
  5
B0
100
AcDbEntity
  8
SKILT__DK-TECNOL
370
         0
390
0
  6
CONTINUOUS
 62
         7
100
AcDbCircle
 10
156.5020030319
 20
234.6528214254
 30
0.0
 40
6.0
100
AcDbArc
 50
0.0
 51
90.0
  0
LINE
  5
B1
100
AcDbEntity
  8
SKILT__DK-TECNOL
370
         0
390
0
  6
CONTINUOUS
 62
         7
100
AcDbLine
 10
72.5020030319
 20
170.1528214254
 30
0.0
 11
156.5020030319
 21
170.1528214254
 31
0.0
  0
LINE
  5
B2
100
AcDbEntity
  8
SKILT__DK-TECNOL
370
         0
390
0
  6
CONTINUOUS
 62
         7
100
AcDbLine
 10
162.5020030319
 20
176.1528214254
 30
0.0
 11
162.5020030319
 21
234.6528214254
 31
0.0
  0
LINE
  5
B3
100
AcDbEntity
  8
SKILT__DK-TECNOL
370
         0
390
0
  6
CONTINUOUS
 62
         7
100
AcDbLine
 10
156.5020030319
 20
240.6528214254
 30
0.0
 11
72.5020030319
 21
240.6528214254
 31
0.0
  0
ARC
  5
B4
100
AcDbEntity
  8
SKILT__DK-TECNOL
370
         0
390
0
  6
CONTINUOUS
 62
         7
100
AcDbCircle
 10
156.5020030319
 20
176.1528214254
 30
0.0
 40
6.0
100
AcDbArc
 50
270.0
 51
360.0
  0
ARC
  5
B5
100
AcDbEntity
  8
SKILT__DK-TECNOL
370
         0
390
0
  6
CONTINUOUS
 62
         7
100
AcDbCircle
 10
72.5020030319
 20
234.6528214254
 30
0.0
 40
6.0
100
AcDbArc
 50
90.0
 51
180.0
  0
ARC
  5
B6
100
AcDbEntity
  8
SKILT__DK-TECNOL
370
         0
390
0
  6
CONTINUOUS
 62
         7
100
AcDbCircle
 10
72.5020030319
 20
176.1528214254
 30
0.0
 40
6.0
100
AcDbArc
 50
180.0
 51
270.0
  0
LINE
  5
B7
100
AcDbEntity
  8
DV1_DEFAULT
370
         0
390
0
  6
CONTINUOUS
 62
         7
100
AcDbLine
 10
72.3421918889
 20
223.6502388004
 30
0.0
 11
76.2857919925
 21
223.7798629409
 31
0.0
  0
LINE
  5
B8
100
AcDbEntity
  8
DV1_DEFAULT
370
         0
390
0
  6
CONTINUOUS
 62
         7
100
AcDbLine
 10
72.3421918889
 20
228.6502388004
 30
0.0
 11
72.3421918889
 21
223.6502388004
 31
0.0
  0
LINE
  5
B9
100
AcDbEntity
  8
DV1_DEFAULT
370
         0
390
0
  6
CONTINUOUS
 62
         7
100
AcDbLine
 10
156.6572850908
 20
229.4684796589
 30
0.0
 11
156.6572850908
 21
213.6553042337
 31
0.0
  0
LINE
  5
BA
100
AcDbEntity
  8
DV1_DEFAULT
370
         0
390
0
  6
CONTINUOUS
 62
         7
100
AcDbLine
 10
124.0941894226
 20
213.6553042337
 30
0.0
 11
156.6572850908
 21
213.6553042337
 31
0.0
  0
LINE
  5
BB
100
AcDbEntity
  8
DV1_DEFAULT
370
         0
390
0
  6
CONTINUOUS
 62
         7
100
AcDbLine
 10
113.594634049
 20
188.1508520102
 30
0.0
 11
152.5007069519
 21
188.1508520102
 31
0.0
  0
LINE
  5
BC
100
AcDbEntity
  8
DV1_DEFAULT
370
         0
390
0
  6
CONTINUOUS
 62
         7
100
AcDbLine
 10
152.5007069519
 20
191.3416668591
 30
0.0
 11
152.5007069519
 21
188.1508520102
 31
0.0
  0
ENDBLK
  5
BD
100
AcDbEntity
  8
DV1_DEFAULT
370
         0
390
0
  6
CONTINUOUS
 62
         7
100
AcDbBlockEnd
  0
BLOCK
  5
C0
100
AcDbEntity
  8
DEFAULT
370
         0
390
0
 62
         1
 48
0.0
100
AcDbBlockBegin
  2
SE2
 70
         0
 10
0.0
 20
0.0
 30
0.0
  3
SE2
  1

  0
HATCH
  5
C1
100
AcDbEntity
  8
DEFAULT
390
0
  6
CONTINUOUS
 62
         7
100
AcDbHatch
 10
0.0
 20
0.0
 30
0.0
210
0.0
220
0.0
230
1.0
  2
SOLID
 70
         1
 71
         1
 91
        1
 92
        1
 93
        3
 72
         1
 10
70.00200313992903
 20
266.90297750822805
 11
66.502003031895612
 21
266.31964415688913
 72
         1
 10
66.502003031895612
 20
266.31964415688913
 11
70.00200313992903
 21
265.7363108055502
 72
         1
 10
70.00200313992903
 20
265.7363108055502
 11
70.00200313992903
 21
266.90297750822805
 97
        0
 75
         0
 76
         1
 98
        1
 10
0.0
 20
0.0
  0
HATCH
  5
C2
100
AcDbEntity
  8
DEFAULT
390
0
  6
CONTINUOUS
 62
         7
100
AcDbHatch
 10
0.0
 20
0.0
 30
0.0
210
0.0
220
0.0
230
1.0
  2
SOLID
 70
         1
 71
         1
 91
        1
 92
        1
 93
        3
 72
         1
 10
159.00200292386219
 20
266.90297750822805
 11
162.50200303189561
 21
266.31964415688913
 72
         1
 10
162.50200303189561
 20
266.31964415688913
 11
159.00200292386219
 21
265.7363108055502
 72
         1
 10
159.00200292386219
 20
265.7363108055502
 11
159.00200292386219
 21
266.90297750822805
 97
        0
 75
         0
 76
         1
 98
        1
 10
0.0
 20
0.0
  0
LINE
  5
C3
100
AcDbEntity
  8
DEFAULT
370
         0
390
0
  6
CONTINUOUS
 62
         7
100
AcDbLine
 10
66.5020030319
 20
235.702821388
 30
0.0
 11
66.5020030319
 21
267.3696441194
 31
0.0
  0
LINE
  5
C4
100
AcDbEntity
  8
DEFAULT
370
         0
390
0
  6
CONTINUOUS
 62
         7
100
AcDbLine
 10
162.5020030319
 20
235.702821388
 30
0.0
 11
162.5020030319
 21
267.3696441194
 31
0.0
  0
LINE
  5
C5
100
AcDbEntity
  8
DEFAULT
370
         0
390
0
  6
CONTINUOUS
 62
         7
100
AcDbLine
 10
66.5020030319
 20
266.3196441569
 30
0.0
 11
162.5020038664
 21
266.3196441569
 31
0.0
  0
TEXT
  5
C6
100
AcDbEntity
  8
DEFAULT
370
         0
390
0
  6
CONTINUOUS
 62
         7
100
AcDbText
 10
112.3542761764
 20
267.1946441569
 30
0.0
 40
3.5
  1
96
  7
seiso_ttfB
 11
112.3542761764
 21
270.6946441569
 31
0.0
100
AcDbText
 73
         3
  0
ENDBLK
  5
C7
100
AcDbEntity
  8
DEFAULT
370
         0
390
0
  6
CONTINUOUS
 62
         7
100
AcDbBlockEnd
  0
BLOCK
  5
C8
100
AcDbEntity
  8
DEFAULT
370
         0
390
0
 62
         1
 48
0.0
100
AcDbBlockBegin
  2
SE3
 70
         0
 10
0.0
 20
0.0
 30
0.0
  3
SE3
  1

  0
HATCH
  5
C9
100
AcDbEntity
  8
DEFAULT
390
0
  6
CONTINUOUS
 62
         7
100
AcDbHatch
 10
0.0
 20
0.0
 30
0.0
210
0.0
220
0.0
230
1.0
  2
SOLID
 70
         1
 71
         1
 91
        1
 92
        1
 93
        3
 72
         1
 10
38.318644801578003
 20
237.1528213173608
 11
38.901978152916904
 21
240.65282142539422
 72
         1
 10
38.901978152916904
 20
240.65282142539422
 11
39.485311504255804
 21
237.1528213173608
 72
         1
 10
39.485311504255804
 20
237.1528213173608
 11
38.318644801578003
 21
237.1528213173608
 97
        0
 75
         0
 76
         1
 98
        1
 10
0.0
 20
0.0
  0
HATCH
  5
CA
100
AcDbEntity
  8
DEFAULT
390
0
  6
CONTINUOUS
 62
         7
100
AcDbHatch
 10
0.0
 20
0.0
 30
0.0
210
0.0
220
0.0
230
1.0
  2
SOLID
 70
         1
 71
         1
 91
        1
 92
        1
 93
        3
 72
         1
 10
38.318644801577996
 20
173.65282153342764
 11
38.901978152916897
 21
170.15282142539422
 72
         1
 10
38.901978152916897
 20
170.15282142539422
 11
39.485311504255797
 21
173.65282153342764
 72
         1
 10
39.485311504255797
 20
173.65282153342764
 11
38.318644801577996
 21
173.65282153342764
 97
        0
 75
         0
 76
         1
 98
        1
 10
0.0
 20
0.0
  0
LINE
  5
CB
100
AcDbEntity
  8
DEFAULT
370
         0
390
0
  6
CONTINUOUS
 62
         7
100
AcDbLine
 10
71.4520030693
 20
240.6528214254
 30
0.0
 11
37.8519781904
 21
240.6528214254
 31
0.0
  0
LINE
  5
CC
100
AcDbEntity
  8
DEFAULT
370
         0
390
0
  6
CONTINUOUS
 62
         7
100
AcDbLine
 10
71.4520030693
 20
170.1528214254
 30
0.0
 11
37.8519781904
 21
170.1528214254
 31
0.0
  0
LINE
  5
CD
100
AcDbEntity
  8
DEFAULT
370
         0
390
0
  6
CONTINUOUS
 62
         7
100
AcDbLine
 10
38.9019781529
 20
240.6528214254
 30
0.0
 11
38.9019781529
 21
170.1528201141
 31
0.0
  0
TEXT
  5
CE
100
AcDbEntity
  8
DEFAULT
370
         0
390
0
  6
CONTINUOUS
 62
         7
100
AcDbText
 10
38.0269781529
 20
201.942593497
 30
0.0
 40
3.5
  1
70,5
 50
90.0
  7
seiso_ttfB
 11
34.5269781529
 21
201.942593497
 31
0.0
100
AcDbText
 73
         3
  0
ENDBLK
  5
CF
100
AcDbEntity
  8
DEFAULT
370
         0
390
0
  6
CONTINUOUS
 62
         7
100
AcDbBlockEnd
  0
BLOCK
  5
D0
100
AcDbEntity
  8
DEFAULT
370
         0
390
0
 62
         1
 48
0.0
100
AcDbBlockBegin
  2
SE4
 70
         0
 10
0.0
 20
0.0
 30
0.0
  3
SE4
  1

  0
LINE
  5
D1
100
AcDbEntity
  8
DEFAULT
370
         0
390
0
  6
CONTINUOUS
 62
         7
100
AcDbLine
 10
161.3053775753
 20
238.2483176353
 30
0.0
 11
186.3538561992
 21
256.9979922947
 31
0.0
  0
HATCH
  5
D2
100
AcDbEntity
  8
DEFAULT
390
0
  6
CONTINUOUS
 62
         7
100
AcDbHatch
 10
0.0
 20
0.0
 30
0.0
210
0.0
220
0.0
230
1.0
  2
SOLID
 70
         1
 71
         1
 91
        1
 92
        1
 93
        3
 72
         1
 10
163.75778400316952
 20
240.81268525086298
 11
161.30537757532471
 21
238.24831763531259
 72
         1
 10
161.30537757532471
 20
238.24831763531259
 11
164.45690828778885
 21
239.87869572747817
 72
         1
 10
164.45690828778882
 20
239.8786957274782
 11
163.75778400316949
 21
240.81268525086301
 97
        0
 75
         0
 76
         1
 98
        1
 10
0.0
 20
0.0
  0
TEXT
  5
D3
100
AcDbEntity
  8
DEFAULT
370
         0
390
0
  6
CONTINUOUS
 62
         7
100
AcDbText
 10
179.7925423621
 20
253.1795977748
 30
0.0
 40
3.5
  1
R
 50
36.8161565065
  7
seiso_ttfB
 11
177.6951695729
 21
255.9815662585
 31
0.0
100
AcDbText
 73
         3
  0
TEXT
  5
D4
100
AcDbEntity
  8
DEFAULT
370
         0
390
0
  6
CONTINUOUS
 62
         7
100
AcDbText
 10
183.1294321017
 20
255.6773780964
 30
0.0
 40
3.5
  1
6
 50
36.8161565065
  7
seiso_ttfB
 11
181.0320593126
 21
258.4793465801
 31
0.0
100
AcDbText
 73
         3
  0
TEXT
  5
D5
100
AcDbEntity
  8
DEFAULT
370
         0
390
0
  6
CONTINUOUS
 62
         7
100
AcDbText
 10
172.5965778472
 20
247.7931631118
 30
0.0
 40
3.5
  1
4stk
 50
36.8161565065
  7
seiso_ttfB
 11
170.4992050581
 21
250.5951315955
 31
0.0
100
AcDbText
 73
         3
  0
ENDBLK
  5
D6
100
AcDbEntity
  8
DEFAULT
370
         0
390
0
  6
CONTINUOUS
 62
         7
100
AcDbBlockEnd
  0
ENDSEC
  0
SECTION
  2
ENTITIES
  0
TEXT
  5
52
100
AcDbEntity
  8
DEFAULT
370
         0
390
0
  6
CONTINUOUS
 62
         7
100
AcDbText
 10
87.9134312463
 20
59.9151946975
 30
0.0
 40
3.5
  1
Lexan nr. 8 B 35                                               0,25mm
  7
seiso_ttfB
 11
87.9134312463
 21
63.4151946975
 31
0.0
100
AcDbText
 73
         3
  0
TEXT
  5
53
100
AcDbEntity
  8
DEFAULT
370
         0
390
0
  6
CONTINUOUS
 62
         7
100
AcDbText
 10
87.9134312463
 20
54.1879219702
 30
0.0
 40
3.5
  1
med klæb nr. 3720                                 
  7
seiso_ttfB
 11
87.9134312463
 21
57.6879219702
 31
0.0
100
AcDbText
 73
         3
  0
TEXT
  5
54
100
AcDbEntity
  8
DEFAULT
370
         0
390
0
  6
CONTINUOUS
 62
         7
100
AcDbText
 10
99.0703324854
 20
47.1328573771
 30
0.0
 40
3.5
  1
Farve: sort
  7
seiso_ttfB
 11
99.0703324854
 21
50.6328573771
 31
0.0
100
AcDbText
 73
         3
  0
TEXT
  5
57
100
AcDbEntity
  8
DEFAULT
370
         0
390
0
  6
CONTINUOUS
 62
         7
100
AcDbText
 10
94.3238160921
 20
40.893587995
 30
0.0
 40
3.3513888889
  1
±
  7
seiso_ttf
 11
94.3238160921
 21
44.2449768838
 31
0.0
100
AcDbText
 73
         3
  0
TEXT
  5
58
100
AcDbEntity
  8
DEFAULT
370
         0
390
0
  6
CONTINUOUS
 62
         7
100
AcDbText
 10
96.380350183
 20
40.893587995
 30
0.0
 40
3.5
  1
0.2  
  7
seiso_ttfB
 11
96.380350183
 21
44.393587995
 31
0.0
100
AcDbText
 73
         3
  0
TEXT
  5
59
100
AcDbEntity
  8
DEFAULT
370
         0
390
0
  6
CONTINUOUS
 62
         7
100
AcDbText
 10
103.9371683649
 20
40.893587995
 30
0.0
 40
3.3513888889
  1
 Ð
  7
arial_ttfB
 11
103.9371683649
 21
44.2449768838
 31
0.0
100
AcDbText
 73
         3
  0
TEXT
  5
5A
100
AcDbEntity
  8
DEFAULT
370
         0
390
0
  6
CONTINUOUS
 62
         7
100
AcDbText
 10
108.9974337664
 20
40.893587995
 30
0.0
 40
3.3513888889
  1
 ±1°
  7
seiso_ttfB
 11
108.9974337664
 21
44.2449768838
 31
0.0
100
AcDbText
 73
         3
  0
TEXT
  5
5B
100
AcDbEntity
  8
DEFAULT
370
         0
390
0
  6
CONTINUOUS
 62
         7
100
AcDbText
 10
89.337961212
 20
29.9489052832
 30
0.0
 40
2.0
  1
IIv
  7
seiso_ttfB
 11
89.337961212
 21
31.9489052832
 31
0.0
100
AcDbText
 73
         3
  0
TEXT
  5
5C
100
AcDbEntity
  8
DEFAULT
370
         0
390
0
  6
CONTINUOUS
 62
         7
100
AcDbText
 10
106.1474148077
 20
29.9489052832
 30
0.0
 40
2.0
  1
05-11-14
  7
seiso_ttfB
 11
106.1474148077
 21
31.9489052832
 31
0.0
100
AcDbText
 73
         3
  0
TEXT
  5
5D
100
AcDbEntity
  8
DEFAULT
370
         0
390
0
  6
CONTINUOUS
 62
         7
100
AcDbText
 10
170.9627369349
 20
24.4443985507
 30
0.0
 40
3.5
  1
1:1
  7
seiso_ttfB
 11
170.9627369349
 21
27.9443985507
 31
0.0
100
AcDbText
 73
         3
  0
TEXT
  5
5E
100
AcDbEntity
  8
DEFAULT
370
         0
390
0
  6
CONTINUOUS
 62
         7
100
AcDbText
 10
102.1482426207
 20
15.087247823
 30
0.0
 40
4.5
  1
Skilt for
  7
seiso_ttfB
 11
102.1482426207
 21
19.587247823
 31
0.0
100
AcDbText
 73
         3
  0
TEXT
  5
5F
100
AcDbEntity
  8
DEFAULT
370
         0
390
0
  6
CONTINUOUS
 62
         7
100
AcDbText
 10
91.7164244389
 20
7.7236114594
 30
0.0
 40
4.5
  1
 DK-TECHNOLOGIES
  7
seiso_ttfB
 11
91.7164244389
 21
12.2236114594
 31
0.0
100
AcDbText
 73
         3
  0
TEXT
  5
60
100
AcDbEntity
  8
DEFAULT
370
         0
390
0
  6
CONTINUOUS
 62
         7
100
AcDbText
 10
148.1607159008
 20
11.2474300032
 30
0.0
 40
5.0
  1
A
  7
seiso_ttfB
 11
148.1607159008
 21
16.2474300032
 31
0.0
100
AcDbText
 73
         3
  0
TEXT
  5
61
100
AcDbEntity
  8
DEFAULT
370
         0
390
0
  6
CONTINUOUS
 62
         7
100
AcDbText
 10
73.8434266763
 20
127.4048042556
 30
0.0
 40
3.5
  1
Tekstfont:
  7
arial_ttfB
 11
73.8434266763
 21
130.9048042556
 31
0.0
100
AcDbText
 73
         3
  0
TEXT
  5
62
100
AcDbEntity
  8
DEFAULT
370
         0
390
0
  6
CONTINUOUS
 62
         7
100
AcDbText
 10
73.8434266763
 20
121.8048042556
 30
0.0
 40
3.5
  1
Teksthøjde:
  7
arial_ttfB
 11
73.8434266763
 21
125.3048042556
 31
0.0
100
AcDbText
 73
         3
  0
TEXT
  5
64
100
AcDbEntity
  8
DEFAULT
370
         0
390
0
  6
CONTINUOUS
 62
         7
100
AcDbText
 10
78.9720740884
 20
66.7829677844
 30
0.0
 40
3.5
  1
Farve på tekst: hvid
  7
arial_ttf
 11
78.9720740884
 21
70.2829677844
 31
0.0
100
AcDbText
 73
         3
  0
INSERT
  5
68
102
{ACAD_XDICTIONARY
360
69
102
}
100
AcDbEntity
  8
DEFAULT
370
         0
390
0
 62
         0
 48
0.0
100
AcDbBlockReference
  2
SE1
 10
0.0
 20
0.0
 30
0.0
  0
INSERT
  5
6C
100
AcDbEntity
  8
DEFAULT
370
         0
390
0
 62
         0
 48
0.0
100
AcDbBlockReference
  2
SE0
 10
0.0
 20
0.0
 30
0.0
  0
INSERT
  5
70
100
AcDbEntity
  8
DEFAULT
370
         0
390
0
 62
         0
 48
0.0
100
AcDbBlockReference
  2
SE2
 10
0.0
 20
0.0
 30
0.0
  0
INSERT
  5
74
100
AcDbEntity
  8
DEFAULT
370
         0
390
0
 62
         0
 48
0.0
100
AcDbBlockReference
  2
SE3
 10
0.0
 20
0.0
 30
0.0
  0
INSERT
  5
77
100
AcDbEntity
  8
DEFAULT
370
         0
390
0
 62
         0
 48
0.0
100
AcDbBlockReference
  2
SE4
 10
0.0
 20
0.0
 30
0.0
  0
LINE
  5
78
100
AcDbEntity
  8
0
370
         0
390
0
  6
CONTINUOUS
 62
         7
100
AcDbLine
 10
23.0128326427
 20
6.9865635634
 30
0.0
 11
202.6128326427
 21
6.9865635634
 31
0.0
  0
LINE
  5
79
100
AcDbEntity
  8
0
370
         0
390
0
  6
CONTINUOUS
 62
         7
100
AcDbLine
 10
202.6128326427
 20
290.4865635634
 30
0.0
 11
23.0128326427
 21
290.4865635634
 31
0.0
  0
LINE
  5
7A
100
AcDbEntity
  8
0
370
         0
390
0
  6
CONTINUOUS
 62
         7
100
AcDbLine
 10
23.0128326427
 20
290.4865635634
 30
0.0
 11
23.0128326427
 21
6.9865635634
 31
0.0
  0
LINE
  5
7B
100
AcDbEntity
  8
0
370
         0
390
0
  6
CONTINUOUS
 62
         7
100
AcDbLine
 10
202.6128326427
 20
20.7505635634
 30
0.0
 11
76.6128326427
 21
20.7505635634
 31
0.0
  0
LINE
  5
7C
100
AcDbEntity
  8
0
370
         0
390
0
  6
CONTINUOUS
 62
         7
100
AcDbLine
 10
76.6128326427
 20
6.9865635634
 30
0.0
 11
76.6128326427
 21
64.6505635634
 31
0.0
  0
LINE
  5
7D
100
AcDbEntity
  8
0
370
         0
390
0
  6
CONTINUOUS
 62
         7
100
AcDbLine
 10
76.6128326427
 20
64.6505635634
 30
0.0
 11
202.6128326427
 21
64.6505635634
 31
0.0
  0
LINE
  5
7E
100
AcDbEntity
  8
0
370
         0
390
0
  6
CONTINUOUS
 62
         7
100
AcDbLine
 10
76.6128326427
 20
6.9865635634
 30
0.0
 11
76.6128326427
 21
32.7505635634
 31
0.0
  0
LINE
  5
7F
100
AcDbEntity
  8
0
370
         0
390
0
  6
CONTINUOUS
 62
         7
100
AcDbLine
 10
76.6128326427
 20
32.7505635634
 30
0.0
 11
202.6128326427
 21
32.7505635634
 31
0.0
  0
LINE
  5
80
100
AcDbEntity
  8
0
370
         0
390
0
  6
CONTINUOUS
 62
         7
100
AcDbLine
 10
182.6128326427
 20
20.7505635634
 30
0.0
 11
182.6128326427
 21
32.7505635634
 31
0.0
  0
LINE
  5
81
100
AcDbEntity
  8
0
370
         0
390
0
  6
CONTINUOUS
 62
         7
100
AcDbLine
 10
163.1128326427
 20
20.7505635634
 30
0.0
 11
163.1128326427
 21
32.7505635634
 31
0.0
  0
LINE
  5
82
100
AcDbEntity
  8
0
370
         0
390
0
  6
CONTINUOUS
 62
         7
100
AcDbLine
 10
143.6128326427
 20
20.7505635634
 30
0.0
 11
143.6128326427
 21
32.7505635634
 31
0.0
  0
LINE
  5
83
100
AcDbEntity
  8
0
370
         0
390
0
  6
CONTINUOUS
 62
         7
100
AcDbLine
 10
123.6128326427
 20
20.7505635634
 30
0.0
 11
123.6128326427
 21
32.7505635634
 31
0.0
  0
LINE
  5
84
100
AcDbEntity
  8
0
370
         0
390
0
  6
CONTINUOUS
 62
         7
100
AcDbLine
 10
76.6128326427
 20
24.3405635634
 30
0.0
 11
123.6128326427
 21
24.3405635634
 31
0.0
  0
LINE
  5
85
100
AcDbEntity
  8
0
370
         0
390
0
  6
CONTINUOUS
 62
         7
100
AcDbLine
 10
76.6128326427
 20
6.9865635634
 30
0.0
 11
76.6128326427
 21
28.5505635634
 31
0.0
  0
LINE
  5
86
100
AcDbEntity
  8
0
370
         0
390
0
  6
CONTINUOUS
 62
         7
100
AcDbLine
 10
76.6128326427
 20
28.5505635634
 30
0.0
 11
123.6128326427
 21
28.5505635634
 31
0.0
  0
LINE
  5
87
100
AcDbEntity
  8
0
370
         0
390
0
  6
CONTINUOUS
 62
         7
100
AcDbLine
 10
86.9823361624
 20
20.7505635634
 30
0.0
 11
86.9823361624
 21
32.7505635634
 31
0.0
  0
LINE
  5
88
100
AcDbEntity
  8
0
370
         0
390
0
  6
CONTINUOUS
 62
         7
100
AcDbLine
 10
156.6128326427
 20
6.9865635634
 30
0.0
 11
156.6128326427
 21
20.7505635634
 31
0.0
  0
LINE
  5
89
100
AcDbEntity
  8
0
370
         0
390
0
  6
CONTINUOUS
 62
         7
100
AcDbLine
 10
143.6128326427
 20
6.9865635634
 30
0.0
 11
143.6128326427
 21
20.7505635634
 31
0.0
  0
LINE
  5
8A
100
AcDbEntity
  8
0
370
         0
390
0
  6
CONTINUOUS
 62
         7
100
AcDbLine
 10
76.6128326427
 20
39.0505635634
 30
0.0
 11
202.6128326427
 21
39.0505635634
 31
0.0
  0
LINE
  5
8B
100
AcDbEntity
  8
0
370
         0
390
0
  6
CONTINUOUS
 62
         7
100
AcDbLine
 10
76.6128326427
 20
45.4505635634
 30
0.0
 11
202.6128326427
 21
45.4505635634
 31
0.0
  0
LINE
  5
8C
100
AcDbEntity
  8
0
370
         0
390
0
  6
CONTINUOUS
 62
         7
100
AcDbLine
 10
76.6128326427
 20
51.8505635634
 30
0.0
 11
202.6128326427
 21
51.8505635634
 31
0.0
  0
LINE
  5
8D
100
AcDbEntity
  8
0
370
         0
390
0
  6
CONTINUOUS
 62
         7
100
AcDbLine
 10
76.6128326427
 20
6.9865635634
 30
0.0
 11
76.6128326427
 21
58.2505635634
 31
0.0
  0
LINE
  5
8E
100
AcDbEntity
  8
0
370
         0
390
0
  6
CONTINUOUS
 62
         7
100
AcDbLine
 10
76.6128326427
 20
58.2505635634
 30
0.0
 11
202.6128326427
 21
58.2505635634
 31
0.0
  0
LINE
  5
8F
100
AcDbEntity
  8
0
370
         0
390
0
  6
CONTINUOUS
 62
         7
100
AcDbLine
 10
23.0128326427
 20
6.9865635634
 30
0.0
 11
8.0128326427
 21
6.9865635634
 31
0.0
  0
LINE
  5
90
100
AcDbEntity
  8
0
370
         0
390
0
  6
CONTINUOUS
 62
         7
100
AcDbLine
 10
23.0128326427
 20
19.7865635634
 30
0.0
 11
8.0128326427
 21
19.7865635634
 31
0.0
  0
LINE
  5
91
100
AcDbEntity
  8
0
370
         0
390
0
  6
CONTINUOUS
 62
         7
100
AcDbLine
 10
23.0128326427
 20
26.1865635634
 30
0.0
 11
8.0128326427
 21
26.1865635634
 31
0.0
  0
LINE
  5
92
100
AcDbEntity
  8
0
370
         0
390
0
  6
CONTINUOUS
 62
         7
100
AcDbLine
 10
23.0128326427
 20
32.5865635634
 30
0.0
 11
8.0128326427
 21
32.5865635634
 31
0.0
  0
LINE
  5
93
100
AcDbEntity
  8
0
370
         0
390
0
  6
CONTINUOUS
 62
         7
100
AcDbLine
 10
23.0128326427
 20
38.9865635634
 30
0.0
 11
8.0128326427
 21
38.9865635634
 31
0.0
  0
LINE
  5
94
100
AcDbEntity
  8
0
370
         0
390
0
  6
CONTINUOUS
 62
         7
100
AcDbLine
 10
8.0128326427
 20
45.3865635634
 30
0.0
 11
23.0128326427
 21
45.3865635634
 31
0.0
  0
LINE
  5
95
100
AcDbEntity
  8
0
370
         0
390
0
  6
CONTINUOUS
 62
         7
100
AcDbLine
 10
23.0128326427
 20
45.3865635634
 30
0.0
 11
23.0128326427
 21
51.7865635634
 31
0.0
  0
LINE
  5
96
100
AcDbEntity
  8
0
370
         0
390
0
  6
CONTINUOUS
 62
         7
100
AcDbLine
 10
23.0128326427
 20
51.7865635634
 30
0.0
 11
8.0128326427
 21
51.7865635634
 31
0.0
  0
LINE
  5
97
100
AcDbEntity
  8
0
370
         0
390
0
  6
CONTINUOUS
 62
         7
100
AcDbLine
 10
8.0128326427
 20
58.1865635634
 30
0.0
 11
23.0128326427
 21
58.1865635634
 31
0.0
  0
LINE
  5
98
100
AcDbEntity
  8
0
370
         0
390
0
  6
CONTINUOUS
 62
         7
100
AcDbLine
 10
23.0128326427
 20
64.5865635634
 30
0.0
 11
8.0128326427
 21
64.5865635634
 31
0.0
  0
LINE
  5
99
100
AcDbEntity
  8
0
370
         0
390
0
  6
CONTINUOUS
 62
         7
100
AcDbLine
 10
202.6128326427
 20
290.4865635634
 30
0.0
 11
202.6128326427
 21
6.9865635634
 31
0.0
  0
LINE
  5
9A
100
AcDbEntity
  8
0
370
         0
390
0
  6
CONTINUOUS
 62
         7
100
AcDbLine
 10
23.0128326427
 20
19.7865635634
 30
0.0
 11
23.0128326427
 21
13.3865635634
 31
0.0
  0
LINE
  5
9B
100
AcDbEntity
  8
0
370
         0
390
0
  6
CONTINUOUS
 62
         7
100
AcDbLine
 10
23.0128326427
 20
13.3865635634
 30
0.0
 11
8.0128326427
 21
13.3865635634
 31
0.0
  0
LINE
  5
9C
100
AcDbEntity
  8
0
370
         0
390
0
  6
CONTINUOUS
 62
         7
100
AcDbLine
 10
18.0128326427
 20
148.7365635634
 30
0.0
 11
3.0128326427
 21
148.7365635634
 31
0.0
  0
TEXT
  5
9D
100
AcDbEntity
  8
DEFAULT
370
         0
390
0
  6
CONTINUOUS
 62
         7
100
AcDbText
 10
77.4180346025
 20
61.8086446749
 30
0.0
 40
1.5
  1
Materiale
  7
arial_ttfB
 11
77.4180346025
 21
63.3086446749
 31
0.0
100
AcDbText
 73
         3
  0
TEXT
  5
9E
100
AcDbEntity
  8
DEFAULT
370
         0
390
0
  6
CONTINUOUS
 62
         7
100
AcDbText
 10
77.3466654554
 20
48.7533978628
 30
0.0
 40
1.5
  1
Overfladebehandling
  7
arial_ttfB
 11
77.3466654554
 21
50.2533978628
 31
0.0
100
AcDbText
 73
         3
  0
TEXT
  5
9F
100
AcDbEntity
  8
DEFAULT
370
         0
390
0
  6
CONTINUOUS
 62
         7
100
AcDbText
 10
77.4180346025
 20
42.4135701301
 30
0.0
 40
1.5
  1
Frimålstolerance
  7
arial_ttfB
 11
77.4180346025
 21
43.9135701301
 31
0.0
100
AcDbText
 73
         3
  0
TEXT
  5
A0
100
AcDbEntity
  8
DEFAULT
370
         0
390
0
  6
CONTINUOUS
 62
         7
100
AcDbText
 10
124.1267897964
 20
30.1314702437
 30
0.0
 40
1.5
  1
Tegningsformat
  7
arial_ttfB
 11
124.1267897964
 21
31.6314702437
 31
0.0
100
AcDbText
 73
         3
  0
TEXT
  5
A1
100
AcDbEntity
  8
DEFAULT
370
         0
390
0
  6
CONTINUOUS
 62
         7
100
AcDbText
 10
144.4061776435
 20
30.3779850358
 30
0.0
 40
1.5
  1
Erstatter
  7
seiso_ttfB
 11
144.4061776435
 21
31.8779850358
 31
0.0
100
AcDbText
 73
         3
  0
TEXT
  5
A2
100
AcDbEntity
  8
DEFAULT
370
         0
390
0
  6
CONTINUOUS
 62
         7
100
AcDbText
 10
163.9666802597
 20
29.9434401204
 30
0.0
 40
1.5
  1
Målforhold
  7
seiso_ttfB
 11
163.9666802597
 21
31.4434401204
 31
0.0
100
AcDbText
 73
         3
  0
TEXT
  5
A3
100
AcDbEntity
  8
DEFAULT
370
         0
390
0
  6
CONTINUOUS
 62
         7
100
AcDbText
 10
157.4277339428
 20
18.2908928779
 30
0.0
 40
1.5
  1
Del nr.
  7
seiso_ttfB
 11
157.4277339428
 21
19.7908928779
 31
0.0
100
AcDbText
 73
         3
  0
TEXT
  5
A4
100
AcDbEntity
  8
DEFAULT
370
         0
390
0
  6
CONTINUOUS
 62
         7
100
AcDbText
 10
144.2602373326
 20
18.3144891551
 30
0.0
 40
1.5
  1
Udgave
  7
seiso_ttfB
 11
144.2602373326
 21
19.8144891551
 31
0.0
100
AcDbText
 73
         3
  0
TEXT
  5
A5
100
AcDbEntity
  8
DEFAULT
370
         0
390
0
  6
CONTINUOUS
 62
         7
100
AcDbText
 10
77.3106365544
 20
18.2863018262
 30
0.0
 40
1.5
  1
Benævnelse
  7
arial_ttfB
 11
77.3106365544
 21
19.7863018262
 31
0.0
100
AcDbText
 73
         3
  0
TEXT
  5
A6
100
AcDbEntity
  8
DEFAULT
370
         0
390
0
  6
CONTINUOUS
 62
         7
100
AcDbText
 10
77.4739245721
 20
29.8647301742
 30
0.0
 40
1.5
  1
Konstr.
  7
arial_ttfB
 11
77.4739245721
 21
31.3647301742
 31
0.0
100
AcDbText
 73
         3
  0
TEXT
  5
A7
100
AcDbEntity
  8
DEFAULT
370
         0
390
0
  6
CONTINUOUS
 62
         7
100
AcDbText
 10
77.4739245721
 20
26.1535345219
 30
0.0
 40
1.5
  1
Udf. af
  7
arial_ttfB
 11
77.4739245721
 21
27.6535345219
 31
0.0
100
AcDbText
 73
         3
  0
TEXT
  5
A8
100
AcDbEntity
  8
DEFAULT
370
         0
390
0
  6
CONTINUOUS
 62
         7
100
AcDbText
 10
128.2783595764
 20
23.0384828492
 30
0.0
 40
5.0
  1
A4
  7
arial_ttfB
 11
128.2783595764
 21
28.0384828492
 31
0.0
100
AcDbText
 73
         3
  0
LINE
  5
A9
100
AcDbEntity
  8
DEFAULT
370
         0
390
0
  6
CONTINUOUS
 62
         7
100
AcDbLine
 10
105.2640765964
 20
20.7505635634
 30
0.0
 11
105.2640765964
 21
32.7290113442
 31
0.0
  0
TEXT
  5
AB
100
AcDbEntity
  8
DEFAULT
370
         0
390
0
  6
CONTINUOUS
 62
         7
100
AcDbText
 10
184.0574101727
 20
25.2291005274
 30
0.0
 40
3.5
  1
IVI-tek
  7
times_ttfBI
 11
184.0574101727
 21
28.7291005274
 31
0.0
100
AcDbText
 73
         3
  0
OLE2FRAME
  5
AD
100
AcDbEntity
  8
0
390
0
 48
0.0
100
AcDbOle2Frame
 70
         2
 10
9.8878038938
 20
12.5553542713
 30
0.0
 11
21.5506222523
 21
7.415807198
 31
0.0
 71
         2
 72
         0
 73
         1
 90
    17536
310
8055362F623B8EC623401A7C2165571C29400000000000000000E2F97594F58C
310
35401A7C2165571C29400000000000000000E2F97594F58C354028DAB35CC9A9
310
1D400000000000000000362F623B8EC6234028DAB35CC9A91D40000000000000
310
0000C90AC1040100000000010000010000000100000000000100000000440000
310
D0CF11E0A1B11AE1000000000000000000000000000000003E000300FEFF0900
310
0600000000000000000000000100000002000000000000000010000007000000
310
02000000FEFFFFFF0000000003000000FFFFFFFFFFFFFFFFFFFFFFFFFFFFFFFF
310
FFFFFFFFFFFFFFFFFFFFFFFFFFFFFFFFFFFFFFFFFFFFFFFFFFFFFFFFFFFFFFFF
310
FFFFFFFFFFFFFFFFFFFFFFFFFFFFFFFFFFFFFFFFFFFFFFFFFFFFFFFFFFFFFFFF
310
FFFFFFFFFFFFFFFFFFFFFFFFFFFFFFFFFFFFFFFFFFFFFFFFFFFFFFFFFFFFFFFF
310
FFFFFFFFFFFFFFFFFFFFFFFFFFFFFFFFFFFFFFFFFFFFFFFFFFFFFFFFFFFFFFFF
310
FFFFFFFFFFFFFFFFFFFFFFFFFFFFFFFFFFFFFFFFFFFFFFFFFFFFFFFFFFFFFFFF
310
FFFFFFFFFFFFFFFFFFFFFFFFFFFFFFFFFFFFFFFFFFFFFFFFFFFFFFFFFFFFFFFF
310
FFFFFFFFFFFFFFFFFFFFFFFFFFFFFFFFFFFFFFFFFFFFFFFFFFFFFFFFFFFFFFFF
310
FFFFFFFFFFFFFFFFFFFFFFFFFFFFFFFFFFFFFFFFFFFFFFFFFFFFFFFFFFFFFFFF
310
FFFFFFFFFFFFFFFFFFFFFFFFFFFFFFFFFFFFFFFFFFFFFFFFFFFFFFFFFFFFFFFF
310
FFFFFFFFFFFFFFFFFFFFFFFFFFFFFFFFFFFFFFFFFFFFFFFFFFFFFFFFFFFFFFFF
310
FFFFFFFFFFFFFFFFFFFFFFFFFFFFFFFFFFFFFFFFFFFFFFFFFFFFFFFFFFFFFFFF
310
FFFFFFFFFFFFFFFFFFFFFFFFFFFFFFFFFFFFFFFFFFFFFFFFFFFFFFFFFFFFFFFF
310
FFFFFFFFFFFFFFFFFFFFFFFFFFFFFFFFFFFFFFFFFFFFFFFFFFFFFFFFFFFFFFFF
310
FDFFFFFFFEFFFFFFFFFFFFFFFFFFFFFFFFFFFFFFFFFFFFFFFFFFFFFFFFFFFFFF
310
FFFFFFFFFFFFFFFFFFFFFFFFFFFFFFFFFFFFFFFFFFFFFFFFFFFFFFFFFFFFFFFF
310
FFFFFFFFFFFFFFFFFFFFFFFFFFFFFFFFFFFFFFFFFFFFFFFFFFFFFFFFFFFFFFFF
310
FFFFFFFFFFFFFFFFFFFFFFFFFFFFFFFFFFFFFFFFFFFFFFFFFFFFFFFFFFFFFFFF
310
FFFFFFFFFFFFFFFFFFFFFFFFFFFFFFFFFFFFFFFFFFFFFFFFFFFFFFFFFFFFFFFF
310
FFFFFFFFFFFFFFFFFFFFFFFFFFFFFFFFFFFFFFFFFFFFFFFFFFFFFFFFFFFFFFFF
310
FFFFFFFFFFFFFFFFFFFFFFFFFFFFFFFFFFFFFFFFFFFFFFFFFFFFFFFFFFFFFFFF
310
FFFFFFFFFFFFFFFFFFFFFFFFFFFFFFFFFFFFFFFFFFFFFFFFFFFFFFFFFFFFFFFF
310
FFFFFFFFFFFFFFFFFFFFFFFFFFFFFFFFFFFFFFFFFFFFFFFFFFFFFFFFFFFFFFFF
310
FFFFFFFFFFFFFFFFFFFFFFFFFFFFFFFFFFFFFFFFFFFFFFFFFFFFFFFFFFFFFFFF
310
FFFFFFFFFFFFFFFFFFFFFFFFFFFFFFFFFFFFFFFFFFFFFFFFFFFFFFFFFFFFFFFF
310
FFFFFFFFFFFFFFFFFFFFFFFFFFFFFFFFFFFFFFFFFFFFFFFFFFFFFFFFFFFFFFFF
310
FFFFFFFFFFFFFFFFFFFFFFFFFFFFFFFFFFFFFFFFFFFFFFFFFFFFFFFFFFFFFFFF
310
FFFFFFFFFFFFFFFFFFFFFFFFFFFFFFFFFFFFFFFFFFFFFFFFFFFFFFFFFFFFFFFF
310
FFFFFFFFFFFFFFFFFFFFFFFFFFFFFFFFFFFFFFFFFFFFFFFFFFFFFFFFFFFFFFFF
310
FFFFFFFFFFFFFFFFFFFFFFFFFFFFFFFFFFFFFFFFFFFFFFFFFFFFFFFFFFFFFFFF
310
52006F006F007400200045006E00740072007900000000000000000000000000
310
0000000000000000000000000000000000000000000000000000000000000000
310
16000500FFFFFFFFFFFFFFFFFFFFFFFF00000000000000000000000000000000
310
0000000000000000000000000000000000000000FEFFFFFF0000000000000000
310
0000000000000000000000000000000000000000000000000000000000000000
310
0000000000000000000000000000000000000000000000000000000000000000
310
00000000FFFFFFFFFFFFFFFFFFFFFFFF00000000000000000000000000000000
310
0000000000000000000000000000000000000000000000000000000000000000
310
0000000000000000000000000000000000000000000000000000000000000000
310
0000000000000000000000000000000000000000000000000000000000000000
310
00000000FFFFFFFFFFFFFFFFFFFFFFFF00000000000000000000000000000000
310
0000000000000000000000000000000000000000000000000000000000000000
310
0000000000000000000000000000000000000000000000000000000000000000
310
0000000000000000000000000000000000000000000000000000000000000000
310
00000000FFFFFFFFFFFFFFFFFFFFFFFF00000000000000000000000000000000
310
0000000000000000000000000000000000000000000000000000000000000000
310
52006F006F007400200045006E00740072007900000000000000000000000000
310
0000000000000000000000000000000000000000000000000000000000000000
310
16000500FFFFFFFFFFFFFFFF0400000060BEFF7EF544CE1183C508003601A74E
310
00000000000000000000000010839EFFFFE8C50108000000402D000000000000
310
01004F006C006500000000000000000000000000000000000000000000000000
310
0000000000000000000000000000000000000000000000000000000000000000
310
0A000201FFFFFFFFFFFFFFFFFFFFFFFF00000000000000000000000000000000
310
0000000000000000000000000000000000000000A80000001400000000000000
310
500053004D0072006F006F007400730000000000000000000000000000000000
310
0000000000000000000000000000000000000000000000000000000000000000
310
120002010100000003000000FFFFFFFF00000000000000000000000000000000
310
0000000000000000000000000000000000000000A70000002000000000000000
310
4A00530069007400650073004C00690073007400000000000000000000000000
310
0000000000000000000000000000000000000000000000000000000000000000
310
16000201FFFFFFFFFFFFFFFFFFFFFFFF00000000000000000000000000000000
310
0000000000000000000000000000000000000000A60000000800000000000000
310
FFFFFFFFFFFFFFFF04000000FDFFFFFF05000000060000001500000016000000
310
090000000A0000000B0000000C0000000D0000000E0000000F00000010000000
310
1100000012000000130000001400000017000000FEFFFFFFFEFFFFFF18000000
310
190000001A0000001B0000001C0000001D0000001E0000001F00000020000000
310
FEFFFFFFFFFFFFFFFFFFFFFFFFFFFFFFFFFFFFFFFFFFFFFFFFFFFFFFFFFFFFFF
310
FFFFFFFFFFFFFFFFFFFFFFFFFFFFFFFFFFFFFFFFFFFFFFFFFFFFFFFFFFFFFFFF
310
FFFFFFFFFFFFFFFFFFFFFFFFFFFFFFFFFFFFFFFFFFFFFFFFFFFFFFFFFFFFFFFF
310
FFFFFFFFFFFFFFFFFFFFFFFFFFFFFFFFFFFFFFFFFFFFFFFFFFFFFFFFFFFFFFFF
310
FFFFFFFFFFFFFFFFFFFFFFFFFFFFFFFFFFFFFFFFFFFFFFFFFFFFFFFFFFFFFFFF
310
FFFFFFFFFFFFFFFFFFFFFFFFFFFFFFFFFFFFFFFFFFFFFFFFFFFFFFFFFFFFFFFF
310
FFFFFFFFFFFFFFFFFFFFFFFFFFFFFFFFFFFFFFFFFFFFFFFFFFFFFFFFFFFFFFFF
310
FFFFFFFFFFFFFFFFFFFFFFFFFFFFFFFFFFFFFFFFFFFFFFFFFFFFFFFFFFFFFFFF
310
FFFFFFFFFFFFFFFFFFFFFFFFFFFFFFFFFFFFFFFFFFFFFFFFFFFFFFFFFFFFFFFF
310
FFFFFFFFFFFFFFFFFFFFFFFFFFFFFFFFFFFFFFFFFFFFFFFFFFFFFFFFFFFFFFFF
310
FFFFFFFFFFFFFFFFFFFFFFFFFFFFFFFFFFFFFFFFFFFFFFFFFFFFFFFFFFFFFFFF
310
FFFFFFFFFFFFFFFFFFFFFFFFFFFFFFFFFFFFFFFFFFFFFFFFFFFFFFFFFFFFFFFF
310
02004F006C006500500072006500730030003000300000000000000000000000
310
0000000000000000000000000000000000000000000000000000000000000000
310
180002010200000008000000FFFFFFFF00000000000000000000000000000000
310
00000000000000000000000000000000000000009C0000008002000000000000
310
44006F006300560065007200730069006F006E00320000000000000000000000
310
0000000000000000000000000000000000000000000000000000000000000000
310
18000201FFFFFFFFFFFFFFFFFFFFFFFF00000000000000000000000000000000
310
00000000000000000000000000000000000000009B0000000400000000000000
310
4A00500072006F00700065007200740069006500730000000000000000000000
310
0000000000000000000000000000000000000000000000000000000000000000
310
180002010500000007000000FFFFFFFF00000000000000000000000000000000
310
00000000000000000000000000000000000000009A0000000800000000000000
310
500053004D0063006C0075007300740065007200300000000000000000000000
310
0000000000000000000000000000000000000000000000000000000000000000
310
18000201FFFFFFFFFFFFFFFFFFFFFFFF00000000000000000000000000000000
310
0000000000000000000000000000000000000000670000009A0C000000000000
310
500053004D00730070006100630065006D006100700000000000000000000000
310
0000000000000000000000000000000000000000000000000000000000000000
310
18000100060000000A0000001000000000000000000000000000000000000000
310
0000000010839EFFFFE8C50110839EFFFFE8C501000000000000000000000000
310
500053004D0074007900700065007400610062006C0065000000000000000000
310
0000000000000000000000000000000000000000000000000000000000000000
310
1A000201FFFFFFFFFFFFFFFFFFFFFFFF00000000000000000000000000000000
310
0000000000000000000000000000000000000000540000009604000000000000
310
500053004D0063006C00750073007400650072007400610062006C0065000000
310
0000000000000000000000000000000000000000000000000000000000000000
310
20000201090000000C000000FFFFFFFF00000000000000000000000000000000
310
0000000000000000000000000000000000000000530000003300000000000000
310
500053004D007300650067006D0065006E0074007400610062006C0065000000
310
0000000000000000000000000000000000000000000000000000000000000000
310
20000201FFFFFFFFFFFFFFFFFFFFFFFF00000000000000000000000000000000
310
0000000000000000000000000000000000000000520000000C00000000000000
310
0500530075006D006D0061007200790049006E0066006F0072006D0061007400
310
69006F006E000000000000000000000000000000000000000000000000000000
310
280002000B0000000E000000FFFFFFFF00000000000000000000000000000000
310
00000000000000000000000000000000000000004A000000D401000000000000
310
0500430033007400650061006700780077004F00740074006400620066006B00
310
75004900610061006D0074006100650033004900650000000000000000000000
310
38000200FFFFFFFFFFFFFFFFFFFFFFFF00000000000000000000000000000000
310
00000000000000000000000000000000000000000A000000EC0F000000000000
310
050044006F00630075006D0065006E007400530075006D006D00610072007900
310
49006E0066006F0072006D006100740069006F006E0000000000000000000000
310
380002010D0000000F000000FFFFFFFF00000000000000000000000000000000
310
0000000000000000000000000000000000000000050000000801000000000000
310
05005200660075006E006E007900640031004100760074006400620066006B00
310
75004900610061006D0074006100650033004900650000000000000000000000
310
38000200FFFFFFFFFFFFFFFFFFFFFFFF00000000000000000000000000000000
310
0000000000000000000000000000000000000000000000002801000000000000
310
01000000020000000300000004000000FEFFFFFF060000000700000008000000
310
09000000FEFFFFFF0B0000000C0000000D0000000E0000000F00000010000000
310
1100000012000000130000001400000015000000160000001700000018000000
310
190000001A0000001B0000001C0000001D0000001E0000001F00000020000000
310
2100000022000000230000002400000025000000260000002700000028000000
310
290000002A0000002B0000002C0000002D0000002E0000002F00000030000000
310
3100000032000000330000003400000035000000360000003700000038000000
310
390000003A0000003B0000003C0000003D0000003E0000003F00000040000000
310
4100000042000000430000004400000045000000460000004700000048000000
310
49000000FEFFFFFF4B0000004C0000004D0000004E0000004F00000050000000
310
51000000FEFFFFFFFEFFFFFFFEFFFFFF55000000560000005700000058000000
310
590000005A0000005B0000005C0000005D0000005E0000005F00000060000000
310
610000006200000063000000640000006500000066000000FEFFFFFF68000000
310
690000006A0000006B0000006C0000006D0000006E0000006F00000070000000
310
7100000072000000730000007400000075000000760000007700000078000000
310
790000007A0000007B0000007C0000007D0000007E0000007F00000080000000
310
FEFF0000033321040000000000000000000000000000000001000000B1D0D6F0
310
D8A0CE118AA208003601E98830000000F8000000050000000000000030000000
310
01000000CC00000002000000D400000003000000E000000004000000EC000000
310
040000000000000026000000500072006F006A0065006300740049006E006600
310
6F0072006D006100740069006F006E0000000000020000002000000044006F00
310
630075006D0065006E00740020004E0075006D00620065007200000003000000
310
120000005200650076006900730069006F006E0000000000040000001A000000
310
500072006F006A0065006300740020004E0061006D0065000000000002000000
310
B00400001F00000001000000000000001F00000001000000000000001F000000
310
0100000000000000000000000000000000000000000000000000000000000000
310
FEFF000003332104000000000000000000000000000000000100000002D5CDD5
310
9C2E1B10939708002B2CF9AE30000000D80000000C0000000100000068000000
310
0200000070000000030000007C00000004000000880000000500000090000000
310
060000009800000007000000A000000008000000A800000009000000B0000000
310
0A000000B80000000E000000C00000000F000000CC00000002000000E4040000
310
1E00000001000000000000001E00000001000000000000000300000000000000
310
0300000000000000030000000000000003000000000000000300000000000000
310
030000000000000003000000000000001E00000001000000000000001E000000
310
0100000000000000000000000000000000000000000000000000000000000000
310
0000000000000000000000000000000000000000000000000000000000000000
310
FEFF0000040002000000000000000000000000000000000001000000A24F02CC
310
B56ECE118AA208003601E98830000000BC0F0000090000000000000050000000
310
0100000088010000020000009001000006000000DC01000007000000F0010000
310
08000000F801000009000000040200000A0000000C0200000B000000C00A0000
310
08000000000000003600000045007800740065006E0064006500640053007500
310
6D006D0061007200790049006E0066006F0072006D006100740069006F006E00
310
0000000002000000360000004E0061006D00650020006F006600200053006100
310
760069006E00670020004100700070006C00690063006100740069006F006E00
310
00000000060000001600000044006F00630075006D0065006E00740049004400
310
00000000070000000E0000005300740061007400750073000000000008000000
310
1200000055007300650072006E0061006D00650000000000090000001E000000
310
4300720065006100740069006F006E004C006F00630061006C00650000000000
310
0A000000140000004C006100720067006500200044004900420000000B000000
310
1400000053006D0061006C006C002000440049004200000002000000B0040000
310
1F0000002100000049006D006100670069006E006100740069006F006E002000
310
45006E00670069006E0065006500720020004100700070006C00690063006100
310
740069006F006E00000000004800000000000000000000000000000000000000
310
03000000000000001F0000000100000000000000030000000904000047000000
310
AC080000FFFFFFFF28000000F3000000B2000000010008000100000080040000
310
0000000000000000000000000000000000000000000080000080000000808000
310
800000008000800080800000C0C0C000C0DCC000F0CAA6000020400000206000
310
002080000020A0000020C0000020E00000400000004020000040400000406000
310
004080000040A0000040C0000040E00000600000006020000060400000606000
310
006080000060A0000060C0000060E00000800000008020000080400000806000
310
008080000080A0000080C0000080E00000A0000000A0200000A0400000A06000
310
00A0800000A0A00000A0C00000A0E00000C0000000C0200000C0400000C06000
310
00C0800000C0A00000C0C00000C0E00000E0000000E0200000E0400000E06000
310
00E0800000E0A00000E0C00000E0E00040000000400020004000400040006000
310
400080004000A0004000C0004000E00040200000402020004020400040206000
310
402080004020A0004020C0004020E00040400000404020004040400040406000
310
404080004040A0004040C0004040E00040600000406020004060400040606000
310
406080004060A0004060C0004060E00040800000408020004080400040806000
310
408080004080A0004080C0004080E00040A0000040A0200040A0400040A06000
310
40A0800040A0A00040A0C00040A0E00040C0000040C0200040C0400040C06000
310
40C0800040C0A00040C0C00040C0E00040E0000040E0200040E0400040E06000
310
40E0800040E0A00040E0C00040E0E00080000000800020008000400080006000
310
800080008000A0008000C0008000E00080200000802020008020400080206000
310
802080008020A0008020C0008020E00080400000804020008040400080406000
310
804080008040A0008040C0008040E00080600000806020008060400080606000
310
806080008060A0008060C0008060E00080800000808020008080400080806000
310
808080008080A0008080C0008080E00080A0000080A0200080A0400080A06000
310
80A0800080A0A00080A0C00080A0E00080C0000080C0200080C0400080C06000
310
80C0800080C0A00080C0C00080C0E00080E0000080E0200080E0400080E06000
310
80E0800080E0A00080E0C00080E0E000C0000000C0002000C0004000C0006000
310
C0008000C000A000C000C000C000E000C0200000C0202000C0204000C0206000
310
C0208000C020A000C020C000C020E000C0400000C0402000C0404000C0406000
310
C0408000C040A000C040C000C040E000C0600000C0602000C0604000C0606000
310
C0608000C060A000C060C000C060E000C0800000C0802000C0804000C0806000
310
C0808000C080A000C080C000C080E000C0A00000C0A02000C0A04000C0A06000
310
C0A08000C0A0A000C0A0C000C0A0E000C0C00000C0C02000C0C04000C0C06000
310
C0C08000C0C0A000F0FBFF00A4A0A000808080000000FF0000FF000000FFFF00
310
FF000000FF00FF00FFFF0000FFFFFF00F3FF0000F3FF0000F3FF0000F3FF0000
310
F3FF0000F3FF0000F3FF0000F3FF0000F3FF0000F3FF0000F3FF0000F3FF0000
310
F3FF0000F3FF0000F3FF0000F3FF0000F3FF0000F3FF0000F3FF0000F3FF0000
310
F3FF0000F3FF0000F3FF0000F3FF0000F3FF0000F3FF0000F3FF0000F3FF0000
310
F3FF0000F3FF0000F3FF0000F3FF0000F3FF0000F3FF0000F3FF0000F3FF0000
310
F3FF0000F3FF0000F3FF0000F3FF0000F3FF0000F3FF0000F3FF0000F3FF0000
310
F3FF0000F3FF0000F3FF0000F3FF0000F3FF0000F3FF0000F3FF0000F3FF0000
310
F3FF0000F3FF0000F3FF0000F3FF0000F3FF0000F3FF0000F3FF0000F3FF0000
310
0EFF020001FF02000003FF00FF00040001FF010063FF030002FF02000EFF0300
310
02FF030057FF00000EFF020001FF040001FF040001FF010063FF040001FF0200
310
0EFF030002FF020058FF000014FF01006FFF01006EFF0000F3FF0000F3FF0000
310
F3FF0000C6FF150018FF0000F3FF000068FF010003FF040083FF000068FF0200
310
01FF010004FF010082FF000069FF030004FF01005EFF020022FF000069FF0003
310
00FF000003FF02005DFF06001FFF000069FF000300FF000002FF01005DFF0800
310
1FFF00000FFF03000004FF00FF0053FF020004FF01005BFF010001FF06000003
310
FF00FF00040019FF00000FFF030002FF020054FF010004FF010056FF10001DFF
310
00006AFF010004FF010057FF0F001DFF00006AFF010002FF02005CFF030001FF
310
020001FF03001EFF0000CAFF110018FF0000CBFF010001FF07001FFF0000CCFF
310
08001FFF00000FFF020001FF020001FF020048FF010001FF040001FF080002FF
310
01000EFF030001FF010002FF040016FF020002FF050001FF030021FF050020FF
310
00000FFF020001FF050047FF070001FF080001FF03000DFF0B0016FF030001FF
310
050001FF030046FF0000F3FF0000F3FF0000F3FF0000F3FF0000F3FF0000F3FF
310
0000F3FF0000F3FF0000F3FF0000F3FF0000F3FF0000F3FF0000F3FF0000F3FF
310
0000F3FF0000F3FF0000F3FF0000F3FF0000F3FF00000FFF060001FF020001FF
310
040002FF010001FF0200D0FF00000FFF060001FF070001FF020001FF0200D0FF
310
0000F3FF0000F3FF0000F3FF0000F3FF0000F3FF0000F3FF0000F3FF0000F3FF
310
0000F3FF00000FFF020001FF040002FF020001FF030002FF0600CDFF00000FFF
310
020001FF050001FF020001FF040001FF0600CDFF000010FF0100E2FF0000F3FF
310
0000F3FF0000F3FF0000F3FF0000F3FF0000F3FF0000F3FF0000F3FF0000F3FF
310
0000F3FF0000F3FF0000F3FF0000F3FF0000F3FF0000F3FF0000F3FF0000F3FF
310
0000F3FF0000F3FF00000FFF020002FF010001FF020001FF0300D8FF00000FFF
310
0B00D9FF0000F3FF0000F3FF0000F3FF0000F3FF0000F3FF0000F3FF0000F3FF
310
0000F3FF0000F3FF0000F3FF0000F3FF0000F3FF0000F3FF0000F3FF0000F3FF
310
0000F3FF0000F3FF0000F3FF0000F3FF0000F3FF0000F3FF0000F3FF0000F3FF
310
0000F3FF0000F3FF0000F3FF0000F3FF0000F3FF0000F3FF0000F3FF0000F3FF
310
0000F3FF0000F3FF0000F3FF0000F3FF0000F3FF0000F3FF0000F3FF0000F3FF
310
0000F3FF0000F3FF0000F3FF0000000147000000F2040000FFFFFFFF28000000
310
20000000200000000100080001000000C6000000000000000000000000000000
310
0000000000000000000080000080000000808000800000008000800080800000
310
C0C0C000C0DCC000F0CAA6000020400000206000002080000020A0000020C000
310
0020E00000400000004020000040400000406000004080000040A0000040C000
310
0040E00000600000006020000060400000606000006080000060A0000060C000
310
0060E00000800000008020000080400000806000008080000080A0000080C000
310
0080E00000A0000000A0200000A0400000A0600000A0800000A0A00000A0C000
310
00A0E00000C0000000C0200000C0400000C0600000C0800000C0A00000C0C000
310
00C0E00000E0000000E0200000E0400000E0600000E0800000E0A00000E0C000
310
00E0E00040000000400020004000400040006000400080004000A0004000C000
310
4000E00040200000402020004020400040206000402080004020A0004020C000
310
4020E00040400000404020004040400040406000404080004040A0004040C000
310
4040E00040600000406020004060400040606000406080004060A0004060C000
310
4060E00040800000408020004080400040806000408080004080A0004080C000
310
4080E00040A0000040A0200040A0400040A0600040A0800040A0A00040A0C000
310
40A0E00040C0000040C0200040C0400040C0600040C0800040C0A00040C0C000
310
40C0E00040E0000040E0200040E0400040E0600040E0800040E0A00040E0C000
310
40E0E00080000000800020008000400080006000800080008000A0008000C000
310
8000E00080200000802020008020400080206000802080008020A0008020C000
310
8020E00080400000804020008040400080406000804080008040A0008040C000
310
8040E00080600000806020008060400080606000806080008060A0008060C000
310
8060E00080800000808020008080400080806000808080008080A0008080C000
310
8080E00080A0000080A0200080A0400080A0600080A0800080A0A00080A0C000
310
80A0E00080C0000080C0200080C0400080C0600080C0800080C0A00080C0C000
310
80C0E00080E0000080E0200080E0400080E0600080E0800080E0A00080E0C000
310
80E0E000C0000000C0002000C0004000C0006000C0008000C000A000C000C000
310
C000E000C0200000C0202000C0204000C0206000C0208000C020A000C020C000
310
C020E000C0400000C0402000C0404000C0406000C0408000C040A000C040C000
310
C040E000C0600000C0602000C0604000C0606000C0608000C060A000C060C000
310
C060E000C0800000C0802000C0804000C0806000C0808000C080A000C080C000
310
C080E000C0A00000C0A02000C0A04000C0A06000C0A08000C0A0A000C0A0C000
310
C0A0E000C0C00000C0C02000C0C04000C0C06000C0C08000C0C0A000F0FBFF00
310
A4A0A000808080000000FF0000FF000000FFFF00FF000000FF00FF00FFFF0000
310
FFFFFF0006FF010019FF000006FF1A00000006FF1A00000020FF000020FF0000
310
20FF000020FF000020FF000020FF000020FF000020FF000002FF03000CFF0200
310
01FF02000AFF00000EFF02000AFF040002FF000002FF020016FF040002FF0000
310
02FF020008FF040001FF020002FF030003FF030002FF000020FF000020FF0000
310
02FF04001AFF000002FF04001AFF000020FF000020FF000002FF03001BFF0000
310
20FF000020FF000020FF000020FF000020FF000020FF000020FF000020FF0000
310
20FF000020FF0000000100000000000000000000000000000000000000000000
310
FEFF0000040002000000000000000000000000000000000001000000E0859FF2
310
F94F6810AB9108002B27B3D930000000A40100001300000001000000A0000000
310
02000000A800000003000000B400000004000000C000000005000000D0000000
310
06000000DC00000007000000E800000008000000FC000000090000000C010000
310
0A000000180100000B000000240100000C000000300100000D0000003C010000
310
0E000000480100000F0000005001000010000000580100001100000060010000
310
1200000070010000130000009C01000002000000E40400001E00000001000000
310
000000001E00000001000000000000001E000000050000004753383300000000
310
1E00000001000000000000001E00000001000000000000001E0000000B000000
310
6E6F726D616C2E49475200001E0000000500000047533833000000001E000000
310
0200000031000000400000000000000000000000400000000000000000000000
310
4000000000000000000000004000000010FD0442DB1CBC010300000000000000
310
030000000000000003000000000000004700000008000000FFFFFFFF08000000
310
1E00000021000000496D6167696E6174696F6E20456E67696E65657220417070
310
6C69636174696F6E000000000300000000000000000000000000000000000000
310
0000000000000000000000000000000000000000000000000000000000000000
310
7374616204000000010000000000000000000000000000000000000000000000
310
0000000000000000000000000000000000000000000000000000000000000000
310
636C73740100000010000000180000000100000100000000000000500053004D
310
0063006C00750073007400650072003000000000000000000000000000000000
310
65507954010000006B000F0000010F0007008000F066EAC5DF11CE118B570800
310
36181E02000000000100FFFF010000001D00494E475220446F63756D656E7420
310
53746F72616765204F626A656374000000A0090C7699C2CE119D6C08003601EB
310
680100000001000000010000000E004A4C61796572204F626A65637400000040
310
B42D662511CE11803B08003601BFAD020000000100FFFF010000002100494E47
310
5220446F63756D656E742057696E646F777320436F6C6C656374696F6E000000
310
E073473D8237CE11956A08003601DFE5030000000100FFFF010000000E004A53
310
68656574204F626A656374000000A0BD09A7E35ECE11BB2E08003601BDA90400
310
00000100FFFF0300000019004A534C2054657874205061726167726170682053
310
74796C65000000E0471D26235ECE11BB2E08003601BDA9050000000100FFFF03
310
00000019004A534C205465787420436861726163746572205374796C65000000
310
40B7A4650EBECE119D6C08003601EB68060000000100FFFF010000001A004A53
310
686565744C617965724D616E61676572204F626A656374000000D0205DFCD336
310
CE11956A08003601DFE5070000000100FFFF010000000F004A53686565747320
310
4F626A656374000000B04B8A0ECDDFCD119F2A08003601D493080000000100FF
310
FF010000002B004F4C452073756273797374656D207369746573206D616E6167
310
657220696D706C656D656E746174696F6E000000608C7A2395B8CE119D6C0800
310
3601EB68090000000100FFFF0100000015004A4C617965724D616E6167657220
310
4F626A65637400000060687A778F3CB911C0004ECAE27419990A0000000100FF
310
FF010000000C0054657874204F626A65637400000060D978ED3ED3CE119D7908
310
003601EB680B000000010000000100000013004A53686565744C61796572204F
310
626A656374000000CC08A3C78A42CE1184A708003601C5F30C0000000100FFFF
310
010000000A0053686565745669657700000010EE38A500000000C00000000000
310
00460D0000000100FFFF010000000E005374796C65204D616E61676572000000
310
D03CD649BEC9CE11A4380800367E05020E0000000100FFFF0100000010005669
310
657720536574204F626A65637400000065507954010000006B000D0000010D00
310
0700800042056B293BE5CE119DFA08003601E0120000FEFF000002000000708C
310
117609FCCD118B57080036181E0201000200000001000000A00FB2FF9B33CE11
310
956A08003601DFE502000300000001000000137D7BC46BECCE11A7C0080036D4
310
010203000400000003000000E3E08456DE24CF11A80A080036D4010204000500
310
0000030000008083319A9833CE11956A08003601DFE505000700000001000000
310
F0659042D698CE1193F408003637300206000A00000001000000CB08A3C78A42
310
CE1184A708003601C5F307000C00000001000000E01DE81B827ECE11A82B0800
310
3601E8550800FFFF01000000000020EC39935C39CE11BF4E08003601C72A0900
310
FFFF0100000000006096DD92B437CE11AB4F08003601C6EB0A00FFFF01000000
310
000040AF49BA33D3CE119D7908003601EB680B00FFFF010000000000507AA39F
310
D1C1CE119D6C08003601EB680C00FFFF01000000000000000000000000000000
310
0000000000000000000000000000000000000000000000000000000000000000
310
44F5906C130000005151000001000000000000000000F03F01050000000E0000
310
00570069006E0064006F0077007300030000001600000053006900740065004F
310
3000780030003000300030003000300030003000000000000000000000000000
310
0000000000000000000000000000000000000000000000000000000000000000
310
16000201FFFFFFFFFFFFFFFFFFFFFFFF00000000000000000000000000000000
310
0000000000000000000000000000000000000000A9000000C202000000000000
310
0000000000000000000000000000000000000000000000000000000000000000
310
0000000000000000000000000000000000000000000000000000000000000000
310
00000000FFFFFFFFFFFFFFFFFFFFFFFF00000000000000000000000000000000
310
0000000000000000000000000000000000000000000000000000000000000000
310
0000000000000000000000000000000000000000000000000000000000000000
310
0000000000000000000000000000000000000000000000000000000000000000
310
00000000FFFFFFFFFFFFFFFFFFFFFFFF00000000000000000000000000000000
310
0000000000000000000000000000000000000000000000000000000000000000
310
0000000000000000000000000000000000000000000000000000000000000000
310
0000000000000000000000000000000000000000000000000000000000000000
310
00000000FFFFFFFFFFFFFFFFFFFFFFFF00000000000000000000000000000000
310
0000000000000000000000000000000000000000000000000000000000000000
310
8100000082000000830000008400000085000000860000008700000088000000
310
890000008A0000008B0000008C0000008D0000008E0000008F00000090000000
310
9100000092000000930000009400000095000000960000009700000098000000
310
99000000FEFFFFFFFEFFFFFFFEFFFFFF9D0000009E0000009F000000A0000000
310
A1000000A2000000A3000000A4000000A5000000FEFFFFFFFEFFFFFFFEFFFFFF
310
FEFFFFFFAA000000AB000000AC000000AD000000AE000000AF000000B0000000
310
B1000000B2000000B3000000B4000000FEFFFFFFFFFFFFFFFFFFFFFFFFFFFFFF
310
FFFFFFFFFFFFFFFFFFFFFFFFFFFFFFFFFFFFFFFFFFFFFFFFFFFFFFFFFFFFFFFF
310
FFFFFFFFFFFFFFFFFFFFFFFFFFFFFFFFFFFFFFFFFFFFFFFFFFFFFFFFFFFFFFFF
310
FFFFFFFFFFFFFFFFFFFFFFFFFFFFFFFFFFFFFFFFFFFFFFFFFFFFFFFFFFFFFFFF
310
FFFFFFFFFFFFFFFFFFFFFFFFFFFFFFFFFFFFFFFFFFFFFFFFFFFFFFFFFFFFFFFF
310
FFFFFFFFFFFFFFFFFFFFFFFFFFFFFFFFFFFFFFFFFFFFFFFFFFFFFFFFFFFFFFFF
310
FFFFFFFFFFFFFFFFFFFFFFFFFFFFFFFFFFFFFFFFFFFFFFFFFFFFFFFFFFFFFFFF
310
FFFFFFFFFFFFFFFFFFFFFFFFFFFFFFFFFFFFFFFFFFFFFFFFFFFFFFFFFFFFFFFF
310
FFFFFFFFFFFFFFFFFFFFFFFFFFFFFFFFFFFFFFFFFFFFFFFFFFFFFFFFFFFFFFFF
310
FFFFFFFFFFFFFFFFFFFFFFFFFFFFFFFFFFFFFFFFFFFFFFFFFFFFFFFFFFFFFFFF
310
0062006A0065006300740073000B000000180000005300740079006C0065004D
310
0061006E006100670065007200120000000C0000005300680065006500740073
310
0009000000180000004C0061007900650072004D0061006E0061006700650072
310
000C0000000100000040117DBA44761B10AC0708003601B14E6096DD92B437CE
310
11AB4F08003601C6EB0400000001000102000110FFC3744640CE118BA4080036
310
24FC01010001020001002AB9F4127FCE11A82B08003601E855010001020001C7
310
24D382B779CE1184A708003601C5F30100010200017037A8A905CDCE119D7808
310
003601EB68000000005151010002000000000000000000000007000000440065
310
006600610075006C00740000000000010000000E0000000140117DBA44761B10
310
AC0708003601B14E507AA39FD1C1CE119D6C08003601EB680100000001000107
310
000051510100030000000F0000000101000000000000000F0000000100000040
310
117DBA44761B10AC0708003601B14E6096DD92B437CE11AB4F08003601C6EB02
310
00000001000101000140699230DC26CE11A25108003601C09C10000000010001
310
02000190237875DD57CE118BA408003624FC010000000051510200040000000D
310
000000000000000100000040117DBA44761B10AC0708003601B14E20EC39935C
310
39CE11BF4E08003601C72A02000000010001040001102CBA4304F0CD11BF4E08
310
003601C72A01000103000140699230DC26CE11A25108003601C09C1001000000
310
0000000000000002000000020000000200000041003400000000000100000000
310
00FFFFFFFFFFFFFFFF0000000000000000000000000000000001A04F5813DF41
310
CE11BB8E08003601BB4E00000000000000000000000000000000000000000000
310
0100000000000000000000000000000000000000000000000000000000000000
310
0000FFFFFFFF355EBA490C02D33F1C000000E17A14AE47E1CA3F000000000000
310
0000000000000000F03F000000000000F03F0051510300050000000000010000
310
000000000000000000020000000A000000070000000000000000000B00000000
310
0000000000000000000000000000000000000000000000000000000000000000
310
F03F00000000000000000000000000000000A60A462575027A3FB86CE605A60A
310
462575028A3FEED0E805FC87F4DBD781933F502DFB02A60A462575029A3F9CAD
310
B304A8C64B378941A03F2C00FB02FD87F4DBD781A33F0600000052499D8026C2
310
A63F2046FB02A70A46257502AA3F00000000FCCBEEC9C342AD3FBC6AC100A8C6
310
4B378941B03F8C6CC1005227A089B0E1B13F12003404FC87F4DBD781B33F2046
310
FB02A6E8482EFF21B53F9D253304000000000000000000000000200600002100
310
0000515104000600000000000100000000000000000000000200000010000000
310
110000000100000005000000010000040000000B0000000E00000049006E0074
310
0065007200670072006100700068002000490053004F00090400000000000000
310
000D000000000079E9263108AC6C3F0000000000000000000000000000001300
310
00005151030007000000B81A0100000001000000010000000D00000000000000
310
0000000000000B00000000090000000000000000000000000000000000000000
310
0000000000000000000000F03F00000000000000000000000000000000A60A46
310
2575027A3FB86CE605A60A462575028A3FEED0E805FC87F4DBD781933F502DFB
310
02A60A462575029A3F9CADB304A8C64B378941A03F2C00FB02FD87F4DBD781A3
310
3F0600000052499D8026C2A63F2046FB02A70A46257502AA3F00000000FCCBEE
310
C9C342AD3FBC6AC100A8C64B378941B03F8C6CC1005227A089B0E1B13F120034
310
04FC87F4DBD781B33F2046FB02A6E8482EFF21B53F9D25330400000000000000
310
000000000001060000210000005151060008000000040000000E000000010000
310
000E000000000000000140117DBA44761B10AC0708003601B14E40AF49BA33D3
310
CE119D7908003601EB6801000000010001070000515105000900000002000000
310
060000000300000008000000530065006300740069006F006E00310001010000
310
0000000000000000000100000006000000530068006500650074003100010B00
310
00004200610063006B00670072006F0075006E00640073000102000000010000
310
0000000000040000000200000041003400010200000041003300010200000041
310
00320001020000004100310001000150034C391ACBCD11BF2908003601B1FE01
310
0100000000000000040000000100000040117DBA44761B10AC0708003601B14E
310
6096DD92B437CE11AB4F08003601C6EB01000000010001020001C824D382B779
310
CE1184A708003601C5F30100000000000100515103000A000000000001000000
310
0000000000000000000000000000000000000B00000000010000000000000000
310
0000000000000000000000000000000000000000000000F03F00000000000000
310
000000000000000000A60A462575027A3FB86CE605A60A462575028A3FEED0E8
310
05FC87F4DBD781933F502DFB02A60A462575029A3F9CADB304A8C64B378941A0
310
3F2C00FB02FD87F4DBD781A33F0600000052499D8026C2A63F2046FB02A70A46
310
257502AA3F00000000FCCBEEC9C342AD3FBC6AC100A8C64B378941B03F8C6CC1
310
005227A089B0E1B13F12003404FC87F4DBD781B33F2046FB02A6E8482EFF21B5
310
3F9D2533040000000000000000000000000106000021000000515108000B0000
310
0000515109000C00000000110001000000000000000000000000000000000200
310
000001000000020000000000000000000001000000080000000140117DBA4476
310
1B10AC0708003601B14E40AF49BA33D3CE119D7908003601EB68010000000100
310
01070000515106000D000000A870B2A3DF8A813F48277E0CEC5C8B3FC7BAB88D
310
06F0363FA060BCBD4EBD8A3F0077327C7359763F000000000000000000000080
310
080000000000000000000000000000000000000000000000000000020000000A
310
00000001000000000000000000100000000500000000000000FFFE0500000044
310
00610074006F000D000A00000001000000000000000000100000000900000000
310
000000FFFE09000000520065006B0076002E0020006E0072002E0051510B000E
310
000000010000000000000007000000440065006600610075006C007400000000
310
000140117DBA44761B10AC0708003601B14E6096DD92B437CE11AB4F08003601
310
C6EB01000000010001030000515107000F000000040000000100000000000000
310
01000000FFFFFFFFFFFFFFFFFCFFFFFFE9FFFFFF000000000000000069020000
310
AD0100000600000053006B0065007400630068000800000055006E0074006900
310
74006C0065006400010000000000000001000000040000001300000002000000
310
00000000000000000000000000000000000000000000F03F000000000000F03F
310
00000000000000000000000000000000000000000000F03F0000000000000000
310
0000000000000000000000000000F03F0000003FA23DE3040000000000000000
310
0000000000000000000000000000000000000000000000000000000000000000
310
0000000000000000000000000000000000000000000000000000000000000000
310
0000000000000000000000000000000000000000000000000000000000000000
310
0000000000000000000000000000000000000000000000000000000000000000
310
0000000000000000000000000000000000000000265305A3923ABBBF4D894A1E
310
A8D6E03F000000000000F03F0000000000000000000000000000000001000000
310
01010000403F0000403F01FF020000005151040010000000A810010000000000
310
00000000000000000000000000000000040000000B0000000E00000049006E00
310
740065007200670072006100700068002000490053004F000904010000000000
310
00000D0000000000FA7E6ABC7493583F0000000000000000000000000000000A
310
0000005151040011000000000001000000000000000000000000000000020000
310
000A0000000107000000010000040000000B0000000E00000049006E00740065
310
007200670072006100700068002000490053004F00090400000000000000000D
310
00000000007B14AE47E17A743F00000000000000000000000000000002000000
310
51510D00120000000600000010000000000000000A0000000000000007000000
310
0000000006000000060000004E006F0072006D0061006C001100000000000000
310
05000000060000004E006F0072006D0061006C000000000040117DBA44761B10
310
AC0708003601B14E6096DD92B437CE11AB4F08003601C6EB0100000001000103
310
000051510E00130000000400000000000000010000000F000000000000000000
310
0000000000000000000000000000000000000000000000000000000000000000
310
4F4C455300000000000000000000000000000000000000000000000000000000
310
0000000000000000000000000000000000000000000000000000000000000000
310
0A00010000000000000000000000000000000000000000000000000000000000
310
0000000000000000000000000000000000000000000000000000000000000000
310
FFFFFFFF030000000400000001000000FFFFFFFF020000000000000033090000
310
C1040000460200000100090000032301000006001C0000000000050000000B02
310
00000000050000000C022F005A0008000000FA02000001000000FFFFFF000400
310
00002D01000007000000FC020000FFFFFF000000040000002D01010007000000
310
1B0430005B000000000008000000FA0200000000000000000000040000002D01
310
020007000000FC020000FFFFFF000000040000002D0103001C000000FB020900
310
000000000000BC020000000000000000496E74657267726170682049534F0077
310
6B7EED77C057EF7715090A0500000A00040000002D010400050000002E011800
310
0000050000000902000000000500000002010100000008000000320A17002000
310
01000000440008000000320A1700240001000000610008000000320A17002700
310
01000000740008000000320A17002900010000006F0005000000020102000000
310
050000002E011800000005000000090200000000050000000201010000000800
310
0000320A21001B0001000000520008000000320A21001F000100000065000800
310
0000320A21002200010000006B0008000000320A210025000100000076000800
310
0000320A21002800010000002E0008000000320A210029000100000020000800
310
0000320A21002B00010000006E0008000000320A21002E000100000072000800
310
0000320A21003000010000002E00050000000201020000001C000000FB021000
310
070000000000BC02000000000000000253797374656D0000020000000C008A01
310
00000A00060000000C008A0100000A00040000002D01050004000000F0010000
310
04000000F0010100030000000000000000000000000000000000000000000000
310
4F4C454D00000000000000000000000000000000000000000000000000000000
310
0000000000000000000000000000000000000000000000000000000000000000
310
726F6F74010000000800000044006F006300530074006F007200650000000000
310
0000000000000000000000000000000000000000000000000000000000000000
310
0100000200000000000000000000000000000000000000000000000000000000
310
0000000000000000000000000000000000000000000000000000000000000000
310
7373656713000200140000001000080000000100000000000000070000201E00
310
29010000020000004000000004004020810E0200010001000C0000000B001E00
310
82010000030000004000000003004000810E0200010001000100000009002A00
310
F7010000040000008000000006004000811A0200030003000900000009000F00
310
00000A00080000000B0024001303000005000000C00000000500400081140200
310
02000200120000000A000600000008001E002204000006000000000100000500
310
4000810E020001000100120000000A002A00A204000007000000C00000000500
310
4000811A020003000300120000000A000500000008001100000008001E00AD05
310
0000080000008001000004004020810E0200010001000C0000000B001E00F405
310
0000090000004001000003004000810E0200010001000100000009002A00F206
310
00000A000000C000000008004000811A020003000300120000000A0005000000
310
08001100000008001E00F90700000B0000000002000002004020810E02000100
310
01000100000009001E00020800000C0000004002000004004020810E02000100
310
01000100000009004800640800000D0000008001000003004000813801000800
310
08000000000000000700000008000E0000000A000A00000008000A0000000800
310
10000000080010000000080004000000090024001B0900000E000000C0020000
310
050040208114020002000200080000000B00020000000C002A006C0900000F00
310
0000C001000004004000811A0200030003000F0000000A000300000009001300
310
00000A002400100B000010000000000100000700400081140200020002001200
310
00000A000600000008002400830B000011000000000100000500400081140200
310
02000200120000000A000600000008001E00000C000012000000400300000800
310
4020810E0200010001000100000009001000820C000013000000800300000300
310
0020000000000000000000000000000000000000000000000000000000000000
310
0000000000000000000000000000000000000000000000000000000000000000
310
0000000000000000000000000000000000000000000000000000000000000000
310
0000000000000000000000000000000000000000000000000000000000000000
310
0000000000000000000000000000000000000000000000000000000000000000
310
0000000000000000000000000000000000000000000000000000000000000000
310
0000000000000000000000000000000000000000000000000000000000000000
310
0000000000000000000000000000000000000000000000000000000000000000
  1
OLE
  0
ENDSEC
  0
SECTION
  2
OBJECTS
  0
DICTIONARY
  5
19
100
AcDbDictionary
280
         0
281
         1
  3
ACAD_GROUP
350
1A
  3
ACAD_MLINESTYLE
350
1B
  3
ACAD_LAYOUT
350
1E
  3
ACAD_PLOTSETTINGS
350
22
  3
ACAD_PLOTSTYLENAME
350
1F
  3
ACAD_WIPEOUT_VARS
350
23
  3
AcDbVariableDictionary
350
D7
  0
DICTIONARY
  5
1A
102
{ACAD_REACTORS
330
19
102
}
100
AcDbDictionary
280
         0
281
         1
  0
DICTIONARY
  5
1B
102
{ACAD_REACTORS
330
19
102
}
100
AcDbDictionary
280
         0
281
         1
  3
Standard
350
1C
  0
MLINESTYLE
  5
1C
102
{ACAD_REACTORS
330
1B
102
}
100
AcDbMlineStyle
  2
Standard
 70
         0
  3

 62
         0
 51
90.0
 52
90.0
 71
         2
 49
0.5
 62
       256
  6
ByLayer
 49
-0.5
 62
       256
  6
ByLayer
  0
ACDBDICTIONARYWDFLT
  5
1F
102
{ACAD_REACTORS
330
19
102
}
100
AcDbDictionary
281
         1
  3
Normal
350
1D
100
AcDbDictionaryWithDefault
340
1D
  0
ACDBPLACEHOLDER
  5
1D
102
{ACAD_REACTORS
330
1F
102
}
  0
LAYOUT
  5
20
102
{ACAD_REACTORS
330
1E
102
}
100
AcDbPlotSettings
  1

  2

  4

  6

 40
0.0
 41
0.0
 42
0.0
 43
0.0
 44
0.0
 45
0.0
 46
0.0
 47
0.0
 48
0.0
 49
0.0
140
0.0
141
0.0
142
1.0
143
1.0
 70
      1024
 72
         0
 73
         0
 74
         0
  7

 75
         0
147
1.0
148
0.0
149
0.0
100
AcDbLayout
  1
Model
 70
         0
 71
         0
 10
0.0
 20
0.0
 11
0.0
 21
0.0
 12
0.0
 22
0.0
 32
0.0
 14
0.0
 24
0.0
 34
0.0
 15
0.0
 25
0.0
 35
0.0
146
0.0
 13
0.0
 23
0.0
 33
0.0
 16
0.0
 26
0.0
 36
0.0
 17
0.0
 27
0.0
 37
0.0
 76
         0
330
A
331
0
345
0
346
0
  0
LAYOUT
  5
21
102
{ACAD_REACTORS
330
1E
102
}
100
AcDbPlotSettings
  1

  2

  4

  6

 40
0.0
 41
0.0
 42
0.0
 43
0.0
 44
0.0
 45
0.0
 46
0.0
 47
0.0
 48
0.0
 49
0.0
140
0.0
141
0.0
142
1.0
143
1.0
 70
         0
 72
         0
 73
         0
 74
         0
  7

 75
         0
147
1.0
148
0.0
149
0.0
100
AcDbLayout
  1
Layout1
 70
         0
 71
         0
 10
0.0
 20
0.0
 11
0.0
 21
0.0
 12
0.0
 22
0.0
 32
0.0
 14
0.0
 24
0.0
 34
0.0
 15
0.0
 25
0.0
 35
0.0
146
0.0
 13
0.0
 23
0.0
 33
0.0
 16
0.0
 26
0.0
 36
0.0
 17
0.0
 27
0.0
 37
0.0
 76
         0
330
B
331
0
345
0
346
0
  0
DICTIONARY
  5
1E
102
{ACAD_REACTORS
330
19
102
}
100
AcDbDictionary
280
         0
281
         1
  3
Layout1
350
21
  3
Model
350
20
  0
DICTIONARY
  5
22
102
{ACAD_REACTORS
330
19
102
}
100
AcDbDictionary
280
         0
281
         1
  0
WIPEOUTVARIABLES
  5
23
100
AcDbWipeoutVariables
 70
         1
  0
DICTIONARY
  5
69
100
AcDbDictionary
280
         0
281
         0
  3
ACAD_FILTER
350
6A
  0
DICTIONARY
  5
6A
100
AcDbDictionary
280
         0
281
         0
  3
SPATIAL
350
6B
  0
SPATIAL_FILTER
  5
6B
100
AcDbFilter
100
AcDbSpatialFilter
 70
         2
 10
60.1520026147
 20
163.8028207697
 10
168.8520034491
 20
247.002822081
210
0.0
220
0.0
230
1.0
 11
0.0
 21
0.0
 31
0.0
 71
         1
 72
         0
 73
         0
 40
1.0
 40
0.0
 40
0.0
 40
0.0
 40
0.0
 40
1.0
 40
0.0
 40
0.0
 40
0.0
 40
0.0
 40
1.0
 40
0.0
 40
1.0
 40
0.0
 40
0.0
 40
0.0
 40
0.0
 40
1.0
 40
0.0
 40
0.0
 40
0.0
 40
0.0
 40
1.0
 40
0.0
  0
DICTIONARY
  5
D7
100
AcDbDictionary
280
         0
281
         0
  3
DIMASSOC
350
D8
  0
DICTIONARYVAR
  5
D8
100
DictionaryVariables
280
         0
  1
2
  0
ENDSEC
  0
EOF
