*%FSLAX23Y23*%
*%MOIN*%
G01*
D11*
X15152Y8652D02*
X15182D01*
X15167Y8637D02*
Y8667D01*
X15056Y7990D02*
X15026D01*
X15041Y7975D02*
Y8005D01*
X15152Y8179D02*
X15182D01*
X15167Y8164D02*
Y8194D01*
X15056Y8286D02*
X15026D01*
X15041Y8271D02*
Y8301D01*
X15053Y8415D02*
X15083D01*
X15068Y8400D02*
Y8430D01*
X15250Y8415D02*
X15280D01*
X15265Y8400D02*
Y8430D01*
X13973Y8059D02*
X13943D01*
X13958Y8044D02*
Y8074D01*
X13943Y6642D02*
X13973D01*
X13958Y6627D02*
Y6657D01*
X9879Y8059D02*
X9849D01*
X9864Y8044D02*
Y8074D01*
X9849Y6642D02*
X9879D01*
X9864Y6627D02*
Y6657D01*
X7457Y8059D02*
X7427D01*
X7442Y8044D02*
Y8074D01*
X7427Y6642D02*
X7457D01*
X7442Y6627D02*
Y6657D01*
X4308Y8059D02*
X4278D01*
X4293Y8044D02*
Y8074D01*
X4278Y6642D02*
X4308D01*
X4293Y6627D02*
Y6657D01*
X15098Y8262D02*
X15118D01*
X15108Y8252D02*
Y8272D01*
X15023Y7699D02*
X15003D01*
X15013Y7689D02*
Y7709D01*
X15003Y6892D02*
X15023D01*
X15013Y6882D02*
Y6902D01*
X15003Y6234D02*
X15023D01*
X15013Y6224D02*
Y6244D01*
X15016Y7113D02*
X14996D01*
X15006Y7103D02*
Y7123D01*
X14996Y7403D02*
X15016D01*
X15006Y7393D02*
Y7413D01*
X15004Y8037D02*
X14984D01*
X14994Y8027D02*
Y8047D01*
X14984Y8160D02*
X15004D01*
X14994Y8150D02*
Y8170D01*
X14984Y8223D02*
X15004D01*
X14994Y8213D02*
Y8233D01*
X14909Y7876D02*
X14889D01*
X14899Y7866D02*
Y7886D01*
X14826Y8474D02*
X14806D01*
X14816Y8464D02*
Y8484D01*
X14810Y7876D02*
X14830D01*
X14820Y7866D02*
Y7886D01*
X14819Y7132D02*
X14799D01*
X14809Y7122D02*
Y7142D01*
X14681Y8325D02*
X14661D01*
X14671Y8315D02*
Y8335D01*
X14677Y7506D02*
X14657D01*
X14667Y7496D02*
Y7516D01*
X14636Y7333D02*
X14616D01*
X14626Y7323D02*
Y7343D01*
X14799Y7053D02*
X14819D01*
X14809Y7043D02*
Y7063D01*
X14677Y6703D02*
X14657D01*
X14667Y6693D02*
Y6713D01*
X14657Y6041D02*
X14677D01*
X14667Y6031D02*
Y6051D01*
X14606Y8325D02*
X14586D01*
X14596Y8315D02*
Y8335D01*
X14610Y8408D02*
X14630D01*
X14620Y8398D02*
Y8418D01*
X14586Y8049D02*
X14566D01*
X14576Y8039D02*
Y8059D01*
X14563Y8100D02*
X14543D01*
X14553Y8090D02*
Y8110D01*
X14559Y8368D02*
X14539D01*
X14549Y8358D02*
Y8378D01*
X14539Y7663D02*
X14559D01*
X14549Y7653D02*
Y7673D01*
X14512Y7494D02*
X14492D01*
X14502Y7484D02*
Y7504D01*
X14484Y7884D02*
X14464D01*
X14474Y7874D02*
Y7894D01*
X14445Y8211D02*
X14425D01*
X14435Y8201D02*
Y8221D01*
X14432Y7951D02*
X14452D01*
X14442Y7941D02*
Y7961D01*
X14499Y7085D02*
X14519D01*
X14509Y7075D02*
Y7095D01*
X14523Y7124D02*
X14543D01*
X14533Y7114D02*
Y7134D01*
X14464Y8522D02*
X14444D01*
X14454Y8512D02*
Y8532D01*
X14547Y6199D02*
X14567D01*
X14557Y6189D02*
Y6209D01*
X14570Y6860D02*
X14590D01*
X14580Y6850D02*
Y6870D01*
X14512Y6026D02*
X14492D01*
X14502Y6016D02*
Y6036D01*
X14492Y6683D02*
X14512D01*
X14502Y6673D02*
Y6693D01*
X14393Y8352D02*
X14373D01*
X14383Y8342D02*
Y8362D01*
X14397Y7663D02*
X14417D01*
X14407Y7653D02*
Y7673D01*
X14413Y7549D02*
X14393D01*
X14403Y7539D02*
Y7559D01*
X14401Y7333D02*
X14381D01*
X14391Y7323D02*
Y7343D01*
X14338Y7132D02*
X14318D01*
X14328Y7122D02*
Y7142D01*
X14318Y7183D02*
X14338D01*
X14328Y7173D02*
Y7193D01*
X14319Y8049D02*
X14299D01*
X14309Y8039D02*
Y8059D01*
X14299Y8077D02*
X14319D01*
X14309Y8067D02*
Y8087D01*
X14299Y8148D02*
X14319D01*
X14309Y8138D02*
Y8158D01*
X14299Y8002D02*
X14319D01*
X14309Y7992D02*
Y8012D01*
X14299Y8522D02*
X14279D01*
X14289Y8512D02*
Y8532D01*
X14397Y6856D02*
X14417D01*
X14407Y6846D02*
Y6866D01*
X14397Y6199D02*
X14417D01*
X14407Y6189D02*
Y6209D01*
X14334Y7045D02*
X14314D01*
X14324Y7035D02*
Y7055D01*
X14189Y8258D02*
X14169D01*
X14179Y8248D02*
Y8268D01*
X14185Y8447D02*
X14165D01*
X14175Y8437D02*
Y8457D01*
X14145Y8120D02*
X14125D01*
X14135Y8110D02*
Y8130D01*
X14094Y7341D02*
X14074D01*
X14084Y7331D02*
Y7351D01*
X14078Y7124D02*
X14058D01*
X14068Y7114D02*
Y7134D01*
X14058Y7246D02*
X14078D01*
X14068Y7236D02*
Y7256D01*
X14063Y7274D02*
X14043D01*
X14053Y7264D02*
Y7284D01*
X14043Y7203D02*
X14063D01*
X14053Y7193D02*
Y7213D01*
X14043Y7148D02*
X14063D01*
X14053Y7138D02*
Y7158D01*
X14055Y7742D02*
X14075D01*
X14065Y7732D02*
Y7752D01*
X14055Y6939D02*
X14075D01*
X14065Y6929D02*
Y6949D01*
X14055Y6278D02*
X14075D01*
X14065Y6268D02*
Y6288D01*
X13921Y7419D02*
X13901D01*
X13911Y7409D02*
Y7429D01*
X13901Y7549D02*
X13921D01*
X13911Y7539D02*
Y7559D01*
X13901Y6006D02*
X13881D01*
X13891Y5996D02*
Y6016D01*
X13921Y6049D02*
X13941D01*
X13931Y6039D02*
Y6059D01*
X13932Y6183D02*
X13952D01*
X13942Y6173D02*
Y6193D01*
X13795Y7856D02*
X13775D01*
X13785Y7846D02*
Y7866D01*
X13822Y7809D02*
X13842D01*
X13832Y7799D02*
Y7819D01*
X13787Y8553D02*
X13767D01*
X13777Y8543D02*
Y8563D01*
X13665Y7888D02*
X13645D01*
X13655Y7878D02*
Y7898D01*
X13708Y7888D02*
X13728D01*
X13718Y7878D02*
Y7898D01*
X13740Y7982D02*
X13760D01*
X13750Y7972D02*
Y7992D01*
X13689Y8372D02*
X13669D01*
X13679Y8362D02*
Y8382D01*
X13708Y7289D02*
X13728D01*
X13718Y7279D02*
Y7299D01*
X13665Y8506D02*
X13645D01*
X13655Y8496D02*
Y8516D01*
X13673Y7628D02*
X13693D01*
X13683Y7618D02*
Y7638D01*
X13759Y6919D02*
X13779D01*
X13769Y6909D02*
Y6929D01*
X13791Y6100D02*
X13811D01*
X13801Y6090D02*
Y6110D01*
X13760Y7026D02*
X13740D01*
X13750Y7016D02*
Y7036D01*
X13653Y6919D02*
X13633D01*
X13643Y6909D02*
Y6929D01*
X13649Y6183D02*
X13669D01*
X13659Y6173D02*
Y6193D01*
X13700Y6006D02*
X13720D01*
X13710Y5996D02*
Y6016D01*
X13728Y6821D02*
X13748D01*
X13738Y6811D02*
Y6831D01*
X13594Y7104D02*
X13574D01*
X13584Y7094D02*
Y7114D01*
X13484Y8030D02*
X13464D01*
X13474Y8020D02*
Y8040D01*
X13503Y7419D02*
X13523D01*
X13513Y7409D02*
Y7429D01*
X13484Y7813D02*
X13464D01*
X13474Y7803D02*
Y7823D01*
X13503Y7774D02*
X13523D01*
X13513Y7764D02*
Y7784D01*
X13503Y7656D02*
X13523D01*
X13513Y7646D02*
Y7666D01*
X13484Y7656D02*
X13464D01*
X13474Y7646D02*
Y7666D01*
X13503Y7695D02*
X13523D01*
X13513Y7685D02*
Y7705D01*
X13503Y7734D02*
X13523D01*
X13513Y7724D02*
Y7744D01*
X13503Y7813D02*
X13523D01*
X13513Y7803D02*
Y7823D01*
X13484Y7537D02*
X13464D01*
X13474Y7527D02*
Y7547D01*
X13464Y7459D02*
X13484D01*
X13474Y7449D02*
Y7469D01*
X13503Y7459D02*
X13523D01*
X13513Y7449D02*
Y7469D01*
X13503Y7498D02*
X13523D01*
X13513Y7488D02*
Y7508D01*
X13503Y7537D02*
X13523D01*
X13513Y7527D02*
Y7547D01*
X13484Y7577D02*
X13464D01*
X13474Y7567D02*
Y7587D01*
X13484Y7616D02*
X13464D01*
X13474Y7606D02*
Y7626D01*
X13543Y7498D02*
X13563D01*
X13553Y7488D02*
Y7508D01*
X13543Y7537D02*
X13563D01*
X13553Y7527D02*
Y7547D01*
X13543Y7577D02*
X13563D01*
X13553Y7567D02*
Y7587D01*
X13523Y7616D02*
X13503D01*
X13513Y7606D02*
Y7626D01*
X13543Y7616D02*
X13563D01*
X13553Y7606D02*
Y7626D01*
X13543Y7104D02*
X13563D01*
X13553Y7094D02*
Y7114D01*
X13543Y7144D02*
X13563D01*
X13553Y7134D02*
Y7154D01*
X13523Y7577D02*
X13503D01*
X13513Y7567D02*
Y7587D01*
X13484Y7380D02*
X13464D01*
X13474Y7370D02*
Y7390D01*
X13503Y7262D02*
X13523D01*
X13513Y7252D02*
Y7272D01*
X13484Y7183D02*
X13464D01*
X13474Y7173D02*
Y7193D01*
X13503Y7144D02*
X13523D01*
X13513Y7134D02*
Y7154D01*
X13484Y7734D02*
X13464D01*
X13474Y7724D02*
Y7744D01*
X13578Y6671D02*
X13598D01*
X13588Y6661D02*
Y6681D01*
X13610Y6045D02*
X13630D01*
X13620Y6035D02*
Y6055D01*
X13610Y6116D02*
X13630D01*
X13620Y6106D02*
Y6126D01*
X13621Y7026D02*
X13641D01*
X13631Y7016D02*
Y7036D01*
X13539Y6671D02*
X13519D01*
X13529Y6661D02*
Y6681D01*
X13523Y7065D02*
X13503D01*
X13513Y7055D02*
Y7075D01*
X13503Y6908D02*
X13523D01*
X13513Y6898D02*
Y6918D01*
X13511Y6573D02*
X13531D01*
X13521Y6563D02*
Y6583D01*
X13484Y6986D02*
X13464D01*
X13474Y6976D02*
Y6996D01*
X13464Y6947D02*
X13484D01*
X13474Y6937D02*
Y6957D01*
X13464Y6908D02*
X13484D01*
X13474Y6898D02*
Y6918D01*
X13464Y7026D02*
X13484D01*
X13474Y7016D02*
Y7036D01*
X13543Y6002D02*
X13563D01*
X13553Y5992D02*
Y6012D01*
X13484Y7065D02*
X13464D01*
X13474Y7055D02*
Y7075D01*
X13503Y7026D02*
X13523D01*
X13513Y7016D02*
Y7036D01*
X13503Y6947D02*
X13523D01*
X13513Y6937D02*
Y6957D01*
X13484Y6868D02*
X13464D01*
X13474Y6858D02*
Y6878D01*
X13519Y6797D02*
X13539D01*
X13529Y6787D02*
Y6807D01*
X13484Y6829D02*
X13464D01*
X13474Y6819D02*
Y6839D01*
X13405Y8089D02*
X13385D01*
X13395Y8079D02*
Y8099D01*
X13425Y7935D02*
X13445D01*
X13435Y7925D02*
Y7945D01*
X13425Y7104D02*
X13445D01*
X13435Y7094D02*
Y7114D01*
X13405Y7616D02*
X13385D01*
X13395Y7606D02*
Y7626D01*
X13425Y7656D02*
X13445D01*
X13435Y7646D02*
Y7666D01*
X13405Y7656D02*
X13385D01*
X13395Y7646D02*
Y7666D01*
X13425Y7695D02*
X13445D01*
X13435Y7685D02*
Y7705D01*
X13429Y8506D02*
X13409D01*
X13419Y8496D02*
Y8516D01*
X13425Y7459D02*
X13445D01*
X13435Y7449D02*
Y7469D01*
X13405Y7459D02*
X13385D01*
X13395Y7449D02*
Y7469D01*
X13425Y7537D02*
X13445D01*
X13435Y7527D02*
Y7547D01*
X13425Y7577D02*
X13445D01*
X13435Y7567D02*
Y7587D01*
X13405Y7577D02*
X13385D01*
X13395Y7567D02*
Y7587D01*
X13385Y7695D02*
X13405D01*
X13395Y7685D02*
Y7705D01*
X13385Y7734D02*
X13405D01*
X13395Y7724D02*
Y7744D01*
X13425Y7734D02*
X13445D01*
X13435Y7724D02*
Y7744D01*
X13445Y7774D02*
X13425D01*
X13435Y7764D02*
Y7784D01*
X13405Y7774D02*
X13385D01*
X13395Y7764D02*
Y7784D01*
X13425Y7419D02*
X13445D01*
X13435Y7409D02*
Y7429D01*
X13405Y7419D02*
X13385D01*
X13395Y7409D02*
Y7429D01*
X13425Y7498D02*
X13445D01*
X13435Y7488D02*
Y7508D01*
X13425Y7380D02*
X13445D01*
X13435Y7370D02*
Y7390D01*
X13425Y7301D02*
X13445D01*
X13435Y7291D02*
Y7311D01*
X13405Y7223D02*
X13385D01*
X13395Y7213D02*
Y7233D01*
X13425Y7813D02*
X13445D01*
X13435Y7803D02*
Y7823D01*
X13326Y7695D02*
X13306D01*
X13316Y7685D02*
Y7705D01*
X13287Y8089D02*
X13267D01*
X13277Y8079D02*
Y8099D01*
X13306Y8061D02*
X13326D01*
X13316Y8051D02*
Y8071D01*
X13287Y7104D02*
X13267D01*
X13277Y7094D02*
Y7114D01*
X13306Y7656D02*
X13326D01*
X13316Y7646D02*
Y7666D01*
X13287Y7656D02*
X13267D01*
X13277Y7646D02*
Y7666D01*
X13346Y7734D02*
X13366D01*
X13356Y7724D02*
Y7744D01*
X13287Y7774D02*
X13267D01*
X13277Y7764D02*
Y7784D01*
X13267Y7813D02*
X13287D01*
X13277Y7803D02*
Y7823D01*
X13306Y7813D02*
X13326D01*
X13316Y7803D02*
Y7823D01*
X13315Y8593D02*
X13295D01*
X13305Y8583D02*
Y8603D01*
X13346Y7656D02*
X13366D01*
X13356Y7646D02*
Y7666D01*
X13346Y7616D02*
X13366D01*
X13356Y7606D02*
Y7626D01*
X13326Y7616D02*
X13306D01*
X13316Y7606D02*
Y7626D01*
X13287Y7616D02*
X13267D01*
X13277Y7606D02*
Y7626D01*
X13346Y7695D02*
X13366D01*
X13356Y7685D02*
Y7705D01*
X13326Y7734D02*
X13306D01*
X13316Y7724D02*
Y7744D01*
X13287Y7695D02*
X13267D01*
X13277Y7685D02*
Y7705D01*
X13306Y7774D02*
X13326D01*
X13316Y7764D02*
Y7784D01*
X13287Y7734D02*
X13267D01*
X13277Y7724D02*
Y7744D01*
X13267Y7380D02*
X13287D01*
X13277Y7370D02*
Y7390D01*
X13267Y7459D02*
X13287D01*
X13277Y7449D02*
Y7469D01*
X13346Y7774D02*
X13366D01*
X13356Y7764D02*
Y7784D01*
X13346Y7813D02*
X13366D01*
X13356Y7803D02*
Y7823D01*
X13326Y7459D02*
X13306D01*
X13316Y7449D02*
Y7469D01*
X13306Y7380D02*
X13326D01*
X13316Y7370D02*
Y7390D01*
X13346Y7341D02*
X13366D01*
X13356Y7331D02*
Y7351D01*
X13346Y7852D02*
X13366D01*
X13356Y7842D02*
Y7862D01*
X13326Y7935D02*
X13306D01*
X13316Y7925D02*
Y7945D01*
X13287Y7144D02*
X13267D01*
X13277Y7134D02*
Y7154D01*
X13346Y7262D02*
X13366D01*
X13356Y7252D02*
Y7272D01*
X13326Y7498D02*
X13306D01*
X13316Y7488D02*
Y7508D01*
X13346Y7498D02*
X13366D01*
X13356Y7488D02*
Y7508D01*
X13326Y7577D02*
X13306D01*
X13316Y7567D02*
Y7587D01*
X13346Y7104D02*
X13366D01*
X13356Y7094D02*
Y7114D01*
X13425Y6809D02*
X13445D01*
X13435Y6799D02*
Y6819D01*
X13405Y7026D02*
X13385D01*
X13395Y7016D02*
Y7036D01*
X13425Y7026D02*
X13445D01*
X13435Y7016D02*
Y7036D01*
X13425Y6947D02*
X13445D01*
X13435Y6937D02*
Y6957D01*
X13405Y6986D02*
X13385D01*
X13395Y6976D02*
Y6996D01*
X13385Y6947D02*
X13405D01*
X13395Y6937D02*
Y6957D01*
X13425Y6908D02*
X13445D01*
X13435Y6898D02*
Y6918D01*
X13405Y7065D02*
X13385D01*
X13395Y7055D02*
Y7075D01*
X13425Y7065D02*
X13445D01*
X13435Y7055D02*
Y7075D01*
X13433Y6089D02*
X13413D01*
X13423Y6079D02*
Y6099D01*
X13425Y6510D02*
X13445D01*
X13435Y6500D02*
Y6520D01*
X13445Y6986D02*
X13425D01*
X13435Y6976D02*
Y6996D01*
X13405Y6908D02*
X13385D01*
X13395Y6898D02*
Y6918D01*
X13385Y6868D02*
X13405D01*
X13395Y6858D02*
Y6878D01*
X13425Y6868D02*
X13445D01*
X13435Y6858D02*
Y6878D01*
X13405Y6656D02*
X13385D01*
X13395Y6646D02*
Y6666D01*
X13425Y6671D02*
X13445D01*
X13435Y6661D02*
Y6681D01*
X13326Y6868D02*
X13306D01*
X13316Y6858D02*
Y6878D01*
X13346Y6986D02*
X13366D01*
X13356Y6976D02*
Y6996D01*
X13346Y6947D02*
X13366D01*
X13356Y6937D02*
Y6957D01*
X13326Y6986D02*
X13306D01*
X13316Y6976D02*
Y6996D01*
X13287Y6947D02*
X13267D01*
X13277Y6937D02*
Y6957D01*
X13267Y6908D02*
X13287D01*
X13277Y6898D02*
Y6918D01*
X13306Y6908D02*
X13326D01*
X13316Y6898D02*
Y6918D01*
X13346Y6908D02*
X13366D01*
X13356Y6898D02*
Y6918D01*
X13346Y7065D02*
X13366D01*
X13356Y7055D02*
Y7075D01*
X13326Y7026D02*
X13306D01*
X13316Y7016D02*
Y7036D01*
X13287Y7065D02*
X13267D01*
X13277Y7055D02*
Y7075D01*
X13306Y7065D02*
X13326D01*
X13316Y7055D02*
Y7075D01*
X13287Y6986D02*
X13267D01*
X13277Y6976D02*
Y6996D01*
X13346Y6868D02*
X13366D01*
X13356Y6858D02*
Y6878D01*
X13287Y6703D02*
X13267D01*
X13277Y6693D02*
Y6713D01*
X13267Y6766D02*
X13287D01*
X13277Y6756D02*
Y6776D01*
X13248Y7459D02*
X13228D01*
X13238Y7449D02*
Y7469D01*
X13208Y7656D02*
X13188D01*
X13198Y7646D02*
Y7666D01*
X13188Y7380D02*
X13208D01*
X13198Y7370D02*
Y7390D01*
X13188Y7935D02*
X13208D01*
X13198Y7925D02*
Y7945D01*
X13188Y8061D02*
X13208D01*
X13198Y8051D02*
Y8071D01*
X13188Y7104D02*
X13208D01*
X13198Y7094D02*
Y7114D01*
X13188Y7616D02*
X13208D01*
X13198Y7606D02*
Y7626D01*
X13228Y7695D02*
X13248D01*
X13238Y7685D02*
Y7705D01*
X13228Y7813D02*
X13248D01*
X13238Y7803D02*
Y7823D01*
X13208Y7813D02*
X13188D01*
X13198Y7803D02*
Y7823D01*
X13228Y7656D02*
X13248D01*
X13238Y7646D02*
Y7666D01*
X13208Y7695D02*
X13188D01*
X13198Y7685D02*
Y7705D01*
X13228Y7734D02*
X13248D01*
X13238Y7724D02*
Y7744D01*
X13208Y7734D02*
X13188D01*
X13198Y7724D02*
Y7744D01*
X13228Y7774D02*
X13248D01*
X13238Y7764D02*
Y7784D01*
X13208Y7774D02*
X13188D01*
X13198Y7764D02*
Y7784D01*
X13228Y7104D02*
X13248D01*
X13238Y7094D02*
Y7114D01*
X13208Y7419D02*
X13188D01*
X13198Y7409D02*
Y7429D01*
X13228Y7380D02*
X13248D01*
X13238Y7370D02*
Y7390D01*
X13208Y7577D02*
X13188D01*
X13198Y7567D02*
Y7587D01*
X13188Y7498D02*
X13208D01*
X13198Y7488D02*
Y7508D01*
X13228Y7301D02*
X13248D01*
X13238Y7291D02*
Y7311D01*
X13208Y7223D02*
X13188D01*
X13198Y7213D02*
Y7233D01*
X13188Y7183D02*
X13208D01*
X13198Y7173D02*
Y7193D01*
X13169Y7459D02*
X13149D01*
X13159Y7449D02*
Y7469D01*
X13090Y7616D02*
X13070D01*
X13080Y7606D02*
Y7626D01*
X13070Y7380D02*
X13090D01*
X13080Y7370D02*
Y7390D01*
X13149Y7223D02*
X13169D01*
X13159Y7213D02*
Y7233D01*
X13149Y7104D02*
X13169D01*
X13159Y7094D02*
Y7114D01*
X13130Y7656D02*
X13110D01*
X13120Y7646D02*
Y7666D01*
X13149Y7695D02*
X13169D01*
X13159Y7685D02*
Y7705D01*
X13090Y7774D02*
X13070D01*
X13080Y7764D02*
Y7784D01*
X13149Y7813D02*
X13169D01*
X13159Y7803D02*
Y7823D01*
X13090Y7813D02*
X13070D01*
X13080Y7803D02*
Y7823D01*
X13137Y8415D02*
X13157D01*
X13147Y8405D02*
Y8425D01*
X13149Y7183D02*
X13169D01*
X13159Y7173D02*
Y7193D01*
X13169Y7262D02*
X13149D01*
X13159Y7252D02*
Y7272D01*
X13130Y7262D02*
X13110D01*
X13120Y7252D02*
Y7272D01*
X13090Y7301D02*
X13070D01*
X13080Y7291D02*
Y7311D01*
X13110Y7498D02*
X13130D01*
X13120Y7488D02*
Y7508D01*
X13110Y7537D02*
X13130D01*
X13120Y7527D02*
Y7547D01*
X13149Y7616D02*
X13169D01*
X13159Y7606D02*
Y7626D01*
X13149Y7656D02*
X13169D01*
X13159Y7646D02*
Y7666D01*
X13130Y7616D02*
X13110D01*
X13120Y7606D02*
Y7626D01*
X13090Y7656D02*
X13070D01*
X13080Y7646D02*
Y7666D01*
X13149Y7774D02*
X13169D01*
X13159Y7764D02*
Y7784D01*
X13130Y7695D02*
X13110D01*
X13120Y7685D02*
Y7705D01*
X13090Y7695D02*
X13070D01*
X13080Y7685D02*
Y7705D01*
X13110Y7104D02*
X13130D01*
X13120Y7094D02*
Y7114D01*
X13110Y7144D02*
X13130D01*
X13120Y7134D02*
Y7154D01*
X13090Y7577D02*
X13070D01*
X13080Y7567D02*
Y7587D01*
X13110Y7577D02*
X13130D01*
X13120Y7567D02*
Y7587D01*
X13149Y7537D02*
X13169D01*
X13159Y7527D02*
Y7547D01*
X13130Y7301D02*
X13110D01*
X13120Y7291D02*
Y7311D01*
X13149Y7341D02*
X13169D01*
X13159Y7331D02*
Y7351D01*
X13090Y7262D02*
X13070D01*
X13080Y7252D02*
Y7272D01*
X13070Y7223D02*
X13090D01*
X13080Y7213D02*
Y7233D01*
X13070Y7183D02*
X13090D01*
X13080Y7173D02*
Y7193D01*
X13149Y7144D02*
X13169D01*
X13159Y7134D02*
Y7154D01*
X13149Y8081D02*
X13169D01*
X13159Y8071D02*
Y8091D01*
X13149Y7419D02*
X13169D01*
X13159Y7409D02*
Y7429D01*
X13169Y7734D02*
X13149D01*
X13159Y7724D02*
Y7744D01*
X13228Y7065D02*
X13248D01*
X13238Y7055D02*
Y7075D01*
X13228Y6947D02*
X13248D01*
X13238Y6937D02*
Y6957D01*
X13208Y6986D02*
X13188D01*
X13198Y6976D02*
Y6996D01*
X13228Y6908D02*
X13248D01*
X13238Y6898D02*
Y6918D01*
X13208Y7026D02*
X13188D01*
X13198Y7016D02*
Y7036D01*
X13228Y6986D02*
X13248D01*
X13238Y6976D02*
Y6996D01*
X13248Y7026D02*
X13228D01*
X13238Y7016D02*
Y7036D01*
X13208Y6947D02*
X13188D01*
X13198Y6937D02*
Y6957D01*
X13228Y6868D02*
X13248D01*
X13238Y6858D02*
Y6878D01*
X13130Y7026D02*
X13110D01*
X13120Y7016D02*
Y7036D01*
X13110Y6766D02*
X13130D01*
X13120Y6756D02*
Y6776D01*
X13110Y7065D02*
X13130D01*
X13120Y7055D02*
Y7075D01*
X13106Y6502D02*
X13086D01*
X13096Y6492D02*
Y6512D01*
X13078Y6502D02*
X13058D01*
X13068Y6492D02*
Y6512D01*
X13070Y6947D02*
X13090D01*
X13080Y6937D02*
Y6957D01*
X13149Y6947D02*
X13169D01*
X13159Y6937D02*
Y6957D01*
X13130Y6986D02*
X13110D01*
X13120Y6976D02*
Y6996D01*
X13090Y6986D02*
X13070D01*
X13080Y6976D02*
Y6996D01*
X13149Y7026D02*
X13169D01*
X13159Y7016D02*
Y7036D01*
X13130Y6947D02*
X13110D01*
X13120Y6937D02*
Y6957D01*
X13110Y6908D02*
X13130D01*
X13120Y6898D02*
Y6918D01*
X13130Y6703D02*
X13110D01*
X13120Y6693D02*
Y6713D01*
X13090Y6868D02*
X13070D01*
X13080Y6858D02*
Y6878D01*
X13051Y7656D02*
X13031D01*
X13041Y7646D02*
Y7666D01*
X13031Y7695D02*
X13051D01*
X13041Y7685D02*
Y7705D01*
X13051Y7734D02*
X13031D01*
X13041Y7724D02*
Y7744D01*
X13031Y7774D02*
X13051D01*
X13041Y7764D02*
Y7784D01*
X13031Y7301D02*
X13051D01*
X13041Y7291D02*
Y7311D01*
X13031Y7341D02*
X13051D01*
X13041Y7331D02*
Y7351D01*
X13031Y7380D02*
X13051D01*
X13041Y7370D02*
Y7390D01*
X13031Y6986D02*
X13051D01*
X13041Y6976D02*
Y6996D01*
X13031Y6502D02*
X13051D01*
X13041Y6492D02*
Y6512D01*
X13031Y7026D02*
X13051D01*
X13041Y7016D02*
Y7036D01*
X13012Y7301D02*
X12992D01*
X13002Y7291D02*
Y7311D01*
X12992Y7695D02*
X13012D01*
X13002Y7685D02*
Y7705D01*
X12992Y7341D02*
X13012D01*
X13002Y7331D02*
Y7351D01*
X12992Y7734D02*
X13012D01*
X13002Y7724D02*
Y7744D01*
X12992Y7774D02*
X13012D01*
X13002Y7764D02*
Y7784D01*
X12992Y7380D02*
X13012D01*
X13002Y7370D02*
Y7390D01*
X12992Y7978D02*
X13012D01*
X13002Y7968D02*
Y7988D01*
X12992Y7915D02*
X13012D01*
X13002Y7905D02*
Y7925D01*
X12992Y7537D02*
X13012D01*
X13002Y7527D02*
Y7547D01*
X12933Y7695D02*
X12913D01*
X12923Y7685D02*
Y7705D01*
X12913Y7419D02*
X12933D01*
X12923Y7409D02*
Y7429D01*
X12913Y7616D02*
X12933D01*
X12923Y7606D02*
Y7626D01*
X12913Y7656D02*
X12933D01*
X12923Y7646D02*
Y7666D01*
X12893Y7774D02*
X12873D01*
X12883Y7764D02*
Y7784D01*
X12952Y7813D02*
X12972D01*
X12962Y7803D02*
Y7823D01*
X12893Y7813D02*
X12873D01*
X12883Y7803D02*
Y7823D01*
X12952Y7459D02*
X12972D01*
X12962Y7449D02*
Y7469D01*
X12933Y7459D02*
X12913D01*
X12923Y7449D02*
Y7469D01*
X12893Y7616D02*
X12873D01*
X12883Y7606D02*
Y7626D01*
X12913Y7537D02*
X12933D01*
X12923Y7527D02*
Y7547D01*
X12913Y7577D02*
X12933D01*
X12923Y7567D02*
Y7587D01*
X12893Y7656D02*
X12873D01*
X12883Y7646D02*
Y7666D01*
X12873Y7695D02*
X12893D01*
X12883Y7685D02*
Y7705D01*
X12952Y7695D02*
X12972D01*
X12962Y7685D02*
Y7705D01*
X12893Y7734D02*
X12873D01*
X12883Y7724D02*
Y7744D01*
X12913Y7774D02*
X12933D01*
X12923Y7764D02*
Y7784D01*
X12952Y7774D02*
X12972D01*
X12962Y7764D02*
Y7784D01*
X12952Y7734D02*
X12972D01*
X12962Y7724D02*
Y7744D01*
X12893Y7577D02*
X12873D01*
X12883Y7567D02*
Y7587D01*
X12952Y7498D02*
X12972D01*
X12962Y7488D02*
Y7508D01*
X12893Y7419D02*
X12873D01*
X12883Y7409D02*
Y7429D01*
X12952Y7419D02*
X12972D01*
X12962Y7409D02*
Y7429D01*
X12933Y7380D02*
X12913D01*
X12923Y7370D02*
Y7390D01*
X12952Y7380D02*
X12972D01*
X12962Y7370D02*
Y7390D01*
X12933Y7301D02*
X12913D01*
X12923Y7291D02*
Y7311D01*
X12952Y7262D02*
X12972D01*
X12962Y7252D02*
Y7272D01*
X12893Y7183D02*
X12873D01*
X12883Y7173D02*
Y7193D01*
X12913Y7144D02*
X12933D01*
X12923Y7134D02*
Y7154D01*
X12952Y7144D02*
X12972D01*
X12962Y7134D02*
Y7154D01*
X12893Y7537D02*
X12873D01*
X12883Y7527D02*
Y7547D01*
X12873Y7459D02*
X12893D01*
X12883Y7449D02*
Y7469D01*
X12873Y7144D02*
X12893D01*
X12883Y7134D02*
Y7154D01*
X12873Y7104D02*
X12893D01*
X12883Y7094D02*
Y7114D01*
X12972Y6293D02*
X12992D01*
X12982Y6283D02*
Y6303D01*
X12992Y6463D02*
X13012D01*
X13002Y6453D02*
Y6473D01*
X12992Y6443D02*
X12972D01*
X12982Y6433D02*
Y6453D01*
X12992Y7065D02*
X13012D01*
X13002Y7055D02*
Y7075D01*
X12992Y7026D02*
X13012D01*
X13002Y7016D02*
Y7036D01*
X12929Y6089D02*
X12909D01*
X12919Y6079D02*
Y6099D01*
X12909Y6128D02*
X12929D01*
X12919Y6118D02*
Y6138D01*
X12909Y6108D02*
X12889D01*
X12899Y6098D02*
Y6118D01*
X12889Y6148D02*
X12909D01*
X12899Y6138D02*
Y6158D01*
X12952Y7065D02*
X12972D01*
X12962Y7055D02*
Y7075D01*
X12925Y6293D02*
X12905D01*
X12915Y6283D02*
Y6303D01*
X12952Y6423D02*
X12972D01*
X12962Y6413D02*
Y6433D01*
X12952Y6404D02*
X12932D01*
X12942Y6394D02*
Y6414D01*
X12933Y6384D02*
X12913D01*
X12923Y6374D02*
Y6394D01*
X12913Y6364D02*
X12893D01*
X12903Y6354D02*
Y6374D01*
X12893Y6345D02*
X12873D01*
X12883Y6335D02*
Y6355D01*
X12874Y6325D02*
X12854D01*
X12864Y6315D02*
Y6335D01*
X12952Y6986D02*
X12972D01*
X12962Y6976D02*
Y6996D01*
X12933Y7065D02*
X12913D01*
X12923Y7055D02*
Y7075D01*
X12893Y6986D02*
X12873D01*
X12883Y6976D02*
Y6996D01*
X12952Y6947D02*
X12972D01*
X12962Y6937D02*
Y6957D01*
X12933Y7026D02*
X12913D01*
X12923Y7016D02*
Y7036D01*
X12893Y6947D02*
X12873D01*
X12883Y6937D02*
Y6957D01*
X12873Y6908D02*
X12893D01*
X12883Y6898D02*
Y6918D01*
X12873Y7026D02*
X12893D01*
X12883Y7016D02*
Y7036D01*
X12952Y7026D02*
X12972D01*
X12962Y7016D02*
Y7036D01*
X12933Y6947D02*
X12913D01*
X12923Y6937D02*
Y6957D01*
X12952Y6908D02*
X12972D01*
X12962Y6898D02*
Y6918D01*
X12933Y6908D02*
X12913D01*
X12923Y6898D02*
Y6918D01*
X12952Y6766D02*
X12972D01*
X12962Y6756D02*
Y6776D01*
X12952Y6703D02*
X12972D01*
X12962Y6693D02*
Y6713D01*
X12815Y7656D02*
X12795D01*
X12805Y7646D02*
Y7666D01*
X12834Y7915D02*
X12854D01*
X12844Y7905D02*
Y7925D01*
X12834Y7380D02*
X12854D01*
X12844Y7370D02*
Y7390D01*
X12834Y7959D02*
X12854D01*
X12844Y7949D02*
Y7969D01*
X12834Y7616D02*
X12854D01*
X12844Y7606D02*
Y7626D01*
X12815Y7616D02*
X12795D01*
X12805Y7606D02*
Y7626D01*
X12834Y7695D02*
X12854D01*
X12844Y7685D02*
Y7705D01*
X12815Y7380D02*
X12795D01*
X12805Y7370D02*
Y7390D01*
X12842Y8337D02*
X12862D01*
X12852Y8327D02*
Y8347D01*
X12842Y8415D02*
X12862D01*
X12852Y8405D02*
Y8425D01*
X12854Y7656D02*
X12834D01*
X12844Y7646D02*
Y7666D01*
X12815Y7734D02*
X12795D01*
X12805Y7724D02*
Y7744D01*
X12834Y7734D02*
X12854D01*
X12844Y7724D02*
Y7744D01*
X12815Y7774D02*
X12795D01*
X12805Y7764D02*
Y7784D01*
X12834Y7774D02*
X12854D01*
X12844Y7764D02*
Y7784D01*
X12815Y7262D02*
X12795D01*
X12805Y7252D02*
Y7272D01*
X12834Y7301D02*
X12854D01*
X12844Y7291D02*
Y7311D01*
X12815Y7223D02*
X12795D01*
X12805Y7213D02*
Y7233D01*
X12834Y7223D02*
X12854D01*
X12844Y7213D02*
Y7233D01*
X12697Y7301D02*
X12677D01*
X12687Y7291D02*
Y7311D01*
X12716Y7301D02*
X12736D01*
X12726Y7291D02*
Y7311D01*
X12716Y7459D02*
X12736D01*
X12726Y7449D02*
Y7469D01*
X12697Y7813D02*
X12677D01*
X12687Y7803D02*
Y7823D01*
X12716Y7656D02*
X12736D01*
X12726Y7646D02*
Y7666D01*
X12755Y7734D02*
X12775D01*
X12765Y7724D02*
Y7744D01*
X12755Y7813D02*
X12775D01*
X12765Y7803D02*
Y7823D01*
X12697Y7774D02*
X12677D01*
X12687Y7764D02*
Y7784D01*
X12755Y7459D02*
X12775D01*
X12765Y7449D02*
Y7469D01*
X12736Y7341D02*
X12716D01*
X12726Y7331D02*
Y7351D01*
X12720Y8534D02*
X12740D01*
X12730Y8524D02*
Y8544D01*
X12700Y8455D02*
X12680D01*
X12690Y8445D02*
Y8465D01*
X12755Y7419D02*
X12775D01*
X12765Y7409D02*
Y7429D01*
X12755Y7380D02*
X12775D01*
X12765Y7370D02*
Y7390D01*
X12736Y7419D02*
X12716D01*
X12726Y7409D02*
Y7429D01*
X12697Y7380D02*
X12677D01*
X12687Y7370D02*
Y7390D01*
X12677Y7537D02*
X12697D01*
X12687Y7527D02*
Y7547D01*
X12716Y7577D02*
X12736D01*
X12726Y7567D02*
Y7587D01*
X12755Y7616D02*
X12775D01*
X12765Y7606D02*
Y7626D01*
X12697Y7656D02*
X12677D01*
X12687Y7646D02*
Y7666D01*
X12716Y7616D02*
X12736D01*
X12726Y7606D02*
Y7626D01*
X12755Y7656D02*
X12775D01*
X12765Y7646D02*
Y7666D01*
X12697Y7498D02*
X12677D01*
X12687Y7488D02*
Y7508D01*
X12677Y7616D02*
X12697D01*
X12687Y7606D02*
Y7626D01*
X12677Y7695D02*
X12697D01*
X12687Y7685D02*
Y7705D01*
X12716Y7734D02*
X12736D01*
X12726Y7724D02*
Y7744D01*
X12755Y7695D02*
X12775D01*
X12765Y7685D02*
Y7705D01*
X12700Y7734D02*
X12680D01*
X12690Y7724D02*
Y7744D01*
X12716Y7774D02*
X12736D01*
X12726Y7764D02*
Y7784D01*
X12755Y7774D02*
X12775D01*
X12765Y7764D02*
Y7784D01*
X12755Y7262D02*
X12775D01*
X12765Y7252D02*
Y7272D01*
X12697Y7223D02*
X12677D01*
X12687Y7213D02*
Y7233D01*
X12716Y7183D02*
X12736D01*
X12726Y7173D02*
Y7193D01*
X12697Y7144D02*
X12677D01*
X12687Y7134D02*
Y7154D01*
X12716Y7262D02*
X12736D01*
X12726Y7252D02*
Y7272D01*
X12755Y7301D02*
X12775D01*
X12765Y7291D02*
Y7311D01*
X12736Y7223D02*
X12716D01*
X12726Y7213D02*
Y7233D01*
X12755Y7183D02*
X12775D01*
X12765Y7173D02*
Y7193D01*
X12736Y7695D02*
X12716D01*
X12726Y7685D02*
Y7705D01*
X12720Y8494D02*
X12740D01*
X12730Y8484D02*
Y8504D01*
X12720Y8455D02*
X12740D01*
X12730Y8445D02*
Y8465D01*
X12720Y8415D02*
X12740D01*
X12730Y8405D02*
Y8425D01*
X12720Y8258D02*
X12740D01*
X12730Y8248D02*
Y8268D01*
X12720Y8219D02*
X12740D01*
X12730Y8209D02*
Y8229D01*
X12700Y8219D02*
X12680D01*
X12690Y8209D02*
Y8229D01*
X12680Y8337D02*
X12700D01*
X12690Y8327D02*
Y8347D01*
X12680Y8415D02*
X12700D01*
X12690Y8405D02*
Y8425D01*
X12680Y8376D02*
X12700D01*
X12690Y8366D02*
Y8386D01*
X12720Y8297D02*
X12740D01*
X12730Y8287D02*
Y8307D01*
X12720Y8337D02*
X12740D01*
X12730Y8327D02*
Y8347D01*
X12720Y8573D02*
X12740D01*
X12730Y8563D02*
Y8583D01*
X12697Y7104D02*
X12677D01*
X12687Y7094D02*
Y7114D01*
X12716Y7104D02*
X12736D01*
X12726Y7094D02*
Y7114D01*
X12716Y7144D02*
X12736D01*
X12726Y7134D02*
Y7154D01*
X12755Y7144D02*
X12775D01*
X12765Y7134D02*
Y7154D01*
X12697Y7577D02*
X12677D01*
X12687Y7567D02*
Y7587D01*
X12755Y7537D02*
X12775D01*
X12765Y7527D02*
Y7547D01*
X12736Y7380D02*
X12716D01*
X12726Y7370D02*
Y7390D01*
X12755Y7341D02*
X12775D01*
X12765Y7331D02*
Y7351D01*
X12697Y7262D02*
X12677D01*
X12687Y7252D02*
Y7272D01*
X12755Y7223D02*
X12775D01*
X12765Y7213D02*
Y7233D01*
X12697Y7183D02*
X12677D01*
X12687Y7173D02*
Y7193D01*
X12680Y8573D02*
X12700D01*
X12690Y8563D02*
Y8583D01*
X12755Y7104D02*
X12775D01*
X12765Y7094D02*
Y7114D01*
X12795Y6766D02*
X12815D01*
X12805Y6756D02*
Y6776D01*
X12795Y7026D02*
X12815D01*
X12805Y7016D02*
Y7036D01*
X12834Y6270D02*
X12854D01*
X12844Y6260D02*
Y6280D01*
X12834Y6947D02*
X12854D01*
X12844Y6937D02*
Y6957D01*
X12834Y7065D02*
X12854D01*
X12844Y7055D02*
Y7075D01*
X12834Y7026D02*
X12854D01*
X12844Y7016D02*
Y7036D01*
X12815Y6986D02*
X12795D01*
X12805Y6976D02*
Y6996D01*
X12795Y6947D02*
X12815D01*
X12805Y6937D02*
Y6957D01*
X12834Y6908D02*
X12854D01*
X12844Y6898D02*
Y6918D01*
X12811Y6010D02*
X12791D01*
X12801Y6000D02*
Y6020D01*
X12810Y6030D02*
X12830D01*
X12820Y6020D02*
Y6040D01*
X12811Y6049D02*
X12791D01*
X12801Y6039D02*
Y6059D01*
X12810Y6069D02*
X12830D01*
X12820Y6059D02*
Y6079D01*
X12811Y6187D02*
X12791D01*
X12801Y6177D02*
Y6197D01*
X12810Y6207D02*
X12830D01*
X12820Y6197D02*
Y6217D01*
X12810Y6246D02*
X12830D01*
X12820Y6236D02*
Y6256D01*
X12811Y6226D02*
X12791D01*
X12801Y6216D02*
Y6236D01*
X12795Y7065D02*
X12815D01*
X12805Y7055D02*
Y7075D01*
X12834Y6986D02*
X12854D01*
X12844Y6976D02*
Y6996D01*
X12815Y6908D02*
X12795D01*
X12805Y6898D02*
Y6918D01*
X12795Y6868D02*
X12815D01*
X12805Y6858D02*
Y6878D01*
X12834Y6868D02*
X12854D01*
X12844Y6858D02*
Y6878D01*
X12815Y6703D02*
X12795D01*
X12805Y6693D02*
Y6713D01*
X12697Y6734D02*
X12677D01*
X12687Y6724D02*
Y6744D01*
X12677Y6766D02*
X12697D01*
X12687Y6756D02*
Y6776D01*
X12755Y7026D02*
X12775D01*
X12765Y7016D02*
Y7036D01*
X12697Y7065D02*
X12677D01*
X12687Y7055D02*
Y7075D01*
X12685Y6443D02*
X12665D01*
X12675Y6433D02*
Y6453D01*
X12755Y7065D02*
X12775D01*
X12765Y7055D02*
Y7075D01*
X12736Y7026D02*
X12716D01*
X12726Y7016D02*
Y7036D01*
X12716Y7065D02*
X12736D01*
X12726Y7055D02*
Y7075D01*
X12755Y6986D02*
X12775D01*
X12765Y6976D02*
Y6996D01*
X12697Y7026D02*
X12677D01*
X12687Y7016D02*
Y7036D01*
X12755Y6947D02*
X12775D01*
X12765Y6937D02*
Y6957D01*
X12736Y6986D02*
X12716D01*
X12726Y6976D02*
Y6996D01*
X12697Y6947D02*
X12677D01*
X12687Y6937D02*
Y6957D01*
X12677Y6908D02*
X12697D01*
X12687Y6898D02*
Y6918D01*
X12716Y6908D02*
X12736D01*
X12726Y6898D02*
Y6918D01*
X12755Y6908D02*
X12775D01*
X12765Y6898D02*
Y6918D01*
X12697Y6986D02*
X12677D01*
X12687Y6976D02*
Y6996D01*
X12685Y6482D02*
X12665D01*
X12675Y6472D02*
Y6492D01*
X12716Y6947D02*
X12736D01*
X12726Y6937D02*
Y6957D01*
X12697Y6868D02*
X12677D01*
X12687Y6858D02*
Y6878D01*
X12716Y6868D02*
X12736D01*
X12726Y6858D02*
Y6878D01*
X12755Y6868D02*
X12775D01*
X12765Y6858D02*
Y6878D01*
X12618Y7301D02*
X12598D01*
X12608Y7291D02*
Y7311D01*
X12637Y7301D02*
X12657D01*
X12647Y7291D02*
Y7311D01*
X12618Y7616D02*
X12598D01*
X12608Y7606D02*
Y7626D01*
X12637Y7695D02*
X12657D01*
X12647Y7685D02*
Y7705D01*
X12618Y7813D02*
X12598D01*
X12608Y7803D02*
Y7823D01*
X12602Y8297D02*
X12622D01*
X12612Y8287D02*
Y8307D01*
X12641Y8219D02*
X12661D01*
X12651Y8209D02*
Y8229D01*
X12622Y8415D02*
X12602D01*
X12612Y8405D02*
Y8425D01*
X12637Y7341D02*
X12657D01*
X12647Y7331D02*
Y7351D01*
X12618Y7341D02*
X12598D01*
X12608Y7331D02*
Y7351D01*
X12637Y7380D02*
X12657D01*
X12647Y7370D02*
Y7390D01*
X12637Y7459D02*
X12657D01*
X12647Y7449D02*
Y7469D01*
X12657Y7537D02*
X12637D01*
X12647Y7527D02*
Y7547D01*
X12637Y7577D02*
X12657D01*
X12647Y7567D02*
Y7587D01*
X12637Y7656D02*
X12657D01*
X12647Y7646D02*
Y7666D01*
X12637Y7734D02*
X12657D01*
X12647Y7724D02*
Y7744D01*
X12618Y7459D02*
X12598D01*
X12608Y7449D02*
Y7469D01*
X12598Y7498D02*
X12618D01*
X12608Y7488D02*
Y7508D01*
X12618Y7537D02*
X12598D01*
X12608Y7527D02*
Y7547D01*
X12598Y7577D02*
X12618D01*
X12608Y7567D02*
Y7587D01*
X12637Y7616D02*
X12657D01*
X12647Y7606D02*
Y7626D01*
X12618Y7656D02*
X12598D01*
X12608Y7646D02*
Y7666D01*
X12598Y7695D02*
X12618D01*
X12608Y7685D02*
Y7705D01*
X12618Y7734D02*
X12598D01*
X12608Y7724D02*
Y7744D01*
X12598Y7774D02*
X12618D01*
X12608Y7764D02*
Y7784D01*
X12637Y7774D02*
X12657D01*
X12647Y7764D02*
Y7784D01*
X12637Y7223D02*
X12657D01*
X12647Y7213D02*
Y7233D01*
X12637Y7144D02*
X12657D01*
X12647Y7134D02*
Y7154D01*
X12622Y8534D02*
X12602D01*
X12612Y8524D02*
Y8544D01*
X12641Y8415D02*
X12661D01*
X12651Y8405D02*
Y8425D01*
X12641Y8376D02*
X12661D01*
X12651Y8366D02*
Y8386D01*
X12618Y7104D02*
X12598D01*
X12608Y7094D02*
Y7114D01*
X12637Y7104D02*
X12657D01*
X12647Y7094D02*
Y7114D01*
X12637Y7498D02*
X12657D01*
X12647Y7488D02*
Y7508D01*
X12618Y7419D02*
X12598D01*
X12608Y7409D02*
Y7429D01*
X12598Y7223D02*
X12618D01*
X12608Y7213D02*
Y7233D01*
X12637Y7183D02*
X12657D01*
X12647Y7173D02*
Y7193D01*
X12637Y7880D02*
X12657D01*
X12647Y7870D02*
Y7890D01*
X12641Y8573D02*
X12661D01*
X12651Y8563D02*
Y8583D01*
X12622Y8455D02*
X12602D01*
X12612Y8445D02*
Y8465D01*
X12578Y7616D02*
X12558D01*
X12568Y7606D02*
Y7626D01*
X12558Y7104D02*
X12578D01*
X12568Y7094D02*
Y7114D01*
X12558Y7656D02*
X12578D01*
X12568Y7646D02*
Y7666D01*
X12539Y7656D02*
X12519D01*
X12529Y7646D02*
Y7666D01*
X12558Y7695D02*
X12578D01*
X12568Y7685D02*
Y7705D01*
X12558Y7734D02*
X12578D01*
X12568Y7724D02*
Y7744D01*
X12558Y7774D02*
X12578D01*
X12568Y7764D02*
Y7784D01*
X12562Y8376D02*
X12582D01*
X12572Y8366D02*
Y8386D01*
X12562Y8415D02*
X12582D01*
X12572Y8405D02*
Y8425D01*
X12543Y8376D02*
X12523D01*
X12533Y8366D02*
Y8386D01*
X12562Y8494D02*
X12582D01*
X12572Y8484D02*
Y8504D01*
X12543Y8573D02*
X12523D01*
X12533Y8563D02*
Y8583D01*
X12562Y8219D02*
X12582D01*
X12572Y8209D02*
Y8229D01*
X12543Y8219D02*
X12523D01*
X12533Y8209D02*
Y8229D01*
X12504Y8534D02*
X12484D01*
X12494Y8524D02*
Y8544D01*
X12523Y8455D02*
X12543D01*
X12533Y8445D02*
Y8465D01*
X12523Y8337D02*
X12543D01*
X12533Y8327D02*
Y8347D01*
X12558Y7813D02*
X12578D01*
X12568Y7803D02*
Y7823D01*
X12558Y7577D02*
X12578D01*
X12568Y7567D02*
Y7587D01*
X12558Y7537D02*
X12578D01*
X12568Y7527D02*
Y7547D01*
X12558Y7459D02*
X12578D01*
X12568Y7449D02*
Y7469D01*
X12539Y7419D02*
X12519D01*
X12529Y7409D02*
Y7429D01*
X12519Y7144D02*
X12539D01*
X12529Y7134D02*
Y7154D01*
X12558Y7144D02*
X12578D01*
X12568Y7134D02*
Y7154D01*
X12558Y7419D02*
X12578D01*
X12568Y7409D02*
Y7429D01*
X12558Y7498D02*
X12578D01*
X12568Y7488D02*
Y7508D01*
X12574Y7880D02*
X12594D01*
X12584Y7870D02*
Y7890D01*
X12625Y6325D02*
X12645D01*
X12635Y6315D02*
Y6335D01*
X12645Y6266D02*
X12665D01*
X12655Y6256D02*
Y6276D01*
X12645Y6502D02*
X12665D01*
X12655Y6492D02*
Y6512D01*
X12645Y6463D02*
X12665D01*
X12655Y6453D02*
Y6473D01*
X12645Y6423D02*
X12665D01*
X12655Y6413D02*
Y6433D01*
X12645Y6345D02*
X12665D01*
X12655Y6335D02*
Y6355D01*
X12645Y6305D02*
X12665D01*
X12655Y6295D02*
Y6315D01*
X12657Y7065D02*
X12637D01*
X12647Y7055D02*
Y7075D01*
X12637Y7026D02*
X12657D01*
X12647Y7016D02*
Y7036D01*
X12637Y6947D02*
X12657D01*
X12647Y6937D02*
Y6957D01*
X12637Y6908D02*
X12657D01*
X12647Y6898D02*
Y6918D01*
X12626Y6108D02*
X12606D01*
X12616Y6098D02*
Y6118D01*
X12606Y6089D02*
X12586D01*
X12596Y6079D02*
Y6099D01*
X12586Y6207D02*
X12606D01*
X12596Y6197D02*
Y6217D01*
X12625Y6246D02*
X12645D01*
X12635Y6236D02*
Y6256D01*
X12625Y6286D02*
X12645D01*
X12635Y6276D02*
Y6296D01*
X12625Y6364D02*
X12645D01*
X12635Y6354D02*
Y6374D01*
X12625Y6404D02*
X12645D01*
X12635Y6394D02*
Y6414D01*
X12645Y6384D02*
X12665D01*
X12655Y6374D02*
Y6394D01*
X12626Y6226D02*
X12606D01*
X12616Y6216D02*
Y6236D01*
X12618Y7026D02*
X12598D01*
X12608Y7016D02*
Y7036D01*
X12598Y6908D02*
X12618D01*
X12608Y6898D02*
Y6918D01*
X12512Y6786D02*
X12492D01*
X12502Y6776D02*
Y6796D01*
X12547Y6049D02*
X12567D01*
X12557Y6039D02*
Y6059D01*
X12527Y6010D02*
X12507D01*
X12517Y6000D02*
Y6020D01*
X12527Y6030D02*
X12547D01*
X12537Y6020D02*
Y6040D01*
X12566Y6069D02*
X12586D01*
X12576Y6059D02*
Y6079D01*
X12527Y6128D02*
X12507D01*
X12517Y6118D02*
Y6138D01*
X12547Y6167D02*
X12567D01*
X12557Y6157D02*
Y6177D01*
X12547Y6148D02*
X12527D01*
X12537Y6138D02*
Y6158D01*
X12566Y6187D02*
X12586D01*
X12576Y6177D02*
Y6197D01*
X12578Y7065D02*
X12558D01*
X12568Y7055D02*
Y7075D01*
X12558Y7026D02*
X12578D01*
X12568Y7016D02*
Y7036D01*
X12558Y6986D02*
X12578D01*
X12568Y6976D02*
Y6996D01*
X12539Y6908D02*
X12519D01*
X12529Y6898D02*
Y6918D01*
X12558Y6908D02*
X12578D01*
X12568Y6898D02*
Y6918D01*
X12578Y6947D02*
X12558D01*
X12568Y6937D02*
Y6957D01*
X12413Y7856D02*
X12393D01*
X12403Y7846D02*
Y7866D01*
X12456Y7856D02*
X12476D01*
X12466Y7846D02*
Y7866D01*
X12413Y7498D02*
X12393D01*
X12403Y7488D02*
Y7508D01*
X12456Y7498D02*
X12476D01*
X12466Y7488D02*
Y7508D01*
X12456Y7734D02*
X12476D01*
X12466Y7724D02*
Y7744D01*
X12456Y7616D02*
X12476D01*
X12466Y7606D02*
Y7626D01*
X12413Y7734D02*
X12393D01*
X12403Y7724D02*
Y7744D01*
X12393Y7616D02*
X12413D01*
X12403Y7606D02*
Y7626D01*
X12405Y8219D02*
X12425D01*
X12415Y8209D02*
Y8229D01*
X12444Y8455D02*
X12464D01*
X12454Y8445D02*
Y8465D01*
X12444Y8337D02*
X12464D01*
X12454Y8327D02*
Y8347D01*
X12425Y8455D02*
X12405D01*
X12415Y8445D02*
Y8465D01*
X12405Y8337D02*
X12425D01*
X12415Y8327D02*
Y8347D01*
X12444Y8573D02*
X12464D01*
X12454Y8563D02*
Y8583D01*
X12413Y7144D02*
X12393D01*
X12403Y7134D02*
Y7154D01*
X12456Y7144D02*
X12476D01*
X12466Y7134D02*
Y7154D01*
X12464Y8376D02*
X12444D01*
X12454Y8366D02*
Y8386D01*
X12386Y8376D02*
X12366D01*
X12376Y8366D02*
Y8386D01*
X12307Y8455D02*
X12287D01*
X12297Y8445D02*
Y8465D01*
X12287Y8376D02*
X12307D01*
X12297Y8366D02*
Y8386D01*
X12366Y8494D02*
X12386D01*
X12376Y8484D02*
Y8504D01*
X12346Y8534D02*
X12326D01*
X12336Y8524D02*
Y8544D01*
X12307Y8219D02*
X12287D01*
X12297Y8209D02*
Y8229D01*
X12366Y8219D02*
X12386D01*
X12376Y8209D02*
Y8229D01*
X12346Y8219D02*
X12326D01*
X12336Y8209D02*
Y8229D01*
X12326Y8455D02*
X12346D01*
X12336Y8445D02*
Y8465D01*
X12326Y8337D02*
X12346D01*
X12336Y8327D02*
Y8347D01*
X12456Y6908D02*
X12476D01*
X12466Y6898D02*
Y6918D01*
X12413Y6908D02*
X12393D01*
X12403Y6898D02*
Y6918D01*
X12393Y7026D02*
X12413D01*
X12403Y7016D02*
Y7036D01*
X12456Y7026D02*
X12476D01*
X12466Y7016D02*
Y7036D01*
X12386Y6758D02*
X12366D01*
X12376Y6748D02*
Y6768D01*
X12267Y8297D02*
X12247D01*
X12257Y8287D02*
Y8307D01*
X12247Y8455D02*
X12267D01*
X12257Y8445D02*
Y8465D01*
X12247Y8494D02*
X12267D01*
X12257Y8484D02*
Y8504D01*
X12228Y8415D02*
X12208D01*
X12218Y8405D02*
Y8425D01*
X12208Y8494D02*
X12228D01*
X12218Y8484D02*
Y8504D01*
X12208Y8455D02*
X12228D01*
X12218Y8445D02*
Y8465D01*
X12208Y8376D02*
X12228D01*
X12218Y8366D02*
Y8386D01*
X12208Y8337D02*
X12228D01*
X12218Y8327D02*
Y8347D01*
X12247Y8455D02*
X12267D01*
X12257Y8445D02*
Y8465D01*
X12247Y8415D02*
X12267D01*
X12257Y8405D02*
Y8425D01*
X12247Y8376D02*
X12267D01*
X12257Y8366D02*
Y8386D01*
X12228Y8534D02*
X12208D01*
X12218Y8524D02*
Y8544D01*
X12208Y8179D02*
X12228D01*
X12218Y8169D02*
Y8189D01*
X12189Y8415D02*
X12169D01*
X12179Y8405D02*
Y8425D01*
X12149Y8455D02*
X12129D01*
X12139Y8445D02*
Y8465D01*
X12129Y8415D02*
X12149D01*
X12139Y8405D02*
Y8425D01*
X12129Y8494D02*
X12149D01*
X12139Y8484D02*
Y8504D01*
X12169Y8258D02*
X12189D01*
X12179Y8248D02*
Y8268D01*
X12169Y8297D02*
X12189D01*
X12179Y8287D02*
Y8307D01*
X12169Y8337D02*
X12189D01*
X12179Y8327D02*
Y8347D01*
X12110Y6600D02*
X12090D01*
X12100Y6590D02*
Y6610D01*
X12075Y8447D02*
X12055D01*
X12065Y8437D02*
Y8457D01*
X12066Y8313D02*
X12086D01*
X12076Y8303D02*
Y8323D01*
X11988Y7309D02*
X11968D01*
X11978Y7299D02*
Y7319D01*
X11956Y8459D02*
X11936D01*
X11946Y8449D02*
Y8469D01*
X11936Y8380D02*
X11956D01*
X11946Y8370D02*
Y8390D01*
X11936Y8419D02*
X11956D01*
X11946Y8409D02*
Y8429D01*
X11917Y8459D02*
X11897D01*
X11907Y8449D02*
Y8469D01*
X11936Y8498D02*
X11956D01*
X11946Y8488D02*
Y8508D01*
X11917Y8419D02*
X11897D01*
X11907Y8409D02*
Y8429D01*
X11897Y8537D02*
X11917D01*
X11907Y8527D02*
Y8547D01*
X11936Y8537D02*
X11956D01*
X11946Y8527D02*
Y8547D01*
X11936Y8301D02*
X11956D01*
X11946Y8291D02*
Y8311D01*
X11917Y8301D02*
X11897D01*
X11907Y8291D02*
Y8311D01*
X11897Y8341D02*
X11917D01*
X11907Y8331D02*
Y8351D01*
X11897Y8223D02*
X11917D01*
X11907Y8213D02*
Y8233D01*
X11936Y8183D02*
X11956D01*
X11946Y8173D02*
Y8193D01*
X11976Y8380D02*
X11996D01*
X11986Y8370D02*
Y8390D01*
X11976Y8183D02*
X11996D01*
X11986Y8173D02*
Y8193D01*
X11976Y8223D02*
X11996D01*
X11986Y8213D02*
Y8233D01*
X11976Y8262D02*
X11996D01*
X11986Y8252D02*
Y8272D01*
X11956Y8577D02*
X11936D01*
X11946Y8567D02*
Y8587D01*
X11921Y6356D02*
X11901D01*
X11911Y6346D02*
Y6366D01*
X11909Y6128D02*
X11929D01*
X11919Y6118D02*
Y6138D01*
X11984Y6758D02*
X12004D01*
X11994Y6748D02*
Y6768D01*
X11925Y6203D02*
X11905D01*
X11915Y6193D02*
Y6213D01*
X11952Y6600D02*
X11972D01*
X11962Y6590D02*
Y6610D01*
X11878Y8380D02*
X11858D01*
X11868Y8370D02*
Y8390D01*
X11878Y8498D02*
X11858D01*
X11868Y8488D02*
Y8508D01*
X11838Y8498D02*
X11818D01*
X11828Y8488D02*
Y8508D01*
X11858Y8341D02*
X11878D01*
X11868Y8331D02*
Y8351D01*
X11878Y8301D02*
X11858D01*
X11868Y8291D02*
Y8311D01*
X11838Y8419D02*
X11818D01*
X11828Y8409D02*
Y8429D01*
X11858Y8459D02*
X11878D01*
X11868Y8449D02*
Y8469D01*
X11838Y8380D02*
X11818D01*
X11828Y8370D02*
Y8390D01*
X11799Y8380D02*
X11779D01*
X11789Y8370D02*
Y8390D01*
X11720Y8380D02*
X11700D01*
X11710Y8370D02*
Y8390D01*
X11700Y8577D02*
X11720D01*
X11710Y8567D02*
Y8587D01*
X11740Y8498D02*
X11760D01*
X11750Y8488D02*
Y8508D01*
X11740Y8183D02*
X11760D01*
X11750Y8173D02*
Y8193D01*
X11779Y8537D02*
X11799D01*
X11789Y8527D02*
Y8547D01*
X11779Y8183D02*
X11799D01*
X11789Y8173D02*
Y8193D01*
X11720Y8459D02*
X11700D01*
X11710Y8449D02*
Y8469D01*
X11779Y8459D02*
X11799D01*
X11789Y8449D02*
Y8469D01*
X11720Y8341D02*
X11700D01*
X11710Y8331D02*
Y8351D01*
X11779Y8341D02*
X11799D01*
X11789Y8331D02*
Y8351D01*
X11813Y6516D02*
X11833D01*
X11823Y6506D02*
Y6526D01*
X11815Y6065D02*
X11795D01*
X11805Y6055D02*
Y6075D01*
X11795Y6163D02*
X11815D01*
X11805Y6153D02*
Y6173D01*
X11830Y6152D02*
X11850D01*
X11840Y6142D02*
Y6162D01*
X11842Y6372D02*
X11822D01*
X11832Y6362D02*
Y6382D01*
X11842Y6352D02*
X11862D01*
X11852Y6342D02*
Y6362D01*
X11862Y6333D02*
X11882D01*
X11872Y6323D02*
Y6343D01*
X11806Y6325D02*
X11786D01*
X11796Y6315D02*
Y6335D01*
X11790Y6545D02*
X11810D01*
X11800Y6535D02*
Y6555D01*
X11681Y8223D02*
X11661D01*
X11671Y8213D02*
Y8233D01*
X11641Y8183D02*
X11621D01*
X11631Y8173D02*
Y8193D01*
X11661Y7376D02*
X11681D01*
X11671Y7366D02*
Y7386D01*
X11661Y7443D02*
X11681D01*
X11671Y7433D02*
Y7453D01*
X11641Y8380D02*
X11621D01*
X11631Y8370D02*
Y8390D01*
X11661Y8459D02*
X11681D01*
X11671Y8449D02*
Y8469D01*
X11661Y8341D02*
X11681D01*
X11671Y8331D02*
Y8351D01*
X11523Y8459D02*
X11503D01*
X11513Y8449D02*
Y8469D01*
X11503Y8380D02*
X11523D01*
X11513Y8370D02*
Y8390D01*
X11543Y8537D02*
X11563D01*
X11553Y8527D02*
Y8547D01*
X11523Y8498D02*
X11503D01*
X11513Y8488D02*
Y8508D01*
X11503Y8419D02*
X11523D01*
X11513Y8409D02*
Y8429D01*
X11543Y8223D02*
X11563D01*
X11553Y8213D02*
Y8233D01*
X11523Y8341D02*
X11503D01*
X11513Y8331D02*
Y8351D01*
X11582Y8498D02*
X11602D01*
X11592Y8488D02*
Y8508D01*
X11582Y8183D02*
X11602D01*
X11592Y8173D02*
Y8193D01*
X11523Y8301D02*
X11503D01*
X11513Y8291D02*
Y8311D01*
X11543Y8380D02*
X11563D01*
X11553Y8370D02*
Y8390D01*
X11543Y8459D02*
X11563D01*
X11553Y8449D02*
Y8469D01*
X11582Y8341D02*
X11602D01*
X11592Y8331D02*
Y8351D01*
X11582Y8459D02*
X11602D01*
X11592Y8449D02*
Y8469D01*
X11675Y6113D02*
X11695D01*
X11685Y6103D02*
Y6123D01*
X11645Y6282D02*
X11625D01*
X11635Y6272D02*
Y6292D01*
X11665Y6900D02*
X11685D01*
X11675Y6890D02*
Y6910D01*
X11665Y6971D02*
X11685D01*
X11675Y6961D02*
Y6981D01*
X11675Y6030D02*
X11695D01*
X11685Y6020D02*
Y6040D01*
X11693Y6226D02*
X11673D01*
X11683Y6216D02*
Y6236D01*
X11542Y6435D02*
X11522D01*
X11532Y6425D02*
Y6445D01*
X11572Y6168D02*
X11592D01*
X11582Y6158D02*
Y6178D01*
X11572Y6117D02*
X11592D01*
X11582Y6107D02*
Y6127D01*
X11484Y8380D02*
X11464D01*
X11474Y8370D02*
Y8390D01*
X11464Y8459D02*
X11484D01*
X11474Y8449D02*
Y8469D01*
X11484Y8223D02*
X11464D01*
X11474Y8213D02*
Y8233D01*
X11445Y7104D02*
X11425D01*
X11435Y7094D02*
Y7114D01*
X11425Y8498D02*
X11445D01*
X11435Y8488D02*
Y8508D01*
X11425Y8380D02*
X11445D01*
X11435Y8370D02*
Y8390D01*
X11425Y8419D02*
X11445D01*
X11435Y8409D02*
Y8429D01*
X11425Y8459D02*
X11445D01*
X11435Y8449D02*
Y8469D01*
X11425Y8301D02*
X11445D01*
X11435Y8291D02*
Y8311D01*
X11425Y8341D02*
X11445D01*
X11435Y8331D02*
Y8351D01*
X11445Y7577D02*
X11425D01*
X11435Y7567D02*
Y7587D01*
X11315Y7971D02*
X11295D01*
X11305Y7961D02*
Y7981D01*
X11385Y8498D02*
X11405D01*
X11395Y8488D02*
Y8508D01*
X11385Y8419D02*
X11405D01*
X11395Y8409D02*
Y8429D01*
X11389Y7425D02*
X11369D01*
X11379Y7415D02*
Y7435D01*
X11385Y8341D02*
X11405D01*
X11395Y8331D02*
Y8351D01*
X11385Y8262D02*
X11405D01*
X11395Y8252D02*
Y8272D01*
X11385Y8301D02*
X11405D01*
X11395Y8291D02*
Y8311D01*
X11448Y6203D02*
X11468D01*
X11458Y6193D02*
Y6213D01*
X11370Y6171D02*
X11350D01*
X11360Y6161D02*
Y6181D01*
X11375Y6952D02*
X11395D01*
X11385Y6942D02*
Y6962D01*
X11279Y8345D02*
X11259D01*
X11269Y8335D02*
Y8355D01*
X11259Y8415D02*
X11279D01*
X11269Y8405D02*
Y8425D01*
X11244Y7971D02*
X11224D01*
X11234Y7961D02*
Y7981D01*
X11224Y8167D02*
X11244D01*
X11234Y8157D02*
Y8177D01*
X11197Y7467D02*
X11177D01*
X11187Y7457D02*
Y7477D01*
X11118Y7124D02*
X11098D01*
X11108Y7114D02*
Y7134D01*
X11125Y7124D02*
X11145D01*
X11135Y7114D02*
Y7134D01*
X11118Y7600D02*
X11098D01*
X11108Y7590D02*
Y7610D01*
X11125Y7600D02*
X11145D01*
X11135Y7590D02*
Y7610D01*
X11177Y6990D02*
X11197D01*
X11187Y6980D02*
Y7000D01*
X11118Y6990D02*
X11098D01*
X11108Y6980D02*
Y7000D01*
X11094Y7782D02*
X11074D01*
X11084Y7772D02*
Y7792D01*
X11086Y7467D02*
X11106D01*
X11096Y7457D02*
Y7477D01*
X11102Y7317D02*
X11082D01*
X11092Y7307D02*
Y7327D01*
X11093Y8260D02*
X11073D01*
X11083Y8250D02*
Y8270D01*
X11074Y7735D02*
X11094D01*
X11084Y7725D02*
Y7745D01*
X11074Y7258D02*
X11094D01*
X11084Y7248D02*
Y7268D01*
X11015Y7081D02*
X10995D01*
X11005Y7071D02*
Y7091D01*
X11012Y7537D02*
X10992D01*
X11002Y7527D02*
Y7547D01*
X10945Y8301D02*
X10925D01*
X10935Y8291D02*
Y8311D01*
X10959Y7435D02*
X10979D01*
X10969Y7425D02*
Y7445D01*
X11019Y6283D02*
X11039D01*
X11029Y6273D02*
Y6293D01*
X11046Y6435D02*
X11066D01*
X11056Y6425D02*
Y6445D01*
X10979Y6977D02*
X10959D01*
X10969Y6967D02*
Y6987D01*
X10927Y6049D02*
X10907D01*
X10917Y6039D02*
Y6059D01*
X10917Y6117D02*
X10897D01*
X10907Y6107D02*
Y6127D01*
X10912Y7174D02*
X10892D01*
X10902Y7164D02*
Y7184D01*
X10811Y8282D02*
X10791D01*
X10801Y8272D02*
Y8292D01*
X10795Y7246D02*
X10775D01*
X10785Y7236D02*
Y7256D01*
X10752Y7506D02*
X10732D01*
X10742Y7496D02*
Y7516D01*
X10850Y6282D02*
X10870D01*
X10860Y6272D02*
Y6292D01*
X10803Y6490D02*
X10783D01*
X10793Y6480D02*
Y6500D01*
X10752Y7049D02*
X10732D01*
X10742Y7039D02*
Y7059D01*
X10704Y8376D02*
X10684D01*
X10694Y8366D02*
Y8386D01*
X10523Y8321D02*
X10503D01*
X10513Y8311D02*
Y8331D01*
X10503Y8376D02*
X10523D01*
X10513Y8366D02*
Y8386D01*
X10594Y8167D02*
X10614D01*
X10604Y8157D02*
Y8177D01*
X10692Y6282D02*
X10712D01*
X10702Y6272D02*
Y6292D01*
X10622Y6435D02*
X10602D01*
X10612Y6425D02*
Y6445D01*
X10602Y6490D02*
X10622D01*
X10612Y6480D02*
Y6500D01*
X10212Y7321D02*
X10192D01*
X10202Y7311D02*
Y7331D01*
X10173Y7179D02*
X10153D01*
X10163Y7169D02*
Y7189D01*
X10134Y7179D02*
X10114D01*
X10124Y7169D02*
Y7189D01*
X10094Y7179D02*
X10074D01*
X10084Y7169D02*
Y7189D01*
X10055Y7179D02*
X10035D01*
X10045Y7169D02*
Y7189D01*
X9937Y7321D02*
X9917D01*
X9927Y7311D02*
Y7331D01*
X9995Y7179D02*
X10015D01*
X10005Y7169D02*
Y7189D01*
X9976Y7179D02*
X9956D01*
X9966Y7169D02*
Y7189D01*
X10082Y6313D02*
X10102D01*
X10092Y6303D02*
Y6323D01*
X9897Y7179D02*
X9877D01*
X9887Y7169D02*
Y7189D01*
X9858Y7179D02*
X9838D01*
X9848Y7169D02*
Y7189D01*
X9819Y7179D02*
X9799D01*
X9809Y7169D02*
Y7189D01*
X9779Y7179D02*
X9759D01*
X9769Y7169D02*
Y7189D01*
X9740Y7179D02*
X9720D01*
X9730Y7169D02*
Y7189D01*
X9700Y7179D02*
X9680D01*
X9690Y7169D02*
Y7189D01*
X9661Y7321D02*
X9641D01*
X9651Y7311D02*
Y7331D01*
X9622Y7179D02*
X9602D01*
X9612Y7169D02*
Y7189D01*
X9582Y7179D02*
X9562D01*
X9572Y7169D02*
Y7189D01*
X9543Y7179D02*
X9523D01*
X9533Y7169D02*
Y7189D01*
X9680Y6526D02*
X9700D01*
X9690Y6516D02*
Y6536D01*
X9680Y6494D02*
X9700D01*
X9690Y6484D02*
Y6504D01*
X9680Y6431D02*
X9700D01*
X9690Y6421D02*
Y6441D01*
X9680Y6463D02*
X9700D01*
X9690Y6453D02*
Y6473D01*
X9700Y6557D02*
X9680D01*
X9690Y6547D02*
Y6567D01*
X9634Y6313D02*
X9614D01*
X9624Y6303D02*
Y6323D01*
X9606Y6313D02*
X9586D01*
X9596Y6303D02*
Y6323D01*
X9637Y6860D02*
X9657D01*
X9647Y6850D02*
Y6870D01*
X9637Y6786D02*
X9657D01*
X9647Y6776D02*
Y6796D01*
X9504Y7179D02*
X9484D01*
X9494Y7169D02*
Y7189D01*
X9464Y7179D02*
X9444D01*
X9454Y7169D02*
Y7189D01*
X9425Y7179D02*
X9405D01*
X9415Y7169D02*
Y7189D01*
X9386Y7321D02*
X9366D01*
X9376Y7311D02*
Y7331D01*
X9472Y6286D02*
X9492D01*
X9482Y6276D02*
Y6296D01*
X9503Y6286D02*
X9523D01*
X9513Y6276D02*
Y6296D01*
X9437Y6490D02*
X9417D01*
X9427Y6480D02*
Y6500D01*
X9429Y6604D02*
X9409D01*
X9419Y6594D02*
Y6614D01*
X9409Y6423D02*
X9389D01*
X9399Y6413D02*
Y6433D01*
X9378Y6423D02*
X9358D01*
X9368Y6413D02*
Y6433D01*
X9352Y6918D02*
X9332D01*
X9342Y6908D02*
Y6928D01*
X9377Y6286D02*
X9397D01*
X9387Y6276D02*
Y6296D01*
X9366Y6286D02*
X9346D01*
X9356Y6276D02*
Y6296D01*
X9409Y6286D02*
X9429D01*
X9419Y6276D02*
Y6296D01*
X9440Y6286D02*
X9460D01*
X9450Y6276D02*
Y6296D01*
X9346Y7179D02*
X9326D01*
X9336Y7169D02*
Y7189D01*
X9307Y7179D02*
X9287D01*
X9297Y7169D02*
Y7189D01*
X9267Y7179D02*
X9247D01*
X9257Y7169D02*
Y7189D01*
X9228Y7179D02*
X9208D01*
X9218Y7169D02*
Y7189D01*
X9189Y7321D02*
X9169D01*
X9179Y7311D02*
Y7331D01*
X9326Y6423D02*
X9346D01*
X9336Y6413D02*
Y6433D01*
X9311Y6423D02*
X9291D01*
X9301Y6413D02*
Y6433D01*
X9303Y6286D02*
X9283D01*
X9293Y6276D02*
Y6296D01*
X9314Y6286D02*
X9334D01*
X9324Y6276D02*
Y6296D01*
X9330Y6553D02*
X9310D01*
X9320Y6543D02*
Y6563D01*
X9181Y6226D02*
X9161D01*
X9171Y6216D02*
Y6236D01*
X9180Y6628D02*
X9200D01*
X9190Y6618D02*
Y6638D01*
X9180Y6581D02*
X9200D01*
X9190Y6571D02*
Y6591D01*
X9149Y7191D02*
X9129D01*
X9139Y7181D02*
Y7201D01*
X9110Y7191D02*
X9090D01*
X9100Y7181D02*
Y7201D01*
X9071Y7321D02*
X9051D01*
X9061Y7311D02*
Y7331D01*
X9094Y6750D02*
X9114D01*
X9104Y6740D02*
Y6760D01*
X9043Y6750D02*
X9023D01*
X9033Y6740D02*
Y6760D01*
X6634Y7667D02*
X6614D01*
X6624Y7657D02*
Y7677D01*
X6614Y7616D02*
X6634D01*
X6624Y7606D02*
Y7626D01*
X6633Y7786D02*
X6653D01*
X6643Y7776D02*
Y7796D01*
X6634Y7762D02*
X6614D01*
X6624Y7752D02*
Y7772D01*
X5567Y7467D02*
X5547D01*
X5557Y7457D02*
Y7477D01*
X5299Y7571D02*
X5279D01*
X5289Y7561D02*
Y7581D01*
X5334Y7215D02*
X5354D01*
X5344Y7205D02*
Y7225D01*
X5291Y7112D02*
X5271D01*
X5281Y7102D02*
Y7122D01*
X5286Y7318D02*
X5306D01*
X5296Y7308D02*
Y7328D01*
X5286Y7883D02*
X5306D01*
X5296Y7873D02*
Y7893D01*
X5236Y7018D02*
X5216D01*
X5226Y7008D02*
Y7028D01*
X5191Y7363D02*
X5171D01*
X5181Y7353D02*
Y7373D01*
X5171Y7928D02*
X5191D01*
X5181Y7918D02*
Y7938D01*
X5046Y7718D02*
X5026D01*
X5036Y7708D02*
Y7728D01*
X5145Y6868D02*
X5165D01*
X5155Y6858D02*
Y6878D01*
X5204Y6967D02*
X5224D01*
X5214Y6957D02*
Y6977D01*
X4984Y7667D02*
X4964D01*
X4974Y7657D02*
Y7677D01*
X5021Y7266D02*
X5041D01*
X5031Y7256D02*
Y7276D01*
X4992Y6624D02*
X4972D01*
X4982Y6614D02*
Y6634D01*
X4972Y6762D02*
X4992D01*
X4982Y6752D02*
Y6772D01*
X4870Y6518D02*
X4850D01*
X4860Y6508D02*
Y6528D01*
X4795Y7412D02*
X4775D01*
X4785Y7402D02*
Y7422D01*
X4818Y7667D02*
X4838D01*
X4828Y7657D02*
Y7677D01*
X4796Y6868D02*
X4776D01*
X4786Y6858D02*
Y6878D01*
X4681Y6482D02*
X4661D01*
X4671Y6472D02*
Y6492D01*
X15569Y6796D02*
X15599D01*
X15584Y6781D02*
Y6811D01*
X15569Y7196D02*
X15599D01*
X15584Y7181D02*
Y7211D01*
X15399Y7096D02*
X15369D01*
X15384Y7081D02*
Y7111D01*
X15369Y6996D02*
X15399D01*
X15384Y6981D02*
Y7011D01*
X15369Y7705D02*
X15399D01*
X15384Y7690D02*
Y7720D01*
X15369Y7805D02*
X15399D01*
X15384Y7790D02*
Y7820D01*
X15569Y7905D02*
X15599D01*
X15584Y7890D02*
Y7920D01*
X15569Y7505D02*
X15599D01*
X15584Y7490D02*
Y7520D01*
X15569Y8214D02*
X15599D01*
X15584Y8199D02*
Y8229D01*
X15569Y8614D02*
X15599D01*
X15584Y8599D02*
Y8629D01*
X15399Y8514D02*
X15369D01*
X15384Y8499D02*
Y8529D01*
X15369Y8414D02*
X15399D01*
X15384Y8399D02*
Y8429D01*
X15211Y7168D02*
X15181D01*
X15196Y7153D02*
Y7183D01*
X15569Y6287D02*
X15599D01*
X15584Y6272D02*
Y6302D01*
X15668Y6386D02*
X15698D01*
X15683Y6371D02*
Y6401D01*
X15500Y6386D02*
X15470D01*
X15485Y6371D02*
Y6401D01*
X15470Y6188D02*
X15500D01*
X15485Y6173D02*
Y6203D01*
X15668Y6188D02*
X15698D01*
X15683Y6173D02*
Y6203D01*
X15399Y6287D02*
X15369D01*
X15384Y6272D02*
Y6302D01*
X15369Y6387D02*
X15399D01*
X15384Y6372D02*
Y6402D01*
X15569Y6487D02*
X15599D01*
X15584Y6472D02*
Y6502D01*
X15569Y6087D02*
X15599D01*
X15584Y6072D02*
Y6102D01*
X14146Y7951D02*
X14116D01*
X14131Y7936D02*
Y7966D01*
X11072Y6561D02*
X11042D01*
X11057Y6546D02*
Y6576D01*
X11142Y6561D02*
X11172D01*
X11157Y6546D02*
Y6576D01*
X11242Y6561D02*
X11272D01*
X11257Y6546D02*
Y6576D01*
X11342Y6561D02*
X11372D01*
X11357Y6546D02*
Y6576D01*
X11442Y6561D02*
X11472D01*
X11457Y6546D02*
Y6576D01*
X11542Y6561D02*
X11572D01*
X11557Y6546D02*
Y6576D01*
X11642Y6561D02*
X11672D01*
X11657Y6546D02*
Y6576D01*
X10229Y6600D02*
X10199D01*
X10214Y6585D02*
Y6615D01*
X10357Y6600D02*
X10387D01*
X10372Y6585D02*
Y6615D01*
X10150Y6679D02*
X10120D01*
X10135Y6664D02*
Y6694D01*
X10278Y6679D02*
X10308D01*
X10293Y6664D02*
Y6694D01*
X10303Y7345D02*
X10333D01*
X10318Y7330D02*
Y7360D01*
X8959Y7345D02*
X8929D01*
X8944Y7330D02*
Y7360D01*
X9227Y6808D02*
X9257D01*
X9242Y6793D02*
Y6823D01*
X9427Y6808D02*
X9457D01*
X9442Y6793D02*
Y6823D01*
X4358Y7300D02*
X4328D01*
X4343Y7285D02*
Y7315D01*
X4328Y6900D02*
X4358D01*
X4343Y6885D02*
Y6915D01*
X4258Y7850D02*
X4228D01*
X4243Y7835D02*
Y7865D01*
X4328Y7800D02*
X4358D01*
X4343Y7785D02*
Y7815D01*
X4258Y7750D02*
X4228D01*
X4243Y7735D02*
Y7765D01*
X4328Y7700D02*
X4358D01*
X4343Y7685D02*
Y7715D01*
X4258Y7650D02*
X4228D01*
X4243Y7635D02*
Y7665D01*
X4328Y7600D02*
X4358D01*
X4343Y7585D02*
Y7615D01*
X4258Y7550D02*
X4228D01*
X4243Y7535D02*
Y7565D01*
X4328Y7500D02*
X4358D01*
X4343Y7485D02*
Y7515D01*
X4258Y7450D02*
X4228D01*
X4243Y7435D02*
Y7465D01*
X4328Y7400D02*
X4358D01*
X4343Y7385D02*
Y7415D01*
X4258Y7350D02*
X4228D01*
X4243Y7335D02*
Y7365D01*
X4228Y7250D02*
X4258D01*
X4243Y7235D02*
Y7265D01*
X4328Y7200D02*
X4358D01*
X4343Y7185D02*
Y7215D01*
X4258Y7150D02*
X4228D01*
X4243Y7135D02*
Y7165D01*
X4328Y7100D02*
X4358D01*
X4343Y7085D02*
Y7115D01*
X4258Y7050D02*
X4228D01*
X4243Y7035D02*
Y7065D01*
X4328Y7000D02*
X4358D01*
X4343Y6985D02*
Y7015D01*
X4258Y6950D02*
X4228D01*
X4243Y6935D02*
Y6965D01*
X4256Y6844D02*
X4286D01*
X4271Y6829D02*
Y6859D01*
X15746Y6683D02*
X15828D01*
X15746Y5943D02*
X4096D01*
Y8718D02*
X15828D01*
X15746Y6683D02*
Y5943D01*
X15828Y6683D02*
Y8718D01*
X4096D02*
Y5943D01*
D02*
M02*
