*%FSLAX23Y23*%
*%MOIN*%
G01*
D11*
X15746Y6683D02*
X15828D01*
X15746Y5943D02*
X4096D01*
Y8718D02*
X15828D01*
X15746Y6683D02*
Y5943D01*
X15828Y6683D02*
Y8718D01*
X4096D02*
Y5943D01*
D12*
X12175Y6392D02*
X12348Y6565D01*
X12190D02*
X12357Y6731D01*
X12175Y6392D02*
X10612D01*
X10602Y6454D02*
X10621D01*
Y6416D02*
X10602D01*
Y6472D02*
X10621D01*
X10784D02*
X10802D01*
X11046Y6454D02*
X11065D01*
Y6416D02*
X11046D01*
X11523Y6454D02*
X11541D01*
Y6416D02*
X11523D01*
X10811Y6483D02*
X12266D01*
X10774D02*
X10630D01*
X10593D02*
X10568D01*
X10811Y6478D02*
X12261D01*
X10774D02*
X10630D01*
X10593D02*
X10568D01*
X10811Y6473D02*
X12256D01*
X10811D02*
X10804D01*
X10782D02*
X10774D01*
X10630D01*
X10622D01*
X10601D02*
X10593D01*
X10568D01*
Y6468D02*
X12251D01*
X12246Y6463D02*
X10568D01*
Y6458D02*
X12241D01*
X12236Y6453D02*
X11551D01*
X11542D01*
X11522D02*
X11513D01*
X11074D01*
X11066D01*
X11046D02*
X11037D01*
X10630D01*
X10622D01*
X10602D02*
X10593D01*
X10568D01*
X11551Y6448D02*
X12231D01*
X11513D02*
X11074D01*
X11037D02*
X10630D01*
X10593D02*
X10568D01*
X11551Y6443D02*
X12226D01*
X11513D02*
X11074D01*
X11037D02*
X10630D01*
X10593D02*
X10568D01*
X11551Y6438D02*
X12221D01*
X11513D02*
X11074D01*
X11037D02*
X10630D01*
X10593D02*
X10568D01*
X11551Y6433D02*
X12216D01*
X11513D02*
X11074D01*
X11037D02*
X10630D01*
X10593D02*
X10571D01*
X11551Y6428D02*
X12211D01*
X11513D02*
X11074D01*
X11037D02*
X10630D01*
X10593D02*
X10576D01*
X11551Y6423D02*
X12206D01*
X11513D02*
X11074D01*
X11037D02*
X10630D01*
X10593D02*
X10581D01*
X11551Y6418D02*
X12201D01*
X11551D02*
X11543D01*
X11521D02*
X11513D01*
X11074D01*
X11066D01*
X11045D02*
X11037D01*
X10630D01*
X10623D01*
X10601D02*
X10593D01*
X10586D01*
X10591Y6413D02*
X12196D01*
X12191Y6408D02*
X10596D01*
X10601Y6403D02*
X12186D01*
X12181Y6398D02*
X10606D01*
X10611Y6393D02*
X12176D01*
X12190Y6565D02*
X11726D01*
X11695Y6534D02*
X11694D01*
X11618D02*
X11613D01*
X11600D01*
X11595D01*
X11518D02*
X11513D01*
X11500D01*
X11495D01*
X11418D02*
X11413D01*
X11400D01*
X11395D01*
X11318D02*
X11313D01*
X11300D01*
X11295D01*
X11218D02*
X11213D01*
X11200D01*
X11195D01*
X11118D02*
X11113D01*
X11100D01*
X11013D02*
X10612D01*
X10602Y6509D02*
X10621D01*
X10784D02*
X10802D01*
X11818Y6534D02*
X11833D01*
X11818D02*
X11817D01*
X11814Y6497D02*
X11833D01*
X11809Y6564D02*
X11790D01*
X11805Y6527D02*
X11806D01*
X11805D02*
X11790D01*
X11679Y6517D02*
X11635D01*
X11579D02*
X11535D01*
X11479D02*
X11435D01*
X11379D02*
X11335D01*
X11279D02*
X11235D01*
X11179D02*
X11135D01*
X11100D02*
X11013D01*
X12208Y6583D02*
X12366D01*
X12361Y6578D02*
X12203D01*
X12198Y6573D02*
X12356D01*
X12351Y6568D02*
X12193D01*
X12346Y6563D02*
X11818D01*
X11810D01*
X11789D02*
X11781D01*
X11724D01*
X11818Y6558D02*
X12341D01*
X11781D02*
X11719D01*
X11818Y6548D02*
X12331D01*
X11781D02*
X11709D01*
X11818Y6543D02*
X12326D01*
X11781D02*
X11704D01*
X11818Y6538D02*
X12321D01*
X11781D02*
X11700D01*
X11842Y6533D02*
X12316D01*
X11842D02*
X11834D01*
X11781D02*
X11700D01*
X11694D01*
X11619D02*
X11613D01*
X11600D01*
X11594D01*
X11519D02*
X11513D01*
X11500D01*
X11494D01*
X11419D02*
X11413D01*
X11400D01*
X11394D01*
X11319D02*
X11313D01*
X11300D01*
X11294D01*
X11219D02*
X11213D01*
X11200D01*
X11194D01*
X11119D02*
X11113D01*
X11100D01*
X11013D02*
X10611D01*
X11842Y6528D02*
X12311D01*
X11789D02*
X11781D01*
X11689D01*
X11624D02*
X11589D01*
X11524D02*
X11489D01*
X11424D02*
X11389D01*
X11324D02*
X11289D01*
X11224D02*
X11189D01*
X11124D02*
X11100D01*
X11013D02*
X10606D01*
X11842Y6523D02*
X12306D01*
X11805D02*
X11684D01*
X11629D02*
X11584D01*
X11529D02*
X11484D01*
X11429D02*
X11384D01*
X11329D02*
X11284D01*
X11229D02*
X11184D01*
X11129D02*
X11100D01*
X11013D02*
X10601D01*
X11842Y6518D02*
X12301D01*
X11805D02*
X11679D01*
X11634D02*
X11579D01*
X11534D02*
X11479D01*
X11434D02*
X11379D01*
X11334D02*
X11279D01*
X11234D02*
X11179D01*
X11134D02*
X11100D01*
X11013D02*
X10596D01*
X11842Y6513D02*
X12296D01*
X11805D02*
X11100D01*
X11013D01*
X10591D01*
X11842Y6508D02*
X12291D01*
X11805D02*
X10811D01*
X10803D01*
X10783D02*
X10774D01*
X10630D01*
X10622D01*
X10602D02*
X10593D01*
X10586D01*
X11842Y6503D02*
X12286D01*
X11805D02*
X10811D01*
X10774D02*
X10630D01*
X10593D02*
X10581D01*
X11842Y6498D02*
X12281D01*
X11842D02*
X11833D01*
X11813D02*
X11805D01*
X10811D01*
X10774D02*
X10630D01*
X10593D02*
X10576D01*
X10811Y6493D02*
X12276D01*
X10774D02*
X10630D01*
X10593D02*
X10571D01*
X10811Y6488D02*
X12271D01*
X10774D02*
X10630D01*
X10593D02*
X10568D01*
X11820Y6553D02*
X12332D01*
X11805Y6530D02*
X11785D01*
Y6534D02*
X11805D01*
X12303Y6678D02*
X12461D01*
X12456Y6673D02*
X12298D01*
X12293Y6668D02*
X12451D01*
X12446Y6663D02*
X12288D01*
X12283Y6658D02*
X12441D01*
X12436Y6653D02*
X12278D01*
X12273Y6648D02*
X12431D01*
X12426Y6643D02*
X12268D01*
X12263Y6638D02*
X12421D01*
X12416Y6633D02*
X12258D01*
X12253Y6628D02*
X12411D01*
X12406Y6623D02*
X12248D01*
X12243Y6618D02*
X12401D01*
X12396Y6613D02*
X12238D01*
X12233Y6608D02*
X12391D01*
X12386Y6603D02*
X12228D01*
X12223Y6598D02*
X12381D01*
X12376Y6593D02*
X12218D01*
X12213Y6588D02*
X12371D01*
X12435Y6703D02*
X12446D01*
X12457D01*
X12459D02*
X12486D01*
X12446Y6708D02*
X12435D01*
Y6713D02*
X12446D01*
X12442Y6718D02*
X12435D01*
X12509Y6733D02*
X12516D01*
X12509Y6738D02*
X12668D01*
X12705D02*
X13293D01*
X12486Y6743D02*
X12474D01*
X12486D02*
X12509D01*
X12668D01*
X12705D02*
X13298D01*
X12486Y6748D02*
X12469D01*
X12486D02*
X12509D01*
X12668D01*
X12705D02*
X12943D01*
X12952D01*
X12972D02*
X12981D01*
X13258D01*
X13267D01*
X13287D02*
X13296D01*
X13303D01*
X12668Y6753D02*
X12464D01*
X12705D02*
X12943D01*
X12981D02*
X13258D01*
X13296D02*
X13308D01*
X12668Y6758D02*
X12459D01*
X12705D02*
X12943D01*
X12981D02*
X13258D01*
X13296D02*
X13313D01*
X12668Y6763D02*
X12454D01*
X12705D02*
X12943D01*
X12981D02*
X13258D01*
X13296D02*
X13318D01*
X12483Y6768D02*
X12449D01*
X12483D02*
X12491D01*
X12512D02*
X12520D01*
X12668D01*
X12705D02*
X12943D01*
X12981D02*
X13258D01*
X13296D02*
X13320D01*
X12483Y6773D02*
X12444D01*
X12520D02*
X12668D01*
X12705D02*
X12943D01*
X12981D02*
X13258D01*
X13296D02*
X13320D01*
X12483Y6778D02*
X12442D01*
X12520D02*
X12668D01*
X12705D02*
X12943D01*
X12981D02*
X13258D01*
X13296D02*
X13320D01*
X13286Y6747D02*
X13268D01*
X12971D02*
X12953D01*
X12511Y6767D02*
X12492D01*
X12446Y6707D02*
X12446D01*
X12446D02*
X12453D01*
X12463D01*
X12486D01*
Y6742D02*
X12475D01*
X12446Y6699D02*
X12435D01*
X12446D02*
X12482D01*
X12517Y6734D02*
X12668D01*
X12705D02*
X13289D01*
X12476Y6693D02*
X12318D01*
X12454Y6723D02*
X12459D01*
X12454D02*
X12454D01*
X12451D01*
X12430Y6754D02*
X12429D01*
X12424D01*
X12423D01*
X12429Y6753D02*
X12431D01*
X12429D02*
X12424D01*
X12423D01*
X12434Y6748D02*
X12436D01*
X12434D02*
X12429D01*
X12439Y6743D02*
X12441D01*
X12439D02*
X12434D01*
X12444Y6738D02*
X12446D01*
X12444D02*
X12439D01*
X12449Y6733D02*
X12451D01*
X12449D02*
X12444D01*
X12454Y6728D02*
X12456D01*
X12454D02*
X12454D01*
X12449D01*
X12461Y6723D02*
X12464D01*
X12461D02*
X12459D01*
X12454D01*
X12454D01*
X12461Y6723D02*
X12464D01*
X12466D02*
X12469D01*
X12471D02*
X12473D01*
X12476D02*
X12478D01*
X12481D02*
X12483D01*
X12486D02*
X12488D01*
X12491D02*
X12493D01*
X12459D02*
X12456D01*
X12385Y6739D02*
X12366D01*
X12365D01*
X12403Y6778D02*
X12423D01*
Y6773D02*
X12398D01*
X12394Y6768D02*
X12420D01*
X12421Y6763D02*
X12394D01*
Y6758D02*
X12423D01*
Y6753D02*
X12394D01*
Y6748D02*
X12423D01*
X12429Y6743D02*
X12394D01*
X12363Y6738D02*
X12434D01*
X12439Y6733D02*
X12358D01*
X12353Y6728D02*
X12444D01*
X12449Y6723D02*
X12348D01*
X12343Y6718D02*
X12454D01*
X12496Y6713D02*
X12338D01*
X12333Y6708D02*
X12491D01*
X12486Y6703D02*
X12328D01*
X12323Y6698D02*
X12481D01*
X12471Y6688D02*
X12313D01*
X12308Y6683D02*
X12466D01*
X12498Y6730D02*
X12505D01*
X12498D02*
X12462D01*
X12458Y6719D02*
X12498D01*
X12431Y6746D02*
X12427D01*
X12458Y6726D02*
X12498D01*
X12509Y6738D02*
X12474D01*
X12470Y6734D02*
X12509D01*
Y6726D02*
X12498D01*
X12667Y6847D02*
X12706D01*
X12746Y6848D02*
X12785D01*
X12824D02*
X12864D01*
X12483Y6783D02*
X12442D01*
X12520D02*
X12668D01*
X12676D01*
X12697D02*
X12705D01*
X12943D01*
X12951D01*
X12973D02*
X12981D01*
X13258D01*
X13266D01*
X13288D02*
X13296D01*
X13320D01*
X12483Y6788D02*
X12442D01*
X12520D02*
X13320D01*
X12483Y6793D02*
X12442D01*
X12520D02*
X13320D01*
X12483Y6798D02*
X12443D01*
X12520D02*
X13320D01*
X12483Y6803D02*
X12442D01*
X12483D02*
X12491D01*
X12512D02*
X12520D01*
X13320D01*
Y6808D02*
X12442D01*
Y6813D02*
X13320D01*
Y6818D02*
X12442D01*
X12435Y6823D02*
X13320D01*
Y6828D02*
X12435D01*
Y6833D02*
X13320D01*
Y6838D02*
X12435D01*
Y6843D02*
X13320D01*
Y6848D02*
X12435D01*
Y6853D02*
X12668D01*
X12863D02*
X13062D01*
X13099D02*
X13219D01*
X13256D02*
X13320D01*
X12668Y6858D02*
X12435D01*
X12863D02*
X13062D01*
X13099D02*
X13219D01*
X13256D02*
X13320D01*
X12668Y6863D02*
X12435D01*
X12863D02*
X13062D01*
X13099D02*
X13219D01*
X13256D02*
X13320D01*
X12668Y6868D02*
X12435D01*
X12863D02*
X13062D01*
X13099D02*
X13219D01*
X13256D02*
X13320D01*
X12668Y6873D02*
X12435D01*
X12863D02*
X13062D01*
X13099D02*
X13219D01*
X13256D02*
X13320D01*
X13329D01*
X12668Y6878D02*
X12435D01*
X12863D02*
X13062D01*
X13099D02*
X13219D01*
X13256D02*
X13334D01*
X13286Y6784D02*
X13268D01*
X13247Y6850D02*
X13228D01*
X13090D02*
X13071D01*
X12971Y6784D02*
X12953D01*
X12696D02*
X12677D01*
X12677Y6850D02*
X12696D01*
X12717D02*
X12735D01*
X12756D02*
X12775D01*
X12795D02*
X12814D01*
X12835D02*
X12853D01*
X12511Y6804D02*
X12492D01*
X12442Y6809D02*
X12439D01*
X12423Y6788D02*
X12413D01*
X12408Y6783D02*
X12423D01*
X12486Y6707D02*
X12490D01*
X12486Y6742D02*
X12509D01*
X12439Y6809D02*
X12435D01*
X12504Y6723D02*
X12505D01*
X12494D02*
X12493D01*
X12489D01*
X12488D01*
X12484D01*
X12483D01*
X12479D01*
X12478D01*
X12474D01*
X12473D01*
X12471D01*
X12469D01*
X12464D01*
X12461D01*
X12459D01*
X12588Y6887D02*
X12627D01*
X12903D02*
X12942D01*
X13060Y6928D02*
X13100D01*
X13139Y6927D02*
X13179D01*
X13218Y6888D02*
X13219D01*
X13257D01*
X13297D02*
X13336D01*
X13376D02*
X13415D01*
X12668Y6883D02*
X12435D01*
X12863D02*
X13062D01*
X13099D02*
X13219D01*
X13256D02*
X13337D01*
X13427Y6888D02*
X12435D01*
Y6893D02*
X12447D01*
X12485D02*
X12510D01*
X12981D02*
X13101D01*
X13138D02*
X13219D01*
X12447Y6898D02*
X12435D01*
X12485D02*
X12510D01*
X12981D02*
X13101D01*
X13138D02*
X13219D01*
X12447Y6903D02*
X12435D01*
X12485D02*
X12510D01*
X12981D02*
X13101D01*
X13138D02*
X13219D01*
X12447Y6908D02*
X12435D01*
X12485D02*
X12510D01*
X12981D02*
X13101D01*
X13138D02*
X13219D01*
X12447Y6913D02*
X12435D01*
X12485D02*
X12510D01*
X12981D02*
X13101D01*
X13138D02*
X13219D01*
X12447Y6918D02*
X12435D01*
X12485D02*
X12510D01*
X12981D02*
X13101D01*
X13138D02*
X13219D01*
X12447Y6923D02*
X12435D01*
X12447D02*
X12454D01*
X12479D02*
X12485D01*
X12510D01*
X12517D01*
X12542D02*
X12548D01*
X12550D02*
X12556D01*
X12581D02*
X12587D01*
X12589D02*
X12595D01*
X12620D02*
X12626D01*
X12629D02*
X12635D01*
X12660D02*
X12666D01*
X12668D02*
X12674D01*
X12699D02*
X12705D01*
X12707D02*
X12713D01*
X12738D02*
X12745D01*
X12747D02*
X12753D01*
X12778D02*
X12784D01*
X12786D02*
X12792D01*
X12817D02*
X12823D01*
X12825D02*
X12832D01*
X12857D02*
X12863D01*
X12865D02*
X12871D01*
X12896D02*
X12902D01*
X12904D02*
X12910D01*
X12935D02*
X12941D01*
X12943D02*
X12950D01*
X12975D02*
X12981D01*
X13101D01*
X13107D01*
X13132D02*
X13138D01*
X13219D01*
X13225D01*
X13250D02*
X13256D01*
X13258D02*
X13265D01*
X13290D02*
X13296D01*
X13298D02*
X13304D01*
X13329D02*
X13335D01*
X13337D02*
X13343D01*
X13368D02*
X13374D01*
X13377D02*
X13383D01*
X13408D02*
X13414D01*
X13416D02*
X13422D01*
X13447D02*
X13453D01*
X13454Y6928D02*
X12435D01*
Y6933D02*
X12629D01*
X12981D02*
X13062D01*
X13296D02*
X13337D01*
X12629Y6938D02*
X12435D01*
X12981D02*
X13062D01*
X13296D02*
X13337D01*
X12629Y6943D02*
X12435D01*
X12981D02*
X13062D01*
X13296D02*
X13337D01*
X12629Y6948D02*
X12435D01*
X12981D02*
X13062D01*
X13296D02*
X13337D01*
X12629Y6953D02*
X12435D01*
X12981D02*
X13062D01*
X13296D02*
X13337D01*
X12629Y6958D02*
X12435D01*
X12981D02*
X13062D01*
X13296D02*
X13337D01*
X12629Y6963D02*
X12435D01*
X12629D02*
X12635D01*
X12659D02*
X12666D01*
X12668D02*
X12675D01*
X12698D02*
X12705D01*
X12707D02*
X12714D01*
X12738D02*
X12745D01*
X12747D02*
X12753D01*
X12777D02*
X12784D01*
X12786D02*
X12793D01*
X12817D02*
X12823D01*
X12825D02*
X12832D01*
X12856D02*
X12863D01*
X12865D02*
X12872D01*
X12895D02*
X12902D01*
X12904D02*
X12911D01*
X12935D02*
X12941D01*
X12943D02*
X12950D01*
X12974D02*
X12981D01*
X13062D01*
X13068D01*
X13092D02*
X13099D01*
X13101D02*
X13108D01*
X13132D02*
X13138D01*
X13140D02*
X13147D01*
X13171D02*
X13178D01*
X13180D02*
X13186D01*
X13210D02*
X13217D01*
X13219D02*
X13226D01*
X13250D02*
X13256D01*
X13258D02*
X13265D01*
X13289D02*
X13296D01*
X13337D01*
X13344D01*
X13368D02*
X13374D01*
X13377D02*
X13383D01*
X13407D02*
X13414D01*
X13416D02*
X13423D01*
X13446D02*
X13453D01*
X12559Y6968D02*
X12435D01*
X12578D02*
X12677D01*
X12696D02*
X12716D01*
X12736D02*
X12756D01*
X12775D02*
X12795D01*
X12814D02*
X12834D01*
X12854D02*
X12874D01*
X12893D02*
X12952D01*
X12972D02*
X13071D01*
X13090D02*
X13110D01*
X13129D02*
X13189D01*
X13208D02*
X13228D01*
X13247D02*
X13267D01*
X13287D02*
X13307D01*
X13326D02*
X13346D01*
X13365D02*
X13386D01*
X13405D02*
X13425D01*
X13444D02*
X13454D01*
X12550Y6973D02*
X12435D01*
X12587D02*
X12668D01*
X12902D02*
X12943D01*
X12981D02*
X13062D01*
X13138D02*
X13180D01*
X13347Y6968D02*
X13365D01*
X13425Y6928D02*
X13444D01*
Y6966D02*
X13425D01*
X13405Y6968D02*
X13386D01*
X13365Y6928D02*
X13347D01*
Y6966D02*
X13365D01*
X13326Y6968D02*
X13307D01*
X13286Y6928D02*
X13268D01*
Y6966D02*
X13286D01*
Y6889D02*
X13268D01*
Y6926D02*
X13286D01*
X13307Y6889D02*
X13326D01*
Y6926D02*
X13307D01*
X13347Y6889D02*
X13365D01*
Y6926D02*
X13347D01*
X13386Y6928D02*
X13405D01*
Y6966D02*
X13386D01*
X13425Y6889D02*
X13428D01*
X13425Y6926D02*
X13444D01*
X13444Y6968D02*
X13425D01*
X13286Y6968D02*
X13268D01*
X13386Y6889D02*
X13405D01*
Y6926D02*
X13386D01*
X13365Y6887D02*
X13347D01*
X13386D02*
X13405D01*
X13090Y6928D02*
X13071D01*
Y6966D02*
X13090D01*
X13228Y6928D02*
X13247D01*
Y6966D02*
X13228D01*
X13208Y6968D02*
X13189D01*
X13168Y6928D02*
X13150D01*
Y6966D02*
X13168D01*
X13129Y6968D02*
X13110D01*
X13090Y6968D02*
X13071D01*
X13228Y6889D02*
X13247D01*
Y6926D02*
X13228D01*
Y6968D02*
X13247D01*
X13129Y6928D02*
X13110D01*
Y6966D02*
X13129D01*
X13189Y6928D02*
X13208D01*
Y6966D02*
X13189D01*
X13129Y6889D02*
X13110D01*
Y6926D02*
X13129D01*
X13228Y6887D02*
X13247D01*
X13090D02*
X13071D01*
X12971Y6968D02*
X12953D01*
X12893D02*
X12874D01*
X12953Y6928D02*
X12971D01*
Y6966D02*
X12953D01*
X12893Y6928D02*
X12874D01*
Y6966D02*
X12893D01*
X12893Y6889D02*
X12874D01*
Y6926D02*
X12893D01*
X12913Y6928D02*
X12932D01*
Y6966D02*
X12913D01*
X12953Y6889D02*
X12971D01*
Y6926D02*
X12953D01*
X12932Y6889D02*
X12913D01*
Y6926D02*
X12932D01*
X12853Y6928D02*
X12835D01*
Y6966D02*
X12853D01*
X12775Y6968D02*
X12756D01*
X12795D02*
X12814D01*
X12775Y6928D02*
X12756D01*
Y6966D02*
X12775D01*
X12735Y6968D02*
X12717D01*
X12696Y6928D02*
X12677D01*
Y6966D02*
X12696D01*
X12696Y6889D02*
X12677D01*
Y6926D02*
X12696D01*
X12717Y6889D02*
X12735D01*
Y6926D02*
X12717D01*
X12756Y6889D02*
X12775D01*
Y6926D02*
X12756D01*
X12795Y6928D02*
X12814D01*
Y6966D02*
X12795D01*
X12835Y6889D02*
X12853D01*
Y6926D02*
X12835D01*
X12696Y6968D02*
X12677D01*
X12835D02*
X12853D01*
X12735Y6928D02*
X12717D01*
Y6966D02*
X12735D01*
X12795Y6889D02*
X12814D01*
Y6926D02*
X12795D01*
X12696Y6887D02*
X12677D01*
X12717D02*
X12735D01*
X12756D02*
X12775D01*
X12795D02*
X12814D01*
X12835D02*
X12853D01*
X12657Y6928D02*
X12638D01*
Y6966D02*
X12657D01*
Y6889D02*
X12638D01*
Y6926D02*
X12657D01*
X12578Y6968D02*
X12559D01*
X12538Y6889D02*
X12520D01*
Y6926D02*
X12538D01*
X12559Y6889D02*
X12578D01*
Y6926D02*
X12559D01*
X12598Y6889D02*
X12617D01*
Y6926D02*
X12598D01*
X12475Y6889D02*
X12457D01*
Y6926D02*
X12475D01*
X13337Y6884D02*
X13340D01*
X13344D01*
X13368D02*
X13374D01*
X13377D01*
X13383D01*
X13407D02*
X13414D01*
X13423D01*
X13021Y7005D02*
X12982D01*
X12550Y6978D02*
X12435D01*
X12587D02*
X12668D01*
X12902D02*
X12943D01*
X12981D02*
X13062D01*
X13138D02*
X13180D01*
X12550Y6983D02*
X12435D01*
X12587D02*
X12668D01*
X12902D02*
X12943D01*
X12981D02*
X13062D01*
X13138D02*
X13180D01*
X12550Y6988D02*
X12435D01*
X12587D02*
X12668D01*
X12902D02*
X12943D01*
X12981D02*
X13062D01*
X13138D02*
X13180D01*
X12550Y6993D02*
X12435D01*
X12587D02*
X12668D01*
X12902D02*
X12943D01*
X12981D02*
X13062D01*
X13138D02*
X13180D01*
X12550Y6998D02*
X12435D01*
X12587D02*
X12668D01*
X12902D02*
X12943D01*
X12981D02*
X13062D01*
X13138D02*
X13180D01*
X12550Y7003D02*
X12435D01*
X12550D02*
X12557D01*
X12580D02*
X12587D01*
X12668D01*
X12675D01*
X12698D02*
X12705D01*
X12707D02*
X12715D01*
X12737D02*
X12745D01*
X12747D02*
X12754D01*
X12777D02*
X12784D01*
X12786D02*
X12793D01*
X12816D02*
X12823D01*
X12825D02*
X12833D01*
X12855D02*
X12863D01*
X12865D02*
X12872D01*
X12895D02*
X12902D01*
X12943D01*
X12951D01*
X12973D02*
X12981D01*
X13062D01*
X13069D01*
X13092D02*
X13099D01*
X13101D02*
X13108D01*
X13131D02*
X13138D01*
X13180D01*
X13187D01*
X13210D02*
X13217D01*
X13219D02*
X13226D01*
X13249D02*
X13256D01*
X13258D02*
X13266D01*
X13288D02*
X13296D01*
X13298D02*
X13305D01*
X13328D02*
X13335D01*
X13337D02*
X13345D01*
X13367D02*
X13374D01*
X13377D02*
X13384D01*
X13406D02*
X13414D01*
X13416D02*
X13423D01*
X13446D02*
X13453D01*
X12550Y7008D02*
X12435D01*
X12550D02*
X12558D01*
X12579D02*
X12587D01*
X12589D02*
X12598D01*
X12618D02*
X12626D01*
X12629D02*
X12637D01*
X12657D02*
X12666D01*
X12668D02*
X12676D01*
X12697D02*
X12705D01*
X12707D02*
X12716D01*
X12736D02*
X12745D01*
X12747D02*
X12755D01*
X12776D02*
X12784D01*
X12786D02*
X12794D01*
X12815D02*
X12823D01*
X12825D02*
X12834D01*
X12854D02*
X12863D01*
X12865D02*
X12873D01*
X12894D02*
X12902D01*
X12904D02*
X12912D01*
X12933D02*
X12941D01*
X12943D02*
X12952D01*
X12972D02*
X12981D01*
X12983D02*
X12991D01*
X13012D02*
X13020D01*
X13022D02*
X13031D01*
X13051D02*
X13060D01*
X13140D01*
X13149D01*
X13169D02*
X13178D01*
X13180D02*
X13188D01*
X13209D02*
X13217D01*
X13219D02*
X13227D01*
X13248D02*
X13256D01*
X13298D01*
X13306D01*
X13327D02*
X13335D01*
X13377D01*
X13385D01*
X13405D02*
X13414D01*
X13416D02*
X13424D01*
X13445D02*
X13453D01*
X12550Y7013D02*
X12435D01*
X13060D02*
X13140D01*
X13256D02*
X13298D01*
X13335D02*
X13377D01*
X12550Y7018D02*
X12435D01*
X13060D02*
X13140D01*
X13256D02*
X13298D01*
X13335D02*
X13377D01*
X12550Y7023D02*
X12435D01*
X13060D02*
X13140D01*
X13256D02*
X13298D01*
X13335D02*
X13377D01*
X12550Y7028D02*
X12435D01*
X13060D02*
X13140D01*
X13256D02*
X13298D01*
X13335D02*
X13377D01*
X12550Y7033D02*
X12435D01*
X13060D02*
X13140D01*
X13256D02*
X13298D01*
X13335D02*
X13377D01*
X12550Y7038D02*
X12435D01*
X13060D02*
X13140D01*
X13256D02*
X13298D01*
X13335D02*
X13377D01*
X12550Y7043D02*
X12435D01*
X12550D02*
X12558D01*
X12579D02*
X12587D01*
X12589D02*
X12597D01*
X12618D02*
X12626D01*
X12629D02*
X12637D01*
X12658D02*
X12666D01*
X12668D02*
X12676D01*
X12697D02*
X12705D01*
X12707D02*
X12715D01*
X12737D02*
X12745D01*
X12747D02*
X12755D01*
X12776D02*
X12784D01*
X12786D02*
X12794D01*
X12815D02*
X12823D01*
X12825D02*
X12833D01*
X12855D02*
X12863D01*
X12865D02*
X12873D01*
X12894D02*
X12902D01*
X12904D02*
X12912D01*
X12933D02*
X12941D01*
X12943D02*
X12952D01*
X12973D02*
X12981D01*
X12983D02*
X12991D01*
X13012D02*
X13020D01*
X13022D02*
X13030D01*
X13052D02*
X13060D01*
X13140D01*
X13148D01*
X13170D02*
X13178D01*
X13180D02*
X13188D01*
X13209D02*
X13217D01*
X13219D02*
X13227D01*
X13248D02*
X13256D01*
X13298D01*
X13306D01*
X13327D02*
X13335D01*
X13377D01*
X13385D01*
X13406D02*
X13414D01*
X13416D02*
X13424D01*
X13445D02*
X13453D01*
X12550Y7048D02*
X12435D01*
X12550D02*
X12558D01*
X12579D02*
X12587D01*
X12629D01*
X12636D01*
X12658D02*
X12666D01*
X12668D02*
X12676D01*
X12697D02*
X12705D01*
X12707D02*
X12715D01*
X12737D02*
X12745D01*
X12747D02*
X12754D01*
X12776D02*
X12784D01*
X12786D02*
X12794D01*
X12816D02*
X12823D01*
X12825D02*
X12833D01*
X12855D02*
X12863D01*
X12904D01*
X12912D01*
X12934D02*
X12941D01*
X12943D02*
X12951D01*
X12973D02*
X12981D01*
X12983D02*
X12991D01*
X13012D02*
X13020D01*
X13101D01*
X13109D01*
X13131D02*
X13138D01*
X13258D01*
X13266D01*
X13288D02*
X13296D01*
X13298D02*
X13306D01*
X13327D02*
X13335D01*
X13337D02*
X13345D01*
X13367D02*
X13374D01*
X13377D02*
X13384D01*
X13406D02*
X13414D01*
X13416D02*
X13424D01*
X13445D02*
X13453D01*
X12550Y7053D02*
X12435D01*
X12587D02*
X12629D01*
X12863D02*
X12904D01*
X13020D02*
X13101D01*
X13138D02*
X13258D01*
X12550Y7058D02*
X12435D01*
X12587D02*
X12629D01*
X12863D02*
X12904D01*
X13020D02*
X13101D01*
X13138D02*
X13258D01*
X12550Y7063D02*
X12435D01*
X12587D02*
X12629D01*
X12863D02*
X12904D01*
X13020D02*
X13101D01*
X13138D02*
X13258D01*
X12550Y7068D02*
X12435D01*
X12587D02*
X12629D01*
X12863D02*
X12904D01*
X13020D02*
X13101D01*
X13138D02*
X13258D01*
X12550Y7073D02*
X12435D01*
X12587D02*
X12629D01*
X12863D02*
X12904D01*
X13020D02*
X13101D01*
X13138D02*
X13258D01*
X13347Y7005D02*
X13365D01*
X13386Y7007D02*
X13405D01*
Y7044D02*
X13386D01*
X13425Y7007D02*
X13444D01*
Y7044D02*
X13425D01*
X13405Y7005D02*
X13386D01*
X13326D02*
X13307D01*
X13347Y7046D02*
X13365D01*
X13326Y7007D02*
X13307D01*
Y7044D02*
X13326D01*
X13286Y7046D02*
X13268D01*
X13386D02*
X13405D01*
X13425Y7046D02*
X13444D01*
X13326D02*
X13307D01*
X13425Y7005D02*
X13444D01*
X13286Y7005D02*
X13268D01*
X13129Y7046D02*
X13110D01*
X13189Y7005D02*
X13208D01*
X13129D02*
X13110D01*
X13090Y7005D02*
X13071D01*
X13189Y7007D02*
X13208D01*
Y7044D02*
X13189D01*
X13168Y7007D02*
X13150D01*
Y7044D02*
X13168D01*
X13228Y7005D02*
X13247D01*
X13247Y7007D02*
X13228D01*
Y7044D02*
X13247D01*
X12971Y7046D02*
X12953D01*
X12992Y7046D02*
X13011D01*
X12971Y7005D02*
X12953D01*
X12932Y7046D02*
X12913D01*
X12893Y7005D02*
X12874D01*
X12992Y7007D02*
X13011D01*
Y7044D02*
X12992D01*
X12932Y7007D02*
X12913D01*
Y7044D02*
X12932D01*
X12893Y7007D02*
X12874D01*
Y7044D02*
X12893D01*
X12953Y7007D02*
X12971D01*
Y7044D02*
X12953D01*
X13032Y7007D02*
X13050D01*
Y7044D02*
X13032D01*
X12814Y7007D02*
X12795D01*
Y7044D02*
X12814D01*
X12775Y7007D02*
X12756D01*
Y7044D02*
X12775D01*
X12696Y7046D02*
X12677D01*
X12835Y7046D02*
X12853D01*
X12775D02*
X12756D01*
X12735Y7007D02*
X12717D01*
Y7044D02*
X12735D01*
Y7046D02*
X12717D01*
X12756Y7005D02*
X12775D01*
X12696Y7007D02*
X12677D01*
Y7044D02*
X12696D01*
X12835Y7007D02*
X12853D01*
Y7044D02*
X12835D01*
X12814Y7005D02*
X12795D01*
X12735D02*
X12717D01*
X12696D02*
X12677D01*
X12795Y7046D02*
X12814D01*
X12835Y7005D02*
X12853D01*
X12657Y7046D02*
X12638D01*
Y7007D02*
X12657D01*
Y7044D02*
X12638D01*
X12578Y7046D02*
X12559D01*
Y7007D02*
X12578D01*
Y7044D02*
X12559D01*
X12598Y7007D02*
X12617D01*
Y7044D02*
X12598D01*
X12578Y7005D02*
X12559D01*
X13415Y7085D02*
X13453D01*
X12550Y7078D02*
X12435D01*
X12587D02*
X12629D01*
X12863D02*
X12904D01*
X13020D02*
X13101D01*
X13138D02*
X13258D01*
X12550Y7083D02*
X12435D01*
X12550D02*
X12558D01*
X12578D02*
X12587D01*
X12629D01*
X12637D01*
X12657D02*
X12666D01*
X12668D02*
X12677D01*
X12697D02*
X12705D01*
X12707D02*
X12716D01*
X12736D02*
X12745D01*
X12747D02*
X12755D01*
X12775D02*
X12784D01*
X12786D02*
X12795D01*
X12815D02*
X12823D01*
X12825D02*
X12834D01*
X12854D02*
X12863D01*
X12904D01*
X12913D01*
X12933D02*
X12941D01*
X12943D02*
X12952D01*
X12972D02*
X12981D01*
X12983D02*
X12992D01*
X13012D02*
X13020D01*
X13101D01*
X13110D01*
X13130D02*
X13138D01*
X13258D01*
X13267D01*
X13287D02*
X13296D01*
X13298D02*
X13306D01*
X13326D02*
X13335D01*
X13337D02*
X13346D01*
X13366D02*
X13374D01*
X13377D02*
X13385D01*
X13405D02*
X13414D01*
X13416D02*
X13425D01*
X13445D02*
X13453D01*
X12550Y7088D02*
X12435D01*
X12550D02*
X12557D01*
X12580D02*
X12587D01*
X12589D02*
X12596D01*
X12619D02*
X12626D01*
X12629D02*
X12636D01*
X12659D02*
X12666D01*
X12668D02*
X12675D01*
X12698D02*
X12705D01*
X12707D02*
X12714D01*
X12737D02*
X12745D01*
X12747D02*
X12754D01*
X12777D02*
X12784D01*
X12865D01*
X12872D01*
X12895D02*
X12902D01*
X13101D01*
X13108D01*
X13131D02*
X13138D01*
X13140D02*
X13147D01*
X13171D02*
X13178D01*
X13180D02*
X13187D01*
X13210D02*
X13217D01*
X13219D02*
X13226D01*
X13249D02*
X13256D01*
X13258D02*
X13266D01*
X13289D02*
X13296D01*
X13337D01*
X13344D01*
X13367D02*
X13374D01*
X13416D01*
X13423D01*
X13446D02*
X13453D01*
X12550Y7093D02*
X12435D01*
X12784D02*
X12865D01*
X12902D02*
X13101D01*
X13296D02*
X13337D01*
X13374D02*
X13416D01*
X12550Y7098D02*
X12435D01*
X12784D02*
X12865D01*
X12902D02*
X13101D01*
X13296D02*
X13337D01*
X13374D02*
X13416D01*
X12550Y7103D02*
X12435D01*
X12784D02*
X12865D01*
X12902D02*
X13101D01*
X13296D02*
X13337D01*
X13374D02*
X13416D01*
X12550Y7108D02*
X12435D01*
X12784D02*
X12865D01*
X12902D02*
X13101D01*
X13296D02*
X13337D01*
X13374D02*
X13416D01*
X12550Y7113D02*
X12435D01*
X12784D02*
X12865D01*
X12902D02*
X13101D01*
X13296D02*
X13337D01*
X13374D02*
X13416D01*
X12550Y7118D02*
X12435D01*
X12784D02*
X12865D01*
X12902D02*
X13101D01*
X13296D02*
X13337D01*
X13374D02*
X13416D01*
X12559Y7123D02*
X12435D01*
X12578D02*
X12598D01*
X12617D02*
X12638D01*
X12657D02*
X12677D01*
X12696D02*
X12717D01*
X12735D02*
X12756D01*
X12775D02*
X12874D01*
X12893D02*
X13110D01*
X13129D02*
X13150D01*
X13168D02*
X13189D01*
X13208D02*
X13228D01*
X13247D02*
X13268D01*
X13286D02*
X13346D01*
X13365D02*
X13425D01*
X13444D02*
X13454D01*
X13461D01*
X12447Y7128D02*
X12435D01*
X12447D02*
X12454D01*
X12478D02*
X12485D01*
X12510D01*
X12517D01*
X12541D02*
X12548D01*
X12550D02*
X12556D01*
X12581D02*
X12587D01*
X12629D01*
X12635D01*
X12659D02*
X12666D01*
X12668D02*
X12674D01*
X12699D02*
X12705D01*
X12707D02*
X12714D01*
X12738D02*
X12745D01*
X12747D02*
X12753D01*
X12777D02*
X12784D01*
X12865D01*
X12871D01*
X12896D02*
X12902D01*
X12904D02*
X12911D01*
X12935D02*
X12941D01*
X12943D02*
X12950D01*
X12974D02*
X12981D01*
X13101D01*
X13107D01*
X13132D02*
X13138D01*
X13140D02*
X13147D01*
X13171D02*
X13178D01*
X13258D01*
X13265D01*
X13289D02*
X13296D01*
X13466D01*
X12447Y7133D02*
X12435D01*
X12485D02*
X12510D01*
X12587D02*
X12629D01*
X12784D02*
X12865D01*
X12981D02*
X13101D01*
X13178D02*
X13258D01*
X13296D02*
X13471D01*
X12447Y7138D02*
X12435D01*
X12485D02*
X12510D01*
X12587D02*
X12629D01*
X12784D02*
X12865D01*
X12981D02*
X13101D01*
X13178D02*
X13258D01*
X13296D02*
X13476D01*
X12447Y7143D02*
X12435D01*
X12485D02*
X12510D01*
X12587D02*
X12629D01*
X12784D02*
X12865D01*
X12981D02*
X13101D01*
X13178D02*
X13258D01*
X13296D02*
X13481D01*
X12447Y7148D02*
X12435D01*
X12485D02*
X12510D01*
X12587D02*
X12629D01*
X12784D02*
X12865D01*
X12981D02*
X13101D01*
X13178D02*
X13258D01*
X13296D02*
X13486D01*
X12447Y7153D02*
X12435D01*
X12485D02*
X12510D01*
X12587D02*
X12629D01*
X12784D02*
X12865D01*
X12981D02*
X13101D01*
X13178D02*
X13258D01*
X13296D02*
X13491D01*
X12447Y7158D02*
X12435D01*
X12485D02*
X12510D01*
X12587D02*
X12629D01*
X12784D02*
X12865D01*
X12981D02*
X13101D01*
X13178D02*
X13258D01*
X13296D02*
X13496D01*
X13501Y7163D02*
X12435D01*
Y7168D02*
X12629D01*
X12784D02*
X12865D01*
X12902D02*
X13062D01*
X13099D02*
X13140D01*
X13217D02*
X13455D01*
X13493D02*
X13506D01*
X12629Y7173D02*
X12435D01*
X12784D02*
X12865D01*
X12902D02*
X13062D01*
X13099D02*
X13140D01*
X13217D02*
X13455D01*
X13493D02*
X13511D01*
X13483Y7165D02*
X13465D01*
X13444Y7086D02*
X13425D01*
Y7123D02*
X13444D01*
X13286Y7086D02*
X13268D01*
Y7123D02*
X13286D01*
X13347Y7084D02*
X13365D01*
X13286D02*
X13268D01*
X13386D02*
X13405D01*
X13425Y7084D02*
X13444D01*
X13326D02*
X13307D01*
X13286Y7125D02*
X13268D01*
Y7162D02*
X13286D01*
X13347Y7086D02*
X13365D01*
Y7123D02*
X13347D01*
X13129Y7084D02*
X13110D01*
X13189Y7086D02*
X13208D01*
Y7123D02*
X13189D01*
X13168Y7086D02*
X13150D01*
Y7123D02*
X13168D01*
X13168Y7165D02*
X13150D01*
X13129Y7086D02*
X13110D01*
Y7123D02*
X13129D01*
Y7125D02*
X13110D01*
Y7162D02*
X13129D01*
X13228Y7086D02*
X13247D01*
Y7123D02*
X13228D01*
X13090Y7165D02*
X13071D01*
X13189D02*
X13208D01*
X13168Y7125D02*
X13150D01*
Y7162D02*
X13168D01*
X12971Y7084D02*
X12953D01*
X12992Y7084D02*
X13011D01*
X12932Y7084D02*
X12913D01*
X12893Y7165D02*
X12874D01*
X12913Y7125D02*
X12932D01*
Y7162D02*
X12913D01*
X12953Y7125D02*
X12971D01*
Y7162D02*
X12953D01*
X12893Y7125D02*
X12874D01*
Y7162D02*
X12893D01*
Y7086D02*
X12874D01*
Y7123D02*
X12893D01*
X12696Y7084D02*
X12677D01*
X12835Y7084D02*
X12853D01*
X12775D02*
X12756D01*
X12735Y7165D02*
X12717D01*
X12696Y7125D02*
X12677D01*
Y7162D02*
X12696D01*
X12717Y7084D02*
X12735D01*
X12756Y7165D02*
X12775D01*
X12795Y7084D02*
X12814D01*
X12696Y7086D02*
X12677D01*
Y7123D02*
X12696D01*
X12717Y7086D02*
X12735D01*
Y7123D02*
X12717D01*
X12717Y7125D02*
X12735D01*
Y7162D02*
X12717D01*
X12756Y7125D02*
X12775D01*
Y7162D02*
X12756D01*
X12696Y7165D02*
X12677D01*
X12756Y7086D02*
X12775D01*
Y7123D02*
X12756D01*
X12578Y7086D02*
X12559D01*
Y7123D02*
X12578D01*
X12638Y7125D02*
X12657D01*
Y7162D02*
X12638D01*
Y7084D02*
X12657D01*
X12617Y7086D02*
X12598D01*
Y7123D02*
X12617D01*
X12638Y7086D02*
X12657D01*
Y7123D02*
X12638D01*
Y7165D02*
X12657D01*
X12538Y7125D02*
X12520D01*
Y7162D02*
X12538D01*
X12559Y7125D02*
X12578D01*
Y7162D02*
X12559D01*
Y7084D02*
X12578D01*
X12475Y7125D02*
X12457D01*
Y7162D02*
X12475D01*
X12435Y7178D02*
X12629D01*
X12784D02*
X12865D01*
X12902D02*
X13062D01*
X13099D02*
X13140D01*
X13217D02*
X13455D01*
X13493D02*
X13516D01*
X12629Y7183D02*
X12435D01*
X12784D02*
X12865D01*
X12902D02*
X13062D01*
X13099D02*
X13140D01*
X13217D02*
X13455D01*
X13493D02*
X13521D01*
X12629Y7188D02*
X12435D01*
X12784D02*
X12865D01*
X12902D02*
X13062D01*
X13099D02*
X13140D01*
X13217D02*
X13455D01*
X13493D02*
X13526D01*
X12629Y7193D02*
X12435D01*
X12784D02*
X12865D01*
X12902D02*
X13062D01*
X13099D02*
X13140D01*
X13217D02*
X13455D01*
X13493D02*
X13531D01*
X12629Y7198D02*
X12435D01*
X12784D02*
X12865D01*
X12902D02*
X13062D01*
X13099D02*
X13140D01*
X13217D02*
X13455D01*
X13493D02*
X13536D01*
X13541Y7203D02*
X12435D01*
Y7208D02*
X12589D01*
X12863D02*
X13062D01*
X13099D02*
X13180D01*
X13217D02*
X13377D01*
X13414D02*
X13541D01*
X12589Y7213D02*
X12435D01*
X12863D02*
X13062D01*
X13099D02*
X13180D01*
X13217D02*
X13377D01*
X13414D02*
X13541D01*
X12589Y7218D02*
X12435D01*
X12863D02*
X13062D01*
X13099D02*
X13180D01*
X13217D02*
X13377D01*
X13414D02*
X13541D01*
X12589Y7223D02*
X12435D01*
X12863D02*
X13062D01*
X13099D02*
X13180D01*
X13217D02*
X13377D01*
X13414D02*
X13541D01*
X12589Y7228D02*
X12435D01*
X12863D02*
X13062D01*
X13099D02*
X13180D01*
X13217D02*
X13377D01*
X13414D02*
X13541D01*
X12589Y7233D02*
X12435D01*
X12863D02*
X13062D01*
X13099D02*
X13180D01*
X13217D02*
X13377D01*
X13414D02*
X13541D01*
X12589Y7238D02*
X12435D01*
X12589D02*
X12595D01*
X12620D02*
X12626D01*
X12629D02*
X12635D01*
X12660D02*
X12666D01*
X12668D02*
X12674D01*
X12699D02*
X12705D01*
X12707D02*
X12713D01*
X12738D02*
X12745D01*
X12747D02*
X12753D01*
X12778D02*
X12784D01*
X12786D02*
X12792D01*
X12817D02*
X12823D01*
X12825D02*
X12832D01*
X12857D02*
X12863D01*
X13062D01*
X13068D01*
X13093D02*
X13099D01*
X13180D01*
X13186D01*
X13211D02*
X13217D01*
X13377D01*
X13383D01*
X13408D02*
X13414D01*
X13541D01*
Y7243D02*
X12435D01*
Y7248D02*
X12668D01*
X12823D02*
X12943D01*
X12981D02*
X13062D01*
X13178D02*
X13337D01*
X13374D02*
X13495D01*
X13532D02*
X13541D01*
X12668Y7253D02*
X12435D01*
X12823D02*
X12943D01*
X12981D02*
X13062D01*
X13178D02*
X13337D01*
X13374D02*
X13495D01*
X13532D02*
X13541D01*
X12668Y7258D02*
X12435D01*
X12823D02*
X12943D01*
X12981D02*
X13062D01*
X13178D02*
X13337D01*
X13374D02*
X13495D01*
X13532D02*
X13541D01*
X12668Y7263D02*
X12435D01*
X12823D02*
X12943D01*
X12981D02*
X13062D01*
X13178D02*
X13337D01*
X13374D02*
X13495D01*
X13532D02*
X13541D01*
X12668Y7268D02*
X12435D01*
X12823D02*
X12943D01*
X12981D02*
X13062D01*
X13178D02*
X13337D01*
X13374D02*
X13495D01*
X13532D02*
X13541D01*
X13523Y7243D02*
X13504D01*
X13483Y7202D02*
X13465D01*
X13405Y7204D02*
X13386D01*
Y7241D02*
X13405D01*
X13365Y7243D02*
X13347D01*
X13168Y7202D02*
X13150D01*
X13150Y7243D02*
X13168D01*
X13129D02*
X13110D01*
X13090D02*
X13071D01*
Y7204D02*
X13090D01*
Y7241D02*
X13071D01*
X13189Y7204D02*
X13208D01*
Y7241D02*
X13189D01*
X13090Y7202D02*
X13071D01*
X13189D02*
X13208D01*
X12971Y7243D02*
X12953D01*
X12893Y7202D02*
X12874D01*
X12775Y7243D02*
X12756D01*
X12696Y7204D02*
X12677D01*
Y7241D02*
X12696D01*
X12717Y7202D02*
X12735D01*
X12735Y7243D02*
X12717D01*
X12795D02*
X12814D01*
X12735Y7204D02*
X12717D01*
Y7241D02*
X12735D01*
X12756Y7202D02*
X12775D01*
X12696Y7243D02*
X12677D01*
X12756Y7204D02*
X12775D01*
Y7241D02*
X12756D01*
X12795Y7204D02*
X12814D01*
Y7241D02*
X12795D01*
X12835Y7204D02*
X12853D01*
Y7241D02*
X12835D01*
X12696Y7202D02*
X12677D01*
X12657Y7204D02*
X12638D01*
Y7241D02*
X12657D01*
X12617Y7204D02*
X12598D01*
Y7241D02*
X12617D01*
X12638Y7202D02*
X12657D01*
X12668Y7273D02*
X12435D01*
X12823D02*
X12943D01*
X12981D02*
X13062D01*
X13178D02*
X13337D01*
X13374D02*
X13495D01*
X13532D02*
X13541D01*
X12668Y7278D02*
X12435D01*
X12668D02*
X12675D01*
X12698D02*
X12705D01*
X12707D02*
X12714D01*
X12738D02*
X12745D01*
X12747D02*
X12753D01*
X12777D02*
X12784D01*
X12786D02*
X12793D01*
X12817D02*
X12823D01*
X12943D01*
X12950D01*
X12974D02*
X12981D01*
X13062D01*
X13068D01*
X13092D02*
X13099D01*
X13101D02*
X13108D01*
X13131D02*
X13138D01*
X13140D02*
X13147D01*
X13171D02*
X13178D01*
X13337D01*
X13344D01*
X13368D02*
X13374D01*
X13495D01*
X13501D01*
X13525D02*
X13532D01*
X12598Y7283D02*
X12435D01*
X12618D02*
X12637D01*
X12657D02*
X12677D01*
X12696D02*
X12716D01*
X12736D02*
X12756D01*
X12775D02*
X12834D01*
X12854D02*
X12913D01*
X12932D02*
X13031D01*
X13051D02*
X13071D01*
X13090D02*
X13110D01*
X13129D02*
X13228D01*
X13247D02*
X13425D01*
X13444D02*
X13532D01*
X12589Y7288D02*
X12435D01*
X12784D02*
X12825D01*
X12863D02*
X12904D01*
X12941D02*
X13022D01*
X13138D02*
X13219D01*
X13256D02*
X13416D01*
X13453D02*
X13527D01*
X12589Y7293D02*
X12435D01*
X12784D02*
X12825D01*
X12863D02*
X12904D01*
X12941D02*
X13022D01*
X13138D02*
X13219D01*
X13256D02*
X13416D01*
X13453D02*
X13522D01*
X12589Y7298D02*
X12435D01*
X12784D02*
X12825D01*
X12863D02*
X12904D01*
X12941D02*
X13022D01*
X13138D02*
X13219D01*
X13256D02*
X13416D01*
X13453D02*
X13517D01*
X12589Y7303D02*
X12435D01*
X12784D02*
X12825D01*
X12863D02*
X12904D01*
X12941D02*
X13022D01*
X13138D02*
X13219D01*
X13256D02*
X13416D01*
X13453D02*
X13512D01*
X12589Y7308D02*
X12435D01*
X12784D02*
X12825D01*
X12863D02*
X12904D01*
X12941D02*
X13022D01*
X13138D02*
X13219D01*
X13256D02*
X13416D01*
X13453D02*
X13502D01*
X12589Y7313D02*
X12435D01*
X12784D02*
X12825D01*
X12863D02*
X12904D01*
X12941D02*
X13022D01*
X13138D02*
X13219D01*
X13256D02*
X13416D01*
X13453D02*
X13502D01*
X12589Y7318D02*
X12435D01*
X12589D02*
X12597D01*
X12619D02*
X12626D01*
X12629D02*
X12636D01*
X12658D02*
X12666D01*
X12668D02*
X12675D01*
X12698D02*
X12705D01*
X12707D02*
X12715D01*
X12737D02*
X12745D01*
X12747D02*
X12754D01*
X12777D02*
X12784D01*
X12825D01*
X12833D01*
X12855D02*
X12863D01*
X12904D01*
X12912D01*
X12934D02*
X12941D01*
X13022D01*
X13030D01*
X13052D02*
X13060D01*
X13062D02*
X13069D01*
X13091D02*
X13099D01*
X13101D02*
X13108D01*
X13131D02*
X13138D01*
X13219D01*
X13227D01*
X13249D02*
X13256D01*
X13416D01*
X13423D01*
X13446D02*
X13453D01*
X13502D01*
X12589Y7323D02*
X12435D01*
X12589D02*
X12597D01*
X12618D02*
X12626D01*
X12629D02*
X12637D01*
X12658D02*
X12666D01*
X12707D01*
X12716D01*
X12736D02*
X12745D01*
X12747D02*
X12755D01*
X12776D02*
X12784D01*
X12983D01*
X12991D01*
X13012D02*
X13020D01*
X13022D02*
X13031D01*
X13051D02*
X13060D01*
X13140D01*
X13149D01*
X13169D02*
X13178D01*
X13337D01*
X13346D01*
X13366D02*
X13374D01*
X13502D01*
X12589Y7328D02*
X12435D01*
X12666D02*
X12707D01*
X12784D02*
X12983D01*
X13060D02*
X13140D01*
X13178D02*
X13337D01*
X13374D02*
X13502D01*
X12589Y7333D02*
X12435D01*
X12666D02*
X12707D01*
X12784D02*
X12983D01*
X13060D02*
X13140D01*
X13178D02*
X13337D01*
X13374D02*
X13502D01*
X12589Y7338D02*
X12435D01*
X12666D02*
X12707D01*
X12784D02*
X12983D01*
X13060D02*
X13140D01*
X13178D02*
X13337D01*
X13374D02*
X13502D01*
X12589Y7343D02*
X12435D01*
X12666D02*
X12707D01*
X12784D02*
X12983D01*
X13060D02*
X13140D01*
X13178D02*
X13337D01*
X13374D02*
X13502D01*
X12589Y7348D02*
X12435D01*
X12666D02*
X12707D01*
X12784D02*
X12983D01*
X13060D02*
X13140D01*
X13178D02*
X13337D01*
X13374D02*
X13502D01*
X12589Y7353D02*
X12435D01*
X12666D02*
X12707D01*
X12784D02*
X12983D01*
X13060D02*
X13140D01*
X13178D02*
X13337D01*
X13374D02*
X13502D01*
X12589Y7358D02*
X12435D01*
X12589D02*
X12597D01*
X12618D02*
X12626D01*
X12629D02*
X12637D01*
X12658D02*
X12666D01*
X12707D01*
X12715D01*
X12737D02*
X12745D01*
X12747D02*
X12755D01*
X12776D02*
X12784D01*
X12983D01*
X12991D01*
X13012D02*
X13020D01*
X13022D02*
X13030D01*
X13051D02*
X13060D01*
X13140D01*
X13148D01*
X13170D02*
X13178D01*
X13337D01*
X13345D01*
X13366D02*
X13374D01*
X13502D01*
X12629Y7363D02*
X12435D01*
X12629D02*
X12636D01*
X12658D02*
X12666D01*
X12668D02*
X12676D01*
X12698D02*
X12705D01*
X12707D02*
X12715D01*
X12737D02*
X12745D01*
X12747D02*
X12754D01*
X12776D02*
X12784D01*
X12786D02*
X12794D01*
X12816D02*
X12823D01*
X12825D02*
X12833D01*
X12855D02*
X12863D01*
X12904D01*
X12912D01*
X12934D02*
X12941D01*
X12943D02*
X12951D01*
X12973D02*
X12981D01*
X12983D02*
X12991D01*
X13012D02*
X13020D01*
X13022D02*
X13030D01*
X13052D02*
X13060D01*
X13180D01*
X13187D01*
X13209D02*
X13217D01*
X13219D02*
X13227D01*
X13249D02*
X13256D01*
X13258D02*
X13266D01*
X13288D02*
X13296D01*
X13298D02*
X13306D01*
X13327D02*
X13335D01*
X13416D01*
X13424D01*
X13446D02*
X13453D01*
X13455D02*
X13463D01*
X13485D02*
X13493D01*
X13502D01*
X12629Y7368D02*
X12435D01*
X12863D02*
X12904D01*
X13060D02*
X13180D01*
X13335D02*
X13416D01*
X13493D02*
X13502D01*
X13483Y7361D02*
X13465D01*
X13504Y7281D02*
X13523D01*
X13286Y7361D02*
X13268D01*
X13425D02*
X13444D01*
X13326D02*
X13307D01*
X13347Y7322D02*
X13365D01*
Y7359D02*
X13347D01*
X13425Y7283D02*
X13444D01*
Y7320D02*
X13425D01*
X13365Y7281D02*
X13347D01*
X13208Y7361D02*
X13189D01*
X13168Y7281D02*
X13150D01*
X13129D02*
X13110D01*
X13090Y7283D02*
X13071D01*
Y7320D02*
X13090D01*
X13228Y7361D02*
X13247D01*
X13129Y7283D02*
X13110D01*
Y7320D02*
X13129D01*
X13150Y7322D02*
X13168D01*
Y7359D02*
X13150D01*
X13228Y7283D02*
X13247D01*
Y7320D02*
X13228D01*
X13090Y7281D02*
X13071D01*
X13011Y7322D02*
X12992D01*
Y7359D02*
X13011D01*
X12932Y7361D02*
X12913D01*
X12953D02*
X12971D01*
X12992D02*
X13011D01*
X13032Y7283D02*
X13050D01*
Y7320D02*
X13032D01*
Y7322D02*
X13050D01*
Y7359D02*
X13032D01*
X12932Y7283D02*
X12913D01*
Y7320D02*
X12932D01*
X12953Y7281D02*
X12971D01*
X13032Y7361D02*
X13050D01*
X12853D02*
X12835D01*
X12696Y7283D02*
X12677D01*
Y7320D02*
X12696D01*
X12717Y7283D02*
X12735D01*
Y7320D02*
X12717D01*
X12795Y7361D02*
X12814D01*
X12735Y7322D02*
X12717D01*
Y7359D02*
X12735D01*
X12756Y7361D02*
X12775D01*
X12696D02*
X12677D01*
X12756Y7281D02*
X12775D01*
X12735Y7281D02*
X12717D01*
X12756Y7283D02*
X12775D01*
Y7320D02*
X12756D01*
X12795Y7281D02*
X12814D01*
X12735Y7361D02*
X12717D01*
X12756Y7322D02*
X12775D01*
Y7359D02*
X12756D01*
X12696Y7281D02*
X12677D01*
X12835Y7283D02*
X12853D01*
Y7320D02*
X12835D01*
X12617Y7283D02*
X12598D01*
Y7320D02*
X12617D01*
X12638Y7283D02*
X12657D01*
Y7320D02*
X12638D01*
Y7322D02*
X12657D01*
Y7359D02*
X12638D01*
X12617Y7322D02*
X12598D01*
Y7359D02*
X12617D01*
X12638Y7361D02*
X12657D01*
X13494Y7439D02*
X13527D01*
X12629Y7373D02*
X12435D01*
X12863D02*
X12904D01*
X13060D02*
X13180D01*
X13335D02*
X13416D01*
X13493D02*
X13502D01*
X12629Y7378D02*
X12435D01*
X12863D02*
X12904D01*
X13060D02*
X13180D01*
X13335D02*
X13416D01*
X13493D02*
X13502D01*
X12629Y7383D02*
X12435D01*
X12863D02*
X12904D01*
X13060D02*
X13180D01*
X13335D02*
X13416D01*
X13493D02*
X13502D01*
X12629Y7388D02*
X12435D01*
X12863D02*
X12904D01*
X13060D02*
X13180D01*
X13335D02*
X13416D01*
X13493D02*
X13502D01*
X12629Y7393D02*
X12435D01*
X12863D02*
X12904D01*
X13060D02*
X13180D01*
X13335D02*
X13416D01*
X13493D02*
X13502D01*
X12629Y7398D02*
X12435D01*
X12629D02*
X12637D01*
X12657D02*
X12666D01*
X12668D02*
X12677D01*
X12697D02*
X12705D01*
X12707D02*
X12716D01*
X12736D02*
X12745D01*
X12747D02*
X12755D01*
X12775D02*
X12784D01*
X12786D02*
X12795D01*
X12815D02*
X12823D01*
X12825D02*
X12834D01*
X12854D02*
X12863D01*
X12904D01*
X12913D01*
X12933D02*
X12941D01*
X12943D02*
X12952D01*
X12972D02*
X12981D01*
X12983D02*
X12992D01*
X13011D02*
X13020D01*
X13022D02*
X13031D01*
X13051D02*
X13060D01*
X13180D01*
X13188D01*
X13208D02*
X13217D01*
X13219D02*
X13228D01*
X13248D02*
X13256D01*
X13258D02*
X13267D01*
X13287D02*
X13296D01*
X13298D02*
X13307D01*
X13326D02*
X13335D01*
X13416D01*
X13425D01*
X13445D02*
X13453D01*
X13455D02*
X13464D01*
X13484D02*
X13493D01*
X13502D01*
X12510Y7403D02*
X12435D01*
X12510D02*
X12517D01*
X12541D02*
X12548D01*
X12550D02*
X12557D01*
X12580D02*
X12587D01*
X12589D02*
X12596D01*
X12619D02*
X12626D01*
X12707D01*
X12714D01*
X12738D02*
X12745D01*
X12747D02*
X12754D01*
X12777D02*
X12784D01*
X12865D01*
X12872D01*
X12895D02*
X12902D01*
X12943D01*
X12951D01*
X12974D02*
X12981D01*
X13140D01*
X13147D01*
X13171D02*
X13178D01*
X13180D02*
X13187D01*
X13210D02*
X13217D01*
X13377D01*
X13384D01*
X13407D02*
X13414D01*
X13416D02*
X13423D01*
X13446D02*
X13453D01*
X13495D01*
X13502D01*
X12510Y7408D02*
X12435D01*
X12626D02*
X12707D01*
X12784D02*
X12865D01*
X12902D02*
X12943D01*
X12981D02*
X13140D01*
X13217D02*
X13377D01*
X13453D02*
X13495D01*
X12510Y7413D02*
X12435D01*
X12626D02*
X12707D01*
X12784D02*
X12865D01*
X12902D02*
X12943D01*
X12981D02*
X13140D01*
X13217D02*
X13377D01*
X13453D02*
X13495D01*
X12510Y7418D02*
X12435D01*
X12626D02*
X12707D01*
X12784D02*
X12865D01*
X12902D02*
X12943D01*
X12981D02*
X13140D01*
X13217D02*
X13377D01*
X13453D02*
X13495D01*
X12510Y7423D02*
X12435D01*
X12626D02*
X12707D01*
X12784D02*
X12865D01*
X12902D02*
X12943D01*
X12981D02*
X13140D01*
X13217D02*
X13377D01*
X13453D02*
X13495D01*
X12510Y7428D02*
X12435D01*
X12626D02*
X12707D01*
X12784D02*
X12865D01*
X12902D02*
X12943D01*
X12981D02*
X13140D01*
X13217D02*
X13377D01*
X13453D02*
X13495D01*
X12510Y7433D02*
X12435D01*
X12626D02*
X12707D01*
X12784D02*
X12865D01*
X12902D02*
X12943D01*
X12981D02*
X13140D01*
X13217D02*
X13377D01*
X13453D02*
X13495D01*
X12520Y7438D02*
X12435D01*
X12538D02*
X12559D01*
X12578D02*
X12598D01*
X12617D02*
X12717D01*
X12735D02*
X12756D01*
X12775D02*
X12874D01*
X12893D02*
X12953D01*
X12971D02*
X13150D01*
X13168D02*
X13189D01*
X13208D02*
X13386D01*
X13405D02*
X13425D01*
X13444D02*
X13504D01*
X13523D02*
X13532D01*
X12550Y7443D02*
X12435D01*
X12550D02*
X12556D01*
X12581D02*
X12587D01*
X12589D02*
X12596D01*
X12620D02*
X12626D01*
X12629D02*
X12635D01*
X12659D02*
X12666D01*
X12707D01*
X12714D01*
X12738D02*
X12745D01*
X12747D02*
X12753D01*
X12778D02*
X12784D01*
X12865D01*
X12871D01*
X12896D02*
X12902D01*
X12904D02*
X12911D01*
X12935D02*
X12941D01*
X12943D02*
X12950D01*
X12974D02*
X12981D01*
X13140D01*
X13147D01*
X13171D02*
X13178D01*
X13219D01*
X13226D01*
X13250D02*
X13256D01*
X13258D02*
X13265D01*
X13289D02*
X13296D01*
X13298D02*
X13304D01*
X13329D02*
X13335D01*
X13377D01*
X13383D01*
X13407D02*
X13414D01*
X13416D02*
X13422D01*
X13447D02*
X13453D01*
X13455D02*
X13462D01*
X13486D02*
X13493D01*
X13495D02*
X13501D01*
X13526D02*
X13532D01*
X12550Y7448D02*
X12435D01*
X12666D02*
X12707D01*
X12784D02*
X12865D01*
X12981D02*
X13140D01*
X13178D02*
X13219D01*
X13335D02*
X13377D01*
X13532D02*
X13542D01*
X12550Y7453D02*
X12435D01*
X12666D02*
X12707D01*
X12784D02*
X12865D01*
X12981D02*
X13140D01*
X13178D02*
X13219D01*
X13335D02*
X13377D01*
X13532D02*
X13545D01*
X12550Y7458D02*
X12435D01*
X12666D02*
X12707D01*
X12784D02*
X12865D01*
X12981D02*
X13140D01*
X13178D02*
X13219D01*
X13335D02*
X13377D01*
X13532D02*
X13545D01*
X12550Y7463D02*
X12435D01*
X12666D02*
X12707D01*
X12784D02*
X12865D01*
X12981D02*
X13140D01*
X13178D02*
X13219D01*
X13335D02*
X13377D01*
X13532D02*
X13545D01*
X13523Y7438D02*
X13504D01*
X13483Y7440D02*
X13465D01*
X13504D02*
X13523D01*
X13483Y7399D02*
X13465D01*
X13444Y7440D02*
X13425D01*
X13405D02*
X13386D01*
X13425Y7401D02*
X13444D01*
Y7438D02*
X13425D01*
X13286Y7399D02*
X13268D01*
Y7440D02*
X13286D01*
X13386Y7401D02*
X13405D01*
Y7438D02*
X13386D01*
X13326Y7440D02*
X13307D01*
X13425Y7399D02*
X13444D01*
X13326D02*
X13307D01*
X13208D02*
X13189D01*
X13168Y7440D02*
X13150D01*
X13189Y7401D02*
X13208D01*
Y7438D02*
X13189D01*
X13228Y7399D02*
X13247D01*
X13168Y7401D02*
X13150D01*
Y7438D02*
X13168D01*
X13228Y7440D02*
X13247D01*
X12971Y7440D02*
X12953D01*
X12932Y7440D02*
X12913D01*
X12893Y7401D02*
X12874D01*
Y7438D02*
X12893D01*
X12953Y7401D02*
X12971D01*
Y7438D02*
X12953D01*
X12932Y7399D02*
X12913D01*
X12953D02*
X12971D01*
X12992D02*
X13011D01*
X13032D02*
X13050D01*
X12893Y7440D02*
X12874D01*
X12853Y7399D02*
X12835D01*
X12735Y7440D02*
X12717D01*
X12756D02*
X12775D01*
X12795Y7399D02*
X12814D01*
X12775Y7401D02*
X12756D01*
Y7438D02*
X12775D01*
Y7399D02*
X12756D01*
X12735Y7401D02*
X12717D01*
Y7438D02*
X12735D01*
X12696Y7399D02*
X12677D01*
X12717D02*
X12735D01*
X12657D02*
X12638D01*
Y7440D02*
X12657D01*
X12617D02*
X12598D01*
X12578D02*
X12559D01*
X12538Y7401D02*
X12520D01*
Y7438D02*
X12538D01*
X12598Y7401D02*
X12617D01*
Y7438D02*
X12598D01*
X12578Y7401D02*
X12559D01*
Y7438D02*
X12578D01*
X12550Y7468D02*
X12435D01*
X12666D02*
X12707D01*
X12784D02*
X12865D01*
X12981D02*
X13140D01*
X13178D02*
X13219D01*
X13335D02*
X13377D01*
X13532D02*
X13545D01*
X12550Y7473D02*
X12435D01*
X12666D02*
X12707D01*
X12784D02*
X12865D01*
X12981D02*
X13140D01*
X13178D02*
X13219D01*
X13335D02*
X13377D01*
X13532D02*
X13545D01*
Y7478D02*
X12435D01*
Y7483D02*
X12447D01*
X12485D02*
X12550D01*
X12705D02*
X12943D01*
X12981D02*
X13101D01*
X13138D02*
X13180D01*
X13217D02*
X13298D01*
X13374D02*
X13416D01*
X13453D02*
X13495D01*
X12447Y7488D02*
X12435D01*
X12485D02*
X12550D01*
X12705D02*
X12943D01*
X12981D02*
X13101D01*
X13138D02*
X13180D01*
X13217D02*
X13298D01*
X13374D02*
X13416D01*
X13453D02*
X13495D01*
X12447Y7493D02*
X12435D01*
X12485D02*
X12550D01*
X12705D02*
X12943D01*
X12981D02*
X13101D01*
X13138D02*
X13180D01*
X13217D02*
X13298D01*
X13374D02*
X13416D01*
X13453D02*
X13495D01*
X12447Y7498D02*
X12435D01*
X12485D02*
X12550D01*
X12705D02*
X12943D01*
X12981D02*
X13101D01*
X13138D02*
X13180D01*
X13217D02*
X13298D01*
X13374D02*
X13416D01*
X13453D02*
X13495D01*
X12447Y7503D02*
X12435D01*
X12485D02*
X12550D01*
X12705D02*
X12943D01*
X12981D02*
X13101D01*
X13138D02*
X13180D01*
X13217D02*
X13298D01*
X13374D02*
X13416D01*
X13453D02*
X13495D01*
X12447Y7508D02*
X12435D01*
X12485D02*
X12550D01*
X12705D02*
X12943D01*
X12981D02*
X13101D01*
X13138D02*
X13180D01*
X13217D02*
X13298D01*
X13374D02*
X13416D01*
X13453D02*
X13495D01*
X12447Y7513D02*
X12435D01*
X12485D02*
X12550D01*
X12705D02*
X12943D01*
X12981D02*
X13101D01*
X13138D02*
X13180D01*
X13217D02*
X13298D01*
X13374D02*
X13416D01*
X13453D02*
X13495D01*
X13545Y7518D02*
X12435D01*
Y7523D02*
X12550D01*
X12705D02*
X12747D01*
X12784D02*
X12865D01*
X12941D02*
X12983D01*
X13020D02*
X13101D01*
X13178D02*
X13416D01*
X12550Y7528D02*
X12435D01*
X12705D02*
X12747D01*
X12784D02*
X12865D01*
X12941D02*
X12983D01*
X13020D02*
X13101D01*
X13178D02*
X13416D01*
X12550Y7533D02*
X12435D01*
X12705D02*
X12747D01*
X12784D02*
X12865D01*
X12941D02*
X12983D01*
X13020D02*
X13101D01*
X13178D02*
X13416D01*
X12550Y7538D02*
X12435D01*
X12705D02*
X12747D01*
X12784D02*
X12865D01*
X12941D02*
X12983D01*
X13020D02*
X13101D01*
X13178D02*
X13416D01*
X12550Y7543D02*
X12435D01*
X12705D02*
X12747D01*
X12784D02*
X12865D01*
X12941D02*
X12983D01*
X13020D02*
X13101D01*
X13178D02*
X13416D01*
X12550Y7548D02*
X12435D01*
X12705D02*
X12747D01*
X12784D02*
X12865D01*
X12941D02*
X12983D01*
X13020D02*
X13101D01*
X13178D02*
X13416D01*
X12550Y7553D02*
X12435D01*
X12550D02*
X12556D01*
X12581D02*
X12587D01*
X12589D02*
X12595D01*
X12620D02*
X12626D01*
X12629D02*
X12635D01*
X12660D02*
X12666D01*
X12668D02*
X12674D01*
X12699D02*
X12705D01*
X12747D01*
X12753D01*
X12778D02*
X12784D01*
X12865D01*
X12871D01*
X12896D02*
X12902D01*
X12904D02*
X12910D01*
X12935D02*
X12941D01*
X12983D01*
X12989D01*
X13014D02*
X13020D01*
X13101D01*
X13107D01*
X13132D02*
X13138D01*
X13140D02*
X13147D01*
X13171D02*
X13178D01*
X13416D01*
X13422D01*
X13447D02*
X13453D01*
X13455D02*
X13462D01*
X13486D02*
X13493D01*
X13495D02*
X13501D01*
X13526D02*
X13532D01*
X13534D02*
X13540D01*
X13545Y7558D02*
X12435D01*
Y7563D02*
X12550D01*
X12745D02*
X12865D01*
X12941D02*
X13062D01*
X13138D02*
X13180D01*
X13217D02*
X13298D01*
X13335D02*
X13377D01*
X13465Y7519D02*
X13483D01*
Y7556D02*
X13465D01*
Y7477D02*
X13483D01*
X13504D02*
X13523D01*
Y7479D02*
X13504D01*
Y7517D02*
X13523D01*
X13523Y7519D02*
X13504D01*
Y7556D02*
X13523D01*
X13483Y7558D02*
X13465D01*
X13543Y7479D02*
X13545D01*
Y7517D02*
X13543D01*
Y7519D02*
X13545D01*
Y7556D02*
X13543D01*
Y7558D02*
X13545D01*
X13523Y7558D02*
X13504D01*
X13444Y7477D02*
X13425D01*
X13405D02*
X13386D01*
X13425Y7519D02*
X13444D01*
Y7556D02*
X13425D01*
Y7558D02*
X13444D01*
X13405Y7558D02*
X13386D01*
X13286Y7477D02*
X13268D01*
X13425Y7479D02*
X13444D01*
Y7517D02*
X13425D01*
X13326Y7477D02*
X13307D01*
Y7479D02*
X13326D01*
Y7517D02*
X13307D01*
X13347Y7479D02*
X13365D01*
Y7517D02*
X13347D01*
X13326Y7558D02*
X13307D01*
X13168Y7477D02*
X13150D01*
X13129Y7479D02*
X13110D01*
Y7517D02*
X13129D01*
Y7519D02*
X13110D01*
Y7556D02*
X13129D01*
X13090Y7558D02*
X13071D01*
X13110D02*
X13129D01*
X13189D02*
X13208D01*
X13168Y7519D02*
X13150D01*
Y7556D02*
X13168D01*
X13189Y7479D02*
X13208D01*
Y7517D02*
X13189D01*
X13228Y7477D02*
X13247D01*
X12971Y7477D02*
X12953D01*
X12932Y7477D02*
X12913D01*
Y7519D02*
X12932D01*
Y7556D02*
X12913D01*
Y7558D02*
X12932D01*
X12893Y7558D02*
X12874D01*
X12953Y7479D02*
X12971D01*
Y7517D02*
X12953D01*
X12992Y7519D02*
X13011D01*
Y7556D02*
X12992D01*
X12893Y7519D02*
X12874D01*
Y7556D02*
X12893D01*
Y7477D02*
X12874D01*
X12735D02*
X12717D01*
X12756D02*
X12775D01*
X12696Y7519D02*
X12677D01*
Y7556D02*
X12696D01*
X12717Y7558D02*
X12735D01*
X12696Y7479D02*
X12677D01*
Y7517D02*
X12696D01*
Y7558D02*
X12677D01*
X12756Y7519D02*
X12775D01*
Y7556D02*
X12756D01*
X12657Y7477D02*
X12638D01*
X12638Y7519D02*
X12657D01*
Y7556D02*
X12638D01*
Y7558D02*
X12657D01*
X12617Y7477D02*
X12598D01*
Y7479D02*
X12617D01*
Y7517D02*
X12598D01*
X12598Y7519D02*
X12617D01*
Y7556D02*
X12598D01*
Y7558D02*
X12617D01*
X12578D02*
X12559D01*
Y7519D02*
X12578D01*
Y7556D02*
X12559D01*
Y7477D02*
X12578D01*
X12638Y7479D02*
X12657D01*
Y7517D02*
X12638D01*
X12578Y7479D02*
X12559D01*
Y7517D02*
X12578D01*
X12475Y7479D02*
X12457D01*
Y7517D02*
X12475D01*
X12435Y7568D02*
X12550D01*
X12745D02*
X12865D01*
X12941D02*
X13062D01*
X13138D02*
X13180D01*
X13217D02*
X13298D01*
X13335D02*
X13377D01*
X12550Y7573D02*
X12435D01*
X12745D02*
X12865D01*
X12941D02*
X13062D01*
X13138D02*
X13180D01*
X13217D02*
X13298D01*
X13335D02*
X13377D01*
X12550Y7578D02*
X12435D01*
X12745D02*
X12865D01*
X12941D02*
X13062D01*
X13138D02*
X13180D01*
X13217D02*
X13298D01*
X13335D02*
X13377D01*
X12550Y7583D02*
X12435D01*
X12745D02*
X12865D01*
X12941D02*
X13062D01*
X13138D02*
X13180D01*
X13217D02*
X13298D01*
X13335D02*
X13377D01*
X12550Y7588D02*
X12435D01*
X12745D02*
X12865D01*
X12941D02*
X13062D01*
X13138D02*
X13180D01*
X13217D02*
X13298D01*
X13335D02*
X13377D01*
X12550Y7593D02*
X12435D01*
X12550D02*
X12557D01*
X12580D02*
X12587D01*
X12589D02*
X12596D01*
X12620D02*
X12626D01*
X12629D02*
X12635D01*
X12659D02*
X12666D01*
X12668D02*
X12675D01*
X12698D02*
X12705D01*
X12707D02*
X12714D01*
X12738D02*
X12745D01*
X12865D01*
X12872D01*
X12895D02*
X12902D01*
X12904D02*
X12911D01*
X12935D02*
X12941D01*
X13062D01*
X13068D01*
X13092D02*
X13099D01*
X13101D02*
X13108D01*
X13131D02*
X13138D01*
X13180D01*
X13187D01*
X13210D02*
X13217D01*
X13298D01*
X13305D01*
X13328D02*
X13335D01*
X13377D01*
X13383D01*
X13407D02*
X13414D01*
X13416D02*
X13423D01*
X13446D02*
X13453D01*
X13455D02*
X13462D01*
X13486D02*
X13493D01*
X13495D02*
X13502D01*
X13525D02*
X13532D01*
X13534D02*
X13541D01*
X12456Y7598D02*
X12435D01*
X12476D02*
X12598D01*
X12618D02*
X12637D01*
X12657D02*
X12677D01*
X12696D02*
X12716D01*
X12736D02*
X12756D01*
X12775D02*
X12795D01*
X12814D02*
X12834D01*
X12854D02*
X12874D01*
X12893D02*
X12913D01*
X12933D02*
X13110D01*
X13129D02*
X13149D01*
X13169D02*
X13189D01*
X13208D02*
X13267D01*
X13287D02*
X13307D01*
X13326D02*
X13346D01*
X13366D02*
X13385D01*
X13405D02*
X13464D01*
X13484D02*
X13504D01*
X13523D02*
X13543D01*
X12447Y7603D02*
X12435D01*
X12485D02*
X12589D01*
X12941D02*
X13101D01*
X13217D02*
X13258D01*
X13414D02*
X13455D01*
X12447Y7608D02*
X12435D01*
X12485D02*
X12589D01*
X12941D02*
X13101D01*
X13217D02*
X13258D01*
X13414D02*
X13455D01*
X12447Y7613D02*
X12435D01*
X12485D02*
X12589D01*
X12941D02*
X13101D01*
X13217D02*
X13258D01*
X13414D02*
X13455D01*
X12447Y7618D02*
X12435D01*
X12485D02*
X12589D01*
X12941D02*
X13101D01*
X13217D02*
X13258D01*
X13414D02*
X13455D01*
X12447Y7623D02*
X12435D01*
X12485D02*
X12589D01*
X12941D02*
X13101D01*
X13217D02*
X13258D01*
X13414D02*
X13455D01*
X12447Y7628D02*
X12435D01*
X12485D02*
X12589D01*
X12941D02*
X13101D01*
X13217D02*
X13258D01*
X13414D02*
X13455D01*
X12447Y7633D02*
X12435D01*
X12447D02*
X12455D01*
X12477D02*
X12485D01*
X12589D01*
X12597D01*
X12619D02*
X12626D01*
X12629D02*
X12636D01*
X12658D02*
X12666D01*
X12668D02*
X12675D01*
X12698D02*
X12705D01*
X12707D02*
X12715D01*
X12737D02*
X12745D01*
X12747D02*
X12754D01*
X12776D02*
X12784D01*
X12786D02*
X12793D01*
X12816D02*
X12823D01*
X12825D02*
X12833D01*
X12855D02*
X12863D01*
X12865D02*
X12872D01*
X12895D02*
X12902D01*
X12904D02*
X12912D01*
X12934D02*
X12941D01*
X13101D01*
X13108D01*
X13131D02*
X13138D01*
X13140D02*
X13148D01*
X13170D02*
X13178D01*
X13180D02*
X13187D01*
X13210D02*
X13217D01*
X13258D01*
X13266D01*
X13288D02*
X13296D01*
X13298D02*
X13305D01*
X13328D02*
X13335D01*
X13337D02*
X13345D01*
X13367D02*
X13374D01*
X13377D02*
X13384D01*
X13406D02*
X13414D01*
X13455D01*
X13463D01*
X13485D02*
X13493D01*
X13495D02*
X13502D01*
X13525D02*
X13532D01*
X13534D02*
X13542D01*
X12510Y7638D02*
X12435D01*
X12510D02*
X12519D01*
X12539D02*
X12548D01*
X12550D02*
X12558D01*
X12579D02*
X12587D01*
X12589D02*
X12597D01*
X12618D02*
X12626D01*
X12629D02*
X12637D01*
X12658D02*
X12666D01*
X12668D02*
X12676D01*
X12697D02*
X12705D01*
X12707D02*
X12716D01*
X12736D02*
X12745D01*
X12747D02*
X12755D01*
X12776D02*
X12784D01*
X12825D01*
X12834D01*
X12854D02*
X12863D01*
X12865D02*
X12873D01*
X12894D02*
X12902D01*
X12904D02*
X12912D01*
X12933D02*
X12941D01*
X13022D01*
X13031D01*
X13051D02*
X13060D01*
X13062D02*
X13070D01*
X13091D02*
X13099D01*
X13101D02*
X13109D01*
X13130D02*
X13138D01*
X13140D02*
X13149D01*
X13169D02*
X13178D01*
X13219D01*
X13227D01*
X13248D02*
X13256D01*
X13258D02*
X13267D01*
X13287D02*
X13296D01*
X13298D02*
X13306D01*
X13327D02*
X13335D01*
X13337D02*
X13345D01*
X13366D02*
X13374D01*
X13377D02*
X13385D01*
X13406D02*
X13414D01*
X13416D02*
X13424D01*
X13445D02*
X13453D01*
X13455D02*
X13464D01*
X13484D02*
X13493D01*
X13495D02*
X13503D01*
X13524D02*
X13532D01*
X13545D01*
X12510Y7643D02*
X12435D01*
X12784D02*
X12825D01*
X12941D02*
X13022D01*
X13178D02*
X13219D01*
X13532D02*
X13545D01*
X12510Y7648D02*
X12435D01*
X12784D02*
X12825D01*
X12941D02*
X13022D01*
X13178D02*
X13219D01*
X13532D02*
X13545D01*
X12510Y7653D02*
X12435D01*
X12784D02*
X12825D01*
X12941D02*
X13022D01*
X13178D02*
X13219D01*
X13532D02*
X13545D01*
X12510Y7658D02*
X12435D01*
X12784D02*
X12825D01*
X12941D02*
X13022D01*
X13178D02*
X13219D01*
X13532D02*
X13545D01*
X13523Y7637D02*
X13504D01*
X13483D02*
X13465D01*
Y7596D02*
X13483D01*
X13483Y7598D02*
X13465D01*
Y7635D02*
X13483D01*
X13543Y7596D02*
X13545D01*
X13523Y7598D02*
X13504D01*
Y7635D02*
X13523D01*
X13543Y7598D02*
X13545D01*
Y7635D02*
X13543D01*
X13523Y7596D02*
X13504D01*
X13405Y7598D02*
X13386D01*
Y7635D02*
X13405D01*
X13425Y7637D02*
X13444D01*
X13405D02*
X13386D01*
X13326D02*
X13307D01*
X13286D02*
X13268D01*
X13425Y7596D02*
X13444D01*
X13405Y7596D02*
X13386D01*
X13365Y7637D02*
X13347D01*
Y7598D02*
X13365D01*
Y7635D02*
X13347D01*
X13326Y7598D02*
X13307D01*
Y7635D02*
X13326D01*
X13286Y7598D02*
X13268D01*
Y7635D02*
X13286D01*
X13307Y7596D02*
X13326D01*
X13208Y7598D02*
X13189D01*
Y7635D02*
X13208D01*
X13129Y7637D02*
X13110D01*
X13228D02*
X13247D01*
X13168Y7598D02*
X13150D01*
Y7635D02*
X13168D01*
Y7637D02*
X13150D01*
X13129Y7598D02*
X13110D01*
Y7635D02*
X13129D01*
X13090Y7637D02*
X13071D01*
Y7596D02*
X13090D01*
X13110D02*
X13129D01*
X13189D02*
X13208D01*
X12932Y7598D02*
X12913D01*
Y7635D02*
X12932D01*
Y7637D02*
X12913D01*
X13032D02*
X13050D01*
X12893Y7598D02*
X12874D01*
Y7635D02*
X12893D01*
X12913Y7596D02*
X12932D01*
X12893Y7637D02*
X12874D01*
Y7596D02*
X12893D01*
X12853Y7598D02*
X12835D01*
Y7635D02*
X12853D01*
X12814Y7598D02*
X12795D01*
Y7635D02*
X12814D01*
X12735Y7637D02*
X12717D01*
Y7596D02*
X12735D01*
X12756Y7598D02*
X12775D01*
Y7635D02*
X12756D01*
X12696Y7637D02*
X12677D01*
X12717Y7598D02*
X12735D01*
Y7635D02*
X12717D01*
X12756Y7637D02*
X12775D01*
X12835D02*
X12853D01*
X12696Y7598D02*
X12677D01*
Y7635D02*
X12696D01*
Y7596D02*
X12677D01*
X12617Y7598D02*
X12598D01*
Y7635D02*
X12617D01*
X12578Y7637D02*
X12559D01*
X12538D02*
X12520D01*
X12638Y7596D02*
X12657D01*
X12657Y7637D02*
X12638D01*
X12617Y7596D02*
X12598D01*
X12638Y7598D02*
X12657D01*
Y7635D02*
X12638D01*
X12617Y7637D02*
X12598D01*
X12578Y7596D02*
X12559D01*
X12475Y7598D02*
X12457D01*
Y7635D02*
X12475D01*
X13140Y7716D02*
X13198D01*
X13420Y7753D02*
X12450D01*
Y7754D02*
X12447D01*
X12444D01*
X12438Y7754D02*
X13421D01*
X12549Y7675D02*
X12548D01*
X13100Y7715D02*
X13139D01*
X13179Y7754D02*
X13218D01*
X13257D02*
X13297D01*
X13336D02*
X13376D01*
X13415Y7675D02*
X13528D01*
X13494Y7677D02*
X13453D01*
X13140Y7718D02*
X13060D01*
X13140D02*
X13147D01*
X13171D02*
X13178D01*
X13140Y7723D02*
X13060D01*
Y7728D02*
X13140D01*
Y7733D02*
X13060D01*
Y7738D02*
X13140D01*
Y7743D02*
X13060D01*
Y7748D02*
X13140D01*
X13189Y7714D02*
X13190D01*
Y7716D02*
X13189D01*
X13062Y7704D02*
X13060D01*
X13099D02*
X13101D01*
X13138D02*
X13140D01*
X13178D02*
X13180D01*
X12510Y7663D02*
X12435D01*
X12784D02*
X12825D01*
X12941D02*
X13022D01*
X13178D02*
X13219D01*
X13532D02*
X13545D01*
X12510Y7668D02*
X12435D01*
X12784D02*
X12825D01*
X12941D02*
X13022D01*
X13178D02*
X13219D01*
X13532D02*
X13540D01*
X12510Y7673D02*
X12435D01*
X12510D02*
X12519D01*
X12540D02*
X12548D01*
X12550D02*
X12558D01*
X12579D02*
X12587D01*
X12589D02*
X12597D01*
X12618D02*
X12626D01*
X12629D02*
X12637D01*
X12658D02*
X12666D01*
X12668D02*
X12676D01*
X12697D02*
X12705D01*
X12707D02*
X12715D01*
X12736D02*
X12745D01*
X12747D02*
X12755D01*
X12776D02*
X12784D01*
X12825D01*
X12833D01*
X12855D02*
X12863D01*
X12865D02*
X12873D01*
X12894D02*
X12902D01*
X12904D02*
X12912D01*
X12933D02*
X12941D01*
X13022D01*
X13030D01*
X13051D02*
X13060D01*
X13062D02*
X13070D01*
X13091D02*
X13099D01*
X13101D02*
X13109D01*
X13130D02*
X13138D01*
X13140D02*
X13148D01*
X13170D02*
X13178D01*
X13219D01*
X13227D01*
X13248D02*
X13256D01*
X13258D02*
X13267D01*
X13288D02*
X13296D01*
X13298D02*
X13306D01*
X13327D02*
X13335D01*
X13337D02*
X13345D01*
X13366D02*
X13374D01*
X13377D02*
X13385D01*
X13406D02*
X13414D01*
X13416D02*
X13424D01*
X13445D02*
X13453D01*
X13455D02*
X13463D01*
X13485D02*
X13493D01*
X13495D02*
X13503D01*
X13524D02*
X13532D01*
X12550Y7678D02*
X12435D01*
X12550D02*
X12557D01*
X12579D02*
X12587D01*
X12589D02*
X12597D01*
X12619D02*
X12626D01*
X12629D02*
X12636D01*
X12658D02*
X12666D01*
X12668D02*
X12676D01*
X12698D02*
X12705D01*
X12707D02*
X12715D01*
X12737D02*
X12745D01*
X12747D02*
X12754D01*
X12776D02*
X12784D01*
X12825D01*
X12833D01*
X12855D02*
X12863D01*
X12865D02*
X12872D01*
X12894D02*
X12902D01*
X12943D01*
X12951D01*
X12973D02*
X12981D01*
X12983D02*
X12991D01*
X13013D02*
X13020D01*
X13022D02*
X13030D01*
X13052D02*
X13060D01*
X13062D02*
X13069D01*
X13091D02*
X13099D01*
X13101D02*
X13109D01*
X13131D02*
X13138D01*
X13140D02*
X13148D01*
X13170D02*
X13178D01*
X13180D02*
X13187D01*
X13209D02*
X13217D01*
X13219D02*
X13227D01*
X13249D02*
X13256D01*
X13258D02*
X13266D01*
X13288D02*
X13296D01*
X13337D01*
X13345D01*
X13367D02*
X13374D01*
X13377D02*
X13384D01*
X13406D02*
X13414D01*
X13416D02*
X13424D01*
X13446D02*
X13453D01*
X13495D01*
X13502D01*
X12550Y7683D02*
X12435D01*
X12784D02*
X12825D01*
X12902D02*
X12943D01*
X13296D02*
X13337D01*
X13453D02*
X13495D01*
X12550Y7688D02*
X12435D01*
X12784D02*
X12825D01*
X12902D02*
X12943D01*
X13296D02*
X13337D01*
X12550Y7693D02*
X12435D01*
X12784D02*
X12825D01*
X12902D02*
X12943D01*
X13296D02*
X13337D01*
X12550Y7698D02*
X12435D01*
X12784D02*
X12825D01*
X12902D02*
X12943D01*
X13296D02*
X13337D01*
X12550Y7703D02*
X12435D01*
X12784D02*
X12825D01*
X12902D02*
X12943D01*
X13296D02*
X13337D01*
X12550Y7708D02*
X12435D01*
X12784D02*
X12825D01*
X12902D02*
X12943D01*
X13296D02*
X13337D01*
X12550Y7713D02*
X12435D01*
X12550D02*
X12559D01*
X12578D02*
X12587D01*
X12589D02*
X12598D01*
X12618D02*
X12626D01*
X12629D02*
X12637D01*
X12657D02*
X12666D01*
X12668D02*
X12677D01*
X12696D02*
X12705D01*
X12707D02*
X12716D01*
X12736D02*
X12745D01*
X12747D02*
X12755D01*
X12775D02*
X12784D01*
X12825D01*
X12834D01*
X12854D02*
X12863D01*
X12865D02*
X12873D01*
X12893D02*
X12902D01*
X12943D01*
X12952D01*
X12972D02*
X12981D01*
X12983D02*
X12992D01*
X13011D02*
X13020D01*
X13022D02*
X13031D01*
X13208D02*
X13217D01*
X13219D02*
X13228D01*
X13248D02*
X13256D01*
X13258D02*
X13267D01*
X13287D02*
X13296D01*
X13337D01*
X13346D01*
X13366D02*
X13374D01*
X13377D02*
X13385D01*
X13405D02*
X13414D01*
X13416D02*
X13425D01*
X12447Y7718D02*
X12435D01*
X12447D02*
X12454D01*
X12478D02*
X12485D01*
X12550D01*
X12557D01*
X12580D02*
X12587D01*
X12589D02*
X12596D01*
X12619D02*
X12626D01*
X12629D02*
X12636D01*
X12659D02*
X12666D01*
X12672D01*
X12679D01*
X12738D02*
X12745D01*
X12747D02*
X12754D01*
X12777D02*
X12784D01*
X12786D02*
X12793D01*
X12816D02*
X12823D01*
X12825D02*
X12832D01*
X12856D02*
X12863D01*
X12865D02*
X12872D01*
X12895D02*
X12902D01*
X12943D01*
X12951D01*
X12974D02*
X12981D01*
X12983D02*
X12990D01*
X13013D02*
X13020D01*
X13022D02*
X13029D01*
X13210D02*
X13217D01*
X13219D02*
X13226D01*
X13249D02*
X13256D01*
X13258D02*
X13265D01*
X13289D02*
X13296D01*
X13298D02*
X13305D01*
X13328D02*
X13335D01*
X13337D02*
X13344D01*
X13367D02*
X13374D01*
X13377D02*
X13384D01*
X13407D02*
X13414D01*
X13416D02*
X13423D01*
X12447Y7723D02*
X12435D01*
X12485D02*
X12550D01*
X12666D02*
X12672D01*
X12902D02*
X12943D01*
X12447Y7728D02*
X12435D01*
X12485D02*
X12550D01*
X12666D02*
X12672D01*
X12902D02*
X12943D01*
X12447Y7733D02*
X12435D01*
X12485D02*
X12550D01*
X12666D02*
X12672D01*
X12902D02*
X12943D01*
X12447Y7738D02*
X12435D01*
X12485D02*
X12550D01*
X12666D02*
X12672D01*
X12902D02*
X12943D01*
X12447Y7743D02*
X12435D01*
X12485D02*
X12550D01*
X12666D02*
X12672D01*
X12902D02*
X12943D01*
X12447Y7748D02*
X12435D01*
X12485D02*
X12550D01*
X12666D02*
X12672D01*
X12902D02*
X12943D01*
X12550Y7758D02*
X12435D01*
X12550D02*
X12556D01*
X12581D02*
X12587D01*
X12589D02*
X12596D01*
X12620D02*
X12626D01*
X12629D02*
X12635D01*
X12659D02*
X12666D01*
X12668D02*
X12674D01*
X12699D02*
X12705D01*
X12707D02*
X12714D01*
X12738D02*
X12745D01*
X12747D02*
X12753D01*
X12778D02*
X12784D01*
X12786D02*
X12792D01*
X12817D02*
X12823D01*
X12825D02*
X12832D01*
X12856D02*
X12863D01*
X12865D02*
X12871D01*
X12896D02*
X12902D01*
X12904D02*
X12911D01*
X12935D02*
X12941D01*
X12943D02*
X12950D01*
X12974D02*
X12981D01*
X12983D02*
X12989D01*
X13014D02*
X13020D01*
X13022D02*
X13029D01*
X13171D02*
X13178D01*
X13180D02*
X13186D01*
X13211D02*
X13217D01*
X13219D02*
X13225D01*
X13250D02*
X13256D01*
X13258D02*
X13265D01*
X13289D02*
X13296D01*
X13298D02*
X13304D01*
X13329D02*
X13335D01*
X13337D02*
X13344D01*
X13368D02*
X13374D01*
X13377D02*
X13383D01*
X13407D02*
X13414D01*
X13423D01*
X13504Y7674D02*
X13523D01*
X13483D02*
X13465D01*
X13504Y7676D02*
X13523D01*
X13444Y7674D02*
X13425D01*
X13405D02*
X13386D01*
X13326D02*
X13307D01*
X13286D02*
X13268D01*
X13425Y7676D02*
X13427D01*
X13444D01*
X13427Y7714D02*
X13425D01*
X13365Y7716D02*
X13347D01*
Y7753D02*
X13365D01*
X13286Y7755D02*
X13268D01*
X13347Y7674D02*
X13365D01*
X13386Y7676D02*
X13405D01*
Y7714D02*
X13386D01*
Y7716D02*
X13405D01*
Y7753D02*
X13386D01*
X13365Y7676D02*
X13347D01*
Y7714D02*
X13365D01*
X13326Y7716D02*
X13307D01*
Y7753D02*
X13326D01*
X13286Y7676D02*
X13268D01*
Y7714D02*
X13286D01*
X13425Y7716D02*
X13427D01*
Y7753D02*
X13425D01*
X13405Y7755D02*
X13386D01*
X13326D02*
X13307D01*
X13286Y7716D02*
X13268D01*
Y7753D02*
X13286D01*
X13347Y7755D02*
X13365D01*
X13129Y7674D02*
X13110D01*
X13228Y7676D02*
X13247D01*
Y7714D02*
X13228D01*
X13168Y7676D02*
X13150D01*
X13228Y7674D02*
X13247D01*
X13208Y7676D02*
X13189D01*
Y7714D02*
X13208D01*
X13228Y7716D02*
X13247D01*
Y7753D02*
X13228D01*
X13208Y7716D02*
X13189D01*
Y7753D02*
X13208D01*
X13168Y7674D02*
X13150D01*
X13090Y7674D02*
X13071D01*
X13228Y7755D02*
X13247D01*
X13208D02*
X13189D01*
X13129Y7676D02*
X13110D01*
X13090D02*
X13071D01*
X12932Y7674D02*
X12913D01*
X13032D02*
X13050D01*
X13011Y7676D02*
X12992D01*
Y7714D02*
X13011D01*
X13032Y7676D02*
X13050D01*
Y7714D02*
X13032D01*
X12893Y7755D02*
X12874D01*
Y7674D02*
X12893D01*
Y7676D02*
X12874D01*
Y7714D02*
X12893D01*
X12953Y7676D02*
X12971D01*
Y7714D02*
X12953D01*
X13032Y7716D02*
X13050D01*
Y7753D02*
X13032D01*
X13011Y7716D02*
X12992D01*
Y7753D02*
X13011D01*
X12893Y7716D02*
X12874D01*
Y7753D02*
X12893D01*
X12913Y7755D02*
X12932D01*
X12953Y7755D02*
X12971D01*
X12992D02*
X13011D01*
X13032Y7755D02*
X13050D01*
X12971Y7716D02*
X12953D01*
Y7753D02*
X12971D01*
X12735Y7674D02*
X12717D01*
X12835Y7676D02*
X12853D01*
Y7714D02*
X12835D01*
X12775Y7716D02*
X12756D01*
Y7753D02*
X12775D01*
X12696Y7755D02*
X12677D01*
Y7674D02*
X12696D01*
X12756D02*
X12775D01*
X12835D02*
X12853D01*
X12696Y7676D02*
X12677D01*
Y7714D02*
X12696D01*
X12717Y7716D02*
X12735D01*
Y7753D02*
X12717D01*
X12756Y7676D02*
X12775D01*
Y7714D02*
X12756D01*
X12795Y7716D02*
X12814D01*
Y7753D02*
X12795D01*
X12835Y7716D02*
X12853D01*
Y7753D02*
X12835D01*
X12700Y7716D02*
X12681D01*
Y7753D02*
X12700D01*
X12717Y7755D02*
X12735D01*
X12756Y7755D02*
X12775D01*
X12795D02*
X12814D01*
X12835Y7755D02*
X12853D01*
X12735Y7676D02*
X12717D01*
Y7714D02*
X12735D01*
X12578Y7674D02*
X12559D01*
X12538D02*
X12520D01*
X12638Y7676D02*
X12657D01*
Y7714D02*
X12638D01*
X12578Y7676D02*
X12559D01*
Y7714D02*
X12578D01*
Y7716D02*
X12559D01*
Y7753D02*
X12578D01*
Y7755D02*
X12559D01*
X12638Y7674D02*
X12657D01*
Y7716D02*
X12638D01*
Y7753D02*
X12657D01*
X12617Y7674D02*
X12598D01*
Y7676D02*
X12617D01*
Y7714D02*
X12598D01*
X12598Y7716D02*
X12617D01*
Y7753D02*
X12598D01*
Y7755D02*
X12617D01*
X12638Y7755D02*
X12657D01*
X12475Y7716D02*
X12457D01*
Y7753D02*
X12475D01*
X13451Y7683D02*
X13453D01*
X13495D01*
X13497D01*
X12588Y7837D02*
X12548D01*
X12627Y7796D02*
X12667D01*
X12706Y7797D02*
X12746D01*
X12785Y7803D02*
X12824D01*
X12864Y7793D02*
X12903D01*
X12942D02*
X12982D01*
X13021Y7794D02*
X13061D01*
X13060Y7770D02*
X13062D01*
X13099D02*
X13140D01*
Y7783D02*
X13099D01*
X12550Y7763D02*
X12435D01*
Y7768D02*
X12550D01*
Y7773D02*
X12435D01*
X13099D02*
X13140D01*
X12550Y7778D02*
X12435D01*
X13099D02*
X13140D01*
X12550Y7783D02*
X12435D01*
Y7788D02*
X12550D01*
X13099D02*
X13140D01*
X13152Y7793D02*
X12435D01*
Y7798D02*
X12550D01*
X12626D02*
X12668D01*
X12705D02*
X12747D01*
X12784D02*
X12865D01*
X12902D02*
X12943D01*
X12981D02*
X13062D01*
X13099D02*
X13147D01*
X12550Y7803D02*
X12435D01*
X12626D02*
X12668D01*
X12705D02*
X12747D01*
X12784D02*
X12865D01*
X12902D02*
X12943D01*
X12981D02*
X13062D01*
X13099D02*
X13142D01*
X12550Y7808D02*
X12435D01*
X12626D02*
X12668D01*
X12705D02*
X12747D01*
X12784D02*
X12865D01*
X12902D02*
X12943D01*
X12981D02*
X13062D01*
X13099D02*
X13137D01*
X12550Y7813D02*
X12435D01*
X12626D02*
X12668D01*
X12705D02*
X12747D01*
X12784D02*
X12865D01*
X12902D02*
X12943D01*
X12981D02*
X13062D01*
X13099D02*
X13132D01*
X12550Y7818D02*
X12435D01*
X12626D02*
X12668D01*
X12705D02*
X12747D01*
X12784D02*
X12865D01*
X12902D02*
X12943D01*
X12981D02*
X13062D01*
X13099D02*
X13127D01*
X12550Y7823D02*
X12435D01*
X12626D02*
X12668D01*
X12705D02*
X12747D01*
X12784D02*
X12865D01*
X12902D02*
X12943D01*
X12981D02*
X13062D01*
X13099D02*
X13122D01*
X12550Y7828D02*
X12435D01*
X12626D02*
X12668D01*
X12705D02*
X12747D01*
X12784D02*
X12865D01*
X12902D02*
X12943D01*
X12981D02*
X13062D01*
X13099D02*
X13117D01*
X13112Y7833D02*
X12435D01*
Y7838D02*
X12457D01*
X12476D02*
X13107D01*
X12447Y7843D02*
X12435D01*
X12485D02*
X13102D01*
X12447Y7848D02*
X12435D01*
X12485D02*
X13097D01*
X12447Y7853D02*
X12435D01*
X12485D02*
X13092D01*
X13090Y7792D02*
X13071D01*
Y7794D02*
X13090D01*
Y7832D02*
X13071D01*
X13150Y7792D02*
X13152D01*
X12893D02*
X12874D01*
X12953Y7794D02*
X12971D01*
Y7832D02*
X12953D01*
X12893Y7794D02*
X12874D01*
Y7832D02*
X12893D01*
X12913Y7792D02*
X12932D01*
X12953Y7792D02*
X12971D01*
X12992D02*
X13011D01*
X13032Y7792D02*
X13050D01*
X12696Y7794D02*
X12677D01*
Y7832D02*
X12696D01*
X12756Y7794D02*
X12775D01*
Y7832D02*
X12756D01*
X12696Y7792D02*
X12677D01*
X12717Y7792D02*
X12735D01*
X12756Y7792D02*
X12775D01*
X12795D02*
X12814D01*
X12835Y7792D02*
X12853D01*
X12578Y7792D02*
X12559D01*
X12598Y7794D02*
X12617D01*
Y7832D02*
X12598D01*
Y7792D02*
X12617D01*
X12638Y7792D02*
X12657D01*
X12578Y7794D02*
X12559D01*
Y7832D02*
X12578D01*
X12475Y7838D02*
X12457D01*
X13178Y7766D02*
X13179D01*
X13180D01*
X13217D02*
X13219D01*
X13256D02*
X13258D01*
X13296D02*
X13298D01*
X13335D02*
X13337D01*
X13374D02*
X13377D01*
X13414D02*
X13415D01*
X13060Y7713D02*
X13051D01*
X13062D02*
X13070D01*
X13090D02*
X13099D01*
X13101D02*
X13110D01*
X13130D02*
X13138D01*
X13140D02*
X13149D01*
X13169D02*
X13178D01*
X13180D02*
X13188D01*
X13060Y7718D02*
X13053D01*
X13180D02*
X13187D01*
X13060Y7758D02*
X13053D01*
X13062D02*
X13068D01*
X13093D02*
X13099D01*
X13140D01*
X13147D01*
X13140Y7763D02*
X13099D01*
Y7768D02*
X13140D01*
X13150Y7714D02*
X13168D01*
X13090Y7755D02*
X13071D01*
X13150D02*
X13168D01*
X13129Y7714D02*
X13110D01*
X13090D02*
X13071D01*
X12447Y7858D02*
X12435D01*
X12485D02*
X13087D01*
X12447Y7863D02*
X12435D01*
X12485D02*
X12566D01*
X12573D01*
X12595D02*
X12603D01*
X12629D01*
X12636D01*
X12658D02*
X12666D01*
X13082D01*
X12447Y7868D02*
X12435D01*
X12485D02*
X12566D01*
X12603D02*
X12629D01*
X12666D02*
X13077D01*
X12447Y7873D02*
X12435D01*
X12447D02*
X12455D01*
X12477D02*
X12485D01*
X12566D01*
X12603D02*
X12629D01*
X12666D02*
X13072D01*
X12566Y7878D02*
X12435D01*
X12603D02*
X12629D01*
X12666D02*
X13067D01*
X12566Y7883D02*
X12435D01*
X12603D02*
X12629D01*
X12666D02*
X13062D01*
X12566Y7888D02*
X12435D01*
X12603D02*
X12629D01*
X12666D02*
X13057D01*
X12566Y7893D02*
X12435D01*
X12603D02*
X12629D01*
X12666D02*
X13052D01*
X12566Y7898D02*
X12435D01*
X12566D02*
X12574D01*
X12594D02*
X12603D01*
X12629D01*
X12637D01*
X12657D02*
X12666D01*
X12983D01*
X12991D01*
X13012D02*
X13020D01*
X13047D01*
X12983Y7903D02*
X12435D01*
X13020D02*
X13042D01*
X12983Y7908D02*
X12435D01*
X13020D02*
X13037D01*
X12983Y7913D02*
X12435D01*
X13020D02*
X13032D01*
X12983Y7918D02*
X12437D01*
X13020D02*
X13027D01*
X12983Y7923D02*
X12442D01*
X12447Y7928D02*
X12983D01*
Y7933D02*
X12452D01*
X12983D02*
X12991D01*
X13007Y7938D02*
X12457D01*
X12462Y7943D02*
X12825D01*
X12832D01*
X12856D02*
X12863D01*
X13002D01*
X12992Y7897D02*
X13011D01*
X13010Y7934D02*
X12992D01*
X12853Y7940D02*
X12835D01*
X12657Y7861D02*
X12638D01*
Y7899D02*
X12657D01*
X12594Y7861D02*
X12575D01*
Y7899D02*
X12594D01*
X12475Y7875D02*
X12457D01*
X12466Y7947D02*
X12825D01*
X12828D01*
X12860D02*
X12863D01*
X12998D01*
X10568Y6490D02*
Y6435D01*
X10593Y6481D02*
Y6500D01*
X10630D02*
Y6481D01*
X10593Y6515D02*
X10612Y6534D01*
X10593Y6515D02*
X10587Y6509D01*
X10568Y6490D01*
X10602Y6454D02*
X10593Y6444D01*
X10621Y6416D02*
X10630Y6426D01*
X10593Y6500D02*
X10602Y6509D01*
X10630Y6481D02*
X10621Y6472D01*
X10568Y6435D02*
X10587Y6416D01*
X10593Y6410D01*
X10612Y6392D01*
X10602Y6416D02*
X10593Y6426D01*
X10621Y6454D02*
X10630Y6444D01*
X10602Y6472D02*
X10593Y6481D01*
X10621Y6509D02*
X10630Y6500D01*
X10774D02*
Y6481D01*
X10811D02*
Y6500D01*
X10784Y6509D02*
X10774Y6500D01*
X10802Y6472D02*
X10811Y6481D01*
X10784Y6472D02*
X10774Y6481D01*
X10802Y6509D02*
X10811Y6500D01*
X11013Y6517D02*
Y6534D01*
X11046Y6454D02*
X11037Y6444D01*
X11065Y6416D02*
X11074Y6426D01*
X11046Y6416D02*
X11037Y6426D01*
X11065Y6454D02*
X11074Y6444D01*
X11100Y6517D02*
Y6534D01*
X11179Y6517D02*
X11195Y6534D01*
X11135Y6517D02*
X11118Y6534D01*
X11279Y6517D02*
X11295Y6534D01*
X11235Y6517D02*
X11218Y6534D01*
X11379Y6517D02*
X11395Y6534D01*
X11335Y6517D02*
X11318Y6534D01*
X11479Y6517D02*
X11495Y6534D01*
X11435Y6517D02*
X11418Y6534D01*
X11513Y6444D02*
X11523Y6454D01*
X11551Y6426D02*
X11541Y6416D01*
X11579Y6517D02*
X11595Y6534D01*
X11513Y6426D02*
X11523Y6416D01*
X11551Y6444D02*
X11541Y6454D01*
X11535Y6517D02*
X11518Y6534D01*
X11679Y6517D02*
X11695Y6534D01*
X11635Y6517D02*
X11618Y6534D01*
X11781Y6536D02*
Y6555D01*
X11700Y6540D02*
Y6539D01*
X11785Y6534D02*
Y6530D01*
X11805Y6527D02*
Y6525D01*
Y6507D01*
X11842D02*
Y6525D01*
X11818Y6536D02*
Y6555D01*
Y6536D02*
Y6534D01*
X11816Y6537D02*
Y6541D01*
X11726Y6565D02*
X11700Y6540D01*
X11694Y6534D01*
X11781Y6555D02*
X11790Y6564D01*
X11700Y6539D02*
X11695Y6534D01*
X11781Y6536D02*
X11790Y6527D01*
X11777Y6553D02*
X11714Y6553D01*
X11833Y6497D02*
X11842Y6507D01*
X11817Y6534D02*
X11818Y6536D01*
X11816Y6537D02*
X11805Y6526D01*
Y6530D02*
X11816Y6541D01*
X11805Y6507D02*
X11814Y6497D01*
X11842Y6525D02*
X11833Y6534D01*
X11818Y6555D02*
X11809Y6564D01*
X12450Y7753D02*
Y7754D01*
X12447Y7847D02*
Y7866D01*
Y7507D02*
Y7489D01*
Y7725D02*
Y7744D01*
Y7626D02*
Y7607D01*
Y6917D02*
Y6898D01*
Y7134D02*
Y7153D01*
X12442Y6796D02*
Y6775D01*
Y6796D02*
Y6798D01*
Y6809D01*
X12446Y6714D02*
Y6707D01*
X12435Y6699D02*
Y6726D01*
Y6809D02*
Y6817D01*
Y7915D01*
X12454Y6729D02*
Y6728D01*
Y6723D01*
Y6723D01*
X12423Y6761D02*
Y6771D01*
Y6761D02*
Y6754D01*
Y6753D01*
X12424Y6754D02*
Y6760D01*
Y6754D02*
Y6753D01*
X12429Y6754D02*
Y6755D01*
Y6754D02*
Y6753D01*
Y6748D01*
X12434D02*
Y6750D01*
Y6748D02*
Y6743D01*
X12439D02*
Y6745D01*
Y6743D02*
Y6738D01*
X12444D02*
Y6740D01*
Y6738D02*
Y6733D01*
X12449D02*
Y6735D01*
Y6733D02*
Y6728D01*
X12454D02*
Y6730D01*
Y6728D02*
Y6723D01*
Y6723D01*
X12464D02*
Y6723D01*
X12459D02*
Y6725D01*
Y6723D02*
Y6723D01*
X12394Y6767D02*
Y6769D01*
Y6767D02*
Y6749D01*
X12431Y6762D02*
Y6797D01*
X12427D02*
Y6746D01*
X12439Y6774D02*
Y6821D01*
X12435Y6805D02*
Y6770D01*
X12444Y6661D02*
X12348Y6565D01*
X12363Y6738D02*
X12365Y6739D01*
X12363Y6738D02*
X12357Y6731D01*
X12385Y6739D02*
X12394Y6749D01*
X12366Y6739D02*
X12365Y6740D01*
X12365Y6739D01*
X12447Y7866D02*
X12457Y7875D01*
Y7517D02*
X12447Y7507D01*
Y7744D02*
X12457Y7753D01*
Y7635D02*
X12447Y7626D01*
X12457Y6926D02*
X12447Y6917D01*
Y7153D02*
X12457Y7162D01*
X12443Y6797D02*
X12442Y6796D01*
X12463Y6707D02*
X12458Y6702D01*
X12435Y7915D02*
X12466Y7947D01*
X12468Y6685D02*
X12464Y6681D01*
X12459Y6676D01*
X12454Y6671D01*
X12454Y6671D01*
X12449Y6666D01*
X12444Y6661D01*
X12394Y6769D02*
X12402Y6777D01*
X12466Y6718D02*
X12469Y6721D01*
X12423Y6771D02*
X12418Y6766D01*
X12407Y6778D02*
X12427Y6797D01*
X12444Y7754D02*
X12442Y7756D01*
X12457Y7838D02*
X12447Y7847D01*
Y7489D02*
X12457Y7479D01*
Y7716D02*
X12447Y7725D01*
Y7607D02*
X12457Y7598D01*
X12447Y6898D02*
X12457Y6889D01*
Y7125D02*
X12447Y7134D01*
X12453Y6707D02*
X12458Y6702D01*
X12453Y6707D02*
X12450Y6710D01*
X12446Y6714D01*
X12446Y6714D01*
X12445Y6715D01*
X12442Y6718D01*
X12442Y6719D01*
X12439Y6722D01*
X12435Y6726D01*
X12467Y6750D02*
X12475Y6742D01*
X12467Y6750D02*
X12459Y6758D01*
X12450Y6767D01*
X12446Y6771D01*
X12446Y6771D01*
X12442Y6775D01*
X12435Y6766D02*
X12466Y6734D01*
X12423Y6761D02*
X12418Y6766D01*
X12423Y6761D02*
X12424Y6760D01*
X12429Y6755D01*
X12430Y6754D01*
X12431Y6753D01*
X12434Y6750D01*
X12436Y6748D01*
X12438Y6746D01*
X12439Y6745D01*
X12441Y6743D01*
X12444Y6740D01*
X12446Y6738D01*
X12446Y6737D01*
X12448Y6736D01*
X12449Y6735D01*
X12451Y6733D01*
X12453Y6731D01*
X12454Y6730D01*
X12454Y6729D01*
X12456Y6728D01*
X12458Y6726D01*
X12459Y6725D01*
X12461Y6723D01*
X12461Y6723D01*
X12463Y6721D01*
X12466Y6718D01*
X12394Y6767D02*
X12393Y6768D01*
X12431Y6762D02*
X12462Y6730D01*
X12458Y6719D02*
X12431Y6746D01*
X12458Y6726D02*
X12407Y6778D01*
X12439Y6774D02*
X12474Y6738D01*
X12470Y6734D02*
X12435Y6770D01*
X12394Y6769D02*
X12393Y6768D01*
X12402Y6777D02*
X12435Y6809D01*
X12423Y6771D01*
X12549Y6881D02*
Y7675D01*
X12548D02*
Y7837D01*
X12520Y6795D02*
Y6776D01*
X12483D02*
Y6795D01*
X12587Y7095D02*
Y7114D01*
X12550D02*
Y7095D01*
X12587Y7646D02*
Y7665D01*
X12550D02*
Y7646D01*
X12548D02*
Y7665D01*
X12510D02*
Y7646D01*
X12587Y7686D02*
Y7704D01*
X12550D02*
Y7686D01*
X12587Y7725D02*
Y7744D01*
X12550D02*
Y7725D01*
X12587Y7764D02*
Y7783D01*
X12550D02*
Y7764D01*
X12587Y7804D02*
Y7822D01*
X12550D02*
Y7804D01*
X12587Y7586D02*
Y7568D01*
X12550D02*
Y7586D01*
X12587Y7547D02*
Y7528D01*
X12550D02*
Y7547D01*
X12587Y7468D02*
Y7449D01*
X12550D02*
Y7468D01*
X12548Y7429D02*
Y7410D01*
X12510D02*
Y7429D01*
X12548Y7153D02*
Y7134D01*
X12510D02*
Y7153D01*
X12587D02*
Y7134D01*
X12550D02*
Y7153D01*
X12587Y7074D02*
Y7056D01*
X12550D02*
Y7074D01*
X12587Y7410D02*
Y7429D01*
X12550D02*
Y7410D01*
X12587Y7489D02*
Y7507D01*
X12550D02*
Y7489D01*
X12587Y7035D02*
Y7016D01*
X12550D02*
Y7035D01*
X12587Y6996D02*
Y6977D01*
X12550D02*
Y6996D01*
X12548Y6917D02*
Y6898D01*
X12510D02*
Y6917D01*
X12587D02*
Y6898D01*
X12550D02*
Y6917D01*
X12566Y7871D02*
Y7889D01*
X12485Y7866D02*
Y7847D01*
Y7507D02*
Y7489D01*
Y7725D02*
Y7744D01*
Y7626D02*
Y7607D01*
Y6917D02*
Y6898D01*
Y7134D02*
Y7153D01*
X12469Y6723D02*
Y6721D01*
X12504Y6721D02*
Y6723D01*
X12498Y6719D02*
Y6730D01*
X12509Y6734D02*
Y6738D01*
X12588Y6887D02*
Y7837D01*
X12627Y7796D02*
Y6887D01*
X12626Y7292D02*
Y7311D01*
X12589D02*
Y7292D01*
X12629D02*
Y7311D01*
X12626Y7607D02*
Y7626D01*
X12589D02*
Y7607D01*
X12629Y7686D02*
Y7704D01*
X12626Y7804D02*
Y7822D01*
X12589D02*
Y7804D01*
X12629Y7350D02*
Y7331D01*
X12626D02*
Y7350D01*
X12589D02*
Y7331D01*
X12629Y7371D02*
Y7389D01*
Y7449D02*
Y7468D01*
X12629Y7528D02*
Y7547D01*
Y7568D02*
Y7586D01*
X12629Y7646D02*
Y7665D01*
Y7725D02*
Y7744D01*
X12626Y7468D02*
Y7449D01*
X12589D02*
Y7468D01*
X12626Y7489D02*
Y7507D01*
X12589D02*
Y7489D01*
X12626Y7528D02*
Y7547D01*
X12589D02*
Y7528D01*
X12626Y7568D02*
Y7586D01*
X12589D02*
Y7568D01*
X12629Y7607D02*
Y7626D01*
X12626Y7646D02*
Y7665D01*
X12589D02*
Y7646D01*
X12626Y7686D02*
Y7704D01*
X12589D02*
Y7686D01*
X12626Y7725D02*
Y7744D01*
X12589D02*
Y7725D01*
X12626Y7764D02*
Y7783D01*
X12589D02*
Y7764D01*
X12629Y7764D02*
Y7783D01*
Y7232D02*
Y7213D01*
Y7153D02*
Y7134D01*
Y7074D02*
Y7056D01*
Y7035D02*
Y7016D01*
Y6956D02*
Y6938D01*
Y6917D02*
Y6898D01*
X12626Y7095D02*
Y7114D01*
X12589D02*
Y7095D01*
X12629D02*
Y7114D01*
Y7489D02*
Y7507D01*
X12626Y7429D02*
Y7410D01*
X12589D02*
Y7429D01*
X12626Y7232D02*
Y7213D01*
X12589D02*
Y7232D01*
X12629Y7192D02*
Y7174D01*
X12626Y7035D02*
Y7016D01*
X12589D02*
Y7035D01*
X12626Y6917D02*
Y6898D01*
X12589D02*
Y6917D01*
X12629Y7871D02*
Y7889D01*
X12603D02*
Y7871D01*
X12509Y6730D02*
Y6726D01*
Y6730D02*
Y6734D01*
Y6738D01*
Y6742D01*
X12511Y6767D02*
X12520Y6776D01*
X12492Y6804D02*
X12483Y6795D01*
X12578Y7086D02*
X12587Y7095D01*
X12559Y7123D02*
X12550Y7114D01*
X12578Y7637D02*
X12587Y7646D01*
X12559Y7674D02*
X12550Y7665D01*
X12548Y7646D02*
X12538Y7637D01*
X12510Y7665D02*
X12520Y7674D01*
X12578Y7676D02*
X12587Y7686D01*
X12559Y7714D02*
X12550Y7704D01*
X12578Y7716D02*
X12587Y7725D01*
X12559Y7753D02*
X12550Y7744D01*
X12578Y7755D02*
X12587Y7764D01*
X12559Y7792D02*
X12550Y7783D01*
X12578Y7794D02*
X12587Y7804D01*
X12559Y7832D02*
X12550Y7822D01*
X12587Y7568D02*
X12578Y7558D01*
X12550Y7586D02*
X12559Y7596D01*
X12587Y7528D02*
X12578Y7519D01*
X12550Y7547D02*
X12559Y7556D01*
X12587Y7449D02*
X12578Y7440D01*
X12550Y7468D02*
X12559Y7477D01*
X12548Y7410D02*
X12538Y7401D01*
X12510Y7429D02*
X12520Y7438D01*
X12548Y7134D02*
X12538Y7125D01*
X12510Y7153D02*
X12520Y7162D01*
X12578Y7125D02*
X12587Y7134D01*
X12559Y7162D02*
X12550Y7153D01*
X12587Y7056D02*
X12578Y7046D01*
X12550Y7074D02*
X12559Y7084D01*
X12578Y7401D02*
X12587Y7410D01*
X12559Y7438D02*
X12550Y7429D01*
X12578Y7479D02*
X12587Y7489D01*
X12559Y7517D02*
X12550Y7507D01*
X12587Y7016D02*
X12578Y7007D01*
X12550Y7035D02*
X12559Y7044D01*
X12587Y6977D02*
X12578Y6968D01*
X12550Y6996D02*
X12559Y7005D01*
X12548Y6898D02*
X12538Y6889D01*
X12510Y6917D02*
X12520Y6926D01*
X12578Y6889D02*
X12587Y6898D01*
X12559Y6926D02*
X12550Y6917D01*
X12566Y7889D02*
X12575Y7899D01*
X12485Y7847D02*
X12475Y7838D01*
X12485Y7489D02*
X12475Y7479D01*
Y7716D02*
X12485Y7725D01*
Y7607D02*
X12475Y7598D01*
X12485Y6898D02*
X12475Y6889D01*
Y7125D02*
X12485Y7134D01*
X12486Y6703D02*
X12482Y6699D01*
X12486Y6703D02*
X12490Y6707D01*
X12509Y6726D02*
X12513Y6730D01*
X12517Y6734D01*
X12505Y6723D02*
X12504Y6721D01*
X12503Y6720D01*
X12499Y6716D01*
X12498Y6715D01*
X12494Y6711D01*
X12493Y6710D01*
X12489Y6706D01*
X12488Y6705D01*
X12484Y6701D01*
X12483Y6700D01*
X12479Y6696D01*
X12478Y6695D01*
X12474Y6691D01*
X12473Y6690D01*
X12469Y6686D01*
X12468Y6685D01*
X12469Y6721D02*
X12471Y6723D01*
X12502Y6719D02*
X12509Y6726D01*
X12520Y6795D02*
X12511Y6804D01*
X12483Y6776D02*
X12492Y6767D01*
X12587Y7114D02*
X12578Y7123D01*
X12550Y7095D02*
X12559Y7086D01*
X12587Y7665D02*
X12578Y7674D01*
X12550Y7646D02*
X12559Y7637D01*
X12548Y7665D02*
X12538Y7674D01*
X12510Y7646D02*
X12520Y7637D01*
X12587Y7704D02*
X12578Y7714D01*
X12550Y7686D02*
X12559Y7676D01*
X12587Y7744D02*
X12578Y7753D01*
X12550Y7725D02*
X12559Y7716D01*
X12587Y7783D02*
X12578Y7792D01*
X12550Y7764D02*
X12559Y7755D01*
X12587Y7822D02*
X12578Y7832D01*
X12550Y7804D02*
X12559Y7794D01*
X12578Y7596D02*
X12587Y7586D01*
X12559Y7558D02*
X12550Y7568D01*
X12578Y7556D02*
X12587Y7547D01*
X12559Y7519D02*
X12550Y7528D01*
X12578Y7477D02*
X12587Y7468D01*
X12559Y7440D02*
X12550Y7449D01*
X12538Y7438D02*
X12548Y7429D01*
X12520Y7401D02*
X12510Y7410D01*
X12538Y7162D02*
X12548Y7153D01*
X12520Y7125D02*
X12510Y7134D01*
X12578Y7162D02*
X12587Y7153D01*
X12559Y7125D02*
X12550Y7134D01*
X12578Y7084D02*
X12587Y7074D01*
X12559Y7046D02*
X12550Y7056D01*
X12587Y7429D02*
X12578Y7438D01*
X12550Y7410D02*
X12559Y7401D01*
X12587Y7507D02*
X12578Y7517D01*
X12550Y7489D02*
X12559Y7479D01*
X12578Y7044D02*
X12587Y7035D01*
X12559Y7007D02*
X12550Y7016D01*
X12578Y7005D02*
X12587Y6996D01*
X12559Y6968D02*
X12550Y6977D01*
X12538Y6926D02*
X12548Y6917D01*
X12520Y6889D02*
X12510Y6898D01*
X12578Y6926D02*
X12587Y6917D01*
X12559Y6889D02*
X12550Y6898D01*
X12575Y7861D02*
X12566Y7871D01*
X12485Y7866D02*
X12475Y7875D01*
Y7517D02*
X12485Y7507D01*
Y7744D02*
X12475Y7753D01*
Y7635D02*
X12485Y7626D01*
X12475Y6926D02*
X12485Y6917D01*
Y7153D02*
X12475Y7162D01*
X12617Y7283D02*
X12626Y7292D01*
X12598Y7320D02*
X12589Y7311D01*
X12657Y7283D02*
X12666Y7292D01*
X12638Y7320D02*
X12629Y7311D01*
X12617Y7598D02*
X12626Y7607D01*
X12598Y7635D02*
X12589Y7626D01*
X12657Y7676D02*
X12666Y7686D01*
X12638Y7714D02*
X12629Y7704D01*
X12617Y7794D02*
X12626Y7804D01*
X12598Y7832D02*
X12589Y7822D01*
X12666Y7331D02*
X12657Y7322D01*
X12629Y7350D02*
X12638Y7359D01*
X12626Y7331D02*
X12617Y7322D01*
X12589Y7350D02*
X12598Y7359D01*
X12657Y7361D02*
X12666Y7371D01*
X12638Y7399D02*
X12629Y7389D01*
X12657Y7440D02*
X12666Y7449D01*
X12638Y7477D02*
X12629Y7468D01*
X12657Y7519D02*
X12666Y7528D01*
X12638Y7556D02*
X12629Y7547D01*
X12657Y7558D02*
X12666Y7568D01*
X12638Y7596D02*
X12629Y7586D01*
X12657Y7637D02*
X12666Y7646D01*
X12638Y7674D02*
X12629Y7665D01*
X12657Y7716D02*
X12666Y7725D01*
X12638Y7753D02*
X12629Y7744D01*
X12626Y7449D02*
X12617Y7440D01*
X12589Y7468D02*
X12598Y7477D01*
X12617Y7479D02*
X12626Y7489D01*
X12598Y7517D02*
X12589Y7507D01*
X12617Y7519D02*
X12626Y7528D01*
X12598Y7556D02*
X12589Y7547D01*
X12617Y7558D02*
X12626Y7568D01*
X12598Y7596D02*
X12589Y7586D01*
X12657Y7598D02*
X12666Y7607D01*
X12638Y7635D02*
X12629Y7626D01*
X12617Y7637D02*
X12626Y7646D01*
X12598Y7674D02*
X12589Y7665D01*
X12617Y7676D02*
X12626Y7686D01*
X12598Y7714D02*
X12589Y7704D01*
X12617Y7716D02*
X12626Y7725D01*
X12598Y7753D02*
X12589Y7744D01*
X12617Y7755D02*
X12626Y7764D01*
X12598Y7792D02*
X12589Y7783D01*
X12657Y7755D02*
X12666Y7764D01*
X12638Y7792D02*
X12629Y7783D01*
X12666Y7213D02*
X12657Y7204D01*
X12629Y7232D02*
X12638Y7241D01*
X12666Y7134D02*
X12657Y7125D01*
X12629Y7153D02*
X12638Y7162D01*
X12666Y7056D02*
X12657Y7046D01*
X12629Y7074D02*
X12638Y7084D01*
X12666Y7016D02*
X12657Y7007D01*
X12629Y7035D02*
X12638Y7044D01*
X12666Y6938D02*
X12657Y6928D01*
X12629Y6956D02*
X12638Y6966D01*
X12666Y6898D02*
X12657Y6889D01*
X12629Y6917D02*
X12638Y6926D01*
X12617Y7086D02*
X12626Y7095D01*
X12598Y7123D02*
X12589Y7114D01*
X12657Y7086D02*
X12666Y7095D01*
X12638Y7123D02*
X12629Y7114D01*
X12657Y7479D02*
X12666Y7489D01*
X12638Y7517D02*
X12629Y7507D01*
X12626Y7410D02*
X12617Y7401D01*
X12589Y7429D02*
X12598Y7438D01*
X12626Y7213D02*
X12617Y7204D01*
X12589Y7232D02*
X12598Y7241D01*
X12666Y7174D02*
X12657Y7165D01*
X12629Y7192D02*
X12638Y7202D01*
X12626Y7016D02*
X12617Y7007D01*
X12589Y7035D02*
X12598Y7044D01*
X12626Y6898D02*
X12617Y6889D01*
X12589Y6917D02*
X12598Y6926D01*
X12657Y7861D02*
X12666Y7871D01*
X12638Y7899D02*
X12629Y7889D01*
X12603Y7871D02*
X12594Y7861D01*
X12617Y7320D02*
X12626Y7311D01*
X12598Y7283D02*
X12589Y7292D01*
X12657Y7320D02*
X12666Y7311D01*
X12638Y7283D02*
X12629Y7292D01*
X12626Y7626D02*
X12617Y7635D01*
X12589Y7607D02*
X12598Y7598D01*
X12666Y7704D02*
X12657Y7714D01*
X12629Y7686D02*
X12638Y7676D01*
X12626Y7822D02*
X12617Y7832D01*
X12589Y7804D02*
X12598Y7794D01*
X12657Y7359D02*
X12666Y7350D01*
X12638Y7322D02*
X12629Y7331D01*
X12626Y7350D02*
X12617Y7359D01*
X12589Y7331D02*
X12598Y7322D01*
X12666Y7389D02*
X12657Y7399D01*
X12629Y7371D02*
X12638Y7361D01*
X12666Y7468D02*
X12657Y7477D01*
X12629Y7449D02*
X12638Y7440D01*
X12666Y7547D02*
X12657Y7556D01*
X12629Y7528D02*
X12638Y7519D01*
X12666Y7586D02*
X12657Y7596D01*
X12629Y7568D02*
X12638Y7558D01*
X12666Y7665D02*
X12657Y7674D01*
X12629Y7646D02*
X12638Y7637D01*
X12666Y7744D02*
X12657Y7753D01*
X12629Y7725D02*
X12638Y7716D01*
X12617Y7477D02*
X12626Y7468D01*
X12598Y7440D02*
X12589Y7449D01*
X12626Y7507D02*
X12617Y7517D01*
X12589Y7489D02*
X12598Y7479D01*
X12626Y7547D02*
X12617Y7556D01*
X12589Y7528D02*
X12598Y7519D01*
X12626Y7586D02*
X12617Y7596D01*
X12589Y7568D02*
X12598Y7558D01*
X12666Y7626D02*
X12657Y7635D01*
X12629Y7607D02*
X12638Y7598D01*
X12626Y7665D02*
X12617Y7674D01*
X12589Y7646D02*
X12598Y7637D01*
X12626Y7704D02*
X12617Y7714D01*
X12589Y7686D02*
X12598Y7676D01*
X12626Y7744D02*
X12617Y7753D01*
X12589Y7725D02*
X12598Y7716D01*
X12626Y7783D02*
X12617Y7792D01*
X12589Y7764D02*
X12598Y7755D01*
X12657Y7792D02*
X12666Y7783D01*
X12638Y7755D02*
X12629Y7764D01*
X12657Y7241D02*
X12666Y7232D01*
X12638Y7204D02*
X12629Y7213D01*
X12657Y7162D02*
X12666Y7153D01*
X12638Y7125D02*
X12629Y7134D01*
X12657Y7084D02*
X12666Y7074D01*
X12638Y7046D02*
X12629Y7056D01*
X12657Y7044D02*
X12666Y7035D01*
X12638Y7007D02*
X12629Y7016D01*
X12657Y6966D02*
X12666Y6956D01*
X12638Y6928D02*
X12629Y6938D01*
X12657Y6926D02*
X12666Y6917D01*
X12638Y6889D02*
X12629Y6898D01*
X12626Y7114D02*
X12617Y7123D01*
X12589Y7095D02*
X12598Y7086D01*
X12657Y7123D02*
X12666Y7114D01*
X12638Y7086D02*
X12629Y7095D01*
X12666Y7507D02*
X12657Y7517D01*
X12629Y7489D02*
X12638Y7479D01*
X12617Y7438D02*
X12626Y7429D01*
X12598Y7401D02*
X12589Y7410D01*
X12617Y7241D02*
X12626Y7232D01*
X12598Y7204D02*
X12589Y7213D01*
X12657Y7202D02*
X12666Y7192D01*
X12638Y7165D02*
X12629Y7174D01*
X12617Y7044D02*
X12626Y7035D01*
X12598Y7007D02*
X12589Y7016D01*
X12617Y6926D02*
X12626Y6917D01*
X12598Y6889D02*
X12589Y6898D01*
X12666Y7889D02*
X12657Y7899D01*
X12629Y7871D02*
X12638Y7861D01*
X12603Y7889D02*
X12594Y7899D01*
X12498Y6730D02*
X12499Y6723D01*
X12494D02*
X12498Y6730D01*
X12667Y6847D02*
Y7796D01*
X12706Y7797D02*
Y6847D01*
X12746Y6848D02*
Y7797D01*
X12705Y7311D02*
Y7292D01*
X12668D02*
Y7311D01*
X12745D02*
Y7292D01*
X12707D02*
Y7311D01*
X12745Y7449D02*
Y7468D01*
X12707D02*
Y7449D01*
X12705Y7804D02*
Y7822D01*
X12668D02*
Y7804D01*
X12705Y6744D02*
Y6734D01*
X12668D02*
Y6744D01*
X12705Y6757D02*
Y6775D01*
X12668D02*
Y6757D01*
X12747Y7016D02*
Y7035D01*
X12705Y7056D02*
Y7074D01*
X12668D02*
Y7056D01*
X12745Y7646D02*
Y7665D01*
X12707D02*
Y7646D01*
X12747Y7725D02*
Y7744D01*
Y7804D02*
Y7822D01*
X12705Y7783D02*
Y7764D01*
X12668D02*
Y7783D01*
X12747Y7468D02*
Y7449D01*
X12745Y7350D02*
Y7331D01*
X12707D02*
Y7350D01*
X12747Y7410D02*
Y7429D01*
Y7389D02*
Y7371D01*
X12745Y7410D02*
Y7429D01*
X12707D02*
Y7410D01*
X12705Y7389D02*
Y7371D01*
X12668D02*
Y7389D01*
X12705Y7528D02*
Y7547D01*
X12668D02*
Y7528D01*
X12745Y7568D02*
Y7586D01*
X12707D02*
Y7568D01*
X12747Y7607D02*
Y7626D01*
X12705Y7646D02*
Y7665D01*
X12668D02*
Y7646D01*
X12745Y7626D02*
Y7607D01*
X12707D02*
Y7626D01*
X12747Y7646D02*
Y7665D01*
X12705Y7507D02*
Y7489D01*
X12668D02*
Y7507D01*
X12705Y7607D02*
Y7626D01*
X12668D02*
Y7607D01*
X12705Y7686D02*
Y7704D01*
X12668D02*
Y7686D01*
X12745Y7725D02*
Y7744D01*
X12707Y7725D02*
Y7723D01*
Y7744D02*
Y7746D01*
X12747Y7704D02*
Y7686D01*
X12709Y7723D02*
Y7725D01*
Y7744D02*
Y7746D01*
X12672Y7744D02*
Y7725D01*
X12745Y7764D02*
Y7783D01*
X12707D02*
Y7764D01*
X12747Y7764D02*
Y7783D01*
Y7074D02*
Y7056D01*
X12745Y7035D02*
Y7016D01*
X12707D02*
Y7035D01*
X12747Y7253D02*
Y7271D01*
X12705Y7232D02*
Y7213D01*
X12668D02*
Y7232D01*
X12745Y7192D02*
Y7174D01*
X12707D02*
Y7192D01*
X12705Y7153D02*
Y7134D01*
X12668D02*
Y7153D01*
X12745Y7074D02*
Y7056D01*
X12707D02*
Y7074D01*
X12745Y7253D02*
Y7271D01*
X12707D02*
Y7253D01*
X12747Y6996D02*
Y6977D01*
X12705Y7016D02*
Y7035D01*
X12668D02*
Y7016D01*
X12747Y6956D02*
Y6938D01*
X12745Y6977D02*
Y6996D01*
X12707D02*
Y6977D01*
X12705Y6956D02*
Y6938D01*
X12668D02*
Y6956D01*
X12705Y6917D02*
Y6898D01*
X12668D02*
Y6917D01*
X12745D02*
Y6898D01*
X12707D02*
Y6917D01*
X12747Y6917D02*
Y6898D01*
X12705Y6977D02*
Y6996D01*
X12668D02*
Y6977D01*
X12747Y7292D02*
Y7311D01*
X12745Y7232D02*
Y7213D01*
X12707D02*
Y7232D01*
X12747Y7192D02*
Y7174D01*
X12745Y7686D02*
Y7704D01*
X12707D02*
Y7686D01*
X12705Y7114D02*
Y7095D01*
X12668D02*
Y7114D01*
X12745D02*
Y7095D01*
X12707D02*
Y7114D01*
X12745Y7134D02*
Y7153D01*
X12707D02*
Y7134D01*
X12747D02*
Y7153D01*
X12705Y7568D02*
Y7586D01*
X12668D02*
Y7568D01*
X12747Y7547D02*
Y7528D01*
X12745Y7389D02*
Y7371D01*
X12707D02*
Y7389D01*
X12747Y7350D02*
Y7331D01*
X12705Y7271D02*
Y7253D01*
X12668D02*
Y7271D01*
X12747Y7232D02*
Y7213D01*
X12705Y7192D02*
Y7174D01*
X12668D02*
Y7192D01*
X12745Y6956D02*
Y6938D01*
X12707D02*
Y6956D01*
X12705Y6878D02*
Y6859D01*
X12668D02*
Y6878D01*
X12745D02*
Y6859D01*
X12707D02*
Y6878D01*
X12747D02*
Y6859D01*
Y7095D02*
Y7114D01*
X12666Y7292D02*
Y7311D01*
Y7686D02*
Y7704D01*
Y7350D02*
Y7331D01*
Y7371D02*
Y7389D01*
Y7449D02*
Y7468D01*
X12666Y7528D02*
Y7547D01*
Y7568D02*
Y7586D01*
X12666Y7646D02*
Y7665D01*
Y7725D02*
Y7744D01*
Y7626D02*
Y7607D01*
Y7764D02*
Y7783D01*
Y7232D02*
Y7213D01*
Y7153D02*
Y7134D01*
Y7074D02*
Y7056D01*
Y7035D02*
Y7016D01*
Y6956D02*
Y6938D01*
Y6917D02*
Y6898D01*
Y7095D02*
Y7114D01*
Y7489D02*
Y7507D01*
Y7192D02*
Y7174D01*
Y7871D02*
Y7889D01*
X12785Y7803D02*
Y6848D01*
X12824D02*
Y7803D01*
X12825Y7389D02*
Y7371D01*
X12823Y7035D02*
Y7016D01*
X12786D02*
Y7035D01*
X12784D02*
Y7016D01*
X12825Y7607D02*
Y7626D01*
X12823D02*
Y7607D01*
X12786D02*
Y7626D01*
X12825Y7686D02*
Y7704D01*
X12784Y7725D02*
Y7744D01*
Y7804D02*
Y7822D01*
X12784Y7468D02*
Y7449D01*
X12823Y7389D02*
Y7371D01*
X12786D02*
Y7389D01*
X12784Y7410D02*
Y7429D01*
Y7389D02*
Y7371D01*
X12784Y7607D02*
Y7626D01*
Y7646D02*
Y7665D01*
X12825D02*
Y7646D01*
X12784Y7686D02*
Y7704D01*
X12823Y7725D02*
Y7744D01*
X12786D02*
Y7725D01*
X12825Y7725D02*
Y7744D01*
X12784Y7764D02*
Y7783D01*
X12823D02*
Y7764D01*
X12786D02*
Y7783D01*
X12825Y7783D02*
Y7764D01*
Y6956D02*
Y6938D01*
Y7056D02*
Y7074D01*
X12784D02*
Y7056D01*
Y7253D02*
Y7271D01*
Y6996D02*
Y6977D01*
X12825Y7016D02*
Y7035D01*
X12823Y6996D02*
Y6977D01*
X12786D02*
Y6996D01*
X12784Y6956D02*
Y6938D01*
Y6917D02*
Y6898D01*
X12823Y6938D02*
Y6956D01*
X12786D02*
Y6938D01*
X12825Y6917D02*
Y6898D01*
X12784Y7292D02*
Y7311D01*
X12823Y7271D02*
Y7253D01*
X12786D02*
Y7271D01*
X12784Y7192D02*
Y7174D01*
X12823Y7074D02*
Y7056D01*
X12786D02*
Y7074D01*
X12784Y7134D02*
Y7153D01*
X12784Y7528D02*
Y7547D01*
Y7350D02*
Y7331D01*
X12825Y7311D02*
Y7292D01*
X12784Y7232D02*
Y7213D01*
X12823D02*
Y7232D01*
X12786D02*
Y7213D01*
X12825D02*
Y7232D01*
Y6996D02*
Y6977D01*
X12823Y6917D02*
Y6898D01*
X12786D02*
Y6917D01*
X12784Y6878D02*
Y6859D01*
X12823D02*
Y6878D01*
X12786D02*
Y6859D01*
X12825D02*
Y6878D01*
X12784Y7095D02*
Y7114D01*
X12696Y7283D02*
X12705Y7292D01*
X12677Y7320D02*
X12668Y7311D01*
X12735Y7283D02*
X12745Y7292D01*
X12717Y7320D02*
X12707Y7311D01*
X12735Y7440D02*
X12745Y7449D01*
X12717Y7477D02*
X12707Y7468D01*
X12696Y7794D02*
X12705Y7804D01*
X12677Y7832D02*
X12668Y7822D01*
X12671Y6747D02*
X12668Y6744D01*
X12671Y6747D02*
X12674Y6750D01*
X12699D02*
X12702Y6753D01*
X12705Y6757D01*
X12677Y6784D02*
X12668Y6775D01*
X12775Y7007D02*
X12784Y7016D01*
X12756Y7044D02*
X12747Y7035D01*
X12705Y7056D02*
X12696Y7046D01*
X12668Y7074D02*
X12677Y7084D01*
X12735Y7637D02*
X12745Y7646D01*
X12717Y7674D02*
X12707Y7665D01*
X12775Y7716D02*
X12784Y7725D01*
X12756Y7753D02*
X12747Y7744D01*
X12775Y7794D02*
X12784Y7804D01*
X12756Y7832D02*
X12747Y7822D01*
X12705Y7764D02*
X12696Y7755D01*
X12668Y7783D02*
X12677Y7792D01*
X12784Y7449D02*
X12775Y7440D01*
X12747Y7468D02*
X12756Y7477D01*
X12745Y7331D02*
X12735Y7322D01*
X12707Y7350D02*
X12717Y7359D01*
X12775Y7401D02*
X12784Y7410D01*
X12756Y7438D02*
X12747Y7429D01*
X12784Y7371D02*
X12775Y7361D01*
X12747Y7389D02*
X12756Y7399D01*
X12745Y7410D02*
X12735Y7401D01*
X12707Y7429D02*
X12717Y7438D01*
X12705Y7371D02*
X12696Y7361D01*
X12668Y7389D02*
X12677Y7399D01*
X12696Y7519D02*
X12705Y7528D01*
X12677Y7556D02*
X12668Y7547D01*
X12735Y7558D02*
X12745Y7568D01*
X12717Y7596D02*
X12707Y7586D01*
X12775Y7598D02*
X12784Y7607D01*
X12756Y7635D02*
X12747Y7626D01*
X12705Y7646D02*
X12696Y7637D01*
X12668Y7665D02*
X12677Y7674D01*
X12745Y7607D02*
X12735Y7598D01*
X12707Y7626D02*
X12717Y7635D01*
X12775Y7637D02*
X12784Y7646D01*
X12756Y7674D02*
X12747Y7665D01*
X12705Y7489D02*
X12696Y7479D01*
X12668Y7507D02*
X12677Y7517D01*
X12696Y7598D02*
X12705Y7607D01*
X12677Y7635D02*
X12668Y7626D01*
X12696Y7676D02*
X12705Y7686D01*
X12677Y7714D02*
X12668Y7704D01*
X12735Y7716D02*
X12745Y7725D01*
X12708Y7745D02*
X12707Y7744D01*
X12708Y7745D02*
X12717Y7753D01*
X12784Y7686D02*
X12775Y7676D01*
X12747Y7704D02*
X12756Y7714D01*
X12707Y7723D02*
X12700Y7716D01*
X12707Y7723D02*
X12708Y7724D01*
X12709Y7725D01*
X12681Y7753D02*
X12672Y7744D01*
X12735Y7755D02*
X12745Y7764D01*
X12717Y7792D02*
X12707Y7783D01*
X12775Y7755D02*
X12784Y7764D01*
X12756Y7792D02*
X12747Y7783D01*
X12784Y7056D02*
X12775Y7046D01*
X12747Y7074D02*
X12756Y7084D01*
X12745Y7016D02*
X12735Y7007D01*
X12707Y7035D02*
X12717Y7044D01*
X12775Y7243D02*
X12784Y7253D01*
X12756Y7281D02*
X12747Y7271D01*
X12705Y7213D02*
X12696Y7204D01*
X12668Y7232D02*
X12677Y7241D01*
X12745Y7174D02*
X12735Y7165D01*
X12707Y7192D02*
X12717Y7202D01*
X12705Y7134D02*
X12696Y7125D01*
X12668Y7153D02*
X12677Y7162D01*
X12745Y7056D02*
X12735Y7046D01*
X12707Y7074D02*
X12717Y7084D01*
X12735Y7243D02*
X12745Y7253D01*
X12717Y7281D02*
X12707Y7271D01*
X12784Y6977D02*
X12775Y6968D01*
X12747Y6996D02*
X12756Y7005D01*
X12705Y7016D02*
X12696Y7007D01*
X12668Y7035D02*
X12677Y7044D01*
X12784Y6938D02*
X12775Y6928D01*
X12747Y6956D02*
X12756Y6966D01*
X12745Y6977D02*
X12735Y6968D01*
X12707Y6996D02*
X12717Y7005D01*
X12705Y6938D02*
X12696Y6928D01*
X12668Y6956D02*
X12677Y6966D01*
X12705Y6898D02*
X12696Y6889D01*
X12668Y6917D02*
X12677Y6926D01*
X12735Y6889D02*
X12745Y6898D01*
X12717Y6926D02*
X12707Y6917D01*
X12775Y6889D02*
X12784Y6898D01*
X12756Y6926D02*
X12747Y6917D01*
X12696Y6968D02*
X12705Y6977D01*
X12677Y7005D02*
X12668Y6996D01*
X12775Y7283D02*
X12784Y7292D01*
X12756Y7320D02*
X12747Y7311D01*
X12745Y7213D02*
X12735Y7204D01*
X12707Y7232D02*
X12717Y7241D01*
X12784Y7174D02*
X12775Y7165D01*
X12747Y7192D02*
X12756Y7202D01*
X12735Y7676D02*
X12745Y7686D01*
X12717Y7714D02*
X12707Y7704D01*
X12705Y7095D02*
X12696Y7086D01*
X12668Y7114D02*
X12677Y7123D01*
X12735Y7086D02*
X12745Y7095D01*
X12717Y7123D02*
X12707Y7114D01*
X12735Y7125D02*
X12745Y7134D01*
X12717Y7162D02*
X12707Y7153D01*
X12775Y7125D02*
X12784Y7134D01*
X12756Y7162D02*
X12747Y7153D01*
X12696Y7558D02*
X12705Y7568D01*
X12677Y7596D02*
X12668Y7586D01*
X12775Y7519D02*
X12784Y7528D01*
X12756Y7556D02*
X12747Y7547D01*
X12745Y7371D02*
X12735Y7361D01*
X12707Y7389D02*
X12717Y7399D01*
X12784Y7331D02*
X12775Y7322D01*
X12747Y7350D02*
X12756Y7359D01*
X12705Y7253D02*
X12696Y7243D01*
X12668Y7271D02*
X12677Y7281D01*
X12775Y7204D02*
X12784Y7213D01*
X12756Y7241D02*
X12747Y7232D01*
X12705Y7174D02*
X12696Y7165D01*
X12668Y7192D02*
X12677Y7202D01*
X12745Y6938D02*
X12735Y6928D01*
X12707Y6956D02*
X12717Y6966D01*
X12705Y6859D02*
X12696Y6850D01*
X12668Y6878D02*
X12677Y6887D01*
X12735Y6850D02*
X12745Y6859D01*
X12717Y6887D02*
X12707Y6878D01*
X12775Y6850D02*
X12784Y6859D01*
X12756Y6887D02*
X12747Y6878D01*
X12775Y7086D02*
X12784Y7095D01*
X12756Y7123D02*
X12747Y7114D01*
X12705Y7311D02*
X12696Y7320D01*
X12668Y7292D02*
X12677Y7283D01*
X12735Y7320D02*
X12745Y7311D01*
X12717Y7283D02*
X12707Y7292D01*
X12745Y7468D02*
X12735Y7477D01*
X12707Y7449D02*
X12717Y7440D01*
X12705Y7822D02*
X12696Y7832D01*
X12668Y7804D02*
X12677Y7794D01*
X12702Y6747D02*
X12705Y6744D01*
X12702Y6747D02*
X12699Y6750D01*
X12705Y6775D02*
X12696Y6784D01*
X12671Y6753D02*
X12674Y6750D01*
X12671Y6753D02*
X12668Y6757D01*
X12784Y7035D02*
X12775Y7044D01*
X12747Y7016D02*
X12756Y7007D01*
X12705Y7074D02*
X12696Y7084D01*
X12668Y7056D02*
X12677Y7046D01*
X12745Y7665D02*
X12735Y7674D01*
X12707Y7646D02*
X12717Y7637D01*
X12784Y7744D02*
X12775Y7753D01*
X12747Y7725D02*
X12756Y7716D01*
X12784Y7822D02*
X12775Y7832D01*
X12747Y7804D02*
X12756Y7794D01*
X12705Y7783D02*
X12696Y7792D01*
X12668Y7764D02*
X12677Y7755D01*
X12775Y7477D02*
X12784Y7468D01*
X12756Y7440D02*
X12747Y7449D01*
X12735Y7359D02*
X12745Y7350D01*
X12717Y7322D02*
X12707Y7331D01*
X12784Y7429D02*
X12775Y7438D01*
X12747Y7410D02*
X12756Y7401D01*
X12775Y7399D02*
X12784Y7389D01*
X12756Y7361D02*
X12747Y7371D01*
X12745Y7429D02*
X12735Y7438D01*
X12707Y7410D02*
X12717Y7401D01*
X12705Y7389D02*
X12696Y7399D01*
X12668Y7371D02*
X12677Y7361D01*
X12705Y7547D02*
X12696Y7556D01*
X12668Y7528D02*
X12677Y7519D01*
X12745Y7586D02*
X12735Y7596D01*
X12707Y7568D02*
X12717Y7558D01*
X12784Y7626D02*
X12775Y7635D01*
X12747Y7607D02*
X12756Y7598D01*
X12705Y7665D02*
X12696Y7674D01*
X12668Y7646D02*
X12677Y7637D01*
X12735Y7635D02*
X12745Y7626D01*
X12717Y7598D02*
X12707Y7607D01*
X12775Y7674D02*
X12784Y7665D01*
X12756Y7637D02*
X12747Y7646D01*
X12696Y7517D02*
X12705Y7507D01*
X12677Y7479D02*
X12668Y7489D01*
X12705Y7626D02*
X12696Y7635D01*
X12668Y7607D02*
X12677Y7598D01*
X12705Y7704D02*
X12696Y7714D01*
X12668Y7686D02*
X12677Y7676D01*
X12745Y7744D02*
X12735Y7753D01*
X12717Y7716D02*
X12717Y7716D01*
X12717Y7716D02*
X12708Y7724D01*
X12707Y7725D01*
X12775Y7714D02*
X12784Y7704D01*
X12756Y7676D02*
X12747Y7686D01*
X12709Y7744D02*
X12708Y7745D01*
X12707Y7746D01*
X12700Y7753D01*
X12672Y7725D02*
X12681Y7716D01*
X12745Y7783D02*
X12735Y7792D01*
X12707Y7764D02*
X12717Y7755D01*
X12775Y7792D02*
X12784Y7783D01*
X12756Y7755D02*
X12747Y7764D01*
X12775Y7084D02*
X12784Y7074D01*
X12756Y7046D02*
X12747Y7056D01*
X12735Y7044D02*
X12745Y7035D01*
X12717Y7007D02*
X12707Y7016D01*
X12784Y7271D02*
X12775Y7281D01*
X12747Y7253D02*
X12756Y7243D01*
X12705Y7232D02*
X12696Y7241D01*
X12668Y7213D02*
X12677Y7204D01*
X12735Y7202D02*
X12745Y7192D01*
X12717Y7165D02*
X12707Y7174D01*
X12696Y7162D02*
X12705Y7153D01*
X12677Y7125D02*
X12668Y7134D01*
X12735Y7084D02*
X12745Y7074D01*
X12717Y7046D02*
X12707Y7056D01*
X12745Y7271D02*
X12735Y7281D01*
X12707Y7253D02*
X12717Y7243D01*
X12775Y7005D02*
X12784Y6996D01*
X12756Y6968D02*
X12747Y6977D01*
X12705Y7035D02*
X12696Y7044D01*
X12668Y7016D02*
X12677Y7007D01*
X12775Y6966D02*
X12784Y6956D01*
X12756Y6928D02*
X12747Y6938D01*
X12745Y6996D02*
X12735Y7005D01*
X12707Y6977D02*
X12717Y6968D01*
X12705Y6956D02*
X12696Y6966D01*
X12668Y6938D02*
X12677Y6928D01*
X12696Y6926D02*
X12705Y6917D01*
X12677Y6889D02*
X12668Y6898D01*
X12735Y6926D02*
X12745Y6917D01*
X12717Y6889D02*
X12707Y6898D01*
X12775Y6926D02*
X12784Y6917D01*
X12756Y6889D02*
X12747Y6898D01*
X12705Y6996D02*
X12696Y7005D01*
X12668Y6977D02*
X12677Y6968D01*
X12784Y7311D02*
X12775Y7320D01*
X12747Y7292D02*
X12756Y7283D01*
X12735Y7241D02*
X12745Y7232D01*
X12717Y7204D02*
X12707Y7213D01*
X12775Y7202D02*
X12784Y7192D01*
X12756Y7165D02*
X12747Y7174D01*
X12745Y7704D02*
X12735Y7714D01*
X12707Y7686D02*
X12717Y7676D01*
X12696Y7123D02*
X12705Y7114D01*
X12677Y7086D02*
X12668Y7095D01*
X12735Y7123D02*
X12745Y7114D01*
X12717Y7086D02*
X12707Y7095D01*
X12745Y7153D02*
X12735Y7162D01*
X12707Y7134D02*
X12717Y7125D01*
X12775Y7162D02*
X12784Y7153D01*
X12756Y7125D02*
X12747Y7134D01*
X12705Y7586D02*
X12696Y7596D01*
X12668Y7568D02*
X12677Y7558D01*
X12775Y7556D02*
X12784Y7547D01*
X12756Y7519D02*
X12747Y7528D01*
X12735Y7399D02*
X12745Y7389D01*
X12717Y7361D02*
X12707Y7371D01*
X12775Y7359D02*
X12784Y7350D01*
X12756Y7322D02*
X12747Y7331D01*
X12696Y7281D02*
X12705Y7271D01*
X12677Y7243D02*
X12668Y7253D01*
X12775Y7241D02*
X12784Y7232D01*
X12756Y7204D02*
X12747Y7213D01*
X12705Y7192D02*
X12696Y7202D01*
X12668Y7174D02*
X12677Y7165D01*
X12735Y6966D02*
X12745Y6956D01*
X12717Y6928D02*
X12707Y6938D01*
X12696Y6887D02*
X12705Y6878D01*
X12677Y6850D02*
X12668Y6859D01*
X12735Y6887D02*
X12745Y6878D01*
X12717Y6850D02*
X12707Y6859D01*
X12775Y6887D02*
X12784Y6878D01*
X12756Y6850D02*
X12747Y6859D01*
X12784Y7114D02*
X12775Y7123D01*
X12747Y7095D02*
X12756Y7086D01*
X12853Y7361D02*
X12863Y7371D01*
X12835Y7399D02*
X12825Y7389D01*
X12853Y7940D02*
X12860Y7947D01*
X12823Y7016D02*
X12814Y7007D01*
X12786Y7035D02*
X12795Y7044D01*
X12853Y7598D02*
X12863Y7607D01*
X12835Y7635D02*
X12825Y7626D01*
X12823Y7607D02*
X12814Y7598D01*
X12786Y7626D02*
X12795Y7635D01*
X12853Y7676D02*
X12863Y7686D01*
X12835Y7714D02*
X12825Y7704D01*
X12823Y7371D02*
X12814Y7361D01*
X12786Y7389D02*
X12795Y7399D01*
X12853Y7637D02*
X12863Y7646D01*
X12835Y7674D02*
X12825Y7665D01*
X12814Y7716D02*
X12823Y7725D01*
X12795Y7753D02*
X12786Y7744D01*
X12853Y7716D02*
X12863Y7725D01*
X12835Y7753D02*
X12825Y7744D01*
X12814Y7755D02*
X12823Y7764D01*
X12795Y7792D02*
X12786Y7783D01*
X12853Y7755D02*
X12863Y7764D01*
X12835Y7792D02*
X12825Y7783D01*
X12863Y6938D02*
X12853Y6928D01*
X12825Y6956D02*
X12835Y6966D01*
X12853Y7046D02*
X12863Y7056D01*
X12835Y7084D02*
X12825Y7074D01*
X12863Y7016D02*
X12853Y7007D01*
X12825Y7035D02*
X12835Y7044D01*
X12823Y6977D02*
X12814Y6968D01*
X12786Y6996D02*
X12795Y7005D01*
X12823Y6938D02*
X12814Y6928D01*
X12786Y6956D02*
X12795Y6966D01*
X12863Y6898D02*
X12853Y6889D01*
X12825Y6917D02*
X12835Y6926D01*
X12814Y7243D02*
X12823Y7253D01*
X12795Y7281D02*
X12786Y7271D01*
X12823Y7056D02*
X12814Y7046D01*
X12786Y7074D02*
X12795Y7084D01*
X12853Y7283D02*
X12863Y7292D01*
X12835Y7320D02*
X12825Y7311D01*
X12823Y7213D02*
X12814Y7204D01*
X12786Y7232D02*
X12795Y7241D01*
X12853Y7204D02*
X12863Y7213D01*
X12835Y7241D02*
X12825Y7232D01*
X12863Y6977D02*
X12853Y6968D01*
X12825Y6996D02*
X12835Y7005D01*
X12823Y6898D02*
X12814Y6889D01*
X12786Y6917D02*
X12795Y6926D01*
X12823Y6859D02*
X12814Y6850D01*
X12786Y6878D02*
X12795Y6887D01*
X12853Y6850D02*
X12863Y6859D01*
X12835Y6887D02*
X12825Y6878D01*
X12863Y7389D02*
X12853Y7399D01*
X12825Y7371D02*
X12835Y7361D01*
Y7940D02*
X12828Y7947D01*
X12814Y7044D02*
X12823Y7035D01*
X12795Y7007D02*
X12786Y7016D01*
X12863Y7626D02*
X12853Y7635D01*
X12825Y7607D02*
X12835Y7598D01*
X12823Y7626D02*
X12814Y7635D01*
X12786Y7607D02*
X12795Y7598D01*
X12863Y7704D02*
X12853Y7714D01*
X12825Y7686D02*
X12835Y7676D01*
X12814Y7399D02*
X12823Y7389D01*
X12795Y7361D02*
X12786Y7371D01*
X12863Y7665D02*
X12853Y7674D01*
X12825Y7646D02*
X12835Y7637D01*
X12823Y7744D02*
X12814Y7753D01*
X12786Y7725D02*
X12795Y7716D01*
X12853Y7753D02*
X12863Y7744D01*
X12835Y7716D02*
X12825Y7725D01*
X12823Y7783D02*
X12814Y7792D01*
X12786Y7764D02*
X12795Y7755D01*
X12853Y7792D02*
X12863Y7783D01*
X12835Y7755D02*
X12825Y7764D01*
X12853Y6966D02*
X12863Y6956D01*
X12835Y6928D02*
X12825Y6938D01*
X12863Y7074D02*
X12853Y7084D01*
X12825Y7056D02*
X12835Y7046D01*
X12853Y7044D02*
X12863Y7035D01*
X12835Y7007D02*
X12825Y7016D01*
X12814Y7005D02*
X12823Y6996D01*
X12795Y6968D02*
X12786Y6977D01*
X12814Y6966D02*
X12823Y6956D01*
X12795Y6928D02*
X12786Y6938D01*
X12853Y6926D02*
X12863Y6917D01*
X12835Y6889D02*
X12825Y6898D01*
X12823Y7271D02*
X12814Y7281D01*
X12786Y7253D02*
X12795Y7243D01*
X12814Y7084D02*
X12823Y7074D01*
X12795Y7046D02*
X12786Y7056D01*
X12863Y7311D02*
X12853Y7320D01*
X12825Y7292D02*
X12835Y7283D01*
X12814Y7241D02*
X12823Y7232D01*
X12795Y7204D02*
X12786Y7213D01*
X12853Y7241D02*
X12863Y7232D01*
X12835Y7204D02*
X12825Y7213D01*
X12853Y7005D02*
X12863Y6996D01*
X12835Y6968D02*
X12825Y6977D01*
X12814Y6926D02*
X12823Y6917D01*
X12795Y6889D02*
X12786Y6898D01*
X12814Y6887D02*
X12823Y6878D01*
X12795Y6850D02*
X12786Y6859D01*
X12853Y6887D02*
X12863Y6878D01*
X12835Y6850D02*
X12825Y6859D01*
X12864Y6848D02*
Y7793D01*
X12903D02*
Y6887D01*
X12942D02*
Y7793D01*
X12943Y7074D02*
Y7056D01*
X12941Y7607D02*
Y7626D01*
X12904D02*
Y7607D01*
X12941Y7646D02*
Y7665D01*
X12904D02*
Y7646D01*
X12902Y7764D02*
Y7783D01*
X12865D02*
Y7764D01*
X12943Y7804D02*
Y7822D01*
X12902D02*
Y7804D01*
X12865D02*
Y7822D01*
X12943Y7468D02*
Y7449D01*
X12941Y7449D02*
Y7468D01*
X12904D02*
Y7449D01*
X12902Y7607D02*
Y7626D01*
X12865D02*
Y7607D01*
X12941Y7547D02*
Y7528D01*
X12904D02*
Y7547D01*
X12941Y7568D02*
Y7586D01*
X12904D02*
Y7568D01*
X12902Y7646D02*
Y7665D01*
X12865D02*
Y7646D01*
X12902Y7686D02*
Y7704D01*
X12865D02*
Y7686D01*
X12943D02*
Y7704D01*
X12902Y7725D02*
Y7744D01*
X12865D02*
Y7725D01*
X12941Y7764D02*
Y7783D01*
X12904D02*
Y7764D01*
X12943Y7764D02*
Y7783D01*
Y6996D02*
Y6977D01*
X12941Y7056D02*
Y7074D01*
X12904D02*
Y7056D01*
X12902Y6996D02*
Y6977D01*
X12865D02*
Y6996D01*
X12943Y6956D02*
Y6938D01*
X12941Y7016D02*
Y7035D01*
X12904D02*
Y7016D01*
X12902Y6956D02*
Y6938D01*
X12865D02*
Y6956D01*
X12902Y6917D02*
Y6898D01*
X12865D02*
Y6917D01*
X12943Y7725D02*
Y7744D01*
X12902Y7586D02*
Y7568D01*
X12865D02*
Y7586D01*
X12943Y7507D02*
Y7489D01*
X12902Y7429D02*
Y7410D01*
X12865D02*
Y7429D01*
X12943D02*
Y7410D01*
X12941Y7389D02*
Y7371D01*
X12904D02*
Y7389D01*
X12943D02*
Y7371D01*
X12941Y7311D02*
Y7292D01*
X12904D02*
Y7311D01*
X12943Y7271D02*
Y7253D01*
X12902Y7192D02*
Y7174D01*
X12865D02*
Y7192D01*
X12941Y7153D02*
Y7134D01*
X12904D02*
Y7153D01*
X12943D02*
Y7134D01*
X12902Y7035D02*
Y7016D01*
X12865D02*
Y7035D01*
X12943D02*
Y7016D01*
X12941Y6956D02*
Y6938D01*
X12904D02*
Y6956D01*
X12943Y6917D02*
Y6898D01*
X12941Y6898D02*
Y6917D01*
X12904D02*
Y6898D01*
X12943Y6775D02*
Y6757D01*
X12902Y7528D02*
Y7547D01*
X12865D02*
Y7528D01*
X12902Y7468D02*
Y7449D01*
X12865D02*
Y7468D01*
X12902Y7153D02*
Y7134D01*
X12865D02*
Y7153D01*
X12902Y7114D02*
Y7095D01*
X12865D02*
Y7114D01*
X12863Y7371D02*
Y7389D01*
Y7607D02*
Y7626D01*
Y7686D02*
Y7704D01*
Y7665D02*
Y7646D01*
Y7725D02*
Y7744D01*
Y7764D02*
Y7783D01*
Y6956D02*
Y6938D01*
Y7056D02*
Y7074D01*
Y7035D02*
Y7016D01*
Y6917D02*
Y6898D01*
Y7292D02*
Y7311D01*
Y7232D02*
Y7213D01*
Y6996D02*
Y6977D01*
Y6878D02*
Y6859D01*
X12982Y7005D02*
Y7793D01*
X13021Y7794D02*
Y7005D01*
X13051Y7713D02*
Y7714D01*
Y7716D01*
Y7716D01*
Y7752D02*
Y7753D01*
Y7755D01*
Y7756D01*
X12981Y7074D02*
Y7056D01*
X13022Y7646D02*
Y7665D01*
X13020Y7686D02*
Y7704D01*
X12983D02*
Y7686D01*
X13022D02*
Y7704D01*
X12981Y7804D02*
Y7822D01*
X13020Y7350D02*
Y7331D01*
X12983D02*
Y7350D01*
X12981Y7449D02*
Y7468D01*
X12981Y7686D02*
Y7704D01*
X13022Y7725D02*
Y7744D01*
X13020D02*
Y7725D01*
X12983D02*
Y7744D01*
X12981Y7764D02*
Y7783D01*
X13020D02*
Y7764D01*
X12983D02*
Y7783D01*
X13022Y7783D02*
Y7764D01*
X13020Y7074D02*
Y7056D01*
X12983D02*
Y7074D01*
X12981Y6996D02*
Y6977D01*
X13020Y7016D02*
Y7035D01*
X12983D02*
Y7016D01*
X12981Y6956D02*
Y6938D01*
Y7725D02*
Y7744D01*
Y7507D02*
Y7489D01*
Y7429D02*
Y7410D01*
Y7389D02*
Y7371D01*
X13020D02*
Y7389D01*
X12983D02*
Y7371D01*
X13022Y7311D02*
Y7292D01*
Y7331D02*
Y7350D01*
X12981Y7271D02*
Y7253D01*
Y7153D02*
Y7134D01*
X12981Y7035D02*
Y7016D01*
X13022D02*
Y7035D01*
X12981Y6917D02*
Y6898D01*
X12981Y6775D02*
Y6757D01*
X13020Y7906D02*
Y7924D01*
Y7547D02*
Y7528D01*
X12983D02*
Y7547D01*
X13022Y7389D02*
Y7371D01*
X12981Y7056D02*
X12971Y7046D01*
X12943Y7074D02*
X12953Y7084D01*
X12932Y7598D02*
X12941Y7607D01*
X12913Y7635D02*
X12904Y7626D01*
X12932Y7637D02*
X12941Y7646D01*
X12913Y7674D02*
X12904Y7665D01*
X12893Y7755D02*
X12902Y7764D01*
X12874Y7792D02*
X12865Y7783D01*
X12971Y7794D02*
X12981Y7804D01*
X12953Y7832D02*
X12943Y7822D01*
X12902Y7804D02*
X12893Y7794D01*
X12865Y7822D02*
X12874Y7832D01*
X12981Y7449D02*
X12971Y7440D01*
X12943Y7468D02*
X12953Y7477D01*
X12941Y7449D02*
X12932Y7440D01*
X12904Y7468D02*
X12913Y7477D01*
X12893Y7598D02*
X12902Y7607D01*
X12874Y7635D02*
X12865Y7626D01*
X12941Y7528D02*
X12932Y7519D01*
X12904Y7547D02*
X12913Y7556D01*
X12932Y7558D02*
X12941Y7568D01*
X12913Y7596D02*
X12904Y7586D01*
X12893Y7637D02*
X12902Y7646D01*
X12874Y7674D02*
X12865Y7665D01*
X12893Y7676D02*
X12902Y7686D01*
X12874Y7714D02*
X12865Y7704D01*
X12971Y7676D02*
X12981Y7686D01*
X12953Y7714D02*
X12943Y7704D01*
X12902Y7725D02*
X12893Y7716D01*
X12865Y7744D02*
X12874Y7753D01*
X12932Y7755D02*
X12941Y7764D01*
X12913Y7792D02*
X12904Y7783D01*
X12971Y7755D02*
X12981Y7764D01*
X12953Y7792D02*
X12943Y7783D01*
X12981Y6977D02*
X12971Y6968D01*
X12943Y6996D02*
X12953Y7005D01*
X12932Y7046D02*
X12941Y7056D01*
X12913Y7084D02*
X12904Y7074D01*
X12902Y6977D02*
X12893Y6968D01*
X12865Y6996D02*
X12874Y7005D01*
X12971Y6928D02*
X12981Y6938D01*
X12953Y6966D02*
X12943Y6956D01*
X12932Y7007D02*
X12941Y7016D01*
X12913Y7044D02*
X12904Y7035D01*
X12902Y6938D02*
X12893Y6928D01*
X12865Y6956D02*
X12874Y6966D01*
X12902Y6898D02*
X12893Y6889D01*
X12865Y6917D02*
X12874Y6926D01*
X12971Y7716D02*
X12981Y7725D01*
X12953Y7753D02*
X12943Y7744D01*
X12902Y7568D02*
X12893Y7558D01*
X12865Y7586D02*
X12874Y7596D01*
X12981Y7489D02*
X12971Y7479D01*
X12943Y7507D02*
X12953Y7517D01*
X12902Y7410D02*
X12893Y7401D01*
X12865Y7429D02*
X12874Y7438D01*
X12971Y7401D02*
X12981Y7410D01*
X12953Y7438D02*
X12943Y7429D01*
X12941Y7371D02*
X12932Y7361D01*
X12904Y7389D02*
X12913Y7399D01*
X12971Y7361D02*
X12981Y7371D01*
X12953Y7399D02*
X12943Y7389D01*
X12941Y7292D02*
X12932Y7283D01*
X12904Y7311D02*
X12913Y7320D01*
X12981Y7253D02*
X12971Y7243D01*
X12943Y7271D02*
X12953Y7281D01*
X12902Y7174D02*
X12893Y7165D01*
X12865Y7192D02*
X12874Y7202D01*
X12941Y7134D02*
X12932Y7125D01*
X12904Y7153D02*
X12913Y7162D01*
X12971Y7125D02*
X12981Y7134D01*
X12953Y7162D02*
X12943Y7153D01*
X12902Y7016D02*
X12893Y7007D01*
X12865Y7035D02*
X12874Y7044D01*
X12971Y7007D02*
X12981Y7016D01*
X12953Y7044D02*
X12943Y7035D01*
X12941Y6938D02*
X12932Y6928D01*
X12904Y6956D02*
X12913Y6966D01*
X12981Y6898D02*
X12971Y6889D01*
X12943Y6917D02*
X12953Y6926D01*
X12941Y6898D02*
X12932Y6889D01*
X12904Y6917D02*
X12913Y6926D01*
X12981Y6757D02*
X12971Y6747D01*
X12943Y6775D02*
X12953Y6784D01*
X12893Y7519D02*
X12902Y7528D01*
X12874Y7556D02*
X12865Y7547D01*
X12902Y7449D02*
X12893Y7440D01*
X12865Y7468D02*
X12874Y7477D01*
X12902Y7134D02*
X12893Y7125D01*
X12865Y7153D02*
X12874Y7162D01*
X12902Y7095D02*
X12893Y7086D01*
X12865Y7114D02*
X12874Y7123D01*
X12971Y7084D02*
X12981Y7074D01*
X12953Y7046D02*
X12943Y7056D01*
X12941Y7626D02*
X12932Y7635D01*
X12904Y7607D02*
X12913Y7598D01*
X12941Y7665D02*
X12932Y7674D01*
X12904Y7646D02*
X12913Y7637D01*
X12902Y7783D02*
X12893Y7792D01*
X12865Y7764D02*
X12874Y7755D01*
X12971Y7832D02*
X12981Y7822D01*
X12953Y7794D02*
X12943Y7804D01*
X12902Y7822D02*
X12893Y7832D01*
X12865Y7804D02*
X12874Y7794D01*
X12971Y7477D02*
X12981Y7468D01*
X12953Y7440D02*
X12943Y7449D01*
X12941Y7468D02*
X12932Y7477D01*
X12904Y7449D02*
X12913Y7440D01*
X12902Y7626D02*
X12893Y7635D01*
X12865Y7607D02*
X12874Y7598D01*
X12932Y7556D02*
X12941Y7547D01*
X12913Y7519D02*
X12904Y7528D01*
X12941Y7586D02*
X12932Y7596D01*
X12904Y7568D02*
X12913Y7558D01*
X12902Y7665D02*
X12893Y7674D01*
X12865Y7646D02*
X12874Y7637D01*
X12902Y7704D02*
X12893Y7714D01*
X12865Y7686D02*
X12874Y7676D01*
X12971Y7714D02*
X12981Y7704D01*
X12953Y7676D02*
X12943Y7686D01*
X12902Y7744D02*
X12893Y7753D01*
X12865Y7725D02*
X12874Y7716D01*
X12941Y7783D02*
X12932Y7792D01*
X12904Y7764D02*
X12913Y7755D01*
X12971Y7792D02*
X12981Y7783D01*
X12953Y7755D02*
X12943Y7764D01*
X12971Y7005D02*
X12981Y6996D01*
X12953Y6968D02*
X12943Y6977D01*
X12941Y7074D02*
X12932Y7084D01*
X12904Y7056D02*
X12913Y7046D01*
X12893Y7005D02*
X12902Y6996D01*
X12874Y6968D02*
X12865Y6977D01*
X12971Y6966D02*
X12981Y6956D01*
X12953Y6928D02*
X12943Y6938D01*
X12941Y7035D02*
X12932Y7044D01*
X12904Y7016D02*
X12913Y7007D01*
X12893Y6966D02*
X12902Y6956D01*
X12874Y6928D02*
X12865Y6938D01*
X12893Y6926D02*
X12902Y6917D01*
X12874Y6889D02*
X12865Y6898D01*
X12981Y7744D02*
X12971Y7753D01*
X12943Y7725D02*
X12953Y7716D01*
X12893Y7596D02*
X12902Y7586D01*
X12874Y7558D02*
X12865Y7568D01*
X12971Y7517D02*
X12981Y7507D01*
X12953Y7479D02*
X12943Y7489D01*
X12893Y7438D02*
X12902Y7429D01*
X12874Y7401D02*
X12865Y7410D01*
X12971Y7438D02*
X12981Y7429D01*
X12953Y7401D02*
X12943Y7410D01*
X12932Y7399D02*
X12941Y7389D01*
X12913Y7361D02*
X12904Y7371D01*
X12971Y7399D02*
X12981Y7389D01*
X12953Y7361D02*
X12943Y7371D01*
X12932Y7320D02*
X12941Y7311D01*
X12913Y7283D02*
X12904Y7292D01*
X12971Y7281D02*
X12981Y7271D01*
X12953Y7243D02*
X12943Y7253D01*
X12893Y7202D02*
X12902Y7192D01*
X12874Y7165D02*
X12865Y7174D01*
X12932Y7162D02*
X12941Y7153D01*
X12913Y7125D02*
X12904Y7134D01*
X12971Y7162D02*
X12981Y7153D01*
X12953Y7125D02*
X12943Y7134D01*
X12893Y7044D02*
X12902Y7035D01*
X12874Y7007D02*
X12865Y7016D01*
X12971Y7044D02*
X12981Y7035D01*
X12953Y7007D02*
X12943Y7016D01*
X12932Y6966D02*
X12941Y6956D01*
X12913Y6928D02*
X12904Y6938D01*
X12971Y6926D02*
X12981Y6917D01*
X12953Y6889D02*
X12943Y6898D01*
X12941Y6917D02*
X12932Y6926D01*
X12904Y6898D02*
X12913Y6889D01*
X12971Y6784D02*
X12981Y6775D01*
X12953Y6747D02*
X12943Y6757D01*
X12902Y7547D02*
X12893Y7556D01*
X12865Y7528D02*
X12874Y7519D01*
X12893Y7477D02*
X12902Y7468D01*
X12874Y7440D02*
X12865Y7449D01*
X12893Y7162D02*
X12902Y7153D01*
X12874Y7125D02*
X12865Y7134D01*
X12893Y7123D02*
X12902Y7114D01*
X12874Y7086D02*
X12865Y7095D01*
X13051Y7716D02*
X13060Y7725D01*
X13051Y7756D02*
X13060Y7764D01*
Y7646D02*
X13050Y7637D01*
X13022Y7665D02*
X13032Y7674D01*
X13020Y7686D02*
X13011Y7676D01*
X12983Y7704D02*
X12992Y7714D01*
X13050Y7676D02*
X13060Y7686D01*
X13032Y7714D02*
X13022Y7704D01*
X13020Y7331D02*
X13011Y7322D01*
X12983Y7350D02*
X12992Y7359D01*
X13050Y7716D02*
X13060Y7725D01*
X13032Y7753D02*
X13022Y7744D01*
X13020Y7725D02*
X13011Y7716D01*
X12983Y7744D02*
X12992Y7753D01*
X13011Y7755D02*
X13020Y7764D01*
X12992Y7792D02*
X12983Y7783D01*
X13050Y7755D02*
X13060Y7764D01*
X13032Y7792D02*
X13022Y7783D01*
X13020Y7056D02*
X13011Y7046D01*
X12983Y7074D02*
X12992Y7084D01*
X13020Y7016D02*
X13011Y7007D01*
X12983Y7035D02*
X12992Y7044D01*
X13011Y7361D02*
X13020Y7371D01*
X12992Y7399D02*
X12983Y7389D01*
X13060Y7292D02*
X13050Y7283D01*
X13022Y7311D02*
X13032Y7320D01*
X13050Y7322D02*
X13060Y7331D01*
X13032Y7359D02*
X13022Y7350D01*
X13060Y7016D02*
X13050Y7007D01*
X13022Y7035D02*
X13032Y7044D01*
X13011Y7897D02*
X13020Y7906D01*
X12992Y7934D02*
X12983Y7925D01*
X13020Y7528D02*
X13011Y7519D01*
X12983Y7547D02*
X12992Y7556D01*
X13060Y7371D02*
X13050Y7361D01*
X13022Y7389D02*
X13032Y7399D01*
X13060Y7704D02*
X13051Y7713D01*
X13060Y7744D02*
X13051Y7752D01*
X13050Y7674D02*
X13060Y7665D01*
X13032Y7637D02*
X13022Y7646D01*
X13020Y7704D02*
X13011Y7714D01*
X12983Y7686D02*
X12992Y7676D01*
X13050Y7714D02*
X13060Y7704D01*
X13032Y7676D02*
X13022Y7686D01*
X13011Y7359D02*
X13020Y7350D01*
X12992Y7322D02*
X12983Y7331D01*
X13060Y7744D02*
X13050Y7753D01*
X13022Y7725D02*
X13032Y7716D01*
X13020Y7744D02*
X13011Y7753D01*
X12983Y7725D02*
X12992Y7716D01*
X13020Y7783D02*
X13011Y7792D01*
X12983Y7764D02*
X12992Y7755D01*
X13050Y7792D02*
X13060Y7783D01*
X13032Y7755D02*
X13022Y7764D01*
X13011Y7084D02*
X13020Y7074D01*
X12992Y7046D02*
X12983Y7056D01*
X13011Y7044D02*
X13020Y7035D01*
X12992Y7007D02*
X12983Y7016D01*
X13020Y7389D02*
X13011Y7399D01*
X12983Y7371D02*
X12992Y7361D01*
X13050Y7320D02*
X13060Y7311D01*
X13032Y7283D02*
X13022Y7292D01*
X13060Y7350D02*
X13050Y7359D01*
X13022Y7331D02*
X13032Y7322D01*
X13050Y7044D02*
X13060Y7035D01*
X13032Y7007D02*
X13022Y7016D01*
X12992Y7897D02*
X12983Y7906D01*
X13011Y7556D02*
X13020Y7547D01*
X12992Y7519D02*
X12983Y7528D01*
X13050Y7399D02*
X13060Y7389D01*
X13032Y7361D02*
X13022Y7371D01*
X13060Y7885D02*
X13048Y7897D01*
X13022Y7922D01*
X13020Y7924D01*
X13010Y7934D01*
X12998Y7947D01*
X13061Y7794D02*
Y7284D01*
X13060Y7283D02*
Y6928D01*
X13100D02*
Y7715D01*
X13139D02*
Y6927D01*
X13140Y7704D02*
Y7704D01*
X13099Y7764D02*
Y7770D01*
X13062D02*
Y7764D01*
X13140D02*
Y7770D01*
X13138Y7704D02*
Y7704D01*
X13101D02*
Y7704D01*
X13099D02*
Y7704D01*
X13062D02*
Y7704D01*
X13140Y7725D02*
Y7744D01*
X13060Y7704D02*
Y7704D01*
Y7764D02*
Y7770D01*
X13140Y7468D02*
Y7449D01*
X13138Y7074D02*
Y7056D01*
X13101D02*
Y7074D01*
X13140Y7095D02*
Y7114D01*
X13138Y7646D02*
Y7665D01*
X13101D02*
Y7646D01*
X13140Y7686D02*
Y7704D01*
X13099Y7764D02*
Y7783D01*
X13062D02*
Y7764D01*
X13099Y7804D02*
Y7822D01*
X13062D02*
Y7804D01*
X13140Y7192D02*
Y7174D01*
X13140Y7253D02*
Y7271D01*
X13138D02*
Y7253D01*
X13101D02*
Y7271D01*
X13099Y7292D02*
Y7311D01*
X13062D02*
Y7292D01*
X13099Y6956D02*
Y6938D01*
X13062D02*
Y6956D01*
X13138Y7489D02*
Y7507D01*
X13101D02*
Y7489D01*
X13138Y7528D02*
Y7547D01*
X13101D02*
Y7528D01*
X13140Y7607D02*
Y7626D01*
Y7646D02*
Y7665D01*
X13138Y7626D02*
Y7607D01*
X13101D02*
Y7626D01*
X13099Y7646D02*
Y7665D01*
X13062D02*
Y7646D01*
X13140Y7764D02*
Y7783D01*
X13138Y7704D02*
Y7686D01*
X13101D02*
Y7704D01*
X13099D02*
Y7686D01*
X13062D02*
Y7704D01*
X13140Y6956D02*
Y6938D01*
X13138Y6977D02*
Y6996D01*
X13101D02*
Y6977D01*
X13099Y6977D02*
Y6996D01*
X13062D02*
Y6977D01*
X13140Y7016D02*
Y7035D01*
X13138Y7095D02*
Y7114D01*
X13101D02*
Y7095D01*
X13138Y7134D02*
Y7153D01*
X13101D02*
Y7134D01*
X13099Y7568D02*
Y7586D01*
X13062D02*
Y7568D01*
X13138D02*
Y7586D01*
X13101D02*
Y7568D01*
X13140Y7547D02*
Y7528D01*
X13138Y7311D02*
Y7292D01*
X13101D02*
Y7311D01*
X13140Y7331D02*
Y7350D01*
X13099Y7271D02*
Y7253D01*
X13062D02*
Y7271D01*
X13099Y7232D02*
Y7213D01*
X13062D02*
Y7232D01*
X13099Y7192D02*
Y7174D01*
X13062D02*
Y7192D01*
X13140Y7153D02*
Y7134D01*
X13138Y6956D02*
Y6938D01*
X13101D02*
Y6956D01*
X13138Y6917D02*
Y6898D01*
X13101D02*
Y6917D01*
X13140Y7410D02*
Y7429D01*
X13099Y6878D02*
Y6859D01*
X13062D02*
Y6878D01*
X13060Y7646D02*
Y7665D01*
Y7686D02*
Y7704D01*
Y7764D02*
Y7783D01*
Y7311D02*
Y7292D01*
Y7331D02*
Y7350D01*
Y7035D02*
Y7016D01*
Y7371D02*
Y7389D01*
X13179Y7754D02*
Y6927D01*
X13218Y6888D02*
Y7754D01*
X13178Y7704D02*
Y7704D01*
X13180D02*
Y7704D01*
X13178Y7725D02*
Y7744D01*
X13190Y7716D02*
Y7714D01*
X13217Y7389D02*
Y7371D01*
X13180D02*
Y7389D01*
X13178Y7449D02*
Y7468D01*
X13217Y7114D02*
Y7095D01*
X13180D02*
Y7114D01*
X13178D02*
Y7095D01*
X13217Y7607D02*
Y7626D01*
X13180D02*
Y7607D01*
X13219Y7686D02*
Y7704D01*
X13178D02*
Y7686D01*
X13178Y7192D02*
Y7174D01*
X13178Y7253D02*
Y7271D01*
X13219Y7646D02*
Y7665D01*
X13217Y7686D02*
Y7704D01*
X13180D02*
Y7686D01*
X13178Y7626D02*
Y7607D01*
X13219Y7725D02*
Y7744D01*
X13217D02*
Y7725D01*
X13178Y7665D02*
Y7646D01*
X13219Y7764D02*
Y7766D01*
X13217D02*
Y7764D01*
X13180D02*
Y7766D01*
X13178D02*
Y7764D01*
Y7766D02*
Y7767D01*
X13219Y6956D02*
Y6938D01*
X13217Y6977D02*
Y6996D01*
X13180D02*
Y6977D01*
X13178Y6956D02*
Y6938D01*
X13219Y6917D02*
Y6898D01*
X13217Y7016D02*
Y7035D01*
X13180D02*
Y7016D01*
X13178Y7016D02*
Y7035D01*
X13219Y7095D02*
Y7114D01*
X13217Y7410D02*
Y7429D01*
X13180D02*
Y7410D01*
X13219Y7389D02*
Y7371D01*
Y6996D02*
Y6977D01*
X13217Y7568D02*
Y7586D01*
X13180D02*
Y7568D01*
X13178Y7547D02*
Y7528D01*
X13217Y7507D02*
Y7489D01*
X13180D02*
Y7507D01*
X13178Y7350D02*
Y7331D01*
X13219Y7311D02*
Y7292D01*
X13217Y7232D02*
Y7213D01*
X13180D02*
Y7232D01*
X13217Y7192D02*
Y7174D01*
X13180D02*
Y7192D01*
X13178Y7153D02*
Y7134D01*
X13219Y7035D02*
Y7016D01*
X13217Y6956D02*
Y6938D01*
X13180D02*
Y6956D01*
X13219Y6878D02*
Y6859D01*
X13178Y7410D02*
Y7429D01*
X13219Y7449D02*
Y7468D01*
X13180Y7725D02*
Y7744D01*
X13060Y7744D02*
Y7725D01*
X13168Y7716D02*
X13178Y7725D01*
X13061Y7284D02*
X13060Y7283D01*
X13168Y7755D02*
X13173Y7760D01*
X13150Y7753D02*
X13140Y7744D01*
X13178Y7449D02*
X13168Y7440D01*
X13140Y7468D02*
X13150Y7477D01*
X13138Y7056D02*
X13129Y7046D01*
X13101Y7074D02*
X13110Y7084D01*
X13168Y7086D02*
X13178Y7095D01*
X13150Y7123D02*
X13140Y7114D01*
X13129Y7637D02*
X13138Y7646D01*
X13110Y7674D02*
X13101Y7665D01*
X13168Y7676D02*
X13178Y7686D01*
X13071Y7792D02*
X13062Y7783D01*
X13090Y7794D02*
X13099Y7804D01*
X13071Y7832D02*
X13062Y7822D01*
X13178Y7174D02*
X13168Y7165D01*
X13140Y7192D02*
X13150Y7202D01*
X13168Y7243D02*
X13178Y7253D01*
X13150Y7281D02*
X13140Y7271D01*
X13138Y7253D02*
X13129Y7243D01*
X13101Y7271D02*
X13110Y7281D01*
X13099Y7292D02*
X13090Y7283D01*
X13062Y7311D02*
X13071Y7320D01*
X13099Y6938D02*
X13090Y6928D01*
X13062Y6956D02*
X13071Y6966D01*
X13129Y7479D02*
X13138Y7489D01*
X13110Y7517D02*
X13101Y7507D01*
X13129Y7519D02*
X13138Y7528D01*
X13110Y7556D02*
X13101Y7547D01*
X13168Y7598D02*
X13178Y7607D01*
X13150Y7635D02*
X13140Y7626D01*
X13168Y7637D02*
X13178Y7646D01*
X13150Y7674D02*
X13140Y7665D01*
X13138Y7607D02*
X13129Y7598D01*
X13101Y7626D02*
X13110Y7635D01*
X13099Y7646D02*
X13090Y7637D01*
X13062Y7665D02*
X13071Y7674D01*
X13168Y7755D02*
X13178Y7764D01*
X13150Y7792D02*
X13140Y7783D01*
X13138Y7686D02*
X13129Y7676D01*
X13099Y7686D02*
X13090Y7676D01*
X13178Y6938D02*
X13168Y6928D01*
X13140Y6956D02*
X13150Y6966D01*
X13138Y6977D02*
X13129Y6968D01*
X13101Y6996D02*
X13110Y7005D01*
X13099Y6977D02*
X13090Y6968D01*
X13062Y6996D02*
X13071Y7005D01*
X13168Y7007D02*
X13178Y7016D01*
X13150Y7044D02*
X13140Y7035D01*
X13129Y7086D02*
X13138Y7095D01*
X13110Y7123D02*
X13101Y7114D01*
X13129Y7125D02*
X13138Y7134D01*
X13110Y7162D02*
X13101Y7153D01*
X13090Y7558D02*
X13099Y7568D01*
X13071Y7596D02*
X13062Y7586D01*
X13129Y7558D02*
X13138Y7568D01*
X13110Y7596D02*
X13101Y7586D01*
X13168Y7519D02*
X13178Y7528D01*
X13150Y7556D02*
X13140Y7547D01*
X13138Y7292D02*
X13129Y7283D01*
X13101Y7311D02*
X13110Y7320D01*
X13168Y7322D02*
X13178Y7331D01*
X13150Y7359D02*
X13140Y7350D01*
X13099Y7253D02*
X13090Y7243D01*
X13062Y7271D02*
X13071Y7281D01*
X13099Y7213D02*
X13090Y7204D01*
X13062Y7232D02*
X13071Y7241D01*
X13099Y7174D02*
X13090Y7165D01*
X13062Y7192D02*
X13071Y7202D01*
X13168Y7125D02*
X13178Y7134D01*
X13150Y7162D02*
X13140Y7153D01*
X13138Y6938D02*
X13129Y6928D01*
X13101Y6956D02*
X13110Y6966D01*
X13138Y6898D02*
X13129Y6889D01*
X13101Y6917D02*
X13110Y6926D01*
X13168Y7401D02*
X13178Y7410D01*
X13150Y7438D02*
X13140Y7429D01*
X13099Y6859D02*
X13090Y6850D01*
X13062Y6878D02*
X13071Y6887D01*
X13150Y7716D02*
X13140Y7725D01*
X13168Y7753D02*
X13178Y7744D01*
Y7755D02*
X13173Y7760D01*
X13168Y7477D02*
X13178Y7468D01*
X13150Y7440D02*
X13140Y7449D01*
X13129Y7084D02*
X13138Y7074D01*
X13110Y7046D02*
X13101Y7056D01*
X13168Y7123D02*
X13178Y7114D01*
X13150Y7086D02*
X13140Y7095D01*
X13138Y7665D02*
X13129Y7674D01*
X13101Y7646D02*
X13110Y7637D01*
X13150Y7676D02*
X13140Y7686D01*
X13099Y7783D02*
X13090Y7792D01*
X13099Y7822D02*
X13090Y7832D01*
X13062Y7804D02*
X13071Y7794D01*
X13168Y7202D02*
X13178Y7192D01*
X13150Y7165D02*
X13140Y7174D01*
X13178Y7271D02*
X13168Y7281D01*
X13140Y7253D02*
X13150Y7243D01*
X13138Y7271D02*
X13129Y7281D01*
X13101Y7253D02*
X13110Y7243D01*
X13099Y7311D02*
X13090Y7320D01*
X13062Y7292D02*
X13071Y7283D01*
X13090Y6966D02*
X13099Y6956D01*
X13071Y6928D02*
X13062Y6938D01*
X13138Y7507D02*
X13129Y7517D01*
X13101Y7489D02*
X13110Y7479D01*
X13138Y7547D02*
X13129Y7556D01*
X13101Y7528D02*
X13110Y7519D01*
X13178Y7626D02*
X13168Y7635D01*
X13140Y7607D02*
X13150Y7598D01*
X13178Y7665D02*
X13168Y7674D01*
X13140Y7646D02*
X13150Y7637D01*
X13138Y7626D02*
X13129Y7635D01*
X13101Y7607D02*
X13110Y7598D01*
X13099Y7665D02*
X13090Y7674D01*
X13062Y7646D02*
X13071Y7637D01*
X13110Y7676D02*
X13101Y7686D01*
X13071Y7676D02*
X13062Y7686D01*
X13168Y6966D02*
X13178Y6956D01*
X13150Y6928D02*
X13140Y6938D01*
X13138Y6996D02*
X13129Y7005D01*
X13101Y6977D02*
X13110Y6968D01*
X13099Y6996D02*
X13090Y7005D01*
X13062Y6977D02*
X13071Y6968D01*
X13168Y7044D02*
X13178Y7035D01*
X13150Y7007D02*
X13140Y7016D01*
X13138Y7114D02*
X13129Y7123D01*
X13101Y7095D02*
X13110Y7086D01*
X13138Y7153D02*
X13129Y7162D01*
X13101Y7134D02*
X13110Y7125D01*
X13099Y7586D02*
X13090Y7596D01*
X13062Y7568D02*
X13071Y7558D01*
X13129Y7596D02*
X13138Y7586D01*
X13110Y7558D02*
X13101Y7568D01*
X13168Y7556D02*
X13178Y7547D01*
X13150Y7519D02*
X13140Y7528D01*
X13129Y7320D02*
X13138Y7311D01*
X13110Y7283D02*
X13101Y7292D01*
X13168Y7359D02*
X13178Y7350D01*
X13150Y7322D02*
X13140Y7331D01*
X13090Y7281D02*
X13099Y7271D01*
X13071Y7243D02*
X13062Y7253D01*
X13090Y7241D02*
X13099Y7232D01*
X13071Y7204D02*
X13062Y7213D01*
X13090Y7202D02*
X13099Y7192D01*
X13071Y7165D02*
X13062Y7174D01*
X13168Y7162D02*
X13178Y7153D01*
X13150Y7125D02*
X13140Y7134D01*
X13129Y6966D02*
X13138Y6956D01*
X13110Y6928D02*
X13101Y6938D01*
X13129Y6926D02*
X13138Y6917D01*
X13110Y6889D02*
X13101Y6898D01*
X13178Y7429D02*
X13168Y7438D01*
X13140Y7410D02*
X13150Y7401D01*
X13090Y6887D02*
X13099Y6878D01*
X13071Y6850D02*
X13062Y6859D01*
X13152Y7792D02*
X13152Y7792D01*
X13150Y7794D01*
X13140Y7804D01*
X13113Y7832D01*
X13099Y7846D01*
X13062Y7883D01*
X13060Y7885D01*
X13217Y7371D02*
X13208Y7361D01*
X13180Y7389D02*
X13189Y7399D01*
X13217Y7095D02*
X13208Y7086D01*
X13180Y7114D02*
X13189Y7123D01*
X13208Y7598D02*
X13217Y7607D01*
X13189Y7635D02*
X13180Y7626D01*
X13247Y7676D02*
X13256Y7686D01*
X13228Y7714D02*
X13219Y7704D01*
X13256Y7646D02*
X13247Y7637D01*
X13219Y7665D02*
X13228Y7674D01*
X13217Y7686D02*
X13208Y7676D01*
X13247Y7716D02*
X13256Y7725D01*
X13228Y7753D02*
X13219Y7744D01*
X13217Y7725D02*
X13208Y7716D01*
X13180Y7744D02*
X13189Y7753D01*
X13247Y7755D02*
X13256Y7764D01*
X13217D02*
X13208Y7755D01*
X13256Y6938D02*
X13247Y6928D01*
X13219Y6956D02*
X13228Y6966D01*
X13217Y6977D02*
X13208Y6968D01*
X13180Y6996D02*
X13189Y7005D01*
X13256Y6898D02*
X13247Y6889D01*
X13219Y6917D02*
X13228Y6926D01*
X13208Y7007D02*
X13217Y7016D01*
X13189Y7044D02*
X13180Y7035D01*
X13247Y7086D02*
X13256Y7095D01*
X13228Y7123D02*
X13219Y7114D01*
X13208Y7401D02*
X13217Y7410D01*
X13189Y7438D02*
X13180Y7429D01*
X13247Y7361D02*
X13256Y7371D01*
X13228Y7399D02*
X13219Y7389D01*
X13256Y6977D02*
X13247Y6968D01*
X13219Y6996D02*
X13228Y7005D01*
X13208Y7558D02*
X13217Y7568D01*
X13189Y7596D02*
X13180Y7586D01*
X13217Y7489D02*
X13208Y7479D01*
X13180Y7507D02*
X13189Y7517D01*
X13256Y7292D02*
X13247Y7283D01*
X13219Y7311D02*
X13228Y7320D01*
X13217Y7213D02*
X13208Y7204D01*
X13180Y7232D02*
X13189Y7241D01*
X13217Y7174D02*
X13208Y7165D01*
X13180Y7192D02*
X13189Y7202D01*
X13256Y7016D02*
X13247Y7007D01*
X13219Y7035D02*
X13228Y7044D01*
X13217Y6938D02*
X13208Y6928D01*
X13180Y6956D02*
X13189Y6966D01*
X13256Y6859D02*
X13247Y6850D01*
X13219Y6878D02*
X13228Y6887D01*
X13247Y7440D02*
X13256Y7449D01*
X13228Y7477D02*
X13219Y7468D01*
X13184Y7748D02*
X13180Y7753D01*
X13180Y7753D01*
X13180Y7753D01*
X13178Y7755D01*
X13178Y7755D01*
X13208Y7399D02*
X13217Y7389D01*
X13189Y7361D02*
X13180Y7371D01*
X13208Y7123D02*
X13217Y7114D01*
X13189Y7086D02*
X13180Y7095D01*
X13217Y7626D02*
X13208Y7635D01*
X13180Y7607D02*
X13189Y7598D01*
X13256Y7704D02*
X13247Y7714D01*
X13219Y7686D02*
X13228Y7676D01*
X13247Y7674D02*
X13256Y7665D01*
X13228Y7637D02*
X13219Y7646D01*
X13217Y7704D02*
X13208Y7714D01*
X13180Y7686D02*
X13189Y7676D01*
X13256Y7744D02*
X13247Y7753D01*
X13219Y7725D02*
X13228Y7716D01*
X13217Y7744D02*
X13208Y7753D01*
X13219Y7764D02*
X13228Y7755D01*
X13189D02*
X13180Y7764D01*
X13247Y6966D02*
X13256Y6956D01*
X13228Y6928D02*
X13219Y6938D01*
X13217Y6996D02*
X13208Y7005D01*
X13180Y6977D02*
X13189Y6968D01*
X13247Y6926D02*
X13256Y6917D01*
X13228Y6889D02*
X13219Y6898D01*
X13217Y7035D02*
X13208Y7044D01*
X13180Y7016D02*
X13189Y7007D01*
X13256Y7114D02*
X13247Y7123D01*
X13219Y7095D02*
X13228Y7086D01*
X13217Y7429D02*
X13208Y7438D01*
X13180Y7410D02*
X13189Y7401D01*
X13247Y7399D02*
X13256Y7389D01*
X13228Y7361D02*
X13219Y7371D01*
X13247Y7005D02*
X13256Y6996D01*
X13228Y6968D02*
X13219Y6977D01*
X13217Y7586D02*
X13208Y7596D01*
X13180Y7568D02*
X13189Y7558D01*
X13208Y7517D02*
X13217Y7507D01*
X13189Y7479D02*
X13180Y7489D01*
X13247Y7320D02*
X13256Y7311D01*
X13228Y7283D02*
X13219Y7292D01*
X13208Y7241D02*
X13217Y7232D01*
X13189Y7204D02*
X13180Y7213D01*
X13208Y7202D02*
X13217Y7192D01*
X13189Y7165D02*
X13180Y7174D01*
X13247Y7044D02*
X13256Y7035D01*
X13228Y7007D02*
X13219Y7016D01*
X13208Y6966D02*
X13217Y6956D01*
X13189Y6928D02*
X13180Y6938D01*
X13247Y6887D02*
X13256Y6878D01*
X13228Y6850D02*
X13219Y6859D01*
X13256Y7468D02*
X13247Y7477D01*
X13219Y7449D02*
X13228Y7440D01*
X13180Y7744D02*
X13184Y7748D01*
X13168Y7714D02*
X13178Y7704D01*
X13071Y7755D02*
X13062Y7764D01*
X13180Y7725D02*
X13189Y7716D01*
X13150Y7755D02*
X13140Y7764D01*
X13129Y7714D02*
X13138Y7704D01*
X13099D02*
X13090Y7714D01*
X13140Y7704D02*
X13150Y7714D01*
X13099Y7764D02*
X13090Y7755D01*
X13180Y7704D02*
X13189Y7714D01*
X13110D02*
X13101Y7704D01*
X13071Y7714D02*
X13062Y7704D01*
X13257Y7754D02*
Y6888D01*
X13297D02*
Y7754D01*
X13336D02*
Y6888D01*
X13296Y7095D02*
Y7114D01*
X13258D02*
Y7095D01*
X13335Y7646D02*
Y7665D01*
X13298D02*
Y7646D01*
X13296D02*
Y7665D01*
X13258D02*
Y7646D01*
X13337Y7725D02*
Y7744D01*
X13296Y7764D02*
Y7766D01*
X13258D02*
Y7764D01*
X13337Y7665D02*
Y7646D01*
Y7626D02*
Y7607D01*
X13335D02*
Y7626D01*
X13298D02*
Y7607D01*
X13296D02*
Y7626D01*
X13258D02*
Y7607D01*
X13337Y7686D02*
Y7704D01*
X13335Y7725D02*
Y7744D01*
X13298D02*
Y7725D01*
X13296Y7704D02*
Y7686D01*
X13258D02*
Y7704D01*
X13335Y7764D02*
Y7766D01*
X13298D02*
Y7764D01*
X13296Y7744D02*
Y7725D01*
X13258D02*
Y7744D01*
X13337Y6996D02*
Y6977D01*
Y6956D02*
Y6938D01*
X13335Y6977D02*
Y6996D01*
X13298D02*
Y6977D01*
X13296Y6956D02*
Y6938D01*
X13258D02*
Y6956D01*
X13296Y6917D02*
Y6898D01*
X13258D02*
Y6917D01*
X13335Y6917D02*
Y6898D01*
X13298D02*
Y6917D01*
X13337D02*
Y6898D01*
Y7056D02*
Y7074D01*
X13335Y7035D02*
Y7016D01*
X13298D02*
Y7035D01*
X13296Y7056D02*
Y7074D01*
X13258D02*
Y7056D01*
X13296Y7371D02*
Y7389D01*
X13258D02*
Y7371D01*
X13296Y7449D02*
Y7468D01*
X13258D02*
Y7449D01*
X13337Y7764D02*
Y7766D01*
X13335Y7468D02*
Y7449D01*
X13298D02*
Y7468D01*
X13335Y7389D02*
Y7371D01*
X13298D02*
Y7389D01*
X13337Y7350D02*
Y7331D01*
X13335Y7074D02*
Y7056D01*
X13298D02*
Y7074D01*
X13296Y6996D02*
Y6977D01*
X13258D02*
Y6996D01*
X13296Y6775D02*
Y6757D01*
X13258D02*
Y6775D01*
X13296Y7134D02*
Y7153D01*
X13258D02*
Y7134D01*
X13337Y7253D02*
Y7271D01*
X13335Y7489D02*
Y7507D01*
X13298D02*
Y7489D01*
X13337D02*
Y7507D01*
X13335Y7568D02*
Y7586D01*
X13298D02*
Y7568D01*
X13337Y7114D02*
Y7095D01*
X13256Y7686D02*
Y7704D01*
Y7665D02*
Y7646D01*
Y7725D02*
Y7744D01*
Y7764D02*
Y7766D01*
Y6956D02*
Y6938D01*
Y6917D02*
Y6898D01*
Y7095D02*
Y7114D01*
Y7371D02*
Y7389D01*
Y6996D02*
Y6977D01*
Y7292D02*
Y7311D01*
X13256Y7035D02*
Y7016D01*
Y6878D02*
Y6859D01*
X13256Y7449D02*
Y7468D01*
X13320Y6864D02*
Y6766D01*
X13376Y6888D02*
Y7754D01*
X13415Y7751D02*
Y6888D01*
Y7675D02*
Y7751D01*
Y7085D02*
Y6889D01*
X13416Y7095D02*
Y7114D01*
X13414Y7607D02*
Y7626D01*
X13377D02*
Y7607D01*
X13416Y7646D02*
Y7665D01*
X13414D02*
Y7646D01*
X13377D02*
Y7665D01*
X13416Y7686D02*
Y7704D01*
X13374Y7725D02*
Y7744D01*
X13416Y7468D02*
Y7449D01*
X13414D02*
Y7468D01*
X13377D02*
Y7449D01*
X13416Y7528D02*
Y7547D01*
Y7568D02*
Y7586D01*
X13414Y7586D02*
Y7568D01*
X13377D02*
Y7586D01*
X13374Y7646D02*
Y7665D01*
Y7626D02*
Y7607D01*
X13414Y7686D02*
Y7704D01*
X13377D02*
Y7686D01*
X13414Y7725D02*
Y7744D01*
X13377D02*
Y7725D01*
X13374Y7704D02*
Y7686D01*
X13416Y7725D02*
Y7744D01*
X13414Y7764D02*
Y7766D01*
X13377D02*
Y7764D01*
X13374Y6996D02*
Y6977D01*
X13414Y7016D02*
Y7035D01*
X13377D02*
Y7016D01*
X13416D02*
Y7035D01*
Y6956D02*
Y6938D01*
X13414Y6977D02*
Y6996D01*
X13377D02*
Y6977D01*
X13374Y6956D02*
Y6938D01*
Y6917D02*
Y6898D01*
X13414Y6938D02*
Y6956D01*
X13377D02*
Y6938D01*
X13416Y6917D02*
Y6898D01*
Y7410D02*
Y7429D01*
X13374Y7074D02*
Y7056D01*
X13414D02*
Y7074D01*
X13377D02*
Y7056D01*
X13416Y7056D02*
Y7074D01*
X13374Y7764D02*
Y7766D01*
X13414Y7429D02*
Y7410D01*
X13377D02*
Y7429D01*
X13416Y7489D02*
Y7507D01*
Y7389D02*
Y7371D01*
X13374Y7350D02*
Y7331D01*
X13416Y7311D02*
Y7292D01*
X13414Y7232D02*
Y7213D01*
X13377D02*
Y7232D01*
X13416Y6996D02*
Y6977D01*
X13414Y6917D02*
Y6898D01*
X13377D02*
Y6917D01*
X13374Y7253D02*
Y7271D01*
Y7489D02*
Y7507D01*
Y7114D02*
Y7095D01*
X13427Y7714D02*
Y7716D01*
Y7753D02*
Y7754D01*
X13296Y7095D02*
X13286Y7086D01*
X13258Y7114D02*
X13268Y7123D01*
X13326Y7637D02*
X13335Y7646D01*
X13307Y7674D02*
X13298Y7665D01*
X13296Y7646D02*
X13286Y7637D01*
X13258Y7665D02*
X13268Y7674D01*
X13365Y7716D02*
X13374Y7725D01*
X13347Y7753D02*
X13337Y7744D01*
X13296Y7764D02*
X13286Y7755D01*
X13374Y7646D02*
X13365Y7637D01*
X13337Y7665D02*
X13347Y7674D01*
X13374Y7607D02*
X13365Y7598D01*
X13337Y7626D02*
X13347Y7635D01*
X13335Y7607D02*
X13326Y7598D01*
X13298Y7626D02*
X13307Y7635D01*
X13296Y7607D02*
X13286Y7598D01*
X13258Y7626D02*
X13268Y7635D01*
X13365Y7676D02*
X13374Y7686D01*
X13347Y7714D02*
X13337Y7704D01*
X13326Y7716D02*
X13335Y7725D01*
X13307Y7753D02*
X13298Y7744D01*
X13296Y7686D02*
X13286Y7676D01*
X13258Y7704D02*
X13268Y7714D01*
X13326Y7755D02*
X13335Y7764D01*
X13296Y7725D02*
X13286Y7716D01*
X13258Y7744D02*
X13268Y7753D01*
X13374Y6977D02*
X13365Y6968D01*
X13337Y6996D02*
X13347Y7005D01*
X13374Y6938D02*
X13365Y6928D01*
X13337Y6956D02*
X13347Y6966D01*
X13335Y6977D02*
X13326Y6968D01*
X13298Y6996D02*
X13307Y7005D01*
X13296Y6938D02*
X13286Y6928D01*
X13258Y6956D02*
X13268Y6966D01*
X13296Y6898D02*
X13286Y6889D01*
X13258Y6917D02*
X13268Y6926D01*
X13326Y6889D02*
X13335Y6898D01*
X13307Y6926D02*
X13298Y6917D01*
X13365Y6889D02*
X13374Y6898D01*
X13347Y6926D02*
X13337Y6917D01*
X13365Y7046D02*
X13374Y7056D01*
X13347Y7084D02*
X13337Y7074D01*
X13335Y7016D02*
X13326Y7007D01*
X13298Y7035D02*
X13307Y7044D01*
X13296Y7056D02*
X13286Y7046D01*
X13258Y7074D02*
X13268Y7084D01*
X13286Y7361D02*
X13296Y7371D01*
X13268Y7399D02*
X13258Y7389D01*
X13286Y7440D02*
X13296Y7449D01*
X13268Y7477D02*
X13258Y7468D01*
X13365Y7755D02*
X13374Y7764D01*
X13335Y7449D02*
X13326Y7440D01*
X13298Y7468D02*
X13307Y7477D01*
X13335Y7371D02*
X13326Y7361D01*
X13298Y7389D02*
X13307Y7399D01*
X13374Y7331D02*
X13365Y7322D01*
X13337Y7350D02*
X13347Y7359D01*
X13335Y7056D02*
X13326Y7046D01*
X13298Y7074D02*
X13307Y7084D01*
X13296Y6977D02*
X13286Y6968D01*
X13258Y6996D02*
X13268Y7005D01*
X13296Y6757D02*
X13286Y6747D01*
X13258Y6775D02*
X13268Y6784D01*
X13286Y7125D02*
X13296Y7134D01*
X13268Y7162D02*
X13258Y7153D01*
X13365Y7243D02*
X13374Y7253D01*
X13347Y7281D02*
X13337Y7271D01*
X13326Y7479D02*
X13335Y7489D01*
X13307Y7517D02*
X13298Y7507D01*
X13365Y7479D02*
X13374Y7489D01*
X13347Y7517D02*
X13337Y7507D01*
X13326Y7558D02*
X13335Y7568D01*
X13307Y7596D02*
X13298Y7586D01*
X13374Y7095D02*
X13365Y7086D01*
X13337Y7114D02*
X13347Y7123D01*
X13296Y6741D02*
X13289Y6734D01*
X13296Y6741D02*
X13302Y6747D01*
X13320Y6766D01*
Y6864D02*
X13337Y6881D01*
X13340Y6884D01*
X13296Y7114D02*
X13286Y7123D01*
X13258Y7095D02*
X13268Y7086D01*
X13335Y7665D02*
X13326Y7674D01*
X13298Y7646D02*
X13307Y7637D01*
X13296Y7665D02*
X13286Y7674D01*
X13258Y7646D02*
X13268Y7637D01*
X13374Y7744D02*
X13365Y7753D01*
X13337Y7725D02*
X13347Y7716D01*
X13268Y7755D02*
X13258Y7764D01*
X13365Y7674D02*
X13374Y7665D01*
X13347Y7637D02*
X13337Y7646D01*
X13365Y7635D02*
X13374Y7626D01*
X13347Y7598D02*
X13337Y7607D01*
X13335Y7626D02*
X13326Y7635D01*
X13298Y7607D02*
X13307Y7598D01*
X13296Y7626D02*
X13286Y7635D01*
X13258Y7607D02*
X13268Y7598D01*
X13374Y7704D02*
X13365Y7714D01*
X13337Y7686D02*
X13347Y7676D01*
X13335Y7744D02*
X13326Y7753D01*
X13298Y7725D02*
X13307Y7716D01*
X13296Y7704D02*
X13286Y7714D01*
X13258Y7686D02*
X13268Y7676D01*
X13307Y7755D02*
X13298Y7764D01*
X13286Y7753D02*
X13296Y7744D01*
X13268Y7716D02*
X13258Y7725D01*
X13365Y7005D02*
X13374Y6996D01*
X13347Y6968D02*
X13337Y6977D01*
X13365Y6966D02*
X13374Y6956D01*
X13347Y6928D02*
X13337Y6938D01*
X13335Y6996D02*
X13326Y7005D01*
X13298Y6977D02*
X13307Y6968D01*
X13296Y6956D02*
X13286Y6966D01*
X13258Y6938D02*
X13268Y6928D01*
X13286Y6926D02*
X13296Y6917D01*
X13268Y6889D02*
X13258Y6898D01*
X13326Y6926D02*
X13335Y6917D01*
X13307Y6889D02*
X13298Y6898D01*
X13365Y6926D02*
X13374Y6917D01*
X13347Y6889D02*
X13337Y6898D01*
X13374Y7074D02*
X13365Y7084D01*
X13337Y7056D02*
X13347Y7046D01*
X13335Y7035D02*
X13326Y7044D01*
X13298Y7016D02*
X13307Y7007D01*
X13296Y7074D02*
X13286Y7084D01*
X13258Y7056D02*
X13268Y7046D01*
X13296Y7389D02*
X13286Y7399D01*
X13258Y7371D02*
X13268Y7361D01*
X13296Y7468D02*
X13286Y7477D01*
X13258Y7449D02*
X13268Y7440D01*
X13347Y7755D02*
X13337Y7764D01*
X13326Y7477D02*
X13335Y7468D01*
X13307Y7440D02*
X13298Y7449D01*
X13326Y7399D02*
X13335Y7389D01*
X13307Y7361D02*
X13298Y7371D01*
X13365Y7359D02*
X13374Y7350D01*
X13347Y7322D02*
X13337Y7331D01*
X13326Y7084D02*
X13335Y7074D01*
X13307Y7046D02*
X13298Y7056D01*
X13286Y7005D02*
X13296Y6996D01*
X13268Y6968D02*
X13258Y6977D01*
X13286Y6784D02*
X13296Y6775D01*
X13268Y6747D02*
X13258Y6757D01*
X13296Y7153D02*
X13286Y7162D01*
X13258Y7134D02*
X13268Y7125D01*
X13374Y7271D02*
X13365Y7281D01*
X13337Y7253D02*
X13347Y7243D01*
X13335Y7507D02*
X13326Y7517D01*
X13298Y7489D02*
X13307Y7479D01*
X13365Y7517D02*
X13374Y7507D01*
X13347Y7479D02*
X13337Y7489D01*
X13335Y7586D02*
X13326Y7596D01*
X13298Y7568D02*
X13307Y7558D01*
X13365Y7123D02*
X13374Y7114D01*
X13347Y7086D02*
X13337Y7095D01*
X13444Y7086D02*
X13453Y7095D01*
X13425Y7123D02*
X13416Y7114D01*
X13405Y7598D02*
X13414Y7607D01*
X13386Y7635D02*
X13377Y7626D01*
X13444Y7637D02*
X13453Y7646D01*
X13425Y7674D02*
X13416Y7665D01*
X13414Y7646D02*
X13405Y7637D01*
X13377Y7665D02*
X13386Y7674D01*
X13444Y7676D02*
X13451Y7683D01*
X13425Y7714D02*
X13416Y7704D01*
X13453Y7449D02*
X13444Y7440D01*
X13416Y7468D02*
X13425Y7477D01*
X13414Y7449D02*
X13405Y7440D01*
X13377Y7468D02*
X13386Y7477D01*
X13444Y7519D02*
X13453Y7528D01*
X13425Y7556D02*
X13416Y7547D01*
X13444Y7558D02*
X13453Y7568D01*
X13425Y7596D02*
X13416Y7586D01*
X13414Y7568D02*
X13405Y7558D01*
X13377Y7586D02*
X13386Y7596D01*
X13405Y7676D02*
X13414Y7686D01*
X13386Y7714D02*
X13377Y7704D01*
X13405Y7716D02*
X13414Y7725D01*
X13386Y7753D02*
X13377Y7744D01*
X13416D02*
X13425Y7753D01*
X13414Y7764D02*
X13405Y7755D01*
X13414Y7016D02*
X13405Y7007D01*
X13377Y7035D02*
X13386Y7044D01*
X13444Y7007D02*
X13453Y7016D01*
X13425Y7044D02*
X13416Y7035D01*
X13453Y6938D02*
X13444Y6928D01*
X13416Y6956D02*
X13425Y6966D01*
X13414Y6977D02*
X13405Y6968D01*
X13377Y6996D02*
X13386Y7005D01*
X13414Y6938D02*
X13405Y6928D01*
X13377Y6956D02*
X13386Y6966D01*
X13425Y6926D02*
X13416Y6917D01*
X13444Y7401D02*
X13453Y7410D01*
X13425Y7438D02*
X13416Y7429D01*
X13414Y7056D02*
X13405Y7046D01*
X13377Y7074D02*
X13386Y7084D01*
X13444Y7046D02*
X13453Y7056D01*
X13425Y7084D02*
X13416Y7074D01*
X13405Y7401D02*
X13414Y7410D01*
X13386Y7438D02*
X13377Y7429D01*
X13444Y7479D02*
X13453Y7489D01*
X13425Y7517D02*
X13416Y7507D01*
X13453Y7371D02*
X13444Y7361D01*
X13416Y7389D02*
X13425Y7399D01*
X13453Y7292D02*
X13444Y7283D01*
X13416Y7311D02*
X13425Y7320D01*
X13414Y7213D02*
X13405Y7204D01*
X13377Y7232D02*
X13386Y7241D01*
X13453Y6977D02*
X13444Y6968D01*
X13416Y6996D02*
X13425Y7005D01*
X13414Y6898D02*
X13405Y6889D01*
X13377Y6917D02*
X13386Y6926D01*
X13428Y6889D02*
X13423Y6884D01*
X13453Y7114D02*
X13444Y7123D01*
X13416Y7095D02*
X13425Y7086D01*
X13414Y7626D02*
X13405Y7635D01*
X13377Y7607D02*
X13386Y7598D01*
X13453Y7665D02*
X13444Y7674D01*
X13416Y7646D02*
X13425Y7637D01*
X13414Y7665D02*
X13405Y7674D01*
X13377Y7646D02*
X13386Y7637D01*
X13425Y7676D02*
X13418Y7683D01*
X13416Y7686D01*
X13444Y7477D02*
X13453Y7468D01*
X13425Y7440D02*
X13416Y7449D01*
X13414Y7468D02*
X13405Y7477D01*
X13377Y7449D02*
X13386Y7440D01*
X13453Y7547D02*
X13444Y7556D01*
X13416Y7528D02*
X13425Y7519D01*
X13453Y7586D02*
X13444Y7596D01*
X13416Y7568D02*
X13425Y7558D01*
X13414Y7586D02*
X13405Y7596D01*
X13377Y7568D02*
X13386Y7558D01*
X13414Y7704D02*
X13405Y7714D01*
X13377Y7686D02*
X13386Y7676D01*
X13414Y7744D02*
X13405Y7753D01*
X13377Y7725D02*
X13386Y7716D01*
X13416Y7725D02*
X13425Y7716D01*
X13386Y7755D02*
X13377Y7764D01*
X13405Y7044D02*
X13414Y7035D01*
X13386Y7007D02*
X13377Y7016D01*
X13444Y7044D02*
X13453Y7035D01*
X13425Y7007D02*
X13416Y7016D01*
X13444Y6966D02*
X13453Y6956D01*
X13425Y6928D02*
X13416Y6938D01*
X13414Y6996D02*
X13405Y7005D01*
X13377Y6977D02*
X13386Y6968D01*
X13405Y6966D02*
X13414Y6956D01*
X13386Y6928D02*
X13377Y6938D01*
X13444Y6926D02*
X13453Y6917D01*
X13425Y6889D02*
X13416Y6898D01*
X13453Y7429D02*
X13444Y7438D01*
X13416Y7410D02*
X13425Y7401D01*
X13405Y7084D02*
X13414Y7074D01*
X13386Y7046D02*
X13377Y7056D01*
X13444Y7084D02*
X13453Y7074D01*
X13425Y7046D02*
X13416Y7056D01*
X13414Y7429D02*
X13405Y7438D01*
X13377Y7410D02*
X13386Y7401D01*
X13453Y7507D02*
X13444Y7517D01*
X13416Y7489D02*
X13425Y7479D01*
X13444Y7399D02*
X13453Y7389D01*
X13425Y7361D02*
X13416Y7371D01*
X13444Y7320D02*
X13453Y7311D01*
X13425Y7283D02*
X13416Y7292D01*
X13405Y7241D02*
X13414Y7232D01*
X13386Y7204D02*
X13377Y7213D01*
X13444Y7005D02*
X13453Y6996D01*
X13425Y6968D02*
X13416Y6977D01*
X13405Y6926D02*
X13414Y6917D01*
X13386Y6889D02*
X13377Y6898D01*
X13427Y7754D02*
X13415Y7766D01*
X13533Y7670D02*
Y7447D01*
X13494Y7439D02*
Y7677D01*
X13453D02*
Y7085D01*
X13495Y7410D02*
Y7429D01*
X13532Y7646D02*
Y7665D01*
X13495D02*
Y7646D01*
X13493D02*
Y7665D01*
X13455D02*
Y7646D01*
X13493Y7547D02*
Y7528D01*
X13455D02*
Y7547D01*
X13493Y7468D02*
Y7449D01*
X13455D02*
Y7468D01*
X13532D02*
Y7449D01*
X13495D02*
Y7468D01*
X13532Y7489D02*
Y7507D01*
X13495D02*
Y7489D01*
X13532Y7528D02*
Y7547D01*
X13495D02*
Y7528D01*
X13493Y7568D02*
Y7586D01*
X13455D02*
Y7568D01*
X13493Y7607D02*
Y7626D01*
X13455D02*
Y7607D01*
X13534Y7507D02*
Y7489D01*
Y7528D02*
Y7547D01*
Y7568D02*
Y7586D01*
X13532Y7607D02*
Y7626D01*
X13495D02*
Y7607D01*
X13534D02*
Y7626D01*
X13532Y7586D02*
Y7568D01*
X13495D02*
Y7586D01*
X13493Y7389D02*
Y7371D01*
X13455D02*
Y7389D01*
X13532Y7271D02*
Y7253D01*
X13495D02*
Y7271D01*
X13493Y7192D02*
Y7174D01*
X13455D02*
Y7192D01*
X13453Y7114D02*
Y7095D01*
Y7646D02*
Y7665D01*
Y7468D02*
Y7449D01*
Y7528D02*
Y7547D01*
Y7568D02*
Y7586D01*
Y7035D02*
Y7016D01*
Y6956D02*
Y6938D01*
Y6917D02*
Y6914D01*
Y7410D02*
Y7429D01*
Y7074D02*
Y7056D01*
Y7489D02*
Y7507D01*
Y7389D02*
Y7371D01*
Y7311D02*
Y7292D01*
X13453Y6996D02*
Y6977D01*
X13454Y6915D02*
Y7116D01*
X13541Y7203D02*
Y7274D01*
X13502Y7313D02*
Y7401D01*
Y7403D01*
X13545Y7451D02*
Y7479D01*
Y7517D02*
Y7519D01*
Y7556D02*
Y7558D01*
Y7596D02*
Y7598D01*
Y7635D02*
Y7663D01*
X13534Y7446D02*
X13527Y7439D01*
X13504Y7438D02*
X13495Y7429D01*
X13523Y7637D02*
X13532Y7646D01*
X13504Y7674D02*
X13495Y7665D01*
X13493Y7646D02*
X13483Y7637D01*
X13455Y7665D02*
X13465Y7674D01*
X13493Y7528D02*
X13483Y7519D01*
X13455Y7547D02*
X13465Y7556D01*
X13493Y7449D02*
X13483Y7440D01*
X13455Y7468D02*
X13465Y7477D01*
X13523Y7440D02*
X13532Y7449D01*
X13504Y7477D02*
X13495Y7468D01*
X13523Y7479D02*
X13532Y7489D01*
X13504Y7517D02*
X13495Y7507D01*
X13523Y7519D02*
X13532Y7528D01*
X13504Y7556D02*
X13495Y7547D01*
X13483Y7558D02*
X13493Y7568D01*
X13465Y7596D02*
X13455Y7586D01*
X13483Y7598D02*
X13493Y7607D01*
X13465Y7635D02*
X13455Y7626D01*
X13543Y7517D02*
X13534Y7507D01*
Y7547D02*
X13543Y7556D01*
X13534Y7586D02*
X13543Y7596D01*
X13532Y7607D02*
X13523Y7598D01*
X13495Y7626D02*
X13504Y7635D01*
X13534Y7626D02*
X13543Y7635D01*
X13532Y7568D02*
X13523Y7558D01*
X13495Y7586D02*
X13504Y7596D01*
X13493Y7371D02*
X13483Y7361D01*
X13455Y7389D02*
X13465Y7399D01*
X13532Y7253D02*
X13523Y7243D01*
X13495Y7271D02*
X13504Y7281D01*
X13493Y7174D02*
X13483Y7165D01*
X13455Y7192D02*
X13465Y7202D01*
X13454Y6915D02*
X13453Y6914D01*
X13454Y7116D02*
X13455Y7117D01*
X13493Y7155D01*
X13503Y7165D01*
X13540Y7202D01*
X13541Y7203D01*
X13532Y7438D02*
X13532Y7438D01*
X13534Y7440D01*
X13545Y7451D01*
X13533Y7670D02*
X13528Y7675D01*
X13533Y7447D02*
X13534Y7446D01*
X13523Y7438D02*
X13527Y7433D01*
X13504Y7401D02*
X13495Y7410D01*
X13532Y7665D02*
X13523Y7674D01*
X13495Y7646D02*
X13504Y7637D01*
X13493Y7665D02*
X13483Y7674D01*
X13455Y7646D02*
X13465Y7637D01*
X13504Y7676D02*
X13497Y7683D01*
X13483Y7556D02*
X13493Y7547D01*
X13465Y7519D02*
X13455Y7528D01*
X13483Y7477D02*
X13493Y7468D01*
X13465Y7440D02*
X13455Y7449D01*
X13523Y7477D02*
X13532Y7468D01*
X13504Y7440D02*
X13495Y7449D01*
X13532Y7507D02*
X13523Y7517D01*
X13495Y7489D02*
X13504Y7479D01*
X13532Y7547D02*
X13523Y7556D01*
X13495Y7528D02*
X13504Y7519D01*
X13493Y7586D02*
X13483Y7596D01*
X13455Y7568D02*
X13465Y7558D01*
X13493Y7626D02*
X13483Y7635D01*
X13455Y7607D02*
X13465Y7598D01*
X13534Y7489D02*
X13543Y7479D01*
Y7519D02*
X13534Y7528D01*
X13543Y7558D02*
X13534Y7568D01*
X13532Y7626D02*
X13523Y7635D01*
X13495Y7607D02*
X13504Y7598D01*
X13534Y7607D02*
X13543Y7598D01*
X13532Y7586D02*
X13523Y7596D01*
X13495Y7568D02*
X13504Y7558D01*
X13483Y7399D02*
X13493Y7389D01*
X13465Y7361D02*
X13455Y7371D01*
X13523Y7281D02*
X13532Y7271D01*
X13504Y7243D02*
X13495Y7253D01*
X13483Y7202D02*
X13493Y7192D01*
X13465Y7165D02*
X13455Y7174D01*
X13541Y7274D02*
X13534Y7281D01*
X13532Y7283D01*
X13502Y7313D01*
X13545Y7663D02*
X13534Y7674D01*
X13532Y7676D01*
X13532Y7676D01*
X13527Y7681D01*
X13523Y7676D01*
X13532Y7438D02*
X13527Y7433D01*
D15*
X6222Y9494D02*
Y9730D01*
X6340D01*
X6379Y9691D01*
Y9612D01*
X6340Y9573D01*
X6222D01*
X6497Y9730D02*
X6576D01*
X6497D02*
X6458Y9691D01*
Y9534D01*
X6497Y9494D01*
X6576D01*
X6616Y9534D01*
Y9691D01*
X6576Y9730D01*
X6694D02*
Y9494D01*
X6773Y9573D01*
X6852Y9494D01*
Y9730D01*
X6930D02*
X7088D01*
X6930D02*
Y9494D01*
X7088D01*
X7009Y9612D02*
X6930D01*
X7167Y9730D02*
Y9494D01*
Y9730D02*
X7285D01*
X7324Y9691D01*
Y9612D01*
X7285Y9573D01*
X7167D01*
X7245D02*
X7324Y9494D01*
X7403D02*
Y9730D01*
Y9494D02*
X7560D01*
X7639D02*
Y9652D01*
X7718Y9730D01*
X7796Y9652D01*
Y9494D01*
Y9612D01*
X7639D01*
X7875Y9691D02*
Y9730D01*
Y9691D02*
X7954Y9612D01*
X8032Y9691D01*
Y9730D01*
X7954Y9612D02*
Y9494D01*
X8111Y9730D02*
X8269D01*
X8111D02*
Y9494D01*
X8269D01*
X8190Y9612D02*
X8111D01*
X8347Y9730D02*
Y9494D01*
Y9730D02*
X8465D01*
X8505Y9691D01*
Y9612D01*
X8465Y9573D01*
X8347D01*
X8426D02*
X8505Y9494D01*
X8583D02*
X8741D01*
X8583D02*
X8741Y9652D01*
Y9691D01*
X8701Y9730D01*
X8623D01*
X8583Y9691D01*
X9056Y9612D02*
X9213D01*
X9292Y9730D02*
X9449D01*
X9292D02*
Y9612D01*
X9371Y9652D01*
X9410D01*
X9449Y9612D01*
Y9534D01*
X9410Y9494D01*
X9331D01*
X9292Y9534D01*
X9528Y9573D02*
Y9730D01*
Y9573D02*
X9607Y9494D01*
X9685Y9573D01*
Y9730D01*
X10118Y9534D02*
X10158Y9494D01*
X10118Y9534D02*
X10079Y9494D01*
X10040D01*
X10000Y9534D01*
Y9573D01*
X10040Y9612D01*
X10000Y9652D01*
Y9691D01*
X10040Y9730D01*
X10079D01*
X10118Y9691D01*
Y9652D01*
X10119D01*
X10118D02*
X10079Y9612D01*
X10118Y9573D01*
Y9534D01*
Y9573D02*
X10158Y9612D01*
X10079D02*
X10040D01*
X10473Y9494D02*
X10630D01*
X10473D02*
X10630Y9652D01*
Y9691D01*
X10591Y9730D01*
X10512D01*
X10473Y9691D01*
X10709Y9534D02*
Y9494D01*
Y9534D02*
X10748D01*
Y9494D01*
X10709D01*
X10906Y9730D02*
X11063D01*
X10906D02*
Y9612D01*
X10984Y9652D01*
X11024D01*
X11063Y9612D01*
Y9534D01*
X11024Y9494D01*
X10945D01*
X10906Y9534D01*
X11142Y9573D02*
Y9730D01*
Y9573D02*
X11220Y9494D01*
X11299Y9573D01*
Y9730D01*
X11614D02*
Y9573D01*
X11693Y9494D01*
X11771Y9573D01*
Y9730D01*
X11968D02*
X12008Y9691D01*
X11968Y9730D02*
X11889D01*
X11850Y9691D01*
Y9534D01*
X11889Y9494D01*
X11968D01*
X12008Y9534D01*
X12204Y9730D02*
X12244Y9691D01*
X12204Y9730D02*
X12126D01*
X12086Y9691D01*
Y9534D01*
X12126Y9494D01*
X12204D01*
X12244Y9534D01*
X12322Y9494D02*
Y9652D01*
X12401Y9730D01*
X12480Y9652D01*
Y9494D01*
Y9612D01*
X12322D01*
X12559Y9534D02*
Y9730D01*
Y9534D02*
X12598Y9494D01*
X12677D01*
X12716Y9534D01*
Y9730D01*
X12795D02*
X12952Y9494D01*
X12795D02*
X12952Y9730D01*
X13385Y9534D02*
X13424Y9494D01*
X13385Y9534D02*
X13346Y9494D01*
X13306D01*
X13267Y9534D01*
Y9573D01*
X13306Y9612D01*
X13267Y9652D01*
Y9691D01*
X13306Y9730D01*
X13346D01*
X13385Y9691D01*
Y9652D01*
X13386D01*
X13385D02*
X13346Y9612D01*
X13385Y9573D01*
Y9534D01*
Y9573D02*
X13424Y9612D01*
X13346D02*
X13306D01*
X13739Y9573D02*
Y9730D01*
Y9573D02*
X13818Y9494D01*
X13897Y9573D01*
Y9730D01*
X14093D02*
X14133Y9691D01*
X14093Y9730D02*
X14015D01*
X13975Y9691D01*
Y9534D01*
X14015Y9494D01*
X14093D01*
X14133Y9534D01*
X14330Y9730D02*
X14369Y9691D01*
X14330Y9730D02*
X14251D01*
X14212Y9691D01*
Y9534D01*
X14251Y9494D01*
X14330D01*
X14369Y9534D01*
X14448Y9494D02*
Y9730D01*
X14526Y9652D01*
X14605Y9730D01*
Y9494D01*
X14841Y9691D02*
X14802Y9730D01*
X14723D01*
X14684Y9691D01*
Y9534D01*
X14723Y9494D01*
X14802D01*
X14841Y9534D01*
Y9612D01*
X14763D01*
X14920Y9730D02*
X15077D01*
X14999D01*
Y9494D01*
D18*
X10958Y7971D02*
X10494Y7506D01*
X13159Y8030D02*
X13281Y7908D01*
X13395Y6270D02*
X13620Y6045D01*
X13253Y8270D02*
X12883Y8640D01*
X10494Y6392D02*
X10769Y6116D01*
X8750Y8640D02*
X6639Y6518D01*
X14041Y8270D02*
X14309Y8002D01*
X11582Y6117D02*
X10907D01*
X10907Y6116D02*
X10769D01*
X6639Y6518D02*
X4860D01*
X13281Y7908D02*
X13568D01*
X14395Y7915D02*
X14781D01*
X11234Y7971D02*
X10958D01*
X13253Y8270D02*
X14041D01*
X12883Y8640D02*
X8750D01*
X10494Y7506D02*
Y6392D01*
X11582Y6168D02*
Y6117D01*
X13159Y8030D02*
Y8081D01*
X13395Y6656D02*
Y6270D01*
X13620Y6045D02*
X13690Y6116D01*
X13655Y7821D02*
X13568Y7908D01*
X13655Y7821D02*
Y7207D01*
X13690Y7171D02*
Y6116D01*
Y7171D02*
X13655Y7207D01*
X14395Y7915D02*
X14309Y8002D01*
X14781Y7915D02*
X14820Y7876D01*
D03*
X14309Y8002D02*
D03*
X13620Y6045D02*
D03*
X13316Y7695D02*
D03*
X13395Y6656D02*
D03*
X13316Y6868D02*
D03*
X13198Y7656D02*
D03*
X13080Y7616D02*
D03*
Y7380D02*
D03*
X13159Y7223D02*
D03*
Y8081D02*
D03*
X13238Y7065D02*
D03*
X13120Y7026D02*
D03*
Y6766D02*
D03*
X13041Y6986D02*
D03*
X13002Y7301D02*
D03*
X12923Y7695D02*
D03*
Y7419D02*
D03*
X12805Y7656D02*
D03*
X12844Y7915D02*
D03*
X12805Y6766D02*
D03*
X12568Y7616D02*
D03*
Y6947D02*
D03*
X12466Y7026D02*
D03*
X11800Y6545D02*
D03*
X11532Y6435D02*
D03*
X11582Y6168D02*
D03*
Y6117D02*
D03*
X11234Y7971D02*
D03*
X11056Y6435D02*
D03*
X10907Y6117D02*
D03*
X10612Y6435D02*
D03*
X4860Y6518D02*
D03*
D83*
X11797Y6549D02*
X11809D01*
Y6550D01*
X11797D01*
Y6549D01*
D89*
X11533Y6435D02*
X11533D01*
Y6435D01*
X11533D01*
Y6435D01*
X11056D02*
X11057D01*
Y6435D01*
X11056D01*
Y6435D01*
X10612D02*
X10612D01*
Y6435D01*
X10612D01*
Y6435D01*
D02*
M02*
