M71
M48
T1F00S00C0.012
T2F00S00C0.020
T3F00S00C0.032
T4F00S00C0.040
T5F00S00C0.055
T6F00S00C0.060
T7F00S00C0.080
T8F00S00C0.085
T9F00S00C0.150
%
T01
X12071Y01598
X12417Y01791
Y02449
X12213Y0261
X12071Y0226
X11906Y0224
X11984Y02417
X11811Y02413
X11728Y02602
X11469Y02496
X11173Y02476
X11154Y02583
X11035
X11047Y02476
X10917Y02465
X10878
Y02504
Y02543
Y02583
Y02622
X10917
Y02583
Y02504
X10839Y02504
Y02465
Y02425
X10878
Y02386
X10839Y02366
X10799Y02425
X1076
X1072
Y02465
X10681Y02465
Y02504
Y02543
X1072Y02543
X1076
X10799
X10839
X10839Y02583
Y02622
X10799Y02622
Y02583
Y02504
Y02465
X1076
Y02504
Y02622
X1072Y02622
X1072Y02583
X10681Y02622
X10642Y02622
X10642Y02583
X10602Y02583
Y02543
X10642
Y02504
Y02465
X10642Y02425
X10602Y02504
X10563
X10524
X10484
Y02543
X10524Y02543
Y02583
Y02622
X10563Y02583
X10445
Y02543
X10484Y02425
X10524Y02465
X10524Y02323
Y0226
X10681
Y02323
X10799Y02213
X10839Y02228
X10933
X10992
X10925Y0213
X10839Y02067
X105Y02059
X10472
X10445
X10933Y02354
X11142Y02378
X11063Y0174
X11024Y01673
Y01602
X10957Y01559
X11114Y01563
X11295
X11335Y01606
X11346Y0174
X11469Y01835
X11811Y01756
X11961
X11906Y01583
X11205Y01657
X10827Y01646
X10323
X10303Y01665
X10323Y01685
X10303Y01705
X10205Y01744
X10224Y01764
Y01803
X10205Y01783
X10248Y01827
X10268Y01882
X10287Y01902
X10307Y01921
X10327Y01941
X10346Y01961
X10366Y0198
X10386Y02
X10406Y0202
X10386Y0185
X10319
X10059Y01862
X10039Y01843
Y01882
X10059Y01902
X10039Y01921
Y01961
X10059Y01941
Y0198
Y0202
X10079Y02
Y02039
X10059Y02059
Y01823
X10039Y01803
X1002Y01783
X1Y01764
X0998Y01744
X09961Y01724
X09941Y01705
X09921Y01685
X1002Y01665
X1Y01646
X0998Y01626
X09961Y01606
X09941Y01587
X09921Y01567
X10205
X10224Y01587
X10205Y01606
X10224Y01626
X10209Y0226
Y02323
Y02425
Y02465
Y02504
X10248
X10287
Y02543
X10248
Y02583
X10209
Y02543
X10169
Y02583
Y02622
X1013Y02622
X10091
Y02583
Y02543
X1013
X1013Y02583
X1013Y02504
X10169
Y02465
X1013Y02465
X10091
X10091Y02425
X1013
X10169
X10248
Y02465
X10287Y02465
X10327
X10327Y02504
X10366
Y02543
X10366Y02583
X10406Y02583
Y02622
X10366Y02622
X10327
Y02583
X10287
X10248Y02622
X10209Y02622
X10051Y02622
Y02583
X10012Y02583
X09972Y02583
Y02622
X09972Y02543
X09972Y02504
X09972Y02465
X10012
X10051Y02465
Y02504
X10091
X10091Y02323
Y02291
X09906Y02343
X09933Y02465
X0987
X09807
Y02583
X0987
X0978Y02315
X09398
X09366Y02157
X09504
X09204Y02102
X09227Y02073
X09236Y01929
X09256Y01909
X09276Y0189
X09315Y01913
X092Y01882
X09209Y0172
X09244Y01709
X09323Y01685
X09319Y0176
X09209Y01622
X09089Y01587
Y0167
X08986Y01674
Y01725
X09087Y01783
X09039Y01839
X08936Y01992
X09079Y02457
Y02528
X10366Y02465
X10366Y02323
Y0226
X08789Y02509
X08591Y02547
X08512
X08373Y02534
X08146Y02606
X08197Y02047
X08016
Y01992
X08106Y01839
X08264Y01839
X08433Y0184
X0846Y01992
X08311Y01674
X08321Y01606
X08764Y01728
X08862Y0176
X07496Y0187
X07028Y0187
X07
X06917Y01843
X06886Y01843
X06854Y01843
X06823
X06791
X0676
X06728
X06697
X06705Y0198
X0674
X06772
X06803
X06831Y02047
X06823Y02161
X06724Y0211
X06594Y02138
Y02185
X06508Y02307
X06437
X06746Y02475
X07051Y02417
Y02343
X07094Y02114
Y02083
Y02051
X07094Y0202
X07094Y01988
X06575Y01783
X0263Y02575
X02618Y02524
X02559Y02425
X02386Y02319
Y02181
X02264Y02075
X02075Y02039
X0219Y02425
X02189Y02969
X02232Y03224
X02378
X0244Y03275
X02585Y03485
Y0292
X02435Y02823
X027Y02875
X02748Y02772
X02685Y02669
X02693Y03128
X027Y0344
X02961Y03024
X04028Y03173
Y03224
Y03319
X04047Y03343
X06465Y02878
X06583
X06543Y02748
X06504
X06622Y02736
X06661
X06701
X0674Y02736
X06819Y02736
X06858
X06898
X06937
X06976Y02736
X07016Y02736
X07094
X07134Y02736
X07173Y02736
X07213
X07252
X07291
X07055Y02878
X0678
X07331
X0737Y02736
X07409
X07449
X07488Y02736
X07528Y02736
X07567
X07606Y02878
X08189Y02803
X08306Y02731
X08409Y02638
X08512Y02681
X08539
X08488Y02815
X08496Y02874
X085Y03024
X08591
X08539Y03157
X08512
X08488Y03292
X08488Y03339
X08406Y03094
X08373Y02992
X08146Y03063
X08783Y02982
X08839Y03134
Y02661
X08709Y03528
X08638
Y03724
X08673Y03902
Y03972
X08799Y03976
X08839
Y04016
X08839Y04055
X08799
X08839Y03937
X08839Y03898
Y03858
X08799
Y03898
Y03819
X08487Y03817
X08339Y03858
X08205Y03839
X08098Y03933
X07917
Y03878
X08008Y03724
X08878Y0378
X08957Y0378
X08996Y0374
X09035
X09075Y0378
X09154Y0374
X09193
X09311Y0378
X0935Y0374
X0939
Y0378
Y03819
X0935Y03858
X09311
Y03898
X09272
Y03937
X09232
Y03976
X09272Y04016
X09311
Y03976
X0935Y03976
Y04016
Y04055
Y04094
X09311
X0935Y04134
X09272Y04055
X09232Y04055
X09193Y04094
X09154Y04055
X09193Y04016
Y03937
Y03898
X09114
Y03937
Y04016
X09075
X08996
X08957
X08917
X08878
X08917Y03976
Y03937
X08957
X08917Y03898
X08917Y03858
X08878Y03937
X09035
X09075Y03898
X08996
Y04055
X08957Y04094
X08917Y04055
X09114Y04134
X09272Y03858
X0935Y03937
X0939
X09469Y04004
X09543Y04012
Y03972
X09583
X09622
Y03933
Y03894
X09583
Y03854
Y03815
X09661Y03854
Y03933
Y03972
Y04012
Y04012
Y04051
X09622
Y04012
Y04091
X09543Y04051
X09701Y04012
X0974Y04012
X09819
X09858
Y03933
Y03894
X09819
X0978Y03933
X0974Y03894
X09701Y03933
Y03776
X0974
X0978
X09819
X09937
X09976
X10055
X10094
X10134
Y03815
Y03854
Y03894
X10094
Y03933
X10055
Y03972
X10094
X10094Y04012
X10134
Y03972
Y04051
X10134Y04091
Y0413
X10094
X10055
X10016Y04091
X09976Y04051
X10016Y04012
Y03972
X09976
Y03933
X09937
Y03894
Y04012
X09937Y0413
X09858
X09898Y04091
X0978Y04051
X0974Y04091
X09622Y03736
X0948Y0387
X10016Y03854
X10256Y03894
Y03972
X10248Y03516
Y03472
X10287Y0337
Y03331
Y03291
Y03252
X10327
Y03213
Y03173
X10287
Y03134
Y03094
X10327Y03094
Y03134
X10406Y03094
X10366Y03055
Y03016
X10327Y03016
Y02976
X10366
Y02937
X10327
X10406
Y02898
Y02858
X10327
X10366Y02819
Y02701
X10327
X10287
Y0274
Y02661
X10169
X1013
X10091
X10051
Y02701
X10091
X1013
X10169
X10169Y0274
X1013
X10091
X10051
Y0278
X10091
X10091Y02819
Y02858
X1013
Y02898
X10169
Y02937
X1013
Y02976
Y03016
X10169
X10169Y02976
X10209Y02937
X10248
X10287Y02976
Y03016
Y03213
X10248
X10209
X10169
X1013
X10091
Y03173
Y03134
Y03094
Y03055
X10051
X10012
Y03016
X10051
Y02937
X10091
X10051Y02898
Y02858
X10012
Y02898
Y02976
X09972
Y03016
Y03055
Y03094
X10012
X10051
Y03134
X10012
Y03173
X10051
Y03213
X10012
Y03252
X10051
Y03291
Y03331
X10091Y03331
Y0337
X10169
Y03331
X10209
Y03291
X10169
Y03252
X1013Y03252
Y03291
X10094Y03291
X10091Y03252
X1013Y03331
X10248
Y03291
Y03252
Y03173
X10209
X10169
X1013
Y03134
X10169Y03094
X09972Y03134
Y03173
Y03213
X09933
X09972Y03252
Y03291
X10012
Y03331
Y0337
X09972
Y03331
X09988Y03437
X10051
X0987Y03413
X09807
Y03291
X0987
Y03173
X09807
Y03055
X0987
X09933Y02976
X10012Y0278
Y02661
X09972
Y02701
X09933
X0987
X09807
X1013Y0278
Y02819
X10169Y02819
X10169Y02858
X10248
X10209Y02819
X10209Y0278
X10248
X10169
X10366Y03252
X10406
Y03291
Y03331
X10366
Y0337
X10327Y03331
X10366Y03291
X10406Y03472
Y03535
X09382Y02866
X09075Y02933
Y03
X10445Y02937
X10484
Y02858
X10524Y02858
Y02819
X10484
Y0278
Y0274
X10563
X10602
Y0278
X10563
Y02819
Y02898
X10602Y02937
Y02976
X10563
Y03016
X10642
X10681
X1072
Y03055
X1076
X10799Y03016
Y02976
X10839Y02976
Y02937
X10878
X10917Y02976
Y03016
X10878
X10839
Y03055
Y03094
X10878
X10917
X10957Y03094
Y03055
X10917
Y03134
X10878
X10878Y03173
X10917
Y03213
X10878
X10839
X10799
X1076
Y03173
X10799
Y03134
X10839Y03134
Y03252
Y03291
X10799
Y03252
X1076
X1072
X10681
Y03291
X1072Y03291
X1076
Y03331
X10799
X10839
X10839Y0337
X10878
X10917
Y03331
Y03291
X10878
X10917Y03252
X10957Y03173
Y03134
X11087Y03185
X11059Y03445
X11122
X11189Y03413
X11236Y03366
X11154Y03539
X10878Y03587
X10839Y03492
X1072
X10602
Y0337
X10642
X10681
Y03331
X1072
Y0337
X1076
Y03409
X10642Y03331
Y03291
Y03252
Y03213
X10681
X1072
X1072Y03173
X10681
X1072Y03134
X10602
Y03173
Y03213
Y03252
Y03291
Y03331
X10563Y03331
X10563Y03291
X10563Y03252
Y03213
Y03173
X10524Y03173
X10484
Y03134
X10524
Y03094
Y03055
X10563Y03094
X10602Y03055
X10642Y02937
X10681
X1072
X1076Y02898
Y02819
X10799Y0278
X10839Y02858
X10917Y02819
X10878Y0274
X10917Y02701
X10957
Y02661
X10988
X10839
X1076
X10681
Y02701
X10642Y02661
X10602Y02661
X10563
X10524
Y02701
X10563Y02701
X10642Y02858
X10445
Y02898
Y03213
X10484
X10524
X10524Y03252
X10484
X10445
X10445Y03291
X10445Y03331
X10484Y03331
Y0337
X10563
Y03638
X10602Y03618
X10681Y03646
X1072Y03618
X10799Y03646
X10823Y04063
X10709Y0415
X10551Y03972
X11083Y03929
X11059Y04063
X11181Y0411
X11579Y04004
X11693Y04079
X11858
X11787Y03909
X11953Y03925
X11839Y03768
X11713Y03705
Y03634
Y03606
Y03559
X11846Y03508
X11878Y03441
X1198Y03606
X11957Y03657
X11539Y03677
X11583Y03815
X11469Y03299
X11315Y03106
Y02976
X11488Y02898
X11457Y02831
X11472Y02803
X11457Y0276
Y02705
X11472Y02681
X11732Y02689
Y0274
X11795Y0289
X11807Y03106
X11811Y0322
X11953
X11906Y03051
X11937Y02681
X11913Y02642
X11122Y02846
X1203Y0289
X12071Y03063
X1241Y0296
Y0267
X12213Y02689
X12224Y03433
X12303
X12398Y03594
Y03717
Y0378
X12512Y03819
X12075Y03882
X12
X12024Y03965
X1222Y04031
X12417Y03256
T02
X06348Y02902
X07722Y02902
T03
X06646Y02365
X06846
X01747Y02457
Y02557
Y02657
Y02757
Y02857
Y02957
Y03057
Y03157
Y03257
Y03357
X01647Y03407
Y03307
Y03207
Y03107
Y03007
Y02907
Y02807
Y02707
Y02607
Y02507
X12445Y03547
Y03843
X12472Y03972
X12669
X12571Y03736
Y04209
T04
X12788Y01844
Y01944
X09061Y02118
X08961
X08861
X08761
X08661
X08561
X08461
X07776Y02157
X07618
X07539Y02236
X07697
X11535Y03508
X12788Y03362
Y03262
Y02653
Y02553
X126Y02725
X12788Y03971
Y04071
T05
X12988Y01844
T06
X12889Y01745
Y01943
X13087
Y01745
T07
X01675Y02401
T08
X12988Y01644
Y02044
Y02353
Y02753
Y03062
Y03462
Y03771
Y04171
T09
X11362Y02199
X07268
X04846
X01697
Y03616
X04846
X07268
X11362
M30
