*
G04 Mass Parameters ***
*
G04 Image ***
*
%INF:\PT8619\PCB\PT8619_REMOTE-2.SMT*%
%ICAS*%
%MOIN*%
%IPPOS*%
%ASAXBY*%
G74*%FSLAN2X34Y34*%
*
G04 Aperture Definitions ***
*
%ADD10R,0.0600X0.0780*%
%ADD11R,0.0980X0.0630*%
%ADD12R,0.0630X0.0980*%
%ADD13C,0.0620*%
%ADD14C,0.2360*%
%ADD15C,0.0700*%
%ADD16R,0.0700X0.0700*%
%ADD17C,0.0800*%
%ADD18C,0.1000*%
%ADD19C,0.0550*%
%ADD20R,0.0780X0.0600*%
%ADD21C,0.0580*%
%ADD22R,0.0580X0.0580*%
%ADD23C,0.0620*%
%ADD24C,0.2360*%
%ADD25R,0.0453X0.0147*%
%ADD26R,0.0147X0.0453*%
%ADD27C,0.0700*%
%ADD28R,0.0700X0.0700*%
%ADD29C,0.0800*%
%ADD30C,0.1000*%
%ADD31C,0.0550*%
%ADD32C,0.0580*%
%ADD33R,0.0580X0.0580*%
%ADD34C,0.0720*%
%ADD35C,0.0800*%
%ADD36C,0.1060*%
%ADD37C,0.0750*%
%ADD38C,0.0700*%
%ADD39C,0.0780*%
%ADD40R,0.0780X0.0780*%
%ADD41C,0.0079*%
%ADD42R,0.0620X0.0800*%
%ADD43R,0.1000X0.0650*%
%ADD44R,0.0650X0.1000*%
%ADD45C,0.0640*%
%ADD46C,0.2380*%
%ADD47C,0.0720*%
%ADD48R,0.0720X0.0720*%
%ADD49C,0.0820*%
%ADD50C,0.1050*%
%ADD51C,0.0670*%
%ADD52C,0.0550*%
%ADD53R,0.0800X0.0620*%
%ADD54C,0.0580*%
%ADD55R,0.0580X0.0580*%
*
G04 Plot Data ***
*
G54D42*
X0029025Y0007176D03*
X0030025D03*
X0049118Y0006192D03*
X0048118D03*
X0036898Y0006208D03*
X0037898D03*
X0021077Y0006299D03*
X0020077D03*
X0021274Y0003346D03*
X0020274D03*
X0021077Y0007873D03*
X0020077D03*
X0020061Y0009448D03*
X0021061D03*
X0118387Y0007586D03*
X0119387D03*
X0055885Y0007480D03*
X0056885D03*
X0054539Y0009448D03*
X0053539D03*
X0055885Y0010432D03*
X0056885D03*
X0055885Y0006299D03*
X0056885D03*
X0088197Y0003543D03*
X0087197D03*
X0088394Y0010432D03*
X0087394D03*
X0043681Y0008267D03*
X0044681D03*
X0044697Y0009448D03*
X0043697D03*
X0043681Y0010629D03*
X0044681D03*
X0043681Y0007283D03*
X0044681D03*
X0118478Y0004724D03*
X0119478D03*
X0071147Y0004830D03*
X0072147D03*
X0071147Y0009948D03*
X0072147D03*
X0034233Y0011416D03*
X0035233D03*
X0034233Y0000787D03*
X0035233D03*
X0064668Y0000681D03*
X0063668D03*
X0029722Y0010038D03*
X0028722D03*
X0029919Y0002362D03*
X0028919D03*
X0056082Y0004921D03*
X0057082D03*
X0080883Y0007676D03*
X0081883D03*
X0080883Y0004921D03*
X0081883D03*
X0110963Y0008200D03*
X0109963D03*
X0088197Y0004724D03*
X0087197D03*
X0088378Y0011810D03*
X0087378D03*
X0069285Y0010235D03*
X0068285D03*
X0110963Y0009381D03*
X0109963D03*
X0078159Y0008070D03*
X0077159D03*
G54D43*
X0056190Y0012111D03*
X0057580D03*
X0021258Y0011416D03*
X0019868D03*
G54D44*
X0046846Y0007676D03*
Y0009066D03*
G54D45*
X0018321Y0004830D03*
X0017321Y0005330D03*
X0018321Y0005830D03*
X0017321Y0006330D03*
X0018321Y0006830D03*
X0017321Y0004330D03*
Y0007330D03*
X0018321Y0007830D03*
X0017321Y0008330D03*
X0018321Y0008830D03*
X0023226Y0004724D03*
X0026226D03*
X0026179Y0003543D03*
X0023179D03*
X0089559Y0008857D03*
Y0011857D03*
X0090937Y0008857D03*
Y0011857D03*
X0089559Y0006495D03*
Y0003495D03*
X0090937Y0003543D03*
Y0006543D03*
X0026179Y0007086D03*
X0023179D03*
X0023226Y0005905D03*
X0026226D03*
X0027557Y0000984D03*
X0024557D03*
X0024604Y0002165D03*
X0027604D03*
X0023152Y0002090D03*
X0020152D03*
Y0000909D03*
X0023152D03*
X0118378Y0008807D03*
X0119378D03*
X0052358Y0006102D03*
Y0003102D03*
X0053539Y0006102D03*
Y0003102D03*
X0040154Y0006102D03*
Y0003102D03*
X0041335Y0006102D03*
Y0003102D03*
X0118378Y0003598D03*
X0119378D03*
X0071059D03*
X0072059D03*
X0071059Y0008807D03*
X0072059D03*
X0027835D03*
X0028835D03*
X0027858Y0003598D03*
X0028858D03*
X0056024D03*
X0057024D03*
X0056024Y0008799D03*
X0057024D03*
X0080898Y0008807D03*
X0081898D03*
X0080898Y0003598D03*
X0081898D03*
G54D46*
X0121260Y0011811D03*
Y0001378D03*
X0084642Y0011811D03*
Y0001378D03*
X0046850Y0011811D03*
Y0001378D03*
X0001968Y0011811D03*
Y0001378D03*
G54D47*
X0110858Y0005098D03*
Y0002098D03*
X0106858Y0005098D03*
Y0002098D03*
X0035279Y0010307D03*
Y0007307D03*
X0031279Y0010307D03*
Y0007307D03*
X0035279Y0005098D03*
Y0002098D03*
X0031279Y0005098D03*
Y0002098D03*
X0063716Y0005098D03*
Y0002098D03*
X0059716Y0005098D03*
Y0002098D03*
X0063716Y0010307D03*
Y0007307D03*
X0059716Y0010307D03*
Y0007307D03*
X0010889Y0004968D03*
Y0001968D03*
X0006889Y0004968D03*
Y0001968D03*
X0107192Y0011546D03*
X0108192Y0010546D03*
X0107192Y0007546D03*
X0108192D03*
Y0008546D03*
X0107192D03*
Y0009546D03*
X0108192D03*
X0107192Y0010546D03*
G54D48*
X0108192Y0011546D03*
G54D49*
X0018041Y0003770D03*
G54D50*
X0027950Y0011613D03*
X0026450D03*
X0024950D03*
X0023450D03*
G54D51*
X0052161Y0007480D03*
Y0009480D03*
Y0012480D03*
X0049161Y0007480D03*
Y0009480D03*
Y0012480D03*
X0039957Y0007480D03*
Y0009480D03*
Y0012480D03*
X0036957Y0007480D03*
Y0009480D03*
Y0012480D03*
X0098023Y0003543D03*
Y0009443D03*
X0097039Y0000787D03*
X0098039D03*
G54D52*
X0023620Y0009842D03*
X0023120Y0009342D03*
X0023620Y0008842D03*
X0053539Y0012007D03*
X0054039Y0011507D03*
X0054539Y0012007D03*
X0053539Y0007676D03*
X0054039Y0007176D03*
X0054539Y0007676D03*
X0041335Y0012007D03*
X0041835Y0011507D03*
X0042335Y0012007D03*
X0041335Y0007676D03*
X0041835Y0007176D03*
X0042335Y0007676D03*
G54D53*
X0025588Y0008645D03*
Y0009645D03*
X0074887Y0002271D03*
Y0001271D03*
X0073706Y0002271D03*
Y0001271D03*
X0112195Y0002968D03*
Y0001968D03*
X0063774Y0012416D03*
Y0011416D03*
X0058156Y0007964D03*
Y0008964D03*
X0012204Y0002968D03*
Y0001968D03*
X0073616Y0008645D03*
Y0009645D03*
X0109963Y0010546D03*
Y0011546D03*
X0075978Y0008645D03*
Y0009645D03*
X0074797Y0008645D03*
Y0009645D03*
G54D54*
X0066136Y0007857D03*
Y0006857D03*
Y0005857D03*
Y0004857D03*
Y0003857D03*
Y0002857D03*
X0069136D03*
Y0003857D03*
Y0004857D03*
Y0005857D03*
Y0006857D03*
Y0007857D03*
Y0008857D03*
G54D55*
X0066136D03*
M02*
