*
G04 Mass Parameters ***
*
G04 Image ***
*
%INF:\PT8619\PCB\PT8619_REMOTE-2.PWR*%
%ICAS*%
%MOIN*%
%IPPOS*%
%ASAXBY*%
G74*%FSLAN2X34Y34*%
*
G04 Aperture Definitions ***
*
%ADD10R,0.0600X0.0780*%
%ADD11R,0.0980X0.0630*%
%ADD12R,0.0630X0.0980*%
%ADD13C,0.0620*%
%ADD14C,0.2360*%
%ADD15C,0.0700*%
%ADD16R,0.0700X0.0700*%
%ADD17C,0.0800*%
%ADD18C,0.1000*%
%ADD19C,0.0550*%
%ADD20R,0.0780X0.0600*%
%ADD21C,0.0580*%
%ADD22R,0.0580X0.0580*%
%ADD23C,0.0620*%
%ADD24C,0.2360*%
%ADD25R,0.0453X0.0147*%
%ADD26R,0.0147X0.0453*%
%ADD27C,0.0700*%
%ADD28R,0.0700X0.0700*%
%ADD29C,0.0800*%
%ADD30C,0.1000*%
%ADD31C,0.0550*%
%ADD32C,0.0580*%
%ADD33R,0.0580X0.0580*%
%ADD34C,0.0720*%
%ADD35C,0.0800*%
%ADD36C,0.1060*%
%ADD37C,0.0750*%
%ADD38C,0.0700*%
%ADD39C,0.0780*%
%ADD40R,0.0780X0.0780*%
%ADD41C,0.0079*%
*
G04 Plot Data ***
*
G54D41*
G01X0123611D01*
Y0013188D01*
X0000000D01*
Y0000000D01*
G54D34*
X0023226Y0004724D03*
X0026226D03*
X0026179Y0003543D03*
X0023179D03*
X0089559Y0008857D03*
Y0011857D03*
X0090937Y0008857D03*
Y0011857D03*
X0089559Y0006495D03*
Y0003495D03*
X0090937Y0003543D03*
Y0006543D03*
X0026179Y0007086D03*
X0023179D03*
X0023226Y0005905D03*
X0026226D03*
X0027557Y0000984D03*
X0024557D03*
X0024604Y0002165D03*
X0027604D03*
X0023152Y0002090D03*
X0020152D03*
Y0000909D03*
X0023152D03*
X0052358Y0006102D03*
Y0003102D03*
X0053539Y0006102D03*
Y0003102D03*
X0040154Y0006102D03*
Y0003102D03*
X0041335Y0006102D03*
Y0003102D03*
G54D35*
X0097039Y0000787D03*
X0098039D03*
X0108192Y0011546D03*
X0107192D03*
X0108192Y0010546D03*
X0107192Y0007546D03*
X0108192D03*
Y0008546D03*
X0107192D03*
Y0009546D03*
X0108192D03*
X0107192Y0010546D03*
G54D36*
X0027950Y0011613D03*
X0026450D03*
X0024950D03*
X0023450D03*
G54D37*
X0023620Y0009842D03*
X0023120Y0009342D03*
X0023620Y0008842D03*
X0053539Y0012007D03*
X0054039Y0011507D03*
X0054539Y0012007D03*
X0053539Y0007676D03*
X0054039Y0007176D03*
X0054539Y0007676D03*
X0041335Y0012007D03*
X0041835Y0011507D03*
X0042335Y0012007D03*
X0041335Y0007676D03*
X0041835Y0007176D03*
X0042335Y0007676D03*
G54D38*
X0052161Y0007480D03*
Y0009480D03*
Y0012480D03*
X0049161Y0007480D03*
Y0009480D03*
Y0012480D03*
X0039957Y0007480D03*
Y0009480D03*
Y0012480D03*
X0036957Y0007480D03*
Y0009480D03*
Y0012480D03*
G54D39*
X0066136Y0007857D03*
Y0006857D03*
Y0005857D03*
Y0004857D03*
Y0003857D03*
Y0002857D03*
X0069136D03*
Y0003857D03*
Y0004857D03*
Y0005857D03*
Y0006857D03*
Y0007857D03*
Y0008857D03*
G54D40*
X0066136D03*
M02*
