M71
M48
T1F00S00C0.016
T2F00S00C0.020
T3F00S00C0.032
T4F00S00C0.039
T5F00S00C0.063
T6F00S00C0.080
T7F00S00C0.125
%
T01
X07863Y-00455
X07119Y00073
X06195Y-00363
X05844Y-00387
X04912Y-00298
X03993Y-00341
X04018Y-00622
X03477
X03296Y-00155
X03073Y-00275
X02807Y-00377
X02656Y00067
X02706Y00212
Y00412
X02956
X0315Y00353
X03199Y00313
X0253Y00137
X02428Y-00069
X02429Y-00264
X02112Y-00353
X02073Y-00378
X01895Y-00375
X01716Y-00429
X01548Y-00383
X01676Y00136
X01784Y00067
X01834Y00212
X01982Y00007
X02114Y-00046
X02163Y00457
X01669Y00436
X01156Y00434
X01107Y00353
X01054Y00313
X01288Y00262
X01259Y00177
X00956Y00212
X00869Y00259
X00795Y00136
X00695Y00137
X00906Y00067
X00426Y00078
X00292Y-00258
X00929Y-00503
X00695Y00448
Y00611
X00906Y00588
X01348Y00567
X01589Y00572
X03277Y00624
T02
X03403Y-00198
Y00624
T03
X05982Y-00412
X06082
X00216Y-00389
X00116
X00016
X00066Y-00489
X00166
X00266
T04
X07463Y-00152
X07763
Y00248
X07463
X07321Y00198
Y-00102
Y-00294
Y-00594
X06921
Y-00294
Y-00102
X06779Y-00152
X06479
Y00248
X06779
X06921Y00198
X05719Y-00294
Y-00594
X05319
Y-00294
X04499
Y-00594
X04099
Y-00294
X03279
Y-00594
X02879
Y-00294
X02058
Y-00594
X01658
Y-00294
X00841Y-00296
Y-00596
X00441
Y-00296
X06921Y0039
Y0069
X07321
Y0039
T05
X06303Y0
X0
Y00614
X06303
T06
X00322Y-00417
T07
X06413Y-00443
X03732Y-00445
X01251Y-00444
X06413Y00564
M30
