*%FSLAX23Y23*%
*%MOIN*%
G01*
D12*
X8423Y8016D02*
Y8056D01*
X8403D01*
X8397Y8050D01*
Y8036D01*
X8403Y8030D01*
X8423D01*
X8410D02*
X8397Y8016D01*
X8383Y8023D02*
X8377Y8016D01*
X8363D01*
X8357Y8023D01*
Y8050D01*
X8363Y8056D01*
X8377D01*
X8383Y8050D01*
Y8043D01*
X8377Y8036D01*
X8357D01*
X8469Y8170D02*
X8509D01*
X8469D02*
Y8150D01*
X8476Y8144D01*
X8489D01*
X8496Y8150D01*
Y8170D01*
Y8157D02*
X8509Y8144D01*
X8476Y8117D02*
X8469Y8104D01*
X8476Y8117D02*
X8489Y8130D01*
X8503D01*
X8509Y8124D01*
Y8110D01*
X8503Y8104D01*
X8496D01*
X8489Y8110D01*
Y8130D01*
X8527Y8336D02*
Y8376D01*
X8507D01*
X8501Y8370D01*
Y8356D01*
X8507Y8350D01*
X8527D01*
X8514D02*
X8501Y8336D01*
X8487Y8376D02*
X8461D01*
Y8370D01*
X8487Y8343D01*
Y8336D01*
X8417Y8163D02*
X8377D01*
Y8143D01*
X8384Y8137D01*
X8397D01*
X8404Y8143D01*
Y8163D01*
Y8150D02*
X8417Y8137D01*
X8384Y8123D02*
X8377Y8117D01*
Y8103D01*
X8384Y8097D01*
X8391D01*
X8397Y8103D01*
X8404Y8097D01*
X8411D01*
X8417Y8103D01*
Y8117D01*
X8411Y8123D01*
X8404D01*
X8397Y8117D01*
X8391Y8123D01*
X8384D01*
X8397Y8117D02*
Y8103D01*
X9087Y7816D02*
Y7776D01*
Y7816D02*
X9067D01*
X9061Y7810D01*
Y7796D01*
X9067Y7790D01*
X9087D01*
X9074D02*
X9061Y7776D01*
X9047D02*
X9021D01*
X9047D02*
X9021Y7803D01*
Y7810D01*
X9027Y7816D01*
X9041D01*
X9047Y7810D01*
X8032Y7752D02*
Y7712D01*
Y7752D02*
X8012D01*
X8006Y7746D01*
Y7732D01*
X8012Y7726D01*
X8032D01*
X8019D02*
X8006Y7712D01*
X7992D02*
X7979D01*
X7986D01*
Y7752D01*
X7987D01*
X7986D02*
X7992Y7746D01*
X8123Y8004D02*
Y8031D01*
X8129Y8037D01*
X8143D01*
X8149Y8031D01*
Y8004D01*
X8143Y7997D01*
X8129D01*
X8123D02*
X8136Y8011D01*
X8129Y7997D02*
X8123Y8004D01*
X8109Y7997D02*
X8096D01*
X8103D01*
Y8037D01*
X8104D01*
X8103D02*
X8109Y8031D01*
X6456Y8088D02*
Y8128D01*
X6436D01*
X6430Y8122D01*
Y8108D01*
X6436Y8102D01*
X6456D01*
X6443D02*
X6430Y8088D01*
X6416Y8128D02*
X6390D01*
X6416D02*
Y8108D01*
X6403Y8115D01*
X6396D01*
X6390Y8108D01*
Y8095D01*
X6396Y8088D01*
X6410D01*
X6416Y8095D01*
X6212Y8087D02*
Y8127D01*
X6192D01*
X6186Y8121D01*
Y8107D01*
X6192Y8101D01*
X6212D01*
X6199D02*
X6186Y8087D01*
X6172Y8121D02*
X6166Y8127D01*
X6152D01*
X6146Y8121D01*
Y8114D01*
X6147D01*
X6146D02*
X6147D01*
X6146D02*
X6147D01*
X6146D02*
X6152Y8107D01*
X6159D01*
X6152D01*
X6146Y8101D01*
Y8094D01*
X6152Y8087D01*
X6166D01*
X6172Y8094D01*
X8522Y8499D02*
Y8512D01*
Y8506D02*
Y8499D01*
Y8506D02*
X8562D01*
Y8512D01*
Y8499D01*
X8522Y8459D02*
X8529Y8452D01*
X8522Y8459D02*
Y8472D01*
X8529Y8479D01*
X8556D01*
X8562Y8472D01*
Y8459D01*
X8556Y8452D01*
X8562Y8439D02*
Y8412D01*
Y8439D02*
X8536Y8412D01*
X8529D01*
X8522Y8419D01*
Y8432D01*
X8529Y8439D01*
X6442Y7802D02*
Y7762D01*
Y7802D02*
X6422D01*
X6416Y7796D01*
Y7782D01*
X6422Y7776D01*
X6442D01*
X6429D02*
X6416Y7762D01*
X6382D02*
Y7802D01*
X6402Y7782D01*
X6376D01*
X5997Y7826D02*
X5991Y7820D01*
X5997Y7826D02*
X6011D01*
X6017Y7820D01*
Y7793D01*
X6011Y7786D01*
X5997D01*
X5991Y7793D01*
X5977Y7786D02*
X5964D01*
X5971D01*
Y7826D01*
X5972D01*
X5971D02*
X5977Y7820D01*
X6439Y7477D02*
X6459D01*
X6449D01*
Y7427D01*
X6459Y7417D01*
X6469D01*
X6479Y7427D01*
X6419Y7417D02*
X6379D01*
X6419D02*
X6379Y7457D01*
Y7467D01*
X6389Y7477D01*
X6409D01*
X6419Y7467D01*
X9321Y7771D02*
X9334D01*
X9327D01*
Y7738D01*
X9334Y7731D01*
X9341D01*
X9347Y7738D01*
X9307Y7731D02*
X9294D01*
X9301D01*
Y7771D01*
X9302D01*
X9301D02*
X9307Y7765D01*
X7894Y7780D02*
X7854D01*
Y7760D01*
X7861Y7754D01*
X7874D01*
X7881Y7760D01*
Y7780D01*
Y7767D02*
X7894Y7754D01*
Y7740D02*
Y7727D01*
Y7734D01*
X7854D01*
X7855D01*
X7854D02*
X7861Y7740D01*
Y7707D02*
X7854Y7700D01*
Y7687D01*
X7861Y7680D01*
X7888D01*
X7894Y7687D01*
Y7700D01*
X7888Y7707D01*
X7861D01*
X7810Y7751D02*
X7770D01*
Y7731D01*
X7777Y7725D01*
X7790D01*
X7797Y7731D01*
Y7751D01*
Y7738D02*
X7810Y7725D01*
Y7711D02*
Y7698D01*
Y7705D01*
X7770D01*
X7771D01*
X7770D02*
X7777Y7711D01*
X7810Y7678D02*
Y7665D01*
Y7671D01*
X7770D01*
X7771D01*
X7770D02*
X7777Y7678D01*
X7702Y7712D02*
Y7752D01*
X7682D01*
X7676Y7746D01*
Y7732D01*
X7682Y7726D01*
X7702D01*
X7689D02*
X7676Y7712D01*
X7662D02*
X7649D01*
X7656D01*
Y7752D01*
X7657D01*
X7656D02*
X7662Y7746D01*
X7629Y7712D02*
X7602D01*
X7629D02*
X7602Y7739D01*
Y7746D01*
X7609Y7752D01*
X7622D01*
X7629Y7746D01*
X7483Y7739D02*
Y7779D01*
X7463D01*
X7457Y7773D01*
Y7759D01*
X7463Y7753D01*
X7483D01*
X7470D02*
X7457Y7739D01*
X7443D02*
X7430D01*
X7437D01*
Y7779D01*
X7438D01*
X7437D02*
X7443Y7773D01*
X7410D02*
X7403Y7779D01*
X7390D01*
X7383Y7773D01*
Y7766D01*
X7384D01*
X7383D02*
X7384D01*
X7383D02*
X7384D01*
X7383D02*
X7390Y7759D01*
X7397D01*
X7390D01*
X7383Y7753D01*
Y7746D01*
X7390Y7739D01*
X7403D01*
X7410Y7746D01*
X6763Y8242D02*
X6750D01*
X6757D01*
Y8282D01*
X6763D01*
X6750D01*
X6710Y8242D02*
X6703Y8249D01*
X6710Y8242D02*
X6723D01*
X6730Y8249D01*
Y8276D01*
X6723Y8282D01*
X6710D01*
X6703Y8276D01*
X6690Y8249D02*
X6683Y8242D01*
X6670D01*
X6663Y8249D01*
Y8256D01*
X6664D01*
X6663D02*
X6664D01*
X6663D02*
X6664D01*
X6663D02*
X6670Y8262D01*
X6677D01*
X6670D01*
X6663Y8269D01*
Y8276D01*
X6670Y8282D01*
X6683D01*
X6690Y8276D01*
X7674Y8302D02*
X7687D01*
X7681D02*
X7674D01*
X7681D02*
Y8262D01*
X7687D01*
X7674D01*
X7634Y8302D02*
X7627Y8296D01*
X7634Y8302D02*
X7647D01*
X7654Y8296D01*
Y8269D01*
X7647Y8262D01*
X7634D01*
X7627Y8269D01*
X7614Y8262D02*
X7601D01*
X7607D01*
Y8302D01*
X7608D01*
X7607D02*
X7614Y8296D01*
D14*
X8274Y8130D02*
Y8050D01*
X8324D02*
Y8130D01*
Y8050D02*
X8274D01*
Y8130D02*
X8324D01*
X8524Y8250D02*
Y8330D01*
X8474D02*
Y8250D01*
Y8330D02*
X8524D01*
Y8250D02*
X8474D01*
X8374D02*
Y8330D01*
X8424D02*
Y8250D01*
X8374D01*
Y8330D02*
X8424D01*
X8324D02*
Y8250D01*
X8274D02*
Y8330D01*
X8324D01*
Y8250D02*
X8274D01*
X9013Y7904D02*
Y7854D01*
X9093D02*
Y7904D01*
X9013D01*
Y7854D02*
X9093D01*
X8095D02*
Y7804D01*
X8015D02*
Y7854D01*
Y7804D02*
X8095D01*
Y7854D02*
X8015D01*
X6287Y8004D02*
Y8054D01*
X6367D02*
Y8004D01*
Y8054D02*
X6287D01*
Y8004D02*
X6367D01*
X6084D02*
Y8054D01*
X6164D02*
Y8004D01*
Y8054D02*
X6084D01*
Y8004D02*
X6164D01*
X8597Y8259D02*
X8600Y8259D01*
X8604Y8260D01*
X8607Y8262D01*
X8610Y8264D01*
X8612Y8266D01*
X8614Y8269D01*
X8616Y8272D01*
X8617Y8276D01*
X8617Y8279D01*
X8617Y8282D01*
X8616Y8286D01*
X8614Y8289D01*
X8612Y8292D01*
X8610Y8294D01*
X8607Y8296D01*
X8604Y8298D01*
X8600Y8299D01*
X8597Y8299D01*
X9007Y8406D02*
Y8151D01*
X8597D02*
Y8259D01*
Y8299D02*
Y8406D01*
X9007D01*
Y8151D02*
X8597D01*
X6342Y7870D02*
Y7790D01*
X6292D02*
Y7870D01*
X6342D01*
Y7790D02*
X6292D01*
X9598Y7714D02*
Y8620D01*
X9377D02*
Y7714D01*
X9598D01*
Y8620D02*
X9377D01*
X7934Y7920D02*
Y7840D01*
X7884D02*
Y7920D01*
X7934D01*
Y7840D02*
X7884D01*
X7784D02*
Y7920D01*
X7834D02*
Y7840D01*
X7784D01*
Y7920D02*
X7834D01*
X7674D02*
Y7840D01*
X7624D02*
Y7920D01*
X7674D01*
Y7840D02*
X7624D01*
X7424D02*
Y7920D01*
X7474D02*
Y7840D01*
X7424D01*
Y7920D02*
X7474D01*
X6847Y8260D02*
X6850Y8260D01*
X6854Y8261D01*
X6857Y8263D01*
X6860Y8265D01*
X6862Y8267D01*
X6864Y8270D01*
X6866Y8273D01*
X6867Y8277D01*
X6867Y8280D01*
X6867Y8283D01*
X6866Y8287D01*
X6864Y8290D01*
X6862Y8293D01*
X6860Y8295D01*
X6857Y8297D01*
X6854Y8299D01*
X6850Y8300D01*
X6847Y8300D01*
X7257Y8407D02*
Y8152D01*
X6847D02*
Y8260D01*
Y8300D02*
Y8407D01*
X7257D01*
Y8152D02*
X6847D01*
X7725Y8257D02*
X7728Y8257D01*
X7732Y8258D01*
X7735Y8260D01*
X7738Y8262D01*
X7740Y8264D01*
X7742Y8267D01*
X7744Y8270D01*
X7745Y8274D01*
X7745Y8277D01*
X7745Y8280D01*
X7744Y8284D01*
X7742Y8287D01*
X7740Y8290D01*
X7738Y8292D01*
X7735Y8294D01*
X7732Y8296D01*
X7728Y8297D01*
X7725Y8297D01*
X8135Y8404D02*
Y8149D01*
X7725D02*
Y8257D01*
Y8297D02*
Y8404D01*
X8135D01*
Y8149D02*
X7725D01*
D15*
X6155Y7778D02*
X6115D01*
X6135Y7798D02*
Y7758D01*
X6276Y7339D02*
X6296D01*
X6286D02*
X6276D01*
X6286D02*
Y7399D01*
X6287D01*
X6286D02*
X6296Y7389D01*
D16*
X8114Y7948D02*
Y7993D01*
X7999D02*
Y7948D01*
X8094Y7993D02*
X8114D01*
X8059Y7903D02*
X8054D01*
X8019Y7993D02*
X7999D01*
X6221Y7772D02*
X6186Y7735D01*
X6087D02*
X6051Y7772D01*
Y7904D01*
X6221D02*
Y7772D01*
X6186Y7735D02*
X6087D01*
X6051Y7904D02*
X6221D01*
X5967Y7618D02*
Y7416D01*
X6351D02*
Y7618D01*
X5967D01*
Y7416D02*
X6351D01*
D68*
X6134Y7891D02*
D03*
M02*
