*%FSLAX23Y23*%
*%MOIN*%
G01*
D17*
X7311Y8332D02*
D03*
X9061Y8331D02*
D03*
X8189Y8329D02*
D03*
D22*
X8137Y8441D02*
D03*
X8037D02*
D03*
X7937D02*
D03*
X7837D02*
D03*
X7737D02*
D03*
X7637D02*
D03*
X7537D02*
D03*
X7437D02*
D03*
X6732Y8425D02*
D03*
X6632Y8325D02*
D03*
D26*
X6363Y8147D02*
D03*
X6113Y8247D02*
D03*
X6163Y8147D02*
D03*
X6213Y8247D02*
D03*
X6263Y8147D02*
D03*
X6313Y8247D02*
D03*
D28*
X12803Y7660D02*
D03*
Y7360D02*
D03*
X12403Y7660D02*
D03*
Y7360D02*
D03*
X14024Y8325D02*
D03*
Y8025D02*
D03*
X13624Y8325D02*
D03*
Y8025D02*
D03*
X13413Y8542D02*
D03*
Y8242D02*
D03*
X13013Y8542D02*
D03*
Y8242D02*
D03*
Y7809D02*
D03*
Y8109D02*
D03*
X13413Y7809D02*
D03*
Y8109D02*
D03*
X12403Y8025D02*
D03*
Y8325D02*
D03*
X12803Y8025D02*
D03*
Y8325D02*
D03*
X6858Y7660D02*
D03*
Y7460D02*
D03*
Y7360D02*
D03*
X6458D02*
D03*
Y7560D02*
D03*
Y7660D02*
D03*
X8079D02*
D03*
Y7360D02*
D03*
X7679Y7660D02*
D03*
Y7360D02*
D03*
X11740Y7660D02*
D03*
Y7360D02*
D03*
X11340Y7660D02*
D03*
Y7360D02*
D03*
X10520Y7660D02*
D03*
Y7360D02*
D03*
X10120Y7660D02*
D03*
Y7360D02*
D03*
X9299Y7660D02*
D03*
Y7360D02*
D03*
X8899Y7660D02*
D03*
Y7360D02*
D03*
D30*
X6419Y8219D02*
D03*
D35*
X7229Y7510D02*
D03*
X13213D02*
D03*
X12603Y8534D02*
D03*
X9709Y7510D02*
D03*
D37*
X7311Y7957D02*
D03*
X7261D02*
D03*
X7211D02*
D03*
X7161D02*
D03*
X7111D02*
D03*
X7061D02*
D03*
X7011D02*
D03*
X6961D02*
D03*
Y8332D02*
D03*
X7011D02*
D03*
X7061D02*
D03*
X7111D02*
D03*
X7161D02*
D03*
X7211D02*
D03*
X7261D02*
D03*
X9061Y7956D02*
D03*
X9011D02*
D03*
X8961D02*
D03*
X8911D02*
D03*
X8861D02*
D03*
X8811D02*
D03*
X8761D02*
D03*
X8711D02*
D03*
Y8331D02*
D03*
X8761D02*
D03*
X8811D02*
D03*
X8861D02*
D03*
X8911D02*
D03*
X8961D02*
D03*
X9011D02*
D03*
X8189Y7954D02*
D03*
X8139D02*
D03*
X8089D02*
D03*
X8039D02*
D03*
X7989D02*
D03*
X7939D02*
D03*
X7889D02*
D03*
X7839D02*
D03*
Y8329D02*
D03*
X7889D02*
D03*
X7939D02*
D03*
X7989D02*
D03*
X8039D02*
D03*
X8089D02*
D03*
X8139D02*
D03*
D39*
X7970Y7784D02*
D03*
Y7859D02*
D03*
D41*
X7890Y7822D02*
D03*
D42*
X8237Y8441D02*
D03*
X6832Y8325D02*
D03*
D45*
X6288Y8444D02*
D03*
X6388D02*
D03*
X6104D02*
D03*
X6204D02*
D03*
D46*
X6187Y7488D02*
D03*
Y7627D02*
D03*
D49*
X6344Y7558D02*
D03*
Y7658D02*
D03*
X8041Y7869D02*
D03*
Y7769D02*
D03*
X9227Y7908D02*
D03*
Y7808D02*
D03*
D51*
X9330Y7888D02*
D03*
Y8479D02*
D03*
Y8439D02*
D03*
Y8400D02*
D03*
Y8360D02*
D03*
Y8321D02*
D03*
Y8282D02*
D03*
Y8242D02*
D03*
Y8203D02*
D03*
Y8164D02*
D03*
Y8124D02*
D03*
Y8085D02*
D03*
Y8045D02*
D03*
Y8006D02*
D03*
Y7967D02*
D03*
Y7927D02*
D03*
D53*
X9424Y8594D02*
D03*
Y7772D02*
D03*
M02*
