  0
SECTION
  2
HEADER
  9
$ACADVER
  1
AC1009
  9
$INSBASE
 10
0.0
 20
0.0
 30
0.0
  9
$EXTMIN
 10
-119.65
 20
3.62
 30
0.0
  9
$EXTMAX
 10
268.596954
 20
278.62
 30
0.0
  9
$LIMMIN
 10
0.0
 20
0.0
  9
$LIMMAX
 10
200.0
 20
300.0
  9
$ORTHOMODE
 70
     1
  9
$REGENMODE
 70
     1
  9
$FILLMODE
 70
     1
  9
$QTEXTMODE
 70
     0
  9
$MIRRTEXT
 70
     1
  9
$DRAGMODE
 70
     2
  9
$LTSCALE
 40
1.0
  9
$OSMODE
 70
     0
  9
$ATTMODE
 70
     1
  9
$TEXTSIZE
 40
3.0
  9
$TRACEWID
 40
0.05
  9
$TEXTSTYLE
  7
STANDARD
  9
$CLAYER
  8
DIM
  9
$CELTYPE
  6
BYLAYER
  9
$CECOLOR
 62
   256
  9
$DIMSCALE
 40
1.0
  9
$DIMASZ
 40
3.5
  9
$DIMEXO
 40
1.0
  9
$DIMDLI
 40
5.0
  9
$DIMRND
 40
0.0
  9
$DIMDLE
 40
0.0
  9
$DIMEXE
 40
1.0
  9
$DIMTP
 40
0.0
  9
$DIMTM
 40
0.0
  9
$DIMTXT
 40
2.5
  9
$DIMCEN
 40
0.09
  9
$DIMTSZ
 40
0.0
  9
$DIMTOL
 70
     0
  9
$DIMLIM
 70
     0
  9
$DIMTIH
 70
     0
  9
$DIMTOH
 70
     0
  9
$DIMSE1
 70
     0
  9
$DIMSE2
 70
     0
  9
$DIMTAD
 70
     1
  9
$DIMZIN
 70
     0
  9
$DIMBLK
  1

  9
$DIMASO
 70
     1
  9
$DIMSHO
 70
     0
  9
$DIMPOST
  1

  9
$DIMAPOST
  1

  9
$DIMALT
 70
     0
  9
$DIMALTD
 70
     2
  9
$DIMALTF
 40
25.4
  9
$DIMLFAC
 40
1.0
  9
$DIMTOFL
 70
     0
  9
$DIMTVP
 40
0.0
  9
$DIMTIX
 70
     1
  9
$DIMSOXD
 70
     0
  9
$DIMSAH
 70
     0
  9
$DIMBLK1
  1

  9
$DIMBLK2
  1

  9
$DIMSTYLE
  2
*UNNAMED
  9
$DIMCLRD
 70
     0
  9
$DIMCLRE
 70
     0
  9
$DIMCLRT
 70
     0
  9
$DIMTFAC
 40
1.0
  9
$DIMGAP
 40
0.09
  9
$LUNITS
 70
     2
  9
$LUPREC
 70
     2
  9
$SKETCHINC
 40
0.1
  9
$FILLETRAD
 40
1.2
  9
$AUNITS
 70
     0
  9
$AUPREC
 70
     2
  9
$MENU
  1
acad
  9
$ELEVATION
 40
0.0
  9
$PELEVATION
 40
0.0
  9
$THICKNESS
 40
0.0
  9
$LIMCHECK
 70
     0
  9
$BLIPMODE
 70
     1
  9
$CHAMFERA
 40
0.0
  9
$CHAMFERB
 40
0.0
  9
$SKPOLY
 70
     0
  9
$TDCREATE
 40
2448868.366485185
  9
$TDUPDATE
 40
2449227.354662847
  9
$TDINDWG
 40
1.1493020833
  9
$TDUSRTIMER
 40
1.1493020833
  9
$USRTIMER
 70
     1
  9
$ANGBASE
 50
0.0
  9
$ANGDIR
 70
     0
  9
$PDMODE
 70
     0
  9
$PDSIZE
 40
0.0
  9
$PLINEWID
 40
0.0
  9
$COORDS
 70
     2
  9
$SPLFRAME
 70
     0
  9
$SPLINETYPE
 70
     6
  9
$SPLINESEGS
 70
     8
  9
$ATTDIA
 70
     0
  9
$ATTREQ
 70
     1
  9
$HANDLING
 70
     0
  9
$HANDSEED
  5
0
  9
$SURFTAB1
 70
     6
  9
$SURFTAB2
 70
     6
  9
$SURFTYPE
 70
     6
  9
$SURFU
 70
     6
  9
$SURFV
 70
     6
  9
$UCSNAME
  2

  9
$UCSORG
 10
-99.0
 20
120.0
 30
0.0
  9
$UCSXDIR
 10
1.0
 20
0.0
 30
0.0
  9
$UCSYDIR
 10
0.0
 20
1.0
 30
0.0
  9
$PUCSNAME
  2

  9
$PUCSORG
 10
0.0
 20
0.0
 30
0.0
  9
$PUCSXDIR
 10
1.0
 20
0.0
 30
0.0
  9
$PUCSYDIR
 10
0.0
 20
1.0
 30
0.0
  9
$USERI1
 70
     0
  9
$USERI2
 70
     0
  9
$USERI3
 70
     0
  9
$USERI4
 70
     0
  9
$USERI5
 70
     0
  9
$USERR1
 40
0.0
  9
$USERR2
 40
0.0
  9
$USERR3
 40
0.0
  9
$USERR4
 40
0.0
  9
$USERR5
 40
0.0
  9
$WORLDVIEW
 70
     1
  9
$SHADEDGE
 70
     3
  9
$SHADEDIF
 70
    70
  9
$TILEMODE
 70
     1
  9
$MAXACTVP
 70
    16
  9
$PINSBASE
 10
0.0
 20
0.0
 30
0.0
  9
$PLIMCHECK
 70
     0
  9
$PEXTMIN
 10
1.000000E+20
 20
1.000000E+20
 30
1.000000E+20
  9
$PEXTMAX
 10
-1.000000E+20
 20
-1.000000E+20
 30
-1.000000E+20
  9
$PLIMMIN
 10
0.0
 20
0.0
  9
$PLIMMAX
 10
12.0
 20
9.0
  9
$UNITMODE
 70
     0
  9
$VISRETAIN
 70
     0
  9
$PLINEGEN
 70
     0
  9
$PSLTSCALE
 70
     0
  9
$TREEDEPTH
 70
  3020
  9
$DWGCODEPAGE
  3
undefined
  0
ENDSEC
  0
SECTION
  2
TABLES
  0
TABLE
  2
VPORT
 70
     2
  0
VPORT
  2
*ACTIVE
 70
     0
 10
0.0
 20
0.0
 11
1.0
 21
1.0
 12
87.458434
 22
152.183451
 13
0.0
 23
0.0
 14
1.0
 24
1.0
 15
0.0
 25
0.0
 16
0.0
 26
0.0
 36
1.0
 17
0.0
 27
0.0
 37
0.0
 40
304.366902
 41
1.360913
 42
50.0
 43
0.0
 44
0.0
 50
0.0
 51
0.0
 71
     0
 72
   100
 73
     1
 74
     1
 75
     0
 76
     0
 77
     0
 78
     0
  0
ENDTAB
  0
TABLE
  2
LTYPE
 70
     2
  0
LTYPE
  2
CONTINUOUS
 70
    64
  3
Solid line
 72
    65
 73
     0
 40
0.0
  0
LTYPE
  2
CENTER
 70
    64
  3
____ _ ____ _ ____ _ ____ _ ____ _ ____ _ ____
 72
    65
 73
     4
 40
2.0
 49
1.25
 49
-0.25
 49
0.25
 49
-0.25
  0
ENDTAB
  0
TABLE
  2
LAYER
 70
     6
  0
LAYER
  2
0
 70
    64
 62
     7
  6
CONTINUOUS
  0
LAYER
  2
HOVED
 70
    64
 62
     7
  6
CONTINUOUS
  0
LAYER
  2
WORK
 70
     0
 62
     7
  6
CONTINUOUS
  0
LAYER
  2
KOMPONENT
 70
     0
 62
    10
  6
CONTINUOUS
  0
LAYER
  2
DIM
 70
    64
 62
     1
  6
CONTINUOUS
  0
LAYER
  2
DEFPOINTS
 70
     0
 62
     7
  6
CONTINUOUS
  0
ENDTAB
  0
TABLE
  2
STYLE
 70
     2
  0
STYLE
  2
STANDARD
 70
    64
 40
0.0
 41
1.0
 50
0.0
 71
     0
 42
3.0
  3
txt
  4

  0
STYLE
  2
UV
 70
     0
 40
0.0
 41
1.0
 50
0.0
 71
     0
 42
1.25
  3
UV
  4

  0
ENDTAB
  0
TABLE
  2
VIEW
 70
     0
  0
ENDTAB
  0
TABLE
  2
UCS
 70
     0
  0
ENDTAB
  0
TABLE
  2
APPID
 70
     1
  0
APPID
  2
ACAD
 70
    64
  0
ENDTAB
  0
TABLE
  2
DIMSTYLE
 70
     0
  0
ENDTAB
  0
ENDSEC
  0
SECTION
  2
BLOCKS
  0
BLOCK
  8
0
  2
A4MEK
 70
    64
 10
0.0
 20
0.0
 30
0.0
  3
A4MEK
  0
TEXT
  8
HOVED
 10
110.122211
 20
59.040431
 30
0.0
 40
1.25
  1
ISO 5459
  0
TEXT
  8
HOVED
 10
110.122211
 20
61.176258
 30
0.0
 40
1.25
  1
UN-D 1660
  0
TEXT
  8
HOVED
 10
110.122211
 20
65.447911
 30
0.0
 40
1.25
  1
ISO 1101
  0
TEXT
  8
HOVED
 10
110.122211
 20
67.583738
 30
0.0
 40
1.25
  1
UN-D 603
  0
TEXT
  8
HOVED
 10
33.451538
 20
62.888251
 30
0.0
 40
1.25
  1
ISO 1302 
  0
TEXT
  8
HOVED
 10
33.451538
 20
65.024077
 30
0.0
 40
1.25
  1
UN-D 28
  0
POLYLINE
  8
HOVED
 66
     1
 10
0.0
 20
0.0
 30
0.0
  0
VERTEX
  8
HOVED
 10
0.0
 20
43.0
 30
0.0
  0
VERTEX
  8
HOVED
 10
180.0
 20
43.0
 30
0.0
  0
SEQEND
  8
HOVED
  0
POLYLINE
  8
HOVED
 66
     1
 10
0.0
 20
0.0
 30
0.0
 70
     1
 40
0.5
 41
0.5
  0
VERTEX
  8
HOVED
 10
105.0
 20
4.0
 30
0.0
  0
VERTEX
  8
HOVED
 10
180.0
 20
4.0
 30
0.0
  0
VERTEX
  8
HOVED
 10
180.0
 20
28.0
 30
0.0
  0
VERTEX
  8
HOVED
 10
105.0
 20
28.0
 30
0.0
  0
SEQEND
  8
HOVED
  0
POLYLINE
  8
HOVED
 66
     1
 10
0.0
 20
0.0
 30
0.0
  0
VERTEX
  8
HOVED
 10
169.0
 20
8.0
 30
0.0
  0
VERTEX
  8
HOVED
 10
169.0
 20
4.0
 30
0.0
  0
SEQEND
  8
HOVED
  0
POLYLINE
  8
HOVED
 66
     1
 10
0.0
 20
0.0
 30
0.0
  0
VERTEX
  8
HOVED
 10
143.0
 20
8.0
 30
0.0
  0
VERTEX
  8
HOVED
 10
143.0
 20
4.0
 30
0.0
  0
SEQEND
  8
HOVED
  0
POLYLINE
  8
HOVED
 66
     1
 10
0.0
 20
0.0
 30
0.0
  0
VERTEX
  8
HOVED
 10
153.0
 20
12.0
 30
0.0
  0
VERTEX
  8
HOVED
 10
180.0
 20
12.0
 30
0.0
  0
SEQEND
  8
HOVED
  0
POLYLINE
  8
HOVED
 66
     1
 10
0.0
 20
0.0
 30
0.0
  0
VERTEX
  8
HOVED
 10
153.0
 20
16.0
 30
0.0
  0
VERTEX
  8
HOVED
 10
180.0
 20
16.0
 30
0.0
  0
SEQEND
  8
HOVED
  0
POLYLINE
  8
HOVED
 66
     1
 10
0.0
 20
0.0
 30
0.0
  0
VERTEX
  8
HOVED
 10
153.0
 20
20.0
 30
0.0
  0
VERTEX
  8
HOVED
 10
180.0
 20
20.0
 30
0.0
  0
SEQEND
  8
HOVED
  0
POLYLINE
  8
HOVED
 66
     1
 10
0.0
 20
0.0
 30
0.0
  0
VERTEX
  8
HOVED
 10
153.0
 20
24.0
 30
0.0
  0
VERTEX
  8
HOVED
 10
180.0
 20
24.0
 30
0.0
  0
SEQEND
  8
HOVED
  0
POLYLINE
  8
HOVED
 66
     1
 10
0.0
 20
0.0
 30
0.0
  0
VERTEX
  8
HOVED
 10
95.0
 20
8.0
 30
0.0
  0
VERTEX
  8
HOVED
 10
95.0
 20
4.0
 30
0.0
  0
SEQEND
  8
HOVED
  0
TEXT
  8
HOVED
 10
23.856762
 20
0.445735
 30
0.0
 40
1.25
  1
KONTROL
  0
TEXT
  8
HOVED
 10
23.856762
 20
2.224048
 30
0.0
 40
1.25
  1
CHECK
  0
POLYLINE
  8
HOVED
 66
     1
 10
0.0
 20
0.0
 30
0.0
  0
VERTEX
  8
HOVED
 10
23.0
 20
4.0
 30
0.0
  0
VERTEX
  8
HOVED
 10
23.0
 20
0.0
 30
0.0
  0
SEQEND
  8
HOVED
  0
POLYLINE
  8
HOVED
 66
     1
 10
0.0
 20
0.0
 30
0.0
  0
VERTEX
  8
HOVED
 10
8.0
 20
4.0
 30
0.0
  0
VERTEX
  8
HOVED
 10
8.0
 20
0.0
 30
0.0
  0
SEQEND
  8
HOVED
  0
POLYLINE
  8
HOVED
 62
    13
 66
     1
 10
0.0
 20
0.0
 30
0.0
 70
     1
 40
0.3
 41
0.3
  0
VERTEX
  8
HOVED
 62
    13
 10
20.0
 20
33.0
 30
0.0
 42
1.0
  0
VERTEX
  8
HOVED
 62
    13
 10
22.0
 20
33.0
 30
0.0
 42
1.0
  0
SEQEND
  8
HOVED
  0
POLYLINE
  8
HOVED
 62
    13
 66
     1
 10
0.0
 20
0.0
 30
0.0
 70
     1
 40
0.3
 41
0.3
  0
VERTEX
  8
HOVED
 62
    13
 10
19.0
 20
33.0
 30
0.0
 42
1.0
  0
VERTEX
  8
HOVED
 62
    13
 10
23.0
 20
33.0
 30
0.0
 42
1.0
  0
SEQEND
  8
HOVED
  0
POLYLINE
  8
HOVED
 66
     1
 10
0.0
 20
0.0
 30
0.0
  0
VERTEX
  8
HOVED
 10
105.0
 20
8.0
 30
0.0
  0
VERTEX
  8
HOVED
 10
105.0
 20
4.0
 30
0.0
  0
SEQEND
  8
HOVED
  0
TEXT
  8
HOVED
 10
44.333333
 20
66.000244
 30
0.0
 40
1.25
  1
TOLERANCE HVOR INTET ANDET ER ANGIVET
 72
     1
 11
67.25
 21
66.000244
 31
0.0
  0
TEXT
  8
HOVED
 10
46.208333
 20
67.749756
 30
0.0
 40
1.25
  1
TOLERANCES UNLESS OTHERWISE STATED
 72
     1
 11
67.25
 21
67.749756
 31
0.0
  0
TEXT
  8
HOVED
 10
171.083333
 20
39.485657
 30
0.0
 40
1.25
  1
ANTAL
 72
     4
 11
174.0
 21
40.110657
 31
0.0
  0
TEXT
  8
HOVED
 10
170.875
 20
41.269264
 30
0.0
 40
1.25
  1
QUANT.
 72
     4
 11
174.0
 21
41.894264
 31
0.0
  0
TEXT
  8
HOVED
 10
133.041667
 20
40.375
 30
0.0
 40
1.25
  1
ORDER NO.          ORDRE NR.
 72
     4
 11
149.5
 21
41.0
 31
0.0
  0
TEXT
  8
HOVED
 10
82.0
 20
1.311024
 30
0.0
 40
1.5
  1
Philips TV Test Equipment A/S - Kornmarksvej 21 - DK-2605 Brõndby
 72
     4
 11
128.0
 21
1.811024
 31
0.0
  0
TEXT
  8
HOVED
 10
170.208333
 20
5.375
 30
0.0
 40
1.25
  1
FORM
 72
     4
 11
172.5
 21
6.0
 31
0.0
  0
TEXT
  8
HOVED
 10
162.25
 20
5.25
 30
0.0
 40
1.5
  1
KU
 72
     4
 11
163.5
 21
6.0
 31
0.0
  0
TEXT
  8
HOVED
 10
106.826864
 20
4.563739
 30
0.0
 40
1.25
  1
BL
 72
     4
 11
107.868531
 21
5.188739
 31
0.0
  0
TEXT
  8
HOVED
 10
106.826864
 20
6.279985
 30
0.0
 40
1.25
  1
SH
 72
     4
 11
107.868531
 21
6.904985
 31
0.0
  0
TEXT
  8
HOVED
 10
101.453634
 20
4.563739
 30
0.0
 40
1.25
  1
BL
 72
     4
 11
102.495301
 21
5.188739
 31
0.0
  0
TEXT
  8
HOVED
 10
101.453634
 20
6.279985
 30
0.0
 40
1.25
  1
SH
 72
     4
 11
102.495301
 21
6.904985
 31
0.0
  0
TEXT
  8
HOVED
 10
46.0
 20
4.461987
 30
0.0
 40
1.25
  1
ERST.
  0
TEXT
  8
HOVED
 10
46.0
 20
6.191533
 30
0.0
 40
1.25
  1
SUPERS.
  0
TEXT
  8
HOVED
 10
1.028054
 20
4.437063
 30
0.0
 40
1.25
  1
NAVN
  0
TEXT
  8
HOVED
 10
1.028054
 20
6.17553
 30
0.0
 40
1.25
  1
NAME
  0
TEXT
  8
HOVED
 10
0.416667
 20
25.375
 30
0.0
 40
1.25
  1
CLASS NO.  KLASSE NR.
 72
     4
 11
12.5
 21
26.0
 31
0.0
  0
TEXT
  8
HOVED
 10
44.993737
 20
58.522348
 30
0.0
 40
1.25
  1
MèL
  0
TEXT
  8
HOVED
 10
44.993737
 20
60.28802
 30
0.0
 40
1.25
  1
DIMENSION
  0
TEXT
  8
HOVED
 10
15.875
 20
38.864173
 30
0.0
 40
1.25
  1
EUROP.
 72
     1
 11
19.0
 21
38.864173
 31
0.0
  0
TEXT
  8
HOVED
 10
16.5
 20
41.0
 30
0.0
 40
1.25
  1
PROJ.
 72
     1
 11
19.0
 21
41.0
 31
0.0
  0
TEXT
  8
HOVED
 10
3.333333
 20
38.864173
 30
0.0
 40
1.25
  1
SKALA
 72
     1
 11
6.25
 21
38.864173
 31
0.0
  0
TEXT
  8
HOVED
 10
3.333333
 20
41.0
 30
0.0
 40
1.25
  1
SCALE
 72
     1
 11
6.25
 21
41.0
 31
0.0
  0
TEXT
  8
HOVED
 10
3.333333
 20
53.864173
 30
0.0
 40
1.25
  1
RUHED
 72
     1
 11
6.25
 21
53.864173
 31
0.0
  0
TEXT
  8
HOVED
 10
0.833333
 20
56.0
 30
0.0
 40
1.25
  1
ROUGHNESS
 72
     1
 11
6.25
 21
56.0
 31
0.0
  0
TEXT
  8
HOVED
 10
16.083333
 20
53.864173
 30
0.0
 40
1.25
  1
ENHED
 72
     1
 11
19.0
 21
53.864173
 31
0.0
  0
TEXT
  8
HOVED
 10
16.916667
 20
56.0
 30
0.0
 40
1.25
  1
UNIT
 72
     1
 11
19.0
 21
56.0
 31
0.0
  0
TEXT
  8
HOVED
 10
29.866285
 20
29.700814
 30
0.0
 40
1.25
  1
BEHANDLING
 50
90.0
 72
     4
 11
29.241285
 21
35.534148
 31
0.0
  0
TEXT
  8
HOVED
 10
27.730459
 20
30.117481
 30
0.0
 40
1.25
  1
TREATMENT
 50
90.0
 72
     4
 11
27.105459
 21
35.534148
 31
0.0
  0
TEXT
  8
HOVED
 10
29.866285
 20
45.950814
 30
0.0
 40
1.25
  1
MATERIEL
 50
90.0
 72
     4
 11
29.241285
 21
50.534148
 31
0.0
  0
TEXT
  8
HOVED
 10
27.730459
 20
45.950814
 30
0.0
 40
1.25
  1
MATERIAL
 50
90.0
 72
     4
 11
27.105459
 21
50.534148
 31
0.0
  0
POLYLINE
  8
HOVED
 66
     1
 10
0.0
 20
0.0
 30
0.0
  0
VERTEX
  8
HOVED
 10
76.0
 20
0.0
 30
0.0
  0
VERTEX
  8
HOVED
 10
76.0
 20
4.0
 30
0.0
  0
SEQEND
  8
HOVED
  0
TEXT
  8
HOVED
 10
46.584162
 20
1.375
 30
0.0
 40
1.25
  1
DAT
 72
     4
 11
48.250828
 21
2.0
 31
0.0
  0
POLYLINE
  8
HOVED
 66
     1
 10
0.0
 20
0.0
 30
0.0
  0
VERTEX
  8
HOVED
 10
45.0
 20
8.0
 30
0.0
  0
VERTEX
  8
HOVED
 10
45.0
 20
0.0
 30
0.0
  0
SEQEND
  8
HOVED
  0
POLYLINE
  8
HOVED
 66
     1
 10
0.0
 20
0.0
 30
0.0
  0
VERTEX
  8
HOVED
 10
0.0
 20
4.0
 30
0.0
  0
VERTEX
  8
HOVED
 10
180.0
 20
4.0
 30
0.0
  0
SEQEND
  8
HOVED
  0
POLYLINE
  8
HOVED
  6
CENTER
 62
     2
 66
     1
 10
0.0
 20
0.0
 30
0.0
 40
0.02
 41
0.02
  0
VERTEX
  8
HOVED
  6
CENTER
 62
     2
 10
21.0
 20
36.0
 30
0.0
  0
VERTEX
  8
HOVED
  6
CENTER
 62
     2
 10
21.0
 20
30.0
 30
0.0
  0
SEQEND
  8
HOVED
  0
POLYLINE
  8
HOVED
  6
CENTER
 62
     2
 66
     1
 10
0.0
 20
0.0
 30
0.0
 40
0.02
 41
0.02
  0
VERTEX
  8
HOVED
  6
CENTER
 62
     2
 10
13.0
 20
33.0
 30
0.0
  0
VERTEX
  8
HOVED
  6
CENTER
 62
     2
 10
24.0
 20
33.0
 30
0.0
  0
SEQEND
  8
HOVED
  0
POLYLINE
  8
HOVED
 66
     1
 10
0.0
 20
0.0
 30
0.0
 40
0.5
 41
0.5
  0
VERTEX
  8
HOVED
 10
14.0
 20
32.0
 30
0.0
  0
VERTEX
  8
HOVED
 10
18.0
 20
31.0
 30
0.0
  0
VERTEX
  8
HOVED
 10
18.0
 20
35.0
 30
0.0
  0
VERTEX
  8
HOVED
 10
14.0
 20
34.0
 30
0.0
  0
VERTEX
  8
HOVED
 10
14.0
 20
32.0
 30
0.0
  0
SEQEND
  8
HOVED
  0
POLYLINE
  8
HOVED
 66
     1
 10
0.0
 20
0.0
 30
0.0
 40
0.5
 41
0.5
  0
VERTEX
  8
HOVED
 10
0.0
 20
8.0
 30
0.0
  0
VERTEX
  8
HOVED
 10
25.0
 20
8.0
 30
0.0
  0
VERTEX
  8
HOVED
 10
25.0
 20
20.0
 30
0.0
  0
VERTEX
  8
HOVED
 10
0.0
 20
20.0
 30
0.0
  0
VERTEX
  8
HOVED
 10
0.0
 20
8.0
 30
0.0
  0
SEQEND
  8
HOVED
  0
POLYLINE
  8
HOVED
 66
     1
 10
0.0
 20
0.0
 30
0.0
  0
VERTEX
  8
HOVED
 10
0.0
 20
12.0
 30
0.0
  0
VERTEX
  8
HOVED
 10
25.0
 20
12.0
 30
0.0
  0
SEQEND
  8
HOVED
  0
POLYLINE
  8
HOVED
 66
     1
 10
0.0
 20
0.0
 30
0.0
  0
VERTEX
  8
HOVED
 10
0.0
 20
16.0
 30
0.0
  0
VERTEX
  8
HOVED
 10
25.0
 20
16.0
 30
0.0
  0
SEQEND
  8
HOVED
  0
TEXT
  8
HOVED
 10
4.633675
 20
59.243207
 30
0.0
 40
1.25
  1
A
  0
POLYLINE
  8
HOVED
 66
     1
 10
0.0
 20
0.0
 30
0.0
  0
VERTEX
  8
HOVED
 10
90.5
 20
70.0
 30
0.0
  0
VERTEX
  8
HOVED
 10
90.5
 20
58.0
 30
0.0
  0
SEQEND
  8
HOVED
  0
POLYLINE
  8
HOVED
 66
     1
 10
0.0
 20
0.0
 30
0.0
  0
VERTEX
  8
HOVED
 10
43.5
 20
70.0
 30
0.0
  0
VERTEX
  8
HOVED
 10
43.5
 20
58.0
 30
0.0
  0
SEQEND
  8
HOVED
  0
POLYLINE
  8
HOVED
 66
     1
 10
0.0
 20
0.0
 30
0.0
  0
VERTEX
  8
HOVED
 10
121.0
 20
66.0
 30
0.0
  0
VERTEX
  8
HOVED
 10
180.0
 20
66.0
 30
0.0
  0
SEQEND
  8
HOVED
  0
POLYLINE
  8
HOVED
 66
     1
 10
0.0
 20
0.0
 30
0.0
  0
VERTEX
  8
HOVED
 10
121.0
 20
70.0
 30
0.0
  0
VERTEX
  8
HOVED
 10
121.0
 20
58.0
 30
0.0
  0
SEQEND
  8
HOVED
  0
POLYLINE
  8
HOVED
 66
     1
 10
0.0
 20
0.0
 30
0.0
  0
VERTEX
  8
HOVED
 10
12.5
 20
28.0
 30
0.0
  0
VERTEX
  8
HOVED
 10
12.5
 20
58.0
 30
0.0
  0
SEQEND
  8
HOVED
  0
POLYLINE
  8
HOVED
 66
     1
 10
0.0
 20
0.0
 30
0.0
  0
VERTEX
  8
HOVED
 10
131.0
 20
39.0
 30
0.0
  0
VERTEX
  8
HOVED
 10
180.0
 20
39.0
 30
0.0
  0
SEQEND
  8
HOVED
  0
POLYLINE
  8
HOVED
 66
     1
 10
0.0
 20
0.0
 30
0.0
  0
VERTEX
  8
HOVED
 10
131.090529
 20
54.006697
 30
0.0
  0
VERTEX
  8
HOVED
 10
180.090529
 20
54.006697
 30
0.0
  0
SEQEND
  8
HOVED
  0
POLYLINE
  8
HOVED
 66
     1
 10
0.0
 20
0.0
 30
0.0
  0
VERTEX
  8
HOVED
 10
121.0
 20
62.0
 30
0.0
  0
VERTEX
  8
HOVED
 10
180.0
 20
62.0
 30
0.0
  0
SEQEND
  8
HOVED
  0
POLYLINE
  8
HOVED
 66
     1
 10
0.0
 20
0.0
 30
0.0
  0
VERTEX
  8
HOVED
 10
180.0
 20
70.0
 30
0.0
  0
VERTEX
  8
HOVED
 10
180.0
 20
0.0
 30
0.0
  0
SEQEND
  8
HOVED
  0
POLYLINE
  8
HOVED
 66
     1
 10
0.0
 20
0.0
 30
0.0
  0
VERTEX
  8
HOVED
 10
0.0
 20
70.0
 30
0.0
  0
VERTEX
  8
HOVED
 10
0.0
 20
0.0
 30
0.0
  0
SEQEND
  8
HOVED
  0
POLYLINE
  8
HOVED
 66
     1
 10
0.0
 20
0.0
 30
0.0
  0
VERTEX
  8
HOVED
 10
168.0
 20
43.0
 30
0.0
  0
VERTEX
  8
HOVED
 10
168.0
 20
28.0
 30
0.0
  0
SEQEND
  8
HOVED
  0
POLYLINE
  8
HOVED
 66
     1
 10
0.0
 20
0.0
 30
0.0
  0
VERTEX
  8
HOVED
 10
168.0
 20
70.0
 30
0.0
  0
VERTEX
  8
HOVED
 10
168.0
 20
58.0
 30
0.0
  0
SEQEND
  8
HOVED
  0
POLYLINE
  8
HOVED
 66
     1
 10
0.0
 20
0.0
 30
0.0
  0
VERTEX
  8
HOVED
 10
131.0
 20
70.0
 30
0.0
  0
VERTEX
  8
HOVED
 10
131.0
 20
28.0
 30
0.0
  0
SEQEND
  8
HOVED
  0
TEXT
  8
HOVED
 10
132.625
 20
59.375
 30
0.0
 40
1.25
  1
ASSEMBLY NO.     SAMLINGS NR.
 72
     4
 11
149.5
 21
60.0
 31
0.0
  0
TEXT
  8
HOVED
 10
124.333333
 20
58.520669
 30
0.0
 40
1.25
  1
POS
 72
     4
 11
126.0
 21
59.145669
 31
0.0
  0
TEXT
  8
HOVED
 10
123.916667
 20
60.229331
 30
0.0
 40
1.25
  1
ITEM
 72
     4
 11
126.0
 21
60.854331
 31
0.0
  0
POLYLINE
  8
HOVED
 66
     1
 10
0.0
 20
0.0
 30
0.0
 70
     1
  0
VERTEX
  8
HOVED
 10
94.0
 20
62.0
 30
0.0
  0
VERTEX
  8
HOVED
 10
96.0
 20
62.0
 30
0.0
  0
VERTEX
  8
HOVED
 10
95.0
 20
63.0
 30
0.0
  0
SEQEND
  8
HOVED
  0
POLYLINE
  8
HOVED
 66
     1
 10
0.0
 20
0.0
 30
0.0
 40
0.4
 41
0.4
  0
VERTEX
  8
HOVED
 10
95.0
 20
65.0
 30
0.0
  0
VERTEX
  8
HOVED
 10
95.0
 20
62.0
 30
0.0
  0
SEQEND
  8
HOVED
  0
TEXT
  8
HOVED
 10
105.583333
 20
61.375
 30
0.0
 40
1.25
  1
A
 72
     4
 11
106.0
 21
62.0
 31
0.0
  0
TEXT
  8
HOVED
 10
94.583333
 20
65.375
 30
0.0
 40
1.25
  1
A
 72
     4
 11
95.0
 21
66.0
 31
0.0
  0
POLYLINE
  8
HOVED
 66
     1
 10
0.0
 20
0.0
 30
0.0
 70
     1
 40
0.3
 41
0.3
  0
VERTEX
  8
HOVED
 10
105.0
 20
63.0
 30
0.0
  0
VERTEX
  8
HOVED
 10
107.0
 20
63.0
 30
0.0
  0
VERTEX
  8
HOVED
 10
107.0
 20
61.0
 30
0.0
  0
VERTEX
  8
HOVED
 10
105.0
 20
61.0
 30
0.0
  0
SEQEND
  8
HOVED
  0
POLYLINE
  8
HOVED
 66
     1
 10
0.0
 20
0.0
 30
0.0
 70
     1
 40
0.3
 41
0.3
  0
VERTEX
  8
HOVED
 10
101.0
 20
61.0
 30
0.0
  0
VERTEX
  8
HOVED
 10
103.0
 20
61.0
 30
0.0
  0
VERTEX
  8
HOVED
 10
103.0
 20
63.0
 30
0.0
  0
VERTEX
  8
HOVED
 10
101.0
 20
63.0
 30
0.0
  0
SEQEND
  8
HOVED
  0
POLYLINE
  8
HOVED
 66
     1
 10
0.0
 20
0.0
 30
0.0
 70
     1
 40
0.3
 41
0.3
  0
VERTEX
  8
HOVED
 10
103.0
 20
61.0
 30
0.0
  0
VERTEX
  8
HOVED
 10
105.0
 20
61.0
 30
0.0
  0
VERTEX
  8
HOVED
 10
105.0
 20
63.0
 30
0.0
  0
VERTEX
  8
HOVED
 10
103.0
 20
63.0
 30
0.0
  0
SEQEND
  8
HOVED
  0
POLYLINE
  8
HOVED
 66
     1
 10
0.0
 20
0.0
 30
0.0
 70
     1
 40
0.3
 41
0.3
  0
VERTEX
  8
HOVED
 10
103.0
 20
65.0
 30
0.0
  0
VERTEX
  8
HOVED
 10
105.0
 20
65.0
 30
0.0
  0
VERTEX
  8
HOVED
 10
105.0
 20
67.0
 30
0.0
  0
VERTEX
  8
HOVED
 10
103.0
 20
67.0
 30
0.0
  0
SEQEND
  8
HOVED
  0
POLYLINE
  8
HOVED
 66
     1
 10
0.0
 20
0.0
 30
0.0
 70
     1
 40
0.3
 41
0.3
  0
VERTEX
  8
HOVED
 10
101.0
 20
65.0
 30
0.0
  0
VERTEX
  8
HOVED
 10
103.0
 20
65.0
 30
0.0
  0
VERTEX
  8
HOVED
 10
103.0
 20
67.0
 30
0.0
  0
VERTEX
  8
HOVED
 10
101.0
 20
67.0
 30
0.0
  0
SEQEND
  8
HOVED
  0
POLYLINE
  8
HOVED
 66
     1
 10
0.0
 20
0.0
 30
0.0
 70
     1
 40
0.3
 41
0.3
  0
VERTEX
  8
HOVED
 10
94.0
 20
67.0
 30
0.0
  0
VERTEX
  8
HOVED
 10
96.0
 20
67.0
 30
0.0
  0
VERTEX
  8
HOVED
 10
96.0
 20
65.0
 30
0.0
  0
VERTEX
  8
HOVED
 10
94.0
 20
65.0
 30
0.0
  0
SEQEND
  8
HOVED
  0
TEXT
  8
HOVED
 10
68.965065
 20
58.523358
 30
0.0
 40
1.25
  1
VINKEL
  0
TEXT
  8
HOVED
 10
68.965065
 20
60.232019
 30
0.0
 40
1.25
  1
ANGLE
  0
POLYLINE
  8
HOVED
 66
     1
 10
0.0
 20
0.0
 30
0.0
  0
VERTEX
  8
HOVED
 10
67.0
 20
64.0
 30
0.0
  0
VERTEX
  8
HOVED
 10
67.0
 20
58.0
 30
0.0
  0
SEQEND
  8
HOVED
  0
ARC
  8
HOVED
 10
30.760314
 20
66.358592
 30
0.0
 40
1.214782
 50
306.484773
 51
299.24767
  0
TEXT
  8
HOVED
 10
28.0
 20
68.0
 30
0.0
 40
1.25
  1
. .
  0
TEXT
  8
HOVED
 10
17.0
 20
68.0
 30
0.0
 40
1.25
  1
. .
  0
TEXT
  8
HOVED
 10
5.0
 20
68.0
 30
0.0
 40
1.25
  1
. .
  0
TEXT
  8
HOVED
 10
2.0
 20
60.0
 30
0.0
 40
1.25
  1
. . R    IN MICROMETERS
  0
POLYLINE
  8
HOVED
 66
     1
 10
0.0
 20
0.0
 30
0.0
  0
VERTEX
  8
HOVED
 10
29.037485
 20
66.969806
 30
0.0
  0
VERTEX
  8
HOVED
 10
30.75
 20
64.0
 30
0.0
  0
VERTEX
  8
HOVED
 10
33.868589
 20
69.366508
 30
0.0
  0
SEQEND
  8
HOVED
  0
POLYLINE
  8
HOVED
 66
     1
 10
0.0
 20
0.0
 30
0.0
  0
VERTEX
  8
HOVED
 10
18.037485
 20
66.969806
 30
0.0
  0
VERTEX
  8
HOVED
 10
19.75
 20
64.0
 30
0.0
  0
VERTEX
  8
HOVED
 10
22.868589
 20
69.366508
 30
0.0
  0
SEQEND
  8
HOVED
  0
ARC
  8
HOVED
 10
7.75
 20
64.0
 30
0.0
 40
3.605551
 50
59.838245
 51
119.838245
  0
POLYLINE
  8
HOVED
 66
     1
 10
0.0
 20
0.0
 30
0.0
  0
VERTEX
  8
HOVED
 10
6.151924
 20
67.232051
 30
0.0
  0
VERTEX
  8
HOVED
 10
7.75
 20
64.0
 30
0.0
  0
VERTEX
  8
HOVED
 10
10.868589
 20
69.366508
 30
0.0
  0
SEQEND
  8
HOVED
  0
TEXT
  8
HOVED
 10
171.083333
 20
58.489461
 30
0.0
 40
1.25
  1
ANTAL
 72
     4
 11
174.0
 21
59.114461
 31
0.0
  0
TEXT
  8
HOVED
 10
170.875
 20
60.26546
 30
0.0
 40
1.25
  1
QUANT.
 72
     4
 11
174.0
 21
60.89046
 31
0.0
  0
POLYLINE
  8
HOVED
 66
     1
 10
0.0
 20
0.0
 30
0.0
  0
VERTEX
  8
HOVED
 10
0.0
 20
0.0
 30
0.0
  0
VERTEX
  8
HOVED
 10
180.0
 20
0.0
 30
0.0
  0
SEQEND
  8
HOVED
  0
POLYLINE
  8
HOVED
 66
     1
 10
0.0
 20
0.0
 30
0.0
  0
VERTEX
  8
HOVED
 10
25.0
 20
58.0
 30
0.0
  0
VERTEX
  8
HOVED
 10
25.0
 20
8.0
 30
0.0
  0
SEQEND
  8
HOVED
  0
POLYLINE
  8
HOVED
 66
     1
 10
0.0
 20
0.0
 30
0.0
  0
VERTEX
  8
HOVED
 10
0.0
 20
58.0
 30
0.0
  0
VERTEX
  8
HOVED
 10
180.0
 20
58.0
 30
0.0
  0
SEQEND
  8
HOVED
  0
POLYLINE
  8
HOVED
 66
     1
 10
0.0
 20
0.0
 30
0.0
  0
VERTEX
  8
HOVED
 10
158.0
 20
28.0
 30
0.0
  0
VERTEX
  8
HOVED
 10
158.0
 20
4.0
 30
0.0
  0
SEQEND
  8
HOVED
  0
POLYLINE
  8
HOVED
 66
     1
 10
0.0
 20
0.0
 30
0.0
  0
VERTEX
  8
HOVED
 10
20.0
 20
20.0
 30
0.0
  0
VERTEX
  8
HOVED
 10
20.0
 20
8.0
 30
0.0
  0
SEQEND
  8
HOVED
  0
POLYLINE
  8
HOVED
 66
     1
 10
0.0
 20
0.0
 30
0.0
  0
VERTEX
  8
HOVED
 10
0.0
 20
8.0
 30
0.0
  0
VERTEX
  8
HOVED
 10
180.0
 20
8.0
 30
0.0
  0
SEQEND
  8
HOVED
  0
LINE
  8
HOVED
 10
23.0
 20
4.0
 30
0.0
 11
23.0
 21
0.0
 31
0.0
  0
POLYLINE
  8
HOVED
 66
     1
 10
0.0
 20
0.0
 30
0.0
  0
VERTEX
  8
HOVED
 10
0.0
 20
28.0
 30
0.0
  0
VERTEX
  8
HOVED
 10
180.0
 20
28.0
 30
0.0
  0
SEQEND
  8
HOVED
  0
TEXT
  8
HOVED
 10
139.041667
 20
55.379921
 30
0.0
 40
1.25
  1
PATTERN NO.        MODEL NR.
 72
     4
 11
155.5
 21
56.004921
 31
0.0
  0
LINE
  8
HOVED
 10
45.0
 20
8.0
 30
0.0
 11
45.0
 21
4.0
 31
0.0
  0
LINE
  8
HOVED
 10
25.0
 20
57.0
 30
0.0
 11
25.0
 21
40.0
 31
0.0
  0
TEXT
  8
HOVED
 10
17.708333
 20
44.374016
 30
0.0
 40
1.25
  1
MM
 72
     1
 11
18.75
 21
44.374016
 31
0.0
  0
LINE
  8
HOVED
 10
0.0
 20
70.0
 30
0.0
 11
180.0
 21
70.0
 31
0.0
  0
ENDBLK
  8
0
  0
ENDSEC
  0
SECTION
  2
ENTITIES
  0
INSERT
  8
0
  2
A4MEK
 10
88.346954
 20
3.623188
 30
0.0
  0
TEXT
  8
DIM
 10
95.992364
 20
8.221957
 30
0.0
 40
3.0
  1
Jan Olesen.
  0
TEXT
  8
DIM
 10
186.98527
 20
8.221957
 30
0.0
 40
3.0
  1
1
  0
TEXT
  8
DIM
 10
199.393394
 20
8.598217
 30
0.0
 40
3.0
  1
110-1
  0
TEXT
  8
DIM
 10
243.385832
 20
28.163741
 30
0.0
 40
3.0
  1
1
  0
LINE
  8
DIM
 10
247.897877
 20
29.292522
 30
0.0
 11
266.322061
 21
29.292522
 31
0.0
  0
LINE
  8
HOVED
 10
268.35
 20
3.62
 30
0.0
 11
-119.65
 21
3.62
 31
0.0
  0
LINE
  8
HOVED
 10
-119.65
 20
3.62
 30
0.0
 11
-119.65
 21
278.62
 31
0.0
  0
LINE
  8
HOVED
 10
-119.65
 20
278.62
 30
0.0
 11
268.35
 21
278.62
 31
0.0
  0
LINE
  8
HOVED
 10
268.35
 20
278.62
 30
0.0
 11
268.35
 21
3.62
 31
0.0
  0
LINE
  8
0
 10
-75.0
 20
136.75
 30
0.0
 11
-68.505895
 21
136.75
 31
0.0
  0
LINE
  8
0
 10
12.5
 20
137.95
 30
0.0
 11
12.5
 21
143.245313
 31
0.0
  0
LINE
  8
0
 10
12.5
 20
227.5
 30
0.0
 11
23.8
 21
227.5
 31
0.0
  0
LINE
  8
0
 10
25.0
 20
228.7
 30
0.0
 11
25.0
 21
239.0
 31
0.0
  0
LINE
  8
0
 10
25.0
 20
239.0
 30
0.0
 11
79.0
 21
239.0
 31
0.0
  0
LINE
  8
0
 10
79.0
 20
239.0
 30
0.0
 11
79.0
 21
228.7
 31
0.0
  0
LINE
  8
0
 10
80.2
 20
227.5
 30
0.0
 11
92.75
 21
227.5
 31
0.0
  0
LINE
  8
0
 10
92.75
 20
227.5
 30
0.0
 11
92.75
 21
140.25
 31
0.0
  0
LINE
  8
0
 10
92.75
 20
140.25
 30
0.0
 11
80.2
 21
140.25
 31
0.0
  0
LINE
  8
0
 10
79.0
 20
139.05
 30
0.0
 11
79.0
 21
120.0
 31
0.0
  0
LINE
  8
0
 10
79.0
 20
120.0
 30
0.0
 11
-75.0
 21
120.0
 31
0.0
  0
LINE
  8
DIM
 10
-71.75
 20
125.8
 30
0.0
 11
-71.75
 21
129.8
 31
0.0
  0
LINE
  8
DIM
 10
-73.75
 20
127.8
 30
0.0
 11
-69.75
 21
127.8
 31
0.0
  0
LINE
  8
DIM
 10
-56.0
 20
125.8
 30
0.0
 11
-56.0
 21
129.8
 31
0.0
  0
LINE
  8
DIM
 10
-58.0
 20
127.8
 30
0.0
 11
-54.0
 21
127.8
 31
0.0
  0
LINE
  8
DIM
 10
-26.5
 20
125.8
 30
0.0
 11
-26.5
 21
129.8
 31
0.0
  0
LINE
  8
DIM
 10
-28.5
 20
127.8
 30
0.0
 11
-24.5
 21
127.8
 31
0.0
  0
LINE
  8
DIM
 10
3.0
 20
125.8
 30
0.0
 11
3.0
 21
129.8
 31
0.0
  0
LINE
  8
DIM
 10
1.0
 20
127.8
 30
0.0
 11
5.0
 21
127.8
 31
0.0
  0
LINE
  8
DIM
 10
12.5
 20
125.8
 30
0.0
 11
12.5
 21
129.8
 31
0.0
  0
LINE
  8
DIM
 10
10.5
 20
127.8
 30
0.0
 11
14.5
 21
127.8
 31
0.0
  0
LINE
  8
DIM
 10
23.75
 20
124.0
 30
0.0
 11
23.75
 21
128.0
 31
0.0
  0
LINE
  8
DIM
 10
21.75
 20
126.0
 30
0.0
 11
25.75
 21
126.0
 31
0.0
  0
LINE
  8
DIM
 10
44.0
 20
124.0
 30
0.0
 11
44.0
 21
128.0
 31
0.0
  0
LINE
  8
DIM
 10
42.0
 20
126.0
 30
0.0
 11
46.0
 21
126.0
 31
0.0
  0
LINE
  8
DIM
 10
23.75
 20
137.5
 30
0.0
 11
23.75
 21
141.5
 31
0.0
  0
LINE
  8
DIM
 10
21.75
 20
139.5
 30
0.0
 11
25.75
 21
139.5
 31
0.0
  0
LINE
  8
DIM
 10
23.75
 20
151.0
 30
0.0
 11
23.75
 21
155.0
 31
0.0
  0
LINE
  8
DIM
 10
21.75
 20
153.0
 30
0.0
 11
25.75
 21
153.0
 31
0.0
  0
LINE
  8
DIM
 10
23.75
 20
164.5
 30
0.0
 11
23.75
 21
168.5
 31
0.0
  0
LINE
  8
DIM
 10
21.75
 20
166.5
 30
0.0
 11
25.75
 21
166.5
 31
0.0
  0
LINE
  8
DIM
 10
23.75
 20
178.0
 30
0.0
 11
23.75
 21
182.0
 31
0.0
  0
LINE
  8
DIM
 10
21.75
 20
180.0
 30
0.0
 11
25.75
 21
180.0
 31
0.0
  0
LINE
  8
DIM
 10
23.75
 20
191.5
 30
0.0
 11
23.75
 21
195.5
 31
0.0
  0
LINE
  8
DIM
 10
21.75
 20
193.5
 30
0.0
 11
25.75
 21
193.5
 31
0.0
  0
LINE
  8
DIM
 10
23.75
 20
205.0
 30
0.0
 11
23.75
 21
209.0
 31
0.0
  0
LINE
  8
DIM
 10
21.75
 20
207.0
 30
0.0
 11
25.75
 21
207.0
 31
0.0
  0
LINE
  8
DIM
 10
23.75
 20
218.5
 30
0.0
 11
23.75
 21
222.5
 31
0.0
  0
LINE
  8
DIM
 10
21.75
 20
220.5
 30
0.0
 11
25.75
 21
220.5
 31
0.0
  0
LINE
  8
DIM
 10
44.0
 20
137.5
 30
0.0
 11
44.0
 21
141.5
 31
0.0
  0
LINE
  8
DIM
 10
42.0
 20
139.5
 30
0.0
 11
46.0
 21
139.5
 31
0.0
  0
LINE
  8
DIM
 10
44.0
 20
151.0
 30
0.0
 11
44.0
 21
155.0
 31
0.0
  0
LINE
  8
DIM
 10
42.0
 20
153.0
 30
0.0
 11
46.0
 21
153.0
 31
0.0
  0
LINE
  8
DIM
 10
44.0
 20
205.0
 30
0.0
 11
44.0
 21
209.0
 31
0.0
  0
LINE
  8
DIM
 10
42.0
 20
207.0
 30
0.0
 11
46.0
 21
207.0
 31
0.0
  0
LINE
  8
DIM
 10
44.0
 20
218.5
 30
0.0
 11
44.0
 21
222.5
 31
0.0
  0
LINE
  8
DIM
 10
42.0
 20
220.5
 30
0.0
 11
46.0
 21
220.5
 31
0.0
  0
LINE
  8
DIM
 10
64.25
 20
137.5
 30
0.0
 11
64.25
 21
141.5
 31
0.0
  0
LINE
  8
DIM
 10
62.25
 20
139.5
 30
0.0
 11
66.25
 21
139.5
 31
0.0
  0
LINE
  8
DIM
 10
64.25
 20
151.0
 30
0.0
 11
64.25
 21
155.0
 31
0.0
  0
LINE
  8
DIM
 10
62.25
 20
153.0
 30
0.0
 11
66.25
 21
153.0
 31
0.0
  0
LINE
  8
DIM
 10
64.25
 20
191.5
 30
0.0
 11
64.25
 21
195.5
 31
0.0
  0
LINE
  8
DIM
 10
62.25
 20
193.5
 30
0.0
 11
66.25
 21
193.5
 31
0.0
  0
LINE
  8
DIM
 10
64.25
 20
205.0
 30
0.0
 11
64.25
 21
209.0
 31
0.0
  0
LINE
  8
DIM
 10
62.25
 20
207.0
 30
0.0
 11
66.25
 21
207.0
 31
0.0
  0
LINE
  8
DIM
 10
64.25
 20
218.5
 30
0.0
 11
64.25
 21
222.5
 31
0.0
  0
LINE
  8
DIM
 10
62.25
 20
220.5
 30
0.0
 11
66.25
 21
220.5
 31
0.0
  0
LINE
  8
DIM
 10
84.5
 20
151.0
 30
0.0
 11
84.5
 21
155.0
 31
0.0
  0
LINE
  8
DIM
 10
82.5
 20
153.0
 30
0.0
 11
86.5
 21
153.0
 31
0.0
  0
LINE
  8
DIM
 10
84.5
 20
164.5
 30
0.0
 11
84.5
 21
168.5
 31
0.0
  0
LINE
  8
DIM
 10
82.5
 20
166.5
 30
0.0
 11
86.5
 21
166.5
 31
0.0
  0
LINE
  8
DIM
 10
84.5
 20
178.0
 30
0.0
 11
84.5
 21
182.0
 31
0.0
  0
LINE
  8
DIM
 10
82.5
 20
180.0
 30
0.0
 11
86.5
 21
180.0
 31
0.0
  0
LINE
  8
DIM
 10
84.5
 20
191.5
 30
0.0
 11
84.5
 21
195.5
 31
0.0
  0
LINE
  8
DIM
 10
82.5
 20
193.5
 30
0.0
 11
86.5
 21
193.5
 31
0.0
  0
LINE
  8
DIM
 10
84.5
 20
205.0
 30
0.0
 11
84.5
 21
209.0
 31
0.0
  0
LINE
  8
DIM
 10
82.5
 20
207.0
 30
0.0
 11
86.5
 21
207.0
 31
0.0
  0
LINE
  8
DIM
 10
84.5
 20
218.5
 30
0.0
 11
84.5
 21
222.5
 31
0.0
  0
LINE
  8
DIM
 10
82.5
 20
220.5
 30
0.0
 11
86.5
 21
220.5
 31
0.0
  0
LINE
  8
DIM
 10
33.88
 20
144.0
 30
0.0
 11
33.88
 21
148.0
 31
0.0
  0
LINE
  8
DIM
 10
31.88
 20
146.0
 30
0.0
 11
35.88
 21
146.0
 31
0.0
  0
LINE
  8
DIM
 10
33.88
 20
198.5
 30
0.0
 11
33.88
 21
202.5
 31
0.0
  0
LINE
  8
DIM
 10
31.88
 20
200.5
 30
0.0
 11
35.88
 21
200.5
 31
0.0
  0
LINE
  8
DIM
 10
33.88
 20
231.5
 30
0.0
 11
33.88
 21
235.5
 31
0.0
  0
LINE
  8
DIM
 10
31.88
 20
233.5
 30
0.0
 11
35.88
 21
233.5
 31
0.0
  0
LINE
  8
DIM
 10
51.75
 20
173.25
 30
0.0
 11
55.75
 21
173.25
 31
0.0
  0
LINE
  8
DIM
 10
53.75
 20
175.25
 30
0.0
 11
53.75
 21
171.25
 31
0.0
  0
LINE
  8
DIM
 10
74.35
 20
151.0
 30
0.0
 11
74.35
 21
155.0
 31
0.0
  0
LINE
  8
DIM
 10
72.35
 20
153.0
 30
0.0
 11
76.35
 21
153.0
 31
0.0
  0
LINE
  8
DIM
 10
74.35
 20
164.5
 30
0.0
 11
74.35
 21
168.5
 31
0.0
  0
LINE
  8
DIM
 10
72.35
 20
166.5
 30
0.0
 11
76.35
 21
166.5
 31
0.0
  0
LINE
  8
DIM
 10
74.35
 20
178.0
 30
0.0
 11
74.35
 21
182.0
 31
0.0
  0
LINE
  8
DIM
 10
72.35
 20
180.0
 30
0.0
 11
76.35
 21
180.0
 31
0.0
  0
LINE
  8
DIM
 10
74.35
 20
198.5
 30
0.0
 11
74.35
 21
202.5
 31
0.0
  0
LINE
  8
DIM
 10
72.35
 20
200.5
 30
0.0
 11
76.35
 21
200.5
 31
0.0
  0
LINE
  8
DIM
 10
74.35
 20
231.5
 30
0.0
 11
74.35
 21
235.5
 31
0.0
  0
LINE
  8
DIM
 10
72.35
 20
233.5
 30
0.0
 11
76.35
 21
233.5
 31
0.0
  0
CIRCLE
  8
0
 10
-71.75
 20
127.8
 30
0.0
 40
1.6
  0
CIRCLE
  8
0
 10
12.5
 20
127.8
 30
0.0
 40
1.6
  0
CIRCLE
  8
0
 10
33.88
 20
146.0
 30
0.0
 40
1.6
  0
CIRCLE
  8
0
 10
33.88
 20
200.5
 30
0.0
 40
1.6
  0
CIRCLE
  8
0
 10
33.88
 20
233.5
 30
0.0
 40
1.6
  0
CIRCLE
  8
0
 10
74.35
 20
166.5
 30
0.0
 40
1.6
  0
CIRCLE
  8
0
 10
74.35
 20
200.5
 30
0.0
 40
1.6
  0
CIRCLE
  8
0
 10
74.35
 20
233.5
 30
0.0
 40
1.6
  0
LINE
  8
DIM
 10
-99.0
 20
119.0
 30
0.0
 11
-99.0
 21
110.0
 31
0.0
  0
LINE
  8
DIM
 10
94.0
 20
120.0
 30
0.0
 11
105.0
 21
120.0
 31
0.0
  0
LINE
  8
DIM
 10
-56.0
 20
119.0
 30
0.0
 11
-56.0
 21
110.0
 31
0.0
  0
LINE
  8
DIM
 10
-26.5
 20
119.0
 30
0.0
 11
-26.5
 21
110.0
 31
0.0
  0
LINE
  8
DIM
 10
23.75
 20
119.0
 30
0.0
 11
23.75
 21
110.0
 31
0.0
  0
LINE
  8
DIM
 10
33.88
 20
119.0
 30
0.0
 11
33.88
 21
110.0
 31
0.0
  0
LINE
  8
DIM
 10
44.0
 20
119.0
 30
0.0
 11
44.0
 21
110.0
 31
0.0
  0
LINE
  8
DIM
 10
53.75
 20
119.0
 30
0.0
 11
53.75
 21
110.0
 31
0.0
  0
LINE
  8
DIM
 10
64.25
 20
119.0
 30
0.0
 11
64.25
 21
110.0
 31
0.0
  0
LINE
  8
DIM
 10
74.35
 20
119.0
 30
0.0
 11
74.35
 21
110.0
 31
0.0
  0
LINE
  8
DIM
 10
84.5
 20
119.0
 30
0.0
 11
84.5
 21
110.0
 31
0.0
  0
LINE
  8
DIM
 10
79.0
 20
119.0
 30
0.0
 11
79.0
 21
110.0
 31
0.0
  0
LINE
  8
DIM
 10
92.75
 20
119.0
 30
0.0
 11
92.75
 21
110.0
 31
0.0
  0
LINE
  8
DIM
 10
12.5
 20
119.0
 30
0.0
 11
12.5
 21
110.0
 31
0.0
  0
LINE
  8
DIM
 10
25.0
 20
119.0
 30
0.0
 11
25.0
 21
110.0
 31
0.0
  0
LINE
  8
DIM
 10
94.0
 20
126.0
 30
0.0
 11
105.0
 21
126.0
 31
0.0
  0
LINE
  8
DIM
 10
94.0
 20
127.8
 30
0.0
 11
105.0
 21
127.8
 31
0.0
  0
LINE
  8
DIM
 10
94.0
 20
136.75
 30
0.0
 11
105.0
 21
136.75
 31
0.0
  0
LINE
  8
DIM
 10
94.0
 20
139.5
 30
0.0
 11
105.0
 21
139.5
 31
0.0
  0
LINE
  8
DIM
 10
94.0
 20
140.25
 30
0.0
 11
105.0
 21
140.25
 31
0.0
  0
LINE
  8
DIM
 10
94.0
 20
146.0
 30
0.0
 11
105.0
 21
146.0
 31
0.0
  0
LINE
  8
DIM
 10
94.0
 20
153.0
 30
0.0
 11
105.0
 21
153.0
 31
0.0
  0
LINE
  8
DIM
 10
94.0
 20
166.5
 30
0.0
 11
105.0
 21
166.5
 31
0.0
  0
LINE
  8
DIM
 10
94.0
 20
173.25
 30
0.0
 11
105.0
 21
173.25
 31
0.0
  0
LINE
  8
DIM
 10
94.0
 20
180.0
 30
0.0
 11
105.0
 21
180.0
 31
0.0
  0
LINE
  8
DIM
 10
94.0
 20
193.5
 30
0.0
 11
105.0
 21
193.5
 31
0.0
  0
LINE
  8
DIM
 10
94.0
 20
200.5
 30
0.0
 11
105.0
 21
200.5
 31
0.0
  0
LINE
  8
DIM
 10
94.0
 20
207.0
 30
0.0
 11
105.0
 21
207.0
 31
0.0
  0
LINE
  8
DIM
 10
94.0
 20
220.5
 30
0.0
 11
105.0
 21
220.5
 31
0.0
  0
LINE
  8
DIM
 10
94.0
 20
227.5
 30
0.0
 11
105.0
 21
227.5
 31
0.0
  0
LINE
  8
DIM
 10
94.0
 20
233.5
 30
0.0
 11
105.0
 21
233.5
 31
0.0
  0
LINE
  8
DIM
 10
94.0
 20
239.0
 30
0.0
 11
105.0
 21
239.0
 31
0.0
  0
LINE
  8
DIM
 10
-75.0
 20
113.0
 30
0.0
 11
92.75
 21
113.0
 31
0.0
  0
LINE
  8
DIM
 10
101.0
 20
120.0
 30
0.0
 11
101.0
 21
239.0
 31
0.0
  0
TEXT
  8
DIM
 10
108.768569
 20
119.275362
 30
0.0
 40
3.0
  1
0
  0
TEXT
  8
DIM
 10
107.633473
 20
123.932997
 30
0.0
 40
3.0
  1
6
  0
TEXT
  8
DIM
 10
107.944866
 20
127.556186
 30
0.0
 40
3.0
  1
7.8
  0
TEXT
  8
DIM
 10
107.530282
 20
134.806063
 30
0.0
 40
3.0
  1
16.75
  0
TEXT
  8
DIM
 10
107.532104
 20
138.429252
 30
0.0
 40
3.0
  1
19.5
  0
TEXT
  8
DIM
 10
107.532104
 20
142.15571
 30
0.0
 40
3.0
  1
20.25
  0
TEXT
  8
DIM
 10
107.635294
 20
145.778898
 30
0.0
 40
3.0
  1
26
  0
TEXT
  8
DIM
 10
107.428913
 20
151.677519
 30
0.0
 40
3.0
  1
33
  0
TEXT
  8
DIM
 10
107.446126
 20
164.854022
 30
0.0
 40
3.0
  1
46.5
  0
TEXT
  8
DIM
 10
107.309686
 20
171.722327
 30
0.0
 40
3.0
  1
53.25
  0
TEXT
  8
DIM
 10
107.173247
 20
178.611636
 30
0.0
 40
3.0
  1
60
  0
TEXT
  8
DIM
 10
106.627487
 20
192.148708
 30
0.0
 40
3.0
  1
73.5
  0
TEXT
  8
DIM
 10
106.900367
 20
199.258559
 30
0.0
 40
3.0
  1
80.5
  0
TEXT
  8
DIM
 10
106.763927
 20
205.958832
 30
0.0
 40
3.0
  1
87
  0
TEXT
  8
DIM
 10
107.953617
 20
219.077575
 30
0.0
 40
3.0
  1
100.5
  0
TEXT
  8
DIM
 10
107.588874
 20
228.092524
 30
0.0
 40
3.0
  1
107.5
  0
TEXT
  8
DIM
 10
107.755831
 20
232.121053
 30
0.0
 40
3.0
  1
113.5
  0
TEXT
  8
DIM
 10
108.768569
 20
237.391304
 30
0.0
 40
3.0
  1
119
  0
TEXT
  8
DIM
 10
-101.176777
 20
104.349417
 30
0.0
 40
3.0
  1
0
 50
90.0
  0
LINE
  8
DIM
 10
105.0
 20
136.75
 30
0.0
 11
106.65012
 21
136.202829
 31
0.0
  0
LINE
  8
DIM
 10
105.0
 20
139.5
 30
0.0
 11
106.546929
 21
139.404187
 31
0.0
  0
LINE
  8
DIM
 10
105.0
 20
140.25
 30
0.0
 11
106.65012
 21
142.605545
 31
0.0
  0
LINE
  8
DIM
 10
-33.0
 20
121.5
 30
0.0
 11
-33.0
 21
134.1
 31
0.0
  0
LINE
  8
DIM
 10
-33.0
 20
134.1
 30
0.0
 11
-16.0
 21
134.1
 31
0.0
  0
LINE
  8
DIM
 10
-16.0
 20
134.1
 30
0.0
 11
-16.0
 21
121.5
 31
0.0
  0
LINE
  8
DIM
 10
-16.0
 20
121.5
 30
0.0
 11
-33.0
 21
121.5
 31
0.0
  0
LINE
  8
DIM
 10
-45.5
 20
134.1
 30
0.0
 11
-45.5
 21
121.5
 31
0.0
  0
LINE
  8
DIM
 10
-62.5
 20
134.1
 30
0.0
 11
-45.5
 21
134.1
 31
0.0
  0
LINE
  8
DIM
 10
-62.5
 20
121.5
 30
0.0
 11
-62.5
 21
134.1
 31
0.0
  0
LINE
  8
DIM
 10
-45.5
 20
121.5
 30
0.0
 11
-62.5
 21
121.5
 31
0.0
  0
LINE
  8
DIM
 10
9.5
 20
121.5
 30
0.0
 11
9.5
 21
134.1
 31
0.0
  0
LINE
  8
DIM
 10
9.5
 20
134.1
 30
0.0
 11
-7.5
 21
134.1
 31
0.0
  0
LINE
  8
DIM
 10
-7.5
 20
134.1
 30
0.0
 11
-7.5
 21
121.5
 31
0.0
  0
LINE
  8
DIM
 10
-7.5
 20
121.5
 30
0.0
 11
9.5
 21
121.5
 31
0.0
  0
LINE
  8
DIM
 10
-100.189574
 20
120.0
 30
0.0
 11
-104.185946
 21
120.0
 31
0.0
  0
TEXT
  8
DIM
 10
-108.026386
 20
116.504525
 30
0.0
 40
3.0
  1
0
  0
LINE
  8
DIM
 10
22.48
 20
225.7
 30
0.0
 11
22.48
 21
227.7
 31
0.0
  0
LINE
  8
DIM
 10
21.48
 20
226.7
 30
0.0
 11
23.48
 21
226.7
 31
0.0
  0
LINE
  8
DIM
 10
25.02
 20
225.7
 30
0.0
 11
25.02
 21
227.7
 31
0.0
  0
LINE
  8
DIM
 10
24.02
 20
226.7
 30
0.0
 11
26.02
 21
226.7
 31
0.0
  0
LINE
  8
DIM
 10
42.73
 20
225.7
 30
0.0
 11
42.73
 21
227.7
 31
0.0
  0
LINE
  8
DIM
 10
41.73
 20
226.7
 30
0.0
 11
43.73
 21
226.7
 31
0.0
  0
LINE
  8
DIM
 10
45.27
 20
225.7
 30
0.0
 11
45.27
 21
227.7
 31
0.0
  0
LINE
  8
DIM
 10
44.27
 20
226.7
 30
0.0
 11
46.27
 21
226.7
 31
0.0
  0
LINE
  8
DIM
 10
62.98
 20
225.7
 30
0.0
 11
62.98
 21
227.7
 31
0.0
  0
LINE
  8
DIM
 10
61.98
 20
226.7
 30
0.0
 11
63.98
 21
226.7
 31
0.0
  0
LINE
  8
DIM
 10
65.52
 20
225.7
 30
0.0
 11
65.52
 21
227.7
 31
0.0
  0
LINE
  8
DIM
 10
64.52
 20
226.7
 30
0.0
 11
66.52
 21
226.7
 31
0.0
  0
LINE
  8
DIM
 10
83.23
 20
225.7
 30
0.0
 11
83.23
 21
227.7
 31
0.0
  0
LINE
  8
DIM
 10
82.23
 20
226.7
 30
0.0
 11
84.23
 21
226.7
 31
0.0
  0
LINE
  8
DIM
 10
85.77
 20
225.7
 30
0.0
 11
85.77
 21
227.7
 31
0.0
  0
LINE
  8
DIM
 10
84.77
 20
226.7
 30
0.0
 11
86.77
 21
226.7
 31
0.0
  0
LINE
  8
DIM
 10
84.77
 20
213.2
 30
0.0
 11
86.77
 21
213.2
 31
0.0
  0
LINE
  8
DIM
 10
85.77
 20
212.2
 30
0.0
 11
85.77
 21
214.2
 31
0.0
  0
LINE
  8
DIM
 10
82.23
 20
213.2
 30
0.0
 11
84.23
 21
213.2
 31
0.0
  0
LINE
  8
DIM
 10
83.23
 20
212.2
 30
0.0
 11
83.23
 21
214.2
 31
0.0
  0
LINE
  8
DIM
 10
64.52
 20
213.2
 30
0.0
 11
66.52
 21
213.2
 31
0.0
  0
LINE
  8
DIM
 10
65.52
 20
212.2
 30
0.0
 11
65.52
 21
214.2
 31
0.0
  0
LINE
  8
DIM
 10
61.98
 20
213.2
 30
0.0
 11
63.98
 21
213.2
 31
0.0
  0
LINE
  8
DIM
 10
62.98
 20
212.2
 30
0.0
 11
62.98
 21
214.2
 31
0.0
  0
LINE
  8
DIM
 10
44.27
 20
213.2
 30
0.0
 11
46.27
 21
213.2
 31
0.0
  0
LINE
  8
DIM
 10
45.27
 20
212.2
 30
0.0
 11
45.27
 21
214.2
 31
0.0
  0
LINE
  8
DIM
 10
41.73
 20
213.2
 30
0.0
 11
43.73
 21
213.2
 31
0.0
  0
LINE
  8
DIM
 10
42.73
 20
212.2
 30
0.0
 11
42.73
 21
214.2
 31
0.0
  0
LINE
  8
DIM
 10
24.02
 20
213.2
 30
0.0
 11
26.02
 21
213.2
 31
0.0
  0
LINE
  8
DIM
 10
25.02
 20
212.2
 30
0.0
 11
25.02
 21
214.2
 31
0.0
  0
LINE
  8
DIM
 10
21.48
 20
213.2
 30
0.0
 11
23.48
 21
213.2
 31
0.0
  0
LINE
  8
DIM
 10
22.48
 20
212.2
 30
0.0
 11
22.48
 21
214.2
 31
0.0
  0
LINE
  8
DIM
 10
84.77
 20
199.7
 30
0.0
 11
86.77
 21
199.7
 31
0.0
  0
LINE
  8
DIM
 10
85.77
 20
198.7
 30
0.0
 11
85.77
 21
200.7
 31
0.0
  0
LINE
  8
DIM
 10
82.23
 20
199.7
 30
0.0
 11
84.23
 21
199.7
 31
0.0
  0
LINE
  8
DIM
 10
83.23
 20
198.7
 30
0.0
 11
83.23
 21
200.7
 31
0.0
  0
LINE
  8
DIM
 10
64.52
 20
199.7
 30
0.0
 11
66.52
 21
199.7
 31
0.0
  0
LINE
  8
DIM
 10
65.52
 20
198.7
 30
0.0
 11
65.52
 21
200.7
 31
0.0
  0
LINE
  8
DIM
 10
61.98
 20
199.7
 30
0.0
 11
63.98
 21
199.7
 31
0.0
  0
LINE
  8
DIM
 10
62.98
 20
198.7
 30
0.0
 11
62.98
 21
200.7
 31
0.0
  0
LINE
  8
DIM
 10
24.02
 20
199.7
 30
0.0
 11
26.02
 21
199.7
 31
0.0
  0
LINE
  8
DIM
 10
25.02
 20
198.7
 30
0.0
 11
25.02
 21
200.7
 31
0.0
  0
LINE
  8
DIM
 10
21.48
 20
199.7
 30
0.0
 11
23.48
 21
199.7
 31
0.0
  0
LINE
  8
DIM
 10
22.48
 20
198.7
 30
0.0
 11
22.48
 21
200.7
 31
0.0
  0
LINE
  8
DIM
 10
84.77
 20
186.2
 30
0.0
 11
86.77
 21
186.2
 31
0.0
  0
LINE
  8
DIM
 10
85.77
 20
185.2
 30
0.0
 11
85.77
 21
187.2
 31
0.0
  0
LINE
  8
DIM
 10
82.23
 20
186.2
 30
0.0
 11
84.23
 21
186.2
 31
0.0
  0
LINE
  8
DIM
 10
83.23
 20
185.2
 30
0.0
 11
83.23
 21
187.2
 31
0.0
  0
LINE
  8
DIM
 10
24.02
 20
186.2
 30
0.0
 11
26.02
 21
186.2
 31
0.0
  0
LINE
  8
DIM
 10
25.02
 20
185.2
 30
0.0
 11
25.02
 21
187.2
 31
0.0
  0
LINE
  8
DIM
 10
21.48
 20
186.2
 30
0.0
 11
23.48
 21
186.2
 31
0.0
  0
LINE
  8
DIM
 10
22.48
 20
185.2
 30
0.0
 11
22.48
 21
187.2
 31
0.0
  0
LINE
  8
DIM
 10
84.77
 20
172.7
 30
0.0
 11
86.77
 21
172.7
 31
0.0
  0
LINE
  8
DIM
 10
85.77
 20
171.7
 30
0.0
 11
85.77
 21
173.7
 31
0.0
  0
LINE
  8
DIM
 10
82.23
 20
172.7
 30
0.0
 11
84.23
 21
172.7
 31
0.0
  0
LINE
  8
DIM
 10
83.23
 20
171.7
 30
0.0
 11
83.23
 21
173.7
 31
0.0
  0
LINE
  8
DIM
 10
24.02
 20
172.7
 30
0.0
 11
26.02
 21
172.7
 31
0.0
  0
LINE
  8
DIM
 10
25.02
 20
171.7
 30
0.0
 11
25.02
 21
173.7
 31
0.0
  0
LINE
  8
DIM
 10
21.48
 20
172.7
 30
0.0
 11
23.48
 21
172.7
 31
0.0
  0
LINE
  8
DIM
 10
22.48
 20
171.7
 30
0.0
 11
22.48
 21
173.7
 31
0.0
  0
LINE
  8
DIM
 10
84.77
 20
159.2
 30
0.0
 11
86.77
 21
159.2
 31
0.0
  0
LINE
  8
DIM
 10
85.77
 20
158.2
 30
0.0
 11
85.77
 21
160.2
 31
0.0
  0
LINE
  8
DIM
 10
82.23
 20
159.2
 30
0.0
 11
84.23
 21
159.2
 31
0.0
  0
LINE
  8
DIM
 10
83.23
 20
158.2
 30
0.0
 11
83.23
 21
160.2
 31
0.0
  0
LINE
  8
DIM
 10
64.52
 20
159.2
 30
0.0
 11
66.52
 21
159.2
 31
0.0
  0
LINE
  8
DIM
 10
65.52
 20
158.2
 30
0.0
 11
65.52
 21
160.2
 31
0.0
  0
LINE
  8
DIM
 10
61.98
 20
159.2
 30
0.0
 11
63.98
 21
159.2
 31
0.0
  0
LINE
  8
DIM
 10
62.98
 20
158.2
 30
0.0
 11
62.98
 21
160.2
 31
0.0
  0
LINE
  8
DIM
 10
44.27
 20
159.2
 30
0.0
 11
46.27
 21
159.2
 31
0.0
  0
LINE
  8
DIM
 10
45.27
 20
158.2
 30
0.0
 11
45.27
 21
160.2
 31
0.0
  0
LINE
  8
DIM
 10
41.73
 20
159.2
 30
0.0
 11
43.73
 21
159.2
 31
0.0
  0
LINE
  8
DIM
 10
42.73
 20
158.2
 30
0.0
 11
42.73
 21
160.2
 31
0.0
  0
LINE
  8
DIM
 10
24.02
 20
159.2
 30
0.0
 11
26.02
 21
159.2
 31
0.0
  0
LINE
  8
DIM
 10
25.02
 20
158.2
 30
0.0
 11
25.02
 21
160.2
 31
0.0
  0
LINE
  8
DIM
 10
21.48
 20
159.2
 30
0.0
 11
23.48
 21
159.2
 31
0.0
  0
LINE
  8
DIM
 10
22.48
 20
158.2
 30
0.0
 11
22.48
 21
160.2
 31
0.0
  0
LINE
  8
DIM
 10
64.52
 20
145.7
 30
0.0
 11
66.52
 21
145.7
 31
0.0
  0
LINE
  8
DIM
 10
65.52
 20
144.7
 30
0.0
 11
65.52
 21
146.7
 31
0.0
  0
LINE
  8
DIM
 10
61.98
 20
145.7
 30
0.0
 11
63.98
 21
145.7
 31
0.0
  0
LINE
  8
DIM
 10
62.98
 20
144.7
 30
0.0
 11
62.98
 21
146.7
 31
0.0
  0
LINE
  8
DIM
 10
44.27
 20
145.7
 30
0.0
 11
46.27
 21
145.7
 31
0.0
  0
LINE
  8
DIM
 10
45.27
 20
144.7
 30
0.0
 11
45.27
 21
146.7
 31
0.0
  0
LINE
  8
DIM
 10
41.73
 20
145.7
 30
0.0
 11
43.73
 21
145.7
 31
0.0
  0
LINE
  8
DIM
 10
42.73
 20
144.7
 30
0.0
 11
42.73
 21
146.7
 31
0.0
  0
LINE
  8
DIM
 10
24.02
 20
145.7
 30
0.0
 11
26.02
 21
145.7
 31
0.0
  0
LINE
  8
DIM
 10
25.02
 20
144.7
 30
0.0
 11
25.02
 21
146.7
 31
0.0
  0
LINE
  8
DIM
 10
21.48
 20
145.7
 30
0.0
 11
23.48
 21
145.7
 31
0.0
  0
LINE
  8
DIM
 10
22.48
 20
144.7
 30
0.0
 11
22.48
 21
146.7
 31
0.0
  0
LINE
  8
DIM
 10
44.27
 20
132.2
 30
0.0
 11
46.27
 21
132.2
 31
0.0
  0
LINE
  8
DIM
 10
45.27
 20
131.2
 30
0.0
 11
45.27
 21
133.2
 31
0.0
  0
LINE
  8
DIM
 10
41.73
 20
132.2
 30
0.0
 11
43.73
 21
132.2
 31
0.0
  0
LINE
  8
DIM
 10
42.73
 20
131.2
 30
0.0
 11
42.73
 21
133.2
 31
0.0
  0
LINE
  8
DIM
 10
24.02
 20
132.2
 30
0.0
 11
26.02
 21
132.2
 31
0.0
  0
LINE
  8
DIM
 10
25.02
 20
131.2
 30
0.0
 11
25.02
 21
133.2
 31
0.0
  0
LINE
  8
DIM
 10
21.48
 20
132.2
 30
0.0
 11
23.48
 21
132.2
 31
0.0
  0
LINE
  8
DIM
 10
22.48
 20
131.2
 30
0.0
 11
22.48
 21
133.2
 31
0.0
  0
LINE
  8
DIM
 10
67.821069
 20
226.668828
 30
0.0
 11
71.34523
 21
226.668828
 31
0.0
  0
LINE
  8
DIM
 10
67.821069
 20
220.477933
 30
0.0
 11
71.34523
 21
220.477933
 31
0.0
  0
LINE
  8
DIM
 10
70.870398
 20
220.477933
 30
0.0
 11
70.870398
 21
226.668828
 31
0.0
  0
LINE
  8
DIM
 10
62.965559
 20
228.627973
 30
0.0
 11
62.965559
 21
231.135677
 31
0.0
  0
LINE
  8
DIM
 10
65.510786
 20
228.627973
 30
0.0
 11
65.510786
 21
231.135677
 31
0.0
  0
LINE
  8
DIM
 10
62.926402
 20
229.881825
 30
0.0
 11
65.510786
 21
229.881825
 31
0.0
  0
TEXT
  8
DIM
 10
52.967517
 20
230.077739
 30
0.0
 40
3.0
  1
2.54
  0
TEXT
  8
DIM
 10
70.161515
 20
213.584663
 30
0.0
 40
3.0
  1
6.2
 50
90.0
  0
LINE
  8
DIM
 10
70.870398
 20
220.477933
 30
0.0
 11
70.870398
 21
213.245282
 31
0.0
  0
LINE
  8
DIM
 10
62.862974
 20
229.881825
 30
0.0
 11
52.84949
 21
229.881825
 31
0.0
  0
LINE
  8
DIM
 10
65.502156
 20
229.879128
 30
0.0
 11
64.473668
 21
230.393835
 31
0.0
  0
LINE
  8
DIM
 10
64.473668
 20
230.393835
 30
0.0
 11
64.48461
 21
229.452031
 31
0.0
  0
LINE
  8
DIM
 10
64.48461
 20
229.452031
 30
0.0
 11
65.502156
 21
229.879128
 31
0.0
  0
LINE
  8
DIM
 10
62.963761
 20
229.879128
 30
0.0
 11
63.806246
 21
230.393835
 31
0.0
  0
LINE
  8
DIM
 10
63.806246
 20
230.393835
 30
0.0
 11
63.795304
 21
229.441079
 31
0.0
  0
LINE
  8
DIM
 10
63.795304
 20
229.441079
 30
0.0
 11
62.95282
 21
229.879128
 31
0.0
  0
LINE
  8
DIM
 10
70.870453
 20
226.668077
 30
0.0
 11
70.427174
 21
225.468823
 31
0.0
  0
LINE
  8
DIM
 10
70.427174
 20
225.468823
 30
0.0
 11
71.418034
 21
225.468823
 31
0.0
  0
LINE
  8
DIM
 10
71.418034
 20
225.468823
 30
0.0
 11
70.870453
 21
226.668077
 31
0.0
  0
LINE
  8
DIM
 10
70.870453
 20
220.46324
 30
0.0
 11
70.427174
 21
221.740707
 31
0.0
  0
LINE
  8
DIM
 10
70.427174
 20
221.740707
 30
0.0
 11
71.287658
 21
221.688565
 31
0.0
  0
LINE
  8
DIM
 10
71.287658
 20
221.688565
 30
0.0
 11
70.870453
 21
220.46324
 31
0.0
  0
LINE
  8
DIM
 10
-71.75
 20
119.0
 30
0.0
 11
-71.75
 21
110.0
 31
0.0
  0
LINE
  8
DIM
 10
3.0
 20
119.0
 30
0.0
 11
3.0
 21
110.0
 31
0.0
  0
LINE
  8
DIM
 10
-66.77
 20
127.75
 30
0.0
 11
-66.77
 21
129.75
 31
0.0
  0
LINE
  8
DIM
 10
-67.77
 20
128.75
 30
0.0
 11
-65.77
 21
128.75
 31
0.0
  0
LINE
  8
DIM
 10
-64.23
 20
127.75
 30
0.0
 11
-64.23
 21
129.75
 31
0.0
  0
LINE
  8
DIM
 10
-65.23
 20
128.75
 30
0.0
 11
-63.23
 21
128.75
 31
0.0
  0
LINE
  8
DIM
 10
-40.27
 20
127.75
 30
0.0
 11
-40.27
 21
129.75
 31
0.0
  0
LINE
  8
DIM
 10
-41.27
 20
128.75
 30
0.0
 11
-39.27
 21
128.75
 31
0.0
  0
LINE
  8
DIM
 10
-37.73
 20
127.75
 30
0.0
 11
-37.73
 21
129.75
 31
0.0
  0
LINE
  8
DIM
 10
-38.73
 20
128.75
 30
0.0
 11
-36.73
 21
128.75
 31
0.0
  0
LINE
  8
DIM
 10
-13.02
 20
127.75
 30
0.0
 11
-13.02
 21
129.75
 31
0.0
  0
LINE
  8
DIM
 10
-14.02
 20
128.75
 30
0.0
 11
-12.02
 21
128.75
 31
0.0
  0
LINE
  8
DIM
 10
-10.48
 20
127.75
 30
0.0
 11
-10.48
 21
129.75
 31
0.0
  0
LINE
  8
DIM
 10
-11.48
 20
128.75
 30
0.0
 11
-9.48
 21
128.75
 31
0.0
  0
LINE
  8
DIM
 10
-97.27
 20
127.75
 30
0.0
 11
-97.27
 21
129.75
 31
0.0
  0
LINE
  8
DIM
 10
-98.27
 20
128.75
 30
0.0
 11
-96.27
 21
128.75
 31
0.0
  0
LINE
  8
DIM
 10
-94.73
 20
127.75
 30
0.0
 11
-94.73
 21
129.75
 31
0.0
  0
LINE
  8
DIM
 10
-95.73
 20
128.75
 30
0.0
 11
-93.73
 21
128.75
 31
0.0
  0
LINE
  8
DIM
 10
-66.77
 20
119.0
 30
0.0
 11
-66.77
 21
110.0
 31
0.0
  0
LINE
  8
DIM
 10
-64.23
 20
119.0
 30
0.0
 11
-64.23
 21
110.0
 31
0.0
  0
LINE
  8
DIM
 10
-40.27
 20
119.0
 30
0.0
 11
-40.27
 21
110.0
 31
0.0
  0
LINE
  8
DIM
 10
-37.73
 20
119.0
 30
0.0
 11
-37.73
 21
110.0
 31
0.0
  0
LINE
  8
DIM
 10
-13.02
 20
119.0
 30
0.0
 11
-13.02
 21
110.0
 31
0.0
  0
LINE
  8
DIM
 10
-10.48
 20
119.0
 30
0.0
 11
-10.48
 21
110.0
 31
0.0
  0
LINE
  8
DIM
 10
-97.27
 20
119.0
 30
0.0
 11
-97.27
 21
110.0
 31
0.0
  0
LINE
  8
DIM
 10
-94.73
 20
119.0
 30
0.0
 11
-94.73
 21
110.0
 31
0.0
  0
LINE
  8
DIM
 10
-103.189574
 20
120.0
 30
0.0
 11
-103.189574
 21
121.25
 31
0.0
  0
LINE
  8
0
 10
-75.0
 20
120.0
 30
0.0
 11
-99.0
 21
120.0
 31
0.0
  0
LINE
  8
0
 10
-99.0
 20
120.0
 30
0.0
 11
-99.0
 21
130.751501
 31
0.0
  0
LINE
  8
DIM
 10
-75.0
 20
113.0
 30
0.0
 11
-99.000225
 21
113.0
 31
0.0
  0
TEXT
  8
DIM
 10
14.669404
 20
97.160109
 30
0.0
 40
3.0
  1
111.5
 50
90.0
  0
TEXT
  8
DIM
 10
27.415373
 20
100.097843
 30
0.0
 40
3.0
  1
124
 50
90.0
  0
TEXT
  8
DIM
 10
55.124444
 20
92.790051
 30
0.0
 40
3.0
  1
152.75
 50
90.0
  0
TEXT
  8
DIM
 10
80.387591
 20
94.65523
 30
0.0
 40
3.0
  1
178
 50
90.0
  0
TEXT
  8
DIM
 10
86.447961
 20
94.116803
 30
0.0
 40
3.0
  1
183.5
 50
90.0
  0
TEXT
  8
DIM
 10
94.658009
 20
93.235004
 30
0.0
 40
3.0
  1
191.75
 50
90.0
  0
CIRCLE
  8
0
 10
-89.75
 20
127.8
 30
0.0
 40
1.6
  0
LINE
  8
DIM
 10
-91.75
 20
127.8
 30
0.0
 11
-87.75
 21
127.8
 31
0.0
  0
LINE
  8
DIM
 10
-89.75
 20
125.8
 30
0.0
 11
-89.75
 21
129.8
 31
0.0
  0
TEXT
  8
DIM
 10
-70.016528
 20
96.498414
 30
0.0
 40
3.0
  1
27.25
 50
90.0
  0
TEXT
  8
DIM
 10
-87.030759
 20
98.515227
 30
0.0
 40
3.0
  1
9.25
 50
90.0
  0
TEXT
  8
DIM
 10
-54.531722
 20
101.216143
 30
0.0
 40
3.0
  1
43
 50
90.0
  0
TEXT
  8
DIM
 10
-25.251538
 20
97.49162
 30
0.0
 40
3.0
  1
72.5
 50
90.0
  0
TEXT
  8
DIM
 10
4.524921
 20
100.967842
 30
0.0
 40
3.0
  1
102
 50
90.0
  0
LINE
  8
DIM
 10
-89.75
 20
119.0
 30
0.0
 11
-89.75
 21
110.0
 31
0.0
  0
LINE
  8
0
 10
-86.75
 20
123.7
 30
0.0
 11
-86.75
 21
130.8
 31
0.0
  0
LINE
  8
0
 10
-85.55
 20
132.0
 30
0.0
 11
-75.95
 21
132.0
 31
0.0
  0
LINE
  8
0
 10
-74.75
 20
130.8
 30
0.0
 11
-74.75
 21
123.7
 31
0.0
  0
LINE
  8
0
 10
-75.95
 20
122.5
 30
0.0
 11
-85.55
 21
122.5
 31
0.0
  0
LINE
  8
DIM
 10
-86.75
 20
119.0
 30
0.0
 11
-86.75
 21
110.0
 31
0.0
  0
LINE
  8
DIM
 10
-74.75
 20
119.0
 30
0.0
 11
-74.75
 21
110.0
 31
0.0
  0
LINE
  8
DIM
 10
-100.189574
 20
122.5
 30
0.0
 11
-104.185946
 21
122.5
 31
0.0
  0
LINE
  8
DIM
 10
-100.189574
 20
132.0
 30
0.0
 11
-104.185946
 21
132.0
 31
0.0
  0
LINE
  8
DIM
 10
-103.189574
 20
121.25
 30
0.0
 11
-103.189574
 21
131.916731
 31
0.0
  0
TEXT
  8
DIM
 10
-83.346104
 20
96.853086
 30
0.0
 40
3.0
  1
12.25
 50
90.0
  0
TEXT
  8
DIM
 10
-73.791713
 20
96.337444
 30
0.0
 40
3.0
  1
24.25
 50
90.0
  0
TEXT
  8
DIM
 10
-111.02117
 20
120.652327
 30
0.0
 40
3.0
  1
2.5
  0
TEXT
  8
DIM
 10
-109.109746
 20
133.116599
 30
0.0
 40
3.0
  1
12
  0
LINE
  8
DIM
 10
-104.185946
 20
120.0
 30
0.0
 11
-105.481839
 21
118.123312
 31
0.0
  0
LINE
  8
DIM
 10
-71.98821
 20
129.209611
 30
0.0
 11
-77.141076
 21
141.971747
 31
0.0
  0
LINE
  8
DIM
 10
-77.141076
 20
141.971747
 30
0.0
 11
-99.040757
 21
141.971747
 31
0.0
  0
TEXT
  8
DIM
 10
-97.917743
 20
143.603118
 30
0.0
 40
3.0
  1
ù3.2(9x)
  0
LINE
  8
0
 10
12.5
 20
149.248954
 30
0.0
 11
12.5
 21
170.222176
 31
0.0
  0
LINE
  8
0
 10
12.5
 20
176.246237
 30
0.0
 11
12.5
 21
197.252991
 31
0.0
  0
LINE
  8
0
 10
12.5
 20
170.222176
 30
0.0
 11
12.5
 21
170.2423
 31
0.0
  0
LINE
  8
0
 10
12.5
 20
203.239866
 30
0.0
 11
12.5
 21
227.5
 31
0.0
  0
LINE
  8
0
 10
12.5
 20
203.239866
 30
0.0
 11
12.5
 21
197.174103
 31
0.0
  0
LINE
  8
0
 10
12.5
 20
176.246237
 30
0.0
 11
12.5
 21
170.069313
 31
0.0
  0
LINE
  8
0
 10
12.5
 20
149.248954
 30
0.0
 11
12.5
 21
143.030176
 31
0.0
  0
ARC
  8
0
 10
-65.5
 20
133.75
 30
0.0
 40
3.0
 50
179.752478
 51
357.060358
  0
ARC
  8
0
 10
-39.0
 20
133.75
 30
0.0
 40
3.0
 50
180.349567
 51
0.850708
  0
ARC
  8
0
 10
-11.75
 20
133.75
 30
0.0
 40
3.0
 50
179.870322
 51
0.370481
  0
LINE
  8
DIM
 10
-67.5
 20
133.75
 30
0.0
 11
-63.5
 21
133.75
 31
0.0
  0
LINE
  8
DIM
 10
-65.5
 20
131.75
 30
0.0
 11
-65.5
 21
135.75
 31
0.0
  0
LINE
  8
DIM
 10
-41.0
 20
133.75
 30
0.0
 11
-37.0
 21
133.75
 31
0.0
  0
LINE
  8
DIM
 10
-39.0
 20
131.75
 30
0.0
 11
-39.0
 21
135.75
 31
0.0
  0
LINE
  8
DIM
 10
-13.75
 20
133.75
 30
0.0
 11
-9.75
 21
133.75
 31
0.0
  0
LINE
  8
DIM
 10
-11.75
 20
131.75
 30
0.0
 11
-11.75
 21
135.75
 31
0.0
  0
LINE
  8
0
 10
-99.0
 20
130.75
 30
0.0
 11
-96.0
 21
130.75
 31
0.0
  0
LINE
  8
0
 10
-93.0
 20
133.75
 30
0.0
 11
-93.0
 21
136.75
 31
0.0
  0
LINE
  8
0
 10
-93.000434
 20
136.75
 30
0.0
 11
-75.0
 21
136.75
 31
0.0
  0
ARC
  8
0
 10
-96.0
 20
133.75
 30
0.0
 40
3.0
 50
270.0
 51
0.0
  0
LINE
  8
DIM
 10
-100.189574
 20
130.75
 30
0.0
 11
-104.185946
 21
130.75
 31
0.0
  0
LINE
  8
DIM
 10
-93.0
 20
119.0
 30
0.0
 11
-93.0
 21
110.0
 31
0.0
  0
TEXT
  8
DIM
 10
-115.740574
 20
129.295001
 30
0.0
 40
3.0
  1
10.75
  0
TEXT
  8
DIM
 10
-90.698978
 20
101.47414
 30
0.0
 40
3.0
  1
6
 50
90.0
  0
LINE
  8
DIM
 10
-86.75
 20
110.0
 30
0.0
 11
-84.819646
 21
108.664875
 31
0.0
  0
LINE
  8
DIM
 10
-89.75
 20
110.0
 30
0.0
 11
-88.7392
 21
108.446974
 31
0.0
  0
LINE
  8
DIM
 10
-93.0
 20
110.0
 30
0.0
 11
-92.223249
 21
104.524755
 31
0.0
  0
LINE
  8
DIM
 10
-99.0
 20
110.0
 30
0.0
 11
-102.675393
 21
107.139568
 31
0.0
  0
LINE
  8
DIM
 10
-97.27
 20
110.0
 30
0.0
 11
-98.208086
 21
108.446974
 31
0.0
  0
LINE
  8
DIM
 10
-94.73
 20
110.0
 30
0.0
 11
-95.601791
 21
108.446974
 31
0.0
  0
LINE
  8
DIM
 10
-94.400779
 20
131.544485
 30
0.0
 11
-102.022134
 21
142.657439
 31
0.0
  0
LINE
  8
DIM
 10
-102.022134
 20
142.657439
 30
0.0
 11
-113.563044
 21
142.657439
 31
0.0
  0
TEXT
  8
DIM
 10
-112.474279
 20
143.746944
 30
0.0
 40
3.0
  1
R=3
  0
LINE
  8
0
 10
-62.545006
 20
133.739279
 30
0.0
 11
-62.545006
 21
136.749974
 31
0.0
  0
LINE
  8
0
 10
-68.505895
 20
133.762986
 30
0.0
 11
-68.505895
 21
136.749974
 31
0.0
  0
LINE
  8
0
 10
-62.545006
 20
136.75
 30
0.0
 11
-42.005751
 21
136.75
 31
0.0
  0
LINE
  8
0
 10
-62.545006
 20
133.810398
 30
0.0
 11
-62.545006
 21
133.549629
 31
0.0
  0
LINE
  8
0
 10
-42.005751
 20
133.731661
 30
0.0
 11
-42.005751
 21
136.749067
 31
0.0
  0
LINE
  8
0
 10
-36.001496
 20
133.731661
 30
0.0
 11
-36.001496
 21
136.749067
 31
0.0
  0
LINE
  8
0
 10
-36.014057
 20
136.75
 30
0.0
 11
-14.75729
 21
136.75
 31
0.0
  0
LINE
  8
0
 10
-14.75729
 20
133.756806
 30
0.0
 11
-14.75729
 21
136.749067
 31
0.0
  0
LINE
  8
0
 10
-8.753035
 20
133.744234
 30
0.0
 11
-8.753035
 21
136.749067
 31
0.0
  0
LINE
  8
0
 10
-8.765596
 20
136.75
 30
0.0
 11
11.3
 21
136.75
 31
0.0
  0
LINE
  8
DIM
 10
-36.316429
 20
130.10179
 30
0.0
 11
-46.496382
 21
143.842514
 31
0.0
  0
LINE
  8
DIM
 10
-46.496382
 20
143.842514
 30
0.0
 11
-58.096794
 21
143.842514
 31
0.0
  0
TEXT
  8
DIM
 10
-61.174454
 20
145.263969
 30
0.0
 40
3.0
  1
R=3(3x)
  0
LINE
  8
DIM
 10
-100.189574
 20
133.75
 30
0.0
 11
-104.185946
 21
133.75
 31
0.0
  0
LINE
  8
DIM
 10
-100.189574
 20
128.75
 30
0.0
 11
-104.185946
 21
128.75
 31
0.0
  0
TEXT
  8
DIM
 10
-116.098854
 20
136.862833
 30
0.0
 40
3.0
  1
13.75
  0
TEXT
  8
DIM
 10
-114.441652
 20
125.755437
 30
0.0
 40
3.0
  1
8.75
  0
LINE
  8
DIM
 10
-103.189574
 20
131.916731
 30
0.0
 11
-103.189574
 21
133.655425
 31
0.0
  0
LINE
  8
DIM
 10
-104.185946
 20
133.75
 30
0.0
 11
-104.185946
 21
138.13557
 31
0.0
  0
LINE
  8
DIM
 10
-104.185946
 20
138.13557
 30
0.0
 11
-104.618268
 21
138.13557
 31
0.0
  0
LINE
  8
DIM
 10
-104.185946
 20
132.0
 30
0.0
 11
-104.701758
 21
133.708764
 31
0.0
  0
TEXT
  8
DIM
 10
-62.907617
 20
98.829795
 30
0.0
 40
3.0
  1
33.5
 50
90.0
  0
TEXT
  8
DIM
 10
-37.500145
 20
99.066704
 30
0.0
 40
3.0
  1
60
 50
90.0
  0
TEXT
  8
DIM
 10
-10.037945
 20
95.986887
 30
0.0
 40
3.0
  1
87.25
 50
90.0
  0
LINE
  8
DIM
 10
-65.5
 20
119.0
 30
0.0
 11
-65.5
 21
110.0
 31
0.0
  0
LINE
  8
DIM
 10
-39.0
 20
119.0
 30
0.0
 11
-39.0
 21
110.0
 31
0.0
  0
LINE
  8
DIM
 10
-11.75
 20
119.0
 30
0.0
 11
-11.75
 21
110.0
 31
0.0
  0
LINE
  8
DIM
 10
-66.77
 20
110.0
 30
0.0
 11
-67.710004
 21
109.016884
 31
0.0
  0
LINE
  8
DIM
 10
-64.23
 20
110.0
 30
0.0
 11
-62.214684
 21
108.543066
 31
0.0
  0
TEXT
  8
DIM
 10
22.672515
 20
92.984667
 30
0.0
 40
3.0
  1
122.75
 50
90.0
  0
TEXT
  8
DIM
 10
35.637126
 20
93.36624
 30
0.0
 40
3.0
  1
132.88
 50
90.0
  0
TEXT
  8
DIM
 10
44.788616
 20
98.708255
 30
0.0
 40
3.0
  1
143
 50
90.0
  0
TEXT
  8
DIM
 10
65.760781
 20
92.984667
 30
0.0
 40
3.0
  1
163.25
 50
90.0
  0
TEXT
  8
DIM
 10
76.056207
 20
93.36624
 30
0.0
 40
3.0
  1
173.35
 50
90.0
  0
CIRCLE
  8
0
 10
53.75
 20
173.25
 30
0.0
 40
4.0
  0
LINE
  8
0
 10
52.25
 20
182.2
 30
0.0
 11
55.25
 21
182.2
 31
0.0
  0
LINE
  8
0
 10
55.25
 20
182.2
 30
0.0
 11
55.25
 21
180.7
 31
0.0
  0
LINE
  8
0
 10
55.25
 20
180.7
 30
0.0
 11
52.25
 21
180.7
 31
0.0
  0
LINE
  8
0
 10
52.25
 20
180.7
 30
0.0
 11
52.25
 21
182.2
 31
0.0
  0
LINE
  8
DIM
 10
57.216247
 20
174.250383
 30
0.0
 11
62.716805
 21
176.787459
 31
0.0
  0
LINE
  8
DIM
 10
62.716805
 20
176.787459
 30
0.0
 11
62.716805
 21
186.09007
 31
0.0
  0
LINE
  8
DIM
 10
48.638051
 20
173.253504
 30
0.0
 11
44.657058
 21
173.253504
 31
0.0
  0
LINE
  8
DIM
 10
48.638051
 20
181.404716
 30
0.0
 11
44.657058
 21
181.404716
 31
0.0
  0
LINE
  8
DIM
 10
55.629064
 20
182.27806
 30
0.0
 11
58.541986
 21
182.27806
 31
0.0
  0
LINE
  8
DIM
 10
55.629064
 20
180.725448
 30
0.0
 11
58.541986
 21
180.725448
 31
0.0
  0
LINE
  8
DIM
 10
55.240674
 20
182.763251
 30
0.0
 11
55.240674
 21
185.092169
 31
0.0
  0
LINE
  8
DIM
 10
52.230655
 20
182.763251
 30
0.0
 11
52.230655
 21
185.092169
 31
0.0
  0
LINE
  8
DIM
 10
45.72513
 20
181.404716
 30
0.0
 11
45.72513
 21
173.350542
 31
0.0
  0
LINE
  8
DIM
 10
55.143577
 20
184.606978
 30
0.0
 11
52.133558
 21
184.606978
 31
0.0
  0
LINE
  8
DIM
 10
57.862304
 20
180.822486
 30
0.0
 11
57.862304
 21
185.868475
 31
0.0
  0
TEXT
  8
DIM
 10
46.210617
 20
180.046181
 30
0.0
 40
3.0
  1
8.2
 50
270.0
  0
TEXT
  8
DIM
 10
63.008466
 20
185.286246
 30
0.0
 40
3.0
  1
ù8
 50
270.0
  0
TEXT
  8
DIM
 10
58.153596
 20
187.615163
 30
0.0
 40
3.0
  1
1.5
 50
270.0
  0
TEXT
  8
DIM
 10
52.619045
 20
186.062551
 30
0.0
 40
3.0
  1
3
 50
0.0
  0
LINE
  8
DIM
 10
41.245
 20
169.25
 30
0.0
 11
41.245
 21
167.25
 31
0.0
  0
LINE
  8
DIM
 10
40.245
 20
168.25
 30
0.0
 11
42.245
 21
168.25
 31
0.0
  0
LINE
  8
DIM
 10
40.245
 20
173.25
 30
0.0
 11
42.245
 21
173.25
 31
0.0
  0
LINE
  8
DIM
 10
41.245
 20
174.25
 30
0.0
 11
41.245
 21
172.25
 31
0.0
  0
LINE
  8
DIM
 10
40.245
 20
178.25
 30
0.0
 11
42.245
 21
178.25
 31
0.0
  0
LINE
  8
DIM
 10
41.245
 20
179.25
 30
0.0
 11
41.245
 21
177.25
 31
0.0
  0
LINE
  8
DIM
 10
53.723131
 20
168.477401
 30
0.0
 11
53.723131
 21
164.295642
 31
0.0
  0
LINE
  8
DIM
 10
41.183809
 20
166.576601
 30
0.0
 11
41.183809
 21
164.200602
 31
0.0
  0
LINE
  8
DIM
 10
39.378906
 20
173.2294
 30
0.0
 11
34.534169
 21
173.2294
 31
0.0
  0
LINE
  8
DIM
 10
39.378906
 20
168.192281
 30
0.0
 11
34.439174
 21
168.192281
 31
0.0
  0
LINE
  8
DIM
 10
35.294127
 20
168.097241
 30
0.0
 11
35.294127
 21
173.13436
 31
0.0
  0
LINE
  8
DIM
 10
41.183809
 20
164.675802
 30
0.0
 11
53.723131
 21
164.675802
 31
0.0
  0
TEXT
  8
DIM
 10
43.083706
 20
165.151001
 30
0.0
 40
3.0
  1
12.5
  0
TEXT
  8
DIM
 10
35.865044
 20
171.707768
 30
0.0
 40
3.0
  1
5
 50
270.0
  0
TEXT
  8
DIM
 10
-97.658212
 20
99.643946
 30
0.0
 40
3.0
  1
1.73
 50
90.0
  0
TEXT
  8
DIM
 10
-94.279242
 20
99.445052
 30
0.0
 40
3.0
  1
4.27
 50
90.0
  0
TEXT
  8
DIM
 10
-66.452433
 20
96.461657
 30
0.0
 40
3.0
  1
32.23
 50
90.0
  0
TEXT
  8
DIM
 10
-59.296968
 20
96.063871
 30
0.0
 40
3.0
  1
34.77
 50
90.0
  0
TEXT
  8
DIM
 10
-41.209542
 20
96.461657
 30
0.0
 40
3.0
  1
58.73
 50
90.0
  0
TEXT
  8
DIM
 10
-33.656551
 20
97.853908
 30
0.0
 40
3.0
  1
61.27
 50
90.0
  0
TEXT
  8
DIM
 10
-14.177784
 20
96.063871
 30
0.0
 40
3.0
  1
85.98
 50
90.0
  0
TEXT
  8
DIM
 10
-6.028504
 20
96.063871
 30
0.0
 40
3.0
  1
88.52
 50
90.0
  0
ARC
  8
0
 10
23.8
 20
228.7
 30
0.0
 40
1.2
 50
270.0
 51
0.0
  0
ARC
  8
0
 10
80.2
 20
228.7
 30
0.0
 40
1.2
 50
180.0
 51
270.0
  0
ARC
  8
0
 10
80.2
 20
139.05
 30
0.0
 40
1.2
 50
90.0
 51
180.0
  0
ARC
  8
0
 10
11.3
 20
137.95
 30
0.0
 40
1.2
 50
270.0
 51
0.0
  0
ARC
  8
0
 10
-75.95
 20
130.8
 30
0.0
 40
1.2
 50
0.0
 51
90.0
  0
ARC
  8
0
 10
-75.95
 20
123.7
 30
0.0
 40
1.2
 50
270.0
 51
0.0
  0
ARC
  8
0
 10
-85.55
 20
123.7
 30
0.0
 40
1.2
 50
180.0
 51
270.0
  0
ARC
  8
0
 10
-85.55
 20
130.8
 30
0.0
 40
1.2
 50
90.0
 51
180.0
  0
LINE
  8
DIM
 10
12.103232
 20
137.208017
 30
0.0
 11
8.001373
 21
144.597
 31
0.0
  0
LINE
  8
DIM
 10
8.001373
 20
144.597
 30
0.0
 11
-9.568257
 21
144.597
 31
0.0
  0
TEXT
  8
DIM
 10
-15.174131
 20
145.075915
 30
0.0
 40
3.0
  1
R=MAX 1.2
  0
TEXT
  8
DIM
 10
-9.431528
 20
140.075915
 30
0.0
 40
3.0
  1
(8x)
  0
LINE
  8
DIM
 10
-9.568257
 20
144.597
 30
0.0
 11
-16.678146
 21
144.597
 31
0.0
  0
TEXT
  8
DIM
 10
118.597114
 20
16.666667
 30
0.0
 40
4.0
  1
KEYBOARD PCB.
  0
TEXT
  8
DIM
 10
194.633427
 20
15.942029
 30
0.0
 40
4.0
  1
4008 117 0587
  0
TEXT
  8
DIM
 10
138.664574
 20
3.937327
 30
0.0
 40
3.0
  1
93-26-08
  0
TEXT
  8
DIM
 10
129.155603
 20
24.936405
 30
0.0
 40
3.0
  1
PM 5664AD
  0
TEXT
  8
DIM
 10
90.136036
 20
34.123501
 30
0.0
 40
3.0
  1
1:1
  0
ENDSEC
  0
EOF
