*%FSLAX23Y23*%
*%MOIN*%
G01*
D11*
X4162Y5856D02*
X15879D01*
Y8651D02*
X4162D01*
Y5856D01*
X15879D02*
Y8651D01*
D35*
X15711Y8137D02*
D03*
Y8497D02*
D03*
X15731Y8417D02*
D03*
Y8217D02*
D03*
X15711Y7427D02*
D03*
Y7787D02*
D03*
X15731Y7707D02*
D03*
Y7507D02*
D03*
Y6999D02*
D03*
X15711Y7079D02*
D03*
X15811Y8137D02*
D03*
Y8497D02*
D03*
Y8417D02*
D03*
Y8217D02*
D03*
Y7427D02*
D03*
Y7787D02*
D03*
Y7707D02*
D03*
Y7507D02*
D03*
Y6999D02*
D03*
Y7079D02*
D03*
X15651Y8417D02*
D03*
Y8217D02*
D03*
Y7707D02*
D03*
Y7507D02*
D03*
Y6999D02*
D03*
X15731Y6799D02*
D03*
X15711Y6719D02*
D03*
X15731Y6090D02*
D03*
Y6290D02*
D03*
X15711Y6370D02*
D03*
Y6010D02*
D03*
X15811Y6799D02*
D03*
Y6719D02*
D03*
Y6090D02*
D03*
Y6290D02*
D03*
Y6370D02*
D03*
Y6010D02*
D03*
X15651Y6799D02*
D03*
Y6090D02*
D03*
Y6290D02*
D03*
X15501Y8222D02*
D03*
Y8427D02*
D03*
Y7512D02*
D03*
Y7717D02*
D03*
Y7009D02*
D03*
X15571Y8417D02*
D03*
X15611Y8137D02*
D03*
Y8497D02*
D03*
X15571Y8217D02*
D03*
Y7707D02*
D03*
X15611Y7427D02*
D03*
Y7787D02*
D03*
X15571Y7507D02*
D03*
X15611Y7079D02*
D03*
X15571Y6999D02*
D03*
X15436Y8237D02*
D03*
X15446Y8452D02*
D03*
X15436Y7527D02*
D03*
X15446Y7742D02*
D03*
Y7034D02*
D03*
X15501Y6804D02*
D03*
Y6300D02*
D03*
Y6095D02*
D03*
X15571Y6799D02*
D03*
X15611Y6719D02*
D03*
X15571Y6090D02*
D03*
X15611Y6370D02*
D03*
Y6010D02*
D03*
X15571Y6290D02*
D03*
X15436Y6819D02*
D03*
X15446Y6325D02*
D03*
X15436Y6110D02*
D03*
X15336Y8577D02*
D03*
Y7159D02*
D03*
Y7867D02*
D03*
X15321Y8287D02*
D03*
Y8492D02*
D03*
Y7577D02*
D03*
Y7782D02*
D03*
Y7074D02*
D03*
X15376Y8262D02*
D03*
X15386Y8477D02*
D03*
X15376Y7552D02*
D03*
X15386Y7767D02*
D03*
Y7059D02*
D03*
X15251Y8297D02*
D03*
Y8172D02*
D03*
Y8102D02*
D03*
Y8037D02*
D03*
Y8237D02*
D03*
Y8497D02*
D03*
Y7587D02*
D03*
Y7462D02*
D03*
Y7392D02*
D03*
Y7327D02*
D03*
Y7527D02*
D03*
Y7787D02*
D03*
Y7079D02*
D03*
X15336Y6450D02*
D03*
X15321Y6869D02*
D03*
Y6365D02*
D03*
Y6160D02*
D03*
X15376Y6844D02*
D03*
X15386Y6350D02*
D03*
X15376Y6135D02*
D03*
X15251Y6819D02*
D03*
Y6619D02*
D03*
Y6684D02*
D03*
Y6754D02*
D03*
Y6879D02*
D03*
Y6370D02*
D03*
Y6110D02*
D03*
Y5910D02*
D03*
Y5975D02*
D03*
Y6045D02*
D03*
Y6170D02*
D03*
X15121Y8497D02*
D03*
Y8297D02*
D03*
Y8237D02*
D03*
Y8037D02*
D03*
Y7787D02*
D03*
Y7587D02*
D03*
Y7527D02*
D03*
Y7327D02*
D03*
Y7079D02*
D03*
X15186Y8297D02*
D03*
Y8237D02*
D03*
Y8037D02*
D03*
Y7587D02*
D03*
Y7527D02*
D03*
Y7327D02*
D03*
X15061Y7079D02*
D03*
X15061Y8497D02*
D03*
Y8297D02*
D03*
Y8237D02*
D03*
Y8037D02*
D03*
Y7787D02*
D03*
Y7587D02*
D03*
Y7527D02*
D03*
Y7327D02*
D03*
X15121Y6619D02*
D03*
Y6819D02*
D03*
Y6879D02*
D03*
Y5910D02*
D03*
Y6110D02*
D03*
Y6170D02*
D03*
Y6370D02*
D03*
X15186Y6619D02*
D03*
Y6819D02*
D03*
Y6879D02*
D03*
Y5910D02*
D03*
Y6110D02*
D03*
Y6170D02*
D03*
X15061Y6619D02*
D03*
Y6819D02*
D03*
Y6879D02*
D03*
Y5910D02*
D03*
Y6110D02*
D03*
Y6170D02*
D03*
Y6370D02*
D03*
X14946Y8567D02*
D03*
X15026Y8542D02*
D03*
X14901Y8567D02*
D03*
X15016Y8602D02*
D03*
X14946Y7149D02*
D03*
Y7857D02*
D03*
X15016Y7892D02*
D03*
X15026Y7832D02*
D03*
X14931Y8267D02*
D03*
Y7557D02*
D03*
X14901Y7857D02*
D03*
Y7149D02*
D03*
X15001Y8297D02*
D03*
Y8497D02*
D03*
Y8037D02*
D03*
Y8237D02*
D03*
Y7787D02*
D03*
Y7327D02*
D03*
Y7527D02*
D03*
X15016Y7184D02*
D03*
X15001Y7079D02*
D03*
X15026Y7124D02*
D03*
X15001Y7587D02*
D03*
X14946Y6440D02*
D03*
X15026Y6415D02*
D03*
X14931Y6849D02*
D03*
X14901Y6440D02*
D03*
X14931Y6140D02*
D03*
X15001Y6819D02*
D03*
Y6619D02*
D03*
Y6879D02*
D03*
X15016Y6475D02*
D03*
X15001Y6110D02*
D03*
Y5910D02*
D03*
Y6370D02*
D03*
Y6170D02*
D03*
X14736Y8192D02*
D03*
Y7482D02*
D03*
X14686Y8142D02*
D03*
Y8452D02*
D03*
Y7432D02*
D03*
Y7742D02*
D03*
Y7034D02*
D03*
X14736Y6774D02*
D03*
Y6065D02*
D03*
X14686Y6724D02*
D03*
Y6325D02*
D03*
Y6015D02*
D03*
X14606Y8182D02*
D03*
X14606Y8292D02*
D03*
Y8242D02*
D03*
Y7582D02*
D03*
Y7532D02*
D03*
X14496Y8322D02*
D03*
Y8212D02*
D03*
X14496Y7612D02*
D03*
Y7502D02*
D03*
X14606Y7472D02*
D03*
X14493Y8136D02*
D03*
Y8176D02*
D03*
Y8096D02*
D03*
Y8056D02*
D03*
Y8016D02*
D03*
Y7976D02*
D03*
Y7936D02*
D03*
Y7666D02*
D03*
Y7426D02*
D03*
Y7386D02*
D03*
Y7346D02*
D03*
Y7306D02*
D03*
Y7266D02*
D03*
Y7226D02*
D03*
X14496Y8372D02*
D03*
X14464Y7121D02*
D03*
Y7824D02*
D03*
X14606Y6824D02*
D03*
Y6874D02*
D03*
Y6115D02*
D03*
Y6165D02*
D03*
X14496Y6904D02*
D03*
Y6794D02*
D03*
X14496Y6085D02*
D03*
Y6195D02*
D03*
X14606Y6764D02*
D03*
Y6055D02*
D03*
X14493Y6946D02*
D03*
Y6706D02*
D03*
Y6666D02*
D03*
Y6626D02*
D03*
Y6586D02*
D03*
Y6546D02*
D03*
Y6506D02*
D03*
Y6396D02*
D03*
Y6246D02*
D03*
Y6046D02*
D03*
Y6006D02*
D03*
Y5966D02*
D03*
Y5926D02*
D03*
Y5886D02*
D03*
X14464Y6414D02*
D03*
X14446Y8452D02*
D03*
Y7742D02*
D03*
Y7034D02*
D03*
X14451Y8322D02*
D03*
Y8212D02*
D03*
X14451Y7612D02*
D03*
Y7502D02*
D03*
X14341Y8062D02*
D03*
Y8117D02*
D03*
Y7952D02*
D03*
Y8007D02*
D03*
X14306Y8275D02*
D03*
X14352Y8304D02*
D03*
X14341Y7897D02*
D03*
X14335Y7834D02*
D03*
X14320Y7774D02*
D03*
X14388Y7496D02*
D03*
X14342Y7599D02*
D03*
X14331Y7478D02*
D03*
X14398Y8203D02*
D03*
X14399Y8318D02*
D03*
X14397Y7611D02*
D03*
X14293Y7718D02*
D03*
X14281Y7447D02*
D03*
X14288Y7580D02*
D03*
X14360Y8174D02*
D03*
X14265Y8230D02*
D03*
X14256Y7666D02*
D03*
X14446Y6325D02*
D03*
X14451Y6904D02*
D03*
Y6794D02*
D03*
X14451Y6085D02*
D03*
Y6195D02*
D03*
X14330Y6928D02*
D03*
X14341Y6807D02*
D03*
X14306Y6132D02*
D03*
X14341Y6290D02*
D03*
X14360Y6233D02*
D03*
X14352Y6103D02*
D03*
X14341Y6510D02*
D03*
Y6450D02*
D03*
Y6400D02*
D03*
Y6345D02*
D03*
X14335Y6573D02*
D03*
X14320Y6633D02*
D03*
X14387Y6910D02*
D03*
X14396Y6795D02*
D03*
X14398Y6204D02*
D03*
X14399Y6089D02*
D03*
X14287Y6826D02*
D03*
X14280Y6959D02*
D03*
X14293Y6689D02*
D03*
X14265Y6177D02*
D03*
X14256Y6741D02*
D03*
X14231Y7897D02*
D03*
X14223Y7833D02*
D03*
X14198Y7774D02*
D03*
X14158Y7723D02*
D03*
X14099Y8238D02*
D03*
X14110Y6979D02*
D03*
X14153Y7083D02*
D03*
X14106Y7683D02*
D03*
X14109Y7564D02*
D03*
X14164Y7589D02*
D03*
X14191Y7515D02*
D03*
X14154Y7323D02*
D03*
X14111Y7427D02*
D03*
X14239Y7003D02*
D03*
X14200Y7047D02*
D03*
X14231Y8062D02*
D03*
Y8117D02*
D03*
Y7952D02*
D03*
Y8007D02*
D03*
X14239Y8176D02*
D03*
X14213Y7624D02*
D03*
X14240Y7404D02*
D03*
X14238Y7551D02*
D03*
X14201Y7359D02*
D03*
X14103Y7112D02*
D03*
X14104Y7294D02*
D03*
X14152Y7471D02*
D03*
X14060Y7010D02*
D03*
X14061Y7396D02*
D03*
X14151Y6936D02*
D03*
X14106Y6724D02*
D03*
X14109Y6843D02*
D03*
X14164Y6818D02*
D03*
X14158Y6684D02*
D03*
X14190Y6891D02*
D03*
X14237Y6855D02*
D03*
X14231Y6290D02*
D03*
X14239Y6231D02*
D03*
X14231Y6510D02*
D03*
Y6450D02*
D03*
Y6400D02*
D03*
Y6345D02*
D03*
X14213Y6783D02*
D03*
X14223Y6574D02*
D03*
X14198Y6633D02*
D03*
X14010Y8329D02*
D03*
X13991Y7542D02*
D03*
X13931D02*
D03*
X13991Y7652D02*
D03*
X13931D02*
D03*
Y7372D02*
D03*
Y7262D02*
D03*
X13991Y7263D02*
D03*
X13931Y7144D02*
D03*
Y7034D02*
D03*
X13988Y7143D02*
D03*
X13995Y7031D02*
D03*
X14052Y7547D02*
D03*
X14050Y7275D02*
D03*
X13997Y7376D02*
D03*
X14047Y7132D02*
D03*
X14050Y7660D02*
D03*
X13870Y7144D02*
D03*
Y7034D02*
D03*
X13871Y7652D02*
D03*
Y7542D02*
D03*
X13870Y7372D02*
D03*
Y7262D02*
D03*
X13879Y8084D02*
D03*
X13933Y6249D02*
D03*
X13991Y6865D02*
D03*
X13931D02*
D03*
X13991Y6755D02*
D03*
X13931D02*
D03*
X14050Y6747D02*
D03*
X14052Y6860D02*
D03*
X13973Y6250D02*
D03*
X14002Y6106D02*
D03*
X13871Y6755D02*
D03*
Y6865D02*
D03*
X13810Y8328D02*
D03*
X13851Y8180D02*
D03*
X13803Y8182D02*
D03*
X13739Y7810D02*
D03*
X13672Y8007D02*
D03*
X13702Y6149D02*
D03*
X13802Y6134D02*
D03*
X13800Y6414D02*
D03*
X13749Y6274D02*
D03*
X13838Y6661D02*
D03*
X13639Y8252D02*
D03*
X13497Y8287D02*
D03*
X13485Y8492D02*
D03*
Y8358D02*
D03*
Y8425D02*
D03*
X13558Y7881D02*
D03*
X13639Y7917D02*
D03*
X13548Y5909D02*
D03*
Y5976D02*
D03*
Y6043D02*
D03*
X13560Y6114D02*
D03*
X13556Y6185D02*
D03*
Y6255D02*
D03*
Y6330D02*
D03*
Y6401D02*
D03*
X13563Y6542D02*
D03*
X13493Y5889D02*
D03*
X13554Y6466D02*
D03*
X13316Y8255D02*
D03*
X13454Y7980D02*
D03*
X13343Y6137D02*
D03*
X13225Y8153D02*
D03*
X13158Y7988D02*
D03*
X13151Y7905D02*
D03*
X13158Y5933D02*
D03*
X13237Y6023D02*
D03*
X13127Y6405D02*
D03*
X13095D02*
D03*
X13160Y6141D02*
D03*
X12910Y8281D02*
D03*
Y8204D02*
D03*
X13009Y6196D02*
D03*
X12989Y6535D02*
D03*
X12946Y5992D02*
D03*
Y6031D02*
D03*
X13009Y6326D02*
D03*
X13032Y6346D02*
D03*
X13056Y6366D02*
D03*
X13060Y6405D02*
D03*
X12938Y6267D02*
D03*
X12962Y6287D02*
D03*
X12985Y6307D02*
D03*
X12918Y6051D02*
D03*
Y6011D02*
D03*
X12914Y6248D02*
D03*
X12891Y6228D02*
D03*
X12942Y6196D02*
D03*
X13007Y5992D02*
D03*
X12790Y8616D02*
D03*
X12716D02*
D03*
X12780Y8033D02*
D03*
X12780Y7968D02*
D03*
X12847Y5933D02*
D03*
Y5972D02*
D03*
Y6110D02*
D03*
Y6149D02*
D03*
X12824Y5952D02*
D03*
Y5913D02*
D03*
Y6129D02*
D03*
X12710Y6385D02*
D03*
X12826Y6090D02*
D03*
X12871Y6173D02*
D03*
X12678Y8539D02*
D03*
X12664Y8608D02*
D03*
X12603Y8135D02*
D03*
X12631Y8033D02*
D03*
Y7970D02*
D03*
X12497Y8033D02*
D03*
Y7970D02*
D03*
X12662Y6228D02*
D03*
X12682Y6405D02*
D03*
X12643Y6011D02*
D03*
X12662Y6189D02*
D03*
Y6267D02*
D03*
Y6307D02*
D03*
X12686Y6366D02*
D03*
X12662Y6346D02*
D03*
X12666Y6149D02*
D03*
X12643Y6129D02*
D03*
X12619Y6110D02*
D03*
X12595Y6090D02*
D03*
X12572Y6070D02*
D03*
X12548Y6051D02*
D03*
X12619Y5992D02*
D03*
X12595Y5972D02*
D03*
X12572Y5952D02*
D03*
X12548Y5933D02*
D03*
X12690Y6169D02*
D03*
Y6208D02*
D03*
Y6248D02*
D03*
Y6287D02*
D03*
Y6326D02*
D03*
X12525Y6031D02*
D03*
X12521Y5913D02*
D03*
X12361Y8608D02*
D03*
X12412Y8094D02*
D03*
X12477Y8135D02*
D03*
X12363Y7244D02*
D03*
X12324Y7913D02*
D03*
X12403Y6523D02*
D03*
X12332D02*
D03*
X12296Y8074D02*
D03*
X12229Y8527D02*
D03*
X12151Y7244D02*
D03*
X12265Y7913D02*
D03*
X12127Y7263D02*
D03*
X12078Y8592D02*
D03*
X12078Y8527D02*
D03*
Y8452D02*
D03*
X11997Y7515D02*
D03*
X12056Y7452D02*
D03*
X11922Y7291D02*
D03*
X11942Y6023D02*
D03*
X11938Y6440D02*
D03*
X11942Y6106D02*
D03*
X11954Y6259D02*
D03*
X12074Y6216D02*
D03*
X11749Y6972D02*
D03*
X11769Y7157D02*
D03*
X11765Y7192D02*
D03*
X11773Y7118D02*
D03*
X11780Y7078D02*
D03*
X11761Y7474D02*
D03*
Y7407D02*
D03*
Y7438D02*
D03*
X11823Y6228D02*
D03*
X11800Y6909D02*
D03*
X11863Y6236D02*
D03*
X11899Y6503D02*
D03*
X11832Y5968D02*
D03*
Y6066D02*
D03*
X11859Y6275D02*
D03*
X11903Y6212D02*
D03*
X11867Y6051D02*
D03*
X11800Y6440D02*
D03*
X11832Y6952D02*
D03*
X11560Y7433D02*
D03*
X11674Y7464D02*
D03*
X11566Y7584D02*
D03*
X11567Y7102D02*
D03*
X11710Y6015D02*
D03*
X11609Y6020D02*
D03*
X11710Y6129D02*
D03*
X11556Y6917D02*
D03*
X11712Y5933D02*
D03*
X11559Y6338D02*
D03*
X11584Y6806D02*
D03*
X11591Y6837D02*
D03*
X11521Y6964D02*
D03*
Y6838D02*
D03*
X11609Y6071D02*
D03*
X11509Y6807D02*
D03*
X11442Y7023D02*
D03*
Y7515D02*
D03*
X11332Y7874D02*
D03*
X11485Y6106D02*
D03*
X11261Y7874D02*
D03*
X11261Y8070D02*
D03*
X11162Y7027D02*
D03*
Y7503D02*
D03*
X11214Y7370D02*
D03*
X11237Y7472D02*
D03*
Y7397D02*
D03*
X11265Y7366D02*
D03*
X11237Y7015D02*
D03*
X11162Y7421D02*
D03*
X11308Y7586D02*
D03*
Y7102D02*
D03*
X11135Y7503D02*
D03*
Y7027D02*
D03*
X11214Y6893D02*
D03*
X11162Y6940D02*
D03*
X11237Y6917D02*
D03*
X11265Y6893D02*
D03*
X10962Y8204D02*
D03*
X11110Y8163D02*
D03*
X11123Y7370D02*
D03*
X11029Y7440D02*
D03*
X11111Y7161D02*
D03*
X11111Y7638D02*
D03*
X10996Y7338D02*
D03*
X11032Y6984D02*
D03*
X11119Y7220D02*
D03*
X11111Y7685D02*
D03*
X11056Y6186D02*
D03*
X11048Y6307D02*
D03*
X10996Y6880D02*
D03*
X11123Y6893D02*
D03*
X11083Y6338D02*
D03*
X10944Y5952D02*
D03*
X10934Y6020D02*
D03*
X10808Y7185D02*
D03*
X10800Y7110D02*
D03*
X10804Y7047D02*
D03*
X10769Y7409D02*
D03*
Y6952D02*
D03*
X10229Y7224D02*
D03*
X10190Y7082D02*
D03*
X10151D02*
D03*
X10165Y6061D02*
D03*
X10032Y7082D02*
D03*
X9993D02*
D03*
X10111Y7082D02*
D03*
X10072Y7082D02*
D03*
X9954Y7224D02*
D03*
X9836Y7082D02*
D03*
X9796D02*
D03*
X9914D02*
D03*
X9875D02*
D03*
X9757Y7082D02*
D03*
X9651Y8293D02*
D03*
X9580Y8085D02*
D03*
X9678Y7224D02*
D03*
X9639Y7082D02*
D03*
X9599Y7082D02*
D03*
X9717Y7082D02*
D03*
X9560D02*
D03*
X9560Y6405D02*
D03*
X9674Y6689D02*
D03*
X9717Y6397D02*
D03*
Y6334D02*
D03*
X9717Y6366D02*
D03*
X9717Y6460D02*
D03*
X9674Y6763D02*
D03*
X9717Y6500D02*
D03*
X9717Y6429D02*
D03*
X9563Y6331D02*
D03*
Y6299D02*
D03*
Y6362D02*
D03*
X9509Y8293D02*
D03*
X9403Y7224D02*
D03*
X9481Y7082D02*
D03*
X9442D02*
D03*
X9521D02*
D03*
X9414Y6510D02*
D03*
X9544Y6200D02*
D03*
X9511D02*
D03*
X9481D02*
D03*
X9447D02*
D03*
X9417D02*
D03*
X9446Y6310D02*
D03*
X9478Y6532D02*
D03*
X9383Y6533D02*
D03*
X9385Y6200D02*
D03*
X9369Y6821D02*
D03*
X9206Y7224D02*
D03*
X9284Y7082D02*
D03*
X9245D02*
D03*
X9324D02*
D03*
X9363Y7082D02*
D03*
X9221Y6391D02*
D03*
X9222Y6296D02*
D03*
X9221Y6455D02*
D03*
X9311Y6485D02*
D03*
X9336Y6301D02*
D03*
X9323Y6190D02*
D03*
X9268Y6214D02*
D03*
X9088Y7224D02*
D03*
X9127Y7094D02*
D03*
X9166D02*
D03*
X9162Y6355D02*
D03*
X8949Y6067D02*
D03*
X8294Y6399D02*
D03*
X8143Y6185D02*
D03*
X8172Y6366D02*
D03*
X7849Y8302D02*
D03*
X7871Y6594D02*
D03*
X7822D02*
D03*
X7922Y6594D02*
D03*
X7778Y8096D02*
D03*
X7687Y8302D02*
D03*
X6445Y6442D02*
D03*
X6270Y6912D02*
D03*
X6362Y6790D02*
D03*
X6251Y5933D02*
D03*
X6210Y6381D02*
D03*
X6030Y5929D02*
D03*
X5561Y8035D02*
D03*
X5321Y7534D02*
D03*
X5294Y7036D02*
D03*
X5266Y7113D02*
D03*
X5155Y7508D02*
D03*
X5242Y7063D02*
D03*
X5187Y7088D02*
D03*
X5218Y7140D02*
D03*
X5116Y7011D02*
D03*
X5072Y7558D02*
D03*
X4990Y8031D02*
D03*
X5039Y7584D02*
D03*
Y7614D02*
D03*
X5038Y7354D02*
D03*
X5039Y7165D02*
D03*
Y7217D02*
D03*
Y6935D02*
D03*
X4748Y7354D02*
D03*
X4853Y7593D02*
D03*
X4845Y8122D02*
D03*
X4846Y7982D02*
D03*
X4751Y6935D02*
D03*
X4614Y7219D02*
D03*
X4579Y7534D02*
D03*
X4592Y8015D02*
D03*
D39*
X13383Y7169D02*
D03*
X13343D02*
D03*
Y7244D02*
D03*
X13304D02*
D03*
D48*
X14463Y8540D02*
D03*
X9778Y8201D02*
D03*
X9436Y8210D02*
D03*
X7986Y8209D02*
D03*
X7621Y8208D02*
D03*
D61*
X11173Y7836D02*
D03*
Y7896D02*
D03*
Y7956D02*
D03*
Y8016D02*
D03*
X10993Y7956D02*
D03*
Y7896D02*
D03*
Y7836D02*
D03*
X11053D02*
D03*
Y7896D02*
D03*
Y8016D02*
D03*
X11113D02*
D03*
Y7896D02*
D03*
Y7836D02*
D03*
X11053Y7956D02*
D03*
X11113D02*
D03*
X10933D02*
D03*
Y7896D02*
D03*
Y7836D02*
D03*
Y8016D02*
D03*
X10993D02*
D03*
X10873Y7836D02*
D03*
Y7896D02*
D03*
Y7956D02*
D03*
Y8016D02*
D03*
X9599Y8047D02*
D03*
X9654D02*
D03*
X9710D02*
D03*
X9599Y7992D02*
D03*
X9654D02*
D03*
X9599Y7937D02*
D03*
X9710Y7992D02*
D03*
X9654Y7937D02*
D03*
X9710D02*
D03*
Y7881D02*
D03*
X9654D02*
D03*
X9599D02*
D03*
X9489Y8047D02*
D03*
X9544D02*
D03*
X9489Y7992D02*
D03*
X9544D02*
D03*
X9489Y7937D02*
D03*
X9544D02*
D03*
X9489Y7881D02*
D03*
X9544D02*
D03*
X7812Y8055D02*
D03*
X7922Y8055D02*
D03*
X7812Y8000D02*
D03*
X7867D02*
D03*
X7922D02*
D03*
X7812Y7944D02*
D03*
X7867D02*
D03*
X7922D02*
D03*
X7867Y7889D02*
D03*
X7922D02*
D03*
X7867Y8055D02*
D03*
X7812Y7889D02*
D03*
X7647Y8000D02*
D03*
X7702D02*
D03*
X7757D02*
D03*
X7647Y7944D02*
D03*
X7702D02*
D03*
X7757D02*
D03*
X7647Y7889D02*
D03*
X7702D02*
D03*
X7757D02*
D03*
X7647Y8055D02*
D03*
X7702D02*
D03*
X7757D02*
D03*
X6853Y6846D02*
D03*
X6923D02*
D03*
Y6776D02*
D03*
X6853D02*
D03*
Y6706D02*
D03*
X6923D02*
D03*
X6853Y6636D02*
D03*
X6923D02*
D03*
Y6916D02*
D03*
Y6566D02*
D03*
X6853D02*
D03*
Y6916D02*
D03*
X6713Y6846D02*
D03*
X6783D02*
D03*
Y6776D02*
D03*
X6713D02*
D03*
Y6706D02*
D03*
X6783D02*
D03*
X6713Y6636D02*
D03*
X6783D02*
D03*
X6713Y6566D02*
D03*
X6783D02*
D03*
X6713Y6916D02*
D03*
X6783D02*
D03*
X6643Y6846D02*
D03*
Y6776D02*
D03*
Y6706D02*
D03*
Y6636D02*
D03*
Y6566D02*
D03*
Y6916D02*
D03*
X6573Y6566D02*
D03*
Y6636D02*
D03*
Y6706D02*
D03*
Y6776D02*
D03*
Y6916D02*
D03*
Y6846D02*
D03*
D74*
X13058Y6147D02*
D03*
X7247Y7267D02*
D03*
X7331Y6806D02*
D03*
X8671Y6448D02*
D03*
X8571D02*
D03*
Y6370D02*
D03*
X8671D02*
D03*
D76*
X9269Y6711D02*
D03*
X9469D02*
D03*
X4270Y7304D02*
D03*
Y7704D02*
D03*
X4370Y6754D02*
D03*
X4270Y6804D02*
D03*
X4370Y6854D02*
D03*
X4270Y6904D02*
D03*
X4370Y6954D02*
D03*
X4270Y7004D02*
D03*
X4370Y7054D02*
D03*
X4270Y7104D02*
D03*
X4370Y7154D02*
D03*
X4270Y7204D02*
D03*
X4370Y7254D02*
D03*
Y7354D02*
D03*
X4270Y7404D02*
D03*
X4370Y7454D02*
D03*
X4270Y7504D02*
D03*
X4370Y7554D02*
D03*
X4270Y7604D02*
D03*
X4370Y7654D02*
D03*
D77*
X10403Y6468D02*
D03*
X10241Y6464D02*
D03*
X10162Y6578D02*
D03*
X10320D02*
D03*
X6194Y6702D02*
D03*
Y6842D02*
D03*
D81*
X11184Y6464D02*
D03*
X11284D02*
D03*
X11384D02*
D03*
X11484D02*
D03*
X11584D02*
D03*
X11684D02*
D03*
X9482Y5934D02*
D03*
X9382Y6034D02*
D03*
Y5934D02*
D03*
X9282D02*
D03*
Y6034D02*
D03*
X9182D02*
D03*
Y5934D02*
D03*
X9482Y6034D02*
D03*
X9582Y5934D02*
D03*
X6898Y7348D02*
D03*
X6898Y7131D02*
D03*
D83*
X13885Y7962D02*
X13886D01*
X13885D02*
X13886Y7947D01*
X13889Y7932D01*
X13895Y7919D01*
X13902Y7906D01*
X13912Y7894D01*
X13923Y7884D01*
X13935Y7875D01*
X13948Y7869D01*
X13963Y7864D01*
X13978Y7862D01*
X13992D01*
X14007Y7864D01*
X14022Y7869D01*
X14035Y7875D01*
X14047Y7884D01*
X14058Y7894D01*
X14068Y7906D01*
X14075Y7919D01*
X14081Y7932D01*
X14084Y7947D01*
X14085Y7962D01*
X14086D01*
X14085D02*
X14084Y7977D01*
X14081Y7992D01*
X14075Y8005D01*
X14068Y8018D01*
X14058Y8030D01*
X14047Y8040D01*
X14035Y8049D01*
X14022Y8055D01*
X14007Y8060D01*
X13992Y8062D01*
X13978D01*
X13963Y8060D01*
X13948Y8055D01*
X13935Y8049D01*
X13923Y8040D01*
X13912Y8030D01*
X13902Y8018D01*
X13895Y8005D01*
X13889Y7992D01*
X13886Y7977D01*
X13885Y7962D01*
X13962D02*
X13963D01*
X13962D02*
X13963Y7954D01*
X13967Y7947D01*
X13973Y7942D01*
X13981Y7939D01*
X13989D01*
X13997Y7942D01*
X14003Y7947D01*
X14007Y7954D01*
X14008Y7962D01*
X14009D01*
X14008D02*
X14007Y7970D01*
X14003Y7977D01*
X13997Y7982D01*
X13989Y7985D01*
X13981D01*
X13973Y7982D01*
X13967Y7977D01*
X13963Y7970D01*
X13962Y7962D01*
X13885Y6545D02*
X13886D01*
X13885D02*
X13886Y6530D01*
X13889Y6515D01*
X13895Y6502D01*
X13902Y6489D01*
X13912Y6477D01*
X13923Y6467D01*
X13935Y6458D01*
X13948Y6452D01*
X13963Y6447D01*
X13978Y6445D01*
X13992D01*
X14007Y6447D01*
X14022Y6452D01*
X14035Y6458D01*
X14047Y6467D01*
X14058Y6477D01*
X14068Y6489D01*
X14075Y6502D01*
X14081Y6515D01*
X14084Y6530D01*
X14085Y6545D01*
X14086D01*
X14085D02*
X14084Y6560D01*
X14081Y6575D01*
X14075Y6588D01*
X14068Y6601D01*
X14058Y6613D01*
X14047Y6623D01*
X14035Y6632D01*
X14022Y6638D01*
X14007Y6643D01*
X13992Y6645D01*
X13978D01*
X13963Y6643D01*
X13948Y6638D01*
X13935Y6632D01*
X13923Y6623D01*
X13912Y6613D01*
X13902Y6601D01*
X13895Y6588D01*
X13889Y6575D01*
X13886Y6560D01*
X13885Y6545D01*
X13962D02*
X13963D01*
X13962D02*
X13963Y6537D01*
X13967Y6530D01*
X13973Y6525D01*
X13981Y6522D01*
X13989D01*
X13997Y6525D01*
X14003Y6530D01*
X14007Y6537D01*
X14008Y6545D01*
X14009D01*
X14008D02*
X14007Y6553D01*
X14003Y6560D01*
X13997Y6565D01*
X13989Y6568D01*
X13981D01*
X13973Y6565D01*
X13967Y6560D01*
X13963Y6553D01*
X13962Y6545D01*
X9791Y7962D02*
X9792D01*
X9791D02*
X9792Y7947D01*
X9795Y7932D01*
X9801Y7919D01*
X9808Y7906D01*
X9818Y7894D01*
X9829Y7884D01*
X9841Y7875D01*
X9854Y7869D01*
X9869Y7864D01*
X9884Y7862D01*
X9898D01*
X9913Y7864D01*
X9928Y7869D01*
X9941Y7875D01*
X9953Y7884D01*
X9964Y7894D01*
X9974Y7906D01*
X9981Y7919D01*
X9987Y7932D01*
X9990Y7947D01*
X9991Y7962D01*
X9992D01*
X9991D02*
X9990Y7977D01*
X9987Y7992D01*
X9981Y8005D01*
X9974Y8018D01*
X9964Y8030D01*
X9953Y8040D01*
X9941Y8049D01*
X9928Y8055D01*
X9913Y8060D01*
X9898Y8062D01*
X9884D01*
X9869Y8060D01*
X9854Y8055D01*
X9841Y8049D01*
X9829Y8040D01*
X9818Y8030D01*
X9808Y8018D01*
X9801Y8005D01*
X9795Y7992D01*
X9792Y7977D01*
X9791Y7962D01*
X9868D02*
X9869D01*
X9868D02*
X9869Y7954D01*
X9873Y7947D01*
X9879Y7942D01*
X9887Y7939D01*
X9895D01*
X9903Y7942D01*
X9909Y7947D01*
X9913Y7954D01*
X9914Y7962D01*
X9915D01*
X9914D02*
X9913Y7970D01*
X9909Y7977D01*
X9903Y7982D01*
X9895Y7985D01*
X9887D01*
X9879Y7982D01*
X9873Y7977D01*
X9869Y7970D01*
X9868Y7962D01*
X9791Y6545D02*
X9792D01*
X9791D02*
X9792Y6530D01*
X9795Y6515D01*
X9801Y6502D01*
X9808Y6489D01*
X9818Y6477D01*
X9829Y6467D01*
X9841Y6458D01*
X9854Y6452D01*
X9869Y6447D01*
X9884Y6445D01*
X9898D01*
X9913Y6447D01*
X9928Y6452D01*
X9941Y6458D01*
X9953Y6467D01*
X9964Y6477D01*
X9974Y6489D01*
X9981Y6502D01*
X9987Y6515D01*
X9990Y6530D01*
X9991Y6545D01*
X9992D01*
X9991D02*
X9990Y6560D01*
X9987Y6575D01*
X9981Y6588D01*
X9974Y6601D01*
X9964Y6613D01*
X9953Y6623D01*
X9941Y6632D01*
X9928Y6638D01*
X9913Y6643D01*
X9898Y6645D01*
X9884D01*
X9869Y6643D01*
X9854Y6638D01*
X9841Y6632D01*
X9829Y6623D01*
X9818Y6613D01*
X9808Y6601D01*
X9801Y6588D01*
X9795Y6575D01*
X9792Y6560D01*
X9791Y6545D01*
X9868D02*
X9869D01*
X9868D02*
X9869Y6537D01*
X9873Y6530D01*
X9879Y6525D01*
X9887Y6522D01*
X9895D01*
X9903Y6525D01*
X9909Y6530D01*
X9913Y6537D01*
X9914Y6545D01*
X9915D01*
X9914D02*
X9913Y6553D01*
X9909Y6560D01*
X9903Y6565D01*
X9895Y6568D01*
X9887D01*
X9879Y6565D01*
X9873Y6560D01*
X9869Y6553D01*
X9868Y6545D01*
X7369Y7962D02*
X7370D01*
X7369D02*
X7370Y7947D01*
X7373Y7932D01*
X7379Y7919D01*
X7386Y7906D01*
X7396Y7894D01*
X7407Y7884D01*
X7419Y7875D01*
X7432Y7869D01*
X7447Y7864D01*
X7462Y7862D01*
X7476D01*
X7491Y7864D01*
X7506Y7869D01*
X7519Y7875D01*
X7531Y7884D01*
X7542Y7894D01*
X7552Y7906D01*
X7559Y7919D01*
X7565Y7932D01*
X7568Y7947D01*
X7569Y7962D01*
X7570D01*
X7569D02*
X7568Y7977D01*
X7565Y7992D01*
X7559Y8005D01*
X7552Y8018D01*
X7542Y8030D01*
X7531Y8040D01*
X7519Y8049D01*
X7506Y8055D01*
X7491Y8060D01*
X7476Y8062D01*
X7462D01*
X7447Y8060D01*
X7432Y8055D01*
X7419Y8049D01*
X7407Y8040D01*
X7396Y8030D01*
X7386Y8018D01*
X7379Y8005D01*
X7373Y7992D01*
X7370Y7977D01*
X7369Y7962D01*
X7446D02*
X7447D01*
X7446D02*
X7447Y7954D01*
X7451Y7947D01*
X7457Y7942D01*
X7465Y7939D01*
X7473D01*
X7481Y7942D01*
X7487Y7947D01*
X7491Y7954D01*
X7492Y7962D01*
X7493D01*
X7492D02*
X7491Y7970D01*
X7487Y7977D01*
X7481Y7982D01*
X7473Y7985D01*
X7465D01*
X7457Y7982D01*
X7451Y7977D01*
X7447Y7970D01*
X7446Y7962D01*
X7369Y6545D02*
X7370D01*
X7369D02*
X7370Y6530D01*
X7373Y6515D01*
X7379Y6502D01*
X7386Y6489D01*
X7396Y6477D01*
X7407Y6467D01*
X7419Y6458D01*
X7432Y6452D01*
X7447Y6447D01*
X7462Y6445D01*
X7476D01*
X7491Y6447D01*
X7506Y6452D01*
X7519Y6458D01*
X7531Y6467D01*
X7542Y6477D01*
X7552Y6489D01*
X7559Y6502D01*
X7565Y6515D01*
X7568Y6530D01*
X7569Y6545D01*
X7570D01*
X7569D02*
X7568Y6560D01*
X7565Y6575D01*
X7559Y6588D01*
X7552Y6601D01*
X7542Y6613D01*
X7531Y6623D01*
X7519Y6632D01*
X7506Y6638D01*
X7491Y6643D01*
X7476Y6645D01*
X7462D01*
X7447Y6643D01*
X7432Y6638D01*
X7419Y6632D01*
X7407Y6623D01*
X7396Y6613D01*
X7386Y6601D01*
X7379Y6588D01*
X7373Y6575D01*
X7370Y6560D01*
X7369Y6545D01*
X7446D02*
X7447D01*
X7446D02*
X7447Y6537D01*
X7451Y6530D01*
X7457Y6525D01*
X7465Y6522D01*
X7473D01*
X7481Y6525D01*
X7487Y6530D01*
X7491Y6537D01*
X7492Y6545D01*
X7493D01*
X7492D02*
X7491Y6553D01*
X7487Y6560D01*
X7481Y6565D01*
X7473Y6568D01*
X7465D01*
X7457Y6565D01*
X7451Y6560D01*
X7447Y6553D01*
X7446Y6545D01*
X4220Y7962D02*
X4221D01*
X4220D02*
X4221Y7947D01*
X4224Y7932D01*
X4230Y7919D01*
X4237Y7906D01*
X4247Y7894D01*
X4258Y7884D01*
X4270Y7875D01*
X4283Y7869D01*
X4298Y7864D01*
X4313Y7862D01*
X4327D01*
X4342Y7864D01*
X4357Y7869D01*
X4370Y7875D01*
X4382Y7884D01*
X4393Y7894D01*
X4403Y7906D01*
X4410Y7919D01*
X4416Y7932D01*
X4419Y7947D01*
X4420Y7962D01*
X4421D01*
X4420D02*
X4419Y7977D01*
X4416Y7992D01*
X4410Y8005D01*
X4403Y8018D01*
X4393Y8030D01*
X4382Y8040D01*
X4370Y8049D01*
X4357Y8055D01*
X4342Y8060D01*
X4327Y8062D01*
X4313D01*
X4298Y8060D01*
X4283Y8055D01*
X4270Y8049D01*
X4258Y8040D01*
X4247Y8030D01*
X4237Y8018D01*
X4230Y8005D01*
X4224Y7992D01*
X4221Y7977D01*
X4220Y7962D01*
X4297D02*
X4298D01*
X4297D02*
X4298Y7954D01*
X4302Y7947D01*
X4308Y7942D01*
X4316Y7939D01*
X4324D01*
X4332Y7942D01*
X4338Y7947D01*
X4342Y7954D01*
X4343Y7962D01*
X4344D01*
X4343D02*
X4342Y7970D01*
X4338Y7977D01*
X4332Y7982D01*
X4324Y7985D01*
X4316D01*
X4308Y7982D01*
X4302Y7977D01*
X4298Y7970D01*
X4297Y7962D01*
X4220Y6545D02*
X4221D01*
X4220D02*
X4221Y6530D01*
X4224Y6515D01*
X4230Y6502D01*
X4237Y6489D01*
X4247Y6477D01*
X4258Y6467D01*
X4270Y6458D01*
X4283Y6452D01*
X4298Y6447D01*
X4313Y6445D01*
X4327D01*
X4342Y6447D01*
X4357Y6452D01*
X4370Y6458D01*
X4382Y6467D01*
X4393Y6477D01*
X4403Y6489D01*
X4410Y6502D01*
X4416Y6515D01*
X4419Y6530D01*
X4420Y6545D01*
X4421D01*
X4420D02*
X4419Y6560D01*
X4416Y6575D01*
X4410Y6588D01*
X4403Y6601D01*
X4393Y6613D01*
X4382Y6623D01*
X4370Y6632D01*
X4357Y6638D01*
X4342Y6643D01*
X4327Y6645D01*
X4313D01*
X4298Y6643D01*
X4283Y6638D01*
X4270Y6632D01*
X4258Y6623D01*
X4247Y6613D01*
X4237Y6601D01*
X4230Y6588D01*
X4224Y6575D01*
X4221Y6560D01*
X4220Y6545D01*
X4297D02*
X4298D01*
X4297D02*
X4298Y6537D01*
X4302Y6530D01*
X4308Y6525D01*
X4316Y6522D01*
X4324D01*
X4332Y6525D01*
X4338Y6530D01*
X4342Y6537D01*
X4343Y6545D01*
X4344D01*
X4343D02*
X4342Y6553D01*
X4338Y6560D01*
X4332Y6565D01*
X4324Y6568D01*
X4316D01*
X4308Y6565D01*
X4302Y6560D01*
X4298Y6553D01*
X4297Y6545D01*
D85*
X4342Y7760D02*
D03*
D86*
X7414Y5926D02*
D03*
X7524D02*
D03*
X7634D02*
D03*
X7743D02*
D03*
X7799Y6038D02*
D03*
X7688D02*
D03*
X7579D02*
D03*
X7471D02*
D03*
X7362D02*
D03*
D95*
X8383Y6263D02*
D03*
X8859D02*
D03*
D98*
X8071Y5981D02*
D03*
X7087D02*
D03*
D116*
X15016Y8552D02*
D03*
X14946D02*
D03*
X15016Y7134D02*
D03*
X14946D02*
D03*
Y7842D02*
D03*
X15016D02*
D03*
X14861Y7557D02*
D03*
X14931D02*
D03*
Y8267D02*
D03*
X14861D02*
D03*
X15016Y6425D02*
D03*
X14946D02*
D03*
X14931Y6140D02*
D03*
X14861D02*
D03*
X14931Y6849D02*
D03*
X14861D02*
D03*
X13265Y7451D02*
D03*
X13335D02*
D03*
X13529Y8066D02*
D03*
X13599D02*
D03*
X13880Y8328D02*
D03*
X13950D02*
D03*
X14541Y7592D02*
D03*
X14611D02*
D03*
X14421Y7557D02*
D03*
X14491D02*
D03*
X14541Y7522D02*
D03*
X14611D02*
D03*
Y8232D02*
D03*
X14541D02*
D03*
X14491Y8267D02*
D03*
X14421D02*
D03*
X14611Y8302D02*
D03*
X14541D02*
D03*
X13221Y7535D02*
D03*
X13151D02*
D03*
X13178Y7240D02*
D03*
X13108D02*
D03*
X13178Y7318D02*
D03*
X13108D02*
D03*
X13103Y7023D02*
D03*
X13033D02*
D03*
X13529Y7996D02*
D03*
X13599D02*
D03*
X13529Y8216D02*
D03*
X13599D02*
D03*
X13529Y8145D02*
D03*
X13599D02*
D03*
X13529Y8287D02*
D03*
X13599D02*
D03*
X13529Y8358D02*
D03*
X13599D02*
D03*
X13529Y8425D02*
D03*
X13599D02*
D03*
X13529Y8492D02*
D03*
X13599D02*
D03*
X13862Y6106D02*
D03*
X13932D02*
D03*
X14491Y6849D02*
D03*
X14421D02*
D03*
X14611Y6175D02*
D03*
X14541D02*
D03*
X14491Y6140D02*
D03*
X14421D02*
D03*
X14611Y6105D02*
D03*
X14541D02*
D03*
X14611Y6884D02*
D03*
X14541D02*
D03*
X14611Y6814D02*
D03*
X14541D02*
D03*
X13253Y6929D02*
D03*
X13183D02*
D03*
X13592Y6405D02*
D03*
X13662D02*
D03*
X13592Y6334D02*
D03*
X13662D02*
D03*
X13592Y6255D02*
D03*
X13662D02*
D03*
X13592Y6185D02*
D03*
X13662D02*
D03*
X13592Y6114D02*
D03*
X13662D02*
D03*
X13592Y6043D02*
D03*
X13662D02*
D03*
X13592Y5976D02*
D03*
X13662D02*
D03*
X13592Y5909D02*
D03*
X13662D02*
D03*
X12595Y8033D02*
D03*
X12532D02*
D03*
X12741D02*
D03*
X12671D02*
D03*
X12922Y8165D02*
D03*
X12852D02*
D03*
X12918Y8324D02*
D03*
X12848D02*
D03*
X12443Y8220D02*
D03*
X12513D02*
D03*
X12595Y7970D02*
D03*
X12532D02*
D03*
X12741Y7970D02*
D03*
X12671D02*
D03*
X12332Y7838D02*
D03*
X12262D02*
D03*
X12946Y7023D02*
D03*
X12876D02*
D03*
X12871Y7240D02*
D03*
X12801D02*
D03*
X12871Y7318D02*
D03*
X12801D02*
D03*
X12065Y7515D02*
D03*
X12135D02*
D03*
X12104Y7452D02*
D03*
X12174D02*
D03*
X13021Y6929D02*
D03*
X12951D02*
D03*
X12828D02*
D03*
X12758D02*
D03*
X10033Y6316D02*
D03*
X9963D02*
D03*
Y6256D02*
D03*
X10033D02*
D03*
Y6196D02*
D03*
X9963D02*
D03*
Y6376D02*
D03*
X10033D02*
D03*
X9863Y6283D02*
D03*
X9793D02*
D03*
X6073Y5931D02*
D03*
X6143D02*
D03*
X6073Y6009D02*
D03*
X6143D02*
D03*
D121*
X10698Y8492D02*
D03*
X10619D02*
D03*
X10339Y5931D02*
D03*
X10812Y6010D02*
D03*
Y5931D02*
D03*
X10733Y6010D02*
D03*
Y5931D02*
D03*
X10654Y6010D02*
D03*
Y5931D02*
D03*
X10576Y6010D02*
D03*
Y5931D02*
D03*
X10497Y6010D02*
D03*
Y5931D02*
D03*
X10418Y6010D02*
D03*
Y5931D02*
D03*
X10339Y6010D02*
D03*
D127*
X14686Y7497D02*
D03*
Y7427D02*
D03*
Y8137D02*
D03*
Y8207D02*
D03*
Y6010D02*
D03*
Y6080D02*
D03*
Y6719D02*
D03*
Y6789D02*
D03*
X13320Y7027D02*
D03*
Y6957D02*
D03*
X13599Y7846D02*
D03*
Y7916D02*
D03*
X13064Y7433D02*
D03*
Y7363D02*
D03*
X12694Y7437D02*
D03*
Y7367D02*
D03*
X12914Y7433D02*
D03*
Y7363D02*
D03*
X12694Y7245D02*
D03*
Y7315D02*
D03*
X12729Y8513D02*
D03*
Y8583D02*
D03*
X12793Y8513D02*
D03*
Y8583D02*
D03*
X12676Y6960D02*
D03*
Y7030D02*
D03*
X12737Y6177D02*
D03*
Y6107D02*
D03*
X6303Y6766D02*
D03*
Y6836D02*
D03*
D131*
X9800Y6355D02*
D03*
X9890D02*
D03*
D144*
X10162Y6334D02*
D03*
Y6244D02*
D03*
X10241D02*
D03*
Y6334D02*
D03*
X10320D02*
D03*
Y6244D02*
D03*
X10399D02*
D03*
Y6334D02*
D03*
D151*
X11084Y6464D02*
D03*
X9582Y6034D02*
D03*
D160*
X15628Y7765D02*
X15817D01*
Y7451D02*
X15628D01*
Y8160D02*
X15817D01*
Y8474D02*
X15628D01*
Y6742D02*
X15817D01*
Y7056D02*
X15628D01*
Y6033D02*
X15817D01*
Y6347D02*
X15628D01*
D02*
M02*
