*%FSLAX23Y23*%
*%MOIN*%
G01*
D11*
X4162Y5856D02*
X15879D01*
Y8651D02*
X4162D01*
Y5856D01*
X15879D02*
Y8651D01*
D15*
X14147Y6691D02*
X13861Y6695D01*
X13316Y7145D02*
X12529Y7145D01*
X12099Y6665D02*
X11993Y6559D01*
X12725Y6385D02*
X12851Y6511D01*
X12576Y6909D02*
X12371Y6909D01*
Y6870D02*
X12615Y6870D01*
X12654Y6511D02*
X12544Y6401D01*
X12564Y6397D02*
X12694Y6527D01*
X12095Y6775D02*
X11938Y6618D01*
X10525Y6736D02*
X10229Y7031D01*
X10210Y7011D02*
X10505Y6716D01*
X10485Y6696D02*
X10190Y6992D01*
X10170Y6972D02*
X10466Y6677D01*
X10399Y6618D02*
X10123Y6893D01*
X9631Y6972D02*
X9521Y7082D01*
X9481D02*
X9611Y6952D01*
X9592Y6933D02*
X9442Y7082D01*
X10151Y6952D02*
X10446Y6657D01*
X10422Y6637D02*
X10127Y6933D01*
X9434Y6893D02*
X9245Y7082D01*
X11761Y7307D02*
X11918Y7149D01*
X11942Y7185D02*
X11804Y7322D01*
X11886Y7429D02*
X12004Y7311D01*
X13860Y8395D02*
X14103Y8638D01*
X13048Y6464D02*
X12792Y6208D01*
X12788Y6228D02*
X13009Y6448D01*
X12969Y6433D02*
X12784Y6248D01*
X12780Y6267D02*
X12930Y6417D01*
X12773Y6559D02*
X12662Y6448D01*
X12670Y6433D02*
X12812Y6574D01*
X12891Y6519D02*
X12737Y6366D01*
X12584Y6393D02*
X12733Y6543D01*
X12111Y6988D02*
X11840Y6716D01*
X11859Y6696D02*
X12111Y6948D01*
Y6909D02*
X11879Y6677D01*
X11918Y6637D02*
X12111Y6830D01*
Y6752D02*
X11958Y6598D01*
X11981Y6578D02*
X12115Y6712D01*
X13418Y6248D02*
X13521Y6350D01*
X12111Y7027D02*
X11820Y6736D01*
X11899Y6657D02*
X12111Y6870D01*
X11883Y7106D02*
X11749Y6972D01*
X11800Y6960D02*
X11906Y7066D01*
X12830Y6222D02*
X13088Y6480D01*
X14108Y5866D02*
X14170D01*
Y5871D02*
X14103D01*
X14098Y5876D02*
X14170D01*
Y5881D02*
X14093D01*
X14088Y5886D02*
X14170D01*
Y5891D02*
X14083D01*
X14078Y5896D02*
X14170D01*
Y5901D02*
X14073D01*
X14047Y5926D02*
X14170D01*
Y5931D02*
X14042D01*
X14037Y5936D02*
X14170D01*
Y5941D02*
X14032D01*
X14027Y5946D02*
X14170D01*
Y5951D02*
X14022D01*
X14017Y5956D02*
X14170D01*
Y5961D02*
X14012D01*
X14007Y5966D02*
X14170D01*
Y5971D02*
X14002D01*
X13997Y5976D02*
X14170D01*
Y5981D02*
X13992D01*
X13987Y5986D02*
X14170D01*
Y5991D02*
X13982D01*
X13977Y5996D02*
X14170D01*
Y5869D02*
X14105D01*
X14174Y5871D02*
X15866D01*
Y5876D02*
X14174D01*
Y5881D02*
X15866D01*
Y5886D02*
X14174D01*
Y5891D02*
X15866D01*
Y5896D02*
X14174D01*
Y5901D02*
X15866D01*
Y5906D02*
X14174D01*
Y5911D02*
X15866D01*
Y5916D02*
X14174D01*
Y5921D02*
X15866D01*
Y5926D02*
X14174D01*
Y5931D02*
X15866D01*
Y5936D02*
X14174D01*
Y5941D02*
X15866D01*
Y5946D02*
X14174D01*
Y5951D02*
X15866D01*
Y5956D02*
X14174D01*
Y5961D02*
X15866D01*
Y5966D02*
X14174D01*
Y5971D02*
X15866D01*
X14653Y5976D02*
X14174D01*
X14653D02*
X14719D01*
X15579D01*
X15865D01*
X14653Y5981D02*
X14174D01*
X14653D02*
X14719D01*
X15579D01*
X15865D01*
X14653Y5986D02*
X14174D01*
X14719D02*
X15579D01*
X14653Y5991D02*
X14174D01*
X14719D02*
X15579D01*
X14653Y5996D02*
X14174D01*
X14719D02*
X15579D01*
X14719Y5982D02*
X14653D01*
X15579Y5984D02*
X15865D01*
X15866D01*
Y5869D02*
X14174D01*
X14170Y5906D02*
X14068D01*
X14063Y5911D02*
X14170D01*
Y5916D02*
X14058D01*
X14053Y5921D02*
X14170D01*
X12822Y5952D02*
X12753D01*
X13957Y6016D02*
X14170D01*
Y6021D02*
X13952D01*
X13947Y6026D02*
X14170D01*
Y6031D02*
X13942D01*
X13937Y6036D02*
X14170D01*
Y6041D02*
X13932D01*
X13927Y6046D02*
X14170D01*
Y6051D02*
X13921D01*
X13916Y6056D02*
X14170D01*
Y6061D02*
X13911D01*
X13906Y6066D02*
X13960D01*
X14170D01*
X13960Y6071D02*
X13904D01*
X13960D02*
X14170D01*
X13904Y6076D02*
X13896D01*
X13960D02*
X14170D01*
X13904Y6081D02*
X13891D01*
X13960D02*
X14170D01*
X13904Y6086D02*
X13890D01*
X13960D02*
X14017D01*
X14170D01*
X13904Y6091D02*
X13890D01*
X13960D02*
X14017D01*
X14170D01*
X13904Y6096D02*
X13890D01*
X14017D02*
X14170D01*
X13904Y6101D02*
X13890D01*
X14017D02*
X14170D01*
X13904Y6106D02*
X13890D01*
X14017D02*
X14170D01*
X13904Y6111D02*
X13890D01*
X14017D02*
X14170D01*
X13904Y6116D02*
X13890D01*
X14017D02*
X14170D01*
X13904Y6121D02*
X13890D01*
X13960D02*
X14017D01*
X14170D01*
X13904Y6126D02*
X13890D01*
X13960D02*
X14017D01*
X14170D01*
X13904Y6131D02*
X13890D01*
X13960D02*
X14170D01*
X13904Y6136D02*
X13890D01*
X13960D02*
X14170D01*
X13890Y6141D02*
X13861D01*
X13890D02*
X13904D01*
X13960D01*
X14170D01*
X13890Y6146D02*
X13861D01*
X13890D02*
X13904D01*
X13960D01*
X14170D01*
Y6151D02*
X13861D01*
Y6156D02*
X14170D01*
Y6161D02*
X13861D01*
Y6166D02*
X14170D01*
Y6171D02*
X13861D01*
Y6176D02*
X14170D01*
Y6181D02*
X13861D01*
Y6186D02*
X14170D01*
Y6191D02*
X13861D01*
Y6139D02*
X13890D01*
X13904D02*
X13960D01*
Y6073D02*
X13904D01*
X13960Y6091D02*
X14017D01*
Y6121D02*
X13960D01*
X14652Y6081D02*
X14719D01*
X14451Y6141D02*
X14392D01*
X14831D02*
X14894D01*
X14653Y6016D02*
X14174D01*
X14719D02*
X15579D01*
X14653Y6021D02*
X14174D01*
X14719D02*
X15579D01*
X14653Y6026D02*
X14174D01*
X14719D02*
X15579D01*
X14653Y6031D02*
X14174D01*
X14719D02*
X15579D01*
X14653Y6036D02*
X14174D01*
X14719D02*
X15579D01*
X14653Y6041D02*
X14174D01*
X14653D02*
X14719D01*
X15579D01*
X14653Y6046D02*
X14174D01*
X14653D02*
X14719D01*
X14726D01*
X14746D02*
X15579D01*
X14653Y6051D02*
X14174D01*
X14653D02*
X14717D01*
X14755D02*
X15579D01*
X14653Y6056D02*
X14174D01*
X14755D02*
X15579D01*
X14653Y6061D02*
X14174D01*
X14755D02*
X15579D01*
X14512Y6066D02*
X14174D01*
X14512D02*
X14569D01*
X14582D01*
X14639D01*
X14653D01*
X14755D02*
X15579D01*
X14512Y6071D02*
X14174D01*
X14512D02*
X14569D01*
X14582D01*
X14639D01*
X14653D01*
X14755D02*
X15579D01*
X14512Y6076D02*
X14174D01*
X14569D02*
X14582D01*
X14639D02*
X14653D01*
X14755D02*
X15579D01*
X14512Y6081D02*
X14174D01*
X14569D02*
X14582D01*
X14639D02*
X14653D01*
X14749D02*
X14755D01*
X15579D01*
X15865D01*
X14512Y6086D02*
X14174D01*
X14569D02*
X14582D01*
X14639D02*
X14653D01*
X14719D02*
X15579D01*
X15865D01*
X14512Y6091D02*
X14174D01*
X14569D02*
X14582D01*
X14639D02*
X14653D01*
X14719D02*
X15866D01*
X14512Y6096D02*
X14174D01*
X14569D02*
X14582D01*
X14639D02*
X14653D01*
X14719D02*
X15866D01*
X14392Y6101D02*
X14174D01*
X14392D02*
X14449D01*
X14462D01*
X14512D01*
X14569D02*
X14582D01*
X14639D02*
X14653D01*
X14719D02*
X14832D01*
X14889D01*
X14902D01*
X14959D01*
X15866D01*
X14392Y6106D02*
X14174D01*
X14392D02*
X14449D01*
X14462D01*
X14512D01*
X14569D02*
X14582D01*
X14639D02*
X14653D01*
X14719D02*
X14832D01*
X14889D01*
X14902D01*
X14959D01*
X15866D01*
X14392Y6111D02*
X14174D01*
X14449D02*
X14462D01*
X14569D02*
X14582D01*
X14639D02*
X14653D01*
X14719D01*
X14832D01*
X14889D02*
X14902D01*
X14959D02*
X15866D01*
X14392Y6116D02*
X14174D01*
X14449D02*
X14462D01*
X14569D02*
X14582D01*
X14639D02*
X14653D01*
X14719D01*
X14832D01*
X14889D02*
X14902D01*
X14959D02*
X15866D01*
X14392Y6121D02*
X14174D01*
X14449D02*
X14462D01*
X14569D02*
X14582D01*
X14639D02*
X14832D01*
X14889D02*
X14902D01*
X14959D02*
X15866D01*
X14392Y6126D02*
X14174D01*
X14449D02*
X14462D01*
X14569D02*
X14582D01*
X14639D02*
X14832D01*
X14889D02*
X14902D01*
X14959D02*
X15866D01*
X14392Y6131D02*
X14174D01*
X14449D02*
X14462D01*
X14569D02*
X14582D01*
X14639D02*
X14832D01*
X14889D02*
X14902D01*
X14959D02*
X15866D01*
X14392Y6136D02*
X14174D01*
X14449D02*
X14462D01*
X14569D02*
X14582D01*
X14639D02*
X14832D01*
X14889D02*
X14902D01*
X14959D02*
X15866D01*
X14392Y6141D02*
X14174D01*
X14449D02*
X14462D01*
X14546D02*
X14569D01*
X14582D01*
X14639D01*
X14832D01*
X14889D02*
X14902D01*
X14959D02*
X15866D01*
X14392Y6146D02*
X14174D01*
X14449D02*
X14462D01*
X14569D02*
X14582D01*
X14639D02*
X14832D01*
X14889D02*
X14902D01*
X14959D02*
X15866D01*
X14392Y6151D02*
X14174D01*
X14449D02*
X14462D01*
X14569D02*
X14582D01*
X14639D02*
X14832D01*
X14889D02*
X14902D01*
X14959D02*
X15866D01*
X14392Y6156D02*
X14174D01*
X14449D02*
X14462D01*
X14569D02*
X14582D01*
X14639D02*
X14832D01*
X14889D02*
X14902D01*
X14959D02*
X15866D01*
X14392Y6161D02*
X14174D01*
X14449D02*
X14462D01*
X14569D02*
X14582D01*
X14639D02*
X14832D01*
X14889D02*
X14902D01*
X14959D02*
X15866D01*
X14392Y6166D02*
X14174D01*
X14449D02*
X14462D01*
X14569D02*
X14582D01*
X14639D02*
X14832D01*
X14889D02*
X14902D01*
X14959D02*
X15866D01*
X14392Y6171D02*
X14174D01*
X14449D02*
X14462D01*
X14569D02*
X14582D01*
X14639D02*
X14832D01*
X14889D02*
X14902D01*
X14959D02*
X15866D01*
X14392Y6176D02*
X14174D01*
X14392D02*
X14449D01*
X14462D01*
X14512D01*
X14569D02*
X14582D01*
X14639D02*
X14832D01*
X14889D01*
X14902D01*
X14959D01*
X15866D01*
X14392Y6181D02*
X14174D01*
X14392D02*
X14449D01*
X14462D01*
X14512D01*
X14569D02*
X14582D01*
X14639D02*
X14832D01*
X14889D01*
X14902D01*
X14959D01*
X15866D01*
X14512Y6186D02*
X14174D01*
X14569D02*
X14582D01*
X14639D02*
X15866D01*
X14512Y6191D02*
X14174D01*
X14569D02*
X14582D01*
X14639D02*
X15866D01*
X14959Y6174D02*
X14902D01*
Y6107D02*
X14959D01*
X14889Y6174D02*
X14832D01*
Y6107D02*
X14889D01*
X14639Y6139D02*
X14582D01*
Y6072D02*
X14639D01*
X14569Y6139D02*
X14546D01*
X14569Y6072D02*
X14512D01*
Y6174D02*
X14462D01*
Y6107D02*
X14512D01*
X14449Y6174D02*
X14392D01*
Y6107D02*
X14449D01*
X14653Y6039D02*
X14719D01*
Y6109D02*
X14653D01*
Y6052D02*
X14717D01*
X14719D01*
X14721D01*
X14639Y6142D02*
X14582D01*
X14569D02*
X14546D01*
X15579Y6081D02*
X15865D01*
X15866D01*
X14746Y6046D02*
X14726D01*
Y6084D02*
X14746D01*
X10383Y6179D02*
X10092D01*
X13972Y6001D02*
X14170D01*
Y6006D02*
X13967D01*
X13962Y6011D02*
X14170D01*
X14174Y6001D02*
X14653D01*
X14719D02*
X15579D01*
X14653Y6006D02*
X14174D01*
X14719D02*
X15579D01*
X14653Y6011D02*
X14174D01*
X14719D02*
X15579D01*
X12775Y6141D02*
X12714D01*
X12719Y6189D02*
X12662D01*
X13861Y6211D02*
X14170D01*
Y6216D02*
X13861D01*
Y6221D02*
X14170D01*
Y6226D02*
X13861D01*
Y6231D02*
X13914D01*
X13922D01*
X13944D02*
X13952D01*
X13959D01*
X13989D02*
X14170D01*
X13914Y6236D02*
X13861D01*
X13992D02*
X14170D01*
X13914Y6241D02*
X13861D01*
X13992D02*
X14170D01*
X13914Y6246D02*
X13861D01*
X13992D02*
X14170D01*
X13914Y6251D02*
X13861D01*
X13992D02*
X14170D01*
X13914Y6256D02*
X13861D01*
X13992D02*
X14170D01*
X13914Y6261D02*
X13861D01*
X13992D02*
X14170D01*
Y6266D02*
X13992D01*
X13934Y6271D02*
X13916D01*
X13989D02*
X14170D01*
X13935Y6276D02*
X13916D01*
X13989D02*
X14170D01*
X13935Y6281D02*
X13916D01*
X13989D02*
X14170D01*
X13935Y6286D02*
X13916D01*
X13989D02*
X14170D01*
X13934Y6291D02*
X13916D01*
X13989D02*
X14170D01*
X13929Y6296D02*
X13916D01*
X13989D02*
X14170D01*
X13924Y6301D02*
X13916D01*
X13990D02*
X14170D01*
Y6306D02*
X13995D01*
X13990Y6311D02*
X14170D01*
Y6316D02*
X13989D01*
Y6321D02*
X13980D01*
X13989D02*
X14170D01*
X13989Y6326D02*
X13975D01*
X13989D02*
X14170D01*
Y6331D02*
X13970D01*
X13965Y6336D02*
X14170D01*
Y6341D02*
X13960D01*
X13955Y6346D02*
X14170D01*
Y6351D02*
X13953D01*
Y6356D02*
X13945D01*
X13953D02*
X14170D01*
X13936Y6361D02*
X13916D01*
X13940D02*
X13953D01*
X14170D01*
Y6366D02*
X13916D01*
Y6371D02*
X14170D01*
Y6376D02*
X13916D01*
Y6381D02*
X14170D01*
Y6386D02*
X13916D01*
X13914Y6265D02*
X13861D01*
X13914D02*
X13916D01*
X13963Y6231D02*
X13983D01*
X13943Y6230D02*
X13923D01*
Y6268D02*
X13931D01*
X13989Y6237D02*
X13989D01*
X13989Y6321D02*
X13980D01*
X13923Y6302D02*
X13916D01*
Y6357D02*
X13932D01*
X13944D01*
X13953D01*
X14174Y6211D02*
X14512D01*
X14569D01*
X14582D01*
X14639D01*
X15866D01*
X14512Y6216D02*
X14174D01*
X14512D02*
X14569D01*
X14582D01*
X14639D01*
X15866D01*
Y6221D02*
X14174D01*
Y6226D02*
X15866D01*
Y6231D02*
X14174D01*
Y6236D02*
X15866D01*
Y6241D02*
X14174D01*
Y6246D02*
X15866D01*
Y6251D02*
X14174D01*
Y6256D02*
X15866D01*
Y6261D02*
X14174D01*
Y6266D02*
X15866D01*
Y6271D02*
X14174D01*
Y6276D02*
X15866D01*
Y6281D02*
X14174D01*
Y6286D02*
X15866D01*
X15579Y6291D02*
X14174D01*
X15579D02*
X15865D01*
X15579Y6296D02*
X14174D01*
X15579D02*
X15865D01*
X15579Y6301D02*
X14174D01*
Y6306D02*
X14676D01*
X14696D02*
X15579D01*
X14667Y6311D02*
X14174D01*
X14705D02*
X15579D01*
X14667Y6316D02*
X14174D01*
X14705D02*
X15579D01*
X14667Y6321D02*
X14174D01*
X14705D02*
X15579D01*
X14667Y6326D02*
X14174D01*
X14705D02*
X15579D01*
X14667Y6331D02*
X14174D01*
X14705D02*
X15579D01*
X14667Y6336D02*
X14174D01*
X14705D02*
X15579D01*
X14667Y6341D02*
X14174D01*
X14667D02*
X14673D01*
X14699D02*
X14705D01*
X15579D01*
Y6346D02*
X14174D01*
Y6351D02*
X15579D01*
Y6356D02*
X14174D01*
Y6361D02*
X15579D01*
Y6366D02*
X14174D01*
Y6371D02*
X15579D01*
Y6376D02*
X14174D01*
Y6381D02*
X15579D01*
X14917Y6386D02*
X14174D01*
X14917D02*
X14974D01*
X14987D01*
X15044D01*
X15579D01*
X14639Y6209D02*
X14582D01*
X14569D02*
X14512D01*
X15579Y6299D02*
X15865D01*
X15866D01*
X14696Y6306D02*
X14676D01*
Y6344D02*
X14696D01*
X12788Y6228D02*
X12662D01*
Y6267D02*
X12780D01*
X12792Y6208D02*
X12690D01*
Y6248D02*
X12784D01*
X13032Y6346D02*
X13265D01*
X13399Y6228D02*
X12891D01*
X12914Y6248D02*
X13395D01*
X13391Y6267D02*
X12938D01*
X12962Y6287D02*
X13387D01*
X13324Y6307D02*
X12985D01*
X13009Y6326D02*
X13308D01*
X12725Y6385D02*
X12710D01*
X12686Y6366D02*
X12737D01*
X13056D02*
X13225D01*
X10239Y6287D02*
X10121D01*
X10096Y6376D02*
X10033D01*
X10121Y6244D02*
X10164D01*
X10080Y6315D02*
X10030D01*
Y6256D02*
X10054D01*
X13861Y6196D02*
X14170D01*
Y6201D02*
X13861D01*
Y6206D02*
X14170D01*
X14174Y6196D02*
X14512D01*
X14569D02*
X14582D01*
X14639D02*
X15866D01*
X14512Y6201D02*
X14174D01*
X14569D02*
X14582D01*
X14639D02*
X15866D01*
X14512Y6206D02*
X14174D01*
X14569D02*
X14582D01*
X14639D02*
X15866D01*
X10306Y6199D02*
X10111D01*
X10076Y6194D02*
X10035D01*
X13984Y6232D02*
X13989D01*
X13962D02*
X13954D01*
X13952D01*
X13945D01*
X13921D02*
X13914D01*
X13861D01*
X13963Y6269D02*
X13983D01*
X13943Y6268D02*
X13923D01*
X13861Y6386D02*
X13989D01*
Y6381D02*
X13861D01*
Y6376D02*
X13989D01*
Y6371D02*
X13861D01*
Y6366D02*
X13989D01*
Y6361D02*
X13861D01*
Y6356D02*
X13989D01*
Y6351D02*
X13861D01*
Y6346D02*
X13989D01*
Y6341D02*
X13861D01*
Y6336D02*
X13989D01*
Y6331D02*
X13861D01*
Y6326D02*
X13989D01*
Y6321D02*
X13861D01*
Y6316D02*
X13989D01*
Y6311D02*
X13861D01*
Y6306D02*
X13989D01*
Y6301D02*
X13861D01*
Y6296D02*
X13989D01*
Y6291D02*
X13861D01*
Y6286D02*
X13989D01*
Y6281D02*
X13861D01*
Y6276D02*
X13989D01*
Y6271D02*
X13861D01*
X13954Y6266D02*
X13960D01*
X13952D02*
X13945D01*
X13921D02*
X13914D01*
X13861D01*
Y6261D02*
X13914D01*
Y6256D02*
X13861D01*
Y6251D02*
X13914D01*
Y6246D02*
X13861D01*
Y6241D02*
X13914D01*
Y6236D02*
X13861D01*
X13861Y6406D02*
X13905D01*
X14065D02*
X14170D01*
X13900Y6411D02*
X13861D01*
X14070D02*
X14170D01*
X13895Y6416D02*
X13861D01*
X14075D02*
X14170D01*
X13890Y6421D02*
X13861D01*
X14080D02*
X14170D01*
X13885Y6426D02*
X13861D01*
X14085D02*
X14170D01*
X13880Y6431D02*
X13861D01*
X14090D02*
X14170D01*
X13875Y6436D02*
X13861D01*
X14095D02*
X14170D01*
X13870Y6441D02*
X13861D01*
X14100D02*
X14170D01*
Y6446D02*
X14105D01*
X14110Y6451D02*
X14170D01*
Y6456D02*
X14115D01*
X14120Y6461D02*
X14170D01*
Y6466D02*
X14131D01*
Y6471D02*
X14170D01*
Y6476D02*
X14131D01*
Y6481D02*
X14170D01*
Y6486D02*
X14131D01*
Y6491D02*
X14170D01*
Y6496D02*
X14131D01*
Y6501D02*
X14170D01*
Y6506D02*
X14131D01*
Y6511D02*
X14170D01*
Y6516D02*
X14131D01*
Y6521D02*
X14170D01*
Y6526D02*
X14131D01*
Y6531D02*
X14170D01*
Y6536D02*
X14131D01*
Y6541D02*
X14170D01*
Y6546D02*
X14131D01*
Y6551D02*
X14170D01*
Y6556D02*
X14131D01*
Y6561D02*
X14170D01*
Y6566D02*
X14131D01*
Y6571D02*
X14170D01*
Y6576D02*
X14131D01*
Y6581D02*
X14170D01*
X14974Y6441D02*
X14987D01*
X14975Y6426D02*
X14918D01*
X14445Y6406D02*
X14174D01*
X14483D02*
X14917D01*
X14974D02*
X14987D01*
X15045D02*
X15866D01*
X14445Y6411D02*
X14174D01*
X14483D02*
X14917D01*
X14974D02*
X14987D01*
X15045D02*
X15866D01*
X14445Y6416D02*
X14174D01*
X14483D02*
X14917D01*
X14974D02*
X14987D01*
X15045D02*
X15866D01*
X14445Y6421D02*
X14174D01*
X14483D02*
X14891D01*
X14911D02*
X14917D01*
X14974D02*
X14987D01*
X15045D02*
X15866D01*
X14445Y6426D02*
X14174D01*
X14483D02*
X14882D01*
X14974D02*
X14987D01*
X15045D02*
X15866D01*
X14445Y6431D02*
X14174D01*
X14445D02*
X14452D01*
X14476D02*
X14483D01*
X14882D01*
X14974D02*
X14987D01*
X15045D02*
X15866D01*
X14882Y6436D02*
X14174D01*
X14974D02*
X14987D01*
X15044D02*
X15866D01*
X14882Y6441D02*
X14174D01*
X15044D02*
X15866D01*
X14882Y6446D02*
X14174D01*
X14974D02*
X14987D01*
X15044D02*
X15866D01*
X14882Y6451D02*
X14174D01*
X14974D02*
X14987D01*
X15044D02*
X15866D01*
X14882Y6456D02*
X14174D01*
X14882D02*
X14888D01*
X14974D02*
X14987D01*
X15044D02*
X15866D01*
X14917Y6461D02*
X14174D01*
X14917D02*
X14974D01*
X14987D01*
X14997D01*
X15035D02*
X15044D01*
X15866D01*
X14917Y6466D02*
X14174D01*
X14917D02*
X14974D01*
X14987D01*
X14997D01*
X15035D02*
X15044D01*
X15866D01*
X14997Y6471D02*
X14174D01*
X15035D02*
X15866D01*
X14997Y6476D02*
X14174D01*
X15035D02*
X15866D01*
X14997Y6481D02*
X14174D01*
X15035D02*
X15866D01*
X14997Y6486D02*
X14174D01*
X15035D02*
X15866D01*
X14997Y6491D02*
X14174D01*
X14997D02*
X15003D01*
X15029D02*
X15035D01*
X15866D01*
Y6496D02*
X14174D01*
Y6501D02*
X15866D01*
Y6506D02*
X14174D01*
Y6511D02*
X15866D01*
Y6516D02*
X14174D01*
Y6521D02*
X15866D01*
Y6526D02*
X14174D01*
Y6531D02*
X15866D01*
Y6536D02*
X14174D01*
Y6541D02*
X15866D01*
Y6546D02*
X14174D01*
Y6551D02*
X15866D01*
Y6556D02*
X14174D01*
Y6561D02*
X15866D01*
Y6566D02*
X14174D01*
Y6571D02*
X15866D01*
Y6576D02*
X14174D01*
Y6581D02*
X15866D01*
X14997Y6459D02*
X14987D01*
X14997D02*
X15004D01*
X15028D02*
X15035D01*
X15044D01*
X14920D02*
X14917D01*
X14920D02*
X14974D01*
X15006Y6494D02*
X15026D01*
X14911Y6421D02*
X14891D01*
Y6459D02*
X14911D01*
X14474Y6433D02*
X14454D01*
X12005Y6539D02*
X10469D01*
X10414Y6559D02*
X11993D01*
X10525Y6578D02*
X10406D01*
X10513D02*
X11816D01*
X11808D02*
X11981D01*
X10406Y6578D02*
X10389D01*
X10392Y6559D02*
X10422D01*
X10392D02*
X10378D01*
X10359Y6577D02*
X10322D01*
X13916Y6391D02*
X14170D01*
X13916Y6396D02*
X13861D01*
X13916D02*
X14170D01*
X13910Y6401D02*
X13861D01*
X14060D02*
X14170D01*
X13916Y6391D02*
X13861D01*
X13912Y6399D02*
X13916D01*
X14058D01*
X14174Y6391D02*
X14917D01*
X14974D01*
X14987D01*
X15044D01*
X15579D01*
X14445Y6396D02*
X14174D01*
X14445D02*
X14453D01*
X14475D02*
X14483D01*
X14917D01*
X14974D02*
X14987D01*
X15044D02*
X15579D01*
X15865D01*
X14445Y6401D02*
X14174D01*
X14483D02*
X14917D01*
X14974D02*
X14987D01*
X15045D02*
X15579D01*
X15865D01*
X15044Y6392D02*
X14987D01*
X14974D02*
X14917D01*
X15579Y6396D02*
X15865D01*
X15866D01*
X14474Y6395D02*
X14454D01*
X13989Y6393D02*
X13861D01*
X13859D01*
X13861Y6391D02*
X13989D01*
X14058Y6691D02*
X13912D01*
X13912Y6691D02*
X13861D01*
X14131Y6601D02*
X14170D01*
Y6606D02*
X14131D01*
Y6611D02*
X14170D01*
Y6616D02*
X14131D01*
Y6621D02*
X14170D01*
X14131Y6626D02*
X14123D01*
X14131D02*
X14170D01*
Y6631D02*
X14118D01*
X14113Y6636D02*
X14170D01*
Y6641D02*
X14108D01*
X14103Y6646D02*
X14170D01*
X13872Y6651D02*
X13861D01*
X14098D02*
X14170D01*
X13877Y6656D02*
X13861D01*
X14093D02*
X14170D01*
X13882Y6661D02*
X13861D01*
X14088D02*
X14170D01*
X13887Y6666D02*
X13861D01*
X14083D02*
X14170D01*
X13892Y6671D02*
X13861D01*
X14078D02*
X14170D01*
X13897Y6676D02*
X13861D01*
X14073D02*
X14170D01*
X13902Y6681D02*
X13861D01*
X14068D02*
X14170D01*
X13907Y6686D02*
X13861D01*
X14063D02*
X14170D01*
Y6691D02*
X14058D01*
X14174Y6601D02*
X15866D01*
Y6606D02*
X14174D01*
Y6611D02*
X15866D01*
Y6616D02*
X14174D01*
Y6621D02*
X15866D01*
Y6626D02*
X14174D01*
Y6631D02*
X15866D01*
Y6636D02*
X14174D01*
Y6641D02*
X15866D01*
Y6646D02*
X14174D01*
Y6649D02*
X15866D01*
X12544Y6637D02*
X12103D01*
X12099Y6665D02*
X12529D01*
X12576Y6712D02*
X12615D01*
X12536Y6712D02*
X12371D01*
X12379D02*
X12115D01*
X11753Y6736D02*
X10525D01*
X10505Y6716D02*
X11761D01*
X11769Y6696D02*
X10485D01*
X10466Y6677D02*
X11777D01*
X11800Y6618D02*
X10399D01*
X11737Y6736D02*
X11820D01*
X11840Y6716D02*
X11757D01*
X11761Y6696D02*
X11859D01*
X11879Y6677D02*
X11773D01*
Y6657D02*
X11899D01*
X11918Y6637D02*
X11777D01*
X11796Y6618D02*
X11938D01*
X11784Y6657D02*
X10446D01*
X10422Y6637D02*
X11792D01*
X12371Y6752D02*
X12497D01*
X12375D02*
X12111D01*
X12095Y6775D02*
X12355D01*
X10344Y6641D02*
X10226D01*
X10343D02*
X10350D01*
X10341Y6625D02*
X10287D01*
X14176Y6648D02*
X15866D01*
X14176D02*
X14174D01*
X14726Y6755D02*
X14746D01*
X15865Y6693D02*
X15866D01*
X15865D02*
X15579D01*
X14721Y6761D02*
X14719D01*
X14717D01*
X14653D01*
Y6691D02*
X14719D01*
Y6748D02*
X14653D01*
X14569Y6781D02*
X14512D01*
X14582D02*
X14639D01*
X14755Y6781D02*
X15579D01*
X14653D02*
X14639D01*
X14582D02*
X14569D01*
X14512D02*
X14176D01*
X14755Y6776D02*
X15579D01*
X14653D02*
X14639D01*
X14582D01*
X14569D01*
X14512D01*
X14176D01*
X14755Y6771D02*
X15579D01*
X14653D02*
X14176D01*
X14755Y6766D02*
X15579D01*
X14653D02*
X14176D01*
X14755Y6761D02*
X15579D01*
X14653D02*
X14176D01*
X14755Y6756D02*
X15579D01*
X14755D02*
X14747D01*
X14717D02*
X14653D01*
X14176D01*
X14719Y6751D02*
X15579D01*
X14719D02*
X14653D01*
X14176D01*
X14719Y6746D02*
X15579D01*
X14653D02*
X14176D01*
X14719Y6741D02*
X15579D01*
X14653D02*
X14176D01*
X14719Y6736D02*
X15579D01*
X14653D02*
X14176D01*
X14719Y6731D02*
X15579D01*
X14653D02*
X14176D01*
X14719Y6726D02*
X15579D01*
X14653D02*
X14176D01*
X14719Y6721D02*
X15579D01*
X14653D02*
X14176D01*
X14719Y6716D02*
X15579D01*
X14653D02*
X14176D01*
X14719Y6711D02*
X15579D01*
X14653D02*
X14176D01*
X14719Y6706D02*
X15579D01*
X14653D02*
X14176D01*
X14719Y6701D02*
X15579D01*
X14653D02*
X14176D01*
X14719Y6696D02*
X15579D01*
X14653D02*
X14176D01*
X15579Y6691D02*
X15865D01*
X15579D02*
X14719D01*
X14653D02*
X14176D01*
X15579Y6686D02*
X15865D01*
X15579D02*
X14719D01*
X14653D01*
X14176D01*
Y6681D02*
X15866D01*
Y6676D02*
X14176D01*
Y6671D02*
X15866D01*
Y6666D02*
X14176D01*
Y6661D02*
X15866D01*
Y6656D02*
X14176D01*
Y6651D02*
X15866D01*
X14172Y6687D02*
X14062D01*
X13908D02*
X13861D01*
Y6781D02*
X14172D01*
Y6776D02*
X13861D01*
Y6771D02*
X14172D01*
Y6766D02*
X13861D01*
Y6761D02*
X14172D01*
Y6756D02*
X13861D01*
Y6751D02*
X14172D01*
Y6746D02*
X13861D01*
Y6741D02*
X14172D01*
Y6736D02*
X13861D01*
Y6731D02*
X14172D01*
Y6726D02*
X13861D01*
Y6721D02*
X14172D01*
Y6716D02*
X13861D01*
Y6711D02*
X14172D01*
Y6706D02*
X13861D01*
Y6701D02*
X14172D01*
Y6696D02*
X13861D01*
X14058Y6691D02*
X14172D01*
X14170Y6586D02*
X14131D01*
Y6591D02*
X14170D01*
Y6596D02*
X14131D01*
X14174Y6586D02*
X15866D01*
Y6591D02*
X14174D01*
Y6596D02*
X15866D01*
X11808Y6598D02*
X10426D01*
X11784D02*
X11958D01*
X10431Y6598D02*
X10394D01*
X12371Y6830D02*
X12576D01*
X12379Y6909D02*
X12111D01*
Y6830D02*
X12379D01*
X12355Y6870D02*
X12615D01*
X10127Y6933D02*
X9973D01*
X9946Y6893D02*
X10123D01*
X10005Y6933D02*
X9592D01*
X12127Y6885D02*
X12340D01*
X9985Y6893D02*
X9434D01*
X12371Y6948D02*
X12536D01*
X12375D02*
X12111D01*
X10170Y6972D02*
X10021D01*
X10009Y6952D02*
X10151D01*
X10044Y6972D02*
X9631D01*
X9611Y6952D02*
X10025D01*
X14392Y6816D02*
X14449D01*
Y6883D02*
X14392D01*
X14462Y6816D02*
X14512D01*
Y6883D02*
X14462D01*
X14546Y6851D02*
X14569D01*
Y6918D02*
X14512D01*
X14582Y6851D02*
X14639D01*
Y6918D02*
X14582D01*
X14653Y6818D02*
X14719D01*
X14569Y6848D02*
X14546D01*
X14582D02*
X14639D01*
X14832Y6816D02*
X14889D01*
Y6883D02*
X14832D01*
X14902Y6816D02*
X14959D01*
Y6883D02*
X14902D01*
X14176Y6976D02*
X15866D01*
Y6971D02*
X14176D01*
Y6966D02*
X15866D01*
Y6961D02*
X14176D01*
Y6956D02*
X15866D01*
Y6951D02*
X14176D01*
Y6946D02*
X15866D01*
Y6941D02*
X14176D01*
Y6936D02*
X15866D01*
Y6931D02*
X14176D01*
X14639Y6926D02*
X15866D01*
X14639D02*
X14582D01*
X14569D01*
X14512D01*
X14176D01*
X14639Y6921D02*
X15866D01*
X14639D02*
X14582D01*
X14569D01*
X14512D01*
X14176D01*
X14639Y6916D02*
X15866D01*
X14582D02*
X14569D01*
X14512D02*
X14176D01*
X14639Y6911D02*
X15866D01*
X14582D02*
X14569D01*
X14512D02*
X14176D01*
X14639Y6906D02*
X15866D01*
X14582D02*
X14569D01*
X14512D02*
X14176D01*
X14639Y6901D02*
X15866D01*
X14582D02*
X14569D01*
X14512D02*
X14176D01*
X14639Y6896D02*
X15866D01*
X14582D02*
X14569D01*
X14512D02*
X14176D01*
X14959Y6891D02*
X15866D01*
X14959D02*
X14902D01*
X14889D01*
X14832D01*
X14639D01*
X14582D02*
X14569D01*
X14512D02*
X14462D01*
X14449D01*
X14392D01*
X14176D01*
X14959Y6886D02*
X15866D01*
X14959D02*
X14902D01*
X14889D01*
X14832D01*
X14639D01*
X14582D02*
X14569D01*
X14512D02*
X14462D01*
X14449D01*
X14392D01*
X14176D01*
X14959Y6881D02*
X15866D01*
X14902D02*
X14889D01*
X14832D02*
X14639D01*
X14582D02*
X14569D01*
X14462D02*
X14449D01*
X14392D02*
X14176D01*
X14959Y6876D02*
X15866D01*
X14902D02*
X14889D01*
X14832D02*
X14639D01*
X14582D02*
X14569D01*
X14462D02*
X14449D01*
X14392D02*
X14176D01*
X14959Y6871D02*
X15866D01*
X14902D02*
X14889D01*
X14832D02*
X14639D01*
X14582D02*
X14569D01*
X14462D02*
X14449D01*
X14392D02*
X14176D01*
X14959Y6866D02*
X15866D01*
X14902D02*
X14889D01*
X14832D02*
X14639D01*
X14582D02*
X14569D01*
X14462D02*
X14449D01*
X14392D02*
X14176D01*
X14959Y6861D02*
X15866D01*
X14902D02*
X14889D01*
X14832D02*
X14639D01*
X14582D02*
X14569D01*
X14462D02*
X14449D01*
X14392D02*
X14176D01*
X14959Y6856D02*
X15866D01*
X14902D02*
X14889D01*
X14832D02*
X14639D01*
X14582D02*
X14569D01*
X14462D02*
X14449D01*
X14392D02*
X14176D01*
X14959Y6851D02*
X15866D01*
X14902D02*
X14889D01*
X14832D02*
X14639D01*
X14582D02*
X14569D01*
X14462D02*
X14449D01*
X14392D02*
X14176D01*
X14959Y6846D02*
X15866D01*
X14902D02*
X14889D01*
X14832D02*
X14639D01*
X14582D02*
X14569D01*
X14462D02*
X14449D01*
X14392D02*
X14176D01*
X14959Y6841D02*
X15866D01*
X14902D02*
X14889D01*
X14832D02*
X14639D01*
X14582D02*
X14569D01*
X14462D02*
X14449D01*
X14392D02*
X14176D01*
X14959Y6836D02*
X15866D01*
X14902D02*
X14889D01*
X14832D02*
X14639D01*
X14582D02*
X14569D01*
X14462D02*
X14449D01*
X14392D02*
X14176D01*
X14959Y6831D02*
X15866D01*
X14902D02*
X14889D01*
X14832D02*
X14639D01*
X14582D02*
X14569D01*
X14462D02*
X14449D01*
X14392D02*
X14176D01*
X14959Y6826D02*
X15866D01*
X14902D02*
X14889D01*
X14832D02*
X14719D01*
X14653D01*
X14639D01*
X14582D02*
X14569D01*
X14462D02*
X14449D01*
X14392D02*
X14176D01*
X14959Y6821D02*
X15866D01*
X14902D02*
X14889D01*
X14832D02*
X14719D01*
X14653D01*
X14639D01*
X14582D02*
X14569D01*
X14462D02*
X14449D01*
X14392D02*
X14176D01*
X14959Y6816D02*
X15866D01*
X14902D02*
X14889D01*
X14832D02*
X14719D01*
X14653D02*
X14639D01*
X14582D02*
X14569D01*
X14462D02*
X14449D01*
X14392D02*
X14176D01*
X14959Y6811D02*
X15866D01*
X14959D02*
X14902D01*
X14889D01*
X14832D01*
X14719D01*
X14653D02*
X14639D01*
X14582D02*
X14569D01*
X14512D02*
X14462D01*
X14449D01*
X14392D01*
X14176D01*
X14719Y6806D02*
X15866D01*
X14653D02*
X14639D01*
X14582D02*
X14569D01*
X14512D02*
X14176D01*
X14719Y6801D02*
X15866D01*
X14653D02*
X14639D01*
X14582D02*
X14569D01*
X14512D02*
X14176D01*
X15579Y6796D02*
X15865D01*
X15579D02*
X14719D01*
X14653D02*
X14639D01*
X14582D02*
X14569D01*
X14512D02*
X14176D01*
X14172Y6976D02*
X13861D01*
Y6971D02*
X14172D01*
Y6966D02*
X13861D01*
Y6961D02*
X14172D01*
Y6956D02*
X13861D01*
Y6951D02*
X14172D01*
Y6946D02*
X13861D01*
Y6941D02*
X14172D01*
Y6936D02*
X13861D01*
Y6931D02*
X14172D01*
Y6926D02*
X13861D01*
Y6921D02*
X14172D01*
Y6916D02*
X13861D01*
Y6911D02*
X14172D01*
Y6906D02*
X13861D01*
Y6901D02*
X14172D01*
Y6896D02*
X13861D01*
Y6891D02*
X14172D01*
Y6886D02*
X13861D01*
Y6881D02*
X14172D01*
Y6876D02*
X13861D01*
Y6871D02*
X14172D01*
Y6866D02*
X13861D01*
Y6861D02*
X14172D01*
Y6856D02*
X13861D01*
Y6851D02*
X14172D01*
Y6846D02*
X13861D01*
Y6841D02*
X14172D01*
Y6836D02*
X13861D01*
Y6831D02*
X14172D01*
Y6826D02*
X13861D01*
Y6821D02*
X14172D01*
Y6816D02*
X13861D01*
Y6811D02*
X14172D01*
Y6806D02*
X13861D01*
Y6801D02*
X14172D01*
Y6796D02*
X13861D01*
X12576Y6791D02*
X12371D01*
X14726Y6793D02*
X14746D01*
X15865Y6790D02*
X15866D01*
X15865D02*
X15579D01*
Y6791D02*
X15865D01*
X15579D02*
X14755D01*
X14748D01*
X14653D02*
X14639D01*
X14582D02*
X14569D01*
X14512D02*
X14176D01*
X14755Y6786D02*
X15579D01*
X14653D02*
X14639D01*
X14582D02*
X14569D01*
X14512D02*
X14176D01*
X14172Y6791D02*
X13861D01*
Y6786D02*
X14172D01*
X13343Y7105D02*
X13332D01*
X13342D02*
X12363D01*
X12115Y7066D02*
X11906D01*
X12111D02*
X12371D01*
X12123Y7105D02*
X11883D01*
X12111D02*
X12375D01*
X12371Y7027D02*
X12111D01*
X12371D02*
X12536D01*
X10229Y7031D02*
X10099D01*
X10056Y7011D02*
X10210D01*
X10190Y6992D02*
X10064D01*
X10103Y7031D02*
X9690D01*
X9670Y7011D02*
X10084D01*
X10064Y6992D02*
X9651D01*
X12363Y7145D02*
X12540D01*
X12375D02*
X12111D01*
X12115D02*
X11922D01*
X14454Y7140D02*
X14474D01*
Y7102D02*
X14454D01*
X14676Y7053D02*
X14696D01*
Y7015D02*
X14676D01*
X14891Y7168D02*
X14911D01*
Y7130D02*
X14891D01*
X15865Y7008D02*
X15866D01*
X15865D02*
X15579D01*
X15865Y7105D02*
X15866D01*
X15865D02*
X15579D01*
X14974Y7101D02*
X14917D01*
X14920Y7168D02*
X14974D01*
X14920D02*
X14917D01*
X14987Y7101D02*
X15044D01*
Y7168D02*
X15035D01*
X15028D01*
X15004D02*
X14997D01*
X14987D01*
X15044Y7171D02*
X15866D01*
X15044D02*
X15035D01*
X14997D02*
X14987D01*
X14974D01*
X14917D01*
X14176D01*
X15044Y7166D02*
X15866D01*
X14987D02*
X14974D01*
X14889D02*
X14882D01*
X14176D01*
X15044Y7161D02*
X15866D01*
X14987D02*
X14974D01*
X14882D02*
X14176D01*
X15044Y7156D02*
X15866D01*
X14987D02*
X14974D01*
X14882D02*
X14176D01*
X15044Y7151D02*
X15866D01*
X14987D02*
X14974D01*
X14882D02*
X14176D01*
X15044Y7146D02*
X15866D01*
X14987D02*
X14974D01*
X14882D02*
X14176D01*
X15045Y7141D02*
X15866D01*
X14987D02*
X14974D01*
X14882D02*
X14176D01*
X15045Y7136D02*
X15866D01*
X14987D02*
X14974D01*
X14882D02*
X14483D01*
X14445D02*
X14176D01*
X15045Y7131D02*
X15866D01*
X14987D02*
X14974D01*
X14890D02*
X14882D01*
X14483D01*
X14445D02*
X14176D01*
X15045Y7126D02*
X15866D01*
X14987D02*
X14974D01*
X14917D02*
X14483D01*
X14445D02*
X14176D01*
X15045Y7121D02*
X15866D01*
X14987D02*
X14974D01*
X14917D02*
X14483D01*
X14445D02*
X14176D01*
X15045Y7116D02*
X15866D01*
X14987D02*
X14974D01*
X14917D02*
X14483D01*
X14445D02*
X14176D01*
X15579Y7111D02*
X15865D01*
X15579D02*
X15045D01*
X14987D02*
X14974D01*
X14917D02*
X14483D01*
X14445D02*
X14176D01*
X15579Y7106D02*
X15865D01*
X15579D02*
X15045D01*
X14987D02*
X14974D01*
X14917D02*
X14483D01*
X14445D02*
X14176D01*
X15044Y7101D02*
X15579D01*
X14987D02*
X14974D01*
X14917D02*
X14176D01*
X15044Y7096D02*
X15579D01*
X15044D02*
X14987D01*
X14974D01*
X14917D01*
X14176D01*
Y7091D02*
X15579D01*
Y7086D02*
X14176D01*
Y7081D02*
X15579D01*
Y7076D02*
X14176D01*
Y7071D02*
X15579D01*
Y7066D02*
X14176D01*
Y7061D02*
X15579D01*
Y7056D02*
X14176D01*
X14705Y7051D02*
X15579D01*
X14705D02*
X14698D01*
X14674D02*
X14667D01*
X14176D01*
X14705Y7046D02*
X15579D01*
X14667D02*
X14176D01*
X14705Y7041D02*
X15579D01*
X14667D02*
X14176D01*
X14705Y7036D02*
X15579D01*
X14667D02*
X14176D01*
X14705Y7031D02*
X15579D01*
X14667D02*
X14176D01*
X14705Y7026D02*
X15579D01*
X14667D02*
X14176D01*
X14705Y7021D02*
X15579D01*
X14667D02*
X14176D01*
X14705Y7016D02*
X15579D01*
X14705D02*
X14697D01*
X14675D02*
X14667D01*
X14176D01*
Y7011D02*
X15579D01*
Y7006D02*
X15865D01*
X15579D02*
X14176D01*
X15579Y7001D02*
X15865D01*
X15579D02*
X14176D01*
Y6996D02*
X15866D01*
Y6991D02*
X14176D01*
X14172Y7171D02*
X13861D01*
Y7166D02*
X14172D01*
Y7161D02*
X13861D01*
Y7156D02*
X14172D01*
Y7151D02*
X13861D01*
Y7146D02*
X14172D01*
Y7141D02*
X13861D01*
Y7136D02*
X14172D01*
Y7131D02*
X13861D01*
Y7126D02*
X14172D01*
Y7121D02*
X13861D01*
Y7116D02*
X14172D01*
Y7111D02*
X13861D01*
Y7106D02*
X14172D01*
Y7101D02*
X13861D01*
Y7096D02*
X14172D01*
Y7091D02*
X13861D01*
Y7086D02*
X14172D01*
Y7081D02*
X13861D01*
Y7076D02*
X14172D01*
Y7071D02*
X13861D01*
Y7066D02*
X14172D01*
Y7061D02*
X13861D01*
Y7056D02*
X14172D01*
Y7051D02*
X13861D01*
Y7046D02*
X14172D01*
Y7041D02*
X13861D01*
Y7036D02*
X14172D01*
Y7031D02*
X13861D01*
Y7026D02*
X14172D01*
Y7021D02*
X13861D01*
Y7016D02*
X14172D01*
Y7011D02*
X13861D01*
Y7006D02*
X14172D01*
Y7001D02*
X13861D01*
Y6996D02*
X14172D01*
Y6991D02*
X13861D01*
X13363Y7066D02*
X12363D01*
X12371Y6988D02*
X12576D01*
X12375D02*
X12111D01*
X14176Y6986D02*
X15866D01*
Y6981D02*
X14176D01*
X14172Y6986D02*
X13861D01*
Y6981D02*
X14172D01*
X12099Y7196D02*
X12088D01*
X12099D02*
X12111D01*
X12123D01*
X12351Y7212D02*
X12383D01*
X12391Y7196D02*
X12351D01*
X12088D02*
X12084D01*
X11962D02*
X11947D01*
X11962D02*
X12084D01*
X12081D01*
X12112Y7212D02*
X12351D01*
X12112D02*
X12102D01*
X12095D01*
X12092D01*
X12123Y7196D02*
X12351D01*
X12099D02*
X12096D01*
X12348D02*
X12351D01*
Y7212D02*
X12348D01*
X12088Y7196D02*
X12085D01*
X11984Y7331D02*
X11816D01*
X11817Y7326D02*
X11989D01*
X11994Y7321D02*
X11822D01*
X11827Y7316D02*
X11999D01*
X12004Y7311D02*
X11832D01*
X11837Y7306D02*
X12009D01*
X12014Y7301D02*
X11842D01*
X11847Y7296D02*
X12019D01*
X12024Y7291D02*
X11852D01*
X11857Y7286D02*
X12029D01*
X12034Y7281D02*
X11862D01*
X11867Y7276D02*
X12039D01*
X12044Y7271D02*
X11872D01*
X11877Y7266D02*
X12049D01*
X12054Y7261D02*
X11882D01*
X11887Y7256D02*
X12059D01*
X12064Y7251D02*
X11892D01*
X11897Y7246D02*
X12069D01*
X12074Y7241D02*
X11902D01*
X11907Y7236D02*
X12079D01*
X12084Y7231D02*
X11912D01*
X11917Y7226D02*
X12089D01*
X12094Y7221D02*
X11922D01*
X11927Y7216D02*
X12095D01*
X12351Y7211D02*
X12383D01*
X12351D02*
X12111D01*
X12104D01*
X12095D01*
X11932D01*
X12351Y7206D02*
X12383D01*
X12351D02*
X12095D01*
X11937D01*
X12351Y7201D02*
X12391D01*
X12351D02*
X12123D01*
X12111D01*
X12099D01*
X12088D01*
X12084D02*
X11962D01*
X11942D01*
X13458Y7342D02*
X13481D01*
X11949Y7366D02*
X11816D01*
Y7361D02*
X11954D01*
X11959Y7356D02*
X11816D01*
Y7351D02*
X11964D01*
X11969Y7346D02*
X11816D01*
Y7341D02*
X11974D01*
X11979Y7336D02*
X11816D01*
X15006Y7203D02*
X15026D01*
X15866Y7366D02*
X14176D01*
Y7361D02*
X15866D01*
Y7356D02*
X14176D01*
Y7351D02*
X15866D01*
Y7346D02*
X14176D01*
Y7341D02*
X15866D01*
Y7336D02*
X14176D01*
Y7331D02*
X15866D01*
Y7326D02*
X14176D01*
Y7321D02*
X15866D01*
Y7316D02*
X14176D01*
Y7311D02*
X15866D01*
Y7306D02*
X14176D01*
Y7301D02*
X15866D01*
Y7296D02*
X14176D01*
Y7291D02*
X15866D01*
Y7286D02*
X14176D01*
Y7281D02*
X15866D01*
Y7276D02*
X14176D01*
Y7271D02*
X15866D01*
Y7266D02*
X14176D01*
Y7261D02*
X15866D01*
Y7256D02*
X14176D01*
Y7251D02*
X15866D01*
Y7246D02*
X14176D01*
Y7241D02*
X15866D01*
Y7236D02*
X14176D01*
Y7231D02*
X15866D01*
Y7226D02*
X14176D01*
Y7221D02*
X15866D01*
Y7216D02*
X14176D01*
Y7211D02*
X15866D01*
Y7206D02*
X14176D01*
X15035Y7201D02*
X15866D01*
X15035D02*
X15028D01*
X15004D02*
X14997D01*
X14176D01*
X15035Y7196D02*
X15866D01*
X14997D02*
X14176D01*
X15035Y7191D02*
X15866D01*
X14997D02*
X14176D01*
X14172Y7366D02*
X13861D01*
Y7361D02*
X14172D01*
Y7356D02*
X13861D01*
Y7351D02*
X14172D01*
Y7346D02*
X13861D01*
Y7341D02*
X14172D01*
Y7336D02*
X13861D01*
Y7331D02*
X14172D01*
Y7326D02*
X13861D01*
Y7321D02*
X14172D01*
Y7316D02*
X13861D01*
Y7311D02*
X14172D01*
Y7306D02*
X13861D01*
Y7301D02*
X14172D01*
Y7296D02*
X13861D01*
Y7291D02*
X14172D01*
Y7286D02*
X13861D01*
Y7281D02*
X14172D01*
Y7276D02*
X13861D01*
Y7271D02*
X14172D01*
Y7266D02*
X13861D01*
Y7261D02*
X14172D01*
Y7256D02*
X13861D01*
Y7251D02*
X14172D01*
Y7246D02*
X13861D01*
Y7241D02*
X14172D01*
Y7236D02*
X13861D01*
Y7231D02*
X14172D01*
Y7226D02*
X13861D01*
Y7221D02*
X14172D01*
Y7216D02*
X13861D01*
Y7211D02*
X14172D01*
Y7206D02*
X13861D01*
Y7201D02*
X14172D01*
Y7196D02*
X13861D01*
Y7191D02*
X14172D01*
X13467Y7342D02*
X13421D01*
X12111Y7185D02*
X12099D01*
X12363D02*
X13284D01*
X12379D02*
X12111D01*
X12099D02*
X12095D01*
X12099D02*
X11950D01*
X11942D01*
X15035Y7186D02*
X15866D01*
X14997D02*
X14176D01*
X15035Y7181D02*
X15866D01*
X14997D02*
X14176D01*
X15044Y7176D02*
X15866D01*
X15044D02*
X15035D01*
X14997D02*
X14987D01*
X14974D01*
X14917D01*
X14176D01*
X14172Y7186D02*
X13861D01*
Y7181D02*
X14172D01*
Y7176D02*
X13861D01*
X12930Y7500D02*
X12891D01*
X12812Y7539D02*
X12654D01*
X12615Y7500D02*
X12851D01*
X12477Y7519D02*
X12336D01*
X13481Y7421D02*
X13521D01*
X12340Y7519D02*
X12328D01*
X12064Y7515D02*
X11997D01*
X12060Y7452D02*
X12103D01*
X12135Y7515D02*
X12166D01*
X12174Y7452D02*
X12308D01*
X11879Y7436D02*
X11816D01*
Y7431D02*
X11884D01*
X11894Y7421D02*
X11817D01*
X11820Y7416D02*
X11899D01*
X11904Y7411D02*
X11816D01*
Y7406D02*
X11909D01*
X11914Y7401D02*
X11816D01*
Y7396D02*
X11919D01*
X11924Y7391D02*
X11816D01*
Y7386D02*
X11929D01*
X12340Y7539D02*
X12536D01*
X12351D02*
X12288D01*
X12296D02*
X12190D01*
X15865Y7405D02*
X15866D01*
X15579D02*
X14719D01*
X14653D02*
X14177D01*
X14176D01*
X14726Y7501D02*
X14746D01*
Y7463D02*
X14726D01*
X15865Y7499D02*
X15866D01*
X15865D02*
X15579D01*
X14639Y7559D02*
X14582D01*
X14569D02*
X14546D01*
X14653Y7456D02*
X14719D01*
Y7469D02*
X14721D01*
X14719D02*
X14717D01*
X14653D01*
Y7526D02*
X14719D01*
X14512Y7524D02*
X14462D01*
X14449D02*
X14392D01*
X14582Y7489D02*
X14639D01*
Y7556D02*
X14582D01*
X14569Y7489D02*
X14512D01*
X14546Y7556D02*
X14569D01*
X14902Y7524D02*
X14959D01*
X14889D02*
X14832D01*
X14959Y7561D02*
X15866D01*
X14902D02*
X14889D01*
X14832D02*
X14639D01*
X14582D02*
X14569D01*
X14462D02*
X14449D01*
X14392D02*
X14176D01*
X14959Y7556D02*
X15866D01*
X14902D02*
X14889D01*
X14832D02*
X14639D01*
X14582D01*
X14569D01*
X14546D01*
X14462D02*
X14449D01*
X14392D02*
X14176D01*
X14959Y7551D02*
X15866D01*
X14902D02*
X14889D01*
X14832D02*
X14639D01*
X14582D02*
X14569D01*
X14462D02*
X14449D01*
X14392D02*
X14176D01*
X14959Y7546D02*
X15866D01*
X14902D02*
X14889D01*
X14832D02*
X14639D01*
X14582D02*
X14569D01*
X14462D02*
X14449D01*
X14392D02*
X14176D01*
X14959Y7541D02*
X15866D01*
X14902D02*
X14889D01*
X14832D02*
X14639D01*
X14582D02*
X14569D01*
X14462D02*
X14449D01*
X14392D02*
X14176D01*
X14959Y7536D02*
X15866D01*
X14902D02*
X14889D01*
X14832D02*
X14639D01*
X14582D02*
X14569D01*
X14462D02*
X14449D01*
X14392D02*
X14176D01*
X14959Y7531D02*
X15866D01*
X14902D02*
X14889D01*
X14832D02*
X14719D01*
X14653D01*
X14639D01*
X14582D02*
X14569D01*
X14462D02*
X14449D01*
X14392D02*
X14176D01*
X14959Y7526D02*
X15866D01*
X14902D02*
X14889D01*
X14832D02*
X14719D01*
X14653D01*
X14639D01*
X14582D02*
X14569D01*
X14462D02*
X14449D01*
X14392D02*
X14176D01*
X14959Y7521D02*
X15866D01*
X14959D02*
X14902D01*
X14889D01*
X14832D01*
X14719D01*
X14653D02*
X14639D01*
X14582D02*
X14569D01*
X14512D02*
X14462D01*
X14449D01*
X14392D01*
X14176D01*
X14959Y7516D02*
X15866D01*
X14959D02*
X14902D01*
X14889D01*
X14832D01*
X14719D01*
X14653D02*
X14639D01*
X14582D02*
X14569D01*
X14512D02*
X14462D01*
X14449D01*
X14392D01*
X14176D01*
X14719Y7511D02*
X15866D01*
X14653D02*
X14639D01*
X14582D02*
X14569D01*
X14512D02*
X14176D01*
X15579Y7506D02*
X15865D01*
X15579D02*
X14719D01*
X14653D02*
X14639D01*
X14582D02*
X14569D01*
X14512D02*
X14176D01*
X15579Y7501D02*
X15865D01*
X15579D02*
X14746D01*
X14726D02*
X14719D01*
X14653D02*
X14639D01*
X14582D02*
X14569D01*
X14512D02*
X14176D01*
X14755Y7496D02*
X15579D01*
X14653D02*
X14639D01*
X14582D02*
X14569D01*
X14512D02*
X14176D01*
X14755Y7491D02*
X15579D01*
X14653D02*
X14639D01*
X14582D02*
X14569D01*
X14512D02*
X14176D01*
X14755Y7486D02*
X15579D01*
X14653D02*
X14639D01*
X14582D01*
X14569D01*
X14512D01*
X14176D01*
X14755Y7481D02*
X15579D01*
X14653D02*
X14639D01*
X14582D01*
X14569D01*
X14512D01*
X14176D01*
X14755Y7476D02*
X15579D01*
X14653D02*
X14176D01*
X14755Y7471D02*
X15579D01*
X14653D02*
X14176D01*
X14755Y7466D02*
X15579D01*
X14755D02*
X14749D01*
X14717D02*
X14653D01*
X14176D01*
X14719Y7461D02*
X15579D01*
X14719D02*
X14653D01*
X14176D01*
X14719Y7456D02*
X15579D01*
X14719D02*
X14653D01*
X14176D01*
X14719Y7451D02*
X15579D01*
X14653D02*
X14176D01*
X14719Y7446D02*
X15579D01*
X14653D02*
X14176D01*
X14719Y7441D02*
X15579D01*
X14653D02*
X14176D01*
X14719Y7436D02*
X15579D01*
X14653D02*
X14176D01*
X14719Y7431D02*
X15579D01*
X14653D02*
X14176D01*
X14719Y7426D02*
X15579D01*
X14653D02*
X14176D01*
X14719Y7421D02*
X15579D01*
X14653D02*
X14176D01*
X14719Y7416D02*
X15579D01*
X14653D02*
X14176D01*
X14719Y7411D02*
X15579D01*
X14653D02*
X14176D01*
X14719Y7406D02*
X15579D01*
X14653D02*
X14176D01*
X14719Y7400D02*
X15866D01*
X14653D02*
X14176D01*
X14653Y7399D02*
X14719D01*
Y7396D02*
X15866D01*
X14719D02*
X14653D01*
X14176D01*
X14719Y7391D02*
X15866D01*
X14719D02*
X14653D01*
X14176D01*
Y7386D02*
X15866D01*
X14172Y7561D02*
X13861D01*
Y7556D02*
X14172D01*
Y7551D02*
X13861D01*
Y7546D02*
X14172D01*
Y7541D02*
X13861D01*
Y7536D02*
X14172D01*
Y7531D02*
X13861D01*
Y7526D02*
X14172D01*
Y7521D02*
X13861D01*
Y7516D02*
X14172D01*
Y7511D02*
X13861D01*
Y7506D02*
X14172D01*
Y7501D02*
X13861D01*
Y7496D02*
X14172D01*
Y7491D02*
X13861D01*
Y7486D02*
X14172D01*
Y7481D02*
X13861D01*
Y7476D02*
X14172D01*
Y7471D02*
X13861D01*
Y7466D02*
X14172D01*
Y7461D02*
X13861D01*
Y7456D02*
X14172D01*
Y7451D02*
X13861D01*
Y7446D02*
X14172D01*
Y7441D02*
X13861D01*
Y7436D02*
X14172D01*
Y7431D02*
X13861D01*
Y7426D02*
X14172D01*
Y7421D02*
X13861D01*
Y7416D02*
X14172D01*
Y7411D02*
X13861D01*
Y7406D02*
X14172D01*
Y7401D02*
X13861D01*
Y7396D02*
X14172D01*
Y7391D02*
X13861D01*
Y7386D02*
X14172D01*
X13259Y7441D02*
X13224D01*
X11885Y7426D02*
X11819D01*
X11816Y7438D02*
X11875D01*
X11816D02*
X11814D01*
X11816Y7443D02*
X11809D01*
X11771Y7493D02*
X11752D01*
Y7551D02*
X11762D01*
X11767Y7546D02*
X11752D01*
Y7541D02*
X11772D01*
X11777Y7536D02*
X11752D01*
Y7531D02*
X11782D01*
X11787Y7526D02*
X11752D01*
Y7521D02*
X11792D01*
X11797Y7516D02*
X11752D01*
Y7511D02*
X11802D01*
X11807Y7506D02*
X11752D01*
Y7501D02*
X11812D01*
X11817Y7496D02*
X11752D01*
X11780Y7491D02*
X11822D01*
X11780D02*
X11773D01*
X11780Y7486D02*
X11827D01*
X11832Y7481D02*
X11780D01*
Y7476D02*
X11837D01*
X11842Y7471D02*
X11781D01*
X11786Y7466D02*
X11847D01*
X11852Y7461D02*
X11791D01*
X11796Y7456D02*
X11857D01*
X11862Y7451D02*
X11816D01*
X11801D01*
X11816Y7446D02*
X11867D01*
X11816D02*
X11807D01*
X11816Y7441D02*
X11872D01*
X11877Y7436D02*
X11816D01*
X13481Y7381D02*
X13521D01*
X13489D02*
X13442D01*
X11934Y7381D02*
X11816D01*
Y7376D02*
X11939D01*
X11944Y7371D02*
X11816D01*
X14176Y7381D02*
X15866D01*
Y7376D02*
X14176D01*
Y7371D02*
X15866D01*
X14172Y7381D02*
X13861D01*
Y7376D02*
X14172D01*
Y7371D02*
X13861D01*
X13048Y7539D02*
X12985D01*
X13009D02*
X12930D01*
X12930Y7657D02*
X12969D01*
X12930Y7618D02*
X12891D01*
X12306D02*
X12217D01*
X12296D02*
X12654D01*
X12812Y7578D02*
X12851D01*
X12403Y7592D02*
X12223D01*
X12416Y7578D02*
X12615D01*
X12403Y7696D02*
X12231D01*
X12217Y7657D02*
X12296D01*
X12812D02*
X12851D01*
X12773Y7696D02*
X12399D01*
X12292Y7657D02*
X12694D01*
X14676Y7723D02*
X14696D01*
X15865Y7717D02*
X15866D01*
X15865D02*
X15579D01*
X14639Y7626D02*
X14582D01*
X14569D02*
X14512D01*
Y7591D02*
X14462D01*
X14449D02*
X14392D01*
X14902D02*
X14959D01*
X14889D02*
X14832D01*
X14705Y7756D02*
X15579D01*
X14667D02*
X14176D01*
X14705Y7751D02*
X15579D01*
Y7746D02*
X14705D01*
X14667D02*
X14176D01*
X14705Y7741D02*
X15579D01*
Y7736D02*
X14705D01*
X14667D02*
X14176D01*
X14705Y7731D02*
X15579D01*
X14667D02*
X14176D01*
X14705Y7726D02*
X15579D01*
X14705D02*
X14699D01*
X14673D02*
X14667D01*
X14176D01*
Y7721D02*
X15579D01*
Y7716D02*
X15865D01*
X15579D02*
X14176D01*
X15579Y7711D02*
X15865D01*
X15579D02*
X14176D01*
Y7706D02*
X15866D01*
Y7701D02*
X14176D01*
Y7696D02*
X15866D01*
Y7691D02*
X14176D01*
Y7686D02*
X15866D01*
Y7681D02*
X14176D01*
Y7676D02*
X15866D01*
Y7671D02*
X14176D01*
Y7666D02*
X15866D01*
Y7661D02*
X14176D01*
Y7656D02*
X15866D01*
Y7651D02*
X14176D01*
Y7646D02*
X15866D01*
Y7641D02*
X14176D01*
Y7636D02*
X15866D01*
Y7631D02*
X14639D01*
X14582D01*
X14569D01*
X14512D01*
X14176D01*
X14639Y7626D02*
X15866D01*
X14639D02*
X14582D01*
X14569D01*
X14512D01*
X14176D01*
X14639Y7621D02*
X15866D01*
X14582D02*
X14569D01*
X14512D02*
X14176D01*
X14639Y7616D02*
X15866D01*
X14582D02*
X14569D01*
X14512D02*
X14176D01*
X14639Y7611D02*
X15866D01*
X14582D02*
X14569D01*
X14512D02*
X14176D01*
X14639Y7606D02*
X15866D01*
X14582D02*
X14569D01*
X14512D02*
X14176D01*
X14639Y7601D02*
X15866D01*
X14582D02*
X14569D01*
X14512D02*
X14176D01*
X14959Y7596D02*
X15866D01*
X14959D02*
X14902D01*
X14889D01*
X14832D01*
X14639D01*
X14582D02*
X14569D01*
X14512D02*
X14462D01*
X14449D01*
X14392D01*
X14176D01*
X14959Y7591D02*
X15866D01*
X14959D02*
X14902D01*
X14889D01*
X14832D01*
X14639D01*
X14582D02*
X14569D01*
X14512D02*
X14462D01*
X14449D01*
X14392D01*
X14176D01*
X14959Y7586D02*
X15866D01*
X14902D02*
X14889D01*
X14832D02*
X14639D01*
X14582D02*
X14569D01*
X14462D02*
X14449D01*
X14392D02*
X14176D01*
X14959Y7581D02*
X15866D01*
X14902D02*
X14889D01*
X14832D02*
X14639D01*
X14582D02*
X14569D01*
X14462D02*
X14449D01*
X14392D02*
X14176D01*
Y7741D02*
X14667D01*
Y7751D02*
X14176D01*
X14172Y7756D02*
X13861D01*
Y7751D02*
X14172D01*
Y7746D02*
X13861D01*
Y7741D02*
X14172D01*
Y7736D02*
X13861D01*
Y7731D02*
X14172D01*
Y7726D02*
X13861D01*
Y7721D02*
X14172D01*
Y7716D02*
X13861D01*
Y7711D02*
X14172D01*
Y7706D02*
X13861D01*
Y7701D02*
X14172D01*
Y7696D02*
X13861D01*
Y7691D02*
X14172D01*
Y7686D02*
X13861D01*
Y7681D02*
X14172D01*
Y7676D02*
X13861D01*
Y7671D02*
X14172D01*
Y7666D02*
X13861D01*
Y7661D02*
X14172D01*
Y7656D02*
X13861D01*
Y7651D02*
X14172D01*
Y7646D02*
X13861D01*
Y7641D02*
X14172D01*
Y7636D02*
X13861D01*
Y7631D02*
X14172D01*
Y7626D02*
X13861D01*
Y7621D02*
X14172D01*
Y7616D02*
X13861D01*
Y7611D02*
X14172D01*
Y7606D02*
X13861D01*
Y7601D02*
X14172D01*
Y7596D02*
X13861D01*
Y7591D02*
X14172D01*
Y7586D02*
X13861D01*
Y7581D02*
X14172D01*
X14959Y7576D02*
X15866D01*
X14902D02*
X14889D01*
X14832D02*
X14639D01*
X14582D02*
X14569D01*
X14462D02*
X14449D01*
X14392D02*
X14176D01*
X14959Y7571D02*
X15866D01*
X14902D02*
X14889D01*
X14832D02*
X14639D01*
X14582D02*
X14569D01*
X14462D02*
X14449D01*
X14392D02*
X14176D01*
X14959Y7566D02*
X15866D01*
X14902D02*
X14889D01*
X14832D02*
X14639D01*
X14582D02*
X14569D01*
X14462D02*
X14449D01*
X14392D02*
X14176D01*
X14172Y7576D02*
X13861D01*
Y7571D02*
X14172D01*
Y7566D02*
X13861D01*
X10117Y7592D02*
X7273D01*
Y7756D02*
X10117D01*
Y7751D02*
X7273D01*
Y7746D02*
X10117D01*
Y7741D02*
X7273D01*
Y7736D02*
X10117D01*
Y7731D02*
X7273D01*
Y7726D02*
X10117D01*
Y7721D02*
X7273D01*
Y7716D02*
X10117D01*
Y7711D02*
X7273D01*
Y7706D02*
X10117D01*
Y7701D02*
X7273D01*
Y7696D02*
X10117D01*
Y7691D02*
X7273D01*
Y7686D02*
X10117D01*
Y7681D02*
X7273D01*
Y7676D02*
X10117D01*
Y7671D02*
X7273D01*
Y7666D02*
X10117D01*
Y7661D02*
X7273D01*
Y7656D02*
X10117D01*
Y7651D02*
X7273D01*
Y7646D02*
X10117D01*
Y7641D02*
X7273D01*
Y7636D02*
X10117D01*
Y7631D02*
X7273D01*
Y7626D02*
X10117D01*
Y7621D02*
X7273D01*
Y7616D02*
X10117D01*
Y7611D02*
X7273D01*
Y7606D02*
X10117D01*
Y7601D02*
X7273D01*
Y7596D02*
X10117D01*
X12950Y7598D02*
X13029D01*
X12991Y7637D02*
X12950D01*
X12507Y7909D02*
X12489D01*
X12501Y7923D02*
X12859D01*
X12464Y7893D02*
X12450D01*
X12464D02*
X12719D01*
X12790D01*
X12806Y7909D02*
X12499D01*
X13860Y7831D02*
X13897D01*
X14073D02*
X14178D01*
X13892Y7836D02*
X13860D01*
X14078D02*
X14178D01*
X13887Y7841D02*
X13860D01*
X14083D02*
X14178D01*
X13882Y7846D02*
X13860D01*
X14088D02*
X14178D01*
X13877Y7851D02*
X13860D01*
X14093D02*
X14178D01*
X13872Y7856D02*
X13860D01*
X14098D02*
X14178D01*
X13867Y7861D02*
X13860D01*
X14103D02*
X14178D01*
Y7866D02*
X14108D01*
X14113Y7871D02*
X14178D01*
Y7876D02*
X14118D01*
X14123Y7881D02*
X14131D01*
X14178D01*
Y7886D02*
X14131D01*
Y7891D02*
X14178D01*
Y7896D02*
X14131D01*
Y7901D02*
X14178D01*
Y7906D02*
X14131D01*
Y7911D02*
X14178D01*
Y7916D02*
X14131D01*
Y7921D02*
X14178D01*
Y7926D02*
X14131D01*
Y7931D02*
X14178D01*
Y7936D02*
X14131D01*
Y7941D02*
X14178D01*
Y7946D02*
X14131D01*
Y7951D02*
X14178D01*
X13860Y7826D02*
X13859D01*
X13860D02*
X13902D01*
X14068D02*
X14178D01*
X15044Y7871D02*
X15866D01*
X14987D02*
X14974D01*
X14917D02*
X14916D01*
X14886D02*
X14882D01*
X14176D01*
X14454Y7843D02*
X14474D01*
Y7805D02*
X14454D01*
X14891Y7838D02*
X14911D01*
X15865Y7814D02*
X15866D01*
X15865D02*
X15579D01*
X15044Y7809D02*
X14987D01*
X14974D02*
X14917D01*
X15044Y7866D02*
X15866D01*
X14987D02*
X14974D01*
X14882D02*
X14176D01*
X15044Y7861D02*
X15866D01*
X14987D02*
X14974D01*
X14882D02*
X14176D01*
X15044Y7856D02*
X15866D01*
X14987D02*
X14974D01*
X14882D02*
X14176D01*
X15044Y7851D02*
X15866D01*
X14987D02*
X14974D01*
X14882D02*
X14176D01*
X15045Y7846D02*
X15866D01*
X14987D02*
X14974D01*
X14882D02*
X14176D01*
X15045Y7841D02*
X15866D01*
X14987D02*
X14974D01*
X14888D02*
X14882D01*
X14483D01*
X14476D01*
X14452D02*
X14445D01*
X14176D01*
X15045Y7836D02*
X15866D01*
X14987D02*
X14974D01*
X14917D02*
X14483D01*
X14445D02*
X14176D01*
X15045Y7831D02*
X15866D01*
X14987D02*
X14974D01*
X14917D02*
X14483D01*
X14445D02*
X14176D01*
X15045Y7826D02*
X15866D01*
X14987D02*
X14974D01*
X14917D02*
X14483D01*
X14445D02*
X14176D01*
X15579Y7821D02*
X15865D01*
X15579D02*
X15045D01*
X14987D02*
X14974D01*
X14917D02*
X14483D01*
X14445D02*
X14176D01*
X15579Y7816D02*
X15865D01*
X15579D02*
X15045D01*
X14987D02*
X14974D01*
X14917D02*
X14483D01*
X14445D02*
X14176D01*
X15044Y7811D02*
X15579D01*
X14987D02*
X14974D01*
X14445D02*
X14176D01*
X15044Y7806D02*
X15579D01*
X15044D02*
X14987D01*
X14974D01*
X14917D01*
X14483D01*
X14475D01*
X14453D02*
X14445D01*
X14176D01*
X15044Y7801D02*
X15579D01*
X15044D02*
X14987D01*
X14974D01*
X14917D01*
X14176D01*
Y7796D02*
X15579D01*
Y7791D02*
X14176D01*
Y7786D02*
X15579D01*
Y7781D02*
X14176D01*
Y7776D02*
X15579D01*
X15866Y7872D02*
X15044D01*
X14987D02*
X14974D01*
X14917D02*
X14915D01*
X14887D02*
X14882D01*
X14177D01*
X14176D01*
X14891Y7876D02*
X14911D01*
X15006Y7911D02*
X15026D01*
X15035Y7876D02*
X15044D01*
X15035D02*
X15028D01*
X15004D02*
X14997D01*
X14987D01*
X14974D02*
X14920D01*
X14917D01*
X14176Y7951D02*
X15866D01*
Y7946D02*
X14176D01*
Y7941D02*
X15866D01*
Y7936D02*
X14176D01*
Y7931D02*
X15866D01*
Y7926D02*
X14176D01*
Y7921D02*
X15866D01*
Y7916D02*
X14176D01*
X15026Y7911D02*
X15866D01*
X15006D02*
X14176D01*
X15035Y7906D02*
X15866D01*
X14997D02*
X14176D01*
X15035Y7901D02*
X15866D01*
X14997D02*
X14176D01*
X15035Y7896D02*
X15866D01*
X14997D02*
X14176D01*
X15035Y7891D02*
X15866D01*
X14997D02*
X14176D01*
X15035Y7886D02*
X15866D01*
X14997D02*
X14176D01*
X15044Y7881D02*
X15866D01*
X15044D02*
X15035D01*
X14997D02*
X14987D01*
X14974D01*
X14917D01*
X14176D01*
X15044Y7876D02*
X15866D01*
X15044D02*
X15029D01*
X15003D02*
X14987D01*
X14974D01*
X14917D01*
X14911D01*
X14891D02*
X14176D01*
X14483Y7811D02*
X14917D01*
X14172Y7823D02*
X14065D01*
X13905D02*
X13872D01*
Y7824D02*
X13861D01*
X13912Y7816D02*
X14058D01*
X14063Y7821D02*
X14172D01*
X13907D02*
X13872D01*
X13861D01*
X14058Y7816D02*
X14172D01*
X13912D02*
X13872D01*
X13861D01*
Y7811D02*
X14172D01*
Y7806D02*
X13861D01*
Y7801D02*
X14172D01*
Y7796D02*
X13861D01*
Y7791D02*
X14172D01*
Y7786D02*
X13861D01*
Y7781D02*
X14172D01*
Y7776D02*
X13861D01*
X14676Y7761D02*
X14696D01*
X14176Y7771D02*
X15579D01*
Y7766D02*
X14176D01*
X14696Y7761D02*
X15579D01*
X14676D02*
X14176D01*
X14172Y7771D02*
X13861D01*
Y7766D02*
X14172D01*
Y7761D02*
X13861D01*
X7542Y7816D02*
X7396D01*
X9818D02*
X9964D01*
X10037Y7951D02*
X10117D01*
X9745D02*
X7615D01*
X7323D02*
X7273D01*
X10037Y7946D02*
X10117D01*
X9745D02*
X7615D01*
X7323D02*
X7273D01*
X10037Y7941D02*
X10117D01*
X9745D02*
X7615D01*
X7323D02*
X7273D01*
X10037Y7936D02*
X10117D01*
X9745D02*
X7615D01*
X7323D02*
X7273D01*
X10037Y7931D02*
X10117D01*
X9745D02*
X7615D01*
X7323D02*
X7273D01*
X10037Y7926D02*
X10117D01*
X9745D02*
X7615D01*
X7323D02*
X7273D01*
X10037Y7921D02*
X10117D01*
X9745D02*
X7615D01*
X7323D02*
X7273D01*
X10037Y7916D02*
X10117D01*
X9745D02*
X7615D01*
X7323D02*
X7273D01*
X10037Y7911D02*
X10117D01*
X9745D02*
X7615D01*
X7323D02*
X7273D01*
X10037Y7906D02*
X10117D01*
X9745D02*
X7615D01*
X7323D02*
X7273D01*
X10037Y7901D02*
X10117D01*
X9745D02*
X7615D01*
X7323D02*
X7273D01*
X10037Y7896D02*
X10117D01*
X9745D02*
X7615D01*
X7323D02*
X7273D01*
X10037Y7891D02*
X10117D01*
X9745D02*
X7615D01*
X7323D02*
X7273D01*
X10037Y7886D02*
X10117D01*
X9745D02*
X7615D01*
X7323D02*
X7273D01*
X10037Y7881D02*
X10117D01*
X10037D02*
X10029D01*
X9753D02*
X9745D01*
X7615D01*
X7607D01*
X7331D02*
X7323D01*
X7273D01*
X10024Y7876D02*
X10117D01*
X9758D02*
X7602D01*
X7336D02*
X7273D01*
X10019Y7871D02*
X10117D01*
X9763D02*
X7597D01*
X7341D02*
X7273D01*
X10014Y7866D02*
X10117D01*
X9768D02*
X7592D01*
X7346D02*
X7273D01*
X10009Y7861D02*
X10117D01*
X9773D02*
X7587D01*
X7351D02*
X7273D01*
X10004Y7856D02*
X10117D01*
X9778D02*
X7582D01*
X7356D02*
X7273D01*
X9999Y7851D02*
X10117D01*
X9783D02*
X7577D01*
X7361D02*
X7273D01*
X9994Y7846D02*
X10117D01*
X9788D02*
X7572D01*
X7366D02*
X7273D01*
X9989Y7841D02*
X10117D01*
X9793D02*
X7567D01*
X7371D02*
X7273D01*
X9984Y7836D02*
X10117D01*
X9798D02*
X7562D01*
X7376D02*
X7273D01*
X9979Y7831D02*
X10117D01*
X9803D02*
X7557D01*
X7381D02*
X7273D01*
X9974Y7826D02*
X10117D01*
X9808D02*
X7552D01*
X7386D02*
X7273D01*
X9969Y7821D02*
X10117D01*
X9813D02*
X7547D01*
X7391D02*
X7273D01*
X9964Y7816D02*
X10117D01*
X9818D02*
X7542D01*
X7396D02*
X7273D01*
Y7811D02*
X10117D01*
Y7806D02*
X7273D01*
Y7801D02*
X10117D01*
Y7796D02*
X7273D01*
Y7791D02*
X10117D01*
Y7786D02*
X7273D01*
Y7781D02*
X10117D01*
Y7776D02*
X7273D01*
Y7771D02*
X10117D01*
Y7766D02*
X7273D01*
Y7761D02*
X10117D01*
X12780Y8076D02*
X12891D01*
X12780D02*
X12617D01*
X12277Y8141D02*
X12243D01*
X12741Y8033D02*
X12777D01*
X12674D02*
X12595D01*
X12532D02*
X12497D01*
X14131Y7971D02*
X14178D01*
Y7976D02*
X14131D01*
Y7981D02*
X14178D01*
Y7986D02*
X14131D01*
Y7991D02*
X14178D01*
Y7996D02*
X14131D01*
Y8001D02*
X14178D01*
Y8006D02*
X14131D01*
Y8011D02*
X14178D01*
Y8016D02*
X14131D01*
Y8021D02*
X14178D01*
Y8026D02*
X14131D01*
Y8031D02*
X14178D01*
Y8036D02*
X14131D01*
Y8041D02*
X14178D01*
Y8046D02*
X14120D01*
X14115Y8051D02*
X14178D01*
Y8056D02*
X14110D01*
X14105Y8061D02*
X14178D01*
X13870Y8066D02*
X13860D01*
X14100D02*
X14178D01*
X13875Y8071D02*
X13860D01*
X14095D02*
X14178D01*
X13880Y8076D02*
X13860D01*
X14090D02*
X14178D01*
X13885Y8081D02*
X13860D01*
X14085D02*
X14178D01*
X13890Y8086D02*
X13860D01*
X14080D02*
X14178D01*
X13895Y8091D02*
X13860D01*
X14075D02*
X14178D01*
X13900Y8096D02*
X13860D01*
X14070D02*
X14178D01*
X13905Y8101D02*
X13860D01*
X14065D02*
X14178D01*
X13910Y8106D02*
X13860D01*
X14060D02*
X14178D01*
Y8111D02*
X13860D01*
Y8116D02*
X14178D01*
Y8121D02*
X13860D01*
Y8126D02*
X14178D01*
Y8131D02*
X13860D01*
Y8136D02*
X14178D01*
Y8141D02*
X13860D01*
Y8146D02*
X14178D01*
Y8151D02*
X13860D01*
X13912Y8108D02*
X14058D01*
X15865Y8111D02*
X15866D01*
X15865D02*
X15579D01*
X14719Y8109D02*
X14653D01*
X14719Y8151D02*
X15579D01*
X14653D02*
X14176D01*
X14719Y8146D02*
X15579D01*
X14653D02*
X14176D01*
X14719Y8141D02*
X15579D01*
X14653D02*
X14176D01*
X14719Y8136D02*
X15579D01*
X14653D02*
X14176D01*
X14719Y8131D02*
X15579D01*
X14653D02*
X14176D01*
X14719Y8126D02*
X15579D01*
X14653D02*
X14176D01*
X14719Y8121D02*
X15579D01*
X14653D02*
X14176D01*
X14719Y8116D02*
X15579D01*
X14653D02*
X14176D01*
X15579Y8111D02*
X15865D01*
X15579D02*
X14719D01*
X14653D02*
X14176D01*
X15579Y8106D02*
X15865D01*
X15579D02*
X14719D01*
X14653D01*
X14176D01*
X14719Y8101D02*
X15866D01*
X14719D02*
X14653D01*
X14176D01*
Y8096D02*
X15866D01*
Y8091D02*
X14176D01*
Y8086D02*
X15866D01*
Y8081D02*
X14176D01*
Y8076D02*
X15866D01*
Y8071D02*
X14176D01*
Y8066D02*
X15866D01*
Y8061D02*
X14176D01*
Y8056D02*
X15866D01*
Y8051D02*
X14176D01*
Y8046D02*
X15866D01*
Y8041D02*
X14176D01*
Y8036D02*
X15866D01*
Y8031D02*
X14176D01*
Y8026D02*
X15866D01*
Y8021D02*
X14176D01*
Y8016D02*
X15866D01*
Y8011D02*
X14176D01*
Y8006D02*
X15866D01*
Y8001D02*
X14176D01*
Y7996D02*
X15866D01*
Y7991D02*
X14176D01*
Y7986D02*
X15866D01*
Y7981D02*
X14176D01*
Y7976D02*
X15866D01*
Y7971D02*
X14176D01*
X14178Y7956D02*
X14131D01*
Y7961D02*
X14178D01*
Y7966D02*
X14131D01*
X14176D02*
X15866D01*
Y7961D02*
X14176D01*
Y7956D02*
X15866D01*
X7542Y8108D02*
X7396D01*
X9818D02*
X9964D01*
X10117Y8151D02*
X7273D01*
Y8146D02*
X10117D01*
Y8141D02*
X7273D01*
Y8136D02*
X10117D01*
Y8131D02*
X7273D01*
Y8126D02*
X10117D01*
Y8121D02*
X7273D01*
Y8116D02*
X10117D01*
Y8111D02*
X7273D01*
X9966Y8106D02*
X10117D01*
X9816D02*
X7544D01*
X7394D02*
X7273D01*
X9971Y8101D02*
X10117D01*
X9811D02*
X7549D01*
X7389D02*
X7273D01*
X9976Y8096D02*
X10117D01*
X9806D02*
X7554D01*
X7384D02*
X7273D01*
X9981Y8091D02*
X10117D01*
X9801D02*
X7559D01*
X7379D02*
X7273D01*
X9986Y8086D02*
X10117D01*
X9796D02*
X7564D01*
X7374D02*
X7273D01*
X9991Y8081D02*
X10117D01*
X9791D02*
X7569D01*
X7369D02*
X7273D01*
X9996Y8076D02*
X10117D01*
X9786D02*
X7574D01*
X7364D02*
X7273D01*
X10001Y8071D02*
X10117D01*
X9781D02*
X7579D01*
X7359D02*
X7273D01*
X10006Y8066D02*
X10117D01*
X9776D02*
X7584D01*
X7354D02*
X7273D01*
X10011Y8061D02*
X10117D01*
X9771D02*
X7589D01*
X7349D02*
X7273D01*
X10016Y8056D02*
X10117D01*
X9766D02*
X7594D01*
X7344D02*
X7273D01*
X10021Y8051D02*
X10117D01*
X9761D02*
X7599D01*
X7339D02*
X7273D01*
X10026Y8046D02*
X10117D01*
X9756D02*
X7604D01*
X7334D02*
X7273D01*
X10037Y8041D02*
X10117D01*
X9745D02*
X7615D01*
X7323D02*
X7273D01*
X10037Y8036D02*
X10117D01*
X9745D02*
X7615D01*
X7323D02*
X7273D01*
X10037Y8031D02*
X10117D01*
X9745D02*
X7615D01*
X7323D02*
X7273D01*
X10037Y8026D02*
X10117D01*
X9745D02*
X7615D01*
X7323D02*
X7273D01*
X10037Y8021D02*
X10117D01*
X9745D02*
X7615D01*
X7323D02*
X7273D01*
X10037Y8016D02*
X10117D01*
X9745D02*
X7615D01*
X7323D02*
X7273D01*
X10037Y8011D02*
X10117D01*
X9745D02*
X7615D01*
X7323D02*
X7273D01*
X10037Y8006D02*
X10117D01*
X9745D02*
X7615D01*
X7323D02*
X7273D01*
X10037Y8001D02*
X10117D01*
X9745D02*
X7615D01*
X7323D02*
X7273D01*
X10037Y7996D02*
X10117D01*
X9745D02*
X7615D01*
X7323D02*
X7273D01*
X10037Y7991D02*
X10117D01*
X9745D02*
X7615D01*
X7323D02*
X7273D01*
X10037Y7986D02*
X10117D01*
X9745D02*
X7615D01*
X7323D02*
X7273D01*
X10037Y7981D02*
X10117D01*
X9745D02*
X7615D01*
X7323D02*
X7273D01*
X10037Y7976D02*
X10117D01*
X9745D02*
X7615D01*
X7323D02*
X7273D01*
X10037Y7971D02*
X10117D01*
X9745D02*
X7615D01*
X7323D02*
X7273D01*
X10037Y7966D02*
X10117D01*
X9745D02*
X7615D01*
X7323D02*
X7273D01*
X10037Y7961D02*
X10117D01*
X9745D02*
X7615D01*
X7323D02*
X7273D01*
X10037Y7956D02*
X10117D01*
X9745D02*
X7615D01*
X7323D02*
X7273D01*
X12588Y7970D02*
X12662D01*
X12532D02*
X12497D01*
X12743Y7968D02*
X12780D01*
X13870Y8166D02*
X14178D01*
Y8171D02*
X13870D01*
Y8176D02*
X14178D01*
Y8181D02*
X13871D01*
X13870Y8186D02*
X14178D01*
Y8191D02*
X13870D01*
Y8196D02*
X13864D01*
X13870D02*
X14178D01*
Y8201D02*
X13860D01*
Y8206D02*
X14178D01*
Y8211D02*
X13860D01*
Y8216D02*
X14178D01*
X14080Y8221D02*
X13860D01*
X14080D02*
X14087D01*
X14111D02*
X14118D01*
X14178D01*
X14080Y8226D02*
X13860D01*
X14118D02*
X14178D01*
X14080Y8231D02*
X13860D01*
X14118D02*
X14178D01*
X14080Y8236D02*
X13860D01*
X14118D02*
X14178D01*
X14080Y8241D02*
X13860D01*
X14118D02*
X14178D01*
X14080Y8246D02*
X13860D01*
X14118D02*
X14178D01*
X14080Y8251D02*
X13860D01*
X14118D02*
X14178D01*
X14080Y8256D02*
X13860D01*
X14080D02*
X14088D01*
X14110D02*
X14118D01*
X14178D01*
Y8261D02*
X13860D01*
Y8266D02*
X14178D01*
Y8271D02*
X13860D01*
Y8276D02*
X14178D01*
Y8281D02*
X13860D01*
Y8286D02*
X13908D01*
X13922D01*
X13978D01*
X14178D01*
X13908Y8291D02*
X13860D01*
X13908D02*
X13922D01*
X13978D01*
X14178D01*
X13922Y8296D02*
X13908D01*
X13978D02*
X14178D01*
X13922Y8301D02*
X13908D01*
X13978D02*
X14178D01*
X13922Y8306D02*
X13908D01*
X13978D02*
X14025D01*
X14178D01*
X13922Y8311D02*
X13908D01*
X13978D02*
X13991D01*
X13999D01*
X14029D02*
X14178D01*
X13922Y8316D02*
X13908D01*
X14029D02*
X14178D01*
X13922Y8321D02*
X13908D01*
X14029D02*
X14178D01*
X13922Y8326D02*
X13908D01*
X14029D02*
X14178D01*
X13922Y8331D02*
X13908D01*
X14029D02*
X14178D01*
X13922Y8336D02*
X13908D01*
X14029D02*
X14178D01*
X13922Y8341D02*
X13908D01*
X14029D02*
X14178D01*
X13922Y8346D02*
X13908D01*
X13978D02*
X13991D01*
X13998D01*
X14029D02*
X14178D01*
X13908Y8295D02*
X13860D01*
X13922D02*
X13978D01*
X14089Y8219D02*
X14109D01*
Y8257D02*
X14089D01*
X14020Y8310D02*
X14000D01*
X13861Y8199D02*
X13860D01*
X13978Y8314D02*
X13991D01*
X13996D01*
X14024D02*
X14025D01*
X13991Y8344D02*
X13978D01*
X13991D02*
X13996D01*
X14024D02*
X14025D01*
X14726Y8211D02*
X14746D01*
Y8173D02*
X14726D01*
X15865Y8208D02*
X15866D01*
X15865D02*
X15579D01*
X14889Y8234D02*
X14832D01*
Y8301D02*
X14889D01*
X14902Y8234D02*
X14959D01*
Y8301D02*
X14902D01*
X14569Y8199D02*
X14512D01*
X14546Y8266D02*
X14569D01*
X14582Y8199D02*
X14639D01*
Y8266D02*
X14582D01*
X14449Y8234D02*
X14392D01*
Y8301D02*
X14449D01*
X14462Y8234D02*
X14512D01*
Y8301D02*
X14462D01*
X14719Y8179D02*
X14721D01*
X14719D02*
X14717D01*
X14653D01*
Y8236D02*
X14719D01*
Y8166D02*
X14653D01*
X14569Y8269D02*
X14546D01*
X14569Y8336D02*
X14512D01*
X14582Y8269D02*
X14639D01*
Y8336D02*
X14582D01*
X14176Y8346D02*
X15866D01*
Y8341D02*
X14639D01*
X14582D01*
X14569D01*
X14512D01*
X14176D01*
X14639Y8336D02*
X15866D01*
X14639D02*
X14582D01*
X14569D01*
X14512D01*
X14176D01*
X14639Y8331D02*
X15866D01*
X14582D02*
X14569D01*
X14512D02*
X14176D01*
X14639Y8326D02*
X15866D01*
X14582D02*
X14569D01*
X14512D02*
X14176D01*
X14639Y8321D02*
X15866D01*
X14582D02*
X14569D01*
X14512D02*
X14176D01*
X14639Y8316D02*
X15866D01*
X14582D02*
X14569D01*
X14512D02*
X14176D01*
X14639Y8311D02*
X15866D01*
X14582D02*
X14569D01*
X14512D02*
X14176D01*
X14959Y8306D02*
X15866D01*
X14959D02*
X14902D01*
X14889D01*
X14832D01*
X14639D01*
X14582D02*
X14569D01*
X14512D02*
X14462D01*
X14449D01*
X14392D01*
X14176D01*
X14959Y8301D02*
X15866D01*
X14959D02*
X14902D01*
X14889D01*
X14832D01*
X14639D01*
X14582D02*
X14569D01*
X14512D02*
X14462D01*
X14449D01*
X14392D01*
X14176D01*
X14959Y8296D02*
X15866D01*
X14902D02*
X14889D01*
X14832D02*
X14639D01*
X14582D02*
X14569D01*
X14462D02*
X14449D01*
X14392D02*
X14176D01*
X14959Y8291D02*
X15866D01*
X14902D02*
X14889D01*
X14832D02*
X14639D01*
X14582D02*
X14569D01*
X14462D02*
X14449D01*
X14392D02*
X14176D01*
X14959Y8286D02*
X15866D01*
X14902D02*
X14889D01*
X14832D02*
X14639D01*
X14582D02*
X14569D01*
X14462D02*
X14449D01*
X14392D02*
X14176D01*
X14959Y8281D02*
X15866D01*
X14902D02*
X14889D01*
X14832D02*
X14639D01*
X14582D02*
X14569D01*
X14462D02*
X14449D01*
X14392D02*
X14176D01*
X14959Y8276D02*
X15866D01*
X14902D02*
X14889D01*
X14832D02*
X14639D01*
X14582D02*
X14569D01*
X14462D02*
X14449D01*
X14392D02*
X14176D01*
X14959Y8271D02*
X15866D01*
X14902D02*
X14889D01*
X14832D02*
X14639D01*
X14582D02*
X14569D01*
X14462D02*
X14449D01*
X14392D02*
X14176D01*
X14959Y8266D02*
X15866D01*
X14902D02*
X14889D01*
X14832D02*
X14639D01*
X14582D01*
X14569D01*
X14546D01*
X14462D02*
X14449D01*
X14392D02*
X14176D01*
X14959Y8261D02*
X15866D01*
X14902D02*
X14889D01*
X14832D02*
X14639D01*
X14582D02*
X14569D01*
X14462D02*
X14449D01*
X14392D02*
X14176D01*
X14959Y8256D02*
X15866D01*
X14902D02*
X14889D01*
X14832D02*
X14639D01*
X14582D02*
X14569D01*
X14462D02*
X14449D01*
X14392D02*
X14176D01*
X14959Y8251D02*
X15866D01*
X14902D02*
X14889D01*
X14832D02*
X14639D01*
X14582D02*
X14569D01*
X14462D02*
X14449D01*
X14392D02*
X14176D01*
X14959Y8246D02*
X15866D01*
X14902D02*
X14889D01*
X14832D02*
X14639D01*
X14582D02*
X14569D01*
X14462D02*
X14449D01*
X14392D02*
X14176D01*
X14959Y8241D02*
X15866D01*
X14902D02*
X14889D01*
X14832D02*
X14719D01*
X14653D01*
X14639D01*
X14582D02*
X14569D01*
X14462D02*
X14449D01*
X14392D02*
X14176D01*
X14959Y8236D02*
X15866D01*
X14902D02*
X14889D01*
X14832D02*
X14719D01*
X14653D01*
X14639D01*
X14582D02*
X14569D01*
X14462D02*
X14449D01*
X14392D02*
X14176D01*
X14959Y8231D02*
X15866D01*
X14959D02*
X14902D01*
X14889D01*
X14832D01*
X14719D01*
X14653D02*
X14639D01*
X14582D02*
X14569D01*
X14512D02*
X14462D01*
X14449D01*
X14392D01*
X14176D01*
X14959Y8226D02*
X15866D01*
X14959D02*
X14902D01*
X14889D01*
X14832D01*
X14719D01*
X14653D02*
X14639D01*
X14582D02*
X14569D01*
X14512D02*
X14462D01*
X14449D01*
X14392D01*
X14176D01*
X14719Y8221D02*
X15866D01*
X14653D02*
X14639D01*
X14582D02*
X14569D01*
X14512D02*
X14176D01*
X15579Y8216D02*
X15865D01*
X15579D02*
X14719D01*
X14653D02*
X14639D01*
X14582D02*
X14569D01*
X14512D02*
X14176D01*
X15579Y8211D02*
X15865D01*
X15579D02*
X14746D01*
X14726D02*
X14719D01*
X14653D02*
X14639D01*
X14582D02*
X14569D01*
X14755Y8206D02*
X15579D01*
X14653D02*
X14639D01*
X14582D02*
X14569D01*
X14512D02*
X14176D01*
X14755Y8201D02*
X15579D01*
X14653D02*
X14639D01*
X14582D02*
X14569D01*
X14512D02*
X14176D01*
X14755Y8196D02*
X15579D01*
X14653D02*
X14639D01*
X14582D01*
X14569D01*
X14512D01*
X14176D01*
X14755Y8191D02*
X15579D01*
X14653D02*
X14639D01*
X14582D01*
X14569D01*
X14512D01*
X14176D01*
X14755Y8186D02*
X15579D01*
X14653D02*
X14176D01*
X14755Y8181D02*
X15579D01*
X14653D02*
X14176D01*
X14755Y8176D02*
X15579D01*
X14755D02*
X14749D01*
X14717D02*
X14653D01*
X14176D01*
X14719Y8171D02*
X15579D01*
X14719D02*
X14653D01*
X14176D01*
X14719Y8166D02*
X15579D01*
X14719D02*
X14653D01*
X14176D01*
Y8211D02*
X14512D01*
X14178Y8156D02*
X13860D01*
X13861Y8161D02*
X14178D01*
X13861Y8161D02*
X13860D01*
X14719Y8161D02*
X15579D01*
X14653D02*
X14176D01*
X14719Y8156D02*
X15579D01*
X14653D02*
X14176D01*
X7633Y8232D02*
X7609D01*
Y8184D02*
X7633D01*
X7974Y8233D02*
X7998D01*
Y8185D02*
X7974D01*
X9424Y8234D02*
X9448D01*
Y8186D02*
X9424D01*
X9766Y8225D02*
X9790D01*
Y8177D02*
X9766D01*
X10117Y8346D02*
X7273D01*
Y8341D02*
X10117D01*
Y8336D02*
X7273D01*
Y8331D02*
X10117D01*
Y8326D02*
X7273D01*
Y8321D02*
X10117D01*
Y8316D02*
X7273D01*
Y8311D02*
X10117D01*
Y8306D02*
X7273D01*
Y8301D02*
X10117D01*
Y8296D02*
X7273D01*
Y8291D02*
X10117D01*
Y8286D02*
X7273D01*
Y8281D02*
X10117D01*
Y8276D02*
X7273D01*
Y8271D02*
X10117D01*
Y8266D02*
X7273D01*
Y8261D02*
X10117D01*
Y8256D02*
X7273D01*
Y8251D02*
X10117D01*
Y8246D02*
X7273D01*
Y8241D02*
X10117D01*
Y8236D02*
X7273D01*
X9451Y8231D02*
X10117D01*
X9421D02*
X8000D01*
X7972D02*
X7634D01*
X7608D02*
X7273D01*
X9460Y8226D02*
X10117D01*
X9412D02*
X8010D01*
X7962D02*
X7645D01*
X7639D01*
X7603D02*
X7597D01*
X7273D01*
X9802Y8221D02*
X10117D01*
X9802D02*
X9794D01*
X9762D02*
X9754D01*
X9460D01*
X9412D02*
X8010D01*
X7962D02*
X7645D01*
X7597D02*
X7273D01*
X9802Y8216D02*
X10117D01*
X9754D02*
X9460D01*
X9412D02*
X8010D01*
X7962D02*
X7645D01*
X7597D02*
X7273D01*
X9802Y8211D02*
X10117D01*
X9754D02*
X9460D01*
X9412D02*
X8010D01*
X7962D02*
X7645D01*
X7597D02*
X7273D01*
X9802Y8206D02*
X10117D01*
X9754D02*
X9460D01*
X9412D02*
X8010D01*
X7962D02*
X7645D01*
X7597D02*
X7273D01*
X9802Y8201D02*
X10117D01*
X9754D02*
X9460D01*
X9412D02*
X8010D01*
X7962D02*
X7645D01*
X7597D02*
X7273D01*
X9802Y8196D02*
X10117D01*
X9754D02*
X9460D01*
X9412D02*
X8010D01*
X7962D02*
X7645D01*
X7597D02*
X7273D01*
X9802Y8191D02*
X10117D01*
X9754D02*
X9460D01*
X9453D01*
X9419D02*
X9412D01*
X8010D01*
X8004D01*
X7968D02*
X7962D01*
X7645D01*
X7597D02*
X7273D01*
X9802Y8186D02*
X10117D01*
X9754D02*
X7999D01*
X7973D02*
X7635D01*
X7607D02*
X7273D01*
X9802Y8181D02*
X10117D01*
X9802D02*
X9794D01*
X9762D02*
X9754D01*
X7273D01*
Y8176D02*
X10117D01*
Y8171D02*
X7273D01*
Y8166D02*
X10117D01*
Y8161D02*
X7273D01*
Y8156D02*
X10117D01*
X12714Y8242D02*
X12932D01*
X13066Y8431D02*
X13080D01*
X13066D02*
X12714D01*
X12635Y8411D02*
X13007D01*
X12962Y8383D02*
X12944D01*
X12635D01*
X12277Y8444D02*
X12221D01*
X13908Y8361D02*
X13922D01*
X13978D02*
X14178D01*
X13908Y8366D02*
X13860D01*
X13908D02*
X13922D01*
X13978D01*
X14178D01*
Y8371D02*
X13860D01*
Y8376D02*
X14178D01*
Y8381D02*
X13860D01*
Y8386D02*
X14178D01*
Y8391D02*
X13860D01*
X13861Y8396D02*
X14178D01*
Y8401D02*
X13866D01*
X13871Y8406D02*
X14178D01*
Y8411D02*
X13876D01*
X13881Y8416D02*
X14178D01*
Y8421D02*
X13886D01*
X13891Y8426D02*
X14178D01*
Y8431D02*
X13896D01*
X13901Y8436D02*
X14178D01*
Y8441D02*
X13906D01*
X13911Y8446D02*
X14178D01*
Y8451D02*
X13916D01*
X13921Y8456D02*
X14178D01*
Y8461D02*
X13926D01*
X13931Y8466D02*
X14178D01*
Y8471D02*
X13936D01*
X13941Y8476D02*
X14178D01*
Y8481D02*
X13946D01*
X13951Y8486D02*
X14178D01*
Y8491D02*
X13956D01*
X13961Y8496D02*
X14178D01*
Y8501D02*
X13966D01*
X13971Y8506D02*
X14178D01*
Y8511D02*
X13976D01*
X13981Y8516D02*
X14178D01*
Y8521D02*
X13986D01*
X13991Y8526D02*
X14178D01*
Y8531D02*
X13996D01*
X14001Y8536D02*
X14178D01*
Y8541D02*
X14006D01*
X13908Y8361D02*
X13860D01*
X13922D02*
X13978D01*
X14179Y8516D02*
X14917D01*
X14439Y8521D02*
X14179D01*
X14439D02*
X14446D01*
X14480D02*
X14487D01*
X14917D01*
X14439Y8526D02*
X14179D01*
X14487D02*
X14917D01*
X14439Y8531D02*
X14179D01*
X14487D02*
X14917D01*
X14439Y8536D02*
X14179D01*
X14487D02*
X14917D01*
X14439Y8541D02*
X14179D01*
X14487D02*
X14917D01*
Y8519D02*
X14919D01*
X14475Y8516D02*
X14451D01*
X14179Y8513D02*
X14917D01*
X14919D01*
X14696Y8471D02*
X14676D01*
Y8433D02*
X14696D01*
X15865Y8426D02*
X15866D01*
X15865D02*
X15579D01*
X15865Y8523D02*
X15866D01*
X15865D02*
X15579D01*
X14974Y8519D02*
X14917D01*
X14987D02*
X15044D01*
X15045Y8541D02*
X15866D01*
X14987D02*
X14974D01*
X15045Y8536D02*
X15866D01*
X14987D02*
X14974D01*
X15579Y8531D02*
X15865D01*
X15579D02*
X15045D01*
X14987D02*
X14974D01*
X15579Y8526D02*
X15865D01*
X15579D02*
X15045D01*
X14987D02*
X14974D01*
X15044Y8521D02*
X15579D01*
X14987D02*
X14974D01*
X15044Y8516D02*
X15579D01*
X15044D02*
X14987D01*
X14974D01*
X14917D01*
X14176D01*
X15044Y8511D02*
X15579D01*
X15044D02*
X14987D01*
X14974D01*
X14917D01*
X14176D01*
Y8506D02*
X15579D01*
Y8501D02*
X14176D01*
Y8496D02*
X15579D01*
Y8491D02*
X14176D01*
Y8486D02*
X15579D01*
Y8481D02*
X14176D01*
Y8476D02*
X15579D01*
Y8471D02*
X14696D01*
X14676D02*
X14176D01*
X14705Y8466D02*
X15579D01*
X14667D02*
X14176D01*
X14705Y8461D02*
X15579D01*
X14667D02*
X14176D01*
X14705Y8456D02*
X15579D01*
X14667D02*
X14176D01*
X14705Y8451D02*
X15579D01*
X14667D02*
X14176D01*
X14705Y8446D02*
X15579D01*
X14667D02*
X14176D01*
X14705Y8441D02*
X15579D01*
X14667D02*
X14176D01*
X14705Y8436D02*
X15579D01*
X14705D02*
X14699D01*
X14673D02*
X14667D01*
X14176D01*
Y8431D02*
X15579D01*
Y8426D02*
X15865D01*
X15579D02*
X14176D01*
X15579Y8421D02*
X15865D01*
X15579D02*
X14176D01*
Y8416D02*
X15866D01*
Y8411D02*
X14176D01*
Y8406D02*
X15866D01*
Y8401D02*
X14176D01*
Y8396D02*
X15866D01*
Y8391D02*
X14176D01*
Y8386D02*
X15866D01*
Y8381D02*
X14176D01*
Y8376D02*
X15866D01*
Y8371D02*
X14176D01*
Y8366D02*
X15866D01*
Y8361D02*
X14176D01*
X13922Y8351D02*
X13908D01*
X13978D02*
X14025D01*
X14178D01*
X13922Y8356D02*
X13908D01*
X13978D02*
X14178D01*
X14020Y8348D02*
X14000D01*
X14176Y8356D02*
X15866D01*
Y8351D02*
X14176D01*
X10117Y8366D02*
X7273D01*
Y8361D02*
X10117D01*
Y8356D02*
X7273D01*
Y8351D02*
X10117D01*
X12540Y8450D02*
X12635D01*
X12379Y8553D02*
X12186D01*
X14891Y8548D02*
X14911D01*
X14888Y8551D02*
X14882D01*
X14178Y8561D02*
X14026D01*
X14031Y8566D02*
X14178D01*
Y8571D02*
X14036D01*
X14086Y8621D02*
X14178D01*
Y8626D02*
X14091D01*
X14096Y8631D02*
X14178D01*
Y8636D02*
X14101D01*
X14103Y8638D02*
X14178D01*
X14179Y8561D02*
X14448D01*
X14478D02*
X14882D01*
Y8566D02*
X14179D01*
Y8571D02*
X14882D01*
X14475Y8564D02*
X14451D01*
X14179Y8574D02*
X14882D01*
X14176Y8638D02*
X15866D01*
X15026Y8621D02*
X15006D01*
X14911Y8586D02*
X14891D01*
X14920Y8586D02*
X14974D01*
X14920D02*
X14917D01*
X15035D02*
X15044D01*
X15035D02*
X15028D01*
X15004D02*
X14997D01*
X14987D01*
X14176Y8636D02*
X15866D01*
Y8626D02*
X14176D01*
X15026Y8621D02*
X15866D01*
X15006D02*
X14176D01*
X15035Y8616D02*
X15866D01*
X14997D02*
X14176D01*
X15035Y8611D02*
X15866D01*
X14997D02*
X14176D01*
X15035Y8606D02*
X15866D01*
X14997D02*
X14176D01*
X15035Y8601D02*
X15866D01*
X14997D02*
X14176D01*
X15035Y8596D02*
X15866D01*
X14997D02*
X14176D01*
X15044Y8591D02*
X15866D01*
X15044D02*
X15035D01*
X14997D02*
X14987D01*
X14974D01*
X14917D01*
X14176D01*
X15044Y8586D02*
X15866D01*
X15044D02*
X15035D01*
X15029D01*
X15003D02*
X14997D01*
X14987D01*
X14974D01*
X14917D01*
X14911D01*
X14891D02*
X14176D01*
X15044Y8581D02*
X15866D01*
X14987D02*
X14974D01*
X14882D02*
X14176D01*
X15044Y8576D02*
X15866D01*
X14987D02*
X14974D01*
X14882D02*
X14176D01*
X15044Y8571D02*
X15866D01*
X14987D02*
X14974D01*
X14882D02*
X14176D01*
X15044Y8566D02*
X15866D01*
X14987D02*
X14974D01*
X14882D02*
X14176D01*
X15044Y8561D02*
X15866D01*
X14987D02*
X14974D01*
X14176Y8631D02*
X15866D01*
X14178Y8546D02*
X14011D01*
X14016Y8551D02*
X14178D01*
Y8556D02*
X14021D01*
X14179Y8546D02*
X14439D01*
X14487D02*
X14917D01*
X14439Y8551D02*
X14179D01*
X14487D02*
X14882D01*
X14439Y8556D02*
X14179D01*
X14487D02*
X14882D01*
X15045D02*
X15866D01*
X14987D02*
X14974D01*
X15045Y8551D02*
X15866D01*
X14987D02*
X14974D01*
X15045Y8546D02*
X15866D01*
X14987D02*
X14974D01*
X14178Y8576D02*
X14041D01*
X14046Y8581D02*
X14178D01*
Y8586D02*
X14051D01*
X14056Y8591D02*
X14178D01*
Y8596D02*
X14061D01*
X14066Y8601D02*
X14178D01*
Y8606D02*
X14071D01*
X14076Y8611D02*
X14178D01*
Y8616D02*
X14081D01*
X7273Y8356D02*
Y7592D01*
Y8356D02*
Y8366D01*
X7323Y8035D02*
Y7889D01*
X7396Y7816D01*
X7323Y8035D02*
X7396Y8108D01*
X7597Y8196D02*
Y8220D01*
Y8196D02*
X7609Y8184D01*
X7542Y8108D02*
X7615Y8035D01*
X7597Y8220D02*
X7609Y8232D01*
X7615Y7889D02*
X7542Y7816D01*
X7645Y8196D02*
Y8220D01*
X7615Y8035D02*
Y7889D01*
X7645Y8220D02*
X7633Y8232D01*
X7645Y8196D02*
X7633Y8184D01*
X7962Y8197D02*
Y8221D01*
Y8197D02*
X7974Y8185D01*
X7962Y8221D02*
X7974Y8233D01*
X8010Y8221D02*
Y8197D01*
Y8221D02*
X7998Y8233D01*
X8010Y8197D02*
X7998Y8185D01*
X9412Y8198D02*
Y8222D01*
X9460D02*
Y8198D01*
X9424Y8186D02*
X9412Y8198D01*
X9448Y8234D02*
X9460Y8222D01*
X9424Y8234D02*
X9412Y8222D01*
X9448Y8186D02*
X9460Y8198D01*
X9754Y8189D02*
Y8213D01*
X9745Y8035D02*
Y7889D01*
X9639Y7082D02*
X9690Y7031D01*
X9670Y7011D02*
X9599Y7082D01*
X9560Y7082D02*
X9651Y6992D01*
X9766Y8177D02*
X9754Y8189D01*
X9745Y7889D02*
X9818Y7816D01*
X9754Y8213D02*
X9766Y8225D01*
X9818Y8108D02*
X9745Y8035D01*
X9802Y8189D02*
Y8213D01*
X9790Y8225D01*
X9802Y8189D02*
X9790Y8177D01*
X10110Y6362D02*
Y6298D01*
X10091Y6305D02*
Y6274D01*
X9963Y6194D02*
Y6377D01*
X9964Y6376D02*
Y6461D01*
X10117Y7592D02*
Y8366D01*
X10037Y8035D02*
Y7889D01*
X10110Y6298D02*
X10121Y6287D01*
X10110Y6362D02*
X10098Y6374D01*
X10096Y6376D01*
X10101Y6263D02*
X10121Y6244D01*
X10101Y6263D02*
X10091Y6274D01*
Y6305D02*
X10080Y6315D01*
X10091Y6220D02*
X10111Y6199D01*
X10091Y6220D02*
X10054Y6256D01*
X10076Y6194D02*
X10092Y6179D01*
X10037Y8035D02*
X9964Y8108D01*
X10037Y7889D02*
X9964Y7816D01*
X10242Y6580D02*
Y6463D01*
X10239Y6464D02*
Y6332D01*
X10319Y6328D02*
Y6578D01*
X10239Y6287D02*
Y6261D01*
X10320Y6244D02*
Y6213D01*
X10161Y6337D02*
Y6577D01*
X10340Y6626D02*
X10348Y6618D01*
X10287Y6625D02*
X10242Y6580D01*
X10320Y6213D02*
X10312Y6205D01*
X10306Y6199D01*
X10163Y6578D02*
X10226Y6641D01*
X10402Y6468D02*
Y6336D01*
X10398Y6246D02*
Y6193D01*
X10394Y6598D02*
X10356Y6636D01*
X10351Y6641D01*
X10348Y6618D02*
X10388Y6578D01*
X10378Y6559D02*
X10359Y6577D01*
X10403Y6472D02*
X10469Y6539D01*
X10396Y6191D02*
X10383Y6179D01*
X10396Y6191D02*
X10398Y6193D01*
X11804Y7322D02*
Y7417D01*
X11800Y6960D02*
Y6909D01*
X11816Y7422D02*
Y7429D01*
Y7422D02*
Y7420D01*
Y7412D01*
Y7327D01*
X11804Y7413D02*
Y7431D01*
X11761Y7407D02*
Y7306D01*
X11752Y7493D02*
Y7561D01*
X11816Y7443D02*
Y7438D01*
X11780Y7471D02*
Y7484D01*
X11816Y7422D02*
X11817Y7421D01*
X11821Y7417D01*
X11816Y7327D02*
X11833Y7311D01*
X11930Y7213D01*
X11886Y7429D02*
X11874Y7441D01*
X11804Y7431D02*
X11761Y7474D01*
X11780Y7533D02*
X11752Y7561D01*
X11780Y7533D02*
X11792Y7521D01*
X11807Y7506D01*
X11816Y7497D01*
X11820Y7493D01*
X11858Y7455D01*
X11870Y7443D01*
X11875Y7438D01*
X11792Y7459D02*
X11780Y7471D01*
X11792Y7459D02*
X11797Y7455D01*
X11807Y7444D01*
X11809Y7443D01*
X11814Y7438D01*
X11780Y7484D02*
X11771Y7493D01*
X11821Y7417D02*
X11816Y7412D01*
X12095Y7219D02*
Y7212D01*
X12079Y7236D02*
X12004Y7311D01*
X12079Y7236D02*
X12087Y7228D01*
X12095Y7219D01*
X12102Y7212D01*
X12107Y7207D01*
X11938Y7205D02*
X11930Y7213D01*
X11938Y7205D02*
X11947Y7196D01*
X11918Y7149D02*
X11922Y7145D01*
X12103Y6637D02*
X12005Y6539D01*
X12088Y6846D02*
X12127Y6885D01*
X12149Y8513D02*
Y8515D01*
Y8513D02*
Y7667D01*
X12166Y7669D02*
Y8389D01*
X12214Y8112D02*
Y7714D01*
X12182Y7692D02*
Y8352D01*
X12149Y7667D02*
X12154Y7661D01*
X12164Y7651D01*
X12166Y7669D02*
X12217Y7618D01*
X12308Y8413D02*
X12280Y8440D01*
X12277Y8444D02*
X12290Y8431D01*
X12162Y7653D02*
X12223Y7592D01*
X12231Y7696D02*
X12214Y7714D01*
X12182Y7692D02*
X12217Y7657D01*
X12149Y8515D02*
X12164Y8531D01*
X12302Y8127D02*
X12294Y8120D01*
X12166Y8389D02*
X12174Y8397D01*
X12221Y8444D01*
X12162Y8529D02*
X12186Y8553D01*
X12243Y8141D02*
X12214Y8112D01*
X12182Y8352D02*
X12217Y8387D01*
X12245Y8415D01*
X12190Y7539D02*
X12166Y7515D01*
X12112Y7212D02*
X12107Y7207D01*
X12308Y8409D02*
Y8413D01*
Y8409D02*
Y8133D01*
X12456Y8114D02*
Y7942D01*
X12473Y7950D02*
Y8080D01*
X12466Y8397D02*
Y8529D01*
X12412Y8092D02*
Y7931D01*
X12324Y7515D02*
Y7468D01*
X12485Y8092D02*
X12544Y8151D01*
X12403Y8529D02*
X12379Y8553D01*
X12403Y7592D02*
X12416Y7578D01*
X12489Y7909D02*
X12456Y7942D01*
X12473Y7950D02*
X12501Y7923D01*
X12499Y8364D02*
X12466Y8397D01*
X12412Y7931D02*
X12432Y7911D01*
X12450Y7893D01*
X12340Y6885D02*
X12355Y6870D01*
X12302Y8127D02*
X12308Y8133D01*
X12456Y8114D02*
X12467Y8126D01*
X12479Y8086D02*
X12473Y8080D01*
X12479Y8086D02*
X12485Y8092D01*
X12466Y8124D02*
X12477Y8135D01*
X12371Y6791D02*
X12355Y6775D01*
X12324Y7515D02*
X12328Y7519D01*
X12324Y7468D02*
X12320Y7464D01*
X12324Y7468D02*
X12308Y7452D01*
X12635Y8411D02*
Y8415D01*
X12654Y7618D02*
Y7539D01*
X12615Y7557D02*
Y7500D01*
Y7539D02*
Y7578D01*
X12603Y8090D02*
Y8135D01*
X12548Y6377D02*
Y6055D01*
Y6377D02*
Y6381D01*
X12595Y6377D02*
Y6090D01*
Y6377D02*
Y6381D01*
X12619D02*
Y6110D01*
X12572Y6070D02*
Y6381D01*
X12525Y6377D02*
Y6031D01*
Y6377D02*
Y6381D01*
X12635Y8415D02*
Y8450D01*
X12540D02*
Y8474D01*
X12544Y8318D02*
Y8151D01*
X12576Y6712D02*
X12576Y6669D01*
X12635Y8383D02*
X12588Y8431D01*
X12605Y8413D02*
X12609Y8409D01*
X12605Y8413D02*
X12603Y8415D01*
X12588Y8431D01*
X12603Y8090D02*
X12617Y8076D01*
X12529Y8334D02*
X12497Y8366D01*
X12674Y6732D02*
X12694Y6712D01*
X12690Y6165D02*
X12708Y6147D01*
X12544Y8318D02*
X12529Y8334D01*
X12694Y6551D02*
X12651Y6507D01*
X12572Y6665D02*
X12576Y6669D01*
X12572Y6665D02*
X12544Y6637D01*
X12576Y6791D02*
X12595Y6811D01*
X12576Y6830D02*
X12595Y6850D01*
X12615Y6870D02*
X12635Y6889D01*
X12595Y6929D02*
X12576Y6909D01*
X12536Y6948D02*
X12540Y6952D01*
X12556Y6968D01*
X12576Y6988D02*
X12595Y7007D01*
X12556Y7047D02*
X12536Y7027D01*
X12536Y7539D02*
X12556Y7559D01*
X12556Y6732D02*
X12536Y6712D01*
X12556Y6692D02*
X12536Y6673D01*
X12615Y6712D02*
X12635Y6732D01*
X12714Y6547D02*
X12686Y6519D01*
X12662Y6448D02*
X12603Y6389D01*
X12623Y6385D02*
X12670Y6433D01*
X12568Y6401D02*
X12548Y6381D01*
X12576Y6385D02*
X12588Y6397D01*
X12580Y6389D02*
X12572Y6381D01*
X12595D02*
X12607Y6393D01*
X12619Y6381D02*
X12627Y6389D01*
X12529Y6665D02*
X12536Y6673D01*
X12548Y6405D02*
X12525Y6381D01*
X12497Y6752D02*
X12517Y6771D01*
X12851Y7500D02*
Y7578D01*
X12812Y7846D02*
Y7872D01*
X12830Y7885D02*
Y7838D01*
X12851Y7742D02*
Y7657D01*
X12812Y7696D02*
Y7848D01*
X12773Y7618D02*
Y7578D01*
X12790Y8584D02*
Y8616D01*
X12784Y8513D02*
Y8474D01*
X12741Y8033D02*
Y7970D01*
X12851Y6791D02*
Y6511D01*
X12773Y6559D02*
Y6791D01*
X12733Y6830D02*
Y6543D01*
X12812Y6574D02*
Y6791D01*
X12851Y6665D02*
Y6511D01*
X12714Y6566D02*
Y6653D01*
Y6574D02*
Y6547D01*
X12694Y6551D02*
Y6661D01*
Y6637D02*
Y6712D01*
Y7318D02*
Y7364D01*
X12851Y7696D02*
Y7816D01*
X12714Y8474D02*
Y8513D01*
X12716Y8576D02*
Y8616D01*
X12800Y6192D02*
Y6167D01*
X12737Y6106D02*
Y5968D01*
X12812Y7578D02*
X12792Y7598D01*
X12889Y7893D02*
X12859Y7923D01*
X12792Y7891D02*
X12790Y7893D01*
X12792Y7891D02*
X12796Y7887D01*
X12812Y7872D01*
X12830Y7885D02*
X12806Y7909D01*
X12812Y7696D02*
X12832Y7677D01*
X12792D02*
X12773Y7696D01*
X12851Y7816D02*
X12830Y7838D01*
X12704Y6151D02*
X12712Y6143D01*
X12714Y6141D01*
X12737Y5968D02*
X12753Y5952D01*
X12812Y7539D02*
X12832Y7559D01*
X12871Y7637D02*
X12891Y7657D01*
X12812D02*
X12773Y7618D01*
Y7578D02*
X12753Y7559D01*
X12694Y7657D02*
X12714Y7677D01*
X12871Y6811D02*
X12851Y6791D01*
X12792Y6811D02*
X12773Y6791D01*
X12733Y6830D02*
X12753Y6850D01*
X12812Y6791D02*
X12832Y6811D01*
X12712Y7242D02*
X12753Y7283D01*
X12849Y7576D02*
X12851Y7578D01*
X12800Y6167D02*
X12775Y6141D01*
X12800Y6192D02*
X12861Y6253D01*
X12930Y7696D02*
Y7801D01*
X12938Y7809D02*
Y8029D01*
X13029Y7952D02*
Y8389D01*
X12991Y8354D02*
Y7828D01*
X12969Y8007D02*
Y8185D01*
Y8017D02*
Y7657D01*
X12930D02*
Y7618D01*
X12891D02*
Y7500D01*
Y7657D02*
Y7891D01*
X13048Y6665D02*
Y6649D01*
Y6665D02*
Y6791D01*
X13009Y6791D02*
Y6626D01*
X12969Y6641D02*
Y6791D01*
X12930Y6791D02*
Y6417D01*
X12969Y6433D02*
Y6665D01*
X12930D02*
Y6417D01*
X13048Y6464D02*
Y6665D01*
X13009D02*
Y6448D01*
X12891Y6519D02*
Y6523D01*
X12891Y6771D02*
Y6791D01*
X12891Y6791D02*
Y6523D01*
Y6519D02*
Y6665D01*
X13029Y7598D02*
Y7970D01*
X12991Y7976D02*
Y7637D01*
X12969Y8177D02*
Y8204D01*
X12934Y8033D02*
X12938Y8029D01*
X12934Y8033D02*
X12926Y8041D01*
X13103Y8407D02*
X13080Y8431D01*
X13029Y8389D02*
X13007Y8411D01*
X12962Y8383D02*
X12991Y8354D01*
X12928Y8039D02*
X12930Y8037D01*
X12928Y8039D02*
X12926Y8041D01*
X12891Y8076D01*
X12889Y7893D02*
X12891Y7891D01*
X12938Y7809D02*
X12930Y7801D01*
X12950Y7519D02*
X12930Y7500D01*
X13068Y6811D02*
X13048Y6791D01*
X13029Y6811D02*
X13009Y6791D01*
X12989Y6811D02*
X12969Y6791D01*
X12950Y6811D02*
X12930Y6791D01*
X13127Y6472D02*
X13060Y6405D01*
X12891Y6791D02*
X12910Y6811D01*
X13048Y7539D02*
X13107Y7598D01*
X12930Y7539D02*
X12910Y7519D01*
Y7677D02*
X12930Y7696D01*
X12969Y8204D02*
X12932Y8242D01*
X13107Y8401D02*
Y8403D01*
Y8401D02*
Y8295D01*
X13245Y6791D02*
Y6649D01*
X13206Y6657D02*
Y6791D01*
X13166Y6791D02*
Y6645D01*
X13127Y6657D02*
Y6791D01*
X13166Y6665D02*
Y6476D01*
X13206Y6488D02*
Y6665D01*
X13245D02*
Y6385D01*
X13127Y6472D02*
Y6665D01*
X13206Y6496D02*
Y6484D01*
X13088Y6645D02*
Y6791D01*
X13088Y6665D02*
Y6480D01*
X13107Y7870D02*
Y8299D01*
Y7874D02*
Y7598D01*
X13186Y6811D02*
X13166Y6791D01*
X13107Y8403D02*
X13105Y8405D01*
X13103Y8407D01*
X13284Y6366D02*
X13265Y6346D01*
X13245Y6385D02*
X13225Y6366D01*
X13245Y6791D02*
X13265Y6811D01*
X13225Y6811D02*
X13206Y6791D01*
X13147Y6811D02*
X13127Y6791D01*
X13206Y6484D02*
X13127Y6405D01*
X13095D02*
X13166Y6476D01*
X13088Y6791D02*
X13107Y6811D01*
X13317Y7214D02*
Y7218D01*
Y7217D02*
Y7145D01*
X13442Y7381D02*
Y7830D01*
Y6673D02*
Y6653D01*
X13403Y6649D02*
Y6673D01*
X13363D02*
Y6649D01*
Y6665D02*
Y6346D01*
X13324Y6342D02*
Y6665D01*
X13403D02*
Y6303D01*
X13324Y6665D02*
Y6712D01*
X13442Y6665D02*
Y6318D01*
X13403Y7404D02*
Y7830D01*
X13421Y7386D02*
Y7342D01*
X13343Y7360D02*
Y7436D01*
X13284Y6791D02*
Y6637D01*
X13284Y6665D02*
Y6366D01*
Y7185D02*
Y7224D01*
X13343Y7169D02*
Y7106D01*
X13363Y7066D02*
Y7149D01*
X13403Y6303D02*
X13387Y6287D01*
X13481Y6633D02*
X13462Y6653D01*
X13442Y6673D02*
X13422Y6692D01*
X13403Y6673D02*
X13383Y6692D01*
X13363Y6673D02*
X13343Y6692D01*
X13324Y6712D02*
X13304Y6732D01*
X13421Y7386D02*
X13402Y7405D01*
X13343Y7244D02*
X13317Y7218D01*
X13363Y6346D02*
X13324Y6307D01*
X13391Y6267D02*
X13442Y6318D01*
X13481Y6334D02*
X13395Y6248D01*
X13399Y6228D02*
X13418Y6248D01*
X13324Y6342D02*
X13308Y6326D01*
X13284Y7224D02*
X13304Y7244D01*
X13304Y6811D02*
X13284Y6791D01*
X13363Y7149D02*
X13383Y7169D01*
X13521Y7460D02*
Y7629D01*
Y7618D02*
Y7826D01*
Y6712D02*
Y6661D01*
Y6665D02*
Y6350D01*
X13481Y7421D02*
Y7815D01*
Y7440D02*
Y7421D01*
Y6633D02*
Y6334D01*
X13525Y7456D02*
X13521Y7460D01*
X13525Y7456D02*
X13540Y7440D01*
X13521Y7421D02*
X13540Y7401D01*
X13521Y7381D02*
X13540Y7362D01*
X13501Y7322D02*
X13481Y7342D01*
X13540Y6732D02*
X13521Y6712D01*
X13863Y6265D02*
Y6139D01*
Y6391D02*
Y6448D01*
Y6642D02*
Y6695D01*
X13861Y6265D02*
Y6139D01*
Y6391D02*
Y6450D01*
Y6640D02*
Y6695D01*
X13863Y7826D02*
Y7865D01*
Y8059D02*
Y8161D01*
Y8199D02*
Y8295D01*
Y8361D02*
Y8398D01*
X13860Y7826D02*
Y7820D01*
Y7826D02*
Y7868D01*
Y8056D02*
Y8161D01*
Y8199D02*
Y8295D01*
Y8361D02*
Y8395D01*
X13861Y7824D02*
Y6687D01*
X13863D02*
Y7824D01*
X13678Y6164D02*
Y6135D01*
X13674Y6131D02*
Y6166D01*
X13861Y6391D02*
Y6393D01*
Y6391D02*
Y6232D01*
X13860Y7820D02*
X13859Y7826D01*
X13861Y6450D02*
X13912Y6399D01*
X13902Y7826D02*
X13860Y7868D01*
X13870Y8190D02*
X13861Y8199D01*
X13859Y6393D02*
X13861Y6391D01*
X13861Y6640D02*
X13912Y6691D01*
X13860Y8056D02*
X13912Y8108D01*
X13861Y8161D02*
X13870Y8170D01*
X13935Y6283D02*
Y6272D01*
X14048Y6399D02*
Y5925D01*
X14043Y5930D02*
Y6399D01*
X14038D02*
Y5935D01*
X14033Y5940D02*
Y6399D01*
X14028D02*
Y5945D01*
X14023Y5950D02*
Y6091D01*
Y6121D01*
Y6399D01*
X14018Y6091D02*
Y5955D01*
Y6091D02*
Y6121D01*
Y6399D01*
X14013Y6091D02*
Y5960D01*
Y6121D02*
Y6399D01*
X14008Y6091D02*
Y5965D01*
Y6121D02*
Y6399D01*
X14003Y6091D02*
Y5970D01*
Y6121D02*
Y6399D01*
X13998Y6091D02*
Y5975D01*
Y6121D02*
Y6399D01*
X13993Y6091D02*
Y5980D01*
Y6121D02*
Y6237D01*
Y6304D01*
Y6308D02*
Y6321D01*
Y6399D01*
X13988Y6091D02*
Y5985D01*
Y6121D02*
Y6231D01*
Y6313D02*
Y6321D01*
Y6399D01*
X13983Y6091D02*
Y5990D01*
Y6121D02*
Y6231D01*
Y6321D02*
Y6399D01*
X13978Y6091D02*
Y5995D01*
Y6121D02*
Y6231D01*
Y6323D02*
Y6399D01*
X13973Y6091D02*
Y6000D01*
Y6121D02*
Y6231D01*
Y6328D02*
Y6399D01*
X13968Y6073D02*
Y6005D01*
Y6073D02*
Y6091D01*
Y6121D02*
Y6139D01*
Y6231D01*
Y6333D02*
Y6399D01*
X13963Y6073D02*
Y6010D01*
Y6073D02*
Y6091D01*
Y6121D02*
Y6139D01*
Y6231D01*
Y6338D02*
Y6399D01*
X13958Y6073D02*
Y6015D01*
Y6139D02*
Y6231D01*
Y6343D02*
Y6357D01*
Y6399D01*
X13953Y6073D02*
Y6020D01*
Y6139D02*
Y6237D01*
Y6248D01*
Y6348D02*
Y6357D01*
Y6399D01*
X13948Y6073D02*
Y6025D01*
Y6139D02*
Y6230D01*
Y6357D02*
Y6399D01*
X13943Y6073D02*
Y6030D01*
Y6139D02*
Y6230D01*
Y6358D02*
Y6399D01*
X13938Y6073D02*
Y6035D01*
Y6139D02*
Y6230D01*
Y6357D02*
Y6363D01*
Y6399D01*
X13933Y6073D02*
Y6040D01*
Y6139D02*
Y6230D01*
Y6270D02*
Y6283D01*
Y6292D01*
Y6358D02*
Y6399D01*
X13928Y6073D02*
Y6045D01*
Y6139D02*
Y6230D01*
Y6268D02*
Y6283D01*
Y6297D01*
Y6357D02*
Y6399D01*
X13923Y6073D02*
Y6049D01*
Y6139D02*
Y6230D01*
Y6268D02*
Y6302D01*
Y6357D02*
Y6391D01*
Y6399D01*
X13918Y6073D02*
Y6054D01*
Y6139D02*
Y6230D01*
Y6268D02*
Y6302D01*
Y6357D02*
Y6391D01*
Y6399D01*
X13913Y6073D02*
Y6059D01*
Y6139D02*
Y6265D01*
Y6391D02*
Y6399D01*
X13908Y6073D02*
Y6064D01*
Y6139D02*
Y6265D01*
Y6391D02*
Y6399D01*
X13903Y6139D02*
Y6073D01*
Y6139D02*
Y6265D01*
Y6391D02*
Y6399D01*
Y6408D01*
Y6682D02*
Y6691D01*
X13898Y6139D02*
Y6074D01*
Y6139D02*
Y6265D01*
Y6391D02*
Y6413D01*
Y6677D02*
Y6695D01*
X13893Y6139D02*
Y6079D01*
Y6139D02*
Y6265D01*
Y6391D02*
Y6418D01*
Y6672D02*
Y6695D01*
X13888Y6265D02*
Y6139D01*
Y6391D02*
Y6423D01*
Y6667D02*
Y6695D01*
X13890Y6139D02*
Y6082D01*
X13904Y6073D02*
Y6139D01*
X13960Y6091D02*
Y6073D01*
Y6121D02*
Y6139D01*
X13916Y6262D02*
Y6265D01*
Y6268D01*
Y6302D01*
Y6357D02*
Y6391D01*
X13992Y6260D02*
Y6240D01*
X13954D02*
Y6249D01*
X13952Y6239D02*
Y6237D01*
Y6239D02*
Y6247D01*
X13914Y6239D02*
Y6259D01*
X13935Y6283D02*
Y6290D01*
X13989Y6237D02*
Y6237D01*
Y6263D02*
Y6269D01*
Y6300D01*
Y6304D01*
Y6308D01*
Y6312D01*
Y6321D01*
X13953Y6348D02*
Y6357D01*
X14017Y6121D02*
Y6091D01*
X14033Y8108D02*
Y8314D01*
Y8344D01*
Y8568D01*
X14028Y8310D02*
Y8108D01*
Y8348D02*
Y8563D01*
X14023Y8310D02*
Y8108D01*
Y8348D02*
Y8558D01*
X14018Y8310D02*
Y8108D01*
Y8348D02*
Y8553D01*
X14013Y8310D02*
Y8108D01*
Y8348D02*
Y8548D01*
X14008Y8310D02*
Y8108D01*
Y8348D02*
Y8543D01*
X14003Y8310D02*
Y8108D01*
Y8348D02*
Y8538D01*
X13998Y8310D02*
Y8108D01*
Y8348D02*
Y8533D01*
X13993Y8310D02*
Y8108D01*
Y8348D02*
Y8528D01*
X13988Y8314D02*
Y8108D01*
Y8344D02*
Y8523D01*
X13983Y8295D02*
Y8108D01*
Y8295D02*
Y8314D01*
Y8344D02*
Y8361D01*
Y8518D01*
X13978Y8295D02*
Y8108D01*
Y8361D02*
Y8513D01*
X13973Y8295D02*
Y8108D01*
Y8361D02*
Y8508D01*
X13968Y8295D02*
Y8108D01*
Y8361D02*
Y8503D01*
X13963Y8295D02*
Y8108D01*
Y8361D02*
Y8498D01*
X13958Y8295D02*
Y8108D01*
Y8361D02*
Y8493D01*
X13953Y8295D02*
Y8108D01*
Y8361D02*
Y8488D01*
X13948Y8295D02*
Y8108D01*
Y8361D02*
Y8483D01*
X13943Y8295D02*
Y8108D01*
Y8361D02*
Y8478D01*
X13938Y8295D02*
Y8108D01*
Y8361D02*
Y8473D01*
X13933Y8295D02*
Y8108D01*
Y8361D02*
Y8468D01*
X13928Y8295D02*
Y8108D01*
Y8361D02*
Y8463D01*
X13923Y8295D02*
Y8108D01*
Y8361D02*
Y8458D01*
X13918Y8295D02*
Y8108D01*
Y8295D02*
Y8361D01*
Y8453D01*
X13913Y8295D02*
Y8108D01*
Y8295D02*
Y8361D01*
Y8448D01*
X13908Y8295D02*
Y8108D01*
Y8361D02*
Y8443D01*
X13903Y8108D02*
Y8099D01*
Y8108D02*
Y8295D01*
Y8361D02*
Y8438D01*
X13898Y8295D02*
Y8094D01*
Y8361D02*
Y8433D01*
X13893Y7835D02*
Y7826D01*
Y8089D02*
Y8295D01*
Y8361D02*
Y8428D01*
X13888Y7840D02*
Y7826D01*
Y8084D02*
Y8295D01*
Y8361D02*
Y8423D01*
X13908Y8361D02*
Y8295D01*
X13922D02*
Y8361D01*
X13978Y8314D02*
Y8295D01*
Y8344D02*
Y8361D01*
X14029Y8339D02*
Y8319D01*
X14025Y8315D02*
Y8314D01*
Y8343D02*
Y8344D01*
X13888Y7823D02*
Y6687D01*
X13893D02*
Y7823D01*
X13898D02*
Y6687D01*
X13903Y7816D02*
Y7823D01*
Y7816D02*
Y6691D01*
X13908D02*
Y7816D01*
X13913D02*
Y7823D01*
Y7816D02*
Y6691D01*
X13918Y7816D02*
Y7823D01*
Y7816D02*
Y6691D01*
X13923Y7816D02*
Y7823D01*
Y7816D02*
Y6691D01*
X13928Y7816D02*
Y7823D01*
Y7816D02*
Y6691D01*
X13933Y7816D02*
Y7823D01*
Y7816D02*
Y6691D01*
X13938Y7816D02*
Y7823D01*
Y7816D02*
Y6691D01*
X13943D02*
Y7816D01*
X13948D02*
Y6691D01*
X13953D02*
Y7816D01*
X13958D02*
Y6691D01*
X13963D02*
Y7816D01*
X13968D02*
Y6691D01*
X13973D02*
Y7816D01*
X13978D02*
Y6691D01*
X13983D02*
Y7816D01*
X13988D02*
Y6691D01*
X13993D02*
Y7816D01*
X13998D02*
Y6691D01*
X14003D02*
Y7816D01*
X14008D02*
Y6691D01*
X14013D02*
Y7816D01*
X14018D02*
Y6691D01*
X14023D02*
Y7816D01*
X14028D02*
Y6691D01*
X14033Y7816D02*
Y7823D01*
Y7816D02*
Y6691D01*
X14038Y7816D02*
Y7823D01*
Y7816D02*
Y6691D01*
X14043Y7816D02*
Y7823D01*
Y7816D02*
Y6691D01*
X14048Y7816D02*
Y7823D01*
Y7816D02*
Y6691D01*
X14053Y7816D02*
Y7823D01*
Y7816D02*
Y6691D01*
X14058Y7816D02*
Y7823D01*
Y7816D02*
Y6691D01*
X13883Y6265D02*
Y6139D01*
Y6391D02*
Y6428D01*
Y6662D02*
Y6695D01*
X13878Y6265D02*
Y6139D01*
Y6391D02*
Y6433D01*
Y6657D02*
Y6695D01*
X13873Y6265D02*
Y6139D01*
Y6391D02*
Y6438D01*
Y6652D02*
Y6695D01*
X13868Y6265D02*
Y6139D01*
Y6391D02*
Y6443D01*
Y6647D02*
Y6695D01*
X13883Y7826D02*
Y7845D01*
Y8079D02*
Y8295D01*
Y8361D02*
Y8418D01*
X13878Y7850D02*
Y7826D01*
Y8074D02*
Y8295D01*
Y8361D02*
Y8413D01*
X13873Y7855D02*
Y7826D01*
Y8069D02*
Y8295D01*
Y8361D02*
Y8408D01*
X13868Y7860D02*
Y7826D01*
Y8064D02*
Y8161D01*
Y8168D01*
Y8192D02*
Y8199D01*
Y8295D01*
Y8361D02*
Y8403D01*
X13870Y8178D02*
Y8170D01*
Y8178D02*
Y8182D01*
Y8190D01*
X13872Y7824D02*
Y7823D01*
X13868D02*
Y6687D01*
X13873D02*
Y7823D01*
X13878D02*
Y6687D01*
X13883D02*
Y7823D01*
X14058Y6399D02*
Y5916D01*
X14053Y5921D02*
Y6399D01*
X14058Y8108D02*
Y8593D01*
X14053Y8588D02*
Y8108D01*
X14048D02*
Y8583D01*
X14043Y8578D02*
Y8108D01*
X14038D02*
Y8573D01*
X13989Y6393D02*
Y6269D01*
Y6263D01*
Y6237D02*
Y6232D01*
X13954Y6240D02*
Y6260D01*
X13952Y6259D02*
Y6239D01*
X13890Y6082D02*
X13900Y6073D01*
X13904Y6069D01*
X13917Y6055D01*
X13960Y6012D01*
X14017Y5956D01*
X14105Y5869D01*
X13965Y6336D02*
X13961Y6340D01*
X13965Y6336D02*
X13968Y6333D01*
X13972Y6329D02*
X13974Y6327D01*
X13980Y6321D01*
X13972Y6329D02*
X13968Y6333D01*
X13972Y6329D02*
X13980Y6321D01*
X13982Y6319D01*
X13989Y6312D01*
X13990Y6311D01*
X13991Y6310D01*
X13993Y6308D01*
X13929Y6296D02*
X13923Y6302D01*
X13929Y6296D02*
X13935Y6290D01*
X14131Y6618D02*
X14058Y6691D01*
X13989Y6263D02*
X13992Y6260D01*
X13963Y6231D02*
X13959Y6235D01*
X13957Y6237D01*
X13954Y6240D01*
X13923Y6230D02*
X13914Y6239D01*
X13993Y6308D02*
X13995Y6306D01*
X13990Y6311D02*
X13982Y6319D01*
X13972Y6329D02*
X13969Y6332D01*
X13968Y6333D01*
X13961Y6340D02*
X13959Y6342D01*
X13953Y6348D01*
X13944Y6357D01*
X13944Y6357D01*
X13938Y6363D01*
X14131Y8035D02*
X14058Y8108D01*
X14029Y8339D02*
X14025Y8343D01*
X14024Y8344D01*
X14020Y8348D01*
X13996Y8314D02*
X14000Y8310D01*
X14058Y6691D02*
X14062Y6687D01*
X13912Y7816D02*
X13905Y7823D01*
X13954Y6240D02*
X13962Y6232D01*
X13989Y6263D02*
X13983Y6269D01*
X13921Y6232D02*
X13914Y6239D01*
X13943Y6268D02*
X13952Y6259D01*
X13954Y6249D02*
X13952Y6247D01*
X13931Y6268D02*
X13935Y6272D01*
X14058Y6399D02*
X14131Y6472D01*
X13989Y6237D02*
X13983Y6231D01*
X13989Y6237D02*
X13989Y6237D01*
X13992Y6240D01*
X13950Y6237D02*
X13943Y6230D01*
X13950Y6237D02*
X13952Y6239D01*
X13920Y6265D02*
X13914Y6259D01*
X13920Y6265D02*
X13923Y6268D01*
X13989Y6300D02*
X13995Y6306D01*
X13993Y6308D02*
X13989Y6304D01*
X13932Y6357D02*
X13938Y6363D01*
X14020Y8310D02*
X14024Y8314D01*
X14025Y8315D01*
X14029Y8319D01*
X14000Y8348D02*
X13996Y8344D01*
X13912Y6691D02*
X13908Y6687D01*
X14058Y7816D02*
X14065Y7823D01*
X13870Y8178D02*
X13872Y8180D01*
X13963Y6269D02*
X13954Y6260D01*
X13984Y6232D02*
X13989Y6237D01*
X13923Y6268D02*
X13914Y6259D01*
X13945Y6232D02*
X13952Y6239D01*
X14168Y5869D02*
Y6691D01*
X14163Y6691D02*
Y5869D01*
X14158D02*
Y6691D01*
X14153Y6691D02*
Y5869D01*
X14148D02*
Y6691D01*
X14143Y6691D02*
Y5869D01*
X14138D02*
Y6691D01*
X14133Y6691D02*
Y5869D01*
X14128D02*
Y6469D01*
Y6621D02*
Y6692D01*
X14123Y6464D02*
Y5869D01*
Y6626D02*
Y6692D01*
X14118Y6459D02*
Y5869D01*
Y6631D02*
Y6692D01*
X14113Y6454D02*
Y5869D01*
Y6636D02*
Y6692D01*
X14108Y6449D02*
Y5869D01*
Y6641D02*
Y6692D01*
X14103Y6444D02*
Y5871D01*
Y6646D02*
Y6692D01*
X14098Y6439D02*
Y5876D01*
Y6651D02*
Y6692D01*
X14093Y6434D02*
Y5881D01*
Y6656D02*
Y6692D01*
X14088Y6429D02*
Y5886D01*
Y6661D02*
Y6692D01*
X14083Y6424D02*
Y5891D01*
Y6666D02*
Y6692D01*
X14131Y6618D02*
Y6472D01*
X14170Y6691D02*
Y5869D01*
X14173Y7826D02*
Y8638D01*
X14168D02*
Y7826D01*
X14163D02*
Y8638D01*
X14158D02*
Y7826D01*
X14153D02*
Y8638D01*
X14148D02*
Y7826D01*
X14143D02*
Y8638D01*
X14138D02*
Y7826D01*
X14133D02*
Y8638D01*
X14128Y7886D02*
Y7826D01*
Y8038D02*
Y8638D01*
X14123Y7881D02*
Y7826D01*
Y8043D02*
Y8638D01*
X14118Y7876D02*
Y7826D01*
Y8048D02*
Y8228D01*
Y8248D02*
Y8638D01*
X14113Y7871D02*
Y7826D01*
Y8053D02*
Y8219D01*
Y8257D02*
Y8638D01*
X14108Y7866D02*
Y7826D01*
Y8058D02*
Y8219D01*
Y8257D02*
Y8638D01*
X14103Y7861D02*
Y7826D01*
Y8063D02*
Y8219D01*
Y8257D02*
Y8638D01*
X14098Y7856D02*
Y7826D01*
Y8068D02*
Y8219D01*
Y8257D02*
Y8633D01*
X14093Y7851D02*
Y7826D01*
Y8073D02*
Y8219D01*
Y8257D02*
Y8628D01*
X14088Y7846D02*
Y7826D01*
Y8078D02*
Y8219D01*
Y8257D02*
Y8623D01*
X14083Y7841D02*
Y7826D01*
Y8083D02*
Y8219D01*
Y8225D01*
X14131Y8035D02*
Y7889D01*
X14118Y8228D02*
Y8248D01*
X14178Y8638D02*
Y7826D01*
X14179Y8513D02*
Y8574D01*
X14174Y6649D02*
Y6523D01*
Y5869D01*
X14176Y7405D02*
Y7871D01*
Y7405D02*
Y7399D01*
Y7872D02*
Y8638D01*
Y7872D02*
Y7868D01*
Y7400D02*
Y6648D01*
Y6646D01*
X14172Y6687D02*
Y7823D01*
X14083D02*
Y6687D01*
X14088D02*
Y7823D01*
X14093D02*
Y6687D01*
X14098D02*
Y7823D01*
X14103D02*
Y6687D01*
X14108D02*
Y7823D01*
X14113D02*
Y6687D01*
X14118D02*
Y7823D01*
X14123D02*
Y6687D01*
X14128D02*
Y7823D01*
X14133D02*
Y6687D01*
X14138D02*
Y7823D01*
X14143D02*
Y6687D01*
X14148D02*
Y7823D01*
X14153D02*
Y6687D01*
X14158D02*
Y7823D01*
X14163D02*
Y6687D01*
X14168D02*
Y7823D01*
X14078Y6419D02*
Y5896D01*
Y6671D02*
Y6692D01*
X14073Y6414D02*
Y5901D01*
Y6676D02*
Y6692D01*
X14068Y6692D02*
Y6681D01*
X14078Y7826D02*
Y7836D01*
X14080Y8228D02*
Y8248D01*
X14063Y7816D02*
Y6691D01*
X14068Y6687D02*
Y7823D01*
X14073D02*
Y6687D01*
X14078D02*
Y7823D01*
X14068Y6409D02*
Y5906D01*
X14063Y5911D02*
Y6399D01*
X14083Y8257D02*
Y8618D01*
X14078Y8613D02*
Y8088D01*
X14073Y8093D02*
Y8608D01*
X14068Y8603D02*
Y8098D01*
X14063Y8108D02*
Y8598D01*
X14083Y8257D02*
Y8251D01*
X14147Y6691D02*
X14170Y6691D01*
X14176Y7399D02*
X14177Y7405D01*
X14176Y7868D02*
X14177Y7872D01*
X14118Y8248D02*
X14109Y8257D01*
X14174Y6648D02*
X14176Y6646D01*
X14089Y8219D02*
X14080Y8228D01*
X14109Y8219D02*
X14118Y8228D01*
X14131Y7889D02*
X14068Y7826D01*
X14080Y8248D02*
X14089Y8257D01*
X14439Y8528D02*
Y8552D01*
X14421Y6175D02*
Y6100D01*
X14392Y6107D02*
Y6174D01*
X14449D02*
Y6107D01*
X14445Y6404D02*
Y6424D01*
Y7814D02*
Y7834D01*
X14449Y7591D02*
Y7524D01*
X14392D02*
Y7591D01*
X14449Y8234D02*
Y8301D01*
X14392D02*
Y8234D01*
X14445Y7131D02*
Y7111D01*
X14449Y6883D02*
Y6816D01*
X14392D02*
Y6883D01*
X14451Y8516D02*
X14439Y8528D01*
X14445Y6404D02*
X14454Y6395D01*
Y7805D02*
X14445Y7814D01*
Y7111D02*
X14454Y7102D01*
X14439Y8552D02*
X14451Y8564D01*
X14454Y6433D02*
X14445Y6424D01*
Y7834D02*
X14454Y7843D01*
Y7140D02*
X14445Y7131D01*
X14487Y8528D02*
Y8552D01*
X14582Y6072D02*
Y6069D01*
Y6072D02*
Y6139D01*
X14639Y6072D02*
Y6069D01*
Y6072D02*
Y6139D01*
X14512Y6072D02*
Y6069D01*
Y6072D02*
Y6107D01*
X14569Y6072D02*
Y6069D01*
Y6072D02*
Y6139D01*
X14582Y6139D02*
Y6142D01*
Y6209D01*
X14639Y6142D02*
Y6139D01*
Y6142D02*
Y6209D01*
X14512D02*
Y6174D01*
X14569Y6142D02*
Y6139D01*
Y6142D02*
Y6209D01*
X14483Y6404D02*
Y6424D01*
X14546Y6142D02*
Y6139D01*
Y7556D02*
Y7559D01*
X14483Y7814D02*
Y7834D01*
X14639Y7626D02*
Y7559D01*
Y7556D01*
X14582Y7559D02*
Y7626D01*
Y7559D02*
Y7556D01*
X14569Y7559D02*
Y7626D01*
Y7559D02*
Y7556D01*
X14512Y7591D02*
Y7626D01*
X14639Y7556D02*
Y7489D01*
Y7486D01*
X14582Y7489D02*
Y7556D01*
Y7489D02*
Y7486D01*
X14569Y7489D02*
Y7556D01*
Y7489D02*
Y7486D01*
X14512Y7489D02*
Y7524D01*
Y7489D02*
Y7486D01*
X14546Y8266D02*
Y8269D01*
X14569Y8266D02*
Y8199D01*
Y8196D01*
X14512Y8199D02*
Y8234D01*
Y8199D02*
Y8196D01*
X14639Y8199D02*
Y8266D01*
Y8199D02*
Y8196D01*
X14582Y8199D02*
Y8266D01*
Y8199D02*
Y8196D01*
X14569Y8269D02*
Y8336D01*
Y8269D02*
Y8266D01*
X14512Y8301D02*
Y8336D01*
X14639D02*
Y8269D01*
Y8266D01*
X14582Y8269D02*
Y8336D01*
Y8269D02*
Y8266D01*
X14546Y6851D02*
Y6848D01*
X14483Y7111D02*
Y7131D01*
X14569Y6918D02*
Y6851D01*
Y6848D01*
X14512Y6883D02*
Y6918D01*
X14639D02*
Y6851D01*
Y6848D01*
X14582Y6851D02*
Y6918D01*
Y6851D02*
Y6848D01*
X14569Y6848D02*
Y6781D01*
Y6778D01*
X14512Y6781D02*
Y6816D01*
Y6781D02*
Y6778D01*
X14639Y6781D02*
Y6848D01*
Y6781D02*
Y6778D01*
X14582Y6781D02*
Y6848D01*
Y6781D02*
Y6778D01*
X14462Y6174D02*
Y6107D01*
Y7524D02*
Y7591D01*
Y8234D02*
Y8301D01*
X14462Y6883D02*
Y6816D01*
X14487Y8552D02*
X14475Y8564D01*
X14474Y6433D02*
X14483Y6424D01*
Y7834D02*
X14474Y7843D01*
Y7140D02*
X14483Y7131D01*
X14475Y8516D02*
X14487Y8528D01*
X14483Y6404D02*
X14474Y6395D01*
Y7805D02*
X14483Y7814D01*
Y7111D02*
X14474Y7102D01*
X14686Y6108D02*
Y6047D01*
X14832Y6107D02*
Y6174D01*
X14719Y6039D02*
Y5982D01*
Y6052D02*
Y6053D01*
Y6078D02*
Y6084D01*
Y6109D01*
X14705Y6316D02*
Y6335D01*
X14755Y6075D02*
Y6056D01*
X14705Y7733D02*
Y7752D01*
X14755Y7492D02*
Y7473D01*
X14719Y7456D02*
Y7405D01*
Y7501D02*
Y7526D01*
Y7501D02*
Y7495D01*
Y7470D02*
Y7469D01*
X14832Y7524D02*
Y7591D01*
X14705Y8443D02*
Y8462D01*
X14755Y8202D02*
Y8183D01*
X14832Y8234D02*
Y8301D01*
X14719Y8236D02*
Y8211D01*
Y8205D01*
Y8180D02*
Y8179D01*
Y8166D02*
Y8109D01*
X14705Y7044D02*
Y7025D01*
X14755Y6784D02*
Y6765D01*
X14719Y6793D02*
Y6818D01*
Y6793D02*
Y6787D01*
Y6762D02*
Y6761D01*
Y6748D02*
Y6691D01*
X14832Y6816D02*
Y6883D01*
X14719Y7399D02*
Y7400D01*
X14653Y6039D02*
Y5982D01*
Y6052D02*
Y6109D01*
X14667Y6316D02*
Y6335D01*
Y7733D02*
Y7752D01*
X14653Y7456D02*
Y7405D01*
Y7469D02*
Y7526D01*
X14667Y8443D02*
Y8462D01*
X14653Y8236D02*
Y8179D01*
Y8166D02*
Y8109D01*
X14667Y7044D02*
Y7025D01*
X14653Y6818D02*
Y6761D01*
Y6748D02*
Y6691D01*
Y7399D02*
Y7400D01*
X14696Y6344D02*
X14705Y6335D01*
X14746Y6084D02*
X14755Y6075D01*
X14726Y6046D02*
X14721Y6052D01*
X14705Y7752D02*
X14696Y7761D01*
X14721Y7469D02*
X14726Y7463D01*
X14755Y7492D02*
X14746Y7501D01*
X14705Y8462D02*
X14696Y8471D01*
X14721Y8179D02*
X14726Y8173D01*
X14755Y8202D02*
X14746Y8211D01*
X14696Y7053D02*
X14705Y7044D01*
X14721Y6761D02*
X14726Y6755D01*
X14755Y6784D02*
X14746Y6793D01*
X14667Y6316D02*
X14676Y6306D01*
Y7723D02*
X14667Y7733D01*
X14676Y8433D02*
X14667Y8443D01*
Y7025D02*
X14676Y7015D01*
X14705Y6316D02*
X14696Y6306D01*
X14755Y6056D02*
X14746Y6046D01*
X14696Y7723D02*
X14705Y7733D01*
X14755Y7473D02*
X14746Y7463D01*
X14696Y8433D02*
X14705Y8443D01*
X14755Y8183D02*
X14746Y8173D01*
X14705Y7025D02*
X14696Y7015D01*
X14755Y6765D02*
X14746Y6755D01*
X14676Y6344D02*
X14667Y6335D01*
Y7752D02*
X14676Y7761D01*
X14667Y8462D02*
X14676Y8471D01*
Y7053D02*
X14667Y7044D01*
X14917Y8548D02*
Y8555D01*
Y8548D02*
Y8519D01*
X14882Y8558D02*
Y8574D01*
X14919Y8519D02*
Y8513D01*
X14947Y6469D02*
Y6389D01*
X14902Y6174D02*
Y6107D01*
X14959D02*
Y6174D01*
X14889D02*
Y6107D01*
X14987Y6392D02*
Y6459D01*
X14917Y6421D02*
Y6392D01*
Y6421D02*
Y6428D01*
Y6453D02*
Y6459D01*
Y6459D01*
X14974Y6459D02*
Y6392D01*
X15035Y6466D02*
Y6485D01*
X14997D02*
Y6466D01*
X14882Y6450D02*
Y6431D01*
Y7848D02*
Y7867D01*
X14987Y7871D02*
Y7809D01*
X14974D02*
Y7871D01*
X14917D02*
Y7870D01*
Y7845D02*
Y7838D01*
Y7809D01*
X14959Y7591D02*
Y7524D01*
X14902D02*
Y7591D01*
X14889D02*
Y7524D01*
X14997Y8593D02*
Y8612D01*
X15035D02*
Y8593D01*
X14882Y8577D02*
Y8558D01*
X14997Y7902D02*
Y7883D01*
X15035D02*
Y7902D01*
X14987Y7876D02*
Y7872D01*
X14974D02*
Y7876D01*
X14917D02*
Y7876D01*
Y7876D02*
Y7872D01*
X14889Y8234D02*
Y8301D01*
X14959D02*
Y8234D01*
X14902D02*
Y8301D01*
X14974Y8519D02*
Y8586D01*
X14917D02*
Y8586D01*
Y8586D02*
Y8580D01*
X14987Y8586D02*
Y8519D01*
X14997Y7194D02*
Y7175D01*
X15035D02*
Y7194D01*
X14882Y7159D02*
Y7140D01*
X14974Y7168D02*
Y7101D01*
X14917Y7168D02*
Y7168D01*
Y7168D02*
Y7162D01*
Y7137D02*
Y7130D01*
Y7101D01*
X14987D02*
Y7168D01*
X14889Y6883D02*
Y6816D01*
X14959D02*
Y6883D01*
X14902D02*
Y6816D01*
X14860Y6177D02*
Y6100D01*
X14891Y8548D02*
X14882Y8558D01*
X15026Y6494D02*
X15035Y6485D01*
X15004Y6459D02*
X14997Y6466D01*
X14917Y6453D02*
X14911Y6459D01*
X14882Y6431D02*
X14891Y6421D01*
Y7838D02*
X14882Y7848D01*
X14916Y7871D02*
X14917Y7870D01*
X15004Y8586D02*
X14997Y8593D01*
X15026Y8621D02*
X15035Y8612D01*
X14911Y7876D02*
X14915Y7872D01*
X14917Y8580D02*
X14911Y8586D01*
X14997Y7883D02*
X15004Y7876D01*
X15035Y7902D02*
X15026Y7911D01*
X14997Y7175D02*
X15004Y7168D01*
X15035Y7194D02*
X15026Y7203D01*
X14891Y7130D02*
X14882Y7140D01*
X14911Y7168D02*
X14917Y7162D01*
X14911Y8548D02*
X14917Y8555D01*
X15035Y6466D02*
X15028Y6459D01*
X14997Y6485D02*
X15006Y6494D01*
X14917Y6428D02*
X14911Y6421D01*
X14882Y6450D02*
X14891Y6459D01*
X14882Y7867D02*
X14886Y7871D01*
X14917Y7845D02*
X14911Y7838D01*
X14997Y8612D02*
X15006Y8621D01*
X15035Y8593D02*
X15028Y8586D01*
X14891Y7876D02*
X14887Y7872D01*
X14882Y8577D02*
X14891Y8586D01*
X15006Y7911D02*
X14997Y7902D01*
X15028Y7876D02*
X15035Y7883D01*
X15006Y7203D02*
X14997Y7194D01*
X15028Y7168D02*
X15035Y7175D01*
X14891Y7168D02*
X14882Y7159D01*
X14911Y7130D02*
X14917Y7137D01*
X15044Y6396D02*
Y6392D01*
Y6396D02*
Y6405D01*
Y6426D02*
Y6434D01*
Y6459D01*
X15045Y6425D02*
Y6406D01*
X15045Y7823D02*
Y7842D01*
X15044Y7851D02*
Y7871D01*
Y7851D02*
Y7843D01*
Y7822D02*
Y7813D01*
Y7809D01*
X15045Y8533D02*
Y8552D01*
X15044Y7876D02*
Y7872D01*
Y8561D02*
Y8586D01*
Y8561D02*
Y8553D01*
Y8532D02*
Y8523D01*
Y8519D01*
X15045Y7134D02*
Y7115D01*
X15044Y7143D02*
Y7168D01*
Y7143D02*
Y7135D01*
Y7114D02*
Y7105D01*
Y7101D01*
Y6426D02*
X15045Y6425D01*
X15045Y7842D02*
X15044Y7843D01*
X15045Y8552D02*
X15044Y8553D01*
Y7135D02*
X15045Y7134D01*
Y6406D02*
X15044Y6405D01*
Y7822D02*
X15045Y7823D01*
X15044Y8532D02*
X15045Y8533D01*
Y7115D02*
X15044Y7114D01*
X15579Y6081D02*
Y5984D01*
Y6299D02*
Y6396D01*
Y7405D02*
Y7499D01*
Y7717D02*
Y7814D01*
Y8426D02*
Y8523D01*
Y8208D02*
Y8111D01*
Y7105D02*
Y7008D01*
Y6790D02*
Y6693D01*
X15865Y6081D02*
Y5984D01*
Y6299D02*
Y6396D01*
X15866Y5984D02*
Y5869D01*
Y5984D02*
Y6081D01*
Y6299D01*
Y6396D01*
Y6649D01*
Y7814D02*
Y7871D01*
Y7814D02*
Y7717D01*
Y7499D01*
Y7405D01*
X15865D02*
Y7499D01*
Y7717D02*
Y7814D01*
X15866Y8523D02*
Y8638D01*
Y8523D02*
Y8426D01*
Y8208D01*
Y8111D01*
Y7872D01*
X15865Y8426D02*
Y8523D01*
Y8208D02*
Y8111D01*
X15866Y7400D02*
Y7105D01*
Y7008D01*
Y6790D01*
Y6693D01*
Y6648D01*
X15865Y7008D02*
Y7105D01*
Y6790D02*
Y6693D01*
D19*
X8034Y6118D02*
X7899Y5982D01*
X8820Y6447D02*
X8971Y6296D01*
X8945Y6391D02*
X8841Y6495D01*
X7899Y5982D02*
X7631D01*
X9772Y6157D02*
X10432D01*
X4492Y7090D02*
X4456Y7054D01*
X8086Y6366D02*
X8172D01*
X11083Y6222D02*
X11575D01*
X11464Y6248D02*
X11450D01*
X11074D01*
X11082Y6275D02*
X11372D01*
X11087Y6222D02*
X10671D01*
X10592Y6248D02*
X11087D01*
X9624Y6252D02*
X9439D01*
X9614D02*
X9678D01*
X9222Y6296D02*
X8971D01*
X9797Y6241D02*
X9953D01*
X10513Y6275D02*
X11091D01*
X4492Y7090D02*
Y7447D01*
X4579Y7535D02*
X4606Y7508D01*
X4579Y7534D02*
X4492Y7447D01*
X7717Y6543D02*
X7901D01*
X10489Y6519D02*
X10500D01*
X10497D02*
X11499D01*
X11673D01*
X8820Y6447D02*
X8672D01*
X8618Y6495D02*
X8841D01*
X8945Y6391D02*
X9221D01*
X5115Y7011D02*
X4286D01*
X4385Y7054D02*
X4456D01*
X4606Y7508D02*
X5155D01*
X7580Y6033D02*
X7631Y5982D01*
X7688Y6039D02*
Y6513D01*
X7717Y6543D01*
X7922Y6565D02*
Y6596D01*
Y6565D02*
X7901Y6543D01*
X8034Y6315D02*
Y6118D01*
X8082Y6362D02*
X8086Y6366D01*
X8082Y6362D02*
X8034Y6315D01*
X8571Y6447D02*
X8617Y6493D01*
X9323Y6190D02*
Y6155D01*
X9281Y6114D02*
Y6031D01*
Y6114D02*
X9323Y6155D01*
X9417Y6201D02*
Y6230D01*
X9439Y6252D01*
X9678D02*
X9758Y6172D01*
X9756Y6459D02*
X9717Y6498D01*
X9791Y6277D02*
Y6247D01*
X9756Y6372D02*
Y6459D01*
X9771Y6159D02*
X9773Y6157D01*
X9771Y6159D02*
X9758Y6172D01*
X9797Y6241D02*
X9791Y6247D01*
X9780Y6348D02*
X9756Y6372D01*
X9859Y6307D02*
X9881Y6329D01*
X9859Y6307D02*
X9852Y6300D01*
X10418Y6143D02*
Y6011D01*
X10496Y6253D02*
Y6258D01*
Y6256D02*
Y6096D01*
Y6010D01*
X10465Y6191D02*
Y6495D01*
X10458Y6184D02*
X10432Y6157D01*
X10436Y6161D02*
X10418Y6143D01*
X10496Y6258D02*
X10513Y6275D01*
X10465Y6495D02*
X10489Y6519D01*
X10465Y6191D02*
X10458Y6184D01*
X10654Y6205D02*
Y6016D01*
X10577Y6006D02*
Y6233D01*
X10654Y6205D02*
X10671Y6222D01*
X10592Y6248D02*
X10577Y6233D01*
X11485Y6269D02*
Y6467D01*
X11386D02*
Y6289D01*
X11464Y6248D02*
X11485Y6269D01*
X11386Y6289D02*
X11372Y6275D01*
X11590Y6238D02*
Y6452D01*
X11683Y6466D02*
Y6509D01*
X11673Y6519D01*
X11590Y6237D02*
X11575Y6222D01*
D21*
X13324Y6960D02*
X13375D01*
X13308Y7027D02*
X13245D01*
X12733D02*
X12694D01*
X12851D02*
X12867D01*
X13147Y7244D02*
X13166D01*
X13174Y7322D02*
X13147D01*
X12832Y7244D02*
X12816D01*
X12812Y7322D02*
X12832D01*
X12690Y7362D02*
X12635D01*
X13029D02*
X13056D01*
X12950D02*
X12922D01*
X12721Y7433D02*
X12690D01*
X13229Y7535D02*
X13241D01*
X13143Y7535D02*
X13127D01*
X13599Y7917D02*
X13639D01*
X12395Y7799D02*
X12371D01*
X12265Y7834D02*
Y7913D01*
X12332Y7838D02*
X12371Y7799D01*
X12674Y6972D02*
Y6933D01*
X12757Y6937D02*
Y6972D01*
X12832Y6925D02*
Y6889D01*
X12871Y7204D02*
Y7232D01*
Y7236D02*
Y7307D01*
X12832Y7047D02*
X12851Y7027D01*
X12725Y7429D02*
X12714Y7440D01*
X12721Y7433D02*
X12753Y7401D01*
Y7047D02*
X12733Y7027D01*
X12757Y6972D02*
X12792Y7007D01*
X12989D02*
Y6972D01*
X13029Y6921D02*
Y6889D01*
X13068Y7401D02*
Y7421D01*
X12910Y7417D02*
Y7401D01*
X12989Y7047D02*
X13021Y7015D01*
X12989Y6972D02*
X12962Y6944D01*
X12958Y7015D02*
X12989Y7047D01*
X13249Y6984D02*
Y6933D01*
X13186Y6917D02*
Y6889D01*
X13107Y7480D02*
Y7515D01*
Y7315D02*
Y7255D01*
X13225Y7047D02*
X13245Y7027D01*
X13225Y7007D02*
X13249Y6984D01*
X13241Y7535D02*
X13265Y7559D01*
X13127Y7535D02*
X13107Y7515D01*
X13147Y7047D02*
X13115Y7015D01*
X13375Y6960D02*
X13422Y7007D01*
X13540Y7795D02*
X13580Y7834D01*
X6251Y8803D02*
Y8953D01*
Y8803D02*
X6326D01*
X6351Y8828D01*
Y8853D01*
X6326Y8878D01*
X6251D01*
X6252D01*
X6251D02*
X6252D01*
X6251D02*
X6252D01*
X6251D02*
X6326D01*
X6351Y8903D01*
Y8928D01*
X6326Y8953D01*
X6251D01*
X6426D02*
X6476D01*
X6426D02*
X6401Y8928D01*
Y8828D01*
X6426Y8803D01*
X6476D01*
X6501Y8828D01*
Y8928D01*
X6476Y8953D01*
X6551D02*
X6651D01*
X6601D01*
Y8803D01*
X6701Y8953D02*
X6801D01*
X6751D01*
Y8803D01*
X6876Y8953D02*
X6926D01*
X6876D02*
X6851Y8928D01*
Y8828D01*
X6876Y8803D01*
X6926D01*
X6951Y8828D01*
Y8928D01*
X6926Y8953D01*
X7001D02*
Y8803D01*
X7051Y8903D02*
X7001Y8953D01*
X7051Y8903D02*
X7101Y8953D01*
Y8803D01*
X7301D02*
Y8953D01*
Y8803D02*
X7401D01*
X7451D02*
Y8903D01*
X7501Y8953D01*
X7551Y8903D01*
Y8803D01*
Y8878D01*
X7451D01*
X7601Y8928D02*
Y8953D01*
Y8928D02*
X7650Y8878D01*
X7700Y8928D01*
Y8953D01*
X7650Y8878D02*
Y8803D01*
X7750Y8953D02*
X7850D01*
X7750D02*
Y8803D01*
X7850D01*
X7800Y8878D02*
X7750D01*
X7900Y8953D02*
Y8803D01*
Y8953D02*
X7975D01*
X8000Y8928D01*
Y8878D01*
X7975Y8853D01*
X7900D01*
X7950D02*
X8000Y8803D01*
X8050Y8903D02*
X8075D01*
Y8878D01*
X8050D01*
Y8903D01*
Y8828D02*
X8075D01*
Y8803D01*
X8050D01*
Y8828D01*
X8325Y8803D02*
Y8953D01*
Y8803D02*
X8425D01*
X8500D02*
X8550D01*
X8575Y8828D01*
Y8878D01*
X8550Y8903D01*
X8500D01*
X8475Y8878D01*
Y8828D01*
X8500Y8803D01*
X8675Y8753D02*
X8700D01*
X8725Y8778D01*
Y8903D01*
X8650D01*
X8625Y8878D01*
Y8828D01*
X8650Y8803D01*
X8725D01*
X8775D02*
X8825D01*
X8800D01*
Y8903D01*
X8775D01*
X8800Y8953D02*
X8801D01*
X8925Y8903D02*
X9000D01*
X8925D02*
X8900Y8878D01*
Y8828D01*
X8925Y8803D01*
X9000D01*
D22*
X6688Y7283D02*
X6487Y7082D01*
X6192Y6844D02*
X6076Y6728D01*
X6070Y5929D02*
X6030D01*
X15587Y5991D02*
X15857D01*
X6251Y5933D02*
X6141D01*
X13830Y6106D02*
X13864D01*
X15587Y6073D02*
X15855D01*
X14002Y6106D02*
X13932D01*
X13158Y6147D02*
X13060D01*
X13076Y6137D02*
X13158D01*
X15585Y6305D02*
X15859D01*
Y6391D02*
X15586D01*
X15584Y6700D02*
X15860D01*
X6241Y6702D02*
X6188D01*
X14812Y6850D02*
X14891D01*
X14454D02*
X14386D01*
X6340Y6911D02*
X6270D01*
X6290Y6841D02*
X6196D01*
X14653Y6789D02*
X14716D01*
X15584Y6785D02*
X15859D01*
X14976Y7135D02*
X14921D01*
X15587Y7013D02*
X15858D01*
X15854Y7099D02*
X15587D01*
X6893Y7348D02*
X6763D01*
X6755D01*
X6753D01*
X14392Y7559D02*
X14448D01*
X14651Y7497D02*
X14714D01*
X14834Y7557D02*
X14893D01*
X15580Y7490D02*
X15843D01*
X15858D01*
Y7406D02*
X15582D01*
X15586Y7723D02*
X15858D01*
X14976Y7844D02*
X14922D01*
X15597Y7807D02*
X15858D01*
X15601Y7812D02*
X15590D01*
X6076Y6728D02*
Y6000D01*
X6143Y6009D02*
Y5927D01*
X15584Y8118D02*
X15858D01*
X6362Y6889D02*
Y6792D01*
Y6889D02*
X6340Y6911D01*
X6304Y6765D02*
X6241Y6702D01*
X13855Y8328D02*
X13914D01*
X13950Y8329D02*
X14010D01*
X13880Y8328D02*
X13810D01*
X14828Y8271D02*
X14890D01*
X14713Y8208D02*
X14652D01*
X14711Y8209D02*
X14718D01*
X14452Y8269D02*
X14389D01*
X15584Y8201D02*
X15858D01*
X12845Y8322D02*
X12710D01*
X12794Y8196D02*
X12820D01*
X6487Y7082D02*
Y6486D01*
X6445Y6443D01*
X15585Y8516D02*
X15858D01*
Y8431D02*
X15587D01*
X6753Y7348D02*
X6679Y7274D01*
X14918Y8552D02*
X14977D01*
X12698Y8360D02*
Y8334D01*
X12710Y8322D01*
X12820Y8196D02*
X12851Y8165D01*
X12794Y8196D02*
X12761Y8163D01*
X12910Y8281D02*
Y8305D01*
Y8204D02*
Y8177D01*
X13802Y6134D02*
X13830Y6106D01*
X13879Y8297D02*
Y8365D01*
X14422Y6891D02*
Y6808D01*
X14419Y7528D02*
Y7592D01*
X14422Y8230D02*
Y8311D01*
X14531Y8282D02*
Y8252D01*
Y7572D02*
Y7542D01*
Y6864D02*
Y6834D01*
Y6155D02*
Y6125D01*
X14685Y6761D02*
Y6835D01*
X14686Y7464D02*
Y7534D01*
X14685Y8180D02*
Y8244D01*
Y8180D02*
Y8175D01*
X14947Y7174D02*
Y7096D01*
X14945Y7803D02*
Y7880D01*
X14946Y8512D02*
Y8595D01*
X14862Y6894D02*
Y6813D01*
X14861Y7523D02*
Y7594D01*
Y8225D02*
Y8305D01*
X15585Y6395D02*
Y6305D01*
X15587Y6073D02*
Y5991D01*
X15584Y6700D02*
Y6785D01*
X15587Y7013D02*
Y7099D01*
Y8431D02*
Y8509D01*
X15584Y8196D02*
Y8118D01*
X15586Y7809D02*
Y7723D01*
X15585Y7491D02*
Y7410D01*
X15859Y6391D02*
Y6305D01*
X15857Y6077D02*
Y5991D01*
X15860Y6700D02*
Y6780D01*
X15858Y7013D02*
Y7098D01*
Y8431D02*
Y8516D01*
Y8201D02*
Y8118D01*
Y7807D02*
Y7723D01*
Y7490D02*
Y7409D01*
Y7406D01*
D23*
X12714Y8277D02*
D03*
Y8242D02*
D03*
Y8431D02*
D03*
X12572Y8163D02*
D03*
X12509D02*
D03*
X12651Y8210D02*
D03*
X12588Y8242D02*
D03*
Y8431D02*
D03*
X12556Y8431D02*
D03*
X12493Y8210D02*
D03*
X12462D02*
D03*
D26*
X13548Y5909D02*
X13588D01*
X13584Y5976D02*
X13548D01*
X13666Y6149D02*
X13702D01*
X13580Y6114D02*
X13560D01*
X13548Y6043D02*
X13580D01*
X13592Y6185D02*
X13556D01*
Y6255D02*
X13580D01*
X13584Y6330D02*
X13556D01*
Y6401D02*
X13580D01*
X13517Y8066D02*
X13481D01*
X13529Y8145D02*
X13414D01*
X13497Y8287D02*
X13529D01*
X13383Y8216D02*
X13375D01*
X13383D02*
X13529D01*
X13607Y8252D02*
X13639D01*
X13529Y8492D02*
X13485D01*
Y8425D02*
X13529D01*
Y8358D02*
X13485D01*
X13403Y7846D02*
Y7826D01*
X13442Y7877D02*
Y7937D01*
X13403Y7925D02*
Y7858D01*
Y7866D02*
Y7846D01*
X13442Y7826D02*
Y7885D01*
X13375Y7952D02*
Y8216D01*
X13414Y8027D02*
Y7968D01*
Y8027D02*
Y8145D01*
X13399Y7929D02*
X13403Y7925D01*
X13442Y7940D02*
X13414Y7968D01*
X13375Y7952D02*
X13399Y7929D01*
X13521Y7897D02*
Y7988D01*
Y7913D02*
Y7822D01*
X13603Y8003D02*
Y8492D01*
X13662Y6401D02*
Y5917D01*
X13481Y7897D02*
Y7968D01*
Y7901D02*
Y7897D01*
Y7815D01*
Y7952D02*
Y8063D01*
D27*
X15711Y8137D02*
D03*
Y8497D02*
D03*
X15731Y8417D02*
D03*
Y8217D02*
D03*
X15711Y7427D02*
D03*
Y7787D02*
D03*
X15731Y7707D02*
D03*
Y7507D02*
D03*
Y6999D02*
D03*
X15711Y7079D02*
D03*
X15811Y8137D02*
D03*
Y8497D02*
D03*
Y8417D02*
D03*
Y8217D02*
D03*
Y7427D02*
D03*
Y7787D02*
D03*
Y7707D02*
D03*
Y7507D02*
D03*
Y6999D02*
D03*
Y7079D02*
D03*
X15651Y8417D02*
D03*
Y8217D02*
D03*
Y7707D02*
D03*
Y7507D02*
D03*
Y6999D02*
D03*
X15731Y6799D02*
D03*
X15711Y6719D02*
D03*
X15731Y6090D02*
D03*
Y6290D02*
D03*
X15711Y6370D02*
D03*
Y6010D02*
D03*
X15811Y6799D02*
D03*
Y6719D02*
D03*
Y6090D02*
D03*
Y6290D02*
D03*
Y6370D02*
D03*
Y6010D02*
D03*
X15651Y6799D02*
D03*
Y6090D02*
D03*
Y6290D02*
D03*
X15501Y8222D02*
D03*
Y8427D02*
D03*
Y7512D02*
D03*
Y7717D02*
D03*
Y7009D02*
D03*
X15571Y8417D02*
D03*
X15611Y8137D02*
D03*
Y8497D02*
D03*
X15571Y8217D02*
D03*
Y7707D02*
D03*
X15611Y7427D02*
D03*
Y7787D02*
D03*
X15571Y7507D02*
D03*
X15611Y7079D02*
D03*
X15571Y6999D02*
D03*
X15436Y8237D02*
D03*
X15446Y8452D02*
D03*
X15436Y7527D02*
D03*
X15446Y7742D02*
D03*
Y7034D02*
D03*
X15501Y6804D02*
D03*
Y6300D02*
D03*
Y6095D02*
D03*
X15571Y6799D02*
D03*
X15611Y6719D02*
D03*
X15571Y6090D02*
D03*
X15611Y6370D02*
D03*
Y6010D02*
D03*
X15571Y6290D02*
D03*
X15436Y6819D02*
D03*
X15446Y6325D02*
D03*
X15436Y6110D02*
D03*
X15336Y8577D02*
D03*
Y7159D02*
D03*
Y7867D02*
D03*
X15321Y8287D02*
D03*
Y8492D02*
D03*
Y7577D02*
D03*
Y7782D02*
D03*
Y7074D02*
D03*
X15376Y8262D02*
D03*
X15386Y8477D02*
D03*
X15376Y7552D02*
D03*
X15386Y7767D02*
D03*
Y7059D02*
D03*
X15251Y8297D02*
D03*
Y8172D02*
D03*
Y8102D02*
D03*
Y8037D02*
D03*
Y8237D02*
D03*
Y8497D02*
D03*
Y7587D02*
D03*
Y7462D02*
D03*
Y7392D02*
D03*
Y7327D02*
D03*
Y7527D02*
D03*
Y7787D02*
D03*
Y7079D02*
D03*
X15336Y6450D02*
D03*
X15321Y6869D02*
D03*
Y6365D02*
D03*
Y6160D02*
D03*
X15376Y6844D02*
D03*
X15386Y6350D02*
D03*
X15376Y6135D02*
D03*
X15251Y6819D02*
D03*
Y6619D02*
D03*
Y6684D02*
D03*
Y6754D02*
D03*
Y6879D02*
D03*
Y6370D02*
D03*
Y6110D02*
D03*
Y5910D02*
D03*
Y5975D02*
D03*
Y6045D02*
D03*
Y6170D02*
D03*
X15121Y8497D02*
D03*
Y8297D02*
D03*
Y8237D02*
D03*
Y8037D02*
D03*
Y7787D02*
D03*
Y7587D02*
D03*
Y7527D02*
D03*
Y7327D02*
D03*
Y7079D02*
D03*
X15186Y8297D02*
D03*
Y8237D02*
D03*
Y8037D02*
D03*
Y7587D02*
D03*
Y7527D02*
D03*
Y7327D02*
D03*
X15061Y7079D02*
D03*
X15061Y8497D02*
D03*
Y8297D02*
D03*
Y8237D02*
D03*
Y8037D02*
D03*
Y7787D02*
D03*
Y7587D02*
D03*
Y7527D02*
D03*
Y7327D02*
D03*
X15121Y6619D02*
D03*
Y6819D02*
D03*
Y6879D02*
D03*
Y5910D02*
D03*
Y6110D02*
D03*
Y6170D02*
D03*
Y6370D02*
D03*
X15186Y6619D02*
D03*
Y6819D02*
D03*
Y6879D02*
D03*
Y5910D02*
D03*
Y6110D02*
D03*
Y6170D02*
D03*
X15061Y6619D02*
D03*
Y6819D02*
D03*
Y6879D02*
D03*
Y5910D02*
D03*
Y6110D02*
D03*
Y6170D02*
D03*
Y6370D02*
D03*
X14946Y8567D02*
D03*
X15026Y8542D02*
D03*
X14901Y8567D02*
D03*
X15016Y8602D02*
D03*
X14946Y7149D02*
D03*
Y7857D02*
D03*
X15016Y7892D02*
D03*
X15026Y7832D02*
D03*
X14931Y8267D02*
D03*
Y7557D02*
D03*
X14901Y7857D02*
D03*
Y7149D02*
D03*
X15001Y8297D02*
D03*
Y8497D02*
D03*
Y8037D02*
D03*
Y8237D02*
D03*
Y7787D02*
D03*
Y7327D02*
D03*
Y7527D02*
D03*
X15016Y7184D02*
D03*
X15001Y7079D02*
D03*
X15026Y7124D02*
D03*
X15001Y7587D02*
D03*
X14946Y6440D02*
D03*
X15026Y6415D02*
D03*
X14931Y6849D02*
D03*
X14901Y6440D02*
D03*
X14931Y6140D02*
D03*
X15001Y6819D02*
D03*
Y6619D02*
D03*
Y6879D02*
D03*
X15016Y6475D02*
D03*
X15001Y6110D02*
D03*
Y5910D02*
D03*
Y6370D02*
D03*
Y6170D02*
D03*
X14736Y8192D02*
D03*
Y7482D02*
D03*
X14686Y8142D02*
D03*
Y8452D02*
D03*
Y7432D02*
D03*
Y7742D02*
D03*
Y7034D02*
D03*
X14736Y6774D02*
D03*
Y6065D02*
D03*
X14686Y6724D02*
D03*
Y6325D02*
D03*
Y6015D02*
D03*
X14606Y8182D02*
D03*
X14606Y8292D02*
D03*
Y8242D02*
D03*
Y7582D02*
D03*
Y7532D02*
D03*
X14496Y8322D02*
D03*
Y8212D02*
D03*
X14496Y7612D02*
D03*
Y7502D02*
D03*
X14606Y7472D02*
D03*
X14493Y8136D02*
D03*
Y8176D02*
D03*
Y8096D02*
D03*
Y8056D02*
D03*
Y8016D02*
D03*
Y7976D02*
D03*
Y7936D02*
D03*
Y7666D02*
D03*
Y7426D02*
D03*
Y7386D02*
D03*
Y7346D02*
D03*
Y7306D02*
D03*
Y7266D02*
D03*
Y7226D02*
D03*
X14496Y8372D02*
D03*
X14464Y7121D02*
D03*
Y7824D02*
D03*
X14606Y6824D02*
D03*
Y6874D02*
D03*
Y6115D02*
D03*
Y6165D02*
D03*
X14496Y6904D02*
D03*
Y6794D02*
D03*
X14496Y6085D02*
D03*
Y6195D02*
D03*
X14606Y6764D02*
D03*
Y6055D02*
D03*
X14493Y6946D02*
D03*
Y6706D02*
D03*
Y6666D02*
D03*
Y6626D02*
D03*
Y6586D02*
D03*
Y6546D02*
D03*
Y6506D02*
D03*
Y6396D02*
D03*
Y6246D02*
D03*
Y6046D02*
D03*
Y6006D02*
D03*
Y5966D02*
D03*
Y5926D02*
D03*
Y5886D02*
D03*
X14464Y6414D02*
D03*
X14446Y8452D02*
D03*
Y7742D02*
D03*
Y7034D02*
D03*
X14451Y8322D02*
D03*
Y8212D02*
D03*
X14451Y7612D02*
D03*
Y7502D02*
D03*
X14341Y8062D02*
D03*
Y8117D02*
D03*
Y7952D02*
D03*
Y8007D02*
D03*
X14306Y8275D02*
D03*
X14352Y8304D02*
D03*
X14341Y7897D02*
D03*
X14335Y7834D02*
D03*
X14320Y7774D02*
D03*
X14388Y7496D02*
D03*
X14342Y7599D02*
D03*
X14331Y7478D02*
D03*
X14398Y8203D02*
D03*
X14399Y8318D02*
D03*
X14397Y7611D02*
D03*
X14293Y7718D02*
D03*
X14281Y7447D02*
D03*
X14288Y7580D02*
D03*
X14360Y8174D02*
D03*
X14265Y8230D02*
D03*
X14256Y7666D02*
D03*
X14446Y6325D02*
D03*
X14451Y6904D02*
D03*
Y6794D02*
D03*
X14451Y6085D02*
D03*
Y6195D02*
D03*
X14330Y6928D02*
D03*
X14341Y6807D02*
D03*
X14306Y6132D02*
D03*
X14341Y6290D02*
D03*
X14360Y6233D02*
D03*
X14352Y6103D02*
D03*
X14341Y6510D02*
D03*
Y6450D02*
D03*
Y6400D02*
D03*
Y6345D02*
D03*
X14335Y6573D02*
D03*
X14320Y6633D02*
D03*
X14387Y6910D02*
D03*
X14396Y6795D02*
D03*
X14398Y6204D02*
D03*
X14399Y6089D02*
D03*
X14287Y6826D02*
D03*
X14280Y6959D02*
D03*
X14293Y6689D02*
D03*
X14265Y6177D02*
D03*
X14256Y6741D02*
D03*
X14231Y7897D02*
D03*
X14223Y7833D02*
D03*
X14198Y7774D02*
D03*
X14158Y7723D02*
D03*
X14099Y8238D02*
D03*
X14110Y6979D02*
D03*
X14153Y7083D02*
D03*
X14106Y7683D02*
D03*
X14109Y7564D02*
D03*
X14164Y7589D02*
D03*
X14191Y7515D02*
D03*
X14154Y7323D02*
D03*
X14111Y7427D02*
D03*
X14239Y7003D02*
D03*
X14200Y7047D02*
D03*
X14231Y8062D02*
D03*
Y8117D02*
D03*
Y7952D02*
D03*
Y8007D02*
D03*
X14239Y8176D02*
D03*
X14213Y7624D02*
D03*
X14240Y7404D02*
D03*
X14238Y7551D02*
D03*
X14201Y7359D02*
D03*
X14103Y7112D02*
D03*
X14104Y7294D02*
D03*
X14152Y7471D02*
D03*
X14060Y7010D02*
D03*
X14061Y7396D02*
D03*
X14151Y6936D02*
D03*
X14106Y6724D02*
D03*
X14109Y6843D02*
D03*
X14164Y6818D02*
D03*
X14158Y6684D02*
D03*
X14190Y6891D02*
D03*
X14237Y6855D02*
D03*
X14231Y6290D02*
D03*
X14239Y6231D02*
D03*
X14231Y6510D02*
D03*
Y6450D02*
D03*
Y6400D02*
D03*
Y6345D02*
D03*
X14213Y6783D02*
D03*
X14223Y6574D02*
D03*
X14198Y6633D02*
D03*
X14010Y8329D02*
D03*
X13991Y7542D02*
D03*
X13931D02*
D03*
X13991Y7652D02*
D03*
X13931D02*
D03*
Y7372D02*
D03*
Y7262D02*
D03*
X13991Y7263D02*
D03*
X13931Y7144D02*
D03*
Y7034D02*
D03*
X13988Y7143D02*
D03*
X13995Y7031D02*
D03*
X14052Y7547D02*
D03*
X14050Y7275D02*
D03*
X13997Y7376D02*
D03*
X14047Y7132D02*
D03*
X14050Y7660D02*
D03*
X13870Y7144D02*
D03*
Y7034D02*
D03*
X13871Y7652D02*
D03*
Y7542D02*
D03*
X13870Y7372D02*
D03*
Y7262D02*
D03*
X13879Y8084D02*
D03*
X13933Y6249D02*
D03*
X13991Y6865D02*
D03*
X13931D02*
D03*
X13991Y6755D02*
D03*
X13931D02*
D03*
X14050Y6747D02*
D03*
X14052Y6860D02*
D03*
X13973Y6250D02*
D03*
X14002Y6106D02*
D03*
X13871Y6755D02*
D03*
Y6865D02*
D03*
X13810Y8328D02*
D03*
X13851Y8180D02*
D03*
X13803Y8182D02*
D03*
X13739Y7810D02*
D03*
X13672Y8007D02*
D03*
X13702Y6149D02*
D03*
X13802Y6134D02*
D03*
X13800Y6414D02*
D03*
X13749Y6274D02*
D03*
X13838Y6661D02*
D03*
X13501Y7283D02*
D03*
X13501Y7086D02*
D03*
X13580Y7244D02*
D03*
X13540Y7126D02*
D03*
Y7165D02*
D03*
Y7362D02*
D03*
Y7401D02*
D03*
Y7677D02*
D03*
Y7716D02*
D03*
Y7204D02*
D03*
X13639Y8252D02*
D03*
X13540Y7480D02*
D03*
Y7440D02*
D03*
Y7007D02*
D03*
X13501Y7165D02*
D03*
Y7204D02*
D03*
Y7322D02*
D03*
Y7598D02*
D03*
X13501Y7637D02*
D03*
X13497Y8287D02*
D03*
X13501Y7755D02*
D03*
X13485Y8492D02*
D03*
Y8358D02*
D03*
Y8425D02*
D03*
X13540Y7795D02*
D03*
X13558Y7881D02*
D03*
X13639Y7917D02*
D03*
X13540Y6889D02*
D03*
Y6929D02*
D03*
X13540Y6732D02*
D03*
X13540Y6692D02*
D03*
X13548Y5909D02*
D03*
Y5976D02*
D03*
Y6043D02*
D03*
X13560Y6114D02*
D03*
X13556Y6185D02*
D03*
Y6255D02*
D03*
Y6330D02*
D03*
Y6401D02*
D03*
X13501Y6692D02*
D03*
Y6732D02*
D03*
Y6811D02*
D03*
Y6850D02*
D03*
Y6771D02*
D03*
X13563Y6542D02*
D03*
X13493Y5889D02*
D03*
X13554Y6466D02*
D03*
X13422Y7204D02*
D03*
X13383Y7243D02*
D03*
X13304Y7283D02*
D03*
X13344D02*
D03*
X13462D02*
D03*
X13316Y8255D02*
D03*
X13462Y7795D02*
D03*
X13422D02*
D03*
X13383D02*
D03*
X13343Y7795D02*
D03*
X13462Y7165D02*
D03*
Y7362D02*
D03*
X13422Y7007D02*
D03*
X13343Y7637D02*
D03*
Y7244D02*
D03*
X13343Y7204D02*
D03*
X13383D02*
D03*
X13462Y7598D02*
D03*
Y7322D02*
D03*
X13462Y7126D02*
D03*
X13462Y7716D02*
D03*
X13422Y7677D02*
D03*
X13462Y7519D02*
D03*
X13383Y7637D02*
D03*
X13304Y7559D02*
D03*
Y7244D02*
D03*
X13304Y7795D02*
D03*
X13343Y7362D02*
D03*
X13454Y7980D02*
D03*
X13343Y6137D02*
D03*
X13462Y6771D02*
D03*
X13383Y6850D02*
D03*
X13462Y6653D02*
D03*
X13422Y6692D02*
D03*
X13383D02*
D03*
X13343D02*
D03*
X13462D02*
D03*
X13422Y6732D02*
D03*
X13383D02*
D03*
X13343D02*
D03*
X13462Y6811D02*
D03*
X13422D02*
D03*
X13383Y6771D02*
D03*
X13343Y6771D02*
D03*
Y6811D02*
D03*
X13462Y6889D02*
D03*
X13304Y6732D02*
D03*
Y6811D02*
D03*
Y6771D02*
D03*
Y6889D02*
D03*
Y6692D02*
D03*
X13225Y8153D02*
D03*
Y7440D02*
D03*
X13265Y7559D02*
D03*
X13147Y7480D02*
D03*
X13225Y7047D02*
D03*
Y7401D02*
D03*
Y7362D02*
D03*
Y7322D02*
D03*
Y7283D02*
D03*
Y7244D02*
D03*
Y7204D02*
D03*
Y7165D02*
D03*
Y7126D02*
D03*
Y7086D02*
D03*
Y7007D02*
D03*
Y7480D02*
D03*
X13158Y7988D02*
D03*
X13147Y7047D02*
D03*
X13186Y7480D02*
D03*
X13147Y7362D02*
D03*
Y7322D02*
D03*
Y7244D02*
D03*
Y7165D02*
D03*
Y7126D02*
D03*
X13186Y7007D02*
D03*
X13147D02*
D03*
Y7283D02*
D03*
Y7204D02*
D03*
Y7401D02*
D03*
Y7086D02*
D03*
X13186Y7755D02*
D03*
X13147Y7598D02*
D03*
X13107Y7480D02*
D03*
Y7086D02*
D03*
Y7401D02*
D03*
Y7362D02*
D03*
Y7283D02*
D03*
Y7204D02*
D03*
Y7165D02*
D03*
Y7126D02*
D03*
X13265Y7519D02*
D03*
X13151Y7905D02*
D03*
X13158Y5933D02*
D03*
X13186Y6889D02*
D03*
X13225Y6850D02*
D03*
X13186Y6732D02*
D03*
X13265Y6811D02*
D03*
X13225Y6811D02*
D03*
X13186D02*
D03*
X13147Y6811D02*
D03*
X13265Y6850D02*
D03*
X13186D02*
D03*
X13147Y6889D02*
D03*
X13265Y6771D02*
D03*
X13225D02*
D03*
X13237Y6023D02*
D03*
X13127Y6405D02*
D03*
X13107Y6811D02*
D03*
Y6850D02*
D03*
Y6889D02*
D03*
X13095Y6405D02*
D03*
X13160Y6141D02*
D03*
X13068Y7480D02*
D03*
Y7598D02*
D03*
Y7401D02*
D03*
Y7086D02*
D03*
Y7126D02*
D03*
Y7322D02*
D03*
Y7283D02*
D03*
Y7244D02*
D03*
Y7204D02*
D03*
Y7165D02*
D03*
Y6811D02*
D03*
X12950Y7480D02*
D03*
Y7322D02*
D03*
X12910D02*
D03*
X12910Y7716D02*
D03*
X12950D02*
D03*
Y7755D02*
D03*
X12910D02*
D03*
X12950Y7519D02*
D03*
X12910D02*
D03*
X12950Y7598D02*
D03*
X12910D02*
D03*
Y7559D02*
D03*
X12950D02*
D03*
X12989Y7086D02*
D03*
X12910Y7716D02*
D03*
Y7755D02*
D03*
X12950Y7716D02*
D03*
Y7755D02*
D03*
X12989Y7047D02*
D03*
X12989Y7007D02*
D03*
X13029Y7086D02*
D03*
X12950Y7677D02*
D03*
X12950Y7637D02*
D03*
X12950D02*
D03*
Y7677D02*
D03*
X13029Y7480D02*
D03*
Y7401D02*
D03*
X12989D02*
D03*
X12950D02*
D03*
Y7086D02*
D03*
Y7244D02*
D03*
Y7165D02*
D03*
Y7126D02*
D03*
X13029D02*
D03*
X12989D02*
D03*
Y7165D02*
D03*
Y7204D02*
D03*
X13029Y7165D02*
D03*
X12950Y7204D02*
D03*
X13029Y7362D02*
D03*
X12989D02*
D03*
X13029Y7322D02*
D03*
Y7283D02*
D03*
X12989Y7322D02*
D03*
X12950Y7362D02*
D03*
X12989Y7283D02*
D03*
X13029Y7244D02*
D03*
Y7204D02*
D03*
X12989Y7244D02*
D03*
X12950Y7283D02*
D03*
X12910Y7480D02*
D03*
Y7086D02*
D03*
X12910Y7677D02*
D03*
X12910D02*
D03*
Y7401D02*
D03*
Y7204D02*
D03*
Y7283D02*
D03*
Y7244D02*
D03*
Y7126D02*
D03*
Y7165D02*
D03*
Y7637D02*
D03*
X12910Y7795D02*
D03*
X13050Y7846D02*
D03*
X12912Y7834D02*
D03*
X12910Y8281D02*
D03*
Y8204D02*
D03*
X13009Y6196D02*
D03*
X12989Y6535D02*
D03*
X13029Y6889D02*
D03*
X13029Y6732D02*
D03*
X13029Y6811D02*
D03*
X12989D02*
D03*
X12950Y6811D02*
D03*
X12989Y6850D02*
D03*
X12950Y6732D02*
D03*
X13029Y6771D02*
D03*
X12989Y6771D02*
D03*
X12950D02*
D03*
Y6850D02*
D03*
X12989Y6689D02*
D03*
X12946Y5992D02*
D03*
Y6031D02*
D03*
X13009Y6326D02*
D03*
X13032Y6346D02*
D03*
X13056Y6366D02*
D03*
X13060Y6405D02*
D03*
X12938Y6267D02*
D03*
X12962Y6287D02*
D03*
X12985Y6307D02*
D03*
X12910Y6811D02*
D03*
Y6732D02*
D03*
Y6771D02*
D03*
X12918Y6051D02*
D03*
Y6011D02*
D03*
X12914Y6248D02*
D03*
X12891Y6228D02*
D03*
X12942Y6196D02*
D03*
X13007Y5992D02*
D03*
X12790Y8616D02*
D03*
X12716D02*
D03*
X12761Y8163D02*
D03*
X12761Y8356D02*
D03*
X12786Y8283D02*
D03*
X12784Y8474D02*
D03*
X12780Y8033D02*
D03*
X12780Y7968D02*
D03*
X12714Y7716D02*
D03*
X12753D02*
D03*
X12792D02*
D03*
X12832D02*
D03*
X12871D02*
D03*
Y7755D02*
D03*
X12832D02*
D03*
X12792D02*
D03*
X12753D02*
D03*
X12714D02*
D03*
X12753Y7322D02*
D03*
X12832Y7598D02*
D03*
X12714D02*
D03*
X12871Y7716D02*
D03*
Y7755D02*
D03*
X12832Y7047D02*
D03*
X12871Y7401D02*
D03*
X12753Y7165D02*
D03*
X12832Y7244D02*
D03*
Y7283D02*
D03*
Y7322D02*
D03*
Y7126D02*
D03*
X12753Y7598D02*
D03*
Y7637D02*
D03*
Y7755D02*
D03*
X12792Y7677D02*
D03*
X12832Y7637D02*
D03*
Y7677D02*
D03*
X12871Y7637D02*
D03*
Y7677D02*
D03*
X12753D02*
D03*
X12832Y7007D02*
D03*
X12792D02*
D03*
X12753D02*
D03*
Y7047D02*
D03*
Y7086D02*
D03*
Y7126D02*
D03*
Y7204D02*
D03*
X12871Y7480D02*
D03*
X12753Y7440D02*
D03*
Y7401D02*
D03*
Y7362D02*
D03*
X12832Y7480D02*
D03*
X12792D02*
D03*
X12753D02*
D03*
X12832Y7204D02*
D03*
Y7165D02*
D03*
Y7362D02*
D03*
X12871Y7086D02*
D03*
Y7322D02*
D03*
Y7283D02*
D03*
Y7204D02*
D03*
Y7165D02*
D03*
Y7126D02*
D03*
X12832Y7086D02*
D03*
Y7401D02*
D03*
X12871Y7362D02*
D03*
X12792Y7598D02*
D03*
Y7716D02*
D03*
X12832D02*
D03*
X12714Y7480D02*
D03*
Y7519D02*
D03*
Y7559D02*
D03*
Y7677D02*
D03*
Y7637D02*
D03*
Y7637D02*
D03*
X12753Y7283D02*
D03*
X12714Y7795D02*
D03*
X12851Y7874D02*
D03*
X12773Y7870D02*
D03*
X12714Y8474D02*
D03*
X12698Y8360D02*
D03*
Y8163D02*
D03*
X12753Y7795D02*
D03*
X12792D02*
D03*
X12832D02*
D03*
X12871D02*
D03*
X12753Y7559D02*
D03*
X12792D02*
D03*
X12832D02*
D03*
Y7519D02*
D03*
X12871Y7598D02*
D03*
Y7559D02*
D03*
Y7519D02*
D03*
X12745Y8474D02*
D03*
X12729Y8356D02*
D03*
X12800Y8163D02*
D03*
X12729D02*
D03*
X12871Y6811D02*
D03*
X12792Y6811D02*
D03*
X12753Y6850D02*
D03*
X12832Y6811D02*
D03*
X12871Y6692D02*
D03*
X12832D02*
D03*
X12792Y6692D02*
D03*
X12871Y6732D02*
D03*
X12832D02*
D03*
X12792Y6771D02*
D03*
Y6732D02*
D03*
X12832Y6889D02*
D03*
X12847Y5933D02*
D03*
Y5972D02*
D03*
Y6110D02*
D03*
Y6149D02*
D03*
X12824Y5952D02*
D03*
Y5913D02*
D03*
Y6129D02*
D03*
X12714Y6653D02*
D03*
Y6692D02*
D03*
X12710Y6385D02*
D03*
X12826Y6090D02*
D03*
X12871Y6173D02*
D03*
X12678Y8539D02*
D03*
X12664Y8608D02*
D03*
X12603Y8135D02*
D03*
X12651Y8474D02*
D03*
X12635Y8285D02*
D03*
Y8356D02*
D03*
Y8163D02*
D03*
X12631Y8033D02*
D03*
Y7970D02*
D03*
X12588Y8474D02*
D03*
X12572Y8285D02*
D03*
X12540Y8356D02*
D03*
X12572D02*
D03*
X12635Y7677D02*
D03*
X12674Y7755D02*
D03*
X12635D02*
D03*
X12595D02*
D03*
X12556D02*
D03*
X12517D02*
D03*
X12615Y7870D02*
D03*
X12595Y7795D02*
D03*
X12635Y7362D02*
D03*
X12595Y7677D02*
D03*
X12674Y7716D02*
D03*
X12556D02*
D03*
X12635Y7637D02*
D03*
Y7677D02*
D03*
X12556Y7755D02*
D03*
X12674D02*
D03*
X12635Y7440D02*
D03*
X12595Y7362D02*
D03*
X12595Y7007D02*
D03*
X12556D02*
D03*
Y7047D02*
D03*
X12595D02*
D03*
X12595Y7559D02*
D03*
X12674Y7480D02*
D03*
X12635Y7244D02*
D03*
X12595D02*
D03*
X12556D02*
D03*
X12635Y7283D02*
D03*
X12595D02*
D03*
X12556D02*
D03*
X12635Y7322D02*
D03*
X12595D02*
D03*
X12556D02*
D03*
X12595Y7401D02*
D03*
X12556D02*
D03*
X12595Y7440D02*
D03*
X12556D02*
D03*
X12635Y7480D02*
D03*
X12595D02*
D03*
X12556D02*
D03*
X12635Y7519D02*
D03*
X12595D02*
D03*
X12556Y7519D02*
D03*
X12556Y7559D02*
D03*
X12674Y7677D02*
D03*
X12635Y7716D02*
D03*
X12595D02*
D03*
X12556Y7637D02*
D03*
Y7637D02*
D03*
Y7362D02*
D03*
X12595Y7598D02*
D03*
X12674Y7559D02*
D03*
Y7637D02*
D03*
X12635Y7401D02*
D03*
X12595Y7126D02*
D03*
Y7637D02*
D03*
X12556Y7677D02*
D03*
X12595Y7716D02*
D03*
X12674Y7637D02*
D03*
Y7677D02*
D03*
X12635Y7716D02*
D03*
X12517Y7755D02*
D03*
Y7007D02*
D03*
Y7126D02*
D03*
Y7244D02*
D03*
Y7401D02*
D03*
Y7440D02*
D03*
Y7677D02*
D03*
Y7677D02*
D03*
Y7598D02*
D03*
X12517Y7559D02*
D03*
X12517Y7519D02*
D03*
Y7716D02*
D03*
X12517Y7480D02*
D03*
Y7362D02*
D03*
X12517Y7322D02*
D03*
X12509Y8285D02*
D03*
X12497Y8033D02*
D03*
Y7970D02*
D03*
X12674Y7834D02*
D03*
X12635Y7795D02*
D03*
X12540Y8474D02*
D03*
X12619D02*
D03*
X12666Y8356D02*
D03*
X12603D02*
D03*
X12666Y8285D02*
D03*
Y8163D02*
D03*
X12517Y6889D02*
D03*
X12556Y6811D02*
D03*
X12595Y6889D02*
D03*
X12595Y6811D02*
D03*
Y6850D02*
D03*
X12635Y6889D02*
D03*
X12556Y6889D02*
D03*
X12595Y6929D02*
D03*
X12556Y6929D02*
D03*
Y6968D02*
D03*
Y6732D02*
D03*
Y6692D02*
D03*
X12595Y6732D02*
D03*
X12556Y6771D02*
D03*
X12595D02*
D03*
X12595Y6692D02*
D03*
Y6968D02*
D03*
X12635Y6929D02*
D03*
X12635Y6732D02*
D03*
X12674Y6692D02*
D03*
X12635Y6771D02*
D03*
X12674Y6732D02*
D03*
X12635Y6850D02*
D03*
X12635Y6811D02*
D03*
X12674Y6771D02*
D03*
X12635Y6968D02*
D03*
X12556Y6850D02*
D03*
X12674Y6929D02*
D03*
X12662Y6228D02*
D03*
X12682Y6405D02*
D03*
X12643Y6011D02*
D03*
X12662Y6189D02*
D03*
Y6267D02*
D03*
Y6307D02*
D03*
X12686Y6366D02*
D03*
X12662Y6346D02*
D03*
X12666Y6149D02*
D03*
X12643Y6129D02*
D03*
X12619Y6110D02*
D03*
X12595Y6090D02*
D03*
X12572Y6070D02*
D03*
X12548Y6051D02*
D03*
X12619Y5992D02*
D03*
X12595Y5972D02*
D03*
X12572Y5952D02*
D03*
X12548Y5933D02*
D03*
X12690Y6169D02*
D03*
Y6208D02*
D03*
Y6248D02*
D03*
Y6287D02*
D03*
Y6326D02*
D03*
X12525Y6031D02*
D03*
X12521Y5913D02*
D03*
X12517Y6811D02*
D03*
Y6850D02*
D03*
Y6929D02*
D03*
Y6968D02*
D03*
Y6732D02*
D03*
Y6692D02*
D03*
Y6771D02*
D03*
X12361Y8608D02*
D03*
X12334Y8283D02*
D03*
X12412Y8094D02*
D03*
X12477Y8307D02*
D03*
Y8135D02*
D03*
X12485Y8505D02*
D03*
X12477Y8356D02*
D03*
X12466Y8529D02*
D03*
X12446Y8474D02*
D03*
X12434Y8529D02*
D03*
X12446Y8285D02*
D03*
Y8356D02*
D03*
X12414Y8165D02*
D03*
X12403Y8529D02*
D03*
X12383Y8474D02*
D03*
X12359Y8496D02*
D03*
X12340Y8527D02*
D03*
X12347Y8171D02*
D03*
X12438Y7401D02*
D03*
Y7598D02*
D03*
X12395Y7799D02*
D03*
X12477Y7755D02*
D03*
Y7795D02*
D03*
X12438D02*
D03*
Y7838D02*
D03*
X12477Y7716D02*
D03*
X12477Y7480D02*
D03*
X12363Y7559D02*
D03*
X12438Y7007D02*
D03*
Y7165D02*
D03*
X12477Y7047D02*
D03*
Y7007D02*
D03*
Y7440D02*
D03*
Y7519D02*
D03*
Y7677D02*
D03*
Y7677D02*
D03*
Y7244D02*
D03*
Y7165D02*
D03*
X12363Y7244D02*
D03*
X12438Y7322D02*
D03*
X12477Y7598D02*
D03*
X12387Y7500D02*
D03*
X12477Y7322D02*
D03*
X12324Y7913D02*
D03*
X12320Y8474D02*
D03*
X12414Y8330D02*
D03*
X12351Y8356D02*
D03*
X12383D02*
D03*
X12403Y6523D02*
D03*
X12481Y6771D02*
D03*
X12438Y6732D02*
D03*
Y6850D02*
D03*
X12477Y6732D02*
D03*
X12477Y6811D02*
D03*
Y6850D02*
D03*
Y6968D02*
D03*
Y6692D02*
D03*
X12399Y6771D02*
D03*
X12438D02*
D03*
X12477Y6929D02*
D03*
X12438Y6692D02*
D03*
X12332Y6523D02*
D03*
X12296Y8074D02*
D03*
X12286Y8257D02*
D03*
X12229Y8527D02*
D03*
X12267Y8383D02*
D03*
X12245Y8415D02*
D03*
X12151Y7244D02*
D03*
X12265Y7913D02*
D03*
X12127Y7263D02*
D03*
X12271Y8226D02*
D03*
X12271Y8328D02*
D03*
X12247Y8309D02*
D03*
X12273Y8141D02*
D03*
X12294Y8120D02*
D03*
X12078Y8592D02*
D03*
X12078Y8527D02*
D03*
Y8452D02*
D03*
X11997Y7515D02*
D03*
X12056Y7452D02*
D03*
X11922Y7291D02*
D03*
X11942Y6023D02*
D03*
X11938Y6440D02*
D03*
X11942Y6106D02*
D03*
X11954Y6259D02*
D03*
X12074Y6216D02*
D03*
X11749Y6972D02*
D03*
X11769Y7157D02*
D03*
X11765Y7192D02*
D03*
X11773Y7118D02*
D03*
X11780Y7078D02*
D03*
X11761Y7474D02*
D03*
Y7407D02*
D03*
Y7438D02*
D03*
X11823Y6228D02*
D03*
X11800Y6909D02*
D03*
X11863Y6236D02*
D03*
X11899Y6503D02*
D03*
X11832Y5968D02*
D03*
Y6066D02*
D03*
X11859Y6275D02*
D03*
X11903Y6212D02*
D03*
X11867Y6051D02*
D03*
X11800Y6440D02*
D03*
X11832Y6952D02*
D03*
X11560Y7433D02*
D03*
X11674Y7464D02*
D03*
X11566Y7584D02*
D03*
X11567Y7102D02*
D03*
X11710Y6015D02*
D03*
X11609Y6020D02*
D03*
X11710Y6129D02*
D03*
X11556Y6917D02*
D03*
X11712Y5933D02*
D03*
X11559Y6338D02*
D03*
X11584Y6806D02*
D03*
X11591Y6837D02*
D03*
X11521Y6964D02*
D03*
Y6838D02*
D03*
X11609Y6071D02*
D03*
X11509Y6807D02*
D03*
X11442Y7023D02*
D03*
Y7515D02*
D03*
X11332Y7874D02*
D03*
X11485Y6106D02*
D03*
X11261Y7874D02*
D03*
X11261Y8070D02*
D03*
X11162Y7027D02*
D03*
Y7503D02*
D03*
X11214Y7370D02*
D03*
X11237Y7472D02*
D03*
Y7397D02*
D03*
X11265Y7366D02*
D03*
X11237Y7015D02*
D03*
X11162Y7421D02*
D03*
X11308Y7586D02*
D03*
Y7102D02*
D03*
X11135Y7503D02*
D03*
Y7027D02*
D03*
X11214Y6893D02*
D03*
X11162Y6940D02*
D03*
X11237Y6917D02*
D03*
X11265Y6893D02*
D03*
X10962Y8204D02*
D03*
X11110Y8163D02*
D03*
X11123Y7370D02*
D03*
X11029Y7440D02*
D03*
X11111Y7161D02*
D03*
X11111Y7638D02*
D03*
X10996Y7338D02*
D03*
X11032Y6984D02*
D03*
X11119Y7220D02*
D03*
X11111Y7685D02*
D03*
X11056Y6186D02*
D03*
X11048Y6307D02*
D03*
X10996Y6880D02*
D03*
X11123Y6893D02*
D03*
X11083Y6338D02*
D03*
X10944Y5952D02*
D03*
X10934Y6020D02*
D03*
X10808Y7185D02*
D03*
X10800Y7110D02*
D03*
X10804Y7047D02*
D03*
X10769Y7409D02*
D03*
Y6952D02*
D03*
X10229Y7224D02*
D03*
X10190Y7082D02*
D03*
X10151D02*
D03*
X10165Y6061D02*
D03*
X10032Y7082D02*
D03*
X9993D02*
D03*
X10111Y7082D02*
D03*
X10072Y7082D02*
D03*
X9954Y7224D02*
D03*
X9836Y7082D02*
D03*
X9796D02*
D03*
X9914D02*
D03*
X9875D02*
D03*
X9757Y7082D02*
D03*
X9651Y8293D02*
D03*
X9580Y8085D02*
D03*
X9678Y7224D02*
D03*
X9639Y7082D02*
D03*
X9599Y7082D02*
D03*
X9717Y7082D02*
D03*
X9560D02*
D03*
X9560Y6405D02*
D03*
X9674Y6689D02*
D03*
X9717Y6397D02*
D03*
Y6334D02*
D03*
X9717Y6366D02*
D03*
X9717Y6460D02*
D03*
X9674Y6763D02*
D03*
X9717Y6500D02*
D03*
X9717Y6429D02*
D03*
X9563Y6331D02*
D03*
Y6299D02*
D03*
Y6362D02*
D03*
X9509Y8293D02*
D03*
X9403Y7224D02*
D03*
X9481Y7082D02*
D03*
X9442D02*
D03*
X9521D02*
D03*
X9414Y6510D02*
D03*
X9544Y6200D02*
D03*
X9511D02*
D03*
X9481D02*
D03*
X9447D02*
D03*
X9417D02*
D03*
X9446Y6310D02*
D03*
X9478Y6532D02*
D03*
X9383Y6533D02*
D03*
X9385Y6200D02*
D03*
X9369Y6821D02*
D03*
X9206Y7224D02*
D03*
X9284Y7082D02*
D03*
X9245D02*
D03*
X9324D02*
D03*
X9363Y7082D02*
D03*
X9221Y6391D02*
D03*
X9222Y6296D02*
D03*
X9221Y6455D02*
D03*
X9311Y6485D02*
D03*
X9336Y6301D02*
D03*
X9323Y6190D02*
D03*
X9268Y6214D02*
D03*
X9088Y7224D02*
D03*
X9127Y7094D02*
D03*
X9166D02*
D03*
X9162Y6355D02*
D03*
X8949Y6067D02*
D03*
X8294Y6399D02*
D03*
X8143Y6185D02*
D03*
X8172Y6366D02*
D03*
X7849Y8302D02*
D03*
X7871Y6594D02*
D03*
X7822D02*
D03*
X7922Y6594D02*
D03*
X7778Y8096D02*
D03*
X7687Y8302D02*
D03*
X6445Y6442D02*
D03*
X6270Y6912D02*
D03*
X6362Y6790D02*
D03*
X6251Y5933D02*
D03*
X6210Y6381D02*
D03*
X6030Y5929D02*
D03*
X5561Y8035D02*
D03*
X5321Y7534D02*
D03*
X5294Y7036D02*
D03*
X5266Y7113D02*
D03*
X5155Y7508D02*
D03*
X5242Y7063D02*
D03*
X5187Y7088D02*
D03*
X5218Y7140D02*
D03*
X5116Y7011D02*
D03*
X5072Y7558D02*
D03*
X4990Y8031D02*
D03*
X5039Y7584D02*
D03*
Y7614D02*
D03*
X5038Y7354D02*
D03*
X5039Y7165D02*
D03*
Y7217D02*
D03*
Y6935D02*
D03*
X4748Y7354D02*
D03*
X4853Y7593D02*
D03*
X4845Y8122D02*
D03*
X4846Y7982D02*
D03*
X4751Y6935D02*
D03*
X4614Y7219D02*
D03*
X4579Y7534D02*
D03*
X4592Y8015D02*
D03*
D32*
X13383Y7169D02*
D03*
X13343D02*
D03*
Y7244D02*
D03*
X13304D02*
D03*
D35*
X14511Y6140D02*
X14521D01*
Y6849D02*
X14511D01*
Y7557D02*
X14521D01*
Y8267D02*
X14511D01*
D45*
X14463Y8540D02*
D03*
X9778Y8201D02*
D03*
X9436Y8210D02*
D03*
X7986Y8209D02*
D03*
X7621Y8208D02*
D03*
D58*
X11173Y7836D02*
D03*
Y7896D02*
D03*
Y7956D02*
D03*
Y8016D02*
D03*
X10993Y7956D02*
D03*
Y7896D02*
D03*
Y7836D02*
D03*
X11053D02*
D03*
Y7896D02*
D03*
Y8016D02*
D03*
X11113D02*
D03*
Y7896D02*
D03*
Y7836D02*
D03*
X11053Y7956D02*
D03*
X11113D02*
D03*
X10933D02*
D03*
Y7896D02*
D03*
Y7836D02*
D03*
Y8016D02*
D03*
X10993D02*
D03*
X10873Y7836D02*
D03*
Y7896D02*
D03*
Y7956D02*
D03*
Y8016D02*
D03*
X9599Y8047D02*
D03*
X9654D02*
D03*
X9710D02*
D03*
X9599Y7992D02*
D03*
X9654D02*
D03*
X9599Y7937D02*
D03*
X9710Y7992D02*
D03*
X9654Y7937D02*
D03*
X9710D02*
D03*
Y7881D02*
D03*
X9654D02*
D03*
X9599D02*
D03*
X9489Y8047D02*
D03*
X9544D02*
D03*
X9489Y7992D02*
D03*
X9544D02*
D03*
X9489Y7937D02*
D03*
X9544D02*
D03*
X9489Y7881D02*
D03*
X9544D02*
D03*
X7812Y8055D02*
D03*
X7922Y8055D02*
D03*
X7812Y8000D02*
D03*
X7867D02*
D03*
X7922D02*
D03*
X7812Y7944D02*
D03*
X7867D02*
D03*
X7922D02*
D03*
X7867Y7889D02*
D03*
X7922D02*
D03*
X7867Y8055D02*
D03*
X7812Y7889D02*
D03*
X7647Y8000D02*
D03*
X7702D02*
D03*
X7757D02*
D03*
X7647Y7944D02*
D03*
X7702D02*
D03*
X7757D02*
D03*
X7647Y7889D02*
D03*
X7702D02*
D03*
X7757D02*
D03*
X7647Y8055D02*
D03*
X7702D02*
D03*
X7757D02*
D03*
X6853Y6846D02*
D03*
X6923D02*
D03*
Y6776D02*
D03*
X6853D02*
D03*
Y6706D02*
D03*
X6923D02*
D03*
X6853Y6636D02*
D03*
X6923D02*
D03*
Y6916D02*
D03*
Y6566D02*
D03*
X6853D02*
D03*
Y6916D02*
D03*
X6713Y6846D02*
D03*
X6783D02*
D03*
Y6776D02*
D03*
X6713D02*
D03*
Y6706D02*
D03*
X6783D02*
D03*
X6713Y6636D02*
D03*
X6783D02*
D03*
X6713Y6566D02*
D03*
X6783D02*
D03*
X6713Y6916D02*
D03*
X6783D02*
D03*
X6643Y6846D02*
D03*
Y6776D02*
D03*
Y6706D02*
D03*
Y6636D02*
D03*
Y6566D02*
D03*
Y6916D02*
D03*
X6573Y6566D02*
D03*
Y6636D02*
D03*
Y6706D02*
D03*
Y6776D02*
D03*
Y6916D02*
D03*
Y6846D02*
D03*
D68*
X13058Y6147D02*
D03*
X7247Y7267D02*
D03*
X7331Y6806D02*
D03*
X8671Y6448D02*
D03*
X8571D02*
D03*
Y6370D02*
D03*
X8671D02*
D03*
D70*
X9269Y6711D02*
D03*
X9469D02*
D03*
X4270Y7304D02*
D03*
Y7704D02*
D03*
X4370Y6754D02*
D03*
X4270Y6804D02*
D03*
X4370Y6854D02*
D03*
X4270Y6904D02*
D03*
X4370Y6954D02*
D03*
X4270Y7004D02*
D03*
X4370Y7054D02*
D03*
X4270Y7104D02*
D03*
X4370Y7154D02*
D03*
X4270Y7204D02*
D03*
X4370Y7254D02*
D03*
Y7354D02*
D03*
X4270Y7404D02*
D03*
X4370Y7454D02*
D03*
X4270Y7504D02*
D03*
X4370Y7554D02*
D03*
X4270Y7604D02*
D03*
X4370Y7654D02*
D03*
D75*
X10403Y6468D02*
D03*
X10241Y6464D02*
D03*
X10162Y6578D02*
D03*
X10320D02*
D03*
X6194Y6702D02*
D03*
Y6842D02*
D03*
D79*
X11184Y6464D02*
D03*
X11284D02*
D03*
X11384D02*
D03*
X11484D02*
D03*
X11584D02*
D03*
X11684D02*
D03*
X9482Y5934D02*
D03*
X9382Y6034D02*
D03*
Y5934D02*
D03*
X9282D02*
D03*
Y6034D02*
D03*
X9182D02*
D03*
Y5934D02*
D03*
X9482Y6034D02*
D03*
X9582Y5934D02*
D03*
X6898Y7348D02*
D03*
X6898Y7131D02*
D03*
D83*
X13887Y7962D02*
X13888D01*
X13887D02*
X13888Y7947D01*
X13891Y7933D01*
X13897Y7919D01*
X13904Y7907D01*
X13913Y7895D01*
X13924Y7885D01*
X13936Y7877D01*
X13949Y7871D01*
X13963Y7866D01*
X13978Y7864D01*
X13992D01*
X14007Y7866D01*
X14021Y7871D01*
X14034Y7877D01*
X14046Y7885D01*
X14057Y7895D01*
X14066Y7907D01*
X14073Y7919D01*
X14079Y7933D01*
X14082Y7947D01*
X14083Y7962D01*
X14084D01*
X14083D02*
X14082Y7977D01*
X14079Y7991D01*
X14073Y8005D01*
X14066Y8017D01*
X14057Y8029D01*
X14046Y8039D01*
X14034Y8047D01*
X14021Y8053D01*
X14007Y8058D01*
X13992Y8060D01*
X13978D01*
X13963Y8058D01*
X13949Y8053D01*
X13936Y8047D01*
X13924Y8039D01*
X13913Y8029D01*
X13904Y8017D01*
X13897Y8005D01*
X13891Y7991D01*
X13888Y7977D01*
X13887Y7962D01*
X13964D02*
X13965D01*
X13964D02*
X13965Y7955D01*
X13969Y7948D01*
X13974Y7943D01*
X13981Y7941D01*
X13989D01*
X13996Y7943D01*
X14001Y7948D01*
X14005Y7955D01*
X14006Y7962D01*
X14007D01*
X14006D02*
X14005Y7969D01*
X14001Y7976D01*
X13996Y7981D01*
X13989Y7983D01*
X13981D01*
X13974Y7981D01*
X13969Y7976D01*
X13965Y7969D01*
X13964Y7962D01*
X13887Y6545D02*
X13888D01*
X13887D02*
X13888Y6530D01*
X13891Y6516D01*
X13897Y6502D01*
X13904Y6490D01*
X13913Y6478D01*
X13924Y6468D01*
X13936Y6460D01*
X13949Y6454D01*
X13963Y6449D01*
X13978Y6447D01*
X13992D01*
X14007Y6449D01*
X14021Y6454D01*
X14034Y6460D01*
X14046Y6468D01*
X14057Y6478D01*
X14066Y6490D01*
X14073Y6502D01*
X14079Y6516D01*
X14082Y6530D01*
X14083Y6545D01*
X14084D01*
X14083D02*
X14082Y6560D01*
X14079Y6574D01*
X14073Y6588D01*
X14066Y6600D01*
X14057Y6612D01*
X14046Y6622D01*
X14034Y6630D01*
X14021Y6636D01*
X14007Y6641D01*
X13992Y6643D01*
X13978D01*
X13963Y6641D01*
X13949Y6636D01*
X13936Y6630D01*
X13924Y6622D01*
X13913Y6612D01*
X13904Y6600D01*
X13897Y6588D01*
X13891Y6574D01*
X13888Y6560D01*
X13887Y6545D01*
X13964D02*
X13965D01*
X13964D02*
X13965Y6538D01*
X13969Y6531D01*
X13974Y6526D01*
X13981Y6524D01*
X13989D01*
X13996Y6526D01*
X14001Y6531D01*
X14005Y6538D01*
X14006Y6545D01*
X14007D01*
X14006D02*
X14005Y6552D01*
X14001Y6559D01*
X13996Y6564D01*
X13989Y6566D01*
X13981D01*
X13974Y6564D01*
X13969Y6559D01*
X13965Y6552D01*
X13964Y6545D01*
X9793Y7962D02*
X9794D01*
X9793D02*
X9794Y7947D01*
X9797Y7933D01*
X9803Y7919D01*
X9810Y7907D01*
X9819Y7895D01*
X9830Y7885D01*
X9842Y7877D01*
X9855Y7871D01*
X9869Y7866D01*
X9884Y7864D01*
X9898D01*
X9913Y7866D01*
X9927Y7871D01*
X9940Y7877D01*
X9952Y7885D01*
X9963Y7895D01*
X9972Y7907D01*
X9979Y7919D01*
X9985Y7933D01*
X9988Y7947D01*
X9989Y7962D01*
X9990D01*
X9989D02*
X9988Y7977D01*
X9985Y7991D01*
X9979Y8005D01*
X9972Y8017D01*
X9963Y8029D01*
X9952Y8039D01*
X9940Y8047D01*
X9927Y8053D01*
X9913Y8058D01*
X9898Y8060D01*
X9884D01*
X9869Y8058D01*
X9855Y8053D01*
X9842Y8047D01*
X9830Y8039D01*
X9819Y8029D01*
X9810Y8017D01*
X9803Y8005D01*
X9797Y7991D01*
X9794Y7977D01*
X9793Y7962D01*
X9870D02*
X9871D01*
X9870D02*
X9871Y7955D01*
X9875Y7948D01*
X9880Y7943D01*
X9887Y7941D01*
X9895D01*
X9902Y7943D01*
X9907Y7948D01*
X9911Y7955D01*
X9912Y7962D01*
X9913D01*
X9912D02*
X9911Y7969D01*
X9907Y7976D01*
X9902Y7981D01*
X9895Y7983D01*
X9887D01*
X9880Y7981D01*
X9875Y7976D01*
X9871Y7969D01*
X9870Y7962D01*
X9793Y6545D02*
X9794D01*
X9793D02*
X9794Y6530D01*
X9797Y6516D01*
X9803Y6502D01*
X9810Y6490D01*
X9819Y6478D01*
X9830Y6468D01*
X9842Y6460D01*
X9855Y6454D01*
X9869Y6449D01*
X9884Y6447D01*
X9898D01*
X9913Y6449D01*
X9927Y6454D01*
X9940Y6460D01*
X9952Y6468D01*
X9963Y6478D01*
X9972Y6490D01*
X9979Y6502D01*
X9985Y6516D01*
X9988Y6530D01*
X9989Y6545D01*
X9990D01*
X9989D02*
X9988Y6560D01*
X9985Y6574D01*
X9979Y6588D01*
X9972Y6600D01*
X9963Y6612D01*
X9952Y6622D01*
X9940Y6630D01*
X9927Y6636D01*
X9913Y6641D01*
X9898Y6643D01*
X9884D01*
X9869Y6641D01*
X9855Y6636D01*
X9842Y6630D01*
X9830Y6622D01*
X9819Y6612D01*
X9810Y6600D01*
X9803Y6588D01*
X9797Y6574D01*
X9794Y6560D01*
X9793Y6545D01*
X9870D02*
X9871D01*
X9870D02*
X9871Y6538D01*
X9875Y6531D01*
X9880Y6526D01*
X9887Y6524D01*
X9895D01*
X9902Y6526D01*
X9907Y6531D01*
X9911Y6538D01*
X9912Y6545D01*
X9913D01*
X9912D02*
X9911Y6552D01*
X9907Y6559D01*
X9902Y6564D01*
X9895Y6566D01*
X9887D01*
X9880Y6564D01*
X9875Y6559D01*
X9871Y6552D01*
X9870Y6545D01*
X7371Y7962D02*
X7372D01*
X7371D02*
X7372Y7947D01*
X7375Y7933D01*
X7381Y7919D01*
X7388Y7907D01*
X7397Y7895D01*
X7408Y7885D01*
X7420Y7877D01*
X7433Y7871D01*
X7447Y7866D01*
X7462Y7864D01*
X7476D01*
X7491Y7866D01*
X7505Y7871D01*
X7518Y7877D01*
X7530Y7885D01*
X7541Y7895D01*
X7550Y7907D01*
X7557Y7919D01*
X7563Y7933D01*
X7566Y7947D01*
X7567Y7962D01*
X7568D01*
X7567D02*
X7566Y7977D01*
X7563Y7991D01*
X7557Y8005D01*
X7550Y8017D01*
X7541Y8029D01*
X7530Y8039D01*
X7518Y8047D01*
X7505Y8053D01*
X7491Y8058D01*
X7476Y8060D01*
X7462D01*
X7447Y8058D01*
X7433Y8053D01*
X7420Y8047D01*
X7408Y8039D01*
X7397Y8029D01*
X7388Y8017D01*
X7381Y8005D01*
X7375Y7991D01*
X7372Y7977D01*
X7371Y7962D01*
X7448D02*
X7449D01*
X7448D02*
X7449Y7955D01*
X7453Y7948D01*
X7458Y7943D01*
X7465Y7941D01*
X7473D01*
X7480Y7943D01*
X7485Y7948D01*
X7489Y7955D01*
X7490Y7962D01*
X7491D01*
X7490D02*
X7489Y7969D01*
X7485Y7976D01*
X7480Y7981D01*
X7473Y7983D01*
X7465D01*
X7458Y7981D01*
X7453Y7976D01*
X7449Y7969D01*
X7448Y7962D01*
X7371Y6545D02*
X7372D01*
X7371D02*
X7372Y6530D01*
X7375Y6516D01*
X7381Y6502D01*
X7388Y6490D01*
X7397Y6478D01*
X7408Y6468D01*
X7420Y6460D01*
X7433Y6454D01*
X7447Y6449D01*
X7462Y6447D01*
X7476D01*
X7491Y6449D01*
X7505Y6454D01*
X7518Y6460D01*
X7530Y6468D01*
X7541Y6478D01*
X7550Y6490D01*
X7557Y6502D01*
X7563Y6516D01*
X7566Y6530D01*
X7567Y6545D01*
X7568D01*
X7567D02*
X7566Y6560D01*
X7563Y6574D01*
X7557Y6588D01*
X7550Y6600D01*
X7541Y6612D01*
X7530Y6622D01*
X7518Y6630D01*
X7505Y6636D01*
X7491Y6641D01*
X7476Y6643D01*
X7462D01*
X7447Y6641D01*
X7433Y6636D01*
X7420Y6630D01*
X7408Y6622D01*
X7397Y6612D01*
X7388Y6600D01*
X7381Y6588D01*
X7375Y6574D01*
X7372Y6560D01*
X7371Y6545D01*
X7448D02*
X7449D01*
X7448D02*
X7449Y6538D01*
X7453Y6531D01*
X7458Y6526D01*
X7465Y6524D01*
X7473D01*
X7480Y6526D01*
X7485Y6531D01*
X7489Y6538D01*
X7490Y6545D01*
X7491D01*
X7490D02*
X7489Y6552D01*
X7485Y6559D01*
X7480Y6564D01*
X7473Y6566D01*
X7465D01*
X7458Y6564D01*
X7453Y6559D01*
X7449Y6552D01*
X7448Y6545D01*
X4222Y7962D02*
X4223D01*
X4222D02*
X4223Y7947D01*
X4226Y7933D01*
X4232Y7919D01*
X4239Y7907D01*
X4248Y7895D01*
X4259Y7885D01*
X4271Y7877D01*
X4284Y7871D01*
X4298Y7866D01*
X4313Y7864D01*
X4327D01*
X4342Y7866D01*
X4356Y7871D01*
X4369Y7877D01*
X4381Y7885D01*
X4392Y7895D01*
X4401Y7907D01*
X4408Y7919D01*
X4414Y7933D01*
X4417Y7947D01*
X4418Y7962D01*
X4419D01*
X4418D02*
X4417Y7977D01*
X4414Y7991D01*
X4408Y8005D01*
X4401Y8017D01*
X4392Y8029D01*
X4381Y8039D01*
X4369Y8047D01*
X4356Y8053D01*
X4342Y8058D01*
X4327Y8060D01*
X4313D01*
X4298Y8058D01*
X4284Y8053D01*
X4271Y8047D01*
X4259Y8039D01*
X4248Y8029D01*
X4239Y8017D01*
X4232Y8005D01*
X4226Y7991D01*
X4223Y7977D01*
X4222Y7962D01*
X4299D02*
X4300D01*
X4299D02*
X4300Y7955D01*
X4304Y7948D01*
X4309Y7943D01*
X4316Y7941D01*
X4324D01*
X4331Y7943D01*
X4336Y7948D01*
X4340Y7955D01*
X4341Y7962D01*
X4342D01*
X4341D02*
X4340Y7969D01*
X4336Y7976D01*
X4331Y7981D01*
X4324Y7983D01*
X4316D01*
X4309Y7981D01*
X4304Y7976D01*
X4300Y7969D01*
X4299Y7962D01*
X4222Y6545D02*
X4223D01*
X4222D02*
X4223Y6530D01*
X4226Y6516D01*
X4232Y6502D01*
X4239Y6490D01*
X4248Y6478D01*
X4259Y6468D01*
X4271Y6460D01*
X4284Y6454D01*
X4298Y6449D01*
X4313Y6447D01*
X4327D01*
X4342Y6449D01*
X4356Y6454D01*
X4369Y6460D01*
X4381Y6468D01*
X4392Y6478D01*
X4401Y6490D01*
X4408Y6502D01*
X4414Y6516D01*
X4417Y6530D01*
X4418Y6545D01*
X4419D01*
X4418D02*
X4417Y6560D01*
X4414Y6574D01*
X4408Y6588D01*
X4401Y6600D01*
X4392Y6612D01*
X4381Y6622D01*
X4369Y6630D01*
X4356Y6636D01*
X4342Y6641D01*
X4327Y6643D01*
X4313D01*
X4298Y6641D01*
X4284Y6636D01*
X4271Y6630D01*
X4259Y6622D01*
X4248Y6612D01*
X4239Y6600D01*
X4232Y6588D01*
X4226Y6574D01*
X4223Y6560D01*
X4222Y6545D01*
X4299D02*
X4300D01*
X4299D02*
X4300Y6538D01*
X4304Y6531D01*
X4309Y6526D01*
X4316Y6524D01*
X4324D01*
X4331Y6526D01*
X4336Y6531D01*
X4340Y6538D01*
X4341Y6545D01*
X4342D01*
X4341D02*
X4340Y6552D01*
X4336Y6559D01*
X4331Y6564D01*
X4324Y6566D01*
X4316D01*
X4309Y6564D01*
X4304Y6559D01*
X4300Y6552D01*
X4299Y6545D01*
D84*
X7414Y5926D02*
D03*
X7524D02*
D03*
X7634D02*
D03*
X7743D02*
D03*
X7799Y6038D02*
D03*
X7688D02*
D03*
X7579D02*
D03*
X7471D02*
D03*
X7362D02*
D03*
D85*
X4342Y7760D02*
D03*
D94*
X8383Y6263D02*
D03*
X8859D02*
D03*
D97*
X8071Y5981D02*
D03*
X7087D02*
D03*
D100*
X13960Y6096D02*
Y6120D01*
D113*
X13979Y6106D02*
X14004D01*
D114*
X15016Y8552D02*
D03*
X14946D02*
D03*
X15016Y7134D02*
D03*
X14946D02*
D03*
Y7842D02*
D03*
X15016D02*
D03*
X14861Y7557D02*
D03*
X14931D02*
D03*
Y8267D02*
D03*
X14861D02*
D03*
X15016Y6425D02*
D03*
X14946D02*
D03*
X14931Y6140D02*
D03*
X14861D02*
D03*
X14931Y6849D02*
D03*
X14861D02*
D03*
X13265Y7451D02*
D03*
X13335D02*
D03*
X13529Y8066D02*
D03*
X13599D02*
D03*
X13880Y8328D02*
D03*
X13950D02*
D03*
X14541Y7592D02*
D03*
X14611D02*
D03*
X14421Y7557D02*
D03*
X14491D02*
D03*
X14541Y7522D02*
D03*
X14611D02*
D03*
Y8232D02*
D03*
X14541D02*
D03*
X14491Y8267D02*
D03*
X14421D02*
D03*
X14611Y8302D02*
D03*
X14541D02*
D03*
X13221Y7535D02*
D03*
X13151D02*
D03*
X13178Y7240D02*
D03*
X13108D02*
D03*
X13178Y7318D02*
D03*
X13108D02*
D03*
X13103Y7023D02*
D03*
X13033D02*
D03*
X13529Y7996D02*
D03*
X13599D02*
D03*
X13529Y8216D02*
D03*
X13599D02*
D03*
X13529Y8145D02*
D03*
X13599D02*
D03*
X13529Y8287D02*
D03*
X13599D02*
D03*
X13529Y8358D02*
D03*
X13599D02*
D03*
X13529Y8425D02*
D03*
X13599D02*
D03*
X13529Y8492D02*
D03*
X13599D02*
D03*
X13862Y6106D02*
D03*
X13932D02*
D03*
X14491Y6849D02*
D03*
X14421D02*
D03*
X14611Y6175D02*
D03*
X14541D02*
D03*
X14491Y6140D02*
D03*
X14421D02*
D03*
X14611Y6105D02*
D03*
X14541D02*
D03*
X14611Y6884D02*
D03*
X14541D02*
D03*
X14611Y6814D02*
D03*
X14541D02*
D03*
X13253Y6929D02*
D03*
X13183D02*
D03*
X13592Y6405D02*
D03*
X13662D02*
D03*
X13592Y6334D02*
D03*
X13662D02*
D03*
X13592Y6255D02*
D03*
X13662D02*
D03*
X13592Y6185D02*
D03*
X13662D02*
D03*
X13592Y6114D02*
D03*
X13662D02*
D03*
X13592Y6043D02*
D03*
X13662D02*
D03*
X13592Y5976D02*
D03*
X13662D02*
D03*
X13592Y5909D02*
D03*
X13662D02*
D03*
X12595Y8033D02*
D03*
X12532D02*
D03*
X12741D02*
D03*
X12671D02*
D03*
X12922Y8165D02*
D03*
X12852D02*
D03*
X12918Y8324D02*
D03*
X12848D02*
D03*
X12443Y8220D02*
D03*
X12513D02*
D03*
X12595Y7970D02*
D03*
X12532D02*
D03*
X12741Y7970D02*
D03*
X12671D02*
D03*
X12332Y7838D02*
D03*
X12262D02*
D03*
X12946Y7023D02*
D03*
X12876D02*
D03*
X12871Y7240D02*
D03*
X12801D02*
D03*
X12871Y7318D02*
D03*
X12801D02*
D03*
X12065Y7515D02*
D03*
X12135D02*
D03*
X12104Y7452D02*
D03*
X12174D02*
D03*
X13021Y6929D02*
D03*
X12951D02*
D03*
X12828D02*
D03*
X12758D02*
D03*
X10033Y6316D02*
D03*
X9963D02*
D03*
Y6256D02*
D03*
X10033D02*
D03*
Y6196D02*
D03*
X9963D02*
D03*
Y6376D02*
D03*
X10033D02*
D03*
X9863Y6283D02*
D03*
X9793D02*
D03*
X6073Y5931D02*
D03*
X6143D02*
D03*
X6073Y6009D02*
D03*
X6143D02*
D03*
D118*
X10698Y8492D02*
D03*
X10619D02*
D03*
X10339Y5931D02*
D03*
X10812Y6010D02*
D03*
Y5931D02*
D03*
X10733Y6010D02*
D03*
Y5931D02*
D03*
X10654Y6010D02*
D03*
Y5931D02*
D03*
X10576Y6010D02*
D03*
Y5931D02*
D03*
X10497Y6010D02*
D03*
Y5931D02*
D03*
X10418Y6010D02*
D03*
Y5931D02*
D03*
X10339Y6010D02*
D03*
D122*
X14686Y7497D02*
D03*
Y7427D02*
D03*
Y8137D02*
D03*
Y8207D02*
D03*
Y6010D02*
D03*
Y6080D02*
D03*
Y6719D02*
D03*
Y6789D02*
D03*
X13320Y7027D02*
D03*
Y6957D02*
D03*
X13599Y7846D02*
D03*
Y7916D02*
D03*
X13064Y7433D02*
D03*
Y7363D02*
D03*
X12694Y7437D02*
D03*
Y7367D02*
D03*
X12914Y7433D02*
D03*
Y7363D02*
D03*
X12694Y7245D02*
D03*
Y7315D02*
D03*
X12729Y8513D02*
D03*
Y8583D02*
D03*
X12793Y8513D02*
D03*
Y8583D02*
D03*
X12676Y6960D02*
D03*
Y7030D02*
D03*
X12737Y6177D02*
D03*
Y6107D02*
D03*
X6303Y6766D02*
D03*
Y6836D02*
D03*
D130*
X9800Y6355D02*
D03*
X9890D02*
D03*
D140*
X10162Y6334D02*
D03*
Y6244D02*
D03*
X10241D02*
D03*
Y6334D02*
D03*
X10320D02*
D03*
Y6244D02*
D03*
X10399D02*
D03*
Y6334D02*
D03*
D146*
X11084Y6464D02*
D03*
X9582Y6034D02*
D03*
D156*
X15628Y7765D02*
X15817D01*
Y7451D02*
X15628D01*
Y8160D02*
X15817D01*
Y8474D02*
X15628D01*
Y6742D02*
X15817D01*
Y7056D02*
X15628D01*
Y6033D02*
X15817D01*
Y6347D02*
X15628D01*
D174*
X13986Y7929D02*
X14012D01*
Y7996D01*
X13986D01*
Y7929D01*
X13984Y6524D02*
X14037D01*
Y6581D01*
X13984D01*
Y6524D01*
X9866Y7936D02*
X9917D01*
Y7989D01*
X9866D01*
Y7936D01*
X7437Y7938D02*
X7500D01*
Y7981D01*
X7437D01*
Y7938D01*
D02*
M02*
