*%FSLAX23Y23*%
*%MOIN*%
G01*
D11*
X11253Y8727D02*
X11283D01*
X11268Y8712D02*
Y8742D01*
X11253Y7310D02*
X11283D01*
X11268Y7295D02*
Y7325D01*
X7189Y8727D02*
X7159D01*
X7174Y8712D02*
Y8742D01*
X7159Y7310D02*
X7189D01*
X7174Y7295D02*
Y7325D01*
X12566Y7091D02*
X12586D01*
X12576Y7081D02*
Y7101D01*
X12566Y9206D02*
X12586D01*
X12576Y9196D02*
Y9216D01*
X12581Y8496D02*
X12561D01*
X12571Y8486D02*
Y8506D01*
X12566Y7791D02*
X12586D01*
X12576Y7781D02*
Y7801D01*
X12336Y7541D02*
X12316D01*
X12326Y7531D02*
Y7551D01*
X12316Y6836D02*
X12336D01*
X12326Y6826D02*
Y6846D01*
X12446Y7496D02*
X12466D01*
X12456Y7486D02*
Y7506D01*
X12446Y7356D02*
X12466D01*
X12456Y7346D02*
Y7366D01*
X12406Y6816D02*
X12386D01*
X12396Y6806D02*
Y6826D01*
X12416Y6791D02*
X12436D01*
X12426Y6781D02*
Y6801D01*
X12446Y6766D02*
X12466D01*
X12456Y6756D02*
Y6776D01*
X12476Y6741D02*
X12496D01*
X12486Y6731D02*
Y6751D01*
X12476Y7091D02*
X12496D01*
X12486Y7081D02*
Y7101D01*
X12481Y7136D02*
X12501D01*
X12491Y7126D02*
Y7146D01*
Y8496D02*
X12471D01*
X12481Y8486D02*
Y8506D01*
X12476Y7791D02*
X12496D01*
X12486Y7781D02*
Y7801D01*
X12436Y8576D02*
X12416D01*
X12426Y8566D02*
Y8586D01*
X12416Y8926D02*
X12436D01*
X12426Y8916D02*
Y8936D01*
X12466Y8796D02*
X12486D01*
X12476Y8786D02*
Y8806D01*
Y9206D02*
X12496D01*
X12486Y9196D02*
Y9216D01*
X12196Y8901D02*
X12176D01*
X12186Y8891D02*
Y8911D01*
X12221Y7186D02*
X12241D01*
X12231Y7176D02*
Y7196D01*
X12196Y7406D02*
X12176D01*
X12186Y7396D02*
Y7416D01*
X12151Y7291D02*
X12131D01*
X12141Y7281D02*
Y7301D01*
X12266Y8901D02*
X12286D01*
X12276Y8891D02*
Y8911D01*
X12311Y8246D02*
X12331D01*
X12321Y8236D02*
Y8256D01*
X12191Y8186D02*
X12171D01*
X12181Y8176D02*
Y8196D01*
X12281Y8846D02*
X12301D01*
X12291Y8836D02*
Y8856D01*
X12226Y8646D02*
X12206D01*
X12216Y8636D02*
Y8656D01*
X12196Y6776D02*
X12176D01*
X12186Y6766D02*
Y6786D01*
X11941Y9041D02*
X11921D01*
X11931Y9031D02*
Y9051D01*
X11921Y7691D02*
X11941D01*
X11931Y7681D02*
Y7701D01*
X11921Y6921D02*
X11941D01*
X11931Y6911D02*
Y6931D01*
X11921Y8331D02*
X11941D01*
X11931Y8321D02*
Y8341D01*
X11601Y7867D02*
X11581D01*
X11591Y7857D02*
Y7877D01*
X11576Y9216D02*
X11556D01*
X11566Y9206D02*
Y9226D01*
X11556Y8756D02*
X11536D01*
X11546Y8746D02*
Y8766D01*
X11636Y7541D02*
X11656D01*
X11646Y7531D02*
Y7551D01*
X11576Y8511D02*
X11556D01*
X11566Y8501D02*
Y8521D01*
X11636Y8191D02*
X11656D01*
X11646Y8181D02*
Y8201D01*
X11636Y7271D02*
X11656D01*
X11646Y7261D02*
Y7281D01*
X11626Y7096D02*
X11606D01*
X11616Y7086D02*
Y7106D01*
X11496Y8896D02*
X11476D01*
X11486Y8886D02*
Y8906D01*
X11456Y7561D02*
X11436D01*
X11446Y7551D02*
Y7571D01*
Y8191D02*
X11466D01*
X11456Y8181D02*
Y8201D01*
X11381Y7096D02*
X11361D01*
X11371Y7086D02*
Y7106D01*
X11501Y9066D02*
X11521D01*
X11511Y9056D02*
Y9076D01*
X11211Y6996D02*
X11191D01*
X11201Y6986D02*
Y7006D01*
X11041Y7941D02*
X11021D01*
X11031Y7931D02*
Y7951D01*
X11081Y7381D02*
X11101D01*
X11091Y7371D02*
Y7391D01*
X11086Y6901D02*
X11066D01*
X11076Y6891D02*
Y6911D01*
X11081Y7291D02*
X11101D01*
X11091Y7281D02*
Y7301D01*
X11081Y8896D02*
X11061D01*
X11071Y8886D02*
Y8906D01*
X10981Y8375D02*
X10961D01*
X10971Y8365D02*
Y8385D01*
X11081Y8286D02*
X11101D01*
X11091Y8276D02*
Y8296D01*
X11081Y7801D02*
X11101D01*
X11091Y7791D02*
Y7811D01*
X10796Y7536D02*
X10776D01*
X10786Y7526D02*
Y7546D01*
X10831Y6801D02*
X10851D01*
X10841Y6791D02*
Y6811D01*
X10796Y7626D02*
X10776D01*
X10786Y7616D02*
Y7636D01*
X10871Y8896D02*
X10891D01*
X10881Y8886D02*
Y8906D01*
X10786Y8526D02*
X10766D01*
X10776Y8516D02*
Y8536D01*
Y8021D02*
X10796D01*
X10786Y8011D02*
Y8031D01*
Y8616D02*
X10766D01*
X10776Y8606D02*
Y8626D01*
Y8111D02*
X10796D01*
X10786Y8101D02*
Y8121D01*
X10869Y7051D02*
X10889D01*
X10879Y7041D02*
Y7061D01*
X10581Y8031D02*
X10561D01*
X10571Y8021D02*
Y8041D01*
X10561Y7066D02*
X10581D01*
X10571Y7056D02*
Y7076D01*
X10701Y7481D02*
X10721D01*
X10711Y7471D02*
Y7491D01*
X10721Y6951D02*
X10741D01*
X10731Y6941D02*
Y6961D01*
X10736Y7026D02*
X10716D01*
X10726Y7016D02*
Y7036D01*
X10571Y8481D02*
X10551D01*
X10561Y8471D02*
Y8491D01*
X10654Y8528D02*
X10674D01*
X10664Y8518D02*
Y8538D01*
X10676Y7971D02*
X10696D01*
X10686Y7961D02*
Y7981D01*
X10566Y7546D02*
X10546D01*
X10556Y7536D02*
Y7556D01*
X10496Y8916D02*
X10476D01*
X10486Y8906D02*
Y8926D01*
X10431Y7026D02*
X10411D01*
X10421Y7016D02*
Y7036D01*
X10201Y7656D02*
X10181D01*
X10191Y7646D02*
Y7666D01*
X10181Y7206D02*
X10201D01*
X10191Y7196D02*
Y7216D01*
X10181Y7431D02*
X10201D01*
X10191Y7421D02*
Y7441D01*
X10221Y7026D02*
X10241D01*
X10231Y7016D02*
Y7036D01*
X10196Y8556D02*
X10176D01*
X10186Y8546D02*
Y8566D01*
X10181Y8106D02*
X10201D01*
X10191Y8096D02*
Y8116D01*
X10196Y8331D02*
X10176D01*
X10186Y8321D02*
Y8341D01*
X10181Y7881D02*
X10201D01*
X10191Y7871D02*
Y7891D01*
X10196Y8706D02*
X10176D01*
X10186Y8696D02*
Y8716D01*
X10091Y7196D02*
X10071D01*
X10081Y7186D02*
Y7206D01*
X10101Y6691D02*
X10121D01*
X10111Y6681D02*
Y6701D01*
X10031Y6911D02*
X10011D01*
X10021Y6901D02*
Y6921D01*
X10001Y6661D02*
X9981D01*
X9991Y6651D02*
Y6671D01*
X9981Y7196D02*
X10001D01*
X9991Y7186D02*
Y7206D01*
X9986Y7701D02*
X9966D01*
X9976Y7691D02*
Y7711D01*
X10041Y6996D02*
X10061D01*
X10051Y6986D02*
Y7006D01*
X10156Y6966D02*
X10176D01*
X10166Y6956D02*
Y6976D01*
X10156Y6861D02*
X10176D01*
X10166Y6851D02*
Y6871D01*
X10061Y6861D02*
X10041D01*
X10051Y6851D02*
Y6871D01*
X9986Y8281D02*
X9966D01*
X9976Y8271D02*
Y8291D01*
X9851Y7326D02*
X9831D01*
X9841Y7316D02*
Y7336D01*
X9884Y6803D02*
X9904D01*
X9894Y6793D02*
Y6813D01*
X9871Y8041D02*
X9851D01*
X9861Y8031D02*
Y8051D01*
X9816Y7941D02*
X9796D01*
X9806Y7931D02*
Y7951D01*
X9861Y8158D02*
X9881D01*
X9871Y8148D02*
Y8168D01*
X9861Y7824D02*
X9881D01*
X9871Y7814D02*
Y7834D01*
X9866Y8346D02*
X9846D01*
X9856Y8336D02*
Y8356D01*
X9636Y6801D02*
X9616D01*
X9626Y6791D02*
Y6811D01*
X9676Y7016D02*
X9696D01*
X9686Y7006D02*
Y7026D01*
X9641Y6986D02*
X9621D01*
X9631Y6976D02*
Y6996D01*
X9646Y6951D02*
X9666D01*
X9656Y6941D02*
Y6961D01*
X9652Y6771D02*
X9672D01*
X9662Y6761D02*
Y6781D01*
X9741Y6916D02*
X9761D01*
X9751Y6906D02*
Y6926D01*
X9726Y6956D02*
X9706D01*
X9716Y6946D02*
Y6966D01*
X9711Y7248D02*
X9731D01*
X9721Y7238D02*
Y7258D01*
X9761Y7642D02*
X9781D01*
X9771Y7632D02*
Y7652D01*
X9641Y7701D02*
X9621D01*
X9631Y7691D02*
Y7711D01*
Y8281D02*
X9611D01*
X9621Y8271D02*
Y8291D01*
X9731Y8158D02*
X9751D01*
X9741Y8148D02*
Y8168D01*
X9731Y7824D02*
X9751D01*
X9741Y7814D02*
Y7834D01*
X9551Y7361D02*
X9531D01*
X9541Y7351D02*
Y7371D01*
X9421Y7041D02*
X9401D01*
X9411Y7031D02*
Y7051D01*
X9531Y7076D02*
X9551D01*
X9541Y7066D02*
Y7086D01*
X9571Y7361D02*
X9591D01*
X9581Y7351D02*
Y7371D01*
X9496Y7211D02*
X9476D01*
X9486Y7201D02*
Y7221D01*
X9477Y7006D02*
X9497D01*
X9487Y6996D02*
Y7016D01*
X9431Y6726D02*
X9411D01*
X9421Y6716D02*
Y6736D01*
X9301Y7001D02*
X9281D01*
X9291Y6991D02*
Y7011D01*
X9271Y7026D02*
X9251D01*
X9261Y7016D02*
Y7036D01*
X9281Y6901D02*
X9301D01*
X9291Y6891D02*
Y6911D01*
X8331Y8011D02*
X8311D01*
X8321Y8001D02*
Y8021D01*
X8181Y8151D02*
X8161D01*
X8171Y8141D02*
Y8161D01*
X7636Y8171D02*
X7616D01*
X7626Y8161D02*
Y8181D01*
X7581Y6981D02*
X7561D01*
X7571Y6971D02*
Y6991D01*
X7431Y7481D02*
X7411D01*
X7421Y7471D02*
Y7491D01*
X12857Y7464D02*
X12887D01*
X12872Y7449D02*
Y7479D01*
X12857Y7864D02*
X12887D01*
X12872Y7849D02*
Y7879D01*
X12687Y7764D02*
X12657D01*
X12672Y7749D02*
Y7779D01*
X12657Y7664D02*
X12687D01*
X12672Y7649D02*
Y7679D01*
X12657Y8373D02*
X12687D01*
X12672Y8358D02*
Y8388D01*
X12657Y8473D02*
X12687D01*
X12672Y8458D02*
Y8488D01*
X12857Y8573D02*
X12887D01*
X12872Y8558D02*
Y8588D01*
X12857Y8173D02*
X12887D01*
X12872Y8158D02*
Y8188D01*
X12857Y8882D02*
X12887D01*
X12872Y8867D02*
Y8897D01*
X12857Y9282D02*
X12887D01*
X12872Y9267D02*
Y9297D01*
X12687Y9182D02*
X12657D01*
X12672Y9167D02*
Y9197D01*
X12657Y9082D02*
X12687D01*
X12672Y9067D02*
Y9097D01*
X12956Y8981D02*
X12986D01*
X12971Y8966D02*
Y8996D01*
X12788Y8981D02*
X12758D01*
X12773Y8966D02*
Y8996D01*
X12758Y9179D02*
X12788D01*
X12773Y9164D02*
Y9194D01*
X12956Y9179D02*
X12986D01*
X12971Y9164D02*
Y9194D01*
X12887Y9080D02*
X12857D01*
X12872Y9065D02*
Y9095D01*
X12857Y6955D02*
X12887D01*
X12872Y6940D02*
Y6970D01*
X12956Y7054D02*
X12986D01*
X12971Y7039D02*
Y7069D01*
X12788Y7054D02*
X12758D01*
X12773Y7039D02*
Y7069D01*
X12758Y6856D02*
X12788D01*
X12773Y6841D02*
Y6871D01*
X12956Y6856D02*
X12986D01*
X12971Y6841D02*
Y6871D01*
X12687Y6955D02*
X12657D01*
X12672Y6940D02*
Y6970D01*
X12657Y7055D02*
X12687D01*
X12672Y7040D02*
Y7070D01*
X12857Y7155D02*
X12887D01*
X12872Y7140D02*
Y7170D01*
X12857Y6755D02*
X12887D01*
X12872Y6740D02*
Y6770D01*
X8621Y6801D02*
X8591D01*
X8606Y6786D02*
Y6816D01*
X8221Y6801D02*
X8191D01*
X8206Y6786D02*
Y6816D01*
X9141Y6901D02*
X9171D01*
X9156Y6886D02*
Y6916D01*
X9121Y6801D02*
X9091D01*
X9106Y6786D02*
Y6816D01*
X9071Y6901D02*
X9041D01*
X9056Y6886D02*
Y6916D01*
X9021Y6801D02*
X8991D01*
X9006Y6786D02*
Y6816D01*
X8971Y6901D02*
X8941D01*
X8956Y6886D02*
Y6916D01*
X8921Y6801D02*
X8891D01*
X8906Y6786D02*
Y6816D01*
X8871Y6901D02*
X8841D01*
X8856Y6886D02*
Y6916D01*
X8821Y6801D02*
X8791D01*
X8806Y6786D02*
Y6816D01*
X8771Y6901D02*
X8741D01*
X8756Y6886D02*
Y6916D01*
X8721Y6801D02*
X8691D01*
X8706Y6786D02*
Y6816D01*
X8671Y6901D02*
X8641D01*
X8656Y6886D02*
Y6916D01*
X8571Y6901D02*
X8541D01*
X8556Y6886D02*
Y6916D01*
X8521Y6801D02*
X8491D01*
X8506Y6786D02*
Y6816D01*
X8471Y6901D02*
X8441D01*
X8456Y6886D02*
Y6916D01*
X8421Y6801D02*
X8391D01*
X8406Y6786D02*
Y6816D01*
X8371Y6901D02*
X8341D01*
X8356Y6886D02*
Y6916D01*
X8321Y6801D02*
X8291D01*
X8306Y6786D02*
Y6816D01*
X8271Y6901D02*
X8241D01*
X8256Y6886D02*
Y6916D01*
X8165Y6873D02*
X8135D01*
X8150Y6858D02*
Y6888D01*
X7431Y6801D02*
X7401D01*
X7416Y6786D02*
Y6816D01*
X7031Y6801D02*
X7001D01*
X7016Y6786D02*
Y6816D01*
X7951Y6901D02*
X7981D01*
X7966Y6886D02*
Y6916D01*
X7931Y6801D02*
X7901D01*
X7916Y6786D02*
Y6816D01*
X7881Y6901D02*
X7851D01*
X7866Y6886D02*
Y6916D01*
X7831Y6801D02*
X7801D01*
X7816Y6786D02*
Y6816D01*
X7781Y6901D02*
X7751D01*
X7766Y6886D02*
Y6916D01*
X7731Y6801D02*
X7701D01*
X7716Y6786D02*
Y6816D01*
X7681Y6901D02*
X7651D01*
X7666Y6886D02*
Y6916D01*
X7631Y6801D02*
X7601D01*
X7616Y6786D02*
Y6816D01*
X7581Y6901D02*
X7551D01*
X7566Y6886D02*
Y6916D01*
X7531Y6801D02*
X7501D01*
X7516Y6786D02*
Y6816D01*
X7481Y6901D02*
X7451D01*
X7466Y6886D02*
Y6916D01*
X7381Y6901D02*
X7351D01*
X7366Y6886D02*
Y6916D01*
X7331Y6801D02*
X7301D01*
X7316Y6786D02*
Y6816D01*
X7281Y6901D02*
X7251D01*
X7266Y6886D02*
Y6916D01*
X7231Y6801D02*
X7201D01*
X7216Y6786D02*
Y6816D01*
X7181Y6901D02*
X7151D01*
X7166Y6886D02*
Y6916D01*
X7131Y6801D02*
X7101D01*
X7116Y6786D02*
Y6816D01*
X7081Y6901D02*
X7051D01*
X7066Y6886D02*
Y6916D01*
X6975Y6873D02*
X6945D01*
X6960Y6858D02*
Y6888D01*
X13138Y6611D02*
Y9386D01*
X6806D02*
Y6611D01*
Y9386D02*
X13138D01*
Y6611D02*
X6806D01*
D02*
M02*
