*%FSLAX23Y23*%
*%MOIN*%
G01*
D11*
X13138Y6611D02*
Y9386D01*
X6806D02*
Y6611D01*
Y9386D02*
X13138D01*
Y6611D02*
X6806D01*
D12*
X10996Y8591D02*
X11141Y8446D01*
X11416Y8482D02*
X11521Y8586D01*
X11276Y7716D02*
X11406Y7586D01*
X11266Y7536D02*
X11421Y7381D01*
X11041Y6926D02*
X10926Y7041D01*
X11416Y8692D02*
X11656Y8931D01*
X11131Y8426D02*
X10986Y8571D01*
X10936Y7061D02*
X11051Y6946D01*
X11421Y7601D02*
X11286Y7736D01*
X10981Y6651D02*
X12191D01*
X11088Y6876D02*
X11064D01*
X11088D02*
X11091D01*
X10871Y6891D02*
X10481D01*
X11116Y6851D02*
X12191D01*
X11944Y6896D02*
X11918D01*
Y6946D02*
X11944D01*
X11088Y6926D02*
X11071D01*
X11126Y6871D02*
X11221D01*
X12366D01*
X10892Y7026D02*
X10866D01*
X10584Y7041D02*
X10558D01*
Y7091D02*
X10584D01*
X10434Y7001D02*
X10431D01*
Y7051D02*
X10434D01*
X10656Y7041D02*
X10854D01*
X10904D02*
X10926D01*
X12564Y7116D02*
X12566D01*
X12504Y7111D02*
X12478D01*
X11628Y7071D02*
X11604D01*
Y7121D02*
X11628D01*
X11384Y7071D02*
X11358D01*
Y7121D02*
X11384D01*
X10892Y7076D02*
X10866D01*
X10854Y7061D02*
X10666D01*
X10904D02*
X10936D01*
X12466Y7056D02*
X12516D01*
X12161Y7321D02*
X11481D01*
X11342Y7162D02*
X11194D01*
X12478Y7161D02*
X12504D01*
X12468Y7331D02*
X12444D01*
X12244Y7161D02*
X12218D01*
Y7211D02*
X12244D01*
X12171Y7301D02*
X11471D01*
X11456Y7536D02*
X11434D01*
X10568Y7521D02*
X10544D01*
X11546Y7446D02*
X12161D01*
X11314Y7458D02*
X11194D01*
X12444Y7381D02*
X12468D01*
X12338Y7516D02*
X12314D01*
X11104Y7356D02*
X11078D01*
Y7406D02*
X11104D01*
X10798Y7511D02*
X10774D01*
X11556Y7466D02*
X12171D01*
X10568Y7571D02*
X10544D01*
X10651Y7716D02*
X11276D01*
X11186Y7616D02*
X10656D01*
X12314Y7566D02*
X12338D01*
X11944Y7666D02*
X11918D01*
Y7716D02*
X11944D01*
X11458Y7586D02*
X11436D01*
X10798Y7561D02*
X10774D01*
X10666Y7596D02*
X11176D01*
X11286Y7736D02*
X10661D01*
X12431Y7726D02*
X12516D01*
Y7611D02*
X12431D01*
X9971Y7596D02*
X9701D01*
X9621D01*
X9618Y7726D02*
X9644D01*
Y7676D02*
X9618D01*
X9964Y7726D02*
X9988D01*
Y7676D02*
X9964D01*
X12564Y7816D02*
X12566D01*
X11604Y7842D02*
X11578D01*
Y7892D02*
X11604D01*
X11044Y7916D02*
X11018D01*
X9521Y7841D02*
X8316D01*
X9728Y7849D02*
X9754D01*
Y7799D02*
X9728D01*
X9858Y7849D02*
X9884D01*
Y7799D02*
X9858D01*
X9818Y7916D02*
X9794D01*
X10558Y8006D02*
X10584D01*
Y8056D02*
X10558D01*
X10601Y8001D02*
X10366D01*
X10651Y8086D02*
X12176D01*
X10546Y8036D02*
X10366D01*
X10596D02*
X10601D01*
X12176Y8056D02*
X12566D01*
X11044Y7966D02*
X11018D01*
X10798Y7996D02*
X10774D01*
Y8046D02*
X10798D01*
X10661Y8066D02*
X12566D01*
X9754Y8133D02*
X9728D01*
X9858D02*
X9884D01*
X9818Y7966D02*
X9794D01*
X9848Y8066D02*
X9874D01*
Y8016D02*
X9848D01*
X11634Y8166D02*
X11658D01*
X11468D02*
X11444D01*
Y8216D02*
X11468D01*
X11629Y8236D02*
X10651D01*
X11663D02*
X12176D01*
X12308Y8221D02*
X12334D01*
Y8271D02*
X12308D01*
X11944Y8306D02*
X11918D01*
X12436Y8311D02*
X12516D01*
X12186Y8256D02*
X10666D01*
X9754Y8183D02*
X9728D01*
X9634Y8306D02*
X9608D01*
Y8256D02*
X9634D01*
X9858Y8183D02*
X9884D01*
X9964Y8306D02*
X9988D01*
Y8256D02*
X9964D01*
X10548Y8456D02*
X10574D01*
Y8506D02*
X10548D01*
X11141Y8446D02*
X11381D01*
X12558Y8521D02*
X12566D01*
X11944Y8356D02*
X11918D01*
X11578Y8486D02*
X11554D01*
X10984Y8350D02*
X10958D01*
Y8400D02*
X10984D01*
X10788Y8501D02*
X10764D01*
X12436Y8431D02*
X12516D01*
X11391Y8426D02*
X11131D01*
X9971Y8396D02*
X8321D01*
X11194Y8578D02*
X11342D01*
X10996Y8591D02*
X10651D01*
X11106Y8671D02*
X11120D01*
X11416D02*
X11431D01*
X12414Y8551D02*
X12438D01*
Y8601D02*
X12414D01*
X11578Y8536D02*
X11554D01*
X10788Y8551D02*
X10764D01*
X11116Y8691D02*
X11120D01*
X10986Y8571D02*
X10661D01*
X12264Y8876D02*
X12288D01*
X11558Y8731D02*
X11534D01*
X11541Y8781D02*
X11558D01*
X11721Y8786D02*
X12286D01*
X12251Y8911D02*
X11671D01*
X11036Y8741D02*
X10416D01*
X11194Y8876D02*
X11342D01*
X12464Y8771D02*
X12488D01*
Y8821D02*
X12464D01*
X10894Y8871D02*
X10868D01*
X10498Y8891D02*
X10474D01*
X10416Y8761D02*
X11046D01*
X11731Y8766D02*
X12296D01*
X11944Y9016D02*
X11918D01*
Y9066D02*
X11944D01*
X11524Y9041D02*
X11498D01*
Y9091D02*
X11524D01*
X10894Y8921D02*
X10868D01*
X10498Y8941D02*
X10474D01*
X12446Y9021D02*
X12516D01*
X12296Y8931D02*
X11656D01*
X12551Y9181D02*
X12566D01*
X12564D01*
Y9231D02*
X12566D01*
X11578Y9191D02*
X11554D01*
Y9241D02*
X11578D01*
X12446Y9131D02*
X12516D01*
Y9326D02*
X10416D01*
X8271Y8346D02*
Y7886D01*
X8276Y7881D02*
Y8351D01*
X8281Y8356D02*
Y7876D01*
X8286Y7871D02*
Y8361D01*
X8291Y8366D02*
Y7866D01*
X8296Y7861D02*
Y8371D01*
X8301Y8376D02*
Y7856D01*
X8306Y7851D02*
Y8381D01*
X8311Y8386D02*
Y7846D01*
X8316Y7841D02*
Y8391D01*
X8321Y8396D02*
Y7841D01*
X8326D02*
Y8396D01*
X8331D02*
Y7841D01*
X8336D02*
Y8396D01*
X8341D02*
Y7841D01*
X8346D02*
Y8396D01*
X8351D02*
Y7841D01*
X8356D02*
Y8396D01*
X8361D02*
Y7841D01*
X8366D02*
Y8396D01*
X8371D02*
Y7841D01*
X8376D02*
Y8396D01*
X8381D02*
Y7841D01*
X8386D02*
Y8396D01*
X8391D02*
Y7841D01*
X8396D02*
Y8396D01*
X8401D02*
Y7841D01*
X8406D02*
Y8396D01*
X8271Y7886D02*
X8316Y7841D01*
X8271Y8346D02*
X8321Y8396D01*
X8411D02*
Y7841D01*
X8416D02*
Y8396D01*
X8421D02*
Y7841D01*
X8426D02*
Y8396D01*
X8431D02*
Y7841D01*
X8436D02*
Y8396D01*
X8441D02*
Y7841D01*
X8446D02*
Y8396D01*
X8451D02*
Y7841D01*
X8456D02*
Y8396D01*
X8461D02*
Y7841D01*
X8466D02*
Y8396D01*
X8471D02*
Y7841D01*
X8476D02*
Y8396D01*
X8481D02*
Y7841D01*
X8486D02*
Y8396D01*
X8491D02*
Y7841D01*
X8496D02*
Y8396D01*
X8501D02*
Y7841D01*
X8506D02*
Y8396D01*
X8511D02*
Y7841D01*
X8516D02*
Y8396D01*
X8521D02*
Y7841D01*
X8526D02*
Y8396D01*
X8531D02*
Y7841D01*
X8536D02*
Y8396D01*
X8541D02*
Y7841D01*
X8546D02*
Y8396D01*
X8551D02*
Y7841D01*
X8556D02*
Y8396D01*
X8561D02*
Y7841D01*
X8566D02*
Y8396D01*
X8571D02*
Y7841D01*
X8576D02*
Y8396D01*
X8581D02*
Y7841D01*
X8586D02*
Y8396D01*
X8591D02*
Y7841D01*
X8596D02*
Y8396D01*
X8601D02*
Y7841D01*
X8606D02*
Y8396D01*
X8611D02*
Y7841D01*
X8616D02*
Y8396D01*
X8621D02*
Y7841D01*
X8626D02*
Y8396D01*
X8631D02*
Y7841D01*
X8636D02*
Y8396D01*
X8641D02*
Y7841D01*
X8646D02*
Y8396D01*
X8651D02*
Y7841D01*
X8656D02*
Y8396D01*
X8661D02*
Y7841D01*
X8666D02*
Y8396D01*
X8671D02*
Y7841D01*
X8676D02*
Y8396D01*
X8681D02*
Y7841D01*
X8686D02*
Y8396D01*
X8691D02*
Y7841D01*
X8696D02*
Y8396D01*
X8701D02*
Y7841D01*
X8706D02*
Y8396D01*
X8711D02*
Y7841D01*
X8716D02*
Y8396D01*
X8721D02*
Y7841D01*
X8726D02*
Y8396D01*
X8731D02*
Y7841D01*
X8736D02*
Y8396D01*
X8741D02*
Y7841D01*
X8746D02*
Y8396D01*
X8751D02*
Y7841D01*
X8756D02*
Y8396D01*
X8761D02*
Y7841D01*
X8766D02*
Y8396D01*
X8771D02*
Y7841D01*
X8776D02*
Y8396D01*
X8781D02*
Y7841D01*
X8786D02*
Y8396D01*
X8791D02*
Y7841D01*
X8796D02*
Y8396D01*
X8801D02*
Y7841D01*
X8806D02*
Y8396D01*
X8811D02*
Y7841D01*
X8816D02*
Y8396D01*
X8821D02*
Y7841D01*
X8826D02*
Y8396D01*
X8831D02*
Y7841D01*
X8836D02*
Y8396D01*
X8841D02*
Y7841D01*
X8846D02*
Y8396D01*
X8851D02*
Y7841D01*
X8856D02*
Y8396D01*
X8861D02*
Y7841D01*
X8866D02*
Y8396D01*
X8871D02*
Y7841D01*
X8876D02*
Y8396D01*
X8881D02*
Y7841D01*
X8886D02*
Y8396D01*
X8891D02*
Y7841D01*
X8896D02*
Y8396D01*
X8901D02*
Y7841D01*
X8906D02*
Y8396D01*
X8911D02*
Y7841D01*
X8916D02*
Y8396D01*
X8921D02*
Y7841D01*
X8926D02*
Y8396D01*
X8931D02*
Y7841D01*
X8936D02*
Y8396D01*
X8941D02*
Y7841D01*
X8946D02*
Y8396D01*
X8951D02*
Y7841D01*
X8956D02*
Y8396D01*
X8961D02*
Y7841D01*
X8966D02*
Y8396D01*
X8971D02*
Y7841D01*
X8976D02*
Y8396D01*
X8981D02*
Y7841D01*
X8986D02*
Y8396D01*
X8991D02*
Y7841D01*
X8996D02*
Y8396D01*
X9001D02*
Y7841D01*
X9006D02*
Y8396D01*
X9011D02*
Y7841D01*
X9016D02*
Y8396D01*
X9021D02*
Y7841D01*
X9026D02*
Y8396D01*
X9031D02*
Y7841D01*
X9036D02*
Y8396D01*
X9041D02*
Y7841D01*
X9046D02*
Y8396D01*
X9051D02*
Y7841D01*
X9056D02*
Y8396D01*
X9061D02*
Y7841D01*
X9066D02*
Y8396D01*
X9071D02*
Y7841D01*
X9076D02*
Y8396D01*
X9081D02*
Y7841D01*
X9086D02*
Y8396D01*
X9091D02*
Y7841D01*
X9096D02*
Y8396D01*
X9101D02*
Y7841D01*
X9106D02*
Y8396D01*
X9111D02*
Y7841D01*
X9116D02*
Y8396D01*
X9121D02*
Y7841D01*
X9126D02*
Y8396D01*
X9131D02*
Y7841D01*
X9136D02*
Y8396D01*
X9141D02*
Y7841D01*
X9146D02*
Y8396D01*
X9151D02*
Y7841D01*
X9156D02*
Y8396D01*
X9161D02*
Y7841D01*
X9166D02*
Y8396D01*
X9171D02*
Y7841D01*
X9176D02*
Y8396D01*
X9181D02*
Y7841D01*
X9186D02*
Y8396D01*
X9191D02*
Y7841D01*
X9196D02*
Y8396D01*
X9201D02*
Y7841D01*
X9206D02*
Y8396D01*
X9211D02*
Y7841D01*
X9216D02*
Y8396D01*
X9221D02*
Y7841D01*
X9226D02*
Y8396D01*
X9231D02*
Y7841D01*
X9236D02*
Y8396D01*
X9241D02*
Y7841D01*
X9246D02*
Y8396D01*
X9251D02*
Y7841D01*
X9256D02*
Y8396D01*
X9261D02*
Y7841D01*
X9266D02*
Y8396D01*
X9271D02*
Y7841D01*
X9276D02*
Y8396D01*
X9281D02*
Y7841D01*
X9286D02*
Y8396D01*
X9291D02*
Y7841D01*
X9296D02*
Y8396D01*
X9301D02*
Y7841D01*
X9306D02*
Y8396D01*
X9311D02*
Y7841D01*
X9316D02*
Y8396D01*
X9321D02*
Y7841D01*
X9326D02*
Y8396D01*
X9331D02*
Y7841D01*
X9336D02*
Y8396D01*
X9341D02*
Y7841D01*
X9346D02*
Y8396D01*
X9351D02*
Y7841D01*
X9356D02*
Y8396D01*
X9361D02*
Y7841D01*
X9366D02*
Y8396D01*
X9371D02*
Y7841D01*
X9376D02*
Y8396D01*
X9381D02*
Y7841D01*
X9386D02*
Y8396D01*
X9571Y7791D02*
Y7646D01*
X9391Y7841D02*
Y8396D01*
X9396D02*
Y7841D01*
X9401D02*
Y8396D01*
X9406D02*
Y7841D01*
X9411D02*
Y8396D01*
X9416D02*
Y7841D01*
X9421D02*
Y8396D01*
X9426D02*
Y7841D01*
X9431D02*
Y8396D01*
X9436D02*
Y7841D01*
X9441D02*
Y8396D01*
X9446D02*
Y7841D01*
X9451D02*
Y8396D01*
X9456D02*
Y7841D01*
X9461D02*
Y8396D01*
X9466D02*
Y7841D01*
X9471D02*
Y8396D01*
X9476D02*
Y7841D01*
X9481D02*
Y8396D01*
X9486D02*
Y7841D01*
X9491D02*
Y8396D01*
X9496D02*
Y7841D01*
X9501D02*
Y8396D01*
X9506D02*
Y7841D01*
X9511D02*
Y8396D01*
X9516D02*
Y7841D01*
X9521D02*
Y8396D01*
X9526D02*
Y7841D01*
X9531Y7831D02*
Y8396D01*
X9536D02*
Y7826D01*
X9541Y7821D02*
Y8396D01*
X9546D02*
Y7816D01*
X9551Y7811D02*
Y8396D01*
X9556D02*
Y7806D01*
X9561Y7801D02*
Y8396D01*
X9566D02*
Y7796D01*
X9571Y7791D02*
Y8396D01*
X9576D02*
Y7641D01*
X9581Y7636D02*
Y8396D01*
X9521Y7841D02*
X9571Y7791D01*
Y7646D02*
X9621Y7596D01*
X9716Y7812D02*
Y7836D01*
X9766D02*
Y7812D01*
X9606Y7714D02*
Y7688D01*
X9656D02*
Y7714D01*
X9716Y8146D02*
Y8170D01*
X9766D02*
Y8146D01*
X9596Y8268D02*
Y8294D01*
X9646D02*
Y8268D01*
X9586Y8396D02*
Y7631D01*
X9591Y7626D02*
Y8396D01*
X9596D02*
Y8294D01*
Y8268D02*
Y7621D01*
X9601Y8306D02*
Y8396D01*
Y8306D02*
Y8298D01*
Y8264D02*
Y8256D01*
Y7616D01*
X9606Y8306D02*
Y8396D01*
Y8256D02*
Y7714D01*
Y7688D02*
Y7611D01*
X9611Y8306D02*
Y8396D01*
Y8256D02*
Y7726D01*
Y7718D01*
Y7684D02*
Y7676D01*
Y7606D01*
X9616Y8306D02*
Y8396D01*
Y8256D02*
Y7726D01*
Y7676D02*
Y7601D01*
X9621Y8306D02*
Y8396D01*
Y8256D02*
Y7726D01*
Y7676D02*
Y7596D01*
X9626Y8306D02*
Y8396D01*
Y8256D02*
Y7726D01*
Y7676D02*
Y7596D01*
X9631Y8306D02*
Y8396D01*
Y8256D02*
Y7726D01*
Y7676D02*
Y7596D01*
X9636Y8306D02*
Y8396D01*
Y8256D02*
Y7726D01*
Y7676D02*
Y7596D01*
X9641Y8306D02*
Y8396D01*
Y8306D02*
Y8298D01*
Y8264D02*
Y8256D01*
Y7726D01*
Y7676D02*
Y7596D01*
X9646Y8294D02*
Y8396D01*
Y8268D02*
Y7726D01*
Y7676D02*
Y7596D01*
X9651Y7726D02*
Y8396D01*
Y7726D02*
Y7718D01*
Y7684D02*
Y7676D01*
Y7596D01*
X9656Y7714D02*
Y8396D01*
Y7688D02*
Y7596D01*
X9661D02*
Y8396D01*
X9666D02*
Y7596D01*
X9671D02*
Y8396D01*
X9676D02*
Y7596D01*
X9681D02*
Y8396D01*
X9686D02*
Y7596D01*
X9691D02*
Y8396D01*
X9696D02*
Y7596D01*
X9701D02*
Y8396D01*
X9706D02*
Y7596D01*
X9711D02*
Y8396D01*
X9716D02*
Y8170D01*
Y8146D02*
Y7836D01*
Y7812D02*
Y7596D01*
X9721Y8183D02*
Y8396D01*
Y8183D02*
Y8176D01*
Y8140D02*
Y8133D01*
Y7849D01*
Y7842D01*
Y7806D02*
Y7799D01*
Y7596D01*
X9726Y8183D02*
Y8396D01*
Y8133D02*
Y7849D01*
Y7799D02*
Y7596D01*
X9731Y8183D02*
Y8396D01*
Y8133D02*
Y7849D01*
Y7799D02*
Y7596D01*
X9736Y8183D02*
Y8396D01*
Y8133D02*
Y7849D01*
Y7799D02*
Y7596D01*
X9741Y8183D02*
Y8396D01*
Y8133D02*
Y7849D01*
Y7799D02*
Y7596D01*
X9746Y8183D02*
Y8396D01*
Y8133D02*
Y7849D01*
Y7799D02*
Y7596D01*
X9751Y8183D02*
Y8396D01*
Y8133D02*
Y7849D01*
Y7799D02*
Y7596D01*
X9756Y8183D02*
Y8396D01*
Y8133D02*
Y7849D01*
Y7799D02*
Y7596D01*
X9761Y8183D02*
Y8396D01*
Y8183D02*
Y8176D01*
Y8140D02*
Y8133D01*
Y7849D01*
Y7842D01*
Y7806D02*
Y7799D01*
Y7596D01*
X9766Y8170D02*
Y8396D01*
Y8146D02*
Y7836D01*
Y7812D02*
Y7596D01*
X9771D02*
Y8396D01*
X9776D02*
Y7596D01*
X9728Y7799D02*
X9716Y7812D01*
X9754Y7849D02*
X9766Y7836D01*
X9606Y7688D02*
X9618Y7676D01*
X9656Y7714D02*
X9644Y7726D01*
X9728Y8133D02*
X9716Y8146D01*
X9754Y8183D02*
X9766Y8170D01*
X9608Y8256D02*
X9596Y8268D01*
X9634Y8306D02*
X9646Y8294D01*
X9728Y7849D02*
X9716Y7836D01*
X9754Y7799D02*
X9766Y7812D01*
X9618Y7726D02*
X9606Y7714D01*
X9644Y7676D02*
X9656Y7688D01*
X9716Y8170D02*
X9728Y8183D01*
X9766Y8146D02*
X9754Y8133D01*
X9596Y8294D02*
X9608Y8306D01*
X9646Y8268D02*
X9634Y8256D01*
X9846Y7836D02*
Y7812D01*
X9896D02*
Y7836D01*
X9846Y8146D02*
Y8170D01*
X9896D02*
Y8146D01*
X9781Y7954D02*
Y7928D01*
X9831D02*
Y7954D01*
X9836Y8028D02*
Y8054D01*
X9886D02*
Y8028D01*
X9951Y8268D02*
Y8294D01*
Y7714D02*
Y7688D01*
X9781Y7954D02*
Y8396D01*
Y7928D02*
Y7596D01*
X9786Y7966D02*
Y8396D01*
Y7966D02*
Y7958D01*
Y7924D02*
Y7916D01*
Y7596D01*
X9791Y7966D02*
Y8396D01*
Y7916D02*
Y7596D01*
X9796Y7966D02*
Y8396D01*
Y7916D02*
Y7596D01*
X9801Y7966D02*
Y8396D01*
Y7916D02*
Y7596D01*
X9806Y7966D02*
Y8396D01*
Y7916D02*
Y7596D01*
X9811Y7966D02*
Y8396D01*
Y7916D02*
Y7596D01*
X9816Y7966D02*
Y8396D01*
Y7916D02*
Y7596D01*
X9821Y7966D02*
Y8396D01*
Y7916D02*
Y7596D01*
X9826Y7966D02*
Y8396D01*
Y7966D02*
Y7958D01*
Y7924D02*
Y7916D01*
Y7596D01*
X9831Y7954D02*
Y8396D01*
Y7928D02*
Y7596D01*
X9836Y8054D02*
Y8396D01*
Y8028D02*
Y7596D01*
X9841Y8066D02*
Y8396D01*
Y8066D02*
Y8058D01*
Y8024D02*
Y8016D01*
Y7596D01*
X9846Y8170D02*
Y8396D01*
Y8146D02*
Y8066D01*
Y8016D02*
Y7836D01*
Y7812D02*
Y7596D01*
X9851Y8183D02*
Y8396D01*
Y8183D02*
Y8176D01*
Y8140D02*
Y8133D01*
Y8066D01*
Y8016D02*
Y7849D01*
Y7842D01*
Y7806D02*
Y7799D01*
Y7596D01*
X9856Y8183D02*
Y8396D01*
Y8133D02*
Y8066D01*
Y8016D02*
Y7849D01*
Y7799D02*
Y7596D01*
X9861Y8183D02*
Y8396D01*
Y8133D02*
Y8066D01*
Y8016D02*
Y7849D01*
Y7799D02*
Y7596D01*
X9866Y8183D02*
Y8396D01*
Y8133D02*
Y8066D01*
Y8016D02*
Y7849D01*
Y7799D02*
Y7596D01*
X9871Y8183D02*
Y8396D01*
Y8133D02*
Y8066D01*
Y8016D02*
Y7849D01*
Y7799D02*
Y7596D01*
X9876Y8183D02*
Y8396D01*
Y8133D02*
Y8066D01*
Y8016D02*
Y7849D01*
Y7799D02*
Y7596D01*
X9881Y8183D02*
Y8396D01*
Y8133D02*
Y8066D01*
Y8058D01*
Y8024D02*
Y8016D01*
Y7849D01*
Y7799D02*
Y7596D01*
X9886Y8183D02*
Y8396D01*
Y8133D02*
Y8054D01*
Y8028D02*
Y7849D01*
Y7799D02*
Y7596D01*
X9891Y8183D02*
Y8396D01*
Y8183D02*
Y8176D01*
Y8140D02*
Y8133D01*
Y7849D01*
Y7842D01*
Y7806D02*
Y7799D01*
Y7596D01*
X9896Y8170D02*
Y8396D01*
Y8146D02*
Y7836D01*
Y7812D02*
Y7596D01*
X9901D02*
Y8396D01*
X9906D02*
Y7596D01*
X9911D02*
Y8396D01*
X9916D02*
Y7596D01*
X9921D02*
Y8396D01*
X9926D02*
Y7596D01*
X9931D02*
Y8396D01*
X9936D02*
Y7596D01*
X9941D02*
Y8396D01*
X9946D02*
Y7596D01*
X9951Y8294D02*
Y8396D01*
Y8268D02*
Y7714D01*
Y7688D02*
Y7596D01*
X9956Y8306D02*
Y8396D01*
Y8306D02*
Y8298D01*
Y8264D02*
Y8256D01*
Y7726D01*
Y7718D01*
Y7684D02*
Y7676D01*
Y7596D01*
X9961Y8306D02*
Y8396D01*
Y8256D02*
Y7726D01*
Y7676D02*
Y7596D01*
X9966Y8306D02*
Y8396D01*
Y8256D02*
Y7726D01*
Y7676D02*
Y7596D01*
X9971Y8306D02*
Y8396D01*
Y8256D02*
Y7726D01*
Y7676D02*
Y7596D01*
X10021Y8346D02*
X9971Y8396D01*
X9846Y7812D02*
X9858Y7799D01*
X9896Y7836D02*
X9884Y7849D01*
X9858Y8133D02*
X9846Y8146D01*
X9884Y8183D02*
X9896Y8170D01*
X9781Y7928D02*
X9794Y7916D01*
X9831Y7954D02*
X9818Y7966D01*
X9848Y8016D02*
X9836Y8028D01*
X9874Y8066D02*
X9886Y8054D01*
X9964Y8256D02*
X9951Y8268D01*
Y7688D02*
X9964Y7676D01*
X10021Y7646D02*
X9971Y7596D01*
X9846Y7836D02*
X9858Y7849D01*
X9896Y7812D02*
X9884Y7799D01*
X9846Y8170D02*
X9858Y8183D01*
X9896Y8146D02*
X9884Y8133D01*
X9794Y7966D02*
X9781Y7954D01*
X9818Y7916D02*
X9831Y7928D01*
X9836Y8054D02*
X9848Y8066D01*
X9886Y8028D02*
X9874Y8016D01*
X9951Y8294D02*
X9964Y8306D01*
Y7726D02*
X9951Y7714D01*
X10021Y7646D02*
Y8346D01*
X10001Y8294D02*
Y8268D01*
Y7714D02*
Y7688D01*
X9976Y8306D02*
Y8391D01*
Y8256D02*
Y7726D01*
Y7676D02*
Y7601D01*
X9981Y8306D02*
Y8386D01*
Y8256D02*
Y7726D01*
Y7676D02*
Y7606D01*
X9986Y8306D02*
Y8381D01*
Y8256D02*
Y7726D01*
Y7676D02*
Y7611D01*
X9991Y8306D02*
Y8376D01*
Y8256D02*
Y7726D01*
Y7676D02*
Y7616D01*
X9996Y8306D02*
Y8371D01*
Y8306D02*
Y8298D01*
Y8264D02*
Y8256D01*
Y7726D01*
Y7718D01*
Y7684D02*
Y7676D01*
Y7621D01*
X10001Y8294D02*
Y8366D01*
Y8268D02*
Y7714D01*
Y7688D02*
Y7626D01*
X10006Y7631D02*
Y8361D01*
X10011Y8356D02*
Y7636D01*
X10016Y7641D02*
Y8351D01*
X9988Y8306D02*
X10001Y8294D01*
X9988Y7726D02*
X10001Y7714D01*
X9988Y8256D02*
X10001Y8268D01*
Y7688D02*
X9988Y7676D01*
X10556Y8056D02*
Y8456D01*
Y8506D02*
Y8741D01*
X10551Y8014D02*
Y8006D01*
Y8048D02*
Y8056D01*
Y8456D01*
Y8506D02*
Y8741D01*
X10546Y8018D02*
Y8001D01*
Y8018D02*
Y8044D01*
Y8456D01*
Y8506D02*
Y8741D01*
X10541Y8456D02*
Y8001D01*
Y8456D02*
Y8464D01*
Y8498D02*
Y8506D01*
Y8741D01*
X10536Y8468D02*
Y8001D01*
Y8468D02*
Y8494D01*
Y8741D01*
X10531D02*
Y8001D01*
X10526D02*
Y8741D01*
X10521D02*
Y8001D01*
X10516D02*
Y8741D01*
X10511D02*
Y8001D01*
X10506D02*
Y8741D01*
X10501D02*
Y8001D01*
X10496D02*
Y8741D01*
X10491D02*
Y8001D01*
X10486D02*
Y8741D01*
X10481D02*
Y8001D01*
X10476D02*
Y8741D01*
X10471D02*
Y8001D01*
X10466D02*
Y8741D01*
X10461D02*
Y8001D01*
X10456D02*
Y8741D01*
X10451D02*
Y8001D01*
X10446D02*
Y8741D01*
X10441D02*
Y8001D01*
X10436D02*
Y8741D01*
X10431D02*
Y8001D01*
X10426D02*
Y8741D01*
X10421D02*
Y8001D01*
X10416D02*
Y8741D01*
X10411Y8736D02*
Y8001D01*
X10406D02*
Y8731D01*
X10401Y8726D02*
Y8001D01*
X10396D02*
Y8721D01*
X10391Y8716D02*
Y8001D01*
X10386D02*
Y8711D01*
X10381Y8706D02*
Y8001D01*
X10376D02*
Y8701D01*
X10371Y8696D02*
Y8001D01*
X10366D02*
Y8691D01*
X10556Y7041D02*
Y6891D01*
Y7091D02*
Y7521D01*
Y7571D02*
Y8006D01*
X10551Y7041D02*
Y6891D01*
Y7041D02*
Y7048D01*
Y7084D02*
Y7091D01*
Y7521D01*
Y7571D02*
Y8006D01*
X10546Y7054D02*
Y6891D01*
Y7054D02*
Y7078D01*
Y7521D01*
Y7571D02*
Y8018D01*
Y8036D01*
X10541Y7521D02*
Y6891D01*
Y7571D02*
Y8036D01*
X10536Y7521D02*
Y6891D01*
Y7521D02*
Y7528D01*
Y7564D02*
Y7571D01*
Y8036D01*
X10531Y7534D02*
Y6891D01*
Y7534D02*
Y7558D01*
Y8036D01*
X10526D02*
Y6891D01*
X10521D02*
Y8036D01*
X10516D02*
Y6891D01*
X10511D02*
Y8036D01*
X10506D02*
Y6891D01*
X10501D02*
Y8036D01*
X10496D02*
Y6891D01*
X10491D02*
Y8036D01*
X10486D02*
Y6891D01*
X10481D02*
Y8036D01*
X10476D02*
Y6896D01*
X10471Y6901D02*
Y8036D01*
X10466D02*
Y6906D01*
X10461Y6911D02*
Y8036D01*
X10456D02*
Y6916D01*
X10451Y6921D02*
Y8036D01*
X10446Y7014D02*
Y6926D01*
Y7014D02*
Y7038D01*
Y8036D01*
X10441Y7001D02*
Y6931D01*
Y7001D02*
Y7008D01*
Y7044D02*
Y7051D01*
Y8036D01*
X10436Y7001D02*
Y6936D01*
Y7051D02*
Y8036D01*
X10431D02*
Y7116D01*
X10426Y7121D02*
Y8036D01*
X10421D02*
Y7126D01*
X10416Y7131D02*
Y8036D01*
X10411D02*
Y7136D01*
X10406Y7141D02*
Y8036D01*
X10401D02*
Y7146D01*
X10396Y7151D02*
Y8036D01*
X10391D02*
Y7156D01*
X10386Y7161D02*
Y8036D01*
X10381D02*
Y7166D01*
X10376Y7171D02*
Y8036D01*
X10371D02*
Y7176D01*
X10431Y7001D02*
Y6941D01*
Y7051D02*
Y7116D01*
X10366Y7181D02*
Y8036D01*
X10556Y8761D02*
Y9326D01*
X10551D02*
Y8761D01*
X10546D02*
Y9326D01*
X10541D02*
Y8761D01*
X10536D02*
Y9326D01*
X10531D02*
Y8761D01*
X10526D02*
Y9326D01*
X10521D02*
Y8761D01*
X10516D02*
Y9326D01*
X10511Y8904D02*
Y8761D01*
Y8904D02*
Y8928D01*
Y9326D01*
X10506Y8891D02*
Y8761D01*
Y8891D02*
Y8898D01*
Y8934D02*
Y8941D01*
Y9326D01*
X10501Y8891D02*
Y8761D01*
Y8941D02*
Y9326D01*
X10496Y8891D02*
Y8761D01*
Y8941D02*
Y9326D01*
X10491Y8891D02*
Y8761D01*
Y8941D02*
Y9326D01*
X10486Y8891D02*
Y8761D01*
Y8941D02*
Y9326D01*
X10481Y8891D02*
Y8761D01*
Y8941D02*
Y9326D01*
X10476Y8891D02*
Y8761D01*
Y8941D02*
Y9326D01*
X10471Y8891D02*
Y8761D01*
Y8941D02*
Y9326D01*
X10466Y8891D02*
Y8761D01*
Y8891D02*
Y8898D01*
Y8934D02*
Y8941D01*
Y9326D01*
X10461Y8904D02*
Y8761D01*
Y8904D02*
Y8928D01*
Y9326D01*
X10456D02*
Y8761D01*
X10451D02*
Y9326D01*
X10446D02*
Y8761D01*
X10441D02*
Y9326D01*
X10436D02*
Y8761D01*
X10431D02*
Y9326D01*
X10426D02*
Y8761D01*
X10421D02*
Y9326D01*
X10416D02*
Y8761D01*
X10411Y8766D02*
Y9321D01*
X10406Y9316D02*
Y8771D01*
X10401Y8776D02*
Y9311D01*
X10396Y9306D02*
Y8781D01*
X10391Y8786D02*
Y9301D01*
X10386Y9296D02*
Y8791D01*
X10381Y8796D02*
Y9291D01*
X10376Y9286D02*
Y8801D01*
X10371Y8806D02*
Y9281D01*
X10366Y9276D02*
Y8811D01*
X10558Y8056D02*
X10546Y8044D01*
Y8018D02*
X10558Y8006D01*
X10536Y8494D02*
X10548Y8506D01*
X10536Y8468D02*
X10548Y8456D01*
X10366Y8691D02*
X10416Y8741D01*
X10558Y7091D02*
X10546Y7078D01*
Y7054D02*
X10558Y7041D01*
X10446Y7014D02*
X10434Y7001D01*
X10446Y7038D02*
X10434Y7051D01*
X10531Y7558D02*
X10544Y7571D01*
X10531Y7534D02*
X10544Y7521D01*
X10431Y6941D02*
X10481Y6891D01*
X10431Y7116D02*
X10366Y7181D01*
X10498Y8891D02*
X10511Y8904D01*
Y8928D02*
X10498Y8941D01*
X10474D02*
X10461Y8928D01*
Y8904D02*
X10474Y8891D01*
X10366Y9276D02*
X10416Y9326D01*
X10366Y8811D02*
X10416Y8761D01*
X10756Y8236D02*
Y8086D01*
Y8591D02*
Y8741D01*
X10751Y8236D02*
Y8086D01*
Y8591D02*
Y8741D01*
X10746Y8236D02*
Y8086D01*
Y8591D02*
Y8741D01*
X10741Y8236D02*
Y8086D01*
Y8591D02*
Y8741D01*
X10736Y8236D02*
Y8086D01*
Y8591D02*
Y8741D01*
X10731Y8236D02*
Y8086D01*
Y8591D02*
Y8741D01*
X10726Y8236D02*
Y8086D01*
Y8591D02*
Y8741D01*
X10721Y8236D02*
Y8086D01*
Y8591D02*
Y8741D01*
X10716Y8236D02*
Y8086D01*
Y8591D02*
Y8741D01*
X10711Y8236D02*
Y8086D01*
Y8591D02*
Y8741D01*
X10706Y8236D02*
Y8086D01*
Y8591D02*
Y8741D01*
X10701Y8236D02*
Y8086D01*
Y8591D02*
Y8741D01*
X10696Y8236D02*
Y8086D01*
Y8591D02*
Y8741D01*
X10691Y8236D02*
Y8086D01*
Y8591D02*
Y8741D01*
X10686Y8236D02*
Y8086D01*
Y8591D02*
Y8741D01*
X10681Y8236D02*
Y8086D01*
Y8591D02*
Y8741D01*
X10676Y8236D02*
Y8086D01*
Y8591D02*
Y8741D01*
X10671Y8236D02*
Y8086D01*
Y8591D02*
Y8741D01*
X10666Y8236D02*
Y8086D01*
Y8591D02*
Y8741D01*
X10661Y8236D02*
Y8086D01*
Y8591D02*
Y8741D01*
X10656Y8236D02*
Y8086D01*
Y8591D02*
Y8741D01*
X10651Y8236D02*
Y8086D01*
Y8591D02*
Y8741D01*
X10646Y8236D02*
Y8086D01*
Y8591D02*
Y8741D01*
X10641Y8086D02*
Y8076D01*
Y8086D02*
Y8236D01*
Y8246D01*
Y8581D02*
Y8591D01*
Y8741D01*
X10636Y8251D02*
Y8071D01*
Y8576D02*
Y8741D01*
X10631Y8256D02*
Y8066D01*
Y8571D02*
Y8741D01*
X10626Y8261D02*
Y8061D01*
Y8566D02*
Y8741D01*
X10621Y8266D02*
Y8056D01*
Y8561D02*
Y8741D01*
X10616Y8271D02*
Y8051D01*
Y8556D02*
Y8741D01*
X10611Y8276D02*
Y8046D01*
Y8551D02*
Y8741D01*
X10606Y8281D02*
Y8041D01*
Y8546D02*
Y8741D01*
X10601Y8036D02*
Y8001D01*
Y8036D02*
Y8286D01*
Y8541D01*
Y8741D01*
X10596Y8018D02*
Y8001D01*
Y8018D02*
Y8044D01*
Y8741D01*
X10591Y8014D02*
Y8006D01*
Y8048D02*
Y8056D01*
Y8741D01*
X10586Y8468D02*
Y8056D01*
Y8468D02*
Y8494D01*
Y8741D01*
X10581Y8456D02*
Y8056D01*
Y8456D02*
Y8464D01*
Y8498D02*
Y8506D01*
Y8741D01*
X10576Y8456D02*
Y8056D01*
Y8506D02*
Y8741D01*
X10571Y8456D02*
Y8056D01*
Y8506D02*
Y8741D01*
X10566Y8456D02*
Y8056D01*
Y8506D02*
Y8741D01*
X10561Y8456D02*
Y8056D01*
Y8506D02*
Y8741D01*
X10756Y7041D02*
Y6891D01*
Y7616D02*
Y7716D01*
X10751Y7041D02*
Y6891D01*
Y7616D02*
Y7716D01*
X10746Y7041D02*
Y6891D01*
Y7616D02*
Y7716D01*
X10741Y7041D02*
Y6891D01*
Y7616D02*
Y7716D01*
X10736Y7041D02*
Y6891D01*
Y7616D02*
Y7716D01*
X10731Y7041D02*
Y6891D01*
Y7616D02*
Y7716D01*
X10726Y7041D02*
Y6891D01*
Y7616D02*
Y7716D01*
X10721Y7041D02*
Y6891D01*
Y7616D02*
Y7716D01*
X10716Y7041D02*
Y6891D01*
Y7616D02*
Y7716D01*
X10711Y7041D02*
Y6891D01*
Y7616D02*
Y7716D01*
X10706Y7041D02*
Y6891D01*
Y7616D02*
Y7716D01*
X10701Y7041D02*
Y6891D01*
Y7616D02*
Y7716D01*
X10696Y7041D02*
Y6891D01*
Y7616D02*
Y7716D01*
X10691Y7041D02*
Y6891D01*
Y7616D02*
Y7716D01*
X10686Y7041D02*
Y6891D01*
Y7616D02*
Y7716D01*
X10681Y7041D02*
Y6891D01*
Y7616D02*
Y7716D01*
X10676Y7041D02*
Y6891D01*
Y7616D02*
Y7716D01*
X10671Y7041D02*
Y6891D01*
Y7616D02*
Y7716D01*
X10666Y7041D02*
Y6891D01*
Y7616D02*
Y7716D01*
X10661Y7041D02*
Y6891D01*
Y7616D02*
Y7716D01*
X10656Y7041D02*
Y6891D01*
Y7616D02*
Y7716D01*
X10651Y7041D02*
Y6891D01*
Y7616D02*
Y7716D01*
X10646Y7041D02*
Y6891D01*
Y7041D02*
Y7051D01*
Y7606D02*
Y7616D01*
Y7716D01*
X10641Y7056D02*
Y6891D01*
Y7601D02*
Y7716D01*
Y7726D01*
X10636Y7061D02*
Y6891D01*
Y7596D02*
Y7731D01*
X10631Y7066D02*
Y6891D01*
Y7591D02*
Y7736D01*
X10626Y7071D02*
Y6891D01*
Y7586D02*
Y7741D01*
X10621Y7076D02*
Y6891D01*
Y7581D02*
Y7746D01*
X10616Y7081D02*
Y6891D01*
Y7576D02*
Y7751D01*
X10611Y7086D02*
Y6891D01*
Y7571D02*
Y7756D01*
X10606Y7091D02*
Y6891D01*
Y7091D02*
Y7566D01*
Y7761D01*
X10601Y7766D02*
Y6891D01*
Y7766D02*
Y8036D01*
X10596Y7054D02*
Y6891D01*
Y7054D02*
Y7078D01*
Y8018D01*
Y8036D01*
X10591Y7041D02*
Y6891D01*
Y7041D02*
Y7048D01*
Y7084D02*
Y7091D01*
Y8006D01*
X10586Y7041D02*
Y6891D01*
Y7091D02*
Y8006D01*
X10581Y7041D02*
Y6891D01*
Y7091D02*
Y7534D01*
Y7558D01*
Y8006D01*
X10576Y7041D02*
Y6891D01*
Y7091D02*
Y7521D01*
Y7528D01*
Y7564D02*
Y7571D01*
Y8006D01*
X10571Y7041D02*
Y6891D01*
Y7091D02*
Y7521D01*
Y7571D02*
Y8006D01*
X10566Y7041D02*
Y6891D01*
Y7091D02*
Y7521D01*
Y7571D02*
Y8006D01*
X10561Y7041D02*
Y6891D01*
Y7091D02*
Y7521D01*
Y7571D02*
Y8006D01*
X10756Y8256D02*
Y8501D01*
Y8508D01*
Y8544D02*
Y8551D01*
Y8571D01*
Y8761D02*
Y9326D01*
X10751Y8514D02*
Y8256D01*
Y8514D02*
Y8538D01*
Y8571D01*
Y8761D02*
Y9326D01*
X10746Y8571D02*
Y8256D01*
Y8761D02*
Y9326D01*
X10741Y8571D02*
Y8256D01*
Y8761D02*
Y9326D01*
X10736Y8571D02*
Y8256D01*
Y8761D02*
Y9326D01*
X10731Y8571D02*
Y8256D01*
Y8761D02*
Y9326D01*
X10726Y8571D02*
Y8256D01*
Y8761D02*
Y9326D01*
X10721Y8571D02*
Y8256D01*
Y8761D02*
Y9326D01*
X10716Y8571D02*
Y8256D01*
Y8761D02*
Y9326D01*
X10711Y8571D02*
Y8256D01*
Y8761D02*
Y9326D01*
X10706Y8571D02*
Y8256D01*
Y8761D02*
Y9326D01*
X10701Y8571D02*
Y8256D01*
Y8761D02*
Y9326D01*
X10696Y8571D02*
Y8256D01*
Y8761D02*
Y9326D01*
X10691Y8571D02*
Y8256D01*
Y8761D02*
Y9326D01*
X10686Y8571D02*
Y8256D01*
Y8761D02*
Y9326D01*
X10681Y8571D02*
Y8256D01*
Y8761D02*
Y9326D01*
X10676Y8571D02*
Y8256D01*
Y8761D02*
Y9326D01*
X10671Y8571D02*
Y8256D01*
Y8761D02*
Y9326D01*
X10666Y8571D02*
Y8256D01*
Y8761D02*
Y9326D01*
X10661Y8571D02*
Y8261D01*
Y8761D02*
Y9326D01*
X10656Y8566D02*
Y8266D01*
Y8761D02*
Y9326D01*
X10651Y8561D02*
Y8271D01*
Y8761D02*
Y9326D01*
X10646Y8556D02*
Y8276D01*
Y8761D02*
Y9326D01*
X10641Y8551D02*
Y8281D01*
Y8761D02*
Y9326D01*
X10636Y8546D02*
Y8286D01*
Y8761D02*
Y9326D01*
X10631Y8541D02*
Y8291D01*
Y8761D02*
Y9326D01*
X10626Y8536D02*
Y8296D01*
Y8761D02*
Y9326D01*
X10621D02*
Y8761D01*
X10616D02*
Y9326D01*
X10611D02*
Y8761D01*
X10606D02*
Y9326D01*
X10601D02*
Y8761D01*
X10596D02*
Y9326D01*
X10591D02*
Y8761D01*
X10586D02*
Y9326D01*
X10581D02*
Y8761D01*
X10576D02*
Y9326D01*
X10571D02*
Y8761D01*
X10566D02*
Y9326D01*
X10561D02*
Y8761D01*
X10621Y8531D02*
Y8301D01*
X10756Y7596D02*
Y7061D01*
Y7736D02*
Y8066D01*
X10751Y7596D02*
Y7061D01*
Y7736D02*
Y8066D01*
X10746Y7596D02*
Y7061D01*
Y7736D02*
Y8066D01*
X10741Y7596D02*
Y7061D01*
Y7736D02*
Y8066D01*
X10736Y7596D02*
Y7061D01*
Y7736D02*
Y8066D01*
X10731Y7596D02*
Y7061D01*
Y7736D02*
Y8066D01*
X10726Y7596D02*
Y7061D01*
Y7736D02*
Y8066D01*
X10721Y7596D02*
Y7061D01*
Y7736D02*
Y8066D01*
X10716Y7596D02*
Y7061D01*
Y7736D02*
Y8066D01*
X10711Y7596D02*
Y7061D01*
Y7736D02*
Y8066D01*
X10706Y7596D02*
Y7061D01*
Y7736D02*
Y8066D01*
X10701Y7596D02*
Y7061D01*
Y7736D02*
Y8066D01*
X10696Y7596D02*
Y7061D01*
Y7736D02*
Y8066D01*
X10691Y7596D02*
Y7061D01*
Y7736D02*
Y8066D01*
X10686Y7596D02*
Y7061D01*
Y7736D02*
Y8066D01*
X10681Y7596D02*
Y7061D01*
Y7736D02*
Y8066D01*
X10676Y7596D02*
Y7061D01*
Y7736D02*
Y8066D01*
X10671Y7596D02*
Y7061D01*
Y7736D02*
Y8066D01*
X10666Y7596D02*
Y7061D01*
Y7736D02*
Y8066D01*
X10661Y7591D02*
Y7066D01*
Y7736D02*
Y8066D01*
X10656Y7586D02*
Y7071D01*
Y7741D02*
Y8061D01*
X10651Y7581D02*
Y7076D01*
Y7746D02*
Y8056D01*
X10646Y7576D02*
Y7081D01*
Y7751D02*
Y8051D01*
X10641Y7571D02*
Y7086D01*
Y7756D02*
Y8046D01*
X10636Y7566D02*
Y7091D01*
Y7761D02*
Y8041D01*
X10631Y7561D02*
Y7096D01*
Y7766D02*
Y8036D01*
X10626Y8031D02*
Y7771D01*
Y7556D02*
Y7101D01*
X10621Y7776D02*
Y8026D01*
X10596Y8018D02*
X10584Y8006D01*
X10596Y8044D02*
X10584Y8056D01*
X10574Y8456D02*
X10586Y8468D01*
Y8494D02*
X10574Y8506D01*
X10651Y8086D02*
X10601Y8036D01*
X10651Y8236D02*
X10601Y8286D01*
Y8541D02*
X10651Y8591D01*
X10596Y7054D02*
X10584Y7041D01*
X10596Y7078D02*
X10584Y7091D01*
X10568Y7521D02*
X10581Y7534D01*
Y7558D02*
X10568Y7571D01*
X10651Y7716D02*
X10601Y7766D01*
X10656Y7616D02*
X10606Y7566D01*
Y7091D02*
X10656Y7041D01*
X10751Y8538D02*
X10764Y8551D01*
X10751Y8514D02*
X10764Y8501D01*
X10661Y8571D02*
X10621Y8531D01*
Y8301D02*
X10666Y8256D01*
X10626Y7101D02*
X10666Y7061D01*
X10626Y7556D02*
X10666Y7596D01*
X10661Y7736D02*
X10621Y7776D01*
Y8026D02*
X10661Y8066D01*
X10951Y8086D02*
Y8236D01*
Y8591D02*
Y8741D01*
X10946Y8236D02*
Y8086D01*
Y8591D02*
Y8741D01*
X10941Y8236D02*
Y8086D01*
Y8591D02*
Y8741D01*
X10936Y8236D02*
Y8086D01*
Y8591D02*
Y8741D01*
X10931Y8236D02*
Y8086D01*
Y8591D02*
Y8741D01*
X10926Y8236D02*
Y8086D01*
Y8591D02*
Y8741D01*
X10921Y8236D02*
Y8086D01*
Y8591D02*
Y8741D01*
X10916Y8236D02*
Y8086D01*
Y8591D02*
Y8741D01*
X10911Y8236D02*
Y8086D01*
Y8591D02*
Y8741D01*
X10906Y8236D02*
Y8086D01*
Y8591D02*
Y8741D01*
X10901Y8236D02*
Y8086D01*
Y8591D02*
Y8741D01*
X10896Y8236D02*
Y8086D01*
Y8591D02*
Y8741D01*
X10891Y8236D02*
Y8086D01*
Y8591D02*
Y8741D01*
X10886Y8236D02*
Y8086D01*
Y8591D02*
Y8741D01*
X10881Y8236D02*
Y8086D01*
Y8591D02*
Y8741D01*
X10876Y8236D02*
Y8086D01*
Y8591D02*
Y8741D01*
X10871Y8236D02*
Y8086D01*
Y8591D02*
Y8741D01*
X10866Y8236D02*
Y8086D01*
Y8591D02*
Y8741D01*
X10861Y8236D02*
Y8086D01*
Y8591D02*
Y8741D01*
X10856Y8236D02*
Y8086D01*
Y8591D02*
Y8741D01*
X10851Y8236D02*
Y8086D01*
Y8591D02*
Y8741D01*
X10846Y8236D02*
Y8086D01*
Y8591D02*
Y8741D01*
X10841Y8236D02*
Y8086D01*
Y8591D02*
Y8741D01*
X10836Y8236D02*
Y8086D01*
Y8591D02*
Y8741D01*
X10831Y8236D02*
Y8086D01*
Y8591D02*
Y8741D01*
X10826Y8236D02*
Y8086D01*
Y8591D02*
Y8741D01*
X10821Y8236D02*
Y8086D01*
Y8591D02*
Y8741D01*
X10816Y8236D02*
Y8086D01*
Y8591D02*
Y8741D01*
X10811Y8236D02*
Y8086D01*
Y8591D02*
Y8741D01*
X10806Y8236D02*
Y8086D01*
Y8591D02*
Y8741D01*
X10801Y8236D02*
Y8086D01*
Y8591D02*
Y8741D01*
X10796Y8236D02*
Y8086D01*
Y8591D02*
Y8741D01*
X10791Y8236D02*
Y8086D01*
Y8591D02*
Y8741D01*
X10786Y8236D02*
Y8086D01*
Y8591D02*
Y8741D01*
X10781Y8236D02*
Y8086D01*
Y8591D02*
Y8741D01*
X10776Y8236D02*
Y8086D01*
Y8591D02*
Y8741D01*
X10771Y8236D02*
Y8086D01*
Y8591D02*
Y8741D01*
X10766Y8236D02*
Y8086D01*
Y8591D02*
Y8741D01*
X10761Y8236D02*
Y8086D01*
Y8591D02*
Y8741D01*
X10951Y7016D02*
Y6681D01*
Y7616D02*
Y7716D01*
X10946Y7021D02*
Y6686D01*
Y7616D02*
Y7716D01*
X10941Y7026D02*
Y6691D01*
Y7616D02*
Y7716D01*
X10936Y7031D02*
Y6696D01*
Y7616D02*
Y7716D01*
X10931Y7036D02*
Y6831D01*
Y7616D02*
Y7716D01*
X10926Y7041D02*
Y6836D01*
Y7616D02*
Y7716D01*
X10921Y7041D02*
Y6841D01*
Y7616D02*
Y7716D01*
X10916Y7041D02*
Y6846D01*
Y7616D02*
Y7716D01*
X10911Y7041D02*
Y6851D01*
Y7616D02*
Y7716D01*
X10906Y7041D02*
Y6856D01*
Y7616D02*
Y7716D01*
X10901Y7026D02*
Y6861D01*
Y7026D02*
Y7036D01*
Y7616D02*
Y7716D01*
X10896Y7026D02*
Y6866D01*
Y7616D02*
Y7716D01*
X10891Y7026D02*
Y6871D01*
Y7616D02*
Y7716D01*
X10886Y7026D02*
Y6876D01*
Y7616D02*
Y7716D01*
X10881Y7026D02*
Y6881D01*
Y7616D02*
Y7716D01*
X10876Y7026D02*
Y6891D01*
Y7616D02*
Y7716D01*
X10871Y7026D02*
Y6891D01*
Y7616D02*
Y7716D01*
X10866Y7026D02*
Y6891D01*
Y7616D02*
Y7716D01*
X10861Y7026D02*
Y6891D01*
Y7616D02*
Y7716D01*
X10856Y7036D02*
Y6891D01*
Y7616D02*
Y7716D01*
X10851Y7041D02*
Y6891D01*
Y7616D02*
Y7716D01*
X10846Y7041D02*
Y6891D01*
Y7616D02*
Y7716D01*
X10841Y7041D02*
Y6891D01*
Y7616D02*
Y7716D01*
X10836Y7041D02*
Y6891D01*
Y7616D02*
Y7716D01*
X10831Y7041D02*
Y6891D01*
Y7616D02*
Y7716D01*
X10826Y7041D02*
Y6891D01*
Y7616D02*
Y7716D01*
X10821Y7041D02*
Y6891D01*
Y7616D02*
Y7716D01*
X10816Y7041D02*
Y6891D01*
Y7616D02*
Y7716D01*
X10811Y7041D02*
Y6891D01*
Y7616D02*
Y7716D01*
X10806Y7041D02*
Y6891D01*
Y7616D02*
Y7716D01*
X10801Y7041D02*
Y6891D01*
Y7616D02*
Y7716D01*
X10796Y7041D02*
Y6891D01*
Y7616D02*
Y7716D01*
X10791Y7041D02*
Y6891D01*
Y7616D02*
Y7716D01*
X10786Y7041D02*
Y6891D01*
Y7616D02*
Y7716D01*
X10781Y7041D02*
Y6891D01*
Y7616D02*
Y7716D01*
X10776Y7041D02*
Y6891D01*
Y7616D02*
Y7716D01*
X10771Y7041D02*
Y6891D01*
Y7616D02*
Y7716D01*
X10766Y7041D02*
Y6891D01*
Y7616D02*
Y7716D01*
X10761Y7041D02*
Y6891D01*
Y7616D02*
Y7716D01*
X10904Y7041D02*
Y7038D01*
X10854D02*
Y7041D01*
X10931Y6831D02*
Y6701D01*
X10951Y8256D02*
Y8350D01*
Y8358D01*
Y8392D02*
Y8400D01*
Y8571D01*
Y8761D02*
Y9326D01*
X10946Y8362D02*
Y8256D01*
Y8362D02*
Y8388D01*
Y8571D01*
Y8761D02*
Y9326D01*
X10941Y8571D02*
Y8256D01*
Y8761D02*
Y9326D01*
X10936Y8571D02*
Y8256D01*
Y8761D02*
Y9326D01*
X10931Y8571D02*
Y8256D01*
Y8761D02*
Y9326D01*
X10926Y8571D02*
Y8256D01*
Y8761D02*
Y9326D01*
X10921Y8571D02*
Y8256D01*
Y8761D02*
Y9326D01*
X10916Y8571D02*
Y8256D01*
Y8761D02*
Y9326D01*
X10911Y8571D02*
Y8256D01*
Y8761D02*
Y9326D01*
X10906Y8571D02*
Y8256D01*
Y8761D02*
Y8884D01*
Y8908D01*
Y9326D01*
X10901Y8571D02*
Y8256D01*
Y8761D02*
Y8871D01*
Y8878D01*
Y8914D02*
Y8921D01*
Y9326D01*
X10896Y8571D02*
Y8256D01*
Y8761D02*
Y8871D01*
Y8921D02*
Y9326D01*
X10891Y8571D02*
Y8256D01*
Y8761D02*
Y8871D01*
Y8921D02*
Y9326D01*
X10886Y8571D02*
Y8256D01*
Y8761D02*
Y8871D01*
Y8921D02*
Y9326D01*
X10881Y8571D02*
Y8256D01*
Y8761D02*
Y8871D01*
Y8921D02*
Y9326D01*
X10876Y8571D02*
Y8256D01*
Y8761D02*
Y8871D01*
Y8921D02*
Y9326D01*
X10871Y8571D02*
Y8256D01*
Y8761D02*
Y8871D01*
Y8921D02*
Y9326D01*
X10866Y8571D02*
Y8256D01*
Y8761D02*
Y8871D01*
Y8921D02*
Y9326D01*
X10861Y8571D02*
Y8256D01*
Y8761D02*
Y8871D01*
Y8878D01*
Y8914D02*
Y8921D01*
Y9326D01*
X10856Y8571D02*
Y8256D01*
Y8761D02*
Y8884D01*
Y8908D01*
Y9326D01*
X10851Y8571D02*
Y8256D01*
Y8761D02*
Y9326D01*
X10846Y8571D02*
Y8256D01*
Y8761D02*
Y9326D01*
X10841Y8571D02*
Y8256D01*
Y8761D02*
Y9326D01*
X10836Y8571D02*
Y8256D01*
Y8761D02*
Y9326D01*
X10831Y8571D02*
Y8256D01*
Y8761D02*
Y9326D01*
X10826Y8571D02*
Y8256D01*
Y8761D02*
Y9326D01*
X10821Y8571D02*
Y8256D01*
Y8761D02*
Y9326D01*
X10816Y8571D02*
Y8256D01*
Y8761D02*
Y9326D01*
X10811Y8571D02*
Y8256D01*
Y8761D02*
Y9326D01*
X10806Y8571D02*
Y8256D01*
Y8761D02*
Y9326D01*
X10801Y8514D02*
Y8256D01*
Y8514D02*
Y8538D01*
Y8571D01*
Y8761D02*
Y9326D01*
X10796Y8501D02*
Y8256D01*
Y8501D02*
Y8508D01*
Y8544D02*
Y8551D01*
Y8571D01*
Y8761D02*
Y9326D01*
X10791Y8501D02*
Y8256D01*
Y8551D02*
Y8571D01*
Y8761D02*
Y9326D01*
X10786Y8501D02*
Y8256D01*
Y8551D02*
Y8571D01*
Y8761D02*
Y9326D01*
X10781Y8501D02*
Y8256D01*
Y8551D02*
Y8571D01*
Y8761D02*
Y9326D01*
X10776Y8501D02*
Y8256D01*
Y8551D02*
Y8571D01*
Y8761D02*
Y9326D01*
X10771Y8501D02*
Y8256D01*
Y8551D02*
Y8571D01*
Y8761D02*
Y9326D01*
X10766Y8501D02*
Y8256D01*
Y8551D02*
Y8571D01*
Y8761D02*
Y9326D01*
X10761Y8501D02*
Y8256D01*
Y8551D02*
Y8571D01*
Y8761D02*
Y9326D01*
X10951Y7596D02*
Y7046D01*
Y7736D02*
Y8066D01*
X10946Y7596D02*
Y7051D01*
Y7736D02*
Y8066D01*
X10941Y7596D02*
Y7061D01*
Y7736D02*
Y8066D01*
X10936Y7596D02*
Y7061D01*
Y7736D02*
Y8066D01*
X10931Y7596D02*
Y7061D01*
Y7736D02*
Y8066D01*
X10926Y7596D02*
Y7061D01*
Y7736D02*
Y8066D01*
X10921Y7596D02*
Y7061D01*
Y7736D02*
Y8066D01*
X10916Y7596D02*
Y7061D01*
Y7736D02*
Y8066D01*
X10911Y7596D02*
Y7061D01*
Y7736D02*
Y8066D01*
X10906Y7596D02*
Y7061D01*
Y7736D02*
Y8066D01*
X10901Y7076D02*
Y7066D01*
Y7076D02*
Y7596D01*
Y7736D02*
Y8066D01*
X10896Y7596D02*
Y7076D01*
Y7736D02*
Y8066D01*
X10891Y7596D02*
Y7076D01*
Y7736D02*
Y8066D01*
X10886Y7596D02*
Y7076D01*
Y7736D02*
Y8066D01*
X10881Y7596D02*
Y7076D01*
Y7736D02*
Y8066D01*
X10876Y7596D02*
Y7076D01*
Y7736D02*
Y8066D01*
X10871Y7596D02*
Y7076D01*
Y7736D02*
Y8066D01*
X10866Y7596D02*
Y7076D01*
Y7736D02*
Y8066D01*
X10861Y7596D02*
Y7076D01*
Y7736D02*
Y8066D01*
X10856Y7596D02*
Y7066D01*
Y7736D02*
Y8066D01*
X10851Y7596D02*
Y7061D01*
Y7736D02*
Y8066D01*
X10846Y7596D02*
Y7061D01*
Y7736D02*
Y8066D01*
X10841Y7596D02*
Y7061D01*
Y7736D02*
Y8066D01*
X10836Y7596D02*
Y7061D01*
Y7736D02*
Y8066D01*
X10831Y7596D02*
Y7061D01*
Y7736D02*
Y8066D01*
X10826Y7596D02*
Y7061D01*
Y7736D02*
Y8066D01*
X10821Y7596D02*
Y7061D01*
Y7736D02*
Y8066D01*
X10816Y7596D02*
Y7061D01*
Y7736D02*
Y8066D01*
X10811Y7524D02*
Y7061D01*
Y7524D02*
Y7548D01*
Y7596D01*
Y7736D02*
Y8008D01*
Y8034D01*
Y8066D01*
X10806Y7511D02*
Y7061D01*
Y7511D02*
Y7518D01*
Y7554D02*
Y7561D01*
Y7596D01*
Y7736D02*
Y7996D01*
Y8004D01*
Y8038D02*
Y8046D01*
Y8066D01*
X10801Y7511D02*
Y7061D01*
Y7561D02*
Y7596D01*
Y7736D02*
Y7996D01*
Y8046D02*
Y8066D01*
X10796Y7511D02*
Y7061D01*
Y7561D02*
Y7596D01*
Y7736D02*
Y7996D01*
Y8046D02*
Y8066D01*
X10791Y7511D02*
Y7061D01*
Y7561D02*
Y7596D01*
Y7736D02*
Y7996D01*
Y8046D02*
Y8066D01*
X10786Y7511D02*
Y7061D01*
Y7561D02*
Y7596D01*
Y7736D02*
Y7996D01*
Y8046D02*
Y8066D01*
X10781Y7511D02*
Y7061D01*
Y7561D02*
Y7596D01*
Y7736D02*
Y7996D01*
Y8046D02*
Y8066D01*
X10776Y7511D02*
Y7061D01*
Y7561D02*
Y7596D01*
Y7736D02*
Y7996D01*
Y8046D02*
Y8066D01*
X10771Y7511D02*
Y7061D01*
Y7561D02*
Y7596D01*
Y7736D02*
Y7996D01*
Y8046D02*
Y8066D01*
X10766Y7511D02*
Y7061D01*
Y7511D02*
Y7518D01*
Y7554D02*
Y7561D01*
Y7596D01*
Y7736D02*
Y7996D01*
Y8004D01*
Y8038D02*
Y8046D01*
Y8066D01*
X10761Y7524D02*
Y7061D01*
Y7524D02*
Y7548D01*
Y7596D01*
Y7736D02*
Y8008D01*
Y8034D01*
Y8066D01*
X10904Y7064D02*
Y7061D01*
X10854D02*
Y7064D01*
X10892Y7026D02*
X10904Y7038D01*
X10866Y7026D02*
X10854Y7038D01*
X10931Y6701D02*
X10981Y6651D01*
X10931Y6831D02*
X10871Y6891D01*
X10946Y8388D02*
X10958Y8400D01*
X10946Y8362D02*
X10958Y8350D01*
X10801Y8514D02*
X10788Y8501D01*
X10801Y8538D02*
X10788Y8551D01*
X10894Y8871D02*
X10906Y8884D01*
Y8908D02*
X10894Y8921D01*
X10868D02*
X10856Y8908D01*
Y8884D02*
X10868Y8871D01*
X10892Y7076D02*
X10904Y7064D01*
X10866Y7076D02*
X10854Y7064D01*
X10798Y7996D02*
X10811Y8008D01*
Y8034D02*
X10798Y8046D01*
X10774D02*
X10761Y8034D01*
Y8008D02*
X10774Y7996D01*
X10811Y7524D02*
X10798Y7511D01*
X10811Y7548D02*
X10798Y7561D01*
X10774D02*
X10761Y7548D01*
Y7524D02*
X10774Y7511D01*
X11146Y8086D02*
Y8236D01*
Y8446D02*
Y8626D01*
X11141Y8236D02*
Y8086D01*
Y8446D02*
Y8631D01*
X11136Y8236D02*
Y8086D01*
Y8451D02*
Y8636D01*
X11131Y8236D02*
Y8086D01*
Y8456D02*
Y8641D01*
X11126Y8236D02*
Y8086D01*
Y8461D02*
Y8646D01*
Y8671D01*
X11121Y8236D02*
Y8086D01*
Y8466D02*
Y8651D01*
Y8671D01*
X11116Y8236D02*
Y8086D01*
Y8471D02*
Y8671D01*
X11111Y8236D02*
Y8086D01*
Y8476D02*
Y8671D01*
X11106Y8236D02*
Y8086D01*
Y8481D02*
Y8671D01*
X11101Y8236D02*
Y8086D01*
Y8486D02*
Y8671D01*
X11096Y8236D02*
Y8086D01*
Y8491D02*
Y8671D01*
Y8681D01*
X11091Y8236D02*
Y8086D01*
Y8496D02*
Y8686D01*
X11086Y8236D02*
Y8086D01*
Y8501D02*
Y8691D01*
X11081Y8236D02*
Y8086D01*
Y8506D02*
Y8696D01*
X11076Y8236D02*
Y8086D01*
Y8511D02*
Y8701D01*
X11071Y8236D02*
Y8086D01*
Y8516D02*
Y8706D01*
X11066Y8236D02*
Y8086D01*
Y8521D02*
Y8711D01*
X11061Y8236D02*
Y8086D01*
Y8526D02*
Y8716D01*
X11056Y8236D02*
Y8086D01*
Y8531D02*
Y8721D01*
X11051Y8236D02*
Y8086D01*
Y8536D02*
Y8726D01*
X11046Y8236D02*
Y8086D01*
Y8541D02*
Y8731D01*
X11041Y8236D02*
Y8086D01*
Y8546D02*
Y8736D01*
X11036Y8236D02*
Y8086D01*
Y8551D02*
Y8741D01*
X11031Y8236D02*
Y8086D01*
Y8556D02*
Y8741D01*
X11026Y8236D02*
Y8086D01*
Y8561D02*
Y8741D01*
X11021Y8236D02*
Y8086D01*
Y8566D02*
Y8741D01*
X11016Y8236D02*
Y8086D01*
Y8571D02*
Y8741D01*
X11011Y8236D02*
Y8086D01*
Y8576D02*
Y8741D01*
X11006Y8236D02*
Y8086D01*
Y8581D02*
Y8741D01*
X11001Y8236D02*
Y8086D01*
Y8591D02*
Y8741D01*
X10996Y8236D02*
Y8086D01*
Y8591D02*
Y8741D01*
X10991Y8236D02*
Y8086D01*
Y8591D02*
Y8741D01*
X10986Y8236D02*
Y8086D01*
Y8591D02*
Y8741D01*
X10981Y8236D02*
Y8086D01*
Y8591D02*
Y8741D01*
X10976Y8236D02*
Y8086D01*
Y8591D02*
Y8741D01*
X10971Y8236D02*
Y8086D01*
Y8591D02*
Y8741D01*
X10966Y8236D02*
Y8086D01*
Y8591D02*
Y8741D01*
X10961Y8236D02*
Y8086D01*
Y8591D02*
Y8741D01*
X10956Y8236D02*
Y8086D01*
Y8591D02*
Y8741D01*
X11120Y8671D02*
Y8653D01*
X11146Y6851D02*
Y6651D01*
Y7616D02*
Y7716D01*
X11141Y6851D02*
Y6651D01*
Y7616D02*
Y7716D01*
X11136Y6851D02*
Y6651D01*
Y7616D02*
Y7716D01*
X11131Y6851D02*
Y6651D01*
Y7616D02*
Y7716D01*
X11126Y6851D02*
Y6651D01*
Y7616D02*
Y7716D01*
X11121Y6851D02*
Y6651D01*
Y7616D02*
Y7716D01*
X11116Y6851D02*
Y6651D01*
Y7616D02*
Y7716D01*
X11111Y6851D02*
Y6651D01*
Y7616D02*
Y7716D01*
X11106Y6851D02*
Y6651D01*
Y6851D02*
Y6861D01*
Y7616D02*
Y7716D01*
X11101Y6866D02*
Y6651D01*
Y7616D02*
Y7716D01*
X11096Y6871D02*
Y6651D01*
Y7616D02*
Y7716D01*
X11091Y6876D02*
Y6651D01*
Y7616D02*
Y7716D01*
X11086Y6876D02*
Y6651D01*
Y7616D02*
Y7716D01*
X11081Y6876D02*
Y6651D01*
Y7616D02*
Y7716D01*
X11076Y6876D02*
Y6651D01*
Y7616D02*
Y7716D01*
X11071Y6876D02*
Y6651D01*
Y7616D02*
Y7716D01*
X11066Y6876D02*
Y6651D01*
Y7616D02*
Y7716D01*
X11061Y6876D02*
Y6651D01*
Y7616D02*
Y7716D01*
X11056Y6876D02*
Y6651D01*
Y6876D02*
Y6884D01*
Y7616D02*
Y7716D01*
X11051Y6888D02*
Y6651D01*
Y6888D02*
Y6914D01*
Y7616D02*
Y7716D01*
X11046Y6921D02*
Y6651D01*
Y7616D02*
Y7716D01*
X11041Y6926D02*
Y6651D01*
Y7616D02*
Y7716D01*
X11036Y6931D02*
Y6651D01*
Y7616D02*
Y7716D01*
X11031Y6936D02*
Y6651D01*
Y7616D02*
Y7716D01*
X11026Y6941D02*
Y6651D01*
Y7616D02*
Y7716D01*
X11021Y6946D02*
Y6651D01*
Y7616D02*
Y7716D01*
X11016Y6951D02*
Y6651D01*
Y7616D02*
Y7716D01*
X11011Y6956D02*
Y6651D01*
Y7616D02*
Y7716D01*
X11006Y6961D02*
Y6651D01*
Y7616D02*
Y7716D01*
X11001Y6966D02*
Y6651D01*
Y7616D02*
Y7716D01*
X10996Y6971D02*
Y6651D01*
Y7616D02*
Y7716D01*
X10991Y6976D02*
Y6651D01*
Y7616D02*
Y7716D01*
X10986Y6981D02*
Y6651D01*
Y7616D02*
Y7716D01*
X10981Y6986D02*
Y6651D01*
Y7616D02*
Y7716D01*
X10976Y6991D02*
Y6656D01*
Y7616D02*
Y7716D01*
X10971Y6996D02*
Y6661D01*
Y7616D02*
Y7716D01*
X10966Y7001D02*
Y6666D01*
Y7616D02*
Y7716D01*
X10961Y7006D02*
Y6671D01*
Y7616D02*
Y7716D01*
X10956Y7011D02*
Y6676D01*
Y7616D02*
Y7716D01*
X11051Y6916D02*
Y6914D01*
X11146Y8256D02*
Y8426D01*
Y8828D02*
Y9326D01*
X11141Y8426D02*
Y8256D01*
Y8823D02*
Y9326D01*
X11136Y8426D02*
Y8256D01*
Y8818D02*
Y9326D01*
X11131Y8426D02*
Y8256D01*
Y8813D02*
Y9326D01*
X11126Y8426D02*
Y8256D01*
Y8808D02*
Y9326D01*
X11121Y8426D02*
Y8256D01*
Y8426D02*
Y8436D01*
Y8803D02*
Y9326D01*
X11116Y8441D02*
Y8256D01*
Y8691D02*
Y9326D01*
X11111Y8446D02*
Y8256D01*
Y8696D02*
Y9326D01*
X11106Y8451D02*
Y8256D01*
Y8701D02*
Y9326D01*
X11101Y8456D02*
Y8256D01*
Y8706D02*
Y9326D01*
X11096Y8461D02*
Y8256D01*
Y8711D02*
Y9326D01*
X11091Y8466D02*
Y8256D01*
Y8716D02*
Y9326D01*
X11086Y8471D02*
Y8256D01*
Y8721D02*
Y9326D01*
X11081Y8476D02*
Y8256D01*
Y8726D02*
Y9326D01*
X11076Y8481D02*
Y8256D01*
Y8731D02*
Y9326D01*
X11071Y8486D02*
Y8256D01*
Y8736D02*
Y9326D01*
X11066Y8491D02*
Y8256D01*
Y8741D02*
Y9326D01*
X11061Y8496D02*
Y8256D01*
Y8746D02*
Y9326D01*
X11056Y8501D02*
Y8256D01*
Y8751D02*
Y9326D01*
X11051Y8506D02*
Y8256D01*
Y8761D02*
Y9326D01*
X11046Y8511D02*
Y8256D01*
Y8761D02*
Y9326D01*
X11041Y8516D02*
Y8256D01*
Y8761D02*
Y9326D01*
X11036Y8521D02*
Y8256D01*
Y8761D02*
Y9326D01*
X11031Y8526D02*
Y8256D01*
Y8761D02*
Y9326D01*
X11026Y8531D02*
Y8256D01*
Y8761D02*
Y9326D01*
X11021Y8536D02*
Y8256D01*
Y8761D02*
Y9326D01*
X11016Y8541D02*
Y8256D01*
Y8761D02*
Y9326D01*
X11011Y8546D02*
Y8256D01*
Y8761D02*
Y9326D01*
X11006Y8551D02*
Y8256D01*
Y8761D02*
Y9326D01*
X11001Y8556D02*
Y8256D01*
Y8761D02*
Y9326D01*
X10996Y8362D02*
Y8256D01*
Y8362D02*
Y8388D01*
Y8561D01*
Y8761D02*
Y9326D01*
X10991Y8350D02*
Y8256D01*
Y8350D02*
Y8358D01*
Y8392D02*
Y8400D01*
Y8566D01*
Y8761D02*
Y9326D01*
X10986Y8350D02*
Y8256D01*
Y8400D02*
Y8571D01*
Y8761D02*
Y9326D01*
X10981Y8350D02*
Y8256D01*
Y8400D02*
Y8571D01*
Y8761D02*
Y9326D01*
X10976Y8350D02*
Y8256D01*
Y8400D02*
Y8571D01*
Y8761D02*
Y9326D01*
X10971Y8350D02*
Y8256D01*
Y8400D02*
Y8571D01*
Y8761D02*
Y9326D01*
X10966Y8350D02*
Y8256D01*
Y8400D02*
Y8571D01*
Y8761D02*
Y9326D01*
X10961Y8350D02*
Y8256D01*
Y8400D02*
Y8571D01*
Y8761D02*
Y9326D01*
X10956Y8350D02*
Y8256D01*
Y8400D02*
Y8571D01*
Y8761D02*
Y9326D01*
X11120Y8801D02*
Y8691D01*
X11146Y7209D02*
Y6871D01*
Y7411D02*
Y7596D01*
Y7736D02*
Y8066D01*
X11141Y7214D02*
Y6871D01*
Y7406D02*
Y7596D01*
Y7736D02*
Y8066D01*
X11136Y7219D02*
Y6871D01*
Y7401D02*
Y7596D01*
Y7736D02*
Y8066D01*
X11131Y7224D02*
Y6871D01*
Y7396D02*
Y7596D01*
Y7736D02*
Y8066D01*
X11126Y7229D02*
Y6871D01*
Y7391D02*
Y7596D01*
Y7736D02*
Y8066D01*
X11121Y7234D02*
Y6876D01*
Y7386D02*
Y7596D01*
Y7736D02*
Y8066D01*
X11116Y7368D02*
Y6881D01*
Y7368D02*
Y7394D01*
Y7596D01*
Y7736D02*
Y8066D01*
X11111Y7356D02*
Y6886D01*
Y7356D02*
Y7364D01*
Y7398D02*
Y7406D01*
Y7596D01*
Y7736D02*
Y8066D01*
X11106Y7356D02*
Y6891D01*
Y7406D02*
Y7596D01*
Y7736D02*
Y8066D01*
X11101Y6914D02*
Y6896D01*
Y6914D02*
Y7356D01*
Y7406D02*
Y7596D01*
Y7736D02*
Y8066D01*
X11096Y6926D02*
Y6918D01*
Y6926D02*
Y7356D01*
Y7406D02*
Y7596D01*
Y7736D02*
Y8066D01*
X11091Y7356D02*
Y6926D01*
Y7406D02*
Y7596D01*
Y7736D02*
Y8066D01*
X11086Y7356D02*
Y6926D01*
Y7406D02*
Y7596D01*
Y7736D02*
Y8066D01*
X11081Y7356D02*
Y6926D01*
Y7406D02*
Y7596D01*
Y7736D02*
Y8066D01*
X11076Y7356D02*
Y6926D01*
Y7406D02*
Y7596D01*
Y7736D02*
Y8066D01*
X11071Y7356D02*
Y6926D01*
Y7356D02*
Y7364D01*
Y7398D02*
Y7406D01*
Y7596D01*
Y7736D02*
Y8066D01*
X11066Y7368D02*
Y6931D01*
Y7368D02*
Y7394D01*
Y7596D01*
Y7736D02*
Y8066D01*
X11061Y7596D02*
Y6936D01*
Y7736D02*
Y8066D01*
X11056Y7596D02*
Y6941D01*
Y7736D02*
Y7928D01*
Y7954D01*
Y8066D01*
X11051Y7596D02*
Y6946D01*
Y7736D02*
Y7916D01*
Y7924D01*
Y7958D02*
Y7966D01*
Y8066D01*
X11046Y7596D02*
Y6951D01*
Y7736D02*
Y7916D01*
Y7966D02*
Y8066D01*
X11041Y7596D02*
Y6956D01*
Y7736D02*
Y7916D01*
Y7966D02*
Y8066D01*
X11036Y7596D02*
Y6961D01*
Y7736D02*
Y7916D01*
Y7966D02*
Y8066D01*
X11031Y7596D02*
Y6966D01*
Y7736D02*
Y7916D01*
Y7966D02*
Y8066D01*
X11026Y7596D02*
Y6971D01*
Y7736D02*
Y7916D01*
Y7966D02*
Y8066D01*
X11021Y7596D02*
Y6976D01*
Y7736D02*
Y7916D01*
Y7966D02*
Y8066D01*
X11016Y7596D02*
Y6981D01*
Y7736D02*
Y7916D01*
Y7966D02*
Y8066D01*
X11011Y7596D02*
Y6986D01*
Y7736D02*
Y7916D01*
Y7924D01*
Y7958D02*
Y7966D01*
Y8066D01*
X11006Y7596D02*
Y6991D01*
Y7736D02*
Y7928D01*
Y7954D01*
Y8066D01*
X11001Y7596D02*
Y6996D01*
Y7736D02*
Y8066D01*
X10996Y7596D02*
Y7001D01*
Y7736D02*
Y8066D01*
X10991Y7596D02*
Y7006D01*
Y7736D02*
Y8066D01*
X10986Y7596D02*
Y7011D01*
Y7736D02*
Y8066D01*
X10981Y7596D02*
Y7016D01*
Y7736D02*
Y8066D01*
X10976Y7596D02*
Y7021D01*
Y7736D02*
Y8066D01*
X10971Y7596D02*
Y7026D01*
Y7736D02*
Y8066D01*
X10966Y7596D02*
Y7031D01*
Y7736D02*
Y8066D01*
X10961Y7596D02*
Y7036D01*
Y7736D02*
Y8066D01*
X10956Y7596D02*
Y7041D01*
Y7736D02*
Y8066D01*
X11120Y7384D02*
Y7236D01*
X11194Y8578D02*
X11120Y8653D01*
X11106Y8671D02*
X11036Y8741D01*
X11090Y6877D02*
X11088Y6876D01*
X11051Y6914D02*
X11052Y6915D01*
X11051Y6888D02*
X11064Y6876D01*
X11101Y6866D02*
X11116Y6851D01*
X11101Y6866D02*
X11091Y6876D01*
X11090Y6877D01*
X11052Y6915D02*
X11051Y6916D01*
X11041Y6926D01*
X11120Y8801D02*
X11194Y8876D01*
X10996Y8362D02*
X10984Y8350D01*
X10996Y8388D02*
X10984Y8400D01*
X11116Y8691D02*
X11046Y8761D01*
X11194Y7458D02*
X11120Y7384D01*
Y7236D02*
X11194Y7162D01*
X11088Y6926D02*
X11101Y6914D01*
X11104Y7356D02*
X11116Y7368D01*
Y7394D02*
X11104Y7406D01*
X11078D02*
X11066Y7394D01*
Y7368D02*
X11078Y7356D01*
X11044Y7916D02*
X11056Y7928D01*
Y7954D02*
X11044Y7966D01*
X11018D02*
X11006Y7954D01*
Y7928D02*
X11018Y7916D01*
X11121Y6876D02*
X11126Y6871D01*
X11121Y6876D02*
X11101Y6896D01*
X11071Y6926D02*
X11051Y6946D01*
X11341Y8086D02*
Y8236D01*
Y8446D02*
Y8578D01*
X11336Y8236D02*
Y8086D01*
Y8446D02*
Y8578D01*
X11331Y8236D02*
Y8086D01*
Y8446D02*
Y8578D01*
X11326Y8236D02*
Y8086D01*
Y8446D02*
Y8578D01*
X11321Y8236D02*
Y8086D01*
Y8446D02*
Y8578D01*
X11316Y8236D02*
Y8086D01*
Y8446D02*
Y8578D01*
X11311Y8236D02*
Y8086D01*
Y8446D02*
Y8578D01*
X11306Y8236D02*
Y8086D01*
Y8446D02*
Y8578D01*
X11301Y8236D02*
Y8086D01*
Y8446D02*
Y8578D01*
X11296Y8236D02*
Y8086D01*
Y8446D02*
Y8578D01*
X11291Y8236D02*
Y8086D01*
Y8446D02*
Y8578D01*
X11286Y8236D02*
Y8086D01*
Y8446D02*
Y8578D01*
X11281Y8236D02*
Y8086D01*
Y8446D02*
Y8578D01*
X11276Y8236D02*
Y8086D01*
Y8446D02*
Y8578D01*
X11271Y8236D02*
Y8086D01*
Y8446D02*
Y8578D01*
X11266Y8236D02*
Y8086D01*
Y8446D02*
Y8578D01*
X11261Y8236D02*
Y8086D01*
Y8446D02*
Y8578D01*
X11256Y8236D02*
Y8086D01*
Y8446D02*
Y8578D01*
X11251Y8236D02*
Y8086D01*
Y8446D02*
Y8578D01*
X11246Y8236D02*
Y8086D01*
Y8446D02*
Y8578D01*
X11241Y8236D02*
Y8086D01*
Y8446D02*
Y8578D01*
X11236Y8236D02*
Y8086D01*
Y8446D02*
Y8578D01*
X11231Y8236D02*
Y8086D01*
Y8446D02*
Y8578D01*
X11226Y8236D02*
Y8086D01*
Y8446D02*
Y8578D01*
X11221Y8236D02*
Y8086D01*
Y8446D02*
Y8578D01*
X11216Y8236D02*
Y8086D01*
Y8446D02*
Y8578D01*
X11211Y8236D02*
Y8086D01*
Y8446D02*
Y8578D01*
X11206Y8236D02*
Y8086D01*
Y8446D02*
Y8578D01*
X11201Y8236D02*
Y8086D01*
Y8446D02*
Y8578D01*
X11196Y8236D02*
Y8086D01*
Y8446D02*
Y8578D01*
X11191Y8236D02*
Y8086D01*
Y8446D02*
Y8578D01*
X11186Y8236D02*
Y8086D01*
Y8446D02*
Y8578D01*
Y8586D01*
X11181Y8236D02*
Y8086D01*
Y8446D02*
Y8591D01*
X11176Y8236D02*
Y8086D01*
Y8446D02*
Y8596D01*
X11171Y8236D02*
Y8086D01*
Y8446D02*
Y8601D01*
X11166Y8236D02*
Y8086D01*
Y8446D02*
Y8606D01*
X11161Y8236D02*
Y8086D01*
Y8446D02*
Y8611D01*
X11156Y8236D02*
Y8086D01*
Y8446D02*
Y8616D01*
X11151Y8236D02*
Y8086D01*
Y8446D02*
Y8621D01*
X11341Y6851D02*
Y6651D01*
Y7461D02*
Y7651D01*
X11336Y6851D02*
Y6651D01*
Y7466D02*
Y7656D01*
X11331Y6851D02*
Y6651D01*
Y7471D02*
Y7661D01*
X11326Y6851D02*
Y6651D01*
Y7476D02*
Y7666D01*
X11321Y6851D02*
Y6651D01*
Y7481D02*
Y7671D01*
X11316Y6851D02*
Y6651D01*
Y7486D02*
Y7676D01*
X11311Y6851D02*
Y6651D01*
Y7491D02*
Y7681D01*
X11306Y6851D02*
Y6651D01*
Y7496D02*
Y7686D01*
X11301Y6851D02*
Y6651D01*
Y7501D02*
Y7691D01*
X11296Y6851D02*
Y6651D01*
Y7506D02*
Y7696D01*
X11291Y6851D02*
Y6651D01*
Y7511D02*
Y7701D01*
X11286Y6851D02*
Y6651D01*
Y7516D02*
Y7706D01*
X11281Y6851D02*
Y6651D01*
Y7521D02*
Y7711D01*
X11276Y6851D02*
Y6651D01*
Y7526D02*
Y7716D01*
X11271Y6851D02*
Y6651D01*
Y7531D02*
Y7716D01*
X11266Y6851D02*
Y6651D01*
Y7536D02*
Y7716D01*
X11261Y6851D02*
Y6651D01*
Y7541D02*
Y7716D01*
X11256Y6851D02*
Y6651D01*
Y7546D02*
Y7716D01*
X11251Y6851D02*
Y6651D01*
Y7551D02*
Y7716D01*
X11246Y6851D02*
Y6651D01*
Y7556D02*
Y7716D01*
X11241Y6851D02*
Y6651D01*
Y7561D02*
Y7716D01*
X11236Y6851D02*
Y6651D01*
Y7566D02*
Y7716D01*
X11231Y6851D02*
Y6651D01*
Y7571D02*
Y7716D01*
X11226Y6851D02*
Y6651D01*
Y7576D02*
Y7716D01*
X11221Y6851D02*
Y6651D01*
Y7581D02*
Y7716D01*
X11216Y6851D02*
Y6651D01*
Y7586D02*
Y7716D01*
X11211Y6851D02*
Y6651D01*
Y7591D02*
Y7716D01*
X11206Y6851D02*
Y6651D01*
Y7596D02*
Y7716D01*
X11201Y6851D02*
Y6651D01*
Y7601D02*
Y7716D01*
X11196Y6851D02*
Y6651D01*
Y7606D02*
Y7716D01*
X11191Y6851D02*
Y6651D01*
Y7616D02*
Y7716D01*
X11186Y6851D02*
Y6651D01*
Y7616D02*
Y7716D01*
X11181Y6851D02*
Y6651D01*
Y7616D02*
Y7716D01*
X11176Y6851D02*
Y6651D01*
Y7616D02*
Y7716D01*
X11171Y6851D02*
Y6651D01*
Y7616D02*
Y7716D01*
X11166Y6851D02*
Y6651D01*
Y7616D02*
Y7716D01*
X11161Y6851D02*
Y6651D01*
Y7616D02*
Y7716D01*
X11156Y6851D02*
Y6651D01*
Y7616D02*
Y7716D01*
X11151Y6851D02*
Y6651D01*
Y7616D02*
Y7716D01*
X11341Y8256D02*
Y8426D01*
Y8876D02*
Y9326D01*
X11336Y8426D02*
Y8256D01*
Y8876D02*
Y9326D01*
X11331Y8426D02*
Y8256D01*
Y8876D02*
Y9326D01*
X11326Y8426D02*
Y8256D01*
Y8876D02*
Y9326D01*
X11321Y8426D02*
Y8256D01*
Y8876D02*
Y9326D01*
X11316Y8426D02*
Y8256D01*
Y8876D02*
Y9326D01*
X11311Y8426D02*
Y8256D01*
Y8876D02*
Y9326D01*
X11306Y8426D02*
Y8256D01*
Y8876D02*
Y9326D01*
X11301Y8426D02*
Y8256D01*
Y8876D02*
Y9326D01*
X11296Y8426D02*
Y8256D01*
Y8876D02*
Y9326D01*
X11291Y8426D02*
Y8256D01*
Y8876D02*
Y9326D01*
X11286Y8426D02*
Y8256D01*
Y8876D02*
Y9326D01*
X11281Y8426D02*
Y8256D01*
Y8876D02*
Y9326D01*
X11276Y8426D02*
Y8256D01*
Y8876D02*
Y9326D01*
X11271Y8426D02*
Y8256D01*
Y8876D02*
Y9326D01*
X11266Y8426D02*
Y8256D01*
Y8876D02*
Y9326D01*
X11261Y8426D02*
Y8256D01*
Y8876D02*
Y9326D01*
X11256Y8426D02*
Y8256D01*
Y8876D02*
Y9326D01*
X11251Y8426D02*
Y8256D01*
Y8876D02*
Y9326D01*
X11246Y8426D02*
Y8256D01*
Y8876D02*
Y9326D01*
X11241Y8426D02*
Y8256D01*
Y8876D02*
Y9326D01*
X11236Y8426D02*
Y8256D01*
Y8876D02*
Y9326D01*
X11231Y8426D02*
Y8256D01*
Y8876D02*
Y9326D01*
X11226Y8426D02*
Y8256D01*
Y8876D02*
Y9326D01*
X11221Y8426D02*
Y8256D01*
Y8876D02*
Y9326D01*
X11216Y8426D02*
Y8256D01*
Y8876D02*
Y9326D01*
X11211Y8426D02*
Y8256D01*
Y8876D02*
Y9326D01*
X11206Y8426D02*
Y8256D01*
Y8876D02*
Y9326D01*
X11201Y8426D02*
Y8256D01*
Y8876D02*
Y9326D01*
X11196Y8426D02*
Y8256D01*
Y8876D02*
Y9326D01*
X11191Y8426D02*
Y8256D01*
Y8876D02*
Y9326D01*
X11186Y8426D02*
Y8256D01*
Y8868D02*
Y8876D01*
Y9326D01*
X11181Y8426D02*
Y8256D01*
Y8863D02*
Y9326D01*
X11176Y8426D02*
Y8256D01*
Y8858D02*
Y9326D01*
X11171Y8426D02*
Y8256D01*
Y8853D02*
Y9326D01*
X11166Y8426D02*
Y8256D01*
Y8848D02*
Y9326D01*
X11161Y8426D02*
Y8256D01*
Y8843D02*
Y9326D01*
X11156Y8426D02*
Y8256D01*
Y8838D02*
Y9326D01*
X11151Y8426D02*
Y8256D01*
Y8833D02*
Y9326D01*
X11341Y7162D02*
Y6871D01*
Y7681D02*
Y8066D01*
X11336Y7162D02*
Y6871D01*
Y7686D02*
Y8066D01*
X11331Y7162D02*
Y6871D01*
Y7691D02*
Y8066D01*
X11326Y7162D02*
Y6871D01*
Y7696D02*
Y8066D01*
X11321Y7162D02*
Y6871D01*
Y7701D02*
Y8066D01*
X11316Y7162D02*
Y6871D01*
Y7706D02*
Y8066D01*
X11311Y7162D02*
Y6871D01*
Y7711D02*
Y8066D01*
X11306Y7162D02*
Y6871D01*
Y7458D02*
Y7466D01*
Y7716D02*
Y8066D01*
X11301Y7162D02*
Y6871D01*
Y7458D02*
Y7471D01*
Y7721D02*
Y8066D01*
X11296Y7162D02*
Y6871D01*
Y7458D02*
Y7476D01*
Y7726D02*
Y8066D01*
X11291Y7162D02*
Y6871D01*
Y7458D02*
Y7481D01*
Y7736D02*
Y8066D01*
X11286Y7162D02*
Y6871D01*
Y7458D02*
Y7486D01*
Y7736D02*
Y8066D01*
X11281Y7162D02*
Y6871D01*
Y7458D02*
Y7491D01*
Y7736D02*
Y8066D01*
X11276Y7162D02*
Y6871D01*
Y7458D02*
Y7496D01*
Y7736D02*
Y8066D01*
X11271Y7162D02*
Y6871D01*
Y7458D02*
Y7501D01*
Y7736D02*
Y8066D01*
X11266Y7162D02*
Y6871D01*
Y7458D02*
Y7506D01*
Y7736D02*
Y8066D01*
X11261Y7162D02*
Y6871D01*
Y7458D02*
Y7511D01*
Y7736D02*
Y8066D01*
X11256Y7162D02*
Y6871D01*
Y7458D02*
Y7516D01*
Y7736D02*
Y8066D01*
X11251Y7162D02*
Y6871D01*
Y7458D02*
Y7521D01*
Y7736D02*
Y8066D01*
X11246Y7162D02*
Y6871D01*
Y7458D02*
Y7526D01*
Y7736D02*
Y8066D01*
X11241Y7162D02*
Y6871D01*
Y7458D02*
Y7531D01*
Y7736D02*
Y8066D01*
X11236Y7162D02*
Y6871D01*
Y7458D02*
Y7536D01*
Y7736D02*
Y8066D01*
X11231Y7162D02*
Y6871D01*
Y7458D02*
Y7541D01*
Y7736D02*
Y8066D01*
X11226Y7162D02*
Y6871D01*
Y7458D02*
Y7546D01*
Y7736D02*
Y8066D01*
X11221Y7162D02*
Y6871D01*
Y7458D02*
Y7551D01*
Y7736D02*
Y8066D01*
X11216Y7162D02*
Y6871D01*
Y7458D02*
Y7556D01*
Y7736D02*
Y8066D01*
X11211Y7162D02*
Y6871D01*
Y7458D02*
Y7561D01*
Y7736D02*
Y8066D01*
X11206Y7162D02*
Y6871D01*
Y7458D02*
Y7566D01*
Y7736D02*
Y8066D01*
X11201Y7162D02*
Y6871D01*
Y7458D02*
Y7571D01*
Y7736D02*
Y8066D01*
X11196Y7162D02*
Y6871D01*
Y7458D02*
Y7576D01*
Y7736D02*
Y8066D01*
X11191Y7162D02*
Y6871D01*
Y7458D02*
Y7581D01*
Y7736D02*
Y8066D01*
X11186Y7162D02*
Y6871D01*
Y7162D02*
Y7169D01*
Y7451D02*
Y7458D01*
Y7586D01*
Y7736D02*
Y8066D01*
X11181Y7174D02*
Y6871D01*
Y7446D02*
Y7591D01*
Y7736D02*
Y8066D01*
X11176Y7179D02*
Y6871D01*
Y7441D02*
Y7596D01*
Y7736D02*
Y8066D01*
X11171Y7184D02*
Y6871D01*
Y7436D02*
Y7596D01*
Y7736D02*
Y8066D01*
X11166Y7189D02*
Y6871D01*
Y7431D02*
Y7596D01*
Y7736D02*
Y8066D01*
X11161Y7194D02*
Y6871D01*
Y7426D02*
Y7596D01*
Y7736D02*
Y8066D01*
X11156Y7199D02*
Y6871D01*
Y7421D02*
Y7596D01*
Y7736D02*
Y8066D01*
X11151Y7204D02*
Y6871D01*
Y7416D02*
Y7596D01*
Y7736D02*
Y8066D01*
X11342Y8578D02*
X11416Y8653D01*
X11216Y7586D02*
X11266Y7536D01*
X11216Y7586D02*
X11186Y7616D01*
X11416Y8801D02*
X11342Y8876D01*
X11416Y7236D02*
X11342Y7162D01*
X11314Y7458D02*
X11236Y7536D01*
X11186Y7586D01*
X11176Y7596D01*
X11536Y8086D02*
Y8236D01*
Y8601D02*
Y8731D01*
X11531Y8236D02*
Y8086D01*
Y8596D02*
Y8731D01*
X11526Y8236D02*
Y8086D01*
Y8591D02*
Y8731D01*
Y8738D01*
X11521Y8236D02*
Y8086D01*
Y8586D02*
Y8744D01*
Y8761D01*
X11516Y8236D02*
Y8086D01*
Y8581D02*
Y8756D01*
X11511Y8236D02*
Y8086D01*
Y8576D02*
Y8751D01*
X11506Y8236D02*
Y8086D01*
Y8571D02*
Y8746D01*
X11501Y8236D02*
Y8086D01*
Y8566D02*
Y8741D01*
X11496Y8236D02*
Y8086D01*
Y8561D02*
Y8736D01*
X11491Y8236D02*
Y8086D01*
Y8556D02*
Y8731D01*
X11486Y8236D02*
Y8086D01*
Y8551D02*
Y8726D01*
X11481Y8178D02*
Y8086D01*
Y8178D02*
Y8204D01*
Y8236D01*
Y8546D02*
Y8721D01*
X11476Y8166D02*
Y8086D01*
Y8166D02*
Y8174D01*
Y8208D02*
Y8216D01*
Y8236D01*
Y8541D02*
Y8716D01*
X11471Y8166D02*
Y8086D01*
Y8216D02*
Y8236D01*
Y8536D02*
Y8711D01*
X11466Y8166D02*
Y8086D01*
Y8216D02*
Y8236D01*
Y8531D02*
Y8706D01*
X11461Y8166D02*
Y8086D01*
Y8216D02*
Y8236D01*
Y8526D02*
Y8701D01*
X11456Y8166D02*
Y8086D01*
Y8216D02*
Y8236D01*
Y8521D02*
Y8696D01*
X11451Y8166D02*
Y8086D01*
Y8216D02*
Y8236D01*
Y8516D02*
Y8691D01*
X11446Y8166D02*
Y8086D01*
Y8216D02*
Y8236D01*
Y8511D02*
Y8686D01*
X11441Y8166D02*
Y8086D01*
Y8216D02*
Y8236D01*
Y8506D02*
Y8681D01*
X11436Y8166D02*
Y8086D01*
Y8166D02*
Y8174D01*
Y8208D02*
Y8216D01*
Y8236D01*
Y8501D02*
Y8671D01*
X11431Y8178D02*
Y8086D01*
Y8178D02*
Y8204D01*
Y8236D01*
Y8496D02*
Y8671D01*
X11426Y8236D02*
Y8086D01*
Y8491D02*
Y8671D01*
X11421Y8236D02*
Y8086D01*
Y8486D02*
Y8671D01*
X11416Y8236D02*
Y8086D01*
Y8481D02*
Y8652D01*
Y8671D01*
X11411Y8236D02*
Y8086D01*
Y8476D02*
Y8647D01*
Y8671D01*
X11406Y8236D02*
Y8086D01*
Y8471D02*
Y8642D01*
Y8671D01*
X11401Y8236D02*
Y8086D01*
Y8466D02*
Y8637D01*
X11396Y8236D02*
Y8086D01*
Y8461D02*
Y8632D01*
X11391Y8236D02*
Y8086D01*
Y8456D02*
Y8627D01*
X11386Y8236D02*
Y8086D01*
Y8451D02*
Y8622D01*
X11381Y8236D02*
Y8086D01*
Y8446D02*
Y8617D01*
X11376Y8236D02*
Y8086D01*
Y8446D02*
Y8612D01*
X11371Y8236D02*
Y8086D01*
Y8446D02*
Y8607D01*
X11366Y8236D02*
Y8086D01*
Y8446D02*
Y8602D01*
X11361Y8236D02*
Y8086D01*
Y8446D02*
Y8597D01*
X11356Y8236D02*
Y8086D01*
Y8446D02*
Y8592D01*
X11351Y8236D02*
Y8086D01*
Y8446D02*
Y8578D01*
Y8587D01*
X11346Y8236D02*
Y8086D01*
Y8446D02*
Y8578D01*
X11416Y8653D02*
Y8671D01*
X11536Y6851D02*
Y6651D01*
Y7321D02*
Y7446D01*
Y7456D01*
X11531Y6851D02*
Y6651D01*
Y7321D02*
Y7461D01*
X11526Y6851D02*
Y6651D01*
Y7321D02*
Y7466D01*
X11521Y6851D02*
Y6651D01*
Y7321D02*
Y7471D01*
X11516Y6851D02*
Y6651D01*
Y7321D02*
Y7476D01*
X11511Y6851D02*
Y6651D01*
Y7321D02*
Y7481D01*
X11506Y6851D02*
Y6651D01*
Y7321D02*
Y7486D01*
X11501Y6851D02*
Y6651D01*
Y7321D02*
Y7491D01*
X11496Y6851D02*
Y6651D01*
Y7321D02*
Y7496D01*
X11491Y6851D02*
Y6651D01*
Y7321D02*
Y7501D01*
X11486Y6851D02*
Y6651D01*
Y7321D02*
Y7506D01*
X11481Y6851D02*
Y6651D01*
Y7321D02*
Y7511D01*
X11476Y6851D02*
Y6651D01*
Y7326D02*
Y7516D01*
X11471Y6851D02*
Y6651D01*
Y7331D02*
Y7521D01*
X11466Y6851D02*
Y6651D01*
Y7336D02*
Y7526D01*
X11461Y6851D02*
Y6651D01*
Y7341D02*
Y7531D01*
X11456Y6851D02*
Y6651D01*
Y7346D02*
Y7536D01*
X11451Y6851D02*
Y6651D01*
Y7351D02*
Y7536D01*
X11446Y6851D02*
Y6651D01*
Y7356D02*
Y7536D01*
X11441Y6851D02*
Y6651D01*
Y7361D02*
Y7536D01*
X11436Y6851D02*
Y6651D01*
Y7366D02*
Y7536D01*
X11431Y6851D02*
Y6651D01*
Y7371D02*
Y7536D01*
X11426Y6851D02*
Y6651D01*
Y7376D02*
Y7536D01*
Y7544D01*
X11421Y6851D02*
Y6651D01*
Y7381D02*
Y7548D01*
Y7571D01*
X11416Y6851D02*
Y6651D01*
Y7386D02*
Y7576D01*
X11411Y6851D02*
Y6651D01*
Y7391D02*
Y7581D01*
X11406Y6851D02*
Y6651D01*
Y7396D02*
Y7586D01*
X11401Y6851D02*
Y6651D01*
Y7401D02*
Y7591D01*
X11396Y6851D02*
Y6651D01*
Y7406D02*
Y7596D01*
X11391Y6851D02*
Y6651D01*
Y7411D02*
Y7601D01*
X11386Y6851D02*
Y6651D01*
Y7416D02*
Y7606D01*
X11381Y6851D02*
Y6651D01*
Y7421D02*
Y7611D01*
X11376Y6851D02*
Y6651D01*
Y7426D02*
Y7616D01*
X11371Y6851D02*
Y6651D01*
Y7431D02*
Y7621D01*
X11366Y6851D02*
Y6651D01*
Y7436D02*
Y7626D01*
X11361Y6851D02*
Y6651D01*
Y7441D02*
Y7631D01*
X11356Y6851D02*
Y6651D01*
Y7446D02*
Y7636D01*
X11351Y6851D02*
Y6651D01*
Y7451D02*
Y7641D01*
X11346Y6851D02*
Y6651D01*
Y7456D02*
Y7646D01*
X11536Y8256D02*
Y8571D01*
Y8811D02*
Y9054D01*
Y9078D01*
Y9326D01*
X11531Y8566D02*
Y8256D01*
Y8806D02*
Y9041D01*
Y9048D01*
Y9084D02*
Y9091D01*
Y9326D01*
X11526Y8561D02*
Y8256D01*
Y8801D02*
Y9041D01*
Y9091D02*
Y9326D01*
X11521Y8556D02*
Y8256D01*
Y8796D02*
Y9041D01*
Y9091D02*
Y9326D01*
X11516Y8551D02*
Y8256D01*
Y8791D02*
Y9041D01*
Y9091D02*
Y9326D01*
X11511Y8546D02*
Y8256D01*
Y8786D02*
Y9041D01*
Y9091D02*
Y9326D01*
X11506Y8541D02*
Y8256D01*
Y8781D02*
Y9041D01*
Y9091D02*
Y9326D01*
X11501Y8536D02*
Y8256D01*
Y8776D02*
Y9041D01*
Y9091D02*
Y9326D01*
X11496Y8531D02*
Y8256D01*
Y8771D02*
Y9041D01*
Y9091D02*
Y9326D01*
X11491Y8526D02*
Y8256D01*
Y8766D02*
Y9041D01*
Y9048D01*
Y9084D02*
Y9091D01*
Y9326D01*
X11486Y8521D02*
Y8256D01*
Y8761D02*
Y9054D01*
Y9078D01*
Y9326D01*
X11481Y8516D02*
Y8256D01*
Y8756D02*
Y9326D01*
X11476Y8511D02*
Y8256D01*
Y8751D02*
Y9326D01*
X11471Y8506D02*
Y8256D01*
Y8746D02*
Y9326D01*
X11466Y8501D02*
Y8256D01*
Y8741D02*
Y9326D01*
X11461Y8496D02*
Y8256D01*
Y8736D02*
Y9326D01*
X11456Y8491D02*
Y8256D01*
Y8731D02*
Y9326D01*
X11451Y8486D02*
Y8256D01*
Y8726D02*
Y9326D01*
X11446Y8481D02*
Y8256D01*
Y8721D02*
Y9326D01*
X11441Y8476D02*
Y8256D01*
Y8716D02*
Y9326D01*
X11436Y8471D02*
Y8256D01*
Y8711D02*
Y9326D01*
X11431Y8466D02*
Y8256D01*
Y8706D02*
Y9326D01*
X11426Y8461D02*
Y8256D01*
Y8701D02*
Y9326D01*
X11421Y8456D02*
Y8256D01*
Y8696D02*
Y9326D01*
X11416Y8451D02*
Y8256D01*
Y8691D02*
Y8802D01*
Y9326D01*
X11411Y8446D02*
Y8256D01*
Y8807D02*
Y9326D01*
X11406Y8441D02*
Y8256D01*
Y8812D02*
Y9326D01*
X11401Y8436D02*
Y8256D01*
Y8817D02*
Y9326D01*
X11396Y8426D02*
Y8256D01*
Y8822D02*
Y9326D01*
X11391Y8426D02*
Y8256D01*
Y8827D02*
Y9326D01*
X11386Y8426D02*
Y8256D01*
Y8832D02*
Y9326D01*
X11381Y8426D02*
Y8256D01*
Y8837D02*
Y9326D01*
X11376Y8426D02*
Y8256D01*
Y8842D02*
Y9326D01*
X11371Y8426D02*
Y8256D01*
Y8847D02*
Y9326D01*
X11366Y8426D02*
Y8256D01*
Y8852D02*
Y9326D01*
X11361Y8426D02*
Y8256D01*
Y8857D02*
Y9326D01*
X11356Y8426D02*
Y8256D01*
Y8862D02*
Y9326D01*
X11351Y8426D02*
Y8256D01*
Y8867D02*
Y8876D01*
Y9326D01*
X11346Y8426D02*
Y8256D01*
Y8876D02*
Y9326D01*
X11416Y8801D02*
Y8692D01*
X11536Y7301D02*
Y6871D01*
Y7486D02*
Y8066D01*
X11531Y7301D02*
Y6871D01*
Y7491D02*
Y8066D01*
X11526Y7301D02*
Y6871D01*
Y7496D02*
Y8066D01*
X11521Y7301D02*
Y6871D01*
Y7501D02*
Y8066D01*
X11516Y7301D02*
Y6871D01*
Y7506D02*
Y8066D01*
X11511Y7301D02*
Y6871D01*
Y7511D02*
Y8066D01*
X11506Y7301D02*
Y6871D01*
Y7516D02*
Y8066D01*
X11501Y7301D02*
Y6871D01*
Y7521D02*
Y8066D01*
X11496Y7301D02*
Y6871D01*
Y7526D02*
Y8066D01*
X11491Y7301D02*
Y6871D01*
Y7531D02*
Y8066D01*
X11486Y7301D02*
Y6871D01*
Y7536D02*
Y8066D01*
X11481Y7301D02*
Y6871D01*
Y7541D02*
Y8066D01*
X11476Y7301D02*
Y6871D01*
Y7546D02*
Y8066D01*
X11471Y7301D02*
Y6871D01*
Y7551D02*
Y7574D01*
Y8066D01*
X11466Y7301D02*
Y6871D01*
Y7578D02*
Y7586D01*
Y8066D01*
X11461Y7301D02*
Y6871D01*
Y7301D02*
Y7311D01*
Y7586D02*
Y8066D01*
X11456Y7316D02*
Y6871D01*
Y7586D02*
Y8066D01*
X11451Y7321D02*
Y6871D01*
Y7586D02*
Y8066D01*
X11446Y7326D02*
Y6871D01*
Y7586D02*
Y8066D01*
X11441Y7331D02*
Y6871D01*
Y7586D02*
Y8066D01*
X11436Y7336D02*
Y6871D01*
Y7586D02*
Y8066D01*
X11431Y7341D02*
Y6871D01*
Y7591D02*
Y8066D01*
X11426Y7346D02*
Y6871D01*
Y7596D02*
Y8066D01*
X11421Y7351D02*
Y6871D01*
Y7601D02*
Y8066D01*
X11416Y7235D02*
Y6871D01*
Y7235D02*
Y7356D01*
Y7606D02*
Y8066D01*
X11411Y7230D02*
Y6871D01*
Y7611D02*
Y8066D01*
X11406Y7225D02*
Y6871D01*
Y7616D02*
Y8066D01*
X11401Y7220D02*
Y6871D01*
Y7621D02*
Y8066D01*
X11396Y7084D02*
Y6871D01*
Y7084D02*
Y7108D01*
Y7215D01*
Y7626D02*
Y8066D01*
X11391Y7071D02*
Y6871D01*
Y7071D02*
Y7078D01*
Y7114D02*
Y7121D01*
Y7210D01*
Y7631D02*
Y8066D01*
X11386Y7071D02*
Y6871D01*
Y7121D02*
Y7205D01*
Y7636D02*
Y8066D01*
X11381Y7071D02*
Y6871D01*
Y7121D02*
Y7200D01*
Y7641D02*
Y8066D01*
X11376Y7071D02*
Y6871D01*
Y7121D02*
Y7195D01*
Y7646D02*
Y8066D01*
X11371Y7071D02*
Y6871D01*
Y7121D02*
Y7190D01*
Y7651D02*
Y8066D01*
X11366Y7071D02*
Y6871D01*
Y7121D02*
Y7185D01*
Y7656D02*
Y8066D01*
X11361Y7071D02*
Y6871D01*
Y7121D02*
Y7180D01*
Y7661D02*
Y8066D01*
X11356Y7071D02*
Y6871D01*
Y7121D02*
Y7175D01*
Y7666D02*
Y8066D01*
X11351Y7071D02*
Y6871D01*
Y7071D02*
Y7078D01*
Y7114D02*
Y7121D01*
Y7162D01*
Y7170D01*
Y7671D02*
Y8066D01*
X11346Y7084D02*
Y6871D01*
Y7084D02*
Y7108D01*
Y7162D01*
Y7676D02*
Y8066D01*
X11416Y7356D02*
Y7236D01*
X11534Y8731D02*
X11521Y8744D01*
X11481Y8178D02*
X11468Y8166D01*
X11481Y8204D02*
X11468Y8216D01*
X11444D02*
X11431Y8204D01*
Y8178D02*
X11444Y8166D01*
X11381Y8446D02*
X11416Y8482D01*
X11521Y8586D02*
X11571Y8636D01*
X11491Y8731D02*
X11431Y8671D01*
X11491Y8731D02*
X11521Y8761D01*
X11421Y7548D02*
X11434Y7536D01*
X11471Y7521D02*
X11546Y7446D01*
X11471Y7521D02*
X11456Y7536D01*
X11421Y7571D02*
X11406Y7586D01*
X11471Y7331D02*
X11481Y7321D01*
X11471Y7331D02*
X11421Y7381D01*
X11524Y9041D02*
X11536Y9054D01*
Y9078D02*
X11524Y9091D01*
X11498D02*
X11486Y9078D01*
Y9054D02*
X11498Y9041D01*
X11416Y8692D02*
X11416Y8691D01*
X11416Y8452D02*
X11391Y8426D01*
X11416Y8452D02*
X11451Y8486D01*
X11501Y8536D01*
X11541Y8576D01*
X11396Y7084D02*
X11384Y7071D01*
X11396Y7108D02*
X11384Y7121D01*
X11358D02*
X11346Y7108D01*
Y7084D02*
X11358Y7071D01*
X11471Y7574D02*
X11458Y7586D01*
X11421Y7351D02*
X11471Y7301D01*
X11421Y7351D02*
X11416Y7356D01*
X11556Y7466D02*
X11486Y7536D01*
X11471Y7551D01*
X11436Y7586D02*
X11421Y7601D01*
X11731Y8086D02*
Y8236D01*
Y8786D02*
Y8911D01*
X11726Y8236D02*
Y8086D01*
Y8786D02*
Y8911D01*
X11721Y8236D02*
Y8086D01*
Y8786D02*
Y8911D01*
X11716Y8236D02*
Y8086D01*
Y8786D02*
Y8911D01*
X11711Y8236D02*
Y8086D01*
Y8776D02*
Y8786D01*
Y8911D01*
X11706Y8236D02*
Y8086D01*
Y8771D02*
Y8911D01*
X11701Y8236D02*
Y8086D01*
Y8766D02*
Y8911D01*
X11696Y8236D02*
Y8086D01*
Y8761D02*
Y8911D01*
X11691Y8236D02*
Y8086D01*
Y8756D02*
Y8911D01*
X11686Y8236D02*
Y8086D01*
Y8751D02*
Y8911D01*
X11681Y8236D02*
Y8086D01*
Y8746D02*
Y8911D01*
X11676Y8236D02*
Y8086D01*
Y8741D02*
Y8911D01*
X11671Y8174D02*
Y8086D01*
Y8178D02*
Y8204D01*
Y8236D01*
Y8736D02*
Y8911D01*
X11666Y8166D02*
Y8086D01*
Y8166D02*
Y8174D01*
Y8208D02*
Y8216D01*
Y8236D01*
Y8731D02*
Y8906D01*
X11661Y8166D02*
Y8086D01*
Y8726D02*
Y8901D01*
X11656Y8166D02*
Y8086D01*
Y8721D02*
Y8896D01*
X11651Y8166D02*
Y8086D01*
Y8716D02*
Y8891D01*
X11646Y8166D02*
Y8086D01*
Y8711D02*
Y8886D01*
X11641Y8166D02*
Y8086D01*
Y8706D02*
Y8881D01*
X11636Y8166D02*
Y8086D01*
Y8701D02*
Y8876D01*
X11631Y8166D02*
Y8086D01*
Y8696D02*
Y8871D01*
X11626Y8166D02*
Y8086D01*
Y8166D02*
Y8174D01*
Y8208D02*
Y8216D01*
Y8236D01*
Y8691D02*
Y8866D01*
X11621Y8174D02*
Y8086D01*
Y8178D02*
Y8204D01*
Y8236D01*
Y8686D02*
Y8861D01*
X11616Y8236D02*
Y8086D01*
Y8681D02*
Y8856D01*
X11611Y8236D02*
Y8086D01*
Y8676D02*
Y8851D01*
X11606Y8236D02*
Y8086D01*
Y8671D02*
Y8846D01*
X11601Y8236D02*
Y8086D01*
Y8666D02*
Y8841D01*
X11596Y8236D02*
Y8086D01*
Y8661D02*
Y8836D01*
X11591Y8236D02*
Y8086D01*
Y8656D02*
Y8831D01*
X11586Y8236D02*
Y8086D01*
Y8651D02*
Y8826D01*
X11581Y8236D02*
Y8086D01*
Y8646D02*
Y8821D01*
X11576Y8236D02*
Y8086D01*
Y8641D02*
Y8816D01*
X11571Y8236D02*
Y8086D01*
Y8636D02*
Y8744D01*
Y8768D01*
Y8811D01*
X11566Y8236D02*
Y8086D01*
Y8631D02*
Y8731D01*
Y8738D01*
Y8774D02*
Y8781D01*
Y8806D01*
X11561Y8236D02*
Y8086D01*
Y8626D02*
Y8731D01*
Y8781D02*
Y8801D01*
X11556Y8236D02*
Y8086D01*
Y8621D02*
Y8731D01*
Y8781D02*
Y8796D01*
X11551Y8236D02*
Y8086D01*
Y8616D02*
Y8731D01*
Y8781D02*
Y8791D01*
X11546Y8236D02*
Y8086D01*
Y8611D02*
Y8731D01*
X11541Y8236D02*
Y8086D01*
Y8606D02*
Y8731D01*
X11629Y8216D02*
Y8212D01*
Y8216D02*
Y8236D01*
X11663Y8216D02*
Y8212D01*
Y8216D02*
Y8236D01*
X11731Y6851D02*
Y6651D01*
Y7321D02*
Y7446D01*
X11726Y6851D02*
Y6651D01*
Y7321D02*
Y7446D01*
X11721Y6851D02*
Y6651D01*
Y7321D02*
Y7446D01*
X11716Y6851D02*
Y6651D01*
Y7321D02*
Y7446D01*
X11711Y6851D02*
Y6651D01*
Y7321D02*
Y7446D01*
X11706Y6851D02*
Y6651D01*
Y7321D02*
Y7446D01*
X11701Y6851D02*
Y6651D01*
Y7321D02*
Y7446D01*
X11696Y6851D02*
Y6651D01*
Y7321D02*
Y7446D01*
X11691Y6851D02*
Y6651D01*
Y7321D02*
Y7446D01*
X11686Y6851D02*
Y6651D01*
Y7321D02*
Y7446D01*
X11681Y6851D02*
Y6651D01*
Y7321D02*
Y7446D01*
X11676Y6851D02*
Y6651D01*
Y7321D02*
Y7446D01*
X11671Y6851D02*
Y6651D01*
Y7321D02*
Y7446D01*
X11666Y6851D02*
Y6651D01*
Y7321D02*
Y7446D01*
X11661Y6851D02*
Y6651D01*
Y7321D02*
Y7446D01*
X11656Y6851D02*
Y6651D01*
Y7321D02*
Y7446D01*
X11651Y6851D02*
Y6651D01*
Y7321D02*
Y7446D01*
X11646Y6851D02*
Y6651D01*
Y7321D02*
Y7446D01*
X11641Y6851D02*
Y6651D01*
Y7321D02*
Y7446D01*
X11636Y6851D02*
Y6651D01*
Y7321D02*
Y7446D01*
X11631Y6851D02*
Y6651D01*
Y7321D02*
Y7446D01*
X11626Y6851D02*
Y6651D01*
Y7321D02*
Y7446D01*
X11621Y6851D02*
Y6651D01*
Y7321D02*
Y7446D01*
X11616Y6851D02*
Y6651D01*
Y7321D02*
Y7446D01*
X11611Y6851D02*
Y6651D01*
Y7321D02*
Y7446D01*
X11606Y6851D02*
Y6651D01*
Y7321D02*
Y7446D01*
X11601Y6851D02*
Y6651D01*
Y7321D02*
Y7446D01*
X11596Y6851D02*
Y6651D01*
Y7321D02*
Y7446D01*
X11591Y6851D02*
Y6651D01*
Y7321D02*
Y7446D01*
X11586Y6851D02*
Y6651D01*
Y7321D02*
Y7446D01*
X11581Y6851D02*
Y6651D01*
Y7321D02*
Y7446D01*
X11576Y6851D02*
Y6651D01*
Y7321D02*
Y7446D01*
X11571Y6851D02*
Y6651D01*
Y7321D02*
Y7446D01*
X11566Y6851D02*
Y6651D01*
Y7321D02*
Y7446D01*
X11561Y6851D02*
Y6651D01*
Y7321D02*
Y7446D01*
X11556Y6851D02*
Y6651D01*
Y7321D02*
Y7446D01*
X11551Y6851D02*
Y6651D01*
Y7321D02*
Y7446D01*
X11546Y6851D02*
Y6651D01*
Y7321D02*
Y7446D01*
X11541Y6851D02*
Y6651D01*
Y7321D02*
Y7446D01*
X11731Y8256D02*
Y8766D01*
Y8931D02*
Y9326D01*
X11726Y8761D02*
Y8256D01*
Y8931D02*
Y9326D01*
X11721Y8756D02*
Y8256D01*
Y8931D02*
Y9326D01*
X11716Y8751D02*
Y8256D01*
Y8931D02*
Y9326D01*
X11711Y8746D02*
Y8256D01*
Y8931D02*
Y9326D01*
X11706Y8741D02*
Y8256D01*
Y8931D02*
Y9326D01*
X11701Y8736D02*
Y8256D01*
Y8931D02*
Y9326D01*
X11696Y8731D02*
Y8256D01*
Y8931D02*
Y9326D01*
X11691Y8726D02*
Y8256D01*
Y8931D02*
Y9326D01*
X11686Y8721D02*
Y8256D01*
Y8931D02*
Y9326D01*
X11681Y8716D02*
Y8256D01*
Y8931D02*
Y9326D01*
X11676Y8711D02*
Y8256D01*
Y8931D02*
Y9326D01*
X11671Y8706D02*
Y8256D01*
Y8931D02*
Y9326D01*
X11666Y8701D02*
Y8256D01*
Y8931D02*
Y9326D01*
X11661Y8696D02*
Y8256D01*
Y8931D02*
Y9326D01*
X11656Y8691D02*
Y8256D01*
Y8931D02*
Y9326D01*
X11651Y8686D02*
Y8256D01*
Y8931D02*
Y9326D01*
X11646Y8681D02*
Y8256D01*
Y8921D02*
Y8931D01*
Y9326D01*
X11641Y8676D02*
Y8256D01*
Y8916D02*
Y9326D01*
X11636Y8671D02*
Y8256D01*
Y8911D02*
Y9326D01*
X11631Y8666D02*
Y8256D01*
Y8906D02*
Y9326D01*
X11626Y8661D02*
Y8256D01*
Y8901D02*
Y9326D01*
X11621Y8656D02*
Y8256D01*
Y8896D02*
Y9326D01*
X11616Y8651D02*
Y8256D01*
Y8891D02*
Y9326D01*
X11611Y8646D02*
Y8256D01*
Y8886D02*
Y9326D01*
X11606Y8641D02*
Y8256D01*
Y8881D02*
Y9326D01*
X11601Y8636D02*
Y8256D01*
Y8876D02*
Y9326D01*
X11596Y8631D02*
Y8256D01*
Y8871D02*
Y9326D01*
X11591Y8498D02*
Y8256D01*
Y8498D02*
Y8524D01*
Y8626D01*
Y8866D02*
Y9204D01*
Y9228D01*
Y9326D01*
X11586Y8486D02*
Y8256D01*
Y8486D02*
Y8494D01*
Y8528D02*
Y8536D01*
Y8621D01*
Y8861D02*
Y9191D01*
Y9198D01*
Y9234D02*
Y9241D01*
Y9326D01*
X11581Y8486D02*
Y8256D01*
Y8536D02*
Y8616D01*
Y8856D02*
Y9191D01*
Y9241D02*
Y9326D01*
X11576Y8486D02*
Y8256D01*
Y8536D02*
Y8611D01*
Y8851D02*
Y9191D01*
Y9241D02*
Y9326D01*
X11571Y8486D02*
Y8256D01*
Y8536D02*
Y8606D01*
Y8846D02*
Y9191D01*
Y9241D02*
Y9326D01*
X11566Y8486D02*
Y8256D01*
Y8536D02*
Y8601D01*
Y8841D02*
Y9191D01*
Y9241D02*
Y9326D01*
X11561Y8486D02*
Y8256D01*
Y8536D02*
Y8596D01*
Y8836D02*
Y9191D01*
Y9241D02*
Y9326D01*
X11556Y8486D02*
Y8256D01*
Y8536D02*
Y8591D01*
Y8831D02*
Y9191D01*
Y9241D02*
Y9326D01*
X11551Y8486D02*
Y8256D01*
Y8536D02*
Y8586D01*
Y8826D02*
Y9191D01*
Y9241D02*
Y9326D01*
X11546Y8486D02*
Y8256D01*
Y8486D02*
Y8494D01*
Y8528D02*
Y8536D01*
Y8581D01*
Y8821D02*
Y9191D01*
Y9198D01*
Y9234D02*
Y9241D01*
Y9326D01*
X11541Y8498D02*
Y8256D01*
Y8498D02*
Y8524D01*
Y8576D01*
Y8816D02*
Y9204D01*
Y9228D01*
Y9326D01*
X11731Y7301D02*
Y6871D01*
Y7466D02*
Y8066D01*
X11726Y7301D02*
Y6871D01*
Y7466D02*
Y8066D01*
X11721Y7301D02*
Y6871D01*
Y7466D02*
Y8066D01*
X11716Y7301D02*
Y6871D01*
Y7466D02*
Y8066D01*
X11711Y7301D02*
Y6871D01*
Y7466D02*
Y8066D01*
X11706Y7301D02*
Y6871D01*
Y7466D02*
Y8066D01*
X11701Y7301D02*
Y6871D01*
Y7466D02*
Y8066D01*
X11696Y7301D02*
Y6871D01*
Y7466D02*
Y8066D01*
X11691Y7301D02*
Y6871D01*
Y7466D02*
Y8066D01*
X11686Y7301D02*
Y6871D01*
Y7466D02*
Y8066D01*
X11681Y7301D02*
Y6871D01*
Y7466D02*
Y8066D01*
X11676Y7301D02*
Y6871D01*
Y7466D02*
Y8066D01*
X11671Y7301D02*
Y6871D01*
Y7466D02*
Y8066D01*
X11666Y7301D02*
Y6871D01*
Y7466D02*
Y8066D01*
X11661Y7301D02*
Y6871D01*
Y7466D02*
Y8066D01*
X11656Y7301D02*
Y6871D01*
Y7466D02*
Y8066D01*
X11651Y7301D02*
Y6871D01*
Y7466D02*
Y8066D01*
X11646Y7301D02*
Y6871D01*
Y7466D02*
Y8066D01*
X11641Y7084D02*
Y6871D01*
Y7084D02*
Y7108D01*
Y7301D01*
Y7466D02*
Y8066D01*
X11636Y7071D02*
Y6871D01*
Y7071D02*
Y7078D01*
Y7114D02*
Y7121D01*
Y7301D01*
Y7466D02*
Y8066D01*
X11631Y7071D02*
Y6871D01*
Y7121D02*
Y7301D01*
Y7466D02*
Y8066D01*
X11626Y7071D02*
Y6871D01*
Y7121D02*
Y7301D01*
Y7466D02*
Y8066D01*
X11621Y7071D02*
Y6871D01*
Y7121D02*
Y7301D01*
Y7466D02*
Y8066D01*
X11616Y7071D02*
Y6871D01*
Y7121D02*
Y7301D01*
Y7466D02*
Y7854D01*
Y7880D01*
Y8066D01*
X11611Y7071D02*
Y6871D01*
Y7121D02*
Y7301D01*
Y7466D02*
Y7842D01*
Y7850D01*
Y7884D02*
Y7892D01*
Y8066D01*
X11606Y7071D02*
Y6871D01*
Y7121D02*
Y7301D01*
Y7466D02*
Y7842D01*
Y7892D02*
Y8066D01*
X11601Y7071D02*
Y6871D01*
Y7121D02*
Y7301D01*
Y7466D02*
Y7842D01*
Y7892D02*
Y8066D01*
X11596Y7071D02*
Y6871D01*
Y7071D02*
Y7078D01*
Y7114D02*
Y7121D01*
Y7301D01*
Y7466D02*
Y7842D01*
Y7892D02*
Y8066D01*
X11591Y7084D02*
Y6871D01*
Y7084D02*
Y7108D01*
Y7301D01*
Y7466D02*
Y7842D01*
Y7892D02*
Y8066D01*
X11586Y7301D02*
Y6871D01*
Y7466D02*
Y7842D01*
Y7892D02*
Y8066D01*
X11581Y7301D02*
Y6871D01*
Y7466D02*
Y7842D01*
Y7892D02*
Y8066D01*
X11576Y7301D02*
Y6871D01*
Y7466D02*
Y7842D01*
Y7892D02*
Y8066D01*
X11571Y7301D02*
Y6871D01*
Y7466D02*
Y7842D01*
Y7850D01*
Y7884D02*
Y7892D01*
Y8066D01*
X11566Y7301D02*
Y6871D01*
Y7466D02*
Y7854D01*
Y7880D01*
Y8066D01*
X11561Y7301D02*
Y6871D01*
Y7466D02*
Y8066D01*
X11556Y7301D02*
Y6871D01*
Y7466D02*
Y8066D01*
X11551Y7301D02*
Y6871D01*
Y7471D02*
Y8066D01*
X11546Y7301D02*
Y6871D01*
Y7476D02*
Y8066D01*
X11541Y7301D02*
Y6871D01*
Y7481D02*
Y8066D01*
X11658Y8166D02*
X11663Y8170D01*
X11666Y8174D01*
X11671Y8178D01*
Y8204D02*
X11663Y8212D01*
X11629D02*
X11621Y8204D01*
X11629Y8170D02*
X11634Y8166D01*
X11629Y8170D02*
X11626Y8174D01*
X11621Y8178D01*
X11558Y8731D02*
X11571Y8744D01*
Y8768D02*
X11558Y8781D01*
X11606Y8671D02*
X11571Y8636D01*
X11606Y8671D02*
X11666Y8731D01*
X11716Y8781D01*
X11721Y8786D01*
X11571Y8811D02*
X11541Y8781D01*
X11571Y8811D02*
X11671Y8911D01*
X11591Y8498D02*
X11578Y8486D01*
X11591Y8524D02*
X11578Y8536D01*
X11554D02*
X11541Y8524D01*
Y8498D02*
X11554Y8486D01*
X11578Y9191D02*
X11591Y9204D01*
Y9228D02*
X11578Y9241D01*
X11554D02*
X11541Y9228D01*
Y9204D02*
X11554Y9191D01*
X11591Y8626D02*
X11541Y8576D01*
X11591Y8626D02*
X11656Y8691D01*
X11731Y8766D01*
X11641Y7084D02*
X11628Y7071D01*
X11641Y7108D02*
X11628Y7121D01*
X11604D02*
X11591Y7108D01*
Y7084D02*
X11604Y7071D01*
Y7842D02*
X11616Y7854D01*
Y7880D02*
X11604Y7892D01*
X11578D02*
X11566Y7880D01*
Y7854D02*
X11578Y7842D01*
X11926Y8086D02*
Y8236D01*
Y8786D02*
Y8911D01*
X11921Y8236D02*
Y8086D01*
Y8786D02*
Y8911D01*
X11916Y8236D02*
Y8086D01*
Y8786D02*
Y8911D01*
X11911Y8236D02*
Y8086D01*
Y8786D02*
Y8911D01*
X11906Y8236D02*
Y8086D01*
Y8786D02*
Y8911D01*
X11901Y8236D02*
Y8086D01*
Y8786D02*
Y8911D01*
X11896Y8236D02*
Y8086D01*
Y8786D02*
Y8911D01*
X11891Y8236D02*
Y8086D01*
Y8786D02*
Y8911D01*
X11886Y8236D02*
Y8086D01*
Y8786D02*
Y8911D01*
X11881Y8236D02*
Y8086D01*
Y8786D02*
Y8911D01*
X11876Y8236D02*
Y8086D01*
Y8786D02*
Y8911D01*
X11871Y8236D02*
Y8086D01*
Y8786D02*
Y8911D01*
X11866Y8236D02*
Y8086D01*
Y8786D02*
Y8911D01*
X11861Y8236D02*
Y8086D01*
Y8786D02*
Y8911D01*
X11856Y8236D02*
Y8086D01*
Y8786D02*
Y8911D01*
X11851Y8236D02*
Y8086D01*
Y8786D02*
Y8911D01*
X11846Y8236D02*
Y8086D01*
Y8786D02*
Y8911D01*
X11841Y8236D02*
Y8086D01*
Y8786D02*
Y8911D01*
X11836Y8236D02*
Y8086D01*
Y8786D02*
Y8911D01*
X11831Y8236D02*
Y8086D01*
Y8786D02*
Y8911D01*
X11826Y8236D02*
Y8086D01*
Y8786D02*
Y8911D01*
X11821Y8236D02*
Y8086D01*
Y8786D02*
Y8911D01*
X11816Y8236D02*
Y8086D01*
Y8786D02*
Y8911D01*
X11811Y8236D02*
Y8086D01*
Y8786D02*
Y8911D01*
X11806Y8236D02*
Y8086D01*
Y8786D02*
Y8911D01*
X11801Y8236D02*
Y8086D01*
Y8786D02*
Y8911D01*
X11796Y8236D02*
Y8086D01*
Y8786D02*
Y8911D01*
X11791Y8236D02*
Y8086D01*
Y8786D02*
Y8911D01*
X11786Y8236D02*
Y8086D01*
Y8786D02*
Y8911D01*
X11781Y8236D02*
Y8086D01*
Y8786D02*
Y8911D01*
X11776Y8236D02*
Y8086D01*
Y8786D02*
Y8911D01*
X11771Y8236D02*
Y8086D01*
Y8786D02*
Y8911D01*
X11766Y8236D02*
Y8086D01*
Y8786D02*
Y8911D01*
X11761Y8236D02*
Y8086D01*
Y8786D02*
Y8911D01*
X11756Y8236D02*
Y8086D01*
Y8786D02*
Y8911D01*
X11751Y8236D02*
Y8086D01*
Y8786D02*
Y8911D01*
X11746Y8236D02*
Y8086D01*
Y8786D02*
Y8911D01*
X11741Y8236D02*
Y8086D01*
Y8786D02*
Y8911D01*
X11736Y8236D02*
Y8086D01*
Y8786D02*
Y8911D01*
X11926Y6851D02*
Y6651D01*
Y7321D02*
Y7446D01*
X11921Y6851D02*
Y6651D01*
Y7321D02*
Y7446D01*
X11916Y6851D02*
Y6651D01*
Y7321D02*
Y7446D01*
X11911Y6851D02*
Y6651D01*
Y7321D02*
Y7446D01*
X11906Y6851D02*
Y6651D01*
Y7321D02*
Y7446D01*
X11901Y6851D02*
Y6651D01*
Y7321D02*
Y7446D01*
X11896Y6851D02*
Y6651D01*
Y7321D02*
Y7446D01*
X11891Y6851D02*
Y6651D01*
Y7321D02*
Y7446D01*
X11886Y6851D02*
Y6651D01*
Y7321D02*
Y7446D01*
X11881Y6851D02*
Y6651D01*
Y7321D02*
Y7446D01*
X11876Y6851D02*
Y6651D01*
Y7321D02*
Y7446D01*
X11871Y6851D02*
Y6651D01*
Y7321D02*
Y7446D01*
X11866Y6851D02*
Y6651D01*
Y7321D02*
Y7446D01*
X11861Y6851D02*
Y6651D01*
Y7321D02*
Y7446D01*
X11856Y6851D02*
Y6651D01*
Y7321D02*
Y7446D01*
X11851Y6851D02*
Y6651D01*
Y7321D02*
Y7446D01*
X11846Y6851D02*
Y6651D01*
Y7321D02*
Y7446D01*
X11841Y6851D02*
Y6651D01*
Y7321D02*
Y7446D01*
X11836Y6851D02*
Y6651D01*
Y7321D02*
Y7446D01*
X11831Y6851D02*
Y6651D01*
Y7321D02*
Y7446D01*
X11826Y6851D02*
Y6651D01*
Y7321D02*
Y7446D01*
X11821Y6851D02*
Y6651D01*
Y7321D02*
Y7446D01*
X11816Y6851D02*
Y6651D01*
Y7321D02*
Y7446D01*
X11811Y6851D02*
Y6651D01*
Y7321D02*
Y7446D01*
X11806Y6851D02*
Y6651D01*
Y7321D02*
Y7446D01*
X11801Y6851D02*
Y6651D01*
Y7321D02*
Y7446D01*
X11796Y6851D02*
Y6651D01*
Y7321D02*
Y7446D01*
X11791Y6851D02*
Y6651D01*
Y7321D02*
Y7446D01*
X11786Y6851D02*
Y6651D01*
Y7321D02*
Y7446D01*
X11781Y6851D02*
Y6651D01*
Y7321D02*
Y7446D01*
X11776Y6851D02*
Y6651D01*
Y7321D02*
Y7446D01*
X11771Y6851D02*
Y6651D01*
Y7321D02*
Y7446D01*
X11766Y6851D02*
Y6651D01*
Y7321D02*
Y7446D01*
X11761Y6851D02*
Y6651D01*
Y7321D02*
Y7446D01*
X11756Y6851D02*
Y6651D01*
Y7321D02*
Y7446D01*
X11751Y6851D02*
Y6651D01*
Y7321D02*
Y7446D01*
X11746Y6851D02*
Y6651D01*
Y7321D02*
Y7446D01*
X11741Y6851D02*
Y6651D01*
Y7321D02*
Y7446D01*
X11736Y6851D02*
Y6651D01*
Y7321D02*
Y7446D01*
X11926Y8256D02*
Y8306D01*
Y8356D02*
Y8766D01*
Y8931D02*
Y9016D01*
Y9066D02*
Y9326D01*
X11921Y8306D02*
Y8256D01*
Y8356D02*
Y8766D01*
Y8931D02*
Y9016D01*
Y9066D02*
Y9326D01*
X11916Y8306D02*
Y8256D01*
Y8356D02*
Y8766D01*
Y8931D02*
Y9016D01*
Y9066D02*
Y9326D01*
X11911Y8306D02*
Y8256D01*
Y8306D02*
Y8314D01*
Y8348D02*
Y8356D01*
Y8766D01*
Y8931D02*
Y9016D01*
Y9024D01*
Y9058D02*
Y9066D01*
Y9326D01*
X11906Y8318D02*
Y8256D01*
Y8318D02*
Y8344D01*
Y8766D01*
Y8931D02*
Y9028D01*
Y9054D01*
Y9326D01*
X11901Y8766D02*
Y8256D01*
Y8931D02*
Y9326D01*
X11896Y8766D02*
Y8256D01*
Y8931D02*
Y9326D01*
X11891Y8766D02*
Y8256D01*
Y8931D02*
Y9326D01*
X11886Y8766D02*
Y8256D01*
Y8931D02*
Y9326D01*
X11881Y8766D02*
Y8256D01*
Y8931D02*
Y9326D01*
X11876Y8766D02*
Y8256D01*
Y8931D02*
Y9326D01*
X11871Y8766D02*
Y8256D01*
Y8931D02*
Y9326D01*
X11866Y8766D02*
Y8256D01*
Y8931D02*
Y9326D01*
X11861Y8766D02*
Y8256D01*
Y8931D02*
Y9326D01*
X11856Y8766D02*
Y8256D01*
Y8931D02*
Y9326D01*
X11851Y8766D02*
Y8256D01*
Y8931D02*
Y9326D01*
X11846Y8766D02*
Y8256D01*
Y8931D02*
Y9326D01*
X11841Y8766D02*
Y8256D01*
Y8931D02*
Y9326D01*
X11836Y8766D02*
Y8256D01*
Y8931D02*
Y9326D01*
X11831Y8766D02*
Y8256D01*
Y8931D02*
Y9326D01*
X11826Y8766D02*
Y8256D01*
Y8931D02*
Y9326D01*
X11821Y8766D02*
Y8256D01*
Y8931D02*
Y9326D01*
X11816Y8766D02*
Y8256D01*
Y8931D02*
Y9326D01*
X11811Y8766D02*
Y8256D01*
Y8931D02*
Y9326D01*
X11806Y8766D02*
Y8256D01*
Y8931D02*
Y9326D01*
X11801Y8766D02*
Y8256D01*
Y8931D02*
Y9326D01*
X11796Y8766D02*
Y8256D01*
Y8931D02*
Y9326D01*
X11791Y8766D02*
Y8256D01*
Y8931D02*
Y9326D01*
X11786Y8766D02*
Y8256D01*
Y8931D02*
Y9326D01*
X11781Y8766D02*
Y8256D01*
Y8931D02*
Y9326D01*
X11776Y8766D02*
Y8256D01*
Y8931D02*
Y9326D01*
X11771Y8766D02*
Y8256D01*
Y8931D02*
Y9326D01*
X11766Y8766D02*
Y8256D01*
Y8931D02*
Y9326D01*
X11761Y8766D02*
Y8256D01*
Y8931D02*
Y9326D01*
X11756Y8766D02*
Y8256D01*
Y8931D02*
Y9326D01*
X11751Y8766D02*
Y8256D01*
Y8931D02*
Y9326D01*
X11746Y8766D02*
Y8256D01*
Y8931D02*
Y9326D01*
X11741Y8766D02*
Y8256D01*
Y8931D02*
Y9326D01*
X11736Y8766D02*
Y8256D01*
Y8931D02*
Y9326D01*
X11926Y6896D02*
Y6871D01*
Y6946D02*
Y7301D01*
Y7466D02*
Y7666D01*
Y7716D02*
Y8066D01*
X11921Y6896D02*
Y6871D01*
Y6946D02*
Y7301D01*
Y7466D02*
Y7666D01*
Y7716D02*
Y8066D01*
X11916Y6896D02*
Y6871D01*
Y6946D02*
Y7301D01*
Y7466D02*
Y7666D01*
Y7716D02*
Y8066D01*
X11911Y6896D02*
Y6871D01*
Y6896D02*
Y6904D01*
Y6938D02*
Y6946D01*
Y7301D01*
Y7466D02*
Y7666D01*
Y7674D01*
Y7708D02*
Y7716D01*
Y8066D01*
X11906Y6908D02*
Y6871D01*
Y6908D02*
Y6934D01*
Y7301D01*
Y7466D02*
Y7678D01*
Y7704D01*
Y8066D01*
X11901Y7301D02*
Y6871D01*
Y7466D02*
Y8066D01*
X11896Y7301D02*
Y6871D01*
Y7466D02*
Y8066D01*
X11891Y7301D02*
Y6871D01*
Y7466D02*
Y8066D01*
X11886Y7301D02*
Y6871D01*
Y7466D02*
Y8066D01*
X11881Y7301D02*
Y6871D01*
Y7466D02*
Y8066D01*
X11876Y7301D02*
Y6871D01*
Y7466D02*
Y8066D01*
X11871Y7301D02*
Y6871D01*
Y7466D02*
Y8066D01*
X11866Y7301D02*
Y6871D01*
Y7466D02*
Y8066D01*
X11861Y7301D02*
Y6871D01*
Y7466D02*
Y8066D01*
X11856Y7301D02*
Y6871D01*
Y7466D02*
Y8066D01*
X11851Y7301D02*
Y6871D01*
Y7466D02*
Y8066D01*
X11846Y7301D02*
Y6871D01*
Y7466D02*
Y8066D01*
X11841Y7301D02*
Y6871D01*
Y7466D02*
Y8066D01*
X11836Y7301D02*
Y6871D01*
Y7466D02*
Y8066D01*
X11831Y7301D02*
Y6871D01*
Y7466D02*
Y8066D01*
X11826Y7301D02*
Y6871D01*
Y7466D02*
Y8066D01*
X11821Y7301D02*
Y6871D01*
Y7466D02*
Y8066D01*
X11816Y7301D02*
Y6871D01*
Y7466D02*
Y8066D01*
X11811Y7301D02*
Y6871D01*
Y7466D02*
Y8066D01*
X11806Y7301D02*
Y6871D01*
Y7466D02*
Y8066D01*
X11801Y7301D02*
Y6871D01*
Y7466D02*
Y8066D01*
X11796Y7301D02*
Y6871D01*
Y7466D02*
Y8066D01*
X11791Y7301D02*
Y6871D01*
Y7466D02*
Y8066D01*
X11786Y7301D02*
Y6871D01*
Y7466D02*
Y8066D01*
X11781Y7301D02*
Y6871D01*
Y7466D02*
Y8066D01*
X11776Y7301D02*
Y6871D01*
Y7466D02*
Y8066D01*
X11771Y7301D02*
Y6871D01*
Y7466D02*
Y8066D01*
X11766Y7301D02*
Y6871D01*
Y7466D02*
Y8066D01*
X11761Y7301D02*
Y6871D01*
Y7466D02*
Y8066D01*
X11756Y7301D02*
Y6871D01*
Y7466D02*
Y8066D01*
X11751Y7301D02*
Y6871D01*
Y7466D02*
Y8066D01*
X11746Y7301D02*
Y6871D01*
Y7466D02*
Y8066D01*
X11741Y7301D02*
Y6871D01*
Y7466D02*
Y8066D01*
X11736Y7301D02*
Y6871D01*
Y7466D02*
Y8066D01*
X11906Y8344D02*
X11918Y8356D01*
X11906Y8318D02*
X11918Y8306D01*
X11906Y9054D02*
X11918Y9066D01*
X11906Y9028D02*
X11918Y9016D01*
Y6946D02*
X11906Y6934D01*
Y6908D02*
X11918Y6896D01*
X11906Y7704D02*
X11918Y7716D01*
X11906Y7678D02*
X11918Y7666D01*
X12126Y8086D02*
Y8236D01*
Y8786D02*
Y8911D01*
X12121Y8236D02*
Y8086D01*
Y8786D02*
Y8911D01*
X12116Y8236D02*
Y8086D01*
Y8786D02*
Y8911D01*
X12111Y8236D02*
Y8086D01*
Y8786D02*
Y8911D01*
X12106Y8236D02*
Y8086D01*
Y8786D02*
Y8911D01*
X12101Y8236D02*
Y8086D01*
Y8786D02*
Y8911D01*
X12096Y8236D02*
Y8086D01*
Y8786D02*
Y8911D01*
X12091Y8236D02*
Y8086D01*
Y8786D02*
Y8911D01*
X12086Y8236D02*
Y8086D01*
Y8786D02*
Y8911D01*
X12081Y8236D02*
Y8086D01*
Y8786D02*
Y8911D01*
X12076Y8236D02*
Y8086D01*
Y8786D02*
Y8911D01*
X12071Y8236D02*
Y8086D01*
Y8786D02*
Y8911D01*
X12066Y8236D02*
Y8086D01*
Y8786D02*
Y8911D01*
X12061Y8236D02*
Y8086D01*
Y8786D02*
Y8911D01*
X12056Y8236D02*
Y8086D01*
Y8786D02*
Y8911D01*
X12051Y8236D02*
Y8086D01*
Y8786D02*
Y8911D01*
X12046Y8236D02*
Y8086D01*
Y8786D02*
Y8911D01*
X12041Y8236D02*
Y8086D01*
Y8786D02*
Y8911D01*
X12036Y8236D02*
Y8086D01*
Y8786D02*
Y8911D01*
X12031Y8236D02*
Y8086D01*
Y8786D02*
Y8911D01*
X12026Y8236D02*
Y8086D01*
Y8786D02*
Y8911D01*
X12021Y8236D02*
Y8086D01*
Y8786D02*
Y8911D01*
X12016Y8236D02*
Y8086D01*
Y8786D02*
Y8911D01*
X12011Y8236D02*
Y8086D01*
Y8786D02*
Y8911D01*
X12006Y8236D02*
Y8086D01*
Y8786D02*
Y8911D01*
X12001Y8236D02*
Y8086D01*
Y8786D02*
Y8911D01*
X11996Y8236D02*
Y8086D01*
Y8786D02*
Y8911D01*
X11991Y8236D02*
Y8086D01*
Y8786D02*
Y8911D01*
X11986Y8236D02*
Y8086D01*
Y8786D02*
Y8911D01*
X11981Y8236D02*
Y8086D01*
Y8786D02*
Y8911D01*
X11976Y8236D02*
Y8086D01*
Y8786D02*
Y8911D01*
X11971Y8236D02*
Y8086D01*
Y8786D02*
Y8911D01*
X11966Y8236D02*
Y8086D01*
Y8786D02*
Y8911D01*
X11961Y8236D02*
Y8086D01*
Y8786D02*
Y8911D01*
X11956Y8236D02*
Y8086D01*
Y8786D02*
Y8911D01*
X11951Y8236D02*
Y8086D01*
Y8786D02*
Y8911D01*
X11946Y8236D02*
Y8086D01*
Y8786D02*
Y8911D01*
X11941Y8236D02*
Y8086D01*
Y8786D02*
Y8911D01*
X11936Y8236D02*
Y8086D01*
Y8786D02*
Y8911D01*
X11931Y8236D02*
Y8086D01*
Y8786D02*
Y8911D01*
X12126Y6851D02*
Y6651D01*
Y7321D02*
Y7446D01*
X12121Y6851D02*
Y6651D01*
Y7321D02*
Y7446D01*
X12116Y6851D02*
Y6651D01*
Y7321D02*
Y7446D01*
X12111Y6851D02*
Y6651D01*
Y7321D02*
Y7446D01*
X12106Y6851D02*
Y6651D01*
Y7321D02*
Y7446D01*
X12101Y6851D02*
Y6651D01*
Y7321D02*
Y7446D01*
X12096Y6851D02*
Y6651D01*
Y7321D02*
Y7446D01*
X12091Y6851D02*
Y6651D01*
Y7321D02*
Y7446D01*
X12086Y6851D02*
Y6651D01*
Y7321D02*
Y7446D01*
X12081Y6851D02*
Y6651D01*
Y7321D02*
Y7446D01*
X12076Y6851D02*
Y6651D01*
Y7321D02*
Y7446D01*
X12071Y6851D02*
Y6651D01*
Y7321D02*
Y7446D01*
X12066Y6851D02*
Y6651D01*
Y7321D02*
Y7446D01*
X12061Y6851D02*
Y6651D01*
Y7321D02*
Y7446D01*
X12056Y6851D02*
Y6651D01*
Y7321D02*
Y7446D01*
X12051Y6851D02*
Y6651D01*
Y7321D02*
Y7446D01*
X12046Y6851D02*
Y6651D01*
Y7321D02*
Y7446D01*
X12041Y6851D02*
Y6651D01*
Y7321D02*
Y7446D01*
X12036Y6851D02*
Y6651D01*
Y7321D02*
Y7446D01*
X12031Y6851D02*
Y6651D01*
Y7321D02*
Y7446D01*
X12026Y6851D02*
Y6651D01*
Y7321D02*
Y7446D01*
X12021Y6851D02*
Y6651D01*
Y7321D02*
Y7446D01*
X12016Y6851D02*
Y6651D01*
Y7321D02*
Y7446D01*
X12011Y6851D02*
Y6651D01*
Y7321D02*
Y7446D01*
X12006Y6851D02*
Y6651D01*
Y7321D02*
Y7446D01*
X12001Y6851D02*
Y6651D01*
Y7321D02*
Y7446D01*
X11996Y6851D02*
Y6651D01*
Y7321D02*
Y7446D01*
X11991Y6851D02*
Y6651D01*
Y7321D02*
Y7446D01*
X11986Y6851D02*
Y6651D01*
Y7321D02*
Y7446D01*
X11981Y6851D02*
Y6651D01*
Y7321D02*
Y7446D01*
X11976Y6851D02*
Y6651D01*
Y7321D02*
Y7446D01*
X11971Y6851D02*
Y6651D01*
Y7321D02*
Y7446D01*
X11966Y6851D02*
Y6651D01*
Y7321D02*
Y7446D01*
X11961Y6851D02*
Y6651D01*
Y7321D02*
Y7446D01*
X11956Y6851D02*
Y6651D01*
Y7321D02*
Y7446D01*
X11951Y6851D02*
Y6651D01*
Y7321D02*
Y7446D01*
X11946Y6851D02*
Y6651D01*
Y7321D02*
Y7446D01*
X11941Y6851D02*
Y6651D01*
Y7321D02*
Y7446D01*
X11936Y6851D02*
Y6651D01*
Y7321D02*
Y7446D01*
X11931Y6851D02*
Y6651D01*
Y7321D02*
Y7446D01*
X12126Y8256D02*
Y8766D01*
Y8931D02*
Y9326D01*
X12121Y8766D02*
Y8256D01*
Y8931D02*
Y9326D01*
X12116Y8766D02*
Y8256D01*
Y8931D02*
Y9326D01*
X12111Y8766D02*
Y8256D01*
Y8931D02*
Y9326D01*
X12106Y8766D02*
Y8256D01*
Y8931D02*
Y9326D01*
X12101Y8766D02*
Y8256D01*
Y8931D02*
Y9326D01*
X12096Y8766D02*
Y8256D01*
Y8931D02*
Y9326D01*
X12091Y8766D02*
Y8256D01*
Y8931D02*
Y9326D01*
X12086Y8766D02*
Y8256D01*
Y8931D02*
Y9326D01*
X12081Y8766D02*
Y8256D01*
Y8931D02*
Y9326D01*
X12076Y8766D02*
Y8256D01*
Y8931D02*
Y9326D01*
X12071Y8766D02*
Y8256D01*
Y8931D02*
Y9326D01*
X12066Y8766D02*
Y8256D01*
Y8931D02*
Y9326D01*
X12061Y8766D02*
Y8256D01*
Y8931D02*
Y9326D01*
X12056Y8766D02*
Y8256D01*
Y8931D02*
Y9326D01*
X12051Y8766D02*
Y8256D01*
Y8931D02*
Y9326D01*
X12046Y8766D02*
Y8256D01*
Y8931D02*
Y9326D01*
X12041Y8766D02*
Y8256D01*
Y8931D02*
Y9326D01*
X12036Y8766D02*
Y8256D01*
Y8931D02*
Y9326D01*
X12031Y8766D02*
Y8256D01*
Y8931D02*
Y9326D01*
X12026Y8766D02*
Y8256D01*
Y8931D02*
Y9326D01*
X12021Y8766D02*
Y8256D01*
Y8931D02*
Y9326D01*
X12016Y8766D02*
Y8256D01*
Y8931D02*
Y9326D01*
X12011Y8766D02*
Y8256D01*
Y8931D02*
Y9326D01*
X12006Y8766D02*
Y8256D01*
Y8931D02*
Y9326D01*
X12001Y8766D02*
Y8256D01*
Y8931D02*
Y9326D01*
X11996Y8766D02*
Y8256D01*
Y8931D02*
Y9326D01*
X11991Y8766D02*
Y8256D01*
Y8931D02*
Y9326D01*
X11986Y8766D02*
Y8256D01*
Y8931D02*
Y9326D01*
X11981Y8766D02*
Y8256D01*
Y8931D02*
Y9326D01*
X11976Y8766D02*
Y8256D01*
Y8931D02*
Y9326D01*
X11971Y8766D02*
Y8256D01*
Y8931D02*
Y9326D01*
X11966Y8766D02*
Y8256D01*
Y8931D02*
Y9326D01*
X11961Y8766D02*
Y8256D01*
Y8931D02*
Y9326D01*
X11956Y8318D02*
Y8256D01*
Y8318D02*
Y8344D01*
Y8766D01*
Y8931D02*
Y9028D01*
Y9054D01*
Y9326D01*
X11951Y8306D02*
Y8256D01*
Y8306D02*
Y8314D01*
Y8348D02*
Y8356D01*
Y8766D01*
Y8931D02*
Y9016D01*
Y9024D01*
Y9058D02*
Y9066D01*
Y9326D01*
X11946Y8306D02*
Y8256D01*
Y8356D02*
Y8766D01*
Y8931D02*
Y9016D01*
Y9066D02*
Y9326D01*
X11941Y8306D02*
Y8256D01*
Y8356D02*
Y8766D01*
Y8931D02*
Y9016D01*
Y9066D02*
Y9326D01*
X11936Y8306D02*
Y8256D01*
Y8356D02*
Y8766D01*
Y8931D02*
Y9016D01*
Y9066D02*
Y9326D01*
X11931Y8306D02*
Y8256D01*
Y8356D02*
Y8766D01*
Y8931D02*
Y9016D01*
Y9066D02*
Y9326D01*
X12126Y7301D02*
Y6871D01*
Y7466D02*
Y8066D01*
X12121Y7301D02*
Y6871D01*
Y7466D02*
Y8066D01*
X12116Y7301D02*
Y6871D01*
Y7466D02*
Y8066D01*
X12111Y7301D02*
Y6871D01*
Y7466D02*
Y8066D01*
X12106Y7301D02*
Y6871D01*
Y7466D02*
Y8066D01*
X12101Y7301D02*
Y6871D01*
Y7466D02*
Y8066D01*
X12096Y7301D02*
Y6871D01*
Y7466D02*
Y8066D01*
X12091Y7301D02*
Y6871D01*
Y7466D02*
Y8066D01*
X12086Y7301D02*
Y6871D01*
Y7466D02*
Y8066D01*
X12081Y7301D02*
Y6871D01*
Y7466D02*
Y8066D01*
X12076Y7301D02*
Y6871D01*
Y7466D02*
Y8066D01*
X12071Y7301D02*
Y6871D01*
Y7466D02*
Y8066D01*
X12066Y7301D02*
Y6871D01*
Y7466D02*
Y8066D01*
X12061Y7301D02*
Y6871D01*
Y7466D02*
Y8066D01*
X12056Y7301D02*
Y6871D01*
Y7466D02*
Y8066D01*
X12051Y7301D02*
Y6871D01*
Y7466D02*
Y8066D01*
X12046Y7301D02*
Y6871D01*
Y7466D02*
Y8066D01*
X12041Y7301D02*
Y6871D01*
Y7466D02*
Y8066D01*
X12036Y7301D02*
Y6871D01*
Y7466D02*
Y8066D01*
X12031Y7301D02*
Y6871D01*
Y7466D02*
Y8066D01*
X12026Y7301D02*
Y6871D01*
Y7466D02*
Y8066D01*
X12021Y7301D02*
Y6871D01*
Y7466D02*
Y8066D01*
X12016Y7301D02*
Y6871D01*
Y7466D02*
Y8066D01*
X12011Y7301D02*
Y6871D01*
Y7466D02*
Y8066D01*
X12006Y7301D02*
Y6871D01*
Y7466D02*
Y8066D01*
X12001Y7301D02*
Y6871D01*
Y7466D02*
Y8066D01*
X11996Y7301D02*
Y6871D01*
Y7466D02*
Y8066D01*
X11991Y7301D02*
Y6871D01*
Y7466D02*
Y8066D01*
X11986Y7301D02*
Y6871D01*
Y7466D02*
Y8066D01*
X11981Y7301D02*
Y6871D01*
Y7466D02*
Y8066D01*
X11976Y7301D02*
Y6871D01*
Y7466D02*
Y8066D01*
X11971Y7301D02*
Y6871D01*
Y7466D02*
Y8066D01*
X11966Y7301D02*
Y6871D01*
Y7466D02*
Y8066D01*
X11961Y7301D02*
Y6871D01*
Y7466D02*
Y8066D01*
X11956Y6908D02*
Y6871D01*
Y6908D02*
Y6934D01*
Y7301D01*
Y7466D02*
Y7678D01*
Y7704D01*
Y8066D01*
X11951Y6896D02*
Y6871D01*
Y6896D02*
Y6904D01*
Y6938D02*
Y6946D01*
Y7301D01*
Y7466D02*
Y7666D01*
Y7674D01*
Y7708D02*
Y7716D01*
Y8066D01*
X11946Y6896D02*
Y6871D01*
Y6946D02*
Y7301D01*
Y7466D02*
Y7666D01*
Y7716D02*
Y8066D01*
X11941Y6896D02*
Y6871D01*
Y6946D02*
Y7301D01*
Y7466D02*
Y7666D01*
Y7716D02*
Y8066D01*
X11936Y6896D02*
Y6871D01*
Y6946D02*
Y7301D01*
Y7466D02*
Y7666D01*
Y7716D02*
Y8066D01*
X11931Y6896D02*
Y6871D01*
Y6946D02*
Y7301D01*
Y7466D02*
Y7666D01*
Y7716D02*
Y8066D01*
X11944Y8306D02*
X11956Y8318D01*
Y8344D02*
X11944Y8356D01*
Y9016D02*
X11956Y9028D01*
Y9054D02*
X11944Y9066D01*
X11956Y6908D02*
X11944Y6896D01*
X11956Y6934D02*
X11944Y6946D01*
Y7666D02*
X11956Y7678D01*
Y7704D02*
X11944Y7716D01*
X12316Y8816D02*
Y8881D01*
X12311Y8886D02*
Y8811D01*
X12306Y8806D02*
Y8891D01*
X12301Y8888D02*
Y8801D01*
Y8888D02*
Y8896D01*
X12296Y8876D02*
Y8796D01*
Y8876D02*
Y8884D01*
X12291Y8876D02*
Y8791D01*
X12286Y8786D02*
Y8876D01*
X12281D02*
Y8786D01*
X12276D02*
Y8876D01*
X12271D02*
Y8786D01*
X12266D02*
Y8876D01*
X12261D02*
Y8786D01*
X12256D02*
Y8876D01*
Y8884D01*
X12251Y8888D02*
Y8786D01*
Y8888D02*
Y8911D01*
X12246D02*
Y8786D01*
X12241D02*
Y8911D01*
X12236D02*
Y8786D01*
X12231D02*
Y8911D01*
X12226D02*
Y8786D01*
X12221D02*
Y8911D01*
X12216D02*
Y8786D01*
X12211Y8201D02*
Y8121D01*
Y8786D02*
Y8911D01*
X12206Y8206D02*
Y8116D01*
Y8786D02*
Y8911D01*
X12201Y8211D02*
Y8111D01*
Y8786D02*
Y8911D01*
X12196Y8216D02*
Y8106D01*
Y8786D02*
Y8911D01*
X12191Y8221D02*
Y8101D01*
Y8786D02*
Y8911D01*
X12186Y8226D02*
Y8096D01*
Y8786D02*
Y8911D01*
X12181Y8231D02*
Y8091D01*
Y8786D02*
Y8911D01*
X12176Y8236D02*
Y8086D01*
Y8786D02*
Y8911D01*
X12171Y8236D02*
Y8086D01*
Y8786D02*
Y8911D01*
X12166Y8236D02*
Y8086D01*
Y8786D02*
Y8911D01*
X12161Y8236D02*
Y8086D01*
Y8786D02*
Y8911D01*
X12156Y8236D02*
Y8086D01*
Y8786D02*
Y8911D01*
X12151Y8236D02*
Y8086D01*
Y8786D02*
Y8911D01*
X12146Y8236D02*
Y8086D01*
Y8786D02*
Y8911D01*
X12141Y8236D02*
Y8086D01*
Y8786D02*
Y8911D01*
X12136Y8236D02*
Y8086D01*
Y8786D02*
Y8911D01*
X12131Y8236D02*
Y8086D01*
Y8786D02*
Y8911D01*
X12321Y8876D02*
Y8821D01*
X12236Y6806D02*
Y6696D01*
X12231Y6691D02*
Y6811D01*
X12226Y6816D02*
Y6686D01*
X12221Y6681D02*
Y6821D01*
X12216Y6826D02*
Y6676D01*
X12211Y6671D02*
Y6831D01*
Y7371D02*
Y7396D01*
X12206Y6836D02*
Y6666D01*
Y7366D02*
Y7401D01*
X12201Y6841D02*
Y6661D01*
Y7361D02*
Y7406D01*
X12196Y6846D02*
Y6656D01*
Y7356D02*
Y7411D01*
X12191Y6851D02*
Y6651D01*
Y7351D02*
Y7416D01*
X12186Y6851D02*
Y6651D01*
Y7346D02*
Y7421D01*
X12181Y6851D02*
Y6651D01*
Y7341D02*
Y7426D01*
X12176Y6851D02*
Y6651D01*
Y7336D02*
Y7431D01*
X12171Y6851D02*
Y6651D01*
Y7331D02*
Y7436D01*
X12166Y6851D02*
Y6651D01*
Y7326D02*
Y7441D01*
X12161Y6851D02*
Y6651D01*
Y7321D02*
Y7446D01*
X12156Y6851D02*
Y6651D01*
Y7321D02*
Y7446D01*
X12151Y6851D02*
Y6651D01*
Y7321D02*
Y7446D01*
X12146Y6851D02*
Y6651D01*
Y7321D02*
Y7446D01*
X12141Y6851D02*
Y6651D01*
Y7321D02*
Y7446D01*
X12136Y6851D02*
Y6651D01*
Y7321D02*
Y7446D01*
X12131Y6851D02*
Y6651D01*
Y7321D02*
Y7446D01*
X12241Y6801D02*
Y6701D01*
X12321Y8056D02*
Y8221D01*
Y8271D02*
Y8791D01*
Y8906D02*
Y9326D01*
X12316Y8221D02*
Y8056D01*
Y8271D02*
Y8786D01*
Y8911D02*
Y9326D01*
X12311Y8221D02*
Y8056D01*
Y8271D02*
Y8781D01*
Y8916D02*
Y9326D01*
X12306Y8221D02*
Y8056D01*
Y8271D02*
Y8776D01*
Y8921D02*
Y9326D01*
X12301Y8221D02*
Y8056D01*
Y8221D02*
Y8228D01*
Y8264D02*
Y8271D01*
Y8766D01*
Y8931D02*
Y9326D01*
X12296Y8234D02*
Y8056D01*
Y8234D02*
Y8258D01*
Y8766D01*
Y8931D02*
Y9326D01*
X12291Y8766D02*
Y8056D01*
Y8931D02*
Y9326D01*
X12286Y8766D02*
Y8056D01*
Y8931D02*
Y9326D01*
X12281Y8766D02*
Y8056D01*
Y8931D02*
Y9326D01*
X12276Y8766D02*
Y8056D01*
Y8931D02*
Y9326D01*
X12271Y8766D02*
Y8056D01*
Y8931D02*
Y9326D01*
X12266Y8766D02*
Y8056D01*
Y8931D02*
Y9326D01*
X12261Y8766D02*
Y8056D01*
Y8931D02*
Y9326D01*
X12256Y8766D02*
Y8056D01*
Y8931D02*
Y9326D01*
X12251Y8766D02*
Y8056D01*
Y8931D02*
Y9326D01*
X12246Y8766D02*
Y8056D01*
Y8931D02*
Y9326D01*
X12241Y8766D02*
Y8056D01*
Y8931D02*
Y9326D01*
X12236Y8766D02*
Y8056D01*
Y8931D02*
Y9326D01*
X12231Y8111D02*
Y8056D01*
Y8211D02*
Y8766D01*
Y8931D02*
Y9326D01*
X12226Y8106D02*
Y8056D01*
Y8216D02*
Y8766D01*
Y8931D02*
Y9326D01*
X12221Y8101D02*
Y8056D01*
Y8221D02*
Y8766D01*
Y8931D02*
Y9326D01*
X12216Y8096D02*
Y8056D01*
Y8226D02*
Y8766D01*
Y8931D02*
Y9326D01*
X12211Y8091D02*
Y8056D01*
Y8231D02*
Y8766D01*
Y8931D02*
Y9326D01*
X12206Y8086D02*
Y8056D01*
Y8236D02*
Y8766D01*
Y8931D02*
Y9326D01*
X12201Y8081D02*
Y8056D01*
Y8241D02*
Y8766D01*
Y8931D02*
Y9326D01*
X12196Y8076D02*
Y8056D01*
Y8246D02*
Y8766D01*
Y8931D02*
Y9326D01*
X12191Y8071D02*
Y8056D01*
Y8256D02*
Y8766D01*
Y8931D02*
Y9326D01*
X12186Y8066D02*
Y8056D01*
Y8256D02*
Y8766D01*
Y8931D02*
Y9326D01*
X12181Y8766D02*
Y8256D01*
Y8931D02*
Y9326D01*
X12176Y8766D02*
Y8256D01*
Y8931D02*
Y9326D01*
X12171Y8766D02*
Y8256D01*
Y8931D02*
Y9326D01*
X12166Y8766D02*
Y8256D01*
Y8931D02*
Y9326D01*
X12161Y8766D02*
Y8256D01*
Y8931D02*
Y9326D01*
X12156Y8766D02*
Y8256D01*
Y8931D02*
Y9326D01*
X12151Y8766D02*
Y8256D01*
Y8931D02*
Y9326D01*
X12146Y8766D02*
Y8256D01*
Y8931D02*
Y9326D01*
X12141Y8766D02*
Y8256D01*
Y8931D02*
Y9326D01*
X12136Y8766D02*
Y8256D01*
Y8931D02*
Y9326D01*
X12131Y8766D02*
Y8256D01*
Y8931D02*
Y9326D01*
X12231Y8211D02*
Y8111D01*
X12321Y7516D02*
Y6871D01*
Y7566D02*
Y8066D01*
X12316Y7516D02*
Y6871D01*
Y7566D02*
Y8066D01*
X12311Y7516D02*
Y6871D01*
Y7566D02*
Y8066D01*
X12306Y7516D02*
Y6871D01*
Y7516D02*
Y7524D01*
Y7558D02*
Y7566D01*
Y8066D01*
X12301Y7528D02*
Y6871D01*
Y7528D02*
Y7554D01*
Y8066D01*
X12296D02*
Y6871D01*
X12291D02*
Y8066D01*
X12286D02*
Y6871D01*
X12281D02*
Y8066D01*
X12276D02*
Y6871D01*
X12271D02*
Y8066D01*
X12266D02*
Y6871D01*
X12261D02*
Y8066D01*
X12256Y7174D02*
Y6871D01*
Y7174D02*
Y7198D01*
Y8066D01*
X12251Y7161D02*
Y6871D01*
Y7161D02*
Y7168D01*
Y7204D02*
Y7211D01*
Y8066D01*
X12246Y7161D02*
Y6871D01*
Y7211D02*
Y8066D01*
X12241Y7161D02*
Y6871D01*
Y7211D02*
Y8066D01*
X12236Y7161D02*
Y6871D01*
Y7211D02*
Y8066D01*
X12231Y7161D02*
Y6871D01*
Y7211D02*
Y7361D01*
Y7406D02*
Y8066D01*
X12226Y7161D02*
Y6871D01*
Y7211D02*
Y7356D01*
Y7411D02*
Y8066D01*
X12221Y7161D02*
Y6871D01*
Y7211D02*
Y7351D01*
Y7416D02*
Y8066D01*
X12216Y7161D02*
Y6871D01*
Y7211D02*
Y7346D01*
Y7421D02*
Y8066D01*
X12211Y7161D02*
Y6871D01*
Y7161D02*
Y7168D01*
Y7204D02*
Y7211D01*
Y7341D01*
Y7426D02*
Y8066D01*
X12206Y7174D02*
Y6871D01*
Y7174D02*
Y7198D01*
Y7336D01*
Y7431D02*
Y8066D01*
X12201Y7331D02*
Y6871D01*
Y7436D02*
Y8066D01*
X12196Y7326D02*
Y6871D01*
Y7441D02*
Y8066D01*
X12191Y7321D02*
Y6871D01*
Y7446D02*
Y8066D01*
X12186Y7316D02*
Y6871D01*
Y7451D02*
Y8066D01*
X12181Y7311D02*
Y6871D01*
Y7456D02*
Y8066D01*
X12176Y7301D02*
Y6871D01*
Y7466D02*
Y8066D01*
X12171Y7301D02*
Y6871D01*
Y7466D02*
Y8066D01*
X12166Y7301D02*
Y6871D01*
Y7466D02*
Y8066D01*
X12161Y7301D02*
Y6871D01*
Y7466D02*
Y8066D01*
X12156Y7301D02*
Y6871D01*
Y7466D02*
Y8066D01*
X12151Y7301D02*
Y6871D01*
Y7466D02*
Y8066D01*
X12146Y7301D02*
Y6871D01*
Y7466D02*
Y8066D01*
X12141Y7301D02*
Y6871D01*
Y7466D02*
Y8066D01*
X12136Y7301D02*
Y6871D01*
Y7466D02*
Y8066D01*
X12131Y7301D02*
Y6871D01*
Y7466D02*
Y8066D01*
X12231Y7406D02*
Y7361D01*
X12288Y8876D02*
X12301Y8888D01*
X12264Y8876D02*
X12251Y8888D01*
X12211Y8121D02*
X12176Y8086D01*
X12211Y8201D02*
X12176Y8236D01*
X12286Y8786D02*
X12321Y8821D01*
Y8876D02*
X12301Y8896D01*
X12191Y6851D02*
X12241Y6801D01*
Y6701D02*
X12191Y6651D01*
X12211Y7396D02*
X12161Y7446D01*
X12211Y7371D02*
X12161Y7321D01*
X12296Y8258D02*
X12308Y8271D01*
X12296Y8234D02*
X12308Y8221D01*
X12231Y8111D02*
X12176Y8056D01*
X12341Y8886D02*
X12296Y8931D01*
X12341Y8811D02*
X12296Y8766D01*
X12186Y8256D02*
X12231Y8211D01*
X12314Y7566D02*
X12301Y7554D01*
Y7528D02*
X12314Y7516D01*
X12256Y7174D02*
X12244Y7161D01*
X12256Y7198D02*
X12244Y7211D01*
X12218D02*
X12206Y7198D01*
Y7174D02*
X12218Y7161D01*
X12171Y7301D02*
X12231Y7361D01*
Y7406D02*
X12171Y7466D01*
X12516Y8056D02*
Y8311D01*
Y8431D02*
Y9021D01*
Y9131D02*
Y9326D01*
X12511Y8311D02*
Y8056D01*
Y8431D02*
Y9021D01*
Y9131D02*
Y9326D01*
X12506Y8311D02*
Y8056D01*
Y8431D02*
Y9021D01*
Y9131D02*
Y9326D01*
X12501Y8311D02*
Y8056D01*
Y8431D02*
Y8784D01*
Y8808D01*
Y9021D01*
Y9131D02*
Y9326D01*
X12496Y8311D02*
Y8056D01*
Y8431D02*
Y8771D01*
Y8778D01*
Y8814D02*
Y8821D01*
Y9021D01*
Y9131D02*
Y9326D01*
X12491Y8311D02*
Y8056D01*
Y8431D02*
Y8771D01*
Y8821D02*
Y9021D01*
Y9131D02*
Y9326D01*
X12486Y8311D02*
Y8056D01*
Y8431D02*
Y8771D01*
Y8821D02*
Y9021D01*
Y9131D02*
Y9326D01*
X12481Y8311D02*
Y8056D01*
Y8431D02*
Y8771D01*
Y8821D02*
Y9021D01*
Y9131D02*
Y9326D01*
X12476Y8311D02*
Y8056D01*
Y8431D02*
Y8771D01*
Y8821D02*
Y9021D01*
Y9131D02*
Y9326D01*
X12471Y8311D02*
Y8056D01*
Y8431D02*
Y8771D01*
Y8821D02*
Y9021D01*
Y9131D02*
Y9326D01*
X12466Y8311D02*
Y8056D01*
Y8431D02*
Y8771D01*
Y8821D02*
Y9021D01*
Y9131D02*
Y9326D01*
X12461Y8311D02*
Y8056D01*
Y8431D02*
Y8771D01*
Y8821D02*
Y9021D01*
Y9131D02*
Y9326D01*
X12456Y8311D02*
Y8056D01*
Y8431D02*
Y8771D01*
Y8778D01*
Y8814D02*
Y8821D01*
Y9021D01*
Y9131D02*
Y9326D01*
X12451Y8311D02*
Y8056D01*
Y8431D02*
Y8564D01*
Y8588D01*
Y8784D01*
Y8808D01*
Y9021D01*
Y9131D02*
Y9326D01*
X12446Y8311D02*
Y8056D01*
Y8431D02*
Y8551D01*
Y8558D01*
Y8594D02*
Y8601D01*
Y9021D01*
Y9131D02*
Y9326D01*
X12441Y8311D02*
Y8056D01*
Y8431D02*
Y8551D01*
Y8601D02*
Y9021D01*
Y9131D02*
Y9326D01*
X12436Y8551D02*
Y8431D01*
Y8601D02*
Y9021D01*
Y9031D01*
Y9121D01*
Y9131D01*
Y9326D01*
X12431Y8311D02*
Y8056D01*
Y8431D02*
Y8551D01*
Y8601D02*
Y9326D01*
X12426Y8311D02*
Y8056D01*
Y8311D02*
Y8321D01*
Y8421D01*
Y8431D01*
Y8551D01*
Y8601D02*
Y9326D01*
X12421Y8551D02*
Y8056D01*
Y8601D02*
Y9326D01*
X12416Y8551D02*
Y8056D01*
Y8601D02*
Y9326D01*
X12411Y8551D02*
Y8056D01*
Y8601D02*
Y9326D01*
X12406Y8551D02*
Y8056D01*
Y8551D02*
Y8558D01*
Y8594D02*
Y8601D01*
Y9326D01*
X12401Y8564D02*
Y8056D01*
Y8564D02*
Y8588D01*
Y9326D01*
X12396D02*
Y8056D01*
X12391D02*
Y9326D01*
X12386D02*
Y8056D01*
X12381D02*
Y9326D01*
X12376D02*
Y8056D01*
X12371D02*
Y9326D01*
X12366D02*
Y8056D01*
X12361D02*
Y9326D01*
X12356D02*
Y8056D01*
X12351D02*
Y9326D01*
X12346Y8234D02*
Y8056D01*
Y8234D02*
Y8258D01*
Y9326D01*
X12341Y8221D02*
Y8056D01*
Y8221D02*
Y8228D01*
Y8264D02*
Y8271D01*
Y8811D01*
Y8886D02*
Y9326D01*
X12336Y8221D02*
Y8056D01*
Y8271D02*
Y8806D01*
Y8891D02*
Y9326D01*
X12331Y8221D02*
Y8056D01*
Y8271D02*
Y8801D01*
Y8896D02*
Y9326D01*
X12326Y8221D02*
Y8056D01*
Y8271D02*
Y8796D01*
Y8901D02*
Y9326D01*
X12341Y8886D02*
Y8811D01*
X12516Y7124D02*
Y7056D01*
Y7124D02*
Y7148D01*
Y7611D01*
Y7726D02*
Y8066D01*
X12511Y7111D02*
Y7056D01*
Y7111D02*
Y7118D01*
Y7154D02*
Y7161D01*
Y7611D01*
Y7726D02*
Y8066D01*
X12506Y7111D02*
Y7056D01*
Y7161D02*
Y7611D01*
Y7726D02*
Y8066D01*
X12501Y7111D02*
Y7056D01*
Y7161D02*
Y7611D01*
Y7726D02*
Y8066D01*
X12496Y7111D02*
Y7056D01*
Y7161D02*
Y7611D01*
Y7726D02*
Y8066D01*
X12491Y7111D02*
Y7056D01*
Y7161D02*
Y7611D01*
Y7726D02*
Y8066D01*
X12486Y7111D02*
Y7056D01*
Y7161D02*
Y7611D01*
Y7726D02*
Y8066D01*
X12481Y7111D02*
Y7056D01*
Y7161D02*
Y7344D01*
Y7368D01*
Y7611D01*
Y7726D02*
Y8066D01*
X12476Y7111D02*
Y7056D01*
Y7161D02*
Y7331D01*
Y7338D01*
Y7374D02*
Y7381D01*
Y7611D01*
Y7726D02*
Y8066D01*
X12471Y7111D02*
Y7056D01*
Y7111D02*
Y7118D01*
Y7154D02*
Y7161D01*
Y7331D01*
Y7381D02*
Y7611D01*
Y7726D02*
Y8066D01*
X12466Y7124D02*
Y7056D01*
Y7124D02*
Y7148D01*
Y7331D01*
Y7381D02*
Y7611D01*
Y7726D02*
Y8066D01*
X12461Y7331D02*
Y7056D01*
Y7381D02*
Y7611D01*
Y7726D02*
Y8066D01*
X12456Y7056D02*
Y7046D01*
Y7056D02*
Y7331D01*
Y7381D02*
Y7611D01*
Y7726D02*
Y8066D01*
X12451Y7331D02*
Y7041D01*
Y7381D02*
Y7611D01*
Y7726D02*
Y8066D01*
X12446Y7331D02*
Y7036D01*
Y7381D02*
Y7611D01*
Y7726D02*
Y8066D01*
X12441Y7331D02*
Y7031D01*
Y7381D02*
Y7611D01*
Y7726D02*
Y8066D01*
X12436Y7331D02*
Y7026D01*
Y7331D02*
Y7338D01*
Y7374D02*
Y7381D01*
Y7611D01*
Y7726D02*
Y8066D01*
X12431Y7344D02*
Y7021D01*
Y7344D02*
Y7368D01*
Y7611D01*
Y7726D02*
Y8066D01*
X12426Y7611D02*
Y7016D01*
Y7726D02*
Y8066D01*
X12421Y7611D02*
Y7011D01*
Y7611D02*
Y7621D01*
Y7716D01*
Y7726D01*
Y8066D01*
X12416Y7006D02*
Y6921D01*
Y7006D02*
Y8066D01*
X12411D02*
Y6916D01*
X12406Y6911D02*
Y8066D01*
X12401D02*
Y6906D01*
X12396Y6901D02*
Y8066D01*
X12391D02*
Y6896D01*
X12386Y6891D02*
Y8066D01*
X12381D02*
Y6886D01*
X12376Y6881D02*
Y8066D01*
X12371D02*
Y6876D01*
X12366Y6871D02*
Y8066D01*
X12361D02*
Y6871D01*
X12356D02*
Y8066D01*
X12351Y7528D02*
Y6871D01*
Y7528D02*
Y7554D01*
Y8066D01*
X12346Y7516D02*
Y6871D01*
Y7516D02*
Y7524D01*
Y7558D02*
Y7566D01*
Y8066D01*
X12341Y7516D02*
Y6871D01*
Y7566D02*
Y8066D01*
X12336Y7516D02*
Y6871D01*
Y7566D02*
Y8066D01*
X12331Y7516D02*
Y6871D01*
Y7566D02*
Y8066D01*
X12326Y7516D02*
Y6871D01*
Y7566D02*
Y8066D01*
X12488Y8771D02*
X12501Y8784D01*
Y8808D02*
X12488Y8821D01*
X12464D02*
X12451Y8808D01*
Y8784D02*
X12464Y8771D01*
X12451Y8564D02*
X12438Y8551D01*
X12451Y8588D02*
X12438Y8601D01*
X12414D02*
X12401Y8588D01*
Y8564D02*
X12414Y8551D01*
X12346Y8234D02*
X12334Y8221D01*
X12346Y8258D02*
X12334Y8271D01*
X12516Y8311D02*
X12566Y8261D01*
X12436Y8311D02*
X12426Y8321D01*
Y8421D02*
X12436Y8431D01*
X12516D02*
X12546Y8461D01*
X12566Y8971D02*
X12516Y9021D01*
X12446D02*
X12436Y9031D01*
Y9121D02*
X12446Y9131D01*
X12516D02*
X12566Y9181D01*
Y9276D02*
X12516Y9326D01*
Y7124D02*
X12504Y7111D01*
X12516Y7148D02*
X12504Y7161D01*
X12478D02*
X12466Y7148D01*
Y7124D02*
X12478Y7111D01*
X12468Y7331D02*
X12481Y7344D01*
Y7368D02*
X12468Y7381D01*
X12444D02*
X12431Y7368D01*
Y7344D02*
X12444Y7331D01*
X12338Y7516D02*
X12351Y7528D01*
Y7554D02*
X12338Y7566D01*
X12516Y7726D02*
X12551Y7761D01*
X12431Y7726D02*
X12421Y7716D01*
Y7621D02*
X12431Y7611D01*
X12516D02*
X12566Y7561D01*
X12526Y7066D02*
X12516Y7056D01*
X12466D02*
X12416Y7006D01*
Y6921D02*
X12366Y6871D01*
X12561Y8056D02*
Y8266D01*
Y8521D02*
Y8976D01*
Y9231D02*
Y9281D01*
X12556Y8271D02*
Y8056D01*
Y8521D02*
Y8981D01*
Y9171D02*
Y9181D01*
Y9188D01*
Y9224D02*
Y9231D01*
Y9286D01*
X12551Y8276D02*
Y8056D01*
Y8471D02*
Y8478D01*
Y8514D02*
Y8521D01*
Y8986D01*
Y9166D02*
Y9194D01*
Y9218D01*
Y9291D01*
X12546Y8281D02*
Y8056D01*
Y8461D02*
Y8484D01*
Y8508D01*
Y8991D01*
Y9161D02*
Y9296D01*
X12541Y8286D02*
Y8056D01*
Y8456D02*
Y8996D01*
Y9156D02*
Y9301D01*
X12536Y8291D02*
Y8056D01*
Y8451D02*
Y9001D01*
Y9151D02*
Y9306D01*
X12531Y8296D02*
Y8056D01*
Y8446D02*
Y9006D01*
Y9146D02*
Y9311D01*
X12526Y8301D02*
Y8056D01*
Y8441D02*
Y9011D01*
Y9141D02*
Y9316D01*
X12521Y8306D02*
Y8056D01*
Y8436D02*
Y9016D01*
Y9136D02*
Y9321D01*
X12566Y8261D02*
Y8056D01*
Y8521D02*
Y8971D01*
Y9231D02*
Y9276D01*
X12561Y7566D02*
Y7116D01*
Y7816D02*
Y8066D01*
X12556Y7116D02*
Y7108D01*
Y7116D02*
Y7571D01*
Y7766D02*
Y7774D01*
Y7808D02*
Y7816D01*
Y8066D01*
X12551Y7104D02*
Y7091D01*
Y7104D02*
Y7576D01*
Y7761D02*
Y7778D01*
Y7804D01*
Y8066D01*
X12546Y7581D02*
Y7086D01*
Y7756D02*
Y8066D01*
X12541Y7586D02*
Y7081D01*
Y7751D02*
Y8066D01*
X12536Y7591D02*
Y7076D01*
Y7746D02*
Y8066D01*
X12531Y7596D02*
Y7071D01*
Y7741D02*
Y8066D01*
X12526Y7601D02*
Y7066D01*
Y7736D02*
Y8066D01*
X12521Y7606D02*
Y7061D01*
Y7731D02*
Y8066D01*
X12566D02*
Y7816D01*
Y7561D02*
Y7116D01*
X12546Y8508D02*
X12558Y8521D01*
X12546Y8484D02*
X12557Y8472D01*
X12551Y9218D02*
X12564Y9231D01*
X12551Y9194D02*
X12564Y9181D01*
X12556Y8471D02*
X12546Y8461D01*
X12556Y8471D02*
X12557Y8472D01*
X12564Y7816D02*
X12551Y7804D01*
Y7778D02*
X12560Y7770D01*
X12564Y7116D02*
X12551Y7104D01*
Y7761D02*
X12556Y7766D01*
X12560Y7770D01*
X12551Y7091D02*
X12526Y7066D01*
D14*
X12436Y8066D02*
Y8306D01*
D16*
X11646Y8261D02*
Y8191D01*
D20*
X7176Y6741D02*
X7116Y6801D01*
X9131Y6741D02*
X9291Y6901D01*
X9131Y6741D02*
X7176D01*
X12456Y7496D02*
D03*
X12486Y7091D02*
D03*
X12481Y8496D02*
D03*
X12486Y7791D02*
D03*
X12426Y8926D02*
D03*
X12486Y9206D02*
D03*
X12186Y8901D02*
D03*
Y7406D02*
D03*
X12141Y7291D02*
D03*
X12181Y8186D02*
D03*
X12291Y8846D02*
D03*
X12216Y8646D02*
D03*
X12186Y6776D02*
D03*
X11646Y7541D02*
D03*
Y8191D02*
D03*
Y7271D02*
D03*
X11486Y8896D02*
D03*
X11201Y6996D02*
D03*
X11091Y7291D02*
D03*
X11071Y8896D02*
D03*
X11091Y8286D02*
D03*
Y7801D02*
D03*
X10841Y6801D02*
D03*
X10786Y7626D02*
D03*
X10776Y8616D02*
D03*
X10786Y8111D02*
D03*
X10711Y7481D02*
D03*
X10731Y6951D02*
D03*
X10726Y7026D02*
D03*
X10664Y8528D02*
D03*
X10686Y7971D02*
D03*
X10231Y7026D02*
D03*
X9856Y8346D02*
D03*
X9771Y7642D02*
D03*
X9291Y6901D02*
D03*
X8321Y8011D02*
D03*
D25*
X9961Y7141D02*
X10036D01*
D29*
X10151Y7026D01*
X7146Y6671D02*
X7016Y6801D01*
X7216Y7056D02*
X7301Y7141D01*
X7216Y7056D02*
X7066Y6906D01*
X9921Y6671D02*
X10051Y6801D01*
X9921Y6671D02*
X7146D01*
X10051Y6801D02*
X10841D01*
X9456Y7141D02*
X7301D01*
X9456D02*
X9961D01*
X10151Y7026D02*
X10231D01*
D30*
X7016Y6801D02*
D03*
X7116D02*
D03*
X7066Y6901D02*
D03*
M02*
