*
G04 Mass Parameters ***
*
G04 Image ***
*
%INF:\PT8619\PCB\PT8619_REMOTE-6.SST*%
%ICAS*%
%MOIN*%
%IPPOS*%
%ASAXBY*%
G74*%FSLAN2X34Y34*%
*
G04 Aperture Definitions ***
*
%ADD10C,0.0620*%
%ADD11C,0.2360*%
%ADD12C,0.0700*%
%ADD13R,0.0700X0.0700*%
%ADD14C,0.0800*%
%ADD15C,0.1000*%
%ADD16C,0.0550*%
%ADD17C,0.0580*%
%ADD18R,0.0580X0.0580*%
%ADD19C,0.0400*%
%ADD20C,0.0400*%
%ADD21C,0.0080*%
%ADD22C,0.0400*%
%ADD23R,0.0600X0.0780*%
%ADD24R,0.0787X0.1771*%
%ADD25R,0.0630X0.0980*%
%ADD26R,0.0980X0.0630*%
%ADD27C,0.0620*%
%ADD28C,0.2360*%
%ADD29R,0.0147X0.0453*%
%ADD30R,0.0453X0.0147*%
%ADD31C,0.0700*%
%ADD32R,0.0700X0.0700*%
%ADD33C,0.0800*%
%ADD34C,0.1000*%
%ADD35C,0.0550*%
%ADD36R,0.0780X0.0600*%
%ADD37C,0.0580*%
%ADD38R,0.0580X0.0580*%
%ADD39C,0.0400*%
%ADD40C,0.0100*%
%ADD41C,0.0640*%
%ADD42C,0.2380*%
%ADD43C,0.0720*%
%ADD44R,0.0720X0.0720*%
%ADD45C,0.0820*%
%ADD46C,0.1050*%
%ADD47C,0.0670*%
%ADD48C,0.0550*%
%ADD49C,0.0580*%
%ADD50R,0.0580X0.0580*%
%ADD51C,0.0450*%
%ADD52C,0.0450*%
%ADD53R,0.0620X0.0800*%
%ADD54R,0.0807X0.1791*%
%ADD55R,0.0650X0.1000*%
%ADD56R,0.1000X0.0650*%
%ADD57C,0.0640*%
%ADD58C,0.2380*%
%ADD59R,0.0167X0.0473*%
%ADD60R,0.0473X0.0167*%
%ADD61C,0.0720*%
%ADD62R,0.0720X0.0720*%
%ADD63C,0.0820*%
%ADD64C,0.1050*%
%ADD65C,0.0670*%
%ADD66C,0.0550*%
%ADD67R,0.0800X0.0620*%
%ADD68C,0.0580*%
%ADD69R,0.0580X0.0580*%
%ADD70C,0.0450*%
%ADD71C,0.0060*%
*
G04 Plot Data ***
*
G54D21*
G01X0040644Y0007750D02*
X0040533D01*
X0040588D02*
Y0008083D01*
X0040533Y0008028D01*
X0040178Y0007861D02*
X0040289Y0007750D01*
X0040067Y0007806D02*
X0040095Y0007750D01*
X0040206D01*
X0040234Y0007806D01*
X0040289Y0007861D01*
Y0008028D01*
X0040262Y0008083D01*
X0040095D01*
X0040067Y0008028D01*
Y0007806D01*
X0054084Y0013176D02*
X0053862D01*
X0053973Y0013398D01*
X0054029D01*
Y0013064D01*
X0053563Y0013176D02*
X0053674Y0013064D01*
X0053452Y0013120D02*
X0053480Y0013064D01*
X0053591D01*
X0053619Y0013120D01*
X0053674Y0013176D01*
Y0013342D01*
X0053646Y0013398D01*
X0053480D01*
X0053452Y0013342D01*
Y0013120D01*
X0040699Y0012080D02*
X0040477D01*
X0040699Y0012303D01*
Y0012358D01*
X0040672Y0012414D01*
X0040505D01*
X0040477Y0012358D01*
X0040178Y0012191D02*
X0040289Y0012080D01*
X0040067Y0012136D02*
X0040095Y0012080D01*
X0040206D01*
X0040234Y0012136D01*
X0040289Y0012191D01*
Y0012358D01*
X0040262Y0012414D01*
X0040095D01*
X0040067Y0012358D01*
Y0012136D01*
X0053862Y0008790D02*
X0053917Y0008734D01*
X0054029D01*
X0054084Y0008790D01*
Y0008845D01*
X0053973Y0008956D01*
X0054084Y0009067D01*
X0053862D01*
X0053563Y0008845D02*
X0053674Y0008734D01*
X0053452Y0008790D02*
X0053480Y0008734D01*
X0053591D01*
X0053619Y0008790D01*
X0053674Y0008845D01*
Y0009012D01*
X0053646Y0009067D01*
X0053480D01*
X0053452Y0009012D01*
Y0008790D01*
X0069572Y0008678D02*
Y0008789D01*
Y0008733D02*
X0069905D01*
X0069850Y0008789D01*
X0069905Y0009032D02*
X0069627D01*
X0069572Y0009060D01*
Y0009226D01*
X0069627Y0009254D01*
X0069905D01*
X0023552Y0010109D02*
X0023497Y0010081D01*
Y0009914D01*
X0023552Y0009887D01*
X0023663D01*
X0023719Y0009942D01*
Y0010109D01*
X0023830D01*
Y0009887D01*
X0023608Y0010408D02*
X0023497Y0010297D01*
X0023552Y0010519D02*
X0023497Y0010491D01*
Y0010380D01*
X0023552Y0010352D01*
X0023608Y0010297D01*
X0023774D01*
X0023830Y0010324D01*
Y0010491D01*
X0023774Y0010519D01*
X0023552D01*
X0091424Y0005346D02*
X0092024D01*
Y0005846D02*
Y0003846D01*
X0091724D02*
X0092024D01*
X0091424Y0005846D02*
X0092024D01*
X0091424D02*
Y0003846D01*
X0091724D01*
Y0006346D02*
Y0005846D01*
Y0003846D02*
Y0003346D01*
X0052264Y0002724D02*
X0051664D01*
Y0002224D02*
Y0004224D01*
X0051964D02*
X0051664D01*
X0052264Y0002224D02*
X0051664D01*
X0052264D02*
Y0004224D01*
X0051964D01*
Y0001724D02*
Y0002224D01*
Y0004224D02*
Y0004724D01*
X0024785Y0003843D02*
Y0003243D01*
X0025285D02*
X0023285D01*
Y0003543D02*
Y0003243D01*
X0025285Y0003843D02*
Y0003243D01*
Y0003843D02*
X0023285D01*
Y0003543D01*
X0025785D02*
X0025285D01*
X0023285D02*
X0022785D01*
X0064216Y0010807D02*
Y0006807D01*
Y0010807D02*
X0059216D01*
X0064216Y0006807D02*
X0059216D01*
Y0010807D02*
Y0006807D01*
X0024833Y0001284D02*
Y0000684D01*
X0025333D02*
X0023333D01*
Y0000984D02*
Y0000684D01*
X0025333Y0001284D02*
Y0000684D01*
Y0001284D02*
X0023333D01*
Y0000984D01*
X0025833D02*
X0025333D01*
X0023333D02*
X0022833D01*
X0035779Y0010807D02*
Y0006807D01*
Y0010807D02*
X0030779D01*
X0035779Y0006807D02*
X0030779D01*
Y0010807D02*
Y0006807D01*
X0090646Y0004299D02*
X0090046D01*
Y0003799D02*
Y0005799D01*
X0090346D02*
X0090046D01*
X0090646Y0003799D02*
X0090046D01*
X0090646D02*
Y0005799D01*
X0090346D01*
Y0003299D02*
Y0003799D01*
Y0005799D02*
Y0006299D01*
X0023785Y0001865D02*
Y0002465D01*
X0023285D02*
X0025285D01*
Y0002165D02*
Y0002465D01*
X0023285Y0001865D02*
Y0002465D01*
Y0001865D02*
X0025285D01*
Y0002165D01*
X0022785D02*
X0023285D01*
X0025285D02*
X0025785D01*
X0090046Y0010661D02*
X0090646D01*
Y0011161D02*
Y0009161D01*
X0090346D02*
X0090646D01*
X0090046Y0011161D02*
X0090646D01*
X0090046D02*
Y0009161D01*
X0090346D01*
Y0011661D02*
Y0011161D01*
Y0009161D02*
Y0008661D01*
X0042029Y0002724D02*
X0041429D01*
Y0002224D02*
Y0004224D01*
X0041729D02*
X0041429D01*
X0042029Y0002224D02*
X0041429D01*
X0042029D02*
Y0004224D01*
X0041729D01*
Y0001724D02*
Y0002224D01*
Y0004224D02*
Y0004724D01*
X0053445Y0002724D02*
X0052845D01*
Y0002224D02*
Y0004224D01*
X0053145D02*
X0052845D01*
X0053445Y0002224D02*
X0052845D01*
X0053445D02*
Y0004224D01*
X0053145D01*
Y0001724D02*
Y0002224D01*
Y0004224D02*
Y0004724D01*
X0091424Y0010661D02*
X0092024D01*
Y0011161D02*
Y0009161D01*
X0091724D02*
X0092024D01*
X0091424Y0011161D02*
X0092024D01*
X0091424D02*
Y0009161D01*
X0091724D01*
Y0011661D02*
Y0011161D01*
Y0009161D02*
Y0008661D01*
X0041460Y0006926D02*
X0041101D01*
X0041093Y0006934D01*
X0040866Y0007275D01*
X0040786Y0007676D01*
X0040866Y0008077D01*
X0041093Y0008418D01*
X0041434Y0008645D01*
X0041835Y0008725D01*
X0042236Y0008645D01*
X0042577Y0008418D01*
X0042804Y0008077D01*
X0042884Y0007676D01*
X0042804Y0007275D01*
X0042577Y0006934D01*
X0042585Y0006926D02*
X0042210D01*
X0111358Y0005598D02*
Y0001598D01*
Y0005598D02*
X0106358D01*
X0111358Y0001598D02*
X0106358D01*
Y0005598D02*
Y0001598D01*
X0040848Y0002724D02*
X0040248D01*
Y0002224D02*
Y0004224D01*
X0040548D02*
X0040248D01*
X0040848Y0002224D02*
X0040248D01*
X0040848D02*
Y0004224D01*
X0040548D01*
Y0001724D02*
Y0002224D01*
Y0004224D02*
Y0004724D01*
X0013172Y0012110D02*
Y0011510D01*
X0013672D02*
X0011672D01*
Y0011810D02*
Y0011510D01*
X0013672Y0012110D02*
Y0011510D01*
Y0012110D02*
X0011672D01*
Y0011810D01*
X0014172D02*
X0013672D01*
X0011672D02*
X0011172D01*
X0027910Y0011153D02*
X0028410Y0011653D01*
Y0012073D01*
X0022990D01*
Y0011153D01*
X0027910D01*
X0012172Y0007180D02*
Y0007780D01*
X0011672D02*
X0013672D01*
Y0007480D02*
Y0007780D01*
X0011672Y0007180D02*
Y0007780D01*
Y0007180D02*
X0013672D01*
Y0007480D01*
X0011172D02*
X0011672D01*
X0013672D02*
X0014172D01*
X0011389Y0005468D02*
Y0001468D01*
Y0005468D02*
X0006389D01*
X0011389Y0001468D02*
X0006389D01*
Y0005468D02*
Y0001468D01*
X0023833Y0004424D02*
Y0005024D01*
X0023333D02*
X0025333D01*
Y0004724D02*
Y0005024D01*
X0023333Y0004424D02*
Y0005024D01*
Y0004424D02*
X0025333D01*
Y0004724D01*
X0022833D02*
X0023333D01*
X0025333D02*
X0025833D01*
X0053664Y0011257D02*
X0053305D01*
X0053297Y0011265D01*
X0053070Y0011606D01*
X0052990Y0012007D01*
X0053070Y0012408D01*
X0053297Y0012749D01*
X0053638Y0012976D01*
X0054039Y0013056D01*
X0054440Y0012976D01*
X0054781Y0012749D01*
X0055008Y0012408D01*
X0055088Y0012007D01*
X0055008Y0011606D01*
X0054781Y0011265D01*
X0054789Y0011257D02*
X0054414D01*
X0035779Y0005598D02*
Y0001598D01*
Y0005598D02*
X0030779D01*
X0035779Y0001598D02*
X0030779D01*
Y0005598D02*
Y0001598D01*
X0064216Y0005598D02*
Y0001598D01*
Y0005598D02*
X0059216D01*
X0064216Y0001598D02*
X0059216D01*
Y0005598D02*
Y0001598D01*
X0041460Y0011257D02*
X0041101D01*
X0041093Y0011265D01*
X0040866Y0011606D01*
X0040786Y0012007D01*
X0040866Y0012408D01*
X0041093Y0012749D01*
X0041434Y0012976D01*
X0041835Y0013056D01*
X0042236Y0012976D01*
X0042577Y0012749D01*
X0042804Y0012408D01*
X0042884Y0012007D01*
X0042804Y0011606D01*
X0042577Y0011265D01*
X0042585Y0011257D02*
X0042210D01*
X0012219Y0010329D02*
Y0010929D01*
X0011719D02*
X0013719D01*
Y0010629D02*
Y0010929D01*
X0011719Y0010329D02*
Y0010929D01*
Y0010329D02*
X0013719D01*
Y0010629D01*
X0011219D02*
X0011719D01*
X0013719D02*
X0014219D01*
X0053664Y0006926D02*
X0053305D01*
X0053297Y0006934D01*
X0053070Y0007275D01*
X0052990Y0007676D01*
X0053070Y0008077D01*
X0053297Y0008418D01*
X0053638Y0008645D01*
X0054039Y0008725D01*
X0054440Y0008645D01*
X0054781Y0008418D01*
X0055008Y0008077D01*
X0055088Y0007676D01*
X0055008Y0007275D01*
X0054781Y0006934D01*
X0054789Y0006926D02*
X0054414D01*
X0067939Y0009357D02*
X0068439D01*
Y0002357D01*
X0066439D01*
Y0009357D01*
X0067939D01*
Y0009107D01*
X0066939D01*
Y0009357D01*
X0013219Y0008961D02*
Y0008361D01*
X0013719D02*
X0011719D01*
Y0008661D02*
Y0008361D01*
X0013719Y0008961D02*
Y0008361D01*
Y0008961D02*
X0011719D01*
Y0008661D01*
X0014219D02*
X0013719D01*
X0011719D02*
X0011219D01*
X0022673Y0009126D02*
Y0009485D01*
X0022681Y0009493D01*
X0023022Y0009720D01*
X0023423Y0009800D01*
X0023824Y0009720D01*
X0024165Y0009493D01*
X0024392Y0009152D01*
X0024472Y0008751D01*
X0024392Y0008350D01*
X0024165Y0008009D01*
X0023824Y0007782D01*
X0023423Y0007702D01*
X0023022Y0007782D01*
X0022681Y0008009D01*
X0022673Y0008001D02*
Y0008376D01*
G01X0118878Y0002998D02*
G03X0119478Y0003598I0000000J0000600D01*
G01X0118278D02*
G03X0118878Y0002998I0000600J0000000D01*
Y0004198D02*
G03X0118278Y0003598I0000000J0000600D01*
G01X0119478D02*
G03X0118878Y0004198I0000600J0000000D01*
G01X0081398Y0002998D02*
G03X0081998Y0003598I0000000J0000600D01*
G01X0080798D02*
G03X0081398Y0002998I0000600J0000000D01*
Y0004198D02*
G03X0080798Y0003598I0000000J0000600D01*
G01X0081998D02*
G03X0081398Y0004198I0000600J0000000D01*
G01X0061716Y0007807D02*
G03X0062716Y0008807I0000000J0001000D01*
G01X0060716D02*
G03X0061716Y0007807I0001000J0000000D01*
Y0009807D02*
G03X0060716Y0008807I0000000J0001000D01*
G01X0062716D02*
G03X0061716Y0009807I0001000J0000000D01*
G01X0033279Y0007807D02*
G03X0034279Y0008807I0000000J0001000D01*
G01X0032279D02*
G03X0033279Y0007807I0001000J0000000D01*
Y0009807D02*
G03X0032279Y0008807I0000000J0001000D01*
G01X0034279D02*
G03X0033279Y0009807I0001000J0000000D01*
G01X0071559Y0002998D02*
G03X0072159Y0003598I0000000J0000600D01*
G01X0070959D02*
G03X0071559Y0002998I0000600J0000000D01*
Y0004198D02*
G03X0070959Y0003598I0000000J0000600D01*
G01X0072159D02*
G03X0071559Y0004198I0000600J0000000D01*
G01X0028358Y0002998D02*
G03X0028958Y0003598I0000000J0000600D01*
G01X0027758D02*
G03X0028358Y0002998I0000600J0000000D01*
Y0004198D02*
G03X0027758Y0003598I0000000J0000600D01*
G01X0028958D02*
G03X0028358Y0004198I0000600J0000000D01*
G01X0071559Y0008207D02*
G03X0072159Y0008807I0000000J0000600D01*
G01X0070959D02*
G03X0071559Y0008207I0000600J0000000D01*
Y0009407D02*
G03X0070959Y0008807I0000000J0000600D01*
G01X0072159D02*
G03X0071559Y0009407I0000600J0000000D01*
G01X0108858Y0002598D02*
G03X0109858Y0003598I0000000J0001000D01*
G01X0107858D02*
G03X0108858Y0002598I0001000J0000000D01*
Y0004598D02*
G03X0107858Y0003598I0000000J0001000D01*
G01X0109858D02*
G03X0108858Y0004598I0001000J0000000D01*
G01X0008889Y0002468D02*
G03X0009889Y0003468I0000000J0001000D01*
G01X0007889D02*
G03X0008889Y0002468I0001000J0000000D01*
Y0004468D02*
G03X0007889Y0003468I0000000J0001000D01*
G01X0009889D02*
G03X0008889Y0004468I0001000J0000000D01*
G01X0118878Y0008207D02*
G03X0119478Y0008807I0000000J0000600D01*
G01X0118278D02*
G03X0118878Y0008207I0000600J0000000D01*
Y0009407D02*
G03X0118278Y0008807I0000000J0000600D01*
G01X0119478D02*
G03X0118878Y0009407I0000600J0000000D01*
G01X0033279Y0002598D02*
G03X0034279Y0003598I0000000J0001000D01*
G01X0032279D02*
G03X0033279Y0002598I0001000J0000000D01*
Y0004598D02*
G03X0032279Y0003598I0000000J0001000D01*
G01X0034279D02*
G03X0033279Y0004598I0001000J0000000D01*
G01X0103949Y0002998D02*
G03X0104549Y0003598I0000000J0000600D01*
G01X0103349D02*
G03X0103949Y0002998I0000600J0000000D01*
Y0004198D02*
G03X0103349Y0003598I0000000J0000600D01*
G01X0104549D02*
G03X0103949Y0004198I0000600J0000000D01*
G01X0061716Y0002598D02*
G03X0062716Y0003598I0000000J0001000D01*
G01X0060716D02*
G03X0061716Y0002598I0001000J0000000D01*
Y0004598D02*
G03X0060716Y0003598I0000000J0001000D01*
G01X0062716D02*
G03X0061716Y0004598I0001000J0000000D01*
G01X0056524Y0008199D02*
G03X0057124Y0008799I0000000J0000600D01*
G01X0055924D02*
G03X0056524Y0008199I0000600J0000000D01*
Y0009399D02*
G03X0055924Y0008799I0000000J0000600D01*
G01X0057124D02*
G03X0056524Y0009399I0000600J0000000D01*
Y0002998D02*
G03X0057124Y0003598I0000000J0000600D01*
G01X0055924D02*
G03X0056524Y0002998I0000600J0000000D01*
Y0004198D02*
G03X0055924Y0003598I0000000J0000600D01*
G01X0057124D02*
G03X0056524Y0004198I0000600J0000000D01*
G01X0081398Y0008207D02*
G03X0081998Y0008807I0000000J0000600D01*
G01X0080798D02*
G03X0081398Y0008207I0000600J0000000D01*
Y0009407D02*
G03X0080798Y0008807I0000000J0000600D01*
G01X0081998D02*
G03X0081398Y0009407I0000600J0000000D01*
G01X0028335Y0008207D02*
G03X0028935Y0008807I0000000J0000600D01*
G01X0027735D02*
G03X0028335Y0008207I0000600J0000000D01*
Y0009407D02*
G03X0027735Y0008807I0000000J0000600D01*
G01X0028935D02*
G03X0028335Y0009407I0000600J0000000D01*
G54D40*
G01X0119678Y0004060D02*
X0119545Y0004193D01*
X0119678Y0004326D01*
X0119500D02*
Y0004060D01*
X0082198D02*
X0082064Y0004193D01*
X0082198Y0004326D01*
X0082020D02*
Y0004060D01*
X0072359D02*
X0072226Y0004193D01*
X0072359Y0004326D01*
X0072181D02*
Y0004060D01*
X0029158D02*
X0029025Y0004193D01*
X0029158Y0004326D01*
X0028980D02*
Y0004060D01*
X0072359Y0009268D02*
X0072226Y0009402D01*
X0072359Y0009535D01*
X0072181D02*
Y0009268D01*
X0119678D02*
X0119545Y0009402D01*
X0119678Y0009535D01*
X0119500D02*
Y0009268D01*
X0104749Y0004060D02*
X0104615Y0004193D01*
X0104749Y0004326D01*
X0104571D02*
Y0004060D01*
X0057324Y0009260D02*
X0057190Y0009394D01*
X0057324Y0009527D01*
X0057146D02*
Y0009260D01*
X0057324Y0004060D02*
X0057190Y0004193D01*
X0057324Y0004326D01*
X0057146D02*
Y0004060D01*
X0082198Y0009268D02*
X0082064Y0009402D01*
X0082198Y0009535D01*
X0082020D02*
Y0009268D01*
X0029135D02*
X0029001Y0009402D01*
X0029135Y0009535D01*
X0028957D02*
Y0009268D01*
X0097136Y0006124D02*
Y0005957D01*
Y0006041D02*
X0096636D01*
X0096720Y0005957D01*
Y0005632D02*
X0096636Y0005591D01*
Y0005341D01*
X0096720Y0005299D01*
X0096803D01*
X0096886Y0005341D01*
Y0005591D01*
X0096970Y0005632D01*
X0097053D01*
X0097136Y0005591D01*
Y0005341D01*
X0097053Y0005299D01*
X0097136Y0005057D02*
Y0004766D01*
X0096636D01*
X0098382Y0003948D02*
X0098715D01*
X0098549Y0004115D02*
Y0003781D01*
G54D71*
G01X0118287Y0004880D02*
X0118404Y0005113D01*
X0118248D01*
X0118109Y0004880D02*
X0117953D01*
X0118109Y0005035D01*
Y0005074D01*
X0118089Y0005113D01*
X0117973D01*
X0117953Y0005074D01*
X0117678Y0004880D02*
Y0005113D01*
X0117658Y0004880D02*
X0117775D01*
X0117814Y0004958D01*
Y0005035D01*
X0117775Y0005113D01*
X0117658D01*
X0091281Y0003639D02*
Y0003561D01*
Y0003600D02*
X0091047D01*
X0091086Y0003561D01*
X0091281Y0003383D02*
Y0003227D01*
X0091125Y0003383D01*
X0091086D01*
X0091047Y0003363D01*
Y0003246D01*
X0091086Y0003227D01*
X0091281Y0002951D02*
X0091047D01*
X0091281Y0002932D02*
Y0003049D01*
X0091203Y0003088D01*
X0091125D01*
X0091047Y0003049D01*
Y0002932D01*
X0052446Y0004587D02*
X0052407Y0004548D01*
Y0004470D01*
X0052446Y0004431D01*
X0052485D01*
X0052563Y0004509D01*
X0052641Y0004431D01*
Y0004587D01*
X0052407Y0004726D02*
Y0004804D01*
Y0004765D02*
X0052641D01*
X0052602Y0004804D01*
X0052407Y0005119D02*
X0052641D01*
X0052407Y0005138D02*
Y0005021D01*
X0052485Y0004982D01*
X0052563D01*
X0052641Y0005021D01*
Y0005138D01*
X0080983Y0004092D02*
X0080906D01*
X0080944D02*
Y0004326D01*
X0080906Y0004287D01*
X0080591Y0004092D02*
Y0004326D01*
X0080572Y0004092D02*
X0080688D01*
X0080727Y0004170D01*
Y0004248D01*
X0080688Y0004326D01*
X0080572D01*
X0023058Y0004103D02*
X0022942D01*
X0022922Y0004142D01*
Y0004181D01*
X0022942Y0004220D01*
X0023058D01*
X0023078Y0004181D01*
Y0004142D01*
X0023000Y0003986D01*
X0022783D02*
X0022705D01*
X0022744D02*
Y0004220D01*
X0022705Y0004181D01*
X0022390Y0003986D02*
Y0004220D01*
X0022371Y0003986D02*
X0022488D01*
X0022527Y0004064D01*
Y0004142D01*
X0022488Y0004220D01*
X0022371D01*
X0060905Y0011344D02*
X0060750D01*
X0060905Y0011500D01*
Y0011539D01*
X0060886Y0011578D01*
X0060769D01*
X0060750Y0011539D01*
X0060610Y0011578D02*
Y0011383D01*
X0060591Y0011344D01*
X0060532Y0011461D01*
Y0011500D02*
Y0011461D01*
X0060474Y0011344D01*
X0060455Y0011383D01*
Y0011578D01*
X0060315Y0011539D02*
X0060296Y0011578D01*
X0060179D01*
X0060160Y0011539D01*
Y0011500D01*
X0060179Y0011461D01*
X0060296D01*
X0060315Y0011422D01*
Y0011383D01*
X0060296Y0011344D01*
X0060179D01*
X0060160Y0011383D01*
X0023009Y0001428D02*
X0023125Y0001661D01*
X0022970D01*
X0022830Y0001428D02*
X0022752D01*
X0022791D02*
Y0001661D01*
X0022752Y0001622D01*
X0022438Y0001428D02*
Y0001661D01*
X0022419Y0001428D02*
X0022535D01*
X0022574Y0001505D01*
Y0001583D01*
X0022535Y0001661D01*
X0022419D01*
X0032313Y0011383D02*
X0032332Y0011344D01*
X0032449D01*
X0032468Y0011383D01*
Y0011461D01*
X0032429Y0011500D01*
X0032313D01*
Y0011578D01*
X0032468D01*
X0032173D02*
Y0011383D01*
X0032154Y0011344D01*
X0032095Y0011461D01*
Y0011500D02*
Y0011461D01*
X0032037Y0011344D01*
X0032018Y0011383D01*
Y0011578D01*
X0031878Y0011539D02*
X0031859Y0011578D01*
X0031742D01*
X0031723Y0011539D01*
Y0011500D01*
X0031742Y0011461D01*
X0031859D01*
X0031878Y0011422D01*
Y0011383D01*
X0031859Y0011344D01*
X0031742D01*
X0031723Y0011383D01*
X0071164Y0004209D02*
X0071184Y0004248D01*
Y0004287D01*
X0071164Y0004326D01*
X0071047D01*
X0071028Y0004287D01*
Y0004248D01*
X0071047Y0004209D01*
X0071164D01*
X0071184Y0004170D01*
Y0004131D01*
X0071164Y0004092D01*
X0071047D01*
X0071028Y0004131D01*
Y0004170D01*
X0071047Y0004209D01*
X0070752Y0004092D02*
Y0004326D01*
X0070733Y0004092D02*
X0070850D01*
X0070889Y0004170D01*
Y0004248D01*
X0070850Y0004326D01*
X0070733D01*
X0090790Y0005967D02*
Y0006123D01*
X0090946Y0005967D01*
X0090984D01*
X0091023Y0005987D01*
Y0006103D01*
X0090984Y0006123D01*
X0090790Y0006262D02*
Y0006418D01*
X0090946Y0006262D01*
X0090984D01*
X0091023Y0006282D01*
Y0006398D01*
X0090984Y0006418D01*
X0090790Y0006693D02*
X0091023D01*
X0090790Y0006713D02*
Y0006596D01*
X0090868Y0006557D01*
X0090946D01*
X0091023Y0006596D01*
Y0006713D01*
X0027631Y0004328D02*
X0027650Y0004289D01*
X0027767D01*
X0027786Y0004328D01*
Y0004406D01*
X0027747Y0004445D01*
X0027631D01*
Y0004523D01*
X0027786D01*
X0027355Y0004289D02*
Y0004523D01*
X0027336Y0004289D02*
X0027452D01*
X0027491Y0004367D01*
Y0004445D01*
X0027452Y0004523D01*
X0027336D01*
X0025512Y0001605D02*
X0025493Y0001566D01*
Y0001527D01*
X0025512Y0001488D01*
X0025629D01*
X0025648Y0001527D01*
Y0001566D01*
X0025629Y0001605D01*
X0025512D01*
X0025493Y0001644D01*
Y0001683D01*
X0025512Y0001722D01*
X0025629D01*
X0025648Y0001683D01*
Y0001644D01*
X0025629Y0001605D01*
X0025788Y0001722D02*
X0025865D01*
X0025826D02*
Y0001488D01*
X0025865Y0001527D01*
X0026180Y0001722D02*
Y0001488D01*
X0026199Y0001722D02*
X0026083D01*
X0026044Y0001644D01*
Y0001566D01*
X0026083Y0001488D01*
X0026199D01*
X0089825Y0008992D02*
Y0008837D01*
X0089670Y0008914D01*
Y0008953D01*
X0089903D01*
Y0008697D02*
Y0008542D01*
X0089747Y0008697D01*
X0089708D01*
X0089670Y0008678D01*
Y0008561D01*
X0089708Y0008542D01*
X0089903Y0008266D02*
X0089670D01*
X0089903Y0008247D02*
Y0008363D01*
X0089825Y0008402D01*
X0089747D01*
X0089670Y0008363D01*
Y0008247D01*
X0042172Y0004529D02*
X0042211Y0004568D01*
X0042250Y0004587D01*
X0042328D01*
X0042367Y0004568D01*
X0042405Y0004529D01*
Y0004490D01*
X0042367Y0004451D01*
X0042328Y0004431D01*
X0042250D01*
X0042211Y0004451D01*
X0042172Y0004490D01*
Y0004529D01*
Y0004726D02*
Y0004804D01*
Y0004765D02*
X0042405D01*
X0042367Y0004804D01*
X0042172Y0005119D02*
X0042405D01*
X0042172Y0005138D02*
Y0005021D01*
X0042250Y0004982D01*
X0042328D01*
X0042405Y0005021D01*
Y0005138D01*
X0053588Y0004431D02*
Y0004587D01*
X0053744Y0004431D01*
X0053783D01*
X0053822Y0004451D01*
Y0004568D01*
X0053783Y0004587D01*
X0053588Y0004726D02*
Y0004804D01*
Y0004765D02*
X0053822D01*
X0053783Y0004804D01*
X0053588Y0005119D02*
X0053822D01*
X0053588Y0005138D02*
Y0005021D01*
X0053666Y0004982D01*
X0053744D01*
X0053822Y0005021D01*
Y0005138D01*
X0091242Y0008837D02*
X0091281Y0008875D01*
Y0008953D01*
X0091242Y0008992D01*
X0091203D01*
X0091125Y0008914D01*
X0091047Y0008992D01*
Y0008837D01*
X0091281Y0008697D02*
Y0008542D01*
X0091125Y0008697D01*
X0091086D01*
X0091047Y0008678D01*
Y0008561D01*
X0091086Y0008542D01*
X0091281Y0008266D02*
X0091047D01*
X0091281Y0008247D02*
Y0008363D01*
X0091203Y0008402D01*
X0091125D01*
X0091047Y0008363D01*
Y0008247D01*
X0071067Y0009301D02*
X0071184Y0009534D01*
X0071028D01*
X0070752Y0009301D02*
Y0009534D01*
X0070733Y0009301D02*
X0070850D01*
X0070889Y0009379D01*
Y0009457D01*
X0070850Y0009534D01*
X0070733D01*
X0107714Y0005859D02*
X0107831D01*
X0107850Y0005820D01*
Y0005781D01*
X0107831Y0005742D01*
X0107714D01*
X0107695Y0005781D01*
Y0005820D01*
X0107772Y0005975D01*
X0107555D02*
Y0005781D01*
X0107536Y0005742D01*
X0107477Y0005859D01*
Y0005898D02*
Y0005859D01*
X0107419Y0005742D01*
X0107400Y0005781D01*
Y0005975D01*
X0107260Y0005936D02*
X0107241Y0005975D01*
X0107124D01*
X0107105Y0005936D01*
Y0005898D01*
X0107124Y0005859D01*
X0107241D01*
X0107260Y0005820D01*
Y0005781D01*
X0107241Y0005742D01*
X0107124D01*
X0107105Y0005781D01*
X0040991Y0004470D02*
Y0004548D01*
Y0004509D02*
X0041224D01*
X0041186Y0004548D01*
X0040991Y0004726D02*
Y0004804D01*
Y0004765D02*
X0041224D01*
X0041186Y0004804D01*
X0040991Y0005119D02*
X0041224D01*
X0040991Y0005138D02*
Y0005021D01*
X0041069Y0004982D01*
X0041147D01*
X0041224Y0005021D01*
Y0005138D01*
X0011328Y0012370D02*
X0011445D01*
X0011465Y0012331D01*
Y0012292D01*
X0011445Y0012253D01*
X0011328D01*
X0011309Y0012292D01*
Y0012331D01*
X0011387Y0012487D01*
X0011170Y0012253D02*
X0011092D01*
X0011131D02*
Y0012487D01*
X0011092Y0012448D01*
X0010777Y0012253D02*
Y0012487D01*
X0010758Y0012253D02*
X0010875D01*
X0010913Y0012331D01*
Y0012409D01*
X0010875Y0012487D01*
X0010758D01*
X0013977Y0006919D02*
X0013860D01*
X0013840Y0006958D01*
Y0006997D01*
X0013860Y0007036D01*
X0013977D01*
X0013996Y0006997D01*
Y0006958D01*
X0013918Y0006803D01*
X0014135Y0007036D02*
X0014291D01*
X0014135Y0006881D01*
Y0006842D01*
X0014155Y0006803D01*
X0014272D01*
X0014291Y0006842D01*
X0014567Y0007036D02*
Y0006803D01*
X0014586Y0007036D02*
X0014469D01*
X0014430Y0006958D01*
Y0006881D01*
X0014469Y0006803D01*
X0014586D01*
X0008039Y0006005D02*
X0007961D01*
X0008000D02*
Y0006239D01*
X0007961Y0006200D01*
X0007783Y0006239D02*
Y0006044D01*
X0007763Y0006005D01*
X0007705Y0006122D01*
Y0006161D02*
Y0006122D01*
X0007647Y0006005D01*
X0007627Y0006044D01*
Y0006239D01*
X0007488Y0006200D02*
X0007468Y0006239D01*
X0007352D01*
X0007332Y0006200D01*
Y0006161D01*
X0007352Y0006122D01*
X0007468D01*
X0007488Y0006083D01*
Y0006044D01*
X0007468Y0006005D01*
X0007352D01*
X0007332Y0006044D01*
X0025598Y0004280D02*
X0025637Y0004242D01*
X0025657Y0004203D01*
Y0004125D01*
X0025637Y0004086D01*
X0025598Y0004047D01*
X0025559D01*
X0025521Y0004086D01*
X0025501Y0004125D01*
Y0004203D01*
X0025521Y0004242D01*
X0025559Y0004280D01*
X0025598D01*
X0025796D02*
X0025952D01*
X0025796Y0004125D01*
Y0004086D01*
X0025816Y0004047D01*
X0025932D01*
X0025952Y0004086D01*
X0026227Y0004280D02*
Y0004047D01*
X0026247Y0004280D02*
X0026130D01*
X0026091Y0004203D01*
Y0004125D01*
X0026130Y0004047D01*
X0026247D01*
X0118759Y0009379D02*
X0118603D01*
X0118681Y0009534D01*
X0118720D01*
Y0009301D01*
X0118464D02*
X0118386D01*
X0118425D02*
Y0009534D01*
X0118386Y0009496D01*
X0118071Y0009301D02*
Y0009534D01*
X0118052Y0009301D02*
X0118169D01*
X0118208Y0009379D01*
Y0009457D01*
X0118169Y0009534D01*
X0118052D01*
X0032468Y0006213D02*
X0032313D01*
X0032390Y0006369D01*
X0032429D01*
Y0006136D01*
X0032173Y0006369D02*
Y0006175D01*
X0032154Y0006136D01*
X0032095Y0006252D01*
Y0006291D02*
Y0006252D01*
X0032037Y0006136D01*
X0032018Y0006175D01*
Y0006369D01*
X0031878Y0006330D02*
X0031859Y0006369D01*
X0031742D01*
X0031723Y0006330D01*
Y0006291D01*
X0031742Y0006252D01*
X0031859D01*
X0031878Y0006213D01*
Y0006175D01*
X0031859Y0006136D01*
X0031742D01*
X0031723Y0006175D01*
X0103554Y0004209D02*
X0103437D01*
X0103418Y0004248D01*
Y0004287D01*
X0103437Y0004326D01*
X0103554D01*
X0103573Y0004287D01*
Y0004248D01*
X0103496Y0004092D01*
X0103142D02*
Y0004326D01*
X0103123Y0004092D02*
X0103240D01*
X0103278Y0004170D01*
Y0004248D01*
X0103240Y0004326D01*
X0103123D01*
X0060750Y0006175D02*
X0060789Y0006136D01*
X0060866D01*
X0060905Y0006175D01*
Y0006213D01*
X0060827Y0006291D01*
X0060905Y0006369D01*
X0060750D01*
X0060610D02*
Y0006175D01*
X0060591Y0006136D01*
X0060532Y0006252D01*
Y0006291D02*
Y0006252D01*
X0060474Y0006136D01*
X0060455Y0006175D01*
Y0006369D01*
X0060315Y0006330D02*
X0060296Y0006369D01*
X0060179D01*
X0060160Y0006330D01*
Y0006291D01*
X0060179Y0006252D01*
X0060296D01*
X0060315Y0006213D01*
Y0006175D01*
X0060296Y0006136D01*
X0060179D01*
X0060160Y0006175D01*
X0014082Y0010147D02*
X0014063Y0010185D01*
X0013946D01*
X0013927Y0010147D01*
Y0010069D01*
X0013966Y0010030D01*
X0014082D01*
Y0009952D01*
X0013927D01*
X0014222Y0010185D02*
X0014300D01*
X0014261D02*
Y0009952D01*
X0014300Y0009991D01*
X0014614Y0010185D02*
Y0009952D01*
X0014634Y0010185D02*
X0014517D01*
X0014478Y0010108D01*
Y0010030D01*
X0014517Y0009952D01*
X0014634D01*
X0055796Y0009529D02*
X0055835Y0009490D01*
X0055913D01*
X0055951Y0009529D01*
Y0009568D01*
X0055874Y0009646D01*
X0055951Y0009723D01*
X0055796D01*
X0055520Y0009490D02*
Y0009723D01*
X0055501Y0009490D02*
X0055618D01*
X0055656Y0009568D01*
Y0009646D01*
X0055618Y0009723D01*
X0055501D01*
X0055951Y0004367D02*
X0055796D01*
X0055874Y0004523D01*
X0055913D01*
Y0004289D01*
X0055520D02*
Y0004523D01*
X0055501Y0004289D02*
X0055618D01*
X0055656Y0004367D01*
Y0004445D01*
X0055618Y0004523D01*
X0055501D01*
X0081022Y0009301D02*
X0080867D01*
X0081022Y0009457D01*
Y0009496D01*
X0081003Y0009534D01*
X0080886D01*
X0080867Y0009496D01*
X0080591Y0009301D02*
Y0009534D01*
X0080572Y0009301D02*
X0080688D01*
X0080727Y0009379D01*
Y0009457D01*
X0080688Y0009534D01*
X0080572D01*
X0011395Y0009143D02*
X0011415Y0009104D01*
X0011531D01*
X0011551Y0009143D01*
Y0009221D01*
X0011512Y0009260D01*
X0011395D01*
Y0009337D01*
X0011551D01*
X0011256Y0009104D02*
X0011100D01*
X0011256Y0009260D01*
Y0009299D01*
X0011236Y0009337D01*
X0011120D01*
X0011100Y0009299D01*
X0010825Y0009104D02*
Y0009337D01*
X0010805Y0009104D02*
X0010922D01*
X0010961Y0009182D01*
Y0009260D01*
X0010922Y0009337D01*
X0010805D01*
X0027626Y0009615D02*
X0027743D01*
X0027762Y0009576D01*
Y0009537D01*
X0027743Y0009498D01*
X0027626D01*
X0027607Y0009537D01*
Y0009576D01*
X0027685Y0009731D01*
X0027331Y0009498D02*
Y0009731D01*
X0027312Y0009498D02*
X0027429D01*
X0027467Y0009576D01*
Y0009654D01*
X0027429Y0009731D01*
X0027312D01*
M02*
