M71
M48
T1F00S00C0.039
T2F00S00C0.126
%
T01
X03466Y-00113
X03721
Y00229
X03466
X04119
X04375
Y-00113
X04119
X04773
Y00229
X03068
X02813
Y-00113
X03068
X02415
X02158
Y00229
X02415
X01761
X01506
Y-00113
X01761
X01108
X00851
Y00229
X01108
X00454
Y-00113
X00199
Y00229
X-00199
Y-00113
T02
X04836Y00452
X-004
Y02393
X04836Y04212
M30
