*%FSLAX23Y23*%
*%MOIN*%
G01*
D15*
X4429Y6725D02*
Y6769D01*
X4373Y6853D02*
Y6856D01*
Y6886D02*
Y6892D01*
Y6856D02*
Y5497D01*
X4414Y6892D02*
Y6906D01*
X4373Y6886D02*
Y6856D01*
X4451Y6791D02*
X4429Y6769D01*
Y6725D02*
X4451Y6704D01*
X4666Y6725D02*
Y6769D01*
X4579Y6739D02*
Y6736D01*
Y6739D02*
Y6769D01*
X4516D02*
Y6725D01*
X4492Y6013D02*
Y5921D01*
X4584D02*
Y6013D01*
X4592Y5990D02*
Y5944D01*
X4584Y6044D02*
Y6090D01*
X4492D02*
Y6044D01*
X4592Y6344D02*
Y6390D01*
X4584D02*
Y6344D01*
X4492D02*
Y6390D01*
X4584Y6290D02*
Y6244D01*
X4492D02*
Y6290D01*
X4592D02*
Y6244D01*
Y6190D02*
Y6144D01*
X4584D02*
Y6190D01*
X4492D02*
Y6144D01*
X4592Y6090D02*
Y6044D01*
X4586Y5804D02*
Y5760D01*
X4499D02*
Y5804D01*
X4586Y5604D02*
Y5563D01*
X4499Y5560D02*
Y5604D01*
X4575Y5674D02*
Y5701D01*
X4521D02*
Y5674D01*
X4631Y6429D02*
Y6456D01*
X4570Y6479D02*
Y6506D01*
X4516D02*
Y6479D01*
X4590Y6699D02*
Y6715D01*
X4536Y6726D02*
Y6699D01*
X4677Y5671D02*
Y5668D01*
Y5708D02*
Y5937D01*
Y5997D02*
Y6037D01*
Y6097D02*
Y6100D01*
Y6114D01*
Y6123D01*
Y5671D02*
Y5654D01*
Y5671D02*
Y5708D01*
X4644Y6704D02*
X4666Y6725D01*
X4601Y6791D02*
X4579Y6769D01*
X4516Y6725D02*
X4494Y6704D01*
X4677Y5937D02*
X4661Y5921D01*
X4592Y5990D02*
X4615Y6013D01*
X4584Y6044D02*
X4561Y6021D01*
X4492Y6090D02*
X4515Y6113D01*
X4661Y6321D02*
X4684Y6344D01*
X4615Y6413D02*
X4592Y6390D01*
X4584Y6344D02*
X4561Y6321D01*
X4492Y6390D02*
X4515Y6413D01*
X4584Y6244D02*
X4561Y6221D01*
X4492Y6290D02*
X4515Y6313D01*
X4661Y6221D02*
X4684Y6244D01*
X4615Y6313D02*
X4592Y6290D01*
X4663Y6123D02*
X4661Y6121D01*
X4663Y6123D02*
X4677Y6137D01*
X4684Y6144D01*
X4615Y6213D02*
X4592Y6190D01*
X4584Y6144D02*
X4561Y6121D01*
X4492Y6190D02*
X4515Y6213D01*
X4677Y6037D02*
X4661Y6021D01*
X4592Y6090D02*
X4615Y6113D01*
X4586Y5760D02*
X4564Y5739D01*
X4499Y5804D02*
X4521Y5826D01*
Y5626D02*
X4499Y5604D01*
X4561Y5660D02*
X4575Y5674D01*
X4534Y5714D02*
X4521Y5701D01*
X4671Y6415D02*
X4685Y6429D01*
X4644Y6469D02*
X4631Y6456D01*
X4570Y6479D02*
X4556Y6465D01*
X4516Y6506D02*
X4529Y6519D01*
X4576Y6685D02*
X4590Y6699D01*
X4549Y6739D02*
X4536Y6726D01*
X4676Y6113D02*
X4670Y6107D01*
X4676Y6113D02*
X4677Y6114D01*
X4684Y6121D01*
X4521Y5498D02*
X4520Y5497D01*
X4521Y5498D02*
X4561Y5539D01*
X4575Y5552D01*
X4586Y5563D01*
X4648Y5626D01*
X4654Y5631D01*
X4677Y5654D01*
X4666Y6769D02*
X4644Y6791D01*
X4590Y6715D02*
X4601Y6704D01*
X4516Y6769D02*
X4494Y6791D01*
X4661Y6013D02*
X4677Y5997D01*
X4615Y5921D02*
X4592Y5944D01*
X4584Y6090D02*
X4561Y6113D01*
X4492Y6044D02*
X4515Y6021D01*
X4684Y6390D02*
X4661Y6413D01*
X4592Y6344D02*
X4615Y6321D01*
X4584Y6390D02*
X4561Y6413D01*
X4492Y6344D02*
X4515Y6321D01*
X4561Y6313D02*
X4584Y6290D01*
X4515Y6221D02*
X4492Y6244D01*
X4661Y6313D02*
X4684Y6290D01*
X4615Y6221D02*
X4592Y6244D01*
X4661Y6213D02*
X4684Y6190D01*
X4615Y6121D02*
X4592Y6144D01*
X4584Y6190D02*
X4561Y6213D01*
X4492Y6144D02*
X4515Y6121D01*
X4661Y6113D02*
X4677Y6097D01*
X4615Y6021D02*
X4592Y6044D01*
X4564Y5826D02*
X4586Y5804D01*
X4521Y5739D02*
X4499Y5760D01*
X4564Y5626D02*
X4586Y5604D01*
X4521Y5539D02*
X4499Y5560D01*
X4575Y5701D02*
X4561Y5714D01*
X4521Y5674D02*
X4534Y5660D01*
X4685Y6456D02*
X4671Y6469D01*
X4631Y6429D02*
X4644Y6415D01*
X4570Y6506D02*
X4556Y6519D01*
X4516Y6479D02*
X4529Y6465D01*
X4579Y6736D02*
X4576Y6739D01*
X4536Y6699D02*
X4549Y6685D01*
X4670Y6107D02*
X4677Y6100D01*
X4684Y6344D02*
Y6390D01*
Y6290D02*
Y6244D01*
Y6190D02*
Y6144D01*
X4826Y6809D02*
Y6836D01*
X4870Y6271D02*
Y6258D01*
X4816Y6253D02*
Y6271D01*
X4685Y6429D02*
Y6456D01*
X4837Y6623D02*
Y6626D01*
Y6635D01*
Y6649D01*
Y6706D01*
Y6703D01*
Y6738D02*
Y6795D01*
Y6798D01*
X4871Y5990D02*
Y5984D01*
Y6025D02*
Y6030D01*
Y6034D01*
Y6040D01*
Y6075D02*
Y6080D01*
Y6084D01*
Y6090D01*
Y6125D02*
Y6134D01*
Y6258D01*
X4837Y6706D02*
Y6738D01*
X4826Y6836D02*
X4839Y6849D01*
X4829Y6284D02*
X4816Y6271D01*
X4875Y6094D02*
X4871Y6090D01*
X4875Y6044D02*
X4871Y6040D01*
X4875Y5994D02*
X4871Y5990D01*
X4830Y6642D02*
X4837Y6649D01*
X4684Y6121D02*
X4684Y6121D01*
X4684Y6121D02*
X4686Y6123D01*
X4692Y6129D01*
X4697Y6134D01*
X4709Y6146D01*
X4776Y6213D01*
X4784Y6221D01*
X4793Y6230D01*
X4816Y6253D01*
X4876Y6840D02*
X4869Y6847D01*
X4866Y6849D01*
X4856Y6284D02*
X4870Y6271D01*
X4871Y6125D02*
X4875Y6121D01*
X4871Y6075D02*
X4875Y6071D01*
X4871Y6025D02*
X4875Y6021D01*
X4959Y6513D02*
X4869Y6603D01*
X4854Y6618D01*
X4846Y6626D01*
X4837Y6635D01*
X4830Y6642D01*
X4930Y6809D02*
Y6836D01*
X4965Y6416D02*
Y6389D01*
X4911D02*
Y6416D01*
X4875Y6121D02*
Y6094D01*
Y6071D02*
Y6044D01*
Y6021D02*
Y5994D01*
X4895Y5971D02*
Y5944D01*
Y5921D02*
Y5910D01*
X4982Y5979D02*
Y6490D01*
X4925Y6804D02*
X4930Y6809D01*
X4880Y6840D02*
X4878Y6838D01*
X4880Y6840D02*
X4889Y6849D01*
X4965Y6389D02*
X4951Y6375D01*
X4911Y6416D02*
X4924Y6429D01*
X4884Y5933D02*
X4883Y5932D01*
X4884Y5933D02*
X4885Y5934D01*
X4892Y5941D01*
X4895Y5944D01*
X5056Y6788D02*
X5063Y6795D01*
X4930Y6836D02*
X4919Y6847D01*
X4916Y6849D01*
X4951Y6429D02*
X4965Y6416D01*
X4924Y6375D02*
X4911Y6389D01*
X4878Y6838D02*
X4876Y6840D01*
X4884Y5982D02*
X4895Y5971D01*
X4884Y5982D02*
X4881Y5984D01*
X4885Y5930D02*
X4895Y5921D01*
X4885Y5930D02*
X4884Y5932D01*
X4883Y5932D01*
X4982Y6490D02*
X4959Y6513D01*
X5079Y6779D02*
X5069Y6788D01*
X5063Y6795D01*
X4931Y6799D02*
X4930Y6800D01*
X4925Y6804D01*
X4926Y5923D02*
X4913Y5910D01*
X4926Y5923D02*
X4933Y5930D01*
X4937Y5934D01*
X4944Y5941D01*
X4959Y5956D01*
X4976Y5973D01*
X4982Y5979D01*
X5079Y6779D02*
Y6788D01*
X5147Y6068D02*
Y6059D01*
X5167Y6068D02*
Y6071D01*
X5139Y6583D02*
Y6586D01*
Y6643D02*
Y6705D01*
Y6719D01*
Y6728D01*
Y6301D02*
Y6298D01*
Y6301D02*
Y6310D01*
Y6324D02*
Y6586D01*
X5099Y6270D02*
Y6053D01*
X5139Y6586D02*
Y6643D01*
X5147Y6059D02*
X5141Y6053D01*
X5147Y6059D02*
X5156Y6068D01*
X5163Y6075D01*
X5099Y6270D02*
X5107Y6278D01*
X5121Y6293D01*
X5123Y6294D01*
X5129Y6301D01*
X5139Y6310D01*
X5145Y6317D01*
X5139Y6705D02*
X5145Y6712D01*
X5167Y6071D02*
X5169Y6068D01*
X5167Y6071D02*
X5163Y6075D01*
X5145Y6317D02*
X5139Y6324D01*
X5145Y6712D02*
X5139Y6719D01*
X5129Y6728D01*
X5123Y6735D01*
X5107Y6751D01*
X5101Y6756D01*
X5082Y6775D01*
X5079Y6779D01*
X5456Y6769D02*
Y6725D01*
X5369D02*
Y6769D01*
X5373Y6037D02*
Y6036D01*
Y6037D02*
Y6064D01*
X5370Y6011D02*
Y5993D01*
X5340Y6849D02*
Y6876D01*
X5286D02*
Y6849D01*
X5439Y5816D02*
Y5813D01*
Y5893D02*
Y5910D01*
Y5924D01*
Y5933D01*
Y5816D02*
Y5722D01*
Y5816D02*
Y5893D01*
X5434Y6704D02*
X5456Y6725D01*
X5391Y6791D02*
X5369Y6769D01*
X5360Y6024D02*
X5359Y6023D01*
X5360Y6024D02*
X5364Y6028D01*
X5372Y6036D01*
X5373Y6037D01*
X5332Y6077D02*
X5323Y6068D01*
X5326Y6835D02*
X5340Y6849D01*
X5299Y6889D02*
X5286Y6876D01*
X5445Y5917D02*
X5439Y5910D01*
X5456Y6769D02*
X5434Y6791D01*
X5369Y6725D02*
X5391Y6704D01*
X5368Y6068D02*
X5373Y6064D01*
X5368Y6068D02*
X5364Y6073D01*
X5359Y6077D01*
X5356Y6024D02*
X5370Y6011D01*
X5340Y6876D02*
X5326Y6889D01*
X5286Y6849D02*
X5299Y6835D01*
X5439Y5924D02*
X5445Y5917D01*
X5439Y5924D02*
X5429Y5933D01*
X5422Y5941D01*
X5407Y5956D01*
X5392Y5970D01*
X5370Y5993D01*
X4525Y5502D02*
X4373D01*
Y5507D02*
X4530D01*
X4535Y5512D02*
X4373D01*
Y5517D02*
X4540D01*
X4545Y5522D02*
X4373D01*
Y5527D02*
X4550D01*
X4555Y5532D02*
X4373D01*
Y5537D02*
X4560D01*
X4517Y5542D02*
X4373D01*
Y5547D02*
X4512D01*
X4499Y5552D02*
X4373D01*
X4499D02*
X4507D01*
X4499Y5557D02*
X4373D01*
Y5562D02*
X4499D01*
Y5567D02*
X4373D01*
Y5572D02*
X4499D01*
X4586D02*
X4595D01*
X4499Y5577D02*
X4373D01*
X4586D02*
X4600D01*
X4499Y5582D02*
X4373D01*
X4586D02*
X4605D01*
X4561Y5539D02*
X4521D01*
X4520Y5497D02*
X4373D01*
X5606Y6725D02*
Y6769D01*
X5519D02*
Y6725D01*
X5641Y6619D02*
Y6575D01*
X5554D02*
Y6619D01*
X5540Y5791D02*
Y5764D01*
X5486D02*
Y5791D01*
X5615Y5979D02*
Y6006D01*
X5561D02*
Y5979D01*
X5628Y6892D02*
Y6906D01*
X5606Y6725D02*
X5584Y6704D01*
X5519Y6769D02*
X5541Y6791D01*
X5641Y6575D02*
X5619Y6554D01*
X5554Y6619D02*
X5576Y6641D01*
X5540Y5764D02*
X5526Y5750D01*
X5486Y5791D02*
X5499Y5804D01*
X5601Y5965D02*
X5615Y5979D01*
X5574Y6019D02*
X5561Y6006D01*
X5606Y6769D02*
X5584Y6791D01*
X5519Y6725D02*
X5541Y6704D01*
X5619Y6641D02*
X5641Y6619D01*
X5576Y6554D02*
X5554Y6575D01*
X5526Y5804D02*
X5540Y5791D01*
X5499Y5750D02*
X5486Y5764D01*
X5615Y6006D02*
X5601Y6019D01*
X5561Y5979D02*
X5574Y5965D01*
X4499Y5587D02*
X4373D01*
X4586D02*
X4610D01*
X4499Y5592D02*
X4373D01*
X4586D02*
X4615D01*
X4499Y5597D02*
X4373D01*
X4586D02*
X4620D01*
X4499Y5602D02*
X4373D01*
X4586D02*
X4625D01*
X4499Y5607D02*
X4373D01*
X4586D02*
X4630D01*
X4499Y5612D02*
X4373D01*
X4499D02*
X4507D01*
X4578D02*
X4586D01*
X4635D01*
X4512Y5617D02*
X4373D01*
X4573D02*
X4640D01*
X4517Y5622D02*
X4373D01*
X4568D02*
X4645D01*
X4650Y5627D02*
X4373D01*
Y5632D02*
X4655D01*
X4660Y5637D02*
X4373D01*
Y5642D02*
X4665D01*
X4670Y5647D02*
X4373D01*
Y5652D02*
X4675D01*
X4677Y5657D02*
X4373D01*
Y5662D02*
X4532D01*
X4563D02*
X4677D01*
X4521Y5667D02*
X4373D01*
X4521D02*
X4527D01*
X4568D02*
X4575D01*
X4677D01*
X4521Y5672D02*
X4373D01*
X4575D02*
X4677D01*
X4521Y5677D02*
X4373D01*
X4575D02*
X4677D01*
X4521Y5682D02*
X4373D01*
X4575D02*
X4677D01*
X4521Y5687D02*
X4373D01*
X4575D02*
X4677D01*
X4521Y5692D02*
X4373D01*
X4575D02*
X4677D01*
X4521Y5697D02*
X4373D01*
X4575D02*
X4677D01*
X4521Y5702D02*
X4373D01*
X4575D02*
X4677D01*
X4521Y5707D02*
X4373D01*
X4521D02*
X4527D01*
X4568D02*
X4575D01*
X4677D01*
X4532Y5712D02*
X4373D01*
X4563D02*
X4677D01*
Y5717D02*
X4373D01*
Y5722D02*
X4677D01*
X5439Y5727D02*
X5669D01*
X4677D02*
X4373D01*
X5439Y5732D02*
X5669D01*
X4677D02*
X4373D01*
X5439Y5737D02*
X5669D01*
X4677D02*
X4373D01*
X5439Y5742D02*
X5669D01*
X4517D02*
X4373D01*
X4568D02*
X4677D01*
X5439Y5747D02*
X5669D01*
X4512D02*
X4373D01*
X4573D02*
X4677D01*
X5439Y5752D02*
X5497D01*
X5528D02*
X5669D01*
X4499D02*
X4373D01*
X4499D02*
X4507D01*
X4578D02*
X4586D01*
X4677D01*
X5439Y5757D02*
X5486D01*
X5492D01*
X5533D02*
X5540D01*
X5669D01*
X4499D02*
X4373D01*
X4586D02*
X4677D01*
X5439Y5762D02*
X5486D01*
X5540D02*
X5669D01*
X4499D02*
X4373D01*
X4586D02*
X4677D01*
X5439Y5767D02*
X5486D01*
X5540D02*
X5669D01*
X4499D02*
X4373D01*
X4586D02*
X4677D01*
X5439Y5772D02*
X5486D01*
X5540D02*
X5669D01*
X4499D02*
X4373D01*
X4586D02*
X4677D01*
X5439Y5777D02*
X5486D01*
X5540D02*
X5669D01*
X4499D02*
X4373D01*
X4586D02*
X4677D01*
X4564Y5739D02*
X4521D01*
Y5626D02*
X4564D01*
X5499Y5750D02*
X5526D01*
X4561Y5660D02*
X4534D01*
Y5714D02*
X4561D01*
X5439Y5722D02*
X5669D01*
Y6806D02*
Y6809D01*
Y6847D02*
Y6892D01*
Y6809D02*
Y5722D01*
Y6809D02*
Y6847D01*
X5486Y5782D02*
X5439D01*
X5540D02*
X5669D01*
X4499D02*
X4373D01*
X4586D02*
X4677D01*
X5439Y5787D02*
X5486D01*
X5540D02*
X5669D01*
X4499D02*
X4373D01*
X4586D02*
X4677D01*
X5439Y5792D02*
X5486D01*
X5540D02*
X5669D01*
X4499D02*
X4373D01*
X4586D02*
X4677D01*
X5439Y5797D02*
X5486D01*
X5492D01*
X5533D02*
X5540D01*
X5669D01*
X4499D02*
X4373D01*
X4586D02*
X4677D01*
X5439Y5802D02*
X5497D01*
X5528D02*
X5669D01*
X4499D02*
X4373D01*
X4586D02*
X4677D01*
X5439Y5807D02*
X5669D01*
X4499D02*
X4373D01*
X4586D02*
X4677D01*
X5439Y5812D02*
X5669D01*
X4499D02*
X4373D01*
X4499D02*
X4507D01*
X4578D02*
X4586D01*
X4677D01*
X5439Y5817D02*
X5669D01*
X4512D02*
X4373D01*
X4573D02*
X4677D01*
X5439Y5822D02*
X5669D01*
X4517D02*
X4373D01*
X4568D02*
X4677D01*
X5439Y5827D02*
X5669D01*
X4677D02*
X4373D01*
X5439Y5832D02*
X5669D01*
X4677D02*
X4373D01*
X5439Y5837D02*
X5669D01*
X4677D02*
X4373D01*
X5439Y5842D02*
X5669D01*
X4677D02*
X4373D01*
X5439Y5847D02*
X5669D01*
X4677D02*
X4373D01*
X5439Y5852D02*
X5669D01*
X4677D02*
X4373D01*
X5439Y5857D02*
X5669D01*
X4677D02*
X4373D01*
X5439Y5862D02*
X5669D01*
X4677D02*
X4373D01*
X5439Y5867D02*
X5669D01*
X4677D02*
X4373D01*
X5439Y5872D02*
X5669D01*
X4677D02*
X4373D01*
X5439Y5877D02*
X5669D01*
X4677D02*
X4373D01*
X5439Y5882D02*
X5669D01*
X4677D02*
X4373D01*
X5439Y5887D02*
X5669D01*
X4677D02*
X4373D01*
X5439Y5892D02*
X5669D01*
X4677D02*
X4373D01*
X5439Y5897D02*
X5669D01*
X4677D02*
X4373D01*
X5439Y5902D02*
X5669D01*
X4677D02*
X4373D01*
X5439Y5907D02*
X5669D01*
X4677D02*
X4373D01*
X5440Y5912D02*
X5669D01*
X4915D02*
X4895D01*
X4492D02*
X4373D01*
X4492D02*
X4584D01*
X4677D01*
X5439Y5917D02*
X5445D01*
X5669D01*
X4920D02*
X4895D01*
X4492D02*
X4373D01*
X4492D02*
X4584D01*
X4677D01*
X5440Y5922D02*
X5669D01*
X4925D02*
X4895D01*
X4492D02*
X4373D01*
X4584D02*
X4614D01*
X4662D02*
X4677D01*
X5439Y5927D02*
X5669D01*
X4895D02*
X4888D01*
X4895D02*
X4930D01*
X4492D02*
X4373D01*
X4584D02*
X4609D01*
X4667D02*
X4677D01*
X5430Y5932D02*
X5439D01*
X5669D01*
X4935D02*
X4884D01*
X4492D02*
X4373D01*
X4584D02*
X4604D01*
X5425Y5937D02*
X5439D01*
X5669D01*
X4895D02*
X4888D01*
X4895D02*
X4940D01*
X4492D02*
X4373D01*
X4584D02*
X4592D01*
X4599D01*
X5420Y5942D02*
X5439D01*
X5669D01*
X4945D02*
X4895D01*
X4492D02*
X4373D01*
X4584D02*
X4592D01*
X5415Y5947D02*
X5669D01*
X4950D02*
X4895D01*
X4492D02*
X4373D01*
X4584D02*
X4592D01*
X5410Y5952D02*
X5669D01*
X4955D02*
X4895D01*
X4492D02*
X4373D01*
X4584D02*
X4592D01*
X5405Y5957D02*
X5669D01*
X4960D02*
X4895D01*
X4492D02*
X4373D01*
X4584D02*
X4592D01*
X5400Y5962D02*
X5669D01*
X4965D02*
X4895D01*
X4492D02*
X4373D01*
X4584D02*
X4592D01*
X5395Y5967D02*
X5572D01*
X5603D02*
X5669D01*
X4970D02*
X4895D01*
X4492D02*
X4373D01*
X4584D02*
X4592D01*
X5390Y5972D02*
X5561D01*
X5567D01*
X5608D02*
X5615D01*
X5669D01*
X4975D02*
X4895D01*
X4492D02*
X4373D01*
X4584D02*
X4592D01*
X4584Y5921D02*
X4492D01*
X4615D02*
X4661D01*
X4564Y5826D02*
X4521D01*
X5499Y5804D02*
X5526D01*
X5574Y5965D02*
X5601D01*
X5439Y5933D02*
X5429D01*
X4913Y5910D02*
X4895D01*
X5385Y5977D02*
X5561D01*
X5615D02*
X5669D01*
X4895D02*
X4888D01*
X4895D02*
X4980D01*
X4492D02*
X4373D01*
X4584D02*
X4592D01*
X5380Y5982D02*
X5561D01*
X5615D02*
X5669D01*
X4982D02*
X4884D01*
X4492D02*
X4373D01*
X4584D02*
X4592D01*
X5375Y5987D02*
X5561D01*
X5615D02*
X5669D01*
X4982D02*
X4875D01*
X4492D02*
X4373D01*
X4584D02*
X4592D01*
X5370Y5992D02*
X5561D01*
X5615D02*
X5669D01*
X4982D02*
X4875D01*
X4492D02*
X4373D01*
X4584D02*
X4592D01*
X5370Y5997D02*
X5561D01*
X5615D02*
X5669D01*
X4982D02*
X4875D01*
X4492D02*
X4373D01*
X4584D02*
X4592D01*
X4599D01*
X5370Y6002D02*
X5561D01*
X5615D02*
X5669D01*
X4982D02*
X4875D01*
X4492D02*
X4373D01*
X4584D02*
X4604D01*
X5370Y6007D02*
X5561D01*
X5615D02*
X5669D01*
X4982D02*
X4875D01*
X4492D02*
X4373D01*
X4584D02*
X4609D01*
X4667D02*
X4677D01*
X5370Y6012D02*
X5561D01*
X5567D01*
X5608D02*
X5615D01*
X5669D01*
X4982D02*
X4875D01*
X4492D02*
X4373D01*
X4584D02*
X4614D01*
X4662D02*
X4677D01*
X5363Y6017D02*
X5370D01*
X5572D01*
X5603D02*
X5669D01*
X4982D02*
X4875D01*
X4492D02*
X4373D01*
X4492D02*
X4584D01*
X4677D01*
X5358Y6022D02*
X5669D01*
X4982D02*
X4875D01*
X4492D02*
X4373D01*
X4492D02*
X4514D01*
X4562D02*
X4584D01*
X4614D01*
X4662D02*
X4677D01*
X5364Y6027D02*
X5373D01*
X5669D01*
X4982D02*
X4875D01*
X4509D02*
X4373D01*
X4567D02*
X4609D01*
X4667D02*
X4677D01*
X5373Y6032D02*
X5669D01*
X4982D02*
X4871D01*
X4504D02*
X4373D01*
X4572D02*
X4604D01*
X5373Y6037D02*
X5669D01*
X4982D02*
X4875D01*
X4492D02*
X4373D01*
X4492D02*
X4499D01*
X4577D02*
X4584D01*
X4592D01*
X4599D01*
X5373Y6042D02*
X5669D01*
X4982D02*
X4875D01*
X4492D02*
X4373D01*
X4584D02*
X4592D01*
X5373Y6047D02*
X5669D01*
X4982D02*
X4875D01*
X4492D02*
X4373D01*
X4584D02*
X4592D01*
X5373Y6052D02*
X5669D01*
X4982D02*
X4875D01*
X4492D02*
X4373D01*
X4584D02*
X4592D01*
X5099Y6057D02*
X5145D01*
X5373D02*
X5669D01*
X4982D02*
X4875D01*
X4492D02*
X4373D01*
X4584D02*
X4592D01*
X5099Y6062D02*
X5147D01*
X5373D02*
X5669D01*
X4982D02*
X4875D01*
X4492D02*
X4373D01*
X4584D02*
X4592D01*
X5099Y6067D02*
X5147D01*
X5155D01*
X5373D02*
X5669D01*
X4982D02*
X4875D01*
X4492D02*
X4373D01*
X4584D02*
X4592D01*
X5099Y6072D02*
X5147D01*
X5160D01*
X5167D02*
X5204D01*
X5319D01*
X5327D01*
X5364D02*
X5373D01*
X5669D01*
X4982D02*
X4875D01*
X4492D02*
X4373D01*
X4584D02*
X4592D01*
X5099Y6077D02*
X5147D01*
X5167D01*
X5204D01*
X5332D01*
X5364D02*
X5669D01*
X4982D02*
X4875D01*
X4492D02*
X4373D01*
X4584D02*
X4592D01*
X5099Y6082D02*
X5669D01*
X4982D02*
X4871D01*
X4492D02*
X4373D01*
X4584D02*
X4592D01*
X5099Y6087D02*
X5669D01*
X4982D02*
X4875D01*
X4492D02*
X4373D01*
X4584D02*
X4592D01*
X5099Y6092D02*
X5669D01*
X4982D02*
X4875D01*
X4492D02*
X4373D01*
X4584D02*
X4592D01*
X5099Y6097D02*
X5669D01*
X4982D02*
X4875D01*
X4492D02*
X4373D01*
X4492D02*
X4499D01*
X4577D02*
X4584D01*
X4592D01*
X4599D01*
X5099Y6102D02*
X5669D01*
X4982D02*
X4875D01*
X4504D02*
X4373D01*
X4572D02*
X4604D01*
X5099Y6107D02*
X5669D01*
X4982D02*
X4875D01*
X4509D02*
X4373D01*
X4567D02*
X4609D01*
X4670D02*
X4677D01*
X5099Y6112D02*
X5669D01*
X4982D02*
X4875D01*
X4514D02*
X4373D01*
X4562D02*
X4614D01*
X4662D02*
X4675D01*
X5099Y6117D02*
X5669D01*
X4982D02*
X4875D01*
X4677D02*
X4373D01*
X5099Y6122D02*
X5669D01*
X4982D02*
X4875D01*
X4514D02*
X4373D01*
X4562D02*
X4614D01*
X4662D02*
X4677D01*
X4685D01*
X5099Y6127D02*
X5669D01*
X4982D02*
X4875D01*
X4509D02*
X4373D01*
X4567D02*
X4609D01*
X4667D02*
X4677D01*
X4690D01*
X5099Y6132D02*
X5669D01*
X4982D02*
X4871D01*
X4504D02*
X4373D01*
X4572D02*
X4604D01*
X4677D02*
X4695D01*
X5099Y6137D02*
X5669D01*
X4982D02*
X4871D01*
X4492D02*
X4373D01*
X4492D02*
X4499D01*
X4577D02*
X4584D01*
X4592D01*
X4599D01*
X4677D02*
X4684D01*
X4700D01*
X5099Y6142D02*
X5669D01*
X4982D02*
X4871D01*
X4492D02*
X4373D01*
X4584D02*
X4592D01*
X4684D02*
X4705D01*
X5099Y6147D02*
X5669D01*
X4982D02*
X4871D01*
X4492D02*
X4373D01*
X4584D02*
X4592D01*
X4684D02*
X4710D01*
X5099Y6152D02*
X5669D01*
X4982D02*
X4871D01*
X4492D02*
X4373D01*
X4584D02*
X4592D01*
X4684D02*
X4715D01*
X5099Y6157D02*
X5669D01*
X4982D02*
X4871D01*
X4492D02*
X4373D01*
X4584D02*
X4592D01*
X4684D02*
X4720D01*
X5099Y6162D02*
X5669D01*
X4982D02*
X4871D01*
X4492D02*
X4373D01*
X4584D02*
X4592D01*
X4684D02*
X4725D01*
X5099Y6167D02*
X5669D01*
X4982D02*
X4871D01*
X4492D02*
X4373D01*
X4584D02*
X4592D01*
X4684D02*
X4730D01*
X4584Y6013D02*
X4492D01*
X4615D02*
X4661D01*
X4561Y6021D02*
X4515D01*
Y6113D02*
X4561D01*
X4615Y6121D02*
X4661D01*
X4561D02*
X4515D01*
X4615Y6021D02*
X4661D01*
Y6113D02*
X4615D01*
X5574Y6019D02*
X5601D01*
X5359Y6023D02*
X5357D01*
X5359Y6077D02*
X5332D01*
X4875Y5984D02*
X4871D01*
X4875D02*
X4881D01*
X5144Y6068D02*
X5147D01*
X5156D01*
X5167D01*
X5164D01*
X5204D02*
X5319D01*
X5323D01*
X4686Y6123D02*
X4677D01*
X5099Y6053D02*
X5141D01*
X5167Y6068D02*
X5169D01*
X5204D01*
X5099Y6172D02*
X5669D01*
X4982D02*
X4871D01*
X4492D02*
X4373D01*
X4584D02*
X4592D01*
X4684D02*
X4735D01*
X5099Y6177D02*
X5669D01*
X4982D02*
X4871D01*
X4492D02*
X4373D01*
X4584D02*
X4592D01*
X4684D02*
X4740D01*
X5099Y6182D02*
X5669D01*
X4982D02*
X4871D01*
X4492D02*
X4373D01*
X4584D02*
X4592D01*
X4684D02*
X4745D01*
X5099Y6187D02*
X5669D01*
X4982D02*
X4871D01*
X4492D02*
X4373D01*
X4584D02*
X4592D01*
X4684D02*
X4750D01*
X5099Y6192D02*
X5669D01*
X4982D02*
X4871D01*
X4492D02*
X4373D01*
X4584D02*
X4592D01*
X4684D02*
X4755D01*
X5099Y6197D02*
X5669D01*
X4982D02*
X4871D01*
X4492D02*
X4373D01*
X4492D02*
X4499D01*
X4577D02*
X4584D01*
X4592D01*
X4599D01*
X4677D02*
X4684D01*
X4760D01*
X5099Y6202D02*
X5669D01*
X4982D02*
X4871D01*
X4504D02*
X4373D01*
X4572D02*
X4604D01*
X4672D02*
X4765D01*
X5099Y6207D02*
X5669D01*
X4982D02*
X4871D01*
X4509D02*
X4373D01*
X4567D02*
X4609D01*
X4667D02*
X4770D01*
X5099Y6212D02*
X5669D01*
X4982D02*
X4871D01*
X4514D02*
X4373D01*
X4562D02*
X4614D01*
X4662D02*
X4775D01*
X5099Y6217D02*
X5669D01*
X4982D02*
X4871D01*
X4780D02*
X4373D01*
X5099Y6222D02*
X5669D01*
X4982D02*
X4871D01*
X4514D02*
X4373D01*
X4562D02*
X4614D01*
X4662D02*
X4785D01*
X5099Y6227D02*
X5669D01*
X4982D02*
X4871D01*
X4509D02*
X4373D01*
X4567D02*
X4609D01*
X4667D02*
X4790D01*
X5099Y6232D02*
X5669D01*
X4982D02*
X4871D01*
X4504D02*
X4373D01*
X4572D02*
X4604D01*
X4672D02*
X4795D01*
X5099Y6237D02*
X5669D01*
X4982D02*
X4871D01*
X4492D02*
X4373D01*
X4492D02*
X4499D01*
X4577D02*
X4584D01*
X4592D01*
X4599D01*
X4677D02*
X4684D01*
X4800D01*
X5099Y6242D02*
X5669D01*
X4982D02*
X4871D01*
X4492D02*
X4373D01*
X4584D02*
X4592D01*
X4684D02*
X4805D01*
X5099Y6247D02*
X5669D01*
X4982D02*
X4871D01*
X4492D02*
X4373D01*
X4584D02*
X4592D01*
X4684D02*
X4810D01*
X5099Y6252D02*
X5669D01*
X4982D02*
X4871D01*
X4492D02*
X4373D01*
X4584D02*
X4592D01*
X4684D02*
X4815D01*
X5099Y6257D02*
X5669D01*
X4982D02*
X4871D01*
X4492D02*
X4373D01*
X4584D02*
X4592D01*
X4684D02*
X4816D01*
X5099Y6262D02*
X5669D01*
X4492D02*
X4373D01*
X4584D02*
X4592D01*
X4684D02*
X4816D01*
X4871D02*
X4982D01*
X5099Y6267D02*
X5669D01*
X4492D02*
X4373D01*
X4584D02*
X4592D01*
X4684D02*
X4816D01*
X4871D02*
X4982D01*
X5100Y6272D02*
X5669D01*
X4492D02*
X4373D01*
X4584D02*
X4592D01*
X4684D02*
X4816D01*
X4870D02*
X4982D01*
X5105Y6277D02*
X5669D01*
X4492D02*
X4373D01*
X4584D02*
X4592D01*
X4684D02*
X4816D01*
X4822D01*
X4863D02*
X4870D01*
X4982D01*
X5110Y6282D02*
X5669D01*
X4492D02*
X4373D01*
X4584D02*
X4592D01*
X4684D02*
X4827D01*
X4858D02*
X4982D01*
X5115Y6287D02*
X5669D01*
X4492D02*
X4373D01*
X4584D02*
X4592D01*
X4684D02*
X4982D01*
X5120Y6292D02*
X5139D01*
X5669D01*
X4492D02*
X4373D01*
X4584D02*
X4592D01*
X4684D02*
X4982D01*
X5125Y6297D02*
X5139D01*
X5669D01*
X4492D02*
X4373D01*
X4492D02*
X4499D01*
X4577D02*
X4584D01*
X4592D01*
X4599D01*
X4677D02*
X4684D01*
X4982D01*
X5130Y6302D02*
X5139D01*
X5669D01*
X4504D02*
X4373D01*
X4572D02*
X4604D01*
X4672D02*
X4982D01*
X5139Y6307D02*
X5669D01*
X4509D02*
X4373D01*
X4567D02*
X4609D01*
X4667D02*
X4982D01*
X5140Y6312D02*
X5669D01*
X4514D02*
X4373D01*
X4562D02*
X4614D01*
X4662D02*
X4982D01*
X5139Y6317D02*
X5145D01*
X5669D01*
X4982D02*
X4373D01*
X5140Y6322D02*
X5669D01*
X4514D02*
X4373D01*
X4562D02*
X4614D01*
X4662D02*
X4982D01*
X5139Y6327D02*
X5669D01*
X4509D02*
X4373D01*
X4567D02*
X4609D01*
X4667D02*
X4982D01*
X5139Y6332D02*
X5669D01*
X4504D02*
X4373D01*
X4572D02*
X4604D01*
X4672D02*
X4982D01*
X5139Y6337D02*
X5669D01*
X4492D02*
X4373D01*
X4492D02*
X4499D01*
X4577D02*
X4584D01*
X4592D01*
X4599D01*
X4677D02*
X4684D01*
X4982D01*
X5139Y6342D02*
X5669D01*
X4492D02*
X4373D01*
X4584D02*
X4592D01*
X4684D02*
X4982D01*
X5139Y6347D02*
X5669D01*
X4492D02*
X4373D01*
X4584D02*
X4592D01*
X4684D02*
X4982D01*
X5139Y6352D02*
X5669D01*
X4492D02*
X4373D01*
X4584D02*
X4592D01*
X4684D02*
X4982D01*
X5139Y6357D02*
X5669D01*
X4492D02*
X4373D01*
X4584D02*
X4592D01*
X4684D02*
X4982D01*
X5139Y6362D02*
X5669D01*
X4492D02*
X4373D01*
X4584D02*
X4592D01*
X4684D02*
X4982D01*
X4661Y6321D02*
X4615D01*
X4561D02*
X4515D01*
Y6221D02*
X4561D01*
Y6313D02*
X4515D01*
X4615Y6221D02*
X4661D01*
Y6313D02*
X4615D01*
Y6213D02*
X4661D01*
X4561D02*
X4515D01*
X4829Y6284D02*
X4856D01*
X5129Y6301D02*
X5139D01*
X4871Y6258D02*
X4870D01*
X5139Y6367D02*
X5669D01*
X4492D02*
X4373D01*
X4584D02*
X4592D01*
X4684D02*
X4982D01*
X5139Y6372D02*
X5669D01*
X4492D02*
X4373D01*
X4584D02*
X4592D01*
X4684D02*
X4982D01*
X5139Y6377D02*
X5669D01*
X4492D02*
X4373D01*
X4584D02*
X4592D01*
X4684D02*
X4922D01*
X4953D02*
X4982D01*
X5139Y6382D02*
X5669D01*
X4492D02*
X4373D01*
X4584D02*
X4592D01*
X4684D02*
X4911D01*
X4917D01*
X4958D02*
X4965D01*
X4982D01*
X5139Y6387D02*
X5669D01*
X4492D02*
X4373D01*
X4584D02*
X4592D01*
X4684D02*
X4911D01*
X4965D02*
X4982D01*
X5139Y6392D02*
X5669D01*
X4492D02*
X4373D01*
X4584D02*
X4592D01*
X4684D02*
X4911D01*
X4965D02*
X4982D01*
X5139Y6397D02*
X5669D01*
X4492D02*
X4373D01*
X4492D02*
X4499D01*
X4577D02*
X4584D01*
X4592D01*
X4599D01*
X4677D02*
X4684D01*
X4911D01*
X4965D02*
X4982D01*
X5139Y6402D02*
X5669D01*
X4504D02*
X4373D01*
X4572D02*
X4604D01*
X4672D02*
X4911D01*
X4965D02*
X4982D01*
X5139Y6407D02*
X5669D01*
X4509D02*
X4373D01*
X4567D02*
X4609D01*
X4667D02*
X4911D01*
X4965D02*
X4982D01*
X5139Y6412D02*
X5669D01*
X4514D02*
X4373D01*
X4562D02*
X4614D01*
X4662D02*
X4911D01*
X4965D02*
X4982D01*
X5139Y6417D02*
X5669D01*
X4642D02*
X4373D01*
X4673D02*
X4911D01*
X4965D02*
X4982D01*
X5139Y6422D02*
X5669D01*
X4631D02*
X4373D01*
X4631D02*
X4637D01*
X4678D02*
X4685D01*
X4911D01*
X4917D01*
X4958D02*
X4965D01*
X4982D01*
X5139Y6427D02*
X5669D01*
X4631D02*
X4373D01*
X4685D02*
X4922D01*
X4953D02*
X4982D01*
X5139Y6432D02*
X5669D01*
X4631D02*
X4373D01*
X4685D02*
X4982D01*
X5139Y6437D02*
X5669D01*
X4631D02*
X4373D01*
X4685D02*
X4982D01*
X5139Y6442D02*
X5669D01*
X4631D02*
X4373D01*
X4685D02*
X4982D01*
X5139Y6447D02*
X5669D01*
X4631D02*
X4373D01*
X4685D02*
X4982D01*
X5139Y6452D02*
X5669D01*
X4631D02*
X4373D01*
X4685D02*
X4982D01*
X5139Y6457D02*
X5669D01*
X4631D02*
X4373D01*
X4685D02*
X4982D01*
X5139Y6462D02*
X5669D01*
X4631D02*
X4373D01*
X4631D02*
X4637D01*
X4678D02*
X4685D01*
X4982D01*
X5139Y6467D02*
X5669D01*
X4527D02*
X4373D01*
X4558D02*
X4642D01*
X4673D02*
X4982D01*
X5139Y6472D02*
X5669D01*
X4516D02*
X4373D01*
X4516D02*
X4522D01*
X4563D02*
X4570D01*
X4982D01*
X5139Y6477D02*
X5669D01*
X4516D02*
X4373D01*
X4570D02*
X4982D01*
X5139Y6482D02*
X5669D01*
X4516D02*
X4373D01*
X4570D02*
X4982D01*
X5139Y6487D02*
X5669D01*
X4516D02*
X4373D01*
X4570D02*
X4982D01*
X5139Y6492D02*
X5669D01*
X4516D02*
X4373D01*
X4570D02*
X4980D01*
X5139Y6497D02*
X5669D01*
X4516D02*
X4373D01*
X4570D02*
X4975D01*
X5139Y6502D02*
X5669D01*
X4516D02*
X4373D01*
X4570D02*
X4970D01*
X5139Y6507D02*
X5669D01*
X4516D02*
X4373D01*
X4570D02*
X4965D01*
X5139Y6512D02*
X5669D01*
X4516D02*
X4373D01*
X4516D02*
X4522D01*
X4563D02*
X4570D01*
X4960D01*
X5139Y6517D02*
X5669D01*
X4527D02*
X4373D01*
X4558D02*
X4955D01*
X5139Y6522D02*
X5669D01*
X4950D02*
X4373D01*
X5139Y6527D02*
X5669D01*
X4945D02*
X4373D01*
X5139Y6532D02*
X5669D01*
X4940D02*
X4373D01*
X5139Y6537D02*
X5669D01*
X4935D02*
X4373D01*
X5139Y6542D02*
X5669D01*
X4930D02*
X4373D01*
X5139Y6547D02*
X5669D01*
X4925D02*
X4373D01*
X5139Y6552D02*
X5669D01*
X4920D02*
X4373D01*
X5139Y6557D02*
X5572D01*
X5623D02*
X5669D01*
X4915D02*
X4373D01*
X5139Y6562D02*
X5567D01*
X5628D02*
X5669D01*
X4910D02*
X4373D01*
X4615Y6413D02*
X4661D01*
X4561D02*
X4515D01*
X5576Y6554D02*
X5619D01*
X4951Y6375D02*
X4924D01*
Y6429D02*
X4951D01*
X4671Y6415D02*
X4644D01*
Y6469D02*
X4671D01*
X4556Y6465D02*
X4529D01*
Y6519D02*
X4556D01*
X5139Y6567D02*
X5554D01*
X5562D01*
X5633D02*
X5641D01*
X5669D01*
X4905D02*
X4373D01*
X5139Y6572D02*
X5554D01*
X5641D02*
X5669D01*
X4900D02*
X4373D01*
X5139Y6577D02*
X5554D01*
X5641D02*
X5669D01*
X4895D02*
X4373D01*
X5139Y6582D02*
X5554D01*
X5641D02*
X5669D01*
X4890D02*
X4373D01*
X5139Y6587D02*
X5554D01*
X5641D02*
X5669D01*
X4885D02*
X4373D01*
X5139Y6592D02*
X5554D01*
X5641D02*
X5669D01*
X4880D02*
X4373D01*
X5139Y6597D02*
X5554D01*
X5641D02*
X5669D01*
X4875D02*
X4373D01*
X5139Y6602D02*
X5554D01*
X5641D02*
X5669D01*
X4870D02*
X4373D01*
X5139Y6607D02*
X5554D01*
X5641D02*
X5669D01*
X4865D02*
X4373D01*
X5139Y6612D02*
X5554D01*
X5641D02*
X5669D01*
X4860D02*
X4373D01*
X5139Y6617D02*
X5554D01*
X5641D02*
X5669D01*
X4837D02*
X4373D01*
X4837D02*
X4855D01*
X5139Y6622D02*
X5554D01*
X5641D02*
X5669D01*
X4837D02*
X4373D01*
X4837D02*
X4850D01*
X5139Y6627D02*
X5554D01*
X5562D01*
X5633D02*
X5641D01*
X5669D01*
X4837D02*
X4373D01*
X4837D02*
X4845D01*
X5139Y6632D02*
X5567D01*
X5628D02*
X5669D01*
X4837D02*
X4373D01*
X5139Y6637D02*
X5572D01*
X5623D02*
X5669D01*
X4835D02*
X4373D01*
X5139Y6642D02*
X5669D01*
X4830D02*
X4373D01*
X4830D02*
X4837D01*
X5139Y6647D02*
X5669D01*
X4835D02*
X4373D01*
X5139Y6652D02*
X5669D01*
X4837D02*
X4373D01*
X5139Y6657D02*
X5669D01*
X4837D02*
X4373D01*
X5139Y6662D02*
X5669D01*
X4837D02*
X4373D01*
X5139Y6667D02*
X5669D01*
X4837D02*
X4373D01*
X5139Y6672D02*
X5669D01*
X4837D02*
X4373D01*
X5139Y6677D02*
X5669D01*
X4837D02*
X4373D01*
X5139Y6682D02*
X5669D01*
X4837D02*
X4373D01*
X5139Y6687D02*
X5669D01*
X4547D02*
X4373D01*
X4578D02*
X4837D01*
X5139Y6692D02*
X5669D01*
X4536D02*
X4373D01*
X4536D02*
X4542D01*
X4583D02*
X4590D01*
X4837D01*
X5139Y6697D02*
X5669D01*
X4536D02*
X4373D01*
X4590D02*
X4837D01*
X5139Y6702D02*
X5669D01*
X4536D02*
X4373D01*
X4590D02*
X4837D01*
X5140Y6707D02*
X5387D01*
X5438D02*
X5537D01*
X5588D02*
X5669D01*
X4447D02*
X4373D01*
X4498D02*
X4536D01*
X4590D02*
X4597D01*
X4648D02*
X4837D01*
X5139Y6712D02*
X5145D01*
X5382D01*
X5443D02*
X5532D01*
X5593D02*
X5669D01*
X4442D02*
X4373D01*
X4503D02*
X4536D01*
X4653D02*
X4837D01*
X5140Y6717D02*
X5369D01*
X5377D01*
X5448D02*
X5456D01*
X5519D01*
X5527D01*
X5598D02*
X5606D01*
X5669D01*
X4429D02*
X4373D01*
X4429D02*
X4437D01*
X4508D02*
X4516D01*
X4536D01*
X4658D02*
X4666D01*
X4837D01*
X5139Y6722D02*
X5369D01*
X5456D02*
X5519D01*
X5606D02*
X5669D01*
X4429D02*
X4373D01*
X4516D02*
X4536D01*
X4666D02*
X4837D01*
X5130Y6727D02*
X5139D01*
X5369D01*
X5456D02*
X5519D01*
X5606D02*
X5669D01*
X4429D02*
X4373D01*
X4516D02*
X4536D01*
X4666D02*
X4837D01*
X5125Y6732D02*
X5139D01*
X5369D01*
X5456D02*
X5519D01*
X5606D02*
X5669D01*
X4429D02*
X4373D01*
X4516D02*
X4536D01*
X4542D01*
X4666D02*
X4837D01*
X5120Y6737D02*
X5139D01*
X5369D01*
X5456D02*
X5519D01*
X5606D02*
X5669D01*
X4429D02*
X4373D01*
X4516D02*
X4547D01*
X4666D02*
X4837D01*
X5115Y6742D02*
X5369D01*
X5456D02*
X5519D01*
X5606D02*
X5669D01*
X4429D02*
X4373D01*
X4516D02*
X4579D01*
X4666D02*
X4837D01*
X5110Y6747D02*
X5369D01*
X5456D02*
X5519D01*
X5606D02*
X5669D01*
X4429D02*
X4373D01*
X4516D02*
X4579D01*
X4666D02*
X4837D01*
X5105Y6752D02*
X5369D01*
X5456D02*
X5519D01*
X5606D02*
X5669D01*
X4429D02*
X4373D01*
X4516D02*
X4579D01*
X4666D02*
X4837D01*
X5100Y6757D02*
X5369D01*
X5456D02*
X5519D01*
X5606D02*
X5669D01*
X4429D02*
X4373D01*
X4516D02*
X4579D01*
X4666D02*
X4837D01*
X5391Y6704D02*
X5434D01*
X5541D02*
X5584D01*
X4644D02*
X4601D01*
X4494D02*
X4451D01*
X5576Y6641D02*
X5619D01*
X4576Y6685D02*
X4549D01*
Y6739D02*
X4576D01*
X4579D01*
X5129Y6728D02*
X5139D01*
X4846Y6626D02*
X4837D01*
X5095Y6762D02*
X5369D01*
X5456D02*
X5519D01*
X5606D02*
X5669D01*
X4429D02*
X4373D01*
X4516D02*
X4579D01*
X4666D02*
X4837D01*
X5090Y6767D02*
X5369D01*
X5456D02*
X5519D01*
X5606D02*
X5669D01*
X4429D02*
X4373D01*
X4516D02*
X4579D01*
X4666D02*
X4837D01*
X5085Y6772D02*
X5369D01*
X5456D02*
X5519D01*
X5606D02*
X5669D01*
X4429D02*
X4373D01*
X4516D02*
X4579D01*
X4666D02*
X4837D01*
X5080Y6777D02*
X5369D01*
X5377D01*
X5448D02*
X5456D01*
X5519D01*
X5527D01*
X5598D02*
X5606D01*
X5669D01*
X4429D02*
X4373D01*
X4429D02*
X4437D01*
X4508D02*
X4516D01*
X4579D01*
X4587D01*
X4658D02*
X4666D01*
X4837D01*
X5079Y6782D02*
X5382D01*
X5443D02*
X5532D01*
X5593D02*
X5669D01*
X4442D02*
X4373D01*
X4503D02*
X4592D01*
X4653D02*
X4837D01*
X5070Y6787D02*
X5079D01*
X5387D01*
X5438D02*
X5537D01*
X5588D02*
X5669D01*
X4447D02*
X4373D01*
X4498D02*
X4597D01*
X4648D02*
X4837D01*
X4953Y6792D02*
X4960D01*
X5009D01*
X5060D01*
X5065D02*
X5079D01*
X5669D01*
X4837D02*
X4373D01*
X4948Y6797D02*
X5009D01*
X5079D01*
X5669D01*
X4837D02*
X4373D01*
X4934Y6802D02*
X5669D01*
X4826D02*
X4373D01*
X4826D02*
X4832D01*
X4930Y6807D02*
X5669D01*
X4826D02*
X4373D01*
X4930Y6812D02*
X5669D01*
X4826D02*
X4373D01*
X4930Y6817D02*
X5669D01*
X4826D02*
X4373D01*
X4930Y6822D02*
X5669D01*
X4826D02*
X4373D01*
Y6827D02*
X4826D01*
X4930D02*
X5669D01*
X4826Y6832D02*
X4373D01*
X4930D02*
X5669D01*
X4826Y6837D02*
X4373D01*
X4930D02*
X5297D01*
X5328D02*
X5669D01*
X4826Y6842D02*
X4373D01*
X4826D02*
X4832D01*
X4923D02*
X4930D01*
X5286D01*
X5292D01*
X5333D02*
X5340D01*
X5669D01*
X4837Y6847D02*
X4373D01*
X4869D02*
X4887D01*
X4919D02*
X5286D01*
X5340D02*
X5669D01*
X5286Y6852D02*
X4373D01*
X5340D02*
X5669D01*
X5286Y6857D02*
X4373D01*
X5340D02*
X5669D01*
X5286Y6862D02*
X4373D01*
X5340D02*
X5669D01*
X5286Y6867D02*
X4373D01*
X5340D02*
X5669D01*
X5286Y6872D02*
X4373D01*
X5340D02*
X5669D01*
X5286Y6877D02*
X4373D01*
X5340D02*
X5669D01*
X4384Y6882D02*
X4373D01*
X4384D02*
X4414D01*
X5286D01*
X5292D01*
X5333D02*
X5340D01*
X5628D01*
X5658D01*
X5669D01*
X4384Y6887D02*
X4373D01*
X4384D02*
X4414D01*
X5297D01*
X5328D02*
X5628D01*
X5658D01*
X5669D01*
X5628Y6892D02*
X4414D01*
Y6897D02*
X5628D01*
Y6902D02*
X4414D01*
X5391Y6791D02*
X5434D01*
X5541D02*
X5584D01*
X4644D02*
X4601D01*
X4494D02*
X4451D01*
X5299Y6835D02*
X5326D01*
Y6889D02*
X5299D01*
X4934Y6799D02*
X4931D01*
X4934D02*
X4946D01*
X4916Y6849D02*
X4889D01*
X4866D02*
X4839D01*
X4384Y6892D02*
X4373D01*
X5658D02*
X5669D01*
X5056Y6788D02*
X5009D01*
X5056D02*
X5069D01*
X5079D01*
X5628Y6906D02*
X4414D01*
Y6892D02*
X4384D01*
X5628D02*
X5658D01*
X4960Y6788D02*
X4957D01*
X4960D02*
X5009D01*
D20*
X4968Y5657D02*
X4638Y5327D01*
X4603Y5342D02*
X4818Y5557D01*
X4793Y5567D02*
X4533Y5307D01*
X4508Y5327D02*
X4768Y5587D01*
X4733Y5607D02*
X4473Y5347D01*
X4448Y5367D02*
X4713Y5632D01*
X4693Y5647D02*
X4423Y5377D01*
X4693Y6107D02*
X4843Y6257D01*
X5318Y5002D02*
X5498Y4822D01*
X5483Y4872D02*
X5338Y5017D01*
X5358Y5032D02*
X5473Y4917D01*
X4813Y3687D02*
X4933Y3567D01*
X5028Y3592D02*
X4773Y3847D01*
X4788Y3872D02*
X5048Y3612D01*
X4553Y4577D02*
X4448Y4682D01*
X5483Y5607D02*
X5598Y5492D01*
X5628Y5512D02*
X5483Y5657D01*
X4998Y6497D02*
X4853Y6642D01*
X4903D02*
X5028Y6517D01*
X5123Y3567D02*
X5283D01*
X5248Y3592D02*
X5068D01*
X5163Y3612D02*
X5233D01*
X5198D02*
X5138D01*
X5158Y3567D02*
X4933D01*
X5028Y3592D02*
X5158D01*
Y3612D02*
X5048D01*
X5513Y3632D02*
X5578D01*
X5528D02*
X5348D01*
X5363Y3652D02*
X5308D01*
X5323D02*
X5548D01*
X5528Y3682D02*
X5303D01*
X4753Y3822D02*
X4708D01*
X4738D02*
X4768D01*
X5063Y3632D02*
X5143D01*
X5113Y3652D02*
X5078D01*
X4733Y3847D02*
X4723D01*
X4743Y3872D02*
X4788D01*
X4773Y3847D02*
X4728D01*
X4918Y3897D02*
X4968D01*
X4953D02*
X4753D01*
X4768Y3922D02*
X4998D01*
X5018Y3942D02*
X4788D01*
X4423Y4527D02*
Y4607D01*
Y5187D01*
X4448Y5172D02*
Y4682D01*
X4473Y4697D02*
Y5197D01*
Y5182D02*
Y5347D01*
X4448Y5367D02*
Y5162D01*
X4423Y5177D02*
Y5377D01*
Y4527D02*
X4493Y4457D01*
X4563Y4607D02*
X4473Y4697D01*
X4493Y4457D02*
X4623D01*
Y4577D02*
X4553D01*
X4628Y4812D02*
Y4827D01*
X4588Y4837D02*
Y4797D01*
X4638Y4887D02*
Y5067D01*
X4678Y4827D02*
Y4737D01*
X4628Y4732D02*
Y4812D01*
X4588D02*
Y4732D01*
X4638Y5062D02*
Y5327D01*
X4658Y3882D02*
Y3872D01*
Y3882D02*
Y4202D01*
X4678Y3902D02*
Y3892D01*
Y3902D02*
Y4192D01*
Y4187D02*
Y4522D01*
X4658Y4422D02*
Y4192D01*
X4508Y4702D02*
Y5207D01*
X4533Y5202D02*
Y4717D01*
X4563Y4727D02*
Y4802D01*
Y4797D02*
Y5117D01*
X4603Y5157D02*
Y5187D01*
Y5177D02*
Y5342D01*
X4533Y5307D02*
Y5192D01*
X4508Y5187D02*
Y5327D01*
X4633Y4832D02*
X4628Y4827D01*
X4633Y4832D02*
X4718Y4917D01*
X4743Y4892D02*
X4678Y4827D01*
X4638Y4887D02*
X4588Y4837D01*
X4563Y5117D02*
X4603Y5157D01*
X4588Y4732D02*
X4618Y4702D01*
X4658Y3872D02*
X4708Y3822D01*
X4723Y3847D02*
X4678Y3892D01*
X4698Y4542D02*
X4633Y4607D01*
X4623Y4577D02*
X4678Y4522D01*
X4623Y4457D02*
X4658Y4422D01*
X4718Y4562D02*
X4648Y4632D01*
X4578D02*
X4508Y4702D01*
X4658Y4657D02*
X4743Y4572D01*
X4593Y4657D02*
X4533Y4717D01*
X4673Y4682D02*
X4738Y4617D01*
X4608Y4682D02*
X4563Y4727D01*
X4618Y4702D02*
X4708D01*
X4633Y4607D02*
X4628D01*
X4563D01*
X4578Y4632D02*
X4648D01*
X4658Y4657D02*
X4593D01*
X4608Y4682D02*
X4673D01*
X4718Y4917D02*
Y4932D01*
Y5057D01*
X4743Y4942D02*
Y4892D01*
Y4917D02*
Y5307D01*
X4718Y5332D02*
Y5022D01*
X4813Y3777D02*
Y3687D01*
X4698Y3917D02*
Y4197D01*
X4723Y4212D02*
Y3927D01*
X4743Y3947D02*
Y3957D01*
Y4227D01*
X4763Y4002D02*
Y3967D01*
X4698Y4187D02*
Y4542D01*
X4723Y4557D02*
Y4207D01*
X4743D02*
Y4572D01*
X4763Y4277D02*
Y3992D01*
Y4507D02*
Y4592D01*
Y4547D02*
Y4262D01*
X4818Y5557D02*
Y5892D01*
X4793Y5927D02*
Y5567D01*
X4768Y5587D02*
Y5992D01*
X4733Y6032D02*
Y5607D01*
X4713Y5632D02*
Y6062D01*
X4693Y5692D02*
Y5647D01*
Y5687D02*
Y6107D01*
X4853Y6722D02*
Y6822D01*
Y6722D02*
Y6642D01*
X4793Y5357D02*
X4743Y5307D01*
X4718Y5332D02*
X4768Y5382D01*
X4728Y4722D02*
X4708Y4702D01*
X4818Y5892D02*
X4833Y5907D01*
X4793Y5927D02*
X4823Y5957D01*
X4783Y6007D02*
X4768Y5992D01*
X4733Y6032D02*
X4758Y6057D01*
X4713Y6062D02*
X4758Y6107D01*
X4768Y3822D02*
X4813Y3777D01*
X4743Y3872D02*
X4698Y3917D01*
X4723Y3927D02*
X4753Y3897D01*
X4768Y3922D02*
X4743Y3947D01*
X4763Y3967D02*
X4788Y3942D01*
X4723Y4557D02*
X4718Y4562D01*
X4763Y4592D02*
X4738Y4617D01*
X5498Y4822D02*
X5583D01*
Y4872D02*
X5483D01*
X5473Y4917D02*
X5583D01*
X5028Y3837D02*
Y3667D01*
X5058Y3672D02*
Y3862D01*
X5053Y5717D02*
Y6472D01*
Y6457D02*
Y6627D01*
X4998Y6497D02*
Y5972D01*
X4903Y6772D02*
Y6822D01*
Y6772D02*
Y6642D01*
X5028Y6517D02*
Y5932D01*
X5053Y6622D02*
Y6697D01*
X4913Y5887D02*
Y5862D01*
X4958D02*
X5028Y5932D01*
X4968Y3897D02*
X5028Y3837D01*
Y3667D02*
X5063Y3632D01*
X5058Y3862D02*
X4998Y3922D01*
X5058Y3672D02*
X5078Y3652D01*
X5093Y3867D02*
X5018Y3942D01*
X5093Y5677D02*
X5053Y5717D01*
Y6697D02*
X5023Y6727D01*
X5063Y6772D02*
X5123Y6712D01*
X4998Y5972D02*
X4913Y5887D01*
X5093Y3867D02*
Y3687D01*
Y5647D02*
Y5677D01*
X5123Y5687D02*
Y5632D01*
Y5687D02*
Y5722D01*
X5173Y5772D02*
Y5827D01*
X5083Y5917D02*
Y6277D01*
X5123Y6317D02*
Y6627D01*
Y6602D02*
Y6712D01*
Y6012D02*
Y5927D01*
X5208Y5842D02*
Y5742D01*
X5168Y5702D02*
Y5472D01*
Y5462D01*
X5203Y5357D02*
X5293Y5447D01*
X5163Y5407D02*
X5138Y5382D01*
X5308Y3652D02*
X5248Y3592D01*
X5233Y3612D02*
X5303Y3682D01*
X5148Y3637D02*
X5143Y3632D01*
X5148Y3637D02*
X5193Y3682D01*
X5143D02*
X5113Y3652D01*
X5093Y5602D02*
X5123Y5632D01*
Y5722D02*
X5173Y5772D01*
X5083Y6277D02*
X5123Y6317D01*
X5163Y6052D02*
X5123Y6012D01*
X5208Y5742D02*
X5168Y5702D01*
Y5462D02*
X5118Y5412D01*
X5173Y5827D02*
X5083Y5917D01*
X5123Y5927D02*
X5208Y5842D01*
X5088Y5357D02*
X4793D01*
X4768Y5382D02*
X5083D01*
X5023Y5357D02*
X5203D01*
X5138Y5382D02*
X5013D01*
X5318Y5037D02*
Y5002D01*
X5338Y5017D02*
Y5032D01*
X5318Y5127D02*
Y5217D01*
X5323Y5222D02*
Y5362D01*
X5318Y5192D02*
Y5132D01*
X5338Y5152D02*
Y5107D01*
X5343Y5157D02*
Y5262D01*
X5358Y5092D02*
Y5032D01*
X5368Y5102D02*
Y5427D01*
X5343Y5257D02*
Y5602D01*
X5323Y5627D02*
Y5362D01*
X5288Y5662D02*
Y5757D01*
X5343Y5652D02*
Y5592D01*
X5308Y5687D02*
Y5727D01*
X5368Y5677D02*
Y5412D01*
X5318Y5142D02*
Y5032D01*
X5338D02*
Y5132D01*
X5423Y5147D02*
Y5032D01*
X5393Y5062D02*
Y5167D01*
Y5187D02*
Y5867D01*
Y5267D02*
Y5147D01*
X5423Y5132D02*
Y5877D01*
Y5917D02*
Y5832D01*
X5323Y5222D02*
X5318Y5217D01*
X5343Y5157D02*
X5338Y5152D01*
X5368Y5102D02*
X5358Y5092D01*
X5288Y5757D02*
X5338Y5807D01*
Y5757D02*
X5308Y5727D01*
X5348Y3632D02*
X5283Y3567D01*
X5323Y5627D02*
X5288Y5662D01*
X5308Y5687D02*
X5343Y5652D01*
X5368Y5677D02*
X5338Y5707D01*
X5393Y5867D02*
X5308Y5952D01*
X5343Y5997D02*
X5423Y5917D01*
X5483Y5412D02*
X5528D01*
X5638Y5162D02*
Y4442D01*
X5613Y4462D02*
Y5142D01*
Y5057D02*
Y4502D01*
X5628Y5222D02*
Y5512D01*
X5638Y5162D02*
Y5047D01*
X5598Y5202D02*
Y5222D01*
X5613Y5142D02*
Y5052D01*
X5563Y5192D02*
Y5232D01*
Y5222D02*
Y5377D01*
X5598Y5492D02*
Y5217D01*
X5658Y4417D02*
X5613Y4372D01*
X5583Y4342D01*
Y4387D02*
X5638Y4442D01*
X5613Y4462D02*
X5583Y4432D01*
X5628Y3682D02*
X5578Y3632D01*
X5548Y3652D02*
X5578Y3682D01*
X5658Y5192D02*
X5628Y5222D01*
X5598Y5202D02*
X5638Y5162D01*
X5613Y5142D02*
X5563Y5192D01*
Y5377D02*
X5528Y5412D01*
X5658Y5192D02*
Y5187D01*
Y4417D01*
Y5027D02*
Y5192D01*
X4868Y5907D02*
X4833D01*
X4823Y5957D02*
X4868D01*
X4848Y6007D02*
X4783D01*
X4758Y6057D02*
X4848D01*
Y6107D02*
X4758D01*
X5183Y6052D02*
X5348D01*
X5188D02*
X5163D01*
X5023Y6727D02*
X4933D01*
Y6772D02*
X4993D01*
X4958D02*
X5063D01*
D22*
X5093Y5192D02*
X5058Y5157D01*
X4593Y6700D02*
X4571Y6722D01*
X4561D02*
X4593Y6690D01*
X5058Y4777D02*
X5143Y4692D01*
X5058Y4562D02*
X5008Y4612D01*
X4571Y6722D02*
Y6737D01*
X5058Y4822D02*
Y4777D01*
Y4787D02*
Y5157D01*
Y4562D02*
Y4297D01*
X5008Y4612D02*
Y5282D01*
Y5287D02*
Y5177D01*
X5093Y5192D02*
Y5282D01*
D25*
X5583Y4432D02*
D03*
Y4387D02*
D03*
Y4342D02*
D03*
X5628Y3682D02*
D03*
X5578D02*
D03*
X5528D02*
D03*
X5583Y4822D02*
D03*
Y4872D02*
D03*
Y4917D02*
D03*
X5483Y5412D02*
D03*
Y5607D02*
D03*
Y5657D02*
D03*
X5588Y5992D02*
D03*
X5423Y5032D02*
D03*
X5393Y5062D02*
D03*
X5293Y5447D02*
D03*
X5368Y6912D02*
D03*
X5348Y6512D02*
D03*
X5338Y5707D02*
D03*
Y5757D02*
D03*
Y5807D02*
D03*
X5343Y5997D02*
D03*
X5308Y5952D02*
D03*
X5346Y6050D02*
D03*
X5143Y3682D02*
D03*
X5193D02*
D03*
X5093D02*
D03*
X5143Y4692D02*
D03*
X5163Y5407D02*
D03*
X5118Y5412D02*
D03*
X5093Y5602D02*
D03*
Y5647D02*
D03*
X5058Y4297D02*
D03*
X4968Y5657D02*
D03*
X4938Y6402D02*
D03*
X4958Y5862D02*
D03*
X4913D02*
D03*
X4903Y6822D02*
D03*
X4933Y6772D02*
D03*
Y6727D02*
D03*
X4728Y4722D02*
D03*
X4868Y5907D02*
D03*
Y5957D02*
D03*
X4848Y6007D02*
D03*
Y6057D02*
D03*
Y6107D02*
D03*
X4843Y6257D02*
D03*
X4853Y6822D02*
D03*
X4628Y4737D02*
D03*
X4678D02*
D03*
X4563Y6712D02*
D03*
X4543Y6492D02*
D03*
X4548Y5687D02*
D03*
D34*
X5093Y5282D02*
D03*
X5008D02*
D03*
D51*
X4420Y6927D02*
X5621D01*
D56*
X5617Y6912D02*
X4425D01*
D67*
X4558Y6716D02*
Y6709D01*
D78*
X4567Y5686D02*
X4545D01*
D79*
X4930Y6401D02*
X4941D01*
D81*
X5310Y6860D02*
X5315D01*
D84*
X4552Y6493D02*
X4537D01*
D85*
X5591Y5998D02*
Y5989D01*
D02*
M02*
