*%FSLAX23Y23*%
*%MOIN*%
G01*
D20*
X4438Y4267D02*
X4553Y4382D01*
X4893Y4732D02*
X4738Y4887D01*
X4913Y2807D02*
X5028D01*
X4968D02*
X4913D01*
X5348D02*
X5403D01*
X5348D02*
X5463D01*
X4593D02*
X4478D01*
X4533D01*
X5028Y2722D02*
X5153D01*
X5348Y2922D02*
X5463D01*
X4718Y2882D02*
X4668D01*
X4593Y2922D02*
X4478D01*
X5103Y2882D02*
X5153D01*
X5028Y2922D02*
X4913D01*
X5538Y2882D02*
X5588D01*
X5353Y3122D02*
X5293D01*
X4913D02*
X4863D01*
X4478D02*
X4423D01*
X5348D02*
X5578D01*
X4708D02*
X4478D01*
Y3047D02*
X4558D01*
X4913Y3122D02*
X5143D01*
X4993Y3047D02*
X4913D01*
X5348D02*
X5428D01*
X4743Y3212D02*
X4668D01*
X4708D02*
X4763D01*
X5103Y3207D02*
X5213D01*
X5173D01*
X5543D02*
X5633D01*
X4918Y3397D02*
X4858D01*
X5068Y3372D02*
X5128D01*
X5093D02*
X5058D01*
X4898Y3397D02*
X4858D01*
X4973Y3327D02*
X5043D01*
X4998D02*
X4858D01*
X4818D01*
X5253D02*
X5293D01*
X5433D01*
X5408D02*
X5478D01*
X5333Y3397D02*
X5293D01*
X5493Y3372D02*
X5528D01*
X5503D02*
X5563D01*
X5353Y3397D02*
X5293D01*
X4483D02*
X4423D01*
X4633Y3372D02*
X4693D01*
X4658D02*
X4623D01*
X4463Y3397D02*
X4423D01*
X4538Y3327D02*
X4608D01*
X4563D02*
X4423D01*
X4383D01*
X4478Y3272D02*
X4558D01*
X4913D02*
X4993D01*
X5348D02*
X5428D01*
X5203Y3622D02*
X5153D01*
X5183D02*
X5078D01*
X5093Y3592D02*
X5193D01*
X5528D02*
X5628D01*
X5618Y3622D02*
X5513D01*
X5588D02*
X5638D01*
X4708Y3452D02*
X4668D01*
X4473D02*
X4428D01*
X4543D02*
X4603D01*
X4718Y3622D02*
X4768D01*
X4748D02*
X4643D01*
X4658Y3592D02*
X4758D01*
X5103Y3452D02*
X5143D01*
X4908D02*
X4863D01*
X4978D02*
X5038D01*
X5413D02*
X5473D01*
X5343D02*
X5298D01*
X5538D02*
X5578D01*
X5363Y3692D02*
X5313D01*
X4493D02*
X4443D01*
X4473Y3632D02*
X4508D01*
X4458D01*
X4878Y3692D02*
X4928D01*
X4943Y3632D02*
X4908D01*
X4893D02*
X4943D01*
X5328D02*
X5378D01*
X5343D01*
X4968Y3972D02*
X4898D01*
X5063Y3982D02*
X5098D01*
X5033Y3952D02*
X4993D01*
X5328Y3902D02*
X5393D01*
X5428Y3952D02*
X5468D01*
X5498Y3982D02*
X5533D01*
X5403Y3972D02*
X5333D01*
X4533D02*
X4463D01*
X4628Y3982D02*
X4663D01*
X4598Y3952D02*
X4558D01*
X4523Y3902D02*
X4458D01*
X4893D02*
X4958D01*
X5038Y4142D02*
X5108D01*
X5473D02*
X5543D01*
X4683Y4022D02*
X4658D01*
X4673Y4142D02*
X4603D01*
X4598Y4022D02*
X4688D01*
X4673D02*
X4703D01*
X4513Y4052D02*
X4443D01*
X4483D02*
X4533D01*
X4528Y4037D02*
X4578D01*
X5093Y4022D02*
X5118D01*
X5123D02*
X5033D01*
X5108D02*
X5138D01*
X5013Y4037D02*
X4963D01*
X5398D02*
X5448D01*
X5543Y4022D02*
X5573D01*
X5558D02*
X5468D01*
X5528D02*
X5553D01*
X4963Y4047D02*
X4888D01*
X5308Y4052D02*
X5403D01*
X4458Y4352D02*
X4403D01*
X4603Y4217D02*
X4673D01*
X5038D02*
X5108D01*
X5473D02*
X5543D01*
X4943Y4372D02*
X4883D01*
X5058Y4297D02*
X5103D01*
X4673Y4302D02*
X4628D01*
X4743D02*
X4793D01*
X5168Y4297D02*
X5223D01*
X5323Y4372D02*
X5378D01*
X4458Y6582D02*
Y6662D01*
Y6697D02*
Y6742D01*
Y6707D02*
Y6667D01*
X4473Y5102D02*
Y5007D01*
X4468Y4477D02*
Y4407D01*
X4403Y4422D02*
Y4477D01*
X4423Y4897D02*
Y4942D01*
X4413Y4577D02*
Y4542D01*
X4423Y4587D02*
Y4632D01*
X4403Y4547D02*
Y4517D01*
X4468Y4507D02*
Y4477D01*
X4423Y4882D02*
Y5007D01*
X4473Y4832D02*
Y4547D01*
Y4632D01*
X4398Y3977D02*
Y3907D01*
Y3862D01*
X4433Y3827D02*
Y3747D01*
Y3702D01*
X4458Y3762D02*
Y3902D01*
X4408Y3527D02*
Y3472D01*
Y3677D02*
Y3757D01*
X4383Y3652D02*
Y3592D01*
X4458Y3757D02*
Y3837D01*
X4408Y3552D02*
Y3487D01*
X4383Y3437D02*
Y3327D01*
Y3437D02*
Y3602D01*
X4478Y3197D02*
Y3122D01*
Y2832D02*
Y2807D01*
Y2797D01*
Y2757D02*
Y2847D01*
Y2687D02*
Y2617D01*
X4408Y3527D02*
Y3582D01*
X4458Y6707D02*
X4478Y6727D01*
X4423Y4587D02*
X4413Y4577D01*
X4458Y3632D02*
X4408Y3582D01*
X4383Y3652D02*
X4408Y3677D01*
X4508Y7207D02*
X4473Y7242D01*
X4403Y4517D02*
X4408Y4512D01*
X4463D02*
X4468Y4507D01*
X4473Y4832D02*
X4423Y4882D01*
X4453Y4072D02*
X4473Y4052D01*
X4398Y3862D02*
X4433Y3827D01*
Y3702D02*
X4443Y3692D01*
X4408Y3472D02*
X4428Y3452D01*
X4478Y2617D02*
X4523Y2572D01*
X5068Y4562D02*
X5143D01*
X5028Y4467D02*
X5023D01*
X5018D01*
X4973D01*
X4968Y4472D02*
X4903D01*
X4468Y4477D02*
X4398D01*
X4408Y4512D02*
X4433D01*
X4463D01*
X4473Y4552D02*
X4533D01*
X4598D02*
X4708D01*
X4723Y4522D02*
X4663D01*
Y4417D02*
X4643D01*
X4663Y4472D02*
X4583D01*
X4603Y4422D02*
X4663D01*
X4838D02*
X4893D01*
X5273D02*
X5328D01*
X5158D02*
X5103D01*
X5298Y4472D02*
X5328D01*
X4938D02*
X4888D01*
X5328D02*
X5393D01*
X5398Y4467D02*
X5468D01*
X5433D02*
X5518D01*
X5538D01*
X5513Y4517D02*
X5433D01*
X4623Y4717D02*
Y4732D01*
X4673D02*
Y4717D01*
X4678Y4722D02*
Y4737D01*
X4628D02*
Y4722D01*
X4573Y4682D02*
Y4637D01*
X4623Y4642D02*
Y4687D01*
X4673Y4682D02*
Y4632D01*
X4563Y6662D02*
Y6712D01*
X4668Y6702D02*
Y6647D01*
X4623Y5002D02*
Y4932D01*
X4673Y4962D02*
Y5007D01*
X4523D02*
Y5102D01*
X4573Y5007D02*
Y4952D01*
X4523Y4742D02*
Y4727D01*
Y4632D01*
X4568Y4182D02*
Y4117D01*
X4603Y4217D02*
Y4277D01*
X4658Y4092D02*
Y4022D01*
X4673Y4107D02*
Y4142D01*
X4558Y3952D02*
Y3757D01*
X4663Y3927D02*
Y3987D01*
X4508Y3757D02*
Y3707D01*
X4533Y3722D02*
Y3657D01*
X4593Y3842D02*
Y3907D01*
X4508Y3602D02*
Y3527D01*
X4603Y3757D02*
Y3827D01*
X4533Y3722D02*
Y3707D01*
Y3717D02*
Y3847D01*
X4608Y3532D02*
Y3452D01*
X4658Y3412D02*
Y3537D01*
X4558Y3707D02*
Y3782D01*
X4658Y3757D02*
Y3677D01*
X4553Y3372D02*
Y3327D01*
X4608D02*
Y3282D01*
Y3277D02*
Y3327D01*
X4658Y3547D02*
Y3592D01*
Y3417D02*
Y3377D01*
X4643Y2882D02*
Y2857D01*
X4668Y2882D02*
Y2977D01*
X4658Y2987D02*
Y3047D01*
X4643Y2962D02*
Y2857D01*
X4608Y2997D02*
Y3002D01*
Y3042D01*
X4593Y2807D02*
Y2722D01*
X4553Y4382D02*
Y4442D01*
X4663Y4472D02*
Y4527D01*
X4593Y4412D02*
Y4352D01*
X4658Y3272D02*
Y3222D01*
X4673Y4297D02*
Y4337D01*
X4663Y4347D02*
Y4372D01*
X4528Y6557D02*
Y6602D01*
X4598Y6527D02*
Y6492D01*
X4663D02*
Y6442D01*
X4678Y4722D02*
X4673Y4717D01*
X4583Y4692D02*
X4573Y4682D01*
X4598Y4692D02*
X4628Y4722D01*
Y4692D02*
X4623Y4687D01*
X4648Y4692D02*
X4673Y4717D01*
X4683Y4692D02*
X4673Y4682D01*
X4603Y6602D02*
X4663Y6662D01*
X4643Y7207D02*
X4723Y7287D01*
X4678Y7312D02*
X4623Y7257D01*
X4573Y4952D02*
X4563Y4942D01*
X4548Y4767D02*
X4523Y4742D01*
X4598Y4552D02*
X4563Y4517D01*
X4598Y4212D02*
X4568Y4182D01*
X4658Y4092D02*
X4673Y4107D01*
X4628Y3982D02*
X4598Y3952D01*
X4508Y3707D02*
X4493Y3692D01*
X4533Y3657D02*
X4508Y3632D01*
X4643Y2857D02*
X4593Y2807D01*
X4553Y4442D02*
X4583Y4472D01*
X4603Y4422D02*
X4593Y4412D01*
Y4352D02*
X4563Y4322D01*
X4598Y6527D02*
X4608Y6537D01*
X4668Y6702D02*
X4623Y6747D01*
Y4932D02*
X4668Y4887D01*
X4693Y4942D02*
X4673Y4962D01*
X4533Y4552D02*
X4563Y4522D01*
X4568Y4117D02*
X4593Y4092D01*
X4603Y4277D02*
X4563Y4317D01*
X4533Y3977D02*
X4558Y3952D01*
Y3707D02*
X4643Y3622D01*
X4658Y2987D02*
X4668Y2977D01*
X4643Y2962D02*
X4608Y2997D01*
X4668Y3212D02*
X4658Y3222D01*
X4673Y4337D02*
X4663Y4347D01*
X4598Y4692D02*
X4583D01*
X4628D02*
X4648D01*
X4683D02*
X4698D01*
X5533Y4652D02*
X5583D01*
X5053Y4707D02*
X4858D01*
X4893Y4732D02*
X4968D01*
X4988Y4752D02*
X5048D01*
X4798Y4767D02*
X4548D01*
X5193Y4682D02*
X5368D01*
X5173Y4662D02*
X4918D01*
X4898Y4682D02*
X4848D01*
X5238Y4657D02*
X5408D01*
X5103Y4707D02*
X5053D01*
X5098D02*
X4908D01*
X4783Y4767D02*
X4548D01*
X5283Y4607D02*
X5328D01*
X4888D02*
X4843D01*
X5498Y4617D02*
X5573D01*
X4843Y4687D02*
X4758D01*
X4848Y4682D02*
X4888D01*
X4878Y4657D02*
X4828D01*
X4803Y4632D02*
X4778D01*
X4758Y3767D02*
Y3682D01*
X4708D02*
Y3772D01*
X4833Y5907D02*
Y5982D01*
X4813Y5887D02*
Y5847D01*
X4708Y6632D02*
Y6667D01*
X4723Y4637D02*
Y4567D01*
X4748Y4547D02*
Y4652D01*
X4868Y3827D02*
Y3747D01*
Y3702D01*
X4738Y3927D02*
Y3987D01*
X4788Y3602D02*
Y3522D01*
X4763Y3447D02*
Y3377D01*
X4798Y3352D02*
Y3332D01*
Y3342D01*
X4788Y3422D02*
Y3527D01*
X4798Y3412D02*
Y3342D01*
X4763Y3372D02*
Y3417D01*
X4758Y3532D02*
Y3592D01*
X4708Y3122D02*
Y3047D01*
Y2952D01*
X4833Y3907D02*
Y3977D01*
Y3907D02*
Y3862D01*
X4843Y3527D02*
Y3472D01*
Y3677D02*
Y3757D01*
X4818Y3652D02*
Y3592D01*
X4843Y3552D02*
Y3487D01*
X4818Y3437D02*
Y3327D01*
Y3437D02*
Y3602D01*
X4798Y3362D02*
Y3247D01*
X4763Y3322D02*
Y3377D01*
X4828Y4307D02*
Y4412D01*
X4748Y4582D02*
Y4647D01*
Y4637D02*
Y4677D01*
X4723Y5007D02*
Y5102D01*
X4708Y6567D02*
Y6587D01*
X4843Y3582D02*
Y3527D01*
X4698Y4692D02*
X4723Y4717D01*
X4813Y5887D02*
X4833Y5907D01*
X4708Y6587D02*
X4738Y6617D01*
X4708Y6667D02*
X4713Y6672D01*
X4708Y6632D02*
X4693Y6617D01*
X4723Y4567D02*
X4708Y4552D01*
X4723Y4522D02*
X4748Y4547D01*
X4893Y3632D02*
X4843Y3582D01*
X4818Y3652D02*
X4843Y3677D01*
X4798Y3247D02*
X4763Y3212D01*
X4828Y4412D02*
X4838Y4422D01*
X4748Y4677D02*
X4758Y4687D01*
X4803Y4632D02*
X4828Y4657D01*
X4698Y6557D02*
X4708Y6567D01*
Y6587D02*
X4748Y6627D01*
X4738Y6567D02*
X4708Y6537D01*
X4723Y6522D02*
X4693Y6492D01*
X4798Y4767D02*
X4858Y4707D01*
X4873Y4932D02*
X4863Y4942D01*
X4868Y3702D02*
X4878Y3692D01*
X4728Y3997D02*
X4703Y4022D01*
X4708Y3452D02*
X4723Y3437D01*
X4788Y3602D02*
X4768Y3622D01*
X4733Y3477D02*
X4763Y3447D01*
X4733Y3477D02*
X4708Y3502D01*
X4788Y3422D02*
X4798Y3412D01*
X4868Y3827D02*
X4833Y3862D01*
X4843Y3472D02*
X4863Y3452D01*
X4868Y4267D02*
X4828Y4307D01*
X4868Y4067D02*
X4888Y4047D01*
X4848Y4682D02*
X4843Y4687D01*
X4848Y4987D02*
X4828Y5007D01*
X4903Y6822D02*
X4853Y6872D01*
X5408Y4847D02*
X5483D01*
X5553Y4917D02*
X5558D01*
X5583D01*
Y4872D02*
X5538D01*
X5493Y4827D02*
X5473D01*
X5403D01*
X5523Y4822D02*
X5583D01*
X5508Y4807D02*
X5403D01*
X5433Y4847D02*
X5233D01*
X5263Y4827D02*
X5433D01*
X5443Y4807D02*
X5298D01*
X5418Y4872D02*
X5128D01*
X4683Y4887D02*
X4668D01*
X4673D02*
X4738D01*
X4963Y4827D02*
X5048D01*
Y4957D02*
X5013D01*
X4988Y4932D02*
X4873D01*
X4863Y4942D02*
X4708D01*
X4693D01*
X4563D02*
X4423D01*
X5198Y4907D02*
X5278D01*
X4923Y4987D02*
X4848D01*
X4913Y2682D02*
Y2652D01*
X4928Y2637D02*
Y2572D01*
X5018Y7312D02*
Y7437D01*
X4913Y7432D02*
Y7342D01*
X5048Y4897D02*
Y4827D01*
Y4542D02*
Y4487D01*
X5038Y4602D02*
Y4622D01*
X4893Y3902D02*
Y3762D01*
Y3757D02*
Y3837D01*
X4913Y3197D02*
Y3122D01*
Y2832D02*
Y2807D01*
Y2797D01*
Y2757D02*
Y2847D01*
X5003Y4117D02*
Y4182D01*
X5038Y4217D02*
Y4277D01*
X4993Y3952D02*
Y3757D01*
X4943D02*
Y3707D01*
X4968Y3722D02*
Y3657D01*
X5028Y3842D02*
Y3907D01*
X4943Y3602D02*
Y3527D01*
X5038Y3757D02*
Y3827D01*
X4968Y3722D02*
Y3707D01*
Y3717D02*
Y3847D01*
X5043Y3532D02*
Y3452D01*
X4993Y3707D02*
Y3782D01*
X4988Y3372D02*
Y3327D01*
X5043D02*
Y3282D01*
Y3277D02*
Y3327D01*
Y3002D02*
Y2997D01*
Y3002D02*
Y3042D01*
X5028Y2807D02*
Y2722D01*
X4888Y4422D02*
Y4477D01*
X4998Y4522D02*
Y4567D01*
X4888Y4607D02*
Y4522D01*
Y4607D02*
Y4647D01*
X4968Y5532D02*
Y5602D01*
X5038D02*
Y5657D01*
X5043Y5602D02*
Y5547D01*
X4993Y7287D02*
X5003Y7297D01*
X5018Y7312D01*
X4913Y7342D02*
X4883Y7312D01*
X4988Y4752D02*
X4968Y4732D01*
X4923Y4787D02*
X4963Y4827D01*
X5068Y4562D02*
X5058Y4552D01*
X5048Y4542D01*
Y4487D02*
X5028Y4467D01*
X4998Y4562D02*
X5038Y4602D01*
X4988Y4932D02*
X5013Y4957D01*
X5033Y4212D02*
X5003Y4182D01*
X5063Y3982D02*
X5033Y3952D01*
X4943Y3707D02*
X4928Y3692D01*
X4968Y3657D02*
X4943Y3632D01*
X5078Y2857D02*
X5028Y2807D01*
X4883Y6722D02*
X4888Y6727D01*
X4913Y2652D02*
X4928Y2637D01*
X4918Y4662D02*
X4898Y4682D01*
X4968Y4472D02*
X4973Y4467D01*
X5003Y4117D02*
X5028Y4092D01*
X5038Y4277D02*
X4998Y4317D01*
X4968Y3977D02*
X4993Y3952D01*
Y3707D02*
X5078Y3622D01*
X5043Y2997D02*
X5078Y2962D01*
X4903Y4047D02*
X4888Y4062D01*
X4998Y4317D02*
X4943Y4372D01*
X4998Y4567D02*
X4958Y4607D01*
X4888Y4647D02*
X4878Y4657D01*
X4838Y5097D02*
X4793D01*
X5238Y5057D02*
X5288D01*
X5168D02*
X5118D01*
X4723Y5097D02*
X4673D01*
X4773Y5007D02*
X4828D01*
X5183Y4812D02*
Y4742D01*
Y4767D02*
Y4797D01*
X5233D02*
Y4767D01*
X5193Y3752D02*
Y3682D01*
X5143D02*
Y3752D01*
X5188Y7347D02*
Y7437D01*
X5243D02*
Y7357D01*
X5113Y4857D02*
Y4827D01*
X5118Y4752D02*
Y4722D01*
X5253Y3602D02*
Y3437D01*
Y3327D01*
Y3592D02*
Y3652D01*
X5093Y4022D02*
Y4092D01*
X5108Y4107D02*
Y4142D01*
X5098Y3987D02*
Y3927D01*
X5093Y3537D02*
Y3412D01*
Y3677D02*
Y3757D01*
Y3592D02*
Y3547D01*
Y3417D02*
Y3377D01*
X5103Y2977D02*
Y2882D01*
X5093Y2987D02*
Y3047D01*
X5173Y3927D02*
Y3987D01*
X5223Y3602D02*
Y3522D01*
X5198Y3447D02*
Y3377D01*
X5233Y3352D02*
Y3332D01*
Y3342D01*
X5223Y3422D02*
Y3527D01*
X5233Y3412D02*
Y3342D01*
X5198Y3372D02*
Y3417D01*
X5193Y3532D02*
Y3592D01*
X5143Y3122D02*
Y3047D01*
X5153Y2882D02*
Y2782D01*
X5143Y2952D02*
Y3047D01*
X5078Y2882D02*
Y2857D01*
Y2962D01*
X5093Y3217D02*
Y3272D01*
X5233Y3227D02*
Y3362D01*
X5198Y3382D02*
Y3322D01*
X5103Y4297D02*
Y4332D01*
Y4372D01*
X5263Y4332D02*
Y4412D01*
Y4347D02*
Y4307D01*
X5103Y4422D02*
Y4472D01*
X5173Y4407D02*
Y4302D01*
X5238Y4967D02*
Y5057D01*
X5183Y5017D02*
Y4967D01*
X5173Y5027D02*
Y5062D01*
X5183Y4967D02*
Y4922D01*
X5263Y6757D02*
Y6827D01*
X5238Y6242D02*
Y6197D01*
X5233Y4847D02*
X5183Y4797D01*
X5233D02*
X5263Y4827D01*
X5128Y4872D02*
X5113Y4857D01*
X5193Y4682D02*
X5173Y4662D01*
X5238Y4657D02*
X5143Y4562D01*
X5103Y4707D02*
X5118Y4722D01*
X5278Y3677D02*
X5253Y3652D01*
X5093Y4092D02*
X5108Y4107D01*
X5233Y3227D02*
X5213Y3207D01*
X5263Y4412D02*
X5273Y4422D01*
X5173Y6727D02*
X5193Y6747D01*
X5253D02*
X5263Y6757D01*
X5238Y6197D02*
X5178Y6137D01*
X5223Y7312D02*
X5188Y7347D01*
X5243Y7357D02*
X5253Y7347D01*
X5093Y2987D02*
X5103Y2977D01*
X5163Y3997D02*
X5138Y4022D01*
X5143Y3452D02*
X5158Y3437D01*
X5223Y3602D02*
X5203Y3622D01*
X5168Y3477D02*
X5198Y3447D01*
X5168Y3477D02*
X5143Y3502D01*
X5223Y3422D02*
X5233Y3412D01*
X5093Y3217D02*
X5103Y3207D01*
X5303Y4267D02*
X5263Y4307D01*
X5173Y4407D02*
X5158Y4422D01*
X5248Y4522D02*
X5273Y4497D01*
X5183Y5017D02*
X5173Y5027D01*
X5183Y4922D02*
X5198Y4907D01*
Y6467D02*
X5143Y6522D01*
X5198Y5932D02*
X5228Y5902D01*
X5348Y2692D02*
Y2657D01*
X5323Y2632D02*
Y2572D01*
X5283Y4762D02*
Y4792D01*
X5433Y4887D02*
Y4977D01*
Y4722D02*
Y4682D01*
X5438Y4182D02*
Y4117D01*
X5423Y3372D02*
Y3327D01*
X5428Y3707D02*
Y3782D01*
X5403Y3717D02*
Y3847D01*
Y3722D02*
Y3707D01*
Y3722D02*
Y3657D01*
X5428Y3757D02*
Y3952D01*
X5378Y3602D02*
Y3527D01*
Y3707D02*
Y3757D01*
X5348Y2847D02*
Y2757D01*
Y2797D02*
Y2807D01*
Y2832D01*
Y3122D02*
Y3197D01*
X5278Y3487D02*
Y3552D01*
X5328Y3757D02*
Y3837D01*
X5278Y3757D02*
Y3677D01*
Y3527D02*
Y3472D01*
X5328Y3762D02*
Y3902D01*
X5303Y3747D02*
Y3702D01*
Y3747D02*
Y3827D01*
X5268Y3862D02*
Y3907D01*
Y3977D01*
X5328Y4527D02*
Y4607D01*
X5433Y4572D02*
Y4517D01*
X5328Y4477D02*
Y4422D01*
X5383Y4697D02*
Y4742D01*
X5433Y4737D02*
Y4682D01*
X5283Y4912D02*
Y4972D01*
X5278Y3582D02*
Y3527D01*
X5348Y2657D02*
X5323Y2632D01*
X5283Y4792D02*
X5298Y4807D01*
X5418Y4872D02*
X5433Y4887D01*
Y4682D02*
X5428Y4677D01*
X5408Y4657D01*
X5468Y4212D02*
X5438Y4182D01*
X5403Y3657D02*
X5378Y3632D01*
X5363Y3692D02*
X5378Y3707D01*
X5328Y3632D02*
X5278Y3582D01*
X5368Y4682D02*
X5383Y4697D01*
X5408Y4657D02*
X5433Y4682D01*
X5278Y4907D02*
X5283Y4912D01*
X5418Y7262D02*
X5368Y7312D01*
X5398Y7347D02*
X5488Y7257D01*
X5433Y4317D02*
X5473Y4277D01*
X5438Y4117D02*
X5463Y4092D01*
X5428Y3707D02*
X5513Y3622D01*
X5428Y3952D02*
X5403Y3977D01*
X5278Y3472D02*
X5298Y3452D01*
X5313Y3692D02*
X5303Y3702D01*
Y3827D02*
X5268Y3862D01*
X5343Y4052D02*
X5328Y4067D01*
X5433Y4572D02*
X5398Y4607D01*
X5378Y4372D02*
X5433Y4317D01*
X5298Y4472D02*
X5273Y4497D01*
X5393Y4472D02*
X5398Y4467D01*
X5193Y5552D02*
X5103D01*
Y5457D02*
X5173D01*
X5118Y5472D02*
X5058D01*
X4973Y5452D02*
X4888D01*
X5628Y3762D02*
Y3682D01*
X5578D02*
Y3762D01*
X5628Y3592D02*
Y3532D01*
X5633Y3417D02*
Y3372D01*
Y3377D02*
Y3447D01*
X5578Y3047D02*
Y2952D01*
Y3047D02*
Y3122D01*
X5608Y3927D02*
Y3987D01*
X5478Y3042D02*
Y3002D01*
Y2997D01*
X5513Y2962D02*
Y2857D01*
X5528Y2987D02*
Y3047D01*
X5538Y2977D02*
Y2882D01*
X5513D02*
Y2857D01*
X5528Y3377D02*
Y3417D01*
Y3547D02*
Y3592D01*
X5478Y3327D02*
Y3277D01*
Y3282D02*
Y3327D01*
X5528Y3677D02*
Y3757D01*
Y3537D02*
Y3412D01*
X5478Y3452D02*
Y3532D01*
X5473Y3757D02*
Y3827D01*
X5533Y3927D02*
Y3987D01*
X5543Y4107D02*
Y4142D01*
X5528Y4092D02*
Y4022D01*
X5473Y4217D02*
Y4277D01*
X5463Y2807D02*
Y2722D01*
Y3842D02*
Y3907D01*
X5528Y3272D02*
Y3222D01*
X5633Y3322D02*
Y3377D01*
X5533Y4652D02*
Y4742D01*
X5578Y4597D02*
Y4507D01*
Y4597D02*
Y4612D01*
X5483Y4632D02*
Y4737D01*
X5533Y4582D02*
Y4537D01*
X5483Y4847D02*
X5553Y4917D01*
X5538Y4872D02*
X5493Y4827D01*
X5508Y4807D02*
X5523Y4822D01*
X5543Y4107D02*
X5528Y4092D01*
X5513Y2857D02*
X5463Y2807D01*
X5468Y3952D02*
X5498Y3982D01*
X5668Y3242D02*
X5633Y3207D01*
X5538Y4467D02*
X5578Y4507D01*
X5533Y4537D02*
X5513Y4517D01*
X5638Y3622D02*
X5658Y3602D01*
X5578Y3502D02*
X5603Y3477D01*
X5633Y3447D01*
X5593Y3437D02*
X5578Y3452D01*
X5598Y3997D02*
X5573Y4022D01*
X5478Y2997D02*
X5513Y2962D01*
X5528Y2987D02*
X5538Y2977D01*
X5543Y3207D02*
X5528Y3222D01*
X5578Y4612D02*
X5573Y4617D01*
X5498D02*
X5483Y4632D01*
X4968Y5602D02*
X4888D01*
X5668Y3412D02*
Y3342D01*
Y3332D01*
Y3352D01*
X5658Y3422D02*
Y3527D01*
Y3522D02*
Y3602D01*
X5668Y3357D02*
Y3267D01*
Y3287D02*
Y3242D01*
Y3412D02*
X5658Y3422D01*
X4863Y5847D02*
X4813D01*
X5148Y5932D02*
X5198D01*
X4833Y5982D02*
X4803D01*
X4773D02*
X4833D01*
X5148Y6032D02*
X5263D01*
X5268Y6087D02*
X5148D01*
X5198Y6467D02*
X5258D01*
X4698Y6557D02*
X4553D01*
X4528D01*
X4623Y6537D02*
X4708D01*
X4623D02*
X4608D01*
X4663Y6492D02*
X4693D01*
X4723Y6522D02*
X4768D01*
X4683Y6642D02*
X4643D01*
X4663Y6662D02*
X4668D01*
X4713Y6672D02*
X4753D01*
X4693Y6617D02*
X4673D01*
X4743Y6622D02*
X4768D01*
X4598Y6662D02*
X4528D01*
X4563D01*
X5143Y6677D02*
X5268D01*
X5253Y6747D02*
X5193D01*
X5143Y6622D02*
X5268D01*
X4868Y6722D02*
X4768D01*
X4833D02*
X4883D01*
X4888Y6727D02*
X4933D01*
X4858Y6822D02*
X4768D01*
X4763Y6772D02*
X4863D01*
X4853Y6872D02*
X4778D01*
X4783Y6772D02*
X4933D01*
X4643Y7207D02*
X4508D01*
X4723Y7287D02*
X4993D01*
X4883Y7312D02*
X4693D01*
X5223D02*
X5238D01*
X5368D01*
X5488Y7257D02*
X5563D01*
X4793Y7312D02*
X4678D01*
X5383Y7347D02*
X5398D01*
X5383D02*
X5253D01*
D21*
X5593Y6597D02*
X5558Y6562D01*
X5528D01*
X5473D01*
D22*
X4768Y5747D02*
X4743Y5722D01*
X4693Y5152D02*
X4673Y5132D01*
X5348Y7007D02*
X5413Y7072D01*
X5613Y6102D02*
X5583Y6072D01*
X5558Y6562D02*
X5593Y6597D01*
X5413Y6687D02*
X5398Y6672D01*
X5073Y5982D02*
X5058Y5967D01*
X4998Y6157D02*
X5023Y6182D01*
X5088Y6327D02*
X5138Y6377D01*
X4783Y6477D02*
X4733Y6427D01*
X4933Y6477D02*
X5023Y6567D01*
Y6747D02*
X5048Y6772D01*
X5263Y5312D02*
X5238Y5287D01*
X5233Y5282D02*
X5243Y5292D01*
X4973Y5412D02*
X4923Y5362D01*
X4883Y5732D02*
X4868Y5747D01*
X5233Y5152D02*
X5263Y5122D01*
X5258Y5127D02*
X5288Y5097D01*
X4448Y5847D02*
X4423Y5872D01*
X5528Y6387D02*
X5613Y6302D01*
X5538Y5857D02*
X5568Y5827D01*
X5503Y6247D02*
X5398Y6352D01*
X5598Y6652D02*
X5563Y6687D01*
X5128Y6437D02*
X5073Y6492D01*
X4783Y6327D02*
X4743Y6367D01*
X4883Y6327D02*
X5028Y6182D01*
X5468Y5822D02*
X5513Y5777D01*
X4423Y5872D02*
Y6007D01*
Y5947D02*
Y6442D01*
X4673Y5132D02*
Y5097D01*
X4658Y6442D02*
Y6487D01*
X4743Y5722D02*
Y5677D01*
Y5692D02*
Y5632D01*
Y5842D02*
Y5927D01*
Y5692D02*
Y5502D01*
X4718Y2882D02*
Y2839D01*
X4998Y5732D02*
Y5792D01*
X5008Y5282D02*
Y5152D01*
X5058Y5862D02*
Y5967D01*
Y5862D02*
Y5692D01*
X4998Y5752D02*
Y6157D01*
X5023Y6567D02*
Y6747D01*
X4973Y5452D02*
Y5412D01*
X4923Y5362D02*
Y5287D01*
X5008Y5152D02*
X5068D01*
X5098D02*
X5233D01*
X5143D02*
X4693D01*
X5133Y5602D02*
Y5692D01*
X5073Y6492D02*
Y6572D01*
X5263Y5552D02*
Y5312D01*
X5154Y2885D02*
Y2791D01*
X5083Y5282D02*
X5228D01*
X5233D01*
X5458Y5277D02*
X5528D01*
X5008Y5282D02*
X4918D01*
X4648D02*
X4563D01*
X5288Y5097D02*
Y5057D01*
X5413Y7072D02*
Y7257D01*
X5398Y6602D02*
Y6352D01*
X5413Y6687D02*
Y6742D01*
X5398Y6672D02*
Y6602D01*
X5428Y5552D02*
X5198D01*
X5263D02*
X5428D01*
X4973Y5452D02*
X4888D01*
X4898Y5502D02*
X4663D01*
X5528Y6387D02*
Y6457D01*
X5613Y6302D02*
Y6102D01*
X5538Y6072D02*
Y5987D01*
X5468Y5917D02*
Y5822D01*
X5538Y5857D02*
Y5867D01*
Y5917D01*
X5468D02*
Y6172D01*
X5478Y6452D02*
Y6562D01*
X5503Y6247D02*
Y6172D01*
X5563Y6687D02*
Y6747D01*
X5598Y6652D02*
Y6597D01*
X5588Y2881D02*
Y2837D01*
X4888Y5677D02*
X4808D01*
X4883Y5732D02*
X4998D01*
X4868Y5747D02*
X4768D01*
X5058Y5692D02*
X5133D01*
Y5602D02*
X5198D01*
X5203Y5692D02*
X5253D01*
X4743Y5847D02*
X4448D01*
X4928Y5792D02*
X4998D01*
X5058D02*
X5113D01*
X5538Y5992D02*
X5588D01*
X5583Y6072D02*
X5538D01*
X5148Y5982D02*
X5073D01*
X5023Y6182D02*
X5138D01*
X4858Y6327D02*
X4783D01*
X4833D02*
X4883D01*
X4658Y6442D02*
X4423D01*
X5483Y6562D02*
X5558D01*
X5008Y6402D02*
X4863D01*
X4933Y6477D02*
X4783D01*
X4593Y6492D02*
X4543D01*
X5073Y6572D02*
X5143D01*
Y6772D02*
X5048D01*
X5198Y7007D02*
X5348D01*
X5308D02*
X5073D01*
D23*
X4558Y3047D02*
D03*
X4993D02*
D03*
X5428D02*
D03*
X4408Y3532D02*
D03*
X4843D02*
D03*
X5278D02*
D03*
X5533Y4967D02*
D03*
X4773Y5007D02*
D03*
D25*
X5583Y4432D02*
D03*
Y4387D02*
D03*
Y4342D02*
D03*
X5628Y3682D02*
D03*
X5578D02*
D03*
X5528D02*
D03*
X5588Y2837D02*
D03*
X5593Y3437D02*
D03*
X5633Y3322D02*
D03*
X5583Y4822D02*
D03*
Y4872D02*
D03*
Y4917D02*
D03*
Y4652D02*
D03*
X5483Y5412D02*
D03*
X5528Y5277D02*
D03*
X5578Y5127D02*
D03*
X5483Y5607D02*
D03*
Y5657D02*
D03*
X5588Y5992D02*
D03*
X5513Y5777D02*
D03*
X5293Y3122D02*
D03*
X5378Y3602D02*
D03*
X5348Y3327D02*
D03*
X5353Y3397D02*
D03*
X5423Y5032D02*
D03*
X5393Y5062D02*
D03*
X5293Y5447D02*
D03*
X5283Y4607D02*
D03*
X5288Y5057D02*
D03*
X5368Y6912D02*
D03*
X5348Y6512D02*
D03*
X5338Y5707D02*
D03*
Y5757D02*
D03*
Y5807D02*
D03*
X5343Y5997D02*
D03*
X5308Y5952D02*
D03*
X5346Y6050D02*
D03*
X5143Y3682D02*
D03*
X5193D02*
D03*
X5093D02*
D03*
X5158Y3437D02*
D03*
X5153Y2837D02*
D03*
X5198Y3322D02*
D03*
X5143Y4692D02*
D03*
X5163Y5407D02*
D03*
X5223Y4297D02*
D03*
X5118Y5057D02*
D03*
Y5412D02*
D03*
X5253Y5692D02*
D03*
X5088Y6327D02*
D03*
X5093Y5602D02*
D03*
Y5647D02*
D03*
X4918Y3397D02*
D03*
X4913Y3327D02*
D03*
X4943Y3602D02*
D03*
X5058Y4297D02*
D03*
X4888Y5677D02*
D03*
X4968Y5657D02*
D03*
X4938Y6402D02*
D03*
X5038Y5657D02*
D03*
X4958Y5862D02*
D03*
X4913D02*
D03*
X4903Y6822D02*
D03*
X4933Y6772D02*
D03*
Y6727D02*
D03*
X4863Y3122D02*
D03*
X4708Y3682D02*
D03*
X4758D02*
D03*
X4723Y3437D02*
D03*
X4718Y2837D02*
D03*
X4763Y3322D02*
D03*
X4728Y4722D02*
D03*
X4793Y4302D02*
D03*
X4843Y4607D02*
D03*
X4838Y5097D02*
D03*
X4868Y5907D02*
D03*
Y5957D02*
D03*
X4848Y6007D02*
D03*
Y6057D02*
D03*
Y6107D02*
D03*
X4843Y6257D02*
D03*
X4863Y5847D02*
D03*
X4853Y6822D02*
D03*
X4658Y3682D02*
D03*
X4508Y3602D02*
D03*
X4628Y4737D02*
D03*
X4678D02*
D03*
X4628Y4302D02*
D03*
X4673Y5097D02*
D03*
X4563Y5282D02*
D03*
X4593Y5102D02*
D03*
X4563Y6712D02*
D03*
X4543Y6492D02*
D03*
X4658Y6442D02*
D03*
X4548Y5687D02*
D03*
X4423Y3122D02*
D03*
X4483Y3397D02*
D03*
X4478Y3327D02*
D03*
X4458Y4352D02*
D03*
D32*
X4970Y7082D02*
D03*
X5070D02*
D03*
Y7004D02*
D03*
X4970D02*
D03*
D34*
X4473Y4412D02*
D03*
X5573Y5822D02*
D03*
X5468D02*
D03*
X5093Y5282D02*
D03*
X5113Y5792D02*
D03*
X5008Y5282D02*
D03*
X4938Y5792D02*
D03*
X5598Y6597D02*
D03*
X4721Y2572D02*
D03*
X4521D02*
D03*
X4926D02*
D03*
X5126D02*
D03*
X5522D02*
D03*
X5322D02*
D03*
X4593Y2722D02*
D03*
Y2922D02*
D03*
X5028D02*
D03*
Y2722D02*
D03*
X5463D02*
D03*
Y2922D02*
D03*
X4923Y4787D02*
D03*
Y4987D02*
D03*
X4433Y4267D02*
D03*
Y4067D02*
D03*
X4868D02*
D03*
Y4267D02*
D03*
X5303D02*
D03*
Y4067D02*
D03*
X5433Y4317D02*
D03*
Y4517D02*
D03*
X4998D02*
D03*
Y4317D02*
D03*
X4563D02*
D03*
Y4517D02*
D03*
X5413Y7259D02*
D03*
Y6747D02*
D03*
X5563Y7259D02*
D03*
Y6747D02*
D03*
X4473Y7259D02*
D03*
Y6747D02*
D03*
X4623Y7259D02*
D03*
Y6747D02*
D03*
X4543Y5782D02*
D03*
Y5582D02*
D03*
X5336Y7410D02*
D03*
X4706D02*
D03*
D36*
X4638Y5967D02*
D03*
X4538Y6067D02*
D03*
X4638Y6367D02*
D03*
X4538D02*
D03*
Y6267D02*
D03*
X4638D02*
D03*
Y6167D02*
D03*
X4538D02*
D03*
X4638Y6067D02*
D03*
D38*
X4888Y5452D02*
D03*
X4663Y4522D02*
D03*
X5103D02*
D03*
X5143Y6522D02*
D03*
X5148Y5932D02*
D03*
X5198Y5602D02*
D03*
D45*
X5258Y7189D02*
D03*
X4782D02*
D03*
D47*
X4528Y7411D02*
D03*
X5511D02*
D03*
D52*
X5241Y7438D02*
D03*
X5186D02*
D03*
X5131D02*
D03*
X5076D02*
D03*
X5021D02*
D03*
X4966D02*
D03*
X4911D02*
D03*
X4856D02*
D03*
X4801D02*
D03*
D53*
X4558Y3272D02*
D03*
X4608D02*
D03*
X4658D02*
D03*
X4708D02*
D03*
Y3047D02*
D03*
X4658D02*
D03*
X4608D02*
D03*
X5043D02*
D03*
X5093D02*
D03*
X5143D02*
D03*
Y3272D02*
D03*
X5093D02*
D03*
X5043D02*
D03*
X4993D02*
D03*
X5428D02*
D03*
X5478D02*
D03*
X5528D02*
D03*
X5578D02*
D03*
Y3047D02*
D03*
X5528D02*
D03*
X5478D02*
D03*
X4408Y3757D02*
D03*
X4458D02*
D03*
X4508D02*
D03*
X4558D02*
D03*
X4608D02*
D03*
X4658D02*
D03*
X4708D02*
D03*
X4758D02*
D03*
Y3532D02*
D03*
X4708D02*
D03*
X4658D02*
D03*
X4608D02*
D03*
X4558D02*
D03*
X4508D02*
D03*
X4458D02*
D03*
X4893D02*
D03*
X4943D02*
D03*
X4993D02*
D03*
X5043D02*
D03*
X5093D02*
D03*
X5143D02*
D03*
X5193D02*
D03*
Y3757D02*
D03*
X5143D02*
D03*
X5093D02*
D03*
X5043D02*
D03*
X4993D02*
D03*
X4943D02*
D03*
X4893D02*
D03*
X4843D02*
D03*
X5278D02*
D03*
X5328D02*
D03*
X5378D02*
D03*
X5428D02*
D03*
X5478D02*
D03*
X5528D02*
D03*
X5578D02*
D03*
X5628D02*
D03*
Y3532D02*
D03*
X5578D02*
D03*
X5528D02*
D03*
X5478D02*
D03*
X5428D02*
D03*
X5378D02*
D03*
X5328D02*
D03*
X5483Y4967D02*
D03*
X5433D02*
D03*
X5383D02*
D03*
X5333D02*
D03*
X5283D02*
D03*
X5233D02*
D03*
X5183D02*
D03*
Y4742D02*
D03*
X5233D02*
D03*
X5283D02*
D03*
X5333D02*
D03*
X5383D02*
D03*
X5433D02*
D03*
X5483D02*
D03*
X5533D02*
D03*
X4723Y5007D02*
D03*
X4673D02*
D03*
X4623D02*
D03*
X4573D02*
D03*
X4523D02*
D03*
X4473D02*
D03*
X4423D02*
D03*
Y4632D02*
D03*
X4473D02*
D03*
X4523D02*
D03*
X4573D02*
D03*
X4623D02*
D03*
X4673D02*
D03*
X4723D02*
D03*
X4773D02*
D03*
D59*
X4738Y3927D02*
D03*
X4663D02*
D03*
X4738Y3987D02*
D03*
X4663D02*
D03*
X5098Y3927D02*
D03*
X5173D02*
D03*
X5098Y3987D02*
D03*
X5173D02*
D03*
X5608Y3927D02*
D03*
X5533D02*
D03*
X5608Y3987D02*
D03*
X5533D02*
D03*
X4673Y4217D02*
D03*
Y4142D02*
D03*
X4603Y4217D02*
D03*
Y4142D02*
D03*
X5108D02*
D03*
Y4217D02*
D03*
X5038Y4142D02*
D03*
Y4217D02*
D03*
X5543D02*
D03*
Y4142D02*
D03*
X5473Y4217D02*
D03*
Y4142D02*
D03*
X5478Y6637D02*
D03*
Y6562D02*
D03*
D60*
X4700Y3847D02*
D03*
X4701Y4067D02*
D03*
X5135Y3847D02*
D03*
X5136Y4067D02*
D03*
X5570Y3847D02*
D03*
X5571Y4067D02*
D03*
D62*
X4763Y3372D02*
D03*
X4693D02*
D03*
X5633D02*
D03*
X5563D02*
D03*
X5538Y3452D02*
D03*
X5468D02*
D03*
X5033D02*
D03*
X5103D02*
D03*
X4668D02*
D03*
X4598D02*
D03*
X4473D02*
D03*
X4543D02*
D03*
X4978D02*
D03*
X4908D02*
D03*
X5343D02*
D03*
X5413D02*
D03*
X4553Y3372D02*
D03*
X4623D02*
D03*
X5058D02*
D03*
X4988D02*
D03*
X5423D02*
D03*
X5493D02*
D03*
X5128D02*
D03*
X5198D02*
D03*
X4398Y3907D02*
D03*
X4468D02*
D03*
X4593D02*
D03*
X4523D02*
D03*
Y3842D02*
D03*
X4593D02*
D03*
X4468Y3972D02*
D03*
X4398D02*
D03*
X4903Y3907D02*
D03*
X4833D02*
D03*
Y3972D02*
D03*
X4903D02*
D03*
X4958Y3907D02*
D03*
X5028D02*
D03*
Y3842D02*
D03*
X4958D02*
D03*
X5393D02*
D03*
X5463D02*
D03*
Y3907D02*
D03*
X5393D02*
D03*
X5268D02*
D03*
X5338D02*
D03*
Y3972D02*
D03*
X5268D02*
D03*
X4533Y5097D02*
D03*
X4463D02*
D03*
X5168Y5057D02*
D03*
X5238D02*
D03*
X4723Y5097D02*
D03*
X4793D02*
D03*
X4673Y4302D02*
D03*
X4743D02*
D03*
X5398Y4607D02*
D03*
X5328D02*
D03*
X5173Y4297D02*
D03*
X5103D02*
D03*
X4888Y4607D02*
D03*
X4958D02*
D03*
X5538Y5992D02*
D03*
X5468D02*
D03*
X5538Y6067D02*
D03*
X5468D02*
D03*
Y5917D02*
D03*
X5538D02*
D03*
X4458Y6597D02*
D03*
X4528D02*
D03*
X4667D02*
D03*
X4598D02*
D03*
X4527Y6662D02*
D03*
X4458D02*
D03*
X4668D02*
D03*
X4598D02*
D03*
X4593Y6492D02*
D03*
X4662D02*
D03*
X4812Y5847D02*
D03*
X4743D02*
D03*
X5203Y5692D02*
D03*
X5133D02*
D03*
X4812Y5677D02*
D03*
X4743D02*
D03*
X5037Y5602D02*
D03*
X4968D02*
D03*
D69*
X5153Y2717D02*
D03*
Y2787D02*
D03*
X4478Y2687D02*
D03*
Y2757D02*
D03*
X4913D02*
D03*
Y2687D02*
D03*
X5348D02*
D03*
Y2757D02*
D03*
X4478Y2917D02*
D03*
Y2847D02*
D03*
X4913D02*
D03*
Y2917D02*
D03*
X5348D02*
D03*
Y2847D02*
D03*
X4718Y2952D02*
D03*
Y2883D02*
D03*
X5153D02*
D03*
Y2952D02*
D03*
X5588D02*
D03*
Y2883D02*
D03*
X4478Y3052D02*
D03*
Y3122D02*
D03*
X4913D02*
D03*
Y3052D02*
D03*
X5348D02*
D03*
Y3122D02*
D03*
X4478Y3267D02*
D03*
Y3197D02*
D03*
X4913D02*
D03*
Y3267D02*
D03*
X5348D02*
D03*
Y3197D02*
D03*
X4423Y3327D02*
D03*
Y3397D02*
D03*
X4858D02*
D03*
Y3327D02*
D03*
X5293D02*
D03*
Y3397D02*
D03*
X5118Y5542D02*
D03*
Y5473D02*
D03*
X5048Y4962D02*
D03*
Y4893D02*
D03*
Y4753D02*
D03*
Y4822D02*
D03*
X4468Y4478D02*
D03*
Y4547D02*
D03*
X4403Y4478D02*
D03*
Y4547D02*
D03*
Y4353D02*
D03*
Y4422D02*
D03*
X5113Y4753D02*
D03*
Y4822D02*
D03*
X4533Y3978D02*
D03*
Y4047D02*
D03*
X4598Y4022D02*
D03*
Y4092D02*
D03*
X5033D02*
D03*
Y4022D02*
D03*
X4968Y4047D02*
D03*
Y3978D02*
D03*
X5403D02*
D03*
Y4047D02*
D03*
X5468Y4022D02*
D03*
Y4092D02*
D03*
X5048Y4697D02*
D03*
Y4628D02*
D03*
X5533Y4652D02*
D03*
Y4583D02*
D03*
X5053Y5542D02*
D03*
Y5472D02*
D03*
X4973Y5532D02*
D03*
Y5463D02*
D03*
D71*
X4753Y4179D02*
D03*
X4523Y4180D02*
D03*
X5188Y4179D02*
D03*
X4958Y4180D02*
D03*
X5623Y4179D02*
D03*
X5393Y4180D02*
D03*
X5398Y6600D02*
D03*
D77*
X4863Y6402D02*
D03*
X4728D02*
D03*
X5143D02*
D03*
X5008D02*
D03*
D83*
X4538Y5967D02*
D03*
D88*
X4888Y5502D02*
D03*
Y5552D02*
D03*
Y5602D02*
D03*
X4663D02*
D03*
Y5552D02*
D03*
Y5502D02*
D03*
Y5452D02*
D03*
Y4472D02*
D03*
Y4422D02*
D03*
Y4372D02*
D03*
X4888D02*
D03*
Y4422D02*
D03*
Y4472D02*
D03*
Y4522D02*
D03*
X5328D02*
D03*
Y4472D02*
D03*
Y4422D02*
D03*
Y4372D02*
D03*
X5103D02*
D03*
Y4422D02*
D03*
Y4472D02*
D03*
X4768Y6522D02*
D03*
Y6572D02*
D03*
Y6622D02*
D03*
Y6672D02*
D03*
Y6722D02*
D03*
Y6772D02*
D03*
Y6822D02*
D03*
Y6872D02*
D03*
X5143D02*
D03*
Y6822D02*
D03*
Y6772D02*
D03*
Y6722D02*
D03*
Y6672D02*
D03*
Y6622D02*
D03*
Y6572D02*
D03*
X5148Y5982D02*
D03*
Y6032D02*
D03*
Y6082D02*
D03*
Y6132D02*
D03*
Y6182D02*
D03*
Y6232D02*
D03*
Y6282D02*
D03*
X4773D02*
D03*
Y6232D02*
D03*
Y6182D02*
D03*
Y6132D02*
D03*
Y6082D02*
D03*
Y6032D02*
D03*
Y5982D02*
D03*
Y5932D02*
D03*
X5423Y5602D02*
D03*
Y5552D02*
D03*
Y5502D02*
D03*
Y5452D02*
D03*
X5198D02*
D03*
Y5502D02*
D03*
Y5552D02*
D03*
D89*
X4637Y5282D02*
D03*
X4920D02*
D03*
X5460D02*
D03*
X5177D02*
D03*
D97*
X5268Y6602D02*
D03*
Y6467D02*
D03*
Y6827D02*
D03*
Y6692D02*
D03*
Y6017D02*
D03*
Y5882D02*
D03*
Y6102D02*
D03*
Y6237D02*
D03*
D102*
X5503Y6455D02*
D03*
Y6171D02*
D03*
M02*
