*%FSLAX23Y23*%
*%MOIN*%
G01*
D11*
X4162Y5737D02*
X15879D01*
Y8532D02*
X4162D01*
Y5737D01*
X15879D02*
Y8532D01*
D22*
X13370Y7057D02*
D03*
X13341D02*
D03*
X13317Y7098D02*
D03*
X13284Y7099D02*
D03*
D60*
X8671Y6329D02*
D03*
X8571D02*
D03*
Y6251D02*
D03*
X8671D02*
D03*
D61*
X9269Y6592D02*
D03*
X9469D02*
D03*
X4270Y7185D02*
D03*
Y7585D02*
D03*
X4370Y6635D02*
D03*
X4270Y6685D02*
D03*
X4370Y6735D02*
D03*
X4270Y6785D02*
D03*
X4370Y6835D02*
D03*
X4270Y6885D02*
D03*
X4370Y6935D02*
D03*
X4270Y6985D02*
D03*
X4370Y7035D02*
D03*
X4270Y7085D02*
D03*
X4370Y7135D02*
D03*
Y7235D02*
D03*
X4270Y7285D02*
D03*
X4370Y7335D02*
D03*
X4270Y7385D02*
D03*
X4370Y7435D02*
D03*
X4270Y7485D02*
D03*
X4370Y7535D02*
D03*
D63*
X13127Y8432D02*
D03*
X12993D02*
D03*
X10320Y6459D02*
D03*
X10162D02*
D03*
X10241Y6345D02*
D03*
X10403Y6349D02*
D03*
X6194Y6583D02*
D03*
Y6723D02*
D03*
D66*
X11184Y6345D02*
D03*
X11284D02*
D03*
X11384D02*
D03*
X11484D02*
D03*
X11584D02*
D03*
X11684D02*
D03*
X9482Y5815D02*
D03*
X9382Y5915D02*
D03*
Y5815D02*
D03*
X9282D02*
D03*
Y5915D02*
D03*
X9182D02*
D03*
Y5815D02*
D03*
X9482Y5915D02*
D03*
X9582Y5815D02*
D03*
X6898Y7229D02*
D03*
X6898Y7012D02*
D03*
D70*
X13887Y7843D02*
X13888D01*
X13887D02*
X13888Y7828D01*
X13891Y7814D01*
X13897Y7800D01*
X13904Y7788D01*
X13913Y7776D01*
X13924Y7766D01*
X13936Y7758D01*
X13949Y7752D01*
X13963Y7747D01*
X13978Y7745D01*
X13992D01*
X14007Y7747D01*
X14021Y7752D01*
X14034Y7758D01*
X14046Y7766D01*
X14057Y7776D01*
X14066Y7788D01*
X14073Y7800D01*
X14079Y7814D01*
X14082Y7828D01*
X14083Y7843D01*
X14084D01*
X14083D02*
X14082Y7858D01*
X14079Y7872D01*
X14073Y7886D01*
X14066Y7898D01*
X14057Y7910D01*
X14046Y7920D01*
X14034Y7928D01*
X14021Y7934D01*
X14007Y7939D01*
X13992Y7941D01*
X13978D01*
X13963Y7939D01*
X13949Y7934D01*
X13936Y7928D01*
X13924Y7920D01*
X13913Y7910D01*
X13904Y7898D01*
X13897Y7886D01*
X13891Y7872D01*
X13888Y7858D01*
X13887Y7843D01*
X13964D02*
X13965D01*
X13964D02*
X13965Y7836D01*
X13969Y7829D01*
X13974Y7824D01*
X13981Y7822D01*
X13989D01*
X13996Y7824D01*
X14001Y7829D01*
X14005Y7836D01*
X14006Y7843D01*
X14007D01*
X14006D02*
X14005Y7850D01*
X14001Y7857D01*
X13996Y7862D01*
X13989Y7864D01*
X13981D01*
X13974Y7862D01*
X13969Y7857D01*
X13965Y7850D01*
X13964Y7843D01*
X13887Y6426D02*
X13888D01*
X13887D02*
X13888Y6411D01*
X13891Y6397D01*
X13897Y6383D01*
X13904Y6371D01*
X13913Y6359D01*
X13924Y6349D01*
X13936Y6341D01*
X13949Y6335D01*
X13963Y6330D01*
X13978Y6328D01*
X13992D01*
X14007Y6330D01*
X14021Y6335D01*
X14034Y6341D01*
X14046Y6349D01*
X14057Y6359D01*
X14066Y6371D01*
X14073Y6383D01*
X14079Y6397D01*
X14082Y6411D01*
X14083Y6426D01*
X14084D01*
X14083D02*
X14082Y6441D01*
X14079Y6455D01*
X14073Y6469D01*
X14066Y6481D01*
X14057Y6493D01*
X14046Y6503D01*
X14034Y6511D01*
X14021Y6517D01*
X14007Y6522D01*
X13992Y6524D01*
X13978D01*
X13963Y6522D01*
X13949Y6517D01*
X13936Y6511D01*
X13924Y6503D01*
X13913Y6493D01*
X13904Y6481D01*
X13897Y6469D01*
X13891Y6455D01*
X13888Y6441D01*
X13887Y6426D01*
X13964D02*
X13965D01*
X13964D02*
X13965Y6419D01*
X13969Y6412D01*
X13974Y6407D01*
X13981Y6405D01*
X13989D01*
X13996Y6407D01*
X14001Y6412D01*
X14005Y6419D01*
X14006Y6426D01*
X14007D01*
X14006D02*
X14005Y6433D01*
X14001Y6440D01*
X13996Y6445D01*
X13989Y6447D01*
X13981D01*
X13974Y6445D01*
X13969Y6440D01*
X13965Y6433D01*
X13964Y6426D01*
X9793Y7843D02*
X9794D01*
X9793D02*
X9794Y7828D01*
X9797Y7814D01*
X9803Y7800D01*
X9810Y7788D01*
X9819Y7776D01*
X9830Y7766D01*
X9842Y7758D01*
X9855Y7752D01*
X9869Y7747D01*
X9884Y7745D01*
X9898D01*
X9913Y7747D01*
X9927Y7752D01*
X9940Y7758D01*
X9952Y7766D01*
X9963Y7776D01*
X9972Y7788D01*
X9979Y7800D01*
X9985Y7814D01*
X9988Y7828D01*
X9989Y7843D01*
X9990D01*
X9989D02*
X9988Y7858D01*
X9985Y7872D01*
X9979Y7886D01*
X9972Y7898D01*
X9963Y7910D01*
X9952Y7920D01*
X9940Y7928D01*
X9927Y7934D01*
X9913Y7939D01*
X9898Y7941D01*
X9884D01*
X9869Y7939D01*
X9855Y7934D01*
X9842Y7928D01*
X9830Y7920D01*
X9819Y7910D01*
X9810Y7898D01*
X9803Y7886D01*
X9797Y7872D01*
X9794Y7858D01*
X9793Y7843D01*
X9870D02*
X9871D01*
X9870D02*
X9871Y7836D01*
X9875Y7829D01*
X9880Y7824D01*
X9887Y7822D01*
X9895D01*
X9902Y7824D01*
X9907Y7829D01*
X9911Y7836D01*
X9912Y7843D01*
X9913D01*
X9912D02*
X9911Y7850D01*
X9907Y7857D01*
X9902Y7862D01*
X9895Y7864D01*
X9887D01*
X9880Y7862D01*
X9875Y7857D01*
X9871Y7850D01*
X9870Y7843D01*
X9793Y6426D02*
X9794D01*
X9793D02*
X9794Y6411D01*
X9797Y6397D01*
X9803Y6383D01*
X9810Y6371D01*
X9819Y6359D01*
X9830Y6349D01*
X9842Y6341D01*
X9855Y6335D01*
X9869Y6330D01*
X9884Y6328D01*
X9898D01*
X9913Y6330D01*
X9927Y6335D01*
X9940Y6341D01*
X9952Y6349D01*
X9963Y6359D01*
X9972Y6371D01*
X9979Y6383D01*
X9985Y6397D01*
X9988Y6411D01*
X9989Y6426D01*
X9990D01*
X9989D02*
X9988Y6441D01*
X9985Y6455D01*
X9979Y6469D01*
X9972Y6481D01*
X9963Y6493D01*
X9952Y6503D01*
X9940Y6511D01*
X9927Y6517D01*
X9913Y6522D01*
X9898Y6524D01*
X9884D01*
X9869Y6522D01*
X9855Y6517D01*
X9842Y6511D01*
X9830Y6503D01*
X9819Y6493D01*
X9810Y6481D01*
X9803Y6469D01*
X9797Y6455D01*
X9794Y6441D01*
X9793Y6426D01*
X9870D02*
X9871D01*
X9870D02*
X9871Y6419D01*
X9875Y6412D01*
X9880Y6407D01*
X9887Y6405D01*
X9895D01*
X9902Y6407D01*
X9907Y6412D01*
X9911Y6419D01*
X9912Y6426D01*
X9913D01*
X9912D02*
X9911Y6433D01*
X9907Y6440D01*
X9902Y6445D01*
X9895Y6447D01*
X9887D01*
X9880Y6445D01*
X9875Y6440D01*
X9871Y6433D01*
X9870Y6426D01*
X7371Y7843D02*
X7372D01*
X7371D02*
X7372Y7828D01*
X7375Y7814D01*
X7381Y7800D01*
X7388Y7788D01*
X7397Y7776D01*
X7408Y7766D01*
X7420Y7758D01*
X7433Y7752D01*
X7447Y7747D01*
X7462Y7745D01*
X7476D01*
X7491Y7747D01*
X7505Y7752D01*
X7518Y7758D01*
X7530Y7766D01*
X7541Y7776D01*
X7550Y7788D01*
X7557Y7800D01*
X7563Y7814D01*
X7566Y7828D01*
X7567Y7843D01*
X7568D01*
X7567D02*
X7566Y7858D01*
X7563Y7872D01*
X7557Y7886D01*
X7550Y7898D01*
X7541Y7910D01*
X7530Y7920D01*
X7518Y7928D01*
X7505Y7934D01*
X7491Y7939D01*
X7476Y7941D01*
X7462D01*
X7447Y7939D01*
X7433Y7934D01*
X7420Y7928D01*
X7408Y7920D01*
X7397Y7910D01*
X7388Y7898D01*
X7381Y7886D01*
X7375Y7872D01*
X7372Y7858D01*
X7371Y7843D01*
X7448D02*
X7449D01*
X7448D02*
X7449Y7836D01*
X7453Y7829D01*
X7458Y7824D01*
X7465Y7822D01*
X7473D01*
X7480Y7824D01*
X7485Y7829D01*
X7489Y7836D01*
X7490Y7843D01*
X7491D01*
X7490D02*
X7489Y7850D01*
X7485Y7857D01*
X7480Y7862D01*
X7473Y7864D01*
X7465D01*
X7458Y7862D01*
X7453Y7857D01*
X7449Y7850D01*
X7448Y7843D01*
X7371Y6426D02*
X7372D01*
X7371D02*
X7372Y6411D01*
X7375Y6397D01*
X7381Y6383D01*
X7388Y6371D01*
X7397Y6359D01*
X7408Y6349D01*
X7420Y6341D01*
X7433Y6335D01*
X7447Y6330D01*
X7462Y6328D01*
X7476D01*
X7491Y6330D01*
X7505Y6335D01*
X7518Y6341D01*
X7530Y6349D01*
X7541Y6359D01*
X7550Y6371D01*
X7557Y6383D01*
X7563Y6397D01*
X7566Y6411D01*
X7567Y6426D01*
X7568D01*
X7567D02*
X7566Y6441D01*
X7563Y6455D01*
X7557Y6469D01*
X7550Y6481D01*
X7541Y6493D01*
X7530Y6503D01*
X7518Y6511D01*
X7505Y6517D01*
X7491Y6522D01*
X7476Y6524D01*
X7462D01*
X7447Y6522D01*
X7433Y6517D01*
X7420Y6511D01*
X7408Y6503D01*
X7397Y6493D01*
X7388Y6481D01*
X7381Y6469D01*
X7375Y6455D01*
X7372Y6441D01*
X7371Y6426D01*
X7448D02*
X7449D01*
X7448D02*
X7449Y6419D01*
X7453Y6412D01*
X7458Y6407D01*
X7465Y6405D01*
X7473D01*
X7480Y6407D01*
X7485Y6412D01*
X7489Y6419D01*
X7490Y6426D01*
X7491D01*
X7490D02*
X7489Y6433D01*
X7485Y6440D01*
X7480Y6445D01*
X7473Y6447D01*
X7465D01*
X7458Y6445D01*
X7453Y6440D01*
X7449Y6433D01*
X7448Y6426D01*
X4222Y7843D02*
X4223D01*
X4222D02*
X4223Y7828D01*
X4226Y7814D01*
X4232Y7800D01*
X4239Y7788D01*
X4248Y7776D01*
X4259Y7766D01*
X4271Y7758D01*
X4284Y7752D01*
X4298Y7747D01*
X4313Y7745D01*
X4327D01*
X4342Y7747D01*
X4356Y7752D01*
X4369Y7758D01*
X4381Y7766D01*
X4392Y7776D01*
X4401Y7788D01*
X4408Y7800D01*
X4414Y7814D01*
X4417Y7828D01*
X4418Y7843D01*
X4419D01*
X4418D02*
X4417Y7858D01*
X4414Y7872D01*
X4408Y7886D01*
X4401Y7898D01*
X4392Y7910D01*
X4381Y7920D01*
X4369Y7928D01*
X4356Y7934D01*
X4342Y7939D01*
X4327Y7941D01*
X4313D01*
X4298Y7939D01*
X4284Y7934D01*
X4271Y7928D01*
X4259Y7920D01*
X4248Y7910D01*
X4239Y7898D01*
X4232Y7886D01*
X4226Y7872D01*
X4223Y7858D01*
X4222Y7843D01*
X4299D02*
X4300D01*
X4299D02*
X4300Y7836D01*
X4304Y7829D01*
X4309Y7824D01*
X4316Y7822D01*
X4324D01*
X4331Y7824D01*
X4336Y7829D01*
X4340Y7836D01*
X4341Y7843D01*
X4342D01*
X4341D02*
X4340Y7850D01*
X4336Y7857D01*
X4331Y7862D01*
X4324Y7864D01*
X4316D01*
X4309Y7862D01*
X4304Y7857D01*
X4300Y7850D01*
X4299Y7843D01*
X4222Y6426D02*
X4223D01*
X4222D02*
X4223Y6411D01*
X4226Y6397D01*
X4232Y6383D01*
X4239Y6371D01*
X4248Y6359D01*
X4259Y6349D01*
X4271Y6341D01*
X4284Y6335D01*
X4298Y6330D01*
X4313Y6328D01*
X4327D01*
X4342Y6330D01*
X4356Y6335D01*
X4369Y6341D01*
X4381Y6349D01*
X4392Y6359D01*
X4401Y6371D01*
X4408Y6383D01*
X4414Y6397D01*
X4417Y6411D01*
X4418Y6426D01*
X4419D01*
X4418D02*
X4417Y6441D01*
X4414Y6455D01*
X4408Y6469D01*
X4401Y6481D01*
X4392Y6493D01*
X4381Y6503D01*
X4369Y6511D01*
X4356Y6517D01*
X4342Y6522D01*
X4327Y6524D01*
X4313D01*
X4298Y6522D01*
X4284Y6517D01*
X4271Y6511D01*
X4259Y6503D01*
X4248Y6493D01*
X4239Y6481D01*
X4232Y6469D01*
X4226Y6455D01*
X4223Y6441D01*
X4222Y6426D01*
X4299D02*
X4300D01*
X4299D02*
X4300Y6419D01*
X4304Y6412D01*
X4309Y6407D01*
X4316Y6405D01*
X4324D01*
X4331Y6407D01*
X4336Y6412D01*
X4340Y6419D01*
X4341Y6426D01*
X4342D01*
X4341D02*
X4340Y6433D01*
X4336Y6440D01*
X4331Y6445D01*
X4324Y6447D01*
X4316D01*
X4309Y6445D01*
X4304Y6440D01*
X4300Y6433D01*
X4299Y6426D01*
D71*
X6599Y7293D02*
D03*
X6364Y7294D02*
D03*
D72*
X4342Y7641D02*
D03*
D78*
X6481Y7682D02*
D03*
D86*
X8383Y6144D02*
D03*
X8859D02*
D03*
D102*
X15016Y8433D02*
D03*
X14946D02*
D03*
X14931Y8148D02*
D03*
X14861D02*
D03*
Y7438D02*
D03*
X14931D02*
D03*
X14946Y7723D02*
D03*
X15016D02*
D03*
Y7015D02*
D03*
X14946D02*
D03*
X14931Y6730D02*
D03*
X14861D02*
D03*
X14931Y6021D02*
D03*
X14861D02*
D03*
X15016Y6306D02*
D03*
X14946D02*
D03*
X13529Y8373D02*
D03*
X13599D02*
D03*
X13529Y8306D02*
D03*
X13599D02*
D03*
X13529Y8239D02*
D03*
X13599D02*
D03*
X13529Y8168D02*
D03*
X13599D02*
D03*
X13529Y8026D02*
D03*
X13599D02*
D03*
X13529Y8097D02*
D03*
X13599D02*
D03*
X13529Y7877D02*
D03*
X13599D02*
D03*
X13103Y6904D02*
D03*
X13033D02*
D03*
X13178Y7199D02*
D03*
X13108D02*
D03*
X13178Y7121D02*
D03*
X13108D02*
D03*
X13221Y7416D02*
D03*
X13151D02*
D03*
X14611Y8183D02*
D03*
X14541D02*
D03*
X14491Y8148D02*
D03*
X14421D02*
D03*
X14611Y8113D02*
D03*
X14541D02*
D03*
Y7403D02*
D03*
X14611D02*
D03*
X14421Y7438D02*
D03*
X14491D02*
D03*
X14541Y7473D02*
D03*
X14611D02*
D03*
X13880Y8209D02*
D03*
X13950D02*
D03*
X13529Y7947D02*
D03*
X13599D02*
D03*
X13265Y7332D02*
D03*
X13335D02*
D03*
X13517Y7128D02*
D03*
X13447D02*
D03*
X13592Y5790D02*
D03*
X13662D02*
D03*
X13592Y5857D02*
D03*
X13662D02*
D03*
X13592Y5924D02*
D03*
X13662D02*
D03*
X13592Y5995D02*
D03*
X13662D02*
D03*
X13592Y6066D02*
D03*
X13662D02*
D03*
X13592Y6136D02*
D03*
X13662D02*
D03*
X13592Y6215D02*
D03*
X13662D02*
D03*
X13592Y6286D02*
D03*
X13662D02*
D03*
X13253Y6810D02*
D03*
X13183D02*
D03*
X14611Y6695D02*
D03*
X14541D02*
D03*
X14611Y6765D02*
D03*
X14541D02*
D03*
X14611Y5986D02*
D03*
X14541D02*
D03*
X14491Y6021D02*
D03*
X14421D02*
D03*
X14611Y6056D02*
D03*
X14541D02*
D03*
X14491Y6730D02*
D03*
X14421D02*
D03*
X13862Y5987D02*
D03*
X13932D02*
D03*
X13888Y6179D02*
D03*
X13818D02*
D03*
X13888Y6239D02*
D03*
X13818D02*
D03*
Y6113D02*
D03*
X13748D02*
D03*
X13817Y6342D02*
D03*
X13747D02*
D03*
X12104Y7333D02*
D03*
X12174D02*
D03*
X12065Y7396D02*
D03*
X12135D02*
D03*
X12840Y7424D02*
D03*
X12770D02*
D03*
X12871Y7199D02*
D03*
X12801D02*
D03*
X12871Y7121D02*
D03*
X12801D02*
D03*
X12946Y6904D02*
D03*
X12876D02*
D03*
X12332Y7719D02*
D03*
X12262D02*
D03*
X12828Y6810D02*
D03*
X12758D02*
D03*
X13021D02*
D03*
X12951D02*
D03*
X9963Y6257D02*
D03*
X10033D02*
D03*
Y6197D02*
D03*
X9963D02*
D03*
X10033Y6077D02*
D03*
X9963D02*
D03*
Y6137D02*
D03*
X10033D02*
D03*
D106*
X10698Y8373D02*
D03*
X10619D02*
D03*
D111*
X14686Y8018D02*
D03*
Y8088D02*
D03*
Y7378D02*
D03*
Y7308D02*
D03*
Y6600D02*
D03*
Y6670D02*
D03*
Y5891D02*
D03*
Y5961D02*
D03*
X13064Y7314D02*
D03*
Y7244D02*
D03*
X13599Y7727D02*
D03*
Y7797D02*
D03*
X13320Y6908D02*
D03*
Y6838D02*
D03*
X13418Y6990D02*
D03*
Y7060D02*
D03*
X13779Y7796D02*
D03*
Y7726D02*
D03*
X13379Y7238D02*
D03*
Y7168D02*
D03*
X13297Y7238D02*
D03*
Y7168D02*
D03*
X13699Y7796D02*
D03*
Y7726D02*
D03*
X13761Y7966D02*
D03*
Y7896D02*
D03*
X13699Y7966D02*
D03*
Y7896D02*
D03*
X12194Y8325D02*
D03*
Y8388D02*
D03*
X12127Y8325D02*
D03*
Y8388D02*
D03*
X12914Y7314D02*
D03*
Y7244D02*
D03*
X12694Y7318D02*
D03*
Y7248D02*
D03*
X12674Y6841D02*
D03*
Y6911D02*
D03*
X6303Y6647D02*
D03*
Y6717D02*
D03*
D124*
X10399Y6125D02*
D03*
Y6215D02*
D03*
X10320D02*
D03*
Y6125D02*
D03*
X10241D02*
D03*
Y6215D02*
D03*
X10162D02*
D03*
Y6125D02*
D03*
D129*
X11084Y6345D02*
D03*
X9582Y5915D02*
D03*
D139*
X15628Y8041D02*
X15817D01*
Y8355D02*
X15628D01*
Y7646D02*
X15817D01*
Y7332D02*
X15628D01*
Y5914D02*
X15817D01*
Y6228D02*
X15628D01*
Y6623D02*
X15817D01*
Y6937D02*
X15628D01*
D02*
M02*
