*%FSLAX23Y23*%
*%MOIN*%
G01*
D26*
X5583Y4432D02*
D03*
Y4387D02*
D03*
Y4342D02*
D03*
X5513Y5777D02*
D03*
X5588Y5992D02*
D03*
X5483Y5657D02*
D03*
Y5607D02*
D03*
X5578Y5127D02*
D03*
X5528Y5277D02*
D03*
X5483Y5412D02*
D03*
X5583Y4652D02*
D03*
Y4917D02*
D03*
Y4872D02*
D03*
Y4822D02*
D03*
X5633Y3322D02*
D03*
X5593Y3437D02*
D03*
X5588Y2837D02*
D03*
X5528Y3682D02*
D03*
X5578D02*
D03*
X5628D02*
D03*
X5346Y6050D02*
D03*
X5308Y5952D02*
D03*
X5343Y5997D02*
D03*
X5338Y5807D02*
D03*
Y5757D02*
D03*
Y5707D02*
D03*
X5348Y6512D02*
D03*
X5368Y6912D02*
D03*
X5288Y5057D02*
D03*
X5283Y4607D02*
D03*
X5293Y5447D02*
D03*
X5393Y5062D02*
D03*
X5423Y5032D02*
D03*
X5353Y3397D02*
D03*
X5348Y3327D02*
D03*
X5378Y3602D02*
D03*
X5293Y3122D02*
D03*
X5093Y5647D02*
D03*
Y5602D02*
D03*
X5088Y6327D02*
D03*
X5113Y5792D02*
D03*
X5253Y5692D02*
D03*
X5118Y5412D02*
D03*
X5093Y5282D02*
D03*
X5118Y5057D02*
D03*
X5223Y4297D02*
D03*
X5163Y5407D02*
D03*
X5143Y4692D02*
D03*
X5198Y3322D02*
D03*
X5153Y2837D02*
D03*
X5158Y3437D02*
D03*
X5093Y3682D02*
D03*
X5193D02*
D03*
X5143D02*
D03*
X4933Y6727D02*
D03*
Y6772D02*
D03*
X4903Y6822D02*
D03*
X4913Y5862D02*
D03*
X4958D02*
D03*
X5038Y5657D02*
D03*
X4938Y5792D02*
D03*
Y6402D02*
D03*
X4968Y5657D02*
D03*
X4888Y5677D02*
D03*
X5008Y5282D02*
D03*
X5058Y4297D02*
D03*
X4943Y3602D02*
D03*
X4913Y3327D02*
D03*
X4918Y3397D02*
D03*
X4853Y6822D02*
D03*
X4863Y5847D02*
D03*
X4843Y6257D02*
D03*
X4848Y6107D02*
D03*
Y6057D02*
D03*
Y6007D02*
D03*
X4868Y5957D02*
D03*
Y5907D02*
D03*
X4838Y5097D02*
D03*
X4843Y4607D02*
D03*
X4793Y4302D02*
D03*
X4728Y4722D02*
D03*
X4763Y3322D02*
D03*
X4718Y2837D02*
D03*
X4723Y3437D02*
D03*
X4758Y3682D02*
D03*
X4708D02*
D03*
X4863Y3122D02*
D03*
X4548Y5687D02*
D03*
X4658Y6442D02*
D03*
X4543Y6492D02*
D03*
X4563Y6712D02*
D03*
X4593Y5102D02*
D03*
X4563Y5282D02*
D03*
X4673Y5097D02*
D03*
X4628Y4302D02*
D03*
X4678Y4737D02*
D03*
X4628D02*
D03*
X4508Y3602D02*
D03*
X4658Y3682D02*
D03*
X4458Y4352D02*
D03*
X4478Y3327D02*
D03*
X4483Y3397D02*
D03*
X4423Y3122D02*
D03*
D28*
X5598Y6597D02*
D03*
X4543Y5782D02*
D03*
Y5582D02*
D03*
X4623Y7259D02*
D03*
Y6747D02*
D03*
X4473Y7259D02*
D03*
Y6747D02*
D03*
X5563Y7259D02*
D03*
Y6747D02*
D03*
X5413Y7259D02*
D03*
Y6747D02*
D03*
X4563Y4317D02*
D03*
Y4517D02*
D03*
X4998D02*
D03*
Y4317D02*
D03*
X5433D02*
D03*
Y4517D02*
D03*
X5303Y4267D02*
D03*
Y4067D02*
D03*
X4868D02*
D03*
Y4267D02*
D03*
X4433D02*
D03*
Y4067D02*
D03*
X4923Y4787D02*
D03*
Y4987D02*
D03*
X5463Y2722D02*
D03*
Y2922D02*
D03*
X5028D02*
D03*
Y2722D02*
D03*
X4593D02*
D03*
Y2922D02*
D03*
X5522Y2572D02*
D03*
X5322D02*
D03*
X4926D02*
D03*
X5126D02*
D03*
X4721D02*
D03*
X4521D02*
D03*
D29*
X4970Y7082D02*
D03*
X5070D02*
D03*
Y7004D02*
D03*
X4970D02*
D03*
D30*
X4538Y5967D02*
D03*
X4638D02*
D03*
X4538Y6067D02*
D03*
X4638Y6367D02*
D03*
X4538D02*
D03*
Y6267D02*
D03*
X4638D02*
D03*
Y6167D02*
D03*
X4538D02*
D03*
X4638Y6067D02*
D03*
D39*
X5336Y7410D02*
D03*
X4706D02*
D03*
D42*
X5258Y7189D02*
D03*
X4782D02*
D03*
D44*
X4528Y7411D02*
D03*
X5511D02*
D03*
M02*
