M48
R,T
VER,1
FMAT,2
INCH,LZ
TCST,OFF
ICI,OFF
ATC,ON
T1C0.035
T2C0.039
T3C0.04
T4C0.043
T5C0.05
T6C0.079
T7C0.13
%
M47,OrCAD PCB Drill V2.10
G05
M72
T1
X0405Y037
X0415Y037
X0425Y037
X0435Y037
X0445Y037
X0455Y037
X0465Y037
X0475Y037
X0475Y04
X0465Y04
X0455Y04
X0445Y04
X0435Y04
X0425Y04
X0415Y04
X0405Y04
X0405Y0475
X0415Y0475
X0425Y0475
X0435Y0475
X0445Y0475
X0455Y0475
X0465Y0475
X0475Y0475
X0475Y0505
X0465Y0505
X0455Y0505
X0445Y0505
X0435Y0505
X0425Y0505
X0415Y0505
X0405Y0505
X0405Y057
X0415Y057
X0425Y057
X0435Y057
X0445Y057
X0455Y057
X0465Y057
X0475Y057
X0475Y06
X0465Y06
X0455Y06
X0445Y06
X0435Y06
X0425Y06
X0415Y06
X0405Y06
X054Y061
X055Y06
X056Y06
X057Y06
X058Y06
X059Y06
X06Y06
X061Y06
X062Y06
X062Y0625
X063Y0635
X064Y0625
X066Y0625
X067Y0635
X068Y0625
X0715Y06
X0725Y06
X0735Y06
X0745Y06
X0755Y06
X0765Y06
X0775Y06
X0785Y06
X0785Y0625
X0795Y0635
X0805Y0625
X0825Y0625
X0835Y0635
X0845Y0625
X0785Y057
X0775Y057
X0765Y057
X0755Y057
X0745Y057
X0735Y057
X0725Y057
X0715Y057
X0705Y056
X069Y0545
X069Y0525
X068Y0525
X067Y0525
X066Y0525
X065Y0525
X064Y0525
X063Y0525
X062Y0525
X061Y0525
X06Y0525
X059Y0525
X058Y0525
X057Y0525
X056Y0525
X057Y0545
X057Y057
X058Y057
X059Y057
X06Y057
X061Y057
X062Y057
X06Y0545
X0605Y0535
X0625Y0535
X063Y0465
X064Y0465
X065Y0465
X066Y0465
X067Y0465
X068Y0465
X069Y0465
X074Y045
X0765Y045
X0765Y0395
X0745Y0395
X069Y038
X067Y038
X066Y04
X066Y041
X0645Y04
X0635Y04
X0625Y04
X0615Y04
X0605Y04
X0595Y04
X0585Y04
X0575Y04
X0575Y037
X0585Y037
X0595Y037
X0605Y037
X0615Y037
X0625Y037
X0635Y037
X0645Y037
X065Y034
X064Y0325
X063Y0325
X062Y0325
X061Y0325
X06Y0325
X059Y0325
X058Y0325
X057Y0325
X0575Y0315
X0585Y0315
X0595Y0315
X0605Y0315
X0615Y0315
X0625Y0315
X0635Y0315
X0645Y0315
X061Y0385
X064Y041
X062Y0465
X061Y0465
X06Y0465
X059Y0465
X058Y0465
X057Y0465
X056Y0465
X051Y0495
X055Y057
X056Y057
X054Y0585
X072Y0545
X0735Y056
X0815Y0505
X0825Y0505
X0835Y0505
X0845Y0505
X0845Y0475
X0835Y0475
X0825Y0475
X0815Y0475
X0815Y0405
X0825Y0405
X0835Y0405
X0845Y0405
X0845Y0375
X0835Y0375
X0825Y0375
X0815Y0375
T2
X04225Y0345
X044Y0345
X04675Y0345
X0485Y0345
X0445Y0415
X0425Y0415
X0425Y052
X0445Y052
X0445Y0615
X0425Y0615
X06Y061
X06Y063
X061Y0555
X063Y0555
X0625Y044
X0605Y044
X058Y044
X056Y044
X0535Y044
X0535Y046
X07175Y063
X0735Y063
X0765Y063
X0765Y061
X0775Y055
X0795Y055
X08325Y055
X085Y055
X0845Y0525
X0825Y0525
X0805Y0475
X0785Y0475
X07925Y044
X081Y044
X08275Y044
X0825Y0425
X0845Y0425
X0845Y044
X0835Y0455
X0855Y0455
X0805Y0405
X0785Y0405
X0785Y0375
X0805Y0375
X0835Y0355
X0855Y0355
T3
X0335Y035
X0345Y035
X036Y035
X036Y036
X036Y037
X037Y037
X037Y036
X037Y035
X038Y035
X038Y036
X038Y037
X0395Y04
X0405Y041
X0365Y041
X0355Y04
X0345Y039
X0335Y039
X0365Y0455
X0375Y0455
X0375Y0465
X0375Y0475
X0365Y0475
X0365Y0465
X0385Y0465
X0385Y0455
X0385Y0475
X0395Y0505
X0405Y0515
X0365Y0515
X0355Y0505
X036Y055
X036Y056
X037Y056
X037Y057
X038Y057
X038Y056
X038Y055
X037Y055
X036Y057
X0355Y06
X0365Y061
X0395Y06
X0405Y061
X0455Y061
X0455Y062
X0495Y062
X0495Y061
X0495Y0525
X0495Y0515
X0455Y0515
X0455Y0525
X0455Y042
X0455Y041
X0495Y041
X0495Y042
X0525Y04
X0535Y0365
X0535Y035
X0535Y0335
X052Y0315
X0495Y0335
X0495Y035
X0495Y0365
X048Y0315
X044Y033
X04Y033
X0565Y04
X056Y0425
X056Y0455
X06Y0455
X06Y0425
X063Y0455
X065Y0445
X067Y0455
X069Y0445
X068Y036
X067Y036
X0675Y035
X0685Y035
X068Y034
X069Y034
X072Y036
X0725Y035
X073Y034
X0785Y0355
X0785Y0365
X0825Y0365
X0825Y0355
X0835Y0365
X0875Y0365
X0865Y0415
X0825Y0415
X0815Y0415
X0815Y0425
X0825Y0455
X0825Y0465
X0835Y0465
X0875Y0465
X0865Y0515
X0825Y0515
X0815Y0515
X0775Y0515
X0785Y0465
X0785Y0455
X0775Y0425
X0775Y0415
X069Y0535
X065Y0535
X066Y0575
X067Y0575
X067Y0615
X066Y0615
X0825Y0615
X0835Y0615
X0835Y0575
X0825Y0575
X063Y036
X0635Y035
X064Y034
T4
X0755Y0345
X0755Y0355
X0755Y0365
X0755Y0415
X0755Y0425
X0755Y0435
X0755Y046
X0755Y047
X0755Y048
X0755Y0505
X0755Y0515
X0755Y0525
T5
X034Y04
X034Y042
X034Y044
X04Y0315
X043Y0315
X046Y0315
X0505Y041
X051Y0515
X0505Y061
X09Y0535
X09Y0515
X09Y0485
X09Y0465
X09Y0435
X09Y0415
X09Y0385
X09Y0365
T6
X0565Y03175
T7
X034Y0315
X034Y0625
X09Y0625
X09Y0315
T0
M30