G04 ================== begin FILE IDENTIFICATION RECORD ==================*
G04 Layout Name:  H:/mmk/PT8618/dia/allegro/PT8618_2.brd*
G04 Film Name:    TOP_SILKSCREEN*
G04 File Format:  Gerber RS274X*
G04 File Origin:  Cadence Allegro 16.6-P004*
G04 Origin Date:  Thu May 30 15:18:07 2013*
G04 *
G04 Layer:  REF DES/SILKSCREEN_TOP*
G04 Layer:  PACKAGE GEOMETRY/SILKSCREEN_TOP*
G04 Layer:  BOARD GEOMETRY/SILKSCREEN_TOP*
G04 *
G04 Offset:    (0.0000 0.0000)*
G04 Mirror:    No*
G04 Mode:      Positive*
G04 Rotation:  0*
G04 FullContactRelief:  No*
G04 UndefLineWidth:     0.2500*
G04 ================== end FILE IDENTIFICATION RECORD ====================*
%FSLAX45Y45*MOMM*%
%IR0*IPPOS*OFA0.00000B0.00000*MIA0B0*SFA1.00000B1.00000*%
%ADD10C,.1*%
%ADD11C,.25*%
G75*
%LPD*%
G75*
G54D10*
G01X900000Y6880000D02*
Y7385000D01*
X2505000D01*
Y6880000D01*
X900000D01*
G01X4630000Y395000D02*
Y900000D01*
X6235000D01*
Y395000D01*
X4630000D01*
G01X7890000Y6885000D02*
Y7390000D01*
X9495000D01*
Y6885000D01*
X7890000D01*
G54D11*
G01X482600Y4176180D02*
X609600D01*
Y4135970D01*
X603250Y4123100D01*
X594780Y4115050D01*
X577850Y4111840D01*
X560920Y4115050D01*
X550330Y4124710D01*
X543980Y4135970D01*
Y4176180D01*
G01Y4135970D02*
X482600Y4111840D01*
G01Y3995170D02*
X609600D01*
X518580Y4054690D01*
Y3974250D01*
G01X609600Y3884930D02*
X605370Y3897800D01*
X594780Y3907450D01*
X582090Y3913890D01*
X565150Y3918710D01*
X546100Y3920320D01*
X527050Y3918710D01*
X510110Y3913890D01*
X497410Y3907450D01*
X486830Y3897800D01*
X482600Y3884930D01*
X486830Y3872060D01*
X497410Y3862410D01*
X510110Y3855970D01*
X527050Y3851150D01*
X546100Y3849540D01*
X565150Y3851150D01*
X582090Y3855970D01*
X594780Y3862410D01*
X605370Y3872060D01*
X609600Y3884930D01*
G01X588430Y3785960D02*
X601130Y3776300D01*
X607480Y3765040D01*
X609600Y3752170D01*
X605370Y3736090D01*
X594780Y3724820D01*
X582090Y3721610D01*
X569380Y3723220D01*
X558800Y3729650D01*
X537630Y3761820D01*
X522820Y3776300D01*
X501650Y3785960D01*
X482600Y3789170D01*
Y3721610D01*
G01X697000Y5187600D02*
Y4476400D01*
X443000D01*
Y5187600D01*
X697000D01*
G01X446280Y7023100D02*
X513840Y7150100D01*
G01X446280D02*
X513840Y7023100D01*
G01X569380D02*
X609600Y7150100D01*
X649820Y7023100D01*
G01X635340Y7067550D02*
X583860D01*
G01X758440Y7023100D02*
Y7150100D01*
X698920Y7059080D01*
X779360D01*
G01X356450Y9613900D02*
Y9740900D01*
X396660D01*
X409530Y9734550D01*
X417580Y9726080D01*
X420790Y9709150D01*
X417580Y9692220D01*
X407920Y9681630D01*
X396660Y9675280D01*
X356450D01*
G01X396660D02*
X420790Y9613900D01*
G01X550330D02*
X485990D01*
Y9740900D01*
X550330D01*
G01X524590Y9679520D02*
X485990D01*
G01X667000Y9613900D02*
Y9740900D01*
X607480Y9649880D01*
X687920D01*
G01X777240Y9740900D02*
X764370Y9736670D01*
X754720Y9726080D01*
X748280Y9713390D01*
X743460Y9696450D01*
X741850Y9677400D01*
X743460Y9658350D01*
X748280Y9641410D01*
X754720Y9628710D01*
X764370Y9618130D01*
X777240Y9613900D01*
X790110Y9618130D01*
X799760Y9628710D01*
X806200Y9641410D01*
X811020Y9658350D01*
X812630Y9677400D01*
X811020Y9696450D01*
X806200Y9713390D01*
X799760Y9726080D01*
X790110Y9736670D01*
X777240Y9740900D01*
G01X906780Y9613900D02*
Y9740900D01*
X887480Y9715500D01*
G01Y9613900D02*
X926080D01*
G01X200000Y12550000D02*
X2440000D01*
Y10350000D01*
X200000D01*
Y12550000D01*
G01Y12350000D02*
X2440000D01*
G01X749300Y4163480D02*
X876300D01*
Y4123270D01*
X869950Y4110400D01*
X861480Y4102350D01*
X844550Y4099140D01*
X827620Y4102350D01*
X817030Y4112010D01*
X810680Y4123270D01*
Y4163480D01*
G01Y4123270D02*
X749300Y4099140D01*
G01Y3982470D02*
X876300D01*
X785280Y4041990D01*
Y3961550D01*
G01X876300Y3872230D02*
X872070Y3885100D01*
X861480Y3894750D01*
X848790Y3901190D01*
X831850Y3906010D01*
X812800Y3907620D01*
X793750Y3906010D01*
X776810Y3901190D01*
X764110Y3894750D01*
X753530Y3885100D01*
X749300Y3872230D01*
X753530Y3859360D01*
X764110Y3849710D01*
X776810Y3843270D01*
X793750Y3838450D01*
X812800Y3836840D01*
X831850Y3838450D01*
X848790Y3843270D01*
X861480Y3849710D01*
X872070Y3859360D01*
X876300Y3872230D01*
G01X749300Y3742690D02*
X876300D01*
X850900Y3761990D01*
G01X749300D02*
Y3723390D01*
G01X957000Y5187600D02*
Y4476400D01*
X703000D01*
Y5187600D01*
X957000D01*
G01X1217000Y5697600D02*
Y4986400D01*
X963000D01*
Y5697600D01*
X1217000D01*
G01X963000Y5596000D02*
X1217000D01*
G01Y5532500D02*
X963000D01*
G01X455700Y5936360D02*
G02Y5509640I113771J-213360D01*
G01Y5936360D02*
Y5509640D01*
G01X1003300Y6478100D02*
X1130300D01*
Y6445930D01*
X1123950Y6433060D01*
X1115480Y6423410D01*
X1102790Y6415360D01*
X1087960Y6408930D01*
X1066800Y6407320D01*
X1045630Y6408930D01*
X1030810Y6415360D01*
X1018110Y6423410D01*
X1009650Y6433060D01*
X1003300Y6445930D01*
Y6478100D01*
G01Y6293870D02*
X1130300D01*
X1039280Y6353390D01*
Y6272950D01*
G01X1130300Y6183630D02*
X1126070Y6196500D01*
X1115480Y6206150D01*
X1102790Y6212590D01*
X1085850Y6217410D01*
X1066800Y6219020D01*
X1047750Y6217410D01*
X1030810Y6212590D01*
X1018110Y6206150D01*
X1007530Y6196500D01*
X1003300Y6183630D01*
X1007530Y6170760D01*
X1018110Y6161110D01*
X1030810Y6154670D01*
X1047750Y6149850D01*
X1066800Y6148240D01*
X1085850Y6149850D01*
X1102790Y6154670D01*
X1115480Y6161110D01*
X1126070Y6170760D01*
X1130300Y6183630D01*
G01X1003300Y6054090D02*
X1130300D01*
X1104900Y6073390D01*
G01X1003300D02*
Y6034790D01*
G01X558800Y6466840D02*
X560920Y6479710D01*
X569380Y6490970D01*
X582080Y6500620D01*
X596900Y6507060D01*
X613830Y6510280D01*
X630770D01*
X647700Y6507060D01*
X662520Y6500620D01*
X675220Y6490970D01*
X683680Y6479710D01*
X685800Y6466840D01*
X683680Y6453970D01*
X675220Y6442710D01*
X662520Y6433060D01*
X647700Y6426620D01*
X630770Y6423400D01*
X613830D01*
X596900Y6426620D01*
X582080Y6433060D01*
X569380Y6442710D01*
X560920Y6453970D01*
X558800Y6466840D01*
G01X592670Y6453970D02*
X558800Y6434670D01*
G01Y6318000D02*
X685800D01*
X594780Y6377520D01*
Y6297080D01*
G01X685800Y6207760D02*
X681570Y6220630D01*
X670980Y6230280D01*
X658290Y6236720D01*
X641350Y6241540D01*
X622300Y6243150D01*
X603250Y6241540D01*
X586310Y6236720D01*
X573610Y6230280D01*
X563030Y6220630D01*
X558800Y6207760D01*
X563030Y6194890D01*
X573610Y6185240D01*
X586310Y6178800D01*
X603250Y6173980D01*
X622300Y6172370D01*
X641350Y6173980D01*
X658290Y6178800D01*
X670980Y6185240D01*
X681570Y6194890D01*
X685800Y6207760D01*
G01X558800Y6078220D02*
X685800D01*
X660400Y6097520D01*
G01X558800D02*
Y6058920D01*
G01X1181100Y6804660D02*
X1054100D01*
X1079500Y6785360D01*
G01X1181100D02*
Y6823960D01*
G01X562000Y7749000D02*
X1070000D01*
Y9527000D01*
X562000D01*
Y7749000D01*
G01X689000Y9527000D02*
X752500Y9463500D01*
X879500D01*
X943000Y9527000D01*
G01X720000Y10350000D02*
X1920000D01*
Y9850000D01*
X720000D01*
Y10350000D01*
G01X710000Y12350000D02*
X960000D01*
Y12050000D01*
X710000D01*
Y12350000D01*
G01X1549400Y4163480D02*
X1676400D01*
Y4123270D01*
X1670050Y4110400D01*
X1661580Y4102350D01*
X1644650Y4099140D01*
X1627720Y4102350D01*
X1617130Y4112010D01*
X1610780Y4123270D01*
Y4163480D01*
G01Y4123270D02*
X1549400Y4099140D01*
G01Y3982470D02*
X1676400D01*
X1585380Y4041990D01*
Y3961550D01*
G01X1676400Y3872230D02*
X1672170Y3885100D01*
X1661580Y3894750D01*
X1648890Y3901190D01*
X1631950Y3906010D01*
X1612900Y3907620D01*
X1593850Y3906010D01*
X1576910Y3901190D01*
X1564210Y3894750D01*
X1553630Y3885100D01*
X1549400Y3872230D01*
X1553630Y3859360D01*
X1564210Y3849710D01*
X1576910Y3843270D01*
X1593850Y3838450D01*
X1612900Y3836840D01*
X1631950Y3838450D01*
X1648890Y3843270D01*
X1661580Y3849710D01*
X1672170Y3859360D01*
X1676400Y3872230D01*
G01X1574800Y3778080D02*
X1559980Y3768430D01*
X1551520Y3755560D01*
X1549400Y3741080D01*
X1551520Y3728210D01*
X1562100Y3715340D01*
X1574800Y3707300D01*
X1587500Y3705690D01*
X1602310Y3708910D01*
X1612900Y3720170D01*
X1617130Y3731430D01*
Y3745910D01*
G01Y3731430D02*
X1623480Y3721780D01*
X1634060Y3713730D01*
X1646770Y3710520D01*
X1659470Y3713730D01*
X1670050Y3721780D01*
X1676400Y3736260D01*
X1674280Y3750730D01*
X1665820Y3765210D01*
G01X1295400Y4163480D02*
X1422400D01*
Y4123270D01*
X1416050Y4110400D01*
X1407580Y4102350D01*
X1390650Y4099140D01*
X1373720Y4102350D01*
X1363130Y4112010D01*
X1356780Y4123270D01*
Y4163480D01*
G01Y4123270D02*
X1295400Y4099140D01*
G01Y3982470D02*
X1422400D01*
X1331380Y4041990D01*
Y3961550D01*
G01X1422400Y3872230D02*
X1418170Y3885100D01*
X1407580Y3894750D01*
X1394890Y3901190D01*
X1377950Y3906010D01*
X1358900Y3907620D01*
X1339850Y3906010D01*
X1322910Y3901190D01*
X1310210Y3894750D01*
X1299630Y3885100D01*
X1295400Y3872230D01*
X1299630Y3859360D01*
X1310210Y3849710D01*
X1322910Y3843270D01*
X1339850Y3838450D01*
X1358900Y3836840D01*
X1377950Y3838450D01*
X1394890Y3843270D01*
X1407580Y3849710D01*
X1418170Y3859360D01*
X1422400Y3872230D01*
G01X1295400Y3723390D02*
X1422400D01*
X1331380Y3782910D01*
Y3702470D01*
G01X1737000Y5187600D02*
Y4476400D01*
X1483000D01*
Y5187600D01*
X1737000D01*
G01X1477000D02*
Y4476400D01*
X1223000D01*
Y5187600D01*
X1477000D01*
G01X1997000Y5697600D02*
Y4986400D01*
X1743000D01*
Y5697600D01*
X1997000D01*
G01X1743000Y5596000D02*
X1997000D01*
G01Y5532500D02*
X1743000D01*
G01X1235700Y5936360D02*
G02Y5509640I113771J-213360D01*
G01Y5936360D02*
Y5509640D01*
G01X1727200Y6490800D02*
X1854200D01*
Y6458630D01*
X1847850Y6445760D01*
X1839380Y6436110D01*
X1826690Y6428060D01*
X1811860Y6421630D01*
X1790700Y6420020D01*
X1769530Y6421630D01*
X1754710Y6428060D01*
X1742010Y6436110D01*
X1733550Y6445760D01*
X1727200Y6458630D01*
Y6490800D01*
G01Y6306570D02*
X1854200D01*
X1763180Y6366090D01*
Y6285650D01*
G01X1854200Y6196330D02*
X1849970Y6209200D01*
X1839380Y6218850D01*
X1826690Y6225290D01*
X1809750Y6230110D01*
X1790700Y6231720D01*
X1771650Y6230110D01*
X1754710Y6225290D01*
X1742010Y6218850D01*
X1731430Y6209200D01*
X1727200Y6196330D01*
X1731430Y6183460D01*
X1742010Y6173810D01*
X1754710Y6167370D01*
X1771650Y6162550D01*
X1790700Y6160940D01*
X1809750Y6162550D01*
X1826690Y6167370D01*
X1839380Y6173810D01*
X1849970Y6183460D01*
X1854200Y6196330D01*
G01X1833030Y6097360D02*
X1845730Y6087700D01*
X1852080Y6076440D01*
X1854200Y6063570D01*
X1849970Y6047490D01*
X1839380Y6036220D01*
X1826690Y6033010D01*
X1813980Y6034620D01*
X1803400Y6041050D01*
X1782230Y6073220D01*
X1767420Y6087700D01*
X1746250Y6097360D01*
X1727200Y6100570D01*
Y6033010D01*
G01X1346200Y6466840D02*
X1348320Y6479710D01*
X1356780Y6490970D01*
X1369480Y6500620D01*
X1384300Y6507060D01*
X1401230Y6510280D01*
X1418170D01*
X1435100Y6507060D01*
X1449920Y6500620D01*
X1462620Y6490970D01*
X1471080Y6479710D01*
X1473200Y6466840D01*
X1471080Y6453970D01*
X1462620Y6442710D01*
X1449920Y6433060D01*
X1435100Y6426620D01*
X1418170Y6423400D01*
X1401230D01*
X1384300Y6426620D01*
X1369480Y6433060D01*
X1356780Y6442710D01*
X1348320Y6453970D01*
X1346200Y6466840D01*
G01X1380070Y6453970D02*
X1346200Y6434670D01*
G01Y6318000D02*
X1473200D01*
X1382180Y6377520D01*
Y6297080D01*
G01X1473200Y6207760D02*
X1468970Y6220630D01*
X1458380Y6230280D01*
X1445690Y6236720D01*
X1428750Y6241540D01*
X1409700Y6243150D01*
X1390650Y6241540D01*
X1373710Y6236720D01*
X1361010Y6230280D01*
X1350430Y6220630D01*
X1346200Y6207760D01*
X1350430Y6194890D01*
X1361010Y6185240D01*
X1373710Y6178800D01*
X1390650Y6173980D01*
X1409700Y6172370D01*
X1428750Y6173980D01*
X1445690Y6178800D01*
X1458380Y6185240D01*
X1468970Y6194890D01*
X1473200Y6207760D01*
G01X1452030Y6108790D02*
X1464730Y6099130D01*
X1471080Y6087870D01*
X1473200Y6075000D01*
X1468970Y6058920D01*
X1458380Y6047650D01*
X1445690Y6044440D01*
X1432980Y6046050D01*
X1422400Y6052480D01*
X1401230Y6084650D01*
X1386420Y6099130D01*
X1365250Y6108790D01*
X1346200Y6112000D01*
Y6044440D01*
G01X1680000Y12350000D02*
X1930000D01*
Y12050000D01*
X1680000D01*
Y12350000D01*
G01X2362200Y4150780D02*
X2489200D01*
Y4110570D01*
X2482850Y4097700D01*
X2474380Y4089650D01*
X2457450Y4086440D01*
X2440520Y4089650D01*
X2429930Y4099310D01*
X2423580Y4110570D01*
Y4150780D01*
G01Y4110570D02*
X2362200Y4086440D01*
G01Y3969770D02*
X2489200D01*
X2398180Y4029290D01*
Y3948850D01*
G01X2489200Y3859530D02*
X2484970Y3872400D01*
X2474380Y3882050D01*
X2461690Y3888490D01*
X2444750Y3893310D01*
X2425700Y3894920D01*
X2406650Y3893310D01*
X2389710Y3888490D01*
X2377010Y3882050D01*
X2366430Y3872400D01*
X2362200Y3859530D01*
X2366430Y3846660D01*
X2377010Y3837010D01*
X2389710Y3830570D01*
X2406650Y3825750D01*
X2425700Y3824140D01*
X2444750Y3825750D01*
X2461690Y3830570D01*
X2474380Y3837010D01*
X2484970Y3846660D01*
X2489200Y3859530D01*
G01X2381250Y3765380D02*
X2370660Y3755730D01*
X2364320Y3744470D01*
X2362200Y3729990D01*
X2366430Y3715510D01*
X2374900Y3704250D01*
X2389710Y3696210D01*
X2406650Y3694600D01*
X2423580Y3697820D01*
X2434170Y3705860D01*
X2442630Y3717120D01*
X2444750Y3728380D01*
X2442630Y3739640D01*
X2434170Y3754120D01*
X2489200Y3749290D01*
Y3705860D01*
G01X2070100Y4150780D02*
X2197100D01*
Y4110570D01*
X2190750Y4097700D01*
X2182280Y4089650D01*
X2165350Y4086440D01*
X2148420Y4089650D01*
X2137830Y4099310D01*
X2131480Y4110570D01*
Y4150780D01*
G01Y4110570D02*
X2070100Y4086440D01*
G01Y3969770D02*
X2197100D01*
X2106080Y4029290D01*
Y3948850D01*
G01X2197100Y3859530D02*
X2192870Y3872400D01*
X2182280Y3882050D01*
X2169590Y3888490D01*
X2152650Y3893310D01*
X2133600Y3894920D01*
X2114550Y3893310D01*
X2097610Y3888490D01*
X2084910Y3882050D01*
X2074330Y3872400D01*
X2070100Y3859530D01*
X2074330Y3846660D01*
X2084910Y3837010D01*
X2097610Y3830570D01*
X2114550Y3825750D01*
X2133600Y3824140D01*
X2152650Y3825750D01*
X2169590Y3830570D01*
X2182280Y3837010D01*
X2192870Y3846660D01*
X2197100Y3859530D01*
G01X2123010Y3760560D02*
X2137830Y3749290D01*
X2146300Y3739640D01*
X2150530Y3726770D01*
X2146300Y3715510D01*
X2137830Y3707470D01*
X2125130Y3701030D01*
X2110320Y3699420D01*
X2097610Y3701030D01*
X2084910Y3707470D01*
X2074330Y3717120D01*
X2070100Y3728380D01*
X2074330Y3741250D01*
X2087030Y3752510D01*
X2106080Y3758950D01*
X2127250Y3760560D01*
X2154760Y3757340D01*
X2169590Y3752510D01*
X2184400Y3744470D01*
X2194980Y3733210D01*
X2197100Y3721950D01*
X2192870Y3710690D01*
X2182280Y3702640D01*
G01X2517000Y5187600D02*
Y4476400D01*
X2263000D01*
Y5187600D01*
X2517000D01*
G01X2257000D02*
Y4476400D01*
X2003000D01*
Y5187600D01*
X2257000D01*
G01X2777000Y5697600D02*
Y4986400D01*
X2523000D01*
Y5697600D01*
X2777000D01*
G01X2523000Y5596000D02*
X2777000D01*
G01Y5532500D02*
X2523000D01*
G01X2015700Y5936360D02*
G02Y5509640I113771J-213360D01*
G01Y5936360D02*
Y5509640D01*
G01X2540000Y6490800D02*
X2667000D01*
Y6458630D01*
X2660650Y6445760D01*
X2652180Y6436110D01*
X2639490Y6428060D01*
X2624660Y6421630D01*
X2603500Y6420020D01*
X2582330Y6421630D01*
X2567510Y6428060D01*
X2554810Y6436110D01*
X2546350Y6445760D01*
X2540000Y6458630D01*
Y6490800D01*
G01Y6306570D02*
X2667000D01*
X2575980Y6366090D01*
Y6285650D01*
G01X2667000Y6196330D02*
X2662770Y6209200D01*
X2652180Y6218850D01*
X2639490Y6225290D01*
X2622550Y6230110D01*
X2603500Y6231720D01*
X2584450Y6230110D01*
X2567510Y6225290D01*
X2554810Y6218850D01*
X2544230Y6209200D01*
X2540000Y6196330D01*
X2544230Y6183460D01*
X2554810Y6173810D01*
X2567510Y6167370D01*
X2584450Y6162550D01*
X2603500Y6160940D01*
X2622550Y6162550D01*
X2639490Y6167370D01*
X2652180Y6173810D01*
X2662770Y6183460D01*
X2667000Y6196330D01*
G01X2565400Y6102180D02*
X2550580Y6092530D01*
X2542120Y6079660D01*
X2540000Y6065180D01*
X2542120Y6052310D01*
X2552700Y6039440D01*
X2565400Y6031400D01*
X2578100Y6029790D01*
X2592910Y6033010D01*
X2603500Y6044270D01*
X2607730Y6055530D01*
Y6070010D01*
G01Y6055530D02*
X2614080Y6045880D01*
X2624660Y6037830D01*
X2637370Y6034620D01*
X2650070Y6037830D01*
X2660650Y6045880D01*
X2667000Y6060360D01*
X2664880Y6074830D01*
X2656420Y6089310D01*
G01X2108200Y6479540D02*
X2110320Y6492410D01*
X2118780Y6503670D01*
X2131480Y6513320D01*
X2146300Y6519760D01*
X2163230Y6522980D01*
X2180170D01*
X2197100Y6519760D01*
X2211920Y6513320D01*
X2224620Y6503670D01*
X2233080Y6492410D01*
X2235200Y6479540D01*
X2233080Y6466670D01*
X2224620Y6455410D01*
X2211920Y6445760D01*
X2197100Y6439320D01*
X2180170Y6436100D01*
X2163230D01*
X2146300Y6439320D01*
X2131480Y6445760D01*
X2118780Y6455410D01*
X2110320Y6466670D01*
X2108200Y6479540D01*
G01X2142070Y6466670D02*
X2108200Y6447370D01*
G01Y6330700D02*
X2235200D01*
X2144180Y6390220D01*
Y6309780D01*
G01X2235200Y6220460D02*
X2230970Y6233330D01*
X2220380Y6242980D01*
X2207690Y6249420D01*
X2190750Y6254240D01*
X2171700Y6255850D01*
X2152650Y6254240D01*
X2135710Y6249420D01*
X2123010Y6242980D01*
X2112430Y6233330D01*
X2108200Y6220460D01*
X2112430Y6207590D01*
X2123010Y6197940D01*
X2135710Y6191500D01*
X2152650Y6186680D01*
X2171700Y6185070D01*
X2190750Y6186680D01*
X2207690Y6191500D01*
X2220380Y6197940D01*
X2230970Y6207590D01*
X2235200Y6220460D01*
G01X2133600Y6126310D02*
X2118780Y6116660D01*
X2110320Y6103790D01*
X2108200Y6089310D01*
X2110320Y6076440D01*
X2120900Y6063570D01*
X2133600Y6055530D01*
X2146300Y6053920D01*
X2161110Y6057140D01*
X2171700Y6068400D01*
X2175930Y6079660D01*
Y6094140D01*
G01Y6079660D02*
X2182280Y6070010D01*
X2192860Y6061960D01*
X2205570Y6058750D01*
X2218270Y6061960D01*
X2228850Y6070010D01*
X2235200Y6084490D01*
X2233080Y6098960D01*
X2224620Y6113440D01*
G01X2667000Y7198360D02*
X2540000D01*
X2565400Y7179060D01*
G01X2667000D02*
Y7217660D01*
G01X2540000Y7327900D02*
X2544230Y7315030D01*
X2554820Y7305380D01*
X2567510Y7298940D01*
X2584450Y7294120D01*
X2603500Y7292510D01*
X2622550Y7294120D01*
X2639490Y7298940D01*
X2652190Y7305380D01*
X2662770Y7315030D01*
X2667000Y7327900D01*
X2662770Y7340770D01*
X2652190Y7350420D01*
X2639490Y7356860D01*
X2622550Y7361680D01*
X2603500Y7363290D01*
X2584450Y7361680D01*
X2567510Y7356860D01*
X2554820Y7350420D01*
X2544230Y7340770D01*
X2540000Y7327900D01*
G01X2350350Y7556500D02*
Y7683500D01*
X2390560D01*
X2403430Y7677150D01*
X2411480Y7668680D01*
X2414690Y7651750D01*
X2411480Y7634820D01*
X2401820Y7624230D01*
X2390560Y7617880D01*
X2350350D01*
G01X2390560D02*
X2414690Y7556500D01*
G01X2544230D02*
X2479890D01*
Y7683500D01*
X2544230D01*
G01X2518490Y7622120D02*
X2479890D01*
G01X2660900Y7556500D02*
Y7683500D01*
X2601380Y7592480D01*
X2681820D01*
G01X2771140Y7683500D02*
X2758270Y7679270D01*
X2748620Y7668680D01*
X2742180Y7655990D01*
X2737360Y7639050D01*
X2735750Y7620000D01*
X2737360Y7600950D01*
X2742180Y7584010D01*
X2748620Y7571310D01*
X2758270Y7560730D01*
X2771140Y7556500D01*
X2784010Y7560730D01*
X2793660Y7571310D01*
X2800100Y7584010D01*
X2804920Y7600950D01*
X2806530Y7620000D01*
X2804920Y7639050D01*
X2800100Y7655990D01*
X2793660Y7668680D01*
X2784010Y7679270D01*
X2771140Y7683500D01*
G01X2870110Y7662330D02*
X2879770Y7675030D01*
X2891030Y7681380D01*
X2903900Y7683500D01*
X2919980Y7679270D01*
X2931250Y7668680D01*
X2934460Y7655990D01*
X2932850Y7643280D01*
X2926420Y7632700D01*
X2894250Y7611530D01*
X2879770Y7596720D01*
X2870110Y7575550D01*
X2866900Y7556500D01*
X2934460D01*
G01X2753000Y9531000D02*
X2245000D01*
Y7753000D01*
X2753000D01*
Y9531000D01*
G01X2626000Y7753000D02*
X2562500Y7816500D01*
X2435500D01*
X2372000Y7753000D01*
G01X2541780Y10363200D02*
X2609340Y10490200D01*
G01X2541780D02*
X2609340Y10363200D01*
G01X2717970Y10430930D02*
X2724400Y10437280D01*
X2729230Y10447860D01*
X2732450Y10462690D01*
X2729230Y10475380D01*
X2722800Y10483850D01*
X2711530Y10490200D01*
X2668100D01*
Y10363200D01*
X2721190D01*
X2732450Y10371660D01*
X2738880Y10384370D01*
X2742100Y10399180D01*
X2738880Y10414000D01*
X2729230Y10426700D01*
X2717970Y10430930D01*
X2668100D01*
G01X2853940Y10363200D02*
Y10490200D01*
X2794420Y10399180D01*
X2874860D01*
G01X3111500Y4125380D02*
X3238500D01*
Y4085170D01*
X3232150Y4072300D01*
X3223680Y4064250D01*
X3206750Y4061040D01*
X3189820Y4064250D01*
X3179230Y4073910D01*
X3172880Y4085170D01*
Y4125380D01*
G01Y4085170D02*
X3111500Y4061040D01*
G01Y3944370D02*
X3238500D01*
X3147480Y4003890D01*
Y3923450D01*
G01X3238500Y3834130D02*
X3234270Y3847000D01*
X3223680Y3856650D01*
X3210990Y3863090D01*
X3194050Y3867910D01*
X3175000Y3869520D01*
X3155950Y3867910D01*
X3139010Y3863090D01*
X3126310Y3856650D01*
X3115730Y3847000D01*
X3111500Y3834130D01*
X3115730Y3821260D01*
X3126310Y3811610D01*
X3139010Y3805170D01*
X3155950Y3800350D01*
X3175000Y3798740D01*
X3194050Y3800350D01*
X3210990Y3805170D01*
X3223680Y3811610D01*
X3234270Y3821260D01*
X3238500Y3834130D01*
G01X3111500Y3707810D02*
X3139010Y3704590D01*
X3162300Y3699760D01*
X3183470Y3693330D01*
X3206750Y3685290D01*
X3238500Y3672420D01*
Y3736760D01*
G01X2844800Y4138080D02*
X2971800D01*
Y4097870D01*
X2965450Y4085000D01*
X2956980Y4076950D01*
X2940050Y4073740D01*
X2923120Y4076950D01*
X2912530Y4086610D01*
X2906180Y4097870D01*
Y4138080D01*
G01Y4097870D02*
X2844800Y4073740D01*
G01Y3957070D02*
X2971800D01*
X2880780Y4016590D01*
Y3936150D01*
G01X2971800Y3846830D02*
X2967570Y3859700D01*
X2956980Y3869350D01*
X2944290Y3875790D01*
X2927350Y3880610D01*
X2908300Y3882220D01*
X2889250Y3880610D01*
X2872310Y3875790D01*
X2859610Y3869350D01*
X2849030Y3859700D01*
X2844800Y3846830D01*
X2849030Y3833960D01*
X2859610Y3824310D01*
X2872310Y3817870D01*
X2889250Y3813050D01*
X2908300Y3811440D01*
X2927350Y3813050D01*
X2944290Y3817870D01*
X2956980Y3824310D01*
X2967570Y3833960D01*
X2971800Y3846830D01*
G01X2844800Y3717290D02*
X2846920Y3706030D01*
X2853260Y3693160D01*
X2863850Y3685120D01*
X2878670Y3681900D01*
X2893480Y3685120D01*
X2906180Y3694770D01*
X2912530Y3709250D01*
Y3725330D01*
X2916770Y3734990D01*
X2927350Y3743030D01*
X2942170Y3746250D01*
X2956980Y3741420D01*
X2967570Y3730160D01*
X2971800Y3717290D01*
X2967570Y3704420D01*
X2956980Y3693160D01*
X2942170Y3688330D01*
X2927350Y3691550D01*
X2916770Y3699590D01*
X2912530Y3709250D01*
Y3725330D01*
X2906180Y3739810D01*
X2893480Y3749460D01*
X2878670Y3752680D01*
X2863850Y3749460D01*
X2853260Y3741420D01*
X2846920Y3728550D01*
X2844800Y3717290D01*
G01X3297000Y5187600D02*
Y4476400D01*
X3043000D01*
Y5187600D01*
X3297000D01*
G01X3037000D02*
Y4476400D01*
X2783000D01*
Y5187600D01*
X3037000D01*
G01X3557000Y5697600D02*
Y4986400D01*
X3303000D01*
Y5697600D01*
X3557000D01*
G01X3303000Y5596000D02*
X3557000D01*
G01Y5532500D02*
X3303000D01*
G01X2795700Y5936360D02*
G02Y5509640I113771J-213360D01*
G01Y5936360D02*
Y5509640D01*
G01X3365500Y6490800D02*
X3492500D01*
Y6458630D01*
X3486150Y6445760D01*
X3477680Y6436110D01*
X3464990Y6428060D01*
X3450160Y6421630D01*
X3429000Y6420020D01*
X3407830Y6421630D01*
X3393010Y6428060D01*
X3380310Y6436110D01*
X3371850Y6445760D01*
X3365500Y6458630D01*
Y6490800D01*
G01Y6306570D02*
X3492500D01*
X3401480Y6366090D01*
Y6285650D01*
G01X3492500Y6196330D02*
X3488270Y6209200D01*
X3477680Y6218850D01*
X3464990Y6225290D01*
X3448050Y6230110D01*
X3429000Y6231720D01*
X3409950Y6230110D01*
X3393010Y6225290D01*
X3380310Y6218850D01*
X3369730Y6209200D01*
X3365500Y6196330D01*
X3369730Y6183460D01*
X3380310Y6173810D01*
X3393010Y6167370D01*
X3409950Y6162550D01*
X3429000Y6160940D01*
X3448050Y6162550D01*
X3464990Y6167370D01*
X3477680Y6173810D01*
X3488270Y6183460D01*
X3492500Y6196330D01*
G01X3365500Y6047490D02*
X3492500D01*
X3401480Y6107010D01*
Y6026570D01*
G01X2946400Y6466840D02*
X2948520Y6479710D01*
X2956980Y6490970D01*
X2969680Y6500620D01*
X2984500Y6507060D01*
X3001430Y6510280D01*
X3018370D01*
X3035300Y6507060D01*
X3050120Y6500620D01*
X3062820Y6490970D01*
X3071280Y6479710D01*
X3073400Y6466840D01*
X3071280Y6453970D01*
X3062820Y6442710D01*
X3050120Y6433060D01*
X3035300Y6426620D01*
X3018370Y6423400D01*
X3001430D01*
X2984500Y6426620D01*
X2969680Y6433060D01*
X2956980Y6442710D01*
X2948520Y6453970D01*
X2946400Y6466840D01*
G01X2980270Y6453970D02*
X2946400Y6434670D01*
G01Y6318000D02*
X3073400D01*
X2982380Y6377520D01*
Y6297080D01*
G01X3073400Y6207760D02*
X3069170Y6220630D01*
X3058580Y6230280D01*
X3045890Y6236720D01*
X3028950Y6241540D01*
X3009900Y6243150D01*
X2990850Y6241540D01*
X2973910Y6236720D01*
X2961210Y6230280D01*
X2950630Y6220630D01*
X2946400Y6207760D01*
X2950630Y6194890D01*
X2961210Y6185240D01*
X2973910Y6178800D01*
X2990850Y6173980D01*
X3009900Y6172370D01*
X3028950Y6173980D01*
X3045890Y6178800D01*
X3058580Y6185240D01*
X3069170Y6194890D01*
X3073400Y6207760D01*
G01X2946400Y6058920D02*
X3073400D01*
X2982380Y6118440D01*
Y6038000D01*
G01X4141980Y571500D02*
X4209540Y698500D01*
G01X4141980D02*
X4209540Y571500D01*
G01X4337470D02*
X4273130D01*
Y698500D01*
X4337470D01*
G01X4311730Y637120D02*
X4273130D01*
G01X4454140Y571500D02*
Y698500D01*
X4394620Y607480D01*
X4475060D01*
G01X3748620Y2540000D02*
Y2667000D01*
X3788830D01*
X3801700Y2660650D01*
X3809750Y2652180D01*
X3812960Y2635250D01*
X3809750Y2618320D01*
X3800090Y2607730D01*
X3788830Y2601380D01*
X3748620D01*
G01X3788830D02*
X3812960Y2540000D01*
G01X3929630D02*
Y2667000D01*
X3870110Y2575980D01*
X3950550D01*
G01X4039870Y2540000D02*
Y2667000D01*
X4020570Y2641600D01*
G01Y2540000D02*
X4059170D01*
G01X4142060Y2554810D02*
X4153320Y2544230D01*
X4166190Y2540000D01*
X4179060Y2544230D01*
X4190320Y2556930D01*
X4198370Y2575980D01*
X4201580Y2595030D01*
Y2618320D01*
X4198370Y2637370D01*
X4190320Y2654300D01*
X4180670Y2662770D01*
X4169410Y2667000D01*
X4156540Y2662770D01*
X4146890Y2654300D01*
X4140450Y2641600D01*
X4137240Y2624660D01*
X4140450Y2609850D01*
X4148500Y2595030D01*
X4158150Y2586560D01*
X4169410Y2584450D01*
X4182280Y2588680D01*
X4191930Y2599270D01*
X4201580Y2618320D01*
G01X4367600Y3238000D02*
X3656400D01*
Y3492000D01*
X4367600D01*
Y3238000D01*
G01X4368800Y2730500D02*
X3657600D01*
Y2984500D01*
X4368800D01*
Y2730500D01*
G01X3761320Y3568700D02*
Y3695700D01*
X3801530D01*
X3814400Y3689350D01*
X3822450Y3680880D01*
X3825660Y3663950D01*
X3822450Y3647020D01*
X3812790Y3636430D01*
X3801530Y3630080D01*
X3761320D01*
G01X3801530D02*
X3825660Y3568700D01*
G01X3942330D02*
Y3695700D01*
X3882810Y3604680D01*
X3963250D01*
G01X4052570Y3568700D02*
Y3695700D01*
X4033270Y3670300D01*
G01Y3568700D02*
X4071870D01*
G01X4182110D02*
X4193370Y3570820D01*
X4206240Y3577160D01*
X4214280Y3587750D01*
X4217500Y3602570D01*
X4214280Y3617380D01*
X4204630Y3630080D01*
X4190150Y3636430D01*
X4174070D01*
X4164410Y3640670D01*
X4156370Y3651250D01*
X4153150Y3666070D01*
X4157980Y3680880D01*
X4169240Y3691470D01*
X4182110Y3695700D01*
X4194980Y3691470D01*
X4206240Y3680880D01*
X4211070Y3666070D01*
X4207850Y3651250D01*
X4199810Y3640670D01*
X4190150Y3636430D01*
X4174070D01*
X4159590Y3630080D01*
X4149940Y3617380D01*
X4146720Y3602570D01*
X4149940Y3587750D01*
X4157980Y3577160D01*
X4170850Y3570820D01*
X4182110Y3568700D01*
G01X4927600Y365760D02*
X4800600D01*
X4826000Y346460D01*
G01X4927600D02*
Y385060D01*
G01X5549900Y1968500D02*
X5397500D01*
X5334000Y2032000D01*
X5207000D01*
X5143500Y1968500D01*
X4991100D01*
Y4508500D01*
X5549900D01*
Y1968500D01*
G01X5269400Y1892300D02*
Y1801280D01*
X5275830Y1782230D01*
X5288700Y1769530D01*
X5304790Y1765300D01*
X5320880Y1769530D01*
X5333750Y1782230D01*
X5340180Y1801280D01*
Y1892300D01*
G01X5453630Y1765300D02*
Y1892300D01*
X5394110Y1801280D01*
X5474550D01*
G01X5563870Y1892300D02*
X5551000Y1888070D01*
X5541350Y1877480D01*
X5534910Y1864790D01*
X5530090Y1847850D01*
X5528480Y1828800D01*
X5530090Y1809750D01*
X5534910Y1792810D01*
X5541350Y1780110D01*
X5551000Y1769530D01*
X5563870Y1765300D01*
X5576740Y1769530D01*
X5586390Y1780110D01*
X5592830Y1792810D01*
X5597650Y1809750D01*
X5599260Y1828800D01*
X5597650Y1847850D01*
X5592830Y1864790D01*
X5586390Y1877480D01*
X5576740Y1888070D01*
X5563870Y1892300D01*
G01X5693410Y1765300D02*
Y1892300D01*
X5674110Y1866900D01*
G01Y1765300D02*
X5712710D01*
G01X6085000Y988260D02*
X5958000D01*
X5983400Y968960D01*
G01X6085000D02*
Y1007560D01*
G01X5958000Y1117800D02*
X5962230Y1104930D01*
X5972820Y1095280D01*
X5985510Y1088840D01*
X6002450Y1084020D01*
X6021500Y1082410D01*
X6040550Y1084020D01*
X6057490Y1088840D01*
X6070190Y1095280D01*
X6080770Y1104930D01*
X6085000Y1117800D01*
X6080770Y1130670D01*
X6070190Y1140320D01*
X6057490Y1146760D01*
X6040550Y1151580D01*
X6021500Y1153190D01*
X6002450Y1151580D01*
X5985510Y1146760D01*
X5972820Y1140320D01*
X5962230Y1130670D01*
X5958000Y1117800D01*
G01X6305380Y1589620D02*
X6295730Y1595970D01*
X6284470Y1600200D01*
X6271600D01*
X6257120Y1593850D01*
X6245860Y1583270D01*
X6237820Y1570570D01*
X6231380Y1549400D01*
X6229770Y1530350D01*
X6232990Y1511300D01*
X6237820Y1498600D01*
X6247470Y1485900D01*
X6258730Y1477430D01*
X6269990Y1473200D01*
X6281250D01*
X6292510Y1477430D01*
X6302160Y1483780D01*
X6310210Y1492250D01*
G01X6418830Y1473200D02*
Y1600200D01*
X6359310Y1509180D01*
X6439750D01*
G01X6529070Y1600200D02*
X6516200Y1595970D01*
X6506550Y1585380D01*
X6500110Y1572690D01*
X6495290Y1555750D01*
X6493680Y1536700D01*
X6495290Y1517650D01*
X6500110Y1500710D01*
X6506550Y1488010D01*
X6516200Y1477430D01*
X6529070Y1473200D01*
X6541940Y1477430D01*
X6551590Y1488010D01*
X6558030Y1500710D01*
X6562850Y1517650D01*
X6564460Y1536700D01*
X6562850Y1555750D01*
X6558030Y1572690D01*
X6551590Y1585380D01*
X6541940Y1595970D01*
X6529070Y1600200D01*
G01X6658610Y1473200D02*
Y1600200D01*
X6639310Y1574800D01*
G01Y1473200D02*
X6677910D01*
G01X5956300Y1739920D02*
Y1638320D01*
G01X5905500Y1689120D02*
X6007100D01*
G01X6438900Y1905020D02*
G02X5930900I-254000J0D01*
G01Y2286020D01*
G02X6438900I254000J0D01*
G01Y1905020D01*
G01X6388100Y2960200D02*
X6515100D01*
Y2928030D01*
X6508750Y2915160D01*
X6500280Y2905510D01*
X6487590Y2897460D01*
X6472760Y2891030D01*
X6451600Y2889420D01*
X6430430Y2891030D01*
X6415610Y2897460D01*
X6402910Y2905510D01*
X6394450Y2915160D01*
X6388100Y2928030D01*
Y2960200D01*
G01Y2775970D02*
X6515100D01*
X6424080Y2835490D01*
Y2755050D01*
G01X6515100Y2665730D02*
X6510870Y2678600D01*
X6500280Y2688250D01*
X6487590Y2694690D01*
X6470650Y2699510D01*
X6451600Y2701120D01*
X6432550Y2699510D01*
X6415610Y2694690D01*
X6402910Y2688250D01*
X6392330Y2678600D01*
X6388100Y2665730D01*
X6392330Y2652860D01*
X6402910Y2643210D01*
X6415610Y2636770D01*
X6432550Y2631950D01*
X6451600Y2630340D01*
X6470650Y2631950D01*
X6487590Y2636770D01*
X6500280Y2643210D01*
X6510870Y2652860D01*
X6515100Y2665730D01*
G01X6402910Y2563540D02*
X6392330Y2552280D01*
X6388100Y2539410D01*
X6392330Y2526540D01*
X6405030Y2515280D01*
X6424080Y2507230D01*
X6443130Y2504020D01*
X6466420D01*
X6485470Y2507230D01*
X6502400Y2515280D01*
X6510870Y2524930D01*
X6515100Y2536190D01*
X6510870Y2549060D01*
X6502400Y2558710D01*
X6489700Y2565150D01*
X6472760Y2568360D01*
X6457950Y2565150D01*
X6443130Y2557100D01*
X6434660Y2547450D01*
X6432550Y2536190D01*
X6436780Y2523320D01*
X6447370Y2513670D01*
X6466420Y2504020D01*
G01X7277100Y2817280D02*
X7404100D01*
Y2777070D01*
X7397750Y2764200D01*
X7389280Y2756150D01*
X7372350Y2752940D01*
X7355420Y2756150D01*
X7344830Y2765810D01*
X7338480Y2777070D01*
Y2817280D01*
G01Y2777070D02*
X7277100Y2752940D01*
G01Y2636270D02*
X7404100D01*
X7313080Y2695790D01*
Y2615350D01*
G01X7277100Y2526030D02*
X7404100D01*
X7378700Y2545330D01*
G01X7277100D02*
Y2506730D01*
G01Y2399710D02*
X7304610Y2396490D01*
X7327900Y2391660D01*
X7349070Y2385230D01*
X7372350Y2377190D01*
X7404100Y2364320D01*
Y2428660D01*
G01X7162800Y2959100D02*
Y2247900D01*
X6908800D01*
Y2959100D01*
X7162800D01*
G01X6604000Y2247900D02*
Y2959100D01*
X6858000D01*
Y2247900D01*
X6604000D01*
G01X6858000Y2349500D02*
X6604000D01*
G01Y2413000D02*
X6858000D01*
G01X7159120Y4136380D02*
X7286120D01*
Y4096170D01*
X7279770Y4083300D01*
X7271300Y4075250D01*
X7254370Y4072040D01*
X7237440Y4075250D01*
X7226850Y4084910D01*
X7220500Y4096170D01*
Y4136380D01*
G01Y4096170D02*
X7159120Y4072040D01*
G01Y3955370D02*
X7286120D01*
X7195100Y4014890D01*
Y3934450D01*
G01X7159120Y3845130D02*
X7286120D01*
X7260720Y3864430D01*
G01X7159120D02*
Y3825830D01*
G01X7178170Y3750980D02*
X7167580Y3741330D01*
X7161240Y3730070D01*
X7159120Y3715590D01*
X7163350Y3701110D01*
X7171820Y3689850D01*
X7186630Y3681810D01*
X7203570Y3680200D01*
X7220500Y3683420D01*
X7231090Y3691460D01*
X7239550Y3702720D01*
X7241670Y3713980D01*
X7239550Y3725240D01*
X7231090Y3739720D01*
X7286120Y3734890D01*
Y3691460D01*
G01X6899120Y4136380D02*
X7026120D01*
Y4096170D01*
X7019770Y4083300D01*
X7011300Y4075250D01*
X6994370Y4072040D01*
X6977440Y4075250D01*
X6966850Y4084910D01*
X6960500Y4096170D01*
Y4136380D01*
G01Y4096170D02*
X6899120Y4072040D01*
G01Y3955370D02*
X7026120D01*
X6935100Y4014890D01*
Y3934450D01*
G01X6899120Y3845130D02*
X7026120D01*
X7000720Y3864430D01*
G01X6899120D02*
Y3825830D01*
G01X6952030Y3746160D02*
X6966850Y3734890D01*
X6975320Y3725240D01*
X6979550Y3712370D01*
X6975320Y3701110D01*
X6966850Y3693070D01*
X6954150Y3686630D01*
X6939340Y3685020D01*
X6926630Y3686630D01*
X6913930Y3693070D01*
X6903350Y3702720D01*
X6899120Y3713980D01*
X6903350Y3726850D01*
X6916050Y3738110D01*
X6935100Y3744550D01*
X6956270Y3746160D01*
X6983780Y3742940D01*
X6998610Y3738110D01*
X7013420Y3730070D01*
X7024000Y3718810D01*
X7026120Y3707550D01*
X7021890Y3696290D01*
X7011300Y3688240D01*
G01X7342000Y5192600D02*
Y4481400D01*
X7088000D01*
Y5192600D01*
X7342000D01*
G01X7082000D02*
Y4481400D01*
X6828000D01*
Y5192600D01*
X7082000D01*
G01X6840700Y5936360D02*
G02Y5509640I113771J-213360D01*
G01Y5936360D02*
Y5509640D01*
G01X6921500Y6530340D02*
X6923620Y6543210D01*
X6932080Y6554470D01*
X6944780Y6564120D01*
X6959600Y6570560D01*
X6976530Y6573780D01*
X6993470D01*
X7010400Y6570560D01*
X7025220Y6564120D01*
X7037920Y6554470D01*
X7046380Y6543210D01*
X7048500Y6530340D01*
X7046380Y6517470D01*
X7037920Y6506210D01*
X7025220Y6496560D01*
X7010400Y6490120D01*
X6993470Y6486900D01*
X6976530D01*
X6959600Y6490120D01*
X6944780Y6496560D01*
X6932080Y6506210D01*
X6923620Y6517470D01*
X6921500Y6530340D01*
G01X6955370Y6517470D02*
X6921500Y6498170D01*
G01Y6381500D02*
X7048500D01*
X6957480Y6441020D01*
Y6360580D01*
G01X7048500Y6271260D02*
X7044270Y6284130D01*
X7033680Y6293780D01*
X7020990Y6300220D01*
X7004050Y6305040D01*
X6985000Y6306650D01*
X6965950Y6305040D01*
X6949010Y6300220D01*
X6936310Y6293780D01*
X6925730Y6284130D01*
X6921500Y6271260D01*
X6925730Y6258390D01*
X6936310Y6248740D01*
X6949010Y6242300D01*
X6965950Y6237480D01*
X6985000Y6235870D01*
X7004050Y6237480D01*
X7020990Y6242300D01*
X7033680Y6248740D01*
X7044270Y6258390D01*
X7048500Y6271260D01*
G01X6921500Y6141720D02*
X6923620Y6130460D01*
X6929960Y6117590D01*
X6940550Y6109550D01*
X6955370Y6106330D01*
X6970180Y6109550D01*
X6982880Y6119200D01*
X6989230Y6133680D01*
Y6149760D01*
X6993470Y6159420D01*
X7004050Y6167460D01*
X7018870Y6170680D01*
X7033680Y6165850D01*
X7044270Y6154590D01*
X7048500Y6141720D01*
X7044270Y6128850D01*
X7033680Y6117590D01*
X7018870Y6112760D01*
X7004050Y6115980D01*
X6993470Y6124020D01*
X6989230Y6133680D01*
Y6149760D01*
X6982880Y6164240D01*
X6970180Y6173890D01*
X6955370Y6177110D01*
X6940550Y6173890D01*
X6929960Y6165850D01*
X6923620Y6152980D01*
X6921500Y6141720D01*
G01X7949120Y4136380D02*
X8076120D01*
Y4096170D01*
X8069770Y4083300D01*
X8061300Y4075250D01*
X8044370Y4072040D01*
X8027440Y4075250D01*
X8016850Y4084910D01*
X8010500Y4096170D01*
Y4136380D01*
G01Y4096170D02*
X7949120Y4072040D01*
G01Y3955370D02*
X8076120D01*
X7985100Y4014890D01*
Y3934450D01*
G01X7949120Y3845130D02*
X8076120D01*
X8050720Y3864430D01*
G01X7949120D02*
Y3825830D01*
G01X7974520Y3750980D02*
X7959700Y3741330D01*
X7951240Y3728460D01*
X7949120Y3713980D01*
X7951240Y3701110D01*
X7961820Y3688240D01*
X7974520Y3680200D01*
X7987220Y3678590D01*
X8002030Y3681810D01*
X8012620Y3693070D01*
X8016850Y3704330D01*
Y3718810D01*
G01Y3704330D02*
X8023200Y3694680D01*
X8033780Y3686630D01*
X8046490Y3683420D01*
X8059190Y3686630D01*
X8069770Y3694680D01*
X8076120Y3709160D01*
X8074000Y3723630D01*
X8065540Y3738110D01*
G01X7689120Y4136380D02*
X7816120D01*
Y4096170D01*
X7809770Y4083300D01*
X7801300Y4075250D01*
X7784370Y4072040D01*
X7767440Y4075250D01*
X7756850Y4084910D01*
X7750500Y4096170D01*
Y4136380D01*
G01Y4096170D02*
X7689120Y4072040D01*
G01Y3955370D02*
X7816120D01*
X7725100Y4014890D01*
Y3934450D01*
G01X7689120Y3845130D02*
X7816120D01*
X7790720Y3864430D01*
G01X7689120D02*
Y3825830D01*
G01Y3696290D02*
X7816120D01*
X7725100Y3755810D01*
Y3675370D01*
G01X8132000Y5192600D02*
Y4481400D01*
X7878000D01*
Y5192600D01*
X8132000D01*
G01X7872000D02*
Y4481400D01*
X7618000D01*
Y5192600D01*
X7872000D01*
G01X7607000Y5697600D02*
Y4986400D01*
X7353000D01*
Y5697600D01*
X7607000D01*
G01X7353000Y5596000D02*
X7607000D01*
G01Y5532500D02*
X7353000D01*
G01X7630700Y5936360D02*
G02Y5509640I113771J-213360D01*
G01Y5936360D02*
Y5509640D01*
G01X7404100Y6541600D02*
X7531100D01*
Y6509430D01*
X7524750Y6496560D01*
X7516280Y6486910D01*
X7503590Y6478860D01*
X7488760Y6472430D01*
X7467600Y6470820D01*
X7446430Y6472430D01*
X7431610Y6478860D01*
X7418910Y6486910D01*
X7410450Y6496560D01*
X7404100Y6509430D01*
Y6541600D01*
G01Y6357370D02*
X7531100D01*
X7440080Y6416890D01*
Y6336450D01*
G01X7531100Y6247130D02*
X7526870Y6260000D01*
X7516280Y6269650D01*
X7503590Y6276090D01*
X7486650Y6280910D01*
X7467600Y6282520D01*
X7448550Y6280910D01*
X7431610Y6276090D01*
X7418910Y6269650D01*
X7408330Y6260000D01*
X7404100Y6247130D01*
X7408330Y6234260D01*
X7418910Y6224610D01*
X7431610Y6218170D01*
X7448550Y6213350D01*
X7467600Y6211740D01*
X7486650Y6213350D01*
X7503590Y6218170D01*
X7516280Y6224610D01*
X7526870Y6234260D01*
X7531100Y6247130D01*
G01X7404100Y6117590D02*
X7406220Y6106330D01*
X7412560Y6093460D01*
X7423150Y6085420D01*
X7437970Y6082200D01*
X7452780Y6085420D01*
X7465480Y6095070D01*
X7471830Y6109550D01*
Y6125630D01*
X7476070Y6135290D01*
X7486650Y6143330D01*
X7501470Y6146550D01*
X7516280Y6141720D01*
X7526870Y6130460D01*
X7531100Y6117590D01*
X7526870Y6104720D01*
X7516280Y6093460D01*
X7501470Y6088630D01*
X7486650Y6091850D01*
X7476070Y6099890D01*
X7471830Y6109550D01*
Y6125630D01*
X7465480Y6140110D01*
X7452780Y6149760D01*
X7437970Y6152980D01*
X7423150Y6149760D01*
X7412560Y6141720D01*
X7406220Y6128850D01*
X7404100Y6117590D01*
G01X7747000Y6492240D02*
X7749120Y6505110D01*
X7757580Y6516370D01*
X7770280Y6526020D01*
X7785100Y6532460D01*
X7802030Y6535680D01*
X7818970D01*
X7835900Y6532460D01*
X7850720Y6526020D01*
X7863420Y6516370D01*
X7871880Y6505110D01*
X7874000Y6492240D01*
X7871880Y6479370D01*
X7863420Y6468110D01*
X7850720Y6458460D01*
X7835900Y6452020D01*
X7818970Y6448800D01*
X7802030D01*
X7785100Y6452020D01*
X7770280Y6458460D01*
X7757580Y6468110D01*
X7749120Y6479370D01*
X7747000Y6492240D01*
G01X7780870Y6479370D02*
X7747000Y6460070D01*
G01Y6343400D02*
X7874000D01*
X7782980Y6402920D01*
Y6322480D01*
G01X7874000Y6233160D02*
X7869770Y6246030D01*
X7859180Y6255680D01*
X7846490Y6262120D01*
X7829550Y6266940D01*
X7810500Y6268550D01*
X7791450Y6266940D01*
X7774510Y6262120D01*
X7761810Y6255680D01*
X7751230Y6246030D01*
X7747000Y6233160D01*
X7751230Y6220290D01*
X7761810Y6210640D01*
X7774510Y6204200D01*
X7791450Y6199380D01*
X7810500Y6197770D01*
X7829550Y6199380D01*
X7846490Y6204200D01*
X7859180Y6210640D01*
X7869770Y6220290D01*
X7874000Y6233160D01*
G01X7747000Y6106840D02*
X7774510Y6103620D01*
X7797800Y6098790D01*
X7818970Y6092360D01*
X7842250Y6084320D01*
X7874000Y6071450D01*
Y6135790D01*
G01X7469380Y7073900D02*
X7536940Y7200900D01*
G01X7469380D02*
X7536940Y7073900D01*
G01X7668090Y7190320D02*
X7658440Y7196670D01*
X7647180Y7200900D01*
X7634310D01*
X7619830Y7194550D01*
X7608570Y7183970D01*
X7600530Y7171270D01*
X7594090Y7150100D01*
X7592480Y7131050D01*
X7595700Y7112000D01*
X7600530Y7099300D01*
X7610180Y7086600D01*
X7621440Y7078130D01*
X7632700Y7073900D01*
X7643960D01*
X7655220Y7078130D01*
X7664870Y7084480D01*
X7672920Y7092950D01*
G01X7781540Y7073900D02*
Y7200900D01*
X7722020Y7109880D01*
X7802460D01*
G01X8153400Y6804660D02*
X8026400D01*
X8051800Y6785360D01*
G01X8153400D02*
Y6823960D01*
G01X7552000Y7759000D02*
X8060000D01*
Y9537000D01*
X7552000D01*
Y7759000D01*
G01X7679000Y9537000D02*
X7742500Y9473500D01*
X7869500D01*
X7933000Y9537000D01*
G01X7417650Y9613900D02*
Y9740900D01*
X7457860D01*
X7470730Y9734550D01*
X7478780Y9726080D01*
X7481990Y9709150D01*
X7478780Y9692220D01*
X7469120Y9681630D01*
X7457860Y9675280D01*
X7417650D01*
G01X7457860D02*
X7481990Y9613900D01*
G01X7611530D02*
X7547190D01*
Y9740900D01*
X7611530D01*
G01X7585790Y9679520D02*
X7547190D01*
G01X7728200Y9613900D02*
Y9740900D01*
X7668680Y9649880D01*
X7749120D01*
G01X7838440Y9740900D02*
X7825570Y9736670D01*
X7815920Y9726080D01*
X7809480Y9713390D01*
X7804660Y9696450D01*
X7803050Y9677400D01*
X7804660Y9658350D01*
X7809480Y9641410D01*
X7815920Y9628710D01*
X7825570Y9618130D01*
X7838440Y9613900D01*
X7851310Y9618130D01*
X7860960Y9628710D01*
X7867400Y9641410D01*
X7872220Y9658350D01*
X7873830Y9677400D01*
X7872220Y9696450D01*
X7867400Y9713390D01*
X7860960Y9726080D01*
X7851310Y9736670D01*
X7838440Y9740900D01*
G01X7932590Y9639300D02*
X7942240Y9624480D01*
X7955110Y9616020D01*
X7969590Y9613900D01*
X7982460Y9616020D01*
X7995330Y9626600D01*
X8003370Y9639300D01*
X8004980Y9652000D01*
X8001760Y9666810D01*
X7990500Y9677400D01*
X7979240Y9681630D01*
X7964760D01*
G01X7979240D02*
X7988890Y9687980D01*
X7996940Y9698560D01*
X8000150Y9711270D01*
X7996940Y9723970D01*
X7988890Y9734550D01*
X7974410Y9740900D01*
X7959940Y9738780D01*
X7945460Y9730320D01*
G01X7580000Y12550000D02*
X9820000D01*
Y10350000D01*
X7580000D01*
Y12550000D01*
G01Y12350000D02*
X9820000D01*
G01X8734120Y4136380D02*
X8861120D01*
Y4096170D01*
X8854770Y4083300D01*
X8846300Y4075250D01*
X8829370Y4072040D01*
X8812440Y4075250D01*
X8801850Y4084910D01*
X8795500Y4096170D01*
Y4136380D01*
G01Y4096170D02*
X8734120Y4072040D01*
G01Y3955370D02*
X8861120D01*
X8770100Y4014890D01*
Y3934450D01*
G01X8861120Y3845130D02*
X8856890Y3858000D01*
X8846300Y3867650D01*
X8833610Y3874090D01*
X8816670Y3878910D01*
X8797620Y3880520D01*
X8778570Y3878910D01*
X8761630Y3874090D01*
X8748930Y3867650D01*
X8738350Y3858000D01*
X8734120Y3845130D01*
X8738350Y3832260D01*
X8748930Y3822610D01*
X8761630Y3816170D01*
X8778570Y3811350D01*
X8797620Y3809740D01*
X8816670Y3811350D01*
X8833610Y3816170D01*
X8846300Y3822610D01*
X8856890Y3832260D01*
X8861120Y3845130D01*
G01X8748930Y3742940D02*
X8738350Y3731680D01*
X8734120Y3718810D01*
X8738350Y3705940D01*
X8751050Y3694680D01*
X8770100Y3686630D01*
X8789150Y3683420D01*
X8812440D01*
X8831490Y3686630D01*
X8848420Y3694680D01*
X8856890Y3704330D01*
X8861120Y3715590D01*
X8856890Y3728460D01*
X8848420Y3738110D01*
X8835720Y3744550D01*
X8818780Y3747760D01*
X8803970Y3744550D01*
X8789150Y3736500D01*
X8780680Y3726850D01*
X8778570Y3715590D01*
X8782800Y3702720D01*
X8793390Y3693070D01*
X8812440Y3683420D01*
G01X8474120Y4136380D02*
X8601120D01*
Y4096170D01*
X8594770Y4083300D01*
X8586300Y4075250D01*
X8569370Y4072040D01*
X8552440Y4075250D01*
X8541850Y4084910D01*
X8535500Y4096170D01*
Y4136380D01*
G01Y4096170D02*
X8474120Y4072040D01*
G01Y3955370D02*
X8601120D01*
X8510100Y4014890D01*
Y3934450D01*
G01X8474120Y3845130D02*
X8601120D01*
X8575720Y3864430D01*
G01X8474120D02*
Y3825830D01*
G01X8601120Y3715590D02*
X8596890Y3728460D01*
X8586300Y3738110D01*
X8573610Y3744550D01*
X8556670Y3749370D01*
X8537620Y3750980D01*
X8518570Y3749370D01*
X8501630Y3744550D01*
X8488930Y3738110D01*
X8478350Y3728460D01*
X8474120Y3715590D01*
X8478350Y3702720D01*
X8488930Y3693070D01*
X8501630Y3686630D01*
X8518570Y3681810D01*
X8537620Y3680200D01*
X8556670Y3681810D01*
X8573610Y3686630D01*
X8586300Y3693070D01*
X8596890Y3702720D01*
X8601120Y3715590D01*
G01X8917000Y5192600D02*
Y4481400D01*
X8663000D01*
Y5192600D01*
X8917000D01*
G01X8657000D02*
Y4481400D01*
X8403000D01*
Y5192600D01*
X8657000D01*
G01X8392000Y5697600D02*
Y4986400D01*
X8138000D01*
Y5697600D01*
X8392000D01*
G01X8138000Y5596000D02*
X8392000D01*
G01Y5532500D02*
X8138000D01*
G01X8400700Y5936360D02*
G02Y5509640I113771J-213360D01*
G01Y5936360D02*
Y5509640D01*
G01X8178800Y6541600D02*
X8305800D01*
Y6509430D01*
X8299450Y6496560D01*
X8290980Y6486910D01*
X8278290Y6478860D01*
X8263460Y6472430D01*
X8242300Y6470820D01*
X8221130Y6472430D01*
X8206310Y6478860D01*
X8193610Y6486910D01*
X8185150Y6496560D01*
X8178800Y6509430D01*
Y6541600D01*
G01Y6357370D02*
X8305800D01*
X8214780Y6416890D01*
Y6336450D01*
G01X8305800Y6247130D02*
X8301570Y6260000D01*
X8290980Y6269650D01*
X8278290Y6276090D01*
X8261350Y6280910D01*
X8242300Y6282520D01*
X8223250Y6280910D01*
X8206310Y6276090D01*
X8193610Y6269650D01*
X8183030Y6260000D01*
X8178800Y6247130D01*
X8183030Y6234260D01*
X8193610Y6224610D01*
X8206310Y6218170D01*
X8223250Y6213350D01*
X8242300Y6211740D01*
X8261350Y6213350D01*
X8278290Y6218170D01*
X8290980Y6224610D01*
X8301570Y6234260D01*
X8305800Y6247130D01*
G01X8178800Y6120810D02*
X8206310Y6117590D01*
X8229600Y6112760D01*
X8250770Y6106330D01*
X8274050Y6098290D01*
X8305800Y6085420D01*
Y6149760D01*
G01X8534400Y6504940D02*
X8536520Y6517810D01*
X8544980Y6529070D01*
X8557680Y6538720D01*
X8572500Y6545160D01*
X8589430Y6548380D01*
X8606370D01*
X8623300Y6545160D01*
X8638120Y6538720D01*
X8650820Y6529070D01*
X8659280Y6517810D01*
X8661400Y6504940D01*
X8659280Y6492070D01*
X8650820Y6480810D01*
X8638120Y6471160D01*
X8623300Y6464720D01*
X8606370Y6461500D01*
X8589430D01*
X8572500Y6464720D01*
X8557680Y6471160D01*
X8544980Y6480810D01*
X8536520Y6492070D01*
X8534400Y6504940D01*
G01X8568270Y6492070D02*
X8534400Y6472770D01*
G01Y6356100D02*
X8661400D01*
X8570380Y6415620D01*
Y6335180D01*
G01X8661400Y6245860D02*
X8657170Y6258730D01*
X8646580Y6268380D01*
X8633890Y6274820D01*
X8616950Y6279640D01*
X8597900Y6281250D01*
X8578850Y6279640D01*
X8561910Y6274820D01*
X8549210Y6268380D01*
X8538630Y6258730D01*
X8534400Y6245860D01*
X8538630Y6232990D01*
X8549210Y6223340D01*
X8561910Y6216900D01*
X8578850Y6212080D01*
X8597900Y6210470D01*
X8616950Y6212080D01*
X8633890Y6216900D01*
X8646580Y6223340D01*
X8657170Y6232990D01*
X8661400Y6245860D01*
G01X8553450Y6151710D02*
X8542860Y6142060D01*
X8536520Y6130800D01*
X8534400Y6116320D01*
X8538630Y6101840D01*
X8547100Y6090580D01*
X8561910Y6082540D01*
X8578850Y6080930D01*
X8595780Y6084150D01*
X8606370Y6092190D01*
X8614830Y6103450D01*
X8616950Y6114710D01*
X8614830Y6125970D01*
X8606370Y6140450D01*
X8661400Y6135620D01*
Y6092190D01*
G01X8100000Y10350000D02*
X9300000D01*
Y9850000D01*
X8100000D01*
Y10350000D01*
G01X8090000Y12350000D02*
X8340000D01*
Y12050000D01*
X8090000D01*
Y12350000D01*
G01X9514120Y4136380D02*
X9641120D01*
Y4096170D01*
X9634770Y4083300D01*
X9626300Y4075250D01*
X9609370Y4072040D01*
X9592440Y4075250D01*
X9581850Y4084910D01*
X9575500Y4096170D01*
Y4136380D01*
G01Y4096170D02*
X9514120Y4072040D01*
G01Y3955370D02*
X9641120D01*
X9550100Y4014890D01*
Y3934450D01*
G01X9514120Y3845130D02*
X9641120D01*
X9615720Y3864430D01*
G01X9514120D02*
Y3825830D01*
G01Y3715590D02*
X9641120D01*
X9615720Y3734890D01*
G01X9514120D02*
Y3696290D01*
G01X9254120Y4136380D02*
X9381120D01*
Y4096170D01*
X9374770Y4083300D01*
X9366300Y4075250D01*
X9349370Y4072040D01*
X9332440Y4075250D01*
X9321850Y4084910D01*
X9315500Y4096170D01*
Y4136380D01*
G01Y4096170D02*
X9254120Y4072040D01*
G01Y3955370D02*
X9381120D01*
X9290100Y4014890D01*
Y3934450D01*
G01X9254120Y3845130D02*
X9381120D01*
X9355720Y3864430D01*
G01X9254120D02*
Y3825830D01*
G01X9359950Y3746160D02*
X9372650Y3736500D01*
X9379000Y3725240D01*
X9381120Y3712370D01*
X9376890Y3696290D01*
X9366300Y3685020D01*
X9353610Y3681810D01*
X9340900Y3683420D01*
X9330320Y3689850D01*
X9309150Y3722020D01*
X9294340Y3736500D01*
X9273170Y3746160D01*
X9254120Y3749370D01*
Y3681810D01*
G01X9697000Y5192600D02*
Y4481400D01*
X9443000D01*
Y5192600D01*
X9697000D01*
G01X9437000D02*
Y4481400D01*
X9183000D01*
Y5192600D01*
X9437000D01*
G01X9177000Y5697600D02*
Y4986400D01*
X8923000D01*
Y5697600D01*
X9177000D01*
G01X8923000Y5596000D02*
X9177000D01*
G01Y5532500D02*
X8923000D01*
G01X9195700Y5936360D02*
G02Y5509640I113771J-213360D01*
G01Y5936360D02*
Y5509640D01*
G01X8953500Y6541600D02*
X9080500D01*
Y6509430D01*
X9074150Y6496560D01*
X9065680Y6486910D01*
X9052990Y6478860D01*
X9038160Y6472430D01*
X9017000Y6470820D01*
X8995830Y6472430D01*
X8981010Y6478860D01*
X8968310Y6486910D01*
X8959850Y6496560D01*
X8953500Y6509430D01*
Y6541600D01*
G01Y6357370D02*
X9080500D01*
X8989480Y6416890D01*
Y6336450D01*
G01X9080500Y6247130D02*
X9076270Y6260000D01*
X9065680Y6269650D01*
X9052990Y6276090D01*
X9036050Y6280910D01*
X9017000Y6282520D01*
X8997950Y6280910D01*
X8981010Y6276090D01*
X8968310Y6269650D01*
X8957730Y6260000D01*
X8953500Y6247130D01*
X8957730Y6234260D01*
X8968310Y6224610D01*
X8981010Y6218170D01*
X8997950Y6213350D01*
X9017000Y6211740D01*
X9036050Y6213350D01*
X9052990Y6218170D01*
X9065680Y6224610D01*
X9076270Y6234260D01*
X9080500Y6247130D01*
G01X8972550Y6152980D02*
X8961960Y6143330D01*
X8955620Y6132070D01*
X8953500Y6117590D01*
X8957730Y6103110D01*
X8966200Y6091850D01*
X8981010Y6083810D01*
X8997950Y6082200D01*
X9014880Y6085420D01*
X9025470Y6093460D01*
X9033930Y6104720D01*
X9036050Y6115980D01*
X9033930Y6127240D01*
X9025470Y6141720D01*
X9080500Y6136890D01*
Y6093460D01*
G01X9359900Y6492240D02*
X9362020Y6505110D01*
X9370480Y6516370D01*
X9383180Y6526020D01*
X9398000Y6532460D01*
X9414930Y6535680D01*
X9431870D01*
X9448800Y6532460D01*
X9463620Y6526020D01*
X9476320Y6516370D01*
X9484780Y6505110D01*
X9486900Y6492240D01*
X9484780Y6479370D01*
X9476320Y6468110D01*
X9463620Y6458460D01*
X9448800Y6452020D01*
X9431870Y6448800D01*
X9414930D01*
X9398000Y6452020D01*
X9383180Y6458460D01*
X9370480Y6468110D01*
X9362020Y6479370D01*
X9359900Y6492240D01*
G01X9393770Y6479370D02*
X9359900Y6460070D01*
G01Y6343400D02*
X9486900D01*
X9395880Y6402920D01*
Y6322480D01*
G01X9486900Y6233160D02*
X9482670Y6246030D01*
X9472080Y6255680D01*
X9459390Y6262120D01*
X9442450Y6266940D01*
X9423400Y6268550D01*
X9404350Y6266940D01*
X9387410Y6262120D01*
X9374710Y6255680D01*
X9364130Y6246030D01*
X9359900Y6233160D01*
X9364130Y6220290D01*
X9374710Y6210640D01*
X9387410Y6204200D01*
X9404350Y6199380D01*
X9423400Y6197770D01*
X9442450Y6199380D01*
X9459390Y6204200D01*
X9472080Y6210640D01*
X9482670Y6220290D01*
X9486900Y6233160D01*
G01X9412810Y6134190D02*
X9427630Y6122920D01*
X9436100Y6113270D01*
X9440330Y6100400D01*
X9436100Y6089140D01*
X9427630Y6081100D01*
X9414930Y6074660D01*
X9400120Y6073050D01*
X9387410Y6074660D01*
X9374710Y6081100D01*
X9364130Y6090750D01*
X9359900Y6102010D01*
X9364130Y6114880D01*
X9376830Y6126140D01*
X9395880Y6132580D01*
X9417050Y6134190D01*
X9444560Y6130970D01*
X9459390Y6126140D01*
X9474200Y6118100D01*
X9484780Y6106840D01*
X9486900Y6095580D01*
X9482670Y6084320D01*
X9472080Y6076270D01*
G01X9677400Y7211060D02*
X9550400D01*
X9575800Y7191760D01*
G01X9677400D02*
Y7230360D01*
G01X9550400Y7340600D02*
X9554630Y7327730D01*
X9565220Y7318080D01*
X9577910Y7311640D01*
X9594850Y7306820D01*
X9613900Y7305210D01*
X9632950Y7306820D01*
X9649890Y7311640D01*
X9662590Y7318080D01*
X9673170Y7327730D01*
X9677400Y7340600D01*
X9673170Y7353470D01*
X9662590Y7363120D01*
X9649890Y7369560D01*
X9632950Y7374380D01*
X9613900Y7375990D01*
X9594850Y7374380D01*
X9577910Y7369560D01*
X9565220Y7363120D01*
X9554630Y7353470D01*
X9550400Y7340600D01*
G01X9411550Y7543800D02*
Y7670800D01*
X9451760D01*
X9464630Y7664450D01*
X9472680Y7655980D01*
X9475890Y7639050D01*
X9472680Y7622120D01*
X9463020Y7611530D01*
X9451760Y7605180D01*
X9411550D01*
G01X9451760D02*
X9475890Y7543800D01*
G01X9605430D02*
X9541090D01*
Y7670800D01*
X9605430D01*
G01X9579690Y7609420D02*
X9541090D01*
G01X9722100Y7543800D02*
Y7670800D01*
X9662580Y7579780D01*
X9743020D01*
G01X9832340Y7670800D02*
X9819470Y7666570D01*
X9809820Y7655980D01*
X9803380Y7643290D01*
X9798560Y7626350D01*
X9796950Y7607300D01*
X9798560Y7588250D01*
X9803380Y7571310D01*
X9809820Y7558610D01*
X9819470Y7548030D01*
X9832340Y7543800D01*
X9845210Y7548030D01*
X9854860Y7558610D01*
X9861300Y7571310D01*
X9866120Y7588250D01*
X9867730Y7607300D01*
X9866120Y7626350D01*
X9861300Y7643290D01*
X9854860Y7655980D01*
X9845210Y7666570D01*
X9832340Y7670800D01*
G01X9981180Y7543800D02*
Y7670800D01*
X9921660Y7579780D01*
X10002100D01*
G01X9723000Y9531000D02*
X9215000D01*
Y7753000D01*
X9723000D01*
Y9531000D01*
G01X9596000Y7753000D02*
X9532500Y7816500D01*
X9405500D01*
X9342000Y7753000D01*
G01X9060000Y12350000D02*
X9310000D01*
Y12050000D01*
X9060000D01*
Y12350000D01*
G01X9957000Y5697600D02*
Y4986400D01*
X9703000D01*
Y5697600D01*
X9957000D01*
G01X9703000Y5596000D02*
X9957000D01*
G01Y5532500D02*
X9703000D01*
G01X9753600Y6516200D02*
X9880600D01*
Y6484030D01*
X9874250Y6471160D01*
X9865780Y6461510D01*
X9853090Y6453460D01*
X9838260Y6447030D01*
X9817100Y6445420D01*
X9795930Y6447030D01*
X9781110Y6453460D01*
X9768410Y6461510D01*
X9759950Y6471160D01*
X9753600Y6484030D01*
Y6516200D01*
G01Y6331970D02*
X9880600D01*
X9789580Y6391490D01*
Y6311050D01*
G01X9880600Y6221730D02*
X9876370Y6234600D01*
X9865780Y6244250D01*
X9853090Y6250690D01*
X9836150Y6255510D01*
X9817100Y6257120D01*
X9798050Y6255510D01*
X9781110Y6250690D01*
X9768410Y6244250D01*
X9757830Y6234600D01*
X9753600Y6221730D01*
X9757830Y6208860D01*
X9768410Y6199210D01*
X9781110Y6192770D01*
X9798050Y6187950D01*
X9817100Y6186340D01*
X9836150Y6187950D01*
X9853090Y6192770D01*
X9865780Y6199210D01*
X9876370Y6208860D01*
X9880600Y6221730D01*
G01X9806510Y6122760D02*
X9821330Y6111490D01*
X9829800Y6101840D01*
X9834030Y6088970D01*
X9829800Y6077710D01*
X9821330Y6069670D01*
X9808630Y6063230D01*
X9793820Y6061620D01*
X9781110Y6063230D01*
X9768410Y6069670D01*
X9757830Y6079320D01*
X9753600Y6090580D01*
X9757830Y6103450D01*
X9770530Y6114710D01*
X9789580Y6121150D01*
X9810750Y6122760D01*
X9838260Y6119540D01*
X9853090Y6114710D01*
X9867900Y6106670D01*
X9878480Y6095410D01*
X9880600Y6084150D01*
X9876370Y6072890D01*
X9865780Y6064840D01*
G01X9793480Y10134600D02*
X9861040Y10261600D01*
G01X9793480D02*
X9861040Y10134600D01*
G01X9921410D02*
Y10261600D01*
X9953580D01*
X9966450Y10255250D01*
X9976100Y10246780D01*
X9984150Y10234090D01*
X9990580Y10219260D01*
X9992190Y10198100D01*
X9990580Y10176930D01*
X9984150Y10162110D01*
X9976100Y10149410D01*
X9966450Y10140950D01*
X9953580Y10134600D01*
X9921410D01*
G01X10105640D02*
Y10261600D01*
X10046120Y10170580D01*
X10126560D01*
M02*
