  0
SECTION
  2
HEADER
  9
$ACADVER
  1
AC1014
  9
$ACADMAINTVER
 70
     9
  9
$DWGCODEPAGE
  3
ANSI_1252
  9
$INSBASE
 10
0.0
 20
0.0
 30
0.0
  9
$EXTMIN
 10
5.370484382578297
 20
9.983689057621745
 30
-0.0000686364353322
  9
$EXTMAX
 10
440.0476282271244
 20
287.2655646450183
 30
1.500034307304635
  9
$LIMMIN
 10
0.0
 20
0.0
  9
$LIMMAX
 10
420.0
 20
297.0
  9
$ORTHOMODE
 70
     0
  9
$REGENMODE
 70
     1
  9
$FILLMODE
 70
     1
  9
$QTEXTMODE
 70
     0
  9
$MIRRTEXT
 70
     1
  9
$DRAGMODE
 70
     2
  9
$LTSCALE
 40
1.0
  9
$OSMODE
 70
  3071
  9
$ATTMODE
 70
     1
  9
$TEXTSIZE
 40
2.5
  9
$TRACEWID
 40
0.05
  9
$TEXTSTYLE
  7
STANDARD
  9
$CLAYER
  8
110-1M
  9
$CELTYPE
  6
BYLAYER
  9
$CECOLOR
 62
   256
  9
$CELTSCALE
 40
1.0
  9
$DELOBJ
 70
     1
  9
$DISPSILH
 70
     0
  9
$DIMSCALE
 40
1.0
  9
$DIMASZ
 40
3.5
  9
$DIMEXO
 40
1.0
  9
$DIMDLI
 40
5.0
  9
$DIMRND
 40
0.0
  9
$DIMDLE
 40
0.0
  9
$DIMEXE
 40
1.0
  9
$DIMTP
 40
0.0
  9
$DIMTM
 40
0.0
  9
$DIMTXT
 40
3.5
  9
$DIMCEN
 40
0.09
  9
$DIMTSZ
 40
0.0
  9
$DIMTOL
 70
     0
  9
$DIMLIM
 70
     0
  9
$DIMTIH
 70
     0
  9
$DIMTOH
 70
     0
  9
$DIMSE1
 70
     0
  9
$DIMSE2
 70
     0
  9
$DIMTAD
 70
     1
  9
$DIMZIN
 70
     0
  9
$DIMBLK
  1

  9
$DIMASO
 70
     1
  9
$DIMSHO
 70
     0
  9
$DIMPOST
  1

  9
$DIMAPOST
  1

  9
$DIMALT
 70
     0
  9
$DIMALTD
 70
     2
  9
$DIMALTF
 40
25.4
  9
$DIMLFAC
 40
1.0
  9
$DIMTOFL
 70
     0
  9
$DIMTVP
 40
0.0
  9
$DIMTIX
 70
     1
  9
$DIMSOXD
 70
     0
  9
$DIMSAH
 70
     0
  9
$DIMBLK1
  1

  9
$DIMBLK2
  1

  9
$DIMSTYLE
  2
STANDARD
  9
$DIMCLRD
 70
     0
  9
$DIMCLRE
 70
     0
  9
$DIMCLRT
 70
     0
  9
$DIMTFAC
 40
1.0
  9
$DIMGAP
 40
1.5
  9
$DIMJUST
 70
     0
  9
$DIMSD1
 70
     0
  9
$DIMSD2
 70
     0
  9
$DIMTOLJ
 70
     1
  9
$DIMTZIN
 70
     0
  9
$DIMALTZ
 70
     0
  9
$DIMALTTZ
 70
     0
  9
$DIMFIT
 70
     5
  9
$DIMUPT
 70
     0
  9
$DIMUNIT
 70
     2
  9
$DIMDEC
 70
     2
  9
$DIMTDEC
 70
     2
  9
$DIMALTU
 70
     2
  9
$DIMALTTD
 70
     2
  9
$DIMTXSTY
  7
STANDARD
  9
$DIMAUNIT
 70
     0
  9
$LUNITS
 70
     2
  9
$LUPREC
 70
     2
  9
$SKETCHINC
 40
0.1
  9
$FILLETRAD
 40
6.0
  9
$AUNITS
 70
     0
  9
$AUPREC
 70
     0
  9
$MENU
  1
acad
  9
$ELEVATION
 40
0.0
  9
$PELEVATION
 40
0.0
  9
$THICKNESS
 40
0.0
  9
$LIMCHECK
 70
     0
  9
$BLIPMODE
 70
     0
  9
$CHAMFERA
 40
0.0
  9
$CHAMFERB
 40
0.0
  9
$CHAMFERC
 40
0.0
  9
$CHAMFERD
 40
0.0
  9
$SKPOLY
 70
     0
  9
$TDCREATE
 40
2450261.662161342
  9
$TDUPDATE
 40
2451710.603234016
  9
$TDINDWG
 40
0.0533482407
  9
$TDUSRTIMER
 40
0.0533482407
  9
$USRTIMER
 70
     1
  9
$ANGBASE
 50
0.0
  9
$ANGDIR
 70
     0
  9
$PDMODE
 70
     0
  9
$PDSIZE
 40
0.0
  9
$PLINEWID
 40
0.0
  9
$COORDS
 70
     1
  9
$SPLFRAME
 70
     0
  9
$SPLINETYPE
 70
     6
  9
$SPLINESEGS
 70
     8
  9
$ATTDIA
 70
     0
  9
$ATTREQ
 70
     1
  9
$HANDLING
 70
 10241
  9
$HANDSEED
  5
EF8
  9
$SURFTAB1
 70
     6
  9
$SURFTAB2
 70
     6
  9
$SURFTYPE
 70
     6
  9
$SURFU
 70
     6
  9
$SURFV
 70
     6
  9
$UCSNAME
  2

  9
$UCSORG
 10
0.0
 20
0.0
 30
0.0
  9
$UCSXDIR
 10
1.0
 20
0.0
 30
0.0
  9
$UCSYDIR
 10
0.0
 20
1.0
 30
0.0
  9
$PUCSNAME
  2

  9
$PUCSORG
 10
0.0
 20
0.0
 30
0.0
  9
$PUCSXDIR
 10
1.0
 20
0.0
 30
0.0
  9
$PUCSYDIR
 10
0.0
 20
1.0
 30
0.0
  9
$USERI1
 70
     0
  9
$USERI2
 70
     0
  9
$USERI3
 70
     0
  9
$USERI4
 70
     0
  9
$USERI5
 70
     0
  9
$USERR1
 40
0.0
  9
$USERR2
 40
0.0
  9
$USERR3
 40
0.0
  9
$USERR4
 40
0.0
  9
$USERR5
 40
0.0
  9
$WORLDVIEW
 70
     1
  9
$SHADEDGE
 70
     3
  9
$SHADEDIF
 70
    70
  9
$TILEMODE
 70
     1
  9
$MAXACTVP
 70
    16
  9
$PINSBASE
 10
0.0
 20
0.0
 30
0.0
  9
$PLIMCHECK
 70
     0
  9
$PEXTMIN
 10
1.000000000000000E+20
 20
1.000000000000000E+20
 30
1.000000000000000E+20
  9
$PEXTMAX
 10
-1.000000000000000E+20
 20
-1.000000000000000E+20
 30
-1.000000000000000E+20
  9
$PLIMMIN
 10
0.0
 20
0.0
  9
$PLIMMAX
 10
12.0
 20
9.0
  9
$UNITMODE
 70
     0
  9
$VISRETAIN
 70
     0
  9
$PLINEGEN
 70
     0
  9
$PSLTSCALE
 70
     0
  9
$TREEDEPTH
 70
  3020
  9
$PICKSTYLE
 70
     1
  9
$CMLSTYLE
  2
STANDARD
  9
$CMLJUST
 70
     0
  9
$CMLSCALE
 40
1.0
  9
$PROXYGRAPHICS
 70
     1
  9
$MEASUREMENT
 70
     0
  0
ENDSEC
  0
SECTION
  2
CLASSES
  0
CLASS
  1
ACDBDICTIONARYWDFLT
  2
AcDbDictionaryWithDefault
  3
AutoCAD 2000
 90
        0
280
     0
281
     0
  0
CLASS
  1
ACDBPLACEHOLDER
  2
AcDbPlaceHolder
  3
AutoCAD 2000
 90
        0
280
     0
281
     0
  0
CLASS
  1
LAYOUT
  2
AcDbLayout
  3
AutoCAD 2000
 90
        0
280
     0
281
     0
  0
CLASS
  1
LONG_TRANSACTION
  2
AcDbLongTransaction
  3
AutoCAD 2000
 90
        0
280
     0
281
     0
  0
CLASS
  1
LWPOLYLINE
  2
AcDbPolyline
  3
AutoCAD 2000
 90
        0
280
     0
281
     1
  0
CLASS
  1
HATCH
  2
AcDbHatch
  3
AutoCAD 2000
 90
        0
280
     0
281
     1
  0
CLASS
  1
XRECORD
  2
AcDbXrecord
  3
AutoCAD 2000
 90
        0
280
     0
281
     0
  0
ENDSEC
  0
SECTION
  2
TABLES
  0
TABLE
  2
VPORT
  5
8
330
0
100
AcDbSymbolTable
 70
     2
  0
VPORT
  5
ED1
330
8
100
AcDbSymbolTableRecord
100
AcDbViewportTableRecord
  2
*ACTIVE
 70
     0
 10
0.0
 20
0.0
 11
1.0
 21
1.0
 12
210.0
 22
148.5
 13
0.0
 23
0.0
 14
1.0
 24
1.0
 15
0.0
 25
0.0
 16
0.0
 26
0.0
 36
1.0
 17
0.0
 27
0.0
 37
0.0
 40
302.2614988385186
 41
1.653206650831353
 42
50.0
 43
0.0
 44
0.0
 50
0.0
 51
0.0
 71
     0
 72
   100
 73
     1
 74
     1
 75
     0
 76
     0
 77
     0
 78
     0
  0
ENDTAB
  0
TABLE
  2
LTYPE
  5
5
330
0
100
AcDbSymbolTable
 70
     3
  0
LTYPE
  5
13
330
5
100
AcDbSymbolTableRecord
100
AcDbLinetypeTableRecord
  2
BYBLOCK
 70
     0
  3

 72
    65
 73
     0
 40
0.0
  0
LTYPE
  5
14
330
5
100
AcDbSymbolTableRecord
100
AcDbLinetypeTableRecord
  2
BYLAYER
 70
     0
  3

 72
    65
 73
     0
 40
0.0
  0
LTYPE
  5
15
330
5
100
AcDbSymbolTableRecord
100
AcDbLinetypeTableRecord
  2
CONTINUOUS
 70
     0
  3
Solid line
 72
    65
 73
     0
 40
0.0
  0
LTYPE
  5
50
330
5
100
AcDbSymbolTableRecord
100
AcDbLinetypeTableRecord
  2
CENTER
 70
     0
  3
____ _ ____ _ ____ _ ____ _ ____ _ ____ _ ____
 72
    65
 73
     4
 40
2.0
 49
1.25
 74
     0
 49
-0.25
 74
     0
 49
0.25
 74
     0
 49
-0.25
 74
     0
  0
LTYPE
  5
51
330
5
100
AcDbSymbolTableRecord
100
AcDbLinetypeTableRecord
  2
HIDDEN
 70
     0
  3
___   ___   ___   ___   ___   ___   ___   ___  
 72
    65
 73
     4
 40
3.0
 49
0.75
 74
     0
 49
-0.75
 74
     0
 49
0.75
 74
     0
 49
-0.75
 74
     0
  0
ENDTAB
  0
TABLE
  2
LAYER
  5
2
330
0
100
AcDbSymbolTable
 70
     5
  0
LAYER
  5
10
330
2
100
AcDbSymbolTableRecord
100
AcDbLayerTableRecord
  2
0
 70
     0
 62
     7
  6
CONTINUOUS
  0
LAYER
  5
55
330
2
100
AcDbSymbolTableRecord
100
AcDbLayerTableRecord
  2
110-1M
 70
     0
 62
     3
  6
CONTINUOUS
  0
LAYER
  5
56
330
2
100
AcDbSymbolTableRecord
100
AcDbLayerTableRecord
  2
110-1
 70
     0
 62
    10
  6
CONTINUOUS
  0
LAYER
  5
57
330
2
100
AcDbSymbolTableRecord
100
AcDbLayerTableRecord
  2
110-1D
 70
     0
 62
     1
  6
CONTINUOUS
  0
LAYER
  5
58
330
2
100
AcDbSymbolTableRecord
100
AcDbLayerTableRecord
  2
DEFPOINTS
 70
     0
 62
     7
  6
CONTINUOUS
  0
ENDTAB
  0
TABLE
  2
STYLE
  5
3
330
0
100
AcDbSymbolTable
 70
     2
  0
STYLE
  5
11
330
3
100
AcDbSymbolTableRecord
100
AcDbTextStyleTableRecord
  2
STANDARD
 70
     0
 40
0.0
 41
1.0
 50
0.0
 71
     0
 42
2.5
  3
ARIAL.TTF
  4

1001
ACAD
1000
Arial
1071
       34
  0
ENDTAB
  0
TABLE
  2
VIEW
  5
6
330
0
100
AcDbSymbolTable
 70
     0
  0
ENDTAB
  0
TABLE
  2
UCS
  5
7
330
0
100
AcDbSymbolTable
 70
     1
  0
UCS
  5
52
330
7
100
AcDbSymbolTableRecord
100
AcDbUCSTableRecord
  2
MIN
 70
     0
 10
100.0
 20
100.0
 30
0.0
 11
1.0
 21
0.0
 31
0.0
 12
0.0
 22
1.0
 32
0.0
  0
ENDTAB
  0
TABLE
  2
APPID
  5
9
330
0
100
AcDbSymbolTable
 70
     2
  0
APPID
  5
12
330
9
100
AcDbSymbolTableRecord
100
AcDbRegAppTableRecord
  2
ACAD
 70
     0
  0
APPID
  5
EF7
330
9
100
AcDbSymbolTableRecord
100
AcDbRegAppTableRecord
  2
CONTENTBLOCKICON
 70
     0
  0
ENDTAB
  0
TABLE
  2
DIMSTYLE
  5
A
330
0
100
AcDbSymbolTable
 70
     1
  0
DIMSTYLE
105
4F8
102
{ACAD_REACTORS
330
D9A
330
D99
330
D98
330
D97
330
D96
330
D95
330
D94
330
D93
330
DA8
330
D92
330
DAA
330
DEC
330
DEB
330
DEA
330
DE9
330
DE8
330
DE7
330
DE6
330
DE5
330
DE4
330
E1B
102
}
330
A
100
AcDbSymbolTableRecord
100
AcDbDimStyleTableRecord
  2
STANDARD
 70
     0
  3

  4

  5

  6

  7

 40
1.0
 41
3.5
 42
0.1625
 43
0.38
 44
0.58
 45
0.0
 46
0.0
 47
0.0
 48
0.0
140
3.5
141
0.09
142
0.0
143
25.4
144
1.0
145
0.0
146
1.0
147
1.5
 71
     0
 72
     0
 73
     0
 74
     0
 75
     0
 76
     0
 77
     1
 78
     0
170
     0
171
     2
172
     0
173
     0
174
     0
175
     0
176
     0
177
     0
178
     0
270
     2
271
     2
272
     2
273
     2
274
     2
340
11
275
     0
280
     0
281
     0
282
     0
283
     1
284
     0
285
     0
286
     0
287
     3
288
     0
  0
ENDTAB
  0
TABLE
  2
BLOCK_RECORD
  5
1
330
0
100
AcDbSymbolTable
 70
    66
  0
BLOCK_RECORD
  5
1E
102
{ACAD_XDICTIONARY
360
EF5
102
}
330
1
100
AcDbSymbolTableRecord
100
AcDbBlockTableRecord
  2
*MODEL_SPACE
  0
BLOCK_RECORD
  5
1A
102
{ACAD_XDICTIONARY
360
EF3
102
}
330
1
100
AcDbSymbolTableRecord
100
AcDbBlockTableRecord
  2
*PAPER_SPACE
  0
BLOCK_RECORD
  5
22
330
1
100
AcDbSymbolTableRecord
100
AcDbBlockTableRecord
  2
*X0
  0
BLOCK_RECORD
  5
23
330
1
100
AcDbSymbolTableRecord
100
AcDbBlockTableRecord
  2
*X1
  0
BLOCK_RECORD
  5
24
330
1
100
AcDbSymbolTableRecord
100
AcDbBlockTableRecord
  2
SAM
1001
CONTENTBLOCKICON
1071
        0
1004
2800000020000000200000000100080000000000000400000000000000000000000000000000000000000000000080000080000000808000800000008000800080800000C0C0C000C0DCC000F0CAA6000020400000206000002080000020A0000020C0000020E00000400000004020000040400000406000004080000040A0
1004
000040C0000040E00000600000006020000060400000606000006080000060A0000060C0000060E00000800000008020000080400000806000008080000080A0000080C0000080E00000A0000000A0200000A0400000A0600000A0800000A0A00000A0C00000A0E00000C0000000C0200000C0400000C0600000C0800000C0
1004
A00000C0C00000C0E00000E0000000E0200000E0400000E0600000E0800000E0A00000E0C00000E0E00040000000400020004000400040006000400080004000A0004000C0004000E00040200000402020004020400040206000402080004020A0004020C0004020E000404000004040200040404000404060004040800040
1004
40A0004040C0004040E00040600000406020004060400040606000406080004060A0004060C0004060E00040800000408020004080400040806000408080004080A0004080C0004080E00040A0000040A0200040A0400040A0600040A0800040A0A00040A0C00040A0E00040C0000040C0200040C0400040C0600040C08000
1004
40C0A00040C0C00040C0E00040E0000040E0200040E0400040E0600040E0800040E0A00040E0C00040E0E00080000000800020008000400080006000800080008000A0008000C0008000E00080200000802020008020400080206000802080008020A0008020C0008020E00080400000804020008040400080406000804080
1004
008040A0008040C0008040E00080600000806020008060400080606000806080008060A0008060C0008060E00080800000808020008080400080806000808080008080A0008080C0008080E00080A0000080A0200080A0400080A0600080A0800080A0A00080A0C00080A0E00080C0000080C0200080C0400080C0600080C0
1004
800080C0A00080C0C00080C0E00080E0000080E0200080E0400080E0600080E0800080E0A00080E0C00080E0E000C0000000C0002000C0004000C0006000C0008000C000A000C000C000C000E000C0200000C0202000C0204000C0206000C0208000C020A000C020C000C020E000C0400000C0402000C0404000C0406000C0
1004
408000C040A000C040C000C040E000C0600000C0602000C0604000C0606000C0608000C060A000C060C000C060E000C0800000C0802000C0804000C0806000C0808000C080A000C080C000C080E000C0A00000C0A02000C0A04000C0A06000C0A08000C0A0A000C0A0C000C0A0E000C0C00000C0C02000C0C04000C0C06000
1004
C0C08000C0C0A000F0FBFF00A4A0A000808080000000FF0000FF000000FFFF00FF000000FF00FF00FFFF0000FFFFFF00FFFFFFFFFFFFFFFFFFFFFFFFFFFFFFFFFFFFFFFFFFFFFFFFFFFFFFFFFFFFFFFFFFFFFFFFFFFFFFFFFFFFFFFFFFFFFFFFFFFFFFFFFFFFFFFFFFFFFFFFFFFFFFFFFFFFFFFFFFFFFFFFFFFFFFFFFFFFFF
1004
FFFFFFFFFFFFFFFFFFFFFFFFFFFFFFFFFFFFFFFFFFFFFFFFFFFFFFFFFFFFFFFFFFFFFFFFFFFFFFFFFFFFFFFFFFFFFFFFFFFFFFF9F9F9F9F9F9F9F9F9F9F9F9F9F9F9F9F9F9F9F9F9FFFFFFFFFFFFFFFFFFFFFFF9F9F9F9F9F9F9F9F9F9F9F9F9F9F9F9F9F9F9F9F9FFFFFFFFF9F9FFFFFFFFFFF9F9F9F9F9F9F9F9F9F9F9F9
1004
F9F9F9FFFFFFFFF9F9FFFFFFF9FAFAFAF9FFFFFFF9F9F9F9F9F9F9FFFFFFF9FFFFFFF9FFFFFFFFF9F9F9F9FFF9FAFAFAFFFFFFFFFAFAFAF9FAFAF9FAFAFAFAFAFAFAFAFAFAFAFAFAFAF9F9F9F9FAF9F9FFFFFFFFFAFAFFFFFFFFFAFFFFFFFAFFFFFFFAFFFFFFFFFAFAF9F9F9F9F9FFFFFFFFFFFFFAFAFFFFFFFFFFFFFFFFFF
1004
FFFFFFFFFFFFFFFFFFFAF9F9F9F9F9FFFFFFFFFFFFFAFFFFFFFFFFFFFFFFFFFFFFFFFFFFFFFFFFFFFFFAF9F9F9F9F9FFFFFFFFFFFFFAFFFFFFFFFFFFFFFFFFFFFFFFFFFFFFFFFFFFFFFAFFF9F9F9F9FFFFFFFFFFFFFAFAFFFFFFFFFFFFFFFFFFFFFFFFFFFFFFFFFFFFFAFAF9F9F9F9FFFFFFFFFFFFFAFAFFFAFAFAFFFFFFFF
1004
FFFFFFFFFFFFFFFFFFFFFAF9F9F9F9F9FFFFFFFFFFFFFAFFFFFFFFFAFAFFFFFFFFFFFFFFFFFFFFFFFFFFFAFFF9F9F9F9FFFFFFFFFFFFFAFFFFFFFFFFFAFFFFFFFFFFFFFFFFFFFFFFFFFFFAF9F9F9F9F9FFFFFFFFFFFFFAFAFFFFFFFFFFFFFFFFFFFFFFFFFFFFFFFFFFFFFAFAF9F9F9F9FFFFFFFFFFFFFAFAFFFFFFFFFFFFFF
1004
FFFFFFFFFFFFFFFFFFFFFFFAFFFFF9F9F9FFFFFFFFFFFFFAFFFFFFFFFFFFFFFFFFFFFFFFFFFFFFFFFFFFFFFAFFFFF9F9F9FFFFFFFFFFFFFAFFFFFFFFFFFFFFFFFFFFFFFFFFFFFFFFFFF9FFFAF9F9F9F9F9FFFFFFFFFFFFFAFAFFFFFFFFFFFFFFFFFAFAFAFAFAFAFAFAF9F9FAF9F9FFF9F9FFFFFFFFFFFFFAFAFFFFFFFFFFFF
1004
FFFFFAFFFFFFFFFFFFFFFAFAF9F9F9F9F9F9FFFFFFFFFFFFFAFFFFFFFFFFFFFFFFFFFAFFFFFFFAFAFFFFFAFAFAFFFFFFF9F9FFFFFFFFFFFFFAFFFFFFFFFFFFFFFFFFFAFFFFFFF9FFFFFFFAFAFAF9F9FFF9F9FFFFFFFFFFF9F9FAFFFFFFFFFFFFFFFFFAFFFFFFFFFFFFFFFAFFFAFFFFFFF9F9FFFFFFFFFFFFFAFAFAFFFFFAFA
1004
FFFFFFFAFAFAFAFAFAFAFAF9FAFAF9F9F9F9F9FFFFFFFFFFFFFAFAFAFAFAFAFAFAFAFAFAFAFAFAFAFAFAFAFAFAFAF9F9F9F9F9FFFFFFFFFFFFFFFFFFFFFFFFFFFFFFFFFFFFFFFFFFFFFFFFFFFFFFFFFFFFFFFFFFFFFFFFFFFFFFFFFFFFFFFFFFFFFFFFFFFFFFFFFFFFFFFFFFFFFFFFFFFFFFFFFFFFFFFFFFFFFFFFFFFFFFFF
1004
FFFFFFFFFFFFFFFFFFFFFFFFFFFFFFFFFFFFFFFFFFFFFFFFFFFFFFFFFFFFFFFFFFFFFFFFFFFFFFFFFFFFFFFFFFFFFFFFFFFFFFFFFFFFFFFF
  0
BLOCK_RECORD
  5
63B
330
1
100
AcDbSymbolTableRecord
100
AcDbBlockTableRecord
  2
*D45
  0
BLOCK_RECORD
  5
648
330
1
100
AcDbSymbolTableRecord
100
AcDbBlockTableRecord
  2
*D46
  0
BLOCK_RECORD
  5
655
330
1
100
AcDbSymbolTableRecord
100
AcDbBlockTableRecord
  2
*D47
  0
BLOCK_RECORD
  5
662
330
1
100
AcDbSymbolTableRecord
100
AcDbBlockTableRecord
  2
*D48
  0
BLOCK_RECORD
  5
66F
330
1
100
AcDbSymbolTableRecord
100
AcDbBlockTableRecord
  2
*D49
  0
BLOCK_RECORD
  5
67C
330
1
100
AcDbSymbolTableRecord
100
AcDbBlockTableRecord
  2
*D50
  0
BLOCK_RECORD
  5
689
330
1
100
AcDbSymbolTableRecord
100
AcDbBlockTableRecord
  2
*D51
  0
BLOCK_RECORD
  5
696
330
1
100
AcDbSymbolTableRecord
100
AcDbBlockTableRecord
  2
*D52
  0
BLOCK_RECORD
  5
6A3
330
1
100
AcDbSymbolTableRecord
100
AcDbBlockTableRecord
  2
*D53
  0
BLOCK_RECORD
  5
6B0
330
1
100
AcDbSymbolTableRecord
100
AcDbBlockTableRecord
  2
*D54
  0
BLOCK_RECORD
  5
6BD
330
1
100
AcDbSymbolTableRecord
100
AcDbBlockTableRecord
  2
*D55
  0
BLOCK_RECORD
  5
6CA
330
1
100
AcDbSymbolTableRecord
100
AcDbBlockTableRecord
  2
*D56
  0
BLOCK_RECORD
  5
6D7
330
1
100
AcDbSymbolTableRecord
100
AcDbBlockTableRecord
  2
*D57
  0
BLOCK_RECORD
  5
6E4
330
1
100
AcDbSymbolTableRecord
100
AcDbBlockTableRecord
  2
*D58
  0
BLOCK_RECORD
  5
6F1
330
1
100
AcDbSymbolTableRecord
100
AcDbBlockTableRecord
  2
*D59
  0
BLOCK_RECORD
  5
6FE
330
1
100
AcDbSymbolTableRecord
100
AcDbBlockTableRecord
  2
*D60
  0
BLOCK_RECORD
  5
70B
330
1
100
AcDbSymbolTableRecord
100
AcDbBlockTableRecord
  2
*D61
  0
BLOCK_RECORD
  5
718
330
1
100
AcDbSymbolTableRecord
100
AcDbBlockTableRecord
  2
*D62
  0
BLOCK_RECORD
  5
725
330
1
100
AcDbSymbolTableRecord
100
AcDbBlockTableRecord
  2
*D63
  0
BLOCK_RECORD
  5
732
330
1
100
AcDbSymbolTableRecord
100
AcDbBlockTableRecord
  2
*D64
  0
BLOCK_RECORD
  5
73F
330
1
100
AcDbSymbolTableRecord
100
AcDbBlockTableRecord
  2
*D65
  0
ENDTAB
  0
ENDSEC
  0
SECTION
  2
BLOCKS
  0
BLOCK
  5
5B
330
1E
100
AcDbEntity
  8
0
100
AcDbBlockBegin
  2
*MODEL_SPACE
 70
     0
 10
0.0
 20
0.0
 30
0.0
  3
*MODEL_SPACE
  1

  0
ENDBLK
  5
5C
330
1E
100
AcDbEntity
  8
0
100
AcDbBlockEnd
  0
BLOCK
  5
59
330
1A
100
AcDbEntity
 67
     1
  8
0
100
AcDbBlockBegin
  2
*PAPER_SPACE
 70
     0
 10
0.0
 20
0.0
 30
0.0
  3
*PAPER_SPACE
  1

  0
ENDBLK
  5
5A
330
1A
100
AcDbEntity
 67
     1
  8
0
100
AcDbBlockEnd
  0
BLOCK
  5
5D
330
22
100
AcDbEntity
  8
0
100
AcDbBlockBegin
  2
*X0
 70
     1
 10
0.0
 20
0.0
 30
0.0
  3
*X0
  1

  0
LINE
  5
5E
330
22
100
AcDbEntity
  8
0
 62
     0
100
AcDbLine
 10
15.1317279836453
 20
7.0
 30
0.0
 11
16.64086399182265
 21
8.509136008177351
 31
0.0
  0
LINE
  5
5F
330
22
100
AcDbEntity
  8
0
 62
     0
100
AcDbLine
 10
14.89168116154943
 20
7.113506568497409
 30
0.0
 11
16.46408729652601
 21
8.68591270347399
 31
0.0
  0
LINE
  5
60
330
22
100
AcDbEntity
  8
0
 62
     0
100
AcDbLine
 10
15.18292721712961
 20
7.758306014670865
 30
0.0
 11
16.28731060122937
 21
8.862689398770626
 31
0.0
  0
LINE
  5
61
330
22
100
AcDbEntity
  8
0
 62
     0
100
AcDbLine
 10
15.04084254656505
 20
7.96977473469958
 30
0.0
 11
16.07106781186548
 21
9.0
 31
0.0
  0
LINE
  5
62
330
22
100
AcDbEntity
  8
0
 62
     0
100
AcDbLine
 10
14.97538368034169
 20
8.257869259069492
 30
0.0
 11
15.06140693651138
 21
8.343892515239181
 31
0.0
  0
LINE
  5
63
330
22
100
AcDbEntity
  8
0
 62
     0
100
AcDbLine
 10
15.20146283777424
 20
8.483948416502043
 30
0.0
 11
15.7175144212722
 21
9.0
 31
0.0
  0
LINE
  5
64
330
22
100
AcDbEntity
  8
0
 62
     0
100
AcDbLine
 10
15.17242946752708
 20
8.808468436848155
 30
0.0
 11
15.36396103067892
 21
9.0
 31
0.0
  0
LINE
  5
65
330
22
100
AcDbEntity
  8
0
 62
     0
100
AcDbLine
 10
15.00626365047301
 20
8.995856010387356
 30
0.0
 11
15.01040764008565
 21
9.0
 31
0.0
  0
LINE
  5
66
330
22
100
AcDbEntity
  8
0
 62
     0
100
AcDbLine
 10
15.48528137423857
 20
7.0
 30
0.0
 11
16.81764068711928
 21
8.332359312880713
 31
0.0
  0
LINE
  5
67
330
22
100
AcDbEntity
  8
0
 62
     0
100
AcDbLine
 10
15.83883476483184
 20
7.0
 30
0.0
 11
16.99441738241592
 21
8.155582617584075
 31
0.0
  0
LINE
  5
68
330
22
100
AcDbEntity
  8
0
 62
     0
100
AcDbLine
 10
16.19238815542512
 20
7.0
 30
0.0
 11
17.17119407771255
 21
7.978805922287437
 31
0.0
  0
LINE
  5
69
330
22
100
AcDbEntity
  8
0
 62
     0
100
AcDbLine
 10
16.54594154601839
 20
7.0
 30
0.0
 11
17.34797077300919
 21
7.802029226990799
 31
0.0
  0
LINE
  5
6A
330
22
100
AcDbEntity
  8
0
 62
     0
100
AcDbLine
 10
16.89949493661166
 20
7.0
 30
0.0
 11
17.52474746830583
 21
7.625252531694161
 31
0.0
  0
LINE
  5
6B
330
22
100
AcDbEntity
  8
0
 62
     0
100
AcDbLine
 10
17.25304832720494
 20
7.0
 30
0.0
 11
17.54999999999999
 21
7.296951672795054
 31
0.0
  0
ENDBLK
  5
6C
330
22
100
AcDbEntity
  8
0
100
AcDbBlockEnd
  0
BLOCK
  5
6D
330
23
100
AcDbEntity
  8
0
100
AcDbBlockBegin
  2
*X1
 70
     1
 10
0.0
 20
0.0
 30
0.0
  3
*X1
  1

  0
LINE
  5
6E
330
23
100
AcDbEntity
  8
0
 62
     0
100
AcDbLine
 10
20.78858223313767
 20
7.0
 30
0.0
 11
22.78858223313767
 21
9.0
 31
0.0
  0
LINE
  5
6F
330
23
100
AcDbEntity
  8
0
 62
     0
100
AcDbLine
 10
20.45
 20
7.014971157455598
 30
0.0
 11
22.4350288425444
 21
9.0
 31
0.0
  0
LINE
  5
70
330
23
100
AcDbEntity
  8
0
 62
     0
100
AcDbLine
 10
20.45
 20
7.368524548048872
 30
0.0
 11
22.08147545195113
 21
9.0
 31
0.0
  0
LINE
  5
71
330
23
100
AcDbEntity
  8
0
 62
     0
100
AcDbLine
 10
21.14213562373095
 20
7.0
 30
0.0
 11
22.77923474501592
 21
8.637099121284974
 31
0.0
  0
LINE
  5
72
330
23
100
AcDbEntity
  8
0
 62
     0
100
AcDbLine
 10
21.49568901432422
 20
7.0
 30
0.0
 11
22.87661778515056
 21
8.38092877082634
 31
0.0
  0
LINE
  5
73
330
23
100
AcDbEntity
  8
0
 62
     0
100
AcDbLine
 10
21.8492424049175
 20
7.0
 30
0.0
 11
23.04760841191069
 21
8.198366006993193
 31
0.0
  0
LINE
  5
74
330
23
100
AcDbEntity
  8
0
 62
     0
100
AcDbLine
 10
22.20279579551077
 20
7.0
 30
0.0
 11
22.83858018462526
 21
7.635784389114486
 31
0.0
  0
LINE
  5
75
330
23
100
AcDbEntity
  8
0
 62
     0
100
AcDbLine
 10
22.55634918610405
 20
7.0
 30
0.0
 11
23.04006774557617
 21
7.483718559472129
 31
0.0
  0
LINE
  5
76
330
23
100
AcDbEntity
  8
0
 62
     0
100
AcDbLine
 10
22.90990257669732
 20
7.0
 30
0.0
 11
23.16400365179201
 21
7.254101075094693
 31
0.0
  0
ENDBLK
  5
77
330
23
100
AcDbEntity
  8
0
100
AcDbBlockEnd
  0
BLOCK
  5
78
330
24
100
AcDbEntity
  8
0
100
AcDbBlockBegin
  2
SAM
 70
     0
 10
0.0
 20
0.0
 30
0.0
  3
SAM
  1

  0
DIMENSION
  5
D92
330
24
100
AcDbEntity
  8
110-1D
100
AcDbDimension
  2
*D54
 10
224.6999999999999
 20
58.41450613184464
 30
0.0
 11
162.3499999999999
 21
61.70151158887056
 31
0.0
  3
STANDARD
100
AcDbAlignedDimension
 13
100.0
 23
100.0
 33
0.0
 14
224.6999999999999
 24
100.0
 34
0.0
100
AcDbRotatedDimension
  0
DIMENSION
  5
D93
330
24
100
AcDbEntity
  8
110-1D
100
AcDbDimension
  2
*D52
 10
219.9999999999999
 20
66.96154755444863
 30
0.0
 11
160.0
 21
66.96154755444863
 31
0.0
 70
   128
  3
STANDARD
100
AcDbAlignedDimension
 13
100.0
 23
93.82857471307195
 33
0.0
 14
219.9999999999999
 24
93.82857471307195
 34
0.0
100
AcDbRotatedDimension
  0
DIMENSION
  5
D94
330
24
100
AcDbEntity
  8
110-1D
100
AcDbDimension
  2
*D51
 10
319.9999999999999
 20
48.73713461494919
 30
0.0
 11
209.9999999999999
 21
48.73713461494919
 31
0.0
 70
   128
  3
STANDARD
100
AcDbAlignedDimension
 13
100.0
 23
87.65714816526672
 33
0.0
 14
319.9999999999999
 24
87.65714816526672
 34
0.0
100
AcDbRotatedDimension
  0
DIMENSION
  5
D95
330
24
100
AcDbEntity
  8
110-1D
100
AcDbDimension
  2
*D50
 10
560.0
 20
-5.68477104434973
 30
0.0
 11
330.0
 21
-2.397765587323809
 31
0.0
  3
STANDARD
100
AcDbAlignedDimension
 13
100.0
 23
87.65714816526672
 33
0.0
 14
560.0
 24
87.65714816526672
 34
0.0
100
AcDbRotatedDimension
1001
ACAD
1000
DSTYLE
1002
{
1070
   147
1040
1.5
1002
}
  0
DIMENSION
  5
D96
330
24
100
AcDbEntity
  8
110-1D
100
AcDbDimension
  2
*D49
 10
558.4999999999999
 20
3.714874728945744
 30
0.0
 11
329.2499999999999
 21
7.001880185971665
 31
0.0
  3
STANDARD
100
AcDbAlignedDimension
 13
100.0
 23
87.65714816526672
 33
0.0
 14
558.4999999999999
 24
87.65714816526672
 34
0.0
100
AcDbRotatedDimension
  0
DIMENSION
  5
D97
330
24
100
AcDbEntity
  8
110-1D
100
AcDbDimension
  2
*D48
 10
554.0
 20
13.11451922195382
 30
0.0
 11
327.0
 21
16.40152467897974
 31
0.0
  3
STANDARD
100
AcDbAlignedDimension
 13
100.0
 23
87.65714816526672
 33
0.0
 14
554.0
 24
87.65714816526672
 34
0.0
100
AcDbRotatedDimension
  0
DIMENSION
  5
D98
330
24
100
AcDbEntity
  8
110-1D
100
AcDbDimension
  2
*D47
 10
537.0
 20
22.5141649952493
 30
0.0
 11
318.5
 21
25.80236417669541
 31
0.0
  3
STANDARD
100
AcDbAlignedDimension
 13
100.0
 23
87.65714816526672
 33
0.0
 14
537.0
 24
87.65714816526672
 34
0.0
100
AcDbRotatedDimension
  0
DIMENSION
  5
D99
330
24
100
AcDbEntity
  8
110-1D
100
AcDbDimension
  2
*D46
 10
520.0
 20
31.13050663403163
 30
0.0
 11
310.0
 21
34.41751209105755
 31
0.0
  3
STANDARD
100
AcDbAlignedDimension
 13
100.0
 23
87.65714816526672
 33
0.0
 14
520.0
 24
87.65714816526672
 34
0.0
100
AcDbRotatedDimension
  0
DIMENSION
  5
D9A
330
24
100
AcDbEntity
  8
110-1D
100
AcDbDimension
  2
*D45
 10
419.9999999999999
 20
39.66311482767091
 30
0.0
 11
260.0
 21
39.66311482767091
 31
0.0
 70
   128
  3
STANDARD
100
AcDbAlignedDimension
 13
100.0
 23
87.65714816526672
 33
0.0
 14
419.9999999999999
 24
87.65714816526672
 34
0.0
100
AcDbRotatedDimension
  0
CIRCLE
  5
D9B
330
24
100
AcDbEntity
  8
110-1M
100
AcDbCircle
 10
220.0949120280358
 20
518.0036498404954
 30
0.0
 40
3.25
  0
LINE
  5
D9C
330
24
100
AcDbEntity
  8
110-1M
100
AcDbLine
 10
210.0949120280358
 20
518.0036498404954
 30
0.0
 11
230.9223351914764
 21
518.0036498404954
 31
0.0
  0
CIRCLE
  5
D9D
330
24
100
AcDbEntity
  8
110-1M
100
AcDbCircle
 10
220.0949120280358
 20
518.0036498404954
 30
0.0
 40
1.7
  0
LINE
  5
D9E
330
24
100
AcDbEntity
  8
110-1M
100
AcDbLine
 10
210.0011726148014
 20
106.0003115030963
 30
0.0
 11
230.8285957782419
 21
106.0003115030963
 31
0.0
  0
CIRCLE
  5
D9F
330
24
100
AcDbEntity
  8
110-1M
100
AcDbCircle
 10
220.0011726148014
 20
106.0003115030963
 30
0.0
 40
3.25
  0
CIRCLE
  5
DA0
330
24
100
AcDbEntity
  8
110-1M
100
AcDbCircle
 10
220.0011726148014
 20
106.0003115030963
 30
0.0
 40
1.7
  0
LINE
  5
DA1
330
24
100
AcDbEntity
  8
110-1D
100
AcDbLine
 10
224.6919354446612
 20
267.4520904277302
 30
0.0
 11
213.3008237246208
 21
228.978478857805
 31
0.0
  0
LINE
  5
DA2
330
24
100
AcDbEntity
  8
110-1M
100
AcDbLine
 10
100.0
 20
524.0
 30
0.0
 11
538.0
 21
524.0
 31
0.0
  0
LINE
  5
DA3
330
24
100
AcDbEntity
  8
110-1M
100
AcDbLine
 10
538.0
 20
100.0
 30
0.0
 11
100.0
 21
100.0
 31
0.0
  0
LINE
  5
DA4
330
24
100
AcDbEntity
  8
110-1M
100
AcDbLine
 10
100.0
 20
100.0
 30
0.0
 11
100.0
 21
524.0
 31
0.0
  0
LINE
  5
DA5
330
24
100
AcDbEntity
  8
110-1M
100
AcDbLine
 10
78.0
 20
100.0
 30
0.0
 11
78.0
 21
524.0
 31
0.0
  0
LINE
  5
DA6
330
24
100
AcDbEntity
  8
110-1M
100
AcDbLine
 10
80.0
 20
524.0
 30
0.0
 11
80.0
 21
100.0
 31
0.0
  0
LINE
  5
DA7
330
24
100
AcDbEntity
  8
110-1M
100
AcDbLine
 10
80.0
 20
100.0
 30
0.0
 11
78.0
 21
100.0
 31
0.0
  0
DIMENSION
  5
DA8
330
24
100
AcDbEntity
  8
110-1D
100
AcDbDimension
  2
*D53
 10
163.25
 20
75.41024276679855
 30
0.0
 11
131.6249999999999
 21
78.69844194824466
 31
0.0
  3
STANDARD
100
AcDbAlignedDimension
 13
100.0
 23
100.0
 33
0.0
 14
163.25
 24
100.0
 34
0.0
100
AcDbRotatedDimension
  0
LINE
  5
DA9
330
24
100
AcDbEntity
  8
110-1M
100
AcDbLine
 10
120.0
 20
95.99697879527118
 30
0.0
 11
120.0
 21
116.9558829048601
 31
0.0
  0
DIMENSION
  5
DAA
330
24
100
AcDbEntity
  8
110-1D
100
AcDbDimension
  2
*D55
 10
120.0
 20
81.39706352673334
 30
0.0
 11
110.0
 21
81.39706352673334
 31
0.0
 70
   128
  3
STANDARD
100
AcDbAlignedDimension
 13
100.0
 23
100.0
 33
0.0
 14
120.0
 24
100.0
 34
0.0
100
AcDbRotatedDimension
  0
SOLID
  5
DAB
330
24
100
AcDbEntity
  8
110-1D
  6
BYBLOCK
100
AcDbTrace
 10
96.5
 20
89.1823448040879
 30
0.0
 11
96.5
 21
90.34901147075457
 31
0.0
 12
100.0
 22
89.76567813742123
 32
0.0
 13
100.0
 23
89.76567813742123
 33
0.0
  0
LINE
  5
DAC
330
24
100
AcDbEntity
  8
110-1D
  6
BYBLOCK
100
AcDbLine
 10
96.5
 20
89.76567813742123
 30
0.0
 11
93.0
 21
89.76567813742123
 31
0.0
  0
LINE
  5
DAD
330
24
100
AcDbEntity
  8
110-1D
  6
BYBLOCK
100
AcDbLine
 10
100.0
 20
98.99999999999998
 30
0.0
 11
100.0
 21
88.76567813742124
 31
0.0
  0
LINE
  5
DAE
330
24
100
AcDbEntity
  8
110-1D
  6
BYBLOCK
100
AcDbLine
 10
103.7
 20
99.0
 30
0.0
 11
103.7
 21
88.76567813742124
 31
0.0
  0
LINE
  5
DAF
330
24
100
AcDbEntity
  8
110-1D
  6
BYBLOCK
100
AcDbLine
 10
107.2
 20
89.76567813742123
 30
0.0
 11
110.7
 21
89.76567813742123
 31
0.0
  0
SOLID
  5
DB0
330
24
100
AcDbEntity
  8
110-1D
  6
BYBLOCK
100
AcDbTrace
 10
107.2
 20
89.1823448040879
 30
0.0
 11
107.2
 21
90.34901147075457
 31
0.0
 12
103.7
 22
89.76567813742123
 32
0.0
 13
103.7
 23
89.76567813742123
 33
0.0
  0
POINT
  5
DB1
330
24
100
AcDbEntity
  8
110-1D
  6
BYBLOCK
100
AcDbPoint
 10
103.7
 20
89.76567813742123
 30
0.0
  0
TEXT
  5
DB2
330
24
100
AcDbEntity
  8
110-1D
  6
BYBLOCK
100
AcDbText
 10
104.6809928400382
 20
92.06522973493914
 30
0.0
 40
3.5
  1
3.70
100
AcDbText
  0
POINT
  5
DB3
330
24
100
AcDbEntity
  8
110-1M
  6
BYBLOCK
100
AcDbPoint
 10
103.7
 20
100.0
 30
0.0
  0
POINT
  5
DB4
330
24
100
AcDbEntity
  8
110-1M
  6
BYBLOCK
100
AcDbPoint
 10
100.0
 20
100.0
 30
0.0
  0
LINE
  5
DB5
330
24
100
AcDbEntity
  8
110-1M
100
AcDbLine
 10
110.0
 20
105.9969787952711
 30
0.0
 11
130.8274231634406
 21
105.9969787952711
 31
0.0
  0
LINE
  5
DB6
330
24
100
AcDbEntity
  8
110-1M
100
AcDbLine
 10
103.7036506368982
 20
109.9954818224017
 30
0.0
 11
103.7036506368982
 21
130.9543859319907
 31
0.0
  0
LINE
  5
DB7
330
24
100
AcDbEntity
  8
110-1M
100
AcDbLine
 10
93.70365063689828
 20
119.9954818224017
 30
0.0
 11
114.5310738003388
 21
119.9954818224017
 31
0.0
  0
CIRCLE
  5
DB8
330
24
100
AcDbEntity
  8
110-1M
100
AcDbCircle
 10
103.7036506368982
 20
119.9954818224017
 30
0.0
 40
1.7
  0
CIRCLE
  5
DB9
330
24
100
AcDbEntity
  8
110-1M
100
AcDbCircle
 10
103.7036506368982
 20
119.9954818224017
 30
0.0
 40
3.25
  0
CIRCLE
  5
DBA
330
24
100
AcDbEntity
  8
110-1M
100
AcDbCircle
 10
120.0
 20
105.9969787952711
 30
0.0
 40
3.25
  0
CIRCLE
  5
DBB
330
24
100
AcDbEntity
  8
110-1M
100
AcDbCircle
 10
120.0
 20
105.9969787952711
 30
0.0
 40
1.7
  0
CIRCLE
  5
DBC
330
24
100
AcDbEntity
  8
110-1M
100
AcDbCircle
 10
120.0018682227192
 20
517.9999455807844
 30
0.0
 40
3.25
  0
LINE
  5
DBD
330
24
100
AcDbEntity
  8
110-1M
100
AcDbLine
 10
120.0018682227192
 20
507.9999455807844
 30
0.0
 11
120.0018682227192
 21
528.9588496903734
 31
0.0
  0
TEXT
  5
DBE
330
24
100
AcDbEntity
  8
110-1D
100
AcDbText
 10
192.8675141578108
 20
240.9808726923428
 30
0.0
 40
3.0
  1
2
100
AcDbText
  0
LINE
  5
DBF
330
24
100
AcDbEntity
  8
110-1M
100
AcDbLine
 10
193.816462487916
 20
250.4667661430608
 30
0.0
 11
200.4590973244009
 21
238.6093990105531
 31
0.0
  0
LINE
  5
DC0
330
24
100
AcDbEntity
  8
110-1M
100
AcDbLine
 10
187.8855384647286
 20
238.6093990105531
 30
0.0
 11
193.816462487916
 21
250.4667661430608
 31
0.0
  0
CIRCLE
  5
DC1
330
24
100
AcDbEntity
  8
110-1M
100
AcDbCircle
 10
103.7003608984653
 20
215.9973728654532
 30
0.0
 40
3.25
  0
LINE
  5
DC2
330
24
100
AcDbEntity
  8
110-1M
100
AcDbLine
 10
103.7003608984653
 20
205.9973728654532
 30
0.0
 11
103.7003608984653
 21
226.9562769750422
 31
0.0
  0
LINE
  5
DC3
330
24
100
AcDbEntity
  8
110-1M
100
AcDbLine
 10
93.70036089846532
 20
215.9973728654532
 30
0.0
 11
114.5277840619059
 21
215.9973728654532
 31
0.0
  0
CIRCLE
  5
DC4
330
24
100
AcDbEntity
  8
110-1M
100
AcDbCircle
 10
103.7003608984653
 20
215.9973728654532
 30
0.0
 40
1.7
  0
LINE
  5
DC5
330
24
100
AcDbEntity
  8
110-1D
100
AcDbLine
 10
213.3008237246208
 20
228.978478857805
 30
0.0
 11
165.3200786510534
 21
228.978478857805
 31
0.0
  0
TEXT
  5
DC6
330
24
100
AcDbEntity
  8
110-1D
100
AcDbText
 10
178.3837893192598
 20
230.1538682088806
 30
0.0
 40
3.0
  1
ù 4.5 (2x)
100
AcDbText
  0
LINE
  5
DC7
330
24
100
AcDbEntity
  8
110-1M
100
AcDbLine
 10
158.25
 20
229.0
 30
0.0
 11
168.25
 21
229.0
 31
0.0
  0
CIRCLE
  5
DC8
330
24
100
AcDbEntity
  8
110-1M
100
AcDbCircle
 10
163.25
 20
229.0
 30
0.0
 40
2.25
  0
LINE
  5
DC9
330
24
100
AcDbEntity
  8
110-1M
100
AcDbLine
 10
163.25
 20
224.0
 30
0.0
 11
163.25
 21
234.0
 31
0.0
  0
LINE
  5
DCA
330
24
100
AcDbEntity
  8
110-1M
100
AcDbLine
 10
200.4590973244009
 20
238.6093990105531
 30
0.0
 11
187.8855384647286
 21
238.6093990105531
 31
0.0
  0
CIRCLE
  5
DCB
330
24
100
AcDbEntity
  8
110-1M
100
AcDbCircle
 10
103.6995223789754
 20
311.9982762639382
 30
0.0
 40
1.7
  0
CIRCLE
  5
DCC
330
24
100
AcDbEntity
  8
110-1M
100
AcDbCircle
 10
103.6995223789754
 20
311.9982762639382
 30
0.0
 40
3.25
  0
LINE
  5
DCD
330
24
100
AcDbEntity
  8
110-1M
100
AcDbLine
 10
103.6995223789754
 20
301.9982762639382
 30
0.0
 11
103.6995223789754
 21
322.9571803735272
 31
0.0
  0
LINE
  5
DCE
330
24
100
AcDbEntity
  8
110-1M
100
AcDbLine
 10
93.69952237897541
 20
311.9982762639382
 30
0.0
 11
114.526945542416
 21
311.9982762639382
 31
0.0
  0
SOLID
  5
DCF
330
24
100
AcDbEntity
  8
110-1D
  6
BYBLOCK
100
AcDbTrace
 10
83.49999999999999
 20
475.7749660887553
 30
0.0
 11
83.49999999999999
 21
476.9416327554219
 31
0.0
 12
80.0
 22
476.3582994220886
 32
0.0
 13
80.0
 23
476.3582994220886
 33
0.0
  0
LINE
  5
DD0
330
24
100
AcDbEntity
  8
110-1D
100
AcDbLine
 10
75.83828176466354
 20
476.3582994220885
 30
0.0
 11
91.74948486385686
 21
476.3582994220885
 31
0.0
  0
LINE
  5
DD1
330
24
100
AcDbEntity
  8
110-1M
  6
HIDDEN
100
AcDbLine
 10
79.25
 20
412.0
 30
0.0
 11
79.25
 21
468.0
 31
0.0
  0
LINE
  5
DD2
330
24
100
AcDbEntity
  8
110-1M
  6
HIDDEN
100
AcDbLine
 10
79.25
 20
412.0
 30
0.0
 11
79.25
 21
400.005360192165
 31
0.0
  0
LINE
  5
DD3
330
24
100
AcDbEntity
  8
110-1M
  6
HIDDEN
100
AcDbLine
 10
80.0
 20
399.9877673375428
 30
0.0
 11
79.25
 21
399.9877673375428
 31
0.0
  0
LINE
  5
DD4
330
24
100
AcDbEntity
  8
110-1D
100
AcDbLine
 10
79.25
 20
470.0
 30
0.0
 11
79.25
 21
479.2101899538559
 31
0.0
  0
LINE
  5
DD5
330
24
100
AcDbEntity
  8
110-1M
  6
HIDDEN
100
AcDbLine
 10
79.25
 20
468.0
 30
0.0
 11
79.25
 21
514.9837555971869
 31
0.0
  0
SOLID
  5
DD6
330
24
100
AcDbEntity
  8
110-1D
  6
BYBLOCK
100
AcDbTrace
 10
75.75
 20
475.7749660887553
 30
0.0
 11
75.75
 21
476.9416327554219
 31
0.0
 12
79.25
 22
476.3582994220885
 32
0.0
 13
79.25
 23
476.3582994220885
 33
0.0
  0
LINE
  5
DD7
330
24
100
AcDbEntity
  8
110-1M
  6
HIDDEN
100
AcDbLine
 10
79.25
 20
515.0065311583302
 30
0.0
 11
80.0
 21
515.0065311583302
 31
0.0
  0
LINE
  5
DD8
330
24
100
AcDbEntity
  8
110-1M
100
AcDbLine
 10
103.6995344046214
 20
398.0011549515559
 30
0.0
 11
103.6995344046214
 21
418.9600590611449
 31
0.0
  0
LINE
  5
DD9
330
24
100
AcDbEntity
  8
110-1M
100
AcDbLine
 10
93.69953440462145
 20
408.0011549515559
 30
0.0
 11
114.526957568062
 21
408.0011549515559
 31
0.0
  0
CIRCLE
  5
DDA
330
24
100
AcDbEntity
  8
110-1M
100
AcDbCircle
 10
103.6995344046214
 20
408.0011549515559
 30
0.0
 40
1.7
  0
CIRCLE
  5
DDB
330
24
100
AcDbEntity
  8
110-1M
100
AcDbCircle
 10
103.6995344046214
 20
408.0011549515559
 30
0.0
 40
3.25
  0
LINE
  5
DDC
330
24
100
AcDbEntity
  8
110-1M
100
AcDbLine
 10
110.0018682227192
 20
517.9999455807844
 30
0.0
 11
130.8292913861598
 21
517.9999455807844
 31
0.0
  0
LINE
  5
DDD
330
24
100
AcDbEntity
  8
110-1M
100
AcDbLine
 10
103.6992261364013
 20
494.0019365734658
 30
0.0
 11
103.6992261364013
 21
514.9608406830548
 31
0.0
  0
TEXT
  5
DDE
330
24
100
AcDbEntity
  8
110-1D
100
AcDbText
 10
85.10002685225369
 20
477.0712720550304
 30
0.0
 40
3.5
  1
0.75
100
AcDbText
  0
LINE
  5
DDF
330
24
100
AcDbEntity
  8
110-1M
100
AcDbLine
 10
93.69922613640133
 20
504.0019365734658
 30
0.0
 11
114.5266492998419
 21
504.0019365734658
 31
0.0
  0
CIRCLE
  5
DE0
330
24
100
AcDbEntity
  8
110-1M
100
AcDbCircle
 10
103.6992261364013
 20
504.0019365734658
 30
0.0
 40
1.7
  0
CIRCLE
  5
DE1
330
24
100
AcDbEntity
  8
110-1M
100
AcDbCircle
 10
103.6992261364013
 20
504.0019365734658
 30
0.0
 40
3.25
  0
CIRCLE
  5
DE2
330
24
100
AcDbEntity
  8
110-1M
100
AcDbCircle
 10
120.0018682227192
 20
517.9999455807844
 30
0.0
 40
1.7
  0
LINE
  5
DE3
330
24
100
AcDbEntity
  8
110-1M
100
AcDbLine
 10
78.0
 20
524.0
 30
0.0
 11
80.0
 21
524.0
 31
0.0
  0
DIMENSION
  5
DE4
330
24
100
AcDbEntity
  8
110-1D
100
AcDbDimension
  2
*D64
 10
595.3818242051447
 20
228.9999999999999
 30
0.0
 11
592.0948187481188
 21
164.5
 31
0.0
  3
STANDARD
100
AcDbAlignedDimension
 13
560.7717201481461
 23
100.0
 33
0.0
 14
560.7717201481461
 24
229.0
 34
0.0
 50
90.0
100
AcDbRotatedDimension
  0
DIMENSION
  5
DE5
330
24
100
AcDbEntity
  8
110-1D
100
AcDbDimension
  2
*D63
 10
584.1066365109652
 20
215.9999999999999
 30
0.0
 11
584.1066365109652
 21
158.0
 31
0.0
 70
   128
  3
STANDARD
100
AcDbAlignedDimension
 13
560.0
 23
100.0
 33
0.0
 14
560.0
 24
216.0
 34
0.0
 50
90.0
100
AcDbRotatedDimension
  0
DIMENSION
  5
DE6
330
24
100
AcDbEntity
  8
110-1D
100
AcDbDimension
  2
*D62
 10
603.87074068692
 20
269.1999999999999
 30
0.0
 11
600.583735229894
 21
184.6
 31
0.0
  3
STANDARD
100
AcDbAlignedDimension
 13
563.0868788766404
 23
100.0
 33
0.0
 14
563.0868788766404
 24
269.1999999999999
 34
0.0
 50
90.0
100
AcDbRotatedDimension
  0
DIMENSION
  5
DE7
330
24
100
AcDbEntity
  8
110-1D
100
AcDbDimension
  2
*D61
 10
655.3725435886778
 20
524.0
 30
0.0
 11
655.3725435886776
 21
311.9999999999999
 31
0.0
 70
   128
  3
STANDARD
100
AcDbAlignedDimension
 13
575.4343960991463
 23
99.99999999999998
 33
0.0
 14
575.4343960991463
 24
524.0
 34
0.0
 50
90.0
100
AcDbRotatedDimension
  0
DIMENSION
  5
DE8
330
24
100
AcDbEntity
  8
110-1D
100
AcDbDimension
  2
*D60
 10
646.586416094116
 20
518.0
 30
0.0
 11
646.5864160941159
 21
308.9999999999999
 31
0.0
 70
   128
  3
STANDARD
100
AcDbAlignedDimension
 13
575.4343960991463
 23
99.99999999999998
 33
0.0
 14
575.4343960991463
 24
518.0
 34
0.0
 50
90.0
100
AcDbRotatedDimension
  0
DIMENSION
  5
DE9
330
24
100
AcDbEntity
  8
110-1D
100
AcDbDimension
  2
*D59
 10
638.0775127146851
 20
504.0
 30
0.0
 11
638.077512714685
 21
302.0
 31
0.0
 70
   128
  3
STANDARD
100
AcDbAlignedDimension
 13
575.4343960991463
 23
99.99999999999998
 33
0.0
 14
575.4343960991463
 24
504.0
 34
0.0
 50
90.0
100
AcDbRotatedDimension
  0
DIMENSION
  5
DEA
330
24
100
AcDbEntity
  8
110-1D
100
AcDbDimension
  2
*D58
 10
630.0449039410647
 20
408.0
 30
0.0
 11
630.0449039410645
 21
254.0
 31
0.0
 70
   128
  3
STANDARD
100
AcDbAlignedDimension
 13
586.4047927842758
 23
100.0
 33
0.0
 14
586.4047927842758
 24
408.0
 34
0.0
 50
90.0
100
AcDbRotatedDimension
  0
DIMENSION
  5
DEB
330
24
100
AcDbEntity
  8
110-1D
100
AcDbDimension
  2
*D57
 10
623.163735810853
 20
378.5
 30
0.0
 11
619.876730353827
 21
239.25
 31
0.0
  3
STANDARD
100
AcDbAlignedDimension
 13
575.4343960991463
 23
100.0
 33
0.0
 14
575.4343960991463
 24
378.5
 34
0.0
 50
90.0
100
AcDbRotatedDimension
  0
DIMENSION
  5
DEC
330
24
100
AcDbEntity
  8
110-1D
100
AcDbDimension
  2
*D56
 10
609.0745072559352
 20
311.9999999999999
 30
0.0
 11
609.0745072559351
 21
205.9999999999999
 31
0.0
 70
   128
  3
STANDARD
100
AcDbAlignedDimension
 13
575.4343960991463
 23
99.99999999999998
 33
0.0
 14
575.4343960991463
 24
311.9999999999999
 34
0.0
 50
90.0
100
AcDbRotatedDimension
  0
LINE
  5
DED
330
24
100
AcDbEntity
  8
110-1M
100
AcDbLine
 10
560.0
 20
522.0
 30
0.0
 11
560.0
 21
102.0
 31
0.0
  0
LWPOLYLINE
  5
DEE
330
24
100
AcDbEntity
  8
110-1M
100
AcDbPolyline
 90
        2
 70
     0
 43
0.3
 39
3.0
 10
692.6757316472588
 20
63.15123539562016
 10
701.0757316472587
 20
71.55123539562019
  0
LWPOLYLINE
  5
DEF
330
24
100
AcDbEntity
  8
110-1M
100
AcDbPolyline
 90
        2
 70
     0
 43
0.3
 39
3.0
 10
675.2757316472583
 20
63.15123539562016
 10
666.8757316472585
 20
71.55123539562019
  0
LWPOLYLINE
  5
DF0
330
24
100
AcDbEntity
  8
110-1M
100
AcDbPolyline
 90
        2
 70
     0
 43
0.3
 39
3.0
 10
675.2757316472583
 20
63.15123539562016
 10
675.2757316472583
 20
59.5512353956202
  0
LWPOLYLINE
  5
DF1
330
24
100
AcDbEntity
  8
110-1M
100
AcDbPolyline
 90
        2
 70
     0
 43
0.3
 39
3.0
 10
659.9757316472586
 20
71.55123539562019
 10
707.9757316472586
 20
71.55123539562019
  0
LWPOLYLINE
  5
DF2
330
24
100
AcDbEntity
  8
110-1M
100
AcDbPolyline
 90
        2
 70
     0
 43
0.3
 39
3.0
 10
659.9757316472586
 20
59.5512353956202
 10
707.9757316472586
 20
59.5512353956202
  0
LWPOLYLINE
  5
DF3
330
24
100
AcDbEntity
  8
110-1M
100
AcDbPolyline
 90
        2
 70
     0
 43
0.3
 39
3.0
 10
675.2757316472583
 20
63.15123539562016
 10
692.6757316472588
 20
63.15123539562016
  0
POLYLINE
  5
DF4
330
24
100
AcDbEntity
  8
110-1M
100
AcDb2dPolyline
 66
     1
 10
0.0
 20
0.0
 30
0.0
 39
3.0
 70
     2
 40
0.3
 41
0.3
  0
VERTEX
  5
DF5
330
DF4
100
AcDbEntity
  8
110-1M
100
AcDbVertex
100
AcDb2dVertex
 10
659.9757316472586
 20
71.55123539562019
 30
0.0
 42
-0.1347946990472814
  0
VERTEX
  5
DF6
330
DF4
100
AcDbEntity
  8
110-1M
100
AcDbVertex
100
AcDb2dVertex
 10
661.0294111435292
 20
70.36396833457392
 30
0.0
 42
-0.1421464277117637
 70
     1
  0
VERTEX
  5
DF7
330
DF4
100
AcDbEntity
  8
110-1M
100
AcDbVertex
100
AcDb2dVertex
 10
661.2927354672778
 20
68.87881991484936
 30
0.0
 42
-0.2608119657028592
  0
VERTEX
  5
DF8
330
DF4
100
AcDbEntity
  8
110-1M
100
AcDbVertex
100
AcDb2dVertex
 10
660.4253669699006
 20
67.65658039300795
 30
0.0
 42
0.2811418390668863
 70
     1
  0
VERTEX
  5
DF9
330
DF4
100
AcDbEntity
  8
110-1M
100
AcDbVertex
100
AcDb2dVertex
 10
659.6563820799641
 20
66.48106277886147
 30
0.0
 42
0.2768744239093523
  0
VERTEX
  5
DFA
330
DF4
100
AcDbEntity
  8
110-1M
100
AcDbVertex
100
AcDb2dVertex
 10
660.3066213735611
 20
65.31599742631526
 30
0.0
 42
-0.2511530114062101
 70
     1
  0
VERTEX
  5
DFB
330
DF4
100
AcDbEntity
  8
110-1M
100
AcDbVertex
100
AcDb2dVertex
 10
661.0745550156362
 20
64.08330564287358
 30
0.0
 42
-0.3606631986456652
  0
VERTEX
  5
DFC
330
DF4
100
AcDbEntity
  8
110-1M
100
AcDbVertex
100
AcDb2dVertex
 10
659.9470530820942
 20
62.52801180761768
 30
0.0
 42
0.3993063978880897
 70
     1
  0
VERTEX
  5
DFD
330
DF4
100
AcDbEntity
  8
110-1M
100
AcDbVertex
100
AcDb2dVertex
 10
659.0018407250383
 20
61.01950485800016
 30
0.0
 42
0.0966962628049608
  0
VERTEX
  5
DFE
330
DF4
100
AcDbEntity
  8
110-1M
100
AcDbVertex
100
AcDb2dVertex
 10
659.3318971605428
 20
60.22306161262751
 30
0.0
 42
0.0894691556454325
 70
     1
  0
VERTEX
  5
DFF
330
DF4
100
AcDbEntity
  8
110-1M
100
AcDbVertex
100
AcDb2dVertex
 10
659.9757316472586
 20
59.5512353956202
 30
0.0
  0
SEQEND
  5
E00
330
DF4
100
AcDbEntity
  8
110-1M
  0
POLYLINE
  5
E01
330
24
100
AcDbEntity
  8
110-1M
100
AcDb2dPolyline
 66
     1
 10
0.0
 20
0.0
 30
0.0
 39
3.0
 70
     2
 40
0.3
 41
0.3
  0
VERTEX
  5
E02
330
E01
100
AcDbEntity
  8
110-1M
100
AcDbVertex
100
AcDb2dVertex
 10
707.9757316472586
 20
71.55123539562019
 30
0.0
 42
0.1347946990472814
  0
VERTEX
  5
E03
330
E01
100
AcDbEntity
  8
110-1M
100
AcDbVertex
100
AcDb2dVertex
 10
706.9220521509879
 20
70.36396833457392
 30
0.0
 42
0.1421464277117637
 70
     1
  0
VERTEX
  5
E04
330
E01
100
AcDbEntity
  8
110-1M
100
AcDbVertex
100
AcDb2dVertex
 10
706.6587278272394
 20
68.87881991484936
 30
0.0
 42
0.2608119657028592
  0
VERTEX
  5
E05
330
E01
100
AcDbEntity
  8
110-1M
100
AcDbVertex
100
AcDb2dVertex
 10
707.5260963246165
 20
67.65658039300795
 30
0.0
 42
-0.2811418390668863
 70
     1
  0
VERTEX
  5
E06
330
E01
100
AcDbEntity
  8
110-1M
100
AcDbVertex
100
AcDb2dVertex
 10
708.295081214553
 20
66.48106277886147
 30
0.0
 42
-0.2768744239093523
  0
VERTEX
  5
E07
330
E01
100
AcDbEntity
  8
110-1M
100
AcDbVertex
100
AcDb2dVertex
 10
707.6448419209561
 20
65.31599742631526
 30
0.0
 42
0.2511530114062101
 70
     1
  0
VERTEX
  5
E08
330
E01
100
AcDbEntity
  8
110-1M
100
AcDbVertex
100
AcDb2dVertex
 10
706.8769082788809
 20
64.08330564287358
 30
0.0
 42
0.3606631986456652
  0
VERTEX
  5
E09
330
E01
100
AcDbEntity
  8
110-1M
100
AcDbVertex
100
AcDb2dVertex
 10
708.004410212423
 20
62.52801180761768
 30
0.0
 42
-0.3993063978880897
 70
     1
  0
VERTEX
  5
E0A
330
E01
100
AcDbEntity
  8
110-1M
100
AcDbVertex
100
AcDb2dVertex
 10
708.9496225694789
 20
61.01950485800016
 30
0.0
 42
-0.0966962628049608
  0
VERTEX
  5
E0B
330
E01
100
AcDbEntity
  8
110-1M
100
AcDbVertex
100
AcDb2dVertex
 10
708.6195661339744
 20
60.22306161262751
 30
0.0
 42
-0.0894691556454325
 70
     1
  0
VERTEX
  5
E0C
330
E01
100
AcDbEntity
  8
110-1M
100
AcDbVertex
100
AcDb2dVertex
 10
707.9757316472586
 20
59.5512353956202
 30
0.0
  0
SEQEND
  5
E0D
330
E01
100
AcDbEntity
  8
110-1M
  0
LWPOLYLINE
  5
E0E
330
24
100
AcDbEntity
  8
110-1M
100
AcDbPolyline
 90
        2
 70
     0
 43
0.3
 39
3.0
 10
692.8272468374237
 20
62.99972020545509
 10
692.8272468374237
 20
59.39972020545512
  0
LINE
  5
E0F
330
24
100
AcDbEntity
  8
110-1M
100
AcDbLine
 10
220.0011726148014
 20
96.00031150309632
 30
0.0
 11
220.0011726148014
 21
116.9592156126853
 31
0.0
  0
LINE
  5
E10
330
24
100
AcDbEntity
  8
110-1D
100
AcDbLine
 10
219.9999999999999
 20
92.82857471307194
 30
0.0
 11
219.9999999999999
 21
98.35710237842121
 31
0.0
  0
LINE
  5
E11
330
24
100
AcDbEntity
  8
110-1M
100
AcDbLine
 10
319.9950570452557
 20
95.99734847063238
 30
0.0
 11
319.9950570452557
 21
116.9562525802213
 31
0.0
  0
LINE
  5
E12
330
24
100
AcDbEntity
  8
110-1D
100
AcDbLine
 10
319.9999999999999
 20
86.65714816526671
 30
0.0
 11
319.9999999999999
 21
96.81424637190851
 31
0.0
  0
LINE
  5
E13
330
24
100
AcDbEntity
  8
110-1M
100
AcDbLine
 10
309.9950570452557
 20
105.9973484706323
 30
0.0
 11
330.8224802086963
 21
105.9973484706323
 31
0.0
  0
CIRCLE
  5
E14
330
24
100
AcDbEntity
  8
110-1M
100
AcDbCircle
 10
319.9950570452557
 20
105.9973484706323
 30
0.0
 40
3.25
  0
CIRCLE
  5
E15
330
24
100
AcDbEntity
  8
110-1M
100
AcDbCircle
 10
319.9950570452557
 20
105.9973484706323
 30
0.0
 40
1.7
  0
LINE
  5
E16
330
24
100
AcDbEntity
  8
110-1M
100
AcDbLine
 10
410.0039188750036
 20
105.9969769187465
 30
0.0
 11
430.8313420384442
 21
105.9969769187465
 31
0.0
  0
LINE
  5
E17
330
24
100
AcDbEntity
  8
110-1M
100
AcDbLine
 10
420.0039188750037
 20
95.9969769187465
 30
0.0
 11
420.0039188750037
 21
116.9558810283355
 31
0.0
  0
LINE
  5
E18
330
24
100
AcDbEntity
  8
110-1D
100
AcDbLine
 10
419.9999999999999
 20
86.65714816526671
 30
0.0
 11
419.9999999999999
 21
98.35710237842121
 31
0.0
  0
CIRCLE
  5
E19
330
24
100
AcDbEntity
  8
110-1M
100
AcDbCircle
 10
420.0039188750037
 20
105.9969769187465
 30
0.0
 40
3.25
  0
CIRCLE
  5
E1A
330
24
100
AcDbEntity
  8
110-1M
100
AcDbCircle
 10
420.0039188750037
 20
105.9969769187465
 30
0.0
 40
1.7
  0
DIMENSION
  5
E1B
330
24
100
AcDbEntity
  8
110-1D
100
AcDbDimension
  2
*D65
 10
577.9764188564493
 20
120.0
 30
0.0
 11
577.9764188564493
 21
110.0
 31
0.0
 70
   128
  3
STANDARD
100
AcDbAlignedDimension
 13
560.0
 23
100.0
 33
0.0
 14
560.0
 24
120.0
 34
0.0
 50
90.0
100
AcDbRotatedDimension
  0
LINE
  5
E1C
330
24
100
AcDbEntity
  8
110-1D
  6
BYBLOCK
100
AcDbLine
 10
561.0
 20
106.0
 30
0.0
 11
573.1173646772851
 21
106.0
 31
0.0
  0
LINE
  5
E1D
330
24
100
AcDbEntity
  8
110-1D
  6
BYBLOCK
100
AcDbLine
 10
561.0
 20
100.0
 30
0.0
 11
576.9764188564494
 21
100.0
 31
0.0
  0
LINE
  5
E1E
330
24
100
AcDbEntity
  8
110-1M
100
AcDbLine
 10
544.0007448628419
 20
119.9999999999999
 30
0.0
 11
564.8281680262824
 21
119.9999999999999
 31
0.0
  0
LINE
  5
E1F
330
24
100
AcDbEntity
  8
110-1D
100
AcDbLine
 10
559.7108773644637
 20
100.4438953520784
 30
0.0
 11
570.735933684631
 21
71.35395229072421
 31
0.0
  0
LINE
  5
E20
330
24
100
AcDbEntity
  8
110-1M
100
AcDbLine
 10
519.9988496767036
 20
96.00142428222929
 30
0.0
 11
519.9988496767036
 21
116.9603283918182
 31
0.0
  0
LINE
  5
E21
330
24
100
AcDbEntity
  8
110-1D
100
AcDbLine
 10
520.0
 20
86.65714816526673
 30
0.0
 11
520.0
 21
97.58567500560346
 31
0.0
  0
LINE
  5
E22
330
24
100
AcDbEntity
  8
110-1M
100
AcDbLine
 10
558.0
 20
100.0
 30
0.0
 11
538.0
 21
100.0
 31
0.0
  0
LINE
  5
E23
330
24
100
AcDbEntity
  8
110-1D
100
AcDbLine
 10
537.0
 20
86.65714816526673
 30
0.0
 11
537.0
 21
97.58567500560346
 31
0.0
  0
LINE
  5
E24
330
24
100
AcDbEntity
  8
110-1D
100
AcDbLine
 10
560.0
 20
86.65714816526673
 30
0.0
 11
560.0
 21
96.81424637190851
 31
0.0
  0
LINE
  5
E25
330
24
100
AcDbEntity
  8
110-1D
100
AcDbLine
 10
558.4999999999999
 20
86.65714816526673
 30
0.0
 11
558.4999999999999
 21
96.81424637190851
 31
0.0
  0
LINE
  5
E26
330
24
100
AcDbEntity
  8
110-1D
100
AcDbLine
 10
554.0
 20
86.65714816526673
 30
0.0
 11
554.0
 21
97.58567500560346
 31
0.0
  0
ARC
  5
E27
330
24
100
AcDbEntity
  8
110-1M
100
AcDbCircle
 10
558.0
 20
102.0
 30
0.0
 40
2.0
100
AcDbArc
 50
270.0
 51
0.0
  0
POINT
  5
E28
330
24
100
AcDbEntity
  8
110-1M
  6
BYBLOCK
100
AcDbPoint
 10
560.0
 20
100.0
 30
0.0
  0
LINE
  5
E29
330
24
100
AcDbEntity
  8
110-1M
100
AcDbLine
 10
509.9988496767036
 20
106.0014242822292
 30
0.0
 11
530.8262728401441
 21
106.0014242822292
 31
0.0
  0
CIRCLE
  5
E2A
330
24
100
AcDbEntity
  8
110-1M
100
AcDbCircle
 10
519.9988496767036
 20
106.0014242822292
 30
0.0
 40
1.7
  0
CIRCLE
  5
E2B
330
24
100
AcDbEntity
  8
110-1M
100
AcDbCircle
 10
519.9988496767036
 20
106.0014242822292
 30
0.0
 40
3.25
  0
LINE
  5
E2C
330
24
100
AcDbEntity
  8
110-1M
100
AcDbLine
 10
554.0007448628418
 20
109.9999999999999
 30
0.0
 11
554.0007448628418
 21
130.958904109589
 31
0.0
  0
POINT
  5
E2D
330
24
100
AcDbEntity
  8
110-1M
  6
BYBLOCK
100
AcDbPoint
 10
560.0
 20
106.0
 30
0.0
  0
CIRCLE
  5
E2E
330
24
100
AcDbEntity
  8
110-1M
100
AcDbCircle
 10
554.0007448628418
 20
119.9999999999999
 30
0.0
 40
1.7
  0
CIRCLE
  5
E2F
330
24
100
AcDbEntity
  8
110-1M
100
AcDbCircle
 10
554.0007448628418
 20
119.9999999999999
 30
0.0
 40
3.25
  0
LINE
  5
E30
330
24
100
AcDbEntity
  8
110-1D
100
AcDbLine
 10
570.735933684631
 20
71.35395229072421
 30
0.0
 11
596.3942465752021
 21
71.35395229072421
 31
0.0
  0
TEXT
  5
E31
330
24
100
AcDbEntity
  8
110-1D
100
AcDbText
 10
572.7404893792068
 20
72.95891466652306
 30
0.0
 40
3.5
  1
R = 2
100
AcDbText
  0
LINE
  5
E32
330
24
100
AcDbEntity
  8
110-1D
  6
BYBLOCK
100
AcDbLine
 10
569.5819811804791
 20
96.49999999999998
 30
0.0
 11
569.5819811804791
 21
92.99999999999998
 31
0.0
  0
TEXT
  5
E33
330
24
100
AcDbEntity
  8
110-1D
  6
BYBLOCK
100
AcDbText
 10
568.0323219225833
 20
91.06749233752422
 30
0.0
 40
3.5
  1
6.00
 50
90.0
100
AcDbText
  0
SOLID
  5
E34
330
24
100
AcDbEntity
  8
110-1D
  6
BYBLOCK
100
AcDbTrace
 10
570.1653145138124
 20
96.49999999999998
 30
0.0
 11
568.9986478471458
 21
96.49999999999998
 31
0.0
 12
569.5819811804791
 22
100.0
 32
0.0
 13
569.5819811804791
 23
100.0
 33
0.0
  0
SOLID
  5
E35
330
24
100
AcDbEntity
  8
110-1D
  6
BYBLOCK
100
AcDbTrace
 10
570.1653145138124
 20
109.4999999999999
 30
0.0
 11
568.9986478471458
 21
109.4999999999999
 31
0.0
 12
569.5819811804791
 22
106.0
 32
0.0
 13
569.5819811804791
 23
106.0
 33
0.0
  0
POINT
  5
E36
330
24
100
AcDbEntity
  8
110-1D
  6
BYBLOCK
100
AcDbPoint
 10
569.5819811804791
 20
106.0
 30
0.0
  0
LINE
  5
E37
330
24
100
AcDbEntity
  8
110-1D
  6
BYBLOCK
100
AcDbLine
 10
569.5819811804791
 20
109.4999999999999
 30
0.0
 11
569.5819811804791
 21
113.0
 31
0.0
  0
LWPOLYLINE
  5
E38
330
24
100
AcDbEntity
  8
110-1D
  6
CENTER
100
AcDbPolyline
 90
        2
 70
     0
 43
0.0
 10
683.9757316472586
 20
75.26134836894595
 10
683.9757316472586
 20
53.55123539562019
  0
LINE
  5
E39
330
24
100
AcDbEntity
  8
110-1D
  6
BYBLOCK
100
AcDbLine
 10
692.6757316472588
 20
58.95123539562023
 30
0.0
 11
692.6757316472588
 21
49.95123539562023
 31
0.0
  0
LINE
  5
E3A
330
24
100
AcDbEntity
  8
110-1D
  6
BYBLOCK
100
AcDbLine
 10
675.2757316472583
 20
58.95123539562023
 30
0.0
 11
675.2757316472583
 21
49.95123539562023
 31
0.0
  0
TEXT
  5
E3B
330
24
100
AcDbEntity
  8
110-1D
100
AcDbText
 10
697.9748614057458
 20
48.5935862119084
 30
0.0
 40
3.5
  1
¯
100
AcDbText
  0
TEXT
  5
E3C
330
24
100
AcDbEntity
  8
110-1M
100
AcDbText
 10
674.9703495906658
 20
31.81459369126345
 30
0.0
 40
4.0
  1
20 x
100
AcDbText
  0
LINE
  5
E3D
330
24
100
AcDbEntity
  8
110-1D
100
AcDbLine
 10
672.0934968460729
 20
30.00465313964234
 30
0.0
 11
695.7462430927915
 21
30.00465313964234
 31
0.0
  0
SOLID
  5
E3E
330
24
100
AcDbEntity
  8
110-1D
  6
BYBLOCK
100
AcDbTrace
 10
673.4757316472586
 20
50.25123539562013
 30
0.0
 11
673.4757316472586
 21
50.85123539562026
 31
0.0
 12
675.2757316472583
 22
50.55123539562019
 32
0.0
 13
675.2757316472583
 23
50.55123539562019
 33
0.0
  0
LINE
  5
E3F
330
24
100
AcDbEntity
  8
110-1D
  6
BYBLOCK
100
AcDbLine
 10
673.4757316472586
 20
50.55123539562019
 30
0.0
 11
671.6757316472588
 21
50.55123539562019
 31
0.0
  0
LINE
  5
E40
330
24
100
AcDbEntity
  8
110-1D
  6
BYBLOCK
100
AcDbLine
 10
694.4757316472585
 20
50.55123539562019
 30
0.0
 11
696.2757316472583
 21
50.55123539562019
 31
0.0
  0
POINT
  5
E41
330
24
100
AcDbEntity
  8
110-1D
  6
BYBLOCK
100
AcDbPoint
 10
692.6757316472588
 20
50.55123539562019
 30
0.0
  0
SOLID
  5
E42
330
24
100
AcDbEntity
  8
110-1D
  6
BYBLOCK
100
AcDbTrace
 10
694.4757316472585
 20
50.25123539562013
 30
0.0
 11
694.4757316472585
 21
50.85123539562026
 31
0.0
 12
692.6757316472588
 22
50.55123539562019
 32
0.0
 13
692.6757316472588
 23
50.55123539562019
 33
0.0
  0
TEXT
  5
E43
330
24
100
AcDbEntity
  8
110-1D
  6
BYBLOCK
100
AcDbText
 10
710.7757316472588
 20
51.15123539562016
 30
0.0
 40
3.5
  1
+0.18
100
AcDbText
  0
TEXT
  5
E44
330
24
100
AcDbEntity
  8
110-1D
  6
BYBLOCK
100
AcDbText
 10
701.0757316472587
 20
49.05123539562019
 30
0.0
 40
3.5
  1
3.40
100
AcDbText
  0
TEXT
  5
E45
330
24
100
AcDbEntity
  8
110-1D
100
AcDbText
 10
713.6286822788901
 20
46.9126832240676
 30
0.0
 40
3.5
  1
0
100
AcDbText
  0
INSERT
  5
E46
330
24
100
AcDbEntity
  8
110-1M
 62
     7
100
AcDbBlockReference
  2
*X1
 10
569.9757316472585
 20
17.55123539562019
 30
0.0
 41
6.0
 42
6.0
 43
6.0
  0
ARC
  5
E47
330
24
100
AcDbEntity
  8
110-1D
  6
BYBLOCK
100
AcDbCircle
 10
683.9757316472586
 20
54.45123539562006
 30
0.0
 40
38.10000000000012
100
AcDbArc
 50
47.70713902533899
 51
76.55291096369643
  0
SOLID
  5
E48
330
24
100
AcDbEntity
  8
110-1D
  6
BYBLOCK
100
AcDbTrace
 10
699.2757316472583
 20
74.25123539562012
 30
0.0
 11
699.2757316472583
 21
74.85123539562026
 31
0.0
 12
701.0757316472587
 22
74.5512353956202
 32
0.0
 13
701.0757316472587
 23
74.5512353956202
 33
0.0
  0
TEXT
  5
E49
330
24
100
AcDbEntity
  8
110-1M
100
AcDbText
 10
668.0404469193377
 20
101.5512353956201
 30
0.0
 40
3.0
  1
DETAIL A
100
AcDbText
  0
LINE
  5
E4A
330
24
100
AcDbEntity
  8
110-1D
  6
BYBLOCK
100
AcDbLine
 10
656.610699215339
 20
81.81626782753967
 30
0.0
 11
666.4514675785466
 21
71.97549946433206
 31
0.0
  0
LINE
  5
E4B
330
24
100
AcDbEntity
  8
110-1D
  6
BYBLOCK
100
AcDbLine
 10
674.6757316472589
 20
63.15123539562016
 30
0.0
 11
650.3757316472585
 21
63.15123539562016
 31
0.0
  0
ARC
  5
E4C
330
24
100
AcDbEntity
  8
110-1D
  6
BYBLOCK
100
AcDbCircle
 10
683.9757316472586
 20
54.45123539562006
 30
0.0
 40
38.10000000000012
100
AcDbArc
 50
103.4470890363034
 51
132.2928609746608
  0
INSERT
  5
E4D
330
24
100
AcDbEntity
  8
110-1M
 62
     7
100
AcDbBlockReference
  2
*X0
 10
569.9757316472585
 20
17.55123539562019
 30
0.0
 41
6.0
 42
6.0
 43
6.0
  0
TEXT
  5
E4E
330
24
100
AcDbEntity
  8
110-1D
  6
BYBLOCK
100
AcDbText
 10
649.4757316472586
 20
65.85123539562026
 30
0.0
 40
3.5
  1
1.60
100
AcDbText
  0
SOLID
  5
E4F
330
24
100
AcDbEntity
  8
110-1D
  6
BYBLOCK
100
AcDbTrace
 10
651.2757316472583
 20
61.35123539562009
 30
0.0
 11
650.6757316472588
 21
61.35123539562009
 31
0.0
 12
650.9757316472586
 22
63.15123539562016
 32
0.0
 13
650.9757316472586
 23
63.15123539562016
 33
0.0
  0
LINE
  5
E50
330
24
100
AcDbEntity
  8
110-1D
  6
BYBLOCK
100
AcDbLine
 10
650.9757316472586
 20
61.35123539562009
 30
0.0
 11
650.9757316472586
 21
59.5512353956202
 31
0.0
  0
POINT
  5
E51
330
24
100
AcDbEntity
  8
110-1D
  6
BYBLOCK
100
AcDbPoint
 10
650.9757316472586
 20
63.15123539562016
 30
0.0
  0
LINE
  5
E52
330
24
100
AcDbEntity
  8
110-1D
  6
BYBLOCK
100
AcDbLine
 10
659.3757316472585
 20
71.55123539562019
 30
0.0
 11
650.3757316472585
 21
71.55123539562019
 31
0.0
  0
SOLID
  5
E53
330
24
100
AcDbEntity
  8
110-1D
  6
BYBLOCK
100
AcDbTrace
 10
651.2757316472583
 20
73.35123539562026
 30
0.0
 11
650.6757316472588
 21
73.35123539562026
 31
0.0
 12
650.9757316472586
 22
71.55123539562019
 32
0.0
 13
650.9757316472586
 23
71.55123539562019
 33
0.0
  0
LINE
  5
E54
330
24
100
AcDbEntity
  8
110-1D
  6
BYBLOCK
100
AcDbLine
 10
650.9757316472586
 20
73.35123539562026
 30
0.0
 11
650.9757316472586
 21
75.15123539562016
 31
0.0
  0
POINT
  5
E55
330
24
100
AcDbEntity
  8
110-1M
  6
BYBLOCK
100
AcDbPoint
 10
659.9757316472586
 20
71.55123539562019
 30
0.0
  0
SOLID
  5
E56
330
24
100
AcDbEntity
  8
110-1D
  6
BYBLOCK
100
AcDbTrace
 10
658.5445281367285
 20
82.41729101397181
 30
0.0
 11
658.1304044403205
 21
82.85145868212971
 31
0.0
 12
657.0349632840515
 22
81.39200375882767
 32
0.0
 13
657.0349632840515
 23
81.39200375882767
 33
0.0
  0
TEXT
  5
E57
330
24
100
AcDbEntity
  8
110-1D
100
AcDbText
 10
671.9752095023508
 20
78.72063866077319
 30
0.0
 40
3.5
  1
¯
100
AcDbText
  0
TEXT
  5
E58
330
24
100
AcDbEntity
  8
110-1D
  6
BYBLOCK
100
AcDbText
 10
676.7897535113424
 20
79.06657994225064
 30
0.0
 40
3.5
  1
6.50
100
AcDbText
  0
TEXT
  5
E59
330
24
100
AcDbEntity
  8
110-1D
100
AcDbText
 10
689.3128843271535
 20
76.60034102731565
 30
0.0
 40
3.5
  1
0
100
AcDbText
  0
LINE
  5
E5A
330
24
100
AcDbEntity
  8
110-1D
  6
BYBLOCK
100
AcDbLine
 10
668.6757316472588
 20
74.5512353956202
 30
0.0
 11
699.2757316472583
 21
74.5512353956202
 31
0.0
  0
POINT
  5
E5B
330
24
100
AcDbEntity
  8
110-1M
  6
BYBLOCK
100
AcDbPoint
 10
675.2757316472583
 20
59.5512353956202
 30
0.0
  0
POINT
  5
E5C
330
24
100
AcDbEntity
  8
110-1M
  6
BYBLOCK
100
AcDbPoint
 10
675.2757316472583
 20
63.15123539562016
 30
0.0
  0
POINT
  5
E5D
330
24
100
AcDbEntity
  8
110-1M
  6
BYBLOCK
100
AcDbPoint
 10
675.2757316472583
 20
63.15123539562016
 30
0.0
  0
LINE
  5
E5E
330
24
100
AcDbEntity
  8
110-1D
  6
BYBLOCK
100
AcDbLine
 10
666.8757316472585
 20
72.15123539562016
 30
0.0
 11
666.8757316472585
 21
75.15123539562016
 31
0.0
  0
POINT
  5
E5F
330
24
100
AcDbEntity
  8
110-1M
  6
BYBLOCK
100
AcDbPoint
 10
666.8757316472585
 20
71.55123539562019
 30
0.0
  0
POINT
  5
E60
330
24
100
AcDbEntity
  8
110-1M
  6
BYBLOCK
100
AcDbPoint
 10
666.8757316472585
 20
71.55123539562019
 30
0.0
  0
SOLID
  5
E61
330
24
100
AcDbEntity
  8
110-1D
  6
BYBLOCK
100
AcDbTrace
 10
668.6757316472588
 20
74.25123539562012
 30
0.0
 11
668.6757316472588
 21
74.85123539562026
 31
0.0
 12
666.8757316472585
 22
74.5512353956202
 32
0.0
 13
666.8757316472585
 23
74.5512353956202
 33
0.0
  0
POINT
  5
E62
330
24
100
AcDbEntity
  8
110-1M
  6
BYBLOCK
100
AcDbPoint
 10
692.6757316472588
 20
59.5512353956202
 30
0.0
  0
POINT
  5
E63
330
24
100
AcDbEntity
  8
110-1M
  6
BYBLOCK
100
AcDbPoint
 10
692.6757316472588
 20
63.15123539562016
 30
0.0
  0
TEXT
  5
E64
330
24
100
AcDbEntity
  8
110-1D
  6
BYBLOCK
100
AcDbText
 10
676.8757316472589
 20
91.05123539562017
 30
0.0
 40
3.5
  1
90∞
100
AcDbText
  0
TEXT
  5
E65
330
24
100
AcDbEntity
  8
110-1D
  6
BYBLOCK
100
AcDbText
 10
684.5757316472587
 20
88.95123539562026
 30
0.0
 40
3.5
  1
-1∞
100
AcDbText
  0
TEXT
  5
E66
330
24
100
AcDbEntity
  8
110-1D
  6
BYBLOCK
100
AcDbText
 10
686.4897535113424
 20
81.16657994225061
 30
0.0
 40
3.5
  1
+0.22
100
AcDbText
  0
TEXT
  5
E67
330
24
100
AcDbEntity
  8
110-1D
  6
BYBLOCK
100
AcDbText
 10
684.5757316472587
 20
93.15123539562019
 30
0.0
 40
3.5
  1
 0∞
100
AcDbText
  0
LINE
  5
E68
330
24
100
AcDbEntity
  8
110-1D
  6
BYBLOCK
100
AcDbLine
 10
711.3407640791782
 20
81.81626782753967
 30
0.0
 11
701.4999957159706
 21
71.97549946433206
 31
0.0
  0
POINT
  5
E69
330
24
100
AcDbEntity
  8
110-1M
  6
BYBLOCK
100
AcDbPoint
 10
707.9757316472586
 20
59.5512353956202
 30
0.0
  0
LINE
  5
E6A
330
24
100
AcDbEntity
  8
110-1D
  6
BYBLOCK
100
AcDbLine
 10
701.0757316472587
 20
72.15123539562016
 30
0.0
 11
701.0757316472587
 21
75.15123539562016
 31
0.0
  0
POINT
  5
E6B
330
24
100
AcDbEntity
  8
110-1M
  6
BYBLOCK
100
AcDbPoint
 10
701.0757316472587
 20
71.55123539562019
 30
0.0
  0
POINT
  5
E6C
330
24
100
AcDbEntity
  8
110-1M
  6
BYBLOCK
100
AcDbPoint
 10
701.0757316472587
 20
71.55123539562019
 30
0.0
  0
POINT
  5
E6D
330
24
100
AcDbEntity
  8
110-1M
  6
BYBLOCK
100
AcDbPoint
 10
707.9757316472586
 20
71.55123539562019
 30
0.0
  0
POINT
  5
E6E
330
24
100
AcDbEntity
  8
110-1D
  6
BYBLOCK
100
AcDbPoint
 10
701.0757316472587
 20
74.5512353956202
 30
0.0
  0
SOLID
  5
E6F
330
24
100
AcDbEntity
  8
110-1D
  6
BYBLOCK
100
AcDbTrace
 10
709.4069351577887
 20
82.41729101397181
 30
0.0
 11
709.8210588541966
 21
82.85145868212971
 31
0.0
 12
710.9165000104657
 22
81.39200375882767
 32
0.0
 13
710.9165000104657
 23
81.39200375882767
 33
0.0
  0
CIRCLE
  5
E70
330
24
100
AcDbEntity
  8
110-1M
100
AcDbCircle
 10
520.002384747596
 20
517.9995759054231
 30
0.0
 40
3.25
  0
LINE
  5
E71
330
24
100
AcDbEntity
  8
110-1M
100
AcDbLine
 10
520.002384747596
 20
507.9995759054232
 30
0.0
 11
520.002384747596
 21
528.9584800150122
 31
0.0
  0
CIRCLE
  5
E72
330
24
100
AcDbEntity
  8
110-1M
100
AcDbCircle
 10
419.995598721514
 20
517.9958716457122
 30
0.0
 40
3.25
  0
LINE
  5
E73
330
24
100
AcDbEntity
  8
110-1M
100
AcDbLine
 10
419.995598721514
 20
507.9958716457122
 30
0.0
 11
419.995598721514
 21
528.9547757553012
 31
0.0
  0
CIRCLE
  5
E74
330
24
100
AcDbEntity
  8
110-1M
100
AcDbCircle
 10
320.0033771987453
 20
517.9977237755678
 30
0.0
 40
3.25
  0
LINE
  5
E75
330
24
100
AcDbEntity
  8
110-1M
100
AcDbLine
 10
320.0033771987453
 20
507.9977237755677
 30
0.0
 11
320.0033771987453
 21
528.9566278851567
 31
0.0
  0
LINE
  5
E76
330
24
100
AcDbEntity
  8
110-1M
100
AcDbLine
 10
220.0040751653743
 20
510.3012567777107
 30
0.0
 11
220.0040751653743
 21
528.8388514681336
 31
0.0
  0
LINE
  5
E77
330
24
100
AcDbEntity
  8
110-1D
100
AcDbLine
 10
499.9511981611217
 20
383.2079269185769
 30
0.0
 11
486.200954376915
 21
383.2079269185769
 31
0.0
  0
TEXT
  5
E78
330
24
100
AcDbEntity
  8
110-1D
100
AcDbText
 10
487.978026109046
 20
383.6560706628601
 30
0.0
 40
3.0
  1
400
100
AcDbText
  0
LINE
  5
E79
330
24
100
AcDbEntity
  8
110-1M
  6
HIDDEN
100
AcDbLine
 10
326.0
 20
515.0
 30
0.0
 11
494.0
 21
515.0
 31
0.0
  0
LINE
  5
E7A
330
24
100
AcDbEntity
  8
110-1M
  6
HIDDEN
100
AcDbLine
 10
494.0
 20
400.0
 30
0.0
 11
326.0
 21
400.0
 31
0.0
  0
LINE
  5
E7B
330
24
100
AcDbEntity
  8
110-1M
100
AcDbLine
 10
224.6999999999999
 20
264.1999999999999
 30
0.0
 11
224.6999999999999
 21
274.1999999999999
 31
0.0
  0
LINE
  5
E7C
330
24
100
AcDbEntity
  8
110-1M
100
AcDbLine
 10
219.7
 20
269.1999999999999
 30
0.0
 11
229.7
 21
269.1999999999999
 31
0.0
  0
CIRCLE
  5
E7D
330
24
100
AcDbEntity
  8
110-1M
100
AcDbCircle
 10
224.6999999999999
 20
269.1999999999999
 30
0.0
 40
2.25
  0
LINE
  5
E7E
330
24
100
AcDbEntity
  8
110-1M
  6
HIDDEN
100
AcDbLine
 10
320.0
 20
406.0
 30
0.0
 11
320.0
 21
509.0
 31
0.0
  0
ARC
  5
E7F
330
24
100
AcDbEntity
  8
110-1M
  6
HIDDEN
100
AcDbCircle
 10
326.0
 20
406.0
 30
0.0
 40
6.0
100
AcDbArc
 50
180.0
 51
270.0
  0
LINE
  5
E80
330
24
100
AcDbEntity
  8
110-1M
100
AcDbLine
 10
310.0033771987453
 20
517.9977237755678
 30
0.0
 11
330.8308003621859
 21
517.9977237755678
 31
0.0
  0
ARC
  5
E81
330
24
100
AcDbEntity
  8
110-1M
  6
HIDDEN
100
AcDbCircle
 10
326.0
 20
509.0
 30
0.0
 40
6.0
100
AcDbArc
 50
90.0
 51
180.0
  0
CIRCLE
  5
E82
330
24
100
AcDbEntity
  8
110-1M
100
AcDbCircle
 10
320.0033771987453
 20
517.9977237755678
 30
0.0
 40
1.7
  0
LINE
  5
E83
330
24
100
AcDbEntity
  8
110-1M
100
AcDbLine
 10
409.9955987215141
 20
517.9958716457122
 30
0.0
 11
430.8230218849547
 21
517.9958716457122
 31
0.0
  0
LINE
  5
E84
330
24
100
AcDbEntity
  8
110-1M
100
AcDbLine
 10
418.0340243018133
 20
462.8853630935573
 30
0.0
 11
424.6766591382982
 21
451.0279959610496
 31
0.0
  0
LINE
  5
E85
330
24
100
AcDbEntity
  8
110-1M
100
AcDbLine
 10
412.1031002786258
 20
451.0279959610496
 30
0.0
 11
418.0340243018133
 21
462.8853630935573
 31
0.0
  0
LINE
  5
E86
330
24
100
AcDbEntity
  8
110-1M
100
AcDbLine
 10
424.6766591382982
 20
451.0279959610496
 30
0.0
 11
412.1031002786258
 21
451.0279959610496
 31
0.0
  0
TEXT
  5
E87
330
24
100
AcDbEntity
  8
110-1D
100
AcDbText
 10
417.0850759717081
 20
453.3994696428393
 30
0.0
 40
3.0
  1
2
100
AcDbText
  0
CIRCLE
  5
E88
330
24
100
AcDbEntity
  8
110-1M
100
AcDbCircle
 10
419.995598721514
 20
517.9958716457122
 30
0.0
 40
1.7
  0
LINE
  5
E89
330
24
100
AcDbEntity
  8
110-1M
100
AcDbLine
 10
544.00006258311
 20
215.9970031900919
 30
0.0
 11
564.8274857465505
 21
215.9970031900919
 31
0.0
  0
CIRCLE
  5
E8A
330
24
100
AcDbEntity
  8
110-1M
100
AcDbCircle
 10
554.0000625831099
 20
215.9970031900919
 30
0.0
 40
3.25
  0
LINE
  5
E8B
330
24
100
AcDbEntity
  8
110-1M
100
AcDbLine
 10
554.0000625831099
 20
205.9970031900919
 30
0.0
 11
554.0000625831099
 21
226.9559072996809
 31
0.0
  0
CIRCLE
  5
E8C
330
24
100
AcDbEntity
  8
110-1M
100
AcDbCircle
 10
554.0000625831099
 20
215.9970031900919
 30
0.0
 40
1.7
  0
LINE
  5
E8D
330
24
100
AcDbEntity
  8
110-1D
100
AcDbLine
 10
576.4343960991464
 20
311.9999999999999
 30
0.0
 11
562.1978715624136
 21
311.9999999999999
 31
0.0
  0
LINE
  5
E8E
330
24
100
AcDbEntity
  8
110-1M
100
AcDbLine
 10
543.9977004568678
 20
311.9998818777098
 30
0.0
 11
564.8251236203084
 21
311.9998818777098
 31
0.0
  0
CIRCLE
  5
E8F
330
24
100
AcDbEntity
  8
110-1M
100
AcDbCircle
 10
553.9977004568678
 20
311.9998818777098
 30
0.0
 40
1.7
  0
CIRCLE
  5
E90
330
24
100
AcDbEntity
  8
110-1M
100
AcDbCircle
 10
553.9977004568678
 20
311.9998818777098
 30
0.0
 40
3.25
  0
LINE
  5
E91
330
24
100
AcDbEntity
  8
110-1M
100
AcDbLine
 10
553.9977004568678
 20
301.9998818777098
 30
0.0
 11
553.9977004568678
 21
322.9587859872988
 31
0.0
  0
LWPOLYLINE
  5
E92
330
24
100
AcDbEntity
  8
110-1M
  6
HIDDEN
100
AcDbPolyline
 90
        8
 70
     0
 43
0.0
 10
558.4999999999999
 20
462.0
 42
0.4142135623730951
 10
552.5
 20
468.0
 10
543.0
 20
468.0
 42
0.4142135623730951
 10
537.0
 20
462.0
 10
537.0
 20
418.0
 42
0.4142135623730951
 10
543.0
 20
412.0
 10
552.5
 20
412.0
 42
0.4142135623730951
 10
558.4999999999999
 20
418.0
 42
0.4142135623730951
  0
LWPOLYLINE
  5
E93
330
24
100
AcDbEntity
  8
110-1M
  6
HIDDEN
100
AcDbPolyline
 90
        2
 70
     0
 43
0.0
 10
558.4999999999999
 20
418.0
 10
558.4999999999999
 20
462.0
  0
LINE
  5
E94
330
24
100
AcDbEntity
  8
110-1M
  6
HIDDEN
100
AcDbLine
 10
500.0
 20
509.0
 30
0.0
 11
500.0
 21
406.0
 31
0.0
  0
LINE
  5
E95
330
24
100
AcDbEntity
  8
110-1M
100
AcDbLine
 10
544.0
 20
378.5
 30
0.0
 11
564.8274231634405
 21
378.5
 31
0.0
  0
LINE
  5
E96
330
24
100
AcDbEntity
  8
110-1D
100
AcDbLine
 10
554.7536436859304
 20
412.5526797828662
 30
0.0
 11
570.4249373545215
 21
383.8589625860573
 31
0.0
  0
CIRCLE
  5
E97
330
24
100
AcDbEntity
  8
110-1M
100
AcDbCircle
 10
554.0
 20
378.5
 30
0.0
 40
3.25
  0
LINE
  5
E98
330
24
100
AcDbEntity
  8
110-1M
100
AcDbLine
 10
554.0
 20
368.5
 30
0.0
 11
554.0
 21
389.458904109589
 31
0.0
  0
LINE
  5
E99
330
24
100
AcDbEntity
  8
110-1D
100
AcDbLine
 10
500.0851352580207
 20
399.3570286357347
 30
0.0
 11
500.0851352580207
 21
378.3227966333508
 31
0.0
  0
CIRCLE
  5
E9A
330
24
100
AcDbEntity
  8
110-1M
100
AcDbCircle
 10
554.0
 20
378.5
 30
0.0
 40
1.7
  0
ARC
  5
E9B
330
24
100
AcDbEntity
  8
110-1M
  6
HIDDEN
100
AcDbCircle
 10
494.0
 20
406.0
 30
0.0
 40
6.0
100
AcDbArc
 50
270.0
 51
0.0
  0
LINE
  5
E9C
330
24
100
AcDbEntity
  8
110-1D
100
AcDbLine
 10
498.8589693164921
 20
400.0417119840959
 30
0.0
 11
519.8932013188759
 21
400.0417119840959
 31
0.0
  0
TEXT
  5
E9D
330
24
100
AcDbEntity
  8
110-1D
100
AcDbText
 10
514.5648283164653
 20
387.6719838072036
 30
0.0
 40
3.0
  1
300
 50
90.0
100
AcDbText
  0
LINE
  5
E9E
330
24
100
AcDbEntity
  8
110-1D
100
AcDbLine
 10
500.0862652013976
 20
383.2349710691189
 30
0.0
 11
497.4907970613298
 21
383.7709086771638
 31
0.0
  0
LINE
  5
E9F
330
24
100
AcDbEntity
  8
110-1D
100
AcDbLine
 10
497.4907970613298
 20
382.7288077726318
 30
0.0
 11
500.0564322342704
 21
383.2647453806768
 31
0.0
  0
LINE
  5
EA0
330
24
100
AcDbEntity
  8
110-1D
100
AcDbLine
 10
497.4907970613298
 20
383.7709086771638
 30
0.0
 11
497.4907970613298
 21
382.7288077726318
 31
0.0
  0
LINE
  5
EA1
330
24
100
AcDbEntity
  8
110-1D
100
AcDbLine
 10
515.0080710336498
 20
399.9077748871968
 30
0.0
 11
515.0080710336498
 21
386.1575311029901
 31
0.0
  0
LINE
  5
EA2
330
24
100
AcDbEntity
  8
110-1D
100
AcDbLine
 10
515.4871901795949
 20
397.4473737874049
 30
0.0
 11
514.95125257155
 21
400.0130089603455
 31
0.0
  0
LINE
  5
EA3
330
24
100
AcDbEntity
  8
110-1D
100
AcDbLine
 10
514.9810268831079
 20
400.0428419274727
 30
0.0
 11
514.4450892750629
 21
397.4473737874049
 31
0.0
  0
LINE
  5
EA4
330
24
100
AcDbEntity
  8
110-1D
100
AcDbLine
 10
514.4450892750629
 20
397.4473737874049
 30
0.0
 11
515.4871901795949
 21
397.4473737874049
 31
0.0
  0
LINE
  5
EA5
330
24
100
AcDbEntity
  8
110-1D
100
AcDbLine
 10
576.4343960991464
 20
378.5
 30
0.0
 11
562.9695917105597
 21
378.5
 31
0.0
  0
LINE
  5
EA6
330
24
100
AcDbEntity
  8
110-1D
100
AcDbLine
 10
570.4249373545215
 20
383.8589625860573
 30
0.0
 11
599.1000704502414
 21
383.8589625860573
 31
0.0
  0
LINE
  5
EA7
330
24
100
AcDbEntity
  8
110-1D
100
AcDbLine
 10
581.4544223599844
 20
411.9484048473269
 30
0.0
 11
581.4544223599844
 21
396.6703561982084
 31
0.0
  0
TEXT
  5
EA8
330
24
100
AcDbEntity
  8
110-1D
100
AcDbText
 10
572.7571090059708
 20
384.8610249673337
 30
0.0
 40
3.0
  1
R = 6 (8x)
100
AcDbText
  0
LINE
  5
EA9
330
24
100
AcDbEntity
  8
110-1D
100
AcDbLine
 10
565.0
 20
412.0
 30
0.0
 11
586.0342320023838
 21
412.0
 31
0.0
  0
TEXT
  5
EAA
330
24
100
AcDbEntity
  8
110-1D
100
AcDbText
 10
587.9029916884398
 20
410.4589558584611
 30
0.0
 40
3.0
  1
312
100
AcDbText
  0
LINE
  5
EAB
330
24
100
AcDbEntity
  8
110-1D
100
AcDbLine
 10
581.5038979213726
 20
411.9547797755902
 30
0.0
 11
580.494163921514
 21
407.7271181000687
 31
0.0
  0
LINE
  5
EAC
330
24
100
AcDbEntity
  8
110-1D
100
AcDbLine
 10
582.4218379212441
 20
407.7271181000687
 30
0.0
 11
581.5038979213726
 21
411.9547797755902
 31
0.0
  0
LINE
  5
EAD
330
24
100
AcDbEntity
  8
110-1D
100
AcDbLine
 10
580.494163921514
 20
407.7271181000687
 30
0.0
 11
582.4218379212441
 21
407.7271181000687
 31
0.0
  0
LINE
  5
EAE
330
24
100
AcDbEntity
  8
110-1M
100
AcDbLine
 10
544.0049657228793
 20
504.0045280540438
 30
0.0
 11
564.8323888863199
 21
504.0045280540438
 31
0.0
  0
LINE
  5
EAF
330
24
100
AcDbEntity
  8
110-1M
100
AcDbLine
 10
510.0023847475959
 20
517.9995759054231
 30
0.0
 11
530.8298079110365
 21
517.9995759054231
 31
0.0
  0
TEXT
  5
EB0
330
24
100
AcDbEntity
  8
110-1D
100
AcDbText
 10
512.841163733822
 20
503.3238884140097
 30
0.0
 40
3.0
  1
415
 50
90.0
100
AcDbText
  0
LINE
  5
EB1
330
24
100
AcDbEntity
  8
110-1D
100
AcDbLine
 10
497.4255713771248
 20
515.0795372245111
 30
0.0
 11
518.4598033795086
 21
515.0795372245111
 31
0.0
  0
ARC
  5
EB2
330
24
100
AcDbEntity
  8
110-1M
  6
HIDDEN
100
AcDbCircle
 10
494.0
 20
509.0
 30
0.0
 40
6.0
100
AcDbArc
 50
0.0
 51
90.0
  0
LINE
  5
EB3
330
24
100
AcDbEntity
  8
110-1D
100
AcDbLine
 10
513.5746730942826
 20
514.9456001276119
 30
0.0
 11
513.5746730942826
 21
501.1953563434052
 31
0.0
  0
CIRCLE
  5
EB4
330
24
100
AcDbEntity
  8
110-1M
100
AcDbCircle
 10
520.002384747596
 20
517.9995759054231
 30
0.0
 40
1.7
  0
LINE
  5
EB5
330
24
100
AcDbEntity
  8
110-1D
100
AcDbLine
 10
514.0537922402276
 20
512.48519902782
 30
0.0
 11
513.5178546321826
 21
515.0508342007606
 31
0.0
  0
LINE
  5
EB6
330
24
100
AcDbEntity
  8
110-1D
100
AcDbLine
 10
513.5476289437406
 20
515.0806671678878
 30
0.0
 11
513.0116913356956
 21
512.48519902782
 31
0.0
  0
LINE
  5
EB7
330
24
100
AcDbEntity
  8
110-1D
100
AcDbLine
 10
513.0116913356956
 20
512.48519902782
 30
0.0
 11
514.0537922402276
 21
512.48519902782
 31
0.0
  0
LINE
  5
EB8
330
24
100
AcDbEntity
  8
110-1M
100
AcDbLine
 10
554.0049657228792
 20
494.0045280540438
 30
0.0
 11
554.0049657228792
 21
514.9634321636328
 31
0.0
  0
CIRCLE
  5
EB9
330
24
100
AcDbEntity
  8
110-1M
100
AcDbCircle
 10
554.0049657228792
 20
504.0045280540438
 30
0.0
 40
1.7
  0
CIRCLE
  5
EBA
330
24
100
AcDbEntity
  8
110-1M
100
AcDbCircle
 10
554.0049657228792
 20
504.0045280540438
 30
0.0
 40
3.25
  0
LINE
  5
EBB
330
24
100
AcDbEntity
  8
110-1D
100
AcDbLine
 10
565.0
 20
468.0
 30
0.0
 11
586.0342320023838
 21
468.0
 31
0.0
  0
LINE
  5
EBC
330
24
100
AcDbEntity
  8
110-1D
100
AcDbLine
 10
581.1491017171578
 20
467.8660629031009
 30
0.0
 11
581.1491017171578
 21
454.1158191188942
 31
0.0
  0
TEXT
  5
EBD
330
24
100
AcDbEntity
  8
110-1D
100
AcDbText
 10
587.4788211905881
 20
466.9762419182877
 30
0.0
 40
3.0
  1
368
100
AcDbText
  0
LINE
  5
EBE
330
24
100
AcDbEntity
  8
110-1D
100
AcDbLine
 10
581.1220575666157
 20
468.0011299433768
 30
0.0
 11
580.5861199585709
 21
465.405661803309
 31
0.0
  0
LINE
  5
EBF
330
24
100
AcDbEntity
  8
110-1D
100
AcDbLine
 10
581.6282208631028
 20
465.405661803309
 30
0.0
 11
581.0922832550578
 21
467.9712969762496
 31
0.0
  0
LINE
  5
EC0
330
24
100
AcDbEntity
  8
110-1D
100
AcDbLine
 10
580.5861199585709
 20
465.405661803309
 30
0.0
 11
581.6282208631028
 21
465.405661803309
 31
0.0
  0
LINE
  5
EC1
330
24
100
AcDbEntity
  8
110-1D
100
AcDbLine
 10
576.4343960991464
 20
504.0
 30
0.0
 11
562.9695917105597
 21
504.0
 31
0.0
  0
LINE
  5
EC2
330
24
100
AcDbEntity
  8
110-1D
100
AcDbLine
 10
576.4343960991464
 20
518.0
 30
0.0
 11
563.7413118587058
 21
518.0
 31
0.0
  0
LINE
  5
EC3
330
24
100
AcDbEntity
  8
110-1D
100
AcDbLine
 10
570.735933684631
 20
536.4376752068978
 30
0.0
 11
559.4906256384579
 21
523.3742032659319
 31
0.0
  0
LINE
  5
EC4
330
24
100
AcDbEntity
  8
110-1M
100
AcDbLine
 10
558.0
 20
524.0
 30
0.0
 11
538.0
 21
524.0
 31
0.0
  0
ARC
  5
EC5
330
24
100
AcDbEntity
  8
110-1M
100
AcDbCircle
 10
558.0
 20
522.0
 30
0.0
 40
2.0
100
AcDbArc
 50
0.0
 51
90.0
  0
LINE
  5
EC6
330
24
100
AcDbEntity
  8
110-1D
100
AcDbLine
 10
570.735933684631
 20
536.4376752068978
 30
0.0
 11
596.3942465752021
 21
536.4376752068978
 31
0.0
  0
TEXT
  5
EC7
330
24
100
AcDbEntity
  8
110-1D
100
AcDbText
 10
572.7404893792068
 20
538.0426375826967
 30
0.0
 40
3.5
  1
R = 2
100
AcDbText
  0
LINE
  5
EC8
330
24
100
AcDbEntity
  8
110-1D
100
AcDbLine
 10
576.4343960991464
 20
524.0
 30
0.0
 11
563.7413118587058
 21
524.0
 31
0.0
  0
ENDBLK
  5
1D5
330
24
100
AcDbEntity
  8
0
100
AcDbBlockEnd
  0
BLOCK
  5
646
330
63B
100
AcDbEntity
  8
0
100
AcDbBlockBegin
  2
*D45
 70
     1
 10
0.0
 20
0.0
 30
0.0
  3
*D45
  1

  0
LINE
  5
CD3
330
63B
100
AcDbEntity
  8
110-1D
 62
     0
100
AcDbLine
 10
100.0
 20
87.49464816526673
 30
0.0
 11
100.0
 21
39.08311482767091
 31
0.0
  0
LINE
  5
CD4
330
63B
100
AcDbEntity
  8
110-1D
 62
     0
100
AcDbLine
 10
419.9999999999999
 20
87.49464816526673
 30
0.0
 11
419.9999999999999
 21
39.08311482767091
 31
0.0
  0
LINE
  5
CD5
330
63B
100
AcDbEntity
  8
110-1D
 62
     0
100
AcDbLine
 10
103.4999999999999
 20
39.66311482767091
 30
0.0
 11
416.4999999999999
 21
39.66311482767091
 31
0.0
  0
SOLID
  5
CD6
330
63B
100
AcDbEntity
  8
110-1D
 62
     0
100
AcDbTrace
 10
103.4999999999999
 20
40.24644816100424
 30
0.0
 11
103.4999999999999
 21
39.07978149433757
 31
0.0
 12
100.0
 22
39.66311482767091
 32
0.0
 13
100.0
 23
39.66311482767091
 33
0.0
  0
SOLID
  5
CD7
330
63B
100
AcDbEntity
  8
110-1D
 62
     0
100
AcDbTrace
 10
416.4999999999999
 20
40.24644816100424
 30
0.0
 11
416.4999999999999
 21
39.07978149433757
 31
0.0
 12
419.9999999999999
 22
39.66311482767091
 32
0.0
 13
419.9999999999999
 23
39.66311482767091
 33
0.0
  0
MTEXT
  5
CD8
330
63B
100
AcDbEntity
  8
110-1D
 62
     0
100
AcDbMText
 10
260.0
 20
42.95131400911702
 30
0.0
 40
3.5
 41
0.0
 71
     5
 72
     1
  1
\A1;320.00
1001
ACAD
1000
MTEXTBEGIN
1070
    73
1070
     1
1070
    44
1040
1.0
1070
    74
1070
     0
1000
MTEXTEND
  0
POINT
  5
CD9
330
63B
100
AcDbEntity
  8
DEFPOINTS
 62
     0
100
AcDbPoint
 10
100.0
 20
87.65714816526672
 30
0.0
  0
POINT
  5
CDA
330
63B
100
AcDbEntity
  8
DEFPOINTS
 62
     0
100
AcDbPoint
 10
419.9999999999999
 20
87.65714816526672
 30
0.0
  0
POINT
  5
CDB
330
63B
100
AcDbEntity
  8
DEFPOINTS
 62
     0
100
AcDbPoint
 10
419.9999999999999
 20
39.66311482767091
 30
0.0
  0
ENDBLK
  5
647
330
63B
100
AcDbEntity
  8
0
100
AcDbBlockEnd
  0
BLOCK
  5
653
330
648
100
AcDbEntity
  8
0
100
AcDbBlockBegin
  2
*D46
 70
     1
 10
0.0
 20
0.0
 30
0.0
  3
*D46
  1

  0
LINE
  5
CDC
330
648
100
AcDbEntity
  8
110-1D
 62
     0
100
AcDbLine
 10
100.0
 20
87.49464816526673
 30
0.0
 11
100.0
 21
30.55050663403163
 31
0.0
  0
LINE
  5
CDD
330
648
100
AcDbEntity
  8
110-1D
 62
     0
100
AcDbLine
 10
520.0
 20
87.49464816526673
 30
0.0
 11
520.0
 21
30.55050663403163
 31
0.0
  0
LINE
  5
CDE
330
648
100
AcDbEntity
  8
110-1D
 62
     0
100
AcDbLine
 10
103.4999999999999
 20
31.13050663403163
 30
0.0
 11
516.5
 21
31.13050663403163
 31
0.0
  0
SOLID
  5
CDF
330
648
100
AcDbEntity
  8
110-1D
 62
     0
100
AcDbTrace
 10
103.4999999999999
 20
31.71383996736496
 30
0.0
 11
103.4999999999999
 21
30.5471733006983
 31
0.0
 12
100.0
 22
31.13050663403163
 32
0.0
 13
100.0
 23
31.13050663403163
 33
0.0
  0
SOLID
  5
CE0
330
648
100
AcDbEntity
  8
110-1D
 62
     0
100
AcDbTrace
 10
516.5
 20
31.71383996736496
 30
0.0
 11
516.5
 21
30.5471733006983
 31
0.0
 12
520.0
 22
31.13050663403163
 32
0.0
 13
520.0
 23
31.13050663403163
 33
0.0
  0
MTEXT
  5
CE1
330
648
100
AcDbEntity
  8
110-1D
 62
     0
100
AcDbMText
 10
310.0
 20
34.41751209105755
 30
0.0
 40
3.5
 41
0.0
 71
     5
 72
     1
  1
\A1;420.00
1001
ACAD
1000
MTEXTBEGIN
1070
    73
1070
     1
1070
    44
1040
1.0
1070
    74
1070
     0
1000
MTEXTEND
  0
POINT
  5
CE2
330
648
100
AcDbEntity
  8
DEFPOINTS
 62
     0
100
AcDbPoint
 10
100.0
 20
87.65714816526672
 30
0.0
  0
POINT
  5
CE3
330
648
100
AcDbEntity
  8
DEFPOINTS
 62
     0
100
AcDbPoint
 10
520.0
 20
87.65714816526672
 30
0.0
  0
POINT
  5
CE4
330
648
100
AcDbEntity
  8
DEFPOINTS
 62
     0
100
AcDbPoint
 10
520.0
 20
31.13050663403163
 30
0.0
  0
ENDBLK
  5
654
330
648
100
AcDbEntity
  8
0
100
AcDbBlockEnd
  0
BLOCK
  5
660
330
655
100
AcDbEntity
  8
0
100
AcDbBlockBegin
  2
*D47
 70
     1
 10
0.0
 20
0.0
 30
0.0
  3
*D47
  1

  0
LINE
  5
CE5
330
655
100
AcDbEntity
  8
110-1D
 62
     0
100
AcDbLine
 10
100.0
 20
87.49464816526673
 30
0.0
 11
100.0
 21
21.9341649952493
 31
0.0
  0
LINE
  5
CE6
330
655
100
AcDbEntity
  8
110-1D
 62
     0
100
AcDbLine
 10
537.0
 20
87.49464816526673
 30
0.0
 11
537.0
 21
21.9341649952493
 31
0.0
  0
LINE
  5
CE7
330
655
100
AcDbEntity
  8
110-1D
 62
     0
100
AcDbLine
 10
103.4999999999999
 20
22.5141649952493
 30
0.0
 11
533.4999999999999
 21
22.5141649952493
 31
0.0
  0
SOLID
  5
CE8
330
655
100
AcDbEntity
  8
110-1D
 62
     0
100
AcDbTrace
 10
103.4999999999999
 20
23.09749832858263
 30
0.0
 11
103.4999999999999
 21
21.93083166191597
 31
0.0
 12
100.0
 22
22.5141649952493
 32
0.0
 13
100.0
 23
22.5141649952493
 33
0.0
  0
SOLID
  5
CE9
330
655
100
AcDbEntity
  8
110-1D
 62
     0
100
AcDbTrace
 10
533.4999999999999
 20
23.09749832858263
 30
0.0
 11
533.4999999999999
 21
21.93083166191597
 31
0.0
 12
537.0
 22
22.5141649952493
 32
0.0
 13
537.0
 23
22.5141649952493
 33
0.0
  0
MTEXT
  5
CEA
330
655
100
AcDbEntity
  8
110-1D
 62
     0
100
AcDbMText
 10
318.5
 20
25.80236417669541
 30
0.0
 40
3.5
 41
0.0
 71
     5
 72
     1
  1
\A1;437.00
1001
ACAD
1000
MTEXTBEGIN
1070
    73
1070
     1
1070
    44
1040
1.0
1070
    74
1070
     0
1000
MTEXTEND
  0
POINT
  5
CEB
330
655
100
AcDbEntity
  8
DEFPOINTS
 62
     0
100
AcDbPoint
 10
100.0
 20
87.65714816526672
 30
0.0
  0
POINT
  5
CEC
330
655
100
AcDbEntity
  8
DEFPOINTS
 62
     0
100
AcDbPoint
 10
537.0
 20
87.65714816526672
 30
0.0
  0
POINT
  5
CED
330
655
100
AcDbEntity
  8
DEFPOINTS
 62
     0
100
AcDbPoint
 10
537.0
 20
22.5141649952493
 30
0.0
  0
ENDBLK
  5
661
330
655
100
AcDbEntity
  8
0
100
AcDbBlockEnd
  0
BLOCK
  5
66D
330
662
100
AcDbEntity
  8
0
100
AcDbBlockBegin
  2
*D48
 70
     1
 10
0.0
 20
0.0
 30
0.0
  3
*D48
  1

  0
LINE
  5
CEE
330
662
100
AcDbEntity
  8
110-1D
 62
     0
100
AcDbLine
 10
100.0
 20
87.49464816526673
 30
0.0
 11
100.0
 21
12.53451922195383
 31
0.0
  0
LINE
  5
CEF
330
662
100
AcDbEntity
  8
110-1D
 62
     0
100
AcDbLine
 10
554.0
 20
87.49464816526673
 30
0.0
 11
554.0
 21
12.53451922195383
 31
0.0
  0
LINE
  5
CF0
330
662
100
AcDbEntity
  8
110-1D
 62
     0
100
AcDbLine
 10
103.4999999999999
 20
13.11451922195382
 30
0.0
 11
550.4999999999999
 21
13.11451922195382
 31
0.0
  0
SOLID
  5
CF1
330
662
100
AcDbEntity
  8
110-1D
 62
     0
100
AcDbTrace
 10
103.4999999999999
 20
13.69785255528716
 30
0.0
 11
103.4999999999999
 21
12.53118588862049
 31
0.0
 12
100.0
 22
13.11451922195382
 32
0.0
 13
100.0
 23
13.11451922195382
 33
0.0
  0
SOLID
  5
CF2
330
662
100
AcDbEntity
  8
110-1D
 62
     0
100
AcDbTrace
 10
550.4999999999999
 20
13.69785255528716
 30
0.0
 11
550.4999999999999
 21
12.53118588862049
 31
0.0
 12
554.0
 22
13.11451922195382
 32
0.0
 13
554.0
 23
13.11451922195382
 33
0.0
  0
MTEXT
  5
CF3
330
662
100
AcDbEntity
  8
110-1D
 62
     0
100
AcDbMText
 10
327.0
 20
16.40152467897974
 30
0.0
 40
3.5
 41
0.0
 71
     5
 72
     1
  1
\A1;454.00
1001
ACAD
1000
MTEXTBEGIN
1070
    73
1070
     1
1070
    44
1040
1.0
1070
    74
1070
     0
1000
MTEXTEND
  0
POINT
  5
CF4
330
662
100
AcDbEntity
  8
DEFPOINTS
 62
     0
100
AcDbPoint
 10
100.0
 20
87.65714816526672
 30
0.0
  0
POINT
  5
CF5
330
662
100
AcDbEntity
  8
DEFPOINTS
 62
     0
100
AcDbPoint
 10
554.0
 20
87.65714816526672
 30
0.0
  0
POINT
  5
CF6
330
662
100
AcDbEntity
  8
DEFPOINTS
 62
     0
100
AcDbPoint
 10
554.0
 20
13.11451922195382
 30
0.0
  0
ENDBLK
  5
66E
330
662
100
AcDbEntity
  8
0
100
AcDbBlockEnd
  0
BLOCK
  5
67A
330
66F
100
AcDbEntity
  8
0
100
AcDbBlockBegin
  2
*D49
 70
     1
 10
0.0
 20
0.0
 30
0.0
  3
*D49
  1

  0
LINE
  5
CF7
330
66F
100
AcDbEntity
  8
110-1D
 62
     0
100
AcDbLine
 10
100.0
 20
87.49464816526673
 30
0.0
 11
100.0
 21
3.134874728945746
 31
0.0
  0
LINE
  5
CF8
330
66F
100
AcDbEntity
  8
110-1D
 62
     0
100
AcDbLine
 10
558.4999999999999
 20
87.49464816526673
 30
0.0
 11
558.4999999999999
 21
3.134874728945746
 31
0.0
  0
LINE
  5
CF9
330
66F
100
AcDbEntity
  8
110-1D
 62
     0
100
AcDbLine
 10
103.4999999999999
 20
3.714874728945744
 30
0.0
 11
555.0
 21
3.714874728945744
 31
0.0
  0
SOLID
  5
CFA
330
66F
100
AcDbEntity
  8
110-1D
 62
     0
100
AcDbTrace
 10
103.4999999999999
 20
4.298208062279077
 30
0.0
 11
103.4999999999999
 21
3.131541395612411
 31
0.0
 12
100.0
 22
3.714874728945744
 32
0.0
 13
100.0
 23
3.714874728945744
 33
0.0
  0
SOLID
  5
CFB
330
66F
100
AcDbEntity
  8
110-1D
 62
     0
100
AcDbTrace
 10
555.0
 20
4.298208062279077
 30
0.0
 11
555.0
 21
3.131541395612411
 31
0.0
 12
558.4999999999999
 22
3.714874728945744
 32
0.0
 13
558.4999999999999
 23
3.714874728945744
 33
0.0
  0
MTEXT
  5
CFC
330
66F
100
AcDbEntity
  8
110-1D
 62
     0
100
AcDbMText
 10
329.2499999999999
 20
7.001880185971665
 30
0.0
 40
3.5
 41
0.0
 71
     5
 72
     1
  1
\A1;458.50
1001
ACAD
1000
MTEXTBEGIN
1070
    73
1070
     1
1070
    44
1040
1.0
1070
    74
1070
     0
1000
MTEXTEND
  0
POINT
  5
CFD
330
66F
100
AcDbEntity
  8
DEFPOINTS
 62
     0
100
AcDbPoint
 10
100.0
 20
87.65714816526672
 30
0.0
  0
POINT
  5
CFE
330
66F
100
AcDbEntity
  8
DEFPOINTS
 62
     0
100
AcDbPoint
 10
558.4999999999999
 20
87.65714816526672
 30
0.0
  0
POINT
  5
CFF
330
66F
100
AcDbEntity
  8
DEFPOINTS
 62
     0
100
AcDbPoint
 10
558.4999999999999
 20
3.714874728945744
 30
0.0
  0
ENDBLK
  5
67B
330
66F
100
AcDbEntity
  8
0
100
AcDbBlockEnd
  0
BLOCK
  5
687
330
67C
100
AcDbEntity
  8
0
100
AcDbBlockBegin
  2
*D50
 70
     1
 10
0.0
 20
0.0
 30
0.0
  3
*D50
  1

  0
LINE
  5
D00
330
67C
100
AcDbEntity
  8
110-1D
 62
     0
100
AcDbLine
 10
100.0
 20
87.49464816526673
 30
0.0
 11
100.0
 21
-6.264771044349728
 31
0.0
  0
LINE
  5
D01
330
67C
100
AcDbEntity
  8
110-1D
 62
     0
100
AcDbLine
 10
560.0
 20
87.49464816526673
 30
0.0
 11
560.0
 21
-6.264771044349728
 31
0.0
  0
LINE
  5
D02
330
67C
100
AcDbEntity
  8
110-1D
 62
     0
100
AcDbLine
 10
103.4999999999999
 20
-5.68477104434973
 30
0.0
 11
556.5
 21
-5.68477104434973
 31
0.0
  0
SOLID
  5
D03
330
67C
100
AcDbEntity
  8
110-1D
 62
     0
100
AcDbTrace
 10
103.4999999999999
 20
-5.101437711016397
 30
0.0
 11
103.4999999999999
 21
-6.268104377683063
 31
0.0
 12
100.0
 22
-5.68477104434973
 32
0.0
 13
100.0
 23
-5.68477104434973
 33
0.0
  0
SOLID
  5
D04
330
67C
100
AcDbEntity
  8
110-1D
 62
     0
100
AcDbTrace
 10
556.5
 20
-5.101437711016397
 30
0.0
 11
556.5
 21
-6.268104377683063
 31
0.0
 12
560.0
 22
-5.68477104434973
 32
0.0
 13
560.0
 23
-5.68477104434973
 33
0.0
  0
MTEXT
  5
D05
330
67C
100
AcDbEntity
  8
110-1D
 62
     0
100
AcDbMText
 10
330.0
 20
-2.397765587323809
 30
0.0
 40
3.5
 41
0.0
 71
     5
 72
     1
  1
\A1;460.00
1001
ACAD
1000
MTEXTBEGIN
1070
    73
1070
     1
1070
    44
1040
1.0
1070
    74
1070
     0
1000
MTEXTEND
  0
POINT
  5
D06
330
67C
100
AcDbEntity
  8
DEFPOINTS
 62
     0
100
AcDbPoint
 10
100.0
 20
87.65714816526672
 30
0.0
  0
POINT
  5
D07
330
67C
100
AcDbEntity
  8
DEFPOINTS
 62
     0
100
AcDbPoint
 10
560.0
 20
87.65714816526672
 30
0.0
  0
POINT
  5
D08
330
67C
100
AcDbEntity
  8
DEFPOINTS
 62
     0
100
AcDbPoint
 10
560.0
 20
-5.68477104434973
 30
0.0
  0
ENDBLK
  5
688
330
67C
100
AcDbEntity
  8
0
100
AcDbBlockEnd
  0
BLOCK
  5
694
330
689
100
AcDbEntity
  8
0
100
AcDbBlockBegin
  2
*D51
 70
     1
 10
0.0
 20
0.0
 30
0.0
  3
*D51
  1

  0
LINE
  5
D09
330
689
100
AcDbEntity
  8
110-1D
 62
     0
100
AcDbLine
 10
100.0
 20
87.49464816526673
 30
0.0
 11
100.0
 21
48.15713461494919
 31
0.0
  0
LINE
  5
D0A
330
689
100
AcDbEntity
  8
110-1D
 62
     0
100
AcDbLine
 10
319.9999999999999
 20
87.49464816526673
 30
0.0
 11
319.9999999999999
 21
48.15713461494919
 31
0.0
  0
LINE
  5
D0B
330
689
100
AcDbEntity
  8
110-1D
 62
     0
100
AcDbLine
 10
103.4999999999999
 20
48.73713461494919
 30
0.0
 11
316.4999999999999
 21
48.73713461494919
 31
0.0
  0
SOLID
  5
D0C
330
689
100
AcDbEntity
  8
110-1D
 62
     0
100
AcDbTrace
 10
103.4999999999999
 20
49.32046794828252
 30
0.0
 11
103.4999999999999
 21
48.15380128161585
 31
0.0
 12
100.0
 22
48.73713461494919
 32
0.0
 13
100.0
 23
48.73713461494919
 33
0.0
  0
SOLID
  5
D0D
330
689
100
AcDbEntity
  8
110-1D
 62
     0
100
AcDbTrace
 10
316.4999999999999
 20
49.32046794828252
 30
0.0
 11
316.4999999999999
 21
48.15380128161585
 31
0.0
 12
319.9999999999999
 22
48.73713461494919
 32
0.0
 13
319.9999999999999
 23
48.73713461494919
 33
0.0
  0
MTEXT
  5
D0E
330
689
100
AcDbEntity
  8
110-1D
 62
     0
100
AcDbMText
 10
209.9999999999999
 20
52.02414007197511
 30
0.0
 40
3.5
 41
0.0
 71
     5
 72
     1
  1
\A1;220.00
1001
ACAD
1000
MTEXTBEGIN
1070
    73
1070
     1
1070
    44
1040
1.0
1070
    74
1070
     0
1000
MTEXTEND
  0
POINT
  5
D0F
330
689
100
AcDbEntity
  8
DEFPOINTS
 62
     0
100
AcDbPoint
 10
100.0
 20
87.65714816526672
 30
0.0
  0
POINT
  5
D10
330
689
100
AcDbEntity
  8
DEFPOINTS
 62
     0
100
AcDbPoint
 10
319.9999999999999
 20
87.65714816526672
 30
0.0
  0
POINT
  5
D11
330
689
100
AcDbEntity
  8
DEFPOINTS
 62
     0
100
AcDbPoint
 10
319.9999999999999
 20
48.73713461494919
 30
0.0
  0
ENDBLK
  5
695
330
689
100
AcDbEntity
  8
0
100
AcDbBlockEnd
  0
BLOCK
  5
6A1
330
696
100
AcDbEntity
  8
0
100
AcDbBlockBegin
  2
*D52
 70
     1
 10
0.0
 20
0.0
 30
0.0
  3
*D52
  1

  0
LINE
  5
D12
330
696
100
AcDbEntity
  8
110-1D
 62
     0
100
AcDbLine
 10
100.0
 20
93.66607471307196
 30
0.0
 11
100.0
 21
66.38154755444863
 31
0.0
  0
LINE
  5
D13
330
696
100
AcDbEntity
  8
110-1D
 62
     0
100
AcDbLine
 10
219.9999999999999
 20
93.66607471307196
 30
0.0
 11
219.9999999999999
 21
66.38154755444863
 31
0.0
  0
LINE
  5
D14
330
696
100
AcDbEntity
  8
110-1D
 62
     0
100
AcDbLine
 10
103.4999999999999
 20
66.96154755444863
 30
0.0
 11
216.4999999999999
 21
66.96154755444863
 31
0.0
  0
SOLID
  5
D15
330
696
100
AcDbEntity
  8
110-1D
 62
     0
100
AcDbTrace
 10
103.4999999999999
 20
67.54488088778195
 30
0.0
 11
103.4999999999999
 21
66.3782142211153
 31
0.0
 12
100.0
 22
66.96154755444863
 32
0.0
 13
100.0
 23
66.96154755444863
 33
0.0
  0
SOLID
  5
D16
330
696
100
AcDbEntity
  8
110-1D
 62
     0
100
AcDbTrace
 10
216.4999999999999
 20
67.54488088778195
 30
0.0
 11
216.4999999999999
 21
66.3782142211153
 31
0.0
 12
219.9999999999999
 22
66.96154755444863
 32
0.0
 13
219.9999999999999
 23
66.96154755444863
 33
0.0
  0
MTEXT
  5
D17
330
696
100
AcDbEntity
  8
110-1D
 62
     0
100
AcDbMText
 10
160.0
 20
70.24855301147455
 30
0.0
 40
3.5
 41
0.0
 71
     5
 72
     1
  1
\A1;120.00
1001
ACAD
1000
MTEXTBEGIN
1070
    73
1070
     1
1070
    44
1040
1.0
1070
    74
1070
     0
1000
MTEXTEND
  0
POINT
  5
D18
330
696
100
AcDbEntity
  8
DEFPOINTS
 62
     0
100
AcDbPoint
 10
100.0
 20
93.82857471307195
 30
0.0
  0
POINT
  5
D19
330
696
100
AcDbEntity
  8
DEFPOINTS
 62
     0
100
AcDbPoint
 10
219.9999999999999
 20
93.82857471307195
 30
0.0
  0
POINT
  5
D1A
330
696
100
AcDbEntity
  8
DEFPOINTS
 62
     0
100
AcDbPoint
 10
219.9999999999999
 20
66.96154755444863
 30
0.0
  0
ENDBLK
  5
6A2
330
696
100
AcDbEntity
  8
0
100
AcDbBlockEnd
  0
BLOCK
  5
6AE
330
6A3
100
AcDbEntity
  8
0
100
AcDbBlockBegin
  2
*D53
 70
     1
 10
0.0
 20
0.0
 30
0.0
  3
*D53
  1

  0
LINE
  5
D1B
330
6A3
100
AcDbEntity
  8
110-1D
 62
     0
100
AcDbLine
 10
100.0
 20
99.8375
 30
0.0
 11
100.0
 21
74.83024276679855
 31
0.0
  0
LINE
  5
D1C
330
6A3
100
AcDbEntity
  8
110-1D
 62
     0
100
AcDbLine
 10
163.25
 20
99.8375
 30
0.0
 11
163.25
 21
74.83024276679855
 31
0.0
  0
LINE
  5
D1D
330
6A3
100
AcDbEntity
  8
110-1D
 62
     0
100
AcDbLine
 10
103.4999999999999
 20
75.41024276679855
 30
0.0
 11
159.75
 21
75.41024276679855
 31
0.0
  0
SOLID
  5
D1E
330
6A3
100
AcDbEntity
  8
110-1D
 62
     0
100
AcDbTrace
 10
103.4999999999999
 20
75.99357610013187
 30
0.0
 11
103.4999999999999
 21
74.82690943346522
 31
0.0
 12
100.0
 22
75.41024276679855
 32
0.0
 13
100.0
 23
75.41024276679855
 33
0.0
  0
SOLID
  5
D1F
330
6A3
100
AcDbEntity
  8
110-1D
 62
     0
100
AcDbTrace
 10
159.75
 20
75.99357610013187
 30
0.0
 11
159.75
 21
74.82690943346522
 31
0.0
 12
163.25
 22
75.41024276679855
 32
0.0
 13
163.25
 23
75.41024276679855
 33
0.0
  0
MTEXT
  5
D20
330
6A3
100
AcDbEntity
  8
110-1D
 62
     0
100
AcDbMText
 10
131.6249999999999
 20
78.69844194824466
 30
0.0
 40
3.5
 41
0.0
 71
     5
 72
     1
  1
\A1;63.25
1001
ACAD
1000
MTEXTBEGIN
1070
    73
1070
     1
1070
    44
1040
1.0
1070
    74
1070
     0
1000
MTEXTEND
  0
POINT
  5
D21
330
6A3
100
AcDbEntity
  8
DEFPOINTS
 62
     0
100
AcDbPoint
 10
100.0
 20
100.0
 30
0.0
  0
POINT
  5
D22
330
6A3
100
AcDbEntity
  8
DEFPOINTS
 62
     0
100
AcDbPoint
 10
163.25
 20
100.0
 30
0.0
  0
POINT
  5
D23
330
6A3
100
AcDbEntity
  8
DEFPOINTS
 62
     0
100
AcDbPoint
 10
163.25
 20
75.41024276679855
 30
0.0
  0
ENDBLK
  5
6AF
330
6A3
100
AcDbEntity
  8
0
100
AcDbBlockEnd
  0
BLOCK
  5
6BB
330
6B0
100
AcDbEntity
  8
0
100
AcDbBlockBegin
  2
*D54
 70
     1
 10
0.0
 20
0.0
 30
0.0
  3
*D54
  1

  0
LINE
  5
D24
330
6B0
100
AcDbEntity
  8
110-1D
 62
     0
100
AcDbLine
 10
100.0
 20
99.8375
 30
0.0
 11
100.0
 21
57.83450613184464
 31
0.0
  0
LINE
  5
D25
330
6B0
100
AcDbEntity
  8
110-1D
 62
     0
100
AcDbLine
 10
224.6999999999999
 20
99.8375
 30
0.0
 11
224.6999999999999
 21
57.83450613184464
 31
0.0
  0
LINE
  5
D26
330
6B0
100
AcDbEntity
  8
110-1D
 62
     0
100
AcDbLine
 10
103.4999999999999
 20
58.41450613184464
 30
0.0
 11
221.1999999999999
 21
58.41450613184464
 31
0.0
  0
SOLID
  5
D27
330
6B0
100
AcDbEntity
  8
110-1D
 62
     0
100
AcDbTrace
 10
103.4999999999999
 20
58.99783946517797
 30
0.0
 11
103.4999999999999
 21
57.8311727985113
 31
0.0
 12
100.0
 22
58.41450613184464
 32
0.0
 13
100.0
 23
58.41450613184464
 33
0.0
  0
SOLID
  5
D28
330
6B0
100
AcDbEntity
  8
110-1D
 62
     0
100
AcDbTrace
 10
221.1999999999999
 20
58.99783946517797
 30
0.0
 11
221.1999999999999
 21
57.8311727985113
 31
0.0
 12
224.6999999999999
 22
58.41450613184464
 32
0.0
 13
224.6999999999999
 23
58.41450613184464
 33
0.0
  0
MTEXT
  5
D29
330
6B0
100
AcDbEntity
  8
110-1D
 62
     0
100
AcDbMText
 10
162.3499999999999
 20
61.70151158887056
 30
0.0
 40
3.5
 41
0.0
 71
     5
 72
     1
  1
\A1;124.70
1001
ACAD
1000
MTEXTBEGIN
1070
    73
1070
     1
1070
    44
1040
1.0
1070
    74
1070
     0
1000
MTEXTEND
  0
POINT
  5
D2A
330
6B0
100
AcDbEntity
  8
DEFPOINTS
 62
     0
100
AcDbPoint
 10
100.0
 20
100.0
 30
0.0
  0
POINT
  5
D2B
330
6B0
100
AcDbEntity
  8
DEFPOINTS
 62
     0
100
AcDbPoint
 10
224.6999999999999
 20
100.0
 30
0.0
  0
POINT
  5
D2C
330
6B0
100
AcDbEntity
  8
DEFPOINTS
 62
     0
100
AcDbPoint
 10
224.6999999999999
 20
58.41450613184464
 30
0.0
  0
ENDBLK
  5
6BC
330
6B0
100
AcDbEntity
  8
0
100
AcDbBlockEnd
  0
BLOCK
  5
6C8
330
6BD
100
AcDbEntity
  8
0
100
AcDbBlockBegin
  2
*D55
 70
     1
 10
0.0
 20
0.0
 30
0.0
  3
*D55
  1

  0
LINE
  5
D2D
330
6BD
100
AcDbEntity
  8
110-1D
 62
     0
100
AcDbLine
 10
100.0
 20
99.8375
 30
0.0
 11
100.0
 21
80.81706352673334
 31
0.0
  0
LINE
  5
D2E
330
6BD
100
AcDbEntity
  8
110-1D
 62
     0
100
AcDbLine
 10
120.0
 20
99.8375
 30
0.0
 11
120.0
 21
80.81706352673334
 31
0.0
  0
LINE
  5
D2F
330
6BD
100
AcDbEntity
  8
110-1D
 62
     0
100
AcDbLine
 10
96.5
 20
81.39706352673334
 30
0.0
 11
93.0
 21
81.39706352673334
 31
0.0
  0
LINE
  5
D30
330
6BD
100
AcDbEntity
  8
110-1D
 62
     0
100
AcDbLine
 10
123.5
 20
81.39706352673334
 30
0.0
 11
127.0
 21
81.39706352673334
 31
0.0
  0
SOLID
  5
D31
330
6BD
100
AcDbEntity
  8
110-1D
 62
     0
100
AcDbTrace
 10
96.5
 20
81.98039686006667
 30
0.0
 11
96.5
 21
80.81373019340002
 31
0.0
 12
100.0
 22
81.39706352673334
 32
0.0
 13
100.0
 23
81.39706352673334
 33
0.0
  0
SOLID
  5
D32
330
6BD
100
AcDbEntity
  8
110-1D
 62
     0
100
AcDbTrace
 10
123.5
 20
81.98039686006667
 30
0.0
 11
123.5
 21
80.81373019340002
 31
0.0
 12
120.0
 22
81.39706352673334
 32
0.0
 13
120.0
 23
81.39706352673334
 33
0.0
  0
MTEXT
  5
D33
330
6BD
100
AcDbEntity
  8
110-1D
 62
     0
100
AcDbMText
 10
110.0
 20
84.68406898375928
 30
0.0
 40
3.5
 41
0.0
 71
     5
 72
     1
  1
\A1;20.00
1001
ACAD
1000
MTEXTBEGIN
1070
    73
1070
     1
1070
    44
1040
1.0
1070
    74
1070
     0
1000
MTEXTEND
  0
POINT
  5
D34
330
6BD
100
AcDbEntity
  8
DEFPOINTS
 62
     0
100
AcDbPoint
 10
100.0
 20
100.0
 30
0.0
  0
POINT
  5
D35
330
6BD
100
AcDbEntity
  8
DEFPOINTS
 62
     0
100
AcDbPoint
 10
120.0
 20
100.0
 30
0.0
  0
POINT
  5
D36
330
6BD
100
AcDbEntity
  8
DEFPOINTS
 62
     0
100
AcDbPoint
 10
120.0
 20
81.39706352673334
 30
0.0
  0
ENDBLK
  5
6C9
330
6BD
100
AcDbEntity
  8
0
100
AcDbBlockEnd
  0
BLOCK
  5
6D5
330
6CA
100
AcDbEntity
  8
0
100
AcDbBlockBegin
  2
*D56
 70
     1
 10
0.0
 20
0.0
 30
0.0
  3
*D56
  1

  0
LINE
  5
D37
330
6CA
100
AcDbEntity
  8
110-1D
 62
     0
100
AcDbLine
 10
575.5968960991464
 20
99.99999999999998
 30
0.0
 11
609.6545072559352
 21
99.99999999999996
 31
0.0
  0
LINE
  5
D38
330
6CA
100
AcDbEntity
  8
110-1D
 62
     0
100
AcDbLine
 10
575.5968960991464
 20
311.9999999999999
 30
0.0
 11
609.6545072559353
 21
311.9999999999999
 31
0.0
  0
LINE
  5
D39
330
6CA
100
AcDbEntity
  8
110-1D
 62
     0
100
AcDbLine
 10
609.0745072559351
 20
103.4999999999999
 30
0.0
 11
609.0745072559352
 21
308.4999999999999
 31
0.0
  0
SOLID
  5
D3A
330
6CA
100
AcDbEntity
  8
110-1D
 62
     0
100
AcDbTrace
 10
608.4911739226018
 20
103.4999999999999
 30
0.0
 11
609.6578405892685
 21
103.4999999999999
 31
0.0
 12
609.0745072559351
 22
99.99999999999996
 32
0.0
 13
609.0745072559351
 23
99.99999999999996
 33
0.0
  0
SOLID
  5
D3B
330
6CA
100
AcDbEntity
  8
110-1D
 62
     0
100
AcDbTrace
 10
608.4911739226019
 20
308.4999999999999
 30
0.0
 11
609.6578405892686
 21
308.4999999999999
 31
0.0
 12
609.0745072559352
 22
311.9999999999999
 32
0.0
 13
609.0745072559352
 23
311.9999999999999
 33
0.0
  0
MTEXT
  5
D3C
330
6CA
100
AcDbEntity
  8
110-1D
 62
     0
100
AcDbMText
 10
605.7875017989093
 20
205.9999999999999
 30
0.0
 40
3.5
 41
0.0
 71
     5
 72
     1
  1
\A1;212.00
 11
0.0000000000000001
 21
1.0
 31
0.0
1001
ACAD
1000
MTEXTBEGIN
1070
    73
1070
     1
1070
    44
1040
1.0
1070
    74
1070
     0
1000
MTEXTEND
  0
POINT
  5
D3D
330
6CA
100
AcDbEntity
  8
DEFPOINTS
 62
     0
100
AcDbPoint
 10
575.4343960991463
 20
99.99999999999998
 30
0.0
  0
POINT
  5
D3E
330
6CA
100
AcDbEntity
  8
DEFPOINTS
 62
     0
100
AcDbPoint
 10
575.4343960991463
 20
311.9999999999999
 30
0.0
  0
POINT
  5
D3F
330
6CA
100
AcDbEntity
  8
DEFPOINTS
 62
     0
100
AcDbPoint
 10
609.0745072559352
 20
311.9999999999999
 30
0.0
  0
ENDBLK
  5
6D6
330
6CA
100
AcDbEntity
  8
0
100
AcDbBlockEnd
  0
BLOCK
  5
6E2
330
6D7
100
AcDbEntity
  8
0
100
AcDbBlockBegin
  2
*D57
 70
     1
 10
0.0
 20
0.0
 30
0.0
  3
*D57
  1

  0
LINE
  5
D40
330
6D7
100
AcDbEntity
  8
110-1D
 62
     0
100
AcDbLine
 10
575.5968960991464
 20
100.0
 30
0.0
 11
623.7437358108529
 21
100.0
 31
0.0
  0
LINE
  5
D41
330
6D7
100
AcDbEntity
  8
110-1D
 62
     0
100
AcDbLine
 10
575.5968960991464
 20
378.5
 30
0.0
 11
623.7437358108531
 21
378.5
 31
0.0
  0
LINE
  5
D42
330
6D7
100
AcDbEntity
  8
110-1D
 62
     0
100
AcDbLine
 10
623.1637358108529
 20
103.4999999999999
 30
0.0
 11
623.163735810853
 21
375.0
 31
0.0
  0
SOLID
  5
D43
330
6D7
100
AcDbEntity
  8
110-1D
 62
     0
100
AcDbTrace
 10
622.5804024775195
 20
103.4999999999999
 30
0.0
 11
623.7470691441862
 21
103.4999999999999
 31
0.0
 12
623.1637358108529
 22
100.0
 32
0.0
 13
623.1637358108529
 23
100.0
 33
0.0
  0
SOLID
  5
D44
330
6D7
100
AcDbEntity
  8
110-1D
 62
     0
100
AcDbTrace
 10
622.5804024775197
 20
375.0
 30
0.0
 11
623.7470691441863
 21
375.0
 31
0.0
 12
623.163735810853
 22
378.5
 32
0.0
 13
623.163735810853
 23
378.5
 33
0.0
  0
MTEXT
  5
D45
330
6D7
100
AcDbEntity
  8
110-1D
 62
     0
100
AcDbMText
 10
619.876730353827
 20
239.25
 30
0.0
 40
3.5
 41
0.0
 71
     5
 72
     1
  1
\A1;278.50
 11
0.0000000000000001
 21
1.0
 31
0.0
1001
ACAD
1000
MTEXTBEGIN
1070
    73
1070
     1
1070
    44
1040
1.0
1070
    74
1070
     0
1000
MTEXTEND
  0
POINT
  5
D46
330
6D7
100
AcDbEntity
  8
DEFPOINTS
 62
     0
100
AcDbPoint
 10
575.4343960991463
 20
100.0
 30
0.0
  0
POINT
  5
D47
330
6D7
100
AcDbEntity
  8
DEFPOINTS
 62
     0
100
AcDbPoint
 10
575.4343960991463
 20
378.5
 30
0.0
  0
POINT
  5
D48
330
6D7
100
AcDbEntity
  8
DEFPOINTS
 62
     0
100
AcDbPoint
 10
623.163735810853
 20
378.5
 30
0.0
  0
ENDBLK
  5
6E3
330
6D7
100
AcDbEntity
  8
0
100
AcDbBlockEnd
  0
BLOCK
  5
6EF
330
6E4
100
AcDbEntity
  8
0
100
AcDbBlockBegin
  2
*D58
 70
     1
 10
0.0
 20
0.0
 30
0.0
  3
*D58
  1

  0
LINE
  5
D49
330
6E4
100
AcDbEntity
  8
110-1D
 62
     0
100
AcDbLine
 10
586.5672927842759
 20
100.0
 30
0.0
 11
630.6249039410646
 21
100.0
 31
0.0
  0
LINE
  5
D4A
330
6E4
100
AcDbEntity
  8
110-1D
 62
     0
100
AcDbLine
 10
586.5672927842759
 20
408.0
 30
0.0
 11
630.6249039410647
 21
408.0
 31
0.0
  0
LINE
  5
D4B
330
6E4
100
AcDbEntity
  8
110-1D
 62
     0
100
AcDbLine
 10
630.0449039410645
 20
103.4999999999999
 30
0.0
 11
630.0449039410647
 21
404.4999999999999
 31
0.0
  0
SOLID
  5
D4C
330
6E4
100
AcDbEntity
  8
110-1D
 62
     0
100
AcDbTrace
 10
629.4615706077312
 20
103.4999999999999
 30
0.0
 11
630.628237274398
 21
103.4999999999999
 31
0.0
 12
630.0449039410645
 22
100.0
 32
0.0
 13
630.0449039410645
 23
100.0
 33
0.0
  0
SOLID
  5
D4D
330
6E4
100
AcDbEntity
  8
110-1D
 62
     0
100
AcDbTrace
 10
629.4615706077313
 20
404.4999999999999
 30
0.0
 11
630.628237274398
 21
404.4999999999999
 31
0.0
 12
630.0449039410647
 22
408.0
 32
0.0
 13
630.0449039410647
 23
408.0
 33
0.0
  0
MTEXT
  5
D4E
330
6E4
100
AcDbEntity
  8
110-1D
 62
     0
100
AcDbMText
 10
626.7567047596185
 20
254.0
 30
0.0
 40
3.5
 41
0.0
 71
     5
 72
     1
  1
\A1;308.00
 11
0.0000000000000001
 21
1.0
 31
0.0
1001
ACAD
1000
MTEXTBEGIN
1070
    73
1070
     1
1070
    44
1040
1.0
1070
    74
1070
     0
1000
MTEXTEND
  0
POINT
  5
D4F
330
6E4
100
AcDbEntity
  8
DEFPOINTS
 62
     0
100
AcDbPoint
 10
586.4047927842758
 20
100.0
 30
0.0
  0
POINT
  5
D50
330
6E4
100
AcDbEntity
  8
DEFPOINTS
 62
     0
100
AcDbPoint
 10
586.4047927842758
 20
408.0
 30
0.0
  0
POINT
  5
D51
330
6E4
100
AcDbEntity
  8
DEFPOINTS
 62
     0
100
AcDbPoint
 10
630.0449039410647
 20
408.0
 30
0.0
  0
ENDBLK
  5
6F0
330
6E4
100
AcDbEntity
  8
0
100
AcDbBlockEnd
  0
BLOCK
  5
6FC
330
6F1
100
AcDbEntity
  8
0
100
AcDbBlockBegin
  2
*D59
 70
     1
 10
0.0
 20
0.0
 30
0.0
  3
*D59
  1

  0
LINE
  5
D52
330
6F1
100
AcDbEntity
  8
110-1D
 62
     0
100
AcDbLine
 10
575.5968960991464
 20
99.99999999999998
 30
0.0
 11
638.657512714685
 21
99.99999999999996
 31
0.0
  0
LINE
  5
D53
330
6F1
100
AcDbEntity
  8
110-1D
 62
     0
100
AcDbLine
 10
575.5968960991464
 20
504.0
 30
0.0
 11
638.6575127146851
 21
504.0
 31
0.0
  0
LINE
  5
D54
330
6F1
100
AcDbEntity
  8
110-1D
 62
     0
100
AcDbLine
 10
638.077512714685
 20
103.4999999999999
 30
0.0
 11
638.0775127146851
 21
500.4999999999999
 31
0.0
  0
SOLID
  5
D55
330
6F1
100
AcDbEntity
  8
110-1D
 62
     0
100
AcDbTrace
 10
637.4941793813516
 20
103.4999999999999
 30
0.0
 11
638.6608460480183
 21
103.4999999999999
 31
0.0
 12
638.077512714685
 22
99.99999999999996
 32
0.0
 13
638.077512714685
 23
99.99999999999996
 33
0.0
  0
SOLID
  5
D56
330
6F1
100
AcDbEntity
  8
110-1D
 62
     0
100
AcDbTrace
 10
637.4941793813517
 20
500.4999999999999
 30
0.0
 11
638.6608460480184
 21
500.4999999999999
 31
0.0
 12
638.0775127146851
 22
504.0
 32
0.0
 13
638.0775127146851
 23
504.0
 33
0.0
  0
MTEXT
  5
D57
330
6F1
100
AcDbEntity
  8
110-1D
 62
     0
100
AcDbMText
 10
634.790507257659
 20
302.0
 30
0.0
 40
3.5
 41
0.0
 71
     5
 72
     1
  1
\A1;404.00
 11
0.0000000000000001
 21
1.0
 31
0.0
1001
ACAD
1000
MTEXTBEGIN
1070
    73
1070
     1
1070
    44
1040
1.0
1070
    74
1070
     0
1000
MTEXTEND
  0
POINT
  5
D58
330
6F1
100
AcDbEntity
  8
DEFPOINTS
 62
     0
100
AcDbPoint
 10
575.4343960991463
 20
99.99999999999998
 30
0.0
  0
POINT
  5
D59
330
6F1
100
AcDbEntity
  8
DEFPOINTS
 62
     0
100
AcDbPoint
 10
575.4343960991463
 20
504.0
 30
0.0
  0
POINT
  5
D5A
330
6F1
100
AcDbEntity
  8
DEFPOINTS
 62
     0
100
AcDbPoint
 10
638.0775127146851
 20
504.0
 30
0.0
  0
ENDBLK
  5
6FD
330
6F1
100
AcDbEntity
  8
0
100
AcDbBlockEnd
  0
BLOCK
  5
709
330
6FE
100
AcDbEntity
  8
0
100
AcDbBlockBegin
  2
*D60
 70
     1
 10
0.0
 20
0.0
 30
0.0
  3
*D60
  1

  0
LINE
  5
D5B
330
6FE
100
AcDbEntity
  8
110-1D
 62
     0
100
AcDbLine
 10
575.5968960991464
 20
99.99999999999998
 30
0.0
 11
647.166416094116
 21
99.99999999999996
 31
0.0
  0
LINE
  5
D5C
330
6FE
100
AcDbEntity
  8
110-1D
 62
     0
100
AcDbLine
 10
575.5968960991464
 20
518.0
 30
0.0
 11
647.1664160941161
 21
518.0
 31
0.0
  0
LINE
  5
D5D
330
6FE
100
AcDbEntity
  8
110-1D
 62
     0
100
AcDbLine
 10
646.5864160941159
 20
103.4999999999999
 30
0.0
 11
646.586416094116
 21
514.5
 31
0.0
  0
SOLID
  5
D5E
330
6FE
100
AcDbEntity
  8
110-1D
 62
     0
100
AcDbTrace
 10
646.0030827607826
 20
103.4999999999999
 30
0.0
 11
647.1697494274494
 21
103.4999999999999
 31
0.0
 12
646.5864160941159
 22
99.99999999999996
 32
0.0
 13
646.5864160941159
 23
99.99999999999996
 33
0.0
  0
SOLID
  5
D5F
330
6FE
100
AcDbEntity
  8
110-1D
 62
     0
100
AcDbTrace
 10
646.0030827607827
 20
514.5
 30
0.0
 11
647.1697494274494
 21
514.5
 31
0.0
 12
646.586416094116
 22
518.0
 32
0.0
 13
646.586416094116
 23
518.0
 33
0.0
  0
MTEXT
  5
D60
330
6FE
100
AcDbEntity
  8
110-1D
 62
     0
100
AcDbMText
 10
643.2994106370901
 20
308.9999999999999
 30
0.0
 40
3.5
 41
0.0
 71
     5
 72
     1
  1
\A1;418.00
 11
0.0000000000000001
 21
1.0
 31
0.0
1001
ACAD
1000
MTEXTBEGIN
1070
    73
1070
     1
1070
    44
1040
1.0
1070
    74
1070
     0
1000
MTEXTEND
  0
POINT
  5
D61
330
6FE
100
AcDbEntity
  8
DEFPOINTS
 62
     0
100
AcDbPoint
 10
575.4343960991463
 20
99.99999999999998
 30
0.0
  0
POINT
  5
D62
330
6FE
100
AcDbEntity
  8
DEFPOINTS
 62
     0
100
AcDbPoint
 10
575.4343960991463
 20
518.0
 30
0.0
  0
POINT
  5
D63
330
6FE
100
AcDbEntity
  8
DEFPOINTS
 62
     0
100
AcDbPoint
 10
646.586416094116
 20
518.0
 30
0.0
  0
ENDBLK
  5
70A
330
6FE
100
AcDbEntity
  8
0
100
AcDbBlockEnd
  0
BLOCK
  5
716
330
70B
100
AcDbEntity
  8
0
100
AcDbBlockBegin
  2
*D61
 70
     1
 10
0.0
 20
0.0
 30
0.0
  3
*D61
  1

  0
LINE
  5
D64
330
70B
100
AcDbEntity
  8
110-1D
 62
     0
100
AcDbLine
 10
575.5968960991464
 20
99.99999999999998
 30
0.0
 11
655.9525435886777
 21
99.99999999999996
 31
0.0
  0
LINE
  5
D65
330
70B
100
AcDbEntity
  8
110-1D
 62
     0
100
AcDbLine
 10
575.5968960991464
 20
524.0
 30
0.0
 11
655.9525435886778
 21
524.0
 31
0.0
  0
LINE
  5
D66
330
70B
100
AcDbEntity
  8
110-1D
 62
     0
100
AcDbLine
 10
655.3725435886776
 20
103.4999999999999
 30
0.0
 11
655.3725435886778
 21
520.5
 31
0.0
  0
SOLID
  5
D67
330
70B
100
AcDbEntity
  8
110-1D
 62
     0
100
AcDbTrace
 10
654.7892102553443
 20
103.4999999999999
 30
0.0
 11
655.955876922011
 21
103.4999999999999
 31
0.0
 12
655.3725435886776
 22
99.99999999999996
 32
0.0
 13
655.3725435886776
 23
99.99999999999996
 33
0.0
  0
SOLID
  5
D68
330
70B
100
AcDbEntity
  8
110-1D
 62
     0
100
AcDbTrace
 10
654.7892102553444
 20
520.5
 30
0.0
 11
655.9558769220111
 21
520.5
 31
0.0
 12
655.3725435886778
 22
524.0
 32
0.0
 13
655.3725435886778
 23
524.0
 33
0.0
  0
MTEXT
  5
D69
330
70B
100
AcDbEntity
  8
110-1D
 62
     0
100
AcDbMText
 10
652.0855381316517
 20
311.9999999999999
 30
0.0
 40
3.5
 41
0.0
 71
     5
 72
     1
  1
\A1;424.00
 11
0.0000000000000001
 21
1.0
 31
0.0
1001
ACAD
1000
MTEXTBEGIN
1070
    73
1070
     1
1070
    44
1040
1.0
1070
    74
1070
     0
1000
MTEXTEND
  0
POINT
  5
D6A
330
70B
100
AcDbEntity
  8
DEFPOINTS
 62
     0
100
AcDbPoint
 10
575.4343960991463
 20
99.99999999999998
 30
0.0
  0
POINT
  5
D6B
330
70B
100
AcDbEntity
  8
DEFPOINTS
 62
     0
100
AcDbPoint
 10
575.4343960991463
 20
524.0
 30
0.0
  0
POINT
  5
D6C
330
70B
100
AcDbEntity
  8
DEFPOINTS
 62
     0
100
AcDbPoint
 10
655.3725435886778
 20
524.0
 30
0.0
  0
ENDBLK
  5
717
330
70B
100
AcDbEntity
  8
0
100
AcDbBlockEnd
  0
BLOCK
  5
723
330
718
100
AcDbEntity
  8
0
100
AcDbBlockBegin
  2
*D62
 70
     1
 10
0.0
 20
0.0
 30
0.0
  3
*D62
  1

  0
LINE
  5
D6D
330
718
100
AcDbEntity
  8
110-1D
 62
     0
100
AcDbLine
 10
563.2493788766404
 20
100.0
 30
0.0
 11
604.4507406869199
 21
100.0
 31
0.0
  0
LINE
  5
D6E
330
718
100
AcDbEntity
  8
110-1D
 62
     0
100
AcDbLine
 10
563.2493788766404
 20
269.1999999999999
 30
0.0
 11
604.45074068692
 21
269.1999999999999
 31
0.0
  0
LINE
  5
D6F
330
718
100
AcDbEntity
  8
110-1D
 62
     0
100
AcDbLine
 10
603.8707406869199
 20
103.4999999999999
 30
0.0
 11
603.87074068692
 21
265.7
 31
0.0
  0
SOLID
  5
D70
330
718
100
AcDbEntity
  8
110-1D
 62
     0
100
AcDbTrace
 10
603.2874073535865
 20
103.4999999999999
 30
0.0
 11
604.4540740202533
 21
103.4999999999999
 31
0.0
 12
603.8707406869199
 22
100.0
 32
0.0
 13
603.8707406869199
 23
100.0
 33
0.0
  0
SOLID
  5
D71
330
718
100
AcDbEntity
  8
110-1D
 62
     0
100
AcDbTrace
 10
603.2874073535866
 20
265.7
 30
0.0
 11
604.4540740202534
 21
265.7
 31
0.0
 12
603.87074068692
 22
269.1999999999999
 32
0.0
 13
603.87074068692
 23
269.1999999999999
 33
0.0
  0
MTEXT
  5
D72
330
718
100
AcDbEntity
  8
110-1D
 62
     0
100
AcDbMText
 10
600.583735229894
 20
184.6
 30
0.0
 40
3.5
 41
0.0
 71
     5
 72
     1
  1
\A1;169.20
 11
0.0000000000000001
 21
1.0
 31
0.0
1001
ACAD
1000
MTEXTBEGIN
1070
    73
1070
     1
1070
    44
1040
1.0
1070
    74
1070
     0
1000
MTEXTEND
  0
POINT
  5
D73
330
718
100
AcDbEntity
  8
DEFPOINTS
 62
     0
100
AcDbPoint
 10
563.0868788766404
 20
100.0
 30
0.0
  0
POINT
  5
D74
330
718
100
AcDbEntity
  8
DEFPOINTS
 62
     0
100
AcDbPoint
 10
563.0868788766404
 20
269.1999999999999
 30
0.0
  0
POINT
  5
D75
330
718
100
AcDbEntity
  8
DEFPOINTS
 62
     0
100
AcDbPoint
 10
603.87074068692
 20
269.1999999999999
 30
0.0
  0
ENDBLK
  5
724
330
718
100
AcDbEntity
  8
0
100
AcDbBlockEnd
  0
BLOCK
  5
730
330
725
100
AcDbEntity
  8
0
100
AcDbBlockBegin
  2
*D63
 70
     1
 10
0.0
 20
0.0
 30
0.0
  3
*D63
  1

  0
LINE
  5
D76
330
725
100
AcDbEntity
  8
110-1D
 62
     0
100
AcDbLine
 10
560.1625
 20
100.0
 30
0.0
 11
584.6866365109653
 21
100.0
 31
0.0
  0
LINE
  5
D77
330
725
100
AcDbEntity
  8
110-1D
 62
     0
100
AcDbLine
 10
560.1625
 20
216.0
 30
0.0
 11
584.6866365109653
 21
215.9999999999999
 31
0.0
  0
LINE
  5
D78
330
725
100
AcDbEntity
  8
110-1D
 62
     0
100
AcDbLine
 10
584.1066365109652
 20
103.4999999999999
 30
0.0
 11
584.1066365109652
 21
212.4999999999999
 31
0.0
  0
SOLID
  5
D79
330
725
100
AcDbEntity
  8
110-1D
 62
     0
100
AcDbTrace
 10
583.5233031776319
 20
103.4999999999999
 30
0.0
 11
584.6899698442986
 21
103.4999999999999
 31
0.0
 12
584.1066365109652
 22
100.0
 32
0.0
 13
584.1066365109652
 23
100.0
 33
0.0
  0
SOLID
  5
D7A
330
725
100
AcDbEntity
  8
110-1D
 62
     0
100
AcDbTrace
 10
583.5233031776319
 20
212.4999999999999
 30
0.0
 11
584.6899698442986
 21
212.4999999999999
 31
0.0
 12
584.1066365109652
 22
215.9999999999999
 32
0.0
 13
584.1066365109652
 23
215.9999999999999
 33
0.0
  0
MTEXT
  5
D7B
330
725
100
AcDbEntity
  8
110-1D
 62
     0
100
AcDbMText
 10
580.8196310539393
 20
158.0
 30
0.0
 40
3.5
 41
0.0
 71
     5
 72
     1
  1
\A1;116.00
 11
0.0000000000000001
 21
1.0
 31
0.0
1001
ACAD
1000
MTEXTBEGIN
1070
    73
1070
     1
1070
    44
1040
1.0
1070
    74
1070
     0
1000
MTEXTEND
  0
POINT
  5
D7C
330
725
100
AcDbEntity
  8
DEFPOINTS
 62
     0
100
AcDbPoint
 10
560.0
 20
100.0
 30
0.0
  0
POINT
  5
D7D
330
725
100
AcDbEntity
  8
DEFPOINTS
 62
     0
100
AcDbPoint
 10
560.0
 20
216.0
 30
0.0
  0
POINT
  5
D7E
330
725
100
AcDbEntity
  8
DEFPOINTS
 62
     0
100
AcDbPoint
 10
584.1066365109652
 20
215.9999999999999
 30
0.0
  0
ENDBLK
  5
731
330
725
100
AcDbEntity
  8
0
100
AcDbBlockEnd
  0
BLOCK
  5
73D
330
732
100
AcDbEntity
  8
0
100
AcDbBlockBegin
  2
*D64
 70
     1
 10
0.0
 20
0.0
 30
0.0
  3
*D64
  1

  0
LINE
  5
D7F
330
732
100
AcDbEntity
  8
110-1D
 62
     0
100
AcDbLine
 10
560.9342201481462
 20
100.0
 30
0.0
 11
595.9618242051448
 21
100.0
 31
0.0
  0
LINE
  5
D80
330
732
100
AcDbEntity
  8
110-1D
 62
     0
100
AcDbLine
 10
560.9342201481462
 20
229.0
 30
0.0
 11
595.9618242051448
 21
228.9999999999999
 31
0.0
  0
LINE
  5
D81
330
732
100
AcDbEntity
  8
110-1D
 62
     0
100
AcDbLine
 10
595.3818242051447
 20
103.4999999999999
 30
0.0
 11
595.3818242051447
 21
225.4999999999999
 31
0.0
  0
SOLID
  5
D82
330
732
100
AcDbEntity
  8
110-1D
 62
     0
100
AcDbTrace
 10
594.7984908718114
 20
103.4999999999999
 30
0.0
 11
595.9651575384781
 21
103.4999999999999
 31
0.0
 12
595.3818242051447
 22
100.0
 32
0.0
 13
595.3818242051447
 23
100.0
 33
0.0
  0
SOLID
  5
D83
330
732
100
AcDbEntity
  8
110-1D
 62
     0
100
AcDbTrace
 10
594.7984908718114
 20
225.4999999999999
 30
0.0
 11
595.9651575384781
 21
225.4999999999999
 31
0.0
 12
595.3818242051447
 22
228.9999999999999
 32
0.0
 13
595.3818242051447
 23
228.9999999999999
 33
0.0
  0
MTEXT
  5
D84
330
732
100
AcDbEntity
  8
110-1D
 62
     0
100
AcDbMText
 10
592.0948187481188
 20
164.5
 30
0.0
 40
3.5
 41
0.0
 71
     5
 72
     1
  1
\A1;129.00
 11
0.0000000000000001
 21
1.0
 31
0.0
1001
ACAD
1000
MTEXTBEGIN
1070
    73
1070
     1
1070
    44
1040
1.0
1070
    74
1070
     0
1000
MTEXTEND
  0
POINT
  5
D85
330
732
100
AcDbEntity
  8
DEFPOINTS
 62
     0
100
AcDbPoint
 10
560.7717201481461
 20
100.0
 30
0.0
  0
POINT
  5
D86
330
732
100
AcDbEntity
  8
DEFPOINTS
 62
     0
100
AcDbPoint
 10
560.7717201481461
 20
229.0
 30
0.0
  0
POINT
  5
D87
330
732
100
AcDbEntity
  8
DEFPOINTS
 62
     0
100
AcDbPoint
 10
595.3818242051447
 20
228.9999999999999
 30
0.0
  0
ENDBLK
  5
73E
330
732
100
AcDbEntity
  8
0
100
AcDbBlockEnd
  0
BLOCK
  5
74A
330
73F
100
AcDbEntity
  8
0
100
AcDbBlockBegin
  2
*D65
 70
     1
 10
0.0
 20
0.0
 30
0.0
  3
*D65
  1

  0
LINE
  5
D88
330
73F
100
AcDbEntity
  8
110-1D
 62
     0
100
AcDbLine
 10
560.1625
 20
100.0
 30
0.0
 11
578.5564188564494
 21
100.0
 31
0.0
  0
LINE
  5
D89
330
73F
100
AcDbEntity
  8
110-1D
 62
     0
100
AcDbLine
 10
560.1625
 20
120.0
 30
0.0
 11
578.5564188564494
 21
120.0
 31
0.0
  0
LINE
  5
D8A
330
73F
100
AcDbEntity
  8
110-1D
 62
     0
100
AcDbLine
 10
577.9764188564493
 20
96.49999999999998
 30
0.0
 11
577.9764188564493
 21
92.99999999999998
 31
0.0
  0
LINE
  5
D8B
330
73F
100
AcDbEntity
  8
110-1D
 62
     0
100
AcDbLine
 10
577.9764188564493
 20
123.5
 30
0.0
 11
577.9764188564493
 21
127.0
 31
0.0
  0
SOLID
  5
D8C
330
73F
100
AcDbEntity
  8
110-1D
 62
     0
100
AcDbTrace
 10
577.393085523116
 20
96.49999999999998
 30
0.0
 11
578.5597521897828
 21
96.49999999999998
 31
0.0
 12
577.9764188564493
 22
100.0
 32
0.0
 13
577.9764188564493
 23
100.0
 33
0.0
  0
SOLID
  5
D8D
330
73F
100
AcDbEntity
  8
110-1D
 62
     0
100
AcDbTrace
 10
577.393085523116
 20
123.5
 30
0.0
 11
578.5597521897828
 21
123.5
 31
0.0
 12
577.9764188564493
 22
120.0
 32
0.0
 13
577.9764188564493
 23
120.0
 33
0.0
  0
MTEXT
  5
D8E
330
73F
100
AcDbEntity
  8
110-1D
 62
     0
100
AcDbMText
 10
574.6894133994235
 20
110.0
 30
0.0
 40
3.5
 41
0.0
 71
     5
 72
     1
  1
\A1;20.00
 11
0.0000000000000001
 21
1.0
 31
0.0
1001
ACAD
1000
MTEXTBEGIN
1070
    73
1070
     1
1070
    44
1040
1.0
1070
    74
1070
     0
1000
MTEXTEND
  0
POINT
  5
D8F
330
73F
100
AcDbEntity
  8
DEFPOINTS
 62
     0
100
AcDbPoint
 10
560.0
 20
100.0
 30
0.0
  0
POINT
  5
D90
330
73F
100
AcDbEntity
  8
DEFPOINTS
 62
     0
100
AcDbPoint
 10
560.0
 20
120.0
 30
0.0
  0
POINT
  5
D91
330
73F
100
AcDbEntity
  8
DEFPOINTS
 62
     0
100
AcDbPoint
 10
577.9764188564493
 20
120.0
 30
0.0
  0
ENDBLK
  5
74B
330
73F
100
AcDbEntity
  8
0
100
AcDbBlockEnd
  0
ENDSEC
  0
SECTION
  2
ENTITIES
  0
TEXT
  5
3A4
330
1E
100
AcDbEntity
  8
110-1
 62
    15
100
AcDbText
 10
362.9218229943408
 20
143.8676885527207
 30
0.0
 40
4.0
  1
2 mm. ALUMINIUM
 50
90.0
100
AcDbText
  0
TEXT
  5
3A5
330
1E
100
AcDbEntity
  8
110-1
 62
    15
100
AcDbText
 10
385.853942183287
 20
262.5903536687124
 30
0.0
 40
2.5
  1
1
 50
90.0
100
AcDbText
  0
LINE
  5
3A6
330
1E
100
AcDbEntity
  8
110-1
 62
    15
100
AcDbLine
 10
384.6254357981649
 20
285.0604626030949
 30
0.0
 11
384.6254357981649
 21
266.950225551503
 31
0.0
  0
TEXT
  5
3A7
330
1E
100
AcDbEntity
  8
110-1
 62
    15
100
AcDbText
 10
405.2881397920343
 20
115.0254591742595
 30
0.0
 40
2.5
  1
JAN OLESEN.
 50
90.0
100
AcDbText
  0
TEXT
  5
3A8
330
1E
100
AcDbEntity
  8
110-1
 62
    15
100
AcDbText
 10
409.6050656289814
 20
157.6180537215221
 30
0.0
 40
2.5
  1
96-03-18
 50
90.0
100
AcDbText
  0
TEXT
  5
3A9
330
1E
100
AcDbEntity
  8
110-1
 62
    15
100
AcDbText
 10
405.510044345241
 20
204.9058949117898
 30
0.0
 40
2.5
  1
1
 50
90.0
100
AcDbText
  0
TEXT
  5
3AA
330
1E
100
AcDbEntity
  8
110-1
 62
    15
100
AcDbText
 10
405.1005422168669
 20
217.9855105601619
 30
0.0
 40
2.5
  1
110-1
 50
90.0
100
AcDbText
  0
TEXT
  5
3AB
330
1E
100
AcDbEntity
  8
110-1
 62
    15
100
AcDbText
 10
378.8924060009283
 20
109.6594630108249
 30
0.0
 40
4.0
  1
1:2
 50
90.0
100
AcDbText
  0
TEXT
  5
3AC
330
1E
100
AcDbEntity
  8
110-1
 62
    15
100
AcDbText
 10
397.3200017777601
 20
136.4894438279982
 30
0.0
 40
4.0
  1
TOP COVER
 50
90.0
100
AcDbText
  0
TEXT
  5
3AD
330
1E
100
AcDbEntity
  8
110-1
 62
    15
100
AcDbText
 10
396.500997521012
 20
221.9853768175413
 30
0.0
 40
3.5
  1
4008 107 5845
 50
90.0
100
AcDbText
  0
TEXT
  5
3B0
330
1E
100
AcDbEntity
  8
110-1
 62
    15
100
AcDbText
 10
381.9353420647265
 20
13.28538705210002
 30
0.0
 40
2.5
  1
ALUDINE (NATUR)
 50
90.0
100
AcDbText
  0
TEXT
  5
3B1
330
1E
100
AcDbEntity
  8
110-1
 62
    15
100
AcDbText
 10
361.9855458930989
 20
122.4386832805784
 30
0.0
 40
4.0
  1
mm
 50
90.0
100
AcDbText
  0
TEXT
  5
3B2
330
1E
100
AcDbEntity
  8
110-1
100
AcDbText
 10
12.7142857142857
 20
125.6009549795361
 30
0.0
 40
2.0
  1
ALL RIGHTS STRICLY RESERVED.
 50
90.0
 72
     1
 11
12.7142857142857
 21
148.5
 31
0.0
100
AcDbText
  0
TEXT
  5
3B3
330
1E
100
AcDbEntity
  8
110-1
100
AcDbText
 10
9.28571428571429
 20
115.2769440654843
 30
0.0
 40
2.0
  1
PROPERTY OF PHILIPS TV TEST EQUIPMENT A/S
 50
90.0
 72
     1
 11
9.285714285714291
 21
148.5
 31
0.0
100
AcDbText
  0
LINE
  5
3B4
330
1E
100
AcDbEntity
  8
110-1
100
AcDbLine
 10
20.0
 20
287.0
 30
0.0
 11
20.0
 21
10.0
 31
0.0
  0
LINE
  5
3B5
330
1E
100
AcDbEntity
  8
110-1
100
AcDbLine
 10
410.0
 20
287.0
 30
0.0
 11
20.0
 21
287.0
 31
0.0
  0
LINE
  5
3B6
330
1E
100
AcDbEntity
  8
110-1
100
AcDbLine
 10
410.0
 20
10.0
 30
0.0
 11
410.0
 21
287.0
 31
0.0
  0
LINE
  5
3B7
330
1E
100
AcDbEntity
  8
110-1
100
AcDbLine
 10
20.0
 20
10.0
 30
0.0
 11
410.0
 21
10.0
 31
0.0
  0
LWPOLYLINE
  5
3B8
330
1E
100
AcDbEntity
  8
110-1
100
AcDbPolyline
 90
        2
 70
     0
 43
0.0
 10
402.0
 20
287.0
 10
402.0
 20
106.9999999999999
  0
TEXT
  5
3BC
330
1E
100
AcDbEntity
  8
110-1
100
AcDbText
 10
350.9595688511396
 20
217.1222111527
 30
0.0
 40
1.25
  1
ISO 5459
 50
90.0
100
AcDbText
  0
TEXT
  5
3BD
330
1E
100
AcDbEntity
  8
110-1
100
AcDbText
 10
348.8237420794861
 20
217.1222111527
 30
0.0
 40
1.25
  1
UN - D 1660
 50
90.0
100
AcDbText
  0
TEXT
  5
3BE
330
1E
100
AcDbEntity
  8
110-1
100
AcDbText
 10
344.5520885361791
 20
217.1222111527
 30
0.0
 40
1.25
  1
ISO 1101
 50
90.0
100
AcDbText
  0
TEXT
  5
3BF
330
1E
100
AcDbEntity
  8
110-1
100
AcDbText
 10
342.4162617645255
 20
217.1222111527
 30
0.0
 40
1.25
  1
UN - D 603
 50
90.0
100
AcDbText
  0
TEXT
  5
3C0
330
1E
100
AcDbEntity
  8
110-1
100
AcDbText
 10
347.1117494255079
 20
140.4515377956597
 30
0.0
 40
1.25
  1
ISO 1302 
 50
90.0
100
AcDbText
  0
TEXT
  5
3C1
330
1E
100
AcDbEntity
  8
110-1
100
AcDbText
 10
344.9759226538543
 20
140.4515377956597
 30
0.0
 40
1.25
  1
UN - D 28
 50
90.0
100
AcDbText
  0
LWPOLYLINE
  5
3C2
330
1E
100
AcDbEntity
  8
110-1
100
AcDbPolyline
 90
        2
 70
     0
 43
0.0
 10
367.0
 20
106.9999999999999
 10
367.0
 20
287.0
  0
LWPOLYLINE
  5
3C6
330
1E
100
AcDbEntity
  8
110-1
100
AcDbPolyline
 90
        4
 70
     1
 43
0.5
 10
406.0
 20
212.0
 10
406.0
 20
287.0
 10
382.0
 20
287.0
 10
382.0
 20
212.0
  0
LWPOLYLINE
  5
3CC
330
1E
100
AcDbEntity
  8
110-1
100
AcDbPolyline
 90
        2
 70
     0
 43
0.0
 10
402.0
 20
276.0
 10
406.0
 20
276.0
  0
LWPOLYLINE
  5
3D0
330
1E
100
AcDbEntity
  8
110-1
100
AcDbPolyline
 90
        2
 70
     0
 43
0.0
 10
402.0
 20
250.0
 10
406.0
 20
250.0
  0
LWPOLYLINE
  5
3D4
330
1E
100
AcDbEntity
  8
110-1
100
AcDbPolyline
 90
        2
 70
     0
 43
0.0
 10
398.0
 20
260.0
 10
398.0
 20
287.0
  0
LWPOLYLINE
  5
3D8
330
1E
100
AcDbEntity
  8
110-1
100
AcDbPolyline
 90
        2
 70
     0
 43
0.0
 10
394.0
 20
260.0
 10
394.0
 20
287.0
  0
LWPOLYLINE
  5
3DC
330
1E
100
AcDbEntity
  8
110-1
100
AcDbPolyline
 90
        2
 70
     0
 43
0.0
 10
390.0
 20
260.0
 10
390.0
 20
287.0
  0
LWPOLYLINE
  5
3E0
330
1E
100
AcDbEntity
  8
110-1
100
AcDbPolyline
 90
        2
 70
     0
 43
0.0
 10
386.0
 20
260.0
 10
386.0
 20
287.0
  0
LWPOLYLINE
  5
3E4
330
1E
100
AcDbEntity
  8
110-1
100
AcDbPolyline
 90
        2
 70
     0
 43
0.0
 10
402.0
 20
202.0
 10
406.0
 20
202.0
  0
TEXT
  5
3E8
330
1E
100
AcDbEntity
  8
110-1
100
AcDbText
 10
409.5542645613378
 20
130.856761589515
 30
0.0
 40
1.25
  1
KONTROL
 50
90.0
100
AcDbText
  0
TEXT
  5
3E9
330
1E
100
AcDbEntity
  8
110-1
100
AcDbText
 10
407.7759523540388
 20
130.856761589515
 30
0.0
 40
1.25
  1
CHECK
 50
90.0
100
AcDbText
  0
LWPOLYLINE
  5
3EA
330
1E
100
AcDbEntity
  8
110-1
100
AcDbPolyline
 90
        2
 70
     0
 43
0.0
 10
406.0
 20
130.0
 10
410.0
 20
130.0
  0
LWPOLYLINE
  5
3EE
330
1E
100
AcDbEntity
  8
110-1
100
AcDbPolyline
 90
        2
 70
     0
 43
0.0
 10
406.0
 20
114.9999999999999
 10
410.0
 20
114.9999999999999
  0
LWPOLYLINE
  5
3F2
330
1E
100
AcDbEntity
  8
110-1
 62
    13
100
AcDbPolyline
 90
        2
 70
     1
 43
0.2999999999999999
 10
377.0
 20
126.9999999999999
 42
1.0
 10
377.0
 20
129.0
 42
1.0
  0
LWPOLYLINE
  5
3F6
330
1E
100
AcDbEntity
  8
110-1
 62
    13
100
AcDbPolyline
 90
        2
 70
     1
 43
0.2999999999999998
 10
377.0
 20
125.9999999999999
 42
1.0
 10
377.0
 20
130.0
 42
1.0
  0
LWPOLYLINE
  5
3FA
330
1E
100
AcDbEntity
  8
110-1
100
AcDbPolyline
 90
        2
 70
     0
 43
0.0
 10
402.0
 20
212.0
 10
406.0
 20
212.0
  0
TEXT
  5
3FE
330
1E
100
AcDbEntity
  8
110-1
100
AcDbText
 10
343.9997557781445
 20
154.6507503410641
 30
0.0
 40
1.25
  1
TOLERANCE HVOR INTET ANDET ER ANGIVET
 50
90.0
 72
     1
 11
343.9997557781445
 21
174.2499999999999
 31
0.0
100
AcDbText
  0
TEXT
  5
3FF
330
1E
100
AcDbEntity
  8
110-1
100
AcDbText
 10
342.2502442218554
 20
155.3776432469303
 30
0.0
 40
1.25
  1
TOLERANCES UNLESS OTHERWISE STATED
 50
90.0
 72
     1
 11
342.2502442218554
 21
174.2499999999999
 31
0.0
100
AcDbText
  0
TEXT
  5
400
330
1E
100
AcDbEntity
  8
110-1
100
AcDbText
 10
370.5143431000696
 20
278.1870736698499
 30
0.0
 40
1.249999999999999
  1
ANTAL
 50
90.0
 72
     4
 11
369.8893431000696
 21
281.0
 31
0.0
100
AcDbText
  0
TEXT
  5
401
330
1E
100
AcDbEntity
  8
110-1
100
AcDbText
 10
368.6932185868818
 20
277.7014836289222
 30
0.0
 40
1.249999999999999
  1
QUANT.
 50
90.0
 72
     4
 11
368.1057356400878
 21
281.0
 31
0.0
100
AcDbText
  0
TEXT
  5
402
330
1E
100
AcDbEntity
  8
110-1
100
AcDbText
 10
369.62542633015
 20
244.2268076398363
 30
0.0
 40
1.25
  1
ORDER NO.          ORDRE NR.
 50
90.0
 72
     4
 11
369.0
 21
256.4999999999999
 31
0.0
100
AcDbText
  0
TEXT
  5
403
330
1E
100
AcDbEntity
  8
110-1
100
AcDbText
 10
408.7312683288395
 20
202.6226125511596
 30
0.0
 40
1.5
  1
ProTeleVision Technologies A/S - Skelmarksvej 4 - DK-2605 Br¯ndby
 50
90.0
 72
     4
 11
408.1889763779527
 21
235.0
 31
0.0
100
AcDbText
  0
TEXT
  5
404
330
1E
100
AcDbEntity
  8
110-1
100
AcDbText
 10
404.62542633015
 20
276.9296555252387
 30
0.0
 40
1.25
  1
FORM
 50
90.0
 72
     4
 11
404.0
 21
279.4999999999999
 31
0.0
100
AcDbText
  0
TEXT
  5
405
330
1E
100
AcDbEntity
  8
110-1
100
AcDbText
 10
404.7372100954979
 20
269.0445088676671
 30
0.0
 40
1.5
  1
KU
 50
90.0
 72
     4
 11
404.0
 21
270.5
 31
0.0
100
AcDbText
  0
TEXT
  5
406
330
1E
100
AcDbEntity
  8
110-1
100
AcDbText
 10
405.4362613022918
 20
213.8005735533708
 30
0.0
 40
1.249999999999999
  1
BL
 50
90.0
 72
     4
 11
404.8112613022919
 21
214.8685305792917
 31
0.0
100
AcDbText
  0
TEXT
  5
407
330
1E
100
AcDbEntity
  8
110-1
100
AcDbText
 10
403.7200147517628
 20
213.6556213023476
 30
0.0
 40
1.249999999999999
  1
SH
 50
90.0
 72
     4
 11
403.0950147517628
 21
214.8685305792917
 31
0.0
100
AcDbText
  0
TEXT
  5
408
330
1E
100
AcDbEntity
  8
110-1
100
AcDbText
 10
405.4362613022918
 20
208.4273438620436
 30
0.0
 40
1.249999999999999
  1
BL
 50
90.0
 72
     4
 11
404.8112613022919
 21
209.4953008879644
 31
0.0
100
AcDbText
  0
TEXT
  5
409
330
1E
100
AcDbEntity
  8
110-1
100
AcDbText
 10
403.7200147517628
 20
208.2823916110204
 30
0.0
 40
1.249999999999999
  1
SH
 50
90.0
 72
     4
 11
403.0950147517628
 21
209.4953008879644
 31
0.0
100
AcDbText
  0
TEXT
  5
40A
330
1E
100
AcDbEntity
  8
110-1
100
AcDbText
 10
405.5380132096727
 20
153.0
 30
0.0
 40
1.25
  1
ERST.
 50
90.0
100
AcDbText
  0
TEXT
  5
40B
330
1E
100
AcDbEntity
  8
110-1
100
AcDbText
 10
403.8084671393261
 20
153.0
 30
0.0
 40
1.25
  1
SUPERS.
 50
90.0
100
AcDbText
  0
TEXT
  5
40C
330
1E
100
AcDbEntity
  8
110-1
100
AcDbText
 10
405.5629369941048
 20
108.0280542054399
 30
0.0
 40
1.249999999999999
  1
NAVN
 50
90.0
100
AcDbText
  0
TEXT
  5
40D
330
1E
100
AcDbEntity
  8
110-1
100
AcDbText
 10
403.8244695129812
 20
108.0280542054399
 30
0.0
 40
1.249999999999999
  1
NAME
 50
90.0
100
AcDbText
  0
TEXT
  5
40E
330
1E
100
AcDbEntity
  8
110-1
100
AcDbText
 10
384.62542633015
 20
108.00017053206
 30
0.0
 40
1.25
  1
CLASS NO.       KLASSE NR.
 50
90.0
 72
     4
 11
384.0
 21
119.4999999999999
 31
0.0
100
AcDbText
  0
TEXT
  5
40F
330
1E
100
AcDbEntity
  8
110-1
100
AcDbText
 10
351.4776523468954
 20
151.9937374510446
 30
0.0
 40
1.25
  1
MèL
 50
90.0
100
AcDbText
  0
TEXT
  5
410
330
1E
100
AcDbEntity
  8
110-1
100
AcDbText
 10
349.7119800235754
 20
151.9937374510446
 30
0.0
 40
1.25
  1
DIMENSION
 50
90.0
100
AcDbText
  0
TEXT
  5
411
330
1E
100
AcDbEntity
  8
110-1
100
AcDbText
 10
371.1358267716535
 20
122.6524556616643
 30
0.0
 40
1.25
  1
EUROP.
 50
90.0
 72
     1
 11
371.1358267716535
 21
125.9999999999999
 31
0.0
100
AcDbText
  0
TEXT
  5
412
330
1E
100
AcDbEntity
  8
110-1
100
AcDbText
 10
369.0
 20
123.4288028649386
 30
0.0
 40
1.25
  1
PROJ.
 50
90.0
 72
     1
 11
369.0
 21
125.9999999999999
 31
0.0
100
AcDbText
  0
TEXT
  5
413
330
1E
100
AcDbEntity
  8
110-1
100
AcDbText
 10
371.1358267716535
 20
110.4336630286493
 30
0.0
 40
1.25
  1
SKALA
 50
90.0
 72
     1
 11
371.1358267716535
 21
113.2499999999999
 31
0.0
100
AcDbText
  0
TEXT
  5
414
330
1E
100
AcDbEntity
  8
110-1
100
AcDbText
 10
369.0
 20
110.3867667121418
 30
0.0
 40
1.25
  1
SCALE
 50
90.0
 72
     1
 11
369.0
 21
113.2499999999999
 31
0.0
100
AcDbText
  0
TEXT
  5
415
330
1E
100
AcDbEntity
  8
110-1
100
AcDbText
 10
356.1358267716535
 20
110.1454638472032
 30
0.0
 40
1.25
  1
RUHED
 50
90.0
 72
     1
 11
356.1358267716535
 21
113.2499999999999
 31
0.0
100
AcDbText
  0
TEXT
  5
416
330
1E
100
AcDbEntity
  8
110-1
100
AcDbText
 10
354.0
 20
107.6224420190995
 30
0.0
 40
1.25
  1
ROUGHNESS
 50
90.0
 72
     1
 11
354.0
 21
113.2499999999999
 31
0.0
100
AcDbText
  0
TEXT
  5
417
330
1E
100
AcDbEntity
  8
110-1
100
AcDbText
 10
356.1358267716535
 20
122.9436391541609
 30
0.0
 40
1.25
  1
ENHED
 50
90.0
 72
     1
 11
356.1358267716535
 21
125.9999999999999
 31
0.0
100
AcDbText
  0
TEXT
  5
418
330
1E
100
AcDbEntity
  8
110-1
100
AcDbText
 10
354.0
 20
123.962994542974
 30
0.0
 40
1.25
  1
UNIT
 50
90.0
 72
     1
 11
354.0
 21
125.9999999999999
 31
0.0
100
AcDbText
  0
TEXT
  5
419
330
1E
100
AcDbEntity
  8
110-1
100
AcDbText
 10
380.1424381609109
 20
136.8662853914407
 30
0.0
 40
1.25
  1
BEHANDLING
 50
180.0
 72
     4
 11
374.4658522127527
 21
136.2412853914407
 31
0.0
100
AcDbText
  0
TEXT
  5
41A
330
1E
100
AcDbEntity
  8
110-1
100
AcDbText
 10
379.8013740408564
 20
134.7304586197872
 30
0.0
 40
1.25
  1
TREATMENT
 50
180.0
 72
     4
 11
374.4658522127527
 21
134.1054586197872
 31
0.0
100
AcDbText
  0
TEXT
  5
41B
330
1E
100
AcDbEntity
  8
110-1
100
AcDbText
 10
363.8323256097513
 20
136.8662853914407
 30
0.0
 40
1.25
  1
MATERIEL
 50
180.0
 72
     4
 11
359.4658522127527
 21
136.2412853914407
 31
0.0
100
AcDbText
  0
TEXT
  5
41C
330
1E
100
AcDbEntity
  8
110-1
100
AcDbText
 10
363.8323256097513
 20
134.7304586197872
 30
0.0
 40
1.25
  1
MATERIAL
 50
180.0
 72
     4
 11
359.4658522127527
 21
134.1054586197872
 31
0.0
100
AcDbText
  0
LWPOLYLINE
  5
41D
330
1E
100
AcDbEntity
  8
110-1
100
AcDbPolyline
 90
        2
 70
     0
 43
0.0
 10
410.0
 20
183.0
 10
406.0
 20
183.0
  0
TEXT
  5
421
330
1E
100
AcDbEntity
  8
110-1
100
AcDbText
 10
408.6249999999999
 20
153.5045798919664
 30
0.0
 40
1.25
  1
DAT
 50
90.0
 72
     4
 11
408.0
 21
155.2508281866458
 31
0.0
100
AcDbText
  0
LWPOLYLINE
  5
422
330
1E
100
AcDbEntity
  8
110-1
100
AcDbPolyline
 90
        2
 70
     0
 43
0.0
 10
402.0
 20
152.0
 10
410.0
 20
152.0
  0
LWPOLYLINE
  5
426
330
1E
100
AcDbEntity
  8
110-1
100
AcDbPolyline
 90
        2
 70
     0
 43
0.0
 10
406.0
 20
106.9999999999999
 10
406.0
 20
287.0
  0
LWPOLYLINE
  5
42A
330
1E
100
AcDbEntity
  8
110-1
  6
CENTER
 62
     2
100
AcDbPolyline
 90
        2
 70
     0
 43
0.02
 10
374.0
 20
127.9999999999999
 10
380.0
 20
127.9999999999999
  0
LWPOLYLINE
  5
42E
330
1E
100
AcDbEntity
  8
110-1
  6
CENTER
 62
     2
100
AcDbPolyline
 90
        2
 70
     0
 43
0.02
 10
377.0
 20
119.9999999999999
 10
377.0
 20
131.0
  0
LWPOLYLINE
  5
432
330
1E
100
AcDbEntity
  8
110-1
100
AcDbPolyline
 90
        5
 70
     0
 43
0.5
 10
378.0
 20
120.9999999999999
 10
379.0
 20
124.9999999999999
 10
375.0
 20
124.9999999999999
 10
376.0
 20
120.9999999999999
 10
378.0
 20
120.9999999999999
  0
LWPOLYLINE
  5
439
330
1E
100
AcDbEntity
  8
110-1
100
AcDbPolyline
 90
        5
 70
     0
 43
0.5
 10
402.0
 20
106.9999999999999
 10
402.0
 20
132.0
 10
390.0
 20
132.0
 10
390.0
 20
106.9999999999999
 10
402.0
 20
106.9999999999999
  0
LWPOLYLINE
  5
440
330
1E
100
AcDbEntity
  8
110-1
100
AcDbPolyline
 90
        2
 70
     0
 43
0.0
 10
398.0
 20
106.9999999999999
 10
398.0
 20
132.0
  0
LWPOLYLINE
  5
444
330
1E
100
AcDbEntity
  8
110-1
100
AcDbPolyline
 90
        2
 70
     0
 43
0.0
 10
394.0
 20
106.9999999999999
 10
394.0
 20
132.0
  0
TEXT
  5
448
330
1E
100
AcDbEntity
  8
110-1
100
AcDbText
 10
350.7567930814144
 20
111.6336749910042
 30
0.0
 40
1.25
  1
A
 50
90.0
100
AcDbText
  0
LWPOLYLINE
  5
449
330
1E
100
AcDbEntity
  8
110-1
100
AcDbPolyline
 90
        2
 70
     0
 43
0.0
 10
340.0
 20
197.5
 10
352.0
 20
197.5
  0
LWPOLYLINE
  5
44D
330
1E
100
AcDbEntity
  8
110-1
100
AcDbPolyline
 90
        2
 70
     0
 43
0.0
 10
340.0
 20
150.5
 10
352.0
 20
150.5
  0
LWPOLYLINE
  5
451
330
1E
100
AcDbEntity
  8
110-1
100
AcDbPolyline
 90
        2
 70
     0
 43
0.0
 10
344.0
 20
228.0
 10
344.0
 20
287.0
  0
LWPOLYLINE
  5
455
330
1E
100
AcDbEntity
  8
110-1
100
AcDbPolyline
 90
        2
 70
     0
 43
0.0
 10
340.0
 20
228.0
 10
352.0
 20
228.0
  0
LWPOLYLINE
  5
459
330
1E
100
AcDbEntity
  8
110-1
100
AcDbPolyline
 90
        2
 70
     0
 43
0.0
 10
382.0
 20
119.4999999999999
 10
352.0
 20
119.4999999999999
  0
LWPOLYLINE
  5
45D
330
1E
100
AcDbEntity
  8
110-1
100
AcDbPolyline
 90
        2
 70
     0
 43
0.0
 10
371.0
 20
238.0
 10
371.0
 20
287.0
  0
LWPOLYLINE
  5
461
330
1E
100
AcDbEntity
  8
110-1
100
AcDbPolyline
 90
        2
 70
     0
 43
0.0
 10
355.9933030334577
 20
238.0905294119906
 10
355.9933030334577
 20
287.0905294119907
  0
LWPOLYLINE
  5
465
330
1E
100
AcDbEntity
  8
110-1
100
AcDbPolyline
 90
        2
 70
     0
 43
0.0
 10
348.0
 20
228.0
 10
348.0
 20
287.0
  0
LWPOLYLINE
  5
469
330
1E
100
AcDbEntity
  8
110-1
100
AcDbPolyline
 90
        2
 70
     0
 43
0.0
 10
340.0
 20
287.0
 10
410.0
 20
287.0
  0
LWPOLYLINE
  5
46D
330
1E
100
AcDbEntity
  8
110-1
100
AcDbPolyline
 90
        2
 70
     0
 43
0.0
 10
340.0
 20
106.9999999999999
 10
410.0
 20
106.9999999999999
  0
LWPOLYLINE
  5
471
330
1E
100
AcDbEntity
  8
110-1
100
AcDbPolyline
 90
        2
 70
     0
 43
0.0
 10
367.0
 20
275.0
 10
382.0
 20
275.0
  0
LWPOLYLINE
  5
475
330
1E
100
AcDbEntity
  8
110-1
100
AcDbPolyline
 90
        2
 70
     0
 43
0.0
 10
340.0
 20
275.0
 10
352.0
 20
275.0
  0
LWPOLYLINE
  5
479
330
1E
100
AcDbEntity
  8
110-1
100
AcDbPolyline
 90
        2
 70
     0
 43
0.0
 10
340.0
 20
238.0
 10
382.0
 20
238.0
  0
LWPOLYLINE
  5
47D
330
1E
100
AcDbEntity
  8
110-1
100
AcDbPolyline
 90
        2
 70
     0
 43
0.0
 10
340.0
 20
106.9999999999999
 10
340.0
 20
287.0
  0
TEXT
  5
481
330
1E
100
AcDbEntity
  8
110-1
100
AcDbText
 10
350.62542633015
 20
241.5575545702592
 30
0.0
 40
1.25
  1
ASSEMBLY NO.         SAMLINGS NR.
 50
90.0
 72
     4
 11
350.0
 21
256.4999999999999
 31
0.0
100
AcDbText
  0
TEXT
  5
482
330
1E
100
AcDbEntity
  8
110-1
100
AcDbText
 10
351.4797570388115
 20
231.1561221009549
 30
0.0
 40
1.25
  1
POS
 50
90.0
 72
     4
 11
350.8543307086614
 21
233.0
 31
0.0
100
AcDbText
  0
TEXT
  5
483
330
1E
100
AcDbEntity
  8
110-1
100
AcDbText
 10
349.7706692913386
 20
230.9143929058663
 30
0.0
 40
1.25
  1
ITEM
 50
90.0
 72
     4
 11
349.1456692913386
 21
233.0
 31
0.0
100
AcDbText
  0
LWPOLYLINE
  5
484
330
1E
100
AcDbEntity
  8
110-1
100
AcDbPolyline
 90
        3
 70
     1
 43
0.0
 10
348.0
 20
201.0
 10
348.0
 20
203.0
 10
347.0
 20
202.0
  0
LWPOLYLINE
  5
489
330
1E
100
AcDbEntity
  8
110-1
100
AcDbPolyline
 90
        2
 70
     0
 43
0.4
 10
345.0
 20
202.0
 10
348.0
 20
202.0
  0
TEXT
  5
48D
330
1E
100
AcDbEntity
  8
110-1
100
AcDbText
 10
348.625
 20
212.4176330150068
 30
0.0
 40
1.25
  1
A
 50
90.0
 72
     4
 11
348.0
 21
213.0
 31
0.0
100
AcDbText
  0
TEXT
  5
48E
330
1E
100
AcDbEntity
  8
110-1
100
AcDbText
 10
344.625
 20
201.4176330150068
 30
0.0
 40
1.25
  1
A
 50
90.0
 72
     4
 11
344.0
 21
202.0
 31
0.0
100
AcDbText
  0
LWPOLYLINE
  5
48F
330
1E
100
AcDbEntity
  8
110-1
100
AcDbPolyline
 90
        4
 70
     1
 43
0.3
 10
347.0
 20
212.0
 10
347.0
 20
214.0
 10
349.0
 20
214.0
 10
349.0
 20
212.0
  0
LWPOLYLINE
  5
495
330
1E
100
AcDbEntity
  8
110-1
100
AcDbPolyline
 90
        4
 70
     1
 43
0.3
 10
349.0
 20
208.0
 10
349.0
 20
210.0
 10
347.0
 20
210.0
 10
347.0
 20
208.0
  0
LWPOLYLINE
  5
49B
330
1E
100
AcDbEntity
  8
110-1
100
AcDbPolyline
 90
        4
 70
     1
 43
0.3
 10
349.0
 20
210.0
 10
349.0
 20
212.0
 10
347.0
 20
212.0
 10
347.0
 20
210.0
  0
LWPOLYLINE
  5
4A1
330
1E
100
AcDbEntity
  8
110-1
100
AcDbPolyline
 90
        4
 70
     1
 43
0.3
 10
345.0
 20
210.0
 10
345.0
 20
212.0
 10
343.0
 20
212.0
 10
343.0
 20
210.0
  0
LWPOLYLINE
  5
4A7
330
1E
100
AcDbEntity
  8
110-1
100
AcDbPolyline
 90
        4
 70
     1
 43
0.3
 10
345.0
 20
208.0
 10
345.0
 20
210.0
 10
343.0
 20
210.0
 10
343.0
 20
208.0
  0
LWPOLYLINE
  5
4AD
330
1E
100
AcDbEntity
  8
110-1
100
AcDbPolyline
 90
        4
 70
     1
 43
0.3
 10
343.0
 20
201.0
 10
343.0
 20
203.0
 10
345.0
 20
203.0
 10
345.0
 20
201.0
  0
TEXT
  5
4B3
330
1E
100
AcDbEntity
  8
110-1
100
AcDbText
 10
351.4766422895237
 20
175.9650649737951
 30
0.0
 40
1.25
  1
VINKEL
 50
90.0
100
AcDbText
  0
TEXT
  5
4B4
330
1E
100
AcDbEntity
  8
110-1
100
AcDbText
 10
349.7679808722009
 20
175.9650649737951
 30
0.0
 40
1.25
  1
ANGLE
 50
90.0
100
AcDbText
  0
LWPOLYLINE
  5
4B5
330
1E
100
AcDbEntity
  8
110-1
100
AcDbPolyline
 90
        2
 70
     0
 43
0.0
 10
346.0
 20
174.0
 10
352.0
 20
174.0
  0
ARC
  5
4B9
330
1E
100
AcDbEntity
  8
110-1
100
AcDbCircle
 10
343.6414076389454
 20
137.7603144101785
 30
0.0
 40
1.214781746034139
100
AcDbArc
 50
36.48477308987293
 51
29.24767030063086
  0
TEXT
  5
4BA
330
1E
100
AcDbEntity
  8
110-1
100
AcDbText
 10
342.0
 20
135.0
 30
0.0
 40
1.25
  1
. .
 50
90.0
100
AcDbText
  0
TEXT
  5
4BB
330
1E
100
AcDbEntity
  8
110-1
100
AcDbText
 10
342.0
 20
123.9999999999999
 30
0.0
 40
1.25
  1
. .
 50
90.0
100
AcDbText
  0
TEXT
  5
4BC
330
1E
100
AcDbEntity
  8
110-1
100
AcDbText
 10
342.0
 20
111.9999999999999
 30
0.0
 40
1.25
  1
. .
 50
90.0
100
AcDbText
  0
TEXT
  5
4BD
330
1E
100
AcDbEntity
  8
110-1
100
AcDbText
 10
350.0
 20
108.9999999999999
 30
0.0
 40
1.25
  1
. . R    IN MICROMETERS
 50
90.0
100
AcDbText
  0
LWPOLYLINE
  5
4BE
330
1E
100
AcDbEntity
  8
110-1
100
AcDbPolyline
 90
        3
 70
     0
 43
0.0
 10
343.0301942741911
 20
136.0374851427603
 10
346.0
 20
137.7499999999999
 10
340.6334915177565
 20
140.8685888495279
  0
LWPOLYLINE
  5
4C3
330
1E
100
AcDbEntity
  8
110-1
100
AcDbPolyline
 90
        3
 70
     0
 43
0.0
 10
343.0301942741911
 20
125.0374851427603
 10
346.0
 20
126.7499999999999
 10
340.6334915177565
 20
129.8685888495278
  0
ARC
  5
4C8
330
1E
100
AcDbEntity
  8
110-1
100
AcDbCircle
 10
346.0
 20
114.7499999999999
 30
0.0
 40
3.605551275464018
100
AcDbArc
 50
149.8382447180721
 51
209.838244718072
  0
LWPOLYLINE
  5
4C9
330
1E
100
AcDbEntity
  8
110-1
100
AcDbPolyline
 90
        3
 70
     0
 43
0.0
 10
342.767949192431
 20
113.1519237886466
 10
346.0
 20
114.7499999999999
 10
340.6334915177565
 20
117.8685888495278
  0
TEXT
  5
4CE
330
1E
100
AcDbEntity
  8
110-1
100
AcDbText
 10
351.5105388414367
 20
278.1870736698499
 30
0.0
 40
1.25
  1
ANTAL
 50
90.0
 72
     4
 11
350.8855388414366
 21
281.0
 31
0.0
100
AcDbText
  0
TEXT
  5
4CF
330
1E
100
AcDbEntity
  8
110-1
100
AcDbText
 10
349.6970228455147
 20
277.7014836289222
 30
0.0
 40
1.25
  1
QUANT.
 50
90.0
 72
     4
 11
349.1095398987207
 21
281.0
 31
0.0
100
AcDbText
  0
LWPOLYLINE
  5
4D0
330
1E
100
AcDbEntity
  8
110-1
100
AcDbPolyline
 90
        2
 70
     0
 43
0.0
 10
410.0
 20
106.9999999999999
 10
410.0
 20
287.0
  0
LWPOLYLINE
  5
4D4
330
1E
100
AcDbEntity
  8
110-1
100
AcDbPolyline
 90
        2
 70
     0
 43
0.0
 10
352.0
 20
132.0
 10
402.0
 20
132.0
  0
LWPOLYLINE
  5
4D8
330
1E
100
AcDbEntity
  8
110-1
100
AcDbPolyline
 90
        2
 70
     0
 43
0.0
 10
352.0
 20
106.9999999999999
 10
352.0
 20
287.0
  0
LWPOLYLINE
  5
4DC
330
1E
100
AcDbEntity
  8
110-1
100
AcDbPolyline
 90
        2
 70
     0
 43
0.0
 10
382.0
 20
265.0
 10
406.0
 20
265.0
  0
LWPOLYLINE
  5
4E0
330
1E
100
AcDbEntity
  8
110-1
100
AcDbPolyline
 90
        2
 70
     0
 43
0.0
 10
390.0
 20
126.9999999999999
 10
402.0
 20
126.9999999999999
  0
LINE
  5
4E4
330
1E
100
AcDbEntity
  8
110-1
100
AcDbLine
 10
406.0
 20
129.9999999999999
 30
0.0
 11
410.0
 21
129.9999999999999
 31
0.0
  0
LWPOLYLINE
  5
4E5
330
1E
100
AcDbEntity
  8
110-1
100
AcDbPolyline
 90
        2
 70
     0
 43
0.0
 10
382.0
 20
106.9999999999999
 10
382.0
 20
287.0
  0
TEXT
  5
4E9
330
1E
100
AcDbEntity
  8
110-1
100
AcDbText
 10
354.6205050703075
 20
249.8384208731241
 30
0.0
 40
1.25
  1
PATTERN NO.        MODEL NR.
 50
90.0
 72
     4
 11
353.9950787401575
 21
262.5
 31
0.0
100
AcDbText
  0
LINE
  5
4EA
330
1E
100
AcDbEntity
  8
110-1
100
AcDbLine
 10
402.0
 20
151.9999999999999
 30
0.0
 11
406.0
 21
151.9999999999999
 31
0.0
  0
LINE
  5
4EB
330
1E
100
AcDbEntity
  8
110-1
100
AcDbLine
 10
353.0
 20
131.9999999999999
 30
0.0
 11
370.0
 21
131.9999999999999
 31
0.0
  0
TEXT
  5
4EC
330
1E
100
AcDbEntity
  8
110-1
100
AcDbText
 10
365.6259842519684
 20
124.2953615279672
 30
0.0
 40
1.25
  1
MM
 50
90.0
 72
     1
 11
365.6259842519684
 21
125.7499999999999
 31
0.0
100
AcDbText
  0
TEXT
  5
4EE
330
1E
100
AcDbEntity
  8
110-1
 62
    15
100
AcDbText
 10
397.4558094255586
 20
13.21136195953238
 30
0.0
 40
2.5
  1
LANGS ALLE 4 KANTER I 10MM BREDDE.
 50
90.0
100
AcDbText
  0
TEXT
  5
4EF
330
1E
100
AcDbEntity
  8
110-1
 62
    15
100
AcDbText
 10
393.5496284854242
 20
13.21136195953238
 30
0.0
 40
2.5
  1
UNDERSIDE SKAL V∆RE FRI FOR MALING
 50
90.0
100
AcDbText
  0
TEXT
  5
4F0
330
1E
100
AcDbEntity
  8
110-1
 62
    15
100
AcDbText
 10
404.853942183287
 20
282.5903536687123
 30
0.0
 40
2.5
  1
A3
 50
90.0
100
AcDbText
  0
TEXT
  5
4F1
330
1E
100
AcDbEntity
  8
110-1
 62
    15
100
AcDbText
 10
405.1005422168669
 20
252.6228424076481
 30
0.0
 40
2.5
  1
116
 50
90.0
100
AcDbText
  0
TEXT
  5
4F2
330
1E
100
AcDbEntity
  8
110-1
 62
    15
100
AcDbText
 10
377.7134124223225
 20
13.28538705210002
 30
0.0
 40
2.5
  1
INGEN SKARPE KANTER OG HJÿRNER
 50
90.0
100
AcDbText
  0
TEXT
  5
4F3
330
1E
100
AcDbEntity
  8
110-1
100
AcDbText
 10
5.377467997043041
 20
281.5051492411088
 30
0.0
 40
3.0
  1
KUV40
 72
     2
 11
18.65645844724768
 21
281.5051492411088
 31
0.0
100
AcDbText
  0
TEXT
  5
4F4
330
1E
100
AcDbEntity
  8
110-1
 62
    15
100
AcDbText
 10
409.3922832223086
 20
117.395066583562
 30
0.0
 40
2.5
  1
ENS
 50
90.0
100
AcDbText
  0
INSERT
  5
4F5
330
1E
100
AcDbEntity
  8
110-1
100
AcDbBlockReference
  2
SAM
 10
-15.8482074054055
 20
14.57919294244798
 30
0.0
 41
0.5
 42
0.5
 43
0.5
  0
TEXT
  5
4F6
330
1E
100
AcDbEntity
  8
110-1
100
AcDbText
 10
349.9492535413704
 20
163.8584220868083
 30
0.0
 40
3.0
  1
±0.1
 50
90.0
100
AcDbText
  0
TEXT
  5
4F7
330
1E
100
AcDbEntity
  8
110-1
 62
    15
100
AcDbText
 10
389.2083939110942
 20
262.9669610893918
 30
0.0
 40
2.5
  1
2   96-06-26
 50
90.0
100
AcDbText
  0
TEXT
  5
500
330
1E
100
AcDbEntity
  8
110-1
 62
    15
100
AcDbText
 10
385.6867240558178
 20
13.1841053931173
 30
0.0
 40
2.5
  1
OVERSIDE LAKERES MED: SE MALINGSPECIFICATION 
 50
90.0
100
AcDbText
  0
TEXT
  5
501
330
1E
100
AcDbEntity
  8
110-1
 62
    15
100
AcDbText
 10
389.843397554111
 20
67.85223626460129
 30
0.0
 40
2.5
  1
4008 140 00000
 50
90.0
100
AcDbText
  0
TEXT
  5
503
330
1E
100
AcDbEntity
  8
110-1
 62
    15
100
AcDbText
 10
393.461334650944
 20
262.9669610893918
 30
0.0
 40
2.5
  1
3   00-01-19
 50
90.0
100
AcDbText
  0
TEXT
  5
ECA
330
1E
100
AcDbEntity
  8
110-1
100
AcDbText
 10
5.606663085719711
 20
277.7230344821434
 30
0.0
 40
3.0
  1
-10334
 72
     2
 11
18.65645844724768
 21
277.7230344821434
 31
0.0
100
AcDbText
  0
ENDSEC
  0
SECTION
  2
OBJECTS
  0
DICTIONARY
  5
C
330
0
100
AcDbDictionary
  3
ACAD_GROUP
350
D
  3
ACAD_LAYOUT
350
19
  3
ACAD_MLINESTYLE
350
16
  3
ACAD_PLOTSETTINGS
350
18
  3
ACAD_PLOTSTYLENAME
350
E
  3
ACDBHEADERROUNDTRIPXREC
350
ED2
  0
DICTIONARY
  5
EF5
330
1E
100
AcDbDictionary
280
     1
  3
ACAD_LAYOUTSELFREF
360
EF6
  0
DICTIONARY
  5
EF3
330
1A
100
AcDbDictionary
280
     1
  3
ACAD_LAYOUTSELFREF
360
EF4
  0
DICTIONARY
  5
D
102
{ACAD_REACTORS
330
C
102
}
330
C
100
AcDbDictionary
  0
DICTIONARY
  5
19
102
{ACAD_REACTORS
330
C
102
}
330
C
100
AcDbDictionary
  0
DICTIONARY
  5
16
102
{ACAD_REACTORS
330
C
102
}
330
C
100
AcDbDictionary
  3
STANDARD
350
17
  0
DICTIONARY
  5
18
102
{ACAD_REACTORS
330
C
102
}
330
C
100
AcDbDictionary
  0
ACDBDICTIONARYWDFLT
  5
E
102
{ACAD_REACTORS
330
C
102
}
330
C
100
AcDbDictionary
281
     1
  3
Normal
350
F
100
AcDbDictionaryWithDefault
340
F
  0
DICTIONARY
  5
ED2
102
{ACAD_REACTORS
330
C
102
}
330
C
100
AcDbDictionary
  3
TSTACKALIGN
350
ED3
  3
TSTACKSIZE
350
ED4
  3
HYPERLINKBASE
350
ED5
  3
STYLESHEET
350
ED6
  3
LAYOUTDICT
350
ED7
  3
PLOTSETDICT
350
ED8
  3
PLOTSTYLNAMDICT
350
ED9
  3
LWETCUNION
350
EDA
  3
INSUNITS
350
EDB
  3
CEPSNTYPE
350
EDC
  3
FINGERPRINTGUID
350
EDD
  3
VERSIONGUID
350
EDE
  3
PSVPSCALE
350
EDF
  3
DIMSTYLEDATA
350
EE0
  3
PUCSORTHOREF
350
EE1
  3
PUCSORTHOVIEW
350
EE2
  3
PUCSBASE
350
EE3
  3
PUCSORGTOP
350
EE4
  3
PUCSORGBOTTOM
350
EE5
  3
PUCSORGLEFT
350
EE6
  3
PUCSORGRIGHT
350
EE7
  3
PUCSORGFRONT
350
EE8
  3
PUCSORGBACK
350
EE9
  3
UCSORTHOREF
350
EEA
  3
UCSORTHOVIEW
350
EEB
  3
UCSBASE
350
EEC
  3
UCSORGTOP
350
EED
  3
UCSORGBOTTOM
350
EEE
  3
UCSORGLEFT
350
EEF
  3
UCSORGRIGHT
350
EF0
  3
UCSORGFRONT
350
EF1
  3
UCSORGBACK
350
EF2
  0
XRECORD
  5
EF6
102
{ACAD_REACTORS
330
EF5
102
}
330
EF5
100
AcDbXrecord
340
1E
  0
XRECORD
  5
EF4
102
{ACAD_REACTORS
330
EF3
102
}
330
EF3
100
AcDbXrecord
340
1A
  0
MLINESTYLE
  5
17
102
{ACAD_REACTORS
330
16
102
}
330
16
100
AcDbMlineStyle
  2
STANDARD
 70
     0
  3

 62
   256
 51
90.0
 52
90.0
 71
     2
 49
0.5
 62
   256
  6
BYLAYER
 49
-0.5
 62
   256
  6
BYLAYER
  0
ACDBPLACEHOLDER
  5
F
102
{ACAD_REACTORS
330
E
102
}
330
E
100
AcDbPlaceHolder
280
     0
  0
XRECORD
  5
ED3
102
{ACAD_REACTORS
330
ED2
102
}
330
ED2
100
AcDbXrecord
 90
        1
  0
XRECORD
  5
ED4
102
{ACAD_REACTORS
330
ED2
102
}
330
ED2
100
AcDbXrecord
 90
       70
  0
XRECORD
  5
ED5
102
{ACAD_REACTORS
330
ED2
102
}
330
ED2
100
AcDbXrecord
  1

  0
XRECORD
  5
ED6
102
{ACAD_REACTORS
330
ED2
102
}
330
ED2
100
AcDbXrecord
  1
kabler.ctb
  0
XRECORD
  5
ED7
102
{ACAD_REACTORS
330
ED2
102
}
330
ED2
100
AcDbXrecord
340
19
  0
XRECORD
  5
ED8
102
{ACAD_REACTORS
330
ED2
102
}
330
ED2
100
AcDbXrecord
340
18
  0
XRECORD
  5
ED9
102
{ACAD_REACTORS
330
ED2
102
}
330
ED2
100
AcDbXrecord
340
E
  0
XRECORD
  5
EDA
102
{ACAD_REACTORS
330
ED2
102
}
330
ED2
100
AcDbXrecord
 90
    14877
  0
XRECORD
  5
EDB
102
{ACAD_REACTORS
330
ED2
102
}
330
ED2
100
AcDbXrecord
 90
        0
  0
XRECORD
  5
EDC
102
{ACAD_REACTORS
330
ED2
102
}
330
ED2
100
AcDbXrecord
 90
        0
  0
XRECORD
  5
EDD
102
{ACAD_REACTORS
330
ED2
102
}
330
ED2
100
AcDbXrecord
  1
{F9DC2FA9-CE62-11D3-9596-0050043D34BD}
  0
XRECORD
  5
EDE
102
{ACAD_REACTORS
330
ED2
102
}
330
ED2
100
AcDbXrecord
  1
{EE65BFB4-41EE-11D4-95F5-0050043D34BD}
  0
XRECORD
  5
EDF
102
{ACAD_REACTORS
330
ED2
102
}
330
ED2
100
AcDbXrecord
 40
0.0
  0
XRECORD
  5
EE0
102
{ACAD_REACTORS
330
ED2
102
}
330
ED2
100
AcDbXrecord
1000
DSTYLE
1002
{
1070
   279
 70
     2
1002
}
  0
XRECORD
  5
EE1
102
{ACAD_REACTORS
330
ED2
102
}
330
ED2
100
AcDbXrecord
340
0
  0
XRECORD
  5
EE2
102
{ACAD_REACTORS
330
ED2
102
}
330
ED2
100
AcDbXrecord
 70
     0
  0
XRECORD
  5
EE3
102
{ACAD_REACTORS
330
ED2
102
}
330
ED2
100
AcDbXrecord
340
0
  0
XRECORD
  5
EE4
102
{ACAD_REACTORS
330
ED2
102
}
330
ED2
100
AcDbXrecord
 10
0.0
 20
0.0
 30
0.0
  0
XRECORD
  5
EE5
102
{ACAD_REACTORS
330
ED2
102
}
330
ED2
100
AcDbXrecord
 10
0.0
 20
0.0
 30
0.0
  0
XRECORD
  5
EE6
102
{ACAD_REACTORS
330
ED2
102
}
330
ED2
100
AcDbXrecord
 10
0.0
 20
0.0
 30
0.0
  0
XRECORD
  5
EE7
102
{ACAD_REACTORS
330
ED2
102
}
330
ED2
100
AcDbXrecord
 10
0.0
 20
0.0
 30
0.0
  0
XRECORD
  5
EE8
102
{ACAD_REACTORS
330
ED2
102
}
330
ED2
100
AcDbXrecord
 10
0.0
 20
0.0
 30
0.0
  0
XRECORD
  5
EE9
102
{ACAD_REACTORS
330
ED2
102
}
330
ED2
100
AcDbXrecord
 10
0.0
 20
0.0
 30
0.0
  0
XRECORD
  5
EEA
102
{ACAD_REACTORS
330
ED2
102
}
330
ED2
100
AcDbXrecord
340
0
  0
XRECORD
  5
EEB
102
{ACAD_REACTORS
330
ED2
102
}
330
ED2
100
AcDbXrecord
 70
     0
  0
XRECORD
  5
EEC
102
{ACAD_REACTORS
330
ED2
102
}
330
ED2
100
AcDbXrecord
340
0
  0
XRECORD
  5
EED
102
{ACAD_REACTORS
330
ED2
102
}
330
ED2
100
AcDbXrecord
 10
0.0
 20
0.0
 30
0.0
  0
XRECORD
  5
EEE
102
{ACAD_REACTORS
330
ED2
102
}
330
ED2
100
AcDbXrecord
 10
0.0
 20
0.0
 30
0.0
  0
XRECORD
  5
EEF
102
{ACAD_REACTORS
330
ED2
102
}
330
ED2
100
AcDbXrecord
 10
0.0
 20
0.0
 30
0.0
  0
XRECORD
  5
EF0
102
{ACAD_REACTORS
330
ED2
102
}
330
ED2
100
AcDbXrecord
 10
0.0
 20
0.0
 30
0.0
  0
XRECORD
  5
EF1
102
{ACAD_REACTORS
330
ED2
102
}
330
ED2
100
AcDbXrecord
 10
0.0
 20
0.0
 30
0.0
  0
XRECORD
  5
EF2
102
{ACAD_REACTORS
330
ED2
102
}
330
ED2
100
AcDbXrecord
 10
0.0
 20
0.0
 30
0.0
  0
ENDSEC
  0
EOF
