*%FSLAX23Y23*%
*%MOIN*%
G01*
D13*
X7477Y9002D02*
X7884D01*
Y8997D02*
X7477D01*
Y8992D02*
X7884D01*
Y8987D02*
X7477D01*
Y8982D02*
X7884D01*
Y8980D02*
X7477D01*
X7849Y9152D02*
X7885D01*
X7849D02*
X7767D01*
X7477D01*
X7849Y9197D02*
X7885D01*
X7767D02*
X7477D01*
X7849Y9192D02*
X7885D01*
X7767D02*
X7477D01*
X7849Y9187D02*
X7885D01*
X7767D02*
X7477D01*
X7849Y9182D02*
X7885D01*
X7767D02*
X7477D01*
X7849Y9177D02*
X7885D01*
X7767D02*
X7477D01*
X7849Y9172D02*
X7885D01*
X7767D02*
X7477D01*
X7849Y9167D02*
X7885D01*
X7767D02*
X7477D01*
X7849Y9162D02*
X7885D01*
X7767D02*
X7477D01*
X7849Y9157D02*
X7885D01*
X7849D02*
X7767D01*
X7477D01*
X7767Y9160D02*
X7849D01*
X7885Y9147D02*
X7477D01*
Y9142D02*
X7885D01*
Y9137D02*
X7477D01*
Y9132D02*
X7885D01*
X7884Y9007D02*
X7477D01*
Y9027D02*
X7884D01*
Y9022D02*
X7477D01*
Y9017D02*
X7884D01*
Y9012D02*
X7477D01*
Y9127D02*
X7885D01*
Y9122D02*
X7477D01*
Y9117D02*
X7885D01*
Y9112D02*
X7477D01*
Y9107D02*
X7885D01*
Y9102D02*
X7477D01*
Y9097D02*
X7885D01*
Y9092D02*
X7477D01*
Y9087D02*
X7885D01*
Y9082D02*
X7477D01*
Y9077D02*
X7884D01*
Y9072D02*
X7477D01*
Y9067D02*
X7884D01*
Y9062D02*
X7477D01*
Y9057D02*
X7884D01*
Y9052D02*
X7477D01*
Y9047D02*
X7884D01*
Y9042D02*
X7477D01*
Y9037D02*
X7884D01*
Y9032D02*
X7477D01*
Y9347D02*
X7885D01*
Y9392D02*
X7477D01*
Y9387D02*
X7885D01*
Y9382D02*
X7477D01*
Y9377D02*
X7885D01*
Y9372D02*
X7477D01*
Y9367D02*
X7885D01*
Y9362D02*
X7477D01*
Y9357D02*
X7885D01*
Y9352D02*
X7477D01*
Y9342D02*
X7885D01*
Y9337D02*
X7477D01*
Y9332D02*
X7885D01*
Y9327D02*
X7477D01*
X7849Y9202D02*
X7885D01*
X7767D02*
X7477D01*
X7849Y9222D02*
X7885D01*
X7767D02*
X7477D01*
X7849Y9217D02*
X7885D01*
X7767D02*
X7477D01*
X7849Y9212D02*
X7885D01*
X7767D02*
X7477D01*
X7849Y9207D02*
X7885D01*
X7767D02*
X7477D01*
X7849Y9322D02*
X7885D01*
X7849D02*
X7767D01*
X7477D01*
X7849Y9317D02*
X7885D01*
X7849D02*
X7767D01*
X7477D01*
X7849Y9312D02*
X7885D01*
X7767D02*
X7477D01*
X7849Y9307D02*
X7885D01*
X7767D02*
X7477D01*
X7849Y9302D02*
X7885D01*
X7767D02*
X7477D01*
X7849Y9297D02*
X7885D01*
X7767D02*
X7477D01*
X7849Y9292D02*
X7885D01*
X7767D02*
X7477D01*
X7849Y9287D02*
X7885D01*
X7767D02*
X7477D01*
X7849Y9282D02*
X7885D01*
X7767D02*
X7477D01*
X7849Y9277D02*
X7885D01*
X7767D02*
X7477D01*
X7849Y9272D02*
X7885D01*
X7767D02*
X7477D01*
X7849Y9267D02*
X7885D01*
X7767D02*
X7477D01*
X7849Y9262D02*
X7885D01*
X7767D02*
X7477D01*
X7849Y9257D02*
X7885D01*
X7767D02*
X7477D01*
X7849Y9252D02*
X7885D01*
X7767D02*
X7477D01*
X7849Y9247D02*
X7885D01*
X7767D02*
X7477D01*
X7849Y9242D02*
X7885D01*
X7767D02*
X7477D01*
X7849Y9237D02*
X7885D01*
X7767D02*
X7477D01*
X7849Y9232D02*
X7885D01*
X7767D02*
X7477D01*
X7849Y9227D02*
X7885D01*
X7767D02*
X7477D01*
X7767Y9312D02*
X7849D01*
X7885Y9402D02*
X7477D01*
Y9397D02*
X7885D01*
Y9417D02*
X7477D01*
Y9412D02*
X7885D01*
Y9407D02*
X7477D01*
Y9472D02*
X7885D01*
Y9467D02*
X7477D01*
Y9462D02*
X7885D01*
Y9457D02*
X7477D01*
Y9452D02*
X7885D01*
Y9447D02*
X7477D01*
Y9442D02*
X7885D01*
Y9437D02*
X7477D01*
Y9432D02*
X7885D01*
Y9427D02*
X7477D01*
Y9422D02*
X7885D01*
Y9475D02*
X7477D01*
Y8980D01*
X7884D02*
Y9070D01*
X7885Y9000D02*
Y9475D01*
X7767Y9312D02*
Y9160D01*
X7849D02*
Y9312D01*
X7884Y9070D02*
X7885Y9000D01*
D15*
X10561Y6570D02*
X10682Y6449D01*
X10713Y6468D02*
X10585Y6595D01*
X10613Y6625D02*
X10748Y6489D01*
X10805Y6511D02*
X10668Y6648D01*
X10685Y6667D02*
X10819Y6533D01*
X10840Y6552D02*
X10669Y6723D01*
X10671Y6755D02*
X10855Y6571D01*
X10902Y6449D02*
X11958D01*
X10905D02*
X10682D01*
X11954Y6448D02*
X12121D01*
X10613Y6625D02*
X10236D01*
X10563Y6648D02*
X10668D01*
X11844Y6511D02*
X12041D01*
X11681Y6468D02*
X10896D01*
X11568Y6541D02*
X11766D01*
X11405Y6489D02*
X10893D01*
X10891Y6511D02*
X11326D01*
X11289Y6533D02*
X10885D01*
X10561Y6570D02*
X10121D01*
X10713Y6468D02*
X10902D01*
X10585Y6595D02*
X10176D01*
X10748Y6489D02*
X10896D01*
X10894Y6511D02*
X10805D01*
X10819Y6533D02*
X10895D01*
X10840Y6552D02*
X11249D01*
X11208Y6571D02*
X10855D01*
X11205Y6571D02*
X11371D01*
X11412Y6552D02*
X11248D01*
X11287Y6533D02*
X11451D01*
X11489Y6510D02*
X11326D01*
X11396Y6489D02*
X11568D01*
X11679Y6467D02*
X11844D01*
X10685Y6667D02*
X10610D01*
X10595Y6723D02*
X10669D01*
X10671Y6755D02*
X10649D01*
X12103Y6881D02*
X12358D01*
X11412Y6647D02*
Y6553D01*
X11412Y6552D02*
Y6573D01*
X11371Y6572D02*
Y6626D01*
X11371Y6587D02*
Y6571D01*
X11489Y6512D02*
Y6646D01*
X11452D02*
Y6534D01*
X11568Y6541D02*
Y6544D01*
Y6490D02*
Y6645D01*
X11451Y6639D02*
Y6533D01*
X11489Y6550D02*
Y6510D01*
X11568Y6516D02*
Y6489D01*
X11766Y6541D02*
Y6593D01*
X11844Y6574D02*
Y6469D01*
X11844Y6467D02*
Y6522D01*
X12041Y6511D02*
Y6581D01*
X12121Y6517D02*
Y6450D01*
X12121Y6448D02*
Y6553D01*
X12358Y6641D02*
Y6881D01*
D16*
X7504Y6958D02*
X7503D01*
D17*
X8727Y9849D02*
X8869Y9992D01*
X7605Y7275D02*
X7423Y7093D01*
X7401Y7104D02*
X7610Y7313D01*
X7612Y7352D02*
X7377Y7117D01*
X8638Y6956D02*
X8863Y6731D01*
X8931Y6755D02*
X8297Y7390D01*
X8185Y7190D02*
X8409Y6967D01*
X9352Y10031D02*
X9236Y10147D01*
X7996Y6993D02*
X8890Y6099D01*
X8916Y6129D02*
X8023Y7022D01*
X8069Y7026D02*
X8934Y6161D01*
X8692Y6072D02*
X7909Y6855D01*
X7957Y6532D02*
X8089Y6400D01*
X7924Y6371D02*
X7792Y6503D01*
X8071Y6418D02*
X8495Y5994D01*
X8709Y6570D02*
X8348Y6931D01*
X8288Y6956D02*
X8131Y7113D01*
X8370Y6956D02*
X8730Y6596D01*
X8751Y6625D02*
X8381Y6995D01*
X8055Y7427D02*
X8815Y6667D01*
X8772Y6647D02*
X8109Y7309D01*
X7828Y6881D02*
X8688Y6021D01*
X7925Y6371D02*
X7792Y6504D01*
X7991Y6919D02*
X8838Y6072D01*
X8658Y7029D02*
X8297Y7390D01*
X8043Y6371D02*
X8378Y6036D01*
X8718Y7049D02*
X8306Y7461D01*
X8906Y7049D02*
X9017Y6938D01*
X8733Y7077D02*
X8323Y7487D01*
X8928Y7077D02*
X9040Y6965D01*
X9064Y7006D02*
X8963Y7107D01*
X8747D02*
X8340Y7514D01*
X8772Y6647D02*
X10569Y6648D01*
X10621Y6667D02*
X8815Y6667D01*
X7928Y5609D02*
X13172D01*
X8919Y5850D02*
X7846D01*
X9325Y5769D02*
X12671D01*
X9345D02*
X9162D01*
X9191Y5769D02*
X9020D01*
X10003Y5810D02*
X12019D01*
X9020Y6020D02*
X8689D01*
X8688Y6021D02*
X8912D01*
X8717Y6047D02*
X9407D01*
X10797Y5974D02*
X11367D01*
X9791Y5998D02*
X9723D01*
X9791D02*
X9797D01*
X8378Y5911D02*
X8153D01*
X8355D02*
X8378D01*
X8497Y5994D02*
X8957D01*
X8497D02*
X8496D01*
X8756Y5917D02*
X8957D01*
X9404Y5912D02*
X9656D01*
X9601Y5998D02*
X9727D01*
X9733Y5998D02*
X9966D01*
X9086Y6099D02*
X8890D01*
X9114D01*
X9044Y6129D02*
X8916D01*
X8934Y6161D02*
X9070D01*
X8890Y6098D02*
X10064D01*
X10714Y6129D02*
X8916D01*
X8934Y6160D02*
X10798D01*
X10797Y6160D02*
X9236D01*
X9038Y6099D02*
X10064D01*
X10714Y6129D02*
X9097D01*
X10133D02*
X10181D01*
X9527Y6072D02*
X8838D01*
X7568Y6448D02*
X7417D01*
X7924Y6371D02*
X8042D01*
X7958Y6371D02*
X7925D01*
X7950Y6371D02*
X8043D01*
X10176Y6625D02*
X10245D01*
X10221Y6625D02*
X8802D01*
X8824Y6625D02*
X8751D01*
X12121Y6543D02*
X12317D01*
X10148Y6595D02*
X8766D01*
X8730Y6570D02*
X10119D01*
X10127Y6595D02*
X10190D01*
X10143Y6570D02*
X10111D01*
X8006Y6481D02*
X8002D01*
X7878Y6528D02*
X7714D01*
X8709Y6570D02*
X8791D01*
X8798Y6596D02*
X8730D01*
X7879Y6528D02*
X7472D01*
X7448Y6504D02*
X7792D01*
X7750Y6482D02*
X7423D01*
X10883Y6832D02*
X11090D01*
X9688Y6829D02*
X9613D01*
X8870Y6723D02*
X10600D01*
X9345Y6755D02*
X8931D01*
X8982D02*
X10666D01*
X11254Y6756D02*
X11294D01*
X7705Y6998D02*
X7503D01*
X7616Y6999D02*
X7706D01*
X7735Y6999D02*
X7775D01*
X7705Y7037D02*
X7472D01*
X9064Y7006D02*
X9183D01*
X7778Y6919D02*
X7725D01*
X8288Y6956D02*
X8370D01*
X8348Y6931D02*
X8274D01*
X7775Y6959D02*
X7694D01*
X12048Y6881D02*
X12120D01*
X9114Y6965D02*
X9040D01*
X9111Y6938D02*
X9182D01*
X9115D02*
X9017D01*
X9039Y6966D02*
X9282D01*
X7828Y6881D02*
X7696D01*
X7869Y7238D02*
X7949D01*
X7785Y7197D02*
X7702D01*
X7704Y7234D02*
X7765D01*
X7762D02*
X7733D01*
X7701Y7197D02*
X7781D01*
X8085Y7190D02*
X8185D01*
X7954Y7103D02*
X7871D01*
X7783Y7156D02*
X7700D01*
X7705Y7117D02*
X7804D01*
X7828Y7055D02*
X7909D01*
X7705Y7076D02*
X7448D01*
X8718Y7049D02*
X8906D01*
X8928Y7077D02*
X8733D01*
X8747Y7107D02*
X8963D01*
X7959Y7387D02*
X7941D01*
X7764Y7392D02*
X7738D01*
X7724Y7434D02*
X7761D01*
X8069Y7309D02*
X8070D01*
X8070Y7309D02*
X8109D01*
X7705Y7275D02*
X7628D01*
X7610Y7313D02*
X7705D01*
X7628Y7275D02*
X7605D01*
X7612Y7352D02*
X7704D01*
X7794Y7381D02*
X7825D01*
X7923Y7310D02*
X7968D01*
X7834Y7443D02*
X7805D01*
X7792Y7465D02*
X7828D01*
X7766Y7477D02*
X7738D01*
X7781Y7492D02*
X7825D01*
X7831Y7443D02*
X7858D01*
X7888D01*
X7854Y7465D02*
X7828D01*
X7868Y7442D02*
X7994D01*
X8013Y7461D02*
X8090D01*
X8306D01*
X7965Y7464D02*
X7845D01*
X7988Y7487D02*
X8104D01*
X8323D01*
X8340Y7514D02*
X7953D01*
X7877D01*
X7855Y7492D02*
X7807D01*
X7502Y7884D02*
X7462D01*
X7391Y7955D02*
X7334D01*
X7587Y7887D02*
X7660D01*
X8012Y9731D02*
X8257D01*
X8595Y9849D02*
X8727D01*
X8296Y9905D02*
X8023D01*
X8869Y9992D02*
X9037D01*
X8373Y10027D02*
X8142D01*
Y10092D02*
X8185D01*
X8142Y9997D02*
X8022D01*
X8355Y10108D02*
X8440D01*
X8338Y10092D02*
X8280D01*
X9351Y10030D02*
X9768D01*
X9729D02*
X10159D01*
X10395D01*
X11947D01*
X12149D01*
X9171Y9991D02*
X9115D01*
X9113Y9991D02*
X9246D01*
X9106Y10399D02*
X9052D01*
X7503Y6998D02*
Y6957D01*
X7401Y6478D02*
Y6464D01*
X7377Y6454D02*
Y6429D01*
X7472Y6528D02*
Y7037D01*
X7448Y7076D02*
Y6504D01*
X7423Y6482D02*
Y7093D01*
X7401Y7104D02*
Y6464D01*
X7377Y6438D02*
Y7117D01*
X7462Y7884D02*
X7391Y7955D01*
X7401Y6464D02*
X7417Y6448D01*
X7568D02*
X7602Y6414D01*
X7909Y6855D02*
Y6968D01*
X7871Y7103D02*
Y7153D01*
X7828Y7093D02*
Y7055D01*
Y6969D02*
Y6881D01*
X7846Y6041D02*
Y5850D01*
X7793Y6094D02*
Y6440D01*
X7775Y6959D02*
Y6999D01*
X7793Y6439D02*
Y6427D01*
X7778Y7250D02*
Y7365D01*
X7802Y7270D02*
Y7218D01*
X7793Y7421D02*
Y7431D01*
X7846Y7219D02*
X7783Y7156D01*
X7785Y7197D02*
X7801Y7213D01*
X7778Y7247D02*
X7765Y7234D01*
X7778Y7365D02*
X7794Y7381D01*
X7778Y7250D02*
X7762Y7234D01*
X7764Y7392D02*
X7789Y7417D01*
X7793Y7421D01*
X7819Y7287D02*
X7802Y7270D01*
Y7218D02*
X7781Y7197D01*
X7793Y7431D02*
X7805Y7443D01*
X7792Y7465D02*
X7761Y7434D01*
X7766Y7477D02*
X7781Y7492D01*
X7855Y7492D02*
X7877Y7514D01*
X7804Y7117D02*
X7828Y7093D01*
X7793Y6094D02*
X7846Y6041D01*
X7793Y6440D02*
X7751Y6482D01*
X7750D02*
X7793Y6439D01*
X7967Y6943D02*
Y6955D01*
Y7067D01*
X7996Y7061D02*
Y6993D01*
X7967Y7060D02*
Y7090D01*
X7996Y7110D02*
Y7059D01*
X8023Y7022D02*
Y7255D01*
X8053Y7043D02*
Y7042D01*
Y7043D02*
Y7044D01*
Y7266D01*
X8022Y7297D02*
Y7324D01*
X7994Y7442D02*
X8013Y7461D01*
X7988Y7487D02*
X7965Y7464D01*
X7967Y6943D02*
X7991Y6919D01*
X7967Y7090D02*
X7954Y7103D01*
X7969Y7137D02*
X7996Y7110D01*
X8023Y7255D02*
X8012Y7266D01*
X8053Y7042D02*
X8069Y7026D01*
X8053Y7266D02*
X8022Y7297D01*
Y7324D02*
X7943Y7403D01*
X7983Y6500D02*
X8002Y6481D01*
X8012Y7266D02*
X7968Y7310D01*
X8080Y7403D02*
X8055Y7427D01*
X8142Y10027D02*
Y10080D01*
Y10092D02*
Y9997D01*
X8297Y7390D02*
X8316Y7370D01*
X8341Y9727D02*
Y9782D01*
X8373Y9815D02*
Y10027D01*
X8449Y9948D02*
Y9851D01*
X8378Y6036D02*
Y5911D01*
X8341Y9782D02*
X8373Y9815D01*
X8338Y10092D02*
X8355Y10108D01*
X8598Y9853D02*
Y9663D01*
X8566Y9632D01*
X8683Y6081D02*
X8717Y6047D01*
X8689Y6020D02*
X8645Y6064D01*
X8870Y6723D02*
X8863Y6731D01*
X8957Y5917D02*
Y5889D01*
Y5917D02*
Y5994D01*
X9020Y6020D02*
Y5769D01*
X8918Y5850D02*
X8957Y5889D01*
X9039Y6966D02*
X9018Y6987D01*
X9246Y9991D02*
X9318Y10063D01*
X9407Y6028D02*
Y5914D01*
X9407Y5908D02*
Y6047D01*
X9527Y6072D02*
X9601Y5998D01*
X10064Y5906D02*
Y6098D01*
X10064Y6057D02*
Y5914D01*
Y5985D02*
Y6099D01*
X10064Y6056D02*
Y5997D01*
X9983Y5981D02*
Y5830D01*
Y5981D02*
X9966Y5998D01*
X9983Y5830D02*
X10003Y5810D01*
X10714Y6009D02*
Y6064D01*
X10714Y6129D02*
Y5913D01*
X10798Y6049D02*
Y6160D01*
X10797Y6160D02*
Y5974D01*
X10714D02*
Y6129D01*
Y6087D02*
Y5908D01*
X10798Y5988D02*
Y6064D01*
X11254Y6642D02*
Y6756D01*
Y6832D02*
Y6642D01*
X11294Y6640D02*
Y6756D01*
X11367Y5974D02*
Y5906D01*
X11334Y6644D02*
Y6879D01*
X11608Y6647D02*
Y6543D01*
X11568D02*
Y6646D01*
X11647Y6645D02*
Y6543D01*
X11685D02*
Y6648D01*
X11725Y6647D02*
Y6543D01*
X11766D02*
Y6645D01*
X12019Y5912D02*
Y5809D01*
X12002Y6514D02*
Y6646D01*
X11961Y6644D02*
Y6513D01*
X11923D02*
Y6646D01*
X11885D02*
Y6513D01*
X11844D02*
Y6647D01*
X12214Y10094D02*
Y10341D01*
X12200Y6647D02*
Y6543D01*
X12041Y6513D02*
Y6632D01*
X12121Y6543D02*
Y6482D01*
X12159Y6543D02*
Y6646D01*
X12120Y6648D02*
Y6543D01*
X12120Y6873D02*
Y6881D01*
X12150Y10030D02*
X12214Y10094D01*
X12213Y10094D02*
X12149Y10030D01*
X12238Y6646D02*
Y6543D01*
X12277D02*
Y6647D01*
X12317Y6639D02*
Y6543D01*
X12671Y5912D02*
Y5769D01*
D18*
X8347Y6931D02*
X8221D01*
X8158Y6994D01*
X11214Y8880D02*
Y8940D01*
Y8880D02*
X11244D01*
X11254Y8890D01*
Y8930D01*
X11244Y8940D01*
X11214D01*
X11274D02*
Y8880D01*
Y8900D01*
X11314Y8940D01*
X11284Y8910D01*
X11314Y8880D01*
X11334Y8910D02*
X11374D01*
X11394Y8920D02*
Y8880D01*
Y8920D02*
X11414Y8940D01*
X11434Y8920D01*
Y8880D01*
Y8910D01*
X11394D01*
X11454Y8920D02*
Y8890D01*
X11464Y8880D01*
X11494D01*
Y8920D01*
X11554Y8940D02*
Y8880D01*
X11524D01*
X11514Y8890D01*
Y8910D01*
X11524Y8920D01*
X11554D01*
X11574Y8880D02*
X11594D01*
X11584D01*
Y8920D01*
X11574D01*
X11584Y8940D02*
X11585D01*
X11634Y8880D02*
X11654D01*
X11664Y8890D01*
Y8910D01*
X11654Y8920D01*
X11634D01*
X11624Y8910D01*
Y8890D01*
X11634Y8880D01*
X11744Y8930D02*
X11754Y8940D01*
X11774D01*
X11784Y8930D01*
Y8890D01*
X11774Y8880D01*
X11754D01*
X11744Y8890D01*
Y8930D01*
X11804D02*
X11814Y8940D01*
X11834D01*
X11844Y8930D01*
Y8920D01*
X11834Y8910D01*
X11844Y8900D01*
Y8890D01*
X11834Y8880D01*
X11814D01*
X11804Y8890D01*
Y8900D01*
X11814Y8910D01*
X11804Y8920D01*
Y8930D01*
X11814Y8910D02*
X11834D01*
X11864Y8930D02*
X11874Y8940D01*
X11894D01*
X11904Y8930D01*
Y8890D01*
X11894Y8880D01*
X11874D01*
X11864Y8890D01*
Y8930D01*
X11924Y8880D02*
X11944D01*
X11934D01*
Y8940D01*
X11935D01*
X11934D02*
X11924Y8930D01*
X11974Y8880D02*
X12014D01*
X11974D02*
X12014Y8920D01*
Y8930D01*
X12004Y8940D01*
X11984D01*
X11974Y8930D01*
X12034D02*
X12044Y8940D01*
X12064D01*
X12074Y8930D01*
Y8890D01*
X12064Y8880D01*
X12044D01*
X12034Y8890D01*
Y8930D01*
X12094D02*
X12104Y8940D01*
X12124D01*
X12134Y8930D01*
Y8890D01*
X12124Y8880D01*
X12104D01*
X12094Y8890D01*
Y8930D01*
X12184Y8940D02*
Y8880D01*
X12154Y8910D02*
X12184Y8940D01*
X12194Y8910D02*
X12154D01*
D19*
X13118Y5610D02*
X8214D01*
X8119D02*
X7929D01*
Y5711D02*
X7482D01*
X7453Y5712D02*
X7640D01*
X10159Y7196D02*
X10399D01*
X10157Y7422D02*
X9908D01*
X10393Y7452D02*
X10472D01*
X9908Y8484D02*
X7267D01*
X7257Y8483D02*
X7995D01*
X8046Y8759D02*
X6662D01*
X6632Y9301D02*
X7134D01*
X6823Y9512D02*
X6759D01*
X7219Y9459D02*
X7295D01*
X6660Y9754D02*
X6605D01*
Y9557D01*
X6662Y8759D02*
Y8499D01*
X6602Y9332D02*
Y9468D01*
X6632Y9498D01*
X6633Y9529D02*
X6605Y9557D01*
X6602Y9332D02*
X6632Y9301D01*
X7134D02*
Y9389D01*
X7018Y9404D02*
Y9432D01*
X7025Y9436D02*
Y9417D01*
X7018Y9432D02*
X7082Y9496D01*
X7210Y9511D02*
Y9468D01*
X7295Y9459D02*
X7363Y9527D01*
X7219Y9459D02*
X7210Y9468D01*
X7453Y6013D02*
Y5712D01*
X7929Y5711D02*
Y5610D01*
X9908Y7422D02*
Y8484D01*
X10472Y7598D02*
Y7452D01*
X11534Y6880D02*
Y6645D01*
X11806Y6652D02*
Y6880D01*
X12079Y6882D02*
Y6643D01*
D22*
X7265Y8067D02*
X7223Y8025D01*
X8965Y8921D02*
X9010Y8967D01*
X8958Y9013D02*
X8922Y8976D01*
X7363Y9527D02*
X7326Y9490D01*
X8283Y9534D02*
X8525Y9777D01*
X7917Y9804D02*
X7844Y9731D01*
X6699Y9460D02*
X6662Y9422D01*
X6782Y9399D02*
X6834Y9451D01*
X6903Y9407D02*
X7021Y9525D01*
X8975Y6886D02*
X8982Y6879D01*
X8975Y6886D02*
X8867Y6994D01*
X8518Y9214D02*
X8459Y9273D01*
X8345Y9029D02*
X8452Y8921D01*
X8497Y8976D02*
X8460Y9014D01*
X8459Y9431D02*
X8319Y9571D01*
X7361Y9456D02*
X7326Y9490D01*
X7890Y9932D02*
X7917Y9906D01*
X6927Y9718D02*
X6892Y9752D01*
X8852Y6918D02*
X8934Y6836D01*
X8525Y10076D02*
X8525Y10398D01*
X12114D02*
X12114Y10341D01*
Y10340D02*
X12114Y10398D01*
X12095Y6879D02*
X8982Y6879D01*
X11039Y6836D02*
X11254D01*
X11090D02*
X8934D01*
X12079Y6879D02*
X12329D01*
X10483Y8761D02*
X7361D01*
X7361Y8761D02*
X6659D01*
X8497Y8976D02*
X8922D01*
X8965Y8921D02*
X8452D01*
X8345Y9029D02*
X7839D01*
X8347Y9136D02*
X8458D01*
X8355Y9134D02*
X8210D01*
X8059D01*
X8352Y9273D02*
X8459D01*
X8348Y9335D02*
X8058D01*
X7873Y9243D02*
X7737D01*
X8121Y9271D02*
X8215D01*
X8121Y9237D02*
X8058D01*
X7590Y9527D02*
X7363D01*
X8026Y9534D02*
X8283D01*
X6815Y9752D02*
X6742D01*
X6892D01*
X8159Y9632D02*
X8264D01*
X7592Y9629D02*
X7467D01*
X7782Y9932D02*
X7890D01*
X7442Y9941D02*
X7325D01*
X7441Y9939D02*
X7163D01*
X8018Y9904D02*
X8294D01*
X8032Y9906D02*
X7917D01*
X8599Y10063D02*
X8672D01*
X8636D02*
X8599D01*
X8583Y9986D02*
X8525D01*
X8599Y10341D02*
X12013D01*
X12114Y10398D02*
X8525D01*
X6660Y8762D02*
Y8490D01*
X6662Y9391D02*
Y9422D01*
X6699Y9460D02*
Y9518D01*
X6677Y9432D02*
Y9421D01*
X6927Y9712D02*
Y9718D01*
X6926Y9716D02*
Y9541D01*
X6815Y9752D02*
Y9939D01*
X7021Y9606D02*
Y9525D01*
X7325Y9635D02*
Y9941D01*
X7223Y8025D02*
Y8024D01*
X7224Y8026D02*
Y7973D01*
X7224Y8021D02*
Y7173D01*
X7361Y8761D02*
Y9456D01*
X7590Y9527D02*
Y9630D01*
X7917Y9804D02*
Y9906D01*
X7844Y9731D02*
Y9627D01*
X7806Y9391D02*
Y9109D01*
X8026Y9534D02*
Y9634D01*
X8010Y9651D02*
Y9814D01*
X8121Y9271D02*
Y9237D01*
X8459Y9294D02*
Y9431D01*
X8460Y9136D02*
Y9014D01*
X8348Y9269D02*
Y9335D01*
X8459Y9306D02*
Y9273D01*
X8672Y9991D02*
Y10063D01*
Y9984D01*
X8599Y10063D02*
Y10341D01*
X8518Y9214D02*
Y9055D01*
X8525Y9777D02*
Y10114D01*
X8958Y9054D02*
Y9013D01*
X10483Y8761D02*
Y7445D01*
D23*
X6901Y9518D02*
X6816Y9433D01*
X6901Y9518D02*
X6926Y9543D01*
X7021Y9618D02*
X7151D01*
X6831Y9623D02*
X6696D01*
X7151Y9618D02*
Y9583D01*
D24*
X10798Y6064D02*
D03*
X10714D02*
D03*
X10064Y6056D02*
D03*
X9656Y5912D02*
D03*
X9183Y7006D02*
D03*
X9182Y6938D02*
D03*
X9282Y6966D02*
D03*
X8958Y9054D02*
D03*
X9010Y8967D02*
D03*
X8852Y6918D02*
D03*
X8867Y6994D02*
D03*
X8599Y10063D02*
D03*
X8638Y6956D02*
D03*
X8566Y9632D02*
D03*
X8518Y9055D02*
D03*
X8458Y9136D02*
D03*
X8264Y9632D02*
D03*
X8297Y7390D02*
D03*
X8131Y7113D02*
D03*
X8159Y6994D02*
D03*
X8055Y7427D02*
D03*
X8070Y7309D02*
D03*
X8086Y7190D02*
D03*
X7991Y6919D02*
D03*
X7778D02*
D03*
X7660Y7887D02*
D03*
X7602Y6414D02*
D03*
X7363Y9527D02*
D03*
X7334Y7955D02*
D03*
X7454Y6012D02*
D03*
X7377Y6429D02*
D03*
X7503Y6958D02*
D03*
X7223Y7174D02*
D03*
X7265Y8067D02*
D03*
X6823Y9512D02*
D03*
D29*
X12314Y10341D02*
D03*
X12214D02*
D03*
X12114D02*
D03*
X12014D02*
D03*
X9239Y10144D02*
D03*
D31*
X7149Y9653D02*
Y9588D01*
X6699D02*
Y9653D01*
D34*
X13185Y9943D02*
D03*
Y6183D02*
D03*
X7949Y8124D02*
D03*
Y6183D02*
D03*
D36*
X12318Y6645D02*
D03*
X12278D02*
D03*
X12239D02*
D03*
X12200D02*
D03*
X12160D02*
D03*
X12121D02*
D03*
X12081D02*
D03*
X12042D02*
D03*
X12003D02*
D03*
X11963D02*
D03*
X11924D02*
D03*
X11885D02*
D03*
X11845D02*
D03*
X11806D02*
D03*
X12357D02*
D03*
X11766D02*
D03*
X11727D02*
D03*
X11688D02*
D03*
X11648D02*
D03*
X11609D02*
D03*
X11569D02*
D03*
X11530D02*
D03*
X11491D02*
D03*
X11451D02*
D03*
X11412D02*
D03*
X11373D02*
D03*
X11333D02*
D03*
X11294D02*
D03*
X11254D02*
D03*
X11215D02*
D03*
D39*
X7209Y9513D02*
D03*
X7089D02*
D03*
X6639D02*
D03*
X6759D02*
D03*
D40*
X7149Y9583D02*
D03*
X6699D02*
D03*
D43*
X8200Y10091D02*
D03*
X8280D02*
D03*
X8260Y9731D02*
D03*
X8340D02*
D03*
X6660Y9751D02*
D03*
X6740D02*
D03*
D45*
X9028Y9991D02*
D03*
X9114D02*
D03*
X8671Y9987D02*
D03*
X8585D02*
D03*
X7923Y7313D02*
D03*
X7837D02*
D03*
X7923Y7393D02*
D03*
X7837D02*
D03*
X7501Y7884D02*
D03*
X7587D02*
D03*
X7963Y6523D02*
D03*
X7877D02*
D03*
D47*
X6662Y8491D02*
D03*
X7256D02*
D03*
D48*
Y9390D02*
D03*
X7134D02*
D03*
X7016D02*
D03*
X6898D02*
D03*
X6780D02*
D03*
X6662D02*
D03*
D49*
X8058Y9136D02*
D03*
Y9236D02*
D03*
Y9336D02*
D03*
D50*
X7808Y9236D02*
D03*
D51*
X7610Y7468D02*
D03*
Y6883D02*
D03*
D55*
X7949Y7237D02*
D03*
Y7151D02*
D03*
X7869Y7237D02*
D03*
Y7151D02*
D03*
X7909Y6969D02*
D03*
Y7055D02*
D03*
X7829Y6969D02*
D03*
Y7055D02*
D03*
D58*
X12414Y10341D02*
D03*
D59*
X6833Y9618D02*
D03*
X7021D02*
D03*
D63*
X8600Y9851D02*
D03*
X8450D02*
D03*
X8440Y9951D02*
D03*
Y10101D02*
D03*
D64*
X10729Y7452D02*
D03*
Y7196D02*
D03*
X10394Y7452D02*
D03*
Y7196D02*
D03*
D67*
X7704Y7313D02*
D03*
Y7273D02*
D03*
Y7234D02*
D03*
Y7195D02*
D03*
Y7155D02*
D03*
Y7116D02*
D03*
Y7076D02*
D03*
Y7037D02*
D03*
Y6998D02*
D03*
Y6958D02*
D03*
Y6919D02*
D03*
Y6880D02*
D03*
Y6840D02*
D03*
Y6801D02*
D03*
Y6761D02*
D03*
Y7352D02*
D03*
Y7550D02*
D03*
Y7510D02*
D03*
Y7471D02*
D03*
Y7432D02*
D03*
Y7392D02*
D03*
Y7353D02*
D03*
Y7313D02*
D03*
Y7274D02*
D03*
Y7235D02*
D03*
Y7195D02*
D03*
Y7156D02*
D03*
Y7117D02*
D03*
Y7077D02*
D03*
Y7038D02*
D03*
Y6998D02*
D03*
Y7589D02*
D03*
D68*
X7326Y9631D02*
D03*
X7465D02*
D03*
X8026D02*
D03*
X8165D02*
D03*
D69*
X8207Y9271D02*
D03*
Y9136D02*
D03*
X8348Y9271D02*
D03*
Y9136D02*
D03*
D73*
X8020Y9902D02*
D03*
Y9992D02*
D03*
Y9811D02*
D03*
D74*
X10157Y7425D02*
D03*
D75*
X8288Y9902D02*
D03*
D76*
X7610Y6646D02*
D03*
Y7705D02*
D03*
D77*
X10157Y7202D02*
D03*
D78*
X7840Y9631D02*
D03*
X7590D02*
D03*
D85*
X12473Y6739D02*
D03*
X11099Y6739D02*
D03*
D86*
X7783Y9934D02*
D03*
X7440D02*
D03*
X7163D02*
D03*
X6820D02*
D03*
D89*
X12070Y5912D02*
D03*
X12470D02*
D03*
X12070Y5612D02*
D03*
X12470D02*
D03*
X12723Y5912D02*
D03*
X13123D02*
D03*
X12723Y5612D02*
D03*
X13123D02*
D03*
X10763Y5912D02*
D03*
X11163D02*
D03*
X10763Y5612D02*
D03*
X11163D02*
D03*
X11416Y5912D02*
D03*
X11816D02*
D03*
X11416Y5612D02*
D03*
X11816D02*
D03*
X8802Y5912D02*
D03*
X9202D02*
D03*
X8802Y5612D02*
D03*
X9202D02*
D03*
X9456Y5912D02*
D03*
X9856D02*
D03*
X9456Y5612D02*
D03*
X9856D02*
D03*
X10109Y5912D02*
D03*
X10509D02*
D03*
X10109Y5612D02*
D03*
X10509D02*
D03*
X8149Y5912D02*
D03*
X8549D02*
D03*
X8149Y5612D02*
D03*
X8549D02*
D03*
M02*
