*%FSLAX23Y23*%
*%MOIN*%
G01*
D29*
X12314Y10341D02*
D03*
X12214D02*
D03*
X12114D02*
D03*
X12014D02*
D03*
X9239Y10144D02*
D03*
D31*
X7149Y9653D02*
Y9588D01*
X6699D02*
Y9653D01*
D34*
X13185Y9943D02*
D03*
Y6183D02*
D03*
X7949Y8124D02*
D03*
Y6183D02*
D03*
D36*
X12318Y6645D02*
D03*
X12278D02*
D03*
X12239D02*
D03*
X12200D02*
D03*
X12160D02*
D03*
X12121D02*
D03*
X12081D02*
D03*
X12042D02*
D03*
X12003D02*
D03*
X11963D02*
D03*
X11924D02*
D03*
X11885D02*
D03*
X11845D02*
D03*
X11806D02*
D03*
X12357D02*
D03*
X11766D02*
D03*
X11727D02*
D03*
X11688D02*
D03*
X11648D02*
D03*
X11609D02*
D03*
X11569D02*
D03*
X11530D02*
D03*
X11491D02*
D03*
X11451D02*
D03*
X11412D02*
D03*
X11373D02*
D03*
X11333D02*
D03*
X11294D02*
D03*
X11254D02*
D03*
X11215D02*
D03*
D39*
X7209Y9513D02*
D03*
X7089D02*
D03*
X6639D02*
D03*
X6759D02*
D03*
D40*
X7149Y9583D02*
D03*
X6699D02*
D03*
D43*
X8200Y10091D02*
D03*
X8280D02*
D03*
X8260Y9731D02*
D03*
X8340D02*
D03*
X6660Y9751D02*
D03*
X6740D02*
D03*
D45*
X9028Y9991D02*
D03*
X9114D02*
D03*
X8671Y9987D02*
D03*
X8585D02*
D03*
X7923Y7313D02*
D03*
X7837D02*
D03*
X7923Y7393D02*
D03*
X7837D02*
D03*
X7501Y7884D02*
D03*
X7587D02*
D03*
X7963Y6523D02*
D03*
X7877D02*
D03*
D47*
X6662Y8491D02*
D03*
X7256D02*
D03*
D48*
Y9390D02*
D03*
X7134D02*
D03*
X7016D02*
D03*
X6898D02*
D03*
X6780D02*
D03*
X6662D02*
D03*
D49*
X8058Y9136D02*
D03*
Y9236D02*
D03*
Y9336D02*
D03*
D50*
X7808Y9236D02*
D03*
D51*
X7610Y7468D02*
D03*
Y6883D02*
D03*
D55*
X7949Y7237D02*
D03*
Y7151D02*
D03*
X7869Y7237D02*
D03*
Y7151D02*
D03*
X7909Y6969D02*
D03*
Y7055D02*
D03*
X7829Y6969D02*
D03*
Y7055D02*
D03*
D58*
X12414Y10341D02*
D03*
D59*
X6833Y9618D02*
D03*
X7021D02*
D03*
D63*
X8600Y9851D02*
D03*
X8450D02*
D03*
X8440Y9951D02*
D03*
Y10101D02*
D03*
D64*
X10729Y7452D02*
D03*
Y7196D02*
D03*
X10394Y7452D02*
D03*
Y7196D02*
D03*
D67*
X7704Y7313D02*
D03*
Y7273D02*
D03*
Y7234D02*
D03*
Y7195D02*
D03*
Y7155D02*
D03*
Y7116D02*
D03*
Y7076D02*
D03*
Y7037D02*
D03*
Y6998D02*
D03*
Y6958D02*
D03*
Y6919D02*
D03*
Y6880D02*
D03*
Y6840D02*
D03*
Y6801D02*
D03*
Y6761D02*
D03*
Y7352D02*
D03*
Y7550D02*
D03*
Y7510D02*
D03*
Y7471D02*
D03*
Y7432D02*
D03*
Y7392D02*
D03*
Y7353D02*
D03*
Y7313D02*
D03*
Y7274D02*
D03*
Y7235D02*
D03*
Y7195D02*
D03*
Y7156D02*
D03*
Y7117D02*
D03*
Y7077D02*
D03*
Y7038D02*
D03*
Y6998D02*
D03*
Y7589D02*
D03*
D68*
X7326Y9631D02*
D03*
X7465D02*
D03*
X8026D02*
D03*
X8165D02*
D03*
D69*
X8207Y9271D02*
D03*
Y9136D02*
D03*
X8348Y9271D02*
D03*
Y9136D02*
D03*
D73*
X8020Y9902D02*
D03*
Y9992D02*
D03*
Y9811D02*
D03*
D74*
X10157Y7425D02*
D03*
D75*
X8288Y9902D02*
D03*
D76*
X7610Y6646D02*
D03*
Y7705D02*
D03*
D77*
X10157Y7202D02*
D03*
D78*
X7840Y9631D02*
D03*
X7590D02*
D03*
D85*
X12473Y6739D02*
D03*
X11099Y6739D02*
D03*
D86*
X7783Y9934D02*
D03*
X7440D02*
D03*
X7163D02*
D03*
X6820D02*
D03*
D89*
X12070Y5912D02*
D03*
X12470D02*
D03*
X12070Y5612D02*
D03*
X12470D02*
D03*
X12723Y5912D02*
D03*
X13123D02*
D03*
X12723Y5612D02*
D03*
X13123D02*
D03*
X10763Y5912D02*
D03*
X11163D02*
D03*
X10763Y5612D02*
D03*
X11163D02*
D03*
X11416Y5912D02*
D03*
X11816D02*
D03*
X11416Y5612D02*
D03*
X11816D02*
D03*
X8802Y5912D02*
D03*
X9202D02*
D03*
X8802Y5612D02*
D03*
X9202D02*
D03*
X9456Y5912D02*
D03*
X9856D02*
D03*
X9456Y5612D02*
D03*
X9856D02*
D03*
X10109Y5912D02*
D03*
X10509D02*
D03*
X10109Y5612D02*
D03*
X10509D02*
D03*
X8149Y5912D02*
D03*
X8549D02*
D03*
X8149Y5612D02*
D03*
X8549D02*
D03*
M02*
