*%FSLAX23Y23*%
*%MOIN*%
G01*
D25*
X10798Y6064D02*
D03*
X10714D02*
D03*
X10064Y6056D02*
D03*
X9656Y5912D02*
D03*
X9183Y7006D02*
D03*
X9182Y6938D02*
D03*
X9282Y6966D02*
D03*
X8958Y9054D02*
D03*
X9010Y8967D02*
D03*
X8852Y6918D02*
D03*
X8867Y6994D02*
D03*
X8599Y10063D02*
D03*
X8638Y6956D02*
D03*
X8566Y9632D02*
D03*
X8518Y9055D02*
D03*
X8458Y9136D02*
D03*
X8264Y9632D02*
D03*
X8297Y7390D02*
D03*
X8131Y7113D02*
D03*
X8159Y6994D02*
D03*
X8055Y7427D02*
D03*
X8070Y7309D02*
D03*
X8086Y7190D02*
D03*
X7991Y6919D02*
D03*
X7778D02*
D03*
X7660Y7887D02*
D03*
X7602Y6414D02*
D03*
X7363Y9527D02*
D03*
X7334Y7955D02*
D03*
X7454Y6012D02*
D03*
X7377Y6429D02*
D03*
X7503Y6958D02*
D03*
X7223Y7174D02*
D03*
X7265Y8067D02*
D03*
X6823Y9512D02*
D03*
D30*
X12314Y10341D02*
D03*
X12214D02*
D03*
X12114D02*
D03*
X12014D02*
D03*
X9239Y10144D02*
D03*
D35*
X13185Y9943D02*
D03*
Y6183D02*
D03*
X7949Y8124D02*
D03*
Y6183D02*
D03*
D61*
X12414Y10341D02*
D03*
D70*
X7428Y7097D02*
D03*
Y7688D02*
D03*
Y7648D02*
D03*
Y7609D02*
D03*
Y7569D02*
D03*
Y7530D02*
D03*
Y7491D02*
D03*
Y7451D02*
D03*
Y7412D02*
D03*
Y7373D02*
D03*
Y7333D02*
D03*
Y7294D02*
D03*
Y7254D02*
D03*
Y7215D02*
D03*
Y7176D02*
D03*
Y7136D02*
D03*
D82*
X7334Y7803D02*
D03*
Y6981D02*
D03*
D90*
X12070Y5912D02*
D03*
X12470D02*
D03*
X12070Y5612D02*
D03*
X12470D02*
D03*
X12723Y5912D02*
D03*
X13123D02*
D03*
X12723Y5612D02*
D03*
X13123D02*
D03*
X10763Y5912D02*
D03*
X11163D02*
D03*
X10763Y5612D02*
D03*
X11163D02*
D03*
X11416Y5912D02*
D03*
X11816D02*
D03*
X11416Y5612D02*
D03*
X11816D02*
D03*
X8802Y5912D02*
D03*
X9202D02*
D03*
X8802Y5612D02*
D03*
X9202D02*
D03*
X9456Y5912D02*
D03*
X9856D02*
D03*
X9456Y5612D02*
D03*
X9856D02*
D03*
X10109Y5912D02*
D03*
X10509D02*
D03*
X10109Y5612D02*
D03*
X10509D02*
D03*
X8149Y5912D02*
D03*
X8549D02*
D03*
X8149Y5612D02*
D03*
X8549D02*
D03*
M02*
