  0
SECTION
  2
HEADER
  9
$ACADVER
  1
AC1015
  9
$ACADMAINTVER
 70
     6
  9
$DWGCODEPAGE
  3
ANSI_1252
  9
$INSBASE
 10
0.0
 20
0.0
 30
0.0
  9
$EXTMIN
 10
0.0
 20
0.0
 30
0.0
  9
$EXTMAX
 10
841.0
 20
594.0
 30
0.0
  9
$LIMMIN
 10
0.0
 20
0.0
  9
$LIMMAX
 10
841.0
 20
594.0
  9
$ORTHOMODE
 70
     0
  9
$REGENMODE
 70
     1
  9
$FILLMODE
 70
     1
  9
$QTEXTMODE
 70
     0
  9
$MIRRTEXT
 70
     1
  9
$LTSCALE
 40
1.0
  9
$ATTMODE
 70
     1
  9
$TEXTSIZE
 40
0.2
  9
$TRACEWID
 40
0.05
  9
$TEXTSTYLE
  7
Standard
  9
$CLAYER
  8
0
  9
$CELTYPE
  6
ByLayer
  9
$CECOLOR
 62
   256
  9
$CELTSCALE
 40
25.4
  9
$DISPSILH
 70
     0
  9
$DIMSCALE
 40
1.0
  9
$DIMASZ
 40
0.18
  9
$DIMEXO
 40
0.0625
  9
$DIMDLI
 40
0.38
  9
$DIMRND
 40
0.0
  9
$DIMDLE
 40
0.0
  9
$DIMEXE
 40
0.18
  9
$DIMTP
 40
0.0
  9
$DIMTM
 40
0.0
  9
$DIMTXT
 40
0.18
  9
$DIMCEN
 40
0.09
  9
$DIMTSZ
 40
0.0
  9
$DIMTOL
 70
     0
  9
$DIMLIM
 70
     0
  9
$DIMTIH
 70
     1
  9
$DIMTOH
 70
     1
  9
$DIMSE1
 70
     0
  9
$DIMSE2
 70
     0
  9
$DIMTAD
 70
     0
  9
$DIMZIN
 70
     0
  9
$DIMBLK
  1

  9
$DIMASO
 70
     1
  9
$DIMSHO
 70
     1
  9
$DIMPOST
  1

  9
$DIMAPOST
  1

  9
$DIMALT
 70
     0
  9
$DIMALTD
 70
     2
  9
$DIMALTF
 40
25.4
  9
$DIMLFAC
 40
1.0
  9
$DIMTOFL
 70
     0
  9
$DIMTVP
 40
0.0
  9
$DIMTIX
 70
     0
  9
$DIMSOXD
 70
     0
  9
$DIMSAH
 70
     0
  9
$DIMBLK1
  1

  9
$DIMBLK2
  1

  9
$DIMSTYLE
  2
Standard
  9
$DIMCLRD
 70
     0
  9
$DIMCLRE
 70
     0
  9
$DIMCLRT
 70
     0
  9
$DIMTFAC
 40
1.0
  9
$DIMGAP
 40
0.09
  9
$DIMJUST
 70
     0
  9
$DIMSD1
 70
     0
  9
$DIMSD2
 70
     0
  9
$DIMTOLJ
 70
     1
  9
$DIMTZIN
 70
     0
  9
$DIMALTZ
 70
     0
  9
$DIMALTTZ
 70
     0
  9
$DIMUPT
 70
     0
  9
$DIMDEC
 70
     4
  9
$DIMTDEC
 70
     4
  9
$DIMALTU
 70
     2
  9
$DIMALTTD
 70
     2
  9
$DIMTXSTY
  7
Standard
  9
$DIMAUNIT
 70
     0
  9
$DIMADEC
 70
     0
  9
$DIMALTRND
 40
0.0
  9
$DIMAZIN
 70
     0
  9
$DIMDSEP
 70
    46
  9
$DIMATFIT
 70
     3
  9
$DIMFRAC
 70
     0
  9
$DIMLDRBLK
  1

  9
$DIMLUNIT
 70
     2
  9
$DIMLWD
 70
    -2
  9
$DIMLWE
 70
    -2
  9
$DIMTMOVE
 70
     0
  9
$LUNITS
 70
     2
  9
$LUPREC
 70
     4
  9
$SKETCHINC
 40
0.1
  9
$FILLETRAD
 40
0.5
  9
$AUNITS
 70
     0
  9
$AUPREC
 70
     0
  9
$MENU
  1
.
  9
$ELEVATION
 40
0.0
  9
$PELEVATION
 40
0.0
  9
$THICKNESS
 40
0.0
  9
$LIMCHECK
 70
     0
  9
$CHAMFERA
 40
0.5
  9
$CHAMFERB
 40
0.5
  9
$CHAMFERC
 40
1.0
  9
$CHAMFERD
 40
0.0
  9
$SKPOLY
 70
     0
  9
$TDCREATE
 40
2454413.39551721
  9
$TDUCREATE
 40
2454413.353850544
  9
$TDUPDATE
 40
2454413.395517222
  9
$TDUUPDATE
 40
2454413.353850556
  9
$TDINDWG
 40
0.0000000116
  9
$TDUSRTIMER
 40
0.0000000116
  9
$USRTIMER
 70
     1
  9
$ANGBASE
 50
0.0
  9
$ANGDIR
 70
     0
  9
$PDMODE
 70
     0
  9
$PDSIZE
 40
0.0
  9
$PLINEWID
 40
0.0
  9
$SPLFRAME
 70
     0
  9
$SPLINETYPE
 70
     6
  9
$SPLINESEGS
 70
     8
  9
$HANDSEED
  5
2BD
  9
$SURFTAB1
 70
     6
  9
$SURFTAB2
 70
     6
  9
$SURFTYPE
 70
     6
  9
$SURFU
 70
     6
  9
$SURFV
 70
     6
  9
$UCSBASE
  2

  9
$UCSNAME
  2

  9
$UCSORG
 10
0.0
 20
0.0
 30
0.0
  9
$UCSXDIR
 10
1.0
 20
0.0
 30
0.0
  9
$UCSYDIR
 10
0.0
 20
1.0
 30
0.0
  9
$UCSORTHOREF
  2

  9
$UCSORTHOVIEW
 70
     0
  9
$UCSORGTOP
 10
0.0
 20
0.0
 30
0.0
  9
$UCSORGBOTTOM
 10
0.0
 20
0.0
 30
0.0
  9
$UCSORGLEFT
 10
0.0
 20
0.0
 30
0.0
  9
$UCSORGRIGHT
 10
0.0
 20
0.0
 30
0.0
  9
$UCSORGFRONT
 10
0.0
 20
0.0
 30
0.0
  9
$UCSORGBACK
 10
0.0
 20
0.0
 30
0.0
  9
$PUCSBASE
  2

  9
$PUCSNAME
  2

  9
$PUCSORG
 10
0.0
 20
0.0
 30
0.0
  9
$PUCSXDIR
 10
1.0
 20
0.0
 30
0.0
  9
$PUCSYDIR
 10
0.0
 20
1.0
 30
0.0
  9
$PUCSORTHOREF
  2

  9
$PUCSORTHOVIEW
 70
     0
  9
$PUCSORGTOP
 10
0.0
 20
0.0
 30
0.0
  9
$PUCSORGBOTTOM
 10
0.0
 20
0.0
 30
0.0
  9
$PUCSORGLEFT
 10
0.0
 20
0.0
 30
0.0
  9
$PUCSORGRIGHT
 10
0.0
 20
0.0
 30
0.0
  9
$PUCSORGFRONT
 10
0.0
 20
0.0
 30
0.0
  9
$PUCSORGBACK
 10
0.0
 20
0.0
 30
0.0
  9
$USERI1
 70
     0
  9
$USERI2
 70
     0
  9
$USERI3
 70
     0
  9
$USERI4
 70
     0
  9
$USERI5
 70
     0
  9
$USERR1
 40
0.0
  9
$USERR2
 40
0.0
  9
$USERR3
 40
0.0
  9
$USERR4
 40
0.0
  9
$USERR5
 40
0.0
  9
$WORLDVIEW
 70
     1
  9
$SHADEDGE
 70
     3
  9
$SHADEDIF
 70
    70
  9
$TILEMODE
 70
     1
  9
$MAXACTVP
 70
    64
  9
$PINSBASE
 10
0.0
 20
0.0
 30
0.0
  9
$PLIMCHECK
 70
     0
  9
$PEXTMIN
 10
0.0
 20
0.0
 30
0.0
  9
$PEXTMAX
 10
841.0
 20
594.0
 30
0.0
  9
$PLIMMIN
 10
0.0
 20
0.0
  9
$PLIMMAX
 10
841.0
 20
594.0
  9
$UNITMODE
 70
     0
  9
$VISRETAIN
 70
     1
  9
$PLINEGEN
 70
     0
  9
$PSLTSCALE
 70
     1
  9
$TREEDEPTH
 70
  3020
  9
$CMLSTYLE
  2
Standard
  9
$CMLJUST
 70
     0
  9
$CMLSCALE
 40
1.0
  9
$PROXYGRAPHICS
 70
     1
  9
$MEASUREMENT
 70
     1
  9
$CELWEIGHT
370
    -1
  9
$ENDCAPS
280
     0
  9
$JOINSTYLE
280
     0
  9
$LWDISPLAY
290
     0
  9
$INSUNITS
 70
     1
  9
$HYPERLINKBASE
  1

  9
$STYLESHEET
  1

  9
$XEDIT
290
     1
  9
$CEPSNTYPE
380
     0
  9
$PSTYLEMODE
290
     1
  9
$FINGERPRINTGUID
  2
{2A24F571-4D01-4159-B274-63DE9CBB7088}
  9
$VERSIONGUID
  2
{FAEB1C32-E019-11D5-929B-00C0DF256EC4}
  9
$EXTNAMES
290
     1
  9
$PSVPSCALE
 40
0.0
  9
$OLESTARTUP
290
     0
  0
ENDSEC
  0
SECTION
  2
CLASSES
  0
CLASS
  1
ACDBDICTIONARYWDFLT
  2
AcDbDictionaryWithDefault
  3
ObjectDBX Classes
 90
        0
280
     0
281
     0
  0
CLASS
  1
ACDBPLACEHOLDER
  2
AcDbPlaceHolder
  3
ObjectDBX Classes
 90
        0
280
     0
281
     0
  0
CLASS
  1
LAYOUT
  2
AcDbLayout
  3
ObjectDBX Classes
 90
        0
280
     0
281
     0
  0
ENDSEC
  0
SECTION
  2
TABLES
  0
TABLE
  2
VPORT
  5
8
330
0
100
AcDbSymbolTable
 70
     1
  0
VPORT
  5
29
330
8
100
AcDbSymbolTableRecord
100
AcDbViewportTableRecord
  2
*Active
 70
     0
 10
0.0
 20
0.0
 11
1.0
 21
1.0
 12
10.4299065421
 22
4.5
 13
0.0
 23
0.0
 14
0.5
 24
0.5
 15
0.5
 25
0.5
 16
0.0
 26
0.0
 36
1.0
 17
0.0
 27
0.0
 37
0.0
 40
9.0
 41
1.9729729729
 42
50.0
 43
0.0
 44
0.0
 50
0.0
 51
0.0
 71
     0
 72
   100
 73
     1
 74
     3
 75
     0
 76
     0
 77
     0
 78
     0
281
     0
 65
     1
110
0.0
120
0.0
130
0.0
111
1.0
121
0.0
131
0.0
112
0.0
122
1.0
132
0.0
 79
     0
146
0.0
  0
ENDTAB
  0
TABLE
  2
LTYPE
  5
5
330
0
100
AcDbSymbolTable
 70
     1
  0
LTYPE
  5
14
330
5
100
AcDbSymbolTableRecord
100
AcDbLinetypeTableRecord
  2
ByBlock
 70
     0
  3

 72
    65
 73
     0
 40
0.0
  0
LTYPE
  5
15
330
5
100
AcDbSymbolTableRecord
100
AcDbLinetypeTableRecord
  2
ByLayer
 70
     0
  3

 72
    65
 73
     0
 40
0.0
  0
LTYPE
  5
16
330
5
100
AcDbSymbolTableRecord
100
AcDbLinetypeTableRecord
  2
Continuous
 70
     0
  3
Solid line
 72
    65
 73
     0
 40
0.0
  0
ENDTAB
  0
TABLE
  2
LAYER
  5
2
330
0
100
AcDbSymbolTable
 70
     8
  0
LAYER
  5
10
330
2
100
AcDbSymbolTableRecord
100
AcDbLayerTableRecord
  2
0
 70
     0
 62
     7
  6
Continuous
370
    -3
390
F
  0
LAYER
  5
2C
330
2
100
AcDbSymbolTableRecord
100
AcDbLayerTableRecord
  2
Default
 70
     0
 62
     7
  6
Continuous
370
    -3
390
F
  0
LAYER
  5
ED
330
2
100
AcDbSymbolTableRecord
100
AcDbLayerTableRecord
  2
$DDT_AUDIT_GENERATED_(ED)
 70
     0
 62
     7
  6
Continuous
370
    -3
390
F
  0
LAYER
  5
181
330
2
100
AcDbSymbolTableRecord
100
AcDbLayerTableRecord
  2
SKUM-3._DK2500--
 70
     0
 62
     7
  6
Continuous
370
    -3
390
F
  0
LAYER
  5
186
330
2
100
AcDbSymbolTableRecord
100
AcDbLayerTableRecord
  2
$DDT_AUDIT_GENERATED_(186)
 70
     0
 62
     7
  6
Continuous
370
    -3
390
F
  0
LAYER
  5
197
330
2
100
AcDbSymbolTableRecord
100
AcDbLayerTableRecord
  2
$DDT_AUDIT_GENERATED_(197)
 70
     0
 62
     7
  6
Continuous
370
    -3
390
F
  0
LAYER
  5
1D7
330
2
100
AcDbSymbolTableRecord
100
AcDbLayerTableRecord
  2
$DDT_AUDIT_GENERATED_(1D7)
 70
     0
 62
     7
  6
Continuous
370
    -3
390
F
  0
LAYER
  5
249
330
2
100
AcDbSymbolTableRecord
100
AcDbLayerTableRecord
  2
DOGSV_0
 70
     0
 62
     7
  6
Continuous
370
    -3
390
F
  0
ENDTAB
  0
TABLE
  2
STYLE
  5
3
330
0
100
AcDbSymbolTable
 70
     5
  0
STYLE
  5
11
330
3
100
AcDbSymbolTableRecord
100
AcDbTextStyleTableRecord
  2
Standard
 70
     0
 40
0.0
 41
1.0
 50
0.0
 71
     0
 42
0.2
  3
txt
  4

  0
STYLE
  5
2A
330
3
100
AcDbSymbolTableRecord
100
AcDbTextStyleTableRecord
  2
SEACAD_seiso_ttfB
 70
     0
 40
0.2
 41
1.0
 50
0.0
 71
     0
 42
0.2
  3
seiso.ttf
  4

  0
STYLE
  5
1E5
330
3
100
AcDbSymbolTableRecord
100
AcDbTextStyleTableRecord
  2
SEACAD_seiso_ttf
 70
     0
 40
5.0
 41
1.0
 50
0.0
 71
     0
 42
0.2
  3
seiso.ttf
  4

  0
STYLE
  5
25D
330
3
100
AcDbSymbolTableRecord
100
AcDbTextStyleTableRecord
  2
SEACAD_seans_ttfB
 70
     0
 40
0.2
 41
1.0
 50
0.0
 71
     0
 42
0.2
  3
seans.ttf
  4

  0
STYLE
  5
2BA
330
3
100
AcDbSymbolTableRecord
100
AcDbTextStyleTableRecord
  2
SEACAD_times_ttfBI
 70
     0
 40
0.2
 41
1.0
 50
0.0
 71
     0
 42
0.2
  3
times.ttf
  4

  0
ENDTAB
  0
TABLE
  2
VIEW
  5
6
330
0
100
AcDbSymbolTable
 70
     0
  0
ENDTAB
  0
TABLE
  2
UCS
  5
7
330
0
100
AcDbSymbolTable
 70
     0
  0
ENDTAB
  0
TABLE
  2
APPID
  5
9
330
0
100
AcDbSymbolTable
 70
     1
  0
APPID
  5
12
330
9
100
AcDbSymbolTableRecord
100
AcDbRegAppTableRecord
  2
ACAD
 70
     0
  0
ENDTAB
  0
TABLE
  2
DIMSTYLE
  5
A
330
0
100
AcDbSymbolTable
 70
     2
100
AcDbDimStyleTable
  0
DIMSTYLE
105
27
330
A
100
AcDbSymbolTableRecord
100
AcDbDimStyleTableRecord
  2
Standard
 70
     0
340
11
  0
DIMSTYLE
105
1E6
102
{ACAD_REACTORS
330
1E7
330
1F3
330
1FF
330
20C
330
218
330
224
330
230
102
}
330
A
100
AcDbSymbolTableRecord
100
AcDbDimStyleTableRecord
  2
ISO
 70
     0
 41
5.0
 42
1.5
 44
1.5
 73
     0
 74
     0
 77
     1
 78
     8
140
5.0
141
0.0
147
1.5
173
     1
176
     7
177
     7
178
     7
179
     1
271
     2
272
     2
278
    44
284
     8
340
1E5
343
1E0
344
1E0
  0
ENDTAB
  0
TABLE
  2
BLOCK_RECORD
  5
1
330
0
100
AcDbSymbolTable
 70
    28
  0
BLOCK_RECORD
  5
1F
330
1
100
AcDbSymbolTableRecord
100
AcDbBlockTableRecord
  2
*Model_Space
340
22
  0
BLOCK_RECORD
  5
1B
330
1
100
AcDbSymbolTableRecord
100
AcDbBlockTableRecord
  2
*Paper_Space
340
1E
  0
BLOCK_RECORD
  5
34
330
1
100
AcDbSymbolTableRecord
100
AcDbBlockTableRecord
  2
SEANNOT_GROUP
340
0
102
{BLKREFS
331
35
102
}
  0
BLOCK_RECORD
  5
3E
330
1
100
AcDbSymbolTableRecord
100
AcDbBlockTableRecord
  2
SEANNOT_GROUP1
340
0
102
{BLKREFS
331
3F
102
}
  0
BLOCK_RECORD
  5
48
330
1
100
AcDbSymbolTableRecord
100
AcDbBlockTableRecord
  2
SEANNOT_GROUP2
340
0
102
{BLKREFS
331
49
102
}
  0
BLOCK_RECORD
  5
51
330
1
100
AcDbSymbolTableRecord
100
AcDbBlockTableRecord
  2
SEANNOT_GROUP3
340
0
102
{BLKREFS
331
52
102
}
  0
BLOCK_RECORD
  5
5A
330
1
100
AcDbSymbolTableRecord
100
AcDbBlockTableRecord
  2
SEANNOT_GROUP4
340
0
102
{BLKREFS
331
5B
102
}
  0
BLOCK_RECORD
  5
63
330
1
100
AcDbSymbolTableRecord
100
AcDbBlockTableRecord
  2
SEANNOT_GROUP5
340
0
102
{BLKREFS
331
64
102
}
  0
BLOCK_RECORD
  5
6C
330
1
100
AcDbSymbolTableRecord
100
AcDbBlockTableRecord
  2
SEANNOT_GROUP6
340
0
102
{BLKREFS
331
6D
102
}
  0
BLOCK_RECORD
  5
75
330
1
100
AcDbSymbolTableRecord
100
AcDbBlockTableRecord
  2
SEANNOT_GROUP7
340
0
102
{BLKREFS
331
76
102
}
  0
BLOCK_RECORD
  5
7F
330
1
100
AcDbSymbolTableRecord
100
AcDbBlockTableRecord
  2
SEANNOT_GROUP8
340
0
102
{BLKREFS
331
80
102
}
  0
BLOCK_RECORD
  5
88
330
1
100
AcDbSymbolTableRecord
100
AcDbBlockTableRecord
  2
SEANNOT_GROUP9
340
0
102
{BLKREFS
331
89
102
}
  0
BLOCK_RECORD
  5
91
330
1
100
AcDbSymbolTableRecord
100
AcDbBlockTableRecord
  2
SEANNOT_GROUP10
340
0
102
{BLKREFS
331
92
102
}
  0
BLOCK_RECORD
  5
9A
330
1
100
AcDbSymbolTableRecord
100
AcDbBlockTableRecord
  2
SEANNOT_GROUP11
340
0
102
{BLKREFS
331
9B
102
}
  0
BLOCK_RECORD
  5
AD
330
1
100
AcDbSymbolTableRecord
100
AcDbBlockTableRecord
  2
SEANNOT_GROUP12
340
0
102
{BLKREFS
331
AE
102
}
  0
BLOCK_RECORD
  5
B6
330
1
100
AcDbSymbolTableRecord
100
AcDbBlockTableRecord
  2
SEANNOT_GROUP13
340
0
102
{BLKREFS
331
B7
102
}
  0
BLOCK_RECORD
  5
CA
330
1
100
AcDbSymbolTableRecord
100
AcDbBlockTableRecord
  2
SEANNOT_GROUP14
340
0
102
{BLKREFS
331
CB
102
}
  0
BLOCK_RECORD
  5
D5
330
1
100
AcDbSymbolTableRecord
100
AcDbBlockTableRecord
  2
SEANNOT_GROUP15
340
0
102
{BLKREFS
331
D6
102
}
  0
BLOCK_RECORD
  5
E0
330
1
100
AcDbSymbolTableRecord
100
AcDbBlockTableRecord
  2
SEANNOT_GROUP16
340
0
102
{BLKREFS
331
E1
102
}
  0
BLOCK_RECORD
  5
EB
330
1
100
AcDbSymbolTableRecord
100
AcDbBlockTableRecord
  2
SE
340
0
102
{BLKREFS
331
EC
102
}
  0
BLOCK_RECORD
  5
19C
330
1
100
AcDbSymbolTableRecord
100
AcDbBlockTableRecord
  2
SE1
340
0
102
{BLKREFS
331
19D
102
}
  0
BLOCK_RECORD
  5
1E0
330
1
100
AcDbSymbolTableRecord
100
AcDbBlockTableRecord
  2
_SE_FILLED
340
0
  0
BLOCK_RECORD
  5
1E8
330
1
100
AcDbSymbolTableRecord
100
AcDbBlockTableRecord
  2
DMBLK1
340
0
  0
BLOCK_RECORD
  5
1F4
330
1
100
AcDbSymbolTableRecord
100
AcDbBlockTableRecord
  2
DMBLK2
340
0
  0
BLOCK_RECORD
  5
200
330
1
100
AcDbSymbolTableRecord
100
AcDbBlockTableRecord
  2
DMBLK3
340
0
  0
BLOCK_RECORD
  5
20D
330
1
100
AcDbSymbolTableRecord
100
AcDbBlockTableRecord
  2
DMBLK4
340
0
  0
BLOCK_RECORD
  5
219
330
1
100
AcDbSymbolTableRecord
100
AcDbBlockTableRecord
  2
DMBLK5
340
0
  0
BLOCK_RECORD
  5
225
330
1
100
AcDbSymbolTableRecord
100
AcDbBlockTableRecord
  2
DMBLK6
340
0
  0
BLOCK_RECORD
  5
231
330
1
100
AcDbSymbolTableRecord
100
AcDbBlockTableRecord
  2
DMBLK7
340
0
  0
ENDTAB
  0
ENDSEC
  0
SECTION
  2
BLOCKS
  0
BLOCK
  5
20
330
1F
100
AcDbEntity
  8
0
100
AcDbBlockBegin
  2
*Model_Space
 70
     0
 71
     0
 10
0.0
 20
0.0
 30
0.0
  3
*Model_Space
  1

  0
ENDBLK
  5
21
330
1F
100
AcDbEntity
  8
0
100
AcDbBlockEnd
  0
BLOCK
  5
1C
330
1B
100
AcDbEntity
 67
     1
  8
0
100
AcDbBlockBegin
  2
*Paper_Space
 70
     0
 71
     0
 10
0.0
 20
0.0
 30
0.0
  3
*Paper_Space
  1

  0
ENDBLK
  5
1D
330
1B
100
AcDbEntity
 67
     1
  8
0
100
AcDbBlockEnd
  0
BLOCK
  5
3C
330
34
100
AcDbEntity
  8
0
100
AcDbBlockBegin
  2
SEANNOT_GROUP
 70
     0
 71
     0
 10
0.0
 20
0.0
 30
0.0
  3
SEANNOT_GROUP
  1

  0
LWPOLYLINE
  5
36
330
34
100
AcDbEntity
  8
Default
  6
Continuous
 62
     7
 48
25.4
100
AcDbPolyline
 90
        2
 70
     0
 43
0.0
 10
810.2578094943
 20
184.8347463015
 10
789.6083484608
 20
229.4506183897
  0
HATCH
  5
37
330
34
100
AcDbEntity
  8
Default
  6
Continuous
 62
     7
 48
25.4
100
AcDbHatch
 10
0.0
 20
0.0
 30
0.0
210
0.0
220
0.0
230
1.0
  2
SOLID
 70
     1
 71
     0
 91
        1
 92
        1
 93
        1
 72
     3
 10
789.6083484607507
 20
229.4506183897442
 11
1.666666629413727
 21
0.0
 40
1.0
 50
0.0
 51
360.0
 73
     1
 97
        0
 75
     0
 76
     1
 98
        0
  0
LINE
  5
38
330
34
100
AcDbEntity
  8
Default
  6
Continuous
 62
     7
 48
25.4
100
AcDbLine
 10
810.2578094943
 20
184.8347463015
 30
0.0
 11
800.2578094943
 21
184.8347463015
 31
0.0
  0
TEXT
  5
39
330
34
100
AcDbEntity
  8
Default
  6
Continuous
 62
     7
 48
25.4
100
AcDbText
 10
747.4850822215
 20
182.3347463015
 30
0.0
 40
5.0
  1
Skum-1, dk 2500
  7
SEACAD_seiso_ttfB
 11
747.4850822215
 21
187.3347463015
 31
0.0
100
AcDbText
 73
     3
  0
TEXT
  5
3A
330
34
100
AcDbEntity
  8
Default
  6
Continuous
 62
     7
 48
25.4
100
AcDbText
 10
747.4850822215
 20
174.8347463015
 30
0.0
 40
5.0
  1
materiale skum LD 29
  7
SEACAD_seiso_ttfB
 11
747.4850822215
 21
179.8347463015
 31
0.0
100
AcDbText
 73
     3
  0
TEXT
  5
3B
330
34
100
AcDbEntity
  8
Default
  6
Continuous
 62
     7
 48
25.4
100
AcDbText
 10
747.4850822215
 20
167.3347463015
 30
0.0
 40
5.0
  1
Farve sort
  7
SEACAD_seiso_ttfB
 11
747.4850822215
 21
172.3347463015
 31
0.0
100
AcDbText
 73
     3
  0
ENDBLK
  5
3D
330
34
100
AcDbEntity
  8
0
100
AcDbBlockEnd
  0
BLOCK
  5
46
330
3E
100
AcDbEntity
  8
0
100
AcDbBlockBegin
  2
SEANNOT_GROUP1
 70
     0
 71
     0
 10
0.0
 20
0.0
 30
0.0
  3
SEANNOT_GROUP1
  1

  0
LWPOLYLINE
  5
40
330
3E
100
AcDbEntity
  8
Default
  6
Continuous
 62
     7
 48
25.4
100
AcDbPolyline
 90
        2
 70
     0
 43
0.0
 10
700.8921455019
 20
194.7770793917
 10
700.8921455019
 20
287.8941244098
  0
HATCH
  5
41
330
3E
100
AcDbEntity
  8
Default
  6
Continuous
 62
     7
 48
25.4
100
AcDbHatch
 10
0.0
 20
0.0
 30
0.0
210
0.0
220
0.0
230
1.0
  2
SOLID
 70
     1
 71
     0
 91
        1
 92
        1
 93
        1
 72
     3
 10
700.8921455019398
 20
287.8941244098317
 11
1.666666629413727
 21
0.0
 40
1.0
 50
0.0
 51
360.0
 73
     1
 97
        0
 75
     0
 76
     1
 98
        0
  0
LINE
  5
42
330
3E
100
AcDbEntity
  8
Default
  6
Continuous
 62
     7
 48
25.4
100
AcDbLine
 10
700.8921455019
 20
194.7770793917
 30
0.0
 11
690.8921455019
 21
194.7770793917
 31
0.0
  0
TEXT
  5
43
330
3E
100
AcDbEntity
  8
Default
  6
Continuous
 62
     7
 48
25.4
100
AcDbText
 10
638.1194182292
 20
192.2770793917
 30
0.0
 40
5.0
  1
Skum-2, dk 2500
  7
SEACAD_seiso_ttfB
 11
638.1194182292
 21
197.2770793917
 31
0.0
100
AcDbText
 73
     3
  0
TEXT
  5
44
330
3E
100
AcDbEntity
  8
Default
  6
Continuous
 62
     7
 48
25.4
100
AcDbText
 10
638.1194182292
 20
184.7770793917
 30
0.0
 40
5.0
  1
materiale skum LD 29
  7
SEACAD_seiso_ttfB
 11
638.1194182292
 21
189.7770793917
 31
0.0
100
AcDbText
 73
     3
  0
TEXT
  5
45
330
3E
100
AcDbEntity
  8
Default
  6
Continuous
 62
     7
 48
25.4
100
AcDbText
 10
638.1194182292
 20
177.2770793917
 30
0.0
 40
5.0
  1
Farve sort
  7
SEACAD_seiso_ttfB
 11
638.1194182292
 21
182.2770793917
 31
0.0
100
AcDbText
 73
     3
  0
ENDBLK
  5
47
330
3E
100
AcDbEntity
  8
0
100
AcDbBlockEnd
  0
BLOCK
  5
4F
330
48
100
AcDbEntity
  8
0
100
AcDbBlockBegin
  2
SEANNOT_GROUP2
 70
     0
 71
     0
 10
0.0
 20
0.0
 30
0.0
  3
SEANNOT_GROUP2
  1

  0
LWPOLYLINE
  5
4A
330
48
100
AcDbEntity
  8
Default
  6
Continuous
 62
     7
 48
25.4
100
AcDbPolyline
 90
        2
 70
     0
 43
0.0
 10
527.169559237
 20
542.2142505204
 10
527.169559237
 20
437.9818426753
  0
HATCH
  5
4B
330
48
100
AcDbEntity
  8
Default
  6
Continuous
 62
     7
 48
25.4
100
AcDbHatch
 10
0.0
 20
0.0
 30
0.0
210
0.0
220
0.0
230
1.0
  2
SOLID
 70
     1
 71
     0
 91
        1
 92
        1
 93
        1
 72
     3
 10
527.1695592369609
 20
437.9818426753351
 11
1.666666629413727
 21
0.0
 40
1.0
 50
0.0
 51
360.0
 73
     1
 97
        0
 75
     0
 76
     1
 98
        0
  0
LINE
  5
4C
330
48
100
AcDbEntity
  8
Default
  6
Continuous
 62
     7
 48
25.4
100
AcDbLine
 10
527.169559237
 20
542.2142505204
 30
0.0
 11
517.169559237
 21
542.2142505204
 31
0.0
  0
TEXT
  5
4D
330
48
100
AcDbEntity
  8
Default
  6
Continuous
 62
     7
 48
25.4
100
AcDbText
 10
487.1241046915
 20
539.7142505204
 30
0.0
 40
5.0
  1
stativ
  7
SEACAD_seiso_ttfB
 11
487.1241046915
 21
544.7142505204
 31
0.0
100
AcDbText
 73
     3
  0
TEXT
  5
4E
330
48
100
AcDbEntity
  8
Default
  6
Continuous
 62
     7
 48
25.4
100
AcDbText
 10
487.1241046915
 20
532.2142505204
 30
0.0
 40
5.0
  1
dybde 95mm
  7
SEACAD_seiso_ttfB
 11
487.1241046915
 21
537.2142505204
 31
0.0
100
AcDbText
 73
     3
  0
ENDBLK
  5
50
330
48
100
AcDbEntity
  8
0
100
AcDbBlockEnd
  0
BLOCK
  5
58
330
51
100
AcDbEntity
  8
0
100
AcDbBlockBegin
  2
SEANNOT_GROUP3
 70
     0
 71
     0
 10
0.0
 20
0.0
 30
0.0
  3
SEANNOT_GROUP3
  1

  0
LWPOLYLINE
  5
53
330
51
100
AcDbEntity
  8
Default
  6
Continuous
 62
     7
 48
25.4
100
AcDbPolyline
 90
        2
 70
     0
 43
0.0
 10
227.8833993385
 20
531.041255621
 10
227.8833993385
 20
360.4459314021
  0
HATCH
  5
54
330
51
100
AcDbEntity
  8
Default
  6
Continuous
 62
     7
 48
25.4
100
AcDbHatch
 10
0.0
 20
0.0
 30
0.0
210
0.0
220
0.0
230
1.0
  2
SOLID
 70
     1
 71
     0
 91
        1
 92
        1
 93
        1
 72
     3
 10
227.883399338496
 20
360.4459314020671
 11
1.666666629413754
 21
0.0
 40
1.0
 50
0.0
 51
360.0
 73
     1
 97
        0
 75
     0
 76
     1
 98
        0
  0
LINE
  5
55
330
51
100
AcDbEntity
  8
Default
  6
Continuous
 62
     7
 48
25.4
100
AcDbLine
 10
227.8833993385
 20
531.041255621
 30
0.0
 11
217.8833993385
 21
531.041255621
 31
0.0
  0
TEXT
  5
56
330
51
100
AcDbEntity
  8
Default
  6
Continuous
 62
     7
 48
25.4
100
AcDbText
 10
185.4515811567
 20
528.541255621
 30
0.0
 40
5.0
  1
Tastatur
  7
SEACAD_seiso_ttfB
 11
185.4515811567
 21
533.541255621
 31
0.0
100
AcDbText
 73
     3
  0
TEXT
  5
57
330
51
100
AcDbEntity
  8
Default
  6
Continuous
 62
     7
 48
25.4
100
AcDbText
 10
185.4515811567
 20
521.041255621
 30
0.0
 40
5.0
  1
 dybde 70mm
  7
SEACAD_seiso_ttfB
 11
185.4515811567
 21
526.041255621
 31
0.0
100
AcDbText
 73
     3
  0
ENDBLK
  5
59
330
51
100
AcDbEntity
  8
0
100
AcDbBlockEnd
  0
BLOCK
  5
61
330
5A
100
AcDbEntity
  8
0
100
AcDbBlockBegin
  2
SEANNOT_GROUP4
 70
     0
 71
     0
 10
0.0
 20
0.0
 30
0.0
  3
SEANNOT_GROUP4
  1

  0
LWPOLYLINE
  5
5C
330
5A
100
AcDbEntity
  8
Default
  6
Continuous
 62
     7
 48
25.4
100
AcDbPolyline
 90
        2
 70
     0
 43
0.0
 10
257.0290188809
 20
139.6303093413
 10
257.0290188809
 20
312.1059398009
  0
HATCH
  5
5D
330
5A
100
AcDbEntity
  8
Default
  6
Continuous
 62
     7
 48
25.4
100
AcDbHatch
 10
0.0
 20
0.0
 30
0.0
210
0.0
220
0.0
230
1.0
  2
SOLID
 70
     1
 71
     0
 91
        1
 92
        1
 93
        1
 72
     3
 10
257.0290188809465
 20
312.1059398009316
 11
1.666666629413782
 21
0.0
 40
1.0
 50
0.0
 51
360.0
 73
     1
 97
        0
 75
     0
 76
     1
 98
        0
  0
LINE
  5
5E
330
5A
100
AcDbEntity
  8
Default
  6
Continuous
 62
     7
 48
25.4
100
AcDbLine
 10
257.0290188809
 20
139.6303093413
 30
0.0
 11
267.0290188809
 21
139.6303093413
 31
0.0
  0
TEXT
  5
5F
330
5A
100
AcDbEntity
  8
Default
  6
Continuous
 62
     7
 48
25.4
100
AcDbText
 10
268.7790188809
 20
137.1303093413
 30
0.0
 40
5.0
  1
Batteri 
  7
SEACAD_seiso_ttfB
 11
268.7790188809
 21
142.1303093413
 31
0.0
100
AcDbText
 73
     3
  0
TEXT
  5
60
330
5A
100
AcDbEntity
  8
Default
  6
Continuous
 62
     7
 48
25.4
100
AcDbText
 10
268.7790188809
 20
129.6303093413
 30
0.0
 40
5.0
  1
dybde: 58mm
  7
SEACAD_seiso_ttfB
 11
268.7790188809
 21
134.6303093413
 31
0.0
100
AcDbText
 73
     3
  0
ENDBLK
  5
62
330
5A
100
AcDbEntity
  8
0
100
AcDbBlockEnd
  0
BLOCK
  5
6A
330
63
100
AcDbEntity
  8
0
100
AcDbBlockBegin
  2
SEANNOT_GROUP5
 70
     0
 71
     0
 10
0.0
 20
0.0
 30
0.0
  3
SEANNOT_GROUP5
  1

  0
LWPOLYLINE
  5
65
330
63
100
AcDbEntity
  8
Default
  6
Continuous
 62
     7
 48
25.4
100
AcDbPolyline
 90
        2
 70
     0
 43
0.0
 10
121.9424417104
 20
123.0278877387
 10
121.9424417104
 20
288.7694175831
  0
HATCH
  5
66
330
63
100
AcDbEntity
  8
Default
  6
Continuous
 62
     7
 48
25.4
100
AcDbHatch
 10
0.0
 20
0.0
 30
0.0
210
0.0
220
0.0
230
1.0
  2
SOLID
 70
     1
 71
     0
 91
        1
 92
        1
 93
        1
 72
     3
 10
121.9424417103875
 20
288.7694175831439
 11
1.666666629413768
 21
0.0
 40
1.0
 50
0.0
 51
360.0
 73
     1
 97
        0
 75
     0
 76
     1
 98
        0
  0
LINE
  5
67
330
63
100
AcDbEntity
  8
Default
  6
Continuous
 62
     7
 48
25.4
100
AcDbLine
 10
121.9424417104
 20
123.0278877387
 30
0.0
 11
131.9424417104
 21
123.0278877387
 31
0.0
  0
TEXT
  5
68
330
63
100
AcDbEntity
  8
Default
  6
Continuous
 62
     7
 48
25.4
100
AcDbText
 10
133.6924417104
 20
120.5278877387
 30
0.0
 40
5.0
  1
Strømforsyning
  7
SEACAD_seiso_ttfB
 11
133.6924417104
 21
125.5278877387
 31
0.0
100
AcDbText
 73
     3
  0
TEXT
  5
69
330
63
100
AcDbEntity
  8
Default
  6
Continuous
 62
     7
 48
25.4
100
AcDbText
 10
133.6924417104
 20
113.0278877387
 30
0.0
 40
5.0
  1
dybde: 60mm
  7
SEACAD_seiso_ttfB
 11
133.6924417104
 21
118.0278877387
 31
0.0
100
AcDbText
 73
     3
  0
ENDBLK
  5
6B
330
63
100
AcDbEntity
  8
0
100
AcDbBlockEnd
  0
BLOCK
  5
73
330
6C
100
AcDbEntity
  8
0
100
AcDbBlockBegin
  2
SEANNOT_GROUP6
 70
     0
 71
     0
 10
0.0
 20
0.0
 30
0.0
  3
SEANNOT_GROUP6
  1

  0
LWPOLYLINE
  5
6E
330
6C
100
AcDbEntity
  8
Default
  6
Continuous
 62
     7
 48
25.4
100
AcDbPolyline
 90
        2
 70
     0
 43
0.0
 10
346.4911117068
 20
153.0966971467
 10
346.4911117068
 20
244.1027882365
  0
HATCH
  5
6F
330
6C
100
AcDbEntity
  8
Default
  6
Continuous
 62
     7
 48
25.4
100
AcDbHatch
 10
0.0
 20
0.0
 30
0.0
210
0.0
220
0.0
230
1.0
  2
SOLID
 70
     1
 71
     0
 91
        1
 92
        1
 93
        1
 72
     3
 10
346.4911117067974
 20
244.1027882364538
 11
1.666666629413782
 21
0.0
 40
1.0
 50
0.0
 51
360.0
 73
     1
 97
        0
 75
     0
 76
     1
 98
        0
  0
LINE
  5
70
330
6C
100
AcDbEntity
  8
Default
  6
Continuous
 62
     7
 48
25.4
100
AcDbLine
 10
346.4911117068
 20
153.0966971467
 30
0.0
 11
356.4911117068
 21
153.0966971467
 31
0.0
  0
TEXT
  5
71
330
6C
100
AcDbEntity
  8
Default
  6
Continuous
 62
     7
 48
25.4
100
AcDbText
 10
358.2411117068
 20
150.5966971467
 30
0.0
 40
5.0
  1
Rør
  7
SEACAD_seiso_ttfB
 11
358.2411117068
 21
155.5966971467
 31
0.0
100
AcDbText
 73
     3
  0
TEXT
  5
72
330
6C
100
AcDbEntity
  8
Default
  6
Continuous
 62
     7
 48
25.4
100
AcDbText
 10
358.2411117068
 20
143.0966971467
 30
0.0
 40
5.0
  1
Dybde: 32mm
  7
SEACAD_seiso_ttfB
 11
358.2411117068
 21
148.0966971467
 31
0.0
100
AcDbText
 73
     3
  0
ENDBLK
  5
74
330
6C
100
AcDbEntity
  8
0
100
AcDbBlockEnd
  0
BLOCK
  5
7D
330
75
100
AcDbEntity
  8
0
100
AcDbBlockBegin
  2
SEANNOT_GROUP7
 70
     0
 71
     0
 10
0.0
 20
0.0
 30
0.0
  3
SEANNOT_GROUP7
  1

  0
LWPOLYLINE
  5
77
330
75
100
AcDbEntity
  8
Default
  6
Continuous
 62
     7
 48
25.4
100
AcDbPolyline
 90
        2
 70
     0
 43
0.0
 10
391.1830337
 20
179.1859490226
 10
391.1830337
 20
283.5846158632
  0
HATCH
  5
78
330
75
100
AcDbEntity
  8
Default
  6
Continuous
 62
     7
 48
25.4
100
AcDbHatch
 10
0.0
 20
0.0
 30
0.0
210
0.0
220
0.0
230
1.0
  2
SOLID
 70
     1
 71
     0
 91
        1
 92
        1
 93
        1
 72
     3
 10
391.1830337000005
 20
283.5846158631904
 11
1.666666629413782
 21
0.0
 40
1.0
 50
0.0
 51
360.0
 73
     1
 97
        0
 75
     0
 76
     1
 98
        0
  0
LINE
  5
79
330
75
100
AcDbEntity
  8
Default
  6
Continuous
 62
     7
 48
25.4
100
AcDbLine
 10
391.1830337
 20
179.1859490226
 30
0.0
 11
401.1830337
 21
179.1859490226
 31
0.0
  0
TEXT
  5
7A
330
75
100
AcDbEntity
  8
Default
  6
Continuous
 62
     7
 48
25.4
100
AcDbText
 10
402.9330337
 20
176.6859490226
 30
0.0
 40
5.0
  1
Diverse
  7
SEACAD_seiso_ttfB
 11
402.9330337
 21
181.6859490226
 31
0.0
100
AcDbText
 73
     3
  0
TEXT
  5
7B
330
75
100
AcDbEntity
  8
Default
  6
Continuous
 62
     7
 48
25.4
100
AcDbText
 10
402.9330337
 20
169.1859490226
 30
0.0
 40
5.0
  1
kabelrum
  7
SEACAD_seiso_ttfB
 11
402.9330337
 21
174.1859490226
 31
0.0
100
AcDbText
 73
     3
  0
TEXT
  5
7C
330
75
100
AcDbEntity
  8
Default
  6
Continuous
 62
     7
 48
25.4
100
AcDbText
 10
402.9330337
 20
161.6859490226
 30
0.0
 40
5.0
  1
Dybde: 120mm
  7
SEACAD_seiso_ttfB
 11
402.9330337
 21
166.6859490226
 31
0.0
100
AcDbText
 73
     3
  0
ENDBLK
  5
7E
330
75
100
AcDbEntity
  8
0
100
AcDbBlockEnd
  0
BLOCK
  5
86
330
7F
100
AcDbEntity
  8
0
100
AcDbBlockBegin
  2
SEANNOT_GROUP8
 70
     0
 71
     0
 10
0.0
 20
0.0
 30
0.0
  3
SEANNOT_GROUP8
  1

  0
LWPOLYLINE
  5
81
330
7F
100
AcDbEntity
  8
Default
  6
Continuous
 62
     7
 48
25.4
100
AcDbPolyline
 90
        2
 70
     0
 43
0.0
 10
457.7970403039
 20
177.4398548911
 10
457.7970403039
 20
299.631856236
  0
HATCH
  5
82
330
7F
100
AcDbEntity
  8
Default
  6
Continuous
 62
     7
 48
25.4
100
AcDbHatch
 10
0.0
 20
0.0
 30
0.0
210
0.0
220
0.0
230
1.0
  2
SOLID
 70
     1
 71
     0
 91
        1
 92
        1
 93
        1
 72
     3
 10
457.7970403038555
 20
299.6318562360215
 11
1.666666629413782
 21
0.0
 40
1.0
 50
0.0
 51
360.0
 73
     1
 97
        0
 75
     0
 76
     1
 98
        0
  0
LINE
  5
83
330
7F
100
AcDbEntity
  8
Default
  6
Continuous
 62
     7
 48
25.4
100
AcDbLine
 10
457.7970403039
 20
177.4398548911
 30
0.0
 11
467.7970403039
 21
177.4398548911
 31
0.0
  0
TEXT
  5
84
330
7F
100
AcDbEntity
  8
Default
  6
Continuous
 62
     7
 48
25.4
100
AcDbText
 10
469.5470403039
 20
174.9398548911
 30
0.0
 40
5.0
  1
Greb
  7
SEACAD_seiso_ttfB
 11
469.5470403039
 21
179.9398548911
 31
0.0
100
AcDbText
 73
     3
  0
TEXT
  5
85
330
7F
100
AcDbEntity
  8
Default
  6
Continuous
 62
     7
 48
25.4
100
AcDbText
 10
469.5470403039
 20
167.4398548911
 30
0.0
 40
5.0
  1
Dybde: 20mm
  7
SEACAD_seiso_ttfB
 11
469.5470403039
 21
172.4398548911
 31
0.0
100
AcDbText
 73
     3
  0
ENDBLK
  5
87
330
7F
100
AcDbEntity
  8
0
100
AcDbBlockEnd
  0
BLOCK
  5
8F
330
88
100
AcDbEntity
  8
0
100
AcDbBlockBegin
  2
SEANNOT_GROUP9
 70
     0
 71
     0
 10
0.0
 20
0.0
 30
0.0
  3
SEANNOT_GROUP9
  1

  0
LWPOLYLINE
  5
8A
330
88
100
AcDbEntity
  8
Default
  6
Continuous
 62
     7
 48
25.4
100
AcDbPolyline
 90
        2
 70
     0
 43
0.0
 10
574.1423945793
 20
157.3630527488
 10
542.8429777667
 20
223.4681333658
  0
HATCH
  5
8B
330
88
100
AcDbEntity
  8
Default
  6
Continuous
 62
     7
 48
25.4
100
AcDbHatch
 10
0.0
 20
0.0
 30
0.0
210
0.0
220
0.0
230
1.0
  2
SOLID
 70
     1
 71
     0
 91
        1
 92
        1
 93
        1
 72
     3
 10
542.8429777666946
 20
223.4681333658264
 11
1.666666629413727
 21
0.0
 40
1.0
 50
0.0
 51
360.0
 73
     1
 97
        0
 75
     0
 76
     1
 98
        0
  0
LINE
  5
8C
330
88
100
AcDbEntity
  8
Default
  6
Continuous
 62
     7
 48
25.4
100
AcDbLine
 10
574.1423945793
 20
157.3630527488
 30
0.0
 11
564.1423945793
 21
157.3630527488
 31
0.0
  0
TEXT
  5
8D
330
88
100
AcDbEntity
  8
Default
  6
Continuous
 62
     7
 48
25.4
100
AcDbText
 10
534.0969400338
 20
154.8630527488
 30
0.0
 40
5.0
  1
Sugeprop
  7
SEACAD_seiso_ttfB
 11
534.0969400338
 21
159.8630527488
 31
0.0
100
AcDbText
 73
     3
  0
TEXT
  5
8E
330
88
100
AcDbEntity
  8
Default
  6
Continuous
 62
     7
 48
25.4
100
AcDbText
 10
534.0969400338
 20
147.3630527488
 30
0.0
 40
5.0
  1
Dybde 55mm
  7
SEACAD_seiso_ttfB
 11
534.0969400338
 21
152.3630527488
 31
0.0
100
AcDbText
 73
     3
  0
ENDBLK
  5
90
330
88
100
AcDbEntity
  8
0
100
AcDbBlockEnd
  0
BLOCK
  5
98
330
91
100
AcDbEntity
  8
0
100
AcDbBlockBegin
  2
SEANNOT_GROUP10
 70
     0
 71
     0
 10
0.0
 20
0.0
 30
0.0
  3
SEANNOT_GROUP10
  1

  0
LWPOLYLINE
  5
93
330
91
100
AcDbEntity
  8
Default
  6
Continuous
 62
     7
 48
25.4
100
AcDbPolyline
 90
        2
 70
     0
 43
0.0
 10
596.6301798014
 20
393.2912739244
 10
563.5613074034
 20
375.5320646737
  0
HATCH
  5
94
330
91
100
AcDbEntity
  8
Default
  6
Continuous
 62
     7
 48
25.4
100
AcDbHatch
 10
0.0
 20
0.0
 30
0.0
210
0.0
220
0.0
230
1.0
  2
SOLID
 70
     1
 71
     0
 91
        1
 92
        1
 93
        1
 72
     3
 10
563.5613074034487
 20
375.5320646737071
 11
1.666666629413727
 21
0.0
 40
1.0
 50
0.0
 51
360.0
 73
     1
 97
        0
 75
     0
 76
     1
 98
        0
  0
LINE
  5
95
330
91
100
AcDbEntity
  8
Default
  6
Continuous
 62
     7
 48
25.4
100
AcDbLine
 10
596.6301798014
 20
393.2912739244
 30
0.0
 11
606.6301798014
 21
393.2912739244
 31
0.0
  0
TEXT
  5
96
330
91
100
AcDbEntity
  8
Default
  6
Continuous
 62
     7
 48
25.4
100
AcDbText
 10
608.3801798014
 20
390.7912739244
 30
0.0
 40
5.0
  1
Sugeprop
  7
SEACAD_seiso_ttfB
 11
608.3801798014
 21
395.7912739244
 31
0.0
100
AcDbText
 73
     3
  0
TEXT
  5
97
330
91
100
AcDbEntity
  8
Default
  6
Continuous
 62
     7
 48
25.4
100
AcDbText
 10
608.3801798014
 20
383.2912739244
 30
0.0
 40
5.0
  1
Dybde 120mm
  7
SEACAD_seiso_ttfB
 11
608.3801798014
 21
388.2912739244
 31
0.0
100
AcDbText
 73
     3
  0
ENDBLK
  5
99
330
91
100
AcDbEntity
  8
0
100
AcDbBlockEnd
  0
BLOCK
  5
A0
330
9A
100
AcDbEntity
  8
0
100
AcDbBlockBegin
  2
SEANNOT_GROUP11
 70
     0
 71
     0
 10
0.0
 20
0.0
 30
0.0
  3
SEANNOT_GROUP11
  1

  0
LWPOLYLINE
  5
9C
330
9A
100
AcDbEntity
  8
Default
  6
Continuous
 62
     7
 48
25.4
100
AcDbPolyline
 90
        2
 70
     0
 43
0.0
 10
601.227269071
 20
358.2525778033
 10
533.8536208524
 20
311.8246709993
  0
HATCH
  5
9D
330
9A
100
AcDbEntity
  8
Default
  6
Continuous
 62
     7
 48
25.4
100
AcDbHatch
 10
0.0
 20
0.0
 30
0.0
210
0.0
220
0.0
230
1.0
  2
SOLID
 70
     1
 71
     0
 91
        1
 92
        1
 93
        1
 72
     3
 10
533.8536208524429
 20
311.8246709993384
 11
1.666666629413727
 21
0.0
 40
1.0
 50
0.0
 51
360.0
 73
     1
 97
        0
 75
     0
 76
     1
 98
        0
  0
LINE
  5
9E
330
9A
100
AcDbEntity
  8
Default
  6
Continuous
 62
     7
 48
25.4
100
AcDbLine
 10
601.227269071
 20
358.2525778033
 30
0.0
 11
611.227269071
 21
358.2525778033
 31
0.0
  0
TEXT
  5
9F
330
9A
100
AcDbEntity
  8
Default
  6
Continuous
 62
     7
 48
25.4
100
AcDbText
 10
612.977269071
 20
355.7525778033
 30
0.0
 40
5.0
  1
Dybde 60mm
  7
SEACAD_seiso_ttfB
 11
612.977269071
 21
360.7525778033
 31
0.0
100
AcDbText
 73
     3
  0
ENDBLK
  5
A1
330
9A
100
AcDbEntity
  8
0
100
AcDbBlockEnd
  0
BLOCK
  5
B4
330
AD
100
AcDbEntity
  8
0
100
AcDbBlockBegin
  2
SEANNOT_GROUP12
 70
     0
 71
     0
 10
0.0
 20
0.0
 30
0.0
  3
SEANNOT_GROUP12
  1

  0
LWPOLYLINE
  5
AF
330
AD
100
AcDbEntity
  8
Default
  6
Continuous
 62
     7
 48
25.4
100
AcDbPolyline
 90
        2
 70
     0
 43
0.0
 10
257.6665274992
 20
543.2582324417
 10
257.6665274992
 20
457.0547067303
  0
HATCH
  5
B0
330
AD
100
AcDbEntity
  8
Default
  6
Continuous
 62
     7
 48
25.4
100
AcDbHatch
 10
0.0
 20
0.0
 30
0.0
210
0.0
220
0.0
230
1.0
  2
SOLID
 70
     1
 71
     0
 91
        1
 92
        1
 93
        1
 72
     3
 10
257.6665274991771
 20
457.0547067302764
 11
1.666666629413782
 21
0.0
 40
1.0
 50
0.0
 51
360.0
 73
     1
 97
        0
 75
     0
 76
     1
 98
        0
  0
LINE
  5
B1
330
AD
100
AcDbEntity
  8
Default
  6
Continuous
 62
     7
 48
25.4
100
AcDbLine
 10
257.6665274992
 20
543.2582324417
 30
0.0
 11
267.6665274992
 21
543.2582324417
 31
0.0
  0
TEXT
  5
B2
330
AD
100
AcDbEntity
  8
Default
  6
Continuous
 62
     7
 48
25.4
100
AcDbText
 10
269.4165274992
 20
540.7582324417
 30
0.0
 40
5.0
  1
stativ
  7
SEACAD_seiso_ttfB
 11
269.4165274992
 21
545.7582324417
 31
0.0
100
AcDbText
 73
     3
  0
TEXT
  5
B3
330
AD
100
AcDbEntity
  8
Default
  6
Continuous
 62
     7
 48
25.4
100
AcDbText
 10
269.4165274992
 20
533.2582324417
 30
0.0
 40
5.0
  1
dybde: 65mm
  7
SEACAD_seiso_ttfB
 11
269.4165274992
 21
538.2582324417
 31
0.0
100
AcDbText
 73
     3
  0
ENDBLK
  5
B5
330
AD
100
AcDbEntity
  8
0
100
AcDbBlockEnd
  0
BLOCK
  5
BA
330
B6
100
AcDbEntity
  8
0
100
AcDbBlockBegin
  2
SEANNOT_GROUP13
 70
     0
 71
     0
 10
0.0
 20
0.0
 30
0.0
  3
SEANNOT_GROUP13
  1

  0
LWPOLYLINE
  5
B8
330
B6
100
AcDbEntity
  8
Default
  6
Continuous
 62
     7
 48
25.4
100
AcDbPolyline
 90
        2
 70
     0
 43
0.0
 10
257.9253969458
 20
543.2582324417
 10
279.031393794
 20
419.7745524408
  0
HATCH
  5
B9
330
B6
100
AcDbEntity
  8
Default
  6
Continuous
 62
     7
 48
25.4
100
AcDbHatch
 10
0.0
 20
0.0
 30
0.0
210
0.0
220
0.0
230
1.0
  2
SOLID
 70
     1
 71
     0
 91
        1
 92
        1
 93
        1
 72
     3
 10
279.0313937940289
 20
419.7745524408073
 11
1.666666629413782
 21
0.0
 40
1.0
 50
0.0
 51
360.0
 73
     1
 97
        0
 75
     0
 76
     1
 98
        0
  0
ENDBLK
  5
BB
330
B6
100
AcDbEntity
  8
0
100
AcDbBlockEnd
  0
BLOCK
  5
D1
330
CA
100
AcDbEntity
  8
0
100
AcDbBlockBegin
  2
SEANNOT_GROUP14
 70
     0
 71
     0
 10
0.0
 20
0.0
 30
0.0
  3
SEANNOT_GROUP14
  1

  0
LWPOLYLINE
  5
CC
330
CA
100
AcDbEntity
  8
Default
  6
Continuous
 62
     7
 48
25.4
100
AcDbPolyline
 90
        2
 70
     0
 43
0.0
 10
223.9671611469
 20
180.1448901341
 10
223.9671611469
 20
280.1682393978
  0
HATCH
  5
CD
330
CA
100
AcDbEntity
  8
Default
  6
Continuous
 62
     7
 48
25.4
100
AcDbHatch
 10
0.0
 20
0.0
 30
0.0
210
0.0
220
0.0
230
1.0
  2
SOLID
 70
     1
 71
     0
 91
        1
 92
        1
 93
        1
 72
     3
 10
223.9671611468686
 20
280.1682393978052
 11
1.666666629413754
 21
0.0
 40
1.0
 50
0.0
 51
360.0
 73
     1
 97
        0
 75
     0
 76
     1
 98
        0
  0
LINE
  5
CE
330
CA
100
AcDbEntity
  8
Default
  6
Continuous
 62
     7
 48
25.4
100
AcDbLine
 10
223.9671611469
 20
180.1448901341
 30
0.0
 11
213.9671611469
 21
180.1448901341
 31
0.0
  0
TEXT
  5
CF
330
CA
100
AcDbEntity
  8
Default
  6
Continuous
 62
     7
 48
25.4
100
AcDbText
 10
183.9217066014
 20
177.6448901341
 30
0.0
 40
5.0
  1
Kabler
  7
SEACAD_seiso_ttfB
 11
183.9217066014
 21
182.6448901341
 31
0.0
100
AcDbText
 73
     3
  0
TEXT
  5
D0
330
CA
100
AcDbEntity
  8
Default
  6
Continuous
 62
     7
 48
25.4
100
AcDbText
 10
183.9217066014
 20
170.1448901341
 30
0.0
 40
5.0
  1
dybde 45mm
  7
SEACAD_seiso_ttfB
 11
183.9217066014
 21
175.1448901341
 31
0.0
100
AcDbText
 73
     3
  0
ENDBLK
  5
D2
330
CA
100
AcDbEntity
  8
0
100
AcDbBlockEnd
  0
BLOCK
  5
DE
330
D5
100
AcDbEntity
  8
0
100
AcDbBlockBegin
  2
SEANNOT_GROUP15
 70
     0
 71
     0
 10
0.0
 20
0.0
 30
0.0
  3
SEANNOT_GROUP15
  1

  0
LWPOLYLINE
  5
D7
330
D5
100
AcDbEntity
  8
Default
  6
Continuous
 62
     7
 48
25.4
100
AcDbPolyline
 90
        2
 70
     0
 43
0.0
 10
651.1505748264
 20
540.2794562584
 10
673.5727087442
 20
485.9960238202
  0
HATCH
  5
D8
330
D5
100
AcDbEntity
  8
Default
  6
Continuous
 62
     7
 48
25.4
100
AcDbHatch
 10
0.0
 20
0.0
 30
0.0
210
0.0
220
0.0
230
1.0
  2
SOLID
 70
     1
 71
     0
 91
        1
 92
        1
 93
        3
 72
     1
 10
670.8936416784883
 20
490.299167200661
 11
673.5727087442219
 21
485.996023820164
 72
     1
 10
673.5727087442219
 20
485.996023820164
 11
672.4340701838242
 21
490.9354514716829
 72
     1
 10
672.4340701838242
 20
490.9354514716829
 11
670.8936416784883
 21
490.299167200661
 97
        0
 75
     0
 76
     1
 98
        0
  0
LWPOLYLINE
  5
D9
330
D5
100
AcDbEntity
  8
Default
  6
Continuous
 62
     7
 48
25.4
370
    20
100
AcDbPolyline
 90
        4
 70
     1
 43
0.00025
 10
670.8936416785
 20
490.2991672007
 10
673.5727087442
 20
485.9960238202
 10
672.4340701838
 20
490.9354514717
 10
670.8936416785
 20
490.2991672007
  0
LINE
  5
DA
330
D5
100
AcDbEntity
  8
Default
  6
Continuous
 62
     7
 48
25.4
100
AcDbLine
 10
651.1505748264
 20
540.2794562584
 30
0.0
 11
641.1505748264
 21
540.2794562584
 31
0.0
  0
TEXT
  5
DB
330
D5
100
AcDbEntity
  8
Default
  6
Continuous
 62
     7
 48
25.4
100
AcDbText
 10
585.1960293718
 20
537.7794562584
 30
0.0
 40
5.0
  1
Skum-3, dk2500
  7
SEACAD_seiso_ttfB
 11
585.1960293718
 21
542.7794562584
 31
0.0
100
AcDbText
 73
     3
  0
TEXT
  5
DC
330
D5
100
AcDbEntity
  8
Default
  6
Continuous
 62
     7
 48
25.4
100
AcDbText
 10
585.1960293718
 20
530.2794562584
 30
0.0
 40
5.0
  1
Materialer: skum LD 29
  7
SEACAD_seiso_ttfB
 11
585.1960293718
 21
535.2794562584
 31
0.0
100
AcDbText
 73
     3
  0
TEXT
  5
DD
330
D5
100
AcDbEntity
  8
Default
  6
Continuous
 62
     7
 48
25.4
100
AcDbText
 10
585.1960293718
 20
522.7794562584
 30
0.0
 40
5.0
  1
Farve: sort
  7
SEACAD_seiso_ttfB
 11
585.1960293718
 21
527.7794562584
 31
0.0
100
AcDbText
 73
     3
  0
ENDBLK
  5
DF
330
D5
100
AcDbEntity
  8
0
100
AcDbBlockEnd
  0
BLOCK
  5
E6
330
E0
100
AcDbEntity
  8
0
100
AcDbBlockBegin
  2
SEANNOT_GROUP16
 70
     0
 71
     0
 10
0.0
 20
0.0
 30
0.0
  3
SEANNOT_GROUP16
  1

  0
LWPOLYLINE
  5
E2
330
E0
100
AcDbEntity
  8
Default
  6
Continuous
 62
     7
 48
25.4
100
AcDbPolyline
 90
        2
 70
     0
 43
0.0
 10
90.2314366048
 20
519.0500971032
 10
90.2314366048
 20
419.9504059805
  0
HATCH
  5
E3
330
E0
100
AcDbEntity
  8
Default
  6
Continuous
 62
     7
 48
25.4
100
AcDbHatch
 10
0.0
 20
0.0
 30
0.0
210
0.0
220
0.0
230
1.0
  2
SOLID
 70
     1
 71
     0
 91
        1
 92
        1
 93
        1
 72
     3
 10
90.23143660483093
 20
419.9504059805466
 11
1.666666629413768
 21
0.0
 40
1.0
 50
0.0
 51
360.0
 73
     1
 97
        0
 75
     0
 76
     1
 98
        0
  0
LINE
  5
E4
330
E0
100
AcDbEntity
  8
Default
  6
Continuous
 62
     7
 48
25.4
100
AcDbLine
 10
90.2314366048
 20
519.0500971032
 30
0.0
 11
80.2314366048
 21
519.0500971032
 31
0.0
  0
TEXT
  5
E5
330
E0
100
AcDbEntity
  8
Default
  6
Continuous
 62
     7
 48
25.4
100
AcDbText
 10
47.0041638776
 20
516.5500971032
 30
0.0
 40
5.0
  1
dybde: 120mm
  7
SEACAD_seiso_ttfB
 11
47.0041638776
 21
521.5500971032
 31
0.0
100
AcDbText
 73
     3
  0
ENDBLK
  5
E7
330
E0
100
AcDbEntity
  8
0
100
AcDbBlockEnd
  0
BLOCK
  5
19A
330
EB
100
AcDbEntity
  8
0
100
AcDbBlockBegin
  2
SE
 70
     0
 71
     0
 10
0.0
 20
0.0
 30
0.0
  3
SE
  1

  0
LINE
  5
EE
330
EB
100
AcDbEntity
  8
$DDT_AUDIT_GENERATED_(ED)
  6
Continuous
 62
     7
 48
25.4
100
AcDbLine
 10
89.2314366048
 20
200.176870598
 30
0.0
 11
572.2314366048
 21
200.176870598
 31
0.0
  0
ARC
  5
EF
330
EB
100
AcDbEntity
  8
$DDT_AUDIT_GENERATED_(ED)
  6
Continuous
 62
     7
 48
25.4
100
AcDbCircle
 10
89.2314366048
 20
218.176870598
 30
0.0
 40
17.99999999999999
100
AcDbArc
 50
180.0
 51
270.0
  0
LINE
  5
F0
330
EB
100
AcDbEntity
  8
$DDT_AUDIT_GENERATED_(ED)
  6
Continuous
 62
     7
 48
25.4
100
AcDbLine
 10
590.2314366048
 20
218.176870598
 30
0.0
 11
590.2314366048
 21
424.176870598
 31
0.0
  0
ARC
  5
F1
330
EB
100
AcDbEntity
  8
$DDT_AUDIT_GENERATED_(ED)
  6
Continuous
 62
     7
 48
25.4
100
AcDbCircle
 10
572.2314366048
 20
218.176870598
 30
0.0
 40
17.99999999999999
100
AcDbArc
 50
270.0
 51
360.0
  0
LINE
  5
F2
330
EB
100
AcDbEntity
  8
$DDT_AUDIT_GENERATED_(ED)
  6
Continuous
 62
     7
 48
25.4
100
AcDbLine
 10
572.2314366048
 20
489.176870598
 30
0.0
 11
89.2314366048
 21
489.176870598
 31
0.0
  0
ARC
  5
F3
330
EB
100
AcDbEntity
  8
$DDT_AUDIT_GENERATED_(ED)
  6
Continuous
 62
     7
 48
25.4
100
AcDbCircle
 10
572.2314366048
 20
471.176870598
 30
0.0
 40
17.99999999999999
100
AcDbArc
 50
0.0
 51
90.0
  0
LINE
  5
F4
330
EB
100
AcDbEntity
  8
$DDT_AUDIT_GENERATED_(ED)
  6
Continuous
 62
     7
 48
25.4
100
AcDbLine
 10
71.2314366048
 20
471.176870598
 30
0.0
 11
71.2314366048
 21
456.676870598
 31
0.0
  0
ARC
  5
F5
330
EB
100
AcDbEntity
  8
$DDT_AUDIT_GENERATED_(ED)
  6
Continuous
 62
     7
 48
25.4
100
AcDbCircle
 10
89.2314366048
 20
471.176870598
 30
0.0
 40
17.99999999999999
100
AcDbArc
 50
90.0
 51
180.0
  0
LINE
  5
F6
330
EB
100
AcDbEntity
  8
$DDT_AUDIT_GENERATED_(ED)
  6
Continuous
 62
     7
 48
25.4
100
AcDbLine
 10
518.8456650213
 20
340.6340491607
 30
0.0
 11
518.8456650213
 21
398.6340491607
 31
0.0
  0
LINE
  5
F7
330
EB
100
AcDbEntity
  8
$DDT_AUDIT_GENERATED_(ED)
  6
Continuous
 62
     7
 48
25.4
100
AcDbLine
 10
443.6464325365
 20
334.1340491607
 30
0.0
 11
432.124617262
 21
291.1340491607
 31
0.0
  0
LINE
  5
F8
330
EB
100
AcDbEntity
  8
$DDT_AUDIT_GENERATED_(ED)
  6
Continuous
 62
     7
 48
25.4
100
AcDbLine
 10
432.124617262
 20
291.1340491607
 30
0.0
 11
467.3240073959
 21
291.1340491607
 31
0.0
  0
LINE
  5
F9
330
EB
100
AcDbEntity
  8
$DDT_AUDIT_GENERATED_(ED)
  6
Continuous
 62
     7
 48
25.4
100
AcDbLine
 10
467.3240073959
 20
291.1340491607
 30
0.0
 11
479.5944982297
 21
336.9281443862
 31
0.0
  0
LINE
  5
FA
330
EB
100
AcDbEntity
  8
$DDT_AUDIT_GENERATED_(ED)
  6
Continuous
 62
     7
 48
25.4
100
AcDbLine
 10
549.8456650213
 20
398.6340491607
 30
0.0
 11
445.8456650213
 21
398.6340491607
 31
0.0
  0
LINE
  5
FB
330
EB
100
AcDbEntity
  8
$DDT_AUDIT_GENERATED_(ED)
  6
Continuous
 62
     7
 48
25.4
100
AcDbLine
 10
445.8456650213
 20
398.6340491607
 30
0.0
 11
452.4104202359
 21
374.1340491607
 31
0.0
  0
LINE
  5
FC
330
EB
100
AcDbEntity
  8
$DDT_AUDIT_GENERATED_(ED)
  6
Continuous
 62
     7
 48
25.4
100
AcDbLine
 10
452.4104202359
 20
374.1340491607
 30
0.0
 11
310.3314366048
 21
374.1340491607
 31
0.0
  0
LINE
  5
FD
330
EB
100
AcDbEntity
  8
$DDT_AUDIT_GENERATED_(ED)
  6
Continuous
 62
     7
 48
25.4
100
AcDbLine
 10
518.8456650213
 20
291.1340491607
 30
0.0
 11
518.8456650213
 21
340.6340491607
 31
0.0
  0
LINE
  5
FE
330
EB
100
AcDbEntity
  8
$DDT_AUDIT_GENERATED_(ED)
  6
Continuous
 62
     7
 48
25.4
100
AcDbLine
 10
549.8456650213
 20
291.1340491607
 30
0.0
 11
518.8456650213
 21
291.1340491607
 31
0.0
  0
LINE
  5
FF
330
EB
100
AcDbEntity
  8
$DDT_AUDIT_GENERATED_(ED)
  6
Continuous
 62
     7
 48
25.4
100
AcDbLine
 10
549.8456650213
 20
398.6340491607
 30
0.0
 11
549.8456650213
 21
291.1340491607
 31
0.0
  0
LINE
  5
100
330
EB
100
AcDbEntity
  8
$DDT_AUDIT_GENERATED_(ED)
  6
Continuous
 62
     7
 48
25.4
100
AcDbLine
 10
561.8456650213
 20
278.8840491607
 30
0.0
 11
549.8456650213
 21
291.1340491607
 31
0.0
  0
LINE
  5
101
330
EB
100
AcDbEntity
  8
$DDT_AUDIT_GENERATED_(ED)
  6
Continuous
 62
     7
 48
25.4
100
AcDbLine
 10
549.8456650213
 20
398.6340491607
 30
0.0
 11
561.8456650213
 21
410.8840491607
 31
0.0
  0
LINE
  5
102
330
EB
100
AcDbEntity
  8
$DDT_AUDIT_GENERATED_(ED)
  6
Continuous
 62
     7
 48
25.4
100
AcDbLine
 10
561.8456650213
 20
410.8840491607
 30
0.0
 11
571.8456650213
 21
410.8840491607
 31
0.0
  0
LINE
  5
103
330
EB
100
AcDbEntity
  8
$DDT_AUDIT_GENERATED_(ED)
  6
Continuous
 62
     7
 48
25.4
100
AcDbLine
 10
571.8456650213
 20
410.8840491607
 30
0.0
 11
571.8456650213
 21
278.8840491607
 31
0.0
  0
LINE
  5
104
330
EB
100
AcDbEntity
  8
$DDT_AUDIT_GENERATED_(ED)
  6
Continuous
 62
     7
 48
25.4
100
AcDbLine
 10
571.8456650213
 20
278.8840491607
 30
0.0
 11
561.8456650213
 21
278.8840491607
 31
0.0
  0
LINE
  5
105
330
EB
100
AcDbEntity
  8
$DDT_AUDIT_GENERATED_(ED)
  6
Continuous
 62
     7
 48
25.4
100
AcDbLine
 10
543.7314366048
 20
207.176870598
 30
0.0
 11
532.7314366048
 21
217.176870598
 31
0.0
  0
LINE
  5
106
330
EB
100
AcDbEntity
  8
$DDT_AUDIT_GENERATED_(ED)
  6
Continuous
 62
     7
 48
25.4
100
AcDbLine
 10
532.7314366048
 20
217.176870598
 30
0.0
 11
521.7314366048
 21
217.176870598
 31
0.0
  0
LINE
  5
107
330
EB
100
AcDbEntity
  8
$DDT_AUDIT_GENERATED_(ED)
  6
Continuous
 62
     7
 48
25.4
100
AcDbLine
 10
521.7314366048
 20
217.176870598
 30
0.0
 11
521.7314366048
 21
222.176870598
 31
0.0
  0
LINE
  5
108
330
EB
100
AcDbEntity
  8
$DDT_AUDIT_GENERATED_(ED)
  6
Continuous
 62
     7
 48
25.4
100
AcDbLine
 10
521.7314366048
 20
222.176870598
 30
0.0
 11
377.8314366048
 21
222.176870598
 31
0.0
  0
LINE
  5
109
330
EB
100
AcDbEntity
  8
$DDT_AUDIT_GENERATED_(ED)
  6
Continuous
 62
     7
 48
25.4
100
AcDbLine
 10
241.7314366048
 20
222.176870598
 30
0.0
 11
241.7314366048
 21
226.676870598
 31
0.0
  0
LINE
  5
10A
330
EB
100
AcDbEntity
  8
$DDT_AUDIT_GENERATED_(ED)
  6
Continuous
 62
     7
 48
25.4
100
AcDbLine
 10
241.7314366048
 20
226.676870598
 30
0.0
 11
236.2314366048
 21
226.676870598
 31
0.0
  0
LINE
  5
10B
330
EB
100
AcDbEntity
  8
$DDT_AUDIT_GENERATED_(ED)
  6
Continuous
 62
     7
 48
25.4
100
AcDbLine
 10
236.2314366048
 20
226.676870598
 30
0.0
 11
236.2314366048
 21
257.676870598
 31
0.0
  0
LINE
  5
10C
330
EB
100
AcDbEntity
  8
$DDT_AUDIT_GENERATED_(ED)
  6
Continuous
 62
     7
 48
25.4
100
AcDbLine
 10
236.2314366048
 20
257.676870598
 30
0.0
 11
241.7314366048
 21
257.676870598
 31
0.0
  0
LINE
  5
10D
330
EB
100
AcDbEntity
  8
$DDT_AUDIT_GENERATED_(ED)
  6
Continuous
 62
     7
 48
25.4
100
AcDbLine
 10
241.7314366048
 20
257.676870598
 30
0.0
 11
241.7314366048
 21
262.176870598
 31
0.0
  0
LINE
  5
10E
330
EB
100
AcDbEntity
  8
$DDT_AUDIT_GENERATED_(ED)
  6
Continuous
 62
     7
 48
25.4
100
AcDbLine
 10
241.7314366048
 20
262.176870598
 30
0.0
 11
352.8314366048
 21
262.176870598
 31
0.0
  0
LINE
  5
10F
330
EB
100
AcDbEntity
  8
$DDT_AUDIT_GENERATED_(ED)
  6
Continuous
 62
     7
 48
25.4
100
AcDbLine
 10
521.7314366048
 20
262.176870598
 30
0.0
 11
521.7314366048
 21
267.176870598
 31
0.0
  0
LINE
  5
110
330
EB
100
AcDbEntity
  8
$DDT_AUDIT_GENERATED_(ED)
  6
Continuous
 62
     7
 48
25.4
100
AcDbLine
 10
521.7314366048
 20
267.176870598
 30
0.0
 11
532.7314366048
 21
267.176870598
 31
0.0
  0
LINE
  5
111
330
EB
100
AcDbEntity
  8
$DDT_AUDIT_GENERATED_(ED)
  6
Continuous
 62
     7
 48
25.4
100
AcDbLine
 10
532.7314366048
 20
267.176870598
 30
0.0
 11
543.7314366048
 21
277.176870598
 31
0.0
  0
LINE
  5
112
330
EB
100
AcDbEntity
  8
$DDT_AUDIT_GENERATED_(ED)
  6
Continuous
 62
     7
 48
25.4
100
AcDbLine
 10
543.7314366048
 20
277.176870598
 30
0.0
 11
553.7314366048
 21
277.176870598
 31
0.0
  0
LINE
  5
113
330
EB
100
AcDbEntity
  8
$DDT_AUDIT_GENERATED_(ED)
  6
Continuous
 62
     7
 48
25.4
100
AcDbLine
 10
553.7314366048
 20
277.176870598
 30
0.0
 11
553.7314366048
 21
207.176870598
 31
0.0
  0
LINE
  5
114
330
EB
100
AcDbEntity
  8
$DDT_AUDIT_GENERATED_(ED)
  6
Continuous
 62
     7
 48
25.4
100
AcDbLine
 10
553.7314366048
 20
207.176870598
 30
0.0
 11
543.7314366048
 21
207.176870598
 31
0.0
  0
LINE
  5
115
330
EB
100
AcDbEntity
  8
$DDT_AUDIT_GENERATED_(ED)
  6
Continuous
 62
     7
 48
25.4
100
AcDbLine
 10
521.7314366048
 20
262.176870598
 30
0.0
 11
521.7314366048
 21
222.176870598
 31
0.0
  0
LINE
  5
116
330
EB
100
AcDbEntity
  8
$DDT_AUDIT_GENERATED_(ED)
  6
Continuous
 62
     7
 48
25.4
100
AcDbLine
 10
443.6464325365
 20
334.1340491607
 30
0.0
 11
425.3314366048
 21
334.1340491607
 31
0.0
  0
LINE
  5
117
330
EB
100
AcDbEntity
  8
$DDT_AUDIT_GENERATED_(ED)
  6
Continuous
 62
     7
 48
25.4
100
AcDbLine
 10
425.3314366048
 20
334.1340491607
 30
0.0
 11
425.3314366048
 21
369.1340491607
 31
0.0
  0
LINE
  5
118
330
EB
100
AcDbEntity
  8
$DDT_AUDIT_GENERATED_(ED)
  6
Continuous
 62
     7
 48
25.4
100
AcDbLine
 10
377.8314366048
 20
262.176870598
 30
0.0
 11
521.7314366048
 21
262.176870598
 31
0.0
  0
LINE
  5
119
330
EB
100
AcDbEntity
  8
$DDT_AUDIT_GENERATED_(ED)
  6
Continuous
 62
     7
 48
25.4
100
AcDbLine
 10
352.8314366048
 20
222.176870598
 30
0.0
 11
241.7314366048
 21
222.176870598
 31
0.0
  0
LINE
  5
11A
330
EB
100
AcDbEntity
  8
$DDT_AUDIT_GENERATED_(ED)
  6
Continuous
 62
     7
 48
25.4
100
AcDbLine
 10
377.8314366048
 20
274.176870598
 30
0.0
 11
420.3314366048
 21
274.176870598
 31
0.0
  0
LINE
  5
11B
330
EB
100
AcDbEntity
  8
$DDT_AUDIT_GENERATED_(ED)
  6
Continuous
 62
     7
 48
25.4
100
AcDbLine
 10
352.8314366048
 20
262.176870598
 30
0.0
 11
352.8314366048
 21
274.176870598
 31
0.0
  0
LINE
  5
11C
330
EB
100
AcDbEntity
  8
$DDT_AUDIT_GENERATED_(ED)
  6
Continuous
 62
     7
 48
25.4
100
AcDbLine
 10
377.8314366048
 20
274.176870598
 30
0.0
 11
377.8314366048
 21
262.176870598
 31
0.0
  0
ARC
  5
11D
330
EB
100
AcDbEntity
  8
$DDT_AUDIT_GENERATED_(ED)
  6
Continuous
 62
     7
 48
25.4
100
AcDbCircle
 10
365.3314366048
 20
222.176870598
 30
0.0
 40
12.5
100
AcDbArc
 50
180.0
 51
360.0
  0
LINE
  5
11E
330
EB
100
AcDbEntity
  8
$DDT_AUDIT_GENERATED_(ED)
  6
Continuous
 62
     7
 48
25.4
100
AcDbLine
 10
352.8314366048
 20
274.176870598
 30
0.0
 11
377.8314366048
 21
274.176870598
 31
0.0
  0
LINE
  5
11F
330
EB
100
AcDbEntity
  8
$DDT_AUDIT_GENERATED_(ED)
  6
Continuous
 62
     7
 48
25.4
100
AcDbLine
 10
590.2314366048
 20
446.176870598
 30
0.0
 11
590.2314366048
 21
471.176870598
 31
0.0
  0
LINE
  5
120
330
EB
100
AcDbEntity
  8
$DDT_AUDIT_GENERATED_(ED)
  6
Continuous
 62
     7
 48
25.4
100
AcDbLine
 10
71.2314366048
 20
413.676870598
 30
0.0
 11
71.2314366048
 21
218.176870598
 31
0.0
  0
LINE
  5
121
330
EB
100
AcDbEntity
  8
$DDT_AUDIT_GENERATED_(ED)
  6
Continuous
 62
     7
 48
25.4
100
AcDbLine
 10
113.2314366048
 20
456.676870598
 30
0.0
 11
71.2314366048
 21
456.676870598
 31
0.0
  0
LINE
  5
122
330
EB
100
AcDbEntity
  8
$DDT_AUDIT_GENERATED_(ED)
  6
Continuous
 62
     7
 48
25.4
100
AcDbLine
 10
71.2314366048
 20
413.676870598
 30
0.0
 11
113.2314366048
 21
413.676870598
 31
0.0
  0
LINE
  5
123
330
EB
100
AcDbEntity
  8
$DDT_AUDIT_GENERATED_(ED)
  6
Continuous
 62
     7
 48
25.4
100
AcDbLine
 10
397.2314366048
 20
421.176870598
 30
0.0
 11
510.2314366048
 21
421.176870598
 31
0.0
  0
LINE
  5
124
330
EB
100
AcDbEntity
  8
$DDT_AUDIT_GENERATED_(ED)
  6
Continuous
 62
     7
 48
25.4
100
AcDbLine
 10
510.2314366048
 20
421.176870598
 30
0.0
 11
510.2314366048
 21
424.176870598
 31
0.0
  0
LINE
  5
125
330
EB
100
AcDbEntity
  8
$DDT_AUDIT_GENERATED_(ED)
  6
Continuous
 62
     7
 48
25.4
100
AcDbLine
 10
510.2314366048
 20
424.176870598
 30
0.0
 11
590.2314366048
 21
424.176870598
 31
0.0
  0
LINE
  5
126
330
EB
100
AcDbEntity
  8
$DDT_AUDIT_GENERATED_(ED)
  6
Continuous
 62
     7
 48
25.4
100
AcDbLine
 10
590.2314366048
 20
446.176870598
 30
0.0
 11
510.2314366048
 21
446.176870598
 31
0.0
  0
LINE
  5
127
330
EB
100
AcDbEntity
  8
$DDT_AUDIT_GENERATED_(ED)
  6
Continuous
 62
     7
 48
25.4
100
AcDbLine
 10
510.2314366048
 20
446.176870598
 30
0.0
 11
510.2314366048
 21
449.176870598
 31
0.0
  0
LINE
  5
128
330
EB
100
AcDbEntity
  8
$DDT_AUDIT_GENERATED_(ED)
  6
Continuous
 62
     7
 48
25.4
100
AcDbLine
 10
510.2314366048
 20
449.176870598
 30
0.0
 11
464.2314366048
 21
449.176870598
 31
0.0
  0
LINE
  5
129
330
EB
100
AcDbEntity
  8
$DDT_AUDIT_GENERATED_(ED)
  6
Continuous
 62
     7
 48
25.4
100
AcDbLine
 10
113.2314366048
 20
402.176870598
 30
0.0
 11
113.2314366048
 21
413.676870598
 31
0.0
  0
LINE
  5
12A
330
EB
100
AcDbEntity
  8
$DDT_AUDIT_GENERATED_(ED)
  6
Continuous
 62
     7
 48
25.4
100
AcDbLine
 10
113.2314366048
 20
456.676870598
 30
0.0
 11
113.2314366048
 21
468.176870598
 31
0.0
  0
ARC
  5
12B
330
EB
100
AcDbEntity
  8
$DDT_AUDIT_GENERATED_(ED)
  6
Continuous
 62
     7
 48
25.4
100
AcDbCircle
 10
321.3174332407
 20
339.0992843911
 30
0.0
 40
133.7161579313144
100
AcDbArc
 50
63.8584678447
 51
92.6086781989
  0
LINE
  5
12C
330
EB
100
AcDbEntity
  8
$DDT_AUDIT_GENERATED_(ED)
  6
Continuous
 62
     7
 48
25.4
100
AcDbLine
 10
113.2314366048
 20
468.176870598
 30
0.0
 11
315.2314366048
 21
466.176870598
 31
0.0
  0
LINE
  5
12D
330
EB
100
AcDbEntity
  8
$DDT_AUDIT_GENERATED_(ED)
  6
Continuous
 62
     7
 48
25.4
100
AcDbLine
 10
315.2314366048
 20
466.176870598
 30
0.0
 11
315.2314366048
 21
472.676870598
 31
0.0
  0
ARC
  5
12E
330
EB
100
AcDbEntity
  8
$DDT_AUDIT_GENERATED_(ED)
  6
Continuous
 62
     7
 48
25.4
100
AcDbCircle
 10
321.3174332407
 20
531.2544568049
 30
0.0
 40
133.7161579313144
100
AcDbArc
 50
267.3913218011
 51
304.5917337159
  0
LINE
  5
12F
330
EB
100
AcDbEntity
  8
$DDT_AUDIT_GENERATED_(ED)
  6
Continuous
 62
     7
 48
25.4
100
AcDbLine
 10
315.2314366048
 20
397.676870598
 30
0.0
 11
315.2314366048
 21
404.176870598
 31
0.0
  0
LINE
  5
130
330
EB
100
AcDbEntity
  8
$DDT_AUDIT_GENERATED_(ED)
  6
Continuous
 62
     7
 48
25.4
100
AcDbLine
 10
315.2314366048
 20
404.176870598
 30
0.0
 11
113.2314366048
 21
402.176870598
 31
0.0
  0
ARC
  5
131
330
EB
100
AcDbEntity
  8
$DDT_AUDIT_GENERATED_(ED)
  6
Continuous
 62
     7
 48
25.4
100
AcDbCircle
 10
449.7314366048
 20
468.676870598
 30
0.0
 40
12.50000000000007
100
AcDbArc
 50
0.0
 51
180.0
  0
LINE
  5
132
330
EB
100
AcDbEntity
  8
$DDT_AUDIT_GENERATED_(ED)
  6
Continuous
 62
     7
 48
25.4
100
AcDbLine
 10
437.2314366048
 20
468.676870598
 30
0.0
 11
437.2314366048
 21
451.176870598
 31
0.0
  0
ARC
  5
133
330
EB
100
AcDbEntity
  8
$DDT_AUDIT_GENERATED_(ED)
  6
Continuous
 62
     7
 48
25.4
100
AcDbCircle
 10
253.3314366048
 20
475.7188317693
 30
0.0
 40
171.5847826086952
100
AcDbArc
 50
273.3396837698
 51
279.3917923905
  0
LINE
  5
134
330
EB
100
AcDbEntity
  8
$DDT_AUDIT_GENERATED_(ED)
  6
Continuous
 62
     7
 48
25.4
100
AcDbLine
 10
225.3314366048
 20
306.4340491607
 30
0.0
 11
225.3314366048
 21
322.1340491607
 31
0.0
  0
ARC
  5
135
330
EB
100
AcDbEntity
  8
$DDT_AUDIT_GENERATED_(ED)
  6
Continuous
 62
     7
 48
25.4
100
AcDbCircle
 10
228.3314366048
 20
322.1340491607
 30
0.0
 40
3.000000000000003
100
AcDbArc
 50
90.0
 51
180.0
  0
LINE
  5
136
330
EB
100
AcDbEntity
  8
$DDT_AUDIT_GENERATED_(ED)
  6
Continuous
 62
     7
 48
25.4
100
AcDbLine
 10
228.3314366048
 20
325.1340491607
 30
0.0
 11
243.3314366048
 21
325.1340491607
 31
0.0
  0
ARC
  5
137
330
EB
100
AcDbEntity
  8
$DDT_AUDIT_GENERATED_(ED)
  6
Continuous
 62
     7
 48
25.4
100
AcDbCircle
 10
278.3314366048
 20
322.1340491607
 30
0.0
 40
3.000000000000003
100
AcDbArc
 50
0.0
 51
90.0
  0
LINE
  5
138
330
EB
100
AcDbEntity
  8
$DDT_AUDIT_GENERATED_(ED)
  6
Continuous
 62
     7
 48
25.4
100
AcDbLine
 10
281.3314366048
 20
322.1340491607
 30
0.0
 11
281.3314366048
 21
306.4340491607
 31
0.0
  0
LINE
  5
139
330
EB
100
AcDbEntity
  8
$DDT_AUDIT_GENERATED_(ED)
  6
Continuous
 62
     7
 48
25.4
100
AcDbLine
 10
201.2314366048
 20
290.176870598
 30
0.0
 11
201.2314366048
 21
301.176870598
 31
0.0
  0
LINE
  5
13A
330
EB
100
AcDbEntity
  8
$DDT_AUDIT_GENERATED_(ED)
  6
Continuous
 62
     7
 48
25.4
100
AcDbLine
 10
121.2314366048
 20
304.176870598
 30
0.0
 11
98.2152782
 21
295.8910535722
 31
0.0
  0
LINE
  5
13B
330
EB
100
AcDbEntity
  8
$DDT_AUDIT_GENERATED_(ED)
  6
Continuous
 62
     7
 48
25.4
100
AcDbLine
 10
137.2314366048
 20
265.176870598
 30
0.0
 11
150.5199666973
 21
265.176870598
 31
0.0
  0
LINE
  5
13C
330
EB
100
AcDbEntity
  8
$DDT_AUDIT_GENERATED_(ED)
  6
Continuous
 62
     7
 48
25.4
100
AcDbLine
 10
201.2314366048
 20
265.176870598
 30
0.0
 11
201.2314366048
 21
270.176870598
 31
0.0
  0
LINE
  5
13D
330
EB
100
AcDbEntity
  8
$DDT_AUDIT_GENERATED_(ED)
  6
Continuous
 62
     7
 48
25.4
100
AcDbLine
 10
201.2314366048
 20
270.176870598
 30
0.0
 11
211.2314366048
 21
271.676870598
 31
0.0
  0
LINE
  5
13E
330
EB
100
AcDbEntity
  8
$DDT_AUDIT_GENERATED_(ED)
  6
Continuous
 62
     7
 48
25.4
100
AcDbLine
 10
211.2314366048
 20
271.676870598
 30
0.0
 11
211.2314366048
 21
275.676870598
 31
0.0
  0
LINE
  5
13F
330
EB
100
AcDbEntity
  8
$DDT_AUDIT_GENERATED_(ED)
  6
Continuous
 62
     7
 48
25.4
100
AcDbLine
 10
211.2314366048
 20
275.676870598
 30
0.0
 11
238.358383799
 21
275.676870598
 31
0.0
  0
ARC
  5
140
330
EB
100
AcDbEntity
  8
$DDT_AUDIT_GENERATED_(ED)
  6
Continuous
 62
     7
 48
25.4
100
AcDbCircle
 10
238.358383799
 20
304.676870598
 30
0.0
 40
28.99999999999625
100
AcDbArc
 50
270.0
 51
286.3495288874
  0
LINE
  5
141
330
EB
100
AcDbEntity
  8
$DDT_AUDIT_GENERATED_(ED)
  6
Continuous
 62
     7
 48
25.4
100
AcDbLine
 10
246.5217765023
 20
276.8495635135
 30
0.0
 11
292.5164736037
 21
290.3425247104
 31
0.0
  0
ARC
  5
142
330
EB
100
AcDbEntity
  8
$DDT_AUDIT_GENERATED_(ED)
  6
Continuous
 62
     7
 48
25.4
100
AcDbCircle
 10
239.0766470005
 20
299.676870598
 30
0.0
 40
14.99999999999665
100
AcDbArc
 50
270.0
 51
286.3495288874
  0
LINE
  5
143
330
EB
100
AcDbEntity
  8
$DDT_AUDIT_GENERATED_(ED)
  6
Continuous
 62
     7
 48
25.4
100
AcDbLine
 10
239.0766470005
 20
284.676870598
 30
0.0
 11
211.2314366048
 21
284.676870598
 31
0.0
  0
LINE
  5
144
330
EB
100
AcDbEntity
  8
$DDT_AUDIT_GENERATED_(ED)
  6
Continuous
 62
     7
 48
25.4
100
AcDbLine
 10
211.2314366048
 20
284.676870598
 30
0.0
 11
211.2314366048
 21
288.676870598
 31
0.0
  0
LINE
  5
145
330
EB
100
AcDbEntity
  8
$DDT_AUDIT_GENERATED_(ED)
  6
Continuous
 62
     7
 48
25.4
100
AcDbLine
 10
211.2314366048
 20
288.676870598
 30
0.0
 11
201.2314366048
 21
290.176870598
 31
0.0
  0
LINE
  5
146
330
EB
100
AcDbEntity
  8
$DDT_AUDIT_GENERATED_(ED)
  6
Continuous
 62
     7
 48
25.4
100
AcDbLine
 10
96.2314366048
 20
224.176870598
 30
0.0
 11
137.2314366048
 21
224.176870598
 31
0.0
  0
LINE
  5
147
330
EB
100
AcDbEntity
  8
$DDT_AUDIT_GENERATED_(ED)
  6
Continuous
 62
     7
 48
25.4
100
AcDbLine
 10
137.2314366048
 20
224.176870598
 30
0.0
 11
137.2314366048
 21
265.176870598
 31
0.0
  0
ARC
  5
148
330
EB
100
AcDbEntity
  8
$DDT_AUDIT_GENERATED_(ED)
  6
Continuous
 62
     7
 48
25.4
100
AcDbCircle
 10
188.2314366048
 20
374.1340491607
 30
0.0
 40
12.5
100
AcDbArc
 50
7.9281417662
 51
172.0718582338
  0
LINE
  5
149
330
EB
100
AcDbEntity
  8
$DDT_AUDIT_GENERATED_(ED)
  6
Continuous
 62
     7
 48
25.4
100
AcDbLine
 10
173.8700299885
 20
374.1340491607
 30
0.0
 11
90.2314366048
 21
374.1340491607
 31
0.0
  0
ARC
  5
14A
330
EB
100
AcDbEntity
  8
$DDT_AUDIT_GENERATED_(ED)
  6
Continuous
 62
     7
 48
25.4
100
AcDbCircle
 10
173.8700299885
 20
376.1340491607
 30
0.0
 40
1.999999999999998
100
AcDbArc
 50
270.0
 51
352.0718582338
  0
LINE
  5
14B
330
EB
100
AcDbEntity
  8
$DDT_AUDIT_GENERATED_(ED)
  6
Continuous
 62
     7
 48
25.4
100
AcDbLine
 10
405.2314366048
 20
466.176870598
 30
0.0
 11
382.2314366048
 21
466.176870598
 31
0.0
  0
ARC
  5
14C
330
EB
100
AcDbEntity
  8
$DDT_AUDIT_GENERATED_(ED)
  6
Continuous
 62
     7
 48
25.4
100
AcDbCircle
 10
405.2314366048
 20
464.176870598
 30
0.0
 40
2.000000000000002
100
AcDbArc
 50
0.0
 51
90.0
  0
LINE
  5
14D
330
EB
100
AcDbEntity
  8
$DDT_AUDIT_GENERATED_(ED)
  6
Continuous
 62
     7
 48
25.4
100
AcDbLine
 10
380.2314366048
 20
464.176870598
 30
0.0
 11
380.2314366048
 21
459.1374079165
 31
0.0
  0
ARC
  5
14E
330
EB
100
AcDbEntity
  8
$DDT_AUDIT_GENERATED_(ED)
  6
Continuous
 62
     7
 48
25.4
100
AcDbCircle
 10
382.2314366048
 20
464.176870598
 30
0.0
 40
2.000000000000002
100
AcDbArc
 50
90.0
 51
180.0
  0
LINE
  5
14F
330
EB
100
AcDbEntity
  8
$DDT_AUDIT_GENERATED_(ED)
  6
Continuous
 62
     7
 48
25.4
100
AcDbLine
 10
462.2314366048
 20
451.176870598
 30
0.0
 11
462.2314366048
 21
468.676870598
 31
0.0
  0
ARC
  5
150
330
EB
100
AcDbEntity
  8
$DDT_AUDIT_GENERATED_(ED)
  6
Continuous
 62
     7
 48
25.4
100
AcDbCircle
 10
464.2314366048
 20
451.176870598
 30
0.0
 40
2.000000000000002
100
AcDbArc
 50
180.0
 51
270.0
  0
LINE
  5
151
330
EB
100
AcDbEntity
  8
$DDT_AUDIT_GENERATED_(ED)
  6
Continuous
 62
     7
 48
25.4
100
AcDbLine
 10
435.2314366048
 20
449.176870598
 30
0.0
 11
409.2314366048
 21
449.176870598
 31
0.0
  0
ARC
  5
152
330
EB
100
AcDbEntity
  8
$DDT_AUDIT_GENERATED_(ED)
  6
Continuous
 62
     7
 48
25.4
100
AcDbCircle
 10
435.2314366048
 20
451.176870598
 30
0.0
 40
2.000000000000002
100
AcDbArc
 50
270.0
 51
360.0
  0
LINE
  5
153
330
EB
100
AcDbEntity
  8
$DDT_AUDIT_GENERATED_(ED)
  6
Continuous
 62
     7
 48
25.4
100
AcDbLine
 10
407.2314366048
 20
451.176870598
 30
0.0
 11
407.2314366048
 21
464.176870598
 31
0.0
  0
ARC
  5
154
330
EB
100
AcDbEntity
  8
$DDT_AUDIT_GENERATED_(ED)
  6
Continuous
 62
     7
 48
25.4
100
AcDbCircle
 10
409.2314366048
 20
451.176870598
 30
0.0
 40
2.000000000000002
100
AcDbArc
 50
180.0
 51
270.0
  0
ARC
  5
155
330
EB
100
AcDbEntity
  8
$DDT_AUDIT_GENERATED_(ED)
  6
Continuous
 62
     7
 48
25.4
100
AcDbCircle
 10
150.5199666973
 20
263.176870598
 30
0.0
 40
2.000000000000003
100
AcDbArc
 50
7.9281417662
 51
90.0
  0
ARC
  5
156
330
EB
100
AcDbEntity
  8
$DDT_AUDIT_GENERATED_(ED)
  6
Continuous
 62
     7
 48
25.4
100
AcDbCircle
 10
164.8813733137
 20
265.176870598
 30
0.0
 40
12.50000000000001
100
AcDbArc
 50
187.9281417662
 51
352.0718582338
  0
LINE
  5
157
330
EB
100
AcDbEntity
  8
$DDT_AUDIT_GENERATED_(ED)
  6
Continuous
 62
     7
 48
25.4
100
AcDbLine
 10
179.24277993
 20
265.176870598
 30
0.0
 11
201.2314366048
 21
265.176870598
 31
0.0
  0
ARC
  5
158
330
EB
100
AcDbEntity
  8
$DDT_AUDIT_GENERATED_(ED)
  6
Continuous
 62
     7
 48
25.4
100
AcDbCircle
 10
179.24277993
 20
263.176870598
 30
0.0
 40
2.000000000000002
100
AcDbArc
 50
90.0
 51
172.0718582338
  0
ARC
  5
159
330
EB
100
AcDbEntity
  8
$DDT_AUDIT_GENERATED_(ED)
  6
Continuous
 62
     7
 48
25.4
100
AcDbCircle
 10
179.24277993
 20
306.176870598
 30
0.0
 40
2.000000000000003
100
AcDbArc
 50
187.9281417662
 51
270.0
  0
ARC
  5
15A
330
EB
100
AcDbEntity
  8
$DDT_AUDIT_GENERATED_(ED)
  6
Continuous
 62
     7
 48
25.4
100
AcDbCircle
 10
164.8813733137
 20
304.176870598
 30
0.0
 40
12.50000000000001
100
AcDbArc
 50
7.9281417662
 51
172.0718582338
  0
LINE
  5
15B
330
EB
100
AcDbEntity
  8
$DDT_AUDIT_GENERATED_(ED)
  6
Continuous
 62
     7
 48
25.4
100
AcDbLine
 10
150.5199666973
 20
304.176870598
 30
0.0
 11
121.2314366048
 21
304.176870598
 31
0.0
  0
ARC
  5
15C
330
EB
100
AcDbEntity
  8
$DDT_AUDIT_GENERATED_(ED)
  6
Continuous
 62
     7
 48
25.4
100
AcDbCircle
 10
150.5199666973
 20
306.176870598
 30
0.0
 40
2.000000000000009
100
AcDbArc
 50
270.0
 51
352.0718582338
  0
ARC
  5
15D
330
EB
100
AcDbEntity
  8
$DDT_AUDIT_GENERATED_(ED)
  6
Continuous
 62
     7
 48
25.4
100
AcDbCircle
 10
173.8700299885
 20
338.1340491607
 30
0.0
 40
2.000000000000003
100
AcDbArc
 50
7.9281417662
 51
90.0
  0
ARC
  5
15E
330
EB
100
AcDbEntity
  8
$DDT_AUDIT_GENERATED_(ED)
  6
Continuous
 62
     7
 48
25.4
100
AcDbCircle
 10
188.2314366048
 20
340.1340491607
 30
0.0
 40
12.5
100
AcDbArc
 50
187.9281417662
 51
352.0718582338
  0
LINE
  5
15F
330
EB
100
AcDbEntity
  8
$DDT_AUDIT_GENERATED_(ED)
  6
Continuous
 62
     7
 48
25.4
100
AcDbLine
 10
202.5928432212
 20
340.1340491607
 30
0.0
 11
286.2314366048
 21
340.1340491607
 31
0.0
  0
ARC
  5
160
330
EB
100
AcDbEntity
  8
$DDT_AUDIT_GENERATED_(ED)
  6
Continuous
 62
     7
 48
25.4
100
AcDbCircle
 10
202.5928432212
 20
338.1340491607
 30
0.0
 40
2.0
100
AcDbArc
 50
90.0
 51
172.0718582338
  0
ARC
  5
161
330
EB
100
AcDbEntity
  8
$DDT_AUDIT_GENERATED_(ED)
  6
Continuous
 62
     7
 48
25.4
100
AcDbCircle
 10
202.5928432212
 20
376.1340491607
 30
0.0
 40
2.000000000000003
100
AcDbArc
 50
187.9281417662
 51
270.0
  0
LINE
  5
162
330
EB
100
AcDbEntity
  8
$DDT_AUDIT_GENERATED_(ED)
  6
Continuous
 62
     7
 48
25.4
100
AcDbLine
 10
288.2314366048
 20
342.1340491607
 30
0.0
 11
288.2314366048
 21
372.1340491607
 31
0.0
  0
ARC
  5
163
330
EB
100
AcDbEntity
  8
$DDT_AUDIT_GENERATED_(ED)
  6
Continuous
 62
     7
 48
25.4
100
AcDbCircle
 10
286.2314366048
 20
342.1340491607
 30
0.0
 40
2.000000000000002
100
AcDbArc
 50
270.0
 51
360.0
  0
LINE
  5
164
330
EB
100
AcDbEntity
  8
$DDT_AUDIT_GENERATED_(ED)
  6
Continuous
 62
     7
 48
25.4
100
AcDbLine
 10
90.2314366048
 20
340.1340491607
 30
0.0
 11
173.8700299885
 21
340.1340491607
 31
0.0
  0
ARC
  5
165
330
EB
100
AcDbEntity
  8
$DDT_AUDIT_GENERATED_(ED)
  6
Continuous
 62
     7
 48
25.4
100
AcDbCircle
 10
90.2314366048
 20
342.1340491607
 30
0.0
 40
2.0
100
AcDbArc
 50
180.0
 51
270.0
  0
LINE
  5
166
330
EB
100
AcDbEntity
  8
$DDT_AUDIT_GENERATED_(ED)
  6
Continuous
 62
     7
 48
25.4
100
AcDbLine
 10
88.2314366048
 20
372.1340491607
 30
0.0
 11
88.2314366048
 21
342.1340491607
 31
0.0
  0
ARC
  5
167
330
EB
100
AcDbEntity
  8
$DDT_AUDIT_GENERATED_(ED)
  6
Continuous
 62
     7
 48
25.4
100
AcDbCircle
 10
90.2314366048
 20
372.1340491607
 30
0.0
 40
2.000000000000002
100
AcDbArc
 50
90.0
 51
180.0
  0
LINE
  5
168
330
EB
100
AcDbEntity
  8
$DDT_AUDIT_GENERATED_(ED)
  6
Continuous
 62
     7
 48
25.4
100
AcDbLine
 10
286.2314366048
 20
374.1340491607
 30
0.0
 11
202.5928432212
 21
374.1340491607
 31
0.0
  0
ARC
  5
169
330
EB
100
AcDbEntity
  8
$DDT_AUDIT_GENERATED_(ED)
  6
Continuous
 62
     7
 48
25.4
100
AcDbCircle
 10
286.2314366048
 20
372.1340491607
 30
0.0
 40
1.999999999999998
100
AcDbArc
 50
0.0
 51
90.0
  0
LINE
  5
16A
330
EB
100
AcDbEntity
  8
$DDT_AUDIT_GENERATED_(ED)
  6
Continuous
 62
     7
 48
25.4
100
AcDbLine
 10
96.2314366048
 20
293.0683913366
 30
0.0
 11
96.2314366048
 21
224.176870598
 31
0.0
  0
ARC
  5
16B
330
EB
100
AcDbEntity
  8
$DDT_AUDIT_GENERATED_(ED)
  6
Continuous
 62
     7
 48
25.4
100
AcDbCircle
 10
99.2314366048
 20
293.0683913366
 30
0.0
 40
3.000000000000003
100
AcDbArc
 50
109.7988763545
 51
180.0
  0
LINE
  5
16C
330
EB
100
AcDbEntity
  8
$DDT_AUDIT_GENERATED_(ED)
  6
Continuous
 62
     7
 48
25.4
100
AcDbLine
 10
198.2314366048
 20
304.176870598
 30
0.0
 11
179.24277993
 21
304.176870598
 31
0.0
  0
ARC
  5
16D
330
EB
100
AcDbEntity
  8
$DDT_AUDIT_GENERATED_(ED)
  6
Continuous
 62
     7
 48
25.4
100
AcDbCircle
 10
198.2314366048
 20
301.176870598
 30
0.0
 40
3.000000000000003
100
AcDbArc
 50
0.0
 51
90.0
  0
LINE
  5
16E
330
EB
100
AcDbEntity
  8
$DDT_AUDIT_GENERATED_(ED)
  6
Continuous
 62
     7
 48
25.4
100
AcDbLine
 10
305.3314366048
 20
369.1340491607
 30
0.0
 11
305.3314366048
 21
310.9690138882
 31
0.0
  0
ARC
  5
16F
330
EB
100
AcDbEntity
  8
$DDT_AUDIT_GENERATED_(ED)
  6
Continuous
 62
     7
 48
25.4
100
AcDbCircle
 10
310.3314366048
 20
369.1340491607
 30
0.0
 40
5.000000000000001
100
AcDbArc
 50
90.0
 51
180.0
  0
LINE
  5
170
330
EB
100
AcDbEntity
  8
$DDT_AUDIT_GENERATED_(ED)
  6
Continuous
 62
     7
 48
25.4
100
AcDbLine
 10
484.4241273611
 20
340.6340491607
 30
0.0
 11
518.8456650213
 21
340.6340491607
 31
0.0
  0
ARC
  5
171
330
EB
100
AcDbEntity
  8
$DDT_AUDIT_GENERATED_(ED)
  6
Continuous
 62
     7
 48
25.4
100
AcDbCircle
 10
484.4241273611
 20
335.6340491607
 30
0.0
 40
5.000000000000001
100
AcDbArc
 50
90.0
 51
165.0
  0
ARC
  5
172
330
EB
100
AcDbEntity
  8
$DDT_AUDIT_GENERATED_(ED)
  6
Continuous
 62
     7
 48
25.4
100
AcDbCircle
 10
420.3314366048
 20
369.1340491607
 30
0.0
 40
5.000000000000001
100
AcDbArc
 50
0.0
 51
90.0
  0
LINE
  5
173
330
EB
100
AcDbEntity
  8
$DDT_AUDIT_GENERATED_(ED)
  6
Continuous
 62
     7
 48
25.4
100
AcDbLine
 10
425.3314366048
 20
279.176870598
 30
0.0
 11
425.3314366048
 21
334.1340491607
 31
0.0
  0
ARC
  5
174
330
EB
100
AcDbEntity
  8
$DDT_AUDIT_GENERATED_(ED)
  6
Continuous
 62
     7
 48
25.4
100
AcDbCircle
 10
420.3314366048
 20
279.176870598
 30
0.0
 40
5.000000000000004
100
AcDbArc
 50
270.0
 51
360.0
  0
LINE
  5
175
330
EB
100
AcDbEntity
  8
$DDT_AUDIT_GENERATED_(ED)
  6
Continuous
 62
     7
 48
25.4
100
AcDbLine
 10
310.3314366048
 20
274.176870598
 30
0.0
 11
352.8314366048
 21
274.176870598
 31
0.0
  0
ARC
  5
176
330
EB
100
AcDbEntity
  8
$DDT_AUDIT_GENERATED_(ED)
  6
Continuous
 62
     7
 48
25.4
100
AcDbCircle
 10
310.3314366048
 20
279.176870598
 30
0.0
 40
5.000000000000004
100
AcDbArc
 50
180.0
 51
270.0
  0
LINE
  5
177
330
EB
100
AcDbEntity
  8
$DDT_AUDIT_GENERATED_(ED)
  6
Continuous
 62
     7
 48
25.4
100
AcDbLine
 10
305.3314366048
 20
280.7469015778
 30
0.0
 11
305.3314366048
 21
310.9690138882
 31
0.0
  0
LINE
  5
178
330
EB
100
AcDbEntity
  8
$DDT_AUDIT_GENERATED_(ED)
  6
Continuous
 62
     7
 48
25.4
100
AcDbLine
 10
211.2314366048
 20
284.676870598
 30
0.0
 11
211.2314366048
 21
275.676870598
 31
0.0
  0
LINE
  5
179
330
EB
100
AcDbEntity
  8
$DDT_AUDIT_GENERATED_(ED)
  6
Continuous
 62
     7
 48
25.4
100
AcDbLine
 10
298.1463996059
 20
301.3733907556
 30
0.0
 11
243.2990915022
 21
285.2834358991
 31
0.0
  0
ARC
  5
17A
330
EB
100
AcDbEntity
  8
$DDT_AUDIT_GENERATED_(ED)
  6
Continuous
 62
     7
 48
25.4
100
AcDbCircle
 10
295.3314366048
 20
310.9690138882
 30
0.0
 40
9.999999999999996
100
AcDbArc
 50
286.3495288874
 51
360.0
  0
LINE
  5
17B
330
EB
100
AcDbEntity
  8
$DDT_AUDIT_GENERATED_(ED)
  6
Continuous
 62
     7
 48
25.4
100
AcDbLine
 10
305.3314366048
 20
280.7469015778
 30
0.0
 11
305.3314366048
 21
279.176870598
 31
0.0
  0
ARC
  5
17C
330
EB
100
AcDbEntity
  8
$DDT_AUDIT_GENERATED_(ED)
  6
Continuous
 62
     7
 48
25.4
100
AcDbCircle
 10
295.3314366048
 20
280.7469015778
 30
0.0
 40
10.0
100
AcDbArc
 50
0.0
 51
106.3495288874
  0
ARC
  5
17D
330
EB
100
AcDbEntity
  8
$DDT_AUDIT_GENERATED_(ED)
  6
Continuous
 62
     7
 48
25.4
100
AcDbCircle
 10
253.3314366048
 20
475.7188317693
 30
0.0
 40
171.5847826086952
100
AcDbArc
 50
260.6082076095
 51
266.6603162302
  0
ARC
  5
17E
330
EB
100
AcDbEntity
  8
$DDT_AUDIT_GENERATED_(ED)
  6
Continuous
 62
     7
 48
25.4
100
AcDbCircle
 10
253.3314366048
 20
304.1340491607
 30
0.0
 40
10.0
100
AcDbArc
 50
178.3301581151
 51
1.6698418849
  0
LINE
  5
17F
330
EB
100
AcDbEntity
  8
$DDT_AUDIT_GENERATED_(ED)
  6
Continuous
 62
     7
 48
25.4
100
AcDbLine
 10
263.3314366048
 20
325.1340491607
 30
0.0
 11
278.3314366048
 21
325.1340491607
 31
0.0
  0
ARC
  5
180
330
EB
100
AcDbEntity
  8
$DDT_AUDIT_GENERATED_(ED)
  6
Continuous
 62
     7
 48
25.4
100
AcDbCircle
 10
253.3314366048
 20
325.1340491607
 30
0.0
 40
9.999999999999995
100
AcDbArc
 50
0.0
 51
180.0
  0
LINE
  5
182
330
EB
100
AcDbEntity
  8
SKUM-3._DK2500--
  6
Continuous
 62
     7
 48
25.4
100
AcDbLine
 10
71.2314366048
 20
430.676870598
 30
0.0
 11
71.2314366048
 21
413.676870598
 31
0.0
  0
LINE
  5
183
330
EB
100
AcDbEntity
  8
SKUM-3._DK2500--
  6
Continuous
 62
     7
 48
25.4
100
AcDbLine
 10
131.2314366048
 20
447.9504059805
 30
0.0
 11
131.2314366048
 21
440.676870598
 31
0.0
  0
ARC
  5
184
330
EB
100
AcDbEntity
  8
SKUM-3._DK2500--
  6
Continuous
 62
     7
 48
25.4
100
AcDbCircle
 10
121.2314366048
 20
440.676870598
 30
0.0
 40
10.00000000000001
100
AcDbArc
 50
270.0
 51
360.0
  0
LINE
  5
185
330
EB
100
AcDbEntity
  8
SKUM-3._DK2500--
  6
Continuous
 62
     7
 48
25.4
100
AcDbLine
 10
121.2314366048
 20
430.676870598
 30
0.0
 11
71.2314366048
 21
430.676870598
 31
0.0
  0
LINE
  5
187
330
EB
100
AcDbEntity
  8
$DDT_AUDIT_GENERATED_(186)
  6
Continuous
 62
     7
 48
25.4
100
AcDbLine
 10
131.2314366048
 20
467.9986527762
 30
0.0
 11
131.2314366048
 21
447.9504059805
 31
0.0
  0
LINE
  5
188
330
EB
100
AcDbEntity
  8
$DDT_AUDIT_GENERATED_(186)
  6
Continuous
 62
     7
 48
25.4
100
AcDbLine
 10
113.2314366048
 20
413.676870598
 30
0.0
 11
119.2314366048
 21
413.676870598
 31
0.0
  0
LINE
  5
189
330
EB
100
AcDbEntity
  8
$DDT_AUDIT_GENERATED_(186)
  6
Continuous
 62
     7
 48
25.4
100
AcDbLine
 10
119.2314366048
 20
413.676870598
 30
0.0
 11
119.2314366048
 21
419.9504059805
 31
0.0
  0
LINE
  5
18A
330
EB
100
AcDbEntity
  8
$DDT_AUDIT_GENERATED_(186)
  6
Continuous
 62
     7
 48
25.4
100
AcDbLine
 10
119.2314366048
 20
419.9504059805
 30
0.0
 11
191.2314366048
 21
419.9504059805
 31
0.0
  0
LINE
  5
18B
330
EB
100
AcDbEntity
  8
$DDT_AUDIT_GENERATED_(186)
  6
Continuous
 62
     7
 48
25.4
100
AcDbLine
 10
191.2314366048
 20
419.9504059805
 30
0.0
 11
191.2314366048
 21
427.176870598
 31
0.0
  0
LINE
  5
18C
330
EB
100
AcDbEntity
  8
$DDT_AUDIT_GENERATED_(186)
  6
Continuous
 62
     7
 48
25.4
100
AcDbLine
 10
191.2314366048
 20
447.9504059805
 30
0.0
 11
131.2314366048
 21
447.9504059805
 31
0.0
  0
LINE
  5
18D
330
EB
100
AcDbEntity
  8
$DDT_AUDIT_GENERATED_(186)
  6
Continuous
 62
     7
 48
25.4
100
AcDbLine
 10
191.2314366048
 20
443.176870598
 30
0.0
 11
191.2314366048
 21
447.9504059805
 31
0.0
  0
LINE
  5
18E
330
EB
100
AcDbEntity
  8
$DDT_AUDIT_GENERATED_(186)
  6
Continuous
 62
     7
 48
25.4
100
AcDbLine
 10
191.2314366048
 20
443.176870598
 30
0.0
 11
191.2314366048
 21
427.176870598
 31
0.0
  0
LINE
  5
18F
330
EB
100
AcDbEntity
  8
$DDT_AUDIT_GENERATED_(186)
  6
Continuous
 62
     7
 48
25.4
100
AcDbLine
 10
590.2314366048
 20
424.176870598
 30
0.0
 11
590.2314366048
 21
446.176870598
 31
0.0
  0
LINE
  5
190
330
EB
100
AcDbEntity
  8
$DDT_AUDIT_GENERATED_(186)
  6
Continuous
 62
     7
 48
25.4
100
AcDbLine
 10
380.2314366048
 20
459.1374079165
 30
0.0
 11
380.2314366048
 21
443.176870598
 31
0.0
  0
LINE
  5
191
330
EB
100
AcDbEntity
  8
$DDT_AUDIT_GENERATED_(186)
  6
Continuous
 62
     7
 48
25.4
100
AcDbLine
 10
380.2314366048
 20
443.176870598
 30
0.0
 11
191.2314366048
 21
443.176870598
 31
0.0
  0
LINE
  5
192
330
EB
100
AcDbEntity
  8
$DDT_AUDIT_GENERATED_(186)
  6
Continuous
 62
     7
 48
25.4
100
AcDbLine
 10
191.2314366048
 20
427.176870598
 30
0.0
 11
385.2314366048
 21
427.176870598
 31
0.0
  0
LINE
  5
193
330
EB
100
AcDbEntity
  8
$DDT_AUDIT_GENERATED_(186)
  6
Continuous
 62
     7
 48
25.4
100
AcDbLine
 10
385.2314366048
 20
427.176870598
 30
0.0
 11
385.2314366048
 21
421.176870598
 31
0.0
  0
LINE
  5
194
330
EB
100
AcDbEntity
  8
$DDT_AUDIT_GENERATED_(186)
  6
Continuous
 62
     7
 48
25.4
100
AcDbLine
 10
385.2314366048
 20
421.176870598
 30
0.0
 11
397.2314366048
 21
421.176870598
 31
0.0
  0
LINE
  5
195
330
EB
100
AcDbEntity
  8
$DDT_AUDIT_GENERATED_(186)
  6
Continuous
 62
     7
 48
25.4
100
AcDbLine
 10
407.2314366048
 20
449.176870598
 30
0.0
 11
407.2314366048
 21
451.176870598
 31
0.0
  0
LINE
  5
196
330
EB
100
AcDbEntity
  8
$DDT_AUDIT_GENERATED_(186)
  6
Continuous
 62
     7
 48
25.4
100
AcDbLine
 10
409.2314366048
 20
449.176870598
 30
0.0
 11
407.2314366048
 21
449.176870598
 31
0.0
  0
LINE
  5
198
330
EB
100
AcDbEntity
  8
$DDT_AUDIT_GENERATED_(197)
  6
Continuous
 62
     7
 48
25.4
100
AcDbLine
 10
113.2314366048
 20
456.676870598
 30
0.0
 11
131.2314366048
 21
456.676870598
 31
0.0
  0
LINE
  5
199
330
EB
100
AcDbEntity
  8
$DDT_AUDIT_GENERATED_(197)
  6
Continuous
 62
     7
 48
25.4
100
AcDbLine
 10
131.2314366048
 20
456.676870598
 30
0.0
 11
131.2314366048
 21
467.9986527762
 31
0.0
  0
ENDBLK
  5
19B
330
EB
100
AcDbEntity
  8
0
100
AcDbBlockEnd
  0
BLOCK
  5
1DE
330
19C
100
AcDbEntity
  8
0
100
AcDbBlockBegin
  2
SE1
 70
     0
 71
     0
 10
0.0
 20
0.0
 30
0.0
  3
SE1
  1

  0
LINE
  5
19E
330
19C
100
AcDbEntity
  8
$DDT_AUDIT_GENERATED_(ED)
  6
Continuous
 62
     7
 48
25.4
100
AcDbLine
 10
798.5727087442
 20
200.176870598
 30
0.0
 11
733.5727087442
 21
200.176870598
 31
0.0
  0
LINE
  5
19F
330
19C
100
AcDbEntity
  8
$DDT_AUDIT_GENERATED_(ED)
  6
Continuous
 62
     7
 48
25.4
100
AcDbLine
 10
733.5727087442
 20
200.176870598
 30
0.0
 11
733.5727087442
 21
218.176870598
 31
0.0
  0
LINE
  5
1A0
330
19C
100
AcDbEntity
  8
$DDT_AUDIT_GENERATED_(ED)
  6
Continuous
 62
     7
 48
25.4
100
AcDbLine
 10
798.5727087442
 20
218.176870598
 30
0.0
 11
798.5727087442
 21
200.176870598
 31
0.0
  0
LINE
  5
1A1
330
19C
100
AcDbEntity
  8
$DDT_AUDIT_GENERATED_(ED)
  6
Continuous
 62
     7
 48
25.4
100
AcDbLine
 10
733.5727087442
 20
471.176870598
 30
0.0
 11
733.5727087442
 21
456.676870598
 31
0.0
  0
LINE
  5
1A2
330
19C
100
AcDbEntity
  8
$DDT_AUDIT_GENERATED_(ED)
  6
Continuous
 62
     7
 48
25.4
100
AcDbLine
 10
798.5727087442
 20
471.176870598
 30
0.0
 11
798.5727087442
 21
456.676870598
 31
0.0
  0
LINE
  5
1A3
330
19C
100
AcDbEntity
  8
$DDT_AUDIT_GENERATED_(ED)
  6
Continuous
 62
     7
 48
25.4
100
AcDbLine
 10
733.5727087442
 20
471.176870598
 30
0.0
 11
733.5727087442
 21
489.176870598
 31
0.0
  0
LINE
  5
1A4
330
19C
100
AcDbEntity
  8
$DDT_AUDIT_GENERATED_(ED)
  6
Continuous
 62
     7
 48
25.4
100
AcDbLine
 10
733.5727087442
 20
489.176870598
 30
0.0
 11
798.5727087442
 21
489.176870598
 31
0.0
  0
LINE
  5
1A5
330
19C
100
AcDbEntity
  8
$DDT_AUDIT_GENERATED_(ED)
  6
Continuous
 62
     7
 48
25.4
100
AcDbLine
 10
798.5727087442
 20
489.176870598
 30
0.0
 11
798.5727087442
 21
471.176870598
 31
0.0
  0
LINE
  5
1A6
330
19C
100
AcDbEntity
  8
$DDT_AUDIT_GENERATED_(ED)
  6
Continuous
 62
     7
 48
25.4
100
AcDbLine
 10
798.5727087442
 20
413.676870598
 30
0.0
 11
798.5727087442
 21
218.176870598
 31
0.0
  0
LINE
  5
1A7
330
19C
100
AcDbEntity
  8
$DDT_AUDIT_GENERATED_(ED)
  6
Continuous
 62
     7
 48
25.4
100
AcDbLine
 10
733.5727087442
 20
413.676870598
 30
0.0
 11
733.5727087442
 21
218.176870598
 31
0.0
  0
LINE
  5
1A8
330
19C
100
AcDbEntity
  8
$DDT_AUDIT_GENERATED_(ED)
  6
Continuous
 62
     7
 48
25.4
100
AcDbLine
 10
733.5727087442
 20
456.676870598
 30
0.0
 11
798.5727087442
 21
456.676870598
 31
0.0
  0
LINE
  5
1A9
330
19C
100
AcDbEntity
  8
$DDT_AUDIT_GENERATED_(ED)
  6
Continuous
 62
     7
 48
25.4
100
AcDbLine
 10
733.5727087442
 20
413.676870598
 30
0.0
 11
798.5727087442
 21
413.676870598
 31
0.0
  0
LINE
  5
1AA
330
19C
100
AcDbEntity
  8
$DDT_AUDIT_GENERATED_(ED)
  6
Continuous
 62
     7
 48
25.4
100
AcDbLine
 10
733.5727087442
 20
424.176870598
 30
0.0
 11
798.5727087442
 21
424.176870598
 31
0.0
  0
LINE
  5
1AB
330
19C
100
AcDbEntity
  8
$DDT_AUDIT_GENERATED_(ED)
  6
Continuous
 62
     7
 48
25.4
100
AcDbLine
 10
733.5727087442
 20
446.176870598
 30
0.0
 11
798.5727087442
 21
446.176870598
 31
0.0
  0
LINE
  5
1AC
330
19C
100
AcDbEntity
  8
$DDT_AUDIT_GENERATED_(ED)
  6
Continuous
 62
     7
 48
25.4
100
AcDbLine
 10
798.5727087442
 20
421.176870598
 30
0.0
 11
798.5727087442
 21
424.176870598
 31
0.0
  0
LINE
  5
1AD
330
19C
100
AcDbEntity
  8
$DDT_AUDIT_GENERATED_(ED)
  6
Continuous
 62
     7
 48
25.4
100
AcDbLine
 10
798.5727087442
 20
446.176870598
 30
0.0
 11
798.5727087442
 21
449.176870598
 31
0.0
  0
LINE
  5
1AE
330
19C
100
AcDbEntity
  8
$DDT_AUDIT_GENERATED_(ED)
  6
Continuous
 62
     7
 48
25.4
100
AcDbLine
 10
798.5727087442
 20
421.176870598
 30
0.0
 11
798.5727087442
 21
413.676870598
 31
0.0
  0
LINE
  5
1AF
330
19C
100
AcDbEntity
  8
$DDT_AUDIT_GENERATED_(ED)
  6
Continuous
 62
     7
 48
25.4
100
AcDbLine
 10
733.5727087442
 20
421.176870598
 30
0.0
 11
798.5727087442
 21
421.176870598
 31
0.0
  0
LINE
  5
1B0
330
19C
100
AcDbEntity
  8
$DDT_AUDIT_GENERATED_(ED)
  6
Continuous
 62
     7
 48
25.4
100
AcDbLine
 10
798.5727087442
 20
451.176870598
 30
0.0
 11
798.5727087442
 21
456.676870598
 31
0.0
  0
LINE
  5
1B1
330
19C
100
AcDbEntity
  8
$DDT_AUDIT_GENERATED_(ED)
  6
Continuous
 62
     7
 48
25.4
100
AcDbLine
 10
798.5727087442
 20
451.176870598
 30
0.0
 11
798.5727087442
 21
449.176870598
 31
0.0
  0
LINE
  5
1B2
330
19C
100
AcDbEntity
  8
$DDT_AUDIT_GENERATED_(ED)
  6
Continuous
 62
     7
 48
25.4
100
AcDbLine
 10
798.5727087442
 20
449.176870598
 30
0.0
 11
733.5727087442
 21
449.176870598
 31
0.0
  0
LINE
  5
1B3
330
19C
100
AcDbEntity
  8
SKUM-3._DK2500--
  6
Continuous
 62
     7
 48
25.4
100
AcDbLine
 10
673.5727087442
 20
430.676870598
 30
0.0
 11
673.5727087442
 21
258.676870598
 31
0.0
  0
LINE
  5
1B4
330
19C
100
AcDbEntity
  8
SKUM-3._DK2500--
  6
Continuous
 62
     7
 48
25.4
100
AcDbLine
 10
673.5727087442
 20
440.676870598
 30
0.0
 11
673.5727087442
 21
430.676870598
 31
0.0
  0
LINE
  5
1B5
330
19C
100
AcDbEntity
  8
SKUM-3._DK2500--
  6
Continuous
 62
     7
 48
25.4
100
AcDbLine
 10
673.5727087442
 20
489.176870598
 30
0.0
 11
673.5727087442
 21
440.676870598
 31
0.0
  0
LINE
  5
1B6
330
19C
100
AcDbEntity
  8
SKUM-3._DK2500--
  6
Continuous
 62
     7
 48
25.4
100
AcDbLine
 10
678.5727087442
 20
430.676870598
 30
0.0
 11
678.5727087442
 21
258.676870598
 31
0.0
  0
LINE
  5
1B7
330
19C
100
AcDbEntity
  8
SKUM-3._DK2500--
  6
Continuous
 62
     7
 48
25.4
100
AcDbLine
 10
673.5727087442
 20
430.676870598
 30
0.0
 11
678.5727087442
 21
430.676870598
 31
0.0
  0
LINE
  5
1B8
330
19C
100
AcDbEntity
  8
SKUM-3._DK2500--
  6
Continuous
 62
     7
 48
25.4
100
AcDbLine
 10
673.5727087442
 20
489.176870598
 30
0.0
 11
678.5727087442
 21
489.176870598
 31
0.0
  0
LINE
  5
1B9
330
19C
100
AcDbEntity
  8
SKUM-3._DK2500--
  6
Continuous
 62
     7
 48
25.4
100
AcDbLine
 10
678.5727087442
 20
489.176870598
 30
0.0
 11
678.5727087442
 21
440.676870598
 31
0.0
  0
LINE
  5
1BA
330
19C
100
AcDbEntity
  8
SKUM-3._DK2500--
  6
Continuous
 62
     7
 48
25.4
100
AcDbLine
 10
678.5727087442
 20
440.676870598
 30
0.0
 11
678.5727087442
 21
430.676870598
 31
0.0
  0
LINE
  5
1BB
330
19C
100
AcDbEntity
  8
SKUM-3._DK2500--
  6
Continuous
 62
     7
 48
25.4
100
AcDbLine
 10
673.5727087442
 20
248.676870598
 30
0.0
 11
673.5727087442
 21
258.676870598
 31
0.0
  0
LINE
  5
1BC
330
19C
100
AcDbEntity
  8
SKUM-3._DK2500--
  6
Continuous
 62
     7
 48
25.4
100
AcDbLine
 10
673.5727087442
 20
258.676870598
 30
0.0
 11
678.5727087442
 21
258.676870598
 31
0.0
  0
LINE
  5
1BD
330
19C
100
AcDbEntity
  8
SKUM-3._DK2500--
  6
Continuous
 62
     7
 48
25.4
100
AcDbLine
 10
673.5727087442
 20
200.176870598
 30
0.0
 11
678.5727087442
 21
200.176870598
 31
0.0
  0
LINE
  5
1BE
330
19C
100
AcDbEntity
  8
SKUM-3._DK2500--
  6
Continuous
 62
     7
 48
25.4
100
AcDbLine
 10
673.5727087442
 20
200.176870598
 30
0.0
 11
673.5727087442
 21
248.676870598
 31
0.0
  0
LINE
  5
1BF
330
19C
100
AcDbEntity
  8
$DDT_AUDIT_GENERATED_(186)
  6
Continuous
 62
     7
 48
25.4
100
AcDbLine
 10
678.5727087442
 20
489.176870598
 30
0.0
 11
678.5727087442
 21
447.9504059805
 31
0.0
  0
LINE
  5
1C0
330
19C
100
AcDbEntity
  8
$DDT_AUDIT_GENERATED_(186)
  6
Continuous
 62
     7
 48
25.4
100
AcDbLine
 10
678.5727087442
 20
489.176870598
 30
0.0
 11
713.5727087442
 21
489.176870598
 31
0.0
  0
LINE
  5
1C1
330
19C
100
AcDbEntity
  8
$DDT_AUDIT_GENERATED_(186)
  6
Continuous
 62
     7
 48
25.4
100
AcDbLine
 10
733.5727087442
 20
456.676870598
 30
0.0
 11
733.5727087442
 21
447.9504059805
 31
0.0
  0
LINE
  5
1C2
330
19C
100
AcDbEntity
  8
$DDT_AUDIT_GENERATED_(186)
  6
Continuous
 62
     7
 48
25.4
100
AcDbLine
 10
678.5727087442
 20
248.676870598
 30
0.0
 11
678.5727087442
 21
258.676870598
 31
0.0
  0
LINE
  5
1C3
330
19C
100
AcDbEntity
  8
$DDT_AUDIT_GENERATED_(186)
  6
Continuous
 62
     7
 48
25.4
100
AcDbLine
 10
678.5727087442
 20
258.676870598
 30
0.0
 11
733.5727087442
 21
258.676870598
 31
0.0
  0
LINE
  5
1C4
330
19C
100
AcDbEntity
  8
$DDT_AUDIT_GENERATED_(186)
  6
Continuous
 62
     7
 48
25.4
100
AcDbLine
 10
678.5727087442
 20
200.176870598
 30
0.0
 11
713.5727087442
 21
200.176870598
 31
0.0
  0
LINE
  5
1C5
330
19C
100
AcDbEntity
  8
$DDT_AUDIT_GENERATED_(186)
  6
Continuous
 62
     7
 48
25.4
100
AcDbLine
 10
678.5727087442
 20
200.176870598
 30
0.0
 11
678.5727087442
 21
248.676870598
 31
0.0
  0
LINE
  5
1C6
330
19C
100
AcDbEntity
  8
$DDT_AUDIT_GENERATED_(186)
  6
Continuous
 62
     7
 48
25.4
100
AcDbLine
 10
678.5727087442
 20
413.676870598
 30
0.0
 11
678.5727087442
 21
258.676870598
 31
0.0
  0
LINE
  5
1C7
330
19C
100
AcDbEntity
  8
$DDT_AUDIT_GENERATED_(186)
  6
Continuous
 62
     7
 48
25.4
100
AcDbLine
 10
733.5727087442
 20
413.676870598
 30
0.0
 11
733.5727087442
 21
258.676870598
 31
0.0
  0
LINE
  5
1C8
330
19C
100
AcDbEntity
  8
$DDT_AUDIT_GENERATED_(186)
  6
Continuous
 62
     7
 48
25.4
100
AcDbLine
 10
678.5727087442
 20
413.676870598
 30
0.0
 11
733.5727087442
 21
413.676870598
 31
0.0
  0
LINE
  5
1C9
330
19C
100
AcDbEntity
  8
$DDT_AUDIT_GENERATED_(186)
  6
Continuous
 62
     7
 48
25.4
100
AcDbLine
 10
678.5727087442
 20
419.9504059805
 30
0.0
 11
733.5727087442
 21
419.9504059805
 31
0.0
  0
LINE
  5
1CA
330
19C
100
AcDbEntity
  8
$DDT_AUDIT_GENERATED_(186)
  6
Continuous
 62
     7
 48
25.4
100
AcDbLine
 10
678.5727087442
 20
447.9504059805
 30
0.0
 11
733.5727087442
 21
447.9504059805
 31
0.0
  0
LINE
  5
1CB
330
19C
100
AcDbEntity
  8
$DDT_AUDIT_GENERATED_(186)
  6
Continuous
 62
     7
 48
25.4
100
AcDbLine
 10
733.5727087442
 20
413.676870598
 30
0.0
 11
733.5727087442
 21
419.9504059805
 31
0.0
  0
LINE
  5
1CC
330
19C
100
AcDbEntity
  8
$DDT_AUDIT_GENERATED_(186)
  6
Continuous
 62
     7
 48
25.4
100
AcDbLine
 10
733.5727087442
 20
419.9504059805
 30
0.0
 11
733.5727087442
 21
427.176870598
 31
0.0
  0
LINE
  5
1CD
330
19C
100
AcDbEntity
  8
$DDT_AUDIT_GENERATED_(186)
  6
Continuous
 62
     7
 48
25.4
100
AcDbLine
 10
733.5727087442
 20
443.176870598
 30
0.0
 11
733.5727087442
 21
447.9504059805
 31
0.0
  0
LINE
  5
1CE
330
19C
100
AcDbEntity
  8
$DDT_AUDIT_GENERATED_(186)
  6
Continuous
 62
     7
 48
25.4
100
AcDbLine
 10
708.5727087442
 20
443.176870598
 30
0.0
 11
733.5727087442
 21
443.176870598
 31
0.0
  0
LINE
  5
1CF
330
19C
100
AcDbEntity
  8
$DDT_AUDIT_GENERATED_(186)
  6
Continuous
 62
     7
 48
25.4
100
AcDbLine
 10
708.5727087442
 20
443.176870598
 30
0.0
 11
708.5727087442
 21
427.176870598
 31
0.0
  0
LINE
  5
1D0
330
19C
100
AcDbEntity
  8
$DDT_AUDIT_GENERATED_(186)
  6
Continuous
 62
     7
 48
25.4
100
AcDbLine
 10
708.5727087442
 20
427.176870598
 30
0.0
 11
733.5727087442
 21
427.176870598
 31
0.0
  0
LINE
  5
1D1
330
19C
100
AcDbEntity
  8
$DDT_AUDIT_GENERATED_(197)
  6
Continuous
 62
     7
 48
25.4
100
AcDbLine
 10
713.5727087442
 20
489.176870598
 30
0.0
 11
713.5727087442
 21
471.176870598
 31
0.0
  0
LINE
  5
1D2
330
19C
100
AcDbEntity
  8
$DDT_AUDIT_GENERATED_(197)
  6
Continuous
 62
     7
 48
25.4
100
AcDbLine
 10
713.5727087442
 20
471.176870598
 30
0.0
 11
713.5727087442
 21
456.676870598
 31
0.0
  0
LINE
  5
1D3
330
19C
100
AcDbEntity
  8
$DDT_AUDIT_GENERATED_(197)
  6
Continuous
 62
     7
 48
25.4
100
AcDbLine
 10
733.5727087442
 20
471.176870598
 30
0.0
 11
733.5727087442
 21
456.676870598
 31
0.0
  0
LINE
  5
1D4
330
19C
100
AcDbEntity
  8
$DDT_AUDIT_GENERATED_(197)
  6
Continuous
 62
     7
 48
25.4
100
AcDbLine
 10
733.5727087442
 20
489.176870598
 30
0.0
 11
733.5727087442
 21
471.176870598
 31
0.0
  0
LINE
  5
1D5
330
19C
100
AcDbEntity
  8
$DDT_AUDIT_GENERATED_(197)
  6
Continuous
 62
     7
 48
25.4
100
AcDbLine
 10
713.5727087442
 20
456.676870598
 30
0.0
 11
733.5727087442
 21
456.676870598
 31
0.0
  0
LINE
  5
1D6
330
19C
100
AcDbEntity
  8
$DDT_AUDIT_GENERATED_(197)
  6
Continuous
 62
     7
 48
25.4
100
AcDbLine
 10
713.5727087442
 20
489.176870598
 30
0.0
 11
733.5727087442
 21
489.176870598
 31
0.0
  0
LINE
  5
1D8
330
19C
100
AcDbEntity
  8
$DDT_AUDIT_GENERATED_(1D7)
  6
Continuous
 62
     7
 48
25.4
100
AcDbLine
 10
713.5727087442
 20
258.676870598
 30
0.0
 11
713.5727087442
 21
218.176870598
 31
0.0
  0
LINE
  5
1D9
330
19C
100
AcDbEntity
  8
$DDT_AUDIT_GENERATED_(1D7)
  6
Continuous
 62
     7
 48
25.4
100
AcDbLine
 10
733.5727087442
 20
258.676870598
 30
0.0
 11
733.5727087442
 21
218.176870598
 31
0.0
  0
LINE
  5
1DA
330
19C
100
AcDbEntity
  8
$DDT_AUDIT_GENERATED_(1D7)
  6
Continuous
 62
     7
 48
25.4
100
AcDbLine
 10
713.5727087442
 20
258.676870598
 30
0.0
 11
733.5727087442
 21
258.676870598
 31
0.0
  0
LINE
  5
1DB
330
19C
100
AcDbEntity
  8
$DDT_AUDIT_GENERATED_(1D7)
  6
Continuous
 62
     7
 48
25.4
100
AcDbLine
 10
733.5727087442
 20
218.176870598
 30
0.0
 11
733.5727087442
 21
200.176870598
 31
0.0
  0
LINE
  5
1DC
330
19C
100
AcDbEntity
  8
$DDT_AUDIT_GENERATED_(1D7)
  6
Continuous
 62
     7
 48
25.4
100
AcDbLine
 10
733.5727087442
 20
200.176870598
 30
0.0
 11
713.5727087442
 21
200.176870598
 31
0.0
  0
LINE
  5
1DD
330
19C
100
AcDbEntity
  8
$DDT_AUDIT_GENERATED_(1D7)
  6
Continuous
 62
     7
 48
25.4
100
AcDbLine
 10
713.5727087442
 20
200.176870598
 30
0.0
 11
713.5727087442
 21
218.176870598
 31
0.0
  0
ENDBLK
  5
1DF
330
19C
100
AcDbEntity
  8
0
100
AcDbBlockEnd
  0
BLOCK
  5
1E3
330
1E0
100
AcDbEntity
  8
0
100
AcDbBlockBegin
  2
_SE_FILLED
 70
     0
 71
     0
 10
0.0
 20
0.0
 30
0.0
  3
_SE_FILLED
  1

  0
SOLID
  5
1E1
330
1E0
100
AcDbEntity
  8
0
100
AcDbTrace
 10
0.0
 20
0.0
 30
0.0
 11
-1.0
 21
-0.1665
 31
0.0
 12
-1.0
 22
0.1665
 32
0.0
 13
0.0
 23
0.0
 33
0.0
  0
LINE
  5
1E2
330
1E0
100
AcDbEntity
  8
0
100
AcDbLine
 10
0.0
 20
0.0
 30
0.0
 11
-1.0
 21
0.0
 31
0.0
  0
ENDBLK
  5
1E4
330
1E0
100
AcDbEntity
  8
0
100
AcDbBlockEnd
  0
BLOCK
  5
1F1
330
1E8
100
AcDbEntity
  8
0
100
AcDbBlockBegin
  2
DMBLK1
 70
     0
 71
     0
 10
0.0
 20
0.0
 30
0.0
  3
DMBLK1
  1

  0
HATCH
  5
1E9
330
1E8
100
AcDbEntity
  8
Default
  6
Continuous
 62
     7
 48
25.4
100
AcDbHatch
 10
0.0
 20
0.0
 30
0.0
210
0.0
220
0.0
230
1.0
  2
SOLID
 70
     1
 71
     0
 91
        1
 92
        1
 93
        3
 72
     1
 10
738.5727086324632
 20
506.0946290640198
 11
733.5727087442219
 21
505.2612957493129
 72
     1
 10
733.5727087442219
 20
505.2612957493129
 11
738.5727086324632
 21
504.4279624346059
 72
     1
 10
738.5727086324632
 20
504.4279624346059
 11
738.5727086324632
 21
506.0946290640198
 97
        0
 75
     0
 76
     1
 98
        0
  0
LWPOLYLINE
  5
1EA
330
1E8
100
AcDbEntity
  8
Default
  6
Continuous
 62
     7
 48
25.4
370
    20
100
AcDbPolyline
 90
        4
 70
     1
 43
0.00025
 10
738.5727086325
 20
506.094629064
 10
733.5727087442
 20
505.2612957493
 10
738.5727086325
 20
504.4279624346
 10
738.5727086325
 20
506.094629064
  0
HATCH
  5
1EB
330
1E8
100
AcDbEntity
  8
Default
  6
Continuous
 62
     7
 48
25.4
100
AcDbHatch
 10
0.0
 20
0.0
 30
0.0
210
0.0
220
0.0
230
1.0
  2
SOLID
 70
     1
 71
     0
 91
        1
 92
        1
 93
        3
 72
     1
 10
793.5727064717948
 20
506.0946290640198
 11
793.5727064717948
 21
504.4279624346059
 72
     1
 10
793.5727064717948
 20
504.4279624346059
 11
798.5727063600361
 21
505.2612957493129
 72
     1
 10
798.5727063600361
 20
505.2612957493129
 11
793.5727064717948
 21
506.0946290640198
 97
        0
 75
     0
 76
     1
 98
        0
  0
LWPOLYLINE
  5
1EC
330
1E8
100
AcDbEntity
  8
Default
  6
Continuous
 62
     7
 48
25.4
370
    20
100
AcDbPolyline
 90
        4
 70
     1
 43
0.00025
 10
793.5727064718
 20
506.094629064
 10
798.57270636
 20
505.2612957493
 10
793.5727064718
 20
504.4279624346
 10
793.5727064718
 20
506.094629064
  0
LINE
  5
1ED
330
1E8
100
AcDbEntity
  8
Default
  6
Continuous
 62
     7
 48
25.4
100
AcDbLine
 10
733.5727087442
 20
490.676870611
 30
0.0
 11
733.5727087442
 21
506.7612957624
 31
0.0
  0
LINE
  5
1EE
330
1E8
100
AcDbEntity
  8
Default
  6
Continuous
 62
     7
 48
25.4
100
AcDbLine
 10
798.5727087442
 20
490.676870611
 30
0.0
 11
798.5727087442
 21
506.7612957624
 31
0.0
  0
LINE
  5
1EF
330
1E8
100
AcDbEntity
  8
Default
  6
Continuous
 62
     7
 48
25.4
100
AcDbLine
 10
733.5727087442
 20
505.2612957493
 30
0.0
 11
798.57270636
 21
505.2612957493
 31
0.0
  0
TEXT
  5
1F0
330
1E8
100
AcDbEntity
  8
Default
  6
Continuous
 62
     7
 48
25.4
100
AcDbText
 10
763.1181620976
 20
506.5112957493
 30
0.0
 40
5.0
  1
65
  7
SEACAD_seiso_ttfB
 11
763.1181620976
 21
511.5112957493
 31
0.0
100
AcDbText
 73
     3
  0
ENDBLK
  5
1F2
330
1E8
100
AcDbEntity
  8
0
100
AcDbBlockEnd
  0
BLOCK
  5
1FD
330
1F4
100
AcDbEntity
  8
0
100
AcDbBlockBegin
  2
DMBLK2
 70
     0
 71
     0
 10
0.0
 20
0.0
 30
0.0
  3
DMBLK2
  1

  0
HATCH
  5
1F5
330
1F4
100
AcDbEntity
  8
Default
  6
Continuous
 62
     7
 48
25.4
100
AcDbHatch
 10
0.0
 20
0.0
 30
0.0
210
0.0
220
0.0
230
1.0
  2
SOLID
 70
     1
 71
     0
 91
        1
 92
        1
 93
        3
 72
     1
 10
683.5727086324632
 20
506.0946290640198
 11
678.5727087442219
 21
505.2612957493129
 72
     1
 10
678.5727087442219
 20
505.2612957493129
 11
683.5727086324632
 21
504.4279624346059
 72
     1
 10
683.5727086324632
 20
504.4279624346059
 11
683.5727086324632
 21
506.0946290640198
 97
        0
 75
     0
 76
     1
 98
        0
  0
LWPOLYLINE
  5
1F6
330
1F4
100
AcDbEntity
  8
Default
  6
Continuous
 62
     7
 48
25.4
370
    20
100
AcDbPolyline
 90
        4
 70
     1
 43
0.00025
 10
683.5727086325
 20
506.094629064
 10
678.5727087442
 20
505.2612957493
 10
683.5727086325
 20
504.4279624346
 10
683.5727086325
 20
506.094629064
  0
HATCH
  5
1F7
330
1F4
100
AcDbEntity
  8
Default
  6
Continuous
 62
     7
 48
25.4
100
AcDbHatch
 10
0.0
 20
0.0
 30
0.0
210
0.0
220
0.0
230
1.0
  2
SOLID
 70
     1
 71
     0
 91
        1
 92
        1
 93
        3
 72
     1
 10
728.5727085579574
 20
506.0946290640198
 11
728.5727085579574
 21
504.4279624346059
 72
     1
 10
728.5727085579574
 20
504.4279624346059
 11
733.5727084461987
 21
505.2612957493129
 72
     1
 10
733.5727084461987
 20
505.2612957493129
 11
728.5727085579574
 21
506.0946290640198
 97
        0
 75
     0
 76
     1
 98
        0
  0
LWPOLYLINE
  5
1F8
330
1F4
100
AcDbEntity
  8
Default
  6
Continuous
 62
     7
 48
25.4
370
    20
100
AcDbPolyline
 90
        4
 70
     1
 43
0.00025
 10
728.572708558
 20
506.094629064
 10
733.5727084462
 20
505.2612957493
 10
728.572708558
 20
504.4279624346
 10
728.572708558
 20
506.094629064
  0
LINE
  5
1F9
330
1F4
100
AcDbEntity
  8
Default
  6
Continuous
 62
     7
 48
25.4
100
AcDbLine
 10
678.5727087442
 20
490.676870611
 30
0.0
 11
678.5727087442
 21
506.7612957624
 31
0.0
  0
LINE
  5
1FA
330
1F4
100
AcDbEntity
  8
Default
  6
Continuous
 62
     7
 48
25.4
100
AcDbLine
 10
733.5727087442
 20
490.676870611
 30
0.0
 11
733.5727087442
 21
506.7612957624
 31
0.0
  0
LINE
  5
1FB
330
1F4
100
AcDbEntity
  8
Default
  6
Continuous
 62
     7
 48
25.4
100
AcDbLine
 10
678.5727087442
 20
505.2612957493
 30
0.0
 11
733.5727084462
 21
505.2612957493
 31
0.0
  0
TEXT
  5
1FC
330
1F4
100
AcDbEntity
  8
Default
  6
Continuous
 62
     7
 48
25.4
100
AcDbText
 10
703.2317995043
 20
506.5112957493
 30
0.0
 40
5.0
  1
55
  7
SEACAD_seiso_ttfB
 11
703.2317995043
 21
511.5112957493
 31
0.0
100
AcDbText
 73
     3
  0
ENDBLK
  5
1FE
330
1F4
100
AcDbEntity
  8
0
100
AcDbBlockEnd
  0
BLOCK
  5
20A
330
200
100
AcDbEntity
  8
0
100
AcDbBlockBegin
  2
DMBLK3
 70
     0
 71
     0
 10
0.0
 20
0.0
 30
0.0
  3
DMBLK3
  1

  0
HATCH
  5
201
330
200
100
AcDbEntity
  8
Default
  6
Continuous
 62
     7
 48
25.4
100
AcDbHatch
 10
0.0
 20
0.0
 30
0.0
210
0.0
220
0.0
230
1.0
  2
SOLID
 70
     1
 71
     0
 91
        1
 92
        1
 93
        3
 72
     1
 10
668.5727088559806
 20
506.1049388049207
 11
668.5727088559806
 21
504.4382721755068
 72
     1
 10
668.5727088559806
 20
504.4382721755068
 11
673.5727087442219
 21
505.2716054902137
 72
     1
 10
673.5727087442219
 20
505.2716054902137
 11
668.5727088559806
 21
506.1049388049207
 97
        0
 75
     0
 76
     1
 98
        0
  0
LWPOLYLINE
  5
202
330
200
100
AcDbEntity
  8
Default
  6
Continuous
 62
     7
 48
25.4
370
    20
100
AcDbPolyline
 90
        4
 70
     1
 43
0.00025
 10
668.572708856
 20
506.1049388049
 10
673.5727087442
 20
505.2716054902
 10
668.572708856
 20
504.4382721755
 10
668.572708856
 20
506.1049388049
  0
HATCH
  5
203
330
200
100
AcDbEntity
  8
Default
  6
Continuous
 62
     7
 48
25.4
100
AcDbHatch
 10
0.0
 20
0.0
 30
0.0
210
0.0
220
0.0
230
1.0
  2
SOLID
 70
     1
 71
     0
 91
        1
 92
        1
 93
        3
 72
     1
 10
683.5727086324632
 20
506.1049388049207
 11
678.5727087442219
 21
505.2716054902137
 72
     1
 10
678.5727087442219
 20
505.2716054902137
 11
683.5727086324632
 21
504.4382721755068
 72
     1
 10
683.5727086324632
 20
504.4382721755068
 11
683.5727086324632
 21
506.1049388049207
 97
        0
 75
     0
 76
     1
 98
        0
  0
LWPOLYLINE
  5
204
330
200
100
AcDbEntity
  8
Default
  6
Continuous
 62
     7
 48
25.4
370
    20
100
AcDbPolyline
 90
        4
 70
     1
 43
0.00025
 10
683.5727086325
 20
506.1049388049
 10
678.5727087442
 20
505.2716054902
 10
683.5727086325
 20
504.4382721755
 10
683.5727086325
 20
506.1049388049
  0
LINE
  5
205
330
200
100
AcDbEntity
  8
Default
  6
Continuous
 62
     7
 48
25.4
100
AcDbLine
 10
673.5727087442
 20
490.676870611
 30
0.0
 11
673.5727087442
 21
506.7716055033
 31
0.0
  0
LINE
  5
206
330
200
100
AcDbEntity
  8
Default
  6
Continuous
 62
     7
 48
25.4
100
AcDbLine
 10
678.5727087442
 20
490.676870611
 30
0.0
 11
678.5727087442
 21
506.7716055033
 31
0.0
  0
LINE
  5
207
330
200
100
AcDbEntity
  8
Default
  6
Continuous
 62
     7
 48
25.4
100
AcDbLine
 10
663.5727089677
 20
505.2716054902
 30
0.0
 11
673.5727087442
 21
505.2716054902
 31
0.0
  0
LINE
  5
208
330
200
100
AcDbEntity
  8
Default
  6
Continuous
 62
     7
 48
25.4
100
AcDbLine
 10
678.5727087442
 20
505.2716054902
 30
0.0
 11
688.5727085207
 21
505.2716054902
 31
0.0
  0
TEXT
  5
209
330
200
100
AcDbEntity
  8
Default
  6
Continuous
 62
     7
 48
25.4
100
AcDbText
 10
674.6522541429
 20
506.5216054902
 30
0.0
 40
5.0
  1
5
  7
SEACAD_seiso_ttfB
 11
674.6522541429
 21
511.5216054902
 31
0.0
100
AcDbText
 73
     3
  0
ENDBLK
  5
20B
330
200
100
AcDbEntity
  8
0
100
AcDbBlockEnd
  0
BLOCK
  5
216
330
20D
100
AcDbEntity
  8
0
100
AcDbBlockBegin
  2
DMBLK4
 70
     0
 71
     0
 10
0.0
 20
0.0
 30
0.0
  3
DMBLK4
  1

  0
HATCH
  5
20E
330
20D
100
AcDbEntity
  8
Default
  6
Continuous
 62
     7
 48
25.4
100
AcDbHatch
 10
0.0
 20
0.0
 30
0.0
210
0.0
220
0.0
230
1.0
  2
SOLID
 70
     1
 71
     0
 91
        1
 92
        1
 93
        3
 72
     1
 10
54.76315490238196
 20
418.6768704862061
 11
55.59648821708885
 21
413.6768705979648
 72
     1
 10
55.59648821708885
 20
413.6768705979648
 11
56.42982153179573
 21
418.6768704862061
 72
     1
 10
56.42982153179573
 20
418.6768704862061
 11
54.76315490238196
 21
418.6768704862061
 97
        0
 75
     0
 76
     1
 98
        0
  0
LWPOLYLINE
  5
20F
330
20D
100
AcDbEntity
  8
Default
  6
Continuous
 62
     7
 48
25.4
370
    20
100
AcDbPolyline
 90
        4
 70
     1
 43
0.00025
 10
54.7631549024
 20
418.6768704862
 10
55.5964882171
 20
413.676870598
 10
56.4298215318
 20
418.6768704862
 10
54.7631549024
 20
418.6768704862
  0
HATCH
  5
210
330
20D
100
AcDbEntity
  8
Default
  6
Continuous
 62
     7
 48
25.4
100
AcDbHatch
 10
0.0
 20
0.0
 30
0.0
210
0.0
220
0.0
230
1.0
  2
SOLID
 70
     1
 71
     0
 91
        1
 92
        1
 93
        3
 72
     1
 10
54.76315490238196
 20
451.6768721700373
 11
56.42982153179573
 21
451.6768721700373
 72
     1
 10
56.42982153179573
 20
451.6768721700373
 11
55.59648821708885
 21
456.6768720582786
 72
     1
 10
55.59648821708885
 20
456.6768720582786
 11
54.76315490238196
 21
451.6768721700373
 97
        0
 75
     0
 76
     1
 98
        0
  0
LWPOLYLINE
  5
211
330
20D
100
AcDbEntity
  8
Default
  6
Continuous
 62
     7
 48
25.4
370
    20
100
AcDbPolyline
 90
        4
 70
     1
 43
0.00025
 10
54.7631549024
 20
451.67687217
 10
55.5964882171
 20
456.6768720583
 10
56.4298215318
 20
451.67687217
 10
54.7631549024
 20
451.67687217
  0
LINE
  5
212
330
20D
100
AcDbEntity
  8
Default
  6
Continuous
 62
     7
 48
25.4
100
AcDbLine
 10
69.7314365918
 20
413.676870598
 30
0.0
 11
54.0964882041
 21
413.676870598
 31
0.0
  0
LINE
  5
213
330
20D
100
AcDbEntity
  8
Default
  6
Continuous
 62
     7
 48
25.4
100
AcDbLine
 10
69.7314365918
 20
456.676870598
 30
0.0
 11
54.0964882041
 21
456.676870598
 31
0.0
  0
LINE
  5
214
330
20D
100
AcDbEntity
  8
Default
  6
Continuous
 62
     7
 48
25.4
100
AcDbLine
 10
55.5964882171
 20
413.676870598
 30
0.0
 11
55.5964882171
 21
456.6768720583
 31
0.0
  0
TEXT
  5
215
330
20D
100
AcDbEntity
  8
Default
  6
Continuous
 62
     7
 48
25.4
100
AcDbText
 10
54.3464882171
 20
432.392780419
 30
0.0
 40
5.0
  1
43
 50
90.0
  7
SEACAD_seiso_ttfB
 11
49.3464882171
 21
432.392780419
 31
0.0
100
AcDbText
 73
     3
  0
ENDBLK
  5
217
330
20D
100
AcDbEntity
  8
0
100
AcDbBlockEnd
  0
BLOCK
  5
222
330
219
100
AcDbEntity
  8
0
100
AcDbBlockBegin
  2
DMBLK5
 70
     0
 71
     0
 10
0.0
 20
0.0
 30
0.0
  3
DMBLK5
  1

  0
HATCH
  5
21A
330
219
100
AcDbEntity
  8
Default
  6
Continuous
 62
     7
 48
25.4
100
AcDbHatch
 10
0.0
 20
0.0
 30
0.0
210
0.0
220
0.0
230
1.0
  2
SOLID
 70
     1
 71
     0
 91
        1
 92
        1
 93
        3
 72
     1
 10
718.5727086324631
 20
496.453152622845
 11
713.5727087442218
 21
495.6198193081381
 72
     1
 10
713.5727087442218
 20
495.6198193081381
 11
718.5727086324631
 21
494.7864859934313
 72
     1
 10
718.5727086324631
 20
494.7864859934313
 11
718.5727086324631
 21
496.453152622845
 97
        0
 75
     0
 76
     1
 98
        0
  0
LWPOLYLINE
  5
21B
330
219
100
AcDbEntity
  8
Default
  6
Continuous
 62
     7
 48
25.4
370
    20
100
AcDbPolyline
 90
        4
 70
     1
 43
0.00025
 10
718.5727086325
 20
496.4531526228
 10
713.5727087442
 20
495.6198193081
 10
718.5727086325
 20
494.7864859934
 10
718.5727086325
 20
496.4531526228
  0
HATCH
  5
21C
330
219
100
AcDbEntity
  8
Default
  6
Continuous
 62
     7
 48
25.4
100
AcDbHatch
 10
0.0
 20
0.0
 30
0.0
210
0.0
220
0.0
230
1.0
  2
SOLID
 70
     1
 71
     0
 91
        1
 92
        1
 93
        3
 72
     1
 10
728.5727084089457
 20
496.453152622845
 11
728.5727084089457
 21
494.7864859934313
 72
     1
 10
728.5727084089457
 20
494.7864859934313
 11
733.572708297187
 21
495.6198193081381
 72
     1
 10
733.572708297187
 20
495.6198193081381
 11
728.5727084089457
 21
496.453152622845
 97
        0
 75
     0
 76
     1
 98
        0
  0
LWPOLYLINE
  5
21D
330
219
100
AcDbEntity
  8
Default
  6
Continuous
 62
     7
 48
25.4
370
    20
100
AcDbPolyline
 90
        4
 70
     1
 43
0.00025
 10
728.5727084089
 20
496.4531526228
 10
733.5727082972
 20
495.6198193081
 10
728.5727084089
 20
494.7864859934
 10
728.5727084089
 20
496.4531526228
  0
LINE
  5
21E
330
219
100
AcDbEntity
  8
Default
  6
Continuous
 62
     7
 48
25.4
100
AcDbLine
 10
713.5727087442
 20
490.676870611
 30
0.0
 11
713.5727087442
 21
497.1198193212
 31
0.0
  0
LINE
  5
21F
330
219
100
AcDbEntity
  8
Default
  6
Continuous
 62
     7
 48
25.4
100
AcDbLine
 10
733.5727087442
 20
490.676870611
 30
0.0
 11
733.5727087442
 21
497.1198193212
 31
0.0
  0
LINE
  5
220
330
219
100
AcDbEntity
  8
Default
  6
Continuous
 62
     7
 48
25.4
100
AcDbLine
 10
713.5727087442
 20
495.6198193081
 30
0.0
 11
733.5727082972
 21
495.6198193081
 31
0.0
  0
TEXT
  5
221
330
219
100
AcDbEntity
  8
Default
  6
Continuous
 62
     7
 48
25.4
100
AcDbText
 10
720.5613448843
 20
496.8698193081
 30
0.0
 40
5.0
  1
20
  7
SEACAD_seiso_ttfB
 11
720.5613448843
 21
501.8698193081
 31
0.0
100
AcDbText
 73
     3
  0
ENDBLK
  5
223
330
219
100
AcDbEntity
  8
0
100
AcDbBlockEnd
  0
BLOCK
  5
22E
330
225
100
AcDbEntity
  8
0
100
AcDbBlockBegin
  2
DMBLK6
 70
     0
 71
     0
 10
0.0
 20
0.0
 30
0.0
  3
DMBLK6
  1

  0
HATCH
  5
226
330
225
100
AcDbEntity
  8
Default
  6
Continuous
 62
     7
 48
25.4
100
AcDbHatch
 10
0.0
 20
0.0
 30
0.0
210
0.0
220
0.0
230
1.0
  2
SOLID
 70
     1
 71
     0
 91
        1
 92
        1
 93
        3
 72
     1
 10
76.23143649307218
 20
507.154655501064
 11
71.23143660483089
 21
506.3213221863571
 72
     1
 10
71.23143660483089
 20
506.3213221863571
 11
76.23143649307218
 21
505.4879888716501
 72
     1
 10
76.23143649307218
 20
505.4879888716501
 11
76.23143649307218
 21
507.154655501064
 97
        0
 75
     0
 76
     1
 98
        0
  0
LWPOLYLINE
  5
227
330
225
100
AcDbEntity
  8
Default
  6
Continuous
 62
     7
 48
25.4
370
    20
100
AcDbPolyline
 90
        4
 70
     1
 43
0.00025
 10
76.2314364931
 20
507.1546555011
 10
71.2314366048
 20
506.3213221864
 10
76.2314364931
 20
505.4879888717
 10
76.2314364931
 20
507.1546555011
  0
HATCH
  5
228
330
225
100
AcDbEntity
  8
Default
  6
Continuous
 62
     7
 48
25.4
100
AcDbHatch
 10
0.0
 20
0.0
 30
0.0
210
0.0
220
0.0
230
1.0
  2
SOLID
 70
     1
 71
     0
 91
        1
 92
        1
 93
        3
 72
     1
 10
186.2314340343806
 20
507.154655501064
 11
186.2314340343806
 21
505.4879888716501
 72
     1
 10
186.2314340343806
 20
505.4879888716501
 11
191.2314339226219
 21
506.3213221863571
 72
     1
 10
191.2314339226219
 20
506.3213221863571
 11
186.2314340343806
 21
507.154655501064
 97
        0
 75
     0
 76
     1
 98
        0
  0
LWPOLYLINE
  5
229
330
225
100
AcDbEntity
  8
Default
  6
Continuous
 62
     7
 48
25.4
370
    20
100
AcDbPolyline
 90
        4
 70
     1
 43
0.00025
 10
186.2314340344
 20
507.1546555011
 10
191.2314339226
 20
506.3213221864
 10
186.2314340344
 20
505.4879888717
 10
186.2314340344
 20
507.1546555011
  0
LINE
  5
22A
330
225
100
AcDbEntity
  8
Default
  6
Continuous
 62
     7
 48
25.4
100
AcDbLine
 10
71.2314366048
 20
472.6768713579
 30
0.0
 11
71.2314366048
 21
507.8213221994
 31
0.0
  0
LINE
  5
22B
330
225
100
AcDbEntity
  8
Default
  6
Continuous
 62
     7
 48
25.4
100
AcDbLine
 10
191.2314366048
 20
449.4504061439
 30
0.0
 11
191.2314366048
 21
507.8213221994
 31
0.0
  0
LINE
  5
22C
330
225
100
AcDbEntity
  8
Default
  6
Continuous
 62
     7
 48
25.4
100
AcDbLine
 10
71.2314366048
 20
506.3213221864
 30
0.0
 11
191.2314339226
 21
506.3213221864
 31
0.0
  0
TEXT
  5
22D
330
225
100
AcDbEntity
  8
Default
  6
Continuous
 62
     7
 48
25.4
100
AcDbText
 10
127.1973443546
 20
507.5713221864
 30
0.0
 40
5.0
  1
120
  7
SEACAD_seiso_ttfB
 11
127.1973443546
 21
512.5713221864
 31
0.0
100
AcDbText
 73
     3
  0
ENDBLK
  5
22F
330
225
100
AcDbEntity
  8
0
100
AcDbBlockEnd
  0
BLOCK
  5
239
330
231
100
AcDbEntity
  8
0
100
AcDbBlockBegin
  2
DMBLK7
 70
     0
 71
     0
 10
0.0
 20
0.0
 30
0.0
  3
DMBLK7
  1

  0
HATCH
  5
232
330
231
100
AcDbEntity
  8
Default
  6
Continuous
 62
     7
 48
25.4
100
AcDbHatch
 10
0.0
 20
0.0
 30
0.0
210
0.0
220
0.0
230
1.0
  2
SOLID
 70
     1
 71
     0
 91
        1
 92
        1
 93
        3
 72
     1
 10
180.1810755514337
 20
442.9504060923053
 11
181.8477421808474
 21
442.9504060923053
 72
     1
 10
181.8477421808474
 20
442.9504060923053
 11
181.0144088661405
 21
447.9504059805466
 72
     1
 10
181.0144088661405
 20
447.9504059805466
 11
180.1810755514337
 21
442.9504060923053
 97
        0
 75
     0
 76
     1
 98
        0
  0
LWPOLYLINE
  5
233
330
231
100
AcDbEntity
  8
Default
  6
Continuous
 62
     7
 48
25.4
370
    20
100
AcDbPolyline
 90
        4
 70
     1
 43
0.00025
 10
180.1810755514
 20
442.9504060923
 10
181.0144088661
 20
447.9504059805
 10
181.8477421808
 20
442.9504060923
 10
180.1810755514
 20
442.9504060923
  0
HATCH
  5
234
330
231
100
AcDbEntity
  8
Default
  6
Continuous
 62
     7
 48
25.4
100
AcDbHatch
 10
0.0
 20
0.0
 30
0.0
210
0.0
220
0.0
230
1.0
  2
SOLID
 70
     1
 71
     0
 91
        1
 92
        1
 93
        3
 72
     1
 10
180.1810755514337
 20
424.9504050045206
 11
181.0144088661405
 21
419.9504051162793
 72
     1
 10
181.0144088661405
 20
419.9504051162793
 11
181.8477421808474
 21
424.9504050045206
 72
     1
 10
181.8477421808474
 20
424.9504050045206
 11
180.1810755514337
 21
424.9504050045206
 97
        0
 75
     0
 76
     1
 98
        0
  0
LWPOLYLINE
  5
235
330
231
100
AcDbEntity
  8
Default
  6
Continuous
 62
     7
 48
25.4
370
    20
100
AcDbPolyline
 90
        4
 70
     1
 43
0.00025
 10
180.1810755514
 20
424.9504050045
 10
181.0144088661
 20
419.9504051163
 10
181.8477421808
 20
424.9504050045
 10
180.1810755514
 20
424.9504050045
  0
LINE
  5
236
330
231
100
AcDbEntity
  8
Default
  6
Continuous
 62
     7
 48
25.4
100
AcDbLine
 10
189.7314365918
 20
419.9504059805
 30
0.0
 11
179.5144088531
 21
419.9504059805
 31
0.0
  0
LINE
  5
237
330
231
100
AcDbEntity
  8
Default
  6
Continuous
 62
     7
 48
25.4
100
AcDbLine
 10
181.0144088661
 20
447.9504059805
 30
0.0
 11
181.0144088661
 21
419.9504051163
 31
0.0
  0
TEXT
  5
238
330
231
100
AcDbEntity
  8
Default
  6
Continuous
 62
     7
 48
25.4
100
AcDbText
 10
179.7644088661
 20
430.8254055484
 30
0.0
 40
5.0
  1
28
 50
90.0
  7
SEACAD_seiso_ttfB
 11
174.7644088661
 21
430.8254055484
 31
0.0
100
AcDbText
 73
     3
  0
ENDBLK
  5
23A
330
231
100
AcDbEntity
  8
0
100
AcDbBlockEnd
  0
ENDSEC
  0
SECTION
  2
ENTITIES
  0
TEXT
  5
2B
330
1F
100
AcDbEntity
  8
Default
  6
Continuous
 62
     7
 48
25.4
100
AcDbText
 10
709.6777841602
 20
62.598946987
 30
0.0
 40
3.5
  1
Se tegning
  7
SEACAD_seiso_ttfB
 11
709.6777841602
 21
66.098946987
 31
0.0
100
AcDbText
 73
     3
  0
TEXT
  5
2D
330
1F
100
AcDbEntity
  8
Default
  6
Continuous
 62
     7
 48
25.4
100
AcDbText
 10
713.4207404777
 20
43.2411317575
 30
0.0
 40
3.5
  1
DS/ISO 2768-C
  7
SEACAD_seiso_ttfB
 11
713.4207404777
 21
46.7411317575
 31
0.0
100
AcDbText
 73
     3
  0
TEXT
  5
2E
330
1F
100
AcDbEntity
  8
Default
  6
Continuous
 62
     7
 48
25.4
100
AcDbText
 10
707.403748489
 20
32.6326575727
 30
0.0
 40
2.0
  1
IIv
  7
SEACAD_seiso_ttfB
 11
707.403748489
 21
34.6326575727
 31
0.0
100
AcDbText
 73
     3
  0
TEXT
  5
2F
330
1F
100
AcDbEntity
  8
Default
  6
Continuous
 62
     7
 48
25.4
100
AcDbText
 10
724.2132020847
 20
32.6326575727
 30
0.0
 40
2.0
  1
06-09-24
  7
SEACAD_seiso_ttfB
 11
724.2132020847
 21
34.6326575727
 31
0.0
100
AcDbText
 73
     3
  0
TEXT
  5
30
330
1F
100
AcDbEntity
  8
Default
  6
Continuous
 62
     7
 48
25.4
100
AcDbText
 10
789.8099716416
 20
28.1700807465
 30
0.0
 40
3.5
  1
1:1
  7
SEACAD_seiso_ttfB
 11
789.8099716416
 21
31.6700807465
 31
0.0
100
AcDbText
 73
     3
  0
TEXT
  5
31
330
1F
100
AcDbEntity
  8
Default
  6
Continuous
 62
     7
 48
25.4
100
AcDbText
 10
713.0605075877
 20
17.9459754947
 30
0.0
 40
4.0
  1
Saml. skumindlæg
  7
SEACAD_seiso_ttfB
 11
713.0605075877
 21
21.9459754947
 31
0.0
100
AcDbText
 73
     3
  0
TEXT
  5
32
330
1F
100
AcDbEntity
  8
Default
  6
Continuous
 62
     7
 48
25.4
100
AcDbText
 10
720.6968712241
 20
11.4005209492
 30
0.0
 40
4.0
  1
 DK 2500
  7
SEACAD_seiso_ttfB
 11
720.6968712241
 21
15.4005209492
 31
0.0
100
AcDbText
 73
     3
  0
TEXT
  5
33
330
1F
100
AcDbEntity
  8
Default
  6
Continuous
 62
     7
 48
25.4
100
AcDbText
 10
767.6329506074
 20
14.973112199
 30
0.0
 40
5.0
  1
I
  7
SEACAD_seiso_ttfB
 11
767.6329506074
 21
19.973112199
 31
0.0
100
AcDbText
 73
     3
  0
INSERT
  5
35
330
1F
100
AcDbEntity
  8
Default
100
AcDbBlockReference
  2
SEANNOT_GROUP
 10
0.0
 20
0.0
 30
0.0
  0
INSERT
  5
3F
330
1F
100
AcDbEntity
  8
Default
100
AcDbBlockReference
  2
SEANNOT_GROUP1
 10
0.0
 20
0.0
 30
0.0
  0
INSERT
  5
49
330
1F
100
AcDbEntity
  8
Default
100
AcDbBlockReference
  2
SEANNOT_GROUP2
 10
0.0
 20
0.0
 30
0.0
  0
INSERT
  5
52
330
1F
100
AcDbEntity
  8
Default
100
AcDbBlockReference
  2
SEANNOT_GROUP3
 10
0.0
 20
0.0
 30
0.0
  0
INSERT
  5
5B
330
1F
100
AcDbEntity
  8
Default
100
AcDbBlockReference
  2
SEANNOT_GROUP4
 10
0.0
 20
0.0
 30
0.0
  0
INSERT
  5
64
330
1F
100
AcDbEntity
  8
Default
100
AcDbBlockReference
  2
SEANNOT_GROUP5
 10
0.0
 20
0.0
 30
0.0
  0
INSERT
  5
6D
330
1F
100
AcDbEntity
  8
Default
100
AcDbBlockReference
  2
SEANNOT_GROUP6
 10
0.0
 20
0.0
 30
0.0
  0
INSERT
  5
76
330
1F
100
AcDbEntity
  8
Default
100
AcDbBlockReference
  2
SEANNOT_GROUP7
 10
0.0
 20
0.0
 30
0.0
  0
INSERT
  5
80
330
1F
100
AcDbEntity
  8
Default
100
AcDbBlockReference
  2
SEANNOT_GROUP8
 10
0.0
 20
0.0
 30
0.0
  0
INSERT
  5
89
330
1F
100
AcDbEntity
  8
Default
100
AcDbBlockReference
  2
SEANNOT_GROUP9
 10
0.0
 20
0.0
 30
0.0
  0
INSERT
  5
92
330
1F
100
AcDbEntity
  8
Default
100
AcDbBlockReference
  2
SEANNOT_GROUP10
 10
0.0
 20
0.0
 30
0.0
  0
INSERT
  5
9B
330
1F
100
AcDbEntity
  8
Default
100
AcDbBlockReference
  2
SEANNOT_GROUP11
 10
0.0
 20
0.0
 30
0.0
  0
TEXT
  5
A2
330
1F
100
AcDbEntity
  8
Default
  6
Continuous
 62
     7
 48
25.4
100
AcDbText
 10
565.7377530794
 20
25.6883284865
 30
0.0
 40
3.5
  1
1. Rummet for stativ ændres ifølge skitse
  7
SEACAD_seiso_ttfB
 11
565.7377530794
 21
29.1883284865
 31
0.0
100
AcDbText
 73
     3
  0
TEXT
  5
A3
330
1F
100
AcDbEntity
  8
Default
  6
Continuous
 62
     7
 48
25.4
100
AcDbText
 10
565.7377530794
 20
19.9610557592
 30
0.0
 40
3.5
  1
2.lågskum, lomme tilpasses dvd omslag
  7
SEACAD_seiso_ttfB
 11
565.7377530794
 21
23.4610557592
 31
0.0
100
AcDbText
 73
     3
  0
TEXT
  5
A4
330
1F
100
AcDbEntity
  8
Default
  6
Continuous
 62
     7
 48
25.4
100
AcDbText
 10
565.7377530794
 20
14.233783032
 30
0.0
 40
3.5
  1
06-11-30  udg. B   IIv
  7
SEACAD_seiso_ttfB
 11
565.7377530794
 21
17.733783032
 31
0.0
100
AcDbText
 73
     3
  0
TEXT
  5
A5
330
1F
100
AcDbEntity
  8
Default
  6
Continuous
 62
     7
 48
25.4
100
AcDbText
 10
292.0556977977
 20
505.5633717409
 30
0.0
 40
5.0
  1
Restskum efter fremstilling af dybder i placeres igen i rummene! (limes ikke)
  7
SEACAD_seiso_ttfB
 11
292.0556977977
 21
510.5633717409
 31
0.0
100
AcDbText
 73
     3
  0
TEXT
  5
A6
330
1F
100
AcDbEntity
  8
Default
  6
Continuous
 62
     7
 48
25.4
100
AcDbText
 10
565.4415400961
 20
43.0472406702
 30
0.0
 40
3.5
  1
1. Dybde på hul for sugekop ændret til 130mm
  7
SEACAD_seiso_ttfB
 11
565.4415400961
 21
46.5472406702
 31
0.0
100
AcDbText
 73
     3
  0
TEXT
  5
A7
330
1F
100
AcDbEntity
  8
Default
  6
Continuous
 62
     7
 48
25.4
100
AcDbText
 10
565.4415400961
 20
37.319967943
 30
0.0
 40
3.5
  1
2. Dybde på frigang 135mm tilføjet
  7
SEACAD_seiso_ttfB
 11
565.4415400961
 21
40.819967943
 31
0.0
100
AcDbText
 73
     3
  0
TEXT
  5
A8
330
1F
100
AcDbEntity
  8
Default
  6
Continuous
 62
     7
 48
25.4
100
AcDbText
 10
565.4415400961
 20
31.5926952157
 30
0.0
 40
3.5
  1
12-01-07   udg. C  IIv
  7
SEACAD_seiso_ttfB
 11
565.4415400961
 21
35.0926952157
 31
0.0
100
AcDbText
 73
     3
  0
TEXT
  5
A9
330
1F
100
AcDbEntity
  8
Default
  6
Continuous
 62
     7
 48
25.4
100
AcDbText
 10
566.3015365212
 20
68.4759247241
 30
0.0
 40
3.5
  1
1. Skum-1 tykkelse ændr. fra 75 til 65mm
  7
SEACAD_seiso_ttfB
 11
566.3015365212
 21
71.9759247241
 31
0.0
100
AcDbText
 73
     3
  0
TEXT
  5
AA
330
1F
100
AcDbEntity
  8
Default
  6
Continuous
 62
     7
 48
25.4
100
AcDbText
 10
566.3015365212
 20
62.7486519968
 30
0.0
 40
3.5
  1
2. Huldybder ændres med -10mm
  7
SEACAD_seiso_ttfB
 11
566.3015365212
 21
66.2486519968
 31
0.0
100
AcDbText
 73
     3
  0
TEXT
  5
AB
330
1F
100
AcDbEntity
  8
Default
  6
Continuous
 62
     7
 48
25.4
100
AcDbText
 10
566.3015365212
 20
57.0213792695
 30
0.0
 40
3.5
  1
3. længde på hul til rør ændr. til 312mm
  7
SEACAD_seiso_ttfB
 11
566.3015365212
 21
60.5213792695
 31
0.0
100
AcDbText
 73
     3
  0
TEXT
  5
AC
330
1F
100
AcDbEntity
  8
Default
  6
Continuous
 62
     7
 48
25.4
100
AcDbText
 10
566.3015365212
 20
51.2941065423
 30
0.0
 40
3.5
  1
udg. D  20-02-07  IIv, IVI-tek
  7
SEACAD_seiso_ttfB
 11
566.3015365212
 21
54.7941065423
 31
0.0
100
AcDbText
 73
     3
  0
INSERT
  5
AE
330
1F
100
AcDbEntity
  8
Default
100
AcDbBlockReference
  2
SEANNOT_GROUP12
 10
0.0
 20
0.0
 30
0.0
  0
INSERT
  5
B7
330
1F
100
AcDbEntity
  8
Default
100
AcDbBlockReference
  2
SEANNOT_GROUP13
 10
0.0
 20
0.0
 30
0.0
  0
TEXT
  5
BC
330
1F
100
AcDbEntity
  8
Default
  6
Continuous
 62
     7
 48
25.4
100
AcDbText
 10
565.7002207081
 20
101.2001849169
 30
0.0
 40
3.5
  1
1. Skumindretning ændret p.g.a. nyt stativ
  7
SEACAD_seiso_ttfB
 11
565.7002207081
 21
104.7001849169
 31
0.0
100
AcDbText
 73
     3
  0
TEXT
  5
BD
330
1F
100
AcDbEntity
  8
Default
  6
Continuous
 62
     7
 48
25.4
100
AcDbText
 10
565.7002207081
 20
95.4729121896
 30
0.0
 40
3.5
  1
2.1 stk tastatur & batteri fjernet
  7
SEACAD_seiso_ttfB
 11
565.7002207081
 21
98.9729121896
 31
0.0
100
AcDbText
 73
     3
  0
TEXT
  5
BE
330
1F
100
AcDbEntity
  8
Default
  6
Continuous
 62
     7
 48
25.4
100
AcDbText
 10
565.7002207081
 20
89.7456394623
 30
0.0
 40
3.5
  1
3. 1 stk strømforsyning fjernet
  7
SEACAD_seiso_ttfB
 11
565.7002207081
 21
93.2456394623
 31
0.0
100
AcDbText
 73
     3
  0
TEXT
  5
BF
330
1F
100
AcDbEntity
  8
Default
  6
Continuous
 62
     7
 48
25.4
100
AcDbText
 10
565.7002207081
 20
84.018366735
 30
0.0
 40
3.5
  1
4. Diverse- & kabelrum blevet mindre
  7
SEACAD_seiso_ttfB
 11
565.7002207081
 21
87.518366735
 31
0.0
100
AcDbText
 73
     3
  0
TEXT
  5
C0
330
1F
100
AcDbEntity
  8
Default
  6
Continuous
 62
     7
 48
25.4
100
AcDbText
 10
565.7002207081
 20
78.2910940078
 30
0.0
 40
3.5
  1
udgave E  15-05-2007  IIv, IVI-tek 
  7
SEACAD_seiso_ttfB
 11
565.7002207081
 21
81.7910940078
 31
0.0
100
AcDbText
 73
     3
  0
TEXT
  5
C1
330
1F
100
AcDbEntity
  8
Default
  6
Continuous
 62
     7
 48
25.4
100
AcDbText
 10
696.5414375264
 20
72.7248707337
 30
0.0
 40
5.0
  1
Kufferttype: SC iM 2500
  7
SEACAD_seiso_ttfB
 11
696.5414375264
 21
77.7248707337
 31
0.0
100
AcDbText
 73
     3
  0
TEXT
  5
C2
330
1F
100
AcDbEntity
  8
Default
  6
Continuous
 62
     7
 48
25.4
100
AcDbText
 10
565.7465216699
 20
139.5603334877
 30
0.0
 40
3.5
  1
1. Rum for strømforsyning forenklet
  7
SEACAD_seiso_ttfB
 11
565.7465216699
 21
143.0603334877
 31
0.0
100
AcDbText
 73
     3
  0
TEXT
  5
C3
330
1F
100
AcDbEntity
  8
Default
  6
Continuous
 62
     7
 48
25.4
100
AcDbText
 10
565.7465216699
 20
133.8330607604
 30
0.0
 40
3.5
  1
2. Dybde på kabelrille ændres til ca. 34mm
  7
SEACAD_seiso_ttfB
 11
565.7465216699
 21
137.3330607604
 31
0.0
100
AcDbText
 73
     3
  0
TEXT
  5
C4
330
1F
100
AcDbEntity
  8
Default
  6
Continuous
 62
     7
 48
25.4
100
AcDbText
 10
565.7465216699
 20
128.1057880331
 30
0.0
 40
3.5
  1
3. Radier tilføjet på diverse, kabelrum
  7
SEACAD_seiso_ttfB
 11
565.7465216699
 21
131.6057880331
 31
0.0
100
AcDbText
 73
     3
  0
TEXT
  5
C5
330
1F
100
AcDbEntity
  8
Default
  6
Continuous
 62
     7
 48
25.4
100
AcDbText
 10
565.7465216699
 20
122.3785153059
 30
0.0
 40
3.5
  1
   Pkt. 1 til 3 ændret ifølge skitse fra 
  7
SEACAD_seiso_ttfB
 11
565.7465216699
 21
125.8785153059
 31
0.0
100
AcDbText
 73
     3
  0
TEXT
  5
C6
330
1F
100
AcDbEntity
  8
Default
  6
Continuous
 62
     7
 48
25.4
100
AcDbText
 10
565.7465216699
 20
116.6512425786
 30
0.0
 40
3.5
  1
   DK Technologies
  7
SEACAD_seiso_ttfB
 11
565.7465216699
 21
120.1512425786
 31
0.0
100
AcDbText
 73
     3
  0
TEXT
  5
C7
330
1F
100
AcDbEntity
  8
Default
  6
Continuous
 62
     7
 48
25.4
100
AcDbText
 10
565.7465216699
 20
110.9239698513
 30
0.0
 40
3.5
  1
Udgave F   17-07-2007  IIv, IVI-tek
  7
SEACAD_seiso_ttfB
 11
565.7465216699
 21
114.4239698513
 31
0.0
100
AcDbText
 73
     3
  0
TEXT
  5
C8
330
1F
100
AcDbEntity
  8
Default
  6
Continuous
 62
     7
 48
25.4
100
AcDbText
 10
656.0588224276
 20
140.7151773416
 30
0.0
 40
5.0
  1
Tilføjet fingerhuller ved batteri
  7
SEACAD_seiso_ttfB
 11
656.0588224276
 21
145.7151773416
 31
0.0
100
AcDbText
 73
     3
  0
TEXT
  5
C9
330
1F
100
AcDbEntity
  8
Default
  6
Continuous
 62
     7
 48
25.4
100
AcDbText
 10
656.0588224276
 20
132.5333591598
 30
0.0
 40
5.0
  1
Udgave G   31-07-2007   IIv, IVI-tek
  7
SEACAD_seiso_ttfB
 11
656.0588224276
 21
137.5333591598
 31
0.0
100
AcDbText
 73
     3
  0
INSERT
  5
CB
330
1F
100
AcDbEntity
  8
Default
100
AcDbBlockReference
  2
SEANNOT_GROUP14
 10
0.0
 20
0.0
 30
0.0
  0
TEXT
  5
D3
330
1F
100
AcDbEntity
  8
Default
  6
Continuous
 62
     7
 48
25.4
100
AcDbText
 10
655.6792327204
 20
121.316517303
 30
0.0
 40
5.0
  1
Dybder justeret efter møde med DK Tecnologi
  7
SEACAD_seiso_ttfB
 11
655.6792327204
 21
126.316517303
 31
0.0
100
AcDbText
 73
     3
  0
TEXT
  5
D4
330
1F
100
AcDbEntity
  8
Default
  6
Continuous
 62
     7
 48
25.4
100
AcDbText
 10
655.6792327204
 20
113.1346991212
 30
0.0
 40
5.0
  1
Udgave H    16-08-2007   IIv, IVI-tek
  7
SEACAD_seiso_ttfB
 11
655.6792327204
 21
118.1346991212
 31
0.0
100
AcDbText
 73
     3
  0
INSERT
  5
D6
330
1F
100
AcDbEntity
  8
Default
100
AcDbBlockReference
  2
SEANNOT_GROUP15
 10
0.0
 20
0.0
 30
0.0
  0
INSERT
  5
E1
330
1F
100
AcDbEntity
  8
Default
100
AcDbBlockReference
  2
SEANNOT_GROUP16
 10
0.0
 20
0.0
 30
0.0
  0
TEXT
  5
E8
330
1F
100
AcDbEntity
  8
Default
  6
Continuous
 62
     7
 48
25.4
100
AcDbText
 10
656.052298245
 20
104.6691145792
 30
0.0
 40
5.0
  1
1. Dybder justeret ifølge prøve fra DK Technologies
  7
SEACAD_seiso_ttfB
 11
656.052298245
 21
109.6691145792
 31
0.0
100
AcDbText
 73
     3
  0
TEXT
  5
E9
330
1F
100
AcDbEntity
  8
Default
  6
Continuous
 62
     7
 48
25.4
100
AcDbText
 10
656.052298245
 20
96.4872963974
 30
0.0
 40
5.0
  1
2. Skum-1 & 2 ændret ved stativ
  7
SEACAD_seiso_ttfB
 11
656.052298245
 21
101.4872963974
 31
0.0
100
AcDbText
 73
     3
  0
TEXT
  5
EA
330
1F
100
AcDbEntity
  8
Default
  6
Continuous
 62
     7
 48
25.4
100
AcDbText
 10
656.052298245
 20
88.3054782156
 30
0.0
 40
5.0
  1
Udgave I      06-11-2007    IIv, IVI-tek
  7
SEACAD_seiso_ttfB
 11
656.052298245
 21
93.3054782156
 31
0.0
100
AcDbText
 73
     3
  0
INSERT
  5
EC
330
1F
100
AcDbEntity
  8
Default
100
AcDbBlockReference
  2
SE
 10
0.0
 20
0.0
 30
0.0
  0
INSERT
  5
19D
330
1F
100
AcDbEntity
  8
Default
100
AcDbBlockReference
  2
SE1
 10
0.0
 20
0.0
 30
0.0
  0
DIMENSION
  5
1E7
330
1F
100
AcDbEntity
  8
Default
  6
Continuous
 62
     7
 48
25.4
100
AcDbDimension
  2
DMBLK1
 10
733.5727087442
 20
505.2612957493
 30
0.0
 11
766.0727075521
 21
505.2612957493
 31
0.0
 70
   161
  1
\A1;<>
 71
     5
 42
-1.0
  3
ISO
100
AcDbAlignedDimension
 13
733.5727087442
 23
489.176870598
 33
0.0
 14
798.5727087442
 24
489.176870598
 34
0.0
  0
DIMENSION
  5
1F3
330
1F
100
AcDbEntity
  8
Default
  6
Continuous
 62
     7
 48
25.4
100
AcDbDimension
  2
DMBLK2
 10
678.5727087442
 20
505.2612957493
 30
0.0
 11
706.0727085952
 21
505.2612957493
 31
0.0
 70
   161
  1
\A1;<>
 71
     5
 42
-1.0
  3
ISO
100
AcDbAlignedDimension
 13
678.5727087442
 23
489.176870598
 33
0.0
 14
733.5727087442
 24
489.176870598
 34
0.0
  0
DIMENSION
  5
1FF
330
1F
100
AcDbEntity
  8
Default
  6
Continuous
 62
     7
 48
25.4
100
AcDbDimension
  2
DMBLK3
 10
673.5727087442
 20
505.2716054902
 30
0.0
 11
676.0727086883
 21
505.2716054902
 31
0.0
 70
   161
  1
\A1;<>
 71
     5
 42
-1.0
  3
ISO
100
AcDbAlignedDimension
 13
673.5727087442
 23
489.176870598
 33
0.0
 14
678.5727087442
 24
489.176870598
 34
0.0
  0
DIMENSION
  5
20C
330
1F
100
AcDbEntity
  8
Default
  6
Continuous
 62
     7
 48
25.4
100
AcDbDimension
  2
DMBLK4
 10
55.5964882171
 20
413.676870598
 30
0.0
 11
55.5964882171
 21
435.1768713281
 31
0.0
 70
   161
  1
\A1;<>
 71
     5
 42
-1.0
  3
ISO
100
AcDbAlignedDimension
 13
71.2314366048
 23
413.676870598
 33
0.0
 14
71.2314366048
 24
456.676870598
 34
0.0
  0
DIMENSION
  5
218
330
1F
100
AcDbEntity
  8
Default
  6
Continuous
 62
     7
 48
25.4
100
AcDbDimension
  2
DMBLK5
 10
713.5727087442
 20
495.6198193081
 30
0.0
 11
723.5727085207
 21
495.6198193081
 31
0.0
 70
   161
  1
\A1;<>
 71
     5
 42
-1.0
  3
ISO
100
AcDbAlignedDimension
 13
713.5727087442
 23
489.176870598
 33
0.0
 14
733.5727087442
 24
489.176870598
 34
0.0
  0
DIMENSION
  5
224
330
1F
100
AcDbEntity
  8
Default
  6
Continuous
 62
     7
 48
25.4
100
AcDbDimension
  2
DMBLK6
 10
191.2314366048
 20
506.3213221864
 30
0.0
 11
131.2314352637
 21
506.3213221864
 31
0.0
 70
   160
  1
\A1;<>
 71
     5
 42
-1.0
  3
ISO
100
AcDbAlignedDimension
 13
71.2314366048
 23
456.676870598
 33
0.0
 14
191.2314366048
 24
443.176870598
 34
0.0
100
AcDbRotatedDimension
  0
DIMENSION
  5
230
330
1F
100
AcDbEntity
  8
Default
  6
Continuous
 62
     7
 48
25.4
100
AcDbDimension
  2
DMBLK7
 10
181.0144088661
 20
447.9504059805
 30
0.0
 11
181.0144088661
 21
433.9504055484
 31
0.0
 70
   161
  1
\A1;<>
 71
     5
 42
-1.0
  3
ISO
100
AcDbAlignedDimension
 13
191.2314366048
 23
447.9504059805
 33
0.0
 14
191.2314366048
 24
419.9504059805
 34
0.0
  0
LINE
  5
23B
330
1F
100
AcDbEntity
  8
Default
  6
Continuous
 62
     7
 48
25.4
100
AcDbLine
 10
34.2916320836
 20
10.3065594685
 30
0.0
 11
821.2916320836
 21
10.3065594685
 31
0.0
  0
LINE
  5
23C
330
1F
100
AcDbEntity
  8
Default
  6
Continuous
 62
     7
 48
25.4
100
AcDbLine
 10
821.2916320836
 20
10.3065594685
 30
0.0
 11
821.2916320836
 21
582.7142715852
 31
0.0
  0
LINE
  5
23D
330
1F
100
AcDbEntity
  8
Default
  6
Continuous
 62
     7
 48
25.4
100
AcDbLine
 10
821.2916320836
 20
582.7142715852
 30
0.0
 11
34.2916320836
 21
582.7142715852
 31
0.0
  0
LINE
  5
23E
330
1F
100
AcDbEntity
  8
Default
  6
Continuous
 62
     7
 48
25.4
100
AcDbLine
 10
34.2916320836
 20
582.7142715852
 30
0.0
 11
34.2916320836
 21
10.3065594685
 31
0.0
  0
LINE
  5
23F
330
1F
100
AcDbEntity
  8
Default
  6
Continuous
 62
     7
 48
25.4
100
AcDbLine
 10
34.2916320836
 20
10.3065594685
 30
0.0
 11
19.2916320836
 21
10.3065594685
 31
0.0
  0
LINE
  5
240
330
1F
100
AcDbEntity
  8
Default
  6
Continuous
 62
     7
 48
25.4
100
AcDbLine
 10
34.2916320836
 20
16.7065594685
 30
0.0
 11
19.2916320836
 21
16.7065594685
 31
0.0
  0
LINE
  5
241
330
1F
100
AcDbEntity
  8
Default
  6
Continuous
 62
     7
 48
25.4
100
AcDbLine
 10
34.2916320836
 20
23.1065594685
 30
0.0
 11
19.2916320836
 21
23.1065594685
 31
0.0
  0
LINE
  5
242
330
1F
100
AcDbEntity
  8
Default
  6
Continuous
 62
     7
 48
25.4
100
AcDbLine
 10
34.2916320836
 20
29.5065594685
 30
0.0
 11
19.2916320836
 21
29.5065594685
 31
0.0
  0
LINE
  5
243
330
1F
100
AcDbEntity
  8
Default
  6
Continuous
 62
     7
 48
25.4
100
AcDbLine
 10
34.2916320836
 20
35.9065594685
 30
0.0
 11
19.2916320836
 21
35.9065594685
 31
0.0
  0
LINE
  5
244
330
1F
100
AcDbEntity
  8
Default
  6
Continuous
 62
     7
 48
25.4
100
AcDbLine
 10
34.2916320836
 20
42.3065594685
 30
0.0
 11
19.2916320836
 21
42.3065594685
 31
0.0
  0
LINE
  5
245
330
1F
100
AcDbEntity
  8
Default
  6
Continuous
 62
     7
 48
25.4
100
AcDbLine
 10
34.2916320836
 20
48.7065594685
 30
0.0
 11
19.2916320836
 21
48.7065594685
 31
0.0
  0
LINE
  5
246
330
1F
100
AcDbEntity
  8
Default
  6
Continuous
 62
     7
 48
25.4
100
AcDbLine
 10
34.2916320836
 20
55.1065594685
 30
0.0
 11
19.2916320836
 21
55.1065594685
 31
0.0
  0
LINE
  5
247
330
1F
100
AcDbEntity
  8
Default
  6
Continuous
 62
     7
 48
25.4
100
AcDbLine
 10
34.2916320836
 20
61.5065594685
 30
0.0
 11
19.2916320836
 21
61.5065594685
 31
0.0
  0
LINE
  5
248
330
1F
100
AcDbEntity
  8
Default
  6
Continuous
 62
     7
 48
25.4
100
AcDbLine
 10
34.2916320836
 20
67.9065594685
 30
0.0
 11
19.2916320836
 21
67.9065594685
 31
0.0
  0
LINE
  5
24A
330
1F
100
AcDbEntity
  8
DOGSV_0
  6
Continuous
 62
     7
 48
25.4
100
AcDbLine
 10
696.4760245259
 20
10.3065594685
 30
0.0
 11
696.4760245259
 21
67.4282094548
 31
0.0
  0
LINE
  5
24B
330
1F
100
AcDbEntity
  8
DOGSV_0
  6
Continuous
 62
     7
 48
25.4
100
AcDbLine
 10
696.4760245259
 20
67.4282094548
 30
0.0
 11
789.5924320836
 21
67.4282094548
 31
0.0
  0
LINE
  5
24C
330
1F
100
AcDbEntity
  8
DOGSV_0
  6
Continuous
 62
     7
 48
25.4
100
AcDbLine
 10
696.4760245259
 20
35.7290113442
 30
0.0
 11
821.2916320836
 21
35.7290113442
 31
0.0
  0
LINE
  5
24D
330
1F
100
AcDbEntity
  8
DOGSV_0
  6
Continuous
 62
     7
 48
25.4
100
AcDbLine
 10
696.4760245259
 20
23.3465113442
 30
0.0
 11
821.2916320836
 21
23.3465113442
 31
0.0
  0
LINE
  5
24E
330
1F
100
AcDbEntity
  8
DOGSV_0
  6
Continuous
 62
     7
 48
25.4
100
AcDbLine
 10
743.0342245259
 20
35.7290113442
 30
0.0
 11
743.0342245259
 21
23.3465113442
 31
0.0
  0
LINE
  5
24F
330
1F
100
AcDbEntity
  8
DOGSV_0
  6
Continuous
 62
     7
 48
25.4
100
AcDbLine
 10
762.8462320836
 20
35.7290113442
 30
0.0
 11
762.8462320836
 21
10.3065594685
 31
0.0
  0
LINE
  5
250
330
1F
100
AcDbEntity
  8
DOGSV_0
  6
Continuous
 62
     7
 48
25.4
100
AcDbLine
 10
782.1629320836
 20
35.7290113442
 30
0.0
 11
782.1629320836
 21
23.3465113442
 31
0.0
  0
LINE
  5
251
330
1F
100
AcDbEntity
  8
DOGSV_0
  6
Continuous
 62
     7
 48
25.4
100
AcDbLine
 10
801.4796320836
 20
35.7290113442
 30
0.0
 11
801.4796320836
 21
23.3465113442
 31
0.0
  0
LINE
  5
252
330
1F
100
AcDbEntity
  8
DOGSV_0
  6
Continuous
 62
     7
 48
25.4
100
AcDbLine
 10
775.7240320836
 20
23.3465113442
 30
0.0
 11
775.7240320836
 21
10.3065594685
 31
0.0
  0
LINE
  5
253
330
1F
100
AcDbEntity
  8
DOGSV_0
  6
Continuous
 62
     7
 48
25.4
100
AcDbLine
 10
789.5924320836
 20
67.4282094548
 30
0.0
 11
821.2916320836
 21
67.4282094548
 31
0.0
  0
LINE
  5
254
330
1F
100
AcDbEntity
  8
DOGSV_0
  6
Continuous
 62
     7
 48
25.4
100
AcDbLine
 10
705.8907646222
 20
35.5675612178
 30
0.0
 11
705.8907646222
 21
23.1850612178
 31
0.0
  0
LINE
  5
255
330
1F
100
AcDbEntity
  8
DOGSV_0
  6
Continuous
 62
     7
 48
25.4
100
AcDbLine
 10
720.1039641167
 20
35.7290113442
 30
0.0
 11
720.1039641167
 21
23.3465113442
 31
0.0
  0
LINE
  5
256
330
1F
100
AcDbEntity
  8
Default
  6
Continuous
 62
     7
 48
25.4
100
AcDbLine
 10
696.4760245259
 20
48.2472423514
 30
0.0
 11
821.2916320836
 21
48.2472423514
 31
0.0
  0
LINE
  5
257
330
1F
100
AcDbEntity
  8
Default
  6
Continuous
 62
     7
 48
25.4
100
AcDbLine
 10
696.4760245259
 20
60.9269215957
 30
0.0
 11
821.2916320836
 21
60.9269215957
 31
0.0
  0
LINE
  5
258
330
1F
100
AcDbEntity
  8
Default
  6
Continuous
 62
     7
 48
25.4
100
AcDbLine
 10
696.4760245259
 20
54.5870800842
 30
0.0
 11
821.2916320836
 21
54.5870800842
 31
0.0
  0
LINE
  5
259
330
1F
100
AcDbEntity
  8
Default
  6
Continuous
 62
     7
 48
25.4
100
AcDbLine
 10
696.4760245259
 20
41.9074008399
 30
0.0
 11
782.1629320836
 21
41.9074008399
 31
0.0
  0
LINE
  5
25A
330
1F
100
AcDbEntity
  8
Default
  6
Continuous
 62
     7
 48
25.4
100
AcDbLine
 10
696.4760245259
 20
31.5061008399
 30
0.0
 11
743.0342245259
 21
31.5061008399
 31
0.0
  0
LINE
  5
25B
330
1F
100
AcDbEntity
  8
Default
  6
Continuous
 62
     7
 48
25.4
100
AcDbLine
 10
696.4760245259
 20
27.3455800842
 30
0.0
 11
743.0342245259
 21
27.3455800842
 31
0.0
  0
TEXT
  5
25C
330
1F
100
AcDbEntity
  8
Default
  6
Continuous
 62
     7
 48
25.4
100
AcDbText
 10
698.599092845
 20
64.6366749175
 30
0.0
 40
1.5
  1
Material
  7
SEACAD_seiso_ttfB
 11
698.599092845
 21
66.1366749175
 31
0.0
100
AcDbText
 73
     3
  0
TEXT
  5
25E
330
1F
100
AcDbEntity
  8
Default
  6
Continuous
 62
     7
 48
25.4
100
AcDbText
 10
704.5650019359
 20
64.6366749175
 30
0.0
 40
1.5
  1
e
  7
SEACAD_seans_ttfB
 11
704.5650019359
 21
66.1366749175
 31
0.0
100
AcDbText
 73
     3
  0
TEXT
  5
25F
330
1F
100
AcDbEntity
  8
Default
  6
Continuous
 62
     7
 48
25.4
100
AcDbText
 10
698.0693902134
 20
57.2647633125
 30
0.0
 40
1.5
  1
Overfladebehandling
  7
SEACAD_seiso_ttfB
 11
698.0693902134
 21
58.7647633125
 31
0.0
100
AcDbText
 73
     3
  0
TEXT
  5
260
330
1F
100
AcDbEntity
  8
Default
  6
Continuous
 62
     7
 48
25.4
100
AcDbText
 10
697.5907591793
 20
45.4249337664
 30
0.0
 40
1.5
  1
Frimålstolerance
  7
SEACAD_seiso_ttfB
 11
697.5907591793
 21
46.9249337664
 31
0.0
100
AcDbText
 73
     3
  0
TEXT
  5
261
330
1F
100
AcDbEntity
  8
Default
  6
Continuous
 62
     7
 48
25.4
100
AcDbText
 10
744.2995143731
 20
33.0882884256
 30
0.0
 40
1.5
  1
Tegningsformat
  7
SEACAD_seiso_ttfB
 11
744.2995143731
 21
34.5882884256
 31
0.0
100
AcDbText
 73
     3
  0
TEXT
  5
262
330
1F
100
AcDbEntity
  8
Default
  6
Continuous
 62
     7
 48
25.4
100
AcDbText
 10
763.8546606946
 20
33.0882884256
 30
0.0
 40
1.5
  1
Erstatter
  7
SEACAD_seiso_ttfB
 11
763.8546606946
 21
34.5882884256
 31
0.0
100
AcDbText
 73
     3
  0
TEXT
  5
263
330
1F
100
AcDbEntity
  8
Default
  6
Continuous
 62
     7
 48
25.4
100
AcDbText
 10
783.1254667006
 20
33.0882884256
 30
0.0
 40
1.5
  1
Målforhold
  7
SEACAD_seiso_ttfB
 11
783.1254667006
 21
34.5882884256
 31
0.0
100
AcDbText
 73
     3
  0
TEXT
  5
264
330
1F
100
AcDbEntity
  8
Default
  6
Continuous
 62
     7
 48
25.4
100
AcDbText
 10
776.2968237735
 20
21.1460445728
 30
0.0
 40
1.5
  1
Del nr.
  7
SEACAD_seiso_ttfB
 11
776.2968237735
 21
22.6460445728
 31
0.0
100
AcDbText
 73
     3
  0
TEXT
  5
265
330
1F
100
AcDbEntity
  8
Default
  6
Continuous
 62
     7
 48
25.4
100
AcDbText
 10
763.4190237735
 20
21.16964085
 30
0.0
 40
1.5
  1
Udgave
  7
SEACAD_seiso_ttfB
 11
763.4190237735
 21
22.66964085
 31
0.0
100
AcDbText
 73
     3
  0
TEXT
  5
266
330
1F
100
AcDbEntity
  8
Default
  6
Continuous
 62
     7
 48
25.4
100
AcDbText
 10
697.0488162158
 20
21.0982717029
 30
0.0
 40
1.5
  1
Benævnelse
  7
SEACAD_seiso_ttfB
 11
697.0488162158
 21
22.5982717029
 31
0.0
100
AcDbText
 73
     3
  0
TEXT
  5
267
330
1F
100
AcDbEntity
  8
Default
  6
Continuous
 62
     7
 48
25.4
100
AcDbText
 10
697.2121042335
 20
32.7312455054
 30
0.0
 40
1.5
  1
Konstr.
  7
SEACAD_seiso_ttfB
 11
697.2121042335
 21
34.2312455054
 31
0.0
100
AcDbText
 73
     3
  0
TEXT
  5
268
330
1F
100
AcDbEntity
  8
Default
  6
Continuous
 62
     7
 48
25.4
100
AcDbText
 10
697.2121042335
 20
29.0200498532
 30
0.0
 40
1.5
  1
Udf. af
  7
SEACAD_seiso_ttfB
 11
697.2121042335
 21
30.5200498532
 31
0.0
100
AcDbText
 73
     3
  0
TEXT
  5
269
330
1F
100
AcDbEntity
  8
Default
  6
Continuous
 62
     7
 48
25.4
100
AcDbText
 10
751.2635335435
 20
25.7079150068
 30
0.0
 40
5.0
  1
A1
  7
SEACAD_seiso_ttfB
 11
751.2635335435
 21
30.7079150068
 31
0.0
100
AcDbText
 73
     3
  0
LINE
  5
26A
330
1F
100
AcDbEntity
  8
Default
  6
Continuous
 62
     7
 48
25.4
100
AcDbLine
 10
38.6916320836
 20
578.3142715852
 30
0.0
 11
38.6916320836
 21
10.3065594685
 31
0.0
  0
LINE
  5
26B
330
1F
100
AcDbEntity
  8
Default
  6
Continuous
 62
     7
 48
25.4
100
AcDbLine
 10
821.2916320836
 20
578.3142715852
 30
0.0
 11
38.6916320836
 21
578.3142715852
 31
0.0
  0
LINE
  5
26C
330
1F
100
AcDbEntity
  8
Default
  6
Continuous
 62
     7
 48
25.4
100
AcDbLine
 10
38.6916320836
 20
538.3142715852
 30
0.0
 11
34.2916320836
 21
538.3142715852
 31
0.0
  0
TEXT
  5
26D
330
1F
100
AcDbEntity
  8
Default
  6
Continuous
 62
     7
 48
25.4
100
AcDbText
 10
36.026781136
 20
558.8780639221
 30
0.0
 40
2.4
  1
A
  7
SEACAD_seiso_ttfB
 11
36.026781136
 21
561.2780639221
 31
0.0
100
AcDbText
 73
     3
  0
LINE
  5
26E
330
1F
100
AcDbEntity
  8
Default
  6
Continuous
 62
     7
 48
25.4
100
AcDbLine
 10
78.6916320836
 20
578.3141776043
 30
0.0
 11
78.6916320836
 21
582.7142715852
 31
0.0
  0
TEXT
  5
26F
330
1F
100
AcDbEntity
  8
Default
  6
Continuous
 62
     7
 48
25.4
100
AcDbText
 10
57.453886805
 20
579.0903715997
 30
0.0
 40
2.4
  1
1
  7
SEACAD_seiso_ttfB
 11
57.453886805
 21
581.4903715997
 31
0.0
100
AcDbText
 73
     3
  0
LINE
  5
270
330
1F
100
AcDbEntity
  8
Default
  6
Continuous
 62
     7
 48
25.4
100
AcDbLine
 10
118.6916320836
 20
578.3141776043
 30
0.0
 11
118.6916320836
 21
582.7142715852
 31
0.0
  0
TEXT
  5
271
330
1F
100
AcDbEntity
  8
Default
  6
Continuous
 62
     7
 48
25.4
100
AcDbText
 10
97.2084322595
 20
579.0903715997
 30
0.0
 40
2.4
  1
2
  7
SEACAD_seiso_ttfB
 11
97.2084322595
 21
581.4903715997
 31
0.0
100
AcDbText
 73
     3
  0
LINE
  5
272
330
1F
100
AcDbEntity
  8
Default
  6
Continuous
 62
     7
 48
25.4
100
AcDbLine
 10
158.6916320836
 20
578.3141776043
 30
0.0
 11
158.6916320836
 21
582.7142715852
 31
0.0
  0
TEXT
  5
273
330
1F
100
AcDbEntity
  8
Default
  6
Continuous
 62
     7
 48
25.4
100
AcDbText
 10
137.3175231686
 20
579.0903715997
 30
0.0
 40
2.4
  1
3
  7
SEACAD_seiso_ttfB
 11
137.3175231686
 21
581.4903715997
 31
0.0
100
AcDbText
 73
     3
  0
LINE
  5
274
330
1F
100
AcDbEntity
  8
Default
  6
Continuous
 62
     7
 48
25.4
100
AcDbLine
 10
198.6916320836
 20
578.3141776043
 30
0.0
 11
198.6916320836
 21
582.7142715852
 31
0.0
  0
TEXT
  5
275
330
1F
100
AcDbEntity
  8
Default
  6
Continuous
 62
     7
 48
25.4
100
AcDbText
 10
177.2357049868
 20
579.0903715997
 30
0.0
 40
2.4
  1
4
  7
SEACAD_seiso_ttfB
 11
177.2357049868
 21
581.4903715997
 31
0.0
100
AcDbText
 73
     3
  0
LINE
  5
276
330
1F
100
AcDbEntity
  8
Default
  6
Continuous
 62
     7
 48
25.4
100
AcDbLine
 10
238.6916320836
 20
578.3141776043
 30
0.0
 11
238.6916320836
 21
582.7142715852
 31
0.0
  0
TEXT
  5
277
330
1F
100
AcDbEntity
  8
Default
  6
Continuous
 62
     7
 48
25.4
100
AcDbText
 10
217.2902504414
 20
579.0903715997
 30
0.0
 40
2.4
  1
5
  7
SEACAD_seiso_ttfB
 11
217.2902504414
 21
581.4903715997
 31
0.0
100
AcDbText
 73
     3
  0
LINE
  5
278
330
1F
100
AcDbEntity
  8
Default
  6
Continuous
 62
     7
 48
25.4
100
AcDbLine
 10
278.6916320836
 20
578.3141776043
 30
0.0
 11
278.6916320836
 21
582.7142715852
 31
0.0
  0
TEXT
  5
279
330
1F
100
AcDbEntity
  8
Default
  6
Continuous
 62
     7
 48
25.4
100
AcDbText
 10
257.2357049868
 20
579.0903715997
 30
0.0
 40
2.4
  1
6
  7
SEACAD_seiso_ttfB
 11
257.2357049868
 21
581.4903715997
 31
0.0
100
AcDbText
 73
     3
  0
LINE
  5
27A
330
1F
100
AcDbEntity
  8
Default
  6
Continuous
 62
     7
 48
25.4
100
AcDbLine
 10
318.6916320836
 20
578.3141776043
 30
0.0
 11
318.6916320836
 21
582.7142715852
 31
0.0
  0
TEXT
  5
27B
330
1F
100
AcDbEntity
  8
Default
  6
Continuous
 62
     7
 48
25.4
100
AcDbText
 10
297.1811595323
 20
579.0903715997
 30
0.0
 40
2.4
  1
7
  7
SEACAD_seiso_ttfB
 11
297.1811595323
 21
581.4903715997
 31
0.0
100
AcDbText
 73
     3
  0
LINE
  5
27C
330
1F
100
AcDbEntity
  8
Default
  6
Continuous
 62
     7
 48
25.4
100
AcDbLine
 10
358.6916320836
 20
578.3141776043
 30
0.0
 11
358.6916320836
 21
582.7142715852
 31
0.0
  0
TEXT
  5
27D
330
1F
100
AcDbEntity
  8
Default
  6
Continuous
 62
     7
 48
25.4
100
AcDbText
 10
337.2084322595
 20
579.0903715997
 30
0.0
 40
2.4
  1
8
  7
SEACAD_seiso_ttfB
 11
337.2084322595
 21
581.4903715997
 31
0.0
100
AcDbText
 73
     3
  0
LINE
  5
27E
330
1F
100
AcDbEntity
  8
Default
  6
Continuous
 62
     7
 48
25.4
100
AcDbLine
 10
398.6916320836
 20
578.3141776043
 30
0.0
 11
398.6916320836
 21
582.7142715852
 31
0.0
  0
TEXT
  5
27F
330
1F
100
AcDbEntity
  8
Default
  6
Continuous
 62
     7
 48
25.4
100
AcDbText
 10
377.2357049868
 20
579.0903715997
 30
0.0
 40
2.4
  1
9
  7
SEACAD_seiso_ttfB
 11
377.2357049868
 21
581.4903715997
 31
0.0
100
AcDbText
 73
     3
  0
LINE
  5
280
330
1F
100
AcDbEntity
  8
Default
  6
Continuous
 62
     7
 48
25.4
100
AcDbLine
 10
438.6916320836
 20
578.3141776043
 30
0.0
 11
438.6916320836
 21
582.7142715852
 31
0.0
  0
TEXT
  5
281
330
1F
100
AcDbEntity
  8
Default
  6
Continuous
 62
     7
 48
25.4
100
AcDbText
 10
416.7447958959
 20
579.0903715997
 30
0.0
 40
2.4
  1
10
  7
SEACAD_seiso_ttfB
 11
416.7447958959
 21
581.4903715997
 31
0.0
100
AcDbText
 73
     3
  0
LINE
  5
282
330
1F
100
AcDbEntity
  8
Default
  6
Continuous
 62
     7
 48
25.4
100
AcDbLine
 10
478.6916320836
 20
578.3141776043
 30
0.0
 11
478.6916320836
 21
582.7142715852
 31
0.0
  0
TEXT
  5
283
330
1F
100
AcDbEntity
  8
Default
  6
Continuous
 62
     7
 48
25.4
100
AcDbText
 10
456.9629777141
 20
579.0903715997
 30
0.0
 40
2.4
  1
11
  7
SEACAD_seiso_ttfB
 11
456.9629777141
 21
581.4903715997
 31
0.0
100
AcDbText
 73
     3
  0
LINE
  5
284
330
1F
100
AcDbEntity
  8
Default
  6
Continuous
 62
     7
 48
25.4
100
AcDbLine
 10
518.6916320836
 20
578.3141776043
 30
0.0
 11
518.6916320836
 21
582.7142715852
 31
0.0
  0
TEXT
  5
285
330
1F
100
AcDbEntity
  8
Default
  6
Continuous
 62
     7
 48
25.4
100
AcDbText
 10
496.7175231686
 20
579.0903715997
 30
0.0
 40
2.4
  1
12
  7
SEACAD_seiso_ttfB
 11
496.7175231686
 21
581.4903715997
 31
0.0
100
AcDbText
 73
     3
  0
LINE
  5
286
330
1F
100
AcDbEntity
  8
Default
  6
Continuous
 62
     7
 48
25.4
100
AcDbLine
 10
558.6916320836
 20
578.3141776043
 30
0.0
 11
558.6916320836
 21
582.7142715852
 31
0.0
  0
TEXT
  5
287
330
1F
100
AcDbEntity
  8
Default
  6
Continuous
 62
     7
 48
25.4
100
AcDbText
 10
536.8266140777
 20
579.0903715997
 30
0.0
 40
2.4
  1
13
  7
SEACAD_seiso_ttfB
 11
536.8266140777
 21
581.4903715997
 31
0.0
100
AcDbText
 73
     3
  0
LINE
  5
288
330
1F
100
AcDbEntity
  8
Default
  6
Continuous
 62
     7
 48
25.4
100
AcDbLine
 10
598.6916320836
 20
578.3141776043
 30
0.0
 11
598.6916320836
 21
582.7142715852
 31
0.0
  0
TEXT
  5
289
330
1F
100
AcDbEntity
  8
Default
  6
Continuous
 62
     7
 48
25.4
100
AcDbText
 10
576.7447958959
 20
579.0903715997
 30
0.0
 40
2.4
  1
14
  7
SEACAD_seiso_ttfB
 11
576.7447958959
 21
581.4903715997
 31
0.0
100
AcDbText
 73
     3
  0
LINE
  5
28A
330
1F
100
AcDbEntity
  8
Default
  6
Continuous
 62
     7
 48
25.4
100
AcDbLine
 10
638.6916320836
 20
578.3141776043
 30
0.0
 11
638.6916320836
 21
582.7142715852
 31
0.0
  0
TEXT
  5
28B
330
1F
100
AcDbEntity
  8
Default
  6
Continuous
 62
     7
 48
25.4
100
AcDbText
 10
616.7993413505
 20
579.0903715997
 30
0.0
 40
2.4
  1
15
  7
SEACAD_seiso_ttfB
 11
616.7993413505
 21
581.4903715997
 31
0.0
100
AcDbText
 73
     3
  0
LINE
  5
28C
330
1F
100
AcDbEntity
  8
Default
  6
Continuous
 62
     7
 48
25.4
100
AcDbLine
 10
678.6916320836
 20
578.3141776043
 30
0.0
 11
678.6916320836
 21
582.7142715852
 31
0.0
  0
TEXT
  5
28D
330
1F
100
AcDbEntity
  8
Default
  6
Continuous
 62
     7
 48
25.4
100
AcDbText
 10
656.7447958959
 20
579.0903715997
 30
0.0
 40
2.4
  1
16
  7
SEACAD_seiso_ttfB
 11
656.7447958959
 21
581.4903715997
 31
0.0
100
AcDbText
 73
     3
  0
LINE
  5
28E
330
1F
100
AcDbEntity
  8
Default
  6
Continuous
 62
     7
 48
25.4
100
AcDbLine
 10
718.6916320836
 20
578.3141776043
 30
0.0
 11
718.6916320836
 21
582.7142715852
 31
0.0
  0
TEXT
  5
28F
330
1F
100
AcDbEntity
  8
Default
  6
Continuous
 62
     7
 48
25.4
100
AcDbText
 10
696.6902504414
 20
579.0903715997
 30
0.0
 40
2.4
  1
17
  7
SEACAD_seiso_ttfB
 11
696.6902504414
 21
581.4903715997
 31
0.0
100
AcDbText
 73
     3
  0
LINE
  5
290
330
1F
100
AcDbEntity
  8
Default
  6
Continuous
 62
     7
 48
25.4
100
AcDbLine
 10
758.6916320836
 20
578.3141776043
 30
0.0
 11
758.6916320836
 21
582.7142715852
 31
0.0
  0
TEXT
  5
291
330
1F
100
AcDbEntity
  8
Default
  6
Continuous
 62
     7
 48
25.4
100
AcDbText
 10
736.7175231686
 20
579.0903715997
 30
0.0
 40
2.4
  1
18
  7
SEACAD_seiso_ttfB
 11
736.7175231686
 21
581.4903715997
 31
0.0
100
AcDbText
 73
     3
  0
LINE
  5
292
330
1F
100
AcDbEntity
  8
Default
  6
Continuous
 62
     7
 48
25.4
100
AcDbLine
 10
798.6916320836
 20
578.3141776043
 30
0.0
 11
798.6916320836
 21
582.7142715852
 31
0.0
  0
TEXT
  5
293
330
1F
100
AcDbEntity
  8
Default
  6
Continuous
 62
     7
 48
25.4
100
AcDbText
 10
776.7447958959
 20
579.0903715997
 30
0.0
 40
2.4
  1
19
  7
SEACAD_seiso_ttfB
 11
776.7447958959
 21
581.4903715997
 31
0.0
100
AcDbText
 73
     3
  0
TEXT
  5
294
330
1F
100
AcDbEntity
  8
Default
  6
Continuous
 62
     7
 48
25.4
100
AcDbText
 10
816.4993413505
 20
579.0903715997
 30
0.0
 40
2.4
  1
20
  7
SEACAD_seiso_ttfB
 11
816.4993413505
 21
581.4903715997
 31
0.0
100
AcDbText
 73
     3
  0
LINE
  5
295
330
1F
100
AcDbEntity
  8
Default
  6
Continuous
 62
     7
 48
25.4
100
AcDbLine
 10
38.6916320836
 20
498.3142715852
 30
0.0
 11
34.2916320836
 21
498.3142715852
 31
0.0
  0
TEXT
  5
296
330
1F
100
AcDbEntity
  8
Default
  6
Continuous
 62
     7
 48
25.4
100
AcDbText
 10
35.9995084087
 20
518.8780639221
 30
0.0
 40
2.4
  1
B
  7
SEACAD_seiso_ttfB
 11
35.9995084087
 21
521.2780639221
 31
0.0
100
AcDbText
 73
     3
  0
LINE
  5
297
330
1F
100
AcDbEntity
  8
Default
  6
Continuous
 62
     7
 48
25.4
100
AcDbLine
 10
38.6916320836
 20
458.3142715852
 30
0.0
 11
34.2916320836
 21
458.3142715852
 31
0.0
  0
TEXT
  5
298
330
1F
100
AcDbEntity
  8
Default
  6
Continuous
 62
     7
 48
25.4
100
AcDbText
 10
36.0540538632
 20
478.8780639221
 30
0.0
 40
2.4
  1
C
  7
SEACAD_seiso_ttfB
 11
36.0540538632
 21
481.2780639221
 31
0.0
100
AcDbText
 73
     3
  0
LINE
  5
299
330
1F
100
AcDbEntity
  8
Default
  6
Continuous
 62
     7
 48
25.4
100
AcDbLine
 10
38.6916320836
 20
418.3142715852
 30
0.0
 11
34.2916320836
 21
418.3142715852
 31
0.0
  0
TEXT
  5
29A
330
1F
100
AcDbEntity
  8
Default
  6
Continuous
 62
     7
 48
25.4
100
AcDbText
 10
35.9722356814
 20
438.8780639221
 30
0.0
 40
2.4
  1
D
  7
SEACAD_seiso_ttfB
 11
35.9722356814
 21
441.2780639221
 31
0.0
100
AcDbText
 73
     3
  0
LINE
  5
29B
330
1F
100
AcDbEntity
  8
Default
  6
Continuous
 62
     7
 48
25.4
100
AcDbLine
 10
38.6916320836
 20
378.3142715852
 30
0.0
 11
34.2916320836
 21
378.3142715852
 31
0.0
  0
TEXT
  5
29C
330
1F
100
AcDbEntity
  8
Default
  6
Continuous
 62
     7
 48
25.4
100
AcDbText
 10
36.026781136
 20
398.8780639221
 30
0.0
 40
2.4
  1
E
  7
SEACAD_seiso_ttfB
 11
36.026781136
 21
401.2780639221
 31
0.0
100
AcDbText
 73
     3
  0
LINE
  5
29D
330
1F
100
AcDbEntity
  8
Default
  6
Continuous
 62
     7
 48
25.4
100
AcDbLine
 10
38.6916320836
 20
338.3142715852
 30
0.0
 11
34.2916320836
 21
338.3142715852
 31
0.0
  0
TEXT
  5
29E
330
1F
100
AcDbEntity
  8
Default
  6
Continuous
 62
     7
 48
25.4
100
AcDbText
 10
36.0540538632
 20
358.8780639221
 30
0.0
 40
2.4
  1
F
  7
SEACAD_seiso_ttfB
 11
36.0540538632
 21
361.2780639221
 31
0.0
100
AcDbText
 73
     3
  0
LINE
  5
29F
330
1F
100
AcDbEntity
  8
Default
  6
Continuous
 62
     7
 48
25.4
100
AcDbLine
 10
38.6916320836
 20
298.3142715852
 30
0.0
 11
34.2916320836
 21
298.3142715852
 31
0.0
  0
TEXT
  5
2A0
330
1F
100
AcDbEntity
  8
Default
  6
Continuous
 62
     7
 48
25.4
100
AcDbText
 10
35.9722356814
 20
318.8780639221
 30
0.0
 40
2.4
  1
G
  7
SEACAD_seiso_ttfB
 11
35.9722356814
 21
321.2780639221
 31
0.0
100
AcDbText
 73
     3
  0
LINE
  5
2A1
330
1F
100
AcDbEntity
  8
Default
  6
Continuous
 62
     7
 48
25.4
100
AcDbLine
 10
38.6916320836
 20
258.3142715852
 30
0.0
 11
34.2916320836
 21
258.3142715852
 31
0.0
  0
TEXT
  5
2A2
330
1F
100
AcDbEntity
  8
Default
  6
Continuous
 62
     7
 48
25.4
100
AcDbText
 10
35.9449629542
 20
278.8780639221
 30
0.0
 40
2.4
  1
H
  7
SEACAD_seiso_ttfB
 11
35.9449629542
 21
281.2780639221
 31
0.0
100
AcDbText
 73
     3
  0
LINE
  5
2A3
330
1F
100
AcDbEntity
  8
Default
  6
Continuous
 62
     7
 48
25.4
100
AcDbLine
 10
38.6916320836
 20
218.3142715852
 30
0.0
 11
34.2916320836
 21
218.3142715852
 31
0.0
  0
TEXT
  5
2A4
330
1F
100
AcDbEntity
  8
Default
  6
Continuous
 62
     7
 48
25.4
100
AcDbText
 10
36.326781136
 20
238.8780639221
 30
0.0
 40
2.4
  1
I
  7
SEACAD_seiso_ttfB
 11
36.326781136
 21
241.2780639221
 31
0.0
100
AcDbText
 73
     3
  0
LINE
  5
2A5
330
1F
100
AcDbEntity
  8
Default
  6
Continuous
 62
     7
 48
25.4
100
AcDbLine
 10
38.6916320836
 20
178.3142715852
 30
0.0
 11
34.2916320836
 21
178.3142715852
 31
0.0
  0
TEXT
  5
2A6
330
1F
100
AcDbEntity
  8
Default
  6
Continuous
 62
     7
 48
25.4
100
AcDbText
 10
36.0813265905
 20
198.8780639221
 30
0.0
 40
2.4
  1
J
  7
SEACAD_seiso_ttfB
 11
36.0813265905
 21
201.2780639221
 31
0.0
100
AcDbText
 73
     3
  0
LINE
  5
2A7
330
1F
100
AcDbEntity
  8
Default
  6
Continuous
 62
     7
 48
25.4
100
AcDbLine
 10
38.6916320836
 20
138.3142715852
 30
0.0
 11
34.2916320836
 21
138.3142715852
 31
0.0
  0
TEXT
  5
2A8
330
1F
100
AcDbEntity
  8
Default
  6
Continuous
 62
     7
 48
25.4
100
AcDbText
 10
35.9449629542
 20
158.8780639221
 30
0.0
 40
2.4
  1
K
  7
SEACAD_seiso_ttfB
 11
35.9449629542
 21
161.2780639221
 31
0.0
100
AcDbText
 73
     3
  0
LINE
  5
2A9
330
1F
100
AcDbEntity
  8
Default
  6
Continuous
 62
     7
 48
25.4
100
AcDbLine
 10
38.6916320836
 20
98.3142715852
 30
0.0
 11
34.2916320836
 21
98.3142715852
 31
0.0
  0
TEXT
  5
2AA
330
1F
100
AcDbEntity
  8
Default
  6
Continuous
 62
     7
 48
25.4
100
AcDbText
 10
36.2722356814
 20
118.8780639221
 30
0.0
 40
2.4
  1
l
  7
SEACAD_seiso_ttfB
 11
36.2722356814
 21
121.2780639221
 31
0.0
100
AcDbText
 73
     3
  0
TEXT
  5
2AB
330
1F
100
AcDbEntity
  8
Default
  6
Continuous
 62
     7
 48
25.4
100
AcDbText
 10
35.7813265905
 20
78.8780639221
 30
0.0
 40
2.4
  1
M
  7
SEACAD_seiso_ttfB
 11
35.7813265905
 21
81.2780639221
 31
0.0
100
AcDbText
 73
     3
  0
LINE
  5
2AC
330
1F
100
AcDbEntity
  8
Default
  6
Continuous
 62
     7
 48
25.4
100
AcDbLine
 10
0.1940482458
 20
297.3264233552
 30
0.0
 11
34.2916320836
 21
297.3264233552
 31
0.0
  0
LINE
  5
2AD
330
1F
100
AcDbEntity
  8
Default
  6
Continuous
 62
     7
 48
25.4
100
AcDbLine
 10
0.1940482458
 20
148.8264233552
 30
0.0
 11
34.2916320836
 21
148.8264233552
 31
0.0
  0
LINE
  5
2AE
330
1F
100
AcDbEntity
  8
Default
  6
Continuous
 62
     7
 48
25.4
100
AcDbLine
 10
841.651013341
 20
297.3264233552
 30
0.0
 11
821.2916320836
 21
297.3264233552
 31
0.0
  0
LINE
  5
2AF
330
1F
100
AcDbEntity
  8
Default
  6
Continuous
 62
     7
 48
25.4
100
AcDbLine
 10
187.170128525
 20
0.3264233552
 30
0.0
 11
187.170128525
 21
10.3065594685
 31
0.0
  0
LINE
  5
2B0
330
1F
100
AcDbEntity
  8
Default
  6
Continuous
 62
     7
 48
25.4
100
AcDbLine
 10
337.170128525
 20
0.3264233552
 30
0.0
 11
337.170128525
 21
10.3065594685
 31
0.0
  0
LINE
  5
2B1
330
1F
100
AcDbEntity
  8
Default
  6
Continuous
 62
     7
 48
25.4
100
AcDbLine
 10
495.170128525
 20
0.3264233552
 30
0.0
 11
495.170128525
 21
10.3065594685
 31
0.0
  0
LINE
  5
2B2
330
1F
100
AcDbEntity
  8
Default
  6
Continuous
 62
     7
 48
25.4
100
AcDbLine
 10
653.170128525
 20
0.3264233552
 30
0.0
 11
653.170128525
 21
10.3065594685
 31
0.0
  0
LINE
  5
2B3
330
1F
100
AcDbEntity
  8
Default
  6
Continuous
 62
     7
 48
25.4
100
AcDbLine
 10
187.170128525
 20
582.7142715852
 30
0.0
 11
187.170128525
 21
592.7142715852
 31
0.0
  0
LINE
  5
2B4
330
1F
100
AcDbEntity
  8
Default
  6
Continuous
 62
     7
 48
25.4
100
AcDbLine
 10
337.170128525
 20
582.7142715852
 30
0.0
 11
337.170128525
 21
592.7142715852
 31
0.0
  0
LINE
  5
2B5
330
1F
100
AcDbEntity
  8
Default
  6
Continuous
 62
     7
 48
25.4
100
AcDbLine
 10
495.170128525
 20
582.7142715852
 30
0.0
 11
495.170128525
 21
592.7142715852
 31
0.0
  0
LINE
  5
2B6
330
1F
100
AcDbEntity
  8
Default
  6
Continuous
 62
     7
 48
25.4
100
AcDbLine
 10
653.170128525
 20
582.7142715852
 30
0.0
 11
653.170128525
 21
592.7142715852
 31
0.0
  0
LINE
  5
2B7
330
1F
100
AcDbEntity
  8
Default
  6
Continuous
 62
     7
 48
25.4
100
AcDbLine
 10
38.6916320836
 20
58.407121857
 30
0.0
 11
34.2916320836
 21
58.407121857
 31
0.0
  0
TEXT
  5
2B8
330
1F
100
AcDbEntity
  8
Default
  6
Continuous
 62
     7
 48
25.4
100
AcDbText
 10
35.9722356814
 20
38.9709141938
 30
0.0
 40
2.4
  1
N
  7
SEACAD_seiso_ttfB
 11
35.9722356814
 21
41.3709141938
 31
0.0
100
AcDbText
 73
     3
  0
LINE
  5
2B9
330
1F
100
AcDbEntity
  8
Default
  6
Continuous
 62
     7
 48
25.4
100
AcDbLine
 10
38.6916320836
 20
18.797786679
 30
0.0
 11
34.2916320836
 21
18.797786679
 31
0.0
  0
TEXT
  5
2BB
330
1F
100
AcDbEntity
  8
Default
  6
Continuous
 62
     7
 48
25.4
100
AcDbText
 10
802.6193801742
 20
28.7414131999
 30
0.0
 40
3.5
  1
IVI-tek
  7
SEACAD_times_ttfBI
 11
802.6193801742
 21
32.2414131999
 31
0.0
100
AcDbText
 73
     3
  0
LINE
  5
2BC
330
1F
100
AcDbEntity
  8
Default
  6
Continuous
 62
     7
 48
25.4
100
AcDbLine
 10
782.1629320836
 20
35.7290113442
 30
0.0
 11
782.1629320836
 21
67.4282094548
 31
0.0
  0
ENDSEC
  0
SECTION
  2
OBJECTS
  0
DICTIONARY
  5
C
330
0
100
AcDbDictionary
281
     1
  3
ACAD_GROUP
350
D
  3
ACAD_LAYOUT
350
1A
  3
ACAD_MLINESTYLE
350
17
  3
ACAD_PLOTSETTINGS
350
19
  3
ACAD_PLOTSTYLENAME
350
E
  0
DICTIONARY
  5
D
102
{ACAD_REACTORS
330
C
102
}
330
C
100
AcDbDictionary
281
     1
  0
DICTIONARY
  5
1A
102
{ACAD_REACTORS
330
C
102
}
330
C
100
AcDbDictionary
281
     1
  3
Layout1
350
1E
  3
Model
350
22
  0
DICTIONARY
  5
17
102
{ACAD_REACTORS
330
C
102
}
330
C
100
AcDbDictionary
281
     1
  3
Standard
350
18
  0
DICTIONARY
  5
19
102
{ACAD_REACTORS
330
C
102
}
330
C
100
AcDbDictionary
281
     1
  0
ACDBDICTIONARYWDFLT
  5
E
102
{ACAD_REACTORS
330
C
102
}
330
C
100
AcDbDictionary
281
     1
  3
Normal
350
F
100
AcDbDictionaryWithDefault
340
F
  0
LAYOUT
  5
1E
102
{ACAD_REACTORS
330
1A
102
}
330
1A
100
AcDbPlotSettings
  1

  2

  4

  6

 40
0.0
 41
0.0
 42
0.0
 43
0.0
 44
0.0
 45
0.0
 46
0.0
 47
0.0
 48
0.0
 49
0.0
140
0.0
141
0.0
142
1.0
143
1.0
 70
   688
 72
     0
 73
     0
 74
     5
  7

 75
    16
147
1.0
148
0.0
149
0.0
100
AcDbLayout
  1
Layout1
 70
     1
 71
     1
 10
0.0
 20
0.0
 11
841.0
 21
594.0
 12
0.0
 22
0.0
 32
0.0
 14
0.0
 24
0.0
 34
0.0
 15
841.0
 25
594.0
 35
0.0
146
0.0
 13
0.0
 23
0.0
 33
0.0
 16
1.0
 26
0.0
 36
0.0
 17
0.0
 27
1.0
 37
0.0
 76
     0
330
1B
  0
LAYOUT
  5
22
102
{ACAD_REACTORS
330
1A
102
}
330
1A
100
AcDbPlotSettings
  1

  2

  4

  6

 40
0.0
 41
0.0
 42
0.0
 43
0.0
 44
0.0
 45
0.0
 46
0.0
 47
0.0
 48
0.0
 49
0.0
140
0.0
141
0.0
142
1.0
143
1.0
 70
  1712
 72
     0
 73
     0
 74
     0
  7

 75
     0
147
1.0
148
0.0
149
0.0
100
AcDbLayout
  1
Model
 70
     1
 71
     0
 10
0.0
 20
0.0
 11
841.0
 21
594.0
 12
0.0
 22
0.0
 32
0.0
 14
0.0
 24
0.0
 34
0.0
 15
841.0
 25
594.0
 35
0.0
146
0.0
 13
0.0
 23
0.0
 33
0.0
 16
1.0
 26
0.0
 36
0.0
 17
0.0
 27
1.0
 37
0.0
 76
     0
330
1F
  0
MLINESTYLE
  5
18
102
{ACAD_REACTORS
330
17
102
}
330
17
100
AcDbMlineStyle
  2
Standard
 70
     0
  3

 62
   256
 51
90.0
 52
90.0
 71
     2
 49
0.5
 62
   256
  6
BYLAYER
 49
-0.5
 62
   256
  6
BYLAYER
  0
ACDBPLACEHOLDER
  5
F
102
{ACAD_REACTORS
330
E
102
}
330
E
  0
ENDSEC
  0
EOF
