  0
SECTION
  2
HEADER
  9
$ACADVER
  1
AC1015
  9
$ACADMAINTVER
 70
     6
  9
$DWGCODEPAGE
  3
ANSI_1252
  9
$INSBASE
 10
0.0
 20
0.0
 30
0.0
  9
$EXTMIN
 10
0.0
 20
0.0
 30
0.0
  9
$EXTMAX
 10
841.0
 20
594.0
 30
0.0
  9
$LIMMIN
 10
0.0
 20
0.0
  9
$LIMMAX
 10
841.0
 20
594.0
  9
$ORTHOMODE
 70
     0
  9
$REGENMODE
 70
     1
  9
$FILLMODE
 70
     1
  9
$QTEXTMODE
 70
     0
  9
$MIRRTEXT
 70
     1
  9
$LTSCALE
 40
1.0
  9
$ATTMODE
 70
     1
  9
$TEXTSIZE
 40
0.2
  9
$TRACEWID
 40
0.05
  9
$TEXTSTYLE
  7
Standard
  9
$CLAYER
  8
0
  9
$CELTYPE
  6
ByLayer
  9
$CECOLOR
 62
   256
  9
$CELTSCALE
 40
25.4
  9
$DISPSILH
 70
     0
  9
$DIMSCALE
 40
1.0
  9
$DIMASZ
 40
0.18
  9
$DIMEXO
 40
0.0625
  9
$DIMDLI
 40
0.38
  9
$DIMRND
 40
0.0
  9
$DIMDLE
 40
0.0
  9
$DIMEXE
 40
0.18
  9
$DIMTP
 40
0.0
  9
$DIMTM
 40
0.0
  9
$DIMTXT
 40
0.18
  9
$DIMCEN
 40
0.09
  9
$DIMTSZ
 40
0.0
  9
$DIMTOL
 70
     0
  9
$DIMLIM
 70
     0
  9
$DIMTIH
 70
     1
  9
$DIMTOH
 70
     1
  9
$DIMSE1
 70
     0
  9
$DIMSE2
 70
     0
  9
$DIMTAD
 70
     0
  9
$DIMZIN
 70
     0
  9
$DIMBLK
  1

  9
$DIMASO
 70
     1
  9
$DIMSHO
 70
     1
  9
$DIMPOST
  1

  9
$DIMAPOST
  1

  9
$DIMALT
 70
     0
  9
$DIMALTD
 70
     2
  9
$DIMALTF
 40
25.4
  9
$DIMLFAC
 40
1.0
  9
$DIMTOFL
 70
     0
  9
$DIMTVP
 40
0.0
  9
$DIMTIX
 70
     0
  9
$DIMSOXD
 70
     0
  9
$DIMSAH
 70
     0
  9
$DIMBLK1
  1

  9
$DIMBLK2
  1

  9
$DIMSTYLE
  2
Standard
  9
$DIMCLRD
 70
     0
  9
$DIMCLRE
 70
     0
  9
$DIMCLRT
 70
     0
  9
$DIMTFAC
 40
1.0
  9
$DIMGAP
 40
0.09
  9
$DIMJUST
 70
     0
  9
$DIMSD1
 70
     0
  9
$DIMSD2
 70
     0
  9
$DIMTOLJ
 70
     1
  9
$DIMTZIN
 70
     0
  9
$DIMALTZ
 70
     0
  9
$DIMALTTZ
 70
     0
  9
$DIMUPT
 70
     0
  9
$DIMDEC
 70
     4
  9
$DIMTDEC
 70
     4
  9
$DIMALTU
 70
     2
  9
$DIMALTTD
 70
     2
  9
$DIMTXSTY
  7
Standard
  9
$DIMAUNIT
 70
     0
  9
$DIMADEC
 70
     0
  9
$DIMALTRND
 40
0.0
  9
$DIMAZIN
 70
     0
  9
$DIMDSEP
 70
    46
  9
$DIMATFIT
 70
     3
  9
$DIMFRAC
 70
     0
  9
$DIMLDRBLK
  1

  9
$DIMLUNIT
 70
     2
  9
$DIMLWD
 70
    -2
  9
$DIMLWE
 70
    -2
  9
$DIMTMOVE
 70
     0
  9
$LUNITS
 70
     2
  9
$LUPREC
 70
     4
  9
$SKETCHINC
 40
0.1
  9
$FILLETRAD
 40
0.5
  9
$AUNITS
 70
     0
  9
$AUPREC
 70
     0
  9
$MENU
  1
.
  9
$ELEVATION
 40
0.0
  9
$PELEVATION
 40
0.0
  9
$THICKNESS
 40
0.0
  9
$LIMCHECK
 70
     0
  9
$CHAMFERA
 40
0.5
  9
$CHAMFERB
 40
0.5
  9
$CHAMFERC
 40
1.0
  9
$CHAMFERD
 40
0.0
  9
$SKPOLY
 70
     0
  9
$TDCREATE
 40
2454413.37847728
  9
$TDUCREATE
 40
2454413.336810614
  9
$TDUPDATE
 40
2454413.378477292
  9
$TDUUPDATE
 40
2454413.336810625
  9
$TDINDWG
 40
0.0000000116
  9
$TDUSRTIMER
 40
0.0000000116
  9
$USRTIMER
 70
     1
  9
$ANGBASE
 50
0.0
  9
$ANGDIR
 70
     0
  9
$PDMODE
 70
     0
  9
$PDSIZE
 40
0.0
  9
$PLINEWID
 40
0.0
  9
$SPLFRAME
 70
     0
  9
$SPLINETYPE
 70
     6
  9
$SPLINESEGS
 70
     8
  9
$HANDSEED
  5
10E
  9
$SURFTAB1
 70
     6
  9
$SURFTAB2
 70
     6
  9
$SURFTYPE
 70
     6
  9
$SURFU
 70
     6
  9
$SURFV
 70
     6
  9
$UCSBASE
  2

  9
$UCSNAME
  2

  9
$UCSORG
 10
0.0
 20
0.0
 30
0.0
  9
$UCSXDIR
 10
1.0
 20
0.0
 30
0.0
  9
$UCSYDIR
 10
0.0
 20
1.0
 30
0.0
  9
$UCSORTHOREF
  2

  9
$UCSORTHOVIEW
 70
     0
  9
$UCSORGTOP
 10
0.0
 20
0.0
 30
0.0
  9
$UCSORGBOTTOM
 10
0.0
 20
0.0
 30
0.0
  9
$UCSORGLEFT
 10
0.0
 20
0.0
 30
0.0
  9
$UCSORGRIGHT
 10
0.0
 20
0.0
 30
0.0
  9
$UCSORGFRONT
 10
0.0
 20
0.0
 30
0.0
  9
$UCSORGBACK
 10
0.0
 20
0.0
 30
0.0
  9
$PUCSBASE
  2

  9
$PUCSNAME
  2

  9
$PUCSORG
 10
0.0
 20
0.0
 30
0.0
  9
$PUCSXDIR
 10
1.0
 20
0.0
 30
0.0
  9
$PUCSYDIR
 10
0.0
 20
1.0
 30
0.0
  9
$PUCSORTHOREF
  2

  9
$PUCSORTHOVIEW
 70
     0
  9
$PUCSORGTOP
 10
0.0
 20
0.0
 30
0.0
  9
$PUCSORGBOTTOM
 10
0.0
 20
0.0
 30
0.0
  9
$PUCSORGLEFT
 10
0.0
 20
0.0
 30
0.0
  9
$PUCSORGRIGHT
 10
0.0
 20
0.0
 30
0.0
  9
$PUCSORGFRONT
 10
0.0
 20
0.0
 30
0.0
  9
$PUCSORGBACK
 10
0.0
 20
0.0
 30
0.0
  9
$USERI1
 70
     0
  9
$USERI2
 70
     0
  9
$USERI3
 70
     0
  9
$USERI4
 70
     0
  9
$USERI5
 70
     0
  9
$USERR1
 40
0.0
  9
$USERR2
 40
0.0
  9
$USERR3
 40
0.0
  9
$USERR4
 40
0.0
  9
$USERR5
 40
0.0
  9
$WORLDVIEW
 70
     1
  9
$SHADEDGE
 70
     3
  9
$SHADEDIF
 70
    70
  9
$TILEMODE
 70
     1
  9
$MAXACTVP
 70
    64
  9
$PINSBASE
 10
0.0
 20
0.0
 30
0.0
  9
$PLIMCHECK
 70
     0
  9
$PEXTMIN
 10
0.0
 20
0.0
 30
0.0
  9
$PEXTMAX
 10
841.0
 20
594.0
 30
0.0
  9
$PLIMMIN
 10
0.0
 20
0.0
  9
$PLIMMAX
 10
841.0
 20
594.0
  9
$UNITMODE
 70
     0
  9
$VISRETAIN
 70
     1
  9
$PLINEGEN
 70
     0
  9
$PSLTSCALE
 70
     1
  9
$TREEDEPTH
 70
  3020
  9
$CMLSTYLE
  2
Standard
  9
$CMLJUST
 70
     0
  9
$CMLSCALE
 40
1.0
  9
$PROXYGRAPHICS
 70
     1
  9
$MEASUREMENT
 70
     1
  9
$CELWEIGHT
370
    -1
  9
$ENDCAPS
280
     0
  9
$JOINSTYLE
280
     0
  9
$LWDISPLAY
290
     0
  9
$INSUNITS
 70
     1
  9
$HYPERLINKBASE
  1

  9
$STYLESHEET
  1

  9
$XEDIT
290
     1
  9
$CEPSNTYPE
380
     0
  9
$PSTYLEMODE
290
     1
  9
$FINGERPRINTGUID
  2
{CF678E7A-77D5-472A-8BD7-20E597DBC3F6}
  9
$VERSIONGUID
  2
{FAEB1C32-E019-11D5-929B-00C0DF256EC4}
  9
$EXTNAMES
290
     1
  9
$PSVPSCALE
 40
0.0
  9
$OLESTARTUP
290
     0
  0
ENDSEC
  0
SECTION
  2
CLASSES
  0
CLASS
  1
ACDBDICTIONARYWDFLT
  2
AcDbDictionaryWithDefault
  3
ObjectDBX Classes
 90
        0
280
     0
281
     0
  0
CLASS
  1
ACDBPLACEHOLDER
  2
AcDbPlaceHolder
  3
ObjectDBX Classes
 90
        0
280
     0
281
     0
  0
CLASS
  1
LAYOUT
  2
AcDbLayout
  3
ObjectDBX Classes
 90
        0
280
     0
281
     0
  0
ENDSEC
  0
SECTION
  2
TABLES
  0
TABLE
  2
VPORT
  5
8
330
0
100
AcDbSymbolTable
 70
     1
  0
VPORT
  5
29
330
8
100
AcDbSymbolTableRecord
100
AcDbViewportTableRecord
  2
*Active
 70
     0
 10
0.0
 20
0.0
 11
1.0
 21
1.0
 12
10.4299065421
 22
4.5
 13
0.0
 23
0.0
 14
0.5
 24
0.5
 15
0.5
 25
0.5
 16
0.0
 26
0.0
 36
1.0
 17
0.0
 27
0.0
 37
0.0
 40
9.0
 41
1.9729729729
 42
50.0
 43
0.0
 44
0.0
 50
0.0
 51
0.0
 71
     0
 72
   100
 73
     1
 74
     3
 75
     0
 76
     0
 77
     0
 78
     0
281
     0
 65
     1
110
0.0
120
0.0
130
0.0
111
1.0
121
0.0
131
0.0
112
0.0
122
1.0
132
0.0
 79
     0
146
0.0
  0
ENDTAB
  0
TABLE
  2
LTYPE
  5
5
330
0
100
AcDbSymbolTable
 70
     1
  0
LTYPE
  5
14
330
5
100
AcDbSymbolTableRecord
100
AcDbLinetypeTableRecord
  2
ByBlock
 70
     0
  3

 72
    65
 73
     0
 40
0.0
  0
LTYPE
  5
15
330
5
100
AcDbSymbolTableRecord
100
AcDbLinetypeTableRecord
  2
ByLayer
 70
     0
  3

 72
    65
 73
     0
 40
0.0
  0
LTYPE
  5
16
330
5
100
AcDbSymbolTableRecord
100
AcDbLinetypeTableRecord
  2
Continuous
 70
     0
  3
Solid line
 72
    65
 73
     0
 40
0.0
  0
ENDTAB
  0
TABLE
  2
LAYER
  5
2
330
0
100
AcDbSymbolTable
 70
     4
  0
LAYER
  5
10
330
2
100
AcDbSymbolTableRecord
100
AcDbLayerTableRecord
  2
0
 70
     0
 62
     7
  6
Continuous
370
    -3
390
F
  0
LAYER
  5
2C
330
2
100
AcDbSymbolTableRecord
100
AcDbLayerTableRecord
  2
Default
 70
     0
 62
     7
  6
Continuous
370
    -3
390
F
  0
LAYER
  5
35
330
2
100
AcDbSymbolTableRecord
100
AcDbLayerTableRecord
  2
SKUM-3._DK2500--
 70
     0
 62
     7
  6
Continuous
370
    -3
390
F
  0
LAYER
  5
9A
330
2
100
AcDbSymbolTableRecord
100
AcDbLayerTableRecord
  2
DOGSV_0
 70
     0
 62
     7
  6
Continuous
370
    -3
390
F
  0
ENDTAB
  0
TABLE
  2
STYLE
  5
3
330
0
100
AcDbSymbolTable
 70
     5
  0
STYLE
  5
11
330
3
100
AcDbSymbolTableRecord
100
AcDbTextStyleTableRecord
  2
Standard
 70
     0
 40
0.0
 41
1.0
 50
0.0
 71
     0
 42
0.2
  3
txt
  4

  0
STYLE
  5
2A
330
3
100
AcDbSymbolTableRecord
100
AcDbTextStyleTableRecord
  2
SEACAD_seiso_ttfB
 70
     0
 40
0.2
 41
1.0
 50
0.0
 71
     0
 42
0.2
  3
seiso.ttf
  4

  0
STYLE
  5
65
330
3
100
AcDbSymbolTableRecord
100
AcDbTextStyleTableRecord
  2
SEACAD_seiso_ttf
 70
     0
 40
5.0
 41
1.0
 50
0.0
 71
     0
 42
0.2
  3
seiso.ttf
  4

  0
STYLE
  5
AE
330
3
100
AcDbSymbolTableRecord
100
AcDbTextStyleTableRecord
  2
SEACAD_seans_ttfB
 70
     0
 40
0.2
 41
1.0
 50
0.0
 71
     0
 42
0.2
  3
seans.ttf
  4

  0
STYLE
  5
10B
330
3
100
AcDbSymbolTableRecord
100
AcDbTextStyleTableRecord
  2
SEACAD_times_ttfBI
 70
     0
 40
0.2
 41
1.0
 50
0.0
 71
     0
 42
0.2
  3
times.ttf
  4

  0
ENDTAB
  0
TABLE
  2
VIEW
  5
6
330
0
100
AcDbSymbolTable
 70
     0
  0
ENDTAB
  0
TABLE
  2
UCS
  5
7
330
0
100
AcDbSymbolTable
 70
     0
  0
ENDTAB
  0
TABLE
  2
APPID
  5
9
330
0
100
AcDbSymbolTable
 70
     1
  0
APPID
  5
12
330
9
100
AcDbSymbolTableRecord
100
AcDbRegAppTableRecord
  2
ACAD
 70
     0
  0
ENDTAB
  0
TABLE
  2
DIMSTYLE
  5
A
330
0
100
AcDbSymbolTable
 70
     2
100
AcDbDimStyleTable
  0
DIMSTYLE
105
27
330
A
100
AcDbSymbolTableRecord
100
AcDbDimStyleTableRecord
  2
Standard
 70
     0
340
11
  0
DIMSTYLE
105
66
102
{ACAD_REACTORS
330
67
330
74
330
80
102
}
330
A
100
AcDbSymbolTableRecord
100
AcDbDimStyleTableRecord
  2
ISO
 70
     0
 41
5.0
 42
1.5
 44
1.5
 73
     0
 74
     0
 77
     1
 78
     8
140
5.0
141
0.0
147
1.5
173
     1
176
     7
177
     7
178
     7
179
     1
271
     2
272
     2
278
    44
284
     8
340
65
343
60
344
60
  0
ENDTAB
  0
TABLE
  2
BLOCK_RECORD
  5
1
330
0
100
AcDbSymbolTable
 70
     7
  0
BLOCK_RECORD
  5
1F
330
1
100
AcDbSymbolTableRecord
100
AcDbBlockTableRecord
  2
*Model_Space
340
22
  0
BLOCK_RECORD
  5
1B
330
1
100
AcDbSymbolTableRecord
100
AcDbBlockTableRecord
  2
*Paper_Space
340
1E
  0
BLOCK_RECORD
  5
33
330
1
100
AcDbSymbolTableRecord
100
AcDbBlockTableRecord
  2
SE
340
0
102
{BLKREFS
331
34
102
}
  0
BLOCK_RECORD
  5
4E
330
1
100
AcDbSymbolTableRecord
100
AcDbBlockTableRecord
  2
SE1
340
0
102
{BLKREFS
331
4F
102
}
  0
BLOCK_RECORD
  5
60
330
1
100
AcDbSymbolTableRecord
100
AcDbBlockTableRecord
  2
_SE_FILLED
340
0
  0
BLOCK_RECORD
  5
68
330
1
100
AcDbSymbolTableRecord
100
AcDbBlockTableRecord
  2
DMBLK4
340
0
  0
BLOCK_RECORD
  5
75
330
1
100
AcDbSymbolTableRecord
100
AcDbBlockTableRecord
  2
DMBLK5
340
0
  0
BLOCK_RECORD
  5
81
330
1
100
AcDbSymbolTableRecord
100
AcDbBlockTableRecord
  2
DMBLK6
340
0
  0
ENDTAB
  0
ENDSEC
  0
SECTION
  2
BLOCKS
  0
BLOCK
  5
20
330
1F
100
AcDbEntity
  8
0
100
AcDbBlockBegin
  2
*Model_Space
 70
     0
 71
     0
 10
0.0
 20
0.0
 30
0.0
  3
*Model_Space
  1

  0
ENDBLK
  5
21
330
1F
100
AcDbEntity
  8
0
100
AcDbBlockEnd
  0
BLOCK
  5
1C
330
1B
100
AcDbEntity
 67
     1
  8
0
100
AcDbBlockBegin
  2
*Paper_Space
 70
     0
 71
     0
 10
0.0
 20
0.0
 30
0.0
  3
*Paper_Space
  1

  0
ENDBLK
  5
1D
330
1B
100
AcDbEntity
 67
     1
  8
0
100
AcDbBlockEnd
  0
BLOCK
  5
4C
330
33
100
AcDbEntity
  8
0
100
AcDbBlockBegin
  2
SE
 70
     0
 71
     0
 10
0.0
 20
0.0
 30
0.0
  3
SE
  1

  0
LINE
  5
36
330
33
100
AcDbEntity
  8
SKUM-3._DK2500--
  6
Continuous
 62
     7
 48
25.4
100
AcDbLine
 10
611.7721189581
 20
461.9438662414
 30
0.0
 11
170.7721189581
 21
461.9438662414
 31
0.0
  0
ARC
  5
37
330
33
100
AcDbEntity
  8
SKUM-3._DK2500--
  6
Continuous
 62
     7
 48
25.4
100
AcDbCircle
 10
611.7721189581
 20
443.9438662414
 30
0.0
 40
17.99999999999999
100
AcDbArc
 50
0.0
 51
90.0
  0
LINE
  5
38
330
33
100
AcDbEntity
  8
SKUM-3._DK2500--
  6
Continuous
 62
     7
 48
25.4
100
AcDbLine
 10
629.7721189581
 20
190.9438662414
 30
0.0
 11
629.7721189581
 21
262.4438662414
 31
0.0
  0
ARC
  5
39
330
33
100
AcDbEntity
  8
SKUM-3._DK2500--
  6
Continuous
 62
     7
 48
25.4
100
AcDbCircle
 10
611.7721189581
 20
190.9438662414
 30
0.0
 40
17.99999999999999
100
AcDbArc
 50
270.0
 51
360.0
  0
LINE
  5
3A
330
33
100
AcDbEntity
  8
SKUM-3._DK2500--
  6
Continuous
 62
     7
 48
25.4
100
AcDbLine
 10
110.7721189581
 20
403.4438662414
 30
0.0
 11
110.7721189581
 21
231.4438662414
 31
0.0
  0
LINE
  5
3B
330
33
100
AcDbEntity
  8
SKUM-3._DK2500--
  6
Continuous
 62
     7
 48
25.4
100
AcDbLine
 10
170.7721189581
 20
461.9438662414
 30
0.0
 11
170.7721189581
 21
413.4438662414
 31
0.0
  0
ARC
  5
3C
330
33
100
AcDbEntity
  8
SKUM-3._DK2500--
  6
Continuous
 62
     7
 48
25.4
100
AcDbCircle
 10
160.7721189581
 20
413.4438662414
 30
0.0
 40
10.00000000000001
100
AcDbArc
 50
270.0
 51
360.0
  0
LINE
  5
3D
330
33
100
AcDbEntity
  8
SKUM-3._DK2500--
  6
Continuous
 62
     7
 48
25.4
100
AcDbLine
 10
160.7721189581
 20
403.4438662414
 30
0.0
 11
110.7721189581
 21
403.4438662414
 31
0.0
  0
LINE
  5
3E
330
33
100
AcDbEntity
  8
SKUM-3._DK2500--
  6
Continuous
 62
     7
 48
25.4
100
AcDbLine
 10
629.7721189581
 20
372.4438662414
 30
0.0
 11
629.7721189581
 21
443.9438662414
 31
0.0
  0
LINE
  5
3F
330
33
100
AcDbEntity
  8
SKUM-3._DK2500--
  6
Continuous
 62
     7
 48
25.4
100
AcDbLine
 10
589.3863473745
 20
371.4010448041
 30
0.0
 11
601.3863473745
 21
383.6510448041
 31
0.0
  0
LINE
  5
40
330
33
100
AcDbEntity
  8
SKUM-3._DK2500--
  6
Continuous
 62
     7
 48
25.4
100
AcDbLine
 10
601.3863473745
 20
383.6510448041
 30
0.0
 11
611.3863473745
 21
383.6510448041
 31
0.0
  0
LINE
  5
41
330
33
100
AcDbEntity
  8
SKUM-3._DK2500--
  6
Continuous
 62
     7
 48
25.4
100
AcDbLine
 10
611.3863473745
 20
383.6510448041
 30
0.0
 11
611.3863473745
 21
372.4438662414
 31
0.0
  0
LINE
  5
42
330
33
100
AcDbEntity
  8
SKUM-3._DK2500--
  6
Continuous
 62
     7
 48
25.4
100
AcDbLine
 10
611.3863473745
 20
372.4438662414
 30
0.0
 11
629.7721189581
 21
372.4438662414
 31
0.0
  0
LINE
  5
43
330
33
100
AcDbEntity
  8
SKUM-3._DK2500--
  6
Continuous
 62
     7
 48
25.4
100
AcDbLine
 10
629.7721189581
 20
262.4438662414
 30
0.0
 11
611.3863473745
 21
262.4438662414
 31
0.0
  0
LINE
  5
44
330
33
100
AcDbEntity
  8
SKUM-3._DK2500--
  6
Continuous
 62
     7
 48
25.4
100
AcDbLine
 10
611.3863473745
 20
262.4438662414
 30
0.0
 11
611.3863473745
 21
251.6510448041
 31
0.0
  0
LINE
  5
45
330
33
100
AcDbEntity
  8
SKUM-3._DK2500--
  6
Continuous
 62
     7
 48
25.4
100
AcDbLine
 10
611.3863473745
 20
251.6510448041
 30
0.0
 11
601.3863473745
 21
251.6510448041
 31
0.0
  0
LINE
  5
46
330
33
100
AcDbEntity
  8
SKUM-3._DK2500--
  6
Continuous
 62
     7
 48
25.4
100
AcDbLine
 10
601.3863473745
 20
251.6510448041
 30
0.0
 11
589.3863473745
 21
263.9010448041
 31
0.0
  0
LINE
  5
47
330
33
100
AcDbEntity
  8
SKUM-3._DK2500--
  6
Continuous
 62
     7
 48
25.4
100
AcDbLine
 10
589.3863473745
 20
263.9010448041
 30
0.0
 11
589.3863473745
 21
371.4010448041
 31
0.0
  0
LINE
  5
48
330
33
100
AcDbEntity
  8
SKUM-3._DK2500--
  6
Continuous
 62
     7
 48
25.4
100
AcDbLine
 10
170.7721189581
 20
172.9438662414
 30
0.0
 11
611.7721189581
 21
172.9438662414
 31
0.0
  0
LINE
  5
49
330
33
100
AcDbEntity
  8
SKUM-3._DK2500--
  6
Continuous
 62
     7
 48
25.4
100
AcDbLine
 10
160.7721189581
 20
231.4438662414
 30
0.0
 11
110.7721189581
 21
231.4438662414
 31
0.0
  0
LINE
  5
4A
330
33
100
AcDbEntity
  8
SKUM-3._DK2500--
  6
Continuous
 62
     7
 48
25.4
100
AcDbLine
 10
170.7721189581
 20
172.9438662414
 30
0.0
 11
170.7721189581
 21
221.4438662414
 31
0.0
  0
ARC
  5
4B
330
33
100
AcDbEntity
  8
SKUM-3._DK2500--
  6
Continuous
 62
     7
 48
25.4
100
AcDbCircle
 10
160.7721189581
 20
221.4438662414
 30
0.0
 40
10.00000000000001
100
AcDbArc
 50
0.0
 51
90.0
  0
ENDBLK
  5
4D
330
33
100
AcDbEntity
  8
0
100
AcDbBlockEnd
  0
BLOCK
  5
5E
330
4E
100
AcDbEntity
  8
0
100
AcDbBlockBegin
  2
SE1
 70
     0
 71
     0
 10
0.0
 20
0.0
 30
0.0
  3
SE1
  1

  0
LINE
  5
50
330
4E
100
AcDbEntity
  8
SKUM-3._DK2500--
  6
Continuous
 62
     7
 48
25.4
100
AcDbLine
 10
742.5373659398
 20
403.4438662414
 30
0.0
 11
742.5373659398
 21
231.4438662414
 31
0.0
  0
LINE
  5
51
330
4E
100
AcDbEntity
  8
SKUM-3._DK2500--
  6
Continuous
 62
     7
 48
25.4
100
AcDbLine
 10
742.5373659398
 20
413.4438662414
 30
0.0
 11
742.5373659398
 21
403.4438662414
 31
0.0
  0
LINE
  5
52
330
4E
100
AcDbEntity
  8
SKUM-3._DK2500--
  6
Continuous
 62
     7
 48
25.4
100
AcDbLine
 10
742.5373659398
 20
461.9438662414
 30
0.0
 11
742.5373659398
 21
413.4438662414
 31
0.0
  0
LINE
  5
53
330
4E
100
AcDbEntity
  8
SKUM-3._DK2500--
  6
Continuous
 62
     7
 48
25.4
100
AcDbLine
 10
747.5373659398
 20
403.4438662414
 30
0.0
 11
747.5373659398
 21
231.4438662414
 31
0.0
  0
LINE
  5
54
330
4E
100
AcDbEntity
  8
SKUM-3._DK2500--
  6
Continuous
 62
     7
 48
25.4
100
AcDbLine
 10
742.5373659398
 20
403.4438662414
 30
0.0
 11
747.5373659398
 21
403.4438662414
 31
0.0
  0
LINE
  5
55
330
4E
100
AcDbEntity
  8
SKUM-3._DK2500--
  6
Continuous
 62
     7
 48
25.4
100
AcDbLine
 10
742.5373659398
 20
461.9438662414
 30
0.0
 11
747.5373659398
 21
461.9438662414
 31
0.0
  0
LINE
  5
56
330
4E
100
AcDbEntity
  8
SKUM-3._DK2500--
  6
Continuous
 62
     7
 48
25.4
100
AcDbLine
 10
747.5373659398
 20
461.9438662414
 30
0.0
 11
747.5373659398
 21
413.4438662414
 31
0.0
  0
LINE
  5
57
330
4E
100
AcDbEntity
  8
SKUM-3._DK2500--
  6
Continuous
 62
     7
 48
25.4
100
AcDbLine
 10
747.5373659398
 20
413.4438662414
 30
0.0
 11
747.5373659398
 21
403.4438662414
 31
0.0
  0
LINE
  5
58
330
4E
100
AcDbEntity
  8
SKUM-3._DK2500--
  6
Continuous
 62
     7
 48
25.4
100
AcDbLine
 10
742.5373659398
 20
221.4438662414
 30
0.0
 11
742.5373659398
 21
231.4438662414
 31
0.0
  0
LINE
  5
59
330
4E
100
AcDbEntity
  8
SKUM-3._DK2500--
  6
Continuous
 62
     7
 48
25.4
100
AcDbLine
 10
742.5373659398
 20
231.4438662414
 30
0.0
 11
747.5373659398
 21
231.4438662414
 31
0.0
  0
LINE
  5
5A
330
4E
100
AcDbEntity
  8
SKUM-3._DK2500--
  6
Continuous
 62
     7
 48
25.4
100
AcDbLine
 10
742.5373659398
 20
172.9438662414
 30
0.0
 11
747.5373659398
 21
172.9438662414
 31
0.0
  0
LINE
  5
5B
330
4E
100
AcDbEntity
  8
SKUM-3._DK2500--
  6
Continuous
 62
     7
 48
25.4
100
AcDbLine
 10
742.5373659398
 20
172.9438662414
 30
0.0
 11
742.5373659398
 21
221.4438662414
 31
0.0
  0
LINE
  5
5C
330
4E
100
AcDbEntity
  8
SKUM-3._DK2500--
  6
Continuous
 62
     7
 48
25.4
100
AcDbLine
 10
747.5373659398
 20
172.9438662414
 30
0.0
 11
747.5373659398
 21
221.4438662414
 31
0.0
  0
LINE
  5
5D
330
4E
100
AcDbEntity
  8
SKUM-3._DK2500--
  6
Continuous
 62
     7
 48
25.4
100
AcDbLine
 10
747.5373659398
 20
221.4438662414
 30
0.0
 11
747.5373659398
 21
231.4438662414
 31
0.0
  0
ENDBLK
  5
5F
330
4E
100
AcDbEntity
  8
0
100
AcDbBlockEnd
  0
BLOCK
  5
63
330
60
100
AcDbEntity
  8
0
100
AcDbBlockBegin
  2
_SE_FILLED
 70
     0
 71
     0
 10
0.0
 20
0.0
 30
0.0
  3
_SE_FILLED
  1

  0
SOLID
  5
61
330
60
100
AcDbEntity
  8
0
100
AcDbTrace
 10
0.0
 20
0.0
 30
0.0
 11
-1.0
 21
-0.1665
 31
0.0
 12
-1.0
 22
0.1665
 32
0.0
 13
0.0
 23
0.0
 33
0.0
  0
LINE
  5
62
330
60
100
AcDbEntity
  8
0
100
AcDbLine
 10
0.0
 20
0.0
 30
0.0
 11
-1.0
 21
0.0
 31
0.0
  0
ENDBLK
  5
64
330
60
100
AcDbEntity
  8
0
100
AcDbBlockEnd
  0
BLOCK
  5
72
330
68
100
AcDbEntity
  8
0
100
AcDbBlockBegin
  2
DMBLK4
 70
     0
 71
     0
 10
0.0
 20
0.0
 30
0.0
  3
DMBLK4
  1

  0
HATCH
  5
69
330
68
100
AcDbEntity
  8
Default
  6
Continuous
 62
     7
 48
25.4
100
AcDbHatch
 10
0.0
 20
0.0
 30
0.0
210
0.0
220
0.0
230
1.0
  2
SOLID
 70
     1
 71
     0
 91
        1
 92
        1
 93
        3
 72
     1
 10
737.5373660515206
 20
496.0506692128424
 11
737.5373660515206
 21
494.3840025834287
 72
     1
 10
737.5373660515206
 20
494.3840025834287
 11
742.5373659397619
 21
495.2173358981356
 72
     1
 10
742.5373659397619
 20
495.2173358981356
 11
737.5373660515206
 21
496.0506692128424
 97
        0
 75
     0
 76
     1
 98
        0
  0
LWPOLYLINE
  5
6A
330
68
100
AcDbEntity
  8
Default
  6
Continuous
 62
     7
 48
25.4
370
    20
100
AcDbPolyline
 90
        4
 70
     1
 43
0.00025
 10
737.5373660515
 20
496.0506692128
 10
742.5373659398
 20
495.2173358981
 10
737.5373660515
 20
494.3840025834
 10
737.5373660515
 20
496.0506692128
  0
HATCH
  5
6B
330
68
100
AcDbEntity
  8
Default
  6
Continuous
 62
     7
 48
25.4
100
AcDbHatch
 10
0.0
 20
0.0
 30
0.0
210
0.0
220
0.0
230
1.0
  2
SOLID
 70
     1
 71
     0
 91
        1
 92
        1
 93
        3
 72
     1
 10
752.5373658280032
 20
496.0506692128424
 11
747.5373659397619
 21
495.2173358981356
 72
     1
 10
747.5373659397619
 20
495.2173358981356
 11
752.5373658280032
 21
494.3840025834287
 72
     1
 10
752.5373658280032
 20
494.3840025834287
 11
752.5373658280032
 21
496.0506692128424
 97
        0
 75
     0
 76
     1
 98
        0
  0
LWPOLYLINE
  5
6C
330
68
100
AcDbEntity
  8
Default
  6
Continuous
 62
     7
 48
25.4
370
    20
100
AcDbPolyline
 90
        4
 70
     1
 43
0.00025
 10
752.537365828
 20
496.0506692128
 10
747.5373659398
 20
495.2173358981
 10
752.537365828
 20
494.3840025834
 10
752.537365828
 20
496.0506692128
  0
LINE
  5
6D
330
68
100
AcDbEntity
  8
Default
  6
Continuous
 62
     7
 48
25.4
100
AcDbLine
 10
742.5373659398
 20
463.4438662545
 30
0.0
 11
742.5373659398
 21
496.7173359112
 31
0.0
  0
LINE
  5
6E
330
68
100
AcDbEntity
  8
Default
  6
Continuous
 62
     7
 48
25.4
100
AcDbLine
 10
747.5373659398
 20
463.4438662545
 30
0.0
 11
747.5373659398
 21
496.7173359112
 31
0.0
  0
LINE
  5
6F
330
68
100
AcDbEntity
  8
Default
  6
Continuous
 62
     7
 48
25.4
100
AcDbLine
 10
732.5373661633
 20
495.2173358981
 30
0.0
 11
742.5373659398
 21
495.2173358981
 31
0.0
  0
LINE
  5
70
330
68
100
AcDbEntity
  8
Default
  6
Continuous
 62
     7
 48
25.4
100
AcDbLine
 10
747.5373659398
 20
495.2173358981
 30
0.0
 11
763.3130259927
 21
495.2173358981
 31
0.0
  0
TEXT
  5
71
330
68
100
AcDbEntity
  8
Default
  6
Continuous
 62
     7
 48
25.4
100
AcDbText
 10
758.7221161316
 20
496.4673358981
 30
0.0
 40
5.0
  1
5
  7
SEACAD_seiso_ttfB
 11
758.7221161316
 21
501.4673358981
 31
0.0
100
AcDbText
 73
     3
  0
ENDBLK
  5
73
330
68
100
AcDbEntity
  8
0
100
AcDbBlockEnd
  0
BLOCK
  5
7E
330
75
100
AcDbEntity
  8
0
100
AcDbBlockBegin
  2
DMBLK5
 70
     0
 71
     0
 10
0.0
 20
0.0
 30
0.0
  3
DMBLK5
  1

  0
HATCH
  5
76
330
75
100
AcDbEntity
  8
Default
  6
Continuous
 62
     7
 48
25.4
100
AcDbHatch
 10
0.0
 20
0.0
 30
0.0
210
0.0
220
0.0
230
1.0
  2
SOLID
 70
     1
 71
     0
 91
        1
 92
        1
 93
        3
 72
     1
 10
776.1241920717515
 20
456.9438663531884
 11
775.2908587570446
 21
461.9438662414297
 72
     1
 10
775.2908587570446
 20
461.9438662414297
 11
774.4575254423377
 21
456.9438663531884
 72
     1
 10
774.4575254423377
 20
456.9438663531884
 11
776.1241920717515
 21
456.9438663531884
 97
        0
 75
     0
 76
     1
 98
        0
  0
LWPOLYLINE
  5
77
330
75
100
AcDbEntity
  8
Default
  6
Continuous
 62
     7
 48
25.4
370
    20
100
AcDbPolyline
 90
        4
 70
     1
 43
0.00025
 10
776.1241920718
 20
456.9438663532
 10
775.290858757
 20
461.9438662414
 10
774.4575254423
 20
456.9438663532
 10
776.1241920718
 20
456.9438663532
  0
HATCH
  5
78
330
75
100
AcDbEntity
  8
Default
  6
Continuous
 62
     7
 48
25.4
100
AcDbHatch
 10
0.0
 20
0.0
 30
0.0
210
0.0
220
0.0
230
1.0
  2
SOLID
 70
     1
 71
     0
 91
        1
 92
        1
 93
        3
 72
     1
 10
776.1241920717515
 20
177.943861599718
 11
774.4575254423377
 21
177.943861599718
 72
     1
 10
774.4575254423377
 20
177.943861599718
 11
775.2908587570446
 21
172.9438617114767
 72
     1
 10
775.2908587570446
 20
172.9438617114767
 11
776.1241920717515
 21
177.943861599718
 97
        0
 75
     0
 76
     1
 98
        0
  0
LWPOLYLINE
  5
79
330
75
100
AcDbEntity
  8
Default
  6
Continuous
 62
     7
 48
25.4
370
    20
100
AcDbPolyline
 90
        4
 70
     1
 43
0.00025
 10
776.1241920718
 20
177.9438615997
 10
775.290858757
 20
172.9438617115
 10
774.4575254423
 20
177.9438615997
 10
776.1241920718
 20
177.9438615997
  0
LINE
  5
7A
330
75
100
AcDbEntity
  8
Default
  6
Continuous
 62
     7
 48
25.4
100
AcDbLine
 10
749.0373659528
 20
461.9438662414
 30
0.0
 11
776.7908587701
 21
461.9438662414
 31
0.0
  0
LINE
  5
7B
330
75
100
AcDbEntity
  8
Default
  6
Continuous
 62
     7
 48
25.4
100
AcDbLine
 10
749.0373659528
 20
172.9438662414
 30
0.0
 11
776.7908587701
 21
172.9438662414
 31
0.0
  0
LINE
  5
7C
330
75
100
AcDbEntity
  8
Default
  6
Continuous
 62
     7
 48
25.4
100
AcDbLine
 10
775.290858757
 20
461.9438662414
 30
0.0
 11
775.290858757
 21
172.9438617115
 31
0.0
  0
TEXT
  5
7D
330
75
100
AcDbEntity
  8
Default
  6
Continuous
 62
     7
 48
25.4
100
AcDbText
 10
774.040858757
 20
312.7847730674
 30
0.0
 40
5.0
  1
289
 50
90.0
  7
SEACAD_seiso_ttfB
 11
769.040858757
 21
312.7847730674
 31
0.0
100
AcDbText
 73
     3
  0
ENDBLK
  5
7F
330
75
100
AcDbEntity
  8
0
100
AcDbBlockEnd
  0
BLOCK
  5
8A
330
81
100
AcDbEntity
  8
0
100
AcDbBlockBegin
  2
DMBLK6
 70
     0
 71
     0
 10
0.0
 20
0.0
 30
0.0
  3
DMBLK6
  1

  0
HATCH
  5
82
330
81
100
AcDbEntity
  8
Default
  6
Continuous
 62
     7
 48
25.4
100
AcDbHatch
 10
0.0
 20
0.0
 30
0.0
210
0.0
220
0.0
230
1.0
  2
SOLID
 70
     1
 71
     0
 91
        1
 92
        1
 93
        3
 72
     1
 10
115.772118846292
 20
511.0629961388354
 11
110.7721189580507
 21
510.2296628241285
 72
     1
 10
110.7721189580507
 20
510.2296628241285
 11
115.772118846292
 21
509.3963295094216
 72
     1
 10
115.772118846292
 20
509.3963295094216
 11
115.772118846292
 21
511.0629961388354
 97
        0
 75
     0
 76
     1
 98
        0
  0
LWPOLYLINE
  5
83
330
81
100
AcDbEntity
  8
Default
  6
Continuous
 62
     7
 48
25.4
370
    20
100
AcDbPolyline
 90
        4
 70
     1
 43
0.00025
 10
115.7721188463
 20
511.0629961388
 10
110.7721189581
 20
510.2296628241
 10
115.7721188463
 20
509.3963295094
 10
115.7721188463
 20
511.0629961388
  0
HATCH
  5
84
330
81
100
AcDbEntity
  8
Default
  6
Continuous
 62
     7
 48
25.4
100
AcDbHatch
 10
0.0
 20
0.0
 30
0.0
210
0.0
220
0.0
230
1.0
  2
SOLID
 70
     1
 71
     0
 91
        1
 92
        1
 93
        3
 72
     1
 10
624.7721128709263
 20
511.0629961388354
 11
624.7721128709263
 21
509.3963295094216
 72
     1
 10
624.7721128709263
 20
509.3963295094216
 11
629.7721127591676
 21
510.2296628241285
 72
     1
 10
629.7721127591676
 20
510.2296628241285
 11
624.7721128709263
 21
511.0629961388354
 97
        0
 75
     0
 76
     1
 98
        0
  0
LWPOLYLINE
  5
85
330
81
100
AcDbEntity
  8
Default
  6
Continuous
 62
     7
 48
25.4
370
    20
100
AcDbPolyline
 90
        4
 70
     1
 43
0.00025
 10
624.7721128709
 20
511.0629961388
 10
629.7721127592
 20
510.2296628241
 10
624.7721128709
 20
509.3963295094
 10
624.7721128709
 20
511.0629961388
  0
LINE
  5
86
330
81
100
AcDbEntity
  8
Default
  6
Continuous
 62
     7
 48
25.4
100
AcDbLine
 10
110.7721189581
 20
404.9438662545
 30
0.0
 11
110.7721189581
 21
511.7296628372
 31
0.0
  0
LINE
  5
87
330
81
100
AcDbEntity
  8
Default
  6
Continuous
 62
     7
 48
25.4
100
AcDbLine
 10
629.7721189581
 20
445.4438662545
 30
0.0
 11
629.7721189581
 21
511.7296628372
 31
0.0
  0
LINE
  5
88
330
81
100
AcDbEntity
  8
Default
  6
Continuous
 62
     7
 48
25.4
100
AcDbLine
 10
110.7721189581
 20
510.2296628241
 30
0.0
 11
629.7721127592
 21
510.2296628241
 31
0.0
  0
TEXT
  5
89
330
81
100
AcDbEntity
  8
Default
  6
Continuous
 62
     7
 48
25.4
100
AcDbText
 10
366.2948431313
 20
511.4796628241
 30
0.0
 40
5.0
  1
519
  7
SEACAD_seiso_ttfB
 11
366.2948431313
 21
516.4796628241
 31
0.0
100
AcDbText
 73
     3
  0
ENDBLK
  5
8B
330
81
100
AcDbEntity
  8
0
100
AcDbBlockEnd
  0
ENDSEC
  0
SECTION
  2
ENTITIES
  0
TEXT
  5
2B
330
1F
100
AcDbEntity
  8
Default
  6
Continuous
 62
     7
 48
25.4
100
AcDbText
 10
706.760665953
 20
62.598946987
 30
0.0
 40
3.5
  1
PE skum LD 29,  sort
  7
SEACAD_seiso_ttfB
 11
706.760665953
 21
66.098946987
 31
0.0
100
AcDbText
 73
     3
  0
TEXT
  5
2D
330
1F
100
AcDbEntity
  8
Default
  6
Continuous
 62
     7
 48
25.4
100
AcDbText
 10
713.2290870965
 20
43.3213544077
 30
0.0
 40
3.5
  1
DS/ISO 2768-C
  7
SEACAD_seiso_ttfB
 11
713.2290870965
 21
46.8213544077
 31
0.0
100
AcDbText
 73
     3
  0
TEXT
  5
2E
330
1F
100
AcDbEntity
  8
Default
  6
Continuous
 62
     7
 48
25.4
100
AcDbText
 10
707.403748489
 20
32.6326575727
 30
0.0
 40
2.0
  1
IIv
  7
SEACAD_seiso_ttfB
 11
707.403748489
 21
34.6326575727
 31
0.0
100
AcDbText
 73
     3
  0
TEXT
  5
2F
330
1F
100
AcDbEntity
  8
Default
  6
Continuous
 62
     7
 48
25.4
100
AcDbText
 10
724.2132020847
 20
32.6326575727
 30
0.0
 40
2.0
  1
07-07-31
  7
SEACAD_seiso_ttfB
 11
724.2132020847
 21
34.6326575727
 31
0.0
100
AcDbText
 73
     3
  0
TEXT
  5
30
330
1F
100
AcDbEntity
  8
Default
  6
Continuous
 62
     7
 48
25.4
100
AcDbText
 10
789.8099716416
 20
28.1700807465
 30
0.0
 40
3.5
  1
1:1
  7
SEACAD_seiso_ttfB
 11
789.8099716416
 21
31.6700807465
 31
0.0
100
AcDbText
 73
     3
  0
TEXT
  5
31
330
1F
100
AcDbEntity
  8
Default
  6
Continuous
 62
     7
 48
25.4
100
AcDbText
 10
709.1673811963
 20
15.1155651955
 30
0.0
 40
5.0
  1
Skum-3, dk 2500
  7
SEACAD_seiso_ttfB
 11
709.1673811963
 21
20.1155651955
 31
0.0
100
AcDbText
 73
     3
  0
TEXT
  5
32
330
1F
100
AcDbEntity
  8
Default
  6
Continuous
 62
     7
 48
25.4
100
AcDbText
 10
766.8943142438
 20
14.973112199
 30
0.0
 40
5.0
  1
G
  7
SEACAD_seiso_ttfB
 11
766.8943142438
 21
19.973112199
 31
0.0
100
AcDbText
 73
     3
  0
INSERT
  5
34
330
1F
100
AcDbEntity
  8
Default
100
AcDbBlockReference
  2
SE
 10
0.0
 20
0.0
 30
0.0
  0
INSERT
  5
4F
330
1F
100
AcDbEntity
  8
Default
100
AcDbBlockReference
  2
SE1
 10
0.0
 20
0.0
 30
0.0
  0
DIMENSION
  5
67
330
1F
100
AcDbEntity
  8
Default
  6
Continuous
 62
     7
 48
25.4
100
AcDbDimension
  2
DMBLK4
 10
742.5373659398
 20
495.2173358981
 30
0.0
 11
756.9721161316
 21
495.2173358981
 31
0.0
 70
   161
  1
\A1;<>
 71
     5
 42
-1.0
  3
ISO
100
AcDbAlignedDimension
 13
742.5373659398
 23
461.9438662414
 33
0.0
 14
747.5373659398
 24
461.9438662414
 34
0.0
  0
DIMENSION
  5
74
330
1F
100
AcDbEntity
  8
Default
  6
Continuous
 62
     7
 48
25.4
100
AcDbDimension
  2
DMBLK5
 10
775.290858757
 20
461.9438662414
 30
0.0
 11
775.290858757
 21
317.4438639765
 31
0.0
 70
   161
  1
\A1;<>
 71
     5
 42
-1.0
  3
ISO
100
AcDbAlignedDimension
 13
747.5373659398
 23
461.9438662414
 33
0.0
 14
747.5373659398
 24
172.9438662414
 34
0.0
  0
DIMENSION
  5
80
330
1F
100
AcDbEntity
  8
Default
  6
Continuous
 62
     7
 48
25.4
100
AcDbDimension
  2
DMBLK6
 10
629.7721189581
 20
510.2296628241
 30
0.0
 11
370.2721158586
 21
510.2296628241
 31
0.0
 70
   160
  1
\A1;<>
 71
     5
 42
-1.0
  3
ISO
100
AcDbAlignedDimension
 13
110.7721189581
 23
403.4438662414
 33
0.0
 14
629.7721189581
 24
443.9438662414
 34
0.0
100
AcDbRotatedDimension
  0
LINE
  5
8C
330
1F
100
AcDbEntity
  8
Default
  6
Continuous
 62
     7
 48
25.4
100
AcDbLine
 10
34.2916320836
 20
10.3065594685
 30
0.0
 11
821.2916320836
 21
10.3065594685
 31
0.0
  0
LINE
  5
8D
330
1F
100
AcDbEntity
  8
Default
  6
Continuous
 62
     7
 48
25.4
100
AcDbLine
 10
821.2916320836
 20
10.3065594685
 30
0.0
 11
821.2916320836
 21
582.7142715852
 31
0.0
  0
LINE
  5
8E
330
1F
100
AcDbEntity
  8
Default
  6
Continuous
 62
     7
 48
25.4
100
AcDbLine
 10
821.2916320836
 20
582.7142715852
 30
0.0
 11
34.2916320836
 21
582.7142715852
 31
0.0
  0
LINE
  5
8F
330
1F
100
AcDbEntity
  8
Default
  6
Continuous
 62
     7
 48
25.4
100
AcDbLine
 10
34.2916320836
 20
582.7142715852
 30
0.0
 11
34.2916320836
 21
10.3065594685
 31
0.0
  0
LINE
  5
90
330
1F
100
AcDbEntity
  8
Default
  6
Continuous
 62
     7
 48
25.4
100
AcDbLine
 10
34.2916320836
 20
10.3065594685
 30
0.0
 11
19.2916320836
 21
10.3065594685
 31
0.0
  0
LINE
  5
91
330
1F
100
AcDbEntity
  8
Default
  6
Continuous
 62
     7
 48
25.4
100
AcDbLine
 10
34.2916320836
 20
16.7065594685
 30
0.0
 11
19.2916320836
 21
16.7065594685
 31
0.0
  0
LINE
  5
92
330
1F
100
AcDbEntity
  8
Default
  6
Continuous
 62
     7
 48
25.4
100
AcDbLine
 10
34.2916320836
 20
23.1065594685
 30
0.0
 11
19.2916320836
 21
23.1065594685
 31
0.0
  0
LINE
  5
93
330
1F
100
AcDbEntity
  8
Default
  6
Continuous
 62
     7
 48
25.4
100
AcDbLine
 10
34.2916320836
 20
29.5065594685
 30
0.0
 11
19.2916320836
 21
29.5065594685
 31
0.0
  0
LINE
  5
94
330
1F
100
AcDbEntity
  8
Default
  6
Continuous
 62
     7
 48
25.4
100
AcDbLine
 10
34.2916320836
 20
35.9065594685
 30
0.0
 11
19.2916320836
 21
35.9065594685
 31
0.0
  0
LINE
  5
95
330
1F
100
AcDbEntity
  8
Default
  6
Continuous
 62
     7
 48
25.4
100
AcDbLine
 10
34.2916320836
 20
42.3065594685
 30
0.0
 11
19.2916320836
 21
42.3065594685
 31
0.0
  0
LINE
  5
96
330
1F
100
AcDbEntity
  8
Default
  6
Continuous
 62
     7
 48
25.4
100
AcDbLine
 10
34.2916320836
 20
48.7065594685
 30
0.0
 11
19.2916320836
 21
48.7065594685
 31
0.0
  0
LINE
  5
97
330
1F
100
AcDbEntity
  8
Default
  6
Continuous
 62
     7
 48
25.4
100
AcDbLine
 10
34.2916320836
 20
55.1065594685
 30
0.0
 11
19.2916320836
 21
55.1065594685
 31
0.0
  0
LINE
  5
98
330
1F
100
AcDbEntity
  8
Default
  6
Continuous
 62
     7
 48
25.4
100
AcDbLine
 10
34.2916320836
 20
61.5065594685
 30
0.0
 11
19.2916320836
 21
61.5065594685
 31
0.0
  0
LINE
  5
99
330
1F
100
AcDbEntity
  8
Default
  6
Continuous
 62
     7
 48
25.4
100
AcDbLine
 10
34.2916320836
 20
67.9065594685
 30
0.0
 11
19.2916320836
 21
67.9065594685
 31
0.0
  0
LINE
  5
9B
330
1F
100
AcDbEntity
  8
DOGSV_0
  6
Continuous
 62
     7
 48
25.4
100
AcDbLine
 10
696.4760245259
 20
10.3065594685
 30
0.0
 11
696.4760245259
 21
67.4282094548
 31
0.0
  0
LINE
  5
9C
330
1F
100
AcDbEntity
  8
DOGSV_0
  6
Continuous
 62
     7
 48
25.4
100
AcDbLine
 10
696.4760245259
 20
67.4282094548
 30
0.0
 11
789.5924320836
 21
67.4282094548
 31
0.0
  0
LINE
  5
9D
330
1F
100
AcDbEntity
  8
DOGSV_0
  6
Continuous
 62
     7
 48
25.4
100
AcDbLine
 10
696.4760245259
 20
35.7290113442
 30
0.0
 11
821.2916320836
 21
35.7290113442
 31
0.0
  0
LINE
  5
9E
330
1F
100
AcDbEntity
  8
DOGSV_0
  6
Continuous
 62
     7
 48
25.4
100
AcDbLine
 10
696.4760245259
 20
23.3465113442
 30
0.0
 11
821.2916320836
 21
23.3465113442
 31
0.0
  0
LINE
  5
9F
330
1F
100
AcDbEntity
  8
DOGSV_0
  6
Continuous
 62
     7
 48
25.4
100
AcDbLine
 10
743.0342245259
 20
35.7290113442
 30
0.0
 11
743.0342245259
 21
23.3465113442
 31
0.0
  0
LINE
  5
A0
330
1F
100
AcDbEntity
  8
DOGSV_0
  6
Continuous
 62
     7
 48
25.4
100
AcDbLine
 10
762.8462320836
 20
35.7290113442
 30
0.0
 11
762.8462320836
 21
10.3065594685
 31
0.0
  0
LINE
  5
A1
330
1F
100
AcDbEntity
  8
DOGSV_0
  6
Continuous
 62
     7
 48
25.4
100
AcDbLine
 10
782.1629320836
 20
35.7290113442
 30
0.0
 11
782.1629320836
 21
23.3465113442
 31
0.0
  0
LINE
  5
A2
330
1F
100
AcDbEntity
  8
DOGSV_0
  6
Continuous
 62
     7
 48
25.4
100
AcDbLine
 10
801.4796320836
 20
35.7290113442
 30
0.0
 11
801.4796320836
 21
23.3465113442
 31
0.0
  0
LINE
  5
A3
330
1F
100
AcDbEntity
  8
DOGSV_0
  6
Continuous
 62
     7
 48
25.4
100
AcDbLine
 10
775.7240320836
 20
23.3465113442
 30
0.0
 11
775.7240320836
 21
10.3065594685
 31
0.0
  0
LINE
  5
A4
330
1F
100
AcDbEntity
  8
DOGSV_0
  6
Continuous
 62
     7
 48
25.4
100
AcDbLine
 10
789.5924320836
 20
67.4282094548
 30
0.0
 11
821.2916320836
 21
67.4282094548
 31
0.0
  0
LINE
  5
A5
330
1F
100
AcDbEntity
  8
DOGSV_0
  6
Continuous
 62
     7
 48
25.4
100
AcDbLine
 10
705.8907646222
 20
35.5675612178
 30
0.0
 11
705.8907646222
 21
23.1850612178
 31
0.0
  0
LINE
  5
A6
330
1F
100
AcDbEntity
  8
DOGSV_0
  6
Continuous
 62
     7
 48
25.4
100
AcDbLine
 10
720.1039641167
 20
35.7290113442
 30
0.0
 11
720.1039641167
 21
23.3465113442
 31
0.0
  0
LINE
  5
A7
330
1F
100
AcDbEntity
  8
Default
  6
Continuous
 62
     7
 48
25.4
100
AcDbLine
 10
696.4760245259
 20
48.2472423514
 30
0.0
 11
821.2916320836
 21
48.2472423514
 31
0.0
  0
LINE
  5
A8
330
1F
100
AcDbEntity
  8
Default
  6
Continuous
 62
     7
 48
25.4
100
AcDbLine
 10
696.4760245259
 20
60.9269215957
 30
0.0
 11
821.2916320836
 21
60.9269215957
 31
0.0
  0
LINE
  5
A9
330
1F
100
AcDbEntity
  8
Default
  6
Continuous
 62
     7
 48
25.4
100
AcDbLine
 10
696.4760245259
 20
54.5870800842
 30
0.0
 11
821.2916320836
 21
54.5870800842
 31
0.0
  0
LINE
  5
AA
330
1F
100
AcDbEntity
  8
Default
  6
Continuous
 62
     7
 48
25.4
100
AcDbLine
 10
696.4760245259
 20
41.9074008399
 30
0.0
 11
782.1629320836
 21
41.9074008399
 31
0.0
  0
LINE
  5
AB
330
1F
100
AcDbEntity
  8
Default
  6
Continuous
 62
     7
 48
25.4
100
AcDbLine
 10
696.4760245259
 20
31.5061008399
 30
0.0
 11
743.0342245259
 21
31.5061008399
 31
0.0
  0
LINE
  5
AC
330
1F
100
AcDbEntity
  8
Default
  6
Continuous
 62
     7
 48
25.4
100
AcDbLine
 10
696.4760245259
 20
27.3455800842
 30
0.0
 11
743.0342245259
 21
27.3455800842
 31
0.0
  0
TEXT
  5
AD
330
1F
100
AcDbEntity
  8
Default
  6
Continuous
 62
     7
 48
25.4
100
AcDbText
 10
698.599092845
 20
64.6366749175
 30
0.0
 40
1.5
  1
Material
  7
SEACAD_seiso_ttfB
 11
698.599092845
 21
66.1366749175
 31
0.0
100
AcDbText
 73
     3
  0
TEXT
  5
AF
330
1F
100
AcDbEntity
  8
Default
  6
Continuous
 62
     7
 48
25.4
100
AcDbText
 10
704.5650019359
 20
64.6366749175
 30
0.0
 40
1.5
  1
e
  7
SEACAD_seans_ttfB
 11
704.5650019359
 21
66.1366749175
 31
0.0
100
AcDbText
 73
     3
  0
TEXT
  5
B0
330
1F
100
AcDbEntity
  8
Default
  6
Continuous
 62
     7
 48
25.4
100
AcDbText
 10
698.0693902134
 20
57.2647633125
 30
0.0
 40
1.5
  1
Overfladebehandling
  7
SEACAD_seiso_ttfB
 11
698.0693902134
 21
58.7647633125
 31
0.0
100
AcDbText
 73
     3
  0
TEXT
  5
B1
330
1F
100
AcDbEntity
  8
Default
  6
Continuous
 62
     7
 48
25.4
100
AcDbText
 10
697.5907591793
 20
45.4249337664
 30
0.0
 40
1.5
  1
Frimålstolerance
  7
SEACAD_seiso_ttfB
 11
697.5907591793
 21
46.9249337664
 31
0.0
100
AcDbText
 73
     3
  0
TEXT
  5
B2
330
1F
100
AcDbEntity
  8
Default
  6
Continuous
 62
     7
 48
25.4
100
AcDbText
 10
744.2995143731
 20
33.0882884256
 30
0.0
 40
1.5
  1
Tegningsformat
  7
SEACAD_seiso_ttfB
 11
744.2995143731
 21
34.5882884256
 31
0.0
100
AcDbText
 73
     3
  0
TEXT
  5
B3
330
1F
100
AcDbEntity
  8
Default
  6
Continuous
 62
     7
 48
25.4
100
AcDbText
 10
763.8546606946
 20
33.0882884256
 30
0.0
 40
1.5
  1
Erstatter
  7
SEACAD_seiso_ttfB
 11
763.8546606946
 21
34.5882884256
 31
0.0
100
AcDbText
 73
     3
  0
TEXT
  5
B4
330
1F
100
AcDbEntity
  8
Default
  6
Continuous
 62
     7
 48
25.4
100
AcDbText
 10
783.1254667006
 20
33.0882884256
 30
0.0
 40
1.5
  1
Målforhold
  7
SEACAD_seiso_ttfB
 11
783.1254667006
 21
34.5882884256
 31
0.0
100
AcDbText
 73
     3
  0
TEXT
  5
B5
330
1F
100
AcDbEntity
  8
Default
  6
Continuous
 62
     7
 48
25.4
100
AcDbText
 10
776.2968237735
 20
21.1460445728
 30
0.0
 40
1.5
  1
Del nr.
  7
SEACAD_seiso_ttfB
 11
776.2968237735
 21
22.6460445728
 31
0.0
100
AcDbText
 73
     3
  0
TEXT
  5
B6
330
1F
100
AcDbEntity
  8
Default
  6
Continuous
 62
     7
 48
25.4
100
AcDbText
 10
763.4190237735
 20
21.16964085
 30
0.0
 40
1.5
  1
Udgave
  7
SEACAD_seiso_ttfB
 11
763.4190237735
 21
22.66964085
 31
0.0
100
AcDbText
 73
     3
  0
TEXT
  5
B7
330
1F
100
AcDbEntity
  8
Default
  6
Continuous
 62
     7
 48
25.4
100
AcDbText
 10
697.0488162158
 20
21.0982717029
 30
0.0
 40
1.5
  1
Benævnelse
  7
SEACAD_seiso_ttfB
 11
697.0488162158
 21
22.5982717029
 31
0.0
100
AcDbText
 73
     3
  0
TEXT
  5
B8
330
1F
100
AcDbEntity
  8
Default
  6
Continuous
 62
     7
 48
25.4
100
AcDbText
 10
697.2121042335
 20
32.7312455054
 30
0.0
 40
1.5
  1
Konstr.
  7
SEACAD_seiso_ttfB
 11
697.2121042335
 21
34.2312455054
 31
0.0
100
AcDbText
 73
     3
  0
TEXT
  5
B9
330
1F
100
AcDbEntity
  8
Default
  6
Continuous
 62
     7
 48
25.4
100
AcDbText
 10
697.2121042335
 20
29.0200498532
 30
0.0
 40
1.5
  1
Udf. af
  7
SEACAD_seiso_ttfB
 11
697.2121042335
 21
30.5200498532
 31
0.0
100
AcDbText
 73
     3
  0
TEXT
  5
BA
330
1F
100
AcDbEntity
  8
Default
  6
Continuous
 62
     7
 48
25.4
100
AcDbText
 10
751.2635335435
 20
25.7079150068
 30
0.0
 40
5.0
  1
A1
  7
SEACAD_seiso_ttfB
 11
751.2635335435
 21
30.7079150068
 31
0.0
100
AcDbText
 73
     3
  0
LINE
  5
BB
330
1F
100
AcDbEntity
  8
Default
  6
Continuous
 62
     7
 48
25.4
100
AcDbLine
 10
38.6916320836
 20
578.3142715852
 30
0.0
 11
38.6916320836
 21
10.3065594685
 31
0.0
  0
LINE
  5
BC
330
1F
100
AcDbEntity
  8
Default
  6
Continuous
 62
     7
 48
25.4
100
AcDbLine
 10
821.2916320836
 20
578.3142715852
 30
0.0
 11
38.6916320836
 21
578.3142715852
 31
0.0
  0
LINE
  5
BD
330
1F
100
AcDbEntity
  8
Default
  6
Continuous
 62
     7
 48
25.4
100
AcDbLine
 10
38.6916320836
 20
538.3142715852
 30
0.0
 11
34.2916320836
 21
538.3142715852
 31
0.0
  0
TEXT
  5
BE
330
1F
100
AcDbEntity
  8
Default
  6
Continuous
 62
     7
 48
25.4
100
AcDbText
 10
36.026781136
 20
558.8780639221
 30
0.0
 40
2.4
  1
A
  7
SEACAD_seiso_ttfB
 11
36.026781136
 21
561.2780639221
 31
0.0
100
AcDbText
 73
     3
  0
LINE
  5
BF
330
1F
100
AcDbEntity
  8
Default
  6
Continuous
 62
     7
 48
25.4
100
AcDbLine
 10
78.6916320836
 20
578.3141776043
 30
0.0
 11
78.6916320836
 21
582.7142715852
 31
0.0
  0
TEXT
  5
C0
330
1F
100
AcDbEntity
  8
Default
  6
Continuous
 62
     7
 48
25.4
100
AcDbText
 10
57.453886805
 20
579.0903715997
 30
0.0
 40
2.4
  1
1
  7
SEACAD_seiso_ttfB
 11
57.453886805
 21
581.4903715997
 31
0.0
100
AcDbText
 73
     3
  0
LINE
  5
C1
330
1F
100
AcDbEntity
  8
Default
  6
Continuous
 62
     7
 48
25.4
100
AcDbLine
 10
118.6916320836
 20
578.3141776043
 30
0.0
 11
118.6916320836
 21
582.7142715852
 31
0.0
  0
TEXT
  5
C2
330
1F
100
AcDbEntity
  8
Default
  6
Continuous
 62
     7
 48
25.4
100
AcDbText
 10
97.2084322595
 20
579.0903715997
 30
0.0
 40
2.4
  1
2
  7
SEACAD_seiso_ttfB
 11
97.2084322595
 21
581.4903715997
 31
0.0
100
AcDbText
 73
     3
  0
LINE
  5
C3
330
1F
100
AcDbEntity
  8
Default
  6
Continuous
 62
     7
 48
25.4
100
AcDbLine
 10
158.6916320836
 20
578.3141776043
 30
0.0
 11
158.6916320836
 21
582.7142715852
 31
0.0
  0
TEXT
  5
C4
330
1F
100
AcDbEntity
  8
Default
  6
Continuous
 62
     7
 48
25.4
100
AcDbText
 10
137.3175231686
 20
579.0903715997
 30
0.0
 40
2.4
  1
3
  7
SEACAD_seiso_ttfB
 11
137.3175231686
 21
581.4903715997
 31
0.0
100
AcDbText
 73
     3
  0
LINE
  5
C5
330
1F
100
AcDbEntity
  8
Default
  6
Continuous
 62
     7
 48
25.4
100
AcDbLine
 10
198.6916320836
 20
578.3141776043
 30
0.0
 11
198.6916320836
 21
582.7142715852
 31
0.0
  0
TEXT
  5
C6
330
1F
100
AcDbEntity
  8
Default
  6
Continuous
 62
     7
 48
25.4
100
AcDbText
 10
177.2357049868
 20
579.0903715997
 30
0.0
 40
2.4
  1
4
  7
SEACAD_seiso_ttfB
 11
177.2357049868
 21
581.4903715997
 31
0.0
100
AcDbText
 73
     3
  0
LINE
  5
C7
330
1F
100
AcDbEntity
  8
Default
  6
Continuous
 62
     7
 48
25.4
100
AcDbLine
 10
238.6916320836
 20
578.3141776043
 30
0.0
 11
238.6916320836
 21
582.7142715852
 31
0.0
  0
TEXT
  5
C8
330
1F
100
AcDbEntity
  8
Default
  6
Continuous
 62
     7
 48
25.4
100
AcDbText
 10
217.2902504414
 20
579.0903715997
 30
0.0
 40
2.4
  1
5
  7
SEACAD_seiso_ttfB
 11
217.2902504414
 21
581.4903715997
 31
0.0
100
AcDbText
 73
     3
  0
LINE
  5
C9
330
1F
100
AcDbEntity
  8
Default
  6
Continuous
 62
     7
 48
25.4
100
AcDbLine
 10
278.6916320836
 20
578.3141776043
 30
0.0
 11
278.6916320836
 21
582.7142715852
 31
0.0
  0
TEXT
  5
CA
330
1F
100
AcDbEntity
  8
Default
  6
Continuous
 62
     7
 48
25.4
100
AcDbText
 10
257.2357049868
 20
579.0903715997
 30
0.0
 40
2.4
  1
6
  7
SEACAD_seiso_ttfB
 11
257.2357049868
 21
581.4903715997
 31
0.0
100
AcDbText
 73
     3
  0
LINE
  5
CB
330
1F
100
AcDbEntity
  8
Default
  6
Continuous
 62
     7
 48
25.4
100
AcDbLine
 10
318.6916320836
 20
578.3141776043
 30
0.0
 11
318.6916320836
 21
582.7142715852
 31
0.0
  0
TEXT
  5
CC
330
1F
100
AcDbEntity
  8
Default
  6
Continuous
 62
     7
 48
25.4
100
AcDbText
 10
297.1811595323
 20
579.0903715997
 30
0.0
 40
2.4
  1
7
  7
SEACAD_seiso_ttfB
 11
297.1811595323
 21
581.4903715997
 31
0.0
100
AcDbText
 73
     3
  0
LINE
  5
CD
330
1F
100
AcDbEntity
  8
Default
  6
Continuous
 62
     7
 48
25.4
100
AcDbLine
 10
358.6916320836
 20
578.3141776043
 30
0.0
 11
358.6916320836
 21
582.7142715852
 31
0.0
  0
TEXT
  5
CE
330
1F
100
AcDbEntity
  8
Default
  6
Continuous
 62
     7
 48
25.4
100
AcDbText
 10
337.2084322595
 20
579.0903715997
 30
0.0
 40
2.4
  1
8
  7
SEACAD_seiso_ttfB
 11
337.2084322595
 21
581.4903715997
 31
0.0
100
AcDbText
 73
     3
  0
LINE
  5
CF
330
1F
100
AcDbEntity
  8
Default
  6
Continuous
 62
     7
 48
25.4
100
AcDbLine
 10
398.6916320836
 20
578.3141776043
 30
0.0
 11
398.6916320836
 21
582.7142715852
 31
0.0
  0
TEXT
  5
D0
330
1F
100
AcDbEntity
  8
Default
  6
Continuous
 62
     7
 48
25.4
100
AcDbText
 10
377.2357049868
 20
579.0903715997
 30
0.0
 40
2.4
  1
9
  7
SEACAD_seiso_ttfB
 11
377.2357049868
 21
581.4903715997
 31
0.0
100
AcDbText
 73
     3
  0
LINE
  5
D1
330
1F
100
AcDbEntity
  8
Default
  6
Continuous
 62
     7
 48
25.4
100
AcDbLine
 10
438.6916320836
 20
578.3141776043
 30
0.0
 11
438.6916320836
 21
582.7142715852
 31
0.0
  0
TEXT
  5
D2
330
1F
100
AcDbEntity
  8
Default
  6
Continuous
 62
     7
 48
25.4
100
AcDbText
 10
416.7447958959
 20
579.0903715997
 30
0.0
 40
2.4
  1
10
  7
SEACAD_seiso_ttfB
 11
416.7447958959
 21
581.4903715997
 31
0.0
100
AcDbText
 73
     3
  0
LINE
  5
D3
330
1F
100
AcDbEntity
  8
Default
  6
Continuous
 62
     7
 48
25.4
100
AcDbLine
 10
478.6916320836
 20
578.3141776043
 30
0.0
 11
478.6916320836
 21
582.7142715852
 31
0.0
  0
TEXT
  5
D4
330
1F
100
AcDbEntity
  8
Default
  6
Continuous
 62
     7
 48
25.4
100
AcDbText
 10
456.9629777141
 20
579.0903715997
 30
0.0
 40
2.4
  1
11
  7
SEACAD_seiso_ttfB
 11
456.9629777141
 21
581.4903715997
 31
0.0
100
AcDbText
 73
     3
  0
LINE
  5
D5
330
1F
100
AcDbEntity
  8
Default
  6
Continuous
 62
     7
 48
25.4
100
AcDbLine
 10
518.6916320836
 20
578.3141776043
 30
0.0
 11
518.6916320836
 21
582.7142715852
 31
0.0
  0
TEXT
  5
D6
330
1F
100
AcDbEntity
  8
Default
  6
Continuous
 62
     7
 48
25.4
100
AcDbText
 10
496.7175231686
 20
579.0903715997
 30
0.0
 40
2.4
  1
12
  7
SEACAD_seiso_ttfB
 11
496.7175231686
 21
581.4903715997
 31
0.0
100
AcDbText
 73
     3
  0
LINE
  5
D7
330
1F
100
AcDbEntity
  8
Default
  6
Continuous
 62
     7
 48
25.4
100
AcDbLine
 10
558.6916320836
 20
578.3141776043
 30
0.0
 11
558.6916320836
 21
582.7142715852
 31
0.0
  0
TEXT
  5
D8
330
1F
100
AcDbEntity
  8
Default
  6
Continuous
 62
     7
 48
25.4
100
AcDbText
 10
536.8266140777
 20
579.0903715997
 30
0.0
 40
2.4
  1
13
  7
SEACAD_seiso_ttfB
 11
536.8266140777
 21
581.4903715997
 31
0.0
100
AcDbText
 73
     3
  0
LINE
  5
D9
330
1F
100
AcDbEntity
  8
Default
  6
Continuous
 62
     7
 48
25.4
100
AcDbLine
 10
598.6916320836
 20
578.3141776043
 30
0.0
 11
598.6916320836
 21
582.7142715852
 31
0.0
  0
TEXT
  5
DA
330
1F
100
AcDbEntity
  8
Default
  6
Continuous
 62
     7
 48
25.4
100
AcDbText
 10
576.7447958959
 20
579.0903715997
 30
0.0
 40
2.4
  1
14
  7
SEACAD_seiso_ttfB
 11
576.7447958959
 21
581.4903715997
 31
0.0
100
AcDbText
 73
     3
  0
LINE
  5
DB
330
1F
100
AcDbEntity
  8
Default
  6
Continuous
 62
     7
 48
25.4
100
AcDbLine
 10
638.6916320836
 20
578.3141776043
 30
0.0
 11
638.6916320836
 21
582.7142715852
 31
0.0
  0
TEXT
  5
DC
330
1F
100
AcDbEntity
  8
Default
  6
Continuous
 62
     7
 48
25.4
100
AcDbText
 10
616.7993413505
 20
579.0903715997
 30
0.0
 40
2.4
  1
15
  7
SEACAD_seiso_ttfB
 11
616.7993413505
 21
581.4903715997
 31
0.0
100
AcDbText
 73
     3
  0
LINE
  5
DD
330
1F
100
AcDbEntity
  8
Default
  6
Continuous
 62
     7
 48
25.4
100
AcDbLine
 10
678.6916320836
 20
578.3141776043
 30
0.0
 11
678.6916320836
 21
582.7142715852
 31
0.0
  0
TEXT
  5
DE
330
1F
100
AcDbEntity
  8
Default
  6
Continuous
 62
     7
 48
25.4
100
AcDbText
 10
656.7447958959
 20
579.0903715997
 30
0.0
 40
2.4
  1
16
  7
SEACAD_seiso_ttfB
 11
656.7447958959
 21
581.4903715997
 31
0.0
100
AcDbText
 73
     3
  0
LINE
  5
DF
330
1F
100
AcDbEntity
  8
Default
  6
Continuous
 62
     7
 48
25.4
100
AcDbLine
 10
718.6916320836
 20
578.3141776043
 30
0.0
 11
718.6916320836
 21
582.7142715852
 31
0.0
  0
TEXT
  5
E0
330
1F
100
AcDbEntity
  8
Default
  6
Continuous
 62
     7
 48
25.4
100
AcDbText
 10
696.6902504414
 20
579.0903715997
 30
0.0
 40
2.4
  1
17
  7
SEACAD_seiso_ttfB
 11
696.6902504414
 21
581.4903715997
 31
0.0
100
AcDbText
 73
     3
  0
LINE
  5
E1
330
1F
100
AcDbEntity
  8
Default
  6
Continuous
 62
     7
 48
25.4
100
AcDbLine
 10
758.6916320836
 20
578.3141776043
 30
0.0
 11
758.6916320836
 21
582.7142715852
 31
0.0
  0
TEXT
  5
E2
330
1F
100
AcDbEntity
  8
Default
  6
Continuous
 62
     7
 48
25.4
100
AcDbText
 10
736.7175231686
 20
579.0903715997
 30
0.0
 40
2.4
  1
18
  7
SEACAD_seiso_ttfB
 11
736.7175231686
 21
581.4903715997
 31
0.0
100
AcDbText
 73
     3
  0
LINE
  5
E3
330
1F
100
AcDbEntity
  8
Default
  6
Continuous
 62
     7
 48
25.4
100
AcDbLine
 10
798.6916320836
 20
578.3141776043
 30
0.0
 11
798.6916320836
 21
582.7142715852
 31
0.0
  0
TEXT
  5
E4
330
1F
100
AcDbEntity
  8
Default
  6
Continuous
 62
     7
 48
25.4
100
AcDbText
 10
776.7447958959
 20
579.0903715997
 30
0.0
 40
2.4
  1
19
  7
SEACAD_seiso_ttfB
 11
776.7447958959
 21
581.4903715997
 31
0.0
100
AcDbText
 73
     3
  0
TEXT
  5
E5
330
1F
100
AcDbEntity
  8
Default
  6
Continuous
 62
     7
 48
25.4
100
AcDbText
 10
816.4993413505
 20
579.0903715997
 30
0.0
 40
2.4
  1
20
  7
SEACAD_seiso_ttfB
 11
816.4993413505
 21
581.4903715997
 31
0.0
100
AcDbText
 73
     3
  0
LINE
  5
E6
330
1F
100
AcDbEntity
  8
Default
  6
Continuous
 62
     7
 48
25.4
100
AcDbLine
 10
38.6916320836
 20
498.3142715852
 30
0.0
 11
34.2916320836
 21
498.3142715852
 31
0.0
  0
TEXT
  5
E7
330
1F
100
AcDbEntity
  8
Default
  6
Continuous
 62
     7
 48
25.4
100
AcDbText
 10
35.9995084087
 20
518.8780639221
 30
0.0
 40
2.4
  1
B
  7
SEACAD_seiso_ttfB
 11
35.9995084087
 21
521.2780639221
 31
0.0
100
AcDbText
 73
     3
  0
LINE
  5
E8
330
1F
100
AcDbEntity
  8
Default
  6
Continuous
 62
     7
 48
25.4
100
AcDbLine
 10
38.6916320836
 20
458.3142715852
 30
0.0
 11
34.2916320836
 21
458.3142715852
 31
0.0
  0
TEXT
  5
E9
330
1F
100
AcDbEntity
  8
Default
  6
Continuous
 62
     7
 48
25.4
100
AcDbText
 10
36.0540538632
 20
478.8780639221
 30
0.0
 40
2.4
  1
C
  7
SEACAD_seiso_ttfB
 11
36.0540538632
 21
481.2780639221
 31
0.0
100
AcDbText
 73
     3
  0
LINE
  5
EA
330
1F
100
AcDbEntity
  8
Default
  6
Continuous
 62
     7
 48
25.4
100
AcDbLine
 10
38.6916320836
 20
418.3142715852
 30
0.0
 11
34.2916320836
 21
418.3142715852
 31
0.0
  0
TEXT
  5
EB
330
1F
100
AcDbEntity
  8
Default
  6
Continuous
 62
     7
 48
25.4
100
AcDbText
 10
35.9722356814
 20
438.8780639221
 30
0.0
 40
2.4
  1
D
  7
SEACAD_seiso_ttfB
 11
35.9722356814
 21
441.2780639221
 31
0.0
100
AcDbText
 73
     3
  0
LINE
  5
EC
330
1F
100
AcDbEntity
  8
Default
  6
Continuous
 62
     7
 48
25.4
100
AcDbLine
 10
38.6916320836
 20
378.3142715852
 30
0.0
 11
34.2916320836
 21
378.3142715852
 31
0.0
  0
TEXT
  5
ED
330
1F
100
AcDbEntity
  8
Default
  6
Continuous
 62
     7
 48
25.4
100
AcDbText
 10
36.026781136
 20
398.8780639221
 30
0.0
 40
2.4
  1
E
  7
SEACAD_seiso_ttfB
 11
36.026781136
 21
401.2780639221
 31
0.0
100
AcDbText
 73
     3
  0
LINE
  5
EE
330
1F
100
AcDbEntity
  8
Default
  6
Continuous
 62
     7
 48
25.4
100
AcDbLine
 10
38.6916320836
 20
338.3142715852
 30
0.0
 11
34.2916320836
 21
338.3142715852
 31
0.0
  0
TEXT
  5
EF
330
1F
100
AcDbEntity
  8
Default
  6
Continuous
 62
     7
 48
25.4
100
AcDbText
 10
36.0540538632
 20
358.8780639221
 30
0.0
 40
2.4
  1
F
  7
SEACAD_seiso_ttfB
 11
36.0540538632
 21
361.2780639221
 31
0.0
100
AcDbText
 73
     3
  0
LINE
  5
F0
330
1F
100
AcDbEntity
  8
Default
  6
Continuous
 62
     7
 48
25.4
100
AcDbLine
 10
38.6916320836
 20
298.3142715852
 30
0.0
 11
34.2916320836
 21
298.3142715852
 31
0.0
  0
TEXT
  5
F1
330
1F
100
AcDbEntity
  8
Default
  6
Continuous
 62
     7
 48
25.4
100
AcDbText
 10
35.9722356814
 20
318.8780639221
 30
0.0
 40
2.4
  1
G
  7
SEACAD_seiso_ttfB
 11
35.9722356814
 21
321.2780639221
 31
0.0
100
AcDbText
 73
     3
  0
LINE
  5
F2
330
1F
100
AcDbEntity
  8
Default
  6
Continuous
 62
     7
 48
25.4
100
AcDbLine
 10
38.6916320836
 20
258.3142715852
 30
0.0
 11
34.2916320836
 21
258.3142715852
 31
0.0
  0
TEXT
  5
F3
330
1F
100
AcDbEntity
  8
Default
  6
Continuous
 62
     7
 48
25.4
100
AcDbText
 10
35.9449629542
 20
278.8780639221
 30
0.0
 40
2.4
  1
H
  7
SEACAD_seiso_ttfB
 11
35.9449629542
 21
281.2780639221
 31
0.0
100
AcDbText
 73
     3
  0
LINE
  5
F4
330
1F
100
AcDbEntity
  8
Default
  6
Continuous
 62
     7
 48
25.4
100
AcDbLine
 10
38.6916320836
 20
218.3142715852
 30
0.0
 11
34.2916320836
 21
218.3142715852
 31
0.0
  0
TEXT
  5
F5
330
1F
100
AcDbEntity
  8
Default
  6
Continuous
 62
     7
 48
25.4
100
AcDbText
 10
36.326781136
 20
238.8780639221
 30
0.0
 40
2.4
  1
I
  7
SEACAD_seiso_ttfB
 11
36.326781136
 21
241.2780639221
 31
0.0
100
AcDbText
 73
     3
  0
LINE
  5
F6
330
1F
100
AcDbEntity
  8
Default
  6
Continuous
 62
     7
 48
25.4
100
AcDbLine
 10
38.6916320836
 20
178.3142715852
 30
0.0
 11
34.2916320836
 21
178.3142715852
 31
0.0
  0
TEXT
  5
F7
330
1F
100
AcDbEntity
  8
Default
  6
Continuous
 62
     7
 48
25.4
100
AcDbText
 10
36.0813265905
 20
198.8780639221
 30
0.0
 40
2.4
  1
J
  7
SEACAD_seiso_ttfB
 11
36.0813265905
 21
201.2780639221
 31
0.0
100
AcDbText
 73
     3
  0
LINE
  5
F8
330
1F
100
AcDbEntity
  8
Default
  6
Continuous
 62
     7
 48
25.4
100
AcDbLine
 10
38.6916320836
 20
138.3142715852
 30
0.0
 11
34.2916320836
 21
138.3142715852
 31
0.0
  0
TEXT
  5
F9
330
1F
100
AcDbEntity
  8
Default
  6
Continuous
 62
     7
 48
25.4
100
AcDbText
 10
35.9449629542
 20
158.8780639221
 30
0.0
 40
2.4
  1
K
  7
SEACAD_seiso_ttfB
 11
35.9449629542
 21
161.2780639221
 31
0.0
100
AcDbText
 73
     3
  0
LINE
  5
FA
330
1F
100
AcDbEntity
  8
Default
  6
Continuous
 62
     7
 48
25.4
100
AcDbLine
 10
38.6916320836
 20
98.3142715852
 30
0.0
 11
34.2916320836
 21
98.3142715852
 31
0.0
  0
TEXT
  5
FB
330
1F
100
AcDbEntity
  8
Default
  6
Continuous
 62
     7
 48
25.4
100
AcDbText
 10
36.2722356814
 20
118.8780639221
 30
0.0
 40
2.4
  1
l
  7
SEACAD_seiso_ttfB
 11
36.2722356814
 21
121.2780639221
 31
0.0
100
AcDbText
 73
     3
  0
TEXT
  5
FC
330
1F
100
AcDbEntity
  8
Default
  6
Continuous
 62
     7
 48
25.4
100
AcDbText
 10
35.7813265905
 20
78.8780639221
 30
0.0
 40
2.4
  1
M
  7
SEACAD_seiso_ttfB
 11
35.7813265905
 21
81.2780639221
 31
0.0
100
AcDbText
 73
     3
  0
LINE
  5
FD
330
1F
100
AcDbEntity
  8
Default
  6
Continuous
 62
     7
 48
25.4
100
AcDbLine
 10
0.1940482458
 20
297.3264233552
 30
0.0
 11
34.2916320836
 21
297.3264233552
 31
0.0
  0
LINE
  5
FE
330
1F
100
AcDbEntity
  8
Default
  6
Continuous
 62
     7
 48
25.4
100
AcDbLine
 10
0.1940482458
 20
148.8264233552
 30
0.0
 11
34.2916320836
 21
148.8264233552
 31
0.0
  0
LINE
  5
FF
330
1F
100
AcDbEntity
  8
Default
  6
Continuous
 62
     7
 48
25.4
100
AcDbLine
 10
841.651013341
 20
297.3264233552
 30
0.0
 11
821.2916320836
 21
297.3264233552
 31
0.0
  0
LINE
  5
100
330
1F
100
AcDbEntity
  8
Default
  6
Continuous
 62
     7
 48
25.4
100
AcDbLine
 10
187.170128525
 20
0.3264233552
 30
0.0
 11
187.170128525
 21
10.3065594685
 31
0.0
  0
LINE
  5
101
330
1F
100
AcDbEntity
  8
Default
  6
Continuous
 62
     7
 48
25.4
100
AcDbLine
 10
337.170128525
 20
0.3264233552
 30
0.0
 11
337.170128525
 21
10.3065594685
 31
0.0
  0
LINE
  5
102
330
1F
100
AcDbEntity
  8
Default
  6
Continuous
 62
     7
 48
25.4
100
AcDbLine
 10
495.170128525
 20
0.3264233552
 30
0.0
 11
495.170128525
 21
10.3065594685
 31
0.0
  0
LINE
  5
103
330
1F
100
AcDbEntity
  8
Default
  6
Continuous
 62
     7
 48
25.4
100
AcDbLine
 10
653.170128525
 20
0.3264233552
 30
0.0
 11
653.170128525
 21
10.3065594685
 31
0.0
  0
LINE
  5
104
330
1F
100
AcDbEntity
  8
Default
  6
Continuous
 62
     7
 48
25.4
100
AcDbLine
 10
187.170128525
 20
582.7142715852
 30
0.0
 11
187.170128525
 21
592.7142715852
 31
0.0
  0
LINE
  5
105
330
1F
100
AcDbEntity
  8
Default
  6
Continuous
 62
     7
 48
25.4
100
AcDbLine
 10
337.170128525
 20
582.7142715852
 30
0.0
 11
337.170128525
 21
592.7142715852
 31
0.0
  0
LINE
  5
106
330
1F
100
AcDbEntity
  8
Default
  6
Continuous
 62
     7
 48
25.4
100
AcDbLine
 10
495.170128525
 20
582.7142715852
 30
0.0
 11
495.170128525
 21
592.7142715852
 31
0.0
  0
LINE
  5
107
330
1F
100
AcDbEntity
  8
Default
  6
Continuous
 62
     7
 48
25.4
100
AcDbLine
 10
653.170128525
 20
582.7142715852
 30
0.0
 11
653.170128525
 21
592.7142715852
 31
0.0
  0
LINE
  5
108
330
1F
100
AcDbEntity
  8
Default
  6
Continuous
 62
     7
 48
25.4
100
AcDbLine
 10
38.6916320836
 20
58.407121857
 30
0.0
 11
34.2916320836
 21
58.407121857
 31
0.0
  0
TEXT
  5
109
330
1F
100
AcDbEntity
  8
Default
  6
Continuous
 62
     7
 48
25.4
100
AcDbText
 10
35.9722356814
 20
38.9709141938
 30
0.0
 40
2.4
  1
N
  7
SEACAD_seiso_ttfB
 11
35.9722356814
 21
41.3709141938
 31
0.0
100
AcDbText
 73
     3
  0
LINE
  5
10A
330
1F
100
AcDbEntity
  8
Default
  6
Continuous
 62
     7
 48
25.4
100
AcDbLine
 10
38.6916320836
 20
18.797786679
 30
0.0
 11
34.2916320836
 21
18.797786679
 31
0.0
  0
TEXT
  5
10C
330
1F
100
AcDbEntity
  8
Default
  6
Continuous
 62
     7
 48
25.4
100
AcDbText
 10
802.6193801742
 20
28.7414131999
 30
0.0
 40
3.5
  1
IVI-tek
  7
SEACAD_times_ttfBI
 11
802.6193801742
 21
32.2414131999
 31
0.0
100
AcDbText
 73
     3
  0
LINE
  5
10D
330
1F
100
AcDbEntity
  8
Default
  6
Continuous
 62
     7
 48
25.4
100
AcDbLine
 10
782.1629320836
 20
35.7290113442
 30
0.0
 11
782.1629320836
 21
67.4282094548
 31
0.0
  0
ENDSEC
  0
SECTION
  2
OBJECTS
  0
DICTIONARY
  5
C
330
0
100
AcDbDictionary
281
     1
  3
ACAD_GROUP
350
D
  3
ACAD_LAYOUT
350
1A
  3
ACAD_MLINESTYLE
350
17
  3
ACAD_PLOTSETTINGS
350
19
  3
ACAD_PLOTSTYLENAME
350
E
  0
DICTIONARY
  5
D
102
{ACAD_REACTORS
330
C
102
}
330
C
100
AcDbDictionary
281
     1
  0
DICTIONARY
  5
1A
102
{ACAD_REACTORS
330
C
102
}
330
C
100
AcDbDictionary
281
     1
  3
Layout1
350
1E
  3
Model
350
22
  0
DICTIONARY
  5
17
102
{ACAD_REACTORS
330
C
102
}
330
C
100
AcDbDictionary
281
     1
  3
Standard
350
18
  0
DICTIONARY
  5
19
102
{ACAD_REACTORS
330
C
102
}
330
C
100
AcDbDictionary
281
     1
  0
ACDBDICTIONARYWDFLT
  5
E
102
{ACAD_REACTORS
330
C
102
}
330
C
100
AcDbDictionary
281
     1
  3
Normal
350
F
100
AcDbDictionaryWithDefault
340
F
  0
LAYOUT
  5
1E
102
{ACAD_REACTORS
330
1A
102
}
330
1A
100
AcDbPlotSettings
  1

  2

  4

  6

 40
0.0
 41
0.0
 42
0.0
 43
0.0
 44
0.0
 45
0.0
 46
0.0
 47
0.0
 48
0.0
 49
0.0
140
0.0
141
0.0
142
1.0
143
1.0
 70
   688
 72
     0
 73
     0
 74
     5
  7

 75
    16
147
1.0
148
0.0
149
0.0
100
AcDbLayout
  1
Layout1
 70
     1
 71
     1
 10
0.0
 20
0.0
 11
841.0
 21
594.0
 12
0.0
 22
0.0
 32
0.0
 14
0.0
 24
0.0
 34
0.0
 15
841.0
 25
594.0
 35
0.0
146
0.0
 13
0.0
 23
0.0
 33
0.0
 16
1.0
 26
0.0
 36
0.0
 17
0.0
 27
1.0
 37
0.0
 76
     0
330
1B
  0
LAYOUT
  5
22
102
{ACAD_REACTORS
330
1A
102
}
330
1A
100
AcDbPlotSettings
  1

  2

  4

  6

 40
0.0
 41
0.0
 42
0.0
 43
0.0
 44
0.0
 45
0.0
 46
0.0
 47
0.0
 48
0.0
 49
0.0
140
0.0
141
0.0
142
1.0
143
1.0
 70
  1712
 72
     0
 73
     0
 74
     0
  7

 75
     0
147
1.0
148
0.0
149
0.0
100
AcDbLayout
  1
Model
 70
     1
 71
     0
 10
0.0
 20
0.0
 11
841.0
 21
594.0
 12
0.0
 22
0.0
 32
0.0
 14
0.0
 24
0.0
 34
0.0
 15
841.0
 25
594.0
 35
0.0
146
0.0
 13
0.0
 23
0.0
 33
0.0
 16
1.0
 26
0.0
 36
0.0
 17
0.0
 27
1.0
 37
0.0
 76
     0
330
1F
  0
MLINESTYLE
  5
18
102
{ACAD_REACTORS
330
17
102
}
330
17
100
AcDbMlineStyle
  2
Standard
 70
     0
  3

 62
   256
 51
90.0
 52
90.0
 71
     2
 49
0.5
 62
   256
  6
BYLAYER
 49
-0.5
 62
   256
  6
BYLAYER
  0
ACDBPLACEHOLDER
  5
F
102
{ACAD_REACTORS
330
E
102
}
330
E
  0
ENDSEC
  0
EOF
