  0
SECTION
  2
HEADER
  9
$ACADVER
  1
AC1015
  9
$ACADMAINTVER
 70
     6
  9
$DWGCODEPAGE
  3
ANSI_1252
  9
$INSBASE
 10
0.0
 20
0.0
 30
0.0
  9
$EXTMIN
 10
0.0
 20
0.0
 30
0.0
  9
$EXTMAX
 10
841.0
 20
594.0
 30
0.0
  9
$LIMMIN
 10
0.0
 20
0.0
  9
$LIMMAX
 10
841.0
 20
594.0
  9
$ORTHOMODE
 70
     0
  9
$REGENMODE
 70
     1
  9
$FILLMODE
 70
     1
  9
$QTEXTMODE
 70
     0
  9
$MIRRTEXT
 70
     1
  9
$LTSCALE
 40
1.0
  9
$ATTMODE
 70
     1
  9
$TEXTSIZE
 40
0.2
  9
$TRACEWID
 40
0.05
  9
$TEXTSTYLE
  7
Standard
  9
$CLAYER
  8
0
  9
$CELTYPE
  6
ByLayer
  9
$CECOLOR
 62
   256
  9
$CELTSCALE
 40
25.4
  9
$DISPSILH
 70
     0
  9
$DIMSCALE
 40
1.0
  9
$DIMASZ
 40
0.18
  9
$DIMEXO
 40
0.0625
  9
$DIMDLI
 40
0.38
  9
$DIMRND
 40
0.0
  9
$DIMDLE
 40
0.0
  9
$DIMEXE
 40
0.18
  9
$DIMTP
 40
0.0
  9
$DIMTM
 40
0.0
  9
$DIMTXT
 40
0.18
  9
$DIMCEN
 40
0.09
  9
$DIMTSZ
 40
0.0
  9
$DIMTOL
 70
     0
  9
$DIMLIM
 70
     0
  9
$DIMTIH
 70
     1
  9
$DIMTOH
 70
     1
  9
$DIMSE1
 70
     0
  9
$DIMSE2
 70
     0
  9
$DIMTAD
 70
     0
  9
$DIMZIN
 70
     0
  9
$DIMBLK
  1

  9
$DIMASO
 70
     1
  9
$DIMSHO
 70
     1
  9
$DIMPOST
  1

  9
$DIMAPOST
  1

  9
$DIMALT
 70
     0
  9
$DIMALTD
 70
     2
  9
$DIMALTF
 40
25.4
  9
$DIMLFAC
 40
1.0
  9
$DIMTOFL
 70
     0
  9
$DIMTVP
 40
0.0
  9
$DIMTIX
 70
     0
  9
$DIMSOXD
 70
     0
  9
$DIMSAH
 70
     0
  9
$DIMBLK1
  1

  9
$DIMBLK2
  1

  9
$DIMSTYLE
  2
Standard
  9
$DIMCLRD
 70
     0
  9
$DIMCLRE
 70
     0
  9
$DIMCLRT
 70
     0
  9
$DIMTFAC
 40
1.0
  9
$DIMGAP
 40
0.09
  9
$DIMJUST
 70
     0
  9
$DIMSD1
 70
     0
  9
$DIMSD2
 70
     0
  9
$DIMTOLJ
 70
     1
  9
$DIMTZIN
 70
     0
  9
$DIMALTZ
 70
     0
  9
$DIMALTTZ
 70
     0
  9
$DIMUPT
 70
     0
  9
$DIMDEC
 70
     4
  9
$DIMTDEC
 70
     4
  9
$DIMALTU
 70
     2
  9
$DIMALTTD
 70
     2
  9
$DIMTXSTY
  7
Standard
  9
$DIMAUNIT
 70
     0
  9
$DIMADEC
 70
     0
  9
$DIMALTRND
 40
0.0
  9
$DIMAZIN
 70
     0
  9
$DIMDSEP
 70
    46
  9
$DIMATFIT
 70
     3
  9
$DIMFRAC
 70
     0
  9
$DIMLDRBLK
  1

  9
$DIMLUNIT
 70
     2
  9
$DIMLWD
 70
    -2
  9
$DIMLWE
 70
    -2
  9
$DIMTMOVE
 70
     0
  9
$LUNITS
 70
     2
  9
$LUPREC
 70
     4
  9
$SKETCHINC
 40
0.1
  9
$FILLETRAD
 40
0.5
  9
$AUNITS
 70
     0
  9
$AUPREC
 70
     0
  9
$MENU
  1
.
  9
$ELEVATION
 40
0.0
  9
$PELEVATION
 40
0.0
  9
$THICKNESS
 40
0.0
  9
$LIMCHECK
 70
     0
  9
$CHAMFERA
 40
0.5
  9
$CHAMFERB
 40
0.5
  9
$CHAMFERC
 40
1.0
  9
$CHAMFERD
 40
0.0
  9
$SKPOLY
 70
     0
  9
$TDCREATE
 40
2454413.37751934
  9
$TDUCREATE
 40
2454413.335852674
  9
$TDUPDATE
 40
2454413.377519352
  9
$TDUUPDATE
 40
2454413.335852685
  9
$TDINDWG
 40
0.0000000116
  9
$TDUSRTIMER
 40
0.0000000116
  9
$USRTIMER
 70
     1
  9
$ANGBASE
 50
0.0
  9
$ANGDIR
 70
     0
  9
$PDMODE
 70
     0
  9
$PDSIZE
 40
0.0
  9
$PLINEWID
 40
0.0
  9
$SPLFRAME
 70
     0
  9
$SPLINETYPE
 70
     6
  9
$SPLINESEGS
 70
     8
  9
$HANDSEED
  5
19A
  9
$SURFTAB1
 70
     6
  9
$SURFTAB2
 70
     6
  9
$SURFTYPE
 70
     6
  9
$SURFU
 70
     6
  9
$SURFV
 70
     6
  9
$UCSBASE
  2

  9
$UCSNAME
  2

  9
$UCSORG
 10
0.0
 20
0.0
 30
0.0
  9
$UCSXDIR
 10
1.0
 20
0.0
 30
0.0
  9
$UCSYDIR
 10
0.0
 20
1.0
 30
0.0
  9
$UCSORTHOREF
  2

  9
$UCSORTHOVIEW
 70
     0
  9
$UCSORGTOP
 10
0.0
 20
0.0
 30
0.0
  9
$UCSORGBOTTOM
 10
0.0
 20
0.0
 30
0.0
  9
$UCSORGLEFT
 10
0.0
 20
0.0
 30
0.0
  9
$UCSORGRIGHT
 10
0.0
 20
0.0
 30
0.0
  9
$UCSORGFRONT
 10
0.0
 20
0.0
 30
0.0
  9
$UCSORGBACK
 10
0.0
 20
0.0
 30
0.0
  9
$PUCSBASE
  2

  9
$PUCSNAME
  2

  9
$PUCSORG
 10
0.0
 20
0.0
 30
0.0
  9
$PUCSXDIR
 10
1.0
 20
0.0
 30
0.0
  9
$PUCSYDIR
 10
0.0
 20
1.0
 30
0.0
  9
$PUCSORTHOREF
  2

  9
$PUCSORTHOVIEW
 70
     0
  9
$PUCSORGTOP
 10
0.0
 20
0.0
 30
0.0
  9
$PUCSORGBOTTOM
 10
0.0
 20
0.0
 30
0.0
  9
$PUCSORGLEFT
 10
0.0
 20
0.0
 30
0.0
  9
$PUCSORGRIGHT
 10
0.0
 20
0.0
 30
0.0
  9
$PUCSORGFRONT
 10
0.0
 20
0.0
 30
0.0
  9
$PUCSORGBACK
 10
0.0
 20
0.0
 30
0.0
  9
$USERI1
 70
     0
  9
$USERI2
 70
     0
  9
$USERI3
 70
     0
  9
$USERI4
 70
     0
  9
$USERI5
 70
     0
  9
$USERR1
 40
0.0
  9
$USERR2
 40
0.0
  9
$USERR3
 40
0.0
  9
$USERR4
 40
0.0
  9
$USERR5
 40
0.0
  9
$WORLDVIEW
 70
     1
  9
$SHADEDGE
 70
     3
  9
$SHADEDIF
 70
    70
  9
$TILEMODE
 70
     1
  9
$MAXACTVP
 70
    64
  9
$PINSBASE
 10
0.0
 20
0.0
 30
0.0
  9
$PLIMCHECK
 70
     0
  9
$PEXTMIN
 10
0.0
 20
0.0
 30
0.0
  9
$PEXTMAX
 10
841.0
 20
594.0
 30
0.0
  9
$PLIMMIN
 10
0.0
 20
0.0
  9
$PLIMMAX
 10
841.0
 20
594.0
  9
$UNITMODE
 70
     0
  9
$VISRETAIN
 70
     1
  9
$PLINEGEN
 70
     0
  9
$PSLTSCALE
 70
     1
  9
$TREEDEPTH
 70
  3020
  9
$CMLSTYLE
  2
Standard
  9
$CMLJUST
 70
     0
  9
$CMLSCALE
 40
1.0
  9
$PROXYGRAPHICS
 70
     1
  9
$MEASUREMENT
 70
     1
  9
$CELWEIGHT
370
    -1
  9
$ENDCAPS
280
     0
  9
$JOINSTYLE
280
     0
  9
$LWDISPLAY
290
     0
  9
$INSUNITS
 70
     1
  9
$HYPERLINKBASE
  1

  9
$STYLESHEET
  1

  9
$XEDIT
290
     1
  9
$CEPSNTYPE
380
     0
  9
$PSTYLEMODE
290
     1
  9
$FINGERPRINTGUID
  2
{20ED4B3C-5572-4CAA-A48F-C593D1DFEBC0}
  9
$VERSIONGUID
  2
{FAEB1C32-E019-11D5-929B-00C0DF256EC4}
  9
$EXTNAMES
290
     1
  9
$PSVPSCALE
 40
0.0
  9
$OLESTARTUP
290
     0
  0
ENDSEC
  0
SECTION
  2
CLASSES
  0
CLASS
  1
ACDBDICTIONARYWDFLT
  2
AcDbDictionaryWithDefault
  3
ObjectDBX Classes
 90
        0
280
     0
281
     0
  0
CLASS
  1
ACDBPLACEHOLDER
  2
AcDbPlaceHolder
  3
ObjectDBX Classes
 90
        0
280
     0
281
     0
  0
CLASS
  1
LAYOUT
  2
AcDbLayout
  3
ObjectDBX Classes
 90
        0
280
     0
281
     0
  0
ENDSEC
  0
SECTION
  2
TABLES
  0
TABLE
  2
VPORT
  5
8
330
0
100
AcDbSymbolTable
 70
     1
  0
VPORT
  5
29
330
8
100
AcDbSymbolTableRecord
100
AcDbViewportTableRecord
  2
*Active
 70
     0
 10
0.0
 20
0.0
 11
1.0
 21
1.0
 12
10.4299065421
 22
4.5
 13
0.0
 23
0.0
 14
0.5
 24
0.5
 15
0.5
 25
0.5
 16
0.0
 26
0.0
 36
1.0
 17
0.0
 27
0.0
 37
0.0
 40
9.0
 41
1.9729729729
 42
50.0
 43
0.0
 44
0.0
 50
0.0
 51
0.0
 71
     0
 72
   100
 73
     1
 74
     3
 75
     0
 76
     0
 77
     0
 78
     0
281
     0
 65
     1
110
0.0
120
0.0
130
0.0
111
1.0
121
0.0
131
0.0
112
0.0
122
1.0
132
0.0
 79
     0
146
0.0
  0
ENDTAB
  0
TABLE
  2
LTYPE
  5
5
330
0
100
AcDbSymbolTable
 70
     1
  0
LTYPE
  5
14
330
5
100
AcDbSymbolTableRecord
100
AcDbLinetypeTableRecord
  2
ByBlock
 70
     0
  3

 72
    65
 73
     0
 40
0.0
  0
LTYPE
  5
15
330
5
100
AcDbSymbolTableRecord
100
AcDbLinetypeTableRecord
  2
ByLayer
 70
     0
  3

 72
    65
 73
     0
 40
0.0
  0
LTYPE
  5
16
330
5
100
AcDbSymbolTableRecord
100
AcDbLinetypeTableRecord
  2
Continuous
 70
     0
  3
Solid line
 72
    65
 73
     0
 40
0.0
  0
ENDTAB
  0
TABLE
  2
LAYER
  5
2
330
0
100
AcDbSymbolTable
 70
     4
  0
LAYER
  5
10
330
2
100
AcDbSymbolTableRecord
100
AcDbLayerTableRecord
  2
0
 70
     0
 62
     7
  6
Continuous
370
    -3
390
F
  0
LAYER
  5
2C
330
2
100
AcDbSymbolTableRecord
100
AcDbLayerTableRecord
  2
Default
 70
     0
 62
     7
  6
Continuous
370
    -3
390
F
  0
LAYER
  5
3A
330
2
100
AcDbSymbolTableRecord
100
AcDbLayerTableRecord
  2
$DDT_AUDIT_GENERATED_(3A)
 70
     0
 62
     7
  6
Continuous
370
    -3
390
F
  0
LAYER
  5
126
330
2
100
AcDbSymbolTableRecord
100
AcDbLayerTableRecord
  2
DOGSV_0
 70
     0
 62
     7
  6
Continuous
370
    -3
390
F
  0
ENDTAB
  0
TABLE
  2
STYLE
  5
3
330
0
100
AcDbSymbolTable
 70
     6
  0
STYLE
  5
11
330
3
100
AcDbSymbolTableRecord
100
AcDbTextStyleTableRecord
  2
Standard
 70
     0
 40
0.0
 41
1.0
 50
0.0
 71
     0
 42
0.2
  3
txt
  4

  0
STYLE
  5
2A
330
3
100
AcDbSymbolTableRecord
100
AcDbTextStyleTableRecord
  2
SEACAD_seiso_ttfB
 70
     0
 40
0.2
 41
1.0
 50
0.0
 71
     0
 42
0.2
  3
seiso.ttf
  4

  0
STYLE
  5
2D
330
3
100
AcDbSymbolTableRecord
100
AcDbTextStyleTableRecord
  2
SEACAD_seiso_ttf
 70
     0
 40
5.0
 41
1.0
 50
0.0
 71
     0
 42
0.2
  3
seiso.ttf
  4

  0
STYLE
  5
30
330
3
100
AcDbSymbolTableRecord
100
AcDbTextStyleTableRecord
  2
SEACAD_arial_ttfB
 70
     0
 40
0.2
 41
1.0
 50
0.0
 71
     0
 42
0.2
  3
arial.ttf
  4

  0
STYLE
  5
13A
330
3
100
AcDbSymbolTableRecord
100
AcDbTextStyleTableRecord
  2
SEACAD_seans_ttfB
 70
     0
 40
0.2
 41
1.0
 50
0.0
 71
     0
 42
0.2
  3
seans.ttf
  4

  0
STYLE
  5
197
330
3
100
AcDbSymbolTableRecord
100
AcDbTextStyleTableRecord
  2
SEACAD_times_ttfBI
 70
     0
 40
0.2
 41
1.0
 50
0.0
 71
     0
 42
0.2
  3
times.ttf
  4

  0
ENDTAB
  0
TABLE
  2
VIEW
  5
6
330
0
100
AcDbSymbolTable
 70
     0
  0
ENDTAB
  0
TABLE
  2
UCS
  5
7
330
0
100
AcDbSymbolTable
 70
     0
  0
ENDTAB
  0
TABLE
  2
APPID
  5
9
330
0
100
AcDbSymbolTable
 70
     1
  0
APPID
  5
12
330
9
100
AcDbSymbolTableRecord
100
AcDbRegAppTableRecord
  2
ACAD
 70
     0
  0
ENDTAB
  0
TABLE
  2
DIMSTYLE
  5
A
330
0
100
AcDbSymbolTable
 70
     2
100
AcDbDimStyleTable
  0
DIMSTYLE
105
27
330
A
100
AcDbSymbolTableRecord
100
AcDbDimStyleTableRecord
  2
Standard
 70
     0
340
11
  0
DIMSTYLE
105
F3
102
{ACAD_REACTORS
330
F4
330
100
330
10C
102
}
330
A
100
AcDbSymbolTableRecord
100
AcDbDimStyleTableRecord
  2
ISO
 70
     0
 41
5.0
 42
1.5
 44
1.5
 73
     0
 74
     0
 77
     1
 78
     8
140
5.0
141
0.0
147
1.5
173
     1
176
     7
177
     7
178
     7
179
     1
271
     2
272
     2
278
    44
284
     8
340
2D
343
EE
344
EE
  0
ENDTAB
  0
TABLE
  2
BLOCK_RECORD
  5
1
330
0
100
AcDbSymbolTable
 70
     7
  0
BLOCK_RECORD
  5
1F
330
1
100
AcDbSymbolTableRecord
100
AcDbBlockTableRecord
  2
*Model_Space
340
22
  0
BLOCK_RECORD
  5
1B
330
1
100
AcDbSymbolTableRecord
100
AcDbBlockTableRecord
  2
*Paper_Space
340
1E
  0
BLOCK_RECORD
  5
38
330
1
100
AcDbSymbolTableRecord
100
AcDbBlockTableRecord
  2
SE
340
0
102
{BLKREFS
331
39
102
}
  0
BLOCK_RECORD
  5
D0
330
1
100
AcDbSymbolTableRecord
100
AcDbBlockTableRecord
  2
SE1
340
0
102
{BLKREFS
331
D1
102
}
  0
BLOCK_RECORD
  5
EE
330
1
100
AcDbSymbolTableRecord
100
AcDbBlockTableRecord
  2
_SE_FILLED
340
0
  0
BLOCK_RECORD
  5
F5
330
1
100
AcDbSymbolTableRecord
100
AcDbBlockTableRecord
  2
DMBLK1
340
0
  0
BLOCK_RECORD
  5
101
330
1
100
AcDbSymbolTableRecord
100
AcDbBlockTableRecord
  2
DMBLK2
340
0
  0
BLOCK_RECORD
  5
10D
330
1
100
AcDbSymbolTableRecord
100
AcDbBlockTableRecord
  2
DMBLK3
340
0
  0
ENDTAB
  0
ENDSEC
  0
SECTION
  2
BLOCKS
  0
BLOCK
  5
20
330
1F
100
AcDbEntity
  8
0
100
AcDbBlockBegin
  2
*Model_Space
 70
     0
 71
     0
 10
0.0
 20
0.0
 30
0.0
  3
*Model_Space
  1

  0
ENDBLK
  5
21
330
1F
100
AcDbEntity
  8
0
100
AcDbBlockEnd
  0
BLOCK
  5
1C
330
1B
100
AcDbEntity
 67
     1
  8
0
100
AcDbBlockBegin
  2
*Paper_Space
 70
     0
 71
     0
 10
0.0
 20
0.0
 30
0.0
  3
*Paper_Space
  1

  0
ENDBLK
  5
1D
330
1B
100
AcDbEntity
 67
     1
  8
0
100
AcDbBlockEnd
  0
BLOCK
  5
CE
330
38
100
AcDbEntity
  8
0
100
AcDbBlockBegin
  2
SE
 70
     0
 71
     0
 10
0.0
 20
0.0
 30
0.0
  3
SE
  1

  0
LINE
  5
3B
330
38
100
AcDbEntity
  8
$DDT_AUDIT_GENERATED_(3A)
  6
Continuous
 62
     7
 48
25.4
100
AcDbLine
 10
134.4016398355
 20
176.1607353142
 30
0.0
 11
617.4016398355
 21
176.1607353142
 31
0.0
  0
ARC
  5
3C
330
38
100
AcDbEntity
  8
$DDT_AUDIT_GENERATED_(3A)
  6
Continuous
 62
     7
 48
25.4
100
AcDbCircle
 10
134.4016398355
 20
194.1607353142
 30
0.0
 40
17.99999999999999
100
AcDbArc
 50
180.0
 51
270.0
  0
LINE
  5
3D
330
38
100
AcDbEntity
  8
$DDT_AUDIT_GENERATED_(3A)
  6
Continuous
 62
     7
 48
25.4
100
AcDbLine
 10
635.4016398355
 20
194.1607353142
 30
0.0
 11
635.4016398355
 21
400.1607353142
 31
0.0
  0
ARC
  5
3E
330
38
100
AcDbEntity
  8
$DDT_AUDIT_GENERATED_(3A)
  6
Continuous
 62
     7
 48
25.4
100
AcDbCircle
 10
617.4016398355
 20
194.1607353142
 30
0.0
 40
17.99999999999999
100
AcDbArc
 50
270.0
 51
360.0
  0
LINE
  5
3F
330
38
100
AcDbEntity
  8
$DDT_AUDIT_GENERATED_(3A)
  6
Continuous
 62
     7
 48
25.4
100
AcDbLine
 10
617.4016398355
 20
465.1607353142
 30
0.0
 11
134.4016398355
 21
465.1607353142
 31
0.0
  0
ARC
  5
40
330
38
100
AcDbEntity
  8
$DDT_AUDIT_GENERATED_(3A)
  6
Continuous
 62
     7
 48
25.4
100
AcDbCircle
 10
617.4016398355
 20
447.1607353142
 30
0.0
 40
17.99999999999999
100
AcDbArc
 50
0.0
 51
90.0
  0
LINE
  5
41
330
38
100
AcDbEntity
  8
$DDT_AUDIT_GENERATED_(3A)
  6
Continuous
 62
     7
 48
25.4
100
AcDbLine
 10
116.4016398355
 20
447.1607353142
 30
0.0
 11
116.4016398355
 21
432.6607353142
 31
0.0
  0
ARC
  5
42
330
38
100
AcDbEntity
  8
$DDT_AUDIT_GENERATED_(3A)
  6
Continuous
 62
     7
 48
25.4
100
AcDbCircle
 10
134.4016398355
 20
447.1607353142
 30
0.0
 40
17.99999999999999
100
AcDbArc
 50
90.0
 51
180.0
  0
LINE
  5
43
330
38
100
AcDbEntity
  8
$DDT_AUDIT_GENERATED_(3A)
  6
Continuous
 62
     7
 48
25.4
100
AcDbLine
 10
564.015868252
 20
316.6179138769
 30
0.0
 11
564.015868252
 21
374.6179138769
 31
0.0
  0
LINE
  5
44
330
38
100
AcDbEntity
  8
$DDT_AUDIT_GENERATED_(3A)
  6
Continuous
 62
     7
 48
25.4
100
AcDbLine
 10
488.8166357671
 20
310.1179138769
 30
0.0
 11
477.2948204926
 21
267.1179138769
 31
0.0
  0
LINE
  5
45
330
38
100
AcDbEntity
  8
$DDT_AUDIT_GENERATED_(3A)
  6
Continuous
 62
     7
 48
25.4
100
AcDbLine
 10
477.2948204926
 20
267.1179138769
 30
0.0
 11
512.4942106265
 21
267.1179138769
 31
0.0
  0
LINE
  5
46
330
38
100
AcDbEntity
  8
$DDT_AUDIT_GENERATED_(3A)
  6
Continuous
 62
     7
 48
25.4
100
AcDbLine
 10
512.4942106265
 20
267.1179138769
 30
0.0
 11
524.7647014603
 21
312.9120091024
 31
0.0
  0
LINE
  5
47
330
38
100
AcDbEntity
  8
$DDT_AUDIT_GENERATED_(3A)
  6
Continuous
 62
     7
 48
25.4
100
AcDbLine
 10
595.015868252
 20
374.6179138769
 30
0.0
 11
491.015868252
 21
374.6179138769
 31
0.0
  0
LINE
  5
48
330
38
100
AcDbEntity
  8
$DDT_AUDIT_GENERATED_(3A)
  6
Continuous
 62
     7
 48
25.4
100
AcDbLine
 10
491.015868252
 20
374.6179138769
 30
0.0
 11
497.5806234665
 21
350.1179138769
 31
0.0
  0
LINE
  5
49
330
38
100
AcDbEntity
  8
$DDT_AUDIT_GENERATED_(3A)
  6
Continuous
 62
     7
 48
25.4
100
AcDbLine
 10
497.5806234665
 20
350.1179138769
 30
0.0
 11
355.5016398355
 21
350.1179138769
 31
0.0
  0
LINE
  5
4A
330
38
100
AcDbEntity
  8
$DDT_AUDIT_GENERATED_(3A)
  6
Continuous
 62
     7
 48
25.4
100
AcDbLine
 10
564.015868252
 20
267.1179138769
 30
0.0
 11
564.015868252
 21
316.6179138769
 31
0.0
  0
LINE
  5
4B
330
38
100
AcDbEntity
  8
$DDT_AUDIT_GENERATED_(3A)
  6
Continuous
 62
     7
 48
25.4
100
AcDbLine
 10
595.015868252
 20
267.1179138769
 30
0.0
 11
564.015868252
 21
267.1179138769
 31
0.0
  0
LINE
  5
4C
330
38
100
AcDbEntity
  8
$DDT_AUDIT_GENERATED_(3A)
  6
Continuous
 62
     7
 48
25.4
100
AcDbLine
 10
595.015868252
 20
374.6179138769
 30
0.0
 11
595.015868252
 21
267.1179138769
 31
0.0
  0
LINE
  5
4D
330
38
100
AcDbEntity
  8
$DDT_AUDIT_GENERATED_(3A)
  6
Continuous
 62
     7
 48
25.4
100
AcDbLine
 10
607.015868252
 20
254.8679138769
 30
0.0
 11
595.015868252
 21
267.1179138769
 31
0.0
  0
LINE
  5
4E
330
38
100
AcDbEntity
  8
$DDT_AUDIT_GENERATED_(3A)
  6
Continuous
 62
     7
 48
25.4
100
AcDbLine
 10
595.015868252
 20
374.6179138769
 30
0.0
 11
607.015868252
 21
386.8679138769
 31
0.0
  0
LINE
  5
4F
330
38
100
AcDbEntity
  8
$DDT_AUDIT_GENERATED_(3A)
  6
Continuous
 62
     7
 48
25.4
100
AcDbLine
 10
607.015868252
 20
386.8679138769
 30
0.0
 11
617.015868252
 21
386.8679138769
 31
0.0
  0
LINE
  5
50
330
38
100
AcDbEntity
  8
$DDT_AUDIT_GENERATED_(3A)
  6
Continuous
 62
     7
 48
25.4
100
AcDbLine
 10
617.015868252
 20
386.8679138769
 30
0.0
 11
617.015868252
 21
254.8679138769
 31
0.0
  0
LINE
  5
51
330
38
100
AcDbEntity
  8
$DDT_AUDIT_GENERATED_(3A)
  6
Continuous
 62
     7
 48
25.4
100
AcDbLine
 10
617.015868252
 20
254.8679138769
 30
0.0
 11
607.015868252
 21
254.8679138769
 31
0.0
  0
LINE
  5
52
330
38
100
AcDbEntity
  8
$DDT_AUDIT_GENERATED_(3A)
  6
Continuous
 62
     7
 48
25.4
100
AcDbLine
 10
588.9016398355
 20
183.1607353142
 30
0.0
 11
577.9016398355
 21
193.1607353142
 31
0.0
  0
LINE
  5
53
330
38
100
AcDbEntity
  8
$DDT_AUDIT_GENERATED_(3A)
  6
Continuous
 62
     7
 48
25.4
100
AcDbLine
 10
577.9016398355
 20
193.1607353142
 30
0.0
 11
566.9016398355
 21
193.1607353142
 31
0.0
  0
LINE
  5
54
330
38
100
AcDbEntity
  8
$DDT_AUDIT_GENERATED_(3A)
  6
Continuous
 62
     7
 48
25.4
100
AcDbLine
 10
566.9016398355
 20
193.1607353142
 30
0.0
 11
566.9016398355
 21
198.1607353142
 31
0.0
  0
LINE
  5
55
330
38
100
AcDbEntity
  8
$DDT_AUDIT_GENERATED_(3A)
  6
Continuous
 62
     7
 48
25.4
100
AcDbLine
 10
566.9016398355
 20
198.1607353142
 30
0.0
 11
423.0016398355
 21
198.1607353142
 31
0.0
  0
LINE
  5
56
330
38
100
AcDbEntity
  8
$DDT_AUDIT_GENERATED_(3A)
  6
Continuous
 62
     7
 48
25.4
100
AcDbLine
 10
286.9016398355
 20
198.1607353142
 30
0.0
 11
286.9016398355
 21
202.6607353142
 31
0.0
  0
LINE
  5
57
330
38
100
AcDbEntity
  8
$DDT_AUDIT_GENERATED_(3A)
  6
Continuous
 62
     7
 48
25.4
100
AcDbLine
 10
286.9016398355
 20
202.6607353142
 30
0.0
 11
281.4016398355
 21
202.6607353142
 31
0.0
  0
LINE
  5
58
330
38
100
AcDbEntity
  8
$DDT_AUDIT_GENERATED_(3A)
  6
Continuous
 62
     7
 48
25.4
100
AcDbLine
 10
281.4016398355
 20
202.6607353142
 30
0.0
 11
281.4016398355
 21
233.6607353142
 31
0.0
  0
LINE
  5
59
330
38
100
AcDbEntity
  8
$DDT_AUDIT_GENERATED_(3A)
  6
Continuous
 62
     7
 48
25.4
100
AcDbLine
 10
281.4016398355
 20
233.6607353142
 30
0.0
 11
286.9016398355
 21
233.6607353142
 31
0.0
  0
LINE
  5
5A
330
38
100
AcDbEntity
  8
$DDT_AUDIT_GENERATED_(3A)
  6
Continuous
 62
     7
 48
25.4
100
AcDbLine
 10
286.9016398355
 20
233.6607353142
 30
0.0
 11
286.9016398355
 21
238.1607353142
 31
0.0
  0
LINE
  5
5B
330
38
100
AcDbEntity
  8
$DDT_AUDIT_GENERATED_(3A)
  6
Continuous
 62
     7
 48
25.4
100
AcDbLine
 10
286.9016398355
 20
238.1607353142
 30
0.0
 11
398.0016398355
 21
238.1607353142
 31
0.0
  0
LINE
  5
5C
330
38
100
AcDbEntity
  8
$DDT_AUDIT_GENERATED_(3A)
  6
Continuous
 62
     7
 48
25.4
100
AcDbLine
 10
566.9016398355
 20
238.1607353142
 30
0.0
 11
566.9016398355
 21
243.1607353142
 31
0.0
  0
LINE
  5
5D
330
38
100
AcDbEntity
  8
$DDT_AUDIT_GENERATED_(3A)
  6
Continuous
 62
     7
 48
25.4
100
AcDbLine
 10
566.9016398355
 20
243.1607353142
 30
0.0
 11
577.9016398355
 21
243.1607353142
 31
0.0
  0
LINE
  5
5E
330
38
100
AcDbEntity
  8
$DDT_AUDIT_GENERATED_(3A)
  6
Continuous
 62
     7
 48
25.4
100
AcDbLine
 10
577.9016398355
 20
243.1607353142
 30
0.0
 11
588.9016398355
 21
253.1607353142
 31
0.0
  0
LINE
  5
5F
330
38
100
AcDbEntity
  8
$DDT_AUDIT_GENERATED_(3A)
  6
Continuous
 62
     7
 48
25.4
100
AcDbLine
 10
588.9016398355
 20
253.1607353142
 30
0.0
 11
598.9016398355
 21
253.1607353142
 31
0.0
  0
LINE
  5
60
330
38
100
AcDbEntity
  8
$DDT_AUDIT_GENERATED_(3A)
  6
Continuous
 62
     7
 48
25.4
100
AcDbLine
 10
598.9016398355
 20
253.1607353142
 30
0.0
 11
598.9016398355
 21
183.1607353142
 31
0.0
  0
LINE
  5
61
330
38
100
AcDbEntity
  8
$DDT_AUDIT_GENERATED_(3A)
  6
Continuous
 62
     7
 48
25.4
100
AcDbLine
 10
598.9016398355
 20
183.1607353142
 30
0.0
 11
588.9016398355
 21
183.1607353142
 31
0.0
  0
LINE
  5
62
330
38
100
AcDbEntity
  8
$DDT_AUDIT_GENERATED_(3A)
  6
Continuous
 62
     7
 48
25.4
100
AcDbLine
 10
566.9016398355
 20
238.1607353142
 30
0.0
 11
566.9016398355
 21
198.1607353142
 31
0.0
  0
LINE
  5
63
330
38
100
AcDbEntity
  8
$DDT_AUDIT_GENERATED_(3A)
  6
Continuous
 62
     7
 48
25.4
100
AcDbLine
 10
488.8166357671
 20
310.1179138769
 30
0.0
 11
470.5016398355
 21
310.1179138769
 31
0.0
  0
LINE
  5
64
330
38
100
AcDbEntity
  8
$DDT_AUDIT_GENERATED_(3A)
  6
Continuous
 62
     7
 48
25.4
100
AcDbLine
 10
470.5016398355
 20
310.1179138769
 30
0.0
 11
470.5016398355
 21
345.1179138769
 31
0.0
  0
LINE
  5
65
330
38
100
AcDbEntity
  8
$DDT_AUDIT_GENERATED_(3A)
  6
Continuous
 62
     7
 48
25.4
100
AcDbLine
 10
423.0016398355
 20
238.1607353142
 30
0.0
 11
566.9016398355
 21
238.1607353142
 31
0.0
  0
LINE
  5
66
330
38
100
AcDbEntity
  8
$DDT_AUDIT_GENERATED_(3A)
  6
Continuous
 62
     7
 48
25.4
100
AcDbLine
 10
398.0016398355
 20
198.1607353142
 30
0.0
 11
286.9016398355
 21
198.1607353142
 31
0.0
  0
LINE
  5
67
330
38
100
AcDbEntity
  8
$DDT_AUDIT_GENERATED_(3A)
  6
Continuous
 62
     7
 48
25.4
100
AcDbLine
 10
423.0016398355
 20
250.1607353142
 30
0.0
 11
465.5016398355
 21
250.1607353142
 31
0.0
  0
LINE
  5
68
330
38
100
AcDbEntity
  8
$DDT_AUDIT_GENERATED_(3A)
  6
Continuous
 62
     7
 48
25.4
100
AcDbLine
 10
398.0016398355
 20
238.1607353142
 30
0.0
 11
398.0016398355
 21
250.1607353142
 31
0.0
  0
LINE
  5
69
330
38
100
AcDbEntity
  8
$DDT_AUDIT_GENERATED_(3A)
  6
Continuous
 62
     7
 48
25.4
100
AcDbLine
 10
423.0016398355
 20
250.1607353142
 30
0.0
 11
423.0016398355
 21
238.1607353142
 31
0.0
  0
ARC
  5
6A
330
38
100
AcDbEntity
  8
$DDT_AUDIT_GENERATED_(3A)
  6
Continuous
 62
     7
 48
25.4
100
AcDbCircle
 10
410.5016398355
 20
198.1607353142
 30
0.0
 40
12.5
100
AcDbArc
 50
180.0
 51
360.0
  0
LINE
  5
6B
330
38
100
AcDbEntity
  8
$DDT_AUDIT_GENERATED_(3A)
  6
Continuous
 62
     7
 48
25.4
100
AcDbLine
 10
398.0016398355
 20
250.1607353142
 30
0.0
 11
423.0016398355
 21
250.1607353142
 31
0.0
  0
LINE
  5
6C
330
38
100
AcDbEntity
  8
$DDT_AUDIT_GENERATED_(3A)
  6
Continuous
 62
     7
 48
25.4
100
AcDbLine
 10
635.4016398355
 20
422.1607353142
 30
0.0
 11
635.4016398355
 21
447.1607353142
 31
0.0
  0
LINE
  5
6D
330
38
100
AcDbEntity
  8
$DDT_AUDIT_GENERATED_(3A)
  6
Continuous
 62
     7
 48
25.4
100
AcDbLine
 10
116.4016398355
 20
389.6607353142
 30
0.0
 11
116.4016398355
 21
194.1607353142
 31
0.0
  0
LINE
  5
6E
330
38
100
AcDbEntity
  8
$DDT_AUDIT_GENERATED_(3A)
  6
Continuous
 62
     7
 48
25.4
100
AcDbLine
 10
158.4016398355
 20
432.6607353142
 30
0.0
 11
116.4016398355
 21
432.6607353142
 31
0.0
  0
LINE
  5
6F
330
38
100
AcDbEntity
  8
$DDT_AUDIT_GENERATED_(3A)
  6
Continuous
 62
     7
 48
25.4
100
AcDbLine
 10
116.4016398355
 20
389.6607353142
 30
0.0
 11
158.4016398355
 21
389.6607353142
 31
0.0
  0
LINE
  5
70
330
38
100
AcDbEntity
  8
$DDT_AUDIT_GENERATED_(3A)
  6
Continuous
 62
     7
 48
25.4
100
AcDbLine
 10
442.4016398355
 20
397.1607353142
 30
0.0
 11
555.4016398355
 21
397.1607353142
 31
0.0
  0
LINE
  5
71
330
38
100
AcDbEntity
  8
$DDT_AUDIT_GENERATED_(3A)
  6
Continuous
 62
     7
 48
25.4
100
AcDbLine
 10
555.4016398355
 20
397.1607353142
 30
0.0
 11
555.4016398355
 21
400.1607353142
 31
0.0
  0
LINE
  5
72
330
38
100
AcDbEntity
  8
$DDT_AUDIT_GENERATED_(3A)
  6
Continuous
 62
     7
 48
25.4
100
AcDbLine
 10
555.4016398355
 20
400.1607353142
 30
0.0
 11
635.4016398355
 21
400.1607353142
 31
0.0
  0
LINE
  5
73
330
38
100
AcDbEntity
  8
$DDT_AUDIT_GENERATED_(3A)
  6
Continuous
 62
     7
 48
25.4
100
AcDbLine
 10
635.4016398355
 20
422.1607353142
 30
0.0
 11
555.4016398355
 21
422.1607353142
 31
0.0
  0
LINE
  5
74
330
38
100
AcDbEntity
  8
$DDT_AUDIT_GENERATED_(3A)
  6
Continuous
 62
     7
 48
25.4
100
AcDbLine
 10
555.4016398355
 20
422.1607353142
 30
0.0
 11
555.4016398355
 21
425.1607353142
 31
0.0
  0
LINE
  5
75
330
38
100
AcDbEntity
  8
$DDT_AUDIT_GENERATED_(3A)
  6
Continuous
 62
     7
 48
25.4
100
AcDbLine
 10
555.4016398355
 20
425.1607353142
 30
0.0
 11
509.4016398355
 21
425.1607353142
 31
0.0
  0
LINE
  5
76
330
38
100
AcDbEntity
  8
$DDT_AUDIT_GENERATED_(3A)
  6
Continuous
 62
     7
 48
25.4
100
AcDbLine
 10
158.4016398355
 20
378.1607353142
 30
0.0
 11
158.4016398355
 21
389.6607353142
 31
0.0
  0
LINE
  5
77
330
38
100
AcDbEntity
  8
$DDT_AUDIT_GENERATED_(3A)
  6
Continuous
 62
     7
 48
25.4
100
AcDbLine
 10
158.4016398355
 20
432.6607353142
 30
0.0
 11
158.4016398355
 21
444.1607353142
 31
0.0
  0
ARC
  5
78
330
38
100
AcDbEntity
  8
$DDT_AUDIT_GENERATED_(3A)
  6
Continuous
 62
     7
 48
25.4
100
AcDbCircle
 10
366.4876364713
 20
315.0831491073
 30
0.0
 40
133.7161579313144
100
AcDbArc
 50
63.8584678447
 51
92.6086781989
  0
LINE
  5
79
330
38
100
AcDbEntity
  8
$DDT_AUDIT_GENERATED_(3A)
  6
Continuous
 62
     7
 48
25.4
100
AcDbLine
 10
158.4016398355
 20
444.1607353142
 30
0.0
 11
360.4016398355
 21
442.1607353142
 31
0.0
  0
LINE
  5
7A
330
38
100
AcDbEntity
  8
$DDT_AUDIT_GENERATED_(3A)
  6
Continuous
 62
     7
 48
25.4
100
AcDbLine
 10
360.4016398355
 20
442.1607353142
 30
0.0
 11
360.4016398355
 21
448.6607353142
 31
0.0
  0
ARC
  5
7B
330
38
100
AcDbEntity
  8
$DDT_AUDIT_GENERATED_(3A)
  6
Continuous
 62
     7
 48
25.4
100
AcDbCircle
 10
366.4876364713
 20
507.2383215211
 30
0.0
 40
133.7161579313144
100
AcDbArc
 50
267.3913218011
 51
304.5917337159
  0
LINE
  5
7C
330
38
100
AcDbEntity
  8
$DDT_AUDIT_GENERATED_(3A)
  6
Continuous
 62
     7
 48
25.4
100
AcDbLine
 10
360.4016398355
 20
373.6607353142
 30
0.0
 11
360.4016398355
 21
380.1607353142
 31
0.0
  0
LINE
  5
7D
330
38
100
AcDbEntity
  8
$DDT_AUDIT_GENERATED_(3A)
  6
Continuous
 62
     7
 48
25.4
100
AcDbLine
 10
360.4016398355
 20
380.1607353142
 30
0.0
 11
158.4016398355
 21
378.1607353142
 31
0.0
  0
ARC
  5
7E
330
38
100
AcDbEntity
  8
$DDT_AUDIT_GENERATED_(3A)
  6
Continuous
 62
     7
 48
25.4
100
AcDbCircle
 10
494.9016398355
 20
444.6607353142
 30
0.0
 40
12.50000000000007
100
AcDbArc
 50
0.0
 51
180.0
  0
LINE
  5
7F
330
38
100
AcDbEntity
  8
$DDT_AUDIT_GENERATED_(3A)
  6
Continuous
 62
     7
 48
25.4
100
AcDbLine
 10
482.4016398355
 20
444.6607353142
 30
0.0
 11
482.4016398355
 21
427.1607353142
 31
0.0
  0
ARC
  5
80
330
38
100
AcDbEntity
  8
$DDT_AUDIT_GENERATED_(3A)
  6
Continuous
 62
     7
 48
25.4
100
AcDbCircle
 10
298.5016398355
 20
451.7026964856
 30
0.0
 40
171.5847826086952
100
AcDbArc
 50
273.3396837698
 51
279.3917923905
  0
LINE
  5
81
330
38
100
AcDbEntity
  8
$DDT_AUDIT_GENERATED_(3A)
  6
Continuous
 62
     7
 48
25.4
100
AcDbLine
 10
270.5016398355
 20
282.4179138769
 30
0.0
 11
270.5016398355
 21
298.1179138769
 31
0.0
  0
ARC
  5
82
330
38
100
AcDbEntity
  8
$DDT_AUDIT_GENERATED_(3A)
  6
Continuous
 62
     7
 48
25.4
100
AcDbCircle
 10
273.5016398355
 20
298.1179138769
 30
0.0
 40
3.000000000000003
100
AcDbArc
 50
90.0
 51
180.0
  0
LINE
  5
83
330
38
100
AcDbEntity
  8
$DDT_AUDIT_GENERATED_(3A)
  6
Continuous
 62
     7
 48
25.4
100
AcDbLine
 10
273.5016398355
 20
301.1179138769
 30
0.0
 11
288.5016398355
 21
301.1179138769
 31
0.0
  0
ARC
  5
84
330
38
100
AcDbEntity
  8
$DDT_AUDIT_GENERATED_(3A)
  6
Continuous
 62
     7
 48
25.4
100
AcDbCircle
 10
323.5016398355
 20
298.1179138769
 30
0.0
 40
3.000000000000003
100
AcDbArc
 50
0.0
 51
90.0
  0
LINE
  5
85
330
38
100
AcDbEntity
  8
$DDT_AUDIT_GENERATED_(3A)
  6
Continuous
 62
     7
 48
25.4
100
AcDbLine
 10
326.5016398355
 20
298.1179138769
 30
0.0
 11
326.5016398355
 21
282.4179138769
 31
0.0
  0
LINE
  5
86
330
38
100
AcDbEntity
  8
$DDT_AUDIT_GENERATED_(3A)
  6
Continuous
 62
     7
 48
25.4
100
AcDbLine
 10
246.4016398355
 20
266.1607353142
 30
0.0
 11
246.4016398355
 21
277.1607353142
 31
0.0
  0
LINE
  5
87
330
38
100
AcDbEntity
  8
$DDT_AUDIT_GENERATED_(3A)
  6
Continuous
 62
     7
 48
25.4
100
AcDbLine
 10
166.4016398355
 20
280.1607353142
 30
0.0
 11
143.3854814306
 21
271.8749182885
 31
0.0
  0
LINE
  5
88
330
38
100
AcDbEntity
  8
$DDT_AUDIT_GENERATED_(3A)
  6
Continuous
 62
     7
 48
25.4
100
AcDbLine
 10
182.4016398355
 20
241.1607353142
 30
0.0
 11
195.690169928
 21
241.1607353142
 31
0.0
  0
LINE
  5
89
330
38
100
AcDbEntity
  8
$DDT_AUDIT_GENERATED_(3A)
  6
Continuous
 62
     7
 48
25.4
100
AcDbLine
 10
246.4016398355
 20
241.1607353142
 30
0.0
 11
246.4016398355
 21
246.1607353142
 31
0.0
  0
LINE
  5
8A
330
38
100
AcDbEntity
  8
$DDT_AUDIT_GENERATED_(3A)
  6
Continuous
 62
     7
 48
25.4
100
AcDbLine
 10
246.4016398355
 20
246.1607353142
 30
0.0
 11
256.4016398355
 21
247.6607353142
 31
0.0
  0
LINE
  5
8B
330
38
100
AcDbEntity
  8
$DDT_AUDIT_GENERATED_(3A)
  6
Continuous
 62
     7
 48
25.4
100
AcDbLine
 10
256.4016398355
 20
247.6607353142
 30
0.0
 11
256.4016398355
 21
251.6607353142
 31
0.0
  0
LINE
  5
8C
330
38
100
AcDbEntity
  8
$DDT_AUDIT_GENERATED_(3A)
  6
Continuous
 62
     7
 48
25.4
100
AcDbLine
 10
256.4016398355
 20
251.6607353142
 30
0.0
 11
283.5285870297
 21
251.6607353142
 31
0.0
  0
ARC
  5
8D
330
38
100
AcDbEntity
  8
$DDT_AUDIT_GENERATED_(3A)
  6
Continuous
 62
     7
 48
25.4
100
AcDbCircle
 10
283.5285870297
 20
280.6607353142
 30
0.0
 40
28.99999999999625
100
AcDbArc
 50
270.0
 51
286.3495288874
  0
LINE
  5
8E
330
38
100
AcDbEntity
  8
$DDT_AUDIT_GENERATED_(3A)
  6
Continuous
 62
     7
 48
25.4
100
AcDbLine
 10
291.6919797329
 20
252.8334282298
 30
0.0
 11
337.6866768343
 21
266.3263894267
 31
0.0
  0
ARC
  5
8F
330
38
100
AcDbEntity
  8
$DDT_AUDIT_GENERATED_(3A)
  6
Continuous
 62
     7
 48
25.4
100
AcDbCircle
 10
284.2468502311
 20
275.6607353142
 30
0.0
 40
14.99999999999665
100
AcDbArc
 50
270.0
 51
286.3495288874
  0
LINE
  5
90
330
38
100
AcDbEntity
  8
$DDT_AUDIT_GENERATED_(3A)
  6
Continuous
 62
     7
 48
25.4
100
AcDbLine
 10
284.2468502311
 20
260.6607353142
 30
0.0
 11
256.4016398355
 21
260.6607353142
 31
0.0
  0
LINE
  5
91
330
38
100
AcDbEntity
  8
$DDT_AUDIT_GENERATED_(3A)
  6
Continuous
 62
     7
 48
25.4
100
AcDbLine
 10
256.4016398355
 20
260.6607353142
 30
0.0
 11
256.4016398355
 21
264.6607353142
 31
0.0
  0
LINE
  5
92
330
38
100
AcDbEntity
  8
$DDT_AUDIT_GENERATED_(3A)
  6
Continuous
 62
     7
 48
25.4
100
AcDbLine
 10
256.4016398355
 20
264.6607353142
 30
0.0
 11
246.4016398355
 21
266.1607353142
 31
0.0
  0
LINE
  5
93
330
38
100
AcDbEntity
  8
$DDT_AUDIT_GENERATED_(3A)
  6
Continuous
 62
     7
 48
25.4
100
AcDbLine
 10
141.4016398355
 20
200.1607353142
 30
0.0
 11
182.4016398355
 21
200.1607353142
 31
0.0
  0
LINE
  5
94
330
38
100
AcDbEntity
  8
$DDT_AUDIT_GENERATED_(3A)
  6
Continuous
 62
     7
 48
25.4
100
AcDbLine
 10
182.4016398355
 20
200.1607353142
 30
0.0
 11
182.4016398355
 21
241.1607353142
 31
0.0
  0
ARC
  5
95
330
38
100
AcDbEntity
  8
$DDT_AUDIT_GENERATED_(3A)
  6
Continuous
 62
     7
 48
25.4
100
AcDbCircle
 10
233.4016398355
 20
350.1179138769
 30
0.0
 40
12.5
100
AcDbArc
 50
7.9281417662
 51
172.0718582338
  0
LINE
  5
96
330
38
100
AcDbEntity
  8
$DDT_AUDIT_GENERATED_(3A)
  6
Continuous
 62
     7
 48
25.4
100
AcDbLine
 10
219.0402332191
 20
350.1179138769
 30
0.0
 11
135.4016398355
 21
350.1179138769
 31
0.0
  0
ARC
  5
97
330
38
100
AcDbEntity
  8
$DDT_AUDIT_GENERATED_(3A)
  6
Continuous
 62
     7
 48
25.4
100
AcDbCircle
 10
219.0402332191
 20
352.1179138769
 30
0.0
 40
1.999999999999998
100
AcDbArc
 50
270.0
 51
352.0718582338
  0
LINE
  5
98
330
38
100
AcDbEntity
  8
$DDT_AUDIT_GENERATED_(3A)
  6
Continuous
 62
     7
 48
25.4
100
AcDbLine
 10
450.4016398355
 20
442.1607353142
 30
0.0
 11
427.4016398355
 21
442.1607353142
 31
0.0
  0
ARC
  5
99
330
38
100
AcDbEntity
  8
$DDT_AUDIT_GENERATED_(3A)
  6
Continuous
 62
     7
 48
25.4
100
AcDbCircle
 10
450.4016398355
 20
440.1607353142
 30
0.0
 40
2.000000000000002
100
AcDbArc
 50
0.0
 51
90.0
  0
LINE
  5
9A
330
38
100
AcDbEntity
  8
$DDT_AUDIT_GENERATED_(3A)
  6
Continuous
 62
     7
 48
25.4
100
AcDbLine
 10
425.4016398355
 20
440.1607353142
 30
0.0
 11
425.4016398355
 21
435.1212726328
 31
0.0
  0
ARC
  5
9B
330
38
100
AcDbEntity
  8
$DDT_AUDIT_GENERATED_(3A)
  6
Continuous
 62
     7
 48
25.4
100
AcDbCircle
 10
427.4016398355
 20
440.1607353142
 30
0.0
 40
2.000000000000002
100
AcDbArc
 50
90.0
 51
180.0
  0
LINE
  5
9C
330
38
100
AcDbEntity
  8
$DDT_AUDIT_GENERATED_(3A)
  6
Continuous
 62
     7
 48
25.4
100
AcDbLine
 10
507.4016398355
 20
427.1607353142
 30
0.0
 11
507.4016398355
 21
444.6607353142
 31
0.0
  0
ARC
  5
9D
330
38
100
AcDbEntity
  8
$DDT_AUDIT_GENERATED_(3A)
  6
Continuous
 62
     7
 48
25.4
100
AcDbCircle
 10
509.4016398355
 20
427.1607353142
 30
0.0
 40
2.000000000000002
100
AcDbArc
 50
180.0
 51
270.0
  0
LINE
  5
9E
330
38
100
AcDbEntity
  8
$DDT_AUDIT_GENERATED_(3A)
  6
Continuous
 62
     7
 48
25.4
100
AcDbLine
 10
480.4016398355
 20
425.1607353142
 30
0.0
 11
454.4016398355
 21
425.1607353142
 31
0.0
  0
ARC
  5
9F
330
38
100
AcDbEntity
  8
$DDT_AUDIT_GENERATED_(3A)
  6
Continuous
 62
     7
 48
25.4
100
AcDbCircle
 10
480.4016398355
 20
427.1607353142
 30
0.0
 40
2.000000000000002
100
AcDbArc
 50
270.0
 51
360.0
  0
LINE
  5
A0
330
38
100
AcDbEntity
  8
$DDT_AUDIT_GENERATED_(3A)
  6
Continuous
 62
     7
 48
25.4
100
AcDbLine
 10
452.4016398355
 20
427.1607353142
 30
0.0
 11
452.4016398355
 21
440.1607353142
 31
0.0
  0
ARC
  5
A1
330
38
100
AcDbEntity
  8
$DDT_AUDIT_GENERATED_(3A)
  6
Continuous
 62
     7
 48
25.4
100
AcDbCircle
 10
454.4016398355
 20
427.1607353142
 30
0.0
 40
2.000000000000002
100
AcDbArc
 50
180.0
 51
270.0
  0
ARC
  5
A2
330
38
100
AcDbEntity
  8
$DDT_AUDIT_GENERATED_(3A)
  6
Continuous
 62
     7
 48
25.4
100
AcDbCircle
 10
195.690169928
 20
239.1607353142
 30
0.0
 40
2.000000000000003
100
AcDbArc
 50
7.9281417662
 51
90.0
  0
ARC
  5
A3
330
38
100
AcDbEntity
  8
$DDT_AUDIT_GENERATED_(3A)
  6
Continuous
 62
     7
 48
25.4
100
AcDbCircle
 10
210.0515765443
 20
241.1607353142
 30
0.0
 40
12.50000000000001
100
AcDbArc
 50
187.9281417662
 51
352.0718582338
  0
LINE
  5
A4
330
38
100
AcDbEntity
  8
$DDT_AUDIT_GENERATED_(3A)
  6
Continuous
 62
     7
 48
25.4
100
AcDbLine
 10
224.4129831607
 20
241.1607353142
 30
0.0
 11
246.4016398355
 21
241.1607353142
 31
0.0
  0
ARC
  5
A5
330
38
100
AcDbEntity
  8
$DDT_AUDIT_GENERATED_(3A)
  6
Continuous
 62
     7
 48
25.4
100
AcDbCircle
 10
224.4129831607
 20
239.1607353142
 30
0.0
 40
2.000000000000002
100
AcDbArc
 50
90.0
 51
172.0718582338
  0
ARC
  5
A6
330
38
100
AcDbEntity
  8
$DDT_AUDIT_GENERATED_(3A)
  6
Continuous
 62
     7
 48
25.4
100
AcDbCircle
 10
224.4129831607
 20
282.1607353142
 30
0.0
 40
2.000000000000003
100
AcDbArc
 50
187.9281417662
 51
270.0
  0
ARC
  5
A7
330
38
100
AcDbEntity
  8
$DDT_AUDIT_GENERATED_(3A)
  6
Continuous
 62
     7
 48
25.4
100
AcDbCircle
 10
210.0515765443
 20
280.1607353142
 30
0.0
 40
12.50000000000001
100
AcDbArc
 50
7.9281417662
 51
172.0718582338
  0
LINE
  5
A8
330
38
100
AcDbEntity
  8
$DDT_AUDIT_GENERATED_(3A)
  6
Continuous
 62
     7
 48
25.4
100
AcDbLine
 10
195.690169928
 20
280.1607353142
 30
0.0
 11
166.4016398355
 21
280.1607353142
 31
0.0
  0
ARC
  5
A9
330
38
100
AcDbEntity
  8
$DDT_AUDIT_GENERATED_(3A)
  6
Continuous
 62
     7
 48
25.4
100
AcDbCircle
 10
195.690169928
 20
282.1607353142
 30
0.0
 40
2.000000000000009
100
AcDbArc
 50
270.0
 51
352.0718582338
  0
ARC
  5
AA
330
38
100
AcDbEntity
  8
$DDT_AUDIT_GENERATED_(3A)
  6
Continuous
 62
     7
 48
25.4
100
AcDbCircle
 10
219.0402332191
 20
314.1179138769
 30
0.0
 40
2.000000000000003
100
AcDbArc
 50
7.9281417662
 51
90.0
  0
ARC
  5
AB
330
38
100
AcDbEntity
  8
$DDT_AUDIT_GENERATED_(3A)
  6
Continuous
 62
     7
 48
25.4
100
AcDbCircle
 10
233.4016398355
 20
316.1179138769
 30
0.0
 40
12.5
100
AcDbArc
 50
187.9281417662
 51
352.0718582338
  0
LINE
  5
AC
330
38
100
AcDbEntity
  8
$DDT_AUDIT_GENERATED_(3A)
  6
Continuous
 62
     7
 48
25.4
100
AcDbLine
 10
247.7630464518
 20
316.1179138769
 30
0.0
 11
331.4016398355
 21
316.1179138769
 31
0.0
  0
ARC
  5
AD
330
38
100
AcDbEntity
  8
$DDT_AUDIT_GENERATED_(3A)
  6
Continuous
 62
     7
 48
25.4
100
AcDbCircle
 10
247.7630464518
 20
314.1179138769
 30
0.0
 40
2.0
100
AcDbArc
 50
90.0
 51
172.0718582338
  0
ARC
  5
AE
330
38
100
AcDbEntity
  8
$DDT_AUDIT_GENERATED_(3A)
  6
Continuous
 62
     7
 48
25.4
100
AcDbCircle
 10
247.7630464518
 20
352.1179138769
 30
0.0
 40
2.000000000000003
100
AcDbArc
 50
187.9281417662
 51
270.0
  0
LINE
  5
AF
330
38
100
AcDbEntity
  8
$DDT_AUDIT_GENERATED_(3A)
  6
Continuous
 62
     7
 48
25.4
100
AcDbLine
 10
333.4016398355
 20
318.1179138769
 30
0.0
 11
333.4016398355
 21
348.1179138769
 31
0.0
  0
ARC
  5
B0
330
38
100
AcDbEntity
  8
$DDT_AUDIT_GENERATED_(3A)
  6
Continuous
 62
     7
 48
25.4
100
AcDbCircle
 10
331.4016398355
 20
318.1179138769
 30
0.0
 40
2.000000000000002
100
AcDbArc
 50
270.0
 51
360.0
  0
LINE
  5
B1
330
38
100
AcDbEntity
  8
$DDT_AUDIT_GENERATED_(3A)
  6
Continuous
 62
     7
 48
25.4
100
AcDbLine
 10
135.4016398355
 20
316.1179138769
 30
0.0
 11
219.0402332191
 21
316.1179138769
 31
0.0
  0
ARC
  5
B2
330
38
100
AcDbEntity
  8
$DDT_AUDIT_GENERATED_(3A)
  6
Continuous
 62
     7
 48
25.4
100
AcDbCircle
 10
135.4016398355
 20
318.1179138769
 30
0.0
 40
2.0
100
AcDbArc
 50
180.0
 51
270.0
  0
LINE
  5
B3
330
38
100
AcDbEntity
  8
$DDT_AUDIT_GENERATED_(3A)
  6
Continuous
 62
     7
 48
25.4
100
AcDbLine
 10
133.4016398355
 20
348.1179138769
 30
0.0
 11
133.4016398355
 21
318.1179138769
 31
0.0
  0
ARC
  5
B4
330
38
100
AcDbEntity
  8
$DDT_AUDIT_GENERATED_(3A)
  6
Continuous
 62
     7
 48
25.4
100
AcDbCircle
 10
135.4016398355
 20
348.1179138769
 30
0.0
 40
2.000000000000002
100
AcDbArc
 50
90.0
 51
180.0
  0
LINE
  5
B5
330
38
100
AcDbEntity
  8
$DDT_AUDIT_GENERATED_(3A)
  6
Continuous
 62
     7
 48
25.4
100
AcDbLine
 10
331.4016398355
 20
350.1179138769
 30
0.0
 11
247.7630464518
 21
350.1179138769
 31
0.0
  0
ARC
  5
B6
330
38
100
AcDbEntity
  8
$DDT_AUDIT_GENERATED_(3A)
  6
Continuous
 62
     7
 48
25.4
100
AcDbCircle
 10
331.4016398355
 20
348.1179138769
 30
0.0
 40
1.999999999999998
100
AcDbArc
 50
0.0
 51
90.0
  0
LINE
  5
B7
330
38
100
AcDbEntity
  8
$DDT_AUDIT_GENERATED_(3A)
  6
Continuous
 62
     7
 48
25.4
100
AcDbLine
 10
141.4016398355
 20
269.0522560529
 30
0.0
 11
141.4016398355
 21
200.1607353142
 31
0.0
  0
ARC
  5
B8
330
38
100
AcDbEntity
  8
$DDT_AUDIT_GENERATED_(3A)
  6
Continuous
 62
     7
 48
25.4
100
AcDbCircle
 10
144.4016398355
 20
269.0522560529
 30
0.0
 40
3.000000000000003
100
AcDbArc
 50
109.7988763545
 51
180.0
  0
LINE
  5
B9
330
38
100
AcDbEntity
  8
$DDT_AUDIT_GENERATED_(3A)
  6
Continuous
 62
     7
 48
25.4
100
AcDbLine
 10
243.4016398355
 20
280.1607353142
 30
0.0
 11
224.4129831607
 21
280.1607353142
 31
0.0
  0
ARC
  5
BA
330
38
100
AcDbEntity
  8
$DDT_AUDIT_GENERATED_(3A)
  6
Continuous
 62
     7
 48
25.4
100
AcDbCircle
 10
243.4016398355
 20
277.1607353142
 30
0.0
 40
3.000000000000003
100
AcDbArc
 50
0.0
 51
90.0
  0
LINE
  5
BB
330
38
100
AcDbEntity
  8
$DDT_AUDIT_GENERATED_(3A)
  6
Continuous
 62
     7
 48
25.4
100
AcDbLine
 10
350.5016398355
 20
345.1179138769
 30
0.0
 11
350.5016398355
 21
286.9528786044
 31
0.0
  0
ARC
  5
BC
330
38
100
AcDbEntity
  8
$DDT_AUDIT_GENERATED_(3A)
  6
Continuous
 62
     7
 48
25.4
100
AcDbCircle
 10
355.5016398355
 20
345.1179138769
 30
0.0
 40
5.000000000000001
100
AcDbArc
 50
90.0
 51
180.0
  0
LINE
  5
BD
330
38
100
AcDbEntity
  8
$DDT_AUDIT_GENERATED_(3A)
  6
Continuous
 62
     7
 48
25.4
100
AcDbLine
 10
529.5943305918
 20
316.6179138769
 30
0.0
 11
564.015868252
 21
316.6179138769
 31
0.0
  0
ARC
  5
BE
330
38
100
AcDbEntity
  8
$DDT_AUDIT_GENERATED_(3A)
  6
Continuous
 62
     7
 48
25.4
100
AcDbCircle
 10
529.5943305918
 20
311.6179138769
 30
0.0
 40
5.000000000000001
100
AcDbArc
 50
90.0
 51
165.0
  0
ARC
  5
BF
330
38
100
AcDbEntity
  8
$DDT_AUDIT_GENERATED_(3A)
  6
Continuous
 62
     7
 48
25.4
100
AcDbCircle
 10
465.5016398355
 20
345.1179138769
 30
0.0
 40
5.000000000000001
100
AcDbArc
 50
0.0
 51
90.0
  0
LINE
  5
C0
330
38
100
AcDbEntity
  8
$DDT_AUDIT_GENERATED_(3A)
  6
Continuous
 62
     7
 48
25.4
100
AcDbLine
 10
470.5016398355
 20
255.1607353142
 30
0.0
 11
470.5016398355
 21
310.1179138769
 31
0.0
  0
ARC
  5
C1
330
38
100
AcDbEntity
  8
$DDT_AUDIT_GENERATED_(3A)
  6
Continuous
 62
     7
 48
25.4
100
AcDbCircle
 10
465.5016398355
 20
255.1607353142
 30
0.0
 40
5.000000000000004
100
AcDbArc
 50
270.0
 51
360.0
  0
LINE
  5
C2
330
38
100
AcDbEntity
  8
$DDT_AUDIT_GENERATED_(3A)
  6
Continuous
 62
     7
 48
25.4
100
AcDbLine
 10
355.5016398355
 20
250.1607353142
 30
0.0
 11
398.0016398355
 21
250.1607353142
 31
0.0
  0
ARC
  5
C3
330
38
100
AcDbEntity
  8
$DDT_AUDIT_GENERATED_(3A)
  6
Continuous
 62
     7
 48
25.4
100
AcDbCircle
 10
355.5016398355
 20
255.1607353142
 30
0.0
 40
5.000000000000004
100
AcDbArc
 50
180.0
 51
270.0
  0
LINE
  5
C4
330
38
100
AcDbEntity
  8
$DDT_AUDIT_GENERATED_(3A)
  6
Continuous
 62
     7
 48
25.4
100
AcDbLine
 10
350.5016398355
 20
256.7307662941
 30
0.0
 11
350.5016398355
 21
286.9528786044
 31
0.0
  0
LINE
  5
C5
330
38
100
AcDbEntity
  8
$DDT_AUDIT_GENERATED_(3A)
  6
Continuous
 62
     7
 48
25.4
100
AcDbLine
 10
256.4016398355
 20
260.6607353142
 30
0.0
 11
256.4016398355
 21
251.6607353142
 31
0.0
  0
LINE
  5
C6
330
38
100
AcDbEntity
  8
$DDT_AUDIT_GENERATED_(3A)
  6
Continuous
 62
     7
 48
25.4
100
AcDbLine
 10
343.3166028366
 20
277.3572554719
 30
0.0
 11
288.4692947328
 21
261.2673006154
 31
0.0
  0
ARC
  5
C7
330
38
100
AcDbEntity
  8
$DDT_AUDIT_GENERATED_(3A)
  6
Continuous
 62
     7
 48
25.4
100
AcDbCircle
 10
340.5016398355
 20
286.9528786044
 30
0.0
 40
9.999999999999996
100
AcDbArc
 50
286.3495288874
 51
360.0
  0
LINE
  5
C8
330
38
100
AcDbEntity
  8
$DDT_AUDIT_GENERATED_(3A)
  6
Continuous
 62
     7
 48
25.4
100
AcDbLine
 10
350.5016398355
 20
256.7307662941
 30
0.0
 11
350.5016398355
 21
255.1607353142
 31
0.0
  0
ARC
  5
C9
330
38
100
AcDbEntity
  8
$DDT_AUDIT_GENERATED_(3A)
  6
Continuous
 62
     7
 48
25.4
100
AcDbCircle
 10
340.5016398355
 20
256.7307662941
 30
0.0
 40
10.0
100
AcDbArc
 50
0.0
 51
106.3495288874
  0
ARC
  5
CA
330
38
100
AcDbEntity
  8
$DDT_AUDIT_GENERATED_(3A)
  6
Continuous
 62
     7
 48
25.4
100
AcDbCircle
 10
298.5016398355
 20
451.7026964856
 30
0.0
 40
171.5847826086952
100
AcDbArc
 50
260.6082076095
 51
266.6603162302
  0
ARC
  5
CB
330
38
100
AcDbEntity
  8
$DDT_AUDIT_GENERATED_(3A)
  6
Continuous
 62
     7
 48
25.4
100
AcDbCircle
 10
298.5016398355
 20
280.1179138769
 30
0.0
 40
10.0
100
AcDbArc
 50
178.3301581151
 51
1.6698418849
  0
LINE
  5
CC
330
38
100
AcDbEntity
  8
$DDT_AUDIT_GENERATED_(3A)
  6
Continuous
 62
     7
 48
25.4
100
AcDbLine
 10
308.5016398355
 20
301.1179138769
 30
0.0
 11
323.5016398355
 21
301.1179138769
 31
0.0
  0
ARC
  5
CD
330
38
100
AcDbEntity
  8
$DDT_AUDIT_GENERATED_(3A)
  6
Continuous
 62
     7
 48
25.4
100
AcDbCircle
 10
298.5016398355
 20
301.1179138769
 30
0.0
 40
9.999999999999995
100
AcDbArc
 50
0.0
 51
180.0
  0
ENDBLK
  5
CF
330
38
100
AcDbEntity
  8
0
100
AcDbBlockEnd
  0
BLOCK
  5
EC
330
D0
100
AcDbEntity
  8
0
100
AcDbBlockBegin
  2
SE1
 70
     0
 71
     0
 10
0.0
 20
0.0
 30
0.0
  3
SE1
  1

  0
LINE
  5
D2
330
D0
100
AcDbEntity
  8
$DDT_AUDIT_GENERATED_(3A)
  6
Continuous
 62
     7
 48
25.4
100
AcDbLine
 10
771.9078450624
 20
176.1607353142
 30
0.0
 11
706.9078450624
 21
176.1607353142
 31
0.0
  0
LINE
  5
D3
330
D0
100
AcDbEntity
  8
$DDT_AUDIT_GENERATED_(3A)
  6
Continuous
 62
     7
 48
25.4
100
AcDbLine
 10
706.9078450624
 20
176.1607353142
 30
0.0
 11
706.9078450624
 21
194.1607353142
 31
0.0
  0
LINE
  5
D4
330
D0
100
AcDbEntity
  8
$DDT_AUDIT_GENERATED_(3A)
  6
Continuous
 62
     7
 48
25.4
100
AcDbLine
 10
771.9078450624
 20
194.1607353142
 30
0.0
 11
771.9078450624
 21
176.1607353142
 31
0.0
  0
LINE
  5
D5
330
D0
100
AcDbEntity
  8
$DDT_AUDIT_GENERATED_(3A)
  6
Continuous
 62
     7
 48
25.4
100
AcDbLine
 10
706.9078450624
 20
447.1607353142
 30
0.0
 11
706.9078450624
 21
432.6607353142
 31
0.0
  0
LINE
  5
D6
330
D0
100
AcDbEntity
  8
$DDT_AUDIT_GENERATED_(3A)
  6
Continuous
 62
     7
 48
25.4
100
AcDbLine
 10
771.9078450624
 20
447.1607353142
 30
0.0
 11
771.9078450624
 21
432.6607353142
 31
0.0
  0
LINE
  5
D7
330
D0
100
AcDbEntity
  8
$DDT_AUDIT_GENERATED_(3A)
  6
Continuous
 62
     7
 48
25.4
100
AcDbLine
 10
706.9078450624
 20
447.1607353142
 30
0.0
 11
706.9078450624
 21
465.1607353142
 31
0.0
  0
LINE
  5
D8
330
D0
100
AcDbEntity
  8
$DDT_AUDIT_GENERATED_(3A)
  6
Continuous
 62
     7
 48
25.4
100
AcDbLine
 10
706.9078450624
 20
465.1607353142
 30
0.0
 11
771.9078450624
 21
465.1607353142
 31
0.0
  0
LINE
  5
D9
330
D0
100
AcDbEntity
  8
$DDT_AUDIT_GENERATED_(3A)
  6
Continuous
 62
     7
 48
25.4
100
AcDbLine
 10
771.9078450624
 20
465.1607353142
 30
0.0
 11
771.9078450624
 21
447.1607353142
 31
0.0
  0
LINE
  5
DA
330
D0
100
AcDbEntity
  8
$DDT_AUDIT_GENERATED_(3A)
  6
Continuous
 62
     7
 48
25.4
100
AcDbLine
 10
771.9078450624
 20
389.6607353142
 30
0.0
 11
771.9078450624
 21
194.1607353142
 31
0.0
  0
LINE
  5
DB
330
D0
100
AcDbEntity
  8
$DDT_AUDIT_GENERATED_(3A)
  6
Continuous
 62
     7
 48
25.4
100
AcDbLine
 10
706.9078450624
 20
389.6607353142
 30
0.0
 11
706.9078450624
 21
194.1607353142
 31
0.0
  0
LINE
  5
DC
330
D0
100
AcDbEntity
  8
$DDT_AUDIT_GENERATED_(3A)
  6
Continuous
 62
     7
 48
25.4
100
AcDbLine
 10
706.9078450624
 20
432.6607353142
 30
0.0
 11
771.9078450624
 21
432.6607353142
 31
0.0
  0
LINE
  5
DD
330
D0
100
AcDbEntity
  8
$DDT_AUDIT_GENERATED_(3A)
  6
Continuous
 62
     7
 48
25.4
100
AcDbLine
 10
706.9078450624
 20
389.6607353142
 30
0.0
 11
771.9078450624
 21
389.6607353142
 31
0.0
  0
LINE
  5
DE
330
D0
100
AcDbEntity
  8
$DDT_AUDIT_GENERATED_(3A)
  6
Continuous
 62
     7
 48
25.4
100
AcDbLine
 10
706.9078450624
 20
397.1607353142
 30
0.0
 11
706.9078450624
 21
400.1607353142
 31
0.0
  0
LINE
  5
DF
330
D0
100
AcDbEntity
  8
$DDT_AUDIT_GENERATED_(3A)
  6
Continuous
 62
     7
 48
25.4
100
AcDbLine
 10
706.9078450624
 20
400.1607353142
 30
0.0
 11
771.9078450624
 21
400.1607353142
 31
0.0
  0
LINE
  5
E0
330
D0
100
AcDbEntity
  8
$DDT_AUDIT_GENERATED_(3A)
  6
Continuous
 62
     7
 48
25.4
100
AcDbLine
 10
706.9078450624
 20
422.1607353142
 30
0.0
 11
771.9078450624
 21
422.1607353142
 31
0.0
  0
LINE
  5
E1
330
D0
100
AcDbEntity
  8
$DDT_AUDIT_GENERATED_(3A)
  6
Continuous
 62
     7
 48
25.4
100
AcDbLine
 10
706.9078450624
 20
422.1607353142
 30
0.0
 11
706.9078450624
 21
425.1607353142
 31
0.0
  0
LINE
  5
E2
330
D0
100
AcDbEntity
  8
$DDT_AUDIT_GENERATED_(3A)
  6
Continuous
 62
     7
 48
25.4
100
AcDbLine
 10
771.9078450624
 20
397.1607353142
 30
0.0
 11
771.9078450624
 21
400.1607353142
 31
0.0
  0
LINE
  5
E3
330
D0
100
AcDbEntity
  8
$DDT_AUDIT_GENERATED_(3A)
  6
Continuous
 62
     7
 48
25.4
100
AcDbLine
 10
771.9078450624
 20
422.1607353142
 30
0.0
 11
771.9078450624
 21
425.1607353142
 31
0.0
  0
LINE
  5
E4
330
D0
100
AcDbEntity
  8
$DDT_AUDIT_GENERATED_(3A)
  6
Continuous
 62
     7
 48
25.4
100
AcDbLine
 10
706.9078450624
 20
397.1607353142
 30
0.0
 11
706.9078450624
 21
389.6607353142
 31
0.0
  0
LINE
  5
E5
330
D0
100
AcDbEntity
  8
$DDT_AUDIT_GENERATED_(3A)
  6
Continuous
 62
     7
 48
25.4
100
AcDbLine
 10
771.9078450624
 20
397.1607353142
 30
0.0
 11
771.9078450624
 21
389.6607353142
 31
0.0
  0
LINE
  5
E6
330
D0
100
AcDbEntity
  8
$DDT_AUDIT_GENERATED_(3A)
  6
Continuous
 62
     7
 48
25.4
100
AcDbLine
 10
706.9078450624
 20
397.1607353142
 30
0.0
 11
771.9078450624
 21
397.1607353142
 31
0.0
  0
LINE
  5
E7
330
D0
100
AcDbEntity
  8
$DDT_AUDIT_GENERATED_(3A)
  6
Continuous
 62
     7
 48
25.4
100
AcDbLine
 10
771.9078450624
 20
427.1607353142
 30
0.0
 11
771.9078450624
 21
432.6607353142
 31
0.0
  0
LINE
  5
E8
330
D0
100
AcDbEntity
  8
$DDT_AUDIT_GENERATED_(3A)
  6
Continuous
 62
     7
 48
25.4
100
AcDbLine
 10
706.9078450624
 20
427.1607353142
 30
0.0
 11
706.9078450624
 21
432.6607353142
 31
0.0
  0
LINE
  5
E9
330
D0
100
AcDbEntity
  8
$DDT_AUDIT_GENERATED_(3A)
  6
Continuous
 62
     7
 48
25.4
100
AcDbLine
 10
771.9078450624
 20
427.1607353142
 30
0.0
 11
771.9078450624
 21
425.1607353142
 31
0.0
  0
LINE
  5
EA
330
D0
100
AcDbEntity
  8
$DDT_AUDIT_GENERATED_(3A)
  6
Continuous
 62
     7
 48
25.4
100
AcDbLine
 10
771.9078450624
 20
425.1607353142
 30
0.0
 11
706.9078450624
 21
425.1607353142
 31
0.0
  0
LINE
  5
EB
330
D0
100
AcDbEntity
  8
$DDT_AUDIT_GENERATED_(3A)
  6
Continuous
 62
     7
 48
25.4
100
AcDbLine
 10
706.9078450624
 20
425.1607353142
 30
0.0
 11
706.9078450624
 21
427.1607353142
 31
0.0
  0
ENDBLK
  5
ED
330
D0
100
AcDbEntity
  8
0
100
AcDbBlockEnd
  0
BLOCK
  5
F1
330
EE
100
AcDbEntity
  8
0
100
AcDbBlockBegin
  2
_SE_FILLED
 70
     0
 71
     0
 10
0.0
 20
0.0
 30
0.0
  3
_SE_FILLED
  1

  0
SOLID
  5
EF
330
EE
100
AcDbEntity
  8
0
100
AcDbTrace
 10
0.0
 20
0.0
 30
0.0
 11
-1.0
 21
-0.1665
 31
0.0
 12
-1.0
 22
0.1665
 32
0.0
 13
0.0
 23
0.0
 33
0.0
  0
LINE
  5
F0
330
EE
100
AcDbEntity
  8
0
100
AcDbLine
 10
0.0
 20
0.0
 30
0.0
 11
-1.0
 21
0.0
 31
0.0
  0
ENDBLK
  5
F2
330
EE
100
AcDbEntity
  8
0
100
AcDbBlockEnd
  0
BLOCK
  5
FE
330
F5
100
AcDbEntity
  8
0
100
AcDbBlockBegin
  2
DMBLK1
 70
     0
 71
     0
 10
0.0
 20
0.0
 30
0.0
  3
DMBLK1
  1

  0
HATCH
  5
F6
330
F5
100
AcDbEntity
  8
Default
  6
Continuous
 62
     7
 48
25.4
100
AcDbHatch
 10
0.0
 20
0.0
 30
0.0
210
0.0
220
0.0
230
1.0
  2
SOLID
 70
     1
 71
     0
 91
        1
 92
        1
 93
        3
 72
     1
 10
711.9078449505914
 20
524.9175105456451
 11
706.9078450623501
 21
524.0841772309382
 72
     1
 10
706.9078450623501
 20
524.0841772309382
 11
711.9078449505914
 21
523.2508439162312
 72
     1
 10
711.9078449505914
 20
523.2508439162312
 11
711.9078449505914
 21
524.9175105456451
 97
        0
 75
     0
 76
     1
 98
        0
  0
LWPOLYLINE
  5
F7
330
F5
100
AcDbEntity
  8
Default
  6
Continuous
 62
     7
 48
25.4
370
    20
100
AcDbPolyline
 90
        4
 70
     1
 43
0.00025
 10
711.9078449506
 20
524.9175105456
 10
706.9078450624
 20
524.0841772309
 10
711.9078449506
 20
523.2508439162
 10
711.9078449506
 20
524.9175105456
  0
HATCH
  5
F8
330
F5
100
AcDbEntity
  8
Default
  6
Continuous
 62
     7
 48
25.4
100
AcDbHatch
 10
0.0
 20
0.0
 30
0.0
210
0.0
220
0.0
230
1.0
  2
SOLID
 70
     1
 71
     0
 91
        1
 92
        1
 93
        3
 72
     1
 10
766.907842789923
 20
524.9175105456451
 11
766.907842789923
 21
523.2508439162312
 72
     1
 10
766.907842789923
 20
523.2508439162312
 11
771.9078426781643
 21
524.0841772309382
 72
     1
 10
771.9078426781643
 20
524.0841772309382
 11
766.907842789923
 21
524.9175105456451
 97
        0
 75
     0
 76
     1
 98
        0
  0
LWPOLYLINE
  5
F9
330
F5
100
AcDbEntity
  8
Default
  6
Continuous
 62
     7
 48
25.4
370
    20
100
AcDbPolyline
 90
        4
 70
     1
 43
0.00025
 10
766.9078427899
 20
524.9175105456
 10
771.9078426782
 20
524.0841772309
 10
766.9078427899
 20
523.2508439162
 10
766.9078427899
 20
524.9175105456
  0
LINE
  5
FA
330
F5
100
AcDbEntity
  8
Default
  6
Continuous
 62
     7
 48
25.4
100
AcDbLine
 10
706.9078450624
 20
466.6607353273
 30
0.0
 11
706.9078450624
 21
525.584177244
 31
0.0
  0
LINE
  5
FB
330
F5
100
AcDbEntity
  8
Default
  6
Continuous
 62
     7
 48
25.4
100
AcDbLine
 10
771.9078450624
 20
466.6607353273
 30
0.0
 11
771.9078450624
 21
525.584177244
 31
0.0
  0
LINE
  5
FC
330
F5
100
AcDbEntity
  8
Default
  6
Continuous
 62
     7
 48
25.4
100
AcDbLine
 10
706.9078450624
 20
524.0841772309
 30
0.0
 11
771.9078426782
 21
524.0841772309
 31
0.0
  0
TEXT
  5
FD
330
F5
100
AcDbEntity
  8
Default
  6
Continuous
 62
     7
 48
25.4
100
AcDbText
 10
736.4532984157
 20
525.3341772309
 30
0.0
 40
5.0
  1
65
  7
SEACAD_seiso_ttfB
 11
736.4532984157
 21
530.3341772309
 31
0.0
100
AcDbText
 73
     3
  0
ENDBLK
  5
FF
330
F5
100
AcDbEntity
  8
0
100
AcDbBlockEnd
  0
BLOCK
  5
10A
330
101
100
AcDbEntity
  8
0
100
AcDbBlockBegin
  2
DMBLK2
 70
     0
 71
     0
 10
0.0
 20
0.0
 30
0.0
  3
DMBLK2
  1

  0
HATCH
  5
102
330
101
100
AcDbEntity
  8
Default
  6
Continuous
 62
     7
 48
25.4
100
AcDbHatch
 10
0.0
 20
0.0
 30
0.0
210
0.0
220
0.0
230
1.0
  2
SOLID
 70
     1
 71
     0
 91
        1
 92
        1
 93
        3
 72
     1
 10
121.4016397237004
 20
525.7652554575542
 11
116.4016398354592
 21
524.9319221428473
 72
     1
 10
116.4016398354592
 20
524.9319221428473
 11
121.4016397237004
 21
524.0985888281404
 72
     1
 10
121.4016397237004
 20
524.0985888281404
 11
121.4016397237004
 21
525.7652554575542
 97
        0
 75
     0
 76
     1
 98
        0
  0
LWPOLYLINE
  5
103
330
101
100
AcDbEntity
  8
Default
  6
Continuous
 62
     7
 48
25.4
370
    20
100
AcDbPolyline
 90
        4
 70
     1
 43
0.00025
 10
121.4016397237
 20
525.7652554576
 10
116.4016398355
 20
524.9319221428
 10
121.4016397237
 20
524.0985888281
 10
121.4016397237
 20
525.7652554576
  0
HATCH
  5
104
330
101
100
AcDbEntity
  8
Default
  6
Continuous
 62
     7
 48
25.4
100
AcDbHatch
 10
0.0
 20
0.0
 30
0.0
210
0.0
220
0.0
230
1.0
  2
SOLID
 70
     1
 71
     0
 91
        1
 92
        1
 93
        3
 72
     1
 10
630.4016337483348
 20
525.7652554575542
 11
630.4016337483348
 21
524.0985888281404
 72
     1
 10
630.4016337483348
 20
524.0985888281404
 11
635.4016336365761
 21
524.9319221428473
 72
     1
 10
635.4016336365761
 20
524.9319221428473
 11
630.4016337483348
 21
525.7652554575542
 97
        0
 75
     0
 76
     1
 98
        0
  0
LWPOLYLINE
  5
105
330
101
100
AcDbEntity
  8
Default
  6
Continuous
 62
     7
 48
25.4
370
    20
100
AcDbPolyline
 90
        4
 70
     1
 43
0.00025
 10
630.4016337483
 20
525.7652554576
 10
635.4016336366
 20
524.9319221428
 10
630.4016337483
 20
524.0985888281
 10
630.4016337483
 20
525.7652554576
  0
LINE
  5
106
330
101
100
AcDbEntity
  8
Default
  6
Continuous
 62
     7
 48
25.4
100
AcDbLine
 10
116.4016398355
 20
448.6607353273
 30
0.0
 11
116.4016398355
 21
526.4319221559
 31
0.0
  0
LINE
  5
107
330
101
100
AcDbEntity
  8
Default
  6
Continuous
 62
     7
 48
25.4
100
AcDbLine
 10
635.4016398355
 20
448.6607353273
 30
0.0
 11
635.4016398355
 21
526.4319221559
 31
0.0
  0
LINE
  5
108
330
101
100
AcDbEntity
  8
Default
  6
Continuous
 62
     7
 48
25.4
100
AcDbLine
 10
116.4016398355
 20
524.9319221428
 30
0.0
 11
635.4016336366
 21
524.9319221428
 31
0.0
  0
TEXT
  5
109
330
101
100
AcDbEntity
  8
Default
  6
Continuous
 62
     7
 48
25.4
100
AcDbText
 10
371.9243640087
 20
526.1819221428
 30
0.0
 40
5.0
  1
519
  7
SEACAD_seiso_ttfB
 11
371.9243640087
 21
531.1819221428
 31
0.0
100
AcDbText
 73
     3
  0
ENDBLK
  5
10B
330
101
100
AcDbEntity
  8
0
100
AcDbBlockEnd
  0
BLOCK
  5
116
330
10D
100
AcDbEntity
  8
0
100
AcDbBlockBegin
  2
DMBLK3
 70
     0
 71
     0
 10
0.0
 20
0.0
 30
0.0
  3
DMBLK3
  1

  0
HATCH
  5
10E
330
10D
100
AcDbEntity
  8
Default
  6
Continuous
 62
     7
 48
25.4
100
AcDbHatch
 10
0.0
 20
0.0
 30
0.0
210
0.0
220
0.0
230
1.0
  2
SOLID
 70
     1
 71
     0
 91
        1
 92
        1
 93
        3
 72
     1
 10
69.46574623899875
 20
460.1607354259927
 11
71.1324128684125
 21
460.1607354259927
 72
     1
 10
71.1324128684125
 20
460.1607354259927
 11
70.29907955370562
 21
465.160735314234
 72
     1
 10
70.29907955370562
 20
465.160735314234
 11
69.46574623899875
 21
460.1607354259927
 97
        0
 75
     0
 76
     1
 98
        0
  0
LWPOLYLINE
  5
10F
330
10D
100
AcDbEntity
  8
Default
  6
Continuous
 62
     7
 48
25.4
370
    20
100
AcDbPolyline
 90
        4
 70
     1
 43
0.00025
 10
69.465746239
 20
460.160735426
 10
70.2990795537
 20
465.1607353142
 10
71.1324128684
 20
460.160735426
 10
69.465746239
 20
460.160735426
  0
HATCH
  5
110
330
10D
100
AcDbEntity
  8
Default
  6
Continuous
 62
     7
 48
25.4
100
AcDbHatch
 10
0.0
 20
0.0
 30
0.0
210
0.0
220
0.0
230
1.0
  2
SOLID
 70
     1
 71
     0
 91
        1
 92
        1
 93
        3
 72
     1
 10
69.46574623899875
 20
181.1607306725222
 11
70.29907955370562
 21
176.160730784281
 72
     1
 10
70.29907955370562
 20
176.160730784281
 11
71.1324128684125
 21
181.1607306725222
 72
     1
 10
71.1324128684125
 20
181.1607306725222
 11
69.46574623899875
 21
181.1607306725222
 97
        0
 75
     0
 76
     1
 98
        0
  0
LWPOLYLINE
  5
111
330
10D
100
AcDbEntity
  8
Default
  6
Continuous
 62
     7
 48
25.4
370
    20
100
AcDbPolyline
 90
        4
 70
     1
 43
0.00025
 10
69.465746239
 20
181.1607306725
 10
70.2990795537
 20
176.1607307843
 10
71.1324128684
 20
181.1607306725
 10
69.465746239
 20
181.1607306725
  0
LINE
  5
112
330
10D
100
AcDbEntity
  8
Default
  6
Continuous
 62
     7
 48
25.4
100
AcDbLine
 10
132.9016398224
 20
465.1607353142
 30
0.0
 11
68.7990795407
 21
465.1607353142
 31
0.0
  0
LINE
  5
113
330
10D
100
AcDbEntity
  8
Default
  6
Continuous
 62
     7
 48
25.4
100
AcDbLine
 10
132.9016398224
 20
176.1607353142
 30
0.0
 11
68.7990795407
 21
176.1607353142
 31
0.0
  0
LINE
  5
114
330
10D
100
AcDbEntity
  8
Default
  6
Continuous
 62
     7
 48
25.4
100
AcDbLine
 10
70.2990795537
 20
465.1607353142
 30
0.0
 11
70.2990795537
 21
176.1607307843
 31
0.0
  0
TEXT
  5
115
330
10D
100
AcDbEntity
  8
Default
  6
Continuous
 62
     7
 48
25.4
100
AcDbText
 10
69.0490795537
 20
316.0016421402
 30
0.0
 40
5.0
  1
289
 50
90.0
  7
SEACAD_seiso_ttfB
 11
64.0490795537
 21
316.0016421402
 31
0.0
100
AcDbText
 73
     3
  0
ENDBLK
  5
117
330
10D
100
AcDbEntity
  8
0
100
AcDbBlockEnd
  0
ENDSEC
  0
SECTION
  2
ENTITIES
  0
TEXT
  5
2B
330
1F
100
AcDbEntity
  8
Default
  6
Continuous
 62
     7
 48
25.4
100
AcDbText
 10
706.760665953
 20
62.598946987
 30
0.0
 40
3.5
  1
PE skum LD 29,  sort
  7
SEACAD_seiso_ttfB
 11
706.760665953
 21
66.098946987
 31
0.0
100
AcDbText
 73
     3
  0
TEXT
  5
2E
330
1F
100
AcDbEntity
  8
Default
  6
Continuous
 62
     7
 48
25.4
100
AcDbText
 10
712.9057420093
 20
43.8233438222
 30
0.0
 40
3.3513888889
  1

  7
SEACAD_seiso_ttf
 11
712.9057420093
 21
47.1747327111
 31
0.0
100
AcDbText
 73
     3
  0
TEXT
  5
2F
330
1F
100
AcDbEntity
  8
Default
  6
Continuous
 62
     7
 48
25.4
100
AcDbText
 10
714.9622761002
 20
43.8233438222
 30
0.0
 40
3.5
  1
0.2  
  7
SEACAD_seiso_ttfB
 11
714.9622761002
 21
47.3233438222
 31
0.0
100
AcDbText
 73
     3
  0
TEXT
  5
31
330
1F
100
AcDbEntity
  8
Default
  6
Continuous
 62
     7
 48
25.4
100
AcDbText
 10
722.519094282
 20
43.8233438222
 30
0.0
 40
3.3513888889
  1
 
  7
SEACAD_arial_ttfB
 11
722.519094282
 21
47.1747327111
 31
0.0
100
AcDbText
 73
     3
  0
TEXT
  5
32
330
1F
100
AcDbEntity
  8
Default
  6
Continuous
 62
     7
 48
25.4
100
AcDbText
 10
727.5793596835
 20
43.8233438222
 30
0.0
 40
3.3513888889
  1
 1
  7
SEACAD_seiso_ttfB
 11
727.5793596835
 21
47.1747327111
 31
0.0
100
AcDbText
 73
     3
  0
TEXT
  5
33
330
1F
100
AcDbEntity
  8
Default
  6
Continuous
 62
     7
 48
25.4
100
AcDbText
 10
707.403748489
 20
32.6326575727
 30
0.0
 40
2.0
  1
IIv
  7
SEACAD_seiso_ttfB
 11
707.403748489
 21
34.6326575727
 31
0.0
100
AcDbText
 73
     3
  0
TEXT
  5
34
330
1F
100
AcDbEntity
  8
Default
  6
Continuous
 62
     7
 48
25.4
100
AcDbText
 10
724.2132020847
 20
32.6326575727
 30
0.0
 40
2.0
  1
07-07-31
  7
SEACAD_seiso_ttfB
 11
724.2132020847
 21
34.6326575727
 31
0.0
100
AcDbText
 73
     3
  0
TEXT
  5
35
330
1F
100
AcDbEntity
  8
Default
  6
Continuous
 62
     7
 48
25.4
100
AcDbText
 10
789.8099716416
 20
28.1700807465
 30
0.0
 40
3.5
  1
1:1
  7
SEACAD_seiso_ttfB
 11
789.8099716416
 21
31.6700807465
 31
0.0
100
AcDbText
 73
     3
  0
TEXT
  5
36
330
1F
100
AcDbEntity
  8
Default
  6
Continuous
 62
     7
 48
25.4
100
AcDbText
 10
709.4514721054
 20
15.1155651955
 30
0.0
 40
5.0
  1
Skum-1, dk 2500
  7
SEACAD_seiso_ttfB
 11
709.4514721054
 21
20.1155651955
 31
0.0
100
AcDbText
 73
     3
  0
TEXT
  5
37
330
1F
100
AcDbEntity
  8
Default
  6
Continuous
 62
     7
 48
25.4
100
AcDbText
 10
766.837496062
 20
14.973112199
 30
0.0
 40
5.0
  1
H
  7
SEACAD_seiso_ttfB
 11
766.837496062
 21
19.973112199
 31
0.0
100
AcDbText
 73
     3
  0
INSERT
  5
39
330
1F
100
AcDbEntity
  8
Default
100
AcDbBlockReference
  2
SE
 10
0.0
 20
0.0
 30
0.0
  0
INSERT
  5
D1
330
1F
100
AcDbEntity
  8
Default
100
AcDbBlockReference
  2
SE1
 10
0.0
 20
0.0
 30
0.0
  0
DIMENSION
  5
F4
330
1F
100
AcDbEntity
  8
Default
  6
Continuous
 62
     7
 48
25.4
100
AcDbDimension
  2
DMBLK1
 10
706.9078450624
 20
524.0841772309
 30
0.0
 11
739.4078438703
 21
524.0841772309
 31
0.0
 70
   161
  1
\A1;<>
 71
     5
 42
-1.0
  3
ISO
100
AcDbAlignedDimension
 13
706.9078450624
 23
465.1607353142
 33
0.0
 14
771.9078450624
 24
465.1607353142
 34
0.0
  0
DIMENSION
  5
100
330
1F
100
AcDbEntity
  8
Default
  6
Continuous
 62
     7
 48
25.4
100
AcDbDimension
  2
DMBLK2
 10
116.4016398355
 20
524.9319221428
 30
0.0
 11
375.901636736
 21
524.9319221428
 31
0.0
 70
   161
  1
\A1;<>
 71
     5
 42
-1.0
  3
ISO
100
AcDbAlignedDimension
 13
116.4016398355
 23
447.1607353142
 33
0.0
 14
635.4016398355
 24
447.1607353142
 34
0.0
  0
DIMENSION
  5
10C
330
1F
100
AcDbEntity
  8
Default
  6
Continuous
 62
     7
 48
25.4
100
AcDbDimension
  2
DMBLK3
 10
70.2990795537
 20
465.1607353142
 30
0.0
 11
70.2990795537
 21
320.6607330493
 31
0.0
 70
   161
  1
\A1;<>
 71
     5
 42
-1.0
  3
ISO
100
AcDbAlignedDimension
 13
134.4016398355
 23
465.1607353142
 33
0.0
 14
134.4016398355
 24
176.1607353142
 34
0.0
  0
LINE
  5
118
330
1F
100
AcDbEntity
  8
Default
  6
Continuous
 62
     7
 48
25.4
100
AcDbLine
 10
34.2916320836
 20
10.3065594685
 30
0.0
 11
821.2916320836
 21
10.3065594685
 31
0.0
  0
LINE
  5
119
330
1F
100
AcDbEntity
  8
Default
  6
Continuous
 62
     7
 48
25.4
100
AcDbLine
 10
821.2916320836
 20
10.3065594685
 30
0.0
 11
821.2916320836
 21
582.7142715852
 31
0.0
  0
LINE
  5
11A
330
1F
100
AcDbEntity
  8
Default
  6
Continuous
 62
     7
 48
25.4
100
AcDbLine
 10
821.2916320836
 20
582.7142715852
 30
0.0
 11
34.2916320836
 21
582.7142715852
 31
0.0
  0
LINE
  5
11B
330
1F
100
AcDbEntity
  8
Default
  6
Continuous
 62
     7
 48
25.4
100
AcDbLine
 10
34.2916320836
 20
582.7142715852
 30
0.0
 11
34.2916320836
 21
10.3065594685
 31
0.0
  0
LINE
  5
11C
330
1F
100
AcDbEntity
  8
Default
  6
Continuous
 62
     7
 48
25.4
100
AcDbLine
 10
34.2916320836
 20
10.3065594685
 30
0.0
 11
19.2916320836
 21
10.3065594685
 31
0.0
  0
LINE
  5
11D
330
1F
100
AcDbEntity
  8
Default
  6
Continuous
 62
     7
 48
25.4
100
AcDbLine
 10
34.2916320836
 20
16.7065594685
 30
0.0
 11
19.2916320836
 21
16.7065594685
 31
0.0
  0
LINE
  5
11E
330
1F
100
AcDbEntity
  8
Default
  6
Continuous
 62
     7
 48
25.4
100
AcDbLine
 10
34.2916320836
 20
23.1065594685
 30
0.0
 11
19.2916320836
 21
23.1065594685
 31
0.0
  0
LINE
  5
11F
330
1F
100
AcDbEntity
  8
Default
  6
Continuous
 62
     7
 48
25.4
100
AcDbLine
 10
34.2916320836
 20
29.5065594685
 30
0.0
 11
19.2916320836
 21
29.5065594685
 31
0.0
  0
LINE
  5
120
330
1F
100
AcDbEntity
  8
Default
  6
Continuous
 62
     7
 48
25.4
100
AcDbLine
 10
34.2916320836
 20
35.9065594685
 30
0.0
 11
19.2916320836
 21
35.9065594685
 31
0.0
  0
LINE
  5
121
330
1F
100
AcDbEntity
  8
Default
  6
Continuous
 62
     7
 48
25.4
100
AcDbLine
 10
34.2916320836
 20
42.3065594685
 30
0.0
 11
19.2916320836
 21
42.3065594685
 31
0.0
  0
LINE
  5
122
330
1F
100
AcDbEntity
  8
Default
  6
Continuous
 62
     7
 48
25.4
100
AcDbLine
 10
34.2916320836
 20
48.7065594685
 30
0.0
 11
19.2916320836
 21
48.7065594685
 31
0.0
  0
LINE
  5
123
330
1F
100
AcDbEntity
  8
Default
  6
Continuous
 62
     7
 48
25.4
100
AcDbLine
 10
34.2916320836
 20
55.1065594685
 30
0.0
 11
19.2916320836
 21
55.1065594685
 31
0.0
  0
LINE
  5
124
330
1F
100
AcDbEntity
  8
Default
  6
Continuous
 62
     7
 48
25.4
100
AcDbLine
 10
34.2916320836
 20
61.5065594685
 30
0.0
 11
19.2916320836
 21
61.5065594685
 31
0.0
  0
LINE
  5
125
330
1F
100
AcDbEntity
  8
Default
  6
Continuous
 62
     7
 48
25.4
100
AcDbLine
 10
34.2916320836
 20
67.9065594685
 30
0.0
 11
19.2916320836
 21
67.9065594685
 31
0.0
  0
LINE
  5
127
330
1F
100
AcDbEntity
  8
DOGSV_0
  6
Continuous
 62
     7
 48
25.4
100
AcDbLine
 10
696.4760245259
 20
10.3065594685
 30
0.0
 11
696.4760245259
 21
67.4282094548
 31
0.0
  0
LINE
  5
128
330
1F
100
AcDbEntity
  8
DOGSV_0
  6
Continuous
 62
     7
 48
25.4
100
AcDbLine
 10
696.4760245259
 20
67.4282094548
 30
0.0
 11
789.5924320836
 21
67.4282094548
 31
0.0
  0
LINE
  5
129
330
1F
100
AcDbEntity
  8
DOGSV_0
  6
Continuous
 62
     7
 48
25.4
100
AcDbLine
 10
696.4760245259
 20
35.7290113442
 30
0.0
 11
821.2916320836
 21
35.7290113442
 31
0.0
  0
LINE
  5
12A
330
1F
100
AcDbEntity
  8
DOGSV_0
  6
Continuous
 62
     7
 48
25.4
100
AcDbLine
 10
696.4760245259
 20
23.3465113442
 30
0.0
 11
821.2916320836
 21
23.3465113442
 31
0.0
  0
LINE
  5
12B
330
1F
100
AcDbEntity
  8
DOGSV_0
  6
Continuous
 62
     7
 48
25.4
100
AcDbLine
 10
743.0342245259
 20
35.7290113442
 30
0.0
 11
743.0342245259
 21
23.3465113442
 31
0.0
  0
LINE
  5
12C
330
1F
100
AcDbEntity
  8
DOGSV_0
  6
Continuous
 62
     7
 48
25.4
100
AcDbLine
 10
762.8462320836
 20
35.7290113442
 30
0.0
 11
762.8462320836
 21
10.3065594685
 31
0.0
  0
LINE
  5
12D
330
1F
100
AcDbEntity
  8
DOGSV_0
  6
Continuous
 62
     7
 48
25.4
100
AcDbLine
 10
782.1629320836
 20
35.7290113442
 30
0.0
 11
782.1629320836
 21
23.3465113442
 31
0.0
  0
LINE
  5
12E
330
1F
100
AcDbEntity
  8
DOGSV_0
  6
Continuous
 62
     7
 48
25.4
100
AcDbLine
 10
801.4796320836
 20
35.7290113442
 30
0.0
 11
801.4796320836
 21
23.3465113442
 31
0.0
  0
LINE
  5
12F
330
1F
100
AcDbEntity
  8
DOGSV_0
  6
Continuous
 62
     7
 48
25.4
100
AcDbLine
 10
775.7240320836
 20
23.3465113442
 30
0.0
 11
775.7240320836
 21
10.3065594685
 31
0.0
  0
LINE
  5
130
330
1F
100
AcDbEntity
  8
DOGSV_0
  6
Continuous
 62
     7
 48
25.4
100
AcDbLine
 10
789.5924320836
 20
67.4282094548
 30
0.0
 11
821.2916320836
 21
67.4282094548
 31
0.0
  0
LINE
  5
131
330
1F
100
AcDbEntity
  8
DOGSV_0
  6
Continuous
 62
     7
 48
25.4
100
AcDbLine
 10
705.8907646222
 20
35.5675612178
 30
0.0
 11
705.8907646222
 21
23.1850612178
 31
0.0
  0
LINE
  5
132
330
1F
100
AcDbEntity
  8
DOGSV_0
  6
Continuous
 62
     7
 48
25.4
100
AcDbLine
 10
720.1039641167
 20
35.7290113442
 30
0.0
 11
720.1039641167
 21
23.3465113442
 31
0.0
  0
LINE
  5
133
330
1F
100
AcDbEntity
  8
Default
  6
Continuous
 62
     7
 48
25.4
100
AcDbLine
 10
696.4760245259
 20
48.2472423514
 30
0.0
 11
821.2916320836
 21
48.2472423514
 31
0.0
  0
LINE
  5
134
330
1F
100
AcDbEntity
  8
Default
  6
Continuous
 62
     7
 48
25.4
100
AcDbLine
 10
696.4760245259
 20
60.9269215957
 30
0.0
 11
821.2916320836
 21
60.9269215957
 31
0.0
  0
LINE
  5
135
330
1F
100
AcDbEntity
  8
Default
  6
Continuous
 62
     7
 48
25.4
100
AcDbLine
 10
696.4760245259
 20
54.5870800842
 30
0.0
 11
821.2916320836
 21
54.5870800842
 31
0.0
  0
LINE
  5
136
330
1F
100
AcDbEntity
  8
Default
  6
Continuous
 62
     7
 48
25.4
100
AcDbLine
 10
696.4760245259
 20
41.9074008399
 30
0.0
 11
782.1629320836
 21
41.9074008399
 31
0.0
  0
LINE
  5
137
330
1F
100
AcDbEntity
  8
Default
  6
Continuous
 62
     7
 48
25.4
100
AcDbLine
 10
696.4760245259
 20
31.5061008399
 30
0.0
 11
743.0342245259
 21
31.5061008399
 31
0.0
  0
LINE
  5
138
330
1F
100
AcDbEntity
  8
Default
  6
Continuous
 62
     7
 48
25.4
100
AcDbLine
 10
696.4760245259
 20
27.3455800842
 30
0.0
 11
743.0342245259
 21
27.3455800842
 31
0.0
  0
TEXT
  5
139
330
1F
100
AcDbEntity
  8
Default
  6
Continuous
 62
     7
 48
25.4
100
AcDbText
 10
698.599092845
 20
64.6366749175
 30
0.0
 40
1.5
  1
Material
  7
SEACAD_seiso_ttfB
 11
698.599092845
 21
66.1366749175
 31
0.0
100
AcDbText
 73
     3
  0
TEXT
  5
13B
330
1F
100
AcDbEntity
  8
Default
  6
Continuous
 62
     7
 48
25.4
100
AcDbText
 10
704.5650019359
 20
64.6366749175
 30
0.0
 40
1.5
  1
e
  7
SEACAD_seans_ttfB
 11
704.5650019359
 21
66.1366749175
 31
0.0
100
AcDbText
 73
     3
  0
TEXT
  5
13C
330
1F
100
AcDbEntity
  8
Default
  6
Continuous
 62
     7
 48
25.4
100
AcDbText
 10
698.0693902134
 20
57.2647633125
 30
0.0
 40
1.5
  1
Overfladebehandling
  7
SEACAD_seiso_ttfB
 11
698.0693902134
 21
58.7647633125
 31
0.0
100
AcDbText
 73
     3
  0
TEXT
  5
13D
330
1F
100
AcDbEntity
  8
Default
  6
Continuous
 62
     7
 48
25.4
100
AcDbText
 10
697.5907591793
 20
45.4249337664
 30
0.0
 40
1.5
  1
Frimlstolerance
  7
SEACAD_seiso_ttfB
 11
697.5907591793
 21
46.9249337664
 31
0.0
100
AcDbText
 73
     3
  0
TEXT
  5
13E
330
1F
100
AcDbEntity
  8
Default
  6
Continuous
 62
     7
 48
25.4
100
AcDbText
 10
744.2995143731
 20
33.0882884256
 30
0.0
 40
1.5
  1
Tegningsformat
  7
SEACAD_seiso_ttfB
 11
744.2995143731
 21
34.5882884256
 31
0.0
100
AcDbText
 73
     3
  0
TEXT
  5
13F
330
1F
100
AcDbEntity
  8
Default
  6
Continuous
 62
     7
 48
25.4
100
AcDbText
 10
763.8546606946
 20
33.0882884256
 30
0.0
 40
1.5
  1
Erstatter
  7
SEACAD_seiso_ttfB
 11
763.8546606946
 21
34.5882884256
 31
0.0
100
AcDbText
 73
     3
  0
TEXT
  5
140
330
1F
100
AcDbEntity
  8
Default
  6
Continuous
 62
     7
 48
25.4
100
AcDbText
 10
783.1254667006
 20
33.0882884256
 30
0.0
 40
1.5
  1
Mlforhold
  7
SEACAD_seiso_ttfB
 11
783.1254667006
 21
34.5882884256
 31
0.0
100
AcDbText
 73
     3
  0
TEXT
  5
141
330
1F
100
AcDbEntity
  8
Default
  6
Continuous
 62
     7
 48
25.4
100
AcDbText
 10
776.2968237735
 20
21.1460445728
 30
0.0
 40
1.5
  1
Del nr.
  7
SEACAD_seiso_ttfB
 11
776.2968237735
 21
22.6460445728
 31
0.0
100
AcDbText
 73
     3
  0
TEXT
  5
142
330
1F
100
AcDbEntity
  8
Default
  6
Continuous
 62
     7
 48
25.4
100
AcDbText
 10
763.4190237735
 20
21.16964085
 30
0.0
 40
1.5
  1
Udgave
  7
SEACAD_seiso_ttfB
 11
763.4190237735
 21
22.66964085
 31
0.0
100
AcDbText
 73
     3
  0
TEXT
  5
143
330
1F
100
AcDbEntity
  8
Default
  6
Continuous
 62
     7
 48
25.4
100
AcDbText
 10
697.0488162158
 20
21.0982717029
 30
0.0
 40
1.5
  1
Benvnelse
  7
SEACAD_seiso_ttfB
 11
697.0488162158
 21
22.5982717029
 31
0.0
100
AcDbText
 73
     3
  0
TEXT
  5
144
330
1F
100
AcDbEntity
  8
Default
  6
Continuous
 62
     7
 48
25.4
100
AcDbText
 10
697.2121042335
 20
32.7312455054
 30
0.0
 40
1.5
  1
Konstr.
  7
SEACAD_seiso_ttfB
 11
697.2121042335
 21
34.2312455054
 31
0.0
100
AcDbText
 73
     3
  0
TEXT
  5
145
330
1F
100
AcDbEntity
  8
Default
  6
Continuous
 62
     7
 48
25.4
100
AcDbText
 10
697.2121042335
 20
29.0200498532
 30
0.0
 40
1.5
  1
Udf. af
  7
SEACAD_seiso_ttfB
 11
697.2121042335
 21
30.5200498532
 31
0.0
100
AcDbText
 73
     3
  0
TEXT
  5
146
330
1F
100
AcDbEntity
  8
Default
  6
Continuous
 62
     7
 48
25.4
100
AcDbText
 10
751.2635335435
 20
25.7079150068
 30
0.0
 40
5.0
  1
A1
  7
SEACAD_seiso_ttfB
 11
751.2635335435
 21
30.7079150068
 31
0.0
100
AcDbText
 73
     3
  0
LINE
  5
147
330
1F
100
AcDbEntity
  8
Default
  6
Continuous
 62
     7
 48
25.4
100
AcDbLine
 10
38.6916320836
 20
578.3142715852
 30
0.0
 11
38.6916320836
 21
10.3065594685
 31
0.0
  0
LINE
  5
148
330
1F
100
AcDbEntity
  8
Default
  6
Continuous
 62
     7
 48
25.4
100
AcDbLine
 10
821.2916320836
 20
578.3142715852
 30
0.0
 11
38.6916320836
 21
578.3142715852
 31
0.0
  0
LINE
  5
149
330
1F
100
AcDbEntity
  8
Default
  6
Continuous
 62
     7
 48
25.4
100
AcDbLine
 10
38.6916320836
 20
538.3142715852
 30
0.0
 11
34.2916320836
 21
538.3142715852
 31
0.0
  0
TEXT
  5
14A
330
1F
100
AcDbEntity
  8
Default
  6
Continuous
 62
     7
 48
25.4
100
AcDbText
 10
36.026781136
 20
558.8780639221
 30
0.0
 40
2.4
  1
A
  7
SEACAD_seiso_ttfB
 11
36.026781136
 21
561.2780639221
 31
0.0
100
AcDbText
 73
     3
  0
LINE
  5
14B
330
1F
100
AcDbEntity
  8
Default
  6
Continuous
 62
     7
 48
25.4
100
AcDbLine
 10
78.6916320836
 20
578.3141776043
 30
0.0
 11
78.6916320836
 21
582.7142715852
 31
0.0
  0
TEXT
  5
14C
330
1F
100
AcDbEntity
  8
Default
  6
Continuous
 62
     7
 48
25.4
100
AcDbText
 10
57.453886805
 20
579.0903715997
 30
0.0
 40
2.4
  1
1
  7
SEACAD_seiso_ttfB
 11
57.453886805
 21
581.4903715997
 31
0.0
100
AcDbText
 73
     3
  0
LINE
  5
14D
330
1F
100
AcDbEntity
  8
Default
  6
Continuous
 62
     7
 48
25.4
100
AcDbLine
 10
118.6916320836
 20
578.3141776043
 30
0.0
 11
118.6916320836
 21
582.7142715852
 31
0.0
  0
TEXT
  5
14E
330
1F
100
AcDbEntity
  8
Default
  6
Continuous
 62
     7
 48
25.4
100
AcDbText
 10
97.2084322595
 20
579.0903715997
 30
0.0
 40
2.4
  1
2
  7
SEACAD_seiso_ttfB
 11
97.2084322595
 21
581.4903715997
 31
0.0
100
AcDbText
 73
     3
  0
LINE
  5
14F
330
1F
100
AcDbEntity
  8
Default
  6
Continuous
 62
     7
 48
25.4
100
AcDbLine
 10
158.6916320836
 20
578.3141776043
 30
0.0
 11
158.6916320836
 21
582.7142715852
 31
0.0
  0
TEXT
  5
150
330
1F
100
AcDbEntity
  8
Default
  6
Continuous
 62
     7
 48
25.4
100
AcDbText
 10
137.3175231686
 20
579.0903715997
 30
0.0
 40
2.4
  1
3
  7
SEACAD_seiso_ttfB
 11
137.3175231686
 21
581.4903715997
 31
0.0
100
AcDbText
 73
     3
  0
LINE
  5
151
330
1F
100
AcDbEntity
  8
Default
  6
Continuous
 62
     7
 48
25.4
100
AcDbLine
 10
198.6916320836
 20
578.3141776043
 30
0.0
 11
198.6916320836
 21
582.7142715852
 31
0.0
  0
TEXT
  5
152
330
1F
100
AcDbEntity
  8
Default
  6
Continuous
 62
     7
 48
25.4
100
AcDbText
 10
177.2357049868
 20
579.0903715997
 30
0.0
 40
2.4
  1
4
  7
SEACAD_seiso_ttfB
 11
177.2357049868
 21
581.4903715997
 31
0.0
100
AcDbText
 73
     3
  0
LINE
  5
153
330
1F
100
AcDbEntity
  8
Default
  6
Continuous
 62
     7
 48
25.4
100
AcDbLine
 10
238.6916320836
 20
578.3141776043
 30
0.0
 11
238.6916320836
 21
582.7142715852
 31
0.0
  0
TEXT
  5
154
330
1F
100
AcDbEntity
  8
Default
  6
Continuous
 62
     7
 48
25.4
100
AcDbText
 10
217.2902504414
 20
579.0903715997
 30
0.0
 40
2.4
  1
5
  7
SEACAD_seiso_ttfB
 11
217.2902504414
 21
581.4903715997
 31
0.0
100
AcDbText
 73
     3
  0
LINE
  5
155
330
1F
100
AcDbEntity
  8
Default
  6
Continuous
 62
     7
 48
25.4
100
AcDbLine
 10
278.6916320836
 20
578.3141776043
 30
0.0
 11
278.6916320836
 21
582.7142715852
 31
0.0
  0
TEXT
  5
156
330
1F
100
AcDbEntity
  8
Default
  6
Continuous
 62
     7
 48
25.4
100
AcDbText
 10
257.2357049868
 20
579.0903715997
 30
0.0
 40
2.4
  1
6
  7
SEACAD_seiso_ttfB
 11
257.2357049868
 21
581.4903715997
 31
0.0
100
AcDbText
 73
     3
  0
LINE
  5
157
330
1F
100
AcDbEntity
  8
Default
  6
Continuous
 62
     7
 48
25.4
100
AcDbLine
 10
318.6916320836
 20
578.3141776043
 30
0.0
 11
318.6916320836
 21
582.7142715852
 31
0.0
  0
TEXT
  5
158
330
1F
100
AcDbEntity
  8
Default
  6
Continuous
 62
     7
 48
25.4
100
AcDbText
 10
297.1811595323
 20
579.0903715997
 30
0.0
 40
2.4
  1
7
  7
SEACAD_seiso_ttfB
 11
297.1811595323
 21
581.4903715997
 31
0.0
100
AcDbText
 73
     3
  0
LINE
  5
159
330
1F
100
AcDbEntity
  8
Default
  6
Continuous
 62
     7
 48
25.4
100
AcDbLine
 10
358.6916320836
 20
578.3141776043
 30
0.0
 11
358.6916320836
 21
582.7142715852
 31
0.0
  0
TEXT
  5
15A
330
1F
100
AcDbEntity
  8
Default
  6
Continuous
 62
     7
 48
25.4
100
AcDbText
 10
337.2084322595
 20
579.0903715997
 30
0.0
 40
2.4
  1
8
  7
SEACAD_seiso_ttfB
 11
337.2084322595
 21
581.4903715997
 31
0.0
100
AcDbText
 73
     3
  0
LINE
  5
15B
330
1F
100
AcDbEntity
  8
Default
  6
Continuous
 62
     7
 48
25.4
100
AcDbLine
 10
398.6916320836
 20
578.3141776043
 30
0.0
 11
398.6916320836
 21
582.7142715852
 31
0.0
  0
TEXT
  5
15C
330
1F
100
AcDbEntity
  8
Default
  6
Continuous
 62
     7
 48
25.4
100
AcDbText
 10
377.2357049868
 20
579.0903715997
 30
0.0
 40
2.4
  1
9
  7
SEACAD_seiso_ttfB
 11
377.2357049868
 21
581.4903715997
 31
0.0
100
AcDbText
 73
     3
  0
LINE
  5
15D
330
1F
100
AcDbEntity
  8
Default
  6
Continuous
 62
     7
 48
25.4
100
AcDbLine
 10
438.6916320836
 20
578.3141776043
 30
0.0
 11
438.6916320836
 21
582.7142715852
 31
0.0
  0
TEXT
  5
15E
330
1F
100
AcDbEntity
  8
Default
  6
Continuous
 62
     7
 48
25.4
100
AcDbText
 10
416.7447958959
 20
579.0903715997
 30
0.0
 40
2.4
  1
10
  7
SEACAD_seiso_ttfB
 11
416.7447958959
 21
581.4903715997
 31
0.0
100
AcDbText
 73
     3
  0
LINE
  5
15F
330
1F
100
AcDbEntity
  8
Default
  6
Continuous
 62
     7
 48
25.4
100
AcDbLine
 10
478.6916320836
 20
578.3141776043
 30
0.0
 11
478.6916320836
 21
582.7142715852
 31
0.0
  0
TEXT
  5
160
330
1F
100
AcDbEntity
  8
Default
  6
Continuous
 62
     7
 48
25.4
100
AcDbText
 10
456.9629777141
 20
579.0903715997
 30
0.0
 40
2.4
  1
11
  7
SEACAD_seiso_ttfB
 11
456.9629777141
 21
581.4903715997
 31
0.0
100
AcDbText
 73
     3
  0
LINE
  5
161
330
1F
100
AcDbEntity
  8
Default
  6
Continuous
 62
     7
 48
25.4
100
AcDbLine
 10
518.6916320836
 20
578.3141776043
 30
0.0
 11
518.6916320836
 21
582.7142715852
 31
0.0
  0
TEXT
  5
162
330
1F
100
AcDbEntity
  8
Default
  6
Continuous
 62
     7
 48
25.4
100
AcDbText
 10
496.7175231686
 20
579.0903715997
 30
0.0
 40
2.4
  1
12
  7
SEACAD_seiso_ttfB
 11
496.7175231686
 21
581.4903715997
 31
0.0
100
AcDbText
 73
     3
  0
LINE
  5
163
330
1F
100
AcDbEntity
  8
Default
  6
Continuous
 62
     7
 48
25.4
100
AcDbLine
 10
558.6916320836
 20
578.3141776043
 30
0.0
 11
558.6916320836
 21
582.7142715852
 31
0.0
  0
TEXT
  5
164
330
1F
100
AcDbEntity
  8
Default
  6
Continuous
 62
     7
 48
25.4
100
AcDbText
 10
536.8266140777
 20
579.0903715997
 30
0.0
 40
2.4
  1
13
  7
SEACAD_seiso_ttfB
 11
536.8266140777
 21
581.4903715997
 31
0.0
100
AcDbText
 73
     3
  0
LINE
  5
165
330
1F
100
AcDbEntity
  8
Default
  6
Continuous
 62
     7
 48
25.4
100
AcDbLine
 10
598.6916320836
 20
578.3141776043
 30
0.0
 11
598.6916320836
 21
582.7142715852
 31
0.0
  0
TEXT
  5
166
330
1F
100
AcDbEntity
  8
Default
  6
Continuous
 62
     7
 48
25.4
100
AcDbText
 10
576.7447958959
 20
579.0903715997
 30
0.0
 40
2.4
  1
14
  7
SEACAD_seiso_ttfB
 11
576.7447958959
 21
581.4903715997
 31
0.0
100
AcDbText
 73
     3
  0
LINE
  5
167
330
1F
100
AcDbEntity
  8
Default
  6
Continuous
 62
     7
 48
25.4
100
AcDbLine
 10
638.6916320836
 20
578.3141776043
 30
0.0
 11
638.6916320836
 21
582.7142715852
 31
0.0
  0
TEXT
  5
168
330
1F
100
AcDbEntity
  8
Default
  6
Continuous
 62
     7
 48
25.4
100
AcDbText
 10
616.7993413505
 20
579.0903715997
 30
0.0
 40
2.4
  1
15
  7
SEACAD_seiso_ttfB
 11
616.7993413505
 21
581.4903715997
 31
0.0
100
AcDbText
 73
     3
  0
LINE
  5
169
330
1F
100
AcDbEntity
  8
Default
  6
Continuous
 62
     7
 48
25.4
100
AcDbLine
 10
678.6916320836
 20
578.3141776043
 30
0.0
 11
678.6916320836
 21
582.7142715852
 31
0.0
  0
TEXT
  5
16A
330
1F
100
AcDbEntity
  8
Default
  6
Continuous
 62
     7
 48
25.4
100
AcDbText
 10
656.7447958959
 20
579.0903715997
 30
0.0
 40
2.4
  1
16
  7
SEACAD_seiso_ttfB
 11
656.7447958959
 21
581.4903715997
 31
0.0
100
AcDbText
 73
     3
  0
LINE
  5
16B
330
1F
100
AcDbEntity
  8
Default
  6
Continuous
 62
     7
 48
25.4
100
AcDbLine
 10
718.6916320836
 20
578.3141776043
 30
0.0
 11
718.6916320836
 21
582.7142715852
 31
0.0
  0
TEXT
  5
16C
330
1F
100
AcDbEntity
  8
Default
  6
Continuous
 62
     7
 48
25.4
100
AcDbText
 10
696.6902504414
 20
579.0903715997
 30
0.0
 40
2.4
  1
17
  7
SEACAD_seiso_ttfB
 11
696.6902504414
 21
581.4903715997
 31
0.0
100
AcDbText
 73
     3
  0
LINE
  5
16D
330
1F
100
AcDbEntity
  8
Default
  6
Continuous
 62
     7
 48
25.4
100
AcDbLine
 10
758.6916320836
 20
578.3141776043
 30
0.0
 11
758.6916320836
 21
582.7142715852
 31
0.0
  0
TEXT
  5
16E
330
1F
100
AcDbEntity
  8
Default
  6
Continuous
 62
     7
 48
25.4
100
AcDbText
 10
736.7175231686
 20
579.0903715997
 30
0.0
 40
2.4
  1
18
  7
SEACAD_seiso_ttfB
 11
736.7175231686
 21
581.4903715997
 31
0.0
100
AcDbText
 73
     3
  0
LINE
  5
16F
330
1F
100
AcDbEntity
  8
Default
  6
Continuous
 62
     7
 48
25.4
100
AcDbLine
 10
798.6916320836
 20
578.3141776043
 30
0.0
 11
798.6916320836
 21
582.7142715852
 31
0.0
  0
TEXT
  5
170
330
1F
100
AcDbEntity
  8
Default
  6
Continuous
 62
     7
 48
25.4
100
AcDbText
 10
776.7447958959
 20
579.0903715997
 30
0.0
 40
2.4
  1
19
  7
SEACAD_seiso_ttfB
 11
776.7447958959
 21
581.4903715997
 31
0.0
100
AcDbText
 73
     3
  0
TEXT
  5
171
330
1F
100
AcDbEntity
  8
Default
  6
Continuous
 62
     7
 48
25.4
100
AcDbText
 10
816.4993413505
 20
579.0903715997
 30
0.0
 40
2.4
  1
20
  7
SEACAD_seiso_ttfB
 11
816.4993413505
 21
581.4903715997
 31
0.0
100
AcDbText
 73
     3
  0
LINE
  5
172
330
1F
100
AcDbEntity
  8
Default
  6
Continuous
 62
     7
 48
25.4
100
AcDbLine
 10
38.6916320836
 20
498.3142715852
 30
0.0
 11
34.2916320836
 21
498.3142715852
 31
0.0
  0
TEXT
  5
173
330
1F
100
AcDbEntity
  8
Default
  6
Continuous
 62
     7
 48
25.4
100
AcDbText
 10
35.9995084087
 20
518.8780639221
 30
0.0
 40
2.4
  1
B
  7
SEACAD_seiso_ttfB
 11
35.9995084087
 21
521.2780639221
 31
0.0
100
AcDbText
 73
     3
  0
LINE
  5
174
330
1F
100
AcDbEntity
  8
Default
  6
Continuous
 62
     7
 48
25.4
100
AcDbLine
 10
38.6916320836
 20
458.3142715852
 30
0.0
 11
34.2916320836
 21
458.3142715852
 31
0.0
  0
TEXT
  5
175
330
1F
100
AcDbEntity
  8
Default
  6
Continuous
 62
     7
 48
25.4
100
AcDbText
 10
36.0540538632
 20
478.8780639221
 30
0.0
 40
2.4
  1
C
  7
SEACAD_seiso_ttfB
 11
36.0540538632
 21
481.2780639221
 31
0.0
100
AcDbText
 73
     3
  0
LINE
  5
176
330
1F
100
AcDbEntity
  8
Default
  6
Continuous
 62
     7
 48
25.4
100
AcDbLine
 10
38.6916320836
 20
418.3142715852
 30
0.0
 11
34.2916320836
 21
418.3142715852
 31
0.0
  0
TEXT
  5
177
330
1F
100
AcDbEntity
  8
Default
  6
Continuous
 62
     7
 48
25.4
100
AcDbText
 10
35.9722356814
 20
438.8780639221
 30
0.0
 40
2.4
  1
D
  7
SEACAD_seiso_ttfB
 11
35.9722356814
 21
441.2780639221
 31
0.0
100
AcDbText
 73
     3
  0
LINE
  5
178
330
1F
100
AcDbEntity
  8
Default
  6
Continuous
 62
     7
 48
25.4
100
AcDbLine
 10
38.6916320836
 20
378.3142715852
 30
0.0
 11
34.2916320836
 21
378.3142715852
 31
0.0
  0
TEXT
  5
179
330
1F
100
AcDbEntity
  8
Default
  6
Continuous
 62
     7
 48
25.4
100
AcDbText
 10
36.026781136
 20
398.8780639221
 30
0.0
 40
2.4
  1
E
  7
SEACAD_seiso_ttfB
 11
36.026781136
 21
401.2780639221
 31
0.0
100
AcDbText
 73
     3
  0
LINE
  5
17A
330
1F
100
AcDbEntity
  8
Default
  6
Continuous
 62
     7
 48
25.4
100
AcDbLine
 10
38.6916320836
 20
338.3142715852
 30
0.0
 11
34.2916320836
 21
338.3142715852
 31
0.0
  0
TEXT
  5
17B
330
1F
100
AcDbEntity
  8
Default
  6
Continuous
 62
     7
 48
25.4
100
AcDbText
 10
36.0540538632
 20
358.8780639221
 30
0.0
 40
2.4
  1
F
  7
SEACAD_seiso_ttfB
 11
36.0540538632
 21
361.2780639221
 31
0.0
100
AcDbText
 73
     3
  0
LINE
  5
17C
330
1F
100
AcDbEntity
  8
Default
  6
Continuous
 62
     7
 48
25.4
100
AcDbLine
 10
38.6916320836
 20
298.3142715852
 30
0.0
 11
34.2916320836
 21
298.3142715852
 31
0.0
  0
TEXT
  5
17D
330
1F
100
AcDbEntity
  8
Default
  6
Continuous
 62
     7
 48
25.4
100
AcDbText
 10
35.9722356814
 20
318.8780639221
 30
0.0
 40
2.4
  1
G
  7
SEACAD_seiso_ttfB
 11
35.9722356814
 21
321.2780639221
 31
0.0
100
AcDbText
 73
     3
  0
LINE
  5
17E
330
1F
100
AcDbEntity
  8
Default
  6
Continuous
 62
     7
 48
25.4
100
AcDbLine
 10
38.6916320836
 20
258.3142715852
 30
0.0
 11
34.2916320836
 21
258.3142715852
 31
0.0
  0
TEXT
  5
17F
330
1F
100
AcDbEntity
  8
Default
  6
Continuous
 62
     7
 48
25.4
100
AcDbText
 10
35.9449629542
 20
278.8780639221
 30
0.0
 40
2.4
  1
H
  7
SEACAD_seiso_ttfB
 11
35.9449629542
 21
281.2780639221
 31
0.0
100
AcDbText
 73
     3
  0
LINE
  5
180
330
1F
100
AcDbEntity
  8
Default
  6
Continuous
 62
     7
 48
25.4
100
AcDbLine
 10
38.6916320836
 20
218.3142715852
 30
0.0
 11
34.2916320836
 21
218.3142715852
 31
0.0
  0
TEXT
  5
181
330
1F
100
AcDbEntity
  8
Default
  6
Continuous
 62
     7
 48
25.4
100
AcDbText
 10
36.326781136
 20
238.8780639221
 30
0.0
 40
2.4
  1
I
  7
SEACAD_seiso_ttfB
 11
36.326781136
 21
241.2780639221
 31
0.0
100
AcDbText
 73
     3
  0
LINE
  5
182
330
1F
100
AcDbEntity
  8
Default
  6
Continuous
 62
     7
 48
25.4
100
AcDbLine
 10
38.6916320836
 20
178.3142715852
 30
0.0
 11
34.2916320836
 21
178.3142715852
 31
0.0
  0
TEXT
  5
183
330
1F
100
AcDbEntity
  8
Default
  6
Continuous
 62
     7
 48
25.4
100
AcDbText
 10
36.0813265905
 20
198.8780639221
 30
0.0
 40
2.4
  1
J
  7
SEACAD_seiso_ttfB
 11
36.0813265905
 21
201.2780639221
 31
0.0
100
AcDbText
 73
     3
  0
LINE
  5
184
330
1F
100
AcDbEntity
  8
Default
  6
Continuous
 62
     7
 48
25.4
100
AcDbLine
 10
38.6916320836
 20
138.3142715852
 30
0.0
 11
34.2916320836
 21
138.3142715852
 31
0.0
  0
TEXT
  5
185
330
1F
100
AcDbEntity
  8
Default
  6
Continuous
 62
     7
 48
25.4
100
AcDbText
 10
35.9449629542
 20
158.8780639221
 30
0.0
 40
2.4
  1
K
  7
SEACAD_seiso_ttfB
 11
35.9449629542
 21
161.2780639221
 31
0.0
100
AcDbText
 73
     3
  0
LINE
  5
186
330
1F
100
AcDbEntity
  8
Default
  6
Continuous
 62
     7
 48
25.4
100
AcDbLine
 10
38.6916320836
 20
98.3142715852
 30
0.0
 11
34.2916320836
 21
98.3142715852
 31
0.0
  0
TEXT
  5
187
330
1F
100
AcDbEntity
  8
Default
  6
Continuous
 62
     7
 48
25.4
100
AcDbText
 10
36.2722356814
 20
118.8780639221
 30
0.0
 40
2.4
  1
l
  7
SEACAD_seiso_ttfB
 11
36.2722356814
 21
121.2780639221
 31
0.0
100
AcDbText
 73
     3
  0
TEXT
  5
188
330
1F
100
AcDbEntity
  8
Default
  6
Continuous
 62
     7
 48
25.4
100
AcDbText
 10
35.7813265905
 20
78.8780639221
 30
0.0
 40
2.4
  1
M
  7
SEACAD_seiso_ttfB
 11
35.7813265905
 21
81.2780639221
 31
0.0
100
AcDbText
 73
     3
  0
LINE
  5
189
330
1F
100
AcDbEntity
  8
Default
  6
Continuous
 62
     7
 48
25.4
100
AcDbLine
 10
0.1940482458
 20
297.3264233552
 30
0.0
 11
34.2916320836
 21
297.3264233552
 31
0.0
  0
LINE
  5
18A
330
1F
100
AcDbEntity
  8
Default
  6
Continuous
 62
     7
 48
25.4
100
AcDbLine
 10
0.1940482458
 20
148.8264233552
 30
0.0
 11
34.2916320836
 21
148.8264233552
 31
0.0
  0
LINE
  5
18B
330
1F
100
AcDbEntity
  8
Default
  6
Continuous
 62
     7
 48
25.4
100
AcDbLine
 10
841.651013341
 20
297.3264233552
 30
0.0
 11
821.2916320836
 21
297.3264233552
 31
0.0
  0
LINE
  5
18C
330
1F
100
AcDbEntity
  8
Default
  6
Continuous
 62
     7
 48
25.4
100
AcDbLine
 10
187.170128525
 20
0.3264233552
 30
0.0
 11
187.170128525
 21
10.3065594685
 31
0.0
  0
LINE
  5
18D
330
1F
100
AcDbEntity
  8
Default
  6
Continuous
 62
     7
 48
25.4
100
AcDbLine
 10
337.170128525
 20
0.3264233552
 30
0.0
 11
337.170128525
 21
10.3065594685
 31
0.0
  0
LINE
  5
18E
330
1F
100
AcDbEntity
  8
Default
  6
Continuous
 62
     7
 48
25.4
100
AcDbLine
 10
495.170128525
 20
0.3264233552
 30
0.0
 11
495.170128525
 21
10.3065594685
 31
0.0
  0
LINE
  5
18F
330
1F
100
AcDbEntity
  8
Default
  6
Continuous
 62
     7
 48
25.4
100
AcDbLine
 10
653.170128525
 20
0.3264233552
 30
0.0
 11
653.170128525
 21
10.3065594685
 31
0.0
  0
LINE
  5
190
330
1F
100
AcDbEntity
  8
Default
  6
Continuous
 62
     7
 48
25.4
100
AcDbLine
 10
187.170128525
 20
582.7142715852
 30
0.0
 11
187.170128525
 21
592.7142715852
 31
0.0
  0
LINE
  5
191
330
1F
100
AcDbEntity
  8
Default
  6
Continuous
 62
     7
 48
25.4
100
AcDbLine
 10
337.170128525
 20
582.7142715852
 30
0.0
 11
337.170128525
 21
592.7142715852
 31
0.0
  0
LINE
  5
192
330
1F
100
AcDbEntity
  8
Default
  6
Continuous
 62
     7
 48
25.4
100
AcDbLine
 10
495.170128525
 20
582.7142715852
 30
0.0
 11
495.170128525
 21
592.7142715852
 31
0.0
  0
LINE
  5
193
330
1F
100
AcDbEntity
  8
Default
  6
Continuous
 62
     7
 48
25.4
100
AcDbLine
 10
653.170128525
 20
582.7142715852
 30
0.0
 11
653.170128525
 21
592.7142715852
 31
0.0
  0
LINE
  5
194
330
1F
100
AcDbEntity
  8
Default
  6
Continuous
 62
     7
 48
25.4
100
AcDbLine
 10
38.6916320836
 20
58.407121857
 30
0.0
 11
34.2916320836
 21
58.407121857
 31
0.0
  0
TEXT
  5
195
330
1F
100
AcDbEntity
  8
Default
  6
Continuous
 62
     7
 48
25.4
100
AcDbText
 10
35.9722356814
 20
38.9709141938
 30
0.0
 40
2.4
  1
N
  7
SEACAD_seiso_ttfB
 11
35.9722356814
 21
41.3709141938
 31
0.0
100
AcDbText
 73
     3
  0
LINE
  5
196
330
1F
100
AcDbEntity
  8
Default
  6
Continuous
 62
     7
 48
25.4
100
AcDbLine
 10
38.6916320836
 20
18.797786679
 30
0.0
 11
34.2916320836
 21
18.797786679
 31
0.0
  0
TEXT
  5
198
330
1F
100
AcDbEntity
  8
Default
  6
Continuous
 62
     7
 48
25.4
100
AcDbText
 10
802.6193801742
 20
28.7414131999
 30
0.0
 40
3.5
  1
IVI-tek
  7
SEACAD_times_ttfBI
 11
802.6193801742
 21
32.2414131999
 31
0.0
100
AcDbText
 73
     3
  0
LINE
  5
199
330
1F
100
AcDbEntity
  8
Default
  6
Continuous
 62
     7
 48
25.4
100
AcDbLine
 10
782.1629320836
 20
35.7290113442
 30
0.0
 11
782.1629320836
 21
67.4282094548
 31
0.0
  0
ENDSEC
  0
SECTION
  2
OBJECTS
  0
DICTIONARY
  5
C
330
0
100
AcDbDictionary
281
     1
  3
ACAD_GROUP
350
D
  3
ACAD_LAYOUT
350
1A
  3
ACAD_MLINESTYLE
350
17
  3
ACAD_PLOTSETTINGS
350
19
  3
ACAD_PLOTSTYLENAME
350
E
  0
DICTIONARY
  5
D
102
{ACAD_REACTORS
330
C
102
}
330
C
100
AcDbDictionary
281
     1
  0
DICTIONARY
  5
1A
102
{ACAD_REACTORS
330
C
102
}
330
C
100
AcDbDictionary
281
     1
  3
Layout1
350
1E
  3
Model
350
22
  0
DICTIONARY
  5
17
102
{ACAD_REACTORS
330
C
102
}
330
C
100
AcDbDictionary
281
     1
  3
Standard
350
18
  0
DICTIONARY
  5
19
102
{ACAD_REACTORS
330
C
102
}
330
C
100
AcDbDictionary
281
     1
  0
ACDBDICTIONARYWDFLT
  5
E
102
{ACAD_REACTORS
330
C
102
}
330
C
100
AcDbDictionary
281
     1
  3
Normal
350
F
100
AcDbDictionaryWithDefault
340
F
  0
LAYOUT
  5
1E
102
{ACAD_REACTORS
330
1A
102
}
330
1A
100
AcDbPlotSettings
  1

  2

  4

  6

 40
0.0
 41
0.0
 42
0.0
 43
0.0
 44
0.0
 45
0.0
 46
0.0
 47
0.0
 48
0.0
 49
0.0
140
0.0
141
0.0
142
1.0
143
1.0
 70
   688
 72
     0
 73
     0
 74
     5
  7

 75
    16
147
1.0
148
0.0
149
0.0
100
AcDbLayout
  1
Layout1
 70
     1
 71
     1
 10
0.0
 20
0.0
 11
841.0
 21
594.0
 12
0.0
 22
0.0
 32
0.0
 14
0.0
 24
0.0
 34
0.0
 15
841.0
 25
594.0
 35
0.0
146
0.0
 13
0.0
 23
0.0
 33
0.0
 16
1.0
 26
0.0
 36
0.0
 17
0.0
 27
1.0
 37
0.0
 76
     0
330
1B
  0
LAYOUT
  5
22
102
{ACAD_REACTORS
330
1A
102
}
330
1A
100
AcDbPlotSettings
  1

  2

  4

  6

 40
0.0
 41
0.0
 42
0.0
 43
0.0
 44
0.0
 45
0.0
 46
0.0
 47
0.0
 48
0.0
 49
0.0
140
0.0
141
0.0
142
1.0
143
1.0
 70
  1712
 72
     0
 73
     0
 74
     0
  7

 75
     0
147
1.0
148
0.0
149
0.0
100
AcDbLayout
  1
Model
 70
     1
 71
     0
 10
0.0
 20
0.0
 11
841.0
 21
594.0
 12
0.0
 22
0.0
 32
0.0
 14
0.0
 24
0.0
 34
0.0
 15
841.0
 25
594.0
 35
0.0
146
0.0
 13
0.0
 23
0.0
 33
0.0
 16
1.0
 26
0.0
 36
0.0
 17
0.0
 27
1.0
 37
0.0
 76
     0
330
1F
  0
MLINESTYLE
  5
18
102
{ACAD_REACTORS
330
17
102
}
330
17
100
AcDbMlineStyle
  2
Standard
 70
     0
  3

 62
   256
 51
90.0
 52
90.0
 71
     2
 49
0.5
 62
   256
  6
BYLAYER
 49
-0.5
 62
   256
  6
BYLAYER
  0
ACDBPLACEHOLDER
  5
F
102
{ACAD_REACTORS
330
E
102
}
330
E
  0
ENDSEC
  0
EOF
