G04 ================== begin FILE IDENTIFICATION RECORD ==================*
G04 Layout Name:  F:/PT8618/dia/allegro/PT8618_1.brd*
G04 Film Name:    BOT*
G04 File Format:  Gerber RS274X*
G04 File Origin:  Cadence Allegro 16.6-P004*
G04 Origin Date:  Thu Feb 14 14:44:21 2013*
G04 *
G04 Layer:  ETCH/BOTTOM*
G04 Layer:  PIN/BOTTOM*
G04 Layer:  VIA CLASS/BOTTOM*
G04 *
G04 Offset:    (0.0000 0.0000)*
G04 Mirror:    No*
G04 Mode:      Positive*
G04 Rotation:  0*
G04 FullContactRelief:  No*
G04 UndefLineWidth:     0.0000*
G04 ================== end FILE IDENTIFICATION RECORD ====================*
%FSLAX45Y45*MOMM*%
%IR0*IPPOS*OFA0.00000B0.00000*MIA0B0*SFA1.00000B1.00000*%
%ADD13C,.889*%
%ADD15C,1.1*%
%ADD18C,5.2*%
%ADD14C,0.0*%
%ADD17C,3.8*%
%ADD16C,2.27*%
%ADD10C,1.524*%
%ADD12C,1.651*%
%ADD11R,1.524X1.524*%
%ADD19C,.5*%
%ADD20C,.127*%
%ADD25C,1.1434*%
%ADD26C,4.0544*%
%ADD24C,1.3544*%
%ADD23C,2.5244*%
%ADD22C,1.9054*%
%ADD29C,5.4544*%
%ADD28C,2.3568*%
%ADD27C,1.7784*%
%ADD21R,1.7784X1.7784*%
G75*
%LPD*%
G75*
G36*
G01X25400Y25400D02*
Y6121400D01*
X397280D01*
Y5969380D01*
X512910Y5853740D01*
X512850Y5851560D01*
G03X612960Y5812280I57149J-1560D01*
G01X1002520D01*
G03Y5887720I87480J37720D01*
G01X612960D01*
G03X568440Y5907150I-42962J-37719D01*
G01X566260Y5907090D01*
X472720Y6000620D01*
Y6121400D01*
X552280D01*
Y6069390D01*
X659390Y5962280D01*
X1184380D01*
X1292910Y5853740D01*
X1292850Y5851560D01*
G03X1392960Y5812280I57149J-1560D01*
G01X1782520D01*
G03Y5887720I87480J37720D01*
G01X1392960D01*
G03X1348440Y5907150I-42962J-37719D01*
G01X1346260Y5907090D01*
X1215620Y6037720D01*
X690630D01*
X627720Y6100630D01*
Y6121400D01*
X2527240D01*
Y5919420D01*
X2541590Y5905060D01*
G02X2534410Y5887720I-7184J-7182D01*
G01X2172960D01*
G03Y5812280I-42960J-37720D01*
G01X2562520D01*
G03X2617810Y5939660I87482J37717D01*
G01X2614780Y5938570D01*
X2602680Y5950660D01*
Y6121400D01*
X2692780D01*
Y6013880D01*
X2852910Y5853740D01*
X2852850Y5851560D01*
G03X2952960Y5812280I57149J-1560D01*
G01X3342520D01*
G03Y5887720I87480J37720D01*
G01X2952960D01*
G03X2908440Y5907150I-42962J-37719D01*
G01X2906260Y5907090D01*
X2768220Y6045120D01*
Y6121400D01*
X4914900D01*
Y6172200D01*
X2768220D01*
Y8984880D01*
X2849690Y9066350D01*
X2852650Y9065390D01*
G03X2795390Y9122650I27350J84610D01*
G01X2796350Y9119690D01*
X2692780Y9016120D01*
Y6172200D01*
X2602680D01*
Y9073340D01*
X2849690Y9320350D01*
X2852650Y9319390D01*
G03X2795390Y9376650I27350J84610D01*
G01X2796350Y9373690D01*
X2527240Y9104580D01*
Y6172200D01*
X627720D01*
Y7990620D01*
X518650Y8099690D01*
X519610Y8102650D01*
G03X462350Y8045390I-84610J27350D01*
G01X465310Y8046350D01*
X552280Y7959380D01*
Y6172200D01*
X472720D01*
Y7795480D01*
G03X397280I-37720J80520D01*
G01Y6172200D01*
X25400D01*
Y12319000D01*
X3225800D01*
Y10871480D01*
X7023100D01*
Y12319000D01*
X10325100D01*
Y6172200D01*
X9677020D01*
Y8923680D01*
X9819690Y9066350D01*
X9822650Y9065390D01*
G03X9765390Y9122650I27350J84610D01*
G01X9766350Y9119690D01*
X9601580Y8954920D01*
Y6172200D01*
X9450070D01*
G02X9442890Y6189540I4J10158D01*
G01X9524620Y6271280D01*
Y9025280D01*
X9819690Y9320350D01*
X9822650Y9319390D01*
G03X9765390Y9376650I27350J84610D01*
G01X9766350Y9373690D01*
X9449180Y9056520D01*
Y6302520D01*
X9318860Y6172200D01*
X7784720D01*
Y7216520D01*
X7462720Y7538520D01*
Y7805480D01*
G03X7387280I-37720J80520D01*
G01Y7507280D01*
X7709280Y7185280D01*
Y6172200D01*
X7517720D01*
Y7267620D01*
X7289420Y7495920D01*
Y7951080D01*
X7394690Y8056350D01*
X7397650Y8055390D01*
G03X7340390Y8112650I27350J84610D01*
G01X7341350Y8109690D01*
X7213980Y7982320D01*
Y7464680D01*
X7442280Y7236380D01*
Y6172200D01*
X5727700D01*
Y6121400D01*
X7442280D01*
Y5937480D01*
G03X7392520Y5887720I37720J-87480D01*
G01X6997960D01*
G03Y5812280I-42960J-37720D01*
G01X7392520D01*
G03X7517720Y5937480I87480J37720D01*
G01Y6121400D01*
X7709280D01*
Y5949780D01*
X7707280Y5947780D01*
Y5892960D01*
G03X7787960Y5812280I37720J-42960D01*
G01X8177520D01*
G03Y5887720I87480J37720D01*
G01X7787960D01*
G03X7782720Y5892960I-42960J-37720D01*
G01Y5916540D01*
X7784720Y5918540D01*
Y6121400D01*
X9243530D01*
G02X9250710Y6104060I-4J-10158D01*
G01X9085180Y5938530D01*
G03X8962520Y5887720I-35180J-88533D01*
G01X8557960D01*
G03Y5812280I-42960J-37720D01*
G01X8962520D01*
G03X9139660Y5882190I87479J37720D01*
G01X9138570Y5885220D01*
X9374740Y6121400D01*
X9601580D01*
Y6025080D01*
X9721590Y5905060D01*
G02X9714410Y5887720I-7184J-7182D01*
G01X9352960D01*
G03Y5812280I-42960J-37720D01*
G01X9742520D01*
G03X9797810Y5939660I87482J37717D01*
G01X9794780Y5938570D01*
X9677020Y6056320D01*
Y6121400D01*
X10325100D01*
Y25400D01*
X25400D01*
G37*
%LPC*%
G75*
G36*
G01X1965020Y7099680D02*
X1482980D01*
X1413280Y7169380D01*
Y7795480D01*
G02X1488720I37720J80520D01*
G01Y7303620D01*
G03X1507110Y7297670I10158J2D01*
G02X1572580Y7324890I54887J-39670D01*
G01X1575140Y7324480D01*
X1589830Y7339170D01*
Y9207830D01*
X1481310Y9316350D01*
X1478350Y9315390D01*
G02X1535610Y9372650I-27350J84610D01*
G01X1534650Y9369690D01*
X1655410Y9248940D01*
G03X1664080Y9252530I3592J3590D01*
G01Y9257420D01*
X1780350Y9373690D01*
X1779390Y9376650D01*
G02X1836650Y9319390I84610J27350D01*
G01X1833690Y9320350D01*
X1739520Y9226180D01*
Y7387820D01*
X1802860Y7324480D01*
X1805420Y7324890D01*
G02X1749110Y7268580I10580J-66890D01*
G01X1749520Y7271140D01*
X1682610Y7338040D01*
G03X1665270Y7330860I-7182J-7184D01*
G01Y7307930D01*
X1628480Y7271140D01*
X1628890Y7268580D01*
G02X1507110Y7218330I-66890J-10585D01*
G03X1488720Y7212380I-8232J-5952D01*
G01Y7200620D01*
X1514220Y7175120D01*
X1933780D01*
X2003520Y7244860D01*
X2003110Y7247420D01*
G02X2059420Y7191110I66890J10580D01*
G01X2056860Y7191520D01*
X1965020Y7099680D01*
G37*
G36*
G01X8962720Y7112380D02*
X8506080D01*
X8403280Y7215180D01*
Y7805480D01*
G02X8478720I37720J80520D01*
G01Y7308620D01*
G03X8497110Y7302670I10158J2D01*
G02X8514280Y7319240I54877J-39683D01*
G01Y7371320D01*
X8547480Y7404520D01*
Y9250180D01*
X8471310Y9326350D01*
X8468350Y9325390D01*
G02X8525610Y9382650I-27350J84610D01*
G01X8524650Y9379690D01*
X8622920Y9281420D01*
Y7373280D01*
X8589720Y7340080D01*
Y7319240D01*
G02X8589280Y7206460I-37719J-56244D01*
G03X8594870Y7187820I5590J-8482D01*
G01X8763130D01*
G03X8768720Y7206460I0J10158D01*
G02X8739110Y7273580I37280J56537D01*
G01X8739520Y7276140D01*
X8649080Y7366580D01*
Y9272420D01*
X8750350Y9373690D01*
X8749390Y9376650D01*
G02X8806650Y9319390I84610J27350D01*
G01X8803690Y9320350D01*
X8724520Y9241180D01*
Y7397820D01*
X8792860Y7329480D01*
X8795420Y7329890D01*
G02X8843280Y7206460I10585J-66890D01*
G03X8848870Y7187820I5590J-8482D01*
G01X8931480D01*
X8993520Y7249860D01*
X8993110Y7252420D01*
G02X9049420Y7196110I66890J10580D01*
G01X9046860Y7196520D01*
X8962720Y7112380D01*
G37*
G36*
G01X5623970Y2264950D02*
X5621010Y2265910D01*
X5456720Y2102330D01*
Y575240D01*
G02X5381280I-37720J-56240D01*
G01Y2133670D01*
X5567780Y2319370D01*
X5566830Y2322330D01*
G02X5623970Y2264950I84667J27172D01*
G37*
G36*
G01X5004270Y3402990D02*
X5157610Y3402690D01*
X5621030Y2941090D01*
X5623980Y2942050D01*
G02X5624030Y2772930I27522J-84552D01*
G01X5621070Y2773890D01*
X5329720Y2483350D01*
Y829240D01*
G02X5254280I-37720J-56240D01*
G01Y2514650D01*
X5567800Y2827310D01*
X5566850Y2830270D01*
G02X5566840Y2884690I84650J27226D01*
G01X5567790Y2887640D01*
X5126390Y3327310D01*
X4970010Y3327620D01*
X4968590Y3324860D01*
G02X4810390Y3324910I-79087J40642D01*
G01X4808970Y3327670D01*
X4607590Y3327400D01*
X4606230Y3324480D01*
G02X4606120Y3405750I-86228J40518D01*
G01X4607490Y3402840D01*
X4808870Y3403110D01*
X4810280Y3405880D01*
G02X4916550Y3450210I79224J-40378D01*
G01X4919510Y3449260D01*
X4991480Y3521750D01*
Y4224330D01*
X4919210Y4297630D01*
X4916250Y4296700D01*
G02X4973910Y4353550I-26752J84799D01*
G01X4972940Y4350600D01*
X5066920Y4255270D01*
Y3490650D01*
X4997080Y3420310D01*
G03X5004270Y3402990I7207J-7160D01*
G37*
G36*
G01X6948320Y2057780D02*
X6818480D01*
G02X6643520I-87480J37720D01*
G01X6265420D01*
G02X6104380I-80520J37720D01*
G01X5740420D01*
Y2006580D01*
X5562580D01*
Y2184420D01*
X5740420D01*
Y2133220D01*
X6104380D01*
G02X6265420I80520J-37720D01*
G01X6643520D01*
G02X6818480I87480J-37720D01*
G01X6948320D01*
G02Y2057780I87480J-37720D01*
G37*
G36*
G01X919660Y4291800D02*
X918580Y4288770D01*
X2659620Y2547720D01*
X4779490D01*
X4805690Y2573640D01*
X4804750Y2576600D01*
G02X4861700Y2519040I84751J26900D01*
G01X4858750Y2520010D01*
X4810510Y2472280D01*
X2628380D01*
X865230Y4235420D01*
X862200Y4234340D01*
G02X919660Y4291800I-32200J89660D01*
G37*
G36*
G01X5678820Y2688120D02*
X5681780Y2687160D01*
X7181370Y4187720D01*
X7810380D01*
X7916420Y4293770D01*
X7915340Y4296800D01*
G02X7972800Y4239340I89660J32200D01*
G01X7969770Y4240420D01*
X7841620Y4112280D01*
X7212630D01*
X5735140Y2633840D01*
X5736100Y2630880D01*
G02X5678820Y2688120I-84600J-27379D01*
G37*
G36*
G01X4607290Y2898310D02*
X4608670Y2895400D01*
X4809190Y2895800D01*
X4810610Y2898530D01*
G02X4810060Y2817550I78890J-41028D01*
G01X4808650Y2820360D01*
X4608820Y2819960D01*
X4607450Y2817040D01*
G02X4607290Y2898310I-86250J40465D01*
G37*
G36*
G01X1699660Y4291800D02*
X1698580Y4288770D01*
X2838620Y3148720D01*
X4808910Y3149200D01*
X4810320Y3151970D01*
G02X4810340Y3070990I79179J-40470D01*
G01X4808930Y3073760D01*
X2807380Y3073280D01*
X1645230Y4235420D01*
X1642200Y4234340D01*
G02X1699660Y4291800I-32200J89660D01*
G37*
G36*
G01X5732140Y3149100D02*
X5981400Y3148740D01*
X7126420Y4293770D01*
X7125340Y4296800D01*
G02X7182800Y4239340I89660J32200D01*
G01X7179770Y4240420D01*
X6012600Y3073260D01*
X5732030Y3073660D01*
X5730610Y3070900D01*
G02X5730730Y3151870I-79110J40602D01*
G01X5732140Y3149100D01*
G37*
G36*
G01X2479660Y4291800D02*
X2478580Y4288770D01*
X3110620Y3656720D01*
X4808910Y3657200D01*
X4810320Y3659960D01*
G02X4810340Y3578990I79180J-40465D01*
G01X4808930Y3581760D01*
X3079380Y3581280D01*
X2425190Y4235470D01*
G02X2479660Y4291800I-35191J88530D01*
G37*
G36*
G01X5678800Y3704120D02*
X5681760Y3703170D01*
X6535360Y4557720D01*
X8614620D01*
X8754770Y4417580D01*
X8757800Y4418660D01*
G02X8700340Y4361200I32200J-89660D01*
G01X8701420Y4364230D01*
X8583380Y4482280D01*
X6566640D01*
X5735140Y3649860D01*
X5736090Y3646900D01*
G02X5678800Y3704120I-84589J-27403D01*
G37*
G36*
G01X3382620Y4164730D02*
X4808900Y4165190D01*
X4810320Y4167960D01*
G02X4810350Y4086990I79181J-40456D01*
G01X4808930Y4089750D01*
X3351380Y4089270D01*
X3205230Y4235420D01*
X3202200Y4234340D01*
G02X3258530Y4288810I-32200J89661D01*
G01X3382620Y4164730D01*
G37*
G36*
G01X5678770Y4212140D02*
X5681730Y4211180D01*
X6142350Y4672720D01*
X9410620D01*
X9607720Y4475620D01*
Y4416480D01*
G02X9532280I-37720J-87480D01*
G01Y4444380D01*
X9379380Y4597280D01*
X6173650D01*
X5735120Y4157890D01*
X5736080Y4154940D01*
G02X5678770Y4212140I-84583J-27436D01*
G37*
G36*
G01X742520Y5377720D02*
G02X792280Y5427480I87480J-37720D01*
G01Y5529540D01*
X636540Y5685280D01*
X612960D01*
G02Y5760720I-42960J37720D01*
G01X667780D01*
X867720Y5560780D01*
Y5427480D01*
G02X742520Y5302280I-37720J-87480D01*
G01X657480D01*
G02Y5377720I-87480J37720D01*
G01X742520D01*
G37*
G36*
G01X1572280Y5427480D02*
Y5529540D01*
X1416540Y5685280D01*
X1392960D01*
G02Y5760720I-42960J37720D01*
G01X1447780D01*
X1647720Y5560780D01*
Y5427480D01*
G02X1522520Y5302280I-37720J-87480D01*
G01X1437480D01*
G02Y5377720I-87480J37720D01*
G01X1522520D01*
G02X1572280Y5427480I87480J-37720D01*
G37*
G36*
G01X2352280D02*
Y5529540D01*
X2196540Y5685280D01*
X2172960D01*
G02Y5760720I-42960J37720D01*
G01X2227780D01*
X2427720Y5560780D01*
Y5427480D01*
G02X2302520Y5302280I-37720J-87480D01*
G01X2217480D01*
G02Y5377720I-87480J37720D01*
G01X2302520D01*
G02X2352280Y5427480I87480J-37720D01*
G37*
G36*
G01X3132280D02*
Y5534380D01*
X2981380Y5685280D01*
X2952960D01*
G02Y5760720I-42960J37720D01*
G01X3012620D01*
X3207720Y5565620D01*
Y5427480D01*
G02X3082520Y5302280I-37720J-87480D01*
G01X2997480D01*
G02Y5377720I-87480J37720D01*
G01X3082520D01*
G02X3132280Y5427480I87480J-37720D01*
G37*
G36*
G01X7127520Y5307280D02*
X7042480D01*
G02Y5382720I-87480J37720D01*
G01X7127520D01*
G02X7177280Y5432480I87480J-37720D01*
G01Y5529540D01*
X7021540Y5685280D01*
X6997960D01*
G02Y5760720I-42960J37720D01*
G01X7052780D01*
X7252720Y5560780D01*
Y5432480D01*
G02X7127520Y5307280I-37720J-87480D01*
G37*
G36*
G01X7917520D02*
X7832480D01*
G02Y5382720I-87480J37720D01*
G01X7917520D01*
G02X7967280Y5432480I87480J-37720D01*
G01Y5530280D01*
X7812280Y5685280D01*
X7787960D01*
G02Y5760720I-42960J37720D01*
G01X7843520D01*
X8042720Y5561520D01*
Y5432480D01*
G02X7917520Y5307280I-37720J-87480D01*
G37*
G36*
G01X8702520D02*
X8617480D01*
G02Y5382720I-87480J37720D01*
G01X8702520D01*
G02X8752280Y5432480I87480J-37720D01*
G01Y5514540D01*
X8581540Y5685280D01*
X8557960D01*
G02Y5760720I-42960J37720D01*
G01X8612780D01*
X8827720Y5545780D01*
Y5432480D01*
G02X8702520Y5307280I-37720J-87480D01*
G37*
G36*
G01X9482520D02*
X9397480D01*
G02Y5382720I-87480J37720D01*
G01X9482520D01*
G02X9532280Y5432480I87480J-37720D01*
G01Y5529540D01*
X9376540Y5685280D01*
X9352960D01*
G02Y5760720I-42960J37720D01*
G01X9407780D01*
X9607720Y5560780D01*
Y5432480D01*
G02X9482520Y5307280I-37720J-87480D01*
G37*
G36*
G01X952720Y9879550D02*
Y9189620D01*
X1420690Y8721650D01*
X1423650Y8722610D01*
G02X1366390Y8665350I27350J-84610D01*
G01X1367350Y8668310D01*
X877280Y9158380D01*
Y9879550D01*
G02X952720I37720J120450D01*
G37*
G36*
G01X1891350Y8726610D02*
X1894310Y8725650D01*
X2095880Y8927220D01*
Y9496670D01*
X1902070Y9690480D01*
X1576170D01*
X1378540Y9888120D01*
X1375280Y9886530D01*
G02X1433470Y9944710I-55275J113474D01*
G01X1431880Y9941460D01*
X1607410Y9765920D01*
X1933310D01*
X2171320Y9527910D01*
Y8895980D01*
X1947650Y8672310D01*
X1948610Y8669350D01*
G02X1891350Y8726610I-84610J-27350D01*
G37*
G36*
G01X8861350D02*
X8864310Y8725650D01*
X9004680Y8866020D01*
Y9641980D01*
X8758500Y9888160D01*
G02X8813470Y9944720I-58497J111845D01*
G01X8811880Y9941460D01*
X9080120Y9673220D01*
Y8834780D01*
X8917650Y8672310D01*
X8918610Y8669350D01*
G02X8861350Y8726610I-84610J-27350D01*
G37*
G36*
G01X8225800Y9877460D02*
Y8916540D01*
X8410690Y8731650D01*
X8413650Y8732610D01*
G02X8356390Y8675350I27350J-84610D01*
G01X8357350Y8678310D01*
X8150360Y8885300D01*
Y9908700D01*
X8183160Y9941500D01*
G02X8239720Y9886530I111845J58497D01*
G01X8236460Y9888120D01*
X8225800Y9877460D01*
G37*
G36*
G01X9819260Y1356550D02*
X8013280D01*
Y1551320D01*
X8531440D01*
Y1750250D01*
X7365580D01*
Y1945020D01*
X9819260D01*
Y1356550D01*
G37*
G54D25*
X9310000Y5596000D03*
X8515000D03*
X7745000D03*
X6955000D03*
X2910000D03*
X2130000D03*
X1350000D03*
X570000D03*
G54D26*
X8700000Y10800000D03*
X1320000D03*
G54D24*
X9314000Y7263000D03*
X8933000Y7009000D03*
X9187000D03*
X8298000Y7263000D03*
X8171000Y7009000D03*
X8425000D03*
X8679000D03*
X5927000Y519000D03*
X6054000Y773000D03*
X5165000Y519000D03*
X5546000Y773000D03*
X5673000Y519000D03*
X5800000Y773000D03*
X4911000Y519000D03*
X5038000Y773000D03*
X2197000Y7004000D03*
X2324000Y7258000D03*
X1308000D03*
X1435000Y7004000D03*
X1689000D03*
X1943000D03*
X1181000D03*
G54D23*
X9105000Y10000000D03*
X1725000D03*
G54D22*
X9830000Y4834000D03*
X9050000D03*
X9310000Y4329000D03*
X8530000D03*
X8265000Y4834000D03*
X7745000Y4329000D03*
X7480000Y4834000D03*
X6955000Y4329000D03*
X6731000Y3111500D03*
X7035800D03*
X3430000Y4834000D03*
X2910000Y4324000D03*
X3504000Y3365000D03*
X3505200Y2857500D03*
X2130000Y4324000D03*
X2650000Y4834000D03*
X1350000Y4324000D03*
X1870000Y4834000D03*
X570000Y4324000D03*
X1090000Y4834000D03*
G54D29*
X8340000Y470000D03*
X5050000Y7470000D03*
X1710000Y470000D03*
G54D28*
X8030000Y7185000D03*
X4770000Y695000D03*
X1040000Y7180000D03*
G54D27*
X8834000Y9150000D03*
Y8896000D03*
X8441000Y8902000D03*
Y9156000D03*
X8834000Y8388000D03*
X8441000Y8394000D03*
Y8140000D03*
X8834000Y8134000D03*
Y7880000D03*
X6184900Y1841500D03*
X5651500Y4381500D03*
Y3873500D03*
Y3365500D03*
X4889500Y3873500D03*
Y2349500D03*
Y2095500D03*
X1451000Y8892000D03*
Y9146000D03*
X1864000Y8896000D03*
Y9150000D03*
X1451000Y8130000D03*
Y8384000D03*
X1864000Y8134000D03*
Y8388000D03*
Y7880000D03*
G54D21*
X9850000D03*
X7425000Y9410000D03*
X2880000Y7880000D03*
X435000Y9400000D03*
%LPD*%
G75*
G54D10*
X435000Y7876000D03*
Y8130000D03*
X1451000Y7876000D03*
X1864000Y7880000D03*
X1451000Y8638000D03*
Y8384000D03*
Y8130000D03*
X1864000Y8134000D03*
Y8388000D03*
Y8642000D03*
X1451000Y9400000D03*
Y9146000D03*
Y8892000D03*
X1864000Y8896000D03*
Y9150000D03*
Y9404000D03*
X2880000D03*
Y9150000D03*
X4889500Y2095500D03*
Y2349500D03*
Y2603500D03*
Y2857500D03*
Y3111500D03*
Y3365500D03*
Y3619500D03*
Y3873500D03*
Y4127500D03*
Y4381500D03*
X5651500Y2603500D03*
Y2349500D03*
Y3365500D03*
Y3111500D03*
Y2857500D03*
Y4127500D03*
Y3873500D03*
Y3619500D03*
Y4381500D03*
X6184900Y1841500D03*
Y2095500D03*
X7425000Y7886000D03*
Y8140000D03*
X8441000Y7886000D03*
X8834000Y7880000D03*
X8441000Y8648000D03*
Y8394000D03*
Y8140000D03*
X8834000Y8134000D03*
Y8388000D03*
Y8642000D03*
X8441000Y9410000D03*
Y9156000D03*
Y8902000D03*
X8834000Y8896000D03*
Y9150000D03*
Y9404000D03*
X9850000D03*
Y9150000D03*
G54D20*
G01X435000Y9306000D02*
Y9400000D01*
G01D02*
Y9494000D01*
G01X341000Y9400000D02*
X435000D01*
G01D02*
X529000D01*
G01X1090000Y4733650D02*
Y4834000D01*
G01D02*
Y4934350D01*
G01X989650Y4834000D02*
X1090000D01*
G01D02*
X1190350D01*
G01X1181000Y6931200D02*
Y7004000D01*
G01D02*
Y7076800D01*
G01X1108200Y7004000D02*
X1181000D01*
G01D02*
X1253800D01*
G01X1112200Y10800000D02*
X1320000D01*
G01X1870000Y4733650D02*
Y4834000D01*
G01D02*
Y4934350D01*
G01X1769650Y4834000D02*
X1870000D01*
G01D02*
X1970350D01*
G01X1435000Y6931200D02*
Y7004000D01*
G01D02*
Y7076800D01*
G01X1362200Y7004000D02*
X1435000D01*
G01D02*
X1507800D01*
G01X1689000Y6931200D02*
Y7004000D01*
G01D02*
Y7076800D01*
G01X1616200Y7004000D02*
X1689000D01*
G01D02*
X1761800D01*
G01X1943000Y6931200D02*
Y7004000D01*
G01D02*
Y7076800D01*
G01X1870200Y7004000D02*
X1943000D01*
G01D02*
X2015800D01*
G01X1451000Y8036000D02*
Y8130000D01*
G01D02*
Y8224000D01*
G01X1357000Y8130000D02*
X1451000D01*
G01D02*
X1545000D01*
G01X1451000Y8290000D02*
Y8384000D01*
G01D02*
Y8478000D01*
G01X1357000Y8384000D02*
X1451000D01*
G01D02*
X1545000D01*
G01X1864000Y8040000D02*
Y8134000D01*
G01D02*
Y8228000D01*
G01X1770000Y8134000D02*
X1864000D01*
G01D02*
X1958000D01*
G01X1864000Y8294000D02*
Y8388000D01*
G01D02*
Y8482000D01*
G01X1770000Y8388000D02*
X1864000D01*
G01D02*
X1958000D01*
G01X1451000Y8798000D02*
Y8892000D01*
G01D02*
Y8986000D01*
G01X1357000Y8892000D02*
X1451000D01*
G01D02*
X1545000D01*
G01X1451000Y9052000D02*
Y9146000D01*
G01D02*
Y9240000D01*
G01X1357000Y9146000D02*
X1451000D01*
G01D02*
X1545000D01*
G01X1864000Y8802000D02*
Y8896000D01*
G01D02*
Y8990000D01*
G01X1770000Y8896000D02*
X1864000D01*
G01D02*
X1958000D01*
G01X1864000Y9056000D02*
Y9150000D01*
G01D02*
Y9244000D01*
G01X1770000Y9150000D02*
X1864000D01*
G01D02*
X1958000D01*
G01X1725000Y9868700D02*
Y10000000D01*
G01D02*
Y10131300D01*
G01X1593700Y10000000D02*
X1725000D01*
G01D02*
X1856300D01*
G01X1320000Y10592200D02*
Y10800000D01*
G01D02*
Y11007800D01*
G01Y10800000D02*
X1527800D01*
G01X2650000Y4733650D02*
Y4834000D01*
G01D02*
Y4934350D01*
G01X2549650Y4834000D02*
X2650000D01*
G01D02*
X2750350D01*
G01X2197000Y6931200D02*
Y7004000D01*
G01D02*
Y7076800D01*
G01X2124200Y7004000D02*
X2197000D01*
G01D02*
X2269800D01*
G01X2324000Y7185200D02*
Y7258000D01*
G01D02*
Y7330800D01*
G01X2251200Y7258000D02*
X2324000D01*
G01D02*
X2396800D01*
G01X3430000Y4733650D02*
Y4834000D01*
G01D02*
Y4934350D01*
G01X3329650Y4834000D02*
X3430000D01*
G01D02*
X3530350D01*
G01X2880000Y7786000D02*
Y7880000D01*
G01D02*
Y7974000D01*
G01X2786000Y7880000D02*
X2880000D01*
G01D02*
X2974000D01*
G01X5651500Y4287500D02*
Y4381500D01*
G01D02*
Y4475500D01*
G01X5557500Y4381500D02*
X5651500D01*
G01D02*
X5745500D01*
G01X5927000Y446200D02*
Y519000D01*
G01D02*
Y591800D01*
G01X5854200Y519000D02*
X5927000D01*
G01D02*
X5999800D01*
G01X6054000Y700200D02*
Y773000D01*
G01D02*
Y845800D01*
G01X5981200Y773000D02*
X6054000D01*
G01D02*
X6126800D01*
G01X6731000Y3011150D02*
Y3111500D01*
G01D02*
Y3211850D01*
G01X6630650Y3111500D02*
X6731000D01*
G01D02*
X6831350D01*
G01X7035800Y3011150D02*
Y3111500D01*
G01D02*
Y3211850D01*
G01X6935450Y3111500D02*
X7035800D01*
G01D02*
X7136150D01*
G01X7480000Y4733650D02*
Y4834000D01*
G01D02*
Y4934350D01*
G01X7379650Y4834000D02*
X7480000D01*
G01D02*
X7580350D01*
G01X7425000Y9316000D02*
Y9410000D01*
G01D02*
Y9504000D01*
G01X7331000Y9410000D02*
X7425000D01*
G01D02*
X7519000D01*
G01X8265000Y4733650D02*
Y4834000D01*
G01D02*
Y4934350D01*
G01X8164650Y4834000D02*
X8265000D01*
G01D02*
X8365350D01*
G01X8171000Y6936200D02*
Y7009000D01*
G01D02*
Y7081800D01*
G01X8098200Y7009000D02*
X8171000D01*
G01D02*
X8243800D01*
G01X8425000Y6936200D02*
Y7009000D01*
G01D02*
Y7081800D01*
G01X8352200Y7009000D02*
X8425000D01*
G01D02*
X8497800D01*
G01X8679000Y6936200D02*
Y7009000D01*
G01D02*
Y7081800D01*
G01X8606200Y7009000D02*
X8679000D01*
G01D02*
X8751800D01*
G01X8834000Y8294000D02*
Y8388000D01*
G01D02*
Y8482000D01*
G01X8740000Y8388000D02*
X8834000D01*
G01D02*
X8928000D01*
G01X8441000Y8300000D02*
Y8394000D01*
G01D02*
Y8488000D01*
G01X8347000Y8394000D02*
X8441000D01*
G01D02*
X8535000D01*
G01X8441000Y8046000D02*
Y8140000D01*
G01D02*
Y8234000D01*
G01X8347000Y8140000D02*
X8441000D01*
G01D02*
X8535000D01*
G01X8834000Y8040000D02*
Y8134000D01*
G01D02*
Y8228000D01*
G01X8740000Y8134000D02*
X8834000D01*
G01D02*
X8928000D01*
G01X8834000Y9056000D02*
Y9150000D01*
G01D02*
Y9244000D01*
G01X8740000Y9150000D02*
X8834000D01*
G01D02*
X8928000D01*
G01X8834000Y8802000D02*
Y8896000D01*
G01D02*
Y8990000D01*
G01X8740000Y8896000D02*
X8834000D01*
G01D02*
X8928000D01*
G01X8441000Y8808000D02*
Y8902000D01*
G01D02*
Y8996000D01*
G01X8347000Y8902000D02*
X8441000D01*
G01D02*
X8535000D01*
G01X8441000Y9062000D02*
Y9156000D01*
G01D02*
Y9250000D01*
G01X8347000Y9156000D02*
X8441000D01*
G01D02*
X8535000D01*
G01X8700000Y10592200D02*
Y10800000D01*
G01D02*
Y11007800D01*
G01X8492200Y10800000D02*
X8700000D01*
G01D02*
X8907800D01*
G01X9050000Y4733650D02*
Y4834000D01*
G01D02*
Y4934350D01*
G01X8949650Y4834000D02*
X9050000D01*
G01D02*
X9150350D01*
G01X9314000Y7190200D02*
Y7263000D01*
G01X8933000Y6936200D02*
Y7009000D01*
G01D02*
Y7081800D01*
G01X8860200Y7009000D02*
X8933000D01*
G01D02*
X9005800D01*
G01X9187000Y6936200D02*
Y7009000D01*
G01D02*
Y7081800D01*
G01X9114200Y7009000D02*
X9187000D01*
G01D02*
X9259800D01*
G01X9314000Y7263000D02*
Y7335800D01*
G01X9241200Y7263000D02*
X9314000D01*
G01D02*
X9386800D01*
G01X9105000Y9868700D02*
Y10000000D01*
G01D02*
Y10131300D01*
G01X8973700Y10000000D02*
X9105000D01*
G01D02*
X9236300D01*
G01X9830000Y4733650D02*
Y4834000D01*
G01D02*
Y4934350D01*
G01X9729650Y4834000D02*
X9830000D01*
G01D02*
X9930350D01*
G01X9850000Y7786000D02*
Y7880000D01*
G01D02*
Y7974000D01*
G01X9756000Y7880000D02*
X9850000D01*
G01D02*
X9944000D01*
G54D11*
X435000Y9400000D03*
X2880000Y7880000D03*
X5651500Y2095500D03*
X7425000Y9410000D03*
X9850000Y7880000D03*
G54D12*
X1090000Y4834000D03*
X830000Y4324000D03*
X570000D03*
X830000Y5340000D03*
X570000D03*
X1090000Y5850000D03*
X1870000Y4834000D03*
X1610000Y4324000D03*
X1350000D03*
X1610000Y5340000D03*
X1350000D03*
X1870000Y5850000D03*
X2650000Y4834000D03*
X2390000Y4324000D03*
X2130000D03*
X2390000Y5340000D03*
X2130000D03*
X2650000Y5850000D03*
X3504000Y3365000D03*
X3505200Y2857500D03*
X3430000Y4834000D03*
X3170000Y4324000D03*
X2910000D03*
X3170000Y5340000D03*
X2910000D03*
X3430000Y5850000D03*
X4520000Y3365000D03*
X4521200Y2857500D03*
X6731000Y2095500D03*
X7035800D03*
X6731000Y3111500D03*
X7035800D03*
X7215000Y4329000D03*
X6955000D03*
X7215000Y5345000D03*
X6955000D03*
X7480000Y4834000D03*
X8005000Y4329000D03*
X7745000D03*
X8005000Y5345000D03*
X7745000D03*
X7480000Y5850000D03*
X8265000Y4834000D03*
X8790000Y4329000D03*
X8530000D03*
X8790000Y5345000D03*
X8530000D03*
X8265000Y5850000D03*
X9050000Y4834000D03*
X9570000Y4329000D03*
X9310000D03*
X9570000Y5345000D03*
X9310000D03*
X9050000Y5850000D03*
X9830000Y4834000D03*
Y5850000D03*
G54D13*
X570000Y5596000D03*
Y5723000D03*
Y5850000D03*
X1350000Y5596000D03*
Y5723000D03*
Y5850000D03*
X2130000Y5596000D03*
Y5723000D03*
Y5850000D03*
X2910000Y5596000D03*
Y5723000D03*
Y5850000D03*
X6955000Y5596000D03*
Y5723000D03*
Y5850000D03*
X7745000Y5596000D03*
Y5723000D03*
Y5850000D03*
X8515000Y5596000D03*
Y5723000D03*
Y5850000D03*
X9310000Y5596000D03*
Y5723000D03*
Y5850000D03*
G54D14*
X1040000Y7180000D03*
X4770000Y695000D03*
X8030000Y7185000D03*
G54D15*
X1181000Y7004000D03*
X1943000D03*
X1816000Y7258000D03*
X1689000Y7004000D03*
X1562000Y7258000D03*
X1435000Y7004000D03*
X1308000Y7258000D03*
X2324000D03*
X2197000Y7004000D03*
X2070000Y7258000D03*
X5038000Y773000D03*
X4911000Y519000D03*
X5800000Y773000D03*
X5673000Y519000D03*
X5546000Y773000D03*
X5419000Y519000D03*
X5292000Y773000D03*
X5165000Y519000D03*
X6054000Y773000D03*
X5927000Y519000D03*
X8679000Y7009000D03*
X8425000D03*
X8171000D03*
X8806000Y7263000D03*
X8552000D03*
X8298000D03*
X9187000Y7009000D03*
X8933000D03*
X9314000Y7263000D03*
X9060000D03*
G54D16*
X915000Y10000000D03*
X1320000D03*
X1725000D03*
X8295000D03*
X8700000D03*
X9105000D03*
G54D17*
X1320000Y10800000D03*
X8700000D03*
G54D18*
X1710000Y470000D03*
X5050000Y7470000D03*
X8340000Y470000D03*
G54D19*
G01X435000Y7876000D02*
Y5985000D01*
X570000Y5850000D01*
G01X435000Y8130000D02*
X590000Y7975000D01*
Y6085010D01*
X675010Y6000000D01*
X1200000D01*
X1350000Y5850000D01*
G01X4889500Y2603500D02*
X4795000Y2510000D01*
X2644000D01*
X830000Y4324000D01*
G01Y5340000D02*
X570000D01*
G01Y5723000D02*
X652160D01*
X830000Y5545160D01*
Y5340000D01*
G01X1090000Y5850000D02*
X570000D01*
G01X1451000Y8638000D02*
X915000Y9174000D01*
Y10000000D01*
G01X4889500Y3111500D02*
X2823000Y3111000D01*
X1610000Y4324000D01*
G01X1350000Y5340000D02*
X1610000D01*
G01X1350000Y5723000D02*
X1432160D01*
X1610000Y5545160D01*
Y5340000D01*
G01X1870000Y5850000D02*
X1350000D01*
G01X2070000Y7258000D02*
X1949400Y7137400D01*
X1498600D01*
X1451000Y7185000D01*
Y7876000D01*
G01X1816000Y7258000D02*
X1701800Y7372200D01*
Y9241800D01*
X1864000Y9404000D01*
G01X1451000Y9400000D02*
X1627550Y9223450D01*
Y7323550D01*
X1562000Y7258000D01*
G01X1864000Y8642000D02*
X2133600Y8911600D01*
Y9512290D01*
X1917690Y9728200D01*
X1591790D01*
X1320000Y10000000D01*
G01X4889500Y3619500D02*
X3095000Y3619000D01*
X2390000Y4324000D01*
G01X2130000Y5340000D02*
X2390000D01*
G01D02*
Y5545160D01*
X2212160Y5723000D01*
X2130000D01*
G01X2650000Y5850000D02*
X2130000D01*
G01X2650000D02*
X2564960Y5935040D01*
Y9088960D01*
X2880000Y9404000D01*
G01X2910000Y5850000D02*
X2730500Y6029500D01*
Y9000500D01*
X2880000Y9150000D01*
G01X4889500Y4127500D02*
X3367000Y4127000D01*
X3170000Y4324000D01*
G01Y5340000D02*
Y5550000D01*
X2997000Y5723000D01*
X2910000D01*
G01X3170000Y5340000D02*
X2910000D01*
G01Y5850000D02*
X3430000D01*
G01X4520000Y3365000D02*
X4889500Y3365500D01*
G01D02*
X5029200Y3506200D01*
Y4239800D01*
X4889500Y4381500D01*
G01X5651500Y2857500D02*
X5142000Y3365000D01*
X4889500Y3365500D01*
G01X4521200Y2857500D02*
X4888750Y2858240D01*
X4889500Y2857500D01*
G01X5292000Y773000D02*
Y2499000D01*
X5651500Y2857500D01*
G01Y2349500D02*
X5419000Y2118000D01*
Y519000D01*
G01X5651500Y2603500D02*
X7197000Y4150000D01*
X7826000D01*
X8005000Y4329000D01*
G01X6184900Y2095500D02*
X5651500D01*
G01Y3111500D02*
X5997000Y3111000D01*
X7215000Y4329000D01*
G01X5651500Y3619500D02*
X6551000Y4520000D01*
X8599000D01*
X8790000Y4329000D01*
G01X5651500Y4127500D02*
X6158000Y4635000D01*
X9395000D01*
X9570000Y4460000D01*
Y4329000D01*
G01X6731000Y2095500D02*
X6184900D01*
G01X7035800D02*
X6731000D01*
G01X7215000Y5345000D02*
X6955000D01*
G01X7215000D02*
Y5545160D01*
X7037160Y5723000D01*
X6955000D01*
G01Y5850000D02*
X7480000D01*
G01D02*
Y7252000D01*
X7251700Y7480300D01*
Y7966700D01*
X7425000Y8140000D01*
G01X7745000Y5345000D02*
X8005000D01*
G01D02*
Y5545900D01*
X7827900Y5723000D01*
X7745000D01*
G01Y5850000D02*
X8265000D01*
G01X7425000Y7886000D02*
Y7522900D01*
X7747000Y7200900D01*
Y5934160D01*
X7745000Y5932160D01*
Y5850000D01*
G01X8530000Y5345000D02*
X8790000D01*
G01D02*
Y5530160D01*
X8597160Y5723000D01*
X8515000D01*
G01Y5850000D02*
X9050000D01*
G01X8441000Y7886000D02*
Y7230800D01*
X8521700Y7150100D01*
X8947100D01*
X9060000Y7263000D01*
G01X8806000D02*
X8686800Y7382200D01*
Y9256800D01*
X8834000Y9404000D01*
G01X8552000Y7263000D02*
Y7355700D01*
X8585200Y7388900D01*
Y9265800D01*
X8441000Y9410000D01*
G01Y8648000D02*
X8188080Y8900920D01*
Y9893080D01*
X8295000Y10000000D01*
G01X8700000D02*
X9042400Y9657600D01*
Y8850400D01*
X8834000Y8642000D01*
G01X9310000Y5345000D02*
X9570000D01*
G01D02*
Y5545160D01*
X9392160Y5723000D01*
X9310000D01*
G01X9850000Y9404000D02*
X9486900Y9040900D01*
Y6286900D01*
X9050000Y5850000D01*
G01X9310000D02*
X9830000D01*
G01X9850000Y9150000D02*
X9639300Y8939300D01*
Y6040700D01*
X9830000Y5850000D01*
M02*
