G04 ================== begin FILE IDENTIFICATION RECORD ==================*
G04 Layout Name:  F:/PT8618/dia/allegro/PT8618_1.brd*
G04 Film Name:    TOP_ASSYDRAWING*
G04 File Format:  Gerber RS274X*
G04 File Origin:  Cadence Allegro 16.6-P004*
G04 Origin Date:  Thu Feb 14 14:44:22 2013*
G04 *
G04 Layer:  REF DES/ASSEMBLY_TOP*
G04 Layer:  PACKAGE GEOMETRY/ASSEMBLY_TOP*
G04 Layer:  BOARD GEOMETRY/OUTLINE*
G04 Layer:  BOARD GEOMETRY/ASSEMBLY_NOTES*
G04 *
G04 Offset:    (0.0000 0.0000)*
G04 Mirror:    No*
G04 Mode:      Positive*
G04 Rotation:  0*
G04 FullContactRelief:  No*
G04 UndefLineWidth:     0.0500*
G04 ================== end FILE IDENTIFICATION RECORD ====================*
%FSLAX45Y45*MOMM*%
%IR0*IPPOS*OFA0.00000B0.00000*MIA0B0*SFA1.00000B1.00000*%
%ADD10C,.1*%
%ADD11C,.05*%
G75*
%LPD*%
G75*
G54D10*
G01X900000Y6880000D02*
Y7385000D01*
X2505000D01*
Y6880000D01*
X900000D01*
G01X4630000Y395000D02*
Y900000D01*
X6235000D01*
Y395000D01*
X4630000D01*
G01X7890000Y6885000D02*
Y7390000D01*
X9495000D01*
Y6885000D01*
X7890000D01*
G54D11*
G01X1150000Y1200000D02*
G03I-150000J0D01*
G01X1050000D02*
G03I-50000J0D01*
G01X8415330Y2623330D02*
X8434000Y2730000D01*
G01X8452670D02*
X8434000Y2623330D01*
G01X8406000Y2663330D02*
X8462000D01*
G01Y2690000D02*
X8406000D01*
G01X8479330Y2650000D02*
Y2730000D01*
X8502670D01*
X8510130Y2726000D01*
X8514800Y2720670D01*
X8516670Y2710000D01*
X8514800Y2699330D01*
X8509200Y2692670D01*
X8502670Y2688670D01*
X8479330D01*
G01X8502670D02*
X8516670Y2650000D01*
G01X8580670D02*
X8543330D01*
Y2730000D01*
X8580670D01*
G01X8565730Y2691330D02*
X8543330D01*
G01X8608270Y2650000D02*
Y2730000D01*
X8643730D01*
G01X8630670Y2691330D02*
X8608270D01*
G01X10050000Y12000000D02*
G03I-50000J0D01*
G01X10150000D02*
G03I-150000J0D01*
G01X0Y0D02*
Y12350000D01*
X710000D01*
Y12050000D01*
X960000D01*
Y12350000D01*
X1680000D01*
Y12050000D01*
X1930000D01*
Y12350000D01*
X3250000D01*
Y10900000D01*
X7000000D01*
Y12350000D01*
X8090000D01*
Y12050000D01*
X8340000D01*
Y12350000D01*
X9060000D01*
Y12050000D01*
X9310000D01*
Y12350000D01*
X10350000D01*
Y0D01*
X0D01*
G01X697000Y4476400D02*
X443000D01*
Y5187600D01*
X697000D01*
G01X433580Y7010400D02*
X501140Y7137400D01*
G01X433580D02*
X501140Y7010400D01*
G01X556680D02*
X596900Y7137400D01*
X637120Y7010400D01*
G01X622640Y7054850D02*
X571160D01*
G01X745740Y7010400D02*
Y7137400D01*
X686220Y7046380D01*
X766660D01*
G01X331050Y9613900D02*
Y9740900D01*
X371260D01*
X384130Y9734550D01*
X392180Y9726080D01*
X395390Y9709150D01*
X392180Y9692220D01*
X382520Y9681630D01*
X371260Y9675280D01*
X331050D01*
G01X371260D02*
X395390Y9613900D01*
G01X524930D02*
X460590D01*
Y9740900D01*
X524930D01*
G01X499190Y9679520D02*
X460590D01*
G01X641600Y9613900D02*
Y9740900D01*
X582080Y9649880D01*
X662520D01*
G01X751840Y9740900D02*
X738970Y9736670D01*
X729320Y9726080D01*
X722880Y9713390D01*
X718060Y9696450D01*
X716450Y9677400D01*
X718060Y9658350D01*
X722880Y9641410D01*
X729320Y9628710D01*
X738970Y9618130D01*
X751840Y9613900D01*
X764710Y9618130D01*
X774360Y9628710D01*
X780800Y9641410D01*
X785620Y9658350D01*
X787230Y9677400D01*
X785620Y9696450D01*
X780800Y9713390D01*
X774360Y9726080D01*
X764710Y9736670D01*
X751840Y9740900D01*
G01X881380Y9613900D02*
Y9740900D01*
X862080Y9715500D01*
G01Y9613900D02*
X900680D01*
G01X200000Y12550000D02*
X2440000D01*
Y10350000D01*
X200000D01*
Y12550000D01*
G01Y12350000D02*
X2440000D01*
G01X559210Y2764350D02*
X568870Y2777050D01*
X580130Y2783400D01*
X593000Y2785520D01*
X609080Y2781290D01*
X620350Y2770700D01*
X623560Y2758010D01*
X621950Y2745300D01*
X615520Y2734720D01*
X583350Y2713550D01*
X568870Y2698740D01*
X559210Y2677570D01*
X556000Y2658520D01*
X623560D01*
G01X719320Y2785520D02*
X706450Y2781290D01*
X696800Y2770700D01*
X690360Y2758010D01*
X685540Y2741070D01*
X683930Y2722020D01*
X685540Y2702970D01*
X690360Y2686030D01*
X696800Y2673330D01*
X706450Y2662750D01*
X719320Y2658520D01*
X732190Y2662750D01*
X741840Y2673330D01*
X748280Y2686030D01*
X753100Y2702970D01*
X754710Y2722020D01*
X753100Y2741070D01*
X748280Y2758010D01*
X741840Y2770700D01*
X732190Y2781290D01*
X719320Y2785520D01*
G01X848860Y2658520D02*
Y2785520D01*
X829560Y2760120D01*
G01Y2658520D02*
X868160D01*
G01X943010Y2683920D02*
X952660Y2669100D01*
X965530Y2660640D01*
X980010Y2658520D01*
X992880Y2660640D01*
X1005750Y2671220D01*
X1013790Y2683920D01*
X1015400Y2696620D01*
X1012180Y2711430D01*
X1000920Y2722020D01*
X989660Y2726250D01*
X975180D01*
G01X989660D02*
X999310Y2732600D01*
X1007360Y2743180D01*
X1010570Y2755890D01*
X1007360Y2768590D01*
X999310Y2779170D01*
X984830Y2785520D01*
X970360Y2783400D01*
X955880Y2774940D01*
G01X1107940Y2654290D02*
X1104720Y2656400D01*
Y2660640D01*
X1107940Y2662750D01*
X1111160Y2660640D01*
Y2656400D01*
X1107940Y2654290D01*
G01X1237480Y2785520D02*
X1224610Y2781290D01*
X1214960Y2770700D01*
X1208520Y2758010D01*
X1203700Y2741070D01*
X1202090Y2722020D01*
X1203700Y2702970D01*
X1208520Y2686030D01*
X1214960Y2673330D01*
X1224610Y2662750D01*
X1237480Y2658520D01*
X1250350Y2662750D01*
X1260000Y2673330D01*
X1266440Y2686030D01*
X1271260Y2702970D01*
X1272870Y2722020D01*
X1271260Y2741070D01*
X1266440Y2758010D01*
X1260000Y2770700D01*
X1250350Y2781290D01*
X1237480Y2785520D01*
G01X1336450Y2764350D02*
X1346110Y2777050D01*
X1357370Y2783400D01*
X1370240Y2785520D01*
X1386320Y2781290D01*
X1397590Y2770700D01*
X1400800Y2758010D01*
X1399190Y2745300D01*
X1392760Y2734720D01*
X1360590Y2713550D01*
X1346110Y2698740D01*
X1336450Y2677570D01*
X1333240Y2658520D01*
X1400800D01*
G01X1496560Y2654290D02*
X1493340Y2656400D01*
Y2660640D01*
X1496560Y2662750D01*
X1499780Y2660640D01*
Y2656400D01*
X1496560Y2654290D01*
G01X1626100Y2658520D02*
Y2785520D01*
X1606800Y2760120D01*
G01Y2658520D02*
X1645400D01*
G01X1774940D02*
Y2785520D01*
X1715420Y2694500D01*
X1795860D01*
G01X609080Y2455320D02*
Y2582320D01*
X549560Y2491300D01*
X630000D01*
G01X719320Y2582320D02*
X706450Y2578090D01*
X696800Y2567500D01*
X690360Y2554810D01*
X685540Y2537870D01*
X683930Y2518820D01*
X685540Y2499770D01*
X690360Y2482830D01*
X696800Y2470130D01*
X706450Y2459550D01*
X719320Y2455320D01*
X732190Y2459550D01*
X741840Y2470130D01*
X748280Y2482830D01*
X753100Y2499770D01*
X754710Y2518820D01*
X753100Y2537870D01*
X748280Y2554810D01*
X741840Y2567500D01*
X732190Y2578090D01*
X719320Y2582320D01*
G01X848860D02*
X835990Y2578090D01*
X826340Y2567500D01*
X819900Y2554810D01*
X815080Y2537870D01*
X813470Y2518820D01*
X815080Y2499770D01*
X819900Y2482830D01*
X826340Y2470130D01*
X835990Y2459550D01*
X848860Y2455320D01*
X861730Y2459550D01*
X871380Y2470130D01*
X877820Y2482830D01*
X882640Y2499770D01*
X884250Y2518820D01*
X882640Y2537870D01*
X877820Y2554810D01*
X871380Y2567500D01*
X861730Y2578090D01*
X848860Y2582320D01*
G01X978400Y2455320D02*
X989660Y2457440D01*
X1002530Y2463780D01*
X1010570Y2474370D01*
X1013790Y2489190D01*
X1010570Y2504000D01*
X1000920Y2516700D01*
X986440Y2523050D01*
X970360D01*
X960700Y2527290D01*
X952660Y2537870D01*
X949440Y2552690D01*
X954270Y2567500D01*
X965530Y2578090D01*
X978400Y2582320D01*
X991270Y2578090D01*
X1002530Y2567500D01*
X1007360Y2552690D01*
X1004140Y2537870D01*
X996100Y2527290D01*
X986440Y2523050D01*
X970360D01*
X955880Y2516700D01*
X946230Y2504000D01*
X943010Y2489190D01*
X946230Y2474370D01*
X954270Y2463780D01*
X967140Y2457440D01*
X978400Y2455320D01*
G01X1237480D02*
Y2582320D01*
X1218180Y2556920D01*
G01Y2455320D02*
X1256780D01*
G01X1367020D02*
Y2582320D01*
X1347720Y2556920D01*
G01Y2455320D02*
X1386320D01*
G01X1493340D02*
X1496560Y2482830D01*
X1501390Y2506120D01*
X1507820Y2527290D01*
X1515860Y2550570D01*
X1528730Y2582320D01*
X1464390D01*
G01X1755640D02*
X1742770Y2578090D01*
X1733120Y2567500D01*
X1726680Y2554810D01*
X1721860Y2537870D01*
X1720250Y2518820D01*
X1721860Y2499770D01*
X1726680Y2482830D01*
X1733120Y2470130D01*
X1742770Y2459550D01*
X1755640Y2455320D01*
X1768510Y2459550D01*
X1778160Y2470130D01*
X1784600Y2482830D01*
X1789420Y2499770D01*
X1791030Y2518820D01*
X1789420Y2537870D01*
X1784600Y2554810D01*
X1778160Y2567500D01*
X1768510Y2578090D01*
X1755640Y2582320D01*
G01X1854610Y2508230D02*
X1865880Y2523050D01*
X1875530Y2531520D01*
X1888400Y2535750D01*
X1899660Y2531520D01*
X1907700Y2523050D01*
X1914140Y2510350D01*
X1915750Y2495540D01*
X1914140Y2482830D01*
X1907700Y2470130D01*
X1898050Y2459550D01*
X1886790Y2455320D01*
X1873920Y2459550D01*
X1862660Y2472250D01*
X1856220Y2491300D01*
X1854610Y2512470D01*
X1857830Y2539980D01*
X1862660Y2554810D01*
X1870700Y2569620D01*
X1881960Y2580200D01*
X1893220Y2582320D01*
X1904480Y2578090D01*
X1912530Y2567500D01*
G01X2034020Y2455320D02*
Y2582320D01*
X1974500Y2491300D01*
X2054940D01*
G01X2108870Y2480720D02*
X2118520Y2465900D01*
X2131390Y2457440D01*
X2145870Y2455320D01*
X2158740Y2457440D01*
X2171610Y2468020D01*
X2179650Y2480720D01*
X2181260Y2493420D01*
X2178040Y2508230D01*
X2166780Y2518820D01*
X2155520Y2523050D01*
X2141040D01*
G01X2155520D02*
X2165170Y2529400D01*
X2173220Y2539980D01*
X2176430Y2552690D01*
X2173220Y2565390D01*
X2165170Y2575970D01*
X2150690Y2582320D01*
X2136220Y2580200D01*
X2121740Y2571740D01*
G01X2293100Y2455320D02*
Y2582320D01*
X2233580Y2491300D01*
X2314020D01*
G01X554390Y2849020D02*
Y2976020D01*
X586560D01*
X599430Y2969670D01*
X609080Y2961200D01*
X617130Y2948510D01*
X623560Y2933680D01*
X625170Y2912520D01*
X623560Y2891350D01*
X617130Y2876530D01*
X609080Y2863830D01*
X599430Y2855370D01*
X586560Y2849020D01*
X554390D01*
G01X683930D02*
Y2976020D01*
G01X745060D02*
X683930Y2897700D01*
G01X754710Y2849020D02*
X711280Y2933680D01*
G01X827950Y2891350D02*
X869770D01*
G01X978400Y2976020D02*
Y2849020D01*
G01X941400Y2976020D02*
X1015400D01*
G01X1083810Y2906170D02*
X1135290D01*
X1130460Y2920990D01*
X1122420Y2929450D01*
X1111160Y2933680D01*
X1099900Y2931570D01*
X1090240Y2925220D01*
X1083810Y2910400D01*
X1080590Y2897700D01*
Y2885000D01*
X1083810Y2872300D01*
X1091850Y2859600D01*
X1101510Y2851140D01*
X1112770Y2849020D01*
X1124030Y2853250D01*
X1135290Y2865950D01*
G01X1263220Y2923100D02*
X1251960Y2931570D01*
X1242310Y2933680D01*
X1229440Y2929450D01*
X1219780Y2920990D01*
X1213350Y2906170D01*
X1211740Y2891350D01*
X1213350Y2876530D01*
X1219780Y2863830D01*
X1229440Y2853250D01*
X1242310Y2849020D01*
X1253570Y2853250D01*
X1263220Y2861720D01*
G01X1339670Y2849020D02*
Y2976020D01*
G01Y2914640D02*
X1347720Y2925220D01*
X1355760Y2931570D01*
X1368630Y2933680D01*
X1378280Y2931570D01*
X1389540Y2923100D01*
X1394370Y2910400D01*
Y2849020D01*
G01X1469210D02*
Y2933680D01*
G01Y2912520D02*
X1475650Y2923100D01*
X1485300Y2931570D01*
X1498170Y2933680D01*
X1509430Y2931570D01*
X1519080Y2923100D01*
X1523910Y2908290D01*
Y2849020D01*
G01X1626100D02*
X1616450Y2851140D01*
X1606800Y2859600D01*
X1600360Y2874420D01*
X1597140Y2891350D01*
X1600360Y2908290D01*
X1606800Y2923100D01*
X1616450Y2931570D01*
X1626100Y2933680D01*
X1635750Y2931570D01*
X1645400Y2923100D01*
X1651840Y2908290D01*
X1653450Y2891350D01*
X1651840Y2874420D01*
X1645400Y2859600D01*
X1635750Y2851140D01*
X1626100Y2849020D01*
G01X1755640D02*
Y2976020D01*
G01X1885180Y2849020D02*
X1875530Y2851140D01*
X1865880Y2859600D01*
X1859440Y2874420D01*
X1856220Y2891350D01*
X1859440Y2908290D01*
X1865880Y2923100D01*
X1875530Y2931570D01*
X1885180Y2933680D01*
X1894830Y2931570D01*
X1904480Y2923100D01*
X1910920Y2908290D01*
X1912530Y2891350D01*
X1910920Y2874420D01*
X1904480Y2859600D01*
X1894830Y2851140D01*
X1885180Y2849020D01*
G01X1992200Y2817270D02*
X2003460Y2808800D01*
X2016330Y2806690D01*
X2027590Y2808800D01*
X2037240Y2819390D01*
X2043680Y2834200D01*
Y2933680D01*
G01Y2916750D02*
X2037240Y2925220D01*
X2027590Y2931570D01*
X2016330Y2933680D01*
X2003460Y2929450D01*
X1995420Y2920990D01*
X1988980Y2906170D01*
X1985760Y2891350D01*
X1987370Y2878650D01*
X1993810Y2863830D01*
X2003460Y2853250D01*
X2016330Y2849020D01*
X2025980Y2851140D01*
X2037240Y2859600D01*
X2043680Y2868070D01*
G01X2144260Y2933680D02*
Y2849020D01*
G01Y2967550D02*
X2141040Y2969670D01*
Y2973900D01*
X2144260Y2976020D01*
X2147480Y2973900D01*
Y2969670D01*
X2144260Y2967550D01*
G01X2249670Y2906170D02*
X2301150D01*
X2296320Y2920990D01*
X2288280Y2929450D01*
X2277020Y2933680D01*
X2265760Y2931570D01*
X2256100Y2925220D01*
X2249670Y2910400D01*
X2246450Y2897700D01*
Y2885000D01*
X2249670Y2872300D01*
X2257710Y2859600D01*
X2267370Y2851140D01*
X2278630Y2849020D01*
X2289890Y2853250D01*
X2301150Y2865950D01*
G01X2379210Y2863830D02*
X2387250Y2855370D01*
X2398510Y2849020D01*
X2408170D01*
X2417820Y2853250D01*
X2424250Y2859600D01*
X2427470Y2868070D01*
X2425860Y2880770D01*
X2419430Y2887120D01*
X2390470Y2899820D01*
X2384040Y2914640D01*
X2387250Y2925220D01*
X2393690Y2931570D01*
X2403340Y2933680D01*
X2412990Y2931570D01*
X2422640Y2925220D01*
G01X2622200Y2849020D02*
X2662420Y2976020D01*
X2702640Y2849020D01*
G01X2688160Y2893470D02*
X2636680D01*
G01X2763000Y2844790D02*
X2820920Y2976020D01*
G01X2887720Y2865950D02*
X2900590Y2855370D01*
X2915070Y2849020D01*
X2927930D01*
X2940800Y2855370D01*
X2950460Y2865950D01*
X2955280Y2880770D01*
X2952070Y2895580D01*
X2944020Y2908290D01*
X2929540Y2916750D01*
X2910240Y2920990D01*
X2898980Y2929450D01*
X2894150Y2944270D01*
X2897370Y2959090D01*
X2905410Y2969670D01*
X2916670Y2976020D01*
X2927930D01*
X2939200Y2971790D01*
X2948850Y2961200D01*
G01X758880Y4133920D02*
X885880D01*
Y4093710D01*
X879530Y4080840D01*
X871060Y4072790D01*
X854130Y4069580D01*
X837200Y4072790D01*
X826610Y4082450D01*
X820260Y4093710D01*
Y4133920D01*
G01Y4093710D02*
X758880Y4069580D01*
G01Y3952910D02*
X885880D01*
X794860Y4012430D01*
Y3931990D01*
G01X885880Y3842670D02*
X881650Y3855540D01*
X871060Y3865190D01*
X858370Y3871630D01*
X841430Y3876450D01*
X822380Y3878060D01*
X803330Y3876450D01*
X786390Y3871630D01*
X773690Y3865190D01*
X763110Y3855540D01*
X758880Y3842670D01*
X763110Y3829800D01*
X773690Y3820150D01*
X786390Y3813710D01*
X803330Y3808890D01*
X822380Y3807280D01*
X841430Y3808890D01*
X858370Y3813710D01*
X871060Y3820150D01*
X881650Y3829800D01*
X885880Y3842670D01*
G01X758880Y3713130D02*
X885880D01*
X860480Y3732430D01*
G01X758880D02*
Y3693830D01*
G01X498880Y4133920D02*
X625880D01*
Y4093710D01*
X619530Y4080840D01*
X611060Y4072790D01*
X594130Y4069580D01*
X577200Y4072790D01*
X566610Y4082450D01*
X560260Y4093710D01*
Y4133920D01*
G01Y4093710D02*
X498880Y4069580D01*
G01Y3952910D02*
X625880D01*
X534860Y4012430D01*
Y3931990D01*
G01X625880Y3842670D02*
X621650Y3855540D01*
X611060Y3865190D01*
X598370Y3871630D01*
X581430Y3876450D01*
X562380Y3878060D01*
X543330Y3876450D01*
X526390Y3871630D01*
X513690Y3865190D01*
X503110Y3855540D01*
X498880Y3842670D01*
X503110Y3829800D01*
X513690Y3820150D01*
X526390Y3813710D01*
X543330Y3808890D01*
X562380Y3807280D01*
X581430Y3808890D01*
X598370Y3813710D01*
X611060Y3820150D01*
X621650Y3829800D01*
X625880Y3842670D01*
G01X604710Y3743700D02*
X617410Y3734040D01*
X623760Y3722780D01*
X625880Y3709910D01*
X621650Y3693830D01*
X611060Y3682560D01*
X598370Y3679350D01*
X585660Y3680960D01*
X575080Y3687390D01*
X553910Y3719560D01*
X539100Y3734040D01*
X517930Y3743700D01*
X498880Y3746910D01*
Y3679350D01*
G01X957000Y4476400D02*
X703000D01*
Y5187600D01*
X957000D01*
G01Y4476400D02*
Y5187600D01*
G01X697000Y4476400D02*
Y5187600D01*
G01X1217000Y4986400D02*
X963000D01*
Y5697600D01*
X1217000D01*
G01X455700Y5936360D02*
Y5509640D01*
G01Y5936360D02*
G02Y5509640I113771J-213360D01*
G01X1018880Y6475940D02*
X1145880D01*
Y6443770D01*
X1139530Y6430900D01*
X1131060Y6421250D01*
X1118370Y6413200D01*
X1103540Y6406770D01*
X1082380Y6405160D01*
X1061210Y6406770D01*
X1046390Y6413200D01*
X1033690Y6421250D01*
X1025230Y6430900D01*
X1018880Y6443770D01*
Y6475940D01*
G01Y6291710D02*
X1145880D01*
X1054860Y6351230D01*
Y6270790D01*
G01X1145880Y6181470D02*
X1141650Y6194340D01*
X1131060Y6203990D01*
X1118370Y6210430D01*
X1101430Y6215250D01*
X1082380Y6216860D01*
X1063330Y6215250D01*
X1046390Y6210430D01*
X1033690Y6203990D01*
X1023110Y6194340D01*
X1018880Y6181470D01*
X1023110Y6168600D01*
X1033690Y6158950D01*
X1046390Y6152510D01*
X1063330Y6147690D01*
X1082380Y6146080D01*
X1101430Y6147690D01*
X1118370Y6152510D01*
X1131060Y6158950D01*
X1141650Y6168600D01*
X1145880Y6181470D01*
G01X1018880Y6051930D02*
X1145880D01*
X1120480Y6071230D01*
G01X1018880D02*
Y6032630D01*
G01X531900Y6449440D02*
X534020Y6462310D01*
X542480Y6473570D01*
X555180Y6483220D01*
X570000Y6489660D01*
X586930Y6492880D01*
X603870D01*
X620800Y6489660D01*
X635620Y6483220D01*
X648320Y6473570D01*
X656780Y6462310D01*
X658900Y6449440D01*
X656780Y6436570D01*
X648320Y6425310D01*
X635620Y6415660D01*
X620800Y6409220D01*
X603870Y6406000D01*
X586930D01*
X570000Y6409220D01*
X555180Y6415660D01*
X542480Y6425310D01*
X534020Y6436570D01*
X531900Y6449440D01*
G01X565770Y6436570D02*
X531900Y6417270D01*
G01Y6300600D02*
X658900D01*
X567880Y6360120D01*
Y6279680D01*
G01X658900Y6190360D02*
X654670Y6203230D01*
X644080Y6212880D01*
X631390Y6219320D01*
X614450Y6224140D01*
X595400Y6225750D01*
X576350Y6224140D01*
X559410Y6219320D01*
X546710Y6212880D01*
X536130Y6203230D01*
X531900Y6190360D01*
X536130Y6177490D01*
X546710Y6167840D01*
X559410Y6161400D01*
X576350Y6156580D01*
X595400Y6154970D01*
X614450Y6156580D01*
X631390Y6161400D01*
X644080Y6167840D01*
X654670Y6177490D01*
X658900Y6190360D01*
G01X531900Y6060820D02*
X658900D01*
X633500Y6080120D01*
G01X531900D02*
Y6041520D01*
G01X562000Y7749000D02*
Y9527000D01*
X1324000D01*
Y7749000D01*
X562000D01*
G01Y9527000D02*
X816000D01*
X879500Y9463500D01*
X1006500D01*
X1070000Y9527000D01*
X1324000D01*
G01X710000Y12350000D02*
X960000D01*
Y12050000D01*
X710000D01*
Y12350000D01*
G01X1538880Y4133920D02*
X1665880D01*
Y4093710D01*
X1659530Y4080840D01*
X1651060Y4072790D01*
X1634130Y4069580D01*
X1617200Y4072790D01*
X1606610Y4082450D01*
X1600260Y4093710D01*
Y4133920D01*
G01Y4093710D02*
X1538880Y4069580D01*
G01Y3952910D02*
X1665880D01*
X1574860Y4012430D01*
Y3931990D01*
G01X1665880Y3842670D02*
X1661650Y3855540D01*
X1651060Y3865190D01*
X1638370Y3871630D01*
X1621430Y3876450D01*
X1602380Y3878060D01*
X1583330Y3876450D01*
X1566390Y3871630D01*
X1553690Y3865190D01*
X1543110Y3855540D01*
X1538880Y3842670D01*
X1543110Y3829800D01*
X1553690Y3820150D01*
X1566390Y3813710D01*
X1583330Y3808890D01*
X1602380Y3807280D01*
X1621430Y3808890D01*
X1638370Y3813710D01*
X1651060Y3820150D01*
X1661650Y3829800D01*
X1665880Y3842670D01*
G01X1564280Y3748520D02*
X1549460Y3738870D01*
X1541000Y3726000D01*
X1538880Y3711520D01*
X1541000Y3698650D01*
X1551580Y3685780D01*
X1564280Y3677740D01*
X1576980Y3676130D01*
X1591790Y3679350D01*
X1602380Y3690610D01*
X1606610Y3701870D01*
Y3716350D01*
G01Y3701870D02*
X1612960Y3692220D01*
X1623540Y3684170D01*
X1636250Y3680960D01*
X1648950Y3684170D01*
X1659530Y3692220D01*
X1665880Y3706700D01*
X1663760Y3721170D01*
X1655300Y3735650D01*
G01X1278880Y4133920D02*
X1405880D01*
Y4093710D01*
X1399530Y4080840D01*
X1391060Y4072790D01*
X1374130Y4069580D01*
X1357200Y4072790D01*
X1346610Y4082450D01*
X1340260Y4093710D01*
Y4133920D01*
G01Y4093710D02*
X1278880Y4069580D01*
G01Y3952910D02*
X1405880D01*
X1314860Y4012430D01*
Y3931990D01*
G01X1405880Y3842670D02*
X1401650Y3855540D01*
X1391060Y3865190D01*
X1378370Y3871630D01*
X1361430Y3876450D01*
X1342380Y3878060D01*
X1323330Y3876450D01*
X1306390Y3871630D01*
X1293690Y3865190D01*
X1283110Y3855540D01*
X1278880Y3842670D01*
X1283110Y3829800D01*
X1293690Y3820150D01*
X1306390Y3813710D01*
X1323330Y3808890D01*
X1342380Y3807280D01*
X1361430Y3808890D01*
X1378370Y3813710D01*
X1391060Y3820150D01*
X1401650Y3829800D01*
X1405880Y3842670D01*
G01X1278880Y3693830D02*
X1405880D01*
X1314860Y3753350D01*
Y3672910D01*
G01X1737000Y4476400D02*
X1483000D01*
Y5187600D01*
X1737000D01*
G01Y4476400D02*
Y5187600D01*
G01X1477000Y4476400D02*
X1223000D01*
Y5187600D01*
X1477000D01*
G01Y4476400D02*
Y5187600D01*
G01X1217000Y4986400D02*
Y5697600D01*
G01X1997000Y4986400D02*
X1743000D01*
Y5697600D01*
X1997000D01*
G01X1235700Y5936360D02*
Y5509640D01*
G01Y5936360D02*
G02Y5509640I113771J-213360D01*
G01X1798880Y6475940D02*
X1925880D01*
Y6443770D01*
X1919530Y6430900D01*
X1911060Y6421250D01*
X1898370Y6413200D01*
X1883540Y6406770D01*
X1862380Y6405160D01*
X1841210Y6406770D01*
X1826390Y6413200D01*
X1813690Y6421250D01*
X1805230Y6430900D01*
X1798880Y6443770D01*
Y6475940D01*
G01Y6291710D02*
X1925880D01*
X1834860Y6351230D01*
Y6270790D01*
G01X1925880Y6181470D02*
X1921650Y6194340D01*
X1911060Y6203990D01*
X1898370Y6210430D01*
X1881430Y6215250D01*
X1862380Y6216860D01*
X1843330Y6215250D01*
X1826390Y6210430D01*
X1813690Y6203990D01*
X1803110Y6194340D01*
X1798880Y6181470D01*
X1803110Y6168600D01*
X1813690Y6158950D01*
X1826390Y6152510D01*
X1843330Y6147690D01*
X1862380Y6146080D01*
X1881430Y6147690D01*
X1898370Y6152510D01*
X1911060Y6158950D01*
X1921650Y6168600D01*
X1925880Y6181470D01*
G01X1904710Y6082500D02*
X1917410Y6072840D01*
X1923760Y6061580D01*
X1925880Y6048710D01*
X1921650Y6032630D01*
X1911060Y6021360D01*
X1898370Y6018150D01*
X1885660Y6019760D01*
X1875080Y6026190D01*
X1853910Y6058360D01*
X1839100Y6072840D01*
X1817930Y6082500D01*
X1798880Y6085710D01*
Y6018150D01*
G01X1311900Y6449440D02*
X1314020Y6462310D01*
X1322480Y6473570D01*
X1335180Y6483220D01*
X1350000Y6489660D01*
X1366930Y6492880D01*
X1383870D01*
X1400800Y6489660D01*
X1415620Y6483220D01*
X1428320Y6473570D01*
X1436780Y6462310D01*
X1438900Y6449440D01*
X1436780Y6436570D01*
X1428320Y6425310D01*
X1415620Y6415660D01*
X1400800Y6409220D01*
X1383870Y6406000D01*
X1366930D01*
X1350000Y6409220D01*
X1335180Y6415660D01*
X1322480Y6425310D01*
X1314020Y6436570D01*
X1311900Y6449440D01*
G01X1345770Y6436570D02*
X1311900Y6417270D01*
G01Y6300600D02*
X1438900D01*
X1347880Y6360120D01*
Y6279680D01*
G01X1438900Y6190360D02*
X1434670Y6203230D01*
X1424080Y6212880D01*
X1411390Y6219320D01*
X1394450Y6224140D01*
X1375400Y6225750D01*
X1356350Y6224140D01*
X1339410Y6219320D01*
X1326710Y6212880D01*
X1316130Y6203230D01*
X1311900Y6190360D01*
X1316130Y6177490D01*
X1326710Y6167840D01*
X1339410Y6161400D01*
X1356350Y6156580D01*
X1375400Y6154970D01*
X1394450Y6156580D01*
X1411390Y6161400D01*
X1424080Y6167840D01*
X1434670Y6177490D01*
X1438900Y6190360D01*
G01X1417730Y6091390D02*
X1430430Y6081730D01*
X1436780Y6070470D01*
X1438900Y6057600D01*
X1434670Y6041520D01*
X1424080Y6030250D01*
X1411390Y6027040D01*
X1398680Y6028650D01*
X1388100Y6035080D01*
X1366930Y6067250D01*
X1352120Y6081730D01*
X1330950Y6091390D01*
X1311900Y6094600D01*
Y6027040D01*
G01X1680000Y12350000D02*
X1930000D01*
Y12050000D01*
X1680000D01*
Y12350000D01*
G01X2318880Y4133920D02*
X2445880D01*
Y4093710D01*
X2439530Y4080840D01*
X2431060Y4072790D01*
X2414130Y4069580D01*
X2397200Y4072790D01*
X2386610Y4082450D01*
X2380260Y4093710D01*
Y4133920D01*
G01Y4093710D02*
X2318880Y4069580D01*
G01Y3952910D02*
X2445880D01*
X2354860Y4012430D01*
Y3931990D01*
G01X2445880Y3842670D02*
X2441650Y3855540D01*
X2431060Y3865190D01*
X2418370Y3871630D01*
X2401430Y3876450D01*
X2382380Y3878060D01*
X2363330Y3876450D01*
X2346390Y3871630D01*
X2333690Y3865190D01*
X2323110Y3855540D01*
X2318880Y3842670D01*
X2323110Y3829800D01*
X2333690Y3820150D01*
X2346390Y3813710D01*
X2363330Y3808890D01*
X2382380Y3807280D01*
X2401430Y3808890D01*
X2418370Y3813710D01*
X2431060Y3820150D01*
X2441650Y3829800D01*
X2445880Y3842670D01*
G01X2337930Y3748520D02*
X2327340Y3738870D01*
X2321000Y3727610D01*
X2318880Y3713130D01*
X2323110Y3698650D01*
X2331580Y3687390D01*
X2346390Y3679350D01*
X2363330Y3677740D01*
X2380260Y3680960D01*
X2390850Y3689000D01*
X2399310Y3700260D01*
X2401430Y3711520D01*
X2399310Y3722780D01*
X2390850Y3737260D01*
X2445880Y3732430D01*
Y3689000D01*
G01X2058880Y4133920D02*
X2185880D01*
Y4093710D01*
X2179530Y4080840D01*
X2171060Y4072790D01*
X2154130Y4069580D01*
X2137200Y4072790D01*
X2126610Y4082450D01*
X2120260Y4093710D01*
Y4133920D01*
G01Y4093710D02*
X2058880Y4069580D01*
G01Y3952910D02*
X2185880D01*
X2094860Y4012430D01*
Y3931990D01*
G01X2185880Y3842670D02*
X2181650Y3855540D01*
X2171060Y3865190D01*
X2158370Y3871630D01*
X2141430Y3876450D01*
X2122380Y3878060D01*
X2103330Y3876450D01*
X2086390Y3871630D01*
X2073690Y3865190D01*
X2063110Y3855540D01*
X2058880Y3842670D01*
X2063110Y3829800D01*
X2073690Y3820150D01*
X2086390Y3813710D01*
X2103330Y3808890D01*
X2122380Y3807280D01*
X2141430Y3808890D01*
X2158370Y3813710D01*
X2171060Y3820150D01*
X2181650Y3829800D01*
X2185880Y3842670D01*
G01X2111790Y3743700D02*
X2126610Y3732430D01*
X2135080Y3722780D01*
X2139310Y3709910D01*
X2135080Y3698650D01*
X2126610Y3690610D01*
X2113910Y3684170D01*
X2099100Y3682560D01*
X2086390Y3684170D01*
X2073690Y3690610D01*
X2063110Y3700260D01*
X2058880Y3711520D01*
X2063110Y3724390D01*
X2075810Y3735650D01*
X2094860Y3742090D01*
X2116030Y3743700D01*
X2143540Y3740480D01*
X2158370Y3735650D01*
X2173180Y3727610D01*
X2183760Y3716350D01*
X2185880Y3705090D01*
X2181650Y3693830D01*
X2171060Y3685780D01*
G01X2517000Y4476400D02*
X2263000D01*
Y5187600D01*
X2517000D01*
G01Y4476400D02*
Y5187600D01*
G01X2257000Y4476400D02*
X2003000D01*
Y5187600D01*
X2257000D01*
G01Y4476400D02*
Y5187600D01*
G01X1997000Y4986400D02*
Y5697600D01*
G01X2777000Y4986400D02*
X2523000D01*
Y5697600D01*
X2777000D01*
G01X2015700Y5936360D02*
Y5509640D01*
G01Y5936360D02*
G02Y5509640I113771J-213360D01*
G01X2578880Y6475940D02*
X2705880D01*
Y6443770D01*
X2699530Y6430900D01*
X2691060Y6421250D01*
X2678370Y6413200D01*
X2663540Y6406770D01*
X2642380Y6405160D01*
X2621210Y6406770D01*
X2606390Y6413200D01*
X2593690Y6421250D01*
X2585230Y6430900D01*
X2578880Y6443770D01*
Y6475940D01*
G01Y6291710D02*
X2705880D01*
X2614860Y6351230D01*
Y6270790D01*
G01X2705880Y6181470D02*
X2701650Y6194340D01*
X2691060Y6203990D01*
X2678370Y6210430D01*
X2661430Y6215250D01*
X2642380Y6216860D01*
X2623330Y6215250D01*
X2606390Y6210430D01*
X2593690Y6203990D01*
X2583110Y6194340D01*
X2578880Y6181470D01*
X2583110Y6168600D01*
X2593690Y6158950D01*
X2606390Y6152510D01*
X2623330Y6147690D01*
X2642380Y6146080D01*
X2661430Y6147690D01*
X2678370Y6152510D01*
X2691060Y6158950D01*
X2701650Y6168600D01*
X2705880Y6181470D01*
G01X2604280Y6087320D02*
X2589460Y6077670D01*
X2581000Y6064800D01*
X2578880Y6050320D01*
X2581000Y6037450D01*
X2591580Y6024580D01*
X2604280Y6016540D01*
X2616980Y6014930D01*
X2631790Y6018150D01*
X2642380Y6029410D01*
X2646610Y6040670D01*
Y6055150D01*
G01Y6040670D02*
X2652960Y6031020D01*
X2663540Y6022970D01*
X2676250Y6019760D01*
X2688950Y6022970D01*
X2699530Y6031020D01*
X2705880Y6045500D01*
X2703760Y6059970D01*
X2695300Y6074450D01*
G01X2091900Y6449440D02*
X2094020Y6462310D01*
X2102480Y6473570D01*
X2115180Y6483220D01*
X2130000Y6489660D01*
X2146930Y6492880D01*
X2163870D01*
X2180800Y6489660D01*
X2195620Y6483220D01*
X2208320Y6473570D01*
X2216780Y6462310D01*
X2218900Y6449440D01*
X2216780Y6436570D01*
X2208320Y6425310D01*
X2195620Y6415660D01*
X2180800Y6409220D01*
X2163870Y6406000D01*
X2146930D01*
X2130000Y6409220D01*
X2115180Y6415660D01*
X2102480Y6425310D01*
X2094020Y6436570D01*
X2091900Y6449440D01*
G01X2125770Y6436570D02*
X2091900Y6417270D01*
G01Y6300600D02*
X2218900D01*
X2127880Y6360120D01*
Y6279680D01*
G01X2218900Y6190360D02*
X2214670Y6203230D01*
X2204080Y6212880D01*
X2191390Y6219320D01*
X2174450Y6224140D01*
X2155400Y6225750D01*
X2136350Y6224140D01*
X2119410Y6219320D01*
X2106710Y6212880D01*
X2096130Y6203230D01*
X2091900Y6190360D01*
X2096130Y6177490D01*
X2106710Y6167840D01*
X2119410Y6161400D01*
X2136350Y6156580D01*
X2155400Y6154970D01*
X2174450Y6156580D01*
X2191390Y6161400D01*
X2204080Y6167840D01*
X2214670Y6177490D01*
X2218900Y6190360D01*
G01X2117300Y6096210D02*
X2102480Y6086560D01*
X2094020Y6073690D01*
X2091900Y6059210D01*
X2094020Y6046340D01*
X2104600Y6033470D01*
X2117300Y6025430D01*
X2130000Y6023820D01*
X2144810Y6027040D01*
X2155400Y6038300D01*
X2159630Y6049560D01*
Y6064040D01*
G01Y6049560D02*
X2165980Y6039910D01*
X2176560Y6031860D01*
X2189270Y6028650D01*
X2201970Y6031860D01*
X2212550Y6039910D01*
X2218900Y6054390D01*
X2216780Y6068860D01*
X2208320Y6083340D01*
G01X2375750Y7518400D02*
Y7645400D01*
X2415960D01*
X2428830Y7639050D01*
X2436880Y7630580D01*
X2440090Y7613650D01*
X2436880Y7596720D01*
X2427220Y7586130D01*
X2415960Y7579780D01*
X2375750D01*
G01X2415960D02*
X2440090Y7518400D01*
G01X2569630D02*
X2505290D01*
Y7645400D01*
X2569630D01*
G01X2543890Y7584020D02*
X2505290D01*
G01X2686300Y7518400D02*
Y7645400D01*
X2626780Y7554380D01*
X2707220D01*
G01X2796540Y7645400D02*
X2783670Y7641170D01*
X2774020Y7630580D01*
X2767580Y7617890D01*
X2762760Y7600950D01*
X2761150Y7581900D01*
X2762760Y7562850D01*
X2767580Y7545910D01*
X2774020Y7533210D01*
X2783670Y7522630D01*
X2796540Y7518400D01*
X2809410Y7522630D01*
X2819060Y7533210D01*
X2825500Y7545910D01*
X2830320Y7562850D01*
X2831930Y7581900D01*
X2830320Y7600950D01*
X2825500Y7617890D01*
X2819060Y7630580D01*
X2809410Y7641170D01*
X2796540Y7645400D01*
G01X2895510Y7624230D02*
X2905170Y7636930D01*
X2916430Y7643280D01*
X2929300Y7645400D01*
X2945380Y7641170D01*
X2956650Y7630580D01*
X2959860Y7617890D01*
X2958250Y7605180D01*
X2951820Y7594600D01*
X2919650Y7573430D01*
X2905170Y7558620D01*
X2895510Y7537450D01*
X2892300Y7518400D01*
X2959860D01*
G01X2753000Y9531000D02*
Y7753000D01*
X1991000D01*
Y9531000D01*
X2753000D01*
G01Y7753000D02*
X2499000D01*
X2435500Y7816500D01*
X2308500D01*
X2245000Y7753000D01*
X1991000D01*
G01X2541780Y10363200D02*
X2609340Y10490200D01*
G01X2541780D02*
X2609340Y10363200D01*
G01X2717970Y10430930D02*
X2724400Y10437280D01*
X2729230Y10447860D01*
X2732450Y10462690D01*
X2729230Y10475380D01*
X2722800Y10483850D01*
X2711530Y10490200D01*
X2668100D01*
Y10363200D01*
X2721190D01*
X2732450Y10371660D01*
X2738880Y10384370D01*
X2742100Y10399180D01*
X2738880Y10414000D01*
X2729230Y10426700D01*
X2717970Y10430930D01*
X2668100D01*
G01X2853940Y10363200D02*
Y10490200D01*
X2794420Y10399180D01*
X2874860D01*
G01X3098880Y4133920D02*
X3225880D01*
Y4093710D01*
X3219530Y4080840D01*
X3211060Y4072790D01*
X3194130Y4069580D01*
X3177200Y4072790D01*
X3166610Y4082450D01*
X3160260Y4093710D01*
Y4133920D01*
G01Y4093710D02*
X3098880Y4069580D01*
G01Y3952910D02*
X3225880D01*
X3134860Y4012430D01*
Y3931990D01*
G01X3225880Y3842670D02*
X3221650Y3855540D01*
X3211060Y3865190D01*
X3198370Y3871630D01*
X3181430Y3876450D01*
X3162380Y3878060D01*
X3143330Y3876450D01*
X3126390Y3871630D01*
X3113690Y3865190D01*
X3103110Y3855540D01*
X3098880Y3842670D01*
X3103110Y3829800D01*
X3113690Y3820150D01*
X3126390Y3813710D01*
X3143330Y3808890D01*
X3162380Y3807280D01*
X3181430Y3808890D01*
X3198370Y3813710D01*
X3211060Y3820150D01*
X3221650Y3829800D01*
X3225880Y3842670D01*
G01X3098880Y3716350D02*
X3126390Y3713130D01*
X3149680Y3708300D01*
X3170850Y3701870D01*
X3194130Y3693830D01*
X3225880Y3680960D01*
Y3745300D01*
G01X2838880Y4133920D02*
X2965880D01*
Y4093710D01*
X2959530Y4080840D01*
X2951060Y4072790D01*
X2934130Y4069580D01*
X2917200Y4072790D01*
X2906610Y4082450D01*
X2900260Y4093710D01*
Y4133920D01*
G01Y4093710D02*
X2838880Y4069580D01*
G01Y3952910D02*
X2965880D01*
X2874860Y4012430D01*
Y3931990D01*
G01X2965880Y3842670D02*
X2961650Y3855540D01*
X2951060Y3865190D01*
X2938370Y3871630D01*
X2921430Y3876450D01*
X2902380Y3878060D01*
X2883330Y3876450D01*
X2866390Y3871630D01*
X2853690Y3865190D01*
X2843110Y3855540D01*
X2838880Y3842670D01*
X2843110Y3829800D01*
X2853690Y3820150D01*
X2866390Y3813710D01*
X2883330Y3808890D01*
X2902380Y3807280D01*
X2921430Y3808890D01*
X2938370Y3813710D01*
X2951060Y3820150D01*
X2961650Y3829800D01*
X2965880Y3842670D01*
G01X2838880Y3713130D02*
X2841000Y3701870D01*
X2847340Y3689000D01*
X2857930Y3680960D01*
X2872750Y3677740D01*
X2887560Y3680960D01*
X2900260Y3690610D01*
X2906610Y3705090D01*
Y3721170D01*
X2910850Y3730830D01*
X2921430Y3738870D01*
X2936250Y3742090D01*
X2951060Y3737260D01*
X2961650Y3726000D01*
X2965880Y3713130D01*
X2961650Y3700260D01*
X2951060Y3689000D01*
X2936250Y3684170D01*
X2921430Y3687390D01*
X2910850Y3695430D01*
X2906610Y3705090D01*
Y3721170D01*
X2900260Y3735650D01*
X2887560Y3745300D01*
X2872750Y3748520D01*
X2857930Y3745300D01*
X2847340Y3737260D01*
X2841000Y3724390D01*
X2838880Y3713130D01*
G01X3297000Y4476400D02*
X3043000D01*
Y5187600D01*
X3297000D01*
G01Y4476400D02*
Y5187600D01*
G01X3037000Y4476400D02*
X2783000D01*
Y5187600D01*
X3037000D01*
G01Y4476400D02*
Y5187600D01*
G01X2777000Y4986400D02*
Y5697600D01*
G01X3557000Y4986400D02*
X3303000D01*
Y5697600D01*
X3557000D01*
G01X2795700Y5936360D02*
Y5509640D01*
G01Y5936360D02*
G02Y5509640I113771J-213360D01*
G01X3358880Y6475940D02*
X3485880D01*
Y6443770D01*
X3479530Y6430900D01*
X3471060Y6421250D01*
X3458370Y6413200D01*
X3443540Y6406770D01*
X3422380Y6405160D01*
X3401210Y6406770D01*
X3386390Y6413200D01*
X3373690Y6421250D01*
X3365230Y6430900D01*
X3358880Y6443770D01*
Y6475940D01*
G01Y6291710D02*
X3485880D01*
X3394860Y6351230D01*
Y6270790D01*
G01X3485880Y6181470D02*
X3481650Y6194340D01*
X3471060Y6203990D01*
X3458370Y6210430D01*
X3441430Y6215250D01*
X3422380Y6216860D01*
X3403330Y6215250D01*
X3386390Y6210430D01*
X3373690Y6203990D01*
X3363110Y6194340D01*
X3358880Y6181470D01*
X3363110Y6168600D01*
X3373690Y6158950D01*
X3386390Y6152510D01*
X3403330Y6147690D01*
X3422380Y6146080D01*
X3441430Y6147690D01*
X3458370Y6152510D01*
X3471060Y6158950D01*
X3481650Y6168600D01*
X3485880Y6181470D01*
G01X3358880Y6032630D02*
X3485880D01*
X3394860Y6092150D01*
Y6011710D01*
G01X2871900Y6449440D02*
X2874020Y6462310D01*
X2882480Y6473570D01*
X2895180Y6483220D01*
X2910000Y6489660D01*
X2926930Y6492880D01*
X2943870D01*
X2960800Y6489660D01*
X2975620Y6483220D01*
X2988320Y6473570D01*
X2996780Y6462310D01*
X2998900Y6449440D01*
X2996780Y6436570D01*
X2988320Y6425310D01*
X2975620Y6415660D01*
X2960800Y6409220D01*
X2943870Y6406000D01*
X2926930D01*
X2910000Y6409220D01*
X2895180Y6415660D01*
X2882480Y6425310D01*
X2874020Y6436570D01*
X2871900Y6449440D01*
G01X2905770Y6436570D02*
X2871900Y6417270D01*
G01Y6300600D02*
X2998900D01*
X2907880Y6360120D01*
Y6279680D01*
G01X2998900Y6190360D02*
X2994670Y6203230D01*
X2984080Y6212880D01*
X2971390Y6219320D01*
X2954450Y6224140D01*
X2935400Y6225750D01*
X2916350Y6224140D01*
X2899410Y6219320D01*
X2886710Y6212880D01*
X2876130Y6203230D01*
X2871900Y6190360D01*
X2876130Y6177490D01*
X2886710Y6167840D01*
X2899410Y6161400D01*
X2916350Y6156580D01*
X2935400Y6154970D01*
X2954450Y6156580D01*
X2971390Y6161400D01*
X2984080Y6167840D01*
X2994670Y6177490D01*
X2998900Y6190360D01*
G01X2871900Y6041520D02*
X2998900D01*
X2907880Y6101040D01*
Y6020600D01*
G01X4141980Y596900D02*
X4209540Y723900D01*
G01X4141980D02*
X4209540Y596900D01*
G01X4337470D02*
X4273130D01*
Y723900D01*
X4337470D01*
G01X4311730Y662520D02*
X4273130D01*
G01X4454140Y596900D02*
Y723900D01*
X4394620Y632880D01*
X4475060D01*
G01X3761320Y2552700D02*
Y2679700D01*
X3801530D01*
X3814400Y2673350D01*
X3822450Y2664880D01*
X3825660Y2647950D01*
X3822450Y2631020D01*
X3812790Y2620430D01*
X3801530Y2614080D01*
X3761320D01*
G01X3801530D02*
X3825660Y2552700D01*
G01X3942330D02*
Y2679700D01*
X3882810Y2588680D01*
X3963250D01*
G01X4052570Y2552700D02*
Y2679700D01*
X4033270Y2654300D01*
G01Y2552700D02*
X4071870D01*
G01X4154760Y2567510D02*
X4166020Y2556930D01*
X4178890Y2552700D01*
X4191760Y2556930D01*
X4203020Y2569630D01*
X4211070Y2588680D01*
X4214280Y2607730D01*
Y2631020D01*
X4211070Y2650070D01*
X4203020Y2667000D01*
X4193370Y2675470D01*
X4182110Y2679700D01*
X4169240Y2675470D01*
X4159590Y2667000D01*
X4153150Y2654300D01*
X4149940Y2637360D01*
X4153150Y2622550D01*
X4161200Y2607730D01*
X4170850Y2599260D01*
X4182110Y2597150D01*
X4194980Y2601380D01*
X4204630Y2611970D01*
X4214280Y2631020D01*
G01X3656400Y3238000D02*
Y3492000D01*
X4367600D01*
Y3238000D01*
G01X3656400D02*
X4367600D01*
G01X3657600Y2730500D02*
Y2984500D01*
X4368800D01*
Y2730500D01*
G01X3657600D02*
X4368800D01*
G01X3761320Y3568700D02*
Y3695700D01*
X3801530D01*
X3814400Y3689350D01*
X3822450Y3680880D01*
X3825660Y3663950D01*
X3822450Y3647020D01*
X3812790Y3636430D01*
X3801530Y3630080D01*
X3761320D01*
G01X3801530D02*
X3825660Y3568700D01*
G01X3942330D02*
Y3695700D01*
X3882810Y3604680D01*
X3963250D01*
G01X4052570Y3568700D02*
Y3695700D01*
X4033270Y3670300D01*
G01Y3568700D02*
X4071870D01*
G01X4182110D02*
X4193370Y3570820D01*
X4206240Y3577160D01*
X4214280Y3587750D01*
X4217500Y3602570D01*
X4214280Y3617380D01*
X4204630Y3630080D01*
X4190150Y3636430D01*
X4174070D01*
X4164410Y3640670D01*
X4156370Y3651250D01*
X4153150Y3666070D01*
X4157980Y3680880D01*
X4169240Y3691470D01*
X4182110Y3695700D01*
X4194980Y3691470D01*
X4206240Y3680880D01*
X4211070Y3666070D01*
X4207850Y3651250D01*
X4199810Y3640670D01*
X4190150Y3636430D01*
X4174070D01*
X4159590Y3630080D01*
X4149940Y3617380D01*
X4146720Y3602570D01*
X4149940Y3587750D01*
X4157980Y3577160D01*
X4170850Y3570820D01*
X4182110Y3568700D01*
G01X3557000Y4986400D02*
Y5697600D01*
G01X5588000Y1968500D02*
Y4508500D01*
X4953000D01*
Y1968500D01*
G01X5588000D02*
X5397500D01*
X5334000Y2032000D01*
X5207000D01*
X5143500Y1968500D01*
X4953000D01*
G01X5269400Y1892300D02*
Y1801280D01*
X5275830Y1782230D01*
X5288700Y1769530D01*
X5304790Y1765300D01*
X5320880Y1769530D01*
X5333750Y1782230D01*
X5340180Y1801280D01*
Y1892300D01*
G01X5453630Y1765300D02*
Y1892300D01*
X5394110Y1801280D01*
X5474550D01*
G01X5563870Y1892300D02*
X5551000Y1888070D01*
X5541350Y1877480D01*
X5534910Y1864790D01*
X5530090Y1847850D01*
X5528480Y1828800D01*
X5530090Y1809750D01*
X5534910Y1792810D01*
X5541350Y1780110D01*
X5551000Y1769530D01*
X5563870Y1765300D01*
X5576740Y1769530D01*
X5586390Y1780110D01*
X5592830Y1792810D01*
X5597650Y1809750D01*
X5599260Y1828800D01*
X5597650Y1847850D01*
X5592830Y1864790D01*
X5586390Y1877480D01*
X5576740Y1888070D01*
X5563870Y1892300D01*
G01X5693410Y1765300D02*
Y1892300D01*
X5674110Y1866900D01*
G01Y1765300D02*
X5712710D01*
G01X6127580Y1627720D02*
X6117930Y1634070D01*
X6106670Y1638300D01*
X6093800D01*
X6079320Y1631950D01*
X6068060Y1621370D01*
X6060020Y1608670D01*
X6053580Y1587500D01*
X6051970Y1568450D01*
X6055190Y1549400D01*
X6060020Y1536700D01*
X6069670Y1524000D01*
X6080930Y1515530D01*
X6092190Y1511300D01*
X6103450D01*
X6114710Y1515530D01*
X6124360Y1521880D01*
X6132410Y1530350D01*
G01X6241030Y1511300D02*
Y1638300D01*
X6181510Y1547280D01*
X6261950D01*
G01X6351270Y1638300D02*
X6338400Y1634070D01*
X6328750Y1623480D01*
X6322310Y1610790D01*
X6317490Y1593850D01*
X6315880Y1574800D01*
X6317490Y1555750D01*
X6322310Y1538810D01*
X6328750Y1526110D01*
X6338400Y1515530D01*
X6351270Y1511300D01*
X6364140Y1515530D01*
X6373790Y1526110D01*
X6380230Y1538810D01*
X6385050Y1555750D01*
X6386660Y1574800D01*
X6385050Y1593850D01*
X6380230Y1610790D01*
X6373790Y1623480D01*
X6364140Y1634070D01*
X6351270Y1638300D01*
G01X6480810Y1511300D02*
Y1638300D01*
X6461510Y1612900D01*
G01Y1511300D02*
X6500110D01*
G01X6438900Y1968500D02*
G03I-254000J0D01*
G01X5905500Y1816100D02*
X6007100D01*
G01X5956300Y1866900D02*
Y1765300D01*
G01X6388100Y2909400D02*
X6515100D01*
Y2877230D01*
X6508750Y2864360D01*
X6500280Y2854710D01*
X6487590Y2846660D01*
X6472760Y2840230D01*
X6451600Y2838620D01*
X6430430Y2840230D01*
X6415610Y2846660D01*
X6402910Y2854710D01*
X6394450Y2864360D01*
X6388100Y2877230D01*
Y2909400D01*
G01Y2725170D02*
X6515100D01*
X6424080Y2784690D01*
Y2704250D01*
G01X6515100Y2614930D02*
X6510870Y2627800D01*
X6500280Y2637450D01*
X6487590Y2643890D01*
X6470650Y2648710D01*
X6451600Y2650320D01*
X6432550Y2648710D01*
X6415610Y2643890D01*
X6402910Y2637450D01*
X6392330Y2627800D01*
X6388100Y2614930D01*
X6392330Y2602060D01*
X6402910Y2592410D01*
X6415610Y2585970D01*
X6432550Y2581150D01*
X6451600Y2579540D01*
X6470650Y2581150D01*
X6487590Y2585970D01*
X6500280Y2592410D01*
X6510870Y2602060D01*
X6515100Y2614930D01*
G01X6402910Y2512740D02*
X6392330Y2501480D01*
X6388100Y2488610D01*
X6392330Y2475740D01*
X6405030Y2464480D01*
X6424080Y2456430D01*
X6443130Y2453220D01*
X6466420D01*
X6485470Y2456430D01*
X6502400Y2464480D01*
X6510870Y2474130D01*
X6515100Y2485390D01*
X6510870Y2498260D01*
X6502400Y2507910D01*
X6489700Y2514350D01*
X6472760Y2517560D01*
X6457950Y2514350D01*
X6443130Y2506300D01*
X6434660Y2496650D01*
X6432550Y2485390D01*
X6436780Y2472520D01*
X6447370Y2462870D01*
X6466420Y2453220D01*
G01X6604000Y2959100D02*
X6858000D01*
Y2247900D01*
X6604000D01*
G01Y2959100D02*
Y2247900D01*
G01X7289800Y2804580D02*
X7416800D01*
Y2764370D01*
X7410450Y2751500D01*
X7401980Y2743450D01*
X7385050Y2740240D01*
X7368120Y2743450D01*
X7357530Y2753110D01*
X7351180Y2764370D01*
Y2804580D01*
G01Y2764370D02*
X7289800Y2740240D01*
G01Y2623570D02*
X7416800D01*
X7325780Y2683090D01*
Y2602650D01*
G01X7289800Y2513330D02*
X7416800D01*
X7391400Y2532630D01*
G01X7289800D02*
Y2494030D01*
G01Y2387010D02*
X7317310Y2383790D01*
X7340600Y2378960D01*
X7361770Y2372530D01*
X7385050Y2364490D01*
X7416800Y2351620D01*
Y2415960D01*
G01X7162800Y2247900D02*
X6908800D01*
Y2959100D01*
X7162800D01*
G01Y2247900D02*
Y2959100D01*
G01X7169280Y4126220D02*
X7296280D01*
Y4086010D01*
X7289930Y4073140D01*
X7281460Y4065090D01*
X7264530Y4061880D01*
X7247600Y4065090D01*
X7237010Y4074750D01*
X7230660Y4086010D01*
Y4126220D01*
G01Y4086010D02*
X7169280Y4061880D01*
G01Y3945210D02*
X7296280D01*
X7205260Y4004730D01*
Y3924290D01*
G01X7169280Y3834970D02*
X7296280D01*
X7270880Y3854270D01*
G01X7169280D02*
Y3815670D01*
G01X7188330Y3740820D02*
X7177740Y3731170D01*
X7171400Y3719910D01*
X7169280Y3705430D01*
X7173510Y3690950D01*
X7181980Y3679690D01*
X7196790Y3671650D01*
X7213730Y3670040D01*
X7230660Y3673260D01*
X7241250Y3681300D01*
X7249710Y3692560D01*
X7251830Y3703820D01*
X7249710Y3715080D01*
X7241250Y3729560D01*
X7296280Y3724730D01*
Y3681300D01*
G01X6909280Y4126220D02*
X7036280D01*
Y4086010D01*
X7029930Y4073140D01*
X7021460Y4065090D01*
X7004530Y4061880D01*
X6987600Y4065090D01*
X6977010Y4074750D01*
X6970660Y4086010D01*
Y4126220D01*
G01Y4086010D02*
X6909280Y4061880D01*
G01Y3945210D02*
X7036280D01*
X6945260Y4004730D01*
Y3924290D01*
G01X6909280Y3834970D02*
X7036280D01*
X7010880Y3854270D01*
G01X6909280D02*
Y3815670D01*
G01X6962190Y3736000D02*
X6977010Y3724730D01*
X6985480Y3715080D01*
X6989710Y3702210D01*
X6985480Y3690950D01*
X6977010Y3682910D01*
X6964310Y3676470D01*
X6949500Y3674860D01*
X6936790Y3676470D01*
X6924090Y3682910D01*
X6913510Y3692560D01*
X6909280Y3703820D01*
X6913510Y3716690D01*
X6926210Y3727950D01*
X6945260Y3734390D01*
X6966430Y3736000D01*
X6993940Y3732780D01*
X7008770Y3727950D01*
X7023580Y3719910D01*
X7034160Y3708650D01*
X7036280Y3697390D01*
X7032050Y3686130D01*
X7021460Y3678080D01*
G01X7342000Y4481400D02*
X7088000D01*
Y5192600D01*
X7342000D01*
G01X7082000Y4481400D02*
X6828000D01*
Y5192600D01*
X7082000D01*
G01Y4481400D02*
Y5192600D01*
G01X6840700Y5936360D02*
Y5509640D01*
G01Y5936360D02*
G02Y5509640I113771J-213360D01*
G01X6891500Y6474840D02*
X6893620Y6487710D01*
X6902080Y6498970D01*
X6914780Y6508620D01*
X6929600Y6515060D01*
X6946530Y6518280D01*
X6963470D01*
X6980400Y6515060D01*
X6995220Y6508620D01*
X7007920Y6498970D01*
X7016380Y6487710D01*
X7018500Y6474840D01*
X7016380Y6461970D01*
X7007920Y6450710D01*
X6995220Y6441060D01*
X6980400Y6434620D01*
X6963470Y6431400D01*
X6946530D01*
X6929600Y6434620D01*
X6914780Y6441060D01*
X6902080Y6450710D01*
X6893620Y6461970D01*
X6891500Y6474840D01*
G01X6925370Y6461970D02*
X6891500Y6442670D01*
G01Y6326000D02*
X7018500D01*
X6927480Y6385520D01*
Y6305080D01*
G01X7018500Y6215760D02*
X7014270Y6228630D01*
X7003680Y6238280D01*
X6990990Y6244720D01*
X6974050Y6249540D01*
X6955000Y6251150D01*
X6935950Y6249540D01*
X6919010Y6244720D01*
X6906310Y6238280D01*
X6895730Y6228630D01*
X6891500Y6215760D01*
X6895730Y6202890D01*
X6906310Y6193240D01*
X6919010Y6186800D01*
X6935950Y6181980D01*
X6955000Y6180370D01*
X6974050Y6181980D01*
X6990990Y6186800D01*
X7003680Y6193240D01*
X7014270Y6202890D01*
X7018500Y6215760D01*
G01X6891500Y6086220D02*
X6893620Y6074960D01*
X6899960Y6062090D01*
X6910550Y6054050D01*
X6925370Y6050830D01*
X6940180Y6054050D01*
X6952880Y6063700D01*
X6959230Y6078180D01*
Y6094260D01*
X6963470Y6103920D01*
X6974050Y6111960D01*
X6988870Y6115180D01*
X7003680Y6110350D01*
X7014270Y6099090D01*
X7018500Y6086220D01*
X7014270Y6073350D01*
X7003680Y6062090D01*
X6988870Y6057260D01*
X6974050Y6060480D01*
X6963470Y6068520D01*
X6959230Y6078180D01*
Y6094260D01*
X6952880Y6108740D01*
X6940180Y6118390D01*
X6925370Y6121610D01*
X6910550Y6118390D01*
X6899960Y6110350D01*
X6893620Y6097480D01*
X6891500Y6086220D01*
G01X7959280Y4126220D02*
X8086280D01*
Y4086010D01*
X8079930Y4073140D01*
X8071460Y4065090D01*
X8054530Y4061880D01*
X8037600Y4065090D01*
X8027010Y4074750D01*
X8020660Y4086010D01*
Y4126220D01*
G01Y4086010D02*
X7959280Y4061880D01*
G01Y3945210D02*
X8086280D01*
X7995260Y4004730D01*
Y3924290D01*
G01X7959280Y3834970D02*
X8086280D01*
X8060880Y3854270D01*
G01X7959280D02*
Y3815670D01*
G01X7984680Y3740820D02*
X7969860Y3731170D01*
X7961400Y3718300D01*
X7959280Y3703820D01*
X7961400Y3690950D01*
X7971980Y3678080D01*
X7984680Y3670040D01*
X7997380Y3668430D01*
X8012190Y3671650D01*
X8022780Y3682910D01*
X8027010Y3694170D01*
Y3708650D01*
G01Y3694170D02*
X8033360Y3684520D01*
X8043940Y3676470D01*
X8056650Y3673260D01*
X8069350Y3676470D01*
X8079930Y3684520D01*
X8086280Y3699000D01*
X8084160Y3713470D01*
X8075700Y3727950D01*
G01X7699280Y4126220D02*
X7826280D01*
Y4086010D01*
X7819930Y4073140D01*
X7811460Y4065090D01*
X7794530Y4061880D01*
X7777600Y4065090D01*
X7767010Y4074750D01*
X7760660Y4086010D01*
Y4126220D01*
G01Y4086010D02*
X7699280Y4061880D01*
G01Y3945210D02*
X7826280D01*
X7735260Y4004730D01*
Y3924290D01*
G01X7699280Y3834970D02*
X7826280D01*
X7800880Y3854270D01*
G01X7699280D02*
Y3815670D01*
G01Y3686130D02*
X7826280D01*
X7735260Y3745650D01*
Y3665210D01*
G01X8132000Y4481400D02*
X7878000D01*
Y5192600D01*
X8132000D01*
G01X7872000Y4481400D02*
X7618000D01*
Y5192600D01*
X7872000D01*
G01Y4481400D02*
Y5192600D01*
G01X7342000Y4481400D02*
Y5192600D01*
G01X7607000Y4986400D02*
X7353000D01*
Y5697600D01*
X7607000D01*
G01Y4986400D02*
Y5697600D01*
G01X7630700Y5936360D02*
Y5509640D01*
G01Y5936360D02*
G02Y5509640I113771J-213360D01*
G01X7408880Y6463240D02*
X7535880D01*
Y6431070D01*
X7529530Y6418200D01*
X7521060Y6408550D01*
X7508370Y6400500D01*
X7493540Y6394070D01*
X7472380Y6392460D01*
X7451210Y6394070D01*
X7436390Y6400500D01*
X7423690Y6408550D01*
X7415230Y6418200D01*
X7408880Y6431070D01*
Y6463240D01*
G01Y6279010D02*
X7535880D01*
X7444860Y6338530D01*
Y6258090D01*
G01X7535880Y6168770D02*
X7531650Y6181640D01*
X7521060Y6191290D01*
X7508370Y6197730D01*
X7491430Y6202550D01*
X7472380Y6204160D01*
X7453330Y6202550D01*
X7436390Y6197730D01*
X7423690Y6191290D01*
X7413110Y6181640D01*
X7408880Y6168770D01*
X7413110Y6155900D01*
X7423690Y6146250D01*
X7436390Y6139810D01*
X7453330Y6134990D01*
X7472380Y6133380D01*
X7491430Y6134990D01*
X7508370Y6139810D01*
X7521060Y6146250D01*
X7531650Y6155900D01*
X7535880Y6168770D01*
G01X7408880Y6039230D02*
X7411000Y6027970D01*
X7417340Y6015100D01*
X7427930Y6007060D01*
X7442750Y6003840D01*
X7457560Y6007060D01*
X7470260Y6016710D01*
X7476610Y6031190D01*
Y6047270D01*
X7480850Y6056930D01*
X7491430Y6064970D01*
X7506250Y6068190D01*
X7521060Y6063360D01*
X7531650Y6052100D01*
X7535880Y6039230D01*
X7531650Y6026360D01*
X7521060Y6015100D01*
X7506250Y6010270D01*
X7491430Y6013490D01*
X7480850Y6021530D01*
X7476610Y6031190D01*
Y6047270D01*
X7470260Y6061750D01*
X7457560Y6071400D01*
X7442750Y6074620D01*
X7427930Y6071400D01*
X7417340Y6063360D01*
X7411000Y6050490D01*
X7408880Y6039230D01*
G01X7681500Y6474840D02*
X7683620Y6487710D01*
X7692080Y6498970D01*
X7704780Y6508620D01*
X7719600Y6515060D01*
X7736530Y6518280D01*
X7753470D01*
X7770400Y6515060D01*
X7785220Y6508620D01*
X7797920Y6498970D01*
X7806380Y6487710D01*
X7808500Y6474840D01*
X7806380Y6461970D01*
X7797920Y6450710D01*
X7785220Y6441060D01*
X7770400Y6434620D01*
X7753470Y6431400D01*
X7736530D01*
X7719600Y6434620D01*
X7704780Y6441060D01*
X7692080Y6450710D01*
X7683620Y6461970D01*
X7681500Y6474840D01*
G01X7715370Y6461970D02*
X7681500Y6442670D01*
G01Y6326000D02*
X7808500D01*
X7717480Y6385520D01*
Y6305080D01*
G01X7808500Y6215760D02*
X7804270Y6228630D01*
X7793680Y6238280D01*
X7780990Y6244720D01*
X7764050Y6249540D01*
X7745000Y6251150D01*
X7725950Y6249540D01*
X7709010Y6244720D01*
X7696310Y6238280D01*
X7685730Y6228630D01*
X7681500Y6215760D01*
X7685730Y6202890D01*
X7696310Y6193240D01*
X7709010Y6186800D01*
X7725950Y6181980D01*
X7745000Y6180370D01*
X7764050Y6181980D01*
X7780990Y6186800D01*
X7793680Y6193240D01*
X7804270Y6202890D01*
X7808500Y6215760D01*
G01X7681500Y6089440D02*
X7709010Y6086220D01*
X7732300Y6081390D01*
X7753470Y6074960D01*
X7776750Y6066920D01*
X7808500Y6054050D01*
Y6118390D01*
G01X7431280Y7073900D02*
X7498840Y7200900D01*
G01X7431280D02*
X7498840Y7073900D01*
G01X7629990Y7190320D02*
X7620340Y7196670D01*
X7609080Y7200900D01*
X7596210D01*
X7581730Y7194550D01*
X7570470Y7183970D01*
X7562430Y7171270D01*
X7555990Y7150100D01*
X7554380Y7131050D01*
X7557600Y7112000D01*
X7562430Y7099300D01*
X7572080Y7086600D01*
X7583340Y7078130D01*
X7594600Y7073900D01*
X7605860D01*
X7617120Y7078130D01*
X7626770Y7084480D01*
X7634820Y7092950D01*
G01X7743440Y7073900D02*
Y7200900D01*
X7683920Y7109880D01*
X7764360D01*
G01X7552000Y7759000D02*
Y9537000D01*
X8314000D01*
Y7759000D01*
X7552000D01*
G01Y9537000D02*
X7806000D01*
X7869500Y9473500D01*
X7996500D01*
X8060000Y9537000D01*
X8314000D01*
G01X7379550Y9639300D02*
Y9766300D01*
X7419760D01*
X7432630Y9759950D01*
X7440680Y9751480D01*
X7443890Y9734550D01*
X7440680Y9717620D01*
X7431020Y9707030D01*
X7419760Y9700680D01*
X7379550D01*
G01X7419760D02*
X7443890Y9639300D01*
G01X7573430D02*
X7509090D01*
Y9766300D01*
X7573430D01*
G01X7547690Y9704920D02*
X7509090D01*
G01X7690100Y9639300D02*
Y9766300D01*
X7630580Y9675280D01*
X7711020D01*
G01X7800340Y9766300D02*
X7787470Y9762070D01*
X7777820Y9751480D01*
X7771380Y9738790D01*
X7766560Y9721850D01*
X7764950Y9702800D01*
X7766560Y9683750D01*
X7771380Y9666810D01*
X7777820Y9654110D01*
X7787470Y9643530D01*
X7800340Y9639300D01*
X7813210Y9643530D01*
X7822860Y9654110D01*
X7829300Y9666810D01*
X7834120Y9683750D01*
X7835730Y9702800D01*
X7834120Y9721850D01*
X7829300Y9738790D01*
X7822860Y9751480D01*
X7813210Y9762070D01*
X7800340Y9766300D01*
G01X7894490Y9664700D02*
X7904140Y9649880D01*
X7917010Y9641420D01*
X7931490Y9639300D01*
X7944360Y9641420D01*
X7957230Y9652000D01*
X7965270Y9664700D01*
X7966880Y9677400D01*
X7963660Y9692210D01*
X7952400Y9702800D01*
X7941140Y9707030D01*
X7926660D01*
G01X7941140D02*
X7950790Y9713380D01*
X7958840Y9723960D01*
X7962050Y9736670D01*
X7958840Y9749370D01*
X7950790Y9759950D01*
X7936310Y9766300D01*
X7921840Y9764180D01*
X7907360Y9755720D01*
G01X7580000Y12550000D02*
X9820000D01*
Y10350000D01*
X7580000D01*
Y12550000D01*
G01Y12350000D02*
X9820000D01*
G01X8744280Y4126220D02*
X8871280D01*
Y4086010D01*
X8864930Y4073140D01*
X8856460Y4065090D01*
X8839530Y4061880D01*
X8822600Y4065090D01*
X8812010Y4074750D01*
X8805660Y4086010D01*
Y4126220D01*
G01Y4086010D02*
X8744280Y4061880D01*
G01Y3945210D02*
X8871280D01*
X8780260Y4004730D01*
Y3924290D01*
G01X8871280Y3834970D02*
X8867050Y3847840D01*
X8856460Y3857490D01*
X8843770Y3863930D01*
X8826830Y3868750D01*
X8807780Y3870360D01*
X8788730Y3868750D01*
X8771790Y3863930D01*
X8759090Y3857490D01*
X8748510Y3847840D01*
X8744280Y3834970D01*
X8748510Y3822100D01*
X8759090Y3812450D01*
X8771790Y3806010D01*
X8788730Y3801190D01*
X8807780Y3799580D01*
X8826830Y3801190D01*
X8843770Y3806010D01*
X8856460Y3812450D01*
X8867050Y3822100D01*
X8871280Y3834970D01*
G01X8759090Y3732780D02*
X8748510Y3721520D01*
X8744280Y3708650D01*
X8748510Y3695780D01*
X8761210Y3684520D01*
X8780260Y3676470D01*
X8799310Y3673260D01*
X8822600D01*
X8841650Y3676470D01*
X8858580Y3684520D01*
X8867050Y3694170D01*
X8871280Y3705430D01*
X8867050Y3718300D01*
X8858580Y3727950D01*
X8845880Y3734390D01*
X8828940Y3737600D01*
X8814130Y3734390D01*
X8799310Y3726340D01*
X8790840Y3716690D01*
X8788730Y3705430D01*
X8792960Y3692560D01*
X8803550Y3682910D01*
X8822600Y3673260D01*
G01X8484280Y4126220D02*
X8611280D01*
Y4086010D01*
X8604930Y4073140D01*
X8596460Y4065090D01*
X8579530Y4061880D01*
X8562600Y4065090D01*
X8552010Y4074750D01*
X8545660Y4086010D01*
Y4126220D01*
G01Y4086010D02*
X8484280Y4061880D01*
G01Y3945210D02*
X8611280D01*
X8520260Y4004730D01*
Y3924290D01*
G01X8484280Y3834970D02*
X8611280D01*
X8585880Y3854270D01*
G01X8484280D02*
Y3815670D01*
G01X8611280Y3705430D02*
X8607050Y3718300D01*
X8596460Y3727950D01*
X8583770Y3734390D01*
X8566830Y3739210D01*
X8547780Y3740820D01*
X8528730Y3739210D01*
X8511790Y3734390D01*
X8499090Y3727950D01*
X8488510Y3718300D01*
X8484280Y3705430D01*
X8488510Y3692560D01*
X8499090Y3682910D01*
X8511790Y3676470D01*
X8528730Y3671650D01*
X8547780Y3670040D01*
X8566830Y3671650D01*
X8583770Y3676470D01*
X8596460Y3682910D01*
X8607050Y3692560D01*
X8611280Y3705430D01*
G01X8917000Y4481400D02*
X8663000D01*
Y5192600D01*
X8917000D01*
G01X8657000Y4481400D02*
X8403000D01*
Y5192600D01*
X8657000D01*
G01Y4481400D02*
Y5192600D01*
G01X8132000Y4481400D02*
Y5192600D01*
G01X8392000Y4986400D02*
X8138000D01*
Y5697600D01*
X8392000D01*
G01Y4986400D02*
Y5697600D01*
G01X8400700Y5936360D02*
Y5509640D01*
G01Y5936360D02*
G02Y5509640I113771J-213360D01*
G01X8193880Y6463240D02*
X8320880D01*
Y6431070D01*
X8314530Y6418200D01*
X8306060Y6408550D01*
X8293370Y6400500D01*
X8278540Y6394070D01*
X8257380Y6392460D01*
X8236210Y6394070D01*
X8221390Y6400500D01*
X8208690Y6408550D01*
X8200230Y6418200D01*
X8193880Y6431070D01*
Y6463240D01*
G01Y6279010D02*
X8320880D01*
X8229860Y6338530D01*
Y6258090D01*
G01X8320880Y6168770D02*
X8316650Y6181640D01*
X8306060Y6191290D01*
X8293370Y6197730D01*
X8276430Y6202550D01*
X8257380Y6204160D01*
X8238330Y6202550D01*
X8221390Y6197730D01*
X8208690Y6191290D01*
X8198110Y6181640D01*
X8193880Y6168770D01*
X8198110Y6155900D01*
X8208690Y6146250D01*
X8221390Y6139810D01*
X8238330Y6134990D01*
X8257380Y6133380D01*
X8276430Y6134990D01*
X8293370Y6139810D01*
X8306060Y6146250D01*
X8316650Y6155900D01*
X8320880Y6168770D01*
G01X8193880Y6042450D02*
X8221390Y6039230D01*
X8244680Y6034400D01*
X8265850Y6027970D01*
X8289130Y6019930D01*
X8320880Y6007060D01*
Y6071400D01*
G01X8451500Y6474840D02*
X8453620Y6487710D01*
X8462080Y6498970D01*
X8474780Y6508620D01*
X8489600Y6515060D01*
X8506530Y6518280D01*
X8523470D01*
X8540400Y6515060D01*
X8555220Y6508620D01*
X8567920Y6498970D01*
X8576380Y6487710D01*
X8578500Y6474840D01*
X8576380Y6461970D01*
X8567920Y6450710D01*
X8555220Y6441060D01*
X8540400Y6434620D01*
X8523470Y6431400D01*
X8506530D01*
X8489600Y6434620D01*
X8474780Y6441060D01*
X8462080Y6450710D01*
X8453620Y6461970D01*
X8451500Y6474840D01*
G01X8485370Y6461970D02*
X8451500Y6442670D01*
G01Y6326000D02*
X8578500D01*
X8487480Y6385520D01*
Y6305080D01*
G01X8578500Y6215760D02*
X8574270Y6228630D01*
X8563680Y6238280D01*
X8550990Y6244720D01*
X8534050Y6249540D01*
X8515000Y6251150D01*
X8495950Y6249540D01*
X8479010Y6244720D01*
X8466310Y6238280D01*
X8455730Y6228630D01*
X8451500Y6215760D01*
X8455730Y6202890D01*
X8466310Y6193240D01*
X8479010Y6186800D01*
X8495950Y6181980D01*
X8515000Y6180370D01*
X8534050Y6181980D01*
X8550990Y6186800D01*
X8563680Y6193240D01*
X8574270Y6202890D01*
X8578500Y6215760D01*
G01X8470550Y6121610D02*
X8459960Y6111960D01*
X8453620Y6100700D01*
X8451500Y6086220D01*
X8455730Y6071740D01*
X8464200Y6060480D01*
X8479010Y6052440D01*
X8495950Y6050830D01*
X8512880Y6054050D01*
X8523470Y6062090D01*
X8531930Y6073350D01*
X8534050Y6084610D01*
X8531930Y6095870D01*
X8523470Y6110350D01*
X8578500Y6105520D01*
Y6062090D01*
G01X8090000Y12350000D02*
X8340000D01*
Y12050000D01*
X8090000D01*
Y12350000D01*
G01X9524280Y4126220D02*
X9651280D01*
Y4086010D01*
X9644930Y4073140D01*
X9636460Y4065090D01*
X9619530Y4061880D01*
X9602600Y4065090D01*
X9592010Y4074750D01*
X9585660Y4086010D01*
Y4126220D01*
G01Y4086010D02*
X9524280Y4061880D01*
G01Y3945210D02*
X9651280D01*
X9560260Y4004730D01*
Y3924290D01*
G01X9524280Y3834970D02*
X9651280D01*
X9625880Y3854270D01*
G01X9524280D02*
Y3815670D01*
G01Y3705430D02*
X9651280D01*
X9625880Y3724730D01*
G01X9524280D02*
Y3686130D01*
G01X9264280Y4126220D02*
X9391280D01*
Y4086010D01*
X9384930Y4073140D01*
X9376460Y4065090D01*
X9359530Y4061880D01*
X9342600Y4065090D01*
X9332010Y4074750D01*
X9325660Y4086010D01*
Y4126220D01*
G01Y4086010D02*
X9264280Y4061880D01*
G01Y3945210D02*
X9391280D01*
X9300260Y4004730D01*
Y3924290D01*
G01X9264280Y3834970D02*
X9391280D01*
X9365880Y3854270D01*
G01X9264280D02*
Y3815670D01*
G01X9370110Y3736000D02*
X9382810Y3726340D01*
X9389160Y3715080D01*
X9391280Y3702210D01*
X9387050Y3686130D01*
X9376460Y3674860D01*
X9363770Y3671650D01*
X9351060Y3673260D01*
X9340480Y3679690D01*
X9319310Y3711860D01*
X9304500Y3726340D01*
X9283330Y3736000D01*
X9264280Y3739210D01*
Y3671650D01*
G01X8917000Y4481400D02*
Y5192600D01*
G01X9697000Y4481400D02*
X9443000D01*
Y5192600D01*
X9697000D01*
G01X9437000Y4481400D02*
X9183000D01*
Y5192600D01*
X9437000D01*
G01Y4481400D02*
Y5192600D01*
G01X9177000Y4986400D02*
X8923000D01*
Y5697600D01*
X9177000D01*
G01Y4986400D02*
Y5697600D01*
G01X9195700Y5936360D02*
Y5509640D01*
G01Y5936360D02*
G02Y5509640I113771J-213360D01*
G01X8978880Y6463240D02*
X9105880D01*
Y6431070D01*
X9099530Y6418200D01*
X9091060Y6408550D01*
X9078370Y6400500D01*
X9063540Y6394070D01*
X9042380Y6392460D01*
X9021210Y6394070D01*
X9006390Y6400500D01*
X8993690Y6408550D01*
X8985230Y6418200D01*
X8978880Y6431070D01*
Y6463240D01*
G01Y6279010D02*
X9105880D01*
X9014860Y6338530D01*
Y6258090D01*
G01X9105880Y6168770D02*
X9101650Y6181640D01*
X9091060Y6191290D01*
X9078370Y6197730D01*
X9061430Y6202550D01*
X9042380Y6204160D01*
X9023330Y6202550D01*
X9006390Y6197730D01*
X8993690Y6191290D01*
X8983110Y6181640D01*
X8978880Y6168770D01*
X8983110Y6155900D01*
X8993690Y6146250D01*
X9006390Y6139810D01*
X9023330Y6134990D01*
X9042380Y6133380D01*
X9061430Y6134990D01*
X9078370Y6139810D01*
X9091060Y6146250D01*
X9101650Y6155900D01*
X9105880Y6168770D01*
G01X8997930Y6074620D02*
X8987340Y6064970D01*
X8981000Y6053710D01*
X8978880Y6039230D01*
X8983110Y6024750D01*
X8991580Y6013490D01*
X9006390Y6005450D01*
X9023330Y6003840D01*
X9040260Y6007060D01*
X9050850Y6015100D01*
X9059310Y6026360D01*
X9061430Y6037620D01*
X9059310Y6048880D01*
X9050850Y6063360D01*
X9105880Y6058530D01*
Y6015100D01*
G01X9246500Y6474840D02*
X9248620Y6487710D01*
X9257080Y6498970D01*
X9269780Y6508620D01*
X9284600Y6515060D01*
X9301530Y6518280D01*
X9318470D01*
X9335400Y6515060D01*
X9350220Y6508620D01*
X9362920Y6498970D01*
X9371380Y6487710D01*
X9373500Y6474840D01*
X9371380Y6461970D01*
X9362920Y6450710D01*
X9350220Y6441060D01*
X9335400Y6434620D01*
X9318470Y6431400D01*
X9301530D01*
X9284600Y6434620D01*
X9269780Y6441060D01*
X9257080Y6450710D01*
X9248620Y6461970D01*
X9246500Y6474840D01*
G01X9280370Y6461970D02*
X9246500Y6442670D01*
G01Y6326000D02*
X9373500D01*
X9282480Y6385520D01*
Y6305080D01*
G01X9373500Y6215760D02*
X9369270Y6228630D01*
X9358680Y6238280D01*
X9345990Y6244720D01*
X9329050Y6249540D01*
X9310000Y6251150D01*
X9290950Y6249540D01*
X9274010Y6244720D01*
X9261310Y6238280D01*
X9250730Y6228630D01*
X9246500Y6215760D01*
X9250730Y6202890D01*
X9261310Y6193240D01*
X9274010Y6186800D01*
X9290950Y6181980D01*
X9310000Y6180370D01*
X9329050Y6181980D01*
X9345990Y6186800D01*
X9358680Y6193240D01*
X9369270Y6202890D01*
X9373500Y6215760D01*
G01X9299410Y6116790D02*
X9314230Y6105520D01*
X9322700Y6095870D01*
X9326930Y6083000D01*
X9322700Y6071740D01*
X9314230Y6063700D01*
X9301530Y6057260D01*
X9286720Y6055650D01*
X9274010Y6057260D01*
X9261310Y6063700D01*
X9250730Y6073350D01*
X9246500Y6084610D01*
X9250730Y6097480D01*
X9263430Y6108740D01*
X9282480Y6115180D01*
X9303650Y6116790D01*
X9331160Y6113570D01*
X9345990Y6108740D01*
X9360800Y6100700D01*
X9371380Y6089440D01*
X9373500Y6078180D01*
X9369270Y6066920D01*
X9358680Y6058870D01*
G01X9348050Y7518400D02*
Y7645400D01*
X9388260D01*
X9401130Y7639050D01*
X9409180Y7630580D01*
X9412390Y7613650D01*
X9409180Y7596720D01*
X9399520Y7586130D01*
X9388260Y7579780D01*
X9348050D01*
G01X9388260D02*
X9412390Y7518400D01*
G01X9541930D02*
X9477590D01*
Y7645400D01*
X9541930D01*
G01X9516190Y7584020D02*
X9477590D01*
G01X9658600Y7518400D02*
Y7645400D01*
X9599080Y7554380D01*
X9679520D01*
G01X9768840Y7645400D02*
X9755970Y7641170D01*
X9746320Y7630580D01*
X9739880Y7617890D01*
X9735060Y7600950D01*
X9733450Y7581900D01*
X9735060Y7562850D01*
X9739880Y7545910D01*
X9746320Y7533210D01*
X9755970Y7522630D01*
X9768840Y7518400D01*
X9781710Y7522630D01*
X9791360Y7533210D01*
X9797800Y7545910D01*
X9802620Y7562850D01*
X9804230Y7581900D01*
X9802620Y7600950D01*
X9797800Y7617890D01*
X9791360Y7630580D01*
X9781710Y7641170D01*
X9768840Y7645400D01*
G01X9917680Y7518400D02*
Y7645400D01*
X9858160Y7554380D01*
X9938600D01*
G01X9723000Y9531000D02*
Y7753000D01*
X8961000D01*
Y9531000D01*
X9723000D01*
G01Y7753000D02*
X9469000D01*
X9405500Y7816500D01*
X9278500D01*
X9215000Y7753000D01*
X8961000D01*
G01X9060000Y12350000D02*
X9310000D01*
Y12050000D01*
X9060000D01*
Y12350000D01*
G01X9697000Y4481400D02*
Y5192600D01*
G01X9957000Y4986400D02*
X9703000D01*
Y5697600D01*
X9957000D01*
G01Y4986400D02*
Y5697600D01*
G01X9758880Y6463240D02*
X9885880D01*
Y6431070D01*
X9879530Y6418200D01*
X9871060Y6408550D01*
X9858370Y6400500D01*
X9843540Y6394070D01*
X9822380Y6392460D01*
X9801210Y6394070D01*
X9786390Y6400500D01*
X9773690Y6408550D01*
X9765230Y6418200D01*
X9758880Y6431070D01*
Y6463240D01*
G01Y6279010D02*
X9885880D01*
X9794860Y6338530D01*
Y6258090D01*
G01X9885880Y6168770D02*
X9881650Y6181640D01*
X9871060Y6191290D01*
X9858370Y6197730D01*
X9841430Y6202550D01*
X9822380Y6204160D01*
X9803330Y6202550D01*
X9786390Y6197730D01*
X9773690Y6191290D01*
X9763110Y6181640D01*
X9758880Y6168770D01*
X9763110Y6155900D01*
X9773690Y6146250D01*
X9786390Y6139810D01*
X9803330Y6134990D01*
X9822380Y6133380D01*
X9841430Y6134990D01*
X9858370Y6139810D01*
X9871060Y6146250D01*
X9881650Y6155900D01*
X9885880Y6168770D01*
G01X9811790Y6069800D02*
X9826610Y6058530D01*
X9835080Y6048880D01*
X9839310Y6036010D01*
X9835080Y6024750D01*
X9826610Y6016710D01*
X9813910Y6010270D01*
X9799100Y6008660D01*
X9786390Y6010270D01*
X9773690Y6016710D01*
X9763110Y6026360D01*
X9758880Y6037620D01*
X9763110Y6050490D01*
X9775810Y6061750D01*
X9794860Y6068190D01*
X9816030Y6069800D01*
X9843540Y6066580D01*
X9858370Y6061750D01*
X9873180Y6053710D01*
X9883760Y6042450D01*
X9885880Y6031190D01*
X9881650Y6019930D01*
X9871060Y6011880D01*
G01X9806180Y10147300D02*
X9873740Y10274300D01*
G01X9806180D02*
X9873740Y10147300D01*
G01X9934110D02*
Y10274300D01*
X9966280D01*
X9979150Y10267950D01*
X9988800Y10259480D01*
X9996850Y10246790D01*
X10003280Y10231960D01*
X10004890Y10210800D01*
X10003280Y10189630D01*
X9996850Y10174810D01*
X9988800Y10162110D01*
X9979150Y10153650D01*
X9966280Y10147300D01*
X9934110D01*
G01X10118340D02*
Y10274300D01*
X10058820Y10183280D01*
X10139260D01*
M02*
