%
T1C0.0120F200S100
X006890Y-009843
X008071Y-010827
X008071Y-007677
X009252Y-008662
X009843Y-009252
X010630Y-012795
X010630Y-010827
X011614Y-010827
X011614Y-006693
X012205Y-009252
X012599Y-006890
X013386Y-013780
X013977Y-013780
X013386Y-012008
X013386Y-007874
X014173Y-006102
X014370Y-010827
X014370Y-002165
X014399Y-003965
X015551Y-013386
X015945Y-009055
X015945Y-008465
X015945Y-007874
X015945Y-007284
X015945Y-006693
X015945Y-006102
X015945Y-004528
X015945Y-003937
X015945Y-003346
X015945Y-002756
X015945Y-002165
X015945Y-001575
X015977Y-011055
X016536Y-012205
X016732Y-009055
X016732Y-008465
X016732Y-007874
X016732Y-007284
X016732Y-006693
X016732Y-006102
X016732Y-004528
X016732Y-003937
X016732Y-003346
X016732Y-002756
X016732Y-002165
X016732Y-001575
X017520Y-009055
X017520Y-008465
X017520Y-007874
X017520Y-007284
X017520Y-006693
X017520Y-006102
X017520Y-004528
X017520Y-003937
X017520Y-003346
X017520Y-002756
X017520Y-002165
X017520Y-001575
X019095Y-009055
X019095Y-002165
X019488Y-008071
X019488Y-007087
X020670Y-008268
X022244Y-008662
X022835Y-011614
X023032Y-004528
X023032Y-002165
X023638Y-012614
X024803Y-004527
X025197Y-008465
X025394Y-006102
X025394Y-001575
X025591Y-011221
X026772Y-004527
X027363Y-011221
X027363Y-006102
X027363Y-001575
X027559Y-012008
X027953Y-004528
X028150Y-010827
X028150Y-010433
X028741Y-001575
X029134Y-011008
X029516Y-008083
X035827Y-010236
X037583Y-009039
X037796Y-005709
X038977Y-005709
X039371Y-007874
X039793Y-010228
X041059Y-010517
X042299Y-005537
X042324Y-004975
X042717Y-009055
X042717Y-005512
X044080Y-007692
X044095Y-009252
X044095Y-008268
X044292Y-007284
X044489Y-008858
X044489Y-007874
X044686Y-006496
X044883Y-005906
X045276Y-006299
X045867Y-012402
X046060Y-008272
X046064Y-010039
X047638Y-008661
X047835Y-012402
X048426Y-000590
X049017Y-003740
X050001Y-005512
X050395Y-015551
X050395Y-014961
X050395Y-014370
X050395Y-013780
X050985Y-015551
X051576Y-015551
X051576Y-014961
X050985Y-014961
X050985Y-014370
X050985Y-013780
X051576Y-014370
X051576Y-013780
X051969Y-000984
X052166Y-015551
X052166Y-014961
X052166Y-014370
X052166Y-013780
X052757Y-015551
X052757Y-014961
X052757Y-014370
X052757Y-013780
X053347Y-015551
X053347Y-014961
X053347Y-014370
X053347Y-013780
X053347Y-012795
X053544Y-011811
X054344Y-015563
X058662Y-009252
X059253Y-005512
X059647Y-010827
X060237Y-001378
X060631Y-010039
X061025Y-003937
X061025Y-002559
X061615Y-002756
X062599Y-009252
X062599Y-007874
X062993Y-009252
X062993Y-007874
X063190Y-001968
X063190Y-001575
X064371Y-001968
X064371Y-000984
X065552Y-010039
X066143Y-009252
X066733Y-011048
X067127Y-009252
X067521Y-004724
X067127Y-004528
X067915Y-004921
X068308Y-005118
X068505Y-011024
X068505Y-010039
X068702Y-009252
X068702Y-005315
X068505Y-002165
X068505Y-001378
X069096Y-005512
X069293Y-002165
X069293Y-001378
X069489Y-005709
X069883Y-005906
X070277Y-006102
X070670Y-013583
X070671Y-015945
X070674Y-006696
X070671Y-006299
X071655Y-005906
X071655Y-003543
X072048Y-008465
X072245Y-015945
X072245Y-013583
X072245Y-002362
X072245Y-001575
X072836Y-001575
X073230Y-008858
X073426Y-013386
X073623Y-014370
X073426Y-001575
X074017Y-015158
X074017Y-014370
X074017Y-011024
X074214Y-008858
X074411Y-005709
X074411Y-005118
X074411Y-004528
X074411Y-003740
X074608Y-013406
X074804Y-006496
X075198Y-012795
X075198Y-005709
X075198Y-004528
X075198Y-003150
X075395Y-014567
X075789Y-014567
X075789Y-003150
X076182Y-014567
X076379Y-015945
X076379Y-006496
X076379Y-003937
X076773Y-015945
X076970Y-003937
X077167Y-008661
X077560Y-006496
X077560Y-005118
X077560Y-004528
X077560Y-003346
X077560Y-002756
X077757Y-009252
X077954Y-015551
X078151Y-014961
X078545Y-006496
X078151Y-005709
X078742Y-015551
X079119Y-009252
X079135Y-012599
X079332Y-001378
X079529Y-012599
X079726Y-001181
X079923Y-008662
X080316Y-002559
X080316Y-002165
X080513Y-012599
X080694Y-007071
X080710Y-007480
X080710Y-010433
X080710Y-001772
X080907Y-013780
X080907Y-006102
X081694Y-001181
X081891Y-014173
X082088Y-001181
X082482Y-013386
X082482Y-012992
X082679Y-010630
X083072Y-007480
X083072Y-008071
X083072Y-006890
X083072Y-006299
X083072Y-005709
X083072Y-005118
X083072Y-001181
X083466Y-001181
X083663Y-005118
X084041Y-011402
X084057Y-012992
X084450Y-010827
X085435Y-003937
X085438Y-003146
X085632Y-006693
X085632Y-005906
X085632Y-005118
X085828Y-012992
X086419Y-012795
X086419Y-002362
X086419Y-001772
X086813Y-015551
X087403Y-015945
X086813Y-007480
X087797Y-011614
X088584Y-011614
X088584Y-011024
X088584Y-010433
X088584Y-009843
X088584Y-009252
X088584Y-008662
X088584Y-008071
X088584Y-006693
X088584Y-005906
X088584Y-005118
X088584Y-004331
X089372Y-011614
X089372Y-011024
X089372Y-010433
X089372Y-009843
X089372Y-009252
X089372Y-008661
X089372Y-008071
X089372Y-006693
X089372Y-005906
X089372Y-005118
X089372Y-004331
X089373Y-015945
X089570Y-013780
X090159Y-011614
X090159Y-011024
X090159Y-010433
X090159Y-009843
X090159Y-009252
X090159Y-008662
X090159Y-008071
X090159Y-006693
X090159Y-005906
X090159Y-005118
X090159Y-004331
X090750Y-013386
X090946Y-011614
X090946Y-011024
X090946Y-010433
X090946Y-009843
X090946Y-009252
X090946Y-008662
X090946Y-008071
X090946Y-006693
X090946Y-005906
X090946Y-005118
X090946Y-004331
X090946Y-002559
X091354Y-015945
X091734Y-011614
X091734Y-011024
X091734Y-010433
X091734Y-009843
X091734Y-009252
X091734Y-008662
X091734Y-008071
X091734Y-006693
X091734Y-005906
X091734Y-005118
X091734Y-004331
X092521Y-011614
X092521Y-011024
X092521Y-010433
X092521Y-009843
X092521Y-009252
X092521Y-008662
X092521Y-008071
X092521Y-006693
X092521Y-005906
X092521Y-005118
X092521Y-004331
X093309Y-011614
X093309Y-011024
X093309Y-010433
X093309Y-009843
X093309Y-009252
X093309Y-008662
X093309Y-008071
X093309Y-007284
X093309Y-006693
X093309Y-005906
X093309Y-005118
X093309Y-004331
X093506Y-015551
X093702Y-004528
X093506Y-001378
X093928Y-015362
X094096Y-011614
X094884Y-003150
X095081Y-008071
X095671Y-001968
X096262Y-012795
X096456Y-005514
X096458Y-013386
X096458Y-007087
X096458Y-006299
X096487Y-015362
X096852Y-012795
X096852Y-012205
X096852Y-011614
X096852Y-011024
X096852Y-009252
X096852Y-008662
X096852Y-008071
X097640Y-011024
X098427Y-011024
X098427Y-009252
X097640Y-009252
X097640Y-002756
X099214Y-011024
X099214Y-009252
X099214Y-002756
X099411Y-001968
X099411Y-000787
X100002Y-011024
X100002Y-009252
X100199Y-006299
X100592Y-002953
X100789Y-011024
X100789Y-009252
X101183Y-005315
X101183Y-002953
X101577Y-011024
X101577Y-009252
X102167Y-006890
X102364Y-011024
X102364Y-009252
X102167Y-001968
X102364Y-000394
X102561Y-002953
X102561Y-000787
X102758Y-005709
X102955Y-004724
X103151Y-011024
X103151Y-009252
X103348Y-001575
X103939Y-011024
X103939Y-009252
X104529Y-000590
X104726Y-011024
X104726Y-009252
X105317Y-007480
X105317Y-006496
X105514Y-011024
X105514Y-009252
X105907Y-004921
X106104Y-003150
X106301Y-011024
X106301Y-009252
X107089Y-011024
X107089Y-009252
X107285Y-005709
X107285Y-003150
X107876Y-011024
X107876Y-009252
X108270Y-006299
X107876Y-001968
X108663Y-011024
X108663Y-009252
X109057Y-001181
X109451Y-011024
X109451Y-009252
X109648Y-005709
X109648Y-000590
X110238Y-011024
X111026Y-011024
X111026Y-009252
X110238Y-009252
X111419Y-002165
X111813Y-011024
X111813Y-009252
X111813Y-000590
X112600Y-011024
X112600Y-009252
X112813Y-003559
X112813Y-000575
X113388Y-011024
X113388Y-009252
X113388Y-006102
X114175Y-012795
X114175Y-012205
X114175Y-011614
X114175Y-011024
X114175Y-009252
X114175Y-008662
X114175Y-008071
X114175Y-007480
X114175Y-006890
X114963Y-012795
X115750Y-012795
X115750Y-006890
X114963Y-006890
X116538Y-012795
X117325Y-012795
X117325Y-006890
X116538Y-006890
T7C0.0394F200S100
X002756Y-015945
X004134Y-015945
X004134Y-001575
X007283Y-006890
X020473Y-005709
X020473Y-004724
X028741Y-009646
X041536Y-012008
X054725Y-012795
X075789Y-010236
X076970Y-010236
X078151Y-010236
X089372Y-001181
X090356Y-001181
T11C0.1500F200S100
X001968Y-013543
X001968Y-004390
X033433Y-013543
X033433Y-004390
X057661Y-013543
X057661Y-004390
X098610Y-013543
X098610Y-004390
T10C0.0800F200S100
X005382Y-003180
T3C0.0320F200S100
X005102Y-013240
X005102Y-012240
X005102Y-011240
X005102Y-010240
X005102Y-009240
X005102Y-008240
X005102Y-007240
X005102Y-006240
X005102Y-005240
X005102Y-004240
X006102Y-012740
X006102Y-011740
X006102Y-010740
X006102Y-009740
X006102Y-008740
X006102Y-007740
X006102Y-006740
X006102Y-005740
X006102Y-004740
X006102Y-003740
T5C0.0380F200S100
X039430Y-001968
X041430Y-001968
X042701Y-011417
X043701Y-011417
X076379Y-011221
X077379Y-011221
T6C0.0390F200S100
X038977Y-014583
X038977Y-013583
X039977Y-014583
X039977Y-013583
X040977Y-014583
X040977Y-013583
X041977Y-014583
X041977Y-013583
X042977Y-014583
X042977Y-013583
T4C0.0340F200S100
X060631Y-014961
X060631Y-011961
X066631Y-014961
X066631Y-011961
T2C0.0300F200S100
X081104Y-015554
X081104Y-014764
X081894Y-015554
X081894Y-014764
X082684Y-015554
X082684Y-014764
X083474Y-015554
X083474Y-014764
X084254Y-015554
X084254Y-014764
X085044Y-015554
X085044Y-014764
X085834Y-015554
X085834Y-014764
T9C0.0512F200S100
X103424Y-005855
X104424Y-004855
X103424Y-003855
X103424Y-002706
X104424Y-001706
X103424Y-000706
X105424Y-005855
X105424Y-003855
X105424Y-002706
X105424Y-000706
T8C0.0420F200S100
X106693Y-004724
X107693Y-004724
X108693Y-004724
X110236Y-004724
X111236Y-004724
X112236Y-004724
M30
