G04 ================== begin FILE IDENTIFICATION RECORD ==================*
G04 Layout Name:  F:/PT8620_LTC/PT8620_Version2/PT8620_LTC2.brd*
G04 Film Name:    ASSEMBLY_TOP*
G04 File Format:  Gerber RS274X*
G04 File Origin:  Cadence Allegro 16.6-S050*
G04 Origin Date:  Mon Jun 22 13:51:13 2015*
G04 *
G04 Layer:  REF DES/ASSEMBLY_TOP*
G04 Layer:  PACKAGE GEOMETRY/ASSEMBLY_TOP*
G04 Layer:  BOARD GEOMETRY/OUTLINE*
G04 *
G04 Offset:    (0.0000 0.0000)*
G04 Mirror:    No*
G04 Mode:      Positive*
G04 Rotation:  0*
G04 FullContactRelief:  No*
G04 UndefLineWidth:     0.1000*
G04 ================== end FILE IDENTIFICATION RECORD ====================*
%FSAX35Y35*MOMM*%
%IR0*IPPOS*OFA0.00000B0.00000*MIA0B0*SFA1.00000B1.00000*%
%ADD10C,.1*%
%ADD11C,.4*%
%ADD12C,.15*%
%ADD13C,.05*%
G75*
%LPD*%
G75*
G36*
G01X02409700Y03238500D02*
G03X02409700Y03238500I-01076200J0D01*
G37*
G36*
G01X02028000Y07597000D02*
G03X02028000Y07597000I-00150000J0D01*
G37*
G36*
G01X03908000Y01200000D02*
G03X03908000Y01200000I-00150000J0D01*
G37*
G36*
G01X04687500Y06480000D02*
G03X04687500Y06480000I-00294000J0D01*
G37*
G36*
G01X04687500Y07213750D02*
G03X04687500Y07213750I-00294000J0D01*
G37*
G36*
G01X04687500Y07947500D02*
G03X04687500Y07947500I-00294000J0D01*
G37*
G36*
G01X04374700Y04540000D02*
G03X04374700Y04540000I-00044700J0D01*
G37*
G36*
G01X05645000Y01280000D02*
G03X05645000Y01280000I-00025000J0D01*
G37*
G36*
G01X06145000Y03505000D02*
X06155000Y03505000D01*
X06155000Y03465000D01*
X06225000Y03505000D01*
X06225000Y03420000D01*
X06155000Y03460000D01*
X06155000Y03420000D01*
X06145000Y03420000D01*
X06145000Y03505000D01*
G37*
G36*
G01X06145000Y03235000D02*
X06155000Y03235000D01*
X06155000Y03195000D01*
X06225000Y03235000D01*
X06225000Y03150000D01*
X06155000Y03190000D01*
X06155000Y03150000D01*
X06145000Y03150000D01*
X06145000Y03235000D01*
G37*
G36*
G01X06392900Y06802000D02*
G03X06392900Y06802000I-00036400J0D01*
G37*
G36*
G01X06392900Y07754500D02*
G03X06392900Y07754500I-00036400J0D01*
G37*
G36*
G01X09020000Y06500000D02*
G03X09020000Y06500000I-00150000J0D01*
G37*
G36*
G01X09632400Y03486000D02*
G03X09632400Y03486000I-00036400J0D01*
G37*
G36*
G01X09946700Y04198500D02*
G03X09946700Y04198500I-00044700J0D01*
G37*
G36*
G01X09946700Y05341500D02*
G03X09946700Y05341500I-00044700J0D01*
G37*
G36*
G01X01928000Y07597000D02*
G03X01928000Y07597000I-00050000J0D01*
G37*
G36*
G01X03808000Y01200000D02*
G03X03808000Y01200000I-00050000J0D01*
G37*
G36*
G01X08920000Y06500000D02*
G03X08920000Y06500000I-00050000J0D01*
G37*
G54D10*
G01X01951500Y06573500D02*
X01611500Y06573500D01*
X01611500Y06443500D01*
X01951500Y06443500D01*
X01951500Y06573500D01*
G01X01951500Y07081500D02*
X01611500Y07081500D01*
X01611500Y06951500D01*
X01951500Y06951500D01*
X01951500Y07081500D01*
G01X10300000Y0D02*
X10300000Y08500000D01*
X0Y08500000D01*
X0Y0D01*
X10300000Y0D01*
G01X00240330Y00734670D02*
X00734670Y00240330D01*
G01X00265330Y00759670D02*
X00759670Y00265330D01*
G01X00156180Y03730680D02*
X00150340Y03734620D01*
X00143520Y03737240D01*
X00135730Y03737240D01*
X00126970Y03733300D01*
X00120160Y03726740D01*
X00115290Y03718870D01*
X00111390Y03705740D01*
X00110420Y03693930D01*
X00112370Y03682120D01*
X00115290Y03674250D01*
X00121130Y03666370D01*
X00127940Y03661120D01*
X00134760Y03658500D01*
X00141580Y03658500D01*
X00148390Y03661120D01*
X00154230Y03665060D01*
X00159100Y03670310D01*
G01X00225180Y03658500D02*
X00225180Y03737240D01*
X00189160Y03680810D01*
X00237840Y03680810D01*
G01X00303920Y03658500D02*
X00303920Y03737240D01*
X00267900Y03680810D01*
X00316580Y03680810D01*
G01X00240330Y08234670D02*
X00734670Y07740330D01*
G01X00265330Y08259670D02*
X00759670Y07765330D01*
G01X00533500Y03388500D02*
X00533500Y03088500D01*
G01X00383500Y03238500D02*
X00683500Y03238500D01*
G01X00865000Y04995000D02*
X00865000Y04745000D01*
X01315000Y04745000D01*
X01315000Y04995000D01*
X00865000Y04995000D01*
G01X01270000Y00635000D02*
X01270000Y01270000D01*
G01X01742440Y00635000D02*
X01270000Y00635000D01*
G01X01397000Y01397000D02*
X01524000Y01397000D01*
G01X01460500Y01460500D02*
X01460500Y01333500D01*
G01X01270000Y01270000D02*
X01742440Y01270000D01*
G01X01241790Y01810000D02*
X01241790Y01888740D01*
X01266130Y01888740D01*
X01273920Y01884800D01*
X01278790Y01879550D01*
X01280730Y01869050D01*
X01278790Y01858560D01*
X01272940Y01852000D01*
X01266130Y01848060D01*
X01241790Y01848060D01*
G01X01266130Y01848060D02*
X01280730Y01810000D01*
G01X01321500Y01875620D02*
X01327340Y01883490D01*
X01334160Y01887430D01*
X01341950Y01888740D01*
X01351680Y01886120D01*
X01358500Y01879550D01*
X01360450Y01871680D01*
X01359470Y01863800D01*
X01355580Y01857240D01*
X01336110Y01844120D01*
X01327340Y01834930D01*
X01321500Y01821810D01*
X01319550Y01810000D01*
X01360450Y01810000D01*
G01X01416790Y01810000D02*
X01418740Y01827060D01*
X01421660Y01841490D01*
X01425560Y01854620D01*
X01430420Y01869050D01*
X01438210Y01888740D01*
X01399270Y01888740D01*
G01X01019210Y04908740D02*
X01019210Y04852310D01*
X01023100Y04840500D01*
X01030890Y04832620D01*
X01040630Y04830000D01*
X01050370Y04832620D01*
X01058160Y04840500D01*
X01062050Y04852310D01*
X01062050Y04908740D01*
G01X01131050Y04830000D02*
X01131050Y04908740D01*
X01095030Y04852310D01*
X01143710Y04852310D01*
G01X01102680Y05322180D02*
X01096840Y05326120D01*
X01090020Y05328740D01*
X01082230Y05328740D01*
X01073470Y05324800D01*
X01066660Y05318240D01*
X01061790Y05310370D01*
X01057890Y05297240D01*
X01056920Y05285430D01*
X01058870Y05273620D01*
X01061790Y05265750D01*
X01067630Y05257870D01*
X01074440Y05252620D01*
X01081260Y05250000D01*
X01088080Y05250000D01*
X01094890Y05252620D01*
X01100730Y05256560D01*
X01105600Y05261810D01*
G01X01141500Y05315620D02*
X01147340Y05323490D01*
X01154160Y05327430D01*
X01161950Y05328740D01*
X01171680Y05326120D01*
X01178500Y05319550D01*
X01180450Y05311680D01*
X01179470Y05303800D01*
X01175580Y05297240D01*
X01156110Y05284120D01*
X01147340Y05274930D01*
X01141500Y05261810D01*
X01139550Y05250000D01*
X01180450Y05250000D01*
G01X01238740Y05250000D02*
X01238740Y05328740D01*
X01227060Y05312990D01*
G01X01227060Y05250000D02*
X01250420Y05250000D01*
G01X01612680Y05952180D02*
X01606840Y05956120D01*
X01600020Y05958740D01*
X01592230Y05958740D01*
X01583470Y05954800D01*
X01576660Y05948240D01*
X01571790Y05940370D01*
X01567890Y05927240D01*
X01566920Y05915430D01*
X01568870Y05903620D01*
X01571790Y05895750D01*
X01577630Y05887870D01*
X01584440Y05882620D01*
X01591260Y05880000D01*
X01598080Y05880000D01*
X01604890Y05882620D01*
X01610730Y05886560D01*
X01615600Y05891810D01*
G01X01651500Y05945620D02*
X01657340Y05953490D01*
X01664160Y05957430D01*
X01671950Y05958740D01*
X01681680Y05956120D01*
X01688500Y05949550D01*
X01690450Y05941680D01*
X01689470Y05933800D01*
X01685580Y05927240D01*
X01666110Y05914120D01*
X01657340Y05904930D01*
X01651500Y05891810D01*
X01649550Y05880000D01*
X01690450Y05880000D01*
G01X01760420Y05880000D02*
X01760420Y05958740D01*
X01724400Y05902310D01*
X01773080Y05902310D01*
G01X01537680Y07022450D02*
X01541620Y07028290D01*
X01544240Y07035110D01*
X01544240Y07042900D01*
X01540300Y07051660D01*
X01533740Y07058470D01*
X01525870Y07063340D01*
X01512740Y07067240D01*
X01500930Y07068210D01*
X01489120Y07066260D01*
X01481250Y07063340D01*
X01473370Y07057500D01*
X01468120Y07050690D01*
X01465500Y07043870D01*
X01465500Y07037050D01*
X01468120Y07030240D01*
X01472060Y07024400D01*
X01477310Y07019530D01*
G01X01531120Y06983630D02*
X01538990Y06977790D01*
X01542930Y06970970D01*
X01544240Y06963180D01*
X01541620Y06953450D01*
X01535050Y06946630D01*
X01527180Y06944680D01*
X01519300Y06945660D01*
X01512740Y06949550D01*
X01499620Y06969020D01*
X01490430Y06977790D01*
X01477310Y06983630D01*
X01465500Y06985580D01*
X01465500Y06944680D01*
G01X01537680Y06514450D02*
X01541620Y06520290D01*
X01544240Y06527110D01*
X01544240Y06534900D01*
X01540300Y06543660D01*
X01533740Y06550470D01*
X01525870Y06555340D01*
X01512740Y06559240D01*
X01500930Y06560210D01*
X01489120Y06558260D01*
X01481250Y06555340D01*
X01473370Y06549500D01*
X01468120Y06542690D01*
X01465500Y06535870D01*
X01465500Y06529050D01*
X01468120Y06522240D01*
X01472060Y06516400D01*
X01477310Y06511530D01*
G01X01465500Y06445450D02*
X01544240Y06445450D01*
X01487810Y06481470D01*
X01487810Y06432790D01*
G01X01742440Y01270000D02*
G02X01742440Y00635000I00680720J-00317500D01*
G01X02052680Y04702180D02*
X02046840Y04706120D01*
X02040020Y04708740D01*
X02032230Y04708740D01*
X02023470Y04704800D01*
X02016660Y04698240D01*
X02011790Y04690370D01*
X02007890Y04677240D01*
X02006920Y04665430D01*
X02008870Y04653620D01*
X02011790Y04645750D01*
X02017630Y04637870D01*
X02024440Y04632620D01*
X02031260Y04630000D01*
X02038080Y04630000D01*
X02044890Y04632620D01*
X02050730Y04636560D01*
X02055600Y04641810D01*
G01X02091500Y04695620D02*
X02097340Y04703490D01*
X02104160Y04707430D01*
X02111950Y04708740D01*
X02121680Y04706120D01*
X02128500Y04699550D01*
X02130450Y04691680D01*
X02129470Y04683800D01*
X02125580Y04677240D01*
X02106110Y04664120D01*
X02097340Y04654930D01*
X02091500Y04641810D01*
X02089550Y04630000D01*
X02130450Y04630000D01*
G01X02170240Y04695620D02*
X02176080Y04703490D01*
X02182900Y04707430D01*
X02190690Y04708740D01*
X02200420Y04706120D01*
X02207240Y04699550D01*
X02209190Y04691680D01*
X02208210Y04683800D01*
X02204320Y04677240D01*
X02184850Y04664120D01*
X02176080Y04654930D01*
X02170240Y04641810D01*
X02168290Y04630000D01*
X02209190Y04630000D01*
G01X02507000Y05757000D02*
X02117000Y05757000D01*
X02117000Y04767000D01*
X02507000Y04767000D01*
X02507000Y05757000D01*
G01X01621790Y05490000D02*
X01621790Y05568740D01*
X01646130Y05568740D01*
X01653920Y05564800D01*
X01658790Y05559550D01*
X01660730Y05549050D01*
X01658790Y05538560D01*
X01652940Y05532000D01*
X01646130Y05528060D01*
X01621790Y05528060D01*
G01X01646130Y05528060D02*
X01660730Y05490000D01*
G01X01720000Y05490000D02*
X01720000Y05568740D01*
X01708320Y05552990D01*
G01X01708320Y05490000D02*
X01731680Y05490000D01*
G01X01798740Y05568740D02*
X01790950Y05566120D01*
X01785110Y05559550D01*
X01781210Y05551680D01*
X01778290Y05541180D01*
X01777320Y05529370D01*
X01778290Y05517560D01*
X01781210Y05507060D01*
X01785110Y05499180D01*
X01790950Y05492620D01*
X01798740Y05490000D01*
X01806530Y05492620D01*
X01812370Y05499180D01*
X01816270Y05507060D01*
X01819190Y05517560D01*
X01820160Y05529370D01*
X01819190Y05541180D01*
X01816270Y05551680D01*
X01812370Y05559550D01*
X01806530Y05566120D01*
X01798740Y05568740D01*
G01X01621790Y05210000D02*
X01621790Y05288740D01*
X01646130Y05288740D01*
X01653920Y05284800D01*
X01658790Y05279550D01*
X01660730Y05269050D01*
X01658790Y05258560D01*
X01652940Y05252000D01*
X01646130Y05248060D01*
X01621790Y05248060D01*
G01X01646130Y05248060D02*
X01660730Y05210000D01*
G01X01720000Y05210000D02*
X01720000Y05288740D01*
X01708320Y05272990D01*
G01X01708320Y05210000D02*
X01731680Y05210000D01*
G01X01798740Y05210000D02*
X01798740Y05288740D01*
X01787060Y05272990D01*
G01X01787060Y05210000D02*
X01810420Y05210000D01*
G01X01621790Y05350000D02*
X01621790Y05428740D01*
X01646130Y05428740D01*
X01653920Y05424800D01*
X01658790Y05419550D01*
X01660730Y05409050D01*
X01658790Y05398560D01*
X01652940Y05392000D01*
X01646130Y05388060D01*
X01621790Y05388060D01*
G01X01646130Y05388060D02*
X01660730Y05350000D01*
G01X01720000Y05350000D02*
X01720000Y05428740D01*
X01708320Y05412990D01*
G01X01708320Y05350000D02*
X01731680Y05350000D01*
G01X01780240Y05415620D02*
X01786080Y05423490D01*
X01792900Y05427430D01*
X01800690Y05428740D01*
X01810420Y05426120D01*
X01817240Y05419550D01*
X01819190Y05411680D01*
X01818210Y05403800D01*
X01814320Y05397240D01*
X01794850Y05384120D01*
X01786080Y05374930D01*
X01780240Y05361810D01*
X01778290Y05350000D01*
X01819190Y05350000D01*
G01X02221160Y05880000D02*
X02221160Y05958740D01*
X02245500Y05958740D01*
X02253290Y05954800D01*
X02258160Y05949550D01*
X02260100Y05939050D01*
X02258160Y05928560D01*
X02252310Y05922000D01*
X02245500Y05918060D01*
X02221160Y05918060D01*
G01X02245500Y05918060D02*
X02260100Y05880000D01*
G01X02319370Y05880000D02*
X02326190Y05881310D01*
X02333970Y05885250D01*
X02338840Y05891810D01*
X02340790Y05901000D01*
X02338840Y05910180D01*
X02333000Y05918060D01*
X02324240Y05922000D01*
X02314500Y05922000D01*
X02308660Y05924620D01*
X02303790Y05931180D01*
X02301840Y05940370D01*
X02304770Y05949550D01*
X02311580Y05956120D01*
X02319370Y05958740D01*
X02327160Y05956120D01*
X02333970Y05949550D01*
X02336900Y05940370D01*
X02334950Y05931180D01*
X02330080Y05924620D01*
X02324240Y05922000D01*
X02314500Y05922000D01*
X02305740Y05918060D01*
X02299900Y05910180D01*
X02297950Y05901000D01*
X02299900Y05891810D01*
X02304770Y05885250D01*
X02312550Y05881310D01*
X02319370Y05880000D01*
G01X01911160Y05880000D02*
X01911160Y05958740D01*
X01935500Y05958740D01*
X01943290Y05954800D01*
X01948160Y05949550D01*
X01950100Y05939050D01*
X01948160Y05928560D01*
X01942310Y05922000D01*
X01935500Y05918060D01*
X01911160Y05918060D01*
G01X01935500Y05918060D02*
X01950100Y05880000D01*
G01X01992820Y05889180D02*
X01999630Y05882620D01*
X02007420Y05880000D01*
X02015210Y05882620D01*
X02022030Y05890500D01*
X02026900Y05902310D01*
X02028840Y05914120D01*
X02028840Y05928560D01*
X02026900Y05940370D01*
X02022030Y05950870D01*
X02016190Y05956120D01*
X02009370Y05958740D01*
X02001580Y05956120D01*
X01995740Y05950870D01*
X01991840Y05942990D01*
X01989900Y05932490D01*
X01991840Y05923310D01*
X01996710Y05914120D01*
X02002550Y05908870D01*
X02009370Y05907560D01*
X02017160Y05910180D01*
X02023000Y05916740D01*
X02028840Y05928560D01*
G01X02109180Y07022450D02*
X02113120Y07028290D01*
X02115740Y07035110D01*
X02115740Y07042900D01*
X02111800Y07051660D01*
X02105240Y07058470D01*
X02097370Y07063340D01*
X02084240Y07067240D01*
X02072430Y07068210D01*
X02060620Y07066260D01*
X02052750Y07063340D01*
X02044870Y07057500D01*
X02039620Y07050690D01*
X02037000Y07043870D01*
X02037000Y07037050D01*
X02039620Y07030240D01*
X02043560Y07024400D01*
X02048810Y07019530D01*
G01X02037000Y06965130D02*
X02115740Y06965130D01*
X02099990Y06976810D01*
G01X02037000Y06976810D02*
X02037000Y06953450D01*
G01X02109180Y06514450D02*
X02113120Y06520290D01*
X02115740Y06527110D01*
X02115740Y06534900D01*
X02111800Y06543660D01*
X02105240Y06550470D01*
X02097370Y06555340D01*
X02084240Y06559240D01*
X02072430Y06560210D01*
X02060620Y06558260D01*
X02052750Y06555340D01*
X02044870Y06549500D01*
X02039620Y06542690D01*
X02037000Y06535870D01*
X02037000Y06529050D01*
X02039620Y06522240D01*
X02043560Y06516400D01*
X02048810Y06511530D01*
G01X02052750Y06478550D02*
X02043560Y06472710D01*
X02038310Y06464920D01*
X02037000Y06456160D01*
X02038310Y06448370D01*
X02044870Y06440580D01*
X02052750Y06435710D01*
X02060620Y06434740D01*
X02069810Y06436680D01*
X02076370Y06443500D01*
X02079000Y06450310D01*
X02079000Y06459080D01*
G01X02079000Y06450310D02*
X02082930Y06444470D01*
X02089490Y06439600D01*
X02097370Y06437660D01*
X02105240Y06439600D01*
X02111800Y06444470D01*
X02115740Y06453240D01*
X02114430Y06462000D01*
X02109180Y06470760D01*
G01X01720710Y06557240D02*
X01720710Y06500810D01*
X01724600Y06489000D01*
X01732390Y06481120D01*
X01742130Y06478500D01*
X01751870Y06481120D01*
X01759660Y06489000D01*
X01763550Y06500810D01*
X01763550Y06557240D01*
G01X01802370Y06544120D02*
X01808210Y06551990D01*
X01815030Y06555930D01*
X01822820Y06557240D01*
X01832550Y06554620D01*
X01839370Y06548050D01*
X01841320Y06540180D01*
X01840340Y06532300D01*
X01836450Y06525740D01*
X01816980Y06512620D01*
X01808210Y06503430D01*
X01802370Y06490310D01*
X01800420Y06478500D01*
X01841320Y06478500D01*
G01X01720710Y07065240D02*
X01720710Y07008810D01*
X01724600Y06997000D01*
X01732390Y06989120D01*
X01742130Y06986500D01*
X01751870Y06989120D01*
X01759660Y06997000D01*
X01763550Y07008810D01*
X01763550Y07065240D01*
G01X01820870Y06986500D02*
X01820870Y07065240D01*
X01809190Y07049490D01*
G01X01809190Y06986500D02*
X01832550Y06986500D01*
G01X02346550Y00974500D02*
X02350440Y00978430D01*
X02353360Y00984990D01*
X02355310Y00994180D01*
X02353360Y01002050D01*
X02349470Y01007300D01*
X02342650Y01011240D01*
X02316370Y01011240D01*
X02316370Y00932500D01*
X02348500Y00932500D01*
X02355310Y00937750D01*
X02359210Y00945620D01*
X02361150Y00954810D01*
X02359210Y00963990D01*
X02353360Y00971870D01*
X02346550Y00974500D01*
X02316370Y00974500D01*
G01X02417500Y01011240D02*
X02417500Y00932500D01*
G01X02395110Y01011240D02*
X02439890Y01011240D01*
G01X02496240Y00932500D02*
X02496240Y01011240D01*
X02484560Y00995490D01*
G01X02484560Y00932500D02*
X02507920Y00932500D01*
G01X02702180Y02347320D02*
X02706120Y02353160D01*
X02708740Y02359980D01*
X02708740Y02367770D01*
X02704800Y02376530D01*
X02698240Y02383340D01*
X02690370Y02388210D01*
X02677240Y02392110D01*
X02665430Y02393080D01*
X02653620Y02391130D01*
X02645750Y02388210D01*
X02637870Y02382370D01*
X02632620Y02375560D01*
X02630000Y02368740D01*
X02630000Y02361920D01*
X02632620Y02355110D01*
X02636560Y02349270D01*
X02641810Y02344400D01*
G01X02630000Y02278320D02*
X02708740Y02278320D01*
X02652310Y02314340D01*
X02652310Y02265660D01*
G01X02641810Y02232680D02*
X02635250Y02226840D01*
X02631310Y02220020D01*
X02630000Y02211260D01*
X02632620Y02202500D01*
X02637870Y02195680D01*
X02647060Y02190810D01*
X02657560Y02189840D01*
X02668060Y02191790D01*
X02674620Y02196660D01*
X02679870Y02203470D01*
X02681180Y02210290D01*
X02679870Y02217100D01*
X02674620Y02225860D01*
X02708740Y02222940D01*
X02708740Y02196660D01*
G01X02760000Y04988210D02*
X02838740Y04988210D01*
X02838740Y04963870D01*
X02834800Y04956080D01*
X02829550Y04951210D01*
X02819050Y04949270D01*
X02808560Y04951210D01*
X02802000Y04957060D01*
X02798060Y04963870D01*
X02798060Y04988210D01*
G01X02798060Y04963870D02*
X02760000Y04949270D01*
G01X02760000Y04890000D02*
X02838740Y04890000D01*
X02822990Y04901680D01*
G01X02760000Y04901680D02*
X02760000Y04878320D01*
G01X02775750Y04832680D02*
X02766560Y04826840D01*
X02761310Y04819050D01*
X02760000Y04810290D01*
X02761310Y04802500D01*
X02767870Y04794710D01*
X02775750Y04789840D01*
X02783620Y04788870D01*
X02792810Y04790810D01*
X02799370Y04797630D01*
X02802000Y04804440D01*
X02802000Y04813210D01*
G01X02802000Y04804440D02*
X02805930Y04798600D01*
X02812490Y04793730D01*
X02820370Y04791790D01*
X02828240Y04793730D01*
X02834800Y04798600D01*
X02838740Y04807370D01*
X02837430Y04816130D01*
X02832180Y04824890D01*
G01X02842180Y05577320D02*
X02846120Y05583160D01*
X02848740Y05589980D01*
X02848740Y05597770D01*
X02844800Y05606530D01*
X02838240Y05613340D01*
X02830370Y05618210D01*
X02817240Y05622110D01*
X02805430Y05623080D01*
X02793620Y05621130D01*
X02785750Y05618210D01*
X02777870Y05612370D01*
X02772620Y05605560D01*
X02770000Y05598740D01*
X02770000Y05591920D01*
X02772620Y05585110D01*
X02776560Y05579270D01*
X02781810Y05574400D01*
G01X02835620Y05538500D02*
X02843490Y05532660D01*
X02847430Y05525840D01*
X02848740Y05518050D01*
X02846120Y05508320D01*
X02839550Y05501500D01*
X02831680Y05499550D01*
X02823800Y05500530D01*
X02817240Y05504420D01*
X02804120Y05523890D01*
X02794930Y05532660D01*
X02781810Y05538500D01*
X02770000Y05540450D01*
X02770000Y05499550D01*
G01X02785750Y05462680D02*
X02776560Y05456840D01*
X02771310Y05449050D01*
X02770000Y05440290D01*
X02771310Y05432500D01*
X02777870Y05424710D01*
X02785750Y05419840D01*
X02793620Y05418870D01*
X02802810Y05420810D01*
X02809370Y05427630D01*
X02812000Y05434440D01*
X02812000Y05443210D01*
G01X02812000Y05434440D02*
X02815930Y05428600D01*
X02822490Y05423730D01*
X02830370Y05421790D01*
X02838240Y05423730D01*
X02844800Y05428600D01*
X02848740Y05437370D01*
X02847430Y05446130D01*
X02842180Y05454890D01*
G01X02232210Y05300740D02*
X02232210Y05244310D01*
X02236100Y05232500D01*
X02243890Y05224620D01*
X02253630Y05222000D01*
X02263370Y05224620D01*
X02271160Y05232500D01*
X02275050Y05244310D01*
X02275050Y05300740D01*
G01X02310950Y05233810D02*
X02316790Y05227250D01*
X02323610Y05223310D01*
X02332370Y05222000D01*
X02341130Y05224620D01*
X02347950Y05229870D01*
X02352820Y05239060D01*
X02353790Y05249560D01*
X02351840Y05260060D01*
X02346970Y05266620D01*
X02340160Y05271870D01*
X02333340Y05273180D01*
X02326530Y05271870D01*
X02317770Y05266620D01*
X02320690Y05300740D01*
X02346970Y05300740D01*
G01X03045000Y01795000D02*
X03795000Y01795000D01*
X03795000Y02825000D01*
X03045000Y02825000D01*
X03045000Y01795000D01*
G01X03319840Y02358740D02*
X03319840Y02302310D01*
X03323730Y02290500D01*
X03331520Y02282620D01*
X03341260Y02280000D01*
X03351000Y02282620D01*
X03358790Y02290500D01*
X03362680Y02302310D01*
X03362680Y02358740D01*
G01X03420000Y02280000D02*
X03420000Y02358740D01*
X03408320Y02342990D01*
G01X03408320Y02280000D02*
X03431680Y02280000D01*
G01X03480240Y02345620D02*
X03486080Y02353490D01*
X03492900Y02357430D01*
X03500690Y02358740D01*
X03510420Y02356120D01*
X03517240Y02349550D01*
X03519190Y02341680D01*
X03518210Y02333800D01*
X03514320Y02327240D01*
X03494850Y02314120D01*
X03486080Y02304930D01*
X03480240Y02291810D01*
X03478290Y02280000D01*
X03519190Y02280000D01*
G01X02920000Y03118840D02*
X02998740Y03118840D01*
X02998740Y03094500D01*
X02994800Y03086710D01*
X02989550Y03081840D01*
X02979050Y03079900D01*
X02968560Y03081840D01*
X02962000Y03087690D01*
X02958060Y03094500D01*
X02958060Y03118840D01*
G01X02958060Y03094500D02*
X02920000Y03079900D01*
G01X02920000Y03008950D02*
X02998740Y03008950D01*
X02942310Y03044970D01*
X02942310Y02996290D01*
G01X03055000Y05020790D02*
X03133740Y05020790D01*
X03133740Y05001320D01*
X03129800Y04993530D01*
X03124550Y04987690D01*
X03116680Y04982820D01*
X03107490Y04978920D01*
X03094370Y04977950D01*
X03081250Y04978920D01*
X03072060Y04982820D01*
X03064180Y04987690D01*
X03058940Y04993530D01*
X03055000Y05001320D01*
X03055000Y05020790D01*
G01X03070750Y04942050D02*
X03061560Y04936210D01*
X03056310Y04928420D01*
X03055000Y04919660D01*
X03056310Y04911870D01*
X03062870Y04904080D01*
X03070750Y04899210D01*
X03078620Y04898240D01*
X03087810Y04900180D01*
X03094370Y04907000D01*
X03097000Y04913810D01*
X03097000Y04922580D01*
G01X03097000Y04913810D02*
X03100930Y04907970D01*
X03107490Y04903100D01*
X03115370Y04901160D01*
X03123240Y04903100D01*
X03129800Y04907970D01*
X03133740Y04916740D01*
X03132430Y04925500D01*
X03127180Y04934260D01*
G01X03302680Y05292180D02*
X03296840Y05296120D01*
X03290020Y05298740D01*
X03282230Y05298740D01*
X03273470Y05294800D01*
X03266660Y05288240D01*
X03261790Y05280370D01*
X03257890Y05267240D01*
X03256920Y05255430D01*
X03258870Y05243620D01*
X03261790Y05235750D01*
X03267630Y05227870D01*
X03274440Y05222620D01*
X03281260Y05220000D01*
X03288080Y05220000D01*
X03294890Y05222620D01*
X03300730Y05226560D01*
X03305600Y05231810D01*
G01X03341500Y05285620D02*
X03347340Y05293490D01*
X03354160Y05297430D01*
X03361950Y05298740D01*
X03371680Y05296120D01*
X03378500Y05289550D01*
X03380450Y05281680D01*
X03379470Y05273800D01*
X03375580Y05267240D01*
X03356110Y05254120D01*
X03347340Y05244930D01*
X03341500Y05231810D01*
X03339550Y05220000D01*
X03380450Y05220000D01*
G01X03417320Y05231810D02*
X03423160Y05225250D01*
X03429980Y05221310D01*
X03438740Y05220000D01*
X03447500Y05222620D01*
X03454320Y05227870D01*
X03459190Y05237060D01*
X03460160Y05247560D01*
X03458210Y05258060D01*
X03453340Y05264620D01*
X03446530Y05269870D01*
X03439710Y05271180D01*
X03432900Y05269870D01*
X03424140Y05264620D01*
X03427060Y05298740D01*
X03453340Y05298740D01*
G01X03261790Y05350000D02*
X03261790Y05428740D01*
X03286130Y05428740D01*
X03293920Y05424800D01*
X03298790Y05419550D01*
X03300730Y05409050D01*
X03298790Y05398560D01*
X03292940Y05392000D01*
X03286130Y05388060D01*
X03261790Y05388060D01*
G01X03286130Y05388060D02*
X03300730Y05350000D01*
G01X03360000Y05350000D02*
X03360000Y05428740D01*
X03348320Y05412990D01*
G01X03348320Y05350000D02*
X03371680Y05350000D01*
G01X03450420Y05350000D02*
X03450420Y05428740D01*
X03414400Y05372310D01*
X03463080Y05372310D01*
G01X03047500Y06130000D02*
X03147500Y06030000D01*
X03707500Y06030000D01*
X03707500Y06690000D01*
X03147500Y06690000D01*
X03047500Y06590000D01*
X03047500Y06130000D01*
G01X03047500Y06892000D02*
X03147500Y06792000D01*
X03707500Y06792000D01*
X03707500Y07452000D01*
X03147500Y07452000D01*
X03047500Y07352000D01*
X03047500Y06892000D01*
G01X03359550Y06402180D02*
X03353710Y06406120D01*
X03346890Y06408740D01*
X03339100Y06408740D01*
X03330340Y06404800D01*
X03323530Y06398240D01*
X03318660Y06390370D01*
X03314760Y06377240D01*
X03313790Y06365430D01*
X03315740Y06353620D01*
X03318660Y06345750D01*
X03324500Y06337870D01*
X03331310Y06332620D01*
X03338130Y06330000D01*
X03344950Y06330000D01*
X03351760Y06332620D01*
X03357600Y06336560D01*
X03362470Y06341810D01*
G01X03400320Y06339180D02*
X03407130Y06332620D01*
X03414920Y06330000D01*
X03422710Y06332620D01*
X03429530Y06340500D01*
X03434400Y06352310D01*
X03436340Y06364120D01*
X03436340Y06378560D01*
X03434400Y06390370D01*
X03429530Y06400870D01*
X03423690Y06406120D01*
X03416870Y06408740D01*
X03409080Y06406120D01*
X03403240Y06400870D01*
X03399340Y06392990D01*
X03397400Y06382490D01*
X03399340Y06373310D01*
X03404210Y06364120D01*
X03410050Y06358870D01*
X03416870Y06357560D01*
X03424660Y06360180D01*
X03430500Y06366740D01*
X03436340Y06378560D01*
G01X02977500Y06500000D02*
X03037500Y06500000D01*
G01X03007500Y06530000D02*
X03007500Y06470000D01*
G01X03047500Y07656000D02*
X03147500Y07556000D01*
X03707500Y07556000D01*
X03707500Y08216000D01*
X03147500Y08216000D01*
X03047500Y08116000D01*
X03047500Y07656000D01*
G01X03359550Y07164180D02*
X03353710Y07168120D01*
X03346890Y07170740D01*
X03339100Y07170740D01*
X03330340Y07166800D01*
X03323530Y07160240D01*
X03318660Y07152370D01*
X03314760Y07139240D01*
X03313790Y07127430D01*
X03315740Y07115620D01*
X03318660Y07107750D01*
X03324500Y07099870D01*
X03331310Y07094620D01*
X03338130Y07092000D01*
X03344950Y07092000D01*
X03351760Y07094620D01*
X03357600Y07098560D01*
X03362470Y07103810D01*
G01X03414920Y07092000D02*
X03416870Y07109060D01*
X03419790Y07123490D01*
X03423690Y07136620D01*
X03428550Y07151050D01*
X03436340Y07170740D01*
X03397400Y07170740D01*
G01X02977500Y07262000D02*
X03037500Y07262000D01*
G01X03007500Y07292000D02*
X03007500Y07232000D01*
G01X03359550Y07916180D02*
X03353710Y07920120D01*
X03346890Y07922740D01*
X03339100Y07922740D01*
X03330340Y07918800D01*
X03323530Y07912240D01*
X03318660Y07904370D01*
X03314760Y07891240D01*
X03313790Y07879430D01*
X03315740Y07867620D01*
X03318660Y07859750D01*
X03324500Y07851870D01*
X03331310Y07846620D01*
X03338130Y07844000D01*
X03344950Y07844000D01*
X03351760Y07846620D01*
X03357600Y07850560D01*
X03362470Y07855810D01*
G01X03395450Y07855810D02*
X03401290Y07849250D01*
X03408110Y07845310D01*
X03416870Y07844000D01*
X03425630Y07846620D01*
X03432450Y07851870D01*
X03437320Y07861060D01*
X03438290Y07871560D01*
X03436340Y07882060D01*
X03431470Y07888620D01*
X03424660Y07893870D01*
X03417840Y07895180D01*
X03411030Y07893870D01*
X03402270Y07888620D01*
X03405190Y07922740D01*
X03431470Y07922740D01*
G01X02977500Y08026000D02*
X03037500Y08026000D01*
G01X03007500Y08056000D02*
X03007500Y07996000D01*
G01X03860000Y03118840D02*
X03938740Y03118840D01*
X03938740Y03094500D01*
X03934800Y03086710D01*
X03929550Y03081840D01*
X03919050Y03079900D01*
X03908560Y03081840D01*
X03902000Y03087690D01*
X03898060Y03094500D01*
X03898060Y03118840D01*
G01X03898060Y03094500D02*
X03860000Y03079900D01*
G01X03871810Y03042050D02*
X03865250Y03036210D01*
X03861310Y03029390D01*
X03860000Y03020630D01*
X03862620Y03011870D01*
X03867870Y03005050D01*
X03877060Y03000180D01*
X03887560Y02999210D01*
X03898060Y03001160D01*
X03904620Y03006030D01*
X03909870Y03012840D01*
X03911180Y03019660D01*
X03909870Y03026470D01*
X03904620Y03035230D01*
X03938740Y03032310D01*
X03938740Y03006030D01*
G01X03861790Y04315750D02*
X03866660Y04307870D01*
X03872500Y04302620D01*
X03879310Y04300000D01*
X03887100Y04302620D01*
X03892940Y04307870D01*
X03898790Y04315750D01*
X03900730Y04326250D01*
X03900730Y04378740D01*
G01X03938580Y04315750D02*
X03944420Y04306560D01*
X03952210Y04301310D01*
X03960970Y04300000D01*
X03968760Y04301310D01*
X03976550Y04307870D01*
X03981420Y04315750D01*
X03982390Y04323620D01*
X03980450Y04332810D01*
X03973630Y04339370D01*
X03966820Y04342000D01*
X03958050Y04342000D01*
G01X03966820Y04342000D02*
X03972660Y04345930D01*
X03977530Y04352490D01*
X03979470Y04360370D01*
X03977530Y04368240D01*
X03972660Y04374800D01*
X03963890Y04378740D01*
X03955130Y04377430D01*
X03946370Y04372180D01*
G01X04020240Y04332810D02*
X04027060Y04342000D01*
X04032900Y04347240D01*
X04040690Y04349870D01*
X04047500Y04347240D01*
X04052370Y04342000D01*
X04056270Y04334120D01*
X04057240Y04324930D01*
X04056270Y04317060D01*
X04052370Y04309180D01*
X04046530Y04302620D01*
X04039710Y04300000D01*
X04031920Y04302620D01*
X04025110Y04310500D01*
X04021210Y04322310D01*
X04020240Y04335430D01*
X04022190Y04352490D01*
X04025110Y04361680D01*
X04029980Y04370870D01*
X04036790Y04377430D01*
X04043610Y04378740D01*
X04050420Y04376120D01*
X04055290Y04369550D01*
G01X03652500Y04511500D02*
X03652500Y04168500D01*
X04287500Y04168500D01*
X04287500Y04511500D01*
X03652500Y04511500D01*
G01X04092680Y04822180D02*
X04086840Y04826120D01*
X04080020Y04828740D01*
X04072230Y04828740D01*
X04063470Y04824800D01*
X04056660Y04818240D01*
X04051790Y04810370D01*
X04047890Y04797240D01*
X04046920Y04785430D01*
X04048870Y04773620D01*
X04051790Y04765750D01*
X04057630Y04757870D01*
X04064440Y04752620D01*
X04071260Y04750000D01*
X04078080Y04750000D01*
X04084890Y04752620D01*
X04090730Y04756560D01*
X04095600Y04761810D01*
G01X04150000Y04750000D02*
X04150000Y04828740D01*
X04138320Y04812990D01*
G01X04138320Y04750000D02*
X04161680Y04750000D01*
G01X04240420Y04750000D02*
X04240420Y04828740D01*
X04204400Y04772310D01*
X04253080Y04772310D01*
G01X04642680Y01022180D02*
X04636840Y01026120D01*
X04630020Y01028740D01*
X04622230Y01028740D01*
X04613470Y01024800D01*
X04606660Y01018240D01*
X04601790Y01010370D01*
X04597890Y00997240D01*
X04596920Y00985430D01*
X04598870Y00973620D01*
X04601790Y00965750D01*
X04607630Y00957870D01*
X04614440Y00952620D01*
X04621260Y00950000D01*
X04628080Y00950000D01*
X04634890Y00952620D01*
X04640730Y00956560D01*
X04645600Y00961810D01*
G01X04678580Y00961810D02*
X04684420Y00955250D01*
X04691240Y00951310D01*
X04700000Y00950000D01*
X04708760Y00952620D01*
X04715580Y00957870D01*
X04720450Y00967060D01*
X04721420Y00977560D01*
X04719470Y00988060D01*
X04714600Y00994620D01*
X04707790Y00999870D01*
X04700970Y01001180D01*
X04694160Y00999870D01*
X04685400Y00994620D01*
X04688320Y01028740D01*
X04714600Y01028740D01*
G01X04778740Y01028740D02*
X04770950Y01026120D01*
X04765110Y01019550D01*
X04761210Y01011680D01*
X04758290Y01001180D01*
X04757320Y00989370D01*
X04758290Y00977560D01*
X04761210Y00967060D01*
X04765110Y00959180D01*
X04770950Y00952620D01*
X04778740Y00950000D01*
X04786530Y00952620D01*
X04792370Y00959180D01*
X04796270Y00967060D01*
X04799190Y00977560D01*
X04800160Y00989370D01*
X04799190Y01001180D01*
X04796270Y01011680D01*
X04792370Y01019550D01*
X04786530Y01026120D01*
X04778740Y01028740D01*
G01X04649210Y00770000D02*
X04649210Y00848740D01*
X04668680Y00848740D01*
X04676470Y00844800D01*
X04682310Y00839550D01*
X04687180Y00831680D01*
X04691080Y00822490D01*
X04692050Y00809370D01*
X04691080Y00796250D01*
X04687180Y00787060D01*
X04682310Y00779180D01*
X04676470Y00773940D01*
X04668680Y00770000D01*
X04649210Y00770000D01*
G01X04761050Y00770000D02*
X04761050Y00848740D01*
X04725030Y00792310D01*
X04773710Y00792310D01*
G01X04795000Y00865000D02*
X04625000Y00865000D01*
X04625000Y00735000D01*
X04795000Y00735000D01*
X04795000Y00865000D01*
G01X04642680Y01712180D02*
X04636840Y01716120D01*
X04630020Y01718740D01*
X04622230Y01718740D01*
X04613470Y01714800D01*
X04606660Y01708240D01*
X04601790Y01700370D01*
X04597890Y01687240D01*
X04596920Y01675430D01*
X04598870Y01663620D01*
X04601790Y01655750D01*
X04607630Y01647870D01*
X04614440Y01642620D01*
X04621260Y01640000D01*
X04628080Y01640000D01*
X04634890Y01642620D01*
X04640730Y01646560D01*
X04645600Y01651810D01*
G01X04678580Y01651810D02*
X04684420Y01645250D01*
X04691240Y01641310D01*
X04700000Y01640000D01*
X04708760Y01642620D01*
X04715580Y01647870D01*
X04720450Y01657060D01*
X04721420Y01667560D01*
X04719470Y01678060D01*
X04714600Y01684620D01*
X04707790Y01689870D01*
X04700970Y01691180D01*
X04694160Y01689870D01*
X04685400Y01684620D01*
X04688320Y01718740D01*
X04714600Y01718740D01*
G01X04778740Y01640000D02*
X04778740Y01718740D01*
X04767060Y01702990D01*
G01X04767060Y01640000D02*
X04790420Y01640000D01*
G01X04641160Y01373740D02*
X04641160Y01295000D01*
X04680100Y01295000D01*
G01X04751050Y01295000D02*
X04751050Y01373740D01*
X04715030Y01317310D01*
X04763710Y01317310D01*
G01X04600000Y01968210D02*
X04678740Y01968210D01*
X04678740Y01943870D01*
X04674800Y01936080D01*
X04669550Y01931210D01*
X04659050Y01929270D01*
X04648560Y01931210D01*
X04642000Y01937060D01*
X04638060Y01943870D01*
X04638060Y01968210D01*
G01X04638060Y01943870D02*
X04600000Y01929270D01*
G01X04665620Y01888500D02*
X04673490Y01882660D01*
X04677430Y01875840D01*
X04678740Y01868050D01*
X04676120Y01858320D01*
X04669550Y01851500D01*
X04661680Y01849550D01*
X04653800Y01850530D01*
X04647240Y01854420D01*
X04634120Y01873890D01*
X04624930Y01882660D01*
X04611810Y01888500D01*
X04600000Y01890450D01*
X04600000Y01849550D01*
G01X04600000Y01791260D02*
X04601310Y01784440D01*
X04605250Y01776660D01*
X04611810Y01771790D01*
X04621000Y01769840D01*
X04630180Y01771790D01*
X04638060Y01777630D01*
X04642000Y01786390D01*
X04642000Y01796130D01*
X04644620Y01801970D01*
X04651180Y01806840D01*
X04660370Y01808790D01*
X04669550Y01805860D01*
X04676120Y01799050D01*
X04678740Y01791260D01*
X04676120Y01783470D01*
X04669550Y01776660D01*
X04660370Y01773730D01*
X04651180Y01775680D01*
X04644620Y01780550D01*
X04642000Y01786390D01*
X04642000Y01796130D01*
X04638060Y01804890D01*
X04630180Y01810730D01*
X04621000Y01812680D01*
X04611810Y01810730D01*
X04605250Y01805860D01*
X04601310Y01798080D01*
X04600000Y01791260D01*
G01X04740000Y01968210D02*
X04818740Y01968210D01*
X04818740Y01943870D01*
X04814800Y01936080D01*
X04809550Y01931210D01*
X04799050Y01929270D01*
X04788560Y01931210D01*
X04782000Y01937060D01*
X04778060Y01943870D01*
X04778060Y01968210D01*
G01X04778060Y01943870D02*
X04740000Y01929270D01*
G01X04805620Y01888500D02*
X04813490Y01882660D01*
X04817430Y01875840D01*
X04818740Y01868050D01*
X04816120Y01858320D01*
X04809550Y01851500D01*
X04801680Y01849550D01*
X04793800Y01850530D01*
X04787240Y01854420D01*
X04774120Y01873890D01*
X04764930Y01882660D01*
X04751810Y01888500D01*
X04740000Y01890450D01*
X04740000Y01849550D01*
G01X04749180Y01807810D02*
X04742620Y01801000D01*
X04740000Y01793210D01*
X04742620Y01785420D01*
X04750500Y01778600D01*
X04762310Y01773730D01*
X04774120Y01771790D01*
X04788560Y01771790D01*
X04800370Y01773730D01*
X04810870Y01778600D01*
X04816120Y01784440D01*
X04818740Y01791260D01*
X04816120Y01799050D01*
X04810870Y01804890D01*
X04802990Y01808790D01*
X04792490Y01810730D01*
X04783310Y01808790D01*
X04774120Y01803920D01*
X04768870Y01798080D01*
X04767560Y01791260D01*
X04770180Y01783470D01*
X04776740Y01777630D01*
X04788560Y01771790D01*
G01X04652680Y02432180D02*
X04646840Y02436120D01*
X04640020Y02438740D01*
X04632230Y02438740D01*
X04623470Y02434800D01*
X04616660Y02428240D01*
X04611790Y02420370D01*
X04607890Y02407240D01*
X04606920Y02395430D01*
X04608870Y02383620D01*
X04611790Y02375750D01*
X04617630Y02367870D01*
X04624440Y02362620D01*
X04631260Y02360000D01*
X04638080Y02360000D01*
X04644890Y02362620D01*
X04650730Y02366560D01*
X04655600Y02371810D01*
G01X04721680Y02360000D02*
X04721680Y02438740D01*
X04685660Y02382310D01*
X04734340Y02382310D01*
G01X04770240Y02392810D02*
X04777060Y02402000D01*
X04782900Y02407240D01*
X04790690Y02409870D01*
X04797500Y02407240D01*
X04802370Y02402000D01*
X04806270Y02394120D01*
X04807240Y02384930D01*
X04806270Y02377060D01*
X04802370Y02369180D01*
X04796530Y02362620D01*
X04789710Y02360000D01*
X04781920Y02362620D01*
X04775110Y02370500D01*
X04771210Y02382310D01*
X04770240Y02395430D01*
X04772190Y02412490D01*
X04775110Y02421680D01*
X04779980Y02430870D01*
X04786790Y02437430D01*
X04793610Y02438740D01*
X04800420Y02436120D01*
X04805290Y02429550D01*
G01X04671160Y02168740D02*
X04671160Y02090000D01*
X04710100Y02090000D01*
G01X04747950Y02101810D02*
X04753790Y02095250D01*
X04760610Y02091310D01*
X04769370Y02090000D01*
X04778130Y02092620D01*
X04784950Y02097870D01*
X04789820Y02107060D01*
X04790790Y02117560D01*
X04788840Y02128060D01*
X04783970Y02134620D01*
X04777160Y02139870D01*
X04770340Y02141180D01*
X04763530Y02139870D01*
X04754770Y02134620D01*
X04757690Y02168740D01*
X04783970Y02168740D01*
G01X04652680Y02572180D02*
X04646840Y02576120D01*
X04640020Y02578740D01*
X04632230Y02578740D01*
X04623470Y02574800D01*
X04616660Y02568240D01*
X04611790Y02560370D01*
X04607890Y02547240D01*
X04606920Y02535430D01*
X04608870Y02523620D01*
X04611790Y02515750D01*
X04617630Y02507870D01*
X04624440Y02502620D01*
X04631260Y02500000D01*
X04638080Y02500000D01*
X04644890Y02502620D01*
X04650730Y02506560D01*
X04655600Y02511810D01*
G01X04721680Y02500000D02*
X04721680Y02578740D01*
X04685660Y02522310D01*
X04734340Y02522310D01*
G01X04786790Y02500000D02*
X04788740Y02517060D01*
X04791660Y02531490D01*
X04795560Y02544620D01*
X04800420Y02559050D01*
X04808210Y02578740D01*
X04769270Y02578740D01*
G01X04722680Y05982180D02*
X04716840Y05986120D01*
X04710020Y05988740D01*
X04702230Y05988740D01*
X04693470Y05984800D01*
X04686660Y05978240D01*
X04681790Y05970370D01*
X04677890Y05957240D01*
X04676920Y05945430D01*
X04678870Y05933620D01*
X04681790Y05925750D01*
X04687630Y05917870D01*
X04694440Y05912620D01*
X04701260Y05910000D01*
X04708080Y05910000D01*
X04714890Y05912620D01*
X04720730Y05916560D01*
X04725600Y05921810D01*
G01X04780000Y05910000D02*
X04780000Y05988740D01*
X04768320Y05972990D01*
G01X04768320Y05910000D02*
X04791680Y05910000D01*
G01X04856790Y05910000D02*
X04858740Y05927060D01*
X04861660Y05941490D01*
X04865560Y05954620D01*
X04870420Y05969050D01*
X04878210Y05988740D01*
X04839270Y05988740D01*
G01X04334660Y06528740D02*
X04334660Y06450000D01*
X04373600Y06450000D01*
G01X04411450Y06465750D02*
X04417290Y06456560D01*
X04425080Y06451310D01*
X04433840Y06450000D01*
X04441630Y06451310D01*
X04449420Y06457870D01*
X04454290Y06465750D01*
X04455260Y06473620D01*
X04453320Y06482810D01*
X04446500Y06489370D01*
X04439690Y06492000D01*
X04430920Y06492000D01*
G01X04439690Y06492000D02*
X04445530Y06495930D01*
X04450400Y06502490D01*
X04452340Y06510370D01*
X04450400Y06518240D01*
X04445530Y06524800D01*
X04436760Y06528740D01*
X04428000Y06527430D01*
X04419240Y06522180D01*
G01X04334660Y07262490D02*
X04334660Y07183750D01*
X04373600Y07183750D01*
G01X04414370Y07249370D02*
X04420210Y07257240D01*
X04427030Y07261180D01*
X04434820Y07262490D01*
X04444550Y07259870D01*
X04451370Y07253300D01*
X04453320Y07245430D01*
X04452340Y07237550D01*
X04448450Y07230990D01*
X04428980Y07217870D01*
X04420210Y07208680D01*
X04414370Y07195560D01*
X04412420Y07183750D01*
X04453320Y07183750D01*
G01X04334660Y07996240D02*
X04334660Y07917500D01*
X04373600Y07917500D01*
G01X04432870Y07917500D02*
X04432870Y07996240D01*
X04421190Y07980490D01*
G01X04421190Y07917500D02*
X04444550Y07917500D01*
G01X05072180Y01797320D02*
X05076120Y01803160D01*
X05078740Y01809980D01*
X05078740Y01817770D01*
X05074800Y01826530D01*
X05068240Y01833340D01*
X05060370Y01838210D01*
X05047240Y01842110D01*
X05035430Y01843080D01*
X05023620Y01841130D01*
X05015750Y01838210D01*
X05007870Y01832370D01*
X05002620Y01825560D01*
X05000000Y01818740D01*
X05000000Y01811920D01*
X05002620Y01805110D01*
X05006560Y01799270D01*
X05011810Y01794400D01*
G01X05011810Y01761420D02*
X05005250Y01755580D01*
X05001310Y01748760D01*
X05000000Y01740000D01*
X05002620Y01731240D01*
X05007870Y01724420D01*
X05017060Y01719550D01*
X05027560Y01718580D01*
X05038060Y01720530D01*
X05044620Y01725400D01*
X05049870Y01732210D01*
X05051180Y01739030D01*
X05049870Y01745840D01*
X05044620Y01754600D01*
X05078740Y01751680D01*
X05078740Y01725400D01*
G01X05065620Y01679760D02*
X05073490Y01673920D01*
X05077430Y01667100D01*
X05078740Y01659310D01*
X05076120Y01649580D01*
X05069550Y01642760D01*
X05061680Y01640810D01*
X05053800Y01641790D01*
X05047240Y01645680D01*
X05034120Y01665150D01*
X05024930Y01673920D01*
X05011810Y01679760D01*
X05000000Y01681710D01*
X05000000Y01640810D01*
G01X05468740Y01768840D02*
X05390000Y01768840D01*
X05390000Y01729900D01*
G01X05422810Y01689130D02*
X05432000Y01682310D01*
X05437240Y01676470D01*
X05439870Y01668680D01*
X05437240Y01661870D01*
X05432000Y01657000D01*
X05424120Y01653100D01*
X05414930Y01652130D01*
X05407060Y01653100D01*
X05399180Y01657000D01*
X05392620Y01662840D01*
X05390000Y01669660D01*
X05392620Y01677450D01*
X05400500Y01684260D01*
X05412310Y01688160D01*
X05425430Y01689130D01*
X05442490Y01687180D01*
X05451680Y01684260D01*
X05460870Y01679390D01*
X05467430Y01672580D01*
X05468740Y01665760D01*
X05466120Y01658950D01*
X05459550Y01654080D01*
G01X04942180Y02517320D02*
X04946120Y02523160D01*
X04948740Y02529980D01*
X04948740Y02537770D01*
X04944800Y02546530D01*
X04938240Y02553340D01*
X04930370Y02558210D01*
X04917240Y02562110D01*
X04905430Y02563080D01*
X04893620Y02561130D01*
X04885750Y02558210D01*
X04877870Y02552370D01*
X04872620Y02545560D01*
X04870000Y02538740D01*
X04870000Y02531920D01*
X04872620Y02525110D01*
X04876560Y02519270D01*
X04881810Y02514400D01*
G01X04870000Y02448320D02*
X04948740Y02448320D01*
X04892310Y02484340D01*
X04892310Y02435660D01*
G01X04870000Y02381260D02*
X04871310Y02374440D01*
X04875250Y02366660D01*
X04881810Y02361790D01*
X04891000Y02359840D01*
X04900180Y02361790D01*
X04908060Y02367630D01*
X04912000Y02376390D01*
X04912000Y02386130D01*
X04914620Y02391970D01*
X04921180Y02396840D01*
X04930370Y02398790D01*
X04939550Y02395860D01*
X04946120Y02389050D01*
X04948740Y02381260D01*
X04946120Y02373470D01*
X04939550Y02366660D01*
X04930370Y02363730D01*
X04921180Y02365680D01*
X04914620Y02370550D01*
X04912000Y02376390D01*
X04912000Y02386130D01*
X04908060Y02394890D01*
X04900180Y02400730D01*
X04891000Y02402680D01*
X04881810Y02400730D01*
X04875250Y02395860D01*
X04871310Y02388080D01*
X04870000Y02381260D01*
G01X04902680Y01982180D02*
X04896840Y01986120D01*
X04890020Y01988740D01*
X04882230Y01988740D01*
X04873470Y01984800D01*
X04866660Y01978240D01*
X04861790Y01970370D01*
X04857890Y01957240D01*
X04856920Y01945430D01*
X04858870Y01933620D01*
X04861790Y01925750D01*
X04867630Y01917870D01*
X04874440Y01912620D01*
X04881260Y01910000D01*
X04888080Y01910000D01*
X04894890Y01912620D01*
X04900730Y01916560D01*
X04905600Y01921810D01*
G01X04971680Y01910000D02*
X04971680Y01988740D01*
X04935660Y01932310D01*
X04984340Y01932310D01*
G01X05022190Y01919180D02*
X05029000Y01912620D01*
X05036790Y01910000D01*
X05044580Y01912620D01*
X05051400Y01920500D01*
X05056270Y01932310D01*
X05058210Y01944120D01*
X05058210Y01958560D01*
X05056270Y01970370D01*
X05051400Y01980870D01*
X05045560Y01986120D01*
X05038740Y01988740D01*
X05030950Y01986120D01*
X05025110Y01980870D01*
X05021210Y01972990D01*
X05019270Y01962490D01*
X05021210Y01953310D01*
X05026080Y01944120D01*
X05031920Y01938870D01*
X05038740Y01937560D01*
X05046530Y01940180D01*
X05052370Y01946740D01*
X05058210Y01958560D01*
G01X05282680Y01922180D02*
X05276840Y01926120D01*
X05270020Y01928740D01*
X05262230Y01928740D01*
X05253470Y01924800D01*
X05246660Y01918240D01*
X05241790Y01910370D01*
X05237890Y01897240D01*
X05236920Y01885430D01*
X05238870Y01873620D01*
X05241790Y01865750D01*
X05247630Y01857870D01*
X05254440Y01852620D01*
X05261260Y01850000D01*
X05268080Y01850000D01*
X05274890Y01852620D01*
X05280730Y01856560D01*
X05285600Y01861810D01*
G01X05318580Y01861810D02*
X05324420Y01855250D01*
X05331240Y01851310D01*
X05340000Y01850000D01*
X05348760Y01852620D01*
X05355580Y01857870D01*
X05360450Y01867060D01*
X05361420Y01877560D01*
X05359470Y01888060D01*
X05354600Y01894620D01*
X05347790Y01899870D01*
X05340970Y01901180D01*
X05334160Y01899870D01*
X05325400Y01894620D01*
X05328320Y01928740D01*
X05354600Y01928740D01*
G01X05397320Y01861810D02*
X05403160Y01855250D01*
X05409980Y01851310D01*
X05418740Y01850000D01*
X05427500Y01852620D01*
X05434320Y01857870D01*
X05439190Y01867060D01*
X05440160Y01877560D01*
X05438210Y01888060D01*
X05433340Y01894620D01*
X05426530Y01899870D01*
X05419710Y01901180D01*
X05412900Y01899870D01*
X05404140Y01894620D01*
X05407060Y01928740D01*
X05433340Y01928740D01*
G01X04942180Y02247320D02*
X04946120Y02253160D01*
X04948740Y02259980D01*
X04948740Y02267770D01*
X04944800Y02276530D01*
X04938240Y02283340D01*
X04930370Y02288210D01*
X04917240Y02292110D01*
X04905430Y02293080D01*
X04893620Y02291130D01*
X04885750Y02288210D01*
X04877870Y02282370D01*
X04872620Y02275560D01*
X04870000Y02268740D01*
X04870000Y02261920D01*
X04872620Y02255110D01*
X04876560Y02249270D01*
X04881810Y02244400D01*
G01X04881810Y02211420D02*
X04875250Y02205580D01*
X04871310Y02198760D01*
X04870000Y02190000D01*
X04872620Y02181240D01*
X04877870Y02174420D01*
X04887060Y02169550D01*
X04897560Y02168580D01*
X04908060Y02170530D01*
X04914620Y02175400D01*
X04919870Y02182210D01*
X04921180Y02189030D01*
X04919870Y02195840D01*
X04914620Y02204600D01*
X04948740Y02201680D01*
X04948740Y02175400D01*
G01X04902810Y02129760D02*
X04912000Y02122940D01*
X04917240Y02117100D01*
X04919870Y02109310D01*
X04917240Y02102500D01*
X04912000Y02097630D01*
X04904120Y02093730D01*
X04894930Y02092760D01*
X04887060Y02093730D01*
X04879180Y02097630D01*
X04872620Y02103470D01*
X04870000Y02110290D01*
X04872620Y02118080D01*
X04880500Y02124890D01*
X04892310Y02128790D01*
X04905430Y02129760D01*
X04922490Y02127810D01*
X04931680Y02124890D01*
X04940870Y02120020D01*
X04947430Y02113210D01*
X04948740Y02106390D01*
X04946120Y02099580D01*
X04939550Y02094710D01*
G01X05329840Y02468740D02*
X05329840Y02412310D01*
X05333730Y02400500D01*
X05341520Y02392620D01*
X05351260Y02390000D01*
X05361000Y02392620D01*
X05368790Y02400500D01*
X05372680Y02412310D01*
X05372680Y02468740D01*
G01X05430000Y02390000D02*
X05430000Y02468740D01*
X05418320Y02452990D01*
G01X05418320Y02390000D02*
X05441680Y02390000D01*
G01X05487320Y02405750D02*
X05493160Y02396560D01*
X05500950Y02391310D01*
X05509710Y02390000D01*
X05517500Y02391310D01*
X05525290Y02397870D01*
X05530160Y02405750D01*
X05531130Y02413620D01*
X05529190Y02422810D01*
X05522370Y02429370D01*
X05515560Y02432000D01*
X05506790Y02432000D01*
G01X05515560Y02432000D02*
X05521400Y02435930D01*
X05526270Y02442490D01*
X05528210Y02450370D01*
X05526270Y02458240D01*
X05521400Y02464800D01*
X05512630Y02468740D01*
X05503870Y02467430D01*
X05495110Y02462180D01*
G01X05680000Y02170000D02*
X05680000Y02670000D01*
X05180000Y02670000D01*
X05180000Y02170000D01*
X05680000Y02170000D01*
G01X04922180Y03917320D02*
X04926120Y03923160D01*
X04928740Y03929980D01*
X04928740Y03937770D01*
X04924800Y03946530D01*
X04918240Y03953340D01*
X04910370Y03958210D01*
X04897240Y03962110D01*
X04885430Y03963080D01*
X04873620Y03961130D01*
X04865750Y03958210D01*
X04857870Y03952370D01*
X04852620Y03945560D01*
X04850000Y03938740D01*
X04850000Y03931920D01*
X04852620Y03925110D01*
X04856560Y03919270D01*
X04861810Y03914400D01*
G01X04850000Y03860000D02*
X04928740Y03860000D01*
X04912990Y03871680D01*
G01X04850000Y03871680D02*
X04850000Y03848320D01*
G01X04865750Y03802680D02*
X04856560Y03796840D01*
X04851310Y03789050D01*
X04850000Y03780290D01*
X04851310Y03772500D01*
X04857870Y03764710D01*
X04865750Y03759840D01*
X04873620Y03758870D01*
X04882810Y03760810D01*
X04889370Y03767630D01*
X04892000Y03774440D01*
X04892000Y03783210D01*
G01X04892000Y03774440D02*
X04895930Y03768600D01*
X04902490Y03763730D01*
X04910370Y03761790D01*
X04918240Y03763730D01*
X04924800Y03768600D01*
X04928740Y03777370D01*
X04927430Y03786130D01*
X04922180Y03794890D01*
G01X05432180Y03917320D02*
X05436120Y03923160D01*
X05438740Y03929980D01*
X05438740Y03937770D01*
X05434800Y03946530D01*
X05428240Y03953340D01*
X05420370Y03958210D01*
X05407240Y03962110D01*
X05395430Y03963080D01*
X05383620Y03961130D01*
X05375750Y03958210D01*
X05367870Y03952370D01*
X05362620Y03945560D01*
X05360000Y03938740D01*
X05360000Y03931920D01*
X05362620Y03925110D01*
X05366560Y03919270D01*
X05371810Y03914400D01*
G01X05360000Y03860000D02*
X05438740Y03860000D01*
X05422990Y03871680D01*
G01X05360000Y03871680D02*
X05360000Y03848320D01*
G01X05360000Y03781260D02*
X05361310Y03774440D01*
X05365250Y03766660D01*
X05371810Y03761790D01*
X05381000Y03759840D01*
X05390180Y03761790D01*
X05398060Y03767630D01*
X05402000Y03776390D01*
X05402000Y03786130D01*
X05404620Y03791970D01*
X05411180Y03796840D01*
X05420370Y03798790D01*
X05429550Y03795860D01*
X05436120Y03789050D01*
X05438740Y03781260D01*
X05436120Y03773470D01*
X05429550Y03766660D01*
X05420370Y03763730D01*
X05411180Y03765680D01*
X05404620Y03770550D01*
X05402000Y03776390D01*
X05402000Y03786130D01*
X05398060Y03794890D01*
X05390180Y03800730D01*
X05381000Y03802680D01*
X05371810Y03800730D01*
X05365250Y03795860D01*
X05361310Y03788080D01*
X05360000Y03781260D01*
G01X05419210Y04978740D02*
X05419210Y04922310D01*
X05423100Y04910500D01*
X05430890Y04902620D01*
X05440630Y04900000D01*
X05450370Y04902620D01*
X05458160Y04910500D01*
X05462050Y04922310D01*
X05462050Y04978740D01*
G01X05497950Y04915750D02*
X05503790Y04906560D01*
X05511580Y04901310D01*
X05520340Y04900000D01*
X05528130Y04901310D01*
X05535920Y04907870D01*
X05540790Y04915750D01*
X05541760Y04923620D01*
X05539820Y04932810D01*
X05533000Y04939370D01*
X05526190Y04942000D01*
X05517420Y04942000D01*
G01X05526190Y04942000D02*
X05532030Y04945930D01*
X05536900Y04952490D01*
X05538840Y04960370D01*
X05536900Y04968240D01*
X05532030Y04974800D01*
X05523260Y04978740D01*
X05514500Y04977430D01*
X05505740Y04972180D01*
G01X05472180Y06067320D02*
X05476120Y06073160D01*
X05478740Y06079980D01*
X05478740Y06087770D01*
X05474800Y06096530D01*
X05468240Y06103340D01*
X05460370Y06108210D01*
X05447240Y06112110D01*
X05435430Y06113080D01*
X05423620Y06111130D01*
X05415750Y06108210D01*
X05407870Y06102370D01*
X05402620Y06095560D01*
X05400000Y06088740D01*
X05400000Y06081920D01*
X05402620Y06075110D01*
X05406560Y06069270D01*
X05411810Y06064400D01*
G01X05465620Y06028500D02*
X05473490Y06022660D01*
X05477430Y06015840D01*
X05478740Y06008050D01*
X05476120Y05998320D01*
X05469550Y05991500D01*
X05461680Y05989550D01*
X05453800Y05990530D01*
X05447240Y05994420D01*
X05434120Y06013890D01*
X05424930Y06022660D01*
X05411810Y06028500D01*
X05400000Y06030450D01*
X05400000Y05989550D01*
G01X05478740Y05931260D02*
X05476120Y05939050D01*
X05469550Y05944890D01*
X05461680Y05948790D01*
X05451180Y05951710D01*
X05439370Y05952680D01*
X05427560Y05951710D01*
X05417060Y05948790D01*
X05409180Y05944890D01*
X05402620Y05939050D01*
X05400000Y05931260D01*
X05402620Y05923470D01*
X05409180Y05917630D01*
X05417060Y05913730D01*
X05427560Y05910810D01*
X05439370Y05909840D01*
X05451180Y05910810D01*
X05461680Y05913730D01*
X05469550Y05917630D01*
X05476120Y05923470D01*
X05478740Y05931260D01*
G01X05052180Y06927320D02*
X05056120Y06933160D01*
X05058740Y06939980D01*
X05058740Y06947770D01*
X05054800Y06956530D01*
X05048240Y06963340D01*
X05040370Y06968210D01*
X05027240Y06972110D01*
X05015430Y06973080D01*
X05003620Y06971130D01*
X04995750Y06968210D01*
X04987870Y06962370D01*
X04982620Y06955560D01*
X04980000Y06948740D01*
X04980000Y06941920D01*
X04982620Y06935110D01*
X04986560Y06929270D01*
X04991810Y06924400D01*
G01X04980000Y06870000D02*
X05058740Y06870000D01*
X05042990Y06881680D01*
G01X04980000Y06881680D02*
X04980000Y06858320D01*
G01X05058740Y06791260D02*
X05056120Y06799050D01*
X05049550Y06804890D01*
X05041680Y06808790D01*
X05031180Y06811710D01*
X05019370Y06812680D01*
X05007560Y06811710D01*
X04997060Y06808790D01*
X04989180Y06804890D01*
X04982620Y06799050D01*
X04980000Y06791260D01*
X04982620Y06783470D01*
X04989180Y06777630D01*
X04997060Y06773730D01*
X05007560Y06770810D01*
X05019370Y06769840D01*
X05031180Y06770810D01*
X05041680Y06773730D01*
X05049550Y06777630D01*
X05056120Y06783470D01*
X05058740Y06791260D01*
G01X05052180Y07327950D02*
X05056120Y07333790D01*
X05058740Y07340610D01*
X05058740Y07348400D01*
X05054800Y07357160D01*
X05048240Y07363970D01*
X05040370Y07368840D01*
X05027240Y07372740D01*
X05015430Y07373710D01*
X05003620Y07371760D01*
X04995750Y07368840D01*
X04987870Y07363000D01*
X04982620Y07356190D01*
X04980000Y07349370D01*
X04980000Y07342550D01*
X04982620Y07335740D01*
X04986560Y07329900D01*
X04991810Y07325030D01*
G01X04980000Y07270630D02*
X04981310Y07263810D01*
X04985250Y07256030D01*
X04991810Y07251160D01*
X05001000Y07249210D01*
X05010180Y07251160D01*
X05018060Y07257000D01*
X05022000Y07265760D01*
X05022000Y07275500D01*
X05024620Y07281340D01*
X05031180Y07286210D01*
X05040370Y07288160D01*
X05049550Y07285230D01*
X05056120Y07278420D01*
X05058740Y07270630D01*
X05056120Y07262840D01*
X05049550Y07256030D01*
X05040370Y07253100D01*
X05031180Y07255050D01*
X05024620Y07259920D01*
X05022000Y07265760D01*
X05022000Y07275500D01*
X05018060Y07284260D01*
X05010180Y07290100D01*
X05001000Y07292050D01*
X04991810Y07290100D01*
X04985250Y07285230D01*
X04981310Y07277450D01*
X04980000Y07270630D01*
G01X05052180Y08057950D02*
X05056120Y08063790D01*
X05058740Y08070610D01*
X05058740Y08078400D01*
X05054800Y08087160D01*
X05048240Y08093970D01*
X05040370Y08098840D01*
X05027240Y08102740D01*
X05015430Y08103710D01*
X05003620Y08101760D01*
X04995750Y08098840D01*
X04987870Y08093000D01*
X04982620Y08086190D01*
X04980000Y08079370D01*
X04980000Y08072550D01*
X04982620Y08065740D01*
X04986560Y08059900D01*
X04991810Y08055030D01*
G01X05012810Y08019130D02*
X05022000Y08012310D01*
X05027240Y08006470D01*
X05029870Y07998680D01*
X05027240Y07991870D01*
X05022000Y07987000D01*
X05014120Y07983100D01*
X05004930Y07982130D01*
X04997060Y07983100D01*
X04989180Y07987000D01*
X04982620Y07992840D01*
X04980000Y07999660D01*
X04982620Y08007450D01*
X04990500Y08014260D01*
X05002310Y08018160D01*
X05015430Y08019130D01*
X05032490Y08017180D01*
X05041680Y08014260D01*
X05050870Y08009390D01*
X05057430Y08002580D01*
X05058740Y07995760D01*
X05056120Y07988950D01*
X05049550Y07984080D01*
G01X05691790Y01050000D02*
X05691790Y01128740D01*
X05716130Y01128740D01*
X05723920Y01124800D01*
X05728790Y01119550D01*
X05730730Y01109050D01*
X05728790Y01098560D01*
X05722940Y01092000D01*
X05716130Y01088060D01*
X05691790Y01088060D01*
G01X05716130Y01088060D02*
X05730730Y01050000D01*
G01X05768580Y01065750D02*
X05774420Y01056560D01*
X05782210Y01051310D01*
X05790970Y01050000D01*
X05798760Y01051310D01*
X05806550Y01057870D01*
X05811420Y01065750D01*
X05812390Y01073620D01*
X05810450Y01082810D01*
X05803630Y01089370D01*
X05796820Y01092000D01*
X05788050Y01092000D01*
G01X05796820Y01092000D02*
X05802660Y01095930D01*
X05807530Y01102490D01*
X05809470Y01110370D01*
X05807530Y01118240D01*
X05802660Y01124800D01*
X05793890Y01128740D01*
X05785130Y01127430D01*
X05776370Y01122180D01*
G01X05868740Y01128740D02*
X05860950Y01126120D01*
X05855110Y01119550D01*
X05851210Y01111680D01*
X05848290Y01101180D01*
X05847320Y01089370D01*
X05848290Y01077560D01*
X05851210Y01067060D01*
X05855110Y01059180D01*
X05860950Y01052620D01*
X05868740Y01050000D01*
X05876530Y01052620D01*
X05882370Y01059180D01*
X05886270Y01067060D01*
X05889190Y01077560D01*
X05890160Y01089370D01*
X05889190Y01101180D01*
X05886270Y01111680D01*
X05882370Y01119550D01*
X05876530Y01126120D01*
X05868740Y01128740D01*
G01X05652680Y01682180D02*
X05646840Y01686120D01*
X05640020Y01688740D01*
X05632230Y01688740D01*
X05623470Y01684800D01*
X05616660Y01678240D01*
X05611790Y01670370D01*
X05607890Y01657240D01*
X05606920Y01645430D01*
X05608870Y01633620D01*
X05611790Y01625750D01*
X05617630Y01617870D01*
X05624440Y01612620D01*
X05631260Y01610000D01*
X05638080Y01610000D01*
X05644890Y01612620D01*
X05650730Y01616560D01*
X05655600Y01621810D01*
G01X05688580Y01621810D02*
X05694420Y01615250D01*
X05701240Y01611310D01*
X05710000Y01610000D01*
X05718760Y01612620D01*
X05725580Y01617870D01*
X05730450Y01627060D01*
X05731420Y01637560D01*
X05729470Y01648060D01*
X05724600Y01654620D01*
X05717790Y01659870D01*
X05710970Y01661180D01*
X05704160Y01659870D01*
X05695400Y01654620D01*
X05698320Y01688740D01*
X05724600Y01688740D01*
G01X05767320Y01625750D02*
X05773160Y01616560D01*
X05780950Y01611310D01*
X05789710Y01610000D01*
X05797500Y01611310D01*
X05805290Y01617870D01*
X05810160Y01625750D01*
X05811130Y01633620D01*
X05809190Y01642810D01*
X05802370Y01649370D01*
X05795560Y01652000D01*
X05786790Y01652000D01*
G01X05795560Y01652000D02*
X05801400Y01655930D01*
X05806270Y01662490D01*
X05808210Y01670370D01*
X05806270Y01678240D01*
X05801400Y01684800D01*
X05792630Y01688740D01*
X05783870Y01687430D01*
X05775110Y01682180D01*
G01X05862680Y01682180D02*
X05856840Y01686120D01*
X05850020Y01688740D01*
X05842230Y01688740D01*
X05833470Y01684800D01*
X05826660Y01678240D01*
X05821790Y01670370D01*
X05817890Y01657240D01*
X05816920Y01645430D01*
X05818870Y01633620D01*
X05821790Y01625750D01*
X05827630Y01617870D01*
X05834440Y01612620D01*
X05841260Y01610000D01*
X05848080Y01610000D01*
X05854890Y01612620D01*
X05860730Y01616560D01*
X05865600Y01621810D01*
G01X05898580Y01621810D02*
X05904420Y01615250D01*
X05911240Y01611310D01*
X05920000Y01610000D01*
X05928760Y01612620D01*
X05935580Y01617870D01*
X05940450Y01627060D01*
X05941420Y01637560D01*
X05939470Y01648060D01*
X05934600Y01654620D01*
X05927790Y01659870D01*
X05920970Y01661180D01*
X05914160Y01659870D01*
X05905400Y01654620D01*
X05908320Y01688740D01*
X05934600Y01688740D01*
G01X06010420Y01610000D02*
X06010420Y01688740D01*
X05974400Y01632310D01*
X06023080Y01632310D01*
G01X05750180Y01350000D02*
X05791080Y01428740D01*
G01X05750180Y01428740D02*
X05791080Y01350000D01*
G01X05849370Y01350000D02*
X05849370Y01428740D01*
X05837690Y01412990D01*
G01X05837690Y01350000D02*
X05861050Y01350000D01*
G01X06052180Y02187320D02*
X06056120Y02193160D01*
X06058740Y02199980D01*
X06058740Y02207770D01*
X06054800Y02216530D01*
X06048240Y02223340D01*
X06040370Y02228210D01*
X06027240Y02232110D01*
X06015430Y02233080D01*
X06003620Y02231130D01*
X05995750Y02228210D01*
X05987870Y02222370D01*
X05982620Y02215560D01*
X05980000Y02208740D01*
X05980000Y02201920D01*
X05982620Y02195110D01*
X05986560Y02189270D01*
X05991810Y02184400D01*
G01X05991810Y02151420D02*
X05985250Y02145580D01*
X05981310Y02138760D01*
X05980000Y02130000D01*
X05982620Y02121240D01*
X05987870Y02114420D01*
X05997060Y02109550D01*
X06007560Y02108580D01*
X06018060Y02110530D01*
X06024620Y02115400D01*
X06029870Y02122210D01*
X06031180Y02129030D01*
X06029870Y02135840D01*
X06024620Y02144600D01*
X06058740Y02141680D01*
X06058740Y02115400D01*
G01X05980000Y02051260D02*
X05981310Y02044440D01*
X05985250Y02036660D01*
X05991810Y02031790D01*
X06001000Y02029840D01*
X06010180Y02031790D01*
X06018060Y02037630D01*
X06022000Y02046390D01*
X06022000Y02056130D01*
X06024620Y02061970D01*
X06031180Y02066840D01*
X06040370Y02068790D01*
X06049550Y02065860D01*
X06056120Y02059050D01*
X06058740Y02051260D01*
X06056120Y02043470D01*
X06049550Y02036660D01*
X06040370Y02033730D01*
X06031180Y02035680D01*
X06024620Y02040550D01*
X06022000Y02046390D01*
X06022000Y02056130D01*
X06018060Y02064890D01*
X06010180Y02070730D01*
X06001000Y02072680D01*
X05991810Y02070730D01*
X05985250Y02065860D01*
X05981310Y02058080D01*
X05980000Y02051260D01*
G01X05980000Y02498210D02*
X06058740Y02498210D01*
X06058740Y02473870D01*
X06054800Y02466080D01*
X06049550Y02461210D01*
X06039050Y02459270D01*
X06028560Y02461210D01*
X06022000Y02467060D01*
X06018060Y02473870D01*
X06018060Y02498210D01*
G01X06018060Y02473870D02*
X05980000Y02459270D01*
G01X05995750Y02421420D02*
X05986560Y02415580D01*
X05981310Y02407790D01*
X05980000Y02399030D01*
X05981310Y02391240D01*
X05987870Y02383450D01*
X05995750Y02378580D01*
X06003620Y02377610D01*
X06012810Y02379550D01*
X06019370Y02386370D01*
X06022000Y02393180D01*
X06022000Y02401950D01*
G01X06022000Y02393180D02*
X06025930Y02387340D01*
X06032490Y02382470D01*
X06040370Y02380530D01*
X06048240Y02382470D01*
X06054800Y02387340D01*
X06058740Y02396110D01*
X06057430Y02404870D01*
X06052180Y02413630D01*
G01X05980000Y02321260D02*
X06058740Y02321260D01*
X06042990Y02332940D01*
G01X05980000Y02332940D02*
X05980000Y02309580D01*
G01X05502680Y03002180D02*
X05496840Y03006120D01*
X05490020Y03008740D01*
X05482230Y03008740D01*
X05473470Y03004800D01*
X05466660Y02998240D01*
X05461790Y02990370D01*
X05457890Y02977240D01*
X05456920Y02965430D01*
X05458870Y02953620D01*
X05461790Y02945750D01*
X05467630Y02937870D01*
X05474440Y02932620D01*
X05481260Y02930000D01*
X05488080Y02930000D01*
X05494890Y02932620D01*
X05500730Y02936560D01*
X05505600Y02941810D01*
G01X05538580Y02941810D02*
X05544420Y02935250D01*
X05551240Y02931310D01*
X05560000Y02930000D01*
X05568760Y02932620D01*
X05575580Y02937870D01*
X05580450Y02947060D01*
X05581420Y02957560D01*
X05579470Y02968060D01*
X05574600Y02974620D01*
X05567790Y02979870D01*
X05560970Y02981180D01*
X05554160Y02979870D01*
X05545400Y02974620D01*
X05548320Y03008740D01*
X05574600Y03008740D01*
G01X05636790Y02930000D02*
X05638740Y02947060D01*
X05641660Y02961490D01*
X05645560Y02974620D01*
X05650420Y02989050D01*
X05658210Y03008740D01*
X05619270Y03008740D01*
G01X05622180Y03917320D02*
X05626120Y03923160D01*
X05628740Y03929980D01*
X05628740Y03937770D01*
X05624800Y03946530D01*
X05618240Y03953340D01*
X05610370Y03958210D01*
X05597240Y03962110D01*
X05585430Y03963080D01*
X05573620Y03961130D01*
X05565750Y03958210D01*
X05557870Y03952370D01*
X05552620Y03945560D01*
X05550000Y03938740D01*
X05550000Y03931920D01*
X05552620Y03925110D01*
X05556560Y03919270D01*
X05561810Y03914400D01*
G01X05550000Y03860000D02*
X05628740Y03860000D01*
X05612990Y03871680D01*
G01X05550000Y03871680D02*
X05550000Y03848320D01*
G01X05615620Y03799760D02*
X05623490Y03793920D01*
X05627430Y03787100D01*
X05628740Y03779310D01*
X05626120Y03769580D01*
X05619550Y03762760D01*
X05611680Y03760810D01*
X05603800Y03761790D01*
X05597240Y03765680D01*
X05584120Y03785150D01*
X05574930Y03793920D01*
X05561810Y03799760D01*
X05550000Y03801710D01*
X05550000Y03760810D01*
G01X05592180Y06067320D02*
X05596120Y06073160D01*
X05598740Y06079980D01*
X05598740Y06087770D01*
X05594800Y06096530D01*
X05588240Y06103340D01*
X05580370Y06108210D01*
X05567240Y06112110D01*
X05555430Y06113080D01*
X05543620Y06111130D01*
X05535750Y06108210D01*
X05527870Y06102370D01*
X05522620Y06095560D01*
X05520000Y06088740D01*
X05520000Y06081920D01*
X05522620Y06075110D01*
X05526560Y06069270D01*
X05531810Y06064400D01*
G01X05531810Y06031420D02*
X05525250Y06025580D01*
X05521310Y06018760D01*
X05520000Y06010000D01*
X05522620Y06001240D01*
X05527870Y05994420D01*
X05537060Y05989550D01*
X05547560Y05988580D01*
X05558060Y05990530D01*
X05564620Y05995400D01*
X05569870Y06002210D01*
X05571180Y06009030D01*
X05569870Y06015840D01*
X05564620Y06024600D01*
X05598740Y06021680D01*
X05598740Y05995400D01*
G01X05529180Y05947810D02*
X05522620Y05941000D01*
X05520000Y05933210D01*
X05522620Y05925420D01*
X05530500Y05918600D01*
X05542310Y05913730D01*
X05554120Y05911790D01*
X05568560Y05911790D01*
X05580370Y05913730D01*
X05590870Y05918600D01*
X05596120Y05924440D01*
X05598740Y05931260D01*
X05596120Y05939050D01*
X05590870Y05944890D01*
X05582990Y05948790D01*
X05572490Y05950730D01*
X05563310Y05948790D01*
X05554120Y05943920D01*
X05548870Y05938080D01*
X05547560Y05931260D01*
X05550180Y05923470D01*
X05556740Y05917630D01*
X05568560Y05911790D01*
G01X06124210Y03545000D02*
X06124210Y03623740D01*
X06143680Y03623740D01*
X06151470Y03619800D01*
X06157310Y03614550D01*
X06162180Y03606680D01*
X06166080Y03597490D01*
X06167050Y03584370D01*
X06166080Y03571250D01*
X06162180Y03562060D01*
X06157310Y03554180D01*
X06151470Y03548940D01*
X06143680Y03545000D01*
X06124210Y03545000D01*
G01X06224370Y03545000D02*
X06224370Y03623740D01*
X06212690Y03607990D01*
G01X06212690Y03545000D02*
X06236050Y03545000D01*
G01X06124210Y03275000D02*
X06124210Y03353740D01*
X06143680Y03353740D01*
X06151470Y03349800D01*
X06157310Y03344550D01*
X06162180Y03336680D01*
X06166080Y03327490D01*
X06167050Y03314370D01*
X06166080Y03301250D01*
X06162180Y03292060D01*
X06157310Y03284180D01*
X06151470Y03278940D01*
X06143680Y03275000D01*
X06124210Y03275000D01*
G01X06205870Y03340620D02*
X06211710Y03348490D01*
X06218530Y03352430D01*
X06226320Y03353740D01*
X06236050Y03351120D01*
X06242870Y03344550D01*
X06244820Y03336680D01*
X06243840Y03328800D01*
X06239950Y03322240D01*
X06220480Y03309120D01*
X06211710Y03299930D01*
X06205870Y03286810D01*
X06203920Y03275000D01*
X06244820Y03275000D01*
G01X06451160Y03430000D02*
X06451160Y03508740D01*
X06475500Y03508740D01*
X06483290Y03504800D01*
X06488160Y03499550D01*
X06490100Y03489050D01*
X06488160Y03478560D01*
X06482310Y03472000D01*
X06475500Y03468060D01*
X06451160Y03468060D01*
G01X06475500Y03468060D02*
X06490100Y03430000D01*
G01X06530870Y03462810D02*
X06537690Y03472000D01*
X06543530Y03477240D01*
X06551320Y03479870D01*
X06558130Y03477240D01*
X06563000Y03472000D01*
X06566900Y03464120D01*
X06567870Y03454930D01*
X06566900Y03447060D01*
X06563000Y03439180D01*
X06557160Y03432620D01*
X06550340Y03430000D01*
X06542550Y03432620D01*
X06535740Y03440500D01*
X06531840Y03452310D01*
X06530870Y03465430D01*
X06532820Y03482490D01*
X06535740Y03491680D01*
X06540610Y03500870D01*
X06547420Y03507430D01*
X06554240Y03508740D01*
X06561050Y03506120D01*
X06565920Y03499550D01*
G01X06451160Y03160000D02*
X06451160Y03238740D01*
X06475500Y03238740D01*
X06483290Y03234800D01*
X06488160Y03229550D01*
X06490100Y03219050D01*
X06488160Y03208560D01*
X06482310Y03202000D01*
X06475500Y03198060D01*
X06451160Y03198060D01*
G01X06475500Y03198060D02*
X06490100Y03160000D01*
G01X06547420Y03160000D02*
X06549370Y03177060D01*
X06552290Y03191490D01*
X06556190Y03204620D01*
X06561050Y03219050D01*
X06568840Y03238740D01*
X06529900Y03238740D01*
G01X06272680Y04032180D02*
X06266840Y04036120D01*
X06260020Y04038740D01*
X06252230Y04038740D01*
X06243470Y04034800D01*
X06236660Y04028240D01*
X06231790Y04020370D01*
X06227890Y04007240D01*
X06226920Y03995430D01*
X06228870Y03983620D01*
X06231790Y03975750D01*
X06237630Y03967870D01*
X06244440Y03962620D01*
X06251260Y03960000D01*
X06258080Y03960000D01*
X06264890Y03962620D01*
X06270730Y03966560D01*
X06275600Y03971810D01*
G01X06330000Y03960000D02*
X06330000Y04038740D01*
X06318320Y04022990D01*
G01X06318320Y03960000D02*
X06341680Y03960000D01*
G01X06390240Y03992810D02*
X06397060Y04002000D01*
X06402900Y04007240D01*
X06410690Y04009870D01*
X06417500Y04007240D01*
X06422370Y04002000D01*
X06426270Y03994120D01*
X06427240Y03984930D01*
X06426270Y03977060D01*
X06422370Y03969180D01*
X06416530Y03962620D01*
X06409710Y03960000D01*
X06401920Y03962620D01*
X06395110Y03970500D01*
X06391210Y03982310D01*
X06390240Y03995430D01*
X06392190Y04012490D01*
X06395110Y04021680D01*
X06399980Y04030870D01*
X06406790Y04037430D01*
X06413610Y04038740D01*
X06420420Y04036120D01*
X06425290Y04029550D01*
G01X06502680Y04912180D02*
X06496840Y04916120D01*
X06490020Y04918740D01*
X06482230Y04918740D01*
X06473470Y04914800D01*
X06466660Y04908240D01*
X06461790Y04900370D01*
X06457890Y04887240D01*
X06456920Y04875430D01*
X06458870Y04863620D01*
X06461790Y04855750D01*
X06467630Y04847870D01*
X06474440Y04842620D01*
X06481260Y04840000D01*
X06488080Y04840000D01*
X06494890Y04842620D01*
X06500730Y04846560D01*
X06505600Y04851810D01*
G01X06560000Y04840000D02*
X06560000Y04918740D01*
X06548320Y04902990D01*
G01X06548320Y04840000D02*
X06571680Y04840000D01*
G01X06638740Y04840000D02*
X06638740Y04918740D01*
X06627060Y04902990D01*
G01X06627060Y04840000D02*
X06650420Y04840000D01*
G01X06502680Y05072180D02*
X06496840Y05076120D01*
X06490020Y05078740D01*
X06482230Y05078740D01*
X06473470Y05074800D01*
X06466660Y05068240D01*
X06461790Y05060370D01*
X06457890Y05047240D01*
X06456920Y05035430D01*
X06458870Y05023620D01*
X06461790Y05015750D01*
X06467630Y05007870D01*
X06474440Y05002620D01*
X06481260Y05000000D01*
X06488080Y05000000D01*
X06494890Y05002620D01*
X06500730Y05006560D01*
X06505600Y05011810D01*
G01X06560000Y05000000D02*
X06560000Y05078740D01*
X06548320Y05062990D01*
G01X06548320Y05000000D02*
X06571680Y05000000D01*
G01X06617320Y05011810D02*
X06623160Y05005250D01*
X06629980Y05001310D01*
X06638740Y05000000D01*
X06647500Y05002620D01*
X06654320Y05007870D01*
X06659190Y05017060D01*
X06660160Y05027560D01*
X06658210Y05038060D01*
X06653340Y05044620D01*
X06646530Y05049870D01*
X06639710Y05051180D01*
X06632900Y05049870D01*
X06624140Y05044620D01*
X06627060Y05078740D01*
X06653340Y05078740D01*
G01X06532180Y05687320D02*
X06536120Y05693160D01*
X06538740Y05699980D01*
X06538740Y05707770D01*
X06534800Y05716530D01*
X06528240Y05723340D01*
X06520370Y05728210D01*
X06507240Y05732110D01*
X06495430Y05733080D01*
X06483620Y05731130D01*
X06475750Y05728210D01*
X06467870Y05722370D01*
X06462620Y05715560D01*
X06460000Y05708740D01*
X06460000Y05701920D01*
X06462620Y05695110D01*
X06466560Y05689270D01*
X06471810Y05684400D01*
G01X06460000Y05630000D02*
X06538740Y05630000D01*
X06522990Y05641680D01*
G01X06460000Y05641680D02*
X06460000Y05618320D01*
G01X06469180Y05567810D02*
X06462620Y05561000D01*
X06460000Y05553210D01*
X06462620Y05545420D01*
X06470500Y05538600D01*
X06482310Y05533730D01*
X06494120Y05531790D01*
X06508560Y05531790D01*
X06520370Y05533730D01*
X06530870Y05538600D01*
X06536120Y05544440D01*
X06538740Y05551260D01*
X06536120Y05559050D01*
X06530870Y05564890D01*
X06522990Y05568790D01*
X06512490Y05570730D01*
X06503310Y05568790D01*
X06494120Y05563920D01*
X06488870Y05558080D01*
X06487560Y05551260D01*
X06490180Y05543470D01*
X06496740Y05537630D01*
X06508560Y05531790D01*
G01X06111160Y06180000D02*
X06111160Y06258740D01*
X06135500Y06258740D01*
X06143290Y06254800D01*
X06148160Y06249550D01*
X06150100Y06239050D01*
X06148160Y06228560D01*
X06142310Y06222000D01*
X06135500Y06218060D01*
X06111160Y06218060D01*
G01X06135500Y06218060D02*
X06150100Y06180000D01*
G01X06209370Y06180000D02*
X06209370Y06258740D01*
X06197690Y06242990D01*
G01X06197690Y06180000D02*
X06221050Y06180000D01*
G01X06391160Y06080000D02*
X06391160Y06158740D01*
X06415500Y06158740D01*
X06423290Y06154800D01*
X06428160Y06149550D01*
X06430100Y06139050D01*
X06428160Y06128560D01*
X06422310Y06122000D01*
X06415500Y06118060D01*
X06391160Y06118060D01*
G01X06415500Y06118060D02*
X06430100Y06080000D01*
G01X06470870Y06145620D02*
X06476710Y06153490D01*
X06483530Y06157430D01*
X06491320Y06158740D01*
X06501050Y06156120D01*
X06507870Y06149550D01*
X06509820Y06141680D01*
X06508840Y06133800D01*
X06504950Y06127240D01*
X06485480Y06114120D01*
X06476710Y06104930D01*
X06470870Y06091810D01*
X06468920Y06080000D01*
X06509820Y06080000D01*
G01X06268000Y06919500D02*
X08845000Y06919500D01*
G01X06268000Y07304500D02*
X06268000Y06919500D01*
G01X08845000Y06987000D02*
X08923000Y06987000D01*
X08923000Y06862000D01*
X06190000Y06862000D01*
X06190000Y06987000D01*
X06268000Y06987000D01*
G01X06331790Y06330000D02*
X06331790Y06408740D01*
X06356130Y06408740D01*
X06363920Y06404800D01*
X06368790Y06399550D01*
X06370730Y06389050D01*
X06368790Y06378560D01*
X06362940Y06372000D01*
X06356130Y06368060D01*
X06331790Y06368060D01*
G01X06356130Y06368060D02*
X06370730Y06330000D01*
G01X06408580Y06345750D02*
X06414420Y06336560D01*
X06422210Y06331310D01*
X06430970Y06330000D01*
X06438760Y06331310D01*
X06446550Y06337870D01*
X06451420Y06345750D01*
X06452390Y06353620D01*
X06450450Y06362810D01*
X06443630Y06369370D01*
X06436820Y06372000D01*
X06428050Y06372000D01*
G01X06436820Y06372000D02*
X06442660Y06375930D01*
X06447530Y06382490D01*
X06449470Y06390370D01*
X06447530Y06398240D01*
X06442660Y06404800D01*
X06433890Y06408740D01*
X06425130Y06407430D01*
X06416370Y06402180D01*
G01X06487320Y06345750D02*
X06493160Y06336560D01*
X06500950Y06331310D01*
X06509710Y06330000D01*
X06517500Y06331310D01*
X06525290Y06337870D01*
X06530160Y06345750D01*
X06531130Y06353620D01*
X06529190Y06362810D01*
X06522370Y06369370D01*
X06515560Y06372000D01*
X06506790Y06372000D01*
G01X06515560Y06372000D02*
X06521400Y06375930D01*
X06526270Y06382490D01*
X06528210Y06390370D01*
X06526270Y06398240D01*
X06521400Y06404800D01*
X06512630Y06408740D01*
X06503870Y06407430D01*
X06495110Y06402180D01*
G01X08844000Y07237000D02*
X08923000Y07237000D01*
X08923000Y07362000D01*
X06190000Y07362000D01*
X06190000Y07237000D01*
X06268000Y07237000D01*
G01X08845000Y07304500D02*
X06268000Y07304500D01*
G01X08844000Y08189500D02*
X08923000Y08189500D01*
X08923000Y08314500D01*
X06190000Y08314500D01*
X06190000Y08189500D01*
X06268000Y08189500D01*
G01X06268000Y07872000D02*
X08845000Y07872000D01*
G01X06268000Y08257000D02*
X06268000Y07872000D01*
G01X08845000Y07939500D02*
X08923000Y07939500D01*
X08923000Y07814500D01*
X06190000Y07814500D01*
X06190000Y07939500D01*
X06268000Y07939500D01*
G01X08845000Y08257000D02*
X06268000Y08257000D01*
G01X07330000Y01668210D02*
X07408740Y01668210D01*
X07408740Y01643870D01*
X07404800Y01636080D01*
X07399550Y01631210D01*
X07389050Y01629270D01*
X07378560Y01631210D01*
X07372000Y01637060D01*
X07368060Y01643870D01*
X07368060Y01668210D01*
G01X07368060Y01643870D02*
X07330000Y01629270D01*
G01X07330000Y01570000D02*
X07408740Y01570000D01*
X07392990Y01581680D01*
G01X07330000Y01581680D02*
X07330000Y01558320D01*
G01X07362810Y01509760D02*
X07372000Y01502940D01*
X07377240Y01497100D01*
X07379870Y01489310D01*
X07377240Y01482500D01*
X07372000Y01477630D01*
X07364120Y01473730D01*
X07354930Y01472760D01*
X07347060Y01473730D01*
X07339180Y01477630D01*
X07332620Y01483470D01*
X07330000Y01490290D01*
X07332620Y01498080D01*
X07340500Y01504890D01*
X07352310Y01508790D01*
X07365430Y01509760D01*
X07382490Y01507810D01*
X07391680Y01504890D01*
X07400870Y01500020D01*
X07407430Y01493210D01*
X07408740Y01486390D01*
X07406120Y01479580D01*
X07399550Y01474710D01*
G01X07352180Y02707320D02*
X07356120Y02713160D01*
X07358740Y02719980D01*
X07358740Y02727770D01*
X07354800Y02736530D01*
X07348240Y02743340D01*
X07340370Y02748210D01*
X07327240Y02752110D01*
X07315430Y02753080D01*
X07303620Y02751130D01*
X07295750Y02748210D01*
X07287870Y02742370D01*
X07282620Y02735560D01*
X07280000Y02728740D01*
X07280000Y02721920D01*
X07282620Y02715110D01*
X07286560Y02709270D01*
X07291810Y02704400D01*
G01X07295750Y02671420D02*
X07286560Y02665580D01*
X07281310Y02657790D01*
X07280000Y02649030D01*
X07281310Y02641240D01*
X07287870Y02633450D01*
X07295750Y02628580D01*
X07303620Y02627610D01*
X07312810Y02629550D01*
X07319370Y02636370D01*
X07322000Y02643180D01*
X07322000Y02651950D01*
G01X07322000Y02643180D02*
X07325930Y02637340D01*
X07332490Y02632470D01*
X07340370Y02630530D01*
X07348240Y02632470D01*
X07354800Y02637340D01*
X07358740Y02646110D01*
X07357430Y02654870D01*
X07352180Y02663630D01*
G01X07295750Y02592680D02*
X07286560Y02586840D01*
X07281310Y02579050D01*
X07280000Y02570290D01*
X07281310Y02562500D01*
X07287870Y02554710D01*
X07295750Y02549840D01*
X07303620Y02548870D01*
X07312810Y02550810D01*
X07319370Y02557630D01*
X07322000Y02564440D01*
X07322000Y02573210D01*
G01X07322000Y02564440D02*
X07325930Y02558600D01*
X07332490Y02553730D01*
X07340370Y02551790D01*
X07348240Y02553730D01*
X07354800Y02558600D01*
X07358740Y02567370D01*
X07357430Y02576130D01*
X07352180Y02584890D01*
G01X07882180Y01897320D02*
X07886120Y01903160D01*
X07888740Y01909980D01*
X07888740Y01917770D01*
X07884800Y01926530D01*
X07878240Y01933340D01*
X07870370Y01938210D01*
X07857240Y01942110D01*
X07845430Y01943080D01*
X07833620Y01941130D01*
X07825750Y01938210D01*
X07817870Y01932370D01*
X07812620Y01925560D01*
X07810000Y01918740D01*
X07810000Y01911920D01*
X07812620Y01905110D01*
X07816560Y01899270D01*
X07821810Y01894400D01*
G01X07875620Y01858500D02*
X07883490Y01852660D01*
X07887430Y01845840D01*
X07888740Y01838050D01*
X07886120Y01828320D01*
X07879550Y01821500D01*
X07871680Y01819550D01*
X07863800Y01820530D01*
X07857240Y01824420D01*
X07844120Y01843890D01*
X07834930Y01852660D01*
X07821810Y01858500D01*
X07810000Y01860450D01*
X07810000Y01819550D01*
G01X07819180Y01777810D02*
X07812620Y01771000D01*
X07810000Y01763210D01*
X07812620Y01755420D01*
X07820500Y01748600D01*
X07832310Y01743730D01*
X07844120Y01741790D01*
X07858560Y01741790D01*
X07870370Y01743730D01*
X07880870Y01748600D01*
X07886120Y01754440D01*
X07888740Y01761260D01*
X07886120Y01769050D01*
X07880870Y01774890D01*
X07872990Y01778790D01*
X07862490Y01780730D01*
X07853310Y01778790D01*
X07844120Y01773920D01*
X07838870Y01768080D01*
X07837560Y01761260D01*
X07840180Y01753470D01*
X07846740Y01747630D01*
X07858560Y01741790D01*
G01X07502680Y01682180D02*
X07496840Y01686120D01*
X07490020Y01688740D01*
X07482230Y01688740D01*
X07473470Y01684800D01*
X07466660Y01678240D01*
X07461790Y01670370D01*
X07457890Y01657240D01*
X07456920Y01645430D01*
X07458870Y01633620D01*
X07461790Y01625750D01*
X07467630Y01617870D01*
X07474440Y01612620D01*
X07481260Y01610000D01*
X07488080Y01610000D01*
X07494890Y01612620D01*
X07500730Y01616560D01*
X07505600Y01621810D01*
G01X07538580Y01625750D02*
X07544420Y01616560D01*
X07552210Y01611310D01*
X07560970Y01610000D01*
X07568760Y01611310D01*
X07576550Y01617870D01*
X07581420Y01625750D01*
X07582390Y01633620D01*
X07580450Y01642810D01*
X07573630Y01649370D01*
X07566820Y01652000D01*
X07558050Y01652000D01*
G01X07566820Y01652000D02*
X07572660Y01655930D01*
X07577530Y01662490D01*
X07579470Y01670370D01*
X07577530Y01678240D01*
X07572660Y01684800D01*
X07563890Y01688740D01*
X07555130Y01687430D01*
X07546370Y01682180D01*
G01X07620240Y01675620D02*
X07626080Y01683490D01*
X07632900Y01687430D01*
X07640690Y01688740D01*
X07650420Y01686120D01*
X07657240Y01679550D01*
X07659190Y01671680D01*
X07658210Y01663800D01*
X07654320Y01657240D01*
X07634850Y01644120D01*
X07626080Y01634930D01*
X07620240Y01621810D01*
X07618290Y01610000D01*
X07659190Y01610000D01*
G01X07461790Y01470000D02*
X07461790Y01548740D01*
X07486130Y01548740D01*
X07493920Y01544800D01*
X07498790Y01539550D01*
X07500730Y01529050D01*
X07498790Y01518560D01*
X07492940Y01512000D01*
X07486130Y01508060D01*
X07461790Y01508060D01*
G01X07486130Y01508060D02*
X07500730Y01470000D01*
G01X07560000Y01470000D02*
X07560000Y01548740D01*
X07548320Y01532990D01*
G01X07548320Y01470000D02*
X07571680Y01470000D01*
G01X07617320Y01481810D02*
X07623160Y01475250D01*
X07629980Y01471310D01*
X07638740Y01470000D01*
X07647500Y01472620D01*
X07654320Y01477870D01*
X07659190Y01487060D01*
X07660160Y01497560D01*
X07658210Y01508060D01*
X07653340Y01514620D01*
X07646530Y01519870D01*
X07639710Y01521180D01*
X07632900Y01519870D01*
X07624140Y01514620D01*
X07627060Y01548740D01*
X07653340Y01548740D01*
G01X07810000Y01668210D02*
X07888740Y01668210D01*
X07888740Y01643870D01*
X07884800Y01636080D01*
X07879550Y01631210D01*
X07869050Y01629270D01*
X07858560Y01631210D01*
X07852000Y01637060D01*
X07848060Y01643870D01*
X07848060Y01668210D01*
G01X07848060Y01643870D02*
X07810000Y01629270D01*
G01X07810000Y01570000D02*
X07888740Y01570000D01*
X07872990Y01581680D01*
G01X07810000Y01581680D02*
X07810000Y01558320D01*
G01X07810000Y01493210D02*
X07827060Y01491260D01*
X07841490Y01488340D01*
X07854620Y01484440D01*
X07869050Y01479580D01*
X07888740Y01471790D01*
X07888740Y01510730D01*
G01X08022180Y02457320D02*
X08026120Y02463160D01*
X08028740Y02469980D01*
X08028740Y02477770D01*
X08024800Y02486530D01*
X08018240Y02493340D01*
X08010370Y02498210D01*
X07997240Y02502110D01*
X07985430Y02503080D01*
X07973620Y02501130D01*
X07965750Y02498210D01*
X07957870Y02492370D01*
X07952620Y02485560D01*
X07950000Y02478740D01*
X07950000Y02471920D01*
X07952620Y02465110D01*
X07956560Y02459270D01*
X07961810Y02454400D01*
G01X08015620Y02418500D02*
X08023490Y02412660D01*
X08027430Y02405840D01*
X08028740Y02398050D01*
X08026120Y02388320D01*
X08019550Y02381500D01*
X08011680Y02379550D01*
X08003800Y02380530D01*
X07997240Y02384420D01*
X07984120Y02403890D01*
X07974930Y02412660D01*
X07961810Y02418500D01*
X07950000Y02420450D01*
X07950000Y02379550D01*
G01X07982810Y02339760D02*
X07992000Y02332940D01*
X07997240Y02327100D01*
X07999870Y02319310D01*
X07997240Y02312500D01*
X07992000Y02307630D01*
X07984120Y02303730D01*
X07974930Y02302760D01*
X07967060Y02303730D01*
X07959180Y02307630D01*
X07952620Y02313470D01*
X07950000Y02320290D01*
X07952620Y02328080D01*
X07960500Y02334890D01*
X07972310Y02338790D01*
X07985430Y02339760D01*
X08002490Y02337810D01*
X08011680Y02334890D01*
X08020870Y02330020D01*
X08027430Y02323210D01*
X08028740Y02316390D01*
X08026120Y02309580D01*
X08019550Y02304710D01*
G01X07502680Y02392180D02*
X07496840Y02396120D01*
X07490020Y02398740D01*
X07482230Y02398740D01*
X07473470Y02394800D01*
X07466660Y02388240D01*
X07461790Y02380370D01*
X07457890Y02367240D01*
X07456920Y02355430D01*
X07458870Y02343620D01*
X07461790Y02335750D01*
X07467630Y02327870D01*
X07474440Y02322620D01*
X07481260Y02320000D01*
X07488080Y02320000D01*
X07494890Y02322620D01*
X07500730Y02326560D01*
X07505600Y02331810D01*
G01X07538580Y02335750D02*
X07544420Y02326560D01*
X07552210Y02321310D01*
X07560970Y02320000D01*
X07568760Y02321310D01*
X07576550Y02327870D01*
X07581420Y02335750D01*
X07582390Y02343620D01*
X07580450Y02352810D01*
X07573630Y02359370D01*
X07566820Y02362000D01*
X07558050Y02362000D01*
G01X07566820Y02362000D02*
X07572660Y02365930D01*
X07577530Y02372490D01*
X07579470Y02380370D01*
X07577530Y02388240D01*
X07572660Y02394800D01*
X07563890Y02398740D01*
X07555130Y02397430D01*
X07546370Y02392180D01*
G01X07638740Y02398740D02*
X07630950Y02396120D01*
X07625110Y02389550D01*
X07621210Y02381680D01*
X07618290Y02371180D01*
X07617320Y02359370D01*
X07618290Y02347560D01*
X07621210Y02337060D01*
X07625110Y02329180D01*
X07630950Y02322620D01*
X07638740Y02320000D01*
X07646530Y02322620D01*
X07652370Y02329180D01*
X07656270Y02337060D01*
X07659190Y02347560D01*
X07660160Y02359370D01*
X07659190Y02371180D01*
X07656270Y02381680D01*
X07652370Y02389550D01*
X07646530Y02396120D01*
X07638740Y02398740D01*
G01X07810000Y02218210D02*
X07888740Y02218210D01*
X07888740Y02193870D01*
X07884800Y02186080D01*
X07879550Y02181210D01*
X07869050Y02179270D01*
X07858560Y02181210D01*
X07852000Y02187060D01*
X07848060Y02193870D01*
X07848060Y02218210D01*
G01X07848060Y02193870D02*
X07810000Y02179270D01*
G01X07810000Y02120000D02*
X07888740Y02120000D01*
X07872990Y02131680D01*
G01X07810000Y02131680D02*
X07810000Y02108320D01*
G01X07810000Y02041260D02*
X07811310Y02034440D01*
X07815250Y02026660D01*
X07821810Y02021790D01*
X07831000Y02019840D01*
X07840180Y02021790D01*
X07848060Y02027630D01*
X07852000Y02036390D01*
X07852000Y02046130D01*
X07854620Y02051970D01*
X07861180Y02056840D01*
X07870370Y02058790D01*
X07879550Y02055860D01*
X07886120Y02049050D01*
X07888740Y02041260D01*
X07886120Y02033470D01*
X07879550Y02026660D01*
X07870370Y02023730D01*
X07861180Y02025680D01*
X07854620Y02030550D01*
X07852000Y02036390D01*
X07852000Y02046130D01*
X07848060Y02054890D01*
X07840180Y02060730D01*
X07831000Y02062680D01*
X07821810Y02060730D01*
X07815250Y02055860D01*
X07811310Y02048080D01*
X07810000Y02041260D01*
G01X07810000Y02498210D02*
X07888740Y02498210D01*
X07888740Y02473870D01*
X07884800Y02466080D01*
X07879550Y02461210D01*
X07869050Y02459270D01*
X07858560Y02461210D01*
X07852000Y02467060D01*
X07848060Y02473870D01*
X07848060Y02498210D01*
G01X07848060Y02473870D02*
X07810000Y02459270D01*
G01X07810000Y02400000D02*
X07888740Y02400000D01*
X07872990Y02411680D01*
G01X07810000Y02411680D02*
X07810000Y02388320D01*
G01X07819180Y02337810D02*
X07812620Y02331000D01*
X07810000Y02323210D01*
X07812620Y02315420D01*
X07820500Y02308600D01*
X07832310Y02303730D01*
X07844120Y02301790D01*
X07858560Y02301790D01*
X07870370Y02303730D01*
X07880870Y02308600D01*
X07886120Y02314440D01*
X07888740Y02321260D01*
X07886120Y02329050D01*
X07880870Y02334890D01*
X07872990Y02338790D01*
X07862490Y02340730D01*
X07853310Y02338790D01*
X07844120Y02333920D01*
X07838870Y02328080D01*
X07837560Y02321260D01*
X07840180Y02313470D01*
X07846740Y02307630D01*
X07858560Y02301790D01*
G01X07950000Y02218210D02*
X08028740Y02218210D01*
X08028740Y02193870D01*
X08024800Y02186080D01*
X08019550Y02181210D01*
X08009050Y02179270D01*
X07998560Y02181210D01*
X07992000Y02187060D01*
X07988060Y02193870D01*
X07988060Y02218210D01*
G01X07988060Y02193870D02*
X07950000Y02179270D01*
G01X08015620Y02138500D02*
X08023490Y02132660D01*
X08027430Y02125840D01*
X08028740Y02118050D01*
X08026120Y02108320D01*
X08019550Y02101500D01*
X08011680Y02099550D01*
X08003800Y02100530D01*
X07997240Y02104420D01*
X07984120Y02123890D01*
X07974930Y02132660D01*
X07961810Y02138500D01*
X07950000Y02140450D01*
X07950000Y02099550D01*
G01X08028740Y02041260D02*
X08026120Y02049050D01*
X08019550Y02054890D01*
X08011680Y02058790D01*
X08001180Y02061710D01*
X07989370Y02062680D01*
X07977560Y02061710D01*
X07967060Y02058790D01*
X07959180Y02054890D01*
X07952620Y02049050D01*
X07950000Y02041260D01*
X07952620Y02033470D01*
X07959180Y02027630D01*
X07967060Y02023730D01*
X07977560Y02020810D01*
X07989370Y02019840D01*
X08001180Y02020810D01*
X08011680Y02023730D01*
X08019550Y02027630D01*
X08026120Y02033470D01*
X08028740Y02041260D01*
G01X07479210Y01953740D02*
X07479210Y01897310D01*
X07483100Y01885500D01*
X07490890Y01877620D01*
X07500630Y01875000D01*
X07510370Y01877620D01*
X07518160Y01885500D01*
X07522050Y01897310D01*
X07522050Y01953740D01*
G01X07560870Y01907810D02*
X07567690Y01917000D01*
X07573530Y01922240D01*
X07581320Y01924870D01*
X07588130Y01922240D01*
X07593000Y01917000D01*
X07596900Y01909120D01*
X07597870Y01899930D01*
X07596900Y01892060D01*
X07593000Y01884180D01*
X07587160Y01877620D01*
X07580340Y01875000D01*
X07572550Y01877620D01*
X07565740Y01885500D01*
X07561840Y01897310D01*
X07560870Y01910430D01*
X07562820Y01927490D01*
X07565740Y01936680D01*
X07570610Y01945870D01*
X07577420Y01952430D01*
X07584240Y01953740D01*
X07591050Y01951120D01*
X07595920Y01944550D01*
G01X07522680Y02972180D02*
X07516840Y02976120D01*
X07510020Y02978740D01*
X07502230Y02978740D01*
X07493470Y02974800D01*
X07486660Y02968240D01*
X07481790Y02960370D01*
X07477890Y02947240D01*
X07476920Y02935430D01*
X07478870Y02923620D01*
X07481790Y02915750D01*
X07487630Y02907870D01*
X07494440Y02902620D01*
X07501260Y02900000D01*
X07508080Y02900000D01*
X07514890Y02902620D01*
X07520730Y02906560D01*
X07525600Y02911810D01*
G01X07561500Y02965620D02*
X07567340Y02973490D01*
X07574160Y02977430D01*
X07581950Y02978740D01*
X07591680Y02976120D01*
X07598500Y02969550D01*
X07600450Y02961680D01*
X07599470Y02953800D01*
X07595580Y02947240D01*
X07576110Y02934120D01*
X07567340Y02924930D01*
X07561500Y02911810D01*
X07559550Y02900000D01*
X07600450Y02900000D01*
G01X07656790Y02900000D02*
X07658740Y02917060D01*
X07661660Y02931490D01*
X07665560Y02944620D01*
X07670420Y02959050D01*
X07678210Y02978740D01*
X07639270Y02978740D01*
G01X07882180Y02737320D02*
X07886120Y02743160D01*
X07888740Y02749980D01*
X07888740Y02757770D01*
X07884800Y02766530D01*
X07878240Y02773340D01*
X07870370Y02778210D01*
X07857240Y02782110D01*
X07845430Y02783080D01*
X07833620Y02781130D01*
X07825750Y02778210D01*
X07817870Y02772370D01*
X07812620Y02765560D01*
X07810000Y02758740D01*
X07810000Y02751920D01*
X07812620Y02745110D01*
X07816560Y02739270D01*
X07821810Y02734400D01*
G01X07875620Y02698500D02*
X07883490Y02692660D01*
X07887430Y02685840D01*
X07888740Y02678050D01*
X07886120Y02668320D01*
X07879550Y02661500D01*
X07871680Y02659550D01*
X07863800Y02660530D01*
X07857240Y02664420D01*
X07844120Y02683890D01*
X07834930Y02692660D01*
X07821810Y02698500D01*
X07810000Y02700450D01*
X07810000Y02659550D01*
G01X07810000Y02601260D02*
X07811310Y02594440D01*
X07815250Y02586660D01*
X07821810Y02581790D01*
X07831000Y02579840D01*
X07840180Y02581790D01*
X07848060Y02587630D01*
X07852000Y02596390D01*
X07852000Y02606130D01*
X07854620Y02611970D01*
X07861180Y02616840D01*
X07870370Y02618790D01*
X07879550Y02615860D01*
X07886120Y02609050D01*
X07888740Y02601260D01*
X07886120Y02593470D01*
X07879550Y02586660D01*
X07870370Y02583730D01*
X07861180Y02585680D01*
X07854620Y02590550D01*
X07852000Y02596390D01*
X07852000Y02606130D01*
X07848060Y02614890D01*
X07840180Y02620730D01*
X07831000Y02622680D01*
X07821810Y02620730D01*
X07815250Y02615860D01*
X07811310Y02608080D01*
X07810000Y02601260D01*
G01X08042180Y03107320D02*
X08046120Y03113160D01*
X08048740Y03119980D01*
X08048740Y03127770D01*
X08044800Y03136530D01*
X08038240Y03143340D01*
X08030370Y03148210D01*
X08017240Y03152110D01*
X08005430Y03153080D01*
X07993620Y03151130D01*
X07985750Y03148210D01*
X07977870Y03142370D01*
X07972620Y03135560D01*
X07970000Y03128740D01*
X07970000Y03121920D01*
X07972620Y03115110D01*
X07976560Y03109270D01*
X07981810Y03104400D01*
G01X07985750Y03071420D02*
X07976560Y03065580D01*
X07971310Y03057790D01*
X07970000Y03049030D01*
X07971310Y03041240D01*
X07977870Y03033450D01*
X07985750Y03028580D01*
X07993620Y03027610D01*
X08002810Y03029550D01*
X08009370Y03036370D01*
X08012000Y03043180D01*
X08012000Y03051950D01*
G01X08012000Y03043180D02*
X08015930Y03037340D01*
X08022490Y03032470D01*
X08030370Y03030530D01*
X08038240Y03032470D01*
X08044800Y03037340D01*
X08048740Y03046110D01*
X08047430Y03054870D01*
X08042180Y03063630D01*
G01X07970000Y02971260D02*
X08048740Y02971260D01*
X08032990Y02982940D01*
G01X07970000Y02982940D02*
X07970000Y02959580D01*
G01X07494210Y02663740D02*
X07494210Y02607310D01*
X07498100Y02595500D01*
X07505890Y02587620D01*
X07515630Y02585000D01*
X07525370Y02587620D01*
X07533160Y02595500D01*
X07537050Y02607310D01*
X07537050Y02663740D01*
G01X07592420Y02585000D02*
X07594370Y02602060D01*
X07597290Y02616490D01*
X07601190Y02629620D01*
X07606050Y02644050D01*
X07613840Y02663740D01*
X07574900Y02663740D01*
G01X08042180Y03407320D02*
X08046120Y03413160D01*
X08048740Y03419980D01*
X08048740Y03427770D01*
X08044800Y03436530D01*
X08038240Y03443340D01*
X08030370Y03448210D01*
X08017240Y03452110D01*
X08005430Y03453080D01*
X07993620Y03451130D01*
X07985750Y03448210D01*
X07977870Y03442370D01*
X07972620Y03435560D01*
X07970000Y03428740D01*
X07970000Y03421920D01*
X07972620Y03415110D01*
X07976560Y03409270D01*
X07981810Y03404400D01*
G01X07985750Y03371420D02*
X07976560Y03365580D01*
X07971310Y03357790D01*
X07970000Y03349030D01*
X07971310Y03341240D01*
X07977870Y03333450D01*
X07985750Y03328580D01*
X07993620Y03327610D01*
X08002810Y03329550D01*
X08009370Y03336370D01*
X08012000Y03343180D01*
X08012000Y03351950D01*
G01X08012000Y03343180D02*
X08015930Y03337340D01*
X08022490Y03332470D01*
X08030370Y03330530D01*
X08038240Y03332470D01*
X08044800Y03337340D01*
X08048740Y03346110D01*
X08047430Y03354870D01*
X08042180Y03363630D01*
G01X07970000Y03259580D02*
X08048740Y03259580D01*
X07992310Y03295600D01*
X07992310Y03246920D01*
G01X07479210Y03358740D02*
X07479210Y03302310D01*
X07483100Y03290500D01*
X07490890Y03282620D01*
X07500630Y03280000D01*
X07510370Y03282620D01*
X07518160Y03290500D01*
X07522050Y03302310D01*
X07522050Y03358740D01*
G01X07579370Y03280000D02*
X07586190Y03281310D01*
X07593970Y03285250D01*
X07598840Y03291810D01*
X07600790Y03301000D01*
X07598840Y03310180D01*
X07593000Y03318060D01*
X07584240Y03322000D01*
X07574500Y03322000D01*
X07568660Y03324620D01*
X07563790Y03331180D01*
X07561840Y03340370D01*
X07564770Y03349550D01*
X07571580Y03356120D01*
X07579370Y03358740D01*
X07587160Y03356120D01*
X07593970Y03349550D01*
X07596900Y03340370D01*
X07594950Y03331180D01*
X07590080Y03324620D01*
X07584240Y03322000D01*
X07574500Y03322000D01*
X07565740Y03318060D01*
X07559900Y03310180D01*
X07557950Y03301000D01*
X07559900Y03291810D01*
X07564770Y03285250D01*
X07572550Y03281310D01*
X07579370Y03280000D01*
G01X07496160Y07097750D02*
X07501030Y07089870D01*
X07506870Y07084620D01*
X07513680Y07082000D01*
X07521470Y07084620D01*
X07527310Y07089870D01*
X07533160Y07097750D01*
X07535100Y07108250D01*
X07535100Y07160740D01*
G01X07575870Y07147620D02*
X07581710Y07155490D01*
X07588530Y07159430D01*
X07596320Y07160740D01*
X07606050Y07158120D01*
X07612870Y07151550D01*
X07614820Y07143680D01*
X07613840Y07135800D01*
X07609950Y07129240D01*
X07590480Y07116120D01*
X07581710Y07106930D01*
X07575870Y07093810D01*
X07573920Y07082000D01*
X07614820Y07082000D01*
G01X07761790Y07560000D02*
X07761790Y07638740D01*
X07786130Y07638740D01*
X07793920Y07634800D01*
X07798790Y07629550D01*
X07800730Y07619050D01*
X07798790Y07608560D01*
X07792940Y07602000D01*
X07786130Y07598060D01*
X07761790Y07598060D01*
G01X07786130Y07598060D02*
X07800730Y07560000D01*
G01X07838580Y07575750D02*
X07844420Y07566560D01*
X07852210Y07561310D01*
X07860970Y07560000D01*
X07868760Y07561310D01*
X07876550Y07567870D01*
X07881420Y07575750D01*
X07882390Y07583620D01*
X07880450Y07592810D01*
X07873630Y07599370D01*
X07866820Y07602000D01*
X07858050Y07602000D01*
G01X07866820Y07602000D02*
X07872660Y07605930D01*
X07877530Y07612490D01*
X07879470Y07620370D01*
X07877530Y07628240D01*
X07872660Y07634800D01*
X07863890Y07638740D01*
X07855130Y07637430D01*
X07846370Y07632180D01*
G01X07920240Y07625620D02*
X07926080Y07633490D01*
X07932900Y07637430D01*
X07940690Y07638740D01*
X07950420Y07636120D01*
X07957240Y07629550D01*
X07959190Y07621680D01*
X07958210Y07613800D01*
X07954320Y07607240D01*
X07934850Y07594120D01*
X07926080Y07584930D01*
X07920240Y07571810D01*
X07918290Y07560000D01*
X07959190Y07560000D01*
G01X07496160Y08050250D02*
X07501030Y08042370D01*
X07506870Y08037120D01*
X07513680Y08034500D01*
X07521470Y08037120D01*
X07527310Y08042370D01*
X07533160Y08050250D01*
X07535100Y08060750D01*
X07535100Y08113240D01*
G01X07594370Y08034500D02*
X07594370Y08113240D01*
X07582690Y08097490D01*
G01X07582690Y08034500D02*
X07606050Y08034500D01*
G01X08562680Y01682180D02*
X08556840Y01686120D01*
X08550020Y01688740D01*
X08542230Y01688740D01*
X08533470Y01684800D01*
X08526660Y01678240D01*
X08521790Y01670370D01*
X08517890Y01657240D01*
X08516920Y01645430D01*
X08518870Y01633620D01*
X08521790Y01625750D01*
X08527630Y01617870D01*
X08534440Y01612620D01*
X08541260Y01610000D01*
X08548080Y01610000D01*
X08554890Y01612620D01*
X08560730Y01616560D01*
X08565600Y01621810D01*
G01X08631680Y01610000D02*
X08631680Y01688740D01*
X08595660Y01632310D01*
X08644340Y01632310D01*
G01X08698740Y01610000D02*
X08698740Y01688740D01*
X08687060Y01672990D01*
G01X08687060Y01610000D02*
X08710420Y01610000D01*
G01X08521790Y01470000D02*
X08521790Y01548740D01*
X08546130Y01548740D01*
X08553920Y01544800D01*
X08558790Y01539550D01*
X08560730Y01529050D01*
X08558790Y01518560D01*
X08552940Y01512000D01*
X08546130Y01508060D01*
X08521790Y01508060D01*
G01X08546130Y01508060D02*
X08560730Y01470000D01*
G01X08601500Y01535620D02*
X08607340Y01543490D01*
X08614160Y01547430D01*
X08621950Y01548740D01*
X08631680Y01546120D01*
X08638500Y01539550D01*
X08640450Y01531680D01*
X08639470Y01523800D01*
X08635580Y01517240D01*
X08616110Y01504120D01*
X08607340Y01494930D01*
X08601500Y01481810D01*
X08599550Y01470000D01*
X08640450Y01470000D01*
G01X08698740Y01470000D02*
X08698740Y01548740D01*
X08687060Y01532990D01*
G01X08687060Y01470000D02*
X08710420Y01470000D01*
G01X08390000Y01668210D02*
X08468740Y01668210D01*
X08468740Y01643870D01*
X08464800Y01636080D01*
X08459550Y01631210D01*
X08449050Y01629270D01*
X08438560Y01631210D01*
X08432000Y01637060D01*
X08428060Y01643870D01*
X08428060Y01668210D01*
G01X08428060Y01643870D02*
X08390000Y01629270D01*
G01X08455620Y01588500D02*
X08463490Y01582660D01*
X08467430Y01575840D01*
X08468740Y01568050D01*
X08466120Y01558320D01*
X08459550Y01551500D01*
X08451680Y01549550D01*
X08443800Y01550530D01*
X08437240Y01554420D01*
X08424120Y01573890D01*
X08414930Y01582660D01*
X08401810Y01588500D01*
X08390000Y01590450D01*
X08390000Y01549550D01*
G01X08455620Y01509760D02*
X08463490Y01503920D01*
X08467430Y01497100D01*
X08468740Y01489310D01*
X08466120Y01479580D01*
X08459550Y01472760D01*
X08451680Y01470810D01*
X08443800Y01471790D01*
X08437240Y01475680D01*
X08424120Y01495150D01*
X08414930Y01503920D01*
X08401810Y01509760D01*
X08390000Y01511710D01*
X08390000Y01470810D01*
G01X08562680Y02392180D02*
X08556840Y02396120D01*
X08550020Y02398740D01*
X08542230Y02398740D01*
X08533470Y02394800D01*
X08526660Y02388240D01*
X08521790Y02380370D01*
X08517890Y02367240D01*
X08516920Y02355430D01*
X08518870Y02343620D01*
X08521790Y02335750D01*
X08527630Y02327870D01*
X08534440Y02322620D01*
X08541260Y02320000D01*
X08548080Y02320000D01*
X08554890Y02322620D01*
X08560730Y02326560D01*
X08565600Y02331810D01*
G01X08631680Y02320000D02*
X08631680Y02398740D01*
X08595660Y02342310D01*
X08644340Y02342310D01*
G01X08698740Y02398740D02*
X08690950Y02396120D01*
X08685110Y02389550D01*
X08681210Y02381680D01*
X08678290Y02371180D01*
X08677320Y02359370D01*
X08678290Y02347560D01*
X08681210Y02337060D01*
X08685110Y02329180D01*
X08690950Y02322620D01*
X08698740Y02320000D01*
X08706530Y02322620D01*
X08712370Y02329180D01*
X08716270Y02337060D01*
X08719190Y02347560D01*
X08720160Y02359370D01*
X08719190Y02371180D01*
X08716270Y02381680D01*
X08712370Y02389550D01*
X08706530Y02396120D01*
X08698740Y02398740D01*
G01X08564210Y01953740D02*
X08564210Y01897310D01*
X08568100Y01885500D01*
X08575890Y01877620D01*
X08585630Y01875000D01*
X08595370Y01877620D01*
X08603160Y01885500D01*
X08607050Y01897310D01*
X08607050Y01953740D01*
G01X08647820Y01884180D02*
X08654630Y01877620D01*
X08662420Y01875000D01*
X08670210Y01877620D01*
X08677030Y01885500D01*
X08681900Y01897310D01*
X08683840Y01909120D01*
X08683840Y01923560D01*
X08681900Y01935370D01*
X08677030Y01945870D01*
X08671190Y01951120D01*
X08664370Y01953740D01*
X08656580Y01951120D01*
X08650740Y01945870D01*
X08646840Y01937990D01*
X08644900Y01927490D01*
X08646840Y01918310D01*
X08651710Y01909120D01*
X08657550Y01903870D01*
X08664370Y01902560D01*
X08672160Y01905180D01*
X08678000Y01911740D01*
X08683840Y01923560D01*
G01X08582680Y02972180D02*
X08576840Y02976120D01*
X08570020Y02978740D01*
X08562230Y02978740D01*
X08553470Y02974800D01*
X08546660Y02968240D01*
X08541790Y02960370D01*
X08537890Y02947240D01*
X08536920Y02935430D01*
X08538870Y02923620D01*
X08541790Y02915750D01*
X08547630Y02907870D01*
X08554440Y02902620D01*
X08561260Y02900000D01*
X08568080Y02900000D01*
X08574890Y02902620D01*
X08580730Y02906560D01*
X08585600Y02911810D01*
G01X08618580Y02915750D02*
X08624420Y02906560D01*
X08632210Y02901310D01*
X08640970Y02900000D01*
X08648760Y02901310D01*
X08656550Y02907870D01*
X08661420Y02915750D01*
X08662390Y02923620D01*
X08660450Y02932810D01*
X08653630Y02939370D01*
X08646820Y02942000D01*
X08638050Y02942000D01*
G01X08646820Y02942000D02*
X08652660Y02945930D01*
X08657530Y02952490D01*
X08659470Y02960370D01*
X08657530Y02968240D01*
X08652660Y02974800D01*
X08643890Y02978740D01*
X08635130Y02977430D01*
X08626370Y02972180D01*
G01X08700240Y02932810D02*
X08707060Y02942000D01*
X08712900Y02947240D01*
X08720690Y02949870D01*
X08727500Y02947240D01*
X08732370Y02942000D01*
X08736270Y02934120D01*
X08737240Y02924930D01*
X08736270Y02917060D01*
X08732370Y02909180D01*
X08726530Y02902620D01*
X08719710Y02900000D01*
X08711920Y02902620D01*
X08705110Y02910500D01*
X08701210Y02922310D01*
X08700240Y02935430D01*
X08702190Y02952490D01*
X08705110Y02961680D01*
X08709980Y02970870D01*
X08716790Y02977430D01*
X08723610Y02978740D01*
X08730420Y02976120D01*
X08735290Y02969550D01*
G01X08412180Y02707320D02*
X08416120Y02713160D01*
X08418740Y02719980D01*
X08418740Y02727770D01*
X08414800Y02736530D01*
X08408240Y02743340D01*
X08400370Y02748210D01*
X08387240Y02752110D01*
X08375430Y02753080D01*
X08363620Y02751130D01*
X08355750Y02748210D01*
X08347870Y02742370D01*
X08342620Y02735560D01*
X08340000Y02728740D01*
X08340000Y02721920D01*
X08342620Y02715110D01*
X08346560Y02709270D01*
X08351810Y02704400D01*
G01X08340000Y02638320D02*
X08418740Y02638320D01*
X08362310Y02674340D01*
X08362310Y02625660D01*
G01X08355750Y02592680D02*
X08346560Y02586840D01*
X08341310Y02579050D01*
X08340000Y02570290D01*
X08341310Y02562500D01*
X08347870Y02554710D01*
X08355750Y02549840D01*
X08363620Y02548870D01*
X08372810Y02550810D01*
X08379370Y02557630D01*
X08382000Y02564440D01*
X08382000Y02573210D01*
G01X08382000Y02564440D02*
X08385930Y02558600D01*
X08392490Y02553730D01*
X08400370Y02551790D01*
X08408240Y02553730D01*
X08414800Y02558600D01*
X08418740Y02567370D01*
X08417430Y02576130D01*
X08412180Y02584890D01*
G01X08509840Y02678740D02*
X08509840Y02622310D01*
X08513730Y02610500D01*
X08521520Y02602620D01*
X08531260Y02600000D01*
X08541000Y02602620D01*
X08548790Y02610500D01*
X08552680Y02622310D01*
X08552680Y02678740D01*
G01X08610000Y02600000D02*
X08610000Y02678740D01*
X08598320Y02662990D01*
G01X08598320Y02600000D02*
X08621680Y02600000D01*
G01X08688740Y02678740D02*
X08680950Y02676120D01*
X08675110Y02669550D01*
X08671210Y02661680D01*
X08668290Y02651180D01*
X08667320Y02639370D01*
X08668290Y02627560D01*
X08671210Y02617060D01*
X08675110Y02609180D01*
X08680950Y02602620D01*
X08688740Y02600000D01*
X08696530Y02602620D01*
X08702370Y02609180D01*
X08706270Y02617060D01*
X08709190Y02627560D01*
X08710160Y02639370D01*
X08709190Y02651180D01*
X08706270Y02661680D01*
X08702370Y02669550D01*
X08696530Y02676120D01*
X08688740Y02678740D01*
G01X08499840Y03358740D02*
X08499840Y03302310D01*
X08503730Y03290500D01*
X08511520Y03282620D01*
X08521260Y03280000D01*
X08531000Y03282620D01*
X08538790Y03290500D01*
X08542680Y03302310D01*
X08542680Y03358740D01*
G01X08600000Y03280000D02*
X08600000Y03358740D01*
X08588320Y03342990D01*
G01X08588320Y03280000D02*
X08611680Y03280000D01*
G01X08678740Y03280000D02*
X08678740Y03358740D01*
X08667060Y03342990D01*
G01X08667060Y03280000D02*
X08690420Y03280000D01*
G01X09172700Y04445000D02*
G03X09172700Y04445000I-00536700J0D01*
G01X08561160Y04416750D02*
X08566030Y04408870D01*
X08571870Y04403620D01*
X08578680Y04401000D01*
X08586470Y04403620D01*
X08592310Y04408870D01*
X08598160Y04416750D01*
X08600100Y04427250D01*
X08600100Y04479740D01*
G01X08659370Y04401000D02*
X08666190Y04402310D01*
X08673970Y04406250D01*
X08678840Y04412810D01*
X08680790Y04422000D01*
X08678840Y04431180D01*
X08673000Y04439060D01*
X08664240Y04443000D01*
X08654500Y04443000D01*
X08648660Y04445620D01*
X08643790Y04452180D01*
X08641840Y04461370D01*
X08644770Y04470550D01*
X08651580Y04477120D01*
X08659370Y04479740D01*
X08667160Y04477120D01*
X08673970Y04470550D01*
X08676900Y04461370D01*
X08674950Y04452180D01*
X08670080Y04445620D01*
X08664240Y04443000D01*
X08654500Y04443000D01*
X08645740Y04439060D01*
X08639900Y04431180D01*
X08637950Y04422000D01*
X08639900Y04412810D01*
X08644770Y04406250D01*
X08652550Y04402310D01*
X08659370Y04401000D01*
G01X08553160Y05566750D02*
X08558030Y05558870D01*
X08563870Y05553620D01*
X08570680Y05551000D01*
X08578470Y05553620D01*
X08584310Y05558870D01*
X08590160Y05566750D01*
X08592100Y05577250D01*
X08592100Y05629740D01*
G01X08629950Y05566750D02*
X08635790Y05557560D01*
X08643580Y05552310D01*
X08652340Y05551000D01*
X08660130Y05552310D01*
X08667920Y05558870D01*
X08672790Y05566750D01*
X08673760Y05574620D01*
X08671820Y05583810D01*
X08665000Y05590370D01*
X08658190Y05593000D01*
X08649420Y05593000D01*
G01X08658190Y05593000D02*
X08664030Y05596930D01*
X08668900Y05603490D01*
X08670840Y05611370D01*
X08668900Y05619240D01*
X08664030Y05625800D01*
X08655260Y05629740D01*
X08646500Y05628430D01*
X08637740Y05623180D01*
G01X09172700Y05588000D02*
G03X09172700Y05588000I-00536700J0D01*
G01X08942180Y01897320D02*
X08946120Y01903160D01*
X08948740Y01909980D01*
X08948740Y01917770D01*
X08944800Y01926530D01*
X08938240Y01933340D01*
X08930370Y01938210D01*
X08917240Y01942110D01*
X08905430Y01943080D01*
X08893620Y01941130D01*
X08885750Y01938210D01*
X08877870Y01932370D01*
X08872620Y01925560D01*
X08870000Y01918740D01*
X08870000Y01911920D01*
X08872620Y01905110D01*
X08876560Y01899270D01*
X08881810Y01894400D01*
G01X08885750Y01861420D02*
X08876560Y01855580D01*
X08871310Y01847790D01*
X08870000Y01839030D01*
X08871310Y01831240D01*
X08877870Y01823450D01*
X08885750Y01818580D01*
X08893620Y01817610D01*
X08902810Y01819550D01*
X08909370Y01826370D01*
X08912000Y01833180D01*
X08912000Y01841950D01*
G01X08912000Y01833180D02*
X08915930Y01827340D01*
X08922490Y01822470D01*
X08930370Y01820530D01*
X08938240Y01822470D01*
X08944800Y01827340D01*
X08948740Y01836110D01*
X08947430Y01844870D01*
X08942180Y01853630D01*
G01X08870000Y01761260D02*
X08871310Y01754440D01*
X08875250Y01746660D01*
X08881810Y01741790D01*
X08891000Y01739840D01*
X08900180Y01741790D01*
X08908060Y01747630D01*
X08912000Y01756390D01*
X08912000Y01766130D01*
X08914620Y01771970D01*
X08921180Y01776840D01*
X08930370Y01778790D01*
X08939550Y01775860D01*
X08946120Y01769050D01*
X08948740Y01761260D01*
X08946120Y01753470D01*
X08939550Y01746660D01*
X08930370Y01743730D01*
X08921180Y01745680D01*
X08914620Y01750550D01*
X08912000Y01756390D01*
X08912000Y01766130D01*
X08908060Y01774890D01*
X08900180Y01780730D01*
X08891000Y01782680D01*
X08881810Y01780730D01*
X08875250Y01775860D01*
X08871310Y01768080D01*
X08870000Y01761260D01*
G01X08870000Y01668210D02*
X08948740Y01668210D01*
X08948740Y01643870D01*
X08944800Y01636080D01*
X08939550Y01631210D01*
X08929050Y01629270D01*
X08918560Y01631210D01*
X08912000Y01637060D01*
X08908060Y01643870D01*
X08908060Y01668210D01*
G01X08908060Y01643870D02*
X08870000Y01629270D01*
G01X08935620Y01588500D02*
X08943490Y01582660D01*
X08947430Y01575840D01*
X08948740Y01568050D01*
X08946120Y01558320D01*
X08939550Y01551500D01*
X08931680Y01549550D01*
X08923800Y01550530D01*
X08917240Y01554420D01*
X08904120Y01573890D01*
X08894930Y01582660D01*
X08881810Y01588500D01*
X08870000Y01590450D01*
X08870000Y01549550D01*
G01X08885750Y01512680D02*
X08876560Y01506840D01*
X08871310Y01499050D01*
X08870000Y01490290D01*
X08871310Y01482500D01*
X08877870Y01474710D01*
X08885750Y01469840D01*
X08893620Y01468870D01*
X08902810Y01470810D01*
X08909370Y01477630D01*
X08912000Y01484440D01*
X08912000Y01493210D01*
G01X08912000Y01484440D02*
X08915930Y01478600D01*
X08922490Y01473730D01*
X08930370Y01471790D01*
X08938240Y01473730D01*
X08944800Y01478600D01*
X08948740Y01487370D01*
X08947430Y01496130D01*
X08942180Y01504890D01*
G01X09082180Y02457320D02*
X09086120Y02463160D01*
X09088740Y02469980D01*
X09088740Y02477770D01*
X09084800Y02486530D01*
X09078240Y02493340D01*
X09070370Y02498210D01*
X09057240Y02502110D01*
X09045430Y02503080D01*
X09033620Y02501130D01*
X09025750Y02498210D01*
X09017870Y02492370D01*
X09012620Y02485560D01*
X09010000Y02478740D01*
X09010000Y02471920D01*
X09012620Y02465110D01*
X09016560Y02459270D01*
X09021810Y02454400D01*
G01X09025750Y02421420D02*
X09016560Y02415580D01*
X09011310Y02407790D01*
X09010000Y02399030D01*
X09011310Y02391240D01*
X09017870Y02383450D01*
X09025750Y02378580D01*
X09033620Y02377610D01*
X09042810Y02379550D01*
X09049370Y02386370D01*
X09052000Y02393180D01*
X09052000Y02401950D01*
G01X09052000Y02393180D02*
X09055930Y02387340D01*
X09062490Y02382470D01*
X09070370Y02380530D01*
X09078240Y02382470D01*
X09084800Y02387340D01*
X09088740Y02396110D01*
X09087430Y02404870D01*
X09082180Y02413630D01*
G01X09021810Y02342680D02*
X09015250Y02336840D01*
X09011310Y02330020D01*
X09010000Y02321260D01*
X09012620Y02312500D01*
X09017870Y02305680D01*
X09027060Y02300810D01*
X09037560Y02299840D01*
X09048060Y02301790D01*
X09054620Y02306660D01*
X09059870Y02313470D01*
X09061180Y02320290D01*
X09059870Y02327100D01*
X09054620Y02335860D01*
X09088740Y02332940D01*
X09088740Y02306660D01*
G01X08870000Y02218210D02*
X08948740Y02218210D01*
X08948740Y02193870D01*
X08944800Y02186080D01*
X08939550Y02181210D01*
X08929050Y02179270D01*
X08918560Y02181210D01*
X08912000Y02187060D01*
X08908060Y02193870D01*
X08908060Y02218210D01*
G01X08908060Y02193870D02*
X08870000Y02179270D01*
G01X08935620Y02138500D02*
X08943490Y02132660D01*
X08947430Y02125840D01*
X08948740Y02118050D01*
X08946120Y02108320D01*
X08939550Y02101500D01*
X08931680Y02099550D01*
X08923800Y02100530D01*
X08917240Y02104420D01*
X08904120Y02123890D01*
X08894930Y02132660D01*
X08881810Y02138500D01*
X08870000Y02140450D01*
X08870000Y02099550D01*
G01X08870000Y02029580D02*
X08948740Y02029580D01*
X08892310Y02065600D01*
X08892310Y02016920D01*
G01X08870000Y02498210D02*
X08948740Y02498210D01*
X08948740Y02473870D01*
X08944800Y02466080D01*
X08939550Y02461210D01*
X08929050Y02459270D01*
X08918560Y02461210D01*
X08912000Y02467060D01*
X08908060Y02473870D01*
X08908060Y02498210D01*
G01X08908060Y02473870D02*
X08870000Y02459270D01*
G01X08935620Y02418500D02*
X08943490Y02412660D01*
X08947430Y02405840D01*
X08948740Y02398050D01*
X08946120Y02388320D01*
X08939550Y02381500D01*
X08931680Y02379550D01*
X08923800Y02380530D01*
X08917240Y02384420D01*
X08904120Y02403890D01*
X08894930Y02412660D01*
X08881810Y02418500D01*
X08870000Y02420450D01*
X08870000Y02379550D01*
G01X08881810Y02342680D02*
X08875250Y02336840D01*
X08871310Y02330020D01*
X08870000Y02321260D01*
X08872620Y02312500D01*
X08877870Y02305680D01*
X08887060Y02300810D01*
X08897560Y02299840D01*
X08908060Y02301790D01*
X08914620Y02306660D01*
X08919870Y02313470D01*
X08921180Y02320290D01*
X08919870Y02327100D01*
X08914620Y02335860D01*
X08948740Y02332940D01*
X08948740Y02306660D01*
G01X09010000Y02218210D02*
X09088740Y02218210D01*
X09088740Y02193870D01*
X09084800Y02186080D01*
X09079550Y02181210D01*
X09069050Y02179270D01*
X09058560Y02181210D01*
X09052000Y02187060D01*
X09048060Y02193870D01*
X09048060Y02218210D01*
G01X09048060Y02193870D02*
X09010000Y02179270D01*
G01X09075620Y02138500D02*
X09083490Y02132660D01*
X09087430Y02125840D01*
X09088740Y02118050D01*
X09086120Y02108320D01*
X09079550Y02101500D01*
X09071680Y02099550D01*
X09063800Y02100530D01*
X09057240Y02104420D01*
X09044120Y02123890D01*
X09034930Y02132660D01*
X09021810Y02138500D01*
X09010000Y02140450D01*
X09010000Y02099550D01*
G01X09042810Y02059760D02*
X09052000Y02052940D01*
X09057240Y02047100D01*
X09059870Y02039310D01*
X09057240Y02032500D01*
X09052000Y02027630D01*
X09044120Y02023730D01*
X09034930Y02022760D01*
X09027060Y02023730D01*
X09019180Y02027630D01*
X09012620Y02033470D01*
X09010000Y02040290D01*
X09012620Y02048080D01*
X09020500Y02054890D01*
X09032310Y02058790D01*
X09045430Y02059760D01*
X09062490Y02057810D01*
X09071680Y02054890D01*
X09080870Y02050020D01*
X09087430Y02043210D01*
X09088740Y02036390D01*
X09086120Y02029580D01*
X09079550Y02024710D01*
G01X08942180Y02737320D02*
X08946120Y02743160D01*
X08948740Y02749980D01*
X08948740Y02757770D01*
X08944800Y02766530D01*
X08938240Y02773340D01*
X08930370Y02778210D01*
X08917240Y02782110D01*
X08905430Y02783080D01*
X08893620Y02781130D01*
X08885750Y02778210D01*
X08877870Y02772370D01*
X08872620Y02765560D01*
X08870000Y02758740D01*
X08870000Y02751920D01*
X08872620Y02745110D01*
X08876560Y02739270D01*
X08881810Y02734400D01*
G01X08885750Y02701420D02*
X08876560Y02695580D01*
X08871310Y02687790D01*
X08870000Y02679030D01*
X08871310Y02671240D01*
X08877870Y02663450D01*
X08885750Y02658580D01*
X08893620Y02657610D01*
X08902810Y02659550D01*
X08909370Y02666370D01*
X08912000Y02673180D01*
X08912000Y02681950D01*
G01X08912000Y02673180D02*
X08915930Y02667340D01*
X08922490Y02662470D01*
X08930370Y02660530D01*
X08938240Y02662470D01*
X08944800Y02667340D01*
X08948740Y02676110D01*
X08947430Y02684870D01*
X08942180Y02693630D01*
G01X08870000Y02603210D02*
X08887060Y02601260D01*
X08901490Y02598340D01*
X08914620Y02594440D01*
X08929050Y02589580D01*
X08948740Y02581790D01*
X08948740Y02620730D01*
G01X09102180Y03107320D02*
X09106120Y03113160D01*
X09108740Y03119980D01*
X09108740Y03127770D01*
X09104800Y03136530D01*
X09098240Y03143340D01*
X09090370Y03148210D01*
X09077240Y03152110D01*
X09065430Y03153080D01*
X09053620Y03151130D01*
X09045750Y03148210D01*
X09037870Y03142370D01*
X09032620Y03135560D01*
X09030000Y03128740D01*
X09030000Y03121920D01*
X09032620Y03115110D01*
X09036560Y03109270D01*
X09041810Y03104400D01*
G01X09045750Y03071420D02*
X09036560Y03065580D01*
X09031310Y03057790D01*
X09030000Y03049030D01*
X09031310Y03041240D01*
X09037870Y03033450D01*
X09045750Y03028580D01*
X09053620Y03027610D01*
X09062810Y03029550D01*
X09069370Y03036370D01*
X09072000Y03043180D01*
X09072000Y03051950D01*
G01X09072000Y03043180D02*
X09075930Y03037340D01*
X09082490Y03032470D01*
X09090370Y03030530D01*
X09098240Y03032470D01*
X09104800Y03037340D01*
X09108740Y03046110D01*
X09107430Y03054870D01*
X09102180Y03063630D01*
G01X09039180Y02987810D02*
X09032620Y02981000D01*
X09030000Y02973210D01*
X09032620Y02965420D01*
X09040500Y02958600D01*
X09052310Y02953730D01*
X09064120Y02951790D01*
X09078560Y02951790D01*
X09090370Y02953730D01*
X09100870Y02958600D01*
X09106120Y02964440D01*
X09108740Y02971260D01*
X09106120Y02979050D01*
X09100870Y02984890D01*
X09092990Y02988790D01*
X09082490Y02990730D01*
X09073310Y02988790D01*
X09064120Y02983920D01*
X09058870Y02978080D01*
X09057560Y02971260D01*
X09060180Y02963470D01*
X09066740Y02957630D01*
X09078560Y02951790D01*
G01X09102180Y03407320D02*
X09106120Y03413160D01*
X09108740Y03419980D01*
X09108740Y03427770D01*
X09104800Y03436530D01*
X09098240Y03443340D01*
X09090370Y03448210D01*
X09077240Y03452110D01*
X09065430Y03453080D01*
X09053620Y03451130D01*
X09045750Y03448210D01*
X09037870Y03442370D01*
X09032620Y03435560D01*
X09030000Y03428740D01*
X09030000Y03421920D01*
X09032620Y03415110D01*
X09036560Y03409270D01*
X09041810Y03404400D01*
G01X09030000Y03338320D02*
X09108740Y03338320D01*
X09052310Y03374340D01*
X09052310Y03325660D01*
G01X09095620Y03289760D02*
X09103490Y03283920D01*
X09107430Y03277100D01*
X09108740Y03269310D01*
X09106120Y03259580D01*
X09099550Y03252760D01*
X09091680Y03250810D01*
X09083800Y03251790D01*
X09077240Y03255680D01*
X09064120Y03275150D01*
X09054930Y03283920D01*
X09041810Y03289760D01*
X09030000Y03291710D01*
X09030000Y03250810D01*
G01X08845000Y06919500D02*
X08845000Y07304500D01*
G01X08923000Y06987000D02*
X08845000Y06987000D01*
G01X08923000Y07939500D02*
X08845000Y07939500D01*
G01X08845000Y07872000D02*
X08845000Y08257000D01*
G01X09540330Y00734670D02*
X10034670Y00240330D01*
G01X09565330Y00759670D02*
X10059670Y00265330D01*
G01X09781000Y00919500D02*
X09781000Y00997500D01*
G01X09713500Y00997500D02*
X10098500Y00997500D01*
G01X09713500Y03574500D02*
X09713500Y00997500D01*
G01X09781000Y00997500D02*
X09781000Y00919500D01*
X09656000Y00919500D01*
X09656000Y03652500D01*
X09781000Y03652500D01*
X09781000Y03574500D01*
G01X09891750Y02385710D02*
X09883870Y02380840D01*
X09878620Y02375000D01*
X09876000Y02368190D01*
X09878620Y02360400D01*
X09883870Y02354560D01*
X09891750Y02348710D01*
X09902250Y02346770D01*
X09954740Y02346770D01*
G01X09941620Y02306000D02*
X09949490Y02300160D01*
X09953430Y02293340D01*
X09954740Y02285550D01*
X09952120Y02275820D01*
X09945550Y02269000D01*
X09937680Y02267050D01*
X09929800Y02268030D01*
X09923240Y02271920D01*
X09910120Y02291390D01*
X09900930Y02300160D01*
X09887810Y02306000D01*
X09876000Y02307950D01*
X09876000Y02267050D01*
G01X09885180Y02225310D02*
X09878620Y02218500D01*
X09876000Y02210710D01*
X09878620Y02202920D01*
X09886500Y02196100D01*
X09898310Y02191230D01*
X09910120Y02189290D01*
X09924560Y02189290D01*
X09936370Y02191230D01*
X09946870Y02196100D01*
X09952120Y02201940D01*
X09954740Y02208760D01*
X09952120Y02216550D01*
X09946870Y02222390D01*
X09938990Y02226290D01*
X09928490Y02228230D01*
X09919310Y02226290D01*
X09910120Y02221420D01*
X09904870Y02215580D01*
X09903560Y02208760D01*
X09906180Y02200970D01*
X09912740Y02195130D01*
X09924560Y02189290D01*
G01X09311160Y03090000D02*
X09311160Y03168740D01*
X09335500Y03168740D01*
X09343290Y03164800D01*
X09348160Y03159550D01*
X09350100Y03149050D01*
X09348160Y03138560D01*
X09342310Y03132000D01*
X09335500Y03128060D01*
X09311160Y03128060D01*
G01X09335500Y03128060D02*
X09350100Y03090000D01*
G01X09387950Y03105750D02*
X09393790Y03096560D01*
X09401580Y03091310D01*
X09410340Y03090000D01*
X09418130Y03091310D01*
X09425920Y03097870D01*
X09430790Y03105750D01*
X09431760Y03113620D01*
X09429820Y03122810D01*
X09423000Y03129370D01*
X09416190Y03132000D01*
X09407420Y03132000D01*
G01X09416190Y03132000D02*
X09422030Y03135930D01*
X09426900Y03142490D01*
X09428840Y03150370D01*
X09426900Y03158240D01*
X09422030Y03164800D01*
X09413260Y03168740D01*
X09404500Y03167430D01*
X09395740Y03162180D01*
G01X10098500Y03574500D02*
X09713500Y03574500D01*
G01X09822000Y04158500D02*
X09332000Y04158500D01*
X09332000Y04858500D01*
X09822000Y04858500D01*
X09822000Y04758500D01*
X10612000Y04758500D01*
X10642000Y04728500D01*
X10642000Y04288500D01*
X10612000Y04258500D01*
X09822000Y04258500D01*
X09822000Y04158500D01*
G01X09592660Y04462750D02*
X09597530Y04454870D01*
X09603370Y04449620D01*
X09610180Y04447000D01*
X09617970Y04449620D01*
X09623810Y04454870D01*
X09629660Y04462750D01*
X09631600Y04473250D01*
X09631600Y04525740D01*
G01X09674320Y04456180D02*
X09681130Y04449620D01*
X09688920Y04447000D01*
X09696710Y04449620D01*
X09703530Y04457500D01*
X09708400Y04469310D01*
X09710340Y04481120D01*
X09710340Y04495560D01*
X09708400Y04507370D01*
X09703530Y04517870D01*
X09697690Y04523120D01*
X09690870Y04525740D01*
X09683080Y04523120D01*
X09677240Y04517870D01*
X09673340Y04509990D01*
X09671400Y04499490D01*
X09673340Y04490310D01*
X09678210Y04481120D01*
X09684050Y04475870D01*
X09690870Y04474560D01*
X09698660Y04477180D01*
X09704500Y04483740D01*
X09710340Y04495560D01*
G01X09574660Y05642750D02*
X09579530Y05634870D01*
X09585370Y05629620D01*
X09592180Y05627000D01*
X09599970Y05629620D01*
X09605810Y05634870D01*
X09611660Y05642750D01*
X09613600Y05653250D01*
X09613600Y05705740D01*
G01X09684550Y05627000D02*
X09684550Y05705740D01*
X09648530Y05649310D01*
X09697210Y05649310D01*
G01X09822000Y05301500D02*
X09332000Y05301500D01*
X09332000Y06001500D01*
X09822000Y06001500D01*
X09822000Y05901500D01*
X10612000Y05901500D01*
X10642000Y05871500D01*
X10642000Y05431500D01*
X10612000Y05401500D01*
X09822000Y05401500D01*
X09822000Y05301500D01*
G01X09540330Y08234670D02*
X10034670Y07740330D01*
G01X09565330Y08259670D02*
X10059670Y07765330D01*
G01X10031000Y00998500D02*
X10031000Y00919500D01*
X10156000Y00919500D01*
X10156000Y03652500D01*
X10031000Y03652500D01*
X10031000Y03574500D01*
G01X10098500Y00997500D02*
X10098500Y03574500D01*
G54D11*
G01X04581700Y05527000D02*
G03X04581700Y05527000I-00020000J0D01*
G54D12*
G01X04777500Y05582500D02*
X04777500Y04277500D01*
X04827500Y04227500D01*
X06132500Y04227500D01*
X06182500Y04277500D01*
X06182500Y05582500D01*
X06132500Y05632500D01*
X04827500Y05632500D01*
X04777500Y05582500D01*
G54D13*
G01X00850000Y00500000D02*
G03X00850000Y00500000I-00350000J0D01*
G01X00850000Y08000000D02*
G03X00850000Y08000000I-00350000J0D01*
G01X01465000Y01895000D02*
X01215000Y01895000D01*
X01215000Y01785000D01*
X01465000Y01785000D01*
X01465000Y01895000D01*
G01X01265000Y05345000D02*
X01055000Y05345000D01*
X01055000Y05215000D01*
X01265000Y05215000D01*
X01265000Y05345000D01*
G01X01545000Y05855000D02*
X01795000Y05855000D01*
X01795000Y05965000D01*
X01545000Y05965000D01*
X01545000Y05855000D01*
G01X01271000Y06320000D02*
G03X01271000Y06320000I-00040000J0D01*
G01X01316000Y06320000D02*
G03X01316000Y06320000I-00085000J0D01*
G01X01440500Y07129500D02*
X01440500Y06879500D01*
X01550500Y06879500D01*
X01550500Y07129500D01*
X01440500Y07129500D01*
G01X01440500Y06621500D02*
X01440500Y06371500D01*
X01550500Y06371500D01*
X01550500Y06621500D01*
X01440500Y06621500D01*
G01X01271000Y07082000D02*
G03X01271000Y07082000I-00040000J0D01*
G01X01316000Y07082000D02*
G03X01316000Y07082000I-00085000J0D01*
G01X01271000Y07844000D02*
G03X01271000Y07844000I-00040000J0D01*
G01X01316000Y07844000D02*
G03X01316000Y07844000I-00085000J0D01*
G01X02235000Y04715000D02*
X01985000Y04715000D01*
X01985000Y04605000D01*
X02235000Y04605000D01*
X02235000Y04715000D01*
G01X01845000Y05575000D02*
X01595000Y05575000D01*
X01595000Y05465000D01*
X01845000Y05465000D01*
X01845000Y05575000D01*
G01X01845000Y05295000D02*
X01595000Y05295000D01*
X01595000Y05185000D01*
X01845000Y05185000D01*
X01845000Y05295000D01*
G01X01845000Y05435000D02*
X01595000Y05435000D01*
X01595000Y05325000D01*
X01845000Y05325000D01*
X01845000Y05435000D01*
G01X02405000Y05965000D02*
X02155000Y05965000D01*
X02155000Y05855000D01*
X02405000Y05855000D01*
X02405000Y05965000D01*
G01X02095000Y05965000D02*
X01845000Y05965000D01*
X01845000Y05855000D01*
X02095000Y05855000D01*
X02095000Y05965000D01*
G01X02012000Y07129500D02*
X02012000Y06879500D01*
X02122000Y06879500D01*
X02122000Y07129500D01*
X02012000Y07129500D01*
G01X02012000Y06621500D02*
X02012000Y06371500D01*
X02122000Y06371500D01*
X02122000Y06621500D01*
X02012000Y06621500D01*
G01X01801500Y06916500D02*
X01761500Y06916500D01*
G01X01801500Y06951500D02*
X01801500Y06891500D01*
X01761500Y06891500D01*
X01761500Y06951500D01*
G01X01801500Y06408500D02*
X01761500Y06408500D01*
G01X01801500Y06443500D02*
X01801500Y06383500D01*
X01761500Y06383500D01*
X01761500Y06443500D01*
G01X01706500Y06608500D02*
X01666500Y06608500D01*
G01X01706500Y06573500D02*
X01706500Y06633500D01*
X01666500Y06633500D01*
X01666500Y06573500D01*
G01X01896500Y06608500D02*
X01856500Y06608500D01*
G01X01896500Y06573500D02*
X01896500Y06633500D01*
X01856500Y06633500D01*
X01856500Y06573500D01*
G01X01706500Y07116500D02*
X01666500Y07116500D01*
G01X01706500Y07081500D02*
X01706500Y07141500D01*
X01666500Y07141500D01*
X01666500Y07081500D01*
G01X01896500Y07116500D02*
X01856500Y07116500D01*
G01X01896500Y07081500D02*
X01896500Y07141500D01*
X01856500Y07141500D01*
X01856500Y07081500D01*
G01X02605000Y02415000D02*
X02605000Y02165000D01*
X02715000Y02165000D01*
X02715000Y02415000D01*
X02605000Y02415000D01*
G01X02845000Y04765000D02*
X02845000Y05015000D01*
X02735000Y05015000D01*
X02735000Y04765000D01*
X02845000Y04765000D01*
G01X02830000Y04620000D02*
G03X02830000Y04620000I-00040000J0D01*
G01X02875000Y04620000D02*
G03X02875000Y04620000I-00085000J0D01*
G01X02735000Y05625000D02*
X02735000Y05415000D01*
X02865000Y05415000D01*
X02865000Y05625000D01*
X02735000Y05625000D01*
G01X02985000Y05200000D02*
G03X02985000Y05200000I-00085000J0D01*
G01X02637000Y06360000D02*
G03X02637000Y06360000I-00085000J0D01*
G01X02592000Y06360000D02*
G03X02592000Y06360000I-00040000J0D01*
G01X02592000Y07122000D02*
G03X02592000Y07122000I-00040000J0D01*
G01X02637000Y07122000D02*
G03X02637000Y07122000I-00085000J0D01*
G01X02592000Y07884000D02*
G03X02592000Y07884000I-00040000J0D01*
G01X02637000Y07884000D02*
G03X02637000Y07884000I-00085000J0D01*
G01X02895000Y03185000D02*
X02895000Y02935000D01*
X03005000Y02935000D01*
X03005000Y03185000D01*
X02895000Y03185000D01*
G01X03170000Y04880000D02*
X03225000Y04880000D01*
X03225000Y04830000D01*
X03170000Y04830000D01*
G01X03030000Y04975000D02*
X02975000Y04975000D01*
X02975000Y04925000D01*
X03030000Y04925000D01*
G01X03030000Y05100000D02*
X03030000Y04800000D01*
X03170000Y04800000D01*
X03170000Y05100000D01*
X03030000Y05100000D01*
G01X03485000Y05305000D02*
X03235000Y05305000D01*
X03235000Y05195000D01*
X03485000Y05195000D01*
X03485000Y05305000D01*
G01X03170000Y05070000D02*
X03225000Y05070000D01*
X03225000Y05020000D01*
X03170000Y05020000D01*
G01X03485000Y05435000D02*
X03235000Y05435000D01*
X03235000Y05325000D01*
X03485000Y05325000D01*
X03485000Y05435000D01*
G01X02940000Y05200000D02*
G03X02940000Y05200000I-00040000J0D01*
G01X03835000Y03185000D02*
X03835000Y02935000D01*
X03945000Y02935000D01*
X03945000Y03185000D01*
X03835000Y03185000D01*
G01X04275000Y04835000D02*
X04025000Y04835000D01*
X04025000Y04725000D01*
X04275000Y04725000D01*
X04275000Y04835000D01*
G01X04575000Y00925000D02*
X04825000Y00925000D01*
X04825000Y01035000D01*
X04575000Y01035000D01*
X04575000Y00925000D01*
G01X04825000Y01490000D02*
X04825000Y01170000D01*
X04575000Y01170000D01*
X04575000Y01490000D01*
X04825000Y01490000D01*
G01X04575000Y01615000D02*
X04825000Y01615000D01*
X04825000Y01725000D01*
X04575000Y01725000D01*
X04575000Y01615000D01*
G01X04685000Y01745000D02*
X04685000Y01995000D01*
X04575000Y01995000D01*
X04575000Y01745000D01*
X04685000Y01745000D01*
G01X04825000Y01745000D02*
X04825000Y01995000D01*
X04715000Y01995000D01*
X04715000Y01745000D01*
X04825000Y01745000D01*
G01X04585000Y02335000D02*
X04835000Y02335000D01*
X04835000Y02445000D01*
X04585000Y02445000D01*
X04585000Y02335000D01*
G01X04640000Y02160000D02*
X04640000Y02080000D01*
X04820000Y02080000D01*
X04820000Y02160000D01*
X04640000Y02160000D01*
G01X04585000Y02475000D02*
X04835000Y02475000D01*
X04835000Y02585000D01*
X04585000Y02585000D01*
X04585000Y02475000D01*
G01X04905000Y05995000D02*
X04655000Y05995000D01*
X04655000Y05885000D01*
X04905000Y05885000D01*
X04905000Y05995000D01*
G01X05085000Y01615000D02*
X05085000Y01865000D01*
X04975000Y01865000D01*
X04975000Y01615000D01*
X05085000Y01615000D01*
G01X05380000Y01620000D02*
X05460000Y01620000D01*
X05460000Y01800000D01*
X05380000Y01800000D01*
X05380000Y01620000D01*
G01X04955000Y02335000D02*
X04955000Y02585000D01*
X04845000Y02585000D01*
X04845000Y02335000D01*
X04955000Y02335000D01*
G01X04835000Y01885000D02*
X05085000Y01885000D01*
X05085000Y01995000D01*
X04835000Y01995000D01*
X04835000Y01885000D01*
G01X05465000Y01935000D02*
X05215000Y01935000D01*
X05215000Y01825000D01*
X05465000Y01825000D01*
X05465000Y01935000D01*
G01X04955000Y02065000D02*
X04955000Y02315000D01*
X04845000Y02315000D01*
X04845000Y02065000D01*
X04955000Y02065000D01*
G01X04825000Y03985000D02*
X04825000Y03735000D01*
X04935000Y03735000D01*
X04935000Y03985000D01*
X04825000Y03985000D01*
G01X05335000Y03985000D02*
X05335000Y03735000D01*
X05445000Y03735000D01*
X05445000Y03985000D01*
X05335000Y03985000D01*
G01X05485000Y05885000D02*
X05485000Y06135000D01*
X05375000Y06135000D01*
X05375000Y05885000D01*
X05485000Y05885000D01*
G01X05075000Y06765000D02*
X05075000Y06975000D01*
X04945000Y06975000D01*
X04945000Y06765000D01*
X05075000Y06765000D01*
G01X05075000Y07205000D02*
X05075000Y07415000D01*
X04945000Y07415000D01*
X04945000Y07205000D01*
X05075000Y07205000D01*
G01X05075000Y07935000D02*
X05075000Y08145000D01*
X04945000Y08145000D01*
X04945000Y07935000D01*
X05075000Y07935000D01*
G01X05665000Y01025000D02*
X05915000Y01025000D01*
X05915000Y01135000D01*
X05665000Y01135000D01*
X05665000Y01025000D01*
G01X05800000Y01600000D02*
X05800000Y01680000D01*
X05620000Y01680000D01*
X05620000Y01600000D01*
X05800000Y01600000D01*
G01X05830000Y01680000D02*
X05830000Y01600000D01*
X06010000Y01600000D01*
X06010000Y01680000D01*
X05830000Y01680000D01*
G01X05560000Y01245000D02*
X05560000Y01515000D01*
G01X05585000Y01220000D02*
X06035000Y01220000D01*
G01X05585000Y01540000D02*
X06035000Y01540000D01*
G01X05585000Y01260000D02*
X05585000Y01500000D01*
G01X06035000Y01260000D02*
X06035000Y01500000D01*
G01X05600000Y01245000D02*
X06020000Y01245000D01*
G01X05600000Y01515000D02*
X06020000Y01515000D01*
G01X05600000Y01515000D02*
G03X05585000Y01500000I0J-00015000D01*
G01X05585000Y01540000D02*
G02X05559900Y01514900I-00025100J0D01*
G01X05600000Y01245000D02*
G02X05584900Y01260100I0J00015100D01*
G01X05585000Y01220000D02*
G03X05560000Y01245000I-00025000J0D01*
G01X06020100Y01245000D02*
G03X06035000Y01260000I-00000100J00015000D01*
G01X06060300Y01245100D02*
G03X06034800Y01219900I-00000298J-00025200D01*
G01X06035100Y01499900D02*
G03X06020000Y01515000I-00015100J0D01*
G01X06060100Y01515000D02*
G02X06034800Y01540100I-00000199J00025100D01*
G01X05955000Y02255000D02*
X05955000Y02005000D01*
X06065000Y02005000D01*
X06065000Y02255000D01*
X05955000Y02255000D01*
G01X05955000Y02525000D02*
X05955000Y02275000D01*
X06065000Y02275000D01*
X06065000Y02525000D01*
X05955000Y02525000D01*
G01X05435000Y02905000D02*
X05685000Y02905000D01*
X05685000Y03015000D01*
X05435000Y03015000D01*
X05435000Y02905000D01*
G01X05900000Y02950000D02*
G03X05900000Y02950000I-00040000J0D01*
G01X05945000Y02950000D02*
G03X05945000Y02950000I-00085000J0D01*
G01X05635000Y03735000D02*
X05635000Y03985000D01*
X05525000Y03985000D01*
X05525000Y03735000D01*
X05635000Y03735000D01*
G01X05900000Y03460000D02*
G03X05900000Y03460000I-00040000J0D01*
G01X05945000Y03460000D02*
G03X05945000Y03460000I-00085000J0D01*
G01X05900000Y03190000D02*
G03X05900000Y03190000I-00040000J0D01*
G01X05945000Y03190000D02*
G03X05945000Y03190000I-00085000J0D01*
G01X05605000Y05885000D02*
X05605000Y06135000D01*
X05495000Y06135000D01*
X05495000Y05885000D01*
X05605000Y05885000D01*
G01X06295000Y06265000D02*
X06045000Y06265000D01*
X06045000Y06155000D01*
X06295000Y06155000D01*
X06295000Y06265000D01*
G01X06060000Y01245000D02*
X06060000Y01515000D01*
G01X06295000Y03525000D02*
X06085000Y03525000D01*
X06085000Y03395000D01*
X06295000Y03395000D01*
X06295000Y03525000D01*
G01X06200000Y03430000D02*
X06190000Y03405000D01*
X06185000Y03415000D01*
X06200000Y03410000D01*
X06190000Y03405000D01*
G01X06175000Y03430000D02*
X06160000Y03405000D01*
X06160000Y03415000D01*
X06170000Y03410000D01*
X06160000Y03405000D01*
G01X06295000Y03255000D02*
X06085000Y03255000D01*
X06085000Y03125000D01*
X06295000Y03125000D01*
X06295000Y03255000D01*
G01X06200000Y03160000D02*
X06190000Y03135000D01*
X06185000Y03145000D01*
X06200000Y03140000D01*
X06190000Y03135000D01*
G01X06175000Y03160000D02*
X06160000Y03135000D01*
X06160000Y03145000D01*
X06170000Y03140000D01*
X06160000Y03135000D01*
G01X06385000Y03405000D02*
X06635000Y03405000D01*
X06635000Y03515000D01*
X06385000Y03515000D01*
X06385000Y03405000D01*
G01X06385000Y03135000D02*
X06635000Y03135000D01*
X06635000Y03245000D01*
X06385000Y03245000D01*
X06385000Y03135000D01*
G01X06205000Y03935000D02*
X06455000Y03935000D01*
X06455000Y04045000D01*
X06205000Y04045000D01*
X06205000Y03935000D01*
G01X06685000Y04925000D02*
X06435000Y04925000D01*
X06435000Y04815000D01*
X06685000Y04815000D01*
X06685000Y04925000D01*
G01X06435000Y04975000D02*
X06685000Y04975000D01*
X06685000Y05085000D01*
X06435000Y05085000D01*
X06435000Y04975000D01*
G01X06545000Y05505000D02*
X06545000Y05755000D01*
X06435000Y05755000D01*
X06435000Y05505000D01*
X06545000Y05505000D01*
G01X06575000Y06165000D02*
X06325000Y06165000D01*
X06325000Y06055000D01*
X06575000Y06055000D01*
X06575000Y06165000D01*
G01X06555000Y06415000D02*
X06305000Y06415000D01*
X06305000Y06305000D01*
X06555000Y06305000D01*
X06555000Y06415000D01*
G01X07415000Y01445000D02*
X07415000Y01695000D01*
X07305000Y01695000D01*
X07305000Y01445000D01*
X07415000Y01445000D01*
G01X07255000Y02775000D02*
X07255000Y02525000D01*
X07365000Y02525000D01*
X07365000Y02775000D01*
X07255000Y02775000D01*
G01X07270100Y03103600D02*
X07349500Y03103600D01*
G01X07270100Y03135400D02*
X07349500Y03135400D01*
G01X07270100Y03230600D02*
X07349500Y03230600D01*
G01X07270100Y03262400D02*
X07349500Y03262400D01*
G01X07270100Y03357600D02*
X07349500Y03357600D01*
G01X07270100Y03389400D02*
X07349500Y03389400D01*
G01X07270100Y03484600D02*
X07349500Y03484600D01*
G01X07270100Y03516400D02*
X07349500Y03516400D01*
G01X07230000Y03114000D02*
X07230000Y03135400D01*
X07270100Y03135400D01*
X07270100Y03103600D01*
X07230000Y03103600D01*
X07230000Y03115000D01*
G01X07230000Y03245000D02*
X07230000Y03230600D01*
X07270100Y03230600D01*
X07270100Y03262400D01*
X07230000Y03262400D01*
X07230000Y03245000D01*
G01X07230000Y03369000D02*
X07230000Y03389400D01*
X07270100Y03389400D01*
X07270100Y03357600D01*
X07230000Y03357600D01*
X07230000Y03369000D01*
G01X07230000Y03500000D02*
X07230000Y03516400D01*
X07270100Y03516400D01*
X07270100Y03484600D01*
X07230000Y03484600D01*
X07230000Y03504000D01*
G01X07895000Y01715000D02*
X07895000Y01965000D01*
X07785000Y01965000D01*
X07785000Y01715000D01*
X07895000Y01715000D01*
G01X07685000Y01695000D02*
X07435000Y01695000D01*
X07435000Y01585000D01*
X07685000Y01585000D01*
X07685000Y01695000D01*
G01X07685000Y01555000D02*
X07435000Y01555000D01*
X07435000Y01445000D01*
X07685000Y01445000D01*
X07685000Y01555000D01*
G01X07895000Y01445000D02*
X07895000Y01695000D01*
X07785000Y01695000D01*
X07785000Y01445000D01*
X07895000Y01445000D01*
G01X07630000Y01835000D02*
X07630000Y01750000D01*
X07680000Y01750000D01*
X07680000Y01835000D01*
G01X07440000Y01835000D02*
X07440000Y01750000D01*
X07490000Y01750000D01*
X07490000Y01835000D01*
G01X08035000Y02275000D02*
X08035000Y02525000D01*
X07925000Y02525000D01*
X07925000Y02275000D01*
X08035000Y02275000D01*
G01X07685000Y02405000D02*
X07435000Y02405000D01*
X07435000Y02295000D01*
X07685000Y02295000D01*
X07685000Y02405000D01*
G01X07895000Y01995000D02*
X07895000Y02245000D01*
X07785000Y02245000D01*
X07785000Y01995000D01*
X07895000Y01995000D01*
G01X07895000Y02275000D02*
X07895000Y02525000D01*
X07785000Y02525000D01*
X07785000Y02275000D01*
X07895000Y02275000D01*
G01X07925000Y02245000D02*
X07925000Y01995000D01*
X08035000Y01995000D01*
X08035000Y02245000D01*
X07925000Y02245000D01*
G01X07490000Y02005000D02*
X07490000Y02090000D01*
X07440000Y02090000D01*
X07440000Y02005000D01*
G01X07585000Y02005000D02*
X07585000Y02090000D01*
X07535000Y02090000D01*
X07535000Y02005000D01*
G01X07680000Y02005000D02*
X07680000Y02090000D01*
X07630000Y02090000D01*
X07630000Y02005000D01*
G01X07710000Y02005000D02*
X07410000Y02005000D01*
X07410000Y01835000D01*
X07710000Y01835000D01*
X07710000Y02005000D01*
G01X07455000Y02875000D02*
X07705000Y02875000D01*
X07705000Y02985000D01*
X07455000Y02985000D01*
X07455000Y02875000D01*
G01X07895000Y02555000D02*
X07895000Y02805000D01*
X07785000Y02805000D01*
X07785000Y02555000D01*
X07895000Y02555000D01*
G01X07945000Y03175000D02*
X07945000Y02925000D01*
X08055000Y02925000D01*
X08055000Y03175000D01*
X07945000Y03175000D01*
G01X07490000Y02725000D02*
X07490000Y02810000D01*
X07440000Y02810000D01*
X07440000Y02725000D01*
G01X07680000Y02725000D02*
X07680000Y02810000D01*
X07630000Y02810000D01*
X07630000Y02725000D01*
G01X07630000Y02555000D02*
X07630000Y02470000D01*
X07680000Y02470000D01*
X07680000Y02555000D01*
G01X07535000Y02555000D02*
X07535000Y02470000D01*
X07585000Y02470000D01*
X07585000Y02555000D01*
G01X07440000Y02555000D02*
X07440000Y02470000D01*
X07490000Y02470000D01*
X07490000Y02555000D01*
G01X07410000Y02555000D02*
X07710000Y02555000D01*
X07710000Y02725000D01*
X07410000Y02725000D01*
X07410000Y02555000D01*
G01X07349500Y03060000D02*
X07730500Y03060000D01*
G01X07730500Y03560000D02*
X07730500Y03060000D01*
G01X07413000Y03560000D02*
X07413000Y03060000D01*
G01X07349500Y03560000D02*
X07349500Y03060000D01*
G01X08055000Y03225000D02*
X08055000Y03475000D01*
X07945000Y03475000D01*
X07945000Y03225000D01*
X08055000Y03225000D01*
G01X07730500Y03103600D02*
X07809900Y03103600D01*
G01X07730500Y03135400D02*
X07809900Y03135400D01*
G01X07730500Y03230600D02*
X07809900Y03230600D01*
G01X07730500Y03262400D02*
X07809900Y03262400D01*
G01X07730500Y03357600D02*
X07809900Y03357600D01*
G01X07730500Y03389400D02*
X07809900Y03389400D01*
G01X07730500Y03484600D02*
X07850000Y03484600D01*
X07850000Y03516400D01*
X07809900Y03516400D01*
X07809900Y03484600D01*
G01X07730500Y03516400D02*
X07809900Y03516400D01*
G01X07349500Y03560000D02*
X07730500Y03560000D01*
G01X07850000Y03122000D02*
X07850000Y03135400D01*
X07809900Y03135400D01*
X07809900Y03103600D01*
X07850000Y03103600D01*
X07850000Y03123000D01*
G01X07850000Y03248000D02*
X07850000Y03262400D01*
X07809900Y03262400D01*
X07809900Y03230600D01*
X07850000Y03230600D01*
X07850000Y03248000D01*
G01X07850000Y03372000D02*
X07850000Y03389400D01*
X07809900Y03389400D01*
X07809900Y03357600D01*
X07850000Y03357600D01*
X07850000Y03376000D01*
G01X07985000Y07645000D02*
X07735000Y07645000D01*
X07735000Y07535000D01*
X07985000Y07535000D01*
X07985000Y07645000D01*
G01X08745000Y01695000D02*
X08495000Y01695000D01*
X08495000Y01585000D01*
X08745000Y01585000D01*
X08745000Y01695000D01*
G01X08745000Y01555000D02*
X08495000Y01555000D01*
X08495000Y01445000D01*
X08745000Y01445000D01*
X08745000Y01555000D01*
G01X08475000Y01445000D02*
X08475000Y01695000D01*
X08365000Y01695000D01*
X08365000Y01445000D01*
X08475000Y01445000D01*
G01X08500000Y01835000D02*
X08500000Y01750000D01*
X08550000Y01750000D01*
X08550000Y01835000D01*
G01X08745000Y02405000D02*
X08495000Y02405000D01*
X08495000Y02295000D01*
X08745000Y02295000D01*
X08745000Y02405000D01*
G01X08550000Y02005000D02*
X08550000Y02090000D01*
X08500000Y02090000D01*
X08500000Y02005000D01*
G01X08645000Y02005000D02*
X08645000Y02090000D01*
X08595000Y02090000D01*
X08595000Y02005000D01*
G01X08770000Y02005000D02*
X08470000Y02005000D01*
X08470000Y01835000D01*
X08770000Y01835000D01*
X08770000Y02005000D01*
G01X08515000Y02875000D02*
X08765000Y02875000D01*
X08765000Y02985000D01*
X08515000Y02985000D01*
X08515000Y02875000D01*
G01X08315000Y02775000D02*
X08315000Y02525000D01*
X08425000Y02525000D01*
X08425000Y02775000D01*
X08315000Y02775000D01*
G01X08550000Y02725000D02*
X08550000Y02810000D01*
X08500000Y02810000D01*
X08500000Y02725000D01*
G01X08595000Y02555000D02*
X08595000Y02470000D01*
X08645000Y02470000D01*
X08645000Y02555000D01*
G01X08500000Y02555000D02*
X08500000Y02470000D01*
X08550000Y02470000D01*
X08550000Y02555000D01*
G01X08470000Y02555000D02*
X08770000Y02555000D01*
X08770000Y02725000D01*
X08470000Y02725000D01*
X08470000Y02555000D01*
G01X08409500Y03060000D02*
X08790500Y03060000D01*
G01X08473000Y03560000D02*
X08473000Y03060000D01*
G01X08409500Y03560000D02*
X08409500Y03060000D01*
G01X08330100Y03103600D02*
X08409500Y03103600D01*
G01X08330100Y03135400D02*
X08409500Y03135400D01*
G01X08330100Y03230600D02*
X08409500Y03230600D01*
G01X08330100Y03262400D02*
X08409500Y03262400D01*
G01X08330100Y03357600D02*
X08409500Y03357600D01*
G01X08330100Y03389400D02*
X08409500Y03389400D01*
G01X08330100Y03484600D02*
X08409500Y03484600D01*
G01X08330100Y03516400D02*
X08409500Y03516400D01*
G01X08409500Y03560000D02*
X08790500Y03560000D01*
G01X08290000Y03114000D02*
X08290000Y03135400D01*
X08330100Y03135400D01*
X08330100Y03103600D01*
X08290000Y03103600D01*
X08290000Y03115000D01*
G01X08290000Y03245000D02*
X08290000Y03230600D01*
X08330100Y03230600D01*
X08330100Y03262400D01*
X08290000Y03262400D01*
X08290000Y03245000D01*
G01X08290000Y03369000D02*
X08290000Y03389400D01*
X08330100Y03389400D01*
X08330100Y03357600D01*
X08290000Y03357600D01*
X08290000Y03369000D01*
G01X08290000Y03500000D02*
X08290000Y03516400D01*
X08330100Y03516400D01*
X08330100Y03484600D01*
X08290000Y03484600D01*
X08290000Y03504000D01*
G01X08955000Y01715000D02*
X08955000Y01965000D01*
X08845000Y01965000D01*
X08845000Y01715000D01*
X08955000Y01715000D01*
G01X08955000Y01445000D02*
X08955000Y01695000D01*
X08845000Y01695000D01*
X08845000Y01445000D01*
X08955000Y01445000D01*
G01X08690000Y01835000D02*
X08690000Y01750000D01*
X08740000Y01750000D01*
X08740000Y01835000D01*
G01X09095000Y02275000D02*
X09095000Y02525000D01*
X08985000Y02525000D01*
X08985000Y02275000D01*
X09095000Y02275000D01*
G01X08955000Y01995000D02*
X08955000Y02245000D01*
X08845000Y02245000D01*
X08845000Y01995000D01*
X08955000Y01995000D01*
G01X08955000Y02275000D02*
X08955000Y02525000D01*
X08845000Y02525000D01*
X08845000Y02275000D01*
X08955000Y02275000D01*
G01X08985000Y02245000D02*
X08985000Y01995000D01*
X09095000Y01995000D01*
X09095000Y02245000D01*
X08985000Y02245000D01*
G01X08740000Y02005000D02*
X08740000Y02090000D01*
X08690000Y02090000D01*
X08690000Y02005000D01*
G01X08955000Y02555000D02*
X08955000Y02805000D01*
X08845000Y02805000D01*
X08845000Y02555000D01*
X08955000Y02555000D01*
G01X09005000Y03175000D02*
X09005000Y02925000D01*
X09115000Y02925000D01*
X09115000Y03175000D01*
X09005000Y03175000D01*
G01X09245000Y03065000D02*
X09495000Y03065000D01*
X09495000Y03175000D01*
X09245000Y03175000D01*
X09245000Y03065000D01*
G01X08740000Y02725000D02*
X08740000Y02810000D01*
X08690000Y02810000D01*
X08690000Y02725000D01*
G01X08690000Y02555000D02*
X08690000Y02470000D01*
X08740000Y02470000D01*
X08740000Y02555000D01*
G01X08790500Y03560000D02*
X08790500Y03060000D01*
G01X09115000Y03225000D02*
X09115000Y03475000D01*
X09005000Y03475000D01*
X09005000Y03225000D01*
X09115000Y03225000D01*
G01X08790500Y03103600D02*
X08869900Y03103600D01*
G01X08790500Y03135400D02*
X08869900Y03135400D01*
G01X08790500Y03230600D02*
X08869900Y03230600D01*
G01X08790500Y03262400D02*
X08869900Y03262400D01*
G01X08790500Y03357600D02*
X08869900Y03357600D01*
G01X08790500Y03389400D02*
X08869900Y03389400D01*
G01X08790500Y03484600D02*
X08910000Y03484600D01*
X08910000Y03516400D01*
X08869900Y03516400D01*
X08869900Y03484600D01*
G01X08790500Y03516400D02*
X08869900Y03516400D01*
G01X08910000Y03122000D02*
X08910000Y03135400D01*
X08869900Y03135400D01*
X08869900Y03103600D01*
X08910000Y03103600D01*
X08910000Y03123000D01*
G01X08910000Y03248000D02*
X08910000Y03262400D01*
X08869900Y03262400D01*
X08869900Y03230600D01*
X08910000Y03230600D01*
X08910000Y03248000D01*
G01X08910000Y03372000D02*
X08910000Y03389400D01*
X08869900Y03389400D01*
X08869900Y03357600D01*
X08910000Y03357600D01*
X08910000Y03376000D01*
G01X10150000Y00500000D02*
G03X10150000Y00500000I-00350000J0D01*
G01X10150000Y08000000D02*
G03X10150000Y08000000I-00350000J0D01*
M02*
