G04 ================== begin FILE IDENTIFICATION RECORD ==================*
G04 Layout Name:  F:/PT8620_LTC/PT8620_Version2/PT8620_LTC2.brd*
G04 Film Name:    PASTEMASK_TOP*
G04 File Format:  Gerber RS274X*
G04 File Origin:  Cadence Allegro 16.6-S050*
G04 Origin Date:  Mon Jun 22 13:51:12 2015*
G04 *
G04 Layer:  VIA CLASS/PASTEMASK_TOP*
G04 Layer:  PIN/PASTEMASK_TOP*
G04 Layer:  PACKAGE GEOMETRY/PASTEMASK_TOP*
G04 *
G04 Offset:    (0.0000 0.0000)*
G04 Mirror:    No*
G04 Mode:      Positive*
G04 Rotation:  0*
G04 FullContactRelief:  No*
G04 UndefLineWidth:     0.0000*
G04 ================== end FILE IDENTIFICATION RECORD ====================*
%FSAX35Y35*MOMM*%
%IR0*IPPOS*OFA0.00000B0.00000*MIA0B0*SFA1.00000B1.00000*%
%ADD30R,.7X1.*%
%ADD21R,1.8999X1.5999*%
%ADD18R,1.4X.95*%
%ADD12R,.95X1.4*%
%ADD22R,1.35X.65*%
%ADD11R,.8999X.8999*%
%ADD13R,.8999X.8999*%
%ADD20R,.7501X2.8001*%
%ADD17R,2.X.5499*%
%ADD28R,.3X1.5999*%
%ADD19R,1.X.8999*%
%ADD14R,1.3X.5999*%
%ADD25R,1.5999X.3*%
%ADD24R,.5999X.5999*%
%ADD10R,1.X1.5001*%
%ADD27R,.2499X1.5999*%
%ADD26R,1.5999X.2499*%
%ADD23R,2.7X1.4*%
%ADD16C,1.*%
%ADD31C,2.5001*%
%ADD15R,.76X.76*%
%ADD29R,1.8001X1.1999*%
G75*
%LPD*%
G75*
G36*
G01X01140000Y05000000D02*
X01140000Y04965000D01*
X01195000Y04910000D01*
X01195000Y04680000D01*
X01110000Y04595000D01*
X01070000Y04595000D01*
X00985000Y04680000D01*
X00985000Y04910000D01*
X01040000Y04965000D01*
X01040000Y05000000D01*
X01140000Y05000000D01*
G37*
G54D10*
X00940000Y05070000D03*
X01090000Y05070000D03*
X01240000Y05070000D03*
G54D20*
X04097000Y04135000D03*
X03970000Y04135000D03*
X03843000Y04135000D03*
X03716000Y04135000D03*
X03716000Y04545000D03*
X03843000Y04545000D03*
X03970000Y04545000D03*
X04097000Y04545000D03*
X04224000Y04135000D03*
X04224000Y04545000D03*
G54D11*
X01410000Y01840000D03*
X01270000Y01840000D03*
X01600000Y05910000D03*
X02180000Y04660000D03*
X02040000Y04660000D03*
X01790000Y05520000D03*
X01650000Y05520000D03*
X01790000Y05240000D03*
X01650000Y05240000D03*
X01790000Y05380000D03*
X01650000Y05380000D03*
X01740000Y05910000D03*
X02210000Y05910000D03*
X02040000Y05910000D03*
X01900000Y05910000D03*
X02350000Y05910000D03*
X03430000Y05250000D03*
X03290000Y05250000D03*
X03430000Y05380000D03*
X03290000Y05380000D03*
X04080000Y04780000D03*
X04630000Y00980000D03*
X04770000Y00980000D03*
X04630000Y01670000D03*
X04770000Y01670000D03*
X04640000Y02390000D03*
X04780000Y02390000D03*
X04640000Y02530000D03*
X04780000Y02530000D03*
X04220000Y04780000D03*
X04710000Y05940000D03*
X04890000Y01940000D03*
X05030000Y01940000D03*
X05410000Y01880000D03*
X05270000Y01880000D03*
X04850000Y05940000D03*
X05720000Y01080000D03*
X05860000Y01080000D03*
X05490000Y02960000D03*
X05630000Y02960000D03*
X06100000Y06210000D03*
X06440000Y03460000D03*
X06580000Y03460000D03*
X06440000Y03190000D03*
X06580000Y03190000D03*
X06260000Y03990000D03*
X06400000Y03990000D03*
X06630000Y04870000D03*
X06490000Y04870000D03*
X06490000Y05030000D03*
X06630000Y05030000D03*
X06240000Y06210000D03*
X06520000Y06110000D03*
X06380000Y06110000D03*
X06500000Y06360000D03*
X06360000Y06360000D03*
X07630000Y01640000D03*
X07490000Y01640000D03*
X07630000Y01500000D03*
X07490000Y01500000D03*
X07630000Y02350000D03*
X07490000Y02350000D03*
X07510000Y02930000D03*
X07650000Y02930000D03*
X07930000Y07590000D03*
X07790000Y07590000D03*
X08550000Y01640000D03*
X08550000Y01500000D03*
X08550000Y02350000D03*
X08570000Y02930000D03*
X08690000Y01640000D03*
X08690000Y01500000D03*
X08690000Y02350000D03*
X08710000Y02930000D03*
X09300000Y03120000D03*
X09440000Y03120000D03*
G54D12*
X01252500Y05280000D03*
X01067500Y05280000D03*
X06097500Y03460000D03*
X06097500Y03190000D03*
X06282500Y03460000D03*
X06282500Y03190000D03*
G54D21*
X04153500Y06480000D03*
X04153500Y07213750D03*
X04153500Y07947500D03*
X04633500Y06480000D03*
X04633500Y07213750D03*
X04633500Y07947500D03*
G54D30*
X07655000Y01790000D03*
X07465000Y01790000D03*
X07465000Y02050000D03*
X07560000Y02050000D03*
X07655000Y02050000D03*
X07655000Y02510000D03*
X07560000Y02510000D03*
X07465000Y02510000D03*
X07465000Y02770000D03*
X07655000Y02770000D03*
X08525000Y01790000D03*
X08525000Y02050000D03*
X08620000Y02050000D03*
X08620000Y02510000D03*
X08525000Y02510000D03*
X08525000Y02770000D03*
X08715000Y01790000D03*
X08715000Y02050000D03*
X08715000Y02510000D03*
X08715000Y02770000D03*
G54D31*
X08382000Y04191000D03*
X08382000Y04699000D03*
X08382000Y05334000D03*
X08382000Y05842000D03*
X08890000Y04191000D03*
X08890000Y04699000D03*
X08890000Y05334000D03*
X08890000Y05842000D03*
G54D13*
X01495500Y06934500D03*
X01495500Y06566500D03*
X01495500Y06426500D03*
X01495500Y07074500D03*
X02067000Y06934500D03*
X02067000Y06566500D03*
X02067000Y06426500D03*
X02067000Y07074500D03*
X02660000Y02360000D03*
X02660000Y02220000D03*
X02790000Y04820000D03*
X02790000Y04960000D03*
X02950000Y03130000D03*
X02950000Y02990000D03*
X03890000Y03130000D03*
X03890000Y02990000D03*
X04630000Y01800000D03*
X04770000Y01800000D03*
X04630000Y01940000D03*
X04770000Y01940000D03*
X05030000Y01670000D03*
X05030000Y01810000D03*
X04900000Y02390000D03*
X04900000Y02120000D03*
X04900000Y02260000D03*
X04900000Y02530000D03*
X04880000Y03930000D03*
X04880000Y03790000D03*
X05390000Y03930000D03*
X05390000Y03790000D03*
X05430000Y05940000D03*
X05430000Y06080000D03*
X06010000Y02200000D03*
X06010000Y02060000D03*
X06010000Y02470000D03*
X06010000Y02330000D03*
X05580000Y03790000D03*
X05580000Y03930000D03*
X05550000Y05940000D03*
X05550000Y06080000D03*
X06490000Y05560000D03*
X06490000Y05700000D03*
X07360000Y01500000D03*
X07360000Y01640000D03*
X07310000Y02720000D03*
X07310000Y02580000D03*
X07840000Y01770000D03*
X07840000Y01500000D03*
X07840000Y01640000D03*
X07980000Y02330000D03*
X07980000Y02470000D03*
X07840000Y01910000D03*
X07840000Y02050000D03*
X07840000Y02190000D03*
X07840000Y02330000D03*
X07840000Y02470000D03*
X07980000Y02190000D03*
X07980000Y02050000D03*
X07840000Y02610000D03*
X07840000Y02750000D03*
X08000000Y03120000D03*
X08000000Y02980000D03*
X08000000Y03280000D03*
X08000000Y03420000D03*
X08420000Y01500000D03*
X08420000Y01640000D03*
X08370000Y02720000D03*
X08370000Y02580000D03*
X08900000Y01770000D03*
X08900000Y01500000D03*
X08900000Y01640000D03*
X09040000Y02330000D03*
X09040000Y02470000D03*
X08900000Y01910000D03*
X08900000Y02050000D03*
X08900000Y02190000D03*
X08900000Y02330000D03*
X08900000Y02470000D03*
X09040000Y02190000D03*
X09040000Y02050000D03*
X08900000Y02610000D03*
X08900000Y02750000D03*
X09060000Y03120000D03*
X09060000Y02980000D03*
X09060000Y03280000D03*
X09060000Y03420000D03*
G54D22*
X04590000Y00800000D03*
X04830000Y00800000D03*
G54D23*
X04700000Y01185000D03*
X04700000Y01475000D03*
G54D14*
X02042000Y04817500D03*
X02042000Y04944500D03*
X02042000Y05071500D03*
X02042000Y05198500D03*
X02042000Y05325500D03*
X02042000Y05452500D03*
X02042000Y05579500D03*
X02042000Y05706500D03*
X02582000Y04944500D03*
X02582000Y04817500D03*
X02582000Y05579500D03*
X02582000Y05452500D03*
X02582000Y05325500D03*
X02582000Y05198500D03*
X02582000Y05071500D03*
X02582000Y05706500D03*
X07270100Y03119500D03*
X07270100Y03246500D03*
X07270100Y03373500D03*
X07270100Y03500500D03*
X07809900Y03119500D03*
X07809900Y03500500D03*
X07809900Y03373500D03*
X07809900Y03246500D03*
X08330100Y03119500D03*
X08330100Y03246500D03*
X08330100Y03373500D03*
X08330100Y03500500D03*
X08869900Y03119500D03*
X08869900Y03500500D03*
X08869900Y03373500D03*
X08869900Y03246500D03*
G54D15*
X01781500Y06901500D03*
X01781500Y06393500D03*
X01686500Y06623500D03*
X01876500Y06623500D03*
X01686500Y07131500D03*
X01876500Y07131500D03*
G54D24*
X04780000Y02120000D03*
X04680000Y02120000D03*
X05420000Y01760000D03*
X05420000Y01660000D03*
X05660000Y01640000D03*
X05760000Y01640000D03*
X05970000Y01640000D03*
X05870000Y01640000D03*
G54D16*
X01878000Y07597000D03*
X03758000Y01200000D03*
X08870000Y06500000D03*
G54D25*
X04705000Y04330000D03*
X04705000Y04380000D03*
X04705000Y04430000D03*
X04705000Y04480000D03*
X04705000Y04530000D03*
X04705000Y04580000D03*
X04705000Y04630000D03*
X04705000Y04680000D03*
X04705000Y04730000D03*
X04705000Y04780000D03*
X04705000Y04830000D03*
X04705000Y04880000D03*
X04705000Y04930000D03*
X04705000Y04980000D03*
X04705000Y05030000D03*
X04705000Y05080000D03*
X04705000Y05130000D03*
X04705000Y05180000D03*
X04705000Y05230000D03*
X04705000Y05280000D03*
X04705000Y05330000D03*
X04705000Y05380000D03*
X04705000Y05430000D03*
X04705000Y05480000D03*
X04705000Y05530000D03*
X06255000Y04380000D03*
X06255000Y04330000D03*
X06255000Y04980000D03*
X06255000Y04930000D03*
X06255000Y04880000D03*
X06255000Y04830000D03*
X06255000Y04780000D03*
X06255000Y04730000D03*
X06255000Y04680000D03*
X06255000Y04630000D03*
X06255000Y04580000D03*
X06255000Y04530000D03*
X06255000Y04480000D03*
X06255000Y04430000D03*
X06255000Y05530000D03*
X06255000Y05480000D03*
X06255000Y05430000D03*
X06255000Y05380000D03*
X06255000Y05330000D03*
X06255000Y05280000D03*
X06255000Y05230000D03*
X06255000Y05180000D03*
X06255000Y05130000D03*
X06255000Y05080000D03*
X06255000Y05030000D03*
G54D26*
X05090000Y02245000D03*
X05090000Y02295000D03*
X05090000Y02345000D03*
X05090000Y02395000D03*
X05090000Y02445000D03*
X05090000Y02495000D03*
X05090000Y02545000D03*
X05090000Y02595000D03*
X05770000Y02445000D03*
X05770000Y02395000D03*
X05770000Y02345000D03*
X05770000Y02295000D03*
X05770000Y02245000D03*
X05770000Y02595000D03*
X05770000Y02545000D03*
X05770000Y02495000D03*
G54D17*
X02951000Y01865500D03*
X02951000Y01992500D03*
X02951000Y02119500D03*
X02951000Y02246500D03*
X02951000Y02373500D03*
X02951000Y02500500D03*
X02951000Y02627500D03*
X02951000Y02754500D03*
X03889000Y02373500D03*
X03889000Y02246500D03*
X03889000Y02119500D03*
X03889000Y01992500D03*
X03889000Y01865500D03*
X03889000Y02754500D03*
X03889000Y02627500D03*
X03889000Y02500500D03*
G54D27*
X05405000Y02080000D03*
X05355000Y02080000D03*
X05305000Y02080000D03*
X05255000Y02080000D03*
X05255000Y02760000D03*
X05305000Y02760000D03*
X05355000Y02760000D03*
X05405000Y02760000D03*
X05605000Y02080000D03*
X05555000Y02080000D03*
X05505000Y02080000D03*
X05455000Y02080000D03*
X05455000Y02760000D03*
X05505000Y02760000D03*
X05555000Y02760000D03*
X05605000Y02760000D03*
G54D18*
X02800000Y05612500D03*
X02800000Y05427500D03*
X05010000Y06777500D03*
X05010000Y06962500D03*
X05010000Y07217500D03*
X05010000Y07402500D03*
X05010000Y07947500D03*
X05010000Y08132500D03*
G54D19*
X03000000Y04950000D03*
X03200000Y05045000D03*
X03200000Y04855000D03*
G54D28*
X05430000Y04155000D03*
X05380000Y04155000D03*
X05330000Y04155000D03*
X05280000Y04155000D03*
X05230000Y04155000D03*
X05180000Y04155000D03*
X05130000Y04155000D03*
X05080000Y04155000D03*
X05030000Y04155000D03*
X04980000Y04155000D03*
X04930000Y04155000D03*
X04880000Y04155000D03*
X04880000Y05705000D03*
X04930000Y05705000D03*
X04980000Y05705000D03*
X05030000Y05705000D03*
X05080000Y05705000D03*
X05130000Y05705000D03*
X05180000Y05705000D03*
X05230000Y05705000D03*
X05280000Y05705000D03*
X05330000Y05705000D03*
X05380000Y05705000D03*
X05430000Y05705000D03*
X06030000Y04155000D03*
X05980000Y04155000D03*
X05930000Y04155000D03*
X05880000Y04155000D03*
X05830000Y04155000D03*
X05780000Y04155000D03*
X05730000Y04155000D03*
X05680000Y04155000D03*
X05630000Y04155000D03*
X05580000Y04155000D03*
X05530000Y04155000D03*
X05480000Y04155000D03*
X05480000Y05705000D03*
X05530000Y05705000D03*
X05580000Y05705000D03*
X05630000Y05705000D03*
X05680000Y05705000D03*
X05730000Y05705000D03*
X05780000Y05705000D03*
X05830000Y05705000D03*
X05880000Y05705000D03*
X05930000Y05705000D03*
X05980000Y05705000D03*
X06030000Y05705000D03*
X06080000Y04155000D03*
X06080000Y05705000D03*
G54D29*
X05610000Y01260000D03*
X06010000Y01260000D03*
X06010000Y01500000D03*
X05610000Y01500000D03*
M02*
