G04 ================== begin FILE IDENTIFICATION RECORD ==================*
G04 Layout Name:  F:/PT8620_LTC/PT8620_Version2/PT8620_LTC2.brd*
G04 Film Name:    SOLDERMASK_BOT*
G04 File Format:  Gerber RS274X*
G04 File Origin:  Cadence Allegro 16.6-S050*
G04 Origin Date:  Mon Jun 22 13:51:13 2015*
G04 *
G04 Layer:  VIA CLASS/SOLDERMASK_TOP*
G04 Layer:  PIN/SOLDERMASK_BOTTOM*
G04 Layer:  PACKAGE GEOMETRY/SOLDERMASK_BOTTOM*
G04 Layer:  BOARD GEOMETRY/SOLDERMASK_BOTTOM*
G04 *
G04 Offset:    (0.0000 0.0000)*
G04 Mirror:    No*
G04 Mode:      Positive*
G04 Rotation:  0*
G04 FullContactRelief:  No*
G04 UndefLineWidth:     0.0000*
G04 ================== end FILE IDENTIFICATION RECORD ====================*
%FSAX35Y35*MOMM*%
%IR0*IPPOS*OFA0.00000B0.00000*MIA0B0*SFA1.00000B1.00000*%
%ADD13C,1.5001*%
%ADD15C,2.7*%
%ADD11C,1.8001*%
%ADD14C,.0001*%
%ADD12C,1.65*%
%ADD10C,7.1999*%
%ADD16C,1.8999*%
%LPD*%
G75*
G54D10*
X00500000Y00500000D03*
X00500000Y08000000D03*
X09800000Y00500000D03*
X09800000Y08000000D03*
G54D11*
X01583500Y03238500D03*
X01083500Y03238500D03*
X01724660Y00952500D03*
X02720340Y00952500D03*
X08636000Y04445000D03*
X08636000Y05588000D03*
G54D12*
X01231000Y06320000D03*
X01231000Y07082000D03*
X01231000Y07844000D03*
X02790000Y04620000D03*
X02900000Y05200000D03*
X02552000Y06360000D03*
X02552000Y07122000D03*
X02552000Y07884000D03*
X05860000Y02950000D03*
X05860000Y03460000D03*
X05860000Y03190000D03*
G54D13*
X06604000Y06985000D03*
X06350000Y06985000D03*
X06731000Y07239000D03*
X06477000Y07239000D03*
X06731000Y08191500D03*
X06477000Y08191500D03*
X06604000Y07937500D03*
X06350000Y07937500D03*
X07366000Y06985000D03*
X07112000Y06985000D03*
X06858000Y06985000D03*
X07239000Y07239000D03*
X06985000Y07239000D03*
X07239000Y08191500D03*
X06985000Y08191500D03*
X07366000Y07937500D03*
X07112000Y07937500D03*
X06858000Y07937500D03*
X07874000Y06985000D03*
X07620000Y06985000D03*
X08001000Y07239000D03*
X07747000Y07239000D03*
X07493000Y07239000D03*
X08001000Y08191500D03*
X07747000Y08191500D03*
X07493000Y08191500D03*
X07874000Y07937500D03*
X07620000Y07937500D03*
X08636000Y06985000D03*
X08382000Y06985000D03*
X08128000Y06985000D03*
X08509000Y07239000D03*
X08255000Y07239000D03*
X08509000Y08191500D03*
X08255000Y08191500D03*
X08636000Y07937500D03*
X08382000Y07937500D03*
X08128000Y07937500D03*
X08763000Y07239000D03*
X08763000Y08191500D03*
X09779000Y01206500D03*
X09779000Y01460500D03*
X09779000Y01714500D03*
X09779000Y01968500D03*
X09779000Y02222500D03*
X09779000Y02476500D03*
X09779000Y02730500D03*
X09779000Y02984500D03*
X09779000Y03238500D03*
X09779000Y03492500D03*
X10033000Y01079500D03*
X10033000Y01333500D03*
X10033000Y01587500D03*
X10033000Y01841500D03*
X10033000Y02095500D03*
X10033000Y02349500D03*
X10033000Y02603500D03*
X10033000Y02857500D03*
X10033000Y03111500D03*
X10033000Y03365500D03*
G54D14*
X06210000Y07165000D03*
X06210000Y08117500D03*
X09959000Y03632500D03*
G54D15*
X08382000Y04191000D03*
X08382000Y04699000D03*
X08382000Y05334000D03*
X08382000Y05842000D03*
X08890000Y04191000D03*
X08890000Y04699000D03*
X08890000Y05334000D03*
X08890000Y05842000D03*
G54D16*
X09652000Y04258500D03*
X09652000Y04758500D03*
X09652000Y04508500D03*
X09652000Y05651500D03*
X09652000Y05401500D03*
X09652000Y05901500D03*
M02*
