  0
SECTION
  2
HEADER
  9
$ACADVER
  1
AC1009
  9
$INSBASE
 10
0.0
 20
0.0
 30
0.0
  9
$EXTMIN
 10
14.69153
 20
76.526712
 30
0.0
  9
$EXTMAX
 10
438.69153
 20
118.525412
 30
0.2
  9
$LIMMIN
 10
0.0
 20
0.0
  9
$LIMMAX
 10
420.0
 20
297.0
  9
$ORTHOMODE
 70
     0
  9
$REGENMODE
 70
     1
  9
$FILLMODE
 70
     1
  9
$QTEXTMODE
 70
     0
  9
$MIRRTEXT
 70
     1
  9
$DRAGMODE
 70
     2
  9
$LTSCALE
 40
1.0
  9
$OSMODE
 70
     0
  9
$ATTMODE
 70
     1
  9
$TEXTSIZE
 40
3.5
  9
$TRACEWID
 40
1.0
  9
$TEXTSTYLE
  7
STANDARD
  9
$CLAYER
  8
0
  9
$CELTYPE
  6
BYLAYER
  9
$CECOLOR
 62
   256
  9
$DIMSCALE
 40
1.0
  9
$DIMASZ
 40
2.5
  9
$DIMEXO
 40
0.625
  9
$DIMDLI
 40
3.75
  9
$DIMRND
 40
0.0
  9
$DIMDLE
 40
0.0
  9
$DIMEXE
 40
1.25
  9
$DIMTP
 40
0.0
  9
$DIMTM
 40
0.0
  9
$DIMTXT
 40
2.5
  9
$DIMCEN
 40
2.5
  9
$DIMTSZ
 40
0.0
  9
$DIMTOL
 70
     0
  9
$DIMLIM
 70
     0
  9
$DIMTIH
 70
     1
  9
$DIMTOH
 70
     0
  9
$DIMSE1
 70
     0
  9
$DIMSE2
 70
     0
  9
$DIMTAD
 70
     1
  9
$DIMZIN
 70
     8
  9
$DIMBLK
  1

  9
$DIMASO
 70
     1
  9
$DIMSHO
 70
     1
  9
$DIMPOST
  1

  9
$DIMAPOST
  1

  9
$DIMALT
 70
     0
  9
$DIMALTD
 70
     2
  9
$DIMALTF
 40
0.0394
  9
$DIMLFAC
 40
1.0
  9
$DIMTOFL
 70
     1
  9
$DIMTVP
 40
1.0
  9
$DIMTIX
 70
     0
  9
$DIMSOXD
 70
     0
  9
$DIMSAH
 70
     0
  9
$DIMBLK1
  1

  9
$DIMBLK2
  1

  9
$DIMSTYLE
  2
*UNNAMED
  9
$DIMCLRD
 70
     0
  9
$DIMCLRE
 70
     0
  9
$DIMCLRT
 70
     0
  9
$DIMTFAC
 40
1.0
  9
$DIMGAP
 40
0.625
  9
$LUNITS
 70
     2
  9
$LUPREC
 70
     4
  9
$SKETCHINC
 40
1.0
  9
$FILLETRAD
 40
0.0
  9
$AUNITS
 70
     0
  9
$AUPREC
 70
     0
  9
$MENU
  1
acad
  9
$ELEVATION
 40
0.0
  9
$PELEVATION
 40
0.0
  9
$THICKNESS
 40
0.0
  9
$LIMCHECK
 70
     0
  9
$BLIPMODE
 70
     1
  9
$CHAMFERA
 40
10.0
  9
$CHAMFERB
 40
10.0
  9
$SKPOLY
 70
     0
  9
$TDCREATE
 40
2451065.380148611
  9
$TDUPDATE
 40
2451065.380148611
  9
$TDINDWG
 40
0.0000000000
  9
$TDUSRTIMER
 40
0.0000000000
  9
$USRTIMER
 70
     1
  9
$ANGBASE
 50
0.0
  9
$ANGDIR
 70
     0
  9
$PDMODE
 70
     0
  9
$PDSIZE
 40
0.0
  9
$PLINEWID
 40
0.0
  9
$COORDS
 70
     1
  9
$SPLFRAME
 70
     0
  9
$SPLINETYPE
 70
     6
  9
$SPLINESEGS
 70
     8
  9
$ATTDIA
 70
     0
  9
$ATTREQ
 70
     1
  9
$HANDLING
 70
     0
  9
$HANDSEED
  5
0
  9
$SURFTAB1
 70
     6
  9
$SURFTAB2
 70
     6
  9
$SURFTYPE
 70
     6
  9
$SURFU
 70
     6
  9
$SURFV
 70
     6
  9
$UCSNAME
  2

  9
$UCSORG
 10
0.0
 20
0.0
 30
0.0
  9
$UCSXDIR
 10
1.0
 20
0.0
 30
0.0
  9
$UCSYDIR
 10
0.0
 20
1.0
 30
0.0
  9
$PUCSNAME
  2

  9
$PUCSORG
 10
0.0
 20
0.0
 30
0.0
  9
$PUCSXDIR
 10
1.0
 20
0.0
 30
0.0
  9
$PUCSYDIR
 10
0.0
 20
1.0
 30
0.0
  9
$USERI1
 70
     0
  9
$USERI2
 70
     0
  9
$USERI3
 70
     0
  9
$USERI4
 70
     0
  9
$USERI5
 70
     0
  9
$USERR1
 40
0.0
  9
$USERR2
 40
0.0
  9
$USERR3
 40
0.0
  9
$USERR4
 40
0.0
  9
$USERR5
 40
0.0
  9
$WORLDVIEW
 70
     1
  9
$SHADEDGE
 70
     3
  9
$SHADEDIF
 70
    70
  9
$TILEMODE
 70
     1
  9
$MAXACTVP
 70
    16
  9
$PINSBASE
 10
0.0
 20
0.0
 30
0.0
  9
$PLIMCHECK
 70
     0
  9
$PEXTMIN
 10
1.000000E+20
 20
1.000000E+20
 30
1.000000E+20
  9
$PEXTMAX
 10
-1.000000E+20
 20
-1.000000E+20
 30
-1.000000E+20
  9
$PLIMMIN
 10
0.0
 20
0.0
  9
$PLIMMAX
 10
420.0
 20
297.0
  9
$UNITMODE
 70
     0
  9
$VISRETAIN
 70
     0
  9
$PLINEGEN
 70
     0
  9
$PSLTSCALE
 70
     1
  9
$TREEDEPTH
 70
  3020
  9
$DWGCODEPAGE
  3
iso8859-1
  0
ENDSEC
  0
SECTION
  2
TABLES
  0
TABLE
  2
VPORT
 70
     2
  0
VPORT
  2
*ACTIVE
 70
     0
 10
0.0
 20
0.0
 11
1.0
 21
1.0
 12
226.69153
 22
204.369949
 13
0.0
 23
0.0
 14
10.0
 24
10.0
 15
10.0
 25
10.0
 16
0.0
 26
0.0
 36
1.0
 17
0.0
 27
0.0
 37
0.0
 40
255.686473
 41
1.658281
 42
50.0
 43
0.0
 44
0.0
 50
0.0
 51
0.0
 71
     0
 72
   100
 73
     1
 74
     0
 75
     0
 76
     0
 77
     0
 78
     0
  0
ENDTAB
  0
TABLE
  2
LTYPE
 70
     1
  0
LTYPE
  2
CONTINUOUS
 70
    64
  3
Solid line
 72
    65
 73
     0
 40
0.0
  0
ENDTAB
  0
TABLE
  2
LAYER
 70
     3
  0
LAYER
  2
0
 70
     0
 62
     7
  6
CONTINUOUS
  0
LAYER
  2
110-1MEK
 70
    65
 62
    -3
  6
CONTINUOUS
  0
LAYER
  2
KOMPONENT
 70
    64
 62
    10
  6
CONTINUOUS
  0
ENDTAB
  0
TABLE
  2
STYLE
 70
     2
  0
STYLE
  2
STANDARD
 70
     0
 40
0.0
 41
1.0
 50
0.0
 71
     0
 42
3.5
  3
txt
  4

  0
STYLE
  2
UVB
 70
    64
 40
0.0
 41
1.0
 50
0.0
 71
     0
 42
2.0
  3
C:\ACLTWIN\FONTS\UVB.SHX
  4

  0
ENDTAB
  0
TABLE
  2
VIEW
 70
     0
  0
ENDTAB
  0
TABLE
  2
UCS
 70
     0
  0
ENDTAB
  0
TABLE
  2
APPID
 70
     1
  0
APPID
  2
ACAD
 70
    64
  0
ENDTAB
  0
TABLE
  2
DIMSTYLE
 70
     0
  0
ENDTAB
  0
ENDSEC
  0
SECTION
  2
BLOCKS
  0
BLOCK
  8
0
  2
ACAD1612
 70
    64
 10
0.0
 20
0.0
 30
0.0
  3
ACAD1612
  0
TEXT
  8
KOMPONENT
 62
     7
 10
215.612561
 20
84.196269
 30
0.0
 40
2.0
  1
48 - 65 
  7
UVB
  0
TEXT
  8
KOMPONENT
 62
     7
 10
215.612561
 20
87.613592
 30
0.0
 40
2.0
  1
90 - 250 
  7
UVB
  0
POLYLINE
  8
KOMPONENT
 62
     7
 66
     1
 10
0.0
 20
0.0
 30
0.0
 40
0.2
 41
0.2
  0
VERTEX
  8
KOMPONENT
 62
     7
 10
238.49155
 20
89.622156
 30
0.0
  0
VERTEX
  8
KOMPONENT
 62
     7
 10
238.49155
 20
80.774186
 30
0.0
 42
-0.414214
  0
VERTEX
  8
KOMPONENT
 62
     7
 10
237.69155
 20
79.974186
 30
0.0
  0
VERTEX
  8
KOMPONENT
 62
     7
 10
215.682899
 20
79.974186
 30
0.0
 42
-0.414214
  0
VERTEX
  8
KOMPONENT
 62
     7
 10
214.882899
 20
80.774186
 30
0.0
  0
VERTEX
  8
KOMPONENT
 62
     7
 10
214.882899
 20
89.622156
 30
0.0
 42
-0.414214
  0
VERTEX
  8
KOMPONENT
 62
     7
 10
215.682899
 20
90.422156
 30
0.0
  0
VERTEX
  8
KOMPONENT
 62
     7
 10
237.69155
 20
90.422156
 30
0.0
 42
-0.414214
  0
VERTEX
  8
KOMPONENT
 62
     7
 10
238.49155
 20
89.622156
 30
0.0
  0
SEQEND
  8
KOMPONENT
 62
     7
  0
INSERT
  8
KOMPONENT
  2
27
 10
217.6873
 20
109.6341
 30
0.0
  0
POLYLINE
  8
KOMPONENT
 66
     1
 10
0.0
 20
0.0
 30
0.0
  0
VERTEX
  8
KOMPONENT
 10
14.69153
 20
76.526712
 30
0.0
  0
VERTEX
  8
KOMPONENT
 10
438.69153
 20
76.526712
 30
0.0
  0
VERTEX
  8
KOMPONENT
 10
438.69153
 20
118.525412
 30
0.0
  0
SEQEND
  8
110-1MEK
  0
POLYLINE
  8
KOMPONENT
 66
     1
 10
0.0
 20
0.0
 30
0.0
  0
VERTEX
  8
KOMPONENT
 10
14.69153
 20
118.525412
 30
0.0
  0
VERTEX
  8
KOMPONENT
 10
438.69153
 20
118.525412
 30
0.0
  0
SEQEND
  8
110-1MEK
  0
POLYLINE
  8
KOMPONENT
 62
     7
 39
0.2
 66
     1
 10
0.0
 20
0.0
 30
0.0
 40
0.1
 41
0.1
  0
VERTEX
  8
KOMPONENT
 62
     7
 39
0.2
 10
209.356133
 20
116.025412
 30
0.0
  0
VERTEX
  8
KOMPONENT
 62
     7
 39
0.2
 10
209.356133
 20
101.334141
 30
0.0
  0
VERTEX
  8
KOMPONENT
 62
     7
 39
0.2
 10
253.376634
 20
101.334141
 30
0.0
  0
VERTEX
  8
KOMPONENT
 62
     7
 39
0.2
 10
253.376634
 20
116.025412
 30
0.0
  0
SEQEND
  8
KOMPONENT
 62
     7
  0
POLYLINE
  8
KOMPONENT
 62
     7
 39
0.2
 66
     1
 10
0.0
 20
0.0
 30
0.0
 40
0.2
 41
0.2
  0
VERTEX
  8
KOMPONENT
 62
     7
 39
0.2
 10
101.022137
 20
116.025412
 30
0.0
  0
VERTEX
  8
KOMPONENT
 62
     7
 39
0.2
 10
101.022137
 20
101.334141
 30
0.0
  0
VERTEX
  8
KOMPONENT
 62
     7
 39
0.2
 10
64.6873
 20
101.334141
 30
0.0
  0
VERTEX
  8
KOMPONENT
 62
     7
 39
0.2
 10
64.6873
 20
116.025412
 30
0.0
  0
SEQEND
  8
KOMPONENT
 62
     7
 39
0.2
  0
POLYLINE
  8
KOMPONENT
 62
     7
 39
0.2
 66
     1
 10
0.0
 20
0.0
 30
0.0
 40
0.1
 41
0.1
  0
VERTEX
  8
KOMPONENT
 62
     7
 39
0.2
 10
137.467602
 20
116.025412
 30
0.0
  0
VERTEX
  8
KOMPONENT
 62
     7
 39
0.2
 10
137.467602
 20
101.334141
 30
0.0
  0
VERTEX
  8
KOMPONENT
 62
     7
 39
0.2
 10
191.309191
 20
101.334141
 30
0.0
  0
VERTEX
  8
KOMPONENT
 62
     7
 39
0.2
 10
191.309191
 20
116.025412
 30
0.0
  0
SEQEND
  8
KOMPONENT
 62
     7
  0
POLYLINE
  8
KOMPONENT
 62
     7
 39
0.2
 66
     1
 10
0.0
 20
0.0
 30
0.0
 40
0.2
 41
0.2
  0
VERTEX
  8
KOMPONENT
 62
     7
 39
0.2
 10
208.80435
 20
79.026712
 30
0.0
  0
VERTEX
  8
KOMPONENT
 62
     7
 39
0.2
 10
208.80435
 20
93.717984
 30
0.0
  0
SEQEND
  8
KOMPONENT
 62
     7
  0
POLYLINE
  8
KOMPONENT
 62
     7
 39
0.2
 66
     1
 10
0.0
 20
0.0
 30
0.0
 40
0.2
 41
0.2
  0
VERTEX
  8
KOMPONENT
 62
     7
 39
0.2
 10
100.485923
 20
79.026712
 30
0.0
  0
VERTEX
  8
KOMPONENT
 62
     7
 39
0.2
 10
100.485923
 20
93.717984
 30
0.0
  0
SEQEND
  8
KOMPONENT
 62
     7
  0
POLYLINE
  8
KOMPONENT
 62
     7
 39
0.2
 66
     1
 10
0.0
 20
0.0
 30
0.0
 40
0.2
 41
0.2
  0
VERTEX
  8
KOMPONENT
 62
     7
 39
0.2
 10
136.888584
 20
79.026712
 30
0.0
  0
VERTEX
  8
KOMPONENT
 62
     7
 39
0.2
 10
136.888584
 20
93.717984
 30
0.0
  0
SEQEND
  8
KOMPONENT
 62
     7
  0
POLYLINE
  8
KOMPONENT
 62
     7
 39
0.2
 66
     1
 10
0.0
 20
0.0
 30
0.0
 40
0.2
 41
0.2
  0
VERTEX
  8
KOMPONENT
 62
     7
 39
0.2
 10
172.570157
 20
79.026712
 30
0.0
  0
VERTEX
  8
KOMPONENT
 62
     7
 39
0.2
 10
172.570157
 20
93.717984
 30
0.0
  0
SEQEND
  8
KOMPONENT
 62
     7
  0
TEXT
  8
KOMPONENT
 62
     7
 10
79.362048
 20
115.031134
 30
0.0
 40
2.0
  1
OUT
  7
UVB
  0
LINE
  8
KOMPONENT
 10
15.694818
 20
112.029533
 30
0.0
 11
15.694818
 21
85.029533
 31
0.0
  0
LINE
  8
KOMPONENT
 10
41.694818
 20
85.029533
 30
0.0
 11
41.694818
 21
112.029533
 31
0.0
  0
LINE
  8
KOMPONENT
 10
16.095528
 20
111.668533
 30
0.0
 11
16.095528
 21
85.390533
 31
0.0
  0
LINE
  8
KOMPONENT
 10
41.294108
 20
85.390533
 30
0.0
 11
41.294108
 21
111.668533
 31
0.0
  0
ARC
  8
KOMPONENT
 10
28.694818
 20
98.529533
 30
0.0
 40
8.0
 50
0.0
 51
359.309777
  0
INSERT
  8
KOMPONENT
  2
27
 10
73.687253
 20
109.634121
 30
0.0
 41
-1.0
  0
POLYLINE
  8
KOMPONENT
 66
     1
 10
0.0
 20
0.0
 30
0.0
  0
VERTEX
  8
KOMPONENT
 10
14.69153
 20
76.526712
 30
0.0
  0
VERTEX
  8
KOMPONENT
 10
14.69153
 20
118.525412
 30
0.0
  0
SEQEND
  8
110-1MEK
  0
ARC
  8
KOMPONENT
 10
53.294835
 20
100.129541
 30
0.0
 40
11.0
 50
102.677527
 51
102.671244
  0
ARC
  8
KOMPONENT
 10
53.294835
 20
100.129541
 30
0.0
 40
7.5
 50
146.023885
 51
144.000292
  0
TEXT
  8
KOMPONENT
 62
     7
 10
47.783007
 20
79.643777
 30
0.0
 40
2.0
  1
AUDIO 1
  7
UVB
 72
     1
 11
53.294818
 21
79.643777
 31
0.0
  0
TEXT
  8
KOMPONENT
 62
     7
 10
47.168833
 20
82.443777
 30
0.0
 40
2.0
  1
AES/EBU
  7
UVB
 72
     1
 11
53.294818
 21
82.443777
 31
0.0
  0
POLYLINE
  8
KOMPONENT
 66
     1
 10
0.0
 20
0.0
 30
0.0
  0
VERTEX
  8
KOMPONENT
 10
16.69153
 20
83.299385
 30
0.0
  0
VERTEX
  8
KOMPONENT
 10
16.69153
 20
78.526712
 30
0.0
  0
SEQEND
  8
110-1MEK
  0
LINE
  8
KOMPONENT
 10
17.694818
 20
83.029533
 30
0.0
 11
39.694818
 21
83.029533
 31
0.0
  0
LINE
  8
KOMPONENT
 10
18.023328
 20
83.462733
 30
0.0
 11
39.366308
 21
83.462733
 31
0.0
  0
TEXT
  8
KOMPONENT
 62
     7
 10
21.151511
 20
79.643777
 30
0.0
 40
2.0
  1
TIME CODE
  7
UVB
 72
     1
 11
28.694818
 21
79.643777
 31
0.0
  0
ARC
  8
KOMPONENT
 10
17.694818
 20
85.029533
 30
0.0
 40
2.0
 50
180.0
 51
270.0
  0
ARC
  8
KOMPONENT
 10
18.023328
 20
85.390533
 30
0.0
 40
1.9278
 50
180.0
 51
270.0
  0
ARC
  8
KOMPONENT
 10
28.694818
 20
94.779533
 30
0.0
 40
1.25
 50
3.871041
 51
357.229837
  0
ARC
  8
KOMPONENT
 10
24.944818
 20
98.529533
 30
0.0
 40
1.25
 50
3.871041
 51
357.229837
  0
ARC
  8
KOMPONENT
 10
38.194818
 20
86.529533
 30
0.0
 40
2.25
 50
181.123096
 51
180.0
  0
ARC
  8
KOMPONENT
 10
39.366308
 20
85.390533
 30
0.0
 40
1.9278
 50
270.0
 51
360.0
  0
POLYLINE
  8
KOMPONENT
 66
     1
 10
0.0
 20
0.0
 30
0.0
  0
VERTEX
  8
KOMPONENT
 10
37.913568
 20
86.248283
 30
0.0
  0
VERTEX
  8
KOMPONENT
 10
37.069818
 20
86.248283
 30
0.0
  0
SEQEND
  8
KOMPONENT
  0
POLYLINE
  8
KOMPONENT
 66
     1
 10
0.0
 20
0.0
 30
0.0
  0
VERTEX
  8
KOMPONENT
 10
39.319818
 20
86.248283
 30
0.0
  0
VERTEX
  8
KOMPONENT
 10
38.476068
 20
86.248283
 30
0.0
  0
SEQEND
  8
KOMPONENT
  0
POLYLINE
  8
KOMPONENT
 66
     1
 10
0.0
 20
0.0
 30
0.0
  0
VERTEX
  8
KOMPONENT
 10
37.913568
 20
86.810783
 30
0.0
  0
VERTEX
  8
KOMPONENT
 10
37.069818
 20
86.810783
 30
0.0
  0
SEQEND
  8
KOMPONENT
  0
POLYLINE
  8
KOMPONENT
 66
     1
 10
0.0
 20
0.0
 30
0.0
  0
VERTEX
  8
KOMPONENT
 10
39.319818
 20
86.810783
 30
0.0
  0
VERTEX
  8
KOMPONENT
 10
38.476068
 20
86.810783
 30
0.0
  0
SEQEND
  8
KOMPONENT
  0
POLYLINE
  8
KOMPONENT
 66
     1
 10
0.0
 20
0.0
 30
0.0
  0
VERTEX
  8
KOMPONENT
 10
37.913568
 20
86.810783
 30
0.0
  0
VERTEX
  8
KOMPONENT
 10
37.913568
 20
87.654533
 30
0.0
  0
SEQEND
  8
KOMPONENT
  0
POLYLINE
  8
KOMPONENT
 66
     1
 10
0.0
 20
0.0
 30
0.0
  0
VERTEX
  8
KOMPONENT
 10
37.913568
 20
85.404533
 30
0.0
  0
VERTEX
  8
KOMPONENT
 10
37.913568
 20
86.248283
 30
0.0
  0
SEQEND
  8
KOMPONENT
  0
POLYLINE
  8
KOMPONENT
 66
     1
 10
0.0
 20
0.0
 30
0.0
  0
VERTEX
  8
KOMPONENT
 10
38.476068
 20
86.810783
 30
0.0
  0
VERTEX
  8
KOMPONENT
 10
38.476068
 20
87.654533
 30
0.0
  0
SEQEND
  8
KOMPONENT
  0
POLYLINE
  8
KOMPONENT
 66
     1
 10
0.0
 20
0.0
 30
0.0
  0
VERTEX
  8
KOMPONENT
 10
38.476068
 20
85.404533
 30
0.0
  0
VERTEX
  8
KOMPONENT
 10
38.476068
 20
86.248283
 30
0.0
  0
SEQEND
  8
KOMPONENT
  0
POLYLINE
  8
KOMPONENT
 66
     1
 10
0.0
 20
0.0
 30
0.0
  0
VERTEX
  8
KOMPONENT
 10
38.476068
 20
87.654533
 30
0.0
  0
VERTEX
  8
KOMPONENT
 10
37.913568
 20
87.654533
 30
0.0
  0
SEQEND
  8
KOMPONENT
  0
POLYLINE
  8
KOMPONENT
 66
     1
 10
0.0
 20
0.0
 30
0.0
  0
VERTEX
  8
KOMPONENT
 10
37.069818
 20
86.248283
 30
0.0
  0
VERTEX
  8
KOMPONENT
 10
37.069818
 20
86.810783
 30
0.0
  0
SEQEND
  8
KOMPONENT
  0
POLYLINE
  8
KOMPONENT
 66
     1
 10
0.0
 20
0.0
 30
0.0
  0
VERTEX
  8
KOMPONENT
 10
38.476068
 20
85.404533
 30
0.0
  0
VERTEX
  8
KOMPONENT
 10
37.913568
 20
85.404533
 30
0.0
  0
SEQEND
  8
KOMPONENT
  0
POLYLINE
  8
KOMPONENT
 66
     1
 10
0.0
 20
0.0
 30
0.0
  0
VERTEX
  8
KOMPONENT
 10
39.319818
 20
86.248283
 30
0.0
  0
VERTEX
  8
KOMPONENT
 10
39.319818
 20
86.810783
 30
0.0
  0
SEQEND
  8
KOMPONENT
  0
ARC
  8
KOMPONENT
 10
39.694818
 20
85.029533
 30
0.0
 40
2.0
 50
270.0
 51
0.0
  0
ARC
  8
KOMPONENT
 10
32.444818
 20
98.529533
 30
0.0
 40
1.25
 50
3.871041
 51
357.229837
  0
ARC
  8
KOMPONENT
 10
61.694835
 20
88.929541
 30
0.0
 40
2.25
 50
0.0
 51
358.876904
  0
POLYLINE
  8
KOMPONENT
 66
     1
 10
0.0
 20
0.0
 30
0.0
  0
VERTEX
  8
KOMPONENT
 10
60.569835
 20
89.210791
 30
0.0
  0
VERTEX
  8
KOMPONENT
 10
61.413585
 20
89.210791
 30
0.0
  0
SEQEND
  8
110-1MEK
  0
POLYLINE
  8
KOMPONENT
 66
     1
 10
0.0
 20
0.0
 30
0.0
  0
VERTEX
  8
KOMPONENT
 10
60.569835
 20
88.648291
 30
0.0
  0
VERTEX
  8
KOMPONENT
 10
61.413585
 20
88.648291
 30
0.0
  0
SEQEND
  8
110-1MEK
  0
POLYLINE
  8
KOMPONENT
 66
     1
 10
0.0
 20
0.0
 30
0.0
  0
VERTEX
  8
KOMPONENT
 10
60.569835
 20
88.648291
 30
0.0
 50
90.0
  0
VERTEX
  8
KOMPONENT
 10
60.569835
 20
89.210791
 30
0.0
 50
90.0
  0
SEQEND
  8
110-1MEK
  0
POLYLINE
  8
KOMPONENT
 66
     1
 10
0.0
 20
0.0
 30
0.0
  0
VERTEX
  8
KOMPONENT
 10
61.976085
 20
89.210791
 30
0.0
  0
VERTEX
  8
KOMPONENT
 10
62.819835
 20
89.210791
 30
0.0
  0
SEQEND
  8
110-1MEK
  0
POLYLINE
  8
KOMPONENT
 66
     1
 10
0.0
 20
0.0
 30
0.0
  0
VERTEX
  8
KOMPONENT
 10
61.976085
 20
88.648291
 30
0.0
  0
VERTEX
  8
KOMPONENT
 10
62.819835
 20
88.648291
 30
0.0
  0
SEQEND
  8
110-1MEK
  0
POLYLINE
  8
KOMPONENT
 66
     1
 10
0.0
 20
0.0
 30
0.0
  0
VERTEX
  8
KOMPONENT
 10
61.413585
 20
89.210791
 30
0.0
 50
90.0
  0
VERTEX
  8
KOMPONENT
 10
61.413585
 20
90.054541
 30
0.0
 50
90.0
  0
SEQEND
  8
110-1MEK
  0
POLYLINE
  8
KOMPONENT
 66
     1
 10
0.0
 20
0.0
 30
0.0
  0
VERTEX
  8
KOMPONENT
 10
61.976085
 20
89.210791
 30
0.0
 50
90.0
  0
VERTEX
  8
KOMPONENT
 10
61.976085
 20
90.054541
 30
0.0
 50
90.0
  0
SEQEND
  8
110-1MEK
  0
POLYLINE
  8
KOMPONENT
 66
     1
 10
0.0
 20
0.0
 30
0.0
  0
VERTEX
  8
KOMPONENT
 10
61.413585
 20
87.804541
 30
0.0
  0
VERTEX
  8
KOMPONENT
 10
61.976085
 20
87.804541
 30
0.0
  0
SEQEND
  8
110-1MEK
  0
POLYLINE
  8
KOMPONENT
 66
     1
 10
0.0
 20
0.0
 30
0.0
  0
VERTEX
  8
KOMPONENT
 10
61.413585
 20
87.804541
 30
0.0
 50
90.0
  0
VERTEX
  8
KOMPONENT
 10
61.413585
 20
88.648291
 30
0.0
 50
90.0
  0
SEQEND
  8
110-1MEK
  0
POLYLINE
  8
KOMPONENT
 66
     1
 10
0.0
 20
0.0
 30
0.0
  0
VERTEX
  8
KOMPONENT
 10
61.976085
 20
87.804541
 30
0.0
 50
90.0
  0
VERTEX
  8
KOMPONENT
 10
61.976085
 20
88.648291
 30
0.0
 50
90.0
  0
SEQEND
  8
110-1MEK
  0
POLYLINE
  8
KOMPONENT
 66
     1
 10
0.0
 20
0.0
 30
0.0
  0
VERTEX
  8
KOMPONENT
 10
61.413585
 20
90.054541
 30
0.0
  0
VERTEX
  8
KOMPONENT
 10
61.976085
 20
90.054541
 30
0.0
  0
SEQEND
  8
110-1MEK
  0
POLYLINE
  8
KOMPONENT
 66
     1
 10
0.0
 20
0.0
 30
0.0
  0
VERTEX
  8
KOMPONENT
 10
62.819835
 20
88.648291
 30
0.0
 50
90.0
  0
VERTEX
  8
KOMPONENT
 10
62.819835
 20
89.210791
 30
0.0
 50
90.0
  0
SEQEND
  8
110-1MEK
  0
ARC
  8
KOMPONENT
 10
57.294835
 20
100.129541
 30
0.0
 40
1.0
 50
138.01405
 51
130.174742
  0
ARC
  8
KOMPONENT
 10
53.294835
 20
96.129541
 30
0.0
 40
1.0
 50
128.620278
 51
122.632385
  0
ARC
  8
KOMPONENT
 10
49.294835
 20
100.129541
 30
0.0
 40
1.0
 50
137.681188
 51
129.84529
  0
INSERT
  8
KOMPONENT
  2
27
 10
73.687253
 20
93.034121
 30
0.0
  0
TEXT
  8
KOMPONENT
 62
     7
 10
67.561269
 20
82.443777
 30
0.0
 40
2.0
  1
AES/EBU
  7
UVB
 72
     1
 11
73.687253
 21
82.443777
 31
0.0
  0
TEXT
  8
KOMPONENT
 62
     7
 10
68.175442
 20
79.643777
 30
0.0
 40
2.0
  1
AUDIO 1
  7
UVB
 72
     1
 11
73.687253
 21
79.643777
 31
0.0
  0
LINE
  8
KOMPONENT
 10
39.694818
 20
114.029533
 30
0.0
 11
17.694818
 21
114.029533
 31
0.0
  0
LINE
  8
KOMPONENT
 10
39.366308
 20
113.596333
 30
0.0
 11
18.023328
 21
113.596333
 31
0.0
  0
ARC
  8
KOMPONENT
 10
17.694818
 20
112.029533
 30
0.0
 40
2.0
 50
90.0
 51
180.0
  0
ARC
  8
KOMPONENT
 10
18.023328
 20
111.668533
 30
0.0
 40
1.9278
 50
90.0
 51
180.0
  0
ARC
  8
KOMPONENT
 10
19.194818
 20
110.529533
 30
0.0
 40
2.25
 50
181.123096
 51
180.0
  0
POLYLINE
  8
KOMPONENT
 66
     1
 10
0.0
 20
0.0
 30
0.0
  0
VERTEX
  8
KOMPONENT
 10
20.319818
 20
110.248283
 30
0.0
  0
VERTEX
  8
KOMPONENT
 10
20.319818
 20
110.810783
 30
0.0
  0
SEQEND
  8
KOMPONENT
  0
POLYLINE
  8
KOMPONENT
 66
     1
 10
0.0
 20
0.0
 30
0.0
  0
VERTEX
  8
KOMPONENT
 10
19.476068
 20
109.404533
 30
0.0
  0
VERTEX
  8
KOMPONENT
 10
18.913568
 20
109.404533
 30
0.0
  0
SEQEND
  8
KOMPONENT
  0
POLYLINE
  8
KOMPONENT
 66
     1
 10
0.0
 20
0.0
 30
0.0
  0
VERTEX
  8
KOMPONENT
 10
18.069818
 20
110.248283
 30
0.0
  0
VERTEX
  8
KOMPONENT
 10
18.069818
 20
110.810783
 30
0.0
  0
SEQEND
  8
KOMPONENT
  0
POLYLINE
  8
KOMPONENT
 66
     1
 10
0.0
 20
0.0
 30
0.0
  0
VERTEX
  8
KOMPONENT
 10
19.476068
 20
111.654533
 30
0.0
  0
VERTEX
  8
KOMPONENT
 10
18.913568
 20
111.654533
 30
0.0
  0
SEQEND
  8
KOMPONENT
  0
POLYLINE
  8
KOMPONENT
 66
     1
 10
0.0
 20
0.0
 30
0.0
  0
VERTEX
  8
KOMPONENT
 10
19.476068
 20
109.404533
 30
0.0
  0
VERTEX
  8
KOMPONENT
 10
19.476068
 20
110.248283
 30
0.0
  0
SEQEND
  8
KOMPONENT
  0
POLYLINE
  8
KOMPONENT
 66
     1
 10
0.0
 20
0.0
 30
0.0
  0
VERTEX
  8
KOMPONENT
 10
19.476068
 20
110.810783
 30
0.0
  0
VERTEX
  8
KOMPONENT
 10
19.476068
 20
111.654533
 30
0.0
  0
SEQEND
  8
KOMPONENT
  0
POLYLINE
  8
KOMPONENT
 66
     1
 10
0.0
 20
0.0
 30
0.0
  0
VERTEX
  8
KOMPONENT
 10
18.913568
 20
109.404533
 30
0.0
  0
VERTEX
  8
KOMPONENT
 10
18.913568
 20
110.248283
 30
0.0
  0
SEQEND
  8
KOMPONENT
  0
POLYLINE
  8
KOMPONENT
 66
     1
 10
0.0
 20
0.0
 30
0.0
  0
VERTEX
  8
KOMPONENT
 10
18.913568
 20
110.810783
 30
0.0
  0
VERTEX
  8
KOMPONENT
 10
18.913568
 20
111.654533
 30
0.0
  0
SEQEND
  8
KOMPONENT
  0
POLYLINE
  8
KOMPONENT
 66
     1
 10
0.0
 20
0.0
 30
0.0
  0
VERTEX
  8
KOMPONENT
 10
20.319818
 20
110.810783
 30
0.0
  0
VERTEX
  8
KOMPONENT
 10
19.476068
 20
110.810783
 30
0.0
  0
SEQEND
  8
KOMPONENT
  0
POLYLINE
  8
KOMPONENT
 66
     1
 10
0.0
 20
0.0
 30
0.0
  0
VERTEX
  8
KOMPONENT
 10
18.913568
 20
110.810783
 30
0.0
  0
VERTEX
  8
KOMPONENT
 10
18.069818
 20
110.810783
 30
0.0
  0
SEQEND
  8
KOMPONENT
  0
POLYLINE
  8
KOMPONENT
 66
     1
 10
0.0
 20
0.0
 30
0.0
  0
VERTEX
  8
KOMPONENT
 10
20.319818
 20
110.248283
 30
0.0
  0
VERTEX
  8
KOMPONENT
 10
19.476068
 20
110.248283
 30
0.0
  0
SEQEND
  8
KOMPONENT
  0
POLYLINE
  8
KOMPONENT
 66
     1
 10
0.0
 20
0.0
 30
0.0
  0
VERTEX
  8
KOMPONENT
 10
18.913568
 20
110.248283
 30
0.0
  0
VERTEX
  8
KOMPONENT
 10
18.069818
 20
110.248283
 30
0.0
  0
SEQEND
  8
KOMPONENT
  0
POLYLINE
  8
KOMPONENT
 66
     1
 10
0.0
 20
0.0
 30
0.0
 70
     1
  0
VERTEX
  8
KOMPONENT
 10
27.660401
 20
102.205576
 30
0.0
  0
VERTEX
  8
KOMPONENT
 10
29.729235
 20
102.205576
 30
0.0
  0
VERTEX
  8
KOMPONENT
 10
29.729235
 20
102.353491
 30
0.0
  0
VERTEX
  8
KOMPONENT
 10
27.660401
 20
102.353491
 30
0.0
  0
SEQEND
  8
KOMPONENT
  0
POLYLINE
  8
KOMPONENT
 66
     1
 10
0.0
 20
0.0
 30
0.0
  0
VERTEX
  8
KOMPONENT
 10
16.69153
 20
118.525412
 30
0.0
  0
VERTEX
  8
KOMPONENT
 10
16.69153
 20
113.759682
 30
0.0
  0
SEQEND
  8
KOMPONENT
  0
ARC
  8
KOMPONENT
 10
39.694818
 20
112.029533
 30
0.0
 40
2.0
 50
0.0
 51
90.0
  0
ARC
  8
KOMPONENT
 10
39.366308
 20
111.668533
 30
0.0
 40
1.9278
 50
0.0
 51
90.0
  0
ARC
  8
KOMPONENT
 10
44.894835
 20
111.329541
 30
0.0
 40
2.25
 50
0.0
 51
358.876904
  0
POLYLINE
  8
KOMPONENT
 66
     1
 10
0.0
 20
0.0
 30
0.0
  0
VERTEX
  8
KOMPONENT
 10
45.176085
 20
111.048291
 30
0.0
  0
VERTEX
  8
KOMPONENT
 10
46.019835
 20
111.048291
 30
0.0
  0
SEQEND
  8
110-1MEK
  0
POLYLINE
  8
KOMPONENT
 66
     1
 10
0.0
 20
0.0
 30
0.0
  0
VERTEX
  8
KOMPONENT
 10
45.176085
 20
111.610791
 30
0.0
  0
VERTEX
  8
KOMPONENT
 10
46.019835
 20
111.610791
 30
0.0
  0
SEQEND
  8
110-1MEK
  0
POLYLINE
  8
KOMPONENT
 66
     1
 10
0.0
 20
0.0
 30
0.0
  0
VERTEX
  8
KOMPONENT
 10
44.613585
 20
112.454541
 30
0.0
  0
VERTEX
  8
KOMPONENT
 10
45.176085
 20
112.454541
 30
0.0
  0
SEQEND
  8
110-1MEK
  0
POLYLINE
  8
KOMPONENT
 66
     1
 10
0.0
 20
0.0
 30
0.0
  0
VERTEX
  8
KOMPONENT
 10
44.613585
 20
110.204541
 30
0.0
  0
VERTEX
  8
KOMPONENT
 10
45.176085
 20
110.204541
 30
0.0
  0
SEQEND
  8
110-1MEK
  0
POLYLINE
  8
KOMPONENT
 66
     1
 10
0.0
 20
0.0
 30
0.0
  0
VERTEX
  8
KOMPONENT
 10
43.769835
 20
111.048291
 30
0.0
 50
90.0
  0
VERTEX
  8
KOMPONENT
 10
43.769835
 20
111.610791
 30
0.0
 50
90.0
  0
SEQEND
  8
110-1MEK
  0
POLYLINE
  8
KOMPONENT
 66
     1
 10
0.0
 20
0.0
 30
0.0
  0
VERTEX
  8
KOMPONENT
 10
43.769835
 20
111.048291
 30
0.0
  0
VERTEX
  8
KOMPONENT
 10
44.613585
 20
111.048291
 30
0.0
  0
SEQEND
  8
110-1MEK
  0
POLYLINE
  8
KOMPONENT
 66
     1
 10
0.0
 20
0.0
 30
0.0
  0
VERTEX
  8
KOMPONENT
 10
45.176085
 20
110.204541
 30
0.0
 50
90.0
  0
VERTEX
  8
KOMPONENT
 10
45.176085
 20
111.048291
 30
0.0
 50
90.0
  0
SEQEND
  8
110-1MEK
  0
POLYLINE
  8
KOMPONENT
 66
     1
 10
0.0
 20
0.0
 30
0.0
  0
VERTEX
  8
KOMPONENT
 10
44.613585
 20
110.204541
 30
0.0
 50
90.0
  0
VERTEX
  8
KOMPONENT
 10
44.613585
 20
111.048291
 30
0.0
 50
90.0
  0
SEQEND
  8
110-1MEK
  0
POLYLINE
  8
KOMPONENT
 66
     1
 10
0.0
 20
0.0
 30
0.0
  0
VERTEX
  8
KOMPONENT
 10
43.769835
 20
111.610791
 30
0.0
  0
VERTEX
  8
KOMPONENT
 10
44.613585
 20
111.610791
 30
0.0
  0
SEQEND
  8
110-1MEK
  0
POLYLINE
  8
KOMPONENT
 66
     1
 10
0.0
 20
0.0
 30
0.0
  0
VERTEX
  8
KOMPONENT
 10
45.176085
 20
111.610791
 30
0.0
 50
90.0
  0
VERTEX
  8
KOMPONENT
 10
45.176085
 20
112.454541
 30
0.0
 50
90.0
  0
SEQEND
  8
110-1MEK
  0
POLYLINE
  8
KOMPONENT
 66
     1
 10
0.0
 20
0.0
 30
0.0
  0
VERTEX
  8
KOMPONENT
 10
44.613585
 20
111.610791
 30
0.0
 50
90.0
  0
VERTEX
  8
KOMPONENT
 10
44.613585
 20
112.454541
 30
0.0
 50
90.0
  0
SEQEND
  8
110-1MEK
  0
POLYLINE
  8
KOMPONENT
 66
     1
 10
0.0
 20
0.0
 30
0.0
  0
VERTEX
  8
KOMPONENT
 10
46.019835
 20
111.048291
 30
0.0
 50
90.0
  0
VERTEX
  8
KOMPONENT
 10
46.019835
 20
111.610791
 30
0.0
 50
90.0
  0
SEQEND
  8
110-1MEK
  0
POLYLINE
  8
KOMPONENT
 62
     7
 66
     1
 10
0.0
 20
0.0
 30
0.0
 70
     1
  0
VERTEX
  8
KOMPONENT
 62
     7
 10
62.274461
 20
114.131792
 30
0.0
  0
VERTEX
  8
KOMPONENT
 62
     7
 10
64.010411
 20
113.129541
 30
0.0
  0
VERTEX
  8
KOMPONENT
 62
     7
 10
62.274461
 20
112.12729
 30
0.0
  0
SEQEND
  8
KOMPONENT
 62
     7
  0
TEXT
  8
KOMPONENT
 62
     7
 10
48.446377
 20
112.118866
 30
0.0
 40
2.0
  1
SDI GENL
  7
UVB
  0
TEXT
  8
KOMPONENT
 62
     7
 10
145.671505
 20
79.64049
 30
0.0
 40
2.0
  1
  ANL    TPG 5
  7
UVB
 72
     1
 11
154.687253
 21
79.64049
 31
0.0
  0
TEXT
  8
KOMPONENT
 62
     7
 10
145.828986
 20
82.443777
 30
0.0
 40
2.0
  1
  SDI     TPG 5
  7
UVB
 72
     1
 11
154.687253
 21
82.443777
 31
0.0
  0
INSERT
  8
KOMPONENT
  2
27
 10
145.687253
 20
109.634121
 30
0.0
  0
INSERT
  8
KOMPONENT
  2
27
 10
145.687253
 20
93.034121
 30
0.0
  0
INSERT
  8
KOMPONENT
  2
27
 10
109.687253
 20
109.634121
 30
0.0
 41
-1.0
  0
INSERT
  8
KOMPONENT
  2
27
 10
91.687253
 20
109.634121
 30
0.0
 41
-1.0
  0
TEXT
  8
KOMPONENT
 62
     7
 10
109.703001
 20
82.443777
 30
0.0
 40
2.0
  1
  SDI     TSG 4
  7
UVB
 72
     1
 11
118.687253
 21
82.443777
 31
0.0
  0
INSERT
  8
KOMPONENT
  2
27
 10
109.687253
 20
93.034121
 30
0.0
  0
INSERT
  8
KOMPONENT
  2
27
 10
91.687253
 20
93.034121
 30
0.0
  0
TEXT
  8
KOMPONENT
 62
     7
 10
86.03371
 20
79.643777
 30
0.0
 40
2.0
  1
AUDIO 2
  7
UVB
 72
     1
 11
91.687253
 21
79.643777
 31
0.0
  0
TEXT
  8
KOMPONENT
 62
     7
 10
85.561269
 20
82.443777
 30
0.0
 40
2.0
  1
AES/EBU
  7
UVB
 72
     1
 11
91.687253
 21
82.443777
 31
0.0
  0
INSERT
  8
KOMPONENT
  2
27
 10
127.687253
 20
93.034121
 30
0.0
  0
POLYLINE
  8
KOMPONENT
 62
     7
 66
     1
 10
0.0
 20
0.0
 30
0.0
 40
0.225
 41
0.225
  0
VERTEX
  8
KOMPONENT
 62
     7
 10
117.343763
 20
83.17565
 30
0.0
  0
VERTEX
  8
KOMPONENT
 62
     7
 10
119.258084
 20
83.17565
 30
0.0
  0
SEQEND
  8
KOMPONENT
 62
     7
  0
TEXT
  8
KOMPONENT
 62
     7
 10
97.677785
 20
115.007506
 30
0.0
 40
2.0
  1
IN
  7
UVB
  0
TEXT
  8
KOMPONENT
 62
     7
 10
125.882132
 20
105.828597
 30
0.0
 40
2.0
  1
ANL BB
  7
UVB
  0
TEXT
  8
KOMPONENT
 62
     7
 10
125.882132
 20
108.630248
 30
0.0
 40
2.0
  1
SDI BLK
  7
UVB
  0
TEXT
  8
KOMPONENT
 62
     7
 10
118.392835
 20
111.426712
 30
0.0
 40
2.0
  1
CLOCK
  7
UVB
  0
TEXT
  8
KOMPONENT
 62
     7
 10
118.392835
 20
114.224288
 30
0.0
 40
2.0
  1
WORD
  7
UVB
  0
INSERT
  8
KOMPONENT
  2
27
 10
163.687253
 20
109.634121
 30
0.0
  0
TEXT
  8
KOMPONENT
 62
     7
 10
181.75812
 20
82.443777
 30
0.0
 40
2.0
  1
  SDI     TSG 3
  7
UVB
 72
     1
 11
190.687253
 21
82.443777
 31
0.0
  0
INSERT
  8
KOMPONENT
  2
27
 10
181.687253
 20
93.034121
 30
0.0
  0
INSERT
  8
KOMPONENT
  2
27
 10
163.687253
 20
93.034121
 30
0.0
  0
POLYLINE
  8
KOMPONENT
 62
     7
 66
     1
 10
0.0
 20
0.0
 30
0.0
 40
0.225
 41
0.225
  0
VERTEX
  8
KOMPONENT
 62
     7
 10
153.343763
 20
83.17565
 30
0.0
  0
VERTEX
  8
KOMPONENT
 62
     7
 10
155.258084
 20
83.17565
 30
0.0
  0
SEQEND
  8
KOMPONENT
 62
     7
  0
POLYLINE
  8
KOMPONENT
 62
     7
 66
     1
 10
0.0
 20
0.0
 30
0.0
 40
0.225
 41
0.225
  0
VERTEX
  8
KOMPONENT
 62
     7
 10
153.343763
 20
80.366266
 30
0.0
  0
VERTEX
  8
KOMPONENT
 62
     7
 10
155.258084
 20
80.366266
 30
0.0
  0
SEQEND
  8
KOMPONENT
 62
     7
  0
INSERT
  8
KOMPONENT
  2
27
 10
199.687253
 20
93.034121
 30
0.0
  0
POLYLINE
  8
KOMPONENT
 62
     7
 66
     1
 10
0.0
 20
0.0
 30
0.0
 40
0.225
 41
0.225
  0
VERTEX
  8
KOMPONENT
 62
     7
 10
189.343763
 20
83.17565
 30
0.0
  0
VERTEX
  8
KOMPONENT
 62
     7
 10
191.258084
 20
83.17565
 30
0.0
  0
SEQEND
  8
KOMPONENT
 62
     7
  0
TEXT
  8
KOMPONENT
 62
     7
 10
215.612561
 20
80.778947
 30
0.0
 40
2.0
  1
90 
  7
UVB
  0
TEXT
  8
KOMPONENT
 62
     7
 10
171.719764
 20
111.436884
 30
0.0
 40
2.0
  1
  SDI     TSG 2
  7
UVB
 72
     1
 11
180.664645
 21
111.436884
 31
0.0
  0
TEXT
  8
KOMPONENT
 62
     7
 10
171.798504
 20
108.633526
 30
0.0
 40
2.0
  1
  SDI     TPG 2
  7
UVB
 72
     1
 11
180.664645
 21
108.633526
 31
0.0
  0
TEXT
  8
KOMPONENT
 62
     7
 10
171.601065
 20
105.832132
 30
0.0
 40
2.0
  1
  ANL    TPG 2
  7
UVB
 72
     1
 11
180.624687
 21
105.832132
 31
0.0
  0
POLYLINE
  8
KOMPONENT
 62
     7
 66
     1
 10
0.0
 20
0.0
 30
0.0
 40
0.225
 41
0.225
  0
VERTEX
  8
KOMPONENT
 62
     7
 10
179.281197
 20
106.557909
 30
0.0
  0
VERTEX
  8
KOMPONENT
 62
     7
 10
181.195517
 20
106.557909
 30
0.0
  0
SEQEND
  8
KOMPONENT
 62
     7
  0
POLYLINE
  8
KOMPONENT
 62
     7
 66
     1
 10
0.0
 20
0.0
 30
0.0
 40
0.225
 41
0.225
  0
VERTEX
  8
KOMPONENT
 62
     7
 10
179.321155
 20
109.365399
 30
0.0
  0
VERTEX
  8
KOMPONENT
 62
     7
 10
181.235476
 20
109.365399
 30
0.0
  0
SEQEND
  8
KOMPONENT
 62
     7
  0
POLYLINE
  8
KOMPONENT
 62
     7
 66
     1
 10
0.0
 20
0.0
 30
0.0
 40
0.225
 41
0.225
  0
VERTEX
  8
KOMPONENT
 62
     7
 10
179.321155
 20
112.168757
 30
0.0
  0
VERTEX
  8
KOMPONENT
 62
     7
 10
181.235476
 20
112.168757
 30
0.0
  0
SEQEND
  8
KOMPONENT
 62
     7
  0
ARC
  8
KOMPONENT
 10
354.694818
 20
98.529533
 30
0.0
 40
18.0
 50
13.495892
 51
13.491455
  0
ARC
  8
KOMPONENT
 10
354.694818
 20
98.529533
 30
0.0
 40
9.0
 50
0.0
 51
359.385548
  0
ARC
  8
KOMPONENT
 10
354.694818
 20
98.529533
 30
0.0
 40
17.507005
 50
270.0
 51
315.0
  0
INSERT
  8
KOMPONENT
  2
27
 10
289.6873
 20
93.0341
 30
0.0
  0
INSERT
  8
KOMPONENT
  2
60
 10
260.689918
 20
111.228971
 30
0.0
  0
INSERT
  8
KOMPONENT
  2
60
 10
260.689918
 20
111.228971
 30
0.0
  0
TEXT
  8
KOMPONENT
 62
     7
 10
282.947096
 20
82.443777
 30
0.0
 40
2.0
  1
GENLOCK
  7
UVB
 72
     1
 11
289.687253
 21
82.443777
 31
0.0
  0
TEXT
  8
KOMPONENT
 62
     7
 10
282.939222
 20
79.643777
 30
0.0
 40
2.0
  1
MONITOR
  7
UVB
 72
     1
 11
289.687253
 21
79.643777
 31
0.0
  0
INSERT
  8
KOMPONENT
  2
27
 10
235.6873
 20
109.6341
 30
0.0
  0
INSERT
  8
KOMPONENT
  2
27
 10
253.6873
 20
93.0341
 30
0.0
  0
TEXT
  8
KOMPONENT
 62
     7
 10
250.655757
 20
82.443777
 30
0.0
 40
2.0
  1
BB 2
  7
UVB
 72
     1
 11
253.687253
 21
82.443777
 31
0.0
  0
TEXT
  8
KOMPONENT
 62
     7
 10
226.462053
 20
80.778947
 30
0.0
 40
2.0
  1
 VA max
  7
UVB
  0
TEXT
  8
KOMPONENT
 62
     7
 10
226.462053
 20
87.613592
 30
0.0
 40
2.0
  1
 VAC
  7
UVB
  0
TEXT
  8
KOMPONENT
 62
     7
 10
226.462053
 20
84.196269
 30
0.0
 40
2.0
  1
 Hz
  7
UVB
  0
INSERT
  8
KOMPONENT
  2
27
 10
271.6873
 20
93.0341
 30
0.0
  0
TEXT
  8
KOMPONENT
 62
     7
 10
268.79749
 20
82.443777
 30
0.0
 40
2.0
  1
BB 1
  7
UVB
 72
     1
 11
271.687253
 21
82.443777
 31
0.0
  0
TEXT
  8
KOMPONENT
 62
     7
 10
244.570157
 20
111.436883
 30
0.0
 40
2.0
  1
SDI
  7
UVB
  0
TEXT
  8
KOMPONENT
 62
     7
 10
244.485923
 20
108.634121
 30
0.0
 40
2.0
  1
TPG 1
  7
UVB
  0
TEXT
  8
KOMPONENT
 62
     7
 10
263.0143
 20
102.72894
 30
0.0
 40
2.0
  1
CHANGE OVER
  7
UVB
 72
     1
 11
273.179655
 21
102.72894
 31
0.0
  0
INSERT
  8
KOMPONENT
  2
27
 10
325.6873
 20
93.0341
 30
0.0
  0
TEXT
  8
KOMPONENT
 62
     7
 10
303.577017
 20
79.643777
 30
0.0
 40
2.0
  1
ANALOG GENLOCK
  7
UVB
 72
     1
 11
316.687253
 21
79.643777
 31
0.0
  0
INSERT
  8
KOMPONENT
  2
27
 10
307.6873
 20
93.0341
 30
0.0
  0
TEXT
  8
KOMPONENT
 62
     7
 10
306.726624
 20
82.443777
 30
0.0
 40
2.0
  1
B
  7
UVB
 72
     1
 11
307.687253
 21
82.443777
 31
0.0
  0
INSERT
  8
KOMPONENT
  2
26
 10
338.694818
 20
82.529533
 30
0.0
  0
ARC
  8
KOMPONENT
 10
354.694818
 20
98.529533
 30
0.0
 40
17.507005
 50
180.0
 51
225.0
  0
POLYLINE
  8
KOMPONENT
 66
     1
 10
0.0
 20
0.0
 30
0.0
  0
VERTEX
  8
KOMPONENT
 10
337.187813
 20
98.529533
 30
0.0
  0
VERTEX
  8
KOMPONENT
 10
345.694818
 20
98.529533
 30
0.0
  0
SEQEND
  8
110-1MEK
  0
TEXT
  8
KOMPONENT
 62
     7
 10
324.695127
 20
82.443777
 30
0.0
 40
2.0
  1
A
  7
UVB
 72
     1
 11
325.687253
 21
82.443777
 31
0.0
  0
POLYLINE
  8
KOMPONENT
 66
     1
 10
0.0
 20
0.0
 30
0.0
  0
VERTEX
  8
KOMPONENT
 10
342.315496
 20
86.150212
 30
0.0
  0
VERTEX
  8
KOMPONENT
 10
348.330857
 20
92.165572
 30
0.0
  0
SEQEND
  8
110-1MEK
  0
POLYLINE
  8
KOMPONENT
 66
     1
 10
0.0
 20
0.0
 30
0.0
  0
VERTEX
  8
KOMPONENT
 10
354.694818
 20
89.529533
 30
0.0
  0
VERTEX
  8
KOMPONENT
 10
354.694818
 20
81.022529
 30
0.0
  0
SEQEND
  8
110-1MEK
  0
INSERT
  8
KOMPONENT
  2
60
 10
300.689918
 20
111.228971
 30
0.0
  0
TEXT
  8
KOMPONENT
 62
     7
 10
307.337135
 20
102.72894
 30
0.0
 40
2.0
  1
REMOTE
  7
UVB
 72
     1
 11
313.179655
 21
102.72894
 31
0.0
  0
INSERT
  8
KOMPONENT
  2
26
 10
338.694818
 20
114.529533
 30
0.0
  0
POLYLINE
  8
KOMPONENT
 62
     7
 66
     1
 10
0.0
 20
0.0
 30
0.0
 70
     1
  0
VERTEX
  8
KOMPONENT
 62
     7
 10
331.609216
 20
104.282349
 30
0.0
 42
-1.105542
  0
VERTEX
  8
KOMPONENT
 62
     7
 10
331.609216
 20
109.257287
 30
0.0
  0
VERTEX
  8
KOMPONENT
 62
     7
 10
331.609216
 20
108.501869
 30
0.0
 42
1.154701
  0
VERTEX
  8
KOMPONENT
 62
     7
 10
331.609216
 20
105.037767
 30
0.0
  0
SEQEND
  8
KOMPONENT
 62
     7
  0
POLYLINE
  8
KOMPONENT
 62
     7
 66
     1
 10
0.0
 20
0.0
 30
0.0
 70
     1
  0
VERTEX
  8
KOMPONENT
 62
     7
 10
335.859216
 20
105.037767
 30
0.0
 42
-1.154701
  0
VERTEX
  8
KOMPONENT
 62
     7
 10
335.859216
 20
108.501869
 30
0.0
  0
VERTEX
  8
KOMPONENT
 62
     7
 10
335.859216
 20
109.257287
 30
0.0
 42
1.105542
  0
VERTEX
  8
KOMPONENT
 62
     7
 10
335.859216
 20
104.282349
 30
0.0
  0
SEQEND
  8
KOMPONENT
 62
     7
  0
POLYLINE
  8
KOMPONENT
 62
     7
 66
     1
 10
0.0
 20
0.0
 30
0.0
 40
0.75
 41
0.75
  0
VERTEX
  8
KOMPONENT
 62
     7
 10
333.484216
 20
106.769818
 30
0.0
  0
VERTEX
  8
KOMPONENT
 62
     7
 10
335.359216
 20
106.769818
 30
0.0
  0
SEQEND
  8
KOMPONENT
 62
     7
  0
ARC
  8
KOMPONENT
 10
354.694818
 20
98.529533
 30
0.0
 40
17.507005
 50
90.0
 51
135.0
  0
POLYLINE
  8
KOMPONENT
 66
     1
 10
0.0
 20
0.0
 30
0.0
  0
VERTEX
  8
KOMPONENT
 10
354.694818
 20
116.036538
 30
0.0
  0
VERTEX
  8
KOMPONENT
 10
354.694818
 20
107.529533
 30
0.0
  0
SEQEND
  8
110-1MEK
  0
POLYLINE
  8
KOMPONENT
 66
     1
 10
0.0
 20
0.0
 30
0.0
  0
VERTEX
  8
KOMPONENT
 10
342.315496
 20
110.908855
 30
0.0
  0
VERTEX
  8
KOMPONENT
 10
348.330857
 20
104.893494
 30
0.0
  0
SEQEND
  8
110-1MEK
  0
POLYLINE
  8
KOMPONENT
 66
     1
 10
0.0
 20
0.0
 30
0.0
  0
VERTEX
  8
KOMPONENT
 10
418.19153
 20
102.532165
 30
0.0
 42
-0.414214
  0
VERTEX
  8
KOMPONENT
 10
419.69153
 20
104.032165
 30
0.0
  0
VERTEX
  8
KOMPONENT
 10
431.69153
 20
104.032165
 30
0.0
 42
-0.414214
  0
VERTEX
  8
KOMPONENT
 10
433.19153
 20
102.532165
 30
0.0
  0
VERTEX
  8
KOMPONENT
 10
433.19153
 20
84.52126
 30
0.0
 42
-0.537366
  0
SEQEND
  8
110-1MEK
  0
LINE
  8
KOMPONENT
 10
421.34153
 20
101.636605
 30
0.0
 11
430.04153
 21
101.636605
 31
0.0
  0
POLYLINE
  8
KOMPONENT
 66
     1
 10
0.0
 20
0.0
 30
0.0
  0
VERTEX
  8
KOMPONENT
 10
421.34153
 20
98.636605
 30
0.0
  0
VERTEX
  8
KOMPONENT
 10
430.04153
 20
98.636605
 30
0.0
  0
SEQEND
  8
110-1MEK
  0
POLYLINE
  8
KOMPONENT
 66
     1
 10
0.0
 20
0.0
 30
0.0
  0
VERTEX
  8
KOMPONENT
 10
421.34153
 20
101.636605
 30
0.0
 42
0.124852
  0
VERTEX
  8
KOMPONENT
 10
421.34153
 20
85.013859
 30
0.0
  0
VERTEX
  8
KOMPONENT
 10
430.04153
 20
85.013859
 30
0.0
 42
0.124852
  0
VERTEX
  8
KOMPONENT
 10
430.04153
 20
101.636605
 30
0.0
 42
0.289229
  0
SEQEND
  8
110-1MEK
  0
POLYLINE
  8
KOMPONENT
 66
     1
 10
0.0
 20
0.0
 30
0.0
  0
VERTEX
  8
KOMPONENT
 10
433.19153
 20
84.52126
 30
0.0
 42
-0.414214
  0
VERTEX
  8
KOMPONENT
 10
431.69153
 20
83.02126
 30
0.0
  0
VERTEX
  8
KOMPONENT
 10
419.69153
 20
83.02126
 30
0.0
 42
-0.414214
  0
VERTEX
  8
KOMPONENT
 10
418.19153
 20
84.52126
 30
0.0
  0
SEQEND
  8
110-1MEK
  0
TEXT
  8
KOMPONENT
 10
427.418998
 20
97.876623
 30
0.0
 40
3.5
  1
O
 50
180.0
  7
UVB
  0
LINE
  8
KOMPONENT
 10
432.19153
 20
104.032165
 30
0.0
 11
419.19153
 21
104.032165
 31
0.0
  0
POLYLINE
  8
KOMPONENT
 66
     1
 10
0.0
 20
0.0
 30
0.0
  0
VERTEX
  8
KOMPONENT
 10
427.854625
 20
110.273303
 30
0.0
  0
VERTEX
  8
KOMPONENT
 10
428.578281
 20
111.526712
 30
0.0
  0
VERTEX
  8
KOMPONENT
 10
427.134906
 20
114.026712
 30
0.0
  0
VERTEX
  8
KOMPONENT
 10
424.248154
 20
114.026712
 30
0.0
  0
SEQEND
  8
110-1MEK
  0
LINE
  8
KOMPONENT
 10
424.248154
 20
109.026712
 30
0.0
 11
427.134906
 21
109.026712
 31
0.0
  0
ARC
  8
KOMPONENT
 10
425.69153
 20
111.526712
 30
0.0
 40
1.6
 50
359.265681
 51
359.225553
  0
TEXT
  8
KOMPONENT
 62
     7
 10
420.982869
 20
105.030038
 30
0.0
 40
2.0
  1
MAINS
  7
UVB
 72
     1
 11
425.69153
 21
105.030038
 31
0.0
  0
POLYLINE
  8
KOMPONENT
 66
     1
 10
0.0
 20
0.0
 30
0.0
  0
VERTEX
  8
KOMPONENT
 10
382.09153
 20
81.626712
 30
0.0
  0
VERTEX
  8
KOMPONENT
 10
382.09153
 20
108.426712
 30
0.0
 42
-0.414214
  0
VERTEX
  8
KOMPONENT
 10
385.19153
 20
111.526712
 30
0.0
  0
VERTEX
  8
KOMPONENT
 10
406.19153
 20
111.526712
 30
0.0
 42
-0.414214
  0
VERTEX
  8
KOMPONENT
 10
409.29153
 20
108.426712
 30
0.0
  0
VERTEX
  8
KOMPONENT
 10
409.29153
 20
84.625008
 30
0.0
 42
-0.448183
  0
SEQEND
  8
110-1MEK
  0
LINE
  8
KOMPONENT
 10
381.19153
 20
112.276712
 30
0.0
 11
374.264543
 21
97.585581
 31
0.0
  0
LINE
  8
KOMPONENT
 10
383.44153
 20
94.145848
 30
0.0
 11
383.44153
 21
104.676712
 31
0.0
  0
POLYLINE
  8
KOMPONENT
 66
     1
 10
0.0
 20
0.0
 30
0.0
  0
VERTEX
  8
KOMPONENT
 10
388.633917
 20
102.260776
 30
0.0
  0
VERTEX
  8
KOMPONENT
 10
388.633917
 20
98.227854
 30
0.0
  0
SEQEND
  8
110-1MEK
  0
LINE
  8
KOMPONENT
 10
387.625686
 20
102.260776
 30
0.0
 11
387.625686
 21
98.227854
 31
0.0
  0
POLYLINE
  8
KOMPONENT
 66
     1
 10
0.0
 20
0.0
 30
0.0
  0
VERTEX
  8
KOMPONENT
 10
387.633917
 20
102.260776
 30
0.0
  0
VERTEX
  8
KOMPONENT
 10
387.633917
 20
98.227854
 30
0.0
  0
SEQEND
  8
110-1MEK
  0
POLYLINE
  8
KOMPONENT
 66
     1
 10
0.0
 20
0.0
 30
0.0
  0
VERTEX
  8
KOMPONENT
 10
387.633917
 20
102.260776
 30
0.0
  0
VERTEX
  8
KOMPONENT
 10
387.633917
 20
98.227854
 30
0.0
  0
SEQEND
  8
110-1MEK
  0
LINE
  8
KOMPONENT
 10
389.642147
 20
98.227854
 30
0.0
 11
389.642147
 21
102.260776
 31
0.0
  0
POLYLINE
  8
KOMPONENT
 66
     1
 10
0.0
 20
0.0
 30
0.0
  0
VERTEX
  8
KOMPONENT
 10
402.749143
 20
102.260776
 30
0.0
  0
VERTEX
  8
KOMPONENT
 10
402.749143
 20
98.227854
 30
0.0
  0
SEQEND
  8
110-1MEK
  0
LINE
  8
KOMPONENT
 10
401.740913
 20
102.260776
 30
0.0
 11
401.740913
 21
98.227854
 31
0.0
  0
LINE
  8
KOMPONENT
 10
403.757374
 20
98.227854
 30
0.0
 11
403.757374
 21
102.260776
 31
0.0
  0
ARC
  8
KOMPONENT
 10
354.694818
 20
98.529533
 30
0.0
 40
17.507005
 50
360.0
 51
45.0
  0
LINE
  8
KOMPONENT
 10
410.19153
 20
112.276712
 30
0.0
 11
417.118517
 21
97.585581
 31
0.0
  0
POLYLINE
  8
KOMPONENT
 66
     1
 10
0.0
 20
0.0
 30
0.0
  0
VERTEX
  8
KOMPONENT
 10
407.94153
 20
94.145848
 30
0.0
  0
VERTEX
  8
KOMPONENT
 10
407.94153
 20
104.676712
 30
0.0
  0
SEQEND
  8
110-1MEK
  0
POLYLINE
  8
KOMPONENT
 66
     1
 10
0.0
 20
0.0
 30
0.0
  0
VERTEX
  8
KOMPONENT
 10
418.19153
 20
102.532165
 30
0.0
  0
VERTEX
  8
KOMPONENT
 10
418.19153
 20
84.52126
 30
0.0
  0
SEQEND
  8
110-1MEK
  0
LINE
  8
KOMPONENT
 10
381.19153
 20
77.776712
 30
0.0
 11
410.19153
 21
77.776712
 31
0.0
  0
POLYLINE
  8
KOMPONENT
 66
     1
 10
0.0
 20
0.0
 30
0.0
  0
VERTEX
  8
KOMPONENT
 10
409.29153
 20
84.624996
 30
0.0
  0
VERTEX
  8
KOMPONENT
 10
409.29153
 20
81.626712
 30
0.0
 42
-0.414214
  0
VERTEX
  8
KOMPONENT
 10
406.19153
 20
78.526712
 30
0.0
  0
VERTEX
  8
KOMPONENT
 10
385.19153
 20
78.526712
 30
0.0
 42
-0.414214
  0
VERTEX
  8
KOMPONENT
 10
382.09153
 20
81.626712
 30
0.0
  0
SEQEND
  8
110-1MEK
  0
LINE
  8
KOMPONENT
 10
384.449761
 20
93.137618
 30
0.0
 11
406.9333
 21
93.137618
 31
0.0
  0
LINE
  8
KOMPONENT
 10
384.449761
 20
91.677321
 30
0.0
 11
406.9333
 21
91.677321
 31
0.0
  0
POLYLINE
  8
KOMPONENT
 66
     1
 10
0.0
 20
0.0
 30
0.0
  0
VERTEX
  8
KOMPONENT
 10
407.94153
 20
90.66909
 30
0.0
  0
VERTEX
  8
KOMPONENT
 10
407.94153
 20
80.876712
 30
0.0
 42
-0.414214
  0
VERTEX
  8
KOMPONENT
 10
406.94153
 20
79.876712
 30
0.0
  0
VERTEX
  8
KOMPONENT
 10
384.44153
 20
79.876712
 30
0.0
  0
SEQEND
  8
110-1MEK
  0
LINE
  8
KOMPONENT
 10
381.19153
 20
77.776712
 30
0.0
 11
374.264543
 21
92.467844
 31
0.0
  0
INSERT
  8
KOMPONENT
  2
26
 10
370.694818
 20
82.529533
 30
0.0
  0
POLYLINE
  8
KOMPONENT
 66
     1
 10
0.0
 20
0.0
 30
0.0
  0
VERTEX
  8
KOMPONENT
 10
361.058779
 20
92.165572
 30
0.0
  0
VERTEX
  8
KOMPONENT
 10
367.07414
 20
86.150212
 30
0.0
  0
SEQEND
  8
110-1MEK
  0
POLYLINE
  8
KOMPONENT
 66
     1
 10
0.0
 20
0.0
 30
0.0
  0
VERTEX
  8
KOMPONENT
 10
372.201823
 20
98.529533
 30
0.0
  0
VERTEX
  8
KOMPONENT
 10
363.694818
 20
98.529533
 30
0.0
  0
SEQEND
  8
110-1MEK
  0
LINE
  8
KOMPONENT
 10
383.44153
 20
90.66909
 30
0.0
 11
383.44153
 21
80.876712
 31
0.0
  0
ARC
  8
KOMPONENT
 10
384.44153
 20
80.876712
 30
0.0
 40
1.0
 50
180.0
 51
270.0
  0
ARC
  8
KOMPONENT
 10
379.69153
 20
95.026712
 30
0.0
 40
6.0
 50
154.755743
 51
205.244257
  0
POLYLINE
  8
KOMPONENT
 66
     1
 10
0.0
 20
0.0
 30
0.0
  0
VERTEX
  8
KOMPONENT
 10
376.77011
 20
95.326712
 30
0.0
  0
VERTEX
  8
KOMPONENT
 10
376.77011
 20
96.750806
 30
0.0
  0
SEQEND
  8
110-1MEK
  0
POLYLINE
  8
KOMPONENT
 66
     1
 10
0.0
 20
0.0
 30
0.0
  0
VERTEX
  8
KOMPONENT
 10
377.37011
 20
95.326712
 30
0.0
  0
VERTEX
  8
KOMPONENT
 10
377.37011
 20
96.750806
 30
0.0
  0
SEQEND
  8
110-1MEK
  0
ARC
  8
KOMPONENT
 10
377.07011
 20
95.026712
 30
0.0
 40
2.5
 50
180.0
 51
178.16339
  0
POLYLINE
  8
KOMPONENT
 66
     1
 10
0.0
 20
0.0
 30
0.0
  0
VERTEX
  8
KOMPONENT
 10
378.794204
 20
95.326712
 30
0.0
 50
90.0
  0
VERTEX
  8
KOMPONENT
 10
377.37011
 20
95.326712
 30
0.0
 50
90.0
  0
SEQEND
  8
110-1MEK
  0
POLYLINE
  8
KOMPONENT
 66
     1
 10
0.0
 20
0.0
 30
0.0
  0
VERTEX
  8
KOMPONENT
 10
378.794204
 20
94.726712
 30
0.0
 50
90.0
  0
VERTEX
  8
KOMPONENT
 10
377.37011
 20
94.726712
 30
0.0
 50
90.0
  0
SEQEND
  8
110-1MEK
  0
POLYLINE
  8
KOMPONENT
 66
     1
 10
0.0
 20
0.0
 30
0.0
  0
VERTEX
  8
KOMPONENT
 10
376.77011
 20
93.302618
 30
0.0
  0
VERTEX
  8
KOMPONENT
 10
376.77011
 20
94.726712
 30
0.0
  0
SEQEND
  8
110-1MEK
  0
POLYLINE
  8
KOMPONENT
 66
     1
 10
0.0
 20
0.0
 30
0.0
  0
VERTEX
  8
KOMPONENT
 10
377.37011
 20
93.302618
 30
0.0
  0
VERTEX
  8
KOMPONENT
 10
377.37011
 20
94.726712
 30
0.0
  0
SEQEND
  8
110-1MEK
  0
POLYLINE
  8
KOMPONENT
 66
     1
 10
0.0
 20
0.0
 30
0.0
  0
VERTEX
  8
KOMPONENT
 10
376.77011
 20
95.326712
 30
0.0
 50
90.0
  0
VERTEX
  8
KOMPONENT
 10
375.346016
 20
95.326712
 30
0.0
 50
90.0
  0
SEQEND
  8
110-1MEK
  0
POLYLINE
  8
KOMPONENT
 66
     1
 10
0.0
 20
0.0
 30
0.0
  0
VERTEX
  8
KOMPONENT
 10
376.77011
 20
94.726712
 30
0.0
 50
90.0
  0
VERTEX
  8
KOMPONENT
 10
375.346016
 20
94.726712
 30
0.0
 50
90.0
  0
SEQEND
  8
110-1MEK
  0
ARC
  8
KOMPONENT
 10
377.07011
 20
95.026712
 30
0.0
 40
1.75
 50
260.12911
 51
279.87089
  0
ARC
  8
KOMPONENT
 10
377.07011
 20
95.026712
 30
0.0
 40
1.75
 50
350.12911
 51
9.87089
  0
ARC
  8
KOMPONENT
 10
377.07011
 20
95.026712
 30
0.0
 40
1.75
 50
80.12911
 51
99.87089
  0
ARC
  8
KOMPONENT
 10
384.449761
 20
94.145848
 30
0.0
 40
1.00823
 50
180.0
 51
270.0
  0
ARC
  8
KOMPONENT
 10
384.449761
 20
90.66909
 30
0.0
 40
1.00823
 50
90.0
 51
180.0
  0
LINE
  8
KOMPONENT
 10
387.625686
 20
98.227854
 30
0.0
 11
389.642147
 21
98.227854
 31
0.0
  0
LINE
  8
KOMPONENT
 10
410.19153
 20
77.776712
 30
0.0
 11
417.118517
 21
92.467844
 31
0.0
  0
ARC
  8
KOMPONENT
 10
406.9333
 20
94.145848
 30
0.0
 40
1.00823
 50
270.0
 51
0.0
  0
ARC
  8
KOMPONENT
 10
406.9333
 20
90.66909
 30
0.0
 40
1.00823
 50
0.0
 51
90.0
  0
LINE
  8
KOMPONENT
 10
401.740913
 20
98.227854
 30
0.0
 11
403.757374
 21
98.227854
 31
0.0
  0
ARC
  8
KOMPONENT
 10
481.658443
 20
91.825232
 30
0.0
 40
60.700286
 50
173.557087
 51
186.442913
  0
ARC
  8
KOMPONENT
 10
414.31295
 20
95.026712
 30
0.0
 40
2.5
 50
180.0
 51
178.16339
  0
POLYLINE
  8
KOMPONENT
 66
     1
 10
0.0
 20
0.0
 30
0.0
  0
VERTEX
  8
KOMPONENT
 10
414.61295
 20
95.326712
 30
0.0
  0
VERTEX
  8
KOMPONENT
 10
414.61295
 20
96.750806
 30
0.0
  0
SEQEND
  8
110-1MEK
  0
POLYLINE
  8
KOMPONENT
 66
     1
 10
0.0
 20
0.0
 30
0.0
  0
VERTEX
  8
KOMPONENT
 10
414.01295
 20
95.326712
 30
0.0
  0
VERTEX
  8
KOMPONENT
 10
414.01295
 20
96.750806
 30
0.0
  0
SEQEND
  8
110-1MEK
  0
POLYLINE
  8
KOMPONENT
 66
     1
 10
0.0
 20
0.0
 30
0.0
  0
VERTEX
  8
KOMPONENT
 10
416.037044
 20
94.726712
 30
0.0
 50
90.0
  0
VERTEX
  8
KOMPONENT
 10
414.61295
 20
94.726712
 30
0.0
 50
90.0
  0
SEQEND
  8
110-1MEK
  0
POLYLINE
  8
KOMPONENT
 66
     1
 10
0.0
 20
0.0
 30
0.0
  0
VERTEX
  8
KOMPONENT
 10
416.037044
 20
95.326712
 30
0.0
 50
90.0
  0
VERTEX
  8
KOMPONENT
 10
414.61295
 20
95.326712
 30
0.0
 50
90.0
  0
SEQEND
  8
110-1MEK
  0
ARC
  8
KOMPONENT
 10
414.31295
 20
95.026712
 30
0.0
 40
1.75
 50
170.12911
 51
189.87089
  0
ARC
  8
KOMPONENT
 10
414.31295
 20
95.026712
 30
0.0
 40
1.75
 50
260.12911
 51
279.87089
  0
POLYLINE
  8
KOMPONENT
 66
     1
 10
0.0
 20
0.0
 30
0.0
  0
VERTEX
  8
KOMPONENT
 10
414.61295
 20
93.302618
 30
0.0
  0
VERTEX
  8
KOMPONENT
 10
414.61295
 20
94.726712
 30
0.0
  0
SEQEND
  8
110-1MEK
  0
POLYLINE
  8
KOMPONENT
 66
     1
 10
0.0
 20
0.0
 30
0.0
  0
VERTEX
  8
KOMPONENT
 10
414.01295
 20
93.302618
 30
0.0
  0
VERTEX
  8
KOMPONENT
 10
414.01295
 20
94.726712
 30
0.0
  0
SEQEND
  8
110-1MEK
  0
POLYLINE
  8
KOMPONENT
 66
     1
 10
0.0
 20
0.0
 30
0.0
  0
VERTEX
  8
KOMPONENT
 10
414.01295
 20
94.726712
 30
0.0
 50
90.0
  0
VERTEX
  8
KOMPONENT
 10
412.588856
 20
94.726712
 30
0.0
 50
90.0
  0
SEQEND
  8
110-1MEK
  0
POLYLINE
  8
KOMPONENT
 66
     1
 10
0.0
 20
0.0
 30
0.0
  0
VERTEX
  8
KOMPONENT
 10
414.01295
 20
95.326712
 30
0.0
 50
90.0
  0
VERTEX
  8
KOMPONENT
 10
412.588856
 20
95.326712
 30
0.0
 50
90.0
  0
SEQEND
  8
110-1MEK
  0
ARC
  8
KOMPONENT
 10
414.31295
 20
95.026712
 30
0.0
 40
1.75
 50
350.12911
 51
9.87089
  0
ARC
  8
KOMPONENT
 10
414.31295
 20
95.026712
 30
0.0
 40
1.75
 50
80.12911
 51
99.87089
  0
ARC
  8
KOMPONENT
 10
411.69153
 20
95.026712
 30
0.0
 40
6.0
 50
334.755743
 51
25.244257
  0
ARC
  8
KOMPONENT
 10
430.425387
 20
100.136605
 30
0.0
 40
9.20687
 50
170.62347
 51
189.37653
  0
LINE
  8
KOMPONENT
 10
381.19153
 20
112.276712
 30
0.0
 11
410.19153
 21
112.276712
 31
0.0
  0
LINE
  8
KOMPONENT
 10
388.94153
 20
110.176712
 30
0.0
 11
402.44153
 21
110.176712
 31
0.0
  0
TEXT
  8
KOMPONENT
 62
     7
 10
387.45531
 20
113.056038
 30
0.0
 40
2.0
  1
FUSE 1,6 AT
  7
UVB
 72
     1
 11
395.69153
 21
113.056038
 31
0.0
  0
INSERT
  8
KOMPONENT
  2
26
 10
370.694818
 20
114.529533
 30
0.0
  0
POLYLINE
  8
KOMPONENT
 66
     1
 10
0.0
 20
0.0
 30
0.0
  0
VERTEX
  8
KOMPONENT
 10
361.058779
 20
104.893494
 30
0.0
  0
VERTEX
  8
KOMPONENT
 10
367.07414
 20
110.908855
 30
0.0
  0
SEQEND
  8
110-1MEK
  0
LINE
  8
KOMPONENT
 10
383.44153
 20
104.676712
 30
0.0
 11
388.94153
 21
110.176712
 31
0.0
  0
LINE
  8
KOMPONENT
 10
389.642147
 20
102.260776
 30
0.0
 11
387.625686
 21
102.260776
 31
0.0
  0
LINE
  8
KOMPONENT
 10
402.44153
 20
110.176712
 30
0.0
 11
407.94153
 21
104.676712
 31
0.0
  0
LINE
  8
KOMPONENT
 10
396.699761
 20
106.293698
 30
0.0
 11
394.6833
 21
106.293698
 31
0.0
  0
LINE
  8
KOMPONENT
 10
394.6833
 20
102.260776
 30
0.0
 11
396.699761
 21
102.260776
 31
0.0
  0
LINE
  8
KOMPONENT
 10
394.6833
 20
106.293698
 30
0.0
 11
394.6833
 21
102.260776
 31
0.0
  0
POLYLINE
  8
KOMPONENT
 66
     1
 10
0.0
 20
0.0
 30
0.0
  0
VERTEX
  8
KOMPONENT
 10
395.69153
 20
106.293698
 30
0.0
  0
VERTEX
  8
KOMPONENT
 10
395.69153
 20
102.260776
 30
0.0
  0
SEQEND
  8
110-1MEK
  0
LINE
  8
KOMPONENT
 10
396.699761
 20
102.260776
 30
0.0
 11
396.699761
 21
106.293698
 31
0.0
  0
LINE
  8
KOMPONENT
 10
403.757374
 20
102.260776
 30
0.0
 11
401.740913
 21
102.260776
 31
0.0
  0
LINE
  8
KOMPONENT
 10
424.248154
 20
114.026712
 30
0.0
 11
422.804779
 21
111.526712
 31
0.0
  0
POLYLINE
  8
KOMPONENT
 62
     7
 66
     1
 10
0.0
 20
0.0
 30
0.0
 40
0.34086
 41
0.34086
  0
VERTEX
  8
KOMPONENT
 62
     7
 10
420.418409
 20
111.526712
 30
0.0
 42
738.706168
  0
VERTEX
  8
KOMPONENT
 62
     7
 10
420.418369
 20
111.511947
 30
0.0
 42
738.706168
  0
SEQEND
  8
KOMPONENT
 62
     7
  0
POLYLINE
  8
KOMPONENT
 62
     7
 66
     1
 10
0.0
 20
0.0
 30
0.0
 40
0.34086
 41
0.34086
  0
VERTEX
  8
KOMPONENT
 62
     7
 10
415.646371
 20
111.694632
 30
0.0
  0
VERTEX
  8
KOMPONENT
 62
     7
 10
419.736689
 20
111.694632
 30
0.0
  0
SEQEND
  8
KOMPONENT
 62
     7
  0
POLYLINE
  8
KOMPONENT
 62
     7
 66
     1
 10
0.0
 20
0.0
 30
0.0
 40
0.34086
 41
0.34086
  0
VERTEX
  8
KOMPONENT
 62
     7
 10
416.23507
 20
110.842482
 30
0.0
  0
VERTEX
  8
KOMPONENT
 62
     7
 10
419.14799
 20
110.842482
 30
0.0
  0
SEQEND
  8
KOMPONENT
 62
     7
  0
POLYLINE
  8
KOMPONENT
 62
     7
 66
     1
 10
0.0
 20
0.0
 30
0.0
 40
0.34086
 41
0.34086
  0
VERTEX
  8
KOMPONENT
 62
     7
 10
416.833367
 20
109.990333
 30
0.0
  0
VERTEX
  8
KOMPONENT
 62
     7
 10
418.549694
 20
109.990333
 30
0.0
  0
SEQEND
  8
KOMPONENT
 62
     7
  0
POLYLINE
  8
KOMPONENT
 62
     7
 66
     1
 10
0.0
 20
0.0
 30
0.0
 40
0.34086
 41
0.34086
  0
VERTEX
  8
KOMPONENT
 62
     7
 10
417.69153
 20
111.694632
 30
0.0
  0
VERTEX
  8
KOMPONENT
 62
     7
 10
417.69153
 20
112.893008
 30
0.0
  0
SEQEND
  8
KOMPONENT
 62
     7
  0
LINE
  8
KOMPONENT
 10
422.804779
 20
111.526712
 30
0.0
 11
424.248154
 21
109.026712
 31
0.0
  0
POLYLINE
  8
KOMPONENT
 66
     1
 10
0.0
 20
0.0
 30
0.0
  0
VERTEX
  8
KOMPONENT
 10
436.69153
 20
118.525412
 30
0.0
  0
VERTEX
  8
KOMPONENT
 10
436.69153
 20
78.526712
 30
0.0
  0
SEQEND
  8
110-1MEK
  0
POLYLINE
  8
KOMPONENT
 66
     1
 10
0.0
 20
0.0
 30
0.0
  0
VERTEX
  8
KOMPONENT
 10
430.04153
 20
85.013859
 30
0.0
 42
0.056284
  0
VERTEX
  8
KOMPONENT
 10
430.04153
 20
98.636605
 30
0.0
 42
0.082009
  0
VERTEX
  8
KOMPONENT
 10
430.04153
 20
101.636605
 30
0.0
  0
SEQEND
  8
110-1MEK
  0
TEXT
  8
KOMPONENT
 10
426.2826
 20
89.063905
 30
0.0
 40
3.5
  1
I
 50
180.0
  7
UVB
  0
LINE
  8
KOMPONENT
 10
427.134906
 20
109.026712
 30
0.0
 11
427.854625
 21
110.273303
 31
0.0
  0
ENDBLK
  8
0
  0
BLOCK
  8
0
  2
27
 70
    64
 10
0.0
 20
0.0
 30
0.0
  1
27
  3
27
  0
ARC
  8
KOMPONENT
 10
-0.000047
 20
0.000021
 30
0.0
 40
8.0
 50
89.724815
 51
89.724713
  0
POLYLINE
  8
KOMPONENT
 66
     1
 10
0.0
 20
0.0
 30
0.0
  0
VERTEX
  8
KOMPONENT
 10
-4.041498
 20
7.000021
 30
0.0
  0
VERTEX
  8
KOMPONENT
 10
-8.08295
 20
0.000021
 30
0.0
  0
VERTEX
  8
KOMPONENT
 10
-4.041498
 20
-6.999979
 30
0.0
  0
VERTEX
  8
KOMPONENT
 10
4.041405
 20
-6.999979
 30
0.0
  0
VERTEX
  8
KOMPONENT
 10
8.082857
 20
0.000021
 30
0.0
  0
SEQEND
  8
KOMPONENT
  0
ARC
  8
KOMPONENT
 10
-0.000047
 20
0.000021
 30
0.0
 40
4.825
 50
359.716918
 51
359.715684
  0
ARC
  8
KOMPONENT
 10
-0.000047
 20
0.000021
 30
0.0
 40
4.15
 50
359.689022
 51
359.688755
  0
ARC
  8
KOMPONENT
 10
-0.000047
 20
0.000021
 30
0.0
 40
1.15
 50
358.812206
 51
358.80773
  0
ARC
  8
KOMPONENT
 10
-0.000047
 20
0.000021
 30
0.0
 40
2.5
 50
359.509851
 51
359.509777
  0
POLYLINE
  8
KOMPONENT
 66
     1
 10
0.0
 20
0.0
 30
0.0
  0
VERTEX
  8
KOMPONENT
 10
8.082857
 20
0.000021
 30
0.0
  0
VERTEX
  8
KOMPONENT
 10
4.041405
 20
7.000021
 30
0.0
  0
VERTEX
  8
KOMPONENT
 10
-4.041498
 20
7.000021
 30
0.0
  0
SEQEND
  8
KOMPONENT
  0
POLYLINE
  8
KOMPONENT
  6
CONTINUOUS
 66
     1
 10
0.0
 20
0.0
 30
0.0
  0
VERTEX
  8
KOMPONENT
  6
CONTINUOUS
 10
-5.500047
 20
-0.999979
 30
0.0
  0
VERTEX
  8
KOMPONENT
  6
CONTINUOUS
 10
-4.720282
 20
-0.999979
 30
0.0
  0
SEQEND
  8
KOMPONENT
  0
POLYLINE
  8
KOMPONENT
  6
CONTINUOUS
 66
     1
 10
0.0
 20
0.0
 30
0.0
  0
VERTEX
  8
KOMPONENT
  6
CONTINUOUS
 10
-4.720282
 20
1.000021
 30
0.0
  0
VERTEX
  8
KOMPONENT
  6
CONTINUOUS
 10
-5.500047
 20
1.000021
 30
0.0
  0
VERTEX
  8
KOMPONENT
  6
CONTINUOUS
 10
-5.500047
 20
-0.999979
 30
0.0
  0
SEQEND
  8
KOMPONENT
  0
ARC
  8
KOMPONENT
 10
-0.000047
 20
0.000021
 30
0.0
 40
0.5
 50
357.796102
 51
357.796009
  0
POLYLINE
  8
KOMPONENT
  6
CONTINUOUS
 66
     1
 10
0.0
 20
0.0
 30
0.0
  0
VERTEX
  8
KOMPONENT
  6
CONTINUOUS
 10
4.720189
 20
-0.999979
 30
0.0
  0
VERTEX
  8
KOMPONENT
  6
CONTINUOUS
 10
5.499953
 20
-0.999979
 30
0.0
  0
VERTEX
  8
KOMPONENT
  6
CONTINUOUS
 10
5.499953
 20
1.000021
 30
0.0
  0
VERTEX
  8
KOMPONENT
  6
CONTINUOUS
 10
4.720189
 20
1.000021
 30
0.0
  0
SEQEND
  8
KOMPONENT
  0
ENDBLK
  8
0
  0
BLOCK
  8
0
  2
60
 70
    64
 10
0.0
 20
0.0
 30
0.0
  1
60
  3
60
  0
POLYLINE
  8
KOMPONENT
 66
     1
 10
0.0
 20
0.0
 30
0.0
  0
VERTEX
  8
KOMPONENT
 10
12.489772
 20
5.700005
 30
0.0
  0
VERTEX
  8
KOMPONENT
 10
18.66363
 20
5.700005
 30
0.0
 42
-0.468845
  0
VERTEX
  8
KOMPONENT
 10
22.006943
 20
1.681732
 30
0.0
  0
VERTEX
  8
KOMPONENT
 10
21.156272
 20
-2.918268
 30
0.0
 42
-0.361614
  0
VERTEX
  8
KOMPONENT
 10
17.81296
 20
-5.699995
 30
0.0
  0
VERTEX
  8
KOMPONENT
 10
7.143039
 20
-5.699995
 30
0.0
 42
-0.363015
  0
VERTEX
  8
KOMPONENT
 10
3.796704
 20
-2.901698
 30
0.0
  0
VERTEX
  8
KOMPONENT
 10
2.96958
 20
1.698302
 30
0.0
 42
-0.467335
  0
VERTEX
  8
KOMPONENT
 10
6.315914
 20
5.700005
 30
0.0
  0
SEQEND
  8
KOMPONENT
  0
POLYLINE
  8
KOMPONENT
 66
     1
 10
0.0
 20
0.0
 30
0.0
  0
VERTEX
  8
KOMPONENT
 10
12.488765
 20
4.725005
 30
0.0
  0
VERTEX
  8
KOMPONENT
 10
17.606569
 20
4.725005
 30
0.0
 42
-0.468845
  0
VERTEX
  8
KOMPONENT
 10
20.377999
 20
1.394068
 30
0.0
  0
VERTEX
  8
KOMPONENT
 10
19.672837
 20
-2.41909
 30
0.0
 42
-0.361614
  0
VERTEX
  8
KOMPONENT
 10
16.901407
 20
-4.724995
 30
0.0
  0
VERTEX
  8
KOMPONENT
 10
8.056605
 20
-4.724995
 30
0.0
 42
-0.363015
  0
VERTEX
  8
KOMPONENT
 10
5.28267
 20
-2.405354
 30
0.0
  0
VERTEX
  8
KOMPONENT
 10
4.597027
 20
1.407804
 30
0.0
 42
-0.467335
  0
VERTEX
  8
KOMPONENT
 10
7.370962
 20
4.725005
 30
0.0
  0
SEQEND
  8
KOMPONENT
  0
ARC
  8
KOMPONENT
 10
17.265934
 20
1.500005
 30
0.0
 40
0.5
 50
0.163964
 51
359.142643
  0
ARC
  8
KOMPONENT
 10
17.265934
 20
1.500005
 30
0.0
 40
0.5
 50
0.163964
 51
359.142643
  0
POLYLINE
  8
KOMPONENT
 66
     1
 10
0.0
 20
0.0
 30
0.0
  0
VERTEX
  8
KOMPONENT
 10
12.488223
 20
4.200005
 30
0.0
  0
VERTEX
  8
KOMPONENT
 10
17.037382
 20
4.200005
 30
0.0
 42
-0.468845
  0
VERTEX
  8
KOMPONENT
 10
19.500875
 20
1.239172
 30
0.0
  0
VERTEX
  8
KOMPONENT
 10
18.874065
 20
-2.150302
 30
0.0
 42
-0.361614
  0
VERTEX
  8
KOMPONENT
 10
16.410572
 20
-4.199995
 30
0.0
  0
VERTEX
  8
KOMPONENT
 10
8.548525
 20
-4.199995
 30
0.0
 42
-0.363015
  0
VERTEX
  8
KOMPONENT
 10
6.082805
 20
-2.138092
 30
0.0
  0
VERTEX
  8
KOMPONENT
 10
5.473345
 20
1.251382
 30
0.0
 42
-0.467335
  0
VERTEX
  8
KOMPONENT
 10
7.939065
 20
4.200005
 30
0.0
  0
SEQEND
  8
KOMPONENT
  0
ARC
  8
KOMPONENT
 10
0.000035
 20
0.000005
 30
0.0
 40
1.6
 50
0.699252
 51
0.64433
  0
LINE
  8
KOMPONENT
 10
1.443411
 20
-2.499995
 30
0.0
 11
2.886787
 21
0.000005
 31
0.0
  0
POLYLINE
  8
KOMPONENT
 66
     1
 10
0.0
 20
0.0
 30
0.0
  0
VERTEX
  8
KOMPONENT
 10
2.886787
 20
0.000005
 30
0.0
  0
VERTEX
  8
KOMPONENT
 10
1.443411
 20
2.500005
 30
0.0
  0
VERTEX
  8
KOMPONENT
 10
-1.44334
 20
2.500005
 30
0.0
  0
VERTEX
  8
KOMPONENT
 10
-2.886716
 20
0.000005
 30
0.0
  0
VERTEX
  8
KOMPONENT
 10
-1.44334
 20
-2.499995
 30
0.0
  0
VERTEX
  8
KOMPONENT
 10
1.443411
 20
-2.499995
 30
0.0
  0
SEQEND
  8
KOMPONENT
  0
ARC
  8
KOMPONENT
 10
8.865934
 20
-1.499995
 30
0.0
 40
0.5
 50
0.163964
 51
359.142643
  0
ARC
  8
KOMPONENT
 10
13.665934
 20
-1.499995
 30
0.0
 40
0.5
 50
0.163964
 51
359.142643
  0
ARC
  8
KOMPONENT
 10
16.065934
 20
-1.499995
 30
0.0
 40
0.5
 50
0.163964
 51
359.142643
  0
ARC
  8
KOMPONENT
 10
16.065934
 20
-1.499995
 30
0.0
 40
0.5
 50
0.163964
 51
359.142643
  0
ARC
  8
KOMPONENT
 10
13.665934
 20
-1.499995
 30
0.0
 40
0.5
 50
0.163964
 51
359.142643
  0
ARC
  8
KOMPONENT
 10
11.265934
 20
-1.499995
 30
0.0
 40
0.5
 50
0.163964
 51
359.142643
  0
ARC
  8
KOMPONENT
 10
11.265934
 20
-1.499995
 30
0.0
 40
0.5
 50
0.163964
 51
359.142643
  0
POLYLINE
  8
KOMPONENT
 66
     1
 10
0.0
 20
0.0
 30
0.0
  0
VERTEX
  8
KOMPONENT
 10
7.939065
 20
4.200005
 30
0.0
  0
VERTEX
  8
KOMPONENT
 10
12.488223
 20
4.200005
 30
0.0
 42
-0.468845
  0
SEQEND
  8
KOMPONENT
  0
POLYLINE
  8
KOMPONENT
 66
     1
 10
0.0
 20
0.0
 30
0.0
  0
VERTEX
  8
KOMPONENT
 10
7.370962
 20
4.725005
 30
0.0
  0
VERTEX
  8
KOMPONENT
 10
12.488765
 20
4.725005
 30
0.0
 42
-0.468845
  0
SEQEND
  8
KOMPONENT
  0
ARC
  8
KOMPONENT
 10
10.065934
 20
1.500005
 30
0.0
 40
0.5
 50
0.163964
 51
359.142643
  0
ARC
  8
KOMPONENT
 10
7.665934
 20
1.500005
 30
0.0
 40
0.5
 50
0.163964
 51
359.142643
  0
ARC
  8
KOMPONENT
 10
14.865934
 20
1.500005
 30
0.0
 40
0.5
 50
0.163964
 51
359.142643
  0
ARC
  8
KOMPONENT
 10
12.465934
 20
1.500005
 30
0.0
 40
0.5
 50
0.163964
 51
359.142643
  0
ARC
  8
KOMPONENT
 10
14.865934
 20
1.500005
 30
0.0
 40
0.5
 50
0.163964
 51
359.142643
  0
ARC
  8
KOMPONENT
 10
12.465934
 20
1.500005
 30
0.0
 40
0.5
 50
0.163964
 51
359.142643
  0
ARC
  8
KOMPONENT
 10
25.000035
 20
0.000005
 30
0.0
 40
1.6
 50
0.699252
 51
0.64433
  0
LINE
  8
KOMPONENT
 10
22.113284
 20
0.000005
 30
0.0
 11
23.55666
 21
-2.499995
 31
0.0
  0
POLYLINE
  8
KOMPONENT
 66
     1
 10
0.0
 20
0.0
 30
0.0
  0
VERTEX
  8
KOMPONENT
 10
27.16313
 20
-1.253405
 30
0.0
  0
VERTEX
  8
KOMPONENT
 10
27.886787
 20
0.000005
 30
0.0
  0
VERTEX
  8
KOMPONENT
 10
26.443411
 20
2.500005
 30
0.0
  0
VERTEX
  8
KOMPONENT
 10
23.55666
 20
2.500005
 30
0.0
  0
SEQEND
  8
KOMPONENT
  0
LINE
  8
KOMPONENT
 10
23.55666
 20
-2.499995
 30
0.0
 11
26.443411
 21
-2.499995
 31
0.0
  0
LINE
  8
KOMPONENT
 10
26.443411
 20
-2.499995
 30
0.0
 11
27.16313
 21
-1.253405
 31
0.0
  0
LINE
  8
KOMPONENT
 10
23.55666
 20
2.500005
 30
0.0
 11
22.113284
 21
0.000005
 31
0.0
  0
ARC
  8
KOMPONENT
 10
25.000035
 20
0.000005
 30
0.0
 40
1.6
 50
356.442256
 51
357.6701
  0
POLYLINE
  8
KOMPONENT
 66
     1
 10
0.0
 20
0.0
 30
0.0
  0
VERTEX
  8
KOMPONENT
 10
6.315914
 20
5.700005
 30
0.0
  0
VERTEX
  8
KOMPONENT
 10
12.489772
 20
5.700005
 30
0.0
 42
-0.468845
  0
SEQEND
  8
KOMPONENT
  0
ENDBLK
  8
0
  0
BLOCK
  8
0
  2
26
 70
    64
 10
0.0
 20
0.0
 30
0.0
  3
26
  0
ARC
  8
KOMPONENT
 10
0.0
 20
0.0
 30
0.0
 40
3.0
 50
0.0
 51
358.876904
  0
POLYLINE
  8
KOMPONENT
 66
     1
 10
0.0
 20
0.0
 30
0.0
  0
VERTEX
  8
KOMPONENT
 10
0.375
 20
-0.375
 30
0.0
  0
VERTEX
  8
KOMPONENT
 10
1.5
 20
-0.375
 30
0.0
  0
SEQEND
  8
KOMPONENT
  0
POLYLINE
  8
KOMPONENT
 66
     1
 10
0.0
 20
0.0
 30
0.0
  0
VERTEX
  8
KOMPONENT
 10
-1.5
 20
-0.375
 30
0.0
  0
VERTEX
  8
KOMPONENT
 10
-0.375
 20
-0.375
 30
0.0
  0
SEQEND
  8
KOMPONENT
  0
POLYLINE
  8
KOMPONENT
 66
     1
 10
0.0
 20
0.0
 30
0.0
  0
VERTEX
  8
KOMPONENT
 10
0.375
 20
0.375
 30
0.0
  0
VERTEX
  8
KOMPONENT
 10
1.5
 20
0.375
 30
0.0
  0
SEQEND
  8
KOMPONENT
  0
POLYLINE
  8
KOMPONENT
 66
     1
 10
0.0
 20
0.0
 30
0.0
  0
VERTEX
  8
KOMPONENT
 10
-1.5
 20
0.375
 30
0.0
  0
VERTEX
  8
KOMPONENT
 10
-0.375
 20
0.375
 30
0.0
  0
SEQEND
  8
KOMPONENT
  0
POLYLINE
  8
KOMPONENT
 66
     1
 10
0.0
 20
0.0
 30
0.0
  0
VERTEX
  8
KOMPONENT
 10
0.375
 20
0.375
 30
0.0
 50
90.0
  0
VERTEX
  8
KOMPONENT
 10
0.375
 20
1.5
 30
0.0
 50
90.0
  0
SEQEND
  8
KOMPONENT
  0
POLYLINE
  8
KOMPONENT
 66
     1
 10
0.0
 20
0.0
 30
0.0
  0
VERTEX
  8
KOMPONENT
 10
0.375
 20
-1.5
 30
0.0
 50
90.0
  0
VERTEX
  8
KOMPONENT
 10
0.375
 20
-0.375
 30
0.0
 50
90.0
  0
SEQEND
  8
KOMPONENT
  0
POLYLINE
  8
KOMPONENT
 66
     1
 10
0.0
 20
0.0
 30
0.0
  0
VERTEX
  8
KOMPONENT
 10
-0.375
 20
0.375
 30
0.0
 50
90.0
  0
VERTEX
  8
KOMPONENT
 10
-0.375
 20
1.5
 30
0.0
 50
90.0
  0
SEQEND
  8
KOMPONENT
  0
POLYLINE
  8
KOMPONENT
 66
     1
 10
0.0
 20
0.0
 30
0.0
  0
VERTEX
  8
KOMPONENT
 10
-0.375
 20
-1.5
 30
0.0
 50
90.0
  0
VERTEX
  8
KOMPONENT
 10
-0.375
 20
-0.375
 30
0.0
 50
90.0
  0
SEQEND
  8
KOMPONENT
  0
POLYLINE
  8
KOMPONENT
 66
     1
 10
0.0
 20
0.0
 30
0.0
  0
VERTEX
  8
KOMPONENT
 10
-0.375
 20
1.5
 30
0.0
  0
VERTEX
  8
KOMPONENT
 10
0.375
 20
1.5
 30
0.0
  0
SEQEND
  8
KOMPONENT
  0
POLYLINE
  8
KOMPONENT
 66
     1
 10
0.0
 20
0.0
 30
0.0
  0
VERTEX
  8
KOMPONENT
 10
1.5
 20
-0.375
 30
0.0
 50
90.0
  0
VERTEX
  8
KOMPONENT
 10
1.5
 20
0.375
 30
0.0
 50
90.0
  0
SEQEND
  8
KOMPONENT
  0
POLYLINE
  8
KOMPONENT
 66
     1
 10
0.0
 20
0.0
 30
0.0
  0
VERTEX
  8
KOMPONENT
 10
-0.375
 20
-1.5
 30
0.0
  0
VERTEX
  8
KOMPONENT
 10
0.375
 20
-1.5
 30
0.0
  0
SEQEND
  8
KOMPONENT
  0
POLYLINE
  8
KOMPONENT
 66
     1
 10
0.0
 20
0.0
 30
0.0
  0
VERTEX
  8
KOMPONENT
 10
-1.5
 20
-0.375
 30
0.0
 50
90.0
  0
VERTEX
  8
KOMPONENT
 10
-1.5
 20
0.375
 30
0.0
 50
90.0
  0
SEQEND
  8
KOMPONENT
  0
ENDBLK
  8
0
  0
ENDSEC
  0
SECTION
  2
ENTITIES
  0
INSERT
  8
0
  2
ACAD1612
 10
0.0
 20
0.0
 30
0.0
  0
ENDSEC
  0
EOF
