*%FSLAX23Y23*%
*%MOIN*%
G01*
D24*
X7437Y8442D02*
D03*
X7537D02*
D03*
X7637D02*
D03*
X7737D02*
D03*
X7837D02*
D03*
X7937D02*
D03*
X8037D02*
D03*
X8137D02*
D03*
D28*
X6017Y8599D02*
D03*
Y8469D02*
D03*
Y8209D02*
D03*
Y8339D02*
D03*
D30*
X13624Y8026D02*
D03*
Y8326D02*
D03*
X14024Y8026D02*
D03*
Y8326D02*
D03*
X13624Y7361D02*
D03*
Y7661D02*
D03*
X14024Y7361D02*
D03*
Y7661D02*
D03*
X13413Y8110D02*
D03*
Y7810D02*
D03*
X13013Y8110D02*
D03*
Y7810D02*
D03*
X12803Y8326D02*
D03*
Y8026D02*
D03*
X12403Y8326D02*
D03*
Y8026D02*
D03*
X13013Y8243D02*
D03*
Y8543D02*
D03*
X13413Y8243D02*
D03*
Y8543D02*
D03*
X12403Y7361D02*
D03*
Y7661D02*
D03*
X12803Y7361D02*
D03*
Y7661D02*
D03*
X11340Y7361D02*
D03*
Y7661D02*
D03*
X11740Y7361D02*
D03*
Y7661D02*
D03*
X10120Y7361D02*
D03*
Y7661D02*
D03*
X10520Y7361D02*
D03*
Y7661D02*
D03*
X8899Y7361D02*
D03*
Y7661D02*
D03*
X9299Y7361D02*
D03*
Y7661D02*
D03*
X7679Y7361D02*
D03*
Y7661D02*
D03*
X8079Y7361D02*
D03*
Y7661D02*
D03*
X6858D02*
D03*
Y7361D02*
D03*
X6458Y7661D02*
D03*
Y7361D02*
D03*
D33*
X9709Y7511D02*
D03*
X7229D02*
D03*
X12603Y8535D02*
D03*
X13213Y7511D02*
D03*
D41*
X8237Y8442D02*
D03*
M02*
