  0
SECTION
  2
HEADER
  9
$ACADVER
  1
AC1009
  9
$INSBASE
 10
0.0
 20
0.0
 30
0.0
  9
$EXTMIN
 10
37.625516
 20
12.306183
 30
0.0
  9
$EXTMAX
 10
611.019409
 20
384.60061
 30
0.0
  9
$LIMMIN
 10
0.0
 20
0.0
  9
$LIMMAX
 10
420.0
 20
297.0
  9
$ORTHOMODE
 70
     1
  9
$REGENMODE
 70
     1
  9
$FILLMODE
 70
     1
  9
$QTEXTMODE
 70
     0
  9
$MIRRTEXT
 70
     1
  9
$DRAGMODE
 70
     2
  9
$LTSCALE
 40
1.0
  9
$OSMODE
 70
     0
  9
$ATTMODE
 70
     1
  9
$TEXTSIZE
 40
2.5
  9
$TRACEWID
 40
1.75
  9
$TEXTSTYLE
  7
STANDARD
  9
$CLAYER
  8
BUND-MAAL
  9
$CELTYPE
  6
BYLAYER
  9
$CECOLOR
 62
   256
  9
$DIMSCALE
 40
1.0
  9
$DIMASZ
 40
5.0
  9
$DIMEXO
 40
1.0
  9
$DIMDLI
 40
5.0
  9
$DIMRND
 40
0.0
  9
$DIMDLE
 40
0.0
  9
$DIMEXE
 40
1.0
  9
$DIMTP
 40
0.0
  9
$DIMTM
 40
0.0
  9
$DIMTXT
 40
3.5
  9
$DIMCEN
 40
0.09
  9
$DIMTSZ
 40
0.0
  9
$DIMTOL
 70
     0
  9
$DIMLIM
 70
     0
  9
$DIMTIH
 70
     0
  9
$DIMTOH
 70
     0
  9
$DIMSE1
 70
     0
  9
$DIMSE2
 70
     0
  9
$DIMTAD
 70
     1
  9
$DIMZIN
 70
     0
  9
$DIMBLK
  1

  9
$DIMASO
 70
     1
  9
$DIMSHO
 70
     0
  9
$DIMPOST
  1

  9
$DIMAPOST
  1

  9
$DIMALT
 70
     0
  9
$DIMALTD
 70
     2
  9
$DIMALTF
 40
25.4
  9
$DIMLFAC
 40
1.0
  9
$DIMTOFL
 70
     0
  9
$DIMTVP
 40
0.0
  9
$DIMTIX
 70
     1
  9
$DIMSOXD
 70
     0
  9
$DIMSAH
 70
     0
  9
$DIMBLK1
  1

  9
$DIMBLK2
  1

  9
$DIMSTYLE
  2
*UNNAMED
  9
$DIMCLRD
 70
     0
  9
$DIMCLRE
 70
     0
  9
$DIMCLRT
 70
     0
  9
$DIMTFAC
 40
1.0
  9
$DIMGAP
 40
0.09
  9
$LUNITS
 70
     2
  9
$LUPREC
 70
     0
  9
$SKETCHINC
 40
0.1
  9
$FILLETRAD
 40
8.0
  9
$AUNITS
 70
     0
  9
$AUPREC
 70
     0
  9
$MENU
  1
acad
  9
$ELEVATION
 40
0.0
  9
$PELEVATION
 40
0.0
  9
$THICKNESS
 40
0.0
  9
$LIMCHECK
 70
     1
  9
$BLIPMODE
 70
     0
  9
$CHAMFERA
 40
0.0
  9
$CHAMFERB
 40
0.0
  9
$SKPOLY
 70
     0
  9
$TDCREATE
 40
2450704.572190046
  9
$TDUPDATE
 40
2450704.572190046
  9
$TDINDWG
 40
0.0000000000
  9
$TDUSRTIMER
 40
0.0000000000
  9
$USRTIMER
 70
     1
  9
$ANGBASE
 50
0.0
  9
$ANGDIR
 70
     0
  9
$PDMODE
 70
     0
  9
$PDSIZE
 40
0.0
  9
$PLINEWID
 40
0.0
  9
$COORDS
 70
     2
  9
$SPLFRAME
 70
     0
  9
$SPLINETYPE
 70
     6
  9
$SPLINESEGS
 70
     8
  9
$ATTDIA
 70
     0
  9
$ATTREQ
 70
     1
  9
$HANDLING
 70
     0
  9
$HANDSEED
  5
0
  9
$SURFTAB1
 70
     6
  9
$SURFTAB2
 70
     6
  9
$SURFTYPE
 70
     6
  9
$SURFU
 70
     6
  9
$SURFV
 70
     6
  9
$UCSNAME
  2

  9
$UCSORG
 10
0.0
 20
0.0
 30
0.0
  9
$UCSXDIR
 10
1.0
 20
0.0
 30
0.0
  9
$UCSYDIR
 10
0.0
 20
1.0
 30
0.0
  9
$PUCSNAME
  2

  9
$PUCSORG
 10
0.0
 20
0.0
 30
0.0
  9
$PUCSXDIR
 10
1.0
 20
0.0
 30
0.0
  9
$PUCSYDIR
 10
0.0
 20
1.0
 30
0.0
  9
$USERI1
 70
     0
  9
$USERI2
 70
     0
  9
$USERI3
 70
     0
  9
$USERI4
 70
     0
  9
$USERI5
 70
     0
  9
$USERR1
 40
0.0
  9
$USERR2
 40
0.0
  9
$USERR3
 40
0.0
  9
$USERR4
 40
0.0
  9
$USERR5
 40
0.0
  9
$WORLDVIEW
 70
     1
  9
$SHADEDGE
 70
     3
  9
$SHADEDIF
 70
    70
  9
$TILEMODE
 70
     1
  9
$MAXACTVP
 70
    16
  9
$PINSBASE
 10
0.0
 20
2.098456E+99
 30
2.098456E+99
  9
$PLIMCHECK
 70
     0
  9
$PEXTMIN
 10
1.000000E+20
 20
1.000000E+20
 30
1.000000E+20
  9
$PEXTMAX
 10
-1.000000E+20
 20
-1.000000E+20
 30
-1.000000E+20
  9
$PLIMMIN
 10
0.0
 20
0.0
  9
$PLIMMAX
 10
12.0
 20
9.0
  9
$UNITMODE
 70
     0
  9
$VISRETAIN
 70
     0
  9
$PLINEGEN
 70
     0
  9
$PSLTSCALE
 70
     0
  9
$TREEDEPTH
 70
  3020
  9
$DWGCODEPAGE
  3
undefined
  0
ENDSEC
  0
SECTION
  2
TABLES
  0
TABLE
  2
VPORT
 70
     1
  0
VPORT
  2
*ACTIVE
 70
     0
 10
0.0
 20
0.0
 11
1.0
 21
1.0
 12
320.236034
 22
193.11326
 13
0.0
 23
0.0
 14
1.0
 24
1.0
 15
0.0
 25
0.0
 16
0.0
 26
0.0
 36
1.0
 17
0.0
 27
0.0
 37
0.0
 40
386.226519
 41
1.658281
 42
50.0
 43
0.0
 44
0.0
 50
0.0
 51
0.0
 71
     0
 72
   100
 73
     1
 74
     1
 75
     0
 76
     0
 77
     0
 78
     0
  0
ENDTAB
  0
TABLE
  2
LTYPE
 70
     2
  0
LTYPE
  2
CONTINUOUS
 70
    64
  3
Solid line
 72
    65
 73
     0
 40
0.0
  0
LTYPE
  2
CENT
 70
    64
  3
_____  __  _____  __  _____  __  _____  __  ___
 72
    65
 73
     4
 40
11.0
 49
5.0
 49
-2.0
 49
2.0
 49
-2.0
  0
ENDTAB
  0
TABLE
  2
LAYER
 70
     6
  0
LAYER
  2
0
 70
    64
 62
     7
  6
CONTINUOUS
  0
LAYER
  2
BUND
 70
    64
 62
    11
  6
CONTINUOUS
  0
LAYER
  2
BUND-MAAL
 70
    64
 62
     9
  6
CONTINUOUS
  0
LAYER
  2
BUND-TEKST
 70
    64
 62
     7
  6
CONTINUOUS
  0
LAYER
  2
RESTER
 70
    65
 62
    -7
  6
CONTINUOUS
  0
LAYER
  2
DEFPOINTS
 70
    65
 62
    -7
  6
CONTINUOUS
  0
ENDTAB
  0
TABLE
  2
STYLE
 70
     2
  0
STYLE
  2
STANDARD
 70
    64
 40
0.0
 41
1.0
 50
0.0
 71
     0
 42
2.5
  3
txt
  4

  0
STYLE
  2
UV
 70
    64
 40
0.0
 41
1.0
 50
0.0
 71
     0
 42
2.0
  3
UV
  4

  0
ENDTAB
  0
TABLE
  2
VIEW
 70
     0
  0
ENDTAB
  0
TABLE
  2
UCS
 70
     0
  0
ENDTAB
  0
TABLE
  2
APPID
 70
     1
  0
APPID
  2
ACAD
 70
    64
  0
ENDTAB
  0
TABLE
  2
DIMSTYLE
 70
     0
  0
ENDTAB
  0
ENDSEC
  0
SECTION
  2
BLOCKS
  0
BLOCK
  8
0
  2
*D0
 70
    65
 10
0.0
 20
0.0
 30
0.0
  3
*D
  0
LINE
  8
0
  6
BYBLOCK
 62
     0
 10
48.215318
 20
24.264724
 30
0.0
 11
52.600487
 21
28.340666
 31
0.0
  0
SOLID
  8
0
  6
BYBLOCK
 62
     0
 10
48.612457
 20
23.837456
 30
0.0
 11
47.818179
 21
24.691993
 31
0.0
 12
45.651707
 22
21.88189
 32
0.0
 13
45.651707
 23
21.88189
 33
0.0
  0
LINE
  8
0
  6
BYBLOCK
 62
     0
 10
67.625516
 20
42.306183
 30
0.0
 11
60.676736
 21
35.847406
 31
0.0
  0
TEXT
  8
0
  6
BYBLOCK
 62
     0
 10
52.263612
 20
30.344036
 30
0.0
 40
3.5
  1
R30
  0
LINE
  8
0
  6
BYBLOCK
 62
     0
 10
67.535516
 20
42.306183
 30
0.0
 11
67.715516
 21
42.306183
 31
0.0
  0
LINE
  8
0
  6
BYBLOCK
 62
     0
 10
67.625516
 20
42.216183
 30
0.0
 11
67.625516
 21
42.396183
 31
0.0
  0
POINT
  8
RESTER
  6
BYBLOCK
 62
     0
 10
45.651707
 20
21.88189
 30
0.0
  0
POINT
  8
RESTER
  6
BYBLOCK
 62
     0
 10
67.625516
 20
42.306183
 30
0.0
  0
ENDBLK
  8
0
  0
BLOCK
  8
0
  2
*D1
 70
    65
 10
0.0
 20
0.0
 30
0.0
  3
*D
  0
LINE
  8
0
  6
BYBLOCK
 62
     0
 10
417.625516
 20
359.306183
 30
0.0
 11
413.881468
 21
362.620109
 31
0.0
  0
SOLID
  8
0
  6
BYBLOCK
 62
     0
 10
413.329147
 20
361.996101
 30
0.0
 11
414.433789
 21
363.244117
 31
0.0
 12
410.13742
 22
365.934034
 32
0.0
 13
410.13742
 23
365.934034
 33
0.0
  0
LINE
  8
0
  6
BYBLOCK
 62
     0
 10
417.625516
 20
359.306183
 30
0.0
 11
427.763678
 21
350.332709
 31
0.0
  0
LINE
  8
0
  6
BYBLOCK
 62
     0
 10
427.763678
 20
350.332709
 30
0.0
 11
432.763678
 21
350.332709
 31
0.0
  0
TEXT
  8
0
  6
BYBLOCK
 62
     0
 10
437.763678
 20
348.582709
 30
0.0
 40
3.5
  1
R10
  0
LINE
  8
0
  6
BYBLOCK
 62
     0
 10
417.535516
 20
359.306183
 30
0.0
 11
417.715516
 21
359.306183
 31
0.0
  0
LINE
  8
0
  6
BYBLOCK
 62
     0
 10
417.625516
 20
359.216183
 30
0.0
 11
417.625516
 21
359.396183
 31
0.0
  0
POINT
  8
DEFPOINTS
  6
BYBLOCK
 62
     0
 10
410.13742
 20
365.934034
 30
0.0
  0
POINT
  8
DEFPOINTS
  6
BYBLOCK
 62
     0
 10
417.625516
 20
359.306183
 30
0.0
  0
ENDBLK
  8
0
  0
BLOCK
  8
0
  2
*D2
 70
    65
 10
0.0
 20
0.0
 30
0.0
  3
*D
  0
LINE
  8
0
  6
BYBLOCK
 62
     0
 10
279.625516
 20
254.306183
 30
0.0
 11
261.625516
 21
254.306183
 31
0.0
  0
LINE
  8
0
  6
BYBLOCK
 62
     0
 10
302.625516
 20
334.306183
 30
0.0
 11
261.625516
 21
334.306183
 31
0.0
  0
LINE
  8
0
  6
BYBLOCK
 62
     0
 10
262.625516
 20
259.306183
 30
0.0
 11
262.625516
 21
329.306183
 31
0.0
  0
SOLID
  8
0
  6
BYBLOCK
 62
     0
 10
263.45885
 20
259.306183
 30
0.0
 11
261.792183
 21
259.306183
 31
0.0
 12
262.625516
 22
254.306183
 32
0.0
 13
262.625516
 23
254.306183
 33
0.0
  0
SOLID
  8
0
  6
BYBLOCK
 62
     0
 10
263.45885
 20
329.306183
 30
0.0
 11
261.792183
 21
329.306183
 31
0.0
 12
262.625516
 22
334.306183
 32
0.0
 13
262.625516
 23
334.306183
 33
0.0
  0
TEXT
  8
0
  6
BYBLOCK
 62
     0
 10
260.875516
 20
291.681183
 30
0.0
 40
3.5
  1
80
 50
90.0
  0
POINT
  8
DEFPOINTS
  6
BYBLOCK
 62
     0
 10
280.625516
 20
254.306183
 30
0.0
  0
POINT
  8
DEFPOINTS
  6
BYBLOCK
 62
     0
 10
303.625516
 20
334.306183
 30
0.0
  0
POINT
  8
DEFPOINTS
  6
BYBLOCK
 62
     0
 10
262.625516
 20
334.306183
 30
0.0
  0
ENDBLK
  8
0
  0
BLOCK
  8
0
  2
*D3
 70
    65
 10
0.0
 20
0.0
 30
0.0
  3
*D
  0
LINE
  8
0
  6
BYBLOCK
 62
     0
 10
302.625516
 20
334.306183
 30
0.0
 11
261.625516
 21
334.306183
 31
0.0
  0
LINE
  8
0
  6
BYBLOCK
 62
     0
 10
298.625516
 20
359.306183
 30
0.0
 11
261.625516
 21
359.306183
 31
0.0
  0
LINE
  8
0
  6
BYBLOCK
 62
     0
 10
262.625516
 20
339.306183
 30
0.0
 11
262.625516
 21
354.306183
 31
0.0
  0
SOLID
  8
0
  6
BYBLOCK
 62
     0
 10
263.45885
 20
339.306183
 30
0.0
 11
261.792183
 21
339.306183
 31
0.0
 12
262.625516
 22
334.306183
 32
0.0
 13
262.625516
 23
334.306183
 33
0.0
  0
SOLID
  8
0
  6
BYBLOCK
 62
     0
 10
263.45885
 20
354.306183
 30
0.0
 11
261.792183
 21
354.306183
 31
0.0
 12
262.625516
 22
359.306183
 32
0.0
 13
262.625516
 23
359.306183
 33
0.0
  0
TEXT
  8
0
  6
BYBLOCK
 62
     0
 10
260.875516
 20
343.889516
 30
0.0
 40
3.5
  1
25
 50
90.0
  0
POINT
  8
DEFPOINTS
  6
BYBLOCK
 62
     0
 10
303.625516
 20
334.306183
 30
0.0
  0
POINT
  8
DEFPOINTS
  6
BYBLOCK
 62
     0
 10
299.625516
 20
359.306183
 30
0.0
  0
POINT
  8
DEFPOINTS
  6
BYBLOCK
 62
     0
 10
262.625516
 20
359.306183
 30
0.0
  0
ENDBLK
  8
0
  0
BLOCK
  8
0
  2
*D4
 70
    65
 10
0.0
 20
0.0
 30
0.0
  3
*D
  0
LINE
  8
0
  6
BYBLOCK
 62
     0
 10
318.625516
 20
234.306183
 30
0.0
 11
338.625516
 21
234.306183
 31
0.0
  0
LINE
  8
0
  6
BYBLOCK
 62
     0
 10
318.625516
 20
254.306183
 30
0.0
 11
338.625516
 21
254.306183
 31
0.0
  0
LINE
  8
0
  6
BYBLOCK
 62
     0
 10
337.625516
 20
239.306183
 30
0.0
 11
337.625516
 21
249.306183
 31
0.0
  0
SOLID
  8
0
  6
BYBLOCK
 62
     0
 10
338.45885
 20
239.306183
 30
0.0
 11
336.792183
 21
239.306183
 31
0.0
 12
337.625516
 22
234.306183
 32
0.0
 13
337.625516
 23
234.306183
 33
0.0
  0
SOLID
  8
0
  6
BYBLOCK
 62
     0
 10
338.45885
 20
249.306183
 30
0.0
 11
336.792183
 21
249.306183
 31
0.0
 12
337.625516
 22
254.306183
 32
0.0
 13
337.625516
 23
254.306183
 33
0.0
  0
TEXT
  8
0
  6
BYBLOCK
 62
     0
 10
335.875516
 20
241.681183
 30
0.0
 40
3.5
  1
20
 50
90.0
  0
POINT
  8
DEFPOINTS
  6
BYBLOCK
 62
     0
 10
317.625516
 20
234.306183
 30
0.0
  0
POINT
  8
DEFPOINTS
  6
BYBLOCK
 62
     0
 10
317.625516
 20
254.306183
 30
0.0
  0
POINT
  8
DEFPOINTS
  6
BYBLOCK
 62
     0
 10
337.625516
 20
254.306183
 30
0.0
  0
ENDBLK
  8
0
  0
BLOCK
  8
0
  2
*D5
 70
    65
 10
0.0
 20
0.0
 30
0.0
  3
*D
  0
LINE
  8
0
  6
BYBLOCK
 62
     0
 10
303.625516
 20
335.306183
 30
0.0
 11
303.625516
 21
365.521928
 31
0.0
  0
LINE
  8
0
  6
BYBLOCK
 62
     0
 10
299.625516
 20
360.306183
 30
0.0
 11
299.625516
 21
365.521928
 31
0.0
  0
LINE
  8
0
  6
BYBLOCK
 62
     0
 10
294.625516
 20
364.521928
 30
0.0
 11
289.625516
 21
364.521928
 31
0.0
  0
LINE
  8
0
  6
BYBLOCK
 62
     0
 10
308.625516
 20
364.521928
 30
0.0
 11
313.625516
 21
364.521928
 31
0.0
  0
SOLID
  8
0
  6
BYBLOCK
 62
     0
 10
294.625516
 20
363.688595
 30
0.0
 11
294.625516
 21
365.355261
 31
0.0
 12
299.625516
 22
364.521928
 32
0.0
 13
299.625516
 23
364.521928
 33
0.0
  0
SOLID
  8
0
  6
BYBLOCK
 62
     0
 10
308.625516
 20
363.688595
 30
0.0
 11
308.625516
 21
365.355261
 31
0.0
 12
303.625516
 22
364.521928
 32
0.0
 13
303.625516
 23
364.521928
 33
0.0
  0
TEXT
  8
0
  6
BYBLOCK
 62
     0
 10
300.45885
 20
366.271928
 30
0.0
 40
3.5
  1
4
  0
POINT
  8
DEFPOINTS
  6
BYBLOCK
 62
     0
 10
303.625516
 20
334.306183
 30
0.0
  0
POINT
  8
DEFPOINTS
  6
BYBLOCK
 62
     0
 10
299.625516
 20
359.306183
 30
0.0
  0
POINT
  8
DEFPOINTS
  6
BYBLOCK
 62
     0
 10
299.625516
 20
364.521928
 30
0.0
  0
ENDBLK
  8
0
  0
BLOCK
  8
0
  2
*D6
 70
    65
 10
0.0
 20
0.0
 30
0.0
  3
*D
  0
LINE
  8
0
  6
BYBLOCK
 62
     0
 10
299.625516
 20
360.306183
 30
0.0
 11
299.625516
 21
371.867479
 31
0.0
  0
LINE
  8
0
  6
BYBLOCK
 62
     0
 10
372.625516
 20
360.306183
 30
0.0
 11
372.625516
 21
371.867479
 31
0.0
  0
LINE
  8
0
  6
BYBLOCK
 62
     0
 10
304.625516
 20
370.867479
 30
0.0
 11
367.625516
 21
370.867479
 31
0.0
  0
SOLID
  8
0
  6
BYBLOCK
 62
     0
 10
304.625516
 20
370.034145
 30
0.0
 11
304.625516
 21
371.700812
 31
0.0
 12
299.625516
 22
370.867479
 32
0.0
 13
299.625516
 23
370.867479
 33
0.0
  0
SOLID
  8
0
  6
BYBLOCK
 62
     0
 10
367.625516
 20
370.034145
 30
0.0
 11
367.625516
 21
371.700812
 31
0.0
 12
372.625516
 22
370.867479
 32
0.0
 13
372.625516
 23
370.867479
 33
0.0
  0
TEXT
  8
0
  6
BYBLOCK
 62
     0
 10
333.20885
 20
372.617479
 30
0.0
 40
3.5
  1
73
  0
POINT
  8
DEFPOINTS
  6
BYBLOCK
 62
     0
 10
299.625516
 20
359.306183
 30
0.0
  0
POINT
  8
DEFPOINTS
  6
BYBLOCK
 62
     0
 10
372.625516
 20
359.306183
 30
0.0
  0
POINT
  8
DEFPOINTS
  6
BYBLOCK
 62
     0
 10
372.625516
 20
370.867479
 30
0.0
  0
ENDBLK
  8
0
  0
BLOCK
  8
0
  2
*D7
 70
    65
 10
0.0
 20
0.0
 30
0.0
  3
*D
  0
LINE
  8
0
  6
BYBLOCK
 62
     0
 10
372.625516
 20
360.306183
 30
0.0
 11
372.625516
 21
371.867479
 31
0.0
  0
LINE
  8
0
  6
BYBLOCK
 62
     0
 10
407.625516
 20
360.306183
 30
0.0
 11
407.625516
 21
371.867479
 31
0.0
  0
LINE
  8
0
  6
BYBLOCK
 62
     0
 10
377.625516
 20
370.867479
 30
0.0
 11
402.625516
 21
370.867479
 31
0.0
  0
SOLID
  8
0
  6
BYBLOCK
 62
     0
 10
377.625516
 20
370.034145
 30
0.0
 11
377.625516
 21
371.700812
 31
0.0
 12
372.625516
 22
370.867479
 32
0.0
 13
372.625516
 23
370.867479
 33
0.0
  0
SOLID
  8
0
  6
BYBLOCK
 62
     0
 10
402.625516
 20
370.034145
 30
0.0
 11
402.625516
 21
371.700812
 31
0.0
 12
407.625516
 22
370.867479
 32
0.0
 13
407.625516
 23
370.867479
 33
0.0
  0
TEXT
  8
0
  6
BYBLOCK
 62
     0
 10
387.20885
 20
372.617479
 30
0.0
 40
3.5
  1
35
  0
POINT
  8
DEFPOINTS
  6
BYBLOCK
 62
     0
 10
372.625516
 20
359.306183
 30
0.0
  0
POINT
  8
DEFPOINTS
  6
BYBLOCK
 62
     0
 10
407.625516
 20
359.306183
 30
0.0
  0
POINT
  8
DEFPOINTS
  6
BYBLOCK
 62
     0
 10
407.625516
 20
370.867479
 30
0.0
  0
ENDBLK
  8
0
  0
BLOCK
  8
0
  2
*D8
 70
    65
 10
0.0
 20
0.0
 30
0.0
  3
*D
  0
LINE
  8
0
  6
BYBLOCK
 62
     0
 10
362.625516
 20
303.306183
 30
0.0
 11
362.625516
 21
296.440395
 31
0.0
  0
LINE
  8
0
  6
BYBLOCK
 62
     0
 10
372.625516
 20
303.306183
 30
0.0
 11
372.625516
 21
296.440395
 31
0.0
  0
LINE
  8
0
  6
BYBLOCK
 62
     0
 10
377.625516
 20
297.440395
 30
0.0
 11
382.625516
 21
297.440395
 31
0.0
  0
LINE
  8
0
  6
BYBLOCK
 62
     0
 10
357.625516
 20
297.440395
 30
0.0
 11
352.625516
 21
297.440395
 31
0.0
  0
SOLID
  8
0
  6
BYBLOCK
 62
     0
 10
377.625516
 20
296.607062
 30
0.0
 11
377.625516
 21
298.273729
 31
0.0
 12
372.625516
 22
297.440395
 32
0.0
 13
372.625516
 23
297.440395
 33
0.0
  0
SOLID
  8
0
  6
BYBLOCK
 62
     0
 10
357.625516
 20
296.607062
 30
0.0
 11
357.625516
 21
298.273729
 31
0.0
 12
362.625516
 22
297.440395
 32
0.0
 13
362.625516
 23
297.440395
 33
0.0
  0
TEXT
  8
0
  6
BYBLOCK
 62
     0
 10
365.58385
 20
299.190395
 30
0.0
 40
3.5
  1
10
  0
POINT
  8
DEFPOINTS
  6
BYBLOCK
 62
     0
 10
362.625516
 20
304.306183
 30
0.0
  0
POINT
  8
DEFPOINTS
  6
BYBLOCK
 62
     0
 10
372.625516
 20
304.306183
 30
0.0
  0
POINT
  8
DEFPOINTS
  6
BYBLOCK
 62
     0
 10
372.625516
 20
297.440395
 30
0.0
  0
ENDBLK
  8
0
  0
BLOCK
  8
0
  2
*D9
 70
    65
 10
0.0
 20
0.0
 30
0.0
  3
*D
  0
LINE
  8
0
  6
BYBLOCK
 62
     0
 10
361.625516
 20
233.306183
 30
0.0
 11
348.76616
 21
233.306183
 31
0.0
  0
LINE
  8
0
  6
BYBLOCK
 62
     0
 10
361.625516
 20
304.306183
 30
0.0
 11
348.76616
 21
304.306183
 31
0.0
  0
LINE
  8
0
  6
BYBLOCK
 62
     0
 10
349.76616
 20
238.306183
 30
0.0
 11
349.76616
 21
268.806183
 31
0.0
  0
LINE
  8
0
  6
BYBLOCK
 62
     0
 10
349.76616
 20
299.306183
 30
0.0
 11
349.76616
 21
268.806183
 31
0.0
  0
SOLID
  8
0
  6
BYBLOCK
 62
     0
 10
350.599493
 20
238.306183
 30
0.0
 11
348.932827
 21
238.306183
 31
0.0
 12
349.76616
 22
233.306183
 32
0.0
 13
349.76616
 23
233.306183
 33
0.0
  0
SOLID
  8
0
  6
BYBLOCK
 62
     0
 10
350.599493
 20
299.306183
 30
0.0
 11
348.932827
 21
299.306183
 31
0.0
 12
349.76616
 22
304.306183
 32
0.0
 13
349.76616
 23
304.306183
 33
0.0
  0
TEXT
  8
0
  6
BYBLOCK
 62
     0
 10
348.01616
 20
266.472849
 30
0.0
 40
3.5
  1
71
 50
90.0
  0
POINT
  8
DEFPOINTS
  6
BYBLOCK
 62
     0
 10
362.625516
 20
233.306183
 30
0.0
  0
POINT
  8
DEFPOINTS
  6
BYBLOCK
 62
     0
 10
362.625516
 20
304.306183
 30
0.0
  0
POINT
  8
DEFPOINTS
  6
BYBLOCK
 62
     0
 10
349.76616
 20
304.306183
 30
0.0
  0
ENDBLK
  8
0
  0
BLOCK
  8
0
  2
*D10
 70
    65
 10
0.0
 20
0.0
 30
0.0
  3
*D
  0
LINE
  8
0
  6
BYBLOCK
 62
     0
 10
361.625516
 20
208.306183
 30
0.0
 11
348.76616
 21
208.306183
 31
0.0
  0
LINE
  8
0
  6
BYBLOCK
 62
     0
 10
361.625516
 20
233.306183
 30
0.0
 11
348.76616
 21
233.306183
 31
0.0
  0
LINE
  8
0
  6
BYBLOCK
 62
     0
 10
349.76616
 20
213.306183
 30
0.0
 11
349.76616
 21
220.806183
 31
0.0
  0
LINE
  8
0
  6
BYBLOCK
 62
     0
 10
349.76616
 20
228.306183
 30
0.0
 11
349.76616
 21
220.806183
 31
0.0
  0
SOLID
  8
0
  6
BYBLOCK
 62
     0
 10
350.599493
 20
213.306183
 30
0.0
 11
348.932827
 21
213.306183
 31
0.0
 12
349.76616
 22
208.306183
 32
0.0
 13
349.76616
 23
208.306183
 33
0.0
  0
SOLID
  8
0
  6
BYBLOCK
 62
     0
 10
350.599493
 20
228.306183
 30
0.0
 11
348.932827
 21
228.306183
 31
0.0
 12
349.76616
 22
233.306183
 32
0.0
 13
349.76616
 23
233.306183
 33
0.0
  0
TEXT
  8
0
  6
BYBLOCK
 62
     0
 10
348.01616
 20
217.889516
 30
0.0
 40
3.5
  1
25
 50
90.0
  0
POINT
  8
DEFPOINTS
  6
BYBLOCK
 62
     0
 10
362.625516
 20
208.306183
 30
0.0
  0
POINT
  8
DEFPOINTS
  6
BYBLOCK
 62
     0
 10
362.625516
 20
233.306183
 30
0.0
  0
POINT
  8
DEFPOINTS
  6
BYBLOCK
 62
     0
 10
349.76616
 20
233.306183
 30
0.0
  0
ENDBLK
  8
0
  0
BLOCK
  8
0
  2
*D11
 70
    65
 10
0.0
 20
0.0
 30
0.0
  3
*D
  0
LINE
  8
0
  6
BYBLOCK
 62
     0
 10
381.625516
 20
153.306183
 30
0.0
 11
348.76616
 21
153.306183
 31
0.0
  0
LINE
  8
0
  6
BYBLOCK
 62
     0
 10
361.625516
 20
208.306183
 30
0.0
 11
348.76616
 21
208.306183
 31
0.0
  0
LINE
  8
0
  6
BYBLOCK
 62
     0
 10
349.76616
 20
158.306183
 30
0.0
 11
349.76616
 21
180.806183
 31
0.0
  0
LINE
  8
0
  6
BYBLOCK
 62
     0
 10
349.76616
 20
203.306183
 30
0.0
 11
349.76616
 21
180.806183
 31
0.0
  0
SOLID
  8
0
  6
BYBLOCK
 62
     0
 10
350.599493
 20
158.306183
 30
0.0
 11
348.932827
 21
158.306183
 31
0.0
 12
349.76616
 22
153.306183
 32
0.0
 13
349.76616
 23
153.306183
 33
0.0
  0
SOLID
  8
0
  6
BYBLOCK
 62
     0
 10
350.599493
 20
203.306183
 30
0.0
 11
348.932827
 21
203.306183
 31
0.0
 12
349.76616
 22
208.306183
 32
0.0
 13
349.76616
 23
208.306183
 33
0.0
  0
TEXT
  8
0
  6
BYBLOCK
 62
     0
 10
348.01616
 20
177.889516
 30
0.0
 40
3.5
  1
55
 50
90.0
  0
POINT
  8
DEFPOINTS
  6
BYBLOCK
 62
     0
 10
382.625516
 20
153.306183
 30
0.0
  0
POINT
  8
DEFPOINTS
  6
BYBLOCK
 62
     0
 10
362.625516
 20
208.306183
 30
0.0
  0
POINT
  8
DEFPOINTS
  6
BYBLOCK
 62
     0
 10
349.76616
 20
208.306183
 30
0.0
  0
ENDBLK
  8
0
  0
BLOCK
  8
0
  2
*D12
 70
    65
 10
0.0
 20
0.0
 30
0.0
  3
*D
  0
LINE
  8
0
  6
BYBLOCK
 62
     0
 10
381.625516
 20
113.306183
 30
0.0
 11
348.76616
 21
113.306183
 31
0.0
  0
LINE
  8
0
  6
BYBLOCK
 62
     0
 10
381.625516
 20
153.306183
 30
0.0
 11
348.76616
 21
153.306183
 31
0.0
  0
LINE
  8
0
  6
BYBLOCK
 62
     0
 10
349.76616
 20
118.306183
 30
0.0
 11
349.76616
 21
133.306183
 31
0.0
  0
LINE
  8
0
  6
BYBLOCK
 62
     0
 10
349.76616
 20
148.306183
 30
0.0
 11
349.76616
 21
133.306183
 31
0.0
  0
SOLID
  8
0
  6
BYBLOCK
 62
     0
 10
350.599493
 20
118.306183
 30
0.0
 11
348.932827
 21
118.306183
 31
0.0
 12
349.76616
 22
113.306183
 32
0.0
 13
349.76616
 23
113.306183
 33
0.0
  0
SOLID
  8
0
  6
BYBLOCK
 62
     0
 10
350.599493
 20
148.306183
 30
0.0
 11
348.932827
 21
148.306183
 31
0.0
 12
349.76616
 22
153.306183
 32
0.0
 13
349.76616
 23
153.306183
 33
0.0
  0
TEXT
  8
0
  6
BYBLOCK
 62
     0
 10
348.01616
 20
130.681183
 30
0.0
 40
3.5
  1
40
 50
90.0
  0
POINT
  8
DEFPOINTS
  6
BYBLOCK
 62
     0
 10
382.625516
 20
113.306183
 30
0.0
  0
POINT
  8
DEFPOINTS
  6
BYBLOCK
 62
     0
 10
382.625516
 20
153.306183
 30
0.0
  0
POINT
  8
DEFPOINTS
  6
BYBLOCK
 62
     0
 10
349.76616
 20
153.306183
 30
0.0
  0
ENDBLK
  8
0
  0
BLOCK
  8
0
  2
*D13
 70
    65
 10
0.0
 20
0.0
 30
0.0
  3
*D
  0
LINE
  8
0
  6
BYBLOCK
 62
     0
 10
361.625516
 20
56.306183
 30
0.0
 11
348.76616
 21
56.306183
 31
0.0
  0
LINE
  8
0
  6
BYBLOCK
 62
     0
 10
381.625516
 20
113.306183
 30
0.0
 11
348.76616
 21
113.306183
 31
0.0
  0
LINE
  8
0
  6
BYBLOCK
 62
     0
 10
349.76616
 20
61.306183
 30
0.0
 11
349.76616
 21
84.806183
 31
0.0
  0
LINE
  8
0
  6
BYBLOCK
 62
     0
 10
349.76616
 20
108.306183
 30
0.0
 11
349.76616
 21
84.806183
 31
0.0
  0
SOLID
  8
0
  6
BYBLOCK
 62
     0
 10
350.599493
 20
61.306183
 30
0.0
 11
348.932827
 21
61.306183
 31
0.0
 12
349.76616
 22
56.306183
 32
0.0
 13
349.76616
 23
56.306183
 33
0.0
  0
SOLID
  8
0
  6
BYBLOCK
 62
     0
 10
350.599493
 20
108.306183
 30
0.0
 11
348.932827
 21
108.306183
 31
0.0
 12
349.76616
 22
113.306183
 32
0.0
 13
349.76616
 23
113.306183
 33
0.0
  0
TEXT
  8
0
  6
BYBLOCK
 62
     0
 10
348.01616
 20
81.889516
 30
0.0
 40
3.5
  1
57
 50
90.0
  0
POINT
  8
DEFPOINTS
  6
BYBLOCK
 62
     0
 10
362.625516
 20
56.306183
 30
0.0
  0
POINT
  8
DEFPOINTS
  6
BYBLOCK
 62
     0
 10
382.625516
 20
113.306183
 30
0.0
  0
POINT
  8
DEFPOINTS
  6
BYBLOCK
 62
     0
 10
349.76616
 20
113.306183
 30
0.0
  0
ENDBLK
  8
0
  0
BLOCK
  8
0
  2
*D14
 70
    65
 10
0.0
 20
0.0
 30
0.0
  3
*D
  0
LINE
  8
0
  6
BYBLOCK
 62
     0
 10
361.625516
 20
29.306183
 30
0.0
 11
348.76616
 21
29.306183
 31
0.0
  0
LINE
  8
0
  6
BYBLOCK
 62
     0
 10
361.625516
 20
56.306183
 30
0.0
 11
348.76616
 21
56.306183
 31
0.0
  0
LINE
  8
0
  6
BYBLOCK
 62
     0
 10
349.76616
 20
34.306183
 30
0.0
 11
349.76616
 21
42.806183
 31
0.0
  0
LINE
  8
0
  6
BYBLOCK
 62
     0
 10
349.76616
 20
51.306183
 30
0.0
 11
349.76616
 21
42.806183
 31
0.0
  0
SOLID
  8
0
  6
BYBLOCK
 62
     0
 10
350.599493
 20
34.306183
 30
0.0
 11
348.932827
 21
34.306183
 31
0.0
 12
349.76616
 22
29.306183
 32
0.0
 13
349.76616
 23
29.306183
 33
0.0
  0
SOLID
  8
0
  6
BYBLOCK
 62
     0
 10
350.599493
 20
51.306183
 30
0.0
 11
348.932827
 21
51.306183
 31
0.0
 12
349.76616
 22
56.306183
 32
0.0
 13
349.76616
 23
56.306183
 33
0.0
  0
TEXT
  8
0
  6
BYBLOCK
 62
     0
 10
348.01616
 20
39.889516
 30
0.0
 40
3.5
  1
27
 50
90.0
  0
POINT
  8
DEFPOINTS
  6
BYBLOCK
 62
     0
 10
362.625516
 20
29.306183
 30
0.0
  0
POINT
  8
DEFPOINTS
  6
BYBLOCK
 62
     0
 10
362.625516
 20
56.306183
 30
0.0
  0
POINT
  8
DEFPOINTS
  6
BYBLOCK
 62
     0
 10
349.76616
 20
56.306183
 30
0.0
  0
ENDBLK
  8
0
  0
BLOCK
  8
0
  2
*D15
 70
    65
 10
0.0
 20
0.0
 30
0.0
  3
*D
  0
LINE
  8
0
  6
BYBLOCK
 62
     0
 10
317.625516
 20
233.306183
 30
0.0
 11
317.625516
 21
221.501673
 31
0.0
  0
LINE
  8
0
  6
BYBLOCK
 62
     0
 10
337.625516
 20
233.306183
 30
0.0
 11
337.625516
 21
221.501673
 31
0.0
  0
LINE
  8
0
  6
BYBLOCK
 62
     0
 10
322.625516
 20
222.501673
 30
0.0
 11
332.625516
 21
222.501673
 31
0.0
  0
SOLID
  8
0
  6
BYBLOCK
 62
     0
 10
322.625516
 20
221.668339
 30
0.0
 11
322.625516
 21
223.335006
 31
0.0
 12
317.625516
 22
222.501673
 32
0.0
 13
317.625516
 23
222.501673
 33
0.0
  0
SOLID
  8
0
  6
BYBLOCK
 62
     0
 10
332.625516
 20
221.668339
 30
0.0
 11
332.625516
 21
223.335006
 31
0.0
 12
337.625516
 22
222.501673
 32
0.0
 13
337.625516
 23
222.501673
 33
0.0
  0
TEXT
  8
0
  6
BYBLOCK
 62
     0
 10
325.000516
 20
224.251673
 30
0.0
 40
3.5
  1
20
  0
POINT
  8
DEFPOINTS
  6
BYBLOCK
 62
     0
 10
317.625516
 20
234.306183
 30
0.0
  0
POINT
  8
DEFPOINTS
  6
BYBLOCK
 62
     0
 10
337.625516
 20
234.306183
 30
0.0
  0
POINT
  8
DEFPOINTS
  6
BYBLOCK
 62
     0
 10
337.625516
 20
222.501673
 30
0.0
  0
ENDBLK
  8
0
  0
BLOCK
  8
0
  2
*D16
 70
    65
 10
0.0
 20
0.0
 30
0.0
  3
*D
  0
LINE
  8
0
  6
BYBLOCK
 62
     0
 10
263.625516
 20
234.306183
 30
0.0
 11
263.625516
 21
234.306183
 31
0.0
  0
LINE
  8
0
  6
BYBLOCK
 62
     0
 10
279.625516
 20
247.306183
 30
0.0
 11
261.625516
 21
247.306183
 31
0.0
  0
LINE
  8
0
  6
BYBLOCK
 62
     0
 10
262.625516
 20
239.306183
 30
0.0
 11
262.625516
 21
242.306183
 31
0.0
  0
SOLID
  8
0
  6
BYBLOCK
 62
     0
 10
263.45885
 20
239.306183
 30
0.0
 11
261.792183
 21
239.306183
 31
0.0
 12
262.625516
 22
234.306183
 32
0.0
 13
262.625516
 23
234.306183
 33
0.0
  0
SOLID
  8
0
  6
BYBLOCK
 62
     0
 10
263.45885
 20
242.306183
 30
0.0
 11
261.792183
 21
242.306183
 31
0.0
 12
262.625516
 22
247.306183
 32
0.0
 13
262.625516
 23
247.306183
 33
0.0
  0
TEXT
  8
0
  6
BYBLOCK
 62
     0
 10
260.875516
 20
238.472849
 30
0.0
 40
3.5
  1
13
 50
90.0
  0
POINT
  8
DEFPOINTS
  6
BYBLOCK
 62
     0
 10
262.625516
 20
234.306183
 30
0.0
  0
POINT
  8
DEFPOINTS
  6
BYBLOCK
 62
     0
 10
280.625516
 20
247.306183
 30
0.0
  0
POINT
  8
DEFPOINTS
  6
BYBLOCK
 62
     0
 10
262.625516
 20
247.306183
 30
0.0
  0
ENDBLK
  8
0
  0
BLOCK
  8
0
  2
*D17
 70
    65
 10
0.0
 20
0.0
 30
0.0
  3
*D
  0
LINE
  8
0
  6
BYBLOCK
 62
     0
 10
397.625516
 20
252.306183
 30
0.0
 11
397.625516
 21
260.001458
 31
0.0
  0
LINE
  8
0
  6
BYBLOCK
 62
     0
 10
407.625516
 20
252.306183
 30
0.0
 11
407.625516
 21
260.001458
 31
0.0
  0
LINE
  8
0
  6
BYBLOCK
 62
     0
 10
412.625516
 20
259.001458
 30
0.0
 11
417.625516
 21
259.001458
 31
0.0
  0
LINE
  8
0
  6
BYBLOCK
 62
     0
 10
392.625516
 20
259.001458
 30
0.0
 11
387.625516
 21
259.001458
 31
0.0
  0
SOLID
  8
0
  6
BYBLOCK
 62
     0
 10
412.625516
 20
258.168124
 30
0.0
 11
412.625516
 21
259.834791
 31
0.0
 12
407.625516
 22
259.001458
 32
0.0
 13
407.625516
 23
259.001458
 33
0.0
  0
SOLID
  8
0
  6
BYBLOCK
 62
     0
 10
392.625516
 20
258.168124
 30
0.0
 11
392.625516
 21
259.834791
 31
0.0
 12
397.625516
 22
259.001458
 32
0.0
 13
397.625516
 23
259.001458
 33
0.0
  0
TEXT
  8
0
  6
BYBLOCK
 62
     0
 10
400.58385
 20
260.751458
 30
0.0
 40
3.5
  1
10
  0
POINT
  8
DEFPOINTS
  6
BYBLOCK
 62
     0
 10
397.625516
 20
251.306183
 30
0.0
  0
POINT
  8
DEFPOINTS
  6
BYBLOCK
 62
     0
 10
407.625516
 20
251.306183
 30
0.0
  0
POINT
  8
DEFPOINTS
  6
BYBLOCK
 62
     0
 10
407.625516
 20
259.001458
 30
0.0
  0
ENDBLK
  8
0
  0
BLOCK
  8
0
  2
*D18
 70
    65
 10
0.0
 20
0.0
 30
0.0
  3
*D
  0
LINE
  8
0
  6
BYBLOCK
 62
     0
 10
362.625516
 20
232.306183
 30
0.0
 11
362.625516
 21
224.044268
 31
0.0
  0
LINE
  8
0
  6
BYBLOCK
 62
     0
 10
397.625516
 20
232.306183
 30
0.0
 11
397.625516
 21
224.044268
 31
0.0
  0
LINE
  8
0
  6
BYBLOCK
 62
     0
 10
367.625516
 20
225.044268
 30
0.0
 11
392.625516
 21
225.044268
 31
0.0
  0
SOLID
  8
0
  6
BYBLOCK
 62
     0
 10
367.625516
 20
224.210935
 30
0.0
 11
367.625516
 21
225.877602
 31
0.0
 12
362.625516
 22
225.044268
 32
0.0
 13
362.625516
 23
225.044268
 33
0.0
  0
SOLID
  8
0
  6
BYBLOCK
 62
     0
 10
392.625516
 20
224.210935
 30
0.0
 11
392.625516
 21
225.877602
 31
0.0
 12
397.625516
 22
225.044268
 32
0.0
 13
397.625516
 23
225.044268
 33
0.0
  0
TEXT
  8
0
  6
BYBLOCK
 62
     0
 10
377.20885
 20
226.794268
 30
0.0
 40
3.5
  1
35
  0
POINT
  8
DEFPOINTS
  6
BYBLOCK
 62
     0
 10
362.625516
 20
233.306183
 30
0.0
  0
POINT
  8
DEFPOINTS
  6
BYBLOCK
 62
     0
 10
397.625516
 20
233.306183
 30
0.0
  0
POINT
  8
DEFPOINTS
  6
BYBLOCK
 62
     0
 10
397.625516
 20
225.044268
 30
0.0
  0
ENDBLK
  8
0
  0
BLOCK
  8
0
  2
*D19
 70
    65
 10
0.0
 20
0.0
 30
0.0
  3
*D
  0
LINE
  8
0
  6
BYBLOCK
 62
     0
 10
396.625516
 20
233.306183
 30
0.0
 11
387.47962
 21
233.306183
 31
0.0
  0
LINE
  8
0
  6
BYBLOCK
 62
     0
 10
396.625516
 20
251.306183
 30
0.0
 11
387.47962
 21
251.306183
 31
0.0
  0
LINE
  8
0
  6
BYBLOCK
 62
     0
 10
388.47962
 20
238.306183
 30
0.0
 11
388.47962
 21
246.306183
 31
0.0
  0
SOLID
  8
0
  6
BYBLOCK
 62
     0
 10
389.312954
 20
238.306183
 30
0.0
 11
387.646287
 21
238.306183
 31
0.0
 12
388.47962
 22
233.306183
 32
0.0
 13
388.47962
 23
233.306183
 33
0.0
  0
SOLID
  8
0
  6
BYBLOCK
 62
     0
 10
389.312954
 20
246.306183
 30
0.0
 11
387.646287
 21
246.306183
 31
0.0
 12
388.47962
 22
251.306183
 32
0.0
 13
388.47962
 23
251.306183
 33
0.0
  0
TEXT
  8
0
  6
BYBLOCK
 62
     0
 10
386.72962
 20
239.972849
 30
0.0
 40
3.5
  1
18
 50
90.0
  0
POINT
  8
DEFPOINTS
  6
BYBLOCK
 62
     0
 10
397.625516
 20
233.306183
 30
0.0
  0
POINT
  8
DEFPOINTS
  6
BYBLOCK
 62
     0
 10
397.625516
 20
251.306183
 30
0.0
  0
POINT
  8
DEFPOINTS
  6
BYBLOCK
 62
     0
 10
388.47962
 20
251.306183
 30
0.0
  0
ENDBLK
  8
0
  0
BLOCK
  8
0
  2
*D20
 70
    65
 10
0.0
 20
0.0
 30
0.0
  3
*D
  0
LINE
  8
0
  6
BYBLOCK
 62
     0
 10
280.625516
 20
255.306183
 30
0.0
 11
280.625516
 21
371.867479
 31
0.0
  0
LINE
  8
0
  6
BYBLOCK
 62
     0
 10
299.625516
 20
360.306183
 30
0.0
 11
299.625516
 21
371.867479
 31
0.0
  0
LINE
  8
0
  6
BYBLOCK
 62
     0
 10
285.625516
 20
370.867479
 30
0.0
 11
294.625516
 21
370.867479
 31
0.0
  0
SOLID
  8
0
  6
BYBLOCK
 62
     0
 10
285.625516
 20
370.034145
 30
0.0
 11
285.625516
 21
371.700812
 31
0.0
 12
280.625516
 22
370.867479
 32
0.0
 13
280.625516
 23
370.867479
 33
0.0
  0
SOLID
  8
0
  6
BYBLOCK
 62
     0
 10
294.625516
 20
370.034145
 30
0.0
 11
294.625516
 21
371.700812
 31
0.0
 12
299.625516
 22
370.867479
 32
0.0
 13
299.625516
 23
370.867479
 33
0.0
  0
TEXT
  8
0
  6
BYBLOCK
 62
     0
 10
287.792183
 20
372.617479
 30
0.0
 40
3.5
  1
19
  0
POINT
  8
DEFPOINTS
  6
BYBLOCK
 62
     0
 10
280.625516
 20
254.306183
 30
0.0
  0
POINT
  8
DEFPOINTS
  6
BYBLOCK
 62
     0
 10
299.625516
 20
359.306183
 30
0.0
  0
POINT
  8
DEFPOINTS
  6
BYBLOCK
 62
     0
 10
299.625516
 20
370.867479
 30
0.0
  0
ENDBLK
  8
0
  0
BLOCK
  8
0
  2
*D21
 70
    65
 10
0.0
 20
0.0
 30
0.0
  3
*D
  0
ARC
  8
0
  6
BYBLOCK
 62
     0
 10
280.625516
 20
254.306183
 30
0.0
 40
31.669936
 50
99.055189
 51
108.110378
  0
ARC
  8
0
  6
BYBLOCK
 62
     0
 10
280.625516
 20
254.306183
 30
0.0
 40
31.669936
 50
55.849678
 51
64.904868
  0
SOLID
  8
0
  6
BYBLOCK
 62
     0
 10
275.706902
 20
284.75069
 30
0.0
 11
275.575336
 21
286.412156
 31
0.0
 12
280.625516
 22
285.976119
 32
0.0
 13
280.625516
 23
285.976119
 33
0.0
  0
SOLID
  8
0
  6
BYBLOCK
 62
     0
 10
293.764689
 20
282.206414
 30
0.0
 11
294.350208
 21
283.766846
 31
0.0
 12
289.376155
 22
284.743186
 32
0.0
 13
289.376155
 23
284.743186
 33
0.0
  0
TEXT
  8
0
  6
BYBLOCK
 62
     0
 10
282.446014
 20
285.923751
 30
0.0
 40
3.5
  1
16%%d
  0
POINT
  8
DEFPOINTS
  6
BYBLOCK
 62
     0
 10
303.625516
 20
334.306183
 30
0.0
  0
POINT
  8
DEFPOINTS
  6
BYBLOCK
 62
     0
 10
280.625516
 20
254.306183
 30
0.0
  0
POINT
  8
DEFPOINTS
  6
BYBLOCK
 62
     0
 10
280.625516
 20
254.306183
 30
0.0
  0
POINT
  8
DEFPOINTS
  6
BYBLOCK
 62
     0
 10
280.625516
 20
310.250028
 30
0.0
  0
ENDBLK
  8
0
  0
BLOCK
  8
0
  2
*D22
 70
    65
 10
0.0
 20
0.0
 30
0.0
  3
*D
  0
LINE
  8
0
  6
BYBLOCK
 62
     0
 10
62.625516
 20
355.306183
 30
0.0
 11
62.625516
 21
370.296007
 31
0.0
  0
LINE
  8
0
  6
BYBLOCK
 62
     0
 10
77.625516
 20
365.306183
 30
0.0
 11
77.625516
 21
370.296007
 31
0.0
  0
LINE
  8
0
  6
BYBLOCK
 62
     0
 10
67.625516
 20
369.296007
 30
0.0
 11
72.625516
 21
369.296007
 31
0.0
  0
SOLID
  8
0
  6
BYBLOCK
 62
     0
 10
67.625516
 20
368.462674
 30
0.0
 11
67.625516
 21
370.129341
 31
0.0
 12
62.625516
 22
369.296007
 32
0.0
 13
62.625516
 23
369.296007
 33
0.0
  0
SOLID
  8
0
  6
BYBLOCK
 62
     0
 10
72.625516
 20
368.462674
 30
0.0
 11
72.625516
 21
370.129341
 31
0.0
 12
77.625516
 22
369.296007
 32
0.0
 13
77.625516
 23
369.296007
 33
0.0
  0
TEXT
  8
0
  6
BYBLOCK
 62
     0
 10
67.792183
 20
371.046007
 30
0.0
 40
3.5
  1
15
  0
POINT
  8
DEFPOINTS
  6
BYBLOCK
 62
     0
 10
62.625516
 20
354.306183
 30
0.0
  0
POINT
  8
DEFPOINTS
  6
BYBLOCK
 62
     0
 10
77.625516
 20
364.306183
 30
0.0
  0
POINT
  8
DEFPOINTS
  6
BYBLOCK
 62
     0
 10
77.625516
 20
369.296007
 30
0.0
  0
ENDBLK
  8
0
  0
BLOCK
  8
0
  2
*D23
 70
    65
 10
0.0
 20
0.0
 30
0.0
  3
*D
  0
LINE
  8
0
  6
BYBLOCK
 62
     0
 10
77.625516
 20
365.306183
 30
0.0
 11
77.625516
 21
370.296007
 31
0.0
  0
LINE
  8
0
  6
BYBLOCK
 62
     0
 10
97.625516
 20
365.306183
 30
0.0
 11
97.625516
 21
370.296007
 31
0.0
  0
LINE
  8
0
  6
BYBLOCK
 62
     0
 10
82.625516
 20
369.296007
 30
0.0
 11
92.625516
 21
369.296007
 31
0.0
  0
SOLID
  8
0
  6
BYBLOCK
 62
     0
 10
82.625516
 20
368.462674
 30
0.0
 11
82.625516
 21
370.129341
 31
0.0
 12
77.625516
 22
369.296007
 32
0.0
 13
77.625516
 23
369.296007
 33
0.0
  0
SOLID
  8
0
  6
BYBLOCK
 62
     0
 10
92.625516
 20
368.462674
 30
0.0
 11
92.625516
 21
370.129341
 31
0.0
 12
97.625516
 22
369.296007
 32
0.0
 13
97.625516
 23
369.296007
 33
0.0
  0
TEXT
  8
0
  6
BYBLOCK
 62
     0
 10
85.000516
 20
371.046007
 30
0.0
 40
3.5
  1
20
  0
POINT
  8
DEFPOINTS
  6
BYBLOCK
 62
     0
 10
77.625516
 20
364.306183
 30
0.0
  0
POINT
  8
DEFPOINTS
  6
BYBLOCK
 62
     0
 10
97.625516
 20
364.306183
 30
0.0
  0
POINT
  8
DEFPOINTS
  6
BYBLOCK
 62
     0
 10
97.625516
 20
369.296007
 30
0.0
  0
ENDBLK
  8
0
  0
BLOCK
  8
0
  2
*D24
 70
    65
 10
0.0
 20
0.0
 30
0.0
  3
*D
  0
LINE
  8
0
  6
BYBLOCK
 62
     0
 10
97.625516
 20
365.306183
 30
0.0
 11
97.625516
 21
370.296007
 31
0.0
  0
LINE
  8
0
  6
BYBLOCK
 62
     0
 10
157.625516
 20
365.306183
 30
0.0
 11
157.625516
 21
370.296007
 31
0.0
  0
LINE
  8
0
  6
BYBLOCK
 62
     0
 10
102.625516
 20
369.296007
 30
0.0
 11
152.625516
 21
369.296007
 31
0.0
  0
SOLID
  8
0
  6
BYBLOCK
 62
     0
 10
102.625516
 20
368.462674
 30
0.0
 11
102.625516
 21
370.129341
 31
0.0
 12
97.625516
 22
369.296007
 32
0.0
 13
97.625516
 23
369.296007
 33
0.0
  0
SOLID
  8
0
  6
BYBLOCK
 62
     0
 10
152.625516
 20
368.462674
 30
0.0
 11
152.625516
 21
370.129341
 31
0.0
 12
157.625516
 22
369.296007
 32
0.0
 13
157.625516
 23
369.296007
 33
0.0
  0
TEXT
  8
0
  6
BYBLOCK
 62
     0
 10
125.000516
 20
371.046007
 30
0.0
 40
3.5
  1
60
  0
POINT
  8
DEFPOINTS
  6
BYBLOCK
 62
     0
 10
97.625516
 20
364.306183
 30
0.0
  0
POINT
  8
DEFPOINTS
  6
BYBLOCK
 62
     0
 10
157.625516
 20
364.306183
 30
0.0
  0
POINT
  8
DEFPOINTS
  6
BYBLOCK
 62
     0
 10
157.625516
 20
369.296007
 30
0.0
  0
ENDBLK
  8
0
  0
BLOCK
  8
0
  2
*D25
 70
    65
 10
0.0
 20
0.0
 30
0.0
  3
*D
  0
LINE
  8
0
  6
BYBLOCK
 62
     0
 10
157.625516
 20
365.306183
 30
0.0
 11
157.625516
 21
370.296007
 31
0.0
  0
LINE
  8
0
  6
BYBLOCK
 62
     0
 10
217.625516
 20
365.306183
 30
0.0
 11
217.625516
 21
370.296007
 31
0.0
  0
LINE
  8
0
  6
BYBLOCK
 62
     0
 10
162.625516
 20
369.296007
 30
0.0
 11
212.625516
 21
369.296007
 31
0.0
  0
SOLID
  8
0
  6
BYBLOCK
 62
     0
 10
162.625516
 20
368.462674
 30
0.0
 11
162.625516
 21
370.129341
 31
0.0
 12
157.625516
 22
369.296007
 32
0.0
 13
157.625516
 23
369.296007
 33
0.0
  0
SOLID
  8
0
  6
BYBLOCK
 62
     0
 10
212.625516
 20
368.462674
 30
0.0
 11
212.625516
 21
370.129341
 31
0.0
 12
217.625516
 22
369.296007
 32
0.0
 13
217.625516
 23
369.296007
 33
0.0
  0
TEXT
  8
0
  6
BYBLOCK
 62
     0
 10
185.000516
 20
371.046007
 30
0.0
 40
3.5
  1
60
  0
POINT
  8
DEFPOINTS
  6
BYBLOCK
 62
     0
 10
157.625516
 20
364.306183
 30
0.0
  0
POINT
  8
DEFPOINTS
  6
BYBLOCK
 62
     0
 10
217.625516
 20
364.306183
 30
0.0
  0
POINT
  8
DEFPOINTS
  6
BYBLOCK
 62
     0
 10
217.625516
 20
369.296007
 30
0.0
  0
ENDBLK
  8
0
  0
BLOCK
  8
0
  2
*D26
 70
    65
 10
0.0
 20
0.0
 30
0.0
  3
*D
  0
LINE
  8
0
  6
BYBLOCK
 62
     0
 10
217.625516
 20
365.306183
 30
0.0
 11
217.625516
 21
370.296007
 31
0.0
  0
LINE
  8
0
  6
BYBLOCK
 62
     0
 10
237.625516
 20
365.306183
 30
0.0
 11
237.625516
 21
370.296007
 31
0.0
  0
LINE
  8
0
  6
BYBLOCK
 62
     0
 10
222.625516
 20
369.296007
 30
0.0
 11
232.625516
 21
369.296007
 31
0.0
  0
SOLID
  8
0
  6
BYBLOCK
 62
     0
 10
222.625516
 20
368.462674
 30
0.0
 11
222.625516
 21
370.129341
 31
0.0
 12
217.625516
 22
369.296007
 32
0.0
 13
217.625516
 23
369.296007
 33
0.0
  0
SOLID
  8
0
  6
BYBLOCK
 62
     0
 10
232.625516
 20
368.462674
 30
0.0
 11
232.625516
 21
370.129341
 31
0.0
 12
237.625516
 22
369.296007
 32
0.0
 13
237.625516
 23
369.296007
 33
0.0
  0
TEXT
  8
0
  6
BYBLOCK
 62
     0
 10
225.000516
 20
371.046007
 30
0.0
 40
3.5
  1
20
  0
POINT
  8
DEFPOINTS
  6
BYBLOCK
 62
     0
 10
217.625516
 20
364.306183
 30
0.0
  0
POINT
  8
DEFPOINTS
  6
BYBLOCK
 62
     0
 10
237.625516
 20
364.306183
 30
0.0
  0
POINT
  8
DEFPOINTS
  6
BYBLOCK
 62
     0
 10
237.625516
 20
369.296007
 30
0.0
  0
ENDBLK
  8
0
  0
BLOCK
  8
0
  2
*D27
 70
    65
 10
0.0
 20
0.0
 30
0.0
  3
*D
  0
LINE
  8
0
  6
BYBLOCK
 62
     0
 10
237.625516
 20
365.306183
 30
0.0
 11
237.625516
 21
370.296007
 31
0.0
  0
LINE
  8
0
  6
BYBLOCK
 62
     0
 10
252.625516
 20
355.306183
 30
0.0
 11
252.625516
 21
370.296007
 31
0.0
  0
LINE
  8
0
  6
BYBLOCK
 62
     0
 10
242.625516
 20
369.296007
 30
0.0
 11
247.625516
 21
369.296007
 31
0.0
  0
SOLID
  8
0
  6
BYBLOCK
 62
     0
 10
242.625516
 20
368.462674
 30
0.0
 11
242.625516
 21
370.129341
 31
0.0
 12
237.625516
 22
369.296007
 32
0.0
 13
237.625516
 23
369.296007
 33
0.0
  0
SOLID
  8
0
  6
BYBLOCK
 62
     0
 10
247.625516
 20
368.462674
 30
0.0
 11
247.625516
 21
370.129341
 31
0.0
 12
252.625516
 22
369.296007
 32
0.0
 13
252.625516
 23
369.296007
 33
0.0
  0
TEXT
  8
0
  6
BYBLOCK
 62
     0
 10
242.792183
 20
371.046007
 30
0.0
 40
3.5
  1
15
  0
POINT
  8
DEFPOINTS
  6
BYBLOCK
 62
     0
 10
237.625516
 20
364.306183
 30
0.0
  0
POINT
  8
DEFPOINTS
  6
BYBLOCK
 62
     0
 10
252.625516
 20
354.306183
 30
0.0
  0
POINT
  8
DEFPOINTS
  6
BYBLOCK
 62
     0
 10
252.625516
 20
369.296007
 30
0.0
  0
ENDBLK
  8
0
  0
BLOCK
  8
0
  2
*D28
 70
    65
 10
0.0
 20
0.0
 30
0.0
  3
*D
  0
LINE
  8
0
  6
BYBLOCK
 62
     0
 10
238.625516
 20
294.306183
 30
0.0
 11
247.662096
 21
294.306183
 31
0.0
  0
LINE
  8
0
  6
BYBLOCK
 62
     0
 10
238.625516
 20
344.306183
 30
0.0
 11
247.662096
 21
344.306183
 31
0.0
  0
LINE
  8
0
  6
BYBLOCK
 62
     0
 10
246.662096
 20
299.306183
 30
0.0
 11
246.662096
 21
339.306183
 31
0.0
  0
SOLID
  8
0
  6
BYBLOCK
 62
     0
 10
247.49543
 20
299.306183
 30
0.0
 11
245.828763
 21
299.306183
 31
0.0
 12
246.662096
 22
294.306183
 32
0.0
 13
246.662096
 23
294.306183
 33
0.0
  0
SOLID
  8
0
  6
BYBLOCK
 62
     0
 10
247.49543
 20
339.306183
 30
0.0
 11
245.828763
 21
339.306183
 31
0.0
 12
246.662096
 22
344.306183
 32
0.0
 13
246.662096
 23
344.306183
 33
0.0
  0
TEXT
  8
0
  6
BYBLOCK
 62
     0
 10
244.912096
 20
316.681183
 30
0.0
 40
3.5
  1
50
 50
90.0
  0
POINT
  8
DEFPOINTS
  6
BYBLOCK
 62
     0
 10
237.625516
 20
294.306183
 30
0.0
  0
POINT
  8
DEFPOINTS
  6
BYBLOCK
 62
     0
 10
237.625516
 20
344.306183
 30
0.0
  0
POINT
  8
DEFPOINTS
  6
BYBLOCK
 62
     0
 10
246.662096
 20
344.306183
 30
0.0
  0
ENDBLK
  8
0
  0
BLOCK
  8
0
  2
*D29
 70
    65
 10
0.0
 20
0.0
 30
0.0
  3
*D
  0
ARC
  8
0
  6
BYBLOCK
 62
     0
 10
299.625516
 20
359.306183
 30
0.0
 40
14.740271
 50
298.619798
 51
318.149319
  0
ARC
  8
0
  6
BYBLOCK
 62
     0
 10
299.625516
 20
359.306183
 30
0.0
 40
14.740271
 50
230.940958
 51
250.470479
  0
SOLID
  8
0
  6
BYBLOCK
 62
     0
 10
306.416723
 20
347.155531
 30
0.0
 11
306.955348
 21
345.578299
 31
0.0
 12
301.954339
 22
344.75104
 32
0.0
 13
301.954339
 23
344.75104
 33
0.0
  0
SOLID
  8
0
  6
BYBLOCK
 62
     0
 10
294.83929
 20
346.235189
 30
0.0
 11
294.556618
 21
344.592669
 31
0.0
 12
299.625516
 22
344.565912
 32
0.0
 13
299.625516
 23
344.565912
 33
0.0
  0
TEXT
  8
0
  6
BYBLOCK
 62
     0
 10
292.467884
 20
347.100576
 30
0.0
 40
3.5
  1
9%%d
  0
POINT
  8
DEFPOINTS
  6
BYBLOCK
 62
     0
 10
299.625516
 20
359.306183
 30
0.0
  0
POINT
  8
DEFPOINTS
  6
BYBLOCK
 62
     0
 10
299.625516
 20
335.510911
 30
0.0
  0
POINT
  8
DEFPOINTS
  6
BYBLOCK
 62
     0
 10
303.625516
 20
334.306183
 30
0.0
  0
POINT
  8
DEFPOINTS
  6
BYBLOCK
 62
     0
 10
299.625516
 20
359.306183
 30
0.0
  0
ENDBLK
  8
0
  0
BLOCK
  8
0
  2
*D30
 70
    65
 10
0.0
 20
0.0
 30
0.0
  3
*D
  0
LINE
  8
0
  6
BYBLOCK
 62
     0
 10
318.625516
 20
254.306183
 30
0.0
 11
338.625516
 21
254.306183
 31
0.0
  0
LINE
  8
0
  6
BYBLOCK
 62
     0
 10
333.625516
 20
304.306183
 30
0.0
 11
338.625516
 21
304.306183
 31
0.0
  0
LINE
  8
0
  6
BYBLOCK
 62
     0
 10
337.625516
 20
259.306183
 30
0.0
 11
337.625516
 21
299.306183
 31
0.0
  0
SOLID
  8
0
  6
BYBLOCK
 62
     0
 10
338.45885
 20
259.306183
 30
0.0
 11
336.792183
 21
259.306183
 31
0.0
 12
337.625516
 22
254.306183
 32
0.0
 13
337.625516
 23
254.306183
 33
0.0
  0
SOLID
  8
0
  6
BYBLOCK
 62
     0
 10
338.45885
 20
299.306183
 30
0.0
 11
336.792183
 21
299.306183
 31
0.0
 12
337.625516
 22
304.306183
 32
0.0
 13
337.625516
 23
304.306183
 33
0.0
  0
TEXT
  8
0
  6
BYBLOCK
 62
     0
 10
335.875516
 20
276.681183
 30
0.0
 40
3.5
  1
50
 50
90.0
  0
POINT
  8
DEFPOINTS
  6
BYBLOCK
 62
     0
 10
317.625516
 20
254.306183
 30
0.0
  0
POINT
  8
DEFPOINTS
  6
BYBLOCK
 62
     0
 10
332.625516
 20
304.306183
 30
0.0
  0
POINT
  8
DEFPOINTS
  6
BYBLOCK
 62
     0
 10
337.625516
 20
304.306183
 30
0.0
  0
ENDBLK
  8
0
  0
BLOCK
  8
0
  2
*D31
 70
    65
 10
0.0
 20
0.0
 30
0.0
  3
*D
  0
LINE
  8
0
  6
BYBLOCK
 62
     0
 10
332.625516
 20
305.306183
 30
0.0
 11
332.625516
 21
314.304271
 31
0.0
  0
LINE
  8
0
  6
BYBLOCK
 62
     0
 10
372.625516
 20
305.306183
 30
0.0
 11
372.625516
 21
314.304271
 31
0.0
  0
LINE
  8
0
  6
BYBLOCK
 62
     0
 10
337.625516
 20
313.304271
 30
0.0
 11
367.625516
 21
313.304271
 31
0.0
  0
SOLID
  8
0
  6
BYBLOCK
 62
     0
 10
337.625516
 20
312.470938
 30
0.0
 11
337.625516
 21
314.137605
 31
0.0
 12
332.625516
 22
313.304271
 32
0.0
 13
332.625516
 23
313.304271
 33
0.0
  0
SOLID
  8
0
  6
BYBLOCK
 62
     0
 10
367.625516
 20
312.470938
 30
0.0
 11
367.625516
 21
314.137605
 31
0.0
 12
372.625516
 22
313.304271
 32
0.0
 13
372.625516
 23
313.304271
 33
0.0
  0
TEXT
  8
0
  6
BYBLOCK
 62
     0
 10
350.000516
 20
315.054271
 30
0.0
 40
3.5
  1
40
  0
POINT
  8
DEFPOINTS
  6
BYBLOCK
 62
     0
 10
332.625516
 20
304.306183
 30
0.0
  0
POINT
  8
DEFPOINTS
  6
BYBLOCK
 62
     0
 10
372.625516
 20
304.306183
 30
0.0
  0
POINT
  8
DEFPOINTS
  6
BYBLOCK
 62
     0
 10
372.625516
 20
313.304271
 30
0.0
  0
ENDBLK
  8
0
  0
BLOCK
  8
0
  2
*D32
 70
    65
 10
0.0
 20
0.0
 30
0.0
  3
*D
  0
ARC
  8
0
  6
BYBLOCK
 62
     0
 10
317.625516
 20
254.306183
 30
0.0
 40
9.175905
 50
104.921293
 51
136.541829
  0
ARC
  8
0
  6
BYBLOCK
 62
     0
 10
317.625516
 20
254.306183
 30
0.0
 40
9.175905
 50
296.758926
 51
328.379463
  0
SOLID
  8
0
  6
BYBLOCK
 62
     0
 10
315.249866
 20
262.339447
 30
0.0
 11
315.275724
 21
264.005913
 31
0.0
 12
320.262193
 22
263.095106
 32
0.0
 13
320.262193
 23
263.095106
 33
0.0
  0
SOLID
  8
0
  6
BYBLOCK
 62
     0
 10
324.63735
 20
249.722381
 30
0.0
 11
326.240965
 21
249.268293
 31
0.0
 12
326.801421
 22
254.306183
 32
0.0
 13
326.801421
 23
254.306183
 33
0.0
  0
TEXT
  8
0
  6
BYBLOCK
 62
     0
 10
325.462984
 20
259.078114
 30
0.0
 40
3.5
  1
73%%d
  0
POINT
  8
DEFPOINTS
  6
BYBLOCK
 62
     0
 10
317.625516
 20
254.306183
 30
0.0
  0
POINT
  8
DEFPOINTS
  6
BYBLOCK
 62
     0
 10
331.805556
 20
254.306183
 30
0.0
  0
POINT
  8
DEFPOINTS
  6
BYBLOCK
 62
     0
 10
332.625516
 20
304.306183
 30
0.0
  0
POINT
  8
DEFPOINTS
  6
BYBLOCK
 62
     0
 10
317.625516
 20
254.306183
 30
0.0
  0
ENDBLK
  8
0
  0
BLOCK
  8
0
  2
*D33
 70
    65
 10
0.0
 20
0.0
 30
0.0
  3
*D
  0
LINE
  8
0
  6
BYBLOCK
 62
     0
 10
37.625516
 20
314.504309
 30
0.0
 11
37.625516
 21
314.830025
 31
0.0
  0
LINE
  8
0
  6
BYBLOCK
 62
     0
 10
77.625516
 20
314.504309
 30
0.0
 11
77.625516
 21
314.830025
 31
0.0
  0
LINE
  8
0
  6
BYBLOCK
 62
     0
 10
42.625516
 20
313.830025
 30
0.0
 11
72.625516
 21
313.830025
 31
0.0
  0
SOLID
  8
0
  6
BYBLOCK
 62
     0
 10
42.625516
 20
312.996692
 30
0.0
 11
42.625516
 21
314.663358
 31
0.0
 12
37.625516
 22
313.830025
 32
0.0
 13
37.625516
 23
313.830025
 33
0.0
  0
SOLID
  8
0
  6
BYBLOCK
 62
     0
 10
72.625516
 20
312.996692
 30
0.0
 11
72.625516
 21
314.663358
 31
0.0
 12
77.625516
 22
313.830025
 32
0.0
 13
77.625516
 23
313.830025
 33
0.0
  0
TEXT
  8
0
  6
BYBLOCK
 62
     0
 10
55.000516
 20
315.580025
 30
0.0
 40
3.5
  1
40
  0
POINT
  8
DEFPOINTS
  6
BYBLOCK
 62
     0
 10
37.625516
 20
313.504309
 30
0.0
  0
POINT
  8
DEFPOINTS
  6
BYBLOCK
 62
     0
 10
77.625516
 20
313.504309
 30
0.0
  0
POINT
  8
DEFPOINTS
  6
BYBLOCK
 62
     0
 10
77.625516
 20
313.830025
 30
0.0
  0
ENDBLK
  8
0
  0
BLOCK
  8
0
  2
*D34
 70
    65
 10
0.0
 20
0.0
 30
0.0
  3
*D
  0
LINE
  8
0
  6
BYBLOCK
 62
     0
 10
541.019409
 20
13.306183
 30
0.0
 11
541.019409
 21
24.394602
 31
0.0
  0
LINE
  8
0
  6
BYBLOCK
 62
     0
 10
611.019409
 20
13.306183
 30
0.0
 11
611.019409
 21
24.394602
 31
0.0
  0
LINE
  8
0
  6
BYBLOCK
 62
     0
 10
546.019409
 20
23.394602
 30
0.0
 11
606.019409
 21
23.394602
 31
0.0
  0
SOLID
  8
0
  6
BYBLOCK
 62
     0
 10
546.019409
 20
22.561268
 30
0.0
 11
546.019409
 21
24.227935
 31
0.0
 12
541.019409
 22
23.394602
 32
0.0
 13
541.019409
 23
23.394602
 33
0.0
  0
SOLID
  8
0
  6
BYBLOCK
 62
     0
 10
606.019409
 20
22.561268
 30
0.0
 11
606.019409
 21
24.227935
 31
0.0
 12
611.019409
 22
23.394602
 32
0.0
 13
611.019409
 23
23.394602
 33
0.0
  0
TEXT
  8
0
  6
BYBLOCK
 62
     0
 10
573.394409
 20
25.144602
 30
0.0
 40
3.5
  1
70
  0
POINT
  8
DEFPOINTS
  6
BYBLOCK
 62
     0
 10
541.019409
 20
12.306183
 30
0.0
  0
POINT
  8
DEFPOINTS
  6
BYBLOCK
 62
     0
 10
611.019409
 20
12.306183
 30
0.0
  0
POINT
  8
DEFPOINTS
  6
BYBLOCK
 62
     0
 10
611.019409
 20
23.394602
 30
0.0
  0
ENDBLK
  8
0
  0
BLOCK
  8
0
  2
*D35
 70
    65
 10
0.0
 20
0.0
 30
0.0
  3
*D
  0
LINE
  8
0
  6
BYBLOCK
 62
     0
 10
516.019409
 20
69.199877
 30
0.0
 11
516.019409
 21
83.496753
 31
0.0
  0
LINE
  8
0
  6
BYBLOCK
 62
     0
 10
611.019409
 20
69.199877
 30
0.0
 11
611.019409
 21
83.496753
 31
0.0
  0
LINE
  8
0
  6
BYBLOCK
 62
     0
 10
521.019409
 20
82.496753
 30
0.0
 11
606.019409
 21
82.496753
 31
0.0
  0
SOLID
  8
0
  6
BYBLOCK
 62
     0
 10
521.019409
 20
81.66342
 30
0.0
 11
521.019409
 21
83.330087
 31
0.0
 12
516.019409
 22
82.496753
 32
0.0
 13
516.019409
 23
82.496753
 33
0.0
  0
SOLID
  8
0
  6
BYBLOCK
 62
     0
 10
606.019409
 20
81.66342
 30
0.0
 11
606.019409
 21
83.330087
 31
0.0
 12
611.019409
 22
82.496753
 32
0.0
 13
611.019409
 23
82.496753
 33
0.0
  0
TEXT
  8
0
  6
BYBLOCK
 62
     0
 10
560.602743
 20
84.246753
 30
0.0
 40
3.5
  1
95
  0
POINT
  8
DEFPOINTS
  6
BYBLOCK
 62
     0
 10
516.019409
 20
68.199877
 30
0.0
  0
POINT
  8
DEFPOINTS
  6
BYBLOCK
 62
     0
 10
611.019409
 20
68.199877
 30
0.0
  0
POINT
  8
DEFPOINTS
  6
BYBLOCK
 62
     0
 10
611.019409
 20
82.496753
 30
0.0
  0
ENDBLK
  8
0
  0
BLOCK
  8
0
  2
*D36
 70
    65
 10
0.0
 20
0.0
 30
0.0
  3
*D
  0
LINE
  8
0
  6
BYBLOCK
 62
     0
 10
428.625515
 20
12.306183
 30
0.0
 11
457.517014
 21
12.306183
 31
0.0
  0
LINE
  8
0
  6
BYBLOCK
 62
     0
 10
438.625516
 20
29.306183
 30
0.0
 11
457.517014
 21
29.306183
 31
0.0
  0
LINE
  8
0
  6
BYBLOCK
 62
     0
 10
456.517014
 20
17.306183
 30
0.0
 11
456.517014
 21
24.306183
 31
0.0
  0
SOLID
  8
0
  6
BYBLOCK
 62
     0
 10
457.350347
 20
17.306183
 30
0.0
 11
455.683681
 21
17.306183
 31
0.0
 12
456.517014
 22
12.306183
 32
0.0
 13
456.517014
 23
12.306183
 33
0.0
  0
SOLID
  8
0
  6
BYBLOCK
 62
     0
 10
457.350347
 20
24.306183
 30
0.0
 11
455.683681
 21
24.306183
 31
0.0
 12
456.517014
 22
29.306183
 32
0.0
 13
456.517014
 23
29.306183
 33
0.0
  0
TEXT
  8
0
  6
BYBLOCK
 62
     0
 10
454.767014
 20
18.472849
 30
0.0
 40
3.5
  1
17
 50
90.0
  0
POINT
  8
DEFPOINTS
  6
BYBLOCK
 62
     0
 10
427.625515
 20
12.306183
 30
0.0
  0
POINT
  8
DEFPOINTS
  6
BYBLOCK
 62
     0
 10
437.625516
 20
29.306183
 30
0.0
  0
POINT
  8
DEFPOINTS
  6
BYBLOCK
 62
     0
 10
456.517014
 20
29.306183
 30
0.0
  0
ENDBLK
  8
0
  0
BLOCK
  8
0
  2
*D37
 70
    65
 10
0.0
 20
0.0
 30
0.0
  3
*D
  0
LINE
  8
0
  6
BYBLOCK
 62
     0
 10
437.625516
 20
94.306183
 30
0.0
 11
437.625516
 21
94.306183
 31
0.0
  0
LINE
  8
0
  6
BYBLOCK
 62
     0
 10
457.625516
 20
94.306183
 30
0.0
 11
457.625516
 21
94.306183
 31
0.0
  0
LINE
  8
0
  6
BYBLOCK
 62
     0
 10
442.625516
 20
95.306183
 30
0.0
 11
452.625516
 21
95.306183
 31
0.0
  0
SOLID
  8
0
  6
BYBLOCK
 62
     0
 10
442.625516
 20
94.472849
 30
0.0
 11
442.625516
 21
96.139516
 31
0.0
 12
437.625516
 22
95.306183
 32
0.0
 13
437.625516
 23
95.306183
 33
0.0
  0
SOLID
  8
0
  6
BYBLOCK
 62
     0
 10
452.625516
 20
94.472849
 30
0.0
 11
452.625516
 21
96.139516
 31
0.0
 12
457.625516
 22
95.306183
 32
0.0
 13
457.625516
 23
95.306183
 33
0.0
  0
TEXT
  8
0
  6
BYBLOCK
 62
     0
 10
445.000516
 20
97.056183
 30
0.0
 40
3.5
  1
20
  0
POINT
  8
DEFPOINTS
  6
BYBLOCK
 62
     0
 10
437.625516
 20
95.306183
 30
0.0
  0
POINT
  8
DEFPOINTS
  6
BYBLOCK
 62
     0
 10
457.625516
 20
95.306183
 30
0.0
  0
POINT
  8
DEFPOINTS
  6
BYBLOCK
 62
     0
 10
457.625516
 20
95.306183
 30
0.0
  0
ENDBLK
  8
0
  0
BLOCK
  8
0
  2
*D38
 70
    65
 10
0.0
 20
0.0
 30
0.0
  3
*D
  0
LINE
  8
0
  6
BYBLOCK
 62
     0
 10
37.625516
 20
94.472849
 30
0.0
 11
37.625516
 21
93.472849
 31
0.0
  0
LINE
  8
0
  6
BYBLOCK
 62
     0
 10
57.625516
 20
93.472849
 30
0.0
 11
57.625516
 21
93.472849
 31
0.0
  0
LINE
  8
0
  6
BYBLOCK
 62
     0
 10
42.625516
 20
94.472849
 30
0.0
 11
52.625516
 21
94.472849
 31
0.0
  0
SOLID
  8
0
  6
BYBLOCK
 62
     0
 10
42.625516
 20
93.639516
 30
0.0
 11
42.625516
 21
95.306183
 31
0.0
 12
37.625516
 22
94.472849
 32
0.0
 13
37.625516
 23
94.472849
 33
0.0
  0
SOLID
  8
0
  6
BYBLOCK
 62
     0
 10
52.625516
 20
93.639516
 30
0.0
 11
52.625516
 21
95.306183
 31
0.0
 12
57.625516
 22
94.472849
 32
0.0
 13
57.625516
 23
94.472849
 33
0.0
  0
TEXT
  8
0
  6
BYBLOCK
 62
     0
 10
45.000516
 20
96.222849
 30
0.0
 40
3.5
  1
20
  0
POINT
  8
DEFPOINTS
  6
BYBLOCK
 62
     0
 10
37.625516
 20
95.472849
 30
0.0
  0
POINT
  8
DEFPOINTS
  6
BYBLOCK
 62
     0
 10
57.625516
 20
94.472849
 30
0.0
  0
POINT
  8
DEFPOINTS
  6
BYBLOCK
 62
     0
 10
57.625516
 20
94.472849
 30
0.0
  0
ENDBLK
  8
0
  0
BLOCK
  8
0
  2
*D39
 70
    65
 10
0.0
 20
0.0
 30
0.0
  3
*D
  0
LINE
  8
0
  6
BYBLOCK
 62
     0
 10
167.625516
 20
94.306183
 30
0.0
 11
167.625516
 21
94.306183
 31
0.0
  0
LINE
  8
0
  6
BYBLOCK
 62
     0
 10
187.625516
 20
94.306183
 30
0.0
 11
187.625516
 21
94.306183
 31
0.0
  0
LINE
  8
0
  6
BYBLOCK
 62
     0
 10
172.625516
 20
95.306183
 30
0.0
 11
182.625516
 21
95.306183
 31
0.0
  0
SOLID
  8
0
  6
BYBLOCK
 62
     0
 10
172.625516
 20
94.472849
 30
0.0
 11
172.625516
 21
96.139516
 31
0.0
 12
167.625516
 22
95.306183
 32
0.0
 13
167.625516
 23
95.306183
 33
0.0
  0
SOLID
  8
0
  6
BYBLOCK
 62
     0
 10
182.625516
 20
94.472849
 30
0.0
 11
182.625516
 21
96.139516
 31
0.0
 12
187.625516
 22
95.306183
 32
0.0
 13
187.625516
 23
95.306183
 33
0.0
  0
TEXT
  8
0
  6
BYBLOCK
 62
     0
 10
175.000516
 20
97.056183
 30
0.0
 40
3.5
  1
20
  0
POINT
  8
DEFPOINTS
  6
BYBLOCK
 62
     0
 10
167.625516
 20
95.306183
 30
0.0
  0
POINT
  8
DEFPOINTS
  6
BYBLOCK
 62
     0
 10
187.625516
 20
95.306183
 30
0.0
  0
POINT
  8
DEFPOINTS
  6
BYBLOCK
 62
     0
 10
187.625516
 20
95.306183
 30
0.0
  0
ENDBLK
  8
0
  0
BLOCK
  8
0
  2
*D40
 70
    65
 10
0.0
 20
0.0
 30
0.0
  3
*D
  0
LINE
  8
0
  6
BYBLOCK
 62
     0
 10
237.625516
 20
94.306183
 30
0.0
 11
237.625516
 21
94.306183
 31
0.0
  0
LINE
  8
0
  6
BYBLOCK
 62
     0
 10
262.625516
 20
96.306183
 30
0.0
 11
262.625516
 21
96.306183
 31
0.0
  0
LINE
  8
0
  6
BYBLOCK
 62
     0
 10
242.625516
 20
95.306183
 30
0.0
 11
257.625516
 21
95.306183
 31
0.0
  0
SOLID
  8
0
  6
BYBLOCK
 62
     0
 10
242.625516
 20
94.472849
 30
0.0
 11
242.625516
 21
96.139516
 31
0.0
 12
237.625516
 22
95.306183
 32
0.0
 13
237.625516
 23
95.306183
 33
0.0
  0
SOLID
  8
0
  6
BYBLOCK
 62
     0
 10
257.625516
 20
94.472849
 30
0.0
 11
257.625516
 21
96.139516
 31
0.0
 12
262.625516
 22
95.306183
 32
0.0
 13
262.625516
 23
95.306183
 33
0.0
  0
TEXT
  8
0
  6
BYBLOCK
 62
     0
 10
247.20885
 20
97.056183
 30
0.0
 40
3.5
  1
25
  0
POINT
  8
DEFPOINTS
  6
BYBLOCK
 62
     0
 10
237.625516
 20
95.306183
 30
0.0
  0
POINT
  8
DEFPOINTS
  6
BYBLOCK
 62
     0
 10
262.625516
 20
95.306183
 30
0.0
  0
POINT
  8
DEFPOINTS
  6
BYBLOCK
 62
     0
 10
262.625516
 20
95.306183
 30
0.0
  0
ENDBLK
  8
0
  0
BLOCK
  8
0
  2
*D41
 70
    65
 10
0.0
 20
0.0
 30
0.0
  3
*D
  0
LINE
  8
0
  6
BYBLOCK
 62
     0
 10
516.019409
 20
58.306183
 30
0.0
 11
516.019409
 21
32.979622
 31
0.0
  0
LINE
  8
0
  6
BYBLOCK
 62
     0
 10
511.019409
 20
58.306183
 30
0.0
 11
511.019409
 21
32.979622
 31
0.0
  0
LINE
  8
0
  6
BYBLOCK
 62
     0
 10
506.019409
 20
33.979622
 30
0.0
 11
501.019409
 21
33.979622
 31
0.0
  0
LINE
  8
0
  6
BYBLOCK
 62
     0
 10
521.019409
 20
33.979622
 30
0.0
 11
526.019409
 21
33.979622
 31
0.0
  0
SOLID
  8
0
  6
BYBLOCK
 62
     0
 10
506.019409
 20
33.146289
 30
0.0
 11
506.019409
 21
34.812956
 31
0.0
 12
511.019409
 22
33.979622
 32
0.0
 13
511.019409
 23
33.979622
 33
0.0
  0
SOLID
  8
0
  6
BYBLOCK
 62
     0
 10
521.019409
 20
33.146289
 30
0.0
 11
521.019409
 21
34.812956
 31
0.0
 12
516.019409
 22
33.979622
 32
0.0
 13
516.019409
 23
33.979622
 33
0.0
  0
TEXT
  8
0
  6
BYBLOCK
 62
     0
 10
502.782817
 20
35.729622
 30
0.0
 40
3.5
  1
5
  0
POINT
  8
DEFPOINTS
  6
BYBLOCK
 62
     0
 10
516.019409
 20
59.306183
 30
0.0
  0
POINT
  8
DEFPOINTS
  6
BYBLOCK
 62
     0
 10
511.019409
 20
59.306183
 30
0.0
  0
POINT
  8
DEFPOINTS
  6
BYBLOCK
 62
     0
 10
511.019409
 20
33.979622
 30
0.0
  0
ENDBLK
  8
0
  0
BLOCK
  8
0
  2
*D42
 70
    65
 10
0.0
 20
0.0
 30
0.0
  3
*D
  0
LINE
  8
0
  6
BYBLOCK
 62
     0
 10
510.019409
 20
379.306183
 30
0.0
 11
500.688661
 21
379.306183
 31
0.0
  0
LINE
  8
0
  6
BYBLOCK
 62
     0
 10
510.019409
 20
59.306183
 30
0.0
 11
500.688661
 21
59.306183
 31
0.0
  0
LINE
  8
0
  6
BYBLOCK
 62
     0
 10
501.688661
 20
374.306183
 30
0.0
 11
501.688661
 21
219.306183
 31
0.0
  0
LINE
  8
0
  6
BYBLOCK
 62
     0
 10
501.688661
 20
64.306183
 30
0.0
 11
501.688661
 21
219.306183
 31
0.0
  0
SOLID
  8
0
  6
BYBLOCK
 62
     0
 10
502.521995
 20
374.306183
 30
0.0
 11
500.855328
 21
374.306183
 31
0.0
 12
501.688661
 22
379.306183
 32
0.0
 13
501.688661
 23
379.306183
 33
0.0
  0
SOLID
  8
0
  6
BYBLOCK
 62
     0
 10
502.521995
 20
64.306183
 30
0.0
 11
500.855328
 21
64.306183
 31
0.0
 12
501.688661
 22
59.306183
 32
0.0
 13
501.688661
 23
59.306183
 33
0.0
  0
TEXT
  8
0
  6
BYBLOCK
 62
     0
 10
500.839384
 20
214.931183
 30
0.0
 40
3.5
  1
320
 50
90.0
  0
POINT
  8
DEFPOINTS
  6
BYBLOCK
 62
     0
 10
511.019409
 20
379.306183
 30
0.0
  0
POINT
  8
DEFPOINTS
  6
BYBLOCK
 62
     0
 10
511.019409
 20
59.306183
 30
0.0
  0
POINT
  8
DEFPOINTS
  6
BYBLOCK
 62
     0
 10
501.688661
 20
59.306183
 30
0.0
  0
ENDBLK
  8
0
  0
BLOCK
  8
0
  2
*D43
 70
    65
 10
0.0
 20
0.0
 30
0.0
  3
*D
  0
LINE
  8
0
  6
BYBLOCK
 62
     0
 10
510.019409
 20
379.306183
 30
0.0
 11
495.688661
 21
379.306183
 31
0.0
  0
LINE
  8
0
  6
BYBLOCK
 62
     0
 10
540.019409
 20
12.306183
 30
0.0
 11
495.688661
 21
12.306183
 31
0.0
  0
LINE
  8
0
  6
BYBLOCK
 62
     0
 10
496.688661
 20
374.306183
 30
0.0
 11
496.688661
 21
195.806183
 31
0.0
  0
LINE
  8
0
  6
BYBLOCK
 62
     0
 10
496.688661
 20
17.306183
 30
0.0
 11
496.688661
 21
195.806183
 31
0.0
  0
SOLID
  8
0
  6
BYBLOCK
 62
     0
 10
497.521995
 20
374.306183
 30
0.0
 11
495.855328
 21
374.306183
 31
0.0
 12
496.688661
 22
379.306183
 32
0.0
 13
496.688661
 23
379.306183
 33
0.0
  0
SOLID
  8
0
  6
BYBLOCK
 62
     0
 10
497.521995
 20
17.306183
 30
0.0
 11
495.855328
 21
17.306183
 31
0.0
 12
496.688661
 22
12.306183
 32
0.0
 13
496.688661
 23
12.306183
 33
0.0
  0
TEXT
  8
0
  6
BYBLOCK
 62
     0
 10
495.839384
 20
191.139516
 30
0.0
 40
3.5
  1
367
 50
90.0
  0
POINT
  8
DEFPOINTS
  6
BYBLOCK
 62
     0
 10
511.019409
 20
379.306183
 30
0.0
  0
POINT
  8
DEFPOINTS
  6
BYBLOCK
 62
     0
 10
541.019409
 20
12.306183
 30
0.0
  0
POINT
  8
DEFPOINTS
  6
BYBLOCK
 62
     0
 10
496.688661
 20
12.306183
 30
0.0
  0
ENDBLK
  8
0
  0
ENDSEC
  0
SECTION
  2
ENTITIES
  0
DIMENSION
  8
BUND-MAAL
  2
*D29
 10
299.625516
 20
359.306183
 30
0.0
 11
294.801217
 21
348.850576
 31
0.0
 70
   130
 13
299.625516
 23
359.306183
 33
0.0
 14
299.625516
 24
335.510911
 34
0.0
 15
303.625516
 25
334.306183
 35
0.0
 16
300.94589
 26
344.625168
 36
0.0
  0
LINE
  8
BUND
 10
280.625516
 20
247.306183
 30
0.0
 11
317.625516
 21
247.306183
 31
0.0
  0
LINE
  8
BUND
 10
262.625516
 20
29.306183
 30
0.0
 11
337.625516
 21
29.306183
 31
0.0
  0
TEXT
  8
BUND-MAAL
 10
271.326739
 20
160.386473
 30
0.0
 40
5.0
  1
75 x 250 x 40
  7
UV
  0
LINE
  8
BUND
 10
67.625516
 20
379.306183
 30
0.0
 11
427.625516
 21
379.306183
 31
0.0
  0
LINE
  8
BUND
 10
67.625516
 20
12.306183
 30
0.0
 11
427.625516
 21
12.306183
 31
0.0
  0
LINE
  8
BUND
 10
299.625516
 20
359.306183
 30
0.0
 11
407.625516
 21
359.306183
 31
0.0
  0
DIMENSION
  8
BUND-MAAL
  2
*D5
 10
299.625516
 20
364.521928
 30
0.0
 11
301.625516
 21
368.021928
 31
0.0
 13
303.625516
 23
334.306183
 33
0.0
 14
299.625516
 24
359.306183
 34
0.0
  0
DIMENSION
  8
BUND-MAAL
  2
*D6
 10
372.625516
 20
370.867479
 30
0.0
 11
336.125516
 21
374.367479
 31
0.0
 13
299.625516
 23
359.306183
 33
0.0
 14
372.625516
 24
359.306183
 34
0.0
  0
TEXT
  8
BUND-TEKST
 10
266.72929
 20
168.321429
 30
0.0
 40
5.0
  1
VIDEO GENERATOR
  7
UV
  0
LINE
  8
BUND
 10
167.625516
 20
47.306183
 30
0.0
 11
167.625516
 21
272.306183
 31
0.0
  0
LINE
  8
BUND
 10
237.625516
 20
47.306183
 30
0.0
 11
237.625516
 21
272.306183
 31
0.0
  0
LINE
  8
BUND
 10
187.625516
 20
47.306183
 30
0.0
 11
187.625516
 21
272.306183
 31
0.0
  0
LINE
  8
BUND
 10
57.625516
 20
47.306183
 30
0.0
 11
57.625516
 21
272.306183
 31
0.0
  0
LINE
  8
BUND
 10
262.625516
 20
29.306183
 30
0.0
 11
262.625516
 21
234.306183
 31
0.0
  0
LINE
  8
BUND
 10
37.625516
 20
42.306183
 30
0.0
 11
37.625516
 21
349.306183
 31
0.0
  0
TEXT
  8
BUND-TEKST
 10
196.314315
 20
192.916927
 30
0.0
 40
5.0
  1
ADAPTOR
  7
UV
  0
LINE
  8
BUND
 10
57.625516
 20
47.306183
 30
0.0
 11
167.625516
 21
47.306183
 31
0.0
  0
TEXT
  8
BUND-MAAL
 10
90.760805
 20
186.811594
 30
0.0
 40
5.0
  1
110 x 225 x 80
  7
UV
  0
ARC
  8
BUND
 10
67.625516
 20
42.306183
 30
0.0
 40
30.0
 50
180.0
 51
270.0
  0
TEXT
  8
BUND-MAAL
 10
63.517812
 20
30.409795
 30
0.0
 40
3.5
  1
(4x)
  7
UV
  0
DIMENSION
  8
BUND-MAAL
  2
*D0
 10
67.625516
 20
42.306183
 30
0.0
 11
56.638612
 21
32.094036
 31
0.0
 70
     4
 15
45.651707
 25
21.88189
 35
0.0
  0
DIMENSION
  8
BUND-MAAL
  2
*D38
 10
57.625516
 20
94.472849
 30
0.0
 11
47.625516
 21
97.972849
 31
0.0
 13
37.625516
 23
95.472849
 33
0.0
 14
57.625516
 24
94.472849
 34
0.0
  0
LINE
  8
BUND
 10
187.625516
 20
47.306183
 30
0.0
 11
237.625516
 21
47.306183
 31
0.0
  0
LINE
  8
BUND-MAAL
  6
BYBLOCK
 10
177.908179
 20
42.306183
 30
0.0
 11
177.908179
 21
29.806183
 31
0.0
  0
LINE
  8
BUND-MAAL
  6
BYBLOCK
 10
177.908179
 20
17.306183
 30
0.0
 11
177.908179
 21
29.806183
 31
0.0
  0
TEXT
  8
BUND-MAAL
  6
BYBLOCK
 10
176.158179
 20
26.889516
 30
0.0
 40
3.5
  1
35
 50
90.0
  0
LINE
  8
BUND-MAAL
  6
BYBLOCK
 10
168.625516
 20
12.306183
 30
0.0
 11
178.908179
 21
12.306183
 31
0.0
  0
SOLID
  8
BUND-MAAL
  6
BYBLOCK
 10
178.741513
 20
17.306183
 30
0.0
 11
177.074846
 21
17.306183
 31
0.0
 12
177.908179
 22
12.306183
 32
0.0
 13
177.908179
 23
12.306183
 33
0.0
  0
POLYLINE
  8
BUND-MAAL
 66
     1
 10
0.0
 20
0.0
 30
0.0
  0
VERTEX
  8
BUND-MAAL
 10
177.908179
 20
47.306183
 30
0.0
  0
VERTEX
  8
BUND-MAAL
 10
186.812477
 20
47.306183
 30
0.0
  0
SEQEND
  8
BUND-MAAL
  0
LINE
  8
BUND-MAAL
  6
BYBLOCK
 10
168.625516
 20
47.306183
 30
0.0
 11
178.908179
 21
47.306183
 31
0.0
  0
SOLID
  8
BUND-MAAL
  6
BYBLOCK
 10
178.741513
 20
42.306183
 30
0.0
 11
177.074846
 21
42.306183
 31
0.0
 12
177.908179
 22
47.306183
 32
0.0
 13
177.908179
 23
47.306183
 33
0.0
  0
SOLID
  8
BUND-MAAL
  6
BYBLOCK
 10
271.761525
 20
24.306183
 30
0.0
 11
270.094859
 21
24.306183
 31
0.0
 12
270.928192
 22
29.306183
 32
0.0
 13
270.928192
 23
29.306183
 33
0.0
  0
LINE
  8
BUND-MAAL
  6
BYBLOCK
 10
263.625516
 20
12.306183
 30
0.0
 11
271.928192
 21
12.306183
 31
0.0
  0
TEXT
  8
BUND-MAAL
  6
BYBLOCK
 10
269.178192
 20
18.472849
 30
0.0
 40
3.5
  1
17
 50
90.0
  0
LINE
  8
BUND-MAAL
  6
BYBLOCK
 10
270.928192
 20
17.306183
 30
0.0
 11
270.928192
 21
24.306183
 31
0.0
  0
SOLID
  8
BUND-MAAL
  6
BYBLOCK
 10
271.761525
 20
17.306183
 30
0.0
 11
270.094859
 21
17.306183
 31
0.0
 12
270.928192
 22
12.306183
 32
0.0
 13
270.928192
 23
12.306183
 33
0.0
  0
LINE
  8
BUND-MAAL
  6
BYBLOCK
 10
263.625516
 20
29.306183
 30
0.0
 11
271.928192
 21
29.306183
 31
0.0
  0
TEXT
  8
BUND-MAAL
 10
191.553713
 20
183.913043
 30
0.0
 40
5.0
  1
50 x 220 x 80
  7
UV
  0
DIMENSION
  8
BUND-MAAL
  2
*D39
 10
187.625516
 20
95.306183
 30
0.0
 11
177.625516
 21
98.806183
 31
0.0
 13
167.625516
 23
95.306183
 33
0.0
 14
187.625516
 24
95.306183
 34
0.0
  0
DIMENSION
  8
BUND-MAAL
  2
*D40
 10
262.625516
 20
95.306183
 30
0.0
 11
250.125516
 21
98.806183
 31
0.0
 13
237.625516
 23
95.306183
 33
0.0
 14
262.625516
 24
95.306183
 34
0.0
  0
LINE
  8
BUND
 10
57.625516
 20
272.306183
 30
0.0
 11
167.625516
 21
272.306183
 31
0.0
  0
POLYLINE
  8
BUND
 66
     1
 10
0.0
 20
0.0
 30
0.0
  0
VERTEX
  8
BUND
 10
140.125516
 20
354.306183
 30
0.0
  0
VERTEX
  8
BUND
 10
97.625516
 20
354.306183
 30
0.0
  0
VERTEX
  8
BUND
 10
97.625516
 20
364.306183
 30
0.0
  0
VERTEX
  8
BUND
 10
77.625516
 20
364.306183
 30
0.0
  0
VERTEX
  8
BUND
 10
77.625516
 20
354.306183
 30
0.0
  0
VERTEX
  8
BUND
 10
62.625516
 20
354.306183
 30
0.0
  0
VERTEX
  8
BUND
 10
62.625516
 20
344.306183
 30
0.0
  0
VERTEX
  8
BUND
 10
77.625516
 20
344.306183
 30
0.0
  0
VERTEX
  8
BUND
 10
77.625516
 20
294.306183
 30
0.0
  0
VERTEX
  8
BUND
 10
140.125516
 20
294.306183
 30
0.0
 42
0.308157
  0
SEQEND
  8
BUND-MAAL
  0
DIMENSION
  8
BUND-MAAL
  2
*D24
 10
157.625516
 20
369.296007
 30
0.0
 11
127.625516
 21
372.796007
 31
0.0
 13
97.625516
 23
364.306183
 33
0.0
 14
157.625516
 24
364.306183
 34
0.0
  0
TEXT
  8
BUND-MAAL
 10
96.133374
 20
323.19191
 30
0.0
 40
5.0
  1
160 x 60 x 90
  7
UV
  0
TEXT
  8
BUND-TEKST
 10
90.760805
 20
194.74655
 30
0.0
 40
5.0
  1
CABLES
  7
UV
  0
TEXT
  8
BUND-TEKST
 10
94.475752
 20
330.20247
 30
0.0
 40
5.0
  1
POWER SUPPLY
  7
UV
  0
DIMENSION
  8
BUND-MAAL
  2
*D33
 10
77.625516
 20
313.830025
 30
0.0
 11
57.625516
 21
317.330025
 31
0.0
 13
37.625516
 23
313.504309
 33
0.0
 14
77.625516
 24
313.504309
 34
0.0
  0
DIMENSION
  8
BUND-MAAL
  2
*D23
 10
97.625516
 20
369.296007
 30
0.0
 11
87.625516
 21
372.796007
 31
0.0
 13
77.625516
 23
364.306183
 33
0.0
 14
97.625516
 24
364.306183
 34
0.0
  0
DIMENSION
  8
BUND-MAAL
  2
*D22
 10
77.625516
 20
369.296007
 30
0.0
 11
70.125516
 21
372.796007
 31
0.0
 13
62.625516
 23
354.306183
 33
0.0
 14
77.625516
 24
364.306183
 34
0.0
  0
ARC
  8
BUND
 10
67.625516
 20
349.306183
 30
0.0
 40
30.0
 50
90.0
 51
180.0
  0
POLYLINE
  8
BUND
 66
     1
 10
0.0
 20
0.0
 30
0.0
  0
VERTEX
  8
BUND
 10
175.125516
 20
294.306183
 30
0.0
  0
VERTEX
  8
BUND
 10
237.625516
 20
294.306183
 30
0.0
  0
VERTEX
  8
BUND
 10
237.625516
 20
344.306183
 30
0.0
  0
VERTEX
  8
BUND
 10
252.625516
 20
344.306183
 30
0.0
  0
VERTEX
  8
BUND
 10
252.625516
 20
354.306183
 30
0.0
  0
VERTEX
  8
BUND
 10
237.625516
 20
354.306183
 30
0.0
  0
VERTEX
  8
BUND
 10
237.625516
 20
364.306183
 30
0.0
  0
VERTEX
  8
BUND
 10
217.625516
 20
364.306183
 30
0.0
  0
VERTEX
  8
BUND
 10
217.625516
 20
354.306183
 30
0.0
  0
VERTEX
  8
BUND
 10
175.125516
 20
354.306183
 30
0.0
 42
0.308157
  0
SEQEND
  8
BUND-MAAL
  0
DIMENSION
  8
BUND-MAAL
  2
*D28
 10
246.662096
 20
344.306183
 30
0.0
 11
243.162096
 21
319.306183
 31
0.0
 13
237.625516
 23
294.306183
 33
0.0
 14
237.625516
 24
344.306183
 34
0.0
 50
90.0
  0
POLYLINE
  8
BUND
  6
CENT
 62
     9
 66
     1
 10
0.0
 20
0.0
 30
0.0
  0
VERTEX
  8
BUND
  6
CENT
 62
     9
 10
157.625516
 20
365.503977
 30
0.0
  0
VERTEX
  8
BUND
  6
CENT
 62
     9
 10
157.625516
 20
283.335866
 30
0.0
  0
SEQEND
  8
BUND-MAAL
  0
POLYLINE
  8
BUND
 66
     1
 10
0.0
 20
0.0
 30
0.0
  0
VERTEX
  8
BUND
 10
303.625516
 20
334.306183
 30
0.0
  0
VERTEX
  8
BUND
 10
280.625516
 20
254.306183
 30
0.0
  0
VERTEX
  8
BUND
 10
280.625516
 20
234.306183
 30
0.0
  0
SEQEND
  8
BUND-MAAL
  0
DIMENSION
  8
BUND-MAAL
  2
*D21
 10
280.625516
 20
310.250028
 30
0.0
 11
285.946014
 21
287.673751
 31
0.0
 70
   130
 13
303.625516
 23
334.306183
 33
0.0
 14
280.625516
 24
254.306183
 34
0.0
 15
280.625516
 25
254.306183
 35
0.0
 16
282.446014
 26
285.923751
 36
0.0
  0
DIMENSION
  8
BUND-MAAL
  2
*D2
 10
262.625516
 20
334.306183
 30
0.0
 11
259.125516
 21
294.306183
 31
0.0
 13
280.625516
 23
254.306183
 33
0.0
 14
303.625516
 24
334.306183
 34
0.0
 50
90.0
  0
DIMENSION
  8
BUND-MAAL
  2
*D20
 10
299.625516
 20
370.867479
 30
0.0
 11
290.125516
 21
374.367479
 31
0.0
 13
280.625516
 23
254.306183
 33
0.0
 14
299.625516
 24
359.306183
 34
0.0
  0
LINE
  8
BUND
 10
187.625516
 20
272.306183
 30
0.0
 11
237.625516
 21
272.306183
 31
0.0
  0
ARC
  8
BUND
 10
157.625516
 20
304.618683
 30
0.0
 40
20.3125
 50
210.510237
 51
329.489763
  0
DIMENSION
  8
BUND-MAAL
  2
*D16
 10
262.625516
 20
247.306183
 30
0.0
 11
259.125516
 21
240.806183
 31
0.0
 13
262.625516
 23
234.306183
 33
0.0
 14
280.625516
 24
247.306183
 34
0.0
 50
90.0
  0
LINE
  8
BUND
 10
262.625516
 20
234.306183
 30
0.0
 11
280.625516
 21
234.306183
 31
0.0
  0
POLYLINE
  8
BUND-MAAL
 66
     1
 10
0.0
 20
0.0
 30
0.0
  0
VERTEX
  8
BUND-MAAL
 10
280.625516
 20
254.306183
 30
0.0
  0
VERTEX
  8
BUND-MAAL
 10
280.625516
 20
310.250028
 30
0.0
  0
SEQEND
  8
BUND-MAAL
  0
DIMENSION
  8
BUND-MAAL
  2
*D25
 10
217.625516
 20
369.296007
 30
0.0
 11
187.625516
 21
372.796007
 31
0.0
 13
157.625516
 23
364.306183
 33
0.0
 14
217.625516
 24
364.306183
 34
0.0
  0
ARC
  8
BUND
 10
157.625516
 20
343.993683
 30
0.0
 40
20.3125
 50
30.510237
 51
149.489763
  0
TEXT
  8
BUND-MAAL
 10
173.752264
 20
329.599232
 30
0.0
 40
3.5
  1
(2x)
  7
UV
  0
DIMENSION
  8
BUND-MAAL
  2
*D27
 10
252.625516
 20
369.296007
 30
0.0
 11
245.125516
 21
372.796007
 31
0.0
 13
237.625516
 23
364.306183
 33
0.0
 14
252.625516
 24
354.306183
 34
0.0
  0
DIMENSION
  8
BUND-MAAL
  2
*D26
 10
237.625516
 20
369.296007
 30
0.0
 11
227.625516
 21
372.796007
 31
0.0
 13
217.625516
 23
364.306183
 33
0.0
 14
237.625516
 24
364.306183
 34
0.0
  0
DIMENSION
  8
BUND-MAAL
  2
*D3
 10
262.625516
 20
359.306183
 30
0.0
 11
259.125516
 21
346.806183
 31
0.0
 13
303.625516
 23
334.306183
 33
0.0
 14
299.625516
 24
359.306183
 34
0.0
 50
90.0
  0
POLYLINE
  8
BUND-MAAL
 66
     1
 10
0.0
 20
0.0
 30
0.0
  0
VERTEX
  8
BUND-MAAL
 10
299.625516
 20
359.306183
 30
0.0
  0
VERTEX
  8
BUND-MAAL
 10
299.625516
 20
335.510911
 30
0.0
  0
SEQEND
  8
BUND-MAAL
  0
POLYLINE
  8
BUND
 66
     1
 10
0.0
 20
0.0
 30
0.0
  0
VERTEX
  8
BUND
 10
303.625516
 20
334.306183
 30
0.0
  0
VERTEX
  8
BUND
 10
299.625516
 20
359.306183
 30
0.0
  0
SEQEND
  8
BUND-MAAL
  0
LINE
  8
BUND
 10
422.625516
 20
153.306183
 30
0.0
 11
422.625516
 21
208.306183
 31
0.0
  0
LINE
  8
BUND
 10
337.625516
 20
29.306183
 30
0.0
 11
337.625516
 21
234.306183
 31
0.0
  0
LINE
  8
BUND
 10
511.019409
 20
59.306183
 30
0.0
 11
511.019409
 21
379.306183
 31
0.0
  0
LINE
  8
BUND
 10
362.625516
 20
29.306183
 30
0.0
 11
362.625516
 21
304.306183
 31
0.0
  0
LINE
  8
BUND
 10
437.625516
 20
29.306183
 30
0.0
 11
437.625516
 21
233.306183
 31
0.0
  0
LINE
  8
BUND
 10
457.625516
 20
42.306183
 30
0.0
 11
457.625516
 21
349.306183
 31
0.0
  0
LINE
  8
BUND
 10
516.019409
 20
59.306183
 30
0.0
 11
516.019409
 21
379.306183
 31
0.0
  0
LINE
  8
BUND
 10
611.019409
 20
12.306183
 30
0.0
 11
611.019409
 21
379.306183
 31
0.0
  0
DIMENSION
  8
BUND-MAAL
  2
*D11
 10
349.76616
 20
208.306183
 30
0.0
 11
346.26616
 21
180.806183
 31
0.0
 70
   128
 13
382.625516
 23
153.306183
 33
0.0
 14
362.625516
 24
208.306183
 34
0.0
 50
90.0
  0
TEXT
  8
BUND-TEKST
 10
387.044434
 20
188.760758
 30
0.0
 40
5.0
  1
BATTERY
  7
UV
  0
DIMENSION
  8
BUND-MAAL
  2
*D42
 10
501.688661
 20
59.306183
 30
0.0
 11
499.089384
 21
219.306183
 31
0.0
 70
   128
 13
511.019409
 23
379.306183
 33
0.0
 14
511.019409
 24
59.306183
 34
0.0
 50
90.0
  0
DIMENSION
  8
BUND-MAAL
  2
*D43
 10
496.688661
 20
12.306183
 30
0.0
 11
494.089384
 21
195.806183
 31
0.0
 70
   128
 13
511.019409
 23
379.306183
 33
0.0
 14
541.019409
 24
12.306183
 34
0.0
 50
90.0
  0
LINE
  8
BUND
 10
422.625516
 20
56.306183
 30
0.0
 11
422.625516
 21
113.306183
 31
0.0
  0
DIMENSION
  8
BUND-MAAL
  2
*D13
 10
349.76616
 20
113.306183
 30
0.0
 11
346.26616
 21
84.806183
 31
0.0
 70
   128
 13
362.625516
 23
56.306183
 33
0.0
 14
382.625516
 24
113.306183
 34
0.0
 50
90.0
  0
LINE
  8
BUND-MAAL
  6
BYBLOCK
 10
382.625516
 20
112.306183
 30
0.0
 11
382.625516
 21
18.404075
 31
0.0
  0
LINE
  8
BUND-MAAL
  6
BYBLOCK
 10
382.625516
 20
112.306183
 30
0.0
 11
382.625516
 21
18.404075
 31
0.0
  0
LINE
  8
BUND
 10
362.625516
 20
56.306183
 30
0.0
 11
422.625516
 21
56.306183
 31
0.0
  0
LINE
  8
BUND
 10
362.625516
 20
29.306183
 30
0.0
 11
437.625516
 21
29.306183
 31
0.0
  0
LINE
  8
BUND-MAAL
  6
BYBLOCK
 10
387.625516
 20
19.404075
 30
0.0
 11
402.625516
 21
19.404075
 31
0.0
  0
TEXT
  8
BUND-MAAL
  6
BYBLOCK
 10
400.000516
 20
21.154075
 30
0.0
 40
3.5
  1
40
  0
DIMENSION
  8
BUND-MAAL
  2
*D14
 10
349.76616
 20
56.306183
 30
0.0
 11
346.26616
 21
42.806183
 31
0.0
 70
   128
 13
362.625516
 23
29.306183
 33
0.0
 14
362.625516
 24
56.306183
 34
0.0
 50
90.0
  0
LINE
  8
BUND-MAAL
  6
BYBLOCK
 10
357.625516
 20
19.404075
 30
0.0
 11
350.125516
 21
19.404075
 31
0.0
  0
LINE
  8
BUND-MAAL
  6
BYBLOCK
 10
337.625516
 20
28.306183
 30
0.0
 11
337.625516
 21
18.404075
 31
0.0
  0
SOLID
  8
BUND-MAAL
  6
BYBLOCK
 10
342.625516
 20
18.570742
 30
0.0
 11
342.625516
 21
20.237408
 31
0.0
 12
337.625516
 22
19.404075
 32
0.0
 13
337.625516
 23
19.404075
 33
0.0
  0
LINE
  8
BUND-MAAL
  6
BYBLOCK
 10
342.625516
 20
19.404075
 30
0.0
 11
350.125516
 21
19.404075
 31
0.0
  0
TEXT
  8
BUND-MAAL
  6
BYBLOCK
 10
347.20885
 20
21.154075
 30
0.0
 40
3.5
  1
25
  0
LINE
  8
BUND-MAAL
  6
BYBLOCK
 10
377.625516
 20
19.404075
 30
0.0
 11
372.625516
 21
19.404075
 31
0.0
  0
LINE
  8
BUND-MAAL
  6
BYBLOCK
 10
362.625516
 20
28.306183
 30
0.0
 11
362.625516
 21
18.404075
 31
0.0
  0
LINE
  8
BUND-MAAL
  6
BYBLOCK
 10
362.625516
 20
28.306183
 30
0.0
 11
362.625516
 21
18.404075
 31
0.0
  0
SOLID
  8
BUND-MAAL
  6
BYBLOCK
 10
367.625516
 20
18.570742
 30
0.0
 11
367.625516
 21
20.237408
 31
0.0
 12
362.625516
 22
19.404075
 32
0.0
 13
362.625516
 23
19.404075
 33
0.0
  0
SOLID
  8
BUND-MAAL
  6
BYBLOCK
 10
357.625516
 20
18.570742
 30
0.0
 11
357.625516
 21
20.237408
 31
0.0
 12
362.625516
 22
19.404075
 32
0.0
 13
362.625516
 23
19.404075
 33
0.0
  0
LINE
  8
BUND-MAAL
  6
BYBLOCK
 10
367.625516
 20
19.404075
 30
0.0
 11
372.625516
 21
19.404075
 31
0.0
  0
TEXT
  8
BUND-MAAL
  6
BYBLOCK
 10
370.000516
 20
21.154075
 30
0.0
 40
3.5
  1
20
  0
SOLID
  8
BUND-MAAL
  6
BYBLOCK
 10
377.625516
 20
18.570742
 30
0.0
 11
377.625516
 21
20.237408
 31
0.0
 12
382.625516
 22
19.404075
 32
0.0
 13
382.625516
 23
19.404075
 33
0.0
  0
SOLID
  8
BUND-MAAL
  6
BYBLOCK
 10
387.625516
 20
18.570742
 30
0.0
 11
387.625516
 21
20.237408
 31
0.0
 12
382.625516
 22
19.404075
 32
0.0
 13
382.625516
 23
19.404075
 33
0.0
  0
ARC
  8
BUND
 10
427.625516
 20
42.306183
 30
0.0
 40
30.0
 50
270.0
 51
0.0
  0
DIMENSION
  8
BUND-MAAL
  2
*D36
 10
456.517014
 20
29.306183
 30
0.0
 11
453.017014
 21
20.806183
 31
0.0
 13
427.625515
 23
12.306183
 33
0.0
 14
437.625516
 24
29.306183
 34
0.0
 50
90.0
  0
LINE
  8
BUND-MAAL
  6
BYBLOCK
 10
422.625516
 20
55.306183
 30
0.0
 11
422.625516
 21
18.404075
 31
0.0
  0
LINE
  8
BUND-MAAL
  6
BYBLOCK
 10
422.625516
 20
55.306183
 30
0.0
 11
422.625516
 21
18.404075
 31
0.0
  0
SOLID
  8
BUND-MAAL
  6
BYBLOCK
 10
427.625516
 20
18.570742
 30
0.0
 11
427.625516
 21
20.237408
 31
0.0
 12
422.625516
 22
19.404075
 32
0.0
 13
422.625516
 23
19.404075
 33
0.0
  0
LINE
  8
BUND-MAAL
  6
BYBLOCK
 10
417.625516
 20
19.404075
 30
0.0
 11
402.625516
 21
19.404075
 31
0.0
  0
SOLID
  8
BUND-MAAL
  6
BYBLOCK
 10
417.625516
 20
18.570742
 30
0.0
 11
417.625516
 21
20.237408
 31
0.0
 12
422.625516
 22
19.404075
 32
0.0
 13
422.625516
 23
19.404075
 33
0.0
  0
LINE
  8
BUND-MAAL
  6
BYBLOCK
 10
437.625516
 20
28.306183
 30
0.0
 11
437.625516
 21
18.404075
 31
0.0
  0
SOLID
  8
BUND-MAAL
  6
BYBLOCK
 10
432.625516
 20
18.570742
 30
0.0
 11
432.625516
 21
20.237408
 31
0.0
 12
437.625516
 22
19.404075
 32
0.0
 13
437.625516
 23
19.404075
 33
0.0
  0
LINE
  8
BUND-MAAL
  6
BYBLOCK
 10
432.625516
 20
19.404075
 30
0.0
 11
430.125516
 21
19.404075
 31
0.0
  0
LINE
  8
BUND-MAAL
  6
BYBLOCK
 10
427.625516
 20
19.404075
 30
0.0
 11
430.125516
 21
19.404075
 31
0.0
  0
TEXT
  8
BUND-MAAL
  6
BYBLOCK
 10
427.792183
 20
21.154075
 30
0.0
 40
3.5
  1
15
  0
TEXT
  8
BUND-TEKST
 10
387.39793
 20
76.509165
 30
0.0
 40
5.0
  1
BATTERY
  7
UV
  0
TEXT
  8
BUND-TEKST
 10
384.255095
 20
137.50617
 30
0.0
 40
5.0
  1
DISPLAY UNIT
  7
UV
  0
LINE
  8
BUND
 10
382.625516
 20
113.306183
 30
0.0
 11
422.625516
 21
113.306183
 31
0.0
  0
LINE
  8
BUND
 10
382.625516
 20
153.306183
 30
0.0
 11
422.625516
 21
153.306183
 31
0.0
  0
TEXT
  8
BUND-MAAL
 10
389.673296
 20
126.246444
 30
0.0
 40
5.0
  1
D = 40
  7
UV
  0
TEXT
  8
BUND-MAAL
 10
387.609168
 20
179.536144
 30
0.0
 40
5.0
  1
D = 60
  7
UV
  0
LINE
  8
BUND
 10
382.625516
 20
113.306183
 30
0.0
 11
382.625516
 21
153.306183
 31
0.0
  0
DIMENSION
  8
BUND-MAAL
  2
*D12
 10
349.76616
 20
153.306183
 30
0.0
 11
346.26616
 21
133.306183
 31
0.0
 70
   128
 13
382.625516
 23
113.306183
 33
0.0
 14
382.625516
 24
153.306183
 34
0.0
 50
90.0
  0
LINE
  8
BUND-MAAL
  6
BYBLOCK
 10
441.125516
 20
95.306183
 30
0.0
 11
454.125516
 21
95.306183
 31
0.0
  0
DIMENSION
  8
BUND-MAAL
  2
*D37
 10
457.625516
 20
95.306183
 30
0.0
 11
447.625516
 21
98.806183
 31
0.0
 13
437.625516
 23
95.306183
 33
0.0
 14
457.625516
 24
95.306183
 34
0.0
  0
DIMENSION
  8
BUND-MAAL
  2
*D35
 10
611.019409
 20
82.496753
 30
0.0
 11
563.519409
 21
85.996753
 31
0.0
 13
516.019409
 23
68.199877
 33
0.0
 14
611.019409
 24
68.199877
 34
0.0
  0
LINE
  8
BUND
 10
541.019409
 20
12.306183
 30
0.0
 11
611.019409
 21
12.306183
 31
0.0
  0
DIMENSION
  8
BUND-MAAL
  2
*D34
 10
611.019409
 20
23.394602
 30
0.0
 11
576.019409
 21
26.894602
 31
0.0
 13
541.019409
 23
12.306183
 33
0.0
 14
611.019409
 24
12.306183
 34
0.0
  0
POLYLINE
  8
BUND
 66
     1
 10
0.0
 20
0.0
 30
0.0
  0
VERTEX
  8
BUND
 10
516.019409
 20
59.306183
 30
0.0
  0
VERTEX
  8
BUND
 10
541.019409
 20
12.306183
 30
0.0
  0
SEQEND
  8
BUND-MAAL
  0
DIMENSION
  8
BUND-MAAL
  2
*D41
 10
511.019409
 20
33.979622
 30
0.0
 11
503.949484
 21
37.479622
 31
0.0
 70
   128
 13
516.019409
 23
59.306183
 33
0.0
 14
511.019409
 24
59.306183
 34
0.0
  0
POLYLINE
  8
BUND
 66
     1
 10
0.0
 20
0.0
 30
0.0
  0
VERTEX
  8
BUND
 10
511.019409
 20
59.306183
 30
0.0
  0
VERTEX
  8
BUND
 10
516.019409
 20
59.306183
 30
0.0
  0
SEQEND
  8
BUND-MAAL
  0
POLYLINE
  8
BUND
 66
     1
 10
0.0
 20
0.0
 30
0.0
  0
VERTEX
  8
BUND
 10
372.625516
 20
304.306183
 30
0.0
  0
VERTEX
  8
BUND
 10
372.625516
 20
359.306183
 30
0.0
  0
SEQEND
  8
BUND-MAAL
  0
POLYLINE
  8
BUND
 66
     1
 10
0.0
 20
0.0
 30
0.0
  0
VERTEX
  8
BUND
 10
407.625516
 20
359.306183
 30
0.0
  0
VERTEX
  8
BUND
 10
407.625516
 20
251.306183
 30
0.0
  0
SEQEND
  8
BUND-MAAL
  0
POLYLINE
  8
BUND
 66
     1
 10
0.0
 20
0.0
 30
0.0
  0
VERTEX
  8
BUND
 10
407.625516
 20
251.306183
 30
0.0
  0
VERTEX
  8
BUND
 10
407.625516
 20
250.306186
 30
0.0
 42
1.0
  0
VERTEX
  8
BUND
 10
427.625516
 20
250.30618
 30
0.0
  0
VERTEX
  8
BUND
 10
427.625516
 20
359.306188
 30
0.0
 42
1.0
  0
VERTEX
  8
BUND
 10
407.625516
 20
359.306182
 30
0.0
  0
VERTEX
  8
BUND
 10
407.625516
 20
359.306185
 30
0.0
  0
SEQEND
  8
BUND-MAAL
  0
DIMENSION
  8
BUND-MAAL
  2
*D31
 10
372.625516
 20
313.304271
 30
0.0
 11
352.625516
 21
316.804271
 31
0.0
 13
332.625516
 23
304.306183
 33
0.0
 14
372.625516
 24
304.306183
 34
0.0
  0
LINE
  8
BUND
 10
362.625516
 20
208.306183
 30
0.0
 11
422.625516
 21
208.306183
 31
0.0
  0
LINE
  8
BUND
 10
397.625516
 20
251.306183
 30
0.0
 11
407.625516
 21
251.306183
 31
0.0
  0
LINE
  8
BUND
 10
362.625516
 20
233.306183
 30
0.0
 11
437.625516
 21
233.306183
 31
0.0
  0
DIMENSION
  8
BUND-MAAL
  2
*D17
 10
407.625516
 20
259.001458
 30
0.0
 11
402.625516
 21
262.501458
 31
0.0
 13
397.625516
 23
251.306183
 33
0.0
 14
407.625516
 24
251.306183
 34
0.0
  0
DIMENSION
  8
BUND-MAAL
  2
*D32
 10
317.625516
 20
254.306183
 30
0.0
 11
329.546318
 21
260.828114
 31
0.0
 70
   130
 13
317.625516
 23
254.306183
 33
0.0
 14
331.805556
 24
254.306183
 34
0.0
 15
332.625516
 25
304.306183
 35
0.0
 16
325.462984
 26
259.078114
 36
0.0
  0
POLYLINE
  8
BUND
 66
     1
 10
0.0
 20
0.0
 30
0.0
  0
VERTEX
  8
BUND
 10
372.625516
 20
304.306183
 30
0.0
  0
VERTEX
  8
BUND
 10
332.625516
 20
304.306183
 30
0.0
  0
VERTEX
  8
BUND
 10
317.625516
 20
254.306183
 30
0.0
  0
VERTEX
  8
BUND
 10
317.625516
 20
234.306183
 30
0.0
  0
SEQEND
  8
BUND-MAAL
  0
DIMENSION
  8
BUND-MAAL
  2
*D9
 10
349.76616
 20
304.306183
 30
0.0
 11
346.26616
 21
268.806183
 31
0.0
 70
   128
 13
362.625516
 23
233.306183
 33
0.0
 14
362.625516
 24
304.306183
 34
0.0
 50
90.0
  0
DIMENSION
  8
BUND-MAAL
  2
*D4
 10
337.625516
 20
254.306183
 30
0.0
 11
334.125516
 21
244.306183
 31
0.0
 13
317.625516
 23
234.306183
 33
0.0
 14
317.625516
 24
254.306183
 34
0.0
 50
90.0
  0
DIMENSION
  8
BUND-MAAL
  2
*D10
 10
349.76616
 20
233.306183
 30
0.0
 11
346.26616
 21
220.806183
 31
0.0
 70
   128
 13
362.625516
 23
208.306183
 33
0.0
 14
362.625516
 24
233.306183
 34
0.0
 50
90.0
  0
DIMENSION
  8
BUND-MAAL
  2
*D15
 10
337.625516
 20
222.501673
 30
0.0
 11
327.625516
 21
226.001673
 31
0.0
 13
317.625516
 23
234.306183
 33
0.0
 14
337.625516
 24
234.306183
 34
0.0
  0
LINE
  8
BUND
 10
317.625516
 20
234.306183
 30
0.0
 11
337.625516
 21
234.306183
 31
0.0
  0
DIMENSION
  8
BUND-MAAL
  2
*D18
 10
397.625516
 20
225.044268
 30
0.0
 11
380.125516
 21
228.544268
 31
0.0
 13
362.625516
 23
233.306183
 33
0.0
 14
397.625516
 24
233.306183
 34
0.0
  0
LINE
  8
BUND
 10
397.625516
 20
233.306183
 30
0.0
 11
397.625516
 21
251.306183
 31
0.0
  0
DIMENSION
  8
BUND-MAAL
  2
*D19
 10
388.47962
 20
251.306183
 30
0.0
 11
384.97962
 21
242.306183
 31
0.0
 13
397.625516
 23
233.306183
 33
0.0
 14
397.625516
 24
251.306183
 34
0.0
 50
90.0
  0
DIMENSION
  8
BUND-MAAL
  2
*D8
 10
372.625516
 20
297.440395
 30
0.0
 11
367.625516
 21
300.940395
 31
0.0
 13
362.625516
 23
304.306183
 33
0.0
 14
372.625516
 24
304.306183
 34
0.0
  0
DIMENSION
  8
BUND-MAAL
  2
*D30
 10
337.625516
 20
304.306183
 30
0.0
 11
334.125516
 21
279.306183
 31
0.0
 13
317.625516
 23
254.306183
 33
0.0
 14
332.625516
 24
304.306183
 34
0.0
 50
90.0
  0
POLYLINE
  8
BUND-MAAL
 66
     1
 10
0.0
 20
0.0
 30
0.0
  0
VERTEX
  8
BUND-MAAL
 10
317.625516
 20
254.306183
 30
0.0
  0
VERTEX
  8
BUND-MAAL
 10
331.805556
 20
254.306183
 30
0.0
  0
SEQEND
  8
BUND-MAAL
  0
TEXT
  8
BUND-MAAL
 10
376.313054
 20
275.477098
 30
0.0
 40
5.0
  1
D = 70
  7
UV
  0
POLYLINE
  8
BUND-MAAL
  6
CENT
 66
     1
 10
0.0
 20
0.0
 30
0.0
  0
VERTEX
  8
BUND-MAAL
  6
CENT
 10
435.15732
 20
304.806184
 30
0.0
  0
VERTEX
  8
BUND-MAAL
  6
CENT
 10
403.555896
 20
304.806184
 30
0.0
  0
SEQEND
  8
BUND-MAAL
  0
DIMENSION
  8
BUND-MAAL
  2
*D7
 10
407.625516
 20
370.867479
 30
0.0
 11
390.125516
 21
374.367479
 31
0.0
 13
372.625516
 23
359.306183
 33
0.0
 14
407.625516
 24
359.306183
 34
0.0
  0
TEXT
  8
BUND-TEKST
 10
314.802199
 20
335.835471
 30
0.0
 40
5.0
  1
COLOR SENSOR
  7
UV
  0
TEXT
  8
BUND-MAAL
 10
317.712588
 20
328.273921
 30
0.0
 40
5.0
  1
D = 30
  7
UV
  0
ARC
  8
BUND
 10
427.625516
 20
349.306183
 30
0.0
 40
30.0
 50
0.0
 51
90.0
  0
LINE
  8
BUND-MAAL
  6
BYBLOCK
 10
418.625516
 20
369.306183
 30
0.0
 11
450.218339
 21
369.306183
 31
0.0
  0
SOLID
  8
BUND-MAAL
  6
BYBLOCK
 10
450.051673
 20
364.306183
 30
0.0
 11
448.385006
 21
364.306183
 31
0.0
 12
449.218339
 22
369.306183
 32
0.0
 13
449.218339
 23
369.306183
 33
0.0
  0
TEXT
  8
BUND-MAAL
 10
437.592175
 20
344.078069
 30
0.0
 40
3.5
  1
(2x)
  7
UV
  0
TEXT
  8
BUND-MAAL
 10
407.206191
 20
315.683465
 30
0.0
 40
5.0
  1
D = 90
  7
UV
  0
DIMENSION
  8
BUND-MAAL
  2
*D1
 10
417.625516
 20
359.306183
 30
0.0
 11
441.555345
 21
350.332709
 31
0.0
 70
     4
 15
410.13742
 25
365.934034
 35
0.0
 40
-23.539038
  0
LINE
  8
BUND-MAAL
  6
BYBLOCK
 10
449.218339
 20
364.306183
 30
0.0
 11
449.218339
 21
359.306183
 31
0.0
  0
LINE
  8
BUND-MAAL
  6
BYBLOCK
 10
428.625516
 20
379.306183
 30
0.0
 11
450.218339
 21
379.306183
 31
0.0
  0
SOLID
  8
BUND-MAAL
  6
BYBLOCK
 10
450.051673
 20
384.306183
 30
0.0
 11
448.385006
 21
384.306183
 31
0.0
 12
449.218339
 22
379.306183
 32
0.0
 13
449.218339
 23
379.306183
 33
0.0
  0
TEXT
  8
BUND-MAAL
  6
BYBLOCK
 10
446.5066
 20
380.517277
 30
0.0
 40
3.5
  1
10
 50
90.0
  0
LINE
  8
BUND
 10
516.019409
 20
379.306183
 30
0.0
 11
611.019409
 21
379.306183
 31
0.0
  0
POLYLINE
  8
BUND
 66
     1
 10
0.0
 20
0.0
 30
0.0
  0
VERTEX
  8
BUND
 10
511.019409
 20
379.306183
 30
0.0
  0
VERTEX
  8
BUND
 10
516.019409
 20
379.306183
 30
0.0
  0
SEQEND
  8
BUND-MAAL
  0
POLYLINE
  8
BUND
 66
     1
 10
0.0
 20
0.0
 30
0.0
  0
VERTEX
  8
BUND
 10
511.019409
 20
379.306183
 30
0.0
  0
VERTEX
  8
BUND
 10
511.019409
 20
379.306183
 30
0.0
  0
SEQEND
  8
BUND-MAAL
  0
ENDSEC
  0
EOF
