  0
SECTION
  2
HEADER
  9
$ACADVER
  1
AC1009
  9
$INSBASE
 10
0.0
 20
0.0
 30
0.0
  9
$EXTMIN
 10
31.412313
 20
2.306183
 30
0.0
  9
$EXTMAX
 10
709.470883
 20
385.519386
 30
0.0
  9
$LIMMIN
 10
0.0
 20
0.0
  9
$LIMMAX
 10
420.0
 20
297.0
  9
$ORTHOMODE
 70
     1
  9
$REGENMODE
 70
     1
  9
$FILLMODE
 70
     1
  9
$QTEXTMODE
 70
     0
  9
$MIRRTEXT
 70
     1
  9
$DRAGMODE
 70
     2
  9
$LTSCALE
 40
1.0
  9
$OSMODE
 70
     0
  9
$ATTMODE
 70
     1
  9
$TEXTSIZE
 40
2.5
  9
$TRACEWID
 40
1.75
  9
$TEXTSTYLE
  7
STANDARD
  9
$CLAYER
  8
TOP
  9
$CELTYPE
  6
BYLAYER
  9
$CECOLOR
 62
   256
  9
$DIMSCALE
 40
1.0
  9
$DIMASZ
 40
5.0
  9
$DIMEXO
 40
1.0
  9
$DIMDLI
 40
5.0
  9
$DIMRND
 40
0.0
  9
$DIMDLE
 40
0.0
  9
$DIMEXE
 40
1.0
  9
$DIMTP
 40
0.0
  9
$DIMTM
 40
0.0
  9
$DIMTXT
 40
3.5
  9
$DIMCEN
 40
0.09
  9
$DIMTSZ
 40
0.0
  9
$DIMTOL
 70
     0
  9
$DIMLIM
 70
     0
  9
$DIMTIH
 70
     0
  9
$DIMTOH
 70
     0
  9
$DIMSE1
 70
     0
  9
$DIMSE2
 70
     0
  9
$DIMTAD
 70
     1
  9
$DIMZIN
 70
     0
  9
$DIMBLK
  1

  9
$DIMASO
 70
     1
  9
$DIMSHO
 70
     0
  9
$DIMPOST
  1

  9
$DIMAPOST
  1

  9
$DIMALT
 70
     0
  9
$DIMALTD
 70
     2
  9
$DIMALTF
 40
25.4
  9
$DIMLFAC
 40
1.0
  9
$DIMTOFL
 70
     0
  9
$DIMTVP
 40
0.0
  9
$DIMTIX
 70
     1
  9
$DIMSOXD
 70
     0
  9
$DIMSAH
 70
     0
  9
$DIMBLK1
  1

  9
$DIMBLK2
  1

  9
$DIMSTYLE
  2
*UNNAMED
  9
$DIMCLRD
 70
     0
  9
$DIMCLRE
 70
     0
  9
$DIMCLRT
 70
     0
  9
$DIMTFAC
 40
1.0
  9
$DIMGAP
 40
0.09
  9
$LUNITS
 70
     2
  9
$LUPREC
 70
     0
  9
$SKETCHINC
 40
0.1
  9
$FILLETRAD
 40
8.0
  9
$AUNITS
 70
     0
  9
$AUPREC
 70
     0
  9
$MENU
  1
acad
  9
$ELEVATION
 40
0.0
  9
$PELEVATION
 40
0.0
  9
$THICKNESS
 40
0.0
  9
$LIMCHECK
 70
     1
  9
$BLIPMODE
 70
     0
  9
$CHAMFERA
 40
0.0
  9
$CHAMFERB
 40
0.0
  9
$SKPOLY
 70
     0
  9
$TDCREATE
 40
2450704.535946296
  9
$TDUPDATE
 40
2450704.535946296
  9
$TDINDWG
 40
0.0000000000
  9
$TDUSRTIMER
 40
0.0000000000
  9
$USRTIMER
 70
     1
  9
$ANGBASE
 50
0.0
  9
$ANGDIR
 70
     0
  9
$PDMODE
 70
     0
  9
$PDSIZE
 40
0.0
  9
$PLINEWID
 40
0.0
  9
$COORDS
 70
     2
  9
$SPLFRAME
 70
     0
  9
$SPLINETYPE
 70
     6
  9
$SPLINESEGS
 70
     8
  9
$ATTDIA
 70
     0
  9
$ATTREQ
 70
     1
  9
$HANDLING
 70
     0
  9
$HANDSEED
  5
0
  9
$SURFTAB1
 70
     6
  9
$SURFTAB2
 70
     6
  9
$SURFTYPE
 70
     6
  9
$SURFU
 70
     6
  9
$SURFV
 70
     6
  9
$UCSNAME
  2

  9
$UCSORG
 10
0.0
 20
0.0
 30
0.0
  9
$UCSXDIR
 10
1.0
 20
0.0
 30
0.0
  9
$UCSYDIR
 10
0.0
 20
1.0
 30
0.0
  9
$PUCSNAME
  2

  9
$PUCSORG
 10
0.0
 20
0.0
 30
0.0
  9
$PUCSXDIR
 10
1.0
 20
0.0
 30
0.0
  9
$PUCSYDIR
 10
0.0
 20
1.0
 30
0.0
  9
$USERI1
 70
     0
  9
$USERI2
 70
     0
  9
$USERI3
 70
     0
  9
$USERI4
 70
     0
  9
$USERI5
 70
     0
  9
$USERR1
 40
0.0
  9
$USERR2
 40
0.0
  9
$USERR3
 40
0.0
  9
$USERR4
 40
0.0
  9
$USERR5
 40
0.0
  9
$WORLDVIEW
 70
     1
  9
$SHADEDGE
 70
     3
  9
$SHADEDIF
 70
    70
  9
$TILEMODE
 70
     1
  9
$MAXACTVP
 70
    16
  9
$PINSBASE
 10
0.0
 20
0.0
 30
2.098456E+99
  9
$PLIMCHECK
 70
     0
  9
$PEXTMIN
 10
1.000000E+20
 20
1.000000E+20
 30
1.000000E+20
  9
$PEXTMAX
 10
-1.000000E+20
 20
-1.000000E+20
 30
-1.000000E+20
  9
$PLIMMIN
 10
0.0
 20
0.0
  9
$PLIMMAX
 10
12.0
 20
9.0
  9
$UNITMODE
 70
     0
  9
$VISRETAIN
 70
     0
  9
$PLINEGEN
 70
     0
  9
$PSLTSCALE
 70
     0
  9
$TREEDEPTH
 70
  3020
  9
$DWGCODEPAGE
  3
undefined
  0
ENDSEC
  0
SECTION
  2
TABLES
  0
TABLE
  2
VPORT
 70
     1
  0
VPORT
  2
*ACTIVE
 70
     0
 10
0.0
 20
0.0
 11
1.0
 21
1.0
 12
373.5482
 22
204.879027
 13
0.0
 23
0.0
 14
1.0
 24
1.0
 15
0.0
 25
0.0
 16
0.0
 26
0.0
 36
1.0
 17
0.0
 27
0.0
 37
0.0
 40
405.145689
 41
1.658281
 42
50.0
 43
0.0
 44
0.0
 50
0.0
 51
0.0
 71
     0
 72
   100
 73
     1
 74
     1
 75
     0
 76
     0
 77
     0
 78
     0
  0
ENDTAB
  0
TABLE
  2
LTYPE
 70
     2
  0
LTYPE
  2
CONTINUOUS
 70
    64
  3
Solid line
 72
    65
 73
     0
 40
0.0
  0
LTYPE
  2
HIDDEN
 70
    64
  3
___   ___   ___   ___   ___   ___   ___   ___  
 72
    65
 73
     4
 40
3.0
 49
0.75
 49
-0.75
 49
0.75
 49
-0.75
  0
ENDTAB
  0
TABLE
  2
LAYER
 70
     5
  0
LAYER
  2
0
 70
    64
 62
     7
  6
CONTINUOUS
  0
LAYER
  2
TOP
 70
    64
 62
    11
  6
CONTINUOUS
  0
LAYER
  2
TOP-MAAL
 70
    64
 62
     9
  6
CONTINUOUS
  0
LAYER
  2
RESTER
 70
    64
 62
     7
  6
CONTINUOUS
  0
LAYER
  2
DEFPOINTS
 70
    65
 62
    -7
  6
CONTINUOUS
  0
ENDTAB
  0
TABLE
  2
STYLE
 70
     2
  0
STYLE
  2
STANDARD
 70
    64
 40
0.0
 41
1.0
 50
0.0
 71
     0
 42
2.5
  3
txt
  4

  0
STYLE
  2
UV
 70
    64
 40
0.0
 41
1.0
 50
0.0
 71
     0
 42
2.0
  3
UV
  4

  0
ENDTAB
  0
TABLE
  2
VIEW
 70
     0
  0
ENDTAB
  0
TABLE
  2
UCS
 70
     0
  0
ENDTAB
  0
TABLE
  2
APPID
 70
     1
  0
APPID
  2
ACAD
 70
    64
  0
ENDTAB
  0
TABLE
  2
DIMSTYLE
 70
     0
  0
ENDTAB
  0
ENDSEC
  0
SECTION
  2
BLOCKS
  0
BLOCK
  8
0
  2
*D0
 70
    65
 10
0.0
 20
0.0
 30
0.0
  3
*D
  0
LINE
  8
0
  6
BYBLOCK
 62
     0
 10
62.625516
 20
227.806183
 30
0.0
 11
62.625516
 21
228.064575
 31
0.0
  0
LINE
  8
0
  6
BYBLOCK
 62
     0
 10
317.625516
 20
227.806183
 30
0.0
 11
317.625516
 21
228.064575
 31
0.0
  0
LINE
  8
0
  6
BYBLOCK
 62
     0
 10
67.625516
 20
227.064575
 30
0.0
 11
312.625516
 21
227.064575
 31
0.0
  0
SOLID
  8
0
  6
BYBLOCK
 62
     0
 10
67.625516
 20
226.231241
 30
0.0
 11
67.625516
 21
227.897908
 31
0.0
 12
62.625516
 22
227.064575
 32
0.0
 13
62.625516
 23
227.064575
 33
0.0
  0
SOLID
  8
0
  6
BYBLOCK
 62
     0
 10
312.625516
 20
226.231241
 30
0.0
 11
312.625516
 21
227.897908
 31
0.0
 12
317.625516
 22
227.064575
 32
0.0
 13
317.625516
 23
227.064575
 33
0.0
  0
TEXT
  8
0
  6
BYBLOCK
 62
     0
 10
185.45885
 20
228.814575
 30
0.0
 40
3.5
  1
255
  0
POINT
  8
RESTER
  6
BYBLOCK
 62
     0
 10
62.625516
 20
226.806183
 30
0.0
  0
POINT
  8
RESTER
  6
BYBLOCK
 62
     0
 10
317.625516
 20
226.806183
 30
0.0
  0
POINT
  8
RESTER
  6
BYBLOCK
 62
     0
 10
317.625516
 20
227.064575
 30
0.0
  0
ENDBLK
  8
0
  0
BLOCK
  8
0
  2
*D1
 70
    65
 10
0.0
 20
0.0
 30
0.0
  3
*D
  0
LINE
  8
0
  6
BYBLOCK
 62
     0
 10
337.625516
 20
98.306183
 30
0.0
 11
337.625516
 21
100.366838
 31
0.0
  0
LINE
  8
0
  6
BYBLOCK
 62
     0
 10
442.625516
 20
98.306183
 30
0.0
 11
442.625516
 21
100.366838
 31
0.0
  0
LINE
  8
0
  6
BYBLOCK
 62
     0
 10
342.625516
 20
99.366838
 30
0.0
 11
437.625516
 21
99.366838
 31
0.0
  0
SOLID
  8
0
  6
BYBLOCK
 62
     0
 10
342.625516
 20
98.533504
 30
0.0
 11
342.625516
 21
100.200171
 31
0.0
 12
337.625516
 22
99.366838
 32
0.0
 13
337.625516
 23
99.366838
 33
0.0
  0
SOLID
  8
0
  6
BYBLOCK
 62
     0
 10
437.625516
 20
98.533504
 30
0.0
 11
437.625516
 21
100.200171
 31
0.0
 12
442.625516
 22
99.366838
 32
0.0
 13
442.625516
 23
99.366838
 33
0.0
  0
TEXT
  8
0
  6
BYBLOCK
 62
     0
 10
386.33385
 20
101.116838
 30
0.0
 40
3.5
  1
105
  0
POINT
  8
RESTER
  6
BYBLOCK
 62
     0
 10
337.625516
 20
97.306183
 30
0.0
  0
POINT
  8
RESTER
  6
BYBLOCK
 62
     0
 10
442.625516
 20
97.306183
 30
0.0
  0
POINT
  8
RESTER
  6
BYBLOCK
 62
     0
 10
442.625516
 20
99.366838
 30
0.0
  0
ENDBLK
  8
0
  0
BLOCK
  8
0
  2
*D2
 70
    65
 10
0.0
 20
0.0
 30
0.0
  3
*D
  0
LINE
  8
0
  6
BYBLOCK
 62
     0
 10
391.125516
 20
22.306183
 30
0.0
 11
392.608392
 21
22.306183
 31
0.0
  0
LINE
  8
0
  6
BYBLOCK
 62
     0
 10
391.125516
 20
172.306183
 30
0.0
 11
392.608392
 21
172.306183
 31
0.0
  0
LINE
  8
0
  6
BYBLOCK
 62
     0
 10
391.608392
 20
27.306183
 30
0.0
 11
391.608392
 21
167.306183
 31
0.0
  0
SOLID
  8
0
  6
BYBLOCK
 62
     0
 10
392.441725
 20
27.306183
 30
0.0
 11
390.775058
 21
27.306183
 31
0.0
 12
391.608392
 22
22.306183
 32
0.0
 13
391.608392
 23
22.306183
 33
0.0
  0
SOLID
  8
0
  6
BYBLOCK
 62
     0
 10
392.441725
 20
167.306183
 30
0.0
 11
390.775058
 21
167.306183
 31
0.0
 12
391.608392
 22
172.306183
 32
0.0
 13
391.608392
 23
172.306183
 33
0.0
  0
TEXT
  8
0
  6
BYBLOCK
 62
     0
 10
389.858392
 20
93.514516
 30
0.0
 40
3.5
  1
150
 50
90.0
  0
POINT
  8
RESTER
  6
BYBLOCK
 62
     0
 10
390.125516
 20
22.306183
 30
0.0
  0
POINT
  8
RESTER
  6
BYBLOCK
 62
     0
 10
390.125516
 20
172.306183
 30
0.0
  0
POINT
  8
RESTER
  6
BYBLOCK
 62
     0
 10
391.608392
 20
172.306183
 30
0.0
  0
ENDBLK
  8
0
  0
BLOCK
  8
0
  2
*D3
 70
    65
 10
0.0
 20
0.0
 30
0.0
  3
*D
  0
LINE
  8
0
  6
BYBLOCK
 62
     0
 10
531.425385
 20
347.956982
 30
0.0
 11
531.425385
 21
342.382746
 31
0.0
  0
LINE
  8
0
  6
BYBLOCK
 62
     0
 10
586.425385
 20
347.956982
 30
0.0
 11
586.425385
 21
342.382746
 31
0.0
  0
LINE
  8
0
  6
BYBLOCK
 62
     0
 10
536.425385
 20
343.382746
 30
0.0
 11
558.925385
 21
343.382746
 31
0.0
  0
LINE
  8
0
  6
BYBLOCK
 62
     0
 10
581.425385
 20
343.382746
 30
0.0
 11
558.925385
 21
343.382746
 31
0.0
  0
SOLID
  8
0
  6
BYBLOCK
 62
     0
 10
536.425385
 20
342.549413
 30
0.0
 11
536.425385
 21
344.21608
 31
0.0
 12
531.425385
 22
343.382746
 32
0.0
 13
531.425385
 23
343.382746
 33
0.0
  0
SOLID
  8
0
  6
BYBLOCK
 62
     0
 10
581.425385
 20
342.549413
 30
0.0
 11
581.425385
 21
344.21608
 31
0.0
 12
586.425385
 22
343.382746
 32
0.0
 13
586.425385
 23
343.382746
 33
0.0
  0
TEXT
  8
0
  6
BYBLOCK
 62
     0
 10
555.008718
 20
345.132746
 30
0.0
 40
3.5
  1
55
  0
POINT
  8
RESTER
  6
BYBLOCK
 62
     0
 10
531.425385
 20
348.956982
 30
0.0
  0
POINT
  8
RESTER
  6
BYBLOCK
 62
     0
 10
586.425385
 20
348.956982
 30
0.0
  0
POINT
  8
RESTER
  6
BYBLOCK
 62
     0
 10
586.425385
 20
343.382746
 30
0.0
  0
ENDBLK
  8
0
  0
BLOCK
  8
0
  2
*D4
 70
    65
 10
0.0
 20
0.0
 30
0.0
  3
*D
  0
LINE
  8
0
  6
BYBLOCK
 62
     0
 10
556.425385
 20
378.306183
 30
0.0
 11
556.425385
 21
364.278094
 31
0.0
  0
LINE
  8
0
  6
BYBLOCK
 62
     0
 10
586.425385
 20
378.306183
 30
0.0
 11
586.425385
 21
364.278094
 31
0.0
  0
LINE
  8
0
  6
BYBLOCK
 62
     0
 10
561.425385
 20
365.278094
 30
0.0
 11
571.425385
 21
365.278094
 31
0.0
  0
LINE
  8
0
  6
BYBLOCK
 62
     0
 10
581.425385
 20
365.278094
 30
0.0
 11
571.425385
 21
365.278094
 31
0.0
  0
SOLID
  8
0
  6
BYBLOCK
 62
     0
 10
561.425385
 20
364.444761
 30
0.0
 11
561.425385
 21
366.111427
 31
0.0
 12
556.425385
 22
365.278094
 32
0.0
 13
556.425385
 23
365.278094
 33
0.0
  0
SOLID
  8
0
  6
BYBLOCK
 62
     0
 10
581.425385
 20
364.444761
 30
0.0
 11
581.425385
 21
366.111427
 31
0.0
 12
586.425385
 22
365.278094
 32
0.0
 13
586.425385
 23
365.278094
 33
0.0
  0
TEXT
  8
0
  6
BYBLOCK
 62
     0
 10
568.800385
 20
367.028094
 30
0.0
 40
3.5
  1
30
  0
POINT
  8
RESTER
  6
BYBLOCK
 62
     0
 10
556.425385
 20
379.306183
 30
0.0
  0
POINT
  8
RESTER
  6
BYBLOCK
 62
     0
 10
586.425385
 20
379.306183
 30
0.0
  0
POINT
  8
RESTER
  6
BYBLOCK
 62
     0
 10
586.425385
 20
365.278094
 30
0.0
  0
ENDBLK
  8
0
  0
BLOCK
  8
0
  2
*D5
 70
    65
 10
0.0
 20
0.0
 30
0.0
  3
*D
  0
LINE
  8
0
  6
BYBLOCK
 62
     0
 10
530.425385
 20
12.306183
 30
0.0
 11
504.163505
 21
12.306183
 31
0.0
  0
LINE
  8
0
  6
BYBLOCK
 62
     0
 10
555.425385
 20
379.306183
 30
0.0
 11
504.163505
 21
379.306183
 31
0.0
  0
LINE
  8
0
  6
BYBLOCK
 62
     0
 10
505.163505
 20
17.306183
 30
0.0
 11
505.163505
 21
374.306183
 31
0.0
  0
SOLID
  8
0
  6
BYBLOCK
 62
     0
 10
505.996839
 20
17.306183
 30
0.0
 11
504.330172
 21
17.306183
 31
0.0
 12
505.163505
 22
12.306183
 32
0.0
 13
505.163505
 23
12.306183
 33
0.0
  0
SOLID
  8
0
  6
BYBLOCK
 62
     0
 10
505.996839
 20
374.306183
 30
0.0
 11
504.330172
 21
374.306183
 31
0.0
 12
505.163505
 22
379.306183
 32
0.0
 13
505.163505
 23
379.306183
 33
0.0
  0
TEXT
  8
0
  6
BYBLOCK
 62
     0
 10
503.413505
 20
191.139516
 30
0.0
 40
3.5
  1
367
 50
90.0
  0
POINT
  8
RESTER
  6
BYBLOCK
 62
     0
 10
531.425385
 20
12.306183
 30
0.0
  0
POINT
  8
RESTER
  6
BYBLOCK
 62
     0
 10
556.425385
 20
379.306183
 30
0.0
  0
POINT
  8
RESTER
  6
BYBLOCK
 62
     0
 10
505.163505
 20
379.306183
 30
0.0
  0
ENDBLK
  8
0
  0
BLOCK
  8
0
  2
*D6
 70
    65
 10
0.0
 20
0.0
 30
0.0
  3
*D
  0
LINE
  8
0
  6
BYBLOCK
 62
     0
 10
530.425385
 20
12.306183
 30
0.0
 11
516.750918
 21
12.306183
 31
0.0
  0
LINE
  8
0
  6
BYBLOCK
 62
     0
 10
530.425385
 20
349.306183
 30
0.0
 11
516.750918
 21
349.306183
 31
0.0
  0
LINE
  8
0
  6
BYBLOCK
 62
     0
 10
517.750918
 20
17.306183
 30
0.0
 11
517.750918
 21
344.306183
 31
0.0
  0
SOLID
  8
0
  6
BYBLOCK
 62
     0
 10
518.584251
 20
17.306183
 30
0.0
 11
516.917584
 21
17.306183
 31
0.0
 12
517.750918
 22
12.306183
 32
0.0
 13
517.750918
 23
12.306183
 33
0.0
  0
SOLID
  8
0
  6
BYBLOCK
 62
     0
 10
518.584251
 20
344.306183
 30
0.0
 11
516.917584
 21
344.306183
 31
0.0
 12
517.750918
 22
349.306183
 32
0.0
 13
517.750918
 23
349.306183
 33
0.0
  0
TEXT
  8
0
  6
BYBLOCK
 62
     0
 10
516.000918
 20
176.139516
 30
0.0
 40
3.5
  1
337
 50
90.0
  0
POINT
  8
RESTER
  6
BYBLOCK
 62
     0
 10
531.425385
 20
12.306183
 30
0.0
  0
POINT
  8
RESTER
  6
BYBLOCK
 62
     0
 10
531.425385
 20
349.306183
 30
0.0
  0
POINT
  8
RESTER
  6
BYBLOCK
 62
     0
 10
517.750918
 20
349.306183
 30
0.0
  0
ENDBLK
  8
0
  0
BLOCK
  8
0
  2
*D7
 70
    65
 10
0.0
 20
0.0
 30
0.0
  3
*D
  0
LINE
  8
0
  6
BYBLOCK
 62
     0
 10
37.625516
 20
209.897308
 30
0.0
 11
37.625516
 21
209.897308
 31
0.0
  0
LINE
  8
0
  6
BYBLOCK
 62
     0
 10
72.625516
 20
209.897308
 30
0.0
 11
72.625516
 21
209.897308
 31
0.0
  0
LINE
  8
0
  6
BYBLOCK
 62
     0
 10
42.625516
 20
210.897308
 30
0.0
 11
67.625516
 21
210.897308
 31
0.0
  0
SOLID
  8
0
  6
BYBLOCK
 62
     0
 10
42.625516
 20
210.063975
 30
0.0
 11
42.625516
 21
211.730642
 31
0.0
 12
37.625516
 22
210.897308
 32
0.0
 13
37.625516
 23
210.897308
 33
0.0
  0
SOLID
  8
0
  6
BYBLOCK
 62
     0
 10
67.625516
 20
210.063975
 30
0.0
 11
67.625516
 21
211.730642
 31
0.0
 12
72.625516
 22
210.897308
 32
0.0
 13
72.625516
 23
210.897308
 33
0.0
  0
TEXT
  8
0
  6
BYBLOCK
 62
     0
 10
52.20885
 20
212.647308
 30
0.0
 40
3.5
  1
35
  0
POINT
  8
RESTER
  6
BYBLOCK
 62
     0
 10
37.625516
 20
210.897308
 30
0.0
  0
POINT
  8
RESTER
  6
BYBLOCK
 62
     0
 10
72.625516
 20
210.897308
 30
0.0
  0
POINT
  8
RESTER
  6
BYBLOCK
 62
     0
 10
72.625516
 20
210.897308
 30
0.0
  0
ENDBLK
  8
0
  0
BLOCK
  8
0
  2
*D8
 70
    65
 10
0.0
 20
0.0
 30
0.0
  3
*D
  0
LINE
  8
0
  6
BYBLOCK
 62
     0
 10
72.625516
 20
209.897308
 30
0.0
 11
72.625516
 21
209.897308
 31
0.0
  0
LINE
  8
0
  6
BYBLOCK
 62
     0
 10
307.625516
 20
209.897308
 30
0.0
 11
307.625516
 21
209.897308
 31
0.0
  0
LINE
  8
0
  6
BYBLOCK
 62
     0
 10
77.625516
 20
210.897308
 30
0.0
 11
302.625516
 21
210.897308
 31
0.0
  0
SOLID
  8
0
  6
BYBLOCK
 62
     0
 10
77.625516
 20
210.063975
 30
0.0
 11
77.625516
 21
211.730642
 31
0.0
 12
72.625516
 22
210.897308
 32
0.0
 13
72.625516
 23
210.897308
 33
0.0
  0
SOLID
  8
0
  6
BYBLOCK
 62
     0
 10
302.625516
 20
210.063975
 30
0.0
 11
302.625516
 21
211.730642
 31
0.0
 12
307.625516
 22
210.897308
 32
0.0
 13
307.625516
 23
210.897308
 33
0.0
  0
TEXT
  8
0
  6
BYBLOCK
 62
     0
 10
185.45885
 20
212.647308
 30
0.0
 40
3.5
  1
235
  0
POINT
  8
RESTER
  6
BYBLOCK
 62
     0
 10
72.625516
 20
210.897308
 30
0.0
  0
POINT
  8
RESTER
  6
BYBLOCK
 62
     0
 10
307.625516
 20
210.897308
 30
0.0
  0
POINT
  8
RESTER
  6
BYBLOCK
 62
     0
 10
307.625516
 20
210.897308
 30
0.0
  0
ENDBLK
  8
0
  0
BLOCK
  8
0
  2
*D9
 70
    65
 10
0.0
 20
0.0
 30
0.0
  3
*D
  0
LINE
  8
0
  6
BYBLOCK
 62
     0
 10
235.625516
 20
107.306183
 30
0.0
 11
272.0
 21
107.306183
 31
0.0
  0
LINE
  8
0
  6
BYBLOCK
 62
     0
 10
235.625516
 20
379.306183
 30
0.0
 11
272.0
 21
379.306183
 31
0.0
  0
LINE
  8
0
  6
BYBLOCK
 62
     0
 10
271.0
 20
112.306183
 30
0.0
 11
271.0
 21
374.306183
 31
0.0
  0
SOLID
  8
0
  6
BYBLOCK
 62
     0
 10
271.833333
 20
112.306183
 30
0.0
 11
270.166667
 21
112.306183
 31
0.0
 12
271.0
 22
107.306183
 32
0.0
 13
271.0
 23
107.306183
 33
0.0
  0
SOLID
  8
0
  6
BYBLOCK
 62
     0
 10
271.833333
 20
374.306183
 30
0.0
 11
270.166667
 21
374.306183
 31
0.0
 12
271.0
 22
379.306183
 32
0.0
 13
271.0
 23
379.306183
 33
0.0
  0
TEXT
  8
0
  6
BYBLOCK
 62
     0
 10
269.25
 20
238.639516
 30
0.0
 40
3.5
  1
272
 50
90.0
  0
POINT
  8
RESTER
  6
BYBLOCK
 62
     0
 10
234.625516
 20
107.306183
 30
0.0
  0
POINT
  8
RESTER
  6
BYBLOCK
 62
     0
 10
234.625516
 20
379.306183
 30
0.0
  0
POINT
  8
RESTER
  6
BYBLOCK
 62
     0
 10
271.0
 20
379.306183
 30
0.0
  0
ENDBLK
  8
0
  0
BLOCK
  8
0
  2
*D10
 70
    65
 10
0.0
 20
0.0
 30
0.0
  3
*D
  0
LINE
  8
0
  6
BYBLOCK
 62
     0
 10
272.0
 20
12.306183
 30
0.0
 11
272.0
 21
12.306183
 31
0.0
  0
LINE
  8
0
  6
BYBLOCK
 62
     0
 10
272.0
 20
107.306183
 30
0.0
 11
272.0
 21
107.306183
 31
0.0
  0
LINE
  8
0
  6
BYBLOCK
 62
     0
 10
271.0
 20
17.306183
 30
0.0
 11
271.0
 21
102.306183
 31
0.0
  0
SOLID
  8
0
  6
BYBLOCK
 62
     0
 10
271.833333
 20
17.306183
 30
0.0
 11
270.166667
 21
17.306183
 31
0.0
 12
271.0
 22
12.306183
 32
0.0
 13
271.0
 23
12.306183
 33
0.0
  0
SOLID
  8
0
  6
BYBLOCK
 62
     0
 10
271.833333
 20
102.306183
 30
0.0
 11
270.166667
 21
102.306183
 31
0.0
 12
271.0
 22
107.306183
 32
0.0
 13
271.0
 23
107.306183
 33
0.0
  0
TEXT
  8
0
  6
BYBLOCK
 62
     0
 10
269.25
 20
56.889516
 30
0.0
 40
3.5
  1
95
 50
90.0
  0
POINT
  8
RESTER
  6
BYBLOCK
 62
     0
 10
271.0
 20
12.306183
 30
0.0
  0
POINT
  8
RESTER
  6
BYBLOCK
 62
     0
 10
271.0
 20
107.306183
 30
0.0
  0
POINT
  8
RESTER
  6
BYBLOCK
 62
     0
 10
271.0
 20
107.306183
 30
0.0
  0
ENDBLK
  8
0
  0
BLOCK
  8
0
  2
*D11
 70
    65
 10
0.0
 20
0.0
 30
0.0
  3
*D
  0
LINE
  8
0
  6
BYBLOCK
 62
     0
 10
379.736785
 20
12.306183
 30
0.0
 11
379.736785
 21
12.306183
 31
0.0
  0
LINE
  8
0
  6
BYBLOCK
 62
     0
 10
379.736785
 20
22.306183
 30
0.0
 11
379.736785
 21
22.306183
 31
0.0
  0
LINE
  8
0
  6
BYBLOCK
 62
     0
 10
378.736785
 20
27.306183
 30
0.0
 11
378.736785
 21
32.306183
 31
0.0
  0
LINE
  8
0
  6
BYBLOCK
 62
     0
 10
378.736785
 20
7.306183
 30
0.0
 11
378.736785
 21
2.306183
 31
0.0
  0
SOLID
  8
0
  6
BYBLOCK
 62
     0
 10
379.570119
 20
27.306183
 30
0.0
 11
377.903452
 21
27.306183
 31
0.0
 12
378.736785
 22
22.306183
 32
0.0
 13
378.736785
 23
22.306183
 33
0.0
  0
SOLID
  8
0
  6
BYBLOCK
 62
     0
 10
379.570119
 20
7.306183
 30
0.0
 11
377.903452
 21
7.306183
 31
0.0
 12
378.736785
 22
12.306183
 32
0.0
 13
378.736785
 23
12.306183
 33
0.0
  0
TEXT
  8
0
  6
BYBLOCK
 62
     0
 10
376.986785
 20
15.264516
 30
0.0
 40
3.5
  1
10
 50
90.0
  0
POINT
  8
RESTER
  6
BYBLOCK
 62
     0
 10
378.736785
 20
12.306183
 30
0.0
  0
POINT
  8
RESTER
  6
BYBLOCK
 62
     0
 10
378.736785
 20
22.306183
 30
0.0
  0
POINT
  8
RESTER
  6
BYBLOCK
 62
     0
 10
378.736785
 20
22.306183
 30
0.0
  0
ENDBLK
  8
0
  0
BLOCK
  8
0
  2
*D12
 70
    65
 10
0.0
 20
0.0
 30
0.0
  3
*D
  0
LINE
  8
0
  6
BYBLOCK
 62
     0
 10
87.625516
 20
349.306183
 30
0.0
 11
71.732164
 21
361.447079
 31
0.0
  0
SOLID
  8
0
  6
BYBLOCK
 62
     0
 10
71.226293
 20
360.784856
 30
0.0
 11
72.238035
 21
362.109302
 31
0.0
 12
67.758826
 22
364.482303
 32
0.0
 13
67.758826
 23
364.482303
 33
0.0
  0
LINE
  8
0
  6
BYBLOCK
 62
     0
 10
87.625516
 20
349.306183
 30
0.0
 11
117.97075
 21
326.125526
 31
0.0
  0
LINE
  8
0
  6
BYBLOCK
 62
     0
 10
117.97075
 20
326.125526
 30
0.0
 11
122.97075
 21
326.125526
 31
0.0
  0
TEXT
  8
0
  6
BYBLOCK
 62
     0
 10
127.97075
 20
324.375526
 30
0.0
 40
3.5
  1
R25
  0
LINE
  8
0
  6
BYBLOCK
 62
     0
 10
87.535516
 20
349.306183
 30
0.0
 11
87.715516
 21
349.306183
 31
0.0
  0
LINE
  8
0
  6
BYBLOCK
 62
     0
 10
87.625516
 20
349.216183
 30
0.0
 11
87.625516
 21
349.396183
 31
0.0
  0
POINT
  8
RESTER
  6
BYBLOCK
 62
     0
 10
67.758826
 20
364.482303
 30
0.0
  0
POINT
  8
RESTER
  6
BYBLOCK
 62
     0
 10
87.625516
 20
349.306183
 30
0.0
  0
ENDBLK
  8
0
  0
BLOCK
  8
0
  2
*D13
 70
    65
 10
0.0
 20
0.0
 30
0.0
  3
*D
  0
LINE
  8
0
  6
BYBLOCK
 62
     0
 10
49.734274
 20
24.844697
 30
0.0
 11
51.946588
 21
27.003871
 31
0.0
  0
SOLID
  8
0
  6
BYBLOCK
 62
     0
 10
50.316324
 20
24.248323
 30
0.0
 11
49.152225
 21
25.441072
 31
0.0
 12
46.156026
 22
21.3524
 32
0.0
 13
46.156026
 23
21.3524
 33
0.0
  0
LINE
  8
0
  6
BYBLOCK
 62
     0
 10
67.625516
 20
42.306183
 30
0.0
 11
61.834954
 21
36.654713
 31
0.0
  0
TEXT
  8
0
  6
BYBLOCK
 62
     0
 10
52.515771
 20
30.079292
 30
0.0
 40
3.5
  1
R30
  0
LINE
  8
0
  6
BYBLOCK
 62
     0
 10
67.535516
 20
42.306183
 30
0.0
 11
67.715516
 21
42.306183
 31
0.0
  0
LINE
  8
0
  6
BYBLOCK
 62
     0
 10
67.625516
 20
42.216183
 30
0.0
 11
67.625516
 21
42.396183
 31
0.0
  0
POINT
  8
RESTER
  6
BYBLOCK
 62
     0
 10
46.156026
 20
21.3524
 30
0.0
  0
POINT
  8
RESTER
  6
BYBLOCK
 62
     0
 10
67.625516
 20
42.306183
 30
0.0
  0
ENDBLK
  8
0
  0
BLOCK
  8
0
  2
*D14
 70
    65
 10
0.0
 20
0.0
 30
0.0
  3
*D
  0
LINE
  8
0
  6
BYBLOCK
 62
     0
 10
307.625516
 20
209.897308
 30
0.0
 11
307.625516
 21
209.897308
 31
0.0
  0
LINE
  8
0
  6
BYBLOCK
 62
     0
 10
462.625516
 20
209.897308
 30
0.0
 11
462.625516
 21
209.897308
 31
0.0
  0
LINE
  8
0
  6
BYBLOCK
 62
     0
 10
312.625516
 20
210.897308
 30
0.0
 11
457.625516
 21
210.897308
 31
0.0
  0
SOLID
  8
0
  6
BYBLOCK
 62
     0
 10
312.625516
 20
210.063975
 30
0.0
 11
312.625516
 21
211.730642
 31
0.0
 12
307.625516
 22
210.897308
 32
0.0
 13
307.625516
 23
210.897308
 33
0.0
  0
SOLID
  8
0
  6
BYBLOCK
 62
     0
 10
457.625516
 20
210.063975
 30
0.0
 11
457.625516
 21
211.730642
 31
0.0
 12
462.625516
 22
210.897308
 32
0.0
 13
462.625516
 23
210.897308
 33
0.0
  0
TEXT
  8
0
  6
BYBLOCK
 62
     0
 10
381.042183
 20
212.647308
 30
0.0
 40
3.5
  1
155
  0
POINT
  8
RESTER
  6
BYBLOCK
 62
     0
 10
307.625516
 20
210.897308
 30
0.0
  0
POINT
  8
RESTER
  6
BYBLOCK
 62
     0
 10
462.625516
 20
210.897308
 30
0.0
  0
POINT
  8
RESTER
  6
BYBLOCK
 62
     0
 10
462.625516
 20
210.897308
 30
0.0
  0
ENDBLK
  8
0
  0
BLOCK
  8
0
  2
*D15
 70
    65
 10
0.0
 20
0.0
 30
0.0
  3
*D
  0
LINE
  8
0
  6
BYBLOCK
 62
     0
 10
442.625516
 20
116.53684
 30
0.0
 11
442.625516
 21
116.53684
 31
0.0
  0
LINE
  8
0
  6
BYBLOCK
 62
     0
 10
462.625516
 20
116.53684
 30
0.0
 11
462.625516
 21
116.53684
 31
0.0
  0
LINE
  8
0
  6
BYBLOCK
 62
     0
 10
447.625516
 20
115.53684
 30
0.0
 11
452.625516
 21
115.53684
 31
0.0
  0
LINE
  8
0
  6
BYBLOCK
 62
     0
 10
457.625516
 20
115.53684
 30
0.0
 11
452.625516
 21
115.53684
 31
0.0
  0
SOLID
  8
0
  6
BYBLOCK
 62
     0
 10
447.625516
 20
114.703506
 30
0.0
 11
447.625516
 21
116.370173
 31
0.0
 12
442.625516
 22
115.53684
 32
0.0
 13
442.625516
 23
115.53684
 33
0.0
  0
SOLID
  8
0
  6
BYBLOCK
 62
     0
 10
457.625516
 20
114.703506
 30
0.0
 11
457.625516
 21
116.370173
 31
0.0
 12
462.625516
 22
115.53684
 32
0.0
 13
462.625516
 23
115.53684
 33
0.0
  0
TEXT
  8
0
  6
BYBLOCK
 62
     0
 10
449.832648
 20
117.731824
 30
0.0
 40
3.5
  1
20
  0
POINT
  8
RESTER
  6
BYBLOCK
 62
     0
 10
442.625516
 20
115.53684
 30
0.0
  0
POINT
  8
RESTER
  6
BYBLOCK
 62
     0
 10
462.625516
 20
115.53684
 30
0.0
  0
POINT
  8
RESTER
  6
BYBLOCK
 62
     0
 10
462.625516
 20
115.53684
 30
0.0
  0
ENDBLK
  8
0
  0
BLOCK
  8
0
  2
*D16
 70
    65
 10
0.0
 20
0.0
 30
0.0
  3
*D
  0
LINE
  8
0
  6
BYBLOCK
 62
     0
 10
434.625516
 20
30.306183
 30
0.0
 11
415.512983
 21
39.110495
 31
0.0
  0
LINE
  8
0
  6
BYBLOCK
 62
     0
 10
415.512983
 20
39.110495
 30
0.0
 11
410.512983
 21
39.110495
 31
0.0
  0
TEXT
  8
0
  6
BYBLOCK
 62
     0
 10
399.67965
 20
37.360495
 30
0.0
 40
3.5
  1
R8
  0
LINE
  8
0
  6
BYBLOCK
 62
     0
 10
434.535516
 20
30.306183
 30
0.0
 11
434.715516
 21
30.306183
 31
0.0
  0
LINE
  8
0
  6
BYBLOCK
 62
     0
 10
434.625516
 20
30.216183
 30
0.0
 11
434.625516
 21
30.396183
 31
0.0
  0
POINT
  8
DEFPOINTS
  6
BYBLOCK
 62
     0
 10
441.891628
 20
26.959001
 30
0.0
  0
POINT
  8
DEFPOINTS
  6
BYBLOCK
 62
     0
 10
434.625516
 20
30.306183
 30
0.0
  0
ENDBLK
  8
0
  0
BLOCK
  8
0
  2
*D17
 70
    65
 10
0.0
 20
0.0
 30
0.0
  3
*D
  0
LINE
  8
0
  6
BYBLOCK
 62
     0
 10
531.749975
 20
311.126413
 30
0.0
 11
534.586393
 21
319.391747
 31
0.0
  0
LINE
  8
0
  6
BYBLOCK
 62
     0
 10
658.56895
 20
267.605887
 30
0.0
 11
661.405368
 21
275.87122
 31
0.0
  0
LINE
  8
0
  6
BYBLOCK
 62
     0
 10
538.991078
 20
316.822944
 30
0.0
 11
656.351504
 21
276.548312
 31
0.0
  0
SOLID
  8
0
  6
BYBLOCK
 62
     0
 10
538.720587
 20
316.034732
 30
0.0
 11
539.26157
 21
317.611157
 31
0.0
 12
534.261803
 22
318.445892
 32
0.0
 13
534.261803
 23
318.445892
 33
0.0
  0
SOLID
  8
0
  6
BYBLOCK
 62
     0
 10
656.081013
 20
275.7601
 30
0.0
 11
656.621995
 21
277.336525
 31
0.0
 12
661.080779
 22
274.925365
 32
0.0
 13
661.080779
 23
274.925365
 33
0.0
  0
TEXT
  8
0
  6
BYBLOCK
 62
     0
 10
594.377081
 20
299.666282
 30
0.0
 40
3.5
  1
134
 50
341.059293
  0
POINT
  8
DEFPOINTS
  6
BYBLOCK
 62
     0
 10
531.425385
 20
310.180558
 30
0.0
  0
POINT
  8
DEFPOINTS
  6
BYBLOCK
 62
     0
 10
658.24436
 20
266.660032
 30
0.0
  0
POINT
  8
DEFPOINTS
  6
BYBLOCK
 62
     0
 10
661.080779
 20
274.925365
 30
0.0
  0
ENDBLK
  8
0
  0
BLOCK
  8
0
  2
*D18
 70
    65
 10
0.0
 20
0.0
 30
0.0
  3
*D
  0
LINE
  8
0
  6
BYBLOCK
 62
     0
 10
166.935741
 20
79.306183
 30
0.0
 11
166.055832
 21
79.306183
 31
0.0
  0
LINE
  8
0
  6
BYBLOCK
 62
     0
 10
166.935741
 20
88.306183
 30
0.0
 11
166.055832
 21
88.306183
 31
0.0
  0
LINE
  8
0
  6
BYBLOCK
 62
     0
 10
167.055832
 20
93.306183
 30
0.0
 11
167.055832
 21
98.306183
 31
0.0
  0
LINE
  8
0
  6
BYBLOCK
 62
     0
 10
167.055832
 20
74.306183
 30
0.0
 11
167.055832
 21
69.306183
 31
0.0
  0
SOLID
  8
0
  6
BYBLOCK
 62
     0
 10
167.889165
 20
93.306183
 30
0.0
 11
166.222498
 21
93.306183
 31
0.0
 12
167.055832
 22
88.306183
 32
0.0
 13
167.055832
 23
88.306183
 33
0.0
  0
SOLID
  8
0
  6
BYBLOCK
 62
     0
 10
167.889165
 20
74.306183
 30
0.0
 11
166.222498
 21
74.306183
 31
0.0
 12
167.055832
 22
79.306183
 32
0.0
 13
167.055832
 23
79.306183
 33
0.0
  0
TEXT
  8
0
  6
BYBLOCK
 62
     0
 10
165.305832
 20
82.639516
 30
0.0
 40
3.5
  1
9
 50
90.0
  0
POINT
  8
DEFPOINTS
  6
BYBLOCK
 62
     0
 10
167.935741
 20
79.306183
 30
0.0
  0
POINT
  8
DEFPOINTS
  6
BYBLOCK
 62
     0
 10
167.935741
 20
88.306183
 30
0.0
  0
POINT
  8
DEFPOINTS
  6
BYBLOCK
 62
     0
 10
167.055832
 20
88.306183
 30
0.0
  0
ENDBLK
  8
0
  0
BLOCK
  8
0
  2
*D19
 70
    65
 10
0.0
 20
0.0
 30
0.0
  3
*D
  0
LINE
  8
0
  6
BYBLOCK
 62
     0
 10
588.73103
 20
77.593515
 30
0.0
 11
603.498576
 21
71.919077
 31
0.0
  0
LINE
  8
0
  6
BYBLOCK
 62
     0
 10
694.703337
 20
353.383113
 30
0.0
 11
709.470883
 21
347.708676
 31
0.0
  0
LINE
  8
0
  6
BYBLOCK
 62
     0
 10
604.358528
 20
76.945058
 30
0.0
 11
706.744011
 21
343.40006
 31
0.0
  0
SOLID
  8
0
  6
BYBLOCK
 62
     0
 10
605.136411
 20
76.646156
 30
0.0
 11
603.580645
 21
77.24396
 31
0.0
 12
602.565116
 22
72.277759
 32
0.0
 13
602.565116
 23
72.277759
 33
0.0
  0
SOLID
  8
0
  6
BYBLOCK
 62
     0
 10
707.521894
 20
343.101158
 30
0.0
 11
705.966128
 21
343.698962
 31
0.0
 12
708.537423
 22
348.067358
 32
0.0
 13
708.537423
 23
348.067358
 33
0.0
  0
TEXT
  8
0
  6
BYBLOCK
 62
     0
 10
652.243864
 20
206.444108
 30
0.0
 40
3.5
  1
295
 50
68.980701
  0
POINT
  8
DEFPOINTS
  6
BYBLOCK
 62
     0
 10
587.79757
 20
77.952197
 30
0.0
  0
POINT
  8
DEFPOINTS
  6
BYBLOCK
 62
     0
 10
693.769878
 20
353.741796
 30
0.0
  0
POINT
  8
DEFPOINTS
  6
BYBLOCK
 62
     0
 10
708.537423
 20
348.067358
 30
0.0
  0
ENDBLK
  8
0
  0
ENDSEC
  0
SECTION
  2
ENTITIES
  0
DIMENSION
  8
TOP-MAAL
  2
*D19
 10
708.537423
 20
348.067358
 30
0.0
 11
652.284161
 21
211.427947
 31
0.0
 70
     1
 13
587.79757
 23
77.952197
 33
0.0
 14
693.769878
 24
353.741796
 34
0.0
  0
POLYLINE
  8
TOP-MAAL
 66
     1
 10
0.0
 20
0.0
 30
0.0
  0
VERTEX
  8
TOP-MAAL
 10
434.625516
 20
30.306183
 30
0.0
  0
VERTEX
  8
TOP-MAAL
 10
441.891628
 20
26.959001
 30
0.0
  0
SEQEND
  8
TOP-MAAL
  0
SOLID
  8
TOP-MAAL
  6
BYBLOCK
 10
437.695773
 20
29.803161
 30
0.0
 11
437.000145
 21
28.288605
 31
0.0
 12
441.891628
 22
26.959001
 32
0.0
 13
441.891628
 23
26.959001
 33
0.0
  0
POLYLINE
  8
TOP-MAAL
 66
     1
 10
0.0
 20
0.0
 30
0.0
  0
VERTEX
  8
TOP-MAAL
 10
676.027663
 20
323.085483
 30
0.0
  0
VERTEX
  8
TOP-MAAL
 10
605.553341
 20
273.24977
 30
0.0
  0
SEQEND
  8
TOP-MAAL
  0
POLYLINE
  8
TOP-MAAL
 66
     1
 10
0.0
 20
0.0
 30
0.0
  0
VERTEX
  8
TOP-MAAL
 10
589.979647
 20
323.085483
 30
0.0
  0
VERTEX
  8
TOP-MAAL
 10
676.027663
 20
323.085483
 30
0.0
  0
SEQEND
  8
TOP-MAAL
  0
TEXT
  8
TOP-MAAL
 10
590.092006
 20
325.536267
 30
0.0
 40
5.0
  1
25mm Grosgrainb†nd sort
  7
UV
  0
TEXT
  8
TOP-MAAL
 10
336.466831
 20
337.621423
 30
0.0
 40
5.0
  1
sort fiberpap  1,4mm
  7
UV
  0
TEXT
  8
TOP-MAAL
 10
176.716612
 20
337.207845
 30
0.0
 40
5.0
  1
kantb†nd - Klemmel
  7
UV
  0
TEXT
  8
TOP-MAAL
 10
176.716612
 20
328.692545
 30
0.0
 40
5.0
  1
sort spec. bl›d 1354
  7
UV
  0
POLYLINE
  8
TOP-MAAL
 66
     1
 10
0.0
 20
0.0
 30
0.0
  0
VERTEX
  8
TOP-MAAL
 10
157.130634
 20
368.552437
 30
0.0
  0
VERTEX
  8
TOP-MAAL
 10
176.604252
 20
334.75706
 30
0.0
  0
VERTEX
  8
TOP-MAAL
 10
241.757923
 20
334.75706
 30
0.0
  0
SEQEND
  8
TOP-MAAL
  0
POLYLINE
  8
TOP-MAAL
 66
     1
 10
0.0
 20
0.0
 30
0.0
  0
VERTEX
  8
TOP-MAAL
 10
303.989863
 20
373.531147
 30
0.0
  0
VERTEX
  8
TOP-MAAL
 10
336.354472
 20
335.170639
 30
0.0
  0
SEQEND
  8
TOP-MAAL
  0
POLYLINE
  8
TOP-MAAL
 66
     1
 10
0.0
 20
0.0
 30
0.0
  0
VERTEX
  8
TOP-MAAL
 10
279.654717
 20
356.301499
 30
0.0
  0
VERTEX
  8
TOP-MAAL
 10
336.354472
 20
335.170639
 30
0.0
  0
VERTEX
  8
TOP-MAAL
 10
405.003606
 20
335.170639
 30
0.0
  0
SEQEND
  8
TOP-MAAL
  0
DIMENSION
  8
TOP-MAAL
  2
*D18
 10
167.055832
 20
88.306183
 30
0.0
 11
163.555832
 21
83.806183
 31
0.0
 13
167.935741
 23
79.306183
 33
0.0
 14
167.935741
 24
88.306183
 34
0.0
 50
90.0
  0
POLYLINE
  8
TOP
 66
     1
 10
0.0
 20
0.0
 30
0.0
  0
VERTEX
  8
TOP
 10
345.625516
 20
22.306183
 30
0.0
  0
VERTEX
  8
TOP
 10
434.625516
 20
22.306183
 30
0.0
 42
0.414214
  0
VERTEX
  8
TOP
 10
442.625516
 20
30.306183
 30
0.0
  0
VERTEX
  8
TOP
 10
442.625516
 20
164.306183
 30
0.0
 42
0.414214
  0
VERTEX
  8
TOP
 10
434.625516
 20
172.306183
 30
0.0
  0
VERTEX
  8
TOP
 10
345.625516
 20
172.306183
 30
0.0
 42
0.414214
  0
VERTEX
  8
TOP
 10
337.625516
 20
164.306183
 30
0.0
  0
VERTEX
  8
TOP
 10
337.625516
 20
30.306183
 30
0.0
 42
0.414214
  0
VERTEX
  8
TOP
 10
345.625517
 20
22.306183
 30
0.0
 42
0.414214
  0
SEQEND
  8
TOP
  0
TEXT
  8
TOP-MAAL
 10
395.72009
 20
75.649291
 30
0.0
 40
5.0
  1
D = 45
  7
UV
  0
POLYLINE
  8
TOP-MAAL
 66
     1
 10
0.0
 20
0.0
 30
0.0
  0
VERTEX
  8
TOP-MAAL
 10
669.676685
 20
344.672305
 30
0.0
  0
VERTEX
  8
TOP-MAAL
 10
682.343747
 20
332.355951
 30
0.0
  0
SEQEND
  8
TOP-MAAL
  0
DIMENSION
  8
TOP-MAAL
  2
*D17
 10
661.080779
 20
274.925365
 30
0.0
 11
598.807354
 21
299.996121
 31
0.0
 70
     1
 13
531.425385
 23
310.180558
 33
0.0
 14
658.24436
 24
266.660032
 34
0.0
  0
POLYLINE
  8
TOP-MAAL
 66
     1
 10
0.0
 20
0.0
 30
0.0
  0
VERTEX
  8
TOP-MAAL
 10
531.037376
 20
323.044014
 30
0.0
  0
VERTEX
  8
TOP-MAAL
 10
598.653677
 20
344.672305
 30
0.0
  0
VERTEX
  8
TOP-MAAL
 10
669.676685
 20
344.672305
 30
0.0
  0
SEQEND
  8
TOP-MAAL
  0
TEXT
  8
TOP-MAAL
 10
599.637122
 20
347.234888
 30
0.0
 40
5.0
  1
sort fiberpap  1,4mm
  7
UV
  0
TEXT
  8
TOP-MAAL
 10
398.342468
 20
32.351241
 30
0.0
 40
3.5
  1
(4x)
  7
UV
  0
TEXT
  8
TOP-MAAL
 10
63.425645
 20
30.373527
 30
0.0
 40
3.5
  1
(4x)
  7
UV
  0
TEXT
  8
TOP-MAAL
 10
127.822359
 20
318.746037
 30
0.0
 40
3.5
  1
(4x)
  7
UV
  0
DIMENSION
  8
TOP-MAAL
  2
*D16
 10
434.625516
 20
30.306183
 30
0.0
 11
402.596317
 21
39.110495
 31
0.0
 70
     4
 15
441.891628
 25
26.959001
 35
0.0
 40
-29.042928
  0
LINE
  8
TOP
 10
67.625516
 20
379.306183
 30
0.0
 11
432.625516
 21
379.306183
 31
0.0
  0
LINE
  8
TOP
 10
67.625516
 20
12.306183
 30
0.0
 11
432.625516
 21
12.306183
 31
0.0
  0
LINE
  8
TOP
 10
462.625516
 20
42.306183
 30
0.0
 11
462.625516
 21
349.306183
 31
0.0
  0
LINE
  8
TOP
 10
37.625516
 20
42.306183
 30
0.0
 11
37.625516
 21
349.306183
 31
0.0
  0
ARC
  8
TOP
 10
432.625516
 20
42.306183
 30
0.0
 40
30.0
 50
270.0
 51
0.0
  0
ARC
  8
TOP
 10
432.625516
 20
349.306183
 30
0.0
 40
30.0
 50
0.0
 51
90.0
  0
ARC
  8
TOP
 10
67.625516
 20
349.306183
 30
0.0
 40
30.0
 50
90.0
 51
180.0
  0
ARC
  8
TOP
 10
67.625516
 20
42.306183
 30
0.0
 40
30.0
 50
180.0
 51
270.0
  0
DIMENSION
  8
TOP-MAAL
  2
*D10
 10
271.0
 20
107.306183
 30
0.0
 11
267.5
 21
59.806183
 31
0.0
 13
271.0
 23
12.306183
 33
0.0
 14
271.0
 24
107.306183
 34
0.0
 50
90.0
  0
DIMENSION
  8
TOP-MAAL
  2
*D9
 10
271.0
 20
379.306183
 30
0.0
 11
267.5
 21
243.306183
 31
0.0
 13
234.625516
 23
107.306183
 33
0.0
 14
234.625516
 24
379.306183
 34
0.0
 50
90.0
  0
DIMENSION
  8
TOP-MAAL
  2
*D7
 10
72.625516
 20
210.897308
 30
0.0
 11
55.125516
 21
214.397308
 31
0.0
 13
37.625516
 23
210.897308
 33
0.0
 14
72.625516
 24
210.897308
 34
0.0
  0
DIMENSION
  8
TOP-MAAL
  2
*D8
 10
307.625516
 20
210.897308
 30
0.0
 11
190.125516
 21
214.397308
 31
0.0
 13
72.625516
 23
210.897308
 33
0.0
 14
307.625516
 24
210.897308
 34
0.0
  0
DIMENSION
  8
TOP-MAAL
  2
*D14
 10
462.625516
 20
210.897308
 30
0.0
 11
385.125516
 21
214.397308
 31
0.0
 13
307.625516
 23
210.897308
 33
0.0
 14
462.625516
 24
210.897308
 34
0.0
  0
LINE
  8
TOP
 10
556.425385
 20
379.306183
 30
0.0
 11
586.425385
 21
379.306183
 31
0.0
  0
LINE
  8
TOP
 10
531.425385
 20
12.306183
 30
0.0
 11
586.425385
 21
12.306183
 31
0.0
  0
LINE
  8
TOP
 10
531.425385
 20
12.306183
 30
0.0
 11
531.425385
 21
349.306183
 31
0.0
  0
LINE
  8
TOP
 10
586.425385
 20
12.306183
 30
0.0
 11
586.425385
 21
379.306183
 31
0.0
  0
POLYLINE
  8
TOP
 66
     1
 10
0.0
 20
0.0
 30
0.0
  0
VERTEX
  8
TOP
 10
531.425385
 20
349.306183
 30
0.0
  0
VERTEX
  8
TOP
 10
556.425385
 20
379.306183
 30
0.0
  0
SEQEND
  8
TOP
  0
DIMENSION
  8
TOP-MAAL
  2
*D4
 10
586.425385
 20
365.278094
 30
0.0
 11
571.425385
 21
368.778094
 31
0.0
 70
   128
 13
556.425385
 23
379.306183
 33
0.0
 14
586.425385
 24
379.306183
 34
0.0
  0
DIMENSION
  8
TOP-MAAL
  2
*D3
 10
586.425385
 20
343.382746
 30
0.0
 11
557.925385
 21
346.882746
 31
0.0
 70
   128
 13
531.425385
 23
348.956982
 33
0.0
 14
586.425385
 24
348.956982
 34
0.0
  0
DIMENSION
  8
TOP-MAAL
  2
*D6
 10
517.750918
 20
349.306183
 30
0.0
 11
514.250918
 21
180.806183
 31
0.0
 13
531.425385
 23
12.306183
 33
0.0
 14
531.425385
 24
349.306183
 34
0.0
 50
90.0
  0
DIMENSION
  8
TOP-MAAL
  2
*D5
 10
505.163505
 20
379.306183
 30
0.0
 11
501.663505
 21
195.806183
 31
0.0
 13
531.425385
 23
12.306183
 33
0.0
 14
556.425385
 24
379.306183
 34
0.0
 50
90.0
  0
LINE
  8
TOP
 10
308.625516
 20
109.306183
 30
0.0
 11
308.625516
 21
344.306183
 31
0.0
  0
ARC
  8
TOP
 10
287.625516
 20
344.306183
 30
0.0
 40
30.0
 50
0.0
 51
90.0
  0
LINE
  8
TOP
 10
92.625516
 20
88.306183
 30
0.0
 11
287.625516
 21
88.306183
 31
0.0
  0
ARC
  8
TOP
 10
92.625516
 20
109.306183
 30
0.0
 40
21.0
 50
180.0
 51
270.0
  0
ARC
  8
TOP
 10
287.625516
 20
109.306183
 30
0.0
 40
21.0
 50
270.0
 51
0.0
  0
ARC
  8
TOP
 10
287.625516
 20
344.306183
 30
0.0
 40
21.0
 50
0.0
 51
90.0
  0
DIMENSION
  8
TOP-MAAL
  2
*D0
 10
317.625516
 20
151.001464
 30
0.0
 11
190.125516
 21
154.501464
 31
0.0
 12
0.0
 22
-76.063111
 32
0.0
 13
62.625516
 23
150.743072
 33
0.0
 14
317.625516
 24
150.743072
 34
0.0
  0
DIMENSION
  8
TOP-MAAL
  2
*D1
 10
442.625516
 20
115.53684
 30
0.0
 11
390.125516
 21
119.03684
 31
0.0
 12
0.0
 22
16.170002
 32
0.0
 13
337.625516
 23
113.476184
 33
0.0
 14
442.625516
 24
113.476184
 34
0.0
  0
LINE
  8
TOP
 10
586.893446
 20
80.527211
 30
0.0
 11
691.587919
 21
353.643227
 31
0.0
  0
LINE
  8
TOP
 10
589.87506
 20
77.870553
 30
0.0
 11
694.991076
 21
352.086245
 31
0.0
  0
LINE
  8
TOP
 10
588.238944
 20
77.516678
 30
0.0
 11
587.356197
 21
78.387716
 31
0.0
  0
LINE
  8
TOP
 10
694.53771
 20
353.321241
 30
0.0
 11
693.002045
 21
354.162351
 31
0.0
  0
ARC
  8
TOP
 10
588.941314
 20
78.228489
 30
0.0
 40
1.0
 50
225.382495
 51
339.026507
  0
ARC
  8
TOP
 10
588.760938
 20
79.811339
 30
0.0
 40
2.0
 50
159.026507
 51
225.382495
  0
ARC
  8
TOP
 10
692.521665
 20
353.285291
 30
0.0
 40
1.0
 50
61.289727
 51
159.026507
  0
ARC
  8
TOP
 10
694.057329
 20
352.444181
 30
0.0
 40
1.0
 50
339.026507
 51
61.289727
  0
LINE
  8
TOP
  6
HIDDEN
 10
531.425385
 20
310.180558
 30
0.0
 11
586.42408
 21
291.306631
 31
0.0
  0
LINE
  8
TOP
  6
HIDDEN
 10
531.425385
 20
286.905344
 30
0.0
 11
586.419868
 21
268.308048
 31
0.0
  0
POLYLINE
  8
TOP
  6
HIDDEN
 66
     1
 10
0.0
 20
0.0
 30
0.0
  0
VERTEX
  8
TOP
  6
HIDDEN
 10
586.425385
 20
107.306183
 30
0.0
  0
VERTEX
  8
TOP
  6
HIDDEN
 10
531.425385
 20
107.306183
 30
0.0
  0
SEQEND
  8
TOP
  0
POLYLINE
  8
TOP
  6
HIDDEN
 66
     1
 10
0.0
 20
0.0
 30
0.0
  0
VERTEX
  8
TOP
  6
HIDDEN
 10
589.296298
 20
86.892234
 30
0.0
  0
VERTEX
  8
TOP
  6
HIDDEN
 10
588.287922
 20
104.731167
 30
0.0
 42
0.378955
  0
VERTEX
  8
TOP
  6
HIDDEN
 10
586.302753
 20
106.488049
 30
0.0
  0
VERTEX
  8
TOP
  6
HIDDEN
 10
574.21966
 20
106.488049
 30
0.0
  0
SEQEND
  8
TOP
  0
DIMENSION
  8
TOP-MAAL
  2
*D2
 10
378.736785
 20
172.306183
 30
0.0
 11
375.236785
 21
97.306183
 31
0.0
 12
-12.871606
 22
0.0
 32
0.0
 13
377.25391
 23
22.306183
 33
0.0
 14
377.25391
 24
172.306183
 34
0.0
 50
90.0
  0
LINE
  8
TOP
 10
586.424194
 20
291.306591
 30
0.0
 11
658.24436
 21
266.660032
 31
0.0
  0
LINE
  8
TOP
 10
586.420331
 20
268.307892
 30
0.0
 11
650.5614
 21
246.617527
 31
0.0
  0
POLYLINE
  8
TOP
  6
CONTINUOUS
 66
     1
 10
0.0
 20
0.0
 30
0.0
  0
VERTEX
  8
TOP
  6
CONTINUOUS
 10
307.625516
 20
379.306183
 30
0.0
  0
VERTEX
  8
TOP
  6
CONTINUOUS
 10
307.625516
 20
366.744106
 30
0.0
  0
SEQEND
  8
TOP
  0
POLYLINE
  8
TOP
  6
HIDDEN
 66
     1
 10
0.0
 20
0.0
 30
0.0
  0
VERTEX
  8
TOP
  6
HIDDEN
 10
307.625516
 20
366.723818
 30
0.0
  0
VERTEX
  8
TOP
  6
HIDDEN
 10
307.625516
 20
107.306183
 30
0.0
  0
VERTEX
  8
TOP
  6
HIDDEN
 10
72.625516
 20
107.306183
 30
0.0
  0
VERTEX
  8
TOP
  6
HIDDEN
 10
72.625516
 20
366.726603
 30
0.0
  0
SEQEND
  8
TOP
  0
POLYLINE
  8
TOP
  6
CONTINUOUS
 66
     1
 10
0.0
 20
0.0
 30
0.0
  0
VERTEX
  8
TOP
  6
CONTINUOUS
 10
72.625516
 20
366.726603
 30
0.0
  0
VERTEX
  8
TOP
  6
CONTINUOUS
 10
72.625516
 20
379.306183
 30
0.0
  0
SEQEND
  8
TOP
  0
DIMENSION
  8
TOP-MAAL
  2
*D15
 10
462.625516
 20
115.53684
 30
0.0
 11
452.457648
 21
119.481824
 31
0.0
 70
   128
 13
442.625516
 23
115.53684
 33
0.0
 14
462.625516
 24
115.53684
 34
0.0
  0
DIMENSION
  8
TOP-MAAL
  2
*D11
 10
378.736785
 20
22.306183
 30
0.0
 11
375.236785
 21
17.306183
 31
0.0
 13
378.736785
 23
12.306183
 33
0.0
 14
378.736785
 24
22.306183
 34
0.0
 50
90.0
  0
POLYLINE
  8
TOP
 66
     1
 10
0.0
 20
0.0
 30
0.0
  0
VERTEX
  8
TOP
 10
317.625516
 20
344.306183
 30
0.0
  0
VERTEX
  8
TOP
 10
317.625516
 20
109.306183
 30
0.0
 42
-0.414214
  0
VERTEX
  8
TOP
 10
287.625516
 20
79.306183
 30
0.0
  0
VERTEX
  8
TOP
 10
92.625516
 20
79.306183
 30
0.0
 42
-0.414214
  0
VERTEX
  8
TOP
 10
62.625516
 20
109.306183
 30
0.0
  0
VERTEX
  8
TOP
 10
62.625516
 20
349.306183
 30
0.0
 42
-0.414214
  0
VERTEX
  8
TOP
 10
87.625516
 20
374.306183
 30
0.0
  0
VERTEX
  8
TOP
 10
287.625516
 20
374.306183
 30
0.0
  0
SEQEND
  8
TOP
  0
POLYLINE
  8
TOP
 66
     1
 10
0.0
 20
0.0
 30
0.0
  0
VERTEX
  8
TOP
 10
71.625516
 20
109.306183
 30
0.0
  0
VERTEX
  8
TOP
 10
71.625516
 20
345.306183
 30
0.0
 42
-0.414214
  0
VERTEX
  8
TOP
 10
91.625516
 20
365.306183
 30
0.0
  0
VERTEX
  8
TOP
 10
287.625516
 20
365.306183
 30
0.0
  0
SEQEND
  8
TOP
  0
DIMENSION
  8
TOP-MAAL
  2
*D12
 10
87.625516
 20
349.306183
 30
0.0
 11
132.637417
 21
326.125526
 31
0.0
 70
     4
 15
67.758826
 25
364.482303
 35
0.0
 40
-63.186072
  0
DIMENSION
  8
TOP-MAAL
  2
*D13
 10
67.625516
 20
42.306183
 30
0.0
 11
56.890771
 21
31.829292
 31
0.0
 70
     4
 15
46.156026
 25
21.3524
 35
0.0
  0
TEXT
  8
TOP-MAAL
 10
618.142096
 20
85.230167
 30
0.0
 40
5.0
  1
PVC tekstil
  7
UV
  0
POLYLINE
  8
TOP-MAAL
 66
     1
 10
0.0
 20
0.0
 30
0.0
  0
VERTEX
  8
TOP-MAAL
 10
616.208302
 20
82.779383
 30
0.0
  0
VERTEX
  8
TOP-MAAL
 10
655.310529
 20
82.779383
 30
0.0
  0
SEQEND
  8
TOP-MAAL
  0
POLYLINE
  8
TOP-MAAL
 66
     1
 10
0.0
 20
0.0
 30
0.0
  0
VERTEX
  8
TOP-MAAL
 10
616.208302
 20
82.779383
 30
0.0
  0
VERTEX
  8
TOP-MAAL
 10
589.084118
 20
96.741626
 30
0.0
  0
SEQEND
  8
TOP-MAAL
  0
TEXT
  8
TOP-MAAL
 10
618.142096
 20
75.387054
 30
0.0
 40
5.0
  1
1288A sort
  7
UV
  0
ENDSEC
  0
EOF
