M71
M48
T1F00S00C0.006
T2F00S00C0.009
T3F00S00C0.018
T4F00S00C0.028
T5F00S00C0.030
T6F00S00C0.031
T7F00S00C0.032
T8F00S00C0.036
T9F00S00C0.039
T10F00S00C0.040
T11F00S00C0.080
T12F00S00C0.091
T13F00S00C0.150
%
T01
X09484Y03858
X09516
X0961Y0389
X09673Y03858
X09736Y0389
Y03925
Y04079
X0961
T02
X12063Y01669
X12113Y01719
X12308Y01794
X12378Y01764
X12438
X12498
Y01824
X12438
X12378
X12563
Y01764
X12628
Y01824
X12698Y01814
X12753Y01789
X12813Y01764
X12878Y01749
X12948Y01744
X13028
X13108
X13188
Y01664
X13088
X12988
X13028Y01944
X13108
X13188
Y02024
X13088
X12988
X12948Y01944
X12878Y01954
X12823Y01979
X12763Y02004
X12698Y02019
X12628Y02024
X12498
X12438
X12378
X12403Y02069
X12393Y02129
X12323Y02094
X12278Y02094
X12378Y02273
X12438
X12498
X12563
X12628
Y02338
Y02408
Y02473
Y02533
X12563
Y02473
X12498
Y02533
X12438
Y02473
X12378
Y02533
X12308Y02503
X12113Y02428
X12063Y02378
Y01979
X12378Y01564
X12438
X12498
X12563
X12628
Y01629
Y01699
X12713Y02104
X12753Y02498
X12698Y02523
X12813Y02473
X12878Y02458
X12948Y02453
X13028
X13108
X13188
Y02373
X13088
X12988
X11983Y02418
X11983Y02478
Y02528
X11873Y02558
X1187Y026
X11828Y02558
X11764Y02564
X11707Y02582
X11657Y02613
X11664Y0248
X11718Y02461
X11773Y02449
X11828Y02448
X11873
X1187Y0236
Y0232
Y0228
Y0224
Y022
Y0216
Y0205
X11841Y02068
X11823Y01979
X11718Y01999
Y02054
Y02104
Y02164
X11712Y02227
X11697Y02287
X1167Y02343
X11633Y02395
X1159Y02437
X11541Y02472
X11486Y02497
X11429Y02514
X11368Y02519
X11308
X11248
Y02409
X11308
X11368
X11427Y02401
X11483Y02378
X11535Y02338
X11575Y02287
X116Y02228
X11608Y02164
Y02104
Y02054
Y01999
X11608Y01944
X11616Y01885
X11642Y01831
X11683Y01786
X11729Y01757
X11776Y01743
X11828Y01739
X11873
X1187Y017
Y0166
Y0162
Y0158
Y0154
X11983Y01709
X11983Y01769
Y01819
X11873Y01849
X11828
X11775Y01858
X11737Y01887
X11718Y01944
X1187Y019
X1135Y01904
X1131Y01903
X11379Y0176
X11179Y01788
X11079Y01803
X10937Y01768
X10933Y01839
Y01909
Y01984
Y02055
X1094Y02196
X10917Y02346
X10878
Y02386
Y02425
Y02465
Y02504
X10839Y02543
X10917
Y02583
X10839Y02465
Y02425
X1076
Y02386
X10799
Y02346
X1076
X1072
Y02386
X1072Y02425
Y02465
X10681
Y02425
Y02386
Y02346
X10642Y02425
Y02465
Y02504
X10602
Y02465
X10563
X10524Y02465
X10484
Y02504
Y02543
X10524
X10563Y02543
X10563Y02504
X10602Y02425
X10563Y02386
X10445Y02465
X10681Y02543
X1076Y02504
X10799Y02465
X10839Y02346
X10839Y02307
X10917Y02386
X11124Y02074
X11177Y02068
X1113Y01999
X11119Y01971
X10925Y01697
Y0163
Y01563
X1087Y01543
X10535Y01587
X10614Y01677
X1072Y01791
X10504Y02059
X10472
X11567Y02545
X11614Y02509
X11528Y0259
X11594Y01549
X10323Y01646
Y01685
X10295Y01705
Y01665
X10224Y01626
Y01587
X10201Y01606
Y01567
X10203Y01744
X10224Y01764
Y01803
X10201Y01783
X10248Y01827
X10268Y01882
X10291Y01902
X10315Y01921
X10339Y01941
X10362Y01961
X10386Y0198
X10409Y02
X10433Y0202
X10437Y02059
X10366Y02189
Y02343
X10327Y02386
Y02425
Y02465
X10366Y02465
Y02504
X10327Y02504
X10287Y02465
X10248
X10209Y02465
X10169
Y02425
Y02386
Y02346
X10209Y02346
X10248
Y02386
X10209
X10287
Y02425
X10366Y02425
X10406Y02425
X10406Y02386
X10406Y02465
Y02543
X10209
X1013Y02504
X10012
X09972
X09933
X09933Y02543
X09894
X09894Y02504
Y02465
Y02425
X09858
X09854Y02465
Y02504
X09815
Y02425
X09776
X09815Y02386
X09854
X09854Y02346
X09894
Y02386
X09933
Y02346
X09972
X09972Y02386
Y02425
X09972Y02465
X09933
X09933Y02425
X10012
Y02386
X10051
Y02346
X10091
Y02307
X10051Y02425
X10012Y02465
Y02543
X09972
Y02583
X09933Y02583
Y02622
X09972
X10012
Y02583
X10051Y02583
X09894Y02583
Y02622
X09854
Y02583
X09815Y02346
X0978Y02177
X09709
X09276Y02157
X09315Y02094
X09177
X09236Y01929
X0924Y0189
X092Y01882
X0928Y01866
X09331Y01913
X09451Y0187
X09319Y0176
Y01677
X09244Y01705
X09209Y0172
Y01622
X09089Y01587
X09087Y01669
X08986Y01674
X08986Y01725
X09087Y01783
X08936Y01992
X08961Y0246
X08968Y02491
X08898Y02492
X08886Y02461
X08933Y02571
X08898Y02618
X09209Y02606
X09177Y02563
X10059Y02059
X10063Y0202
X10039Y02
Y01961
Y01921
Y01882
Y01843
X10043Y01803
X10067Y01823
Y01862
Y01902
Y01941
Y0198
X10087Y02039
X1002Y01783
X09996Y01764
X09972Y01744
X09949Y01724
X09925Y01705
X09902Y01685
X09925Y01587
X09949Y01606
X09972Y01626
X09996Y01646
X1002Y01665
X09898Y01567
X10319Y0185
X10386Y0185
X08862Y0176
X08433Y0184
X08425Y01961
X0846Y01992
X08311Y01674
X08321Y01606
X07542Y01715
X08146Y02606
X08373Y02534
X085Y02547
X08539Y02594
X08591Y02547
X08614Y02571
X08642Y02547
X07051Y02417
Y02343
X07094Y02154
X07094Y02114
Y02083
Y02051
X07094Y0202
X07094Y01988
X0694Y01985
Y02016
X06937Y02059
X0694Y01953
X06921Y01854
X06888
X06858
X06824
X06794
X06762
X067Y01844
X06645Y01868
X06599Y0195
X06598Y02045
Y02109
X06688Y02139
X0676Y02187
X06791Y02164
X06855Y02186
X06823Y01964
X06713Y01955
X06539Y02009
X06326Y01721
X06746Y02475
X0552Y01839
X03822Y02096
X03587Y02035
X03739Y02444
X03647Y02566
X02416Y02589
X02128
X01991Y02873
X02125Y03008
X02415
X02416Y02871
Y02819
X02595Y02794
X02564Y02742
X02619Y02717
X02493Y02665
X02532Y03162
X02449Y03212
X02416Y03238
Y03268
X0223Y03247
X01956Y03188
X01969Y03669
X02223Y03636
X02222Y03776
X02367Y03685
X02938Y03689
X02698Y03188
X02643Y02767
X02671Y0269
X05155Y0375
X05226Y03956
X05064
X06886Y03947
X07028
X06957Y03739
X07055Y02878
X07016Y02736
X06976Y02736
X06937Y02736
X06898
X06858
X06819
X0674Y02736
X06701Y02736
X06661
X06622
X06543Y02748
X06504
X06465Y02878
X06583
X0678
X07094Y02736
X07134Y02736
X07173Y02736
X07213
X07252
X07291
X0737
X07409
X07449
X07488Y02736
X07528Y02736
X07567
X07606Y02878
X07331
X08185Y02839
X08177Y02764
X08181Y02701
X08409Y02638
X08512Y02681
X08539
X08614Y02669
X08685Y02756
X08819Y02677
X08488Y02815
X08496Y02874
X085Y03024
X08591
X08614Y03051
X08642Y0302
X08614Y03126
X08539Y03157
X08512
X08539Y03075
X08406Y03094
X08373Y02992
X08146Y03063
X08488Y03292
X08488Y03339
X08685Y0324
X08819Y03169
X08709Y03528
X08638
X08638Y03724
X08487Y03817
X08339Y03858
X09169Y03976
X09146Y04
X09122Y04026
X091Y041
Y04175
X09252
X09362
X09382Y04144
X09406Y04122
X09469
X09457Y04177
X09488
X09508Y04154
X09425Y04177
X09343Y04122
X09268Y04063
X09289Y04031
X09309Y03906
X09278Y03874
X09244Y03906
X09219Y03929
X09193Y03953
X09266Y03811
X09289Y03789
X09315Y03768
X09339Y03746
X0937Y03819
X09437Y03813
X09531Y03811
X09594
X09657
X0972
X09783
X09811Y03906
X09813Y04041
X09807Y04122
X09736
X09673
X0961
X09594Y04004
X09563
X09531
X095
X09469
Y03933
X095
X09531
X09563
X09594
X09657
Y04004
X0972Y04008
X09654Y03681
Y03618
X09642Y03567
X09701
X09803Y03616
X09803Y03681
X09815Y03492
Y03449
X09854
Y03409
X09894
X09894Y03409
X09894Y0337
X09933Y0337
X09933Y03331
X09972Y03331
X09972Y03291
X10012Y03291
Y03331
Y03331
Y0337
X10012
X10051
Y03331
Y03331
Y03291
Y03291
X10091
Y03291
Y03252
X1013
X10169
X10209
Y03291
Y03331
Y0337
X10209Y0337
X10248
X10248Y0337
Y03331
X10287
X10287
Y0337
X10287Y0337
X10327
X10327Y0337
Y03331
Y03331
Y03291
X10327
X10287
Y03252
X10327
Y03213
Y03173
Y03134
X10287
Y03173
Y03213
X10248Y03134
X10209
X10169
X1013
Y03094
Y03055
Y03016
Y02976
X1013Y02937
X10091Y02937
X10091Y02898
X10051
X10012
X09972
X09933
Y02937
X09972
X10012
Y02976
X10051
X10012Y03016
X09972
Y02976
X09933
X09894
X09894Y03016
X09933
Y03055
X09972
Y03094
X10012
X10012Y03134
X10051
X10091
Y03173
Y03213
X10051
X09972
Y03173
X09972Y03134
X09933
Y03094
X09894
Y03055
X09815Y03055
X09854Y03094
X09854Y03134
X09894Y03134
X09894Y03173
X09933Y03173
X09933Y03213
X09894
X09894Y03252
X09854Y03252
X09815
X0974Y03213
X09764Y03154
X09854Y03173
Y03331
Y03331
Y0337
X09894Y03331
Y03331
X09933Y03291
Y03291
X09972Y03252
X10012Y03173
X10012Y03055
X10209
X10248
X10287
X10327
X10366
X10406
Y03016
Y02976
Y02937
X10366
X10327
Y02976
X10366
Y03016
X10327
X10287Y02976
Y02937
Y02898
X10327
X10366
Y02858
X10327
Y02819
Y0278
X10366
Y02819
X10406
Y0278
Y0274
X10366
X10327
X10287
Y0278
Y02819
Y02858
X10248
X10209
Y02898
Y02937
Y02976
Y03016
X10248
Y02976
Y02937
Y02819
Y0278
X10209
Y02819
X1013
Y0278
Y0274
Y02701
Y02661
X10169
X10209
X10209Y02701
X10209Y0274
X10248
X10366Y02701
X10366Y02661
X10406Y02858
Y02898
Y03134
X10248Y03291
Y03409
X10248Y03409
X10209
X10169
X1013Y03409
X1013Y03409
Y0337
X10091
Y03409
Y03449
X10169
Y0337
X10169Y0337
Y03331
X1013
Y03291
X10091Y03331
X10051Y03409
X10051Y03409
X10012
X09972
X09933
X09933Y03409
X09972Y0337
X09972
Y03449
X09992Y03524
X10228Y03496
X10287Y03409
X10287Y03409
X10327Y03409
X10327Y03409
X10287Y03598
X09772Y03453
X0952Y03618
Y03681
X09374Y03169
X09433Y03106
X09504Y02917
X09528Y02898
X0974
X09854Y02898
X09894
Y0278
X09854Y02819
X09815
Y02661
X09854
X09894
X09933
X09972
Y02701
X09933
X09854
X09972Y0278
X1013Y02858
X09854Y02976
X09815
X09299Y02945
X09142Y02846
X09146Y02811
X0915Y02772
X09157Y02732
X09126Y02626
X08944Y02756
X08937Y03087
X09051Y03118
X09138Y03128
Y03092
Y03061
X08943Y03238
X10445Y03252
X10524
Y03134
X10484
X10445
Y03055
X10484
X10524
Y03016
Y02976
Y02937
X10484
X10445
Y02976
X10484Y03016
X10602
Y02976
Y02937
Y02898
Y02858
Y02819
Y0278
Y0274
Y02701
Y02661
X10563
X10524
Y02701
Y0274
X10484
Y0278
X10524
Y02819
X10484
Y02858
X10524
Y02898
X10445
Y02858
Y02819
Y0278
Y0274
X10681Y02898
X1072
X1072Y02858
X1076
X1076Y02897
X10799Y02858
X10839Y02819
X10839Y0278
X10878Y02819
X10917Y02819
Y02858
X10878Y02858
X10878Y02937
X10839
X10839Y02976
Y03016
X10917
Y03055
Y03094
Y03134
X10839Y03173
Y03252
X10878
X10878Y03291
X10917Y03331
Y0337
X10878Y03409
X10917Y03449
X10839
X10799
X1076
X1072Y03449
X10681Y03449
X10563Y03409
X10528Y03559
X10535Y03642
X10602Y03807
X10693Y03909
X10874Y03941
X10862Y04012
Y04079
Y04146
X11016Y03906
X1118Y03836
X11228Y03834
X11187Y03982
X11387Y03983
X11476Y03892
X11642Y03884
X11616Y0383
X11608Y03771
Y03716
Y03661
Y03606
Y03551
X116Y03487
X11575Y03428
X11535Y03377
X11483Y03337
X11427Y03314
X11368Y03306
X11308
X11248
Y03196
X11308
X11368
X11429Y03201
X11486Y03218
X11541Y03243
X1159Y03278
X11633Y0332
X1167Y03372
X11697Y03428
X11712Y03488
X11718Y03551
Y03606
Y03661
Y03716
Y03771
X11737Y03828
X11775Y03857
X11828Y03866
X11873
X1187Y0383
Y0379
Y0375
Y0371
Y0367
Y0363
Y0359
X11841Y03478
X11823Y03396
X1187Y0332
X11873Y03266
X11828
X11774Y03265
X11719Y03253
X11665Y03234
X11615Y03205
X11568Y03169
X11529Y03125
X11488Y03081
X11438Y0305
X11374Y0303
X11308Y03026
X11247
Y02916
X11308
X11368Y02917
X11427Y02929
X11481Y02948
X11531Y02977
X11578Y03013
X11617Y03058
X11658Y03101
X11708Y03132
X11765Y0315
X11828Y03156
X11873
X1187Y0308
Y0304
Y03
Y0296
Y0292
Y0288
X11841Y02775
X11823Y02688
X11616Y02657
X11577Y02701
X1153Y02737
X1148Y02766
X11424Y02786
X11365Y02797
X11308Y02798
X11247
Y02688
X11308
X11372Y02685
X11437Y02664
X11487Y02633
X10917Y02661
X10878Y0274
X10917Y0278
X10957Y02898
X10878Y02976
X10721Y02937
X10681
X1072Y03016
X10602Y03055
Y03094
Y03134
X10563
X10642Y03173
X10642Y03213
X10681Y03213
X1072Y03291
X1076
X10799Y03331
X10839Y0337
X10831Y03634
X11016Y03571
X11096Y03628
X11129
X11116Y03464
X11683Y03929
X11729Y03958
X11776Y03972
X11828Y03976
X11873
X11873Y04026
X11823Y04106
X11728Y04157
X11983Y03946
Y03896
X11983Y03836
X11983Y03236
Y03186
X11983Y03126
X10799Y02661
X12063Y02688
X12278Y02803
X12323Y02803
X12393Y02838
X12403Y02778
X12378Y02733
X12438Y02733
X12498Y02733
X12628
X12698Y02728
X12763Y02713
X12823Y02688
X12878Y02663
X12948Y02653
X13028
X13108
X13188
Y02733
X13088
X12988
Y03081
X13088
X13108Y03161
X13188
Y03081
X13028Y03161
X12948
X12878Y03166
X12813Y03181
X12753Y03206
X12698Y03231
X12628Y03241
Y03181
Y03116
Y03046
Y02981
X12563
X12498
X12438
X12378
Y03181
X12438
X12498
Y03241
X12438
X12378
X12308Y03211
X12113Y03136
X12063Y03086
Y03396
X12278Y03511
X12323Y03511
X12393Y03546
X12403Y03486
X12378Y03441
X12438
X12498
X12628
X12698Y03436
X12763Y03421
X12823Y03396
X12878Y03371
X12948Y03361
X13028
X13108
X13188
Y03441
X13088
X12988
Y03791
X13088
X13108Y03871
X13188
Y03791
X13028Y03871
X12948
X12878Y03876
X12813Y03891
X12753Y03916
X12698Y03941
X12628Y03951
Y03891
Y03826
Y03756
Y03691
X12563
X12498
X12438
X12378
Y03891
X12438
X12498
Y03951
X12438
X12378
X12308Y03921
X12113Y03846
X12063Y03796
Y04106
X12378Y04151
X12438
X12498
X12628
X12698Y04146
X12763Y04131
X12823Y04106
X12878Y04081
X12948Y04071
X13028
X13108
X13188
Y04151
X13088
X12988
X12563Y03951
Y03891
X12713Y03521
X12563Y03241
Y03181
X12713Y02813
Y04231
X12393Y04256
X12403Y04196
X12323Y04221
X12278Y04221
X09813Y04264
X09738
X09687Y04256
X09384Y04256
X091Y0424
T03
X04998Y03862
X05363Y03863
X06813Y03864
X07155Y03855
X1184Y04194
T04
X0423Y0222
Y0229
Y0236
Y0243
Y025
X043
Y0243
Y0236
Y0229
Y0222
Y0257
X0423
X0416
Y025
X0409
Y0243
X0416
Y0236
X0409
Y0229
X0416
Y0222
X0409
X0402
Y0229
Y0236
Y0243
Y025
Y0257
X0409
X0395
Y025
Y0243
Y0236
Y0229
Y0222
X05024Y03543
Y03598
Y03654
Y03709
X05079
Y03654
X05134
X05189
X05244
X05299
Y03709
X05244
X05189
X05134
Y03598
X05189
X05244
X05299
Y03543
X05244
X05189
X05134
X05079
Y03598
X06866Y03591
Y03646
Y03701
X06921
Y03646
Y03591
Y03535
X06866
X06976
Y03591
Y03646
Y03701
X07031
X07087
Y03646
X07031
Y03591
X07087
Y03535
X07031
X0825Y0355
X0831
X0837
Y0361
X0843
Y0355
Y0349
X0837
X0831
X0825
Y0361
X0831
Y0367
X0837
X0843
X0849
X0855
Y0361
Y0355
Y0349
X0849
Y0355
Y0361
X0825Y0367
T05
X07716Y01585
Y01664
X07795
Y01585
X07874
Y01664
X07953
X08031
Y01585
X07953
X0811
Y01664
X08189
Y01585
X04708Y0246
X04624Y02921
X04275Y03002
X04275Y02785
X07996Y04146
X08075
T06
X03571Y02356
Y02496
T07
X06646Y02365
X06846
X01747Y02408
Y02508
Y02608
Y02708
Y02808
Y02908
Y03008
Y03108
Y03208
Y03308
X01647Y03258
Y03158
Y03058
Y02958
Y02858
Y02758
Y02658
Y02558
Y02458
Y03358
T08
X05948Y02024
Y02102
X06048
Y02024
T09
X07618Y02118
X0778Y02122
X07697Y02232
X07539
X06959Y01688
Y01588
X06859
Y01688
X06759
X06659
X06559
Y01588
X06659
X06759
X10504Y04205
X1037
T10
X08461Y02118
X08561
X08661
X08761
X08861
X08961
X09061
T11
X01719Y03414
T12
X0576Y01917
X06236
T13
X11362Y02199
X07268
X04846
X01697
Y03616
X04846
X07268
X11362
M30
