*%FSLAX23Y23*%
*%MOIN*%
G01*
D11*
X4162Y5737D02*
Y8532D01*
X15879D02*
Y5737D01*
X4162D01*
Y8532D02*
X15879D01*
D15*
X9523Y8123D02*
X9522Y7962D01*
X11800Y6932D02*
X12154D01*
Y6937D02*
X11795D01*
X11792Y6942D02*
X11800D01*
X12154D01*
Y6947D02*
X11800D01*
Y6952D02*
X12154D01*
Y6957D02*
X11800D01*
Y6962D02*
X12154D01*
Y6967D02*
X11800D01*
Y6972D02*
X12154D01*
X11761Y6977D02*
X11755D01*
X11761D02*
X11769D01*
X11792D02*
X11800D01*
X12154D01*
X11760Y6982D02*
X11753D01*
X11785D02*
X11792D01*
X12154D01*
X11753Y6987D02*
X11745D01*
X11792D02*
X12154D01*
X11753Y6992D02*
X11740D01*
X11792D02*
X12154D01*
X11753Y6997D02*
X11735D01*
X11792D02*
X12154D01*
X11753Y7002D02*
X11730D01*
X11792D02*
X12154D01*
X11753Y7007D02*
X11725D01*
X11792D02*
X12154D01*
X11753Y7012D02*
X11720D01*
X11792D02*
X12154D01*
X11753Y7017D02*
X11715D01*
X11753D02*
X11762D01*
X11783D02*
X11792D01*
X12154D01*
X11749Y7022D02*
X11710D01*
X11749D02*
X11756D01*
X11782D02*
X11788D01*
X12154D01*
X11749Y7027D02*
X11705D01*
X11788D02*
X12154D01*
X11749Y7032D02*
X11700D01*
X11788D02*
X12154D01*
X11749Y7037D02*
X11695D01*
X11788D02*
X12154D01*
X11749Y7042D02*
X11690D01*
X11788D02*
X12154D01*
X11749Y7047D02*
X11685D01*
X11788D02*
X12154D01*
X11749Y7052D02*
X11680D01*
X11788D02*
X12154D01*
X11778Y7019D02*
X11759D01*
X11763Y6979D02*
X11782D01*
Y7018D02*
X11763D01*
X11771Y6979D02*
X11790D01*
X11804Y6928D02*
X12154D01*
X12822Y6947D02*
X12841D01*
X12822Y6947D02*
X12763D01*
X12763Y7027D02*
X12743D01*
Y6947D02*
X12763D01*
Y6948D02*
X12743D01*
Y6986D02*
X12763D01*
Y6987D02*
X12743D01*
Y7026D02*
X12763D01*
X12526Y6987D02*
X12507D01*
Y7026D02*
X12526D01*
X12546Y6947D02*
X12566D01*
X12586D02*
X12605D01*
Y6987D02*
X12586D01*
Y7026D02*
X12605D01*
X12448Y7027D02*
X12428D01*
X12468Y6947D02*
X12487D01*
Y7027D02*
X12468D01*
X12497Y6933D02*
X12537D01*
X12575D02*
X12576D01*
X12615D02*
X12734D01*
X12937Y6947D02*
X12985D01*
X12985Y6947D02*
X12938D01*
X12937Y6947D02*
X12867D01*
Y6952D02*
X12860D01*
X12859Y6951D02*
X12867D01*
X12942D01*
X12851Y6947D02*
X13127D01*
X12881Y6987D02*
X12861D01*
X12841Y6986D02*
X12822D01*
X12901Y6987D02*
X12920D01*
X12940D02*
X12959D01*
X13019D02*
X13038D01*
X12999D02*
X12979D01*
X13058D02*
X13078D01*
X13137Y6986D02*
X13156D01*
X13117Y6987D02*
X13098D01*
X13127Y7017D02*
X13170D01*
X12852D02*
X12812D01*
X13127Y7012D02*
X13170D01*
X12852D02*
X12812D01*
X13127Y7007D02*
X13170D01*
X12852D02*
X12812D01*
X13127Y7002D02*
X13170D01*
X12852D02*
X12812D01*
X13127Y6997D02*
X13170D01*
X12852D02*
X12812D01*
X13127Y6992D02*
X13170D01*
X12852D02*
X12812D01*
Y6987D02*
X13166D01*
X13127Y6982D02*
X12851D01*
Y6977D02*
X13127D01*
Y6972D02*
X12851D01*
Y6967D02*
X13127D01*
Y6962D02*
X12851D01*
Y6957D02*
X13127D01*
Y6952D02*
X12851D01*
X12818Y6983D02*
X12812D01*
X12772D01*
X12766D01*
X12841Y6948D02*
X12843D01*
X12841D02*
X12822D01*
X12812Y6982D02*
X12772D01*
Y6977D02*
X12812D01*
Y6972D02*
X12772D01*
Y6967D02*
X12812D01*
Y6962D02*
X12772D01*
Y6957D02*
X12812D01*
Y6952D02*
X12772D01*
X12765Y6983D02*
X12808D01*
Y7017D02*
X12772D01*
Y7012D02*
X12808D01*
Y7007D02*
X12772D01*
Y7002D02*
X12808D01*
Y6997D02*
X12772D01*
Y6992D02*
X12808D01*
Y6987D02*
X12765D01*
X12861Y7027D02*
X12881D01*
Y7026D02*
X12861D01*
X12940Y7027D02*
X12959D01*
X12920Y7026D02*
X12901D01*
X12940D02*
X12959D01*
X13019D02*
X13038D01*
X12999D02*
X12979D01*
Y7027D02*
X12999D01*
X13019D02*
X13038D01*
X13058Y7026D02*
X13078D01*
X12920Y7027D02*
X12901D01*
X13058D02*
X13078D01*
X13098D02*
X13117D01*
Y7026D02*
X13098D01*
X13127Y7052D02*
X13170D01*
X12852D02*
X12812D01*
X13127Y7047D02*
X13170D01*
X12852D02*
X12812D01*
X13127Y7042D02*
X13170D01*
X12852D02*
X12812D01*
X13127Y7037D02*
X13170D01*
X12852D02*
X12812D01*
X13127Y7032D02*
X13170D01*
X12852D02*
X12812D01*
X13117Y7027D02*
X13170D01*
X13097D02*
X13078D01*
X13058D02*
X13039D01*
X13018D02*
X12999D01*
X12979D02*
X12960D01*
X12940D02*
X12920D01*
X12900D02*
X12881D01*
X12861D02*
X12812D01*
X13127Y7022D02*
X13170D01*
X12852D02*
X12812D01*
X12808Y7052D02*
X12772D01*
Y7047D02*
X12808D01*
Y7042D02*
X12772D01*
Y7037D02*
X12808D01*
Y7032D02*
X12772D01*
X12765Y7027D02*
X12808D01*
Y7022D02*
X12772D01*
X11745Y7057D02*
X11675D01*
X11745D02*
X11752D01*
X11784D02*
X12154D01*
X11745Y7062D02*
X11670D01*
X11784D02*
X12154D01*
X11745Y7067D02*
X11665D01*
X11784D02*
X12154D01*
X11745Y7072D02*
X11660D01*
X11784D02*
X12154D01*
X11745Y7077D02*
X11655D01*
X11784D02*
X12154D01*
X11745Y7082D02*
X11650D01*
X11784D02*
X12154D01*
X11745Y7087D02*
X11645D01*
X11784D02*
X12151D01*
X11745Y7092D02*
X11640D01*
X11745D02*
X11754D01*
X11775D02*
X11784D01*
X12146D01*
X12141Y7097D02*
X11635D01*
X11630Y7102D02*
X12136D01*
X12131Y7107D02*
X11625D01*
X11620Y7112D02*
X12126D01*
X12121Y7117D02*
X11615D01*
X11610Y7122D02*
X12116D01*
X12111Y7127D02*
X11605D01*
X11600Y7132D02*
X12106D01*
X12101Y7137D02*
X11595D01*
X11590Y7142D02*
X12096D01*
X12091Y7147D02*
X11585D01*
X11580Y7152D02*
X12086D01*
X11903Y7157D02*
X11575D01*
X11942D02*
X12081D01*
X11903Y7162D02*
X11570D01*
X11942D02*
X12076D01*
X11903Y7167D02*
X11565D01*
X11942D02*
X12071D01*
X11903Y7172D02*
X11560D01*
X11942D02*
X12066D01*
X11903Y7177D02*
X11555D01*
X11942D02*
X12061D01*
X11903Y7182D02*
X11550D01*
X11942D02*
X12056D01*
X11903Y7187D02*
X11545D01*
X11942D02*
X12051D01*
X12046Y7192D02*
X11540D01*
X11535Y7197D02*
X12041D01*
X12036Y7202D02*
X11530D01*
X11525Y7207D02*
X12031D01*
X12026Y7212D02*
X11520D01*
X11515Y7217D02*
X12021D01*
X12016Y7222D02*
X11510D01*
X11505Y7227D02*
X12011D01*
X12006Y7232D02*
X11500D01*
X11495Y7237D02*
X12001D01*
X11996Y7242D02*
X11490D01*
X11485Y7247D02*
X11991D01*
X11932Y7153D02*
X11913D01*
Y7191D02*
X11932D01*
X11778Y7057D02*
X11778D01*
X11756Y7054D02*
X11755D01*
Y7093D02*
X11774D01*
X12743Y7065D02*
X12763D01*
Y7066D02*
X12743D01*
X12448Y7065D02*
X12428D01*
X12468D02*
X12487D01*
X12861Y7066D02*
X12881D01*
Y7065D02*
X12861D01*
X12901Y7066D02*
X12920D01*
X12940Y7065D02*
X12959D01*
X12979D02*
X12999D01*
Y7066D02*
X12979D01*
X13019Y7065D02*
X13038D01*
X12959Y7066D02*
X12940D01*
X12920Y7065D02*
X12901D01*
X13058Y7066D02*
X13078D01*
Y7065D02*
X13058D01*
X13038Y7066D02*
X13019D01*
X13098D02*
X13117D01*
Y7065D02*
X13098D01*
X13127Y7067D02*
X13170D01*
X13127D02*
X13118D01*
X13097D02*
X13088D01*
X13087D02*
X13079D01*
X13057D02*
X13049D01*
X13048D02*
X13039D01*
X13018D02*
X13009D01*
X13008D02*
X13000D01*
X12978D02*
X12970D01*
X12969D02*
X12960D01*
X12939D02*
X12930D01*
X12930D02*
X12921D01*
X12900D02*
X12891D01*
X12890D02*
X12882D01*
X12860D02*
X12852D01*
X12812D01*
X13127Y7062D02*
X13170D01*
X13127D02*
X13120D01*
X13094D02*
X13088D01*
X13087D02*
X13081D01*
X13055D02*
X13049D01*
X13048D02*
X13041D01*
X13016D02*
X13009D01*
X13008D02*
X13002D01*
X12976D02*
X12970D01*
X12969D02*
X12963D01*
X12937D02*
X12930D01*
X12930D02*
X12923D01*
X12898D02*
X12891D01*
X12890D02*
X12884D01*
X12858D02*
X12852D01*
X12812D01*
X13127Y7057D02*
X13170D01*
X12852D02*
X12812D01*
X12808Y7067D02*
X12772D01*
X12765D01*
X12772Y7062D02*
X12808D01*
X12772D02*
X12766D01*
X12772Y7057D02*
X12808D01*
X12422Y7184D02*
X12410D01*
X12743Y7145D02*
X12763D01*
X12723Y7105D02*
X12711D01*
X12743Y7105D02*
X12763D01*
X12679Y7073D02*
X12669D01*
X12679D02*
X12686D01*
X12730Y7149D02*
X12734D01*
X12739D01*
X12772Y7087D02*
X12808D01*
X12410Y7187D02*
X12368D01*
X12363Y7192D02*
X12410D01*
Y7197D02*
X12358D01*
X12353Y7202D02*
X12410D01*
Y7207D02*
X12348D01*
X12343Y7212D02*
X12410D01*
Y7184D02*
X12371D01*
X12415Y7187D02*
X12425D01*
X12451D02*
X12465D01*
X12490D02*
X12543D01*
X12569D02*
X12583D01*
X12608D02*
X12622D01*
X12647D02*
X12662D01*
X12687D02*
X12697D01*
X12419Y7192D02*
X12410D01*
X12497D02*
X12537D01*
X12693D02*
X12702D01*
X12419Y7197D02*
X12405D01*
X12497D02*
X12537D01*
X12693D02*
X12707D01*
X12419Y7202D02*
X12400D01*
X12497D02*
X12537D01*
X12693D02*
X12712D01*
X12419Y7207D02*
X12395D01*
X12497D02*
X12537D01*
X12693D02*
X12717D01*
X12419Y7212D02*
X12390D01*
X12497D02*
X12537D01*
X12693D02*
X12722D01*
X12684Y7184D02*
X12665D01*
X12644D02*
X12625D01*
X12605D02*
X12586D01*
X12566D02*
X12546D01*
X12487Y7184D02*
X12468D01*
X12448Y7184D02*
X12428D01*
X12418Y7184D02*
X12694D01*
X12861Y7184D02*
X12881D01*
Y7183D02*
X12861D01*
Y7145D02*
X12881D01*
Y7105D02*
X12861D01*
X12901D02*
X12920D01*
Y7183D02*
X12901D01*
Y7145D02*
X12920D01*
X12940Y7144D02*
X12959D01*
Y7105D02*
X12940D01*
X12920Y7144D02*
X12901D01*
Y7105D02*
X12920D01*
X12979Y7105D02*
X12999D01*
X12959D02*
X12940D01*
X13058Y7184D02*
X13078D01*
X13038D02*
X13019D01*
X13058Y7183D02*
X13078D01*
Y7145D02*
X13058D01*
Y7144D02*
X13078D01*
Y7105D02*
X13058D01*
X13038Y7183D02*
X13019D01*
Y7145D02*
X13038D01*
X12999Y7184D02*
X12979D01*
X12959D02*
X12940D01*
X12979Y7183D02*
X12999D01*
Y7145D02*
X12979D01*
X13019Y7144D02*
X13038D01*
Y7105D02*
X13019D01*
X13058Y7105D02*
X13078D01*
X13038D02*
X13019D01*
X12999Y7144D02*
X12979D01*
Y7105D02*
X12999D01*
X12959Y7183D02*
X12940D01*
Y7145D02*
X12959D01*
X12920Y7184D02*
X12901D01*
X13098Y7183D02*
X13117D01*
Y7145D02*
X13098D01*
Y7105D02*
X13117D01*
X13087Y7212D02*
X13170D01*
X12852D02*
X12812D01*
X13087Y7207D02*
X13170D01*
X12852D02*
X12812D01*
X13087Y7202D02*
X13170D01*
X12852D02*
X12812D01*
X13087Y7197D02*
X13170D01*
X12852D02*
X12812D01*
X13087Y7192D02*
X13170D01*
X12852D02*
X12812D01*
X13087Y7187D02*
X13170D01*
X13087D02*
X13080D01*
X13055D02*
X13049D01*
X13048D02*
X13041D01*
X13016D02*
X13009D01*
X13008D02*
X13002D01*
X12977D02*
X12970D01*
X12969D02*
X12962D01*
X12937D02*
X12930D01*
X12930D02*
X12923D01*
X12898D02*
X12891D01*
X12890D02*
X12884D01*
X12858D02*
X12852D01*
X12812D01*
X13127Y7182D02*
X13170D01*
X13127D02*
X13118D01*
X13096D02*
X13088D01*
X13087D02*
X13079D01*
X13057D02*
X13049D01*
X13048D02*
X13039D01*
X13018D02*
X13009D01*
X13008D02*
X13000D01*
X12978D02*
X12970D01*
X12969D02*
X12961D01*
X12939D02*
X12930D01*
X12930D02*
X12921D01*
X12899D02*
X12891D01*
X12890D02*
X12882D01*
X12860D02*
X12852D01*
X12812D01*
X13127Y7177D02*
X13170D01*
X12852D02*
X12812D01*
X13127Y7172D02*
X13170D01*
X12852D02*
X12812D01*
X13127Y7167D02*
X13170D01*
X12852D02*
X12812D01*
X13127Y7162D02*
X13170D01*
X12852D02*
X12812D01*
X13127Y7157D02*
X13170D01*
X12852D02*
X12812D01*
X13127Y7152D02*
X13170D01*
X12852D02*
X12812D01*
X13127Y7147D02*
X13170D01*
X13127D02*
X13119D01*
X13095D02*
X13088D01*
X13087D02*
X13080D01*
X13056D02*
X13049D01*
X13048D02*
X13040D01*
X13017D02*
X13009D01*
X13008D02*
X13001D01*
X12977D02*
X12970D01*
X12969D02*
X12962D01*
X12938D02*
X12930D01*
X12930D02*
X12922D01*
X12898D02*
X12891D01*
X12890D02*
X12883D01*
X12859D02*
X12852D01*
X12812D01*
X13087Y7142D02*
X13170D01*
X13087D02*
X13079D01*
X13056D02*
X13049D01*
X13048D02*
X13040D01*
X13017D02*
X13009D01*
X13008D02*
X13001D01*
X12978D02*
X12970D01*
X12969D02*
X12961D01*
X12938D02*
X12930D01*
X12930D02*
X12922D01*
X12899D02*
X12891D01*
X12812D01*
X13087Y7137D02*
X13170D01*
X12891D02*
X12812D01*
X13087Y7132D02*
X13170D01*
X12891D02*
X12812D01*
X13087Y7127D02*
X13170D01*
X12891D02*
X12812D01*
X13087Y7122D02*
X13170D01*
X12891D02*
X12812D01*
X13087Y7117D02*
X13170D01*
X12891D02*
X12812D01*
X13087Y7112D02*
X13170D01*
X12891D02*
X12812D01*
X13087Y7107D02*
X13170D01*
X13087D02*
X13079D01*
X13057D02*
X13049D01*
X13048D02*
X13040D01*
X13017D02*
X13009D01*
X13008D02*
X13000D01*
X12978D02*
X12970D01*
X12969D02*
X12961D01*
X12938D02*
X12930D01*
X12930D02*
X12922D01*
X12899D02*
X12891D01*
X12812D01*
X13127Y7102D02*
X13170D01*
X13127D02*
X13119D01*
X13095D02*
X13088D01*
X13087D02*
X13080D01*
X13056D02*
X13049D01*
X13048D02*
X13041D01*
X13016D02*
X13009D01*
X13008D02*
X13001D01*
X12977D02*
X12970D01*
X12969D02*
X12962D01*
X12938D02*
X12930D01*
X12930D02*
X12923D01*
X12898D02*
X12891D01*
X12890D02*
X12883D01*
X12859D02*
X12852D01*
X12812D01*
X13127Y7097D02*
X13170D01*
X12852D02*
X12812D01*
X13127Y7092D02*
X13170D01*
X12852D02*
X12812D01*
X13127Y7087D02*
X13170D01*
X12852D02*
X12812D01*
X13127Y7082D02*
X13170D01*
X12852D02*
X12812D01*
X13127Y7077D02*
X13170D01*
X12852D02*
X12812D01*
X13127Y7072D02*
X13170D01*
X12852D02*
X12812D01*
X12808Y7212D02*
X12772D01*
Y7207D02*
X12808D01*
Y7202D02*
X12772D01*
Y7197D02*
X12808D01*
Y7192D02*
X12772D01*
Y7187D02*
X12808D01*
X12772D02*
X12765D01*
X12772Y7182D02*
X12808D01*
X12772D02*
X12765D01*
X12772Y7177D02*
X12808D01*
Y7172D02*
X12772D01*
Y7167D02*
X12808D01*
Y7162D02*
X12772D01*
Y7157D02*
X12808D01*
Y7152D02*
X12772D01*
Y7147D02*
X12808D01*
X12772D02*
X12765D01*
X12765Y7142D02*
X12808D01*
Y7137D02*
X12765D01*
Y7132D02*
X12808D01*
Y7127D02*
X12765D01*
Y7122D02*
X12808D01*
Y7117D02*
X12765D01*
Y7112D02*
X12808D01*
Y7107D02*
X12765D01*
X12772Y7102D02*
X12808D01*
X12772D02*
X12765D01*
X12772Y7097D02*
X12808D01*
Y7092D02*
X12772D01*
Y7082D02*
X12808D01*
Y7077D02*
X12772D01*
Y7072D02*
X12808D01*
X12410Y7217D02*
X12338D01*
X12336Y7222D02*
X12410D01*
Y7227D02*
X12336D01*
Y7232D02*
X12410D01*
Y7237D02*
X12336D01*
Y7242D02*
X12410D01*
Y7247D02*
X12336D01*
X12385Y7217D02*
X12419D01*
X12497D02*
X12537D01*
X12693D02*
X12727D01*
X12428Y7222D02*
X12380D01*
X12448D02*
X12467D01*
X12488D02*
X12546D01*
X12566D02*
X12585D01*
X12606D02*
X12624D01*
X12645D02*
X12664D01*
X12685D02*
X12732D01*
X12497Y7227D02*
X12379D01*
X12497D02*
X12503D01*
X12530D02*
X12536D01*
X12537D02*
X12543D01*
X12569D02*
X12575D01*
X12576D02*
X12582D01*
X12609D02*
X12615D01*
X12616D02*
X12622D01*
X12648D02*
X12654D01*
X12733D01*
X12497Y7232D02*
X12379D01*
X12654D02*
X12733D01*
X12497Y7237D02*
X12379D01*
X12654D02*
X12733D01*
X12497Y7242D02*
X12379D01*
X12654D02*
X12733D01*
X12497Y7247D02*
X12379D01*
X12654D02*
X12733D01*
X12644Y7223D02*
X12625D01*
X12605D02*
X12586D01*
X12665Y7223D02*
X12684D01*
X12644D02*
X12625D01*
X12605D02*
X12586D01*
X12566D02*
X12546D01*
X12526Y7223D02*
X12507D01*
X12546Y7223D02*
X12566D01*
X12487Y7223D02*
X12468D01*
X12448Y7223D02*
X12428D01*
X12861D02*
X12881D01*
Y7223D02*
X12861D01*
X13019D02*
X13038D01*
X13058Y7223D02*
X13078D01*
X12999Y7223D02*
X12979D01*
X13019Y7223D02*
X13038D01*
X12999D02*
X12979D01*
X12959Y7223D02*
X12940D01*
Y7223D02*
X12959D01*
X12920D02*
X12901D01*
X13098Y7223D02*
X13117D01*
X13127Y7247D02*
X13170D01*
X13088D02*
X13048D01*
X12930D02*
X12890D01*
X12852D02*
X12812D01*
X13127Y7242D02*
X13170D01*
X13088D02*
X13048D01*
X12930D02*
X12890D01*
X12852D02*
X12812D01*
X13127Y7237D02*
X13170D01*
X13088D02*
X13048D01*
X12930D02*
X12890D01*
X12852D02*
X12812D01*
X13127Y7232D02*
X13170D01*
X13088D02*
X13048D01*
X12930D02*
X12890D01*
X12852D02*
X12812D01*
X13127Y7227D02*
X13170D01*
X13127D02*
X13120D01*
X13094D02*
X13088D01*
X13048D01*
X13042D01*
X13015D02*
X13009D01*
X13008D02*
X13002D01*
X12976D02*
X12970D01*
X12969D02*
X12963D01*
X12937D02*
X12930D01*
X12890D01*
X12884D01*
X12858D02*
X12852D01*
X12812D01*
X13078Y7222D02*
X13170D01*
X13058D02*
X13039D01*
X13018D02*
X12999D01*
X12979D02*
X12960D01*
X12939D02*
X12921D01*
X12900D02*
X12881D01*
X12861D02*
X12812D01*
X13087Y7217D02*
X13170D01*
X12852D02*
X12812D01*
X12808Y7247D02*
X12785D01*
X12780Y7242D02*
X12808D01*
Y7237D02*
X12775D01*
X12770Y7232D02*
X12808D01*
Y7227D02*
X12765D01*
Y7222D02*
X12808D01*
Y7217D02*
X12772D01*
X11986Y7252D02*
X11480D01*
X11475Y7257D02*
X11981D01*
X11976Y7262D02*
X11470D01*
X11465Y7267D02*
X11971D01*
X11742Y7272D02*
X11460D01*
X11742D02*
X11748D01*
X11774D02*
X11780D01*
X11966D01*
X11742Y7277D02*
X11455D01*
X11780D02*
X11961D01*
X11742Y7282D02*
X11450D01*
X11780D02*
X11956D01*
X11742Y7287D02*
X11445D01*
X11780D02*
X11951D01*
X11742Y7292D02*
X11440D01*
X11780D02*
X11946D01*
X11541Y7297D02*
X11435D01*
X11541D02*
X11548D01*
X11572D02*
X11579D01*
X11742D01*
X11780D02*
X11941D01*
X11541Y7302D02*
X11182D01*
X11579D02*
X11742D01*
X11780D02*
X11936D01*
X11143Y7307D02*
X11048D01*
X11182D02*
X11541D01*
X11579D02*
X11742D01*
X11780D02*
X11931D01*
X11143Y7312D02*
X11048D01*
X11182D02*
X11541D01*
X11579D02*
X11742D01*
X11780D02*
X11926D01*
X11009Y7317D02*
X9221D01*
X11048D02*
X11143D01*
X11182D02*
X11541D01*
X11579D02*
X11742D01*
X11780D02*
X11921D01*
X11009Y7322D02*
X9221D01*
X11048D02*
X11541D01*
X11579D02*
X11742D01*
X11780D02*
X11916D01*
X11009Y7327D02*
X9221D01*
X11048D02*
X11541D01*
X11579D02*
X11655D01*
X11663D01*
X11685D02*
X11693D01*
X11742D01*
X11780D02*
X11911D01*
X11009Y7332D02*
X9221D01*
X11048D02*
X11541D01*
X11549D01*
X11571D02*
X11579D01*
X11655D01*
X11693D02*
X11742D01*
X11780D02*
X11906D01*
X11009Y7337D02*
X9221D01*
X11048D02*
X11218D01*
X11224D01*
X11250D02*
X11256D01*
X11655D01*
X11693D02*
X11742D01*
X11750D01*
X11772D02*
X11780D01*
X11901D01*
X11218Y7342D02*
X9221D01*
X11256D02*
X11655D01*
X11693D02*
X11742D01*
X11780D02*
X11896D01*
X11218Y7347D02*
X9221D01*
X11256D02*
X11655D01*
X11693D02*
X11742D01*
X11780D02*
X11891D01*
X11218Y7352D02*
X9221D01*
X11256D02*
X11655D01*
X11693D02*
X11742D01*
X11780D02*
X11886D01*
X11218Y7357D02*
X9221D01*
X11256D02*
X11655D01*
X11693D02*
X11742D01*
X11780D02*
X11881D01*
X11218Y7362D02*
X9221D01*
X11256D02*
X11655D01*
X11662D01*
X11686D02*
X11693D01*
X11742D01*
X11780D02*
X11876D01*
X11116Y7367D02*
X9221D01*
X11116D02*
X11123D01*
X11174D02*
X11182D01*
X11218D01*
X11256D02*
X11742D01*
X11780D02*
X11871D01*
X11116Y7372D02*
X9221D01*
X11182D02*
X11227D01*
X11247D02*
X11742D01*
X11749D01*
X11773D02*
X11780D01*
X11866D01*
X11116Y7377D02*
X9221D01*
X11182D02*
X11432D01*
X11452D02*
X11861D01*
X11116Y7382D02*
X9221D01*
X11182D02*
X11423D01*
X11461D02*
X11856D01*
X11116Y7387D02*
X9221D01*
X11182D02*
X11423D01*
X11461D02*
X11851D01*
X11116Y7392D02*
X9221D01*
X11182D02*
X11423D01*
X11461D02*
X11846D01*
X11116Y7397D02*
X9221D01*
X11182D02*
X11423D01*
X11461D02*
X11841D01*
X11116Y7402D02*
X9221D01*
X11116D02*
X11123D01*
X11174D02*
X11182D01*
X11423D01*
X11461D02*
X11836D01*
X11423Y7407D02*
X9221D01*
X11461D02*
X11831D01*
X11423Y7412D02*
X9221D01*
X11423D02*
X11429D01*
X11455D02*
X11461D01*
X11826D01*
X11821Y7417D02*
X9221D01*
Y7422D02*
X11816D01*
X11811Y7427D02*
X9221D01*
Y7432D02*
X11806D01*
X11801Y7437D02*
X9221D01*
Y7442D02*
X11796D01*
X11771Y7374D02*
X11751D01*
Y7269D02*
X11771D01*
X11570Y7294D02*
X11550D01*
Y7333D02*
X11570D01*
X11665Y7326D02*
X11684D01*
Y7364D02*
X11665D01*
X11452Y7377D02*
X11432D01*
Y7416D02*
X11452D01*
X11153Y7365D02*
X11150D01*
X11153D02*
X11172D01*
X11153Y7404D02*
X11150D01*
X11153D02*
X11172D01*
X11228Y7334D02*
X11247D01*
Y7372D02*
X11228D01*
X11172Y7321D02*
X11153D01*
X11125Y7365D02*
X11122D01*
X11125D02*
X11144D01*
X11125Y7404D02*
X11122D01*
X11125D02*
X11144D01*
X11038Y7302D02*
X11019D01*
Y7341D02*
X11038D01*
X12336Y7252D02*
X12410D01*
Y7257D02*
X12336D01*
Y7262D02*
X12410D01*
X12379Y7252D02*
X12497D01*
X12654D02*
X12733D01*
X12497Y7257D02*
X12379D01*
X12654D02*
X12733D01*
X12507Y7262D02*
X12379D01*
X12526D02*
X12546D01*
X12566D02*
X12586D01*
X12605D02*
X12625D01*
X12645D02*
X12733D01*
X12644Y7262D02*
X12625D01*
X12605D02*
X12586D01*
X12586Y7263D02*
X12605D01*
X12566D02*
X12546D01*
X12526D02*
X12507D01*
Y7262D02*
X12526D01*
X12546Y7262D02*
X12566D01*
X12625Y7263D02*
X12644D01*
X12448Y7263D02*
X12428D01*
X12822Y7263D02*
X12841D01*
X12861Y7262D02*
X12881D01*
X13019D02*
X13038D01*
X12999D02*
X12979D01*
X12959D02*
X12940D01*
X13137Y7263D02*
X13156D01*
X13117Y7262D02*
X13098D01*
X13117Y7262D02*
X13170D01*
X13098D02*
X13038D01*
X13019D02*
X12999D01*
X12979D02*
X12959D01*
X12940D02*
X12881D01*
X12861D02*
X12812D01*
X13127Y7257D02*
X13170D01*
X13088D02*
X13048D01*
X12930D02*
X12890D01*
X12852D02*
X12812D01*
X13127Y7252D02*
X13170D01*
X13088D02*
X13048D01*
X12930D02*
X12890D01*
X12852D02*
X12812D01*
X12808Y7262D02*
X12800D01*
X12795Y7257D02*
X12808D01*
Y7252D02*
X12790D01*
X12406Y7362D02*
X12397D01*
X12399Y7397D02*
X12406D01*
X12901Y7420D02*
X12920D01*
Y7420D02*
X12901D01*
X12410Y7267D02*
X12336D01*
Y7272D02*
X12410D01*
Y7277D02*
X12336D01*
Y7282D02*
X12410D01*
Y7287D02*
X12336D01*
Y7292D02*
X12410D01*
Y7297D02*
X12336D01*
Y7302D02*
X12410D01*
Y7307D02*
X12336D01*
Y7312D02*
X12410D01*
Y7317D02*
X12336D01*
Y7322D02*
X12410D01*
Y7327D02*
X12336D01*
Y7332D02*
X12410D01*
Y7337D02*
X12336D01*
Y7342D02*
X12410D01*
Y7347D02*
X12336D01*
Y7352D02*
X12410D01*
Y7357D02*
X12336D01*
Y7362D02*
X12367D01*
X12376D01*
X12367Y7367D02*
X12336D01*
Y7372D02*
X12367D01*
Y7377D02*
X12336D01*
Y7382D02*
X12367D01*
Y7387D02*
X12336D01*
Y7392D02*
X12367D01*
Y7397D02*
X12336D01*
X12367D02*
X12374D01*
X12410Y7402D02*
X12336D01*
Y7407D02*
X12410D01*
X12396Y7361D02*
X12377D01*
Y7400D02*
X12396D01*
X12379Y7267D02*
X12419D01*
X12457D02*
X12497D01*
X12654D02*
X12733D01*
X12419Y7272D02*
X12379D01*
X12457D02*
X12497D01*
X12654D02*
X12733D01*
X12419Y7277D02*
X12379D01*
X12457D02*
X12497D01*
X12654D02*
X12733D01*
X12419Y7282D02*
X12379D01*
X12457D02*
X12497D01*
X12654D02*
X12733D01*
X12419Y7287D02*
X12379D01*
X12457D02*
X12497D01*
X12654D02*
X12733D01*
X12419Y7292D02*
X12379D01*
X12457D02*
X12497D01*
X12654D02*
X12733D01*
X12419Y7297D02*
X12379D01*
X12457D02*
X12497D01*
X12654D02*
X12733D01*
Y7302D02*
X12379D01*
Y7307D02*
X12458D01*
X12615D02*
X12733D01*
X12458Y7312D02*
X12379D01*
X12615D02*
X12733D01*
X12458Y7317D02*
X12379D01*
X12615D02*
X12733D01*
X12458Y7322D02*
X12379D01*
X12615D02*
X12733D01*
X12458Y7327D02*
X12379D01*
X12615D02*
X12733D01*
X12458Y7332D02*
X12379D01*
X12615D02*
X12733D01*
X12458Y7337D02*
X12379D01*
X12615D02*
X12733D01*
X12507Y7342D02*
X12379D01*
X12527D02*
X12546D01*
X12566D02*
X12585D01*
X12606D02*
X12625D01*
X12645D02*
X12664D01*
X12684D02*
X12703D01*
X12724D02*
X12733D01*
X12497Y7347D02*
X12379D01*
Y7352D02*
X12497D01*
Y7357D02*
X12379D01*
X12406Y7362D02*
X12497D01*
Y7367D02*
X12406D01*
Y7372D02*
X12497D01*
Y7377D02*
X12406D01*
X12497D02*
X12504D01*
X12530D02*
X12536D01*
X12537D02*
X12543D01*
X12569D02*
X12575D01*
X12576D02*
X12583D01*
X12608D02*
X12615D01*
X12616D02*
X12622D01*
X12648D02*
X12654D01*
X12655D02*
X12661D01*
X12687D02*
X12693D01*
X12694D02*
X12701D01*
X12726D02*
X12733D01*
X12458Y7382D02*
X12406D01*
X12458D02*
X12467D01*
X12488D02*
X12497D01*
X12497D02*
X12506D01*
X12527D02*
X12536D01*
X12537D02*
X12545D01*
X12567D02*
X12575D01*
X12576D02*
X12585D01*
X12606D02*
X12615D01*
X12616D02*
X12624D01*
X12646D02*
X12654D01*
X12694D01*
X12703D01*
X12724D02*
X12733D01*
X12458Y7387D02*
X12406D01*
X12654D02*
X12694D01*
X12733D02*
X12740D01*
X12458Y7392D02*
X12406D01*
X12654D02*
X12694D01*
X12733D02*
X12745D01*
X12458Y7397D02*
X12406D01*
X12654D02*
X12694D01*
X12733D02*
X12750D01*
X12458Y7402D02*
X12379D01*
X12654D02*
X12694D01*
X12733D02*
X12755D01*
X12458Y7407D02*
X12379D01*
X12654D02*
X12694D01*
X12733D02*
X12760D01*
X12723Y7342D02*
X12704D01*
Y7380D02*
X12723D01*
Y7381D02*
X12704D01*
X12684Y7342D02*
X12665D01*
Y7380D02*
X12684D01*
X12605Y7301D02*
X12586D01*
X12566D02*
X12546D01*
X12526D02*
X12507D01*
X12586Y7302D02*
X12605D01*
Y7341D02*
X12586D01*
X12566Y7302D02*
X12546D01*
Y7341D02*
X12566D01*
X12526Y7302D02*
X12507D01*
Y7341D02*
X12526D01*
X12625Y7342D02*
X12644D01*
Y7380D02*
X12625D01*
X12605Y7342D02*
X12586D01*
Y7380D02*
X12605D01*
X12566Y7342D02*
X12546D01*
Y7380D02*
X12566D01*
X12625Y7381D02*
X12644D01*
X12605D02*
X12586D01*
X12566Y7381D02*
X12546D01*
X12625Y7301D02*
X12644D01*
X12526Y7381D02*
X12507D01*
X12507Y7342D02*
X12526D01*
Y7380D02*
X12507D01*
X12487Y7302D02*
X12468D01*
Y7341D02*
X12487D01*
Y7381D02*
X12468D01*
X12396Y7361D02*
X12379D01*
Y7400D02*
X12396D01*
X12428Y7301D02*
X12448D01*
X12851Y7302D02*
X13131D01*
X13127Y7297D02*
X12851D01*
Y7292D02*
X13127D01*
Y7287D02*
X12851D01*
Y7282D02*
X13127D01*
Y7277D02*
X12851D01*
Y7272D02*
X13127D01*
Y7267D02*
X12851D01*
X12808Y7266D02*
X12804D01*
X12410Y7412D02*
X12336D01*
Y7417D02*
X12410D01*
Y7422D02*
X12336D01*
Y7427D02*
X12410D01*
Y7432D02*
X12336D01*
Y7437D02*
X12410D01*
Y7442D02*
X12336D01*
X12379Y7412D02*
X12458D01*
X12654D02*
X12694D01*
X12733D02*
X12765D01*
X12458Y7417D02*
X12379D01*
X12458D02*
X12465D01*
X12490D02*
X12497D01*
X12497D02*
X12505D01*
X12529D02*
X12536D01*
X12537D02*
X12544D01*
X12568D02*
X12575D01*
X12576D02*
X12583D01*
X12608D02*
X12615D01*
X12616D02*
X12623D01*
X12647D02*
X12654D01*
X12694D01*
X12701D01*
X12726D02*
X12733D01*
X12891D01*
X12898D01*
X12923D02*
X12930D01*
X12497Y7422D02*
X12379D01*
X12497D02*
X12505D01*
X12528D02*
X12536D01*
X12537D02*
X12545D01*
X12567D02*
X12575D01*
X12576D02*
X12584D01*
X12607D02*
X12615D01*
X12655D01*
X12663D01*
X12686D02*
X12693D01*
X12694D02*
X12702D01*
X12725D02*
X12733D01*
X12891D01*
X12899D01*
X12922D02*
X12930D01*
X12497Y7427D02*
X12379D01*
X12615D02*
X12655D01*
X12733D02*
X12891D01*
X12497Y7432D02*
X12379D01*
X12615D02*
X12655D01*
X12733D02*
X12891D01*
X12497Y7437D02*
X12379D01*
X12615D02*
X12655D01*
X12733D02*
X12891D01*
X12497Y7442D02*
X12379D01*
X12615D02*
X12655D01*
X12733D02*
X12891D01*
X12723Y7420D02*
X12704D01*
Y7420D02*
X12723D01*
X12605D02*
X12586D01*
X12625Y7420D02*
X12644D01*
X12605D02*
X12586D01*
X12566Y7420D02*
X12546D01*
X12546Y7420D02*
X12566D01*
X12526D02*
X12507D01*
X12665D02*
X12684D01*
X12526Y7420D02*
X12507D01*
X12487Y7420D02*
X12468D01*
X12769Y7416D02*
X12891D01*
X12897D01*
X12924D02*
X12930D01*
X12930D01*
X11547Y7447D02*
X9221D01*
X11547D02*
X11555D01*
X11577D02*
X11585D01*
X11791D01*
X11289Y7452D02*
X9221D01*
X11327D02*
X11547D01*
X11585D02*
X11786D01*
X11289Y7457D02*
X9221D01*
X11327D02*
X11547D01*
X11585D02*
X11781D01*
X11289Y7462D02*
X9221D01*
X11327D02*
X11547D01*
X11585D02*
X11776D01*
X11289Y7467D02*
X9221D01*
X11327D02*
X11547D01*
X11585D02*
X11771D01*
X11289Y7472D02*
X9221D01*
X11327D02*
X11547D01*
X11585D02*
X11766D01*
X11289Y7477D02*
X9221D01*
X11327D02*
X11547D01*
X11585D02*
X11761D01*
X11289Y7482D02*
X9221D01*
X11327D02*
X11547D01*
X11554D01*
X11578D02*
X11585D01*
X11756D01*
X11751Y7487D02*
X9221D01*
Y7492D02*
X11746D01*
X11741Y7497D02*
X9221D01*
Y7502D02*
X11091D01*
X11098D01*
X11123D02*
X11130D01*
X11736D01*
X11091Y7507D02*
X9221D01*
X11130D02*
X11731D01*
X11091Y7512D02*
X9221D01*
X11130D02*
X11726D01*
X11091Y7517D02*
X9221D01*
X11130D02*
X11721D01*
X11091Y7522D02*
X9221D01*
X11130D02*
X11716D01*
X11091Y7527D02*
X9221D01*
X11130D02*
X11711D01*
X11091Y7532D02*
X9221D01*
X11130D02*
X11706D01*
X11091Y7537D02*
X9221D01*
X11091D02*
X11100D01*
X11121D02*
X11130D01*
X11701D01*
X11696Y7542D02*
X9221D01*
Y7547D02*
X11101D01*
X11122D02*
X11691D01*
X11092Y7552D02*
X9221D01*
X11130D02*
X11686D01*
X11092Y7557D02*
X9221D01*
X11130D02*
X11681D01*
X11092Y7562D02*
X9221D01*
X11130D02*
X11676D01*
X11092Y7567D02*
X9221D01*
X11130D02*
X11671D01*
X11092Y7572D02*
X9221D01*
X11130D02*
X11666D01*
X11092Y7577D02*
X9221D01*
X11130D02*
X11661D01*
X11092Y7582D02*
X9221D01*
X11092D02*
X11099D01*
X11124D02*
X11130D01*
X11656D01*
X11651Y7587D02*
X9221D01*
Y7592D02*
X11646D01*
X11641Y7597D02*
X9221D01*
Y7602D02*
X11636D01*
X11631Y7607D02*
X9221D01*
Y7612D02*
X11626D01*
X11621Y7617D02*
X9221D01*
Y7622D02*
X11616D01*
X11611Y7627D02*
X9221D01*
Y7632D02*
X11606D01*
X11601Y7637D02*
X9221D01*
X11556Y7446D02*
X11576D01*
Y7484D02*
X11556D01*
X11318Y7448D02*
X11298D01*
Y7486D02*
X11318D01*
X11120Y7499D02*
X11101D01*
Y7538D02*
X11120D01*
X11121Y7546D02*
X11102D01*
Y7585D02*
X11121D01*
X12336Y7447D02*
X12410D01*
Y7452D02*
X12336D01*
Y7457D02*
X12410D01*
X12379Y7447D02*
X12497D01*
X12615D02*
X12655D01*
X12733D02*
X12891D01*
X12497Y7452D02*
X12379D01*
X12615D02*
X12655D01*
X12733D02*
X12891D01*
X12497Y7457D02*
X12379D01*
X12497D02*
X12505D01*
X12528D02*
X12536D01*
X12537D02*
X12545D01*
X12568D02*
X12575D01*
X12576D02*
X12584D01*
X12607D02*
X12615D01*
X12655D01*
X12663D01*
X12686D02*
X12693D01*
X12694D02*
X12702D01*
X12725D02*
X12733D01*
X12891D01*
X12899D01*
X12922D02*
X12930D01*
X12930D02*
X12938D01*
X12961D02*
X12969D01*
X12959Y7459D02*
X12940D01*
X12920Y7617D02*
X12901D01*
X12940D02*
X12959D01*
X12920Y7578D02*
X12901D01*
Y7616D02*
X12920D01*
X12940Y7578D02*
X12959D01*
Y7616D02*
X12940D01*
X12901Y7538D02*
X12901D01*
X12901D02*
X12920D01*
X12920D01*
X12901Y7577D02*
X12901D01*
X12901D02*
X12920D01*
X12920D01*
X12940Y7499D02*
X12940D01*
X12959D01*
X12959D01*
X12940Y7538D02*
X12940D01*
X12940D02*
X12959D01*
X12959D01*
X12920Y7460D02*
X12901D01*
Y7498D02*
X12920D01*
Y7459D02*
X12901D01*
X12940Y7460D02*
X12959D01*
Y7498D02*
X12940D01*
X12841Y7460D02*
X12822D01*
Y7498D02*
X12841D01*
X12783Y7578D02*
X12783D01*
X12783D02*
X12802D01*
X12802D01*
X12783Y7616D02*
X12783D01*
X12783D02*
X12802D01*
X12802D01*
X12822Y7578D02*
X12822D01*
X12841D01*
X12841D01*
X12822Y7616D02*
X12822D01*
X12822D02*
X12841D01*
X12841D01*
X12861Y7578D02*
X12881D01*
Y7616D02*
X12861D01*
Y7617D02*
X12881D01*
X12723Y7460D02*
X12704D01*
Y7498D02*
X12723D01*
X12684Y7578D02*
X12665D01*
Y7616D02*
X12684D01*
Y7617D02*
X12665D01*
X12644Y7538D02*
X12625D01*
Y7577D02*
X12644D01*
Y7499D02*
X12625D01*
Y7538D02*
X12644D01*
X12625Y7578D02*
X12625D01*
X12625D02*
X12644D01*
X12644D01*
X12625Y7616D02*
X12625D01*
X12625D02*
X12644D01*
X12644D01*
X12586Y7578D02*
X12586D01*
X12586D02*
X12605D01*
X12605D01*
X12586Y7616D02*
X12586D01*
X12586D02*
X12605D01*
X12605D01*
X12566Y7617D02*
X12546D01*
Y7578D02*
X12566D01*
Y7616D02*
X12546D01*
X12526Y7617D02*
X12507D01*
X12586Y7538D02*
X12605D01*
Y7577D02*
X12586D01*
X12487Y7578D02*
X12468D01*
Y7616D02*
X12487D01*
X12410Y7462D02*
X12336D01*
Y7467D02*
X12410D01*
Y7472D02*
X12336D01*
Y7477D02*
X12410D01*
Y7482D02*
X12336D01*
Y7487D02*
X12410D01*
Y7492D02*
X12336D01*
Y7497D02*
X12410D01*
Y7502D02*
X12336D01*
Y7507D02*
X12410D01*
Y7512D02*
X12336D01*
Y7517D02*
X12410D01*
Y7522D02*
X12336D01*
Y7527D02*
X12410D01*
Y7532D02*
X12336D01*
Y7537D02*
X12410D01*
Y7542D02*
X12336D01*
Y7547D02*
X12410D01*
Y7552D02*
X12336D01*
Y7557D02*
X12410D01*
Y7562D02*
X12336D01*
Y7567D02*
X12410D01*
Y7572D02*
X12336D01*
Y7577D02*
X12410D01*
Y7582D02*
X12336D01*
Y7587D02*
X12410D01*
Y7592D02*
X12336D01*
Y7597D02*
X12410D01*
Y7602D02*
X12336D01*
X12379Y7462D02*
X12419D01*
X12426D01*
X12450D02*
X12457D01*
X12458D02*
X12465D01*
X12489D02*
X12497D01*
X12497D02*
X12505D01*
X12529D02*
X12536D01*
X12576D01*
X12583D01*
X12607D02*
X12615D01*
X12694D01*
X12702D01*
X12726D02*
X12733D01*
X12734D02*
X12741D01*
X12765D02*
X12772D01*
X12773D02*
X12780D01*
X12804D02*
X12812D01*
X12812D02*
X12820D01*
X12844D02*
X12851D01*
X12891D01*
X12898D01*
X12922D02*
X12930D01*
X12930D02*
X12938D01*
X12962D02*
X12969D01*
X12419Y7467D02*
X12379D01*
X12536D02*
X12576D01*
X12615D02*
X12694D01*
X12851D02*
X12891D01*
X12419Y7472D02*
X12379D01*
X12536D02*
X12576D01*
X12615D02*
X12694D01*
X12851D02*
X12891D01*
X12419Y7477D02*
X12379D01*
X12536D02*
X12576D01*
X12615D02*
X12694D01*
X12851D02*
X12891D01*
X12419Y7482D02*
X12379D01*
X12536D02*
X12576D01*
X12615D02*
X12694D01*
X12851D02*
X12891D01*
X12419Y7487D02*
X12379D01*
X12536D02*
X12576D01*
X12615D02*
X12694D01*
X12851D02*
X12891D01*
X12419Y7492D02*
X12379D01*
X12536D02*
X12576D01*
X12615D02*
X12694D01*
X12851D02*
X12891D01*
X12419Y7497D02*
X12379D01*
X12419D02*
X12427D01*
X12449D02*
X12457D01*
X12458D02*
X12466D01*
X12488D02*
X12497D01*
X12497D02*
X12506D01*
X12528D02*
X12536D01*
X12576D01*
X12585D01*
X12606D02*
X12615D01*
X12694D01*
X12703D01*
X12724D02*
X12733D01*
X12734D02*
X12742D01*
X12764D02*
X12772D01*
X12773D02*
X12781D01*
X12803D02*
X12812D01*
X12812D02*
X12821D01*
X12843D02*
X12851D01*
X12891D01*
X12899D01*
X12921D02*
X12930D01*
X12930D02*
X12939D01*
X12961D02*
X12969D01*
X12537Y7502D02*
X12379D01*
X12537D02*
X12543D01*
X12569D02*
X12575D01*
X12576D02*
X12583D01*
X12608D02*
X12615D01*
X12616D02*
X12622D01*
X12647D02*
X12654D01*
X12655D02*
X12662D01*
X12687D02*
X12693D01*
X12694D02*
X12701D01*
X12726D02*
X12733D01*
X12734D02*
X12740D01*
X12766D02*
X12772D01*
X12812D01*
X12819D01*
X12844D02*
X12851D01*
X12852D02*
X12858D01*
X12884D02*
X12890D01*
X12891D02*
X12898D01*
X12923D02*
X12930D01*
X12930D02*
X12937D01*
X12962D02*
X12969D01*
X12537Y7507D02*
X12379D01*
X12772D02*
X12812D01*
X12537Y7512D02*
X12379D01*
X12772D02*
X12812D01*
X12537Y7517D02*
X12379D01*
X12772D02*
X12812D01*
X12537Y7522D02*
X12379D01*
X12772D02*
X12812D01*
X12537Y7527D02*
X12379D01*
X12772D02*
X12812D01*
X12537Y7532D02*
X12379D01*
X12772D02*
X12812D01*
X12546Y7537D02*
X12379D01*
X12566D02*
X12585D01*
X12606D02*
X12625D01*
X12645D02*
X12664D01*
X12684D02*
X12703D01*
X12724D02*
X12743D01*
X12763D02*
X12821D01*
X12842D02*
X12861D01*
X12881D02*
X12900D01*
X12921D02*
X12939D01*
X12960D02*
X12969D01*
X12458Y7542D02*
X12379D01*
X12458D02*
X12464D01*
X12491D02*
X12497D01*
X12497D02*
X12503D01*
X12530D02*
X12536D01*
X12537D02*
X12543D01*
X12569D02*
X12575D01*
X12576D02*
X12582D01*
X12609D02*
X12615D01*
X12616D02*
X12622D01*
X12648D02*
X12654D01*
X12655D02*
X12661D01*
X12687D02*
X12693D01*
X12694D02*
X12700D01*
X12727D02*
X12733D01*
X12734D02*
X12740D01*
X12766D02*
X12772D01*
X12773D02*
X12779D01*
X12806D02*
X12812D01*
X12812D02*
X12818D01*
X12845D02*
X12851D01*
X12852D02*
X12858D01*
X12884D02*
X12890D01*
X12891D02*
X12897D01*
X12924D02*
X12930D01*
X12930D02*
X12937D01*
X12963D02*
X12969D01*
X12458Y7547D02*
X12379D01*
Y7552D02*
X12458D01*
Y7557D02*
X12379D01*
Y7562D02*
X12458D01*
Y7567D02*
X12379D01*
Y7572D02*
X12458D01*
X12468Y7577D02*
X12379D01*
X12487D02*
X12507D01*
X12526D02*
X12546D01*
X12566D02*
X12586D01*
X12605D02*
X12625D01*
X12644D02*
X12665D01*
X12684D02*
X12704D01*
X12723D02*
X12743D01*
X12763D02*
X12783D01*
X12802D02*
X12822D01*
X12841D02*
X12861D01*
X12881D02*
X12901D01*
X12920D02*
X12940D01*
X12959D02*
X12969D01*
X12458Y7582D02*
X12379D01*
Y7587D02*
X12458D01*
Y7592D02*
X12379D01*
Y7597D02*
X12458D01*
Y7602D02*
X12379D01*
X12898Y7538D02*
X12901D01*
Y7577D02*
X12898D01*
X12940Y7538D02*
X12959D01*
X12940Y7577D02*
X12940D01*
X12940D02*
X12959D01*
X12959D01*
X12940Y7499D02*
X12937D01*
Y7538D02*
X12940D01*
X12901Y7538D02*
X12898D01*
Y7577D02*
X12901D01*
X12937Y7499D02*
X12940D01*
Y7538D02*
X12937D01*
X12940Y7538D02*
X12940D01*
X12959D01*
X12959D01*
X12959Y7577D02*
X12940D01*
X12920Y7499D02*
X12901D01*
Y7538D02*
X12920D01*
X12783Y7578D02*
X12780D01*
X12819D02*
X12822D01*
X12723Y7459D02*
X12704D01*
X12743Y7460D02*
X12763D01*
Y7498D02*
X12743D01*
X12723Y7538D02*
X12704D01*
Y7577D02*
X12723D01*
X12743Y7499D02*
X12763D01*
Y7538D02*
X12743D01*
X12723Y7578D02*
X12704D01*
X12743D02*
X12763D01*
X12783Y7538D02*
X12802D01*
Y7577D02*
X12783D01*
X12822Y7499D02*
X12841D01*
Y7538D02*
X12822D01*
Y7538D02*
X12841D01*
Y7577D02*
X12822D01*
X12861Y7499D02*
X12881D01*
Y7538D02*
X12861D01*
Y7538D02*
X12881D01*
Y7577D02*
X12861D01*
X12723Y7499D02*
X12704D01*
Y7538D02*
X12704D01*
X12704D02*
X12723D01*
X12723D01*
X12743Y7538D02*
X12763D01*
Y7577D02*
X12743D01*
X12704Y7499D02*
X12704D01*
X12704D02*
X12723D01*
X12723D01*
X12723Y7538D02*
X12704D01*
X12783Y7460D02*
X12802D01*
Y7498D02*
X12783D01*
Y7578D02*
X12780D01*
X12819D02*
X12822D01*
X12605Y7459D02*
X12586D01*
X12566D02*
X12546D01*
X12665Y7538D02*
X12684D01*
X12665Y7577D02*
X12665D01*
X12665D02*
X12684D01*
X12684D01*
X12625Y7578D02*
X12622D01*
X12586D02*
X12583D01*
X12526Y7538D02*
X12507D01*
Y7577D02*
X12507D01*
X12507D02*
X12526D01*
X12526D01*
X12546Y7499D02*
X12566D01*
X12546Y7538D02*
X12546D01*
X12546D02*
X12566D01*
X12566D01*
X12507Y7538D02*
X12507D01*
X12507D02*
X12526D01*
X12526D01*
X12526Y7577D02*
X12507D01*
X12546Y7499D02*
X12546D01*
X12566D01*
X12566D01*
X12566Y7538D02*
X12546D01*
X12526Y7460D02*
X12507D01*
Y7498D02*
X12526D01*
X12526Y7459D02*
X12507D01*
X12586Y7460D02*
X12605D01*
Y7498D02*
X12586D01*
X12665Y7459D02*
X12684D01*
Y7499D02*
X12665D01*
Y7538D02*
X12665D01*
X12665D02*
X12684D01*
X12684D01*
X12605Y7499D02*
X12586D01*
Y7538D02*
X12605D01*
X12566Y7538D02*
X12546D01*
Y7577D02*
X12566D01*
X12526Y7578D02*
X12507D01*
X12583Y7578D02*
X12586D01*
X12665Y7499D02*
X12665D01*
X12684D01*
X12684D01*
X12684Y7538D02*
X12665D01*
Y7538D02*
X12665D01*
X12665D02*
X12684D01*
X12684D01*
X12684Y7577D02*
X12665D01*
X12625Y7578D02*
X12622D01*
X12487Y7538D02*
X12468D01*
Y7577D02*
X12468D01*
X12468D02*
X12487D01*
X12487D01*
X12468Y7538D02*
X12468D01*
X12468D02*
X12487D01*
X12487D01*
X12487Y7577D02*
X12468D01*
X12468Y7460D02*
X12487D01*
Y7498D02*
X12468D01*
X12448Y7460D02*
X12428D01*
Y7498D02*
X12448D01*
X12410Y7607D02*
X12336D01*
Y7612D02*
X12410D01*
Y7617D02*
X12336D01*
Y7622D02*
X12410D01*
Y7627D02*
X12336D01*
Y7632D02*
X12410D01*
Y7637D02*
X12336D01*
X12379Y7607D02*
X12458D01*
Y7612D02*
X12379D01*
Y7617D02*
X12969D01*
X12458Y7622D02*
X12379D01*
X12575D02*
X12616D01*
X12693D02*
X12734D01*
X12458Y7627D02*
X12379D01*
X12575D02*
X12616D01*
X12693D02*
X12734D01*
X12458Y7632D02*
X12379D01*
X12575D02*
X12616D01*
X12693D02*
X12734D01*
X12458Y7637D02*
X12379D01*
X12575D02*
X12616D01*
X12693D02*
X12734D01*
X12743Y7617D02*
X12743D01*
X12763D01*
X12763D01*
X12780Y7616D02*
X12783D01*
X12819D02*
X12822D01*
X12822Y7617D02*
X12841D01*
X12723Y7616D02*
X12704D01*
X12743D02*
X12763D01*
Y7617D02*
X12743D01*
X12783Y7617D02*
X12802D01*
X12783Y7616D02*
X12780D01*
X12819D02*
X12822D01*
X12625D02*
X12622D01*
X12586D02*
X12583D01*
X12625Y7617D02*
X12644D01*
X12526Y7616D02*
X12507D01*
X12583Y7616D02*
X12586D01*
X12622D02*
X12625D01*
X12487Y7617D02*
X12468D01*
X11596Y7642D02*
X9221D01*
Y7657D02*
X9521D01*
X9521Y7662D02*
X9221D01*
Y7667D02*
X9521D01*
X9521Y7672D02*
X9221D01*
Y7677D02*
X9521D01*
X9521Y7682D02*
X9221D01*
Y7687D02*
X9521D01*
X9521Y7692D02*
X9221D01*
Y7697D02*
X9521D01*
X9521Y7702D02*
X9221D01*
Y7707D02*
X9521D01*
X9521Y7712D02*
X9221D01*
Y7717D02*
X9521D01*
X9521Y7722D02*
X9221D01*
Y7727D02*
X9521D01*
X9469Y7732D02*
X9221D01*
X9509D02*
X9521D01*
X9455Y7737D02*
X9221D01*
X9455D02*
X9464D01*
X9455Y7742D02*
X9221D01*
Y7747D02*
X9455D01*
Y7752D02*
X9221D01*
Y7757D02*
X9455D01*
Y7762D02*
X9221D01*
Y7767D02*
X9455D01*
Y7772D02*
X9221D01*
Y7777D02*
X9455D01*
Y7782D02*
X9221D01*
Y7787D02*
X9455D01*
X9463D01*
X9455Y7792D02*
X9221D01*
X9455D02*
X9464D01*
X9455Y7797D02*
X9221D01*
Y7802D02*
X9455D01*
Y7807D02*
X9221D01*
Y7812D02*
X9455D01*
Y7817D02*
X9221D01*
Y7822D02*
X9455D01*
Y7827D02*
X9221D01*
Y7832D02*
X9455D01*
X9472Y7729D02*
X9506D01*
X11863Y7827D02*
X12123D01*
X12132D01*
X12154D02*
X12162D01*
X12257D01*
X12266D01*
X12123Y7832D02*
X11863D01*
X12162D02*
X12257D01*
X12152Y7826D02*
X12133D01*
X12267D02*
X12286D01*
X12379Y7822D02*
X12969D01*
Y7739D02*
X12379D01*
X12410Y7822D02*
X12336D01*
X12337Y7827D02*
X12410D01*
Y7642D02*
X12336D01*
Y7647D02*
X12410D01*
Y7652D02*
X12336D01*
X12379Y7642D02*
X12458D01*
X12575D02*
X12616D01*
X12693D02*
X12734D01*
X12458Y7647D02*
X12379D01*
X12575D02*
X12616D01*
X12693D02*
X12734D01*
X12458Y7652D02*
X12379D01*
X12575D02*
X12616D01*
X12693D02*
X12734D01*
X12404Y7660D02*
X12385D01*
Y7699D02*
X12404D01*
X12901Y7656D02*
X12920D01*
X12940D02*
X12959D01*
X12881D02*
X12861D01*
X12684D02*
X12665D01*
X12566D02*
X12546D01*
X12526D02*
X12507D01*
X12379Y7712D02*
X12969D01*
Y7742D02*
X12379D01*
Y7747D02*
X12969D01*
Y7752D02*
X12379D01*
Y7757D02*
X12969D01*
Y7762D02*
X12379D01*
Y7767D02*
X12969D01*
Y7772D02*
X12379D01*
Y7777D02*
X12969D01*
Y7782D02*
X12379D01*
Y7787D02*
X12969D01*
Y7792D02*
X12379D01*
Y7797D02*
X12969D01*
X12410Y7657D02*
X12336D01*
Y7662D02*
X12375D01*
X12383D01*
X12375Y7667D02*
X12336D01*
Y7672D02*
X12375D01*
Y7677D02*
X12336D01*
Y7682D02*
X12375D01*
Y7687D02*
X12336D01*
Y7692D02*
X12375D01*
Y7697D02*
X12336D01*
X12375D02*
X12383D01*
X12410Y7702D02*
X12336D01*
Y7707D02*
X12410D01*
Y7712D02*
X12336D01*
Y7717D02*
X12410D01*
Y7722D02*
X12336D01*
Y7727D02*
X12410D01*
Y7732D02*
X12336D01*
Y7737D02*
X12410D01*
Y7742D02*
X12336D01*
Y7747D02*
X12410D01*
Y7752D02*
X12336D01*
Y7757D02*
X12410D01*
Y7762D02*
X12336D01*
Y7767D02*
X12410D01*
Y7772D02*
X12336D01*
X12336Y7777D02*
X12343D01*
X12410D01*
Y7782D02*
X12343D01*
Y7787D02*
X12410D01*
Y7792D02*
X12343D01*
Y7797D02*
X12410D01*
X12428Y7657D02*
X12379D01*
X12448D02*
X12467D01*
X12487D02*
X12585D01*
X12606D02*
X12703D01*
X12724D02*
X12969D01*
X12414Y7662D02*
X12406D01*
X12497D02*
X12576D01*
X12615D02*
X12694D01*
X12733D02*
X12969D01*
X12576Y7667D02*
X12497D01*
X12615D02*
X12694D01*
X12733D02*
X12969D01*
X12576Y7672D02*
X12497D01*
X12615D02*
X12694D01*
X12733D02*
X12969D01*
X12576Y7677D02*
X12497D01*
X12615D02*
X12694D01*
X12733D02*
X12969D01*
X12576Y7682D02*
X12497D01*
X12615D02*
X12694D01*
X12733D02*
X12969D01*
X12576Y7687D02*
X12497D01*
X12615D02*
X12694D01*
X12733D02*
X12969D01*
X12425Y7692D02*
X12419D01*
X12451D02*
X12457D01*
X12458D02*
X12465D01*
X12490D02*
X12497D01*
X12576D01*
X12583D01*
X12608D02*
X12615D01*
X12694D01*
X12701D01*
X12726D02*
X12733D01*
X12969D01*
X12414Y7697D02*
X12406D01*
X12414D02*
X12969D01*
Y7702D02*
X12379D01*
Y7707D02*
X12969D01*
Y7717D02*
X12379D01*
Y7722D02*
X12969D01*
Y7727D02*
X12379D01*
X12380Y7732D02*
X12968D01*
X12963Y7737D02*
X12385D01*
X12390Y7742D02*
X12958D01*
X12953Y7747D02*
X12395D01*
X12400Y7752D02*
X12948D01*
X12943Y7757D02*
X12405D01*
X12410Y7762D02*
X12938D01*
X12763Y7656D02*
X12743D01*
X12822Y7656D02*
X12841D01*
X12743D02*
X12743D01*
X12743D02*
X12763D01*
X12763D01*
X12783Y7656D02*
X12802D01*
X12723Y7657D02*
X12704D01*
Y7695D02*
X12723D01*
X12605Y7657D02*
X12586D01*
Y7695D02*
X12605D01*
X12625Y7656D02*
X12644D01*
X12487Y7657D02*
X12468D01*
Y7695D02*
X12487D01*
X12487Y7656D02*
X12468D01*
X12448Y7657D02*
X12428D01*
Y7695D02*
X12448D01*
X12414Y7766D02*
X12934D01*
X12969Y7802D02*
X12379D01*
Y7807D02*
X12969D01*
Y7812D02*
X12379D01*
Y7817D02*
X12969D01*
X12410Y7802D02*
X12343D01*
Y7807D02*
X12410D01*
X12343Y7812D02*
X12336D01*
X12343D02*
X12410D01*
Y7817D02*
X12336D01*
X12334Y7820D02*
X12969D01*
X12436Y7824D02*
X12416D01*
X12445Y7832D02*
X12969D01*
X12407D02*
X12334D01*
X12445Y7827D02*
X12969D01*
X12445D02*
X12439D01*
X12413D02*
X12407D01*
X12334D01*
Y7822D02*
X12969D01*
X9455Y7837D02*
X9221D01*
Y7842D02*
X9455D01*
X9463D01*
X9455Y7847D02*
X9221D01*
X9455D02*
X9464D01*
X9455Y7852D02*
X9221D01*
Y7857D02*
X9455D01*
Y7862D02*
X9221D01*
Y7867D02*
X9455D01*
Y7872D02*
X9221D01*
Y7877D02*
X9455D01*
Y7882D02*
X9221D01*
Y7887D02*
X9455D01*
Y7892D02*
X9221D01*
Y7897D02*
X9455D01*
X9463D01*
X9455Y7902D02*
X9221D01*
X9455D02*
X9464D01*
X9455Y7907D02*
X9221D01*
Y7912D02*
X9455D01*
Y7917D02*
X9221D01*
Y7922D02*
X9455D01*
Y7927D02*
X9221D01*
Y7932D02*
X9455D01*
Y7937D02*
X9221D01*
Y7942D02*
X9455D01*
Y7947D02*
X9221D01*
Y7952D02*
X9455D01*
X9463D01*
X9468Y7957D02*
X9221D01*
X9511D02*
X9522D01*
X9522Y7962D02*
X9221D01*
Y7967D02*
X9522D01*
X9522Y7972D02*
X9221D01*
Y7977D02*
X9522D01*
X9522Y7982D02*
X9221D01*
Y7987D02*
X9522D01*
X9522Y7992D02*
X9221D01*
Y7997D02*
X9522D01*
X9522Y8002D02*
X9221D01*
Y8007D02*
X9522D01*
X9522Y8012D02*
X9221D01*
Y8017D02*
X9522D01*
X9522Y8022D02*
X9221D01*
Y8027D02*
X9522D01*
X9522Y8032D02*
X9221D01*
X9472Y7962D02*
X9506D01*
X11863Y7837D02*
X12123D01*
X12162D02*
X12257D01*
X12123Y7842D02*
X11863D01*
X12162D02*
X12257D01*
X12123Y7847D02*
X11863D01*
X12162D02*
X12257D01*
X12123Y7852D02*
X11863D01*
X12162D02*
X12257D01*
X12123Y7857D02*
X11863D01*
X12162D02*
X12257D01*
X12123Y7862D02*
X11863D01*
X12123D02*
X12131D01*
X12155D02*
X12162D01*
X12257D01*
X12264D01*
X12485Y7867D02*
X11863D01*
Y7872D02*
X12485D01*
Y7877D02*
X11863D01*
Y7882D02*
X12485D01*
Y7887D02*
X11863D01*
Y7892D02*
X12123D01*
X12130D01*
X12156D02*
X12162D01*
X12407D01*
X12413D01*
X12439D02*
X12445D01*
X12485D01*
X12123Y7897D02*
X11863D01*
X12162D02*
X12407D01*
X12445D02*
X12485D01*
X12123Y7902D02*
X11863D01*
X12445D02*
X12485D01*
X12123Y7907D02*
X11863D01*
X12162D02*
X12407D01*
X12445D02*
X12485D01*
X12123Y7912D02*
X11863D01*
X12162D02*
X12407D01*
X12445D02*
X12485D01*
X12123Y7917D02*
X11863D01*
X12162D02*
X12407D01*
X12445D02*
X12485D01*
X12123Y7922D02*
X11863D01*
X12162D02*
X12407D01*
X12445D02*
X12485D01*
X12133Y7927D02*
X11863D01*
X12153D02*
X12416D01*
X12436D02*
X12485D01*
Y7932D02*
X11863D01*
Y7937D02*
X12485D01*
Y7942D02*
X11863D01*
Y7947D02*
X12485D01*
Y7952D02*
X11863D01*
Y7977D02*
X11919D01*
X11927D01*
X11919Y7982D02*
X11863D01*
Y7987D02*
X11919D01*
Y7992D02*
X11863D01*
Y7997D02*
X11919D01*
X11893Y8002D02*
X11863D01*
Y8007D02*
X11893D01*
Y8012D02*
X11863D01*
Y8017D02*
X11893D01*
X11932D02*
X12485D01*
X11869Y8022D02*
X11863D01*
X11869D02*
X11876D01*
X11869Y8027D02*
X11863D01*
Y8032D02*
X11869D01*
X12416Y7889D02*
X12436D01*
Y7927D02*
X12416D01*
X12152Y7889D02*
X12133D01*
Y7927D02*
X12152D01*
Y7864D02*
X12133D01*
X12267D02*
X12286D01*
X11919Y7997D02*
X11903D01*
X11893Y8019D02*
X11879D01*
X12162Y7902D02*
X12407D01*
X11942Y7957D02*
X11863D01*
X11942D02*
X11949D01*
X11974D02*
X11981D01*
X12485D01*
X11942Y7962D02*
X11863D01*
X11981D02*
X12485D01*
X11942Y7967D02*
X11863D01*
X11981D02*
X12485D01*
X11942Y7972D02*
X11863D01*
X11981D02*
X12485D01*
Y7977D02*
X11981D01*
Y7982D02*
X12485D01*
Y7987D02*
X11981D01*
X11972Y7992D02*
X12485D01*
Y7997D02*
X11957D01*
Y8002D02*
X12485D01*
Y8007D02*
X11957D01*
Y8012D02*
X11950D01*
X11957D02*
X12485D01*
X12041Y8022D02*
X11932D01*
X12041D02*
X12049D01*
X12071D02*
X12079D01*
X12135D01*
X12142D01*
X12167D02*
X12174D01*
X12485D01*
X11983Y8027D02*
X11932D01*
X12003D02*
X12041D01*
X12079D02*
X12135D01*
X12174D02*
X12485D01*
X11974Y8032D02*
X11932D01*
X12012D02*
X12041D01*
X12079D02*
X12135D01*
X12174D02*
X12485D01*
X12164Y8019D02*
X12145D01*
X12003Y8027D02*
X11983D01*
X11942Y7975D02*
X11928D01*
X11932Y8014D02*
X11948D01*
X11957Y7992D02*
X11971D01*
X12050Y8021D02*
X12070D01*
X11971Y7954D02*
X11952D01*
X12445Y7847D02*
X12969D01*
X12407D02*
X12334D01*
X12445Y7847D02*
X12969D01*
X12407D02*
X12334D01*
X12445Y7842D02*
X12969D01*
X12407D02*
X12334D01*
X12445Y7837D02*
X12969D01*
X12407D02*
X12334D01*
X9522Y8037D02*
X9221D01*
Y8042D02*
X9522D01*
X9522Y8047D02*
X9221D01*
Y8052D02*
X9522D01*
X9522Y8057D02*
X9221D01*
Y8062D02*
X9522D01*
X9522Y8067D02*
X9221D01*
Y8072D02*
X9522D01*
X9522Y8077D02*
X9221D01*
Y8082D02*
X9522D01*
X9522Y8087D02*
X9223D01*
X9228Y8092D02*
X9522D01*
X9522Y8097D02*
X9233D01*
X9237Y8102D02*
X9523D01*
X9523Y8107D02*
X9242D01*
X9247Y8112D02*
X9523D01*
X9523Y8117D02*
X9251D01*
X9494Y8122D02*
X9523D01*
X9454D02*
X9256D01*
X9257Y8123D02*
X9462D01*
X11863Y8037D02*
X11869D01*
Y8042D02*
X11863D01*
Y8047D02*
X11869D01*
Y8052D02*
X11863D01*
Y8057D02*
X11879D01*
X11863Y8067D02*
X12485D01*
X11891Y8082D02*
X11863D01*
Y8087D02*
X11881D01*
Y8092D02*
X11863D01*
Y8097D02*
X11881D01*
Y8102D02*
X11863D01*
Y8107D02*
X11881D01*
Y8112D02*
X11863D01*
X11886Y8122D02*
X11913D01*
Y8127D02*
X11886D01*
Y8132D02*
X11913D01*
Y8137D02*
X11886D01*
Y8142D02*
X11913D01*
Y8147D02*
X11886D01*
X11863Y8182D02*
X12485D01*
Y8187D02*
X11863D01*
Y8192D02*
X12485D01*
Y8197D02*
X11863D01*
Y8202D02*
X12485D01*
Y8207D02*
X11863D01*
X11908Y8036D02*
X11922D01*
X11877Y8113D02*
X11863D01*
Y8152D02*
X11877D01*
X11879Y8057D02*
X11898D01*
X11891Y8082D02*
X11910D01*
Y8120D02*
X11891D01*
X11910D02*
X11913D01*
X11908Y8037D02*
X11974D01*
X12012D02*
X12041D01*
X12079D02*
X12135D01*
X12174D02*
X12485D01*
X11974Y8042D02*
X11908D01*
X12012D02*
X12041D01*
X12079D02*
X12135D01*
X12174D02*
X12485D01*
X11974Y8047D02*
X11908D01*
X12012D02*
X12041D01*
X12079D02*
X12135D01*
X12174D02*
X12485D01*
X11974Y8052D02*
X11908D01*
X12012D02*
X12041D01*
X12079D02*
X12135D01*
X12174D02*
X12485D01*
X11974Y8057D02*
X11899D01*
X12012D02*
X12041D01*
X12048D01*
X12072D02*
X12079D01*
X12145D01*
X12164D02*
X12485D01*
X11974Y8062D02*
X11863D01*
X11974D02*
X11980D01*
X12006D02*
X12012D01*
X12485D01*
X12090Y8072D02*
X11863D01*
X12156D02*
X12279D01*
X12313D02*
X12485D01*
X12090Y8077D02*
X11863D01*
X12156D02*
X12279D01*
X12313D02*
X12485D01*
X12090Y8082D02*
X11910D01*
X12156D02*
X12279D01*
X12313D02*
X12485D01*
X12090Y8087D02*
X11920D01*
X12156D02*
X12279D01*
X12313D02*
X12485D01*
X12090Y8092D02*
X11920D01*
X12156D02*
X12279D01*
X12313D02*
X12485D01*
X12090Y8097D02*
X11920D01*
X12156D02*
X12279D01*
X12313D02*
X12485D01*
X12090Y8102D02*
X11920D01*
X12090D02*
X12099D01*
X12116D02*
X12122D01*
X12124D02*
X12130D01*
X12147D02*
X12156D01*
X12216D01*
X12223D01*
X12244D02*
X12250D01*
X12279D01*
X12288D01*
X12305D02*
X12313D01*
X12342D01*
X12349D01*
X12370D02*
X12376D01*
X12485D01*
X12216Y8107D02*
X11920D01*
X12250D02*
X12342D01*
X12376D02*
X12485D01*
X12216Y8112D02*
X11920D01*
X12250D02*
X12342D01*
X12376D02*
X12485D01*
X12216Y8117D02*
X11951D01*
X12250D02*
X12342D01*
X12376D02*
X12415D01*
X12453D02*
X12485D01*
X12216Y8122D02*
X11951D01*
X12250D02*
X12342D01*
X12376D02*
X12415D01*
X12453D02*
X12485D01*
X12216Y8127D02*
X11951D01*
X12250D02*
X12342D01*
X12376D02*
X12415D01*
X12453D02*
X12485D01*
X12216Y8132D02*
X11951D01*
X12216D02*
X12223D01*
X12243D02*
X12250D01*
X12342D01*
X12349D01*
X12369D02*
X12376D01*
X12415D01*
X12453D02*
X12485D01*
X12415Y8137D02*
X11951D01*
X12453D02*
X12485D01*
X12072Y8142D02*
X11951D01*
X12072D02*
X12081D01*
X12104D02*
X12111D01*
X12135D02*
X12142D01*
X12167D02*
X12174D01*
X12197D02*
X12205D01*
X12261D01*
X12270D01*
X12291D02*
X12300D01*
X12415D01*
X12453D02*
X12485D01*
X12072Y8147D02*
X11951D01*
X12205D02*
X12261D01*
X12300D02*
X12415D01*
X12453D02*
X12485D01*
X12072Y8152D02*
X11863D01*
X12205D02*
X12261D01*
X12300D02*
X12485D01*
X12072Y8157D02*
X11863D01*
X12205D02*
X12261D01*
X12300D02*
X12485D01*
X12072Y8162D02*
X11863D01*
X12205D02*
X12261D01*
X12300D02*
X12485D01*
X12072Y8167D02*
X11863D01*
X12205D02*
X12261D01*
X12300D02*
X12485D01*
X12072Y8172D02*
X11863D01*
X12205D02*
X12261D01*
X12300D02*
X12485D01*
X12072Y8177D02*
X11863D01*
X12072D02*
X12079D01*
X12104D02*
X12111D01*
X12135D02*
X12142D01*
X12167D02*
X12174D01*
X12198D02*
X12205D01*
X12261D01*
X12268D01*
X12293D02*
X12300D01*
X12485D01*
X12081Y8212D02*
X11863D01*
X12102D02*
X12113D01*
X12133D02*
X12144D01*
X12165D02*
X12176D01*
X12196D02*
X12270D01*
X12290D02*
X12485D01*
X12072Y8217D02*
X11863D01*
X12205D02*
X12261D01*
X12300D02*
X12485D01*
X12072Y8222D02*
X11863D01*
X12205D02*
X12261D01*
X12300D02*
X12485D01*
X12072Y8227D02*
X11863D01*
X12205D02*
X12261D01*
X12300D02*
X12485D01*
X12444Y8113D02*
X12424D01*
Y8152D02*
X12444D01*
X12368Y8100D02*
X12351D01*
Y8134D02*
X12368D01*
X12164Y8057D02*
X12145D01*
Y8212D02*
X12164D01*
X12271D02*
X12290D01*
X12164Y8141D02*
X12145D01*
Y8179D02*
X12164D01*
X12271Y8141D02*
X12290D01*
Y8179D02*
X12271D01*
X12116Y8068D02*
X12099D01*
Y8102D02*
X12116D01*
X12176Y8141D02*
X12196D01*
Y8179D02*
X12176D01*
X12133Y8141D02*
X12113D01*
Y8179D02*
X12133D01*
X12288Y8068D02*
X12305D01*
Y8102D02*
X12288D01*
X12196Y8212D02*
X12176D01*
X12133D02*
X12113D01*
X12225Y8100D02*
X12242D01*
Y8134D02*
X12225D01*
X12147Y8068D02*
X12130D01*
Y8102D02*
X12147D01*
X12003Y8065D02*
X11983D01*
X12082Y8141D02*
X12101D01*
Y8179D02*
X12082D01*
Y8212D02*
X12101D01*
X11942Y8113D02*
X11922D01*
Y8152D02*
X11942D01*
X12050Y8059D02*
X12070D01*
X11922Y8113D02*
X11920D01*
X11893Y8242D02*
X11863D01*
X11893D02*
X11900D01*
X11893Y8247D02*
X11863D01*
Y8252D02*
X11893D01*
Y8257D02*
X11863D01*
Y8262D02*
X11893D01*
Y8267D02*
X11863D01*
Y8272D02*
X11871D01*
X11880D01*
X11871Y8277D02*
X11863D01*
Y8282D02*
X11871D01*
Y8287D02*
X11863D01*
Y8292D02*
X11871D01*
Y8297D02*
X11863D01*
Y8302D02*
X11871D01*
Y8307D02*
X11863D01*
X11871D02*
X11879D01*
X11903Y8239D02*
X11922D01*
X11910Y8278D02*
X11907D01*
X11910D02*
X11922D01*
X11893Y8271D02*
X11881D01*
X11893D02*
X11896D01*
X11900Y8309D02*
X11881D01*
X11863Y8232D02*
X12072D01*
X12205D02*
X12261D01*
X12300D02*
X12485D01*
X12072Y8237D02*
X11863D01*
X12205D02*
X12261D01*
X12300D02*
X12485D01*
X12072Y8242D02*
X11932D01*
X12205D02*
X12261D01*
X12300D02*
X12485D01*
X12072Y8247D02*
X11932D01*
X12072D02*
X12079D01*
X12199D02*
X12205D01*
X12261D01*
X12268D01*
X12293D02*
X12300D01*
X12485D01*
X12417Y8252D02*
X11932D01*
X12417D02*
X12423D01*
X12417Y8257D02*
X11932D01*
Y8262D02*
X12417D01*
Y8267D02*
X11932D01*
Y8272D02*
X12417D01*
Y8277D02*
X11932D01*
X11910Y8282D02*
X12417D01*
X12426Y8287D02*
X11910D01*
Y8292D02*
X12216D01*
X12250D02*
X12342D01*
X12216Y8297D02*
X11910D01*
X12250D02*
X12342D01*
X12216Y8302D02*
X11910D01*
X12250D02*
X12342D01*
X12216Y8307D02*
X11910D01*
X12250D02*
X12342D01*
X12216Y8312D02*
X11863D01*
X12250D02*
X12342D01*
X12216Y8317D02*
X11863D01*
X12250D02*
X12342D01*
X12216Y8322D02*
X11863D01*
X12216D02*
X12224D01*
X12242D02*
X12250D01*
X12342D01*
X12350D01*
X11946Y8332D02*
X11863D01*
X11946D02*
X11954D01*
X11977D02*
X11985D01*
X12009D01*
X12017D01*
X12040D02*
X12048D01*
X12072D01*
X12080D01*
X12103D02*
X12111D01*
X12277D01*
X12284D01*
X12308D02*
X12316D01*
X12411D01*
X12418D01*
X11946Y8337D02*
X11863D01*
X11985D02*
X12009D01*
X12048D02*
X12072D01*
X12111D02*
X12277D01*
X12316D02*
X12411D01*
X11946Y8342D02*
X11863D01*
X11985D02*
X12009D01*
X12048D02*
X12072D01*
X12111D02*
X12277D01*
X12316D02*
X12411D01*
X11946Y8347D02*
X11863D01*
X11985D02*
X12009D01*
X12048D02*
X12072D01*
X12111D02*
X12277D01*
X12316D02*
X12411D01*
X11946Y8352D02*
X11863D01*
X11985D02*
X11995D01*
X12048D02*
X12072D01*
X12111D02*
X12277D01*
X12316D02*
X12411D01*
X11946Y8357D02*
X11863D01*
X12048D02*
X12072D01*
X12111D02*
X12277D01*
X12316D02*
X12411D01*
X11946Y8362D02*
X11863D01*
X12048D02*
X12072D01*
X12112D02*
X12120D01*
X12141D02*
X12150D01*
X12277D01*
X12316D02*
X12411D01*
X11946Y8367D02*
X11863D01*
X11946D02*
X11955D01*
X11977D02*
X11985D01*
X12040D02*
X12048D01*
X12072D01*
X12081D01*
X12103D02*
X12111D01*
X12150D02*
X12277D01*
X12285D01*
X12307D02*
X12316D01*
X12411D01*
X12419D01*
X12420Y8330D02*
X12440D01*
Y8368D02*
X12420D01*
X12426Y8249D02*
X12446D01*
Y8288D02*
X12426D01*
X12368Y8289D02*
X12351D01*
Y8323D02*
X12368D01*
X12306Y8330D02*
X12287D01*
Y8368D02*
X12306D01*
X12164Y8250D02*
X12145D01*
X12271D02*
X12290D01*
X12196D02*
X12176D01*
X12133D02*
X12113D01*
X12225Y8289D02*
X12242D01*
Y8323D02*
X12225D01*
X12129Y8361D02*
X12121D01*
X12129D02*
X12133D01*
X12141D01*
X11975Y8330D02*
X11956D01*
Y8368D02*
X11975D01*
X12019Y8330D02*
X12038D01*
Y8368D02*
X12024D01*
X12009Y8351D02*
X11995D01*
X12082Y8250D02*
X12101D01*
Y8330D02*
X12082D01*
Y8368D02*
X12101D01*
X11986Y8369D02*
X11877D01*
X12024D02*
X12112D01*
X12114D01*
X11932Y8242D02*
X11925D01*
X11923Y8277D02*
X11932D01*
X11910Y8307D02*
X11903D01*
X11877Y8369D02*
X11863D01*
Y8327D02*
X12485D01*
Y8252D02*
X12455D01*
Y8257D02*
X12485D01*
Y8262D02*
X12455D01*
Y8267D02*
X12485D01*
Y8272D02*
X12455D01*
Y8277D02*
X12485D01*
Y8282D02*
X12455D01*
X12446Y8287D02*
X12485D01*
Y8292D02*
X12376D01*
Y8297D02*
X12485D01*
Y8302D02*
X12376D01*
Y8307D02*
X12485D01*
Y8312D02*
X12376D01*
Y8317D02*
X12485D01*
Y8322D02*
X12376D01*
X12449Y8332D02*
X12485D01*
Y8337D02*
X12449D01*
Y8342D02*
X12485D01*
Y8347D02*
X12449D01*
Y8352D02*
X12485D01*
Y8357D02*
X12449D01*
Y8362D02*
X12485D01*
Y8367D02*
X12449D01*
X12485Y8369D02*
X12150D01*
X12449Y8252D02*
X12455D01*
X12376Y8322D02*
X12368D01*
X12442Y8332D02*
X12449D01*
Y8367D02*
X12441D01*
X12150Y8369D02*
X12148D01*
X9221Y8085D02*
Y7304D01*
Y8085D02*
X9257Y8123D01*
X9455Y7945D02*
Y7911D01*
Y7890D02*
Y7856D01*
Y7834D02*
Y7801D01*
Y7779D02*
Y7746D01*
X9517Y7951D02*
X9510Y7957D01*
X9460Y7906D02*
X9466Y7900D01*
Y7845D02*
X9460Y7839D01*
Y7796D02*
X9466Y7790D01*
X9517Y7739D02*
X9521Y7735D01*
X9462Y8123D02*
X9440Y8121D01*
X9523Y8123D01*
X9521Y7729D02*
X9521Y7652D01*
X9521Y7729D02*
X9521Y7735D01*
X9522Y7956D02*
X9522Y7962D01*
X9510Y7957D02*
X9506Y7962D01*
X9455Y7911D02*
X9460Y7906D01*
Y7851D02*
X9466Y7845D01*
X9460Y7851D02*
X9455Y7856D01*
Y7801D02*
X9460Y7796D01*
X9455Y7746D02*
X9472Y7729D01*
X9455Y7945D02*
X9472Y7962D01*
X9517Y7951D02*
X9522Y7956D01*
X9460Y7894D02*
X9455Y7890D01*
X9460Y7894D02*
X9466Y7900D01*
X9460Y7839D02*
X9455Y7834D01*
X9510Y7733D02*
X9506Y7729D01*
X9510Y7733D02*
X9517Y7739D01*
X9460Y7784D02*
X9455Y7779D01*
X9460Y7784D02*
X9466Y7790D01*
X10788Y7300D02*
Y7300D01*
X11116Y7375D02*
Y7394D01*
X11048Y7331D02*
Y7312D01*
X11009D02*
Y7331D01*
X11091Y7509D02*
Y7528D01*
X11092Y7556D02*
Y7575D01*
X11116Y7375D02*
X11125Y7365D01*
X11048Y7331D02*
X11038Y7341D01*
X11009Y7312D02*
X11019Y7302D01*
X11130Y7528D02*
X11120Y7538D01*
X11091Y7509D02*
X11101Y7499D01*
X11130Y7575D02*
X11121Y7585D01*
X11092Y7556D02*
X11102Y7546D01*
X11125Y7404D02*
X11116Y7394D01*
X11048Y7312D02*
X11038Y7302D01*
X11009Y7331D02*
X11019Y7341D01*
X11120Y7499D02*
X11130Y7509D01*
X11101Y7538D02*
X11091Y7528D01*
X11121Y7546D02*
X11130Y7556D01*
X11102Y7585D02*
X11092Y7575D01*
X11182Y7394D02*
Y7375D01*
X11256Y7363D02*
Y7343D01*
X11218D02*
Y7363D01*
X11182Y7311D02*
Y7299D01*
X11143Y7299D02*
Y7311D01*
X11289Y7458D02*
Y7477D01*
X11130Y7509D02*
Y7528D01*
X11130Y7556D02*
Y7575D01*
X11149Y7369D02*
X11144Y7365D01*
X11149Y7400D02*
X11144Y7404D01*
X11172D02*
X11182Y7394D01*
X11153Y7365D02*
X11149Y7369D01*
X11247Y7372D02*
X11256Y7363D01*
X11228Y7334D02*
X11218Y7343D01*
X11182Y7311D02*
X11172Y7321D01*
X11327Y7477D02*
X11318Y7486D01*
X11289Y7458D02*
X11298Y7448D01*
X11182Y7375D02*
X11172Y7365D01*
X11149Y7400D02*
X11153Y7404D01*
X11247Y7334D02*
X11256Y7343D01*
X11228Y7372D02*
X11218Y7363D01*
X11153Y7321D02*
X11143Y7311D01*
X11318Y7448D02*
X11327Y7458D01*
X11298Y7486D02*
X11289Y7477D01*
X11461Y7406D02*
Y7387D01*
X11423D02*
Y7406D01*
X11327Y7458D02*
Y7477D01*
X11452Y7416D02*
X11461Y7406D01*
X11432Y7377D02*
X11423Y7387D01*
X11463Y7269D02*
X11541Y7191D01*
X11463Y7269D02*
X11438Y7294D01*
X11434Y7298D01*
X11452Y7377D02*
X11461Y7387D01*
X11432Y7416D02*
X11423Y7406D01*
X11579Y7323D02*
Y7304D01*
X11541D02*
Y7323D01*
X11693Y7335D02*
Y7355D01*
X11655D02*
Y7335D01*
X11585Y7456D02*
Y7475D01*
X11547D02*
Y7456D01*
X11570Y7333D02*
X11579Y7323D01*
X11550Y7294D02*
X11541Y7304D01*
X11684Y7364D02*
X11693Y7355D01*
X11665Y7326D02*
X11655Y7335D01*
X11585Y7475D02*
X11576Y7484D01*
X11547Y7456D02*
X11556Y7446D01*
X11693Y7544D02*
X11742Y7496D01*
X11693Y7544D02*
X11655Y7583D01*
X11590Y7648D01*
X11678Y7054D02*
X11713Y7019D01*
X11678Y7054D02*
X11675Y7057D01*
X11639Y7093D01*
X11579Y7153D01*
X11541Y7191D01*
X11570Y7294D02*
X11579Y7304D01*
X11550Y7333D02*
X11541Y7323D01*
X11684Y7326D02*
X11693Y7335D01*
X11665Y7364D02*
X11655Y7355D01*
X11576Y7446D02*
X11585Y7456D01*
X11556Y7484D02*
X11547Y7475D01*
X11903Y7182D02*
Y7162D01*
X11788Y7048D02*
Y7028D01*
X11749D02*
Y7048D01*
X11784Y7064D02*
Y7083D01*
X11745D02*
Y7064D01*
X11792Y7008D02*
Y6989D01*
X11753D02*
Y7008D01*
X11800Y6969D02*
Y6950D01*
X11780Y7345D02*
Y7365D01*
X11742D02*
Y7345D01*
X11780Y7298D02*
Y7278D01*
X11742D02*
Y7298D01*
X11780Y7309D02*
Y7329D01*
X11742D02*
Y7309D01*
X11893Y8007D02*
Y8019D01*
Y8249D02*
Y8268D01*
Y8271D01*
X11871Y8280D02*
Y8300D01*
X11886Y8123D02*
Y8120D01*
Y8123D02*
Y8142D01*
X11869Y8048D02*
Y8028D01*
X11881Y8091D02*
Y8111D01*
Y8113D01*
X11863D02*
Y7821D01*
Y8152D02*
Y8369D01*
X11791Y6941D02*
X11792Y6940D01*
X11762Y6970D02*
X11761Y6971D01*
X11913Y7153D02*
X11903Y7162D01*
X11788Y7048D02*
X11784Y7052D01*
X11781Y7054D01*
X11778Y7057D01*
X11749Y7028D02*
X11759Y7019D01*
X11784Y7083D02*
X11774Y7093D01*
X11752Y7057D02*
X11755Y7054D01*
X11752Y7057D02*
X11749Y7060D01*
X11745Y7064D01*
X11782Y7018D02*
X11792Y7008D01*
X11763Y6979D02*
X11753Y6989D01*
X11790Y6979D02*
X11800Y6969D01*
X11780Y7365D02*
X11771Y7374D01*
X11749Y7338D02*
X11750Y7337D01*
X11749Y7338D02*
X11742Y7345D01*
X11774Y7304D02*
X11780Y7298D01*
X11751Y7269D02*
X11742Y7278D01*
X11780Y7329D02*
X11772Y7337D01*
X11744Y7307D02*
X11748Y7304D01*
X11744Y7307D02*
X11742Y7309D01*
X11903Y7335D02*
X11912Y7326D01*
X11903Y7335D02*
X11902Y7336D01*
X11899Y7338D01*
X11873Y7364D01*
X11863Y7374D01*
X11784Y7454D01*
X11780Y7457D01*
X11745Y7492D01*
X11742Y7496D01*
X11800Y6932D02*
X11804Y6928D01*
X11800Y6932D02*
X11792Y6940D01*
X11792Y6940D01*
X11761Y6971D02*
X11753Y6979D01*
X11753Y6979D01*
X11753Y6979D01*
X11749Y6983D01*
X11745Y6986D01*
X11742Y6990D01*
X11714Y7018D01*
X11713Y7019D01*
X11903Y7997D02*
X11893Y8007D01*
X11903Y8239D02*
X11893Y8249D01*
X11910Y8300D02*
X11900Y8309D01*
X11871Y8280D02*
X11881Y8271D01*
X11877Y8152D02*
X11886Y8142D01*
X11898Y8057D02*
X11908Y8048D01*
X11879Y8019D02*
X11869Y8028D01*
X11891Y8082D02*
X11881Y8091D01*
X11913Y7191D02*
X11903Y7182D01*
X11788Y7028D02*
X11778Y7019D01*
X11749Y7048D02*
X11756Y7054D01*
X11778Y7057D02*
X11784Y7064D01*
X11755Y7093D02*
X11745Y7083D01*
X11792Y6989D02*
X11782Y6979D01*
X11753Y7008D02*
X11763Y7018D01*
X11800Y6950D02*
X11791Y6941D01*
X11762Y6970D02*
X11771Y6979D01*
X11772Y7337D02*
X11773Y7338D01*
X11780Y7345D01*
X11751Y7374D02*
X11742Y7365D01*
X11780Y7278D02*
X11771Y7269D01*
X11742Y7298D02*
X11748Y7304D01*
X11774D02*
X11778Y7307D01*
X11780Y7309D01*
X11750Y7337D02*
X11742Y7329D01*
X11907Y8278D02*
X11910Y8280D01*
X11881Y8309D02*
X11871Y8300D01*
X11881Y8118D02*
X11877Y8113D01*
X11881Y8118D02*
X11884Y8120D01*
X11886Y8123D01*
X11879Y8057D02*
X11869Y8048D01*
X11881Y8111D02*
X11886Y8116D01*
X11891Y8120D01*
X11942Y7182D02*
Y7162D01*
X11919Y7985D02*
Y7997D01*
X11932Y8249D02*
Y8268D01*
X11913Y8123D02*
Y8120D01*
Y8123D02*
Y8142D01*
X11910Y8278D02*
Y8280D01*
Y8300D01*
X11908Y8048D02*
Y8036D01*
X11920Y8091D02*
Y8111D01*
Y8113D01*
X12090Y8094D02*
Y8077D01*
X11985Y8339D02*
Y8359D01*
X11946D02*
Y8339D01*
X12048D02*
Y8359D01*
X12009Y8351D02*
Y8339D01*
X12012Y8056D02*
Y8036D01*
X11974D02*
Y8056D01*
X12024Y8368D02*
Y8369D01*
X11986D02*
Y8361D01*
X12072Y8170D02*
Y8150D01*
Y8221D02*
Y8241D01*
Y8339D02*
Y8359D01*
X11957Y8004D02*
Y7992D01*
X11981Y7983D02*
Y7963D01*
X11942D02*
Y7975D01*
X11951Y8123D02*
Y8142D01*
X12079Y8050D02*
Y8030D01*
X12041D02*
Y8050D01*
X11932Y8026D02*
Y8014D01*
X11932Y7191D02*
X11942Y7182D01*
X12085Y7153D02*
X12145Y7093D01*
X12085Y7153D02*
X12047Y7191D01*
X11969Y7269D01*
X11942Y7296D01*
X11938Y7300D01*
X11930Y7307D01*
X11912Y7326D01*
X11932Y8026D02*
X11922Y8036D01*
X11932Y8268D02*
X11922Y8278D01*
X11913Y8123D02*
X11915Y8120D01*
X11913Y8118D02*
X11920Y8111D01*
X11913Y8118D02*
X11910Y8120D01*
X12090Y8077D02*
X12099Y8068D01*
X11985Y8359D02*
X11975Y8368D01*
X11946Y8339D02*
X11956Y8330D01*
X12038Y8368D02*
X12048Y8359D01*
X12019Y8330D02*
X12009Y8339D01*
X12003Y8065D02*
X12012Y8056D01*
X11983Y8027D02*
X11974Y8036D01*
X11995Y8351D02*
X11986Y8361D01*
X12101Y8179D02*
X12104Y8177D01*
X12072Y8150D02*
X12082Y8141D01*
X12104Y8248D02*
X12101Y8250D01*
X12072Y8221D02*
X12082Y8212D01*
X12111Y8359D02*
X12101Y8368D01*
X12072Y8339D02*
X12082Y8330D01*
X11948Y8014D02*
X11957Y8004D01*
X11971Y7992D02*
X11981Y7983D01*
X11952Y7954D02*
X11942Y7963D01*
X11951Y8142D02*
X11942Y8152D01*
X12070Y8059D02*
X12079Y8050D01*
X12050Y8021D02*
X12041Y8030D01*
X11928Y7975D02*
X11919Y7985D01*
X11922Y8113D02*
X11915Y8120D01*
X11942Y7162D02*
X11932Y7153D01*
X11922Y8239D02*
X11932Y8249D01*
X11920Y8091D02*
X11910Y8082D01*
X12090Y8094D02*
X12099Y8102D01*
X11975Y8330D02*
X11985Y8339D01*
X11956Y8368D02*
X11946Y8359D01*
X12038Y8330D02*
X12048Y8339D01*
X12012Y8036D02*
X12003Y8027D01*
X11974Y8056D02*
X11983Y8065D01*
X12101Y8141D02*
X12104Y8143D01*
X12072Y8170D02*
X12082Y8179D01*
X12101Y8212D02*
X12104Y8214D01*
X12072Y8241D02*
X12082Y8250D01*
X12101Y8330D02*
X12111Y8339D01*
X12082Y8368D02*
X12072Y8359D01*
X11981Y7963D02*
X11971Y7954D01*
X11942Y8113D02*
X11951Y8123D01*
X12070Y8021D02*
X12079Y8030D01*
X12050Y8059D02*
X12041Y8050D01*
X11922Y8152D02*
X11913Y8142D01*
X12154Y7083D02*
Y6928D01*
X12162Y7898D02*
Y7918D01*
X12123D02*
Y7898D01*
X12162Y7855D02*
Y7835D01*
X12123D02*
Y7855D01*
X12296D02*
Y7835D01*
X12257D02*
Y7855D01*
X12125Y7073D02*
Y6933D01*
X12124D02*
Y7073D01*
X12123D02*
Y6933D01*
X12122D02*
Y7073D01*
X12121D02*
Y6933D01*
X12120D02*
Y7073D01*
X12119D02*
Y6933D01*
X12118D02*
Y7073D01*
X12117D02*
Y6933D01*
X12116D02*
Y7073D01*
X12115D02*
Y6933D01*
X12114D02*
Y7073D01*
X12113D02*
Y6933D01*
X12112D02*
Y7073D01*
X12111D02*
Y6933D01*
X12110D02*
Y7073D01*
X12109D02*
Y6933D01*
X12108D02*
Y7073D01*
X12107D02*
Y6933D01*
X12106D02*
Y7073D01*
X12299D02*
Y6933D01*
X12298D02*
Y7073D01*
X12297D02*
Y6933D01*
X12296D02*
Y7073D01*
X12295D02*
Y6933D01*
X12294D02*
Y7073D01*
X12293D02*
Y6933D01*
X12292D02*
Y7073D01*
X12291D02*
Y6933D01*
X12290D02*
Y7073D01*
X12289D02*
Y6933D01*
X12288D02*
Y7073D01*
X12287D02*
Y6933D01*
X12286D02*
Y7073D01*
X12285D02*
Y6933D01*
X12284D02*
Y7073D01*
X12283D02*
Y6933D01*
X12282D02*
Y7073D01*
X12281D02*
Y6933D01*
X12280D02*
Y7073D01*
X12279D02*
Y6933D01*
X12278D02*
Y7073D01*
X12277D02*
Y6933D01*
X12276D02*
Y7073D01*
X12275D02*
Y6933D01*
X12274D02*
Y7073D01*
X12273D02*
Y6933D01*
X12272D02*
Y7073D01*
X12271D02*
Y6933D01*
X12270D02*
Y7073D01*
X12269D02*
Y6933D01*
X12268D02*
Y7073D01*
X12267D02*
Y6933D01*
X12266D02*
Y7073D01*
X12265D02*
Y6933D01*
X12264D02*
Y7073D01*
X12263D02*
Y6933D01*
X12262D02*
Y7073D01*
X12261D02*
Y6933D01*
X12260D02*
Y7073D01*
X12259D02*
Y6933D01*
X12258D02*
Y7073D01*
X12257D02*
Y6933D01*
X12256D02*
Y7073D01*
X12255D02*
Y6933D01*
X12254D02*
Y7073D01*
X12253D02*
Y6933D01*
X12252D02*
Y7073D01*
X12251D02*
Y6933D01*
X12250D02*
Y7073D01*
X12249D02*
Y6933D01*
X12248D02*
Y7073D01*
X12247D02*
Y6933D01*
X12246D02*
Y7073D01*
X12245D02*
Y6933D01*
X12244D02*
Y7073D01*
X12243D02*
Y6933D01*
X12242D02*
Y7073D01*
X12241D02*
Y6933D01*
X12240D02*
Y7073D01*
X12239D02*
Y6933D01*
X12238D02*
Y7073D01*
X12237D02*
Y6933D01*
X12236D02*
Y7073D01*
X12235D02*
Y6933D01*
X12234D02*
Y7073D01*
X12233D02*
Y6933D01*
X12232D02*
Y7073D01*
X12231D02*
Y6933D01*
X12230D02*
Y7073D01*
X12229D02*
Y6933D01*
X12228D02*
Y7073D01*
X12227D02*
Y6933D01*
X12226D02*
Y7073D01*
X12225D02*
Y6933D01*
X12224D02*
Y7073D01*
X12223D02*
Y6933D01*
X12222D02*
Y7073D01*
X12221D02*
Y6933D01*
X12220D02*
Y7073D01*
X12219D02*
Y6933D01*
X12218D02*
Y7073D01*
X12217D02*
Y6933D01*
X12216D02*
Y7073D01*
X12215D02*
Y6933D01*
X12214D02*
Y7073D01*
X12213D02*
Y6933D01*
X12212D02*
Y7073D01*
X12211D02*
Y6933D01*
X12210D02*
Y7073D01*
X12209D02*
Y6933D01*
X12208D02*
Y7073D01*
X12207D02*
Y6933D01*
X12206D02*
Y7073D01*
X12205D02*
Y6933D01*
X12204D02*
Y7073D01*
X12203D02*
Y6933D01*
X12202D02*
Y7073D01*
X12201D02*
Y6933D01*
X12200D02*
Y7073D01*
X12199D02*
Y6933D01*
X12198D02*
Y7073D01*
X12197D02*
Y6933D01*
X12196D02*
Y7073D01*
X12195D02*
Y6933D01*
X12194D02*
Y7073D01*
X12193D02*
Y6933D01*
X12192D02*
Y7073D01*
X12191D02*
Y6933D01*
X12190D02*
Y7073D01*
X12189D02*
Y6933D01*
X12188D02*
Y7073D01*
X12187D02*
Y6933D01*
X12186D02*
Y7073D01*
X12185D02*
Y6933D01*
X12184D02*
Y7073D01*
X12183D02*
Y6933D01*
X12182D02*
Y7073D01*
X12181D02*
Y6933D01*
X12180D02*
Y7073D01*
X12179D02*
Y6933D01*
X12178D02*
Y7073D01*
X12177D02*
Y6933D01*
X12176D02*
Y7073D01*
X12175D02*
Y6933D01*
X12174D02*
Y7073D01*
X12173D02*
Y6933D01*
X12172D02*
Y7073D01*
X12171D02*
Y6933D01*
X12170D02*
Y7073D01*
X12169D02*
Y6933D01*
X12168D02*
Y7073D01*
X12167D02*
Y6933D01*
X12166D02*
Y7073D01*
X12165D02*
Y6933D01*
X12164D02*
Y7073D01*
X12163D02*
Y6933D01*
X12162D02*
Y7073D01*
X12161D02*
Y6933D01*
X12160D02*
Y7073D01*
X12159D02*
Y6933D01*
X12158D02*
Y7073D01*
X12157D02*
Y6933D01*
X12156D02*
Y7073D01*
X12155D02*
Y6933D01*
X12154D02*
Y7073D01*
X12153D02*
Y6933D01*
X12152D02*
Y7073D01*
X12151D02*
Y6933D01*
X12150D02*
Y7073D01*
X12149D02*
Y6933D01*
X12148D02*
Y7073D01*
X12147D02*
Y6933D01*
X12146D02*
Y7073D01*
X12145D02*
Y6933D01*
X12144D02*
Y7073D01*
X12143D02*
Y6933D01*
X12142D02*
Y7073D01*
X12141D02*
Y6933D01*
X12140D02*
Y7073D01*
X12139D02*
Y6933D01*
X12138D02*
Y7073D01*
X12137D02*
Y6933D01*
X12136D02*
Y7073D01*
X12135D02*
Y6933D01*
X12134D02*
Y7073D01*
X12133D02*
Y6933D01*
X12132D02*
Y7073D01*
X12131D02*
Y6933D01*
X12130D02*
Y7073D01*
X12129D02*
Y6933D01*
X12128D02*
Y7073D01*
X12127D02*
Y6933D01*
X12126D02*
Y7073D01*
X12277Y8339D02*
Y8359D01*
X12174Y8048D02*
Y8028D01*
X12135D02*
Y8048D01*
X12261Y8221D02*
Y8241D01*
Y8170D02*
Y8150D01*
X12124Y8077D02*
Y8075D01*
Y8094D02*
Y8096D01*
X12205Y8150D02*
Y8170D01*
X12279Y8094D02*
Y8077D01*
X12205Y8221D02*
Y8241D01*
X12250Y8125D02*
Y8108D01*
X12216D02*
Y8125D01*
X12250Y8297D02*
Y8314D01*
X12216D02*
Y8297D01*
X12156Y8094D02*
Y8077D01*
X12122D02*
Y8075D01*
Y8094D02*
Y8096D01*
X12111Y8339D02*
Y8359D01*
X12123Y8076D02*
X12122Y8075D01*
X12123Y8076D02*
X12124Y8077D01*
Y8094D02*
X12123Y8095D01*
X12122Y8096D01*
X12135Y8143D02*
X12139Y8147D01*
Y8173D02*
X12135Y8177D01*
X12113Y8179D02*
X12107Y8173D01*
Y8147D02*
X12113Y8141D01*
X12170Y8244D02*
X12176Y8250D01*
X12170Y8218D02*
X12176Y8212D01*
X12107Y8218D02*
X12104Y8214D01*
X12107Y8244D02*
X12104Y8248D01*
X12145Y7093D02*
X12154Y7083D01*
X12162Y7918D02*
X12152Y7927D01*
X12123Y7898D02*
X12133Y7889D01*
X12152Y7864D02*
X12162Y7855D01*
X12133Y7826D02*
X12123Y7835D01*
X12286Y7864D02*
X12296Y7855D01*
X12267Y7826D02*
X12257Y7835D01*
X12287Y8330D02*
X12277Y8339D01*
X12164Y8057D02*
X12174Y8048D01*
X12145Y8019D02*
X12135Y8028D01*
X12170Y8244D02*
X12167Y8248D01*
X12164Y8250D01*
X12139Y8218D02*
X12145Y8212D01*
X12290Y8250D02*
X12300Y8241D01*
X12271Y8212D02*
X12261Y8221D01*
X12170Y8173D02*
X12167Y8177D01*
X12164Y8179D01*
X12139Y8147D02*
X12145Y8141D01*
X12290Y8179D02*
X12300Y8170D01*
X12271Y8141D02*
X12261Y8150D01*
X12122Y8096D02*
X12116Y8102D01*
X12196Y8179D02*
X12205Y8170D01*
X12176Y8141D02*
X12176Y8141D01*
X12170Y8147D01*
X12135Y8177D02*
X12133Y8179D01*
X12279Y8077D02*
X12288Y8068D01*
X12205Y8241D02*
X12196Y8250D01*
X12139Y8244D02*
X12135Y8248D01*
X12133Y8250D01*
X12107Y8218D02*
X12113Y8212D01*
X12242Y8134D02*
X12250Y8125D01*
X12225Y8100D02*
X12216Y8108D01*
X12250Y8314D02*
X12242Y8323D01*
X12216Y8297D02*
X12225Y8289D01*
X12147Y8102D02*
X12156Y8094D01*
X12130Y8068D02*
X12123Y8076D01*
X12122Y8077D01*
X12121Y8361D02*
X12114Y8369D01*
X12104Y8177D02*
X12107Y8173D01*
X12131Y8360D02*
X12129Y8361D01*
X12162Y7898D02*
X12152Y7889D01*
X12123Y7918D02*
X12133Y7927D01*
X12162Y7835D02*
X12152Y7826D01*
X12123Y7855D02*
X12133Y7864D01*
X12286Y7826D02*
X12296Y7835D01*
X12267Y7864D02*
X12257Y7855D01*
X12277Y8359D02*
X12287Y8368D01*
X12174Y8028D02*
X12164Y8019D01*
X12135Y8048D02*
X12145Y8057D01*
X12164Y8212D02*
X12167Y8214D01*
X12170Y8218D01*
X12139Y8244D02*
X12145Y8250D01*
X12290Y8212D02*
X12300Y8221D01*
X12271Y8250D02*
X12261Y8241D01*
X12167Y8143D02*
X12164Y8141D01*
X12167Y8143D02*
X12170Y8147D01*
X12139Y8173D02*
X12145Y8179D01*
X12290Y8141D02*
X12300Y8150D01*
X12271Y8179D02*
X12261Y8170D01*
X12122Y8075D02*
X12116Y8068D01*
X12196Y8141D02*
X12205Y8150D01*
X12176Y8179D02*
X12170Y8173D01*
X12133Y8141D02*
X12133Y8141D01*
X12133Y8141D02*
X12135Y8143D01*
X12279Y8094D02*
X12288Y8102D01*
X12196Y8212D02*
X12205Y8221D01*
X12135Y8214D02*
X12133Y8212D01*
X12135Y8214D02*
X12139Y8218D01*
X12107Y8244D02*
X12113Y8250D01*
X12250Y8108D02*
X12242Y8100D01*
X12216Y8125D02*
X12225Y8134D01*
X12242Y8289D02*
X12250Y8297D01*
X12225Y8323D02*
X12216Y8314D01*
X12156Y8077D02*
X12147Y8068D01*
X12122Y8094D02*
X12123Y8095D01*
X12130Y8102D01*
X12141Y8361D02*
X12148Y8369D01*
X12107Y8147D02*
X12104Y8143D01*
X12131Y8360D02*
X12133Y8361D01*
X12445Y7918D02*
Y7898D01*
X12407D02*
Y7918D01*
X12336Y7813D02*
Y7811D01*
X12379Y7825D02*
Y7739D01*
X12336Y7813D02*
Y7825D01*
X12321Y7073D02*
Y6933D01*
X12320D02*
Y7073D01*
X12319D02*
Y6933D01*
X12318D02*
Y7073D01*
X12317D02*
Y6933D01*
X12316D02*
Y7073D01*
X12315D02*
Y6933D01*
X12314D02*
Y7073D01*
X12313D02*
Y6933D01*
X12312D02*
Y7073D01*
X12311D02*
Y6933D01*
X12310D02*
Y7073D01*
X12309D02*
Y6933D01*
X12308D02*
Y7073D01*
X12307D02*
Y6933D01*
X12306D02*
Y7073D01*
X12305D02*
Y6933D01*
X12304D02*
Y7073D01*
X12303D02*
Y6933D01*
X12302D02*
Y7073D01*
X12301D02*
Y6933D01*
X12300D02*
Y7073D01*
X12406Y7371D02*
Y7390D01*
X12458Y7587D02*
Y7607D01*
Y7548D02*
Y7548D01*
Y7548D02*
Y7567D01*
Y7567D01*
X12494Y6947D02*
Y6940D01*
Y6947D02*
Y7027D01*
Y7034D01*
Y7058D02*
Y7065D01*
Y7073D01*
X12493Y6947D02*
Y6941D01*
Y6947D02*
Y7027D01*
Y7033D01*
Y7059D02*
Y7065D01*
Y7073D01*
X12492Y7027D02*
Y6947D01*
Y7065D02*
Y7073D01*
X12491Y7027D02*
Y6947D01*
Y7065D02*
Y7073D01*
X12490Y7027D02*
Y6947D01*
Y7065D02*
Y7073D01*
X12489Y7027D02*
Y6947D01*
Y7065D02*
Y7073D01*
X12488Y7027D02*
Y6947D01*
Y7065D02*
Y7073D01*
X12487Y7027D02*
Y6947D01*
Y7065D02*
Y7073D01*
X12486Y7027D02*
Y6947D01*
Y7065D02*
Y7073D01*
X12485Y7027D02*
Y6947D01*
Y7065D02*
Y7073D01*
X12484Y7027D02*
Y6947D01*
Y7065D02*
Y7073D01*
X12483Y7027D02*
Y6947D01*
Y7065D02*
Y7073D01*
X12482Y7027D02*
Y6947D01*
Y7065D02*
Y7073D01*
X12481Y7027D02*
Y6947D01*
Y7065D02*
Y7073D01*
X12480Y7027D02*
Y6947D01*
Y7065D02*
Y7073D01*
X12479Y7027D02*
Y6947D01*
Y7065D02*
Y7073D01*
X12478Y7027D02*
Y6947D01*
Y7065D02*
Y7073D01*
X12477Y7027D02*
Y6947D01*
Y7065D02*
Y7073D01*
X12476Y7027D02*
Y6947D01*
Y7065D02*
Y7073D01*
X12475Y7027D02*
Y6947D01*
Y7065D02*
Y7073D01*
X12474Y7027D02*
Y6947D01*
Y7065D02*
Y7073D01*
X12473Y7027D02*
Y6947D01*
Y7065D02*
Y7073D01*
X12472Y7027D02*
Y6947D01*
Y7065D02*
Y7073D01*
X12471Y7027D02*
Y6947D01*
Y7065D02*
Y7073D01*
X12470Y7027D02*
Y6947D01*
Y7065D02*
Y7073D01*
X12469Y7027D02*
Y6947D01*
Y7065D02*
Y7073D01*
X12468Y7027D02*
Y6947D01*
Y7065D02*
Y7073D01*
X12467Y7027D02*
Y6947D01*
Y7065D02*
Y7073D01*
X12466Y7027D02*
Y6947D01*
Y7065D02*
Y7073D01*
X12465Y7027D02*
Y6947D01*
Y7065D02*
Y7073D01*
X12464Y7027D02*
Y6947D01*
Y7065D02*
Y7073D01*
X12463Y7027D02*
Y6947D01*
Y7065D02*
Y7073D01*
X12462Y7027D02*
Y6947D01*
Y7065D02*
Y7073D01*
X12461Y6947D02*
Y6940D01*
Y6947D02*
Y7027D01*
Y7033D01*
Y7059D02*
Y7065D01*
Y7073D01*
X12460Y6947D02*
Y6939D01*
Y6947D02*
Y7027D01*
Y7034D01*
Y7058D02*
Y7065D01*
Y7073D01*
X12459Y6947D02*
Y6938D01*
Y6947D02*
Y7027D01*
Y7035D01*
Y7057D02*
Y7065D01*
Y7073D01*
X12458D02*
Y6933D01*
X12457D02*
Y7036D01*
Y7056D02*
Y7073D01*
X12456Y7027D02*
Y6933D01*
Y7027D02*
Y7035D01*
Y7057D02*
Y7065D01*
Y7073D01*
X12455Y7027D02*
Y6933D01*
Y7027D02*
Y7034D01*
Y7058D02*
Y7065D01*
Y7073D01*
X12454Y7027D02*
Y6933D01*
Y7027D02*
Y7033D01*
Y7059D02*
Y7065D01*
Y7073D01*
X12453Y7027D02*
Y6933D01*
Y7065D02*
Y7073D01*
X12452Y7027D02*
Y6933D01*
Y7065D02*
Y7073D01*
X12451Y7027D02*
Y6933D01*
Y7065D02*
Y7073D01*
X12450Y7027D02*
Y6933D01*
Y7065D02*
Y7073D01*
X12449Y7027D02*
Y6933D01*
Y7065D02*
Y7073D01*
X12448Y7027D02*
Y6933D01*
Y7065D02*
Y7073D01*
X12447Y7027D02*
Y6933D01*
Y7065D02*
Y7073D01*
X12446Y7027D02*
Y6933D01*
Y7065D02*
Y7073D01*
X12445Y7027D02*
Y6933D01*
Y7065D02*
Y7073D01*
X12444Y7027D02*
Y6933D01*
Y7065D02*
Y7073D01*
X12443Y7027D02*
Y6933D01*
Y7065D02*
Y7073D01*
X12442Y7027D02*
Y6933D01*
Y7065D02*
Y7073D01*
X12441Y7027D02*
Y6933D01*
Y7065D02*
Y7073D01*
X12440Y7027D02*
Y6933D01*
Y7065D02*
Y7073D01*
X12439Y7027D02*
Y6933D01*
Y7065D02*
Y7073D01*
X12438Y7027D02*
Y6933D01*
Y7065D02*
Y7073D01*
X12437Y7027D02*
Y6933D01*
Y7065D02*
Y7073D01*
X12436Y7027D02*
Y6933D01*
Y7065D02*
Y7073D01*
X12435Y7027D02*
Y6933D01*
Y7065D02*
Y7073D01*
X12434Y7027D02*
Y6933D01*
Y7065D02*
Y7073D01*
X12433Y7027D02*
Y6933D01*
Y7065D02*
Y7073D01*
X12432Y7027D02*
Y6933D01*
Y7065D02*
Y7073D01*
X12431Y7027D02*
Y6933D01*
Y7065D02*
Y7073D01*
X12430Y7027D02*
Y6933D01*
Y7065D02*
Y7073D01*
X12429Y7027D02*
Y6933D01*
Y7065D02*
Y7073D01*
X12428Y7027D02*
Y6933D01*
Y7065D02*
Y7073D01*
X12427Y7027D02*
Y6933D01*
Y7065D02*
Y7073D01*
X12426Y7027D02*
Y6933D01*
Y7065D02*
Y7073D01*
X12425Y7027D02*
Y6933D01*
Y7065D02*
Y7073D01*
X12424Y7027D02*
Y6933D01*
Y7065D02*
Y7073D01*
X12423Y7027D02*
Y6933D01*
Y7065D02*
Y7073D01*
X12422Y7027D02*
Y6933D01*
Y7027D02*
Y7033D01*
Y7059D02*
Y7065D01*
Y7073D01*
X12421Y7027D02*
Y6933D01*
Y7027D02*
Y7034D01*
Y7058D02*
Y7065D01*
Y7073D01*
X12420Y7027D02*
Y6933D01*
Y7027D02*
Y7035D01*
Y7057D02*
Y7065D01*
Y7073D01*
X12419Y7036D02*
Y6933D01*
Y7056D02*
Y7073D01*
X12418D02*
Y6933D01*
X12417D02*
Y7073D01*
X12416D02*
Y6933D01*
X12415D02*
Y7073D01*
X12414D02*
Y6933D01*
X12413D02*
Y7073D01*
X12412D02*
Y6933D01*
X12411D02*
Y7073D01*
X12410D02*
Y6933D01*
X12409D02*
Y7073D01*
X12408D02*
Y6933D01*
X12407D02*
Y7073D01*
X12406D02*
Y6933D01*
X12405D02*
Y7073D01*
X12404D02*
Y6933D01*
X12403D02*
Y7073D01*
X12402D02*
Y6933D01*
X12401D02*
Y7073D01*
X12400D02*
Y6933D01*
X12399D02*
Y7073D01*
X12398D02*
Y6933D01*
X12397D02*
Y7073D01*
X12396D02*
Y6933D01*
X12395D02*
Y7073D01*
X12394D02*
Y6933D01*
X12393D02*
Y7073D01*
X12392D02*
Y6933D01*
X12391D02*
Y7073D01*
X12390D02*
Y6933D01*
X12389D02*
Y7073D01*
X12388D02*
Y6933D01*
X12387D02*
Y7073D01*
X12386D02*
Y6933D01*
X12385D02*
Y7073D01*
X12384D02*
Y6933D01*
X12383D02*
Y7073D01*
X12382D02*
Y6933D01*
X12381D02*
Y7073D01*
X12380D02*
Y6933D01*
X12379D02*
Y7073D01*
X12378D02*
Y6933D01*
X12377D02*
Y7073D01*
X12376D02*
Y6933D01*
X12375D02*
Y7073D01*
X12374D02*
Y6933D01*
X12373D02*
Y7073D01*
X12372D02*
Y6933D01*
X12371D02*
Y7073D01*
X12370D02*
Y6933D01*
X12369D02*
Y7073D01*
X12368D02*
Y6933D01*
X12367D02*
Y7073D01*
X12366D02*
Y6933D01*
X12365D02*
Y7073D01*
X12364D02*
Y6933D01*
X12363D02*
Y7073D01*
X12362D02*
Y6933D01*
X12361D02*
Y7073D01*
X12360D02*
Y6933D01*
X12359D02*
Y7073D01*
X12358D02*
Y6933D01*
X12357D02*
Y7073D01*
X12356D02*
Y6933D01*
X12355D02*
Y7073D01*
X12354D02*
Y6933D01*
X12353D02*
Y7073D01*
X12352D02*
Y6933D01*
X12351D02*
Y7073D01*
X12350D02*
Y6933D01*
X12349D02*
Y7073D01*
X12348D02*
Y6933D01*
X12347D02*
Y7073D01*
X12346D02*
Y6933D01*
X12345D02*
Y7073D01*
X12344D02*
Y6933D01*
X12343D02*
Y7073D01*
X12342D02*
Y6933D01*
X12341D02*
Y7073D01*
X12340D02*
Y6933D01*
X12339D02*
Y7073D01*
X12338D02*
Y6933D01*
X12337D02*
Y7073D01*
X12336D02*
Y6933D01*
X12335D02*
Y7073D01*
X12334D02*
Y6933D01*
X12457Y7036D02*
Y7056D01*
X12419D02*
Y7036D01*
X12458Y6937D02*
Y6933D01*
Y7036D02*
Y7056D01*
X12343Y7784D02*
Y7804D01*
X12367Y7390D02*
Y7371D01*
X12375Y7670D02*
Y7689D01*
X12410Y7660D02*
Y7184D01*
Y7660D02*
Y7667D01*
Y7693D02*
Y7699D01*
X12336Y7775D02*
Y7219D01*
Y7775D02*
Y7777D01*
X12458Y7331D02*
Y7312D01*
Y7391D02*
Y7410D01*
Y7545D02*
Y7548D01*
Y7545D01*
Y7213D02*
Y7194D01*
Y7666D02*
Y7685D01*
X12457Y7213D02*
Y7194D01*
X12419D02*
Y7213D01*
X12458Y7469D02*
Y7489D01*
X12457D02*
Y7469D01*
X12419D02*
Y7489D01*
X12458Y7627D02*
Y7646D01*
X12414Y7670D02*
Y7689D01*
X12457Y7685D02*
Y7666D01*
X12419D02*
Y7685D01*
X12457Y7292D02*
Y7272D01*
X12419D02*
Y7292D01*
X12379Y7223D02*
Y7361D01*
Y7400D02*
Y7660D01*
Y7667D01*
Y7693D02*
Y7699D01*
Y7731D01*
X12333Y7073D02*
Y6933D01*
X12332D02*
Y7073D01*
X12331D02*
Y6933D01*
X12330D02*
Y7073D01*
X12329D02*
Y6933D01*
X12328D02*
Y7073D01*
X12327D02*
Y6933D01*
X12326D02*
Y7073D01*
X12325D02*
Y6933D01*
X12324D02*
Y7073D01*
X12323D02*
Y6933D01*
X12322D02*
Y7073D01*
X12449Y8339D02*
Y8359D01*
X12411D02*
Y8339D01*
X12455Y8278D02*
Y8259D01*
X12417D02*
Y8278D01*
X12376Y8297D02*
Y8314D01*
X12342D02*
Y8297D01*
X12453Y8142D02*
Y8123D01*
X12415D02*
Y8142D01*
X12376Y8125D02*
Y8108D01*
X12342D02*
Y8125D01*
X12316Y8339D02*
Y8359D01*
X12300Y8241D02*
Y8221D01*
Y8170D02*
Y8150D01*
X12313Y8094D02*
Y8077D01*
X12485Y7869D02*
Y8369D01*
X12334Y7847D02*
Y7820D01*
X12407Y7833D02*
Y7847D01*
X12445D02*
Y7833D01*
X12445Y7918D02*
X12436Y7927D01*
X12407Y7898D02*
X12416Y7889D01*
X12396Y7400D02*
X12406Y7390D01*
X12497Y7607D02*
X12487Y7616D01*
X12458Y7587D02*
X12468Y7578D01*
X12448Y7065D02*
X12457Y7056D01*
X12428Y7027D02*
X12419Y7036D01*
X12487Y6947D02*
X12497Y6937D01*
Y7056D02*
X12487Y7065D01*
X12458Y7036D02*
X12468Y7027D01*
X12343Y7804D02*
X12336Y7811D01*
X12367Y7371D02*
X12377Y7361D01*
X12410Y7693D02*
X12404Y7699D01*
X12375Y7670D02*
X12385Y7660D01*
X12336Y7219D02*
X12371Y7184D01*
X12497Y7331D02*
X12487Y7341D01*
X12458Y7312D02*
X12468Y7302D01*
X12497Y7410D02*
X12487Y7420D01*
X12458Y7391D02*
X12468Y7381D01*
X12497Y7567D02*
X12487Y7577D01*
X12468Y7538D02*
X12468Y7538D01*
X12468Y7538D02*
X12458Y7548D01*
X12487Y7577D02*
X12497Y7567D01*
X12468Y7538D02*
X12458Y7548D01*
X12487Y7223D02*
X12497Y7213D01*
X12468Y7184D02*
X12458Y7194D01*
X12497Y7685D02*
X12487Y7695D01*
X12458Y7666D02*
X12468Y7657D01*
X12448Y7223D02*
X12457Y7213D01*
X12428Y7184D02*
X12419Y7194D01*
X12497Y7489D02*
X12487Y7498D01*
X12458Y7469D02*
X12468Y7460D01*
X12457Y7489D02*
X12448Y7498D01*
X12419Y7469D02*
X12428Y7460D01*
X12497Y7646D02*
X12487Y7656D01*
X12458Y7627D02*
X12468Y7617D01*
X12414Y7689D02*
X12404Y7699D01*
X12379Y7667D02*
X12385Y7660D01*
X12448Y7695D02*
X12457Y7685D01*
X12428Y7657D02*
X12419Y7666D01*
X12448Y7301D02*
X12457Y7292D01*
X12428Y7263D02*
X12419Y7272D01*
X12379Y7223D02*
X12418Y7184D01*
X12449Y8359D02*
X12440Y8368D01*
X12411Y8339D02*
X12420Y8330D01*
X12446Y8288D02*
X12455Y8278D01*
X12426Y8249D02*
X12417Y8259D01*
X12376Y8314D02*
X12368Y8323D01*
X12342Y8297D02*
X12351Y8289D01*
X12444Y8152D02*
X12453Y8142D01*
X12424Y8113D02*
X12415Y8123D01*
X12376Y8125D02*
X12368Y8134D01*
X12342Y8108D02*
X12351Y8100D01*
X12316Y8359D02*
X12306Y8368D01*
X12305Y8102D02*
X12313Y8094D01*
X12407Y7833D02*
X12416Y7824D01*
X12436Y7889D02*
X12445Y7898D01*
X12416Y7927D02*
X12407Y7918D01*
X12406Y7371D02*
X12396Y7361D01*
X12487Y7578D02*
X12497Y7587D01*
X12468Y7616D02*
X12458Y7607D01*
X12457Y7036D02*
X12448Y7027D01*
X12419Y7056D02*
X12428Y7065D01*
X12468Y6947D02*
X12458Y6937D01*
X12487Y7027D02*
X12497Y7036D01*
X12468Y7065D02*
X12458Y7056D01*
X12336Y7777D02*
X12343Y7784D01*
X12377Y7400D02*
X12367Y7390D01*
X12404Y7660D02*
X12410Y7667D01*
X12385Y7699D02*
X12375Y7689D01*
X12497Y7312D02*
X12487Y7302D01*
X12458Y7331D02*
X12468Y7341D01*
X12487Y7381D02*
X12497Y7391D01*
X12468Y7420D02*
X12458Y7410D01*
X12487Y7538D02*
X12487Y7538D01*
X12497Y7548D01*
X12468Y7577D02*
X12458Y7567D01*
X12487Y7538D02*
X12497Y7548D01*
X12468Y7577D02*
X12458Y7567D01*
X12497Y7194D02*
X12487Y7184D01*
X12458Y7213D02*
X12468Y7223D01*
X12487Y7657D02*
X12497Y7666D01*
X12468Y7695D02*
X12458Y7685D01*
X12457Y7194D02*
X12448Y7184D01*
X12419Y7213D02*
X12428Y7223D01*
X12487Y7460D02*
X12497Y7469D01*
X12468Y7498D02*
X12458Y7489D01*
X12457Y7469D02*
X12448Y7460D01*
X12419Y7489D02*
X12428Y7498D01*
X12487Y7617D02*
X12497Y7627D01*
X12468Y7656D02*
X12458Y7646D01*
X12414Y7670D02*
X12404Y7660D01*
X12379Y7693D02*
X12385Y7699D01*
X12448Y7657D02*
X12457Y7666D01*
X12428Y7695D02*
X12419Y7685D01*
X12457Y7272D02*
X12448Y7263D01*
X12419Y7292D02*
X12428Y7301D01*
X12379Y7731D02*
X12414Y7766D01*
X12440Y8330D02*
X12449Y8339D01*
X12420Y8368D02*
X12411Y8359D01*
X12455Y8259D02*
X12446Y8249D01*
X12417Y8278D02*
X12426Y8288D01*
X12376Y8297D02*
X12368Y8289D01*
X12342Y8314D02*
X12351Y8323D01*
X12453Y8123D02*
X12444Y8113D01*
X12415Y8142D02*
X12424Y8152D01*
X12376Y8108D02*
X12368Y8100D01*
X12342Y8125D02*
X12351Y8134D01*
X12306Y8330D02*
X12316Y8339D01*
X12313Y8077D02*
X12305Y8068D01*
X12445Y7833D02*
X12436Y7824D01*
X12497Y7646D02*
Y7627D01*
Y7548D02*
Y7548D01*
Y7548D02*
Y7567D01*
Y7567D01*
X12497Y7587D02*
Y7607D01*
Y7548D02*
Y7548D01*
Y7548D02*
Y7567D01*
Y7567D01*
X12516Y6987D02*
Y6933D01*
Y7026D02*
Y7073D01*
X12515Y6987D02*
Y6933D01*
Y7026D02*
Y7073D01*
X12514Y6987D02*
Y6933D01*
Y7026D02*
Y7073D01*
X12513Y6987D02*
Y6933D01*
Y7026D02*
Y7073D01*
X12512Y6987D02*
Y6933D01*
Y7026D02*
Y7073D01*
X12511Y6987D02*
Y6933D01*
Y7026D02*
Y7073D01*
X12510Y6987D02*
Y6933D01*
Y7026D02*
Y7073D01*
X12509Y6987D02*
Y6933D01*
Y7026D02*
Y7073D01*
X12508Y6987D02*
Y6933D01*
Y7026D02*
Y7073D01*
X12507Y6987D02*
Y6933D01*
Y7026D02*
Y7073D01*
X12506Y6987D02*
Y6933D01*
Y7026D02*
Y7073D01*
X12505Y6987D02*
Y6933D01*
Y7026D02*
Y7073D01*
X12504Y6987D02*
Y6933D01*
Y7026D02*
Y7073D01*
X12503Y6987D02*
Y6933D01*
Y7026D02*
Y7073D01*
X12502Y6987D02*
Y6933D01*
Y7026D02*
Y7073D01*
X12501Y6987D02*
Y6933D01*
Y6987D02*
Y6993D01*
Y7020D02*
Y7026D01*
Y7073D01*
X12500Y6987D02*
Y6933D01*
Y6987D02*
Y6994D01*
Y7019D02*
Y7026D01*
Y7073D01*
X12499Y6987D02*
Y6933D01*
Y6987D02*
Y6995D01*
Y7018D02*
Y7026D01*
Y7073D01*
X12498Y6996D02*
Y6933D01*
Y7017D02*
Y7073D01*
X12497D02*
Y6933D01*
X12496Y6938D02*
Y7036D01*
Y7056D02*
Y7073D01*
X12495Y6947D02*
Y6939D01*
Y6947D02*
Y7027D01*
Y7035D01*
Y7057D02*
Y7065D01*
Y7073D01*
X12497Y7016D02*
Y6997D01*
X12497Y6937D02*
Y6933D01*
Y7036D02*
Y7056D01*
X12497Y7272D02*
Y7292D01*
Y7312D02*
Y7331D01*
Y7545D02*
Y7548D01*
Y7545D01*
Y7489D02*
Y7469D01*
Y7252D02*
Y7233D01*
X12497Y7430D02*
Y7449D01*
X12497Y7410D02*
Y7391D01*
Y7587D02*
Y7607D01*
X12497Y7371D02*
Y7351D01*
X12497Y7331D02*
Y7312D01*
Y7391D02*
Y7410D01*
Y7545D02*
Y7548D01*
Y7545D01*
Y7213D02*
Y7194D01*
Y7666D02*
Y7685D01*
X12497Y7489D02*
Y7469D01*
Y7627D02*
Y7646D01*
X12655Y7548D02*
Y7548D01*
Y7548D02*
Y7567D01*
Y7567D01*
Y7587D02*
Y7607D01*
Y7627D02*
Y7646D01*
X12654Y7567D02*
Y7548D01*
X12616D02*
Y7567D01*
X12654Y7528D02*
Y7509D01*
X12616D02*
Y7528D01*
X12575Y7627D02*
Y7646D01*
X12537D02*
Y7627D01*
X12575Y7607D02*
Y7587D01*
X12537D02*
Y7607D01*
X12536Y7627D02*
Y7646D01*
Y7548D02*
Y7548D01*
Y7548D02*
Y7567D01*
Y7567D01*
X12575Y7509D02*
Y7509D01*
Y7509D02*
Y7528D01*
Y7528D01*
X12537Y7509D02*
Y7509D01*
Y7509D02*
Y7528D01*
Y7528D01*
X12615Y7548D02*
Y7567D01*
X12576D02*
Y7548D01*
X12655Y7509D02*
Y7509D01*
Y7509D02*
Y7528D01*
Y7528D01*
X12690Y7073D02*
Y6933D01*
Y7073D02*
Y7084D01*
X12689Y7073D02*
Y6933D01*
Y7073D02*
Y7083D01*
X12688Y7073D02*
Y6933D01*
Y7073D02*
Y7082D01*
X12687Y7073D02*
Y6933D01*
Y7073D02*
Y7081D01*
X12686Y7073D02*
Y6933D01*
Y7073D02*
Y7080D01*
X12685Y7073D02*
Y6933D01*
X12684D02*
Y7073D01*
X12683D02*
Y6933D01*
X12682D02*
Y7073D01*
X12681D02*
Y6933D01*
X12680D02*
Y7073D01*
X12679Y7073D02*
Y6933D01*
X12678D02*
Y7072D01*
X12677Y7071D02*
Y6933D01*
X12676D02*
Y7070D01*
X12675Y7069D02*
Y6933D01*
X12674D02*
Y7069D01*
X12673Y7070D02*
Y6933D01*
X12672D02*
Y7071D01*
X12671Y7072D02*
Y6933D01*
X12670D02*
Y7073D01*
X12669Y7073D02*
Y6933D01*
X12668D02*
Y7073D01*
X12667D02*
Y6933D01*
X12666D02*
Y7073D01*
X12665D02*
Y6933D01*
X12664D02*
Y7073D01*
X12663D02*
Y6933D01*
X12662D02*
Y7073D01*
X12661D02*
Y6933D01*
X12660D02*
Y7073D01*
X12659D02*
Y6933D01*
X12658D02*
Y7073D01*
X12657D02*
Y6933D01*
X12656D02*
Y7073D01*
X12655D02*
Y6933D01*
X12654D02*
Y7073D01*
X12653D02*
Y6933D01*
X12652D02*
Y7073D01*
X12651D02*
Y6933D01*
X12650D02*
Y7073D01*
X12649D02*
Y6933D01*
X12648D02*
Y7073D01*
X12647D02*
Y6933D01*
X12646D02*
Y7073D01*
X12645D02*
Y6933D01*
X12644D02*
Y7073D01*
X12643D02*
Y6933D01*
X12642D02*
Y7073D01*
X12641D02*
Y6933D01*
X12640D02*
Y7073D01*
X12639D02*
Y6933D01*
X12638D02*
Y7073D01*
X12637D02*
Y6933D01*
X12636D02*
Y7073D01*
X12635D02*
Y6933D01*
X12634D02*
Y7073D01*
X12633D02*
Y6933D01*
X12632D02*
Y7073D01*
X12631D02*
Y6933D01*
X12630D02*
Y7073D01*
X12629D02*
Y6933D01*
X12628D02*
Y7073D01*
X12627D02*
Y6933D01*
X12626D02*
Y7073D01*
X12625D02*
Y6933D01*
X12624D02*
Y7073D01*
X12623D02*
Y6933D01*
X12622D02*
Y7073D01*
X12621D02*
Y6933D01*
X12620D02*
Y7073D01*
X12619D02*
Y6933D01*
X12618D02*
Y7073D01*
X12617D02*
Y6933D01*
X12616D02*
Y7073D01*
X12615D02*
Y6933D01*
X12614Y6938D02*
Y6996D01*
Y7017D02*
Y7073D01*
X12613Y6947D02*
Y6939D01*
Y6947D02*
Y6987D01*
Y6995D01*
Y7018D02*
Y7026D01*
Y7073D01*
X12612Y6947D02*
Y6940D01*
Y6947D02*
Y6987D01*
Y6994D01*
Y7019D02*
Y7026D01*
Y7073D01*
X12611Y6987D02*
Y6947D01*
Y7026D02*
Y7073D01*
X12610Y6987D02*
Y6947D01*
Y7026D02*
Y7073D01*
X12609Y6987D02*
Y6947D01*
Y7026D02*
Y7073D01*
X12608Y6987D02*
Y6947D01*
Y7026D02*
Y7073D01*
X12607Y6987D02*
Y6947D01*
Y7026D02*
Y7073D01*
X12606Y6987D02*
Y6947D01*
Y7026D02*
Y7073D01*
X12605Y6987D02*
Y6947D01*
Y7026D02*
Y7073D01*
X12604Y6987D02*
Y6947D01*
Y7026D02*
Y7073D01*
X12603Y6987D02*
Y6947D01*
Y7026D02*
Y7073D01*
X12602Y6987D02*
Y6947D01*
Y7026D02*
Y7073D01*
X12601Y6987D02*
Y6947D01*
Y7026D02*
Y7073D01*
X12600Y6987D02*
Y6947D01*
Y7026D02*
Y7073D01*
X12599Y6987D02*
Y6947D01*
Y7026D02*
Y7073D01*
X12598Y6987D02*
Y6947D01*
Y7026D02*
Y7073D01*
X12597Y6987D02*
Y6947D01*
Y7026D02*
Y7073D01*
X12596Y6987D02*
Y6947D01*
Y7026D02*
Y7073D01*
X12595Y6987D02*
Y6947D01*
Y7026D02*
Y7073D01*
X12594Y6987D02*
Y6947D01*
Y7026D02*
Y7073D01*
X12593Y6987D02*
Y6947D01*
Y7026D02*
Y7073D01*
X12592Y6987D02*
Y6947D01*
Y7026D02*
Y7073D01*
X12591Y6987D02*
Y6947D01*
Y7026D02*
Y7073D01*
X12590Y6987D02*
Y6947D01*
Y7026D02*
Y7073D01*
X12589Y6987D02*
Y6947D01*
Y7026D02*
Y7073D01*
X12588Y6987D02*
Y6947D01*
Y7026D02*
Y7073D01*
X12587Y6987D02*
Y6947D01*
Y7026D02*
Y7073D01*
X12586Y6987D02*
Y6947D01*
Y7026D02*
Y7073D01*
X12585Y6987D02*
Y6947D01*
Y7026D02*
Y7073D01*
X12584Y6987D02*
Y6947D01*
Y7026D02*
Y7073D01*
X12583Y6987D02*
Y6947D01*
Y7026D02*
Y7073D01*
X12582Y6987D02*
Y6947D01*
Y7026D02*
Y7073D01*
X12581Y6987D02*
Y6947D01*
Y7026D02*
Y7073D01*
X12580Y6987D02*
Y6947D01*
Y7026D02*
Y7073D01*
X12579Y6947D02*
Y6940D01*
Y6947D02*
Y6987D01*
Y6994D01*
Y7019D02*
Y7026D01*
Y7073D01*
X12578Y6947D02*
Y6939D01*
Y6947D02*
Y6987D01*
Y6995D01*
Y7018D02*
Y7026D01*
Y7073D01*
X12577Y6947D02*
Y6938D01*
Y6947D02*
Y6987D01*
Y6996D01*
Y7017D02*
Y7026D01*
Y7073D01*
X12576D02*
Y6933D01*
X12575Y6938D02*
Y7073D01*
X12574Y6947D02*
Y6939D01*
Y6947D02*
Y7073D01*
X12573Y6947D02*
Y6940D01*
Y6947D02*
Y7073D01*
X12572Y6947D02*
Y6941D01*
Y6947D02*
Y7073D01*
X12571D02*
Y6947D01*
X12570D02*
Y7073D01*
X12569D02*
Y6947D01*
X12568D02*
Y7073D01*
X12567D02*
Y6947D01*
X12566D02*
Y7073D01*
X12565D02*
Y6947D01*
X12564D02*
Y7073D01*
X12563D02*
Y6947D01*
X12562D02*
Y7073D01*
X12561D02*
Y6947D01*
X12560D02*
Y7073D01*
X12559D02*
Y6947D01*
X12558D02*
Y7073D01*
X12557D02*
Y6947D01*
X12556D02*
Y7073D01*
X12555D02*
Y6947D01*
X12554D02*
Y7073D01*
X12553D02*
Y6947D01*
X12552D02*
Y7073D01*
X12551D02*
Y6947D01*
X12550D02*
Y7073D01*
X12549D02*
Y6947D01*
X12548D02*
Y7073D01*
X12547D02*
Y6947D01*
X12546D02*
Y7073D01*
X12545D02*
Y6947D01*
X12544D02*
Y7073D01*
X12543D02*
Y6947D01*
X12542D02*
Y7073D01*
X12541D02*
Y6947D01*
X12540D02*
Y6941D01*
Y6947D02*
Y7073D01*
X12539Y6947D02*
Y6940D01*
Y6947D02*
Y7073D01*
X12538Y6947D02*
Y6939D01*
Y6947D02*
Y7073D01*
X12537D02*
Y6938D01*
X12536Y6933D02*
Y6997D01*
Y7016D02*
Y7073D01*
X12535Y6987D02*
Y6933D01*
Y6987D02*
Y6996D01*
Y7017D02*
Y7026D01*
Y7073D01*
X12534Y6987D02*
Y6933D01*
Y6987D02*
Y6995D01*
Y7018D02*
Y7026D01*
Y7073D01*
X12533Y6987D02*
Y6933D01*
Y6987D02*
Y6994D01*
Y7019D02*
Y7026D01*
Y7073D01*
X12532Y6987D02*
Y6933D01*
Y7026D02*
Y7073D01*
X12531Y6987D02*
Y6933D01*
Y7026D02*
Y7073D01*
X12530Y6987D02*
Y6933D01*
Y7026D02*
Y7073D01*
X12529Y6987D02*
Y6933D01*
Y7026D02*
Y7073D01*
X12536Y7016D02*
Y6997D01*
X12575Y6937D02*
Y6933D01*
X12537D02*
Y6937D01*
X12615D02*
Y6933D01*
X12576D02*
Y6937D01*
X12615Y6997D02*
Y7016D01*
X12576D02*
Y6997D01*
X12686Y7073D02*
Y7080D01*
X12654Y7233D02*
Y7252D01*
X12616D02*
Y7233D01*
X12615D02*
Y7252D01*
X12576D02*
Y7233D01*
X12615Y7430D02*
Y7449D01*
X12576D02*
Y7430D01*
X12655Y7371D02*
Y7351D01*
X12655Y7213D02*
Y7194D01*
X12654D02*
Y7213D01*
X12616D02*
Y7194D01*
X12615D02*
Y7213D01*
X12576D02*
Y7194D01*
X12575D02*
Y7213D01*
X12537D02*
Y7194D01*
X12615Y7272D02*
Y7292D01*
X12576D02*
Y7272D01*
X12575D02*
Y7292D01*
X12537D02*
Y7272D01*
X12536D02*
Y7292D01*
X12615Y7312D02*
Y7331D01*
X12576D02*
Y7312D01*
X12575D02*
Y7331D01*
X12537D02*
Y7312D01*
X12536D02*
Y7331D01*
X12654Y7351D02*
Y7371D01*
X12616D02*
Y7351D01*
X12615D02*
Y7371D01*
X12576D02*
Y7351D01*
X12575D02*
Y7371D01*
X12537D02*
Y7351D01*
X12654Y7391D02*
Y7410D01*
X12616D02*
Y7391D01*
X12615D02*
Y7410D01*
X12576D02*
Y7391D01*
X12575Y7391D02*
Y7410D01*
X12537D02*
Y7391D01*
X12575Y7430D02*
Y7449D01*
X12537D02*
Y7430D01*
X12655Y7545D02*
Y7548D01*
X12615Y7666D02*
Y7685D01*
X12576D02*
Y7666D01*
X12654Y7607D02*
Y7587D01*
X12616D02*
Y7587D01*
Y7587D02*
Y7607D01*
Y7607D01*
X12615Y7607D02*
Y7587D01*
X12576D02*
Y7587D01*
Y7587D02*
Y7607D01*
Y7607D01*
X12536Y7548D02*
Y7545D01*
X12575Y7509D02*
Y7506D01*
X12537D02*
Y7509D01*
X12536Y7545D02*
Y7548D01*
X12575Y7509D02*
Y7506D01*
X12537D02*
Y7509D01*
X12654Y7627D02*
Y7646D01*
X12616D02*
Y7627D01*
X12536Y7489D02*
Y7469D01*
Y7252D02*
Y7233D01*
X12575Y7233D02*
Y7252D01*
X12537D02*
Y7233D01*
X12536Y7430D02*
Y7449D01*
X12615Y7469D02*
Y7489D01*
X12576D02*
Y7469D01*
X12655Y7449D02*
Y7430D01*
Y7506D02*
Y7509D01*
X12654Y7292D02*
Y7272D01*
X12616D02*
Y7292D01*
X12536Y7391D02*
Y7410D01*
X12615Y7509D02*
Y7528D01*
X12576D02*
Y7509D01*
X12575Y7548D02*
Y7567D01*
X12537D02*
Y7548D01*
X12536Y7587D02*
Y7607D01*
X12615Y7587D02*
Y7587D01*
Y7587D02*
Y7607D01*
Y7607D01*
X12576Y7607D02*
Y7587D01*
X12655Y7509D02*
Y7506D01*
Y7545D02*
Y7548D01*
X12654Y7587D02*
Y7587D01*
Y7607D01*
Y7607D01*
X12616Y7607D02*
Y7587D01*
X12536Y7371D02*
Y7351D01*
X12528Y6987D02*
Y6933D01*
Y7026D02*
Y7073D01*
X12527Y6987D02*
Y6933D01*
Y7026D02*
Y7073D01*
X12526Y6987D02*
Y6933D01*
Y7026D02*
Y7073D01*
X12525Y6987D02*
Y6933D01*
Y7026D02*
Y7073D01*
X12524Y6987D02*
Y6933D01*
Y7026D02*
Y7073D01*
X12523Y6987D02*
Y6933D01*
Y7026D02*
Y7073D01*
X12522Y6987D02*
Y6933D01*
Y7026D02*
Y7073D01*
X12521Y6987D02*
Y6933D01*
Y7026D02*
Y7073D01*
X12520Y6987D02*
Y6933D01*
Y7026D02*
Y7073D01*
X12519Y6987D02*
Y6933D01*
Y7026D02*
Y7073D01*
X12518Y6987D02*
Y6933D01*
Y7026D02*
Y7073D01*
X12517Y6987D02*
Y6933D01*
Y7026D02*
Y7073D01*
X12507Y7617D02*
X12497Y7627D01*
Y6997D02*
X12507Y6987D01*
Y7263D02*
X12497Y7272D01*
X12507Y7302D02*
X12497Y7312D01*
X12507Y7538D02*
X12507Y7538D01*
X12497Y7548D01*
Y7548D02*
X12507Y7538D01*
X12497Y7469D02*
X12507Y7460D01*
X12497Y7233D02*
X12507Y7223D01*
X12507Y7420D02*
X12497Y7430D01*
X12497Y7391D02*
X12507Y7381D01*
Y7578D02*
X12497Y7587D01*
X12497Y7351D02*
X12507Y7342D01*
X12693Y7607D02*
X12684Y7616D01*
X12655Y7587D02*
X12665Y7578D01*
X12693Y7646D02*
X12684Y7656D01*
X12655Y7627D02*
X12665Y7617D01*
X12644Y7577D02*
X12654Y7567D01*
X12625Y7538D02*
X12616Y7548D01*
X12644Y7538D02*
X12654Y7528D01*
X12625Y7499D02*
X12616Y7509D01*
X12575Y7646D02*
X12566Y7656D01*
X12537Y7627D02*
X12546Y7617D01*
X12566Y7616D02*
X12575Y7607D01*
X12546Y7578D02*
X12537Y7587D01*
X12536Y7646D02*
X12526Y7656D01*
X12605Y7577D02*
X12615Y7567D01*
X12586Y7538D02*
X12576Y7548D01*
X12566Y6947D02*
X12575Y6937D01*
X12605Y6947D02*
X12615Y6937D01*
Y7016D02*
X12605Y7026D01*
X12576Y6997D02*
X12586Y6987D01*
X12669Y7073D02*
X12674Y7069D01*
X12654Y7252D02*
X12644Y7262D01*
X12616Y7233D02*
X12625Y7223D01*
X12615Y7252D02*
X12605Y7262D01*
X12576Y7233D02*
X12586Y7223D01*
X12615Y7449D02*
X12605Y7459D01*
X12576Y7430D02*
X12586Y7420D01*
X12684Y7380D02*
X12693Y7371D01*
X12665Y7342D02*
X12655Y7351D01*
X12684Y7223D02*
X12693Y7213D01*
X12665Y7184D02*
X12655Y7194D01*
X12654Y7213D02*
X12644Y7223D01*
X12616Y7194D02*
X12625Y7184D01*
X12615Y7213D02*
X12605Y7223D01*
X12576Y7194D02*
X12586Y7184D01*
X12575Y7213D02*
X12566Y7223D01*
X12537Y7194D02*
X12546Y7184D01*
X12615Y7292D02*
X12605Y7301D01*
X12576Y7272D02*
X12586Y7263D01*
X12575Y7292D02*
X12566Y7301D01*
X12537Y7272D02*
X12546Y7263D01*
X12615Y7331D02*
X12605Y7341D01*
X12576Y7312D02*
X12586Y7302D01*
X12575Y7331D02*
X12566Y7341D01*
X12537Y7312D02*
X12546Y7302D01*
X12644Y7380D02*
X12654Y7371D01*
X12625Y7342D02*
X12616Y7351D01*
X12615Y7371D02*
X12605Y7380D01*
X12576Y7351D02*
X12586Y7342D01*
X12575Y7371D02*
X12566Y7380D01*
X12537Y7351D02*
X12546Y7342D01*
X12644Y7420D02*
X12654Y7410D01*
X12625Y7381D02*
X12616Y7391D01*
X12615Y7410D02*
X12605Y7420D01*
X12576Y7391D02*
X12586Y7381D01*
X12575Y7410D02*
X12566Y7420D01*
X12537Y7391D02*
X12546Y7381D01*
X12575Y7449D02*
X12566Y7459D01*
X12537Y7430D02*
X12546Y7420D01*
X12693Y7567D02*
X12684Y7577D01*
X12665Y7538D02*
X12665Y7538D01*
X12665Y7538D02*
X12655Y7548D01*
X12615Y7685D02*
X12605Y7695D01*
X12576Y7666D02*
X12586Y7657D01*
X12654Y7607D02*
X12654Y7607D01*
X12654Y7607D02*
X12644Y7616D01*
X12616Y7587D02*
X12625Y7578D01*
X12615Y7607D02*
X12615Y7607D01*
X12605Y7616D01*
X12576Y7587D02*
X12586Y7578D01*
X12566Y7538D02*
X12575Y7528D01*
X12546Y7499D02*
X12546Y7499D01*
X12537Y7509D01*
X12566Y7538D02*
X12575Y7528D01*
X12546Y7499D02*
X12537Y7509D01*
X12654Y7646D02*
X12644Y7656D01*
X12616Y7627D02*
X12625Y7617D01*
X12566Y7262D02*
X12575Y7252D01*
X12546Y7223D02*
X12537Y7233D01*
X12615Y7489D02*
X12605Y7498D01*
X12576Y7469D02*
X12586Y7460D01*
X12684Y7459D02*
X12693Y7449D01*
X12665Y7420D02*
X12655Y7430D01*
X12693Y7528D02*
X12684Y7538D01*
X12665Y7499D02*
X12665Y7499D01*
X12665Y7499D02*
X12655Y7509D01*
X12644Y7301D02*
X12654Y7292D01*
X12625Y7263D02*
X12616Y7272D01*
X12615Y7528D02*
X12605Y7538D01*
X12576Y7509D02*
X12586Y7499D01*
X12575Y7567D02*
X12566Y7577D01*
X12537Y7548D02*
X12546Y7538D01*
X12615Y7607D02*
X12605Y7616D01*
X12576Y7587D02*
X12586Y7578D01*
X12684Y7538D02*
X12693Y7528D01*
X12665Y7499D02*
X12655Y7509D01*
X12693Y7567D02*
X12684Y7577D01*
X12655Y7548D02*
X12665Y7538D01*
X12654Y7607D02*
X12644Y7616D01*
X12616Y7587D02*
X12625Y7578D01*
X12526Y7026D02*
X12536Y7016D01*
Y7292D02*
X12526Y7301D01*
X12536Y7331D02*
X12526Y7341D01*
X12536Y7567D02*
X12526Y7577D01*
Y7577D02*
X12536Y7567D01*
X12526Y7498D02*
X12536Y7489D01*
X12526Y7262D02*
X12536Y7252D01*
X12536Y7449D02*
X12526Y7459D01*
X12526Y7420D02*
X12536Y7410D01*
Y7607D02*
X12526Y7616D01*
X12526Y7380D02*
X12536Y7371D01*
X12497Y7646D02*
X12507Y7656D01*
Y7026D02*
X12497Y7016D01*
Y7292D02*
X12507Y7301D01*
X12497Y7331D02*
X12507Y7341D01*
X12497Y7567D02*
X12507Y7577D01*
Y7577D02*
X12497Y7567D01*
X12507Y7498D02*
X12497Y7489D01*
X12507Y7262D02*
X12497Y7252D01*
X12497Y7449D02*
X12507Y7459D01*
X12507Y7420D02*
X12497Y7410D01*
Y7607D02*
X12507Y7616D01*
X12507Y7380D02*
X12497Y7371D01*
X12684Y7578D02*
X12693Y7587D01*
X12665Y7616D02*
X12655Y7607D01*
X12684Y7617D02*
X12693Y7627D01*
X12665Y7656D02*
X12655Y7646D01*
X12654Y7548D02*
X12644Y7538D01*
X12616Y7567D02*
X12625Y7577D01*
X12654Y7509D02*
X12644Y7499D01*
X12616Y7528D02*
X12625Y7538D01*
X12566Y7617D02*
X12575Y7627D01*
X12546Y7656D02*
X12537Y7646D01*
X12575Y7587D02*
X12566Y7578D01*
X12537Y7607D02*
X12546Y7616D01*
X12536Y7627D02*
X12526Y7617D01*
X12605Y7538D02*
X12615Y7548D01*
X12586Y7577D02*
X12576Y7567D01*
X12546Y6947D02*
X12537Y6937D01*
X12576D02*
X12586Y6947D01*
X12605Y6987D02*
X12615Y6997D01*
X12586Y7026D02*
X12576Y7016D01*
X12674Y7069D02*
X12679Y7073D01*
X12686Y7080D01*
X12690Y7084D01*
X12694Y7089D01*
X12644Y7223D02*
X12654Y7233D01*
X12625Y7262D02*
X12616Y7252D01*
X12615Y7233D02*
X12605Y7223D01*
X12576Y7252D02*
X12586Y7262D01*
X12605Y7420D02*
X12615Y7430D01*
X12586Y7459D02*
X12576Y7449D01*
X12684Y7342D02*
X12693Y7351D01*
X12665Y7380D02*
X12655Y7371D01*
X12693Y7194D02*
X12684Y7184D01*
X12655Y7213D02*
X12665Y7223D01*
X12654Y7194D02*
X12644Y7184D01*
X12616Y7213D02*
X12625Y7223D01*
X12615Y7194D02*
X12605Y7184D01*
X12576Y7213D02*
X12586Y7223D01*
X12575Y7194D02*
X12566Y7184D01*
X12537Y7213D02*
X12546Y7223D01*
X12605Y7263D02*
X12615Y7272D01*
X12586Y7301D02*
X12576Y7292D01*
X12575Y7272D02*
X12566Y7263D01*
X12537Y7292D02*
X12546Y7301D01*
X12605Y7302D02*
X12615Y7312D01*
X12586Y7341D02*
X12576Y7331D01*
X12575Y7312D02*
X12566Y7302D01*
X12537Y7331D02*
X12546Y7341D01*
X12644Y7342D02*
X12654Y7351D01*
X12625Y7380D02*
X12616Y7371D01*
X12615Y7351D02*
X12605Y7342D01*
X12576Y7371D02*
X12586Y7380D01*
X12575Y7351D02*
X12566Y7342D01*
X12537Y7371D02*
X12546Y7380D01*
X12644Y7381D02*
X12654Y7391D01*
X12625Y7420D02*
X12616Y7410D01*
X12615Y7391D02*
X12605Y7381D01*
X12576Y7410D02*
X12586Y7420D01*
X12575Y7391D02*
X12566Y7381D01*
X12537Y7410D02*
X12546Y7420D01*
X12566Y7420D02*
X12575Y7430D01*
X12546Y7459D02*
X12537Y7449D01*
X12684Y7538D02*
X12684Y7538D01*
X12693Y7548D01*
X12665Y7577D02*
X12655Y7567D01*
X12605Y7657D02*
X12615Y7666D01*
X12586Y7695D02*
X12576Y7685D01*
X12654Y7587D02*
X12644Y7578D01*
X12654Y7587D02*
X12654Y7587D01*
X12625Y7616D02*
X12616Y7607D01*
X12615Y7587D02*
X12605Y7578D01*
X12615Y7587D02*
X12615Y7587D01*
X12586Y7616D02*
X12576Y7607D01*
X12566Y7499D02*
X12566Y7499D01*
X12566Y7499D02*
X12575Y7509D01*
X12546Y7538D02*
X12537Y7528D01*
X12566Y7499D02*
X12575Y7509D01*
X12546Y7538D02*
X12537Y7528D01*
X12644Y7617D02*
X12654Y7627D01*
X12625Y7656D02*
X12616Y7646D01*
X12575Y7233D02*
X12566Y7223D01*
X12537Y7252D02*
X12546Y7262D01*
X12605Y7460D02*
X12615Y7469D01*
X12586Y7498D02*
X12576Y7489D01*
X12684Y7420D02*
X12693Y7430D01*
X12665Y7459D02*
X12655Y7449D01*
X12684Y7499D02*
X12684Y7499D01*
X12693Y7509D01*
X12665Y7538D02*
X12655Y7528D01*
X12654Y7272D02*
X12644Y7263D01*
X12616Y7292D02*
X12625Y7301D01*
X12605Y7499D02*
X12615Y7509D01*
X12586Y7538D02*
X12576Y7528D01*
X12566Y7538D02*
X12575Y7548D01*
X12546Y7577D02*
X12537Y7567D01*
X12605Y7578D02*
X12615Y7587D01*
X12586Y7616D02*
X12576Y7607D01*
X12684Y7499D02*
X12693Y7509D01*
X12665Y7538D02*
X12655Y7528D01*
X12684Y7538D02*
X12693Y7548D01*
X12665Y7577D02*
X12655Y7567D01*
X12644Y7578D02*
X12654Y7587D01*
X12625Y7616D02*
X12616Y7607D01*
X12536Y6997D02*
X12526Y6987D01*
Y7263D02*
X12536Y7272D01*
X12526Y7302D02*
X12536Y7312D01*
X12526Y7538D02*
X12526Y7538D01*
X12536Y7548D01*
Y7548D02*
X12526Y7538D01*
X12536Y7469D02*
X12526Y7460D01*
X12536Y7233D02*
X12526Y7223D01*
X12526Y7420D02*
X12536Y7430D01*
X12536Y7391D02*
X12526Y7381D01*
Y7578D02*
X12536Y7587D01*
X12536Y7351D02*
X12526Y7342D01*
X12694Y7469D02*
Y7489D01*
Y7509D02*
Y7509D01*
Y7528D01*
Y7528D01*
X12693Y7548D02*
Y7548D01*
Y7567D01*
Y7567D01*
Y7587D02*
Y7607D01*
Y7627D02*
Y7646D01*
Y7509D02*
Y7509D01*
Y7509D02*
Y7528D01*
Y7528D01*
X12712Y7105D02*
Y6933D01*
X12711D02*
Y7105D01*
X12710Y7104D02*
Y6933D01*
X12709D02*
Y7103D01*
X12708Y7102D02*
Y6933D01*
X12707D02*
Y7101D01*
X12706Y7100D02*
Y6933D01*
X12705D02*
Y7099D01*
X12704Y7098D02*
Y6933D01*
X12703D02*
Y7097D01*
X12702Y7096D02*
Y6933D01*
X12701D02*
Y7095D01*
X12700Y7094D02*
Y6933D01*
X12699D02*
Y7093D01*
X12698Y7092D02*
Y6933D01*
X12697D02*
Y7091D01*
X12696Y7090D02*
Y6933D01*
X12695D02*
Y7089D01*
X12694Y7073D02*
Y6933D01*
Y7073D02*
Y7088D01*
X12693Y7073D02*
Y6933D01*
Y7073D02*
Y7087D01*
X12692Y7073D02*
Y6933D01*
Y7073D02*
Y7086D01*
X12691Y7073D02*
Y6933D01*
Y7073D02*
Y7085D01*
X12694Y7351D02*
Y7371D01*
Y7391D02*
Y7410D01*
Y7430D02*
Y7449D01*
Y7548D02*
Y7567D01*
Y7587D02*
Y7607D01*
Y7509D02*
Y7506D01*
X12694Y7666D02*
Y7685D01*
X12694Y7509D02*
Y7506D01*
X12693Y7371D02*
Y7351D01*
X12693Y7213D02*
Y7194D01*
Y7545D02*
Y7548D01*
Y7449D02*
Y7430D01*
Y7506D02*
Y7509D01*
Y7506D01*
Y7545D02*
Y7548D01*
X12851Y7489D02*
Y7469D01*
X12812D02*
Y7489D01*
X12772Y7627D02*
Y7627D01*
Y7646D01*
Y7646D01*
X12734Y7627D02*
Y7627D01*
Y7627D02*
Y7646D01*
Y7646D01*
X12852Y7607D02*
Y7587D01*
Y7627D02*
Y7646D01*
X12733Y7489D02*
Y7469D01*
Y7509D02*
Y7509D01*
Y7528D01*
Y7528D01*
X12767Y7145D02*
Y7105D01*
X12766D02*
Y7145D01*
X12765D02*
Y7105D01*
X12764D02*
Y7145D01*
X12763D02*
Y7105D01*
X12762D02*
Y7145D01*
X12761D02*
Y7105D01*
X12760D02*
Y7145D01*
X12759D02*
Y7105D01*
X12758D02*
Y7145D01*
X12757D02*
Y7105D01*
X12756D02*
Y7145D01*
X12755D02*
Y7105D01*
X12754D02*
Y7145D01*
X12753D02*
Y7105D01*
X12752D02*
Y7145D01*
X12751D02*
Y7105D01*
X12750D02*
Y7145D01*
X12749D02*
Y7105D01*
X12748D02*
Y7145D01*
X12747D02*
Y7105D01*
X12746D02*
Y7145D01*
X12745D02*
Y7105D01*
X12744D02*
Y7145D01*
X12743D02*
Y7105D01*
X12742D02*
Y7145D01*
X12741D02*
Y7105D01*
X12740D02*
Y7145D01*
X12739D02*
Y7105D01*
X12738D02*
Y7145D01*
X12737Y6947D02*
Y6941D01*
Y6948D02*
Y6954D01*
Y6980D02*
Y6986D01*
Y6987D02*
Y6993D01*
Y7020D02*
Y7026D01*
Y7027D02*
Y7033D01*
Y7059D02*
Y7065D01*
Y7066D02*
Y7072D01*
Y7098D02*
Y7105D01*
Y7145D01*
X12736Y6947D02*
Y6940D01*
Y6948D02*
Y6955D01*
Y6979D02*
Y6986D01*
Y6987D02*
Y6994D01*
Y7019D02*
Y7026D01*
Y7027D02*
Y7034D01*
Y7058D02*
Y7065D01*
Y7066D02*
Y7073D01*
Y7097D02*
Y7105D01*
Y7145D01*
X12735Y6947D02*
Y6939D01*
Y6948D02*
Y6956D01*
Y6978D02*
Y6986D01*
Y6987D02*
Y6995D01*
Y7018D02*
Y7026D01*
Y7027D02*
Y7035D01*
Y7057D02*
Y7065D01*
Y7066D02*
Y7074D01*
Y7096D02*
Y7105D01*
Y7145D01*
X12734Y6957D02*
Y6938D01*
Y6977D02*
Y6996D01*
Y7017D02*
Y7036D01*
Y7056D02*
Y7075D01*
Y7095D02*
Y7149D01*
X12733D02*
Y6933D01*
X12732D02*
Y7105D01*
Y7114D01*
Y7135D02*
Y7144D01*
X12731Y7105D02*
Y6933D01*
Y7105D02*
Y7113D01*
Y7136D02*
Y7144D01*
X12730Y7105D02*
Y6933D01*
Y7105D02*
Y7112D01*
Y7137D02*
Y7144D01*
X12729Y7105D02*
Y6933D01*
X12728D02*
Y7105D01*
X12727D02*
Y6933D01*
X12726D02*
Y7105D01*
X12725D02*
Y6933D01*
X12734Y7036D02*
Y7056D01*
X12733Y7115D02*
Y7134D01*
X12734Y6937D02*
Y6933D01*
Y6958D02*
Y6977D01*
Y6997D02*
Y7016D01*
Y7076D02*
Y7095D01*
X12768Y6947D02*
Y6942D01*
Y6947D02*
Y6948D01*
Y6953D01*
Y6981D02*
Y6986D01*
Y6987D01*
Y6992D01*
Y7021D02*
Y7026D01*
Y7027D01*
Y7032D01*
Y7060D02*
Y7065D01*
Y7066D01*
Y7071D01*
Y7099D02*
Y7105D01*
Y7145D01*
Y7149D01*
Y7150D01*
X12867Y6955D02*
Y6951D01*
X12733Y7351D02*
Y7371D01*
Y7391D02*
Y7410D01*
X12772Y7624D02*
Y7627D01*
X12734D02*
Y7624D01*
X12812Y7607D02*
Y7587D01*
X12773D02*
Y7587D01*
Y7587D02*
Y7607D01*
Y7607D01*
X12851Y7607D02*
Y7587D01*
X12812D02*
Y7587D01*
Y7587D02*
Y7607D01*
Y7607D01*
X12851Y7627D02*
Y7646D01*
X12812D02*
Y7627D01*
X12733Y7449D02*
Y7430D01*
X12772Y7469D02*
Y7489D01*
X12734D02*
Y7469D01*
X12733Y7548D02*
Y7567D01*
X12772Y7528D02*
Y7509D01*
X12734D02*
Y7528D01*
X12733Y7587D02*
Y7607D01*
X12772D02*
Y7587D01*
X12734D02*
Y7607D01*
X12772Y7624D02*
Y7627D01*
X12734D02*
Y7624D01*
X12812Y7567D02*
Y7548D01*
X12773D02*
Y7567D01*
X12851Y7528D02*
Y7509D01*
X12812D02*
Y7528D01*
X12851Y7548D02*
Y7567D01*
X12812D02*
Y7548D01*
X12852Y7528D02*
Y7509D01*
Y7548D02*
Y7567D01*
X12733Y7509D02*
Y7506D01*
X12772Y7548D02*
Y7567D01*
X12734D02*
Y7548D01*
X12812Y7627D02*
Y7646D01*
X12773D02*
Y7627D01*
X12733Y7666D02*
Y7685D01*
X12733Y7509D02*
Y7506D01*
X12812Y7489D02*
Y7469D01*
X12773D02*
Y7489D01*
X12812Y7587D02*
Y7587D01*
Y7607D01*
Y7607D01*
X12773Y7607D02*
Y7587D01*
X12851D02*
Y7587D01*
Y7587D02*
Y7607D01*
Y7607D01*
X12812Y7607D02*
Y7587D01*
X12733Y7381D02*
Y7223D01*
X12812Y7262D02*
Y6987D01*
X12852Y7194D02*
Y7213D01*
Y7174D02*
Y7154D01*
Y7095D02*
Y7076D01*
Y7056D02*
Y7036D01*
Y7016D02*
Y6997D01*
X12851Y6977D02*
Y6958D01*
Y7272D02*
Y7292D01*
X12852Y7252D02*
Y7233D01*
X12843Y6950D02*
Y6948D01*
Y6947D01*
X12772Y6958D02*
Y6977D01*
X12812D02*
Y6958D01*
X12765Y7223D02*
Y7227D01*
Y7223D02*
Y7221D01*
Y7186D02*
Y7184D01*
Y7183D01*
Y7181D01*
Y7147D02*
Y7145D01*
Y7105D01*
Y7102D01*
Y7068D02*
Y7066D01*
Y7065D01*
Y7063D01*
Y7029D02*
Y7027D01*
Y7026D01*
Y7024D01*
Y6989D02*
Y6987D01*
Y6983D01*
X12808D02*
Y7266D01*
X12772Y7056D02*
Y7036D01*
Y7194D02*
Y7213D01*
Y7174D02*
Y7154D01*
Y7016D02*
Y6997D01*
Y7076D02*
Y7095D01*
X12724Y7105D02*
Y6933D01*
X12723D02*
Y7105D01*
X12722D02*
Y6933D01*
X12721D02*
Y7105D01*
X12720D02*
Y6933D01*
X12719D02*
Y7105D01*
X12718D02*
Y6933D01*
X12717D02*
Y7105D01*
X12716D02*
Y6933D01*
X12715D02*
Y7105D01*
X12714D02*
Y6933D01*
X12713D02*
Y7105D01*
X12859Y6951D02*
X12867Y6955D01*
X12822Y6986D02*
X12817Y6982D01*
X12846Y6953D02*
X12851Y6958D01*
X12822Y7263D02*
X12817Y7268D01*
X12846Y7297D02*
X12851Y7292D01*
X12847Y6947D02*
X12847Y6947D01*
X12704Y7460D02*
X12694Y7469D01*
Y7351D02*
X12704Y7342D01*
Y7381D02*
X12694Y7391D01*
X12704Y7420D02*
X12694Y7430D01*
X12704Y7538D02*
X12694Y7548D01*
X12704Y7578D02*
X12694Y7587D01*
X12704Y7499D02*
X12704Y7499D01*
X12704Y7499D02*
X12694Y7509D01*
X12704Y7657D02*
X12694Y7666D01*
X12694Y7509D02*
X12704Y7499D01*
X12841Y7498D02*
X12851Y7489D01*
X12822Y7460D02*
X12812Y7469D01*
X12890Y7607D02*
X12881Y7616D01*
X12852Y7587D02*
X12861Y7578D01*
X12890Y7646D02*
X12881Y7656D01*
X12852Y7627D02*
X12861Y7617D01*
X12733Y7489D02*
X12723Y7498D01*
X12763Y7065D02*
X12768Y7060D01*
X12743Y7027D02*
X12734Y7036D01*
X12743Y7145D02*
X12739Y7149D01*
X12763Y6947D02*
X12768Y6942D01*
Y6981D02*
X12763Y6986D01*
X12734Y6958D02*
X12743Y6948D01*
X12768Y7021D02*
X12763Y7026D01*
X12734Y6997D02*
X12743Y6987D01*
X12768Y7099D02*
X12763Y7105D01*
X12734Y7076D02*
X12743Y7066D01*
X12772Y7646D02*
X12763Y7656D01*
X12734Y7627D02*
X12743Y7617D01*
X12812Y7607D02*
X12812Y7607D01*
X12812Y7607D02*
X12802Y7616D01*
X12773Y7587D02*
X12783Y7578D01*
X12851Y7607D02*
X12851Y7607D01*
X12851Y7607D02*
X12841Y7616D01*
X12812Y7587D02*
X12822Y7578D01*
X12851Y7646D02*
X12841Y7656D01*
X12812Y7627D02*
X12822Y7617D01*
X12763Y7498D02*
X12772Y7489D01*
X12743Y7460D02*
X12734Y7469D01*
X12772Y7528D02*
X12763Y7538D01*
X12734Y7509D02*
X12743Y7499D01*
X12772Y7607D02*
X12763Y7616D01*
X12734Y7587D02*
X12743Y7578D01*
X12772Y7646D02*
X12763Y7656D01*
X12743Y7617D02*
X12743Y7617D01*
X12743Y7617D02*
X12734Y7627D01*
X12802Y7577D02*
X12812Y7567D01*
X12783Y7538D02*
X12773Y7548D01*
X12841Y7538D02*
X12851Y7528D01*
X12822Y7499D02*
X12812Y7509D01*
X12851Y7567D02*
X12841Y7577D01*
X12812Y7548D02*
X12822Y7538D01*
X12881Y7538D02*
X12890Y7528D01*
X12861Y7499D02*
X12852Y7509D01*
X12890Y7567D02*
X12881Y7577D01*
X12852Y7548D02*
X12861Y7538D01*
X12772Y7567D02*
X12763Y7577D01*
X12734Y7548D02*
X12743Y7538D01*
X12812Y7646D02*
X12802Y7656D01*
X12773Y7627D02*
X12783Y7617D01*
X12802Y7498D02*
X12812Y7489D01*
X12783Y7460D02*
X12773Y7469D01*
X12812Y7607D02*
X12802Y7616D01*
X12773Y7587D02*
X12783Y7578D01*
X12841Y7616D02*
X12851Y7607D01*
X12822Y7578D02*
X12812Y7587D01*
X12812Y6987D02*
X12812Y6986D01*
X12817Y6982D01*
X12846Y6953D02*
X12851Y6948D01*
X12851Y6947D01*
X12861Y7184D02*
X12852Y7194D01*
X12881Y7223D02*
X12890Y7213D01*
X12852Y7154D02*
X12861Y7145D01*
X12890Y7174D02*
X12881Y7183D01*
X12852Y7076D02*
X12861Y7066D01*
X12890Y7095D02*
X12881Y7105D01*
X12852Y7036D02*
X12861Y7027D01*
X12890Y7056D02*
X12881Y7065D01*
X12852Y6997D02*
X12861Y6987D01*
X12890Y7016D02*
X12881Y7026D01*
X12841Y6986D02*
X12851Y6977D01*
X12861Y7223D02*
X12852Y7233D01*
X12881Y7262D02*
X12890Y7252D01*
X12766Y6983D02*
X12772Y6977D01*
X12812Y6958D02*
X12822Y6948D01*
X12772Y7056D02*
X12765Y7063D01*
X12772Y7213D02*
X12765Y7221D01*
Y7181D02*
X12772Y7174D01*
X12765Y7024D02*
X12772Y7016D01*
Y7095D02*
X12765Y7102D01*
X12733Y7134D02*
X12724Y7143D01*
X12733Y7371D02*
X12723Y7380D01*
X12733Y7410D02*
X12723Y7420D01*
X12733Y7449D02*
X12723Y7459D01*
X12733Y7567D02*
X12723Y7577D01*
X12733Y7607D02*
X12723Y7616D01*
Y7538D02*
X12733Y7528D01*
X12733Y7685D02*
X12723Y7695D01*
X12723Y7538D02*
X12733Y7528D01*
X12704Y7498D02*
X12694Y7489D01*
X12703Y7097D02*
X12694Y7089D01*
X12703Y7097D02*
X12711Y7105D01*
X12694Y7371D02*
X12704Y7380D01*
X12694Y7410D02*
X12704Y7420D01*
X12694Y7449D02*
X12704Y7459D01*
X12694Y7567D02*
X12704Y7577D01*
X12694Y7607D02*
X12704Y7616D01*
Y7538D02*
X12694Y7528D01*
X12694Y7685D02*
X12704Y7695D01*
X12704Y7538D02*
X12694Y7528D01*
X12733Y7223D02*
X12694Y7184D01*
X12841Y7460D02*
X12851Y7469D01*
X12822Y7498D02*
X12812Y7489D01*
X12881Y7578D02*
X12890Y7587D01*
X12861Y7616D02*
X12852Y7607D01*
X12881Y7617D02*
X12890Y7627D01*
X12861Y7656D02*
X12852Y7646D01*
X12733Y7469D02*
X12723Y7460D01*
X12768Y7032D02*
X12763Y7027D01*
X12734Y7056D02*
X12743Y7065D01*
X12763Y7145D02*
X12767Y7149D01*
X12768Y7150D01*
X12743Y6947D02*
X12734Y6937D01*
X12763Y6948D02*
X12768Y6953D01*
X12743Y6986D02*
X12734Y6977D01*
X12763Y6987D02*
X12768Y6992D01*
X12743Y7026D02*
X12734Y7016D01*
X12763Y7066D02*
X12768Y7071D01*
X12743Y7105D02*
X12734Y7095D01*
X12725Y7144D02*
X12730Y7149D01*
X12763Y7617D02*
X12772Y7627D01*
X12743Y7656D02*
X12734Y7646D01*
X12802Y7578D02*
X12812Y7587D01*
X12812Y7587D01*
X12783Y7616D02*
X12773Y7607D01*
X12841Y7578D02*
X12851Y7587D01*
X12851Y7587D01*
X12822Y7616D02*
X12812Y7607D01*
X12841Y7617D02*
X12851Y7627D01*
X12822Y7656D02*
X12812Y7646D01*
X12772Y7469D02*
X12763Y7460D01*
X12734Y7489D02*
X12743Y7498D01*
X12763Y7499D02*
X12772Y7509D01*
X12743Y7538D02*
X12734Y7528D01*
X12763Y7578D02*
X12772Y7587D01*
X12743Y7616D02*
X12734Y7607D01*
X12763Y7617D02*
X12763Y7617D01*
X12772Y7627D01*
X12743Y7656D02*
X12734Y7646D01*
X12812Y7548D02*
X12802Y7538D01*
X12773Y7567D02*
X12783Y7577D01*
X12851Y7509D02*
X12841Y7499D01*
X12812Y7528D02*
X12822Y7538D01*
X12841Y7538D02*
X12851Y7548D01*
X12822Y7577D02*
X12812Y7567D01*
X12881Y7499D02*
X12890Y7509D01*
X12861Y7538D02*
X12852Y7528D01*
X12881Y7538D02*
X12890Y7548D01*
X12861Y7577D02*
X12852Y7567D01*
X12772Y7548D02*
X12763Y7538D01*
X12734Y7567D02*
X12743Y7577D01*
X12802Y7617D02*
X12812Y7627D01*
X12783Y7656D02*
X12773Y7646D01*
X12812Y7469D02*
X12802Y7460D01*
X12773Y7489D02*
X12783Y7498D01*
X12802Y7578D02*
X12812Y7587D01*
X12783Y7616D02*
X12773Y7607D01*
X12841Y7578D02*
X12851Y7587D01*
X12822Y7616D02*
X12812Y7607D01*
X12769Y7416D02*
X12733Y7381D01*
X12851Y7301D02*
X12851Y7302D01*
X12851Y7301D02*
X12851Y7301D01*
X12846Y7297D01*
X12817Y7268D02*
X12812Y7263D01*
X12812Y7263D01*
X12812Y7262D01*
X12861Y7223D02*
X12852Y7213D01*
X12881Y7184D02*
X12890Y7194D01*
X12861Y7183D02*
X12852Y7174D01*
X12881Y7145D02*
X12890Y7154D01*
X12861Y7105D02*
X12852Y7095D01*
X12881Y7066D02*
X12890Y7076D01*
X12861Y7065D02*
X12852Y7056D01*
X12881Y7027D02*
X12890Y7036D01*
X12861Y7026D02*
X12852Y7016D01*
X12881Y6987D02*
X12890Y6997D01*
X12841Y7263D02*
X12851Y7272D01*
X12861Y7262D02*
X12852Y7252D01*
X12881Y7223D02*
X12890Y7233D01*
X12772Y6958D02*
X12763Y6948D01*
X12812Y6977D02*
X12818Y6983D01*
X12843Y6950D02*
X12841Y6948D01*
X12765Y7227D02*
X12804Y7266D01*
X12772Y7036D02*
X12765Y7029D01*
Y7186D02*
X12772Y7194D01*
Y7154D02*
X12765Y7147D01*
X12772Y6997D02*
X12765Y6989D01*
Y7068D02*
X12772Y7076D01*
X12733Y7115D02*
X12723Y7105D01*
X12724Y7143D02*
X12725Y7144D01*
X12723Y7342D02*
X12733Y7351D01*
X12723Y7381D02*
X12733Y7391D01*
X12723Y7420D02*
X12733Y7430D01*
X12723Y7538D02*
X12733Y7548D01*
X12723Y7578D02*
X12733Y7587D01*
X12723Y7499D02*
X12723Y7499D01*
X12723Y7499D02*
X12733Y7509D01*
X12723Y7657D02*
X12733Y7666D01*
X12733Y7509D02*
X12723Y7499D01*
X12891Y7627D02*
Y7646D01*
Y7607D02*
Y7587D01*
Y7489D02*
Y7469D01*
Y7449D02*
Y7430D01*
X12890Y7587D02*
Y7607D01*
Y7627D02*
Y7646D01*
X12891Y7567D02*
Y7548D01*
X12891D02*
Y7548D01*
Y7548D02*
Y7567D01*
Y7567D01*
Y7528D02*
Y7509D01*
X12890D02*
Y7528D01*
Y7548D02*
Y7567D01*
Y7213D02*
Y7194D01*
Y7174D02*
Y7154D01*
Y7095D02*
Y7076D01*
Y7056D02*
Y7036D01*
Y7016D02*
Y6997D01*
Y7233D02*
Y7252D01*
X12891Y7095D02*
Y7076D01*
Y7154D02*
Y7174D01*
Y7134D02*
Y7115D01*
Y7016D02*
Y6997D01*
Y7036D02*
Y7056D01*
Y7194D02*
Y7213D01*
X12930Y7430D02*
Y7449D01*
X12930Y7627D02*
Y7646D01*
X12969D02*
Y7627D01*
X12930D02*
Y7646D01*
X12930Y7607D02*
Y7587D01*
X12969D02*
Y7607D01*
X12930D02*
Y7587D01*
X12969Y7548D02*
Y7548D01*
Y7548D02*
Y7567D01*
Y7567D01*
X12930Y7548D02*
Y7548D01*
Y7548D02*
Y7567D01*
Y7567D01*
X12930Y7489D02*
Y7469D01*
Y7449D02*
Y7430D01*
X12969Y7469D02*
Y7489D01*
X12930D02*
Y7469D01*
X12969Y7739D02*
Y7829D01*
X12930Y7548D02*
Y7548D01*
Y7548D02*
Y7567D01*
Y7567D01*
X12969Y7548D02*
Y7545D01*
X12930D02*
Y7548D01*
X12969Y7509D02*
Y7509D01*
Y7509D02*
Y7528D01*
Y7528D01*
X12930Y7528D02*
Y7509D01*
X12930Y7548D02*
Y7567D01*
X12969Y7528D02*
Y7509D01*
X12930D02*
Y7509D01*
Y7509D02*
Y7528D01*
Y7528D01*
X12969Y7545D02*
Y7548D01*
X12930D02*
Y7545D01*
X12930Y7528D02*
Y7509D01*
X12969Y7455D02*
Y7731D01*
X12930Y7095D02*
Y7076D01*
Y7154D02*
Y7174D01*
X12930Y7134D02*
Y7115D01*
X12969D02*
Y7134D01*
X12930D02*
Y7115D01*
X12930Y7056D02*
Y7036D01*
X12969D02*
Y7056D01*
X12930Y7016D02*
Y6997D01*
X12930D02*
Y7016D01*
X12969D02*
Y6997D01*
X13009D02*
Y7016D01*
X13048D02*
Y6997D01*
X12970D02*
Y7016D01*
X13008D02*
Y6997D01*
X12970Y7036D02*
Y7056D01*
X13008D02*
Y7036D01*
X12970Y7076D02*
Y7095D01*
X13008D02*
Y7076D01*
X13009Y7056D02*
Y7036D01*
X13048D02*
Y7056D01*
X13049Y7016D02*
Y6997D01*
X12930Y7076D02*
Y7095D01*
X12969D02*
Y7076D01*
X12930Y7056D02*
Y7036D01*
X13009Y7233D02*
Y7252D01*
X13048D02*
Y7233D01*
X13049Y7213D02*
Y7194D01*
X12970Y7233D02*
Y7252D01*
X13008D02*
Y7233D01*
X13009Y7213D02*
Y7194D01*
X13048D02*
Y7213D01*
X13049Y7174D02*
Y7154D01*
Y7134D02*
Y7115D01*
X13009Y7154D02*
Y7174D01*
X13048D02*
Y7154D01*
X12970Y7194D02*
Y7213D01*
X13008D02*
Y7194D01*
X12930Y7233D02*
Y7252D01*
X12969D02*
Y7233D01*
X12930Y7213D02*
Y7194D01*
X12969D02*
Y7213D01*
X12970Y7174D02*
Y7154D01*
X13008D02*
Y7174D01*
X13009Y7134D02*
Y7115D01*
X13048D02*
Y7134D01*
X13049Y7095D02*
Y7076D01*
Y7056D02*
Y7036D01*
X13009Y7076D02*
Y7095D01*
X13048D02*
Y7076D01*
X12970Y7115D02*
Y7134D01*
X13008D02*
Y7115D01*
X12930Y7154D02*
Y7174D01*
X12969D02*
Y7154D01*
X12930Y7194D02*
Y7213D01*
X12969Y7827D02*
Y7847D01*
Y7827D02*
Y7820D01*
X12959Y7459D02*
X12966Y7452D01*
X12937Y7423D02*
X12930Y7430D01*
X12901Y7617D02*
X12891Y7627D01*
Y7587D02*
X12901Y7578D01*
X12891Y7469D02*
X12901Y7460D01*
X12891Y7430D02*
X12901Y7420D01*
X12901Y7538D02*
X12891Y7548D01*
X12891D02*
X12901Y7538D01*
X12891Y7509D02*
X12901Y7499D01*
X12891Y7076D02*
X12901Y7066D01*
Y7145D02*
X12891Y7154D01*
Y7115D02*
X12901Y7105D01*
X12891Y6997D02*
X12901Y6987D01*
Y7027D02*
X12891Y7036D01*
X12901Y7184D02*
X12891Y7194D01*
X12930Y7646D02*
X12920Y7656D01*
X12959D02*
X12969Y7646D01*
X12940Y7617D02*
X12930Y7627D01*
X12920Y7616D02*
X12930Y7607D01*
X12959Y7616D02*
X12969Y7607D01*
X12940Y7578D02*
X12930Y7587D01*
X12920Y7498D02*
X12930Y7489D01*
X12920Y7459D02*
X12930Y7449D01*
X12920Y7420D02*
X12924Y7416D01*
X12969Y7489D02*
X12959Y7498D01*
X12930Y7469D02*
X12940Y7460D01*
X12969Y7567D02*
X12959Y7577D01*
X12940Y7538D02*
X12940Y7538D01*
X12940Y7538D02*
X12930Y7548D01*
X12959Y7538D02*
X12969Y7528D01*
X12940Y7499D02*
X12930Y7509D01*
X12930Y7567D02*
X12930Y7567D01*
X12969Y7528D02*
X12969Y7528D01*
X12969Y7528D02*
X12959Y7538D01*
X12930Y7509D02*
X12940Y7499D01*
X12969Y7567D02*
X12959Y7577D01*
X12930Y7548D02*
X12940Y7538D01*
X12969Y7731D02*
X12934Y7766D01*
X12930Y7115D02*
X12940Y7105D01*
X12969Y7134D02*
X12959Y7144D01*
X12930Y7036D02*
X12940Y7027D01*
X12969Y7056D02*
X12959Y7065D01*
X12930Y6997D02*
X12940Y6987D01*
X12969Y7016D02*
X12959Y7026D01*
X13009Y6997D02*
X13019Y6987D01*
X13048Y7016D02*
X13038Y7026D01*
X12979Y6987D02*
X12970Y6997D01*
X12999Y7026D02*
X13008Y7016D01*
X12979Y7027D02*
X12970Y7036D01*
X12999Y7065D02*
X13008Y7056D01*
X12979Y7066D02*
X12970Y7076D01*
X12999Y7105D02*
X13008Y7095D01*
X13009Y7036D02*
X13019Y7027D01*
X13048Y7056D02*
X13038Y7065D01*
X13049Y6997D02*
X13058Y6987D01*
X13087Y7016D02*
X13078Y7026D01*
X12940Y7066D02*
X12930Y7076D01*
X12959Y7105D02*
X12969Y7095D01*
X13019Y7223D02*
X13009Y7233D01*
X13038Y7262D02*
X13048Y7252D01*
X13049Y7194D02*
X13058Y7184D01*
X13087Y7213D02*
X13078Y7223D01*
X12979Y7223D02*
X12970Y7233D01*
X12999Y7262D02*
X13008Y7252D01*
X13009Y7194D02*
X13019Y7184D01*
X13048Y7213D02*
X13038Y7223D01*
X13049Y7154D02*
X13058Y7145D01*
X13087Y7174D02*
X13078Y7183D01*
X13049Y7115D02*
X13058Y7105D01*
X13087Y7134D02*
X13078Y7144D01*
X13019Y7145D02*
X13009Y7154D01*
X13038Y7183D02*
X13048Y7174D01*
X12979Y7184D02*
X12970Y7194D01*
X12999Y7223D02*
X13008Y7213D01*
X12940Y7223D02*
X12930Y7233D01*
X12959Y7262D02*
X12969Y7252D01*
X12930Y7194D02*
X12940Y7184D01*
X12969Y7213D02*
X12959Y7223D01*
X12970Y7154D02*
X12979Y7145D01*
X13008Y7174D02*
X12999Y7183D01*
X13009Y7115D02*
X13019Y7105D01*
X13048Y7134D02*
X13038Y7144D01*
X13049Y7076D02*
X13058Y7066D01*
X13087Y7095D02*
X13078Y7105D01*
X13049Y7036D02*
X13058Y7027D01*
X13087Y7056D02*
X13078Y7065D01*
X13019Y7066D02*
X13009Y7076D01*
X13038Y7105D02*
X13048Y7095D01*
X12979Y7105D02*
X12970Y7115D01*
X12999Y7144D02*
X13008Y7134D01*
X12940Y7145D02*
X12930Y7154D01*
X12959Y7183D02*
X12969Y7174D01*
X12930Y7567D02*
X12920Y7577D01*
X12920D02*
X12930Y7567D01*
X12920Y7538D02*
X12930Y7528D01*
X12920Y7105D02*
X12930Y7095D01*
Y7174D02*
X12920Y7183D01*
Y7144D02*
X12930Y7134D01*
X12920Y7026D02*
X12930Y7016D01*
Y7056D02*
X12920Y7065D01*
X12930Y7213D02*
X12920Y7223D01*
X12891Y7646D02*
X12901Y7656D01*
Y7616D02*
X12891Y7607D01*
X12901Y7498D02*
X12891Y7489D01*
X12901Y7459D02*
X12891Y7449D01*
X12901Y7420D02*
X12897Y7416D01*
X12891Y7567D02*
X12901Y7577D01*
X12901D02*
X12891Y7567D01*
X12901Y7538D02*
X12891Y7528D01*
X12901Y7105D02*
X12891Y7095D01*
Y7174D02*
X12901Y7183D01*
Y7144D02*
X12891Y7134D01*
X12901Y7026D02*
X12891Y7016D01*
Y7056D02*
X12901Y7065D01*
X12891Y7213D02*
X12901Y7223D01*
X12930Y7449D02*
X12940Y7459D01*
X12920Y7617D02*
X12930Y7627D01*
X12959Y7617D02*
X12969Y7627D01*
X12940Y7656D02*
X12930Y7646D01*
X12930Y7587D02*
X12920Y7578D01*
X12959D02*
X12969Y7587D01*
X12940Y7616D02*
X12930Y7607D01*
X12930Y7469D02*
X12920Y7460D01*
X12930Y7430D02*
X12920Y7420D01*
X12959Y7460D02*
X12969Y7469D01*
X12940Y7498D02*
X12930Y7489D01*
X12959Y7538D02*
X12959Y7538D01*
X12969Y7548D01*
X12940Y7577D02*
X12930Y7567D01*
X12969Y7509D02*
X12959Y7499D01*
X12930Y7528D02*
X12940Y7538D01*
X12930Y7548D02*
X12930Y7548D01*
X12969Y7509D02*
X12959Y7499D01*
X12969Y7509D02*
X12969Y7509D01*
X12940Y7538D02*
X12930Y7528D01*
X12959Y7538D02*
X12969Y7548D01*
X12940Y7577D02*
X12930Y7567D01*
Y7416D02*
X12930Y7416D01*
X12930Y7416D02*
X12934Y7420D01*
X12937Y7423D01*
X12966Y7452D02*
X12969Y7455D01*
X12969Y7455D01*
X12940Y7144D02*
X12930Y7134D01*
X12959Y7105D02*
X12969Y7115D01*
X12940Y7065D02*
X12930Y7056D01*
X12959Y7027D02*
X12969Y7036D01*
X12940Y7026D02*
X12930Y7016D01*
X12959Y6987D02*
X12969Y6997D01*
X13009Y7016D02*
X13019Y7026D01*
X13048Y6997D02*
X13038Y6987D01*
X12979Y7026D02*
X12970Y7016D01*
X12999Y6987D02*
X13008Y6997D01*
X12970Y7056D02*
X12979Y7065D01*
X13008Y7036D02*
X12999Y7027D01*
X12970Y7095D02*
X12979Y7105D01*
X13008Y7076D02*
X12999Y7066D01*
X13009Y7056D02*
X13019Y7065D01*
X13048Y7036D02*
X13038Y7027D01*
X13049Y7016D02*
X13058Y7026D01*
X13087Y6997D02*
X13078Y6987D01*
X12940Y7105D02*
X12930Y7095D01*
X12959Y7066D02*
X12969Y7076D01*
X13009Y7252D02*
X13019Y7262D01*
X13048Y7233D02*
X13038Y7223D01*
X13049Y7213D02*
X13058Y7223D01*
X13087Y7194D02*
X13078Y7184D01*
X12979Y7262D02*
X12970Y7252D01*
X12999Y7223D02*
X13008Y7233D01*
X13019Y7223D02*
X13009Y7213D01*
X13038Y7184D02*
X13048Y7194D01*
X13058Y7183D02*
X13049Y7174D01*
X13078Y7145D02*
X13087Y7154D01*
X13058Y7144D02*
X13049Y7134D01*
X13078Y7105D02*
X13087Y7115D01*
X13019Y7183D02*
X13009Y7174D01*
X13038Y7145D02*
X13048Y7154D01*
X12979Y7223D02*
X12970Y7213D01*
X12999Y7184D02*
X13008Y7194D01*
X12940Y7262D02*
X12930Y7252D01*
X12959Y7223D02*
X12969Y7233D01*
X12940Y7223D02*
X12930Y7213D01*
X12959Y7184D02*
X12969Y7194D01*
X12979Y7183D02*
X12970Y7174D01*
X12999Y7145D02*
X13008Y7154D01*
X13019Y7144D02*
X13009Y7134D01*
X13038Y7105D02*
X13048Y7115D01*
X13058Y7105D02*
X13049Y7095D01*
X13078Y7066D02*
X13087Y7076D01*
X13058Y7065D02*
X13049Y7056D01*
X13078Y7027D02*
X13087Y7036D01*
X13019Y7105D02*
X13009Y7095D01*
X13038Y7066D02*
X13048Y7076D01*
X12979Y7144D02*
X12970Y7134D01*
X12999Y7105D02*
X13008Y7115D01*
X12940Y7183D02*
X12930Y7174D01*
X12959Y7145D02*
X12969Y7154D01*
X12920Y7538D02*
X12930Y7548D01*
Y7548D02*
X12920Y7538D01*
X12930Y7509D02*
X12920Y7499D01*
X12930Y7076D02*
X12920Y7066D01*
Y7145D02*
X12930Y7154D01*
Y7115D02*
X12920Y7105D01*
X12930Y6997D02*
X12920Y6987D01*
Y7027D02*
X12930Y7036D01*
X12920Y7184D02*
X12930Y7194D01*
X13087Y7016D02*
Y6997D01*
Y7194D02*
Y7213D01*
Y7174D02*
Y7154D01*
Y7134D02*
Y7115D01*
Y7095D02*
Y7076D01*
Y7056D02*
Y7036D01*
X13088Y7233D02*
Y7252D01*
Y7174D02*
Y7154D01*
Y7095D02*
Y7076D01*
Y7056D02*
Y7036D01*
Y7016D02*
Y6997D01*
X13170Y6991D02*
Y7262D01*
X13127Y7272D02*
Y7292D01*
X13127Y7252D02*
Y7233D01*
Y7174D02*
Y7154D01*
Y7095D02*
Y7076D01*
Y7056D02*
Y7036D01*
X13127Y6977D02*
Y6958D01*
X13127Y6997D02*
Y7016D01*
X13098Y7223D02*
X13088Y7233D01*
Y7154D02*
X13098Y7145D01*
X13088Y7076D02*
X13098Y7066D01*
X13088Y7036D02*
X13098Y7027D01*
X13088Y6997D02*
X13098Y6987D01*
X13131Y7301D02*
X13131Y7302D01*
X13131Y7301D02*
X13134Y7299D01*
X13163Y7270D02*
X13166Y7267D01*
X13170Y7263D01*
X13170Y7262D01*
X13137Y7263D02*
X13127Y7272D01*
X13117Y7262D02*
X13127Y7252D01*
X13117Y7183D02*
X13127Y7174D01*
X13117Y7105D02*
X13127Y7095D01*
X13117Y7065D02*
X13127Y7056D01*
X13127Y6958D02*
X13132Y6953D01*
X13161Y6982D02*
X13156Y6986D01*
X13127Y7016D02*
X13117Y7026D01*
X13088Y7252D02*
X13098Y7262D01*
Y7183D02*
X13088Y7174D01*
X13098Y7105D02*
X13088Y7095D01*
X13098Y7065D02*
X13088Y7056D01*
X13098Y7026D02*
X13088Y7016D01*
X13166Y6986D02*
X13170Y6991D01*
X13166Y6986D02*
X13161Y6982D01*
X13132Y6953D02*
X13127Y6948D01*
X13127Y6947D01*
X13127Y7292D02*
X13134Y7299D01*
X13163Y7270D02*
X13156Y7263D01*
X13127Y7233D02*
X13117Y7223D01*
X13127Y7154D02*
X13117Y7145D01*
X13127Y7076D02*
X13117Y7066D01*
X13127Y7036D02*
X13117Y7027D01*
X13137Y6986D02*
X13127Y6977D01*
X13117Y6987D02*
X13127Y6997D01*
D21*
X6251Y9715D02*
Y9865D01*
X6301Y9815D01*
X6351Y9865D01*
Y9715D01*
X6401Y9865D02*
X6451D01*
X6426D01*
Y9715D01*
X6401D01*
X6451D01*
X6526D02*
Y9865D01*
Y9715D02*
X6601D01*
X6626Y9740D01*
Y9840D01*
X6601Y9865D01*
X6526D01*
X6826D02*
Y9715D01*
X6926D01*
X6976D02*
Y9815D01*
X7026Y9865D01*
X7076Y9815D01*
Y9715D01*
Y9790D01*
X6976D01*
X7126Y9840D02*
Y9865D01*
Y9840D02*
X7176Y9790D01*
X7226Y9840D01*
Y9865D01*
X7176Y9790D02*
Y9715D01*
X7276Y9865D02*
X7376D01*
X7276D02*
Y9715D01*
X7376D01*
X7326Y9790D02*
X7276D01*
X7426Y9865D02*
Y9715D01*
Y9865D02*
X7501D01*
X7526Y9840D01*
Y9790D01*
X7501Y9765D01*
X7426D01*
X7476D02*
X7526Y9715D01*
X7576D02*
X7676D01*
X7576D02*
X7676Y9815D01*
Y9840D01*
X7651Y9865D01*
X7601D01*
X7576Y9840D01*
X7875Y9865D02*
X7975D01*
X7875D02*
Y9790D01*
X7925Y9815D01*
X7950D01*
X7975Y9790D01*
Y9740D01*
X7950Y9715D01*
X7900D01*
X7875Y9740D01*
X8025Y9765D02*
Y9865D01*
Y9765D02*
X8075Y9715D01*
X8125Y9765D01*
Y9865D01*
X8400Y9740D02*
X8425Y9715D01*
X8400Y9740D02*
X8375Y9715D01*
X8350D01*
X8325Y9740D01*
Y9765D01*
X8350Y9790D01*
X8325Y9815D01*
Y9840D01*
X8350Y9865D01*
X8375D01*
X8400Y9840D01*
Y9815D01*
X8401D01*
X8400D02*
X8375Y9790D01*
X8400Y9765D01*
Y9740D01*
Y9765D02*
X8425Y9790D01*
X8375D02*
X8350D01*
X8625Y9715D02*
X8675D01*
X8650D01*
Y9865D01*
X8651D01*
X8650D02*
X8625Y9840D01*
X8750Y9715D02*
X8850D01*
X8750D02*
X8850Y9815D01*
Y9840D01*
X8825Y9865D01*
X8775D01*
X8750Y9840D01*
X8900Y9865D02*
Y9765D01*
X8950Y9715D01*
X9000Y9765D01*
Y9865D01*
X9275Y9740D02*
X9300Y9715D01*
X9275Y9740D02*
X9250Y9715D01*
X9225D01*
X9200Y9740D01*
Y9765D01*
X9225Y9790D01*
X9200Y9815D01*
Y9840D01*
X9225Y9865D01*
X9250D01*
X9275Y9840D01*
Y9815D01*
X9276D01*
X9275D02*
X9250Y9790D01*
X9275Y9765D01*
Y9740D01*
Y9765D02*
X9300Y9790D01*
X9250D02*
X9225D01*
X9500Y9765D02*
Y9865D01*
Y9765D02*
X9550Y9715D01*
X9600Y9765D01*
Y9865D01*
X9725D02*
X9750Y9840D01*
X9725Y9865D02*
X9675D01*
X9650Y9840D01*
Y9740D01*
X9675Y9715D01*
X9725D01*
X9750Y9740D01*
X9875Y9865D02*
X9900Y9840D01*
X9875Y9865D02*
X9825D01*
X9800Y9840D01*
Y9740D01*
X9825Y9715D01*
X9875D01*
X9900Y9740D01*
X9950Y9865D02*
X10000D01*
X9975D01*
Y9715D01*
X9950D01*
X10000D01*
X10300Y9740D02*
X10325Y9715D01*
X10300Y9740D02*
X10275Y9715D01*
X10250D01*
X10225Y9740D01*
Y9765D01*
X10250Y9790D01*
X10225Y9815D01*
Y9840D01*
X10250Y9865D01*
X10275D01*
X10300Y9840D01*
Y9815D01*
X10301D01*
X10300D02*
X10275Y9790D01*
X10300Y9765D01*
Y9740D01*
Y9765D02*
X10325Y9790D01*
X10275D02*
X10250D01*
X10525Y9765D02*
Y9865D01*
Y9765D02*
X10575Y9715D01*
X10625Y9765D01*
Y9865D01*
X10675D02*
Y9715D01*
Y9865D02*
X10750D01*
X10775Y9840D01*
Y9790D01*
X10750Y9765D01*
X10675D01*
X10725D02*
X10775Y9715D01*
X10825Y9865D02*
X10924D01*
X10825D02*
Y9715D01*
X10924D01*
X10875Y9790D02*
X10825D01*
X10974Y9865D02*
X11074D01*
X10974D02*
Y9790D01*
X11024D01*
X10974D01*
Y9715D01*
D22*
X11903Y8438D02*
X12143D01*
X12139Y8432D02*
X11903D01*
X12149Y8406D02*
Y8400D01*
Y8406D02*
Y8422D01*
X12156Y8424D02*
Y8406D01*
X12149Y8422D02*
X12139Y8432D01*
X12143Y8438D02*
X12156Y8424D01*
X12149Y8400D02*
X12133Y8384D01*
X12131Y8381D02*
X12156Y8406D01*
D23*
X12359Y8152D02*
D03*
D27*
X14496Y7383D02*
D03*
Y7493D02*
D03*
X14496Y8093D02*
D03*
Y8203D02*
D03*
X14496Y6076D02*
D03*
Y5966D02*
D03*
X14496Y6675D02*
D03*
Y6785D02*
D03*
X14256Y7547D02*
D03*
X14265Y8111D02*
D03*
X14360Y8055D02*
D03*
X14288Y7461D02*
D03*
X14281Y7328D02*
D03*
X14293Y7599D02*
D03*
X14397Y7492D02*
D03*
X14399Y8199D02*
D03*
X14398Y8084D02*
D03*
X14331Y7359D02*
D03*
X14342Y7480D02*
D03*
X14388Y7377D02*
D03*
X14320Y7655D02*
D03*
X14335Y7715D02*
D03*
X14341Y7778D02*
D03*
X14352Y8185D02*
D03*
X14306Y8156D02*
D03*
X14341Y7888D02*
D03*
Y7833D02*
D03*
Y7998D02*
D03*
Y7943D02*
D03*
X14451Y7383D02*
D03*
Y7493D02*
D03*
X14451Y8093D02*
D03*
Y8203D02*
D03*
X14256Y6622D02*
D03*
X14265Y6058D02*
D03*
X14293Y6570D02*
D03*
X14280Y6840D02*
D03*
X14287Y6707D02*
D03*
X14399Y5970D02*
D03*
X14398Y6085D02*
D03*
X14396Y6676D02*
D03*
X14387Y6791D02*
D03*
X14320Y6514D02*
D03*
X14335Y6454D02*
D03*
X14341Y6226D02*
D03*
Y6281D02*
D03*
Y6331D02*
D03*
Y6391D02*
D03*
X14352Y5984D02*
D03*
X14360Y6114D02*
D03*
X14341Y6171D02*
D03*
X14306Y6013D02*
D03*
X14341Y6688D02*
D03*
X14330Y6809D02*
D03*
X14451Y6076D02*
D03*
Y5966D02*
D03*
X14451Y6675D02*
D03*
Y6785D02*
D03*
X14061Y7277D02*
D03*
X14060Y6891D02*
D03*
X14152Y7352D02*
D03*
X14104Y7175D02*
D03*
X14103Y6993D02*
D03*
X14201Y7240D02*
D03*
X14238Y7432D02*
D03*
X14240Y7285D02*
D03*
X14213Y7505D02*
D03*
X14239Y8057D02*
D03*
X14231Y7888D02*
D03*
Y7833D02*
D03*
Y7998D02*
D03*
Y7943D02*
D03*
X14200Y6928D02*
D03*
X14239Y6884D02*
D03*
X14111Y7308D02*
D03*
X14154Y7204D02*
D03*
X14191Y7396D02*
D03*
X14164Y7470D02*
D03*
X14109Y7445D02*
D03*
X14106Y7564D02*
D03*
X14153Y6964D02*
D03*
X14110Y6860D02*
D03*
X14158Y7604D02*
D03*
X14198Y7655D02*
D03*
X14223Y7714D02*
D03*
X14231Y7778D02*
D03*
X14198Y6514D02*
D03*
X14223Y6455D02*
D03*
X14213Y6664D02*
D03*
X14231Y6226D02*
D03*
Y6281D02*
D03*
Y6331D02*
D03*
Y6391D02*
D03*
X14239Y6112D02*
D03*
X14231Y6171D02*
D03*
X14237Y6736D02*
D03*
X14190Y6772D02*
D03*
X14158Y6565D02*
D03*
X14164Y6699D02*
D03*
X14109Y6724D02*
D03*
X14106Y6605D02*
D03*
X14151Y6817D02*
D03*
X13870Y7143D02*
D03*
Y7253D02*
D03*
X13871Y7423D02*
D03*
Y7533D02*
D03*
X13870Y6915D02*
D03*
Y7025D02*
D03*
X14050Y7541D02*
D03*
X14047Y7013D02*
D03*
X13997Y7257D02*
D03*
X14050Y7156D02*
D03*
X14052Y7428D02*
D03*
X13995Y6912D02*
D03*
X13988Y7024D02*
D03*
X13931Y6915D02*
D03*
Y7025D02*
D03*
X13991Y7144D02*
D03*
X13931Y7143D02*
D03*
Y7253D02*
D03*
Y7533D02*
D03*
X13991D02*
D03*
X13931Y7423D02*
D03*
X13991D02*
D03*
X13871Y6746D02*
D03*
Y6636D02*
D03*
X14052Y6741D02*
D03*
X14050Y6628D02*
D03*
X13931Y6636D02*
D03*
X13991D02*
D03*
X13931Y6746D02*
D03*
X13991D02*
D03*
X13107Y7282D02*
D03*
Y6967D02*
D03*
X13147Y7085D02*
D03*
Y7164D02*
D03*
Y7007D02*
D03*
Y7046D02*
D03*
Y7125D02*
D03*
Y7203D02*
D03*
Y7243D02*
D03*
X13068Y6967D02*
D03*
Y7282D02*
D03*
X12910Y7825D02*
D03*
X12910Y7282D02*
D03*
Y6967D02*
D03*
X12950D02*
D03*
Y7282D02*
D03*
X12989D02*
D03*
X13029D02*
D03*
Y6967D02*
D03*
X12989D02*
D03*
X12942Y6077D02*
D03*
X12871Y6967D02*
D03*
X12832Y7243D02*
D03*
Y7046D02*
D03*
Y7085D02*
D03*
Y7007D02*
D03*
Y7203D02*
D03*
Y7164D02*
D03*
Y7125D02*
D03*
X12871Y7282D02*
D03*
X12851Y7723D02*
D03*
X12792Y7676D02*
D03*
X12714Y7636D02*
D03*
X12517Y7203D02*
D03*
X12635Y7321D02*
D03*
X12615Y7751D02*
D03*
X12595Y7636D02*
D03*
X12363Y7440D02*
D03*
X12477Y7361D02*
D03*
X12359Y8349D02*
D03*
X12343Y8235D02*
D03*
X12406Y8038D02*
D03*
X12343D02*
D03*
X12438Y7719D02*
D03*
X12277Y7908D02*
D03*
X12131Y8381D02*
D03*
X12233Y8349D02*
D03*
X12217Y8231D02*
D03*
Y8160D02*
D03*
X12280Y8038D02*
D03*
X12217D02*
D03*
X11954Y6140D02*
D03*
X11875Y8402D02*
D03*
X11609Y5952D02*
D03*
X4990Y7912D02*
D03*
X4592Y7896D02*
D03*
D29*
X4373Y7583D02*
X4344D01*
D32*
X12485Y8434D02*
X12523Y8396D01*
X12485Y8434D02*
X12479Y8440D01*
X11910Y8438D02*
X11875Y8402D01*
X11842Y6036D02*
X11761Y5955D01*
X11942Y6036D02*
X11950Y6044D01*
X11706Y5855D02*
X11607Y5953D01*
X11747Y5855D02*
X11804Y5798D01*
X12424D02*
X12460Y5762D01*
X12599D02*
X12771Y5934D01*
X12853D02*
X12938Y6018D01*
X11747Y5855D02*
X11706D01*
X11804Y5798D02*
X12389D01*
X12424D01*
X12460Y5762D02*
X12599D01*
X11727Y5955D02*
X11609D01*
X11727D02*
X11761D01*
X11842Y6036D02*
X11942D01*
X11958Y6034D02*
X11842D01*
X12771Y5934D02*
X12853D01*
X11958Y6150D02*
X11950D01*
X11906Y8438D02*
X12334D01*
X12328D02*
X12479D01*
X11950Y6050D02*
Y6044D01*
Y6050D02*
Y6150D01*
X11958D02*
Y6040D01*
Y6034D01*
X12523Y7825D02*
Y8367D01*
Y8355D02*
Y8396D01*
X12938Y6081D02*
Y6018D01*
X12946Y6024D02*
Y6073D01*
Y6081D02*
Y6024D01*
D37*
X4341Y7581D02*
X4300Y7541D01*
X4304Y7545D02*
X4271Y7511D01*
Y7490D01*
D41*
X4380Y7587D02*
X4403Y7610D01*
X4404Y7612D01*
Y7687D02*
X4415Y7697D01*
X4384Y7589D02*
X4538Y7744D01*
X4270Y7508D02*
Y7495D01*
X4404Y7612D02*
Y7687D01*
X4423Y7531D02*
X4368D01*
X4370Y7546D02*
X4407D01*
X4421Y7550D02*
X4376D01*
D43*
X11595Y7619D02*
X12178Y7036D01*
X12119Y7071D02*
X11562Y7629D01*
X9381Y7631D02*
X9349Y7662D01*
Y8007D02*
X9434Y8091D01*
X9381Y7631D02*
X11595D01*
X9509Y7650D02*
X9231D01*
X9349Y7662D02*
Y8007D01*
X13870Y7253D02*
Y7143D01*
X13870Y7025D02*
Y6915D01*
X13871Y7423D02*
Y7533D01*
X13871Y6746D02*
Y6636D01*
X14496Y6675D02*
Y6785D01*
Y8093D02*
Y8203D01*
X14496Y6076D02*
Y5966D01*
Y7383D02*
Y7493D01*
X9436Y8091D02*
D03*
D50*
X5645Y7459D02*
X5547Y7557D01*
X5645Y7459D02*
X5654Y7449D01*
X5664Y7440D01*
X5675Y7429D01*
D64*
X5670Y7431D02*
X5547Y7554D01*
X5670Y7431D02*
X5676Y7425D01*
X4430Y7554D02*
X4422Y7546D01*
X5676Y7425D02*
Y6840D01*
X4611Y7554D02*
X4502D01*
X4611D02*
X5547D01*
X4500D02*
X4490D01*
X4527D02*
X4430D01*
D67*
X5784Y6729D02*
X5791Y6722D01*
X5784Y6729D02*
X5777Y6736D01*
X5770Y6743D01*
X5676Y6837D01*
X5791Y6722D02*
X6201D01*
D68*
X4370Y7535D02*
D03*
X4270Y7485D02*
D03*
D72*
X6194Y6723D02*
D03*
D76*
X4623Y7921D02*
X4527Y7825D01*
X4968Y7921D02*
X5420Y8373D01*
X4968Y7921D02*
X4623D01*
D80*
X5435Y8375D02*
X10520Y8374D01*
X4561Y7861D02*
X4525Y7824D01*
X4519Y7761D02*
X4432Y7675D01*
X4525Y7756D02*
Y7824D01*
X10520Y8374D02*
X10607D01*
D86*
X14286Y7998D02*
Y7778D01*
Y6391D02*
Y6171D01*
X13991Y7478D02*
X13931D01*
X13931Y6691D02*
X13991D01*
X14196Y6850D02*
X14205Y6838D01*
X14216Y6826D01*
X14226Y6815D01*
X14238Y6805D01*
X14250Y6795D01*
X14262Y6785D01*
X14275Y6777D01*
X14288Y6769D01*
X14302Y6762D01*
X14316Y6755D01*
X14330Y6749D01*
X14344Y6744D01*
X14359Y6740D01*
X14374Y6736D01*
X14389Y6734D01*
X14405Y6732D01*
X14420Y6731D01*
X14435Y6730D01*
X14195Y6851D02*
X14185Y6863D01*
X14175Y6874D01*
X14164Y6885D01*
X14153Y6896D01*
X14141Y6906D01*
X14129Y6915D01*
X14116Y6923D01*
X14103Y6931D01*
X14089Y6939D01*
X14075Y6945D01*
X14061Y6951D01*
X14047Y6956D01*
X14032Y6960D01*
X14017Y6964D01*
X14002Y6967D01*
X13986Y6969D01*
X13971Y6970D01*
X13955Y6970D01*
X13986Y7478D02*
X14002Y7479D01*
X14017Y7480D01*
X14033Y7482D01*
X14048Y7485D01*
X14064Y7488D01*
X14079Y7493D01*
X14093Y7498D01*
X14108Y7504D01*
X14122Y7511D01*
X14136Y7518D01*
X14149Y7527D01*
X14162Y7535D01*
X14175Y7545D01*
X14187Y7555D01*
X14198Y7566D01*
X14209Y7577D01*
X14219Y7589D01*
X14229Y7602D01*
X14238Y7615D01*
X14246Y7628D01*
X14253Y7642D01*
X14260Y7656D01*
X14266Y7671D01*
X14271Y7685D01*
X14276Y7701D01*
X14279Y7716D01*
X14282Y7731D01*
X14284Y7747D01*
X14286Y7762D01*
X14286Y7778D01*
X14286Y6171D02*
X14287Y6155D01*
X14290Y6140D01*
X14294Y6125D01*
X14299Y6110D01*
X14307Y6096D01*
X14315Y6083D01*
X14325Y6071D01*
X14336Y6060D01*
X14348Y6050D01*
X14361Y6041D01*
X14375Y6034D01*
X14390Y6028D01*
X14405Y6024D01*
X14421Y6022D01*
X14436Y6021D01*
X14286Y6391D02*
X14286Y6407D01*
X14284Y6423D01*
X14282Y6438D01*
X14280Y6454D01*
X14276Y6469D01*
X14271Y6484D01*
X14266Y6499D01*
X14260Y6513D01*
X14253Y6527D01*
X14246Y6541D01*
X14238Y6555D01*
X14229Y6567D01*
X14219Y6580D01*
X14209Y6592D01*
X14198Y6603D01*
X14187Y6614D01*
X14175Y6624D01*
X14162Y6634D01*
X14149Y6643D01*
X14136Y6651D01*
X14122Y6658D01*
X14108Y6665D01*
X14094Y6671D01*
X14079Y6676D01*
X14064Y6681D01*
X14048Y6685D01*
X14033Y6687D01*
X14017Y6690D01*
X14002Y6691D01*
X13986Y6691D01*
X14196Y7319D02*
X14206Y7331D01*
X14216Y7342D01*
X14227Y7353D01*
X14238Y7364D01*
X14250Y7374D01*
X14262Y7383D01*
X14275Y7391D01*
X14288Y7399D01*
X14302Y7407D01*
X14316Y7413D01*
X14330Y7419D01*
X14345Y7424D01*
X14360Y7428D01*
X14375Y7432D01*
X14390Y7435D01*
X14405Y7437D01*
X14421Y7438D01*
X14436Y7438D01*
X14196Y7318D02*
X14186Y7306D01*
X14176Y7294D01*
X14165Y7283D01*
X14154Y7273D01*
X14142Y7263D01*
X14129Y7253D01*
X14117Y7245D01*
X14103Y7237D01*
X14090Y7230D01*
X14076Y7223D01*
X14062Y7217D01*
X14047Y7212D01*
X14032Y7208D01*
X14017Y7204D01*
X14002Y7202D01*
X13987Y7200D01*
X13971Y7199D01*
X13956Y7198D01*
X14286Y7998D02*
X14287Y8014D01*
X14289Y8029D01*
X14293Y8045D01*
X14299Y8059D01*
X14306Y8073D01*
X14315Y8086D01*
X14324Y8099D01*
X14336Y8110D01*
X14348Y8120D01*
X14361Y8128D01*
X14375Y8135D01*
X14390Y8141D01*
X14405Y8145D01*
X14420Y8147D01*
X14436Y8148D01*
D108*
X10619Y8373D02*
D03*
D124*
X14466Y8188D02*
Y8108D01*
X13901Y7518D02*
Y7438D01*
X13901Y6731D02*
Y6651D01*
X14466Y6061D02*
Y5981D01*
Y7398D02*
Y7478D01*
X14466Y6770D02*
Y6690D01*
D150*
X13913Y6943D02*
Y6998D01*
D151*
X13916Y7173D02*
Y7223D01*
D02*
M02*
