*%FSLAX23Y23*%
*%MOIN*%
G01*
D11*
X4162Y5737D02*
Y8532D01*
X15879D02*
Y5737D01*
X4162D01*
Y8532D02*
X15879D01*
D25*
X12406Y8321D02*
D03*
Y8290D02*
D03*
Y8258D02*
D03*
Y8070D02*
D03*
Y8101D02*
D03*
Y8133D02*
D03*
X12375Y8321D02*
D03*
Y8290D02*
D03*
Y8258D02*
D03*
Y8133D02*
D03*
Y8101D02*
D03*
Y8070D02*
D03*
X12343Y8321D02*
D03*
Y8290D02*
D03*
Y8258D02*
D03*
Y8133D02*
D03*
Y8101D02*
D03*
Y8070D02*
D03*
X12312Y8321D02*
D03*
Y8290D02*
D03*
Y8258D02*
D03*
Y8133D02*
D03*
Y8101D02*
D03*
Y8070D02*
D03*
X12280Y8321D02*
D03*
Y8290D02*
D03*
Y8258D02*
D03*
Y8133D02*
D03*
Y8101D02*
D03*
Y8070D02*
D03*
X12249Y8321D02*
D03*
Y8290D02*
D03*
Y8258D02*
D03*
Y8133D02*
D03*
Y8101D02*
D03*
Y8070D02*
D03*
X12217Y8321D02*
D03*
Y8290D02*
D03*
Y8258D02*
D03*
Y8133D02*
D03*
Y8101D02*
D03*
Y8070D02*
D03*
X12186Y8321D02*
D03*
Y8290D02*
D03*
Y8258D02*
D03*
Y8133D02*
D03*
Y8101D02*
D03*
Y8070D02*
D03*
X12154Y8321D02*
D03*
Y8290D02*
D03*
Y8258D02*
D03*
Y8133D02*
D03*
Y8101D02*
D03*
Y8070D02*
D03*
X12123Y8290D02*
D03*
Y8258D02*
D03*
Y8133D02*
D03*
Y8101D02*
D03*
Y8070D02*
D03*
X12092Y8321D02*
D03*
Y8290D02*
D03*
Y8258D02*
D03*
Y8133D02*
D03*
Y8101D02*
D03*
X12060Y8290D02*
D03*
Y8258D02*
D03*
Y8133D02*
D03*
Y8101D02*
D03*
Y8070D02*
D03*
X12029Y8321D02*
D03*
Y8290D02*
D03*
Y8258D02*
D03*
Y8133D02*
D03*
Y8101D02*
D03*
X11997Y8290D02*
D03*
Y8258D02*
D03*
Y8133D02*
D03*
Y8101D02*
D03*
Y8070D02*
D03*
X11966Y8321D02*
D03*
Y8290D02*
D03*
Y8258D02*
D03*
Y8133D02*
D03*
Y8101D02*
D03*
D29*
X12418Y6711D02*
D03*
X12458D02*
D03*
X12497D02*
D03*
X12536D02*
D03*
X12576D02*
D03*
X12418Y6751D02*
D03*
X12458D02*
D03*
X12497D02*
D03*
X12536D02*
D03*
X12418Y6790D02*
D03*
X12458D02*
D03*
X12497D02*
D03*
X12536D02*
D03*
X12418Y6829D02*
D03*
X12458D02*
D03*
X12497D02*
D03*
X12536D02*
D03*
X12418Y6869D02*
D03*
X12458D02*
D03*
X12497D02*
D03*
X12536D02*
D03*
X12418Y6908D02*
D03*
X12458D02*
D03*
X12497D02*
D03*
X12536D02*
D03*
X12418Y6947D02*
D03*
X12458D02*
D03*
X12497D02*
D03*
X12536D02*
D03*
X12418Y6987D02*
D03*
X12458D02*
D03*
X12497D02*
D03*
X12536D02*
D03*
X12418Y7026D02*
D03*
X12458D02*
D03*
X12497D02*
D03*
X12536D02*
D03*
X12418Y7066D02*
D03*
X12458D02*
D03*
X12497D02*
D03*
X12536D02*
D03*
X12418Y7105D02*
D03*
X12458D02*
D03*
X12536D02*
D03*
X12497D02*
D03*
X12418Y7144D02*
D03*
X12458D02*
D03*
X12497D02*
D03*
X12536D02*
D03*
X12418Y7184D02*
D03*
X12458D02*
D03*
X12497D02*
D03*
X12536D02*
D03*
X12418Y7223D02*
D03*
X12458D02*
D03*
X12497D02*
D03*
X12536D02*
D03*
X12418Y7262D02*
D03*
X12458D02*
D03*
X12497D02*
D03*
X12536D02*
D03*
X12418Y7302D02*
D03*
Y7341D02*
D03*
Y7381D02*
D03*
Y7420D02*
D03*
Y7459D02*
D03*
Y7499D02*
D03*
Y7538D02*
D03*
Y7577D02*
D03*
Y7617D02*
D03*
X12458Y7302D02*
D03*
Y7341D02*
D03*
Y7381D02*
D03*
Y7420D02*
D03*
Y7459D02*
D03*
Y7499D02*
D03*
Y7538D02*
D03*
Y7577D02*
D03*
Y7617D02*
D03*
X12497Y7302D02*
D03*
Y7341D02*
D03*
Y7381D02*
D03*
Y7420D02*
D03*
Y7459D02*
D03*
Y7499D02*
D03*
Y7538D02*
D03*
Y7577D02*
D03*
Y7617D02*
D03*
X12536Y7302D02*
D03*
Y7341D02*
D03*
Y7381D02*
D03*
Y7420D02*
D03*
Y7459D02*
D03*
Y7499D02*
D03*
Y7538D02*
D03*
Y7577D02*
D03*
Y7617D02*
D03*
X12418Y6593D02*
D03*
Y6633D02*
D03*
Y6672D02*
D03*
X12458Y6554D02*
D03*
Y6593D02*
D03*
Y6633D02*
D03*
Y6672D02*
D03*
X12497Y6554D02*
D03*
Y6593D02*
D03*
Y6633D02*
D03*
Y6672D02*
D03*
X12536Y6554D02*
D03*
Y6593D02*
D03*
Y6633D02*
D03*
Y6672D02*
D03*
X12576Y6554D02*
D03*
Y6593D02*
D03*
Y6633D02*
D03*
Y6672D02*
D03*
X12615Y6554D02*
D03*
Y6593D02*
D03*
Y6633D02*
D03*
Y6672D02*
D03*
X12654Y6554D02*
D03*
Y6593D02*
D03*
Y6633D02*
D03*
Y6672D02*
D03*
X12694Y6554D02*
D03*
Y6593D02*
D03*
Y6633D02*
D03*
Y6672D02*
D03*
X12733Y6554D02*
D03*
Y6593D02*
D03*
Y6633D02*
D03*
Y6672D02*
D03*
X12773Y6554D02*
D03*
Y6593D02*
D03*
Y6633D02*
D03*
Y6672D02*
D03*
X12812Y6554D02*
D03*
Y6593D02*
D03*
Y6633D02*
D03*
Y6672D02*
D03*
X12851Y6554D02*
D03*
Y6593D02*
D03*
Y6633D02*
D03*
Y6672D02*
D03*
X12891Y6554D02*
D03*
Y6593D02*
D03*
Y6633D02*
D03*
Y6672D02*
D03*
X12930Y6554D02*
D03*
Y6593D02*
D03*
Y6633D02*
D03*
Y6672D02*
D03*
X12969Y6554D02*
D03*
Y6593D02*
D03*
Y6633D02*
D03*
X13009D02*
D03*
X12969Y6672D02*
D03*
X13009Y6554D02*
D03*
Y6593D02*
D03*
Y6672D02*
D03*
X13048Y6554D02*
D03*
Y6593D02*
D03*
Y6633D02*
D03*
Y6672D02*
D03*
X13088Y6554D02*
D03*
Y6593D02*
D03*
Y6633D02*
D03*
Y6672D02*
D03*
X13127Y6554D02*
D03*
Y6593D02*
D03*
Y6633D02*
D03*
Y6672D02*
D03*
X13166Y6554D02*
D03*
Y6593D02*
D03*
Y6633D02*
D03*
Y6672D02*
D03*
X13206Y6554D02*
D03*
Y6593D02*
D03*
Y6633D02*
D03*
Y6672D02*
D03*
X13245Y6554D02*
D03*
Y6593D02*
D03*
Y6633D02*
D03*
Y6672D02*
D03*
X13284Y6554D02*
D03*
Y6593D02*
D03*
Y6633D02*
D03*
Y6672D02*
D03*
X13324Y6554D02*
D03*
Y6593D02*
D03*
Y6633D02*
D03*
Y6672D02*
D03*
X13363Y6554D02*
D03*
Y6593D02*
D03*
Y6633D02*
D03*
Y6672D02*
D03*
X13403Y6554D02*
D03*
Y6593D02*
D03*
Y6633D02*
D03*
Y6672D02*
D03*
X13442Y6554D02*
D03*
Y6593D02*
D03*
Y6633D02*
D03*
Y6672D02*
D03*
X13481Y6554D02*
D03*
Y6593D02*
D03*
Y6633D02*
D03*
Y6672D02*
D03*
X13521Y6554D02*
D03*
Y6593D02*
D03*
Y6633D02*
D03*
Y6672D02*
D03*
X13560Y6593D02*
D03*
Y6633D02*
D03*
Y6672D02*
D03*
Y6711D02*
D03*
X12418Y7656D02*
D03*
X12458D02*
D03*
X12497D02*
D03*
X12536D02*
D03*
X12458Y7696D02*
D03*
X12497D02*
D03*
X12536D02*
D03*
X12576D02*
D03*
X13521Y6711D02*
D03*
X13481D02*
D03*
X13442D02*
D03*
X12969Y7105D02*
D03*
X13403Y6711D02*
D03*
X13363Y6711D02*
D03*
X13324D02*
D03*
X13284D02*
D03*
X13245D02*
D03*
X13206D02*
D03*
X13166D02*
D03*
X13127D02*
D03*
X13088D02*
D03*
X13048D02*
D03*
X13009D02*
D03*
X12969D02*
D03*
X12930D02*
D03*
X12891D02*
D03*
X12851D02*
D03*
X12812D02*
D03*
X12773D02*
D03*
X12733D02*
D03*
X12694D02*
D03*
X12654D02*
D03*
X12615D02*
D03*
X12576Y6751D02*
D03*
X12615D02*
D03*
X12654D02*
D03*
X12694D02*
D03*
X12733D02*
D03*
X12773D02*
D03*
X12812D02*
D03*
X12851D02*
D03*
X12891D02*
D03*
X12930D02*
D03*
X12969D02*
D03*
X13009D02*
D03*
X13048D02*
D03*
X13088D02*
D03*
X13127D02*
D03*
X13166D02*
D03*
X13206D02*
D03*
X13245D02*
D03*
X13284D02*
D03*
X13324D02*
D03*
X13363D02*
D03*
X13403Y6751D02*
D03*
X13442D02*
D03*
X13481D02*
D03*
X13521D02*
D03*
X13560Y6751D02*
D03*
Y6790D02*
D03*
X13521Y6790D02*
D03*
X13481D02*
D03*
X13442D02*
D03*
X13403D02*
D03*
X13363Y6790D02*
D03*
X13324D02*
D03*
X13284D02*
D03*
X13245D02*
D03*
X13206D02*
D03*
X13166D02*
D03*
X13127D02*
D03*
X13088D02*
D03*
X13048D02*
D03*
X13009D02*
D03*
X12969D02*
D03*
X12930D02*
D03*
X12891D02*
D03*
X12851D02*
D03*
X12812D02*
D03*
X12773D02*
D03*
X12733D02*
D03*
X12694D02*
D03*
X12654D02*
D03*
X12615D02*
D03*
X12576D02*
D03*
Y6829D02*
D03*
X12615D02*
D03*
X12654D02*
D03*
X12694D02*
D03*
X12733D02*
D03*
X12773D02*
D03*
X12812D02*
D03*
X12851D02*
D03*
X12891D02*
D03*
X12930D02*
D03*
X12969D02*
D03*
X13009D02*
D03*
X13048D02*
D03*
X13088D02*
D03*
X13127D02*
D03*
X13166D02*
D03*
X13206D02*
D03*
X13245D02*
D03*
X13284D02*
D03*
X13324D02*
D03*
X13363D02*
D03*
X13403Y6829D02*
D03*
X13442D02*
D03*
X13481D02*
D03*
X13521D02*
D03*
X13560Y6829D02*
D03*
X13521Y6869D02*
D03*
X13560Y6869D02*
D03*
X13481Y6869D02*
D03*
X13442D02*
D03*
X13403D02*
D03*
X13363Y6869D02*
D03*
X13324D02*
D03*
X13284D02*
D03*
X13245D02*
D03*
X13206D02*
D03*
X13166D02*
D03*
X13127D02*
D03*
X13088D02*
D03*
X13048D02*
D03*
X13009D02*
D03*
X12969D02*
D03*
X12930D02*
D03*
X12891D02*
D03*
X12851D02*
D03*
X12812D02*
D03*
X12773D02*
D03*
X12733D02*
D03*
X12694D02*
D03*
X12654D02*
D03*
X12615D02*
D03*
X12576D02*
D03*
Y6908D02*
D03*
X12615D02*
D03*
X12654D02*
D03*
X12694D02*
D03*
X12733D02*
D03*
X12773D02*
D03*
X12812D02*
D03*
X12851D02*
D03*
X12891D02*
D03*
X12930D02*
D03*
X12969D02*
D03*
X13009D02*
D03*
X13048D02*
D03*
X13088D02*
D03*
X13127D02*
D03*
X13166D02*
D03*
X13206D02*
D03*
X13245D02*
D03*
X13284D02*
D03*
X13324D02*
D03*
X13363D02*
D03*
X13403Y6908D02*
D03*
X13442D02*
D03*
X13481D02*
D03*
X13521D02*
D03*
X13560Y6908D02*
D03*
X13206Y6947D02*
D03*
X13245D02*
D03*
X13284D02*
D03*
X13324D02*
D03*
X13363D02*
D03*
X13403Y6947D02*
D03*
X13442D02*
D03*
X13481D02*
D03*
X13521D02*
D03*
X13560Y6947D02*
D03*
X13166D02*
D03*
X13127D02*
D03*
X13088D02*
D03*
X13048D02*
D03*
X13009D02*
D03*
X12969D02*
D03*
X12930D02*
D03*
X12891D02*
D03*
X12851D02*
D03*
X12812D02*
D03*
X12773D02*
D03*
X12733D02*
D03*
X12694D02*
D03*
X12654D02*
D03*
X12615D02*
D03*
X12576D02*
D03*
Y6987D02*
D03*
X12615D02*
D03*
X12654D02*
D03*
X12694D02*
D03*
X12733D02*
D03*
X12773D02*
D03*
X12812D02*
D03*
X12851D02*
D03*
X12891D02*
D03*
X12930D02*
D03*
X12969D02*
D03*
X13009D02*
D03*
X13048D02*
D03*
X13088D02*
D03*
X13127D02*
D03*
X13166D02*
D03*
X13206D02*
D03*
X13245D02*
D03*
X13284D02*
D03*
X13324D02*
D03*
X13363D02*
D03*
X13403Y6987D02*
D03*
X13442D02*
D03*
X13481D02*
D03*
X13521D02*
D03*
X13560Y6987D02*
D03*
Y7026D02*
D03*
X13521Y7026D02*
D03*
X13481D02*
D03*
X13442D02*
D03*
X13403D02*
D03*
X13363Y7026D02*
D03*
X13324D02*
D03*
X13284D02*
D03*
X13245D02*
D03*
X13206D02*
D03*
X13166D02*
D03*
X13127D02*
D03*
X13088D02*
D03*
X13048D02*
D03*
X13009D02*
D03*
X12969D02*
D03*
X12930D02*
D03*
X12891D02*
D03*
X12851D02*
D03*
X12812D02*
D03*
X12773D02*
D03*
X12733D02*
D03*
X12694D02*
D03*
X12654D02*
D03*
X12615D02*
D03*
X12576D02*
D03*
Y7066D02*
D03*
X12615D02*
D03*
X12654D02*
D03*
X12694D02*
D03*
X12733D02*
D03*
X12773D02*
D03*
X12812D02*
D03*
X12851D02*
D03*
X12891D02*
D03*
X12930D02*
D03*
X12969D02*
D03*
X13009D02*
D03*
X13048D02*
D03*
X13088D02*
D03*
X13127D02*
D03*
X13166D02*
D03*
X13206D02*
D03*
X13245D02*
D03*
X13284D02*
D03*
X13324D02*
D03*
X13363D02*
D03*
X13403Y7066D02*
D03*
X13442D02*
D03*
X13481D02*
D03*
X13521D02*
D03*
X13560Y7066D02*
D03*
Y7105D02*
D03*
X13521Y7105D02*
D03*
X13481D02*
D03*
X13442D02*
D03*
X13403D02*
D03*
X13363Y7105D02*
D03*
X13324D02*
D03*
X13284D02*
D03*
X13245D02*
D03*
X13206D02*
D03*
X13166D02*
D03*
X13127D02*
D03*
X13088D02*
D03*
X13048D02*
D03*
X13009D02*
D03*
X12930D02*
D03*
X12891D02*
D03*
X12851D02*
D03*
X12812D02*
D03*
X12773D02*
D03*
X12733D02*
D03*
X12694D02*
D03*
X12654D02*
D03*
X12615D02*
D03*
X12576D02*
D03*
Y7144D02*
D03*
X12615D02*
D03*
X12654D02*
D03*
X12694D02*
D03*
X12733D02*
D03*
X12773D02*
D03*
X12812D02*
D03*
X12851D02*
D03*
X12891D02*
D03*
X12930D02*
D03*
X12969D02*
D03*
X13009D02*
D03*
X13048D02*
D03*
X13088D02*
D03*
X13127D02*
D03*
X13166D02*
D03*
X13206D02*
D03*
X13245D02*
D03*
X13284D02*
D03*
X13324D02*
D03*
X13363D02*
D03*
X13403Y7144D02*
D03*
X13442D02*
D03*
X13481D02*
D03*
X13521D02*
D03*
X13560Y7144D02*
D03*
Y7184D02*
D03*
X13521Y7184D02*
D03*
X13481D02*
D03*
X13442D02*
D03*
X13403D02*
D03*
X13363Y7184D02*
D03*
X13324D02*
D03*
X13284D02*
D03*
X13245D02*
D03*
X13206D02*
D03*
X13166D02*
D03*
X13127D02*
D03*
X13088D02*
D03*
X13048D02*
D03*
X13009D02*
D03*
X12969D02*
D03*
X12930D02*
D03*
X12891D02*
D03*
X12851D02*
D03*
X12812D02*
D03*
X12773D02*
D03*
X12733D02*
D03*
X12694D02*
D03*
X12654D02*
D03*
X12615D02*
D03*
X12576D02*
D03*
Y7223D02*
D03*
X12615D02*
D03*
X12654D02*
D03*
X12694D02*
D03*
X12733D02*
D03*
X12773D02*
D03*
X12812D02*
D03*
X12851D02*
D03*
X12891D02*
D03*
X12930D02*
D03*
X12969D02*
D03*
X13009D02*
D03*
X13048D02*
D03*
X13088D02*
D03*
X13127D02*
D03*
X13166D02*
D03*
X13206D02*
D03*
X13245D02*
D03*
X13284D02*
D03*
X13324D02*
D03*
X13363D02*
D03*
X13403Y7223D02*
D03*
X13442D02*
D03*
X13481D02*
D03*
X13521D02*
D03*
X13560Y7223D02*
D03*
X13521Y7262D02*
D03*
X13560Y7262D02*
D03*
X13481Y7262D02*
D03*
X13442D02*
D03*
X13403D02*
D03*
X13363Y7262D02*
D03*
X13324D02*
D03*
X13284D02*
D03*
X13245D02*
D03*
X13206D02*
D03*
X13166D02*
D03*
X13127D02*
D03*
X13088D02*
D03*
X13048D02*
D03*
X13009D02*
D03*
X12969D02*
D03*
X12930D02*
D03*
X12891D02*
D03*
X12851D02*
D03*
X12812D02*
D03*
X12773D02*
D03*
X12733D02*
D03*
X12694D02*
D03*
X12654D02*
D03*
X12615D02*
D03*
X12576D02*
D03*
Y7302D02*
D03*
X12615D02*
D03*
X12654D02*
D03*
X12694D02*
D03*
X12733D02*
D03*
X12773D02*
D03*
X12812D02*
D03*
X12851D02*
D03*
X12891D02*
D03*
X12930D02*
D03*
X12969D02*
D03*
X13009D02*
D03*
X13048D02*
D03*
X13088D02*
D03*
X13127D02*
D03*
X13166D02*
D03*
X13206D02*
D03*
X13245D02*
D03*
X13284D02*
D03*
X13324D02*
D03*
X13363D02*
D03*
X13403Y7302D02*
D03*
X13442D02*
D03*
X13481D02*
D03*
X13521D02*
D03*
X13560Y7302D02*
D03*
X13206Y7341D02*
D03*
X13245D02*
D03*
X13284D02*
D03*
X13324D02*
D03*
X13363D02*
D03*
X13442Y7341D02*
D03*
X13403D02*
D03*
X13481D02*
D03*
X13521D02*
D03*
X13560Y7341D02*
D03*
X12576D02*
D03*
X12615D02*
D03*
X12654D02*
D03*
X12694D02*
D03*
X12733D02*
D03*
X12773D02*
D03*
X12812D02*
D03*
X12851D02*
D03*
X12891D02*
D03*
X12930D02*
D03*
X12969D02*
D03*
X13009D02*
D03*
X13048D02*
D03*
X13088D02*
D03*
X13127D02*
D03*
X13166D02*
D03*
X12576Y7381D02*
D03*
X12615D02*
D03*
X12654D02*
D03*
X12694D02*
D03*
X12733D02*
D03*
X12773D02*
D03*
X12812D02*
D03*
X12851D02*
D03*
X12891D02*
D03*
X12930D02*
D03*
X12969D02*
D03*
X13009D02*
D03*
X13048D02*
D03*
X13088D02*
D03*
X13127D02*
D03*
X13166D02*
D03*
X13206D02*
D03*
X13245D02*
D03*
X13284D02*
D03*
X13324D02*
D03*
X13363D02*
D03*
X13403Y7381D02*
D03*
X13442D02*
D03*
X13481D02*
D03*
X13521D02*
D03*
X13560Y7381D02*
D03*
X12576Y7420D02*
D03*
X12615D02*
D03*
X12654D02*
D03*
X12694D02*
D03*
X12733D02*
D03*
X12773D02*
D03*
X12851D02*
D03*
X12812D02*
D03*
X12891D02*
D03*
X12930D02*
D03*
X12969D02*
D03*
X13009D02*
D03*
X13048D02*
D03*
X13088D02*
D03*
X13127D02*
D03*
X13166D02*
D03*
X13206D02*
D03*
X13245D02*
D03*
X13284D02*
D03*
X13324D02*
D03*
X13363D02*
D03*
X13403Y7420D02*
D03*
X13442D02*
D03*
X13481D02*
D03*
X13521D02*
D03*
X13560Y7420D02*
D03*
X12576Y7459D02*
D03*
X12615D02*
D03*
X12654D02*
D03*
X12694D02*
D03*
X12733D02*
D03*
X12773D02*
D03*
X12812D02*
D03*
X12851D02*
D03*
X12891D02*
D03*
X12930D02*
D03*
X12969D02*
D03*
X13009D02*
D03*
X13048D02*
D03*
X13088D02*
D03*
X13127D02*
D03*
X13166D02*
D03*
X13206D02*
D03*
X13245D02*
D03*
X13284D02*
D03*
X13324D02*
D03*
X13363D02*
D03*
X13403Y7459D02*
D03*
X13442D02*
D03*
X13481D02*
D03*
X13521D02*
D03*
X13560Y7459D02*
D03*
X12576Y7499D02*
D03*
X12615D02*
D03*
X12654D02*
D03*
X12694D02*
D03*
X12773D02*
D03*
X12812D02*
D03*
X12733D02*
D03*
X12851D02*
D03*
X12891D02*
D03*
X12930D02*
D03*
X12969D02*
D03*
X13009D02*
D03*
X13048D02*
D03*
X13088D02*
D03*
X13127D02*
D03*
X13166D02*
D03*
X13206D02*
D03*
X13245D02*
D03*
X13284D02*
D03*
X13324D02*
D03*
X13363D02*
D03*
X13403Y7499D02*
D03*
X13442D02*
D03*
X13481D02*
D03*
X13521D02*
D03*
X13560Y7499D02*
D03*
X12576Y7538D02*
D03*
X12615D02*
D03*
X12654D02*
D03*
X12694D02*
D03*
X12733D02*
D03*
X12773D02*
D03*
X12812D02*
D03*
X12851D02*
D03*
X12891D02*
D03*
X12930D02*
D03*
X12969D02*
D03*
X13009D02*
D03*
X13048D02*
D03*
X13088D02*
D03*
X13127D02*
D03*
X13166D02*
D03*
X13206D02*
D03*
X13245D02*
D03*
X13284D02*
D03*
X13324D02*
D03*
X13363D02*
D03*
X13403Y7538D02*
D03*
X13442D02*
D03*
X13481D02*
D03*
X13521D02*
D03*
X13560Y7538D02*
D03*
X12576Y7577D02*
D03*
X12615D02*
D03*
X12654D02*
D03*
X12694D02*
D03*
X12733D02*
D03*
X12773D02*
D03*
X12812D02*
D03*
X12851D02*
D03*
X12891D02*
D03*
X12930D02*
D03*
X12969D02*
D03*
X13009D02*
D03*
X13048D02*
D03*
X13088D02*
D03*
X13127D02*
D03*
X13166D02*
D03*
X13206D02*
D03*
X13245D02*
D03*
X13284D02*
D03*
X13324D02*
D03*
X13363D02*
D03*
X13403Y7577D02*
D03*
X13442D02*
D03*
X13481D02*
D03*
X13521D02*
D03*
X13560Y7577D02*
D03*
X12576Y7617D02*
D03*
X12615D02*
D03*
X12654D02*
D03*
X12694D02*
D03*
X12733D02*
D03*
X12773D02*
D03*
X12812D02*
D03*
X12851D02*
D03*
X12891D02*
D03*
X12930D02*
D03*
X12969D02*
D03*
X13009D02*
D03*
X13048D02*
D03*
X13088D02*
D03*
X13127D02*
D03*
X13166D02*
D03*
X13206D02*
D03*
X13245D02*
D03*
X13284D02*
D03*
X13324D02*
D03*
X13363D02*
D03*
X13403Y7617D02*
D03*
X13442D02*
D03*
X13481D02*
D03*
X13521D02*
D03*
X13560Y7617D02*
D03*
X12576Y7656D02*
D03*
X12615D02*
D03*
X12654D02*
D03*
X12694D02*
D03*
X12733D02*
D03*
X12773D02*
D03*
X12812D02*
D03*
X12851D02*
D03*
X12891D02*
D03*
X12930D02*
D03*
X12969D02*
D03*
X13009D02*
D03*
X13048D02*
D03*
X13088D02*
D03*
X13127D02*
D03*
X13166D02*
D03*
X13206D02*
D03*
X13245D02*
D03*
X13284D02*
D03*
X13324D02*
D03*
X13363D02*
D03*
X13403Y7656D02*
D03*
X13442D02*
D03*
X13481D02*
D03*
X13521D02*
D03*
X13560Y7656D02*
D03*
X12615Y7696D02*
D03*
X12654D02*
D03*
X12694D02*
D03*
X12733D02*
D03*
X12773D02*
D03*
X12812D02*
D03*
X12851D02*
D03*
X12891D02*
D03*
X12930D02*
D03*
X12969D02*
D03*
X13009D02*
D03*
X13048D02*
D03*
X13088D02*
D03*
X13127D02*
D03*
X13166D02*
D03*
X13206D02*
D03*
X13245D02*
D03*
X13284D02*
D03*
X13324D02*
D03*
X13363D02*
D03*
X13403Y7696D02*
D03*
X13442D02*
D03*
X13481D02*
D03*
X13521D02*
D03*
D63*
X15485Y8411D02*
D03*
D64*
X4376Y5942D02*
D03*
D77*
X14556Y7463D02*
D03*
Y8173D02*
D03*
Y6046D02*
D03*
Y6755D02*
D03*
X11387Y6904D02*
D03*
Y7396D02*
D03*
X10013Y6643D02*
D03*
D93*
X9320Y6457D02*
D03*
X9352D02*
D03*
X9383D02*
D03*
X9415D02*
D03*
X9446D02*
D03*
X9478D02*
D03*
X9509D02*
D03*
X9541D02*
D03*
X9543Y6122D02*
D03*
X9511D02*
D03*
X9480D02*
D03*
X9448D02*
D03*
X9417D02*
D03*
X9385D02*
D03*
X9354D02*
D03*
X9322D02*
D03*
D94*
X11086Y7441D02*
D03*
X11112D02*
D03*
X11137D02*
D03*
X11163D02*
D03*
X11188D02*
D03*
X11214D02*
D03*
X11240D02*
D03*
X11265D02*
D03*
Y7189D02*
D03*
X11240D02*
D03*
X11214D02*
D03*
X11188D02*
D03*
X11163D02*
D03*
X11137D02*
D03*
X11112D02*
D03*
X11086D02*
D03*
Y6963D02*
D03*
X11112D02*
D03*
X11137D02*
D03*
X11163D02*
D03*
X11188D02*
D03*
X11214D02*
D03*
X11240D02*
D03*
X11265D02*
D03*
Y6711D02*
D03*
X11240D02*
D03*
X11214D02*
D03*
X11188D02*
D03*
X11163D02*
D03*
X11137D02*
D03*
X11112D02*
D03*
X11086D02*
D03*
D97*
X9088Y7035D02*
D03*
X9127D02*
D03*
X9166D02*
D03*
X9206D02*
D03*
X9245D02*
D03*
X9284D02*
D03*
X9324D02*
D03*
X9363D02*
D03*
X9403D02*
D03*
X9442D02*
D03*
X9481D02*
D03*
X9521D02*
D03*
X9560D02*
D03*
X9599D02*
D03*
X9638D02*
D03*
X10229D02*
D03*
X9678D02*
D03*
X9717D02*
D03*
X9757D02*
D03*
X9796D02*
D03*
X9835D02*
D03*
X9875D02*
D03*
X9914D02*
D03*
X9953D02*
D03*
X9993D02*
D03*
X10032D02*
D03*
X10072D02*
D03*
X10111D02*
D03*
X10150D02*
D03*
X10190D02*
D03*
D104*
X15236Y8458D02*
D03*
X15306D02*
D03*
X15186D02*
D03*
X15116D02*
D03*
X15186Y7040D02*
D03*
X15116D02*
D03*
X15236D02*
D03*
X15306D02*
D03*
X14931Y6860D02*
D03*
X14861D02*
D03*
X14931Y6920D02*
D03*
X14861D02*
D03*
X15116Y7748D02*
D03*
X15186D02*
D03*
X15306D02*
D03*
X15236D02*
D03*
X14861Y7398D02*
D03*
X14931D02*
D03*
Y7308D02*
D03*
X14861D02*
D03*
X14931Y7248D02*
D03*
X14861D02*
D03*
X14861Y7568D02*
D03*
X14931D02*
D03*
X14861Y7478D02*
D03*
X14931D02*
D03*
X15251Y7308D02*
D03*
X15181D02*
D03*
X14861Y7628D02*
D03*
X14931D02*
D03*
Y8338D02*
D03*
X14861D02*
D03*
X15181Y8018D02*
D03*
X15251D02*
D03*
X14931Y8188D02*
D03*
X14861D02*
D03*
X14931Y8278D02*
D03*
X14861D02*
D03*
X14861Y7958D02*
D03*
X14931D02*
D03*
X14861Y8018D02*
D03*
X14931D02*
D03*
Y8108D02*
D03*
X14861D02*
D03*
X15186Y6331D02*
D03*
X15116D02*
D03*
X15236D02*
D03*
X15306D02*
D03*
X14931Y5981D02*
D03*
X14861D02*
D03*
Y5891D02*
D03*
X14931D02*
D03*
X14861Y5831D02*
D03*
X14931D02*
D03*
Y6151D02*
D03*
X14861D02*
D03*
X14931Y6061D02*
D03*
X14861D02*
D03*
X15181Y5891D02*
D03*
X15251D02*
D03*
X14931Y6211D02*
D03*
X14861D02*
D03*
X14931Y6690D02*
D03*
X14861D02*
D03*
Y6600D02*
D03*
X14931D02*
D03*
X14861Y6536D02*
D03*
X14931D02*
D03*
Y6770D02*
D03*
X14861D02*
D03*
X15181Y6600D02*
D03*
X15251D02*
D03*
X14591Y8448D02*
D03*
X14521D02*
D03*
X14317Y8384D02*
D03*
X14247D02*
D03*
X14591Y7030D02*
D03*
X14521D02*
D03*
Y7738D02*
D03*
X14591D02*
D03*
X14576Y7248D02*
D03*
X14646D02*
D03*
Y7958D02*
D03*
X14576D02*
D03*
X13893Y8377D02*
D03*
X13823D02*
D03*
X14591Y6321D02*
D03*
X14521D02*
D03*
X14646Y5831D02*
D03*
X14576D02*
D03*
X14646Y6540D02*
D03*
X14576D02*
D03*
X13563Y6463D02*
D03*
X13493D02*
D03*
X13864Y5825D02*
D03*
X13934D02*
D03*
X12270Y8483D02*
D03*
X12200D02*
D03*
X12111Y8483D02*
D03*
X12048D02*
D03*
X11833Y8469D02*
D03*
X11763D02*
D03*
X11622Y7168D02*
D03*
X11552D02*
D03*
X13051Y7786D02*
D03*
X12981D02*
D03*
X12311Y7125D02*
D03*
X12241D02*
D03*
X11532Y6983D02*
D03*
X11462D02*
D03*
X11532Y7467D02*
D03*
X11462D02*
D03*
X11690Y7400D02*
D03*
X11760D02*
D03*
X11908Y7242D02*
D03*
X11838D02*
D03*
X11908Y6904D02*
D03*
X11838D02*
D03*
X11690Y7243D02*
D03*
X11760D02*
D03*
X11690Y6904D02*
D03*
X11760D02*
D03*
X11908Y7400D02*
D03*
X11838D02*
D03*
X11908Y7323D02*
D03*
X11838D02*
D03*
X11763Y8402D02*
D03*
X11833D02*
D03*
X11765Y8329D02*
D03*
X11835D02*
D03*
X12402Y6451D02*
D03*
X12332D02*
D03*
X12004Y6384D02*
D03*
X11934D02*
D03*
X11866D02*
D03*
X11796D02*
D03*
X12942Y6034D02*
D03*
X13012D02*
D03*
X11833Y5892D02*
D03*
X11903D02*
D03*
X11833Y5991D02*
D03*
X11903D02*
D03*
X11833Y6050D02*
D03*
X11903D02*
D03*
X11908Y6757D02*
D03*
X11838D02*
D03*
X11690D02*
D03*
X11760D02*
D03*
X11908Y6834D02*
D03*
X11838D02*
D03*
X11473Y7169D02*
D03*
X11403D02*
D03*
X11410Y7467D02*
D03*
X11340D02*
D03*
X11410Y6983D02*
D03*
X11340D02*
D03*
X11261Y7794D02*
D03*
X11331D02*
D03*
X11206Y7577D02*
D03*
X11143D02*
D03*
X10863Y7290D02*
D03*
X10800D02*
D03*
X11214Y7101D02*
D03*
X11151D02*
D03*
X11211Y7519D02*
D03*
X11141D02*
D03*
X11335Y7101D02*
D03*
X11265D02*
D03*
X11335Y7577D02*
D03*
X11265D02*
D03*
X10844Y7066D02*
D03*
X10914D02*
D03*
X10836Y6928D02*
D03*
X10906D02*
D03*
X10836Y6991D02*
D03*
X10906D02*
D03*
X11214Y7042D02*
D03*
X11144D02*
D03*
X9973Y5927D02*
D03*
X10043D02*
D03*
X9973Y6002D02*
D03*
X10043D02*
D03*
X9973Y6077D02*
D03*
X10043D02*
D03*
X9973Y6152D02*
D03*
X10043D02*
D03*
X11454Y6622D02*
D03*
X11384D02*
D03*
X11453Y6693D02*
D03*
X11383D02*
D03*
X10863Y6833D02*
D03*
X10800D02*
D03*
X9513Y6723D02*
D03*
X9443D02*
D03*
X9225D02*
D03*
X9295D02*
D03*
X9296Y6794D02*
D03*
X9226D02*
D03*
X9061Y6021D02*
D03*
X8991D02*
D03*
X9062Y5949D02*
D03*
X8992D02*
D03*
X9231Y6021D02*
D03*
X9161D02*
D03*
X8106Y6066D02*
D03*
X8036D02*
D03*
X8248D02*
D03*
X8178D02*
D03*
X6271Y6835D02*
D03*
X6341D02*
D03*
X4651Y7369D02*
D03*
X4721D02*
D03*
X4716Y7533D02*
D03*
X4646D02*
D03*
X4725Y7100D02*
D03*
X4655D02*
D03*
X5100Y7098D02*
D03*
X5170D02*
D03*
X5087Y7533D02*
D03*
X5157D02*
D03*
D105*
X13315Y8085D02*
D03*
X13225Y8085D02*
D03*
X13405D02*
D03*
X13307Y6030D02*
D03*
X13217Y6030D02*
D03*
X13397D02*
D03*
X10930Y7994D02*
D03*
X11110D02*
D03*
X11020D02*
D03*
X9490Y8013D02*
D03*
X9670D02*
D03*
X9580Y8013D02*
D03*
X7688Y8020D02*
D03*
X7868D02*
D03*
X7778Y8020D02*
D03*
D109*
X9598Y6401D02*
D03*
Y6369D02*
D03*
Y6338D02*
D03*
Y6306D02*
D03*
Y6275D02*
D03*
Y6243D02*
D03*
Y6212D02*
D03*
Y6180D02*
D03*
X9264Y6177D02*
D03*
Y6209D02*
D03*
Y6240D02*
D03*
Y6272D02*
D03*
Y6303D02*
D03*
Y6335D02*
D03*
Y6366D02*
D03*
Y6398D02*
D03*
D110*
X14981Y8473D02*
D03*
Y8448D02*
D03*
X15064Y8422D02*
D03*
Y8448D02*
D03*
Y8473D02*
D03*
X14981Y8422D02*
D03*
Y7055D02*
D03*
Y7030D02*
D03*
X15064Y7004D02*
D03*
Y7030D02*
D03*
Y7055D02*
D03*
X14981Y7004D02*
D03*
Y7712D02*
D03*
X15064Y7763D02*
D03*
Y7738D02*
D03*
Y7712D02*
D03*
X14981Y7738D02*
D03*
Y7763D02*
D03*
Y6346D02*
D03*
Y6321D02*
D03*
X15064Y6295D02*
D03*
Y6321D02*
D03*
Y6346D02*
D03*
X14981Y6295D02*
D03*
D112*
X13650Y7897D02*
D03*
Y7967D02*
D03*
X13158Y7913D02*
D03*
Y7983D02*
D03*
X14101Y8157D02*
D03*
Y8227D02*
D03*
X14178Y8157D02*
D03*
Y8227D02*
D03*
X13800Y6171D02*
D03*
Y6241D02*
D03*
X13693Y6110D02*
D03*
Y6180D02*
D03*
X13139Y5889D02*
D03*
Y5959D02*
D03*
X13879Y6171D02*
D03*
Y6241D02*
D03*
X14219Y5892D02*
D03*
Y5822D02*
D03*
X12265Y7755D02*
D03*
Y7685D02*
D03*
X12324Y7755D02*
D03*
Y7685D02*
D03*
X13044Y6470D02*
D03*
Y6400D02*
D03*
X11938Y6172D02*
D03*
Y6242D02*
D03*
X11031Y7289D02*
D03*
Y7219D02*
D03*
X10969Y6960D02*
D03*
Y7030D02*
D03*
X11031Y6831D02*
D03*
Y6761D02*
D03*
X9737Y8084D02*
D03*
Y8154D02*
D03*
X9714Y6640D02*
D03*
Y6570D02*
D03*
Y6688D02*
D03*
Y6758D02*
D03*
X9654Y6707D02*
D03*
Y6777D02*
D03*
X9162Y6339D02*
D03*
Y6269D02*
D03*
X7935Y8091D02*
D03*
Y8161D02*
D03*
X6249Y6333D02*
D03*
Y6263D02*
D03*
X6326Y6333D02*
D03*
Y6263D02*
D03*
D115*
X4793Y7466D02*
D03*
Y7440D02*
D03*
Y7415D02*
D03*
Y7389D02*
D03*
Y7363D02*
D03*
Y7338D02*
D03*
Y7312D02*
D03*
Y7491D02*
D03*
Y7517D02*
D03*
Y7287D02*
D03*
Y7261D02*
D03*
Y7236D02*
D03*
X4998Y7261D02*
D03*
Y7287D02*
D03*
Y7312D02*
D03*
Y7338D02*
D03*
Y7363D02*
D03*
Y7389D02*
D03*
Y7415D02*
D03*
Y7440D02*
D03*
Y7466D02*
D03*
Y7491D02*
D03*
Y7517D02*
D03*
Y7236D02*
D03*
X4793Y7046D02*
D03*
Y7020D02*
D03*
Y6995D02*
D03*
Y6969D02*
D03*
Y6943D02*
D03*
Y6918D02*
D03*
Y6892D02*
D03*
Y7071D02*
D03*
Y7097D02*
D03*
Y6867D02*
D03*
Y6841D02*
D03*
Y6816D02*
D03*
X4998Y6841D02*
D03*
Y6867D02*
D03*
Y6892D02*
D03*
Y6918D02*
D03*
Y6943D02*
D03*
Y6969D02*
D03*
Y6995D02*
D03*
Y7020D02*
D03*
Y7046D02*
D03*
Y7071D02*
D03*
Y7097D02*
D03*
Y6816D02*
D03*
D116*
X15186Y6862D02*
D03*
Y6956D02*
D03*
Y7664D02*
D03*
Y7570D02*
D03*
Y8280D02*
D03*
Y8374D02*
D03*
Y6153D02*
D03*
Y6247D02*
D03*
D120*
X9888Y6152D02*
D03*
X9798D02*
D03*
X9888Y6077D02*
D03*
X9798D02*
D03*
X9888Y5927D02*
D03*
X9798D02*
D03*
X9888Y6002D02*
D03*
X9798D02*
D03*
D123*
X15126Y6860D02*
D03*
X14991D02*
D03*
Y7568D02*
D03*
X15126D02*
D03*
Y7308D02*
D03*
X14991D02*
D03*
Y8018D02*
D03*
X15126D02*
D03*
Y8278D02*
D03*
X14991D02*
D03*
X15126Y6151D02*
D03*
X14991D02*
D03*
Y5891D02*
D03*
X15126D02*
D03*
X14991Y6600D02*
D03*
X15126D02*
D03*
X13671Y7238D02*
D03*
X13806D02*
D03*
X13671Y7160D02*
D03*
X13806D02*
D03*
X13671Y7010D02*
D03*
X13806D02*
D03*
Y7518D02*
D03*
X13671D02*
D03*
X13806Y7438D02*
D03*
X13671D02*
D03*
Y6930D02*
D03*
X13806D02*
D03*
Y6651D02*
D03*
X13671D02*
D03*
X13806Y6731D02*
D03*
X13671D02*
D03*
D125*
X7322Y7474D02*
D03*
X7422D02*
D03*
D126*
X14626Y6915D02*
D03*
X14491D02*
D03*
Y7623D02*
D03*
X14626D02*
D03*
Y8333D02*
D03*
X14491D02*
D03*
X14626Y6206D02*
D03*
X14491D02*
D03*
X10920Y8084D02*
D03*
X11055D02*
D03*
X9062Y6108D02*
D03*
X9197D02*
D03*
X4801Y8000D02*
D03*
X4666D02*
D03*
X4801Y7882D02*
D03*
X4666D02*
D03*
D131*
X13810Y8286D02*
D03*
X13910D02*
D03*
X14010Y8123D02*
D03*
X13910D02*
D03*
X13810D02*
D03*
X14010Y8286D02*
D03*
X13803Y5910D02*
D03*
X14003Y6073D02*
D03*
X13903D02*
D03*
X13803D02*
D03*
X13903Y5910D02*
D03*
X14003D02*
D03*
D133*
X10999Y6247D02*
D03*
Y6227D02*
D03*
Y6207D02*
D03*
Y6188D02*
D03*
X11000Y6010D02*
D03*
Y5794D02*
D03*
X11767Y5833D02*
D03*
Y5853D02*
D03*
Y5814D02*
D03*
Y5794D02*
D03*
Y5892D02*
D03*
Y5873D02*
D03*
Y5912D02*
D03*
Y5932D02*
D03*
Y5951D02*
D03*
Y5971D02*
D03*
Y5991D02*
D03*
Y6010D02*
D03*
Y6030D02*
D03*
Y6050D02*
D03*
Y6070D02*
D03*
Y6089D02*
D03*
Y6109D02*
D03*
X11000Y6168D02*
D03*
Y6148D02*
D03*
Y6129D02*
D03*
Y6109D02*
D03*
Y6089D02*
D03*
Y6070D02*
D03*
Y6050D02*
D03*
Y6030D02*
D03*
Y5991D02*
D03*
Y5971D02*
D03*
Y5951D02*
D03*
Y5932D02*
D03*
Y5912D02*
D03*
Y5892D02*
D03*
Y5873D02*
D03*
Y5853D02*
D03*
Y5833D02*
D03*
Y5814D02*
D03*
X11767Y6129D02*
D03*
Y6148D02*
D03*
Y6168D02*
D03*
Y6188D02*
D03*
Y6207D02*
D03*
Y6227D02*
D03*
Y6247D02*
D03*
X12774Y6325D02*
D03*
Y6306D02*
D03*
X12007Y5794D02*
D03*
Y5814D02*
D03*
Y5833D02*
D03*
Y5853D02*
D03*
Y5873D02*
D03*
Y5892D02*
D03*
Y5912D02*
D03*
Y5932D02*
D03*
Y5951D02*
D03*
Y5971D02*
D03*
Y5991D02*
D03*
X12774Y6286D02*
D03*
Y6266D02*
D03*
Y6247D02*
D03*
Y6227D02*
D03*
Y6207D02*
D03*
Y6188D02*
D03*
Y6168D02*
D03*
Y6148D02*
D03*
Y6129D02*
D03*
Y6109D02*
D03*
Y6089D02*
D03*
Y6070D02*
D03*
Y6050D02*
D03*
Y6030D02*
D03*
Y6010D02*
D03*
Y5991D02*
D03*
Y5971D02*
D03*
Y5951D02*
D03*
Y5932D02*
D03*
Y5912D02*
D03*
Y5892D02*
D03*
Y5873D02*
D03*
Y5853D02*
D03*
Y5833D02*
D03*
Y5814D02*
D03*
Y5794D02*
D03*
X12007Y6010D02*
D03*
Y6030D02*
D03*
Y6050D02*
D03*
Y6070D02*
D03*
Y6089D02*
D03*
Y6109D02*
D03*
Y6129D02*
D03*
Y6148D02*
D03*
Y6168D02*
D03*
Y6188D02*
D03*
Y6207D02*
D03*
Y6247D02*
D03*
Y6266D02*
D03*
Y6286D02*
D03*
Y6227D02*
D03*
Y6325D02*
D03*
Y6306D02*
D03*
D138*
X14780Y7413D02*
D03*
Y7363D02*
D03*
Y7313D02*
D03*
X14556D02*
D03*
Y7363D02*
D03*
Y7413D02*
D03*
X14780Y7463D02*
D03*
Y8173D02*
D03*
X14556Y8123D02*
D03*
Y8073D02*
D03*
Y8023D02*
D03*
X14780D02*
D03*
Y8073D02*
D03*
Y8123D02*
D03*
Y6046D02*
D03*
X14556Y5996D02*
D03*
Y5946D02*
D03*
Y5896D02*
D03*
X14780D02*
D03*
Y5946D02*
D03*
Y5996D02*
D03*
Y6755D02*
D03*
X14556Y6705D02*
D03*
Y6655D02*
D03*
Y6605D02*
D03*
X14780D02*
D03*
Y6655D02*
D03*
Y6705D02*
D03*
X11611Y6854D02*
D03*
Y6804D02*
D03*
Y6754D02*
D03*
X11387D02*
D03*
Y6804D02*
D03*
Y6854D02*
D03*
X11611Y6904D02*
D03*
Y7346D02*
D03*
Y7296D02*
D03*
Y7246D02*
D03*
X11387D02*
D03*
Y7296D02*
D03*
Y7346D02*
D03*
X11611Y7396D02*
D03*
X9789Y6693D02*
D03*
Y6743D02*
D03*
Y6793D02*
D03*
X10013D02*
D03*
Y6743D02*
D03*
Y6693D02*
D03*
X9789Y6643D02*
D03*
D140*
X6421Y6471D02*
D03*
Y6521D02*
D03*
Y6571D02*
D03*
Y6621D02*
D03*
Y6671D02*
D03*
Y6721D02*
D03*
Y6771D02*
D03*
D143*
X14015Y8383D02*
D03*
X14165D02*
D03*
X14131Y5834D02*
D03*
Y5984D02*
D03*
D144*
X15628Y7302D02*
X15817D01*
Y7676D02*
X15628D01*
Y8385D02*
X15817D01*
Y8011D02*
X15628D01*
X15628Y6967D02*
X15817D01*
X15817Y6593D02*
X15628D01*
Y6258D02*
X15817D01*
Y5884D02*
X15628D01*
D145*
X7330Y7134D02*
D03*
Y6792D02*
D03*
X6898Y7292D02*
D03*
Y6950D02*
D03*
X6122Y6770D02*
D03*
Y6428D02*
D03*
D152*
X15801Y7489D02*
D03*
Y8198D02*
D03*
Y6780D02*
D03*
Y6071D02*
D03*
X13529Y7991D02*
D03*
Y7856D02*
D03*
X13387Y7991D02*
D03*
Y7856D02*
D03*
X13245Y7987D02*
D03*
Y7852D02*
D03*
X13475Y5959D02*
D03*
Y5824D02*
D03*
X13227Y5959D02*
D03*
Y5824D02*
D03*
X13367Y5959D02*
D03*
Y5824D02*
D03*
X10946Y7290D02*
D03*
Y7155D02*
D03*
X11260Y7859D02*
D03*
Y7994D02*
D03*
X10946Y6698D02*
D03*
Y6833D02*
D03*
X9650Y8219D02*
D03*
Y8084D02*
D03*
X9508Y8219D02*
D03*
Y8084D02*
D03*
X7849Y8226D02*
D03*
Y8091D02*
D03*
X7687Y8226D02*
D03*
Y8091D02*
D03*
D154*
X6371Y6996D02*
D03*
X6621D02*
D03*
D156*
X8971Y7129D02*
D03*
X10345Y7129D02*
D03*
D157*
X7205Y7454D02*
D03*
X7539D02*
D03*
X6230Y7447D02*
D03*
X6564D02*
D03*
D160*
X5441Y7912D02*
D03*
X5098D02*
D03*
D162*
X13293Y8270D02*
X13338D01*
Y8280D01*
X13293D01*
Y8270D01*
X13273Y6215D02*
X13342D01*
Y6225D01*
X13273D01*
Y6215D01*
X10970Y7799D02*
X11070D01*
Y7809D01*
X10970D01*
Y7799D01*
X9530Y7818D02*
X9630D01*
Y7828D01*
X9530D01*
Y7818D01*
X7728Y7825D02*
X7828D01*
Y7835D01*
X7728D01*
Y7825D01*
X6676Y6535D02*
X6826D01*
Y6705D01*
X6676D01*
Y6535D01*
D02*
M02*
