*%FSLAX23Y23*%
*%MOIN*%
G01*
D11*
X4162Y5737D02*
Y8532D01*
X15879D02*
Y5737D01*
X4162D01*
Y8532D02*
X15879D01*
D32*
X13304Y7125D02*
D03*
X13343D02*
D03*
Y7050D02*
D03*
X13383D02*
D03*
D104*
X14946Y8433D02*
D03*
X15016D02*
D03*
X14946Y7015D02*
D03*
X15016D02*
D03*
Y7723D02*
D03*
X14946D02*
D03*
X14931Y7438D02*
D03*
X14861D02*
D03*
Y8148D02*
D03*
X14931D02*
D03*
X14946Y6306D02*
D03*
X15016D02*
D03*
X14861Y6021D02*
D03*
X14931D02*
D03*
X14861Y6730D02*
D03*
X14931D02*
D03*
X13335Y7332D02*
D03*
X13265D02*
D03*
X13599Y7947D02*
D03*
X13529D02*
D03*
X13950Y8209D02*
D03*
X13880D02*
D03*
X14611Y7473D02*
D03*
X14541D02*
D03*
X14491Y7438D02*
D03*
X14421D02*
D03*
X14611Y7403D02*
D03*
X14541D02*
D03*
Y8113D02*
D03*
X14611D02*
D03*
X14421Y8148D02*
D03*
X14491D02*
D03*
X14541Y8183D02*
D03*
X14611D02*
D03*
X13151Y7416D02*
D03*
X13221D02*
D03*
X13108Y7121D02*
D03*
X13178D02*
D03*
X13108Y7199D02*
D03*
X13178D02*
D03*
X13033Y6904D02*
D03*
X13103D02*
D03*
X13599Y7877D02*
D03*
X13529D02*
D03*
X13599Y8097D02*
D03*
X13529D02*
D03*
X13599Y8026D02*
D03*
X13529D02*
D03*
X13599Y8168D02*
D03*
X13529D02*
D03*
X13599Y8239D02*
D03*
X13529D02*
D03*
X13599Y8306D02*
D03*
X13529D02*
D03*
X13599Y8373D02*
D03*
X13529D02*
D03*
X13818Y6239D02*
D03*
X13888D02*
D03*
X13818Y6179D02*
D03*
X13888D02*
D03*
X13932Y5987D02*
D03*
X13862D02*
D03*
X14421Y6730D02*
D03*
X14491D02*
D03*
X14541Y6056D02*
D03*
X14611D02*
D03*
X14421Y6021D02*
D03*
X14491D02*
D03*
X14541Y5986D02*
D03*
X14611D02*
D03*
X14541Y6765D02*
D03*
X14611D02*
D03*
X14541Y6695D02*
D03*
X14611D02*
D03*
X13183Y6810D02*
D03*
X13253D02*
D03*
X13662Y6286D02*
D03*
X13592D02*
D03*
X13662Y6215D02*
D03*
X13592D02*
D03*
X13662Y6136D02*
D03*
X13592D02*
D03*
X13662Y6066D02*
D03*
X13592D02*
D03*
X13662Y5995D02*
D03*
X13592D02*
D03*
X13662Y5924D02*
D03*
X13592D02*
D03*
X13662Y5857D02*
D03*
X13592D02*
D03*
X13662Y5790D02*
D03*
X13592D02*
D03*
X12158Y8095D02*
D03*
X12088D02*
D03*
X12178Y7845D02*
D03*
X12241D02*
D03*
X12178Y7908D02*
D03*
X12241D02*
D03*
X12317Y7845D02*
D03*
X12387D02*
D03*
X12317Y7908D02*
D03*
X12387D02*
D03*
X12262Y7719D02*
D03*
X12332D02*
D03*
X12876Y6904D02*
D03*
X12946D02*
D03*
X12801Y7121D02*
D03*
X12871D02*
D03*
X12801Y7199D02*
D03*
X12871D02*
D03*
X12770Y7424D02*
D03*
X12840D02*
D03*
X12135Y7396D02*
D03*
X12065D02*
D03*
X12174Y7333D02*
D03*
X12104D02*
D03*
X12951Y6810D02*
D03*
X13021D02*
D03*
X12758D02*
D03*
X12828D02*
D03*
X9963Y6197D02*
D03*
X10033D02*
D03*
Y6137D02*
D03*
X9963D02*
D03*
Y6077D02*
D03*
X10033D02*
D03*
Y6257D02*
D03*
X9963D02*
D03*
X9793Y6164D02*
D03*
X9863D02*
D03*
D112*
X14686Y7308D02*
D03*
Y7378D02*
D03*
Y8088D02*
D03*
Y8018D02*
D03*
Y5961D02*
D03*
Y5891D02*
D03*
Y6670D02*
D03*
Y6600D02*
D03*
X13699Y7896D02*
D03*
Y7966D02*
D03*
X13761Y7896D02*
D03*
Y7966D02*
D03*
X13320Y6838D02*
D03*
Y6908D02*
D03*
X13599Y7797D02*
D03*
Y7727D02*
D03*
X13064Y7244D02*
D03*
Y7314D02*
D03*
X12694Y7248D02*
D03*
Y7318D02*
D03*
X12914Y7244D02*
D03*
Y7314D02*
D03*
X12361Y8458D02*
D03*
Y8388D02*
D03*
X12434Y8458D02*
D03*
Y8388D02*
D03*
X12674Y6911D02*
D03*
Y6841D02*
D03*
X6303Y6717D02*
D03*
Y6647D02*
D03*
D120*
X9890Y6236D02*
D03*
X9800D02*
D03*
D128*
X10162Y6125D02*
D03*
Y6215D02*
D03*
X10241D02*
D03*
Y6125D02*
D03*
X10320D02*
D03*
Y6215D02*
D03*
X10399D02*
D03*
Y6125D02*
D03*
D144*
X15628Y7332D02*
X15817D01*
Y7646D02*
X15628D01*
Y8355D02*
X15817D01*
Y8041D02*
X15628D01*
Y6937D02*
X15817D01*
Y6623D02*
X15628D01*
Y6228D02*
X15817D01*
Y5914D02*
X15628D01*
D02*
M02*
