*%FSLAX23Y23*%
*%MOIN*%
G01*
D11*
X4162Y5737D02*
Y8532D01*
X15879D02*
Y5737D01*
X4162D01*
Y8532D02*
X15879D01*
D12*
X14986Y8483D02*
X14983Y8480D01*
X14986Y8483D02*
X14993D01*
X14996Y8480D01*
Y8466D01*
X14993Y8463D01*
X14986D01*
X14983Y8466D01*
X14976Y8463D02*
X14963D01*
X14976D02*
X14963Y8476D01*
Y8480D01*
X14966Y8483D01*
X14973D01*
X14976Y8480D01*
X14956Y8483D02*
X14943D01*
X14956D02*
Y8473D01*
X14949Y8476D01*
X14946D01*
X14943Y8473D01*
Y8466D01*
X14946Y8463D01*
X14953D01*
X14956Y8466D01*
X14986Y7065D02*
X14983Y7062D01*
X14986Y7065D02*
X14993D01*
X14996Y7062D01*
Y7048D01*
X14993Y7045D01*
X14986D01*
X14983Y7048D01*
X14976Y7065D02*
X14963D01*
X14976D02*
Y7055D01*
X14969Y7058D01*
X14966D01*
X14963Y7055D01*
Y7048D01*
X14966Y7045D01*
X14973D01*
X14976Y7048D01*
X14956Y7062D02*
X14953Y7065D01*
X14946D01*
X14943Y7062D01*
Y7048D01*
X14946Y7045D01*
X14953D01*
X14956Y7048D01*
Y7062D01*
X14983Y7770D02*
X14986Y7773D01*
X14993D01*
X14996Y7770D01*
Y7756D01*
X14993Y7753D01*
X14986D01*
X14983Y7756D01*
X14976Y7753D02*
X14969D01*
X14973D01*
Y7773D01*
X14974D01*
X14973D02*
X14976Y7770D01*
X14953D02*
X14946Y7773D01*
X14953Y7770D02*
X14959Y7763D01*
Y7756D01*
X14956Y7753D01*
X14949D01*
X14946Y7756D01*
Y7760D01*
X14949Y7763D01*
X14959D01*
X14701Y7428D02*
X14698Y7425D01*
X14701Y7428D02*
X14708D01*
X14711Y7425D01*
Y7411D01*
X14708Y7408D01*
X14701D01*
X14698Y7411D01*
X14691Y7408D02*
X14684D01*
X14688D01*
Y7428D01*
X14689D01*
X14688D02*
X14691Y7425D01*
X14674Y7428D02*
X14661D01*
X14674D02*
Y7418D01*
X14668Y7421D01*
X14664D01*
X14661Y7418D01*
Y7411D01*
X14664Y7408D01*
X14671D01*
X14674Y7411D01*
X14898Y7485D02*
X14901Y7488D01*
X14908D01*
X14911Y7485D01*
Y7471D01*
X14908Y7468D01*
X14901D01*
X14898Y7471D01*
X14891Y7488D02*
X14878D01*
Y7485D01*
X14891Y7471D01*
Y7468D01*
X14898Y8195D02*
X14901Y8198D01*
X14908D01*
X14911Y8195D01*
Y8181D01*
X14908Y8178D01*
X14901D01*
X14898Y8181D01*
X14891Y8178D02*
X14878D01*
X14891D02*
X14878Y8191D01*
Y8195D01*
X14881Y8198D01*
X14888D01*
X14891Y8195D01*
X14871Y8178D02*
X14864D01*
X14868D01*
Y8198D01*
X14869D01*
X14868D02*
X14871Y8195D01*
X14701Y8138D02*
X14698Y8135D01*
X14701Y8138D02*
X14708D01*
X14711Y8135D01*
Y8121D01*
X14708Y8118D01*
X14701D01*
X14698Y8121D01*
X14691Y8118D02*
X14678D01*
X14691D02*
X14678Y8131D01*
Y8135D01*
X14681Y8138D01*
X14688D01*
X14691Y8135D01*
X14671D02*
X14668Y8138D01*
X14661D01*
X14658Y8135D01*
Y8131D01*
X14659D01*
X14658D02*
X14659D01*
X14658D02*
X14659D01*
X14658D02*
X14661Y8128D01*
X14664D01*
X14661D01*
X14658Y8125D01*
Y8121D01*
X14661Y8118D01*
X14668D01*
X14671Y8121D01*
X14972Y6275D02*
X14969Y6272D01*
X14972Y6275D02*
X14979D01*
X14982Y6272D01*
Y6258D01*
X14979Y6255D01*
X14972D01*
X14969Y6258D01*
X14955Y6272D02*
X14949Y6275D01*
X14955Y6272D02*
X14962Y6265D01*
Y6258D01*
X14959Y6255D01*
X14952D01*
X14949Y6258D01*
Y6262D01*
X14952Y6265D01*
X14962D01*
X14942Y6258D02*
X14939Y6255D01*
X14932D01*
X14929Y6258D01*
Y6272D01*
X14932Y6275D01*
X14939D01*
X14942Y6272D01*
Y6268D01*
X14939Y6265D01*
X14929D01*
X14701Y6011D02*
X14698Y6008D01*
X14701Y6011D02*
X14708D01*
X14711Y6008D01*
Y5994D01*
X14708Y5991D01*
X14701D01*
X14698Y5994D01*
X14684Y6008D02*
X14678Y6011D01*
X14684Y6008D02*
X14691Y6001D01*
Y5994D01*
X14688Y5991D01*
X14681D01*
X14678Y5994D01*
Y5998D01*
X14681Y6001D01*
X14691D01*
X14664Y6008D02*
X14658Y6011D01*
X14664Y6008D02*
X14671Y6001D01*
Y5994D01*
X14668Y5991D01*
X14661D01*
X14658Y5994D01*
Y5998D01*
X14661Y6001D01*
X14671D01*
X14898Y6068D02*
X14901Y6071D01*
X14908D01*
X14911Y6068D01*
Y6054D01*
X14908Y6051D01*
X14901D01*
X14898Y6054D01*
X14884Y6068D02*
X14878Y6071D01*
X14884Y6068D02*
X14891Y6061D01*
Y6054D01*
X14888Y6051D01*
X14881D01*
X14878Y6054D01*
Y6058D01*
X14881Y6061D01*
X14891D01*
X14861Y6071D02*
Y6051D01*
X14871Y6061D02*
X14861Y6071D01*
X14858Y6061D02*
X14871D01*
X14698Y6717D02*
X14701Y6720D01*
X14708D01*
X14711Y6717D01*
Y6703D01*
X14708Y6700D01*
X14701D01*
X14698Y6703D01*
X14681Y6700D02*
Y6720D01*
X14691Y6710D01*
X14678D01*
X14671Y6720D02*
X14658D01*
Y6717D01*
X14671Y6703D01*
Y6700D01*
X14898Y6777D02*
X14901Y6780D01*
X14908D01*
X14911Y6777D01*
Y6763D01*
X14908Y6760D01*
X14901D01*
X14898Y6763D01*
X14881Y6760D02*
Y6780D01*
X14891Y6770D01*
X14878D01*
X14871Y6780D02*
X14858D01*
X14871D02*
Y6770D01*
X14864Y6773D01*
X14861D01*
X14858Y6770D01*
Y6763D01*
X14861Y6760D01*
X14868D01*
X14871Y6763D01*
X14600Y7504D02*
Y7524D01*
X14590D01*
X14587Y7521D01*
Y7514D01*
X14590Y7511D01*
X14600D01*
X14593D02*
X14587Y7504D01*
X14580D02*
X14567D01*
X14580D02*
X14567Y7517D01*
Y7521D01*
X14570Y7524D01*
X14577D01*
X14580Y7521D01*
X14560D02*
X14557Y7524D01*
X14550D01*
X14547Y7521D01*
Y7517D01*
X14548D01*
X14547D02*
X14548D01*
X14547D02*
X14548D01*
X14547D02*
X14550Y7514D01*
X14553D01*
X14550D01*
X14547Y7511D01*
Y7507D01*
X14550Y7504D01*
X14557D01*
X14560Y7507D01*
X14470Y7489D02*
X14467Y7486D01*
X14470Y7489D02*
X14477D01*
X14480Y7486D01*
Y7472D01*
X14477Y7469D01*
X14470D01*
X14467Y7472D01*
X14460Y7486D02*
X14457Y7489D01*
X14450D01*
X14447Y7486D01*
Y7482D01*
X14450Y7479D01*
X14447Y7476D01*
Y7472D01*
X14450Y7469D01*
X14457D01*
X14460Y7472D01*
Y7476D01*
X14457Y7479D01*
X14460Y7482D01*
Y7486D01*
X14457Y7479D02*
X14450D01*
X14598Y7372D02*
Y7352D01*
Y7372D02*
X14588D01*
X14585Y7369D01*
Y7362D01*
X14588Y7359D01*
X14598D01*
X14591D02*
X14585Y7352D01*
X14578D02*
X14565D01*
X14578D02*
X14565Y7365D01*
Y7369D01*
X14568Y7372D01*
X14575D01*
X14578Y7369D01*
X14558Y7352D02*
X14551D01*
X14555D01*
Y7372D01*
X14556D01*
X14555D02*
X14558Y7369D01*
X14598Y8062D02*
Y8082D01*
X14588D01*
X14585Y8079D01*
Y8072D01*
X14588Y8069D01*
X14598D01*
X14591D02*
X14585Y8062D01*
X14578D02*
X14571D01*
X14575D01*
Y8082D01*
X14576D01*
X14575D02*
X14578Y8079D01*
X14561D02*
X14558Y8082D01*
X14551D01*
X14548Y8079D01*
Y8075D01*
X14551Y8072D01*
X14548Y8069D01*
Y8065D01*
X14551Y8062D01*
X14558D01*
X14561Y8065D01*
Y8069D01*
X14558Y8072D01*
X14561Y8075D01*
Y8079D01*
X14558Y8072D02*
X14551D01*
X14467Y8196D02*
X14470Y8199D01*
X14477D01*
X14480Y8196D01*
Y8182D01*
X14477Y8179D01*
X14470D01*
X14467Y8182D01*
X14460Y8179D02*
X14447D01*
X14460D02*
X14447Y8192D01*
Y8196D01*
X14450Y8199D01*
X14457D01*
X14460Y8196D01*
X14440Y8179D02*
X14427D01*
X14440D02*
X14427Y8192D01*
Y8196D01*
X14430Y8199D01*
X14437D01*
X14440Y8196D01*
X14600Y8214D02*
Y8234D01*
X14590D01*
X14587Y8231D01*
Y8224D01*
X14590Y8221D01*
X14600D01*
X14593D02*
X14587Y8214D01*
X14580D02*
X14573D01*
X14577D01*
Y8234D01*
X14578D01*
X14577D02*
X14580Y8231D01*
X14563Y8217D02*
X14560Y8214D01*
X14553D01*
X14550Y8217D01*
Y8231D01*
X14553Y8234D01*
X14560D01*
X14563Y8231D01*
Y8227D01*
X14560Y8224D01*
X14550D01*
X14470Y6781D02*
X14467Y6778D01*
X14470Y6781D02*
X14477D01*
X14480Y6778D01*
Y6764D01*
X14477Y6761D01*
X14470D01*
X14467Y6764D01*
X14450Y6761D02*
Y6781D01*
X14460Y6771D01*
X14447D01*
X14433Y6778D02*
X14427Y6781D01*
X14433Y6778D02*
X14440Y6771D01*
Y6764D01*
X14437Y6761D01*
X14430D01*
X14427Y6764D01*
Y6768D01*
X14430Y6771D01*
X14440D01*
X14600Y6107D02*
Y6087D01*
Y6107D02*
X14590D01*
X14587Y6104D01*
Y6097D01*
X14590Y6094D01*
X14600D01*
X14593D02*
X14587Y6087D01*
X14580Y6107D02*
X14567D01*
Y6104D01*
X14580Y6090D01*
Y6087D01*
X14560Y6090D02*
X14557Y6087D01*
X14550D01*
X14547Y6090D01*
Y6104D01*
X14550Y6107D01*
X14557D01*
X14560Y6104D01*
Y6100D01*
X14557Y6097D01*
X14547D01*
X14470Y6072D02*
X14467Y6069D01*
X14470Y6072D02*
X14477D01*
X14480Y6069D01*
Y6055D01*
X14477Y6052D01*
X14470D01*
X14467Y6055D01*
X14453Y6069D02*
X14447Y6072D01*
X14453Y6069D02*
X14460Y6062D01*
Y6055D01*
X14457Y6052D01*
X14450D01*
X14447Y6055D01*
Y6059D01*
X14450Y6062D01*
X14460D01*
X14440Y6072D02*
X14427D01*
X14440D02*
Y6062D01*
X14433Y6065D01*
X14430D01*
X14427Y6062D01*
Y6055D01*
X14430Y6052D01*
X14437D01*
X14440Y6055D01*
X14598Y5955D02*
Y5935D01*
Y5955D02*
X14588D01*
X14585Y5952D01*
Y5945D01*
X14588Y5942D01*
X14598D01*
X14591D02*
X14585Y5935D01*
X14578Y5955D02*
X14565D01*
Y5952D01*
X14578Y5938D01*
Y5935D01*
X14558Y5955D02*
X14545D01*
Y5952D01*
X14558Y5938D01*
Y5935D01*
X14600Y6796D02*
Y6816D01*
X14590D01*
X14587Y6813D01*
Y6806D01*
X14590Y6803D01*
X14600D01*
X14593D02*
X14587Y6796D01*
X14573Y6813D02*
X14567Y6816D01*
X14573Y6813D02*
X14580Y6806D01*
Y6799D01*
X14577Y6796D01*
X14570D01*
X14567Y6799D01*
Y6803D01*
X14570Y6806D01*
X14580D01*
X14560Y6813D02*
X14557Y6816D01*
X14550D01*
X14547Y6813D01*
Y6809D01*
X14550Y6806D01*
X14547Y6803D01*
Y6799D01*
X14550Y6796D01*
X14557D01*
X14560Y6799D01*
Y6803D01*
X14557Y6806D01*
X14560Y6809D01*
Y6813D01*
X14557Y6806D02*
X14550D01*
X14598Y6664D02*
Y6644D01*
Y6664D02*
X14588D01*
X14585Y6661D01*
Y6654D01*
X14588Y6651D01*
X14598D01*
X14591D02*
X14585Y6644D01*
X14571Y6661D02*
X14565Y6664D01*
X14571Y6661D02*
X14578Y6654D01*
Y6647D01*
X14575Y6644D01*
X14568D01*
X14565Y6647D01*
Y6651D01*
X14568Y6654D01*
X14578D01*
X14558Y6661D02*
X14555Y6664D01*
X14548D01*
X14545Y6661D01*
Y6647D01*
X14548Y6644D01*
X14555D01*
X14558Y6647D01*
Y6661D01*
D15*
X13351Y7112D02*
X13330D01*
X13318D02*
X13291D01*
X13299Y7181D02*
X13318D01*
X13312D02*
X13291D01*
X13330Y7179D02*
X13337D01*
X13333D02*
X13356D01*
X13330D02*
Y7112D01*
X13356Y7117D02*
Y7179D01*
X13318Y7181D02*
Y7112D01*
X13291D02*
Y7181D01*
X13356Y7117D02*
X13351Y7112D01*
X13721Y7997D02*
Y8032D01*
X13704D01*
X13698Y8026D01*
Y8014D01*
X13704Y8009D01*
X13721D01*
X13709D02*
X13698Y7997D01*
X13686Y8026D02*
X13680Y8032D01*
X13669D01*
X13663Y8026D01*
Y8020D01*
X13669Y8014D01*
X13663Y8009D01*
Y8003D01*
X13669Y7997D01*
X13680D01*
X13686Y8003D01*
Y8009D01*
X13680Y8014D01*
X13686Y8020D01*
Y8026D01*
X13680Y8014D02*
X13669D01*
X13651Y7997D02*
X13628D01*
X13651D02*
X13628Y8020D01*
Y8026D01*
X13634Y8032D01*
X13645D01*
X13651Y8026D01*
X13833Y8032D02*
Y7997D01*
Y8032D02*
X13816D01*
X13810Y8026D01*
Y8014D01*
X13816Y8009D01*
X13833D01*
X13821D02*
X13810Y7997D01*
X13798Y8026D02*
X13792Y8032D01*
X13781D01*
X13775Y8026D01*
Y8020D01*
X13781Y8014D01*
X13775Y8009D01*
Y8003D01*
X13781Y7997D01*
X13792D01*
X13798Y8003D01*
Y8009D01*
X13792Y8014D01*
X13798Y8020D01*
Y8026D01*
X13792Y8014D02*
X13781D01*
X13763Y7997D02*
X13751D01*
X13757D01*
Y8032D01*
X13758D01*
X13757D02*
X13763Y8026D01*
X13353Y7403D02*
X13347Y7397D01*
X13353Y7403D02*
X13364D01*
X13370Y7397D01*
Y7374D01*
X13364Y7368D01*
X13353D01*
X13347Y7374D01*
X13335Y7397D02*
X13329Y7403D01*
X13318D01*
X13312Y7397D01*
Y7391D01*
X13318Y7385D01*
X13312Y7380D01*
Y7374D01*
X13318Y7368D01*
X13329D01*
X13335Y7374D01*
Y7380D01*
X13329Y7385D01*
X13335Y7391D01*
Y7397D01*
X13329Y7385D02*
X13318D01*
X13300Y7374D02*
X13294Y7368D01*
X13283D01*
X13277Y7374D01*
Y7397D01*
X13283Y7403D01*
X13294D01*
X13300Y7397D01*
Y7391D01*
X13294Y7385D01*
X13277D01*
X13486Y7940D02*
Y7975D01*
Y7940D02*
X13463D01*
X13451D02*
X13428D01*
X13451D02*
X13428Y7963D01*
Y7969D01*
X13434Y7975D01*
X13445D01*
X13451Y7969D01*
X13416D02*
X13410Y7975D01*
X13399D01*
X13393Y7969D01*
Y7963D01*
X13394D01*
X13393D02*
X13394D01*
X13393D02*
X13394D01*
X13393D02*
X13399Y7957D01*
X13404D01*
X13399D01*
X13393Y7952D01*
Y7946D01*
X13399Y7940D01*
X13410D01*
X13416Y7946D01*
X13940Y8286D02*
X13946Y8292D01*
X13957D01*
X13963Y8286D01*
Y8263D01*
X13957Y8257D01*
X13946D01*
X13940Y8263D01*
X13928Y8286D02*
X13922Y8292D01*
X13911D01*
X13905Y8286D01*
Y8280D01*
X13911Y8274D01*
X13905Y8269D01*
Y8263D01*
X13911Y8257D01*
X13922D01*
X13928Y8263D01*
Y8269D01*
X13922Y8274D01*
X13928Y8280D01*
Y8286D01*
X13922Y8274D02*
X13911D01*
X13893Y8286D02*
X13887Y8292D01*
X13876D01*
X13870Y8286D01*
Y8280D01*
X13876Y8274D01*
X13870Y8269D01*
Y8263D01*
X13876Y8257D01*
X13887D01*
X13893Y8263D01*
Y8269D01*
X13887Y8274D01*
X13893Y8280D01*
Y8286D01*
X13887Y8274D02*
X13876D01*
X13231Y7497D02*
X13225Y7491D01*
X13231Y7497D02*
X13242D01*
X13248Y7491D01*
Y7468D01*
X13242Y7462D01*
X13231D01*
X13225Y7468D01*
X13213Y7491D02*
X13207Y7497D01*
X13196D01*
X13190Y7491D01*
Y7485D01*
X13196Y7479D01*
X13190Y7474D01*
Y7468D01*
X13196Y7462D01*
X13207D01*
X13213Y7468D01*
Y7474D01*
X13207Y7479D01*
X13213Y7485D01*
Y7491D01*
X13207Y7479D02*
X13196D01*
X13178Y7497D02*
X13155D01*
Y7491D01*
X13178Y7468D01*
Y7462D01*
X13356Y6900D02*
X13362Y6894D01*
X13356Y6900D02*
Y6911D01*
X13362Y6917D01*
X13385D01*
X13391Y6911D01*
Y6900D01*
X13385Y6894D01*
Y6882D02*
X13391Y6876D01*
Y6865D01*
X13385Y6859D01*
X13362D01*
X13356Y6865D01*
Y6876D01*
X13362Y6882D01*
X13368D01*
X13374Y6876D01*
Y6859D01*
X13391Y6847D02*
Y6835D01*
Y6841D01*
X13356D01*
X13357D01*
X13356D02*
X13362Y6847D01*
X13591Y7666D02*
X13585Y7672D01*
Y7683D01*
X13591Y7689D01*
X13614D01*
X13620Y7683D01*
Y7672D01*
X13614Y7666D01*
X13620Y7654D02*
Y7642D01*
Y7648D01*
X13585D01*
X13586D01*
X13585D02*
X13591Y7654D01*
Y7625D02*
X13585Y7619D01*
Y7607D01*
X13591Y7602D01*
X13614D01*
X13620Y7607D01*
Y7619D01*
X13614Y7625D01*
X13591D01*
X13585Y7590D02*
Y7567D01*
Y7590D02*
X13603D01*
X13597Y7578D01*
Y7572D01*
X13603Y7567D01*
X13614D01*
X13620Y7572D01*
Y7584D01*
X13614Y7590D01*
X13168Y7067D02*
X13174Y7061D01*
X13168Y7067D02*
Y7078D01*
X13174Y7084D01*
X13197D01*
X13203Y7078D01*
Y7067D01*
X13197Y7061D01*
X13203Y7049D02*
Y7037D01*
Y7043D01*
X13168D01*
X13169D01*
X13168D02*
X13174Y7049D01*
Y7020D02*
X13168Y7014D01*
Y7002D01*
X13174Y6997D01*
X13197D01*
X13203Y7002D01*
Y7014D01*
X13197Y7020D01*
X13174D01*
X13203Y6985D02*
Y6973D01*
Y6979D01*
X13168D01*
X13169D01*
X13168D02*
X13174Y6985D01*
X13250Y7253D02*
X13256Y7259D01*
X13267D01*
X13273Y7253D01*
Y7230D01*
X13267Y7224D01*
X13256D01*
X13250Y7230D01*
X13238Y7224D02*
X13226D01*
X13232D01*
Y7259D01*
X13233D01*
X13232D02*
X13238Y7253D01*
X13209D02*
X13203Y7259D01*
X13191D01*
X13186Y7253D01*
Y7230D01*
X13191Y7224D01*
X13203D01*
X13209Y7230D01*
Y7253D01*
X13174D02*
X13168Y7259D01*
X13156D01*
X13151Y7253D01*
Y7230D01*
X13156Y7224D01*
X13168D01*
X13174Y7230D01*
Y7253D01*
X13165Y7333D02*
X13171Y7339D01*
X13182D01*
X13188Y7333D01*
Y7310D01*
X13182Y7304D01*
X13171D01*
X13165Y7310D01*
X13153D02*
X13147Y7304D01*
X13136D01*
X13130Y7310D01*
Y7333D01*
X13136Y7339D01*
X13147D01*
X13153Y7333D01*
Y7327D01*
X13147Y7321D01*
X13130D01*
X13118Y7339D02*
X13095D01*
X13118D02*
Y7321D01*
X13106Y7327D01*
X13101D01*
X13095Y7321D01*
Y7310D01*
X13101Y7304D01*
X13112D01*
X13118Y7310D01*
X13105Y6960D02*
X13099Y6954D01*
X13105Y6960D02*
X13116D01*
X13122Y6954D01*
Y6931D01*
X13116Y6925D01*
X13105D01*
X13099Y6931D01*
X13087D02*
X13081Y6925D01*
X13070D01*
X13064Y6931D01*
Y6954D01*
X13070Y6960D01*
X13081D01*
X13087Y6954D01*
Y6948D01*
X13081Y6942D01*
X13064D01*
X13035Y6925D02*
Y6960D01*
X13052Y6942D01*
X13029D01*
X13485Y7880D02*
Y7915D01*
Y7880D02*
X13462D01*
X13450D02*
X13427D01*
X13450D02*
X13427Y7903D01*
Y7909D01*
X13433Y7915D01*
X13444D01*
X13450Y7909D01*
X13415D02*
X13409Y7915D01*
X13398D01*
X13392Y7909D01*
Y7886D01*
X13398Y7880D01*
X13409D01*
X13415Y7886D01*
Y7909D01*
X13485Y8084D02*
Y8119D01*
Y8084D02*
X13462D01*
X13450D02*
X13427D01*
X13450D02*
X13427Y8107D01*
Y8113D01*
X13433Y8119D01*
X13444D01*
X13450Y8113D01*
X13415Y8119D02*
X13392D01*
X13415D02*
Y8101D01*
X13403Y8107D01*
X13398D01*
X13392Y8101D01*
Y8090D01*
X13398Y8084D01*
X13409D01*
X13415Y8090D01*
X13486Y8056D02*
Y8021D01*
X13463D01*
X13451D02*
X13428D01*
X13451D02*
X13428Y8044D01*
Y8050D01*
X13434Y8056D01*
X13445D01*
X13451Y8050D01*
X13399Y8056D02*
Y8021D01*
X13416Y8038D02*
X13399Y8056D01*
X13393Y8038D02*
X13416D01*
X13724Y8153D02*
Y8188D01*
Y8153D02*
X13701D01*
X13689D02*
X13666D01*
X13689D02*
X13666Y8176D01*
Y8182D01*
X13672Y8188D01*
X13683D01*
X13689Y8182D01*
X13642D02*
X13631Y8188D01*
X13642Y8182D02*
X13654Y8170D01*
Y8159D01*
X13648Y8153D01*
X13637D01*
X13631Y8159D01*
Y8165D01*
X13637Y8170D01*
X13654D01*
X13723Y8218D02*
Y8253D01*
Y8218D02*
X13700D01*
X13688D02*
X13665D01*
X13688D02*
X13665Y8241D01*
Y8247D01*
X13671Y8253D01*
X13682D01*
X13688Y8247D01*
X13653Y8253D02*
X13630D01*
Y8247D01*
X13653Y8224D01*
Y8218D01*
X13722Y8289D02*
Y8324D01*
Y8289D02*
X13699D01*
X13687D02*
X13664D01*
X13687D02*
X13664Y8312D01*
Y8318D01*
X13670Y8324D01*
X13681D01*
X13687Y8318D01*
X13652D02*
X13646Y8324D01*
X13635D01*
X13629Y8318D01*
Y8312D01*
X13635Y8306D01*
X13629Y8301D01*
Y8295D01*
X13635Y8289D01*
X13646D01*
X13652Y8295D01*
Y8301D01*
X13646Y8306D01*
X13652Y8312D01*
Y8318D01*
X13646Y8306D02*
X13635D01*
X13720Y8351D02*
Y8386D01*
Y8351D02*
X13697D01*
X13685D02*
X13662D01*
X13685D02*
X13662Y8374D01*
Y8380D01*
X13668Y8386D01*
X13679D01*
X13685Y8380D01*
X13650Y8357D02*
X13644Y8351D01*
X13633D01*
X13627Y8357D01*
Y8380D01*
X13633Y8386D01*
X13644D01*
X13650Y8380D01*
Y8374D01*
X13644Y8368D01*
X13627D01*
X14008Y6263D02*
Y6228D01*
Y6263D02*
X13991D01*
X13985Y6257D01*
Y6245D01*
X13991Y6240D01*
X14008D01*
X13996D02*
X13985Y6228D01*
X13973Y6257D02*
X13967Y6263D01*
X13956D01*
X13950Y6257D01*
Y6251D01*
X13956Y6245D01*
X13950Y6240D01*
Y6234D01*
X13956Y6228D01*
X13967D01*
X13973Y6234D01*
Y6240D01*
X13967Y6245D01*
X13973Y6251D01*
Y6257D01*
X13967Y6245D02*
X13956D01*
X13938Y6257D02*
X13932Y6263D01*
X13921D01*
X13915Y6257D01*
Y6251D01*
X13916D01*
X13915D02*
X13916D01*
X13915D02*
X13916D01*
X13915D02*
X13921Y6245D01*
X13926D01*
X13921D01*
X13915Y6240D01*
Y6234D01*
X13921Y6228D01*
X13932D01*
X13938Y6234D01*
X14009Y6197D02*
Y6162D01*
Y6197D02*
X13992D01*
X13986Y6191D01*
Y6179D01*
X13992Y6174D01*
X14009D01*
X13997D02*
X13986Y6162D01*
X13974Y6191D02*
X13968Y6197D01*
X13957D01*
X13951Y6191D01*
Y6185D01*
X13957Y6179D01*
X13951Y6174D01*
Y6168D01*
X13957Y6162D01*
X13968D01*
X13974Y6168D01*
Y6174D01*
X13968Y6179D01*
X13974Y6185D01*
Y6191D01*
X13968Y6179D02*
X13957D01*
X13922Y6162D02*
Y6197D01*
X13939Y6179D01*
X13916D01*
X13923Y5937D02*
X13917Y5931D01*
X13923Y5937D02*
X13934D01*
X13940Y5931D01*
Y5908D01*
X13934Y5902D01*
X13923D01*
X13917Y5908D01*
X13905D02*
X13899Y5902D01*
X13888D01*
X13882Y5908D01*
Y5931D01*
X13888Y5937D01*
X13899D01*
X13905Y5931D01*
Y5925D01*
X13899Y5919D01*
X13882D01*
X13870Y5931D02*
X13864Y5937D01*
X13853D01*
X13847Y5931D01*
Y5908D01*
X13853Y5902D01*
X13864D01*
X13870Y5908D01*
Y5931D01*
X13133Y6827D02*
X13139Y6833D01*
X13150D01*
X13156Y6827D01*
Y6804D01*
X13150Y6798D01*
X13139D01*
X13133Y6804D01*
X13121D02*
X13115Y6798D01*
X13104D01*
X13098Y6804D01*
Y6827D01*
X13104Y6833D01*
X13115D01*
X13121Y6827D01*
Y6821D01*
X13115Y6815D01*
X13098D01*
X13086Y6798D02*
X13063D01*
X13086D02*
X13063Y6821D01*
Y6827D01*
X13069Y6833D01*
X13080D01*
X13086Y6827D01*
X13531Y6304D02*
Y6269D01*
X13508D01*
X13496Y6298D02*
X13490Y6304D01*
X13479D01*
X13473Y6298D01*
Y6292D01*
X13474D01*
X13473D02*
X13474D01*
X13473D02*
X13474D01*
X13473D02*
X13479Y6286D01*
X13484D01*
X13479D01*
X13473Y6281D01*
Y6275D01*
X13479Y6269D01*
X13490D01*
X13496Y6275D01*
X13461Y6304D02*
X13438D01*
Y6298D01*
X13461Y6275D01*
Y6269D01*
X13532Y6231D02*
Y6196D01*
X13509D01*
X13497Y6225D02*
X13491Y6231D01*
X13480D01*
X13474Y6225D01*
Y6219D01*
X13475D01*
X13474D02*
X13475D01*
X13474D02*
X13475D01*
X13474D02*
X13480Y6213D01*
X13485D01*
X13480D01*
X13474Y6208D01*
Y6202D01*
X13480Y6196D01*
X13491D01*
X13497Y6202D01*
X13450Y6225D02*
X13439Y6231D01*
X13450Y6225D02*
X13462Y6213D01*
Y6202D01*
X13456Y6196D01*
X13445D01*
X13439Y6202D01*
Y6208D01*
X13445Y6213D01*
X13462D01*
X13530Y6158D02*
Y6123D01*
X13507D01*
X13495Y6152D02*
X13489Y6158D01*
X13478D01*
X13472Y6152D01*
Y6146D01*
X13473D01*
X13472D02*
X13473D01*
X13472D02*
X13473D01*
X13472D02*
X13478Y6140D01*
X13483D01*
X13478D01*
X13472Y6135D01*
Y6129D01*
X13478Y6123D01*
X13489D01*
X13495Y6129D01*
X13460Y6158D02*
X13437D01*
X13460D02*
Y6140D01*
X13448Y6146D01*
X13443D01*
X13437Y6140D01*
Y6129D01*
X13443Y6123D01*
X13454D01*
X13460Y6129D01*
X13530Y6093D02*
Y6058D01*
X13507D01*
X13495Y6087D02*
X13489Y6093D01*
X13478D01*
X13472Y6087D01*
Y6081D01*
X13473D01*
X13472D02*
X13473D01*
X13472D02*
X13473D01*
X13472D02*
X13478Y6075D01*
X13483D01*
X13478D01*
X13472Y6070D01*
Y6064D01*
X13478Y6058D01*
X13489D01*
X13495Y6064D01*
X13443Y6058D02*
Y6093D01*
X13460Y6075D01*
X13437D01*
X13532Y6020D02*
Y5985D01*
X13509D01*
X13497Y6014D02*
X13491Y6020D01*
X13480D01*
X13474Y6014D01*
Y6008D01*
X13475D01*
X13474D02*
X13475D01*
X13474D02*
X13475D01*
X13474D02*
X13480Y6002D01*
X13485D01*
X13480D01*
X13474Y5997D01*
Y5991D01*
X13480Y5985D01*
X13491D01*
X13497Y5991D01*
X13462Y6014D02*
X13456Y6020D01*
X13445D01*
X13439Y6014D01*
Y6008D01*
X13440D01*
X13439D02*
X13440D01*
X13439D02*
X13440D01*
X13439D02*
X13445Y6002D01*
X13450D01*
X13445D01*
X13439Y5997D01*
Y5991D01*
X13445Y5985D01*
X13456D01*
X13462Y5991D01*
X13528Y5945D02*
Y5910D01*
X13505D01*
X13493Y5939D02*
X13487Y5945D01*
X13476D01*
X13470Y5939D01*
Y5933D01*
X13471D01*
X13470D02*
X13471D01*
X13470D02*
X13471D01*
X13470D02*
X13476Y5927D01*
X13481D01*
X13476D01*
X13470Y5922D01*
Y5916D01*
X13476Y5910D01*
X13487D01*
X13493Y5916D01*
X13458Y5910D02*
X13435D01*
X13458D02*
X13435Y5933D01*
Y5939D01*
X13441Y5945D01*
X13452D01*
X13458Y5939D01*
X13526Y5878D02*
Y5843D01*
X13503D01*
X13491Y5872D02*
X13485Y5878D01*
X13474D01*
X13468Y5872D01*
Y5866D01*
X13469D01*
X13468D02*
X13469D01*
X13468D02*
X13469D01*
X13468D02*
X13474Y5860D01*
X13479D01*
X13474D01*
X13468Y5855D01*
Y5849D01*
X13474Y5843D01*
X13485D01*
X13491Y5849D01*
X13456Y5843D02*
X13444D01*
X13450D01*
Y5878D01*
X13451D01*
X13450D02*
X13456Y5872D01*
X13528Y5822D02*
Y5787D01*
X13505D01*
X13493Y5816D02*
X13487Y5822D01*
X13476D01*
X13470Y5816D01*
Y5810D01*
X13471D01*
X13470D02*
X13471D01*
X13470D02*
X13471D01*
X13470D02*
X13476Y5804D01*
X13481D01*
X13476D01*
X13470Y5799D01*
Y5793D01*
X13476Y5787D01*
X13487D01*
X13493Y5793D01*
X13458Y5816D02*
X13452Y5822D01*
X13441D01*
X13435Y5816D01*
Y5793D01*
X13441Y5787D01*
X13452D01*
X13458Y5793D01*
Y5816D01*
X12273Y8077D02*
Y8112D01*
X12255D01*
X12249Y8107D01*
Y8095D01*
X12255Y8089D01*
X12273D01*
X12261D02*
X12249Y8077D01*
X12226Y8107D02*
X12214Y8112D01*
X12226Y8107D02*
X12238Y8095D01*
Y8083D01*
X12232Y8077D01*
X12220D01*
X12214Y8083D01*
Y8089D01*
X12220Y8095D01*
X12238D01*
X12185Y8077D02*
Y8112D01*
X12203Y8095D01*
X12179D01*
X12119Y7868D02*
Y7833D01*
X12096D01*
X12067D02*
Y7868D01*
X12084Y7851D01*
X12061D01*
X12049Y7868D02*
X12026D01*
X12049D02*
Y7851D01*
X12037Y7857D01*
X12032D01*
X12026Y7851D01*
Y7839D01*
X12032Y7833D01*
X12043D01*
X12049Y7839D01*
X12119Y7900D02*
Y7935D01*
Y7900D02*
X12096D01*
X12067D02*
Y7935D01*
X12084Y7918D01*
X12061D01*
X12032Y7900D02*
Y7935D01*
X12049Y7918D01*
X12026D01*
X12537Y7855D02*
X12543Y7860D01*
X12554D01*
X12560Y7855D01*
Y7831D01*
X12554Y7825D01*
X12543D01*
X12537Y7831D01*
X12525Y7825D02*
X12513D01*
X12519D01*
Y7860D01*
X12520D01*
X12519D02*
X12525Y7855D01*
X12496Y7825D02*
X12473D01*
X12496D02*
X12473Y7849D01*
Y7855D01*
X12478Y7860D01*
X12490D01*
X12496Y7855D01*
X12443Y7860D02*
Y7825D01*
X12461Y7843D02*
X12443Y7860D01*
X12438Y7843D02*
X12461D01*
X12537Y7922D02*
X12543Y7927D01*
X12554D01*
X12560Y7922D01*
Y7898D01*
X12554Y7892D01*
X12543D01*
X12537Y7898D01*
X12525Y7892D02*
X12513D01*
X12519D01*
Y7927D01*
X12520D01*
X12519D02*
X12525Y7922D01*
X12496Y7892D02*
X12473D01*
X12496D02*
X12473Y7916D01*
Y7922D01*
X12478Y7927D01*
X12490D01*
X12496Y7922D01*
X12461D02*
X12455Y7927D01*
X12443D01*
X12438Y7922D01*
Y7916D01*
X12439D01*
X12438D02*
X12439D01*
X12438D02*
X12439D01*
X12438D02*
X12443Y7910D01*
X12449D01*
X12443D01*
X12438Y7904D01*
Y7898D01*
X12443Y7892D01*
X12455D01*
X12461Y7898D01*
X12210Y7739D02*
X12204Y7733D01*
X12210Y7739D02*
X12221D01*
X12227Y7733D01*
Y7710D01*
X12221Y7704D01*
X12210D01*
X12204Y7710D01*
X12192Y7704D02*
X12180D01*
X12186D01*
Y7739D01*
X12187D01*
X12186D02*
X12192Y7733D01*
X12163D02*
X12157Y7739D01*
X12145D01*
X12140Y7733D01*
Y7710D01*
X12145Y7704D01*
X12157D01*
X12163Y7710D01*
Y7733D01*
X12128D02*
X12122Y7739D01*
X12110D01*
X12105Y7733D01*
Y7727D01*
X12106D01*
X12105D02*
X12106D01*
X12105D02*
X12106D01*
X12105D02*
X12110Y7721D01*
X12116D01*
X12110D01*
X12105Y7716D01*
Y7710D01*
X12110Y7704D01*
X12122D01*
X12128Y7710D01*
X12932Y6956D02*
X12938Y6962D01*
X12949D01*
X12955Y6956D01*
Y6933D01*
X12949Y6927D01*
X12938D01*
X12932Y6933D01*
X12920D02*
X12914Y6927D01*
X12903D01*
X12897Y6933D01*
Y6956D01*
X12903Y6962D01*
X12914D01*
X12920Y6956D01*
Y6950D01*
X12914Y6944D01*
X12897D01*
X12885Y6956D02*
X12879Y6962D01*
X12868D01*
X12862Y6956D01*
Y6950D01*
X12863D01*
X12862D02*
X12863D01*
X12862D02*
X12863D01*
X12862D02*
X12868Y6944D01*
X12873D01*
X12868D01*
X12862Y6939D01*
Y6933D01*
X12868Y6927D01*
X12879D01*
X12885Y6933D01*
X12727Y7308D02*
X12721Y7314D01*
Y7325D01*
X12727Y7331D01*
X12750D01*
X12756Y7325D01*
Y7314D01*
X12750Y7308D01*
X12756Y7296D02*
Y7284D01*
Y7290D01*
X12721D01*
X12722D01*
X12721D02*
X12727Y7296D01*
Y7267D02*
X12721Y7261D01*
Y7249D01*
X12727Y7244D01*
X12750D01*
X12756Y7249D01*
Y7261D01*
X12750Y7267D01*
X12727D01*
X12756Y7232D02*
Y7209D01*
Y7232D02*
X12733Y7209D01*
X12727D01*
X12721Y7214D01*
Y7226D01*
X12727Y7232D01*
X12761Y7141D02*
X12755Y7135D01*
X12761Y7141D02*
X12772D01*
X12778Y7135D01*
Y7112D01*
X12772Y7106D01*
X12761D01*
X12755Y7112D01*
X12743D02*
X12737Y7106D01*
X12726D01*
X12720Y7112D01*
Y7135D01*
X12726Y7141D01*
X12737D01*
X12743Y7135D01*
Y7129D01*
X12737Y7123D01*
X12720D01*
X12708Y7112D02*
X12702Y7106D01*
X12691D01*
X12685Y7112D01*
Y7135D01*
X12691Y7141D01*
X12702D01*
X12708Y7135D01*
Y7129D01*
X12702Y7123D01*
X12685D01*
X12836Y7259D02*
X12842Y7265D01*
X12853D01*
X12859Y7259D01*
Y7236D01*
X12853Y7230D01*
X12842D01*
X12836Y7236D01*
X12824D02*
X12818Y7230D01*
X12807D01*
X12801Y7236D01*
Y7259D01*
X12807Y7265D01*
X12818D01*
X12824Y7259D01*
Y7253D01*
X12818Y7247D01*
X12801D01*
X12789Y7265D02*
X12766D01*
Y7259D01*
X12789Y7236D01*
Y7230D01*
X12805Y7300D02*
X12811Y7306D01*
X12805Y7300D02*
X12794D01*
X12788Y7306D01*
Y7329D01*
X12794Y7335D01*
X12805D01*
X12811Y7329D01*
X12823D02*
X12829Y7335D01*
X12840D01*
X12846Y7329D01*
Y7306D01*
X12840Y7300D01*
X12829D01*
X12823Y7306D01*
Y7312D01*
X12829Y7318D01*
X12846D01*
X12870Y7306D02*
X12881Y7300D01*
X12870Y7306D02*
X12858Y7318D01*
Y7329D01*
X12864Y7335D01*
X12875D01*
X12881Y7329D01*
Y7323D01*
X12875Y7318D01*
X12858D01*
X12908Y7477D02*
X12914Y7483D01*
X12925D01*
X12931Y7477D01*
Y7454D01*
X12925Y7448D01*
X12914D01*
X12908Y7454D01*
X12896Y7477D02*
X12890Y7483D01*
X12879D01*
X12873Y7477D01*
Y7471D01*
X12879Y7465D01*
X12873Y7460D01*
Y7454D01*
X12879Y7448D01*
X12890D01*
X12896Y7454D01*
Y7460D01*
X12890Y7465D01*
X12896Y7471D01*
Y7477D01*
X12890Y7465D02*
X12879D01*
X12849Y7477D02*
X12838Y7483D01*
X12849Y7477D02*
X12861Y7465D01*
Y7454D01*
X12855Y7448D01*
X12844D01*
X12838Y7454D01*
Y7460D01*
X12844Y7465D01*
X12861D01*
X12248Y7416D02*
Y7381D01*
Y7416D02*
X12231D01*
X12225Y7410D01*
Y7398D01*
X12231Y7393D01*
X12248D01*
X12236D02*
X12225Y7381D01*
X12213Y7416D02*
X12190D01*
X12213D02*
Y7398D01*
X12201Y7404D01*
X12196D01*
X12190Y7398D01*
Y7387D01*
X12196Y7381D01*
X12207D01*
X12213Y7387D01*
X12178Y7381D02*
X12166D01*
X12172D01*
Y7416D01*
X12173D01*
X12172D02*
X12178Y7410D01*
X12297Y7352D02*
Y7317D01*
Y7352D02*
X12280D01*
X12274Y7346D01*
Y7334D01*
X12280Y7329D01*
X12297D01*
X12285D02*
X12274Y7317D01*
X12262Y7352D02*
X12239D01*
X12262D02*
Y7334D01*
X12250Y7340D01*
X12245D01*
X12239Y7334D01*
Y7323D01*
X12245Y7317D01*
X12256D01*
X12262Y7323D01*
X12227Y7317D02*
X12204D01*
X12227D02*
X12204Y7340D01*
Y7346D01*
X12210Y7352D01*
X12221D01*
X12227Y7346D01*
X12300Y8437D02*
X12306Y8443D01*
X12318D01*
X12324Y8437D01*
Y8414D01*
X12318Y8408D01*
X12306D01*
X12300Y8414D01*
X12289Y8408D02*
X12277D01*
X12283D01*
Y8443D01*
X12284D01*
X12283D02*
X12289Y8437D01*
X12260Y8408D02*
X12236D01*
X12260D02*
X12236Y8431D01*
Y8437D01*
X12242Y8443D01*
X12254D01*
X12260Y8437D01*
X12213D02*
X12201Y8443D01*
X12213Y8437D02*
X12225Y8426D01*
Y8414D01*
X12219Y8408D01*
X12207D01*
X12201Y8414D01*
Y8420D01*
X12207Y8426D01*
X12225D01*
X12560Y8437D02*
X12566Y8443D01*
X12578D01*
X12584Y8437D01*
Y8414D01*
X12578Y8408D01*
X12566D01*
X12560Y8414D01*
X12549Y8408D02*
X12537D01*
X12543D01*
Y8443D01*
X12544D01*
X12543D02*
X12549Y8437D01*
X12519Y8408D02*
X12508D01*
X12514D01*
Y8443D01*
X12515D01*
X12514D02*
X12519Y8437D01*
X12490Y8443D02*
X12467D01*
X12490D02*
Y8426D01*
X12479Y8431D01*
X12473D01*
X12467Y8426D01*
Y8414D01*
X12473Y8408D01*
X12484D01*
X12490Y8414D01*
X13021Y6869D02*
X13015Y6863D01*
X13021Y6869D02*
X13032D01*
X13038Y6863D01*
Y6840D01*
X13032Y6834D01*
X13021D01*
X13015Y6840D01*
X13003Y6834D02*
X12991D01*
X12997D01*
Y6869D01*
X12998D01*
X12997D02*
X13003Y6863D01*
X12974Y6834D02*
X12962D01*
X12968D01*
Y6869D01*
X12969D01*
X12968D02*
X12974Y6863D01*
X12945D02*
X12939Y6869D01*
X12927D01*
X12921Y6863D01*
Y6840D01*
X12927Y6834D01*
X12939D01*
X12945Y6840D01*
Y6863D01*
X12864Y6869D02*
X12858Y6863D01*
X12864Y6869D02*
X12875D01*
X12881Y6863D01*
Y6840D01*
X12875Y6834D01*
X12864D01*
X12858Y6840D01*
X12846Y6869D02*
X12823D01*
Y6863D01*
X12846Y6840D01*
Y6834D01*
X12811Y6863D02*
X12805Y6869D01*
X12794D01*
X12788Y6863D01*
Y6840D01*
X12794Y6834D01*
X12805D01*
X12811Y6840D01*
Y6863D01*
X12739Y6839D02*
X12733Y6845D01*
X12739Y6839D02*
Y6828D01*
X12733Y6822D01*
X12710D01*
X12704Y6828D01*
Y6839D01*
X12710Y6845D01*
X12704Y6857D02*
Y6869D01*
Y6863D01*
X12739D01*
X12740D01*
X12739D02*
X12733Y6857D01*
Y6886D02*
X12739Y6892D01*
Y6904D01*
X12733Y6909D01*
X12710D01*
X12704Y6904D01*
Y6892D01*
X12710Y6886D01*
X12733D01*
Y6921D02*
X12739Y6927D01*
Y6939D01*
X12733Y6944D01*
X12727D01*
X12721Y6939D01*
X12716Y6944D01*
X12710D01*
X12704Y6939D01*
Y6927D01*
X12710Y6921D01*
X12716D01*
X12721Y6927D01*
X12727Y6921D01*
X12733D01*
X12721Y6927D02*
Y6939D01*
X10008Y5991D02*
Y5956D01*
Y5991D02*
X9991D01*
X9985Y5985D01*
Y5973D01*
X9991Y5968D01*
X10008D01*
X9996D02*
X9985Y5956D01*
X9956D02*
Y5991D01*
X9973Y5973D01*
X9950D01*
X9938Y5956D02*
X9926D01*
X9932D01*
Y5991D01*
X9933D01*
X9932D02*
X9938Y5985D01*
X10138Y6131D02*
Y6210D01*
X10186D02*
Y6131D01*
Y6160D02*
X10138D01*
X10139Y6210D02*
X10187D01*
Y6131D02*
X10139D01*
X10185Y6254D02*
Y6289D01*
Y6254D02*
X10167D01*
X10161Y6260D01*
Y6283D01*
X10167Y6289D01*
X10185D01*
X10150Y6254D02*
X10126D01*
X10150D02*
X10126Y6277D01*
Y6283D01*
X10132Y6289D01*
X10144D01*
X10150Y6283D01*
X10265Y6210D02*
Y6131D01*
X10217D02*
Y6210D01*
X10217Y6131D02*
X10265D01*
Y6210D02*
X10217D01*
X10217Y6160D02*
X10265D01*
X10268Y6253D02*
Y6288D01*
Y6253D02*
X10251D01*
X10245Y6259D01*
Y6282D01*
X10251Y6288D01*
X10268D01*
X10233Y6282D02*
X10227Y6288D01*
X10216D01*
X10210Y6282D01*
Y6276D01*
X10211D01*
X10210D02*
X10211D01*
X10210D02*
X10211D01*
X10210D02*
X10216Y6270D01*
X10222D01*
X10216D01*
X10210Y6265D01*
Y6259D01*
X10216Y6253D01*
X10227D01*
X10233Y6259D01*
X10296Y6210D02*
Y6131D01*
X10344D02*
Y6210D01*
Y6160D02*
X10296D01*
X10296Y6210D02*
X10344D01*
Y6131D02*
X10296D01*
X10344Y6253D02*
Y6288D01*
Y6253D02*
X10326D01*
X10320Y6259D01*
Y6282D01*
X10326Y6288D01*
X10344D01*
X10291D02*
Y6253D01*
X10309Y6270D02*
X10291Y6288D01*
X10285Y6270D02*
X10309D01*
X10423Y6210D02*
Y6131D01*
X10375D02*
Y6210D01*
X10375Y6131D02*
X10423D01*
Y6210D02*
X10375D01*
X10375Y6160D02*
X10423D01*
X10419Y6253D02*
Y6288D01*
Y6253D02*
X10402D01*
X10396Y6259D01*
Y6282D01*
X10402Y6288D01*
X10419D01*
X10384D02*
X10361D01*
X10384D02*
Y6270D01*
X10373Y6276D01*
X10367D01*
X10361Y6270D01*
Y6259D01*
X10367Y6253D01*
X10378D01*
X10384Y6259D01*
X10008Y5943D02*
Y5908D01*
Y5943D02*
X9991D01*
X9985Y5937D01*
Y5925D01*
X9991Y5920D01*
X10008D01*
X9996D02*
X9985Y5908D01*
X9956D02*
Y5943D01*
X9973Y5925D01*
X9950D01*
X9938Y5908D02*
X9915D01*
X9938D02*
X9915Y5931D01*
Y5937D01*
X9921Y5943D01*
X9932D01*
X9938Y5937D01*
X10008Y5894D02*
Y5859D01*
Y5894D02*
X9991D01*
X9985Y5888D01*
Y5876D01*
X9991Y5871D01*
X10008D01*
X9996D02*
X9985Y5859D01*
X9956D02*
Y5894D01*
X9973Y5876D01*
X9950D01*
X9938Y5888D02*
X9932Y5894D01*
X9921D01*
X9915Y5888D01*
Y5882D01*
X9916D01*
X9915D02*
X9916D01*
X9915D02*
X9916D01*
X9915D02*
X9921Y5876D01*
X9926D01*
X9921D01*
X9915Y5871D01*
Y5865D01*
X9921Y5859D01*
X9932D01*
X9938Y5865D01*
X10010Y6003D02*
Y6038D01*
X9993D01*
X9987Y6032D01*
Y6020D01*
X9993Y6015D01*
X10010D01*
X9998D02*
X9987Y6003D01*
X9958D02*
Y6038D01*
X9975Y6020D01*
X9952D01*
X9940Y6032D02*
X9934Y6038D01*
X9923D01*
X9917Y6032D01*
Y6009D01*
X9923Y6003D01*
X9934D01*
X9940Y6009D01*
Y6032D01*
X9868Y6093D02*
Y6128D01*
X9851D01*
X9845Y6122D01*
Y6110D01*
X9851Y6105D01*
X9868D01*
X9856D02*
X9845Y6093D01*
X9833D02*
X9810D01*
X9833D02*
X9810Y6116D01*
Y6122D01*
X9816Y6128D01*
X9827D01*
X9833Y6122D01*
X9798D02*
X9792Y6128D01*
X9781D01*
X9775Y6122D01*
Y6116D01*
X9781Y6110D01*
X9775Y6105D01*
Y6099D01*
X9781Y6093D01*
X9792D01*
X9798Y6099D01*
Y6105D01*
X9792Y6110D01*
X9798Y6116D01*
Y6122D01*
X9792Y6110D02*
X9781D01*
X9855Y6212D02*
Y6260D01*
X9805Y6260D02*
Y6212D01*
X9884D02*
Y6260D01*
X9884Y6212D02*
X9805D01*
Y6260D02*
X9884D01*
X9803Y6276D02*
Y6311D01*
Y6276D02*
X9786D01*
X9780Y6282D01*
Y6305D01*
X9786Y6311D01*
X9803D01*
X9768Y6276D02*
X9756D01*
X9762D01*
Y6311D01*
X9763D01*
X9762D02*
X9768Y6305D01*
X6384Y6605D02*
X6378Y6599D01*
X6384Y6605D02*
X6395D01*
X6401Y6599D01*
Y6576D01*
X6395Y6570D01*
X6384D01*
X6378Y6576D01*
X6366Y6570D02*
X6354D01*
X6360D01*
Y6605D01*
X6361D01*
X6360D02*
X6366Y6599D01*
X6337Y6570D02*
X6314D01*
X6337D02*
X6314Y6593D01*
Y6599D01*
X6319Y6605D01*
X6331D01*
X6337Y6599D01*
X6302D02*
X6296Y6605D01*
X6284D01*
X6279Y6599D01*
Y6576D01*
X6284Y6570D01*
X6296D01*
X6302Y6576D01*
Y6599D01*
D19*
X11032Y6392D02*
X11733D01*
Y6294D02*
X11032D01*
X11135D02*
Y6392D01*
X11733D02*
Y6294D01*
X11032D02*
Y6392D01*
X15012Y8413D02*
Y8453D01*
X14951D02*
Y8413D01*
X14951Y8413D02*
X15012D01*
Y8453D02*
X14951D01*
X15012Y7035D02*
Y6995D01*
X14951D02*
Y7035D01*
X14951Y6995D02*
X15012D01*
Y7035D02*
X14951D01*
X14951Y7703D02*
Y7743D01*
X15012D02*
Y7703D01*
X15012Y7743D02*
X14951D01*
Y7703D02*
X15012D01*
X14706Y7374D02*
Y7313D01*
X14666D02*
Y7374D01*
X14665Y7374D02*
X14705D01*
Y7313D02*
X14665D01*
X14866Y7418D02*
Y7458D01*
X14927D02*
Y7418D01*
X14927Y7458D02*
X14866D01*
Y7418D02*
X14927D01*
X14927Y8128D02*
Y8168D01*
X14866D02*
Y8128D01*
X14866Y8128D02*
X14927D01*
Y8168D02*
X14866D01*
X14666Y8084D02*
Y8023D01*
X14706D02*
Y8084D01*
X14705Y8023D02*
X14665D01*
Y8084D02*
X14705D01*
X15012Y6326D02*
Y6286D01*
X14951D02*
Y6326D01*
X14951Y6286D02*
X15012D01*
Y6326D02*
X14951D01*
X14666Y5957D02*
Y5896D01*
X14706D02*
Y5957D01*
X14705Y5896D02*
X14665D01*
Y5957D02*
X14705D01*
X14927Y6001D02*
Y6041D01*
X14866D02*
Y6001D01*
X14866Y6001D02*
X14927D01*
Y6041D02*
X14866D01*
X14666Y6605D02*
Y6666D01*
X14706D02*
Y6605D01*
X14705Y6605D02*
X14665D01*
Y6666D02*
X14705D01*
X14927Y6710D02*
Y6750D01*
X14866D02*
Y6710D01*
X14866Y6710D02*
X14927D01*
Y6750D02*
X14866D01*
X13719Y7900D02*
Y7961D01*
X13679D02*
Y7900D01*
X13679Y7961D02*
X13719D01*
Y7900D02*
X13679D01*
X13781Y7900D02*
Y7961D01*
X13741D02*
Y7900D01*
X13741Y7961D02*
X13781D01*
Y7900D02*
X13741D01*
X13270Y7352D02*
Y7312D01*
X13331D02*
Y7352D01*
X13331Y7352D02*
X13270D01*
Y7312D02*
X13331D01*
X13534Y7927D02*
Y7967D01*
X13595D02*
Y7927D01*
X13595Y7967D02*
X13534D01*
Y7927D02*
X13595D01*
X13885Y8189D02*
Y8229D01*
X13946D02*
Y8189D01*
X13946Y8229D02*
X13885D01*
Y8189D02*
X13946D01*
X14546Y7493D02*
Y7453D01*
X14607D02*
Y7493D01*
X14607Y7493D02*
X14546D01*
Y7453D02*
X14607D01*
X14426Y7458D02*
Y7418D01*
X14487D02*
Y7458D01*
X14487Y7458D02*
X14426D01*
Y7418D02*
X14487D01*
X14546Y7423D02*
Y7383D01*
X14607D02*
Y7423D01*
X14607Y7423D02*
X14546D01*
Y7383D02*
X14607D01*
X14607Y8093D02*
Y8133D01*
X14546D02*
Y8093D01*
X14546Y8093D02*
X14607D01*
Y8133D02*
X14546D01*
X14487Y8128D02*
Y8168D01*
X14426D02*
Y8128D01*
X14426Y8128D02*
X14487D01*
Y8168D02*
X14426D01*
X14607Y8163D02*
Y8203D01*
X14546D02*
Y8163D01*
X14546Y8163D02*
X14607D01*
Y8203D02*
X14546D01*
X13217Y7435D02*
Y7395D01*
X13156D02*
Y7435D01*
X13156Y7396D02*
X13217D01*
Y7436D02*
X13156D01*
X13340Y6904D02*
Y6843D01*
X13300D02*
Y6904D01*
X13300Y6904D02*
X13340D01*
Y6843D02*
X13300D01*
X13579Y7731D02*
Y7792D01*
X13619D02*
Y7731D01*
X13619Y7731D02*
X13579D01*
Y7792D02*
X13619D01*
X13174Y7140D02*
Y7100D01*
X13113D02*
Y7140D01*
X13113Y7101D02*
X13174D01*
Y7141D02*
X13113D01*
X13174Y7179D02*
Y7219D01*
X13113D02*
Y7179D01*
X13113Y7179D02*
X13174D01*
Y7219D02*
X13113D01*
X13084Y7248D02*
Y7309D01*
X13044D02*
Y7248D01*
X13044Y7309D02*
X13084D01*
Y7248D02*
X13044D01*
X13099Y6924D02*
Y6884D01*
X13038D02*
Y6924D01*
X13038Y6884D02*
X13099D01*
Y6924D02*
X13038D01*
X13534Y7856D02*
Y7896D01*
X13595D02*
Y7856D01*
X13595Y7897D02*
X13534D01*
Y7857D02*
X13595D01*
X13534Y8077D02*
Y8117D01*
X13595D02*
Y8077D01*
X13595Y8117D02*
X13534D01*
Y8077D02*
X13595D01*
X13534Y8046D02*
Y8006D01*
X13595D02*
Y8046D01*
X13595Y8046D02*
X13534D01*
Y8006D02*
X13595D01*
X13534Y8147D02*
Y8187D01*
X13595D02*
Y8147D01*
X13595Y8188D02*
X13534D01*
Y8148D02*
X13595D01*
X13534Y8218D02*
Y8258D01*
X13595D02*
Y8218D01*
X13595Y8259D02*
X13534D01*
Y8219D02*
X13595D01*
X13534Y8285D02*
Y8325D01*
X13595D02*
Y8285D01*
X13595Y8326D02*
X13534D01*
Y8286D02*
X13595D01*
X13534Y8352D02*
Y8392D01*
X13595D02*
Y8352D01*
X13595Y8393D02*
X13534D01*
Y8353D02*
X13595D01*
X13884Y6259D02*
Y6219D01*
X13823D02*
Y6259D01*
X13823Y6219D02*
X13884D01*
Y6259D02*
X13823D01*
X13884Y6199D02*
Y6159D01*
X13823D02*
Y6199D01*
X13823Y6159D02*
X13884D01*
Y6199D02*
X13823D01*
X13866Y6007D02*
Y5967D01*
X13927D02*
Y6007D01*
X13927Y6007D02*
X13866D01*
Y5967D02*
X13927D01*
X14487Y6710D02*
Y6750D01*
X14426D02*
Y6710D01*
X14426Y6710D02*
X14487D01*
Y6750D02*
X14426D01*
X14607Y6076D02*
Y6036D01*
X14546D02*
Y6076D01*
X14546Y6036D02*
X14607D01*
Y6076D02*
X14546D01*
X14487Y6041D02*
Y6001D01*
X14426D02*
Y6041D01*
X14426Y6001D02*
X14487D01*
Y6041D02*
X14426D01*
X14607Y6006D02*
Y5966D01*
X14546D02*
Y6006D01*
X14546Y5966D02*
X14607D01*
Y6006D02*
X14546D01*
X14607Y6745D02*
Y6785D01*
X14546D02*
Y6745D01*
X14546Y6745D02*
X14607D01*
Y6785D02*
X14546D01*
X14607Y6715D02*
Y6675D01*
X14546D02*
Y6715D01*
X14546Y6675D02*
X14607D01*
Y6715D02*
X14546D01*
X13249Y6789D02*
Y6829D01*
X13188D02*
Y6789D01*
X13188Y6790D02*
X13249D01*
Y6830D02*
X13188D01*
X13596Y6307D02*
Y6267D01*
X13658D02*
Y6307D01*
X13658Y6266D02*
X13596D01*
Y6306D02*
X13658D01*
X13596Y6236D02*
Y6196D01*
X13658D02*
Y6236D01*
X13658Y6195D02*
X13596D01*
Y6235D02*
X13658D01*
X13596Y6157D02*
Y6117D01*
X13658D02*
Y6157D01*
X13658Y6116D02*
X13596D01*
Y6156D02*
X13658D01*
X13596Y6086D02*
Y6046D01*
X13658D02*
Y6086D01*
X13658Y6046D02*
X13596D01*
Y6086D02*
X13658D01*
X13596Y6015D02*
Y5975D01*
X13658D02*
Y6015D01*
X13658Y5975D02*
X13596D01*
Y6015D02*
X13658D01*
X13596Y5944D02*
Y5904D01*
X13658D02*
Y5944D01*
X13658Y5904D02*
X13596D01*
Y5944D02*
X13658D01*
X13596Y5877D02*
Y5837D01*
X13658D02*
Y5877D01*
X13658Y5837D02*
X13596D01*
Y5877D02*
X13658D01*
X13596Y5810D02*
Y5770D01*
X13658D02*
Y5810D01*
X13658Y5770D02*
X13596D01*
Y5810D02*
X13658D01*
X12093Y8075D02*
Y8115D01*
X12154D02*
Y8075D01*
X12154Y8115D02*
X12093D01*
Y8075D02*
X12154D01*
X12178Y7861D02*
Y7829D01*
X12241D02*
Y7861D01*
X12241Y7829D02*
X12178D01*
Y7861D02*
X12241D01*
X12178Y7892D02*
Y7924D01*
X12241D02*
Y7892D01*
X12241Y7892D02*
X12178D01*
Y7924D02*
X12241D01*
X12382Y7865D02*
Y7825D01*
X12321D02*
Y7865D01*
X12321Y7825D02*
X12382D01*
Y7865D02*
X12321D01*
X12382Y7888D02*
Y7928D01*
X12321D02*
Y7888D01*
X12321Y7888D02*
X12382D01*
Y7928D02*
X12321D01*
X12327Y7739D02*
Y7699D01*
X12266D02*
Y7739D01*
X12266Y7699D02*
X12327D01*
Y7739D02*
X12266D01*
X12941Y6924D02*
Y6884D01*
X12880D02*
Y6924D01*
X12880Y6884D02*
X12941D01*
Y6924D02*
X12880D01*
X12714Y7252D02*
Y7313D01*
X12674D02*
Y7252D01*
X12674Y7313D02*
X12714D01*
Y7252D02*
X12674D01*
X12867Y7140D02*
Y7100D01*
X12806D02*
Y7140D01*
X12806Y7101D02*
X12867D01*
Y7141D02*
X12806D01*
X12867Y7179D02*
Y7219D01*
X12806D02*
Y7179D01*
X12806Y7179D02*
X12867D01*
Y7219D02*
X12806D01*
X12934Y7248D02*
Y7309D01*
X12894D02*
Y7248D01*
X12895Y7309D02*
X12935D01*
Y7248D02*
X12895D01*
X12835Y7403D02*
Y7443D01*
X12774D02*
Y7403D01*
X12774Y7404D02*
X12835D01*
Y7444D02*
X12774D01*
X12069Y7416D02*
Y7376D01*
X12130D02*
Y7416D01*
X12130Y7416D02*
X12069D01*
Y7376D02*
X12130D01*
X12109Y7353D02*
Y7313D01*
X12170D02*
Y7353D01*
X12170Y7353D02*
X12109D01*
Y7313D02*
X12170D01*
X12341Y8393D02*
Y8454D01*
X12381D02*
Y8393D01*
X12381Y8393D02*
X12341D01*
Y8454D02*
X12381D01*
X12414Y8454D02*
Y8393D01*
X12454D02*
Y8454D01*
X12454Y8393D02*
X12414D01*
Y8454D02*
X12454D01*
X13016Y6829D02*
Y6789D01*
X12955D02*
Y6829D01*
X12955Y6790D02*
X13016D01*
Y6830D02*
X12955D01*
X12823Y6829D02*
Y6789D01*
X12762D02*
Y6829D01*
X12762Y6790D02*
X12823D01*
Y6830D02*
X12762D01*
X12654Y6846D02*
Y6907D01*
X12694D02*
Y6846D01*
X12694Y6846D02*
X12654D01*
Y6907D02*
X12694D01*
X10028Y6217D02*
Y6177D01*
X9967D02*
Y6217D01*
X9967Y6177D02*
X10028D01*
Y6217D02*
X9967D01*
X9967Y6157D02*
Y6117D01*
X10028D02*
Y6157D01*
X10028Y6157D02*
X9967D01*
Y6117D02*
X10028D01*
X10028Y6097D02*
Y6057D01*
X9967D02*
Y6097D01*
X9967Y6057D02*
X10028D01*
Y6097D02*
X9967D01*
X9967Y6237D02*
Y6277D01*
X10028D02*
Y6237D01*
X10028Y6277D02*
X9967D01*
Y6237D02*
X10028D01*
X9859Y6184D02*
Y6144D01*
X9798D02*
Y6184D01*
X9798Y6144D02*
X9859D01*
Y6184D02*
X9798D01*
X6283Y6651D02*
Y6712D01*
X6323D02*
Y6651D01*
X6323Y6651D02*
X6283D01*
Y6712D02*
X6323D01*
D21*
X5918Y8373D02*
Y8443D01*
X5883D01*
X5872Y8431D01*
Y8408D01*
X5883Y8396D01*
X5918D01*
X5848Y8443D02*
X5802D01*
X5825D01*
Y8373D01*
X5778Y8431D02*
X5767Y8443D01*
X5743D01*
X5732Y8431D01*
Y8419D01*
X5743Y8408D01*
X5732Y8396D01*
Y8384D01*
X5743Y8373D01*
X5767D01*
X5778Y8384D01*
Y8396D01*
X5767Y8408D01*
X5778Y8419D01*
Y8431D01*
X5767Y8408D02*
X5743D01*
X5685Y8431D02*
X5662Y8443D01*
X5685Y8431D02*
X5708Y8408D01*
Y8384D01*
X5697Y8373D01*
X5673D01*
X5662Y8384D01*
Y8396D01*
X5673Y8408D01*
X5708D01*
X5638Y8373D02*
X5615D01*
X5627D01*
Y8443D01*
X5628D01*
X5627D02*
X5638Y8431D01*
X5580Y8373D02*
X5533D01*
X5580D02*
X5533Y8419D01*
Y8431D01*
X5545Y8443D01*
X5568D01*
X5580Y8431D01*
X5510Y8373D02*
X5463Y8419D01*
X5440Y8373D02*
X5417D01*
X5428D01*
Y8443D01*
X5429D01*
X5428D02*
X5440Y8431D01*
X5382D02*
X5370Y8443D01*
X5347D01*
X5335Y8431D01*
Y8419D01*
X5336D01*
X5335D02*
X5336D01*
X5335D02*
X5336D01*
X5335D02*
X5347Y8408D01*
X5358D01*
X5347D01*
X5335Y8396D01*
Y8384D01*
X5347Y8373D01*
X5370D01*
X5382Y8384D01*
X5234Y8371D02*
Y8441D01*
X5269Y8406D01*
X5222D01*
X5199Y8429D02*
X5187Y8441D01*
X5164D01*
X5152Y8429D01*
Y8382D01*
X5164Y8371D01*
X5187D01*
X5199Y8382D01*
Y8429D01*
X5129D02*
X5117Y8441D01*
X5094D01*
X5082Y8429D01*
Y8382D01*
X5094Y8371D01*
X5117D01*
X5129Y8382D01*
Y8429D01*
X5059D02*
X5047Y8441D01*
X5024D01*
X5012Y8429D01*
Y8417D01*
X5024Y8406D01*
X5012Y8394D01*
Y8382D01*
X5024Y8371D01*
X5047D01*
X5059Y8382D01*
Y8394D01*
X5047Y8406D01*
X5059Y8417D01*
Y8429D01*
X5047Y8406D02*
X5024D01*
X4919Y8371D02*
X4895D01*
X4907D01*
Y8441D01*
X4908D01*
X4907D02*
X4919Y8429D01*
X4860Y8371D02*
X4837D01*
X4849D01*
Y8441D01*
X4850D01*
X4849D02*
X4860Y8429D01*
X4802Y8441D02*
X4756D01*
Y8429D01*
X4802Y8382D01*
Y8371D01*
X4662Y8429D02*
X4651Y8441D01*
X4627D01*
X4616Y8429D01*
Y8382D01*
X4627Y8371D01*
X4651D01*
X4662Y8382D01*
Y8429D01*
X4592D02*
X4581Y8441D01*
X4557D01*
X4546Y8429D01*
Y8417D01*
X4557Y8406D01*
X4546Y8394D01*
Y8382D01*
X4557Y8371D01*
X4581D01*
X4592Y8382D01*
Y8394D01*
X4581Y8406D01*
X4592Y8417D01*
Y8429D01*
X4581Y8406D02*
X4557D01*
X4522Y8429D02*
X4511Y8441D01*
X4487D01*
X4476Y8429D01*
Y8417D01*
X4477D01*
X4476D02*
X4477D01*
X4476D02*
X4477D01*
X4476D02*
X4487Y8406D01*
X4499D01*
X4487D01*
X4476Y8394D01*
Y8382D01*
X4487Y8371D01*
X4511D01*
X4522Y8382D01*
X4452Y8429D02*
X4441Y8441D01*
X4417D01*
X4406Y8429D01*
Y8417D01*
X4417Y8406D01*
X4406Y8394D01*
Y8382D01*
X4417Y8371D01*
X4441D01*
X4452Y8382D01*
Y8394D01*
X4441Y8406D01*
X4452Y8417D01*
Y8429D01*
X4441Y8406D02*
X4417D01*
X4347Y8371D02*
Y8441D01*
X4382Y8406D01*
X4336D01*
X5639Y8308D02*
Y8238D01*
Y8308D02*
X5604D01*
X5592Y8296D01*
Y8273D01*
X5604Y8261D01*
X5639D01*
X5616D02*
X5592Y8238D01*
X5557D02*
X5534D01*
X5557D02*
X5569Y8250D01*
Y8273D01*
X5557Y8285D01*
X5534D01*
X5522Y8273D01*
Y8261D01*
X5569D01*
X5499Y8285D02*
X5476Y8238D01*
X5452Y8285D01*
X5359Y8238D02*
X5336D01*
X5347D01*
Y8308D01*
X5348D01*
X5347D02*
X5359Y8296D01*
X5301Y8250D02*
Y8238D01*
Y8250D02*
X5289D01*
Y8238D01*
X5301D01*
X5207D02*
Y8308D01*
X5242Y8273D01*
X5196D01*
X5053Y8242D02*
X5030D01*
X5041D01*
Y8312D01*
X5042D01*
X5041D02*
X5053Y8300D01*
X4960Y8312D02*
Y8242D01*
X4995Y8277D02*
X4960Y8312D01*
X4948Y8277D02*
X4995D01*
X4925Y8242D02*
X4878Y8289D01*
X4855Y8242D02*
X4831D01*
X4843D01*
Y8312D01*
X4844D01*
X4843D02*
X4855Y8300D01*
X4796Y8242D02*
X4773D01*
X4785D01*
Y8312D01*
X4786D01*
X4785D02*
X4796Y8300D01*
X4738Y8242D02*
X4691Y8289D01*
X4668Y8300D02*
X4656Y8312D01*
X4633D01*
X4621Y8300D01*
Y8254D01*
X4633Y8242D01*
X4656D01*
X4668Y8254D01*
Y8300D01*
X4575D02*
X4551Y8312D01*
X4575Y8300D02*
X4598Y8277D01*
Y8254D01*
X4586Y8242D01*
X4563D01*
X4551Y8254D01*
Y8265D01*
X4563Y8277D01*
X4598D01*
X5640Y8204D02*
Y8134D01*
X5605D01*
X5593Y8146D01*
Y8192D01*
X5605Y8204D01*
X5640D01*
X5570D02*
Y8134D01*
Y8157D01*
X5523Y8204D01*
X5558Y8169D01*
X5523Y8134D01*
X5500Y8169D02*
X5453D01*
X5430Y8204D02*
X5383D01*
X5407D01*
Y8134D01*
X5348D02*
X5325D01*
X5348D02*
X5360Y8146D01*
Y8169D01*
X5348Y8181D01*
X5325D01*
X5313Y8169D01*
Y8157D01*
X5360D01*
X5278Y8181D02*
X5243D01*
X5278D02*
X5290Y8169D01*
Y8146D01*
X5278Y8134D01*
X5243D01*
X5220D02*
Y8204D01*
Y8169D02*
Y8134D01*
Y8169D02*
X5208Y8181D01*
X5185D01*
X5173Y8169D01*
Y8134D01*
X5150D02*
Y8181D01*
X5115D01*
X5104Y8169D01*
Y8134D01*
X5069D02*
X5045D01*
X5034Y8146D01*
Y8169D01*
X5045Y8181D01*
X5069D01*
X5080Y8169D01*
Y8146D01*
X5069Y8134D01*
X5010D02*
X4987D01*
X4999D01*
Y8204D01*
X5010D01*
X4940Y8134D02*
X4917D01*
X4905Y8146D01*
Y8169D01*
X4917Y8181D01*
X4940D01*
X4952Y8169D01*
Y8146D01*
X4940Y8134D01*
X4859Y8111D02*
X4847D01*
X4835Y8122D01*
Y8181D01*
X4870D01*
X4882Y8169D01*
Y8146D01*
X4870Y8134D01*
X4835D01*
X4812D02*
X4789D01*
X4800D01*
Y8181D01*
X4812D01*
X4800Y8204D02*
X4801D01*
X4742Y8134D02*
X4719D01*
X4742D02*
X4754Y8146D01*
Y8169D01*
X4742Y8181D01*
X4719D01*
X4707Y8169D01*
Y8157D01*
X4754D01*
X4684Y8134D02*
X4649D01*
X4637Y8146D01*
X4649Y8157D01*
X4672D01*
X4684Y8169D01*
X4672Y8181D01*
X4637D01*
X11565Y6518D02*
Y6498D01*
Y6508D01*
X11595D01*
Y6488D02*
X11565D01*
X11595D02*
Y6473D01*
X11590Y6468D01*
X11570D01*
X11565Y6473D01*
Y6488D01*
Y6458D02*
Y6448D01*
Y6453D01*
X11595D01*
Y6458D01*
Y6448D01*
X11664Y6498D02*
Y6518D01*
Y6508D02*
Y6498D01*
Y6508D02*
X11694D01*
Y6488D02*
X11664D01*
X11674Y6478D01*
X11664Y6468D01*
X11694D01*
X11669Y6438D02*
X11664Y6443D01*
Y6453D01*
X11669Y6458D01*
X11674D01*
X11679Y6453D01*
Y6443D01*
X11684Y6438D01*
X11689D01*
X11694Y6443D01*
Y6453D01*
X11689Y6458D01*
X11463Y6502D02*
Y6522D01*
Y6512D02*
Y6502D01*
Y6512D02*
X11493D01*
Y6492D02*
X11463D01*
X11493D02*
Y6477D01*
X11488Y6472D01*
X11468D01*
X11463Y6477D01*
Y6492D01*
Y6457D02*
Y6447D01*
Y6457D02*
X11468Y6462D01*
X11488D01*
X11493Y6457D01*
Y6447D01*
X11488Y6442D01*
X11468D01*
X11463Y6447D01*
X11365Y6502D02*
Y6522D01*
Y6512D02*
Y6502D01*
Y6512D02*
X11395D01*
X11365Y6477D02*
X11370Y6472D01*
X11365Y6477D02*
Y6487D01*
X11370Y6492D01*
X11390D01*
X11395Y6487D01*
Y6477D01*
X11390Y6472D01*
X11395Y6462D02*
X11365D01*
X11385D02*
X11395D01*
X11385D02*
X11365Y6442D01*
X11380Y6457D01*
X11395Y6442D01*
X11173Y6506D02*
X11168Y6511D01*
Y6521D01*
X11173Y6526D01*
X11193D01*
X11198Y6521D01*
Y6511D01*
X11193Y6506D01*
X11183D01*
Y6516D01*
X11168Y6496D02*
X11198D01*
Y6476D02*
X11168Y6496D01*
Y6476D02*
X11198D01*
Y6466D02*
X11168D01*
X11198D02*
Y6451D01*
X11193Y6446D01*
X11173D01*
X11168Y6451D01*
Y6466D01*
X11084Y6522D02*
X11054D01*
Y6507D01*
X11059Y6502D01*
X11069D01*
X11074Y6507D01*
Y6522D01*
X11084Y6492D02*
X11054D01*
X11074Y6482D02*
X11084Y6492D01*
X11074Y6482D02*
X11084Y6472D01*
X11054D01*
Y6462D02*
X11084D01*
X11054D02*
Y6447D01*
X11059Y6442D01*
X11069D01*
X11074Y6447D01*
Y6462D01*
Y6452D02*
X11084Y6442D01*
X11780Y6395D02*
X11790D01*
X11785D01*
Y6370D01*
X11790Y6365D01*
X11795D01*
X11800Y6370D01*
X11770Y6365D02*
X11750D01*
X11770D02*
X11750Y6385D01*
Y6390D01*
X11755Y6395D01*
X11765D01*
X11770Y6390D01*
D02*
M02*
