%
T1C0.0120F200S100
X006890Y-009843
X008071Y-010827
X008071Y-007677
X009252Y-008662
X009843Y-009252
X010630Y-012795
X010827Y-010827
X011418Y-010827
X012205Y-009252
X011418Y-006693
X012796Y-006890
X013189Y-012795
X013386Y-013780
X013386Y-012008
X013386Y-007874
X014173Y-006102
X014370Y-010827
X014399Y-003965
X014370Y-002165
X015551Y-013386
X015945Y-009055
X015945Y-008465
X015945Y-007874
X015945Y-007284
X015945Y-006693
X015945Y-006102
X015945Y-004528
X015945Y-003937
X015945Y-003346
X015945Y-002756
X015945Y-002165
X015945Y-001575
X015977Y-011055
X016536Y-012205
X016732Y-009055
X016732Y-008465
X016732Y-007874
X016732Y-007284
X016732Y-006693
X016732Y-006102
X016732Y-004528
X016732Y-003937
X016732Y-003346
X016732Y-002756
X016732Y-002165
X016732Y-001575
X017520Y-009055
X017520Y-008465
X017520Y-007874
X017520Y-007284
X017520Y-006693
X017520Y-006102
X017520Y-004528
X017520Y-003937
X017520Y-003346
X017520Y-002756
X017520Y-002165
X017520Y-001575
X019095Y-009055
X019488Y-008071
X019488Y-007087
X019095Y-002165
X020670Y-008268
X022244Y-008662
X022835Y-011614
X023032Y-004528
X023032Y-002165
X023638Y-012614
X024803Y-004527
X025197Y-008465
X025394Y-006102
X025394Y-001575
X025591Y-011221
X026772Y-004527
X027363Y-011221
X027559Y-012008
X027363Y-006102
X027363Y-001575
X027953Y-004528
X028150Y-010827
X028150Y-010433
X028741Y-001575
X028937Y-011024
X029516Y-008083
X035827Y-010236
X037583Y-009039
X039371Y-007874
X039793Y-010228
X040749Y-007480
X041059Y-010517
X041689Y-009099
X042299Y-005931
X042717Y-005906
X044080Y-007692
X044095Y-009252
X044095Y-008268
X044292Y-007284
X044489Y-008858
X044489Y-007874
X044686Y-006496
X044883Y-005906
X045276Y-006299
X045867Y-012402
X046060Y-008272
X046064Y-010039
X047048Y-002953
X047638Y-008661
X047835Y-012402
X049017Y-003740
X050001Y-005512
X050395Y-015551
X050395Y-014961
X050395Y-014370
X050395Y-013780
X050985Y-015551
X051576Y-015551
X051576Y-014961
X050985Y-014961
X050985Y-014370
X050985Y-013780
X051576Y-014370
X051576Y-013780
X051773Y-003347
X051969Y-000984
X052166Y-015551
X052757Y-015551
X052757Y-014961
X052166Y-014961
X052166Y-014370
X052166Y-013780
X052757Y-014370
X052757Y-013780
X052954Y-001378
X053347Y-015551
X053347Y-014961
X053347Y-014370
X053347Y-013780
X053347Y-012795
X053544Y-011811
X054344Y-015563
X054922Y-004331
X055906Y-005512
X058662Y-009252
X059647Y-010827
X060237Y-001181
X060631Y-004331
X060631Y-010039
X061025Y-002559
X061615Y-002756
X062206Y-009252
X062206Y-007874
X062796Y-009252
X062796Y-007874
X062993Y-002165
X062993Y-001575
X065552Y-010039
X065946Y-000984
X066143Y-009252
X066733Y-011048
X066930Y-000984
X067127Y-009252
X067521Y-004724
X067915Y-004921
X068308Y-005118
X068505Y-011024
X068505Y-010039
X068505Y-002165
X068505Y-000984
X068505Y-007284
X068702Y-009252
X068702Y-005315
X069096Y-005512
X069293Y-002165
X069293Y-001378
X069489Y-005709
X069883Y-005906
X070277Y-006102
X070474Y-006693
X070670Y-013583
X070671Y-015945
X071655Y-005906
X071655Y-003543
X072048Y-008465
X072245Y-001575
X072245Y-013583
X072245Y-002362
X072836Y-001575
X073033Y-013386
X073230Y-008858
X073426Y-001575
X073427Y-009843
X073427Y-009449
X073623Y-014370
X073820Y-012008
X074017Y-014862
X074411Y-005709
X074411Y-005118
X074411Y-004528
X074411Y-003740
X074608Y-013406
X074608Y-008858
X074608Y-014370
X074804Y-006496
X075198Y-005709
X075198Y-004528
X075198Y-003150
X075198Y-012402
X075395Y-014173
X075789Y-003150
X075789Y-014173
X076183Y-014173
X076379Y-006496
X076379Y-003937
X076379Y-016044
X076970Y-003937
X076970Y-015945
X077167Y-008661
X077560Y-006496
X077560Y-005118
X077560Y-004528
X077560Y-003346
X077560Y-002756
X077757Y-009252
X077954Y-015551
X078151Y-014961
X078151Y-005709
X078348Y-011024
X078545Y-006496
X078545Y-011417
X078742Y-015551
X079332Y-001378
X079529Y-012599
X079726Y-001181
X079923Y-008662
X080316Y-002559
X080316Y-002165
X080694Y-007071
X080710Y-007480
X080710Y-011221
X080710Y-001772
X080907Y-013780
X082482Y-013386
X082482Y-012992
X080907Y-006102
X083072Y-008662
X083072Y-008071
X083072Y-007480
X083072Y-006890
X083072Y-005709
X083663Y-005118
X085632Y-006693
X085632Y-005906
X085632Y-005118
X086222Y-008071
X086518Y-010236
X086616Y-005315
X087206Y-005906
X087797Y-009252
X089372Y-011024
X090159Y-011024
X090159Y-010433
X090159Y-009843
X090159Y-009252
X090159Y-008071
X090159Y-006890
X090159Y-006102
X090159Y-004528
X090159Y-003740
X090946Y-011024
X090946Y-010433
X090946Y-009843
X090946Y-009252
X090946Y-008662
X090946Y-008071
X090946Y-006890
X090946Y-006102
X090946Y-005315
X090946Y-004528
X090946Y-003740
X091734Y-011024
X091734Y-010433
X091734Y-009843
X091734Y-009252
X091734Y-008662
X091734Y-008071
X091734Y-006890
X091734Y-006102
X091734Y-005315
X091734Y-004528
X091734Y-003740
X092521Y-011024
X092521Y-010433
X092521Y-009843
X092521Y-009252
X092521Y-008662
X092521Y-008071
X092521Y-006890
X092521Y-006102
X092521Y-005315
X092521Y-004528
X092521Y-003740
X093309Y-011024
X093309Y-010433
X093309Y-009843
X093309Y-009252
X093309Y-008661
X093309Y-008071
X093309Y-006890
X093309Y-006102
X093309Y-005315
X093309Y-004528
X093309Y-003740
X094096Y-011024
X094096Y-010433
X094096Y-009843
X094096Y-009252
X094096Y-008661
X094096Y-008071
X094096Y-006890
X094096Y-006102
X094096Y-005315
X094096Y-004528
X094096Y-003740
X094884Y-011024
X094884Y-010433
X094884Y-009843
X094884Y-009252
X095671Y-011024
X094884Y-006890
X094884Y-006102
X094884Y-005315
X094884Y-004528
X094884Y-003740
X095671Y-001575
X096459Y-000197
X096852Y-011024
X096852Y-009252
X097246Y-005709
X097640Y-011024
X098427Y-011024
X098427Y-009252
X097640Y-009252
X099214Y-011024
X099214Y-009252
X099608Y-001378
X100002Y-011024
X100002Y-009252
X100199Y-006299
X100592Y-002953
X100789Y-011024
X100789Y-009252
X101167Y-002953
X101183Y-005315
X101577Y-011024
X101577Y-009252
X101970Y-002953
X101970Y-000787
X102167Y-001968
X102364Y-011024
X102364Y-009252
X102364Y-005315
X102561Y-006890
X102758Y-006299
X102758Y-003150
X102758Y-001378
X102561Y-000591
X103151Y-011024
X103939Y-011024
X103939Y-009252
X103151Y-009252
X104726Y-011024
X104726Y-009252
X105317Y-007480
X105514Y-011024
X106301Y-011024
X106301Y-009252
X105514Y-009252
X107089Y-011024
X107089Y-009252
X107286Y-005906
X107876Y-011024
X107876Y-009252
X108270Y-006299
X108663Y-011024
X108663Y-009252
X108663Y-002165
X108663Y-001181
X109057Y-000591
X109451Y-011024
X109451Y-009252
X109648Y-005709
X109648Y-000591
X110238Y-011024
X110238Y-009252
X110435Y-002165
X111026Y-011024
X111026Y-009252
X111813Y-011024
X112600Y-011024
X112600Y-009252
X111813Y-009252
X113388Y-011024
X113388Y-009252
X114175Y-012795
X114175Y-012205
X114175Y-011614
X114175Y-011024
X114175Y-009252
X114175Y-008662
X114175Y-008071
X114175Y-007480
X114175Y-006890
X114963Y-012795
X115750Y-012795
X115750Y-006890
X114963Y-006890
X116538Y-012795
X117325Y-012795
X117325Y-006890
X116538Y-006890
T6C0.0394F200S100
X002756Y-015945
X004134Y-001575
X004528Y-015945
X007283Y-006890
X020473Y-004528
X021654Y-006693
X028544Y-009449
X041536Y-012008
X054725Y-012795
X075789Y-010236
X076970Y-010236
X078151Y-010236
T10C0.1500F200S100
X001968Y-013543
X001968Y-004390
X033433Y-013543
X033433Y-004390
X057661Y-013543
X057661Y-004390
X098610Y-013543
X098610Y-004390
T9C0.0800F200S100
X005382Y-003180
X036645Y-001248
T3C0.0320F200S100
X005102Y-013240
X005102Y-012240
X005102Y-011240
X005102Y-010240
X005102Y-009240
X005102Y-008240
X005102Y-007240
X005102Y-006240
X005102Y-005240
X005102Y-004240
X006102Y-012740
X006102Y-011740
X006102Y-010740
X006102Y-009740
X006102Y-008740
X006102Y-007740
X006102Y-006740
X006102Y-005740
X006102Y-004740
X006102Y-003740
X037205Y-001968
X037705Y-000968
X038205Y-001968
X038705Y-000968
X039205Y-001968
X039705Y-000968
X040205Y-001968
X040705Y-000968
X041205Y-001968
X041705Y-000968
X042205Y-001968
X042705Y-000968
X043205Y-001968
X043705Y-000968
X044205Y-001968
X044705Y-000968
X045205Y-001968
X045705Y-000968
X046205Y-001968
X046705Y-000968
T5C0.0390F200S100
X038977Y-014583
X038977Y-013583
X039977Y-014583
X039977Y-013583
X040977Y-014583
X040977Y-013583
X041977Y-014583
X041977Y-013583
X042977Y-014583
X042977Y-013583
T4C0.0340F200S100
X060631Y-014961
X060631Y-011961
X066631Y-014961
X066631Y-011961
T2C0.0300F200S100
X081104Y-015554
X081104Y-014764
X081894Y-015554
X081894Y-014764
X082684Y-015554
X082684Y-014764
X083474Y-015554
X083474Y-014764
X084254Y-015554
X084254Y-014764
X085044Y-015554
X085044Y-014764
X085834Y-015554
X085834Y-014764
T8C0.0512F200S100
X103424Y-002706
X103424Y-000706
X103426Y-006052
X103426Y-004052
X104424Y-001706
X104426Y-005052
X105424Y-002706
X105424Y-000706
X105426Y-006052
X105426Y-004052
T7C0.0420F200S100
X106693Y-004724
X107693Y-004724
X108693Y-004724
X110236Y-004724
X111236Y-004724
X112236Y-004724
M30
