*%FSLAX23Y23*%
*%MOIN*%
G01*
D36*
X11491Y7803D02*
D03*
X11254Y8472D02*
D03*
X11451Y8630D02*
D03*
X11136Y8512D02*
D03*
X10624Y8669D02*
D03*
X10664Y8630D02*
D03*
X10703Y8512D02*
D03*
X10782D02*
D03*
X10861D02*
D03*
X10821Y8394D02*
D03*
Y8275D02*
D03*
X10782D02*
D03*
X10742D02*
D03*
X10703D02*
D03*
Y8315D02*
D03*
X10742D02*
D03*
X10782D02*
D03*
Y8354D02*
D03*
X10742D02*
D03*
X10703D02*
D03*
X10782Y8551D02*
D03*
X10821D02*
D03*
X10861D02*
D03*
X10979Y8512D02*
D03*
Y8551D02*
D03*
Y8590D02*
D03*
X10939D02*
D03*
Y8551D02*
D03*
Y8512D02*
D03*
X11018Y8433D02*
D03*
X10979D02*
D03*
X10939D02*
D03*
X10861Y8394D02*
D03*
Y8354D02*
D03*
Y8315D02*
D03*
X10782Y8394D02*
D03*
X10742D02*
D03*
X10703D02*
D03*
X10900Y8590D02*
D03*
Y8551D02*
D03*
Y8512D02*
D03*
Y8472D02*
D03*
Y8433D02*
D03*
X10861Y8590D02*
D03*
X10821D02*
D03*
X10782D02*
D03*
X10742D02*
D03*
X10703D02*
D03*
Y8472D02*
D03*
X10742D02*
D03*
X10782D02*
D03*
X10821D02*
D03*
X10861D02*
D03*
Y8433D02*
D03*
X10821D02*
D03*
X10782D02*
D03*
X10742D02*
D03*
X10703D02*
D03*
X11136Y8315D02*
D03*
X10861Y8275D02*
D03*
X10979Y8315D02*
D03*
X11057D02*
D03*
X11215Y8433D02*
D03*
X11176D02*
D03*
X11136D02*
D03*
X11097D02*
D03*
Y8472D02*
D03*
X11018D02*
D03*
Y8512D02*
D03*
X11057D02*
D03*
X11097D02*
D03*
X11057Y8551D02*
D03*
X11018D02*
D03*
Y8590D02*
D03*
X11057D02*
D03*
X11097D02*
D03*
Y8551D02*
D03*
X11136D02*
D03*
Y8590D02*
D03*
X11176D02*
D03*
Y8551D02*
D03*
Y8512D02*
D03*
X11294Y8590D02*
D03*
X11254D02*
D03*
X11215D02*
D03*
X11254Y8551D02*
D03*
X11215D02*
D03*
X11294Y8472D02*
D03*
X11215D02*
D03*
Y8512D02*
D03*
X11254D02*
D03*
X11294D02*
D03*
X11333Y8590D02*
D03*
X11412D02*
D03*
Y8551D02*
D03*
X11333Y8512D02*
D03*
X11372D02*
D03*
X11412D02*
D03*
X11372Y8472D02*
D03*
X11412D02*
D03*
X11254Y8354D02*
D03*
Y8394D02*
D03*
Y8433D02*
D03*
X11294D02*
D03*
X11333D02*
D03*
X11372D02*
D03*
X11412D02*
D03*
Y8394D02*
D03*
X11372D02*
D03*
X11294D02*
D03*
X11333D02*
D03*
Y8354D02*
D03*
X11372D02*
D03*
X11412D02*
D03*
Y8315D02*
D03*
X11372D02*
D03*
X11333D02*
D03*
X11254D02*
D03*
Y8275D02*
D03*
X11294D02*
D03*
X11333D02*
D03*
X11372D02*
D03*
X10821Y8315D02*
D03*
Y8354D02*
D03*
X10979Y8472D02*
D03*
X10939D02*
D03*
X11136Y8472D02*
D03*
X11176D02*
D03*
X11294Y8315D02*
D03*
Y8354D02*
D03*
X11412Y8275D02*
D03*
X11294Y8551D02*
D03*
X11211Y8307D02*
D03*
X11223Y8401D02*
D03*
X10998Y8390D02*
D03*
X10892Y8401D02*
D03*
X11059Y8039D02*
D03*
X11097Y8037D02*
D03*
X11334Y7999D02*
D03*
X10703Y7921D02*
D03*
X10624Y7803D02*
D03*
X10664Y7842D02*
D03*
X10703Y7882D02*
D03*
X10821Y7921D02*
D03*
X10861D02*
D03*
X11451Y7842D02*
D03*
X11333Y7921D02*
D03*
X11254Y7960D02*
D03*
X11333D02*
D03*
X11412D02*
D03*
Y8000D02*
D03*
X11372D02*
D03*
X10821Y8197D02*
D03*
X10861Y8118D02*
D03*
X10782Y7882D02*
D03*
X10821D02*
D03*
X10861D02*
D03*
X10782Y8118D02*
D03*
X10742D02*
D03*
X10703D02*
D03*
Y8157D02*
D03*
X10742D02*
D03*
X10782D02*
D03*
Y8197D02*
D03*
X10742D02*
D03*
X10703D02*
D03*
Y8236D02*
D03*
X10742D02*
D03*
X10782D02*
D03*
X10979Y7960D02*
D03*
Y7921D02*
D03*
Y7882D02*
D03*
X10939D02*
D03*
Y7921D02*
D03*
Y7960D02*
D03*
X11097D02*
D03*
Y7921D02*
D03*
Y7882D02*
D03*
X11057D02*
D03*
Y7921D02*
D03*
Y7960D02*
D03*
X11018D02*
D03*
Y7921D02*
D03*
Y7882D02*
D03*
X11412Y7882D02*
D03*
X11372D02*
D03*
X11333D02*
D03*
X11136Y7960D02*
D03*
X11176D02*
D03*
X11215D02*
D03*
X11294Y8000D02*
D03*
X11254D02*
D03*
X11215D02*
D03*
X11136Y8039D02*
D03*
X11176D02*
D03*
X11215D02*
D03*
X11097Y8000D02*
D03*
X11057D02*
D03*
X11018D02*
D03*
X11018Y8039D02*
D03*
X10979D02*
D03*
X10939D02*
D03*
X11254D02*
D03*
X11294D02*
D03*
X11333D02*
D03*
X11372D02*
D03*
X11412D02*
D03*
X11294Y7921D02*
D03*
X11254D02*
D03*
X11215D02*
D03*
X11176D02*
D03*
X11136D02*
D03*
Y7882D02*
D03*
X11176D02*
D03*
X11215D02*
D03*
X11254D02*
D03*
X11294D02*
D03*
X10900Y7882D02*
D03*
Y7921D02*
D03*
Y7960D02*
D03*
Y8000D02*
D03*
Y8039D02*
D03*
X10703Y7960D02*
D03*
X10742D02*
D03*
X10782D02*
D03*
X10821D02*
D03*
X10861D02*
D03*
Y8000D02*
D03*
X10821D02*
D03*
X10742D02*
D03*
X10703D02*
D03*
Y8039D02*
D03*
X10742D02*
D03*
X10782D02*
D03*
X10821D02*
D03*
X10861D02*
D03*
Y8079D02*
D03*
X10821D02*
D03*
X10782D02*
D03*
X10742D02*
D03*
X10703D02*
D03*
X10861Y8157D02*
D03*
Y8197D02*
D03*
X10979Y8157D02*
D03*
X11136D02*
D03*
X11057D02*
D03*
X10979Y8236D02*
D03*
X11057D02*
D03*
X11136D02*
D03*
X11372D02*
D03*
X11333D02*
D03*
X11254Y8197D02*
D03*
X11294D02*
D03*
X11372D02*
D03*
X11412D02*
D03*
Y8157D02*
D03*
X11372D02*
D03*
X11333D02*
D03*
X11254D02*
D03*
X11333Y8118D02*
D03*
X11372D02*
D03*
X11412D02*
D03*
Y8079D02*
D03*
X11372D02*
D03*
X11333D02*
D03*
X11294D02*
D03*
X11254D02*
D03*
Y8118D02*
D03*
X10821Y8157D02*
D03*
Y8118D02*
D03*
X10939Y8000D02*
D03*
X10979D02*
D03*
X11136D02*
D03*
X11176D02*
D03*
X11333Y8197D02*
D03*
X11294Y8157D02*
D03*
Y8118D02*
D03*
X11412Y8236D02*
D03*
X11113Y8083D02*
D03*
X11223Y8071D02*
D03*
X10904Y8169D02*
D03*
X10900Y8075D02*
D03*
D104*
X12500Y9038D02*
D03*
X12425D02*
D03*
Y8938D02*
D03*
X12462D02*
D03*
X12500D02*
D03*
D120*
X13064Y9799D02*
D03*
X13001D02*
D03*
X12585Y9962D02*
D03*
X12647D02*
D03*
X12486Y10257D02*
D03*
X12423D02*
D03*
X12256Y5792D02*
D03*
X12193D02*
D03*
X10962Y8353D02*
D03*
X10899D02*
D03*
X11152Y8358D02*
D03*
X11215D02*
D03*
X11101Y8390D02*
D03*
X11038D02*
D03*
X10962Y8120D02*
D03*
X10899D02*
D03*
X11151Y8117D02*
D03*
X11213D02*
D03*
X11010Y8083D02*
D03*
X11073D02*
D03*
D136*
X12621Y10201D02*
D03*
Y10264D02*
D03*
X12647Y6180D02*
D03*
Y6243D02*
D03*
X11209Y8201D02*
D03*
Y8264D02*
D03*
X10909Y8279D02*
D03*
Y8216D02*
D03*
D146*
X14164Y9727D02*
D03*
X14254D02*
D03*
X14552Y8857D02*
D03*
X14462D02*
D03*
X14066Y9245D02*
D03*
X13976D02*
D03*
X13687Y8822D02*
D03*
X13777D02*
D03*
X13824Y9242D02*
D03*
X13734D02*
D03*
X13824Y9722D02*
D03*
X13734D02*
D03*
X13609Y9232D02*
D03*
X13519D02*
D03*
X13581Y7937D02*
D03*
X13671D02*
D03*
X14034Y6737D02*
D03*
X13944D02*
D03*
X13581Y6722D02*
D03*
X13491D02*
D03*
X13652Y7197D02*
D03*
X13742D02*
D03*
X13581Y7633D02*
D03*
X13671D02*
D03*
X13301Y6857D02*
D03*
X13211D02*
D03*
X13498Y6583D02*
D03*
X13408D02*
D03*
X13518Y6218D02*
D03*
X13428D02*
D03*
X12039Y9683D02*
D03*
X12129D02*
D03*
X11786Y8787D02*
D03*
X11872D02*
D03*
X12070Y6072D02*
D03*
X12160D02*
D03*
X11233Y9888D02*
D03*
X11323D02*
D03*
X11459Y10056D02*
D03*
X11369D02*
D03*
X10597Y10483D02*
D03*
X10511D02*
D03*
X10292Y10313D02*
D03*
X10382D02*
D03*
X11323Y9052D02*
D03*
X11413D02*
D03*
X10779Y9045D02*
D03*
X10689D02*
D03*
X5265Y9002D02*
D03*
X5175D02*
D03*
D155*
X14442Y8742D02*
D03*
X14577D02*
D03*
X13936Y9388D02*
D03*
X14071D02*
D03*
X13802Y8707D02*
D03*
X13667D02*
D03*
X13470Y9114D02*
D03*
X13605D02*
D03*
X13691Y8047D02*
D03*
X13556D02*
D03*
X13764Y7342D02*
D03*
X13629D02*
D03*
X13692Y7517D02*
D03*
X13557D02*
D03*
X13418Y6108D02*
D03*
X13553D02*
D03*
X13398Y6488D02*
D03*
X13533D02*
D03*
X12211Y9584D02*
D03*
X12346D02*
D03*
D163*
X14699Y10092D02*
D03*
Y10182D02*
D03*
X14809Y9307D02*
D03*
Y9397D02*
D03*
X14716Y6891D02*
D03*
Y6801D02*
D03*
X14568Y8942D02*
D03*
Y9032D02*
D03*
X14183Y8954D02*
D03*
Y9040D02*
D03*
X14458Y8942D02*
D03*
Y9032D02*
D03*
X13805Y8997D02*
D03*
Y8907D02*
D03*
X14347Y9267D02*
D03*
Y9177D02*
D03*
X14569Y9397D02*
D03*
Y9307D02*
D03*
X13989Y9122D02*
D03*
Y9032D02*
D03*
X14194Y9397D02*
D03*
Y9307D02*
D03*
X13715Y8997D02*
D03*
Y8907D02*
D03*
X13535Y9812D02*
D03*
Y9902D02*
D03*
X13596Y9579D02*
D03*
Y9489D02*
D03*
X13667Y7751D02*
D03*
Y7841D02*
D03*
X13534Y7209D02*
D03*
Y7119D02*
D03*
X13344Y7286D02*
D03*
Y7376D02*
D03*
X13578Y7751D02*
D03*
Y7841D02*
D03*
X13881Y7197D02*
D03*
Y7107D02*
D03*
X14070Y7379D02*
D03*
Y7289D02*
D03*
X13408Y6933D02*
D03*
Y6843D02*
D03*
X13523Y6303D02*
D03*
Y6393D02*
D03*
X13413Y6303D02*
D03*
Y6393D02*
D03*
X13141Y6657D02*
D03*
Y6747D02*
D03*
X11546Y9799D02*
D03*
Y9709D02*
D03*
X12261Y9229D02*
D03*
Y9315D02*
D03*
X12475Y9109D02*
D03*
Y9195D02*
D03*
X12082Y9111D02*
D03*
Y9197D02*
D03*
X11880Y6317D02*
D03*
Y6227D02*
D03*
X10701Y9854D02*
D03*
Y9768D02*
D03*
X10967Y9837D02*
D03*
Y9927D02*
D03*
X10432Y10543D02*
D03*
Y10453D02*
D03*
X10802Y10233D02*
D03*
Y10323D02*
D03*
X10620Y9854D02*
D03*
Y9768D02*
D03*
X10682Y10537D02*
D03*
Y10451D02*
D03*
X10282Y10548D02*
D03*
Y10458D02*
D03*
X10012Y10333D02*
D03*
Y10243D02*
D03*
X10701Y9768D02*
D03*
Y9854D02*
D03*
X10709Y9551D02*
D03*
Y9641D02*
D03*
X10824Y9901D02*
D03*
Y9811D02*
D03*
X10268Y9649D02*
D03*
Y9559D02*
D03*
X10710Y9162D02*
D03*
Y9252D02*
D03*
X11433Y9335D02*
D03*
Y9425D02*
D03*
X11270Y6897D02*
D03*
Y6807D02*
D03*
X10211Y7804D02*
D03*
Y7718D02*
D03*
D192*
X14559Y10177D02*
D03*
Y10042D02*
D03*
X13425Y9932D02*
D03*
Y9797D02*
D03*
X14451Y9129D02*
D03*
Y9264D02*
D03*
X13476Y9463D02*
D03*
Y9598D02*
D03*
X14569Y6890D02*
D03*
Y6755D02*
D03*
X13227Y7399D02*
D03*
Y7264D02*
D03*
X14185Y7274D02*
D03*
Y7409D02*
D03*
X13545Y6966D02*
D03*
Y6831D02*
D03*
M02*
