G04 ================== begin FILE IDENTIFICATION RECORD ==================*
G04 Layout Name:  D:/Dokumenter/PT5300_NTP/PT8640/PCB/PT8640.brd*
G04 Film Name:    BOT_ETCH*
G04 File Format:  Gerber RS274X*
G04 File Origin:  16.0-s007*
G04 Origin Date:  Fri May 07 15:57:09 2010*
G04 *
G04 Layer:  VIA CLASS/BOTTOM*
G04 Layer:  PIN/BOTTOM*
G04 Layer:  ETCH/BOTTOM*
G04 *
G04 Offset:    (0.0000 0.0000)*
G04 Mirror:    No*
G04 Mode:      Positive*
G04 Rotation:  0*
G04 FullContactRelief:  No*
G04 UndefLineWidth:     0.0000*
G04 ================== end FILE IDENTIFICATION RECORD ====================*
%FSLAX55Y55*MOMM*%
%IR0*IPPOS*OFA0.00000B0.00000*MIA0B0*SFA1.00000B1.00000*%
%ADD18R,.95X1.4*%
%ADD13C,.8*%
%ADD11C,.55*%
%ADD20R,1.5X1.6*%
%ADD10C,1.*%
%ADD24R,2.7X1.15*%
%ADD16C,1.1*%
%ADD21C,1.4*%
%ADD23C,1.6*%
%ADD22C,2.5*%
%ADD19C,5.2*%
%ADD17R,.9X.9*%
%ADD15C,0.0*%
%ADD14R,.9X.9*%
%ADD12C,3.8*%
%ADD25C,.15*%
G75*
%LPD*%
G75*
G54D10*
X300000Y300000D03*
X8700000Y3300000D03*
G54D20*
X3665000Y1540000D03*
X3935000D03*
G54D11*
X260000Y2880000D03*
X632500Y347500D03*
X400000Y1120000D03*
X950000Y1248500D03*
X1050000D03*
X1000000Y1297500D03*
X1100000D03*
X400000Y1280000D03*
X448500Y2150000D03*
X497500Y2300000D03*
X448500Y2250000D03*
X497500Y2200000D03*
X448500Y2350000D03*
X497500Y2800000D03*
X448500Y2750000D03*
X497500Y2700000D03*
X448500Y2650000D03*
X1350000Y1248500D03*
X1200000Y1297500D03*
X1150000Y1248500D03*
X1250000D03*
X1400000Y1297500D03*
X1800000Y3102500D03*
X1850000Y3151500D03*
X1300000Y3102500D03*
X1350000Y3151500D03*
X1750000D03*
X2230000Y250000D03*
X2503010Y1050000D03*
X2018000Y650000D03*
X2576220Y1300620D03*
X2510000Y1340000D03*
X2360000Y1550000D03*
X2302500Y1600000D03*
X2460000Y1220000D03*
X2410000Y1170000D03*
X2000000Y1297500D03*
X2626440Y2192930D03*
X2351500Y2250000D03*
X2302500Y2100000D03*
X2351500Y2150000D03*
X2302500Y2200000D03*
X2570710Y2246200D03*
X2450710D03*
X2510710Y2196200D03*
X1900000Y3102500D03*
X1950000Y3151500D03*
X2000000Y3102500D03*
X2620950Y2800000D03*
X2626440Y2700000D03*
X2570500Y2872440D03*
X2450500D03*
X2510500Y2922440D03*
X1960000Y3450000D03*
X2790000Y250000D03*
X3010000Y650000D03*
X2920000Y1400000D03*
X2980000Y1350000D03*
X3002230Y2246200D03*
X2950700Y2193170D03*
X2897130Y2243170D03*
X2845360Y2195290D03*
X2792350Y2241010D03*
X2737130Y2193170D03*
X2681300Y2243170D03*
X2678080Y2747270D03*
X3725000Y773500D03*
X3625000D03*
X3575000Y822500D03*
X3675000D03*
X3770000Y1400000D03*
X3769640Y1329640D03*
X3825000Y1927500D03*
X3775000Y1976500D03*
X4310000Y1880000D03*
X5580000Y1690000D03*
X5650000Y1380000D03*
X5500000Y2100000D03*
X5440000Y2160000D03*
X6330000Y1550000D03*
X5700000Y1330000D03*
X5770000Y2510000D03*
X6120000D03*
X6902500Y980000D03*
X6832500D03*
X7200000Y700000D03*
X6680000Y1720000D03*
X7030000D03*
X6787500D03*
X6470000D03*
X6640000Y3200000D03*
Y2950000D03*
X6707500Y3000000D03*
X6710000Y3260000D03*
X7355000Y1655000D03*
X7280000Y1850000D03*
X7950000Y1750000D03*
X7290000Y2200000D03*
Y2340000D03*
X7957500Y3147500D03*
X7632500D03*
X7762500Y2740000D03*
X7827500Y2790000D03*
X7697500Y2792500D03*
X8022500Y2100000D03*
X8087500Y2150000D03*
G54D12*
X435000Y3660000D03*
X2935000D03*
X6066000D03*
X8566000D03*
G54D21*
X4069000Y2290000D03*
X4196000Y2544000D03*
X4323000Y2290000D03*
X4577000D03*
X4831000D03*
X4450000Y2544000D03*
X4704000D03*
X4958000D03*
G54D22*
X3728000Y2874000D03*
X5301000Y2878000D03*
G54D13*
X950000Y1900000D03*
Y1700000D03*
X1200000Y1130000D03*
X1150000Y1900000D03*
Y1700000D03*
X1550000Y1900000D03*
X1350000D03*
X1550000Y2100000D03*
X1350000D03*
G54D14*
X620000Y2390000D03*
Y2250000D03*
X770000Y2390000D03*
Y2250000D03*
X620000Y2100000D03*
Y1960000D03*
X770000Y2100000D03*
Y1960000D03*
X2230000Y650000D03*
Y510000D03*
X2030000Y2150000D03*
Y2290000D03*
X2180000Y2150000D03*
Y2290000D03*
X2790000Y650000D03*
Y510000D03*
X3130000Y1300000D03*
Y1440000D03*
G54D23*
X4135000Y3669000D03*
X3881000Y3517000D03*
X4892000D03*
X5146000Y3669000D03*
G54D15*
X890000Y3660000D03*
X2480000D03*
X3630000Y450000D03*
X3942000Y3179000D03*
X5085000D03*
X5830000Y450000D03*
X6521000Y3660000D03*
X8550000Y310000D03*
X8111000Y3660000D03*
G54D24*
X5700000Y1860000D03*
Y2185000D03*
X6050000Y1860000D03*
X6400000Y2390000D03*
Y2065000D03*
X6050000Y2185000D03*
X6750000Y2390000D03*
Y2065000D03*
X7100000Y2390000D03*
Y2065000D03*
G54D25*
G01X6703000Y254000D02*
Y747000D01*
X6573010Y876990D01*
X401160D01*
X229990Y1048160D01*
Y1529720D01*
X230000Y1529730D01*
Y2643660D01*
X386340Y2800000D01*
X497500D01*
G01X6830000Y508000D02*
Y662430D01*
X6585440Y906990D01*
X413590D01*
X260000Y1060580D01*
Y2602940D01*
X407060Y2750000D01*
X448500D01*
G01X6957000Y254000D02*
Y583000D01*
X6603010Y936990D01*
X426020D01*
X290000Y1073010D01*
Y2562220D01*
X427780Y2700000D01*
X497500D01*
G01X7084000Y508000D02*
X7082000D01*
X6623010Y966990D01*
X438450D01*
X320000Y1085440D01*
Y2521500D01*
X448500Y2650000D01*
G01X2503010Y1050000D02*
X1150000D01*
X951500Y1248500D01*
X950000D01*
G01X620000Y1960000D02*
X560000D01*
X448500Y2071500D01*
Y2150000D01*
G01X770000Y1960000D02*
X620000D01*
G01Y2250000D02*
X547500D01*
X497500Y2300000D01*
G01X770000Y2250000D02*
X620000D01*
G01Y2100000D02*
X560000D01*
X497500Y2162500D01*
Y2200000D01*
G01X770000Y2100000D02*
X620000D01*
G01X448500Y2350000D02*
X520000D01*
X560000Y2390000D01*
X620000D01*
G01X770000D02*
X620000D01*
G01X1300000Y1420000D02*
Y1370000D01*
X1350000Y1320000D01*
Y1248500D01*
G01X1300000Y1570000D02*
Y1420000D01*
G01X1250000Y1248500D02*
X1308500Y1190000D01*
X1710000D01*
X1880000Y1360000D01*
Y1512430D01*
X2030000Y1662430D01*
Y1662440D01*
X2047560Y1680000D01*
X2370000D01*
X2370010Y1680010D01*
X2394850D01*
X2864840Y1210020D01*
X2872130D01*
X2872150Y1210000D01*
X6947080D01*
X6947190Y1209890D01*
Y1210000D01*
X7030000D01*
X7070000Y1250000D01*
X7382500D01*
G01X1440000Y1420000D02*
Y1350000D01*
X1400000Y1310000D01*
Y1297500D01*
G01X1440000Y1570000D02*
Y1420000D01*
G01X1260000Y2440000D02*
Y3062500D01*
X1300000Y3102500D01*
G01X1260000Y2290000D02*
Y2440000D01*
G01X1400000D02*
Y3031780D01*
X1350000Y3081780D01*
Y3151500D01*
G01X1400000Y2290000D02*
Y2440000D01*
G01X3002230Y2246200D02*
Y2724680D01*
X2857080Y2869830D01*
Y2869840D01*
X2456920Y3270000D01*
X1880000D01*
X1800000Y3190000D01*
Y3102500D01*
G01X2950700Y2193170D02*
Y2733780D01*
X2827080Y2857400D01*
Y2857410D01*
X2444490Y3240000D01*
X1920000D01*
X1850000Y3170000D01*
Y3151500D01*
G01X5980000Y2400000D02*
Y2620000D01*
X5900000Y2700000D01*
X3112430D01*
X2452430Y3360000D01*
X2150000D01*
X1685000Y3825000D01*
Y3880000D01*
G01X2230000Y510000D02*
Y250000D01*
G01X2790000Y650000D02*
X2602500D01*
G01X2410000Y1170000D02*
X2507570D01*
X2677570Y1000000D01*
X6817500D01*
X6837500Y980000D01*
X6832500D01*
G01X2018000Y650000D02*
X2128000Y760000D01*
X2980000D01*
X3060000Y680000D01*
X3625000D01*
X3675000Y730000D01*
Y822500D01*
G01X2230000Y650000D02*
X2417500D01*
G01X2230000D02*
X2018000D01*
G01X7377500Y850000D02*
X7232430D01*
X6992550Y1089880D01*
X6897480D01*
X6897360Y1090000D01*
X2822430D01*
X2822410Y1090020D01*
X2815120D01*
X2604520Y1300620D01*
X2576220D01*
G01X7727500Y750000D02*
X7290000D01*
X6980120Y1059880D01*
X6885050D01*
X6884930Y1060000D01*
X2810000D01*
X2809990Y1060010D01*
X2719990D01*
X2510000Y1270000D01*
Y1340000D01*
G01X7727500Y950000D02*
X7174860D01*
X7004980Y1119880D01*
X6909910D01*
X6909790Y1120000D01*
X2834860D01*
X2834840Y1120020D01*
X2827550D01*
X2397570Y1550000D01*
X2360000D01*
G01X2302500Y1600000D02*
X2390000D01*
X2839980Y1150020D01*
X2847270D01*
X2847290Y1150000D01*
X6922220D01*
X6922340Y1149880D01*
X7017410D01*
X7117290Y1050000D01*
X7377500D01*
G01X2460000Y1220000D02*
X2517570D01*
X2707560Y1030010D01*
X2749990D01*
X2750000Y1030000D01*
X6872500D01*
X6902500Y1000000D01*
Y980000D01*
G01X7727500Y1150000D02*
X7059720D01*
X7029840Y1179880D01*
X6934760D01*
Y1179890D01*
X6934650Y1180000D01*
X2859720D01*
X2859700Y1180020D01*
X2852410D01*
X2382430Y1650000D01*
X2060000D01*
X2000000Y1590000D01*
Y1297500D01*
G01X2626440Y2700000D02*
Y2696240D01*
X2627950D01*
X2626440Y2694730D01*
Y2192930D01*
G01X2180000Y2290000D02*
X2311500D01*
X2351500Y2250000D01*
G01X2030000Y2290000D02*
X2180000D01*
G01X5500000Y2100000D02*
X2302500D01*
G01X5440000Y2160000D02*
X5410000Y2130000D01*
X2371500D01*
X2351500Y2150000D01*
G01X2302500Y2200000D02*
X2300000D01*
X2250000Y2150000D01*
X2180000D01*
G01X2030000D02*
X2180000D01*
G01X2570710Y2246200D02*
X2570500Y2246410D01*
Y2872440D01*
G01X2450710Y2246200D02*
X2450500Y2246410D01*
Y2872440D01*
G01X2510710Y2196200D02*
X2510500Y2196410D01*
Y2922440D01*
G01X2897130Y2243170D02*
Y2744920D01*
X2797080Y2844970D01*
Y2844980D01*
X2432050Y3210000D01*
X1933870D01*
X1900000Y3176130D01*
Y3102500D01*
G01X2845360Y2195290D02*
Y2754260D01*
X2767080Y2832540D01*
Y2832550D01*
X2419620Y3180000D01*
X1978500D01*
X1950000Y3151500D01*
G01X2792350Y2241010D02*
X2793020D01*
Y2764170D01*
X2417190Y3140000D01*
X2037500D01*
X2000000Y3102500D01*
G01X2620950Y2800000D02*
X2696070D01*
X2699830Y2796240D01*
X2700670D01*
X2737510Y2759400D01*
Y2193550D01*
X2737130Y2193170D01*
G01X5630000Y2400000D02*
Y2590000D01*
X5550000Y2670000D01*
X3100000D01*
X2440000Y3330000D01*
X2080000D01*
X1960000Y3450000D01*
G01X2790000Y510000D02*
Y250000D01*
G01X3010000Y650000D02*
X2790000D01*
G01X3010000D02*
X3660000D01*
X3725000Y715000D01*
Y773500D01*
G01X3130000Y1440000D02*
X2960000D01*
X2920000Y1400000D01*
G01X2980000Y1350000D02*
X3030000Y1300000D01*
X3130000D01*
G01X2678080Y2747270D02*
X2676950D01*
Y2746240D01*
X2681300Y2741890D01*
Y2243170D01*
G01X3870000Y1800000D02*
Y1882500D01*
X3825000Y1927500D01*
G01X3935000Y1540000D02*
Y1655000D01*
X3870000Y1720000D01*
Y1800000D01*
G01X3770000Y1400000D02*
X3680000D01*
X3630000Y1350000D01*
G01X3769640Y1329640D02*
X3696990Y1256990D01*
X3513010D01*
X3490000Y1280000D01*
Y1350000D01*
G01X3775000Y1976500D02*
X3730000Y1931500D01*
Y1800000D01*
G01D02*
Y1720000D01*
X3665000Y1655000D01*
Y1540000D01*
G01X5650000Y1380000D02*
X7917570D01*
X8150000Y1612430D01*
Y2352500D01*
X7762500Y2740000D01*
G01X5700000Y2185000D02*
Y2260000D01*
X5630000Y2330000D01*
Y2400000D01*
G01X6400000Y2065000D02*
Y1980000D01*
X6330000Y1910000D01*
Y1850000D01*
G01D02*
Y1550000D01*
G01X5700000Y1330000D02*
X5720000Y1350000D01*
X7930010D01*
X7947570Y1367560D01*
Y1367570D01*
X8162430Y1582430D01*
X8162440D01*
X8180000Y1599990D01*
Y1600000D01*
X8180010Y1600010D01*
Y1624850D01*
X8180000Y1624860D01*
Y2437500D01*
X7827500Y2790000D01*
G01X8022500Y2100000D02*
Y1569790D01*
X7892710Y1440000D01*
X6180000D01*
X6050000Y1570000D01*
Y1860000D01*
G01X8087500Y2150000D02*
Y1592360D01*
X7905140Y1410000D01*
X5820000D01*
X5700000Y1530000D01*
Y1860000D01*
G01X6762000Y3880000D02*
Y3668000D01*
X6980000Y3450000D01*
Y2950000D01*
X6650000Y2620000D01*
X6470000D01*
X6400000Y2550000D01*
Y2390000D01*
G01X5770000Y2400000D02*
Y2510000D01*
G01X6120000Y2400000D02*
Y2510000D01*
G01X6050000Y2185000D02*
Y2260000D01*
X5980000Y2330000D01*
Y2400000D01*
G01X6750000Y2065000D02*
Y1980000D01*
X6680000Y1910000D01*
Y1850000D01*
G01Y1720000D02*
Y1850000D01*
G01X7100000Y2065000D02*
Y1980000D01*
X7030000Y1910000D01*
Y1850000D01*
G01D02*
Y1720000D01*
G01X6787500D02*
Y1760000D01*
X6820000Y1792500D01*
Y1850000D01*
G01X7170000D02*
X7280000D01*
G01X6470000D02*
Y1720000D01*
G01X7316000Y3880000D02*
Y3686000D01*
X7100000Y3470000D01*
Y2390000D01*
G01X7039000Y3880000D02*
Y2909000D01*
X6750000Y2620000D01*
Y2390000D01*
G01X6640000Y2950000D02*
Y3200000D01*
G01X6710000Y3260000D02*
X6707500Y3257500D01*
Y3000000D01*
G01X8493000Y2588000D02*
X8368000D01*
X8270000Y2490000D01*
Y1662160D01*
X8270010Y1662150D01*
Y1562720D01*
X8270000Y1562710D01*
Y1120000D01*
X8200000Y1050000D01*
X7562500D01*
G01X8746000Y2453000D02*
X8363000D01*
X8300000Y2390000D01*
Y1674590D01*
X8300010Y1674580D01*
Y1190010D01*
X8300000Y1190000D01*
Y1030000D01*
X8220000Y950000D01*
X7912500D01*
G01X8746000Y2199000D02*
X8370000D01*
X8330000Y2159000D01*
Y1687030D01*
X8330010Y1687020D01*
Y1177580D01*
X8330000Y1177570D01*
Y950000D01*
X8230000Y850000D01*
X7562500D01*
G01X8493000Y2080000D02*
X8400000D01*
X8360000Y2040000D01*
Y1699450D01*
X8360010Y1699440D01*
Y1140010D01*
X8360000Y1140000D01*
Y850000D01*
X8260000Y750000D01*
X7912500D01*
G01X8493000Y2842000D02*
X8362000D01*
X8210000Y2690000D01*
Y1637300D01*
X8210010Y1637290D01*
Y1587590D01*
X8210000Y1587580D01*
Y1310000D01*
X8150000Y1250000D01*
X7567500D01*
G01X8746000Y2707000D02*
X8367000D01*
X8240000Y2580000D01*
Y1649730D01*
X8240010Y1649720D01*
Y1575150D01*
X8240000Y1575140D01*
Y1210000D01*
X8180000Y1150000D01*
X7912500D01*
G54D16*
X1131000Y3880000D03*
X1269000D03*
X1546000D03*
X1823000D03*
X1408000D03*
X1685000D03*
X2100000D03*
X1962000D03*
X2239000D03*
X3995000Y254000D03*
X3741000D03*
X4122000Y508000D03*
X3868000D03*
X4757000Y254000D03*
X4503000D03*
X4249000D03*
X4884000Y508000D03*
X4630000D03*
X4376000D03*
X6449000Y254000D03*
X6195000D03*
X5941000D03*
X6322000Y508000D03*
X6068000D03*
X6957000Y254000D03*
X6703000D03*
X7084000Y508000D03*
X6830000D03*
X6576000D03*
X7177000Y3880000D03*
X6900000D03*
X7039000D03*
X6762000D03*
X7731000D03*
X7454000D03*
X7870000D03*
X7593000D03*
X7316000D03*
X8492000Y1056000D03*
X8746000Y929000D03*
X8492000Y802000D03*
X8746000Y675000D03*
X8492000Y548000D03*
X8746000Y421000D03*
X8493000Y1826000D03*
X8746000Y1691000D03*
X8492000Y1564000D03*
X8746000Y1437000D03*
X8492000Y1310000D03*
X8746000Y1183000D03*
X8493000Y2588000D03*
X8746000Y2453000D03*
X8493000Y2334000D03*
X8746000Y2199000D03*
X8493000Y2080000D03*
X8746000Y1945000D03*
X8493000Y2842000D03*
X8746000Y2707000D03*
G54D17*
X1440000Y1570000D03*
X1300000D03*
X1440000Y1420000D03*
X1300000D03*
X1400000Y2440000D03*
X1260000D03*
X1400000Y2290000D03*
X1260000D03*
X3490000Y1350000D03*
X3630000D03*
X3730000Y1800000D03*
X3870000D03*
X5630000Y2400000D03*
X6330000Y1850000D03*
X6470000D03*
X5770000Y2400000D03*
X5980000D03*
X6120000D03*
X6680000Y1850000D03*
X6820000D03*
X7030000D03*
X7170000D03*
G54D18*
X2417500Y650000D03*
X2602500D03*
X7912500Y1150000D03*
X7727500D03*
X7562500Y1050000D03*
X7377500D03*
X7912500Y950000D03*
X7727500D03*
X7562500Y850000D03*
X7377500D03*
X7912500Y750000D03*
X7727500D03*
X7567500Y1250000D03*
X7382500D03*
G54D19*
X2900000Y-1000000D03*
M02*
