G04 ================== begin FILE IDENTIFICATION RECORD ==================*
G04 Layout Name:  D:/Dokumenter/PT5300_NTP/PT8640/PCB/PT8640.brd*
G04 Film Name:    BOT_STENCIL*
G04 File Format:  Gerber RS274X*
G04 File Origin:  16.0-s007*
G04 Origin Date:  Fri May 07 15:57:09 2010*
G04 *
G04 Layer:  PIN/PASTEMASK_BOTTOM*
G04 *
G04 Offset:    (0.0000 0.0000)*
G04 Mirror:    No*
G04 Mode:      Positive*
G04 Rotation:  0*
G04 FullContactRelief:  No*
G04 UndefLineWidth:     0.0000*
G04 ================== end FILE IDENTIFICATION RECORD ====================*
%FSLAX55Y55*MOMM*%
%IR0*IPPOS*OFA0.00000B0.00000*MIA0B0*SFA1.00000B1.00000*%
%ADD12R,.95X1.4*%
%ADD13R,1.5X1.6*%
%ADD14R,2.7X1.15*%
%ADD11R,.9X.9*%
%ADD10R,.9X.9*%
%LPD*%
G75*
G54D10*
X620000Y2390000D03*
Y2250000D03*
X770000Y2390000D03*
Y2250000D03*
X620000Y2100000D03*
Y1960000D03*
X770000Y2100000D03*
Y1960000D03*
X2230000Y650000D03*
Y510000D03*
X2030000Y2150000D03*
Y2290000D03*
X2180000Y2150000D03*
Y2290000D03*
X2790000Y650000D03*
Y510000D03*
X3130000Y1300000D03*
Y1440000D03*
G54D11*
X1440000Y1570000D03*
X1300000D03*
X1440000Y1420000D03*
X1300000D03*
X1400000Y2440000D03*
X1260000D03*
X1400000Y2290000D03*
X1260000D03*
X3490000Y1350000D03*
X3630000D03*
X3730000Y1800000D03*
X3870000D03*
X5630000Y2400000D03*
X6330000Y1850000D03*
X6470000D03*
X5770000Y2400000D03*
X5980000D03*
X6120000D03*
X6680000Y1850000D03*
X6820000D03*
X7030000D03*
X7170000D03*
G54D12*
X2417500Y650000D03*
X2602500D03*
X7912500Y1150000D03*
X7727500D03*
X7562500Y1050000D03*
X7377500D03*
X7912500Y950000D03*
X7727500D03*
X7562500Y850000D03*
X7377500D03*
X7912500Y750000D03*
X7727500D03*
X7567500Y1250000D03*
X7382500D03*
G54D13*
X3665000Y1540000D03*
X3935000D03*
G54D14*
X5700000Y1860000D03*
Y2185000D03*
X6050000Y1860000D03*
X6400000Y2390000D03*
Y2065000D03*
X6050000Y2185000D03*
X6750000Y2390000D03*
Y2065000D03*
X7100000Y2390000D03*
Y2065000D03*
M02*
