G04 ================== begin FILE IDENTIFICATION RECORD ==================*
G04 Layout Name:  D:/Dokumenter/PT5300_NTP/PT8640/PCB/PT8640.brd*
G04 Film Name:    BOT_SLK*
G04 File Format:  Gerber RS274X*
G04 File Origin:  16.0-s007*
G04 Origin Date:  Wed Mar 24 10:41:37 2010*
G04 *
G04 Layer:  REF DES/SILKSCREEN_BOTTOM*
G04 Layer:  PACKAGE GEOMETRY/SILKSCREEN_BOTTOM*
G04 Layer:  BOARD GEOMETRY/SILKSCREEN_BOTTOM*
G04 *
G04 Offset:    (0.0000 0.0000)*
G04 Mirror:    No*
G04 Mode:      Positive*
G04 Rotation:  0*
G04 FullContactRelief:  No*
G04 UndefLineWidth:     0.0000*
G04 ================== end FILE IDENTIFICATION RECORD ====================*
%FSLAX55Y55*MOMM*%
%IR0*IPPOS*OFA0.00000B0.00000*MIA0B0*SFA1.00000B1.00000*%
%ADD10C,.1*%
%ADD11C,.2*%
G75*
%LPD*%
G75*
G54D10*
G01X1198000Y1590000D02*
Y1530000D01*
G01X1214100Y1590000D02*
X1181900D01*
G01X1164000Y1530000D02*
Y1590000D01*
X1147200D01*
X1141600Y1587000D01*
X1137400Y1580000D01*
X1136000Y1572000D01*
X1137400Y1564000D01*
X1140900Y1558000D01*
X1147200Y1555000D01*
X1164000D01*
G01X1103400Y1530000D02*
X1102000Y1543000D01*
X1099900Y1554000D01*
X1097100Y1564000D01*
X1093600Y1575000D01*
X1088000Y1590000D01*
X1116000D01*
G01X998000D02*
Y1530000D01*
G01X1014100Y1590000D02*
X981900D01*
G01X964000Y1530000D02*
Y1590000D01*
X947200D01*
X941600Y1587000D01*
X937400Y1580000D01*
X936000Y1572000D01*
X937400Y1564000D01*
X940900Y1558000D01*
X947200Y1555000D01*
X964000D01*
G01X913900Y1537000D02*
X909000Y1532000D01*
X903400Y1530000D01*
X897800Y1532000D01*
X892900Y1538000D01*
X889400Y1547000D01*
X888000Y1556000D01*
Y1567000D01*
X889400Y1576000D01*
X892900Y1584000D01*
X897100Y1588000D01*
X902000Y1590000D01*
X907600Y1588000D01*
X911800Y1584000D01*
X914600Y1578000D01*
X916000Y1570000D01*
X914600Y1563000D01*
X911100Y1556000D01*
X906900Y1552000D01*
X902000Y1551000D01*
X896400Y1553000D01*
X892200Y1558000D01*
X888000Y1567000D01*
G01X1198000Y2040000D02*
Y1980000D01*
G01X1214100Y2040000D02*
X1181900D01*
G01X1164000Y1980000D02*
Y2040000D01*
X1147200D01*
X1141600Y2037000D01*
X1137400Y2030000D01*
X1136000Y2022000D01*
X1137400Y2014000D01*
X1140900Y2008000D01*
X1147200Y2005000D01*
X1164000D01*
G01X1115300D02*
X1110400Y2012000D01*
X1106200Y2016000D01*
X1100600Y2018000D01*
X1095700Y2016000D01*
X1092200Y2012000D01*
X1089400Y2006000D01*
X1088700Y1999000D01*
X1089400Y1993000D01*
X1092200Y1987000D01*
X1096400Y1982000D01*
X1101300Y1980000D01*
X1106900Y1982000D01*
X1111800Y1988000D01*
X1114600Y1997000D01*
X1115300Y2007000D01*
X1113900Y2020000D01*
X1111800Y2027000D01*
X1108300Y2034000D01*
X1103400Y2039000D01*
X1098500Y2040000D01*
X1093600Y2038000D01*
X1090100Y2033000D01*
G01X998000Y2040000D02*
Y1980000D01*
G01X1014100Y2040000D02*
X981900D01*
G01X964000Y1980000D02*
Y2040000D01*
X947200D01*
X941600Y2037000D01*
X937400Y2030000D01*
X936000Y2022000D01*
X937400Y2014000D01*
X940900Y2008000D01*
X947200Y2005000D01*
X964000D01*
G01X902000Y1980000D02*
X897100Y1981000D01*
X891500Y1984000D01*
X888000Y1989000D01*
X886600Y1996000D01*
X888000Y2003000D01*
X892200Y2009000D01*
X898500Y2012000D01*
X905500D01*
X909700Y2014000D01*
X913200Y2019000D01*
X914600Y2026000D01*
X912500Y2033000D01*
X907600Y2038000D01*
X902000Y2040000D01*
X896400Y2038000D01*
X891500Y2033000D01*
X889400Y2026000D01*
X890800Y2019000D01*
X894300Y2014000D01*
X898500Y2012000D01*
X905500D01*
X911800Y2009000D01*
X916000Y2003000D01*
X917400Y1996000D01*
X916000Y1989000D01*
X912500Y1984000D01*
X906900Y1981000D01*
X902000Y1980000D01*
G01X652600Y2515000D02*
X656800Y2518000D01*
X661700Y2520000D01*
X667300D01*
X673600Y2517000D01*
X678500Y2512000D01*
X682000Y2506000D01*
X684800Y2496000D01*
X685500Y2487000D01*
X684100Y2478000D01*
X682000Y2472000D01*
X677800Y2466000D01*
X672900Y2462000D01*
X668000Y2460000D01*
X663100D01*
X658200Y2462000D01*
X654000Y2465000D01*
X650500Y2469000D01*
G01X633300Y2510000D02*
X629100Y2516000D01*
X624200Y2519000D01*
X618600Y2520000D01*
X611600Y2518000D01*
X606700Y2513000D01*
X605300Y2507000D01*
X606000Y2501000D01*
X608800Y2496000D01*
X622800Y2486000D01*
X629100Y2479000D01*
X633300Y2469000D01*
X634700Y2460000D01*
X605300D01*
G01X572000D02*
X567100Y2461000D01*
X561500Y2464000D01*
X558000Y2469000D01*
X556600Y2476000D01*
X558000Y2483000D01*
X562200Y2489000D01*
X568500Y2492000D01*
X575500D01*
X579700Y2494000D01*
X583200Y2499000D01*
X584600Y2506000D01*
X582500Y2513000D01*
X577600Y2518000D01*
X572000Y2520000D01*
X566400Y2518000D01*
X561500Y2513000D01*
X559400Y2506000D01*
X560800Y2499000D01*
X564300Y2494000D01*
X568500Y2492000D01*
X575500D01*
X581800Y2489000D01*
X586000Y2483000D01*
X587400Y2476000D01*
X586000Y2469000D01*
X582500Y2464000D01*
X576900Y2461000D01*
X572000Y2460000D01*
G01X802600Y2515000D02*
X806800Y2518000D01*
X811700Y2520000D01*
X817300D01*
X823600Y2517000D01*
X828500Y2512000D01*
X832000Y2506000D01*
X834800Y2496000D01*
X835500Y2487000D01*
X834100Y2478000D01*
X832000Y2472000D01*
X827800Y2466000D01*
X822900Y2462000D01*
X818000Y2460000D01*
X813100D01*
X808200Y2462000D01*
X804000Y2465000D01*
X800500Y2469000D01*
G01X783300Y2510000D02*
X779100Y2516000D01*
X774200Y2519000D01*
X768600Y2520000D01*
X761600Y2518000D01*
X756700Y2513000D01*
X755300Y2507000D01*
X756000Y2501000D01*
X758800Y2496000D01*
X772800Y2486000D01*
X779100Y2479000D01*
X783300Y2469000D01*
X784700Y2460000D01*
X755300D01*
G01X733900Y2467000D02*
X729000Y2462000D01*
X723400Y2460000D01*
X717800Y2462000D01*
X712900Y2468000D01*
X709400Y2477000D01*
X708000Y2486000D01*
Y2497000D01*
X709400Y2506000D01*
X712900Y2514000D01*
X717100Y2518000D01*
X722000Y2520000D01*
X727600Y2518000D01*
X731800Y2514000D01*
X734600Y2508000D01*
X736000Y2500000D01*
X734600Y2493000D01*
X731100Y2486000D01*
X726900Y2482000D01*
X722000Y2481000D01*
X716400Y2483000D01*
X712200Y2488000D01*
X708000Y2497000D01*
G01X962600Y2375000D02*
X966800Y2378000D01*
X971700Y2380000D01*
X977300D01*
X983600Y2377000D01*
X988500Y2372000D01*
X992000Y2366000D01*
X994800Y2356000D01*
X995500Y2347000D01*
X994100Y2338000D01*
X992000Y2332000D01*
X987800Y2326000D01*
X982900Y2322000D01*
X978000Y2320000D01*
X973100D01*
X968200Y2322000D01*
X964000Y2325000D01*
X960500Y2329000D01*
G01X945400Y2332000D02*
X941200Y2325000D01*
X935600Y2321000D01*
X929300Y2320000D01*
X923700Y2321000D01*
X918100Y2326000D01*
X914600Y2332000D01*
X913900Y2338000D01*
X915300Y2345000D01*
X920200Y2350000D01*
X925100Y2352000D01*
X931400D01*
G01X925100D02*
X920900Y2355000D01*
X917400Y2360000D01*
X916000Y2366000D01*
X917400Y2372000D01*
X920900Y2377000D01*
X927200Y2380000D01*
X933500Y2379000D01*
X939800Y2375000D01*
G01X882000Y2380000D02*
X887600Y2378000D01*
X891800Y2373000D01*
X894600Y2367000D01*
X896700Y2359000D01*
X897400Y2350000D01*
X896700Y2341000D01*
X894600Y2333000D01*
X891800Y2327000D01*
X887600Y2322000D01*
X882000Y2320000D01*
X876400Y2322000D01*
X872200Y2327000D01*
X869400Y2333000D01*
X867300Y2341000D01*
X866600Y2350000D01*
X867300Y2359000D01*
X869400Y2367000D01*
X872200Y2373000D01*
X876400Y2378000D01*
X882000Y2380000D01*
G01X1132600Y2375000D02*
X1136800Y2378000D01*
X1141700Y2380000D01*
X1147300D01*
X1153600Y2377000D01*
X1158500Y2372000D01*
X1162000Y2366000D01*
X1164800Y2356000D01*
X1165500Y2347000D01*
X1164100Y2338000D01*
X1162000Y2332000D01*
X1157800Y2326000D01*
X1152900Y2322000D01*
X1148000Y2320000D01*
X1143100D01*
X1138200Y2322000D01*
X1134000Y2325000D01*
X1130500Y2329000D01*
G01X1115400Y2332000D02*
X1111200Y2325000D01*
X1105600Y2321000D01*
X1099300Y2320000D01*
X1093700Y2321000D01*
X1088100Y2326000D01*
X1084600Y2332000D01*
X1083900Y2338000D01*
X1085300Y2345000D01*
X1090200Y2350000D01*
X1095100Y2352000D01*
X1101400D01*
G01X1095100D02*
X1090900Y2355000D01*
X1087400Y2360000D01*
X1086000Y2366000D01*
X1087400Y2372000D01*
X1090900Y2377000D01*
X1097200Y2380000D01*
X1103500Y2379000D01*
X1109800Y2375000D01*
G01X1052000Y2320000D02*
Y2380000D01*
X1060400Y2368000D01*
G01Y2320000D02*
X1043600D01*
G01X1598000Y1790000D02*
Y1730000D01*
G01X1614100Y1790000D02*
X1581900D01*
G01X1564000Y1730000D02*
Y1790000D01*
X1547200D01*
X1541600Y1787000D01*
X1537400Y1780000D01*
X1536000Y1772000D01*
X1537400Y1764000D01*
X1540900Y1758000D01*
X1547200Y1755000D01*
X1564000D01*
G01X1517400Y1742000D02*
X1513200Y1735000D01*
X1507600Y1731000D01*
X1501300Y1730000D01*
X1495700Y1731000D01*
X1490100Y1736000D01*
X1486600Y1742000D01*
X1485900Y1748000D01*
X1487300Y1755000D01*
X1492200Y1760000D01*
X1497100Y1762000D01*
X1503400D01*
G01X1497100D02*
X1492900Y1765000D01*
X1489400Y1770000D01*
X1488000Y1776000D01*
X1489400Y1782000D01*
X1492900Y1787000D01*
X1499200Y1790000D01*
X1505500Y1789000D01*
X1511800Y1785000D01*
G01X1398000Y1790000D02*
Y1730000D01*
G01X1414100Y1790000D02*
X1381900D01*
G01X1364000Y1730000D02*
Y1790000D01*
X1347200D01*
X1341600Y1787000D01*
X1337400Y1780000D01*
X1336000Y1772000D01*
X1337400Y1764000D01*
X1340900Y1758000D01*
X1347200Y1755000D01*
X1364000D01*
G01X1293600Y1730000D02*
Y1790000D01*
X1319500Y1747000D01*
X1284500D01*
G01X1337400Y1515000D02*
X1333200Y1512000D01*
X1328300Y1510000D01*
X1322700D01*
X1316400Y1513000D01*
X1311500Y1518000D01*
X1308000Y1524000D01*
X1305200Y1534000D01*
X1304500Y1543000D01*
X1305900Y1552000D01*
X1308000Y1558000D01*
X1312200Y1564000D01*
X1317100Y1568000D01*
X1322000Y1570000D01*
X1326900D01*
X1331800Y1568000D01*
X1336000Y1565000D01*
X1339500Y1561000D01*
G01X1356700Y1520000D02*
X1360900Y1514000D01*
X1365800Y1511000D01*
X1371400Y1510000D01*
X1378400Y1512000D01*
X1383300Y1517000D01*
X1384700Y1523000D01*
X1384000Y1529000D01*
X1381200Y1534000D01*
X1367200Y1544000D01*
X1360900Y1551000D01*
X1356700Y1561000D01*
X1355300Y1570000D01*
X1384700D01*
G01X1404700Y1520000D02*
X1408900Y1514000D01*
X1413800Y1511000D01*
X1419400Y1510000D01*
X1426400Y1512000D01*
X1431300Y1517000D01*
X1432700Y1523000D01*
X1432000Y1529000D01*
X1429200Y1534000D01*
X1415200Y1544000D01*
X1408900Y1551000D01*
X1404700Y1561000D01*
X1403300Y1570000D01*
X1432700D01*
G01X1337400Y1365000D02*
X1333200Y1362000D01*
X1328300Y1360000D01*
X1322700D01*
X1316400Y1363000D01*
X1311500Y1368000D01*
X1308000Y1374000D01*
X1305200Y1384000D01*
X1304500Y1393000D01*
X1305900Y1402000D01*
X1308000Y1408000D01*
X1312200Y1414000D01*
X1317100Y1418000D01*
X1322000Y1420000D01*
X1326900D01*
X1331800Y1418000D01*
X1336000Y1415000D01*
X1339500Y1411000D01*
G01X1356700Y1370000D02*
X1360900Y1364000D01*
X1365800Y1361000D01*
X1371400Y1360000D01*
X1378400Y1362000D01*
X1383300Y1367000D01*
X1384700Y1373000D01*
X1384000Y1379000D01*
X1381200Y1384000D01*
X1367200Y1394000D01*
X1360900Y1401000D01*
X1356700Y1411000D01*
X1355300Y1420000D01*
X1384700D01*
G01X1402600Y1408000D02*
X1406800Y1415000D01*
X1412400Y1419000D01*
X1418700Y1420000D01*
X1424300Y1419000D01*
X1429900Y1414000D01*
X1433400Y1408000D01*
X1434100Y1402000D01*
X1432700Y1395000D01*
X1427800Y1390000D01*
X1422900Y1388000D01*
X1416600D01*
G01X1422900D02*
X1427100Y1385000D01*
X1430600Y1380000D01*
X1432000Y1374000D01*
X1430600Y1368000D01*
X1427100Y1363000D01*
X1420800Y1360000D01*
X1414500Y1361000D01*
X1408200Y1365000D01*
G01X1758000Y2130000D02*
Y2070000D01*
G01X1774100Y2130000D02*
X1741900D01*
G01X1724000Y2070000D02*
Y2130000D01*
X1707200D01*
X1701600Y2127000D01*
X1697400Y2120000D01*
X1696000Y2112000D01*
X1697400Y2104000D01*
X1700900Y2098000D01*
X1707200Y2095000D01*
X1724000D01*
G01X1662000Y2070000D02*
Y2130000D01*
X1670400Y2118000D01*
G01Y2070000D02*
X1653600D01*
G01X1278000Y2220000D02*
Y2160000D01*
G01X1294100Y2220000D02*
X1261900D01*
G01X1244000Y2160000D02*
Y2220000D01*
X1227200D01*
X1221600Y2217000D01*
X1217400Y2210000D01*
X1216000Y2202000D01*
X1217400Y2194000D01*
X1220900Y2188000D01*
X1227200Y2185000D01*
X1244000D01*
G01X1195300Y2210000D02*
X1191100Y2216000D01*
X1186200Y2219000D01*
X1180600Y2220000D01*
X1173600Y2218000D01*
X1168700Y2213000D01*
X1167300Y2207000D01*
X1168000Y2201000D01*
X1170800Y2196000D01*
X1184800Y2186000D01*
X1191100Y2179000D01*
X1195300Y2169000D01*
X1196700Y2160000D01*
X1167300D01*
G01X1572600Y2465000D02*
X1576800Y2468000D01*
X1581700Y2470000D01*
X1587300D01*
X1593600Y2467000D01*
X1598500Y2462000D01*
X1602000Y2456000D01*
X1604800Y2446000D01*
X1605500Y2437000D01*
X1604100Y2428000D01*
X1602000Y2422000D01*
X1597800Y2416000D01*
X1592900Y2412000D01*
X1588000Y2410000D01*
X1583100D01*
X1578200Y2412000D01*
X1574000Y2415000D01*
X1570500Y2419000D01*
G01X1553300Y2460000D02*
X1549100Y2466000D01*
X1544200Y2469000D01*
X1538600Y2470000D01*
X1531600Y2468000D01*
X1526700Y2463000D01*
X1525300Y2457000D01*
X1526000Y2451000D01*
X1528800Y2446000D01*
X1542800Y2436000D01*
X1549100Y2429000D01*
X1553300Y2419000D01*
X1554700Y2410000D01*
X1525300D01*
G01X1505300Y2435000D02*
X1500400Y2442000D01*
X1496200Y2446000D01*
X1490600Y2448000D01*
X1485700Y2446000D01*
X1482200Y2442000D01*
X1479400Y2436000D01*
X1478700Y2429000D01*
X1479400Y2423000D01*
X1482200Y2417000D01*
X1486400Y2412000D01*
X1491300Y2410000D01*
X1496900Y2412000D01*
X1501800Y2418000D01*
X1504600Y2427000D01*
X1505300Y2437000D01*
X1503900Y2450000D01*
X1501800Y2457000D01*
X1498300Y2464000D01*
X1493400Y2469000D01*
X1488500Y2470000D01*
X1483600Y2468000D01*
X1480100Y2463000D01*
G01X1572600Y2315000D02*
X1576800Y2318000D01*
X1581700Y2320000D01*
X1587300D01*
X1593600Y2317000D01*
X1598500Y2312000D01*
X1602000Y2306000D01*
X1604800Y2296000D01*
X1605500Y2287000D01*
X1604100Y2278000D01*
X1602000Y2272000D01*
X1597800Y2266000D01*
X1592900Y2262000D01*
X1588000Y2260000D01*
X1583100D01*
X1578200Y2262000D01*
X1574000Y2265000D01*
X1570500Y2269000D01*
G01X1553300Y2310000D02*
X1549100Y2316000D01*
X1544200Y2319000D01*
X1538600Y2320000D01*
X1531600Y2318000D01*
X1526700Y2313000D01*
X1525300Y2307000D01*
X1526000Y2301000D01*
X1528800Y2296000D01*
X1542800Y2286000D01*
X1549100Y2279000D01*
X1553300Y2269000D01*
X1554700Y2260000D01*
X1525300D01*
G01X1493400D02*
X1492000Y2273000D01*
X1489900Y2284000D01*
X1487100Y2294000D01*
X1483600Y2305000D01*
X1478000Y2320000D01*
X1506000D01*
G01X2238600Y785000D02*
X2242800Y788000D01*
X2247700Y790000D01*
X2253300D01*
X2259600Y787000D01*
X2264500Y782000D01*
X2268000Y776000D01*
X2270800Y766000D01*
X2271500Y757000D01*
X2270100Y748000D01*
X2268000Y742000D01*
X2263800Y736000D01*
X2258900Y732000D01*
X2254000Y730000D01*
X2249100D01*
X2244200Y732000D01*
X2240000Y735000D01*
X2236500Y739000D01*
G01X2221400Y742000D02*
X2217200Y735000D01*
X2211600Y731000D01*
X2205300Y730000D01*
X2199700Y731000D01*
X2194100Y736000D01*
X2190600Y742000D01*
X2189900Y748000D01*
X2191300Y755000D01*
X2196200Y760000D01*
X2201100Y762000D01*
X2207400D01*
G01X2201100D02*
X2196900Y765000D01*
X2193400Y770000D01*
X2192000Y776000D01*
X2193400Y782000D01*
X2196900Y787000D01*
X2203200Y790000D01*
X2209500Y789000D01*
X2215800Y785000D01*
G01X2572000Y740000D02*
Y800000D01*
X2554500D01*
X2548900Y797000D01*
X2545400Y793000D01*
X2544000Y785000D01*
X2545400Y777000D01*
X2549600Y772000D01*
X2554500Y769000D01*
X2572000D01*
G01X2554500D02*
X2544000Y740000D01*
G01X2510000D02*
Y800000D01*
X2518400Y788000D01*
G01Y740000D02*
X2501600D01*
G01X2453600D02*
Y800000D01*
X2479500Y757000D01*
X2444500D01*
G01X2062600Y2415000D02*
X2066800Y2418000D01*
X2071700Y2420000D01*
X2077300D01*
X2083600Y2417000D01*
X2088500Y2412000D01*
X2092000Y2406000D01*
X2094800Y2396000D01*
X2095500Y2387000D01*
X2094100Y2378000D01*
X2092000Y2372000D01*
X2087800Y2366000D01*
X2082900Y2362000D01*
X2078000Y2360000D01*
X2073100D01*
X2068200Y2362000D01*
X2064000Y2365000D01*
X2060500Y2369000D01*
G01X2043300Y2410000D02*
X2039100Y2416000D01*
X2034200Y2419000D01*
X2028600Y2420000D01*
X2021600Y2418000D01*
X2016700Y2413000D01*
X2015300Y2407000D01*
X2016000Y2401000D01*
X2018800Y2396000D01*
X2032800Y2386000D01*
X2039100Y2379000D01*
X2043300Y2369000D01*
X2044700Y2360000D01*
X2015300D01*
G01X1973600D02*
Y2420000D01*
X1999500Y2377000D01*
X1964500D01*
G01X2212600Y2415000D02*
X2216800Y2418000D01*
X2221700Y2420000D01*
X2227300D01*
X2233600Y2417000D01*
X2238500Y2412000D01*
X2242000Y2406000D01*
X2244800Y2396000D01*
X2245500Y2387000D01*
X2244100Y2378000D01*
X2242000Y2372000D01*
X2237800Y2366000D01*
X2232900Y2362000D01*
X2228000Y2360000D01*
X2223100D01*
X2218200Y2362000D01*
X2214000Y2365000D01*
X2210500Y2369000D01*
G01X2193300Y2410000D02*
X2189100Y2416000D01*
X2184200Y2419000D01*
X2178600Y2420000D01*
X2171600Y2418000D01*
X2166700Y2413000D01*
X2165300Y2407000D01*
X2166000Y2401000D01*
X2168800Y2396000D01*
X2182800Y2386000D01*
X2189100Y2379000D01*
X2193300Y2369000D01*
X2194700Y2360000D01*
X2165300D01*
G01X2147400Y2369000D02*
X2143200Y2364000D01*
X2138300Y2361000D01*
X2132000Y2360000D01*
X2125700Y2362000D01*
X2120800Y2366000D01*
X2117300Y2373000D01*
X2116600Y2381000D01*
X2118000Y2389000D01*
X2121500Y2394000D01*
X2126400Y2398000D01*
X2131300Y2399000D01*
X2136200Y2398000D01*
X2142500Y2394000D01*
X2140400Y2420000D01*
X2121500D01*
G01X2798600Y785000D02*
X2802800Y788000D01*
X2807700Y790000D01*
X2813300D01*
X2819600Y787000D01*
X2824500Y782000D01*
X2828000Y776000D01*
X2830800Y766000D01*
X2831500Y757000D01*
X2830100Y748000D01*
X2828000Y742000D01*
X2823800Y736000D01*
X2818900Y732000D01*
X2814000Y730000D01*
X2809100D01*
X2804200Y732000D01*
X2800000Y735000D01*
X2796500Y739000D01*
G01X2779300Y780000D02*
X2775100Y786000D01*
X2770200Y789000D01*
X2764600Y790000D01*
X2757600Y788000D01*
X2752700Y783000D01*
X2751300Y777000D01*
X2752000Y771000D01*
X2754800Y766000D01*
X2768800Y756000D01*
X2775100Y749000D01*
X2779300Y739000D01*
X2780700Y730000D01*
X2751300D01*
G01X3368600Y1375000D02*
X3372800Y1378000D01*
X3377700Y1380000D01*
X3383300D01*
X3389600Y1377000D01*
X3394500Y1372000D01*
X3398000Y1366000D01*
X3400800Y1356000D01*
X3401500Y1347000D01*
X3400100Y1338000D01*
X3398000Y1332000D01*
X3393800Y1326000D01*
X3388900Y1322000D01*
X3384000Y1320000D01*
X3379100D01*
X3374200Y1322000D01*
X3370000Y1325000D01*
X3366500Y1329000D01*
G01X3327600Y1320000D02*
Y1380000D01*
X3353500Y1337000D01*
X3318500D01*
G01X3138600Y1575000D02*
X3142800Y1578000D01*
X3147700Y1580000D01*
X3153300D01*
X3159600Y1577000D01*
X3164500Y1572000D01*
X3168000Y1566000D01*
X3170800Y1556000D01*
X3171500Y1547000D01*
X3170100Y1538000D01*
X3168000Y1532000D01*
X3163800Y1526000D01*
X3158900Y1522000D01*
X3154000Y1520000D01*
X3149100D01*
X3144200Y1522000D01*
X3140000Y1525000D01*
X3136500Y1529000D01*
G01X3121400D02*
X3117200Y1524000D01*
X3112300Y1521000D01*
X3106000Y1520000D01*
X3099700Y1522000D01*
X3094800Y1526000D01*
X3091300Y1533000D01*
X3090600Y1541000D01*
X3092000Y1549000D01*
X3095500Y1554000D01*
X3100400Y1558000D01*
X3105300Y1559000D01*
X3110200Y1558000D01*
X3116500Y1554000D01*
X3114400Y1580000D01*
X3095500D01*
G01X3618600Y1825000D02*
X3622800Y1828000D01*
X3627700Y1830000D01*
X3633300D01*
X3639600Y1827000D01*
X3644500Y1822000D01*
X3648000Y1816000D01*
X3650800Y1806000D01*
X3651500Y1797000D01*
X3650100Y1788000D01*
X3648000Y1782000D01*
X3643800Y1776000D01*
X3638900Y1772000D01*
X3634000Y1770000D01*
X3629100D01*
X3624200Y1772000D01*
X3620000Y1775000D01*
X3616500Y1779000D01*
G01X3599300Y1795000D02*
X3594400Y1802000D01*
X3590200Y1806000D01*
X3584600Y1808000D01*
X3579700Y1806000D01*
X3576200Y1802000D01*
X3573400Y1796000D01*
X3572700Y1789000D01*
X3573400Y1783000D01*
X3576200Y1777000D01*
X3580400Y1772000D01*
X3585300Y1770000D01*
X3590900Y1772000D01*
X3595800Y1778000D01*
X3598600Y1787000D01*
X3599300Y1797000D01*
X3597900Y1810000D01*
X3595800Y1817000D01*
X3592300Y1824000D01*
X3587400Y1829000D01*
X3582500Y1830000D01*
X3577600Y1828000D01*
X3574100Y1823000D01*
G01X3528600Y1565000D02*
X3532800Y1568000D01*
X3537700Y1570000D01*
X3543300D01*
X3549600Y1567000D01*
X3554500Y1562000D01*
X3558000Y1556000D01*
X3560800Y1546000D01*
X3561500Y1537000D01*
X3560100Y1528000D01*
X3558000Y1522000D01*
X3553800Y1516000D01*
X3548900Y1512000D01*
X3544000Y1510000D01*
X3539100D01*
X3534200Y1512000D01*
X3530000Y1515000D01*
X3526500Y1519000D01*
G01X3497400Y1510000D02*
X3496000Y1523000D01*
X3493900Y1534000D01*
X3491100Y1544000D01*
X3487600Y1555000D01*
X3482000Y1570000D01*
X3510000D01*
G01X4030000Y1640000D02*
Y1680000D01*
G01X4050000Y1660000D02*
X4010000D01*
G01X5682600Y2535000D02*
X5686800Y2538000D01*
X5691700Y2540000D01*
X5697300D01*
X5703600Y2537000D01*
X5708500Y2532000D01*
X5712000Y2526000D01*
X5714800Y2516000D01*
X5715500Y2507000D01*
X5714100Y2498000D01*
X5712000Y2492000D01*
X5707800Y2486000D01*
X5702900Y2482000D01*
X5698000Y2480000D01*
X5693100D01*
X5688200Y2482000D01*
X5684000Y2485000D01*
X5680500Y2489000D01*
G01X5663300Y2530000D02*
X5659100Y2536000D01*
X5654200Y2539000D01*
X5648600Y2540000D01*
X5641600Y2538000D01*
X5636700Y2533000D01*
X5635300Y2527000D01*
X5636000Y2521000D01*
X5638800Y2516000D01*
X5652800Y2506000D01*
X5659100Y2499000D01*
X5663300Y2489000D01*
X5664700Y2480000D01*
X5635300D01*
G01X5602000Y2540000D02*
X5607600Y2538000D01*
X5611800Y2533000D01*
X5614600Y2527000D01*
X5616700Y2519000D01*
X5617400Y2510000D01*
X5616700Y2501000D01*
X5614600Y2493000D01*
X5611800Y2487000D01*
X5607600Y2482000D01*
X5602000Y2480000D01*
X5596400Y2482000D01*
X5592200Y2487000D01*
X5589400Y2493000D01*
X5587300Y2501000D01*
X5586600Y2510000D01*
X5587300Y2519000D01*
X5589400Y2527000D01*
X5592200Y2533000D01*
X5596400Y2538000D01*
X5602000Y2540000D01*
G01X5738000Y2320000D02*
Y2260000D01*
X5710000D01*
G01X5667600D02*
Y2320000D01*
X5693500Y2277000D01*
X5658500D01*
G01X6408600Y1975000D02*
X6412800Y1978000D01*
X6417700Y1980000D01*
X6423300D01*
X6429600Y1977000D01*
X6434500Y1972000D01*
X6438000Y1966000D01*
X6440800Y1956000D01*
X6441500Y1947000D01*
X6440100Y1938000D01*
X6438000Y1932000D01*
X6433800Y1926000D01*
X6428900Y1922000D01*
X6424000Y1920000D01*
X6419100D01*
X6414200Y1922000D01*
X6410000Y1925000D01*
X6406500Y1929000D01*
G01X6376000Y1920000D02*
X6371100Y1921000D01*
X6365500Y1924000D01*
X6362000Y1929000D01*
X6360600Y1936000D01*
X6362000Y1943000D01*
X6366200Y1949000D01*
X6372500Y1952000D01*
X6379500D01*
X6383700Y1954000D01*
X6387200Y1959000D01*
X6388600Y1966000D01*
X6386500Y1973000D01*
X6381600Y1978000D01*
X6376000Y1980000D01*
X6370400Y1978000D01*
X6365500Y1973000D01*
X6363400Y1966000D01*
X6364800Y1959000D01*
X6368300Y1954000D01*
X6372500Y1952000D01*
X6379500D01*
X6385800Y1949000D01*
X6390000Y1943000D01*
X6391400Y1936000D01*
X6390000Y1929000D01*
X6386500Y1924000D01*
X6380900Y1921000D01*
X6376000Y1920000D01*
G01X6032600Y2535000D02*
X6036800Y2538000D01*
X6041700Y2540000D01*
X6047300D01*
X6053600Y2537000D01*
X6058500Y2532000D01*
X6062000Y2526000D01*
X6064800Y2516000D01*
X6065500Y2507000D01*
X6064100Y2498000D01*
X6062000Y2492000D01*
X6057800Y2486000D01*
X6052900Y2482000D01*
X6048000Y2480000D01*
X6043100D01*
X6038200Y2482000D01*
X6034000Y2485000D01*
X6030500Y2489000D01*
G01X6013300Y2530000D02*
X6009100Y2536000D01*
X6004200Y2539000D01*
X5998600Y2540000D01*
X5991600Y2538000D01*
X5986700Y2533000D01*
X5985300Y2527000D01*
X5986000Y2521000D01*
X5988800Y2516000D01*
X6002800Y2506000D01*
X6009100Y2499000D01*
X6013300Y2489000D01*
X6014700Y2480000D01*
X5985300D01*
G01X5952000D02*
Y2540000D01*
X5960400Y2528000D01*
G01Y2480000D02*
X5943600D01*
G01X6438000Y2540000D02*
Y2480000D01*
X6410000D01*
G01X6376000D02*
Y2540000D01*
X6384400Y2528000D01*
G01Y2480000D02*
X6367600D01*
G01X6088000Y2320000D02*
Y2260000D01*
X6060000D01*
G01X6041400Y2269000D02*
X6037200Y2264000D01*
X6032300Y2261000D01*
X6026000Y2260000D01*
X6019700Y2262000D01*
X6014800Y2266000D01*
X6011300Y2273000D01*
X6010600Y2281000D01*
X6012000Y2289000D01*
X6015500Y2294000D01*
X6020400Y2298000D01*
X6025300Y2299000D01*
X6030200Y2298000D01*
X6036500Y2294000D01*
X6034400Y2320000D01*
X6015500D01*
G01X6758600Y1975000D02*
X6762800Y1978000D01*
X6767700Y1980000D01*
X6773300D01*
X6779600Y1977000D01*
X6784500Y1972000D01*
X6788000Y1966000D01*
X6790800Y1956000D01*
X6791500Y1947000D01*
X6790100Y1938000D01*
X6788000Y1932000D01*
X6783800Y1926000D01*
X6778900Y1922000D01*
X6774000Y1920000D01*
X6769100D01*
X6764200Y1922000D01*
X6760000Y1925000D01*
X6756500Y1929000D01*
G01X6737900Y1927000D02*
X6733000Y1922000D01*
X6727400Y1920000D01*
X6721800Y1922000D01*
X6716900Y1928000D01*
X6713400Y1937000D01*
X6712000Y1946000D01*
Y1957000D01*
X6713400Y1966000D01*
X6716900Y1974000D01*
X6721100Y1978000D01*
X6726000Y1980000D01*
X6731600Y1978000D01*
X6735800Y1974000D01*
X6738600Y1968000D01*
X6740000Y1960000D01*
X6738600Y1953000D01*
X6735100Y1946000D01*
X6730900Y1942000D01*
X6726000Y1941000D01*
X6720400Y1943000D01*
X6716200Y1948000D01*
X6712000Y1957000D01*
G01X7132600Y1975000D02*
X7136800Y1978000D01*
X7141700Y1980000D01*
X7147300D01*
X7153600Y1977000D01*
X7158500Y1972000D01*
X7162000Y1966000D01*
X7164800Y1956000D01*
X7165500Y1947000D01*
X7164100Y1938000D01*
X7162000Y1932000D01*
X7157800Y1926000D01*
X7152900Y1922000D01*
X7148000Y1920000D01*
X7143100D01*
X7138200Y1922000D01*
X7134000Y1925000D01*
X7130500Y1929000D01*
G01X7100000Y1920000D02*
Y1980000D01*
X7108400Y1968000D01*
G01Y1920000D02*
X7091600D01*
G01X7052000Y1980000D02*
X7057600Y1978000D01*
X7061800Y1973000D01*
X7064600Y1967000D01*
X7066700Y1959000D01*
X7067400Y1950000D01*
X7066700Y1941000D01*
X7064600Y1933000D01*
X7061800Y1927000D01*
X7057600Y1922000D01*
X7052000Y1920000D01*
X7046400Y1922000D01*
X7042200Y1927000D01*
X7039400Y1933000D01*
X7037300Y1941000D01*
X7036600Y1950000D01*
X7037300Y1959000D01*
X7039400Y1967000D01*
X7042200Y1973000D01*
X7046400Y1978000D01*
X7052000Y1980000D01*
G01X6788000Y2540000D02*
Y2480000D01*
X6760000D01*
G01X6739300Y2530000D02*
X6735100Y2536000D01*
X6730200Y2539000D01*
X6724600Y2540000D01*
X6717600Y2538000D01*
X6712700Y2533000D01*
X6711300Y2527000D01*
X6712000Y2521000D01*
X6714800Y2516000D01*
X6728800Y2506000D01*
X6735100Y2499000D01*
X6739300Y2489000D01*
X6740700Y2480000D01*
X6711300D01*
G01X7138000Y2540000D02*
Y2480000D01*
X7110000D01*
G01X7091400Y2492000D02*
X7087200Y2485000D01*
X7081600Y2481000D01*
X7075300Y2480000D01*
X7069700Y2481000D01*
X7064100Y2486000D01*
X7060600Y2492000D01*
X7059900Y2498000D01*
X7061300Y2505000D01*
X7066200Y2510000D01*
X7071100Y2512000D01*
X7077400D01*
G01X7071100D02*
X7066900Y2515000D01*
X7063400Y2520000D01*
X7062000Y2526000D01*
X7063400Y2532000D01*
X7066900Y2537000D01*
X7073200Y2540000D01*
X7079500Y2539000D01*
X7085800Y2535000D01*
G54D11*
G01X1150000Y1975000D02*
G03X1075000Y1900000I0J-75000D01*
G03X1150000Y1975000I75000J0D01*
G01Y1775000D02*
G03X1075000Y1700000I0J-75000D01*
G03X1150000Y1775000I75000J0D01*
G01X950000Y1975000D02*
G03X875000Y1900000I0J-75000D01*
G03X950000Y1975000I75000J0D01*
G01Y1775000D02*
G03X875000Y1700000I0J-75000D01*
G03X950000Y1775000I75000J0D01*
G01X1550000Y1975000D02*
G03X1475000Y1900000I0J-75000D01*
G03X1550000Y1975000I75000J0D01*
G01X1350000D02*
G03X1275000Y1900000I0J-75000D01*
G03X1350000Y1975000I75000J0D01*
G01X1550000Y2175000D02*
G03X1475000Y2100000I0J-75000D01*
G03X1550000Y2175000I75000J0D01*
G01X1350000D02*
G03X1275000Y2100000I0J-75000D01*
G03X1350000Y2175000I75000J0D01*
M02*
