  0
SECTION
  2
HEADER
  9
$ACADVER
  1
AC1004
  9
$INSBASE
 10
0.0
 20
0.0
  9
$EXTMIN
 10
0.0
 20
0.0
  9
$EXTMAX
 10
32.767
 20
32.767
  9
$LIMMIN
 10
0.0
 20
0.0
  9
$LIMMAX
 10
32.767
 20
32.767
  9
$SNAPMODE
 70
     1
  9
$SNAPUNIT
 10
0.001
 20
0.001
  9
$SNAPBASE
 10
0.0
 20
0.0
  9
$SNAPANG
 50
0.0
  9
$SNAPSTYLE
 70
     0
  9
$SNAPISOPAIR
 70
     1
  9
$GRIDMODE
 70
     0
  9
$GRIDUNIT
 10
0.0
 20
0.0
  9
$ORTHOMODE
 70
     0
  9
$REGENMODE
 70
     1
  9
$FILLMODE
 70
     1
  9
$QTEXTMODE
 70
     0
  9
$DRAGMODE
 70
     2
  9
$LTSCALE
 40
25.0
  9
$OSMODE
 70
     0
  9
$ATTMODE
 70
     1
  9
$TEXTSIZE
 40
3.0
  9
$TRACEWID
 40
10.0
  9
$TEXTSTYLE
  7
STANDARD
  9
$CLAYER
  8
0
  9
$CELTYPE
  6
BYLAYER
  9
$CECOLOR
 62
     1
  9
$DIMSCALE
 40
1.0
  9
$DIMASZ
 40
3.0
  9
$DIMEXO
 40
2.5
  9
$DIMDLI
 40
10.0
  9
$DIMRND
 40
0.0
  9
$DIMDLE
 40
1.25
  9
$DIMEXE
 40
2.5
  9
$DIMTP
 40
0.0
  9
$DIMTM
 40
0.0
  9
$DIMTXT
 40
3.0
  9
$DIMCEN
 40
-3.0
  9
$DIMTSZ
 40
0.0
  9
$DIMTOL
 70
     0
  9
$DIMLIM
 70
     0
  9
$DIMTIH
 70
     0
  9
$DIMTOH
 70
     0
  9
$DIMSE1
 70
     0
  9
$DIMSE2
 70
     0
  9
$DIMTAD
 70
     1
  9
$DIMZIN
 70
     1
  9
$DIMBLK
  1

  9
$DIMASO
 70
     1
  9
$DIMSHO
 70
     0
  9
$DIMPOST
  1

  9
$DIMAPOST
  1

  9
$DIMALT
 70
     0
  9
$DIMALTD
 70
     2
  9
$DIMALTF
 40
0.03937
  9
$DIMLFAC
 40
1.0
  9
$LUNITS
 70
     2
  9
$LUPREC
 70
     3
  9
$AXISMODE
 70
     0
  9
$AXISUNIT
 10
0.0
 20
0.0
  9
$SKETCHINC
 40
1.0
  9
$FILLETRAD
 40
0.0
  9
$AUNITS
 70
     0
  9
$AUPREC
 70
     4
  9
$MENU
  1
acad
  9
$ELEVATION
 40
0.0
  9
$THICKNESS
 40
0.0
  9
$VIEWDIR
 10
0.0
 20
0.0
 30
1.0
  9
$LIMCHECK
 70
     0
  9
$BLIPMODE
 70
     1
  9
$CHAMFERA
 40
0.0
  9
$CHAMFERB
 40
0.0
  9
$FASTZOOM
 70
     1
  9
$SKPOLY
 70
     1
  9
$TDCREATE
 40
2447273.4679753473
  9
$TDUPDATE
 40
2447273.4679753473
  9
$TDINDWG
 40
0.0000000000
  9
$TDUSRTIMER
 40
0.0000000000
  9
$USRTIMER
 70
     1
  9
$ANGBASE
 50
0.0
  9
$ANGDIR
 70
     0
  9
$PDMODE
 70
     0
  9
$PDSIZE
 40
0.0
  9
$PLINEWID
 40
0.0
  9
$COORDS
 70
     2
  9
$SPLFRAME
 70
     0
  9
$SPLINESEGS
 70
     8
  9
$ATTDIA
 70
     0
  9
$ATTREQ
 70
     1
  9
$USERI1
 70
     0
  9
$USERI2
 70
     1
  9
$USERI3
 70
     0
  9
$USERI4
 70
     0
  9
$USERI5
 70
     0
  9
$USERR1
 40
900.0
  9
$USERR2
 40
900.0
  9
$USERR3
 40
50.0
  9
$USERR4
 40
0.0
  9
$USERR5
 40
3600.0
  0
ENDSEC
  0
SECTION
  2
TABLES
  0
TABLE
  2
LTYPE
 70
     1
  0
LTYPE
  2
CONTINUOUS
 70
    64
  3
Solid line
 72
    65
 73
     0
 40
0.0
  0
ENDTAB
  0
TABLE
  2
LAYER
 70
     1
  0
LAYER
  2
0
 70
     0
 62
     7
  6
CONTINUOUS
  0
LAYER
  2
0
 70
0
 62
7
  6
CONTINUOUS
  0
LAYER
  2
BOARD-OUTLINE
 70
0
 62
1
  6
CONTINUOUS
  0
LAYER
  2
COMPONENT-NAME-MIN
 70
0
 62
1
  6
CONTINUOUS
  0
LAYER
  2
COMP-MIN-OUTLINE-WIDTH-1
 70
0
 62
1
  6
CONTINUOUS
  0
LAYER
  2
COMP-MIN-OUTLINE-WIDTH-2
 70
0
 62
1
  6
CONTINUOUS
  0
LAYER
  2
COMP-MIN-TEXT-WIDTH-0
 70
0
 62
1
  6
CONTINUOUS
  0
LAYER
  2
COMP-MIN-TEXT-WIDTH-1
 70
0
 62
1
  6
CONTINUOUS
  0
LAYER
  2
TEXT-LAYER-1
 70
0
 62
1
  6
CONTINUOUS
  0
ENDTAB
  0
TABLE
  2
STYLE
 70
     1
  0
STYLE
  2
STANDARD
 70
     0
 40
0.0
 41
1.0
 50
0.0
 71
     0
 42
3.0
  3
simplex
  4

  0
ENDTAB
  0
TABLE
  2
VIEW
 70
     0
  0
ENDTAB
  0
ENDSEC
  0
SECTION
  2
BLOCKS
  0
BLOCK
  8
0
  2
DISC
  70
0
  10
0.0
  20
0.0
  0
POLYLINE
  8
0
  66
1
  70
1
  40
0.5
  41
0.5
  0
VERTEX
  8
0
  10
0.0
  20
0.25
  42
1.0
  0
VERTEX
  8
0
  10
0.0
  20
-0.25
  42
1.0
  0
SEQEND
  8
0
  0
ENDBLK
  8
0
  0
BLOCK
  8
0
  2
SQUARE
  70
0
  10
0.0
  20
0.0
  0
SOLID
  8
0
  10
-0.5
  20
-0.5
  11
 0.5
  21
-0.5
  13
 0.5
  23
 0.5
  12
-0.5
  22
 0.5
  0
ENDBLK
  8
0
  0
BLOCK
  8
0
  2
DIAMOND
  70
0
  10
0.0
  20
0.0
  0
INSERT
  8
0
  2
SQUARE
  10
0.0
  20
0.0
  50
45.0
  0
ENDBLK
  8
0
  0
BLOCK
  8
0
  2
OCTAGON
  70
0
  10
0.0
  20
0.0
  0
SOLID
  8
0
  10
-0.5
  20
-0.2
  11
-0.2
  21
-0.5
  13
 0.2
  23
-0.5
  12
 0.5
  22
-0.2
  0
SOLID
  8
0
  10
-0.5
  20
 0.2
  11
 0.5
  21
 0.2
  13
 0.5
  23
-0.2
  12
-0.5
  22
-0.2
  0
SOLID
  8
0
  10
-0.5
  20
 0.2
  11
-0.2
  21
 0.5
  13
 0.2
  23
 0.5
  12
 0.5
  22
 0.2
  0
ENDBLK
  8
0
  0
BLOCK
  8
0
  2
PN5
 70
0
 10
0.000
 20
0.000
  0
ENDBLK
  8
0
  0
BLOCK
  8
0
  2
PI5
 70
0
 10
0.000
 20
0.000
  0
ENDBLK
  8
0
  0
BLOCK
  8
0
  2
PX5
 70
0
 10
0.000
 20
0.000
  0
ENDBLK
  8
0
  0
BLOCK
  8
0
  2
PD5
 70
0
 10
0.000
 20
0.000
  0
ENDBLK
  8
0
  0
BLOCK
  8
0
  2
PN6
 70
0
 10
0.000
 20
0.000
  0
ENDBLK
  8
0
  0
BLOCK
  8
0
  2
PI6
 70
0
 10
0.000
 20
0.000
  0
ENDBLK
  8
0
  0
BLOCK
  8
0
  2
PX6
 70
0
 10
0.000
 20
0.000
  0
ENDBLK
  8
0
  0
BLOCK
  8
0
  2
PD6
 70
0
 10
0.000
 20
0.000
  0
ENDBLK
  8
0
  0
BLOCK
  8
0
  2
PN7
 70
0
 10
0.000
 20
0.000
  0
ENDBLK
  8
0
  0
BLOCK
  8
0
  2
PI7
 70
0
 10
0.000
 20
0.000
  0
ENDBLK
  8
0
  0
BLOCK
  8
0
  2
PX7
 70
0
 10
0.000
 20
0.000
  0
ENDBLK
  8
0
  0
BLOCK
  8
0
  2
PD7
 70
0
 10
0.000
 20
0.000
  0
ENDBLK
  8
0
  0
BLOCK
  8
0
  2
PN10
 70
0
 10
0.000
 20
0.000
  0
ENDBLK
  8
0
  0
BLOCK
  8
0
  2
PI10
 70
0
 10
0.000
 20
0.000
  0
ENDBLK
  8
0
  0
BLOCK
  8
0
  2
PX10
 70
0
 10
0.000
 20
0.000
  0
ENDBLK
  8
0
  0
BLOCK
  8
0
  2
PD10
 70
0
 10
0.000
 20
0.000
  0
ENDBLK
  8
0
  0
BLOCK
  8
0
  2
PN12
 70
0
 10
0.000
 20
0.000
  0
ENDBLK
  8
0
  0
BLOCK
  8
0
  2
PI12
 70
0
 10
0.000
 20
0.000
  0
ENDBLK
  8
0
  0
BLOCK
  8
0
  2
PX12
 70
0
 10
0.000
 20
0.000
  0
ENDBLK
  8
0
  0
BLOCK
  8
0
  2
PD12
 70
0
 10
0.000
 20
0.000
  0
ENDBLK
  8
0
  0
BLOCK
  8
0
  2
PN14
 70
0
 10
0.000
 20
0.000
  0
ENDBLK
  8
0
  0
BLOCK
  8
0
  2
PI14
 70
0
 10
0.000
 20
0.000
  0
ENDBLK
  8
0
  0
BLOCK
  8
0
  2
PX14
 70
0
 10
0.000
 20
0.000
  0
ENDBLK
  8
0
  0
BLOCK
  8
0
  2
PD14
 70
0
 10
0.000
 20
0.000
  0
ENDBLK
  8
0
  0
BLOCK
  8
0
  2
PN17
 70
0
 10
0.000
 20
0.000
  0
ENDBLK
  8
0
  0
BLOCK
  8
0
  2
PI17
 70
0
 10
0.000
 20
0.000
  0
ENDBLK
  8
0
  0
BLOCK
  8
0
  2
PX17
 70
0
 10
0.000
 20
0.000
  0
ENDBLK
  8
0
  0
BLOCK
  8
0
  2
PD17
 70
0
 10
0.000
 20
0.000
  0
ENDBLK
  8
0
  0
BLOCK
  8
0
  2
PN18
 70
0
 10
0.000
 20
0.000
  0
ENDBLK
  8
0
  0
BLOCK
  8
0
  2
PI18
 70
0
 10
0.000
 20
0.000
  0
ENDBLK
  8
0
  0
BLOCK
  8
0
  2
PX18
 70
0
 10
0.000
 20
0.000
  0
ENDBLK
  8
0
  0
BLOCK
  8
0
  2
PD18
 70
0
 10
0.000
 20
0.000
  0
ENDBLK
  8
0
  0
BLOCK
  8
0
  2
PN19
 70
0
 10
0.000
 20
0.000
  0
ENDBLK
  8
0
  0
BLOCK
  8
0
  2
PI19
 70
0
 10
0.000
 20
0.000
  0
ENDBLK
  8
0
  0
BLOCK
  8
0
  2
PX19
 70
0
 10
0.000
 20
0.000
  0
ENDBLK
  8
0
  0
BLOCK
  8
0
  2
PD19
 70
0
 10
0.000
 20
0.000
  0
ENDBLK
  8
0
  0
BLOCK
  8
0
  2
PN24
 70
0
 10
0.000
 20
0.000
  0
ENDBLK
  8
0
  0
BLOCK
  8
0
  2
PI24
 70
0
 10
0.000
 20
0.000
  0
ENDBLK
  8
0
  0
BLOCK
  8
0
  2
PX24
 70
0
 10
0.000
 20
0.000
  0
ENDBLK
  8
0
  0
BLOCK
  8
0
  2
PD24
 70
0
 10
0.000
 20
0.000
  0
ENDBLK
  8
0
  0
BLOCK
  8
0
  2
PN33
 70
0
 10
0.000
 20
0.000
  0
ENDBLK
  8
0
  0
BLOCK
  8
0
  2
PI33
 70
0
 10
0.000
 20
0.000
  0
ENDBLK
  8
0
  0
BLOCK
  8
0
  2
PX33
 70
0
 10
0.000
 20
0.000
  0
ENDBLK
  8
0
  0
BLOCK
  8
0
  2
PD33
 70
0
 10
0.000
 20
0.000
  0
ENDBLK
  8
0
  0
BLOCK
  8
0
  2
PN38
 70
0
 10
0.000
 20
0.000
  0
ENDBLK
  8
0
  0
BLOCK
  8
0
  2
PI38
 70
0
 10
0.000
 20
0.000
  0
ENDBLK
  8
0
  0
BLOCK
  8
0
  2
PX38
 70
0
 10
0.000
 20
0.000
  0
ENDBLK
  8
0
  0
BLOCK
  8
0
  2
PD38
 70
0
 10
0.000
 20
0.000
  0
ENDBLK
  8
0
  0
BLOCK
  8
0
  2
PN40
 70
0
 10
0.000
 20
0.000
  0
ENDBLK
  8
0
  0
BLOCK
  8
0
  2
PI40
 70
0
 10
0.000
 20
0.000
  0
ENDBLK
  8
0
  0
BLOCK
  8
0
  2
PX40
 70
0
 10
0.000
 20
0.000
  0
ENDBLK
  8
0
  0
BLOCK
  8
0
  2
PD40
 70
0
 10
0.000
 20
0.000
  0
ENDBLK
  8
0
  0
BLOCK
  8
0
  2
PN43
 70
0
 10
0.000
 20
0.000
  0
ENDBLK
  8
0
  0
BLOCK
  8
0
  2
PI43
 70
0
 10
0.000
 20
0.000
  0
ENDBLK
  8
0
  0
BLOCK
  8
0
  2
PX43
 70
0
 10
0.000
 20
0.000
  0
ENDBLK
  8
0
  0
BLOCK
  8
0
  2
PD43
 70
0
 10
0.000
 20
0.000
  0
ENDBLK
  8
0
  0
BLOCK
  8
0
  2
PN57
 70
0
 10
0.000
 20
0.000
  0
ENDBLK
  8
0
  0
BLOCK
  8
0
  2
PI57
 70
0
 10
0.000
 20
0.000
  0
ENDBLK
  8
0
  0
BLOCK
  8
0
  2
PX57
 70
0
 10
0.000
 20
0.000
  0
ENDBLK
  8
0
  0
BLOCK
  8
0
  2
PD57
 70
0
 10
0.000
 20
0.000
  0
ENDBLK
  8
0
  0
BLOCK
  8
0
  2
PN71
 70
0
 10
0.000
 20
0.000
  0
ENDBLK
  8
0
  0
BLOCK
  8
0
  2
PI71
 70
0
 10
0.000
 20
0.000
  0
ENDBLK
  8
0
  0
BLOCK
  8
0
  2
PX71
 70
0
 10
0.000
 20
0.000
  0
ENDBLK
  8
0
  0
BLOCK
  8
0
  2
PD71
 70
0
 10
0.000
 20
0.000
  0
ENDBLK
  8
0
  0
BLOCK
  8
0
  2
PN75
 70
0
 10
0.000
 20
0.000
  0
ENDBLK
  8
0
  0
BLOCK
  8
0
  2
PI75
 70
0
 10
0.000
 20
0.000
  0
ENDBLK
  8
0
  0
BLOCK
  8
0
  2
PX75
 70
0
 10
0.000
 20
0.000
  0
ENDBLK
  8
0
  0
BLOCK
  8
0
  2
PD75
 70
0
 10
0.000
 20
0.000
  0
ENDBLK
  8
0
  0
BLOCK
  8
0
  2
0D
 70
0
 10
2.075
 20
2.125
  0
INSERT
  8
0
  2
PD18
 10
2.075
 20
2.125
  0
INSERT
  8
0
  2
PD18
 10
2.275
 20
2.125
  0
ENDBLK
  8
0
  0
BLOCK
  8
0
  2
0N
 70
0
 10
2.075
 20
2.125
  0
INSERT
  8
0
  2
PN18
 10
2.075
 20
2.125
  0
INSERT
  8
0
  2
PN18
 10
2.275
 20
2.125
  0
ENDBLK
  8
0
  0
BLOCK
  8
0
  2
0I
 70
0
 10
2.075
 20
2.125
  0
INSERT
  8
0
  2
PI18
 10
2.075
 20
2.125
  0
INSERT
  8
0
  2
PI18
 10
2.275
 20
2.125
  0
ENDBLK
  8
0
  0
BLOCK
  8
0
  2
0X
 70
0
 10
2.075
 20
2.125
  0
INSERT
  8
0
  2
PX18
 10
2.075
 20
2.125
  0
INSERT
  8
0
  2
PX18
 10
2.275
 20
2.125
  0
ENDBLK
  8
0
  0
BLOCK
  8
0
  2
0
 70
0
 10
2.075
 20
2.125
  0
INSERT
  8
COMP-MIN-OUTLINE-WIDTH-2
  2
DISC
 10
2.025
 20
1.975
 41
0.001
 42
0.001
  0
POLYLINE
  8
COMP-MIN-OUTLINE-WIDTH-2
 66
1
 70
0
 40
0.001
 41
0.001
  0
VERTEX
  8
COMP-MIN-OUTLINE-WIDTH-2
 10
2.025
 20
1.975
  0
VERTEX
  8
COMP-MIN-OUTLINE-WIDTH-2
 10
2.325
 20
1.975
  0
SEQEND
  8
COMP-MIN-OUTLINE-WIDTH-2
  0
INSERT
  8
COMP-MIN-OUTLINE-WIDTH-2
  2
DISC
 10
2.325
 20
1.975
 41
0.001
 42
0.001
  0
POLYLINE
  8
COMP-MIN-OUTLINE-WIDTH-2
 66
1
 70
0
 40
0.001
 41
0.001
  0
VERTEX
  8
COMP-MIN-OUTLINE-WIDTH-2
 10
2.325
 20
1.975
  0
VERTEX
  8
COMP-MIN-OUTLINE-WIDTH-2
 10
2.325
 20
2.275
  0
SEQEND
  8
COMP-MIN-OUTLINE-WIDTH-2
  0
INSERT
  8
COMP-MIN-OUTLINE-WIDTH-2
  2
DISC
 10
2.325
 20
2.275
 41
0.001
 42
0.001
  0
POLYLINE
  8
COMP-MIN-OUTLINE-WIDTH-2
 66
1
 70
0
 40
0.001
 41
0.001
  0
VERTEX
  8
COMP-MIN-OUTLINE-WIDTH-2
 10
2.325
 20
2.275
  0
VERTEX
  8
COMP-MIN-OUTLINE-WIDTH-2
 10
2.025
 20
2.275
  0
SEQEND
  8
COMP-MIN-OUTLINE-WIDTH-2
  0
INSERT
  8
COMP-MIN-OUTLINE-WIDTH-2
  2
DISC
 10
2.025
 20
2.275
 41
0.001
 42
0.001
  0
POLYLINE
  8
COMP-MIN-OUTLINE-WIDTH-2
 66
1
 70
0
 40
0.001
 41
0.001
  0
VERTEX
  8
COMP-MIN-OUTLINE-WIDTH-2
 10
2.025
 20
2.275
  0
VERTEX
  8
COMP-MIN-OUTLINE-WIDTH-2
 10
2.025
 20
2.200
  0
SEQEND
  8
COMP-MIN-OUTLINE-WIDTH-2
  0
INSERT
  8
COMP-MIN-OUTLINE-WIDTH-2
  2
DISC
 10
2.025
 20
2.200
 41
0.001
 42
0.001
  0
POLYLINE
  8
COMP-MIN-OUTLINE-WIDTH-2
 66
1
 70
0
 40
0.001
 41
0.001
  0
VERTEX
  8
COMP-MIN-OUTLINE-WIDTH-2
 10
2.025
 20
2.200
  0
VERTEX
  8
COMP-MIN-OUTLINE-WIDTH-2
 10
2.075
 20
2.200
  0
SEQEND
  8
COMP-MIN-OUTLINE-WIDTH-2
  0
INSERT
  8
COMP-MIN-OUTLINE-WIDTH-2
  2
DISC
 10
2.075
 20
2.200
 41
0.001
 42
0.001
  0
POLYLINE
  8
COMP-MIN-OUTLINE-WIDTH-2
 66
1
 70
0
 40
0.001
 41
0.001
  0
VERTEX
  8
COMP-MIN-OUTLINE-WIDTH-2
 10
2.075
 20
2.200
  0
VERTEX
  8
COMP-MIN-OUTLINE-WIDTH-2
 10
2.075
 20
2.050
  0
SEQEND
  8
COMP-MIN-OUTLINE-WIDTH-2
  0
INSERT
  8
COMP-MIN-OUTLINE-WIDTH-2
  2
DISC
 10
2.075
 20
2.050
 41
0.001
 42
0.001
  0
POLYLINE
  8
COMP-MIN-OUTLINE-WIDTH-2
 66
1
 70
0
 40
0.001
 41
0.001
  0
VERTEX
  8
COMP-MIN-OUTLINE-WIDTH-2
 10
2.075
 20
2.050
  0
VERTEX
  8
COMP-MIN-OUTLINE-WIDTH-2
 10
2.025
 20
2.050
  0
SEQEND
  8
COMP-MIN-OUTLINE-WIDTH-2
  0
INSERT
  8
COMP-MIN-OUTLINE-WIDTH-2
  2
DISC
 10
2.025
 20
2.050
 41
0.001
 42
0.001
  0
POLYLINE
  8
COMP-MIN-OUTLINE-WIDTH-2
 66
1
 70
0
 40
0.001
 41
0.001
  0
VERTEX
  8
COMP-MIN-OUTLINE-WIDTH-2
 10
2.025
 20
2.050
  0
VERTEX
  8
COMP-MIN-OUTLINE-WIDTH-2
 10
2.025
 20
1.975
  0
SEQEND
  8
COMP-MIN-OUTLINE-WIDTH-2
  0
INSERT
  8
COMP-MIN-OUTLINE-WIDTH-2
  2
DISC
 10
2.025
 20
1.975
 41
0.001
 42
0.001
  0
INSERT
  8
COMP-MIN-OUTLINE-WIDTH-2
  2
DISC
 10
2.200
 20
2.160
 41
0.001
 42
0.001
  0
POLYLINE
  8
COMP-MIN-OUTLINE-WIDTH-2
 66
1
 70
0
 40
0.001
 41
0.001
  0
VERTEX
  8
COMP-MIN-OUTLINE-WIDTH-2
 10
2.200
 20
2.160
 42
1.000
  0
VERTEX
  8
COMP-MIN-OUTLINE-WIDTH-2
 10
2.200
 20
2.090
 42
1.000
  0
SEQEND
  8
COMP-MIN-OUTLINE-WIDTH-2
  0
INSERT
  8
COMP-MIN-OUTLINE-WIDTH-2
  2
DISC
 10
2.200
 20
2.090
 41
0.001
 42
0.001
  0
POLYLINE
  8
COMP-MIN-OUTLINE-WIDTH-2
 66
1
 70
0
 40
0.001
 41
0.001
  0
VERTEX
  8
COMP-MIN-OUTLINE-WIDTH-2
 10
2.200
 20
2.090
 42
1.000
  0
VERTEX
  8
COMP-MIN-OUTLINE-WIDTH-2
 10
2.200
 20
2.160
  0
SEQEND
  8
COMP-MIN-OUTLINE-WIDTH-2
  0
INSERT
  8
COMP-MIN-OUTLINE-WIDTH-2
  2
DISC
 10
2.200
 20
2.160
 41
0.001
 42
0.001
  0
INSERT
  8
COMP-MIN-OUTLINE-WIDTH-2
  2
DISC
 10
2.170
 20
2.145
 41
0.001
 42
0.001
  0
POLYLINE
  8
COMP-MIN-OUTLINE-WIDTH-2
 66
1
 70
0
 40
0.001
 41
0.001
  0
VERTEX
  8
COMP-MIN-OUTLINE-WIDTH-2
 10
2.170
 20
2.145
  0
VERTEX
  8
COMP-MIN-OUTLINE-WIDTH-2
 10
2.230
 20
2.105
  0
SEQEND
  8
COMP-MIN-OUTLINE-WIDTH-2
  0
INSERT
  8
COMP-MIN-OUTLINE-WIDTH-2
  2
DISC
 10
2.230
 20
2.105
 41
0.001
 42
0.001
  0
INSERT
  8
COMP-MIN-OUTLINE-WIDTH-1
  2
DISC
 10
2.075
 20
2.200
 41
0.001
 42
0.001
  0
POLYLINE
  8
COMP-MIN-OUTLINE-WIDTH-1
 66
1
 70
0
 40
0.001
 41
0.001
  0
VERTEX
  8
COMP-MIN-OUTLINE-WIDTH-1
 10
2.075
 20
2.200
  0
VERTEX
  8
COMP-MIN-OUTLINE-WIDTH-1
 10
2.150
 20
2.275
  0
SEQEND
  8
COMP-MIN-OUTLINE-WIDTH-1
  0
INSERT
  8
COMP-MIN-OUTLINE-WIDTH-1
  2
DISC
 10
2.150
 20
2.275
 41
0.001
 42
0.001
  0
INSERT
  8
COMP-MIN-OUTLINE-WIDTH-1
  2
DISC
 10
2.075
 20
2.050
 41
0.001
 42
0.001
  0
POLYLINE
  8
COMP-MIN-OUTLINE-WIDTH-1
 66
1
 70
0
 40
0.001
 41
0.001
  0
VERTEX
  8
COMP-MIN-OUTLINE-WIDTH-1
 10
2.075
 20
2.050
  0
VERTEX
  8
COMP-MIN-OUTLINE-WIDTH-1
 10
2.150
 20
1.975
  0
SEQEND
  8
COMP-MIN-OUTLINE-WIDTH-1
  0
INSERT
  8
COMP-MIN-OUTLINE-WIDTH-1
  2
DISC
 10
2.150
 20
1.975
 41
0.001
 42
0.001
  0
INSERT
  8
COMP-MIN-OUTLINE-WIDTH-1
  2
DISC
 10
2.250
 20
1.975
 41
0.001
 42
0.001
  0
POLYLINE
  8
COMP-MIN-OUTLINE-WIDTH-1
 66
1
 70
0
 40
0.001
 41
0.001
  0
VERTEX
  8
COMP-MIN-OUTLINE-WIDTH-1
 10
2.250
 20
1.975
  0
VERTEX
  8
COMP-MIN-OUTLINE-WIDTH-1
 10
2.325
 20
2.050
  0
SEQEND
  8
COMP-MIN-OUTLINE-WIDTH-1
  0
INSERT
  8
COMP-MIN-OUTLINE-WIDTH-1
  2
DISC
 10
2.325
 20
2.050
 41
0.001
 42
0.001
  0
INSERT
  8
COMP-MIN-OUTLINE-WIDTH-1
  2
DISC
 10
2.325
 20
2.200
 41
0.001
 42
0.001
  0
POLYLINE
  8
COMP-MIN-OUTLINE-WIDTH-1
 66
1
 70
0
 40
0.001
 41
0.001
  0
VERTEX
  8
COMP-MIN-OUTLINE-WIDTH-1
 10
2.325
 20
2.200
  0
VERTEX
  8
COMP-MIN-OUTLINE-WIDTH-1
 10
2.250
 20
2.275
  0
SEQEND
  8
COMP-MIN-OUTLINE-WIDTH-1
  0
INSERT
  8
COMP-MIN-OUTLINE-WIDTH-1
  2
DISC
 10
2.250
 20
2.275
 41
0.001
 42
0.001
  0
INSERT
  8
COMP-MIN-OUTLINE-WIDTH-2
  2
DISC
 10
2.085
 20
2.125
 41
0.001
 42
0.001
  0
POLYLINE
  8
COMP-MIN-OUTLINE-WIDTH-2
 66
1
 70
0
 40
0.001
 41
0.001
  0
VERTEX
  8
COMP-MIN-OUTLINE-WIDTH-2
 10
2.085
 20
2.125
 42
1.000
  0
VERTEX
  8
COMP-MIN-OUTLINE-WIDTH-2
 10
2.315
 20
2.125
 42
1.000
  0
SEQEND
  8
COMP-MIN-OUTLINE-WIDTH-2
  0
INSERT
  8
COMP-MIN-OUTLINE-WIDTH-2
  2
DISC
 10
2.315
 20
2.125
 41
0.001
 42
0.001
  0
POLYLINE
  8
COMP-MIN-OUTLINE-WIDTH-2
 66
1
 70
0
 40
0.001
 41
0.001
  0
VERTEX
  8
COMP-MIN-OUTLINE-WIDTH-2
 10
2.315
 20
2.125
 42
1.000
  0
VERTEX
  8
COMP-MIN-OUTLINE-WIDTH-2
 10
2.085
 20
2.125
  0
SEQEND
  8
COMP-MIN-OUTLINE-WIDTH-2
  0
INSERT
  8
COMP-MIN-OUTLINE-WIDTH-2
  2
DISC
 10
2.085
 20
2.125
 41
0.001
 42
0.001
  0
ENDBLK
  8
COMP-MIN-OUTLINE-WIDTH-2
  0
BLOCK
  8
0
  2
98D
 70
0
 10
2.100
 20
2.250
  0
INSERT
  8
0
  2
PD5
 10
2.300
 20
2.050
  0
INSERT
  8
0
  2
PD5
 10
2.200
 20
2.050
  0
INSERT
  8
0
  2
PD24
 10
2.100
 20
2.250
  0
INSERT
  8
0
  2
PD24
 10
2.500
 20
2.250
  0
ENDBLK
  8
0
  0
BLOCK
  8
0
  2
98N
 70
0
 10
2.100
 20
2.250
  0
INSERT
  8
0
  2
PN5
 10
2.300
 20
2.050
  0
INSERT
  8
0
  2
PN5
 10
2.200
 20
2.050
  0
INSERT
  8
0
  2
PN24
 10
2.100
 20
2.250
  0
INSERT
  8
0
  2
PN24
 10
2.500
 20
2.250
  0
ENDBLK
  8
0
  0
BLOCK
  8
0
  2
98I
 70
0
 10
2.100
 20
2.250
  0
INSERT
  8
0
  2
PI5
 10
2.300
 20
2.050
  0
INSERT
  8
0
  2
PI5
 10
2.200
 20
2.050
  0
INSERT
  8
0
  2
PI24
 10
2.100
 20
2.250
  0
INSERT
  8
0
  2
PI24
 10
2.500
 20
2.250
  0
ENDBLK
  8
0
  0
BLOCK
  8
0
  2
98X
 70
0
 10
2.100
 20
2.250
  0
INSERT
  8
0
  2
PX5
 10
2.300
 20
2.050
  0
INSERT
  8
0
  2
PX5
 10
2.200
 20
2.050
  0
INSERT
  8
0
  2
PX24
 10
2.100
 20
2.250
  0
INSERT
  8
0
  2
PX24
 10
2.500
 20
2.250
  0
ENDBLK
  8
0
  0
BLOCK
  8
0
  2
98
 70
0
 10
2.100
 20
2.250
  0
INSERT
  8
COMP-MIN-OUTLINE-WIDTH-1
  2
DISC
 10
2.590
 20
2.560
 41
0.001
 42
0.001
  0
POLYLINE
  8
COMP-MIN-OUTLINE-WIDTH-1
 66
1
 70
0
 40
0.001
 41
0.001
  0
VERTEX
  8
COMP-MIN-OUTLINE-WIDTH-1
 10
2.590
 20
2.560
  0
VERTEX
  8
COMP-MIN-OUTLINE-WIDTH-1
 10
2.590
 20
2.000
  0
SEQEND
  8
COMP-MIN-OUTLINE-WIDTH-1
  0
INSERT
  8
COMP-MIN-OUTLINE-WIDTH-1
  2
DISC
 10
2.590
 20
2.000
 41
0.001
 42
0.001
  0
POLYLINE
  8
COMP-MIN-OUTLINE-WIDTH-1
 66
1
 70
0
 40
0.001
 41
0.001
  0
VERTEX
  8
COMP-MIN-OUTLINE-WIDTH-1
 10
2.590
 20
2.000
  0
VERTEX
  8
COMP-MIN-OUTLINE-WIDTH-1
 10
2.490
 20
2.000
  0
SEQEND
  8
COMP-MIN-OUTLINE-WIDTH-1
  0
INSERT
  8
COMP-MIN-OUTLINE-WIDTH-1
  2
DISC
 10
2.490
 20
2.000
 41
0.001
 42
0.001
  0
POLYLINE
  8
COMP-MIN-OUTLINE-WIDTH-1
 66
1
 70
0
 40
0.001
 41
0.001
  0
VERTEX
  8
COMP-MIN-OUTLINE-WIDTH-1
 10
2.490
 20
2.000
  0
VERTEX
  8
COMP-MIN-OUTLINE-WIDTH-1
 10
2.490
 20
2.010
  0
SEQEND
  8
COMP-MIN-OUTLINE-WIDTH-1
  0
INSERT
  8
COMP-MIN-OUTLINE-WIDTH-1
  2
DISC
 10
2.490
 20
2.010
 41
0.001
 42
0.001
  0
POLYLINE
  8
COMP-MIN-OUTLINE-WIDTH-1
 66
1
 70
0
 40
0.001
 41
0.001
  0
VERTEX
  8
COMP-MIN-OUTLINE-WIDTH-1
 10
2.490
 20
2.010
  0
VERTEX
  8
COMP-MIN-OUTLINE-WIDTH-1
 10
2.110
 20
2.010
  0
SEQEND
  8
COMP-MIN-OUTLINE-WIDTH-1
  0
INSERT
  8
COMP-MIN-OUTLINE-WIDTH-1
  2
DISC
 10
2.110
 20
2.010
 41
0.001
 42
0.001
  0
POLYLINE
  8
COMP-MIN-OUTLINE-WIDTH-1
 66
1
 70
0
 40
0.001
 41
0.001
  0
VERTEX
  8
COMP-MIN-OUTLINE-WIDTH-1
 10
2.110
 20
2.010
  0
VERTEX
  8
COMP-MIN-OUTLINE-WIDTH-1
 10
2.110
 20
2.000
  0
SEQEND
  8
COMP-MIN-OUTLINE-WIDTH-1
  0
INSERT
  8
COMP-MIN-OUTLINE-WIDTH-1
  2
DISC
 10
2.110
 20
2.000
 41
0.001
 42
0.001
  0
POLYLINE
  8
COMP-MIN-OUTLINE-WIDTH-1
 66
1
 70
0
 40
0.001
 41
0.001
  0
VERTEX
  8
COMP-MIN-OUTLINE-WIDTH-1
 10
2.110
 20
2.000
  0
VERTEX
  8
COMP-MIN-OUTLINE-WIDTH-1
 10
2.010
 20
2.000
  0
SEQEND
  8
COMP-MIN-OUTLINE-WIDTH-1
  0
INSERT
  8
COMP-MIN-OUTLINE-WIDTH-1
  2
DISC
 10
2.010
 20
2.000
 41
0.001
 42
0.001
  0
POLYLINE
  8
COMP-MIN-OUTLINE-WIDTH-1
 66
1
 70
0
 40
0.001
 41
0.001
  0
VERTEX
  8
COMP-MIN-OUTLINE-WIDTH-1
 10
2.010
 20
2.000
  0
VERTEX
  8
COMP-MIN-OUTLINE-WIDTH-1
 10
2.010
 20
2.560
  0
SEQEND
  8
COMP-MIN-OUTLINE-WIDTH-1
  0
INSERT
  8
COMP-MIN-OUTLINE-WIDTH-1
  2
DISC
 10
2.010
 20
2.560
 41
0.001
 42
0.001
  0
POLYLINE
  8
COMP-MIN-OUTLINE-WIDTH-1
 66
1
 70
0
 40
0.001
 41
0.001
  0
VERTEX
  8
COMP-MIN-OUTLINE-WIDTH-1
 10
2.010
 20
2.560
  0
VERTEX
  8
COMP-MIN-OUTLINE-WIDTH-1
 10
2.590
 20
2.560
  0
SEQEND
  8
COMP-MIN-OUTLINE-WIDTH-1
  0
INSERT
  8
COMP-MIN-OUTLINE-WIDTH-1
  2
DISC
 10
2.590
 20
2.560
 41
0.001
 42
0.001
  0
INSERT
  8
COMP-MIN-OUTLINE-WIDTH-1
  2
DISC
 10
2.050
 20
2.560
 41
0.001
 42
0.001
  0
POLYLINE
  8
COMP-MIN-OUTLINE-WIDTH-1
 66
1
 70
0
 40
0.001
 41
0.001
  0
VERTEX
  8
COMP-MIN-OUTLINE-WIDTH-1
 10
2.050
 20
2.560
  0
VERTEX
  8
COMP-MIN-OUTLINE-WIDTH-1
 10
2.050
 20
2.900
  0
SEQEND
  8
COMP-MIN-OUTLINE-WIDTH-1
  0
INSERT
  8
COMP-MIN-OUTLINE-WIDTH-1
  2
DISC
 10
2.050
 20
2.900
 41
0.001
 42
0.001
  0
POLYLINE
  8
COMP-MIN-OUTLINE-WIDTH-1
 66
1
 70
0
 40
0.001
 41
0.001
  0
VERTEX
  8
COMP-MIN-OUTLINE-WIDTH-1
 10
2.050
 20
2.900
  0
VERTEX
  8
COMP-MIN-OUTLINE-WIDTH-1
 10
2.550
 20
2.900
  0
SEQEND
  8
COMP-MIN-OUTLINE-WIDTH-1
  0
INSERT
  8
COMP-MIN-OUTLINE-WIDTH-1
  2
DISC
 10
2.550
 20
2.900
 41
0.001
 42
0.001
  0
POLYLINE
  8
COMP-MIN-OUTLINE-WIDTH-1
 66
1
 70
0
 40
0.001
 41
0.001
  0
VERTEX
  8
COMP-MIN-OUTLINE-WIDTH-1
 10
2.550
 20
2.900
  0
VERTEX
  8
COMP-MIN-OUTLINE-WIDTH-1
 10
2.550
 20
2.560
  0
SEQEND
  8
COMP-MIN-OUTLINE-WIDTH-1
  0
INSERT
  8
COMP-MIN-OUTLINE-WIDTH-1
  2
DISC
 10
2.550
 20
2.560
 41
0.001
 42
0.001
  0
INSERT
  8
COMP-MIN-OUTLINE-WIDTH-1
  2
DISC
 10
2.110
 20
2.900
 41
0.001
 42
0.001
  0
POLYLINE
  8
COMP-MIN-OUTLINE-WIDTH-1
 66
1
 70
0
 40
0.001
 41
0.001
  0
VERTEX
  8
COMP-MIN-OUTLINE-WIDTH-1
 10
2.110
 20
2.900
  0
VERTEX
  8
COMP-MIN-OUTLINE-WIDTH-1
 10
2.110
 20
3.375
  0
SEQEND
  8
COMP-MIN-OUTLINE-WIDTH-1
  0
INSERT
  8
COMP-MIN-OUTLINE-WIDTH-1
  2
DISC
 10
2.110
 20
3.375
 41
0.001
 42
0.001
  0
POLYLINE
  8
COMP-MIN-OUTLINE-WIDTH-1
 66
1
 70
0
 40
0.001
 41
0.001
  0
VERTEX
  8
COMP-MIN-OUTLINE-WIDTH-1
 10
2.110
 20
3.375
  0
VERTEX
  8
COMP-MIN-OUTLINE-WIDTH-1
 10
2.490
 20
3.375
  0
SEQEND
  8
COMP-MIN-OUTLINE-WIDTH-1
  0
INSERT
  8
COMP-MIN-OUTLINE-WIDTH-1
  2
DISC
 10
2.490
 20
3.375
 41
0.001
 42
0.001
  0
POLYLINE
  8
COMP-MIN-OUTLINE-WIDTH-1
 66
1
 70
0
 40
0.001
 41
0.001
  0
VERTEX
  8
COMP-MIN-OUTLINE-WIDTH-1
 10
2.490
 20
3.375
  0
VERTEX
  8
COMP-MIN-OUTLINE-WIDTH-1
 10
2.490
 20
2.900
  0
SEQEND
  8
COMP-MIN-OUTLINE-WIDTH-1
  0
INSERT
  8
COMP-MIN-OUTLINE-WIDTH-1
  2
DISC
 10
2.490
 20
2.900
 41
0.001
 42
0.001
  0
ENDBLK
  8
0
  0
BLOCK
  8
0
  2
200D
 70
0
 10
2.050
 20
2.050
  0
INSERT
  8
0
  2
PD10
 10
2.150
 20
2.150
  0
INSERT
  8
0
  2
PD18
 10
2.050
 20
2.050
  0
INSERT
  8
0
  2
PD18
 10
2.050
 20
2.250
  0
INSERT
  8
0
  2
PD18
 10
2.250
 20
2.250
  0
INSERT
  8
0
  2
PD18
 10
2.250
 20
2.050
  0
ENDBLK
  8
0
  0
BLOCK
  8
0
  2
200N
 70
0
 10
2.050
 20
2.050
  0
INSERT
  8
0
  2
PN10
 10
2.150
 20
2.150
  0
INSERT
  8
0
  2
PN18
 10
2.050
 20
2.050
  0
INSERT
  8
0
  2
PN18
 10
2.050
 20
2.250
  0
INSERT
  8
0
  2
PN18
 10
2.250
 20
2.250
  0
INSERT
  8
0
  2
PN18
 10
2.250
 20
2.050
  0
ENDBLK
  8
0
  0
BLOCK
  8
0
  2
200I
 70
0
 10
2.050
 20
2.050
  0
INSERT
  8
0
  2
PI10
 10
2.150
 20
2.150
  0
INSERT
  8
0
  2
PI18
 10
2.050
 20
2.050
  0
INSERT
  8
0
  2
PI18
 10
2.050
 20
2.250
  0
INSERT
  8
0
  2
PI18
 10
2.250
 20
2.250
  0
INSERT
  8
0
  2
PI18
 10
2.250
 20
2.050
  0
ENDBLK
  8
0
  0
BLOCK
  8
0
  2
200X
 70
0
 10
2.050
 20
2.050
  0
INSERT
  8
0
  2
PX10
 10
2.150
 20
2.150
  0
INSERT
  8
0
  2
PX18
 10
2.050
 20
2.050
  0
INSERT
  8
0
  2
PX18
 10
2.050
 20
2.250
  0
INSERT
  8
0
  2
PX18
 10
2.250
 20
2.250
  0
INSERT
  8
0
  2
PX18
 10
2.250
 20
2.050
  0
ENDBLK
  8
0
  0
BLOCK
  8
0
  2
200
 70
0
 10
2.050
 20
2.050
  0
INSERT
  8
COMP-MIN-OUTLINE-WIDTH-2
  2
DISC
 10
2.035
 20
2.265
 41
0.001
 42
0.001
  0
POLYLINE
  8
COMP-MIN-OUTLINE-WIDTH-2
 66
1
 70
0
 40
0.001
 41
0.001
  0
VERTEX
  8
COMP-MIN-OUTLINE-WIDTH-2
 10
2.035
 20
2.265
  0
VERTEX
  8
COMP-MIN-OUTLINE-WIDTH-2
 10
2.035
 20
2.035
  0
SEQEND
  8
COMP-MIN-OUTLINE-WIDTH-2
  0
INSERT
  8
COMP-MIN-OUTLINE-WIDTH-2
  2
DISC
 10
2.035
 20
2.035
 41
0.001
 42
0.001
  0
POLYLINE
  8
COMP-MIN-OUTLINE-WIDTH-2
 66
1
 70
0
 40
0.001
 41
0.001
  0
VERTEX
  8
COMP-MIN-OUTLINE-WIDTH-2
 10
2.035
 20
2.035
  0
VERTEX
  8
COMP-MIN-OUTLINE-WIDTH-2
 10
2.265
 20
2.035
  0
SEQEND
  8
COMP-MIN-OUTLINE-WIDTH-2
  0
INSERT
  8
COMP-MIN-OUTLINE-WIDTH-2
  2
DISC
 10
2.265
 20
2.035
 41
0.001
 42
0.001
  0
POLYLINE
  8
COMP-MIN-OUTLINE-WIDTH-2
 66
1
 70
0
 40
0.001
 41
0.001
  0
VERTEX
  8
COMP-MIN-OUTLINE-WIDTH-2
 10
2.265
 20
2.035
  0
VERTEX
  8
COMP-MIN-OUTLINE-WIDTH-2
 10
2.265
 20
2.265
  0
SEQEND
  8
COMP-MIN-OUTLINE-WIDTH-2
  0
INSERT
  8
COMP-MIN-OUTLINE-WIDTH-2
  2
DISC
 10
2.265
 20
2.265
 41
0.001
 42
0.001
  0
POLYLINE
  8
COMP-MIN-OUTLINE-WIDTH-2
 66
1
 70
0
 40
0.001
 41
0.001
  0
VERTEX
  8
COMP-MIN-OUTLINE-WIDTH-2
 10
2.265
 20
2.265
  0
VERTEX
  8
COMP-MIN-OUTLINE-WIDTH-2
 10
2.035
 20
2.265
  0
SEQEND
  8
COMP-MIN-OUTLINE-WIDTH-2
  0
INSERT
  8
COMP-MIN-OUTLINE-WIDTH-2
  2
DISC
 10
2.035
 20
2.265
 41
0.001
 42
0.001
  0
INSERT
  8
COMP-MIN-OUTLINE-WIDTH-2
  2
DISC
 10
2.070
 20
2.150
 41
0.001
 42
0.001
  0
POLYLINE
  8
COMP-MIN-OUTLINE-WIDTH-2
 66
1
 70
0
 40
0.001
 41
0.001
  0
VERTEX
  8
COMP-MIN-OUTLINE-WIDTH-2
 10
2.070
 20
2.150
 42
1.000
  0
VERTEX
  8
COMP-MIN-OUTLINE-WIDTH-2
 10
2.230
 20
2.150
 42
1.000
  0
SEQEND
  8
COMP-MIN-OUTLINE-WIDTH-2
  0
INSERT
  8
COMP-MIN-OUTLINE-WIDTH-2
  2
DISC
 10
2.230
 20
2.150
 41
0.001
 42
0.001
  0
POLYLINE
  8
COMP-MIN-OUTLINE-WIDTH-2
 66
1
 70
0
 40
0.001
 41
0.001
  0
VERTEX
  8
COMP-MIN-OUTLINE-WIDTH-2
 10
2.230
 20
2.150
 42
1.000
  0
VERTEX
  8
COMP-MIN-OUTLINE-WIDTH-2
 10
2.070
 20
2.150
  0
SEQEND
  8
COMP-MIN-OUTLINE-WIDTH-2
  0
INSERT
  8
COMP-MIN-OUTLINE-WIDTH-2
  2
DISC
 10
2.070
 20
2.150
 41
0.001
 42
0.001
  0
INSERT
  8
COMP-MIN-OUTLINE-WIDTH-2
  2
DISC
 10
2.080
 20
2.150
 41
0.001
 42
0.001
  0
POLYLINE
  8
COMP-MIN-OUTLINE-WIDTH-2
 66
1
 70
0
 40
0.001
 41
0.001
  0
VERTEX
  8
COMP-MIN-OUTLINE-WIDTH-2
 10
2.080
 20
2.150
 42
1.000
  0
VERTEX
  8
COMP-MIN-OUTLINE-WIDTH-2
 10
2.220
 20
2.150
 42
1.000
  0
SEQEND
  8
COMP-MIN-OUTLINE-WIDTH-2
  0
INSERT
  8
COMP-MIN-OUTLINE-WIDTH-2
  2
DISC
 10
2.220
 20
2.150
 41
0.001
 42
0.001
  0
POLYLINE
  8
COMP-MIN-OUTLINE-WIDTH-2
 66
1
 70
0
 40
0.001
 41
0.001
  0
VERTEX
  8
COMP-MIN-OUTLINE-WIDTH-2
 10
2.220
 20
2.150
 42
1.000
  0
VERTEX
  8
COMP-MIN-OUTLINE-WIDTH-2
 10
2.080
 20
2.150
  0
SEQEND
  8
COMP-MIN-OUTLINE-WIDTH-2
  0
INSERT
  8
COMP-MIN-OUTLINE-WIDTH-2
  2
DISC
 10
2.080
 20
2.150
 41
0.001
 42
0.001
  0
INSERT
  8
COMP-MIN-OUTLINE-WIDTH-2
  2
DISC
 10
2.135
 20
2.150
 41
0.001
 42
0.001
  0
POLYLINE
  8
COMP-MIN-OUTLINE-WIDTH-2
 66
1
 70
0
 40
0.001
 41
0.001
  0
VERTEX
  8
COMP-MIN-OUTLINE-WIDTH-2
 10
2.135
 20
2.150
 42
1.000
  0
VERTEX
  8
COMP-MIN-OUTLINE-WIDTH-2
 10
2.165
 20
2.150
 42
1.000
  0
SEQEND
  8
COMP-MIN-OUTLINE-WIDTH-2
  0
INSERT
  8
COMP-MIN-OUTLINE-WIDTH-2
  2
DISC
 10
2.165
 20
2.150
 41
0.001
 42
0.001
  0
POLYLINE
  8
COMP-MIN-OUTLINE-WIDTH-2
 66
1
 70
0
 40
0.001
 41
0.001
  0
VERTEX
  8
COMP-MIN-OUTLINE-WIDTH-2
 10
2.165
 20
2.150
 42
1.000
  0
VERTEX
  8
COMP-MIN-OUTLINE-WIDTH-2
 10
2.135
 20
2.150
  0
SEQEND
  8
COMP-MIN-OUTLINE-WIDTH-2
  0
INSERT
  8
COMP-MIN-OUTLINE-WIDTH-2
  2
DISC
 10
2.135
 20
2.150
 41
0.001
 42
0.001
  0
ENDBLK
  8
COMP-MIN-OUTLINE-WIDTH-2
  0
BLOCK
  8
0
  2
283D
 70
0
 10
2.075
 20
2.075
  0
INSERT
  8
0
  2
PD75
 10
2.075
 20
2.075
  0
ENDBLK
  8
0
  0
BLOCK
  8
0
  2
283N
 70
0
 10
2.075
 20
2.075
  0
INSERT
  8
0
  2
PN75
 10
2.075
 20
2.075
  0
ENDBLK
  8
0
  0
BLOCK
  8
0
  2
283I
 70
0
 10
2.075
 20
2.075
  0
INSERT
  8
0
  2
PI75
 10
2.075
 20
2.075
  0
ENDBLK
  8
0
  0
BLOCK
  8
0
  2
283X
 70
0
 10
2.075
 20
2.075
  0
INSERT
  8
0
  2
PX75
 10
2.075
 20
2.075
  0
ENDBLK
  8
0
  0
BLOCK
  8
0
  2
283
 70
0
 10
2.075
 20
2.075
  0
INSERT
  8
COMP-MIN-OUTLINE-WIDTH-1
  2
DISC
 10
2.016
 20
2.085
 41
0.001
 42
0.001
  0
POLYLINE
  8
COMP-MIN-OUTLINE-WIDTH-1
 66
1
 70
0
 40
0.001
 41
0.001
  0
VERTEX
  8
COMP-MIN-OUTLINE-WIDTH-1
 10
2.016
 20
2.085
  0
VERTEX
  8
COMP-MIN-OUTLINE-WIDTH-1
 10
2.016
 20
2.065
  0
SEQEND
  8
COMP-MIN-OUTLINE-WIDTH-1
  0
INSERT
  8
COMP-MIN-OUTLINE-WIDTH-1
  2
DISC
 10
2.016
 20
2.065
 41
0.001
 42
0.001
  0
POLYLINE
  8
COMP-MIN-OUTLINE-WIDTH-1
 66
1
 70
0
 40
0.001
 41
0.001
  0
VERTEX
  8
COMP-MIN-OUTLINE-WIDTH-1
 10
2.016
 20
2.065
  0
VERTEX
  8
COMP-MIN-OUTLINE-WIDTH-1
 10
2.065
 20
2.065
  0
SEQEND
  8
COMP-MIN-OUTLINE-WIDTH-1
  0
INSERT
  8
COMP-MIN-OUTLINE-WIDTH-1
  2
DISC
 10
2.065
 20
2.065
 41
0.001
 42
0.001
  0
POLYLINE
  8
COMP-MIN-OUTLINE-WIDTH-1
 66
1
 70
0
 40
0.001
 41
0.001
  0
VERTEX
  8
COMP-MIN-OUTLINE-WIDTH-1
 10
2.065
 20
2.065
  0
VERTEX
  8
COMP-MIN-OUTLINE-WIDTH-1
 10
2.065
 20
2.016
  0
SEQEND
  8
COMP-MIN-OUTLINE-WIDTH-1
  0
INSERT
  8
COMP-MIN-OUTLINE-WIDTH-1
  2
DISC
 10
2.065
 20
2.016
 41
0.001
 42
0.001
  0
POLYLINE
  8
COMP-MIN-OUTLINE-WIDTH-1
 66
1
 70
0
 40
0.001
 41
0.001
  0
VERTEX
  8
COMP-MIN-OUTLINE-WIDTH-1
 10
2.065
 20
2.016
  0
VERTEX
  8
COMP-MIN-OUTLINE-WIDTH-1
 10
2.085
 20
2.016
  0
SEQEND
  8
COMP-MIN-OUTLINE-WIDTH-1
  0
INSERT
  8
COMP-MIN-OUTLINE-WIDTH-1
  2
DISC
 10
2.085
 20
2.016
 41
0.001
 42
0.001
  0
POLYLINE
  8
COMP-MIN-OUTLINE-WIDTH-1
 66
1
 70
0
 40
0.001
 41
0.001
  0
VERTEX
  8
COMP-MIN-OUTLINE-WIDTH-1
 10
2.085
 20
2.016
  0
VERTEX
  8
COMP-MIN-OUTLINE-WIDTH-1
 10
2.085
 20
2.065
  0
SEQEND
  8
COMP-MIN-OUTLINE-WIDTH-1
  0
INSERT
  8
COMP-MIN-OUTLINE-WIDTH-1
  2
DISC
 10
2.085
 20
2.065
 41
0.001
 42
0.001
  0
POLYLINE
  8
COMP-MIN-OUTLINE-WIDTH-1
 66
1
 70
0
 40
0.001
 41
0.001
  0
VERTEX
  8
COMP-MIN-OUTLINE-WIDTH-1
 10
2.085
 20
2.065
  0
VERTEX
  8
COMP-MIN-OUTLINE-WIDTH-1
 10
2.134
 20
2.065
  0
SEQEND
  8
COMP-MIN-OUTLINE-WIDTH-1
  0
INSERT
  8
COMP-MIN-OUTLINE-WIDTH-1
  2
DISC
 10
2.134
 20
2.065
 41
0.001
 42
0.001
  0
POLYLINE
  8
COMP-MIN-OUTLINE-WIDTH-1
 66
1
 70
0
 40
0.001
 41
0.001
  0
VERTEX
  8
COMP-MIN-OUTLINE-WIDTH-1
 10
2.134
 20
2.065
  0
VERTEX
  8
COMP-MIN-OUTLINE-WIDTH-1
 10
2.134
 20
2.085
  0
SEQEND
  8
COMP-MIN-OUTLINE-WIDTH-1
  0
INSERT
  8
COMP-MIN-OUTLINE-WIDTH-1
  2
DISC
 10
2.134
 20
2.085
 41
0.001
 42
0.001
  0
POLYLINE
  8
COMP-MIN-OUTLINE-WIDTH-1
 66
1
 70
0
 40
0.001
 41
0.001
  0
VERTEX
  8
COMP-MIN-OUTLINE-WIDTH-1
 10
2.134
 20
2.085
  0
VERTEX
  8
COMP-MIN-OUTLINE-WIDTH-1
 10
2.085
 20
2.085
  0
SEQEND
  8
COMP-MIN-OUTLINE-WIDTH-1
  0
INSERT
  8
COMP-MIN-OUTLINE-WIDTH-1
  2
DISC
 10
2.085
 20
2.085
 41
0.001
 42
0.001
  0
POLYLINE
  8
COMP-MIN-OUTLINE-WIDTH-1
 66
1
 70
0
 40
0.001
 41
0.001
  0
VERTEX
  8
COMP-MIN-OUTLINE-WIDTH-1
 10
2.085
 20
2.085
  0
VERTEX
  8
COMP-MIN-OUTLINE-WIDTH-1
 10
2.085
 20
2.134
  0
SEQEND
  8
COMP-MIN-OUTLINE-WIDTH-1
  0
INSERT
  8
COMP-MIN-OUTLINE-WIDTH-1
  2
DISC
 10
2.085
 20
2.134
 41
0.001
 42
0.001
  0
POLYLINE
  8
COMP-MIN-OUTLINE-WIDTH-1
 66
1
 70
0
 40
0.001
 41
0.001
  0
VERTEX
  8
COMP-MIN-OUTLINE-WIDTH-1
 10
2.085
 20
2.134
  0
VERTEX
  8
COMP-MIN-OUTLINE-WIDTH-1
 10
2.065
 20
2.134
  0
SEQEND
  8
COMP-MIN-OUTLINE-WIDTH-1
  0
INSERT
  8
COMP-MIN-OUTLINE-WIDTH-1
  2
DISC
 10
2.065
 20
2.134
 41
0.001
 42
0.001
  0
POLYLINE
  8
COMP-MIN-OUTLINE-WIDTH-1
 66
1
 70
0
 40
0.001
 41
0.001
  0
VERTEX
  8
COMP-MIN-OUTLINE-WIDTH-1
 10
2.065
 20
2.134
  0
VERTEX
  8
COMP-MIN-OUTLINE-WIDTH-1
 10
2.065
 20
2.085
  0
SEQEND
  8
COMP-MIN-OUTLINE-WIDTH-1
  0
INSERT
  8
COMP-MIN-OUTLINE-WIDTH-1
  2
DISC
 10
2.065
 20
2.085
 41
0.001
 42
0.001
  0
POLYLINE
  8
COMP-MIN-OUTLINE-WIDTH-1
 66
1
 70
0
 40
0.001
 41
0.001
  0
VERTEX
  8
COMP-MIN-OUTLINE-WIDTH-1
 10
2.065
 20
2.085
  0
VERTEX
  8
COMP-MIN-OUTLINE-WIDTH-1
 10
2.016
 20
2.085
  0
SEQEND
  8
COMP-MIN-OUTLINE-WIDTH-1
  0
INSERT
  8
COMP-MIN-OUTLINE-WIDTH-1
  2
DISC
 10
2.016
 20
2.085
 41
0.001
 42
0.001
  0
INSERT
  8
COMP-MIN-OUTLINE-WIDTH-1
  2
DISC
 10
1.967
 20
2.075
 41
0.001
 42
0.001
  0
POLYLINE
  8
COMP-MIN-OUTLINE-WIDTH-1
 66
1
 70
0
 40
0.001
 41
0.001
  0
VERTEX
  8
COMP-MIN-OUTLINE-WIDTH-1
 10
1.967
 20
2.075
 42
0.973
  0
VERTEX
  8
COMP-MIN-OUTLINE-WIDTH-1
 10
2.183
 20
2.075
 42
1.000
  0
SEQEND
  8
COMP-MIN-OUTLINE-WIDTH-1
  0
INSERT
  8
COMP-MIN-OUTLINE-WIDTH-1
  2
DISC
 10
2.183
 20
2.075
 41
0.001
 42
0.001
  0
POLYLINE
  8
COMP-MIN-OUTLINE-WIDTH-1
 66
1
 70
0
 40
0.001
 41
0.001
  0
VERTEX
  8
COMP-MIN-OUTLINE-WIDTH-1
 10
2.183
 20
2.075
 42
1.000
  0
VERTEX
  8
COMP-MIN-OUTLINE-WIDTH-1
 10
1.967
 20
2.075
  0
SEQEND
  8
COMP-MIN-OUTLINE-WIDTH-1
  0
INSERT
  8
COMP-MIN-OUTLINE-WIDTH-1
  2
DISC
 10
1.967
 20
2.075
 41
0.001
 42
0.001
  0
ENDBLK
  8
COMP-MIN-OUTLINE-WIDTH-1
  0
BLOCK
  8
0
  2
355D
 70
0
 10
2.050
 20
2.050
  0
INSERT
  8
0
  2
PD7
 10
2.050
 20
2.050
  0
INSERT
  8
0
  2
PD7
 10
2.050
 20
2.150
  0
INSERT
  8
0
  2
PD7
 10
2.050
 20
2.250
  0
INSERT
  8
0
  2
PD7
 10
2.150
 20
2.050
  0
INSERT
  8
0
  2
PD7
 10
2.150
 20
2.150
  0
INSERT
  8
0
  2
PD7
 10
2.150
 20
2.250
  0
INSERT
  8
0
  2
PD7
 10
2.250
 20
2.050
  0
INSERT
  8
0
  2
PD7
 10
2.250
 20
2.150
  0
INSERT
  8
0
  2
PD7
 10
2.250
 20
2.250
  0
INSERT
  8
0
  2
PD7
 10
2.350
 20
2.050
  0
INSERT
  8
0
  2
PD7
 10
2.350
 20
2.150
  0
INSERT
  8
0
  2
PD7
 10
2.350
 20
2.250
  0
INSERT
  8
0
  2
PD7
 10
2.450
 20
2.050
  0
INSERT
  8
0
  2
PD7
 10
2.450
 20
2.150
  0
INSERT
  8
0
  2
PD7
 10
2.450
 20
2.250
  0
INSERT
  8
0
  2
PD7
 10
2.550
 20
2.050
  0
INSERT
  8
0
  2
PD7
 10
2.550
 20
2.150
  0
INSERT
  8
0
  2
PD7
 10
2.550
 20
2.250
  0
INSERT
  8
0
  2
PD7
 10
2.650
 20
2.050
  0
INSERT
  8
0
  2
PD7
 10
2.650
 20
2.150
  0
INSERT
  8
0
  2
PD7
 10
2.650
 20
2.250
  0
INSERT
  8
0
  2
PD7
 10
2.750
 20
2.050
  0
INSERT
  8
0
  2
PD7
 10
2.750
 20
2.150
  0
INSERT
  8
0
  2
PD7
 10
2.750
 20
2.250
  0
INSERT
  8
0
  2
PD6
 10
2.850
 20
2.050
  0
INSERT
  8
0
  2
PD6
 10
2.850
 20
2.150
  0
INSERT
  8
0
  2
PD6
 10
2.850
 20
2.250
  0
ENDBLK
  8
0
  0
BLOCK
  8
0
  2
355N
 70
0
 10
2.050
 20
2.050
  0
INSERT
  8
0
  2
PN7
 10
2.050
 20
2.050
  0
INSERT
  8
0
  2
PN7
 10
2.050
 20
2.150
  0
INSERT
  8
0
  2
PN7
 10
2.050
 20
2.250
  0
INSERT
  8
0
  2
PN7
 10
2.150
 20
2.050
  0
INSERT
  8
0
  2
PN7
 10
2.150
 20
2.150
  0
INSERT
  8
0
  2
PN7
 10
2.150
 20
2.250
  0
INSERT
  8
0
  2
PN7
 10
2.250
 20
2.050
  0
INSERT
  8
0
  2
PN7
 10
2.250
 20
2.150
  0
INSERT
  8
0
  2
PN7
 10
2.250
 20
2.250
  0
INSERT
  8
0
  2
PN7
 10
2.350
 20
2.050
  0
INSERT
  8
0
  2
PN7
 10
2.350
 20
2.150
  0
INSERT
  8
0
  2
PN7
 10
2.350
 20
2.250
  0
INSERT
  8
0
  2
PN7
 10
2.450
 20
2.050
  0
INSERT
  8
0
  2
PN7
 10
2.450
 20
2.150
  0
INSERT
  8
0
  2
PN7
 10
2.450
 20
2.250
  0
INSERT
  8
0
  2
PN7
 10
2.550
 20
2.050
  0
INSERT
  8
0
  2
PN7
 10
2.550
 20
2.150
  0
INSERT
  8
0
  2
PN7
 10
2.550
 20
2.250
  0
INSERT
  8
0
  2
PN7
 10
2.650
 20
2.050
  0
INSERT
  8
0
  2
PN7
 10
2.650
 20
2.150
  0
INSERT
  8
0
  2
PN7
 10
2.650
 20
2.250
  0
INSERT
  8
0
  2
PN7
 10
2.750
 20
2.050
  0
INSERT
  8
0
  2
PN7
 10
2.750
 20
2.150
  0
INSERT
  8
0
  2
PN7
 10
2.750
 20
2.250
  0
INSERT
  8
0
  2
PN6
 10
2.850
 20
2.050
  0
INSERT
  8
0
  2
PN6
 10
2.850
 20
2.150
  0
INSERT
  8
0
  2
PN6
 10
2.850
 20
2.250
  0
ENDBLK
  8
0
  0
BLOCK
  8
0
  2
355I
 70
0
 10
2.050
 20
2.050
  0
INSERT
  8
0
  2
PI7
 10
2.050
 20
2.050
  0
INSERT
  8
0
  2
PI7
 10
2.050
 20
2.150
  0
INSERT
  8
0
  2
PI7
 10
2.050
 20
2.250
  0
INSERT
  8
0
  2
PI7
 10
2.150
 20
2.050
  0
INSERT
  8
0
  2
PI7
 10
2.150
 20
2.150
  0
INSERT
  8
0
  2
PI7
 10
2.150
 20
2.250
  0
INSERT
  8
0
  2
PI7
 10
2.250
 20
2.050
  0
INSERT
  8
0
  2
PI7
 10
2.250
 20
2.150
  0
INSERT
  8
0
  2
PI7
 10
2.250
 20
2.250
  0
INSERT
  8
0
  2
PI7
 10
2.350
 20
2.050
  0
INSERT
  8
0
  2
PI7
 10
2.350
 20
2.150
  0
INSERT
  8
0
  2
PI7
 10
2.350
 20
2.250
  0
INSERT
  8
0
  2
PI7
 10
2.450
 20
2.050
  0
INSERT
  8
0
  2
PI7
 10
2.450
 20
2.150
  0
INSERT
  8
0
  2
PI7
 10
2.450
 20
2.250
  0
INSERT
  8
0
  2
PI7
 10
2.550
 20
2.050
  0
INSERT
  8
0
  2
PI7
 10
2.550
 20
2.150
  0
INSERT
  8
0
  2
PI7
 10
2.550
 20
2.250
  0
INSERT
  8
0
  2
PI7
 10
2.650
 20
2.050
  0
INSERT
  8
0
  2
PI7
 10
2.650
 20
2.150
  0
INSERT
  8
0
  2
PI7
 10
2.650
 20
2.250
  0
INSERT
  8
0
  2
PI7
 10
2.750
 20
2.050
  0
INSERT
  8
0
  2
PI7
 10
2.750
 20
2.150
  0
INSERT
  8
0
  2
PI7
 10
2.750
 20
2.250
  0
INSERT
  8
0
  2
PI6
 10
2.850
 20
2.050
  0
INSERT
  8
0
  2
PI6
 10
2.850
 20
2.150
  0
INSERT
  8
0
  2
PI6
 10
2.850
 20
2.250
  0
ENDBLK
  8
0
  0
BLOCK
  8
0
  2
355X
 70
0
 10
2.050
 20
2.050
  0
INSERT
  8
0
  2
PX7
 10
2.050
 20
2.050
  0
INSERT
  8
0
  2
PX7
 10
2.050
 20
2.150
  0
INSERT
  8
0
  2
PX7
 10
2.050
 20
2.250
  0
INSERT
  8
0
  2
PX7
 10
2.150
 20
2.050
  0
INSERT
  8
0
  2
PX7
 10
2.150
 20
2.150
  0
INSERT
  8
0
  2
PX7
 10
2.150
 20
2.250
  0
INSERT
  8
0
  2
PX7
 10
2.250
 20
2.050
  0
INSERT
  8
0
  2
PX7
 10
2.250
 20
2.150
  0
INSERT
  8
0
  2
PX7
 10
2.250
 20
2.250
  0
INSERT
  8
0
  2
PX7
 10
2.350
 20
2.050
  0
INSERT
  8
0
  2
PX7
 10
2.350
 20
2.150
  0
INSERT
  8
0
  2
PX7
 10
2.350
 20
2.250
  0
INSERT
  8
0
  2
PX7
 10
2.450
 20
2.050
  0
INSERT
  8
0
  2
PX7
 10
2.450
 20
2.150
  0
INSERT
  8
0
  2
PX7
 10
2.450
 20
2.250
  0
INSERT
  8
0
  2
PX7
 10
2.550
 20
2.050
  0
INSERT
  8
0
  2
PX7
 10
2.550
 20
2.150
  0
INSERT
  8
0
  2
PX7
 10
2.550
 20
2.250
  0
INSERT
  8
0
  2
PX7
 10
2.650
 20
2.050
  0
INSERT
  8
0
  2
PX7
 10
2.650
 20
2.150
  0
INSERT
  8
0
  2
PX7
 10
2.650
 20
2.250
  0
INSERT
  8
0
  2
PX7
 10
2.750
 20
2.050
  0
INSERT
  8
0
  2
PX7
 10
2.750
 20
2.150
  0
INSERT
  8
0
  2
PX7
 10
2.750
 20
2.250
  0
INSERT
  8
0
  2
PX6
 10
2.850
 20
2.050
  0
INSERT
  8
0
  2
PX6
 10
2.850
 20
2.150
  0
INSERT
  8
0
  2
PX6
 10
2.850
 20
2.250
  0
ENDBLK
  8
0
  0
BLOCK
  8
0
  2
355
 70
0
 10
2.050
 20
2.050
  0
INSERT
  8
COMP-MIN-OUTLINE-WIDTH-1
  2
DISC
 10
2.005
 20
2.005
 41
0.001
 42
0.001
  0
POLYLINE
  8
COMP-MIN-OUTLINE-WIDTH-1
 66
1
 70
0
 40
0.001
 41
0.001
  0
VERTEX
  8
COMP-MIN-OUTLINE-WIDTH-1
 10
2.005
 20
2.005
  0
VERTEX
  8
COMP-MIN-OUTLINE-WIDTH-1
 10
2.005
 20
2.295
  0
SEQEND
  8
COMP-MIN-OUTLINE-WIDTH-1
  0
INSERT
  8
COMP-MIN-OUTLINE-WIDTH-1
  2
DISC
 10
2.005
 20
2.295
 41
0.001
 42
0.001
  0
POLYLINE
  8
COMP-MIN-OUTLINE-WIDTH-1
 66
1
 70
0
 40
0.001
 41
0.001
  0
VERTEX
  8
COMP-MIN-OUTLINE-WIDTH-1
 10
2.005
 20
2.295
  0
VERTEX
  8
COMP-MIN-OUTLINE-WIDTH-1
 10
2.895
 20
2.295
  0
SEQEND
  8
COMP-MIN-OUTLINE-WIDTH-1
  0
INSERT
  8
COMP-MIN-OUTLINE-WIDTH-1
  2
DISC
 10
2.895
 20
2.295
 41
0.001
 42
0.001
  0
POLYLINE
  8
COMP-MIN-OUTLINE-WIDTH-1
 66
1
 70
0
 40
0.001
 41
0.001
  0
VERTEX
  8
COMP-MIN-OUTLINE-WIDTH-1
 10
2.895
 20
2.295
  0
VERTEX
  8
COMP-MIN-OUTLINE-WIDTH-1
 10
2.895
 20
2.005
  0
SEQEND
  8
COMP-MIN-OUTLINE-WIDTH-1
  0
INSERT
  8
COMP-MIN-OUTLINE-WIDTH-1
  2
DISC
 10
2.895
 20
2.005
 41
0.001
 42
0.001
  0
POLYLINE
  8
COMP-MIN-OUTLINE-WIDTH-1
 66
1
 70
0
 40
0.001
 41
0.001
  0
VERTEX
  8
COMP-MIN-OUTLINE-WIDTH-1
 10
2.895
 20
2.005
  0
VERTEX
  8
COMP-MIN-OUTLINE-WIDTH-1
 10
2.005
 20
2.005
  0
SEQEND
  8
COMP-MIN-OUTLINE-WIDTH-1
  0
INSERT
  8
COMP-MIN-OUTLINE-WIDTH-1
  2
DISC
 10
2.005
 20
2.005
 41
0.001
 42
0.001
  0
INSERT
  8
COMP-MIN-OUTLINE-WIDTH-1
  2
DISC
 10
2.005
 20
2.045
 41
0.001
 42
0.001
  0
POLYLINE
  8
COMP-MIN-OUTLINE-WIDTH-1
 66
1
 70
0
 40
0.001
 41
0.001
  0
VERTEX
  8
COMP-MIN-OUTLINE-WIDTH-1
 10
2.005
 20
2.045
  0
VERTEX
  8
COMP-MIN-OUTLINE-WIDTH-1
 10
2.045
 20
2.005
  0
SEQEND
  8
COMP-MIN-OUTLINE-WIDTH-1
  0
INSERT
  8
COMP-MIN-OUTLINE-WIDTH-1
  2
DISC
 10
2.045
 20
2.005
 41
0.001
 42
0.001
  0
ENDBLK
  8
COMP-MIN-OUTLINE-WIDTH-1
  0
BLOCK
  8
0
  2
488D
 70
0
 10
2.050
 20
2.075
  0
INSERT
  8
0
  2
PD5
 10
2.050
 20
2.075
  0
INSERT
  8
0
  2
PD5
 10
2.150
 20
2.075
  0
ENDBLK
  8
0
  0
BLOCK
  8
0
  2
488N
 70
0
 10
2.050
 20
2.075
  0
INSERT
  8
0
  2
PN5
 10
2.050
 20
2.075
  0
INSERT
  8
0
  2
PN5
 10
2.150
 20
2.075
  0
ENDBLK
  8
0
  0
BLOCK
  8
0
  2
488I
 70
0
 10
2.050
 20
2.075
  0
INSERT
  8
0
  2
PI5
 10
2.050
 20
2.075
  0
INSERT
  8
0
  2
PI5
 10
2.150
 20
2.075
  0
ENDBLK
  8
0
  0
BLOCK
  8
0
  2
488X
 70
0
 10
2.050
 20
2.075
  0
INSERT
  8
0
  2
PX5
 10
2.050
 20
2.075
  0
INSERT
  8
0
  2
PX5
 10
2.150
 20
2.075
  0
ENDBLK
  8
0
  0
BLOCK
  8
0
  2
488
 70
0
 10
2.050
 20
2.075
  0
INSERT
  8
COMP-MIN-OUTLINE-WIDTH-1
  2
DISC
 10
2.036
 20
2.145
 41
0.001
 42
0.001
  0
POLYLINE
  8
COMP-MIN-OUTLINE-WIDTH-1
 66
1
 70
0
 40
0.001
 41
0.001
  0
VERTEX
  8
COMP-MIN-OUTLINE-WIDTH-1
 10
2.036
 20
2.145
  0
VERTEX
  8
COMP-MIN-OUTLINE-WIDTH-1
 10
2.164
 20
2.145
  0
SEQEND
  8
COMP-MIN-OUTLINE-WIDTH-1
  0
INSERT
  8
COMP-MIN-OUTLINE-WIDTH-1
  2
DISC
 10
2.164
 20
2.145
 41
0.001
 42
0.001
  0
INSERT
  8
COMP-MIN-OUTLINE-WIDTH-1
  2
DISC
 10
2.164
 20
2.005
 41
0.001
 42
0.001
  0
POLYLINE
  8
COMP-MIN-OUTLINE-WIDTH-1
 66
1
 70
0
 40
0.001
 41
0.001
  0
VERTEX
  8
COMP-MIN-OUTLINE-WIDTH-1
 10
2.164
 20
2.005
  0
VERTEX
  8
COMP-MIN-OUTLINE-WIDTH-1
 10
2.036
 20
2.005
  0
SEQEND
  8
COMP-MIN-OUTLINE-WIDTH-1
  0
INSERT
  8
COMP-MIN-OUTLINE-WIDTH-1
  2
DISC
 10
2.036
 20
2.005
 41
0.001
 42
0.001
  0
INSERT
  8
COMP-MIN-OUTLINE-WIDTH-1
  2
DISC
 10
2.001
 20
2.110
 41
0.001
 42
0.001
  0
POLYLINE
  8
COMP-MIN-OUTLINE-WIDTH-1
 66
1
 70
0
 40
0.001
 41
0.001
  0
VERTEX
  8
COMP-MIN-OUTLINE-WIDTH-1
 10
2.001
 20
2.110
  0
VERTEX
  8
COMP-MIN-OUTLINE-WIDTH-1
 10
2.001
 20
2.040
  0
SEQEND
  8
COMP-MIN-OUTLINE-WIDTH-1
  0
INSERT
  8
COMP-MIN-OUTLINE-WIDTH-1
  2
DISC
 10
2.001
 20
2.040
 41
0.001
 42
0.001
  0
INSERT
  8
COMP-MIN-OUTLINE-WIDTH-1
  2
DISC
 10
2.199
 20
2.110
 41
0.001
 42
0.001
  0
POLYLINE
  8
COMP-MIN-OUTLINE-WIDTH-1
 66
1
 70
0
 40
0.001
 41
0.001
  0
VERTEX
  8
COMP-MIN-OUTLINE-WIDTH-1
 10
2.199
 20
2.110
  0
VERTEX
  8
COMP-MIN-OUTLINE-WIDTH-1
 10
2.199
 20
2.040
  0
SEQEND
  8
COMP-MIN-OUTLINE-WIDTH-1
  0
INSERT
  8
COMP-MIN-OUTLINE-WIDTH-1
  2
DISC
 10
2.199
 20
2.040
 41
0.001
 42
0.001
  0
INSERT
  8
COMP-MIN-OUTLINE-WIDTH-1
  2
DISC
 10
2.001
 20
2.040
 41
0.001
 42
0.001
  0
POLYLINE
  8
COMP-MIN-OUTLINE-WIDTH-1
 66
1
 70
0
 40
0.001
 41
0.001
  0
VERTEX
  8
COMP-MIN-OUTLINE-WIDTH-1
 10
2.001
 20
2.040
 42
0.424
  0
VERTEX
  8
COMP-MIN-OUTLINE-WIDTH-1
 10
2.036
 20
2.005
  0
SEQEND
  8
COMP-MIN-OUTLINE-WIDTH-1
  0
INSERT
  8
COMP-MIN-OUTLINE-WIDTH-1
  2
DISC
 10
2.036
 20
2.005
 41
0.001
 42
0.001
  0
INSERT
  8
COMP-MIN-OUTLINE-WIDTH-1
  2
DISC
 10
2.001
 20
2.110
 41
0.001
 42
0.001
  0
POLYLINE
  8
COMP-MIN-OUTLINE-WIDTH-1
 66
1
 70
0
 40
0.001
 41
0.001
  0
VERTEX
  8
COMP-MIN-OUTLINE-WIDTH-1
 10
2.001
 20
2.110
 42
-0.424
  0
VERTEX
  8
COMP-MIN-OUTLINE-WIDTH-1
 10
2.036
 20
2.145
  0
SEQEND
  8
COMP-MIN-OUTLINE-WIDTH-1
  0
INSERT
  8
COMP-MIN-OUTLINE-WIDTH-1
  2
DISC
 10
2.036
 20
2.145
 41
0.001
 42
0.001
  0
INSERT
  8
COMP-MIN-OUTLINE-WIDTH-1
  2
DISC
 10
2.164
 20
2.145
 41
0.001
 42
0.001
  0
POLYLINE
  8
COMP-MIN-OUTLINE-WIDTH-1
 66
1
 70
0
 40
0.001
 41
0.001
  0
VERTEX
  8
COMP-MIN-OUTLINE-WIDTH-1
 10
2.164
 20
2.145
 42
-0.383
  0
VERTEX
  8
COMP-MIN-OUTLINE-WIDTH-1
 10
2.199
 20
2.110
  0
SEQEND
  8
COMP-MIN-OUTLINE-WIDTH-1
  0
INSERT
  8
COMP-MIN-OUTLINE-WIDTH-1
  2
DISC
 10
2.199
 20
2.110
 41
0.001
 42
0.001
  0
INSERT
  8
COMP-MIN-OUTLINE-WIDTH-1
  2
DISC
 10
2.199
 20
2.040
 41
0.001
 42
0.001
  0
POLYLINE
  8
COMP-MIN-OUTLINE-WIDTH-1
 66
1
 70
0
 40
0.001
 41
0.001
  0
VERTEX
  8
COMP-MIN-OUTLINE-WIDTH-1
 10
2.199
 20
2.040
 42
-0.383
  0
VERTEX
  8
COMP-MIN-OUTLINE-WIDTH-1
 10
2.164
 20
2.005
  0
SEQEND
  8
COMP-MIN-OUTLINE-WIDTH-1
  0
INSERT
  8
COMP-MIN-OUTLINE-WIDTH-1
  2
DISC
 10
2.164
 20
2.005
 41
0.001
 42
0.001
  0
ENDBLK
  8
COMP-MIN-OUTLINE-WIDTH-1
  0
BLOCK
  8
0
  2
583D
 70
0
 10
2.100
 20
2.100
  0
INSERT
  8
0
  2
PD7
 10
2.800
 20
2.400
  0
INSERT
  8
0
  2
PD7
 10
2.700
 20
2.400
  0
INSERT
  8
0
  2
PD7
 10
3.000
 20
2.400
  0
INSERT
  8
0
  2
PD7
 10
2.500
 20
2.400
  0
INSERT
  8
0
  2
PD7
 10
3.200
 20
2.400
  0
INSERT
  8
0
  2
PD7
 10
2.300
 20
2.400
  0
INSERT
  8
0
  2
PD7
 10
3.400
 20
2.400
  0
INSERT
  8
0
  2
PD7
 10
2.100
 20
2.400
  0
INSERT
  8
0
  2
PD7
 10
2.100
 20
2.100
  0
INSERT
  8
0
  2
PD7
 10
3.400
 20
2.100
  0
INSERT
  8
0
  2
PD7
 10
2.300
 20
2.100
  0
INSERT
  8
0
  2
PD7
 10
3.200
 20
2.100
  0
INSERT
  8
0
  2
PD7
 10
2.500
 20
2.100
  0
INSERT
  8
0
  2
PD7
 10
3.000
 20
2.100
  0
INSERT
  8
0
  2
PD7
 10
2.700
 20
2.100
  0
INSERT
  8
0
  2
PD7
 10
2.800
 20
2.100
  0
ENDBLK
  8
0
  0
BLOCK
  8
0
  2
583N
 70
0
 10
2.100
 20
2.100
  0
INSERT
  8
0
  2
PN7
 10
2.800
 20
2.400
  0
INSERT
  8
0
  2
PN7
 10
2.700
 20
2.400
  0
INSERT
  8
0
  2
PN7
 10
3.000
 20
2.400
  0
INSERT
  8
0
  2
PN7
 10
2.500
 20
2.400
  0
INSERT
  8
0
  2
PN7
 10
3.200
 20
2.400
  0
INSERT
  8
0
  2
PN7
 10
2.300
 20
2.400
  0
INSERT
  8
0
  2
PN7
 10
3.400
 20
2.400
  0
INSERT
  8
0
  2
PN7
 10
2.100
 20
2.400
  0
INSERT
  8
0
  2
PN7
 10
2.100
 20
2.100
  0
INSERT
  8
0
  2
PN7
 10
3.400
 20
2.100
  0
INSERT
  8
0
  2
PN7
 10
2.300
 20
2.100
  0
INSERT
  8
0
  2
PN7
 10
3.200
 20
2.100
  0
INSERT
  8
0
  2
PN7
 10
2.500
 20
2.100
  0
INSERT
  8
0
  2
PN7
 10
3.000
 20
2.100
  0
INSERT
  8
0
  2
PN7
 10
2.700
 20
2.100
  0
INSERT
  8
0
  2
PN7
 10
2.800
 20
2.100
  0
ENDBLK
  8
0
  0
BLOCK
  8
0
  2
583I
 70
0
 10
2.100
 20
2.100
  0
INSERT
  8
0
  2
PI7
 10
2.800
 20
2.400
  0
INSERT
  8
0
  2
PI7
 10
2.700
 20
2.400
  0
INSERT
  8
0
  2
PI7
 10
3.000
 20
2.400
  0
INSERT
  8
0
  2
PI7
 10
2.500
 20
2.400
  0
INSERT
  8
0
  2
PI7
 10
3.200
 20
2.400
  0
INSERT
  8
0
  2
PI7
 10
2.300
 20
2.400
  0
INSERT
  8
0
  2
PI7
 10
3.400
 20
2.400
  0
INSERT
  8
0
  2
PI7
 10
2.100
 20
2.400
  0
INSERT
  8
0
  2
PI7
 10
2.100
 20
2.100
  0
INSERT
  8
0
  2
PI7
 10
3.400
 20
2.100
  0
INSERT
  8
0
  2
PI7
 10
2.300
 20
2.100
  0
INSERT
  8
0
  2
PI7
 10
3.200
 20
2.100
  0
INSERT
  8
0
  2
PI7
 10
2.500
 20
2.100
  0
INSERT
  8
0
  2
PI7
 10
3.000
 20
2.100
  0
INSERT
  8
0
  2
PI7
 10
2.700
 20
2.100
  0
INSERT
  8
0
  2
PI7
 10
2.800
 20
2.100
  0
ENDBLK
  8
0
  0
BLOCK
  8
0
  2
583X
 70
0
 10
2.100
 20
2.100
  0
INSERT
  8
0
  2
PX7
 10
2.800
 20
2.400
  0
INSERT
  8
0
  2
PX7
 10
2.700
 20
2.400
  0
INSERT
  8
0
  2
PX7
 10
3.000
 20
2.400
  0
INSERT
  8
0
  2
PX7
 10
2.500
 20
2.400
  0
INSERT
  8
0
  2
PX7
 10
3.200
 20
2.400
  0
INSERT
  8
0
  2
PX7
 10
2.300
 20
2.400
  0
INSERT
  8
0
  2
PX7
 10
3.400
 20
2.400
  0
INSERT
  8
0
  2
PX7
 10
2.100
 20
2.400
  0
INSERT
  8
0
  2
PX7
 10
2.100
 20
2.100
  0
INSERT
  8
0
  2
PX7
 10
3.400
 20
2.100
  0
INSERT
  8
0
  2
PX7
 10
2.300
 20
2.100
  0
INSERT
  8
0
  2
PX7
 10
3.200
 20
2.100
  0
INSERT
  8
0
  2
PX7
 10
2.500
 20
2.100
  0
INSERT
  8
0
  2
PX7
 10
3.000
 20
2.100
  0
INSERT
  8
0
  2
PX7
 10
2.700
 20
2.100
  0
INSERT
  8
0
  2
PX7
 10
2.800
 20
2.100
  0
ENDBLK
  8
0
  0
BLOCK
  8
0
  2
583
 70
0
 10
2.100
 20
2.100
  0
INSERT
  8
COMP-MIN-OUTLINE-WIDTH-1
  2
DISC
 10
2.005
 20
2.495
 41
0.001
 42
0.001
  0
POLYLINE
  8
COMP-MIN-OUTLINE-WIDTH-1
 66
1
 70
0
 40
0.001
 41
0.001
  0
VERTEX
  8
COMP-MIN-OUTLINE-WIDTH-1
 10
2.005
 20
2.495
  0
VERTEX
  8
COMP-MIN-OUTLINE-WIDTH-1
 10
2.005
 20
2.005
  0
SEQEND
  8
COMP-MIN-OUTLINE-WIDTH-1
  0
INSERT
  8
COMP-MIN-OUTLINE-WIDTH-1
  2
DISC
 10
2.005
 20
2.005
 41
0.001
 42
0.001
  0
POLYLINE
  8
COMP-MIN-OUTLINE-WIDTH-1
 66
1
 70
0
 40
0.001
 41
0.001
  0
VERTEX
  8
COMP-MIN-OUTLINE-WIDTH-1
 10
2.005
 20
2.005
  0
VERTEX
  8
COMP-MIN-OUTLINE-WIDTH-1
 10
3.445
 20
2.005
  0
SEQEND
  8
COMP-MIN-OUTLINE-WIDTH-1
  0
INSERT
  8
COMP-MIN-OUTLINE-WIDTH-1
  2
DISC
 10
3.445
 20
2.005
 41
0.001
 42
0.001
  0
POLYLINE
  8
COMP-MIN-OUTLINE-WIDTH-1
 66
1
 70
0
 40
0.001
 41
0.001
  0
VERTEX
  8
COMP-MIN-OUTLINE-WIDTH-1
 10
3.445
 20
2.005
  0
VERTEX
  8
COMP-MIN-OUTLINE-WIDTH-1
 10
3.445
 20
2.495
  0
SEQEND
  8
COMP-MIN-OUTLINE-WIDTH-1
  0
INSERT
  8
COMP-MIN-OUTLINE-WIDTH-1
  2
DISC
 10
3.445
 20
2.495
 41
0.001
 42
0.001
  0
POLYLINE
  8
COMP-MIN-OUTLINE-WIDTH-1
 66
1
 70
0
 40
0.001
 41
0.001
  0
VERTEX
  8
COMP-MIN-OUTLINE-WIDTH-1
 10
3.445
 20
2.495
  0
VERTEX
  8
COMP-MIN-OUTLINE-WIDTH-1
 10
2.005
 20
2.495
  0
SEQEND
  8
COMP-MIN-OUTLINE-WIDTH-1
  0
INSERT
  8
COMP-MIN-OUTLINE-WIDTH-1
  2
DISC
 10
2.005
 20
2.495
 41
0.001
 42
0.001
  0
INSERT
  8
COMP-MIN-OUTLINE-WIDTH-2
  2
DISC
 10
2.090
 20
2.400
 41
0.001
 42
0.001
  0
POLYLINE
  8
COMP-MIN-OUTLINE-WIDTH-2
 66
1
 70
0
 40
0.001
 41
0.001
  0
VERTEX
  8
COMP-MIN-OUTLINE-WIDTH-2
 10
2.090
 20
2.400
 42
1.000
  0
VERTEX
  8
COMP-MIN-OUTLINE-WIDTH-2
 10
2.110
 20
2.400
 42
1.000
  0
SEQEND
  8
COMP-MIN-OUTLINE-WIDTH-2
  0
INSERT
  8
COMP-MIN-OUTLINE-WIDTH-2
  2
DISC
 10
2.110
 20
2.400
 41
0.001
 42
0.001
  0
POLYLINE
  8
COMP-MIN-OUTLINE-WIDTH-2
 66
1
 70
0
 40
0.001
 41
0.001
  0
VERTEX
  8
COMP-MIN-OUTLINE-WIDTH-2
 10
2.110
 20
2.400
 42
1.000
  0
VERTEX
  8
COMP-MIN-OUTLINE-WIDTH-2
 10
2.090
 20
2.400
  0
SEQEND
  8
COMP-MIN-OUTLINE-WIDTH-2
  0
INSERT
  8
COMP-MIN-OUTLINE-WIDTH-2
  2
DISC
 10
2.090
 20
2.400
 41
0.001
 42
0.001
  0
INSERT
  8
COMP-MIN-OUTLINE-WIDTH-2
  2
DISC
 10
2.290
 20
2.400
 41
0.001
 42
0.001
  0
POLYLINE
  8
COMP-MIN-OUTLINE-WIDTH-2
 66
1
 70
0
 40
0.001
 41
0.001
  0
VERTEX
  8
COMP-MIN-OUTLINE-WIDTH-2
 10
2.290
 20
2.400
 42
1.000
  0
VERTEX
  8
COMP-MIN-OUTLINE-WIDTH-2
 10
2.310
 20
2.400
 42
1.000
  0
SEQEND
  8
COMP-MIN-OUTLINE-WIDTH-2
  0
INSERT
  8
COMP-MIN-OUTLINE-WIDTH-2
  2
DISC
 10
2.310
 20
2.400
 41
0.001
 42
0.001
  0
POLYLINE
  8
COMP-MIN-OUTLINE-WIDTH-2
 66
1
 70
0
 40
0.001
 41
0.001
  0
VERTEX
  8
COMP-MIN-OUTLINE-WIDTH-2
 10
2.310
 20
2.400
 42
1.000
  0
VERTEX
  8
COMP-MIN-OUTLINE-WIDTH-2
 10
2.290
 20
2.400
  0
SEQEND
  8
COMP-MIN-OUTLINE-WIDTH-2
  0
INSERT
  8
COMP-MIN-OUTLINE-WIDTH-2
  2
DISC
 10
2.290
 20
2.400
 41
0.001
 42
0.001
  0
INSERT
  8
COMP-MIN-OUTLINE-WIDTH-2
  2
DISC
 10
2.490
 20
2.400
 41
0.001
 42
0.001
  0
POLYLINE
  8
COMP-MIN-OUTLINE-WIDTH-2
 66
1
 70
0
 40
0.001
 41
0.001
  0
VERTEX
  8
COMP-MIN-OUTLINE-WIDTH-2
 10
2.490
 20
2.400
 42
1.000
  0
VERTEX
  8
COMP-MIN-OUTLINE-WIDTH-2
 10
2.510
 20
2.400
 42
1.000
  0
SEQEND
  8
COMP-MIN-OUTLINE-WIDTH-2
  0
INSERT
  8
COMP-MIN-OUTLINE-WIDTH-2
  2
DISC
 10
2.510
 20
2.400
 41
0.001
 42
0.001
  0
POLYLINE
  8
COMP-MIN-OUTLINE-WIDTH-2
 66
1
 70
0
 40
0.001
 41
0.001
  0
VERTEX
  8
COMP-MIN-OUTLINE-WIDTH-2
 10
2.510
 20
2.400
 42
1.000
  0
VERTEX
  8
COMP-MIN-OUTLINE-WIDTH-2
 10
2.490
 20
2.400
  0
SEQEND
  8
COMP-MIN-OUTLINE-WIDTH-2
  0
INSERT
  8
COMP-MIN-OUTLINE-WIDTH-2
  2
DISC
 10
2.490
 20
2.400
 41
0.001
 42
0.001
  0
INSERT
  8
COMP-MIN-OUTLINE-WIDTH-2
  2
DISC
 10
2.790
 20
2.400
 41
0.001
 42
0.001
  0
POLYLINE
  8
COMP-MIN-OUTLINE-WIDTH-2
 66
1
 70
0
 40
0.001
 41
0.001
  0
VERTEX
  8
COMP-MIN-OUTLINE-WIDTH-2
 10
2.790
 20
2.400
 42
1.000
  0
VERTEX
  8
COMP-MIN-OUTLINE-WIDTH-2
 10
2.810
 20
2.400
 42
1.000
  0
SEQEND
  8
COMP-MIN-OUTLINE-WIDTH-2
  0
INSERT
  8
COMP-MIN-OUTLINE-WIDTH-2
  2
DISC
 10
2.810
 20
2.400
 41
0.001
 42
0.001
  0
POLYLINE
  8
COMP-MIN-OUTLINE-WIDTH-2
 66
1
 70
0
 40
0.001
 41
0.001
  0
VERTEX
  8
COMP-MIN-OUTLINE-WIDTH-2
 10
2.810
 20
2.400
 42
1.000
  0
VERTEX
  8
COMP-MIN-OUTLINE-WIDTH-2
 10
2.790
 20
2.400
  0
SEQEND
  8
COMP-MIN-OUTLINE-WIDTH-2
  0
INSERT
  8
COMP-MIN-OUTLINE-WIDTH-2
  2
DISC
 10
2.790
 20
2.400
 41
0.001
 42
0.001
  0
INSERT
  8
COMP-MIN-OUTLINE-WIDTH-2
  2
DISC
 10
2.990
 20
2.400
 41
0.001
 42
0.001
  0
POLYLINE
  8
COMP-MIN-OUTLINE-WIDTH-2
 66
1
 70
0
 40
0.001
 41
0.001
  0
VERTEX
  8
COMP-MIN-OUTLINE-WIDTH-2
 10
2.990
 20
2.400
 42
1.000
  0
VERTEX
  8
COMP-MIN-OUTLINE-WIDTH-2
 10
3.010
 20
2.400
 42
1.000
  0
SEQEND
  8
COMP-MIN-OUTLINE-WIDTH-2
  0
INSERT
  8
COMP-MIN-OUTLINE-WIDTH-2
  2
DISC
 10
3.010
 20
2.400
 41
0.001
 42
0.001
  0
POLYLINE
  8
COMP-MIN-OUTLINE-WIDTH-2
 66
1
 70
0
 40
0.001
 41
0.001
  0
VERTEX
  8
COMP-MIN-OUTLINE-WIDTH-2
 10
3.010
 20
2.400
 42
1.000
  0
VERTEX
  8
COMP-MIN-OUTLINE-WIDTH-2
 10
2.990
 20
2.400
  0
SEQEND
  8
COMP-MIN-OUTLINE-WIDTH-2
  0
INSERT
  8
COMP-MIN-OUTLINE-WIDTH-2
  2
DISC
 10
2.990
 20
2.400
 41
0.001
 42
0.001
  0
INSERT
  8
COMP-MIN-OUTLINE-WIDTH-2
  2
DISC
 10
3.190
 20
2.400
 41
0.001
 42
0.001
  0
POLYLINE
  8
COMP-MIN-OUTLINE-WIDTH-2
 66
1
 70
0
 40
0.001
 41
0.001
  0
VERTEX
  8
COMP-MIN-OUTLINE-WIDTH-2
 10
3.190
 20
2.400
 42
1.000
  0
VERTEX
  8
COMP-MIN-OUTLINE-WIDTH-2
 10
3.210
 20
2.400
 42
1.000
  0
SEQEND
  8
COMP-MIN-OUTLINE-WIDTH-2
  0
INSERT
  8
COMP-MIN-OUTLINE-WIDTH-2
  2
DISC
 10
3.210
 20
2.400
 41
0.001
 42
0.001
  0
POLYLINE
  8
COMP-MIN-OUTLINE-WIDTH-2
 66
1
 70
0
 40
0.001
 41
0.001
  0
VERTEX
  8
COMP-MIN-OUTLINE-WIDTH-2
 10
3.210
 20
2.400
 42
1.000
  0
VERTEX
  8
COMP-MIN-OUTLINE-WIDTH-2
 10
3.190
 20
2.400
  0
SEQEND
  8
COMP-MIN-OUTLINE-WIDTH-2
  0
INSERT
  8
COMP-MIN-OUTLINE-WIDTH-2
  2
DISC
 10
3.190
 20
2.400
 41
0.001
 42
0.001
  0
INSERT
  8
COMP-MIN-OUTLINE-WIDTH-2
  2
DISC
 10
3.390
 20
2.400
 41
0.001
 42
0.001
  0
POLYLINE
  8
COMP-MIN-OUTLINE-WIDTH-2
 66
1
 70
0
 40
0.001
 41
0.001
  0
VERTEX
  8
COMP-MIN-OUTLINE-WIDTH-2
 10
3.390
 20
2.400
 42
1.000
  0
VERTEX
  8
COMP-MIN-OUTLINE-WIDTH-2
 10
3.410
 20
2.400
 42
1.000
  0
SEQEND
  8
COMP-MIN-OUTLINE-WIDTH-2
  0
INSERT
  8
COMP-MIN-OUTLINE-WIDTH-2
  2
DISC
 10
3.410
 20
2.400
 41
0.001
 42
0.001
  0
POLYLINE
  8
COMP-MIN-OUTLINE-WIDTH-2
 66
1
 70
0
 40
0.001
 41
0.001
  0
VERTEX
  8
COMP-MIN-OUTLINE-WIDTH-2
 10
3.410
 20
2.400
 42
1.000
  0
VERTEX
  8
COMP-MIN-OUTLINE-WIDTH-2
 10
3.390
 20
2.400
  0
SEQEND
  8
COMP-MIN-OUTLINE-WIDTH-2
  0
INSERT
  8
COMP-MIN-OUTLINE-WIDTH-2
  2
DISC
 10
3.390
 20
2.400
 41
0.001
 42
0.001
  0
INSERT
  8
COMP-MIN-OUTLINE-WIDTH-2
  2
DISC
 10
3.390
 20
2.100
 41
0.001
 42
0.001
  0
POLYLINE
  8
COMP-MIN-OUTLINE-WIDTH-2
 66
1
 70
0
 40
0.001
 41
0.001
  0
VERTEX
  8
COMP-MIN-OUTLINE-WIDTH-2
 10
3.390
 20
2.100
 42
1.000
  0
VERTEX
  8
COMP-MIN-OUTLINE-WIDTH-2
 10
3.410
 20
2.100
 42
1.000
  0
SEQEND
  8
COMP-MIN-OUTLINE-WIDTH-2
  0
INSERT
  8
COMP-MIN-OUTLINE-WIDTH-2
  2
DISC
 10
3.410
 20
2.100
 41
0.001
 42
0.001
  0
POLYLINE
  8
COMP-MIN-OUTLINE-WIDTH-2
 66
1
 70
0
 40
0.001
 41
0.001
  0
VERTEX
  8
COMP-MIN-OUTLINE-WIDTH-2
 10
3.410
 20
2.100
 42
1.000
  0
VERTEX
  8
COMP-MIN-OUTLINE-WIDTH-2
 10
3.390
 20
2.100
  0
SEQEND
  8
COMP-MIN-OUTLINE-WIDTH-2
  0
INSERT
  8
COMP-MIN-OUTLINE-WIDTH-2
  2
DISC
 10
3.390
 20
2.100
 41
0.001
 42
0.001
  0
INSERT
  8
COMP-MIN-OUTLINE-WIDTH-2
  2
DISC
 10
3.210
 20
2.100
 41
0.001
 42
0.001
  0
POLYLINE
  8
COMP-MIN-OUTLINE-WIDTH-2
 66
1
 70
0
 40
0.001
 41
0.001
  0
VERTEX
  8
COMP-MIN-OUTLINE-WIDTH-2
 10
3.210
 20
2.100
 42
1.000
  0
VERTEX
  8
COMP-MIN-OUTLINE-WIDTH-2
 10
3.190
 20
2.100
 42
1.000
  0
SEQEND
  8
COMP-MIN-OUTLINE-WIDTH-2
  0
INSERT
  8
COMP-MIN-OUTLINE-WIDTH-2
  2
DISC
 10
3.190
 20
2.100
 41
0.001
 42
0.001
  0
POLYLINE
  8
COMP-MIN-OUTLINE-WIDTH-2
 66
1
 70
0
 40
0.001
 41
0.001
  0
VERTEX
  8
COMP-MIN-OUTLINE-WIDTH-2
 10
3.190
 20
2.100
 42
1.000
  0
VERTEX
  8
COMP-MIN-OUTLINE-WIDTH-2
 10
3.210
 20
2.100
  0
SEQEND
  8
COMP-MIN-OUTLINE-WIDTH-2
  0
INSERT
  8
COMP-MIN-OUTLINE-WIDTH-2
  2
DISC
 10
3.210
 20
2.100
 41
0.001
 42
0.001
  0
INSERT
  8
COMP-MIN-OUTLINE-WIDTH-2
  2
DISC
 10
3.010
 20
2.100
 41
0.001
 42
0.001
  0
POLYLINE
  8
COMP-MIN-OUTLINE-WIDTH-2
 66
1
 70
0
 40
0.001
 41
0.001
  0
VERTEX
  8
COMP-MIN-OUTLINE-WIDTH-2
 10
3.010
 20
2.100
 42
1.000
  0
VERTEX
  8
COMP-MIN-OUTLINE-WIDTH-2
 10
2.990
 20
2.100
 42
1.000
  0
SEQEND
  8
COMP-MIN-OUTLINE-WIDTH-2
  0
INSERT
  8
COMP-MIN-OUTLINE-WIDTH-2
  2
DISC
 10
2.990
 20
2.100
 41
0.001
 42
0.001
  0
POLYLINE
  8
COMP-MIN-OUTLINE-WIDTH-2
 66
1
 70
0
 40
0.001
 41
0.001
  0
VERTEX
  8
COMP-MIN-OUTLINE-WIDTH-2
 10
2.990
 20
2.100
 42
1.000
  0
VERTEX
  8
COMP-MIN-OUTLINE-WIDTH-2
 10
3.010
 20
2.100
  0
SEQEND
  8
COMP-MIN-OUTLINE-WIDTH-2
  0
INSERT
  8
COMP-MIN-OUTLINE-WIDTH-2
  2
DISC
 10
3.010
 20
2.100
 41
0.001
 42
0.001
  0
INSERT
  8
COMP-MIN-OUTLINE-WIDTH-2
  2
DISC
 10
2.810
 20
2.100
 41
0.001
 42
0.001
  0
POLYLINE
  8
COMP-MIN-OUTLINE-WIDTH-2
 66
1
 70
0
 40
0.001
 41
0.001
  0
VERTEX
  8
COMP-MIN-OUTLINE-WIDTH-2
 10
2.810
 20
2.100
 42
1.000
  0
VERTEX
  8
COMP-MIN-OUTLINE-WIDTH-2
 10
2.790
 20
2.100
 42
1.000
  0
SEQEND
  8
COMP-MIN-OUTLINE-WIDTH-2
  0
INSERT
  8
COMP-MIN-OUTLINE-WIDTH-2
  2
DISC
 10
2.790
 20
2.100
 41
0.001
 42
0.001
  0
POLYLINE
  8
COMP-MIN-OUTLINE-WIDTH-2
 66
1
 70
0
 40
0.001
 41
0.001
  0
VERTEX
  8
COMP-MIN-OUTLINE-WIDTH-2
 10
2.790
 20
2.100
 42
1.000
  0
VERTEX
  8
COMP-MIN-OUTLINE-WIDTH-2
 10
2.810
 20
2.100
  0
SEQEND
  8
COMP-MIN-OUTLINE-WIDTH-2
  0
INSERT
  8
COMP-MIN-OUTLINE-WIDTH-2
  2
DISC
 10
2.810
 20
2.100
 41
0.001
 42
0.001
  0
INSERT
  8
COMP-MIN-OUTLINE-WIDTH-2
  2
DISC
 10
2.510
 20
2.100
 41
0.001
 42
0.001
  0
POLYLINE
  8
COMP-MIN-OUTLINE-WIDTH-2
 66
1
 70
0
 40
0.001
 41
0.001
  0
VERTEX
  8
COMP-MIN-OUTLINE-WIDTH-2
 10
2.510
 20
2.100
 42
1.000
  0
VERTEX
  8
COMP-MIN-OUTLINE-WIDTH-2
 10
2.490
 20
2.100
 42
1.000
  0
SEQEND
  8
COMP-MIN-OUTLINE-WIDTH-2
  0
INSERT
  8
COMP-MIN-OUTLINE-WIDTH-2
  2
DISC
 10
2.490
 20
2.100
 41
0.001
 42
0.001
  0
POLYLINE
  8
COMP-MIN-OUTLINE-WIDTH-2
 66
1
 70
0
 40
0.001
 41
0.001
  0
VERTEX
  8
COMP-MIN-OUTLINE-WIDTH-2
 10
2.490
 20
2.100
 42
1.000
  0
VERTEX
  8
COMP-MIN-OUTLINE-WIDTH-2
 10
2.510
 20
2.100
  0
SEQEND
  8
COMP-MIN-OUTLINE-WIDTH-2
  0
INSERT
  8
COMP-MIN-OUTLINE-WIDTH-2
  2
DISC
 10
2.510
 20
2.100
 41
0.001
 42
0.001
  0
INSERT
  8
COMP-MIN-OUTLINE-WIDTH-2
  2
DISC
 10
2.310
 20
2.100
 41
0.001
 42
0.001
  0
POLYLINE
  8
COMP-MIN-OUTLINE-WIDTH-2
 66
1
 70
0
 40
0.001
 41
0.001
  0
VERTEX
  8
COMP-MIN-OUTLINE-WIDTH-2
 10
2.310
 20
2.100
 42
1.000
  0
VERTEX
  8
COMP-MIN-OUTLINE-WIDTH-2
 10
2.290
 20
2.100
 42
1.000
  0
SEQEND
  8
COMP-MIN-OUTLINE-WIDTH-2
  0
INSERT
  8
COMP-MIN-OUTLINE-WIDTH-2
  2
DISC
 10
2.290
 20
2.100
 41
0.001
 42
0.001
  0
POLYLINE
  8
COMP-MIN-OUTLINE-WIDTH-2
 66
1
 70
0
 40
0.001
 41
0.001
  0
VERTEX
  8
COMP-MIN-OUTLINE-WIDTH-2
 10
2.290
 20
2.100
 42
1.000
  0
VERTEX
  8
COMP-MIN-OUTLINE-WIDTH-2
 10
2.310
 20
2.100
  0
SEQEND
  8
COMP-MIN-OUTLINE-WIDTH-2
  0
INSERT
  8
COMP-MIN-OUTLINE-WIDTH-2
  2
DISC
 10
2.310
 20
2.100
 41
0.001
 42
0.001
  0
INSERT
  8
COMP-MIN-OUTLINE-WIDTH-2
  2
DISC
 10
2.110
 20
2.100
 41
0.001
 42
0.001
  0
POLYLINE
  8
COMP-MIN-OUTLINE-WIDTH-2
 66
1
 70
0
 40
0.001
 41
0.001
  0
VERTEX
  8
COMP-MIN-OUTLINE-WIDTH-2
 10
2.110
 20
2.100
 42
1.000
  0
VERTEX
  8
COMP-MIN-OUTLINE-WIDTH-2
 10
2.090
 20
2.100
 42
1.000
  0
SEQEND
  8
COMP-MIN-OUTLINE-WIDTH-2
  0
INSERT
  8
COMP-MIN-OUTLINE-WIDTH-2
  2
DISC
 10
2.090
 20
2.100
 41
0.001
 42
0.001
  0
POLYLINE
  8
COMP-MIN-OUTLINE-WIDTH-2
 66
1
 70
0
 40
0.001
 41
0.001
  0
VERTEX
  8
COMP-MIN-OUTLINE-WIDTH-2
 10
2.090
 20
2.100
 42
1.000
  0
VERTEX
  8
COMP-MIN-OUTLINE-WIDTH-2
 10
2.110
 20
2.100
  0
SEQEND
  8
COMP-MIN-OUTLINE-WIDTH-2
  0
INSERT
  8
COMP-MIN-OUTLINE-WIDTH-2
  2
DISC
 10
2.110
 20
2.100
 41
0.001
 42
0.001
  0
INSERT
  8
COMP-MIN-OUTLINE-WIDTH-2
  2
DISC
 10
2.690
 20
2.400
 41
0.001
 42
0.001
  0
POLYLINE
  8
COMP-MIN-OUTLINE-WIDTH-2
 66
1
 70
0
 40
0.001
 41
0.001
  0
VERTEX
  8
COMP-MIN-OUTLINE-WIDTH-2
 10
2.690
 20
2.400
 42
1.000
  0
VERTEX
  8
COMP-MIN-OUTLINE-WIDTH-2
 10
2.710
 20
2.400
 42
1.028
  0
SEQEND
  8
COMP-MIN-OUTLINE-WIDTH-2
  0
INSERT
  8
COMP-MIN-OUTLINE-WIDTH-2
  2
DISC
 10
2.710
 20
2.400
 41
0.001
 42
0.001
  0
POLYLINE
  8
COMP-MIN-OUTLINE-WIDTH-2
 66
1
 70
0
 40
0.001
 41
0.001
  0
VERTEX
  8
COMP-MIN-OUTLINE-WIDTH-2
 10
2.710
 20
2.400
 42
1.028
  0
VERTEX
  8
COMP-MIN-OUTLINE-WIDTH-2
 10
2.690
 20
2.400
  0
SEQEND
  8
COMP-MIN-OUTLINE-WIDTH-2
  0
INSERT
  8
COMP-MIN-OUTLINE-WIDTH-2
  2
DISC
 10
2.690
 20
2.400
 41
0.001
 42
0.001
  0
INSERT
  8
COMP-MIN-OUTLINE-WIDTH-2
  2
DISC
 10
2.690
 20
2.100
 41
0.001
 42
0.001
  0
POLYLINE
  8
COMP-MIN-OUTLINE-WIDTH-2
 66
1
 70
0
 40
0.001
 41
0.001
  0
VERTEX
  8
COMP-MIN-OUTLINE-WIDTH-2
 10
2.690
 20
2.100
 42
1.000
  0
VERTEX
  8
COMP-MIN-OUTLINE-WIDTH-2
 10
2.710
 20
2.100
 42
1.028
  0
SEQEND
  8
COMP-MIN-OUTLINE-WIDTH-2
  0
INSERT
  8
COMP-MIN-OUTLINE-WIDTH-2
  2
DISC
 10
2.710
 20
2.100
 41
0.001
 42
0.001
  0
POLYLINE
  8
COMP-MIN-OUTLINE-WIDTH-2
 66
1
 70
0
 40
0.001
 41
0.001
  0
VERTEX
  8
COMP-MIN-OUTLINE-WIDTH-2
 10
2.710
 20
2.100
 42
1.028
  0
VERTEX
  8
COMP-MIN-OUTLINE-WIDTH-2
 10
2.690
 20
2.100
  0
SEQEND
  8
COMP-MIN-OUTLINE-WIDTH-2
  0
INSERT
  8
COMP-MIN-OUTLINE-WIDTH-2
  2
DISC
 10
2.690
 20
2.100
 41
0.001
 42
0.001
  0
TEXT
  8
COMP-MIN-TEXT-WIDTH-0
 10
3.425
 20
2.200
 40
0.050
  1
10
 50
180.000
  0
TEXT
  8
COMP-MIN-TEXT-WIDTH-0
 10
3.225
 20
2.200
 40
0.050
  1
12
 50
180.000
  0
TEXT
  8
COMP-MIN-TEXT-WIDTH-0
 10
3.025
 20
2.200
 40
0.050
  1
14
 50
180.000
  0
TEXT
  8
COMP-MIN-TEXT-WIDTH-0
 10
2.860
 20
2.200
 40
0.050
  1
16
 50
180.000
  0
TEXT
  8
COMP-MIN-TEXT-WIDTH-0
 10
2.325
 20
2.200
 40
0.050
  1
11
 50
180.000
  0
TEXT
  8
COMP-MIN-TEXT-WIDTH-0
 10
2.525
 20
2.200
 40
0.050
  1
13
 50
180.000
  0
TEXT
  8
COMP-MIN-TEXT-WIDTH-0
 10
2.125
 20
2.350
 40
0.050
  1
8
 50
180.000
  0
TEXT
  8
COMP-MIN-TEXT-WIDTH-0
 10
2.325
 20
2.350
 40
0.050
  1
6
 50
180.000
  0
TEXT
  8
COMP-MIN-TEXT-WIDTH-0
 10
2.525
 20
2.350
 40
0.050
  1
4
 50
180.000
  0
TEXT
  8
COMP-MIN-TEXT-WIDTH-0
 10
2.850
 20
2.350
 40
0.050
  1
1
 50
180.000
  0
TEXT
  8
COMP-MIN-TEXT-WIDTH-0
 10
3.025
 20
2.350
 40
0.050
  1
3
 50
180.000
  0
TEXT
  8
COMP-MIN-TEXT-WIDTH-0
 10
3.225
 20
2.350
 40
0.050
  1
5
 50
180.000
  0
TEXT
  8
COMP-MIN-TEXT-WIDTH-0
 10
3.400
 20
2.350
 40
0.050
  1
7
 50
180.000
  0
TEXT
  8
COMP-MIN-TEXT-WIDTH-0
 10
2.125
 20
2.200
 40
0.050
  1
9
 50
180.000
  0
TEXT
  8
COMP-MIN-TEXT-WIDTH-0
 10
2.700
 20
2.350
 40
0.050
  1
2
 50
180.000
  0
TEXT
  8
COMP-MIN-TEXT-WIDTH-0
 10
2.715
 20
2.200
 40
0.050
  1
15
 50
180.000
  0
ENDBLK
  8
COMP-MIN-TEXT-WIDTH-0
  0
BLOCK
  8
0
  2
913D
 70
0
 10
2.000
 20
2.000
  0
INSERT
  8
0
  2
PD33
 10
2.000
 20
2.000
  0
ENDBLK
  8
0
  0
BLOCK
  8
0
  2
913N
 70
0
 10
2.000
 20
2.000
  0
INSERT
  8
0
  2
PN33
 10
2.000
 20
2.000
  0
ENDBLK
  8
0
  0
BLOCK
  8
0
  2
913I
 70
0
 10
2.000
 20
2.000
  0
INSERT
  8
0
  2
PI33
 10
2.000
 20
2.000
  0
ENDBLK
  8
0
  0
BLOCK
  8
0
  2
913X
 70
0
 10
2.000
 20
2.000
  0
INSERT
  8
0
  2
PX33
 10
2.000
 20
2.000
  0
ENDBLK
  8
0
  0
BLOCK
  8
0
  2
913
 70
0
 10
2.000
 20
2.000
  0
INSERT
  8
COMP-MIN-OUTLINE-WIDTH-2
  2
DISC
 10
1.975
 20
2.010
 41
0.001
 42
0.001
  0
POLYLINE
  8
COMP-MIN-OUTLINE-WIDTH-2
 66
1
 70
0
 40
0.001
 41
0.001
  0
VERTEX
  8
COMP-MIN-OUTLINE-WIDTH-2
 10
1.975
 20
2.010
  0
VERTEX
  8
COMP-MIN-OUTLINE-WIDTH-2
 10
1.975
 20
1.990
  0
SEQEND
  8
COMP-MIN-OUTLINE-WIDTH-2
  0
INSERT
  8
COMP-MIN-OUTLINE-WIDTH-2
  2
DISC
 10
1.975
 20
1.990
 41
0.001
 42
0.001
  0
POLYLINE
  8
COMP-MIN-OUTLINE-WIDTH-2
 66
1
 70
0
 40
0.001
 41
0.001
  0
VERTEX
  8
COMP-MIN-OUTLINE-WIDTH-2
 10
1.975
 20
1.990
  0
VERTEX
  8
COMP-MIN-OUTLINE-WIDTH-2
 10
1.989
 20
1.976
  0
SEQEND
  8
COMP-MIN-OUTLINE-WIDTH-2
  0
INSERT
  8
COMP-MIN-OUTLINE-WIDTH-2
  2
DISC
 10
1.989
 20
1.976
 41
0.001
 42
0.001
  0
POLYLINE
  8
COMP-MIN-OUTLINE-WIDTH-2
 66
1
 70
0
 40
0.001
 41
0.001
  0
VERTEX
  8
COMP-MIN-OUTLINE-WIDTH-2
 10
1.989
 20
1.976
  0
VERTEX
  8
COMP-MIN-OUTLINE-WIDTH-2
 10
2.012
 20
1.976
  0
SEQEND
  8
COMP-MIN-OUTLINE-WIDTH-2
  0
INSERT
  8
COMP-MIN-OUTLINE-WIDTH-2
  2
DISC
 10
2.012
 20
1.976
 41
0.001
 42
0.001
  0
POLYLINE
  8
COMP-MIN-OUTLINE-WIDTH-2
 66
1
 70
0
 40
0.001
 41
0.001
  0
VERTEX
  8
COMP-MIN-OUTLINE-WIDTH-2
 10
2.012
 20
1.976
  0
VERTEX
  8
COMP-MIN-OUTLINE-WIDTH-2
 10
2.025
 20
1.990
  0
SEQEND
  8
COMP-MIN-OUTLINE-WIDTH-2
  0
INSERT
  8
COMP-MIN-OUTLINE-WIDTH-2
  2
DISC
 10
2.025
 20
1.990
 41
0.001
 42
0.001
  0
POLYLINE
  8
COMP-MIN-OUTLINE-WIDTH-2
 66
1
 70
0
 40
0.001
 41
0.001
  0
VERTEX
  8
COMP-MIN-OUTLINE-WIDTH-2
 10
2.025
 20
1.990
  0
VERTEX
  8
COMP-MIN-OUTLINE-WIDTH-2
 10
2.025
 20
2.010
  0
SEQEND
  8
COMP-MIN-OUTLINE-WIDTH-2
  0
INSERT
  8
COMP-MIN-OUTLINE-WIDTH-2
  2
DISC
 10
2.025
 20
2.010
 41
0.001
 42
0.001
  0
POLYLINE
  8
COMP-MIN-OUTLINE-WIDTH-2
 66
1
 70
0
 40
0.001
 41
0.001
  0
VERTEX
  8
COMP-MIN-OUTLINE-WIDTH-2
 10
2.025
 20
2.010
  0
VERTEX
  8
COMP-MIN-OUTLINE-WIDTH-2
 10
2.011
 20
2.024
  0
SEQEND
  8
COMP-MIN-OUTLINE-WIDTH-2
  0
INSERT
  8
COMP-MIN-OUTLINE-WIDTH-2
  2
DISC
 10
2.011
 20
2.024
 41
0.001
 42
0.001
  0
POLYLINE
  8
COMP-MIN-OUTLINE-WIDTH-2
 66
1
 70
0
 40
0.001
 41
0.001
  0
VERTEX
  8
COMP-MIN-OUTLINE-WIDTH-2
 10
2.011
 20
2.024
  0
VERTEX
  8
COMP-MIN-OUTLINE-WIDTH-2
 10
1.989
 20
2.024
  0
SEQEND
  8
COMP-MIN-OUTLINE-WIDTH-2
  0
INSERT
  8
COMP-MIN-OUTLINE-WIDTH-2
  2
DISC
 10
1.989
 20
2.024
 41
0.001
 42
0.001
  0
POLYLINE
  8
COMP-MIN-OUTLINE-WIDTH-2
 66
1
 70
0
 40
0.001
 41
0.001
  0
VERTEX
  8
COMP-MIN-OUTLINE-WIDTH-2
 10
1.989
 20
2.024
  0
VERTEX
  8
COMP-MIN-OUTLINE-WIDTH-2
 10
1.975
 20
2.010
  0
SEQEND
  8
COMP-MIN-OUTLINE-WIDTH-2
  0
INSERT
  8
COMP-MIN-OUTLINE-WIDTH-2
  2
DISC
 10
1.975
 20
2.010
 41
0.001
 42
0.001
  0
INSERT
  8
COMP-MIN-OUTLINE-WIDTH-1
  2
DISC
 10
1.975
 20
1.990
 41
0.001
 42
0.001
  0
POLYLINE
  8
COMP-MIN-OUTLINE-WIDTH-1
 66
1
 70
0
 40
0.001
 41
0.001
  0
VERTEX
  8
COMP-MIN-OUTLINE-WIDTH-1
 10
1.975
 20
1.990
  0
VERTEX
  8
COMP-MIN-OUTLINE-WIDTH-1
 10
1.975
 20
2.010
  0
SEQEND
  8
COMP-MIN-OUTLINE-WIDTH-1
  0
INSERT
  8
COMP-MIN-OUTLINE-WIDTH-1
  2
DISC
 10
1.975
 20
2.010
 41
0.001
 42
0.001
  0
POLYLINE
  8
COMP-MIN-OUTLINE-WIDTH-1
 66
1
 70
0
 40
0.001
 41
0.001
  0
VERTEX
  8
COMP-MIN-OUTLINE-WIDTH-1
 10
1.975
 20
2.010
  0
VERTEX
  8
COMP-MIN-OUTLINE-WIDTH-1
 10
1.989
 20
2.024
  0
SEQEND
  8
COMP-MIN-OUTLINE-WIDTH-1
  0
INSERT
  8
COMP-MIN-OUTLINE-WIDTH-1
  2
DISC
 10
1.989
 20
2.024
 41
0.001
 42
0.001
  0
POLYLINE
  8
COMP-MIN-OUTLINE-WIDTH-1
 66
1
 70
0
 40
0.001
 41
0.001
  0
VERTEX
  8
COMP-MIN-OUTLINE-WIDTH-1
 10
1.989
 20
2.024
  0
VERTEX
  8
COMP-MIN-OUTLINE-WIDTH-1
 10
2.011
 20
2.024
  0
SEQEND
  8
COMP-MIN-OUTLINE-WIDTH-1
  0
INSERT
  8
COMP-MIN-OUTLINE-WIDTH-1
  2
DISC
 10
2.011
 20
2.024
 41
0.001
 42
0.001
  0
POLYLINE
  8
COMP-MIN-OUTLINE-WIDTH-1
 66
1
 70
0
 40
0.001
 41
0.001
  0
VERTEX
  8
COMP-MIN-OUTLINE-WIDTH-1
 10
2.011
 20
2.024
  0
VERTEX
  8
COMP-MIN-OUTLINE-WIDTH-1
 10
2.025
 20
2.010
  0
SEQEND
  8
COMP-MIN-OUTLINE-WIDTH-1
  0
INSERT
  8
COMP-MIN-OUTLINE-WIDTH-1
  2
DISC
 10
2.025
 20
2.010
 41
0.001
 42
0.001
  0
POLYLINE
  8
COMP-MIN-OUTLINE-WIDTH-1
 66
1
 70
0
 40
0.001
 41
0.001
  0
VERTEX
  8
COMP-MIN-OUTLINE-WIDTH-1
 10
2.025
 20
2.010
  0
VERTEX
  8
COMP-MIN-OUTLINE-WIDTH-1
 10
2.025
 20
1.990
  0
SEQEND
  8
COMP-MIN-OUTLINE-WIDTH-1
  0
INSERT
  8
COMP-MIN-OUTLINE-WIDTH-1
  2
DISC
 10
2.025
 20
1.990
 41
0.001
 42
0.001
  0
POLYLINE
  8
COMP-MIN-OUTLINE-WIDTH-1
 66
1
 70
0
 40
0.001
 41
0.001
  0
VERTEX
  8
COMP-MIN-OUTLINE-WIDTH-1
 10
2.025
 20
1.990
  0
VERTEX
  8
COMP-MIN-OUTLINE-WIDTH-1
 10
2.012
 20
1.976
  0
SEQEND
  8
COMP-MIN-OUTLINE-WIDTH-1
  0
INSERT
  8
COMP-MIN-OUTLINE-WIDTH-1
  2
DISC
 10
2.012
 20
1.976
 41
0.001
 42
0.001
  0
POLYLINE
  8
COMP-MIN-OUTLINE-WIDTH-1
 66
1
 70
0
 40
0.001
 41
0.001
  0
VERTEX
  8
COMP-MIN-OUTLINE-WIDTH-1
 10
2.012
 20
1.976
  0
VERTEX
  8
COMP-MIN-OUTLINE-WIDTH-1
 10
1.989
 20
1.976
  0
SEQEND
  8
COMP-MIN-OUTLINE-WIDTH-1
  0
INSERT
  8
COMP-MIN-OUTLINE-WIDTH-1
  2
DISC
 10
1.989
 20
1.976
 41
0.001
 42
0.001
  0
POLYLINE
  8
COMP-MIN-OUTLINE-WIDTH-1
 66
1
 70
0
 40
0.001
 41
0.001
  0
VERTEX
  8
COMP-MIN-OUTLINE-WIDTH-1
 10
1.989
 20
1.976
  0
VERTEX
  8
COMP-MIN-OUTLINE-WIDTH-1
 10
1.975
 20
1.990
  0
SEQEND
  8
COMP-MIN-OUTLINE-WIDTH-1
  0
INSERT
  8
COMP-MIN-OUTLINE-WIDTH-1
  2
DISC
 10
1.975
 20
1.990
 41
0.001
 42
0.001
  0
ENDBLK
  8
COMP-MIN-OUTLINE-WIDTH-1
  0
BLOCK
  8
0
  2
984D
 70
0
 10
2.050
 20
2.050
  0
INSERT
  8
0
  2
PD19
 10
2.050
 20
2.050
  0
INSERT
  8
0
  2
PD19
 10
2.125
 20
2.050
  0
ENDBLK
  8
0
  0
BLOCK
  8
0
  2
984N
 70
0
 10
2.050
 20
2.050
  0
INSERT
  8
0
  2
PN19
 10
2.050
 20
2.050
  0
INSERT
  8
0
  2
PN19
 10
2.125
 20
2.050
  0
ENDBLK
  8
0
  0
BLOCK
  8
0
  2
984I
 70
0
 10
2.050
 20
2.050
  0
INSERT
  8
0
  2
PI19
 10
2.050
 20
2.050
  0
INSERT
  8
0
  2
PI19
 10
2.125
 20
2.050
  0
ENDBLK
  8
0
  0
BLOCK
  8
0
  2
984X
 70
0
 10
2.050
 20
2.050
  0
INSERT
  8
0
  2
PX19
 10
2.050
 20
2.050
  0
INSERT
  8
0
  2
PX19
 10
2.125
 20
2.050
  0
ENDBLK
  8
0
  0
BLOCK
  8
0
  2
984
 70
0
 10
2.050
 20
2.050
  0
INSERT
  8
COMP-MIN-OUTLINE-WIDTH-2
  2
DISC
 10
2.015
 20
2.015
 41
0.001
 42
0.001
  0
POLYLINE
  8
COMP-MIN-OUTLINE-WIDTH-2
 66
1
 70
0
 40
0.001
 41
0.001
  0
VERTEX
  8
COMP-MIN-OUTLINE-WIDTH-2
 10
2.015
 20
2.015
  0
VERTEX
  8
COMP-MIN-OUTLINE-WIDTH-2
 10
2.160
 20
2.015
  0
SEQEND
  8
COMP-MIN-OUTLINE-WIDTH-2
  0
INSERT
  8
COMP-MIN-OUTLINE-WIDTH-2
  2
DISC
 10
2.160
 20
2.015
 41
0.001
 42
0.001
  0
POLYLINE
  8
COMP-MIN-OUTLINE-WIDTH-2
 66
1
 70
0
 40
0.001
 41
0.001
  0
VERTEX
  8
COMP-MIN-OUTLINE-WIDTH-2
 10
2.160
 20
2.015
  0
VERTEX
  8
COMP-MIN-OUTLINE-WIDTH-2
 10
2.160
 20
2.085
  0
SEQEND
  8
COMP-MIN-OUTLINE-WIDTH-2
  0
INSERT
  8
COMP-MIN-OUTLINE-WIDTH-2
  2
DISC
 10
2.160
 20
2.085
 41
0.001
 42
0.001
  0
POLYLINE
  8
COMP-MIN-OUTLINE-WIDTH-2
 66
1
 70
0
 40
0.001
 41
0.001
  0
VERTEX
  8
COMP-MIN-OUTLINE-WIDTH-2
 10
2.160
 20
2.085
  0
VERTEX
  8
COMP-MIN-OUTLINE-WIDTH-2
 10
2.015
 20
2.085
  0
SEQEND
  8
COMP-MIN-OUTLINE-WIDTH-2
  0
INSERT
  8
COMP-MIN-OUTLINE-WIDTH-2
  2
DISC
 10
2.015
 20
2.085
 41
0.001
 42
0.001
  0
POLYLINE
  8
COMP-MIN-OUTLINE-WIDTH-2
 66
1
 70
0
 40
0.001
 41
0.001
  0
VERTEX
  8
COMP-MIN-OUTLINE-WIDTH-2
 10
2.015
 20
2.085
  0
VERTEX
  8
COMP-MIN-OUTLINE-WIDTH-2
 10
2.015
 20
2.015
  0
SEQEND
  8
COMP-MIN-OUTLINE-WIDTH-2
  0
INSERT
  8
COMP-MIN-OUTLINE-WIDTH-2
  2
DISC
 10
2.015
 20
2.015
 41
0.001
 42
0.001
  0
ENDBLK
  8
COMP-MIN-OUTLINE-WIDTH-2
  0
BLOCK
  8
0
  2
1019D
 70
0
 10
1.020
 20
1.030
  0
INSERT
  8
0
  2
PD40
 10
1.020
 20
1.030
  0
INSERT
  8
0
  2
PD40
 10
1.072
 20
1.030
  0
INSERT
  8
0
  2
PD40
 10
1.124
 20
1.030
  0
ENDBLK
  8
0
  0
BLOCK
  8
0
  2
1019N
 70
0
 10
1.020
 20
1.030
  0
INSERT
  8
0
  2
PN40
 10
1.020
 20
1.030
  0
INSERT
  8
0
  2
PN40
 10
1.072
 20
1.030
  0
INSERT
  8
0
  2
PN40
 10
1.124
 20
1.030
  0
ENDBLK
  8
0
  0
BLOCK
  8
0
  2
1019I
 70
0
 10
1.020
 20
1.030
  0
INSERT
  8
0
  2
PI40
 10
1.020
 20
1.030
  0
INSERT
  8
0
  2
PI40
 10
1.072
 20
1.030
  0
INSERT
  8
0
  2
PI40
 10
1.124
 20
1.030
  0
ENDBLK
  8
0
  0
BLOCK
  8
0
  2
1019X
 70
0
 10
1.020
 20
1.030
  0
INSERT
  8
0
  2
PX40
 10
1.020
 20
1.030
  0
INSERT
  8
0
  2
PX40
 10
1.072
 20
1.030
  0
INSERT
  8
0
  2
PX40
 10
1.124
 20
1.030
  0
ENDBLK
  8
0
  0
BLOCK
  8
0
  2
1019
 70
0
 10
1.020
 20
1.030
  0
INSERT
  8
COMP-MIN-OUTLINE-WIDTH-2
  2
DISC
 10
0.995
 20
1.065
 41
0.001
 42
0.001
  0
POLYLINE
  8
COMP-MIN-OUTLINE-WIDTH-2
 66
1
 70
0
 40
0.001
 41
0.001
  0
VERTEX
  8
COMP-MIN-OUTLINE-WIDTH-2
 10
0.995
 20
1.065
  0
VERTEX
  8
COMP-MIN-OUTLINE-WIDTH-2
 10
1.150
 20
1.065
  0
SEQEND
  8
COMP-MIN-OUTLINE-WIDTH-2
  0
INSERT
  8
COMP-MIN-OUTLINE-WIDTH-2
  2
DISC
 10
1.150
 20
1.065
 41
0.001
 42
0.001
  0
POLYLINE
  8
COMP-MIN-OUTLINE-WIDTH-2
 66
1
 70
0
 40
0.001
 41
0.001
  0
VERTEX
  8
COMP-MIN-OUTLINE-WIDTH-2
 10
1.150
 20
1.065
  0
VERTEX
  8
COMP-MIN-OUTLINE-WIDTH-2
 10
1.150
 20
0.995
  0
SEQEND
  8
COMP-MIN-OUTLINE-WIDTH-2
  0
INSERT
  8
COMP-MIN-OUTLINE-WIDTH-2
  2
DISC
 10
1.150
 20
0.995
 41
0.001
 42
0.001
  0
POLYLINE
  8
COMP-MIN-OUTLINE-WIDTH-2
 66
1
 70
0
 40
0.001
 41
0.001
  0
VERTEX
  8
COMP-MIN-OUTLINE-WIDTH-2
 10
1.150
 20
0.995
  0
VERTEX
  8
COMP-MIN-OUTLINE-WIDTH-2
 10
0.995
 20
0.995
  0
SEQEND
  8
COMP-MIN-OUTLINE-WIDTH-2
  0
INSERT
  8
COMP-MIN-OUTLINE-WIDTH-2
  2
DISC
 10
0.995
 20
0.995
 41
0.001
 42
0.001
  0
POLYLINE
  8
COMP-MIN-OUTLINE-WIDTH-2
 66
1
 70
0
 40
0.001
 41
0.001
  0
VERTEX
  8
COMP-MIN-OUTLINE-WIDTH-2
 10
0.995
 20
0.995
  0
VERTEX
  8
COMP-MIN-OUTLINE-WIDTH-2
 10
0.995
 20
1.065
  0
SEQEND
  8
COMP-MIN-OUTLINE-WIDTH-2
  0
INSERT
  8
COMP-MIN-OUTLINE-WIDTH-2
  2
DISC
 10
0.995
 20
1.065
 41
0.001
 42
0.001
  0
ENDBLK
  8
COMP-MIN-OUTLINE-WIDTH-2
  0
BLOCK
  8
0
  2
1057D
 70
0
 10
2.075
 20
2.075
  0
INSERT
  8
0
  2
PD71
 10
2.075
 20
2.075
  0
ENDBLK
  8
0
  0
BLOCK
  8
0
  2
1057N
 70
0
 10
2.075
 20
2.075
  0
INSERT
  8
0
  2
PN71
 10
2.075
 20
2.075
  0
ENDBLK
  8
0
  0
BLOCK
  8
0
  2
1057I
 70
0
 10
2.075
 20
2.075
  0
INSERT
  8
0
  2
PI71
 10
2.075
 20
2.075
  0
ENDBLK
  8
0
  0
BLOCK
  8
0
  2
1057X
 70
0
 10
2.075
 20
2.075
  0
INSERT
  8
0
  2
PX71
 10
2.075
 20
2.075
  0
ENDBLK
  8
0
  0
BLOCK
  8
0
  2
1057
 70
0
 10
2.075
 20
2.075
  0
INSERT
  8
COMP-MIN-OUTLINE-WIDTH-2
  2
DISC
 10
2.010
 20
2.090
 41
0.001
 42
0.001
  0
POLYLINE
  8
COMP-MIN-OUTLINE-WIDTH-2
 66
1
 70
0
 40
0.001
 41
0.001
  0
VERTEX
  8
COMP-MIN-OUTLINE-WIDTH-2
 10
2.010
 20
2.090
  0
VERTEX
  8
COMP-MIN-OUTLINE-WIDTH-2
 10
2.010
 20
2.060
  0
SEQEND
  8
COMP-MIN-OUTLINE-WIDTH-2
  0
INSERT
  8
COMP-MIN-OUTLINE-WIDTH-2
  2
DISC
 10
2.010
 20
2.060
 41
0.001
 42
0.001
  0
POLYLINE
  8
COMP-MIN-OUTLINE-WIDTH-2
 66
1
 70
0
 40
0.001
 41
0.001
  0
VERTEX
  8
COMP-MIN-OUTLINE-WIDTH-2
 10
2.010
 20
2.060
  0
VERTEX
  8
COMP-MIN-OUTLINE-WIDTH-2
 10
2.140
 20
2.060
  0
SEQEND
  8
COMP-MIN-OUTLINE-WIDTH-2
  0
INSERT
  8
COMP-MIN-OUTLINE-WIDTH-2
  2
DISC
 10
2.140
 20
2.060
 41
0.001
 42
0.001
  0
POLYLINE
  8
COMP-MIN-OUTLINE-WIDTH-2
 66
1
 70
0
 40
0.001
 41
0.001
  0
VERTEX
  8
COMP-MIN-OUTLINE-WIDTH-2
 10
2.140
 20
2.060
  0
VERTEX
  8
COMP-MIN-OUTLINE-WIDTH-2
 10
2.140
 20
2.090
  0
SEQEND
  8
COMP-MIN-OUTLINE-WIDTH-2
  0
INSERT
  8
COMP-MIN-OUTLINE-WIDTH-2
  2
DISC
 10
2.140
 20
2.090
 41
0.001
 42
0.001
  0
POLYLINE
  8
COMP-MIN-OUTLINE-WIDTH-2
 66
1
 70
0
 40
0.001
 41
0.001
  0
VERTEX
  8
COMP-MIN-OUTLINE-WIDTH-2
 10
2.140
 20
2.090
  0
VERTEX
  8
COMP-MIN-OUTLINE-WIDTH-2
 10
2.010
 20
2.090
  0
SEQEND
  8
COMP-MIN-OUTLINE-WIDTH-2
  0
INSERT
  8
COMP-MIN-OUTLINE-WIDTH-2
  2
DISC
 10
2.010
 20
2.090
 41
0.001
 42
0.001
  0
ENDBLK
  8
COMP-MIN-OUTLINE-WIDTH-2
  0
BLOCK
  8
0
  2
1098D
 70
0
 10
1.025
 20
1.040
  0
INSERT
  8
0
  2
PD43
 10
1.025
 20
1.040
  0
INSERT
  8
0
  2
PD43
 10
1.075
 20
1.040
  0
INSERT
  8
0
  2
PD43
 10
1.125
 20
1.040
  0
INSERT
  8
0
  2
PD43
 10
1.175
 20
1.040
  0
INSERT
  8
0
  2
PD43
 10
1.225
 20
1.040
  0
INSERT
  8
0
  2
PD43
 10
1.275
 20
1.040
  0
INSERT
  8
0
  2
PD43
 10
1.325
 20
1.040
  0
INSERT
  8
0
  2
PD43
 10
1.375
 20
1.040
  0
INSERT
  8
0
  2
PD43
 10
1.375
 20
1.225
  0
INSERT
  8
0
  2
PD43
 10
1.325
 20
1.225
  0
INSERT
  8
0
  2
PD43
 10
1.275
 20
1.225
  0
INSERT
  8
0
  2
PD43
 10
1.225
 20
1.225
  0
INSERT
  8
0
  2
PD43
 10
1.175
 20
1.225
  0
INSERT
  8
0
  2
PD43
 10
1.125
 20
1.225
  0
INSERT
  8
0
  2
PD43
 10
1.075
 20
1.225
  0
INSERT
  8
0
  2
PD43
 10
1.025
 20
1.225
  0
ENDBLK
  8
0
  0
BLOCK
  8
0
  2
1098N
 70
0
 10
1.025
 20
1.040
  0
INSERT
  8
0
  2
PN43
 10
1.025
 20
1.040
  0
INSERT
  8
0
  2
PN43
 10
1.075
 20
1.040
  0
INSERT
  8
0
  2
PN43
 10
1.125
 20
1.040
  0
INSERT
  8
0
  2
PN43
 10
1.175
 20
1.040
  0
INSERT
  8
0
  2
PN43
 10
1.225
 20
1.040
  0
INSERT
  8
0
  2
PN43
 10
1.275
 20
1.040
  0
INSERT
  8
0
  2
PN43
 10
1.325
 20
1.040
  0
INSERT
  8
0
  2
PN43
 10
1.375
 20
1.040
  0
INSERT
  8
0
  2
PN43
 10
1.375
 20
1.225
  0
INSERT
  8
0
  2
PN43
 10
1.325
 20
1.225
  0
INSERT
  8
0
  2
PN43
 10
1.275
 20
1.225
  0
INSERT
  8
0
  2
PN43
 10
1.225
 20
1.225
  0
INSERT
  8
0
  2
PN43
 10
1.175
 20
1.225
  0
INSERT
  8
0
  2
PN43
 10
1.125
 20
1.225
  0
INSERT
  8
0
  2
PN43
 10
1.075
 20
1.225
  0
INSERT
  8
0
  2
PN43
 10
1.025
 20
1.225
  0
ENDBLK
  8
0
  0
BLOCK
  8
0
  2
1098I
 70
0
 10
1.025
 20
1.040
  0
INSERT
  8
0
  2
PI43
 10
1.025
 20
1.040
  0
INSERT
  8
0
  2
PI43
 10
1.075
 20
1.040
  0
INSERT
  8
0
  2
PI43
 10
1.125
 20
1.040
  0
INSERT
  8
0
  2
PI43
 10
1.175
 20
1.040
  0
INSERT
  8
0
  2
PI43
 10
1.225
 20
1.040
  0
INSERT
  8
0
  2
PI43
 10
1.275
 20
1.040
  0
INSERT
  8
0
  2
PI43
 10
1.325
 20
1.040
  0
INSERT
  8
0
  2
PI43
 10
1.375
 20
1.040
  0
INSERT
  8
0
  2
PI43
 10
1.375
 20
1.225
  0
INSERT
  8
0
  2
PI43
 10
1.325
 20
1.225
  0
INSERT
  8
0
  2
PI43
 10
1.275
 20
1.225
  0
INSERT
  8
0
  2
PI43
 10
1.225
 20
1.225
  0
INSERT
  8
0
  2
PI43
 10
1.175
 20
1.225
  0
INSERT
  8
0
  2
PI43
 10
1.125
 20
1.225
  0
INSERT
  8
0
  2
PI43
 10
1.075
 20
1.225
  0
INSERT
  8
0
  2
PI43
 10
1.025
 20
1.225
  0
ENDBLK
  8
0
  0
BLOCK
  8
0
  2
1098X
 70
0
 10
1.025
 20
1.040
  0
INSERT
  8
0
  2
PX43
 10
1.025
 20
1.040
  0
INSERT
  8
0
  2
PX43
 10
1.075
 20
1.040
  0
INSERT
  8
0
  2
PX43
 10
1.125
 20
1.040
  0
INSERT
  8
0
  2
PX43
 10
1.175
 20
1.040
  0
INSERT
  8
0
  2
PX43
 10
1.225
 20
1.040
  0
INSERT
  8
0
  2
PX43
 10
1.275
 20
1.040
  0
INSERT
  8
0
  2
PX43
 10
1.325
 20
1.040
  0
INSERT
  8
0
  2
PX43
 10
1.375
 20
1.040
  0
INSERT
  8
0
  2
PX43
 10
1.375
 20
1.225
  0
INSERT
  8
0
  2
PX43
 10
1.325
 20
1.225
  0
INSERT
  8
0
  2
PX43
 10
1.275
 20
1.225
  0
INSERT
  8
0
  2
PX43
 10
1.225
 20
1.225
  0
INSERT
  8
0
  2
PX43
 10
1.175
 20
1.225
  0
INSERT
  8
0
  2
PX43
 10
1.125
 20
1.225
  0
INSERT
  8
0
  2
PX43
 10
1.075
 20
1.225
  0
INSERT
  8
0
  2
PX43
 10
1.025
 20
1.225
  0
ENDBLK
  8
0
  0
BLOCK
  8
0
  2
1098
 70
0
 10
1.025
 20
1.040
  0
INSERT
  8
COMP-MIN-OUTLINE-WIDTH-2
  2
DISC
 10
1.000
 20
1.212
 41
0.001
 42
0.001
  0
POLYLINE
  8
COMP-MIN-OUTLINE-WIDTH-2
 66
1
 70
0
 40
0.001
 41
0.001
  0
VERTEX
  8
COMP-MIN-OUTLINE-WIDTH-2
 10
1.000
 20
1.212
  0
VERTEX
  8
COMP-MIN-OUTLINE-WIDTH-2
 10
1.400
 20
1.212
  0
SEQEND
  8
COMP-MIN-OUTLINE-WIDTH-2
  0
INSERT
  8
COMP-MIN-OUTLINE-WIDTH-2
  2
DISC
 10
1.400
 20
1.212
 41
0.001
 42
0.001
  0
INSERT
  8
COMP-MIN-OUTLINE-WIDTH-2
  2
DISC
 10
1.016
 20
1.212
 41
0.001
 42
0.001
  0
POLYLINE
  8
COMP-MIN-OUTLINE-WIDTH-2
 66
1
 70
0
 40
0.001
 41
0.001
  0
VERTEX
  8
COMP-MIN-OUTLINE-WIDTH-2
 10
1.016
 20
1.212
  0
VERTEX
  8
COMP-MIN-OUTLINE-WIDTH-2
 10
1.016
 20
1.234
  0
SEQEND
  8
COMP-MIN-OUTLINE-WIDTH-2
  0
INSERT
  8
COMP-MIN-OUTLINE-WIDTH-2
  2
DISC
 10
1.016
 20
1.234
 41
0.001
 42
0.001
  0
POLYLINE
  8
COMP-MIN-OUTLINE-WIDTH-2
 66
1
 70
0
 40
0.001
 41
0.001
  0
VERTEX
  8
COMP-MIN-OUTLINE-WIDTH-2
 10
1.016
 20
1.234
  0
VERTEX
  8
COMP-MIN-OUTLINE-WIDTH-2
 10
1.036
 20
1.234
  0
SEQEND
  8
COMP-MIN-OUTLINE-WIDTH-2
  0
INSERT
  8
COMP-MIN-OUTLINE-WIDTH-2
  2
DISC
 10
1.036
 20
1.234
 41
0.001
 42
0.001
  0
POLYLINE
  8
COMP-MIN-OUTLINE-WIDTH-2
 66
1
 70
0
 40
0.001
 41
0.001
  0
VERTEX
  8
COMP-MIN-OUTLINE-WIDTH-2
 10
1.036
 20
1.234
  0
VERTEX
  8
COMP-MIN-OUTLINE-WIDTH-2
 10
1.036
 20
1.212
  0
SEQEND
  8
COMP-MIN-OUTLINE-WIDTH-2
  0
INSERT
  8
COMP-MIN-OUTLINE-WIDTH-2
  2
DISC
 10
1.036
 20
1.212
 41
0.001
 42
0.001
  0
INSERT
  8
COMP-MIN-OUTLINE-WIDTH-2
  2
DISC
 10
1.000
 20
1.054
 41
0.001
 42
0.001
  0
POLYLINE
  8
COMP-MIN-OUTLINE-WIDTH-2
 66
1
 70
0
 40
0.001
 41
0.001
  0
VERTEX
  8
COMP-MIN-OUTLINE-WIDTH-2
 10
1.000
 20
1.054
  0
VERTEX
  8
COMP-MIN-OUTLINE-WIDTH-2
 10
1.400
 20
1.054
  0
SEQEND
  8
COMP-MIN-OUTLINE-WIDTH-2
  0
INSERT
  8
COMP-MIN-OUTLINE-WIDTH-2
  2
DISC
 10
1.400
 20
1.054
 41
0.001
 42
0.001
  0
INSERT
  8
COMP-MIN-OUTLINE-WIDTH-2
  2
DISC
 10
1.064
 20
1.212
 41
0.001
 42
0.001
  0
POLYLINE
  8
COMP-MIN-OUTLINE-WIDTH-2
 66
1
 70
0
 40
0.001
 41
0.001
  0
VERTEX
  8
COMP-MIN-OUTLINE-WIDTH-2
 10
1.064
 20
1.212
  0
VERTEX
  8
COMP-MIN-OUTLINE-WIDTH-2
 10
1.064
 20
1.234
  0
SEQEND
  8
COMP-MIN-OUTLINE-WIDTH-2
  0
INSERT
  8
COMP-MIN-OUTLINE-WIDTH-2
  2
DISC
 10
1.064
 20
1.234
 41
0.001
 42
0.001
  0
POLYLINE
  8
COMP-MIN-OUTLINE-WIDTH-2
 66
1
 70
0
 40
0.001
 41
0.001
  0
VERTEX
  8
COMP-MIN-OUTLINE-WIDTH-2
 10
1.064
 20
1.234
  0
VERTEX
  8
COMP-MIN-OUTLINE-WIDTH-2
 10
1.084
 20
1.234
  0
SEQEND
  8
COMP-MIN-OUTLINE-WIDTH-2
  0
INSERT
  8
COMP-MIN-OUTLINE-WIDTH-2
  2
DISC
 10
1.084
 20
1.234
 41
0.001
 42
0.001
  0
POLYLINE
  8
COMP-MIN-OUTLINE-WIDTH-2
 66
1
 70
0
 40
0.001
 41
0.001
  0
VERTEX
  8
COMP-MIN-OUTLINE-WIDTH-2
 10
1.084
 20
1.234
  0
VERTEX
  8
COMP-MIN-OUTLINE-WIDTH-2
 10
1.084
 20
1.212
  0
SEQEND
  8
COMP-MIN-OUTLINE-WIDTH-2
  0
INSERT
  8
COMP-MIN-OUTLINE-WIDTH-2
  2
DISC
 10
1.084
 20
1.212
 41
0.001
 42
0.001
  0
INSERT
  8
COMP-MIN-OUTLINE-WIDTH-2
  2
DISC
 10
1.116
 20
1.212
 41
0.001
 42
0.001
  0
POLYLINE
  8
COMP-MIN-OUTLINE-WIDTH-2
 66
1
 70
0
 40
0.001
 41
0.001
  0
VERTEX
  8
COMP-MIN-OUTLINE-WIDTH-2
 10
1.116
 20
1.212
  0
VERTEX
  8
COMP-MIN-OUTLINE-WIDTH-2
 10
1.116
 20
1.234
  0
SEQEND
  8
COMP-MIN-OUTLINE-WIDTH-2
  0
INSERT
  8
COMP-MIN-OUTLINE-WIDTH-2
  2
DISC
 10
1.116
 20
1.234
 41
0.001
 42
0.001
  0
POLYLINE
  8
COMP-MIN-OUTLINE-WIDTH-2
 66
1
 70
0
 40
0.001
 41
0.001
  0
VERTEX
  8
COMP-MIN-OUTLINE-WIDTH-2
 10
1.116
 20
1.234
  0
VERTEX
  8
COMP-MIN-OUTLINE-WIDTH-2
 10
1.136
 20
1.234
  0
SEQEND
  8
COMP-MIN-OUTLINE-WIDTH-2
  0
INSERT
  8
COMP-MIN-OUTLINE-WIDTH-2
  2
DISC
 10
1.136
 20
1.234
 41
0.001
 42
0.001
  0
POLYLINE
  8
COMP-MIN-OUTLINE-WIDTH-2
 66
1
 70
0
 40
0.001
 41
0.001
  0
VERTEX
  8
COMP-MIN-OUTLINE-WIDTH-2
 10
1.136
 20
1.234
  0
VERTEX
  8
COMP-MIN-OUTLINE-WIDTH-2
 10
1.136
 20
1.212
  0
SEQEND
  8
COMP-MIN-OUTLINE-WIDTH-2
  0
INSERT
  8
COMP-MIN-OUTLINE-WIDTH-2
  2
DISC
 10
1.136
 20
1.212
 41
0.001
 42
0.001
  0
INSERT
  8
COMP-MIN-OUTLINE-WIDTH-2
  2
DISC
 10
1.166
 20
1.212
 41
0.001
 42
0.001
  0
POLYLINE
  8
COMP-MIN-OUTLINE-WIDTH-2
 66
1
 70
0
 40
0.001
 41
0.001
  0
VERTEX
  8
COMP-MIN-OUTLINE-WIDTH-2
 10
1.166
 20
1.212
  0
VERTEX
  8
COMP-MIN-OUTLINE-WIDTH-2
 10
1.166
 20
1.234
  0
SEQEND
  8
COMP-MIN-OUTLINE-WIDTH-2
  0
INSERT
  8
COMP-MIN-OUTLINE-WIDTH-2
  2
DISC
 10
1.166
 20
1.234
 41
0.001
 42
0.001
  0
POLYLINE
  8
COMP-MIN-OUTLINE-WIDTH-2
 66
1
 70
0
 40
0.001
 41
0.001
  0
VERTEX
  8
COMP-MIN-OUTLINE-WIDTH-2
 10
1.166
 20
1.234
  0
VERTEX
  8
COMP-MIN-OUTLINE-WIDTH-2
 10
1.186
 20
1.234
  0
SEQEND
  8
COMP-MIN-OUTLINE-WIDTH-2
  0
INSERT
  8
COMP-MIN-OUTLINE-WIDTH-2
  2
DISC
 10
1.186
 20
1.234
 41
0.001
 42
0.001
  0
POLYLINE
  8
COMP-MIN-OUTLINE-WIDTH-2
 66
1
 70
0
 40
0.001
 41
0.001
  0
VERTEX
  8
COMP-MIN-OUTLINE-WIDTH-2
 10
1.186
 20
1.234
  0
VERTEX
  8
COMP-MIN-OUTLINE-WIDTH-2
 10
1.186
 20
1.212
  0
SEQEND
  8
COMP-MIN-OUTLINE-WIDTH-2
  0
INSERT
  8
COMP-MIN-OUTLINE-WIDTH-2
  2
DISC
 10
1.186
 20
1.212
 41
0.001
 42
0.001
  0
INSERT
  8
COMP-MIN-OUTLINE-WIDTH-2
  2
DISC
 10
1.166
 20
1.212
 41
0.001
 42
0.001
  0
POLYLINE
  8
COMP-MIN-OUTLINE-WIDTH-2
 66
1
 70
0
 40
0.001
 41
0.001
  0
VERTEX
  8
COMP-MIN-OUTLINE-WIDTH-2
 10
1.166
 20
1.212
  0
VERTEX
  8
COMP-MIN-OUTLINE-WIDTH-2
 10
1.166
 20
1.234
  0
SEQEND
  8
COMP-MIN-OUTLINE-WIDTH-2
  0
INSERT
  8
COMP-MIN-OUTLINE-WIDTH-2
  2
DISC
 10
1.166
 20
1.234
 41
0.001
 42
0.001
  0
POLYLINE
  8
COMP-MIN-OUTLINE-WIDTH-2
 66
1
 70
0
 40
0.001
 41
0.001
  0
VERTEX
  8
COMP-MIN-OUTLINE-WIDTH-2
 10
1.166
 20
1.234
  0
VERTEX
  8
COMP-MIN-OUTLINE-WIDTH-2
 10
1.186
 20
1.234
  0
SEQEND
  8
COMP-MIN-OUTLINE-WIDTH-2
  0
INSERT
  8
COMP-MIN-OUTLINE-WIDTH-2
  2
DISC
 10
1.186
 20
1.234
 41
0.001
 42
0.001
  0
POLYLINE
  8
COMP-MIN-OUTLINE-WIDTH-2
 66
1
 70
0
 40
0.001
 41
0.001
  0
VERTEX
  8
COMP-MIN-OUTLINE-WIDTH-2
 10
1.186
 20
1.234
  0
VERTEX
  8
COMP-MIN-OUTLINE-WIDTH-2
 10
1.186
 20
1.212
  0
SEQEND
  8
COMP-MIN-OUTLINE-WIDTH-2
  0
INSERT
  8
COMP-MIN-OUTLINE-WIDTH-2
  2
DISC
 10
1.186
 20
1.212
 41
0.001
 42
0.001
  0
INSERT
  8
COMP-MIN-OUTLINE-WIDTH-2
  2
DISC
 10
1.216
 20
1.212
 41
0.001
 42
0.001
  0
POLYLINE
  8
COMP-MIN-OUTLINE-WIDTH-2
 66
1
 70
0
 40
0.001
 41
0.001
  0
VERTEX
  8
COMP-MIN-OUTLINE-WIDTH-2
 10
1.216
 20
1.212
  0
VERTEX
  8
COMP-MIN-OUTLINE-WIDTH-2
 10
1.216
 20
1.234
  0
SEQEND
  8
COMP-MIN-OUTLINE-WIDTH-2
  0
INSERT
  8
COMP-MIN-OUTLINE-WIDTH-2
  2
DISC
 10
1.216
 20
1.234
 41
0.001
 42
0.001
  0
POLYLINE
  8
COMP-MIN-OUTLINE-WIDTH-2
 66
1
 70
0
 40
0.001
 41
0.001
  0
VERTEX
  8
COMP-MIN-OUTLINE-WIDTH-2
 10
1.216
 20
1.234
  0
VERTEX
  8
COMP-MIN-OUTLINE-WIDTH-2
 10
1.236
 20
1.234
  0
SEQEND
  8
COMP-MIN-OUTLINE-WIDTH-2
  0
INSERT
  8
COMP-MIN-OUTLINE-WIDTH-2
  2
DISC
 10
1.236
 20
1.234
 41
0.001
 42
0.001
  0
POLYLINE
  8
COMP-MIN-OUTLINE-WIDTH-2
 66
1
 70
0
 40
0.001
 41
0.001
  0
VERTEX
  8
COMP-MIN-OUTLINE-WIDTH-2
 10
1.236
 20
1.234
  0
VERTEX
  8
COMP-MIN-OUTLINE-WIDTH-2
 10
1.236
 20
1.212
  0
SEQEND
  8
COMP-MIN-OUTLINE-WIDTH-2
  0
INSERT
  8
COMP-MIN-OUTLINE-WIDTH-2
  2
DISC
 10
1.236
 20
1.212
 41
0.001
 42
0.001
  0
INSERT
  8
COMP-MIN-OUTLINE-WIDTH-2
  2
DISC
 10
1.266
 20
1.212
 41
0.001
 42
0.001
  0
POLYLINE
  8
COMP-MIN-OUTLINE-WIDTH-2
 66
1
 70
0
 40
0.001
 41
0.001
  0
VERTEX
  8
COMP-MIN-OUTLINE-WIDTH-2
 10
1.266
 20
1.212
  0
VERTEX
  8
COMP-MIN-OUTLINE-WIDTH-2
 10
1.266
 20
1.234
  0
SEQEND
  8
COMP-MIN-OUTLINE-WIDTH-2
  0
INSERT
  8
COMP-MIN-OUTLINE-WIDTH-2
  2
DISC
 10
1.266
 20
1.234
 41
0.001
 42
0.001
  0
POLYLINE
  8
COMP-MIN-OUTLINE-WIDTH-2
 66
1
 70
0
 40
0.001
 41
0.001
  0
VERTEX
  8
COMP-MIN-OUTLINE-WIDTH-2
 10
1.266
 20
1.234
  0
VERTEX
  8
COMP-MIN-OUTLINE-WIDTH-2
 10
1.286
 20
1.234
  0
SEQEND
  8
COMP-MIN-OUTLINE-WIDTH-2
  0
INSERT
  8
COMP-MIN-OUTLINE-WIDTH-2
  2
DISC
 10
1.286
 20
1.234
 41
0.001
 42
0.001
  0
POLYLINE
  8
COMP-MIN-OUTLINE-WIDTH-2
 66
1
 70
0
 40
0.001
 41
0.001
  0
VERTEX
  8
COMP-MIN-OUTLINE-WIDTH-2
 10
1.286
 20
1.234
  0
VERTEX
  8
COMP-MIN-OUTLINE-WIDTH-2
 10
1.286
 20
1.212
  0
SEQEND
  8
COMP-MIN-OUTLINE-WIDTH-2
  0
INSERT
  8
COMP-MIN-OUTLINE-WIDTH-2
  2
DISC
 10
1.286
 20
1.212
 41
0.001
 42
0.001
  0
INSERT
  8
COMP-MIN-OUTLINE-WIDTH-2
  2
DISC
 10
1.316
 20
1.212
 41
0.001
 42
0.001
  0
POLYLINE
  8
COMP-MIN-OUTLINE-WIDTH-2
 66
1
 70
0
 40
0.001
 41
0.001
  0
VERTEX
  8
COMP-MIN-OUTLINE-WIDTH-2
 10
1.316
 20
1.212
  0
VERTEX
  8
COMP-MIN-OUTLINE-WIDTH-2
 10
1.316
 20
1.234
  0
SEQEND
  8
COMP-MIN-OUTLINE-WIDTH-2
  0
INSERT
  8
COMP-MIN-OUTLINE-WIDTH-2
  2
DISC
 10
1.316
 20
1.234
 41
0.001
 42
0.001
  0
POLYLINE
  8
COMP-MIN-OUTLINE-WIDTH-2
 66
1
 70
0
 40
0.001
 41
0.001
  0
VERTEX
  8
COMP-MIN-OUTLINE-WIDTH-2
 10
1.316
 20
1.234
  0
VERTEX
  8
COMP-MIN-OUTLINE-WIDTH-2
 10
1.336
 20
1.234
  0
SEQEND
  8
COMP-MIN-OUTLINE-WIDTH-2
  0
INSERT
  8
COMP-MIN-OUTLINE-WIDTH-2
  2
DISC
 10
1.336
 20
1.234
 41
0.001
 42
0.001
  0
POLYLINE
  8
COMP-MIN-OUTLINE-WIDTH-2
 66
1
 70
0
 40
0.001
 41
0.001
  0
VERTEX
  8
COMP-MIN-OUTLINE-WIDTH-2
 10
1.336
 20
1.234
  0
VERTEX
  8
COMP-MIN-OUTLINE-WIDTH-2
 10
1.336
 20
1.212
  0
SEQEND
  8
COMP-MIN-OUTLINE-WIDTH-2
  0
INSERT
  8
COMP-MIN-OUTLINE-WIDTH-2
  2
DISC
 10
1.336
 20
1.212
 41
0.001
 42
0.001
  0
INSERT
  8
COMP-MIN-OUTLINE-WIDTH-2
  2
DISC
 10
1.335
 20
1.054
 41
0.001
 42
0.001
  0
POLYLINE
  8
COMP-MIN-OUTLINE-WIDTH-2
 66
1
 70
0
 40
0.001
 41
0.001
  0
VERTEX
  8
COMP-MIN-OUTLINE-WIDTH-2
 10
1.335
 20
1.054
  0
VERTEX
  8
COMP-MIN-OUTLINE-WIDTH-2
 10
1.335
 20
1.032
  0
SEQEND
  8
COMP-MIN-OUTLINE-WIDTH-2
  0
INSERT
  8
COMP-MIN-OUTLINE-WIDTH-2
  2
DISC
 10
1.335
 20
1.032
 41
0.001
 42
0.001
  0
POLYLINE
  8
COMP-MIN-OUTLINE-WIDTH-2
 66
1
 70
0
 40
0.001
 41
0.001
  0
VERTEX
  8
COMP-MIN-OUTLINE-WIDTH-2
 10
1.335
 20
1.032
  0
VERTEX
  8
COMP-MIN-OUTLINE-WIDTH-2
 10
1.315
 20
1.032
  0
SEQEND
  8
COMP-MIN-OUTLINE-WIDTH-2
  0
INSERT
  8
COMP-MIN-OUTLINE-WIDTH-2
  2
DISC
 10
1.315
 20
1.032
 41
0.001
 42
0.001
  0
POLYLINE
  8
COMP-MIN-OUTLINE-WIDTH-2
 66
1
 70
0
 40
0.001
 41
0.001
  0
VERTEX
  8
COMP-MIN-OUTLINE-WIDTH-2
 10
1.315
 20
1.032
  0
VERTEX
  8
COMP-MIN-OUTLINE-WIDTH-2
 10
1.315
 20
1.054
  0
SEQEND
  8
COMP-MIN-OUTLINE-WIDTH-2
  0
INSERT
  8
COMP-MIN-OUTLINE-WIDTH-2
  2
DISC
 10
1.315
 20
1.054
 41
0.001
 42
0.001
  0
INSERT
  8
COMP-MIN-OUTLINE-WIDTH-2
  2
DISC
 10
1.285
 20
1.054
 41
0.001
 42
0.001
  0
POLYLINE
  8
COMP-MIN-OUTLINE-WIDTH-2
 66
1
 70
0
 40
0.001
 41
0.001
  0
VERTEX
  8
COMP-MIN-OUTLINE-WIDTH-2
 10
1.285
 20
1.054
  0
VERTEX
  8
COMP-MIN-OUTLINE-WIDTH-2
 10
1.285
 20
1.032
  0
SEQEND
  8
COMP-MIN-OUTLINE-WIDTH-2
  0
INSERT
  8
COMP-MIN-OUTLINE-WIDTH-2
  2
DISC
 10
1.285
 20
1.032
 41
0.001
 42
0.001
  0
POLYLINE
  8
COMP-MIN-OUTLINE-WIDTH-2
 66
1
 70
0
 40
0.001
 41
0.001
  0
VERTEX
  8
COMP-MIN-OUTLINE-WIDTH-2
 10
1.285
 20
1.032
  0
VERTEX
  8
COMP-MIN-OUTLINE-WIDTH-2
 10
1.265
 20
1.032
  0
SEQEND
  8
COMP-MIN-OUTLINE-WIDTH-2
  0
INSERT
  8
COMP-MIN-OUTLINE-WIDTH-2
  2
DISC
 10
1.265
 20
1.032
 41
0.001
 42
0.001
  0
POLYLINE
  8
COMP-MIN-OUTLINE-WIDTH-2
 66
1
 70
0
 40
0.001
 41
0.001
  0
VERTEX
  8
COMP-MIN-OUTLINE-WIDTH-2
 10
1.265
 20
1.032
  0
VERTEX
  8
COMP-MIN-OUTLINE-WIDTH-2
 10
1.265
 20
1.054
  0
SEQEND
  8
COMP-MIN-OUTLINE-WIDTH-2
  0
INSERT
  8
COMP-MIN-OUTLINE-WIDTH-2
  2
DISC
 10
1.265
 20
1.054
 41
0.001
 42
0.001
  0
INSERT
  8
COMP-MIN-OUTLINE-WIDTH-2
  2
DISC
 10
1.235
 20
1.054
 41
0.001
 42
0.001
  0
POLYLINE
  8
COMP-MIN-OUTLINE-WIDTH-2
 66
1
 70
0
 40
0.001
 41
0.001
  0
VERTEX
  8
COMP-MIN-OUTLINE-WIDTH-2
 10
1.235
 20
1.054
  0
VERTEX
  8
COMP-MIN-OUTLINE-WIDTH-2
 10
1.235
 20
1.032
  0
SEQEND
  8
COMP-MIN-OUTLINE-WIDTH-2
  0
INSERT
  8
COMP-MIN-OUTLINE-WIDTH-2
  2
DISC
 10
1.235
 20
1.032
 41
0.001
 42
0.001
  0
POLYLINE
  8
COMP-MIN-OUTLINE-WIDTH-2
 66
1
 70
0
 40
0.001
 41
0.001
  0
VERTEX
  8
COMP-MIN-OUTLINE-WIDTH-2
 10
1.235
 20
1.032
  0
VERTEX
  8
COMP-MIN-OUTLINE-WIDTH-2
 10
1.215
 20
1.032
  0
SEQEND
  8
COMP-MIN-OUTLINE-WIDTH-2
  0
INSERT
  8
COMP-MIN-OUTLINE-WIDTH-2
  2
DISC
 10
1.215
 20
1.032
 41
0.001
 42
0.001
  0
POLYLINE
  8
COMP-MIN-OUTLINE-WIDTH-2
 66
1
 70
0
 40
0.001
 41
0.001
  0
VERTEX
  8
COMP-MIN-OUTLINE-WIDTH-2
 10
1.215
 20
1.032
  0
VERTEX
  8
COMP-MIN-OUTLINE-WIDTH-2
 10
1.215
 20
1.054
  0
SEQEND
  8
COMP-MIN-OUTLINE-WIDTH-2
  0
INSERT
  8
COMP-MIN-OUTLINE-WIDTH-2
  2
DISC
 10
1.215
 20
1.054
 41
0.001
 42
0.001
  0
INSERT
  8
COMP-MIN-OUTLINE-WIDTH-2
  2
DISC
 10
1.185
 20
1.054
 41
0.001
 42
0.001
  0
POLYLINE
  8
COMP-MIN-OUTLINE-WIDTH-2
 66
1
 70
0
 40
0.001
 41
0.001
  0
VERTEX
  8
COMP-MIN-OUTLINE-WIDTH-2
 10
1.185
 20
1.054
  0
VERTEX
  8
COMP-MIN-OUTLINE-WIDTH-2
 10
1.185
 20
1.032
  0
SEQEND
  8
COMP-MIN-OUTLINE-WIDTH-2
  0
INSERT
  8
COMP-MIN-OUTLINE-WIDTH-2
  2
DISC
 10
1.185
 20
1.032
 41
0.001
 42
0.001
  0
POLYLINE
  8
COMP-MIN-OUTLINE-WIDTH-2
 66
1
 70
0
 40
0.001
 41
0.001
  0
VERTEX
  8
COMP-MIN-OUTLINE-WIDTH-2
 10
1.185
 20
1.032
  0
VERTEX
  8
COMP-MIN-OUTLINE-WIDTH-2
 10
1.165
 20
1.032
  0
SEQEND
  8
COMP-MIN-OUTLINE-WIDTH-2
  0
INSERT
  8
COMP-MIN-OUTLINE-WIDTH-2
  2
DISC
 10
1.165
 20
1.032
 41
0.001
 42
0.001
  0
POLYLINE
  8
COMP-MIN-OUTLINE-WIDTH-2
 66
1
 70
0
 40
0.001
 41
0.001
  0
VERTEX
  8
COMP-MIN-OUTLINE-WIDTH-2
 10
1.165
 20
1.032
  0
VERTEX
  8
COMP-MIN-OUTLINE-WIDTH-2
 10
1.165
 20
1.054
  0
SEQEND
  8
COMP-MIN-OUTLINE-WIDTH-2
  0
INSERT
  8
COMP-MIN-OUTLINE-WIDTH-2
  2
DISC
 10
1.165
 20
1.054
 41
0.001
 42
0.001
  0
INSERT
  8
COMP-MIN-OUTLINE-WIDTH-2
  2
DISC
 10
1.135
 20
1.054
 41
0.001
 42
0.001
  0
POLYLINE
  8
COMP-MIN-OUTLINE-WIDTH-2
 66
1
 70
0
 40
0.001
 41
0.001
  0
VERTEX
  8
COMP-MIN-OUTLINE-WIDTH-2
 10
1.135
 20
1.054
  0
VERTEX
  8
COMP-MIN-OUTLINE-WIDTH-2
 10
1.135
 20
1.032
  0
SEQEND
  8
COMP-MIN-OUTLINE-WIDTH-2
  0
INSERT
  8
COMP-MIN-OUTLINE-WIDTH-2
  2
DISC
 10
1.135
 20
1.032
 41
0.001
 42
0.001
  0
POLYLINE
  8
COMP-MIN-OUTLINE-WIDTH-2
 66
1
 70
0
 40
0.001
 41
0.001
  0
VERTEX
  8
COMP-MIN-OUTLINE-WIDTH-2
 10
1.135
 20
1.032
  0
VERTEX
  8
COMP-MIN-OUTLINE-WIDTH-2
 10
1.115
 20
1.032
  0
SEQEND
  8
COMP-MIN-OUTLINE-WIDTH-2
  0
INSERT
  8
COMP-MIN-OUTLINE-WIDTH-2
  2
DISC
 10
1.115
 20
1.032
 41
0.001
 42
0.001
  0
POLYLINE
  8
COMP-MIN-OUTLINE-WIDTH-2
 66
1
 70
0
 40
0.001
 41
0.001
  0
VERTEX
  8
COMP-MIN-OUTLINE-WIDTH-2
 10
1.115
 20
1.032
  0
VERTEX
  8
COMP-MIN-OUTLINE-WIDTH-2
 10
1.115
 20
1.054
  0
SEQEND
  8
COMP-MIN-OUTLINE-WIDTH-2
  0
INSERT
  8
COMP-MIN-OUTLINE-WIDTH-2
  2
DISC
 10
1.115
 20
1.054
 41
0.001
 42
0.001
  0
INSERT
  8
COMP-MIN-OUTLINE-WIDTH-2
  2
DISC
 10
1.085
 20
1.054
 41
0.001
 42
0.001
  0
POLYLINE
  8
COMP-MIN-OUTLINE-WIDTH-2
 66
1
 70
0
 40
0.001
 41
0.001
  0
VERTEX
  8
COMP-MIN-OUTLINE-WIDTH-2
 10
1.085
 20
1.054
  0
VERTEX
  8
COMP-MIN-OUTLINE-WIDTH-2
 10
1.085
 20
1.032
  0
SEQEND
  8
COMP-MIN-OUTLINE-WIDTH-2
  0
INSERT
  8
COMP-MIN-OUTLINE-WIDTH-2
  2
DISC
 10
1.085
 20
1.032
 41
0.001
 42
0.001
  0
POLYLINE
  8
COMP-MIN-OUTLINE-WIDTH-2
 66
1
 70
0
 40
0.001
 41
0.001
  0
VERTEX
  8
COMP-MIN-OUTLINE-WIDTH-2
 10
1.085
 20
1.032
  0
VERTEX
  8
COMP-MIN-OUTLINE-WIDTH-2
 10
1.065
 20
1.032
  0
SEQEND
  8
COMP-MIN-OUTLINE-WIDTH-2
  0
INSERT
  8
COMP-MIN-OUTLINE-WIDTH-2
  2
DISC
 10
1.065
 20
1.032
 41
0.001
 42
0.001
  0
POLYLINE
  8
COMP-MIN-OUTLINE-WIDTH-2
 66
1
 70
0
 40
0.001
 41
0.001
  0
VERTEX
  8
COMP-MIN-OUTLINE-WIDTH-2
 10
1.065
 20
1.032
  0
VERTEX
  8
COMP-MIN-OUTLINE-WIDTH-2
 10
1.065
 20
1.054
  0
SEQEND
  8
COMP-MIN-OUTLINE-WIDTH-2
  0
INSERT
  8
COMP-MIN-OUTLINE-WIDTH-2
  2
DISC
 10
1.065
 20
1.054
 41
0.001
 42
0.001
  0
INSERT
  8
COMP-MIN-OUTLINE-WIDTH-2
  2
DISC
 10
1.035
 20
1.054
 41
0.001
 42
0.001
  0
POLYLINE
  8
COMP-MIN-OUTLINE-WIDTH-2
 66
1
 70
0
 40
0.001
 41
0.001
  0
VERTEX
  8
COMP-MIN-OUTLINE-WIDTH-2
 10
1.035
 20
1.054
  0
VERTEX
  8
COMP-MIN-OUTLINE-WIDTH-2
 10
1.035
 20
1.032
  0
SEQEND
  8
COMP-MIN-OUTLINE-WIDTH-2
  0
INSERT
  8
COMP-MIN-OUTLINE-WIDTH-2
  2
DISC
 10
1.035
 20
1.032
 41
0.001
 42
0.001
  0
POLYLINE
  8
COMP-MIN-OUTLINE-WIDTH-2
 66
1
 70
0
 40
0.001
 41
0.001
  0
VERTEX
  8
COMP-MIN-OUTLINE-WIDTH-2
 10
1.035
 20
1.032
  0
VERTEX
  8
COMP-MIN-OUTLINE-WIDTH-2
 10
1.015
 20
1.032
  0
SEQEND
  8
COMP-MIN-OUTLINE-WIDTH-2
  0
INSERT
  8
COMP-MIN-OUTLINE-WIDTH-2
  2
DISC
 10
1.015
 20
1.032
 41
0.001
 42
0.001
  0
POLYLINE
  8
COMP-MIN-OUTLINE-WIDTH-2
 66
1
 70
0
 40
0.001
 41
0.001
  0
VERTEX
  8
COMP-MIN-OUTLINE-WIDTH-2
 10
1.015
 20
1.032
  0
VERTEX
  8
COMP-MIN-OUTLINE-WIDTH-2
 10
1.015
 20
1.054
  0
SEQEND
  8
COMP-MIN-OUTLINE-WIDTH-2
  0
INSERT
  8
COMP-MIN-OUTLINE-WIDTH-2
  2
DISC
 10
1.015
 20
1.054
 41
0.001
 42
0.001
  0
INSERT
  8
COMP-MIN-OUTLINE-WIDTH-1
  2
DISC
 10
1.000
 20
1.212
 41
0.001
 42
0.001
  0
POLYLINE
  8
COMP-MIN-OUTLINE-WIDTH-1
 66
1
 70
0
 40
0.001
 41
0.001
  0
VERTEX
  8
COMP-MIN-OUTLINE-WIDTH-1
 10
1.000
 20
1.212
  0
VERTEX
  8
COMP-MIN-OUTLINE-WIDTH-1
 10
1.000
 20
1.054
  0
SEQEND
  8
COMP-MIN-OUTLINE-WIDTH-1
  0
INSERT
  8
COMP-MIN-OUTLINE-WIDTH-1
  2
DISC
 10
1.000
 20
1.054
 41
0.001
 42
0.001
  0
INSERT
  8
COMP-MIN-OUTLINE-WIDTH-2
  2
DISC
 10
1.385
 20
1.054
 41
0.001
 42
0.001
  0
POLYLINE
  8
COMP-MIN-OUTLINE-WIDTH-2
 66
1
 70
0
 40
0.001
 41
0.001
  0
VERTEX
  8
COMP-MIN-OUTLINE-WIDTH-2
 10
1.385
 20
1.054
  0
VERTEX
  8
COMP-MIN-OUTLINE-WIDTH-2
 10
1.385
 20
1.032
  0
SEQEND
  8
COMP-MIN-OUTLINE-WIDTH-2
  0
INSERT
  8
COMP-MIN-OUTLINE-WIDTH-2
  2
DISC
 10
1.385
 20
1.032
 41
0.001
 42
0.001
  0
POLYLINE
  8
COMP-MIN-OUTLINE-WIDTH-2
 66
1
 70
0
 40
0.001
 41
0.001
  0
VERTEX
  8
COMP-MIN-OUTLINE-WIDTH-2
 10
1.385
 20
1.032
  0
VERTEX
  8
COMP-MIN-OUTLINE-WIDTH-2
 10
1.365
 20
1.032
  0
SEQEND
  8
COMP-MIN-OUTLINE-WIDTH-2
  0
INSERT
  8
COMP-MIN-OUTLINE-WIDTH-2
  2
DISC
 10
1.365
 20
1.032
 41
0.001
 42
0.001
  0
POLYLINE
  8
COMP-MIN-OUTLINE-WIDTH-2
 66
1
 70
0
 40
0.001
 41
0.001
  0
VERTEX
  8
COMP-MIN-OUTLINE-WIDTH-2
 10
1.365
 20
1.032
  0
VERTEX
  8
COMP-MIN-OUTLINE-WIDTH-2
 10
1.365
 20
1.054
  0
SEQEND
  8
COMP-MIN-OUTLINE-WIDTH-2
  0
INSERT
  8
COMP-MIN-OUTLINE-WIDTH-2
  2
DISC
 10
1.365
 20
1.054
 41
0.001
 42
0.001
  0
INSERT
  8
COMP-MIN-OUTLINE-WIDTH-2
  2
DISC
 10
1.366
 20
1.212
 41
0.001
 42
0.001
  0
POLYLINE
  8
COMP-MIN-OUTLINE-WIDTH-2
 66
1
 70
0
 40
0.001
 41
0.001
  0
VERTEX
  8
COMP-MIN-OUTLINE-WIDTH-2
 10
1.366
 20
1.212
  0
VERTEX
  8
COMP-MIN-OUTLINE-WIDTH-2
 10
1.366
 20
1.234
  0
SEQEND
  8
COMP-MIN-OUTLINE-WIDTH-2
  0
INSERT
  8
COMP-MIN-OUTLINE-WIDTH-2
  2
DISC
 10
1.366
 20
1.234
 41
0.001
 42
0.001
  0
POLYLINE
  8
COMP-MIN-OUTLINE-WIDTH-2
 66
1
 70
0
 40
0.001
 41
0.001
  0
VERTEX
  8
COMP-MIN-OUTLINE-WIDTH-2
 10
1.366
 20
1.234
  0
VERTEX
  8
COMP-MIN-OUTLINE-WIDTH-2
 10
1.386
 20
1.234
  0
SEQEND
  8
COMP-MIN-OUTLINE-WIDTH-2
  0
INSERT
  8
COMP-MIN-OUTLINE-WIDTH-2
  2
DISC
 10
1.386
 20
1.234
 41
0.001
 42
0.001
  0
POLYLINE
  8
COMP-MIN-OUTLINE-WIDTH-2
 66
1
 70
0
 40
0.001
 41
0.001
  0
VERTEX
  8
COMP-MIN-OUTLINE-WIDTH-2
 10
1.386
 20
1.234
  0
VERTEX
  8
COMP-MIN-OUTLINE-WIDTH-2
 10
1.386
 20
1.212
  0
SEQEND
  8
COMP-MIN-OUTLINE-WIDTH-2
  0
INSERT
  8
COMP-MIN-OUTLINE-WIDTH-2
  2
DISC
 10
1.386
 20
1.212
 41
0.001
 42
0.001
  0
INSERT
  8
COMP-MIN-OUTLINE-WIDTH-2
  2
DISC
 10
1.400
 20
1.212
 41
0.001
 42
0.001
  0
POLYLINE
  8
COMP-MIN-OUTLINE-WIDTH-2
 66
1
 70
0
 40
0.001
 41
0.001
  0
VERTEX
  8
COMP-MIN-OUTLINE-WIDTH-2
 10
1.400
 20
1.212
  0
VERTEX
  8
COMP-MIN-OUTLINE-WIDTH-2
 10
1.400
 20
1.054
  0
SEQEND
  8
COMP-MIN-OUTLINE-WIDTH-2
  0
INSERT
  8
COMP-MIN-OUTLINE-WIDTH-2
  2
DISC
 10
1.400
 20
1.054
 41
0.001
 42
0.001
  0
INSERT
  8
COMP-MIN-OUTLINE-WIDTH-1
  2
DISC
 10
1.015
 20
1.080
 41
0.001
 42
0.001
  0
POLYLINE
  8
COMP-MIN-OUTLINE-WIDTH-1
 66
1
 70
0
 40
0.001
 41
0.001
  0
VERTEX
  8
COMP-MIN-OUTLINE-WIDTH-1
 10
1.015
 20
1.080
 42
1.000
  0
VERTEX
  8
COMP-MIN-OUTLINE-WIDTH-1
 10
1.040
 20
1.080
 42
1.000
  0
SEQEND
  8
COMP-MIN-OUTLINE-WIDTH-1
  0
INSERT
  8
COMP-MIN-OUTLINE-WIDTH-1
  2
DISC
 10
1.040
 20
1.080
 41
0.001
 42
0.001
  0
POLYLINE
  8
COMP-MIN-OUTLINE-WIDTH-1
 66
1
 70
0
 40
0.001
 41
0.001
  0
VERTEX
  8
COMP-MIN-OUTLINE-WIDTH-1
 10
1.040
 20
1.080
 42
1.000
  0
VERTEX
  8
COMP-MIN-OUTLINE-WIDTH-1
 10
1.015
 20
1.080
  0
SEQEND
  8
COMP-MIN-OUTLINE-WIDTH-1
  0
INSERT
  8
COMP-MIN-OUTLINE-WIDTH-1
  2
DISC
 10
1.015
 20
1.080
 41
0.001
 42
0.001
  0
ENDBLK
  8
COMP-MIN-OUTLINE-WIDTH-1
  0
BLOCK
  8
0
  2
1379D
 70
0
 10
2.128
 20
2.100
  0
INSERT
  8
0
  2
PD12
 10
2.128
 20
2.100
  0
INSERT
  8
0
  2
PD12
 10
2.321
 20
2.100
  0
ENDBLK
  8
0
  0
BLOCK
  8
0
  2
1379N
 70
0
 10
2.128
 20
2.100
  0
INSERT
  8
0
  2
PN12
 10
2.128
 20
2.100
  0
INSERT
  8
0
  2
PN12
 10
2.321
 20
2.100
  0
ENDBLK
  8
0
  0
BLOCK
  8
0
  2
1379I
 70
0
 10
2.128
 20
2.100
  0
INSERT
  8
0
  2
PI12
 10
2.128
 20
2.100
  0
INSERT
  8
0
  2
PI12
 10
2.321
 20
2.100
  0
ENDBLK
  8
0
  0
BLOCK
  8
0
  2
1379X
 70
0
 10
2.128
 20
2.100
  0
INSERT
  8
0
  2
PX12
 10
2.128
 20
2.100
  0
INSERT
  8
0
  2
PX12
 10
2.321
 20
2.100
  0
ENDBLK
  8
0
  0
BLOCK
  8
0
  2
1379
 70
0
 10
2.128
 20
2.100
  0
INSERT
  8
COMP-MIN-OUTLINE-WIDTH-1
  2
DISC
 10
2.100
 20
2.195
 41
0.001
 42
0.001
  0
POLYLINE
  8
COMP-MIN-OUTLINE-WIDTH-1
 66
1
 70
0
 40
0.001
 41
0.001
  0
VERTEX
  8
COMP-MIN-OUTLINE-WIDTH-1
 10
2.100
 20
2.195
 42
1.000
  0
VERTEX
  8
COMP-MIN-OUTLINE-WIDTH-1
 10
2.100
 20
2.005
  0
SEQEND
  8
COMP-MIN-OUTLINE-WIDTH-1
  0
INSERT
  8
COMP-MIN-OUTLINE-WIDTH-1
  2
DISC
 10
2.100
 20
2.005
 41
0.001
 42
0.001
  0
INSERT
  8
COMP-MIN-OUTLINE-WIDTH-1
  2
DISC
 10
2.350
 20
2.195
 41
0.001
 42
0.001
  0
POLYLINE
  8
COMP-MIN-OUTLINE-WIDTH-1
 66
1
 70
0
 40
0.001
 41
0.001
  0
VERTEX
  8
COMP-MIN-OUTLINE-WIDTH-1
 10
2.350
 20
2.195
 42
-1.000
  0
VERTEX
  8
COMP-MIN-OUTLINE-WIDTH-1
 10
2.350
 20
2.005
  0
SEQEND
  8
COMP-MIN-OUTLINE-WIDTH-1
  0
INSERT
  8
COMP-MIN-OUTLINE-WIDTH-1
  2
DISC
 10
2.350
 20
2.005
 41
0.001
 42
0.001
  0
INSERT
  8
COMP-MIN-OUTLINE-WIDTH-1
  2
DISC
 10
2.105
 20
2.195
 41
0.001
 42
0.001
  0
POLYLINE
  8
COMP-MIN-OUTLINE-WIDTH-1
 66
1
 70
0
 40
0.001
 41
0.001
  0
VERTEX
  8
COMP-MIN-OUTLINE-WIDTH-1
 10
2.105
 20
2.195
  0
VERTEX
  8
COMP-MIN-OUTLINE-WIDTH-1
 10
2.350
 20
2.195
  0
SEQEND
  8
COMP-MIN-OUTLINE-WIDTH-1
  0
INSERT
  8
COMP-MIN-OUTLINE-WIDTH-1
  2
DISC
 10
2.350
 20
2.195
 41
0.001
 42
0.001
  0
INSERT
  8
COMP-MIN-OUTLINE-WIDTH-1
  2
DISC
 10
2.100
 20
2.005
 41
0.001
 42
0.001
  0
POLYLINE
  8
COMP-MIN-OUTLINE-WIDTH-1
 66
1
 70
0
 40
0.001
 41
0.001
  0
VERTEX
  8
COMP-MIN-OUTLINE-WIDTH-1
 10
2.100
 20
2.005
  0
VERTEX
  8
COMP-MIN-OUTLINE-WIDTH-1
 10
2.350
 20
2.005
  0
SEQEND
  8
COMP-MIN-OUTLINE-WIDTH-1
  0
INSERT
  8
COMP-MIN-OUTLINE-WIDTH-1
  2
DISC
 10
2.350
 20
2.005
 41
0.001
 42
0.001
  0
ENDBLK
  8
COMP-MIN-OUTLINE-WIDTH-1
  0
BLOCK
  8
0
  2
1440D
 70
0
 10
2.125
 20
2.050
  0
INSERT
  8
0
  2
PD6
 10
2.125
 20
2.050
  0
INSERT
  8
0
  2
PD6
 10
2.175
 20
2.150
  0
INSERT
  8
0
  2
PD6
 10
2.225
 20
2.050
  0
INSERT
  8
0
  2
PD6
 10
2.275
 20
2.150
  0
INSERT
  8
0
  2
PD6
 10
2.325
 20
2.050
  0
INSERT
  8
0
  2
PD6
 10
2.375
 20
2.150
  0
INSERT
  8
0
  2
PD6
 10
2.425
 20
2.050
  0
INSERT
  8
0
  2
PD6
 10
2.475
 20
2.150
  0
INSERT
  8
0
  2
PD6
 10
2.525
 20
2.050
  0
INSERT
  8
0
  2
PD6
 10
2.575
 20
2.150
  0
INSERT
  8
0
  2
PD6
 10
2.625
 20
2.050
  0
INSERT
  8
0
  2
PD6
 10
2.675
 20
2.150
  0
INSERT
  8
0
  2
PD6
 10
2.725
 20
2.050
  0
INSERT
  8
0
  2
PD6
 10
2.775
 20
2.150
  0
INSERT
  8
0
  2
PD6
 10
2.825
 20
2.050
  0
INSERT
  8
0
  2
PD6
 10
2.875
 20
2.150
  0
INSERT
  8
0
  2
PD6
 10
2.925
 20
2.050
  0
INSERT
  8
0
  2
PD6
 10
2.975
 20
2.150
  0
INSERT
  8
0
  2
PD6
 10
3.025
 20
2.050
  0
INSERT
  8
0
  2
PD6
 10
3.075
 20
2.150
  0
INSERT
  8
0
  2
PD38
 10
2.075
 20
2.125
  0
ENDBLK
  8
0
  0
BLOCK
  8
0
  2
1440N
 70
0
 10
2.125
 20
2.050
  0
INSERT
  8
0
  2
PN6
 10
2.125
 20
2.050
  0
INSERT
  8
0
  2
PN6
 10
2.175
 20
2.150
  0
INSERT
  8
0
  2
PN6
 10
2.225
 20
2.050
  0
INSERT
  8
0
  2
PN6
 10
2.275
 20
2.150
  0
INSERT
  8
0
  2
PN6
 10
2.325
 20
2.050
  0
INSERT
  8
0
  2
PN6
 10
2.375
 20
2.150
  0
INSERT
  8
0
  2
PN6
 10
2.425
 20
2.050
  0
INSERT
  8
0
  2
PN6
 10
2.475
 20
2.150
  0
INSERT
  8
0
  2
PN6
 10
2.525
 20
2.050
  0
INSERT
  8
0
  2
PN6
 10
2.575
 20
2.150
  0
INSERT
  8
0
  2
PN6
 10
2.625
 20
2.050
  0
INSERT
  8
0
  2
PN6
 10
2.675
 20
2.150
  0
INSERT
  8
0
  2
PN6
 10
2.725
 20
2.050
  0
INSERT
  8
0
  2
PN6
 10
2.775
 20
2.150
  0
INSERT
  8
0
  2
PN6
 10
2.825
 20
2.050
  0
INSERT
  8
0
  2
PN6
 10
2.875
 20
2.150
  0
INSERT
  8
0
  2
PN6
 10
2.925
 20
2.050
  0
INSERT
  8
0
  2
PN6
 10
2.975
 20
2.150
  0
INSERT
  8
0
  2
PN6
 10
3.025
 20
2.050
  0
INSERT
  8
0
  2
PN6
 10
3.075
 20
2.150
  0
INSERT
  8
0
  2
PN38
 10
2.075
 20
2.125
  0
ENDBLK
  8
0
  0
BLOCK
  8
0
  2
1440I
 70
0
 10
2.125
 20
2.050
  0
INSERT
  8
0
  2
PI6
 10
2.125
 20
2.050
  0
INSERT
  8
0
  2
PI6
 10
2.175
 20
2.150
  0
INSERT
  8
0
  2
PI6
 10
2.225
 20
2.050
  0
INSERT
  8
0
  2
PI6
 10
2.275
 20
2.150
  0
INSERT
  8
0
  2
PI6
 10
2.325
 20
2.050
  0
INSERT
  8
0
  2
PI6
 10
2.375
 20
2.150
  0
INSERT
  8
0
  2
PI6
 10
2.425
 20
2.050
  0
INSERT
  8
0
  2
PI6
 10
2.475
 20
2.150
  0
INSERT
  8
0
  2
PI6
 10
2.525
 20
2.050
  0
INSERT
  8
0
  2
PI6
 10
2.575
 20
2.150
  0
INSERT
  8
0
  2
PI6
 10
2.625
 20
2.050
  0
INSERT
  8
0
  2
PI6
 10
2.675
 20
2.150
  0
INSERT
  8
0
  2
PI6
 10
2.725
 20
2.050
  0
INSERT
  8
0
  2
PI6
 10
2.775
 20
2.150
  0
INSERT
  8
0
  2
PI6
 10
2.825
 20
2.050
  0
INSERT
  8
0
  2
PI6
 10
2.875
 20
2.150
  0
INSERT
  8
0
  2
PI6
 10
2.925
 20
2.050
  0
INSERT
  8
0
  2
PI6
 10
2.975
 20
2.150
  0
INSERT
  8
0
  2
PI6
 10
3.025
 20
2.050
  0
INSERT
  8
0
  2
PI6
 10
3.075
 20
2.150
  0
INSERT
  8
0
  2
PI38
 10
2.075
 20
2.125
  0
ENDBLK
  8
0
  0
BLOCK
  8
0
  2
1440X
 70
0
 10
2.125
 20
2.050
  0
INSERT
  8
0
  2
PX6
 10
2.125
 20
2.050
  0
INSERT
  8
0
  2
PX6
 10
2.175
 20
2.150
  0
INSERT
  8
0
  2
PX6
 10
2.225
 20
2.050
  0
INSERT
  8
0
  2
PX6
 10
2.275
 20
2.150
  0
INSERT
  8
0
  2
PX6
 10
2.325
 20
2.050
  0
INSERT
  8
0
  2
PX6
 10
2.375
 20
2.150
  0
INSERT
  8
0
  2
PX6
 10
2.425
 20
2.050
  0
INSERT
  8
0
  2
PX6
 10
2.475
 20
2.150
  0
INSERT
  8
0
  2
PX6
 10
2.525
 20
2.050
  0
INSERT
  8
0
  2
PX6
 10
2.575
 20
2.150
  0
INSERT
  8
0
  2
PX6
 10
2.625
 20
2.050
  0
INSERT
  8
0
  2
PX6
 10
2.675
 20
2.150
  0
INSERT
  8
0
  2
PX6
 10
2.725
 20
2.050
  0
INSERT
  8
0
  2
PX6
 10
2.775
 20
2.150
  0
INSERT
  8
0
  2
PX6
 10
2.825
 20
2.050
  0
INSERT
  8
0
  2
PX6
 10
2.875
 20
2.150
  0
INSERT
  8
0
  2
PX6
 10
2.925
 20
2.050
  0
INSERT
  8
0
  2
PX6
 10
2.975
 20
2.150
  0
INSERT
  8
0
  2
PX6
 10
3.025
 20
2.050
  0
INSERT
  8
0
  2
PX6
 10
3.075
 20
2.150
  0
INSERT
  8
0
  2
PX38
 10
2.075
 20
2.125
  0
ENDBLK
  8
0
  0
BLOCK
  8
0
  2
1440
 70
0
 10
2.125
 20
2.050
  0
INSERT
  8
COMP-MIN-OUTLINE-WIDTH-1
  2
DISC
 10
2.000
 20
2.000
 41
0.001
 42
0.001
  0
POLYLINE
  8
COMP-MIN-OUTLINE-WIDTH-1
 66
1
 70
0
 40
0.001
 41
0.001
  0
VERTEX
  8
COMP-MIN-OUTLINE-WIDTH-1
 10
2.000
 20
2.000
  0
VERTEX
  8
COMP-MIN-OUTLINE-WIDTH-1
 10
3.150
 20
2.000
  0
SEQEND
  8
COMP-MIN-OUTLINE-WIDTH-1
  0
INSERT
  8
COMP-MIN-OUTLINE-WIDTH-1
  2
DISC
 10
3.150
 20
2.000
 41
0.001
 42
0.001
  0
POLYLINE
  8
COMP-MIN-OUTLINE-WIDTH-1
 66
1
 70
0
 40
0.001
 41
0.001
  0
VERTEX
  8
COMP-MIN-OUTLINE-WIDTH-1
 10
3.150
 20
2.000
  0
VERTEX
  8
COMP-MIN-OUTLINE-WIDTH-1
 10
3.150
 20
2.200
  0
SEQEND
  8
COMP-MIN-OUTLINE-WIDTH-1
  0
INSERT
  8
COMP-MIN-OUTLINE-WIDTH-1
  2
DISC
 10
3.150
 20
2.200
 41
0.001
 42
0.001
  0
POLYLINE
  8
COMP-MIN-OUTLINE-WIDTH-1
 66
1
 70
0
 40
0.001
 41
0.001
  0
VERTEX
  8
COMP-MIN-OUTLINE-WIDTH-1
 10
3.150
 20
2.200
  0
VERTEX
  8
COMP-MIN-OUTLINE-WIDTH-1
 10
2.000
 20
2.200
  0
SEQEND
  8
COMP-MIN-OUTLINE-WIDTH-1
  0
INSERT
  8
COMP-MIN-OUTLINE-WIDTH-1
  2
DISC
 10
2.000
 20
2.200
 41
0.001
 42
0.001
  0
POLYLINE
  8
COMP-MIN-OUTLINE-WIDTH-1
 66
1
 70
0
 40
0.001
 41
0.001
  0
VERTEX
  8
COMP-MIN-OUTLINE-WIDTH-1
 10
2.000
 20
2.200
  0
VERTEX
  8
COMP-MIN-OUTLINE-WIDTH-1
 10
2.000
 20
2.000
  0
SEQEND
  8
COMP-MIN-OUTLINE-WIDTH-1
  0
INSERT
  8
COMP-MIN-OUTLINE-WIDTH-1
  2
DISC
 10
2.000
 20
2.000
 41
0.001
 42
0.001
  0
INSERT
  8
COMP-MIN-OUTLINE-WIDTH-1
  2
DISC
 10
2.000
 20
2.000
 41
0.001
 42
0.001
  0
POLYLINE
  8
COMP-MIN-OUTLINE-WIDTH-1
 66
1
 70
0
 40
0.001
 41
0.001
  0
VERTEX
  8
COMP-MIN-OUTLINE-WIDTH-1
 10
2.000
 20
2.000
  0
VERTEX
  8
COMP-MIN-OUTLINE-WIDTH-1
 10
3.150
 20
2.000
  0
SEQEND
  8
COMP-MIN-OUTLINE-WIDTH-1
  0
INSERT
  8
COMP-MIN-OUTLINE-WIDTH-1
  2
DISC
 10
3.150
 20
2.000
 41
0.001
 42
0.001
  0
POLYLINE
  8
COMP-MIN-OUTLINE-WIDTH-1
 66
1
 70
0
 40
0.001
 41
0.001
  0
VERTEX
  8
COMP-MIN-OUTLINE-WIDTH-1
 10
3.150
 20
2.000
  0
VERTEX
  8
COMP-MIN-OUTLINE-WIDTH-1
 10
3.150
 20
2.200
  0
SEQEND
  8
COMP-MIN-OUTLINE-WIDTH-1
  0
INSERT
  8
COMP-MIN-OUTLINE-WIDTH-1
  2
DISC
 10
3.150
 20
2.200
 41
0.001
 42
0.001
  0
POLYLINE
  8
COMP-MIN-OUTLINE-WIDTH-1
 66
1
 70
0
 40
0.001
 41
0.001
  0
VERTEX
  8
COMP-MIN-OUTLINE-WIDTH-1
 10
3.150
 20
2.200
  0
VERTEX
  8
COMP-MIN-OUTLINE-WIDTH-1
 10
2.000
 20
2.200
  0
SEQEND
  8
COMP-MIN-OUTLINE-WIDTH-1
  0
INSERT
  8
COMP-MIN-OUTLINE-WIDTH-1
  2
DISC
 10
2.000
 20
2.200
 41
0.001
 42
0.001
  0
POLYLINE
  8
COMP-MIN-OUTLINE-WIDTH-1
 66
1
 70
0
 40
0.001
 41
0.001
  0
VERTEX
  8
COMP-MIN-OUTLINE-WIDTH-1
 10
2.000
 20
2.200
  0
VERTEX
  8
COMP-MIN-OUTLINE-WIDTH-1
 10
2.000
 20
2.000
  0
SEQEND
  8
COMP-MIN-OUTLINE-WIDTH-1
  0
INSERT
  8
COMP-MIN-OUTLINE-WIDTH-1
  2
DISC
 10
2.000
 20
2.000
 41
0.001
 42
0.001
  0
INSERT
  8
COMP-MIN-OUTLINE-WIDTH-2
  2
DISC
 10
2.045
 20
2.050
 41
0.001
 42
0.001
  0
POLYLINE
  8
COMP-MIN-OUTLINE-WIDTH-2
 66
1
 70
0
 40
0.001
 41
0.001
  0
VERTEX
  8
COMP-MIN-OUTLINE-WIDTH-2
 10
2.045
 20
2.050
  0
VERTEX
  8
COMP-MIN-OUTLINE-WIDTH-2
 10
2.045
 20
2.025
  0
SEQEND
  8
COMP-MIN-OUTLINE-WIDTH-2
  0
INSERT
  8
COMP-MIN-OUTLINE-WIDTH-2
  2
DISC
 10
2.045
 20
2.025
 41
0.001
 42
0.001
  0
POLYLINE
  8
COMP-MIN-OUTLINE-WIDTH-2
 66
1
 70
0
 40
0.001
 41
0.001
  0
VERTEX
  8
COMP-MIN-OUTLINE-WIDTH-2
 10
2.045
 20
2.025
  0
VERTEX
  8
COMP-MIN-OUTLINE-WIDTH-2
 10
2.070
 20
2.025
  0
SEQEND
  8
COMP-MIN-OUTLINE-WIDTH-2
  0
INSERT
  8
COMP-MIN-OUTLINE-WIDTH-2
  2
DISC
 10
2.070
 20
2.025
 41
0.001
 42
0.001
  0
POLYLINE
  8
COMP-MIN-OUTLINE-WIDTH-2
 66
1
 70
0
 40
0.001
 41
0.001
  0
VERTEX
  8
COMP-MIN-OUTLINE-WIDTH-2
 10
2.070
 20
2.025
  0
VERTEX
  8
COMP-MIN-OUTLINE-WIDTH-2
 10
2.070
 20
2.050
  0
SEQEND
  8
COMP-MIN-OUTLINE-WIDTH-2
  0
INSERT
  8
COMP-MIN-OUTLINE-WIDTH-2
  2
DISC
 10
2.070
 20
2.050
 41
0.001
 42
0.001
  0
POLYLINE
  8
COMP-MIN-OUTLINE-WIDTH-2
 66
1
 70
0
 40
0.001
 41
0.001
  0
VERTEX
  8
COMP-MIN-OUTLINE-WIDTH-2
 10
2.070
 20
2.050
  0
VERTEX
  8
COMP-MIN-OUTLINE-WIDTH-2
 10
2.045
 20
2.050
  0
SEQEND
  8
COMP-MIN-OUTLINE-WIDTH-2
  0
INSERT
  8
COMP-MIN-OUTLINE-WIDTH-2
  2
DISC
 10
2.045
 20
2.050
 41
0.001
 42
0.001
  0
ENDBLK
  8
0
  0
BLOCK
  8
0
  2
2012D
 70
0
 10
2.082
 20
2.175
  0
INSERT
  8
0
  2
PD57
 10
2.082
 20
2.175
  0
INSERT
  8
0
  2
PD17
 10
2.238
 20
2.175
  0
INSERT
  8
0
  2
PD17
 10
2.394
 20
2.175
  0
INSERT
  8
0
  2
PD17
 10
2.550
 20
2.175
  0
INSERT
  8
0
  2
PD17
 10
2.706
 20
2.175
  0
INSERT
  8
0
  2
PD17
 10
2.862
 20
2.175
  0
INSERT
  8
0
  2
PD17
 10
3.018
 20
2.175
  0
ENDBLK
  8
0
  0
BLOCK
  8
0
  2
2012N
 70
0
 10
2.082
 20
2.175
  0
INSERT
  8
0
  2
PN57
 10
2.082
 20
2.175
  0
INSERT
  8
0
  2
PN17
 10
2.238
 20
2.175
  0
INSERT
  8
0
  2
PN17
 10
2.394
 20
2.175
  0
INSERT
  8
0
  2
PN17
 10
2.550
 20
2.175
  0
INSERT
  8
0
  2
PN17
 10
2.706
 20
2.175
  0
INSERT
  8
0
  2
PN17
 10
2.862
 20
2.175
  0
INSERT
  8
0
  2
PN17
 10
3.018
 20
2.175
  0
ENDBLK
  8
0
  0
BLOCK
  8
0
  2
2012I
 70
0
 10
2.082
 20
2.175
  0
INSERT
  8
0
  2
PI57
 10
2.082
 20
2.175
  0
INSERT
  8
0
  2
PI17
 10
2.238
 20
2.175
  0
INSERT
  8
0
  2
PI17
 10
2.394
 20
2.175
  0
INSERT
  8
0
  2
PI17
 10
2.550
 20
2.175
  0
INSERT
  8
0
  2
PI17
 10
2.706
 20
2.175
  0
INSERT
  8
0
  2
PI17
 10
2.862
 20
2.175
  0
INSERT
  8
0
  2
PI17
 10
3.018
 20
2.175
  0
ENDBLK
  8
0
  0
BLOCK
  8
0
  2
2012X
 70
0
 10
2.082
 20
2.175
  0
INSERT
  8
0
  2
PX57
 10
2.082
 20
2.175
  0
INSERT
  8
0
  2
PX17
 10
2.238
 20
2.175
  0
INSERT
  8
0
  2
PX17
 10
2.394
 20
2.175
  0
INSERT
  8
0
  2
PX17
 10
2.550
 20
2.175
  0
INSERT
  8
0
  2
PX17
 10
2.706
 20
2.175
  0
INSERT
  8
0
  2
PX17
 10
2.862
 20
2.175
  0
INSERT
  8
0
  2
PX17
 10
3.018
 20
2.175
  0
ENDBLK
  8
0
  0
BLOCK
  8
0
  2
2012
 70
0
 10
2.082
 20
2.175
  0
INSERT
  8
COMP-MIN-OUTLINE-WIDTH-1
  2
DISC
 10
2.005
 20
2.345
 41
0.001
 42
0.001
  0
POLYLINE
  8
COMP-MIN-OUTLINE-WIDTH-1
 66
1
 70
0
 40
0.001
 41
0.001
  0
VERTEX
  8
COMP-MIN-OUTLINE-WIDTH-1
 10
2.005
 20
2.345
  0
VERTEX
  8
COMP-MIN-OUTLINE-WIDTH-1
 10
2.005
 20
2.005
  0
SEQEND
  8
COMP-MIN-OUTLINE-WIDTH-1
  0
INSERT
  8
COMP-MIN-OUTLINE-WIDTH-1
  2
DISC
 10
2.005
 20
2.005
 41
0.001
 42
0.001
  0
POLYLINE
  8
COMP-MIN-OUTLINE-WIDTH-1
 66
1
 70
0
 40
0.001
 41
0.001
  0
VERTEX
  8
COMP-MIN-OUTLINE-WIDTH-1
 10
2.005
 20
2.005
  0
VERTEX
  8
COMP-MIN-OUTLINE-WIDTH-1
 10
3.095
 20
2.005
  0
SEQEND
  8
COMP-MIN-OUTLINE-WIDTH-1
  0
INSERT
  8
COMP-MIN-OUTLINE-WIDTH-1
  2
DISC
 10
3.095
 20
2.005
 41
0.001
 42
0.001
  0
POLYLINE
  8
COMP-MIN-OUTLINE-WIDTH-1
 66
1
 70
0
 40
0.001
 41
0.001
  0
VERTEX
  8
COMP-MIN-OUTLINE-WIDTH-1
 10
3.095
 20
2.005
  0
VERTEX
  8
COMP-MIN-OUTLINE-WIDTH-1
 10
3.095
 20
2.345
  0
SEQEND
  8
COMP-MIN-OUTLINE-WIDTH-1
  0
INSERT
  8
COMP-MIN-OUTLINE-WIDTH-1
  2
DISC
 10
3.095
 20
2.345
 41
0.001
 42
0.001
  0
POLYLINE
  8
COMP-MIN-OUTLINE-WIDTH-1
 66
1
 70
0
 40
0.001
 41
0.001
  0
VERTEX
  8
COMP-MIN-OUTLINE-WIDTH-1
 10
3.095
 20
2.345
  0
VERTEX
  8
COMP-MIN-OUTLINE-WIDTH-1
 10
2.005
 20
2.345
  0
SEQEND
  8
COMP-MIN-OUTLINE-WIDTH-1
  0
INSERT
  8
COMP-MIN-OUTLINE-WIDTH-1
  2
DISC
 10
2.005
 20
2.345
 41
0.001
 42
0.001
  0
INSERT
  8
COMP-MIN-OUTLINE-WIDTH-1
  2
DISC
 10
2.005
 20
2.075
 41
0.001
 42
0.001
  0
POLYLINE
  8
COMP-MIN-OUTLINE-WIDTH-1
 66
1
 70
0
 40
0.001
 41
0.001
  0
VERTEX
  8
COMP-MIN-OUTLINE-WIDTH-1
 10
2.005
 20
2.075
  0
VERTEX
  8
COMP-MIN-OUTLINE-WIDTH-1
 10
2.005
 20
2.073
  0
SEQEND
  8
COMP-MIN-OUTLINE-WIDTH-1
  0
INSERT
  8
COMP-MIN-OUTLINE-WIDTH-1
  2
DISC
 10
2.005
 20
2.073
 41
0.001
 42
0.001
  0
POLYLINE
  8
COMP-MIN-OUTLINE-WIDTH-1
 66
1
 70
0
 40
0.001
 41
0.001
  0
VERTEX
  8
COMP-MIN-OUTLINE-WIDTH-1
 10
2.005
 20
2.073
  0
VERTEX
  8
COMP-MIN-OUTLINE-WIDTH-1
 10
3.095
 20
2.073
  0
SEQEND
  8
COMP-MIN-OUTLINE-WIDTH-1
  0
INSERT
  8
COMP-MIN-OUTLINE-WIDTH-1
  2
DISC
 10
3.095
 20
2.073
 41
0.001
 42
0.001
  0
POLYLINE
  8
COMP-MIN-OUTLINE-WIDTH-1
 66
1
 70
0
 40
0.001
 41
0.001
  0
VERTEX
  8
COMP-MIN-OUTLINE-WIDTH-1
 10
3.095
 20
2.073
  0
VERTEX
  8
COMP-MIN-OUTLINE-WIDTH-1
 10
3.095
 20
2.074
  0
SEQEND
  8
COMP-MIN-OUTLINE-WIDTH-1
  0
INSERT
  8
COMP-MIN-OUTLINE-WIDTH-1
  2
DISC
 10
3.095
 20
2.074
 41
0.001
 42
0.001
  0
POLYLINE
  8
COMP-MIN-OUTLINE-WIDTH-1
 66
1
 70
0
 40
0.001
 41
0.001
  0
VERTEX
  8
COMP-MIN-OUTLINE-WIDTH-1
 10
3.095
 20
2.074
  0
VERTEX
  8
COMP-MIN-OUTLINE-WIDTH-1
 10
2.005
 20
2.074
  0
SEQEND
  8
COMP-MIN-OUTLINE-WIDTH-1
  0
INSERT
  8
COMP-MIN-OUTLINE-WIDTH-1
  2
DISC
 10
2.005
 20
2.074
 41
0.001
 42
0.001
  0
TEXT
  8
COMP-MIN-TEXT-WIDTH-0
 10
2.060
 20
2.230
 40
0.050
  1
1
  0
ENDBLK
  8
COMP-MIN-TEXT-WIDTH-0
  0
BLOCK
  8
0
  2
2088D
 70
0
 10
2.125
 20
2.050
  0
INSERT
  8
0
  2
PD6
 10
2.125
 20
2.050
  0
INSERT
  8
0
  2
PD6
 10
2.175
 20
2.150
  0
INSERT
  8
0
  2
PD6
 10
2.225
 20
2.050
  0
INSERT
  8
0
  2
PD6
 10
2.275
 20
2.150
  0
INSERT
  8
0
  2
PD6
 10
2.325
 20
2.050
  0
INSERT
  8
0
  2
PD6
 10
2.375
 20
2.150
  0
INSERT
  8
0
  2
PD6
 10
2.425
 20
2.050
  0
INSERT
  8
0
  2
PD6
 10
2.475
 20
2.150
  0
INSERT
  8
0
  2
PD6
 10
2.525
 20
2.050
  0
INSERT
  8
0
  2
PD6
 10
2.575
 20
2.150
  0
INSERT
  8
0
  2
PD38
 10
2.075
 20
2.125
  0
ENDBLK
  8
0
  0
BLOCK
  8
0
  2
2088N
 70
0
 10
2.125
 20
2.050
  0
INSERT
  8
0
  2
PN6
 10
2.125
 20
2.050
  0
INSERT
  8
0
  2
PN6
 10
2.175
 20
2.150
  0
INSERT
  8
0
  2
PN6
 10
2.225
 20
2.050
  0
INSERT
  8
0
  2
PN6
 10
2.275
 20
2.150
  0
INSERT
  8
0
  2
PN6
 10
2.325
 20
2.050
  0
INSERT
  8
0
  2
PN6
 10
2.375
 20
2.150
  0
INSERT
  8
0
  2
PN6
 10
2.425
 20
2.050
  0
INSERT
  8
0
  2
PN6
 10
2.475
 20
2.150
  0
INSERT
  8
0
  2
PN6
 10
2.525
 20
2.050
  0
INSERT
  8
0
  2
PN6
 10
2.575
 20
2.150
  0
INSERT
  8
0
  2
PN38
 10
2.075
 20
2.125
  0
ENDBLK
  8
0
  0
BLOCK
  8
0
  2
2088I
 70
0
 10
2.125
 20
2.050
  0
INSERT
  8
0
  2
PI6
 10
2.125
 20
2.050
  0
INSERT
  8
0
  2
PI6
 10
2.175
 20
2.150
  0
INSERT
  8
0
  2
PI6
 10
2.225
 20
2.050
  0
INSERT
  8
0
  2
PI6
 10
2.275
 20
2.150
  0
INSERT
  8
0
  2
PI6
 10
2.325
 20
2.050
  0
INSERT
  8
0
  2
PI6
 10
2.375
 20
2.150
  0
INSERT
  8
0
  2
PI6
 10
2.425
 20
2.050
  0
INSERT
  8
0
  2
PI6
 10
2.475
 20
2.150
  0
INSERT
  8
0
  2
PI6
 10
2.525
 20
2.050
  0
INSERT
  8
0
  2
PI6
 10
2.575
 20
2.150
  0
INSERT
  8
0
  2
PI38
 10
2.075
 20
2.125
  0
ENDBLK
  8
0
  0
BLOCK
  8
0
  2
2088X
 70
0
 10
2.125
 20
2.050
  0
INSERT
  8
0
  2
PX6
 10
2.125
 20
2.050
  0
INSERT
  8
0
  2
PX6
 10
2.175
 20
2.150
  0
INSERT
  8
0
  2
PX6
 10
2.225
 20
2.050
  0
INSERT
  8
0
  2
PX6
 10
2.275
 20
2.150
  0
INSERT
  8
0
  2
PX6
 10
2.325
 20
2.050
  0
INSERT
  8
0
  2
PX6
 10
2.375
 20
2.150
  0
INSERT
  8
0
  2
PX6
 10
2.425
 20
2.050
  0
INSERT
  8
0
  2
PX6
 10
2.475
 20
2.150
  0
INSERT
  8
0
  2
PX6
 10
2.525
 20
2.050
  0
INSERT
  8
0
  2
PX6
 10
2.575
 20
2.150
  0
INSERT
  8
0
  2
PX38
 10
2.075
 20
2.125
  0
ENDBLK
  8
0
  0
BLOCK
  8
0
  2
2088
 70
0
 10
2.125
 20
2.050
  0
INSERT
  8
COMP-MIN-OUTLINE-WIDTH-1
  2
DISC
 10
2.000
 20
2.000
 41
0.001
 42
0.001
  0
POLYLINE
  8
COMP-MIN-OUTLINE-WIDTH-1
 66
1
 70
0
 40
0.001
 41
0.001
  0
VERTEX
  8
COMP-MIN-OUTLINE-WIDTH-1
 10
2.000
 20
2.000
  0
VERTEX
  8
COMP-MIN-OUTLINE-WIDTH-1
 10
2.650
 20
2.000
  0
SEQEND
  8
COMP-MIN-OUTLINE-WIDTH-1
  0
INSERT
  8
COMP-MIN-OUTLINE-WIDTH-1
  2
DISC
 10
2.650
 20
2.000
 41
0.001
 42
0.001
  0
POLYLINE
  8
COMP-MIN-OUTLINE-WIDTH-1
 66
1
 70
0
 40
0.001
 41
0.001
  0
VERTEX
  8
COMP-MIN-OUTLINE-WIDTH-1
 10
2.650
 20
2.000
  0
VERTEX
  8
COMP-MIN-OUTLINE-WIDTH-1
 10
2.650
 20
2.200
  0
SEQEND
  8
COMP-MIN-OUTLINE-WIDTH-1
  0
INSERT
  8
COMP-MIN-OUTLINE-WIDTH-1
  2
DISC
 10
2.650
 20
2.200
 41
0.001
 42
0.001
  0
POLYLINE
  8
COMP-MIN-OUTLINE-WIDTH-1
 66
1
 70
0
 40
0.001
 41
0.001
  0
VERTEX
  8
COMP-MIN-OUTLINE-WIDTH-1
 10
2.650
 20
2.200
  0
VERTEX
  8
COMP-MIN-OUTLINE-WIDTH-1
 10
2.000
 20
2.200
  0
SEQEND
  8
COMP-MIN-OUTLINE-WIDTH-1
  0
INSERT
  8
COMP-MIN-OUTLINE-WIDTH-1
  2
DISC
 10
2.000
 20
2.200
 41
0.001
 42
0.001
  0
POLYLINE
  8
COMP-MIN-OUTLINE-WIDTH-1
 66
1
 70
0
 40
0.001
 41
0.001
  0
VERTEX
  8
COMP-MIN-OUTLINE-WIDTH-1
 10
2.000
 20
2.200
  0
VERTEX
  8
COMP-MIN-OUTLINE-WIDTH-1
 10
2.000
 20
2.000
  0
SEQEND
  8
COMP-MIN-OUTLINE-WIDTH-1
  0
INSERT
  8
COMP-MIN-OUTLINE-WIDTH-1
  2
DISC
 10
2.000
 20
2.000
 41
0.001
 42
0.001
  0
INSERT
  8
COMP-MIN-OUTLINE-WIDTH-1
  2
DISC
 10
2.000
 20
2.000
 41
0.001
 42
0.001
  0
POLYLINE
  8
COMP-MIN-OUTLINE-WIDTH-1
 66
1
 70
0
 40
0.001
 41
0.001
  0
VERTEX
  8
COMP-MIN-OUTLINE-WIDTH-1
 10
2.000
 20
2.000
  0
VERTEX
  8
COMP-MIN-OUTLINE-WIDTH-1
 10
2.650
 20
2.000
  0
SEQEND
  8
COMP-MIN-OUTLINE-WIDTH-1
  0
INSERT
  8
COMP-MIN-OUTLINE-WIDTH-1
  2
DISC
 10
2.650
 20
2.000
 41
0.001
 42
0.001
  0
POLYLINE
  8
COMP-MIN-OUTLINE-WIDTH-1
 66
1
 70
0
 40
0.001
 41
0.001
  0
VERTEX
  8
COMP-MIN-OUTLINE-WIDTH-1
 10
2.650
 20
2.000
  0
VERTEX
  8
COMP-MIN-OUTLINE-WIDTH-1
 10
2.650
 20
2.200
  0
SEQEND
  8
COMP-MIN-OUTLINE-WIDTH-1
  0
INSERT
  8
COMP-MIN-OUTLINE-WIDTH-1
  2
DISC
 10
2.650
 20
2.200
 41
0.001
 42
0.001
  0
POLYLINE
  8
COMP-MIN-OUTLINE-WIDTH-1
 66
1
 70
0
 40
0.001
 41
0.001
  0
VERTEX
  8
COMP-MIN-OUTLINE-WIDTH-1
 10
2.650
 20
2.200
  0
VERTEX
  8
COMP-MIN-OUTLINE-WIDTH-1
 10
2.000
 20
2.200
  0
SEQEND
  8
COMP-MIN-OUTLINE-WIDTH-1
  0
INSERT
  8
COMP-MIN-OUTLINE-WIDTH-1
  2
DISC
 10
2.000
 20
2.200
 41
0.001
 42
0.001
  0
POLYLINE
  8
COMP-MIN-OUTLINE-WIDTH-1
 66
1
 70
0
 40
0.001
 41
0.001
  0
VERTEX
  8
COMP-MIN-OUTLINE-WIDTH-1
 10
2.000
 20
2.200
  0
VERTEX
  8
COMP-MIN-OUTLINE-WIDTH-1
 10
2.000
 20
2.000
  0
SEQEND
  8
COMP-MIN-OUTLINE-WIDTH-1
  0
INSERT
  8
COMP-MIN-OUTLINE-WIDTH-1
  2
DISC
 10
2.000
 20
2.000
 41
0.001
 42
0.001
  0
INSERT
  8
COMP-MIN-OUTLINE-WIDTH-2
  2
DISC
 10
2.045
 20
2.050
 41
0.001
 42
0.001
  0
POLYLINE
  8
COMP-MIN-OUTLINE-WIDTH-2
 66
1
 70
0
 40
0.001
 41
0.001
  0
VERTEX
  8
COMP-MIN-OUTLINE-WIDTH-2
 10
2.045
 20
2.050
  0
VERTEX
  8
COMP-MIN-OUTLINE-WIDTH-2
 10
2.045
 20
2.025
  0
SEQEND
  8
COMP-MIN-OUTLINE-WIDTH-2
  0
INSERT
  8
COMP-MIN-OUTLINE-WIDTH-2
  2
DISC
 10
2.045
 20
2.025
 41
0.001
 42
0.001
  0
POLYLINE
  8
COMP-MIN-OUTLINE-WIDTH-2
 66
1
 70
0
 40
0.001
 41
0.001
  0
VERTEX
  8
COMP-MIN-OUTLINE-WIDTH-2
 10
2.045
 20
2.025
  0
VERTEX
  8
COMP-MIN-OUTLINE-WIDTH-2
 10
2.070
 20
2.025
  0
SEQEND
  8
COMP-MIN-OUTLINE-WIDTH-2
  0
INSERT
  8
COMP-MIN-OUTLINE-WIDTH-2
  2
DISC
 10
2.070
 20
2.025
 41
0.001
 42
0.001
  0
POLYLINE
  8
COMP-MIN-OUTLINE-WIDTH-2
 66
1
 70
0
 40
0.001
 41
0.001
  0
VERTEX
  8
COMP-MIN-OUTLINE-WIDTH-2
 10
2.070
 20
2.025
  0
VERTEX
  8
COMP-MIN-OUTLINE-WIDTH-2
 10
2.070
 20
2.050
  0
SEQEND
  8
COMP-MIN-OUTLINE-WIDTH-2
  0
INSERT
  8
COMP-MIN-OUTLINE-WIDTH-2
  2
DISC
 10
2.070
 20
2.050
 41
0.001
 42
0.001
  0
POLYLINE
  8
COMP-MIN-OUTLINE-WIDTH-2
 66
1
 70
0
 40
0.001
 41
0.001
  0
VERTEX
  8
COMP-MIN-OUTLINE-WIDTH-2
 10
2.070
 20
2.050
  0
VERTEX
  8
COMP-MIN-OUTLINE-WIDTH-2
 10
2.045
 20
2.050
  0
SEQEND
  8
COMP-MIN-OUTLINE-WIDTH-2
  0
INSERT
  8
COMP-MIN-OUTLINE-WIDTH-2
  2
DISC
 10
2.045
 20
2.050
 41
0.001
 42
0.001
  0
ENDBLK
  8
0
  0
BLOCK
  8
0
  2
2670D
 70
0
 10
2.125
 20
2.050
  0
INSERT
  8
0
  2
PD6
 10
2.125
 20
2.050
  0
INSERT
  8
0
  2
PD6
 10
2.175
 20
2.150
  0
INSERT
  8
0
  2
PD6
 10
2.225
 20
2.050
  0
INSERT
  8
0
  2
PD6
 10
2.275
 20
2.150
  0
INSERT
  8
0
  2
PD6
 10
2.325
 20
2.050
  0
INSERT
  8
0
  2
PD6
 10
2.375
 20
2.150
  0
INSERT
  8
0
  2
PD6
 10
2.425
 20
2.050
  0
INSERT
  8
0
  2
PD6
 10
2.475
 20
2.150
  0
INSERT
  8
0
  2
PD6
 10
2.525
 20
2.050
  0
INSERT
  8
0
  2
PD6
 10
2.575
 20
2.150
  0
INSERT
  8
0
  2
PD6
 10
2.625
 20
2.050
  0
INSERT
  8
0
  2
PD6
 10
2.675
 20
2.150
  0
INSERT
  8
0
  2
PD6
 10
2.725
 20
2.050
  0
INSERT
  8
0
  2
PD6
 10
2.775
 20
2.150
  0
INSERT
  8
0
  2
PD6
 10
2.825
 20
2.050
  0
INSERT
  8
0
  2
PD6
 10
2.875
 20
2.150
  0
INSERT
  8
0
  2
PD38
 10
2.075
 20
2.125
  0
ENDBLK
  8
0
  0
BLOCK
  8
0
  2
2670N
 70
0
 10
2.125
 20
2.050
  0
INSERT
  8
0
  2
PN6
 10
2.125
 20
2.050
  0
INSERT
  8
0
  2
PN6
 10
2.175
 20
2.150
  0
INSERT
  8
0
  2
PN6
 10
2.225
 20
2.050
  0
INSERT
  8
0
  2
PN6
 10
2.275
 20
2.150
  0
INSERT
  8
0
  2
PN6
 10
2.325
 20
2.050
  0
INSERT
  8
0
  2
PN6
 10
2.375
 20
2.150
  0
INSERT
  8
0
  2
PN6
 10
2.425
 20
2.050
  0
INSERT
  8
0
  2
PN6
 10
2.475
 20
2.150
  0
INSERT
  8
0
  2
PN6
 10
2.525
 20
2.050
  0
INSERT
  8
0
  2
PN6
 10
2.575
 20
2.150
  0
INSERT
  8
0
  2
PN6
 10
2.625
 20
2.050
  0
INSERT
  8
0
  2
PN6
 10
2.675
 20
2.150
  0
INSERT
  8
0
  2
PN6
 10
2.725
 20
2.050
  0
INSERT
  8
0
  2
PN6
 10
2.775
 20
2.150
  0
INSERT
  8
0
  2
PN6
 10
2.825
 20
2.050
  0
INSERT
  8
0
  2
PN6
 10
2.875
 20
2.150
  0
INSERT
  8
0
  2
PN38
 10
2.075
 20
2.125
  0
ENDBLK
  8
0
  0
BLOCK
  8
0
  2
2670I
 70
0
 10
2.125
 20
2.050
  0
INSERT
  8
0
  2
PI6
 10
2.125
 20
2.050
  0
INSERT
  8
0
  2
PI6
 10
2.175
 20
2.150
  0
INSERT
  8
0
  2
PI6
 10
2.225
 20
2.050
  0
INSERT
  8
0
  2
PI6
 10
2.275
 20
2.150
  0
INSERT
  8
0
  2
PI6
 10
2.325
 20
2.050
  0
INSERT
  8
0
  2
PI6
 10
2.375
 20
2.150
  0
INSERT
  8
0
  2
PI6
 10
2.425
 20
2.050
  0
INSERT
  8
0
  2
PI6
 10
2.475
 20
2.150
  0
INSERT
  8
0
  2
PI6
 10
2.525
 20
2.050
  0
INSERT
  8
0
  2
PI6
 10
2.575
 20
2.150
  0
INSERT
  8
0
  2
PI6
 10
2.625
 20
2.050
  0
INSERT
  8
0
  2
PI6
 10
2.675
 20
2.150
  0
INSERT
  8
0
  2
PI6
 10
2.725
 20
2.050
  0
INSERT
  8
0
  2
PI6
 10
2.775
 20
2.150
  0
INSERT
  8
0
  2
PI6
 10
2.825
 20
2.050
  0
INSERT
  8
0
  2
PI6
 10
2.875
 20
2.150
  0
INSERT
  8
0
  2
PI38
 10
2.075
 20
2.125
  0
ENDBLK
  8
0
  0
BLOCK
  8
0
  2
2670X
 70
0
 10
2.125
 20
2.050
  0
INSERT
  8
0
  2
PX6
 10
2.125
 20
2.050
  0
INSERT
  8
0
  2
PX6
 10
2.175
 20
2.150
  0
INSERT
  8
0
  2
PX6
 10
2.225
 20
2.050
  0
INSERT
  8
0
  2
PX6
 10
2.275
 20
2.150
  0
INSERT
  8
0
  2
PX6
 10
2.325
 20
2.050
  0
INSERT
  8
0
  2
PX6
 10
2.375
 20
2.150
  0
INSERT
  8
0
  2
PX6
 10
2.425
 20
2.050
  0
INSERT
  8
0
  2
PX6
 10
2.475
 20
2.150
  0
INSERT
  8
0
  2
PX6
 10
2.525
 20
2.050
  0
INSERT
  8
0
  2
PX6
 10
2.575
 20
2.150
  0
INSERT
  8
0
  2
PX6
 10
2.625
 20
2.050
  0
INSERT
  8
0
  2
PX6
 10
2.675
 20
2.150
  0
INSERT
  8
0
  2
PX6
 10
2.725
 20
2.050
  0
INSERT
  8
0
  2
PX6
 10
2.775
 20
2.150
  0
INSERT
  8
0
  2
PX6
 10
2.825
 20
2.050
  0
INSERT
  8
0
  2
PX6
 10
2.875
 20
2.150
  0
INSERT
  8
0
  2
PX38
 10
2.075
 20
2.125
  0
ENDBLK
  8
0
  0
BLOCK
  8
0
  2
2670
 70
0
 10
2.125
 20
2.050
  0
INSERT
  8
COMP-MIN-OUTLINE-WIDTH-1
  2
DISC
 10
2.005
 20
2.005
 41
0.001
 42
0.001
  0
POLYLINE
  8
COMP-MIN-OUTLINE-WIDTH-1
 66
1
 70
0
 40
0.001
 41
0.001
  0
VERTEX
  8
COMP-MIN-OUTLINE-WIDTH-1
 10
2.005
 20
2.005
  0
VERTEX
  8
COMP-MIN-OUTLINE-WIDTH-1
 10
2.005
 20
2.195
  0
SEQEND
  8
COMP-MIN-OUTLINE-WIDTH-1
  0
INSERT
  8
COMP-MIN-OUTLINE-WIDTH-1
  2
DISC
 10
2.005
 20
2.195
 41
0.001
 42
0.001
  0
POLYLINE
  8
COMP-MIN-OUTLINE-WIDTH-1
 66
1
 70
0
 40
0.001
 41
0.001
  0
VERTEX
  8
COMP-MIN-OUTLINE-WIDTH-1
 10
2.005
 20
2.195
  0
VERTEX
  8
COMP-MIN-OUTLINE-WIDTH-1
 10
2.945
 20
2.195
  0
SEQEND
  8
COMP-MIN-OUTLINE-WIDTH-1
  0
INSERT
  8
COMP-MIN-OUTLINE-WIDTH-1
  2
DISC
 10
2.945
 20
2.195
 41
0.001
 42
0.001
  0
POLYLINE
  8
COMP-MIN-OUTLINE-WIDTH-1
 66
1
 70
0
 40
0.001
 41
0.001
  0
VERTEX
  8
COMP-MIN-OUTLINE-WIDTH-1
 10
2.945
 20
2.195
  0
VERTEX
  8
COMP-MIN-OUTLINE-WIDTH-1
 10
2.945
 20
2.005
  0
SEQEND
  8
COMP-MIN-OUTLINE-WIDTH-1
  0
INSERT
  8
COMP-MIN-OUTLINE-WIDTH-1
  2
DISC
 10
2.945
 20
2.005
 41
0.001
 42
0.001
  0
POLYLINE
  8
COMP-MIN-OUTLINE-WIDTH-1
 66
1
 70
0
 40
0.001
 41
0.001
  0
VERTEX
  8
COMP-MIN-OUTLINE-WIDTH-1
 10
2.945
 20
2.005
  0
VERTEX
  8
COMP-MIN-OUTLINE-WIDTH-1
 10
2.005
 20
2.005
  0
SEQEND
  8
COMP-MIN-OUTLINE-WIDTH-1
  0
INSERT
  8
COMP-MIN-OUTLINE-WIDTH-1
  2
DISC
 10
2.005
 20
2.005
 41
0.001
 42
0.001
  0
INSERT
  8
COMP-MIN-OUTLINE-WIDTH-2
  2
DISC
 10
2.050
 20
2.050
 41
0.001
 42
0.001
  0
POLYLINE
  8
COMP-MIN-OUTLINE-WIDTH-2
 66
1
 70
0
 40
0.001
 41
0.001
  0
VERTEX
  8
COMP-MIN-OUTLINE-WIDTH-2
 10
2.050
 20
2.050
  0
VERTEX
  8
COMP-MIN-OUTLINE-WIDTH-2
 10
2.050
 20
2.025
  0
SEQEND
  8
COMP-MIN-OUTLINE-WIDTH-2
  0
INSERT
  8
COMP-MIN-OUTLINE-WIDTH-2
  2
DISC
 10
2.050
 20
2.025
 41
0.001
 42
0.001
  0
POLYLINE
  8
COMP-MIN-OUTLINE-WIDTH-2
 66
1
 70
0
 40
0.001
 41
0.001
  0
VERTEX
  8
COMP-MIN-OUTLINE-WIDTH-2
 10
2.050
 20
2.025
  0
VERTEX
  8
COMP-MIN-OUTLINE-WIDTH-2
 10
2.075
 20
2.025
  0
SEQEND
  8
COMP-MIN-OUTLINE-WIDTH-2
  0
INSERT
  8
COMP-MIN-OUTLINE-WIDTH-2
  2
DISC
 10
2.075
 20
2.025
 41
0.001
 42
0.001
  0
POLYLINE
  8
COMP-MIN-OUTLINE-WIDTH-2
 66
1
 70
0
 40
0.001
 41
0.001
  0
VERTEX
  8
COMP-MIN-OUTLINE-WIDTH-2
 10
2.075
 20
2.025
  0
VERTEX
  8
COMP-MIN-OUTLINE-WIDTH-2
 10
2.075
 20
2.050
  0
SEQEND
  8
COMP-MIN-OUTLINE-WIDTH-2
  0
INSERT
  8
COMP-MIN-OUTLINE-WIDTH-2
  2
DISC
 10
2.075
 20
2.050
 41
0.001
 42
0.001
  0
POLYLINE
  8
COMP-MIN-OUTLINE-WIDTH-2
 66
1
 70
0
 40
0.001
 41
0.001
  0
VERTEX
  8
COMP-MIN-OUTLINE-WIDTH-2
 10
2.075
 20
2.050
  0
VERTEX
  8
COMP-MIN-OUTLINE-WIDTH-2
 10
2.050
 20
2.050
  0
SEQEND
  8
COMP-MIN-OUTLINE-WIDTH-2
  0
INSERT
  8
COMP-MIN-OUTLINE-WIDTH-2
  2
DISC
 10
2.050
 20
2.050
 41
0.001
 42
0.001
  0
ENDBLK
  8
0
  0
BLOCK
  8
0
  2
3207D
 70
0
 10
2.050
 20
2.100
  0
INSERT
  8
0
  2
PD14
 10
2.050
 20
2.100
  0
INSERT
  8
0
  2
PD14
 10
2.150
 20
2.100
  0
INSERT
  8
0
  2
PD14
 10
2.250
 20
2.100
  0
ENDBLK
  8
0
  0
BLOCK
  8
0
  2
3207N
 70
0
 10
2.050
 20
2.100
  0
INSERT
  8
0
  2
PN14
 10
2.050
 20
2.100
  0
INSERT
  8
0
  2
PN14
 10
2.150
 20
2.100
  0
INSERT
  8
0
  2
PN14
 10
2.250
 20
2.100
  0
ENDBLK
  8
0
  0
BLOCK
  8
0
  2
3207I
 70
0
 10
2.050
 20
2.100
  0
INSERT
  8
0
  2
PI14
 10
2.050
 20
2.100
  0
INSERT
  8
0
  2
PI14
 10
2.150
 20
2.100
  0
INSERT
  8
0
  2
PI14
 10
2.250
 20
2.100
  0
ENDBLK
  8
0
  0
BLOCK
  8
0
  2
3207X
 70
0
 10
2.050
 20
2.100
  0
INSERT
  8
0
  2
PX14
 10
2.050
 20
2.100
  0
INSERT
  8
0
  2
PX14
 10
2.150
 20
2.100
  0
INSERT
  8
0
  2
PX14
 10
2.250
 20
2.100
  0
ENDBLK
  8
0
  0
BLOCK
  8
0
  2
3207
 70
0
 10
2.050
 20
2.100
  0
INSERT
  8
COMP-MIN-OUTLINE-WIDTH-2
  2
DISC
 10
1.995
 20
2.150
 41
0.001
 42
0.001
  0
POLYLINE
  8
COMP-MIN-OUTLINE-WIDTH-2
 66
1
 70
0
 40
0.001
 41
0.001
  0
VERTEX
  8
COMP-MIN-OUTLINE-WIDTH-2
 10
1.995
 20
2.150
  0
VERTEX
  8
COMP-MIN-OUTLINE-WIDTH-2
 10
2.305
 20
2.150
  0
SEQEND
  8
COMP-MIN-OUTLINE-WIDTH-2
  0
INSERT
  8
COMP-MIN-OUTLINE-WIDTH-2
  2
DISC
 10
2.305
 20
2.150
 41
0.001
 42
0.001
  0
POLYLINE
  8
COMP-MIN-OUTLINE-WIDTH-2
 66
1
 70
0
 40
0.001
 41
0.001
  0
VERTEX
  8
COMP-MIN-OUTLINE-WIDTH-2
 10
2.305
 20
2.150
  0
VERTEX
  8
COMP-MIN-OUTLINE-WIDTH-2
 10
2.305
 20
2.276
  0
SEQEND
  8
COMP-MIN-OUTLINE-WIDTH-2
  0
INSERT
  8
COMP-MIN-OUTLINE-WIDTH-2
  2
DISC
 10
2.305
 20
2.276
 41
0.001
 42
0.001
  0
POLYLINE
  8
COMP-MIN-OUTLINE-WIDTH-2
 66
1
 70
0
 40
0.001
 41
0.001
  0
VERTEX
  8
COMP-MIN-OUTLINE-WIDTH-2
 10
2.305
 20
2.276
  0
VERTEX
  8
COMP-MIN-OUTLINE-WIDTH-2
 10
2.250
 20
2.276
  0
SEQEND
  8
COMP-MIN-OUTLINE-WIDTH-2
  0
INSERT
  8
COMP-MIN-OUTLINE-WIDTH-2
  2
DISC
 10
2.250
 20
2.276
 41
0.001
 42
0.001
  0
POLYLINE
  8
COMP-MIN-OUTLINE-WIDTH-2
 66
1
 70
0
 40
0.001
 41
0.001
  0
VERTEX
  8
COMP-MIN-OUTLINE-WIDTH-2
 10
2.250
 20
2.276
  0
VERTEX
  8
COMP-MIN-OUTLINE-WIDTH-2
 10
2.250
 20
2.610
  0
SEQEND
  8
COMP-MIN-OUTLINE-WIDTH-2
  0
INSERT
  8
COMP-MIN-OUTLINE-WIDTH-2
  2
DISC
 10
2.250
 20
2.610
 41
0.001
 42
0.001
  0
POLYLINE
  8
COMP-MIN-OUTLINE-WIDTH-2
 66
1
 70
0
 40
0.001
 41
0.001
  0
VERTEX
  8
COMP-MIN-OUTLINE-WIDTH-2
 10
2.250
 20
2.610
  0
VERTEX
  8
COMP-MIN-OUTLINE-WIDTH-2
 10
2.050
 20
2.610
  0
SEQEND
  8
COMP-MIN-OUTLINE-WIDTH-2
  0
INSERT
  8
COMP-MIN-OUTLINE-WIDTH-2
  2
DISC
 10
2.050
 20
2.610
 41
0.001
 42
0.001
  0
POLYLINE
  8
COMP-MIN-OUTLINE-WIDTH-2
 66
1
 70
0
 40
0.001
 41
0.001
  0
VERTEX
  8
COMP-MIN-OUTLINE-WIDTH-2
 10
2.050
 20
2.610
  0
VERTEX
  8
COMP-MIN-OUTLINE-WIDTH-2
 10
2.050
 20
2.276
  0
SEQEND
  8
COMP-MIN-OUTLINE-WIDTH-2
  0
INSERT
  8
COMP-MIN-OUTLINE-WIDTH-2
  2
DISC
 10
2.050
 20
2.276
 41
0.001
 42
0.001
  0
POLYLINE
  8
COMP-MIN-OUTLINE-WIDTH-2
 66
1
 70
0
 40
0.001
 41
0.001
  0
VERTEX
  8
COMP-MIN-OUTLINE-WIDTH-2
 10
2.050
 20
2.276
  0
VERTEX
  8
COMP-MIN-OUTLINE-WIDTH-2
 10
1.995
 20
2.276
  0
SEQEND
  8
COMP-MIN-OUTLINE-WIDTH-2
  0
INSERT
  8
COMP-MIN-OUTLINE-WIDTH-2
  2
DISC
 10
1.995
 20
2.276
 41
0.001
 42
0.001
  0
POLYLINE
  8
COMP-MIN-OUTLINE-WIDTH-2
 66
1
 70
0
 40
0.001
 41
0.001
  0
VERTEX
  8
COMP-MIN-OUTLINE-WIDTH-2
 10
1.995
 20
2.276
  0
VERTEX
  8
COMP-MIN-OUTLINE-WIDTH-2
 10
1.995
 20
2.150
  0
SEQEND
  8
COMP-MIN-OUTLINE-WIDTH-2
  0
INSERT
  8
COMP-MIN-OUTLINE-WIDTH-2
  2
DISC
 10
1.995
 20
2.150
 41
0.001
 42
0.001
  0
INSERT
  8
COMP-MIN-OUTLINE-WIDTH-2
  2
DISC
 10
2.040
 20
2.150
 41
0.001
 42
0.001
  0
POLYLINE
  8
COMP-MIN-OUTLINE-WIDTH-2
 66
1
 70
0
 40
0.001
 41
0.001
  0
VERTEX
  8
COMP-MIN-OUTLINE-WIDTH-2
 10
2.040
 20
2.150
  0
VERTEX
  8
COMP-MIN-OUTLINE-WIDTH-2
 10
2.040
 20
2.095
  0
SEQEND
  8
COMP-MIN-OUTLINE-WIDTH-2
  0
INSERT
  8
COMP-MIN-OUTLINE-WIDTH-2
  2
DISC
 10
2.040
 20
2.095
 41
0.001
 42
0.001
  0
POLYLINE
  8
COMP-MIN-OUTLINE-WIDTH-2
 66
1
 70
0
 40
0.001
 41
0.001
  0
VERTEX
  8
COMP-MIN-OUTLINE-WIDTH-2
 10
2.040
 20
2.095
  0
VERTEX
  8
COMP-MIN-OUTLINE-WIDTH-2
 10
2.060
 20
2.095
  0
SEQEND
  8
COMP-MIN-OUTLINE-WIDTH-2
  0
INSERT
  8
COMP-MIN-OUTLINE-WIDTH-2
  2
DISC
 10
2.060
 20
2.095
 41
0.001
 42
0.001
  0
POLYLINE
  8
COMP-MIN-OUTLINE-WIDTH-2
 66
1
 70
0
 40
0.001
 41
0.001
  0
VERTEX
  8
COMP-MIN-OUTLINE-WIDTH-2
 10
2.060
 20
2.095
  0
VERTEX
  8
COMP-MIN-OUTLINE-WIDTH-2
 10
2.060
 20
2.150
  0
SEQEND
  8
COMP-MIN-OUTLINE-WIDTH-2
  0
INSERT
  8
COMP-MIN-OUTLINE-WIDTH-2
  2
DISC
 10
2.060
 20
2.150
 41
0.001
 42
0.001
  0
INSERT
  8
COMP-MIN-OUTLINE-WIDTH-2
  2
DISC
 10
2.240
 20
2.150
 41
0.001
 42
0.001
  0
POLYLINE
  8
COMP-MIN-OUTLINE-WIDTH-2
 66
1
 70
0
 40
0.001
 41
0.001
  0
VERTEX
  8
COMP-MIN-OUTLINE-WIDTH-2
 10
2.240
 20
2.150
  0
VERTEX
  8
COMP-MIN-OUTLINE-WIDTH-2
 10
2.240
 20
2.095
  0
SEQEND
  8
COMP-MIN-OUTLINE-WIDTH-2
  0
INSERT
  8
COMP-MIN-OUTLINE-WIDTH-2
  2
DISC
 10
2.240
 20
2.095
 41
0.001
 42
0.001
  0
POLYLINE
  8
COMP-MIN-OUTLINE-WIDTH-2
 66
1
 70
0
 40
0.001
 41
0.001
  0
VERTEX
  8
COMP-MIN-OUTLINE-WIDTH-2
 10
2.240
 20
2.095
  0
VERTEX
  8
COMP-MIN-OUTLINE-WIDTH-2
 10
2.260
 20
2.095
  0
SEQEND
  8
COMP-MIN-OUTLINE-WIDTH-2
  0
INSERT
  8
COMP-MIN-OUTLINE-WIDTH-2
  2
DISC
 10
2.260
 20
2.095
 41
0.001
 42
0.001
  0
POLYLINE
  8
COMP-MIN-OUTLINE-WIDTH-2
 66
1
 70
0
 40
0.001
 41
0.001
  0
VERTEX
  8
COMP-MIN-OUTLINE-WIDTH-2
 10
2.260
 20
2.095
  0
VERTEX
  8
COMP-MIN-OUTLINE-WIDTH-2
 10
2.260
 20
2.150
  0
SEQEND
  8
COMP-MIN-OUTLINE-WIDTH-2
  0
INSERT
  8
COMP-MIN-OUTLINE-WIDTH-2
  2
DISC
 10
2.260
 20
2.150
 41
0.001
 42
0.001
  0
INSERT
  8
COMP-MIN-OUTLINE-WIDTH-2
  2
DISC
 10
2.310
 20
2.370
 41
0.001
 42
0.001
  0
POLYLINE
  8
COMP-MIN-OUTLINE-WIDTH-2
 66
1
 70
0
 40
0.001
 41
0.001
  0
VERTEX
  8
COMP-MIN-OUTLINE-WIDTH-2
 10
2.310
 20
2.370
  0
VERTEX
  8
COMP-MIN-OUTLINE-WIDTH-2
 10
2.255
 20
2.370
  0
SEQEND
  8
COMP-MIN-OUTLINE-WIDTH-2
  0
INSERT
  8
COMP-MIN-OUTLINE-WIDTH-2
  2
DISC
 10
2.255
 20
2.370
 41
0.001
 42
0.001
  0
POLYLINE
  8
COMP-MIN-OUTLINE-WIDTH-2
 66
1
 70
0
 40
0.001
 41
0.001
  0
VERTEX
  8
COMP-MIN-OUTLINE-WIDTH-2
 10
2.255
 20
2.370
  0
VERTEX
  8
COMP-MIN-OUTLINE-WIDTH-2
 10
2.255
 20
2.280
  0
SEQEND
  8
COMP-MIN-OUTLINE-WIDTH-2
  0
INSERT
  8
COMP-MIN-OUTLINE-WIDTH-2
  2
DISC
 10
2.255
 20
2.280
 41
0.001
 42
0.001
  0
POLYLINE
  8
COMP-MIN-OUTLINE-WIDTH-2
 66
1
 70
0
 40
0.001
 41
0.001
  0
VERTEX
  8
COMP-MIN-OUTLINE-WIDTH-2
 10
2.255
 20
2.280
  0
VERTEX
  8
COMP-MIN-OUTLINE-WIDTH-2
 10
2.310
 20
2.280
  0
SEQEND
  8
COMP-MIN-OUTLINE-WIDTH-2
  0
INSERT
  8
COMP-MIN-OUTLINE-WIDTH-2
  2
DISC
 10
2.310
 20
2.280
 41
0.001
 42
0.001
  0
POLYLINE
  8
COMP-MIN-OUTLINE-WIDTH-2
 66
1
 70
0
 40
0.001
 41
0.001
  0
VERTEX
  8
COMP-MIN-OUTLINE-WIDTH-2
 10
2.310
 20
2.280
  0
VERTEX
  8
COMP-MIN-OUTLINE-WIDTH-2
 10
2.310
 20
2.792
  0
SEQEND
  8
COMP-MIN-OUTLINE-WIDTH-2
  0
INSERT
  8
COMP-MIN-OUTLINE-WIDTH-2
  2
DISC
 10
2.310
 20
2.792
 41
0.001
 42
0.001
  0
POLYLINE
  8
COMP-MIN-OUTLINE-WIDTH-2
 66
1
 70
0
 40
0.001
 41
0.001
  0
VERTEX
  8
COMP-MIN-OUTLINE-WIDTH-2
 10
2.310
 20
2.792
  0
VERTEX
  8
COMP-MIN-OUTLINE-WIDTH-2
 10
1.990
 20
2.792
  0
SEQEND
  8
COMP-MIN-OUTLINE-WIDTH-2
  0
INSERT
  8
COMP-MIN-OUTLINE-WIDTH-2
  2
DISC
 10
1.990
 20
2.792
 41
0.001
 42
0.001
  0
POLYLINE
  8
COMP-MIN-OUTLINE-WIDTH-2
 66
1
 70
0
 40
0.001
 41
0.001
  0
VERTEX
  8
COMP-MIN-OUTLINE-WIDTH-2
 10
1.990
 20
2.792
  0
VERTEX
  8
COMP-MIN-OUTLINE-WIDTH-2
 10
1.990
 20
2.280
  0
SEQEND
  8
COMP-MIN-OUTLINE-WIDTH-2
  0
INSERT
  8
COMP-MIN-OUTLINE-WIDTH-2
  2
DISC
 10
1.990
 20
2.280
 41
0.001
 42
0.001
  0
POLYLINE
  8
COMP-MIN-OUTLINE-WIDTH-2
 66
1
 70
0
 40
0.001
 41
0.001
  0
VERTEX
  8
COMP-MIN-OUTLINE-WIDTH-2
 10
1.990
 20
2.280
  0
VERTEX
  8
COMP-MIN-OUTLINE-WIDTH-2
 10
2.045
 20
2.280
  0
SEQEND
  8
COMP-MIN-OUTLINE-WIDTH-2
  0
INSERT
  8
COMP-MIN-OUTLINE-WIDTH-2
  2
DISC
 10
2.045
 20
2.280
 41
0.001
 42
0.001
  0
POLYLINE
  8
COMP-MIN-OUTLINE-WIDTH-2
 66
1
 70
0
 40
0.001
 41
0.001
  0
VERTEX
  8
COMP-MIN-OUTLINE-WIDTH-2
 10
2.045
 20
2.280
  0
VERTEX
  8
COMP-MIN-OUTLINE-WIDTH-2
 10
2.045
 20
2.370
  0
SEQEND
  8
COMP-MIN-OUTLINE-WIDTH-2
  0
INSERT
  8
COMP-MIN-OUTLINE-WIDTH-2
  2
DISC
 10
2.045
 20
2.370
 41
0.001
 42
0.001
  0
POLYLINE
  8
COMP-MIN-OUTLINE-WIDTH-2
 66
1
 70
0
 40
0.001
 41
0.001
  0
VERTEX
  8
COMP-MIN-OUTLINE-WIDTH-2
 10
2.045
 20
2.370
  0
VERTEX
  8
COMP-MIN-OUTLINE-WIDTH-2
 10
1.990
 20
2.370
  0
SEQEND
  8
COMP-MIN-OUTLINE-WIDTH-2
  0
INSERT
  8
COMP-MIN-OUTLINE-WIDTH-2
  2
DISC
 10
1.990
 20
2.370
 41
0.001
 42
0.001
  0
INSERT
  8
COMP-MIN-OUTLINE-WIDTH-2
  2
DISC
 10
2.140
 20
2.150
 41
0.001
 42
0.001
  0
POLYLINE
  8
COMP-MIN-OUTLINE-WIDTH-2
 66
1
 70
0
 40
0.001
 41
0.001
  0
VERTEX
  8
COMP-MIN-OUTLINE-WIDTH-2
 10
2.140
 20
2.150
  0
VERTEX
  8
COMP-MIN-OUTLINE-WIDTH-2
 10
2.140
 20
2.095
  0
SEQEND
  8
COMP-MIN-OUTLINE-WIDTH-2
  0
INSERT
  8
COMP-MIN-OUTLINE-WIDTH-2
  2
DISC
 10
2.140
 20
2.095
 41
0.001
 42
0.001
  0
POLYLINE
  8
COMP-MIN-OUTLINE-WIDTH-2
 66
1
 70
0
 40
0.001
 41
0.001
  0
VERTEX
  8
COMP-MIN-OUTLINE-WIDTH-2
 10
2.140
 20
2.095
  0
VERTEX
  8
COMP-MIN-OUTLINE-WIDTH-2
 10
2.160
 20
2.095
  0
SEQEND
  8
COMP-MIN-OUTLINE-WIDTH-2
  0
INSERT
  8
COMP-MIN-OUTLINE-WIDTH-2
  2
DISC
 10
2.160
 20
2.095
 41
0.001
 42
0.001
  0
POLYLINE
  8
COMP-MIN-OUTLINE-WIDTH-2
 66
1
 70
0
 40
0.001
 41
0.001
  0
VERTEX
  8
COMP-MIN-OUTLINE-WIDTH-2
 10
2.160
 20
2.095
  0
VERTEX
  8
COMP-MIN-OUTLINE-WIDTH-2
 10
2.160
 20
2.150
  0
SEQEND
  8
COMP-MIN-OUTLINE-WIDTH-2
  0
INSERT
  8
COMP-MIN-OUTLINE-WIDTH-2
  2
DISC
 10
2.160
 20
2.150
 41
0.001
 42
0.001
  0
TEXT
  8
COMP-MIN-TEXT-WIDTH-0
 10
2.040
 20
2.160
 40
0.050
  1
1
  0
ENDBLK
  8
COMP-MIN-TEXT-WIDTH-0
  0
BLOCK
  8
0
  2
3320D
 70
0
 10
2.125
 20
2.050
  0
INSERT
  8
0
  2
PD6
 10
2.125
 20
2.050
  0
INSERT
  8
0
  2
PD6
 10
2.175
 20
2.150
  0
INSERT
  8
0
  2
PD6
 10
2.225
 20
2.050
  0
INSERT
  8
0
  2
PD6
 10
2.275
 20
2.150
  0
INSERT
  8
0
  2
PD6
 10
2.325
 20
2.050
  0
INSERT
  8
0
  2
PD6
 10
2.375
 20
2.150
  0
INSERT
  8
0
  2
PD6
 10
2.425
 20
2.050
  0
INSERT
  8
0
  2
PD6
 10
2.475
 20
2.150
  0
INSERT
  8
0
  2
PD6
 10
2.525
 20
2.050
  0
INSERT
  8
0
  2
PD6
 10
2.575
 20
2.150
  0
INSERT
  8
0
  2
PD6
 10
2.625
 20
2.050
  0
INSERT
  8
0
  2
PD6
 10
2.675
 20
2.150
  0
INSERT
  8
0
  2
PD6
 10
2.725
 20
2.050
  0
INSERT
  8
0
  2
PD6
 10
2.775
 20
2.150
  0
INSERT
  8
0
  2
PD38
 10
2.075
 20
2.125
  0
ENDBLK
  8
0
  0
BLOCK
  8
0
  2
3320N
 70
0
 10
2.125
 20
2.050
  0
INSERT
  8
0
  2
PN6
 10
2.125
 20
2.050
  0
INSERT
  8
0
  2
PN6
 10
2.175
 20
2.150
  0
INSERT
  8
0
  2
PN6
 10
2.225
 20
2.050
  0
INSERT
  8
0
  2
PN6
 10
2.275
 20
2.150
  0
INSERT
  8
0
  2
PN6
 10
2.325
 20
2.050
  0
INSERT
  8
0
  2
PN6
 10
2.375
 20
2.150
  0
INSERT
  8
0
  2
PN6
 10
2.425
 20
2.050
  0
INSERT
  8
0
  2
PN6
 10
2.475
 20
2.150
  0
INSERT
  8
0
  2
PN6
 10
2.525
 20
2.050
  0
INSERT
  8
0
  2
PN6
 10
2.575
 20
2.150
  0
INSERT
  8
0
  2
PN6
 10
2.625
 20
2.050
  0
INSERT
  8
0
  2
PN6
 10
2.675
 20
2.150
  0
INSERT
  8
0
  2
PN6
 10
2.725
 20
2.050
  0
INSERT
  8
0
  2
PN6
 10
2.775
 20
2.150
  0
INSERT
  8
0
  2
PN38
 10
2.075
 20
2.125
  0
ENDBLK
  8
0
  0
BLOCK
  8
0
  2
3320I
 70
0
 10
2.125
 20
2.050
  0
INSERT
  8
0
  2
PI6
 10
2.125
 20
2.050
  0
INSERT
  8
0
  2
PI6
 10
2.175
 20
2.150
  0
INSERT
  8
0
  2
PI6
 10
2.225
 20
2.050
  0
INSERT
  8
0
  2
PI6
 10
2.275
 20
2.150
  0
INSERT
  8
0
  2
PI6
 10
2.325
 20
2.050
  0
INSERT
  8
0
  2
PI6
 10
2.375
 20
2.150
  0
INSERT
  8
0
  2
PI6
 10
2.425
 20
2.050
  0
INSERT
  8
0
  2
PI6
 10
2.475
 20
2.150
  0
INSERT
  8
0
  2
PI6
 10
2.525
 20
2.050
  0
INSERT
  8
0
  2
PI6
 10
2.575
 20
2.150
  0
INSERT
  8
0
  2
PI6
 10
2.625
 20
2.050
  0
INSERT
  8
0
  2
PI6
 10
2.675
 20
2.150
  0
INSERT
  8
0
  2
PI6
 10
2.725
 20
2.050
  0
INSERT
  8
0
  2
PI6
 10
2.775
 20
2.150
  0
INSERT
  8
0
  2
PI38
 10
2.075
 20
2.125
  0
ENDBLK
  8
0
  0
BLOCK
  8
0
  2
3320X
 70
0
 10
2.125
 20
2.050
  0
INSERT
  8
0
  2
PX6
 10
2.125
 20
2.050
  0
INSERT
  8
0
  2
PX6
 10
2.175
 20
2.150
  0
INSERT
  8
0
  2
PX6
 10
2.225
 20
2.050
  0
INSERT
  8
0
  2
PX6
 10
2.275
 20
2.150
  0
INSERT
  8
0
  2
PX6
 10
2.325
 20
2.050
  0
INSERT
  8
0
  2
PX6
 10
2.375
 20
2.150
  0
INSERT
  8
0
  2
PX6
 10
2.425
 20
2.050
  0
INSERT
  8
0
  2
PX6
 10
2.475
 20
2.150
  0
INSERT
  8
0
  2
PX6
 10
2.525
 20
2.050
  0
INSERT
  8
0
  2
PX6
 10
2.575
 20
2.150
  0
INSERT
  8
0
  2
PX6
 10
2.625
 20
2.050
  0
INSERT
  8
0
  2
PX6
 10
2.675
 20
2.150
  0
INSERT
  8
0
  2
PX6
 10
2.725
 20
2.050
  0
INSERT
  8
0
  2
PX6
 10
2.775
 20
2.150
  0
INSERT
  8
0
  2
PX38
 10
2.075
 20
2.125
  0
ENDBLK
  8
0
  0
BLOCK
  8
0
  2
3320
 70
0
 10
2.125
 20
2.050
  0
INSERT
  8
COMP-MIN-OUTLINE-WIDTH-1
  2
DISC
 10
2.000
 20
2.000
 41
0.001
 42
0.001
  0
POLYLINE
  8
COMP-MIN-OUTLINE-WIDTH-1
 66
1
 70
0
 40
0.001
 41
0.001
  0
VERTEX
  8
COMP-MIN-OUTLINE-WIDTH-1
 10
2.000
 20
2.000
  0
VERTEX
  8
COMP-MIN-OUTLINE-WIDTH-1
 10
2.850
 20
2.000
  0
SEQEND
  8
COMP-MIN-OUTLINE-WIDTH-1
  0
INSERT
  8
COMP-MIN-OUTLINE-WIDTH-1
  2
DISC
 10
2.850
 20
2.000
 41
0.001
 42
0.001
  0
POLYLINE
  8
COMP-MIN-OUTLINE-WIDTH-1
 66
1
 70
0
 40
0.001
 41
0.001
  0
VERTEX
  8
COMP-MIN-OUTLINE-WIDTH-1
 10
2.850
 20
2.000
  0
VERTEX
  8
COMP-MIN-OUTLINE-WIDTH-1
 10
2.850
 20
2.200
  0
SEQEND
  8
COMP-MIN-OUTLINE-WIDTH-1
  0
INSERT
  8
COMP-MIN-OUTLINE-WIDTH-1
  2
DISC
 10
2.850
 20
2.200
 41
0.001
 42
0.001
  0
POLYLINE
  8
COMP-MIN-OUTLINE-WIDTH-1
 66
1
 70
0
 40
0.001
 41
0.001
  0
VERTEX
  8
COMP-MIN-OUTLINE-WIDTH-1
 10
2.850
 20
2.200
  0
VERTEX
  8
COMP-MIN-OUTLINE-WIDTH-1
 10
2.000
 20
2.200
  0
SEQEND
  8
COMP-MIN-OUTLINE-WIDTH-1
  0
INSERT
  8
COMP-MIN-OUTLINE-WIDTH-1
  2
DISC
 10
2.000
 20
2.200
 41
0.001
 42
0.001
  0
POLYLINE
  8
COMP-MIN-OUTLINE-WIDTH-1
 66
1
 70
0
 40
0.001
 41
0.001
  0
VERTEX
  8
COMP-MIN-OUTLINE-WIDTH-1
 10
2.000
 20
2.200
  0
VERTEX
  8
COMP-MIN-OUTLINE-WIDTH-1
 10
2.000
 20
2.000
  0
SEQEND
  8
COMP-MIN-OUTLINE-WIDTH-1
  0
INSERT
  8
COMP-MIN-OUTLINE-WIDTH-1
  2
DISC
 10
2.000
 20
2.000
 41
0.001
 42
0.001
  0
INSERT
  8
COMP-MIN-OUTLINE-WIDTH-1
  2
DISC
 10
2.000
 20
2.000
 41
0.001
 42
0.001
  0
POLYLINE
  8
COMP-MIN-OUTLINE-WIDTH-1
 66
1
 70
0
 40
0.001
 41
0.001
  0
VERTEX
  8
COMP-MIN-OUTLINE-WIDTH-1
 10
2.000
 20
2.000
  0
VERTEX
  8
COMP-MIN-OUTLINE-WIDTH-1
 10
2.850
 20
2.000
  0
SEQEND
  8
COMP-MIN-OUTLINE-WIDTH-1
  0
INSERT
  8
COMP-MIN-OUTLINE-WIDTH-1
  2
DISC
 10
2.850
 20
2.000
 41
0.001
 42
0.001
  0
POLYLINE
  8
COMP-MIN-OUTLINE-WIDTH-1
 66
1
 70
0
 40
0.001
 41
0.001
  0
VERTEX
  8
COMP-MIN-OUTLINE-WIDTH-1
 10
2.850
 20
2.000
  0
VERTEX
  8
COMP-MIN-OUTLINE-WIDTH-1
 10
2.850
 20
2.200
  0
SEQEND
  8
COMP-MIN-OUTLINE-WIDTH-1
  0
INSERT
  8
COMP-MIN-OUTLINE-WIDTH-1
  2
DISC
 10
2.850
 20
2.200
 41
0.001
 42
0.001
  0
POLYLINE
  8
COMP-MIN-OUTLINE-WIDTH-1
 66
1
 70
0
 40
0.001
 41
0.001
  0
VERTEX
  8
COMP-MIN-OUTLINE-WIDTH-1
 10
2.850
 20
2.200
  0
VERTEX
  8
COMP-MIN-OUTLINE-WIDTH-1
 10
2.000
 20
2.200
  0
SEQEND
  8
COMP-MIN-OUTLINE-WIDTH-1
  0
INSERT
  8
COMP-MIN-OUTLINE-WIDTH-1
  2
DISC
 10
2.000
 20
2.200
 41
0.001
 42
0.001
  0
POLYLINE
  8
COMP-MIN-OUTLINE-WIDTH-1
 66
1
 70
0
 40
0.001
 41
0.001
  0
VERTEX
  8
COMP-MIN-OUTLINE-WIDTH-1
 10
2.000
 20
2.200
  0
VERTEX
  8
COMP-MIN-OUTLINE-WIDTH-1
 10
2.000
 20
2.000
  0
SEQEND
  8
COMP-MIN-OUTLINE-WIDTH-1
  0
INSERT
  8
COMP-MIN-OUTLINE-WIDTH-1
  2
DISC
 10
2.000
 20
2.000
 41
0.001
 42
0.001
  0
INSERT
  8
COMP-MIN-OUTLINE-WIDTH-2
  2
DISC
 10
2.045
 20
2.050
 41
0.001
 42
0.001
  0
POLYLINE
  8
COMP-MIN-OUTLINE-WIDTH-2
 66
1
 70
0
 40
0.001
 41
0.001
  0
VERTEX
  8
COMP-MIN-OUTLINE-WIDTH-2
 10
2.045
 20
2.050
  0
VERTEX
  8
COMP-MIN-OUTLINE-WIDTH-2
 10
2.045
 20
2.025
  0
SEQEND
  8
COMP-MIN-OUTLINE-WIDTH-2
  0
INSERT
  8
COMP-MIN-OUTLINE-WIDTH-2
  2
DISC
 10
2.045
 20
2.025
 41
0.001
 42
0.001
  0
POLYLINE
  8
COMP-MIN-OUTLINE-WIDTH-2
 66
1
 70
0
 40
0.001
 41
0.001
  0
VERTEX
  8
COMP-MIN-OUTLINE-WIDTH-2
 10
2.045
 20
2.025
  0
VERTEX
  8
COMP-MIN-OUTLINE-WIDTH-2
 10
2.070
 20
2.025
  0
SEQEND
  8
COMP-MIN-OUTLINE-WIDTH-2
  0
INSERT
  8
COMP-MIN-OUTLINE-WIDTH-2
  2
DISC
 10
2.070
 20
2.025
 41
0.001
 42
0.001
  0
POLYLINE
  8
COMP-MIN-OUTLINE-WIDTH-2
 66
1
 70
0
 40
0.001
 41
0.001
  0
VERTEX
  8
COMP-MIN-OUTLINE-WIDTH-2
 10
2.070
 20
2.025
  0
VERTEX
  8
COMP-MIN-OUTLINE-WIDTH-2
 10
2.070
 20
2.050
  0
SEQEND
  8
COMP-MIN-OUTLINE-WIDTH-2
  0
INSERT
  8
COMP-MIN-OUTLINE-WIDTH-2
  2
DISC
 10
2.070
 20
2.050
 41
0.001
 42
0.001
  0
POLYLINE
  8
COMP-MIN-OUTLINE-WIDTH-2
 66
1
 70
0
 40
0.001
 41
0.001
  0
VERTEX
  8
COMP-MIN-OUTLINE-WIDTH-2
 10
2.070
 20
2.050
  0
VERTEX
  8
COMP-MIN-OUTLINE-WIDTH-2
 10
2.045
 20
2.050
  0
SEQEND
  8
COMP-MIN-OUTLINE-WIDTH-2
  0
INSERT
  8
COMP-MIN-OUTLINE-WIDTH-2
  2
DISC
 10
2.045
 20
2.050
 41
0.001
 42
0.001
  0
ENDBLK
  8
0
  0
ENDSEC
  0
SECTION
  2
ENTITIES
  0
POLYLINE
  8
BOARD-OUTLINE
 66
1
 70
0
 40
0.000
 41
0.000
  0
VERTEX
  8
BOARD-OUTLINE
 10
2.916
 20
5.110
  0
VERTEX
  8
BOARD-OUTLINE
 10
2.916
 20
13.309
  0
VERTEX
  8
BOARD-OUTLINE
 10
9.136
 20
13.309
  0
VERTEX
  8
BOARD-OUTLINE
 10
9.136
 20
8.816
  0
VERTEX
  8
BOARD-OUTLINE
 10
18.389
 20
8.816
  0
VERTEX
  8
BOARD-OUTLINE
 10
18.389
 20
9.352
  0
VERTEX
  8
BOARD-OUTLINE
 10
19.527
 20
9.352
  0
VERTEX
  8
BOARD-OUTLINE
 10
19.527
 20
5.110
  0
VERTEX
  8
BOARD-OUTLINE
 10
17.688
 20
5.111
  0
VERTEX
  8
BOARD-OUTLINE
 10
8.455
 20
5.110
  0
VERTEX
  8
BOARD-OUTLINE
 10
2.917
 20
5.110
  0
SEQEND
  8
BOARD-OUTLINE
  0
INSERT
  8
0
  2
0
 10
18.195
 20
6.690
 50
000.000
  0
INSERT
  8
0
  2
0D
 10
18.195
 20
6.690
 50
000.000
  0
INSERT
  8
0
  2
0N
 10
18.195
 20
6.690
 50
000.000
  0
INSERT
  8
0
  2
0X
 10
18.195
 20
6.690
 50
000.000
  0
INSERT
  8
0
  2
0I
 10
18.195
 20
6.690
 50
000.000
  0
TEXT
  8
COMPONENT-NAME-MIN
 10
18.210
 20
6.855
 40
0.050
  1
C203
  0
INSERT
  8
0
  2
0
 10
18.195
 20
7.195
 50
000.000
  0
INSERT
  8
0
  2
0D
 10
18.195
 20
7.195
 50
000.000
  0
INSERT
  8
0
  2
0N
 10
18.195
 20
7.195
 50
000.000
  0
INSERT
  8
0
  2
0X
 10
18.195
 20
7.195
 50
000.000
  0
INSERT
  8
0
  2
0I
 10
18.195
 20
7.195
 50
000.000
  0
TEXT
  8
COMPONENT-NAME-MIN
 10
18.270
 20
6.975
 40
0.050
  1
C3
  0
INSERT
  8
0
  2
0
 10
18.195
 20
5.945
 50
000.000
  0
INSERT
  8
0
  2
0D
 10
18.195
 20
5.945
 50
000.000
  0
INSERT
  8
0
  2
0N
 10
18.195
 20
5.945
 50
000.000
  0
INSERT
  8
0
  2
0X
 10
18.195
 20
5.945
 50
000.000
  0
INSERT
  8
0
  2
0I
 10
18.195
 20
5.945
 50
000.000
  0
TEXT
  8
COMPONENT-NAME-MIN
 10
18.200
 20
6.115
 40
0.050
  1
C303
  0
INSERT
  8
0
  2
98
 10
19.265
 20
8.488
 50
270.000
  0
INSERT
  8
0
  2
98D
 10
19.265
 20
8.488
 50
270.000
  0
INSERT
  8
0
  2
98N
 10
19.265
 20
8.488
 50
270.000
  0
INSERT
  8
0
  2
98X
 10
19.265
 20
8.488
 50
270.000
  0
INSERT
  8
0
  2
98I
 10
19.265
 20
8.488
 50
270.000
  0
TEXT
  8
COMPONENT-NAME-MIN
 10
19.175
 20
8.250
 40
0.050
  1
CX1
  0
INSERT
  8
0
  2
98
 10
19.265
 20
9.198
 50
270.000
  0
INSERT
  8
0
  2
98D
 10
19.265
 20
9.198
 50
270.000
  0
INSERT
  8
0
  2
98N
 10
19.265
 20
9.198
 50
270.000
  0
INSERT
  8
0
  2
98X
 10
19.265
 20
9.198
 50
270.000
  0
INSERT
  8
0
  2
98I
 10
19.265
 20
9.198
 50
270.000
  0
TEXT
  8
COMPONENT-NAME-MIN
 10
19.175
 20
8.975
 40
0.050
  1
CX2
  0
INSERT
  8
0
  2
98
 10
19.265
 20
7.070
 50
270.000
  0
INSERT
  8
0
  2
98D
 10
19.265
 20
7.070
 50
270.000
  0
INSERT
  8
0
  2
98N
 10
19.265
 20
7.070
 50
270.000
  0
INSERT
  8
0
  2
98X
 10
19.265
 20
7.070
 50
270.000
  0
INSERT
  8
0
  2
98I
 10
19.265
 20
7.070
 50
270.000
  0
TEXT
  8
COMPONENT-NAME-MIN
 10
19.175
 20
6.845
 40
0.050
  1
CX201
  0
INSERT
  8
0
  2
98
 10
19.265
 20
7.779
 50
270.000
  0
INSERT
  8
0
  2
98D
 10
19.265
 20
7.779
 50
270.000
  0
INSERT
  8
0
  2
98N
 10
19.265
 20
7.779
 50
270.000
  0
INSERT
  8
0
  2
98X
 10
19.265
 20
7.779
 50
270.000
  0
INSERT
  8
0
  2
98I
 10
19.265
 20
7.779
 50
270.000
  0
TEXT
  8
COMPONENT-NAME-MIN
 10
19.175
 20
7.550
 40
0.050
  1
CX3
  0
INSERT
  8
0
  2
98
 10
19.265
 20
6.362
 50
270.000
  0
INSERT
  8
0
  2
98D
 10
19.265
 20
6.362
 50
270.000
  0
INSERT
  8
0
  2
98N
 10
19.265
 20
6.362
 50
270.000
  0
INSERT
  8
0
  2
98X
 10
19.265
 20
6.362
 50
270.000
  0
INSERT
  8
0
  2
98I
 10
19.265
 20
6.362
 50
270.000
  0
TEXT
  8
COMPONENT-NAME-MIN
 10
19.175
 20
6.125
 40
0.050
  1
CX301
  0
INSERT
  8
0
  2
200
 10
18.150
 20
5.520
 50
270.000
  0
INSERT
  8
0
  2
200D
 10
18.150
 20
5.520
 50
270.000
  0
INSERT
  8
0
  2
200N
 10
18.150
 20
5.520
 50
270.000
  0
INSERT
  8
0
  2
200X
 10
18.150
 20
5.520
 50
270.000
  0
INSERT
  8
0
  2
200I
 10
18.150
 20
5.520
 50
270.000
  0
TEXT
  8
COMPONENT-NAME-MIN
 10
18.135
 20
5.585
 40
0.050
  1
CX302
  0
INSERT
  8
0
  2
283
 10
3.900
 20
5.700
 50
000.000
  0
INSERT
  8
0
  2
283D
 10
3.900
 20
5.700
 50
000.000
  0
INSERT
  8
0
  2
283N
 10
3.900
 20
5.700
 50
000.000
  0
INSERT
  8
0
  2
283X
 10
3.900
 20
5.700
 50
000.000
  0
INSERT
  8
0
  2
283I
 10
3.900
 20
5.700
 50
000.000
  0
TEXT
  8
COMPONENT-NAME-MIN
 10
3.875
 20
5.875
 40
0.050
  1
H1
  0
INSERT
  8
0
  2
283
 10
13.526
 20
8.619
 50
000.000
  0
INSERT
  8
0
  2
283D
 10
13.526
 20
8.619
 50
000.000
  0
INSERT
  8
0
  2
283N
 10
13.526
 20
8.619
 50
000.000
  0
INSERT
  8
0
  2
283X
 10
13.526
 20
8.619
 50
000.000
  0
INSERT
  8
0
  2
283I
 10
13.526
 20
8.619
 50
000.000
  0
TEXT
  8
COMPONENT-NAME-MIN
 10
13.455
 20
8.395
 40
0.050
  1
H10
  0
INSERT
  8
0
  2
283
 10
17.621
 20
8.619
 50
000.000
  0
INSERT
  8
0
  2
283D
 10
17.621
 20
8.619
 50
000.000
  0
INSERT
  8
0
  2
283N
 10
17.621
 20
8.619
 50
000.000
  0
INSERT
  8
0
  2
283X
 10
17.621
 20
8.619
 50
000.000
  0
INSERT
  8
0
  2
283I
 10
17.621
 20
8.619
 50
000.000
  0
TEXT
  8
COMPONENT-NAME-MIN
 10
17.560
 20
8.400
 40
0.050
  1
H11
  0
INSERT
  8
0
  2
283
 10
17.621
 20
5.306
 50
000.000
  0
INSERT
  8
0
  2
283D
 10
17.621
 20
5.306
 50
000.000
  0
INSERT
  8
0
  2
283N
 10
17.621
 20
5.306
 50
000.000
  0
INSERT
  8
0
  2
283X
 10
17.621
 20
5.306
 50
000.000
  0
INSERT
  8
0
  2
283I
 10
17.621
 20
5.306
 50
000.000
  0
TEXT
  8
COMPONENT-NAME-MIN
 10
17.555
 20
5.470
 40
0.050
  1
H12
  0
INSERT
  8
0
  2
283
 10
13.526
 20
5.306
 50
000.000
  0
INSERT
  8
0
  2
283D
 10
13.526
 20
5.306
 50
000.000
  0
INSERT
  8
0
  2
283N
 10
13.526
 20
5.306
 50
000.000
  0
INSERT
  8
0
  2
283X
 10
13.526
 20
5.306
 50
000.000
  0
INSERT
  8
0
  2
283I
 10
13.526
 20
5.306
 50
000.000
  0
TEXT
  8
COMPONENT-NAME-MIN
 10
13.465
 20
5.460
 40
0.050
  1
H13
  0
INSERT
  8
0
  2
283
 10
11.105
 20
5.306
 50
000.000
  0
INSERT
  8
0
  2
283D
 10
11.105
 20
5.306
 50
000.000
  0
INSERT
  8
0
  2
283N
 10
11.105
 20
5.306
 50
000.000
  0
INSERT
  8
0
  2
283X
 10
11.105
 20
5.306
 50
000.000
  0
INSERT
  8
0
  2
283I
 10
11.105
 20
5.306
 50
000.000
  0
TEXT
  8
COMPONENT-NAME-MIN
 10
11.126
 20
5.324
 40
0.050
  1
H14
  0
INSERT
  8
0
  2
283
 10
7.955
 20
5.306
 50
000.000
  0
INSERT
  8
0
  2
283D
 10
7.955
 20
5.306
 50
000.000
  0
INSERT
  8
0
  2
283N
 10
7.955
 20
5.306
 50
000.000
  0
INSERT
  8
0
  2
283X
 10
7.955
 20
5.306
 50
000.000
  0
INSERT
  8
0
  2
283I
 10
7.955
 20
5.306
 50
000.000
  0
TEXT
  8
COMPONENT-NAME-MIN
 10
7.900
 20
5.475
 40
0.050
  1
H15
  0
INSERT
  8
0
  2
283
 10
3.900
 20
9.342
 50
000.000
  0
INSERT
  8
0
  2
283D
 10
3.900
 20
9.342
 50
000.000
  0
INSERT
  8
0
  2
283N
 10
3.900
 20
9.342
 50
000.000
  0
INSERT
  8
0
  2
283X
 10
3.900
 20
9.342
 50
000.000
  0
INSERT
  8
0
  2
283I
 10
3.900
 20
9.342
 50
000.000
  0
TEXT
  8
COMPONENT-NAME-MIN
 10
3.875
 20
9.500
 40
0.050
  1
H2
  0
INSERT
  8
0
  2
283
 10
3.900
 20
12.984
 50
000.000
  0
INSERT
  8
0
  2
283D
 10
3.900
 20
12.984
 50
000.000
  0
INSERT
  8
0
  2
283N
 10
3.900
 20
12.984
 50
000.000
  0
INSERT
  8
0
  2
283X
 10
3.900
 20
12.984
 50
000.000
  0
INSERT
  8
0
  2
283I
 10
3.900
 20
12.984
 50
000.000
  0
TEXT
  8
COMPONENT-NAME-MIN
 10
3.850
 20
13.125
 40
0.050
  1
H3
  0
INSERT
  8
0
  2
283
 10
6.853
 20
12.984
 50
000.000
  0
INSERT
  8
0
  2
283D
 10
6.853
 20
12.984
 50
000.000
  0
INSERT
  8
0
  2
283N
 10
6.853
 20
12.984
 50
000.000
  0
INSERT
  8
0
  2
283X
 10
6.853
 20
12.984
 50
000.000
  0
INSERT
  8
0
  2
283I
 10
6.853
 20
12.984
 50
000.000
  0
TEXT
  8
COMPONENT-NAME-MIN
 10
6.800
 20
13.125
 40
0.050
  1
H4
  0
INSERT
  8
0
  2
283
 10
6.853
 20
9.342
 50
000.000
  0
INSERT
  8
0
  2
283D
 10
6.853
 20
9.342
 50
000.000
  0
INSERT
  8
0
  2
283N
 10
6.853
 20
9.342
 50
000.000
  0
INSERT
  8
0
  2
283X
 10
6.853
 20
9.342
 50
000.000
  0
INSERT
  8
0
  2
283I
 10
6.853
 20
9.342
 50
000.000
  0
TEXT
  8
COMPONENT-NAME-MIN
 10
6.800
 20
9.500
 40
0.050
  1
H5
  0
INSERT
  8
0
  2
283
 10
6.853
 20
5.700
 50
000.000
  0
INSERT
  8
0
  2
283D
 10
6.853
 20
5.700
 50
000.000
  0
INSERT
  8
0
  2
283N
 10
6.853
 20
5.700
 50
000.000
  0
INSERT
  8
0
  2
283X
 10
6.853
 20
5.700
 50
000.000
  0
INSERT
  8
0
  2
283I
 10
6.853
 20
5.700
 50
000.000
  0
TEXT
  8
COMPONENT-NAME-MIN
 10
6.800
 20
5.875
 40
0.050
  1
H6
  0
INSERT
  8
0
  2
283
 10
8.939
 20
12.984
 50
000.000
  0
INSERT
  8
0
  2
283D
 10
8.939
 20
12.984
 50
000.000
  0
INSERT
  8
0
  2
283N
 10
8.939
 20
12.984
 50
000.000
  0
INSERT
  8
0
  2
283X
 10
8.939
 20
12.984
 50
000.000
  0
INSERT
  8
0
  2
283I
 10
8.939
 20
12.984
 50
000.000
  0
TEXT
  8
COMPONENT-NAME-MIN
 10
8.900
 20
13.125
 40
0.050
  1
H7
  0
INSERT
  8
0
  2
283
 10
7.955
 20
8.619
 50
000.000
  0
INSERT
  8
0
  2
283D
 10
7.955
 20
8.619
 50
000.000
  0
INSERT
  8
0
  2
283N
 10
7.955
 20
8.619
 50
000.000
  0
INSERT
  8
0
  2
283X
 10
7.955
 20
8.619
 50
000.000
  0
INSERT
  8
0
  2
283I
 10
7.955
 20
8.619
 50
000.000
  0
TEXT
  8
COMPONENT-NAME-MIN
 10
7.925
 20
8.775
 40
0.050
  1
H8
  0
INSERT
  8
0
  2
283
 10
11.105
 20
8.619
 50
000.000
  0
INSERT
  8
0
  2
283D
 10
11.105
 20
8.619
 50
000.000
  0
INSERT
  8
0
  2
283N
 10
11.105
 20
8.619
 50
000.000
  0
INSERT
  8
0
  2
283X
 10
11.105
 20
8.619
 50
000.000
  0
INSERT
  8
0
  2
283I
 10
11.105
 20
8.619
 50
000.000
  0
TEXT
  8
COMPONENT-NAME-MIN
 10
11.060
 20
8.395
 40
0.050
  1
H9
  0
INSERT
  8
0
  2
355
 10
6.190
 20
6.445
 50
180.000
  0
INSERT
  8
0
  2
355D
 10
6.190
 20
6.445
 50
180.000
  0
INSERT
  8
0
  2
355N
 10
6.190
 20
6.445
 50
180.000
  0
INSERT
  8
0
  2
355X
 10
6.190
 20
6.445
 50
180.000
  0
INSERT
  8
0
  2
355I
 10
6.190
 20
6.445
 50
180.000
  0
TEXT
  8
COMPONENT-NAME-MIN
 10
5.700
 20
6.325
 40
0.050
  1
PP1
  0
INSERT
  8
0
  2
488
 10
16.870
 20
8.575
 50
000.000
  0
INSERT
  8
0
  2
488D
 10
16.870
 20
8.575
 50
000.000
  0
INSERT
  8
0
  2
488N
 10
16.870
 20
8.575
 50
000.000
  0
INSERT
  8
0
  2
488X
 10
16.870
 20
8.575
 50
000.000
  0
INSERT
  8
0
  2
488I
 10
16.870
 20
8.575
 50
000.000
  0
TEXT
  8
COMPONENT-NAME-MIN
 10
16.830
 20
8.540
 40
0.050
  1
R410
  0
INSERT
  8
0
  2
583
 10
18.025
 20
8.705
 50
270.000
  0
INSERT
  8
0
  2
583D
 10
18.025
 20
8.705
 50
270.000
  0
INSERT
  8
0
  2
583N
 10
18.025
 20
8.705
 50
270.000
  0
INSERT
  8
0
  2
583X
 10
18.025
 20
8.705
 50
270.000
  0
INSERT
  8
0
  2
583I
 10
18.025
 20
8.705
 50
270.000
  0
TEXT
  8
COMPONENT-NAME-MIN
 10
18.185
 20
7.860
 40
0.050
  1
RE1
  0
INSERT
  8
0
  2
913
 10
3.900
 20
6.000
 50
000.000
  0
INSERT
  8
0
  2
913D
 10
3.900
 20
6.000
 50
000.000
  0
INSERT
  8
0
  2
913N
 10
3.900
 20
6.000
 50
000.000
  0
INSERT
  8
0
  2
913X
 10
3.900
 20
6.000
 50
000.000
  0
INSERT
  8
0
  2
913I
 10
3.900
 20
6.000
 50
000.000
  0
TEXT
  8
COMPONENT-NAME-MIN
 10
3.825
 20
6.050
 40
0.050
  1
REF1
  0
INSERT
  8
0
  2
913
 10
18.901
 20
9.300
 50
000.000
  0
INSERT
  8
0
  2
913D
 10
18.901
 20
9.300
 50
000.000
  0
INSERT
  8
0
  2
913N
 10
18.901
 20
9.300
 50
000.000
  0
INSERT
  8
0
  2
913X
 10
18.901
 20
9.300
 50
000.000
  0
INSERT
  8
0
  2
913I
 10
18.901
 20
9.300
 50
000.000
  0
TEXT
  8
COMPONENT-NAME-MIN
 10
18.725
 20
9.275
 40
0.050
  1
REF2
  0
INSERT
  8
0
  2
984
 10
3.225
 20
11.920
 50
090.000
  0
INSERT
  8
0
  2
984D
 10
3.225
 20
11.920
 50
090.000
  0
INSERT
  8
0
  2
984N
 10
3.225
 20
11.920
 50
090.000
  0
INSERT
  8
0
  2
984X
 10
3.225
 20
11.920
 50
090.000
  0
INSERT
  8
0
  2
984I
 10
3.225
 20
11.920
 50
090.000
  0
TEXT
  8
COMPONENT-NAME-MIN
 10
3.100
 20
12.050
 40
0.050
  1
SP400
  0
INSERT
  8
0
  2
1019
 10
6.900
 20
10.555
 50
000.000
  0
INSERT
  8
0
  2
1019D
 10
6.900
 20
10.555
 50
000.000
  0
INSERT
  8
0
  2
1019N
 10
6.900
 20
10.555
 50
000.000
  0
INSERT
  8
0
  2
1019X
 10
6.900
 20
10.555
 50
000.000
  0
INSERT
  8
0
  2
1019I
 10
6.900
 20
10.555
 50
000.000
  0
TEXT
  8
COMPONENT-NAME-MIN
 10
6.850
 20
10.600
 40
0.050
  1
SP402
  0
INSERT
  8
0
  2
1057
 10
16.795
 20
6.685
 50
090.000
  0
INSERT
  8
0
  2
1057D
 10
16.795
 20
6.685
 50
090.000
  0
INSERT
  8
0
  2
1057N
 10
16.795
 20
6.685
 50
090.000
  0
INSERT
  8
0
  2
1057X
 10
16.795
 20
6.685
 50
090.000
  0
INSERT
  8
0
  2
1057I
 10
16.795
 20
6.685
 50
090.000
  0
TEXT
  8
COMPONENT-NAME-MIN
 10
16.735
 20
6.775
 40
0.050
  1
TP1
  0
INSERT
  8
0
  2
1057
 10
7.265
 20
5.685
 50
000.000
  0
INSERT
  8
0
  2
1057D
 10
7.265
 20
5.685
 50
000.000
  0
INSERT
  8
0
  2
1057N
 10
7.265
 20
5.685
 50
000.000
  0
INSERT
  8
0
  2
1057X
 10
7.265
 20
5.685
 50
000.000
  0
INSERT
  8
0
  2
1057I
 10
7.265
 20
5.685
 50
000.000
  0
TEXT
  8
COMPONENT-NAME-MIN
 10
7.225
 20
5.715
 40
0.050
  1
TP2
  0
INSERT
  8
0
  2
1057
 10
7.470
 20
10.200
 50
000.000
  0
INSERT
  8
0
  2
1057D
 10
7.470
 20
10.200
 50
000.000
  0
INSERT
  8
0
  2
1057N
 10
7.470
 20
10.200
 50
000.000
  0
INSERT
  8
0
  2
1057X
 10
7.470
 20
10.200
 50
000.000
  0
INSERT
  8
0
  2
1057I
 10
7.470
 20
10.200
 50
000.000
  0
TEXT
  8
COMPONENT-NAME-MIN
 10
7.400
 20
10.250
 40
0.050
  1
TP3
  0
INSERT
  8
0
  2
1057
 10
6.925
 20
7.255
 50
180.000
  0
INSERT
  8
0
  2
1057D
 10
6.925
 20
7.255
 50
180.000
  0
INSERT
  8
0
  2
1057N
 10
6.925
 20
7.255
 50
180.000
  0
INSERT
  8
0
  2
1057X
 10
6.925
 20
7.255
 50
180.000
  0
INSERT
  8
0
  2
1057I
 10
6.925
 20
7.255
 50
180.000
  0
TEXT
  8
COMPONENT-NAME-MIN
 10
6.850
 20
7.350
 40
0.050
  1
TP4
  0
INSERT
  8
0
  2
1057
 10
5.840
 20
10.530
 50
000.000
  0
INSERT
  8
0
  2
1057D
 10
5.840
 20
10.530
 50
000.000
  0
INSERT
  8
0
  2
1057N
 10
5.840
 20
10.530
 50
000.000
  0
INSERT
  8
0
  2
1057X
 10
5.840
 20
10.530
 50
000.000
  0
INSERT
  8
0
  2
1057I
 10
5.840
 20
10.530
 50
000.000
  0
TEXT
  8
COMPONENT-NAME-MIN
 10
5.600
 20
10.500
 40
0.050
  1
TP5
  0
INSERT
  8
0
  2
1057
 10
5.840
 20
10.670
 50
000.000
  0
INSERT
  8
0
  2
1057D
 10
5.840
 20
10.670
 50
000.000
  0
INSERT
  8
0
  2
1057N
 10
5.840
 20
10.670
 50
000.000
  0
INSERT
  8
0
  2
1057X
 10
5.840
 20
10.670
 50
000.000
  0
INSERT
  8
0
  2
1057I
 10
5.840
 20
10.670
 50
000.000
  0
TEXT
  8
COMPONENT-NAME-MIN
 10
5.600
 20
10.625
 40
0.050
  1
TP6
  0
INSERT
  8
0
  2
1057
 10
5.840
 20
10.810
 50
000.000
  0
INSERT
  8
0
  2
1057D
 10
5.840
 20
10.810
 50
000.000
  0
INSERT
  8
0
  2
1057N
 10
5.840
 20
10.810
 50
000.000
  0
INSERT
  8
0
  2
1057X
 10
5.840
 20
10.810
 50
000.000
  0
INSERT
  8
0
  2
1057I
 10
5.840
 20
10.810
 50
000.000
  0
TEXT
  8
COMPONENT-NAME-MIN
 10
5.600
 20
10.775
 40
0.050
  1
TP7
  0
INSERT
  8
0
  2
1057
 10
5.840
 20
10.950
 50
000.000
  0
INSERT
  8
0
  2
1057D
 10
5.840
 20
10.950
 50
000.000
  0
INSERT
  8
0
  2
1057N
 10
5.840
 20
10.950
 50
000.000
  0
INSERT
  8
0
  2
1057X
 10
5.840
 20
10.950
 50
000.000
  0
INSERT
  8
0
  2
1057I
 10
5.840
 20
10.950
 50
000.000
  0
TEXT
  8
COMPONENT-NAME-MIN
 10
5.600
 20
10.925
 40
0.050
  1
TP8
  0
INSERT
  8
0
  2
1057
 10
5.825
 20
9.705
 50
180.000
  0
INSERT
  8
0
  2
1057D
 10
5.825
 20
9.705
 50
180.000
  0
INSERT
  8
0
  2
1057N
 10
5.825
 20
9.705
 50
180.000
  0
INSERT
  8
0
  2
1057X
 10
5.825
 20
9.705
 50
180.000
  0
INSERT
  8
0
  2
1057I
 10
5.825
 20
9.705
 50
180.000
  0
TEXT
  8
COMPONENT-NAME-MIN
 10
5.750
 20
9.775
 40
0.050
  1
TP9
  0
INSERT
  8
0
  2
1098
 10
17.030
 20
8.090
 50
090.000
  0
INSERT
  8
0
  2
1098D
 10
17.030
 20
8.090
 50
090.000
  0
INSERT
  8
0
  2
1098N
 10
17.030
 20
8.090
 50
090.000
  0
INSERT
  8
0
  2
1098X
 10
17.030
 20
8.090
 50
090.000
  0
INSERT
  8
0
  2
1098I
 10
17.030
 20
8.090
 50
090.000
  0
TEXT
  8
COMPONENT-NAME-MIN
 10
16.890
 20
8.240
 40
0.050
  1
V2
  0
INSERT
  8
0
  2
1379
 10
8.020
 20
7.325
 50
000.000
  0
INSERT
  8
0
  2
1379D
 10
8.020
 20
7.325
 50
000.000
  0
INSERT
  8
0
  2
1379N
 10
8.020
 20
7.325
 50
000.000
  0
INSERT
  8
0
  2
1379X
 10
8.020
 20
7.325
 50
000.000
  0
INSERT
  8
0
  2
1379I
 10
8.020
 20
7.325
 50
000.000
  0
TEXT
  8
COMPONENT-NAME-MIN
 10
8.050
 20
7.300
 40
0.050
  1
X201
  0
INSERT
  8
0
  2
1379
 10
5.890
 20
12.055
 50
090.000
  0
INSERT
  8
0
  2
1379D
 10
5.890
 20
12.055
 50
090.000
  0
INSERT
  8
0
  2
1379N
 10
5.890
 20
12.055
 50
090.000
  0
INSERT
  8
0
  2
1379X
 10
5.890
 20
12.055
 50
090.000
  0
INSERT
  8
0
  2
1379I
 10
5.890
 20
12.055
 50
090.000
  0
TEXT
  8
COMPONENT-NAME-MIN
 10
5.800
 20
12.400
 40
0.050
  1
X401
  0
INSERT
  8
0
  2
1440
 10
7.571
 20
5.355
 50
180.000
  0
INSERT
  8
0
  2
1440D
 10
7.571
 20
5.355
 50
180.000
  0
INSERT
  8
0
  2
1440N
 10
7.571
 20
5.355
 50
180.000
  0
INSERT
  8
0
  2
1440X
 10
7.571
 20
5.355
 50
180.000
  0
INSERT
  8
0
  2
1440I
 10
7.571
 20
5.355
 50
180.000
  0
TEXT
  8
COMPONENT-NAME-MIN
 10
6.950
 20
5.275
 40
0.050
  1
XF1
  0
INSERT
  8
0
  2
1440
 10
6.171
 20
5.355
 50
180.000
  0
INSERT
  8
0
  2
1440D
 10
6.171
 20
5.355
 50
180.000
  0
INSERT
  8
0
  2
1440N
 10
6.171
 20
5.355
 50
180.000
  0
INSERT
  8
0
  2
1440X
 10
6.171
 20
5.355
 50
180.000
  0
INSERT
  8
0
  2
1440I
 10
6.171
 20
5.355
 50
180.000
  0
TEXT
  8
COMPONENT-NAME-MIN
 10
5.550
 20
5.275
 40
0.050
  1
XG1
  0
INSERT
  8
0
  2
1440
 10
4.775
 20
5.355
 50
180.000
  0
INSERT
  8
0
  2
1440D
 10
4.775
 20
5.355
 50
180.000
  0
INSERT
  8
0
  2
1440N
 10
4.775
 20
5.355
 50
180.000
  0
INSERT
  8
0
  2
1440X
 10
4.775
 20
5.355
 50
180.000
  0
INSERT
  8
0
  2
1440I
 10
4.775
 20
5.355
 50
180.000
  0
TEXT
  8
COMPONENT-NAME-MIN
 10
4.150
 20
5.275
 40
0.050
  1
XH1
  0
INSERT
  8
0
  2
1440
 10
7.405
 20
7.400
 50
090.000
  0
INSERT
  8
0
  2
1440D
 10
7.405
 20
7.400
 50
090.000
  0
INSERT
  8
0
  2
1440N
 10
7.405
 20
7.400
 50
090.000
  0
INSERT
  8
0
  2
1440X
 10
7.405
 20
7.400
 50
090.000
  0
INSERT
  8
0
  2
1440I
 10
7.405
 20
7.400
 50
090.000
  0
TEXT
  8
COMPONENT-NAME-MIN
 10
7.300
 20
7.750
 40
0.050
  1
XJ1
  0
INSERT
  8
0
  2
1440
 10
7.305
 20
7.105
 50
270.000
  0
INSERT
  8
0
  2
1440D
 10
7.305
 20
7.105
 50
270.000
  0
INSERT
  8
0
  2
1440N
 10
7.305
 20
7.105
 50
270.000
  0
INSERT
  8
0
  2
1440X
 10
7.305
 20
7.105
 50
270.000
  0
INSERT
  8
0
  2
1440I
 10
7.305
 20
7.105
 50
270.000
  0
TEXT
  8
COMPONENT-NAME-MIN
 10
7.340
 20
6.695
 40
0.050
  1
XK1
 50
270.000
  0
INSERT
  8
0
  2
2012
 10
8.888
 20
12.305
 50
270.000
  0
INSERT
  8
0
  2
2012D
 10
8.888
 20
12.305
 50
270.000
  0
INSERT
  8
0
  2
2012N
 10
8.888
 20
12.305
 50
270.000
  0
INSERT
  8
0
  2
2012X
 10
8.888
 20
12.305
 50
270.000
  0
INSERT
  8
0
  2
2012I
 10
8.888
 20
12.305
 50
270.000
  0
TEXT
  8
COMPONENT-NAME-MIN
 10
8.850
 20
11.800
 40
0.050
  1
XL1
  0
INSERT
  8
0
  2
2088
 10
8.390
 20
9.650
 50
000.000
  0
INSERT
  8
0
  2
2088D
 10
8.390
 20
9.650
 50
000.000
  0
INSERT
  8
0
  2
2088N
 10
8.390
 20
9.650
 50
000.000
  0
INSERT
  8
0
  2
2088X
 10
8.390
 20
9.650
 50
000.000
  0
INSERT
  8
0
  2
2088I
 10
8.390
 20
9.650
 50
000.000
  0
TEXT
  8
COMPONENT-NAME-MIN
 10
8.525
 20
9.675
 40
0.050
  1
XM1
  0
INSERT
  8
0
  2
2670
 10
3.173
 20
7.485
 50
090.000
  0
INSERT
  8
0
  2
2670D
 10
3.173
 20
7.485
 50
090.000
  0
INSERT
  8
0
  2
2670N
 10
3.173
 20
7.485
 50
090.000
  0
INSERT
  8
0
  2
2670X
 10
3.173
 20
7.485
 50
090.000
  0
INSERT
  8
0
  2
2670I
 10
3.173
 20
7.485
 50
090.000
  0
TEXT
  8
COMPONENT-NAME-MIN
 10
3.050
 20
7.800
 40
0.050
  1
XN1
  0
INSERT
  8
0
  2
2088
 10
7.585
 20
9.250
 50
000.000
  0
INSERT
  8
0
  2
2088D
 10
7.585
 20
9.250
 50
000.000
  0
INSERT
  8
0
  2
2088N
 10
7.585
 20
9.250
 50
000.000
  0
INSERT
  8
0
  2
2088X
 10
7.585
 20
9.250
 50
000.000
  0
INSERT
  8
0
  2
2088I
 10
7.585
 20
9.250
 50
000.000
  0
TEXT
  8
COMPONENT-NAME-MIN
 10
7.725
 20
9.275
 40
0.050
  1
XQ1
  0
INSERT
  8
0
  2
2088
 10
8.390
 20
9.250
 50
000.000
  0
INSERT
  8
0
  2
2088D
 10
8.390
 20
9.250
 50
000.000
  0
INSERT
  8
0
  2
2088N
 10
8.390
 20
9.250
 50
000.000
  0
INSERT
  8
0
  2
2088X
 10
8.390
 20
9.250
 50
000.000
  0
INSERT
  8
0
  2
2088I
 10
8.390
 20
9.250
 50
000.000
  0
TEXT
  8
COMPONENT-NAME-MIN
 10
8.525
 20
9.275
 40
0.050
  1
XR1
  0
INSERT
  8
0
  2
3207
 10
16.435
 20
8.120
 50
000.000
  0
INSERT
  8
0
  2
3207D
 10
16.435
 20
8.120
 50
000.000
  0
INSERT
  8
0
  2
3207N
 10
16.435
 20
8.120
 50
000.000
  0
INSERT
  8
0
  2
3207X
 10
16.435
 20
8.120
 50
000.000
  0
INSERT
  8
0
  2
3207I
 10
16.435
 20
8.120
 50
000.000
  0
TEXT
  8
COMPONENT-NAME-MIN
 10
16.480
 20
8.285
 40
0.050
  1
XS1
  0
INSERT
  8
0
  2
3320
 10
3.163
 20
10.124
 50
090.000
  0
INSERT
  8
0
  2
3320D
 10
3.163
 20
10.124
 50
090.000
  0
INSERT
  8
0
  2
3320N
 10
3.163
 20
10.124
 50
090.000
  0
INSERT
  8
0
  2
3320X
 10
3.163
 20
10.124
 50
090.000
  0
INSERT
  8
0
  2
3320I
 10
3.163
 20
10.124
 50
090.000
  0
TEXT
  8
COMPONENT-NAME-MIN
 10
3.050
 20
10.400
 40
0.050
  1
XP1
  0
INSERT
  8
0
  2
1057
 10
7.480
 20
5.905
 50
000.000
  0
INSERT
  8
0
  2
1057D
 10
7.480
 20
5.905
 50
000.000
  0
INSERT
  8
0
  2
1057N
 10
7.480
 20
5.905
 50
000.000
  0
INSERT
  8
0
  2
1057X
 10
7.480
 20
5.905
 50
000.000
  0
INSERT
  8
0
  2
1057I
 10
7.480
 20
5.905
 50
000.000
  0
TEXT
  8
COMPONENT-NAME-MIN
 10
7.450
 20
6.000
 40
0.050
  1
TP10
  0
INSERT
  8
0
  2
1057
 10
7.265
 20
5.905
 50
000.000
  0
INSERT
  8
0
  2
1057D
 10
7.265
 20
5.905
 50
000.000
  0
INSERT
  8
0
  2
1057N
 10
7.265
 20
5.905
 50
000.000
  0
INSERT
  8
0
  2
1057X
 10
7.265
 20
5.905
 50
000.000
  0
INSERT
  8
0
  2
1057I
 10
7.265
 20
5.905
 50
000.000
  0
TEXT
  8
COMPONENT-NAME-MIN
 10
7.075
 20
6.000
 40
0.050
  1
TP11
  0
INSERT
  8
0
  2
1057
 10
7.470
 20
10.500
 50
000.000
  0
INSERT
  8
0
  2
1057D
 10
7.470
 20
10.500
 50
000.000
  0
INSERT
  8
0
  2
1057N
 10
7.470
 20
10.500
 50
000.000
  0
INSERT
  8
0
  2
1057X
 10
7.470
 20
10.500
 50
000.000
  0
INSERT
  8
0
  2
1057I
 10
7.470
 20
10.500
 50
000.000
  0
TEXT
  8
COMPONENT-NAME-MIN
 10
7.375
 20
10.550
 40
0.050
  1
TP12
  0
INSERT
  8
0
  2
1057
 10
7.485
 20
5.685
 50
000.000
  0
INSERT
  8
0
  2
1057D
 10
7.485
 20
5.685
 50
000.000
  0
INSERT
  8
0
  2
1057N
 10
7.485
 20
5.685
 50
000.000
  0
INSERT
  8
0
  2
1057X
 10
7.485
 20
5.685
 50
000.000
  0
INSERT
  8
0
  2
1057I
 10
7.485
 20
5.685
 50
000.000
  0
TEXT
  8
COMPONENT-NAME-MIN
 10
7.445
 20
5.715
 40
0.050
  1
TP13
  0
ENDSEC
  0
EOF
