  0
SECTION
  2
HEADER
  9
$ACADVER
  1
AC1004
  9
$INSBASE
 10
0.0
 20
0.0
  9
$EXTMIN
 10
0.0
 20
0.0
  9
$EXTMAX
 10
32.767
 20
32.767
  9
$LIMMIN
 10
0.0
 20
0.0
  9
$LIMMAX
 10
32.767
 20
32.767
  9
$SNAPMODE
 70
     1
  9
$SNAPUNIT
 10
0.001
 20
0.001
  9
$SNAPBASE
 10
0.0
 20
0.0
  9
$SNAPANG
 50
0.0
  9
$SNAPSTYLE
 70
     0
  9
$SNAPISOPAIR
 70
     1
  9
$GRIDMODE
 70
     0
  9
$GRIDUNIT
 10
0.0
 20
0.0
  9
$ORTHOMODE
 70
     0
  9
$REGENMODE
 70
     1
  9
$FILLMODE
 70
     1
  9
$QTEXTMODE
 70
     0
  9
$DRAGMODE
 70
     2
  9
$LTSCALE
 40
25.0
  9
$OSMODE
 70
     0
  9
$ATTMODE
 70
     1
  9
$TEXTSIZE
 40
3.0
  9
$TRACEWID
 40
10.0
  9
$TEXTSTYLE
  7
STANDARD
  9
$CLAYER
  8
0
  9
$CELTYPE
  6
BYLAYER
  9
$CECOLOR
 62
     1
  9
$DIMSCALE
 40
1.0
  9
$DIMASZ
 40
3.0
  9
$DIMEXO
 40
2.5
  9
$DIMDLI
 40
10.0
  9
$DIMRND
 40
0.0
  9
$DIMDLE
 40
1.25
  9
$DIMEXE
 40
2.5
  9
$DIMTP
 40
0.0
  9
$DIMTM
 40
0.0
  9
$DIMTXT
 40
3.0
  9
$DIMCEN
 40
-3.0
  9
$DIMTSZ
 40
0.0
  9
$DIMTOL
 70
     0
  9
$DIMLIM
 70
     0
  9
$DIMTIH
 70
     0
  9
$DIMTOH
 70
     0
  9
$DIMSE1
 70
     0
  9
$DIMSE2
 70
     0
  9
$DIMTAD
 70
     1
  9
$DIMZIN
 70
     1
  9
$DIMBLK
  1

  9
$DIMASO
 70
     1
  9
$DIMSHO
 70
     0
  9
$DIMPOST
  1

  9
$DIMAPOST
  1

  9
$DIMALT
 70
     0
  9
$DIMALTD
 70
     2
  9
$DIMALTF
 40
0.03937
  9
$DIMLFAC
 40
1.0
  9
$LUNITS
 70
     2
  9
$LUPREC
 70
     3
  9
$AXISMODE
 70
     0
  9
$AXISUNIT
 10
0.0
 20
0.0
  9
$SKETCHINC
 40
1.0
  9
$FILLETRAD
 40
0.0
  9
$AUNITS
 70
     0
  9
$AUPREC
 70
     4
  9
$MENU
  1
acad
  9
$ELEVATION
 40
0.0
  9
$THICKNESS
 40
0.0
  9
$VIEWDIR
 10
0.0
 20
0.0
 30
1.0
  9
$LIMCHECK
 70
     0
  9
$BLIPMODE
 70
     1
  9
$CHAMFERA
 40
0.0
  9
$CHAMFERB
 40
0.0
  9
$FASTZOOM
 70
     1
  9
$SKPOLY
 70
     1
  9
$TDCREATE
 40
2447273.4679753473
  9
$TDUPDATE
 40
2447273.4679753473
  9
$TDINDWG
 40
0.0000000000
  9
$TDUSRTIMER
 40
0.0000000000
  9
$USRTIMER
 70
     1
  9
$ANGBASE
 50
0.0
  9
$ANGDIR
 70
     0
  9
$PDMODE
 70
     0
  9
$PDSIZE
 40
0.0
  9
$PLINEWID
 40
0.0
  9
$COORDS
 70
     2
  9
$SPLFRAME
 70
     0
  9
$SPLINESEGS
 70
     8
  9
$ATTDIA
 70
     0
  9
$ATTREQ
 70
     1
  9
$USERI1
 70
     0
  9
$USERI2
 70
     1
  9
$USERI3
 70
     0
  9
$USERI4
 70
     0
  9
$USERI5
 70
     0
  9
$USERR1
 40
900.0
  9
$USERR2
 40
900.0
  9
$USERR3
 40
50.0
  9
$USERR4
 40
0.0
  9
$USERR5
 40
3600.0
  0
ENDSEC
  0
SECTION
  2
TABLES
  0
TABLE
  2
LTYPE
 70
     1
  0
LTYPE
  2
CONTINUOUS
 70
    64
  3
Solid line
 72
    65
 73
     0
 40
0.0
  0
ENDTAB
  0
TABLE
  2
LAYER
 70
     1
  0
LAYER
  2
0
 70
     0
 62
     7
  6
CONTINUOUS
  0
LAYER
  2
0
 70
0
 62
7
  6
CONTINUOUS
  0
LAYER
  2
BOARD-OUTLINE
 70
0
 62
1
  6
CONTINUOUS
  0
LAYER
  2
COMPONENT-NAME-MIN
 70
0
 62
1
  6
CONTINUOUS
  0
LAYER
  2
COMP-MIN-OUTLINE-WIDTH-1
 70
0
 62
1
  6
CONTINUOUS
  0
LAYER
  2
COMP-MIN-OUTLINE-WIDTH-2
 70
0
 62
1
  6
CONTINUOUS
  0
LAYER
  2
COMP-MIN-TEXT-WIDTH-0
 70
0
 62
1
  6
CONTINUOUS
  0
LAYER
  2
COMP-MIN-TEXT-WIDTH-1
 70
0
 62
1
  6
CONTINUOUS
  0
LAYER
  2
TEXT-LAYER-1
 70
0
 62
1
  6
CONTINUOUS
  0
ENDTAB
  0
TABLE
  2
STYLE
 70
     1
  0
STYLE
  2
STANDARD
 70
     0
 40
0.0
 41
1.0
 50
0.0
 71
     0
 42
3.0
  3
simplex
  4

  0
ENDTAB
  0
TABLE
  2
VIEW
 70
     0
  0
ENDTAB
  0
ENDSEC
  0
SECTION
  2
BLOCKS
  0
BLOCK
  8
0
  2
DISC
  70
0
  10
0.0
  20
0.0
  0
POLYLINE
  8
0
  66
1
  70
1
  40
0.5
  41
0.5
  0
VERTEX
  8
0
  10
0.0
  20
0.25
  42
1.0
  0
VERTEX
  8
0
  10
0.0
  20
-0.25
  42
1.0
  0
SEQEND
  8
0
  0
ENDBLK
  8
0
  0
BLOCK
  8
0
  2
SQUARE
  70
0
  10
0.0
  20
0.0
  0
SOLID
  8
0
  10
-0.5
  20
-0.5
  11
 0.5
  21
-0.5
  13
 0.5
  23
 0.5
  12
-0.5
  22
 0.5
  0
ENDBLK
  8
0
  0
BLOCK
  8
0
  2
DIAMOND
  70
0
  10
0.0
  20
0.0
  0
INSERT
  8
0
  2
SQUARE
  10
0.0
  20
0.0
  50
45.0
  0
ENDBLK
  8
0
  0
BLOCK
  8
0
  2
OCTAGON
  70
0
  10
0.0
  20
0.0
  0
SOLID
  8
0
  10
-0.5
  20
-0.2
  11
-0.2
  21
-0.5
  13
 0.2
  23
-0.5
  12
 0.5
  22
-0.2
  0
SOLID
  8
0
  10
-0.5
  20
 0.2
  11
 0.5
  21
 0.2
  13
 0.5
  23
-0.2
  12
-0.5
  22
-0.2
  0
SOLID
  8
0
  10
-0.5
  20
 0.2
  11
-0.2
  21
 0.5
  13
 0.2
  23
 0.5
  12
 0.5
  22
 0.2
  0
ENDBLK
  8
0
  0
BLOCK
  8
0
  2
PN6
 70
0
 10
0.000
 20
0.000
  0
ENDBLK
  8
0
  0
BLOCK
  8
0
  2
PI6
 70
0
 10
0.000
 20
0.000
  0
ENDBLK
  8
0
  0
BLOCK
  8
0
  2
PX6
 70
0
 10
0.000
 20
0.000
  0
ENDBLK
  8
0
  0
BLOCK
  8
0
  2
PD6
 70
0
 10
0.000
 20
0.000
  0
ENDBLK
  8
0
  0
BLOCK
  8
0
  2
PN7
 70
0
 10
0.000
 20
0.000
  0
ENDBLK
  8
0
  0
BLOCK
  8
0
  2
PI7
 70
0
 10
0.000
 20
0.000
  0
ENDBLK
  8
0
  0
BLOCK
  8
0
  2
PX7
 70
0
 10
0.000
 20
0.000
  0
ENDBLK
  8
0
  0
BLOCK
  8
0
  2
PD7
 70
0
 10
0.000
 20
0.000
  0
ENDBLK
  8
0
  0
BLOCK
  8
0
  2
PN36
 70
0
 10
0.000
 20
0.000
  0
ENDBLK
  8
0
  0
BLOCK
  8
0
  2
PI36
 70
0
 10
0.000
 20
0.000
  0
ENDBLK
  8
0
  0
BLOCK
  8
0
  2
PX36
 70
0
 10
0.000
 20
0.000
  0
ENDBLK
  8
0
  0
BLOCK
  8
0
  2
PD36
 70
0
 10
0.000
 20
0.000
  0
ENDBLK
  8
0
  0
BLOCK
  8
0
  2
PN38
 70
0
 10
0.000
 20
0.000
  0
ENDBLK
  8
0
  0
BLOCK
  8
0
  2
PI38
 70
0
 10
0.000
 20
0.000
  0
ENDBLK
  8
0
  0
BLOCK
  8
0
  2
PX38
 70
0
 10
0.000
 20
0.000
  0
ENDBLK
  8
0
  0
BLOCK
  8
0
  2
PD38
 70
0
 10
0.000
 20
0.000
  0
ENDBLK
  8
0
  0
BLOCK
  8
0
  2
PN41
 70
0
 10
0.000
 20
0.000
  0
ENDBLK
  8
0
  0
BLOCK
  8
0
  2
PI41
 70
0
 10
0.000
 20
0.000
  0
ENDBLK
  8
0
  0
BLOCK
  8
0
  2
PX41
 70
0
 10
0.000
 20
0.000
  0
ENDBLK
  8
0
  0
BLOCK
  8
0
  2
PD41
 70
0
 10
0.000
 20
0.000
  0
ENDBLK
  8
0
  0
BLOCK
  8
0
  2
PN64
 70
0
 10
0.000
 20
0.000
  0
ENDBLK
  8
0
  0
BLOCK
  8
0
  2
PI64
 70
0
 10
0.000
 20
0.000
  0
ENDBLK
  8
0
  0
BLOCK
  8
0
  2
PX64
 70
0
 10
0.000
 20
0.000
  0
ENDBLK
  8
0
  0
BLOCK
  8
0
  2
PD64
 70
0
 10
0.000
 20
0.000
  0
ENDBLK
  8
0
  0
BLOCK
  8
0
  2
PN89
 70
0
 10
0.000
 20
0.000
  0
ENDBLK
  8
0
  0
BLOCK
  8
0
  2
PI89
 70
0
 10
0.000
 20
0.000
  0
ENDBLK
  8
0
  0
BLOCK
  8
0
  2
PX89
 70
0
 10
0.000
 20
0.000
  0
ENDBLK
  8
0
  0
BLOCK
  8
0
  2
PD89
 70
0
 10
0.000
 20
0.000
  0
ENDBLK
  8
0
  0
BLOCK
  8
0
  2
0D
 70
0
 10
0.855
 20
1.045
  0
INSERT
  8
0
  2
PD89
 10
0.855
 20
1.045
  0
INSERT
  8
0
  2
PD89
 10
0.975
 20
1.045
  0
ENDBLK
  8
0
  0
BLOCK
  8
0
  2
0N
 70
0
 10
0.855
 20
1.045
  0
INSERT
  8
0
  2
PN89
 10
0.855
 20
1.045
  0
INSERT
  8
0
  2
PN89
 10
0.975
 20
1.045
  0
ENDBLK
  8
0
  0
BLOCK
  8
0
  2
0I
 70
0
 10
0.855
 20
1.045
  0
INSERT
  8
0
  2
PI89
 10
0.855
 20
1.045
  0
INSERT
  8
0
  2
PI89
 10
0.975
 20
1.045
  0
ENDBLK
  8
0
  0
BLOCK
  8
0
  2
0X
 70
0
 10
0.855
 20
1.045
  0
INSERT
  8
0
  2
PX89
 10
0.855
 20
1.045
  0
INSERT
  8
0
  2
PX89
 10
0.975
 20
1.045
  0
ENDBLK
  8
0
  0
BLOCK
  8
0
  2
0
 70
0
 10
0.855
 20
1.045
  0
INSERT
  8
COMP-MIN-OUTLINE-WIDTH-2
  2
DISC
 10
0.849
 20
1.092
 41
0.001
 42
0.001
  0
POLYLINE
  8
COMP-MIN-OUTLINE-WIDTH-2
 66
1
 70
0
 40
0.001
 41
0.001
  0
VERTEX
  8
COMP-MIN-OUTLINE-WIDTH-2
 10
0.849
 20
1.092
  0
VERTEX
  8
COMP-MIN-OUTLINE-WIDTH-2
 10
0.981
 20
1.092
  0
SEQEND
  8
COMP-MIN-OUTLINE-WIDTH-2
  0
INSERT
  8
COMP-MIN-OUTLINE-WIDTH-2
  2
DISC
 10
0.981
 20
1.092
 41
0.001
 42
0.001
  0
POLYLINE
  8
COMP-MIN-OUTLINE-WIDTH-2
 66
1
 70
0
 40
0.001
 41
0.001
  0
VERTEX
  8
COMP-MIN-OUTLINE-WIDTH-2
 10
0.981
 20
1.092
  0
VERTEX
  8
COMP-MIN-OUTLINE-WIDTH-2
 10
0.981
 20
0.998
  0
SEQEND
  8
COMP-MIN-OUTLINE-WIDTH-2
  0
INSERT
  8
COMP-MIN-OUTLINE-WIDTH-2
  2
DISC
 10
0.981
 20
0.998
 41
0.001
 42
0.001
  0
POLYLINE
  8
COMP-MIN-OUTLINE-WIDTH-2
 66
1
 70
0
 40
0.001
 41
0.001
  0
VERTEX
  8
COMP-MIN-OUTLINE-WIDTH-2
 10
0.981
 20
0.998
  0
VERTEX
  8
COMP-MIN-OUTLINE-WIDTH-2
 10
0.849
 20
0.998
  0
SEQEND
  8
COMP-MIN-OUTLINE-WIDTH-2
  0
INSERT
  8
COMP-MIN-OUTLINE-WIDTH-2
  2
DISC
 10
0.849
 20
0.998
 41
0.001
 42
0.001
  0
POLYLINE
  8
COMP-MIN-OUTLINE-WIDTH-2
 66
1
 70
0
 40
0.001
 41
0.001
  0
VERTEX
  8
COMP-MIN-OUTLINE-WIDTH-2
 10
0.849
 20
0.998
  0
VERTEX
  8
COMP-MIN-OUTLINE-WIDTH-2
 10
0.849
 20
1.092
  0
SEQEND
  8
COMP-MIN-OUTLINE-WIDTH-2
  0
INSERT
  8
COMP-MIN-OUTLINE-WIDTH-2
  2
DISC
 10
0.849
 20
1.092
 41
0.001
 42
0.001
  0
ENDBLK
  8
0
  0
BLOCK
  8
0
  2
44D
 70
0
 10
2.140
 20
2.132
  0
INSERT
  8
0
  2
PD7
 10
2.100
 20
2.407
  0
INSERT
  8
0
  2
PD7
 10
2.100
 20
2.516
  0
INSERT
  8
0
  2
PD7
 10
2.100
 20
2.625
  0
INSERT
  8
0
  2
PD7
 10
2.100
 20
2.734
  0
INSERT
  8
0
  2
PD7
 10
2.100
 20
2.843
  0
INSERT
  8
0
  2
PD7
 10
2.200
 20
2.461
  0
INSERT
  8
0
  2
PD7
 10
2.200
 20
2.570
  0
INSERT
  8
0
  2
PD7
 10
2.200
 20
2.679
  0
INSERT
  8
0
  2
PD7
 10
2.200
 20
2.788
  0
INSERT
  8
0
  2
PD36
 10
2.140
 20
3.117
  0
INSERT
  8
0
  2
PD36
 10
2.140
 20
2.132
  0
ENDBLK
  8
0
  0
BLOCK
  8
0
  2
44N
 70
0
 10
2.140
 20
2.132
  0
INSERT
  8
0
  2
PN7
 10
2.100
 20
2.407
  0
INSERT
  8
0
  2
PN7
 10
2.100
 20
2.516
  0
INSERT
  8
0
  2
PN7
 10
2.100
 20
2.625
  0
INSERT
  8
0
  2
PN7
 10
2.100
 20
2.734
  0
INSERT
  8
0
  2
PN7
 10
2.100
 20
2.843
  0
INSERT
  8
0
  2
PN7
 10
2.200
 20
2.461
  0
INSERT
  8
0
  2
PN7
 10
2.200
 20
2.570
  0
INSERT
  8
0
  2
PN7
 10
2.200
 20
2.679
  0
INSERT
  8
0
  2
PN7
 10
2.200
 20
2.788
  0
INSERT
  8
0
  2
PN36
 10
2.140
 20
3.117
  0
INSERT
  8
0
  2
PN36
 10
2.140
 20
2.132
  0
ENDBLK
  8
0
  0
BLOCK
  8
0
  2
44I
 70
0
 10
2.140
 20
2.132
  0
INSERT
  8
0
  2
PI7
 10
2.100
 20
2.407
  0
INSERT
  8
0
  2
PI7
 10
2.100
 20
2.516
  0
INSERT
  8
0
  2
PI7
 10
2.100
 20
2.625
  0
INSERT
  8
0
  2
PI7
 10
2.100
 20
2.734
  0
INSERT
  8
0
  2
PI7
 10
2.100
 20
2.843
  0
INSERT
  8
0
  2
PI7
 10
2.200
 20
2.461
  0
INSERT
  8
0
  2
PI7
 10
2.200
 20
2.570
  0
INSERT
  8
0
  2
PI7
 10
2.200
 20
2.679
  0
INSERT
  8
0
  2
PI7
 10
2.200
 20
2.788
  0
INSERT
  8
0
  2
PI36
 10
2.140
 20
3.117
  0
INSERT
  8
0
  2
PI36
 10
2.140
 20
2.132
  0
ENDBLK
  8
0
  0
BLOCK
  8
0
  2
44X
 70
0
 10
2.140
 20
2.132
  0
INSERT
  8
0
  2
PX7
 10
2.100
 20
2.407
  0
INSERT
  8
0
  2
PX7
 10
2.100
 20
2.516
  0
INSERT
  8
0
  2
PX7
 10
2.100
 20
2.625
  0
INSERT
  8
0
  2
PX7
 10
2.100
 20
2.734
  0
INSERT
  8
0
  2
PX7
 10
2.100
 20
2.843
  0
INSERT
  8
0
  2
PX7
 10
2.200
 20
2.461
  0
INSERT
  8
0
  2
PX7
 10
2.200
 20
2.570
  0
INSERT
  8
0
  2
PX7
 10
2.200
 20
2.679
  0
INSERT
  8
0
  2
PX7
 10
2.200
 20
2.788
  0
INSERT
  8
0
  2
PX36
 10
2.140
 20
3.117
  0
INSERT
  8
0
  2
PX36
 10
2.140
 20
2.132
  0
ENDBLK
  8
0
  0
BLOCK
  8
0
  2
44
 70
0
 10
2.140
 20
2.132
  0
INSERT
  8
COMP-MIN-OUTLINE-WIDTH-1
  2
DISC
 10
2.000
 20
2.279
 41
0.001
 42
0.001
  0
POLYLINE
  8
COMP-MIN-OUTLINE-WIDTH-1
 66
1
 70
0
 40
0.001
 41
0.001
  0
VERTEX
  8
COMP-MIN-OUTLINE-WIDTH-1
 10
2.000
 20
2.279
  0
VERTEX
  8
COMP-MIN-OUTLINE-WIDTH-1
 10
2.000
 20
2.017
  0
SEQEND
  8
COMP-MIN-OUTLINE-WIDTH-1
  0
INSERT
  8
COMP-MIN-OUTLINE-WIDTH-1
  2
DISC
 10
2.000
 20
2.017
 41
0.001
 42
0.001
  0
POLYLINE
  8
COMP-MIN-OUTLINE-WIDTH-1
 66
1
 70
0
 40
0.001
 41
0.001
  0
VERTEX
  8
COMP-MIN-OUTLINE-WIDTH-1
 10
2.000
 20
2.017
  0
VERTEX
  8
COMP-MIN-OUTLINE-WIDTH-1
 10
2.600
 20
2.017
  0
SEQEND
  8
COMP-MIN-OUTLINE-WIDTH-1
  0
INSERT
  8
COMP-MIN-OUTLINE-WIDTH-1
  2
DISC
 10
2.600
 20
2.017
 41
0.001
 42
0.001
  0
POLYLINE
  8
COMP-MIN-OUTLINE-WIDTH-1
 66
1
 70
0
 40
0.001
 41
0.001
  0
VERTEX
  8
COMP-MIN-OUTLINE-WIDTH-1
 10
2.600
 20
2.017
  0
VERTEX
  8
COMP-MIN-OUTLINE-WIDTH-1
 10
2.600
 20
3.233
  0
SEQEND
  8
COMP-MIN-OUTLINE-WIDTH-1
  0
INSERT
  8
COMP-MIN-OUTLINE-WIDTH-1
  2
DISC
 10
2.600
 20
3.233
 41
0.001
 42
0.001
  0
POLYLINE
  8
COMP-MIN-OUTLINE-WIDTH-1
 66
1
 70
0
 40
0.001
 41
0.001
  0
VERTEX
  8
COMP-MIN-OUTLINE-WIDTH-1
 10
2.600
 20
3.233
  0
VERTEX
  8
COMP-MIN-OUTLINE-WIDTH-1
 10
2.000
 20
3.233
  0
SEQEND
  8
COMP-MIN-OUTLINE-WIDTH-1
  0
INSERT
  8
COMP-MIN-OUTLINE-WIDTH-1
  2
DISC
 10
2.000
 20
3.233
 41
0.001
 42
0.001
  0
POLYLINE
  8
COMP-MIN-OUTLINE-WIDTH-1
 66
1
 70
0
 40
0.001
 41
0.001
  0
VERTEX
  8
COMP-MIN-OUTLINE-WIDTH-1
 10
2.000
 20
3.233
  0
VERTEX
  8
COMP-MIN-OUTLINE-WIDTH-1
 10
2.000
 20
2.971
  0
SEQEND
  8
COMP-MIN-OUTLINE-WIDTH-1
  0
INSERT
  8
COMP-MIN-OUTLINE-WIDTH-1
  2
DISC
 10
2.000
 20
2.971
 41
0.001
 42
0.001
  0
INSERT
  8
COMP-MIN-OUTLINE-WIDTH-1
  2
DISC
 10
2.000
 20
2.279
 41
0.001
 42
0.001
  0
POLYLINE
  8
COMP-MIN-OUTLINE-WIDTH-1
 66
1
 70
0
 40
0.001
 41
0.001
  0
VERTEX
  8
COMP-MIN-OUTLINE-WIDTH-1
 10
2.000
 20
2.279
  0
VERTEX
  8
COMP-MIN-OUTLINE-WIDTH-1
 10
2.401
 20
2.279
  0
SEQEND
  8
COMP-MIN-OUTLINE-WIDTH-1
  0
INSERT
  8
COMP-MIN-OUTLINE-WIDTH-1
  2
DISC
 10
2.401
 20
2.279
 41
0.001
 42
0.001
  0
POLYLINE
  8
COMP-MIN-OUTLINE-WIDTH-1
 66
1
 70
0
 40
0.001
 41
0.001
  0
VERTEX
  8
COMP-MIN-OUTLINE-WIDTH-1
 10
2.401
 20
2.279
  0
VERTEX
  8
COMP-MIN-OUTLINE-WIDTH-1
 10
2.401
 20
2.971
  0
SEQEND
  8
COMP-MIN-OUTLINE-WIDTH-1
  0
INSERT
  8
COMP-MIN-OUTLINE-WIDTH-1
  2
DISC
 10
2.401
 20
2.971
 41
0.001
 42
0.001
  0
POLYLINE
  8
COMP-MIN-OUTLINE-WIDTH-1
 66
1
 70
0
 40
0.001
 41
0.001
  0
VERTEX
  8
COMP-MIN-OUTLINE-WIDTH-1
 10
2.401
 20
2.971
  0
VERTEX
  8
COMP-MIN-OUTLINE-WIDTH-1
 10
2.001
 20
2.971
  0
SEQEND
  8
COMP-MIN-OUTLINE-WIDTH-1
  0
INSERT
  8
COMP-MIN-OUTLINE-WIDTH-1
  2
DISC
 10
2.001
 20
2.971
 41
0.001
 42
0.001
  0
INSERT
  8
COMP-MIN-OUTLINE-WIDTH-1
  2
DISC
 10
2.600
 20
2.279
 41
0.001
 42
0.001
  0
POLYLINE
  8
COMP-MIN-OUTLINE-WIDTH-1
 66
1
 70
0
 40
0.001
 41
0.001
  0
VERTEX
  8
COMP-MIN-OUTLINE-WIDTH-1
 10
2.600
 20
2.279
  0
VERTEX
  8
COMP-MIN-OUTLINE-WIDTH-1
 10
2.846
 20
2.279
  0
SEQEND
  8
COMP-MIN-OUTLINE-WIDTH-1
  0
INSERT
  8
COMP-MIN-OUTLINE-WIDTH-1
  2
DISC
 10
2.846
 20
2.279
 41
0.001
 42
0.001
  0
POLYLINE
  8
COMP-MIN-OUTLINE-WIDTH-1
 66
1
 70
0
 40
0.001
 41
0.001
  0
VERTEX
  8
COMP-MIN-OUTLINE-WIDTH-1
 10
2.846
 20
2.279
  0
VERTEX
  8
COMP-MIN-OUTLINE-WIDTH-1
 10
2.846
 20
2.971
  0
SEQEND
  8
COMP-MIN-OUTLINE-WIDTH-1
  0
INSERT
  8
COMP-MIN-OUTLINE-WIDTH-1
  2
DISC
 10
2.846
 20
2.971
 41
0.001
 42
0.001
  0
POLYLINE
  8
COMP-MIN-OUTLINE-WIDTH-1
 66
1
 70
0
 40
0.001
 41
0.001
  0
VERTEX
  8
COMP-MIN-OUTLINE-WIDTH-1
 10
2.846
 20
2.971
  0
VERTEX
  8
COMP-MIN-OUTLINE-WIDTH-1
 10
2.600
 20
2.971
  0
SEQEND
  8
COMP-MIN-OUTLINE-WIDTH-1
  0
INSERT
  8
COMP-MIN-OUTLINE-WIDTH-1
  2
DISC
 10
2.600
 20
2.971
 41
0.001
 42
0.001
  0
INSERT
  8
COMP-MIN-OUTLINE-WIDTH-2
  2
DISC
 10
2.401
 20
2.848
 41
0.001
 42
0.001
  0
POLYLINE
  8
COMP-MIN-OUTLINE-WIDTH-2
 66
1
 70
0
 40
0.001
 41
0.001
  0
VERTEX
  8
COMP-MIN-OUTLINE-WIDTH-2
 10
2.401
 20
2.848
  0
VERTEX
  8
COMP-MIN-OUTLINE-WIDTH-2
 10
2.104
 20
2.848
  0
SEQEND
  8
COMP-MIN-OUTLINE-WIDTH-2
  0
INSERT
  8
COMP-MIN-OUTLINE-WIDTH-2
  2
DISC
 10
2.104
 20
2.848
 41
0.001
 42
0.001
  0
POLYLINE
  8
COMP-MIN-OUTLINE-WIDTH-2
 66
1
 70
0
 40
0.001
 41
0.001
  0
VERTEX
  8
COMP-MIN-OUTLINE-WIDTH-2
 10
2.104
 20
2.848
  0
VERTEX
  8
COMP-MIN-OUTLINE-WIDTH-2
 10
2.104
 20
2.838
  0
SEQEND
  8
COMP-MIN-OUTLINE-WIDTH-2
  0
INSERT
  8
COMP-MIN-OUTLINE-WIDTH-2
  2
DISC
 10
2.104
 20
2.838
 41
0.001
 42
0.001
  0
POLYLINE
  8
COMP-MIN-OUTLINE-WIDTH-2
 66
1
 70
0
 40
0.001
 41
0.001
  0
VERTEX
  8
COMP-MIN-OUTLINE-WIDTH-2
 10
2.104
 20
2.838
  0
VERTEX
  8
COMP-MIN-OUTLINE-WIDTH-2
 10
2.401
 20
2.838
  0
SEQEND
  8
COMP-MIN-OUTLINE-WIDTH-2
  0
INSERT
  8
COMP-MIN-OUTLINE-WIDTH-2
  2
DISC
 10
2.401
 20
2.838
 41
0.001
 42
0.001
  0
INSERT
  8
COMP-MIN-OUTLINE-WIDTH-2
  2
DISC
 10
2.401
 20
2.793
 41
0.001
 42
0.001
  0
POLYLINE
  8
COMP-MIN-OUTLINE-WIDTH-2
 66
1
 70
0
 40
0.001
 41
0.001
  0
VERTEX
  8
COMP-MIN-OUTLINE-WIDTH-2
 10
2.401
 20
2.793
  0
VERTEX
  8
COMP-MIN-OUTLINE-WIDTH-2
 10
2.204
 20
2.793
  0
SEQEND
  8
COMP-MIN-OUTLINE-WIDTH-2
  0
INSERT
  8
COMP-MIN-OUTLINE-WIDTH-2
  2
DISC
 10
2.204
 20
2.793
 41
0.001
 42
0.001
  0
POLYLINE
  8
COMP-MIN-OUTLINE-WIDTH-2
 66
1
 70
0
 40
0.001
 41
0.001
  0
VERTEX
  8
COMP-MIN-OUTLINE-WIDTH-2
 10
2.204
 20
2.793
  0
VERTEX
  8
COMP-MIN-OUTLINE-WIDTH-2
 10
2.204
 20
2.783
  0
SEQEND
  8
COMP-MIN-OUTLINE-WIDTH-2
  0
INSERT
  8
COMP-MIN-OUTLINE-WIDTH-2
  2
DISC
 10
2.204
 20
2.783
 41
0.001
 42
0.001
  0
POLYLINE
  8
COMP-MIN-OUTLINE-WIDTH-2
 66
1
 70
0
 40
0.001
 41
0.001
  0
VERTEX
  8
COMP-MIN-OUTLINE-WIDTH-2
 10
2.204
 20
2.783
  0
VERTEX
  8
COMP-MIN-OUTLINE-WIDTH-2
 10
2.401
 20
2.783
  0
SEQEND
  8
COMP-MIN-OUTLINE-WIDTH-2
  0
INSERT
  8
COMP-MIN-OUTLINE-WIDTH-2
  2
DISC
 10
2.401
 20
2.783
 41
0.001
 42
0.001
  0
INSERT
  8
COMP-MIN-OUTLINE-WIDTH-2
  2
DISC
 10
2.401
 20
2.739
 41
0.001
 42
0.001
  0
POLYLINE
  8
COMP-MIN-OUTLINE-WIDTH-2
 66
1
 70
0
 40
0.001
 41
0.001
  0
VERTEX
  8
COMP-MIN-OUTLINE-WIDTH-2
 10
2.401
 20
2.739
  0
VERTEX
  8
COMP-MIN-OUTLINE-WIDTH-2
 10
2.104
 20
2.739
  0
SEQEND
  8
COMP-MIN-OUTLINE-WIDTH-2
  0
INSERT
  8
COMP-MIN-OUTLINE-WIDTH-2
  2
DISC
 10
2.104
 20
2.739
 41
0.001
 42
0.001
  0
POLYLINE
  8
COMP-MIN-OUTLINE-WIDTH-2
 66
1
 70
0
 40
0.001
 41
0.001
  0
VERTEX
  8
COMP-MIN-OUTLINE-WIDTH-2
 10
2.104
 20
2.739
  0
VERTEX
  8
COMP-MIN-OUTLINE-WIDTH-2
 10
2.104
 20
2.729
  0
SEQEND
  8
COMP-MIN-OUTLINE-WIDTH-2
  0
INSERT
  8
COMP-MIN-OUTLINE-WIDTH-2
  2
DISC
 10
2.104
 20
2.729
 41
0.001
 42
0.001
  0
POLYLINE
  8
COMP-MIN-OUTLINE-WIDTH-2
 66
1
 70
0
 40
0.001
 41
0.001
  0
VERTEX
  8
COMP-MIN-OUTLINE-WIDTH-2
 10
2.104
 20
2.729
  0
VERTEX
  8
COMP-MIN-OUTLINE-WIDTH-2
 10
2.401
 20
2.729
  0
SEQEND
  8
COMP-MIN-OUTLINE-WIDTH-2
  0
INSERT
  8
COMP-MIN-OUTLINE-WIDTH-2
  2
DISC
 10
2.401
 20
2.729
 41
0.001
 42
0.001
  0
INSERT
  8
COMP-MIN-OUTLINE-WIDTH-2
  2
DISC
 10
2.401
 20
2.684
 41
0.001
 42
0.001
  0
POLYLINE
  8
COMP-MIN-OUTLINE-WIDTH-2
 66
1
 70
0
 40
0.001
 41
0.001
  0
VERTEX
  8
COMP-MIN-OUTLINE-WIDTH-2
 10
2.401
 20
2.684
  0
VERTEX
  8
COMP-MIN-OUTLINE-WIDTH-2
 10
2.204
 20
2.684
  0
SEQEND
  8
COMP-MIN-OUTLINE-WIDTH-2
  0
INSERT
  8
COMP-MIN-OUTLINE-WIDTH-2
  2
DISC
 10
2.204
 20
2.684
 41
0.001
 42
0.001
  0
POLYLINE
  8
COMP-MIN-OUTLINE-WIDTH-2
 66
1
 70
0
 40
0.001
 41
0.001
  0
VERTEX
  8
COMP-MIN-OUTLINE-WIDTH-2
 10
2.204
 20
2.684
  0
VERTEX
  8
COMP-MIN-OUTLINE-WIDTH-2
 10
2.204
 20
2.674
  0
SEQEND
  8
COMP-MIN-OUTLINE-WIDTH-2
  0
INSERT
  8
COMP-MIN-OUTLINE-WIDTH-2
  2
DISC
 10
2.204
 20
2.674
 41
0.001
 42
0.001
  0
POLYLINE
  8
COMP-MIN-OUTLINE-WIDTH-2
 66
1
 70
0
 40
0.001
 41
0.001
  0
VERTEX
  8
COMP-MIN-OUTLINE-WIDTH-2
 10
2.204
 20
2.674
  0
VERTEX
  8
COMP-MIN-OUTLINE-WIDTH-2
 10
2.401
 20
2.674
  0
SEQEND
  8
COMP-MIN-OUTLINE-WIDTH-2
  0
INSERT
  8
COMP-MIN-OUTLINE-WIDTH-2
  2
DISC
 10
2.401
 20
2.674
 41
0.001
 42
0.001
  0
INSERT
  8
COMP-MIN-OUTLINE-WIDTH-2
  2
DISC
 10
2.401
 20
2.630
 41
0.001
 42
0.001
  0
POLYLINE
  8
COMP-MIN-OUTLINE-WIDTH-2
 66
1
 70
0
 40
0.001
 41
0.001
  0
VERTEX
  8
COMP-MIN-OUTLINE-WIDTH-2
 10
2.401
 20
2.630
  0
VERTEX
  8
COMP-MIN-OUTLINE-WIDTH-2
 10
2.104
 20
2.630
  0
SEQEND
  8
COMP-MIN-OUTLINE-WIDTH-2
  0
INSERT
  8
COMP-MIN-OUTLINE-WIDTH-2
  2
DISC
 10
2.104
 20
2.630
 41
0.001
 42
0.001
  0
POLYLINE
  8
COMP-MIN-OUTLINE-WIDTH-2
 66
1
 70
0
 40
0.001
 41
0.001
  0
VERTEX
  8
COMP-MIN-OUTLINE-WIDTH-2
 10
2.104
 20
2.630
  0
VERTEX
  8
COMP-MIN-OUTLINE-WIDTH-2
 10
2.104
 20
2.620
  0
SEQEND
  8
COMP-MIN-OUTLINE-WIDTH-2
  0
INSERT
  8
COMP-MIN-OUTLINE-WIDTH-2
  2
DISC
 10
2.104
 20
2.620
 41
0.001
 42
0.001
  0
POLYLINE
  8
COMP-MIN-OUTLINE-WIDTH-2
 66
1
 70
0
 40
0.001
 41
0.001
  0
VERTEX
  8
COMP-MIN-OUTLINE-WIDTH-2
 10
2.104
 20
2.620
  0
VERTEX
  8
COMP-MIN-OUTLINE-WIDTH-2
 10
2.401
 20
2.620
  0
SEQEND
  8
COMP-MIN-OUTLINE-WIDTH-2
  0
INSERT
  8
COMP-MIN-OUTLINE-WIDTH-2
  2
DISC
 10
2.401
 20
2.620
 41
0.001
 42
0.001
  0
INSERT
  8
COMP-MIN-OUTLINE-WIDTH-2
  2
DISC
 10
2.401
 20
2.575
 41
0.001
 42
0.001
  0
POLYLINE
  8
COMP-MIN-OUTLINE-WIDTH-2
 66
1
 70
0
 40
0.001
 41
0.001
  0
VERTEX
  8
COMP-MIN-OUTLINE-WIDTH-2
 10
2.401
 20
2.575
  0
VERTEX
  8
COMP-MIN-OUTLINE-WIDTH-2
 10
2.204
 20
2.575
  0
SEQEND
  8
COMP-MIN-OUTLINE-WIDTH-2
  0
INSERT
  8
COMP-MIN-OUTLINE-WIDTH-2
  2
DISC
 10
2.204
 20
2.575
 41
0.001
 42
0.001
  0
POLYLINE
  8
COMP-MIN-OUTLINE-WIDTH-2
 66
1
 70
0
 40
0.001
 41
0.001
  0
VERTEX
  8
COMP-MIN-OUTLINE-WIDTH-2
 10
2.204
 20
2.575
  0
VERTEX
  8
COMP-MIN-OUTLINE-WIDTH-2
 10
2.204
 20
2.565
  0
SEQEND
  8
COMP-MIN-OUTLINE-WIDTH-2
  0
INSERT
  8
COMP-MIN-OUTLINE-WIDTH-2
  2
DISC
 10
2.204
 20
2.565
 41
0.001
 42
0.001
  0
POLYLINE
  8
COMP-MIN-OUTLINE-WIDTH-2
 66
1
 70
0
 40
0.001
 41
0.001
  0
VERTEX
  8
COMP-MIN-OUTLINE-WIDTH-2
 10
2.204
 20
2.565
  0
VERTEX
  8
COMP-MIN-OUTLINE-WIDTH-2
 10
2.401
 20
2.565
  0
SEQEND
  8
COMP-MIN-OUTLINE-WIDTH-2
  0
INSERT
  8
COMP-MIN-OUTLINE-WIDTH-2
  2
DISC
 10
2.401
 20
2.565
 41
0.001
 42
0.001
  0
INSERT
  8
COMP-MIN-OUTLINE-WIDTH-2
  2
DISC
 10
2.401
 20
2.520
 41
0.001
 42
0.001
  0
POLYLINE
  8
COMP-MIN-OUTLINE-WIDTH-2
 66
1
 70
0
 40
0.001
 41
0.001
  0
VERTEX
  8
COMP-MIN-OUTLINE-WIDTH-2
 10
2.401
 20
2.520
  0
VERTEX
  8
COMP-MIN-OUTLINE-WIDTH-2
 10
2.104
 20
2.520
  0
SEQEND
  8
COMP-MIN-OUTLINE-WIDTH-2
  0
INSERT
  8
COMP-MIN-OUTLINE-WIDTH-2
  2
DISC
 10
2.104
 20
2.520
 41
0.001
 42
0.001
  0
POLYLINE
  8
COMP-MIN-OUTLINE-WIDTH-2
 66
1
 70
0
 40
0.001
 41
0.001
  0
VERTEX
  8
COMP-MIN-OUTLINE-WIDTH-2
 10
2.104
 20
2.520
  0
VERTEX
  8
COMP-MIN-OUTLINE-WIDTH-2
 10
2.104
 20
2.510
  0
SEQEND
  8
COMP-MIN-OUTLINE-WIDTH-2
  0
INSERT
  8
COMP-MIN-OUTLINE-WIDTH-2
  2
DISC
 10
2.104
 20
2.510
 41
0.001
 42
0.001
  0
POLYLINE
  8
COMP-MIN-OUTLINE-WIDTH-2
 66
1
 70
0
 40
0.001
 41
0.001
  0
VERTEX
  8
COMP-MIN-OUTLINE-WIDTH-2
 10
2.104
 20
2.510
  0
VERTEX
  8
COMP-MIN-OUTLINE-WIDTH-2
 10
2.401
 20
2.510
  0
SEQEND
  8
COMP-MIN-OUTLINE-WIDTH-2
  0
INSERT
  8
COMP-MIN-OUTLINE-WIDTH-2
  2
DISC
 10
2.401
 20
2.510
 41
0.001
 42
0.001
  0
INSERT
  8
COMP-MIN-OUTLINE-WIDTH-2
  2
DISC
 10
2.401
 20
2.466
 41
0.001
 42
0.001
  0
POLYLINE
  8
COMP-MIN-OUTLINE-WIDTH-2
 66
1
 70
0
 40
0.001
 41
0.001
  0
VERTEX
  8
COMP-MIN-OUTLINE-WIDTH-2
 10
2.401
 20
2.466
  0
VERTEX
  8
COMP-MIN-OUTLINE-WIDTH-2
 10
2.204
 20
2.466
  0
SEQEND
  8
COMP-MIN-OUTLINE-WIDTH-2
  0
INSERT
  8
COMP-MIN-OUTLINE-WIDTH-2
  2
DISC
 10
2.204
 20
2.466
 41
0.001
 42
0.001
  0
POLYLINE
  8
COMP-MIN-OUTLINE-WIDTH-2
 66
1
 70
0
 40
0.001
 41
0.001
  0
VERTEX
  8
COMP-MIN-OUTLINE-WIDTH-2
 10
2.204
 20
2.466
  0
VERTEX
  8
COMP-MIN-OUTLINE-WIDTH-2
 10
2.204
 20
2.456
  0
SEQEND
  8
COMP-MIN-OUTLINE-WIDTH-2
  0
INSERT
  8
COMP-MIN-OUTLINE-WIDTH-2
  2
DISC
 10
2.204
 20
2.456
 41
0.001
 42
0.001
  0
POLYLINE
  8
COMP-MIN-OUTLINE-WIDTH-2
 66
1
 70
0
 40
0.001
 41
0.001
  0
VERTEX
  8
COMP-MIN-OUTLINE-WIDTH-2
 10
2.204
 20
2.456
  0
VERTEX
  8
COMP-MIN-OUTLINE-WIDTH-2
 10
2.401
 20
2.456
  0
SEQEND
  8
COMP-MIN-OUTLINE-WIDTH-2
  0
INSERT
  8
COMP-MIN-OUTLINE-WIDTH-2
  2
DISC
 10
2.401
 20
2.456
 41
0.001
 42
0.001
  0
INSERT
  8
COMP-MIN-OUTLINE-WIDTH-2
  2
DISC
 10
2.401
 20
2.412
 41
0.001
 42
0.001
  0
POLYLINE
  8
COMP-MIN-OUTLINE-WIDTH-2
 66
1
 70
0
 40
0.001
 41
0.001
  0
VERTEX
  8
COMP-MIN-OUTLINE-WIDTH-2
 10
2.401
 20
2.412
  0
VERTEX
  8
COMP-MIN-OUTLINE-WIDTH-2
 10
2.104
 20
2.412
  0
SEQEND
  8
COMP-MIN-OUTLINE-WIDTH-2
  0
INSERT
  8
COMP-MIN-OUTLINE-WIDTH-2
  2
DISC
 10
2.104
 20
2.412
 41
0.001
 42
0.001
  0
POLYLINE
  8
COMP-MIN-OUTLINE-WIDTH-2
 66
1
 70
0
 40
0.001
 41
0.001
  0
VERTEX
  8
COMP-MIN-OUTLINE-WIDTH-2
 10
2.104
 20
2.412
  0
VERTEX
  8
COMP-MIN-OUTLINE-WIDTH-2
 10
2.104
 20
2.402
  0
SEQEND
  8
COMP-MIN-OUTLINE-WIDTH-2
  0
INSERT
  8
COMP-MIN-OUTLINE-WIDTH-2
  2
DISC
 10
2.104
 20
2.402
 41
0.001
 42
0.001
  0
POLYLINE
  8
COMP-MIN-OUTLINE-WIDTH-2
 66
1
 70
0
 40
0.001
 41
0.001
  0
VERTEX
  8
COMP-MIN-OUTLINE-WIDTH-2
 10
2.104
 20
2.402
  0
VERTEX
  8
COMP-MIN-OUTLINE-WIDTH-2
 10
2.401
 20
2.402
  0
SEQEND
  8
COMP-MIN-OUTLINE-WIDTH-2
  0
INSERT
  8
COMP-MIN-OUTLINE-WIDTH-2
  2
DISC
 10
2.401
 20
2.402
 41
0.001
 42
0.001
  0
TEXT
  8
COMP-MIN-TEXT-WIDTH-1
 10
2.495
 20
2.385
 40
0.075
  1
1
 50
90.000
  0
TEXT
  8
COMP-MIN-TEXT-WIDTH-1
 10
2.595
 20
2.770
 40
0.075
  1
9.
 50
90.000
  0
TEXT
  8
COMP-MIN-TEXT-WIDTH-1
 10
2.495
 20
2.820
 40
0.075
  1
5
 50
90.000
  0
TEXT
  8
COMP-MIN-TEXT-WIDTH-1
 10
2.595
 20
2.445
 40
0.075
  1
6.
 50
90.000
  0
ENDBLK
  8
COMP-MIN-TEXT-WIDTH-1
  0
BLOCK
  8
0
  2
241D
 70
0
 10
2.125
 20
2.050
  0
INSERT
  8
0
  2
PD6
 10
2.125
 20
2.050
  0
INSERT
  8
0
  2
PD6
 10
2.175
 20
2.150
  0
INSERT
  8
0
  2
PD6
 10
2.225
 20
2.050
  0
INSERT
  8
0
  2
PD6
 10
2.275
 20
2.150
  0
INSERT
  8
0
  2
PD6
 10
2.325
 20
2.050
  0
INSERT
  8
0
  2
PD6
 10
2.375
 20
2.150
  0
INSERT
  8
0
  2
PD6
 10
2.425
 20
2.050
  0
INSERT
  8
0
  2
PD6
 10
2.475
 20
2.150
  0
INSERT
  8
0
  2
PD6
 10
2.525
 20
2.050
  0
INSERT
  8
0
  2
PD6
 10
2.575
 20
2.150
  0
INSERT
  8
0
  2
PD38
 10
2.075
 20
2.125
  0
ENDBLK
  8
0
  0
BLOCK
  8
0
  2
241N
 70
0
 10
2.125
 20
2.050
  0
INSERT
  8
0
  2
PN6
 10
2.125
 20
2.050
  0
INSERT
  8
0
  2
PN6
 10
2.175
 20
2.150
  0
INSERT
  8
0
  2
PN6
 10
2.225
 20
2.050
  0
INSERT
  8
0
  2
PN6
 10
2.275
 20
2.150
  0
INSERT
  8
0
  2
PN6
 10
2.325
 20
2.050
  0
INSERT
  8
0
  2
PN6
 10
2.375
 20
2.150
  0
INSERT
  8
0
  2
PN6
 10
2.425
 20
2.050
  0
INSERT
  8
0
  2
PN6
 10
2.475
 20
2.150
  0
INSERT
  8
0
  2
PN6
 10
2.525
 20
2.050
  0
INSERT
  8
0
  2
PN6
 10
2.575
 20
2.150
  0
INSERT
  8
0
  2
PN38
 10
2.075
 20
2.125
  0
ENDBLK
  8
0
  0
BLOCK
  8
0
  2
241I
 70
0
 10
2.125
 20
2.050
  0
INSERT
  8
0
  2
PI6
 10
2.125
 20
2.050
  0
INSERT
  8
0
  2
PI6
 10
2.175
 20
2.150
  0
INSERT
  8
0
  2
PI6
 10
2.225
 20
2.050
  0
INSERT
  8
0
  2
PI6
 10
2.275
 20
2.150
  0
INSERT
  8
0
  2
PI6
 10
2.325
 20
2.050
  0
INSERT
  8
0
  2
PI6
 10
2.375
 20
2.150
  0
INSERT
  8
0
  2
PI6
 10
2.425
 20
2.050
  0
INSERT
  8
0
  2
PI6
 10
2.475
 20
2.150
  0
INSERT
  8
0
  2
PI6
 10
2.525
 20
2.050
  0
INSERT
  8
0
  2
PI6
 10
2.575
 20
2.150
  0
INSERT
  8
0
  2
PI38
 10
2.075
 20
2.125
  0
ENDBLK
  8
0
  0
BLOCK
  8
0
  2
241X
 70
0
 10
2.125
 20
2.050
  0
INSERT
  8
0
  2
PX6
 10
2.125
 20
2.050
  0
INSERT
  8
0
  2
PX6
 10
2.175
 20
2.150
  0
INSERT
  8
0
  2
PX6
 10
2.225
 20
2.050
  0
INSERT
  8
0
  2
PX6
 10
2.275
 20
2.150
  0
INSERT
  8
0
  2
PX6
 10
2.325
 20
2.050
  0
INSERT
  8
0
  2
PX6
 10
2.375
 20
2.150
  0
INSERT
  8
0
  2
PX6
 10
2.425
 20
2.050
  0
INSERT
  8
0
  2
PX6
 10
2.475
 20
2.150
  0
INSERT
  8
0
  2
PX6
 10
2.525
 20
2.050
  0
INSERT
  8
0
  2
PX6
 10
2.575
 20
2.150
  0
INSERT
  8
0
  2
PX38
 10
2.075
 20
2.125
  0
ENDBLK
  8
0
  0
BLOCK
  8
0
  2
241
 70
0
 10
2.125
 20
2.050
  0
INSERT
  8
COMP-MIN-OUTLINE-WIDTH-1
  2
DISC
 10
2.000
 20
2.000
 41
0.001
 42
0.001
  0
POLYLINE
  8
COMP-MIN-OUTLINE-WIDTH-1
 66
1
 70
0
 40
0.001
 41
0.001
  0
VERTEX
  8
COMP-MIN-OUTLINE-WIDTH-1
 10
2.000
 20
2.000
  0
VERTEX
  8
COMP-MIN-OUTLINE-WIDTH-1
 10
2.650
 20
2.000
  0
SEQEND
  8
COMP-MIN-OUTLINE-WIDTH-1
  0
INSERT
  8
COMP-MIN-OUTLINE-WIDTH-1
  2
DISC
 10
2.650
 20
2.000
 41
0.001
 42
0.001
  0
POLYLINE
  8
COMP-MIN-OUTLINE-WIDTH-1
 66
1
 70
0
 40
0.001
 41
0.001
  0
VERTEX
  8
COMP-MIN-OUTLINE-WIDTH-1
 10
2.650
 20
2.000
  0
VERTEX
  8
COMP-MIN-OUTLINE-WIDTH-1
 10
2.650
 20
2.200
  0
SEQEND
  8
COMP-MIN-OUTLINE-WIDTH-1
  0
INSERT
  8
COMP-MIN-OUTLINE-WIDTH-1
  2
DISC
 10
2.650
 20
2.200
 41
0.001
 42
0.001
  0
POLYLINE
  8
COMP-MIN-OUTLINE-WIDTH-1
 66
1
 70
0
 40
0.001
 41
0.001
  0
VERTEX
  8
COMP-MIN-OUTLINE-WIDTH-1
 10
2.650
 20
2.200
  0
VERTEX
  8
COMP-MIN-OUTLINE-WIDTH-1
 10
2.000
 20
2.200
  0
SEQEND
  8
COMP-MIN-OUTLINE-WIDTH-1
  0
INSERT
  8
COMP-MIN-OUTLINE-WIDTH-1
  2
DISC
 10
2.000
 20
2.200
 41
0.001
 42
0.001
  0
POLYLINE
  8
COMP-MIN-OUTLINE-WIDTH-1
 66
1
 70
0
 40
0.001
 41
0.001
  0
VERTEX
  8
COMP-MIN-OUTLINE-WIDTH-1
 10
2.000
 20
2.200
  0
VERTEX
  8
COMP-MIN-OUTLINE-WIDTH-1
 10
2.000
 20
2.000
  0
SEQEND
  8
COMP-MIN-OUTLINE-WIDTH-1
  0
INSERT
  8
COMP-MIN-OUTLINE-WIDTH-1
  2
DISC
 10
2.000
 20
2.000
 41
0.001
 42
0.001
  0
INSERT
  8
COMP-MIN-OUTLINE-WIDTH-1
  2
DISC
 10
2.000
 20
2.000
 41
0.001
 42
0.001
  0
POLYLINE
  8
COMP-MIN-OUTLINE-WIDTH-1
 66
1
 70
0
 40
0.001
 41
0.001
  0
VERTEX
  8
COMP-MIN-OUTLINE-WIDTH-1
 10
2.000
 20
2.000
  0
VERTEX
  8
COMP-MIN-OUTLINE-WIDTH-1
 10
2.650
 20
2.000
  0
SEQEND
  8
COMP-MIN-OUTLINE-WIDTH-1
  0
INSERT
  8
COMP-MIN-OUTLINE-WIDTH-1
  2
DISC
 10
2.650
 20
2.000
 41
0.001
 42
0.001
  0
POLYLINE
  8
COMP-MIN-OUTLINE-WIDTH-1
 66
1
 70
0
 40
0.001
 41
0.001
  0
VERTEX
  8
COMP-MIN-OUTLINE-WIDTH-1
 10
2.650
 20
2.000
  0
VERTEX
  8
COMP-MIN-OUTLINE-WIDTH-1
 10
2.650
 20
2.200
  0
SEQEND
  8
COMP-MIN-OUTLINE-WIDTH-1
  0
INSERT
  8
COMP-MIN-OUTLINE-WIDTH-1
  2
DISC
 10
2.650
 20
2.200
 41
0.001
 42
0.001
  0
POLYLINE
  8
COMP-MIN-OUTLINE-WIDTH-1
 66
1
 70
0
 40
0.001
 41
0.001
  0
VERTEX
  8
COMP-MIN-OUTLINE-WIDTH-1
 10
2.650
 20
2.200
  0
VERTEX
  8
COMP-MIN-OUTLINE-WIDTH-1
 10
2.000
 20
2.200
  0
SEQEND
  8
COMP-MIN-OUTLINE-WIDTH-1
  0
INSERT
  8
COMP-MIN-OUTLINE-WIDTH-1
  2
DISC
 10
2.000
 20
2.200
 41
0.001
 42
0.001
  0
POLYLINE
  8
COMP-MIN-OUTLINE-WIDTH-1
 66
1
 70
0
 40
0.001
 41
0.001
  0
VERTEX
  8
COMP-MIN-OUTLINE-WIDTH-1
 10
2.000
 20
2.200
  0
VERTEX
  8
COMP-MIN-OUTLINE-WIDTH-1
 10
2.000
 20
2.000
  0
SEQEND
  8
COMP-MIN-OUTLINE-WIDTH-1
  0
INSERT
  8
COMP-MIN-OUTLINE-WIDTH-1
  2
DISC
 10
2.000
 20
2.000
 41
0.001
 42
0.001
  0
INSERT
  8
COMP-MIN-OUTLINE-WIDTH-2
  2
DISC
 10
2.045
 20
2.050
 41
0.001
 42
0.001
  0
POLYLINE
  8
COMP-MIN-OUTLINE-WIDTH-2
 66
1
 70
0
 40
0.001
 41
0.001
  0
VERTEX
  8
COMP-MIN-OUTLINE-WIDTH-2
 10
2.045
 20
2.050
  0
VERTEX
  8
COMP-MIN-OUTLINE-WIDTH-2
 10
2.045
 20
2.025
  0
SEQEND
  8
COMP-MIN-OUTLINE-WIDTH-2
  0
INSERT
  8
COMP-MIN-OUTLINE-WIDTH-2
  2
DISC
 10
2.045
 20
2.025
 41
0.001
 42
0.001
  0
POLYLINE
  8
COMP-MIN-OUTLINE-WIDTH-2
 66
1
 70
0
 40
0.001
 41
0.001
  0
VERTEX
  8
COMP-MIN-OUTLINE-WIDTH-2
 10
2.045
 20
2.025
  0
VERTEX
  8
COMP-MIN-OUTLINE-WIDTH-2
 10
2.070
 20
2.025
  0
SEQEND
  8
COMP-MIN-OUTLINE-WIDTH-2
  0
INSERT
  8
COMP-MIN-OUTLINE-WIDTH-2
  2
DISC
 10
2.070
 20
2.025
 41
0.001
 42
0.001
  0
POLYLINE
  8
COMP-MIN-OUTLINE-WIDTH-2
 66
1
 70
0
 40
0.001
 41
0.001
  0
VERTEX
  8
COMP-MIN-OUTLINE-WIDTH-2
 10
2.070
 20
2.025
  0
VERTEX
  8
COMP-MIN-OUTLINE-WIDTH-2
 10
2.070
 20
2.050
  0
SEQEND
  8
COMP-MIN-OUTLINE-WIDTH-2
  0
INSERT
  8
COMP-MIN-OUTLINE-WIDTH-2
  2
DISC
 10
2.070
 20
2.050
 41
0.001
 42
0.001
  0
POLYLINE
  8
COMP-MIN-OUTLINE-WIDTH-2
 66
1
 70
0
 40
0.001
 41
0.001
  0
VERTEX
  8
COMP-MIN-OUTLINE-WIDTH-2
 10
2.070
 20
2.050
  0
VERTEX
  8
COMP-MIN-OUTLINE-WIDTH-2
 10
2.045
 20
2.050
  0
SEQEND
  8
COMP-MIN-OUTLINE-WIDTH-2
  0
INSERT
  8
COMP-MIN-OUTLINE-WIDTH-2
  2
DISC
 10
2.045
 20
2.050
 41
0.001
 42
0.001
  0
ENDBLK
  8
0
  0
BLOCK
  8
0
  2
641D
 70
0
 10
8.888
 20
9.145
  0
INSERT
  8
0
  2
PD6
 10
9.598
 20
9.191
  0
INSERT
  8
0
  2
PD6
 10
9.489
 20
9.191
  0
INSERT
  8
0
  2
PD6
 10
9.380
 20
9.191
  0
INSERT
  8
0
  2
PD6
 10
9.271
 20
9.191
  0
INSERT
  8
0
  2
PD6
 10
9.162
 20
9.191
  0
INSERT
  8
0
  2
PD6
 10
9.543
 20
9.091
  0
INSERT
  8
0
  2
PD6
 10
9.434
 20
9.091
  0
INSERT
  8
0
  2
PD6
 10
9.326
 20
9.091
  0
INSERT
  8
0
  2
PD6
 10
9.217
 20
9.091
  0
INSERT
  8
0
  2
PD64
 10
8.888
 20
9.145
  0
INSERT
  8
0
  2
PD64
 10
9.875
 20
9.146
  0
ENDBLK
  8
0
  0
BLOCK
  8
0
  2
641N
 70
0
 10
8.888
 20
9.145
  0
INSERT
  8
0
  2
PN6
 10
9.598
 20
9.191
  0
INSERT
  8
0
  2
PN6
 10
9.489
 20
9.191
  0
INSERT
  8
0
  2
PN6
 10
9.380
 20
9.191
  0
INSERT
  8
0
  2
PN6
 10
9.271
 20
9.191
  0
INSERT
  8
0
  2
PN6
 10
9.162
 20
9.191
  0
INSERT
  8
0
  2
PN6
 10
9.543
 20
9.091
  0
INSERT
  8
0
  2
PN6
 10
9.434
 20
9.091
  0
INSERT
  8
0
  2
PN6
 10
9.326
 20
9.091
  0
INSERT
  8
0
  2
PN6
 10
9.217
 20
9.091
  0
INSERT
  8
0
  2
PN64
 10
8.888
 20
9.145
  0
INSERT
  8
0
  2
PN64
 10
9.875
 20
9.146
  0
ENDBLK
  8
0
  0
BLOCK
  8
0
  2
641I
 70
0
 10
8.888
 20
9.145
  0
INSERT
  8
0
  2
PI6
 10
9.598
 20
9.191
  0
INSERT
  8
0
  2
PI6
 10
9.489
 20
9.191
  0
INSERT
  8
0
  2
PI6
 10
9.380
 20
9.191
  0
INSERT
  8
0
  2
PI6
 10
9.271
 20
9.191
  0
INSERT
  8
0
  2
PI6
 10
9.162
 20
9.191
  0
INSERT
  8
0
  2
PI6
 10
9.543
 20
9.091
  0
INSERT
  8
0
  2
PI6
 10
9.434
 20
9.091
  0
INSERT
  8
0
  2
PI6
 10
9.326
 20
9.091
  0
INSERT
  8
0
  2
PI6
 10
9.217
 20
9.091
  0
INSERT
  8
0
  2
PI64
 10
8.888
 20
9.145
  0
INSERT
  8
0
  2
PI64
 10
9.875
 20
9.146
  0
ENDBLK
  8
0
  0
BLOCK
  8
0
  2
641X
 70
0
 10
8.888
 20
9.145
  0
INSERT
  8
0
  2
PX6
 10
9.598
 20
9.191
  0
INSERT
  8
0
  2
PX6
 10
9.489
 20
9.191
  0
INSERT
  8
0
  2
PX6
 10
9.380
 20
9.191
  0
INSERT
  8
0
  2
PX6
 10
9.271
 20
9.191
  0
INSERT
  8
0
  2
PX6
 10
9.162
 20
9.191
  0
INSERT
  8
0
  2
PX6
 10
9.543
 20
9.091
  0
INSERT
  8
0
  2
PX6
 10
9.434
 20
9.091
  0
INSERT
  8
0
  2
PX6
 10
9.326
 20
9.091
  0
INSERT
  8
0
  2
PX6
 10
9.217
 20
9.091
  0
INSERT
  8
0
  2
PX64
 10
8.888
 20
9.145
  0
INSERT
  8
0
  2
PX64
 10
9.875
 20
9.146
  0
ENDBLK
  8
0
  0
BLOCK
  8
0
  2
641
 70
0
 10
8.888
 20
9.145
  0
INSERT
  8
COMP-MIN-OUTLINE-WIDTH-1
  2
DISC
 10
8.771
 20
9.300
 41
0.001
 42
0.001
  0
POLYLINE
  8
COMP-MIN-OUTLINE-WIDTH-1
 66
1
 70
0
 40
0.001
 41
0.001
  0
VERTEX
  8
COMP-MIN-OUTLINE-WIDTH-1
 10
8.771
 20
9.300
  0
VERTEX
  8
COMP-MIN-OUTLINE-WIDTH-1
 10
9.033
 20
9.300
  0
SEQEND
  8
COMP-MIN-OUTLINE-WIDTH-1
  0
INSERT
  8
COMP-MIN-OUTLINE-WIDTH-1
  2
DISC
 10
9.033
 20
9.300
 41
0.001
 42
0.001
  0
POLYLINE
  8
COMP-MIN-OUTLINE-WIDTH-1
 66
1
 70
0
 40
0.001
 41
0.001
  0
VERTEX
  8
COMP-MIN-OUTLINE-WIDTH-1
 10
9.033
 20
9.300
  0
VERTEX
  8
COMP-MIN-OUTLINE-WIDTH-1
 10
9.033
 20
8.896
  0
SEQEND
  8
COMP-MIN-OUTLINE-WIDTH-1
  0
INSERT
  8
COMP-MIN-OUTLINE-WIDTH-1
  2
DISC
 10
9.033
 20
8.896
 41
0.001
 42
0.001
  0
POLYLINE
  8
COMP-MIN-OUTLINE-WIDTH-1
 66
1
 70
0
 40
0.001
 41
0.001
  0
VERTEX
  8
COMP-MIN-OUTLINE-WIDTH-1
 10
9.033
 20
8.896
  0
VERTEX
  8
COMP-MIN-OUTLINE-WIDTH-1
 10
9.727
 20
8.896
  0
SEQEND
  8
COMP-MIN-OUTLINE-WIDTH-1
  0
INSERT
  8
COMP-MIN-OUTLINE-WIDTH-1
  2
DISC
 10
9.727
 20
8.896
 41
0.001
 42
0.001
  0
POLYLINE
  8
COMP-MIN-OUTLINE-WIDTH-1
 66
1
 70
0
 40
0.001
 41
0.001
  0
VERTEX
  8
COMP-MIN-OUTLINE-WIDTH-1
 10
9.727
 20
8.896
  0
VERTEX
  8
COMP-MIN-OUTLINE-WIDTH-1
 10
9.727
 20
9.300
  0
SEQEND
  8
COMP-MIN-OUTLINE-WIDTH-1
  0
INSERT
  8
COMP-MIN-OUTLINE-WIDTH-1
  2
DISC
 10
9.727
 20
9.300
 41
0.001
 42
0.001
  0
POLYLINE
  8
COMP-MIN-OUTLINE-WIDTH-1
 66
1
 70
0
 40
0.001
 41
0.001
  0
VERTEX
  8
COMP-MIN-OUTLINE-WIDTH-1
 10
9.727
 20
9.300
  0
VERTEX
  8
COMP-MIN-OUTLINE-WIDTH-1
 10
9.989
 20
9.300
  0
SEQEND
  8
COMP-MIN-OUTLINE-WIDTH-1
  0
INSERT
  8
COMP-MIN-OUTLINE-WIDTH-1
  2
DISC
 10
9.989
 20
9.300
 41
0.001
 42
0.001
  0
POLYLINE
  8
COMP-MIN-OUTLINE-WIDTH-1
 66
1
 70
0
 40
0.001
 41
0.001
  0
VERTEX
  8
COMP-MIN-OUTLINE-WIDTH-1
 10
9.989
 20
9.300
  0
VERTEX
  8
COMP-MIN-OUTLINE-WIDTH-1
 10
9.989
 20
8.689
  0
SEQEND
  8
COMP-MIN-OUTLINE-WIDTH-1
  0
INSERT
  8
COMP-MIN-OUTLINE-WIDTH-1
  2
DISC
 10
9.989
 20
8.689
 41
0.001
 42
0.001
  0
POLYLINE
  8
COMP-MIN-OUTLINE-WIDTH-1
 66
1
 70
0
 40
0.001
 41
0.001
  0
VERTEX
  8
COMP-MIN-OUTLINE-WIDTH-1
 10
9.989
 20
8.689
  0
VERTEX
  8
COMP-MIN-OUTLINE-WIDTH-1
 10
8.771
 20
8.689
  0
SEQEND
  8
COMP-MIN-OUTLINE-WIDTH-1
  0
INSERT
  8
COMP-MIN-OUTLINE-WIDTH-1
  2
DISC
 10
8.771
 20
8.689
 41
0.001
 42
0.001
  0
POLYLINE
  8
COMP-MIN-OUTLINE-WIDTH-1
 66
1
 70
0
 40
0.001
 41
0.001
  0
VERTEX
  8
COMP-MIN-OUTLINE-WIDTH-1
 10
8.771
 20
8.689
  0
VERTEX
  8
COMP-MIN-OUTLINE-WIDTH-1
 10
8.771
 20
9.300
  0
SEQEND
  8
COMP-MIN-OUTLINE-WIDTH-1
  0
INSERT
  8
COMP-MIN-OUTLINE-WIDTH-1
  2
DISC
 10
8.771
 20
9.300
 41
0.001
 42
0.001
  0
INSERT
  8
COMP-MIN-OUTLINE-WIDTH-1
  2
DISC
 10
9.060
 20
8.689
 41
0.001
 42
0.001
  0
POLYLINE
  8
COMP-MIN-OUTLINE-WIDTH-1
 66
1
 70
0
 40
0.001
 41
0.001
  0
VERTEX
  8
COMP-MIN-OUTLINE-WIDTH-1
 10
9.060
 20
8.689
  0
VERTEX
  8
COMP-MIN-OUTLINE-WIDTH-1
 10
9.060
 20
8.452
  0
SEQEND
  8
COMP-MIN-OUTLINE-WIDTH-1
  0
INSERT
  8
COMP-MIN-OUTLINE-WIDTH-1
  2
DISC
 10
9.060
 20
8.452
 41
0.001
 42
0.001
  0
POLYLINE
  8
COMP-MIN-OUTLINE-WIDTH-1
 66
1
 70
0
 40
0.001
 41
0.001
  0
VERTEX
  8
COMP-MIN-OUTLINE-WIDTH-1
 10
9.060
 20
8.452
  0
VERTEX
  8
COMP-MIN-OUTLINE-WIDTH-1
 10
9.702
 20
8.452
  0
SEQEND
  8
COMP-MIN-OUTLINE-WIDTH-1
  0
INSERT
  8
COMP-MIN-OUTLINE-WIDTH-1
  2
DISC
 10
9.702
 20
8.452
 41
0.001
 42
0.001
  0
POLYLINE
  8
COMP-MIN-OUTLINE-WIDTH-1
 66
1
 70
0
 40
0.001
 41
0.001
  0
VERTEX
  8
COMP-MIN-OUTLINE-WIDTH-1
 10
9.702
 20
8.452
  0
VERTEX
  8
COMP-MIN-OUTLINE-WIDTH-1
 10
9.702
 20
8.689
  0
SEQEND
  8
COMP-MIN-OUTLINE-WIDTH-1
  0
INSERT
  8
COMP-MIN-OUTLINE-WIDTH-1
  2
DISC
 10
9.702
 20
8.689
 41
0.001
 42
0.001
  0
INSERT
  8
COMP-MIN-OUTLINE-WIDTH-1
  2
DISC
 10
9.800
 20
8.689
 41
0.001
 42
0.001
  0
POLYLINE
  8
COMP-MIN-OUTLINE-WIDTH-1
 66
1
 70
0
 40
0.001
 41
0.001
  0
VERTEX
  8
COMP-MIN-OUTLINE-WIDTH-1
 10
9.800
 20
8.689
  0
VERTEX
  8
COMP-MIN-OUTLINE-WIDTH-1
 10
9.800
 20
8.461
  0
SEQEND
  8
COMP-MIN-OUTLINE-WIDTH-1
  0
INSERT
  8
COMP-MIN-OUTLINE-WIDTH-1
  2
DISC
 10
9.800
 20
8.461
 41
0.001
 42
0.001
  0
POLYLINE
  8
COMP-MIN-OUTLINE-WIDTH-1
 66
1
 70
0
 40
0.001
 41
0.001
  0
VERTEX
  8
COMP-MIN-OUTLINE-WIDTH-1
 10
9.800
 20
8.461
  0
VERTEX
  8
COMP-MIN-OUTLINE-WIDTH-1
 10
9.925
 20
8.461
  0
SEQEND
  8
COMP-MIN-OUTLINE-WIDTH-1
  0
INSERT
  8
COMP-MIN-OUTLINE-WIDTH-1
  2
DISC
 10
9.925
 20
8.461
 41
0.001
 42
0.001
  0
POLYLINE
  8
COMP-MIN-OUTLINE-WIDTH-1
 66
1
 70
0
 40
0.001
 41
0.001
  0
VERTEX
  8
COMP-MIN-OUTLINE-WIDTH-1
 10
9.925
 20
8.461
  0
VERTEX
  8
COMP-MIN-OUTLINE-WIDTH-1
 10
9.925
 20
8.689
  0
SEQEND
  8
COMP-MIN-OUTLINE-WIDTH-1
  0
INSERT
  8
COMP-MIN-OUTLINE-WIDTH-1
  2
DISC
 10
9.925
 20
8.689
 41
0.001
 42
0.001
  0
INSERT
  8
COMP-MIN-OUTLINE-WIDTH-1
  2
DISC
 10
8.835
 20
8.689
 41
0.001
 42
0.001
  0
POLYLINE
  8
COMP-MIN-OUTLINE-WIDTH-1
 66
1
 70
0
 40
0.001
 41
0.001
  0
VERTEX
  8
COMP-MIN-OUTLINE-WIDTH-1
 10
8.835
 20
8.689
  0
VERTEX
  8
COMP-MIN-OUTLINE-WIDTH-1
 10
8.835
 20
8.461
  0
SEQEND
  8
COMP-MIN-OUTLINE-WIDTH-1
  0
INSERT
  8
COMP-MIN-OUTLINE-WIDTH-1
  2
DISC
 10
8.835
 20
8.461
 41
0.001
 42
0.001
  0
POLYLINE
  8
COMP-MIN-OUTLINE-WIDTH-1
 66
1
 70
0
 40
0.001
 41
0.001
  0
VERTEX
  8
COMP-MIN-OUTLINE-WIDTH-1
 10
8.835
 20
8.461
  0
VERTEX
  8
COMP-MIN-OUTLINE-WIDTH-1
 10
8.960
 20
8.461
  0
SEQEND
  8
COMP-MIN-OUTLINE-WIDTH-1
  0
INSERT
  8
COMP-MIN-OUTLINE-WIDTH-1
  2
DISC
 10
8.960
 20
8.461
 41
0.001
 42
0.001
  0
POLYLINE
  8
COMP-MIN-OUTLINE-WIDTH-1
 66
1
 70
0
 40
0.001
 41
0.001
  0
VERTEX
  8
COMP-MIN-OUTLINE-WIDTH-1
 10
8.960
 20
8.461
  0
VERTEX
  8
COMP-MIN-OUTLINE-WIDTH-1
 10
8.960
 20
8.689
  0
SEQEND
  8
COMP-MIN-OUTLINE-WIDTH-1
  0
INSERT
  8
COMP-MIN-OUTLINE-WIDTH-1
  2
DISC
 10
8.960
 20
8.689
 41
0.001
 42
0.001
  0
INSERT
  8
COMP-MIN-OUTLINE-WIDTH-2
  2
DISC
 10
9.160
 20
8.896
 41
0.001
 42
0.001
  0
POLYLINE
  8
COMP-MIN-OUTLINE-WIDTH-2
 66
1
 70
0
 40
0.001
 41
0.001
  0
VERTEX
  8
COMP-MIN-OUTLINE-WIDTH-2
 10
9.160
 20
8.896
  0
VERTEX
  8
COMP-MIN-OUTLINE-WIDTH-2
 10
9.160
 20
9.190
  0
SEQEND
  8
COMP-MIN-OUTLINE-WIDTH-2
  0
INSERT
  8
COMP-MIN-OUTLINE-WIDTH-2
  2
DISC
 10
9.160
 20
9.190
 41
0.001
 42
0.001
  0
POLYLINE
  8
COMP-MIN-OUTLINE-WIDTH-2
 66
1
 70
0
 40
0.001
 41
0.001
  0
VERTEX
  8
COMP-MIN-OUTLINE-WIDTH-2
 10
9.160
 20
9.190
  0
VERTEX
  8
COMP-MIN-OUTLINE-WIDTH-2
 10
9.165
 20
9.190
  0
SEQEND
  8
COMP-MIN-OUTLINE-WIDTH-2
  0
INSERT
  8
COMP-MIN-OUTLINE-WIDTH-2
  2
DISC
 10
9.165
 20
9.190
 41
0.001
 42
0.001
  0
POLYLINE
  8
COMP-MIN-OUTLINE-WIDTH-2
 66
1
 70
0
 40
0.001
 41
0.001
  0
VERTEX
  8
COMP-MIN-OUTLINE-WIDTH-2
 10
9.165
 20
9.190
  0
VERTEX
  8
COMP-MIN-OUTLINE-WIDTH-2
 10
9.165
 20
8.896
  0
SEQEND
  8
COMP-MIN-OUTLINE-WIDTH-2
  0
INSERT
  8
COMP-MIN-OUTLINE-WIDTH-2
  2
DISC
 10
9.165
 20
8.896
 41
0.001
 42
0.001
  0
INSERT
  8
COMP-MIN-OUTLINE-WIDTH-2
  2
DISC
 10
9.214
 20
8.896
 41
0.001
 42
0.001
  0
POLYLINE
  8
COMP-MIN-OUTLINE-WIDTH-2
 66
1
 70
0
 40
0.001
 41
0.001
  0
VERTEX
  8
COMP-MIN-OUTLINE-WIDTH-2
 10
9.214
 20
8.896
  0
VERTEX
  8
COMP-MIN-OUTLINE-WIDTH-2
 10
9.214
 20
9.086
  0
SEQEND
  8
COMP-MIN-OUTLINE-WIDTH-2
  0
INSERT
  8
COMP-MIN-OUTLINE-WIDTH-2
  2
DISC
 10
9.214
 20
9.086
 41
0.001
 42
0.001
  0
POLYLINE
  8
COMP-MIN-OUTLINE-WIDTH-2
 66
1
 70
0
 40
0.001
 41
0.001
  0
VERTEX
  8
COMP-MIN-OUTLINE-WIDTH-2
 10
9.214
 20
9.086
  0
VERTEX
  8
COMP-MIN-OUTLINE-WIDTH-2
 10
9.219
 20
9.086
  0
SEQEND
  8
COMP-MIN-OUTLINE-WIDTH-2
  0
INSERT
  8
COMP-MIN-OUTLINE-WIDTH-2
  2
DISC
 10
9.219
 20
9.086
 41
0.001
 42
0.001
  0
POLYLINE
  8
COMP-MIN-OUTLINE-WIDTH-2
 66
1
 70
0
 40
0.001
 41
0.001
  0
VERTEX
  8
COMP-MIN-OUTLINE-WIDTH-2
 10
9.219
 20
9.086
  0
VERTEX
  8
COMP-MIN-OUTLINE-WIDTH-2
 10
9.219
 20
8.896
  0
SEQEND
  8
COMP-MIN-OUTLINE-WIDTH-2
  0
INSERT
  8
COMP-MIN-OUTLINE-WIDTH-2
  2
DISC
 10
9.219
 20
8.896
 41
0.001
 42
0.001
  0
INSERT
  8
COMP-MIN-OUTLINE-WIDTH-2
  2
DISC
 10
9.324
 20
8.896
 41
0.001
 42
0.001
  0
POLYLINE
  8
COMP-MIN-OUTLINE-WIDTH-2
 66
1
 70
0
 40
0.001
 41
0.001
  0
VERTEX
  8
COMP-MIN-OUTLINE-WIDTH-2
 10
9.324
 20
8.896
  0
VERTEX
  8
COMP-MIN-OUTLINE-WIDTH-2
 10
9.324
 20
9.086
  0
SEQEND
  8
COMP-MIN-OUTLINE-WIDTH-2
  0
INSERT
  8
COMP-MIN-OUTLINE-WIDTH-2
  2
DISC
 10
9.324
 20
9.086
 41
0.001
 42
0.001
  0
POLYLINE
  8
COMP-MIN-OUTLINE-WIDTH-2
 66
1
 70
0
 40
0.001
 41
0.001
  0
VERTEX
  8
COMP-MIN-OUTLINE-WIDTH-2
 10
9.324
 20
9.086
  0
VERTEX
  8
COMP-MIN-OUTLINE-WIDTH-2
 10
9.329
 20
9.086
  0
SEQEND
  8
COMP-MIN-OUTLINE-WIDTH-2
  0
INSERT
  8
COMP-MIN-OUTLINE-WIDTH-2
  2
DISC
 10
9.329
 20
9.086
 41
0.001
 42
0.001
  0
POLYLINE
  8
COMP-MIN-OUTLINE-WIDTH-2
 66
1
 70
0
 40
0.001
 41
0.001
  0
VERTEX
  8
COMP-MIN-OUTLINE-WIDTH-2
 10
9.329
 20
9.086
  0
VERTEX
  8
COMP-MIN-OUTLINE-WIDTH-2
 10
9.329
 20
8.896
  0
SEQEND
  8
COMP-MIN-OUTLINE-WIDTH-2
  0
INSERT
  8
COMP-MIN-OUTLINE-WIDTH-2
  2
DISC
 10
9.329
 20
8.896
 41
0.001
 42
0.001
  0
INSERT
  8
COMP-MIN-OUTLINE-WIDTH-2
  2
DISC
 10
9.432
 20
8.896
 41
0.001
 42
0.001
  0
POLYLINE
  8
COMP-MIN-OUTLINE-WIDTH-2
 66
1
 70
0
 40
0.001
 41
0.001
  0
VERTEX
  8
COMP-MIN-OUTLINE-WIDTH-2
 10
9.432
 20
8.896
  0
VERTEX
  8
COMP-MIN-OUTLINE-WIDTH-2
 10
9.432
 20
9.086
  0
SEQEND
  8
COMP-MIN-OUTLINE-WIDTH-2
  0
INSERT
  8
COMP-MIN-OUTLINE-WIDTH-2
  2
DISC
 10
9.432
 20
9.086
 41
0.001
 42
0.001
  0
POLYLINE
  8
COMP-MIN-OUTLINE-WIDTH-2
 66
1
 70
0
 40
0.001
 41
0.001
  0
VERTEX
  8
COMP-MIN-OUTLINE-WIDTH-2
 10
9.432
 20
9.086
  0
VERTEX
  8
COMP-MIN-OUTLINE-WIDTH-2
 10
9.437
 20
9.086
  0
SEQEND
  8
COMP-MIN-OUTLINE-WIDTH-2
  0
INSERT
  8
COMP-MIN-OUTLINE-WIDTH-2
  2
DISC
 10
9.437
 20
9.086
 41
0.001
 42
0.001
  0
POLYLINE
  8
COMP-MIN-OUTLINE-WIDTH-2
 66
1
 70
0
 40
0.001
 41
0.001
  0
VERTEX
  8
COMP-MIN-OUTLINE-WIDTH-2
 10
9.437
 20
9.086
  0
VERTEX
  8
COMP-MIN-OUTLINE-WIDTH-2
 10
9.437
 20
8.896
  0
SEQEND
  8
COMP-MIN-OUTLINE-WIDTH-2
  0
INSERT
  8
COMP-MIN-OUTLINE-WIDTH-2
  2
DISC
 10
9.437
 20
8.896
 41
0.001
 42
0.001
  0
INSERT
  8
COMP-MIN-OUTLINE-WIDTH-2
  2
DISC
 10
9.541
 20
8.896
 41
0.001
 42
0.001
  0
POLYLINE
  8
COMP-MIN-OUTLINE-WIDTH-2
 66
1
 70
0
 40
0.001
 41
0.001
  0
VERTEX
  8
COMP-MIN-OUTLINE-WIDTH-2
 10
9.541
 20
8.896
  0
VERTEX
  8
COMP-MIN-OUTLINE-WIDTH-2
 10
9.541
 20
9.086
  0
SEQEND
  8
COMP-MIN-OUTLINE-WIDTH-2
  0
INSERT
  8
COMP-MIN-OUTLINE-WIDTH-2
  2
DISC
 10
9.541
 20
9.086
 41
0.001
 42
0.001
  0
POLYLINE
  8
COMP-MIN-OUTLINE-WIDTH-2
 66
1
 70
0
 40
0.001
 41
0.001
  0
VERTEX
  8
COMP-MIN-OUTLINE-WIDTH-2
 10
9.541
 20
9.086
  0
VERTEX
  8
COMP-MIN-OUTLINE-WIDTH-2
 10
9.546
 20
9.086
  0
SEQEND
  8
COMP-MIN-OUTLINE-WIDTH-2
  0
INSERT
  8
COMP-MIN-OUTLINE-WIDTH-2
  2
DISC
 10
9.546
 20
9.086
 41
0.001
 42
0.001
  0
POLYLINE
  8
COMP-MIN-OUTLINE-WIDTH-2
 66
1
 70
0
 40
0.001
 41
0.001
  0
VERTEX
  8
COMP-MIN-OUTLINE-WIDTH-2
 10
9.546
 20
9.086
  0
VERTEX
  8
COMP-MIN-OUTLINE-WIDTH-2
 10
9.546
 20
8.896
  0
SEQEND
  8
COMP-MIN-OUTLINE-WIDTH-2
  0
INSERT
  8
COMP-MIN-OUTLINE-WIDTH-2
  2
DISC
 10
9.546
 20
8.896
 41
0.001
 42
0.001
  0
INSERT
  8
COMP-MIN-OUTLINE-WIDTH-2
  2
DISC
 10
9.268
 20
8.896
 41
0.001
 42
0.001
  0
POLYLINE
  8
COMP-MIN-OUTLINE-WIDTH-2
 66
1
 70
0
 40
0.001
 41
0.001
  0
VERTEX
  8
COMP-MIN-OUTLINE-WIDTH-2
 10
9.268
 20
8.896
  0
VERTEX
  8
COMP-MIN-OUTLINE-WIDTH-2
 10
9.268
 20
9.190
  0
SEQEND
  8
COMP-MIN-OUTLINE-WIDTH-2
  0
INSERT
  8
COMP-MIN-OUTLINE-WIDTH-2
  2
DISC
 10
9.268
 20
9.190
 41
0.001
 42
0.001
  0
POLYLINE
  8
COMP-MIN-OUTLINE-WIDTH-2
 66
1
 70
0
 40
0.001
 41
0.001
  0
VERTEX
  8
COMP-MIN-OUTLINE-WIDTH-2
 10
9.268
 20
9.190
  0
VERTEX
  8
COMP-MIN-OUTLINE-WIDTH-2
 10
9.273
 20
9.190
  0
SEQEND
  8
COMP-MIN-OUTLINE-WIDTH-2
  0
INSERT
  8
COMP-MIN-OUTLINE-WIDTH-2
  2
DISC
 10
9.273
 20
9.190
 41
0.001
 42
0.001
  0
POLYLINE
  8
COMP-MIN-OUTLINE-WIDTH-2
 66
1
 70
0
 40
0.001
 41
0.001
  0
VERTEX
  8
COMP-MIN-OUTLINE-WIDTH-2
 10
9.273
 20
9.190
  0
VERTEX
  8
COMP-MIN-OUTLINE-WIDTH-2
 10
9.273
 20
8.896
  0
SEQEND
  8
COMP-MIN-OUTLINE-WIDTH-2
  0
INSERT
  8
COMP-MIN-OUTLINE-WIDTH-2
  2
DISC
 10
9.273
 20
8.896
 41
0.001
 42
0.001
  0
INSERT
  8
COMP-MIN-OUTLINE-WIDTH-2
  2
DISC
 10
9.378
 20
8.896
 41
0.001
 42
0.001
  0
POLYLINE
  8
COMP-MIN-OUTLINE-WIDTH-2
 66
1
 70
0
 40
0.001
 41
0.001
  0
VERTEX
  8
COMP-MIN-OUTLINE-WIDTH-2
 10
9.378
 20
8.896
  0
VERTEX
  8
COMP-MIN-OUTLINE-WIDTH-2
 10
9.378
 20
9.190
  0
SEQEND
  8
COMP-MIN-OUTLINE-WIDTH-2
  0
INSERT
  8
COMP-MIN-OUTLINE-WIDTH-2
  2
DISC
 10
9.378
 20
9.190
 41
0.001
 42
0.001
  0
POLYLINE
  8
COMP-MIN-OUTLINE-WIDTH-2
 66
1
 70
0
 40
0.001
 41
0.001
  0
VERTEX
  8
COMP-MIN-OUTLINE-WIDTH-2
 10
9.378
 20
9.190
  0
VERTEX
  8
COMP-MIN-OUTLINE-WIDTH-2
 10
9.383
 20
9.190
  0
SEQEND
  8
COMP-MIN-OUTLINE-WIDTH-2
  0
INSERT
  8
COMP-MIN-OUTLINE-WIDTH-2
  2
DISC
 10
9.383
 20
9.190
 41
0.001
 42
0.001
  0
POLYLINE
  8
COMP-MIN-OUTLINE-WIDTH-2
 66
1
 70
0
 40
0.001
 41
0.001
  0
VERTEX
  8
COMP-MIN-OUTLINE-WIDTH-2
 10
9.383
 20
9.190
  0
VERTEX
  8
COMP-MIN-OUTLINE-WIDTH-2
 10
9.383
 20
8.896
  0
SEQEND
  8
COMP-MIN-OUTLINE-WIDTH-2
  0
INSERT
  8
COMP-MIN-OUTLINE-WIDTH-2
  2
DISC
 10
9.383
 20
8.896
 41
0.001
 42
0.001
  0
INSERT
  8
COMP-MIN-OUTLINE-WIDTH-2
  2
DISC
 10
9.487
 20
8.896
 41
0.001
 42
0.001
  0
POLYLINE
  8
COMP-MIN-OUTLINE-WIDTH-2
 66
1
 70
0
 40
0.001
 41
0.001
  0
VERTEX
  8
COMP-MIN-OUTLINE-WIDTH-2
 10
9.487
 20
8.896
  0
VERTEX
  8
COMP-MIN-OUTLINE-WIDTH-2
 10
9.487
 20
9.190
  0
SEQEND
  8
COMP-MIN-OUTLINE-WIDTH-2
  0
INSERT
  8
COMP-MIN-OUTLINE-WIDTH-2
  2
DISC
 10
9.487
 20
9.190
 41
0.001
 42
0.001
  0
POLYLINE
  8
COMP-MIN-OUTLINE-WIDTH-2
 66
1
 70
0
 40
0.001
 41
0.001
  0
VERTEX
  8
COMP-MIN-OUTLINE-WIDTH-2
 10
9.487
 20
9.190
  0
VERTEX
  8
COMP-MIN-OUTLINE-WIDTH-2
 10
9.492
 20
9.190
  0
SEQEND
  8
COMP-MIN-OUTLINE-WIDTH-2
  0
INSERT
  8
COMP-MIN-OUTLINE-WIDTH-2
  2
DISC
 10
9.492
 20
9.190
 41
0.001
 42
0.001
  0
POLYLINE
  8
COMP-MIN-OUTLINE-WIDTH-2
 66
1
 70
0
 40
0.001
 41
0.001
  0
VERTEX
  8
COMP-MIN-OUTLINE-WIDTH-2
 10
9.492
 20
9.190
  0
VERTEX
  8
COMP-MIN-OUTLINE-WIDTH-2
 10
9.492
 20
8.896
  0
SEQEND
  8
COMP-MIN-OUTLINE-WIDTH-2
  0
INSERT
  8
COMP-MIN-OUTLINE-WIDTH-2
  2
DISC
 10
9.492
 20
8.896
 41
0.001
 42
0.001
  0
INSERT
  8
COMP-MIN-OUTLINE-WIDTH-2
  2
DISC
 10
9.596
 20
8.896
 41
0.001
 42
0.001
  0
POLYLINE
  8
COMP-MIN-OUTLINE-WIDTH-2
 66
1
 70
0
 40
0.001
 41
0.001
  0
VERTEX
  8
COMP-MIN-OUTLINE-WIDTH-2
 10
9.596
 20
8.896
  0
VERTEX
  8
COMP-MIN-OUTLINE-WIDTH-2
 10
9.596
 20
9.190
  0
SEQEND
  8
COMP-MIN-OUTLINE-WIDTH-2
  0
INSERT
  8
COMP-MIN-OUTLINE-WIDTH-2
  2
DISC
 10
9.596
 20
9.190
 41
0.001
 42
0.001
  0
POLYLINE
  8
COMP-MIN-OUTLINE-WIDTH-2
 66
1
 70
0
 40
0.001
 41
0.001
  0
VERTEX
  8
COMP-MIN-OUTLINE-WIDTH-2
 10
9.596
 20
9.190
  0
VERTEX
  8
COMP-MIN-OUTLINE-WIDTH-2
 10
9.601
 20
9.190
  0
SEQEND
  8
COMP-MIN-OUTLINE-WIDTH-2
  0
INSERT
  8
COMP-MIN-OUTLINE-WIDTH-2
  2
DISC
 10
9.601
 20
9.190
 41
0.001
 42
0.001
  0
POLYLINE
  8
COMP-MIN-OUTLINE-WIDTH-2
 66
1
 70
0
 40
0.001
 41
0.001
  0
VERTEX
  8
COMP-MIN-OUTLINE-WIDTH-2
 10
9.601
 20
9.190
  0
VERTEX
  8
COMP-MIN-OUTLINE-WIDTH-2
 10
9.601
 20
8.896
  0
SEQEND
  8
COMP-MIN-OUTLINE-WIDTH-2
  0
INSERT
  8
COMP-MIN-OUTLINE-WIDTH-2
  2
DISC
 10
9.601
 20
8.896
 41
0.001
 42
0.001
  0
TEXT
  8
COMP-MIN-TEXT-WIDTH-1
 10
9.580
 20
8.800
 40
0.075
  1
1
  0
TEXT
  8
COMP-MIN-TEXT-WIDTH-1
 10
9.140
 20
8.800
 40
0.075
  1
5
  0
TEXT
  8
COMP-MIN-TEXT-WIDTH-1
 10
9.525
 20
8.705
 40
0.075
  1
6.
  0
TEXT
  8
COMP-MIN-TEXT-WIDTH-1
 10
9.195
 20
8.705
 40
0.075
  1
9.
  0
ENDBLK
  8
COMP-MIN-TEXT-WIDTH-1
  0
BLOCK
  8
0
  2
851D
 70
0
 10
1.025
 20
1.025
  0
INSERT
  8
0
  2
PD41
 10
1.025
 20
1.025
  0
INSERT
  8
0
  2
PD41
 10
1.140
 20
1.025
  0
ENDBLK
  8
0
  0
BLOCK
  8
0
  2
851N
 70
0
 10
1.025
 20
1.025
  0
INSERT
  8
0
  2
PN41
 10
1.025
 20
1.025
  0
INSERT
  8
0
  2
PN41
 10
1.140
 20
1.025
  0
ENDBLK
  8
0
  0
BLOCK
  8
0
  2
851I
 70
0
 10
1.025
 20
1.025
  0
INSERT
  8
0
  2
PI41
 10
1.025
 20
1.025
  0
INSERT
  8
0
  2
PI41
 10
1.140
 20
1.025
  0
ENDBLK
  8
0
  0
BLOCK
  8
0
  2
851X
 70
0
 10
1.025
 20
1.025
  0
INSERT
  8
0
  2
PX41
 10
1.025
 20
1.025
  0
INSERT
  8
0
  2
PX41
 10
1.140
 20
1.025
  0
ENDBLK
  8
0
  0
BLOCK
  8
0
  2
851
 70
0
 10
1.025
 20
1.025
  0
INSERT
  8
COMP-MIN-OUTLINE-WIDTH-2
  2
DISC
 10
1.007
 20
1.056
 41
0.001
 42
0.001
  0
POLYLINE
  8
COMP-MIN-OUTLINE-WIDTH-2
 66
1
 70
0
 40
0.001
 41
0.001
  0
VERTEX
  8
COMP-MIN-OUTLINE-WIDTH-2
 10
1.007
 20
1.056
  0
VERTEX
  8
COMP-MIN-OUTLINE-WIDTH-2
 10
1.158
 20
1.056
  0
SEQEND
  8
COMP-MIN-OUTLINE-WIDTH-2
  0
INSERT
  8
COMP-MIN-OUTLINE-WIDTH-2
  2
DISC
 10
1.158
 20
1.056
 41
0.001
 42
0.001
  0
POLYLINE
  8
COMP-MIN-OUTLINE-WIDTH-2
 66
1
 70
0
 40
0.001
 41
0.001
  0
VERTEX
  8
COMP-MIN-OUTLINE-WIDTH-2
 10
1.158
 20
1.056
  0
VERTEX
  8
COMP-MIN-OUTLINE-WIDTH-2
 10
1.158
 20
0.994
  0
SEQEND
  8
COMP-MIN-OUTLINE-WIDTH-2
  0
INSERT
  8
COMP-MIN-OUTLINE-WIDTH-2
  2
DISC
 10
1.158
 20
0.994
 41
0.001
 42
0.001
  0
POLYLINE
  8
COMP-MIN-OUTLINE-WIDTH-2
 66
1
 70
0
 40
0.001
 41
0.001
  0
VERTEX
  8
COMP-MIN-OUTLINE-WIDTH-2
 10
1.158
 20
0.994
  0
VERTEX
  8
COMP-MIN-OUTLINE-WIDTH-2
 10
1.007
 20
0.994
  0
SEQEND
  8
COMP-MIN-OUTLINE-WIDTH-2
  0
INSERT
  8
COMP-MIN-OUTLINE-WIDTH-2
  2
DISC
 10
1.007
 20
0.994
 41
0.001
 42
0.001
  0
POLYLINE
  8
COMP-MIN-OUTLINE-WIDTH-2
 66
1
 70
0
 40
0.001
 41
0.001
  0
VERTEX
  8
COMP-MIN-OUTLINE-WIDTH-2
 10
1.007
 20
0.994
  0
VERTEX
  8
COMP-MIN-OUTLINE-WIDTH-2
 10
1.007
 20
1.056
  0
SEQEND
  8
COMP-MIN-OUTLINE-WIDTH-2
  0
INSERT
  8
COMP-MIN-OUTLINE-WIDTH-2
  2
DISC
 10
1.007
 20
1.056
 41
0.001
 42
0.001
  0
ENDBLK
  8
COMP-MIN-OUTLINE-WIDTH-2
  0
ENDSEC
  0
SECTION
  2
ENTITIES
  0
POLYLINE
  8
BOARD-OUTLINE
 66
1
 70
0
 40
0.000
 41
0.000
  0
VERTEX
  8
BOARD-OUTLINE
 10
2.703
 20
6.243
  0
VERTEX
  8
BOARD-OUTLINE
 10
2.703
 20
7.818
  0
VERTEX
  8
BOARD-OUTLINE
 10
5.656
 20
7.818
  0
VERTEX
  8
BOARD-OUTLINE
 10
5.656
 20
6.243
  0
VERTEX
  8
BOARD-OUTLINE
 10
2.703
 20
6.243
  0
SEQEND
  8
BOARD-OUTLINE
  0
POLYLINE
  8
BOARD-OUTLINE
 66
1
 70
0
 40
0.000
 41
0.000
  0
VERTEX
  8
BOARD-OUTLINE
 10
2.703
 20
6.243
  0
VERTEX
  8
BOARD-OUTLINE
 10
2.703
 20
7.818
  0
VERTEX
  8
BOARD-OUTLINE
 10
5.656
 20
7.818
  0
VERTEX
  8
BOARD-OUTLINE
 10
5.656
 20
6.243
  0
VERTEX
  8
BOARD-OUTLINE
 10
2.703
 20
6.243
  0
SEQEND
  8
BOARD-OUTLINE
  0
INSERT
  8
0
  2
851
 10
4.250
 20
7.175
 50
090.000
  0
INSERT
  8
0
  2
851D
 10
4.250
 20
7.175
 50
090.000
  0
INSERT
  8
0
  2
851N
 10
4.250
 20
7.175
 50
090.000
  0
INSERT
  8
0
  2
851X
 10
4.250
 20
7.175
 50
090.000
  0
INSERT
  8
0
  2
851I
 10
4.250
 20
7.175
 50
090.000
  0
TEXT
  8
COMPONENT-NAME-MIN
 10
4.275
 20
7.200
 40
0.050
  1
C1
 50
90.000
  0
INSERT
  8
0
  2
851
 10
3.445
 20
7.175
 50
090.000
  0
INSERT
  8
0
  2
851D
 10
3.445
 20
7.175
 50
090.000
  0
INSERT
  8
0
  2
851N
 10
3.445
 20
7.175
 50
090.000
  0
INSERT
  8
0
  2
851X
 10
3.445
 20
7.175
 50
090.000
  0
INSERT
  8
0
  2
851I
 10
3.445
 20
7.175
 50
090.000
  0
TEXT
  8
COMPONENT-NAME-MIN
 10
3.475
 20
7.165
 40
0.050
  1
C10
 50
90.000
  0
INSERT
  8
0
  2
851
 10
3.260
 20
7.175
 50
090.000
  0
INSERT
  8
0
  2
851D
 10
3.260
 20
7.175
 50
090.000
  0
INSERT
  8
0
  2
851N
 10
3.260
 20
7.175
 50
090.000
  0
INSERT
  8
0
  2
851X
 10
3.260
 20
7.175
 50
090.000
  0
INSERT
  8
0
  2
851I
 10
3.260
 20
7.175
 50
090.000
  0
TEXT
  8
COMPONENT-NAME-MIN
 10
3.290
 20
7.165
 40
0.050
  1
C11
 50
90.000
  0
INSERT
  8
0
  2
851
 10
4.605
 20
7.175
 50
090.000
  0
INSERT
  8
0
  2
851D
 10
4.605
 20
7.175
 50
090.000
  0
INSERT
  8
0
  2
851N
 10
4.605
 20
7.175
 50
090.000
  0
INSERT
  8
0
  2
851X
 10
4.605
 20
7.175
 50
090.000
  0
INSERT
  8
0
  2
851I
 10
4.605
 20
7.175
 50
090.000
  0
TEXT
  8
COMPONENT-NAME-MIN
 10
4.630
 20
7.200
 40
0.050
  1
C2
 50
90.000
  0
INSERT
  8
0
  2
851
 10
4.955
 20
7.175
 50
090.000
  0
INSERT
  8
0
  2
851D
 10
4.955
 20
7.175
 50
090.000
  0
INSERT
  8
0
  2
851N
 10
4.955
 20
7.175
 50
090.000
  0
INSERT
  8
0
  2
851X
 10
4.955
 20
7.175
 50
090.000
  0
INSERT
  8
0
  2
851I
 10
4.955
 20
7.175
 50
090.000
  0
TEXT
  8
COMPONENT-NAME-MIN
 10
4.980
 20
7.200
 40
0.050
  1
C3
 50
90.000
  0
INSERT
  8
0
  2
851
 10
5.305
 20
7.175
 50
090.000
  0
INSERT
  8
0
  2
851D
 10
5.305
 20
7.175
 50
090.000
  0
INSERT
  8
0
  2
851N
 10
5.305
 20
7.175
 50
090.000
  0
INSERT
  8
0
  2
851X
 10
5.305
 20
7.175
 50
090.000
  0
INSERT
  8
0
  2
851I
 10
5.305
 20
7.175
 50
090.000
  0
TEXT
  8
COMPONENT-NAME-MIN
 10
5.330
 20
7.200
 40
0.050
  1
C4
 50
90.000
  0
INSERT
  8
0
  2
851
 10
4.425
 20
7.175
 50
090.000
  0
INSERT
  8
0
  2
851D
 10
4.425
 20
7.175
 50
090.000
  0
INSERT
  8
0
  2
851N
 10
4.425
 20
7.175
 50
090.000
  0
INSERT
  8
0
  2
851X
 10
4.425
 20
7.175
 50
090.000
  0
INSERT
  8
0
  2
851I
 10
4.425
 20
7.175
 50
090.000
  0
TEXT
  8
COMPONENT-NAME-MIN
 10
4.450
 20
7.200
 40
0.050
  1
C5
 50
90.000
  0
INSERT
  8
0
  2
851
 10
4.780
 20
7.175
 50
090.000
  0
INSERT
  8
0
  2
851D
 10
4.780
 20
7.175
 50
090.000
  0
INSERT
  8
0
  2
851N
 10
4.780
 20
7.175
 50
090.000
  0
INSERT
  8
0
  2
851X
 10
4.780
 20
7.175
 50
090.000
  0
INSERT
  8
0
  2
851I
 10
4.780
 20
7.175
 50
090.000
  0
TEXT
  8
COMPONENT-NAME-MIN
 10
4.805
 20
7.200
 40
0.050
  1
C6
 50
90.000
  0
INSERT
  8
0
  2
851
 10
5.130
 20
7.175
 50
090.000
  0
INSERT
  8
0
  2
851D
 10
5.130
 20
7.175
 50
090.000
  0
INSERT
  8
0
  2
851N
 10
5.130
 20
7.175
 50
090.000
  0
INSERT
  8
0
  2
851X
 10
5.130
 20
7.175
 50
090.000
  0
INSERT
  8
0
  2
851I
 10
5.130
 20
7.175
 50
090.000
  0
TEXT
  8
COMPONENT-NAME-MIN
 10
5.155
 20
7.200
 40
0.050
  1
C7
 50
90.000
  0
INSERT
  8
0
  2
851
 10
5.480
 20
7.175
 50
090.000
  0
INSERT
  8
0
  2
851D
 10
5.480
 20
7.175
 50
090.000
  0
INSERT
  8
0
  2
851N
 10
5.480
 20
7.175
 50
090.000
  0
INSERT
  8
0
  2
851X
 10
5.480
 20
7.175
 50
090.000
  0
INSERT
  8
0
  2
851I
 10
5.480
 20
7.175
 50
090.000
  0
TEXT
  8
COMPONENT-NAME-MIN
 10
5.505
 20
7.200
 40
0.050
  1
C8
 50
90.000
  0
INSERT
  8
0
  2
851
 10
3.625
 20
7.175
 50
090.000
  0
INSERT
  8
0
  2
851D
 10
3.625
 20
7.175
 50
090.000
  0
INSERT
  8
0
  2
851N
 10
3.625
 20
7.175
 50
090.000
  0
INSERT
  8
0
  2
851X
 10
3.625
 20
7.175
 50
090.000
  0
INSERT
  8
0
  2
851I
 10
3.625
 20
7.175
 50
090.000
  0
TEXT
  8
COMPONENT-NAME-MIN
 10
3.655
 20
7.190
 40
0.050
  1
C9
 50
90.000
  0
INSERT
  8
0
  2
0
 10
4.250
 20
6.975
 50
090.000
  0
INSERT
  8
0
  2
0D
 10
4.250
 20
6.975
 50
090.000
  0
INSERT
  8
0
  2
0N
 10
4.250
 20
6.975
 50
090.000
  0
INSERT
  8
0
  2
0X
 10
4.250
 20
6.975
 50
090.000
  0
INSERT
  8
0
  2
0I
 10
4.250
 20
6.975
 50
090.000
  0
TEXT
  8
COMPONENT-NAME-MIN
 10
4.275
 20
7.000
 40
0.050
  1
L1
 50
90.000
  0
INSERT
  8
0
  2
0
 10
3.445
 20
6.970
 50
090.000
  0
INSERT
  8
0
  2
0D
 10
3.445
 20
6.970
 50
090.000
  0
INSERT
  8
0
  2
0N
 10
3.445
 20
6.970
 50
090.000
  0
INSERT
  8
0
  2
0X
 10
3.445
 20
6.970
 50
090.000
  0
INSERT
  8
0
  2
0I
 10
3.445
 20
6.970
 50
090.000
  0
TEXT
  8
COMPONENT-NAME-MIN
 10
3.470
 20
6.960
 40
0.050
  1
L10
 50
90.000
  0
INSERT
  8
0
  2
0
 10
3.260
 20
6.970
 50
090.000
  0
INSERT
  8
0
  2
0D
 10
3.260
 20
6.970
 50
090.000
  0
INSERT
  8
0
  2
0N
 10
3.260
 20
6.970
 50
090.000
  0
INSERT
  8
0
  2
0X
 10
3.260
 20
6.970
 50
090.000
  0
INSERT
  8
0
  2
0I
 10
3.260
 20
6.970
 50
090.000
  0
TEXT
  8
COMPONENT-NAME-MIN
 10
3.285
 20
6.960
 40
0.050
  1
L11
 50
90.000
  0
INSERT
  8
0
  2
0
 10
4.605
 20
6.975
 50
090.000
  0
INSERT
  8
0
  2
0D
 10
4.605
 20
6.975
 50
090.000
  0
INSERT
  8
0
  2
0N
 10
4.605
 20
6.975
 50
090.000
  0
INSERT
  8
0
  2
0X
 10
4.605
 20
6.975
 50
090.000
  0
INSERT
  8
0
  2
0I
 10
4.605
 20
6.975
 50
090.000
  0
TEXT
  8
COMPONENT-NAME-MIN
 10
4.630
 20
7.000
 40
0.050
  1
L2
 50
90.000
  0
INSERT
  8
0
  2
0
 10
4.955
 20
6.980
 50
090.000
  0
INSERT
  8
0
  2
0D
 10
4.955
 20
6.980
 50
090.000
  0
INSERT
  8
0
  2
0N
 10
4.955
 20
6.980
 50
090.000
  0
INSERT
  8
0
  2
0X
 10
4.955
 20
6.980
 50
090.000
  0
INSERT
  8
0
  2
0I
 10
4.955
 20
6.980
 50
090.000
  0
TEXT
  8
COMPONENT-NAME-MIN
 10
4.980
 20
7.005
 40
0.050
  1
L3
 50
90.000
  0
INSERT
  8
0
  2
0
 10
5.305
 20
6.975
 50
090.000
  0
INSERT
  8
0
  2
0D
 10
5.305
 20
6.975
 50
090.000
  0
INSERT
  8
0
  2
0N
 10
5.305
 20
6.975
 50
090.000
  0
INSERT
  8
0
  2
0X
 10
5.305
 20
6.975
 50
090.000
  0
INSERT
  8
0
  2
0I
 10
5.305
 20
6.975
 50
090.000
  0
TEXT
  8
COMPONENT-NAME-MIN
 10
5.330
 20
7.000
 40
0.050
  1
L4
 50
90.000
  0
INSERT
  8
0
  2
0
 10
4.425
 20
6.975
 50
090.000
  0
INSERT
  8
0
  2
0D
 10
4.425
 20
6.975
 50
090.000
  0
INSERT
  8
0
  2
0N
 10
4.425
 20
6.975
 50
090.000
  0
INSERT
  8
0
  2
0X
 10
4.425
 20
6.975
 50
090.000
  0
INSERT
  8
0
  2
0I
 10
4.425
 20
6.975
 50
090.000
  0
TEXT
  8
COMPONENT-NAME-MIN
 10
4.450
 20
7.000
 40
0.050
  1
L5
 50
90.000
  0
INSERT
  8
0
  2
0
 10
4.780
 20
6.975
 50
090.000
  0
INSERT
  8
0
  2
0D
 10
4.780
 20
6.975
 50
090.000
  0
INSERT
  8
0
  2
0N
 10
4.780
 20
6.975
 50
090.000
  0
INSERT
  8
0
  2
0X
 10
4.780
 20
6.975
 50
090.000
  0
INSERT
  8
0
  2
0I
 10
4.780
 20
6.975
 50
090.000
  0
TEXT
  8
COMPONENT-NAME-MIN
 10
4.805
 20
7.000
 40
0.050
  1
L6
 50
90.000
  0
INSERT
  8
0
  2
0
 10
5.130
 20
6.975
 50
090.000
  0
INSERT
  8
0
  2
0D
 10
5.130
 20
6.975
 50
090.000
  0
INSERT
  8
0
  2
0N
 10
5.130
 20
6.975
 50
090.000
  0
INSERT
  8
0
  2
0X
 10
5.130
 20
6.975
 50
090.000
  0
INSERT
  8
0
  2
0I
 10
5.130
 20
6.975
 50
090.000
  0
TEXT
  8
COMPONENT-NAME-MIN
 10
5.155
 20
7.000
 40
0.050
  1
L7
 50
90.000
  0
INSERT
  8
0
  2
0
 10
5.480
 20
6.975
 50
090.000
  0
INSERT
  8
0
  2
0D
 10
5.480
 20
6.975
 50
090.000
  0
INSERT
  8
0
  2
0N
 10
5.480
 20
6.975
 50
090.000
  0
INSERT
  8
0
  2
0X
 10
5.480
 20
6.975
 50
090.000
  0
INSERT
  8
0
  2
0I
 10
5.480
 20
6.975
 50
090.000
  0
TEXT
  8
COMPONENT-NAME-MIN
 10
5.505
 20
7.000
 40
0.050
  1
L8
 50
90.000
  0
INSERT
  8
0
  2
0
 10
3.625
 20
6.975
 50
090.000
  0
INSERT
  8
0
  2
0D
 10
3.625
 20
6.975
 50
090.000
  0
INSERT
  8
0
  2
0N
 10
3.625
 20
6.975
 50
090.000
  0
INSERT
  8
0
  2
0X
 10
3.625
 20
6.975
 50
090.000
  0
INSERT
  8
0
  2
0I
 10
3.625
 20
6.975
 50
090.000
  0
TEXT
  8
COMPONENT-NAME-MIN
 10
3.650
 20
7.000
 40
0.050
  1
L9
 50
90.000
  0
INSERT
  8
0
  2
44
 10
4.475
 20
6.700
 50
270.000
  0
INSERT
  8
0
  2
44D
 10
4.475
 20
6.700
 50
270.000
  0
INSERT
  8
0
  2
44N
 10
4.475
 20
6.700
 50
270.000
  0
INSERT
  8
0
  2
44X
 10
4.475
 20
6.700
 50
270.000
  0
INSERT
  8
0
  2
44I
 10
4.475
 20
6.700
 50
270.000
  0
TEXT
  8
COMPONENT-NAME-MIN
 10
4.925
 20
6.325
 40
0.050
  1
XA1
  0
INSERT
  8
0
  2
641
 10
2.900
 20
6.700
 50
000.000
  0
INSERT
  8
0
  2
641D
 10
2.900
 20
6.700
 50
000.000
  0
INSERT
  8
0
  2
641N
 10
2.900
 20
6.700
 50
000.000
  0
INSERT
  8
0
  2
641X
 10
2.900
 20
6.700
 50
000.000
  0
INSERT
  8
0
  2
641I
 10
2.900
 20
6.700
 50
000.000
  0
TEXT
  8
COMPONENT-NAME-MIN
 10
3.325
 20
6.325
 40
0.050
  1
XB1
  0
INSERT
  8
0
  2
241
 10
5.168
 20
7.671
 50
180.000
  0
INSERT
  8
0
  2
241D
 10
5.168
 20
7.671
 50
180.000
  0
INSERT
  8
0
  2
241N
 10
5.168
 20
7.671
 50
180.000
  0
INSERT
  8
0
  2
241X
 10
5.168
 20
7.671
 50
180.000
  0
INSERT
  8
0
  2
241I
 10
5.168
 20
7.671
 50
180.000
  0
TEXT
  8
COMPONENT-NAME-MIN
 10
4.900
 20
7.600
 40
0.050
  1
XC1
  0
INSERT
  8
0
  2
241
 10
3.591
 20
7.670
 50
180.000
  0
INSERT
  8
0
  2
241D
 10
3.591
 20
7.670
 50
180.000
  0
INSERT
  8
0
  2
241N
 10
3.591
 20
7.670
 50
180.000
  0
INSERT
  8
0
  2
241X
 10
3.591
 20
7.670
 50
180.000
  0
INSERT
  8
0
  2
241I
 10
3.591
 20
7.670
 50
180.000
  0
TEXT
  8
COMPONENT-NAME-MIN
 10
3.325
 20
7.600
 40
0.050
  1
XD1
  0
ENDSEC
  0
EOF
