  0
SECTION
  2
HEADER
  9
$ACADVER
  1
AC1014
  9
$ACADMAINTVER
 70
     9
  9
$DWGCODEPAGE
  3
ANSI_1252
  9
$INSBASE
 10
0.0
 20
0.0
 30
0.0
  9
$EXTMIN
 10
10.13256980540768
 20
14.98315532014601
 30
-0.0015258207003583
  9
$EXTMAX
 10
615.40783834761
 20
430.5300303009921
 30
0.0000000349246037
  9
$LIMMIN
 10
0.0
 20
0.0
  9
$LIMMAX
 10
616.0
 20
432.0
  9
$ORTHOMODE
 70
     1
  9
$REGENMODE
 70
     1
  9
$FILLMODE
 70
     1
  9
$QTEXTMODE
 70
     0
  9
$MIRRTEXT
 70
     1
  9
$DRAGMODE
 70
     2
  9
$LTSCALE
 40
1.0
  9
$OSMODE
 70
  3071
  9
$ATTMODE
 70
     1
  9
$TEXTSIZE
 40
2.0
  9
$TRACEWID
 40
1.75
  9
$TEXTSTYLE
  7
UV
  9
$CLAYER
  8
0
  9
$CELTYPE
  6
BYLAYER
  9
$CECOLOR
 62
   256
  9
$CELTSCALE
 40
1.0
  9
$DELOBJ
 70
     1
  9
$DISPSILH
 70
     0
  9
$DIMSCALE
 40
1.0
  9
$DIMASZ
 40
3.5
  9
$DIMEXO
 40
1.0
  9
$DIMDLI
 40
6.0
  9
$DIMRND
 40
0.0
  9
$DIMDLE
 40
0.0
  9
$DIMEXE
 40
1.0
  9
$DIMTP
 40
0.05
  9
$DIMTM
 40
0.05
  9
$DIMTXT
 40
2.5
  9
$DIMCEN
 40
0.09
  9
$DIMTSZ
 40
0.0
  9
$DIMTOL
 70
     0
  9
$DIMLIM
 70
     0
  9
$DIMTIH
 70
     0
  9
$DIMTOH
 70
     0
  9
$DIMSE1
 70
     0
  9
$DIMSE2
 70
     0
  9
$DIMTAD
 70
     1
  9
$DIMZIN
 70
     0
  9
$DIMBLK
  1

  9
$DIMASO
 70
     1
  9
$DIMSHO
 70
     0
  9
$DIMPOST
  1

  9
$DIMAPOST
  1

  9
$DIMALT
 70
     0
  9
$DIMALTD
 70
     2
  9
$DIMALTF
 40
25.4
  9
$DIMLFAC
 40
1.0
  9
$DIMTOFL
 70
     0
  9
$DIMTVP
 40
0.0
  9
$DIMTIX
 70
     0
  9
$DIMSOXD
 70
     0
  9
$DIMSAH
 70
     0
  9
$DIMBLK1
  1

  9
$DIMBLK2
  1

  9
$DIMSTYLE
  2
STANDARD
  9
$DIMCLRD
 70
     0
  9
$DIMCLRE
 70
     0
  9
$DIMCLRT
 70
     0
  9
$DIMTFAC
 40
1.0
  9
$DIMGAP
 40
0.09
  9
$DIMJUST
 70
     0
  9
$DIMSD1
 70
     0
  9
$DIMSD2
 70
     0
  9
$DIMTOLJ
 70
     1
  9
$DIMTZIN
 70
     0
  9
$DIMALTZ
 70
     0
  9
$DIMALTTZ
 70
     0
  9
$DIMFIT
 70
     5
  9
$DIMUPT
 70
     0
  9
$DIMUNIT
 70
     2
  9
$DIMDEC
 70
     2
  9
$DIMTDEC
 70
     2
  9
$DIMALTU
 70
     2
  9
$DIMALTTD
 70
     2
  9
$DIMTXSTY
  7
STANDARD
  9
$DIMAUNIT
 70
     0
  9
$LUNITS
 70
     2
  9
$LUPREC
 70
     2
  9
$SKETCHINC
 40
0.1
  9
$FILLETRAD
 40
1.5
  9
$AUNITS
 70
     0
  9
$AUPREC
 70
     0
  9
$MENU
  1
acad
  9
$ELEVATION
 40
0.0
  9
$PELEVATION
 40
0.0
  9
$THICKNESS
 40
0.0
  9
$LIMCHECK
 70
     1
  9
$BLIPMODE
 70
     0
  9
$CHAMFERA
 40
0.0
  9
$CHAMFERB
 40
0.0
  9
$CHAMFERC
 40
0.0
  9
$CHAMFERD
 40
0.0
  9
$SKPOLY
 70
     0
  9
$TDCREATE
 40
2451115.633922801
  9
$TDUPDATE
 40
2451709.479692326
  9
$TDINDWG
 40
0.0229234028
  9
$TDUSRTIMER
 40
0.0229234028
  9
$USRTIMER
 70
     1
  9
$ANGBASE
 50
0.0
  9
$ANGDIR
 70
     0
  9
$PDMODE
 70
     0
  9
$PDSIZE
 40
0.0
  9
$PLINEWID
 40
0.0
  9
$COORDS
 70
     1
  9
$SPLFRAME
 70
     0
  9
$SPLINETYPE
 70
     6
  9
$SPLINESEGS
 70
     8
  9
$ATTDIA
 70
     0
  9
$ATTREQ
 70
     1
  9
$HANDLING
 70
 10241
  9
$HANDSEED
  5
36A
  9
$SURFTAB1
 70
     6
  9
$SURFTAB2
 70
     6
  9
$SURFTYPE
 70
     6
  9
$SURFU
 70
     6
  9
$SURFV
 70
     6
  9
$UCSNAME
  2

  9
$UCSORG
 10
70.0
 20
220.0
 30
0.0
  9
$UCSXDIR
 10
1.0
 20
0.0
 30
0.0
  9
$UCSYDIR
 10
0.0
 20
1.0
 30
0.0
  9
$PUCSNAME
  2

  9
$PUCSORG
 10
0.0
 20
0.0
 30
0.0
  9
$PUCSXDIR
 10
1.0
 20
0.0
 30
0.0
  9
$PUCSYDIR
 10
0.0
 20
1.0
 30
0.0
  9
$USERI1
 70
     0
  9
$USERI2
 70
     0
  9
$USERI3
 70
     0
  9
$USERI4
 70
     0
  9
$USERI5
 70
     0
  9
$USERR1
 40
0.0
  9
$USERR2
 40
0.0
  9
$USERR3
 40
0.0
  9
$USERR4
 40
0.0
  9
$USERR5
 40
0.0
  9
$WORLDVIEW
 70
     1
  9
$SHADEDGE
 70
     3
  9
$SHADEDIF
 70
    70
  9
$TILEMODE
 70
     1
  9
$MAXACTVP
 70
    16
  9
$PINSBASE
 10
0.0
 20
0.0
 30
0.0
  9
$PLIMCHECK
 70
     0
  9
$PEXTMIN
 10
1.000000000000000E+20
 20
1.000000000000000E+20
 30
1.000000000000000E+20
  9
$PEXTMAX
 10
-1.000000000000000E+20
 20
-1.000000000000000E+20
 30
-1.000000000000000E+20
  9
$PLIMMIN
 10
0.0
 20
0.0
  9
$PLIMMAX
 10
12.0
 20
9.0
  9
$UNITMODE
 70
     0
  9
$VISRETAIN
 70
     0
  9
$PLINEGEN
 70
     0
  9
$PSLTSCALE
 70
     0
  9
$TREEDEPTH
 70
  3020
  9
$PICKSTYLE
 70
     1
  9
$CMLSTYLE
  2
STANDARD
  9
$CMLJUST
 70
     0
  9
$CMLSCALE
 40
1.0
  9
$PROXYGRAPHICS
 70
     1
  9
$MEASUREMENT
 70
     0
  0
ENDSEC
  0
SECTION
  2
CLASSES
  0
CLASS
  1
ACDBDICTIONARYWDFLT
  2
AcDbDictionaryWithDefault
  3
AutoCAD 2000
 90
        0
280
     0
281
     0
  0
CLASS
  1
ACDBPLACEHOLDER
  2
AcDbPlaceHolder
  3
AutoCAD 2000
 90
        0
280
     0
281
     0
  0
CLASS
  1
LAYOUT
  2
AcDbLayout
  3
AutoCAD 2000
 90
        0
280
     0
281
     0
  0
CLASS
  1
LONG_TRANSACTION
  2
AcDbLongTransaction
  3
AutoCAD 2000
 90
        0
280
     0
281
     0
  0
CLASS
  1
LWPOLYLINE
  2
AcDbPolyline
  3
AutoCAD 2000
 90
        0
280
     0
281
     1
  0
CLASS
  1
HATCH
  2
AcDbHatch
  3
AutoCAD 2000
 90
        0
280
     0
281
     1
  0
CLASS
  1
XRECORD
  2
AcDbXrecord
  3
AutoCAD 2000
 90
        0
280
     0
281
     0
  0
ENDSEC
  0
SECTION
  2
TABLES
  0
TABLE
  2
VPORT
  5
8
330
0
100
AcDbSymbolTable
 70
     2
  0
VPORT
  5
344
330
8
100
AcDbSymbolTableRecord
100
AcDbViewportTableRecord
  2
*ACTIVE
 70
     0
 10
0.0
 20
0.0
 11
1.0
 21
1.0
 12
312.7702040765089
 22
222.756592810569
 13
0.0
 23
0.0
 14
1.0
 24
1.0
 15
0.0
 25
0.0
 16
0.0
 26
0.0
 36
1.0
 17
0.0
 27
0.0
 37
0.0
 40
421.8999565748868
 41
1.653206650831353
 42
50.0
 43
0.0
 44
0.0
 50
0.0
 51
0.0
 71
     0
 72
   100
 73
     1
 74
     1
 75
     0
 76
     0
 77
     0
 78
     0
  0
ENDTAB
  0
TABLE
  2
LTYPE
  5
5
330
0
100
AcDbSymbolTable
 70
     3
  0
LTYPE
  5
13
330
5
100
AcDbSymbolTableRecord
100
AcDbLinetypeTableRecord
  2
BYBLOCK
 70
     0
  3

 72
    65
 73
     0
 40
0.0
  0
LTYPE
  5
14
330
5
100
AcDbSymbolTableRecord
100
AcDbLinetypeTableRecord
  2
BYLAYER
 70
     0
  3

 72
    65
 73
     0
 40
0.0
  0
LTYPE
  5
15
330
5
100
AcDbSymbolTableRecord
100
AcDbLinetypeTableRecord
  2
CONTINUOUS
 70
     0
  3
Solid line
 72
    65
 73
     0
 40
0.0
  0
LTYPE
  5
24
330
5
100
AcDbSymbolTableRecord
100
AcDbLinetypeTableRecord
  2
CENTER
 70
     0
  3
____ _ ____ _ ____ _ ____ _ ____ _ ____ _ ____
 72
    65
 73
     4
 40
2.0
 49
1.25
 74
     0
 49
-0.25
 74
     0
 49
0.25
 74
     0
 49
-0.25
 74
     0
  0
LTYPE
  5
25
330
5
100
AcDbSymbolTableRecord
100
AcDbLinetypeTableRecord
  2
CENT
 70
     0
  3
_____  __  _____  __ _____  __  _____  __  ____
 72
    65
 73
     4
 40
11.0
 49
5.0
 74
     0
 49
-2.0
 74
     0
 49
2.0
 74
     0
 49
-2.0
 74
     0
  0
ENDTAB
  0
TABLE
  2
LAYER
  5
2
330
0
100
AcDbSymbolTable
 70
     6
  0
LAYER
  5
10
330
2
100
AcDbSymbolTableRecord
100
AcDbLayerTableRecord
  2
0
 70
     0
 62
     7
  6
CONTINUOUS
  0
LAYER
  5
28
330
2
100
AcDbSymbolTableRecord
100
AcDbLayerTableRecord
  2
110-1
 70
     0
 62
    10
  6
CONTINUOUS
  0
LAYER
  5
29
330
2
100
AcDbSymbolTableRecord
100
AcDbLayerTableRecord
  2
DEFPOINTS
 70
     1
 62
    -7
  6
CONTINUOUS
  0
LAYER
  5
2A
330
2
100
AcDbSymbolTableRecord
100
AcDbLayerTableRecord
  2
110-1M
 70
     0
 62
     3
  6
CONTINUOUS
  0
LAYER
  5
2B
330
2
100
AcDbSymbolTableRecord
100
AcDbLayerTableRecord
  2
110-2DIM
 70
     0
 62
     1
  6
CONTINUOUS
  0
ENDTAB
  0
TABLE
  2
STYLE
  5
3
330
0
100
AcDbSymbolTable
 70
     3
  0
STYLE
  5
11
330
3
100
AcDbSymbolTableRecord
100
AcDbTextStyleTableRecord
  2
STANDARD
 70
     0
 40
0.0
 41
1.0
 50
0.0
 71
     0
 42
3.0
  3

  4

1001
ACAD
1000
Arial
1071
       34
  0
STYLE
  5
22
330
3
100
AcDbSymbolTableRecord
100
AcDbTextStyleTableRecord
  2
UV
 70
     0
 40
0.0
 41
1.0
 50
0.0
 71
     0
 42
2.0
  3

  4

1001
ACAD
1000
Arial
1071
       34
  0
STYLE
  5
23
330
3
100
AcDbSymbolTableRecord
100
AcDbTextStyleTableRecord
  2
TXT
 70
     0
 40
0.0
 41
1.0
 50
0.0
 71
     0
 42
3.0
  3

  4

1001
ACAD
1000
Arial
1071
       34
  0
ENDTAB
  0
TABLE
  2
VIEW
  5
6
330
0
100
AcDbSymbolTable
 70
     0
  0
ENDTAB
  0
TABLE
  2
UCS
  5
7
330
0
100
AcDbSymbolTable
 70
     0
  0
ENDTAB
  0
TABLE
  2
APPID
  5
9
330
0
100
AcDbSymbolTable
 70
     1
  0
APPID
  5
12
330
9
100
AcDbSymbolTableRecord
100
AcDbRegAppTableRecord
  2
ACAD
 70
     0
  0
ENDTAB
  0
TABLE
  2
DIMSTYLE
  5
A
330
0
100
AcDbSymbolTable
 70
     1
  0
DIMSTYLE
105
32B
330
A
100
AcDbSymbolTableRecord
100
AcDbDimStyleTableRecord
  2
STANDARD
 70
     0
  3

  4

  5

  6

  7

 40
1.0
 41
0.18
 42
0.0625
 43
0.38
 44
0.18
 45
0.0
 46
0.0
 47
0.0
 48
0.0
140
0.18
141
0.09
142
0.0
143
25.4
144
1.0
145
0.0
146
1.0
147
0.09
 71
     0
 72
     0
 73
     1
 74
     1
 75
     0
 76
     0
 77
     0
 78
     0
170
     0
171
     2
172
     0
173
     0
174
     0
175
     0
176
     0
177
     0
178
     0
270
     2
271
     4
272
     4
273
     2
274
     2
340
11
275
     0
280
     0
281
     0
282
     0
283
     1
284
     0
285
     0
286
     0
287
     3
288
     0
  0
ENDTAB
  0
TABLE
  2
BLOCK_RECORD
  5
1
330
0
100
AcDbSymbolTable
 70
     0
  0
BLOCK_RECORD
  5
1E
102
{ACAD_XDICTIONARY
360
368
102
}
330
1
100
AcDbSymbolTableRecord
100
AcDbBlockTableRecord
  2
*MODEL_SPACE
  0
BLOCK_RECORD
  5
1A
102
{ACAD_XDICTIONARY
360
366
102
}
330
1
100
AcDbSymbolTableRecord
100
AcDbBlockTableRecord
  2
*PAPER_SPACE
  0
ENDTAB
  0
ENDSEC
  0
SECTION
  2
BLOCKS
  0
BLOCK
  5
2E
330
1E
100
AcDbEntity
  8
0
100
AcDbBlockBegin
  2
*MODEL_SPACE
 70
     0
 10
0.0
 20
0.0
 30
0.0
  3
*MODEL_SPACE
  1

  0
ENDBLK
  5
2F
330
1E
100
AcDbEntity
  8
0
100
AcDbBlockEnd
  0
BLOCK
  5
2C
330
1A
100
AcDbEntity
 67
     1
  8
0
100
AcDbBlockBegin
  2
*PAPER_SPACE
 70
     0
 10
0.0
 20
0.0
 30
0.0
  3
*PAPER_SPACE
  1

  0
ENDBLK
  5
2D
330
1A
100
AcDbEntity
 67
     1
  8
0
100
AcDbBlockEnd
  0
ENDSEC
  0
SECTION
  2
ENTITIES
  0
TEXT
  5
30
330
1E
100
AcDbEntity
  8
110-1
 62
    14
100
AcDbText
 10
608.2759484950122
 20
22.52913774124936
 30
0.0
 40
3.75
  1
A3
  7
TXT
100
AcDbText
  0
TEXT
  5
32
330
1E
100
AcDbEntity
  8
110-1
100
AcDbText
 10
370.9430422919508
 20
81.56102362204725
 30
0.0
 40
1.875
  1
MM
  7
UV
 72
     1
 11
373.125
 21
81.56102362204725
 31
0.0
100
AcDbText
  0
LINE
  5
34
330
1E
100
AcDbEntity
  8
110-1
100
AcDbLine
 10
382.5
 20
100.5
 30
0.0
 11
382.5
 21
75.0
 31
0.0
  0
LINE
  5
35
330
1E
100
AcDbEntity
  8
110-1
100
AcDbLine
 10
412.5
 20
27.0
 30
0.0
 11
412.5
 21
21.0
 31
0.0
  0
TEXT
  5
36
330
1E
100
AcDbEntity
  8
110-1
100
AcDbText
 10
559.2576313096862
 20
98.06924239453868
 30
0.0
 40
1.875
  1
PATTERN NO.        MODEL NR.
  7
UV
 72
     4
 11
578.2499999999999
 21
99.00738188976378
 31
0.0
100
AcDbText
  0
LWPOLYLINE
  5
37
330
1E
100
AcDbEntity
  8
110-1
100
AcDbPolyline
 90
        2
 70
     0
 43
0.0
 10
345.0
 20
57.0
 10
615.0
 20
57.0
  0
LINE
  5
3B
330
1E
100
AcDbEntity
  8
110-1
100
AcDbLine
 10
379.4999999999999
 20
21.0
 30
0.0
 11
379.4999999999999
 21
15.0
 31
0.0
  0
LWPOLYLINE
  5
3C
330
1E
100
AcDbEntity
  8
110-1
100
AcDbPolyline
 90
        2
 70
     0
 43
0.0
 10
375.0
 20
45.0
 10
375.0
 20
27.0
  0
LWPOLYLINE
  5
40
330
1E
100
AcDbEntity
  8
110-1
100
AcDbPolyline
 90
        2
 70
     0
 43
0.0
 10
582.0
 20
57.0
 10
582.0
 20
21.0
  0
LWPOLYLINE
  5
44
330
1E
100
AcDbEntity
  8
110-1
100
AcDbPolyline
 90
        2
 70
     0
 43
0.0
 10
345.0
 20
102.0
 10
615.0
 20
102.0
  0
LWPOLYLINE
  5
48
330
1E
100
AcDbEntity
  8
110-1
100
AcDbPolyline
 90
        2
 70
     0
 43
0.0
 10
382.5
 20
102.0
 10
382.5
 20
27.0
  0
LWPOLYLINE
  5
4C
330
1E
100
AcDbEntity
  8
110-1
100
AcDbPolyline
 90
        2
 70
     0
 43
0.0
 10
345.0
 20
15.0
 10
615.0
 20
15.0
  0
TEXT
  5
50
330
1E
100
AcDbEntity
  8
110-1
100
AcDbText
 10
601.0522254433833
 20
105.4544657317278
 30
0.0
 40
1.875
  1
QUANT.
  7
UV
 72
     4
 11
606.0
 21
106.3356901519188
 31
0.0
100
AcDbText
  0
TEXT
  5
51
330
1E
100
AcDbEntity
  8
110-1
100
AcDbText
 10
601.7806105047749
 20
102.7341917378449
 30
0.0
 40
1.875
  1
ANTAL
  7
UV
 72
     4
 11
606.0
 21
103.6716917378449
 31
0.0
100
AcDbText
  0
LWPOLYLINE
  5
52
330
1E
100
AcDbEntity
  8
110-1
100
AcDbPolyline
 90
        3
 70
     0
 43
0.0
 10
354.22788568297
 20
115.8480762113533
 10
356.625
 20
111.0
 10
361.3028832742918
 20
119.0497627233652
  0
ARC
  5
57
330
1E
100
AcDbEntity
  8
110-1
100
AcDbCircle
 10
356.625
 20
111.0
 30
0.0
 40
5.408326913196027
100
AcDbArc
 50
59.83824471807211
 51
119.8382447180721
  0
LWPOLYLINE
  5
58
330
1E
100
AcDbEntity
  8
110-1
100
AcDbPolyline
 90
        3
 70
     0
 43
0.0
 10
372.0562277141405
 20
115.4547085887133
 10
374.6249999999999
 20
111.0
 10
379.3028832742918
 20
119.0497627233652
  0
LWPOLYLINE
  5
5D
330
1E
100
AcDbEntity
  8
110-1
100
AcDbPolyline
 90
        3
 70
     0
 43
0.0
 10
388.5562277141405
 20
115.4547085887133
 10
391.1249999999999
 20
111.0
 10
395.8028832742918
 20
119.0497627233652
  0
TEXT
  5
62
330
1E
100
AcDbEntity
  8
110-1
100
AcDbText
 10
348.0
 20
105.0
 30
0.0
 40
1.875
  1
. . R    IN MICROMETERS
  7
UV
100
AcDbText
  0
TEXT
  5
63
330
1E
100
AcDbEntity
  8
110-1
100
AcDbText
 10
352.4999999999999
 20
117.0
 30
0.0
 40
1.875
  1
. .
  7
UV
100
AcDbText
  0
TEXT
  5
64
330
1E
100
AcDbEntity
  8
110-1
100
AcDbText
 10
370.5
 20
117.0
 30
0.0
 40
1.875
  1
. .
  7
UV
100
AcDbText
  0
TEXT
  5
65
330
1E
100
AcDbEntity
  8
110-1
100
AcDbText
 10
387.0
 20
117.0
 30
0.0
 40
1.875
  1
. .
  7
UV
100
AcDbText
  0
ARC
  5
66
330
1E
100
AcDbEntity
  8
110-1
100
AcDbCircle
 10
391.1404716152678
 20
114.5378885415818
 30
0.0
 40
1.822172619051208
100
AcDbArc
 50
306.4847730898729
 51
299.2476703006309
  0
LWPOLYLINE
  5
67
330
1E
100
AcDbEntity
  8
110-1
100
AcDbPolyline
 90
        2
 70
     0
 43
0.0
 10
445.5
 20
111.0
 10
445.5
 20
102.0
  0
TEXT
  5
6B
330
1E
100
AcDbEntity
  8
110-1
100
AcDbText
 10
448.4475974606927
 20
105.3480286916986
 30
0.0
 40
1.875
  1
ANGLE
  7
UV
100
AcDbText
  0
TEXT
  5
6C
330
1E
100
AcDbEntity
  8
110-1
100
AcDbText
 10
448.4475974606927
 20
102.7850365657144
 30
0.0
 40
1.875
  1
VINKEL
  7
UV
100
AcDbText
  0
LWPOLYLINE
  5
6D
330
1E
100
AcDbEntity
  8
110-1
100
AcDbPolyline
 90
        4
 70
     1
 43
0.45
 10
486.0
 20
115.5
 10
489.0
 20
115.5
 10
489.0
 20
112.5
 10
486.0
 20
112.5
  0
LWPOLYLINE
  5
73
330
1E
100
AcDbEntity
  8
110-1
100
AcDbPolyline
 90
        4
 70
     1
 43
0.45
 10
496.4999999999999
 20
112.5
 10
499.5
 20
112.5
 10
499.5
 20
115.5
 10
496.4999999999999
 20
115.5
  0
LWPOLYLINE
  5
79
330
1E
100
AcDbEntity
  8
110-1
100
AcDbPolyline
 90
        4
 70
     1
 43
0.45
 10
499.5
 20
112.5
 10
502.5
 20
112.5
 10
502.5
 20
115.5
 10
499.5
 20
115.5
  0
LWPOLYLINE
  5
7F
330
1E
100
AcDbEntity
  8
110-1
100
AcDbPolyline
 90
        4
 70
     1
 43
0.45
 10
499.5
 20
106.4999999999999
 10
502.5
 20
106.4999999999999
 10
502.5
 20
109.4999999999999
 10
499.5
 20
109.4999999999999
  0
LWPOLYLINE
  5
85
330
1E
100
AcDbEntity
  8
110-1
100
AcDbPolyline
 90
        4
 70
     1
 43
0.45
 10
496.4999999999999
 20
106.4999999999999
 10
499.5
 20
106.4999999999999
 10
499.5
 20
109.4999999999999
 10
496.4999999999999
 20
109.4999999999999
  0
LWPOLYLINE
  5
8B
330
1E
100
AcDbEntity
  8
110-1
100
AcDbPolyline
 90
        4
 70
     1
 43
0.45
 10
502.5
 20
109.4999999999999
 10
505.4999999999999
 20
109.4999999999999
 10
505.4999999999999
 20
106.4999999999999
 10
502.5
 20
106.4999999999999
  0
TEXT
  5
91
330
1E
100
AcDbEntity
  8
110-1
100
AcDbText
 10
486.6264495225102
 20
113.0624999999999
 30
0.0
 40
1.875
  1
A
  7
UV
 72
     4
 11
487.5
 21
114.0
 31
0.0
100
AcDbText
  0
TEXT
  5
92
330
1E
100
AcDbEntity
  8
110-1
100
AcDbText
 10
503.1264495225102
 20
107.0624999999999
 30
0.0
 40
1.875
  1
A
  7
UV
 72
     4
 11
504.0
 21
108.0
 31
0.0
100
AcDbText
  0
LWPOLYLINE
  5
93
330
1E
100
AcDbEntity
  8
110-1
100
AcDbPolyline
 90
        2
 70
     0
 43
0.6000000000000001
 10
487.5
 20
112.5
 10
487.5
 20
108.0
  0
LWPOLYLINE
  5
97
330
1E
100
AcDbEntity
  8
110-1
100
AcDbPolyline
 90
        3
 70
     1
 43
0.0
 10
486.0
 20
108.0
 10
489.0
 20
108.0
 10
487.5
 20
109.4999999999999
  0
TEXT
  5
9C
330
1E
100
AcDbEntity
  8
110-1
100
AcDbText
 10
530.8715893587995
 20
105.3439960629921
 30
0.0
 40
1.875
  1
ITEM
  7
UV
 72
     4
 11
534.0
 21
106.2814960629921
 31
0.0
100
AcDbText
  0
TEXT
  5
9D
330
1E
100
AcDbEntity
  8
110-1
100
AcDbText
 10
531.2341831514324
 20
102.7803644417827
 30
0.0
 40
1.875
  1
POS
  7
UV
 72
     4
 11
534.0
 21
103.7185039370078
 31
0.0
100
AcDbText
  0
TEXT
  5
9E
330
1E
100
AcDbEntity
  8
110-1
100
AcDbText
 10
546.8363318553888
 20
104.0618605047749
 30
0.0
 40
1.875
  1
ASSEMBLY NO.         SAMLINGS NR.
  7
UV
 72
     4
 11
569.2499999999999
 21
105.0
 31
0.0
100
AcDbText
  0
LWPOLYLINE
  5
9F
330
1E
100
AcDbEntity
  8
110-1
100
AcDbPolyline
 90
        2
 70
     0
 43
0.0
 10
345.0
 20
120.0
 10
615.0
 20
120.0
  0
LWPOLYLINE
  5
A3
330
1E
100
AcDbEntity
  8
110-1
100
AcDbPolyline
 90
        2
 70
     0
 43
0.0
 10
541.5
 20
120.0
 10
541.5
 20
57.0
  0
LWPOLYLINE
  5
A7
330
1E
100
AcDbEntity
  8
110-1
100
AcDbPolyline
 90
        2
 70
     0
 43
0.0
 10
597.0
 20
120.0
 10
597.0
 20
102.0
  0
LWPOLYLINE
  5
AB
330
1E
100
AcDbEntity
  8
110-1
100
AcDbPolyline
 90
        2
 70
     0
 43
0.0
 10
597.0
 20
79.5
 10
597.0
 20
57.0
  0
LWPOLYLINE
  5
AF
330
1E
100
AcDbEntity
  8
110-1
100
AcDbPolyline
 90
        2
 70
     0
 43
0.0
 10
345.0
 20
120.0
 10
345.0
 20
15.0
  0
LWPOLYLINE
  5
B3
330
1E
100
AcDbEntity
  8
110-1
100
AcDbPolyline
 90
        2
 70
     0
 43
0.0
 10
615.0
 20
120.0
 10
615.0
 20
15.0
  0
LWPOLYLINE
  5
B7
330
1E
100
AcDbEntity
  8
110-1
100
AcDbPolyline
 90
        2
 70
     0
 43
0.0
 10
526.4999999999999
 20
108.0
 10
615.0
 20
108.0
  0
LWPOLYLINE
  5
BB
330
1E
100
AcDbEntity
  8
110-1
100
AcDbPolyline
 90
        2
 70
     0
 43
0.0
 10
541.635794117986
 20
96.01004544981339
 10
615.135794117986
 20
96.01004544981339
  0
LWPOLYLINE
  5
BF
330
1E
100
AcDbEntity
  8
110-1
100
AcDbPolyline
 90
        2
 70
     0
 43
0.0
 10
541.5
 20
73.5
 10
615.0
 20
73.5
  0
LWPOLYLINE
  5
C3
330
1E
100
AcDbEntity
  8
110-1
100
AcDbPolyline
 90
        2
 70
     0
 43
0.0
 10
363.75
 20
57.0
 10
363.75
 20
102.0
  0
LWPOLYLINE
  5
C7
330
1E
100
AcDbEntity
  8
110-1
100
AcDbPolyline
 90
        2
 70
     0
 43
0.0
 10
526.4999999999999
 20
120.0
 10
526.4999999999999
 20
102.0
  0
LWPOLYLINE
  5
CB
330
1E
100
AcDbEntity
  8
110-1
100
AcDbPolyline
 90
        2
 70
     0
 43
0.0
 10
526.4999999999999
 20
114.0
 10
615.0
 20
114.0
  0
LWPOLYLINE
  5
CF
330
1E
100
AcDbEntity
  8
110-1
100
AcDbPolyline
 90
        2
 70
     0
 43
0.0
 10
410.25
 20
120.0
 10
410.25
 20
102.0
  0
LWPOLYLINE
  5
D3
330
1E
100
AcDbEntity
  8
110-1
100
AcDbPolyline
 90
        2
 70
     0
 43
0.0
 10
480.75
 20
120.0
 10
480.75
 20
102.0
  0
TEXT
  5
D7
330
1E
100
AcDbEntity
  8
110-1
100
AcDbText
 10
351.9505124865063
 20
103.8648103778782
 30
0.0
 40
1.875
  1
A
  7
UV
100
AcDbText
  0
LWPOLYLINE
  5
D8
330
1E
100
AcDbEntity
  8
110-1
100
AcDbPolyline
 90
        2
 70
     0
 43
0.0
 10
345.0
 20
39.0
 10
382.5
 20
39.0
  0
LWPOLYLINE
  5
DC
330
1E
100
AcDbEntity
  8
110-1
100
AcDbPolyline
 90
        2
 70
     0
 43
0.0
 10
345.0
 20
33.0
 10
382.5
 20
33.0
  0
LWPOLYLINE
  5
E0
330
1E
100
AcDbEntity
  8
110-1
100
AcDbPolyline
 90
        5
 70
     0
 43
0.75
 10
345.0
 20
27.0
 10
382.5
 20
27.0
 10
382.5
 20
45.0
 10
345.0
 20
45.0
 10
345.0
 20
27.0
  0
LWPOLYLINE
  5
E7
330
1E
100
AcDbEntity
  8
110-1
100
AcDbPolyline
 90
        5
 70
     0
 43
0.75
 10
366.0
 20
63.0
 10
372.0
 20
61.5
 10
372.0
 20
67.5
 10
366.0
 20
66.0
 10
366.0
 20
63.0
  0
LWPOLYLINE
  5
EE
330
1E
100
AcDbEntity
  8
110-1
  6
CENTER
 62
     2
100
AcDbPolyline
 90
        2
 70
     0
 43
0.03
 10
364.5
 20
64.5
 10
381.0
 20
64.5
  0
LWPOLYLINE
  5
F2
330
1E
100
AcDbEntity
  8
110-1
  6
CENTER
 62
     2
100
AcDbPolyline
 90
        2
 70
     0
 43
0.03
 10
376.5
 20
69.0
 10
376.5
 20
60.0
  0
LWPOLYLINE
  5
F6
330
1E
100
AcDbEntity
  8
110-1
100
AcDbPolyline
 90
        2
 70
     0
 43
0.0
 10
345.0
 20
21.0
 10
615.0
 20
21.0
  0
LWPOLYLINE
  5
FA
330
1E
100
AcDbEntity
  8
110-1
100
AcDbPolyline
 90
        2
 70
     0
 43
0.0
 10
412.5
 20
27.0
 10
412.5
 20
15.0
  0
TEXT
  5
FE
330
1E
100
AcDbEntity
  8
110-1
100
AcDbText
 10
414.7568698379497
 20
17.0625
 30
0.0
 40
1.875
  1
DAT
  7
UV
 72
     4
 11
417.3762422799687
 21
18.0
 31
0.0
100
AcDbText
  0
LWPOLYLINE
  5
FF
330
1E
100
AcDbEntity
  8
110-1
100
AcDbPolyline
 90
        2
 70
     0
 43
0.0
 10
459.0
 20
15.0
 10
459.0
 20
21.0
  0
TEXT
  5
103
330
1E
100
AcDbEntity
  8
110-1
100
AcDbText
 10
386.5956879296808
 20
84.25151158537294
 30
0.0
 40
1.875
  1
MATERIAL
 50
90.0
  7
UV
 72
     4
 11
385.6581879296808
 21
90.8012216808709
 31
0.0
100
AcDbText
  0
TEXT
  5
104
330
1E
100
AcDbEntity
  8
110-1
100
AcDbText
 10
389.7994280871611
 20
84.25151158537294
 30
0.0
 40
1.875
  1
MATERIEL
 50
90.0
  7
UV
 72
     4
 11
388.8619280871611
 21
90.8012216808709
 31
0.0
100
AcDbText
  0
TEXT
  5
105
330
1E
100
AcDbEntity
  8
110-1
100
AcDbText
 10
386.5956879296808
 20
60.29793893871537
 30
0.0
 40
1.875
  1
TREATMENT
 50
90.0
  7
UV
 72
     4
 11
385.6581879296808
 21
68.3012216808709
 31
0.0
100
AcDbText
  0
TEXT
  5
106
330
1E
100
AcDbEntity
  8
110-1
100
AcDbText
 10
389.7994280871611
 20
59.78634275863352
 30
0.0
 40
1.875
  1
BEHANDLING
 50
90.0
  7
UV
 72
     4
 11
388.8619280871611
 21
68.3012216808709
 31
0.0
100
AcDbText
  0
TEXT
  5
107
330
1E
100
AcDbEntity
  8
110-1
100
AcDbText
 10
370.4444918144611
 20
99.0
 30
0.0
 40
1.875
  1
UNIT
  7
UV
 72
     1
 11
373.4999999999999
 21
99.0
 31
0.0
100
AcDbText
  0
TEXT
  5
108
330
1E
100
AcDbEntity
  8
110-1
100
AcDbText
 10
368.9154587312414
 20
95.79625984251968
 30
0.0
 40
1.875
  1
ENHED
  7
UV
 72
     1
 11
373.4999999999999
 21
95.79625984251968
 31
0.0
100
AcDbText
  0
TEXT
  5
109
330
1E
100
AcDbEntity
  8
110-1
100
AcDbText
 10
345.9336630286494
 20
99.0
 30
0.0
 40
1.875
  1
ROUGHNESS
  7
UV
 72
     1
 11
354.375
 21
99.0
 31
0.0
100
AcDbText
  0
TEXT
  5
10A
330
1E
100
AcDbEntity
  8
110-1
100
AcDbText
 10
349.7181957708049
 20
95.79625984251968
 30
0.0
 40
1.875
  1
RUHED
  7
UV
 72
     1
 11
354.375
 21
95.79625984251968
 31
0.0
100
AcDbText
  0
TEXT
  5
10B
330
1E
100
AcDbEntity
  8
110-1
100
AcDbText
 10
350.0801500682128
 20
76.5
 30
0.0
 40
1.875
  1
SCALE
  7
UV
 72
     1
 11
354.375
 21
76.5
 31
0.0
100
AcDbText
  0
TEXT
  5
10C
330
1E
100
AcDbEntity
  8
110-1
100
AcDbText
 10
350.150494542974
 20
73.29625984251968
 30
0.0
 40
1.875
  1
SKALA
  7
UV
 72
     1
 11
354.375
 21
73.29625984251968
 31
0.0
100
AcDbText
  0
TEXT
  5
10D
330
1E
100
AcDbEntity
  8
110-1
100
AcDbText
 10
369.6432042974079
 20
76.5
 30
0.0
 40
1.875
  1
PROJ.
  7
UV
 72
     1
 11
373.4999999999999
 21
76.5
 31
0.0
100
AcDbText
  0
TEXT
  5
10E
330
1E
100
AcDbEntity
  8
110-1
100
AcDbText
 10
368.4786834924965
 20
73.29625984251968
 30
0.0
 40
1.875
  1
EUROP.
  7
UV
 72
     1
 11
373.4999999999999
 21
73.29625984251968
 31
0.0
100
AcDbText
  0
TEXT
  5
10F
330
1E
100
AcDbEntity
  8
110-1
100
AcDbText
 10
412.490606176567
 20
105.4320299646368
 30
0.0
 40
1.875
  1
DIMENSION
  7
UV
100
AcDbText
  0
TEXT
  5
110
330
1E
100
AcDbEntity
  8
110-1
100
AcDbText
 10
412.490606176567
 20
102.7835214796568
 30
0.0
 40
1.875
  1
MèL
  7
UV
100
AcDbText
  0
TEXT
  5
111
330
1E
100
AcDbEntity
  8
110-1
100
AcDbText
 10
346.50025579809
 20
53.0618605047749
 30
0.0
 40
1.875
  1
CLASS NO.       KLASSE NR.
  7
UV
 72
     4
 11
363.75
 21
54.0
 31
0.0
100
AcDbText
  0
TEXT
  5
112
330
1E
100
AcDbEntity
  8
110-1
100
AcDbText
 10
346.54208130816
 20
24.26329573052811
 30
0.0
 40
1.874999999999998
  1
NAME
  7
UV
100
AcDbText
  0
TEXT
  5
113
330
1E
100
AcDbEntity
  8
110-1
100
AcDbText
 10
346.54208130816
 20
21.65559450884281
 30
0.0
 40
1.874999999999998
  1
NAVN
  7
UV
100
AcDbText
  0
TEXT
  5
114
330
1E
100
AcDbEntity
  8
110-1
100
AcDbText
 10
414.0
 20
24.2872992910108
 30
0.0
 40
1.875
  1
SUPERS.
  7
UV
100
AcDbText
  0
TEXT
  5
115
330
1E
100
AcDbEntity
  8
110-1
100
AcDbText
 10
414.0
 20
21.6929801854909
 30
0.0
 40
1.875
  1
ERST.
  7
UV
100
AcDbText
  0
TEXT
  5
116
330
1E
100
AcDbEntity
  8
110-1
100
AcDbText
 10
496.9235874165306
 20
24.41997787235573
 30
0.0
 40
1.874999999999999
  1
SH
  7
UV
 72
     4
 11
498.7429513319467
 21
25.35747787235573
 31
0.0
100
AcDbText
  0
TEXT
  5
117
330
1E
100
AcDbEntity
  8
110-1
100
AcDbText
 10
497.1410157930654
 20
21.8456080465622
 30
0.0
 40
1.874999999999999
  1
BL
  7
UV
 72
     4
 11
498.7429513319467
 21
22.7831080465622
 31
0.0
100
AcDbText
  0
TEXT
  5
118
330
1E
100
AcDbEntity
  8
110-1
100
AcDbText
 10
504.9834319535214
 20
24.41997787235573
 30
0.0
 40
1.874999999999999
  1
SH
  7
UV
 72
     4
 11
506.8027958689375
 21
25.35747787235573
 31
0.0
100
AcDbText
  0
TEXT
  5
119
330
1E
100
AcDbEntity
  8
110-1
100
AcDbText
 10
505.2008603300562
 20
21.8456080465622
 30
0.0
 40
1.874999999999999
  1
BL
  7
UV
 72
     4
 11
506.8027958689375
 21
22.7831080465622
 31
0.0
100
AcDbText
  0
TEXT
  5
11A
330
1E
100
AcDbEntity
  8
110-1
100
AcDbText
 10
588.0667633015007
 20
22.89418485675307
 30
0.0
 40
2.25
  1
KU
  7
UV
 72
     4
 11
590.2499999999999
 21
24.0
 31
0.0
100
AcDbText
  0
TEXT
  5
11B
330
1E
100
AcDbEntity
  8
110-1
100
AcDbText
 10
599.8944832878581
 20
23.0618605047749
 30
0.0
 40
1.875
  1
FORM
  7
UV
 72
     4
 11
603.75
 21
24.0
 31
0.0
100
AcDbText
  0
TEXT
  5
11C
330
1E
100
AcDbEntity
  8
110-1
100
AcDbText
 10
489.481412005457
 20
16.90309750674071
 30
0.0
 40
2.25
  1
Pro TeleVision Tecnologies A/S-Kornmarksvej 21-DK-2605 Br¯ndby
  7
UV
 72
     4
 11
537.0
 21
17.71653543307086
 31
0.0
100
AcDbText
  0
TEXT
  5
11D
330
1E
100
AcDbEntity
  8
110-1
100
AcDbText
 10
550.8402114597544
 20
75.5618605047749
 30
0.0
 40
1.875
  1
ORDER NO.          ORDRE NR.
  7
UV
 72
     4
 11
569.2499999999999
 21
76.5
 31
0.0
100
AcDbText
  0
TEXT
  5
11E
330
1E
100
AcDbEntity
  8
110-1
100
AcDbText
 10
601.0522254433833
 20
76.9601721196772
 30
0.0
 40
1.874999999999999
  1
QUANT.
  7
UV
 72
     4
 11
606.0
 21
77.84139653986819
 31
0.0
100
AcDbText
  0
TEXT
  5
11F
330
1E
100
AcDbEntity
  8
110-1
100
AcDbText
 10
601.7806105047749
 20
74.22848534989558
 30
0.0
 40
1.874999999999999
  1
ANTAL
  7
UV
 72
     4
 11
606.0
 21
75.16598534989558
 31
0.0
100
AcDbText
  0
TEXT
  5
120
330
1E
100
AcDbEntity
  8
110-1
100
AcDbText
 10
417.5664648703956
 20
116.6246336672167
 30
0.0
 40
1.875
  1
TOLERANCES UNLESS OTHERWISE STATED
  7
UV
 72
     1
 11
445.875
 21
116.6246336672167
 31
0.0
100
AcDbText
  0
TEXT
  5
121
330
1E
100
AcDbEntity
  8
110-1
100
AcDbText
 10
416.4761255115961
 20
114.0003663327832
 30
0.0
 40
1.875
  1
TOLERANCE HVOR INTET ANDET ER ANGIVET
  7
UV
 72
     1
 11
445.875
 21
114.0003663327832
 31
0.0
100
AcDbText
  0
LWPOLYLINE
  5
122
330
1E
100
AcDbEntity
  8
110-1
100
AcDbPolyline
 90
        2
 70
     0
 43
0.0
 10
502.5
 20
27.0
 10
502.5
 20
21.0
  0
LWPOLYLINE
  5
126
330
1E
100
AcDbEntity
  8
110-1
 62
    13
100
AcDbPolyline
 90
        2
 70
     1
 43
0.4499999999999998
 10
373.4999999999999
 20
64.5
 42
1.0
 10
379.4999999999999
 20
64.5
 42
1.0
  0
LWPOLYLINE
  5
12A
330
1E
100
AcDbEntity
  8
110-1
 62
    13
100
AcDbPolyline
 90
        2
 70
     1
 43
0.45
 10
375.0
 20
64.5
 42
1.0
 10
378.0
 20
64.5
 42
1.0
  0
LWPOLYLINE
  5
12E
330
1E
100
AcDbEntity
  8
110-1
100
AcDbPolyline
 90
        2
 70
     0
 43
0.0
 10
357.0
 20
21.0
 10
357.0
 20
15.0
  0
LWPOLYLINE
  5
132
330
1E
100
AcDbEntity
  8
110-1
100
AcDbPolyline
 90
        2
 70
     0
 43
0.0
 10
379.4999999999999
 20
21.0
 10
379.4999999999999
 20
15.0
  0
TEXT
  5
136
330
1E
100
AcDbEntity
  8
110-1
100
AcDbText
 10
380.7851423842725
 20
18.33607146894169
 30
0.0
 40
1.875
  1
CHECK
  7
UV
100
AcDbText
  0
TEXT
  5
137
330
1E
100
AcDbEntity
  8
110-1
100
AcDbText
 10
380.7851423842725
 20
15.66860315799327
 30
0.0
 40
1.875
  1
KONTROL
  7
UV
100
AcDbText
  0
LWPOLYLINE
  5
138
330
1E
100
AcDbEntity
  8
110-1
100
AcDbPolyline
 90
        2
 70
     0
 43
0.0
 10
487.5
 20
27.0
 10
487.5
 20
21.0
  0
LWPOLYLINE
  5
13C
330
1E
100
AcDbEntity
  8
110-1
100
AcDbPolyline
 90
        2
 70
     0
 43
0.0
 10
574.5
 20
51.0
 10
615.0
 20
51.0
  0
LWPOLYLINE
  5
140
330
1E
100
AcDbEntity
  8
110-1
100
AcDbPolyline
 90
        2
 70
     0
 43
0.0
 10
574.5
 20
45.0
 10
615.0
 20
45.0
  0
LWPOLYLINE
  5
144
330
1E
100
AcDbEntity
  8
110-1
100
AcDbPolyline
 90
        2
 70
     0
 43
0.0
 10
574.5
 20
39.0
 10
615.0
 20
39.0
  0
LWPOLYLINE
  5
148
330
1E
100
AcDbEntity
  8
110-1
100
AcDbPolyline
 90
        2
 70
     0
 43
0.0
 10
574.5
 20
33.0
 10
615.0
 20
33.0
  0
LWPOLYLINE
  5
14C
330
1E
100
AcDbEntity
  8
110-1
100
AcDbPolyline
 90
        2
 70
     0
 43
0.0
 10
559.4999999999999
 20
27.0
 10
559.4999999999999
 20
21.0
  0
LWPOLYLINE
  5
150
330
1E
100
AcDbEntity
  8
110-1
100
AcDbPolyline
 90
        2
 70
     0
 43
0.0
 10
598.5
 20
27.0
 10
598.5
 20
21.0
  0
LWPOLYLINE
  5
154
330
1E
100
AcDbEntity
  8
110-1
100
AcDbPolyline
 90
        4
 70
     1
 43
0.75
 10
502.5
 20
21.0
 10
615.0
 20
21.0
 10
615.0
 20
57.0
 10
502.5
 20
57.0
  0
LWPOLYLINE
  5
15A
330
1E
100
AcDbEntity
  8
110-1
100
AcDbPolyline
 90
        2
 70
     0
 43
0.0
 10
345.0
 20
79.5
 10
615.0
 20
79.5
  0
TEXT
  5
15E
330
1E
100
AcDbEntity
  8
110-1
100
AcDbText
 10
395.1773066934896
 20
112.5361160192184
 30
0.0
 40
1.875
  1
UN - D 28
  7
UV
100
AcDbText
  0
TEXT
  5
15F
330
1E
100
AcDbEntity
  8
110-1
100
AcDbText
 10
395.1773066934896
 20
109.3323758617381
 30
0.0
 40
1.875
  1
ISO 1302 
  7
UV
100
AcDbText
  0
TEXT
  5
160
330
1E
100
AcDbEntity
  8
110-1
100
AcDbText
 10
510.18331672905
 20
116.3756073532116
 30
0.0
 40
1.875
  1
UN - D 603
  7
UV
100
AcDbText
  0
TEXT
  5
161
330
1E
100
AcDbEntity
  8
110-1
100
AcDbText
 10
510.18331672905
 20
113.1718671957313
 30
0.0
 40
1.875
  1
ISO 1101
  7
UV
100
AcDbText
  0
TEXT
  5
162
330
1E
100
AcDbEntity
  8
110-1
100
AcDbText
 10
510.18331672905
 20
106.7643868807707
 30
0.0
 40
1.875
  1
UN - D 1660
  7
UV
100
AcDbText
  0
TEXT
  5
163
330
1E
100
AcDbEntity
  8
110-1
100
AcDbText
 10
510.18331672905
 20
103.5606467232904
 30
0.0
 40
1.875
  1
ISO 5459
  7
UV
100
AcDbText
  0
LWPOLYLINE
  5
164
330
1E
100
AcDbEntity
  8
110-1
100
AcDbPolyline
 90
        2
 70
     0
 43
0.0
 10
615.0
 20
27.0
 10
345.0
 20
27.0
  0
LINE
  5
168
330
1E
100
AcDbEntity
  8
110-1
100
AcDbLine
 10
30.0
 20
15.0
 30
0.0
 11
615.0
 21
15.0
 31
0.0
  0
LINE
  5
169
330
1E
100
AcDbEntity
  8
110-1
100
AcDbLine
 10
615.0
 20
15.0
 30
0.0
 11
615.0
 21
430.4999999999999
 31
0.0
  0
LINE
  5
16A
330
1E
100
AcDbEntity
  8
110-1
100
AcDbLine
 10
615.0
 20
430.4999999999999
 30
0.0
 11
30.0
 21
430.4999999999999
 31
0.0
  0
LINE
  5
16B
330
1E
100
AcDbEntity
  8
110-1
100
AcDbLine
 10
30.0
 20
430.4999999999999
 30
0.0
 11
30.0
 21
15.0
 31
0.0
  0
TEXT
  5
16C
330
1E
100
AcDbEntity
  8
110-1
100
AcDbText
 10
13.92857142857143
 20
168.4890859481582
 30
0.0
 40
3.0
  1
PROPERTY OF PRO TELEVISION TECHNOLOGIES A/S
 50
90.0
 72
     1
 11
13.92857142857143
 21
222.75
 31
0.0
100
AcDbText
  0
TEXT
  5
16D
330
1E
100
AcDbEntity
  8
110-1
100
AcDbText
 10
19.07142857142855
 20
188.4014324693042
 30
0.0
 40
3.0
  1
ALL RIGHTS STRICLY RESERVED.
 50
90.0
 72
     1
 11
19.07142857142856
 21
222.75
 31
0.0
100
AcDbText
  0
LINE
  5
16E
330
1E
100
AcDbEntity
  8
110-1M
100
AcDbLine
 10
70.0
 20
220.0
 30
0.0
 11
70.0
 21
264.0
 31
0.0
  0
LINE
  5
16F
330
1E
100
AcDbEntity
  8
110-1M
100
AcDbLine
 10
70.0
 20
264.0
 30
0.0
 11
494.0
 21
264.0
 31
0.0
  0
LINE
  5
170
330
1E
100
AcDbEntity
  8
110-1M
100
AcDbLine
 10
494.0
 20
264.0
 30
0.0
 11
494.0
 21
220.0
 31
0.0
  0
LINE
  5
171
330
1E
100
AcDbEntity
  8
110-1M
100
AcDbLine
 10
494.0
 20
220.0
 30
0.0
 11
70.0
 21
220.0
 31
0.0
  0
LINE
  5
172
330
1E
100
AcDbEntity
  8
110-1M
100
AcDbLine
 10
70.0
 20
222.5
 30
0.0
 11
494.0
 21
222.5
 31
0.0
  0
LINE
  5
173
330
1E
100
AcDbEntity
  8
110-1M
100
AcDbLine
 10
70.0
 20
261.5
 30
0.0
 11
494.0
 21
261.5
 31
0.0
  0
LINE
  5
174
330
1E
100
AcDbEntity
  8
110-1M
100
AcDbLine
 10
540.0
 20
222.0
 30
0.0
 11
547.5999999999999
 21
222.0
 31
0.0
  0
LINE
  5
175
330
1E
100
AcDbEntity
  8
110-1M
100
AcDbLine
 10
547.5999999999999
 20
222.0
 30
0.0
 11
547.5999999999999
 21
220.0
 31
0.0
  0
LINE
  5
176
330
1E
100
AcDbEntity
  8
110-1M
100
AcDbLine
 10
547.5999999999999
 20
220.0
 30
0.0
 11
554.1
 21
220.0
 31
0.0
  0
LINE
  5
177
330
1E
100
AcDbEntity
  8
110-1M
100
AcDbLine
 10
555.6
 20
221.4999999999999
 30
0.0
 11
555.6
 21
222.5
 31
0.0
  0
LINE
  5
178
330
1E
100
AcDbEntity
  8
110-1M
100
AcDbLine
 10
555.6
 20
222.5
 30
0.0
 11
555.1
 21
222.5
 31
0.0
  0
LINE
  5
179
330
1E
100
AcDbEntity
  8
110-1M
100
AcDbLine
 10
555.1
 20
222.5
 30
0.0
 11
555.1
 21
261.5
 31
0.0
  0
LINE
  5
17A
330
1E
100
AcDbEntity
  8
110-1M
100
AcDbLine
 10
555.1
 20
261.5
 30
0.0
 11
555.6
 21
261.5
 31
0.0
  0
LINE
  5
17B
330
1E
100
AcDbEntity
  8
110-1M
100
AcDbLine
 10
555.6
 20
261.5
 30
0.0
 11
555.6
 21
262.5
 31
0.0
  0
LINE
  5
17C
330
1E
100
AcDbEntity
  8
110-1M
100
AcDbLine
 10
554.1
 20
264.0
 30
0.0
 11
547.5999999999999
 21
264.0
 31
0.0
  0
LINE
  5
17D
330
1E
100
AcDbEntity
  8
110-1M
100
AcDbLine
 10
547.5999999999999
 20
264.0
 30
0.0
 11
547.5999999999999
 21
262.0
 31
0.0
  0
LINE
  5
17E
330
1E
100
AcDbEntity
  8
110-1M
100
AcDbLine
 10
547.5999999999999
 20
262.0
 30
0.0
 11
540.0
 21
262.0
 31
0.0
  0
LINE
  5
17F
330
1E
100
AcDbEntity
  8
110-1M
100
AcDbLine
 10
540.0
 20
262.0
 30
0.0
 11
540.0
 21
260.0
 31
0.0
  0
LINE
  5
180
330
1E
100
AcDbEntity
  8
110-1M
100
AcDbLine
 10
540.0
 20
260.0
 30
0.0
 11
549.6
 21
260.0
 31
0.0
  0
LINE
  5
181
330
1E
100
AcDbEntity
  8
110-1M
100
AcDbLine
 10
549.6
 20
260.0
 30
0.0
 11
549.6
 21
262.0
 31
0.0
  0
LINE
  5
182
330
1E
100
AcDbEntity
  8
110-1M
100
AcDbLine
 10
549.6
 20
262.0
 30
0.0
 11
553.6
 21
262.0
 31
0.0
  0
LINE
  5
183
330
1E
100
AcDbEntity
  8
110-1M
100
AcDbLine
 10
553.6
 20
262.0
 30
0.0
 11
553.6
 21
222.0
 31
0.0
  0
LINE
  5
184
330
1E
100
AcDbEntity
  8
110-1M
100
AcDbLine
 10
553.6
 20
222.0
 30
0.0
 11
549.6
 21
222.0
 31
0.0
  0
LINE
  5
185
330
1E
100
AcDbEntity
  8
110-1M
100
AcDbLine
 10
549.6
 20
222.0
 30
0.0
 11
549.6
 21
224.0
 31
0.0
  0
LINE
  5
186
330
1E
100
AcDbEntity
  8
110-1M
100
AcDbLine
 10
549.6
 20
224.0
 30
0.0
 11
540.0
 21
224.0
 31
0.0
  0
LINE
  5
187
330
1E
100
AcDbEntity
  8
110-1M
100
AcDbLine
 10
540.0
 20
224.0
 30
0.0
 11
540.0
 21
222.0
 31
0.0
  0
ARC
  5
188
330
1E
100
AcDbEntity
  8
110-1M
100
AcDbCircle
 10
554.1
 20
262.5
 30
0.0
 40
1.5
100
AcDbArc
 50
0.0
 51
90.0
  0
ARC
  5
189
330
1E
100
AcDbEntity
  8
110-1M
100
AcDbCircle
 10
554.1
 20
221.4999999999999
 30
0.0
 40
1.5
100
AcDbArc
 50
270.0
 51
0.0
  0
LINE
  5
18A
330
1E
100
AcDbEntity
  8
110-1M
100
AcDbLine
 10
547.5999999999999
 20
262.0
 30
0.0
 11
547.5999999999999
 21
260.0
 31
0.0
  0
LINE
  5
18B
330
1E
100
AcDbEntity
  8
110-1M
100
AcDbLine
 10
547.5999999999999
 20
222.0
 30
0.0
 11
547.5999999999999
 21
224.0
 31
0.0
  0
LINE
  5
18C
330
1E
100
AcDbEntity
  8
110-1M
100
AcDbLine
 10
74.0
 20
340.0
 30
0.0
 11
74.0
 21
347.6
 31
0.0
  0
LINE
  5
18D
330
1E
100
AcDbEntity
  8
110-1M
100
AcDbLine
 10
74.0
 20
347.6
 30
0.0
 11
70.0
 21
347.6
 31
0.0
  0
LINE
  5
18E
330
1E
100
AcDbEntity
  8
110-1M
100
AcDbLine
 10
70.0
 20
347.6
 30
0.0
 11
70.0
 21
355.6
 31
0.0
  0
LINE
  5
18F
330
1E
100
AcDbEntity
  8
110-1M
100
AcDbLine
 10
70.0
 20
355.6
 30
0.0
 11
494.0
 21
355.6
 31
0.0
  0
LINE
  5
190
330
1E
100
AcDbEntity
  8
110-1M
100
AcDbLine
 10
494.0
 20
355.6
 30
0.0
 11
494.0
 21
347.6
 31
0.0
  0
LINE
  5
191
330
1E
100
AcDbEntity
  8
110-1M
100
AcDbLine
 10
494.0
 20
347.6
 30
0.0
 11
490.0
 21
347.6
 31
0.0
  0
LINE
  5
192
330
1E
100
AcDbEntity
  8
110-1M
100
AcDbLine
 10
490.0
 20
347.6
 30
0.0
 11
490.0
 21
340.0
 31
0.0
  0
LINE
  5
193
330
1E
100
AcDbEntity
  8
110-1M
100
AcDbLine
 10
490.0
 20
340.0
 30
0.0
 11
74.0
 21
340.0
 31
0.0
  0
LINE
  5
194
330
1E
100
AcDbEntity
  8
110-1M
100
AcDbLine
 10
74.0
 20
347.6
 30
0.0
 11
490.0
 21
347.6
 31
0.0
  0
LINE
  5
195
330
1E
100
AcDbEntity
  8
110-1M
100
AcDbLine
 10
70.0
 20
130.0
 30
0.0
 11
70.0
 21
138.0
 31
0.0
  0
LINE
  5
196
330
1E
100
AcDbEntity
  8
110-1M
100
AcDbLine
 10
70.0
 20
138.0
 30
0.0
 11
81.0
 21
138.0
 31
0.0
  0
LINE
  5
197
330
1E
100
AcDbEntity
  8
110-1M
100
AcDbLine
 10
81.0
 20
138.0
 30
0.0
 11
81.0
 21
145.5999999999999
 31
0.0
  0
LINE
  5
198
330
1E
100
AcDbEntity
  8
110-1M
100
AcDbLine
 10
81.0
 20
145.5999999999999
 30
0.0
 11
483.0
 21
145.5999999999999
 31
0.0
  0
LINE
  5
199
330
1E
100
AcDbEntity
  8
110-1M
100
AcDbLine
 10
483.0
 20
145.5999999999999
 30
0.0
 11
483.0
 21
138.0
 31
0.0
  0
LINE
  5
19A
330
1E
100
AcDbEntity
  8
110-1M
100
AcDbLine
 10
483.0
 20
138.0
 30
0.0
 11
494.0
 21
138.0
 31
0.0
  0
LINE
  5
19B
330
1E
100
AcDbEntity
  8
110-1M
100
AcDbLine
 10
494.0
 20
138.0
 30
0.0
 11
494.0
 21
130.0
 31
0.0
  0
LINE
  5
19C
330
1E
100
AcDbEntity
  8
110-1M
100
AcDbLine
 10
494.0
 20
130.0
 30
0.0
 11
70.0
 21
130.0
 31
0.0
  0
LINE
  5
19D
330
1E
100
AcDbEntity
  8
110-1M
100
AcDbLine
 10
81.0
 20
138.0
 30
0.0
 11
483.0
 21
138.0
 31
0.0
  0
CIRCLE
  5
19E
330
1E
100
AcDbEntity
  8
110-1M
100
AcDbCircle
 10
90.0
 20
141.8
 30
0.0
 40
1.5
  0
LWPOLYLINE
  5
19F
330
1E
100
AcDbEntity
  8
110-1M
100
AcDbPolyline
 90
        6
 70
     1
 43
0.0
 10
88.6143593539449
 20
144.2
 10
87.2287187078898
 20
141.8
 10
88.61435935394489
 20
139.4
 10
91.38564064605509
 20
139.4
 10
92.77128129211019
 20
141.8
 10
91.3856406460551
 20
144.2
  0
LINE
  5
1A7
330
1E
100
AcDbEntity
  8
110-2DIM
100
AcDbLine
 10
85.0
 20
141.8
 30
0.0
 11
95.0
 21
141.8
 31
0.0
  0
LINE
  5
1A8
330
1E
100
AcDbEntity
  8
110-2DIM
100
AcDbLine
 10
90.0
 20
138.5
 30
0.0
 11
90.0
 21
144.8890428217322
 31
0.0
  0
LINE
  5
1A9
330
1E
100
AcDbEntity
  8
110-2DIM
100
AcDbLine
 10
181.0
 20
141.8
 30
0.0
 11
191.0
 21
141.8
 31
0.0
  0
LWPOLYLINE
  5
1AA
330
1E
100
AcDbEntity
  8
110-1M
100
AcDbPolyline
 90
        6
 70
     1
 43
0.0
 10
184.6143593539449
 20
144.2
 10
183.2287187078898
 20
141.8
 10
184.6143593539449
 20
139.4
 10
187.385640646055
 20
139.4
 10
188.7712812921101
 20
141.8
 10
187.385640646055
 20
144.2
  0
LINE
  5
1B2
330
1E
100
AcDbEntity
  8
110-2DIM
100
AcDbLine
 10
186.0
 20
138.5
 30
0.0
 11
186.0
 21
144.8890428217322
 31
0.0
  0
CIRCLE
  5
1B3
330
1E
100
AcDbEntity
  8
110-1M
100
AcDbCircle
 10
186.0
 20
141.8
 30
0.0
 40
1.5
  0
LWPOLYLINE
  5
1B4
330
1E
100
AcDbEntity
  8
110-1M
100
AcDbPolyline
 90
        6
 70
     1
 43
0.0
 10
280.6143593539449
 20
144.2
 10
279.2287187078898
 20
141.8
 10
280.6143593539449
 20
139.4
 10
283.3856406460551
 20
139.4
 10
284.7712812921102
 20
141.8
 10
283.3856406460551
 20
144.2
  0
LINE
  5
1BC
330
1E
100
AcDbEntity
  8
110-2DIM
100
AcDbLine
 10
277.0
 20
141.8
 30
0.0
 11
287.0
 21
141.8
 31
0.0
  0
LINE
  5
1BD
330
1E
100
AcDbEntity
  8
110-2DIM
100
AcDbLine
 10
282.0
 20
138.5
 30
0.0
 11
282.0
 21
144.8890428217322
 31
0.0
  0
CIRCLE
  5
1BE
330
1E
100
AcDbEntity
  8
110-1M
100
AcDbCircle
 10
282.0
 20
141.8
 30
0.0
 40
1.5
  0
LINE
  5
1BF
330
1E
100
AcDbEntity
  8
110-2DIM
100
AcDbLine
 10
373.0
 20
141.8
 30
0.0
 11
383.0
 21
141.8
 31
0.0
  0
LWPOLYLINE
  5
1C0
330
1E
100
AcDbEntity
  8
110-1M
100
AcDbPolyline
 90
        6
 70
     1
 43
0.0
 10
376.6143593539449
 20
144.2
 10
375.2287187078898
 20
141.8
 10
376.6143593539449
 20
139.4
 10
379.385640646055
 20
139.4
 10
380.7712812921101
 20
141.8
 10
379.385640646055
 20
144.2
  0
LINE
  5
1C8
330
1E
100
AcDbEntity
  8
110-2DIM
100
AcDbLine
 10
378.0
 20
138.5
 30
0.0
 11
378.0
 21
144.8890428217322
 31
0.0
  0
CIRCLE
  5
1C9
330
1E
100
AcDbEntity
  8
110-1M
100
AcDbCircle
 10
378.0
 20
141.8
 30
0.0
 40
1.5
  0
LWPOLYLINE
  5
1CA
330
1E
100
AcDbEntity
  8
110-1M
100
AcDbPolyline
 90
        6
 70
     1
 43
0.0
 10
472.6143593539449
 20
144.2
 10
471.2287187078898
 20
141.8
 10
472.6143593539449
 20
139.4
 10
475.3856406460551
 20
139.4
 10
476.7712812921102
 20
141.8
 10
475.3856406460551
 20
144.2
  0
LINE
  5
1D2
330
1E
100
AcDbEntity
  8
110-2DIM
100
AcDbLine
 10
469.0
 20
141.8
 30
0.0
 11
479.0
 21
141.8
 31
0.0
  0
LINE
  5
1D3
330
1E
100
AcDbEntity
  8
110-2DIM
100
AcDbLine
 10
474.0
 20
138.5
 30
0.0
 11
474.0
 21
144.8890428217322
 31
0.0
  0
CIRCLE
  5
1D4
330
1E
100
AcDbEntity
  8
110-1M
100
AcDbCircle
 10
474.0
 20
141.8
 30
0.0
 40
1.5
  0
LINE
  5
1D5
330
1E
100
AcDbEntity
  8
110-2DIM
100
AcDbLine
 10
85.0
 20
343.8
 30
0.0
 11
95.0
 21
343.8
 31
0.0
  0
LWPOLYLINE
  5
1D6
330
1E
100
AcDbEntity
  8
110-1M
100
AcDbPolyline
 90
        6
 70
     1
 43
0.0
 10
88.6143593539449
 20
346.2
 10
87.2287187078898
 20
343.8
 10
88.61435935394489
 20
341.3999999999999
 10
91.38564064605509
 20
341.3999999999999
 10
92.77128129211019
 20
343.8
 10
91.3856406460551
 20
346.2
  0
LINE
  5
1DE
330
1E
100
AcDbEntity
  8
110-2DIM
100
AcDbLine
 10
90.0
 20
340.5
 30
0.0
 11
90.0
 21
346.8890428217322
 31
0.0
  0
CIRCLE
  5
1DF
330
1E
100
AcDbEntity
  8
110-1M
100
AcDbCircle
 10
90.0
 20
343.8
 30
0.0
 40
1.5
  0
LWPOLYLINE
  5
1E0
330
1E
100
AcDbEntity
  8
110-1M
100
AcDbPolyline
 90
        6
 70
     1
 43
0.0
 10
184.6143593539449
 20
346.2
 10
183.2287187078898
 20
343.8
 10
184.6143593539449
 20
341.3999999999999
 10
187.385640646055
 20
341.3999999999999
 10
188.7712812921101
 20
343.8
 10
187.385640646055
 20
346.2
  0
LINE
  5
1E8
330
1E
100
AcDbEntity
  8
110-2DIM
100
AcDbLine
 10
181.0
 20
343.8
 30
0.0
 11
191.0
 21
343.8
 31
0.0
  0
LINE
  5
1E9
330
1E
100
AcDbEntity
  8
110-2DIM
100
AcDbLine
 10
186.0
 20
340.5
 30
0.0
 11
186.0
 21
346.8890428217322
 31
0.0
  0
CIRCLE
  5
1EA
330
1E
100
AcDbEntity
  8
110-1M
100
AcDbCircle
 10
186.0
 20
343.8
 30
0.0
 40
1.5
  0
LINE
  5
1EB
330
1E
100
AcDbEntity
  8
110-2DIM
100
AcDbLine
 10
277.0
 20
343.8
 30
0.0
 11
287.0
 21
343.8
 31
0.0
  0
LWPOLYLINE
  5
1EC
330
1E
100
AcDbEntity
  8
110-1M
100
AcDbPolyline
 90
        6
 70
     1
 43
0.0
 10
280.6143593539449
 20
346.2
 10
279.2287187078898
 20
343.8
 10
280.6143593539449
 20
341.3999999999999
 10
283.3856406460551
 20
341.3999999999999
 10
284.7712812921102
 20
343.8
 10
283.3856406460551
 20
346.2
  0
LINE
  5
1F4
330
1E
100
AcDbEntity
  8
110-2DIM
100
AcDbLine
 10
282.0
 20
340.5
 30
0.0
 11
282.0
 21
346.8890428217322
 31
0.0
  0
CIRCLE
  5
1F5
330
1E
100
AcDbEntity
  8
110-1M
100
AcDbCircle
 10
282.0
 20
343.8
 30
0.0
 40
1.5
  0
LWPOLYLINE
  5
1F6
330
1E
100
AcDbEntity
  8
110-1M
100
AcDbPolyline
 90
        6
 70
     1
 43
0.0
 10
376.6143593539449
 20
346.2
 10
375.2287187078898
 20
343.8
 10
376.6143593539449
 20
341.3999999999999
 10
379.385640646055
 20
341.3999999999999
 10
380.7712812921101
 20
343.8
 10
379.385640646055
 20
346.2
  0
LINE
  5
1FE
330
1E
100
AcDbEntity
  8
110-2DIM
100
AcDbLine
 10
373.0
 20
343.8
 30
0.0
 11
383.0
 21
343.8
 31
0.0
  0
LINE
  5
1FF
330
1E
100
AcDbEntity
  8
110-2DIM
100
AcDbLine
 10
378.0
 20
340.5
 30
0.0
 11
378.0
 21
346.8890428217322
 31
0.0
  0
CIRCLE
  5
200
330
1E
100
AcDbEntity
  8
110-1M
100
AcDbCircle
 10
378.0
 20
343.8
 30
0.0
 40
1.5
  0
LINE
  5
201
330
1E
100
AcDbEntity
  8
110-2DIM
100
AcDbLine
 10
469.0
 20
343.8
 30
0.0
 11
479.0
 21
343.8
 31
0.0
  0
LWPOLYLINE
  5
202
330
1E
100
AcDbEntity
  8
110-1M
100
AcDbPolyline
 90
        6
 70
     1
 43
0.0
 10
472.6143593539449
 20
346.2
 10
471.2287187078898
 20
343.8
 10
472.6143593539449
 20
341.3999999999999
 10
475.3856406460551
 20
341.3999999999999
 10
476.7712812921102
 20
343.8
 10
475.3856406460551
 20
346.2
  0
LINE
  5
20A
330
1E
100
AcDbEntity
  8
110-2DIM
100
AcDbLine
 10
474.0
 20
340.5
 30
0.0
 11
474.0
 21
346.8890428217322
 31
0.0
  0
CIRCLE
  5
20B
330
1E
100
AcDbEntity
  8
110-1M
100
AcDbCircle
 10
474.0
 20
343.8
 30
0.0
 40
1.5
  0
LINE
  5
20C
330
1E
100
AcDbEntity
  8
110-1M
100
AcDbLine
 10
185.8699999999999
 20
230.3799999999999
 30
0.0
 11
185.8699999999999
 21
238.3799999999999
 31
0.0
  0
LINE
  5
20D
330
1E
100
AcDbEntity
  8
110-1M
100
AcDbLine
 10
185.8699999999999
 20
238.3799999999999
 30
0.0
 11
199.87
 21
238.3799999999999
 31
0.0
  0
LINE
  5
20E
330
1E
100
AcDbEntity
  8
110-1M
100
AcDbLine
 10
199.87
 20
238.3799999999999
 30
0.0
 11
199.87
 21
230.3799999999999
 31
0.0
  0
LINE
  5
20F
330
1E
100
AcDbEntity
  8
110-1M
100
AcDbLine
 10
199.87
 20
230.3799999999999
 30
0.0
 11
185.8699999999999
 21
230.3799999999999
 31
0.0
  0
LINE
  5
210
330
1E
100
AcDbEntity
  8
110-2DIM
100
AcDbLine
 10
182.8699999999999
 20
234.3799999999999
 30
0.0
 11
202.4930368256782
 21
234.3799999999999
 31
0.0
  0
LINE
  5
211
330
1E
100
AcDbEntity
  8
110-2DIM
100
AcDbLine
 10
192.87
 20
228.3799999999999
 30
0.0
 11
192.87
 21
240.0597470914934
 31
0.0
  0
LINE
  5
212
330
1E
100
AcDbEntity
  8
110-2DIM
100
AcDbLine
 10
254.5399999999999
 20
228.3799999999999
 30
0.0
 11
254.5399999999999
 21
240.0597470914934
 31
0.0
  0
LINE
  5
213
330
1E
100
AcDbEntity
  8
110-1M
100
AcDbLine
 10
247.54
 20
238.3799999999999
 30
0.0
 11
261.5399999999999
 21
238.3799999999999
 31
0.0
  0
LINE
  5
214
330
1E
100
AcDbEntity
  8
110-1M
100
AcDbLine
 10
261.5399999999999
 20
230.3799999999999
 30
0.0
 11
247.54
 21
230.3799999999999
 31
0.0
  0
LINE
  5
215
330
1E
100
AcDbEntity
  8
110-2DIM
100
AcDbLine
 10
244.5399999999999
 20
234.3799999999999
 30
0.0
 11
264.1630368256782
 21
234.3799999999999
 31
0.0
  0
LINE
  5
216
330
1E
100
AcDbEntity
  8
110-1M
100
AcDbLine
 10
247.54
 20
230.3799999999999
 30
0.0
 11
247.54
 21
238.3799999999999
 31
0.0
  0
LINE
  5
217
330
1E
100
AcDbEntity
  8
110-1M
100
AcDbLine
 10
261.5399999999999
 20
238.3799999999999
 30
0.0
 11
261.5399999999999
 21
230.3799999999999
 31
0.0
  0
LINE
  5
218
330
1E
100
AcDbEntity
  8
110-2DIM
100
AcDbLine
 10
466.9599999999999
 20
234.3799999999999
 30
0.0
 11
476.9599999999999
 21
234.3799999999999
 31
0.0
  0
CIRCLE
  5
219
330
1E
100
AcDbEntity
  8
110-1M
100
AcDbCircle
 10
471.9599999999999
 20
234.3799999999999
 30
0.0
 40
1.75
  0
LINE
  5
21A
330
1E
100
AcDbEntity
  8
110-2DIM
100
AcDbLine
 10
471.9599999999999
 20
229.38
 30
0.0
 11
471.9599999999999
 21
239.38
 31
0.0
  0
LINE
  5
21B
330
1E
100
AcDbEntity
  8
110-2DIM
100
AcDbLine
 10
466.9599999999999
 20
247.6199999999999
 30
0.0
 11
476.9599999999999
 21
247.6199999999999
 31
0.0
  0
CIRCLE
  5
21C
330
1E
100
AcDbEntity
  8
110-1M
100
AcDbCircle
 10
471.9599999999999
 20
247.6199999999999
 30
0.0
 40
1.75
  0
LINE
  5
21D
330
1E
100
AcDbEntity
  8
110-2DIM
100
AcDbLine
 10
471.9599999999999
 20
242.62
 30
0.0
 11
471.9599999999999
 21
252.62
 31
0.0
  0
LINE
  5
21E
330
1E
100
AcDbEntity
  8
110-2DIM
100
AcDbLine
 10
473.0
 20
255.25
 30
0.0
 11
483.0
 21
255.25
 31
0.0
  0
LWPOLYLINE
  5
21F
330
1E
100
AcDbEntity
  8
110-1M
100
AcDbPolyline
 90
        6
 70
     1
 43
0.0
 10
476.1524791385932
 20
258.4499999999999
 10
474.3049582771864
 20
255.25
 10
476.1524791385932
 20
252.05
 10
479.8475208614068
 20
252.05
 10
481.6950417228135
 20
255.25
 10
479.8475208614068
 20
258.4499999999999
  0
LINE
  5
227
330
1E
100
AcDbEntity
  8
110-2DIM
100
AcDbLine
 10
478.0
 20
250.2499999999999
 30
0.0
 11
478.0
 21
260.25
 31
0.0
  0
LINE
  5
228
330
1E
100
AcDbEntity
  8
110-2DIM
100
AcDbLine
 10
473.0
 20
228.75
 30
0.0
 11
483.0
 21
228.75
 31
0.0
  0
LWPOLYLINE
  5
229
330
1E
100
AcDbEntity
  8
110-1M
100
AcDbPolyline
 90
        6
 70
     1
 43
0.0
 10
476.1524791385932
 20
231.95
 10
474.3049582771864
 20
228.75
 10
476.1524791385932
 20
225.55
 10
479.8475208614068
 20
225.55
 10
481.6950417228135
 20
228.75
 10
479.8475208614068
 20
231.95
  0
LINE
  5
231
330
1E
100
AcDbEntity
  8
110-2DIM
100
AcDbLine
 10
478.0
 20
223.75
 30
0.0
 11
478.0
 21
233.7499999999999
 31
0.0
  0
LINE
  5
232
330
1E
100
AcDbEntity
  8
110-1M
100
AcDbLine
 10
553.6
 20
253.15
 30
0.0
 11
543.1
 21
253.15
 31
0.0
  0
LINE
  5
233
330
1E
100
AcDbEntity
  8
110-1M
100
AcDbLine
 10
543.1000000000001
 20
253.15
 30
0.0
 11
543.1
 21
257.35
 31
0.0
  0
LINE
  5
234
330
1E
100
AcDbEntity
  8
110-1M
100
AcDbLine
 10
543.1
 20
257.35
 30
0.0
 11
553.6
 21
257.35
 31
0.0
  0
LINE
  5
235
330
1E
100
AcDbEntity
  8
110-1M
100
AcDbLine
 10
553.6
 20
226.65
 30
0.0
 11
543.1
 21
226.65
 31
0.0
  0
LINE
  5
236
330
1E
100
AcDbEntity
  8
110-1M
100
AcDbLine
 10
543.1000000000001
 20
226.65
 30
0.0
 11
543.1
 21
230.85
 31
0.0
  0
LINE
  5
237
330
1E
100
AcDbEntity
  8
110-1M
100
AcDbLine
 10
543.1
 20
230.85
 30
0.0
 11
553.6
 21
230.85
 31
0.0
  0
LINE
  5
238
330
1E
100
AcDbEntity
  8
110-2DIM
100
AcDbLine
 10
70.0
 20
219.0
 30
0.0
 11
70.0
 21
210.0
 31
0.0
  0
LINE
  5
239
330
1E
100
AcDbEntity
  8
110-2DIM
100
AcDbLine
 10
494.0
 20
219.0
 30
0.0
 11
494.0
 21
210.0
 31
0.0
  0
LINE
  5
23A
330
1E
100
AcDbEntity
  8
110-2DIM
100
AcDbLine
 10
70.0
 20
265.0
 30
0.0
 11
70.0
 21
275.0
 31
0.0
  0
LINE
  5
23B
330
1E
100
AcDbEntity
  8
110-2DIM
100
AcDbLine
 10
471.9599999999999
 20
265.0
 30
0.0
 11
471.9599999999999
 21
275.0
 31
0.0
  0
LINE
  5
23C
330
1E
100
AcDbEntity
  8
110-2DIM
100
AcDbLine
 10
478.0
 20
265.0
 30
0.0
 11
478.0
 21
275.0
 31
0.0
  0
LINE
  5
23D
330
1E
100
AcDbEntity
  8
110-2DIM
100
AcDbLine
 10
70.0
 20
271.0
 30
0.0
 11
478.0
 21
271.0
 31
0.0
  0
LINE
  5
23E
330
1E
100
AcDbEntity
  8
110-2DIM
100
AcDbLine
 10
70.0
 20
212.5
 30
0.0
 11
494.0
 21
212.5
 31
0.0
  0
LINE
  5
23F
330
1E
100
AcDbEntity
  8
110-2DIM
100
AcDbLine
 10
70.0
 20
335.0
 30
0.0
 11
70.0
 21
325.0
 31
0.0
  0
LINE
  5
240
330
1E
100
AcDbEntity
  8
110-2DIM
100
AcDbLine
 10
74.0
 20
335.0
 30
0.0
 11
74.0
 21
325.0
 31
0.0
  0
LINE
  5
241
330
1E
100
AcDbEntity
  8
110-2DIM
100
AcDbLine
 10
90.0
 20
335.0
 30
0.0
 11
90.0
 21
325.0
 31
0.0
  0
LINE
  5
242
330
1E
100
AcDbEntity
  8
110-2DIM
100
AcDbLine
 10
186.0
 20
335.0
 30
0.0
 11
186.0
 21
325.0
 31
0.0
  0
LINE
  5
243
330
1E
100
AcDbEntity
  8
110-2DIM
100
AcDbLine
 10
282.0
 20
335.0
 30
0.0
 11
282.0
 21
325.0
 31
0.0
  0
LINE
  5
244
330
1E
100
AcDbEntity
  8
110-2DIM
100
AcDbLine
 10
378.0
 20
335.0
 30
0.0
 11
378.0
 21
325.0
 31
0.0
  0
LINE
  5
245
330
1E
100
AcDbEntity
  8
110-2DIM
100
AcDbLine
 10
474.0
 20
335.0
 30
0.0
 11
474.0
 21
325.0
 31
0.0
  0
LINE
  5
246
330
1E
100
AcDbEntity
  8
110-2DIM
100
AcDbLine
 10
490.0
 20
335.0
 30
0.0
 11
490.0
 21
325.0
 31
0.0
  0
LINE
  5
247
330
1E
100
AcDbEntity
  8
110-2DIM
100
AcDbLine
 10
494.0
 20
335.0
 30
0.0
 11
494.0
 21
325.0
 31
0.0
  0
LINE
  5
248
330
1E
100
AcDbEntity
  8
110-2DIM
100
AcDbLine
 10
70.0
 20
148.0
 30
0.0
 11
70.0
 21
158.0
 31
0.0
  0
LINE
  5
249
330
1E
100
AcDbEntity
  8
110-2DIM
100
AcDbLine
 10
81.0
 20
148.0
 30
0.0
 11
81.0
 21
158.0
 31
0.0
  0
LINE
  5
24A
330
1E
100
AcDbEntity
  8
110-2DIM
100
AcDbLine
 10
90.0
 20
148.0
 30
0.0
 11
90.0
 21
158.0
 31
0.0
  0
LINE
  5
24B
330
1E
100
AcDbEntity
  8
110-2DIM
100
AcDbLine
 10
186.0
 20
148.0
 30
0.0
 11
186.0
 21
158.0
 31
0.0
  0
LINE
  5
24C
330
1E
100
AcDbEntity
  8
110-2DIM
100
AcDbLine
 10
282.0
 20
148.0
 30
0.0
 11
282.0
 21
158.0
 31
0.0
  0
LINE
  5
24D
330
1E
100
AcDbEntity
  8
110-2DIM
100
AcDbLine
 10
378.0
 20
148.0
 30
0.0
 11
378.0
 21
158.0
 31
0.0
  0
LINE
  5
24E
330
1E
100
AcDbEntity
  8
110-2DIM
100
AcDbLine
 10
474.0
 20
148.0
 30
0.0
 11
474.0
 21
158.0
 31
0.0
  0
LINE
  5
24F
330
1E
100
AcDbEntity
  8
110-2DIM
100
AcDbLine
 10
483.0
 20
148.0
 30
0.0
 11
483.0
 21
158.0
 31
0.0
  0
LINE
  5
250
330
1E
100
AcDbEntity
  8
110-2DIM
100
AcDbLine
 10
494.0
 20
148.0
 30
0.0
 11
494.0
 21
158.0
 31
0.0
  0
LINE
  5
251
330
1E
100
AcDbEntity
  8
110-2DIM
100
AcDbLine
 10
70.0
 20
328.0
 30
0.0
 11
494.0
 21
328.0
 31
0.0
  0
LINE
  5
252
330
1E
100
AcDbEntity
  8
110-2DIM
100
AcDbLine
 10
70.0
 20
155.0
 30
0.0
 11
494.0
 21
155.0
 31
0.0
  0
TEXT
  5
253
330
1E
100
AcDbEntity
  8
110-2DIM
100
AcDbText
 10
71.27958100780737
 20
203.4406221153634
 30
0.0
 40
3.5
  1
0
 50
90.0
100
AcDbText
  0
TEXT
  5
254
330
1E
100
AcDbEntity
  8
110-2DIM
100
AcDbText
 10
496.4092490988871
 20
198.2823606437529
 30
0.0
 40
3.5
  1
424
 50
90.0
100
AcDbText
  0
TEXT
  5
255
330
1E
100
AcDbEntity
  8
110-2DIM
100
AcDbText
 10
72.01012062002814
 20
160.8732341051332
 30
0.0
 40
3.5
  1
0
 50
90.0
100
AcDbText
  0
TEXT
  5
256
330
1E
100
AcDbEntity
  8
110-2DIM
100
AcDbText
 10
82.35863782359064
 20
160.8732341051332
 30
0.0
 40
3.5
  1
11
 50
90.0
100
AcDbText
  0
TEXT
  5
257
330
1E
100
AcDbEntity
  8
110-2DIM
100
AcDbText
 10
92.06212712084978
 20
159.583668473761
 30
0.0
 40
3.5
  1
20
 50
90.0
100
AcDbText
  0
TEXT
  5
258
330
1E
100
AcDbEntity
  8
110-2DIM
100
AcDbText
 10
187.5540999128048
 20
159.5836695276394
 30
0.0
 40
3.5
  1
116
 50
90.0
100
AcDbText
  0
TEXT
  5
259
330
1E
100
AcDbEntity
  8
110-2DIM
100
AcDbText
 10
283.6910991768265
 20
160.8732341051332
 30
0.0
 40
3.5
  1
212
 50
90.0
100
AcDbText
  0
TEXT
  5
25A
330
1E
100
AcDbEntity
  8
110-2DIM
100
AcDbText
 10
379.8280970066114
 20
161.5180169208193
 30
0.0
 40
3.5
  1
308
 50
90.0
100
AcDbText
  0
TEXT
  5
25B
330
1E
100
AcDbEntity
  8
110-2DIM
100
AcDbText
 10
475.3200683643297
 20
160.2284512894471
 30
0.0
 40
3.5
  1
404
 50
90.0
100
AcDbText
  0
TEXT
  5
25C
330
1E
100
AcDbEntity
  8
110-2DIM
100
AcDbText
 10
484.3785340579958
 20
160.8732341051332
 30
0.0
 40
3.5
  1
413
 50
90.0
100
AcDbText
  0
TEXT
  5
25D
330
1E
100
AcDbEntity
  8
110-2DIM
100
AcDbText
 10
494.7270512615583
 20
160.2284512894471
 30
0.0
 40
3.5
  1
424
 50
90.0
100
AcDbText
  0
TEXT
  5
25E
330
1E
100
AcDbEntity
  8
110-2DIM
100
AcDbText
 10
71.27958100780737
 20
320.8027798594396
 30
0.0
 40
3.5
  1
0
 50
90.0
100
AcDbText
  0
TEXT
  5
25F
330
1E
100
AcDbEntity
  8
110-2DIM
100
AcDbText
 10
75.8228613970076
 20
320.1579970437535
 30
0.0
 40
3.5
  1
4
 50
90.0
100
AcDbText
  0
TEXT
  5
260
330
1E
100
AcDbEntity
  8
110-2DIM
100
AcDbText
 10
91.33158750862895
 20
318.2236496505735
 30
0.0
 40
3.5
  1
20
 50
90.0
100
AcDbText
  0
TEXT
  5
261
330
1E
100
AcDbEntity
  8
110-2DIM
100
AcDbText
 10
187.4685867726506
 20
316.2893022573936
 30
0.0
 40
3.5
  1
116
 50
90.0
100
AcDbText
  0
TEXT
  5
262
330
1E
100
AcDbEntity
  8
110-2DIM
100
AcDbText
 10
284.2506096402652
 20
314.9997376798997
 30
0.0
 40
3.5
  1
212
 50
90.0
100
AcDbText
  0
TEXT
  5
263
330
1E
100
AcDbEntity
  8
110-2DIM
100
AcDbText
 10
379.7425824322203
 20
313.7101720485275
 30
0.0
 40
3.5
  1
308
 50
90.0
100
AcDbText
  0
TEXT
  5
264
330
1E
100
AcDbEntity
  8
110-2DIM
100
AcDbText
 10
475.2345552241754
 20
314.3549548642135
 30
0.0
 40
3.5
  1
404
 50
90.0
100
AcDbText
  0
TEXT
  5
265
330
1E
100
AcDbEntity
  8
110-2DIM
100
AcDbText
 10
490.098256297967
 20
312.4206074710336
 30
0.0
 40
3.5
  1
420
 50
90.0
100
AcDbText
  0
TEXT
  5
266
330
1E
100
AcDbEntity
  8
110-2DIM
100
AcDbText
 10
495.2865631592338
 20
312.4206074710336
 30
0.0
 40
3.5
  1
424
 50
90.0
100
AcDbText
  0
TEXT
  5
267
330
1E
100
AcDbEntity
  8
110-2DIM
100
AcDbText
 10
71.5324611524414
 20
278.2353918492094
 30
0.0
 40
3.5
  1
0
 50
90.0
100
AcDbText
  0
TEXT
  5
268
330
1E
100
AcDbEntity
  8
110-2DIM
100
AcDbText
 10
473.1321116719695
 20
276.3010444560294
 30
0.0
 40
3.5
  1
401.96
 50
90.0
100
AcDbText
  0
TEXT
  5
269
330
1E
100
AcDbEntity
  8
110-2DIM
100
AcDbText
 10
480.2554965151992
 20
276.9458272717155
 30
0.0
 40
3.5
  1
408
 50
90.0
100
AcDbText
  0
LINE
  5
26A
330
1E
100
AcDbEntity
  8
110-2DIM
100
AcDbLine
 10
69.0
 20
355.6
 30
0.0
 11
60.0
 21
355.6
 31
0.0
  0
LINE
  5
26B
330
1E
100
AcDbEntity
  8
110-2DIM
100
AcDbLine
 10
69.0
 20
347.6
 30
0.0
 11
60.0
 21
347.6
 31
0.0
  0
LINE
  5
26C
330
1E
100
AcDbEntity
  8
110-2DIM
100
AcDbLine
 10
69.0
 20
344.6
 30
0.0
 11
60.0
 21
344.6
 31
0.0
  0
LINE
  5
26D
330
1E
100
AcDbEntity
  8
110-2DIM
100
AcDbLine
 10
62.57678003662826
 20
355.6
 30
0.0
 11
62.57678003662826
 21
344.6
 31
0.0
  0
TEXT
  5
26E
330
1E
100
AcDbEntity
  8
110-2DIM
100
AcDbText
 10
57.40738197360804
 20
353.924118018916
 30
0.0
 40
3.5
  1
0
100
AcDbText
  0
TEXT
  5
26F
330
1E
100
AcDbEntity
  8
110-2DIM
100
AcDbText
 10
56.87261532141999
 20
346.2198133225752
 30
0.0
 40
3.5
  1
8
100
AcDbText
  0
TEXT
  5
270
330
1E
100
AcDbEntity
  8
110-2DIM
100
AcDbText
 10
51.07932569932056
 20
342.1683575280051
 30
0.0
 40
3.5
  1
11.8
100
AcDbText
  0
LINE
  5
271
330
1E
100
AcDbEntity
  8
110-2DIM
100
AcDbLine
 10
69.0
 20
130.0
 30
0.0
 11
58.92205367788792
 21
130.0
 31
0.0
  0
LINE
  5
272
330
1E
100
AcDbEntity
  8
110-2DIM
100
AcDbLine
 10
69.0
 20
138.0
 30
0.0
 11
58.92205367788792
 21
138.0
 31
0.0
  0
LINE
  5
273
330
1E
100
AcDbEntity
  8
110-2DIM
100
AcDbLine
 10
69.0
 20
141.8
 30
0.0
 11
58.92205367788792
 21
141.8
 31
0.0
  0
LINE
  5
274
330
1E
100
AcDbEntity
  8
110-2DIM
100
AcDbLine
 10
61.88887705643486
 20
130.0
 30
0.0
 11
61.88887705643486
 21
141.8
 31
0.0
  0
TEXT
  5
275
330
1E
100
AcDbEntity
  8
110-2DIM
100
AcDbText
 10
55.98840835503082
 20
128.298214904435
 30
0.0
 40
3.5
  1
0
100
AcDbText
  0
TEXT
  5
276
330
1E
100
AcDbEntity
  8
110-2DIM
100
AcDbText
 10
56.17279813640939
 20
135.9202432067664
 30
0.0
 40
3.5
  1
8
100
AcDbText
  0
TEXT
  5
277
330
1E
100
AcDbEntity
  8
110-2DIM
100
AcDbText
 10
50.27232800076859
 20
140.0401915020409
 30
0.0
 40
3.5
  1
11.8
100
AcDbText
  0
LINE
  5
278
330
1E
100
AcDbEntity
  8
110-2DIM
100
AcDbLine
 10
480.867016347933
 20
253.0771324853556
 30
0.0
 11
511.8282726647601
 21
189.2436642949033
 31
0.0
  0
LINE
  5
279
330
1E
100
AcDbEntity
  8
110-2DIM
100
AcDbLine
 10
511.8282726647601
 20
189.2436642949033
 30
0.0
 11
579.0234527113141
 21
189.2436642949033
 31
0.0
  0
LINE
  5
27A
330
1E
100
AcDbEntity
  8
110-2DIM
100
AcDbLine
 10
471.0980783450404
 20
232.9987406817876
 30
0.0
 11
478.3818081695421
 21
179.3015232146351
 31
0.0
  0
LINE
  5
27B
330
1E
100
AcDbEntity
  8
110-2DIM
100
AcDbLine
 10
478.3818081695421
 20
179.3015232146351
 30
0.0
 11
523.2222726356451
 21
179.3015232146351
 31
0.0
  0
LINE
  5
27C
330
1E
100
AcDbEntity
  8
110-2DIM
100
AcDbLine
 10
446.2119586063921
 20
230.98
 30
0.0
 11
430.5823282381358
 21
179.3015232146351
 31
0.0
  0
LINE
  5
27D
330
1E
100
AcDbEntity
  8
110-2DIM
100
AcDbLine
 10
430.5823282381358
 20
179.3015232146351
 30
0.0
 11
466.3181300650523
 21
179.3015232146351
 31
0.0
  0
LINE
  5
27E
330
1E
100
AcDbEntity
  8
110-2DIM
  6
CENT
100
AcDbLine
 10
547.5197207196806
 20
268.0559259033767
 30
0.0
 11
561.2472009614556
 21
268.0559259033767
 31
0.0
  0
LINE
  5
27F
330
1E
100
AcDbEntity
  8
110-2DIM
  6
CENT
100
AcDbLine
 10
561.2472009614556
 20
268.0559259033767
 30
0.0
 11
561.2472009614556
 21
215.1506948760694
 31
0.0
  0
LINE
  5
280
330
1E
100
AcDbEntity
  8
110-2DIM
  6
CENT
100
AcDbLine
 10
561.2472009614556
 20
215.1506948760694
 30
0.0
 11
547.5197207196806
 21
215.1506948760694
 31
0.0
  0
LINE
  5
281
330
1E
100
AcDbEntity
  8
110-2DIM
100
AcDbLine
 10
547.5197207196806
 20
218.7879295157835
 30
0.0
 11
537.7616327179245
 21
218.7879295157835
 31
0.0
  0
LINE
  5
282
330
1E
100
AcDbEntity
  8
110-2DIM
100
AcDbLine
 10
547.5197207196806
 20
265.57599305077
 30
0.0
 11
537.7616327179245
 21
265.57599305077
 31
0.0
  0
TEXT
  5
283
330
1E
100
AcDbEntity
  8
110-2DIM
100
AcDbText
 10
568.3590289041026
 20
276.487695916034
 30
0.0
 40
3.5
  1
LAKERES
100
AcDbText
  0
TEXT
  5
284
330
1E
100
AcDbEntity
  8
110-2DIM
100
AcDbText
 10
501.0447584419002
 20
281.4007382773295
 30
0.0
 40
3.5
  1
AFD∆KKES
100
AcDbText
  0
LINE
  5
285
330
1E
100
AcDbEntity
  8
110-2DIM
100
AcDbLine
 10
540.5732846582066
 20
265.57599305077
 30
0.0
 11
527.5073705068863
 21
280.4555891125317
 31
0.0
  0
LINE
  5
286
330
1E
100
AcDbEntity
  8
110-2DIM
100
AcDbLine
 10
527.5073705068863
 20
280.4555891125317
 30
0.0
 11
505.1795411288552
 21
280.4555891125317
 31
0.0
  0
LINE
  5
287
330
1E
100
AcDbEntity
  8
110-2DIM
100
AcDbLine
 10
527.5073705068863
 20
280.4555891125317
 30
0.0
 11
537.7616327179245
 21
218.7879295157835
 31
0.0
  0
LINE
  5
288
330
1E
100
AcDbEntity
  8
110-2DIM
100
AcDbLine
 10
561.2472009614556
 20
264.7493487665677
 30
0.0
 11
565.2165932014745
 21
275.4957244611967
 31
0.0
  0
LINE
  5
289
330
1E
100
AcDbEntity
  8
110-2DIM
100
AcDbLine
 10
565.2165932014745
 20
275.4957244611967
 30
0.0
 11
593.9946844316977
 21
275.4957244611967
 31
0.0
  0
TEXT
  5
28A
330
1E
100
AcDbEntity
  8
110-2DIM
100
AcDbText
 10
184.6581602084057
 20
73.18281438083531
 30
0.0
 40
3.5
  1
ALUDINE (NATUR)
100
AcDbText
  0
TEXT
  5
28B
330
1E
100
AcDbEntity
  8
110-2DIM
100
AcDbText
 10
184.6581602084057
 20
67.34948104750198
 30
0.0
 40
3.5
  1
SE MALINGSPECIFICATION
100
AcDbText
  0
TEXT
  5
28C
330
1E
100
AcDbEntity
  8
110-2DIM
100
AcDbText
 10
184.6581602084057
 20
61.51614771416865
 30
0.0
 40
3.5
  1
4008 140 00000 pkt.1a
100
AcDbText
  0
LINE
  5
28D
330
1E
100
AcDbEntity
  8
110-2DIM
  6
CENT
100
AcDbLine
 10
184.6581602084057
 20
53.83933834127893
 30
0.0
 11
237.550307970075
 21
53.83933834127893
 31
0.0
  0
LINE
  5
28E
330
1E
100
AcDbEntity
  8
110-2DIM
100
AcDbLine
 10
185.3031866804722
 20
46.10194876855906
 30
0.0
 11
237.550307970075
 21
46.10194876855906
 31
0.0
  0
TEXT
  5
28F
330
1E
100
AcDbEntity
  8
110-2DIM
100
AcDbText
 10
242.6048150626985
 20
52.32730741522181
 30
0.0
 40
3.5
  1
LAKEREDE OVERFLADER
100
AcDbText
  0
TEXT
  5
290
330
1E
100
AcDbEntity
  8
110-2DIM
100
AcDbText
 10
242.6048150626985
 20
44.74732137404987
 30
0.0
 40
3.5
  1
AFD∆KKES
100
AcDbText
  0
TEXT
  5
291
330
1E
100
AcDbEntity
  8
110-2DIM
100
AcDbText
 10
386.693194453319
 20
41.58847116651301
 30
0.0
 40
6.0
  1
FRONTPROFIL DRILLED
100
AcDbText
  0
TEXT
  5
292
330
1E
100
AcDbEntity
  8
110-2DIM
100
AcDbText
 10
398.3036652135698
 20
84.14411592422897
 30
0.0
 40
6.0
  1
4008 107 57480
100
AcDbText
  0
TEXT
  5
293
330
1E
100
AcDbEntity
  8
110-2DIM
100
AcDbText
 10
359.0381192164851
 20
22.61565996086835
 30
0.0
 40
3.5
  1
Jan Olesen
100
AcDbText
  0
TEXT
  5
294
330
1E
100
AcDbEntity
  8
110-2DIM
100
AcDbText
 10
578.9623284088104
 20
52.40875582427086
 30
0.0
 40
3.5
  1
1
100
AcDbText
  0
TEXT
  5
295
330
1E
100
AcDbEntity
  8
110-2DIM
100
AcDbText
 10
510.5800965657278
 20
22.49440634746954
 30
0.0
 40
3.5
  1
110-1
100
AcDbText
  0
TEXT
  5
296
330
1E
100
AcDbEntity
  8
110-2DIM
100
AcDbText
 10
491.7460077123218
 20
22.57524314361379
 30
0.0
 40
3.5
  1
1
100
AcDbText
  0
LINE
  5
297
330
1E
100
AcDbEntity
  8
110-2DIM
100
AcDbLine
 10
584.2390475405751
 20
53.82009557596496
 30
0.0
 11
612.9248140816815
 21
53.82009557596496
 31
0.0
  0
TEXT
  5
298
330
1E
100
AcDbEntity
  8
110-2DIM
100
AcDbText
 10
365.7636139725929
 20
87.41900293819487
 30
0.0
 40
6.0
  1
mm.
100
AcDbText
  0
LINE
  5
29A
330
1E
100
AcDbEntity
  8
110-2DIM
100
AcDbLine
 10
185.1809366412279
 20
139.3996137700812
 30
0.0
 11
179.1480835835893
 21
106.543387147756
 31
0.0
  0
LINE
  5
29B
330
1E
100
AcDbEntity
  8
110-2DIM
100
AcDbLine
 10
179.1480835835893
 20
106.543387147756
 30
0.0
 11
129.0130021451157
 21
106.543387147756
 31
0.0
  0
TEXT
  5
29C
330
1E
100
AcDbEntity
  8
110-2DIM
100
AcDbText
 10
128.3889140955995
 20
107.9990429577094
 30
0.0
 40
3.5
  1
PEM F-M3-1 (10x)
100
AcDbText
  0
TEXT
  5
29D
330
1E
100
AcDbEntity
  8
110-2DIM
100
AcDbText
 10
123.8122674429898
 20
101.7498081149434
 30
0.0
 40
3.5
  1
Ipresses pÂ indersidden.
100
AcDbText
  0
TEXT
  5
29E
330
1E
100
AcDbEntity
  8
110-2DIM
100
AcDbText
 10
123.8122674429898
 20
95.91647478161016
 30
0.0
 40
3.5
  1
OgsÂ modsatte side.
100
AcDbText
  0
LINE
  5
29F
330
1E
100
AcDbEntity
  8
110-2DIM
100
AcDbLine
 10
495.0
 20
220.0
 30
0.0
 11
505.0
 21
220.0
 31
0.0
  0
LINE
  5
2A0
330
1E
100
AcDbEntity
  8
110-2DIM
100
AcDbLine
 10
495.0
 20
234.3799999999999
 30
0.0
 11
505.0
 21
234.3799999999999
 31
0.0
  0
LINE
  5
2A1
330
1E
100
AcDbEntity
  8
110-2DIM
100
AcDbLine
 10
495.0
 20
247.6199999999999
 30
0.0
 11
505.0
 21
247.6199999999999
 31
0.0
  0
TEXT
  5
2A2
330
1E
100
AcDbEntity
  8
110-2DIM
100
AcDbText
 10
505.9858245774977
 20
232.79547425297
 30
0.0
 40
3.5
  1
14.38
100
AcDbText
  0
TEXT
  5
2A3
330
1E
100
AcDbEntity
  8
110-2DIM
100
AcDbText
 10
506.5316147734711
 20
217.8470303154984
 30
0.0
 40
3.5
  1
0
100
AcDbText
  0
LINE
  5
2A4
330
1E
100
AcDbEntity
  8
110-2DIM
100
AcDbLine
 10
476.9599999999999
 20
247.6199999999999
 30
0.0
 11
495.0
 21
247.6199999999999
 31
0.0
  0
LINE
  5
2A5
330
1E
100
AcDbEntity
  8
110-2DIM
100
AcDbLine
 10
476.9599999999999
 20
234.3799999999999
 30
0.0
 11
495.0
 21
234.3799999999999
 31
0.0
  0
TEXT
  5
2A6
330
1E
100
AcDbEntity
  8
110-2DIM
100
AcDbText
 10
386.6931930190822
 20
31.91673314673483
 30
0.0
 40
6.0
  1
PT 5211
100
AcDbText
  0
TEXT
  5
2A7
330
1E
100
AcDbEntity
  8
110-2DIM
100
AcDbText
 10
503.4429313963683
 20
38.03629616173902
 30
0.0
 40
6.0
  1
4008 107 5860
100
AcDbText
  0
TEXT
  5
2A8
330
1E
100
AcDbEntity
  8
110-2DIM
100
AcDbText
 10
424.104712622338
 20
16.44195294741678
 30
0.0
 40
4.0
  1
97-01-14
100
AcDbText
  0
LINE
  5
2A9
330
1E
100
AcDbEntity
  8
110-1M
100
AcDbLine
 10
319.7599999999999
 20
238.3799999999999
 30
0.0
 11
333.76
 21
238.3799999999999
 31
0.0
  0
LINE
  5
2AA
330
1E
100
AcDbEntity
  8
110-1M
100
AcDbLine
 10
333.76
 20
230.3799999999999
 30
0.0
 11
319.7599999999999
 21
230.3799999999999
 31
0.0
  0
LINE
  5
2AB
330
1E
100
AcDbEntity
  8
110-2DIM
100
AcDbLine
 10
316.76
 20
234.3799999999999
 30
0.0
 11
336.3830368256782
 21
234.3799999999999
 31
0.0
  0
LINE
  5
2AC
330
1E
100
AcDbEntity
  8
110-2DIM
100
AcDbLine
 10
326.7599999999999
 20
228.3799999999999
 30
0.0
 11
326.7599999999999
 21
240.0597470914934
 31
0.0
  0
LINE
  5
2AD
330
1E
100
AcDbEntity
  8
110-1M
100
AcDbLine
 10
319.7599999999999
 20
230.3799999999999
 30
0.0
 11
319.7599999999999
 21
238.3799999999999
 31
0.0
  0
LINE
  5
2AE
330
1E
100
AcDbEntity
  8
110-1M
100
AcDbLine
 10
333.76
 20
238.3799999999999
 30
0.0
 11
333.76
 21
230.3799999999999
 31
0.0
  0
LINE
  5
2AF
330
1E
100
AcDbEntity
  8
110-2DIM
100
AcDbLine
 10
436.5099999999999
 20
234.3799999999999
 30
0.0
 11
456.1330368256782
 21
234.3799999999999
 31
0.0
  0
LINE
  5
2B0
330
1E
100
AcDbEntity
  8
110-1M
100
AcDbLine
 10
453.5099999999999
 20
230.3799999999999
 30
0.0
 11
439.51
 21
230.3799999999999
 31
0.0
  0
LINE
  5
2B1
330
1E
100
AcDbEntity
  8
110-1M
100
AcDbLine
 10
439.51
 20
238.3799999999999
 30
0.0
 11
453.5099999999999
 21
238.3799999999999
 31
0.0
  0
LINE
  5
2B2
330
1E
100
AcDbEntity
  8
110-1M
100
AcDbLine
 10
439.51
 20
230.3799999999999
 30
0.0
 11
439.51
 21
238.3799999999999
 31
0.0
  0
LINE
  5
2B3
330
1E
100
AcDbEntity
  8
110-2DIM
100
AcDbLine
 10
446.5099999999999
 20
228.3799999999999
 30
0.0
 11
446.5099999999999
 21
240.0597470914934
 31
0.0
  0
LINE
  5
2B4
330
1E
100
AcDbEntity
  8
110-1M
100
AcDbLine
 10
453.5099999999999
 20
238.3799999999999
 30
0.0
 11
453.5099999999999
 21
230.3799999999999
 31
0.0
  0
TEXT
  5
2B5
330
1E
100
AcDbEntity
  8
110-2DIM
100
AcDbText
 10
436.5710828179227
 20
180.8490909196169
 30
0.0
 40
3.0
  1
14x8 (6x)
100
AcDbText
  0
CIRCLE
  5
2B6
330
1E
100
AcDbEntity
  8
110-1M
100
AcDbCircle
 10
351.7599999999999
 20
234.3799999999999
 30
0.0
 40
1.75
  0
LINE
  5
2B7
330
1E
100
AcDbEntity
  8
110-2DIM
100
AcDbLine
 10
346.76
 20
234.3799999999999
 30
0.0
 11
356.76
 21
234.3799999999999
 31
0.0
  0
LINE
  5
2B8
330
1E
100
AcDbEntity
  8
110-2DIM
100
AcDbLine
 10
351.7599999999999
 20
229.38
 30
0.0
 11
351.7599999999999
 21
239.38
 31
0.0
  0
LINE
  5
2B9
330
1E
100
AcDbEntity
  8
110-2DIM
100
AcDbLine
 10
346.76
 20
247.6199999999999
 30
0.0
 11
356.76
 21
247.6199999999999
 31
0.0
  0
LINE
  5
2BA
330
1E
100
AcDbEntity
  8
110-2DIM
100
AcDbLine
 10
351.7599999999999
 20
242.62
 30
0.0
 11
351.7599999999999
 21
252.62
 31
0.0
  0
CIRCLE
  5
2BB
330
1E
100
AcDbEntity
  8
110-1M
100
AcDbCircle
 10
351.7599999999999
 20
247.6199999999999
 30
0.0
 40
1.75
  0
TEXT
  5
2BC
330
1E
100
AcDbEntity
  8
110-2DIM
100
AcDbText
 10
482.8020943298959
 20
181.5062747221835
 30
0.0
 40
4.0
  1
ù 3.5 (6x)
100
AcDbText
  0
LINE
  5
2BD
330
1E
100
AcDbEntity
  8
110-2DIM
100
AcDbLine
 10
371.76
 20
247.6199999999999
 30
0.0
 11
381.76
 21
247.6199999999999
 31
0.0
  0
LINE
  5
2BE
330
1E
100
AcDbEntity
  8
110-2DIM
100
AcDbLine
 10
371.76
 20
234.3799999999999
 30
0.0
 11
381.76
 21
234.3799999999999
 31
0.0
  0
LINE
  5
2BF
330
1E
100
AcDbEntity
  8
110-2DIM
100
AcDbLine
 10
376.7599999999999
 20
242.62
 30
0.0
 11
376.7599999999999
 21
252.62
 31
0.0
  0
LINE
  5
2C0
330
1E
100
AcDbEntity
  8
110-2DIM
100
AcDbLine
 10
376.7599999999999
 20
229.38
 30
0.0
 11
376.7599999999999
 21
239.38
 31
0.0
  0
CIRCLE
  5
2C1
330
1E
100
AcDbEntity
  8
110-1M
100
AcDbCircle
 10
376.7599999999999
 20
234.3799999999999
 30
0.0
 40
1.75
  0
CIRCLE
  5
2C2
330
1E
100
AcDbEntity
  8
110-1M
100
AcDbCircle
 10
376.7599999999999
 20
247.6199999999999
 30
0.0
 40
1.75
  0
TEXT
  5
2C3
330
1E
100
AcDbEntity
  8
110-2DIM
100
AcDbText
 10
507.313088794531
 20
245.9845236205651
 30
0.0
 40
4.0
  1
27.62
100
AcDbText
  0
LINE
  5
2C4
330
1E
100
AcDbEntity
  8
110-2DIM
100
AcDbLine
 10
244.5399999999999
 20
247.6199999999999
 30
0.0
 11
264.1630368256782
 21
247.6199999999999
 31
0.0
  0
LINE
  5
2C5
330
1E
100
AcDbEntity
  8
110-1M
100
AcDbLine
 10
261.5399999999999
 20
243.6199999999999
 30
0.0
 11
247.54
 21
243.6199999999999
 31
0.0
  0
LINE
  5
2C6
330
1E
100
AcDbEntity
  8
110-1M
100
AcDbLine
 10
247.54
 20
251.6199999999999
 30
0.0
 11
261.5399999999999
 21
251.6199999999999
 31
0.0
  0
LINE
  5
2C7
330
1E
100
AcDbEntity
  8
110-1M
100
AcDbLine
 10
247.54
 20
243.6199999999999
 30
0.0
 11
247.54
 21
251.6199999999999
 31
0.0
  0
LINE
  5
2C8
330
1E
100
AcDbEntity
  8
110-2DIM
100
AcDbLine
 10
254.5399999999999
 20
241.6199999999999
 30
0.0
 11
254.5399999999999
 21
253.2997470914934
 31
0.0
  0
LINE
  5
2C9
330
1E
100
AcDbEntity
  8
110-1M
100
AcDbLine
 10
261.5399999999999
 20
251.6199999999999
 30
0.0
 11
261.5399999999999
 21
243.6199999999999
 31
0.0
  0
LINE
  5
2CA
330
1E
100
AcDbEntity
  8
110-1M
100
AcDbLine
 10
319.7599999999999
 20
251.6199999999999
 30
0.0
 11
333.76
 21
251.6199999999999
 31
0.0
  0
LINE
  5
2CB
330
1E
100
AcDbEntity
  8
110-1M
100
AcDbLine
 10
333.76
 20
243.6199999999999
 30
0.0
 11
319.7599999999999
 21
243.6199999999999
 31
0.0
  0
LINE
  5
2CC
330
1E
100
AcDbEntity
  8
110-2DIM
100
AcDbLine
 10
316.76
 20
247.6199999999999
 30
0.0
 11
336.3830368256782
 21
247.6199999999999
 31
0.0
  0
LINE
  5
2CD
330
1E
100
AcDbEntity
  8
110-2DIM
100
AcDbLine
 10
326.7599999999999
 20
241.6199999999999
 30
0.0
 11
326.7599999999999
 21
253.2997470914934
 31
0.0
  0
LINE
  5
2CE
330
1E
100
AcDbEntity
  8
110-1M
100
AcDbLine
 10
319.7599999999999
 20
243.6199999999999
 30
0.0
 11
319.7599999999999
 21
251.6199999999999
 31
0.0
  0
LINE
  5
2CF
330
1E
100
AcDbEntity
  8
110-1M
100
AcDbLine
 10
333.76
 20
251.6199999999999
 30
0.0
 11
333.76
 21
243.6199999999999
 31
0.0
  0
LINE
  5
2D0
330
1E
100
AcDbEntity
  8
110-2DIM
100
AcDbLine
 10
192.87
 20
265.0
 30
0.0
 11
192.87
 21
275.0
 31
0.0
  0
LINE
  5
2D1
330
1E
100
AcDbEntity
  8
110-2DIM
100
AcDbLine
 10
254.5399999999999
 20
265.0
 30
0.0
 11
254.5399999999999
 21
275.0
 31
0.0
  0
LINE
  5
2D2
330
1E
100
AcDbEntity
  8
110-2DIM
100
AcDbLine
 10
326.7599999999999
 20
265.0
 30
0.0
 11
326.7599999999999
 21
275.0
 31
0.0
  0
LINE
  5
2D3
330
1E
100
AcDbEntity
  8
110-2DIM
100
AcDbLine
 10
351.7599999999999
 20
265.0
 30
0.0
 11
351.7599999999999
 21
275.0
 31
0.0
  0
LINE
  5
2D4
330
1E
100
AcDbEntity
  8
110-2DIM
100
AcDbLine
 10
376.7599999999999
 20
265.0
 30
0.0
 11
376.7599999999999
 21
275.0
 31
0.0
  0
LINE
  5
2D5
330
1E
100
AcDbEntity
  8
110-2DIM
100
AcDbLine
 10
446.5099999999999
 20
265.0
 30
0.0
 11
446.5099999999999
 21
275.0
 31
0.0
  0
TEXT
  5
2D6
330
1E
100
AcDbEntity
  8
110-2DIM
100
AcDbText
 10
194.5621832353639
 20
277.3618005591358
 30
0.0
 40
4.0
  1
122.87
 50
90.0
100
AcDbText
  0
TEXT
  5
2D7
330
1E
100
AcDbEntity
  8
110-2DIM
100
AcDbText
 10
255.7703728133535
 20
278.335389213416
 30
0.0
 40
4.0
  1
184.54
 50
90.0
100
AcDbText
  0
TEXT
  5
2D8
330
1E
100
AcDbEntity
  8
110-2DIM
100
AcDbText
 10
328.1790537034897
 20
278.335389213416
 30
0.0
 40
4.0
  1
256.76
 50
90.0
100
AcDbText
  0
TEXT
  5
2D9
330
1E
100
AcDbEntity
  8
110-2DIM
100
AcDbText
 10
353.3508799293552
 20
278.335389213416
 30
0.0
 40
4.0
  1
281.76
 50
90.0
100
AcDbText
  0
TEXT
  5
2DA
330
1E
100
AcDbEntity
  8
110-2DIM
100
AcDbText
 10
378.035728272084
 20
276.8750067589349
 30
0.0
 40
4.0
  1
306.76
 50
90.0
100
AcDbText
  0
TEXT
  5
2DB
330
1E
100
AcDbEntity
  8
110-2DIM
100
AcDbText
 10
448.0095197465361
 20
277.8485954132151
 30
0.0
 40
4.0
  1
376.51
 50
90.0
100
AcDbText
  0
LWPOLYLINE
  5
2DC
330
1E
100
AcDbEntity
  8
110-1M
100
AcDbPolyline
 90
        6
 70
     1
 43
0.0
 10
383.1524791385932
 20
258.4499999999999
 10
381.3049582771864
 20
255.25
 10
383.1524791385932
 20
252.05
 10
386.8475208614067
 20
252.05
 10
388.6950417228135
 20
255.25
 10
386.8475208614067
 20
258.4499999999999
  0
LINE
  5
2E4
330
1E
100
AcDbEntity
  8
110-2DIM
100
AcDbLine
 10
380.0
 20
255.25
 30
0.0
 11
390.0
 21
255.25
 31
0.0
  0
LINE
  5
2E5
330
1E
100
AcDbEntity
  8
110-2DIM
100
AcDbLine
 10
385.0
 20
250.2499999999999
 30
0.0
 11
385.0
 21
260.25
 31
0.0
  0
LWPOLYLINE
  5
2E6
330
1E
100
AcDbEntity
  8
110-1M
100
AcDbPolyline
 90
        6
 70
     1
 43
0.0
 10
383.1524791385932
 20
231.95
 10
381.3049582771864
 20
228.75
 10
383.1524791385932
 20
225.55
 10
386.8475208614067
 20
225.55
 10
388.6950417228135
 20
228.75
 10
386.8475208614067
 20
231.95
  0
LINE
  5
2EE
330
1E
100
AcDbEntity
  8
110-2DIM
100
AcDbLine
 10
380.0
 20
228.75
 30
0.0
 11
390.0
 21
228.75
 31
0.0
  0
LINE
  5
2EF
330
1E
100
AcDbEntity
  8
110-2DIM
100
AcDbLine
 10
385.0
 20
223.75
 30
0.0
 11
385.0
 21
233.7499999999999
 31
0.0
  0
LINE
  5
2F0
330
1E
100
AcDbEntity
  8
110-2DIM
100
AcDbLine
 10
385.0
 20
265.0
 30
0.0
 11
385.0
 21
275.0
 31
0.0
  0
LINE
  5
2F1
330
1E
100
AcDbEntity
  8
110-2DIM
100
AcDbLine
 10
285.0
 20
228.75
 30
0.0
 11
295.0
 21
228.75
 31
0.0
  0
LINE
  5
2F2
330
1E
100
AcDbEntity
  8
110-2DIM
100
AcDbLine
 10
290.0
 20
223.75
 30
0.0
 11
290.0
 21
233.7499999999999
 31
0.0
  0
LWPOLYLINE
  5
2F3
330
1E
100
AcDbEntity
  8
110-1M
100
AcDbPolyline
 90
        6
 70
     1
 43
0.0
 10
288.1524791385932
 20
231.95
 10
286.3049582771864
 20
228.75
 10
288.1524791385932
 20
225.55
 10
291.8475208614068
 20
225.55
 10
293.6950417228135
 20
228.75
 10
291.8475208614068
 20
231.95
  0
LINE
  5
2FB
330
1E
100
AcDbEntity
  8
110-2DIM
100
AcDbLine
 10
285.0
 20
255.25
 30
0.0
 11
295.0
 21
255.25
 31
0.0
  0
LINE
  5
2FC
330
1E
100
AcDbEntity
  8
110-2DIM
100
AcDbLine
 10
290.0
 20
265.0
 30
0.0
 11
290.0
 21
275.0
 31
0.0
  0
LINE
  5
2FD
330
1E
100
AcDbEntity
  8
110-2DIM
100
AcDbLine
 10
290.0
 20
250.2499999999999
 30
0.0
 11
290.0
 21
260.25
 31
0.0
  0
LWPOLYLINE
  5
2FE
330
1E
100
AcDbEntity
  8
110-1M
100
AcDbPolyline
 90
        6
 70
     1
 43
0.0
 10
288.1524791385932
 20
258.4499999999999
 10
286.3049582771864
 20
255.25
 10
288.1524791385932
 20
252.05
 10
291.8475208614068
 20
252.05
 10
293.6950417228135
 20
255.25
 10
291.8475208614068
 20
258.4499999999999
  0
LINE
  5
306
330
1E
100
AcDbEntity
  8
110-2DIM
100
AcDbLine
 10
175.0
 20
223.75
 30
0.0
 11
175.0
 21
233.7499999999999
 31
0.0
  0
LWPOLYLINE
  5
307
330
1E
100
AcDbEntity
  8
110-1M
100
AcDbPolyline
 90
        6
 70
     1
 43
0.0
 10
173.1524791385932
 20
231.95
 10
171.3049582771864
 20
228.75
 10
173.1524791385932
 20
225.55
 10
176.8475208614067
 20
225.55
 10
178.6950417228135
 20
228.75
 10
176.8475208614067
 20
231.95
  0
LINE
  5
30F
330
1E
100
AcDbEntity
  8
110-2DIM
100
AcDbLine
 10
170.0
 20
228.75
 30
0.0
 11
180.0
 21
228.75
 31
0.0
  0
LINE
  5
310
330
1E
100
AcDbEntity
  8
110-2DIM
100
AcDbLine
 10
175.0
 20
265.0
 30
0.0
 11
175.0
 21
275.0
 31
0.0
  0
LWPOLYLINE
  5
311
330
1E
100
AcDbEntity
  8
110-1M
100
AcDbPolyline
 90
        6
 70
     1
 43
0.0
 10
173.1524791385932
 20
258.4499999999999
 10
171.3049582771864
 20
255.25
 10
173.1524791385932
 20
252.05
 10
176.8475208614067
 20
252.05
 10
178.6950417228135
 20
255.25
 10
176.8475208614067
 20
258.4499999999999
  0
LINE
  5
319
330
1E
100
AcDbEntity
  8
110-2DIM
100
AcDbLine
 10
175.0
 20
250.2499999999999
 30
0.0
 11
175.0
 21
260.25
 31
0.0
  0
LINE
  5
31A
330
1E
100
AcDbEntity
  8
110-2DIM
100
AcDbLine
 10
170.0
 20
255.25
 30
0.0
 11
180.0
 21
255.25
 31
0.0
  0
TEXT
  5
31B
330
1E
100
AcDbEntity
  8
110-2DIM
100
AcDbText
 10
512.8137109305843
 20
190.1767429181904
 30
0.0
 40
4.0
  1
PEM BSOS-M3-12 (8x)
100
AcDbText
  0
LINE
  5
31C
330
1E
100
AcDbEntity
  8
110-2DIM
100
AcDbLine
 10
495.0
 20
228.75
 30
0.0
 11
505.0
 21
228.75
 31
0.0
  0
LINE
  5
31D
330
1E
100
AcDbEntity
  8
110-2DIM
100
AcDbLine
 10
495.0
 20
255.25
 30
0.0
 11
505.0
 21
255.25
 31
0.0
  0
LINE
  5
31E
330
1E
100
AcDbEntity
  8
110-2DIM
100
AcDbLine
 10
500.8251552794368
 20
220.0
 30
0.0
 11
500.8251552794368
 21
255.25
 31
0.0
  0
TEXT
  5
31F
330
1E
100
AcDbEntity
  8
110-2DIM
100
AcDbText
 10
506.4355954904447
 20
253.1166276314702
 30
0.0
 40
4.0
  1
35.25
100
AcDbText
  0
TEXT
  5
320
330
1E
100
AcDbEntity
  8
110-2DIM
100
AcDbText
 10
506.5660708775434
 20
226.4947685975664
 30
0.0
 40
4.0
  1
8.75
100
AcDbText
  0
TEXT
  5
321
330
1E
100
AcDbEntity
  8
110-2DIM
100
AcDbText
 10
177.059685691315
 20
278.8684314123812
 30
0.0
 40
4.0
  1
105
 50
90.0
100
AcDbText
  0
TEXT
  5
322
330
1E
100
AcDbEntity
  8
110-2DIM
100
AcDbText
 10
291.4457244290464
 20
278.8684314123813
 30
0.0
 40
4.0
  1
220
 50
90.0
100
AcDbText
  0
TEXT
  5
323
330
1E
100
AcDbEntity
  8
110-2DIM
100
AcDbText
 10
387.1260026480315
 20
278.2236485966951
 30
0.0
 40
4.0
  1
315
 50
90.0
100
AcDbText
  0
TEXT
  5
324
330
1E
100
AcDbEntity
  8
110-2DIM
100
AcDbText
 10
184.6581602084057
 20
36.84562104189316
 30
0.0
 40
3.5
  1
INGEN MALING P≈BAGSIDEN.
100
AcDbText
  0
TEXT
  5
325
330
1E
100
AcDbEntity
  8
110-2DIM
100
AcDbText
 10
173.243898774724
 20
58.42877211970218
 30
0.0
 40
4.0
  1
3
100
AcDbText
  0
LINE
  5
326
330
1E
100
AcDbEntity
  8
110-2DIM
100
AcDbLine
 10
168.5490538017346
 20
57.53485350920522
 30
0.0
 11
180.6215123037073
 21
57.53485350920522
 31
0.0
  0
LINE
  5
327
330
1E
100
AcDbEntity
  8
110-2DIM
100
AcDbLine
 10
174.585283052721
 20
66.25055732685471
 30
0.0
 11
180.6215123037073
 21
57.53485350920522
 31
0.0
  0
LINE
  5
328
330
1E
100
AcDbEntity
  8
110-2DIM
100
AcDbLine
 10
174.585283052721
 20
66.25055732685471
 30
0.0
 11
168.5490538017346
 21
57.53485350920522
 31
0.0
  0
TEXT
  5
329
330
1E
100
AcDbEntity
  8
110-2DIM
100
AcDbText
 10
578.7623651915534
 20
45.40527087375639
 30
0.0
 40
3.0
  1
2   98-10-28
100
AcDbText
  0
LINE
  5
32A
330
1E
100
AcDbEntity
  8
110-2DIM
100
AcDbLine
 10
577.6269148584713
 20
53.85541209430858
 30
0.0
 11
581.1139159045319
 21
53.85541209430858
 31
0.0
  0
TEXT
  5
32D
330
1E
100
AcDbEntity
  8
110-2DIM
100
AcDbText
 10
578.7623651915534
 20
39.88638041515136
 30
0.0
 40
3.0
  1
3   00-04-04
100
AcDbText
  0
LINE
  5
330
330
1E
100
AcDbEntity
  8
110-1
100
AcDbLine
 10
577.0482736139419
 20
47.15358042781883
 30
0.0
 11
609.3016713137886
 21
47.15358042781883
 31
0.0
  0
TEXT
  5
33C
330
1E
100
AcDbEntity
  8
110-2DIM
100
AcDbText
 10
429.8923872074976
 20
105.2889304206868
 30
0.0
 40
6.0
  1
±0.1
100
AcDbText
  0
ENDSEC
  0
SECTION
  2
OBJECTS
  0
DICTIONARY
  5
C
330
0
100
AcDbDictionary
  3
ACAD_GROUP
350
D
  3
ACAD_LAYOUT
350
19
  3
ACAD_MLINESTYLE
350
16
  3
ACAD_PLOTSETTINGS
350
18
  3
ACAD_PLOTSTYLENAME
350
E
  3
ACDBHEADERROUNDTRIPXREC
350
345
  0
DICTIONARY
  5
368
330
1E
100
AcDbDictionary
280
     1
  3
ACAD_LAYOUTSELFREF
360
369
  0
DICTIONARY
  5
366
330
1A
100
AcDbDictionary
280
     1
  3
ACAD_LAYOUTSELFREF
360
367
  0
DICTIONARY
  5
D
102
{ACAD_REACTORS
330
C
102
}
330
C
100
AcDbDictionary
  0
DICTIONARY
  5
19
102
{ACAD_REACTORS
330
C
102
}
330
C
100
AcDbDictionary
  0
DICTIONARY
  5
16
102
{ACAD_REACTORS
330
C
102
}
330
C
100
AcDbDictionary
  3
STANDARD
350
17
  0
DICTIONARY
  5
18
102
{ACAD_REACTORS
330
C
102
}
330
C
100
AcDbDictionary
  0
ACDBDICTIONARYWDFLT
  5
E
102
{ACAD_REACTORS
330
C
102
}
330
C
100
AcDbDictionary
281
     1
  3
Normal
350
F
100
AcDbDictionaryWithDefault
340
F
  0
DICTIONARY
  5
345
102
{ACAD_REACTORS
330
C
102
}
330
C
100
AcDbDictionary
  3
TSTACKALIGN
350
346
  3
TSTACKSIZE
350
347
  3
HYPERLINKBASE
350
348
  3
STYLESHEET
350
349
  3
LAYOUTDICT
350
34A
  3
PLOTSETDICT
350
34B
  3
PLOTSTYLNAMDICT
350
34C
  3
LWETCUNION
350
34D
  3
INSUNITS
350
34E
  3
CEPSNTYPE
350
34F
  3
FINGERPRINTGUID
350
350
  3
VERSIONGUID
350
351
  3
PSVPSCALE
350
352
  3
DIMSTYLEDATA
350
353
  3
PUCSORTHOREF
350
354
  3
PUCSORTHOVIEW
350
355
  3
PUCSBASE
350
356
  3
PUCSORGTOP
350
357
  3
PUCSORGBOTTOM
350
358
  3
PUCSORGLEFT
350
359
  3
PUCSORGRIGHT
350
35A
  3
PUCSORGFRONT
350
35B
  3
PUCSORGBACK
350
35C
  3
UCSORTHOREF
350
35D
  3
UCSORTHOVIEW
350
35E
  3
UCSBASE
350
35F
  3
UCSORGTOP
350
360
  3
UCSORGBOTTOM
350
361
  3
UCSORGLEFT
350
362
  3
UCSORGRIGHT
350
363
  3
UCSORGFRONT
350
364
  3
UCSORGBACK
350
365
  0
XRECORD
  5
369
102
{ACAD_REACTORS
330
368
102
}
330
368
100
AcDbXrecord
340
1E
  0
XRECORD
  5
367
102
{ACAD_REACTORS
330
366
102
}
330
366
100
AcDbXrecord
340
1A
  0
MLINESTYLE
  5
17
102
{ACAD_REACTORS
330
16
102
}
330
16
100
AcDbMlineStyle
  2
STANDARD
 70
     0
  3

 62
   256
 51
90.0
 52
90.0
 71
     2
 49
0.5
 62
   256
  6
BYLAYER
 49
-0.5
 62
   256
  6
BYLAYER
  0
ACDBPLACEHOLDER
  5
F
102
{ACAD_REACTORS
330
E
102
}
330
E
100
AcDbPlaceHolder
280
     0
  0
XRECORD
  5
346
102
{ACAD_REACTORS
330
345
102
}
330
345
100
AcDbXrecord
 90
        1
  0
XRECORD
  5
347
102
{ACAD_REACTORS
330
345
102
}
330
345
100
AcDbXrecord
 90
       70
  0
XRECORD
  5
348
102
{ACAD_REACTORS
330
345
102
}
330
345
100
AcDbXrecord
  1

  0
XRECORD
  5
349
102
{ACAD_REACTORS
330
345
102
}
330
345
100
AcDbXrecord
  1
kabler.ctb
  0
XRECORD
  5
34A
102
{ACAD_REACTORS
330
345
102
}
330
345
100
AcDbXrecord
340
19
  0
XRECORD
  5
34B
102
{ACAD_REACTORS
330
345
102
}
330
345
100
AcDbXrecord
340
18
  0
XRECORD
  5
34C
102
{ACAD_REACTORS
330
345
102
}
330
345
100
AcDbXrecord
340
E
  0
XRECORD
  5
34D
102
{ACAD_REACTORS
330
345
102
}
330
345
100
AcDbXrecord
 90
    14877
  0
XRECORD
  5
34E
102
{ACAD_REACTORS
330
345
102
}
330
345
100
AcDbXrecord
 90
        0
  0
XRECORD
  5
34F
102
{ACAD_REACTORS
330
345
102
}
330
345
100
AcDbXrecord
 90
        0
  0
XRECORD
  5
350
102
{ACAD_REACTORS
330
345
102
}
330
345
100
AcDbXrecord
  1
{E71D3750-0A3B-11D4-95D1-0050043D34BD}
  0
XRECORD
  5
351
102
{ACAD_REACTORS
330
345
102
}
330
345
100
AcDbXrecord
  1
{CEB9C9F2-410C-11D4-95F4-0050043D34BD}
  0
XRECORD
  5
352
102
{ACAD_REACTORS
330
345
102
}
330
345
100
AcDbXrecord
 40
0.0
  0
XRECORD
  5
353
102
{ACAD_REACTORS
330
345
102
}
330
345
100
AcDbXrecord
1000
DSTYLE
1002
{
1070
   279
 70
     2
1002
}
  0
XRECORD
  5
354
102
{ACAD_REACTORS
330
345
102
}
330
345
100
AcDbXrecord
340
0
  0
XRECORD
  5
355
102
{ACAD_REACTORS
330
345
102
}
330
345
100
AcDbXrecord
 70
     0
  0
XRECORD
  5
356
102
{ACAD_REACTORS
330
345
102
}
330
345
100
AcDbXrecord
340
0
  0
XRECORD
  5
357
102
{ACAD_REACTORS
330
345
102
}
330
345
100
AcDbXrecord
 10
0.0
 20
0.0
 30
0.0
  0
XRECORD
  5
358
102
{ACAD_REACTORS
330
345
102
}
330
345
100
AcDbXrecord
 10
0.0
 20
0.0
 30
0.0
  0
XRECORD
  5
359
102
{ACAD_REACTORS
330
345
102
}
330
345
100
AcDbXrecord
 10
0.0
 20
0.0
 30
0.0
  0
XRECORD
  5
35A
102
{ACAD_REACTORS
330
345
102
}
330
345
100
AcDbXrecord
 10
0.0
 20
0.0
 30
0.0
  0
XRECORD
  5
35B
102
{ACAD_REACTORS
330
345
102
}
330
345
100
AcDbXrecord
 10
0.0
 20
0.0
 30
0.0
  0
XRECORD
  5
35C
102
{ACAD_REACTORS
330
345
102
}
330
345
100
AcDbXrecord
 10
0.0
 20
0.0
 30
0.0
  0
XRECORD
  5
35D
102
{ACAD_REACTORS
330
345
102
}
330
345
100
AcDbXrecord
340
0
  0
XRECORD
  5
35E
102
{ACAD_REACTORS
330
345
102
}
330
345
100
AcDbXrecord
 70
     0
  0
XRECORD
  5
35F
102
{ACAD_REACTORS
330
345
102
}
330
345
100
AcDbXrecord
340
0
  0
XRECORD
  5
360
102
{ACAD_REACTORS
330
345
102
}
330
345
100
AcDbXrecord
 10
0.0
 20
0.0
 30
0.0
  0
XRECORD
  5
361
102
{ACAD_REACTORS
330
345
102
}
330
345
100
AcDbXrecord
 10
0.0
 20
0.0
 30
0.0
  0
XRECORD
  5
362
102
{ACAD_REACTORS
330
345
102
}
330
345
100
AcDbXrecord
 10
0.0
 20
0.0
 30
0.0
  0
XRECORD
  5
363
102
{ACAD_REACTORS
330
345
102
}
330
345
100
AcDbXrecord
 10
0.0
 20
0.0
 30
0.0
  0
XRECORD
  5
364
102
{ACAD_REACTORS
330
345
102
}
330
345
100
AcDbXrecord
 10
0.0
 20
0.0
 30
0.0
  0
XRECORD
  5
365
102
{ACAD_REACTORS
330
345
102
}
330
345
100
AcDbXrecord
 10
0.0
 20
0.0
 30
0.0
  0
ENDSEC
  0
EOF
