0
SECTION
2
HEADER
9
$LTSCALE
40
0.5
9
$LIMMIN
10
0
20
0
9
$LIMMAX
10
245
20
297
9
$EXTMIN
10
0
20
0
9
$EXTMAX
10
245.745
20
353.3775
9
$SNAPMODE
70
1
9
$SNAPUNIT
10
0.5
20
0.5
9
$GRIDMODE
70
1
9
$GRIDUNIT
10
5
20
5
9
$ORTHOMODE
70
0
9
$TEXTSTYLE
7
txt
9
$CLAYER
8
2
9
$CECOLOR
62
7
9
$CELTYPE
6
CONTINUOUS
9
$PLINEWID
40
0
9
$OSMODE
70
0
9
$FILLMODE
70
1
9
$CHAMFERA
40
0.5
9
$CHAMFERB
40
0.5
9
$COORDS
70
1
9
$FILLETRAD
40
0.5
9
$INSBASE
10
0
20
0
9
$SPLFRAME
70
0
9
$SPLINESEGS
70
8
0
ENDSEC
0
SECTION
2
TABLES
0
TABLE
2
LTYPE
70
9
0
LTYPE
2
DASHED
70
0
3
__ __ __ __ __ __ __ __ __ __ __ __ __ __ __
72
65
73
2
40
0.75
49
0.5
49
-0.25
0
LTYPE
2
HIDDEN
70
0
3
_ _ _ _ _ _ _ _ _ _ _ _ _ _ _ _ _ _ _ _ _ _ 
72
65
73
2
40
0.25
49
0.125
49
-0.125
0
LTYPE
2
CENTER
70
0
3
____ _ ____ _ ____ _ ____ _ ____ _ ____ _ __
72
65
73
4
40
2
49
1.25
49
-0.25
49
0.25
49
-0.25
0
LTYPE
2
PHANTOM
70
0
3
_____ _ _ _____ _ _ _____ _ _ _____ _ _ ____
72
65
73
6
40
2.5
49
1.25
49
-0.25
49
0.25
49
-0.25
49
0.25
49
-0.25
0
LTYPE
2
DOT
70
0
3
............................................
72
65
73
2
40
0.25
49
0
49
-0.25
0
LTYPE
2
DASHDOT
70
0
3
__ . __ . __ . __ . __ . __ . __ . __ . __ .
72
65
73
4
40
1
49
0.5
49
-0.25
49
0
49
-0.25
0
LTYPE
2
BORDER
70
0
3
__ __ . __ __ . __ __ . __ __ . __ __ . __ _
72
65
73
6
40
1.75
49
0.5
49
-0.25
49
0.5
49
-0.25
49
0
49
-0.25
0
LTYPE
2
DIVIDE
70
0
3
__ . . __ . . __ . . __ . . __ . . __ . . __
72
65
73
6
40
1.25
49
0.5
49
-0.25
49
0
49
-0.25
49
0
49
-0.25
0
LTYPE
2
DOTS
70
0
3
close
72
65
73
2
40
0.1
49
0.05
49
-0.05
0
ENDTAB
0
TABLE
2
STYLE
70
1
0
STYLE
2
STANDARD
70
0
40
0
41
1
50
0
71
0
42
0.2
3
txt
4

0
ENDTAB
0
TABLE
2
LAYER
70
10
0
LAYER
2
1
70
0
62
7
6
CONTINUOUS
0
LAYER
2
2
70
0
62
7
6
CONTINUOUS
0
LAYER
2
3
70
0
62
7
6
CONTINUOUS
0
LAYER
2
4
70
0
62
7
6
CONTINUOUS
0
LAYER
2
5
70
0
62
7
6
CONTINUOUS
0
LAYER
2
6
70
0
62
7
6
CONTINUOUS
0
LAYER
2
7
70
0
62
7
6
CONTINUOUS
0
LAYER
2
8
70
0
62
7
6
CONTINUOUS
0
LAYER
2
9
70
0
62
7
6
CONTINUOUS
0
LAYER
2
10
70
0
62
7
6
CONTINUOUS
0
ENDTAB
0
ENDSEC
0
SECTION
2
BLOCKS
0
BLOCK
8
0
2
INDSENS4-G1
70
0
10
0
20
0
0
CIRCLE
8
1
62
7
10
85
20
105
40
58
0
ENDBLK
8
0
0
BLOCK
8
0
2
INDSENS4-G2
70
0
10
0
20
0
0
POLYLINE
8
2
62
7
70
1
66
1
40
0
41
0
0
VERTEX
8
2
10
45
20
224.5
0
VERTEX
8
2
10
45
20
244.5
0
VERTEX
8
2
10
125
20
244.5
0
VERTEX
8
2
10
125
20
224.5
0
SEQEND
8
2
0
LINE
8
2
62
7
10
45
20
226.5
11
69.5
21
226.5
0
INSERT
8
2
2
INDSENS4-G3
10
0
20
0
0
POLYLINE
8
2
62
7
70
1
66
1
40
0
41
0
0
VERTEX
8
2
10
75
20
224.5
0
VERTEX
8
2
10
75
20
228.5
0
VERTEX
8
2
10
95
20
228.5
0
VERTEX
8
2
10
95
20
224.5
0
SEQEND
8
2
0
INSERT
8
2
2
INDSENS4-G4
10
0
20
0
0
LINE
8
2
62
7
10
100.5
20
226.5
11
125
21
226.5
0
ENDBLK
8
0
0
BLOCK
8
0
2
INDSENS4-G3
70
0
10
0
20
0
0
POLYLINE
8
2
62
7
70
1
66
1
40
0
41
0
0
VERTEX
8
2
10
69.5
20
224.5
0
VERTEX
8
2
10
69.5
20
228.5
0
VERTEX
8
2
10
74.5
20
228.5
0
VERTEX
8
2
10
74.5
20
224.5
0
SEQEND
8
2
0
LINE
8
2
62
7
10
70.5
20
228.5
11
70.5
21
224.5
0
LINE
8
2
62
7
10
73.5
20
228.5
11
73.5
21
224.5
0
ENDBLK
8
0
0
BLOCK
8
0
2
INDSENS4-G4
70
0
10
0
20
0
0
POLYLINE
8
2
62
7
70
1
66
1
40
0
41
0
0
VERTEX
8
2
10
100.5
20
224.5
0
VERTEX
8
2
10
100.5
20
228.5
0
VERTEX
8
2
10
95.5
20
228.5
0
VERTEX
8
2
10
95.5
20
224.5
0
SEQEND
8
2
0
LINE
8
2
62
7
10
99.5
20
228.5
11
99.5
21
224.5
0
LINE
8
2
62
7
10
96.5
20
228.5
11
96.5
21
224.5
0
ENDBLK
8
0
0
BLOCK
8
0
2
INDSENS4-G5
70
0
10
0
20
0
0
LINE
8
2
62
7
10
62.5
20
67.5
11
107.5
21
67.5
0
ENDBLK
8
0
0
BLOCK
8
0
2
INDSENS4-G6
70
0
10
0
20
0
0
POLYLINE
8
1
62
7
70
4
66
1
40
0
41
0
0
VERTEX
8
1
10
94
20
59
70
16
0
VERTEX
8
1
10
93.5
20
62.5
70
16
0
VERTEX
8
1
10
93
20
63.5
70
16
0
VERTEX
8
1
10
92.5
20
64
70
16
0
VERTEX
8
1
10
92
20
64
70
16
0
VERTEX
8
1
10
91.5
20
64
70
16
0
VERTEX
8
1
10
90.5
20
64
70
16
0
VERTEX
8
1
10
94
20
59
70
8
0
VERTEX
8
1
10
93.82381
20
60.17741
70
8
0
VERTEX
8
1
10
93.66862
20
61.10677
70
8
0
VERTEX
8
1
10
93.53198
20
61.82129
70
8
0
VERTEX
8
1
10
93.41146
20
62.35417
70
8
0
VERTEX
8
1
10
93.30461
20
62.73861
70
8
0
VERTEX
8
1
10
93.20898
20
63.00781
70
8
0
VERTEX
8
1
10
93.12215
20
63.19499
70
8
0
VERTEX
8
1
10
93.04167
20
63.33333
70
8
0
VERTEX
8
1
10
92.96541
20
63.45068
70
8
0
VERTEX
8
1
10
92.89258
20
63.55339
70
8
0
VERTEX
8
1
10
92.82267
20
63.64242
70
8
0
VERTEX
8
1
10
92.75521
20
63.71875
70
8
0
VERTEX
8
1
10
92.6897
20
63.78337
70
8
0
VERTEX
8
1
10
92.62565
20
63.83724
70
8
0
VERTEX
8
1
10
92.56258
20
63.88135
70
8
0
VERTEX
8
1
10
92.5
20
63.91667
70
8
0
VERTEX
8
1
10
92.43742
20
63.94417
70
8
0
VERTEX
8
1
10
92.37435
20
63.96484
70
8
0
VERTEX
8
1
10
92.3103
20
63.97965
70
8
0
VERTEX
8
1
10
92.24479
20
63.98958
70
8
0
VERTEX
8
1
10
92.17733
20
63.99561
70
8
0
VERTEX
8
1
10
92.10742
20
63.9987
70
8
0
VERTEX
8
1
10
92.03459
20
63.99984
70
8
0
VERTEX
8
1
10
91.95833
20
64
70
8
0
VERTEX
8
1
10
91.87687
20
64
70
8
0
VERTEX
8
1
10
91.7832
20
64
70
8
0
VERTEX
8
1
10
91.66903
20
64
70
8
0
VERTEX
8
1
10
91.52604
20
64
70
8
0
VERTEX
8
1
10
91.34595
20
64
70
8
0
VERTEX
8
1
10
91.12044
20
64
70
8
0
VERTEX
8
1
10
90.84123
20
64
70
8
0
VERTEX
8
1
10
90.5
20
64
70
8
0
SEQEND
8
1
0
POLYLINE
8
1
62
7
70
4
66
1
40
0
41
0
0
VERTEX
8
1
10
94
20
59
70
16
0
VERTEX
8
1
10
94.5
20
56
70
16
0
VERTEX
8
1
10
94.5
20
55
70
16
0
VERTEX
8
1
10
94
20
54
70
16
0
VERTEX
8
1
10
93.5
20
54
70
16
0
VERTEX
8
1
10
91.5
20
54
70
16
0
VERTEX
8
1
10
94
20
59
70
8
0
VERTEX
8
1
10
94.16488
20
57.98747
70
8
0
VERTEX
8
1
10
94.28776
20
57.18099
70
8
0
VERTEX
8
1
10
94.37354
20
56.55225
70
8
0
VERTEX
8
1
10
94.42708
20
56.07292
70
8
0
VERTEX
8
1
10
94.45329
20
55.71468
70
8
0
VERTEX
8
1
10
94.45703
20
55.44922
70
8
0
VERTEX
8
1
10
94.4432
20
55.24821
70
8
0
VERTEX
8
1
10
94.41667
20
55.08333
70
8
0
VERTEX
8
1
10
94.38159
20
54.93115
70
8
0
VERTEX
8
1
10
94.33919
20
54.78776
70
8
0
VERTEX
8
1
10
94.28996
20
54.65413
70
8
0
VERTEX
8
1
10
94.23438
20
54.53125
70
8
0
VERTEX
8
1
10
94.17293
20
54.42008
70
8
0
VERTEX
8
1
10
94.10612
20
54.32161
70
8
0
VERTEX
8
1
10
94.03442
20
54.23682
70
8
0
VERTEX
8
1
10
93.95833
20
54.16667
70
8
0
VERTEX
8
1
10
93.87492
20
54.11165
70
8
0
VERTEX
8
1
10
93.76758
20
54.07031
70
8
0
VERTEX
8
1
10
93.61629
20
54.04069
70
8
0
VERTEX
8
1
10
93.40104
20
54.02083
70
8
0
VERTEX
8
1
10
93.10181
20
54.00879
70
8
0
VERTEX
8
1
10
92.69857
20
54.0026
70
8
0
VERTEX
8
1
10
92.17131
20
54.00033
70
8
0
VERTEX
8
1
10
91.5
20
54
70
8
0
SEQEND
8
1
0
LINE
8
2
62
7
10
77.6
20
65
11
92.4
21
65
0
LINE
8
2
62
7
10
75.9
20
53
11
94.1
21
53
0
CIRCLE
8
2
62
7
10
92
20
56.5
40
0.75
0
ARC
8
2
62
7
10
77.59204
20
63.72972
40
1.267724
50
88.6738
51
174.3918
0
ARC
8
2
62
7
10
75.89027
20
54.1717
40
1.154447
50
172.3952
51
271.4564
0
LINE
8
1
62
7
10
79.5
20
64
11
90.5
21
64
0
LINE
8
1
62
7
10
78.5
20
54
11
91.5
21
54
0
LINE
8
1
62
7
10
90.5
20
64
11
79.5
21
64
0
LINE
8
1
62
7
10
91.5
20
54
11
78.5
21
54
0
POLYLINE
8
1
62
7
70
4
66
1
40
0
41
0
0
VERTEX
8
1
10
76
20
59
70
16
0
VERTEX
8
1
10
76.5
20
62.5
70
16
0
VERTEX
8
1
10
77
20
63.5
70
16
0
VERTEX
8
1
10
77.5
20
64
70
16
0
VERTEX
8
1
10
78
20
64
70
16
0
VERTEX
8
1
10
78.5
20
64
70
16
0
VERTEX
8
1
10
79.5
20
64
70
16
0
VERTEX
8
1
10
76
20
59
70
8
0
VERTEX
8
1
10
76.17619
20
60.17741
70
8
0
VERTEX
8
1
10
76.33138
20
61.10677
70
8
0
VERTEX
8
1
10
76.46802
20
61.82129
70
8
0
VERTEX
8
1
10
76.58854
20
62.35417
70
8
0
VERTEX
8
1
10
76.69539
20
62.73861
70
8
0
VERTEX
8
1
10
76.79102
20
63.00781
70
8
0
VERTEX
8
1
10
76.87785
20
63.19499
70
8
0
VERTEX
8
1
10
76.95833
20
63.33333
70
8
0
VERTEX
8
1
10
77.03459
20
63.45068
70
8
0
VERTEX
8
1
10
77.10742
20
63.55339
70
8
0
VERTEX
8
1
10
77.17733
20
63.64242
70
8
0
VERTEX
8
1
10
77.24479
20
63.71875
70
8
0
VERTEX
8
1
10
77.3103
20
63.78337
70
8
0
VERTEX
8
1
10
77.37435
20
63.83724
70
8
0
VERTEX
8
1
10
77.43742
20
63.88135
70
8
0
VERTEX
8
1
10
77.5
20
63.91667
70
8
0
VERTEX
8
1
10
77.56258
20
63.94417
70
8
0
VERTEX
8
1
10
77.62565
20
63.96484
70
8
0
VERTEX
8
1
10
77.6897
20
63.97965
70
8
0
VERTEX
8
1
10
77.75521
20
63.98958
70
8
0
VERTEX
8
1
10
77.82267
20
63.99561
70
8
0
VERTEX
8
1
10
77.89258
20
63.9987
70
8
0
VERTEX
8
1
10
77.96541
20
63.99984
70
8
0
VERTEX
8
1
10
78.04167
20
64
70
8
0
VERTEX
8
1
10
78.12313
20
64
70
8
0
VERTEX
8
1
10
78.2168
20
64
70
8
0
VERTEX
8
1
10
78.33097
20
64
70
8
0
VERTEX
8
1
10
78.47396
20
64
70
8
0
VERTEX
8
1
10
78.65405
20
64
70
8
0
VERTEX
8
1
10
78.87956
20
64
70
8
0
VERTEX
8
1
10
79.15877
20
64
70
8
0
VERTEX
8
1
10
79.5
20
64
70
8
0
SEQEND
8
1
0
POLYLINE
8
1
62
7
70
4
66
1
40
0
41
0
0
VERTEX
8
1
10
76
20
59
70
16
0
VERTEX
8
1
10
75.5
20
56
70
16
0
VERTEX
8
1
10
75.5
20
55
70
16
0
VERTEX
8
1
10
76
20
54
70
16
0
VERTEX
8
1
10
76.5
20
54
70
16
0
VERTEX
8
1
10
78.5
20
54
70
16
0
VERTEX
8
1
10
76
20
59
70
8
0
VERTEX
8
1
10
75.83512
20
57.98747
70
8
0
VERTEX
8
1
10
75.71224
20
57.18099
70
8
0
VERTEX
8
1
10
75.62646
20
56.55225
70
8
0
VERTEX
8
1
10
75.57292
20
56.07292
70
8
0
VERTEX
8
1
10
75.54671
20
55.71468
70
8
0
VERTEX
8
1
10
75.54297
20
55.44922
70
8
0
VERTEX
8
1
10
75.5568
20
55.24821
70
8
0
VERTEX
8
1
10
75.58333
20
55.08333
70
8
0
VERTEX
8
1
10
75.61841
20
54.93115
70
8
0
VERTEX
8
1
10
75.66081
20
54.78776
70
8
0
VERTEX
8
1
10
75.71004
20
54.65413
70
8
0
VERTEX
8
1
10
75.76563
20
54.53125
70
8
0
VERTEX
8
1
10
75.82707
20
54.42008
70
8
0
VERTEX
8
1
10
75.89388
20
54.32161
70
8
0
VERTEX
8
1
10
75.96558
20
54.23682
70
8
0
VERTEX
8
1
10
76.04167
20
54.16667
70
8
0
VERTEX
8
1
10
76.12508
20
54.11165
70
8
0
VERTEX
8
1
10
76.23242
20
54.07031
70
8
0
VERTEX
8
1
10
76.38371
20
54.04069
70
8
0
VERTEX
8
1
10
76.59896
20
54.02083
70
8
0
VERTEX
8
1
10
76.89819
20
54.00879
70
8
0
VERTEX
8
1
10
77.30143
20
54.0026
70
8
0
VERTEX
8
1
10
77.82869
20
54.00033
70
8
0
VERTEX
8
1
10
78.5
20
54
70
8
0
SEQEND
8
1
0
LINE
8
2
62
7
10
76.31897
20
63.83403
11
74.74341
21
54.331
0
CIRCLE
8
2
62
7
10
85
20
56.5
40
0.75
0
CIRCLE
8
2
62
7
10
78
20
56.5
40
0.75
0
CIRCLE
8
2
62
7
10
81.5
20
56.5
40
0.75
0
CIRCLE
8
2
62
7
10
88.5
20
56.5
40
0.75
0
CIRCLE
8
2
62
7
10
90.25
20
61.5
40
0.75
0
CIRCLE
8
2
62
7
10
83.25
20
61.5
40
0.75
0
CIRCLE
8
2
62
7
10
79.75
20
61.5
40
0.75
0
CIRCLE
8
2
62
7
10
86.75
20
61.5
40
0.75
0
POINT
8
2
62
7
10
72
20
59
0
INSERT
8
2
2
INDSENS4-G7
10
0
20
0
0
ARC
8
2
62
7
10
92.40796
20
63.72972
40
1.267724
50
5.608154
51
91.3262
0
ARC
8
2
62
7
10
94.10973
20
54.1717
40
1.154447
50
268.5436
51
7.604823
0
LINE
8
2
62
7
10
93.68103
20
63.83403
11
95.25659
21
54.331
0
POINT
8
2
62
7
10
98
20
59
0
POINT
8
2
62
7
10
98
20
59
0
POINT
8
2
62
7
10
98
20
59
0
POINT
8
2
62
7
10
98
20
59
0
INSERT
8
2
2
INDSENS4-G8
10
0
20
0
0
ENDBLK
8
0
0
BLOCK
8
0
2
INDSENS4-G7
70
0
10
0
20
0
0
LINE
8
2
62
7
10
70.52374
20
61.47618
11
73.40285
21
61.47618
0
LINE
8
2
62
7
10
69.11743
20
58.95963
11
70.55699
21
61.453
0
LINE
8
2
62
7
10
70.59367
20
56.48343
11
69.15413
21
58.97681
0
LINE
8
2
62
7
10
73.47626
20
56.52382
11
70.59715
21
56.52382
0
LINE
8
2
62
7
10
74.88257
20
59.04037
11
73.44301
21
56.547
0
LINE
8
2
62
7
10
73.40633
20
61.51657
11
74.84587
21
59.02319
0
CIRCLE
8
2
62
7
10
72
20
59
40
1.5
0
ENDBLK
8
0
0
BLOCK
8
0
2
INDSENS4-G8
70
0
10
0
20
0
0
LINE
8
2
62
7
10
99.47626
20
61.47618
11
96.59715
21
61.47618
0
LINE
8
2
62
7
10
100.8826
20
58.95963
11
99.44301
21
61.453
0
LINE
8
2
62
7
10
99.40633
20
56.48343
11
100.8459
21
58.97681
0
LINE
8
2
62
7
10
96.52374
20
56.52382
11
99.40285
21
56.52382
0
LINE
8
2
62
7
10
95.11743
20
59.04037
11
96.55699
21
56.547
0
LINE
8
2
62
7
10
96.59367
20
61.51657
11
95.15413
21
59.02319
0
CIRCLE
8
2
62
7
10
98
20
59
40
1.5
0
ENDBLK
8
0
0
ENDSEC
0
SECTION
2
ENTITIES
0
ARC
8
2
62
7
10
121.5
20
68.5
40
3.535534
50
261.8699
51
8.130102
0
ARC
8
2
62
7
10
121.5
20
141.5
40
3.535534
50
351.8699
51
98.1301
0
LINE
8
2
62
7
10
45
20
77
11
125
21
77
0
LINE
8
2
62
7
10
45
20
133
11
125
21
133
0
CIRCLE
8
1
62
7
10
85
20
105
40
61.00205
0
CIRCLE
8
1
62
7
10
85
20
105
40
70.00179
0
POLYLINE
8
1
62
7
70
1
66
1
40
0
41
0
0
VERTEX
8
1
10
146
20
187.5
0
VERTEX
8
1
10
24
20
187.5
0
VERTEX
8
1
10
24
20
189.5
0
VERTEX
8
1
10
146
20
189.5
0
SEQEND
8
1
0
POLYLINE
8
1
62
7
70
1
66
1
40
0
41
0
0
VERTEX
8
1
10
145
20
185.5
0
VERTEX
8
1
10
25
20
185.5
0
VERTEX
8
1
10
25
20
187.5
0
VERTEX
8
1
10
145
20
187.5
0
SEQEND
8
1
0
POLYLINE
8
1
62
7
70
0
66
1
40
0
41
0
0
VERTEX
8
1
10
25
20
189.5
0
VERTEX
8
1
10
27
20
224.5
0
VERTEX
8
1
10
143
20
224.5
0
SEQEND
8
1
0
POLYLINE
8
1
62
7
70
0
66
1
40
0
41
0
0
VERTEX
8
1
10
143
20
224.5
0
VERTEX
8
1
10
145
20
189.5
0
VERTEX
8
1
10
25
20
189.5
0
SEQEND
8
1
0
LINE
8
1
62
7
10
15
20
178.5
11
155
21
178.5
0
INSERT
8
2
2
INDSENS4-G1
10
0
20
0
0
LINE
8
2
62
7
10
29.75
20
224.5
11
140.5
21
224.5
0
INSERT
8
2
2
INDSENS4-G2
10
0
20
0
0
LINE
8
2
62
7
10
49
20
145
11
121
21
145
0
LINE
8
2
62
7
10
57.5
20
65
11
62.5
21
67.5
0
LINE
8
2
62
7
10
45
20
69
11
45
21
141
0
ARC
8
2
62
7
10
48.5
20
68.5
40
3.535534
50
171.8699
51
278.1301
0
LINE
8
2
62
7
10
54
20
65
11
49
21
65
0
CIRCLE
8
1
62
7
10
50
20
70
40
2.5
0
LINE
8
2
62
7
10
54
20
65
11
56.5
21
65
0
LINE
8
2
62
7
10
56.5
20
65
11
57
21
65
0
LINE
8
2
62
7
10
57
20
65
11
57.5
21
65
0
CIRCLE
8
1
62
7
10
55
20
88
40
2.5
0
CIRCLE
8
2
62
7
10
55
20
88
40
3.201562
0
CIRCLE
8
1
62
7
10
55
20
88
40
2.5
0
CIRCLE
8
1
62
7
10
55
20
88
40
2.5
0
CIRCLE
8
1
62
7
10
55
20
88
40
2.5
0
CIRCLE
8
2
62
7
10
55
20
88
40
3.201562
0
CIRCLE
8
1
62
7
10
55
20
122.5
40
2.5
0
ARC
8
2
62
7
10
48.5
20
141.5
40
3.535534
50
81.8699
51
188.1301
0
CIRCLE
8
1
62
7
10
50
20
140
40
2.5
0
INSERT
8
2
2
INDSENS4-G5
10
0
20
0
0
INSERT
8
2
2
INDSENS4-G6
10
0
20
0
0
LINE
8
2
62
7
10
116
20
65
11
121
21
65
0
CIRCLE
8
1
62
7
10
120
20
70
40
2.5
0
LINE
8
2
62
7
10
112.5
20
65
11
107.5
21
67.5
0
LINE
8
2
62
7
10
116
20
65
11
112.5
21
65
0
CIRCLE
8
1
62
7
10
85
20
87.5
40
2.5
0
CIRCLE
8
1
62
7
10
85
20
122.5
40
2.5
0
CIRCLE
8
2
62
7
10
85
20
122.5
40
3.201562
0
CIRCLE
8
1
62
7
10
115.5
20
87.5
40
2.5
0
CIRCLE
8
2
62
7
10
115.5
20
87.5
40
3.201562
0
CIRCLE
8
1
62
7
10
115
20
122.5
40
2.5
0
CIRCLE
8
1
62
7
10
120
20
140
40
2.5
0
LINE
8
1
62
7
10
25
20
185.5
11
15
21
178.5
0
POLYLINE
8
1
62
7
70
1
66
1
40
0
41
0
0
VERTEX
8
1
10
50
20
226.5
0
VERTEX
8
1
10
50
20
226.5
0
VERTEX
8
1
10
50.5
20
226.5
0
VERTEX
8
1
10
50.5
20
226.5
0
SEQEND
8
1
0
LINE
8
2
62
7
10
74.5
20
228.5
11
75
21
228.5
0
LINE
8
2
62
7
10
95
20
228.5
11
95.5
21
228.5
0
POLYLINE
8
1
62
7
70
0
66
1
40
0
41
0
0
VERTEX
8
1
10
210.5
20
47
0
VERTEX
8
1
10
175.5
20
45
0
VERTEX
8
1
10
175.5
20
165
0
SEQEND
8
1
0
POLYLINE
8
1
62
7
70
1
66
1
40
0
41
0
0
VERTEX
8
1
10
173.5
20
44
0
VERTEX
8
1
10
173.5
20
166
0
VERTEX
8
1
10
175.5
20
166
0
VERTEX
8
1
10
175.5
20
44
0
SEQEND
8
1
0
POLYLINE
8
1
62
7
70
1
66
1
40
0
41
0
0
VERTEX
8
1
10
171.5
20
45
0
VERTEX
8
1
10
171.5
20
165
0
VERTEX
8
1
10
173.5
20
165
0
VERTEX
8
1
10
173.5
20
45
0
SEQEND
8
1
0
LINE
8
1
62
7
10
164.5
20
175
11
164.5
21
35
0
POLYLINE
8
1
62
7
70
0
66
1
40
0
41
0
0
VERTEX
8
1
10
175.5
20
165
0
VERTEX
8
1
10
210.5
20
163
0
VERTEX
8
1
10
210.5
20
47
0
SEQEND
8
1
0
LINE
8
2
62
7
10
125
20
141
11
125
21
69
0
LINE
8
1
62
7
10
171.5
20
45
11
164.5
21
35
0
LINE
8
2
62
7
10
212.5
20
76.5
11
212.5
21
65
0
POLYLINE
8
2
62
7
70
1
66
1
40
0
41
0
0
VERTEX
8
2
10
210.5
20
56.5
0
VERTEX
8
2
10
210.5
20
61.5
0
VERTEX
8
2
10
215.5
20
61.5
0
VERTEX
8
2
10
215.5
20
56.5
0
SEQEND
8
2
0
LINE
8
2
62
7
10
210.5
20
59
11
215.5
21
59
0
POLYLINE
8
2
62
7
70
1
66
1
40
0
41
0
0
VERTEX
8
2
10
210.5
20
53.5
0
VERTEX
8
2
10
210.5
20
64.5
0
VERTEX
8
2
10
215.5
20
64.5
0
VERTEX
8
2
10
215.5
20
53.5
0
SEQEND
8
2
0
LINE
8
2
62
7
10
210.5
20
65
11
212.5
21
65
0
POLYLINE
8
2
62
7
70
1
66
1
40
0
41
0
0
VERTEX
8
2
10
210.5
20
47
0
VERTEX
8
2
10
210.5
20
47
0
VERTEX
8
2
10
210.5
20
47
0
VERTEX
8
2
10
210.5
20
47
0
SEQEND
8
2
0
LINE
8
2
62
7
10
212.5
20
133
11
234.5
21
133
0
LINE
8
2
62
7
10
234.5
20
76.5
11
212.5
21
76.5
0
LINE
8
2
62
7
10
232.5
20
131
11
210.5
21
131
0
LINE
8
2
62
7
10
232.5
20
78.5
11
210.5
21
78.5
0
LINE
8
2
62
7
10
210.5
20
145
11
212.5
21
145
0
LINE
8
2
62
7
10
212.5
20
145
11
212.5
21
134
0
LINE
8
2
62
7
10
212.5
20
134
11
212.5
21
134
0
LINE
8
2
62
7
10
212.5
20
133.5
11
212.5
21
133.5
0
LINE
8
2
62
7
10
212.5
20
133
11
212.5
21
135
0
POLYLINE
8
1
62
7
70
1
66
1
40
0
41
0
0
VERTEX
8
1
10
210.5
20
140
0
VERTEX
8
1
10
210.5
20
140
0
VERTEX
8
1
10
210.5
20
139.5
0
VERTEX
8
1
10
210.5
20
139.5
0
SEQEND
8
1
0
LINE
8
2
62
7
10
234.5
20
76.5
11
234.5
21
133
0
LINE
8
2
62
7
10
232.5
20
131
11
232.5
21
78.5
0
LINE
8
2
62
7
10
233.5
20
76.5
11
229.5
21
76.5
0
LINE
8
1
62
7
10
145
20
185.5
11
155
21
178.5
0
LINE
8
1
62
7
10
171.5
20
165
11
164.5
21
175
0
ENDSEC
0
EOF
