*
%LPD*%
%LNLayer2_rev5*%
%FSLAX24Y24*%
%MOIN*%
%AD*%
%ADD10C,0.012000*%
%ADD13C,0.016000*%
%ADD15C,0.039400*%
%ADD16C,0.055000*%
%ADD18C,0.080000*%
%ADD20R,0.196800X0.196800*%
%ADD27C,0.010000*%
D15*
X7000Y3200D3*
X-4100Y4300D3*
X1550Y4300D3*
X4200Y4300D3*
X7500Y5500D3*
X7000Y6550D3*
X2050Y6000D3*
X9000Y10450D3*
X7500Y9900D3*
X7000Y9400D3*
X2050Y9900D3*
X1550Y9400D3*
X-4100Y9400D3*
X-6900Y14600D3*
X1550Y14600D3*
X2050Y15100D3*
X7500Y15100D3*
X7000Y14600D3*
X7500Y16300D3*
X-5500Y17900D3*
X6950Y19700D3*
X2050Y20200D3*
X1550Y19700D3*
X-5500Y23600D3*
D20*
X-2400Y23600D3*
X4100Y23600D3*
X7500Y9900D2*
D10*
X7500Y5500D1*
X7500Y15100D2*
X7500Y9900D1*
X7500Y16300D2*
X7500Y15100D1*
X7000Y6550D2*
X7000Y3200D1*
X7000Y9400D2*
D13*
X7000Y14600D1*
X7000Y14600D2*
X7000Y19700D1*
X7000Y21750D2*
X7000Y19700D1*
X4200Y4300D2*
X4200Y4050D1*
X4200Y4050D2*
X4200Y9400D1*
X4200Y2750D2*
X4200Y4050D1*
X4100Y23600D2*
X4100Y21750D1*
X2050Y9900D2*
D10*
X2050Y6000D1*
X2050Y15100D2*
X2050Y20200D1*
X2050Y9900D2*
X2050Y15100D1*
X1550Y19700D2*
D13*
X1550Y16250D1*
X1550Y14600D2*
X1550Y16250D1*
X1550Y21750D2*
X1550Y21020D1*
X1550Y9400D2*
X1550Y14600D1*
X1550Y4300D2*
X1550Y9400D1*
X1550Y21020D2*
X1550Y25590D1*
X1550Y21020D2*
X1550Y16250D1*
X-4100Y4300D2*
X-4100Y9400D1*
X-4100Y9400D2*
X-4100Y12940D1*
X-5500Y21770D2*
X-5500Y21750D1*
X-5500Y23600D2*
D10*
X-5500Y21770D1*
X-5500Y12940D2*
D13*
X-5500Y14600D1*
X-5500Y17900D2*
X-5500Y14600D1*
X-5500Y25590D2*
X-5500Y21750D1*
X-5500Y21750D2*
X-5500Y17900D1*
X8250Y2750D2*
X4200Y2750D1*
X8500Y3000D2*
X8250Y2750D1*
X4200Y9400D2*
X7000Y9400D1*
X-4100Y12940D2*
X-5500Y12940D1*
X-6900Y14600D2*
X-5500Y14600D1*
X6950Y19700D2*
X7000Y19700D1*
X4100Y21750D2*
X1550Y21750D1*
X4100Y21750D2*
X7000Y21750D1*
X1550Y25590D2*
X-5500Y25590D1*
D15*
X-2760Y17130D3*
X-9330Y22240D3*
X9330Y22240D3*
X2760Y6890D3*
X-13200Y24060D2*
D18*
X-13200Y27960D1*
X-9300Y27960D1*
X9300Y27960D2*
X13200Y27960D1*
X13200Y24060D1*
X-11130Y34350D2*
D27*
X-11240Y34440D1*
X-11400Y34500D1*
X-11610Y34500D1*
X-11770Y34440D1*
X-11880Y34350D1*
X-11880Y34260D1*
X-11820Y34170D1*
X-11770Y34120D1*
X-11670Y34060D1*
X-11340Y33970D1*
X-11240Y33920D1*
X-11190Y33880D1*
X-11130Y33790D1*
X-11130Y33640D1*
X-11240Y33550D1*
X-11400Y33500D1*
X-11610Y33500D1*
X-11770Y33550D1*
X-11880Y33640D1*
X-10600Y34500D2*
X-10690Y34440D1*
X-10790Y34350D1*
X-10830Y34260D1*
X-10880Y34120D1*
X-10880Y33880D1*
X-10830Y33740D1*
X-10790Y33640D1*
X-10690Y33550D1*
X-10600Y33500D1*
X-10410Y33500D1*
X-10320Y33550D1*
X-10220Y33640D1*
X-10180Y33740D1*
X-10130Y33880D1*
X-10130Y34120D1*
X-10180Y34260D1*
X-10220Y34350D1*
X-10320Y34440D1*
X-10410Y34500D1*
X-10600Y34500D1*
X-9880Y34500D2*
X-9880Y33500D1*
X-9130Y33500D1*
X-8880Y34500D2*
X-8500Y34500D1*
X-8340Y34440D1*
X-8240Y34350D1*
X-8190Y34260D1*
X-8130Y34120D1*
X-8130Y33880D1*
X-8190Y33740D1*
X-8240Y33640D1*
X-8340Y33550D1*
X-8500Y33500D1*
X-8880Y33500D1*
X-8880Y34500D2*
X-8880Y33500D1*
X-7880Y33500D2*
X-7130Y33500D1*
X-7880Y34020D2*
X-7420Y34020D1*
X-7880Y34500D2*
X-7130Y34500D1*
X-7880Y34500D2*
X-7880Y33500D1*
X-6510Y34020D2*
X-6130Y33500D1*
X-6880Y34500D2*
X-6400Y34500D1*
X-6240Y34440D1*
X-6190Y34390D1*
X-6130Y34300D1*
X-6130Y34210D1*
X-6190Y34120D1*
X-6240Y34060D1*
X-6400Y34020D1*
X-6880Y34020D1*
X-6880Y34500D2*
X-6880Y33500D1*
X-4130Y34350D2*
X-4240Y34440D1*
X-4400Y34500D1*
X-4610Y34500D1*
X-4770Y34440D1*
X-4880Y34350D1*
X-4880Y34260D1*
X-4820Y34170D1*
X-4770Y34120D1*
X-4670Y34060D1*
X-4340Y33970D1*
X-4240Y33920D1*
X-4190Y33880D1*
X-4130Y33790D1*
X-4130Y33640D1*
X-4240Y33550D1*
X-4400Y33500D1*
X-4610Y33500D1*
X-4770Y33550D1*
X-4880Y33640D1*
X-3500Y34500D2*
X-3500Y33500D1*
X-2880Y34500D2*
X-2500Y34500D1*
X-2340Y34440D1*
X-2240Y34350D1*
X-2190Y34260D1*
X-2130Y34120D1*
X-2130Y33880D1*
X-2190Y33740D1*
X-2240Y33640D1*
X-2340Y33550D1*
X-2500Y33500D1*
X-2880Y33500D1*
X-2880Y34500D2*
X-2880Y33500D1*
X-1880Y33500D2*
X-1130Y33500D1*
X-1880Y34020D2*
X-1420Y34020D1*
X-1880Y34500D2*
X-1130Y34500D1*
X-1880Y34500D2*
X-1880Y33500D1*
X880Y34350D2*
X760Y34440D1*
X610Y34500D1*
X390Y34500D1*
X230Y34440D1*
X130Y34350D1*
X130Y34260D1*
X180Y34170D1*
X230Y34120D1*
X340Y34060D1*
X660Y33970D1*
X760Y33920D1*
X820Y33880D1*
X880Y33790D1*
X880Y33640D1*
X760Y33550D1*
X610Y33500D1*
X390Y33500D1*
X230Y33550D1*
X130Y33640D1*
X1130Y34020D2*
X1880Y34020D1*
X1880Y34500D2*
X1880Y33500D1*
X1130Y34500D2*
X1130Y33500D1*
X2130Y33920D2*
X2880Y33920D1*
X3420Y34300D2*
X3480Y34350D1*
X3570Y34490D1*
X3570Y33500D1*
X4420Y34300D2*
X4480Y34350D1*
X4570Y34490D1*
X4570Y33500D1*
X5760Y34490D2*
X5230Y34490D1*
X5180Y34060D1*
X5230Y34110D1*
X5390Y34150D1*
X5550Y34150D1*
X5710Y34110D1*
X5820Y34020D1*
X5880Y33880D1*
X5880Y33770D1*
X5820Y33640D1*
X5710Y33550D1*
X5550Y33500D1*
X5390Y33500D1*
X5230Y33550D1*
X5180Y33590D1*
X5130Y33680D1*
X6130Y33920D2*
X6880Y33920D1*
X7180Y34260D2*
X7180Y34300D1*
X7230Y34390D1*
X7280Y34440D1*
X7390Y34500D1*
X7610Y34500D1*
X7710Y34440D1*
X7760Y34390D1*
X7820Y34300D1*
X7820Y34210D1*
X7760Y34120D1*
X7660Y33970D1*
X7130Y33500D1*
X7880Y33500D1*
X-11880Y36000D2*
X-11400Y36000D1*
X-11240Y35940D1*
X-11190Y35890D1*
X-11130Y35800D1*
X-11130Y35670D1*
X-11190Y35560D1*
X-11240Y35520D1*
X-11400Y35470D1*
X-11880Y35470D1*
X-11880Y36000D2*
X-11880Y35000D1*
X-10510Y35520D2*
X-10130Y35000D1*
X-10880Y36000D2*
X-10400Y36000D1*
X-10240Y35940D1*
X-10190Y35890D1*
X-10130Y35800D1*
X-10130Y35710D1*
X-10190Y35620D1*
X-10240Y35560D1*
X-10400Y35520D1*
X-10880Y35520D1*
X-10880Y36000D2*
X-10880Y35000D1*
X-9500Y36000D2*
X-9500Y35000D1*
X-8130Y36000D2*
X-8130Y35000D1*
X-8880Y36000D2*
X-8130Y35000D1*
X-8880Y36000D2*
X-8880Y35000D1*
X-7880Y36000D2*
X-7130Y36000D1*
X-7500Y36000D2*
X-7500Y35000D1*
X-5130Y36000D2*
X-5130Y35000D1*
X-5880Y36000D2*
X-5130Y35000D1*
X-5880Y36000D2*
X-5880Y35000D1*
X-4550Y35990D2*
X-4720Y35940D1*
X-4820Y35800D1*
X-4880Y35560D1*
X-4880Y35420D1*
X-4820Y35180D1*
X-4720Y35050D1*
X-4550Y35000D1*
X-4450Y35000D1*
X-4290Y35050D1*
X-4190Y35180D1*
X-4130Y35420D1*
X-4130Y35560D1*
X-4190Y35800D1*
X-4290Y35940D1*
X-4450Y35990D1*
X-4550Y35990D1*
X-3510Y35670D2*
X-3540Y35620D1*
X-3510Y35560D1*
X-3480Y35620D1*
X-3510Y35670D1*
X-3510Y35090D2*
X-3540Y35050D1*
X-3510Y35000D1*
X-3480Y35050D1*
X-3510Y35090D1*
X-1380Y35990D2*
X-1380Y35000D1*
X-1380Y35990D2*
X-1880Y35330D1*
X-1130Y35330D1*
X-550Y35990D2*
X-720Y35940D1*
X-820Y35800D1*
X-880Y35560D1*
X-880Y35420D1*
X-820Y35180D1*
X-720Y35050D1*
X-550Y35000D1*
X-450Y35000D1*
X-290Y35050D1*
X-190Y35180D1*
X-130Y35420D1*
X-130Y35560D1*
X-190Y35800D1*
X-290Y35940D1*
X-450Y35990D1*
X-550Y35990D1*
X450Y35990D2*
X280Y35940D1*
X180Y35800D1*
X130Y35560D1*
X130Y35420D1*
X180Y35180D1*
X280Y35050D1*
X450Y35000D1*
X550Y35000D1*
X710Y35050D1*
X820Y35180D1*
X880Y35420D1*
X880Y35560D1*
X820Y35800D1*
X710Y35940D1*
X550Y35990D1*
X450Y35990D1*
X1390Y35990D2*
X1230Y35940D1*
X1180Y35850D1*
X1180Y35760D1*
X1230Y35650D1*
X1340Y35610D1*
X1550Y35560D1*
X1710Y35520D1*
X1820Y35420D1*
X1880Y35330D1*
X1880Y35180D1*
X1820Y35090D1*
X1760Y35050D1*
X1610Y35000D1*
X1390Y35000D1*
X1230Y35050D1*
X1180Y35090D1*
X1130Y35180D1*
X1130Y35330D1*
X1180Y35420D1*
X1280Y35520D1*
X1440Y35560D1*
X1660Y35610D1*
X1760Y35650D1*
X1820Y35760D1*
X1820Y35850D1*
X1760Y35940D1*
X1610Y35990D1*
X1390Y35990D1*
X3420Y35800D2*
X3480Y35850D1*
X3570Y35990D1*
X3570Y35000D1*
X4420Y35800D2*
X4480Y35850D1*
X4570Y35990D1*
X4570Y35000D1*
X5130Y35990D2*
X5880Y35990D1*
X5880Y35990D2*
X5340Y35000D1*
X7450Y35990D2*
X7280Y35940D1*
X7180Y35800D1*
X7130Y35560D1*
X7130Y35420D1*
X7180Y35180D1*
X7280Y35050D1*
X7450Y35000D1*
X7550Y35000D1*
X7710Y35050D1*
X7820Y35180D1*
X7880Y35420D1*
X7880Y35560D1*
X7820Y35800D1*
X7710Y35940D1*
X7550Y35990D1*
X7450Y35990D1*
X8760Y35990D2*
X8230Y35990D1*
X8180Y35560D1*
X8230Y35610D1*
X8390Y35650D1*
X8550Y35650D1*
X8710Y35610D1*
X8820Y35520D1*
X8880Y35380D1*
X8880Y35270D1*
X8820Y35140D1*
X8710Y35050D1*
X8550Y35000D1*
X8390Y35000D1*
X8230Y35050D1*
X8180Y35090D1*
X8130Y35180D1*
X9230Y35990D2*
X9820Y35990D1*
X9490Y35610D1*
X9660Y35610D1*
X9760Y35560D1*
X9820Y35520D1*
X9880Y35380D1*
X9880Y35270D1*
X9820Y35140D1*
X9710Y35050D1*
X9550Y35000D1*
X9390Y35000D1*
X9230Y35050D1*
X9180Y35090D1*
X9130Y35180D1*
X10420Y35800D2*
X10480Y35850D1*
X10570Y35990D1*
X10570Y35000D1*
X-11880Y33000D2*
X-11500Y33000D1*
X-11340Y32940D1*
X-11240Y32850D1*
X-11190Y32760D1*
X-11130Y32620D1*
X-11130Y32380D1*
X-11190Y32240D1*
X-11240Y32140D1*
X-11340Y32050D1*
X-11500Y32000D1*
X-11880Y32000D1*
X-11880Y33000D2*
X-11880Y32000D1*
X-10740Y32330D2*
X-10270Y32330D1*
X-10510Y33000D2*
X-10130Y32000D1*
X-10510Y33000D2*
X-10880Y32000D1*
X-9880Y33000D2*
X-9130Y33000D1*
X-9500Y33000D2*
X-9500Y32000D1*
X-8880Y32000D2*
X-8130Y32000D1*
X-8880Y32520D2*
X-8420Y32520D1*
X-8880Y33000D2*
X-8130Y33000D1*
X-8880Y33000D2*
X-8880Y32000D1*
X-7510Y32670D2*
X-7540Y32620D1*
X-7510Y32560D1*
X-7480Y32620D1*
X-7510Y32670D1*
X-7510Y32090D2*
X-7540Y32050D1*
X-7510Y32000D1*
X-7480Y32050D1*
X-7510Y32090D1*
X-11130Y31500D2*
X-11130Y30500D1*
X-11130Y31500D2*
X-11500Y30500D1*
X-11880Y31500D2*
X-11500Y30500D1*
X-11880Y31500D2*
X-11880Y30500D1*
X-10740Y30830D2*
X-10270Y30830D1*
X-10510Y31500D2*
X-10130Y30500D1*
X-10510Y31500D2*
X-10880Y30500D1*
X-9880Y31500D2*
X-9500Y31500D1*
X-9340Y31440D1*
X-9240Y31350D1*
X-9190Y31260D1*
X-9130Y31120D1*
X-9130Y30880D1*
X-9190Y30740D1*
X-9240Y30640D1*
X-9340Y30550D1*
X-9500Y30500D1*
X-9880Y30500D1*
X-9880Y31500D2*
X-9880Y30500D1*
X-8880Y30500D2*
X-8130Y30500D1*
X-8880Y31020D2*
X-8420Y31020D1*
X-8880Y31500D2*
X-8130Y31500D1*
X-8880Y31500D2*
X-8880Y30500D1*
X-6880Y31020D2*
X-6400Y31020D1*
X-6240Y30970D1*
X-6190Y30920D1*
X-6130Y30830D1*
X-6130Y30680D1*
X-6190Y30590D1*
X-6240Y30550D1*
X-6400Y30500D1*
X-6880Y30500D1*
X-6880Y31500D2*
X-6400Y31500D1*
X-6240Y31440D1*
X-6190Y31390D1*
X-6130Y31300D1*
X-6130Y31210D1*
X-6190Y31120D1*
X-6240Y31060D1*
X-6400Y31020D1*
X-6880Y31500D2*
X-6880Y30500D1*
X-5130Y31500D2*
X-5500Y31020D1*
X-5880Y31500D2*
X-5500Y31020D1*
X-5500Y30500D1*
X-4510Y31170D2*
X-4540Y31120D1*
X-4510Y31060D1*
X-4480Y31120D1*
X-4510Y31170D1*
X-4510Y30590D2*
X-4540Y30550D1*
X-4510Y30500D1*
X-4480Y30550D1*
X-4510Y30590D1*
X-2880Y31500D2*
X-2400Y31500D1*
X-2240Y31440D1*
X-2190Y31390D1*
X-2130Y31300D1*
X-2130Y31170D1*
X-2190Y31060D1*
X-2240Y31020D1*
X-2400Y30970D1*
X-2880Y30970D1*
X-2880Y31500D2*
X-2880Y30500D1*
X-1510Y30590D2*
X-1540Y30550D1*
X-1510Y30500D1*
X-1480Y30550D1*
X-1510Y30590D1*
X-130Y31260D2*
X-180Y31350D1*
X-280Y31440D1*
X-380Y31500D1*
X-580Y31500D1*
X-680Y31440D1*
X-780Y31350D1*
X-830Y31260D1*
X-880Y31120D1*
X-880Y30880D1*
X-830Y30740D1*
X-780Y30640D1*
X-680Y30550D1*
X-580Y30500D1*
X-380Y30500D1*
X-280Y30550D1*
X-180Y30640D1*
X-130Y30740D1*
X130Y30970D2*
X330Y31110D1*
X460Y31150D1*
X670Y31150D1*
X800Y31110D1*
X880Y30970D1*
X880Y30500D1*
X130Y31490D2*
X130Y30500D1*
X1130Y30880D2*
X1220Y31020D1*
X1400Y31110D1*
X1590Y31150D1*
X1880Y31150D1*
X1130Y31150D2*
X1130Y30500D1*
X2130Y30350D2*
X2880Y31500D1*
X3880Y31350D2*
X3760Y31440D1*
X3610Y31500D1*
X3390Y31500D1*
X3230Y31440D1*
X3130Y31350D1*
X3130Y31260D1*
X3180Y31170D1*
X3230Y31120D1*
X3340Y31060D1*
X3660Y30970D1*
X3760Y30920D1*
X3820Y30880D1*
X3880Y30790D1*
X3880Y30640D1*
X3760Y30550D1*
X3610Y30500D1*
X3390Y30500D1*
X3230Y30550D1*
X3130Y30640D1*
X4490Y31020D2*
X4880Y30500D1*
X4130Y31500D2*
X4610Y31500D1*
X4760Y31440D1*
X4820Y31390D1*
X4880Y31300D1*
X4880Y31210D1*
X4820Y31120D1*
X4760Y31060D1*
X4610Y31020D1*
X4130Y31020D1*
X4130Y31500D2*
X4130Y30500D1*
X5870Y31500D2*
X5870Y30740D1*
X5790Y30590D1*
X5720Y30550D1*
X5580Y30500D1*
X5420Y30500D1*
X5280Y30550D1*
X5200Y30590D1*
X5130Y30740D1*
X5130Y30830D1*
X6130Y30350D2*
X6880Y31500D1*
X7880Y31350D2*
X7760Y31440D1*
X7610Y31500D1*
X7390Y31500D1*
X7230Y31440D1*
X7130Y31350D1*
X7130Y31260D1*
X7180Y31170D1*
X7230Y31120D1*
X7340Y31060D1*
X7660Y30970D1*
X7760Y30920D1*
X7820Y30880D1*
X7880Y30790D1*
X7880Y30640D1*
X7760Y30550D1*
X7610Y30500D1*
X7390Y30500D1*
X7230Y30550D1*
X7130Y30640D1*
X8880Y31500D2*
X8880Y30500D1*
X8880Y31500D2*
X8500Y30500D1*
X8130Y31500D2*
X8500Y30500D1*
X8130Y31500D2*
X8130Y30500D1*
X9880Y31020D2*
X9750Y31110D1*
X9620Y31150D1*
X9430Y31150D1*
X9310Y31110D1*
X9190Y31020D1*
X9130Y30880D1*
X9130Y30770D1*
X9190Y30640D1*
X9310Y30550D1*
X9430Y30500D1*
X9620Y30500D1*
X9750Y30550D1*
X9880Y30640D1*
X9880Y31150D2*
X9880Y30500D1*
X12650Y23480D2*
D10*
X12650Y13090D1*
X12650Y13090D1*
X12640Y2700D1*
X12620Y2700D1*
X-12620Y2700D2*
X-12640Y2700D1*
X-12650Y13090D1*
X-12650Y13090D1*
X-12650Y23480D1*
X-12620Y23480D1*
X-12620Y27380D1*
X-8720Y27380D1*
X-8720Y27420D1*
X8720Y27420D1*
X8720Y27380D1*
X12620Y27380D1*
X12620Y23480D1*
X12650Y23480D1*
X11280Y21440D2*
X10140Y20290D1*
X8520Y20290D1*
X7380Y21440D1*
X7380Y23050D1*
X8520Y24200D1*
X10140Y24200D1*
X11280Y23050D1*
X11280Y21440D1*
X8760Y3400D2*
X8760Y10160D1*
X8620Y10290D1*
X8620Y10610D1*
X8840Y10830D1*
X9160Y10830D1*
X9380Y10610D1*
X9380Y10290D1*
X9240Y10160D1*
X7880Y5340D2*
X7660Y5120D1*
X7340Y5120D1*
X7240Y5230D1*
X7240Y3490D1*
X7380Y3360D1*
X7380Y3040D1*
X7160Y2820D1*
X6840Y2820D1*
X6620Y3040D1*
X6620Y3360D1*
X6760Y3490D1*
X6760Y6260D1*
X6620Y6390D1*
X6620Y6710D1*
X6840Y6930D1*
X7160Y6930D1*
X7260Y6820D1*
X7260Y9130D1*
X7160Y9020D1*
X6840Y9020D1*
X6620Y9240D1*
X6620Y9560D1*
X6840Y9780D1*
X7120Y9780D1*
X7120Y10060D1*
X7260Y10190D1*
X7260Y14330D1*
X7160Y14220D1*
X6840Y14220D1*
X6620Y14440D1*
X6620Y14760D1*
X6840Y14980D1*
X7120Y14980D1*
X7120Y15260D1*
X7260Y15390D1*
X7260Y16010D1*
X7120Y16140D1*
X7120Y16460D1*
X7340Y16680D1*
X7660Y16680D1*
X7880Y16460D1*
X7880Y16140D1*
X7740Y16010D1*
X7740Y15390D1*
X7880Y15260D1*
X7880Y14940D1*
X7740Y14810D1*
X7740Y10190D1*
X7880Y10060D1*
X7880Y9740D1*
X7740Y9610D1*
X7740Y5790D1*
X7880Y5660D1*
X7880Y5340D1*
X7330Y19540D2*
X7110Y19320D1*
X6790Y19320D1*
X6570Y19540D1*
X6570Y19860D1*
X6790Y20080D1*
X7110Y20080D1*
X7330Y19860D1*
X7330Y19540D1*
X5260Y22440D2*
X2940Y22440D1*
X2940Y24760D1*
X5260Y24760D1*
X5260Y22440D1*
X4610Y19450D2*
X4310Y19150D1*
X3890Y19150D1*
X3590Y19450D1*
X3590Y19880D1*
X3890Y20180D1*
X4310Y20180D1*
X4610Y19880D1*
X4610Y19450D1*
X4580Y4140D2*
X4360Y3920D1*
X4040Y3920D1*
X3820Y4140D1*
X3820Y4460D1*
X4040Y4680D1*
X4360Y4680D1*
X4580Y4460D1*
X4580Y4140D1*
X3270Y6680D2*
X2970Y6380D1*
X2540Y6380D1*
X2290Y6630D1*
X2290Y6290D1*
X2430Y6160D1*
X2430Y5840D1*
X2210Y5620D1*
X1890Y5620D1*
X1670Y5840D1*
X1670Y6160D1*
X1810Y6290D1*
X1810Y9130D1*
X1710Y9020D1*
X1390Y9020D1*
X1170Y9240D1*
X1170Y9560D1*
X1390Y9780D1*
X1670Y9780D1*
X1670Y10060D1*
X1810Y10190D1*
X1810Y14330D1*
X1710Y14220D1*
X1390Y14220D1*
X1170Y14440D1*
X1170Y14760D1*
X1390Y14980D1*
X1670Y14980D1*
X1670Y15260D1*
X1810Y15390D1*
X1810Y19430D1*
X1710Y19320D1*
X1390Y19320D1*
X1170Y19540D1*
X1170Y19860D1*
X1390Y20080D1*
X1670Y20080D1*
X1670Y20360D1*
X1890Y20580D1*
X2210Y20580D1*
X2430Y20360D1*
X2430Y20040D1*
X2290Y19910D1*
X2290Y15390D1*
X2430Y15260D1*
X2430Y14940D1*
X2290Y14810D1*
X2290Y10190D1*
X2430Y10060D1*
X2430Y9740D1*
X2290Y9610D1*
X2290Y7150D1*
X2540Y7400D1*
X2970Y7400D1*
X3270Y7100D1*
X3270Y6680D1*
X1930Y4140D2*
X1710Y3920D1*
X1390Y3920D1*
X1170Y4140D1*
X1170Y4460D1*
X1390Y4680D1*
X1710Y4680D1*
X1930Y4460D1*
X1930Y4140D1*
X-690Y9690D2*
X-3860Y9690D1*
X-3720Y9560D1*
X-3720Y9240D1*
X-3940Y9020D1*
X-4260Y9020D1*
X-4480Y9240D1*
X-4480Y9560D1*
X-4260Y9780D1*
X-4060Y9780D1*
X-4060Y25060D1*
X-690Y25060D1*
X-690Y9690D1*
X-3720Y4140D2*
X-3940Y3920D1*
X-4260Y3920D1*
X-4480Y4140D1*
X-4480Y4460D1*
X-4260Y4680D1*
X-3940Y4680D1*
X-3720Y4460D1*
X-3720Y4140D1*
X-5120Y23440D2*
X-5340Y23220D1*
X-5660Y23220D1*
X-5880Y23440D1*
X-5880Y23760D1*
X-5660Y23980D1*
X-5340Y23980D1*
X-5120Y23760D1*
X-5120Y23440D1*
X-5120Y17740D2*
X-5340Y17520D1*
X-5660Y17520D1*
X-5880Y17740D1*
X-5880Y18060D1*
X-5660Y18280D1*
X-5340Y18280D1*
X-5120Y18060D1*
X-5120Y17740D1*
X-6520Y14440D2*
X-6740Y14220D1*
X-7060Y14220D1*
X-7280Y14440D1*
X-7280Y14760D1*
X-7060Y14980D1*
X-6740Y14980D1*
X-6520Y14760D1*
X-6520Y14440D1*
X-7380Y21440D2*
X-8520Y20290D1*
X-10140Y20290D1*
X-11280Y21440D1*
X-11280Y23050D1*
X-10140Y24200D1*
X-8520Y24200D1*
X-7380Y23050D1*
X-7380Y21440D1*
X11410Y6240D2*
X11410Y27380D1*
X11310Y7260D2*
X11310Y27380D1*
X11210Y23120D2*
X11210Y27380D1*
X11120Y23220D2*
X11120Y27380D1*
X11020Y23310D2*
X11020Y27380D1*
X10930Y23410D2*
X10930Y27380D1*
X10830Y23510D2*
X10830Y27380D1*
X10730Y23600D2*
X10730Y27380D1*
X10640Y23700D2*
X10640Y27380D1*
X10540Y23790D2*
X10540Y27380D1*
X10450Y23890D2*
X10450Y27380D1*
X10350Y23990D2*
X10350Y27380D1*
X10250Y24080D2*
X10250Y27380D1*
X10160Y24180D2*
X10160Y27380D1*
X10060Y24200D2*
X10060Y27380D1*
X9970Y24200D2*
X9970Y27380D1*
X9870Y24200D2*
X9870Y27380D1*
X9770Y24200D2*
X9770Y27380D1*
X9680Y24200D2*
X9680Y27380D1*
X9580Y24200D2*
X9580Y27380D1*
X9490Y24200D2*
X9490Y27380D1*
X9390Y24200D2*
X9390Y27380D1*
X9290Y10690D2*
X9290Y20290D1*
X9290Y24200D2*
X9290Y27380D1*
X9200Y10790D2*
X9200Y20290D1*
X9200Y24200D2*
X9200Y27380D1*
X9100Y10830D2*
X9100Y20290D1*
X9100Y24200D2*
X9100Y27380D1*
X9010Y10830D2*
X9010Y20290D1*
X9010Y24200D2*
X9010Y27380D1*
X8910Y10830D2*
X8910Y20290D1*
X8910Y24200D2*
X8910Y27380D1*
X8810Y10800D2*
X8810Y20290D1*
X8810Y24200D2*
X8810Y27380D1*
X8720Y10700D2*
X8720Y20290D1*
X8720Y24200D2*
X8720Y27380D1*
X8620Y24200D2*
X8620Y27420D1*
X8530Y24200D2*
X8530Y27420D1*
X8430Y24100D2*
X8430Y27420D1*
X8330Y24010D2*
X8330Y27420D1*
X8240Y23910D2*
X8240Y27420D1*
X8140Y23820D2*
X8140Y27420D1*
X8050Y23720D2*
X8050Y27420D1*
X7950Y23620D2*
X7950Y27420D1*
X7850Y5680D2*
X7850Y9720D1*
X7850Y10080D2*
X7850Y14920D1*
X7850Y15280D2*
X7850Y16120D1*
X7850Y16480D2*
X7850Y20960D1*
X7850Y23530D2*
X7850Y27420D1*
X7760Y5780D2*
X7760Y9630D1*
X7760Y10180D2*
X7760Y14830D1*
X7760Y15380D2*
X7760Y16030D1*
X7760Y16580D2*
X7760Y21060D1*
X7760Y23430D2*
X7760Y27420D1*
X7660Y16670D2*
X7660Y21150D1*
X7660Y23340D2*
X7660Y27420D1*
X7570Y16680D2*
X7570Y21250D1*
X7570Y23240D2*
X7570Y27420D1*
X7470Y16680D2*
X7470Y21350D1*
X7470Y23140D2*
X7470Y27420D1*
X7370Y3360D2*
X7370Y5120D1*
X7370Y16680D2*
X7370Y27420D1*
X7280Y3460D2*
X7280Y5190D1*
X7280Y16610D2*
X7280Y19500D1*
X7280Y19910D2*
X7280Y27420D1*
X7180Y6900D2*
X7180Y9050D1*
X7180Y10120D2*
X7180Y14250D1*
X7180Y15320D2*
X7180Y16090D1*
X7180Y16520D2*
X7180Y19400D1*
X7180Y20000D2*
X7180Y27420D1*
X7090Y6930D2*
X7090Y9020D1*
X7090Y9780D2*
X7090Y14220D1*
X7090Y14980D2*
X7090Y19320D1*
X7090Y20080D2*
X7090Y27420D1*
X6990Y6930D2*
X6990Y9020D1*
X6990Y9780D2*
X6990Y14220D1*
X6990Y14980D2*
X6990Y19320D1*
X6990Y20080D2*
X6990Y27420D1*
X6890Y6930D2*
X6890Y9020D1*
X6890Y9780D2*
X6890Y14220D1*
X6890Y14980D2*
X6890Y19320D1*
X6890Y20080D2*
X6890Y27420D1*
X6800Y6880D2*
X6800Y9070D1*
X6800Y9730D2*
X6800Y14270D1*
X6800Y14930D2*
X6800Y19320D1*
X6800Y20080D2*
X6800Y27420D1*
X6700Y3440D2*
X6700Y6320D1*
X6700Y6790D2*
X6700Y9170D1*
X6700Y9640D2*
X6700Y14370D1*
X6700Y14840D2*
X6700Y19420D1*
X6700Y19990D2*
X6700Y27420D1*
X6610Y19890D2*
X6610Y27420D1*
X5260Y24760D2*
X5260Y27420D1*
X5170Y24760D2*
X5170Y27420D1*
X5070Y24760D2*
X5070Y27420D1*
X4970Y24760D2*
X4970Y27420D1*
X4880Y24760D2*
X4880Y27420D1*
X4780Y24760D2*
X4780Y27420D1*
X4690Y24760D2*
X4690Y27420D1*
X4590Y19900D2*
X4590Y22440D1*
X4590Y24760D2*
X4590Y27420D1*
X4490Y4540D2*
X4490Y19330D1*
X4490Y20000D2*
X4490Y22440D1*
X4490Y24760D2*
X4490Y27420D1*
X4400Y4640D2*
X4400Y19230D1*
X4400Y20090D2*
X4400Y22440D1*
X4400Y24760D2*
X4400Y27420D1*
X4300Y4680D2*
X4300Y19150D1*
X4300Y20180D2*
X4300Y22440D1*
X4300Y24760D2*
X4300Y27420D1*
X4210Y4680D2*
X4210Y19150D1*
X4210Y20180D2*
X4210Y22440D1*
X4210Y24760D2*
X4210Y27420D1*
X4110Y4680D2*
X4110Y19150D1*
X4110Y20180D2*
X4110Y22440D1*
X4110Y24760D2*
X4110Y27420D1*
X4010Y4650D2*
X4010Y19150D1*
X4010Y20180D2*
X4010Y22440D1*
X4010Y24760D2*
X4010Y27420D1*
X3920Y4550D2*
X3920Y19150D1*
X3920Y20180D2*
X3920Y22440D1*
X3920Y24760D2*
X3920Y27420D1*
X3820Y20110D2*
X3820Y22440D1*
X3820Y24760D2*
X3820Y27420D1*
X3730Y20020D2*
X3730Y22440D1*
X3730Y24760D2*
X3730Y27420D1*
X3630Y19920D2*
X3630Y22440D1*
X3630Y24760D2*
X3630Y27420D1*
X3530Y24760D2*
X3530Y27420D1*
X3440Y24760D2*
X3440Y27420D1*
X3340Y24760D2*
X3340Y27420D1*
X3250Y7130D2*
X3250Y22440D1*
X3250Y24760D2*
X3250Y27420D1*
X3150Y7220D2*
X3150Y22440D1*
X3150Y24760D2*
X3150Y27420D1*
X3050Y7320D2*
X3050Y22440D1*
X3050Y24760D2*
X3050Y27420D1*
X2960Y7400D2*
X2960Y22440D1*
X2960Y24760D2*
X2960Y27420D1*
X2860Y7400D2*
X2860Y27420D1*
X2770Y7400D2*
X2770Y27420D1*
X2670Y7400D2*
X2670Y27420D1*
X2570Y7400D2*
X2570Y27420D1*
X2480Y7340D2*
X2480Y27420D1*
X2380Y6200D2*
X2380Y6540D1*
X2380Y7240D2*
X2380Y9700D1*
X2380Y10100D2*
X2380Y14900D1*
X2380Y15300D2*
X2380Y20000D1*
X2380Y20400D2*
X2380Y27420D1*
X2290Y20500D2*
X2290Y27420D1*
X2190Y20580D2*
X2190Y27420D1*
X2090Y20580D2*
X2090Y27420D1*
X2000Y20580D2*
X2000Y27420D1*
X1900Y4480D2*
X1900Y5620D1*
X1900Y20580D2*
X1900Y27420D1*
X1810Y4580D2*
X1810Y5710D1*
X1810Y6290D2*
X1810Y9120D1*
X1810Y10190D2*
X1810Y14320D1*
X1810Y15390D2*
X1810Y19420D1*
X1810Y20490D2*
X1810Y27420D1*
X1710Y4670D2*
X1710Y5810D1*
X1710Y6190D2*
X1710Y9030D1*
X1710Y10090D2*
X1710Y14230D1*
X1710Y15290D2*
X1710Y19330D1*
X1710Y20390D2*
X1710Y27420D1*
X1610Y4680D2*
X1610Y9020D1*
X1610Y9780D2*
X1610Y14220D1*
X1610Y14980D2*
X1610Y19320D1*
X1610Y20080D2*
X1610Y27420D1*
X1520Y4680D2*
X1520Y9020D1*
X1520Y9780D2*
X1520Y14220D1*
X1520Y14980D2*
X1520Y19320D1*
X1520Y20080D2*
X1520Y27420D1*
X1420Y4680D2*
X1420Y9020D1*
X1420Y9780D2*
X1420Y14220D1*
X1420Y14980D2*
X1420Y19320D1*
X1420Y20080D2*
X1420Y27420D1*
X1330Y4610D2*
X1330Y9090D1*
X1330Y9710D2*
X1330Y14290D1*
X1330Y14910D2*
X1330Y19390D1*
X1330Y20010D2*
X1330Y27420D1*
X1230Y4510D2*
X1230Y9190D1*
X1230Y9610D2*
X1230Y14390D1*
X1230Y14810D2*
X1230Y19490D1*
X1230Y19910D2*
X1230Y27420D1*
X-790Y25060D2*
X-790Y27420D1*
X-880Y25060D2*
X-880Y27420D1*
X-980Y25060D2*
X-980Y27420D1*
X-1070Y25060D2*
X-1070Y27420D1*
X-1170Y25060D2*
X-1170Y27420D1*
X-1270Y25060D2*
X-1270Y27420D1*
X-1360Y25060D2*
X-1360Y27420D1*
X-1460Y25060D2*
X-1460Y27420D1*
X-1550Y25060D2*
X-1550Y27420D1*
X-1650Y25060D2*
X-1650Y27420D1*
X-1750Y25060D2*
X-1750Y27420D1*
X-1840Y25060D2*
X-1840Y27420D1*
X-1940Y25060D2*
X-1940Y27420D1*
X-2030Y25060D2*
X-2030Y27420D1*
X-2130Y25060D2*
X-2130Y27420D1*
X-2230Y25060D2*
X-2230Y27420D1*
X-2320Y25060D2*
X-2320Y27420D1*
X-2420Y25060D2*
X-2420Y27420D1*
X-2510Y25060D2*
X-2510Y27420D1*
X-2610Y25060D2*
X-2610Y27420D1*
X-2710Y25060D2*
X-2710Y27420D1*
X-2800Y25060D2*
X-2800Y27420D1*
X-2900Y25060D2*
X-2900Y27420D1*
X-2990Y25060D2*
X-2990Y27420D1*
X-3090Y25060D2*
X-3090Y27420D1*
X-3190Y25060D2*
X-3190Y27420D1*
X-3280Y25060D2*
X-3280Y27420D1*
X-3380Y25060D2*
X-3380Y27420D1*
X-3470Y25060D2*
X-3470Y27420D1*
X-3570Y25060D2*
X-3570Y27420D1*
X-3670Y25060D2*
X-3670Y27420D1*
X-3760Y4500D2*
X-3760Y9210D1*
X-3760Y9600D2*
X-3760Y9690D1*
X-3760Y25060D2*
X-3760Y27420D1*
X-3860Y4590D2*
X-3860Y9110D1*
X-3860Y25060D2*
X-3860Y27420D1*
X-3950Y4680D2*
X-3950Y9020D1*
X-3950Y25060D2*
X-3950Y27420D1*
X-4050Y4680D2*
X-4050Y9020D1*
X-4050Y25060D2*
X-4050Y27420D1*
X-4150Y4680D2*
X-4150Y9020D1*
X-4150Y9780D2*
X-4150Y27420D1*
X-4240Y4680D2*
X-4240Y9020D1*
X-4240Y9780D2*
X-4240Y27420D1*
X-4340Y4600D2*
X-4340Y9110D1*
X-4340Y9700D2*
X-4340Y27420D1*
X-4430Y4500D2*
X-4430Y9200D1*
X-4430Y9600D2*
X-4430Y27420D1*
X-5200Y18140D2*
X-5200Y23370D1*
X-5200Y23840D2*
X-5200Y27420D1*
X-5300Y18230D2*
X-5300Y23270D1*
X-5300Y23930D2*
X-5300Y27420D1*
X-5390Y18280D2*
X-5390Y23220D1*
X-5390Y23980D2*
X-5390Y27420D1*
X-5490Y18280D2*
X-5490Y23220D1*
X-5490Y23980D2*
X-5490Y27420D1*
X-5590Y18280D2*
X-5590Y23220D1*
X-5590Y23980D2*
X-5590Y27420D1*
X-5680Y18250D2*
X-5680Y23250D1*
X-5680Y23950D2*
X-5680Y27420D1*
X-5780Y18160D2*
X-5780Y23350D1*
X-5780Y23860D2*
X-5780Y27420D1*
X-5870Y18060D2*
X-5870Y23440D1*
X-5870Y23760D2*
X-5870Y27420D1*
X-6550Y14780D2*
X-6550Y27420D1*
X-6640Y14880D2*
X-6640Y27420D1*
X-6740Y14970D2*
X-6740Y27420D1*
X-6830Y14980D2*
X-6830Y27420D1*
X-6930Y14980D2*
X-6930Y27420D1*
X-7030Y14980D2*
X-7030Y27420D1*
X-7120Y14910D2*
X-7120Y27420D1*
X-7220Y14820D2*
X-7220Y27420D1*
X-7410Y23080D2*
X-7410Y27420D1*
X-7510Y23180D2*
X-7510Y27420D1*
X-7600Y23280D2*
X-7600Y27420D1*
X-7700Y23370D2*
X-7700Y27420D1*
X-7790Y23470D2*
X-7790Y27420D1*
X-7890Y23560D2*
X-7890Y27420D1*
X-7990Y23660D2*
X-7990Y27420D1*
X-8080Y23760D2*
X-8080Y27420D1*
X-8180Y23850D2*
X-8180Y27420D1*
X-8270Y23950D2*
X-8270Y27420D1*
X-8370Y24040D2*
X-8370Y27420D1*
X-8470Y24140D2*
X-8470Y27420D1*
X-8560Y24200D2*
X-8560Y27420D1*
X-8660Y24200D2*
X-8660Y27420D1*
X-8750Y24200D2*
X-8750Y27380D1*
X-8850Y24200D2*
X-8850Y27380D1*
X-8950Y24200D2*
X-8950Y27380D1*
X-9040Y24200D2*
X-9040Y27380D1*
X-9140Y24200D2*
X-9140Y27380D1*
X-9230Y24200D2*
X-9230Y27380D1*
X-9330Y24200D2*
X-9330Y27380D1*
X-9430Y24200D2*
X-9430Y27380D1*
X-9520Y24200D2*
X-9520Y27380D1*
X-9620Y24200D2*
X-9620Y27380D1*
X-9710Y24200D2*
X-9710Y27380D1*
X-9810Y24200D2*
X-9810Y27380D1*
X-9910Y24200D2*
X-9910Y27380D1*
X-10000Y24200D2*
X-10000Y27380D1*
X-10100Y24200D2*
X-10100Y27380D1*
X-10190Y24140D2*
X-10190Y27380D1*
X-10290Y24050D2*
X-10290Y27380D1*
X-10390Y23950D2*
X-10390Y27380D1*
X-10480Y23850D2*
X-10480Y27380D1*
X-10580Y23760D2*
X-10580Y27380D1*
X-10670Y23660D2*
X-10670Y27380D1*
X-10770Y23570D2*
X-10770Y27380D1*
X-10870Y23470D2*
X-10870Y27380D1*
X-10960Y23370D2*
X-10960Y27380D1*
X-11060Y23280D2*
X-11060Y27380D1*
X-11150Y23180D2*
X-11150Y27380D1*
X-11250Y23090D2*
X-11250Y27380D1*
X-12640Y2700D2*
X-12640Y23480D1*
X4100Y22500D2*
X4100Y24700D1*
X5200Y23600D2*
X3000Y23600D1*
X-6900Y14280D2*
X-6900Y14920D1*
X-6580Y14600D2*
X-7220Y14600D1*
X-5500Y23280D2*
X-5500Y23920D1*
X-5180Y23600D2*
X-5820Y23600D1*
X-4100Y3980D2*
X-4100Y4620D1*
X-3780Y4300D2*
X-4420Y4300D1*
X7000Y9080D2*
X7000Y9720D1*
X7000Y9400D2*
X6680Y9400D1*
X1550Y9080D2*
X1550Y9720D1*
X1550Y9400D2*
X1230Y9400D1*
X1550Y14280D2*
X1550Y14920D1*
X1550Y14600D2*
X1230Y14600D1*
X7000Y14280D2*
X7000Y14920D1*
X7000Y14600D2*
X6680Y14600D1*
X6950Y19380D2*
X6950Y20020D1*
X7270Y19700D2*
X6630Y19700D1*
X1550Y3980D2*
X1550Y4620D1*
X1870Y4300D2*
X1230Y4300D1*
X-4100Y9080D2*
X-4100Y9720D1*
X-3780Y9400D2*
X-4420Y9400D1*
X1550Y19380D2*
X1550Y20020D1*
X1550Y19700D2*
X1230Y19700D1*
X4200Y3980D2*
X4200Y4620D1*
X4520Y4300D2*
X3880Y4300D1*
X-5500Y17580D2*
X-5500Y18220D1*
X-5180Y17900D2*
X-5820Y17900D1*
D15*
X4100Y19660D3*
X-2400Y19660D3*
X9400Y4400D3*
D16*
X11000Y2400D3*
X10000Y2900D3*
X11000Y3400D3*
X11000Y4400D3*
X10000Y3900D3*
X10000Y4900D3*
X11000Y5400D3*
X10000Y5900D3*
X11000Y6400D3*
X10000Y6900D3*
X9350Y6250D2*
D10*
X9350Y4400D1*
X9350Y4400D2*
X9400Y4400D1*
X10000Y6900D2*
X9350Y6250D1*
X11460Y6210D2*
X11190Y5950D1*
X10810Y5950D1*
X10550Y6210D1*
X10550Y6590D1*
X10460Y6710D2*
X10190Y6450D1*
X9880Y6450D1*
X9590Y6150D1*
X9590Y6130D1*
X9810Y6360D1*
X10190Y6360D1*
X10460Y6090D1*
X10460Y5710D1*
X10190Y5450D1*
X9810Y5450D1*
X9590Y5670D1*
X9590Y5130D1*
X9810Y5360D1*
X10190Y5360D1*
X10460Y5090D1*
X10460Y4710D1*
X10190Y4450D1*
X9810Y4450D1*
X9780Y4480D1*
X9780Y4320D1*
X9810Y4360D1*
X10190Y4360D1*
X10460Y4090D1*
X10460Y3710D1*
X10190Y3450D1*
X9810Y3450D1*
X9600Y3660D1*
X8900Y3660D1*
X8760Y3800D1*
X9240Y6480D2*
X9550Y6780D1*
X9550Y7090D1*
X9810Y7360D1*
X10170Y7360D1*
X10170Y7640D1*
X10510Y7980D1*
X10990Y7980D1*
X11330Y7640D1*
X11330Y7160D1*
X11030Y6860D1*
X11190Y6860D1*
X11460Y6590D1*
X11460Y6210D1*
X11460Y5210D2*
X11190Y4950D1*
X10810Y4950D1*
X10550Y5210D1*
X10550Y5590D1*
X10810Y5860D1*
X11190Y5860D1*
X11460Y5590D1*
X11460Y5210D1*
X11460Y4210D2*
X11190Y3950D1*
X10810Y3950D1*
X10550Y4210D1*
X10550Y4590D1*
X10810Y4860D1*
X11190Y4860D1*
X11460Y4590D1*
X11460Y4210D1*
X11460Y3210D2*
X11190Y2950D1*
X10810Y2950D1*
X10550Y3210D1*
X10550Y3590D1*
X10810Y3860D1*
X11190Y3860D1*
X11460Y3590D1*
X11460Y3210D1*
X11460Y2210D2*
X11190Y1950D1*
X10810Y1950D1*
X10550Y2210D1*
X10550Y2590D1*
X10810Y2860D1*
X11190Y2860D1*
X11460Y2590D1*
X11460Y2210D1*
X10460Y2710D2*
X10190Y2450D1*
X9810Y2450D1*
X9550Y2710D1*
X9550Y3090D1*
X9810Y3360D1*
X10190Y3360D1*
X10460Y3090D1*
X10460Y2710D1*
X11410Y2640D2*
X11410Y3160D1*
X11410Y3640D2*
X11410Y4160D1*
X11410Y4640D2*
X11410Y5160D1*
X11410Y5640D2*
X11410Y6160D1*
X11310Y2730D2*
X11310Y3070D1*
X11310Y3730D2*
X11310Y4070D1*
X11310Y4730D2*
X11310Y5070D1*
X11310Y5730D2*
X11310Y6070D1*
X11310Y6730D2*
X11310Y7140D1*
X11210Y2830D2*
X11210Y2970D1*
X11210Y3830D2*
X11210Y3970D1*
X11210Y4830D2*
X11210Y4970D1*
X11210Y5830D2*
X11210Y5970D1*
X11210Y6830D2*
X11210Y7040D1*
X11120Y2860D2*
X11120Y2950D1*
X11120Y3860D2*
X11120Y3950D1*
X11120Y4860D2*
X11120Y4950D1*
X11120Y5860D2*
X11120Y5950D1*
X11120Y6860D2*
X11120Y6950D1*
X11020Y2860D2*
X11020Y2950D1*
X11020Y3860D2*
X11020Y3950D1*
X11020Y4860D2*
X11020Y4950D1*
X11020Y5860D2*
X11020Y5950D1*
X10930Y2860D2*
X10930Y2950D1*
X10930Y3860D2*
X10930Y3950D1*
X10930Y4860D2*
X10930Y4950D1*
X10930Y5860D2*
X10930Y5950D1*
X10830Y2860D2*
X10830Y2950D1*
X10830Y3860D2*
X10830Y3950D1*
X10830Y4860D2*
X10830Y4950D1*
X10830Y5860D2*
X10830Y5950D1*
X10730Y2780D2*
X10730Y3020D1*
X10730Y3780D2*
X10730Y4020D1*
X10730Y4780D2*
X10730Y5020D1*
X10730Y5780D2*
X10730Y6020D1*
X10640Y2680D2*
X10640Y3120D1*
X10640Y3680D2*
X10640Y4120D1*
X10640Y4680D2*
X10640Y5120D1*
X10640Y5680D2*
X10640Y6120D1*
X10450Y3100D2*
X10450Y3700D1*
X10450Y4100D2*
X10450Y4700D1*
X10450Y5100D2*
X10450Y5700D1*
X10450Y6100D2*
X10450Y6700D1*
X10350Y3190D2*
X10350Y3610D1*
X10350Y4190D2*
X10350Y4610D1*
X10350Y5190D2*
X10350Y5610D1*
X10350Y6190D2*
X10350Y6610D1*
X10250Y3290D2*
X10250Y3510D1*
X10250Y4290D2*
X10250Y4510D1*
X10250Y5290D2*
X10250Y5510D1*
X10250Y6290D2*
X10250Y6510D1*
X10160Y3360D2*
X10160Y3450D1*
X10160Y4360D2*
X10160Y4450D1*
X10160Y5360D2*
X10160Y5450D1*
X10160Y6360D2*
X10160Y6450D1*
X10060Y3360D2*
X10060Y3450D1*
X10060Y4360D2*
X10060Y4450D1*
X10060Y5360D2*
X10060Y5450D1*
X10060Y6360D2*
X10060Y6450D1*
X9970Y3360D2*
X9970Y3450D1*
X9970Y4360D2*
X9970Y4450D1*
X9970Y5360D2*
X9970Y5450D1*
X9970Y6360D2*
X9970Y6450D1*
X9870Y3360D2*
X9870Y3450D1*
X9870Y4360D2*
X9870Y4450D1*
X9870Y5360D2*
X9870Y5450D1*
X9870Y6360D2*
X9870Y6430D1*
X9770Y3320D2*
X9770Y3480D1*
X9770Y5320D2*
X9770Y5480D1*
X9770Y6320D2*
X9770Y6340D1*
X9680Y3220D2*
X9680Y3580D1*
X9680Y5220D2*
X9680Y5580D1*
X9680Y6220D2*
X9680Y6240D1*
X9580Y3130D2*
X9580Y3660D1*
X11000Y3010D2*
X11000Y3800D1*
X11400Y3400D2*
X10610Y3400D1*
D15*
X10750Y7400D3*
X10000Y3900D2*
D10*
X9000Y3900D1*
X9000Y10450D1*
X11120Y7850D2*
X11120Y21270D1*
X11020Y7950D2*
X11020Y21180D1*
X11210Y7760D2*
X11210Y21370D1*
X10930Y7980D2*
X10930Y21080D1*
X10830Y7980D2*
X10830Y20980D1*
X10730Y7980D2*
X10730Y20890D1*
X10640Y7980D2*
X10640Y20790D1*
X10540Y7980D2*
X10540Y20700D1*
X10450Y7920D2*
X10450Y20600D1*
X10350Y7920D2*
X10350Y20500D1*
X10250Y7720D2*
X10250Y20410D1*
X10160Y20310D2*
X10160Y7360D1*
X10060Y7360D2*
X10060Y20290D1*
X9970Y7360D2*
X9970Y20290D1*
X9870Y7360D2*
X9870Y20290D1*
X9770Y7320D2*
X9770Y20290D1*
X9680Y7220D2*
X9680Y20290D1*
X9580Y7130D2*
X9580Y20290D1*
X9490Y6730D2*
X9490Y20290D1*
X9390Y6630D2*
X9390Y20290D1*
X9240Y10160D2*
X9240Y6480D1*
X9290Y6530D2*
X9290Y10210D1*
X10455Y6715D2*
X10553Y6616D1*
X11000Y3400D2*
D13*
X8500Y3400D1*
X12620Y2700D2*
D10*
X12620Y1860D1*
X12560Y27380D2*
X12560Y1860D1*
X12460Y27380D2*
X12460Y1860D1*
X12370Y27380D2*
X12370Y1860D1*
X12270Y27380D2*
X12270Y1860D1*
X12170Y27380D2*
X12170Y1860D1*
X12080Y27380D2*
X12080Y1860D1*
X11980Y27380D2*
X11980Y1860D1*
X11890Y27380D2*
X11890Y1860D1*
X11790Y27380D2*
X11790Y1860D1*
X11690Y27380D2*
X11690Y1860D1*
X11600Y27380D2*
X11600Y1860D1*
X11500Y27380D2*
X11500Y1860D1*
X10540Y6420D2*
X10540Y1860D1*
X8720Y10200D2*
X8720Y1860D1*
X8620Y20290D2*
X8620Y1860D1*
X8530Y20290D2*
X8530Y1860D1*
X8430Y20390D2*
X8430Y1860D1*
X8330Y20480D2*
X8330Y1860D1*
X8240Y20580D2*
X8240Y1860D1*
X8140Y20670D2*
X8140Y1860D1*
X8050Y20770D2*
X8050Y1860D1*
X7950Y20870D2*
X7950Y1860D1*
X7850Y5320D2*
X7850Y1860D1*
X7760Y5230D2*
X7760Y1860D1*
X7660Y5130D2*
X7660Y1860D1*
X7570Y5120D2*
X7570Y1860D1*
X7470Y5120D2*
X7470Y1860D1*
X7370Y3040D2*
X7370Y1860D1*
X7280Y2950D2*
X7280Y1860D1*
X9580Y2670D2*
X9580Y1860D1*
X9680Y2550D2*
X9680Y1860D1*
X9770Y2450D2*
X9770Y1860D1*
X9870Y2450D2*
X9870Y1860D1*
X9970Y2450D2*
X9970Y1860D1*
X10060Y2450D2*
X10060Y1860D1*
X10160Y2450D2*
X10160Y1860D1*
X10250Y2510D2*
X10250Y1860D1*
X10350Y2610D2*
X10350Y1860D1*
X10450Y2700D2*
X10450Y1860D1*
X10640Y2120D2*
X10640Y1860D1*
X10730Y2020D2*
X10730Y1860D1*
X10830Y1950D2*
X10830Y1860D1*
X10930Y1950D2*
X10930Y1860D1*
X11020Y1950D2*
X11020Y1860D1*
X11120Y1950D2*
X11120Y1860D1*
X11210Y1970D2*
X11210Y1860D1*
X11310Y2070D2*
X11310Y1860D1*
X11410Y2160D2*
X11410Y1860D1*
X8810Y3750D2*
X8810Y1860D1*
X8910Y3660D2*
X8910Y1860D1*
X9010Y3660D2*
X9010Y1860D1*
X9100Y3660D2*
X9100Y1860D1*
X9200Y3660D2*
X9200Y1860D1*
X9290Y3660D2*
X9290Y1860D1*
X9390Y3660D2*
X9390Y1860D1*
X9490Y3660D2*
X9490Y1860D1*
X6700Y2970D2*
X6700Y1860D1*
X6610Y19510D2*
X6610Y1860D1*
X6510Y27420D2*
X6510Y1860D1*
X6410Y27420D2*
X6410Y1860D1*
X6320Y27420D2*
X6320Y1860D1*
X6220Y27420D2*
X6220Y1860D1*
X6130Y27420D2*
X6130Y1860D1*
X6030Y27420D2*
X6030Y1860D1*
X5930Y27420D2*
X5930Y1860D1*
X5840Y27420D2*
X5840Y1860D1*
X5740Y27420D2*
X5740Y1860D1*
X5650Y27420D2*
X5650Y1860D1*
X5550Y27420D2*
X5550Y1860D1*
X5450Y27420D2*
X5450Y1860D1*
X5360Y27420D2*
X5360Y1860D1*
X5260Y22440D2*
X5260Y1860D1*
X5170Y22440D2*
X5170Y1860D1*
X5070Y22440D2*
X5070Y1860D1*
X4970Y22440D2*
X4970Y1860D1*
X4880Y22440D2*
X4880Y1860D1*
X4780Y22440D2*
X4780Y1860D1*
X4690Y22440D2*
X4690Y1860D1*
X4590Y19430D2*
X4590Y1860D1*
X4490Y4060D2*
X4490Y1860D1*
X4400Y3970D2*
X4400Y1860D1*
X4300Y3920D2*
X4300Y1860D1*
X4210Y3920D2*
X4210Y1860D1*
X4110Y3920D2*
X4110Y1860D1*
X4010Y3950D2*
X4010Y1860D1*
X3920Y4050D2*
X3920Y1860D1*
X3820Y19210D2*
X3820Y1860D1*
X3730Y19310D2*
X3730Y1860D1*
X3630Y19410D2*
X3630Y1860D1*
X3530Y22440D2*
X3530Y1860D1*
X3440Y22440D2*
X3440Y1860D1*
X3340Y22440D2*
X3340Y1860D1*
X3250Y6650D2*
X3250Y1860D1*
X3150Y6560D2*
X3150Y1860D1*
X3050Y6460D2*
X3050Y1860D1*
X2960Y6380D2*
X2960Y1860D1*
X2860Y6380D2*
X2860Y1860D1*
X2770Y6380D2*
X2770Y1860D1*
X2670Y6380D2*
X2670Y1860D1*
X2570Y6380D2*
X2570Y1860D1*
X2480Y6440D2*
X2480Y1860D1*
X2380Y5800D2*
X2380Y1860D1*
X2290Y5700D2*
X2290Y1860D1*
X2190Y5620D2*
X2190Y1860D1*
X2090Y5620D2*
X2090Y1860D1*
X2000Y5620D2*
X2000Y1860D1*
X1900Y4120D2*
X1900Y1860D1*
X1810Y4020D2*
X1810Y1860D1*
X1710Y3930D2*
X1710Y1860D1*
X1610Y3920D2*
X1610Y1860D1*
X1520Y3920D2*
X1520Y1860D1*
X1420Y3920D2*
X1420Y1860D1*
X1330Y3990D2*
X1330Y1860D1*
X1230Y4090D2*
X1230Y1860D1*
X1130Y27420D2*
X1130Y1860D1*
X7180Y2850D2*
X7180Y1860D1*
X7090Y2820D2*
X7090Y1860D1*
X6990Y2820D2*
X6990Y1860D1*
X6890Y2820D2*
X6890Y1860D1*
X6800Y2870D2*
X6800Y1860D1*
X460Y27420D2*
X460Y1860D1*
X370Y27420D2*
X370Y1860D1*
X270Y27420D2*
X270Y1860D1*
X170Y27420D2*
X170Y1860D1*
X80Y27420D2*
X80Y1860D1*
X-20Y27420D2*
X-20Y1860D1*
X-110Y27420D2*
X-110Y1860D1*
X-210Y27420D2*
X-210Y1860D1*
X-310Y27420D2*
X-310Y1860D1*
X-400Y27420D2*
X-400Y1860D1*
X-500Y27420D2*
X-500Y1860D1*
X-590Y27420D2*
X-590Y1860D1*
X-690Y27420D2*
X-690Y1860D1*
X-790Y9690D2*
X-790Y1860D1*
X-880Y9690D2*
X-880Y1860D1*
X-980Y9690D2*
X-980Y1860D1*
X-1070Y9690D2*
X-1070Y1860D1*
X-1170Y9690D2*
X-1170Y1860D1*
X-1270Y9690D2*
X-1270Y1860D1*
X-1360Y9690D2*
X-1360Y1860D1*
X-1460Y9690D2*
X-1460Y1860D1*
X-1550Y9690D2*
X-1550Y1860D1*
X-1650Y9690D2*
X-1650Y1860D1*
X-1750Y9690D2*
X-1750Y1860D1*
X-1840Y9690D2*
X-1840Y1860D1*
X-1940Y9690D2*
X-1940Y1860D1*
X-2030Y9690D2*
X-2030Y1860D1*
X-2130Y9690D2*
X-2130Y1860D1*
X-2230Y9690D2*
X-2230Y1860D1*
X-2320Y9690D2*
X-2320Y1860D1*
X-2420Y9690D2*
X-2420Y1860D1*
X-2510Y9690D2*
X-2510Y1860D1*
X-2610Y9690D2*
X-2610Y1860D1*
X-2710Y9690D2*
X-2710Y1860D1*
X-2800Y9690D2*
X-2800Y1860D1*
X-2900Y9690D2*
X-2900Y1860D1*
X-2990Y9690D2*
X-2990Y1860D1*
X-3090Y9690D2*
X-3090Y1860D1*
X-3190Y9690D2*
X-3190Y1860D1*
X-3280Y9690D2*
X-3280Y1860D1*
X-3380Y9690D2*
X-3380Y1860D1*
X-3470Y9690D2*
X-3470Y1860D1*
X-3570Y9690D2*
X-3570Y1860D1*
X-3670Y9690D2*
X-3670Y1860D1*
X-3760Y4110D2*
X-3760Y1860D1*
X-3860Y4010D2*
X-3860Y1860D1*
X-3950Y3920D2*
X-3950Y1860D1*
X-4050Y3920D2*
X-4050Y1860D1*
X-4150Y3920D2*
X-4150Y1860D1*
X-4240Y3920D2*
X-4240Y1860D1*
X-4340Y4010D2*
X-4340Y1860D1*
X-4430Y4100D2*
X-4430Y1860D1*
X-4530Y27420D2*
X-4530Y1860D1*
X-4630Y27420D2*
X-4630Y1860D1*
X-4720Y27420D2*
X-4720Y1860D1*
X-4820Y27420D2*
X-4820Y1860D1*
X-4910Y27420D2*
X-4910Y1860D1*
X-5010Y27420D2*
X-5010Y1860D1*
X-5110Y27420D2*
X-5110Y1860D1*
X-5200Y17670D2*
X-5200Y1860D1*
X-5300Y17570D2*
X-5300Y1860D1*
X-5390Y17520D2*
X-5390Y1860D1*
X-5490Y17520D2*
X-5490Y1860D1*
X-5590Y17520D2*
X-5590Y1860D1*
X-5680Y17550D2*
X-5680Y1860D1*
X-5780Y17650D2*
X-5780Y1860D1*
X-5870Y17740D2*
X-5870Y1860D1*
X-5970Y27420D2*
X-5970Y1860D1*
X-6070Y27420D2*
X-6070Y1860D1*
X-6160Y27420D2*
X-6160Y1860D1*
X-6260Y27420D2*
X-6260Y1860D1*
X1040Y27420D2*
X1040Y1860D1*
X940Y27420D2*
X940Y1860D1*
X850Y27420D2*
X850Y1860D1*
X750Y27420D2*
X750Y1860D1*
X650Y27420D2*
X650Y1860D1*
X560Y27420D2*
X560Y1860D1*
X-12620Y2700D2*
X-12620Y1860D1*
X-7310Y27420D2*
X-7310Y1860D1*
X-7410Y21410D2*
X-7410Y1860D1*
X-7510Y21310D2*
X-7510Y1860D1*
X-7600Y21210D2*
X-7600Y1860D1*
X-7700Y21120D2*
X-7700Y1860D1*
X-7790Y21020D2*
X-7790Y1860D1*
X-7890Y20930D2*
X-7890Y1860D1*
X-7990Y20830D2*
X-7990Y1860D1*
X-8080Y20730D2*
X-8080Y1860D1*
X-8180Y20640D2*
X-8180Y1860D1*
X-8270Y20540D2*
X-8270Y1860D1*
X-8370Y20450D2*
X-8370Y1860D1*
X-8470Y20350D2*
X-8470Y1860D1*
X-8560Y20290D2*
X-8560Y1860D1*
X-8660Y20290D2*
X-8660Y1860D1*
X-8750Y20290D2*
X-8750Y1860D1*
X-8850Y20290D2*
X-8850Y1860D1*
X-8950Y20290D2*
X-8950Y1860D1*
X-9040Y20290D2*
X-9040Y1860D1*
X-9140Y20290D2*
X-9140Y1860D1*
X-9230Y20290D2*
X-9230Y1860D1*
X-9330Y20290D2*
X-9330Y1860D1*
X-9430Y20290D2*
X-9430Y1860D1*
X-9520Y20290D2*
X-9520Y1860D1*
X-9620Y20290D2*
X-9620Y1860D1*
X-9710Y20290D2*
X-9710Y1860D1*
X-9810Y20290D2*
X-9810Y1860D1*
X-9910Y20290D2*
X-9910Y1860D1*
X-10000Y20290D2*
X-10000Y1860D1*
X-10100Y20290D2*
X-10100Y1860D1*
X-10190Y20350D2*
X-10190Y1860D1*
X-10290Y20440D2*
X-10290Y1860D1*
X-10390Y20540D2*
X-10390Y1860D1*
X-10480Y20640D2*
X-10480Y1860D1*
X-10580Y20730D2*
X-10580Y1860D1*
X-10670Y20830D2*
X-10670Y1860D1*
X-10770Y20920D2*
X-10770Y1860D1*
X-10870Y21020D2*
X-10870Y1860D1*
X-10960Y21120D2*
X-10960Y1860D1*
X-11060Y21210D2*
X-11060Y1860D1*
X-11150Y21310D2*
X-11150Y1860D1*
X-11250Y21400D2*
X-11250Y1860D1*
X-11350Y27380D2*
X-11350Y1860D1*
X-11440Y27380D2*
X-11440Y1860D1*
X-11540Y27380D2*
X-11540Y1860D1*
X-11630Y27380D2*
X-11630Y1860D1*
X-11730Y27380D2*
X-11730Y1860D1*
X-11830Y27380D2*
X-11830Y1860D1*
X-11920Y27380D2*
X-11920Y1860D1*
X-12020Y27380D2*
X-12020Y1860D1*
X-12110Y27380D2*
X-12110Y1860D1*
X-12210Y27380D2*
X-12210Y1860D1*
X-12310Y27380D2*
X-12310Y1860D1*
X-12400Y27380D2*
X-12400Y1860D1*
X-12500Y27380D2*
X-12500Y1860D1*
X-12590Y27380D2*
X-12590Y1860D1*
X-6740Y14230D2*
X-6740Y1860D1*
X-6830Y14220D2*
X-6830Y1860D1*
X-6930Y14220D2*
X-6930Y1860D1*
X-7030Y14220D2*
X-7030Y1860D1*
X-7120Y14290D2*
X-7120Y1860D1*
X-7220Y14390D2*
X-7220Y1860D1*
X-6350Y27420D2*
X-6350Y1860D1*
X-6450Y27420D2*
X-6450Y1860D1*
X-6550Y14420D2*
X-6550Y1860D1*
X-6640Y14330D2*
X-6640Y1860D1*
X-9300Y1320D2*
D18*
X-13200Y1320D1*
X-13200Y5220D1*
X13200Y5220D2*
X13200Y1320D1*
X9300Y1320D1*
X-12590Y1850D2*
D10*
X12620Y1850D1*
X-6900Y32775D2*
X-6775Y32900D1*
X-6400Y32900D1*
X-6275Y32775D1*
X-6275Y32650D1*
X-6400Y32525D1*
X-6775Y32400D1*
X-6900Y32275D1*
X-6900Y32150D1*
X-6275Y32150D1*
X-5775Y32900D2*
X-5275Y32900D1*
X-5150Y32775D1*
X-5150Y32275D1*
X-5275Y32150D1*
X-5775Y32150D1*
X-5900Y32275D1*
X-5900Y32775D1*
X-5775Y32900D1*
X-5275Y32900D2*
X-5775Y32150D1*
X-4775Y32900D2*
X-4275Y32900D1*
X-4150Y32775D1*
X-4150Y32275D1*
X-4275Y32150D1*
X-4775Y32150D1*
X-4900Y32275D1*
X-4900Y32775D1*
X-4775Y32900D1*
X-4275Y32900D2*
X-4775Y32150D1*
X-3525Y32900D2*
X-3275Y32900D1*
X-3275Y32150D1*
X-3525Y32900D2*
X-3900Y32525D1*
X-3900Y32400D1*
X-3150Y32400D1*
X-2900Y32525D2*
X-2275Y32525D1*
X-1775Y32900D2*
X-1275Y32900D1*
X-1150Y32775D1*
X-1150Y32275D1*
X-1275Y32150D1*
X-1775Y32150D1*
X-1900Y32275D1*
X-1900Y32775D1*
X-1775Y32900D1*
X-1275Y32900D2*
X-1775Y32150D1*
X-400Y32525D2*
X-775Y32525D1*
X-900Y32650D1*
X-900Y32775D1*
X-775Y32900D1*
X-400Y32900D1*
X-275Y32775D1*
X-275Y32400D1*
X-525Y32150D1*
X-775Y32150D1*
X-400Y32525D2*
X-275Y32650D1*
X100Y32525D2*
X725Y32525D1*
X1475Y32900D2*
X1475Y32150D1*
X1350Y32150D2*
X1600Y32150D1*
X1475Y32900D2*
X1350Y32775D1*
X2600Y32900D2*
X2350Y32900D1*
X2100Y32650D1*
X2100Y32275D1*
X2225Y32150D1*
X2600Y32150D1*
X2725Y32275D1*
X2725Y32400D1*
X2600Y32525D1*
X2225Y32525D1*
X2100Y32400D1*
X10850Y31400D2*
X10100Y30650D1*
X11850Y31275D2*
X11725Y31400D1*
X11350Y31400D1*
X11850Y30900D2*
X11600Y30900D1*
X11350Y31400D2*
X11225Y31275D1*
X11225Y30775D1*
X11350Y30650D1*
X11850Y30900D2*
X11850Y30775D1*
X11725Y30650D1*
X11350Y30650D1*
X12725Y31400D2*
X12850Y31275D1*
X12850Y31150D1*
X12725Y31025D1*
X12850Y30900D1*
X12850Y30775D1*
X12725Y30650D1*
X12225Y31400D2*
X12225Y30650D1*
X12725Y31025D2*
X12225Y31025D1*
X12225Y31400D2*
X12725Y31400D1*
X12725Y30650D2*
X12225Y30650D1*
X13225Y31150D2*
X13100Y31025D1*
X13100Y30900D1*
X13225Y30775D1*
X13600Y30525D2*
X13100Y30525D1*
X13725Y30650D2*
X13600Y30525D1*
X13225Y30775D2*
X13600Y30775D1*
X13725Y30900D1*
X13225Y31150D2*
X13600Y31150D1*
X13725Y31025D1*
X13725Y30650D1*
X11300Y36000D2*
X11925Y36000D1*
X11300Y36000D2*
X11300Y35700D1*
X11800Y35700D1*
X11925Y35550D1*
X11925Y35250D1*
X11800Y35100D1*
X11425Y35100D1*
X11300Y35250D1*
M2*
