*
G04 Mass Parameters ***
*
G04 Image ***
*
%INF:\PT8619\PCB 4008 117 08451\GERBER 4008 117 08452 230307\4008 117 08452.SSB*%
%ICAS*%
%MOIN*%
%IPPOS*%
%ASAXBY*%
G74*%FSLAN2X34Y34*%
*
G04 Aperture Definitions ***
*
%ADD10C,0.0620*%
%ADD11C,0.2360*%
%ADD12C,0.0700*%
%ADD13R,0.0700X0.0700*%
%ADD14C,0.0800*%
%ADD15C,0.1000*%
%ADD16C,0.0550*%
%ADD17R,0.0550X0.0550*%
%ADD18C,0.0580*%
%ADD19R,0.0580X0.0580*%
%ADD20C,0.0280*%
%ADD21C,0.0080*%
%ADD22C,0.0100*%
%ADD23C,0.0280*%
%ADD24C,0.0280*%
%ADD25C,0.0160*%
%ADD26R,0.0600X0.0780*%
%ADD27R,0.0787X0.1771*%
%ADD28R,0.0630X0.0980*%
%ADD29R,0.0980X0.0630*%
%ADD30C,0.0620*%
%ADD31C,0.2360*%
%ADD32R,0.0147X0.0453*%
%ADD33R,0.0453X0.0147*%
%ADD34C,0.0700*%
%ADD35R,0.0700X0.0700*%
%ADD36C,0.0800*%
%ADD37C,0.1000*%
%ADD38C,0.0550*%
%ADD39R,0.0550X0.0550*%
%ADD40R,0.0780X0.0600*%
%ADD41C,0.0580*%
%ADD42R,0.0580X0.0580*%
%ADD43C,0.0280*%
%ADD44C,0.0640*%
%ADD45C,0.2380*%
%ADD46C,0.0720*%
%ADD47R,0.0720X0.0720*%
%ADD48C,0.0820*%
%ADD49C,0.1050*%
%ADD50C,0.0670*%
%ADD51R,0.0620X0.0800*%
%ADD52R,0.0807X0.1791*%
%ADD53R,0.0650X0.1000*%
%ADD54R,0.1000X0.0650*%
%ADD55R,0.0167X0.0473*%
%ADD56R,0.0473X0.0167*%
%ADD57R,0.0800X0.0620*%
%ADD58C,0.0300*%
%ADD59C,0.0060*%
%ADD60C,0.0010*%
%ADD61C,0.0098*%
%ADD62C,0.0120*%
*
G04 Plot Data ***
*
G54D21*
G01X0118381Y0005231D02*
X0119181D01*
X0118381Y0004731D02*
Y0005231D01*
Y0004731D02*
X0119181D01*
Y0005231D01*
X0023929Y0005852D02*
X0023129D01*
X0023929Y0006352D02*
Y0005852D01*
Y0006352D02*
X0023129D01*
Y0005852D01*
X0020177Y0007926D02*
Y0007426D01*
X0020977D02*
X0020177D01*
X0020977Y0007926D02*
Y0007426D01*
Y0007926D02*
X0020177D01*
X0087494Y0010682D02*
Y0010182D01*
X0088294D02*
X0087494D01*
X0088294Y0010682D02*
Y0010182D01*
Y0010682D02*
X0087494D01*
X0028981Y0001231D02*
Y0000731D01*
X0029781D02*
X0028981D01*
X0029781Y0001231D02*
Y0000731D01*
Y0001231D02*
X0028981D01*
X0056970Y0006720D02*
Y0006220D01*
X0057770D02*
X0056970D01*
X0057770Y0006720D02*
Y0006220D01*
Y0006720D02*
X0056970D01*
X0081783Y0007426D02*
Y0007926D01*
X0080983D02*
X0081783D01*
X0080983Y0007426D02*
Y0007926D01*
Y0007426D02*
X0081783D01*
X0067744Y0010694D02*
Y0010194D01*
X0068544D02*
X0067744D01*
X0068544Y0010694D02*
Y0010194D01*
Y0010694D02*
X0067744D01*
X0065055Y0001825D02*
Y0001325D01*
X0065855D02*
X0065055D01*
X0065855Y0001825D02*
Y0001325D01*
Y0001825D02*
X0065055D01*
X0020177Y0006549D02*
Y0006049D01*
X0020977D02*
X0020177D01*
X0020977Y0006549D02*
Y0006049D01*
Y0006549D02*
X0020177D01*
X0055770Y0010620D02*
Y0010120D01*
X0056570D02*
X0055770D01*
X0056570Y0010620D02*
Y0010120D01*
Y0010620D02*
X0055770D01*
X0045172Y0005852D02*
Y0006352D01*
X0044372D02*
X0045172D01*
X0044372Y0005852D02*
Y0006352D01*
Y0005852D02*
X0045172D01*
X0070944Y0010194D02*
Y0010694D01*
X0070144D02*
X0070944D01*
X0070144Y0010194D02*
Y0010694D01*
Y0010194D02*
X0070944D01*
X0054320Y0009470D02*
X0054820D01*
Y0010270D02*
Y0009470D01*
X0054320Y0010270D02*
X0054820D01*
X0054320D02*
Y0009470D01*
X0020811Y0009848D02*
X0020311D01*
Y0009048D02*
Y0009848D01*
X0020811Y0009048D02*
X0020311D01*
X0020811D02*
Y0009848D01*
X0034333Y0011863D02*
Y0011363D01*
X0035133D02*
X0034333D01*
X0035133Y0011863D02*
Y0011363D01*
Y0011863D02*
X0034333D01*
X0048170Y0005720D02*
Y0005220D01*
X0048970D02*
X0048170D01*
X0048970Y0005720D02*
Y0005220D01*
Y0005720D02*
X0048170D01*
X0011954Y0002068D02*
X0012454D01*
Y0002868D02*
Y0002068D01*
X0011954Y0002868D02*
X0012454D01*
X0011954D02*
Y0002068D01*
X0077499Y0001281D02*
X0077999D01*
Y0002081D02*
Y0001281D01*
X0077499Y0002081D02*
X0077999D01*
X0077499D02*
Y0001281D01*
X0075288Y0003839D02*
Y0006595D01*
X0078044Y0003839D02*
Y0006595D01*
Y0003839D02*
X0075288D01*
X0078044Y0006595D02*
X0075288D01*
X0056770Y0005020D02*
Y0005520D01*
X0055970D02*
X0056770D01*
X0055970Y0005020D02*
Y0005520D01*
Y0005020D02*
X0056770D01*
X0081783Y0004671D02*
Y0005171D01*
X0080983D02*
X0081783D01*
X0080983Y0004671D02*
Y0005171D01*
Y0004671D02*
X0081783D01*
X0025838Y0008954D02*
X0025338D01*
Y0008154D02*
Y0008954D01*
X0025838Y0008154D02*
X0025338D01*
X0025838D02*
Y0008954D01*
X0045172Y0004671D02*
Y0005171D01*
X0044372D02*
X0045172D01*
X0044372Y0004671D02*
Y0005171D01*
Y0004671D02*
X0045172D01*
X0077212Y0010726D02*
X0076712D01*
Y0009926D02*
Y0010726D01*
X0077212Y0009926D02*
X0076712D01*
X0077212D02*
Y0010726D01*
X0111590Y0009240D02*
Y0008740D01*
X0112390D02*
X0111590D01*
X0112390Y0009240D02*
Y0008740D01*
Y0009240D02*
X0111590D01*
X0087494Y0011863D02*
Y0011363D01*
X0088294D02*
X0087494D01*
X0088294Y0011863D02*
Y0011363D01*
Y0011863D02*
X0087494D01*
X0037889Y0005852D02*
Y0006352D01*
X0037089D02*
X0037889D01*
X0037089Y0005852D02*
Y0006352D01*
Y0005852D02*
X0037889D01*
X0111640Y0011290D02*
X0111140D01*
Y0010490D02*
Y0011290D01*
X0111640Y0010490D02*
X0111140D01*
X0111640D02*
Y0011290D01*
X0076031Y0010726D02*
X0075531D01*
Y0009926D02*
Y0010726D01*
X0076031Y0009926D02*
X0075531D01*
X0076031D02*
Y0010726D01*
X0023463Y0011153D02*
X0022963Y0011653D01*
Y0012073D01*
X0028383D01*
Y0011153D01*
X0023463D01*
X0074850Y0010726D02*
X0074350D01*
Y0009926D02*
Y0010726D01*
X0074850Y0009926D02*
X0074350D01*
X0074850D02*
Y0010726D01*
X0063087Y0011863D02*
Y0011363D01*
X0063887D02*
X0063087D01*
X0063887Y0011863D02*
Y0011363D01*
Y0011863D02*
X0063087D01*
X0119181Y0006931D02*
Y0007431D01*
X0118381D02*
X0119181D01*
X0118381Y0006931D02*
Y0007431D01*
Y0006931D02*
X0119181D01*
X0078222Y0007972D02*
Y0008472D01*
X0077422D02*
X0078222D01*
X0077422Y0007972D02*
Y0008472D01*
Y0007972D02*
X0078222D01*
X0104418Y0002112D02*
Y0002612D01*
X0103618D02*
X0104418D01*
X0103618Y0002112D02*
Y0002612D01*
Y0002112D02*
X0104418D01*
X0087297Y0004974D02*
Y0004474D01*
X0088097D02*
X0087297D01*
X0088097Y0004974D02*
Y0004474D01*
Y0004974D02*
X0087297D01*
X0044975Y0009395D02*
Y0009895D01*
X0044175D02*
X0044975D01*
X0044175Y0009395D02*
Y0009895D01*
Y0009395D02*
X0044975D01*
X0111590Y0007640D02*
Y0007140D01*
X0112390D02*
X0111590D01*
X0112390Y0007640D02*
Y0007140D01*
Y0007640D02*
X0111590D01*
X0026472Y0006442D02*
Y0006942D01*
X0025672D02*
X0026472D01*
X0025672Y0006442D02*
Y0006942D01*
Y0006442D02*
X0026472D01*
X0058520Y0009370D02*
X0058020D01*
Y0008570D02*
Y0009370D01*
X0058520Y0008570D02*
X0058020D01*
X0058520D02*
Y0009370D01*
X0036514Y0002218D02*
Y0001718D01*
X0037314D02*
X0036514D01*
X0037314Y0002218D02*
Y0001718D01*
Y0002218D02*
X0036514D01*
X0057081Y0002531D02*
Y0002031D01*
X0057881D02*
X0057081D01*
X0057881Y0002531D02*
Y0002031D01*
Y0002531D02*
X0057081D01*
X0087297Y0003793D02*
Y0003293D01*
X0088097D02*
X0087297D01*
X0088097Y0003793D02*
Y0003293D01*
Y0003793D02*
X0087297D01*
X0111945Y0002068D02*
X0112445D01*
Y0002868D02*
Y0002068D01*
X0111945Y0002868D02*
X0112445D01*
X0111945D02*
Y0002068D01*
X0078680Y0001281D02*
X0079180D01*
Y0002081D02*
Y0001281D01*
X0078680Y0002081D02*
X0079180D01*
X0078680D02*
Y0001281D01*
X0028838Y0010288D02*
Y0009788D01*
X0029638D02*
X0028838D01*
X0029638Y0010288D02*
Y0009788D01*
Y0010288D02*
X0028838D01*
X0016434Y0000931D02*
Y0001431D01*
X0015634D02*
X0016434D01*
X0015634Y0000931D02*
Y0001431D01*
Y0000931D02*
X0016434D01*
X0044191Y0008714D02*
Y0008214D01*
X0044991D02*
X0044191D01*
X0044991Y0008714D02*
Y0008214D01*
Y0008714D02*
X0044191D01*
X0072044Y0004994D02*
Y0005494D01*
X0071244D02*
X0072044D01*
X0071244Y0004994D02*
Y0005494D01*
Y0004994D02*
X0072044D01*
G01X0075621Y0004091D02*
G03X0075711Y0004181I0000000J0000090D01*
G01X0075531D02*
G03X0075621Y0004091I0000090J0000000D01*
Y0004272D02*
G03X0075530Y0004181I0000000J0000091D01*
G01X0075712D02*
G03X0075621Y0004272I0000091J0000000D01*
G54D22*
G01X0004060Y0001192D02*
Y0001359D01*
Y0001276D02*
X0003560D01*
Y0001359D01*
X0004060Y0001684D02*
Y0001934D01*
X0003977Y0001976D01*
X0003810D01*
X0003727Y0001934D01*
Y0001684D01*
X0003810Y0001642D01*
X0003894D01*
Y0001976D01*
X0004060Y0002217D02*
X0003810D01*
X0003727Y0002259D01*
Y0002509D01*
X0004060D01*
X0003727Y0003001D02*
Y0002834D01*
X0003810Y0002792D01*
X0003977D01*
X0004060Y0002751D01*
Y0003042D01*
X0003977Y0003084D01*
X0003894Y0003042D01*
Y0002792D01*
X0003810Y0003659D02*
Y0003409D01*
X0003727Y0003326D01*
X0003644D01*
X0003560Y0003409D01*
Y0003659D01*
X0004060D01*
Y0004705D02*
Y0004955D01*
X0003977Y0004997D01*
X0003810D01*
X0003727Y0004955D01*
Y0004705D01*
X0003810Y0004663D01*
X0003894D01*
Y0004997D01*
X0003727Y0005280D02*
Y0005530D01*
X0004060Y0005238D02*
Y0005405D01*
X0003977Y0005447D01*
X0003560D01*
X0004060Y0006063D02*
X0003977Y0006105D01*
X0003810D01*
X0003727Y0006063D01*
Y0005813D01*
X0003810Y0005772D01*
X0003977D01*
X0004060Y0005813D01*
Y0006063D01*
Y0006513D02*
X0003810D01*
X0004060Y0006347D02*
X0003810D01*
X0003727Y0006388D01*
Y0006472D01*
X0003810Y0006513D01*
X0003727Y0006555D01*
Y0006638D01*
X0003810Y0006680D01*
X0004060D01*
Y0006963D02*
Y0007213D01*
X0003977Y0007255D01*
X0003810D01*
X0003727Y0007213D01*
Y0006963D01*
X0003810Y0006922D01*
X0003894D01*
Y0007255D01*
X0003810Y0007622D02*
X0004060Y0007497D01*
X0003810Y0007830D02*
Y0007580D01*
X0003727Y0007497D01*
X0003644D01*
X0003560Y0007580D01*
Y0007830D01*
X0004060D01*
Y0008834D02*
Y0009167D01*
X0003727Y0008834D01*
X0003644D01*
X0003560Y0008876D01*
Y0009126D01*
X0003644Y0009167D01*
X0004060Y0009409D02*
Y0009576D01*
Y0009492D02*
X0003560D01*
X0003644Y0009576D01*
X0004060Y0009901D02*
Y0010234D01*
X0003727Y0009901D01*
X0003644D01*
X0003560Y0009942D01*
Y0010192D01*
X0003644Y0010234D01*
X0003977Y0010809D02*
X0004060Y0010767D01*
Y0010517D01*
X0003977Y0010476D01*
X0003810D01*
X0003727Y0010559D01*
Y0010809D01*
X0003560D01*
Y0010476D01*
X0004060Y0011217D02*
X0003560D01*
Y0011051D02*
Y0011384D01*
X0003810Y0011959D02*
Y0011709D01*
X0003727Y0011626D01*
X0003644D01*
X0003560Y0011709D01*
Y0011959D01*
X0004060D01*
X0003267Y0002570D02*
Y0002904D01*
X0002934Y0002570D01*
X0002851D01*
X0002767Y0002612D01*
Y0002862D01*
X0002851Y0002904D01*
X0003184Y0003479D02*
X0003267Y0003437D01*
Y0003187D01*
X0003184Y0003145D01*
X0003017D01*
X0002934Y0003229D01*
Y0003479D01*
X0002767D01*
Y0003145D01*
X0003101Y0003720D02*
Y0004054D01*
X0002767Y0003887D01*
Y0003804D01*
X0003267D01*
X0003017Y0004337D02*
X0002934Y0004295D01*
X0002851D01*
X0002767Y0004337D01*
Y0004587D01*
X0002851Y0004629D01*
X0002934D01*
X0003017Y0004587D01*
Y0004337D01*
X0003101Y0004295D01*
X0003184D01*
X0003267Y0004337D01*
Y0004587D01*
X0003184Y0004629D01*
X0003101D01*
X0003017Y0004587D01*
X0003267Y0005079D02*
X0003184Y0005162D01*
X0003101Y0005204D01*
X0002934D01*
X0002851Y0005162D01*
X0002767Y0005079D01*
Y0004995D01*
X0002851Y0004912D01*
X0002934Y0004870D01*
X0003101D01*
X0003184Y0004912D01*
X0003267Y0004995D01*
Y0005079D01*
Y0006458D02*
X0002767Y0006208D01*
Y0006541D01*
X0003267Y0006783D02*
Y0006949D01*
Y0006866D02*
X0002767D01*
X0002851Y0006949D01*
X0003267Y0007274D02*
Y0007441D01*
Y0007358D02*
X0002767D01*
X0002851Y0007441D01*
X0003017Y0008570D02*
X0002934Y0008529D01*
X0002851D01*
X0002767Y0008570D01*
Y0008820D01*
X0002851Y0008862D01*
X0002934D01*
X0003017Y0008820D01*
Y0008570D01*
X0003101Y0008529D01*
X0003184D01*
X0003267Y0008570D01*
Y0008820D01*
X0003184Y0008862D01*
X0003101D01*
X0003017Y0008820D01*
X0003267Y0009312D02*
X0003184Y0009395D01*
X0003101Y0009437D01*
X0002934D01*
X0002851Y0009395D01*
X0002767Y0009312D01*
Y0009229D01*
X0002851Y0009145D01*
X0002934Y0009104D01*
X0003101D01*
X0003184Y0009145D01*
X0003267Y0009229D01*
Y0009312D01*
Y0009887D02*
X0003184Y0009970D01*
X0003101Y0010012D01*
X0002934D01*
X0002851Y0009970D01*
X0002767Y0009887D01*
Y0009804D01*
X0002851Y0009720D01*
X0002934Y0009679D01*
X0003101D01*
X0003184Y0009720D01*
X0003267Y0009804D01*
Y0009887D01*
X0003101Y0010254D02*
Y0010587D01*
X0002767Y0010420D01*
Y0010337D01*
X0003267D01*
X0093019Y0002283D02*
X0092769D01*
X0092727Y0002200D01*
Y0002033D01*
X0092769Y0001950D01*
X0093019D01*
X0093060Y0002033D01*
Y0002116D01*
X0092727D01*
X0092485Y0002283D02*
X0092319D01*
X0092402D02*
Y0001783D01*
X0092319D01*
X0091744Y0001950D02*
X0091994D01*
X0092035Y0002033D01*
Y0002200D01*
X0091994Y0002283D01*
X0091744D01*
Y0001783D01*
X0091252Y0001950D02*
X0091419D01*
X0091460Y0002033D01*
Y0002200D01*
X0091502Y0002283D01*
X0091210D01*
X0091169Y0002200D01*
X0091210Y0002116D01*
X0091460D01*
X0090927Y0002283D02*
Y0002033D01*
X0090885Y0001950D01*
X0090635D01*
Y0002283D01*
X0090310Y0002033D02*
X0090060D01*
X0090394Y0002283D02*
X0090060D01*
Y0001783D01*
X0090394D01*
X0089056Y0002283D02*
X0088806D01*
X0089056Y0001783D01*
X0088806D01*
X0088231Y0002283D02*
Y0001783D01*
X0088190Y0002283D02*
X0088440D01*
X0088523Y0002200D01*
Y0002116D01*
X0088481Y0002033D01*
X0088231D02*
X0088481D01*
X0088523Y0001950D01*
Y0001866D01*
X0088440Y0001783D01*
X0088190D01*
X0046860Y0008166D02*
Y0007900D01*
X0046726Y0008033D02*
X0046993D01*
X0006519Y0008501D02*
Y0008235D01*
X0006386Y0008368D02*
X0006653D01*
X0016455Y0004197D02*
Y0004330D01*
Y0004264D02*
X0016055D01*
X0016121Y0004330D01*
X0057280Y0011677D02*
X0057013D01*
X0057147Y0011810D02*
Y0011543D01*
X0089111Y0001274D02*
X0088756D01*
X0088934Y0000919D01*
X0089022D01*
Y0001452D01*
X0088200Y0001274D02*
Y0001363D01*
X0088245Y0001452D01*
X0088422D01*
X0088467Y0001363D01*
Y0000919D01*
X0088511D02*
X0088334D01*
X0098876Y0006071D02*
Y0005904D01*
Y0005988D02*
X0099376D01*
X0099293Y0005904D01*
Y0005579D02*
X0099376Y0005538D01*
Y0005288D01*
X0099293Y0005246D01*
X0099210D01*
X0099126Y0005288D01*
Y0005538D01*
X0099043Y0005579D01*
X0098960D01*
X0098876Y0005538D01*
Y0005288D01*
X0098960Y0005246D01*
X0098876Y0005004D02*
Y0004713D01*
X0099376D01*
X0097631Y0003895D02*
X0097297D01*
X0097464Y0004062D02*
Y0003728D01*
X0046726Y0009216D02*
Y0008976D01*
X0046636Y0009216D02*
Y0008976D01*
X0046546Y0009216D02*
Y0008976D01*
X0046456Y0009216D02*
Y0008976D01*
X0046366Y0009216D02*
Y0008976D01*
X0046276Y0009216D02*
Y0008976D01*
X0046186Y0009216D02*
Y0008976D01*
X0046096Y0009216D02*
Y0008976D01*
X0046006Y0009216D02*
Y0008976D01*
X0047676Y0009196D02*
X0045966D01*
X0047676Y0009106D02*
X0045966D01*
X0047626Y0009216D02*
Y0008976D01*
X0047536Y0009216D02*
Y0008976D01*
X0047446Y0009216D02*
Y0008976D01*
X0047356Y0009216D02*
Y0008976D01*
X0047266Y0009216D02*
Y0008976D01*
X0047176Y0009216D02*
Y0008976D01*
X0047086Y0009216D02*
Y0008976D01*
X0046996Y0009216D02*
Y0008976D01*
X0046906Y0009216D02*
Y0008976D01*
X0046816Y0009216D02*
Y0008976D01*
X0047676Y0009016D02*
X0045966D01*
X0047676Y0009216D02*
Y0008976D01*
Y0009216D02*
X0045966D01*
Y0008976D01*
X0047676D02*
X0045966D01*
X0058330Y0011890D02*
X0058090D01*
X0058330Y0011800D02*
X0058090D01*
X0058330Y0011710D02*
X0058090D01*
X0058330Y0011620D02*
X0058090D01*
X0058330Y0011530D02*
X0058090D01*
X0058330Y0011440D02*
X0058090D01*
X0058330Y0011350D02*
X0058090D01*
X0058330Y0011260D02*
X0058090D01*
X0058330Y0011170D02*
X0058090D01*
X0058330Y0011080D02*
X0058090D01*
X0058330Y0010990D02*
X0058090D01*
X0058310Y0012570D02*
Y0010860D01*
X0058220Y0012570D02*
Y0010860D01*
X0058130Y0012570D02*
Y0010860D01*
X0058330Y0012520D02*
X0058090D01*
X0058330Y0012430D02*
X0058090D01*
X0058330Y0012340D02*
X0058090D01*
X0058330Y0012250D02*
X0058090D01*
X0058330Y0012160D02*
X0058090D01*
X0058330Y0012070D02*
X0058090D01*
X0058330Y0011980D02*
X0058090D01*
X0058330Y0010900D02*
X0058090D01*
X0058330Y0010860D02*
X0058090D01*
X0058330Y0012570D02*
Y0010860D01*
Y0012570D02*
X0058090D01*
Y0010860D01*
X0090190Y0000790D02*
Y0001590D01*
X0090540D01*
Y0000790D01*
X0090190D01*
X0005158Y0011298D02*
Y0010708D01*
X0005068Y0011298D02*
Y0010708D01*
X0004978Y0011298D02*
Y0010708D01*
X0004888Y0011298D02*
Y0010708D01*
X0004798Y0011298D02*
Y0010708D01*
X0004708Y0011298D02*
Y0010708D01*
X0004618Y0011298D02*
Y0010708D01*
X0004528Y0011298D02*
Y0010708D01*
X0008503Y0011288D02*
X0004488D01*
X0008503Y0011198D02*
X0004488D01*
X0008503Y0011108D02*
X0004488D01*
X0008503Y0011018D02*
X0004488D01*
X0008503Y0010928D02*
X0004488D01*
X0008503Y0010838D02*
X0004488D01*
X0006418Y0011298D02*
Y0010708D01*
X0006328Y0011298D02*
Y0010708D01*
X0006238Y0011298D02*
Y0010708D01*
X0006148Y0011298D02*
Y0010708D01*
X0006058Y0011298D02*
Y0010708D01*
X0005968Y0011298D02*
Y0010708D01*
X0005878Y0011298D02*
Y0010708D01*
X0005788Y0011298D02*
Y0010708D01*
X0005698Y0011298D02*
Y0010708D01*
X0005608Y0011298D02*
Y0010708D01*
X0005518Y0011298D02*
Y0010708D01*
X0005428Y0011298D02*
Y0010708D01*
X0005338Y0011298D02*
Y0010708D01*
X0005248Y0011298D02*
Y0010708D01*
X0007678Y0011298D02*
Y0010708D01*
X0007588Y0011298D02*
Y0010708D01*
X0007498Y0011298D02*
Y0010708D01*
X0007408Y0011298D02*
Y0010708D01*
X0007318Y0011298D02*
Y0010708D01*
X0007228Y0011298D02*
Y0010708D01*
X0007138Y0011298D02*
Y0010708D01*
X0007048Y0011298D02*
Y0010708D01*
X0006958Y0011298D02*
Y0010708D01*
X0006868Y0011298D02*
Y0010708D01*
X0006778Y0011298D02*
Y0010708D01*
X0006688Y0011298D02*
Y0010708D01*
X0006598Y0011298D02*
Y0010708D01*
X0006508Y0011298D02*
Y0010708D01*
X0008503Y0011298D02*
Y0010708D01*
Y0011298D02*
X0004488D01*
Y0010708D01*
X0008503D02*
X0004488D01*
X0008488Y0011298D02*
Y0010708D01*
X0008398Y0011298D02*
Y0010708D01*
X0008308Y0011298D02*
Y0010708D01*
X0008218Y0011298D02*
Y0010708D01*
X0008128Y0011298D02*
Y0010708D01*
X0008038Y0011298D02*
Y0010708D01*
X0007948Y0011298D02*
Y0010708D01*
X0007858Y0011298D02*
Y0010708D01*
X0007768Y0011298D02*
Y0010708D01*
X0008503Y0010748D02*
X0004488D01*
G54D59*
G01X0117839Y0004789D02*
X0117878Y0004750D01*
Y0004672D01*
X0117839Y0004633D01*
X0117800D01*
X0117722Y0004711D01*
X0117644Y0004633D01*
Y0004789D01*
X0117800Y0004928D02*
Y0005084D01*
X0117644Y0005006D01*
Y0004967D01*
X0117878D01*
X0117761Y0005281D02*
X0117878Y0005223D01*
X0117761Y0005379D02*
Y0005262D01*
X0117722Y0005223D01*
X0117683D01*
X0117644Y0005262D01*
Y0005379D01*
X0117878D01*
X0024550Y0006216D02*
Y0006332D01*
X0024511Y0006352D01*
X0024472D01*
X0024433Y0006332D01*
Y0006216D01*
X0024472Y0006196D01*
X0024511D01*
X0024666Y0006274D01*
X0024472Y0006057D02*
X0024433Y0006037D01*
Y0005921D01*
X0024472Y0005901D01*
X0024627D01*
X0024666Y0005921D01*
Y0006037D01*
X0024627Y0006057D01*
X0021597Y0007888D02*
Y0008005D01*
X0021558Y0008024D01*
X0021519D01*
X0021481Y0008005D01*
Y0007888D01*
X0021519Y0007869D01*
X0021558D01*
X0021714Y0007947D01*
X0021519Y0007574D02*
X0021481Y0007613D01*
Y0007691D01*
X0021519Y0007729D01*
X0021558D01*
X0021636Y0007652D01*
X0021714Y0007729D01*
Y0007574D01*
X0021597Y0007376D02*
X0021481Y0007434D01*
X0021597Y0007279D02*
Y0007396D01*
X0021636Y0007434D01*
X0021675D01*
X0021714Y0007396D01*
Y0007279D01*
X0021481D01*
X0088914Y0010644D02*
Y0010761D01*
X0088875Y0010780D01*
X0088836D01*
X0088798Y0010761D01*
Y0010644D01*
X0088836Y0010625D01*
X0088875D01*
X0089031Y0010702D01*
X0088798Y0010485D02*
Y0010330D01*
X0088953Y0010485D01*
X0088992D01*
X0089031Y0010466D01*
Y0010349D01*
X0088992Y0010330D01*
X0088914Y0010132D02*
X0088798Y0010190D01*
X0088914Y0010035D02*
Y0010151D01*
X0088953Y0010190D01*
X0088992D01*
X0089031Y0010151D01*
Y0010035D01*
X0088798D01*
X0030285Y0001290D02*
Y0001135D01*
X0030440Y0001290D01*
X0030479D01*
X0030518Y0001271D01*
Y0001154D01*
X0030479Y0001135D01*
X0030285Y0000995D02*
Y0000917D01*
Y0000956D02*
X0030518D01*
X0030479Y0000917D01*
X0030401Y0000681D02*
X0030285Y0000739D01*
X0030401Y0000584D02*
Y0000700D01*
X0030440Y0000739D01*
X0030479D01*
X0030518Y0000700D01*
Y0000584D01*
X0030285D01*
X0106545Y0007035D02*
X0106622D01*
X0106584D02*
Y0007268D01*
X0106622Y0007229D01*
X0106937Y0007112D02*
Y0007073D01*
X0106917Y0007035D01*
X0106840D01*
X0106820Y0007073D01*
Y0007268D01*
X0106801D02*
X0106879D01*
X0058274Y0006779D02*
Y0006701D01*
Y0006740D02*
X0058507D01*
X0058468Y0006701D01*
X0058312Y0006367D02*
X0058274Y0006406D01*
Y0006484D01*
X0058312Y0006523D01*
X0058351D01*
X0058429Y0006445D01*
X0058507Y0006523D01*
Y0006367D01*
X0058390Y0006170D02*
X0058274Y0006228D01*
X0058390Y0006072D02*
Y0006189D01*
X0058429Y0006228D01*
X0058468D01*
X0058507Y0006189D01*
Y0006072D01*
X0058274D01*
X0080362Y0007446D02*
X0080324Y0007427D01*
X0080285D01*
X0080246Y0007446D01*
Y0007563D01*
X0080285Y0007582D01*
X0080324D01*
X0080362Y0007563D01*
Y0007446D01*
X0080401Y0007427D01*
X0080440D01*
X0080479Y0007446D01*
Y0007563D01*
X0080440Y0007582D01*
X0080401D01*
X0080362Y0007563D01*
Y0007780D02*
X0080479Y0007722D01*
X0080362Y0007877D02*
Y0007761D01*
X0080324Y0007722D01*
X0080285D01*
X0080246Y0007761D01*
Y0007877D01*
X0080479D01*
X0069086Y0010538D02*
X0069047Y0010557D01*
Y0010674D01*
X0069086Y0010693D01*
X0069164D01*
X0069203Y0010655D01*
Y0010538D01*
X0069281D01*
Y0010693D01*
X0069086Y0010398D02*
X0069047Y0010379D01*
Y0010262D01*
X0069086Y0010243D01*
X0069242D01*
X0069281Y0010262D01*
Y0010379D01*
X0069242Y0010398D01*
X0066397Y0001728D02*
X0066359Y0001748D01*
Y0001864D01*
X0066397Y0001884D01*
X0066475D01*
X0066514Y0001845D01*
Y0001728D01*
X0066592D01*
Y0001884D01*
X0066359Y0001589D02*
Y0001511D01*
Y0001550D02*
X0066592D01*
X0066553Y0001511D01*
X0066475Y0001274D02*
X0066359Y0001333D01*
X0066475Y0001177D02*
Y0001294D01*
X0066514Y0001333D01*
X0066553D01*
X0066592Y0001294D01*
Y0001177D01*
X0066359D01*
X0021597Y0006627D02*
X0021636Y0006647D01*
X0021675D01*
X0021714Y0006627D01*
Y0006511D01*
X0021675Y0006491D01*
X0021636D01*
X0021597Y0006511D01*
Y0006627D01*
X0021558Y0006647D01*
X0021519D01*
X0021481Y0006627D01*
Y0006511D01*
X0021519Y0006491D01*
X0021558D01*
X0021597Y0006511D01*
X0021519Y0006196D02*
X0021481Y0006235D01*
Y0006313D01*
X0021519Y0006352D01*
X0021558D01*
X0021636Y0006274D01*
X0021714Y0006352D01*
Y0006196D01*
X0021597Y0005998D02*
X0021481Y0006057D01*
X0021597Y0005901D02*
Y0006018D01*
X0021636Y0006057D01*
X0021675D01*
X0021714Y0006018D01*
Y0005901D01*
X0021481D01*
X0057074Y0010621D02*
X0057112Y0010582D01*
X0057151Y0010562D01*
X0057229D01*
X0057268Y0010582D01*
X0057307Y0010621D01*
Y0010660D01*
X0057268Y0010699D01*
X0057229Y0010718D01*
X0057151D01*
X0057112Y0010699D01*
X0057074Y0010660D01*
Y0010621D01*
X0057112Y0010267D02*
X0057074Y0010306D01*
Y0010384D01*
X0057112Y0010423D01*
X0057151D01*
X0057229Y0010345D01*
X0057307Y0010423D01*
Y0010267D01*
X0057190Y0010070D02*
X0057074Y0010128D01*
X0057190Y0009972D02*
Y0010089D01*
X0057229Y0010128D01*
X0057268D01*
X0057307Y0010089D01*
Y0009972D01*
X0057074D01*
X0047131Y0007104D02*
X0047054D01*
X0047092D02*
Y0006870D01*
X0047054Y0006909D01*
X0046875Y0007104D02*
X0046797D01*
X0046836D02*
Y0006870D01*
X0046797Y0006909D01*
X0046619Y0007065D02*
X0046600Y0007104D01*
X0046483D01*
X0046464Y0007065D01*
Y0006909D01*
X0046483Y0006870D01*
X0046600D01*
X0046619Y0006909D01*
X0043829Y0005909D02*
X0043868Y0005890D01*
Y0005773D01*
X0043829Y0005754D01*
X0043751D01*
X0043713Y0005793D01*
Y0005909D01*
X0043635D01*
Y0005754D01*
X0043868Y0006049D02*
Y0006204D01*
X0043713Y0006049D01*
X0043674D01*
X0043635Y0006068D01*
Y0006185D01*
X0043674Y0006204D01*
X0043751Y0006402D02*
X0043868Y0006344D01*
X0043751Y0006499D02*
Y0006383D01*
X0043713Y0006344D01*
X0043674D01*
X0043635Y0006383D01*
Y0006499D01*
X0043868D01*
X0069523Y0010154D02*
Y0010271D01*
X0069485Y0010290D01*
X0069446D01*
X0069407Y0010271D01*
Y0010154D01*
X0069446Y0010135D01*
X0069485D01*
X0069640Y0010212D01*
Y0010430D02*
Y0010507D01*
Y0010468D02*
X0069407D01*
X0069446Y0010507D01*
X0069523Y0010744D02*
X0069640Y0010686D01*
X0069523Y0010841D02*
Y0010725D01*
X0069485Y0010686D01*
X0069446D01*
X0069407Y0010725D01*
Y0010841D01*
X0069640D01*
X0054241Y0008725D02*
X0054358D01*
X0054378Y0008764D01*
Y0008803D01*
X0054358Y0008842D01*
X0054241D01*
X0054222Y0008803D01*
Y0008764D01*
X0054300Y0008608D01*
X0054517D02*
X0054673D01*
X0054517Y0008764D01*
Y0008803D01*
X0054536Y0008842D01*
X0054653D01*
X0054673Y0008803D01*
X0054870Y0008725D02*
X0054812Y0008608D01*
X0054968Y0008725D02*
X0054851D01*
X0054812Y0008764D01*
Y0008803D01*
X0054851Y0008842D01*
X0054968D01*
Y0008608D01*
X0007443Y0011776D02*
X0007482Y0011815D01*
X0007501Y0011854D01*
Y0011931D01*
X0007482Y0011970D01*
X0007443Y0012009D01*
X0007404D01*
X0007365Y0011970D01*
X0007346Y0011931D01*
Y0011854D01*
X0007365Y0011815D01*
X0007404Y0011776D01*
X0007443D01*
X0007641D02*
X0007718D01*
X0007679D02*
Y0012009D01*
X0007718Y0011970D01*
X0007897Y0011815D02*
X0007916Y0011776D01*
X0008033D01*
X0008052Y0011815D01*
Y0011970D01*
X0008033Y0012009D01*
X0007916D01*
X0007897Y0011970D01*
X0016474Y0008676D02*
Y0008832D01*
X0016319Y0008676D01*
X0016280D01*
X0016241Y0008696D01*
Y0008812D01*
X0016280Y0008832D01*
X0016396Y0009107D02*
X0016435D01*
X0016474Y0009088D01*
Y0009010D01*
X0016435Y0008991D01*
X0016241D01*
Y0008971D02*
Y0009049D01*
X0020754Y0008506D02*
X0020792Y0008544D01*
X0020870D01*
X0020909Y0008506D01*
Y0008467D01*
X0020831Y0008389D01*
X0020909Y0008311D01*
X0020754D01*
X0020459Y0008506D02*
X0020497Y0008544D01*
X0020575D01*
X0020614Y0008506D01*
Y0008467D01*
X0020536Y0008389D01*
X0020614Y0008311D01*
X0020459D01*
X0020261Y0008428D02*
X0020319Y0008544D01*
X0020164Y0008428D02*
X0020280D01*
X0020319Y0008389D01*
Y0008350D01*
X0020280Y0008311D01*
X0020164D01*
Y0008544D01*
X0035637Y0011806D02*
X0035870Y0011922D01*
Y0011767D01*
X0035637Y0011627D02*
Y0011549D01*
Y0011588D02*
X0035870D01*
X0035831Y0011549D01*
X0035753Y0011313D02*
X0035637Y0011371D01*
X0035753Y0011216D02*
Y0011332D01*
X0035792Y0011371D01*
X0035831D01*
X0035870Y0011332D01*
Y0011216D01*
X0035637D01*
X0049474Y0005721D02*
X0049512Y0005682D01*
X0049551Y0005662D01*
X0049629D01*
X0049668Y0005682D01*
X0049707Y0005721D01*
Y0005760D01*
X0049668Y0005799D01*
X0049629Y0005818D01*
X0049551D01*
X0049512Y0005799D01*
X0049474Y0005760D01*
Y0005721D01*
X0049551Y0005523D02*
Y0005367D01*
X0049707Y0005445D01*
Y0005484D01*
X0049474D01*
X0049590Y0005170D02*
X0049474Y0005228D01*
X0049590Y0005072D02*
Y0005189D01*
X0049629Y0005228D01*
X0049668D01*
X0049707Y0005189D01*
Y0005072D01*
X0049474D01*
X0011973Y0003489D02*
X0012090D01*
X0012109Y0003527D01*
Y0003566D01*
X0012090Y0003605D01*
X0011973D01*
X0011954Y0003566D01*
Y0003527D01*
X0012032Y0003372D01*
X0012307Y0003489D02*
X0012249Y0003372D01*
X0012404Y0003489D02*
X0012288D01*
X0012249Y0003527D01*
Y0003566D01*
X0012288Y0003605D01*
X0012404D01*
Y0003372D01*
X0077401Y0002662D02*
X0077557D01*
X0077479Y0002818D01*
X0077440D01*
Y0002585D01*
X0077852Y0002623D02*
X0077813Y0002585D01*
X0077735D01*
X0077696Y0002623D01*
Y0002662D01*
X0077774Y0002740D01*
X0077696Y0002818D01*
X0077852D01*
X0078049Y0002701D02*
X0077991Y0002585D01*
X0078147Y0002701D02*
X0078030D01*
X0077991Y0002740D01*
Y0002779D01*
X0078030Y0002818D01*
X0078147D01*
Y0002585D01*
X0076301Y0003017D02*
X0076223D01*
X0076262D02*
Y0002784D01*
X0076223Y0002822D01*
X0076045Y0002978D02*
X0076025Y0003017D01*
X0075908D01*
X0075889Y0002978D01*
Y0002822D01*
X0075908Y0002784D01*
X0076025D01*
X0076045Y0002822D01*
X0075750Y0003017D02*
X0075672D01*
X0075711D02*
Y0002784D01*
X0075750D02*
X0075672D01*
X0055350Y0004941D02*
X0055311Y0004922D01*
X0055272D01*
X0055233Y0004941D01*
Y0005058D01*
X0055272Y0005078D01*
X0055311D01*
X0055350Y0005058D01*
Y0004941D01*
X0055389Y0004922D01*
X0055428D01*
X0055466Y0004941D01*
Y0005058D01*
X0055428Y0005078D01*
X0055389D01*
X0055350Y0005058D01*
X0055466Y0005217D02*
Y0005373D01*
X0055311Y0005217D01*
X0055272D01*
X0055233Y0005236D01*
Y0005353D01*
X0055272Y0005373D01*
X0055350Y0005570D02*
X0055466Y0005512D01*
X0055350Y0005668D02*
Y0005551D01*
X0055311Y0005512D01*
X0055272D01*
X0055233Y0005551D01*
Y0005668D01*
X0055466D01*
X0080479Y0004788D02*
X0080246Y0004671D01*
Y0004827D01*
X0080362Y0005024D02*
X0080479Y0004966D01*
X0080362Y0005122D02*
Y0005005D01*
X0080324Y0004966D01*
X0080285D01*
X0080246Y0005005D01*
Y0005122D01*
X0080479D01*
X0025936Y0009816D02*
X0025781D01*
X0025936Y0009660D01*
Y0009621D01*
X0025917Y0009583D01*
X0025800D01*
X0025781Y0009621D01*
X0025641Y0009738D02*
X0025486D01*
X0025564Y0009583D01*
X0025602D01*
Y0009816D01*
X0025288Y0009699D02*
X0025346Y0009816D01*
X0025191Y0009699D02*
X0025307D01*
X0025346Y0009660D01*
Y0009621D01*
X0025307Y0009583D01*
X0025191D01*
Y0009816D01*
X0043868Y0004573D02*
Y0004728D01*
X0043713Y0004573D01*
X0043674D01*
X0043635Y0004592D01*
Y0004709D01*
X0043674Y0004728D01*
X0043868Y0004868D02*
Y0005023D01*
X0043713Y0004868D01*
X0043674D01*
X0043635Y0004887D01*
Y0005004D01*
X0043674Y0005023D01*
X0043751Y0005221D02*
X0043868Y0005163D01*
X0043751Y0005318D02*
Y0005202D01*
X0043713Y0005163D01*
X0043674D01*
X0043635Y0005202D01*
Y0005318D01*
X0043868D01*
X0077212Y0009422D02*
X0077056D01*
X0077212Y0009267D01*
Y0009228D01*
X0077192Y0009189D01*
X0077076D01*
X0077056Y0009228D01*
X0076858Y0009306D02*
X0076917Y0009422D01*
X0076761Y0009306D02*
X0076878D01*
X0076917Y0009267D01*
Y0009228D01*
X0076878Y0009189D01*
X0076761D01*
Y0009422D01*
X0112971Y0009043D02*
Y0008887D01*
X0113127Y0008965D01*
Y0009004D01*
X0112894D01*
X0112932Y0008748D02*
X0112894Y0008729D01*
Y0008612D01*
X0112932Y0008592D01*
X0113088D01*
X0113127Y0008612D01*
Y0008729D01*
X0113088Y0008748D01*
X0088798Y0011746D02*
X0089031Y0011863D01*
Y0011707D01*
X0088836Y0011568D02*
X0088798Y0011549D01*
Y0011432D01*
X0088836Y0011412D01*
X0088992D01*
X0089031Y0011432D01*
Y0011549D01*
X0088992Y0011568D01*
X0036469Y0005773D02*
Y0005890D01*
X0036430Y0005909D01*
X0036391D01*
X0036352Y0005890D01*
Y0005773D01*
X0036391Y0005754D01*
X0036430D01*
X0036585Y0005832D01*
X0036546Y0006204D02*
X0036585Y0006165D01*
Y0006088D01*
X0036546Y0006049D01*
X0036507D01*
X0036430Y0006127D01*
X0036352Y0006049D01*
Y0006204D01*
X0036469Y0006402D02*
X0036585Y0006344D01*
X0036469Y0006499D02*
Y0006383D01*
X0036430Y0006344D01*
X0036391D01*
X0036352Y0006383D01*
Y0006499D01*
X0036585D01*
X0111443Y0009909D02*
X0111287D01*
X0111365Y0009753D01*
X0111404D01*
Y0009986D01*
X0111090Y0009870D02*
X0111148Y0009986D01*
X0110992Y0009870D02*
X0111109D01*
X0111148Y0009831D01*
Y0009792D01*
X0111109Y0009753D01*
X0110992D01*
Y0009986D01*
X0075992Y0009422D02*
X0075914D01*
X0075953D02*
Y0009189D01*
X0075914Y0009228D01*
X0075677Y0009306D02*
X0075736Y0009422D01*
X0075580Y0009306D02*
X0075697D01*
X0075736Y0009267D01*
Y0009228D01*
X0075697Y0009189D01*
X0075580D01*
Y0009422D01*
X0074714Y0009306D02*
X0074830D01*
X0074850Y0009344D01*
Y0009383D01*
X0074830Y0009422D01*
X0074714D01*
X0074694Y0009383D01*
Y0009344D01*
X0074772Y0009189D01*
X0074496Y0009306D02*
X0074555Y0009422D01*
X0074399Y0009306D02*
X0074516D01*
X0074555Y0009267D01*
Y0009228D01*
X0074516Y0009189D01*
X0074399D01*
Y0009422D01*
X0064468Y0011922D02*
Y0011767D01*
X0064624Y0011844D01*
Y0011883D01*
X0064390D01*
Y0011627D02*
Y0011549D01*
Y0011588D02*
X0064624D01*
X0064585Y0011549D01*
X0064507Y0011313D02*
X0064390Y0011371D01*
X0064507Y0011216D02*
Y0011332D01*
X0064546Y0011371D01*
X0064585D01*
X0064624Y0011332D01*
Y0011216D01*
X0064390D01*
X0117878Y0006833D02*
Y0006989D01*
X0117722Y0006833D01*
X0117683D01*
X0117644Y0006853D01*
Y0006969D01*
X0117683Y0006989D01*
X0117839Y0007284D02*
X0117878Y0007245D01*
Y0007167D01*
X0117839Y0007128D01*
X0117800D01*
X0117722Y0007206D01*
X0117644Y0007128D01*
Y0007284D01*
X0117761Y0007481D02*
X0117878Y0007423D01*
X0117761Y0007579D02*
Y0007462D01*
X0117722Y0007423D01*
X0117683D01*
X0117644Y0007462D01*
Y0007579D01*
X0117878D01*
X0076880Y0008128D02*
X0076919Y0008089D01*
Y0008012D01*
X0076880Y0007973D01*
X0076841D01*
X0076763Y0008050D01*
X0076686Y0007973D01*
Y0008128D01*
X0076880Y0008268D02*
X0076919Y0008287D01*
Y0008404D01*
X0076880Y0008423D01*
X0076724D01*
X0076686Y0008404D01*
Y0008287D01*
X0076724Y0008268D01*
X0103115Y0002053D02*
Y0002131D01*
Y0002092D02*
X0102882D01*
X0102920Y0002131D01*
X0103115Y0002309D02*
Y0002465D01*
X0102959Y0002309D01*
X0102920D01*
X0102882Y0002328D01*
Y0002445D01*
X0102920Y0002465D01*
X0102998Y0002662D02*
X0103115Y0002604D01*
X0102998Y0002760D02*
Y0002643D01*
X0102959Y0002604D01*
X0102920D01*
X0102882Y0002643D01*
Y0002760D01*
X0103115D01*
X0088717Y0004954D02*
X0088756Y0004974D01*
X0088795D01*
X0088834Y0004954D01*
Y0004838D01*
X0088795Y0004818D01*
X0088756D01*
X0088717Y0004838D01*
Y0004954D01*
X0088678Y0004974D01*
X0088640D01*
X0088601Y0004954D01*
Y0004838D01*
X0088640Y0004818D01*
X0088678D01*
X0088717Y0004838D01*
X0088640Y0004679D02*
X0088601Y0004659D01*
Y0004543D01*
X0088640Y0004523D01*
X0088795D01*
X0088834Y0004543D01*
Y0004659D01*
X0088795Y0004679D01*
X0043632Y0009452D02*
X0043671Y0009413D01*
Y0009336D01*
X0043632Y0009297D01*
X0043593D01*
X0043516Y0009375D01*
X0043438Y0009297D01*
Y0009452D01*
X0043671Y0009592D02*
Y0009747D01*
X0043516Y0009592D01*
X0043477D01*
X0043438Y0009611D01*
Y0009728D01*
X0043477Y0009747D01*
X0043555Y0009945D02*
X0043671Y0009887D01*
X0043555Y0010042D02*
Y0009926D01*
X0043516Y0009887D01*
X0043477D01*
X0043438Y0009926D01*
Y0010042D01*
X0043671D01*
X0112932Y0007287D02*
X0112894Y0007326D01*
Y0007404D01*
X0112932Y0007443D01*
X0112971D01*
X0113049Y0007365D01*
X0113127Y0007443D01*
Y0007287D01*
X0113010Y0007090D02*
X0112894Y0007148D01*
X0113010Y0006992D02*
Y0007109D01*
X0113049Y0007148D01*
X0113088D01*
X0113127Y0007109D01*
Y0006992D01*
X0112894D01*
X0025169Y0006383D02*
Y0006461D01*
Y0006422D02*
X0024936D01*
X0024974Y0006461D01*
X0025091Y0006639D02*
Y0006795D01*
X0024936Y0006717D01*
Y0006678D01*
X0025169D01*
X0025052Y0006993D02*
X0025169Y0006934D01*
X0025052Y0007090D02*
Y0006973D01*
X0025013Y0006934D01*
X0024974D01*
X0024936Y0006973D01*
Y0007090D01*
X0025169D01*
X0058482Y0008066D02*
X0058443Y0008028D01*
X0058423Y0007989D01*
Y0007911D01*
X0058443Y0007872D01*
X0058482Y0007833D01*
X0058521D01*
X0058560Y0007872D01*
X0058579Y0007911D01*
Y0007989D01*
X0058560Y0008028D01*
X0058521Y0008066D01*
X0058482D01*
X0058284D02*
X0058206D01*
X0058245D02*
Y0007833D01*
X0058206Y0007872D01*
X0057970Y0007950D02*
X0058028Y0008066D01*
X0057872Y0007950D02*
X0057989D01*
X0058028Y0007911D01*
Y0007872D01*
X0057989Y0007833D01*
X0057872D01*
Y0008066D01*
X0037934Y0002141D02*
Y0002258D01*
X0037895Y0002277D01*
X0037857D01*
X0037818Y0002258D01*
Y0002141D01*
X0037857Y0002122D01*
X0037895D01*
X0038051Y0002200D01*
X0037818Y0001982D02*
Y0001905D01*
Y0001944D02*
X0038051D01*
X0038012Y0001905D01*
X0037934Y0001668D02*
X0037818Y0001726D01*
X0037934Y0001571D02*
Y0001687D01*
X0037973Y0001726D01*
X0038012D01*
X0038051Y0001687D01*
Y0001571D01*
X0037818D01*
X0058385Y0002551D02*
Y0002474D01*
Y0002512D02*
X0058618D01*
X0058579Y0002474D01*
X0058385Y0002295D02*
Y0002217D01*
Y0002256D02*
X0058618D01*
X0058579Y0002217D01*
X0058501Y0001981D02*
X0058385Y0002039D01*
X0058501Y0001884D02*
Y0002000D01*
X0058540Y0002039D01*
X0058579D01*
X0058618Y0002000D01*
Y0001884D01*
X0058385D01*
X0088601Y0003774D02*
X0088834Y0003891D01*
Y0003735D01*
X0088601Y0003596D02*
Y0003440D01*
X0088756Y0003596D01*
X0088795D01*
X0088834Y0003577D01*
Y0003460D01*
X0088795Y0003440D01*
X0088717Y0003243D02*
X0088601Y0003301D01*
X0088717Y0003145D02*
Y0003262D01*
X0088756Y0003301D01*
X0088795D01*
X0088834Y0003262D01*
Y0003145D01*
X0088601D01*
X0058973Y0011366D02*
Y0011522D01*
X0058817Y0011366D01*
X0058778D01*
X0058739Y0011386D01*
Y0011502D01*
X0058778Y0011522D01*
X0058973Y0011661D02*
Y0011739D01*
Y0011700D02*
X0058739D01*
X0058778Y0011739D01*
X0058934Y0011917D02*
X0058973Y0011937D01*
Y0012053D01*
X0058934Y0012073D01*
X0058778D01*
X0058739Y0012053D01*
Y0011937D01*
X0058778Y0011917D01*
X0111905Y0003489D02*
X0111886Y0003527D01*
Y0003566D01*
X0111905Y0003605D01*
X0112022D01*
X0112041Y0003566D01*
Y0003527D01*
X0112022Y0003489D01*
X0111905D01*
X0111886Y0003450D01*
Y0003411D01*
X0111905Y0003372D01*
X0112022D01*
X0112041Y0003411D01*
Y0003450D01*
X0112022Y0003489D01*
X0112181Y0003372D02*
X0112259D01*
X0112220D02*
Y0003605D01*
X0112259Y0003566D01*
X0112495Y0003489D02*
X0112437Y0003372D01*
X0112593Y0003489D02*
X0112476D01*
X0112437Y0003527D01*
Y0003566D01*
X0112476Y0003605D01*
X0112593D01*
Y0003372D01*
X0078738Y0002623D02*
X0078718Y0002585D01*
X0078602D01*
X0078582Y0002623D01*
Y0002701D01*
X0078621Y0002740D01*
X0078738D01*
Y0002818D01*
X0078582D01*
X0079033Y0002623D02*
X0078994Y0002585D01*
X0078916D01*
X0078877Y0002623D01*
Y0002662D01*
X0078955Y0002740D01*
X0078877Y0002818D01*
X0079033D01*
X0079230Y0002701D02*
X0079172Y0002585D01*
X0079328Y0002701D02*
X0079211D01*
X0079172Y0002740D01*
Y0002779D01*
X0079211Y0002818D01*
X0079328D01*
Y0002585D01*
X0030180Y0010192D02*
X0030141Y0010231D01*
Y0010309D01*
X0030180Y0010348D01*
X0030219D01*
X0030297Y0010270D01*
X0030375Y0010348D01*
Y0010192D01*
X0030141Y0010053D02*
Y0009975D01*
Y0010014D02*
X0030375D01*
X0030336Y0009975D01*
X0030258Y0009738D02*
X0030141Y0009796D01*
X0030258Y0009641D02*
Y0009758D01*
X0030297Y0009796D01*
X0030336D01*
X0030375Y0009758D01*
Y0009641D01*
X0030141D01*
X0015130Y0000950D02*
X0014897Y0000833D01*
Y0000989D01*
X0015092Y0001284D02*
X0015130Y0001245D01*
Y0001167D01*
X0015092Y0001128D01*
X0015053D01*
X0014975Y0001206D01*
X0014897Y0001128D01*
Y0001284D01*
X0015014Y0001481D02*
X0015130Y0001423D01*
X0015014Y0001579D02*
Y0001462D01*
X0014975Y0001423D01*
X0014936D01*
X0014897Y0001462D01*
Y0001579D01*
X0015130D01*
X0045572Y0008812D02*
Y0008656D01*
X0045728Y0008734D01*
Y0008773D01*
X0045494D01*
Y0008517D02*
Y0008361D01*
X0045650Y0008517D01*
X0045689D01*
X0045728Y0008497D01*
Y0008381D01*
X0045689Y0008361D01*
X0045611Y0008163D02*
X0045494Y0008222D01*
X0045611Y0008066D02*
Y0008183D01*
X0045650Y0008222D01*
X0045689D01*
X0045728Y0008183D01*
Y0008066D01*
X0045494D01*
X0070740Y0004993D02*
X0070701Y0005032D01*
X0070662Y0005051D01*
X0070585D01*
X0070546Y0005032D01*
X0070507Y0004993D01*
Y0004954D01*
X0070546Y0004915D01*
X0070585Y0004896D01*
X0070662D01*
X0070701Y0004915D01*
X0070740Y0004954D01*
Y0004993D01*
Y0005191D02*
Y0005346D01*
X0070585Y0005191D01*
X0070546D01*
X0070507Y0005210D01*
Y0005327D01*
X0070546Y0005346D01*
X0070623Y0005544D02*
X0070740Y0005486D01*
X0070623Y0005641D02*
Y0005525D01*
X0070585Y0005486D01*
X0070546D01*
X0070507Y0005525D01*
Y0005641D01*
X0070740D01*
X0109290Y0011990D02*
X0107290D01*
X0109290Y0010990D02*
X0108290D01*
X0109290Y0006990D02*
X0107290D01*
X0108290Y0011990D02*
Y0010990D01*
X0109290Y0011990D02*
Y0006990D01*
X0107290Y0011990D02*
Y0006990D01*
G54D61*
G01X0053890Y0010781D02*
Y0010431D01*
X0054240Y0010781D01*
X0054327D01*
X0054415Y0010737D01*
Y0010475D01*
X0054327Y0010431D01*
X0053890Y0010016D02*
X0054152D01*
X0054415Y0010191D02*
X0054152Y0010060D01*
Y0009972D01*
X0054415Y0009841D01*
X0054065Y0009601D02*
Y0009251D01*
X0053890Y0009601D02*
X0054152D01*
X0054415Y0009469D01*
Y0009382D01*
X0054152Y0009251D01*
X0053890D01*
Y0009010D02*
Y0008704D01*
X0054415D01*
X0054152Y0008376D02*
Y0008114D01*
X0053890Y0008464D02*
Y0008114D01*
X0054415D01*
Y0008464D01*
X0054152Y0007742D02*
X0053890Y0007873D01*
X0054152Y0007523D02*
Y0007786D01*
X0054240Y0007873D01*
X0054327D01*
X0054415Y0007786D01*
Y0007523D01*
X0053890D01*
X0041357Y0010694D02*
Y0010519D01*
Y0010606D02*
X0041882D01*
X0041794Y0010519D01*
X0041357Y0010016D02*
X0041619D01*
X0041882Y0010191D02*
X0041619Y0010060D01*
Y0009972D01*
X0041882Y0009841D01*
X0041532Y0009601D02*
Y0009251D01*
X0041357Y0009601D02*
X0041619D01*
X0041882Y0009469D01*
Y0009382D01*
X0041619Y0009251D01*
X0041357D01*
Y0009010D02*
Y0008704D01*
X0041882D01*
X0041619Y0008376D02*
Y0008114D01*
X0041357Y0008464D02*
Y0008114D01*
X0041882D01*
Y0008464D01*
X0041619Y0007742D02*
X0041357Y0007873D01*
X0041619Y0007523D02*
Y0007786D01*
X0041707Y0007873D01*
X0041794D01*
X0041882Y0007786D01*
Y0007523D01*
X0041357D01*
X0004488Y0011298D02*
X0005551D01*
X0004488D02*
Y0008070D01*
X0005314Y0007243D01*
X0005235Y0011298D02*
X0008503D01*
Y0008070D01*
X0007676Y0007243D02*
X0008503Y0008070D01*
X0007361Y0007243D02*
X0007676D01*
X0005590Y0011298D02*
X0007007D01*
X0004488Y0010038D02*
Y0008109D01*
X0005314Y0007243D02*
X0007401D01*
X0004488Y0010708D02*
X0008503D01*
G54D62*
G01X0047336Y0007536D02*
X0047686Y0007906D01*
X0046346Y0007536D02*
X0047336D01*
X0045986Y0009226D02*
Y0007906D01*
X0046346Y0007536D01*
X0047686Y0009226D02*
Y0007906D01*
X0045986Y0009226D02*
X0047686D01*
X0018821Y0009580D02*
Y0003080D01*
X0016821D01*
Y0009580D01*
X0018821D01*
X0056650Y0011200D02*
X0057020Y0010850D01*
X0056650Y0012190D02*
Y0011200D01*
X0058340Y0012550D02*
X0057020D01*
X0056650Y0012190D01*
X0058340Y0010850D02*
X0057020D01*
X0058340Y0012550D02*
Y0010850D01*
M02*
