*
G04 Mass Parameters ***
*
G04 Image ***
*
%INF:\PT8619\PCB 4008 117 08451\GERBER 4008 117 08452 230307\4008 117 08452.DRD*%
%ICAS*%
%MOIN*%
%IPPOS*%
%ASAXBY*%
G74*%FSLAN2X34Y34*%
*
G04 Aperture Definitions ***
*
%ADD10C,0.0620*%
%ADD11C,0.2360*%
%ADD12C,0.0700*%
%ADD13R,0.0700X0.0700*%
%ADD14C,0.0800*%
%ADD15C,0.1000*%
%ADD16C,0.0550*%
%ADD17R,0.0550X0.0550*%
%ADD18C,0.0580*%
%ADD19R,0.0580X0.0580*%
%ADD20C,0.0280*%
%ADD21C,0.0080*%
%ADD22C,0.0100*%
%ADD23C,0.0280*%
%ADD24C,0.0280*%
%ADD25C,0.0160*%
%ADD26R,0.0600X0.0780*%
%ADD27R,0.0787X0.1771*%
%ADD28R,0.0630X0.0980*%
%ADD29R,0.0980X0.0630*%
%ADD30C,0.0620*%
%ADD31C,0.2360*%
%ADD32R,0.0147X0.0453*%
%ADD33R,0.0453X0.0147*%
%ADD34C,0.0700*%
%ADD35R,0.0700X0.0700*%
%ADD36C,0.0800*%
%ADD37C,0.1000*%
%ADD38C,0.0550*%
%ADD39R,0.0550X0.0550*%
%ADD40R,0.0780X0.0600*%
%ADD41C,0.0580*%
%ADD42R,0.0580X0.0580*%
%ADD43C,0.0280*%
%ADD44C,0.0640*%
%ADD45C,0.2380*%
%ADD46C,0.0720*%
%ADD47R,0.0720X0.0720*%
%ADD48C,0.0820*%
%ADD49C,0.1050*%
%ADD50C,0.0670*%
%ADD51R,0.0620X0.0800*%
%ADD52R,0.0807X0.1791*%
%ADD53R,0.0650X0.1000*%
%ADD54R,0.1000X0.0650*%
%ADD55R,0.0167X0.0473*%
%ADD56R,0.0473X0.0167*%
%ADD57R,0.0800X0.0620*%
%ADD58C,0.0300*%
%ADD59C,0.0060*%
%ADD60C,0.0010*%
%ADD61C,0.0098*%
%ADD62C,0.0120*%
%ADD63C,0.0079*%
*
G04 Plot Data ***
*
G54D22*
G01X0024292Y-0018908D02*
X0024125Y-0018741D01*
X0024042Y-0018575D01*
Y-0018241D01*
X0024125Y-0018075D01*
X0024292Y-0017908D01*
X0024458D01*
X0024625Y-0018075D01*
X0024708Y-0018241D01*
Y-0018575D01*
X0024625Y-0018741D01*
X0024458Y-0018908D01*
X0024292D01*
X0023758Y-0018575D02*
X0023092D01*
X0023425Y-0017908D01*
X0023592D01*
Y-0018908D01*
X0022808D02*
X0022142D01*
X0022808Y-0018241D01*
Y-0018075D01*
X0022725Y-0017908D01*
X0022225D01*
X0022142Y-0018075D01*
X0012312Y-0018908D02*
X0011729D01*
Y-0017908D01*
X0011446Y-0018575D02*
X0010779D01*
X0011446Y-0018908D02*
Y-0018408D01*
X0011196Y-0017908D01*
X0011029D01*
X0010779Y-0018408D01*
Y-0018908D01*
X0010162D02*
Y-0017908D01*
X0010496D02*
X0009829D01*
X0008962Y-0018908D02*
X0008879Y-0018741D01*
Y-0018075D01*
X0008962Y-0017908D01*
X0009462D01*
X0009546Y-0018075D01*
Y-0018741D01*
X0009462Y-0018908D01*
X0008962D01*
X0008262D02*
Y-0017908D01*
X0008596D02*
X0007929D01*
X0024653Y-0016714D02*
X0024708Y-0016602D01*
Y-0016491D01*
X0024653Y-0016380D01*
X0024319D01*
X0024264Y-0016491D01*
Y-0016602D01*
X0024319Y-0016714D01*
X0024653D01*
X0024708Y-0016825D01*
Y-0016936D01*
X0024653Y-0017047D01*
X0024319D01*
X0024264Y-0016936D01*
Y-0016825D01*
X0024319Y-0016714D01*
X0010814Y-0017047D02*
X0010703Y-0016936D01*
X0010647Y-0016825D01*
Y-0016602D01*
X0010703Y-0016491D01*
X0010814Y-0016380D01*
X0010925D01*
X0011036Y-0016491D01*
X0011092Y-0016602D01*
Y-0016825D01*
X0011036Y-0016936D01*
X0010925Y-0017047D01*
X0010814D01*
X0009947Y-0016936D02*
X0010003Y-0017047D01*
X0010336D01*
X0010392Y-0016936D01*
Y-0016714D01*
X0010281Y-0016602D01*
X0009947D01*
Y-0016380D01*
X0010392D01*
X0009692Y-0017047D02*
X0009469D01*
X0009581D02*
Y-0016380D01*
X0009469Y-0016491D01*
X0008992Y-0017047D02*
X0009103D01*
Y-0016936D01*
X0008992D01*
Y-0017047D01*
X0008347D02*
X0008236Y-0016936D01*
X0008181Y-0016825D01*
Y-0016602D01*
X0008236Y-0016491D01*
X0008347Y-0016380D01*
X0008458D01*
X0008569Y-0016491D01*
X0008625Y-0016602D01*
Y-0016825D01*
X0008569Y-0016936D01*
X0008458Y-0017047D01*
X0008347D01*
X0024264Y-0015436D02*
X0024319Y-0015547D01*
X0024653D01*
X0024708Y-0015436D01*
Y-0015214D01*
X0024597Y-0015102D01*
X0024264D01*
Y-0014880D01*
X0024708D01*
X0010814Y-0015547D02*
X0010703Y-0015436D01*
X0010647Y-0015325D01*
Y-0015102D01*
X0010703Y-0014991D01*
X0010814Y-0014880D01*
X0010925D01*
X0011036Y-0014991D01*
X0011092Y-0015102D01*
Y-0015325D01*
X0011036Y-0015436D01*
X0010925Y-0015547D01*
X0010814D01*
X0010336Y-0015214D02*
X0010392Y-0015102D01*
Y-0014991D01*
X0010336Y-0014880D01*
X0010003D01*
X0009947Y-0014991D01*
Y-0015102D01*
X0010003Y-0015214D01*
X0010336D01*
X0010392Y-0015325D01*
Y-0015436D01*
X0010336Y-0015547D01*
X0010003D01*
X0009947Y-0015436D01*
Y-0015325D01*
X0010003Y-0015214D01*
X0009414Y-0015547D02*
X0009303Y-0015436D01*
X0009247Y-0015325D01*
Y-0015102D01*
X0009303Y-0014991D01*
X0009414Y-0014880D01*
X0009525D01*
X0009636Y-0014991D01*
X0009692Y-0015102D01*
Y-0015325D01*
X0009636Y-0015436D01*
X0009525Y-0015547D01*
X0009414D01*
X0008881D02*
X0008992D01*
Y-0015436D01*
X0008881D01*
Y-0015547D01*
X0008236D02*
X0008125Y-0015436D01*
X0008069Y-0015325D01*
Y-0015102D01*
X0008125Y-0014991D01*
X0008236Y-0014880D01*
X0008347D01*
X0008458Y-0014991D01*
X0008514Y-0015102D01*
Y-0015325D01*
X0008458Y-0015436D01*
X0008347Y-0015547D01*
X0008236D01*
X0024708Y-0013825D02*
X0024264D01*
X0024486Y-0013380D01*
X0024597D01*
Y-0014047D01*
X0023564Y-0013936D02*
X0023675Y-0014047D01*
X0023897D01*
X0024008Y-0013936D01*
Y-0013825D01*
X0023786Y-0013602D01*
X0024008Y-0013380D01*
X0023564D01*
X0011036Y-0013714D02*
X0010703D01*
X0010647Y-0013602D01*
Y-0013491D01*
X0010703Y-0013380D01*
X0011036D01*
X0011092Y-0013491D01*
Y-0013602D01*
X0010869Y-0014047D01*
X0009947Y-0013936D02*
X0010058Y-0014047D01*
X0010281D01*
X0010392Y-0013936D01*
Y-0013825D01*
X0010169Y-0013602D01*
X0010392Y-0013380D01*
X0009947D01*
X0009414Y-0014047D02*
X0009303Y-0013936D01*
X0009247Y-0013825D01*
Y-0013602D01*
X0009303Y-0013491D01*
X0009414Y-0013380D01*
X0009525D01*
X0009636Y-0013491D01*
X0009692Y-0013602D01*
Y-0013825D01*
X0009636Y-0013936D01*
X0009525Y-0014047D01*
X0009414D01*
X0008881D02*
X0008992D01*
Y-0013936D01*
X0008881D01*
Y-0014047D01*
X0008236D02*
X0008125Y-0013936D01*
X0008069Y-0013825D01*
Y-0013602D01*
X0008125Y-0013491D01*
X0008236Y-0013380D01*
X0008347D01*
X0008458Y-0013491D01*
X0008514Y-0013602D01*
Y-0013825D01*
X0008458Y-0013936D01*
X0008347Y-0014047D01*
X0008236D01*
X0024319Y-0012214D02*
X0024653D01*
X0024708Y-0012325D01*
Y-0012436D01*
X0024653Y-0012547D01*
X0024319D01*
X0024264Y-0012436D01*
Y-0012325D01*
X0024486Y-0011880D01*
X0024008Y-0012547D02*
X0023786D01*
X0023897D02*
Y-0011880D01*
X0023786Y-0011991D01*
X0011036Y-0012214D02*
X0011092Y-0012102D01*
Y-0011991D01*
X0011036Y-0011880D01*
X0010703D01*
X0010647Y-0011991D01*
Y-0012102D01*
X0010703Y-0012214D01*
X0011036D01*
X0011092Y-0012325D01*
Y-0012436D01*
X0011036Y-0012547D01*
X0010703D01*
X0010647Y-0012436D01*
Y-0012325D01*
X0010703Y-0012214D01*
X0009947Y-0012436D02*
X0010058Y-0012547D01*
X0010281D01*
X0010392Y-0012436D01*
Y-0012325D01*
X0010169Y-0012102D01*
X0010392Y-0011880D01*
X0009947D01*
X0009414Y-0012547D02*
X0009303Y-0012436D01*
X0009247Y-0012325D01*
Y-0012102D01*
X0009303Y-0011991D01*
X0009414Y-0011880D01*
X0009525D01*
X0009636Y-0011991D01*
X0009692Y-0012102D01*
Y-0012325D01*
X0009636Y-0012436D01*
X0009525Y-0012547D01*
X0009414D01*
X0008881D02*
X0008992D01*
Y-0012436D01*
X0008881D01*
Y-0012547D01*
X0008236D02*
X0008125Y-0012436D01*
X0008069Y-0012325D01*
Y-0012102D01*
X0008125Y-0011991D01*
X0008236Y-0011880D01*
X0008347D01*
X0008458Y-0011991D01*
X0008514Y-0012102D01*
Y-0012325D01*
X0008458Y-0012436D01*
X0008347Y-0012547D01*
X0008236D01*
X0024708Y-0010825D02*
X0024264D01*
X0024486Y-0010380D01*
X0024597D01*
Y-0011047D01*
X0024008D02*
X0023786D01*
X0023897D02*
Y-0010380D01*
X0023786Y-0010491D01*
X0011092Y-0010825D02*
X0010647D01*
X0010869Y-0010380D01*
X0010981D01*
Y-0011047D01*
X0009947Y-0010936D02*
X0010058Y-0011047D01*
X0010281D01*
X0010392Y-0010936D01*
Y-0010825D01*
X0010169Y-0010602D01*
X0010392Y-0010380D01*
X0009947D01*
X0009414Y-0011047D02*
X0009303Y-0010936D01*
X0009247Y-0010825D01*
Y-0010602D01*
X0009303Y-0010491D01*
X0009414Y-0010380D01*
X0009525D01*
X0009636Y-0010491D01*
X0009692Y-0010602D01*
Y-0010825D01*
X0009636Y-0010936D01*
X0009525Y-0011047D01*
X0009414D01*
X0008881D02*
X0008992D01*
Y-0010936D01*
X0008881D01*
Y-0011047D01*
X0008236D02*
X0008125Y-0010936D01*
X0008069Y-0010825D01*
Y-0010602D01*
X0008125Y-0010491D01*
X0008236Y-0010380D01*
X0008347D01*
X0008458Y-0010491D01*
X0008514Y-0010602D01*
Y-0010825D01*
X0008458Y-0010936D01*
X0008347Y-0011047D01*
X0008236D01*
X0024708Y-0009325D02*
X0024264D01*
X0024486Y-0008880D01*
X0024597D01*
Y-0009547D01*
X0023619Y-0009214D02*
X0023953D01*
X0024008Y-0009325D01*
Y-0009436D01*
X0023953Y-0009547D01*
X0023619D01*
X0023564Y-0009436D01*
Y-0009325D01*
X0023786Y-0008880D01*
X0011092Y-0009547D02*
X0010647D01*
X0011092Y-0009102D01*
Y-0008991D01*
X0011036Y-0008880D01*
X0010703D01*
X0010647Y-0008991D01*
X0009947Y-0009436D02*
X0010058Y-0009547D01*
X0010281D01*
X0010392Y-0009436D01*
Y-0009325D01*
X0010169Y-0009102D01*
X0010392Y-0008880D01*
X0009947D01*
X0009414Y-0009547D02*
X0009303Y-0009436D01*
X0009247Y-0009325D01*
Y-0009102D01*
X0009303Y-0008991D01*
X0009414Y-0008880D01*
X0009525D01*
X0009636Y-0008991D01*
X0009692Y-0009102D01*
Y-0009325D01*
X0009636Y-0009436D01*
X0009525Y-0009547D01*
X0009414D01*
X0008881D02*
X0008992D01*
Y-0009436D01*
X0008881D01*
Y-0009547D01*
X0008236D02*
X0008125Y-0009436D01*
X0008069Y-0009325D01*
Y-0009102D01*
X0008125Y-0008991D01*
X0008236Y-0008880D01*
X0008347D01*
X0008458Y-0008991D01*
X0008514Y-0009102D01*
Y-0009325D01*
X0008458Y-0009436D01*
X0008347Y-0009547D01*
X0008236D01*
X0024264Y-0007936D02*
X0024319Y-0008047D01*
X0024653D01*
X0024708Y-0007936D01*
Y-0007714D01*
X0024597Y-0007602D01*
X0024264D01*
Y-0007380D01*
X0024708D01*
X0024008Y-0008047D02*
X0023786D01*
X0023897D02*
Y-0007380D01*
X0023786Y-0007491D01*
X0011092Y-0008047D02*
X0010869D01*
X0010981D02*
Y-0007380D01*
X0010869Y-0007491D01*
X0010058Y-0007936D02*
X0010169Y-0008047D01*
X0010392D01*
X0010503Y-0007936D01*
Y-0007825D01*
X0010281Y-0007602D01*
X0010503Y-0007380D01*
X0010058D01*
X0009525Y-0008047D02*
X0009414Y-0007936D01*
X0009358Y-0007825D01*
Y-0007602D01*
X0009414Y-0007491D01*
X0009525Y-0007380D01*
X0009636D01*
X0009747Y-0007491D01*
X0009803Y-0007602D01*
Y-0007825D01*
X0009747Y-0007936D01*
X0009636Y-0008047D01*
X0009525D01*
X0008992D02*
X0009103D01*
Y-0007936D01*
X0008992D01*
Y-0008047D01*
X0008347D02*
X0008236Y-0007936D01*
X0008181Y-0007825D01*
Y-0007602D01*
X0008236Y-0007491D01*
X0008347Y-0007380D01*
X0008458D01*
X0008569Y-0007491D01*
X0008625Y-0007602D01*
Y-0007825D01*
X0008569Y-0007936D01*
X0008458Y-0008047D01*
X0008347D01*
X0024708Y-0006325D02*
X0024264D01*
X0024486Y-0005880D01*
X0024597D01*
Y-0006547D01*
X0023953Y-0006214D02*
X0024008Y-0006102D01*
Y-0005991D01*
X0023953Y-0005880D01*
X0023619D01*
X0023564Y-0005991D01*
Y-0006102D01*
X0023619Y-0006214D01*
X0023953D01*
X0024008Y-0006325D01*
Y-0006436D01*
X0023953Y-0006547D01*
X0023619D01*
X0023564Y-0006436D01*
Y-0006325D01*
X0023619Y-0006214D01*
X0011092Y-0006547D02*
X0010647D01*
X0011092Y-0006102D01*
Y-0005991D01*
X0011036Y-0005880D01*
X0010703D01*
X0010647Y-0005991D01*
X0010392Y-0006547D02*
X0010169D01*
X0010281D02*
Y-0005880D01*
X0010169Y-0005991D01*
X0009525Y-0006547D02*
X0009414Y-0006436D01*
X0009358Y-0006325D01*
Y-0006102D01*
X0009414Y-0005991D01*
X0009525Y-0005880D01*
X0009636D01*
X0009747Y-0005991D01*
X0009803Y-0006102D01*
Y-0006325D01*
X0009747Y-0006436D01*
X0009636Y-0006547D01*
X0009525D01*
X0008992D02*
X0009103D01*
Y-0006436D01*
X0008992D01*
Y-0006547D01*
X0008347D02*
X0008236Y-0006436D01*
X0008181Y-0006325D01*
Y-0006102D01*
X0008236Y-0005991D01*
X0008347Y-0005880D01*
X0008458D01*
X0008569Y-0005991D01*
X0008625Y-0006102D01*
Y-0006325D01*
X0008569Y-0006436D01*
X0008458Y-0006547D01*
X0008347D01*
X0033112Y-0004408D02*
X0032612D01*
X0033279Y-0004908D02*
X0032612D01*
Y-0003908D01*
X0033279D01*
X0031996Y-0004908D02*
Y-0003908D01*
X0032329D02*
X0031662D01*
X0030796Y-0004908D02*
X0030712Y-0004741D01*
Y-0004075D01*
X0030796Y-0003908D01*
X0031296D01*
X0031379Y-0004075D01*
Y-0004741D01*
X0031296Y-0004908D01*
X0030796D01*
X0030429Y-0003908D02*
Y-0004908D01*
X0030262Y-0004741D01*
X0029929Y-0004075D01*
X0029762Y-0003908D01*
Y-0004908D01*
X0023925D02*
Y-0004408D01*
X0024258Y-0003908D02*
X0024008Y-0004408D01*
X0023842D01*
X0023592Y-0003908D01*
X0022975Y-0004908D02*
Y-0003908D01*
X0023308D02*
X0022642D01*
X0022025Y-0004575D02*
X0022358Y-0004908D01*
X0021692Y-0004741D02*
X0021775Y-0004908D01*
X0022108D01*
X0022192Y-0004741D01*
X0022358Y-0004575D01*
Y-0004075D01*
X0022275Y-0003908D01*
X0021775D01*
X0021692Y-0004075D01*
Y-0004741D01*
X0017408Y-0004908D02*
X0016825D01*
Y-0003908D01*
X0015958Y-0004908D02*
X0015875Y-0004741D01*
Y-0004075D01*
X0015958Y-0003908D01*
X0016458D01*
X0016542Y-0004075D01*
Y-0004741D01*
X0016458Y-0004908D01*
X0015958D01*
X0015258D02*
Y-0003908D01*
X0015592D02*
X0014925D01*
X0009587Y-0004908D02*
Y-0003908D01*
X0009421Y-0004075D01*
X0009254Y-0004408D01*
X0009087Y-0004075D01*
X0008921Y-0003908D01*
Y-0004908D01*
X0008637Y-0004575D02*
X0007971D01*
X0008637Y-0004908D02*
Y-0004408D01*
X0008387Y-0003908D01*
X0008221D01*
X0007971Y-0004408D01*
Y-0004908D01*
X0007687D02*
X0007354D01*
X0007521D02*
Y-0003908D01*
X0007687D02*
X0007354D01*
X0006321Y-0004908D02*
Y-0003908D01*
X0006237Y-0004908D02*
X0006737D01*
X0006904Y-0004575D01*
Y-0004241D01*
X0006737Y-0003908D01*
X0006237D01*
X0003150Y-0004908D02*
Y-0003908D01*
X0002983Y-0004075D01*
X0002817Y-0004408D01*
X0002650Y-0004075D01*
X0002483Y-0003908D01*
Y-0004908D01*
X0001867D02*
Y-0004408D01*
X0002200Y-0003908D02*
X0001950Y-0004408D01*
X0001783D01*
X0001533Y-0003908D01*
X0001250Y-0004075D02*
X0001167Y-0003908D01*
X0000667D01*
X0000583Y-0004075D01*
Y-0004241D01*
X0000667Y-0004408D01*
X0001167D01*
X0001250Y-0004575D01*
Y-0004741D01*
X0001167Y-0004908D01*
X0000667D01*
X0000583Y-0004741D01*
X0023437Y-0002908D02*
Y-0001908D01*
X0023771D02*
X0023104D01*
X0022571Y-0002408D02*
X0022821Y-0002908D01*
X0022154Y-0002408D02*
X0022654D01*
X0022821Y-0002241D01*
Y-0002075D01*
X0022654Y-0001908D01*
X0022154D01*
Y-0002908D01*
X0021871Y-0002575D02*
X0021204D01*
X0021871Y-0002908D02*
Y-0002408D01*
X0021621Y-0001908D01*
X0021454D01*
X0021204Y-0002408D01*
Y-0002908D01*
X0020921Y-0002408D02*
X0020254D01*
X0020921Y-0002908D02*
Y-0001908D01*
X0020254Y-0002908D02*
Y-0001908D01*
X0019971Y-0002741D02*
X0019887Y-0002908D01*
X0019387D01*
X0019304Y-0002741D01*
Y-0002075D01*
X0019387Y-0001908D01*
X0019887D01*
X0019971Y-0002075D01*
X0017696Y-0002908D02*
X0017112D01*
Y-0001908D01*
X0016829Y-0002908D02*
X0016246D01*
Y-0001908D01*
X0015962Y-0002908D02*
X0015629D01*
X0015796D02*
Y-0001908D01*
X0015962D02*
X0015629D01*
X0014929Y-0002408D02*
X0015179Y-0002908D01*
X0014512Y-0002408D02*
X0015012D01*
X0015179Y-0002241D01*
Y-0002075D01*
X0015012Y-0001908D01*
X0014512D01*
Y-0002908D01*
X0013646D02*
Y-0001908D01*
X0013562Y-0002908D02*
X0014062D01*
X0014229Y-0002575D01*
Y-0002241D01*
X0014062Y-0001908D01*
X0013562D01*
X0038442Y0008267D02*
Y0008067D01*
X0038692Y0008017D02*
X0038442Y0008267D01*
X0038942D02*
X0038692Y0008017D01*
X0038942Y0008067D02*
Y0008267D01*
X0038692Y0008317D02*
X0038942Y0008067D01*
X0038442D02*
X0038692Y0008317D01*
X0044841Y0007776D02*
Y0007576D01*
X0045091Y0007526D02*
X0044841Y0007776D01*
X0045341D02*
X0045091Y0007526D01*
X0045341Y0007576D02*
Y0007776D01*
X0045091Y0007826D02*
X0045341Y0007576D01*
X0044841D02*
X0045091Y0007826D01*
X0047450Y0008260D02*
Y0008060D01*
X0047700Y0008010D02*
X0047450Y0008260D01*
X0047950D02*
X0047700Y0008010D01*
X0047950Y0008060D02*
Y0008260D01*
X0047700Y0008310D02*
X0047950Y0008060D01*
X0047450D02*
X0047700Y0008310D01*
X0075333Y0004430D02*
Y0004230D01*
X0075583Y0004180D02*
X0075333Y0004430D01*
X0075833D02*
X0075583Y0004180D01*
X0075833Y0004230D02*
Y0004430D01*
X0075583Y0004480D02*
X0075833Y0004230D01*
X0075333D02*
X0075583Y0004480D01*
X0080058Y0001281D02*
Y0001081D01*
X0080308Y0001031D02*
X0080058Y0001281D01*
X0080558D02*
X0080308Y0001031D01*
X0080558Y0001081D02*
Y0001281D01*
X0080308Y0001331D02*
X0080558Y0001081D01*
X0080058D02*
X0080308Y0001331D01*
X0073554Y0009926D02*
Y0009726D01*
X0073804Y0009676D02*
X0073554Y0009926D01*
X0074054D02*
X0073804Y0009676D01*
X0074054Y0009726D02*
Y0009926D01*
X0073804Y0009976D02*
X0074054Y0009726D01*
X0073554D02*
X0073804Y0009976D01*
X0032090Y0006452D02*
Y0006252D01*
X0032340Y0006202D02*
X0032090Y0006452D01*
X0032590D02*
X0032340Y0006202D01*
X0032590Y0006252D02*
Y0006452D01*
X0032340Y0006502D02*
X0032590Y0006252D01*
X0032090D02*
X0032340Y0006502D01*
X0059975Y0006287D02*
Y0006087D01*
X0060225Y0006037D02*
X0059975Y0006287D01*
X0060475D02*
X0060225Y0006037D01*
X0060475Y0006087D02*
Y0006287D01*
X0060225Y0006337D02*
X0060475Y0006087D01*
X0059975D02*
X0060225Y0006337D01*
X0057220Y0000630D02*
Y0000430D01*
X0057470Y0000380D02*
X0057220Y0000630D01*
X0057720D02*
X0057470Y0000380D01*
X0057720Y0000430D02*
Y0000630D01*
X0057470Y0000680D02*
X0057720Y0000430D01*
X0057220D02*
X0057470Y0000680D01*
X0105350Y0000760D02*
Y0000560D01*
X0105600Y0000510D02*
X0105350Y0000760D01*
X0105850D02*
X0105600Y0000510D01*
X0105850Y0000560D02*
Y0000760D01*
X0105600Y0000810D02*
X0105850Y0000560D01*
X0105350D02*
X0105600Y0000810D01*
X0064360Y0009780D02*
Y0009580D01*
X0064610Y0009530D02*
X0064360Y0009780D01*
X0064860D02*
X0064610Y0009530D01*
X0064860Y0009580D02*
Y0009780D01*
X0064610Y0009830D02*
X0064860Y0009580D01*
X0064360D02*
X0064610Y0009830D01*
X0073554Y0009926D02*
Y0009726D01*
X0073804Y0009676D02*
X0073554Y0009926D01*
X0074054D02*
X0073804Y0009676D01*
X0074054Y0009726D02*
Y0009926D01*
X0073804Y0009976D02*
X0074054Y0009726D01*
X0073554D02*
X0073804Y0009976D01*
X0073430Y0004240D02*
Y0004040D01*
X0073680Y0003990D02*
X0073430Y0004240D01*
X0073930D02*
X0073680Y0003990D01*
X0073930Y0004040D02*
Y0004240D01*
X0073680Y0004290D02*
X0073930Y0004040D01*
X0073430D02*
X0073680Y0004290D01*
X0076514Y0002068D02*
Y0001868D01*
X0076764Y0001818D02*
X0076514Y0002068D01*
X0077014D02*
X0076764Y0001818D01*
X0077014Y0001868D02*
Y0002068D01*
X0076764Y0002118D02*
X0077014Y0001868D01*
X0076514D02*
X0076764Y0002118D01*
X0076900Y0005990D02*
Y0005790D01*
X0077150Y0005740D02*
X0076900Y0005990D01*
X0077400D02*
X0077150Y0005740D01*
X0077400Y0005790D02*
Y0005990D01*
X0077150Y0006040D02*
X0077400Y0005790D01*
X0076900D02*
X0077150Y0006040D01*
X0070215Y0006005D02*
Y0005805D01*
X0070465Y0005755D02*
X0070215Y0006005D01*
X0070715D02*
X0070465Y0005755D01*
X0070715Y0005805D02*
Y0006005D01*
X0070465Y0006055D02*
X0070715Y0005805D01*
X0070215D02*
X0070465Y0006055D01*
X0073880Y0005419D02*
Y0005219D01*
X0074130Y0005169D02*
X0073880Y0005419D01*
X0074380D02*
X0074130Y0005169D01*
X0074380Y0005219D02*
Y0005419D01*
X0074130Y0005469D02*
X0074380Y0005219D01*
X0073880D02*
X0074130Y0005469D01*
X0024548Y0002780D02*
Y0002580D01*
X0024798Y0002530D02*
X0024548Y0002780D01*
X0025048D02*
X0024798Y0002530D01*
X0025048Y0002580D02*
Y0002780D01*
X0024798Y0002830D02*
X0025048Y0002580D01*
X0024548D02*
X0024798Y0002830D01*
X0021008Y0009548D02*
Y0009348D01*
X0021258Y0009298D02*
X0021008Y0009548D01*
X0021508D02*
X0021258Y0009298D01*
X0021508Y0009348D02*
Y0009548D01*
X0021258Y0009598D02*
X0021508Y0009348D01*
X0021008D02*
X0021258Y0009598D01*
X0063523Y0008367D02*
Y0008167D01*
X0063773Y0008117D02*
X0063523Y0008367D01*
X0064023D02*
X0063773Y0008117D01*
X0064023Y0008167D02*
Y0008367D01*
X0063773Y0008417D02*
X0064023Y0008167D01*
X0063523D02*
X0063773Y0008417D01*
X0058780Y0008950D02*
Y0008750D01*
X0059030Y0008700D02*
X0058780Y0008950D01*
X0059280D02*
X0059030Y0008700D01*
X0059280Y0008750D02*
Y0008950D01*
X0059030Y0009000D02*
X0059280Y0008750D01*
X0058780D02*
X0059030Y0009000D01*
X0043825Y0010741D02*
Y0010541D01*
X0044075Y0010491D02*
X0043825Y0010741D01*
X0044325D02*
X0044075Y0010491D01*
X0044325Y0010541D02*
Y0010741D01*
X0044075Y0010791D02*
X0044325Y0010541D01*
X0043825D02*
X0044075Y0010791D01*
X0075727Y0005217D02*
Y0005017D01*
X0075977Y0004967D02*
X0075727Y0005217D01*
X0076227D02*
X0075977Y0004967D01*
X0076227Y0005017D02*
Y0005217D01*
X0075977Y0005267D02*
X0076227Y0005017D01*
X0075727D02*
X0075977Y0005267D01*
X0062210Y0006880D02*
Y0006680D01*
X0062460Y0006630D02*
X0062210Y0006880D01*
X0062710D02*
X0062460Y0006630D01*
X0062710Y0006680D02*
Y0006880D01*
X0062460Y0006930D02*
X0062710Y0006680D01*
X0062210D02*
X0062460Y0006930D01*
X0015660Y0011040D02*
Y0010840D01*
X0015910Y0010790D02*
X0015660Y0011040D01*
X0016160D02*
X0015910Y0010790D01*
X0016160Y0010840D02*
Y0011040D01*
X0015910Y0011090D02*
X0016160Y0010840D01*
X0015660D02*
X0015910Y0011090D01*
X0061161Y0007579D02*
Y0007379D01*
X0061411Y0007329D02*
X0061161Y0007579D01*
X0061661D02*
X0061411Y0007329D01*
X0061661Y0007379D02*
Y0007579D01*
X0061411Y0007629D02*
X0061661Y0007379D01*
X0061161D02*
X0061411Y0007629D01*
X0070215Y0006005D02*
Y0005805D01*
X0070465Y0005755D02*
X0070215Y0006005D01*
X0070715D02*
X0070465Y0005755D01*
X0070715Y0005805D02*
Y0006005D01*
X0070465Y0006055D02*
X0070715Y0005805D01*
X0070215D02*
X0070465Y0006055D01*
X0049869Y0007236D02*
Y0007036D01*
X0050119Y0006986D02*
X0049869Y0007236D01*
X0050369D02*
X0050119Y0006986D01*
X0050369Y0007036D02*
Y0007236D01*
X0050119Y0007286D02*
X0050369Y0007036D01*
X0049869D02*
X0050119Y0007286D01*
X0072550Y0001550D02*
Y0001350D01*
X0072800Y0001300D02*
X0072550Y0001550D01*
X0073050D02*
X0072800Y0001300D01*
X0073050Y0001350D02*
Y0001550D01*
X0072800Y0001600D02*
X0073050Y0001350D01*
X0072550D02*
X0072800Y0001600D01*
X0045930Y0006530D02*
Y0006330D01*
X0046180Y0006280D02*
X0045930Y0006530D01*
X0046430D02*
X0046180Y0006280D01*
X0046430Y0006330D02*
Y0006530D01*
X0046180Y0006580D02*
X0046430Y0006330D01*
X0045930D02*
X0046180Y0006580D01*
X0078785Y0005462D02*
Y0005262D01*
X0079035Y0005212D02*
X0078785Y0005462D01*
X0079285D02*
X0079035Y0005212D01*
X0079285Y0005262D02*
Y0005462D01*
X0079035Y0005512D02*
X0079285Y0005262D01*
X0078785D02*
X0079035Y0005512D01*
X0019039Y0000887D02*
Y0000687D01*
X0019289Y0000637D02*
X0019039Y0000887D01*
X0019539D02*
X0019289Y0000637D01*
X0019539Y0000687D02*
Y0000887D01*
X0019289Y0000937D02*
X0019539Y0000687D01*
X0019039D02*
X0019289Y0000937D01*
X0030080Y0006420D02*
Y0006220D01*
X0030330Y0006170D02*
X0030080Y0006420D01*
X0030580D02*
X0030330Y0006170D01*
X0030580Y0006220D02*
Y0006420D01*
X0030330Y0006470D02*
X0030580Y0006220D01*
X0030080D02*
X0030330Y0006470D01*
X0057080Y0007390D02*
Y0007190D01*
X0057330Y0007140D02*
X0057080Y0007390D01*
X0057580D02*
X0057330Y0007140D01*
X0057580Y0007190D02*
Y0007390D01*
X0057330Y0007440D02*
X0057580Y0007190D01*
X0057080D02*
X0057330Y0007440D01*
X0075114Y0008886D02*
Y0008686D01*
X0075364Y0008636D02*
X0075114Y0008886D01*
X0075614D02*
X0075364Y0008636D01*
X0075614Y0008686D02*
Y0008886D01*
X0075364Y0008936D02*
X0075614Y0008686D01*
X0075114D02*
X0075364Y0008936D01*
X0074930Y0007950D02*
Y0007750D01*
X0075180Y0007700D02*
X0074930Y0007950D01*
X0075430D02*
X0075180Y0007700D01*
X0075430Y0007750D02*
Y0007950D01*
X0075180Y0008000D02*
X0075430Y0007750D01*
X0074930D02*
X0075180Y0008000D01*
X0102091Y0002464D02*
Y0002264D01*
X0102341Y0002214D02*
X0102091Y0002464D01*
X0102591D02*
X0102341Y0002214D01*
X0102591Y0002264D02*
Y0002464D01*
X0102341Y0002514D02*
X0102591Y0002264D01*
X0102091D02*
X0102341Y0002514D01*
X0077301Y0005611D02*
Y0005411D01*
X0077551Y0005361D02*
X0077301Y0005611D01*
X0077801D02*
X0077551Y0005361D01*
X0077801Y0005411D02*
Y0005611D01*
X0077551Y0005661D02*
X0077801Y0005411D01*
X0077301D02*
X0077551Y0005661D01*
X0053127Y0010371D02*
Y0010171D01*
X0053377Y0010121D02*
X0053127Y0010371D01*
X0053627D02*
X0053377Y0010121D01*
X0053627Y0010171D02*
Y0010371D01*
X0053377Y0010421D02*
X0053627Y0010171D01*
X0053127D02*
X0053377Y0010421D01*
X0070300Y0011900D02*
Y0011700D01*
X0070550Y0011650D02*
X0070300Y0011900D01*
X0070800D02*
X0070550Y0011650D01*
X0070800Y0011700D02*
Y0011900D01*
X0070550Y0011950D02*
X0070800Y0011700D01*
X0070300D02*
X0070550Y0011950D01*
X0070300Y0007930D02*
Y0007730D01*
X0070550Y0007680D02*
X0070300Y0007930D01*
X0070800D02*
X0070550Y0007680D01*
X0070800Y0007730D02*
Y0007930D01*
X0070550Y0007980D02*
X0070800Y0007730D01*
X0070300D02*
X0070550Y0007980D01*
X0074289Y0007937D02*
Y0007737D01*
X0074539Y0007687D02*
X0074289Y0007937D01*
X0074789D02*
X0074539Y0007687D01*
X0074789Y0007737D02*
Y0007937D01*
X0074539Y0007987D02*
X0074789Y0007737D01*
X0074289D02*
X0074539Y0007987D01*
X0049580Y0001280D02*
Y0001080D01*
X0049830Y0001030D02*
X0049580Y0001280D01*
X0050080D02*
X0049830Y0001030D01*
X0050080Y0001080D02*
Y0001280D01*
X0049830Y0001330D02*
X0050080Y0001080D01*
X0049580D02*
X0049830Y0001330D01*
X0079350Y0003620D02*
Y0003420D01*
X0079600Y0003370D02*
X0079350Y0003620D01*
X0079850D02*
X0079600Y0003370D01*
X0079850Y0003420D02*
Y0003620D01*
X0079600Y0003670D02*
X0079850Y0003420D01*
X0079350D02*
X0079600Y0003670D01*
X0076514Y0005611D02*
Y0005411D01*
X0076764Y0005361D02*
X0076514Y0005611D01*
X0077014D02*
X0076764Y0005361D01*
X0077014Y0005411D02*
Y0005611D01*
X0076764Y0005661D02*
X0077014Y0005411D01*
X0076514D02*
X0076764Y0005661D01*
X0037530Y0007130D02*
Y0006930D01*
X0037780Y0006880D02*
X0037530Y0007130D01*
X0038030D02*
X0037780Y0006880D01*
X0038030Y0006930D02*
Y0007130D01*
X0037780Y0007180D02*
X0038030Y0006930D01*
X0037530D02*
X0037780Y0007180D01*
X0082350Y0002650D02*
Y0002450D01*
X0082600Y0002400D02*
X0082350Y0002650D01*
X0082850D02*
X0082600Y0002400D01*
X0082850Y0002450D02*
Y0002650D01*
X0082600Y0002700D02*
X0082850Y0002450D01*
X0082350D02*
X0082600Y0002700D01*
X0001575Y-0016725D02*
Y-0016925D01*
X0001725Y-0016575D02*
X0001575Y-0016725D01*
X0001925Y-0016575D02*
X0001725D01*
X0002075Y-0016725D02*
X0001925Y-0016575D01*
X0002075Y-0016925D02*
Y-0016725D01*
X0001925Y-0017075D02*
X0002075Y-0016925D01*
X0001725Y-0017075D02*
X0001925D01*
X0001575Y-0016925D02*
X0001725Y-0017075D01*
X0001575Y-0015075D02*
Y-0015325D01*
X0001825Y-0015075D02*
X0001575D01*
X0001825Y-0015575D02*
Y-0015075D01*
X0002075Y-0015575D02*
X0001825D01*
X0002075Y-0015325D02*
Y-0015575D01*
X0001575Y-0015325D02*
X0002075D01*
X0001575Y-0013575D02*
Y-0014075D01*
X0002075Y-0013575D02*
X0001575D01*
X0002075Y-0014075D02*
Y-0013575D01*
X0001575Y-0014075D02*
X0002075D01*
Y-0013825D02*
X0001575D01*
X0001825Y-0013575D02*
Y-0014075D01*
X0001575Y-0012075D02*
Y-0012575D01*
X0002075Y-0012075D02*
X0001575D01*
X0002075Y-0012575D02*
Y-0012075D01*
X0001575Y-0012575D02*
X0002075D01*
Y-0012075D02*
X0001575Y-0012575D01*
X0002075D02*
X0001575Y-0012075D01*
X0001825Y-0010575D02*
X0001575Y-0010825D01*
X0002075D02*
X0001825Y-0010575D01*
Y-0011075D02*
X0002075Y-0010825D01*
X0001575D02*
X0001825Y-0011075D01*
X0002075Y-0009325D02*
X0001575D01*
X0001825Y-0009075D02*
Y-0009575D01*
X0002075Y-0007575D02*
X0001575Y-0008075D01*
X0002075D02*
X0001575Y-0007575D01*
Y-0006225D02*
Y-0006425D01*
X0001825Y-0006475D02*
X0001575Y-0006225D01*
X0002075D02*
X0001825Y-0006475D01*
X0002075Y-0006425D02*
Y-0006225D01*
X0001825Y-0006175D02*
X0002075Y-0006425D01*
X0001575D02*
X0001825Y-0006175D01*
X0037300Y-0019625D02*
X-0000050D01*
X0037250Y-0019575D02*
X0000000D01*
X0037250Y-0017575D02*
X0000000D01*
X0037250Y-0016075D02*
X0000000D01*
X0037250Y-0014575D02*
X0000000D01*
X0037250Y-0013075D02*
X0000000D01*
X0037250Y-0011575D02*
X0000000D01*
X0037250Y-0010075D02*
X0000000D01*
X0037250Y-0008575D02*
X0000000D01*
X0037250Y-0007075D02*
X0000000D01*
X0037250Y-0005575D02*
X0000000D01*
X0037250Y-0005525D02*
X0000000D01*
X0037250Y-0003575D02*
X0000000D01*
X0037250Y-0003525D02*
X0000000D01*
X0037250Y-0001575D02*
X0000000D01*
X0037300Y-0001525D02*
X-0000050D01*
X0037300Y-0019575D02*
Y-0001575D01*
X0037250Y-0019575D02*
Y-0001575D01*
X0025708Y-0019575D02*
Y-0003575D01*
X0020158Y-0019575D02*
Y-0003575D01*
X0012092Y-0017575D02*
Y-0003575D01*
X0003700Y-0017575D02*
Y-0003575D01*
X0003650Y-0017575D02*
Y-0003575D01*
X-0000050Y-0019575D02*
Y-0001575D01*
X0000000Y-0019575D02*
Y-0001575D01*
X0073930Y0001870D02*
Y0001670D01*
X0074180Y0001620D02*
X0073930Y0001870D01*
X0074430D02*
X0074180Y0001620D01*
X0074430Y0001670D02*
Y0001870D01*
X0074180Y0001920D02*
X0074430Y0001670D01*
X0073930D02*
X0074180Y0001920D01*
X0075400Y0001770D02*
Y0001570D01*
X0075650Y0001520D02*
X0075400Y0001770D01*
X0075900D02*
X0075650Y0001520D01*
X0075900Y0001570D02*
Y0001770D01*
X0075650Y0001820D02*
X0075900Y0001570D01*
X0075400D02*
X0075650Y0001820D01*
X0081580Y0006420D02*
Y0006220D01*
X0081830Y0006170D02*
X0081580Y0006420D01*
X0082080D02*
X0081830Y0006170D01*
X0082080Y0006220D02*
Y0006420D01*
X0081830Y0006470D02*
X0082080Y0006220D01*
X0081580D02*
X0081830Y0006470D01*
X0076080Y0006310D02*
Y0006110D01*
X0076330Y0006060D02*
X0076080Y0006310D01*
X0076580D02*
X0076330Y0006060D01*
X0076580Y0006110D02*
Y0006310D01*
X0076330Y0006360D02*
X0076580Y0006110D01*
X0076080D02*
X0076330Y0006360D01*
X0074210Y0004970D02*
Y0004770D01*
X0074460Y0004720D02*
X0074210Y0004970D01*
X0074710D02*
X0074460Y0004720D01*
X0074710Y0004770D02*
Y0004970D01*
X0074460Y0005020D02*
X0074710Y0004770D01*
X0074210D02*
X0074460Y0005020D01*
X0074290Y0007120D02*
Y0006920D01*
X0074540Y0006870D02*
X0074290Y0007120D01*
X0074790D02*
X0074540Y0006870D01*
X0074790Y0006920D02*
Y0007120D01*
X0074540Y0007170D02*
X0074790Y0006920D01*
X0074290D02*
X0074540Y0007170D01*
X0071470Y0010160D02*
Y0009960D01*
X0071720Y0009910D02*
X0071470Y0010160D01*
X0071970D02*
X0071720Y0009910D01*
X0071970Y0009960D02*
Y0010160D01*
X0071720Y0010210D02*
X0071970Y0009960D01*
X0071470D02*
X0071720Y0010210D01*
X0070670Y0006970D02*
Y0006770D01*
X0070920Y0006720D02*
X0070670Y0006970D01*
X0071170D02*
X0070920Y0006720D01*
X0071170Y0006770D02*
Y0006970D01*
X0070920Y0007020D02*
X0071170Y0006770D01*
X0070670D02*
X0070920Y0007020D01*
X0058270Y0007820D02*
Y0007620D01*
X0058520Y0007570D02*
X0058270Y0007820D01*
X0058770D02*
X0058520Y0007570D01*
X0058770Y0007620D02*
Y0007820D01*
X0058520Y0007870D02*
X0058770Y0007620D01*
X0058270D02*
X0058520Y0007870D01*
X0054250Y0008260D02*
Y0008060D01*
X0054500Y0008010D02*
X0054250Y0008260D01*
X0054750D02*
X0054500Y0008010D01*
X0054750Y0008060D02*
Y0008260D01*
X0054500Y0008310D02*
X0054750Y0008060D01*
X0054250D02*
X0054500Y0008310D01*
X0056310Y0007380D02*
Y0007180D01*
X0056560Y0007130D02*
X0056310Y0007380D01*
X0056810D02*
X0056560Y0007130D01*
X0056810Y0007180D02*
Y0007380D01*
X0056560Y0007430D02*
X0056810Y0007180D01*
X0056310D02*
X0056560Y0007430D01*
X0043390Y0005500D02*
Y0005300D01*
X0043640Y0005250D02*
X0043390Y0005500D01*
X0043890D02*
X0043640Y0005250D01*
X0043890Y0005300D02*
Y0005500D01*
X0043640Y0005550D02*
X0043890Y0005300D01*
X0043390D02*
X0043640Y0005550D01*
X0046700Y0005400D02*
Y0005200D01*
X0046950Y0005150D02*
X0046700Y0005400D01*
X0047200D02*
X0046950Y0005150D01*
X0047200Y0005200D02*
Y0005400D01*
X0046950Y0005450D02*
X0047200Y0005200D01*
X0046700D02*
X0046950Y0005450D01*
X0046700Y0004660D02*
Y0004460D01*
X0046950Y0004410D02*
X0046700Y0004660D01*
X0047200D02*
X0046950Y0004410D01*
X0047200Y0004460D02*
Y0004660D01*
X0046950Y0004710D02*
X0047200Y0004460D01*
X0046700D02*
X0046950Y0004710D01*
X0051040Y0005380D02*
Y0005180D01*
X0051290Y0005130D02*
X0051040Y0005380D01*
X0051540D02*
X0051290Y0005130D01*
X0051540Y0005180D02*
Y0005380D01*
X0051290Y0005430D02*
X0051540Y0005180D01*
X0051040D02*
X0051290Y0005430D01*
X0052300Y0005390D02*
Y0005190D01*
X0052550Y0005140D02*
X0052300Y0005390D01*
X0052800D02*
X0052550Y0005140D01*
X0052800Y0005190D02*
Y0005390D01*
X0052550Y0005440D02*
X0052800Y0005190D01*
X0052300D02*
X0052550Y0005440D01*
X0053640Y0004710D02*
Y0004510D01*
X0053890Y0004460D02*
X0053640Y0004710D01*
X0054140D02*
X0053890Y0004460D01*
X0054140Y0004510D02*
Y0004710D01*
X0053890Y0004760D02*
X0054140Y0004510D01*
X0053640D02*
X0053890Y0004760D01*
X0054470Y0005610D02*
Y0005410D01*
X0054720Y0005360D02*
X0054470Y0005610D01*
X0054970D02*
X0054720Y0005360D01*
X0054970Y0005410D02*
Y0005610D01*
X0054720Y0005660D02*
X0054970Y0005410D01*
X0054470D02*
X0054720Y0005660D01*
X0058480Y0005640D02*
Y0005440D01*
X0058730Y0005390D02*
X0058480Y0005640D01*
X0058980D02*
X0058730Y0005390D01*
X0058980Y0005440D02*
Y0005640D01*
X0058730Y0005690D02*
X0058980Y0005440D01*
X0058480D02*
X0058730Y0005690D01*
X0058820Y0006880D02*
Y0006680D01*
X0059070Y0006630D02*
X0058820Y0006880D01*
X0059320D02*
X0059070Y0006630D01*
X0059320Y0006680D02*
Y0006880D01*
X0059070Y0006930D02*
X0059320Y0006680D01*
X0058820D02*
X0059070Y0006930D01*
X0060530Y0005140D02*
Y0004940D01*
X0060780Y0004890D02*
X0060530Y0005140D01*
X0061030D02*
X0060780Y0004890D01*
X0061030Y0004940D02*
Y0005140D01*
X0060780Y0005190D02*
X0061030Y0004940D01*
X0060530D02*
X0060780Y0005190D01*
X0060490Y0007400D02*
Y0007200D01*
X0060740Y0007150D02*
X0060490Y0007400D01*
X0060990D02*
X0060740Y0007150D01*
X0060990Y0007200D02*
Y0007400D01*
X0060740Y0007450D02*
X0060990Y0007200D01*
X0060490D02*
X0060740Y0007450D01*
X0061880Y0007440D02*
Y0007240D01*
X0062130Y0007190D02*
X0061880Y0007440D01*
X0062380D02*
X0062130Y0007190D01*
X0062380Y0007240D02*
Y0007440D01*
X0062130Y0007490D02*
X0062380Y0007240D01*
X0061880D02*
X0062130Y0007490D01*
X0061590Y0005180D02*
Y0004980D01*
X0061840Y0004930D02*
X0061590Y0005180D01*
X0062090D02*
X0061840Y0004930D01*
X0062090Y0004980D02*
Y0005180D01*
X0061840Y0005230D02*
X0062090Y0004980D01*
X0061590D02*
X0061840Y0005230D01*
X0064810Y0005610D02*
Y0005410D01*
X0065060Y0005360D02*
X0064810Y0005610D01*
X0065310D02*
X0065060Y0005360D01*
X0065310Y0005410D02*
Y0005610D01*
X0065060Y0005660D02*
X0065310Y0005410D01*
X0064810D02*
X0065060Y0005660D01*
X0067210Y0008810D02*
Y0008610D01*
X0067460Y0008560D02*
X0067210Y0008810D01*
X0067710D02*
X0067460Y0008560D01*
X0067710Y0008610D02*
Y0008810D01*
X0067460Y0008860D02*
X0067710Y0008610D01*
X0067210D02*
X0067460Y0008860D01*
X0067220Y0006930D02*
Y0006730D01*
X0067470Y0006680D02*
X0067220Y0006930D01*
X0067720D02*
X0067470Y0006680D01*
X0067720Y0006730D02*
Y0006930D01*
X0067470Y0006980D02*
X0067720Y0006730D01*
X0067220D02*
X0067470Y0006980D01*
X0063450Y0003790D02*
Y0003590D01*
X0063700Y0003540D02*
X0063450Y0003790D01*
X0063950D02*
X0063700Y0003540D01*
X0063950Y0003590D02*
Y0003790D01*
X0063700Y0003840D02*
X0063950Y0003590D01*
X0063450D02*
X0063700Y0003840D01*
X0067240Y0003820D02*
Y0003620D01*
X0067490Y0003570D02*
X0067240Y0003820D01*
X0067740D02*
X0067490Y0003570D01*
X0067740Y0003620D02*
Y0003820D01*
X0067490Y0003870D02*
X0067740Y0003620D01*
X0067240D02*
X0067490Y0003870D01*
X0070190Y0003310D02*
Y0003110D01*
X0070440Y0003060D02*
X0070190Y0003310D01*
X0070690D02*
X0070440Y0003060D01*
X0070690Y0003110D02*
Y0003310D01*
X0070440Y0003360D02*
X0070690Y0003110D01*
X0070190D02*
X0070440Y0003360D01*
X0081170Y0001170D02*
Y0000970D01*
X0081420Y0000920D02*
X0081170Y0001170D01*
X0081670D02*
X0081420Y0000920D01*
X0081670Y0000970D02*
Y0001170D01*
X0081420Y0001220D02*
X0081670Y0000970D01*
X0081170D02*
X0081420Y0001220D01*
X0118560Y0006160D02*
Y0005960D01*
X0118810Y0005910D02*
X0118560Y0006160D01*
X0119060D02*
X0118810Y0005910D01*
X0119060Y0005960D02*
Y0006160D01*
X0118810Y0006210D02*
X0119060Y0005960D01*
X0118560D02*
X0118810Y0006210D01*
X0110610Y0000460D02*
Y0000260D01*
X0110860Y0000210D02*
X0110610Y0000460D01*
X0111110D02*
X0110860Y0000210D01*
X0111110Y0000260D02*
Y0000460D01*
X0110860Y0000510D02*
X0111110Y0000260D01*
X0110610D02*
X0110860Y0000510D01*
X0092460Y0000780D02*
Y0000580D01*
X0092710Y0000530D02*
X0092460Y0000780D01*
X0092960D02*
X0092710Y0000530D01*
X0092960Y0000580D02*
Y0000780D01*
X0092710Y0000830D02*
X0092960Y0000580D01*
X0092460D02*
X0092710Y0000830D01*
X0096190Y0002090D02*
Y0001890D01*
X0096440Y0001840D02*
X0096190Y0002090D01*
X0096690D02*
X0096440Y0001840D01*
X0096690Y0001890D02*
Y0002090D01*
X0096440Y0002140D02*
X0096690Y0001890D01*
X0096190D02*
X0096440Y0002140D01*
X0100080Y0001800D02*
Y0001600D01*
X0100330Y0001550D02*
X0100080Y0001800D01*
X0100580D02*
X0100330Y0001550D01*
X0100580Y0001600D02*
Y0001800D01*
X0100330Y0001850D02*
X0100580Y0001600D01*
X0100080D02*
X0100330Y0001850D01*
X0100110Y0000750D02*
Y0000550D01*
X0100360Y0000500D02*
X0100110Y0000750D01*
X0100610D02*
X0100360Y0000500D01*
X0100610Y0000550D02*
Y0000750D01*
X0100360Y0000800D02*
X0100610Y0000550D01*
X0100110D02*
X0100360Y0000800D01*
X0104570Y0000720D02*
Y0000520D01*
X0104820Y0000470D02*
X0104570Y0000720D01*
X0105070D02*
X0104820Y0000470D01*
X0105070Y0000520D02*
Y0000720D01*
X0104820Y0000770D02*
X0105070Y0000520D01*
X0104570D02*
X0104820Y0000770D01*
X0019039Y0006398D02*
Y0006198D01*
X0019289Y0006148D02*
X0019039Y0006398D01*
X0019539D02*
X0019289Y0006148D01*
X0019539Y0006198D02*
Y0006398D01*
X0019289Y0006448D02*
X0019539Y0006198D01*
X0019039D02*
X0019289Y0006448D01*
X0065939Y0009107D02*
X0065689Y0008857D01*
X0066189D02*
X0065939Y0009107D01*
Y0008607D02*
X0066189Y0008857D01*
X0065689D02*
X0065939Y0008607D01*
Y0008107D02*
X0065689Y0007857D01*
X0066189D02*
X0065939Y0008107D01*
Y0007607D02*
X0066189Y0007857D01*
X0065689D02*
X0065939Y0007607D01*
Y0007107D02*
X0065689Y0006857D01*
X0066189D02*
X0065939Y0007107D01*
Y0006607D02*
X0066189Y0006857D01*
X0065689D02*
X0065939Y0006607D01*
Y0006107D02*
X0065689Y0005857D01*
X0066189D02*
X0065939Y0006107D01*
Y0005607D02*
X0066189Y0005857D01*
X0065689D02*
X0065939Y0005607D01*
Y0005107D02*
X0065689Y0004857D01*
X0066189D02*
X0065939Y0005107D01*
Y0004607D02*
X0066189Y0004857D01*
X0065689D02*
X0065939Y0004607D01*
Y0004107D02*
X0065689Y0003857D01*
X0066189D02*
X0065939Y0004107D01*
Y0003607D02*
X0066189Y0003857D01*
X0065689D02*
X0065939Y0003607D01*
Y0003107D02*
X0065689Y0002857D01*
X0066189D02*
X0065939Y0003107D01*
Y0002607D02*
X0066189Y0002857D01*
X0065689D02*
X0065939Y0002607D01*
X0068939Y0003107D02*
X0068689Y0002857D01*
X0069189D02*
X0068939Y0003107D01*
Y0002607D02*
X0069189Y0002857D01*
X0068689D02*
X0068939Y0002607D01*
Y0004107D02*
X0068689Y0003857D01*
X0069189D02*
X0068939Y0004107D01*
Y0003607D02*
X0069189Y0003857D01*
X0068689D02*
X0068939Y0003607D01*
Y0005107D02*
X0068689Y0004857D01*
X0069189D02*
X0068939Y0005107D01*
Y0004607D02*
X0069189Y0004857D01*
X0068689D02*
X0068939Y0004607D01*
Y0006107D02*
X0068689Y0005857D01*
X0069189D02*
X0068939Y0006107D01*
Y0005607D02*
X0069189Y0005857D01*
X0068689D02*
X0068939Y0005607D01*
Y0007107D02*
X0068689Y0006857D01*
X0069189D02*
X0068939Y0007107D01*
Y0006607D02*
X0069189Y0006857D01*
X0068689D02*
X0068939Y0006607D01*
Y0008107D02*
X0068689Y0007857D01*
X0069189D02*
X0068939Y0008107D01*
Y0007607D02*
X0069189Y0007857D01*
X0068689D02*
X0068939Y0007607D01*
Y0009107D02*
X0068689Y0008857D01*
X0069189D02*
X0068939Y0009107D01*
Y0008607D02*
X0069189Y0008857D01*
X0068689D02*
X0068939Y0008607D01*
X0110608Y0005348D02*
Y0004848D01*
X0111108Y0005348D02*
X0110608D01*
X0111108Y0004848D02*
Y0005348D01*
X0110608Y0004848D02*
X0111108D01*
Y0005098D02*
X0110608D01*
X0110858Y0005348D02*
Y0004848D01*
X0110608Y0002348D02*
Y0001848D01*
X0111108Y0002348D02*
X0110608D01*
X0111108Y0001848D02*
Y0002348D01*
X0110608Y0001848D02*
X0111108D01*
Y0002098D02*
X0110608D01*
X0110858Y0002348D02*
Y0001848D01*
X0106608Y0005348D02*
Y0004848D01*
X0107108Y0005348D02*
X0106608D01*
X0107108Y0004848D02*
Y0005348D01*
X0106608Y0004848D02*
X0107108D01*
Y0005098D02*
X0106608D01*
X0106858Y0005348D02*
Y0004848D01*
X0106608Y0002348D02*
Y0001848D01*
X0107108Y0002348D02*
X0106608D01*
X0107108Y0001848D02*
Y0002348D01*
X0106608Y0001848D02*
X0107108D01*
Y0002098D02*
X0106608D01*
X0106858Y0002348D02*
Y0001848D01*
X0035029Y0010557D02*
Y0010057D01*
X0035529Y0010557D02*
X0035029D01*
X0035529Y0010057D02*
Y0010557D01*
X0035029Y0010057D02*
X0035529D01*
Y0010307D02*
X0035029D01*
X0035279Y0010557D02*
Y0010057D01*
X0035029Y0007557D02*
Y0007057D01*
X0035529Y0007557D02*
X0035029D01*
X0035529Y0007057D02*
Y0007557D01*
X0035029Y0007057D02*
X0035529D01*
Y0007307D02*
X0035029D01*
X0035279Y0007557D02*
Y0007057D01*
X0031029Y0010557D02*
Y0010057D01*
X0031529Y0010557D02*
X0031029D01*
X0031529Y0010057D02*
Y0010557D01*
X0031029Y0010057D02*
X0031529D01*
Y0010307D02*
X0031029D01*
X0031279Y0010557D02*
Y0010057D01*
X0031029Y0007557D02*
Y0007057D01*
X0031529Y0007557D02*
X0031029D01*
X0031529Y0007057D02*
Y0007557D01*
X0031029Y0007057D02*
X0031529D01*
Y0007307D02*
X0031029D01*
X0031279Y0007557D02*
Y0007057D01*
X0035029Y0005348D02*
Y0004848D01*
X0035529Y0005348D02*
X0035029D01*
X0035529Y0004848D02*
Y0005348D01*
X0035029Y0004848D02*
X0035529D01*
Y0005098D02*
X0035029D01*
X0035279Y0005348D02*
Y0004848D01*
X0035029Y0002348D02*
Y0001848D01*
X0035529Y0002348D02*
X0035029D01*
X0035529Y0001848D02*
Y0002348D01*
X0035029Y0001848D02*
X0035529D01*
Y0002098D02*
X0035029D01*
X0035279Y0002348D02*
Y0001848D01*
X0031029Y0005348D02*
Y0004848D01*
X0031529Y0005348D02*
X0031029D01*
X0031529Y0004848D02*
Y0005348D01*
X0031029Y0004848D02*
X0031529D01*
Y0005098D02*
X0031029D01*
X0031279Y0005348D02*
Y0004848D01*
X0031029Y0002348D02*
Y0001848D01*
X0031529Y0002348D02*
X0031029D01*
X0031529Y0001848D02*
Y0002348D01*
X0031029Y0001848D02*
X0031529D01*
Y0002098D02*
X0031029D01*
X0031279Y0002348D02*
Y0001848D01*
X0063466Y0005348D02*
Y0004848D01*
X0063966Y0005348D02*
X0063466D01*
X0063966Y0004848D02*
Y0005348D01*
X0063466Y0004848D02*
X0063966D01*
Y0005098D02*
X0063466D01*
X0063716Y0005348D02*
Y0004848D01*
X0063466Y0002348D02*
Y0001848D01*
X0063966Y0002348D02*
X0063466D01*
X0063966Y0001848D02*
Y0002348D01*
X0063466Y0001848D02*
X0063966D01*
Y0002098D02*
X0063466D01*
X0063716Y0002348D02*
Y0001848D01*
X0059466Y0005348D02*
Y0004848D01*
X0059966Y0005348D02*
X0059466D01*
X0059966Y0004848D02*
Y0005348D01*
X0059466Y0004848D02*
X0059966D01*
Y0005098D02*
X0059466D01*
X0059716Y0005348D02*
Y0004848D01*
X0059466Y0002348D02*
Y0001848D01*
X0059966Y0002348D02*
X0059466D01*
X0059966Y0001848D02*
Y0002348D01*
X0059466Y0001848D02*
X0059966D01*
Y0002098D02*
X0059466D01*
X0059716Y0002348D02*
Y0001848D01*
X0063466Y0010557D02*
Y0010057D01*
X0063966Y0010557D02*
X0063466D01*
X0063966Y0010057D02*
Y0010557D01*
X0063466Y0010057D02*
X0063966D01*
Y0010307D02*
X0063466D01*
X0063716Y0010557D02*
Y0010057D01*
X0063466Y0007557D02*
Y0007057D01*
X0063966Y0007557D02*
X0063466D01*
X0063966Y0007057D02*
Y0007557D01*
X0063466Y0007057D02*
X0063966D01*
Y0007307D02*
X0063466D01*
X0063716Y0007557D02*
Y0007057D01*
X0059466Y0010557D02*
Y0010057D01*
X0059966Y0010557D02*
X0059466D01*
X0059966Y0010057D02*
Y0010557D01*
X0059466Y0010057D02*
X0059966D01*
Y0010307D02*
X0059466D01*
X0059716Y0010557D02*
Y0010057D01*
X0059466Y0007557D02*
Y0007057D01*
X0059966Y0007557D02*
X0059466D01*
X0059966Y0007057D02*
Y0007557D01*
X0059466Y0007057D02*
X0059966D01*
Y0007307D02*
X0059466D01*
X0059716Y0007557D02*
Y0007057D01*
X0010639Y0005218D02*
Y0004718D01*
X0011139Y0005218D02*
X0010639D01*
X0011139Y0004718D02*
Y0005218D01*
X0010639Y0004718D02*
X0011139D01*
Y0004968D02*
X0010639D01*
X0010889Y0005218D02*
Y0004718D01*
X0010639Y0002218D02*
Y0001718D01*
X0011139Y0002218D02*
X0010639D01*
X0011139Y0001718D02*
Y0002218D01*
X0010639Y0001718D02*
X0011139D01*
Y0001968D02*
X0010639D01*
X0010889Y0002218D02*
Y0001718D01*
X0006639Y0005218D02*
Y0004718D01*
X0007139Y0005218D02*
X0006639D01*
X0007139Y0004718D02*
Y0005218D01*
X0006639Y0004718D02*
X0007139D01*
Y0004968D02*
X0006639D01*
X0006889Y0005218D02*
Y0004718D01*
X0006639Y0002218D02*
Y0001718D01*
X0007139Y0002218D02*
X0006639D01*
X0007139Y0001718D02*
Y0002218D01*
X0006639Y0001718D02*
X0007139D01*
Y0001968D02*
X0006639D01*
X0006889Y0002218D02*
Y0001718D01*
X0052240Y0007730D02*
Y0007230D01*
X0052740Y0007730D02*
X0052240D01*
X0052740Y0007230D02*
Y0007730D01*
X0052240Y0007230D02*
X0052740D01*
Y0007730D02*
X0052240Y0007230D01*
X0052740D02*
X0052240Y0007730D01*
Y0009730D02*
Y0009230D01*
X0052740Y0009730D02*
X0052240D01*
X0052740Y0009230D02*
Y0009730D01*
X0052240Y0009230D02*
X0052740D01*
Y0009730D02*
X0052240Y0009230D01*
X0052740D02*
X0052240Y0009730D01*
Y0012730D02*
Y0012230D01*
X0052740Y0012730D02*
X0052240D01*
X0052740Y0012230D02*
Y0012730D01*
X0052240Y0012230D02*
X0052740D01*
Y0012730D02*
X0052240Y0012230D01*
X0052740D02*
X0052240Y0012730D01*
X0049240Y0007730D02*
Y0007230D01*
X0049740Y0007730D02*
X0049240D01*
X0049740Y0007230D02*
Y0007730D01*
X0049240Y0007230D02*
X0049740D01*
Y0007730D02*
X0049240Y0007230D01*
X0049740D02*
X0049240Y0007730D01*
Y0009730D02*
Y0009230D01*
X0049740Y0009730D02*
X0049240D01*
X0049740Y0009230D02*
Y0009730D01*
X0049240Y0009230D02*
X0049740D01*
Y0009730D02*
X0049240Y0009230D01*
X0049740D02*
X0049240Y0009730D01*
Y0012730D02*
Y0012230D01*
X0049740Y0012730D02*
X0049240D01*
X0049740Y0012230D02*
Y0012730D01*
X0049240Y0012230D02*
X0049740D01*
Y0012730D02*
X0049240Y0012230D01*
X0049740D02*
X0049240Y0012730D01*
X0039707Y0007730D02*
Y0007230D01*
X0040207Y0007730D02*
X0039707D01*
X0040207Y0007230D02*
Y0007730D01*
X0039707Y0007230D02*
X0040207D01*
Y0007730D02*
X0039707Y0007230D01*
X0040207D02*
X0039707Y0007730D01*
Y0009730D02*
Y0009230D01*
X0040207Y0009730D02*
X0039707D01*
X0040207Y0009230D02*
Y0009730D01*
X0039707Y0009230D02*
X0040207D01*
Y0009730D02*
X0039707Y0009230D01*
X0040207D02*
X0039707Y0009730D01*
Y0012730D02*
Y0012230D01*
X0040207Y0012730D02*
X0039707D01*
X0040207Y0012230D02*
Y0012730D01*
X0039707Y0012230D02*
X0040207D01*
Y0012730D02*
X0039707Y0012230D01*
X0040207D02*
X0039707Y0012730D01*
X0036707Y0007730D02*
Y0007230D01*
X0037207Y0007730D02*
X0036707D01*
X0037207Y0007230D02*
Y0007730D01*
X0036707Y0007230D02*
X0037207D01*
Y0007730D02*
X0036707Y0007230D01*
X0037207D02*
X0036707Y0007730D01*
Y0009730D02*
Y0009230D01*
X0037207Y0009730D02*
X0036707D01*
X0037207Y0009230D02*
Y0009730D01*
X0036707Y0009230D02*
X0037207D01*
Y0009730D02*
X0036707Y0009230D01*
X0037207D02*
X0036707Y0009730D01*
Y0012730D02*
Y0012230D01*
X0037207Y0012730D02*
X0036707D01*
X0037207Y0012230D02*
Y0012730D01*
X0036707Y0012230D02*
X0037207D01*
Y0012730D02*
X0036707Y0012230D01*
X0037207D02*
X0036707Y0012730D01*
X0023320Y0009720D02*
X0022820Y0009220D01*
X0023320D02*
X0022820Y0009720D01*
X0023320Y0008720D02*
X0022820Y0008220D01*
X0023320D02*
X0022820Y0008720D01*
X0023320Y0007720D02*
X0022820Y0007220D01*
X0023320D02*
X0022820Y0007720D01*
X0053840Y0012040D02*
X0053340Y0011540D01*
X0053840D02*
X0053340Y0012040D01*
X0054840D02*
X0054340Y0011540D01*
X0054840D02*
X0054340Y0012040D01*
X0055840D02*
X0055340Y0011540D01*
X0055840D02*
X0055340Y0012040D01*
X0053840Y0007420D02*
X0053340Y0006920D01*
X0053840D02*
X0053340Y0007420D01*
X0054840D02*
X0054340Y0006920D01*
X0054840D02*
X0054340Y0007420D01*
X0055840D02*
X0055340Y0006920D01*
X0055840D02*
X0055340Y0007420D01*
X0041388Y0012060D02*
X0040888Y0011560D01*
X0041388D02*
X0040888Y0012060D01*
X0042388D02*
X0041888Y0011560D01*
X0042388D02*
X0041888Y0012060D01*
X0043388D02*
X0042888Y0011560D01*
X0043388D02*
X0042888Y0012060D01*
X0041388Y0007926D02*
X0040888Y0007426D01*
X0041388D02*
X0040888Y0007926D01*
X0042388D02*
X0041888Y0007426D01*
X0042388D02*
X0041888Y0007926D01*
X0043388D02*
X0042888Y0007426D01*
X0043388D02*
X0042888Y0007926D01*
X0097740Y0003740D02*
Y0003240D01*
X0098240Y0003740D02*
X0097740D01*
X0098240Y0003240D02*
Y0003740D01*
X0097740Y0003240D02*
X0098240D01*
Y0003740D02*
X0097740Y0003240D01*
X0098240D02*
X0097740Y0003740D01*
Y0009640D02*
Y0009140D01*
X0098240Y0009640D02*
X0097740D01*
X0098240Y0009140D02*
Y0009640D01*
X0097740Y0009140D02*
X0098240D01*
Y0009640D02*
X0097740Y0009140D01*
X0098240D02*
X0097740Y0009640D01*
X0089640Y0001440D02*
Y0000940D01*
X0090140Y0001440D02*
X0089640D01*
X0090140Y0000940D02*
Y0001440D01*
X0089640Y0000940D02*
X0090140D01*
Y0001440D02*
X0089640Y0000940D01*
X0090140D02*
X0089640Y0001440D01*
X0090640D02*
Y0000940D01*
X0091140Y0001440D02*
X0090640D01*
X0091140Y0000940D02*
Y0001440D01*
X0090640Y0000940D02*
X0091140D01*
Y0001440D02*
X0090640Y0000940D01*
X0091140D02*
X0090640Y0001440D01*
X0023173Y0011863D02*
Y0011613D01*
X0023423Y0011863D02*
X0023173D01*
X0023423Y0011363D02*
Y0011863D01*
X0023673Y0011363D02*
X0023423D01*
X0023673Y0011613D02*
Y0011363D01*
X0023173Y0011613D02*
X0023673D01*
X0024673Y0011863D02*
Y0011613D01*
X0024923Y0011863D02*
X0024673D01*
X0024923Y0011363D02*
Y0011863D01*
X0025173Y0011363D02*
X0024923D01*
X0025173Y0011613D02*
Y0011363D01*
X0024673Y0011613D02*
X0025173D01*
X0026173Y0011863D02*
Y0011613D01*
X0026423Y0011863D02*
X0026173D01*
X0026423Y0011363D02*
Y0011863D01*
X0026673Y0011363D02*
X0026423D01*
X0026673Y0011613D02*
Y0011363D01*
X0026173Y0011613D02*
X0026673D01*
X0027673Y0011863D02*
Y0011613D01*
X0027923Y0011863D02*
X0027673D01*
X0027923Y0011363D02*
Y0011863D01*
X0028173Y0011363D02*
X0027923D01*
X0028173Y0011613D02*
Y0011363D01*
X0027673Y0011613D02*
X0028173D01*
X0017791Y0004020D02*
Y0003770D01*
X0018041Y0004020D02*
X0017791D01*
X0018041Y0003520D02*
Y0004020D01*
X0018291Y0003520D02*
X0018041D01*
X0018291Y0003770D02*
Y0003520D01*
X0017791Y0003770D02*
X0018291D01*
X0018571Y0004830D02*
X0018071D01*
X0018321Y0005080D02*
Y0004580D01*
X0017571Y0005330D02*
X0017071D01*
X0017321Y0005580D02*
Y0005080D01*
X0018571Y0005830D02*
X0018071D01*
X0018321Y0006080D02*
Y0005580D01*
X0017571Y0006330D02*
X0017071D01*
X0017321Y0006580D02*
Y0006080D01*
X0018571Y0006830D02*
X0018071D01*
X0018321Y0007080D02*
Y0006580D01*
X0017571Y0004330D02*
X0017071D01*
X0017321Y0004580D02*
Y0004080D01*
X0017571Y0007330D02*
X0017071D01*
X0017321Y0007580D02*
Y0007080D01*
X0018571Y0007830D02*
X0018071D01*
X0018321Y0008080D02*
Y0007580D01*
X0017571Y0008330D02*
X0017071D01*
X0017321Y0008580D02*
Y0008080D01*
X0018571Y0008830D02*
X0018071D01*
X0018321Y0009080D02*
Y0008580D01*
X0108540Y0011740D02*
Y0011240D01*
X0109040Y0011740D02*
X0108540D01*
X0109040Y0011240D02*
Y0011740D01*
X0108540Y0011240D02*
X0109040D01*
Y0011490D02*
X0108540D01*
X0108790Y0011740D02*
Y0011240D01*
X0107540Y0011740D02*
Y0011240D01*
X0108040Y0011740D02*
X0107540D01*
X0108040Y0011240D02*
Y0011740D01*
X0107540Y0011240D02*
X0108040D01*
Y0011490D02*
X0107540D01*
X0107790Y0011740D02*
Y0011240D01*
X0108540Y0010740D02*
Y0010240D01*
X0109040Y0010740D02*
X0108540D01*
X0109040Y0010240D02*
Y0010740D01*
X0108540Y0010240D02*
X0109040D01*
Y0010490D02*
X0108540D01*
X0108790Y0010740D02*
Y0010240D01*
X0107540Y0007740D02*
Y0007240D01*
X0108040Y0007740D02*
X0107540D01*
X0108040Y0007240D02*
Y0007740D01*
X0107540Y0007240D02*
X0108040D01*
Y0007490D02*
X0107540D01*
X0107790Y0007740D02*
Y0007240D01*
X0108540Y0007740D02*
Y0007240D01*
X0109040Y0007740D02*
X0108540D01*
X0109040Y0007240D02*
Y0007740D01*
X0108540Y0007240D02*
X0109040D01*
Y0007490D02*
X0108540D01*
X0108790Y0007740D02*
Y0007240D01*
X0108540Y0008740D02*
Y0008240D01*
X0109040Y0008740D02*
X0108540D01*
X0109040Y0008240D02*
Y0008740D01*
X0108540Y0008240D02*
X0109040D01*
Y0008490D02*
X0108540D01*
X0108790Y0008740D02*
Y0008240D01*
X0107540Y0008740D02*
Y0008240D01*
X0108040Y0008740D02*
X0107540D01*
X0108040Y0008240D02*
Y0008740D01*
X0107540Y0008240D02*
X0108040D01*
Y0008490D02*
X0107540D01*
X0107790Y0008740D02*
Y0008240D01*
X0107540Y0009740D02*
Y0009240D01*
X0108040Y0009740D02*
X0107540D01*
X0108040Y0009240D02*
Y0009740D01*
X0107540Y0009240D02*
X0108040D01*
Y0009490D02*
X0107540D01*
X0107790Y0009740D02*
Y0009240D01*
X0108540Y0009740D02*
Y0009240D01*
X0109040Y0009740D02*
X0108540D01*
X0109040Y0009240D02*
Y0009740D01*
X0108540Y0009240D02*
X0109040D01*
Y0009490D02*
X0108540D01*
X0108790Y0009740D02*
Y0009240D01*
X0107540Y0010740D02*
Y0010240D01*
X0108040Y0010740D02*
X0107540D01*
X0108040Y0010240D02*
Y0010740D01*
X0107540Y0010240D02*
X0108040D01*
Y0010490D02*
X0107540D01*
X0107790Y0010740D02*
Y0010240D01*
X0121010Y0011911D02*
Y0011711D01*
X0121160Y0012061D02*
X0121010Y0011911D01*
X0121360Y0012061D02*
X0121160D01*
X0121510Y0011911D02*
X0121360Y0012061D01*
X0121510Y0011711D02*
Y0011911D01*
X0121360Y0011561D02*
X0121510Y0011711D01*
X0121160Y0011561D02*
X0121360D01*
X0121010Y0011711D02*
X0121160Y0011561D01*
X0121010Y0001478D02*
Y0001278D01*
X0121160Y0001628D02*
X0121010Y0001478D01*
X0121360Y0001628D02*
X0121160D01*
X0121510Y0001478D02*
X0121360Y0001628D01*
X0121510Y0001278D02*
Y0001478D01*
X0121360Y0001128D02*
X0121510Y0001278D01*
X0121160Y0001128D02*
X0121360D01*
X0121010Y0001278D02*
X0121160Y0001128D01*
X0084392Y0011911D02*
Y0011711D01*
X0084542Y0012061D02*
X0084392Y0011911D01*
X0084742Y0012061D02*
X0084542D01*
X0084892Y0011911D02*
X0084742Y0012061D01*
X0084892Y0011711D02*
Y0011911D01*
X0084742Y0011561D02*
X0084892Y0011711D01*
X0084542Y0011561D02*
X0084742D01*
X0084392Y0011711D02*
X0084542Y0011561D01*
X0084392Y0001478D02*
Y0001278D01*
X0084542Y0001628D02*
X0084392Y0001478D01*
X0084742Y0001628D02*
X0084542D01*
X0084892Y0001478D02*
X0084742Y0001628D01*
X0084892Y0001278D02*
Y0001478D01*
X0084742Y0001128D02*
X0084892Y0001278D01*
X0084542Y0001128D02*
X0084742D01*
X0084392Y0001278D02*
X0084542Y0001128D01*
X0046977Y0011911D02*
Y0011711D01*
X0047127Y0012061D02*
X0046977Y0011911D01*
X0047327Y0012061D02*
X0047127D01*
X0047477Y0011911D02*
X0047327Y0012061D01*
X0047477Y0011711D02*
Y0011911D01*
X0047327Y0011561D02*
X0047477Y0011711D01*
X0047127Y0011561D02*
X0047327D01*
X0046977Y0011711D02*
X0047127Y0011561D01*
X0046977Y0001478D02*
Y0001278D01*
X0047127Y0001628D02*
X0046977Y0001478D01*
X0047327Y0001628D02*
X0047127D01*
X0047477Y0001478D02*
X0047327Y0001628D01*
X0047477Y0001278D02*
Y0001478D01*
X0047327Y0001128D02*
X0047477Y0001278D01*
X0047127Y0001128D02*
X0047327D01*
X0046977Y0001278D02*
X0047127Y0001128D01*
X0001718Y0011911D02*
Y0011711D01*
X0001868Y0012061D02*
X0001718Y0011911D01*
X0002068Y0012061D02*
X0001868D01*
X0002218Y0011911D02*
X0002068Y0012061D01*
X0002218Y0011711D02*
Y0011911D01*
X0002068Y0011561D02*
X0002218Y0011711D01*
X0001868Y0011561D02*
X0002068D01*
X0001718Y0011711D02*
X0001868Y0011561D01*
X0001718Y0001478D02*
Y0001278D01*
X0001868Y0001628D02*
X0001718Y0001478D01*
X0002068Y0001628D02*
X0001868D01*
X0002218Y0001478D02*
X0002068Y0001628D01*
X0002218Y0001278D02*
Y0001478D01*
X0002068Y0001128D02*
X0002218Y0001278D01*
X0001868Y0001128D02*
X0002068D01*
X0001718Y0001278D02*
X0001868Y0001128D01*
X0118628Y0003598D02*
X0118128D01*
X0118378Y0003848D02*
Y0003348D01*
X0119628Y0003598D02*
X0119128D01*
X0119378Y0003848D02*
Y0003348D01*
X0014430Y0007480D02*
X0013930D01*
X0014180Y0007730D02*
Y0007230D01*
X0011430Y0007480D02*
X0010930D01*
X0011180Y0007730D02*
Y0007230D01*
X0011422Y0008661D02*
X0010922D01*
X0011172Y0008911D02*
Y0008411D01*
X0014422Y0008661D02*
X0013922D01*
X0014172Y0008911D02*
Y0008411D01*
X0090596Y0008661D02*
X0090096D01*
X0090346Y0008911D02*
Y0008411D01*
X0090596Y0011661D02*
X0090096D01*
X0090346Y0011911D02*
Y0011411D01*
X0091974Y0008661D02*
X0091474D01*
X0091724Y0008911D02*
Y0008411D01*
X0091974Y0011661D02*
X0091474D01*
X0091724Y0011911D02*
Y0011411D01*
X0090596Y0006299D02*
X0090096D01*
X0090346Y0006549D02*
Y0006049D01*
X0090596Y0003299D02*
X0090096D01*
X0090346Y0003549D02*
Y0003049D01*
X0091974Y0003346D02*
X0091474D01*
X0091724Y0003596D02*
Y0003096D01*
X0091974Y0006346D02*
X0091474D01*
X0091724Y0006596D02*
Y0006096D01*
X0026083Y0004724D02*
X0025583D01*
X0025833Y0004974D02*
Y0004474D01*
X0023083Y0004724D02*
X0022583D01*
X0022833Y0004974D02*
Y0004474D01*
X0023035Y0003543D02*
X0022535D01*
X0022785Y0003793D02*
Y0003293D01*
X0026035Y0003543D02*
X0025535D01*
X0025785Y0003793D02*
Y0003293D01*
X0026035Y0002165D02*
X0025535D01*
X0025785Y0002415D02*
Y0001915D01*
X0023035Y0002165D02*
X0022535D01*
X0022785Y0002415D02*
Y0001915D01*
X0023031Y0000981D02*
X0022531D01*
X0022781Y0001231D02*
Y0000731D01*
X0026031Y0000981D02*
X0025531D01*
X0025781Y0001231D02*
Y0000731D01*
X0011422Y0011810D02*
X0010922D01*
X0011172Y0012060D02*
Y0011560D01*
X0014422Y0011810D02*
X0013922D01*
X0014172Y0012060D02*
Y0011560D01*
X0014430Y0010629D02*
X0013930D01*
X0014180Y0010879D02*
Y0010379D01*
X0011430Y0010629D02*
X0010930D01*
X0011180Y0010879D02*
Y0010379D01*
X0118628Y0008807D02*
X0118128D01*
X0118378Y0009057D02*
Y0008557D01*
X0119628Y0008807D02*
X0119128D01*
X0119378Y0009057D02*
Y0008557D01*
X0052214Y0004724D02*
X0051714D01*
X0051964Y0004974D02*
Y0004474D01*
X0052214Y0001724D02*
X0051714D01*
X0051964Y0001974D02*
Y0001474D01*
X0053395Y0004724D02*
X0052895D01*
X0053145Y0004974D02*
Y0004474D01*
X0053395Y0001724D02*
X0052895D01*
X0053145Y0001974D02*
Y0001474D01*
X0040798Y0004724D02*
X0040298D01*
X0040548Y0004974D02*
Y0004474D01*
X0040798Y0001724D02*
X0040298D01*
X0040548Y0001974D02*
Y0001474D01*
X0041979Y0004724D02*
X0041479D01*
X0041729Y0004974D02*
Y0004474D01*
X0041979Y0001724D02*
X0041479D01*
X0041729Y0001974D02*
Y0001474D01*
X0103699Y0003598D02*
X0103199D01*
X0103449Y0003848D02*
Y0003348D01*
X0104699Y0003598D02*
X0104199D01*
X0104449Y0003848D02*
Y0003348D01*
X0071309Y0003598D02*
X0070809D01*
X0071059Y0003848D02*
Y0003348D01*
X0072309Y0003598D02*
X0071809D01*
X0072059Y0003848D02*
Y0003348D01*
X0071309Y0008807D02*
X0070809D01*
X0071059Y0009057D02*
Y0008557D01*
X0072309Y0008807D02*
X0071809D01*
X0072059Y0009057D02*
Y0008557D01*
X0028085Y0008807D02*
X0027585D01*
X0027835Y0009057D02*
Y0008557D01*
X0029085Y0008807D02*
X0028585D01*
X0028835Y0009057D02*
Y0008557D01*
X0028108Y0003598D02*
X0027608D01*
X0027858Y0003848D02*
Y0003348D01*
X0029108Y0003598D02*
X0028608D01*
X0028858Y0003848D02*
Y0003348D01*
X0056274Y0003598D02*
X0055774D01*
X0056024Y0003848D02*
Y0003348D01*
X0057274Y0003598D02*
X0056774D01*
X0057024Y0003848D02*
Y0003348D01*
X0056274Y0008799D02*
X0055774D01*
X0056024Y0009049D02*
Y0008549D01*
X0057274Y0008799D02*
X0056774D01*
X0057024Y0009049D02*
Y0008549D01*
X0081148Y0008807D02*
X0080648D01*
X0080898Y0009057D02*
Y0008557D01*
X0082148Y0008807D02*
X0081648D01*
X0081898Y0009057D02*
Y0008557D01*
X0081148Y0003598D02*
X0080648D01*
X0080898Y0003848D02*
Y0003348D01*
X0082148Y0003598D02*
X0081648D01*
X0081898Y0003848D02*
Y0003348D01*
G54D63*
G01X-0000197Y-0000197D02*
Y0013385D01*
X0123808D01*
Y-0000197D01*
X-0000197D01*
M02*
