*%FSLAX23Y23*%
*%MOIN*%
G01*
D14*
X9490Y6360D02*
X9600Y6250D01*
X10400Y6450D02*
X10550Y6600D01*
X9350Y6200D02*
X9200Y6350D01*
X9975Y7075D02*
X9765Y7285D01*
X10175Y7125D02*
X10295Y7245D01*
X10320Y7220D02*
X10200Y7100D01*
X10350Y6600D02*
X10225Y6475D01*
X10550Y6650D02*
X10700Y6800D01*
X9940Y8950D02*
X9750Y9150D01*
X9850Y9080D02*
X9975Y8955D01*
X9200Y6575D02*
X9375Y6400D01*
X9275Y5975D02*
X10725D01*
X10150Y6025D02*
X9975D01*
X9200Y6050D02*
Y6150D01*
X9145Y6405D02*
Y6850D01*
X9125Y6975D02*
Y7800D01*
X9150Y8250D02*
Y9550D01*
X9125Y9630D02*
Y7800D01*
X9200Y6800D02*
Y6575D01*
Y6050D02*
X9275Y5975D01*
X9200Y6350D02*
X9145Y6405D01*
X9200Y6900D02*
X9125Y6975D01*
Y9630D02*
X9150Y9650D01*
X9200Y9600D02*
X9150Y9550D01*
X9275Y6875D02*
X9200Y6800D01*
X9350Y6200D02*
X10225D01*
X9325Y8050D02*
Y9000D01*
Y8050D02*
Y7200D01*
Y7050D01*
X9385Y7650D02*
Y9365D01*
X9325Y7000D02*
Y6680D01*
Y6600D02*
Y6505D01*
X9385Y6515D02*
Y7650D01*
X9285Y8200D02*
Y8450D01*
Y9315D01*
X9275Y7975D02*
Y7125D01*
Y7000D02*
Y6875D01*
X9285Y9315D02*
X9250Y9350D01*
X9275Y7125D02*
X9250Y7100D01*
X9275Y7975D02*
X9250Y8000D01*
X9325Y6505D02*
X9380Y6450D01*
X9385Y9365D02*
X9300Y9450D01*
X9325Y7050D02*
X9275Y7000D01*
X9425Y8100D02*
Y9900D01*
Y8100D02*
Y7725D01*
Y6550D01*
X9550Y6830D02*
Y9075D01*
X9500Y7450D02*
Y6830D01*
Y7450D02*
Y9250D01*
X9465Y9800D02*
Y8000D01*
X9490Y6450D02*
Y6360D01*
Y6450D02*
Y6770D01*
X9550Y6830D01*
X9500D02*
X9485Y6815D01*
X10300Y6450D02*
X10400D01*
X9490D02*
X9380D01*
X9625Y6600D02*
X9800D01*
X9750Y6150D02*
Y5975D01*
X9700Y7400D02*
Y7650D01*
Y8700D01*
Y9100D02*
Y9850D01*
X9750Y9050D02*
Y9015D01*
X9665Y7900D02*
Y7125D01*
X9675Y6025D02*
Y5975D01*
X9650Y8750D02*
Y8915D01*
X9665Y8640D02*
Y7900D01*
X9695Y6750D02*
X9625Y6680D01*
X9800Y6600D02*
X9850Y6650D01*
X9700Y9850D02*
X9750Y9900D01*
X9800Y9350D02*
X9850Y9300D01*
X9700Y9100D02*
X9750Y9050D01*
Y9015D02*
X9650Y8915D01*
Y8750D02*
X9700Y8700D01*
X9695Y6750D02*
X9800D01*
X9900D02*
Y6300D01*
X9940Y7210D02*
Y8950D01*
X9975Y7550D02*
Y7500D01*
Y7550D02*
Y8955D01*
X9950Y7050D02*
Y6925D01*
X9850Y9080D02*
Y9300D01*
X9940Y7210D02*
X10025Y7125D01*
X9975Y7075D02*
X9950Y7050D01*
Y6925D02*
X10000Y6875D01*
Y6990D02*
X10025Y7025D01*
X10350Y6925D02*
X10750D01*
X10025Y6990D02*
X10000D01*
X10025Y7025D02*
Y7125D01*
X10015Y8200D02*
Y8940D01*
X10150Y7480D02*
Y7450D01*
Y6975D02*
Y6850D01*
X10100Y6875D02*
Y6915D01*
X10125Y7025D02*
Y7250D01*
X10200Y6800D02*
Y6750D01*
X10175Y7000D02*
Y7125D01*
X10200Y7100D02*
Y6875D01*
Y9075D02*
Y9650D01*
X10100Y9200D02*
Y9075D01*
X10075Y7200D02*
Y7075D01*
X10050Y8155D02*
Y8350D01*
X10025Y6990D02*
X10100Y6915D01*
X10015Y8940D02*
X10075Y9000D01*
X10200Y9075D02*
X10240Y9035D01*
Y7570D02*
X10150Y7480D01*
X10225Y6100D02*
X10150Y6025D01*
Y6975D02*
X10175Y7000D01*
X10125Y7250D02*
X10150Y7275D01*
Y6850D02*
X10200Y6800D01*
Y9650D02*
X10150Y9700D01*
X10100Y9075D02*
X10175Y9000D01*
X10100Y9200D02*
X10150Y9250D01*
X9250Y7100D02*
X9200D01*
X10225Y6475D02*
Y6100D01*
X10300Y6150D02*
Y5975D01*
X10355Y7055D02*
Y7470D01*
X10295Y7245D02*
Y8200D01*
X10330Y8155D02*
Y8245D01*
X10320Y8145D02*
Y7220D01*
X10350Y6650D02*
Y6600D01*
X10400Y6750D02*
Y6875D01*
Y6750D02*
Y6575D01*
X10240Y7570D02*
Y9035D01*
X10250Y7050D02*
Y6650D01*
X10275Y8300D02*
Y8900D01*
X10355Y7055D02*
X10300Y6990D01*
X10320Y8145D02*
X10330Y8155D01*
X10350Y6925D02*
X10300Y6875D01*
X10400Y6575D02*
X10375Y6550D01*
X10330Y8245D02*
X10275Y8300D01*
Y7075D02*
X10250Y7050D01*
X10240Y7275D02*
X10150D01*
X9940Y7350D02*
X9750D01*
X9160Y7285D02*
X9125D01*
X10550Y6650D02*
Y6600D01*
X10500Y6850D02*
Y6875D01*
X10450Y6800D02*
Y6650D01*
X10500Y6750D02*
X10600Y6850D01*
X10500D02*
X10450Y6800D01*
X9275Y7550D02*
X9200D01*
X10600Y6875D02*
Y6850D01*
X10750Y6925D02*
Y6000D01*
X10700Y6800D02*
Y6875D01*
X10750Y6000D02*
X10725Y5975D01*
X9750Y7650D02*
X9700D01*
X10800Y6875D02*
Y6300D01*
X9940Y7800D02*
X9750D01*
X9200D02*
X9125D01*
X9550Y7900D02*
X9600D01*
X9250Y8000D02*
X9200D01*
Y8250D02*
X9150D01*
X9750D02*
X9940D01*
X9285Y8450D02*
X9200D01*
Y8700D02*
X9150D01*
X9200Y8900D02*
X9285D01*
X9250Y8950D02*
X9150D01*
Y9150D02*
X9200D01*
Y9350D02*
X9250D01*
X9500Y9250D02*
X9600D01*
X9750Y9350D02*
X9800D01*
X9300Y9450D02*
X9200D01*
Y9900D02*
X9425D01*
X9100Y10050D02*
X10900D01*
Y5950D02*
X9100D01*
Y10050D01*
X10900D02*
Y5950D01*
D16*
X10800Y6300D02*
D03*
X10295Y8200D02*
D03*
X10240Y8300D02*
D03*
X10275Y8900D02*
D03*
X10355Y7470D02*
D03*
X10375Y6550D02*
D03*
X10100Y9075D02*
D03*
X10050Y8350D02*
D03*
X10015Y8200D02*
D03*
X10125Y7025D02*
D03*
X10075Y7075D02*
D03*
X10050Y8155D02*
D03*
X9975Y8450D02*
D03*
Y7500D02*
D03*
Y7550D02*
D03*
Y8000D02*
D03*
X9900Y6300D02*
D03*
X9700Y8500D02*
D03*
X9665Y8640D02*
D03*
X9765Y7285D02*
D03*
X9700Y7400D02*
D03*
X9665Y7125D02*
D03*
Y7900D02*
D03*
X9465Y9800D02*
D03*
X9550Y9075D02*
D03*
X9425Y9525D02*
D03*
X9500Y7250D02*
D03*
Y7450D02*
D03*
Y8155D02*
D03*
X9465Y8000D02*
D03*
X9485Y6815D02*
D03*
X9425Y8100D02*
D03*
Y6550D02*
D03*
X9385Y8600D02*
D03*
X9325Y9000D02*
D03*
X9285Y8200D02*
D03*
X9250Y8950D02*
D03*
X9325Y7000D02*
D03*
X9385Y7650D02*
D03*
X9325Y7200D02*
D03*
Y8050D02*
D03*
X9385Y6515D02*
D03*
X9375Y6400D02*
D03*
X9150Y9650D02*
D03*
X9160Y7285D02*
D03*
X9145Y6850D02*
D03*
D19*
X10075Y9000D02*
D03*
X10175D02*
D03*
X9685Y9025D02*
D03*
X9985D02*
D03*
X10075Y7200D02*
D03*
X10175D02*
D03*
X9975Y7075D02*
D03*
X10275D02*
D03*
X10000Y6990D02*
D03*
X10300D02*
D03*
X9900Y6875D02*
D03*
X10000D02*
D03*
X10100D02*
D03*
X10200D02*
D03*
X10300D02*
D03*
X10400D02*
D03*
X10500D02*
D03*
X10600D02*
D03*
X10700D02*
D03*
X10242Y7275D02*
D03*
Y7575D02*
D03*
X9675Y6025D02*
D03*
X9975D02*
D03*
X10300Y6450D02*
D03*
Y6350D02*
D03*
Y6150D02*
D03*
X10700D02*
D03*
Y6250D02*
D03*
Y6450D02*
D03*
X9750Y9900D02*
D03*
Y9800D02*
D03*
Y9600D02*
D03*
X10150D02*
D03*
Y9700D02*
D03*
Y9900D02*
D03*
X9200D02*
D03*
Y9800D02*
D03*
Y9600D02*
D03*
X9600D02*
D03*
Y9700D02*
D03*
Y9900D02*
D03*
X9200Y9450D02*
D03*
Y9350D02*
D03*
Y9150D02*
D03*
X9600D02*
D03*
Y9250D02*
D03*
Y9450D02*
D03*
X9750D02*
D03*
Y9350D02*
D03*
Y9150D02*
D03*
X10150D02*
D03*
Y9250D02*
D03*
Y9450D02*
D03*
X9200Y9000D02*
D03*
Y8900D02*
D03*
Y8700D02*
D03*
X9600D02*
D03*
Y8800D02*
D03*
Y9000D02*
D03*
X9200Y8550D02*
D03*
Y8450D02*
D03*
Y8250D02*
D03*
X9600D02*
D03*
Y8350D02*
D03*
Y8550D02*
D03*
X9750D02*
D03*
Y8450D02*
D03*
Y8250D02*
D03*
X10150D02*
D03*
Y8350D02*
D03*
Y8550D02*
D03*
X10550Y6650D02*
D03*
X10450D02*
D03*
X10350D02*
D03*
X10250D02*
D03*
X10150D02*
D03*
X10050D02*
D03*
X9950D02*
D03*
X9850D02*
D03*
X10500Y6750D02*
D03*
X10400D02*
D03*
X10300D02*
D03*
X10200D02*
D03*
X10100D02*
D03*
X10000D02*
D03*
X9900D02*
D03*
X9800D02*
D03*
X9625Y6682D02*
D03*
X9325D02*
D03*
X9550Y6752D02*
D03*
X9250D02*
D03*
X9200Y8100D02*
D03*
Y8000D02*
D03*
Y7800D02*
D03*
X9600D02*
D03*
Y7900D02*
D03*
Y8100D02*
D03*
X9750D02*
D03*
Y8000D02*
D03*
Y7800D02*
D03*
X10150D02*
D03*
Y7900D02*
D03*
Y8100D02*
D03*
X9200Y7650D02*
D03*
Y7550D02*
D03*
Y7350D02*
D03*
X9600D02*
D03*
Y7450D02*
D03*
Y7650D02*
D03*
X9750D02*
D03*
Y7550D02*
D03*
Y7350D02*
D03*
X10150D02*
D03*
Y7450D02*
D03*
Y7650D02*
D03*
X9200Y7200D02*
D03*
Y7100D02*
D03*
Y6900D02*
D03*
X9600D02*
D03*
Y7000D02*
D03*
Y7200D02*
D03*
X9625Y6602D02*
D03*
X9325D02*
D03*
X9200Y6450D02*
D03*
Y6350D02*
D03*
Y6150D02*
D03*
X9600D02*
D03*
Y6250D02*
D03*
Y6450D02*
D03*
X9750D02*
D03*
Y6350D02*
D03*
Y6150D02*
D03*
X10150D02*
D03*
Y6250D02*
D03*
Y6450D02*
D03*
D21*
X9750Y6675D02*
D03*
D24*
X9800Y8850D02*
D03*
Y7050D02*
D03*
D26*
X10500Y9750D02*
D03*
Y8850D02*
D03*
Y7050D02*
D03*
Y7950D02*
D03*
D30*
Y8400D02*
D03*
Y9300D02*
D03*
X10496Y7496D02*
D03*
D33*
X10800Y6875D02*
D03*
M02*
