*%FSLAX23Y23*%
*%MOIN*%
G01*
D11*
X4162Y5737D02*
X15879D01*
Y8532D02*
X4162D01*
Y5737D01*
X15879D02*
Y8532D01*
D32*
X13383Y7050D02*
D03*
X13343D02*
D03*
Y7125D02*
D03*
X13304D02*
D03*
D66*
X13058Y6028D02*
D03*
D104*
X15016Y8433D02*
D03*
X14946D02*
D03*
X15016Y7015D02*
D03*
X14946D02*
D03*
Y7723D02*
D03*
X15016D02*
D03*
X14861Y7438D02*
D03*
X14931D02*
D03*
Y8148D02*
D03*
X14861D02*
D03*
X15016Y6306D02*
D03*
X14946D02*
D03*
X14931Y6021D02*
D03*
X14861D02*
D03*
X14931Y6730D02*
D03*
X14861D02*
D03*
X13265Y7332D02*
D03*
X13335D02*
D03*
X13529Y7947D02*
D03*
X13599D02*
D03*
X13880Y8209D02*
D03*
X13950D02*
D03*
X14541Y7473D02*
D03*
X14611D02*
D03*
X14421Y7438D02*
D03*
X14491D02*
D03*
X14541Y7403D02*
D03*
X14611D02*
D03*
Y8113D02*
D03*
X14541D02*
D03*
X14491Y8148D02*
D03*
X14421D02*
D03*
X14611Y8183D02*
D03*
X14541D02*
D03*
X13221Y7416D02*
D03*
X13151D02*
D03*
X13178Y7121D02*
D03*
X13108D02*
D03*
X13178Y7199D02*
D03*
X13108D02*
D03*
X13103Y6904D02*
D03*
X13033D02*
D03*
X13529Y7877D02*
D03*
X13599D02*
D03*
X13529Y8097D02*
D03*
X13599D02*
D03*
X13529Y8026D02*
D03*
X13599D02*
D03*
X13529Y8168D02*
D03*
X13599D02*
D03*
X13529Y8239D02*
D03*
X13599D02*
D03*
X13529Y8306D02*
D03*
X13599D02*
D03*
X13529Y8373D02*
D03*
X13599D02*
D03*
X13862Y5987D02*
D03*
X13932D02*
D03*
X14491Y6730D02*
D03*
X14421D02*
D03*
X14611Y6056D02*
D03*
X14541D02*
D03*
X14491Y6021D02*
D03*
X14421D02*
D03*
X14611Y5986D02*
D03*
X14541D02*
D03*
X14611Y6765D02*
D03*
X14541D02*
D03*
X14611Y6695D02*
D03*
X14541D02*
D03*
X13253Y6810D02*
D03*
X13183D02*
D03*
X13592Y6286D02*
D03*
X13662D02*
D03*
X13592Y6215D02*
D03*
X13662D02*
D03*
X13592Y6136D02*
D03*
X13662D02*
D03*
X13592Y6066D02*
D03*
X13662D02*
D03*
X13592Y5995D02*
D03*
X13662D02*
D03*
X13592Y5924D02*
D03*
X13662D02*
D03*
X13592Y5857D02*
D03*
X13662D02*
D03*
X13592Y5790D02*
D03*
X13662D02*
D03*
X12443Y8101D02*
D03*
X12513D02*
D03*
X12595Y7851D02*
D03*
X12532D02*
D03*
X12595Y7914D02*
D03*
X12532D02*
D03*
X12741Y7851D02*
D03*
X12671D02*
D03*
X12741Y7914D02*
D03*
X12671D02*
D03*
X12332Y7719D02*
D03*
X12262D02*
D03*
X12946Y6904D02*
D03*
X12876D02*
D03*
X12871Y7121D02*
D03*
X12801D02*
D03*
X12871Y7199D02*
D03*
X12801D02*
D03*
X12065Y7396D02*
D03*
X12135D02*
D03*
X12104Y7333D02*
D03*
X12174D02*
D03*
X13021Y6810D02*
D03*
X12951D02*
D03*
X12828D02*
D03*
X12758D02*
D03*
X10033Y6197D02*
D03*
X9963D02*
D03*
Y6137D02*
D03*
X10033D02*
D03*
Y6077D02*
D03*
X9963D02*
D03*
Y6257D02*
D03*
X10033D02*
D03*
X9863Y6164D02*
D03*
X9793D02*
D03*
X6073Y5812D02*
D03*
X6143D02*
D03*
X6073Y5890D02*
D03*
X6143D02*
D03*
D112*
X14686Y7378D02*
D03*
Y7308D02*
D03*
Y8018D02*
D03*
Y8088D02*
D03*
Y5891D02*
D03*
Y5961D02*
D03*
Y6600D02*
D03*
Y6670D02*
D03*
X13320Y6908D02*
D03*
Y6838D02*
D03*
X13599Y7727D02*
D03*
Y7797D02*
D03*
X13064Y7314D02*
D03*
Y7244D02*
D03*
X12694Y7318D02*
D03*
Y7248D02*
D03*
X12914Y7314D02*
D03*
Y7244D02*
D03*
X12694Y7126D02*
D03*
Y7196D02*
D03*
X12729Y8394D02*
D03*
Y8464D02*
D03*
X12793Y8394D02*
D03*
Y8464D02*
D03*
X12676Y6841D02*
D03*
Y6911D02*
D03*
X12737Y6058D02*
D03*
Y5988D02*
D03*
X6303Y6647D02*
D03*
Y6717D02*
D03*
D120*
X9800Y6236D02*
D03*
X9890D02*
D03*
D130*
X10162Y6215D02*
D03*
Y6125D02*
D03*
X10241D02*
D03*
Y6215D02*
D03*
X10320D02*
D03*
Y6125D02*
D03*
X10399D02*
D03*
Y6215D02*
D03*
D146*
X15628Y7646D02*
X15817D01*
Y7332D02*
X15628D01*
Y8041D02*
X15817D01*
Y8355D02*
X15628D01*
Y6623D02*
X15817D01*
Y6937D02*
X15628D01*
Y5914D02*
X15817D01*
Y6228D02*
X15628D01*
D02*
M02*
