*%FSLAX23Y23*%
*%MOIN*%
G01*
D11*
X6451Y6941D02*
Y7051D01*
X6341D02*
Y6941D01*
X6651D02*
Y7051D01*
Y6941D02*
X6341D01*
Y7051D02*
X6651D01*
X6354Y6653D02*
X6353Y6638D01*
X6351Y6623D01*
X6347Y6608D01*
X6342Y6594D01*
X6336Y6580D01*
X6328Y6567D01*
X6320Y6554D01*
X6310Y6543D01*
X6299Y6532D01*
X6287Y6523D01*
X6274Y6515D01*
X6260Y6508D01*
X6246Y6502D01*
X6232Y6498D01*
X6217Y6495D01*
X6201Y6494D01*
X6186D01*
X6171Y6495D01*
X6156Y6498D01*
X6142Y6502D01*
X6127Y6508D01*
X6114Y6515D01*
X6101Y6523D01*
X6089Y6532D01*
X6078Y6543D01*
X6068Y6554D01*
X6059Y6567D01*
X6052Y6580D01*
X6045Y6594D01*
X6040Y6608D01*
X6037Y6623D01*
X6035Y6638D01*
X6034Y6653D01*
X6035Y6669D01*
X6037Y6684D01*
X6040Y6698D01*
X6045Y6713D01*
X6052Y6727D01*
X6059Y6740D01*
X6068Y6752D01*
X6078Y6764D01*
X6089Y6774D01*
X6101Y6784D01*
X6114Y6792D01*
X6127Y6799D01*
X6142Y6805D01*
X6156Y6809D01*
X6171Y6812D01*
X6186Y6813D01*
X6201D01*
X6217Y6812D01*
X6232Y6809D01*
X6246Y6805D01*
X6260Y6799D01*
X6274Y6792D01*
X6287Y6784D01*
X6299Y6774D01*
X6310Y6764D01*
X6320Y6752D01*
X6328Y6740D01*
X6336Y6727D01*
X6342Y6713D01*
X6347Y6698D01*
X6351Y6684D01*
X6353Y6669D01*
X6354Y6653D01*
X6353Y6638D01*
X6351Y6623D01*
X6347Y6608D01*
X6342Y6594D01*
X6336Y6580D01*
X6328Y6567D01*
X6320Y6554D01*
X6310Y6543D01*
X6299Y6532D01*
X6287Y6523D01*
X6274Y6515D01*
X6260Y6508D01*
X6246Y6502D01*
X6232Y6498D01*
X6217Y6495D01*
X6201Y6494D01*
X6186D01*
X6171Y6495D01*
X6156Y6498D01*
X6142Y6502D01*
X6127Y6508D01*
X6114Y6515D01*
X6101Y6523D01*
X6089Y6532D01*
X6078Y6543D01*
X6068Y6554D01*
X6059Y6567D01*
X6052Y6580D01*
X6045Y6594D01*
X6040Y6608D01*
X6037Y6623D01*
X6035Y6638D01*
X6034Y6653D01*
X6035Y6669D01*
X6037Y6684D01*
X6040Y6698D01*
X6045Y6713D01*
X6052Y6727D01*
X6059Y6740D01*
X6068Y6752D01*
X6078Y6764D01*
X6089Y6774D01*
X6101Y6784D01*
X6114Y6792D01*
X6127Y6799D01*
X6142Y6805D01*
X6156Y6809D01*
X6171Y6812D01*
X6186Y6813D01*
X6201D01*
X6217Y6812D01*
X6232Y6809D01*
X6246Y6805D01*
X6260Y6799D01*
X6274Y6792D01*
X6287Y6784D01*
X6299Y6774D01*
X6310Y6764D01*
X6320Y6752D01*
X6328Y6740D01*
X6336Y6727D01*
X6342Y6713D01*
X6347Y6698D01*
X6351Y6684D01*
X6353Y6669D01*
X6354Y6653D01*
X6194Y6763D02*
Y6813D01*
X6169Y6788D02*
X6219D01*
X4162Y5737D02*
X15879D01*
Y8532D02*
X4162D01*
Y5737D01*
X15879D02*
Y8532D01*
D12*
X15008Y8403D02*
X15001D01*
X15004D02*
X15008D01*
X15004D02*
Y8383D01*
X15001D01*
X15008D01*
X15028Y8403D02*
X15031Y8400D01*
X15028Y8403D02*
X15021D01*
X15018Y8400D01*
Y8386D01*
X15021Y8383D01*
X15028D01*
X15031Y8386D01*
X15048Y8383D02*
Y8403D01*
X15038Y8393D01*
X15051D01*
X15251Y8408D02*
Y8428D01*
X15261D01*
X15264Y8425D01*
Y8418D01*
X15261Y8415D01*
X15251D01*
X15258D02*
X15264Y8408D01*
X15271D02*
X15284D01*
X15271D02*
X15284Y8421D01*
Y8425D01*
X15281Y8428D01*
X15274D01*
X15271Y8425D01*
X15291D02*
X15294Y8428D01*
X15301D01*
X15304Y8425D01*
Y8411D01*
X15301Y8408D01*
X15294D01*
X15291Y8411D01*
Y8425D01*
X15134D02*
X15131Y8428D01*
X15124D01*
X15121Y8425D01*
Y8411D01*
X15124Y8408D01*
X15131D01*
X15134Y8411D01*
X15141Y8408D02*
X15154D01*
X15141D02*
X15154Y8421D01*
Y8425D01*
X15151Y8428D01*
X15144D01*
X15141Y8425D01*
X15171Y8428D02*
Y8408D01*
X15161Y8418D02*
X15171Y8428D01*
X15174Y8418D02*
X15161D01*
X14476Y6855D02*
X14479Y6852D01*
X14476Y6855D02*
X14469D01*
X14466Y6852D01*
Y6838D01*
X14469Y6835D01*
X14476D01*
X14479Y6838D01*
X14486Y6855D02*
X14499D01*
X14486D02*
Y6845D01*
X14493Y6848D01*
X14496D01*
X14499Y6845D01*
Y6838D01*
X14496Y6835D01*
X14489D01*
X14486Y6838D01*
X14506Y6852D02*
X14509Y6855D01*
X14516D01*
X14519Y6852D01*
Y6848D01*
X14516Y6845D01*
X14519Y6842D01*
Y6838D01*
X14516Y6835D01*
X14509D01*
X14506Y6838D01*
Y6842D01*
X14509Y6845D01*
X14506Y6848D01*
Y6852D01*
X14509Y6845D02*
X14516D01*
X15131Y7010D02*
X15134Y7007D01*
X15131Y7010D02*
X15124D01*
X15121Y7007D01*
Y6993D01*
X15124Y6990D01*
X15131D01*
X15134Y6993D01*
X15141Y7010D02*
X15154D01*
X15141D02*
Y7000D01*
X15148Y7003D01*
X15151D01*
X15154Y7000D01*
Y6993D01*
X15151Y6990D01*
X15144D01*
X15141Y6993D01*
X15161Y7007D02*
X15164Y7010D01*
X15171D01*
X15174Y7007D01*
Y7003D01*
X15175D01*
X15174D02*
X15175D01*
X15174D02*
X15175D01*
X15174D02*
X15171Y7000D01*
X15168D01*
X15171D01*
X15174Y6997D01*
Y6993D01*
X15171Y6990D01*
X15164D01*
X15161Y6993D01*
X15251Y6990D02*
Y7010D01*
X15261D01*
X15264Y7007D01*
Y7000D01*
X15261Y6997D01*
X15251D01*
X15258D02*
X15264Y6990D01*
X15278Y7007D02*
X15284Y7010D01*
X15278Y7007D02*
X15271Y7000D01*
Y6993D01*
X15274Y6990D01*
X15281D01*
X15284Y6993D01*
Y6997D01*
X15281Y7000D01*
X15271D01*
X15291Y6990D02*
X15298D01*
X15294D01*
Y7010D01*
X15295D01*
X15294D02*
X15291Y7007D01*
X15008Y6985D02*
X15001D01*
X15004D02*
X15008D01*
X15004D02*
Y6965D01*
X15001D01*
X15008D01*
X15028Y6985D02*
X15031Y6982D01*
X15028Y6985D02*
X15021D01*
X15018Y6982D01*
Y6968D01*
X15021Y6965D01*
X15028D01*
X15031Y6968D01*
X15038Y6965D02*
X15051D01*
X15038D02*
X15051Y6978D01*
Y6982D01*
X15048Y6985D01*
X15041D01*
X15038Y6982D01*
X15058D02*
X15061Y6985D01*
X15068D01*
X15071Y6982D01*
Y6968D01*
X15068Y6965D01*
X15061D01*
X15058Y6968D01*
Y6982D01*
X14831Y6830D02*
X14811D01*
Y6840D01*
X14814Y6843D01*
X14821D01*
X14824Y6840D01*
Y6830D01*
Y6837D02*
X14831Y6843D01*
Y6850D02*
Y6863D01*
Y6850D02*
X14818Y6863D01*
X14814D01*
X14811Y6860D01*
Y6853D01*
X14814Y6850D01*
X14811Y6870D02*
Y6883D01*
X14814D01*
X14828Y6870D01*
X14831D01*
X15041Y6930D02*
X15044Y6927D01*
X15041Y6930D02*
X15034D01*
X15031Y6927D01*
Y6913D01*
X15034Y6910D01*
X15041D01*
X15044Y6913D01*
X15061Y6910D02*
Y6930D01*
X15051Y6920D01*
X15064D01*
X15081Y6930D02*
Y6910D01*
X15071Y6920D02*
X15081Y6930D01*
X15084Y6920D02*
X15071D01*
X15216Y6925D02*
Y6905D01*
Y6925D02*
X15226D01*
X15229Y6922D01*
Y6915D01*
X15226Y6912D01*
X15216D01*
X15223D02*
X15229Y6905D01*
X15236D02*
X15249D01*
X15236D02*
X15249Y6918D01*
Y6922D01*
X15246Y6925D01*
X15239D01*
X15236Y6922D01*
X15266Y6925D02*
Y6905D01*
X15256Y6915D02*
X15266Y6925D01*
X15269Y6915D02*
X15256D01*
X14831Y6915D02*
X14811D01*
X14831D02*
Y6928D01*
Y6935D02*
Y6942D01*
Y6938D01*
X14811D01*
X14812D01*
X14811D02*
X14814Y6935D01*
Y6952D02*
X14811Y6955D01*
Y6962D01*
X14814Y6965D01*
X14818D01*
X14819D01*
X14818D02*
X14819D01*
X14818D02*
X14819D01*
X14818D02*
X14821Y6962D01*
Y6958D01*
Y6962D01*
X14824Y6965D01*
X14828D01*
X14831Y6962D01*
Y6955D01*
X14828Y6952D01*
X14540Y7563D02*
X14537Y7566D01*
X14530D01*
X14527Y7563D01*
Y7549D01*
X14530Y7546D01*
X14537D01*
X14540Y7549D01*
X14547Y7546D02*
X14560D01*
X14547D02*
X14560Y7559D01*
Y7563D01*
X14557Y7566D01*
X14550D01*
X14547Y7563D01*
X14567Y7566D02*
X14580D01*
Y7563D01*
X14567Y7549D01*
Y7546D01*
X15131Y7718D02*
X15134Y7715D01*
X15131Y7718D02*
X15124D01*
X15121Y7715D01*
Y7701D01*
X15124Y7698D01*
X15131D01*
X15134Y7701D01*
X15141Y7698D02*
X15154D01*
X15141D02*
X15154Y7711D01*
Y7715D01*
X15151Y7718D01*
X15144D01*
X15141Y7715D01*
X15168D02*
X15174Y7718D01*
X15168Y7715D02*
X15161Y7708D01*
Y7701D01*
X15164Y7698D01*
X15171D01*
X15174Y7701D01*
Y7705D01*
X15171Y7708D01*
X15161D01*
X15251Y7718D02*
Y7698D01*
Y7718D02*
X15261D01*
X15264Y7715D01*
Y7708D01*
X15261Y7705D01*
X15251D01*
X15258D02*
X15264Y7698D01*
X15271D02*
X15284D01*
X15271D02*
X15284Y7711D01*
Y7715D01*
X15281Y7718D01*
X15274D01*
X15271Y7715D01*
X15291Y7698D02*
X15304D01*
X15291D02*
X15304Y7711D01*
Y7715D01*
X15301Y7718D01*
X15294D01*
X15291Y7715D01*
X15008Y7693D02*
X15001D01*
X15004D02*
X15008D01*
X15004D02*
Y7673D01*
X15001D01*
X15008D01*
X15028Y7693D02*
X15031Y7690D01*
X15028Y7693D02*
X15021D01*
X15018Y7690D01*
Y7676D01*
X15021Y7673D01*
X15028D01*
X15031Y7676D01*
X15038Y7693D02*
X15051D01*
Y7690D01*
X15038Y7676D01*
Y7673D01*
X14981Y7413D02*
X14961D01*
X14981D02*
Y7403D01*
X14978Y7400D01*
X14971D01*
X14968Y7403D01*
Y7413D01*
Y7406D02*
X14961Y7400D01*
X14978Y7393D02*
X14981Y7390D01*
Y7383D01*
X14978Y7380D01*
X14974D01*
X14971Y7383D01*
X14968Y7380D01*
X14964D01*
X14961Y7383D01*
Y7390D01*
X14964Y7393D01*
X14968D01*
X14971Y7390D01*
X14974Y7393D01*
X14978D01*
X14971Y7390D02*
Y7383D01*
X14896Y7358D02*
Y7338D01*
Y7358D02*
X14906D01*
X14909Y7355D01*
Y7348D01*
X14906Y7345D01*
X14896D01*
X14903D02*
X14909Y7338D01*
X14916Y7358D02*
X14929D01*
Y7355D01*
X14916Y7341D01*
Y7338D01*
X14831Y7238D02*
X14811D01*
X14831D02*
Y7251D01*
X14814Y7258D02*
X14811Y7261D01*
Y7268D01*
X14814Y7271D01*
X14818D01*
X14819D01*
X14818D02*
X14819D01*
X14818D02*
X14819D01*
X14818D02*
X14821Y7268D01*
Y7265D01*
Y7268D01*
X14824Y7271D01*
X14828D01*
X14831Y7268D01*
Y7261D01*
X14828Y7258D01*
X14831Y7538D02*
X14811D01*
Y7548D01*
X14814Y7551D01*
X14821D01*
X14824Y7548D01*
Y7538D01*
Y7545D02*
X14831Y7551D01*
X14814Y7565D02*
X14811Y7571D01*
X14814Y7565D02*
X14821Y7558D01*
X14828D01*
X14831Y7561D01*
Y7568D01*
X14828Y7571D01*
X14824D01*
X14821Y7568D01*
Y7558D01*
X14961Y7498D02*
X14981D01*
Y7488D01*
X14978Y7485D01*
X14971D01*
X14968Y7488D01*
Y7498D01*
Y7491D02*
X14961Y7485D01*
X14981Y7478D02*
Y7465D01*
Y7478D02*
X14971D01*
X14974Y7472D01*
Y7468D01*
X14971Y7465D01*
X14964D01*
X14961Y7468D01*
Y7475D01*
X14964Y7478D01*
X15044Y7635D02*
X15041Y7638D01*
X15034D01*
X15031Y7635D01*
Y7621D01*
X15034Y7618D01*
X15041D01*
X15044Y7621D01*
X15058Y7635D02*
X15064Y7638D01*
X15058Y7635D02*
X15051Y7628D01*
Y7621D01*
X15054Y7618D01*
X15061D01*
X15064Y7621D01*
Y7625D01*
X15061Y7628D01*
X15051D01*
X15056Y7378D02*
X15059Y7375D01*
X15056Y7378D02*
X15049D01*
X15046Y7375D01*
Y7361D01*
X15049Y7358D01*
X15056D01*
X15059Y7361D01*
X15066Y7378D02*
X15079D01*
X15066D02*
Y7368D01*
X15073Y7371D01*
X15076D01*
X15079Y7368D01*
Y7361D01*
X15076Y7358D01*
X15069D01*
X15066Y7361D01*
X15181Y7363D02*
Y7343D01*
Y7363D02*
X15191D01*
X15194Y7360D01*
Y7353D01*
X15191Y7350D01*
X15181D01*
X15188D02*
X15194Y7343D01*
X15211D02*
Y7363D01*
X15201Y7353D01*
X15214D01*
X15216Y7613D02*
Y7633D01*
X15226D01*
X15229Y7630D01*
Y7623D01*
X15226Y7620D01*
X15216D01*
X15223D02*
X15229Y7613D01*
X15236Y7630D02*
X15239Y7633D01*
X15246D01*
X15249Y7630D01*
Y7626D01*
X15250D01*
X15249D02*
X15250D01*
X15249D02*
X15250D01*
X15249D02*
X15246Y7623D01*
X15243D01*
X15246D01*
X15249Y7620D01*
Y7616D01*
X15246Y7613D01*
X15239D01*
X15236Y7616D01*
X14831Y7623D02*
X14811D01*
X14831D02*
Y7636D01*
Y7643D02*
Y7656D01*
Y7643D02*
X14818Y7656D01*
X14814D01*
X14811Y7653D01*
Y7646D01*
X14814Y7643D01*
X14811Y8333D02*
X14831D01*
Y8346D01*
Y8363D02*
X14811D01*
X14821Y8353D01*
Y8366D01*
X15216Y8343D02*
Y8323D01*
Y8343D02*
X15226D01*
X15229Y8340D01*
Y8333D01*
X15226Y8330D01*
X15216D01*
X15223D02*
X15229Y8323D01*
X15236D02*
X15249D01*
X15236D02*
X15249Y8336D01*
Y8340D01*
X15246Y8343D01*
X15239D01*
X15236Y8340D01*
X15181Y8073D02*
Y8053D01*
Y8073D02*
X15191D01*
X15194Y8070D01*
Y8063D01*
X15191Y8060D01*
X15181D01*
X15188D02*
X15194Y8053D01*
X15201D02*
X15208D01*
X15204D01*
Y8073D01*
X15205D01*
X15204D02*
X15201Y8070D01*
X15218Y8053D02*
X15224D01*
X15221D01*
Y8073D01*
X15222D01*
X15221D02*
X15218Y8070D01*
X15059Y8085D02*
X15056Y8088D01*
X15049D01*
X15046Y8085D01*
Y8071D01*
X15049Y8068D01*
X15056D01*
X15059Y8071D01*
X15066Y8068D02*
X15073D01*
X15069D01*
Y8088D01*
X15070D01*
X15069D02*
X15066Y8085D01*
X15083Y8071D02*
X15086Y8068D01*
X15093D01*
X15096Y8071D01*
Y8085D01*
X15093Y8088D01*
X15086D01*
X15083Y8085D01*
Y8081D01*
X15086Y8078D01*
X15096D01*
X15044Y8345D02*
X15041Y8348D01*
X15034D01*
X15031Y8345D01*
Y8331D01*
X15034Y8328D01*
X15041D01*
X15044Y8331D01*
X15051Y8328D02*
X15064D01*
X15051D02*
X15064Y8341D01*
Y8345D01*
X15061Y8348D01*
X15054D01*
X15051Y8345D01*
X15071D02*
X15074Y8348D01*
X15081D01*
X15084Y8345D01*
Y8331D01*
X15081Y8328D01*
X15074D01*
X15071Y8331D01*
Y8345D01*
X14981Y8212D02*
X14961D01*
X14981D02*
Y8202D01*
X14978Y8199D01*
X14971D01*
X14968Y8202D01*
Y8212D01*
Y8205D02*
X14961Y8199D01*
Y8192D02*
Y8185D01*
Y8189D01*
X14981D01*
X14982D01*
X14981D02*
X14978Y8192D01*
X14961Y8175D02*
Y8162D01*
Y8175D02*
X14974Y8162D01*
X14978D01*
X14981Y8165D01*
Y8172D01*
X14978Y8175D01*
X14831Y8248D02*
X14811D01*
Y8258D01*
X14814Y8261D01*
X14821D01*
X14824Y8258D01*
Y8248D01*
Y8255D02*
X14831Y8261D01*
Y8268D02*
Y8275D01*
Y8271D01*
X14811D01*
X14812D01*
X14811D02*
X14814Y8268D01*
Y8285D02*
X14811Y8288D01*
Y8295D01*
X14814Y8298D01*
X14818D01*
X14819D01*
X14818D02*
X14819D01*
X14818D02*
X14819D01*
X14818D02*
X14821Y8295D01*
Y8291D01*
Y8295D01*
X14824Y8298D01*
X14828D01*
X14831Y8295D01*
Y8288D01*
X14828Y8285D01*
X14868Y8073D02*
Y8053D01*
Y8073D02*
X14878D01*
X14881Y8070D01*
Y8063D01*
X14878Y8060D01*
X14868D01*
X14875D02*
X14881Y8053D01*
X14888D02*
X14895D01*
X14891D01*
Y8073D01*
X14892D01*
X14891D02*
X14888Y8070D01*
X14915Y8073D02*
Y8053D01*
X14905Y8063D02*
X14915Y8073D01*
X14918Y8063D02*
X14905D01*
X14955Y8137D02*
X14975D01*
Y8127D01*
X14972Y8124D01*
X14965D01*
X14962Y8127D01*
Y8137D01*
Y8130D02*
X14955Y8124D01*
Y8117D02*
Y8110D01*
Y8114D01*
X14975D01*
X14976D01*
X14975D02*
X14972Y8117D01*
X14975Y8100D02*
Y8087D01*
Y8100D02*
X14965D01*
X14968Y8094D01*
Y8090D01*
X14965Y8087D01*
X14958D01*
X14955Y8090D01*
Y8097D01*
X14958Y8100D01*
X14457Y8271D02*
X14454Y8274D01*
X14447D01*
X14444Y8271D01*
Y8257D01*
X14447Y8254D01*
X14454D01*
X14457Y8257D01*
X14464Y8254D02*
X14471D01*
X14467D01*
Y8274D01*
X14468D01*
X14467D02*
X14464Y8271D01*
X14811Y7948D02*
X14831D01*
Y7961D01*
X14811Y7968D02*
Y7981D01*
Y7968D02*
X14821D01*
X14818Y7975D01*
Y7978D01*
X14821Y7981D01*
X14828D01*
X14831Y7978D01*
Y7971D01*
X14828Y7968D01*
X14522Y6147D02*
X14525Y6144D01*
X14522Y6147D02*
X14515D01*
X14512Y6144D01*
Y6130D01*
X14515Y6127D01*
X14522D01*
X14525Y6130D01*
X14532Y6147D02*
X14545D01*
Y6144D01*
X14532Y6130D01*
Y6127D01*
X14552D02*
X14565D01*
X14552D02*
X14565Y6140D01*
Y6144D01*
X14562Y6147D01*
X14555D01*
X14552Y6144D01*
X15131Y6301D02*
X15134Y6298D01*
X15131Y6301D02*
X15124D01*
X15121Y6298D01*
Y6284D01*
X15124Y6281D01*
X15131D01*
X15134Y6284D01*
X15141Y6301D02*
X15154D01*
Y6298D01*
X15141Y6284D01*
Y6281D01*
X15161D02*
X15168D01*
X15164D01*
Y6301D01*
X15165D01*
X15164D02*
X15161Y6298D01*
X15251Y6301D02*
Y6281D01*
Y6301D02*
X15261D01*
X15264Y6298D01*
Y6291D01*
X15261Y6288D01*
X15251D01*
X15258D02*
X15264Y6281D01*
X15271Y6301D02*
X15284D01*
Y6298D01*
X15271Y6284D01*
Y6281D01*
X15291Y6298D02*
X15294Y6301D01*
X15301D01*
X15304Y6298D01*
Y6294D01*
X15301Y6291D01*
X15304Y6288D01*
Y6284D01*
X15301Y6281D01*
X15294D01*
X15291Y6284D01*
Y6288D01*
X15294Y6291D01*
X15291Y6294D01*
Y6298D01*
X15294Y6291D02*
X15301D01*
X15020Y6281D02*
X15013D01*
X15016D02*
X15020D01*
X15016D02*
Y6261D01*
X15013D01*
X15020D01*
X15040Y6281D02*
X15043Y6278D01*
X15040Y6281D02*
X15033D01*
X15030Y6278D01*
Y6264D01*
X15033Y6261D01*
X15040D01*
X15043Y6264D01*
X15050Y6261D02*
X15063D01*
X15050D02*
X15063Y6274D01*
Y6278D01*
X15060Y6281D01*
X15053D01*
X15050Y6278D01*
X15070Y6281D02*
X15083D01*
X15070D02*
Y6271D01*
X15076Y6274D01*
X15080D01*
X15083Y6271D01*
Y6264D01*
X15080Y6261D01*
X15073D01*
X15070Y6264D01*
X14977Y6016D02*
X14957D01*
X14977D02*
Y6006D01*
X14974Y6003D01*
X14967D01*
X14964Y6006D01*
Y6016D01*
Y6009D02*
X14957Y6003D01*
X14977Y5996D02*
Y5983D01*
X14974D01*
X14960Y5996D01*
X14957D01*
X14977Y5976D02*
Y5963D01*
Y5976D02*
X14967D01*
X14970Y5969D01*
Y5966D01*
X14967Y5963D01*
X14960D01*
X14957Y5966D01*
Y5973D01*
X14960Y5976D01*
X14896Y5941D02*
Y5921D01*
Y5941D02*
X14906D01*
X14909Y5938D01*
Y5931D01*
X14906Y5928D01*
X14896D01*
X14903D02*
X14909Y5921D01*
X14916Y5941D02*
X14929D01*
Y5938D01*
X14916Y5924D01*
Y5921D01*
X14946D02*
Y5941D01*
X14936Y5931D01*
X14949D01*
X14831Y5821D02*
X14811D01*
X14831D02*
Y5834D01*
Y5841D02*
Y5854D01*
Y5841D02*
X14818Y5854D01*
X14814D01*
X14811Y5851D01*
Y5844D01*
X14814Y5841D01*
X14831Y5861D02*
Y5868D01*
Y5864D01*
X14811D01*
X14812D01*
X14811D02*
X14814Y5861D01*
X14811Y6121D02*
X14831D01*
X14811D02*
Y6131D01*
X14814Y6134D01*
X14821D01*
X14824Y6131D01*
Y6121D01*
Y6128D02*
X14831Y6134D01*
X14811Y6141D02*
Y6154D01*
X14814D01*
X14828Y6141D01*
X14831D01*
X14814Y6161D02*
X14811Y6164D01*
Y6171D01*
X14814Y6174D01*
X14818D01*
X14819D01*
X14818D02*
X14819D01*
X14818D02*
X14819D01*
X14818D02*
X14821Y6171D01*
Y6168D01*
Y6171D01*
X14824Y6174D01*
X14828D01*
X14831Y6171D01*
Y6164D01*
X14828Y6161D01*
X14957Y6091D02*
X14977D01*
Y6081D01*
X14974Y6078D01*
X14967D01*
X14964Y6081D01*
Y6091D01*
Y6084D02*
X14957Y6078D01*
X14977Y6071D02*
Y6058D01*
X14974D01*
X14960Y6071D01*
X14957D01*
Y6051D02*
Y6038D01*
Y6051D02*
X14970Y6038D01*
X14974D01*
X14977Y6041D01*
Y6048D01*
X14974Y6051D01*
X15044Y6218D02*
X15041Y6221D01*
X15034D01*
X15031Y6218D01*
Y6204D01*
X15034Y6201D01*
X15041D01*
X15044Y6204D01*
X15058Y6218D02*
X15064Y6221D01*
X15058Y6218D02*
X15051Y6211D01*
Y6204D01*
X15054Y6201D01*
X15061D01*
X15064Y6204D01*
Y6208D01*
X15061Y6211D01*
X15051D01*
X15071Y6218D02*
X15074Y6221D01*
X15081D01*
X15084Y6218D01*
Y6214D01*
X15085D01*
X15084D02*
X15085D01*
X15084D02*
X15085D01*
X15084D02*
X15081Y6211D01*
X15078D01*
X15081D01*
X15084Y6208D01*
Y6204D01*
X15081Y6201D01*
X15074D01*
X15071Y6204D01*
X15056Y5961D02*
X15059Y5958D01*
X15056Y5961D02*
X15049D01*
X15046Y5958D01*
Y5944D01*
X15049Y5941D01*
X15056D01*
X15059Y5944D01*
X15066Y5961D02*
X15079D01*
X15066D02*
Y5951D01*
X15073Y5954D01*
X15076D01*
X15079Y5951D01*
Y5944D01*
X15076Y5941D01*
X15069D01*
X15066Y5944D01*
X15086D02*
X15089Y5941D01*
X15096D01*
X15099Y5944D01*
Y5958D01*
X15096Y5961D01*
X15089D01*
X15086Y5958D01*
Y5954D01*
X15089Y5951D01*
X15099D01*
X15181Y5946D02*
Y5926D01*
Y5946D02*
X15191D01*
X15194Y5943D01*
Y5936D01*
X15191Y5933D01*
X15181D01*
X15188D02*
X15194Y5926D01*
X15201Y5946D02*
X15214D01*
Y5943D01*
X15201Y5929D01*
Y5926D01*
X15221D02*
X15228D01*
X15224D01*
Y5946D01*
X15225D01*
X15224D02*
X15221Y5943D01*
X15216Y6196D02*
Y6216D01*
X15226D01*
X15229Y6213D01*
Y6206D01*
X15226Y6203D01*
X15216D01*
X15223D02*
X15229Y6196D01*
X15243Y6213D02*
X15249Y6216D01*
X15243Y6213D02*
X15236Y6206D01*
Y6199D01*
X15239Y6196D01*
X15246D01*
X15249Y6199D01*
Y6203D01*
X15246Y6206D01*
X15236D01*
X15256Y6199D02*
X15259Y6196D01*
X15266D01*
X15269Y6199D01*
Y6213D01*
X15266Y6216D01*
X15259D01*
X15256Y6213D01*
Y6209D01*
X15259Y6206D01*
X15269D01*
X14831Y6206D02*
X14811D01*
X14831D02*
Y6219D01*
Y6226D02*
Y6233D01*
Y6229D01*
X14811D01*
X14812D01*
X14811D02*
X14814Y6226D01*
Y6243D02*
X14811Y6246D01*
Y6253D01*
X14814Y6256D01*
X14818D01*
X14821Y6253D01*
X14824Y6256D01*
X14828D01*
X14831Y6253D01*
Y6246D01*
X14828Y6243D01*
X14824D01*
X14821Y6246D01*
X14818Y6243D01*
X14814D01*
X14821Y6246D02*
Y6253D01*
X14957Y6727D02*
X14977D01*
Y6717D01*
X14974Y6714D01*
X14967D01*
X14964Y6717D01*
Y6727D01*
Y6720D02*
X14957Y6714D01*
X14977Y6707D02*
Y6694D01*
Y6707D02*
X14967D01*
X14970Y6700D01*
Y6697D01*
X14967Y6694D01*
X14960D01*
X14957Y6697D01*
Y6704D01*
X14960Y6707D01*
X14977Y6687D02*
Y6674D01*
Y6687D02*
X14967D01*
X14970Y6680D01*
Y6677D01*
X14967Y6674D01*
X14960D01*
X14957Y6677D01*
Y6684D01*
X14960Y6687D01*
X14896Y6650D02*
Y6630D01*
Y6650D02*
X14906D01*
X14909Y6647D01*
Y6640D01*
X14906Y6637D01*
X14896D01*
X14903D02*
X14909Y6630D01*
X14916Y6647D02*
X14919Y6650D01*
X14926D01*
X14929Y6647D01*
Y6643D01*
X14930D01*
X14929D02*
X14930D01*
X14929D02*
X14930D01*
X14929D02*
X14926Y6640D01*
X14923D01*
X14926D01*
X14929Y6637D01*
Y6633D01*
X14926Y6630D01*
X14919D01*
X14916Y6633D01*
X14936Y6630D02*
X14943D01*
X14939D01*
Y6650D01*
X14940D01*
X14939D02*
X14936Y6647D01*
X14831Y6526D02*
X14811D01*
X14831D02*
Y6539D01*
Y6546D02*
Y6553D01*
Y6549D01*
X14811D01*
X14812D01*
X14811D02*
X14814Y6546D01*
Y6569D02*
X14811Y6576D01*
X14814Y6569D02*
X14821Y6563D01*
X14828D01*
X14831Y6566D01*
Y6573D01*
X14828Y6576D01*
X14824D01*
X14821Y6573D01*
Y6563D01*
X14957Y6801D02*
X14977D01*
Y6791D01*
X14974Y6788D01*
X14967D01*
X14964Y6791D01*
Y6801D01*
Y6794D02*
X14957Y6788D01*
Y6781D02*
Y6768D01*
Y6781D02*
X14970Y6768D01*
X14974D01*
X14977Y6771D01*
Y6778D01*
X14974Y6781D01*
Y6754D02*
X14977Y6748D01*
X14974Y6754D02*
X14967Y6761D01*
X14960D01*
X14957Y6758D01*
Y6751D01*
X14960Y6748D01*
X14964D01*
X14967Y6751D01*
Y6761D01*
X15056Y6670D02*
X15059Y6667D01*
X15056Y6670D02*
X15049D01*
X15046Y6667D01*
Y6653D01*
X15049Y6650D01*
X15056D01*
X15059Y6653D01*
X15066Y6667D02*
X15069Y6670D01*
X15076D01*
X15079Y6667D01*
Y6663D01*
X15080D01*
X15079D02*
X15080D01*
X15079D02*
X15080D01*
X15079D02*
X15076Y6660D01*
X15073D01*
X15076D01*
X15079Y6657D01*
Y6653D01*
X15076Y6650D01*
X15069D01*
X15066Y6653D01*
X15086Y6670D02*
X15099D01*
Y6667D01*
X15086Y6653D01*
Y6650D01*
X15181Y6655D02*
Y6635D01*
Y6655D02*
X15191D01*
X15194Y6652D01*
Y6645D01*
X15191Y6642D01*
X15181D01*
X15188D02*
X15194Y6635D01*
X15201D02*
X15214D01*
X15201D02*
X15214Y6648D01*
Y6652D01*
X15211Y6655D01*
X15204D01*
X15201Y6652D01*
X15221Y6655D02*
X15234D01*
X15221D02*
Y6645D01*
X15228Y6648D01*
X15231D01*
X15234Y6645D01*
Y6638D01*
X15231Y6635D01*
X15224D01*
X15221Y6638D01*
X14541Y8393D02*
Y8413D01*
Y8393D02*
X14554D01*
X14561D02*
X14568D01*
X14564D01*
Y8413D01*
X14565D01*
X14564D02*
X14561Y8410D01*
X13701Y7110D02*
X13704Y7107D01*
X13701Y7110D02*
X13694D01*
X13691Y7107D01*
Y7093D01*
X13694Y7090D01*
X13701D01*
X13704Y7093D01*
X13711Y7090D02*
X13718D01*
X13714D01*
Y7110D01*
X13715D01*
X13714D02*
X13711Y7107D01*
X13728Y7090D02*
X13734D01*
X13731D01*
Y7110D01*
X13732D01*
X13731D02*
X13728Y7107D01*
X13701Y7080D02*
X13704Y7077D01*
X13701Y7080D02*
X13694D01*
X13691Y7077D01*
Y7063D01*
X13694Y7060D01*
X13701D01*
X13704Y7063D01*
X13711Y7077D02*
X13714Y7080D01*
X13721D01*
X13724Y7077D01*
Y7073D01*
X13725D01*
X13724D02*
X13725D01*
X13724D02*
X13725D01*
X13724D02*
X13721Y7070D01*
X13718D01*
X13721D01*
X13724Y7067D01*
Y7063D01*
X13721Y7060D01*
X13714D01*
X13711Y7063D01*
X14541Y6995D02*
Y6975D01*
X14554D01*
X14561D02*
X14568D01*
X14564D01*
Y6995D01*
X14565D01*
X14564D02*
X14561Y6992D01*
X14578Y6995D02*
X14591D01*
Y6992D01*
X14578Y6978D01*
Y6975D01*
X14541Y7683D02*
Y7703D01*
Y7683D02*
X14554D01*
X14561Y7700D02*
X14564Y7703D01*
X14571D01*
X14574Y7700D01*
Y7696D01*
X14571Y7693D01*
X14574Y7690D01*
Y7686D01*
X14571Y7683D01*
X14564D01*
X14561Y7686D01*
Y7690D01*
X14564Y7693D01*
X14561Y7696D01*
Y7700D01*
X14564Y7693D02*
X14571D01*
X14546Y7228D02*
X14526D01*
Y7238D01*
X14529Y7241D01*
X14536D01*
X14539Y7238D01*
Y7228D01*
Y7235D02*
X14546Y7241D01*
Y7248D02*
Y7255D01*
Y7251D01*
X14526D01*
X14527D01*
X14526D02*
X14529Y7248D01*
Y7271D02*
X14526Y7278D01*
X14529Y7271D02*
X14536Y7265D01*
X14543D01*
X14546Y7268D01*
Y7275D01*
X14543Y7278D01*
X14539D01*
X14536Y7275D01*
Y7265D01*
X14616Y7538D02*
X14623D01*
X14619D01*
Y7518D01*
X14616D01*
X14623D01*
X14643Y7538D02*
X14646Y7535D01*
X14643Y7538D02*
X14636D01*
X14633Y7535D01*
Y7521D01*
X14636Y7518D01*
X14643D01*
X14646Y7521D01*
X14659Y7535D02*
X14666Y7538D01*
X14659Y7535D02*
X14653Y7528D01*
Y7521D01*
X14656Y7518D01*
X14663D01*
X14666Y7521D01*
Y7525D01*
X14663Y7528D01*
X14653D01*
X13704Y7590D02*
X13701Y7593D01*
X13694D01*
X13691Y7590D01*
Y7576D01*
X13694Y7573D01*
X13701D01*
X13704Y7576D01*
X13711D02*
X13714Y7573D01*
X13721D01*
X13724Y7576D01*
Y7590D01*
X13721Y7593D01*
X13714D01*
X13711Y7590D01*
Y7586D01*
X13714Y7583D01*
X13724D01*
X13701Y7383D02*
X13704Y7380D01*
X13701Y7383D02*
X13694D01*
X13691Y7380D01*
Y7366D01*
X13694Y7363D01*
X13701D01*
X13704Y7366D01*
X13711Y7363D02*
X13718D01*
X13714D01*
Y7383D01*
X13715D01*
X13714D02*
X13711Y7380D01*
X13728D02*
X13731Y7383D01*
X13738D01*
X13741Y7380D01*
Y7366D01*
X13738Y7363D01*
X13731D01*
X13728Y7366D01*
Y7380D01*
X13701Y6875D02*
X13704Y6872D01*
X13701Y6875D02*
X13694D01*
X13691Y6872D01*
Y6858D01*
X13694Y6855D01*
X13701D01*
X13704Y6858D01*
X13721Y6855D02*
Y6875D01*
X13711Y6865D01*
X13724D01*
X14616Y8248D02*
X14623D01*
X14619D01*
Y8228D01*
X14616D01*
X14623D01*
X14643Y8248D02*
X14646Y8245D01*
X14643Y8248D02*
X14636D01*
X14633Y8245D01*
Y8231D01*
X14636Y8228D01*
X14643D01*
X14646Y8231D01*
X14653Y8248D02*
X14666D01*
X14653D02*
Y8238D01*
X14659Y8241D01*
X14663D01*
X14666Y8238D01*
Y8231D01*
X14663Y8228D01*
X14656D01*
X14653Y8231D01*
X14546Y7938D02*
X14526D01*
Y7948D01*
X14529Y7951D01*
X14536D01*
X14539Y7948D01*
Y7938D01*
Y7945D02*
X14546Y7951D01*
Y7958D02*
Y7965D01*
Y7961D01*
X14526D01*
X14527D01*
X14526D02*
X14529Y7958D01*
X14526Y7975D02*
Y7988D01*
X14529D01*
X14543Y7975D01*
X14546D01*
X13704Y7310D02*
X13701Y7313D01*
X13694D01*
X13691Y7310D01*
Y7296D01*
X13694Y7293D01*
X13701D01*
X13704Y7296D01*
X13711Y7293D02*
X13718D01*
X13714D01*
Y7313D01*
X13715D01*
X13714D02*
X13711Y7310D01*
X13728Y7293D02*
X13741D01*
X13728D02*
X13741Y7306D01*
Y7310D01*
X13738Y7313D01*
X13731D01*
X13728Y7310D01*
X14541Y6286D02*
Y6266D01*
X14554D01*
X14561D02*
X14574D01*
X14561D02*
X14574Y6279D01*
Y6283D01*
X14571Y6286D01*
X14564D01*
X14561Y6283D01*
X14581Y6266D02*
X14594D01*
X14581D02*
X14594Y6279D01*
Y6283D01*
X14591Y6286D01*
X14584D01*
X14581Y6283D01*
X14546Y5811D02*
X14526D01*
Y5821D01*
X14529Y5824D01*
X14536D01*
X14539Y5821D01*
Y5811D01*
Y5818D02*
X14546Y5824D01*
X14526Y5831D02*
Y5844D01*
X14529D01*
X14543Y5831D01*
X14546D01*
X14529Y5858D02*
X14526Y5864D01*
X14529Y5858D02*
X14536Y5851D01*
X14543D01*
X14546Y5854D01*
Y5861D01*
X14543Y5864D01*
X14539D01*
X14536Y5861D01*
Y5851D01*
X14616Y6121D02*
X14623D01*
X14619D01*
Y6101D01*
X14616D01*
X14623D01*
X14643Y6121D02*
X14646Y6118D01*
X14643Y6121D02*
X14636D01*
X14633Y6118D01*
Y6104D01*
X14636Y6101D01*
X14643D01*
X14646Y6104D01*
X14653Y6101D02*
X14666D01*
X14653D02*
X14666Y6114D01*
Y6118D01*
X14663Y6121D01*
X14656D01*
X14653Y6118D01*
X14683Y6121D02*
Y6101D01*
X14673Y6111D02*
X14683Y6121D01*
X14686Y6111D02*
X14673D01*
X14546Y6520D02*
X14526D01*
Y6530D01*
X14529Y6533D01*
X14536D01*
X14539Y6530D01*
Y6520D01*
Y6527D02*
X14546Y6533D01*
X14526Y6540D02*
Y6553D01*
Y6540D02*
X14536D01*
X14533Y6547D01*
Y6550D01*
X14536Y6553D01*
X14543D01*
X14546Y6550D01*
Y6543D01*
X14543Y6540D01*
Y6560D02*
X14546Y6563D01*
Y6570D01*
X14543Y6573D01*
X14529D01*
X14526Y6570D01*
Y6563D01*
X14529Y6560D01*
X14533D01*
X14536Y6563D01*
Y6573D01*
X14616Y6830D02*
X14623D01*
X14619D01*
Y6810D01*
X14616D01*
X14623D01*
X14643Y6830D02*
X14646Y6827D01*
X14643Y6830D02*
X14636D01*
X14633Y6827D01*
Y6813D01*
X14636Y6810D01*
X14643D01*
X14646Y6813D01*
X14653Y6810D02*
X14659D01*
X14656D01*
Y6830D01*
X14657D01*
X14656D02*
X14653Y6827D01*
X14669Y6813D02*
X14673Y6810D01*
X14679D01*
X14683Y6813D01*
Y6827D01*
X14679Y6830D01*
X14673D01*
X14669Y6827D01*
Y6823D01*
X14673Y6820D01*
X14683D01*
X13704Y6593D02*
X13701Y6596D01*
X13694D01*
X13691Y6593D01*
Y6579D01*
X13694Y6576D01*
X13701D01*
X13704Y6579D01*
X13711Y6576D02*
X13724D01*
X13711D02*
X13724Y6589D01*
Y6593D01*
X13721Y6596D01*
X13714D01*
X13711Y6593D01*
X13704Y6803D02*
X13701Y6806D01*
X13694D01*
X13691Y6803D01*
Y6789D01*
X13694Y6786D01*
X13701D01*
X13704Y6789D01*
X13711Y6786D02*
X13718D01*
X13714D01*
Y6806D01*
X13715D01*
X13714D02*
X13711Y6803D01*
X13728D02*
X13731Y6806D01*
X13738D01*
X13741Y6803D01*
Y6799D01*
X13738Y6796D01*
X13741Y6793D01*
Y6789D01*
X13738Y6786D01*
X13731D01*
X13728Y6789D01*
Y6793D01*
X13731Y6796D01*
X13728Y6799D01*
Y6803D01*
X13731Y6796D02*
X13738D01*
X10659Y8334D02*
Y8412D01*
X10580D02*
Y8334D01*
X10736D02*
Y8412D01*
X10580D01*
Y8334D02*
X10736D01*
X10849Y5930D02*
Y5773D01*
X10300D02*
Y5930D01*
X10379Y5851D02*
Y5773D01*
X10300Y5930D02*
X10849D01*
Y5773D02*
X10300D01*
Y5851D02*
X10379D01*
D13*
X8383Y5738D02*
Y6408D01*
X8859D02*
Y5738D01*
Y6408D02*
X8383D01*
Y5738D02*
X8859D01*
D14*
X6701Y7124D02*
X6701Y7108D01*
X6703Y7093D01*
X6706Y7077D01*
X6710Y7062D01*
X6715Y7047D01*
X6722Y7033D01*
X6730Y7019D01*
X6738Y7006D01*
X6748Y6993D01*
X6759Y6981D01*
X6770Y6971D01*
X6783Y6961D01*
X6796Y6952D01*
X6810Y6945D01*
X6824Y6938D01*
X6839Y6933D01*
X6854Y6929D01*
X6870Y6926D01*
X6886Y6924D01*
X6902Y6924D01*
X6917Y6925D01*
X6933Y6927D01*
X6948Y6930D01*
X6964Y6935D01*
X6978Y6941D01*
X6992Y6948D01*
X7006Y6956D01*
X7019Y6965D01*
X7031Y6976D01*
X7042Y6987D01*
X7052Y6999D01*
X7062Y7011D01*
X7070Y7025D01*
X7077Y7039D01*
X7083Y7054D01*
X7088Y7069D01*
X7091Y7084D01*
X7094Y7100D01*
X7095Y7116D01*
X7094Y7131D01*
X7093Y7147D01*
X7090Y7163D01*
X7086Y7178D01*
X7081Y7193D01*
X7075Y7207D01*
X7067Y7221D01*
X7059Y7235D01*
X7049Y7247D01*
X7038Y7259D01*
X7027Y7270D01*
X7014Y7279D01*
X7001Y7288D01*
X6987Y7296D01*
X6973Y7303D01*
X6958Y7308D01*
X6943Y7312D01*
X6928Y7315D01*
X6912Y7317D01*
X6896Y7318D01*
X6880Y7317D01*
X6865Y7315D01*
X6849Y7311D01*
X6834Y7307D01*
X6819Y7301D01*
X6805Y7294D01*
X6791Y7286D01*
X6778Y7277D01*
X6766Y7267D01*
X6755Y7256D01*
X6745Y7244D01*
X6735Y7231D01*
X6727Y7218D01*
X6720Y7204D01*
X6713Y7189D01*
X6708Y7174D01*
X6705Y7159D01*
X6702Y7143D01*
X6701Y7128D01*
D15*
X10946Y6786D02*
X10958D01*
X10934D01*
X10946Y7243D02*
X10958D01*
X10934D01*
X10930Y8152D02*
X10906D01*
X11249Y7904D02*
X11273D01*
X4677Y7813D02*
X4653D01*
X4652Y8069D02*
X4675D01*
X9494Y8128D02*
X9518D01*
X7698Y8138D02*
X7675D01*
X7837Y8136D02*
X7861D01*
X10946Y6798D02*
Y6774D01*
Y6786D01*
Y7231D02*
Y7255D01*
Y7243D02*
Y7231D01*
X10918Y8140D02*
Y8164D01*
X11261Y7916D02*
Y7892D01*
X4665Y7825D02*
Y7801D01*
X4663Y8057D02*
Y8080D01*
X9506Y8116D02*
Y8140D01*
X7687Y8149D02*
Y8126D01*
X7849Y8124D02*
Y8148D01*
X11462Y6455D02*
Y6432D01*
Y6443D02*
Y6455D01*
Y6443D02*
X11497D01*
Y6467D02*
X11462D01*
X11497D02*
Y6484D01*
X11491Y6490D01*
X11468D01*
X11462Y6484D01*
Y6467D01*
Y6508D02*
Y6519D01*
Y6508D02*
X11468Y6502D01*
X11491D01*
X11497Y6508D01*
Y6519D01*
X11491Y6525D01*
X11468D01*
X11462Y6519D01*
X11564Y6455D02*
Y6432D01*
Y6443D02*
Y6455D01*
Y6443D02*
X11599D01*
Y6467D02*
X11564D01*
X11599D02*
Y6484D01*
X11594Y6490D01*
X11570D01*
X11564Y6484D01*
Y6467D01*
Y6502D02*
Y6513D01*
Y6508D01*
X11599D01*
Y6502D01*
Y6513D01*
X11663Y6455D02*
Y6432D01*
Y6443D02*
Y6455D01*
Y6443D02*
X11698D01*
Y6467D02*
X11663D01*
X11674Y6478D01*
X11663Y6490D01*
X11698D01*
X11669Y6525D02*
X11663Y6519D01*
Y6508D01*
X11669Y6502D01*
X11674D01*
X11680Y6508D01*
Y6519D01*
X11686Y6525D01*
X11692D01*
X11698Y6519D01*
Y6508D01*
X11692Y6502D01*
X11360Y6455D02*
Y6432D01*
Y6443D02*
Y6455D01*
Y6443D02*
X11395D01*
X11360Y6484D02*
X11365Y6490D01*
X11360Y6484D02*
Y6473D01*
X11365Y6467D01*
X11389D01*
X11395Y6473D01*
Y6484D01*
X11389Y6490D01*
X11395Y6502D02*
X11360D01*
X11383D02*
X11395D01*
X11383D02*
X11360Y6525D01*
X11377Y6508D01*
X11395Y6525D01*
X11169Y6459D02*
X11163Y6453D01*
Y6441D01*
X11169Y6436D01*
X11192D01*
X11198Y6441D01*
Y6453D01*
X11192Y6459D01*
X11180D01*
Y6447D01*
X11198Y6471D02*
X11163D01*
X11198Y6494D01*
X11163D01*
Y6506D02*
X11198D01*
Y6523D01*
X11192Y6529D01*
X11169D01*
X11163Y6523D01*
Y6506D01*
X11088Y6440D02*
X11053D01*
Y6457D01*
X11058Y6463D01*
X11070D01*
X11076Y6457D01*
Y6440D01*
X11088Y6475D02*
X11053D01*
X11076Y6486D02*
X11088Y6475D01*
X11076Y6486D02*
X11088Y6498D01*
X11053D01*
Y6510D02*
X11088D01*
X11053D02*
Y6527D01*
X11058Y6533D01*
X11070D01*
X11076Y6527D01*
Y6510D01*
Y6521D02*
X11088Y6533D01*
X15012Y8487D02*
X15017Y8478D01*
X15027D01*
X15032Y8487D01*
X15044D02*
Y8413D01*
X15001D02*
Y8487D01*
X15034Y8487D02*
X15044D01*
X15012D02*
X15001D01*
X15001Y8413D02*
X15044D01*
X15797Y7784D02*
X15808D01*
X15797D02*
X15791Y7778D01*
Y7755D01*
X15797Y7749D01*
X15808D01*
X15814Y7755D01*
Y7778D01*
X15808Y7784D01*
X15826Y7749D02*
X15849D01*
X15826D02*
X15849Y7772D01*
Y7778D01*
X15843Y7784D01*
X15832D01*
X15826Y7778D01*
X15808Y8493D02*
X15797D01*
X15791Y8487D01*
Y8464D01*
X15797Y8458D01*
X15808D01*
X15814Y8464D01*
Y8487D01*
X15808Y8493D01*
X15826Y8458D02*
X15838D01*
X15832D01*
Y8493D01*
X15833D01*
X15832D02*
X15826Y8487D01*
X15032Y7069D02*
X15027Y7060D01*
X15017D01*
X15012Y7069D01*
X15044D02*
Y6995D01*
X15001D02*
Y7069D01*
X15034Y7069D02*
X15044D01*
X15012D02*
X15001D01*
X15001Y6995D02*
X15044D01*
X15032Y7777D02*
X15027Y7768D01*
X15017D01*
X15012Y7777D01*
X15001D02*
Y7703D01*
X15044D02*
Y7777D01*
Y7703D02*
X15001D01*
X15001Y7777D02*
X15012D01*
X15034D02*
X15044D01*
X15797Y7075D02*
X15808D01*
X15797D02*
X15791Y7069D01*
Y7046D01*
X15797Y7040D01*
X15808D01*
X15814Y7046D01*
Y7069D01*
X15808Y7075D01*
X15826Y7069D02*
X15832Y7075D01*
X15843D01*
X15849Y7069D01*
Y7063D01*
X15850D01*
X15849D02*
X15850D01*
X15849D02*
X15850D01*
X15849D02*
X15843Y7057D01*
X15838D01*
X15843D01*
X15849Y7052D01*
Y7046D01*
X15843Y7040D01*
X15832D01*
X15826Y7046D01*
X15808Y6366D02*
X15797D01*
X15791Y6360D01*
Y6337D01*
X15797Y6331D01*
X15808D01*
X15814Y6337D01*
Y6360D01*
X15808Y6366D01*
X15843D02*
Y6331D01*
X15826Y6348D02*
X15843Y6366D01*
X15849Y6348D02*
X15826D01*
X15032Y6360D02*
X15027Y6351D01*
X15017D01*
X15012Y6360D01*
X15044D02*
Y6286D01*
X15001D02*
Y6360D01*
X15034Y6360D02*
X15044D01*
X15012D02*
X15001D01*
X15001Y6286D02*
X15044D01*
X13643Y7666D02*
X13631D01*
X13637D02*
X13643D01*
X13637D02*
Y7631D01*
X13631D01*
X13643D01*
X13678Y7666D02*
X13683Y7660D01*
X13678Y7666D02*
X13666D01*
X13660Y7660D01*
Y7636D01*
X13666Y7631D01*
X13678D01*
X13683Y7636D01*
X13695Y7631D02*
X13707D01*
X13701D01*
Y7666D01*
X13702D01*
X13701D02*
X13695Y7660D01*
X13724Y7666D02*
X13748D01*
X13724D02*
Y7648D01*
X13736Y7654D01*
X13742D01*
X13748Y7648D01*
Y7636D01*
X13742Y7631D01*
X13730D01*
X13724Y7636D01*
X13771Y8105D02*
Y8302D01*
X14049D02*
Y8105D01*
X14048Y8302D02*
X13771D01*
Y8105D02*
X14049D01*
X14054Y8079D02*
X14066D01*
X14060D01*
Y8044D01*
X14054D01*
X14066D01*
X14101Y8079D02*
X14107Y8073D01*
X14101Y8079D02*
X14089D01*
X14083Y8073D01*
Y8050D01*
X14089Y8044D01*
X14101D01*
X14107Y8050D01*
X14118Y8044D02*
X14142D01*
X14118D02*
X14142Y8067D01*
Y8073D01*
X14136Y8079D01*
X14124D01*
X14118Y8073D01*
X14153Y8079D02*
X14177D01*
Y8073D01*
X14153Y8050D01*
Y8044D01*
X14643Y7488D02*
X14646Y7476D01*
X14655Y7467D01*
X14668Y7463D01*
X14680Y7467D01*
X14690Y7476D01*
X14693Y7488D01*
X14618D02*
Y7288D01*
X14718D02*
Y7488D01*
X14643D02*
X14618D01*
X14693D02*
X14718D01*
Y7288D02*
X14618D01*
X14643Y8198D02*
X14646Y8186D01*
X14655Y8177D01*
X14668Y8173D01*
X14680Y8177D01*
X14690Y8186D01*
X14693Y8198D01*
X14718D02*
Y7998D01*
X14618D02*
Y8198D01*
Y7998D02*
X14718D01*
Y8198D02*
X14693D01*
X14643D02*
X14618D01*
X13363Y7807D02*
X13357Y7813D01*
X13345D01*
X13340Y7807D01*
Y7784D01*
X13345Y7778D01*
X13357D01*
X13363Y7784D01*
X13392Y7778D02*
Y7813D01*
X13375Y7796D01*
X13398D01*
X13410Y7778D02*
X13433D01*
X13410D02*
X13433Y7802D01*
Y7807D01*
X13427Y7813D01*
X13415D01*
X13410Y7807D01*
X13339Y8451D02*
X13328D01*
X13334D02*
X13339D01*
X13334D02*
Y8416D01*
X13328D01*
X13339D01*
X13374Y8451D02*
X13380Y8445D01*
X13374Y8451D02*
X13363D01*
X13357Y8445D01*
Y8422D01*
X13363Y8416D01*
X13374D01*
X13380Y8422D01*
X13392Y8416D02*
X13404D01*
X13398D01*
Y8451D01*
X13399D01*
X13398D02*
X13392Y8445D01*
X13421D02*
X13427Y8451D01*
X13439D01*
X13444Y8445D01*
Y8439D01*
X13445D01*
X13444D02*
X13445D01*
X13444D02*
X13445D01*
X13444D02*
X13439Y8433D01*
X13433D01*
X13439D01*
X13444Y8428D01*
Y8422D01*
X13439Y8416D01*
X13427D01*
X13421Y8422D01*
X13231Y7813D02*
X13237Y7807D01*
X13231Y7813D02*
X13219D01*
X13214Y7807D01*
Y7784D01*
X13219Y7778D01*
X13231D01*
X13237Y7784D01*
X13266Y7778D02*
Y7813D01*
X13249Y7796D01*
X13272D01*
X13284Y7778D02*
X13295D01*
X13289D01*
Y7813D01*
X13290D01*
X13289D02*
X13284Y7807D01*
X13126Y7969D02*
X13121Y7964D01*
X13126Y7969D02*
Y7981D01*
X13121Y7987D01*
X13097D01*
X13092Y7981D01*
Y7969D01*
X13097Y7964D01*
X13092Y7934D02*
X13126D01*
X13109Y7952D01*
Y7929D01*
X13121Y7917D02*
X13126Y7911D01*
Y7899D01*
X13121Y7894D01*
X13115D01*
X13116D01*
X13115D02*
X13116D01*
X13115D02*
X13116D01*
X13115D02*
X13109Y7899D01*
Y7905D01*
Y7899D01*
X13103Y7894D01*
X13097D01*
X13092Y7899D01*
Y7911D01*
X13097Y7917D01*
X14064Y8257D02*
Y8292D01*
Y8257D02*
X14087D01*
X14099Y8286D02*
X14105Y8292D01*
X14116D01*
X14122Y8286D01*
Y8280D01*
X14123D01*
X14122D02*
X14123D01*
X14122D02*
X14123D01*
X14122D02*
X14116Y8274D01*
X14111D01*
X14116D01*
X14122Y8268D01*
Y8262D01*
X14116Y8257D01*
X14105D01*
X14099Y8262D01*
X14134Y8286D02*
X14140Y8292D01*
X14151D01*
X14157Y8286D01*
Y8280D01*
X14151Y8274D01*
X14157Y8268D01*
Y8262D01*
X14151Y8257D01*
X14140D01*
X14134Y8262D01*
Y8268D01*
X14140Y8274D01*
X14134Y8280D01*
Y8286D01*
X14140Y8274D02*
X14151D01*
X13656Y8288D02*
X13621D01*
Y8306D01*
X13627Y8311D01*
X13639D01*
X13645Y8306D01*
Y8288D01*
Y8300D02*
X13656Y8311D01*
X13627Y8323D02*
X13621Y8329D01*
Y8341D01*
X13627Y8346D01*
X13633D01*
X13639Y8341D01*
X13645Y8346D01*
X13651D01*
X13656Y8341D01*
Y8329D01*
X13651Y8323D01*
X13645D01*
X13639Y8329D01*
X13633Y8323D01*
X13627D01*
X13639Y8329D02*
Y8341D01*
X13627Y8358D02*
X13621Y8364D01*
Y8375D01*
X13627Y8381D01*
X13651D01*
X13656Y8375D01*
Y8364D01*
X13651Y8358D01*
X13627D01*
X13797Y7798D02*
X13791Y7792D01*
Y7780D01*
X13797Y7774D01*
X13820D01*
X13826Y7780D01*
Y7792D01*
X13820Y7798D01*
X13826Y7809D02*
Y7821D01*
Y7815D01*
X13791D01*
X13792D01*
X13791D02*
X13797Y7809D01*
X13826Y7838D02*
Y7862D01*
Y7838D02*
X13802Y7862D01*
X13797D01*
X13791Y7856D01*
Y7844D01*
X13797Y7838D01*
X13820Y7873D02*
X13826Y7879D01*
Y7891D01*
X13820Y7897D01*
X13797D01*
X13791Y7891D01*
Y7879D01*
X13797Y7873D01*
X13802D01*
X13808Y7879D01*
Y7897D01*
X13694Y7869D02*
X13687Y7882D01*
X13672D01*
X13664Y7869D01*
X13709D02*
Y7984D01*
X13649D02*
Y7869D01*
X13694D02*
X13709D01*
Y7984D02*
X13649D01*
Y7869D02*
X13664D01*
X13645Y8038D02*
X13633D01*
X13639D02*
X13645D01*
X13639D02*
Y8003D01*
X13633D01*
X13645D01*
X13679Y8038D02*
X13685Y8032D01*
X13679Y8038D02*
X13668D01*
X13662Y8032D01*
Y8008D01*
X13668Y8003D01*
X13679D01*
X13685Y8008D01*
X13697Y8003D02*
X13709D01*
X13703D01*
Y8038D01*
X13704D01*
X13703D02*
X13697Y8032D01*
X13726Y8038D02*
X13749D01*
Y8032D01*
X13726Y8008D01*
Y8003D01*
X13654Y7736D02*
Y7701D01*
X13678D01*
X13707D02*
Y7736D01*
X13689Y7719D01*
X13713D01*
X13724Y7701D02*
X13736D01*
X13730D01*
Y7736D01*
X13731D01*
X13730D02*
X13724Y7731D01*
X13948Y8024D02*
X13942Y8030D01*
X13930D01*
X13924Y8024D01*
Y8001D01*
X13930Y7995D01*
X13942D01*
X13948Y8001D01*
X13959Y7995D02*
X13971D01*
X13965D01*
Y8030D01*
X13966D01*
X13965D02*
X13959Y8024D01*
X13988D02*
X13994Y8030D01*
X14006D01*
X14012Y8024D01*
Y8018D01*
X14013D01*
X14012D02*
X14013D01*
X14012D02*
X14013D01*
X14012D02*
X14006Y8012D01*
X14000D01*
X14006D01*
X14012Y8006D01*
Y8001D01*
X14006Y7995D01*
X13994D01*
X13988Y8001D01*
X14023Y8024D02*
X14029Y8030D01*
X14041D01*
X14047Y8024D01*
Y8001D01*
X14041Y7995D01*
X14029D01*
X14023Y8001D01*
Y8024D01*
X14077Y8410D02*
X14072Y8416D01*
X14060D01*
X14054Y8410D01*
Y8386D01*
X14060Y8381D01*
X14072D01*
X14077Y8386D01*
X14089Y8416D02*
X14112D01*
Y8410D01*
X14089Y8386D01*
Y8381D01*
X14124Y8410D02*
X14130Y8416D01*
X14142D01*
X14147Y8410D01*
Y8404D01*
X14148D01*
X14147D02*
X14148D01*
X14147D02*
X14148D01*
X14147D02*
X14142Y8398D01*
X14136D01*
X14142D01*
X14147Y8392D01*
Y8386D01*
X14142Y8381D01*
X14130D01*
X14124Y8386D01*
X13764Y6091D02*
Y5894D01*
X14042D02*
Y6091D01*
Y6091D02*
X13764D01*
X13765Y5894D02*
X14042D01*
X14036Y6169D02*
X14025D01*
X14030D02*
X14036D01*
X14030D02*
Y6134D01*
X14025D01*
X14036D01*
X14071Y6169D02*
X14077Y6164D01*
X14071Y6169D02*
X14060D01*
X14054Y6164D01*
Y6140D01*
X14060Y6134D01*
X14071D01*
X14077Y6140D01*
X14089Y6134D02*
X14112D01*
X14089D02*
X14112Y6158D01*
Y6164D01*
X14106Y6169D01*
X14095D01*
X14089Y6164D01*
X14124Y6140D02*
X14130Y6134D01*
X14141D01*
X14147Y6140D01*
Y6164D01*
X14141Y6169D01*
X14130D01*
X14124Y6164D01*
Y6158D01*
X14130Y6152D01*
X14147D01*
X13639Y6081D02*
Y6046D01*
Y6081D02*
X13656D01*
X13662Y6075D01*
Y6063D01*
X13656Y6058D01*
X13639D01*
X13650D02*
X13662Y6046D01*
X13674Y6075D02*
X13680Y6081D01*
X13691D01*
X13697Y6075D01*
Y6069D01*
X13691Y6063D01*
X13697Y6058D01*
Y6052D01*
X13691Y6046D01*
X13680D01*
X13674Y6052D01*
Y6058D01*
X13680Y6063D01*
X13674Y6069D01*
Y6075D01*
X13680Y6063D02*
X13691D01*
X13709Y6081D02*
X13732D01*
X13709D02*
Y6063D01*
X13720Y6069D01*
X13726D01*
X13732Y6063D01*
Y6052D01*
X13726Y6046D01*
X13715D01*
X13709Y6052D01*
X14643Y6071D02*
X14646Y6059D01*
X14655Y6050D01*
X14668Y6046D01*
X14680Y6050D01*
X14690Y6059D01*
X14693Y6071D01*
X14718D02*
Y5871D01*
X14618D02*
Y6071D01*
Y5871D02*
X14718D01*
Y6071D02*
X14693D01*
X14643D02*
X14618D01*
X14643Y6780D02*
X14646Y6768D01*
X14655Y6759D01*
X14668Y6755D01*
X14680Y6759D01*
X14690Y6768D01*
X14693Y6780D01*
X14718D02*
Y6580D01*
X14618D02*
Y6780D01*
Y6580D02*
X14718D01*
Y6780D02*
X14693D01*
X14643D02*
X14618D01*
X13198Y5782D02*
X13192Y5788D01*
X13180D01*
X13174Y5782D01*
Y5758D01*
X13180Y5753D01*
X13192D01*
X13198Y5758D01*
X13221Y5782D02*
X13232Y5788D01*
X13221Y5782D02*
X13209Y5770D01*
Y5758D01*
X13215Y5753D01*
X13227D01*
X13232Y5758D01*
Y5764D01*
X13227Y5770D01*
X13209D01*
X13244Y5782D02*
X13250Y5788D01*
X13262D01*
X13267Y5782D01*
Y5758D01*
X13262Y5753D01*
X13250D01*
X13244Y5758D01*
Y5782D01*
X13341Y5788D02*
X13347Y5782D01*
X13341Y5788D02*
X13330D01*
X13324Y5782D01*
Y5758D01*
X13330Y5753D01*
X13341D01*
X13347Y5758D01*
X13370Y5782D02*
X13382Y5788D01*
X13370Y5782D02*
X13359Y5770D01*
Y5758D01*
X13365Y5753D01*
X13376D01*
X13382Y5758D01*
Y5764D01*
X13376Y5770D01*
X13359D01*
X13394Y5753D02*
X13417D01*
X13394D02*
X13417Y5776D01*
Y5782D01*
X13411Y5788D01*
X13400D01*
X13394Y5782D01*
X13333Y6393D02*
X13321D01*
X13327D02*
X13333D01*
X13327D02*
Y6358D01*
X13321D01*
X13333D01*
X13368Y6393D02*
X13373Y6387D01*
X13368Y6393D02*
X13356D01*
X13350Y6387D01*
Y6364D01*
X13356Y6358D01*
X13368D01*
X13373Y6364D01*
X13385Y6358D02*
X13408D01*
X13385D02*
X13408Y6381D01*
Y6387D01*
X13403Y6393D01*
X13391D01*
X13385Y6387D01*
X13420Y6358D02*
X13432D01*
X13426D01*
Y6393D01*
X13427D01*
X13426D02*
X13420Y6387D01*
X13485Y6423D02*
X13491Y6417D01*
X13485Y6423D02*
X13474D01*
X13468Y6417D01*
Y6394D01*
X13474Y6388D01*
X13485D01*
X13491Y6394D01*
X13503Y6388D02*
X13515D01*
X13509D01*
Y6423D01*
X13510D01*
X13509D02*
X13503Y6417D01*
X13532D02*
X13538Y6423D01*
X13550D01*
X13555Y6417D01*
Y6394D01*
X13550Y6388D01*
X13538D01*
X13532Y6394D01*
Y6417D01*
X13579D02*
X13590Y6423D01*
X13579Y6417D02*
X13567Y6405D01*
Y6394D01*
X13573Y6388D01*
X13585D01*
X13590Y6394D01*
Y6400D01*
X13585Y6405D01*
X13567D01*
X13112Y5803D02*
X13106Y5798D01*
Y5786D01*
X13112Y5780D01*
X13135D01*
X13141Y5786D01*
Y5798D01*
X13135Y5803D01*
X13112Y5827D02*
X13106Y5838D01*
X13112Y5827D02*
X13123Y5815D01*
X13135D01*
X13141Y5821D01*
Y5833D01*
X13135Y5838D01*
X13129D01*
X13123Y5833D01*
Y5815D01*
X13141Y5850D02*
Y5862D01*
Y5856D01*
X13106D01*
X13107D01*
X13106D02*
X13112Y5850D01*
X13682Y6342D02*
X13690Y6355D01*
X13705D01*
X13712Y6342D01*
X13727D02*
Y6457D01*
X13667D02*
Y6342D01*
X13712D02*
X13727D01*
Y6457D02*
X13667D01*
Y6342D02*
X13682D01*
X13623Y6516D02*
X13611D01*
X13617D02*
X13623D01*
X13617D02*
Y6481D01*
X13611D01*
X13623D01*
X13658Y6516D02*
X13664Y6510D01*
X13658Y6516D02*
X13646D01*
X13640Y6510D01*
Y6487D01*
X13646Y6481D01*
X13658D01*
X13664Y6487D01*
X13675Y6481D02*
X13687D01*
X13681D01*
Y6516D01*
X13682D01*
X13681D02*
X13675Y6510D01*
X13704D02*
X13710Y6516D01*
X13722D01*
X13728Y6510D01*
Y6504D01*
X13722Y6498D01*
X13728Y6493D01*
Y6487D01*
X13722Y6481D01*
X13710D01*
X13704Y6487D01*
Y6493D01*
X13710Y6498D01*
X13704Y6504D01*
Y6510D01*
X13710Y6498D02*
X13722D01*
X13912Y6238D02*
Y6203D01*
X13935D01*
X13947Y6233D02*
X13952Y6238D01*
X13964D01*
X13970Y6233D01*
Y6227D01*
X13971D01*
X13970D02*
X13971D01*
X13970D02*
X13971D01*
X13970D02*
X13964Y6221D01*
X13958D01*
X13964D01*
X13970Y6215D01*
Y6209D01*
X13964Y6203D01*
X13952D01*
X13947Y6209D01*
X13982D02*
X13987Y6203D01*
X13999D01*
X14005Y6209D01*
Y6233D01*
X13999Y6238D01*
X13987D01*
X13982Y6233D01*
Y6227D01*
X13987Y6221D01*
X14005D01*
X13838Y6276D02*
X13803D01*
X13838D02*
Y6300D01*
Y6329D02*
X13803D01*
X13820Y6311D01*
Y6335D01*
X13838Y6346D02*
Y6370D01*
Y6346D02*
X13814Y6370D01*
X13808D01*
X13803Y6364D01*
Y6352D01*
X13808Y6346D01*
X13635Y6262D02*
X13629Y6268D01*
X13617D01*
X13611Y6262D01*
Y6239D01*
X13617Y6233D01*
X13629D01*
X13635Y6239D01*
X13646Y6233D02*
X13658D01*
X13652D01*
Y6268D01*
X13653D01*
X13652D02*
X13646Y6262D01*
X13675D02*
X13681Y6268D01*
X13693D01*
X13699Y6262D01*
Y6256D01*
X13700D01*
X13699D02*
X13700D01*
X13699D02*
X13700D01*
X13699D02*
X13693Y6250D01*
X13687D01*
X13693D01*
X13699Y6245D01*
Y6239D01*
X13693Y6233D01*
X13681D01*
X13675Y6239D01*
X13710Y6233D02*
X13722D01*
X13716D01*
Y6268D01*
X13717D01*
X13716D02*
X13710Y6262D01*
X13771Y6563D02*
X13765Y6569D01*
X13753D01*
X13747Y6563D01*
Y6540D01*
X13753Y6534D01*
X13765D01*
X13771Y6540D01*
X13782Y6534D02*
X13794D01*
X13788D01*
Y6569D01*
X13789D01*
X13788D02*
X13782Y6563D01*
X13811D02*
X13817Y6569D01*
X13829D01*
X13835Y6563D01*
Y6557D01*
X13836D01*
X13835D02*
X13836D01*
X13835D02*
X13836D01*
X13835D02*
X13829Y6552D01*
X13823D01*
X13829D01*
X13835Y6546D01*
Y6540D01*
X13829Y6534D01*
X13817D01*
X13811Y6540D01*
X13846Y6534D02*
X13870D01*
X13846D02*
X13870Y6557D01*
Y6563D01*
X13864Y6569D01*
X13852D01*
X13846Y6563D01*
X14054Y5817D02*
X14060Y5811D01*
X14054Y5817D02*
X14042D01*
X14036Y5811D01*
Y5788D01*
X14042Y5782D01*
X14054D01*
X14060Y5788D01*
X14071Y5782D02*
X14083D01*
X14077D01*
Y5817D01*
X14078D01*
X14077D02*
X14071Y5811D01*
X14101Y5782D02*
X14112D01*
X14106D01*
Y5817D01*
X14107D01*
X14106D02*
X14101Y5811D01*
X14130Y5782D02*
X14141D01*
X14136D01*
Y5817D01*
X14137D01*
X14136D02*
X14130Y5811D01*
X12703Y8479D02*
X12698Y8484D01*
X12686D01*
X12680Y8479D01*
Y8455D01*
X12686Y8449D01*
X12698D01*
X12703Y8455D01*
X12715Y8484D02*
X12738D01*
Y8479D01*
X12715Y8455D01*
Y8449D01*
X12750Y8484D02*
X12773D01*
Y8479D01*
X12750Y8455D01*
Y8449D01*
X12239Y8463D02*
Y8498D01*
Y8463D02*
X12262D01*
X12292D02*
Y8498D01*
X12274Y8481D01*
X12297D01*
X12309Y8492D02*
X12315Y8498D01*
X12327D01*
X12332Y8492D01*
Y8487D01*
X12333D01*
X12332D02*
X12333D01*
X12332D02*
X12333D01*
X12332D02*
X12327Y8481D01*
X12321D01*
X12327D01*
X12332Y8475D01*
Y8469D01*
X12327Y8463D01*
X12315D01*
X12309Y8469D01*
X11959Y8488D02*
X11953Y8494D01*
X11942D01*
X11936Y8488D01*
Y8465D01*
X11942Y8459D01*
X11953D01*
X11959Y8465D01*
X11971Y8459D02*
X11983D01*
X11977D01*
Y8494D01*
X11978D01*
X11977D02*
X11971Y8488D01*
X12000Y8459D02*
X12023D01*
X12000D02*
X12023Y8483D01*
Y8488D01*
X12018Y8494D01*
X12006D01*
X12000Y8488D01*
X12035Y8494D02*
X12058D01*
X12035D02*
Y8477D01*
X12047Y8483D01*
X12053D01*
X12058Y8477D01*
Y8465D01*
X12053Y8459D01*
X12041D01*
X12035Y8465D01*
X12818Y8429D02*
X12830D01*
X12824D01*
Y8394D01*
X12818D01*
X12830D01*
X12865Y8429D02*
X12870Y8423D01*
X12865Y8429D02*
X12853D01*
X12847Y8423D01*
Y8400D01*
X12853Y8394D01*
X12865D01*
X12870Y8400D01*
X12882Y8423D02*
X12888Y8429D01*
X12900D01*
X12905Y8423D01*
Y8418D01*
X12906D01*
X12905D02*
X12906D01*
X12905D02*
X12906D01*
X12905D02*
X12900Y8412D01*
X12894D01*
X12900D01*
X12905Y8406D01*
Y8400D01*
X12900Y8394D01*
X12888D01*
X12882Y8400D01*
X12917Y8423D02*
X12923Y8429D01*
X12935D01*
X12940Y8423D01*
Y8400D01*
X12935Y8394D01*
X12923D01*
X12917Y8400D01*
Y8423D01*
X11552Y7133D02*
Y7098D01*
X11575D01*
X11587D02*
X11599D01*
X11593D01*
Y7133D01*
X11594D01*
X11593D02*
X11587Y7127D01*
X11634Y7133D02*
Y7098D01*
X11616Y7115D02*
X11634Y7133D01*
X11639Y7115D02*
X11616D01*
X12981Y7855D02*
X12987Y7849D01*
X12981Y7855D02*
X12969D01*
X12964Y7849D01*
Y7825D01*
X12969Y7820D01*
X12981D01*
X12987Y7825D01*
X12999Y7820D02*
X13010D01*
X13004D01*
Y7855D01*
X13005D01*
X13004D02*
X12999Y7849D01*
X13028D02*
X13034Y7855D01*
X13045D01*
X13051Y7849D01*
Y7825D01*
X13045Y7820D01*
X13034D01*
X13028Y7825D01*
Y7849D01*
X13080Y7855D02*
Y7820D01*
X13063Y7837D02*
X13080Y7855D01*
X13086Y7837D02*
X13063D01*
X12246Y7194D02*
X12240Y7200D01*
X12229D01*
X12223Y7194D01*
Y7171D01*
X12229Y7165D01*
X12240D01*
X12246Y7171D01*
X12258Y7194D02*
X12264Y7200D01*
X12275D01*
X12281Y7194D01*
Y7188D01*
X12275Y7182D01*
X12281Y7177D01*
Y7171D01*
X12275Y7165D01*
X12264D01*
X12258Y7171D01*
Y7177D01*
X12264Y7182D01*
X12258Y7188D01*
Y7194D01*
X12264Y7182D02*
X12275D01*
X12293Y7200D02*
X12316D01*
X12293D02*
Y7182D01*
X12305Y7188D01*
X12310D01*
X12316Y7182D01*
Y7171D01*
X12310Y7165D01*
X12299D01*
X12293Y7171D01*
X11481Y7051D02*
X11475Y7057D01*
X11463D01*
X11458Y7051D01*
Y7028D01*
X11463Y7022D01*
X11475D01*
X11481Y7028D01*
X11493Y7051D02*
X11498Y7057D01*
X11510D01*
X11516Y7051D01*
Y7046D01*
X11517D01*
X11516D02*
X11517D01*
X11516D02*
X11517D01*
X11516D02*
X11510Y7040D01*
X11504D01*
X11510D01*
X11516Y7034D01*
Y7028D01*
X11510Y7022D01*
X11498D01*
X11493Y7028D01*
X11528Y7057D02*
X11551D01*
X11528D02*
Y7040D01*
X11539Y7046D01*
X11545D01*
X11551Y7040D01*
Y7028D01*
X11545Y7022D01*
X11533D01*
X11528Y7028D01*
X11473Y7544D02*
X11467Y7549D01*
X11456D01*
X11450Y7544D01*
Y7520D01*
X11456Y7514D01*
X11467D01*
X11473Y7520D01*
X11485Y7544D02*
X11491Y7549D01*
X11502D01*
X11508Y7544D01*
Y7538D01*
X11509D01*
X11508D02*
X11509D01*
X11508D02*
X11509D01*
X11508D02*
X11502Y7532D01*
X11496D01*
X11502D01*
X11508Y7526D01*
Y7520D01*
X11502Y7514D01*
X11491D01*
X11485Y7520D01*
X11520Y7544D02*
X11526Y7549D01*
X11537D01*
X11543Y7544D01*
Y7538D01*
X11537Y7532D01*
X11543Y7526D01*
Y7520D01*
X11537Y7514D01*
X11526D01*
X11520Y7520D01*
Y7526D01*
X11526Y7532D01*
X11520Y7538D01*
Y7544D01*
X11526Y7532D02*
X11537D01*
X12241Y7648D02*
X12276D01*
Y7631D01*
X12270Y7625D01*
X12259D01*
X12253Y7631D01*
Y7648D01*
Y7637D02*
X12241Y7625D01*
Y7596D02*
X12276D01*
X12259Y7613D01*
Y7590D01*
X12276Y7578D02*
Y7555D01*
Y7578D02*
X12259D01*
X12264Y7567D01*
Y7561D01*
X12259Y7555D01*
X12247D01*
X12241Y7561D01*
Y7572D01*
X12247Y7578D01*
X12312Y7648D02*
X12347D01*
Y7631D01*
X12341Y7625D01*
X12329D01*
X12324Y7631D01*
Y7648D01*
Y7637D02*
X12312Y7625D01*
X12341Y7613D02*
X12347Y7607D01*
Y7596D01*
X12341Y7590D01*
X12335D01*
X12336D01*
X12335D02*
X12336D01*
X12335D02*
X12336D01*
X12335D02*
X12329Y7596D01*
Y7602D01*
Y7596D01*
X12324Y7590D01*
X12318D01*
X12312Y7596D01*
Y7607D01*
X12318Y7613D01*
Y7578D02*
X12312Y7572D01*
Y7561D01*
X12318Y7555D01*
X12341D01*
X12347Y7561D01*
Y7572D01*
X12341Y7578D01*
X12335D01*
X12329Y7572D01*
Y7555D01*
X11684Y7471D02*
Y7436D01*
Y7471D02*
X11701D01*
X11707Y7465D01*
Y7453D01*
X11701Y7448D01*
X11684D01*
X11696D02*
X11707Y7436D01*
X11719D02*
X11731D01*
X11725D01*
Y7471D01*
X11726D01*
X11725D02*
X11719Y7465D01*
X11748D02*
X11754Y7471D01*
X11766D01*
X11771Y7465D01*
Y7442D01*
X11766Y7436D01*
X11754D01*
X11748Y7442D01*
Y7465D01*
X11829Y7209D02*
Y7174D01*
Y7209D02*
X11846D01*
X11852Y7203D01*
Y7191D01*
X11846Y7186D01*
X11829D01*
X11841D02*
X11852Y7174D01*
X11864Y7203D02*
X11870Y7209D01*
X11881D01*
X11887Y7203D01*
Y7197D01*
X11888D01*
X11887D02*
X11888D01*
X11887D02*
X11888D01*
X11887D02*
X11881Y7191D01*
X11876D01*
X11881D01*
X11887Y7186D01*
Y7180D01*
X11881Y7174D01*
X11870D01*
X11864Y7180D01*
X11899Y7174D02*
X11922D01*
X11899D02*
X11922Y7197D01*
Y7203D01*
X11916Y7209D01*
X11905D01*
X11899Y7203D01*
X11950Y6922D02*
Y6887D01*
Y6922D02*
X11967D01*
X11973Y6916D01*
Y6904D01*
X11967Y6899D01*
X11950D01*
X11962D02*
X11973Y6887D01*
X11985D02*
X11997D01*
X11991D01*
Y6922D01*
X11992D01*
X11991D02*
X11985Y6916D01*
X12014D02*
X12020Y6922D01*
X12032D01*
X12037Y6916D01*
Y6893D01*
X12032Y6887D01*
X12020D01*
X12014Y6893D01*
Y6916D01*
X12067Y6922D02*
Y6887D01*
X12049Y6904D02*
X12067Y6922D01*
X12072Y6904D02*
X12049D01*
X11685Y7173D02*
Y7208D01*
X11702D01*
X11708Y7202D01*
Y7190D01*
X11702Y7185D01*
X11685D01*
X11697D02*
X11708Y7173D01*
X11720Y7202D02*
X11726Y7208D01*
X11737D01*
X11743Y7202D01*
Y7196D01*
X11744D01*
X11743D02*
X11744D01*
X11743D02*
X11744D01*
X11743D02*
X11737Y7190D01*
X11732D01*
X11737D01*
X11743Y7185D01*
Y7179D01*
X11737Y7173D01*
X11726D01*
X11720Y7179D01*
X11755Y7202D02*
X11761Y7208D01*
X11772D01*
X11778Y7202D01*
Y7196D01*
X11779D01*
X11778D02*
X11779D01*
X11778D02*
X11779D01*
X11778D02*
X11772Y7190D01*
X11767D01*
X11772D01*
X11778Y7185D01*
Y7179D01*
X11772Y7173D01*
X11761D01*
X11755Y7179D01*
X11679Y6850D02*
Y6815D01*
Y6850D02*
X11696D01*
X11702Y6844D01*
Y6832D01*
X11696Y6827D01*
X11679D01*
X11691D02*
X11702Y6815D01*
X11714Y6844D02*
X11720Y6850D01*
X11731D01*
X11737Y6844D01*
Y6838D01*
X11738D01*
X11737D02*
X11738D01*
X11737D02*
X11738D01*
X11737D02*
X11731Y6832D01*
X11726D01*
X11731D01*
X11737Y6827D01*
Y6821D01*
X11731Y6815D01*
X11720D01*
X11714Y6821D01*
X11766Y6815D02*
Y6850D01*
X11749Y6832D01*
X11772D01*
X11851Y7434D02*
Y7469D01*
X11868D01*
X11874Y7463D01*
Y7451D01*
X11868Y7446D01*
X11851D01*
X11863D02*
X11874Y7434D01*
X11886D02*
X11898D01*
X11892D01*
Y7469D01*
X11893D01*
X11892D02*
X11886Y7463D01*
X11954Y7331D02*
X11960Y7325D01*
X11954Y7331D02*
X11943D01*
X11937Y7325D01*
Y7302D01*
X11943Y7296D01*
X11954D01*
X11960Y7302D01*
X11972Y7296D02*
X11984D01*
X11978D01*
Y7331D01*
X11979D01*
X11978D02*
X11972Y7325D01*
X12001Y7296D02*
X12024D01*
X12001D02*
X12024Y7319D01*
Y7325D01*
X12019Y7331D01*
X12007D01*
X12001Y7325D01*
X12036Y7296D02*
X12048D01*
X12042D01*
Y7331D01*
X12043D01*
X12042D02*
X12036Y7325D01*
X11962Y8394D02*
Y8429D01*
X11979D01*
X11985Y8423D01*
Y8412D01*
X11979Y8406D01*
X11962D01*
X11973D02*
X11985Y8394D01*
X12014D02*
Y8429D01*
X11997Y8412D01*
X12020D01*
X12032Y8429D02*
X12055D01*
Y8423D01*
X12032Y8400D01*
Y8394D01*
X11964Y8356D02*
Y8321D01*
Y8356D02*
X11981D01*
X11987Y8351D01*
Y8339D01*
X11981Y8333D01*
X11964D01*
X11975D02*
X11987Y8321D01*
X11999Y8356D02*
X12022D01*
X11999D02*
Y8339D01*
X12010Y8345D01*
X12016D01*
X12022Y8339D01*
Y8327D01*
X12016Y8321D01*
X12004D01*
X11999Y8327D01*
X12034Y8351D02*
X12039Y8356D01*
X12051D01*
X12057Y8351D01*
Y8345D01*
X12051Y8339D01*
X12057Y8333D01*
Y8327D01*
X12051Y8321D01*
X12039D01*
X12034Y8327D01*
Y8333D01*
X12039Y8339D01*
X12034Y8345D01*
Y8351D01*
X12039Y8339D02*
X12051D01*
X12611Y7811D02*
Y7776D01*
Y7811D02*
X12629D01*
X12635Y7805D01*
Y7794D01*
X12629Y7788D01*
X12611D01*
X12623D02*
X12635Y7776D01*
X12646Y7805D02*
X12652Y7811D01*
X12664D01*
X12670Y7805D01*
Y7800D01*
X12671D01*
X12670D02*
X12671D01*
X12670D02*
X12671D01*
X12670D02*
X12664Y7794D01*
X12658D01*
X12664D01*
X12670Y7788D01*
Y7782D01*
X12664Y7776D01*
X12652D01*
X12646Y7782D01*
X12681Y7811D02*
X12704D01*
Y7805D01*
X12681Y7782D01*
Y7776D01*
X12963Y5792D02*
X12969Y5786D01*
X12963Y5792D02*
X12952D01*
X12946Y5786D01*
Y5762D01*
X12952Y5757D01*
X12963D01*
X12969Y5762D01*
X12981Y5786D02*
X12987Y5792D01*
X12998D01*
X13004Y5786D01*
Y5780D01*
X13005D01*
X13004D02*
X13005D01*
X13004D02*
X13005D01*
X13004D02*
X12998Y5774D01*
X12992D01*
X12998D01*
X13004Y5768D01*
Y5762D01*
X12998Y5757D01*
X12987D01*
X12981Y5762D01*
X13016Y5757D02*
X13027D01*
X13022D01*
Y5792D01*
X13023D01*
X13022D02*
X13016Y5786D01*
X12228Y6459D02*
X12222Y6465D01*
X12211D01*
X12205Y6459D01*
Y6436D01*
X12211Y6430D01*
X12222D01*
X12228Y6436D01*
X12240Y6459D02*
X12246Y6465D01*
X12257D01*
X12263Y6459D01*
Y6453D01*
X12257Y6447D01*
X12263Y6442D01*
Y6436D01*
X12257Y6430D01*
X12246D01*
X12240Y6436D01*
Y6442D01*
X12246Y6447D01*
X12240Y6453D01*
Y6459D01*
X12246Y6447D02*
X12257D01*
X12292Y6430D02*
Y6465D01*
X12275Y6447D01*
X12298D01*
X12945Y6398D02*
X12950Y6404D01*
X12945Y6398D02*
Y6386D01*
X12950Y6381D01*
X12974D01*
X12980Y6386D01*
Y6398D01*
X12974Y6404D01*
X12950Y6416D02*
X12945Y6421D01*
Y6433D01*
X12950Y6439D01*
X12956D01*
X12962Y6433D01*
X12968Y6439D01*
X12974D01*
X12980Y6433D01*
Y6421D01*
X12974Y6416D01*
X12968D01*
X12962Y6421D01*
X12956Y6416D01*
X12950D01*
X12962Y6421D02*
Y6433D01*
X12950Y6451D02*
X12945Y6456D01*
Y6468D01*
X12950Y6474D01*
X12974D01*
X12980Y6468D01*
Y6456D01*
X12974Y6451D01*
X12950D01*
X11947Y6457D02*
Y6422D01*
Y6457D02*
X11964D01*
X11970Y6451D01*
Y6439D01*
X11964Y6434D01*
X11947D01*
X11959D02*
X11970Y6422D01*
X11982Y6457D02*
X12005D01*
X11982D02*
Y6439D01*
X11994Y6445D01*
X11999D01*
X12005Y6439D01*
Y6428D01*
X11999Y6422D01*
X11988D01*
X11982Y6428D01*
X12034Y6422D02*
Y6457D01*
X12017Y6439D01*
X12040D01*
X11806Y6457D02*
Y6422D01*
Y6457D02*
X11824D01*
X11829Y6451D01*
Y6439D01*
X11824Y6434D01*
X11806D01*
X11818D02*
X11829Y6422D01*
X11841Y6457D02*
X11864D01*
X11841D02*
Y6439D01*
X11853Y6445D01*
X11859D01*
X11864Y6439D01*
Y6428D01*
X11859Y6422D01*
X11847D01*
X11841Y6428D01*
X11876Y6451D02*
X11882Y6457D01*
X11894D01*
X11899Y6451D01*
Y6445D01*
X11900D01*
X11899D02*
X11900D01*
X11899D02*
X11900D01*
X11899D02*
X11894Y6439D01*
X11888D01*
X11894D01*
X11899Y6434D01*
Y6428D01*
X11894Y6422D01*
X11882D01*
X11876Y6428D01*
X11851Y5794D02*
X11847Y5781D01*
X11835Y5775D01*
X11821Y5777D01*
X11813Y5787D01*
Y5801D01*
X11821Y5812D01*
X11835Y5814D01*
X11847Y5807D01*
X11851Y5794D01*
X11021Y5782D02*
Y6259D01*
X11745D02*
Y5782D01*
X11021D01*
Y6259D02*
X11745D01*
X10978Y6270D02*
Y6282D01*
Y6276D01*
X11013D01*
Y6270D01*
Y6282D01*
X10978Y6317D02*
X10984Y6323D01*
X10978Y6317D02*
Y6305D01*
X10984Y6299D01*
X11007D01*
X11013Y6305D01*
Y6317D01*
X11007Y6323D01*
X11013Y6334D02*
Y6358D01*
Y6334D02*
X10989Y6358D01*
X10984D01*
X10978Y6352D01*
Y6340D01*
X10984Y6334D01*
Y6369D02*
X10978Y6375D01*
Y6387D01*
X10984Y6393D01*
X10989D01*
X10990D01*
X10989D02*
X10990D01*
X10989D02*
X10990D01*
X10989D02*
X10995Y6387D01*
Y6381D01*
Y6387D01*
X11001Y6393D01*
X11007D01*
X11013Y6387D01*
Y6375D01*
X11007Y6369D01*
X11868Y6170D02*
X11873Y6176D01*
X11868Y6170D02*
Y6158D01*
X11873Y6152D01*
X11897D01*
X11903Y6158D01*
Y6170D01*
X11897Y6176D01*
X11903Y6187D02*
Y6199D01*
Y6193D01*
X11868D01*
X11869D01*
X11868D02*
X11873Y6187D01*
Y6216D02*
X11868Y6222D01*
Y6234D01*
X11873Y6240D01*
X11897D01*
X11903Y6234D01*
Y6222D01*
X11897Y6216D01*
X11873D01*
X11897Y6251D02*
X11903Y6257D01*
Y6269D01*
X11897Y6275D01*
X11873D01*
X11868Y6269D01*
Y6257D01*
X11873Y6251D01*
X11879D01*
X11885Y6257D01*
Y6275D01*
X13045Y6034D02*
X13051Y6040D01*
X13045Y6034D02*
Y6022D01*
X13051Y6016D01*
X13074D01*
X13080Y6022D01*
Y6034D01*
X13074Y6040D01*
X13045Y6051D02*
Y6075D01*
X13051D01*
X13074Y6051D01*
X13080D01*
X13051Y6086D02*
X13045Y6092D01*
Y6104D01*
X13051Y6110D01*
X13056D01*
X13062Y6104D01*
X13068Y6110D01*
X13074D01*
X13080Y6104D01*
Y6092D01*
X13074Y6086D01*
X13068D01*
X13062Y6092D01*
X13056Y6086D01*
X13051D01*
X13062Y6092D02*
Y6104D01*
X11855Y5856D02*
Y5821D01*
Y5856D02*
X11873D01*
X11879Y5851D01*
Y5839D01*
X11873Y5833D01*
X11855D01*
X11867D02*
X11879Y5821D01*
X11908D02*
Y5856D01*
X11890Y5839D01*
X11914D01*
X11925Y5851D02*
X11931Y5856D01*
X11943D01*
X11949Y5851D01*
Y5845D01*
X11943Y5839D01*
X11949Y5833D01*
Y5827D01*
X11943Y5821D01*
X11931D01*
X11925Y5827D01*
Y5833D01*
X11931Y5839D01*
X11925Y5845D01*
Y5851D01*
X11931Y5839D02*
X11943D01*
X11875Y5920D02*
Y5955D01*
X11892D01*
X11898Y5949D01*
Y5937D01*
X11892Y5932D01*
X11875D01*
X11887D02*
X11898Y5920D01*
X11927D02*
Y5955D01*
X11910Y5937D01*
X11933D01*
X11945Y5926D02*
X11951Y5920D01*
X11962D01*
X11968Y5926D01*
Y5949D01*
X11962Y5955D01*
X11951D01*
X11945Y5949D01*
Y5943D01*
X11951Y5937D01*
X11968D01*
X11964Y6008D02*
X11929D01*
Y6026D01*
X11934Y6032D01*
X11946D01*
X11952Y6026D01*
Y6008D01*
Y6020D02*
X11964Y6032D01*
X11929Y6043D02*
Y6067D01*
Y6043D02*
X11946D01*
X11940Y6055D01*
Y6061D01*
X11946Y6067D01*
X11958D01*
X11964Y6061D01*
Y6049D01*
X11958Y6043D01*
X11934Y6078D02*
X11929Y6084D01*
Y6096D01*
X11934Y6102D01*
X11958D01*
X11964Y6096D01*
Y6084D01*
X11958Y6078D01*
X11934D01*
X11962Y6325D02*
X11957Y6312D01*
X11946Y6305D01*
X11932Y6308D01*
X11923Y6318D01*
Y6332D01*
X11932Y6342D01*
X11946Y6345D01*
X11957Y6338D01*
X11962Y6325D01*
X12029Y6338D02*
Y5782D01*
X12753D02*
Y6338D01*
X12029D01*
Y5782D02*
X12753D01*
X12532Y6384D02*
X12521D01*
X12526D02*
X12532D01*
X12526D02*
Y6349D01*
X12521D01*
X12532D01*
X12567Y6384D02*
X12573Y6378D01*
X12567Y6384D02*
X12556D01*
X12550Y6378D01*
Y6355D01*
X12556Y6349D01*
X12567D01*
X12573Y6355D01*
X12585Y6349D02*
X12596D01*
X12591D01*
Y6384D01*
X12592D01*
X12591D02*
X12585Y6378D01*
X12626D02*
X12637Y6384D01*
X12626Y6378D02*
X12614Y6367D01*
Y6355D01*
X12620Y6349D01*
X12631D01*
X12637Y6355D01*
Y6361D01*
X12631Y6367D01*
X12614D01*
X11947Y6740D02*
Y6775D01*
X11964D01*
X11970Y6769D01*
Y6757D01*
X11964Y6752D01*
X11947D01*
X11959D02*
X11970Y6740D01*
X11982D02*
X11994D01*
X11988D01*
Y6775D01*
X11989D01*
X11988D02*
X11982Y6769D01*
X12011D02*
X12017Y6775D01*
X12029D01*
X12034Y6769D01*
Y6746D01*
X12029Y6740D01*
X12017D01*
X12011Y6746D01*
Y6769D01*
X12046Y6775D02*
X12069D01*
X12046D02*
Y6757D01*
X12058Y6763D01*
X12064D01*
X12069Y6757D01*
Y6746D01*
X12064Y6740D01*
X12052D01*
X12046Y6746D01*
X11688Y6719D02*
Y6684D01*
Y6719D02*
X11705D01*
X11711Y6713D01*
Y6701D01*
X11705Y6696D01*
X11688D01*
X11700D02*
X11711Y6684D01*
X11723Y6713D02*
X11729Y6719D01*
X11740D01*
X11746Y6713D01*
Y6707D01*
X11747D01*
X11746D02*
X11747D01*
X11746D02*
X11747D01*
X11746D02*
X11740Y6701D01*
X11735D01*
X11740D01*
X11746Y6696D01*
Y6690D01*
X11740Y6684D01*
X11729D01*
X11723Y6690D01*
X11758Y6719D02*
X11781D01*
X11758D02*
Y6701D01*
X11770Y6707D01*
X11775D01*
X11781Y6701D01*
Y6690D01*
X11775Y6684D01*
X11764D01*
X11758Y6690D01*
X11963Y6853D02*
X11969Y6847D01*
X11963Y6853D02*
X11952D01*
X11946Y6847D01*
Y6824D01*
X11952Y6818D01*
X11963D01*
X11969Y6824D01*
X11981Y6818D02*
X11993D01*
X11987D01*
Y6853D01*
X11988D01*
X11987D02*
X11981Y6847D01*
X12010Y6818D02*
X12033D01*
X12010D02*
X12033Y6841D01*
Y6847D01*
X12028Y6853D01*
X12016D01*
X12010Y6847D01*
X12045Y6818D02*
X12068D01*
X12045D02*
X12068Y6841D01*
Y6847D01*
X12063Y6853D01*
X12051D01*
X12045Y6847D01*
X11323Y7179D02*
X11317Y7185D01*
X11305D01*
X11299Y7179D01*
Y7156D01*
X11305Y7150D01*
X11317D01*
X11323Y7156D01*
X11334Y7179D02*
X11340Y7185D01*
X11352D01*
X11357Y7179D01*
Y7174D01*
X11352Y7168D01*
X11357Y7162D01*
Y7156D01*
X11352Y7150D01*
X11340D01*
X11334Y7156D01*
Y7162D01*
X11340Y7168D01*
X11334Y7174D01*
Y7179D01*
X11340Y7168D02*
X11352D01*
X11369Y7150D02*
X11381D01*
X11375D01*
Y7185D01*
X11376D01*
X11375D02*
X11369Y7179D01*
X10503Y8343D02*
Y8355D01*
Y8349D02*
Y8343D01*
Y8349D02*
X10532D01*
X10538Y8343D01*
Y8338D01*
X10532Y8332D01*
X10509Y8378D02*
X10503Y8390D01*
X10509Y8378D02*
X10521Y8367D01*
X10532D01*
X10538Y8372D01*
Y8384D01*
X10532Y8390D01*
X10526D01*
X10521Y8384D01*
Y8367D01*
X11336Y7549D02*
Y7514D01*
X11359D01*
X11371D02*
X11382D01*
X11376D01*
Y7549D01*
X11377D01*
X11376D02*
X11371Y7544D01*
X11400Y7514D02*
X11423D01*
X11400D02*
X11423Y7538D01*
Y7544D01*
X11417Y7549D01*
X11406D01*
X11400Y7544D01*
X11347Y7057D02*
Y7022D01*
X11371D01*
X11382D02*
X11394D01*
X11388D01*
Y7057D01*
X11389D01*
X11388D02*
X11382Y7051D01*
X11412Y7022D02*
X11423D01*
X11417D01*
Y7057D01*
X11418D01*
X11417D02*
X11412Y7051D01*
X10914Y7359D02*
X10908Y7364D01*
X10897D01*
X10891Y7359D01*
Y7335D01*
X10897Y7329D01*
X10908D01*
X10914Y7335D01*
X10926Y7329D02*
X10937D01*
X10932D01*
Y7364D01*
X10933D01*
X10932D02*
X10926Y7359D01*
X10955Y7329D02*
X10967D01*
X10961D01*
Y7364D01*
X10962D01*
X10961D02*
X10955Y7359D01*
X10984Y7335D02*
X10990Y7329D01*
X11002D01*
X11007Y7335D01*
Y7359D01*
X11002Y7364D01*
X10990D01*
X10984Y7359D01*
Y7353D01*
X10990Y7347D01*
X11007D01*
X11386Y7803D02*
X11381Y7809D01*
X11369D01*
X11363Y7803D01*
Y7780D01*
X11369Y7774D01*
X11381D01*
X11386Y7780D01*
X11398Y7809D02*
X11421D01*
X11398D02*
Y7792D01*
X11410Y7798D01*
X11416D01*
X11421Y7792D01*
Y7780D01*
X11416Y7774D01*
X11404D01*
X11398Y7780D01*
X11445Y7803D02*
X11456Y7809D01*
X11445Y7803D02*
X11433Y7792D01*
Y7780D01*
X11439Y7774D01*
X11451D01*
X11456Y7780D01*
Y7786D01*
X11451Y7792D01*
X11433D01*
X11036Y7597D02*
Y7562D01*
X11060D01*
X11071Y7597D02*
X11095D01*
Y7591D01*
X11071Y7567D01*
Y7562D01*
X10792Y7364D02*
Y7329D01*
X10816D01*
X10839Y7359D02*
X10851Y7364D01*
X10839Y7359D02*
X10827Y7347D01*
Y7335D01*
X10833Y7329D01*
X10845D01*
X10851Y7335D01*
Y7341D01*
X10845Y7347D01*
X10827D01*
X11064Y7140D02*
Y7105D01*
X11087D01*
X11099Y7111D02*
X11105Y7105D01*
X11116D01*
X11122Y7111D01*
Y7134D01*
X11116Y7140D01*
X11105D01*
X11099Y7134D01*
Y7128D01*
X11105Y7122D01*
X11122D01*
X11024Y7532D02*
X11018Y7538D01*
X11007D01*
X11001Y7532D01*
Y7508D01*
X11007Y7503D01*
X11018D01*
X11024Y7508D01*
X11036Y7532D02*
X11042Y7538D01*
X11053D01*
X11059Y7532D01*
Y7526D01*
X11060D01*
X11059D02*
X11060D01*
X11059D02*
X11060D01*
X11059D02*
X11053Y7520D01*
X11048D01*
X11053D01*
X11059Y7514D01*
Y7508D01*
X11053Y7503D01*
X11042D01*
X11036Y7508D01*
X11071D02*
X11077Y7503D01*
X11088D01*
X11094Y7508D01*
Y7532D01*
X11088Y7538D01*
X11077D01*
X11071Y7532D01*
Y7526D01*
X11077Y7520D01*
X11094D01*
X11048Y7170D02*
X11042Y7164D01*
X11048Y7170D02*
Y7182D01*
X11042Y7188D01*
X11019D01*
X11013Y7182D01*
Y7170D01*
X11019Y7164D01*
X11013Y7135D02*
X11048D01*
X11030Y7153D01*
Y7129D01*
X11042Y7118D02*
X11048Y7112D01*
Y7100D01*
X11042Y7094D01*
X11019D01*
X11013Y7100D01*
Y7112D01*
X11019Y7118D01*
X11042D01*
X11295Y7250D02*
Y7261D01*
Y7255D01*
X11330D01*
Y7250D01*
Y7261D01*
X11295Y7296D02*
X11301Y7302D01*
X11295Y7296D02*
Y7285D01*
X11301Y7279D01*
X11324D01*
X11330Y7285D01*
Y7296D01*
X11324Y7302D01*
Y7314D02*
X11330Y7320D01*
Y7331D01*
X11324Y7337D01*
X11301D01*
X11295Y7331D01*
Y7320D01*
X11301Y7314D01*
X11306D01*
X11312Y7320D01*
Y7337D01*
X10969Y8177D02*
X10963Y8183D01*
X10952D01*
X10946Y8177D01*
Y8154D01*
X10952Y8148D01*
X10963D01*
X10969Y8154D01*
X10981Y8183D02*
X11004D01*
X10981D02*
Y8166D01*
X10992Y8172D01*
X10998D01*
X11004Y8166D01*
Y8154D01*
X10998Y8148D01*
X10987D01*
X10981Y8154D01*
X11033Y8148D02*
Y8183D01*
X11016Y8166D01*
X11039D01*
X11227Y8069D02*
X11233Y8063D01*
X11227Y8069D02*
X11215D01*
X11210Y8063D01*
Y8040D01*
X11215Y8034D01*
X11227D01*
X11233Y8040D01*
X11245Y8069D02*
X11268D01*
X11245D02*
Y8052D01*
X11256Y8057D01*
X11262D01*
X11268Y8052D01*
Y8040D01*
X11262Y8034D01*
X11250D01*
X11245Y8040D01*
X11280Y8069D02*
X11303D01*
X11280D02*
Y8052D01*
X11291Y8057D01*
X11297D01*
X11303Y8052D01*
Y8040D01*
X11297Y8034D01*
X11285D01*
X11280Y8040D01*
X11367Y7116D02*
Y7081D01*
Y7116D02*
X11385D01*
X11390Y7110D01*
Y7099D01*
X11385Y7093D01*
X11367D01*
X11379D02*
X11390Y7081D01*
X11420D02*
Y7116D01*
X11402Y7099D01*
X11425D01*
X11449Y7110D02*
X11460Y7116D01*
X11449Y7110D02*
X11437Y7099D01*
Y7087D01*
X11443Y7081D01*
X11455D01*
X11460Y7087D01*
Y7093D01*
X11455Y7099D01*
X11437D01*
X11367Y7558D02*
Y7593D01*
X11385D01*
X11390Y7587D01*
Y7575D01*
X11385Y7569D01*
X11367D01*
X11379D02*
X11390Y7558D01*
X11420D02*
Y7593D01*
X11402Y7575D01*
X11425D01*
X11455Y7558D02*
Y7593D01*
X11437Y7575D01*
X11460D01*
X10863Y7660D02*
X10851D01*
X10857D02*
X10863D01*
X10857D02*
Y7625D01*
X10851D01*
X10863D01*
X10898Y7660D02*
X10904Y7654D01*
X10898Y7660D02*
X10886D01*
X10881Y7654D01*
Y7630D01*
X10886Y7625D01*
X10898D01*
X10904Y7630D01*
X10915Y7625D02*
X10939D01*
X10915D02*
X10939Y7648D01*
Y7654D01*
X10933Y7660D01*
X10921D01*
X10915Y7654D01*
X10950Y7625D02*
X10974D01*
X10950D02*
X10974Y7648D01*
Y7654D01*
X10968Y7660D01*
X10956D01*
X10950Y7654D01*
X11474Y6929D02*
X11477Y6917D01*
X11486Y6908D01*
X11499Y6904D01*
X11511Y6908D01*
X11520Y6917D01*
X11524Y6929D01*
X11449D02*
Y6729D01*
X11549D02*
Y6929D01*
X11474D02*
X11449D01*
X11524D02*
X11549D01*
Y6729D02*
X11449D01*
X11577Y6968D02*
X11589D01*
X11583D01*
Y6933D01*
X11577D01*
X11589D01*
X11624Y6968D02*
X11629Y6962D01*
X11624Y6968D02*
X11612D01*
X11606Y6962D01*
Y6939D01*
X11612Y6933D01*
X11624D01*
X11629Y6939D01*
X11641Y6933D02*
X11653D01*
X11647D01*
Y6968D01*
X11648D01*
X11647D02*
X11641Y6962D01*
X11670Y6933D02*
X11694D01*
X11670D02*
X11694Y6956D01*
Y6962D01*
X11688Y6968D01*
X11676D01*
X11670Y6962D01*
X11524Y7421D02*
X11520Y7409D01*
X11511Y7400D01*
X11499Y7396D01*
X11486Y7400D01*
X11477Y7409D01*
X11474Y7421D01*
X11449D02*
Y7221D01*
X11549D02*
Y7421D01*
X11474D02*
X11449D01*
X11524D02*
X11549D01*
Y7221D02*
X11449D01*
X11549Y7451D02*
X11561D01*
X11555D01*
Y7416D01*
X11549D01*
X11561D01*
X11596Y7451D02*
X11601Y7445D01*
X11596Y7451D02*
X11584D01*
X11578Y7445D01*
Y7422D01*
X11584Y7416D01*
X11596D01*
X11601Y7422D01*
X11613Y7416D02*
X11625D01*
X11619D01*
Y7451D01*
X11620D01*
X11619D02*
X11613Y7445D01*
X11642D02*
X11648Y7451D01*
X11660D01*
X11666Y7445D01*
Y7422D01*
X11660Y7416D01*
X11648D01*
X11642Y7422D01*
Y7445D01*
X10946Y6935D02*
Y6900D01*
Y6935D02*
X10963D01*
X10969Y6929D01*
Y6918D01*
X10963Y6912D01*
X10946D01*
X10957D02*
X10969Y6900D01*
X10981Y6929D02*
X10987Y6935D01*
X10998D01*
X11004Y6929D01*
Y6924D01*
X11005D01*
X11004D02*
X11005D01*
X11004D02*
X11005D01*
X11004D02*
X10998Y6918D01*
X10992D01*
X10998D01*
X11004Y6912D01*
Y6906D01*
X10998Y6900D01*
X10987D01*
X10981Y6906D01*
X11027Y6929D02*
X11039Y6935D01*
X11027Y6929D02*
X11016Y6918D01*
Y6906D01*
X11022Y6900D01*
X11033D01*
X11039Y6906D01*
Y6912D01*
X11033Y6918D01*
X11016D01*
X10716Y7081D02*
X10710Y7087D01*
X10699D01*
X10693Y7081D01*
Y7058D01*
X10699Y7052D01*
X10710D01*
X10716Y7058D01*
X10728Y7087D02*
X10751D01*
X10728D02*
Y7069D01*
X10740Y7075D01*
X10745D01*
X10751Y7069D01*
Y7058D01*
X10745Y7052D01*
X10734D01*
X10728Y7058D01*
X10763Y7087D02*
X10786D01*
Y7081D01*
X10763Y7058D01*
Y7052D01*
X10698Y6943D02*
Y6908D01*
Y6943D02*
X10715D01*
X10721Y6937D01*
Y6925D01*
X10715Y6920D01*
X10698D01*
X10710D02*
X10721Y6908D01*
X10733Y6943D02*
X10756D01*
X10733D02*
Y6925D01*
X10745Y6931D01*
X10750D01*
X10756Y6925D01*
Y6914D01*
X10750Y6908D01*
X10739D01*
X10733Y6914D01*
X10768Y6943D02*
X10791D01*
Y6937D01*
X10768Y6914D01*
Y6908D01*
X10694Y6968D02*
Y7003D01*
X10711D01*
X10717Y6997D01*
Y6985D01*
X10711Y6980D01*
X10694D01*
X10706D02*
X10717Y6968D01*
X10729Y7003D02*
X10752D01*
X10729D02*
Y6985D01*
X10741Y6991D01*
X10746D01*
X10752Y6985D01*
Y6974D01*
X10746Y6968D01*
X10735D01*
X10729Y6974D01*
X10776Y6997D02*
X10787Y7003D01*
X10776Y6997D02*
X10764Y6985D01*
Y6974D01*
X10770Y6968D01*
X10781D01*
X10787Y6974D01*
Y6980D01*
X10781Y6985D01*
X10764D01*
X11258Y7060D02*
X11263Y7054D01*
X11258Y7060D02*
X11246D01*
X11240Y7054D01*
Y7031D01*
X11246Y7025D01*
X11258D01*
X11263Y7031D01*
X11275Y7054D02*
X11281Y7060D01*
X11293D01*
X11298Y7054D01*
Y7049D01*
X11299D01*
X11298D02*
X11299D01*
X11298D02*
X11299D01*
X11298D02*
X11293Y7043D01*
X11287D01*
X11293D01*
X11298Y7037D01*
Y7031D01*
X11293Y7025D01*
X11281D01*
X11275Y7031D01*
X11328Y7025D02*
Y7060D01*
X11310Y7043D01*
X11333D01*
X10076Y5925D02*
Y5890D01*
Y5925D02*
X10093D01*
X10099Y5920D01*
Y5908D01*
X10093Y5902D01*
X10076D01*
X10087D02*
X10099Y5890D01*
X10111D02*
X10122D01*
X10117D01*
Y5925D01*
X10118D01*
X10117D02*
X10111Y5920D01*
X10140D02*
X10146Y5925D01*
X10157D01*
X10163Y5920D01*
Y5896D01*
X10157Y5890D01*
X10146D01*
X10140Y5896D01*
Y5920D01*
X10175Y5896D02*
X10181Y5890D01*
X10192D01*
X10198Y5896D01*
Y5920D01*
X10192Y5925D01*
X10181D01*
X10175Y5920D01*
Y5914D01*
X10181Y5908D01*
X10198D01*
X10074Y5987D02*
Y6022D01*
X10091D01*
X10097Y6016D01*
Y6004D01*
X10091Y5999D01*
X10074D01*
X10085D02*
X10097Y5987D01*
X10109D02*
X10120D01*
X10115D01*
Y6022D01*
X10116D01*
X10115D02*
X10109Y6016D01*
X10138D02*
X10144Y6022D01*
X10155D01*
X10161Y6016D01*
Y5993D01*
X10155Y5987D01*
X10144D01*
X10138Y5993D01*
Y6016D01*
X10173D02*
X10179Y6022D01*
X10190D01*
X10196Y6016D01*
Y6010D01*
X10190Y6004D01*
X10196Y5999D01*
Y5993D01*
X10190Y5987D01*
X10179D01*
X10173Y5993D01*
Y5999D01*
X10179Y6004D01*
X10173Y6010D01*
Y6016D01*
X10179Y6004D02*
X10190D01*
X10078Y6064D02*
Y6099D01*
X10095D01*
X10101Y6093D01*
Y6081D01*
X10095Y6075D01*
X10078D01*
X10089D02*
X10101Y6064D01*
X10113D02*
X10124D01*
X10119D01*
Y6099D01*
X10120D01*
X10119D02*
X10113Y6093D01*
X10142D02*
X10148Y6099D01*
X10159D01*
X10165Y6093D01*
Y6069D01*
X10159Y6064D01*
X10148D01*
X10142Y6069D01*
Y6093D01*
X10177Y6099D02*
X10200D01*
Y6093D01*
X10177Y6069D01*
Y6064D01*
X10076Y6138D02*
Y6173D01*
X10093D01*
X10099Y6168D01*
Y6156D01*
X10093Y6150D01*
X10076D01*
X10087D02*
X10099Y6138D01*
X10111D02*
X10122D01*
X10117D01*
Y6173D01*
X10118D01*
X10117D02*
X10111Y6168D01*
X10140D02*
X10146Y6173D01*
X10157D01*
X10163Y6168D01*
Y6144D01*
X10157Y6138D01*
X10146D01*
X10140Y6144D01*
Y6168D01*
X10187D02*
X10198Y6173D01*
X10187Y6168D02*
X10175Y6156D01*
Y6144D01*
X10181Y6138D01*
X10192D01*
X10198Y6144D01*
Y6150D01*
X10192Y6156D01*
X10175D01*
X11490Y6581D02*
Y6616D01*
Y6581D02*
X11513D01*
X11525D02*
X11537D01*
X11531D01*
Y6616D01*
X11532D01*
X11531D02*
X11525Y6610D01*
X11554Y6616D02*
X11578D01*
X11554D02*
Y6599D01*
X11566Y6605D01*
X11572D01*
X11578Y6599D01*
Y6587D01*
X11572Y6581D01*
X11560D01*
X11554Y6587D01*
X11508Y6671D02*
X11502Y6676D01*
X11490D01*
X11484Y6671D01*
Y6647D01*
X11490Y6641D01*
X11502D01*
X11508Y6647D01*
X11519Y6671D02*
X11525Y6676D01*
X11537D01*
X11543Y6671D01*
Y6665D01*
X11537Y6659D01*
X11543Y6653D01*
Y6647D01*
X11537Y6641D01*
X11525D01*
X11519Y6647D01*
Y6653D01*
X11525Y6659D01*
X11519Y6665D01*
Y6671D01*
X11525Y6659D02*
X11537D01*
X11554Y6641D02*
X11578D01*
X11554D02*
X11578Y6665D01*
Y6671D01*
X11572Y6676D01*
X11560D01*
X11554Y6671D01*
X11292Y6746D02*
Y6757D01*
Y6752D01*
X11327D01*
Y6746D01*
Y6757D01*
X11292Y6792D02*
X11298Y6798D01*
X11292Y6792D02*
Y6781D01*
X11298Y6775D01*
X11321D01*
X11327Y6781D01*
Y6792D01*
X11321Y6798D01*
X11327Y6810D02*
Y6822D01*
Y6816D01*
X11292D01*
X11293D01*
X11292D02*
X11298Y6810D01*
X11327Y6839D02*
Y6851D01*
Y6845D01*
X11292D01*
X11293D01*
X11292D02*
X11298Y6839D01*
X11749Y6309D02*
X11760D01*
X11755D02*
X11749D01*
X11755D02*
Y6280D01*
X11749Y6274D01*
X11743D01*
X11737Y6280D01*
X11772Y6274D02*
X11795D01*
X11772D02*
X11795Y6298D01*
Y6303D01*
X11790Y6309D01*
X11778D01*
X11772Y6303D01*
X10788Y6766D02*
Y6801D01*
Y6766D02*
X10812D01*
X10823D02*
X10835D01*
X10829D01*
Y6801D01*
X10830D01*
X10829D02*
X10823Y6796D01*
X10852Y6772D02*
X10858Y6766D01*
X10870D01*
X10876Y6772D01*
Y6796D01*
X10870Y6801D01*
X10858D01*
X10852Y6796D01*
Y6790D01*
X10858Y6784D01*
X10876D01*
X10806Y6715D02*
X10812Y6709D01*
X10806Y6715D02*
X10794D01*
X10788Y6709D01*
Y6686D01*
X10794Y6680D01*
X10806D01*
X10812Y6686D01*
X10823Y6709D02*
X10829Y6715D01*
X10841D01*
X10847Y6709D01*
Y6703D01*
X10848D01*
X10847D02*
X10848D01*
X10847D02*
X10848D01*
X10847D02*
X10841Y6697D01*
X10835D01*
X10841D01*
X10847Y6691D01*
Y6686D01*
X10841Y6680D01*
X10829D01*
X10823Y6686D01*
X10858Y6709D02*
X10864Y6715D01*
X10876D01*
X10882Y6709D01*
Y6686D01*
X10876Y6680D01*
X10864D01*
X10858Y6686D01*
Y6709D01*
X11042Y6708D02*
X11048Y6713D01*
Y6725D01*
X11042Y6731D01*
X11019D01*
X11013Y6725D01*
Y6713D01*
X11019Y6708D01*
X11042Y6696D02*
X11048Y6690D01*
Y6678D01*
X11042Y6673D01*
X11036D01*
X11037D01*
X11036D02*
X11037D01*
X11036D02*
X11037D01*
X11036D02*
X11030Y6678D01*
Y6684D01*
Y6678D01*
X11024Y6673D01*
X11019D01*
X11013Y6678D01*
Y6690D01*
X11019Y6696D01*
X11042Y6661D02*
X11048Y6655D01*
Y6643D01*
X11042Y6638D01*
X11036D01*
X11037D01*
X11036D02*
X11037D01*
X11036D02*
X11037D01*
X11036D02*
X11030Y6643D01*
Y6649D01*
Y6643D01*
X11024Y6638D01*
X11019D01*
X11013Y6643D01*
Y6655D01*
X11019Y6661D01*
X9926Y6618D02*
X9922Y6631D01*
X9913Y6640D01*
X9901Y6643D01*
X9888Y6640D01*
X9879Y6631D01*
X9876Y6618D01*
X9951D02*
Y6818D01*
X9851D02*
Y6618D01*
X9926D02*
X9951D01*
X9876D02*
X9851D01*
Y6818D02*
X9951D01*
X10009Y6616D02*
X10020D01*
X10015D01*
Y6581D01*
X10009D01*
X10020D01*
X10055Y6616D02*
X10061Y6610D01*
X10055Y6616D02*
X10044D01*
X10038Y6610D01*
Y6587D01*
X10044Y6581D01*
X10055D01*
X10061Y6587D01*
X10073Y6610D02*
X10079Y6616D01*
X10090D01*
X10096Y6610D01*
Y6605D01*
X10097D01*
X10096D02*
X10097D01*
X10096D02*
X10097D01*
X10096D02*
X10090Y6599D01*
X10085D01*
X10090D01*
X10096Y6593D01*
Y6587D01*
X10090Y6581D01*
X10079D01*
X10073Y6587D01*
X10450Y6368D02*
X10473D01*
X10461D01*
Y6333D01*
X10485D02*
Y6368D01*
X10502D01*
X10508Y6362D01*
Y6351D01*
X10502Y6345D01*
X10485D01*
X10537Y6333D02*
Y6368D01*
X10520Y6351D01*
X10543D01*
X10119Y6360D02*
X10095D01*
X10107D02*
X10119D01*
X10107D02*
Y6325D01*
X10130D02*
Y6360D01*
X10148D01*
X10154Y6355D01*
Y6343D01*
X10148Y6337D01*
X10130D01*
X10165Y6325D02*
X10189D01*
X10165D02*
X10189Y6349D01*
Y6355D01*
X10183Y6360D01*
X10171D01*
X10165Y6355D01*
X10056Y6479D02*
X10032D01*
X10044D02*
X10056D01*
X10044D02*
Y6444D01*
X10067D02*
Y6479D01*
X10085D01*
X10091Y6473D01*
Y6461D01*
X10085Y6455D01*
X10067D01*
X10102Y6444D02*
X10114D01*
X10108D01*
Y6479D01*
X10109D01*
X10108D02*
X10102Y6473D01*
X10367Y6479D02*
X10390D01*
X10379D01*
Y6444D01*
X10402D02*
Y6479D01*
X10420D01*
X10425Y6473D01*
Y6461D01*
X10420Y6455D01*
X10402D01*
X10437Y6473D02*
X10443Y6479D01*
X10455D01*
X10460Y6473D01*
Y6467D01*
X10461D01*
X10460D02*
X10461D01*
X10460D02*
X10461D01*
X10460D02*
X10455Y6461D01*
X10449D01*
X10455D01*
X10460Y6455D01*
Y6449D01*
X10455Y6444D01*
X10443D01*
X10437Y6449D01*
X10221Y5890D02*
X10209D01*
X10215D01*
Y5861D01*
X10209Y5855D01*
X10204D01*
X10198Y5861D01*
X10233Y5855D02*
X10244D01*
X10239D01*
Y5890D01*
X10240D01*
X10239D02*
X10233Y5884D01*
X10262D02*
X10268Y5890D01*
X10279D01*
X10285Y5884D01*
Y5861D01*
X10279Y5855D01*
X10268D01*
X10262Y5861D01*
Y5884D01*
X9740Y8215D02*
X9734Y8221D01*
X9723D01*
X9717Y8215D01*
Y8192D01*
X9723Y8186D01*
X9734D01*
X9740Y8192D01*
X9752Y8221D02*
X9775D01*
Y8215D01*
X9752Y8192D01*
Y8186D01*
X9787Y8221D02*
X9810D01*
X9787D02*
Y8203D01*
X9799Y8209D01*
X9804D01*
X9810Y8203D01*
Y8192D01*
X9804Y8186D01*
X9793D01*
X9787Y8192D01*
X9630Y8290D02*
X9624Y8296D01*
X9612D01*
X9607Y8290D01*
Y8267D01*
X9612Y8261D01*
X9624D01*
X9630Y8267D01*
X9653Y8290D02*
X9665Y8296D01*
X9653Y8290D02*
X9642Y8278D01*
Y8267D01*
X9647Y8261D01*
X9659D01*
X9665Y8267D01*
Y8272D01*
X9659Y8278D01*
X9642D01*
X9677Y8296D02*
X9700D01*
Y8290D01*
X9677Y8267D01*
Y8261D01*
X9484Y8290D02*
X9478Y8296D01*
X9467D01*
X9461Y8290D01*
Y8267D01*
X9467Y8261D01*
X9478D01*
X9484Y8267D01*
X9508Y8290D02*
X9519Y8296D01*
X9508Y8290D02*
X9496Y8278D01*
Y8267D01*
X9502Y8261D01*
X9513D01*
X9519Y8267D01*
Y8272D01*
X9513Y8278D01*
X9496D01*
X9531Y8290D02*
X9537Y8296D01*
X9548D01*
X9554Y8290D01*
Y8284D01*
X9548Y8278D01*
X9554Y8272D01*
Y8267D01*
X9548Y8261D01*
X9537D01*
X9531Y8267D01*
Y8272D01*
X9537Y8278D01*
X9531Y8284D01*
Y8290D01*
X9537Y8278D02*
X9548D01*
X9649Y7683D02*
X9661D01*
X9655D01*
Y7648D01*
X9649D01*
X9661D01*
X9696Y7683D02*
X9701Y7677D01*
X9696Y7683D02*
X9684D01*
X9678Y7677D01*
Y7654D01*
X9684Y7648D01*
X9696D01*
X9701Y7654D01*
X9713Y7648D02*
X9736D01*
X9713D02*
X9736Y7671D01*
Y7677D01*
X9731Y7683D01*
X9719D01*
X9713Y7677D01*
X9760D02*
X9771Y7683D01*
X9760Y7677D02*
X9748Y7665D01*
Y7654D01*
X9754Y7648D01*
X9766D01*
X9771Y7654D01*
Y7660D01*
X9766Y7665D01*
X9748D01*
X10304Y7030D02*
X10316D01*
X10310D02*
X10304D01*
X10310D02*
Y7001D01*
X10304Y6995D01*
X10298D01*
X10292Y7001D01*
X10327Y7024D02*
X10333Y7030D01*
X10345D01*
X10351Y7024D01*
Y7018D01*
X10352D01*
X10351D02*
X10352D01*
X10351D02*
X10352D01*
X10351D02*
X10345Y7012D01*
X10339D01*
X10345D01*
X10351Y7006D01*
Y7001D01*
X10345Y6995D01*
X10333D01*
X10327Y7001D01*
X9021Y6201D02*
X9015Y6207D01*
X9004D01*
X8998Y6201D01*
Y6178D01*
X9004Y6172D01*
X9015D01*
X9021Y6178D01*
X9033Y6172D02*
X9045D01*
X9039D01*
Y6207D01*
X9040D01*
X9039D02*
X9033Y6201D01*
X9062Y6172D02*
X9074D01*
X9068D01*
Y6207D01*
X9069D01*
X9068D02*
X9062Y6201D01*
X9109Y6207D02*
Y6172D01*
X9091Y6189D02*
X9109Y6207D01*
X9115Y6189D02*
X9091D01*
X9882Y6176D02*
Y6128D01*
X9803D02*
Y6176D01*
X9853Y6176D02*
Y6128D01*
X9882D02*
X9803D01*
Y6176D02*
X9882D01*
X9674Y6171D02*
Y6136D01*
X9691D01*
X9697Y6142D01*
Y6165D01*
X9691Y6171D01*
X9674D01*
X9709Y6136D02*
X9721D01*
X9715D01*
Y6171D01*
X9716D01*
X9715D02*
X9709Y6165D01*
X9738Y6136D02*
X9761D01*
X9738D02*
X9761Y6159D01*
Y6165D01*
X9756Y6171D01*
X9744D01*
X9738Y6165D01*
X9882Y6101D02*
Y6053D01*
X9803D02*
Y6101D01*
X9853Y6101D02*
Y6053D01*
X9882D02*
X9803D01*
Y6101D02*
X9882D01*
X9674Y6100D02*
Y6065D01*
X9691D01*
X9697Y6071D01*
Y6094D01*
X9691Y6100D01*
X9674D01*
X9709Y6065D02*
X9721D01*
X9715D01*
Y6100D01*
X9716D01*
X9715D02*
X9709Y6094D01*
X9738D02*
X9744Y6100D01*
X9756D01*
X9761Y6094D01*
Y6088D01*
X9762D01*
X9761D02*
X9762D01*
X9761D02*
X9762D01*
X9761D02*
X9756Y6082D01*
X9750D01*
X9756D01*
X9761Y6077D01*
Y6071D01*
X9756Y6065D01*
X9744D01*
X9738Y6071D01*
X9882Y5951D02*
Y5903D01*
X9803D02*
Y5951D01*
X9853Y5951D02*
Y5903D01*
X9882D02*
X9803D01*
Y5951D02*
X9882D01*
X9676Y5954D02*
Y5919D01*
X9693D01*
X9699Y5925D01*
Y5948D01*
X9693Y5954D01*
X9676D01*
X9711Y5919D02*
X9723D01*
X9717D01*
Y5954D01*
X9718D01*
X9717D02*
X9711Y5948D01*
X9740Y5954D02*
X9763D01*
X9740D02*
Y5936D01*
X9752Y5942D01*
X9758D01*
X9763Y5936D01*
Y5925D01*
X9758Y5919D01*
X9746D01*
X9740Y5925D01*
X9882Y5978D02*
Y6026D01*
X9803D02*
Y5978D01*
X9853Y5978D02*
Y6026D01*
X9882Y5978D02*
X9803D01*
Y6026D02*
X9882D01*
X9675Y6025D02*
Y5990D01*
X9692D01*
X9698Y5996D01*
Y6019D01*
X9692Y6025D01*
X9675D01*
X9710Y5990D02*
X9722D01*
X9716D01*
Y6025D01*
X9717D01*
X9716D02*
X9710Y6019D01*
X9757Y6025D02*
Y5990D01*
X9739Y6007D02*
X9757Y6025D01*
X9762Y6007D02*
X9739D01*
X9674Y6536D02*
X9668Y6542D01*
X9656D01*
X9651Y6536D01*
Y6512D01*
X9656Y6507D01*
X9668D01*
X9674Y6512D01*
X9686Y6507D02*
X9697D01*
X9691D01*
Y6542D01*
X9692D01*
X9691D02*
X9686Y6536D01*
X9715Y6542D02*
X9738D01*
Y6536D01*
X9715Y6512D01*
Y6507D01*
X9686Y6818D02*
Y6853D01*
X9703D01*
X9709Y6847D01*
Y6835D01*
X9703Y6829D01*
X9686D01*
X9698D02*
X9709Y6818D01*
X9721D02*
X9744D01*
X9721D02*
X9744Y6841D01*
Y6847D01*
X9738Y6853D01*
X9727D01*
X9721Y6847D01*
X9756Y6823D02*
X9762Y6818D01*
X9773D01*
X9779Y6823D01*
Y6847D01*
X9773Y6853D01*
X9762D01*
X9756Y6847D01*
Y6841D01*
X9762Y6835D01*
X9779D01*
X9127Y6621D02*
X9103Y6656D01*
X9127D02*
X9103Y6621D01*
X9138D02*
X9150D01*
X9144D01*
Y6656D01*
X9145D01*
X9144D02*
X9138Y6650D01*
X9568Y6814D02*
Y6849D01*
X9585D01*
X9591Y6843D01*
Y6831D01*
X9585Y6825D01*
X9568D01*
X9580D02*
X9591Y6814D01*
X9603Y6843D02*
X9609Y6849D01*
X9620D01*
X9626Y6843D01*
Y6837D01*
X9627D01*
X9626D02*
X9627D01*
X9626D02*
X9627D01*
X9626D02*
X9620Y6831D01*
X9615D01*
X9620D01*
X9626Y6825D01*
Y6819D01*
X9620Y6814D01*
X9609D01*
X9603Y6819D01*
X9638Y6843D02*
X9644Y6849D01*
X9655D01*
X9661Y6843D01*
Y6819D01*
X9655Y6814D01*
X9644D01*
X9638Y6819D01*
Y6843D01*
X9234Y6440D02*
Y6428D01*
Y6434D02*
Y6440D01*
Y6434D02*
X9269D01*
Y6428D01*
Y6440D01*
X9234Y6475D02*
X9239Y6480D01*
X9234Y6475D02*
Y6463D01*
X9239Y6457D01*
X9263D01*
X9269Y6463D01*
Y6475D01*
X9263Y6480D01*
X9239Y6492D02*
X9234Y6498D01*
Y6510D01*
X9239Y6515D01*
X9245D01*
X9251Y6510D01*
X9257Y6515D01*
X9263D01*
X9269Y6510D01*
Y6498D01*
X9263Y6492D01*
X9257D01*
X9251Y6498D01*
X9245Y6492D01*
X9239D01*
X9251Y6498D02*
Y6510D01*
X9446Y6780D02*
X9440Y6786D01*
X9429D01*
X9423Y6780D01*
Y6757D01*
X9429Y6751D01*
X9440D01*
X9446Y6757D01*
X9458Y6780D02*
X9464Y6786D01*
X9475D01*
X9481Y6780D01*
Y6774D01*
X9482D01*
X9481D02*
X9482D01*
X9481D02*
X9482D01*
X9481D02*
X9475Y6768D01*
X9470D01*
X9475D01*
X9481Y6763D01*
Y6757D01*
X9475Y6751D01*
X9464D01*
X9458Y6757D01*
X9505Y6780D02*
X9516Y6786D01*
X9505Y6780D02*
X9493Y6768D01*
Y6757D01*
X9499Y6751D01*
X9510D01*
X9516Y6757D01*
Y6763D01*
X9510Y6768D01*
X9493D01*
X9121Y6737D02*
X9115Y6743D01*
X9104D01*
X9098Y6737D01*
Y6714D01*
X9104Y6708D01*
X9115D01*
X9121Y6714D01*
X9133Y6708D02*
X9156D01*
X9133D02*
X9156Y6731D01*
Y6737D01*
X9150Y6743D01*
X9139D01*
X9133Y6737D01*
X9168D02*
X9174Y6743D01*
X9185D01*
X9191Y6737D01*
Y6731D01*
X9185Y6725D01*
X9191Y6720D01*
Y6714D01*
X9185Y6708D01*
X9174D01*
X9168Y6714D01*
Y6720D01*
X9174Y6725D01*
X9168Y6731D01*
Y6737D01*
X9174Y6725D02*
X9185D01*
X9103Y6778D02*
Y6813D01*
X9120D01*
X9126Y6807D01*
Y6795D01*
X9120Y6790D01*
X9103D01*
X9115D02*
X9126Y6778D01*
X9138Y6807D02*
X9144Y6813D01*
X9155D01*
X9161Y6807D01*
Y6801D01*
X9155Y6795D01*
X9161Y6790D01*
Y6784D01*
X9155Y6778D01*
X9144D01*
X9138Y6784D01*
Y6790D01*
X9144Y6795D01*
X9138Y6801D01*
Y6807D01*
X9144Y6795D02*
X9155D01*
X9173Y6807D02*
X9179Y6813D01*
X9190D01*
X9196Y6807D01*
Y6801D01*
X9190Y6795D01*
X9196Y6790D01*
Y6784D01*
X9190Y6778D01*
X9179D01*
X9173Y6784D01*
Y6790D01*
X9179Y6795D01*
X9173Y6801D01*
Y6807D01*
X9179Y6795D02*
X9190D01*
X8326Y6485D02*
X8315D01*
X8320D01*
Y6456D01*
X8315Y6450D01*
X8309D01*
X8303Y6456D01*
X8338Y6485D02*
X8361D01*
X8338D02*
Y6468D01*
X8350Y6474D01*
X8355D01*
X8361Y6468D01*
Y6456D01*
X8355Y6450D01*
X8344D01*
X8338Y6456D01*
X9142Y6383D02*
X9148Y6389D01*
X9142Y6383D02*
Y6372D01*
X9148Y6366D01*
X9171D01*
X9177Y6372D01*
Y6383D01*
X9171Y6389D01*
X9177Y6401D02*
Y6424D01*
Y6401D02*
X9154Y6424D01*
X9148D01*
X9142Y6418D01*
Y6407D01*
X9148Y6401D01*
X9171Y6436D02*
X9177Y6442D01*
Y6453D01*
X9171Y6459D01*
X9148D01*
X9142Y6453D01*
Y6442D01*
X9148Y6436D01*
X9154D01*
X9160Y6442D01*
Y6459D01*
X9632Y5965D02*
Y5765D01*
X9532Y5865D02*
Y5965D01*
X9132D02*
Y5765D01*
X9532Y5865D02*
X9632D01*
Y5965D02*
X9132D01*
Y5765D02*
X9632D01*
X9660Y5835D02*
X9672D01*
X9666D02*
X9660D01*
X9666D02*
Y5806D01*
X9660Y5800D01*
X9654D01*
X9649Y5806D01*
X9684Y5829D02*
X9689Y5835D01*
X9701D01*
X9707Y5829D01*
Y5823D01*
X9701Y5817D01*
X9707Y5811D01*
Y5806D01*
X9701Y5800D01*
X9689D01*
X9684Y5806D01*
Y5811D01*
X9689Y5817D01*
X9684Y5823D01*
Y5829D01*
X9689Y5817D02*
X9701D01*
X8875Y6007D02*
Y6042D01*
X8892D01*
X8898Y6036D01*
Y6024D01*
X8892Y6018D01*
X8875D01*
X8887D02*
X8898Y6007D01*
X8910Y6036D02*
X8916Y6042D01*
X8927D01*
X8933Y6036D01*
Y6030D01*
X8927Y6024D01*
X8933Y6018D01*
Y6012D01*
X8927Y6007D01*
X8916D01*
X8910Y6012D01*
Y6018D01*
X8916Y6024D01*
X8910Y6030D01*
Y6036D01*
X8916Y6024D02*
X8927D01*
X8945Y6012D02*
X8951Y6007D01*
X8962D01*
X8968Y6012D01*
Y6036D01*
X8962Y6042D01*
X8951D01*
X8945Y6036D01*
Y6030D01*
X8951Y6024D01*
X8968D01*
X8977Y5906D02*
Y5871D01*
Y5906D02*
X8995D01*
X9001Y5900D01*
Y5888D01*
X8995Y5882D01*
X8977D01*
X8989D02*
X9001Y5871D01*
X9012Y5900D02*
X9018Y5906D01*
X9030D01*
X9036Y5900D01*
Y5894D01*
X9030Y5888D01*
X9036Y5882D01*
Y5877D01*
X9030Y5871D01*
X9018D01*
X9012Y5877D01*
Y5882D01*
X9018Y5888D01*
X9012Y5894D01*
Y5900D01*
X9018Y5888D02*
X9030D01*
X9047Y5906D02*
X9071D01*
Y5900D01*
X9047Y5877D01*
Y5871D01*
X9264Y6005D02*
Y6040D01*
X9281D01*
X9287Y6034D01*
Y6022D01*
X9281Y6016D01*
X9264D01*
X9275D02*
X9287Y6005D01*
X9299Y6010D02*
X9305Y6005D01*
X9316D01*
X9322Y6010D01*
Y6034D01*
X9316Y6040D01*
X9305D01*
X9299Y6034D01*
Y6028D01*
X9305Y6022D01*
X9322D01*
X9334Y6034D02*
X9340Y6040D01*
X9351D01*
X9357Y6034D01*
Y6010D01*
X9351Y6005D01*
X9340D01*
X9334Y6010D01*
Y6034D01*
X7943Y8226D02*
X7937Y8232D01*
X7925D01*
X7920Y8226D01*
Y8203D01*
X7925Y8197D01*
X7937D01*
X7943Y8203D01*
X7972Y8197D02*
Y8232D01*
X7955Y8214D01*
X7978D01*
X7990Y8226D02*
X7995Y8232D01*
X8007D01*
X8013Y8226D01*
Y8220D01*
X8007Y8214D01*
X8013Y8209D01*
Y8203D01*
X8007Y8197D01*
X7995D01*
X7990Y8203D01*
Y8209D01*
X7995Y8214D01*
X7990Y8220D01*
Y8226D01*
X7995Y8214D02*
X8007D01*
X7829Y8297D02*
X7823Y8303D01*
X7811D01*
X7805Y8297D01*
Y8274D01*
X7811Y8268D01*
X7823D01*
X7829Y8274D01*
X7840Y8303D02*
X7864D01*
X7840D02*
Y8285D01*
X7852Y8291D01*
X7858D01*
X7864Y8285D01*
Y8274D01*
X7858Y8268D01*
X7846D01*
X7840Y8274D01*
X7875Y8268D02*
X7899D01*
X7875D02*
X7899Y8291D01*
Y8297D01*
X7893Y8303D01*
X7881D01*
X7875Y8297D01*
X7663D02*
X7658Y8303D01*
X7646D01*
X7640Y8297D01*
Y8274D01*
X7646Y8268D01*
X7658D01*
X7663Y8274D01*
X7675Y8303D02*
X7698D01*
X7675D02*
Y8285D01*
X7687Y8291D01*
X7693D01*
X7698Y8285D01*
Y8274D01*
X7693Y8268D01*
X7681D01*
X7675Y8274D01*
X7710Y8268D02*
X7722D01*
X7716D01*
Y8303D01*
X7717D01*
X7716D02*
X7710Y8297D01*
X7825Y7685D02*
X7837D01*
X7831D01*
Y7650D01*
X7825D01*
X7837D01*
X7872Y7685D02*
X7877Y7679D01*
X7872Y7685D02*
X7860D01*
X7854Y7679D01*
Y7656D01*
X7860Y7650D01*
X7872D01*
X7877Y7656D01*
X7889Y7650D02*
X7901D01*
X7895D01*
Y7685D01*
X7896D01*
X7895D02*
X7889Y7679D01*
X7936Y7685D02*
Y7650D01*
X7918Y7667D02*
X7936Y7685D01*
X7942Y7667D02*
X7918D01*
X7162Y7739D02*
Y7774D01*
Y7739D02*
X7185D01*
X7214D02*
Y7774D01*
X7197Y7756D01*
X7220D01*
X7232Y7768D02*
X7238Y7774D01*
X7249D01*
X7255Y7768D01*
Y7745D01*
X7249Y7739D01*
X7238D01*
X7232Y7745D01*
Y7768D01*
X7443Y6731D02*
X7449Y6725D01*
X7443Y6731D02*
X7432D01*
X7426Y6725D01*
Y6702D01*
X7432Y6696D01*
X7443D01*
X7449Y6702D01*
X7461Y6696D02*
X7473D01*
X7467D01*
Y6731D01*
X7468D01*
X7467D02*
X7461Y6725D01*
X7490D02*
X7496Y6731D01*
X7508D01*
X7513Y6725D01*
Y6702D01*
X7508Y6696D01*
X7496D01*
X7490Y6702D01*
Y6725D01*
X7525Y6731D02*
X7548D01*
Y6725D01*
X7525Y6702D01*
Y6696D01*
X6999Y6895D02*
X6994Y6900D01*
X6984D01*
X6979Y6895D01*
Y6875D01*
X6984Y6870D01*
X6994D01*
X6999Y6875D01*
X7009Y6870D02*
X7019D01*
X7014D01*
Y6900D01*
X7015D01*
X7014D02*
X7009Y6895D01*
X7034Y6870D02*
X7044D01*
X7039D01*
Y6900D01*
X7040D01*
X7039D02*
X7034Y6895D01*
X7059D02*
X7064Y6900D01*
X7074D01*
X7079Y6895D01*
Y6890D01*
X7080D01*
X7079D02*
X7080D01*
X7079D02*
X7080D01*
X7079D02*
X7074Y6885D01*
X7069D01*
X7074D01*
X7079Y6880D01*
Y6875D01*
X7074Y6870D01*
X7064D01*
X7059Y6875D01*
X7337Y7523D02*
Y7558D01*
X7354D01*
X7360Y7552D01*
Y7540D01*
X7354Y7535D01*
X7337D01*
X7349D02*
X7360Y7523D01*
X7372Y7529D02*
X7378Y7523D01*
X7389D01*
X7395Y7529D01*
Y7552D01*
X7389Y7558D01*
X7378D01*
X7372Y7552D01*
Y7546D01*
X7378Y7540D01*
X7395D01*
X8017Y6165D02*
Y6130D01*
Y6165D02*
X8034D01*
X8040Y6159D01*
Y6148D01*
X8034Y6142D01*
X8017D01*
X8028D02*
X8040Y6130D01*
X8052Y6159D02*
X8058Y6165D01*
X8069D01*
X8075Y6159D01*
Y6154D01*
X8069Y6148D01*
X8075Y6142D01*
Y6136D01*
X8069Y6130D01*
X8058D01*
X8052Y6136D01*
Y6142D01*
X8058Y6148D01*
X8052Y6154D01*
Y6159D01*
X8058Y6148D02*
X8069D01*
X8098Y6159D02*
X8110Y6165D01*
X8098Y6159D02*
X8087Y6148D01*
Y6136D01*
X8093Y6130D01*
X8104D01*
X8110Y6136D01*
Y6142D01*
X8104Y6148D01*
X8087D01*
X8176Y6165D02*
X8182Y6159D01*
X8176Y6165D02*
X8164D01*
X8158Y6159D01*
Y6136D01*
X8164Y6130D01*
X8176D01*
X8182Y6136D01*
X8193Y6130D02*
X8205D01*
X8199D01*
Y6165D01*
X8200D01*
X8199D02*
X8193Y6159D01*
X8223Y6130D02*
X8234D01*
X8228D01*
Y6165D01*
X8229D01*
X8228D02*
X8223Y6159D01*
X8252Y6130D02*
X8275D01*
X8252D02*
X8275Y6154D01*
Y6159D01*
X8269Y6165D01*
X8258D01*
X8252Y6159D01*
X5403Y7670D02*
X5397Y7675D01*
X5386D01*
X5380Y7670D01*
Y7646D01*
X5386Y7640D01*
X5397D01*
X5403Y7646D01*
X5415Y7675D02*
X5438D01*
Y7670D01*
X5415Y7646D01*
Y7640D01*
X5467D02*
Y7675D01*
X5450Y7658D01*
X5473D01*
X6344Y7730D02*
Y7765D01*
Y7730D02*
X6368D01*
X6379D02*
X6391D01*
X6385D01*
Y7765D01*
X6386D01*
X6385D02*
X6379Y7759D01*
X6408D02*
X6414Y7765D01*
X6426D01*
X6432Y7759D01*
Y7736D01*
X6426Y7730D01*
X6414D01*
X6408Y7736D01*
Y7759D01*
X6834Y6398D02*
X6844D01*
X6839D01*
Y6368D01*
X6834D01*
X6844D01*
X6874Y6398D02*
X6879Y6393D01*
X6874Y6398D02*
X6864D01*
X6859Y6393D01*
Y6373D01*
X6864Y6368D01*
X6874D01*
X6879Y6373D01*
X6889Y6368D02*
X6909D01*
X6889D02*
X6909Y6388D01*
Y6393D01*
X6904Y6398D01*
X6894D01*
X6889Y6393D01*
X6919D02*
X6924Y6398D01*
X6934D01*
X6939Y6393D01*
Y6388D01*
X6934Y6383D01*
X6939Y6378D01*
Y6373D01*
X6934Y6368D01*
X6924D01*
X6919Y6373D01*
Y6378D01*
X6924Y6383D01*
X6919Y6388D01*
Y6393D01*
X6924Y6383D02*
X6934D01*
X6388Y6853D02*
X6383Y6858D01*
X6371D01*
X6365Y6853D01*
Y6829D01*
X6371Y6823D01*
X6383D01*
X6388Y6829D01*
X6400Y6853D02*
X6406Y6858D01*
X6418D01*
X6423Y6853D01*
Y6847D01*
X6418Y6841D01*
X6423Y6835D01*
Y6829D01*
X6418Y6823D01*
X6406D01*
X6400Y6829D01*
Y6835D01*
X6406Y6841D01*
X6400Y6847D01*
Y6853D01*
X6406Y6841D02*
X6418D01*
X6435Y6853D02*
X6441Y6858D01*
X6453D01*
X6458Y6853D01*
Y6847D01*
X6459D01*
X6458D02*
X6459D01*
X6458D02*
X6459D01*
X6458D02*
X6453Y6841D01*
X6447D01*
X6453D01*
X6458Y6835D01*
Y6829D01*
X6453Y6823D01*
X6441D01*
X6435Y6829D01*
X6181Y6229D02*
Y6194D01*
Y6229D02*
X6199D01*
X6204Y6223D01*
Y6211D01*
X6199Y6205D01*
X6181D01*
X6193D02*
X6204Y6194D01*
X6228Y6223D02*
X6239Y6229D01*
X6228Y6223D02*
X6216Y6211D01*
Y6199D01*
X6222Y6194D01*
X6234D01*
X6239Y6199D01*
Y6205D01*
X6234Y6211D01*
X6216D01*
X6251Y6229D02*
X6274D01*
Y6223D01*
X6251Y6199D01*
Y6194D01*
X6327Y6193D02*
Y6228D01*
X6344D01*
X6350Y6222D01*
Y6210D01*
X6344Y6204D01*
X6327D01*
X6338D02*
X6350Y6193D01*
X6373Y6222D02*
X6385Y6228D01*
X6373Y6222D02*
X6362Y6210D01*
Y6198D01*
X6368Y6193D01*
X6379D01*
X6385Y6198D01*
Y6204D01*
X6379Y6210D01*
X6362D01*
X6408Y6222D02*
X6420Y6228D01*
X6408Y6222D02*
X6397Y6210D01*
Y6198D01*
X6403Y6193D01*
X6414D01*
X6420Y6198D01*
Y6204D01*
X6414Y6210D01*
X6397D01*
X6008Y6846D02*
X6003Y6851D01*
X5993D01*
X5988Y6846D01*
Y6826D01*
X5993Y6821D01*
X6003D01*
X6008Y6826D01*
X6018D02*
X6023Y6821D01*
X6033D01*
X6038Y6826D01*
Y6846D01*
X6033Y6851D01*
X6023D01*
X6018Y6846D01*
Y6841D01*
X6023Y6836D01*
X6038D01*
X6048Y6846D02*
X6053Y6851D01*
X6063D01*
X6068Y6846D01*
Y6841D01*
X6063Y6836D01*
X6068Y6831D01*
Y6826D01*
X6063Y6821D01*
X6053D01*
X6048Y6826D01*
Y6831D01*
X6053Y6836D01*
X6048Y6841D01*
Y6846D01*
X6053Y6836D02*
X6063D01*
X4599Y7413D02*
Y7448D01*
X4616D01*
X4622Y7442D01*
Y7430D01*
X4616Y7425D01*
X4599D01*
X4611D02*
X4622Y7413D01*
X4634D02*
X4646D01*
X4640D01*
Y7448D01*
X4641D01*
X4640D02*
X4634Y7442D01*
X4663D02*
X4669Y7448D01*
X4681D01*
X4686Y7442D01*
Y7419D01*
X4681Y7413D01*
X4669D01*
X4663Y7419D01*
Y7442D01*
X4698D02*
X4704Y7448D01*
X4716D01*
X4721Y7442D01*
Y7436D01*
X4722D01*
X4721D02*
X4722D01*
X4721D02*
X4722D01*
X4721D02*
X4716Y7430D01*
X4710D01*
X4716D01*
X4721Y7425D01*
Y7419D01*
X4716Y7413D01*
X4704D01*
X4698Y7419D01*
X4827Y7591D02*
X4839D01*
X4833D01*
Y7556D01*
X4827D01*
X4839D01*
X4874Y7591D02*
X4879Y7585D01*
X4874Y7591D02*
X4862D01*
X4856Y7585D01*
Y7562D01*
X4862Y7556D01*
X4874D01*
X4879Y7562D01*
X4891Y7556D02*
X4903D01*
X4897D01*
Y7591D01*
X4898D01*
X4897D02*
X4891Y7585D01*
X4841Y7172D02*
X4829D01*
X4835D02*
X4841D01*
X4835D02*
Y7137D01*
X4829D01*
X4841D01*
X4876Y7172D02*
X4881Y7166D01*
X4876Y7172D02*
X4864D01*
X4858Y7166D01*
Y7143D01*
X4864Y7137D01*
X4876D01*
X4881Y7143D01*
X4893Y7137D02*
X4916D01*
X4893D02*
X4916Y7160D01*
Y7166D01*
X4911Y7172D01*
X4899D01*
X4893Y7166D01*
X4469Y6589D02*
X4457D01*
X4463D01*
Y6560D01*
X4457Y6554D01*
X4452D01*
X4446Y6560D01*
X4481Y6554D02*
X4492D01*
X4487D01*
Y6589D01*
X4488D01*
X4487D02*
X4481Y6583D01*
X4657Y7599D02*
X4651Y7605D01*
X4640D01*
X4634Y7599D01*
Y7576D01*
X4640Y7570D01*
X4651D01*
X4657Y7576D01*
X4669Y7570D02*
X4681D01*
X4675D01*
Y7605D01*
X4676D01*
X4675D02*
X4669Y7599D01*
X4698Y7570D02*
X4710D01*
X4704D01*
Y7605D01*
X4705D01*
X4704D02*
X4698Y7599D01*
X4739D02*
X4751Y7605D01*
X4739Y7599D02*
X4727Y7587D01*
Y7576D01*
X4733Y7570D01*
X4745D01*
X4751Y7576D01*
Y7582D01*
X4745Y7587D01*
X4727D01*
X4651Y7177D02*
X4657Y7171D01*
X4651Y7177D02*
X4640D01*
X4634Y7171D01*
Y7148D01*
X4640Y7142D01*
X4651D01*
X4657Y7148D01*
X4669Y7142D02*
X4681D01*
X4675D01*
Y7177D01*
X4676D01*
X4675D02*
X4669Y7171D01*
X4698Y7142D02*
X4710D01*
X4704D01*
Y7177D01*
X4705D01*
X4704D02*
X4698Y7171D01*
X4727D02*
X4733Y7177D01*
X4745D01*
X4751Y7171D01*
Y7165D01*
X4745Y7159D01*
X4751Y7154D01*
Y7148D01*
X4745Y7142D01*
X4733D01*
X4727Y7148D01*
Y7154D01*
X4733Y7159D01*
X4727Y7165D01*
Y7171D01*
X4733Y7159D02*
X4745D01*
X5104Y7177D02*
X5110Y7171D01*
X5104Y7177D02*
X5093D01*
X5087Y7171D01*
Y7148D01*
X5093Y7142D01*
X5104D01*
X5110Y7148D01*
X5122Y7142D02*
X5134D01*
X5128D01*
Y7177D01*
X5129D01*
X5128D02*
X5122Y7171D01*
X5169Y7177D02*
Y7142D01*
X5151Y7159D02*
X5169Y7177D01*
X5174Y7159D02*
X5151D01*
X5100Y7596D02*
X5094Y7602D01*
X5083D01*
X5077Y7596D01*
Y7573D01*
X5083Y7567D01*
X5094D01*
X5100Y7573D01*
X5112Y7567D02*
X5124D01*
X5118D01*
Y7602D01*
X5119D01*
X5118D02*
X5112Y7596D01*
X5141D02*
X5147Y7602D01*
X5159D01*
X5164Y7596D01*
Y7590D01*
X5165D01*
X5164D02*
X5165D01*
X5164D02*
X5165D01*
X5164D02*
X5159Y7584D01*
X5153D01*
X5159D01*
X5164Y7579D01*
Y7573D01*
X5159Y7567D01*
X5147D01*
X5141Y7573D01*
X4870Y8080D02*
X4864Y8086D01*
X4853D01*
X4847Y8080D01*
Y8057D01*
X4853Y8051D01*
X4864D01*
X4870Y8057D01*
X4882Y8051D02*
X4894D01*
X4888D01*
Y8086D01*
X4889D01*
X4888D02*
X4882Y8080D01*
X4911Y8051D02*
X4923D01*
X4917D01*
Y8086D01*
X4918D01*
X4917D02*
X4911Y8080D01*
X4940Y8086D02*
X4964D01*
Y8080D01*
X4940Y8057D01*
Y8051D01*
X4860Y7860D02*
X4866Y7854D01*
X4860Y7860D02*
X4849D01*
X4843Y7854D01*
Y7831D01*
X4849Y7825D01*
X4860D01*
X4866Y7831D01*
X4878Y7854D02*
X4884Y7860D01*
X4895D01*
X4901Y7854D01*
Y7848D01*
X4902D01*
X4901D02*
X4902D01*
X4901D02*
X4902D01*
X4901D02*
X4895Y7842D01*
X4890D01*
X4895D01*
X4901Y7837D01*
Y7831D01*
X4895Y7825D01*
X4884D01*
X4878Y7831D01*
X4913Y7825D02*
X4936D01*
X4913D02*
X4936Y7848D01*
Y7854D01*
X4930Y7860D01*
X4919D01*
X4913Y7854D01*
D16*
X6250Y6974D02*
X6290D01*
Y6994D01*
X6283Y7001D01*
X6257D01*
X6250Y6994D01*
Y6974D01*
X6257Y7027D02*
X6250Y7041D01*
X6257Y7027D02*
X6270Y7014D01*
X6283D01*
X6290Y7021D01*
Y7034D01*
X6283Y7041D01*
X6277D01*
X6270Y7034D01*
Y7014D01*
D18*
X12834Y8473D02*
X12829Y8460D01*
X12817Y8454D01*
X12804Y8456D01*
X12795Y8466D01*
Y8480D01*
X12804Y8490D01*
X12817Y8492D01*
X12829Y8486D01*
X12834Y8473D01*
X12294Y8438D02*
Y7965D01*
X12786D02*
Y8438D01*
Y7965D02*
X12294D01*
Y8438D02*
X12786D01*
D19*
X9647Y7619D02*
Y7596D01*
X9659Y7584D01*
X9670Y7596D01*
Y7619D01*
X9699D02*
X9705Y7613D01*
X9699Y7619D02*
X9688D01*
X9682Y7613D01*
Y7590D01*
X9688Y7584D01*
X9699D01*
X9705Y7590D01*
X9734Y7619D02*
X9740Y7613D01*
X9734Y7619D02*
X9723D01*
X9717Y7613D01*
Y7590D01*
X9723Y7584D01*
X9734D01*
X9740Y7590D01*
X9752Y7619D02*
X9764D01*
X9758D01*
Y7584D01*
X9752D01*
X9764D01*
X9781D02*
X9793D01*
X9787D01*
Y7619D01*
X9788D01*
X9787D02*
X9781Y7613D01*
X9810Y7619D02*
X9834D01*
X9810D02*
Y7601D01*
X9822Y7607D01*
X9828D01*
X9834Y7601D01*
Y7590D01*
X9828Y7584D01*
X9816D01*
X9810Y7590D01*
X7827Y7609D02*
Y7632D01*
Y7609D02*
X7839Y7597D01*
X7850Y7609D01*
Y7632D01*
X7862D02*
X7874D01*
X7868D01*
Y7597D01*
X7862D01*
X7874D01*
X7897Y7632D02*
X7909D01*
X7897D02*
X7891Y7626D01*
Y7603D01*
X7897Y7597D01*
X7909D01*
X7914Y7603D01*
Y7626D01*
X7909Y7632D01*
X7926Y7597D02*
X7949D01*
X7926D02*
X7949Y7620D01*
Y7626D01*
X7944Y7632D01*
X7932D01*
X7926Y7626D01*
X7961Y7632D02*
X7984D01*
X7961D02*
Y7614D01*
X7973Y7620D01*
X7979D01*
X7984Y7614D01*
Y7603D01*
X7979Y7597D01*
X7967D01*
X7961Y7603D01*
X13489Y6369D02*
X13512D01*
X13489D02*
X13477Y6357D01*
X13489Y6345D01*
X13512D01*
Y6316D02*
X13506Y6310D01*
X13512Y6316D02*
Y6328D01*
X13506Y6334D01*
X13483D01*
X13477Y6328D01*
Y6316D01*
X13483Y6310D01*
X13512Y6281D02*
X13506Y6275D01*
X13512Y6281D02*
Y6293D01*
X13506Y6299D01*
X13483D01*
X13477Y6293D01*
Y6281D01*
X13483Y6275D01*
X13477Y6264D02*
X13512D01*
X13501Y6252D01*
X13512Y6240D01*
X13477D01*
X13506Y6205D02*
X13512Y6211D01*
Y6223D01*
X13506Y6229D01*
X13483D01*
X13477Y6223D01*
Y6211D01*
X13483Y6205D01*
X13495D01*
Y6217D01*
X13512Y6194D02*
Y6170D01*
Y6182D01*
X13477D01*
Y6159D02*
Y6135D01*
Y6159D02*
X13501Y6135D01*
X13506D01*
X13512Y6141D01*
Y6153D01*
X13506Y6159D01*
X13512Y6124D02*
Y6100D01*
Y6124D02*
X13495D01*
X13501Y6112D01*
Y6106D01*
X13495Y6100D01*
X13483D01*
X13477Y6106D01*
Y6118D01*
X13483Y6124D01*
X13477Y6089D02*
X13512D01*
X13477D02*
Y6071D01*
X13483Y6065D01*
X13489D01*
X13495Y6071D01*
Y6089D01*
X13496D01*
X13495D02*
X13496D01*
X13495D02*
X13496D01*
X13495D02*
Y6071D01*
X13501Y6065D01*
X13506D01*
X13512Y6071D01*
Y6089D01*
X10851Y7566D02*
Y7590D01*
Y7566D02*
X10863Y7555D01*
X10875Y7566D01*
Y7590D01*
X10886D02*
X10898D01*
X10892D01*
Y7555D01*
X10886D01*
X10898D01*
X10921Y7590D02*
X10933D01*
X10921D02*
X10915Y7584D01*
Y7561D01*
X10921Y7555D01*
X10933D01*
X10939Y7561D01*
Y7584D01*
X10933Y7590D01*
X10950Y7555D02*
X10962D01*
X10956D01*
Y7590D01*
X10957D01*
X10956D02*
X10950Y7584D01*
X10980D02*
X10985Y7590D01*
X10997D01*
X11003Y7584D01*
Y7578D01*
X10997Y7572D01*
X11003Y7566D01*
Y7561D01*
X10997Y7555D01*
X10985D01*
X10980Y7561D01*
Y7566D01*
X10985Y7572D01*
X10980Y7578D01*
Y7584D01*
X10985Y7572D02*
X10997D01*
X10584Y8459D02*
X10564D01*
X10574Y8469D02*
Y8449D01*
X10594Y8474D02*
X10614D01*
X10594D02*
Y8459D01*
X10604Y8464D01*
X10609D01*
X10614Y8459D01*
Y8449D01*
X10609Y8444D01*
X10599D01*
X10594Y8449D01*
X10624Y8454D02*
Y8474D01*
Y8454D02*
X10634Y8444D01*
X10644Y8454D01*
Y8474D01*
X10689Y8474D02*
X10694Y8469D01*
X10689Y8474D02*
X10679D01*
X10674Y8469D01*
Y8449D01*
X10679Y8444D01*
X10689D01*
X10694Y8449D01*
Y8459D01*
X10684D01*
X10704Y8474D02*
Y8444D01*
X10724D02*
X10704Y8474D01*
X10724D02*
Y8444D01*
X10734D02*
Y8474D01*
Y8444D02*
X10749D01*
X10754Y8449D01*
Y8469D01*
X10749Y8474D01*
X10734D01*
X13106Y8070D02*
X13129D01*
X13141Y8081D01*
X13129Y8093D01*
X13106D01*
Y8122D02*
X13112Y8128D01*
X13106Y8122D02*
Y8110D01*
X13112Y8105D01*
X13135D01*
X13141Y8110D01*
Y8122D01*
X13135Y8128D01*
X13106Y8157D02*
X13112Y8163D01*
X13106Y8157D02*
Y8145D01*
X13112Y8139D01*
X13135D01*
X13141Y8145D01*
Y8157D01*
X13135Y8163D01*
X13141Y8174D02*
X13106D01*
X13117Y8186D01*
X13106Y8198D01*
X13141D01*
X13112Y8233D02*
X13106Y8227D01*
Y8215D01*
X13112Y8209D01*
X13135D01*
X13141Y8215D01*
Y8227D01*
X13135Y8233D01*
X13123D01*
Y8221D01*
X13106Y8244D02*
Y8268D01*
Y8256D01*
X13141D01*
Y8279D02*
Y8303D01*
Y8279D02*
X13117Y8303D01*
X13112D01*
X13106Y8297D01*
Y8285D01*
X13112Y8279D01*
X13106Y8314D02*
Y8338D01*
Y8314D02*
X13123D01*
X13117Y8326D01*
Y8332D01*
X13123Y8338D01*
X13135D01*
X13141Y8332D01*
Y8320D01*
X13135Y8314D01*
X13141Y8349D02*
X13117D01*
X13106Y8361D01*
X13117Y8373D01*
X13141D01*
X13123D01*
Y8349D01*
X15240Y8438D02*
Y8478D01*
X15301D02*
Y8438D01*
X15301Y8438D02*
X15240D01*
Y8478D02*
X15301D01*
X15181Y8478D02*
Y8438D01*
X15120D02*
Y8478D01*
X15120Y8478D02*
X15181D01*
Y8438D02*
X15120D01*
X15525Y7735D02*
Y7243D01*
X15860D02*
Y7735D01*
X15525D01*
Y7243D02*
X15860D01*
Y7952D02*
Y8444D01*
X15525D02*
Y7952D01*
X15860D01*
Y8444D02*
X15525D01*
X14616Y6875D02*
X14501D01*
Y6955D02*
X14616D01*
X15181Y7020D02*
Y7060D01*
X15120D02*
Y7020D01*
X15120Y7060D02*
X15181D01*
Y7020D02*
X15120D01*
X15240Y7020D02*
Y7060D01*
X15301D02*
Y7020D01*
X15301Y7020D02*
X15240D01*
Y7060D02*
X15301D01*
X14926Y6881D02*
Y6841D01*
X14865D02*
Y6881D01*
X14865Y6840D02*
X14926D01*
Y6880D02*
X14865D01*
X15001Y6820D02*
X15116D01*
Y6900D02*
X15001D01*
X15206Y6879D02*
Y6940D01*
X15166D02*
Y6879D01*
X15166Y6879D02*
X15206D01*
Y6940D02*
X15166D01*
X14926Y6941D02*
Y6901D01*
X14865D02*
Y6941D01*
X14865Y6900D02*
X14926D01*
Y6940D02*
X14865D01*
X14616Y7663D02*
X14501D01*
Y7583D02*
X14616D01*
X15120Y7728D02*
Y7768D01*
X15181D02*
Y7728D01*
X15181Y7728D02*
X15120D01*
Y7768D02*
X15181D01*
X15301Y7768D02*
Y7728D01*
X15240D02*
Y7768D01*
X15240Y7768D02*
X15301D01*
Y7728D02*
X15240D01*
X14865Y7418D02*
Y7378D01*
X14926D02*
Y7418D01*
X14926Y7378D02*
X14865D01*
Y7418D02*
X14926D01*
X14926Y7328D02*
Y7288D01*
X14865D02*
Y7328D01*
X14865Y7328D02*
X14926D01*
Y7288D02*
X14865D01*
X14926Y7268D02*
Y7228D01*
X14865D02*
Y7268D01*
X14865Y7268D02*
X14926D01*
Y7228D02*
X14865D01*
X14865Y7549D02*
Y7589D01*
X14926D02*
Y7549D01*
X14926Y7588D02*
X14865D01*
Y7548D02*
X14926D01*
X14865Y7498D02*
Y7458D01*
X14926D02*
Y7498D01*
X14926Y7458D02*
X14865D01*
Y7498D02*
X14926D01*
X15001Y7608D02*
X15116D01*
Y7528D02*
X15001D01*
Y7268D02*
X15116D01*
Y7348D02*
X15001D01*
X15246Y7328D02*
Y7288D01*
X15185D02*
Y7328D01*
X15185Y7328D02*
X15246D01*
Y7288D02*
X15185D01*
X15166Y7587D02*
Y7648D01*
X15206D02*
Y7587D01*
X15206Y7648D02*
X15166D01*
Y7587D02*
X15206D01*
X14865Y7609D02*
Y7649D01*
X14926D02*
Y7609D01*
X14926Y7648D02*
X14865D01*
Y7608D02*
X14926D01*
X14926Y8319D02*
Y8359D01*
X14865D02*
Y8319D01*
X14865Y8318D02*
X14926D01*
Y8358D02*
X14865D01*
X15206Y8358D02*
Y8297D01*
X15166D02*
Y8358D01*
X15166Y8297D02*
X15206D01*
Y8358D02*
X15166D01*
X15185Y8038D02*
Y7998D01*
X15246D02*
Y8038D01*
X15246Y7998D02*
X15185D01*
Y8038D02*
X15246D01*
X15116Y8058D02*
X15001D01*
Y7978D02*
X15116D01*
Y8238D02*
X15001D01*
Y8318D02*
X15116D01*
X14926Y8208D02*
Y8168D01*
X14865D02*
Y8208D01*
X14865Y8208D02*
X14926D01*
Y8168D02*
X14865D01*
X14926Y8259D02*
Y8299D01*
X14865D02*
Y8259D01*
X14865Y8258D02*
X14926D01*
Y8298D02*
X14865D01*
X14865Y8038D02*
Y7998D01*
X14926D02*
Y8038D01*
X14926Y7998D02*
X14865D01*
Y8038D02*
X14926D01*
X14926Y8088D02*
Y8128D01*
X14865D02*
Y8088D01*
X14865Y8128D02*
X14926D01*
Y8088D02*
X14865D01*
X14616Y8293D02*
X14501D01*
Y8373D02*
X14616D01*
X14865Y7978D02*
Y7938D01*
X14926D02*
Y7978D01*
X14926Y7938D02*
X14865D01*
Y7978D02*
X14926D01*
X15860Y7026D02*
Y6534D01*
X15525D02*
Y7026D01*
Y6534D02*
X15860D01*
Y7026D02*
X15525D01*
X15860Y6317D02*
Y5825D01*
X15525D02*
Y6317D01*
Y5825D02*
X15860D01*
Y6317D02*
X15525D01*
X14616Y6166D02*
X14501D01*
Y6246D02*
X14616D01*
X15181Y6311D02*
Y6351D01*
X15120D02*
Y6311D01*
X15120Y6351D02*
X15181D01*
Y6311D02*
X15120D01*
X15240Y6311D02*
Y6351D01*
X15301D02*
Y6311D01*
X15301Y6311D02*
X15240D01*
Y6351D02*
X15301D01*
X14926Y6001D02*
Y5961D01*
X14865D02*
Y6001D01*
X14865Y6001D02*
X14926D01*
Y5961D02*
X14865D01*
X14865Y5911D02*
Y5871D01*
X14926D02*
Y5911D01*
X14926Y5871D02*
X14865D01*
Y5911D02*
X14926D01*
X14865Y5851D02*
Y5811D01*
X14926D02*
Y5851D01*
X14926Y5811D02*
X14865D01*
Y5851D02*
X14926D01*
X14926Y6132D02*
Y6172D01*
X14865D02*
Y6132D01*
X14865Y6131D02*
X14926D01*
Y6171D02*
X14865D01*
X14926Y6081D02*
Y6041D01*
X14865D02*
Y6081D01*
X14865Y6081D02*
X14926D01*
Y6041D02*
X14865D01*
X15001Y6111D02*
X15116D01*
Y6191D02*
X15001D01*
Y5931D02*
X15116D01*
Y5851D02*
X15001D01*
X15185Y5871D02*
Y5911D01*
X15246D02*
Y5871D01*
X15246Y5871D02*
X15185D01*
Y5911D02*
X15246D01*
X15206Y6170D02*
Y6231D01*
X15166D02*
Y6170D01*
X15166Y6170D02*
X15206D01*
Y6231D02*
X15166D01*
X14926Y6232D02*
Y6192D01*
X14865D02*
Y6232D01*
X14865Y6191D02*
X14926D01*
Y6231D02*
X14865D01*
X14926Y6670D02*
Y6710D01*
X14865D02*
Y6670D01*
X14865Y6710D02*
X14926D01*
Y6670D02*
X14865D01*
X14865Y6620D02*
Y6580D01*
X14926D02*
Y6620D01*
X14926Y6580D02*
X14865D01*
Y6620D02*
X14926D01*
X14865Y6556D02*
Y6516D01*
X14926D02*
Y6556D01*
X14926Y6516D02*
X14865D01*
Y6556D02*
X14926D01*
X14926Y6750D02*
Y6790D01*
X14865D02*
Y6750D01*
X14865Y6790D02*
X14926D01*
Y6750D02*
X14865D01*
X15001Y6640D02*
X15116D01*
Y6560D02*
X15001D01*
X15185Y6580D02*
Y6620D01*
X15246D02*
Y6580D01*
X15246Y6580D02*
X15185D01*
Y6620D02*
X15246D01*
X14586Y8428D02*
Y8468D01*
X14525D02*
Y8428D01*
X14525Y8468D02*
X14586D01*
Y8428D02*
X14525D01*
X13647Y7755D02*
X13643Y7741D01*
X13633Y7730D01*
X13619Y7727D01*
X13605Y7730D01*
X13595Y7741D01*
X13591Y7755D01*
X13595Y7768D01*
X13605Y7779D01*
X13619Y7782D01*
X13633Y7779D01*
X13643Y7768D01*
X13647Y7755D01*
X13599Y7656D02*
X13521Y7735D01*
X13599Y7656D02*
Y6514D01*
X12379D02*
Y7735D01*
X13521D01*
X13599Y6514D02*
X12379D01*
X14062Y8311D02*
Y8321D01*
X14067D02*
Y8311D01*
X14057D02*
Y8321D01*
Y8311D02*
X14067D01*
Y8321D02*
X14057D01*
X13796Y7200D02*
X13681D01*
Y7120D02*
X13796D01*
Y7050D02*
X13681D01*
Y6970D02*
X13796D01*
X14586Y7010D02*
Y7050D01*
X14525D02*
Y7010D01*
X14525Y7050D02*
X14586D01*
Y7010D02*
X14525D01*
X14525Y7718D02*
Y7758D01*
X14586D02*
Y7718D01*
X14586Y7718D02*
X14525D01*
Y7758D02*
X14586D01*
X14580Y7268D02*
Y7228D01*
X14641D02*
Y7268D01*
X14641Y7228D02*
X14580D01*
Y7268D02*
X14641D01*
X13796Y7478D02*
X13681D01*
Y7558D02*
X13796D01*
Y7398D02*
X13681D01*
Y7478D02*
X13796D01*
Y6970D02*
X13681D01*
Y6890D02*
X13796D01*
X14641Y7938D02*
Y7978D01*
X14580D02*
Y7938D01*
X14580Y7978D02*
X14641D01*
Y7938D02*
X14580D01*
X13427Y7981D02*
Y7866D01*
X13347D02*
Y7981D01*
X13435Y8125D02*
Y8255D01*
X13195D02*
Y8125D01*
X13405Y8255D02*
X13435D01*
X13225D02*
X13195D01*
X13285Y7977D02*
Y7862D01*
X13205D02*
Y7977D01*
X13178Y7979D02*
Y7918D01*
X13138D02*
Y7979D01*
X13138Y7918D02*
X13178D01*
Y7979D02*
X13138D01*
X14121Y8162D02*
Y8223D01*
X14081D02*
Y8162D01*
X14081Y8162D02*
X14121D01*
Y8223D02*
X14081D01*
X13796Y7278D02*
X13681D01*
Y7198D02*
X13796D01*
X13700Y8201D02*
Y8262D01*
X13660D02*
Y8201D01*
X13660Y8201D02*
X13700D01*
Y8262D02*
X13660D01*
X13755Y7845D02*
Y7805D01*
X13694D02*
Y7845D01*
X13694Y7845D02*
X13755D01*
Y7805D02*
X13694D01*
X13753Y7784D02*
Y7744D01*
X13692D02*
Y7784D01*
X13692Y7785D02*
X13753D01*
Y7745D02*
X13692D01*
X13877Y7984D02*
Y8024D01*
X13816D02*
Y7984D01*
X13816Y8025D02*
X13877D01*
Y7985D02*
X13816D01*
X13858Y8363D02*
Y8423D01*
X13978D02*
Y8363D01*
Y8423D02*
X13858D01*
Y8363D02*
X13978D01*
X13756Y5885D02*
Y5875D01*
X13746D02*
Y5885D01*
X13751D02*
Y5875D01*
X13746D02*
X13756D01*
Y5885D02*
X13746D01*
X13713Y6115D02*
Y6176D01*
X13673D02*
Y6115D01*
X13673Y6115D02*
X13713D01*
Y6176D02*
X13673D01*
X14586Y6301D02*
Y6341D01*
X14525D02*
Y6301D01*
X14525Y6341D02*
X14586D01*
Y6301D02*
X14525D01*
X14641Y5851D02*
Y5811D01*
X14580D02*
Y5851D01*
X14580Y5851D02*
X14641D01*
Y5811D02*
X14580D01*
X14641Y6520D02*
Y6560D01*
X14580D02*
Y6520D01*
X14580Y6560D02*
X14641D01*
Y6520D02*
X14580D01*
X13796Y6611D02*
X13681D01*
Y6691D02*
X13796D01*
X13681D01*
Y6771D02*
X13796D01*
X13267Y5949D02*
Y5834D01*
X13187D02*
Y5949D01*
X13407Y5949D02*
Y5834D01*
X13327D02*
Y5949D01*
X13427Y6070D02*
Y6200D01*
X13187D02*
Y6070D01*
X13397Y6200D02*
X13427D01*
X13217D02*
X13187D01*
X13558Y6443D02*
Y6483D01*
X13497D02*
Y6443D01*
X13497Y6483D02*
X13558D01*
Y6443D02*
X13497D01*
X13159Y5955D02*
Y5894D01*
X13119D02*
Y5955D01*
X13118Y5894D02*
X13158D01*
Y5955D02*
X13118D01*
X13900Y6176D02*
Y6237D01*
X13860D02*
Y6176D01*
X13860Y6176D02*
X13900D01*
Y6237D02*
X13860D01*
X13814Y6238D02*
Y6177D01*
X13774D02*
Y6238D01*
X13774Y6177D02*
X13814D01*
Y6238D02*
X13774D01*
X13728Y6285D02*
Y6325D01*
X13667D02*
Y6285D01*
X13667Y6325D02*
X13728D01*
Y6285D02*
X13667D01*
X13832Y6480D02*
Y6520D01*
X13771D02*
Y6480D01*
X13771Y6521D02*
X13832D01*
Y6481D02*
X13771D01*
X13959Y5822D02*
Y5762D01*
X13839D02*
Y5822D01*
Y5762D02*
X13959D01*
Y5822D02*
X13839D01*
X12619Y8468D02*
Y8508D01*
X12558D02*
Y8468D01*
X12558Y8509D02*
X12619D01*
Y8469D02*
X12558D01*
X12402Y8473D02*
Y8504D01*
X12465D02*
Y8473D01*
X12466Y8505D02*
X12403D01*
Y8473D02*
X12466D01*
X12182Y8455D02*
Y8495D01*
X12121D02*
Y8455D01*
X12121Y8495D02*
X12182D01*
Y8455D02*
X12121D01*
X11618Y7187D02*
Y7147D01*
X11557D02*
Y7187D01*
X11557Y7188D02*
X11618D01*
Y7148D02*
X11557D01*
X13047Y7766D02*
Y7806D01*
X12986D02*
Y7766D01*
X12986Y7806D02*
X13047D01*
Y7766D02*
X12986D01*
X12306Y7144D02*
Y7104D01*
X12245D02*
Y7144D01*
X12245Y7145D02*
X12306D01*
Y7105D02*
X12245D01*
X11528Y7003D02*
Y6963D01*
X11467D02*
Y7003D01*
X11467Y7003D02*
X11528D01*
Y6963D02*
X11467D01*
X11528Y7448D02*
Y7488D01*
X11467D02*
Y7448D01*
X11467Y7487D02*
X11528D01*
Y7447D02*
X11467D01*
X12245Y7689D02*
Y7750D01*
X12285D02*
Y7689D01*
X12284Y7750D02*
X12244D01*
Y7689D02*
X12284D01*
X12304Y7689D02*
Y7750D01*
X12344D02*
Y7689D01*
X12343Y7750D02*
X12303D01*
Y7689D02*
X12343D01*
X11694Y7420D02*
Y7380D01*
X11755D02*
Y7420D01*
X11755Y7380D02*
X11694D01*
Y7420D02*
X11755D01*
X11903Y7262D02*
Y7222D01*
X11842D02*
Y7262D01*
X11842Y7262D02*
X11903D01*
Y7222D02*
X11842D01*
X11903Y6924D02*
Y6884D01*
X11842D02*
Y6924D01*
X11842Y6924D02*
X11903D01*
Y6884D02*
X11842D01*
X11694Y7222D02*
Y7262D01*
X11755D02*
Y7222D01*
X11755Y7223D02*
X11694D01*
Y7263D02*
X11755D01*
X11694Y6924D02*
Y6884D01*
X11755D02*
Y6924D01*
X11755Y6884D02*
X11694D01*
Y6924D02*
X11755D01*
X11903Y7380D02*
Y7420D01*
X11842D02*
Y7380D01*
X11842Y7420D02*
X11903D01*
Y7380D02*
X11842D01*
X11903Y7343D02*
Y7303D01*
X11842D02*
Y7343D01*
X11842Y7343D02*
X11903D01*
Y7303D02*
X11842D01*
X12121Y8388D02*
Y8428D01*
X12182D02*
Y8388D01*
X12182Y8388D02*
X12121D01*
Y8428D02*
X12182D01*
X12123Y8355D02*
Y8315D01*
X12184D02*
Y8355D01*
X12184Y8315D02*
X12123D01*
Y8355D02*
X12184D01*
X12734Y7817D02*
Y7777D01*
X12795D02*
Y7817D01*
X12795Y7778D02*
X12734D01*
Y7818D02*
X12795D01*
X12954Y5851D02*
Y5811D01*
X13015D02*
Y5851D01*
X13015Y5811D02*
X12954D01*
Y5851D02*
X13015D01*
X12397Y6431D02*
Y6471D01*
X12336D02*
Y6431D01*
X12336Y6471D02*
X12397D01*
Y6431D02*
X12336D01*
X13024Y6405D02*
Y6466D01*
X13064D02*
Y6405D01*
X13065Y6466D02*
X13025D01*
Y6405D02*
X13065D01*
X11999Y6404D02*
Y6364D01*
X11938D02*
Y6404D01*
X11938Y6404D02*
X11999D01*
Y6364D02*
X11938D01*
X11862Y6364D02*
Y6404D01*
X11801D02*
Y6364D01*
X11801Y6404D02*
X11862D01*
Y6364D02*
X11801D01*
X11958Y6237D02*
Y6176D01*
X11918D02*
Y6237D01*
X11918Y6176D02*
X11958D01*
Y6237D02*
X11918D01*
X12946Y6054D02*
Y6014D01*
X13007D02*
Y6054D01*
X13007Y6014D02*
X12946D01*
Y6054D02*
X13007D01*
X11837Y5913D02*
Y5873D01*
X11898D02*
Y5913D01*
X11898Y5872D02*
X11837D01*
Y5912D02*
X11898D01*
X11837Y5971D02*
Y6011D01*
X11898D02*
Y5971D01*
X11898Y5971D02*
X11837D01*
Y6011D02*
X11898D01*
X11837Y6030D02*
Y6070D01*
X11898D02*
Y6030D01*
X11898Y6030D02*
X11837D01*
Y6070D02*
X11898D01*
X11903Y6737D02*
Y6777D01*
X11842D02*
Y6737D01*
X11842Y6777D02*
X11903D01*
Y6737D02*
X11842D01*
X11694Y6737D02*
Y6777D01*
X11755D02*
Y6737D01*
X11755Y6737D02*
X11694D01*
Y6777D02*
X11755D01*
X11903Y6814D02*
Y6854D01*
X11842D02*
Y6814D01*
X11842Y6854D02*
X11903D01*
Y6814D02*
X11842D01*
X11468Y7148D02*
Y7188D01*
X11407D02*
Y7148D01*
X11407Y7189D02*
X11468D01*
Y7149D02*
X11407D01*
X11405Y7447D02*
Y7487D01*
X11344D02*
Y7447D01*
X11344Y7487D02*
X11405D01*
Y7447D02*
X11344D01*
X11405Y7002D02*
Y6962D01*
X11344D02*
Y7002D01*
X11344Y7003D02*
X11405D01*
Y6963D02*
X11344D01*
X10986Y7165D02*
Y7280D01*
X10906D02*
Y7165D01*
X11265Y7773D02*
Y7813D01*
X11326D02*
Y7773D01*
X11326Y7774D02*
X11265D01*
Y7814D02*
X11326D01*
X11143Y7593D02*
Y7561D01*
X11206D02*
Y7593D01*
X11206Y7593D02*
X11143D01*
Y7561D02*
X11206D01*
X10800Y7306D02*
Y7275D01*
X10863D02*
Y7306D01*
X10863Y7306D02*
X10800D01*
Y7274D02*
X10863D01*
X11150Y7116D02*
Y7085D01*
X11213D02*
Y7116D01*
X11214Y7117D02*
X11151D01*
Y7085D02*
X11214D01*
X11206Y7499D02*
Y7539D01*
X11145D02*
Y7499D01*
X11145Y7539D02*
X11206D01*
Y7499D02*
X11145D01*
X11011Y7284D02*
Y7223D01*
X11051D02*
Y7284D01*
X11050Y7284D02*
X11010D01*
Y7223D02*
X11050D01*
X11045Y8124D02*
X10930D01*
Y8044D02*
X11045D01*
X11220Y7984D02*
Y7869D01*
X11300D02*
Y7984D01*
X11330Y7121D02*
Y7081D01*
X11269D02*
Y7121D01*
X11269Y7121D02*
X11330D01*
Y7081D02*
X11269D01*
X11330Y7557D02*
Y7597D01*
X11269D02*
Y7557D01*
X11269Y7597D02*
X11330D01*
Y7557D02*
X11269D01*
X11140Y7824D02*
Y7954D01*
X10900D02*
Y7824D01*
X11110D02*
X11140D01*
X10930D02*
X10900D01*
X10989Y7026D02*
Y6965D01*
X10949D02*
Y7026D01*
X10949Y6965D02*
X10989D01*
Y7026D02*
X10949D01*
X10849Y7046D02*
Y7086D01*
X10910D02*
Y7046D01*
X10910Y7046D02*
X10849D01*
Y7086D02*
X10910D01*
X10840Y6947D02*
Y6907D01*
X10901D02*
Y6947D01*
X10901Y6908D02*
X10840D01*
Y6948D02*
X10901D01*
X10840Y6970D02*
Y7010D01*
X10901D02*
Y6970D01*
X10901Y6971D02*
X10840D01*
Y7011D02*
X10901D01*
X11209Y7022D02*
Y7062D01*
X11148D02*
Y7022D01*
X11148Y7062D02*
X11209D01*
Y7022D02*
X11148D01*
X9977Y5947D02*
Y5907D01*
X10038D02*
Y5947D01*
X10038Y5907D02*
X9977D01*
Y5947D02*
X10038D01*
X9977Y5982D02*
Y6022D01*
X10038D02*
Y5982D01*
X10038Y5982D02*
X9977D01*
Y6022D02*
X10038D01*
X9977Y6057D02*
Y6097D01*
X10038D02*
Y6057D01*
X10038Y6057D02*
X9977D01*
Y6097D02*
X10038D01*
X9977Y6132D02*
Y6172D01*
X10038D02*
Y6132D01*
X10038Y6132D02*
X9977D01*
Y6172D02*
X10038D01*
X11449Y6601D02*
Y6641D01*
X11388D02*
Y6601D01*
X11388Y6642D02*
X11449D01*
Y6602D02*
X11388D01*
X11448Y6672D02*
Y6712D01*
X11387D02*
Y6672D01*
X11387Y6713D02*
X11448D01*
Y6673D02*
X11387D01*
X10800Y6818D02*
Y6849D01*
X10863D02*
Y6818D01*
X10863Y6849D02*
X10800D01*
Y6817D02*
X10863D01*
X10906Y6823D02*
Y6708D01*
X10986D02*
Y6823D01*
X11011Y6827D02*
Y6766D01*
X11051D02*
Y6827D01*
X11050Y6827D02*
X11010D01*
Y6766D02*
X11050D01*
X10438Y6349D02*
X10435Y6335D01*
X10426Y6323D01*
X10413Y6316D01*
X10399Y6314D01*
X10385Y6319D01*
X10374Y6328D01*
X10368Y6342D01*
Y6356D01*
X10374Y6370D01*
X10385Y6379D01*
X10399Y6384D01*
X10413Y6382D01*
X10426Y6375D01*
X10435Y6363D01*
X10438Y6349D01*
X10276Y6345D02*
X10273Y6331D01*
X10265Y6319D01*
X10252Y6312D01*
X10237Y6310D01*
X10224Y6315D01*
X10213Y6325D01*
X10207Y6338D01*
Y6352D01*
X10213Y6366D01*
X10224Y6375D01*
X10237Y6380D01*
X10252Y6378D01*
X10265Y6371D01*
X10273Y6359D01*
X10276Y6345D01*
X10197Y6459D02*
X10194Y6445D01*
X10186Y6433D01*
X10173Y6426D01*
X10159Y6424D01*
X10145Y6429D01*
X10134Y6439D01*
X10128Y6452D01*
Y6467D01*
X10134Y6480D01*
X10145Y6490D01*
X10159Y6494D01*
X10173Y6493D01*
X10186Y6485D01*
X10194Y6474D01*
X10197Y6459D01*
X10355D02*
X10352Y6445D01*
X10343Y6433D01*
X10331Y6426D01*
X10316Y6424D01*
X10302Y6429D01*
X10292Y6439D01*
X10286Y6452D01*
Y6467D01*
X10292Y6480D01*
X10302Y6490D01*
X10316Y6494D01*
X10331Y6493D01*
X10343Y6485D01*
X10352Y6474D01*
X10355Y6459D01*
X9757Y8088D02*
Y8149D01*
X9717D02*
Y8088D01*
X9717Y8088D02*
X9757D01*
Y8149D02*
X9717D01*
X9690Y8094D02*
Y8209D01*
X9610D02*
Y8094D01*
X9548D02*
Y8209D01*
X9468D02*
Y8094D01*
X9700Y7973D02*
Y7843D01*
X9460D02*
Y7973D01*
X9670Y7843D02*
X9700D01*
X9490D02*
X9460D01*
X8970Y7303D02*
X10387Y7303D01*
Y7082D02*
X8971Y7083D01*
X8970Y7303D01*
X10387Y7303D02*
Y7082D01*
X9187Y6148D02*
X9072D01*
Y6068D02*
X9187D01*
X9694Y6575D02*
Y6636D01*
X9734D02*
Y6575D01*
X9733Y6636D02*
X9693D01*
Y6575D02*
X9733D01*
X9734Y6692D02*
Y6753D01*
X9694D02*
Y6692D01*
X9694Y6692D02*
X9734D01*
Y6753D02*
X9694D01*
X9674Y6773D02*
Y6712D01*
X9634D02*
Y6773D01*
X9634Y6712D02*
X9674D01*
Y6773D02*
X9634D01*
X9336Y6393D02*
X9322Y6385D01*
Y6401D01*
X9336Y6393D01*
X9569Y6427D02*
Y6152D01*
X9293D02*
Y6427D01*
Y6152D02*
X9569D01*
Y6427D02*
X9293D01*
X9508Y6704D02*
Y6744D01*
X9447D02*
Y6704D01*
X9447Y6743D02*
X9508D01*
Y6703D02*
X9447D01*
X9230Y6703D02*
Y6743D01*
X9291D02*
Y6703D01*
X9291Y6703D02*
X9230D01*
Y6743D02*
X9291D01*
X9291Y6774D02*
Y6814D01*
X9230D02*
Y6774D01*
X9230Y6814D02*
X9291D01*
Y6774D02*
X9230D01*
X9142Y6335D02*
Y6274D01*
X9182D02*
Y6335D01*
X9182Y6335D02*
X9142D01*
Y6274D02*
X9182D01*
X9056Y6041D02*
Y6001D01*
X8995D02*
Y6041D01*
X8995Y6041D02*
X9056D01*
Y6001D02*
X8995D01*
X9057Y5969D02*
Y5929D01*
X8996D02*
Y5969D01*
X8996Y5969D02*
X9057D01*
Y5929D02*
X8996D01*
X9226Y6001D02*
Y6041D01*
X9165D02*
Y6001D01*
X9165Y6041D02*
X9226D01*
Y6001D02*
X9165D01*
X7955Y8095D02*
Y8156D01*
X7915D02*
Y8095D01*
X7916Y8095D02*
X7956D01*
Y8156D02*
X7916D01*
X7889Y8101D02*
Y8216D01*
X7809D02*
Y8101D01*
X7727D02*
Y8216D01*
X7647D02*
Y8101D01*
X7898Y7980D02*
Y7850D01*
X7658D02*
Y7980D01*
X7868Y7850D02*
X7898D01*
X7688D02*
X7658D01*
X7613Y7356D02*
Y7219D01*
X7131D02*
Y7356D01*
X7613Y7553D02*
Y7693D01*
X7131D02*
Y7537D01*
X7613Y7561D02*
Y7350D01*
X7131D02*
Y7559D01*
X7604Y7219D02*
X7613D01*
X7612D02*
X7458D01*
X7462D02*
X7284D01*
X7287D02*
X7131D01*
X7455Y7693D02*
X7613D01*
X7461D02*
X7285D01*
X7290D02*
X7131D01*
X7332Y7499D02*
Y7449D01*
X7412D02*
Y7499D01*
Y7449D02*
X7332D01*
Y7499D02*
X7412D01*
X8102Y6085D02*
Y6045D01*
X8041D02*
Y6085D01*
X8041Y6086D02*
X8102D01*
Y6046D02*
X8041D01*
X8243Y6045D02*
Y6085D01*
X8182D02*
Y6045D01*
X8182Y6086D02*
X8243D01*
Y6046D02*
X8182D01*
X6638Y7212D02*
Y7349D01*
X6156D02*
Y7212D01*
X6638Y7546D02*
Y7686D01*
X6156D02*
Y7530D01*
X6638Y7554D02*
Y7343D01*
X6156D02*
Y7552D01*
X6629Y7212D02*
X6638D01*
X6637D02*
X6483D01*
X6487D02*
X6309D01*
X6312D02*
X6156D01*
X6480Y7686D02*
X6638D01*
X6486D02*
X6310D01*
X6315D02*
X6156D01*
X6275Y6855D02*
Y6815D01*
X6336D02*
Y6855D01*
X6336Y6815D02*
X6275D01*
Y6855D02*
X6336D01*
X6229Y6329D02*
Y6268D01*
X6269D02*
Y6329D01*
X6269Y6329D02*
X6229D01*
Y6268D02*
X6269D01*
X6306Y6268D02*
Y6329D01*
X6346D02*
Y6268D01*
X6345Y6329D02*
X6305D01*
Y6268D02*
X6345D01*
X4655Y7349D02*
Y7389D01*
X4716D02*
Y7349D01*
X4716Y7349D02*
X4655D01*
Y7389D02*
X4716D01*
X4827Y7482D02*
X4883Y7537D01*
X4961D02*
Y7216D01*
X4827D02*
Y7482D01*
Y7216D02*
X4961D01*
Y7537D02*
X4883D01*
X4957D02*
X4961D01*
X4883Y7117D02*
X4827Y7062D01*
X4961Y7117D02*
Y6796D01*
X4827D02*
Y7062D01*
Y6796D02*
X4961D01*
Y7117D02*
X4883D01*
X4957D02*
X4961D01*
X4711Y7513D02*
Y7553D01*
X4650D02*
Y7513D01*
X4650Y7553D02*
X4711D01*
Y7513D02*
X4650D01*
X4720Y7120D02*
Y7080D01*
X4659D02*
Y7120D01*
X4659Y7120D02*
X4720D01*
Y7080D02*
X4659D01*
X5104Y7078D02*
Y7118D01*
X5165D02*
Y7078D01*
X5165Y7078D02*
X5104D01*
Y7118D02*
X5165D01*
X5091Y7513D02*
Y7553D01*
X5152D02*
Y7513D01*
X5152Y7513D02*
X5091D01*
Y7553D02*
X5152D01*
X4791Y7960D02*
X4676D01*
Y8040D02*
X4791D01*
Y7842D02*
X4676D01*
Y7922D02*
X4791D01*
D20*
X7448Y7166D02*
X7531Y7083D01*
X7212Y7166D02*
X7129Y7083D01*
Y7079D02*
Y6886D01*
X7531Y6760D02*
Y7083D01*
X7129D02*
Y6760D01*
X7239D02*
X7381D01*
X7417Y7166D02*
X7448D01*
X7531Y6760D02*
X7204D01*
X7236D02*
X7129D01*
Y6819D02*
X7531D01*
X7421Y7166D02*
X7212D01*
X7099Y7241D02*
X7016Y7324D01*
X6780D02*
X6697Y7241D01*
Y7237D02*
Y7044D01*
X7099Y6918D02*
Y7241D01*
X6697D02*
Y6918D01*
X6807D02*
X6949D01*
X6985Y7324D02*
X7016D01*
X7099Y6918D02*
X6772D01*
X6804D02*
X6697D01*
Y6977D02*
X7099D01*
X6989Y7324D02*
X6780D01*
X5150Y7711D02*
X5067Y7794D01*
Y8030D02*
X5150Y8113D01*
X5067Y8003D02*
Y7794D01*
X5413Y7711D02*
Y8113D01*
X5472Y7818D02*
Y7711D01*
Y7786D02*
Y8113D01*
X5067Y8030D02*
Y7999D01*
X5472Y7963D02*
Y7821D01*
Y7711D02*
X5150D01*
Y8113D02*
X5472D01*
X5346Y7711D02*
X5154D01*
X6240Y6802D02*
X6323Y6719D01*
X6004Y6802D02*
X5921Y6719D01*
Y6715D02*
Y6522D01*
X6323Y6396D02*
Y6719D01*
X5921D02*
Y6396D01*
X6031D02*
X6173D01*
X6209Y6802D02*
X6240D01*
X6323Y6396D02*
X5996D01*
X6028D02*
X5921D01*
Y6455D02*
X6323D01*
X6213Y6802D02*
X6004D01*
D21*
X4850Y8235D02*
Y8305D01*
X4885D01*
X4897Y8293D01*
Y8270D01*
X4885Y8258D01*
X4850D01*
X4873D02*
X4897Y8235D01*
X4932D02*
X4955D01*
X4932D02*
X4920Y8247D01*
Y8270D01*
X4932Y8282D01*
X4955D01*
X4967Y8270D01*
Y8258D01*
X4920D01*
X4990Y8282D02*
X5013Y8235D01*
X5037Y8282D01*
X5130Y8235D02*
X5153D01*
X5142D01*
Y8305D01*
X5143D01*
X5142D02*
X5130Y8293D01*
X5188Y8247D02*
Y8235D01*
Y8247D02*
X5200D01*
Y8235D01*
X5188D01*
X5247Y8305D02*
X5293D01*
X5247D02*
Y8270D01*
X5270Y8282D01*
X5282D01*
X5293Y8270D01*
Y8247D01*
X5282Y8235D01*
X5258D01*
X5247Y8247D01*
X4351Y8239D02*
X4328D01*
X4339D02*
X4351D01*
X4339D02*
Y8309D01*
X4340D01*
X4339D02*
X4328Y8297D01*
X4386D02*
X4398Y8309D01*
X4421D01*
X4433Y8297D01*
Y8250D01*
X4421Y8239D01*
X4398D01*
X4386Y8250D01*
Y8297D01*
X4456D02*
X4468Y8309D01*
X4491D01*
X4503Y8297D01*
Y8250D01*
X4491Y8239D01*
X4468D01*
X4456Y8250D01*
Y8297D01*
X4561Y8309D02*
Y8239D01*
X4526Y8274D02*
X4561Y8309D01*
X4573Y8274D02*
X4526D01*
X4596Y8297D02*
X4608Y8309D01*
X4631D01*
X4643Y8297D01*
Y8250D01*
X4631Y8239D01*
X4608D01*
X4596Y8250D01*
Y8297D01*
X4666Y8309D02*
X4713D01*
Y8297D01*
X4666Y8250D01*
Y8239D01*
X10484Y5978D02*
Y5958D01*
Y5968D02*
Y5978D01*
Y5968D02*
X10514D01*
X10484Y6003D02*
X10489Y6008D01*
X10484Y6003D02*
Y5993D01*
X10489Y5988D01*
X10509D01*
X10514Y5993D01*
Y6003D01*
X10509Y6008D01*
X10514Y6018D02*
X10484D01*
X10504D02*
X10514D01*
X10504D02*
X10484Y6038D01*
X10499Y6023D01*
X10514Y6038D01*
X10566Y5971D02*
Y5951D01*
Y5961D02*
Y5971D01*
Y5961D02*
X10596D01*
Y5981D02*
X10566D01*
X10596D02*
Y5996D01*
X10591Y6001D01*
X10571D01*
X10566Y5996D01*
Y5981D01*
Y6016D02*
Y6026D01*
Y6016D02*
X10571Y6011D01*
X10591D01*
X10596Y6016D01*
Y6026D01*
X10591Y6031D01*
X10571D01*
X10566Y6026D01*
X4336Y8137D02*
Y8207D01*
Y8137D02*
X4371D01*
X4382Y8149D01*
Y8196D01*
X4371Y8207D01*
X4336D01*
X4406D02*
Y8137D01*
Y8161D01*
X4452Y8207D01*
X4417Y8172D01*
X4452Y8137D01*
X4476Y8172D02*
X4522D01*
X4546Y8207D02*
X4592D01*
X4569D01*
Y8137D01*
X4627D02*
X4650D01*
X4627D02*
X4616Y8149D01*
Y8172D01*
X4627Y8184D01*
X4650D01*
X4662Y8172D01*
Y8161D01*
X4616D01*
X4697Y8184D02*
X4732D01*
X4697D02*
X4685Y8172D01*
Y8149D01*
X4697Y8137D01*
X4732D01*
X4755D02*
Y8207D01*
Y8172D02*
Y8137D01*
Y8172D02*
X4767Y8184D01*
X4790D01*
X4802Y8172D01*
Y8137D01*
X4825D02*
Y8184D01*
X4860D01*
X4872Y8172D01*
Y8137D01*
X4907D02*
X4930D01*
X4942Y8149D01*
Y8172D01*
X4930Y8184D01*
X4907D01*
X4895Y8172D01*
Y8149D01*
X4907Y8137D01*
X4965D02*
X4989D01*
X4977D01*
Y8207D01*
X4965D01*
X5035Y8137D02*
X5059D01*
X5070Y8149D01*
Y8172D01*
X5059Y8184D01*
X5035D01*
X5024Y8172D01*
Y8149D01*
X5035Y8137D01*
X5117Y8114D02*
X5129D01*
X5140Y8126D01*
Y8184D01*
X5105D01*
X5094Y8172D01*
Y8149D01*
X5105Y8137D01*
X5140D01*
X5164D02*
X5187D01*
X5175D01*
Y8184D01*
X5164D01*
X5175Y8207D02*
X5176D01*
X5234Y8137D02*
X5257D01*
X5234D02*
X5222Y8149D01*
Y8172D01*
X5234Y8184D01*
X5257D01*
X5269Y8172D01*
Y8161D01*
X5222D01*
X5292Y8137D02*
X5327D01*
X5339Y8149D01*
X5327Y8161D01*
X5304D01*
X5292Y8172D01*
X5304Y8184D01*
X5339D01*
X13811Y6791D02*
X13838D01*
X13824Y6778D02*
Y6804D01*
X13811Y6591D02*
X13838D01*
X13824Y6578D02*
Y6604D01*
X13811Y6870D02*
X13838D01*
X13824Y6857D02*
Y6883D01*
X13811Y7070D02*
X13838D01*
X13824Y7057D02*
Y7083D01*
X13811Y7100D02*
X13838D01*
X13824Y7087D02*
Y7113D01*
X13811Y7298D02*
X13838D01*
X13824Y7285D02*
Y7311D01*
X13811Y7378D02*
X13838D01*
X13824Y7365D02*
Y7391D01*
X13811Y7578D02*
X13838D01*
X13824Y7565D02*
Y7591D01*
X13379Y5911D02*
X13359D01*
X13369Y5921D02*
Y5901D01*
X13218Y5911D02*
X13198D01*
X13208Y5921D02*
Y5901D01*
X13367Y7943D02*
X13387D01*
X13377Y7953D02*
Y7933D01*
X13261Y7939D02*
X13241D01*
X13251Y7949D02*
Y7929D01*
X10644Y5984D02*
Y5964D01*
Y5974D02*
Y5984D01*
Y5974D02*
X10674D01*
Y5994D02*
X10644D01*
X10674D02*
Y6009D01*
X10669Y6014D01*
X10649D01*
X10644Y6009D01*
Y5994D01*
Y6024D02*
Y6034D01*
Y6029D01*
X10674D01*
Y6024D01*
Y6034D01*
X10402Y5973D02*
Y5953D01*
Y5963D02*
Y5973D01*
Y5963D02*
X10432D01*
Y5983D02*
X10402D01*
X10412Y5993D01*
X10402Y6003D01*
X10432D01*
X10407Y6033D02*
X10402Y6028D01*
Y6018D01*
X10407Y6013D01*
X10412D01*
X10417Y6018D01*
Y6028D01*
X10422Y6033D01*
X10427D01*
X10432Y6028D01*
Y6018D01*
X10427Y6013D01*
X10339Y5957D02*
X10319D01*
X10339D02*
X10349Y5967D01*
X10339Y5977D01*
X10319D01*
X10329Y5987D02*
X10349D01*
X10339D01*
X10334Y5992D01*
X10329Y5997D01*
Y6002D01*
X10349Y6022D02*
Y6032D01*
Y6022D02*
X10344Y6017D01*
X10334D01*
X10329Y6022D01*
Y6032D01*
X10334Y6037D01*
X10339D01*
Y6017D01*
X10349Y6052D02*
X10324D01*
X10334D01*
Y6047D01*
Y6057D01*
Y6052D01*
X10324D01*
X10319Y6057D01*
X9674Y5875D02*
X9664D01*
X9669D02*
X9674D01*
X9669D02*
Y5905D01*
X9670D01*
X9669D02*
X9664Y5900D01*
X4330Y8347D02*
Y8417D01*
X4365D01*
X4377Y8405D01*
Y8382D01*
X4365Y8370D01*
X4330D01*
X4400Y8417D02*
X4447D01*
X4423D01*
Y8347D01*
X4470Y8405D02*
X4482Y8417D01*
X4505D01*
X4517Y8405D01*
Y8394D01*
X4505Y8382D01*
X4517Y8370D01*
Y8359D01*
X4505Y8347D01*
X4482D01*
X4470Y8359D01*
Y8370D01*
X4482Y8382D01*
X4470Y8394D01*
Y8405D01*
X4482Y8382D02*
X4505D01*
X4563Y8405D02*
X4587Y8417D01*
X4563Y8405D02*
X4540Y8382D01*
Y8359D01*
X4552Y8347D01*
X4575D01*
X4587Y8359D01*
Y8370D01*
X4575Y8382D01*
X4540D01*
X4610Y8347D02*
X4633D01*
X4622D01*
Y8417D01*
X4623D01*
X4622D02*
X4610Y8405D01*
X4668Y8347D02*
X4715D01*
X4668D02*
X4715Y8394D01*
Y8405D01*
X4703Y8417D01*
X4680D01*
X4668Y8405D01*
X4738Y8347D02*
X4785Y8394D01*
X4808Y8347D02*
X4832D01*
X4820D01*
Y8417D01*
X4821D01*
X4820D02*
X4808Y8405D01*
X4866D02*
X4878Y8417D01*
X4901D01*
X4913Y8405D01*
Y8394D01*
X4914D01*
X4913D02*
X4914D01*
X4913D02*
X4914D01*
X4913D02*
X4901Y8382D01*
X4890D01*
X4901D01*
X4913Y8370D01*
Y8359D01*
X4901Y8347D01*
X4878D01*
X4866Y8359D01*
X4936Y8347D02*
X4983Y8394D01*
X5006Y8347D02*
X5030D01*
X5018D01*
Y8417D01*
X5019D01*
X5018D02*
X5006Y8405D01*
X5100Y8417D02*
Y8347D01*
X5065Y8382D02*
X5100Y8417D01*
X5111Y8382D02*
X5065D01*
X5180Y8351D02*
Y8421D01*
X5145Y8386D01*
X5191D01*
X5215Y8409D02*
X5226Y8421D01*
X5250D01*
X5261Y8409D01*
Y8363D01*
X5250Y8351D01*
X5226D01*
X5215Y8363D01*
Y8409D01*
X5285D02*
X5296Y8421D01*
X5320D01*
X5331Y8409D01*
Y8363D01*
X5320Y8351D01*
X5296D01*
X5285Y8363D01*
Y8409D01*
X5355D02*
X5366Y8421D01*
X5390D01*
X5401Y8409D01*
Y8398D01*
X5390Y8386D01*
X5401Y8374D01*
Y8363D01*
X5390Y8351D01*
X5366D01*
X5355Y8363D01*
Y8374D01*
X5366Y8386D01*
X5355Y8398D01*
Y8409D01*
X5366Y8386D02*
X5390D01*
X5495Y8351D02*
X5518D01*
X5506D01*
Y8421D01*
X5507D01*
X5506D02*
X5495Y8409D01*
X5553Y8351D02*
X5576D01*
X5565D01*
Y8421D01*
X5566D01*
X5565D02*
X5553Y8409D01*
X5611Y8421D02*
X5658D01*
Y8409D01*
X5611Y8363D01*
Y8351D01*
X5751Y8409D02*
X5763Y8421D01*
X5786D01*
X5798Y8409D01*
Y8363D01*
X5786Y8351D01*
X5763D01*
X5751Y8363D01*
Y8409D01*
X5821D02*
X5833Y8421D01*
X5856D01*
X5868Y8409D01*
Y8398D01*
X5856Y8386D01*
X5868Y8374D01*
Y8363D01*
X5856Y8351D01*
X5833D01*
X5821Y8363D01*
Y8374D01*
X5833Y8386D01*
X5821Y8398D01*
Y8409D01*
X5833Y8386D02*
X5856D01*
X5891Y8409D02*
X5903Y8421D01*
X5926D01*
X5938Y8409D01*
Y8398D01*
X5939D01*
X5938D02*
X5939D01*
X5938D02*
X5939D01*
X5938D02*
X5926Y8386D01*
X5914D01*
X5926D01*
X5938Y8374D01*
Y8363D01*
X5926Y8351D01*
X5903D01*
X5891Y8363D01*
X5961Y8409D02*
X5973Y8421D01*
X5996D01*
X6008Y8409D01*
Y8398D01*
X5996Y8386D01*
X6008Y8374D01*
Y8363D01*
X5996Y8351D01*
X5973D01*
X5961Y8363D01*
Y8374D01*
X5973Y8386D01*
X5961Y8398D01*
Y8409D01*
X5973Y8386D02*
X5996D01*
X6031Y8421D02*
X6078D01*
X6031D02*
Y8386D01*
X6054Y8398D01*
X6066D01*
X6078Y8386D01*
Y8363D01*
X6066Y8351D01*
X6043D01*
X6031Y8363D01*
X14646Y6990D02*
X14673D01*
X14660Y7003D02*
Y6977D01*
X14981Y6930D02*
X15008D01*
X14994Y6917D02*
Y6943D01*
X14662Y7698D02*
X14635D01*
X14649Y7711D02*
Y7685D01*
X14974Y7629D02*
X15001D01*
X14987Y7616D02*
Y7642D01*
X14993Y7358D02*
X14966D01*
X14979Y7345D02*
Y7371D01*
X14966Y8068D02*
X14993D01*
X14979Y8055D02*
Y8081D01*
X14981Y8348D02*
X15008D01*
X14994Y8335D02*
Y8361D01*
X14664Y8411D02*
X14637D01*
X14651Y8424D02*
Y8398D01*
X14643Y6285D02*
X14670D01*
X14657Y6298D02*
Y6272D01*
X14981Y6221D02*
X15008D01*
X14994Y6208D02*
Y6234D01*
X14993Y5941D02*
X14966D01*
X14979Y5928D02*
Y5954D01*
X14966Y6650D02*
X14993D01*
X14979Y6637D02*
Y6663D01*
X11734Y6395D02*
Y6295D01*
X11034D02*
Y6395D01*
X11134D02*
Y6295D01*
X11034D02*
X11734D01*
Y6395D02*
X11034D01*
X10268Y5788D02*
X10255D01*
X10262D02*
X10268D01*
X10262D02*
Y5828D01*
X10263D01*
X10262D02*
X10255Y5821D01*
X9130Y6104D02*
X9103D01*
X9116Y6091D02*
Y6117D01*
X7423Y7193D02*
X7383D01*
X7403Y7173D02*
Y7213D01*
X6988Y7352D02*
X6948D01*
X6968Y7332D02*
Y7372D01*
X6832Y7248D02*
Y7195D01*
X6859Y7221D02*
X6805D01*
X5160Y7908D02*
Y7931D01*
X5172Y7919D02*
X5149D01*
X6598Y6780D02*
Y6770D01*
Y6775D01*
X6628D01*
X6629D01*
X6628D02*
X6623Y6780D01*
X6937Y6820D02*
Y6420D01*
X6567D02*
Y6820D01*
X6407Y6780D02*
Y6760D01*
Y6731D02*
Y6709D01*
Y6683D02*
Y6659D01*
Y6633D02*
Y6609D01*
Y6583D02*
Y6559D01*
Y6533D02*
Y6509D01*
Y6483D02*
Y6459D01*
X6567Y6420D02*
X6937D01*
Y6820D02*
X6567D01*
Y6780D02*
X6407D01*
Y6760D02*
X6567D01*
Y6731D02*
X6407D01*
Y6709D02*
X6567D01*
Y6683D02*
X6407D01*
Y6659D02*
X6567D01*
Y6633D02*
X6407D01*
Y6609D02*
X6567D01*
Y6583D02*
X6407D01*
Y6559D02*
X6567D01*
Y6533D02*
X6407D01*
Y6509D02*
X6567D01*
Y6483D02*
X6407D01*
Y6459D02*
X6567D01*
X6214Y6840D02*
X6174D01*
X6194Y6820D02*
Y6860D01*
X4197Y7617D02*
X4185D01*
X4191D02*
X4197D01*
X4191D02*
Y7652D01*
X4192D01*
X4191D02*
X4185Y7646D01*
D22*
X11074Y7260D02*
X11104Y7230D01*
X11276D02*
Y7400D01*
X11074D02*
Y7260D01*
Y7400D02*
X11276D01*
Y7230D02*
X11104D01*
X11074Y6782D02*
X11104Y6752D01*
X11276D02*
Y6922D01*
X11074D02*
Y6782D01*
Y6922D02*
X11276D01*
Y6752D02*
X11104D01*
X9569Y6652D02*
Y6532D01*
X9169D02*
Y6652D01*
X9569D01*
Y6532D02*
X9169D01*
X4423Y6571D02*
Y7649D01*
X4221D02*
Y6571D01*
Y7649D02*
X4423D01*
Y6571D02*
X4221D01*
D122*
X7159Y6790D02*
X7501D01*
X7069Y6948D02*
X6727D01*
X5443Y7741D02*
Y8083D01*
X5951Y6426D02*
X6293D01*
D02*
M02*
