M71
M48
T1F00S00C0.047
T2F00S00C0.126
T3F00S00C0.256
%
T01
X03361Y-00094
Y00094
X03826
X04015
Y-00094
X03826Y-00094
X0448
Y00094
X04669
Y-00094
X03172Y-00094
Y00094
X02709
Y-00094
X0252Y-00094
Y00094
X02054
Y-00094
X01865Y-00094
Y00094
X01402
Y-00094
X01213Y-00094
Y00094
X00747
Y-00094
X00558Y-00094
Y00094
X00094
Y-00094
X-00094Y-00094
Y00094
T02
X04836Y00422
X-004
Y02363
X04836Y04182
T03
X0392Y0
X04575
X03267
X02614
X0196
X01307
X00653
X0
M30
