*
G04 Mass Parameters ***
*
G04 Image ***
*
%INF:\PT0760\PCB\FLEXPRINTS\REV 2\FRONT2VGA.SMT*%
%ICAS*%
%MOIN*%
%IPPOS*%
%ASAXBY*%
G74*%FSLAN2X34Y34*%
*
G04 Aperture Definitions ***
*
%ADD10R,0.0980X0.0240*%
%ADD11R,0.0800X0.0800*%
%ADD12R,0.1570X0.0240*%
%ADD13C,0.0120*%
%ADD14C,0.0200*%
%ADD15C,0.0080*%
%ADD16R,0.1000X0.0260*%
%ADD17R,0.0820X0.0820*%
%ADD18R,0.1590X0.0260*%
*
G04 Plot Data ***
*
G54D16*
X-0020020Y0005760D03*
Y0000250D03*
Y0000640D03*
Y0001430D03*
Y0001820D03*
Y0002610D03*
Y0003790D03*
Y0004580D03*
Y0004970D03*
X-0021870Y0005960D03*
Y0005170D03*
Y0004780D03*
Y0004390D03*
Y0003990D03*
Y0003600D03*
Y0003210D03*
Y0002810D03*
Y0002420D03*
Y0002020D03*
Y0001630D03*
Y0001240D03*
Y0000840D03*
Y0000450D03*
X-0020020Y0001030D03*
Y0002210D03*
Y0003000D03*
Y0003390D03*
Y0004180D03*
Y0005360D03*
Y0006150D03*
X-0021870Y0005560D03*
G54D17*
X-0020940Y-0000350D03*
Y0006740D03*
Y0007140D03*
Y-0000750D03*
G54D18*
X-0001560Y-0002507D03*
Y-0002114D03*
Y-0001720D03*
Y-0001326D03*
Y-0000933D03*
Y-0000539D03*
Y-0000145D03*
Y0000248D03*
Y0000642D03*
Y0001036D03*
Y0001429D03*
Y0001823D03*
Y0002217D03*
Y0002610D03*
Y0003004D03*
Y0003398D03*
Y0003792D03*
Y0004185D03*
Y0004579D03*
Y0004973D03*
Y0005366D03*
Y0005760D03*
Y0006154D03*
Y0006547D03*
Y0006941D03*
Y0007335D03*
Y0007729D03*
Y0008122D03*
Y0008516D03*
Y0008910D03*
M02*
