*%FSLAX23Y23*%
*%MOIN*%
G01*
D22*
X9390Y7765D02*
D03*
Y7817D02*
D03*
X8921Y8470D02*
D03*
Y7986D02*
D03*
X8717Y7521D02*
D03*
X8709Y7765D02*
D03*
Y7817D02*
D03*
X8244Y8470D02*
D03*
Y7986D02*
D03*
X8154Y7517D02*
D03*
X7732Y7568D02*
D03*
X7661Y7431D02*
D03*
X7106Y7675D02*
D03*
D28*
X5872Y8343D02*
D03*
X5972D02*
D03*
X5872Y8243D02*
D03*
X5972D02*
D03*
X5872Y8143D02*
D03*
X5972D02*
D03*
X5872Y8043D02*
D03*
X5972D02*
D03*
X5872Y7943D02*
D03*
X5972D02*
D03*
X5872Y7843D02*
D03*
X5972D02*
D03*
X5872Y7743D02*
D03*
X5972Y7743D02*
D03*
X5872Y7643D02*
D03*
X6697Y7802D02*
D03*
X6397D02*
D03*
X6697Y8202D02*
D03*
X6397D02*
D03*
X7239Y8152D02*
D03*
Y7852D02*
D03*
X6839Y8152D02*
D03*
Y7852D02*
D03*
Y7359D02*
D03*
Y7659D02*
D03*
X7239Y7359D02*
D03*
Y7659D02*
D03*
Y8644D02*
D03*
Y8344D02*
D03*
X6839Y8644D02*
D03*
Y8344D02*
D03*
X7382Y8202D02*
D03*
X7682D02*
D03*
X7382Y7802D02*
D03*
X7682D02*
D03*
X11381Y7797D02*
D03*
Y7497D02*
D03*
X10981Y7797D02*
D03*
Y7497D02*
D03*
X10200Y7797D02*
D03*
Y7497D02*
D03*
X9800Y7797D02*
D03*
Y7497D02*
D03*
X12037Y7927D02*
D03*
X12137D02*
D03*
X12562Y7797D02*
D03*
Y7497D02*
D03*
X12162Y7797D02*
D03*
Y7497D02*
D03*
X13111Y7828D02*
D03*
X13211D02*
D03*
X13111Y8065D02*
D03*
X13211D02*
D03*
X13111Y8301D02*
D03*
X13211D02*
D03*
D32*
X5760Y8108D02*
D03*
X5752Y7876D02*
D03*
D36*
X6280Y7478D02*
D03*
Y8525D02*
D03*
X10177D02*
D03*
X14075Y7478D02*
D03*
Y8525D02*
D03*
D48*
X5972Y7643D02*
D03*
M02*
