*%FSLAX23Y23*%
*%MOIN*%
G01*
D29*
X8244Y7868D02*
D03*
X8921D02*
D03*
D37*
X8008Y8151D02*
D03*
Y8076D02*
D03*
D39*
X8088Y8113D02*
D03*
D41*
X8153Y8379D02*
D03*
X8063D02*
D03*
X8586Y8202D02*
D03*
X8496D02*
D03*
X8586Y8293D02*
D03*
X8496D02*
D03*
X8586Y8379D02*
D03*
X8496D02*
D03*
X8354D02*
D03*
X8264D02*
D03*
X8586Y8116D02*
D03*
X8496D02*
D03*
X8665Y8203D02*
D03*
X8755D02*
D03*
X8667Y8116D02*
D03*
X8757D02*
D03*
X12350Y7927D02*
D03*
X12260D02*
D03*
X13448Y7828D02*
D03*
X13358D02*
D03*
X13448Y8065D02*
D03*
X13358D02*
D03*
X13444Y8293D02*
D03*
X13354D02*
D03*
D43*
X9035Y7986D02*
D03*
X9170D02*
D03*
X8362Y7990D02*
D03*
X8497D02*
D03*
D44*
X7925Y8162D02*
D03*
Y8072D02*
D03*
D49*
X8619Y7868D02*
D03*
Y7818D02*
D03*
Y7768D02*
D03*
Y7718D02*
D03*
Y7668D02*
D03*
Y7618D02*
D03*
Y7568D02*
D03*
Y7518D02*
D03*
X8244D02*
D03*
Y7568D02*
D03*
Y7618D02*
D03*
Y7668D02*
D03*
Y7718D02*
D03*
Y7768D02*
D03*
Y7818D02*
D03*
X9296Y7868D02*
D03*
Y7818D02*
D03*
Y7768D02*
D03*
Y7718D02*
D03*
Y7668D02*
D03*
Y7618D02*
D03*
Y7568D02*
D03*
Y7518D02*
D03*
X8921D02*
D03*
Y7568D02*
D03*
Y7618D02*
D03*
Y7668D02*
D03*
Y7718D02*
D03*
Y7768D02*
D03*
Y7818D02*
D03*
D51*
X6091Y7647D02*
D03*
Y7782D02*
D03*
M02*
